<svg width="48" height="48" viewBox="0 0 48 48" fill="none" xmlns="http://www.w3.org/2000/svg">
<g clip-path="url(#clip0_1141_47608)">
<rect width="48" height="48" rx="24" fill="white"/>
<path opacity="0.44" d="M44.7858 29.4609C44.7858 29.4609 46.956 17.9827 41.044 11.4707C35.8253 5.72177 27.5631 3.48577 20.8284 8.23955C18.4289 9.93333 16.6822 13.2218 13.8787 14.2382C10.7355 15.3778 6.69466 15.7849 3.77599 20.6693C0.857328 25.5538 1.90533 31.8218 5.79644 35.1595C9.68799 38.4973 16.4978 35.2409 22.6347 34.9969C28.7711 34.752 41.568 43.6253 44.7858 29.4609Z" fill="#F7DF8E"/>
<path d="M26.5472 16.916L30.0098 16.9444C30.0098 16.9444 30.2387 16.916 30.2961 17.0875C30.2961 17.0875 30.8969 18.6044 30.9258 19.148C30.9543 19.6915 30.8112 19.6057 31.0405 20.3213C31.2694 21.0368 31.9276 22.7253 32.2996 24.0991C32.7996 25.9453 32.9298 27.9048 32.9618 29.8102C32.9667 30.116 33.1498 32.7471 32.6738 32.7471C32.2787 32.7471 28.6356 33.2297 28.5916 32.5275C28.4165 29.728 28.9223 26.9928 27.9498 24.2702C27.5721 23.2128 27.1392 22.096 26.8187 20.9897C26.4969 19.8791 26.4423 18.7342 26.2329 17.6022C26.0894 16.8302 26.5472 16.916 26.5472 16.916Z" fill="#E5CA92"/>
<path d="M26.209 17.2591C26.2432 16.8595 26.5481 16.9164 26.5481 16.9164L30.0108 16.9449C30.0108 16.9449 30.2396 16.9164 30.297 17.088C30.297 17.088 30.8979 18.6049 30.9268 19.1484C30.9379 19.3586 30.9232 19.4746 30.9143 19.5795L30.841 19.6924C30.841 19.6924 30.7263 20.6942 29.353 20.7511C27.9792 20.8084 27.2068 20.1786 26.9205 19.5778C26.6343 18.9769 26.5201 18.004 26.2908 17.4315C26.2672 17.3738 26.2388 17.3164 26.209 17.2591Z" fill="#A28C61"/>
<path d="M27.0115 18.3769C27.2439 19.2129 27.1044 19.4453 27.3368 20.8849C27.5692 22.3249 28.4052 23.9502 28.7301 25.4364C29.0555 26.9226 28.9159 32.1711 28.8692 32.4031C28.8515 32.4915 28.8475 32.6338 28.8488 32.7764C28.6928 32.7182 28.5986 32.6378 28.5915 32.528C28.4164 29.7284 28.9221 26.9933 27.9497 24.2706C27.5719 23.2133 27.139 22.0964 26.8186 20.9906C26.4968 19.88 26.4421 18.7351 26.2328 17.6031C26.1448 17.1284 26.2839 16.9782 26.4039 16.9324L26.4075 16.9369C26.4075 16.9369 26.779 17.5409 27.0115 18.3769Z" fill="#A28C61"/>
<path d="M33.6998 39.5098L33.7229 39.4911V36.2587H33.2584V34.2151H34.9771V36.2587H34.5127V39.5466L38.6229 40.8564V41.1818C38.6229 41.3871 38.4567 41.5533 38.2513 41.5533C38.046 41.5533 37.8798 41.3871 37.8798 41.1818V41.1355L34.4429 40.736V41.2284C34.4429 41.408 34.2975 41.5538 34.1175 41.5538C33.938 41.5538 33.7922 41.408 33.7922 41.2284V40.7195L30.2158 41.1355V41.1818C30.2158 41.3871 30.0495 41.5533 29.8442 41.5533C29.6389 41.5533 29.4727 41.3871 29.4727 41.1818V40.8564L33.6998 39.5098Z" fill="#263138" stroke="#263138" stroke-width="0.0444444" stroke-miterlimit="10" stroke-linecap="round" stroke-linejoin="round"/>
<path d="M28.5059 34.5911H39.2997C39.3979 34.5911 39.4775 34.5115 39.4775 34.4133V32.3986C39.4775 32.3004 39.3979 32.2209 39.2997 32.2209H28.5059C28.4077 32.2209 28.3281 32.3004 28.3281 32.3986V34.4133C28.3281 34.5115 28.4077 34.5911 28.5059 34.5911Z" fill="#263138" stroke="#263138" stroke-width="0.0444444" stroke-miterlimit="10" stroke-linecap="round" stroke-linejoin="round"/>
<path d="M41.2108 22.6995H37.1055V27.4418H41.2108V22.6995Z" fill="#D8D8D8"/>
<path d="M36.7871 27.6542H41.4231V23.372H39.2289L36.7871 27.6542Z" fill="#BB843B"/>
<path d="M42.4153 27.8924H39.7633C39.6575 27.8924 39.5713 27.8066 39.5713 27.7004C39.5713 27.5946 39.6571 27.5084 39.7633 27.5084H42.4153C42.5428 27.5084 42.6651 27.4542 42.7508 27.36C42.8562 27.244 42.8944 27.084 42.8522 26.9328L41.9113 23.5613C41.8828 23.4591 41.9424 23.3533 42.0446 23.3248C42.1464 23.2964 42.2526 23.356 42.2811 23.4582L43.222 26.8297C43.2997 27.1088 43.23 27.4035 43.0348 27.6177C42.8762 27.7924 42.6504 27.8924 42.4153 27.8924Z" fill="#BB843B"/>
<path d="M42.0869 19.1276L41.4863 19.0556L40.5559 26.8192L41.1564 26.8911L42.0869 19.1276Z" fill="#FFFFFE" stroke="#BB843B" stroke-width="0.0444444" stroke-miterlimit="10"/>
<path d="M42.0869 19.1275C42.0869 19.1275 43.1531 22.9338 41.1562 26.8911L42.0869 19.1275Z" fill="#BB843B"/>
<mask id="mask0_1141_47608" style="mask-type:luminance" maskUnits="userSpaceOnUse" x="15" y="27" width="30" height="16">
<path d="M44.6721 27.8751L15.3721 27.8751L15.3721 42.4333L44.6721 42.4333V27.8751Z" fill="white"/>
</mask>
<g mask="url(#mask0_1141_47608)">
<path d="M15.3738 42.4337L44.6738 42.4337V27.8755L15.3738 27.8755L15.3738 42.4337Z" fill="white" stroke="#263138" stroke-width="0.0444444" stroke-miterlimit="10" stroke-linecap="round" stroke-linejoin="round"/>
</g>
<path d="M15.3738 42.4337L44.6738 42.4337V27.8755L15.3738 27.8755L15.3738 42.4337Z" stroke="#A68C51" stroke-width="0.0444444" stroke-miterlimit="10"/>
<path d="M15.3929 28.5821L44.6631 28.5821V28.2038L15.3929 28.2038V28.5821Z" fill="#A68C51"/>
<path d="M15.1984 28.2489L45.2051 28.2489V27.6511L15.1984 27.6511V28.2489Z" fill="#D0BA90"/>
<path d="M15.6832 21.7969C15.6832 21.7969 15.4059 22.7209 14.8516 23.6449C14.2974 24.5689 13.281 25.7702 13.281 25.7702L9.58496 24.1996C9.58496 24.1996 10.4165 23.368 11.3405 21.9818C12.2645 20.5956 12.481 20.3098 12.481 20.3098C12.481 20.3098 14.8196 21.4916 15.6832 21.7969Z" fill="white" stroke="#D2C67F" stroke-width="0.0444444" stroke-miterlimit="10" stroke-linecap="round"/>
<path d="M16.6965 31.1804C16.6965 31.1804 15.8214 31.5862 14.7619 31.7844C13.7028 31.9827 12.1294 32.0191 12.1294 32.0191L10.8525 28.2115C10.8525 28.2115 12.0268 28.2818 13.6765 28.0538C15.3268 27.8253 15.6845 27.7978 15.6845 27.7978C15.6845 27.7978 16.3517 30.332 16.6965 31.1804Z" fill="white" stroke="#D2C67F" stroke-width="0.0444444" stroke-miterlimit="10" stroke-linecap="round"/>
<path d="M35.7317 32.7511C35.7317 32.7511 34.8566 33.1569 33.797 33.3551C32.7379 33.5533 31.1646 33.5898 31.1646 33.5898L29.8877 29.7822C29.8877 29.7822 31.0615 29.8524 32.7117 29.6244C34.3619 29.396 34.7197 29.3684 34.7197 29.3684C34.7197 29.3684 35.3873 31.9027 35.7317 32.7511Z" fill="white" stroke="#D2C67F" stroke-width="0.0444444" stroke-miterlimit="10" stroke-linecap="round"/>
<path d="M35.3953 24.0258C35.3953 24.0258 34.4962 23.676 33.6193 23.0498C32.7424 22.4235 31.626 21.3147 31.626 21.3147L33.4864 17.7555C33.4864 17.7555 34.2491 18.6507 35.5571 19.6822C36.8651 20.7138 37.1331 20.9524 37.1331 20.9524C37.1331 20.9524 35.7686 23.1893 35.3953 24.0258Z" fill="white" stroke="#D2C67F" stroke-width="0.0444444" stroke-miterlimit="10" stroke-linecap="round"/>
<path d="M28.3257 23.5404L30.6866 25.6391C30.6866 25.6391 31.2986 23.7591 32.3479 23.1907C33.3973 22.6222 34.4466 22.2724 34.4466 22.2724L31.2115 20.2613C31.2111 20.2618 27.9324 21.5293 28.3257 23.5404Z" fill="white" stroke="#D2C67F" stroke-width="0.0444444" stroke-miterlimit="10" stroke-linecap="round"/>
<path d="M11.5992 18.0889L13.96 20.1875C13.96 20.1875 14.572 18.3076 15.6214 17.7391C16.6707 17.1707 17.72 16.8209 17.72 16.8209L14.4849 14.8098C14.4849 14.8098 11.2058 16.0778 11.5992 18.0889Z" fill="white" stroke="#D2C67F" stroke-width="0.0444444" stroke-miterlimit="10" stroke-linecap="round"/>
<path d="M9.92894 12.0378C12.0055 12.0378 13.6889 10.3544 13.6889 8.27779C13.6889 6.2012 12.0055 4.51779 9.92894 4.51779C7.85235 4.51779 6.16895 6.2012 6.16895 8.27779C6.16895 10.3544 7.85235 12.0378 9.92894 12.0378Z" stroke="#A68C51" stroke-width="0.0444444" stroke-miterlimit="10"/>
<path d="M13.26 9.09696C13.7125 7.25773 12.5883 5.39994 10.749 4.94747C8.9098 4.495 7.05201 5.61919 6.59954 7.45843C6.14707 9.29766 7.27127 11.1554 9.1105 11.6079C10.9497 12.0604 12.8075 10.9362 13.26 9.09696Z" stroke="#A68C51" stroke-width="0.0444444" stroke-miterlimit="10"/>
<path d="M10.4595 9.46268L9.92969 8.27779V5.52134" stroke="#A68C51" stroke-width="0.0444444" stroke-miterlimit="10"/>
<path d="M10.1385 8.27779C10.1385 8.3929 10.0451 8.48667 9.92959 8.48667C9.81448 8.48667 9.7207 8.39334 9.7207 8.27779C9.7207 8.16267 9.81404 8.0689 9.92959 8.0689C10.0447 8.06934 10.1385 8.16267 10.1385 8.27779Z" fill="#A68C51"/>
<path opacity="0.44" d="M23.6529 45.5605C29.7003 45.5605 34.6027 44.9605 34.6027 44.2205C34.6027 43.4804 29.7003 42.8805 23.6529 42.8805C17.6055 42.8805 12.7031 43.4804 12.7031 44.2205C12.7031 44.9605 17.6055 45.5605 23.6529 45.5605Z" fill="#F7DF8E"/>
<path d="M17.2351 41.9916L16.8893 42.4276C16.8893 42.4276 15.8516 42.8338 15.656 43.0142C15.4604 43.1947 15.0693 43.9618 15.0693 43.9618L15.2347 44.1876C15.2347 44.1876 15.9267 44.2329 16.3476 44.2178C16.7689 44.2027 17.2951 44.0373 17.4156 43.9622C17.536 43.8871 17.9271 43.3307 18.0022 43.2405C18.0773 43.1502 18.2427 43.1951 18.4533 43.0902C18.664 42.9849 18.6338 42.1578 18.6338 42.1578L17.2351 41.9916Z" fill="#A68C51"/>
<path d="M17.9268 42.0818C17.9268 42.0818 17.9316 42.1089 17.9401 42.1489C17.9628 42.2511 18.0121 42.436 18.077 42.4578C18.1672 42.488 18.6334 42.1569 18.6334 42.1569" fill="#FAD2C3"/>
<path d="M30.4275 41.9916L30.7733 42.4276C30.7733 42.4276 31.8111 42.8338 32.0066 43.0142C32.2022 43.1947 32.5933 43.9618 32.5933 43.9618L32.428 44.1876C32.428 44.1876 31.736 44.2329 31.3151 44.2178C30.8937 44.2027 30.3675 44.0373 30.2471 43.9622C30.1266 43.8871 29.7355 43.3307 29.6604 43.2405C29.5853 43.1502 29.42 43.1951 29.2093 43.0902C28.9986 42.9849 29.0288 42.1578 29.0288 42.1578L30.4275 41.9916Z" fill="#A68C51"/>
<path d="M29.7354 42.0818C29.7354 42.0818 29.7305 42.1089 29.7217 42.1489C29.699 42.2511 29.6497 42.436 29.5848 42.4578C29.4945 42.488 29.0283 42.1569 29.0283 42.1569" fill="#FAD2C3"/>
<path d="M30.4931 42.14L27.3167 28.4062L26.6905 24.8276L23.8318 24.8658L20.9731 24.8276L20.3469 28.4062L17.1709 42.14L18.6473 42.2742L23.8318 29.7591L29.0167 42.2742L30.4931 42.14Z" fill="#FBEAB9"/>
<path d="M23.043 28.48L23.1959 28.7111" stroke="#DCCB9D" stroke-width="0.0444444" stroke-miterlimit="10"/>
<path d="M18.0364 40.9791L17.8711 41.5094" stroke="#DCCB9D" stroke-width="0.0444444" stroke-miterlimit="10"/>
<path d="M21.6911 29.2507L18.2676 40.2391" stroke="#DCCB9D" stroke-width="0.0444444" stroke-miterlimit="10"/>
<path d="M29.7314 40.8876L29.8217 41.2014" stroke="#DCCB9D" stroke-width="0.0444444" stroke-miterlimit="10"/>
<path d="M27.5879 33.4205L29.6337 40.5454" stroke="#DCCB9D" stroke-width="0.0444444" stroke-miterlimit="10"/>
<path d="M26.249 28.7578L27.4961 33.1018" stroke="#DCCB9D" stroke-width="0.0444444" stroke-miterlimit="10"/>
<path d="M21.7158 26.4729L22.7852 28.0898" stroke="#DCCB9D" stroke-width="0.0444444" stroke-miterlimit="10"/>
<path d="M25.3347 27.3356C25.2694 27.4436 25.2285 27.5196 25.2285 27.5405" stroke="#DCCB9D" stroke-width="0.0444444" stroke-miterlimit="10"/>
<path d="M26.2275 25.9907C26.2275 25.9907 25.828 26.5693 25.5342 27.0209" stroke="#DCCB9D" stroke-width="0.0444444" stroke-miterlimit="10"/>
<path d="M15.8179 5.79602L15.5939 5.88669C15.5459 5.90624 15.4912 5.88269 15.4717 5.83469L15.1788 5.10935C15.1592 5.06135 15.1828 5.00669 15.2308 4.98713L15.4548 4.89646C15.5028 4.87691 15.5574 4.90046 15.577 4.94846L15.8699 5.6738C15.889 5.7218 15.8659 5.77646 15.8179 5.79602Z" fill="#FAD2C3" stroke="#D4B1A5" stroke-width="0.0444444" stroke-miterlimit="10"/>
<path d="M15.4312 6.05912L15.2072 6.14979C15.1592 6.16935 15.1045 6.14579 15.0849 6.09779L14.792 5.37246C14.7725 5.32446 14.796 5.26979 14.844 5.25023L15.068 5.15957C15.116 5.14001 15.1707 5.16357 15.1903 5.21157L15.4832 5.9369C15.5023 5.9849 15.4792 6.04001 15.4312 6.05912Z" fill="#FAD2C3" stroke="#D4B1A5" stroke-width="0.0444444" stroke-miterlimit="10"/>
<path d="M15.0786 6.3707L14.8546 6.46137C14.8066 6.48092 14.752 6.45737 14.7324 6.40937L14.4395 5.68403C14.42 5.63603 14.4435 5.58137 14.4915 5.56181L14.7155 5.47114C14.7635 5.45159 14.8182 5.47514 14.8377 5.52314L15.1306 6.24848C15.1497 6.29648 15.1266 6.35114 15.0786 6.3707Z" fill="#FAD2C3" stroke="#D4B1A5" stroke-width="0.0444444" stroke-miterlimit="10"/>
<path d="M14.7184 6.55202L14.4944 6.64269C14.4464 6.66225 14.3917 6.63869 14.3722 6.59069L14.1348 6.00269C14.1153 5.95469 14.1388 5.90002 14.1868 5.88047L14.4108 5.7898C14.4588 5.77025 14.5135 5.7938 14.533 5.8418L14.7704 6.4298C14.7895 6.4778 14.7664 6.53247 14.7184 6.55202Z" fill="#FAD2C3" stroke="#D4B1A5" stroke-width="0.0444444" stroke-miterlimit="10"/>
<path d="M31.9778 5.51425L31.1645 7.41158L26.1845 15.6107L25.4392 16.0849L23.8467 16.1449L22.2543 16.0849L21.5089 15.6107L16.528 7.41158L15.7147 5.51425L14.4609 6.59825C14.4609 6.59825 15.0369 7.54714 15.1725 7.6147C15.308 7.68225 15.8503 7.88581 15.8503 7.88581L18.0187 14.8654L20.5938 20.7609L20.9512 23.5218C20.9512 23.5218 20.5814 24.6 20.7663 24.8769C21.0192 25.256 21.9307 25.4182 22.3312 25.5494C23.2814 25.86 24.1983 25.8831 25.1574 25.6151C25.6907 25.4663 26.5916 25.3787 26.9263 24.8769C27.1112 24.5996 26.7414 23.5218 26.7414 23.5218L27.0987 20.7609L29.6738 14.8654L31.8423 7.88581C31.8423 7.88581 32.3845 7.6827 32.52 7.6147C32.6556 7.54714 33.2316 6.59825 33.2316 6.59825L31.9778 5.51425Z" fill="#FAD2C3"/>
<path d="M31.8732 5.79602L32.0972 5.88669C32.1452 5.90624 32.1998 5.88269 32.2194 5.83469L32.5123 5.10935C32.5318 5.06135 32.5083 5.00669 32.4603 4.98713L32.2363 4.89646C32.1883 4.87691 32.1336 4.90046 32.114 4.94846L31.8212 5.6738C31.802 5.7218 31.8252 5.77646 31.8732 5.79602Z" fill="#FAD2C3" stroke="#D4B1A5" stroke-width="0.0444444" stroke-miterlimit="10"/>
<path d="M32.2618 6.05912L32.4858 6.14979C32.5338 6.16935 32.5885 6.14579 32.608 6.09779L32.9009 5.37246C32.9205 5.32446 32.8969 5.26979 32.8489 5.25023L32.6249 5.15957C32.5769 5.14001 32.5223 5.16357 32.5027 5.21157L32.2098 5.9369C32.1907 5.98535 32.2138 6.04001 32.2618 6.05912Z" fill="#FAD2C3" stroke="#D4B1A5" stroke-width="0.0444444" stroke-miterlimit="10"/>
<path d="M32.6134 6.3707L32.8374 6.46137C32.8854 6.48092 32.9401 6.45737 32.9596 6.40937L33.2525 5.68403C33.2721 5.63603 33.2485 5.58137 33.2005 5.56181L32.9765 5.47114C32.9285 5.45159 32.8738 5.47514 32.8543 5.52314L32.5614 6.24848C32.5423 6.29648 32.5654 6.35114 32.6134 6.3707Z" fill="#FAD2C3" stroke="#D4B1A5" stroke-width="0.0444444" stroke-miterlimit="10"/>
<path d="M32.9737 6.55202L33.1977 6.64269C33.2457 6.66225 33.3004 6.63869 33.32 6.59069L33.5573 6.00269C33.5769 5.95469 33.5533 5.90002 33.5053 5.88047L33.2813 5.7898C33.2333 5.77025 33.1786 5.7938 33.1591 5.8418L32.9217 6.4298C32.9026 6.4778 32.9257 6.53247 32.9737 6.55202Z" fill="#FAD2C3" stroke="#D4B1A5" stroke-width="0.0444444" stroke-miterlimit="10"/>
<path d="M29.674 14.8654L30.9477 10.7649L29.4895 10.1694L26.1842 15.6107L25.4389 16.0849L23.8464 16.1449L22.254 16.0849L21.5086 15.6107L18.6642 10.928L17.0664 11.7996L18.0189 14.8654L20.594 20.7609L20.9513 23.5218C20.9513 23.5218 20.5815 24.6 20.7664 24.8769C20.9784 25.1951 21.7015 25.336 22.0353 25.4503C23.0824 25.8094 23.954 25.9907 25.0291 25.6556C25.5046 25.5072 26.63 25.3227 26.9269 24.8769C27.1117 24.5996 26.742 23.5218 26.742 23.5218L27.0993 20.7609L29.674 14.8654Z" fill="#D2B670"/>
<path d="M21.2168 17.4987L21.1719 17.8063" stroke="#A68C51" stroke-width="0.0444444" stroke-miterlimit="10"/>
<path d="M21.4467 15.9227L21.2627 17.1858" stroke="#A68C51" stroke-width="0.0444444" stroke-miterlimit="10"/>
<path d="M27.2656 18.3982L27.2936 18.0022" stroke="#A68C51" stroke-width="0.0444444" stroke-miterlimit="10"/>
<path d="M27.0986 20.7609L27.2355 18.8196" stroke="#A68C51" stroke-width="0.0444444" stroke-miterlimit="10"/>
<path d="M20.5938 20.7609L20.584 18.7476" stroke="#A68C51" stroke-width="0.0444444" stroke-miterlimit="10"/>
<path d="M21.8805 16.1863C21.8805 16.1863 21.6037 18.1987 21.7997 19.4147" stroke="#A68C51" stroke-width="0.0444444" stroke-miterlimit="10"/>
<path d="M25.4092 16.3543C25.4092 16.3543 25.6447 17.2565 25.723 18.5907" stroke="#A68C51" stroke-width="0.0444444" stroke-miterlimit="10"/>
<path d="M28.6582 14.864C28.6684 14.9929 28.6835 15.1112 28.7053 15.2165" stroke="#A68C51" stroke-width="0.0444444" stroke-miterlimit="10"/>
<path d="M28.98 11.3716C28.98 11.3716 28.6582 13.0805 28.6436 14.3534" stroke="#A68C51" stroke-width="0.0444444" stroke-miterlimit="10"/>
<path d="M28.5485 12.2738C28.5485 12.2738 28.3525 13.7254 28.3525 14.3534" stroke="#A68C51" stroke-width="0.0444444" stroke-miterlimit="10"/>
<path d="M19.4062 12.3525C19.4062 12.3525 19.6023 14.5103 19.7596 15.7267" stroke="#A68C51" stroke-width="0.0444444" stroke-miterlimit="10"/>
<path d="M20.0457 16.5507C20.0462 16.7227 20.0426 16.8938 20.0342 17.0605" stroke="#A68C51" stroke-width="0.0444444" stroke-miterlimit="10"/>
<path d="M19.7598 13.5689C19.7598 13.5689 20.0029 14.892 20.0407 16.2391" stroke="#A68C51" stroke-width="0.0444444" stroke-miterlimit="10"/>
<path d="M18.5487 10.6613L16.9385 11.5373C16.8567 11.5818 16.8158 11.6765 16.8398 11.7667L17.0389 12.5191C17.0723 12.6449 17.214 12.7071 17.3292 12.6458L19.0963 11.7071C19.194 11.6551 19.2318 11.5342 19.1812 11.436L18.8252 10.7467C18.7727 10.6453 18.6483 10.6071 18.5487 10.6613Z" fill="#A68C51"/>
<path d="M29.5045 9.71559L31.2031 10.4049C31.2893 10.44 31.3405 10.5294 31.3271 10.6218L31.2138 11.3916C31.1947 11.5205 31.0609 11.5978 30.9396 11.5503L29.0782 10.816C28.9751 10.7756 28.924 10.6596 28.9636 10.556L29.2396 9.83114C29.28 9.72492 29.3996 9.67292 29.5045 9.71559Z" fill="#A68C51"/>
<path d="M16.3924 7.24225L16.0862 5.71114C16.068 5.61958 15.9818 5.5578 15.8893 5.5698C15.6578 5.59958 15.2476 5.6498 15.1049 5.6498C14.9018 5.6498 14.8338 6.05647 15.0031 6.05647C15.1724 6.05647 15.4773 6.15825 15.4773 6.15825C15.4773 6.15825 15.24 7.00536 15.7822 7.31025" fill="#FAD2C3"/>
<path d="M16.3924 7.24225L16.0862 5.71114C16.068 5.61958 15.9818 5.5578 15.8893 5.5698C15.6578 5.59958 15.2476 5.6498 15.1049 5.6498C14.9018 5.6498 14.8338 6.05647 15.0031 6.05647C15.1724 6.05647 15.4773 6.15825 15.4773 6.15825C15.4773 6.15825 15.24 7.00536 15.7822 7.31025" stroke="#D4B1A5" stroke-width="0.0444444" stroke-miterlimit="10"/>
<path d="M31.2998 7.24225L31.606 5.71114C31.6242 5.61958 31.7105 5.5578 31.8029 5.5698C32.0345 5.59958 32.4447 5.6498 32.5874 5.6498C32.7905 5.6498 32.8585 6.05647 32.6891 6.05647C32.5198 6.05647 32.2149 6.15825 32.2149 6.15825C32.2149 6.15825 32.4522 7.00536 31.91 7.31025" fill="#FAD2C3"/>
<path d="M31.2998 7.24225L31.606 5.71114C31.6242 5.61958 31.7105 5.5578 31.8029 5.5698C32.0345 5.59958 32.4447 5.6498 32.5874 5.6498C32.7905 5.6498 32.8585 6.05647 32.6891 6.05647C32.5198 6.05647 32.2149 6.15825 32.2149 6.15825C32.2149 6.15825 32.4522 7.00536 31.91 7.31025" stroke="#D4B1A5" stroke-width="0.0444444" stroke-miterlimit="10"/>
<path d="M23.0449 17.6387L23.5685 18.7782L23.0449 24.5689L23.9071 25.5547L24.6463 24.384L23.9378 18.8396L24.5849 17.4844L23.8147 16.8991L23.0449 17.6387Z" fill="#A68C51"/>
<path d="M22.5075 15.7107C22.5075 15.7107 22.2049 15.6458 22.0755 15.8404C21.9457 16.0351 21.8809 16.1862 21.8809 16.1862L22.4426 18.8658L23.7822 17.6991L25.1004 19.0604C25.1004 19.0604 25.3595 17.7209 25.3595 16.7484C25.3595 15.776 24.668 15.5382 24.4951 15.4733C24.3226 15.4084 22.5075 15.7107 22.5075 15.7107Z" fill="#E8CF96"/>
<path d="M22.2041 15.084L22.3988 16.3804C22.3988 16.3804 23.0254 17.6555 23.5441 17.72C24.0628 17.7849 24.4734 17.396 24.6894 16.8124C24.9054 16.2289 24.9054 16.2289 24.9054 16.2289L25.0565 15.0404L22.2041 15.084Z" fill="#FAD2C3"/>
<path d="M25.0565 15.2538C25.0565 15.2538 23.9432 16.3671 23.5889 16.5191C23.2347 16.6711 22.248 15.3044 22.248 15.3044L25.0565 15.2538Z" fill="#C8A399"/>
<path d="M21.8846 14.024C21.8846 14.024 21.3281 13.5911 21.3072 12.7871C21.2868 11.9831 21.4721 11.3236 21.5548 11.4267C21.6375 11.5298 21.6783 11.6947 21.6783 11.6947C21.6783 11.6947 21.7197 10.6022 22.173 10.2929C22.6263 9.98358 22.5646 10.7258 22.5646 10.7258C22.5646 10.7258 23.7601 9.6538 24.5846 9.79825C25.409 9.94269 24.8939 10.2107 24.8939 10.2107C24.8939 10.2107 26.0894 10.664 26.2957 11.1382C26.5019 11.6125 25.4503 11.9836 25.4503 11.9836C25.4503 11.9836 26.0277 12.128 25.945 12.272C25.8623 12.4165 25.6152 12.4782 25.6152 12.4782C25.6152 12.4782 25.5739 13.5707 25.4503 13.6738C25.3268 13.7769 25.265 13.9418 25.1001 13.612C24.9352 13.2822 24.6672 12.4987 24.0695 12.396C23.4717 12.2929 22.4206 12.2516 22.2761 12.6227C22.1317 12.9938 22.3792 13.88 22.1934 14.0658C22.0081 14.2507 21.8846 14.024 21.8846 14.024Z" fill="#2F1F1C"/>
<path d="M24.0134 11.4827C24.0134 11.4827 23.1507 11.3303 22.6431 11.6351C22.1356 11.9396 21.9071 12.5485 21.9071 12.7769C21.9071 13.0054 21.9071 13.7667 21.9071 13.7667C21.9071 13.7667 21.3489 13.3605 21.2476 13.7414C21.1462 14.1218 21.2729 14.6805 21.476 14.7311C21.6791 14.7818 21.8565 14.6298 21.8565 14.6298C21.8565 14.6298 21.9578 15.2387 22.4147 15.4418C22.8716 15.6449 23.4965 15.9511 23.7502 15.9258C24.004 15.9005 25.0031 15.264 25.1049 15.1627C25.2062 15.0614 25.308 14.5031 25.308 14.5031C25.308 14.5031 25.5285 14.7156 25.644 14.6431C25.9671 14.4414 26.0182 14.0463 26.0182 13.7418C26.0182 13.4374 25.4093 13.564 25.4093 13.564C25.4093 13.564 25.1556 12.1178 24.9271 11.7876C24.6982 11.4574 24.0134 11.4827 24.0134 11.4827Z" fill="#FAD2C3"/>
<path d="M23.5059 11.8632C23.5059 11.8632 23.7596 11.3303 24.0134 11.4827C24.2672 11.6352 24.1147 12.2441 24.1147 12.2441" stroke="#263138" stroke-width="0.0444444" stroke-miterlimit="10" stroke-linecap="round"/>
<path d="M22.7451 12.7263C22.7451 12.7263 23.2273 13.0307 23.6078 13.0307C23.9882 13.0307 24.4451 12.7769 24.4451 12.7769" stroke="#2F1F1C" stroke-width="0.0444444" stroke-miterlimit="10" stroke-linecap="round" stroke-linejoin="round"/>
<path d="M22.9119 12.6912C22.9119 12.6912 22.683 12.624 22.6025 12.8125" stroke="#2F1F1C" stroke-width="0.0444444" stroke-miterlimit="10" stroke-linecap="round" stroke-linejoin="round"/>
<path d="M24.2852 12.7045C24.2852 12.7045 24.4736 12.7449 24.5407 12.8796" stroke="#2F1F1C" stroke-width="0.0444444" stroke-miterlimit="10" stroke-linecap="round" stroke-linejoin="round"/>
<path d="M22.9655 12.8929C22.9655 12.8929 23.1944 14.0503 23.6655 14.0907C24.1366 14.1311 24.217 12.92 24.217 12.92C24.217 12.92 23.7913 13.0338 23.6073 13.0307C23.4233 13.0276 22.9521 12.8391 22.9521 12.8391L22.9655 12.8929Z" fill="#2F1F1C" stroke="#2F1F1C" stroke-width="0.0444444" stroke-miterlimit="10"/>
<path d="M22.9521 12.8391L22.9655 12.8929C22.9655 12.8929 22.981 12.9707 23.0117 13.0867C23.1881 13.1689 23.625 13.3151 24.1961 13.1134C24.2117 12.9978 24.217 12.9196 24.217 12.9196C24.217 12.9196 23.7913 13.0334 23.6073 13.0303C23.4233 13.0276 22.9521 12.8391 22.9521 12.8391Z" fill="white" stroke="#2F1F1C" stroke-width="0.0444444" stroke-miterlimit="10" stroke-linecap="round" stroke-linejoin="round"/>
<path d="M23.9994 13.8414C23.6865 13.8765 23.4514 13.8454 23.3047 13.8111C23.4029 13.9645 23.5229 14.0787 23.6651 14.0907C23.8109 14.1031 23.9189 13.9956 23.9994 13.8414Z" fill="white" stroke="#2F1F1C" stroke-width="0.0444444" stroke-miterlimit="10" stroke-linecap="round" stroke-linejoin="round"/>
<path d="M22.5615 12.1258C22.5615 12.1258 22.7904 11.8431 23.0997 11.9107" stroke="#2F1F1C" stroke-width="0.0444444" stroke-miterlimit="10" stroke-linecap="round" stroke-linejoin="round"/>
<path d="M24.2168 11.924C24.2168 11.924 24.5128 11.8569 24.7417 12.0454" stroke="#2F1F1C" stroke-width="0.0444444" stroke-miterlimit="10" stroke-linecap="round" stroke-linejoin="round"/>
<path d="M23.0468 11.6009C23.0468 11.6009 22.6432 11.628 22.4814 11.8969" stroke="#2F1F1C" stroke-width="0.0888889" stroke-miterlimit="10" stroke-linecap="round" stroke-linejoin="round"/>
<path d="M24.3105 11.5876C24.3105 11.5876 24.7008 11.6009 24.8892 11.9107" stroke="#2F1F1C" stroke-width="0.0888889" stroke-miterlimit="10" stroke-linecap="round" stroke-linejoin="round"/>
</g>
<defs>
<clipPath id="clip0_1141_47608">
<rect width="48" height="48" rx="24" fill="white"/>
</clipPath>
</defs>
</svg>
