<svg width="48" height="48" viewBox="0 0 48 48" fill="none" xmlns="http://www.w3.org/2000/svg">
<g clip-path="url(#clip0_1141_47607)">
<rect width="48" height="48" rx="24" fill="white"/>
<g clip-path="url(#clip1_1141_47607)">
<path opacity="0.29" d="M35.8071 29.9769C39.9085 29.9769 43.2333 26.9549 43.2333 23.2271C43.2333 19.4993 39.9085 16.4773 35.8071 16.4773C31.7057 16.4773 28.3809 19.4993 28.3809 23.2271C28.3809 26.9549 31.7057 29.9769 35.8071 29.9769Z" fill="#FADC9D"/>
<path opacity="0.29" d="M10.102 48.5898C14.2034 48.5898 17.5282 45.5678 17.5282 41.84C17.5282 38.1122 14.2034 35.0902 10.102 35.0902C6.00061 35.0902 2.67578 38.1122 2.67578 41.84C2.67578 45.5678 6.00061 48.5898 10.102 48.5898Z" fill="#FADC9D"/>
<g opacity="0.29">
<path d="M43.3442 45.2907C43.2975 45.2907 43.2598 45.2564 43.2598 45.2142V41.7716C43.2598 41.7293 43.2975 41.6951 43.3442 41.6951C43.3909 41.6951 43.4287 41.7293 43.4287 41.7716V45.2142C43.4287 45.2564 43.3909 45.2907 43.3442 45.2907Z" fill="#FADC9D"/>
<path d="M42.0051 44.7862C41.9833 44.7862 41.962 44.7787 41.9456 44.7636C41.9127 44.7338 41.9127 44.6853 41.9456 44.6551L44.6238 42.2209C44.6567 42.1911 44.71 42.1911 44.7429 42.2209C44.7758 42.2507 44.7758 42.2991 44.7429 42.3293L42.0647 44.7636C42.0482 44.7791 42.0269 44.7862 42.0051 44.7862Z" fill="#FADC9D"/>
<path d="M45.2382 43.5689H41.4507C41.404 43.5689 41.3662 43.5347 41.3662 43.4924C41.3662 43.4502 41.404 43.416 41.4507 43.416H45.2382C45.2849 43.416 45.3227 43.4502 45.3227 43.4924C45.3227 43.5347 45.2849 43.5689 45.2382 43.5689Z" fill="#FADC9D"/>
<path d="M44.6833 44.7862C44.6616 44.7862 44.6402 44.7787 44.6238 44.7636L41.9456 42.3293C41.9127 42.2996 41.9127 42.2511 41.9456 42.2209C41.9785 42.1911 42.0318 42.1911 42.0647 42.2209L44.7429 44.6551C44.7758 44.6849 44.7758 44.7333 44.7429 44.7636C44.7265 44.7791 44.7051 44.7862 44.6833 44.7862Z" fill="#FADC9D"/>
</g>
<g opacity="0.29">
<path d="M43.8555 26.5276C43.8342 26.5276 43.8164 26.5116 43.8164 26.492V24.9031C43.8164 24.8836 43.8337 24.8676 43.8555 24.8676C43.8769 24.8676 43.8946 24.8836 43.8946 24.9031V26.492C43.8946 26.5116 43.8769 26.5276 43.8555 26.5276Z" fill="#FADC9D"/>
<path d="M43.2371 26.2947C43.2274 26.2947 43.2171 26.2911 43.2096 26.2844C43.1945 26.2707 43.1945 26.2484 43.2096 26.2347L44.4456 25.1111C44.4607 25.0973 44.4856 25.0973 44.5007 25.1111C44.5158 25.1249 44.5158 25.1471 44.5007 25.1613L43.2647 26.2849C43.2571 26.2911 43.2474 26.2947 43.2371 26.2947Z" fill="#FADC9D"/>
<path d="M44.7295 25.7329H42.9815C42.9602 25.7329 42.9424 25.7169 42.9424 25.6973C42.9424 25.6778 42.9597 25.6618 42.9815 25.6618H44.7295C44.7508 25.6618 44.7686 25.6778 44.7686 25.6973C44.7682 25.7173 44.7508 25.7329 44.7295 25.7329Z" fill="#FADC9D"/>
<path d="M44.4731 26.2947C44.4634 26.2947 44.4531 26.2911 44.4456 26.2844L43.2096 25.1609C43.1945 25.1471 43.1945 25.1249 43.2096 25.1107C43.2247 25.0964 43.2496 25.0969 43.2647 25.1107L44.5007 26.2342C44.5158 26.248 44.5158 26.2702 44.5007 26.284C44.4927 26.2911 44.4829 26.2947 44.4731 26.2947Z" fill="#FADC9D"/>
</g>
<path opacity="0.29" d="M8.77364 30.2791C9.21817 30.2791 9.57853 29.9188 9.57853 29.4742C9.57853 29.0297 9.21817 28.6693 8.77364 28.6693C8.32911 28.6693 7.96875 29.0297 7.96875 29.4742C7.96875 29.9188 8.32911 30.2791 8.77364 30.2791Z" fill="#FADC9D"/>
<path opacity="0.29" d="M31.4875 13.0058C31.932 13.0058 32.2924 12.6454 32.2924 12.2009C32.2924 11.7564 31.932 11.396 31.4875 11.396C31.043 11.396 30.6826 11.7564 30.6826 12.2009C30.6826 12.6454 31.043 13.0058 31.4875 13.0058Z" fill="#FADC9D"/>
<path opacity="0.29" d="M42.2707 36.8333C42.7152 36.8333 43.0756 36.473 43.0756 36.0284C43.0756 35.5839 42.7152 35.2236 42.2707 35.2236C41.8262 35.2236 41.4658 35.5839 41.4658 36.0284C41.4658 36.473 41.8262 36.8333 42.2707 36.8333Z" fill="#FADC9D"/>
<g opacity="0.38">
<path d="M27.6955 42.0756C27.7746 42.0724 27.8413 42.1342 27.8444 42.2133C27.8475 42.2924 27.7857 42.3591 27.7066 42.3622C27.6275 42.3653 27.5608 42.3036 27.5577 42.2244C27.5546 42.1458 27.616 42.0787 27.6955 42.0756Z" fill="#F9D789"/>
<path d="M35.6669 42.3818C35.7958 42.3818 35.9003 42.2773 35.9003 42.1484C35.9003 42.0196 35.7958 41.9151 35.6669 41.9151C35.5381 41.9151 35.4336 42.0196 35.4336 42.1484C35.4336 42.2773 35.5381 42.3818 35.6669 42.3818Z" fill="#F9D789"/>
<path d="M36.2041 14.2391L35.9316 15.2307L36.213 15.2889L36.6907 14.5231L36.2041 14.2391Z" fill="#F9D789"/>
<path d="M31.7705 8.10578L32.6936 8.55911L32.8034 8.29378L32.1403 7.68133L31.7705 8.10578Z" fill="#F9D789"/>
<path d="M36.1201 22.5533L37.1237 22.7782L37.1681 22.4947L36.3806 22.0542L36.1201 22.5533Z" fill="#F9D789"/>
<path d="M37.1172 7.82844L37.8127 7.812L37.887 7.64044L37.3794 7.5L37.1172 7.82844Z" fill="#F9D789"/>
<path d="M34.6729 0.662667L35.1804 1.55733L35.4204 1.39911L35.2173 0.52L34.6729 0.662667Z" fill="#F9D789"/>
<path d="M29.3509 3.54C29.4087 3.59422 29.4993 3.59155 29.554 3.53333C29.6082 3.47555 29.6056 3.38489 29.5473 3.33067C29.4896 3.27644 29.3989 3.27911 29.3442 3.33733C29.2905 3.39511 29.2931 3.48578 29.3509 3.54Z" fill="#F9D789"/>
<path d="M32.566 45.8196C32.6451 45.8164 32.7069 45.7498 32.7038 45.6707C32.7007 45.5916 32.634 45.5298 32.5549 45.5329C32.4758 45.536 32.414 45.6027 32.4171 45.6818C32.4198 45.7609 32.4864 45.8227 32.566 45.8196Z" fill="#F9D789"/>
<path d="M27.4707 8.044L28.456 8.33778L28.52 8.05778L27.7645 7.564L27.4707 8.044Z" fill="#F9D789"/>
<path d="M32.0207 40.7649L32.8651 40.1782L32.6864 39.9533L31.8291 40.2356L32.0207 40.7649Z" fill="#F9D789"/>
<path d="M18.4336 35.1147L19.3567 35.568L19.466 35.3027L18.8034 34.6902L18.4336 35.1147Z" fill="#F9D789"/>
<path d="M37.1562 37.1822L38.1598 37.4071L38.2042 37.1231L37.4162 36.6827L37.1562 37.1822Z" fill="#F9D789"/>
<path d="M36.2598 30.2262L36.9558 30.2098L37.0295 30.0382L36.522 29.8978L36.2598 30.2262Z" fill="#F9D789"/>
<path d="M23.1074 24.2L23.615 25.0942L23.855 24.9364L23.6519 24.0573L23.1074 24.2Z" fill="#F9D789"/>
<path d="M23.3247 3.23511C23.3825 3.28933 23.4732 3.28666 23.5278 3.22844C23.582 3.17066 23.5794 3.08 23.5212 3.02578C23.4634 2.97155 23.3727 2.97422 23.318 3.032C23.2638 3.08978 23.2669 3.18044 23.3247 3.23511Z" fill="#F9D789"/>
<path d="M22.7695 31.6662L23.7802 31.856L23.8149 31.5707L23.0122 31.1582L22.7695 31.6662Z" fill="#F9D789"/>
<path d="M39.1362 12.0761C39.2154 12.073 39.2771 12.0062 39.274 11.927C39.2709 11.8478 39.2041 11.7861 39.1249 11.7892C39.0457 11.7923 38.984 11.8591 38.9871 11.9383C38.9902 12.0175 39.057 12.0792 39.1362 12.0761Z" fill="#F9D789"/>
<path d="M40.5891 20.2133C40.6682 20.2102 40.7348 20.272 40.738 20.3511C40.7411 20.4302 40.6793 20.4969 40.6002 20.5C40.5211 20.5031 40.4544 20.4413 40.4513 20.3622C40.4482 20.2831 40.5099 20.2164 40.5891 20.2133Z" fill="#F9D789"/>
<path d="M44.8619 22.5716C44.9908 22.5667 45.0992 22.6667 45.1041 22.7956C45.109 22.9244 45.009 23.0329 44.8801 23.0378C44.7512 23.0427 44.6428 22.9427 44.6379 22.8138C44.6326 22.6853 44.733 22.5764 44.8619 22.5716Z" fill="#F9D789"/>
<path d="M40.1886 25.5618L40.8793 24.8004L40.6544 24.6218L39.8828 25.0893L40.1886 25.5618Z" fill="#F9D789"/>
<path d="M41.7061 17.5938L42.7096 17.8187L42.7541 17.5347L41.9665 17.0942L41.7061 17.5938Z" fill="#F9D789"/>
<path d="M40.9432 29.808L41.3606 30.5204L41.1543 30.6236L40.625 30.1289L40.9432 29.808Z" fill="#F9D789"/>
<path d="M45.5269 44.66C45.606 44.6569 45.6678 44.5902 45.6647 44.5111C45.6616 44.432 45.5949 44.3702 45.5158 44.3733C45.4367 44.3765 45.3749 44.4431 45.378 44.5222C45.3812 44.6013 45.4478 44.6631 45.5269 44.66Z" fill="#F9D789"/>
<path d="M12.4473 27.6018L13.6135 27.8631L13.665 27.5333L12.7495 27.0218L12.4473 27.6018Z" fill="#F9D789"/>
<path d="M20.3495 26.6289C20.4784 26.6289 20.5829 26.5244 20.5829 26.3955C20.5829 26.2667 20.4784 26.1622 20.3495 26.1622C20.2207 26.1622 20.1162 26.2667 20.1162 26.3955C20.1162 26.5244 20.2207 26.6289 20.3495 26.6289Z" fill="#F9D789"/>
<path d="M18.6285 30.4671C18.7076 30.464 18.7694 30.3973 18.7663 30.3182C18.7632 30.2391 18.6965 30.1773 18.6174 30.1804C18.5383 30.1836 18.4765 30.2502 18.4796 30.3293C18.4823 30.4084 18.5489 30.4702 18.6285 30.4671Z" fill="#F9D789"/>
<path d="M17.3722 23.5302L18.2167 22.9436L18.038 22.7187L17.1807 23.0009L17.3722 23.5302Z" fill="#F9D789"/>
<path d="M16.442 41.0596C16.5211 41.0564 16.5829 40.9898 16.5797 40.9107C16.5766 40.8316 16.51 40.7698 16.4309 40.7729C16.3517 40.776 16.29 40.8427 16.2931 40.9218C16.2962 41.0009 16.3629 41.0627 16.442 41.0596Z" fill="#F9D789"/>
<path d="M5.45656 30.9385C5.58533 30.9334 5.68561 30.8249 5.68054 30.6961C5.67548 30.5674 5.56699 30.4671 5.43822 30.4722C5.30946 30.4772 5.20918 30.5857 5.21425 30.7145C5.21931 30.8432 5.3278 30.9435 5.45656 30.9385Z" fill="#F9D789"/>
<path d="M12.7207 41.1329L13.7243 41.3578L13.7687 41.0742L12.9807 40.6338L12.7207 41.1329Z" fill="#F9D789"/>
<path d="M6.30525 35.5862C6.38436 35.5831 6.44614 35.5164 6.44303 35.4373C6.43992 35.3582 6.37325 35.2964 6.29414 35.2996C6.21503 35.3027 6.15325 35.3693 6.15636 35.4484C6.15903 35.5276 6.2257 35.5893 6.30525 35.5862Z" fill="#F9D789"/>
<path d="M4.3629 34.316L5.20734 33.7289L5.02823 33.5044L4.1709 33.7862L4.3629 34.316Z" fill="#F9D789"/>
<path d="M14.8164 31.7973L15.82 32.0222L15.8644 31.7382L15.0769 31.2978L14.8164 31.7973Z" fill="#F9D789"/>
<path d="M9.28027 22.5347L9.97627 22.5187L10.0501 22.3471L9.5425 22.2067L9.28027 22.5347Z" fill="#F9D789"/>
<path d="M8.90645 0.347555C8.98556 0.344444 9.05222 0.406222 9.05533 0.485333C9.05845 0.564444 8.99667 0.631111 8.91756 0.634222C8.83845 0.637333 8.77178 0.575555 8.76867 0.496444C8.76556 0.417333 8.82689 0.350666 8.90645 0.347555Z" fill="#F9D789"/>
<path d="M10.3693 8.77111C10.4484 8.768 10.5151 8.82977 10.5182 8.90889C10.5213 8.988 10.4596 9.05466 10.3804 9.05778C10.3013 9.06089 10.2347 8.99911 10.2316 8.92C10.2284 8.84089 10.2898 8.77422 10.3693 8.77111Z" fill="#F9D789"/>
<path d="M9.96886 14.1196L10.66 13.3578L10.4351 13.1791L9.66309 13.6471L9.96886 14.1196Z" fill="#F9D789"/>
<path d="M10.7235 18.3658L11.1404 19.0782L10.9342 19.1813L10.4053 18.6867L10.7235 18.3658Z" fill="#F9D789"/>
</g>
<g opacity="0.37">
<path d="M18.9625 12.6662C18.9194 12.6662 18.8848 12.6347 18.8848 12.5956V9.41778C18.8848 9.37867 18.9194 9.34711 18.9625 9.34711C19.0057 9.34711 19.0403 9.37867 19.0403 9.41778V12.5956C19.0403 12.6347 19.0057 12.6662 18.9625 12.6662Z" fill="#D2B670"/>
<path d="M17.7262 12.2009C17.7062 12.2009 17.6862 12.1938 17.6711 12.18C17.6409 12.1524 17.6409 12.1076 17.6711 12.08L20.1431 9.83289C20.1733 9.80534 20.2227 9.80534 20.2533 9.83289C20.2835 9.86045 20.2835 9.90534 20.2533 9.93289L17.7813 12.18C17.7662 12.1938 17.7462 12.2009 17.7262 12.2009Z" fill="#D2B670"/>
<path d="M20.7105 11.0773H17.2145C17.1714 11.0773 17.1367 11.0458 17.1367 11.0067C17.1367 10.9676 17.1714 10.936 17.2145 10.936H20.7105C20.7536 10.936 20.7883 10.9676 20.7883 11.0067C20.7883 11.0453 20.7536 11.0773 20.7105 11.0773Z" fill="#D2B670"/>
<path d="M20.1992 12.2009C20.1792 12.2009 20.1592 12.1938 20.1441 12.18L17.6721 9.93289C17.6419 9.90534 17.6419 9.86045 17.6721 9.83289C17.7023 9.80534 17.7516 9.80534 17.7823 9.83289L20.2543 12.08C20.2845 12.1076 20.2845 12.1524 20.2543 12.18C20.2387 12.1938 20.2187 12.2009 20.1992 12.2009Z" fill="#D2B670"/>
</g>
<path d="M45.4554 57.0027C44.7051 53.8996 36.2016 46.9822 35.542 46.3733C35.5251 46.3573 35.5136 46.3458 35.5078 46.3391C35.3367 46.1351 34.454 44.8164 33.9434 44.0484C33.2994 44.02 32.5714 43.7822 31.9256 43.8009C30.7482 43.8356 29.6594 44.128 28.502 44.3622C28.3647 44.3902 28.2282 44.42 28.0918 44.452C28.4198 46.1827 28.5278 46.7387 29.0958 48.4089C29.1242 48.4876 29.1594 48.572 29.2002 48.6604C29.4282 49.1569 29.7469 49.6067 30.1309 49.9956C31.9882 51.8765 38.7678 58.5747 41.7136 59.1853C44.6042 59.784 46.0847 59.6049 45.4554 57.0027Z" fill="#D0B764"/>
<path d="M26.5863 49.3218C26.7623 49.0347 26.9245 48.7396 27.0667 48.4342C27.1983 48.1516 27.3392 47.8582 27.4267 47.6129C27.8756 46.3524 27.9525 45.8218 28.041 44.4773C27.4556 44.5524 26.8721 44.6467 26.2925 44.7413C25.1023 44.9369 23.9161 45.1573 22.7325 45.3844C22.0641 45.5133 21.3925 45.0827 20.7423 45.2804C20.7734 46.1751 20.0498 47.2498 19.969 47.4258C19.9618 47.4418 19.9392 47.4764 19.9018 47.5293C19.1325 48.6289 12.2245 57.4373 11.8996 60.5431C11.7712 61.7676 11.8801 62.5769 12.2347 63.0324C12.237 63.0351 12.2383 63.0378 12.2405 63.0391C12.2458 63.0471 12.2521 63.0538 12.2578 63.0609C12.2641 63.0689 12.2703 63.076 12.2765 63.0836C12.8818 63.7791 14.1343 63.5511 16.0752 62.6596C16.4801 62.4738 16.9485 62.124 17.4596 61.6551C17.7138 61.4213 17.9792 61.1582 18.2516 60.8702C18.3174 60.8009 18.3841 60.7302 18.4498 60.6578C18.501 60.6031 18.5521 60.5471 18.6027 60.4907C18.6147 60.4778 18.6267 60.4644 18.6383 60.4511C22.0725 56.6476 26.4418 49.5804 26.4418 49.5804C26.4418 49.5804 26.4898 49.4787 26.5863 49.3218Z" fill="#D0B764"/>
<path d="M27.168 24.3462L27.3586 24.4924C27.4129 24.5329 27.4675 24.5733 27.52 24.6111C27.5733 24.6498 27.6257 24.6876 27.6782 24.724C27.7306 24.7613 27.7831 24.7978 27.8351 24.8329C28.044 24.9764 28.2537 25.1093 28.4649 25.24C28.8862 25.5009 29.3182 25.7364 29.7564 25.96C30.6346 26.4027 31.5489 26.7791 32.4973 27.0778L32.8546 27.1853C32.9733 27.2222 33.0937 27.2547 33.2146 27.2867C33.3355 27.3187 33.4551 27.3529 33.5769 27.3822L33.9426 27.4684C34.4324 27.5747 34.9275 27.6693 35.4302 27.7307C35.9311 27.7996 36.4391 27.836 36.948 27.8578C37.4582 27.8689 37.9702 27.8702 38.4822 27.8311C38.6102 27.8218 38.7382 27.8142 38.8662 27.8031L39.2493 27.7609L39.4409 27.7391L39.4889 27.7338L39.5466 27.7249L39.6097 27.7142C39.6937 27.6996 39.7777 27.6827 39.8609 27.6631C40.2009 27.5764 40.5373 27.4342 40.8302 27.2484C40.904 27.2027 40.9702 27.1542 41.0386 27.1044C41.0724 27.0796 41.1057 27.0542 41.1391 27.0284C41.1706 27.0031 41.2 26.9773 41.2297 26.9516C41.2889 26.8996 41.3489 26.8458 41.4044 26.792C41.456 26.7396 41.5066 26.6858 41.5564 26.6316C41.5804 26.6049 41.6071 26.576 41.6284 26.5498L41.6924 26.4702C41.7342 26.4173 41.7777 26.3618 41.8155 26.3089C41.8511 26.2573 41.8866 26.2053 41.9209 26.1529C41.9377 26.1267 41.9555 26.1 41.9715 26.0742L42.0155 25.9991C42.2497 25.5938 42.3817 25.2316 42.4822 24.9004C42.58 24.5689 42.6426 24.2649 42.6871 23.9747C42.732 23.6844 42.76 23.4084 42.7795 23.1404C42.8169 22.604 42.8169 22.0996 42.7995 21.6062C42.7902 21.36 42.7764 21.1173 42.7591 20.8769C42.7413 20.6364 42.7191 20.3991 42.6946 20.1627C42.6444 19.6907 42.5795 19.2271 42.5089 18.7667C42.436 18.3071 42.3511 17.852 42.2591 17.3996C42.2115 17.1733 42.1622 16.948 42.1102 16.7218L42.028 16.3822L41.9849 16.2107L41.7955 15.4782L37.9666 16.144L38.1489 17.3924C38.1706 17.5987 38.1902 17.8058 38.208 18.0129C38.2471 18.4271 38.2791 18.8413 38.3071 19.2524C38.3364 19.6631 38.3573 20.072 38.3693 20.4747C38.3831 20.8773 38.3871 21.2742 38.3804 21.6582C38.372 22.0413 38.3533 22.4142 38.3137 22.7516C38.2951 22.92 38.2715 23.0796 38.2435 23.2218C38.2151 23.3636 38.184 23.4889 38.1533 23.5764C38.1244 23.6635 38.0933 23.7116 38.1053 23.6844C38.1062 23.6831 38.1071 23.6818 38.108 23.6804L38.1133 23.6702C38.1173 23.6631 38.1217 23.6564 38.1271 23.6507C38.1329 23.6422 38.1409 23.6289 38.1493 23.6191C38.1533 23.6138 38.1577 23.6089 38.1626 23.604C38.1671 23.5996 38.1737 23.5898 38.1795 23.5831C38.1915 23.5684 38.2049 23.5551 38.2191 23.5422C38.2346 23.5258 38.2529 23.5076 38.2711 23.4924L38.3 23.4693C38.3106 23.4596 38.3222 23.4502 38.3337 23.4413C38.3573 23.4227 38.3809 23.4093 38.4075 23.3916C38.5146 23.3222 38.6457 23.2627 38.7746 23.2338C38.8044 23.2249 38.8337 23.2178 38.8644 23.2133L38.8871 23.2102L38.8986 23.2089L38.9044 23.2084C38.9075 23.208 38.9066 23.2084 38.9044 23.2084L38.8706 23.212L38.7355 23.2258L38.4649 23.2542C38.3742 23.2613 38.2835 23.2653 38.1929 23.2716C37.8306 23.2964 37.4649 23.2956 37.0986 23.2898C36.732 23.2716 36.3644 23.2538 35.996 23.2058C35.812 23.1871 35.6275 23.1564 35.4431 23.1307C35.3506 23.1187 35.2591 23.0987 35.1666 23.0831C35.0746 23.0658 34.9822 23.0524 34.8906 23.0311C34.5222 22.96 34.1546 22.8698 33.7884 22.7707C33.6062 22.7164 33.4231 22.6658 33.2417 22.6053C33.0595 22.5498 32.8782 22.4867 32.6969 22.4249C32.3346 22.2987 31.9786 22.1529 31.6235 22.0031C31.2689 21.8533 30.9213 21.6853 30.58 21.5147C30.4102 21.4284 30.2422 21.3391 30.08 21.2489C30.0386 21.2267 29.9986 21.204 29.9591 21.1818C29.9186 21.1591 29.8795 21.1369 29.8417 21.1147L29.7302 21.0493L29.68 21.02L29.6591 21.008L29.6497 21.0027C29.6471 21.0009 29.6497 21.0031 29.6502 21.0036L29.6524 21.0062L27.168 24.3462Z" fill="#F8DF88"/>
<path d="M39.2864 17.5671C39.3584 17.6982 39.5228 17.7458 39.654 17.6742C39.7851 17.6022 39.8331 17.4378 39.7611 17.3067C39.6891 17.1756 39.5246 17.128 39.3935 17.1995C39.2624 17.2715 39.2144 17.436 39.2864 17.5671Z" fill="#DCC273"/>
<path d="M42.1026 17.3182C41.3359 18.2893 40.3537 18.4347 39.6426 18.3764C38.8262 18.3098 38.2022 17.9738 38.1764 17.9596C38.1204 17.9289 38.0999 17.8587 38.1302 17.8027C38.1608 17.7462 38.231 17.7258 38.287 17.7564C38.2933 17.7596 38.8999 18.0853 39.6693 18.1467C40.6848 18.2276 41.4928 17.8311 42.0724 16.968C42.1084 16.9151 42.1799 16.9009 42.2328 16.9364C42.2857 16.972 42.2999 17.044 42.2644 17.0969C42.2111 17.1751 42.1573 17.2489 42.1026 17.3182Z" fill="#DCC273"/>
<path d="M41.0621 18.0493C41.0386 18.0791 41.0004 18.0969 40.9599 18.0929C40.8964 18.0867 40.8501 18.0298 40.8564 17.9662C40.9279 17.2516 40.6253 16.5524 40.6221 16.5458C40.5964 16.4871 40.623 16.4191 40.6813 16.3933C40.7395 16.3676 40.8079 16.3942 40.8337 16.4524C40.847 16.4831 41.1644 17.2129 41.0866 17.9893C41.0839 18.012 41.0755 18.0324 41.0621 18.0493Z" fill="#DCC273"/>
<path d="M39.8725 24.5609C39.8983 24.5516 39.9205 24.5324 39.9343 24.5062C39.9641 24.4498 39.9428 24.38 39.8859 24.3498C39.1223 23.9467 38.3792 23.2356 38.3716 23.2284C38.3259 23.184 38.2525 23.1858 38.2081 23.2316C38.1636 23.2773 38.1654 23.3507 38.2112 23.3951C38.2423 23.4253 38.9859 24.136 39.7779 24.5542C39.8085 24.5707 39.8428 24.572 39.8725 24.5609Z" fill="#DCC273"/>
<path d="M38.7552 24.5529C38.7561 24.5524 38.7569 24.5524 38.7578 24.552C38.8174 24.5284 38.8463 24.4613 38.8227 24.4018C38.8196 24.3938 38.5116 23.6142 38.4676 23.3578C38.4569 23.2947 38.3969 23.2524 38.3343 23.2631C38.2712 23.2742 38.2289 23.3338 38.2401 23.3964C38.2881 23.6764 38.5952 24.4538 38.6081 24.4867C38.6312 24.5458 38.6965 24.5747 38.7552 24.5529Z" fill="#DCC273"/>
<path d="M41.8084 15.4702C41.8084 15.4702 42.1532 13.6813 41.4359 12.8053C40.6315 11.8231 38.051 12.6653 37.4652 13.1769C36.7328 13.8173 37.6261 15.1027 37.6261 15.1027C37.6261 15.1027 37.2292 15.3951 37.4026 15.8418C37.5204 16.1453 38.299 16.5738 38.7861 16.8169C39.0955 16.9711 39.4408 17.0396 39.7848 17.0067C40.4355 16.9444 41.4279 16.6493 41.8084 15.4702Z" fill="#FAD2C3"/>
<path d="M38.7231 16.0524C38.6134 16.0511 38.5 16.0404 38.3867 16.0191C38.3285 16.008 38.2902 15.952 38.3009 15.8938C38.312 15.8356 38.368 15.7973 38.4262 15.808C38.9125 15.8996 39.3209 15.764 39.3996 15.6262C39.4098 15.6084 39.4333 15.5676 39.3685 15.4933C39.1529 15.2471 38.5458 15.0804 38.3302 15.0369C38.272 15.0253 38.2347 14.9684 38.2462 14.9107C38.2578 14.8524 38.3151 14.8147 38.3725 14.8267C38.4071 14.8338 39.2231 15.0009 39.5302 15.3524C39.6356 15.4729 39.656 15.6116 39.5862 15.7333C39.4698 15.936 39.1214 16.0573 38.7231 16.0524Z" fill="#DFBDB3"/>
<path d="M40.5549 14.5351C40.5194 14.5347 40.4847 14.5164 40.4647 14.4836C40.4443 14.4502 39.9683 13.6644 39.9532 13.0249C39.9518 12.9658 39.9985 12.9164 40.058 12.9151C40.1163 12.9138 40.1665 12.9604 40.1678 13.02C40.1816 13.6027 40.6434 14.364 40.6478 14.372C40.6789 14.4227 40.6629 14.4884 40.6123 14.5196C40.594 14.5302 40.5745 14.5356 40.5549 14.5351Z" fill="#DFBDB3"/>
<path d="M39.6718 14.9698C39.6389 14.9693 39.6065 14.9538 39.586 14.9253C39.5656 14.8969 39.0878 14.2227 39.0918 13.3009C39.0923 13.2418 39.1403 13.1938 39.1998 13.1942C39.2003 13.1942 39.2003 13.1942 39.2007 13.1942C39.2598 13.1947 39.3069 13.2431 39.3069 13.3018C39.3029 14.1516 39.7563 14.7933 39.7607 14.7996C39.7954 14.8476 39.7843 14.9147 39.7363 14.9493C39.7163 14.9636 39.694 14.9702 39.6718 14.9698Z" fill="#DFBDB3"/>
<path d="M38.6713 15.1222C38.6388 15.1218 38.6068 15.1067 38.586 15.0787C38.5677 15.0542 38.1451 14.4698 38.1455 13.6027C38.1455 13.5436 38.1935 13.4951 38.2531 13.4956C38.3135 13.4947 38.3602 13.5436 38.3602 13.6031C38.3597 14.3969 38.7548 14.9467 38.7588 14.952C38.794 15 38.7833 15.0671 38.7357 15.1018C38.7166 15.1156 38.694 15.1227 38.6713 15.1222Z" fill="#DFBDB3"/>
<path d="M40.3762 16.1484C40.3308 16.148 40.2891 16.1187 40.2748 16.0729C40.0557 15.3649 39.3166 15.0893 39.3091 15.0862C39.2535 15.0662 39.2246 15.0044 39.2446 14.9489C39.2646 14.8933 39.326 14.8644 39.382 14.8844C39.4162 14.8969 40.2282 15.1973 40.4797 16.0093C40.4971 16.0658 40.4655 16.1262 40.4091 16.1436C40.398 16.1471 40.3868 16.1489 40.3762 16.1484Z" fill="#DFBDB3"/>
<path d="M38.829 15.1391C38.5454 15.1356 38.2517 15.0933 37.9548 14.9964C37.8983 14.9782 37.8677 14.9173 37.8863 14.8609C37.9046 14.8044 37.9654 14.7738 38.0214 14.7924C39.6205 15.3151 41.2045 14.0867 41.2205 14.0742C41.2672 14.0378 41.3343 14.0453 41.3712 14.092C41.4081 14.1387 41.4001 14.2058 41.3534 14.2427C41.297 14.2871 40.1801 15.1551 38.829 15.1391Z" fill="#DFBDB3"/>
<path d="M20.8579 24.8342C20.7499 25.6151 20.2099 26.2307 19.513 26.4724C19.7076 27.3582 19.7281 28.016 19.2236 27.6613C18.0552 26.8391 12.9121 25.7956 12.5845 25.7151C8.87253 24.8676 7.54897 23.8853 6.93209 23.3404C6.50186 22.96 6.1832 22.4809 5.97609 21.9076C5.77075 21.3382 5.67609 20.676 5.69342 19.9244C5.71342 19.0538 5.88497 18.016 6.20409 16.8391C6.71386 14.9591 7.4392 13.3018 7.46942 13.232C7.92009 12.208 9.11431 11.7431 10.1383 12.1929C11.1628 12.6427 11.6285 13.8373 11.1792 14.8622C11.1739 14.8742 10.6574 16.0582 10.2423 17.4516C9.70809 19.2462 9.72142 20.0871 9.75831 20.388C10.145 20.5929 11.5934 20.9427 14.929 21.6164C17.2188 22.0791 18.9992 21.9476 19.9588 21.9764C21.0788 22.0089 21.0112 23.7253 20.8579 24.8342Z" fill="#F8DF88"/>
<path d="M8.08424 12.8818C8.08424 12.8818 7.71758 11.1258 8.41047 10.2524C9.18735 9.27333 11.7407 10.0636 12.3247 10.5582C13.0554 11.1778 12.1954 12.4564 12.1954 12.4564C12.1954 12.4564 12.5905 12.7382 12.4269 13.1809C12.2634 13.6236 10.6936 14.3533 10.6936 14.3533C10.6936 14.3533 8.68869 14.6622 8.08424 12.8818Z" fill="#FAD2C3"/>
<path d="M10.2503 13.0533C10.2125 12.948 10.2383 12.8333 10.325 12.7311C10.6219 12.3809 11.4228 12.2036 11.4565 12.196C11.5134 12.1836 11.5694 12.22 11.5823 12.2769C11.5948 12.3338 11.5583 12.3902 11.5014 12.4027C11.2894 12.4489 10.6943 12.6222 10.4859 12.8676C10.4232 12.9418 10.4468 12.9818 10.457 12.9991C10.5365 13.1338 10.941 13.2613 11.4183 13.1636C11.4756 13.152 11.5312 13.1889 11.5432 13.2458C11.5548 13.3031 11.5179 13.3587 11.461 13.3707C10.9463 13.476 10.4254 13.36 10.2756 13.1067C10.2654 13.0893 10.257 13.0716 10.2503 13.0533Z" fill="#DFBDB3"/>
<path d="M9.2026 11.8729C9.19238 11.8444 9.19415 11.8116 9.21104 11.7831C9.21549 11.7756 9.6586 11.0178 9.66349 10.4449C9.66393 10.3867 9.71149 10.3396 9.77015 10.34C9.82837 10.3404 9.87549 10.388 9.87504 10.4467C9.86971 11.0764 9.41282 11.8573 9.39326 11.8902C9.36349 11.9404 9.2986 11.9573 9.24838 11.9276C9.22615 11.9151 9.2106 11.8951 9.2026 11.8729Z" fill="#DFBDB3"/>
<path d="M10.0775 12.2876C10.0664 12.2564 10.07 12.2204 10.09 12.1911C10.0962 12.1822 10.5308 11.5444 10.514 10.7098C10.5126 10.6516 10.5593 10.6031 10.6175 10.6022C10.6757 10.6009 10.7242 10.6476 10.7251 10.7058C10.7433 11.6133 10.2828 12.284 10.2633 12.3124C10.23 12.3604 10.1642 12.372 10.1162 12.3387C10.098 12.3253 10.0846 12.3076 10.0775 12.2876Z" fill="#DFBDB3"/>
<path d="M11.0648 12.4227C11.0537 12.3911 11.0572 12.3547 11.0781 12.3253C11.0834 12.3178 11.4625 11.7711 11.4501 10.9916C11.4492 10.9333 11.4959 10.8853 11.5541 10.8844C11.6123 10.8836 11.6603 10.9302 11.6612 10.9884C11.6745 11.8418 11.2674 12.4236 11.2501 12.448C11.2163 12.4956 11.1501 12.5067 11.1025 12.4729C11.0843 12.4596 11.0714 12.4422 11.0648 12.4227Z" fill="#DFBDB3"/>
<path d="M9.40163 13.4587C9.39452 13.4382 9.39318 13.4156 9.39985 13.3933C9.63496 12.5902 10.4296 12.2822 10.4634 12.2693C10.5181 12.2489 10.579 12.2764 10.5994 12.3311C10.5994 12.3316 10.5999 12.332 10.5999 12.3324C10.6194 12.3867 10.5919 12.4467 10.5381 12.4671C10.531 12.4698 9.80741 12.7524 9.60252 13.4529C9.58607 13.5089 9.52741 13.5409 9.47141 13.5244C9.43763 13.5142 9.41274 13.4889 9.40163 13.4587Z" fill="#DFBDB3"/>
<path d="M8.47881 11.6191C8.46726 11.5867 8.4717 11.5484 8.49437 11.5191C8.52993 11.4729 8.59615 11.464 8.64237 11.4996C8.65793 11.5116 10.2357 12.6969 11.8024 12.1582C11.8575 12.1391 11.9188 12.1671 11.9366 12.2236C11.9557 12.2787 11.9264 12.3387 11.8713 12.3578C10.1961 12.9338 8.58193 11.7191 8.51437 11.6671C8.49704 11.6542 8.48504 11.6373 8.47881 11.6191Z" fill="#DFBDB3"/>
<path d="M9.73931 15.4351C9.63131 15.5351 9.46286 15.5284 9.36286 15.4204C9.26286 15.3124 9.26953 15.144 9.37753 15.044C9.48553 14.944 9.65398 14.9507 9.75398 15.0587C9.85353 15.1667 9.84731 15.3351 9.73931 15.4351Z" fill="#BFA364"/>
<path d="M7.18593 14.3249C7.59927 15.4707 8.47127 15.9124 9.15393 16.08C9.93749 16.272 10.6246 16.1529 10.6535 16.1476C10.7153 16.1364 10.7566 16.0773 10.7455 16.0156C10.7344 15.9533 10.6753 15.9124 10.6135 15.9236C10.6068 15.9249 9.93882 16.04 9.20104 15.8573C8.22771 15.6164 7.59616 14.9942 7.32416 14.008C7.30727 13.9476 7.2446 13.912 7.18416 13.9284C7.12371 13.9453 7.08816 14.008 7.1046 14.0684C7.12905 14.1573 7.1566 14.2431 7.18593 14.3249Z" fill="#DCC273"/>
<path d="M8.60049 21.9876C8.6076 22.0067 8.6196 22.0244 8.63694 22.0378C8.68627 22.0769 8.75783 22.0684 8.79694 22.0196C9.14894 21.576 9.68938 20.5098 9.71249 20.4649C9.74094 20.4089 9.71827 20.3404 9.66227 20.312C9.60627 20.2836 9.53783 20.3062 9.50938 20.3622C9.50405 20.3729 8.95605 21.4529 8.61871 21.8782C8.59294 21.9102 8.5876 21.9516 8.60049 21.9876Z" fill="#DCC273"/>
<path d="M9.41892 21.9929C9.43314 22.0329 9.46959 22.0631 9.51448 22.0676C9.57714 22.0738 9.6327 22.0284 9.63937 21.9658C9.64292 21.9298 9.72692 21.0818 9.60159 20.6782C9.58248 20.6169 9.51892 20.5849 9.45892 20.6036C9.39892 20.6222 9.36514 20.6862 9.38425 20.7462C9.49581 21.1058 9.41403 21.9347 9.41314 21.9431C9.41137 21.9604 9.41359 21.9773 9.41892 21.9929Z" fill="#DCC273"/>
<path d="M20.5508 42.6213C20.5508 42.6213 20.1184 47.7364 23.3197 48.2631C25.5641 48.632 31.2041 48.5511 33.761 46.9933C35.581 45.8844 33.7841 40.8462 33.7841 40.8462L20.5508 42.6213Z" fill="#D0B764"/>
<path d="M20.571 46.7542C20.5043 46.7533 20.4443 46.7076 20.4287 46.6396C20.4101 46.56 20.4598 46.4804 20.539 46.4622C20.5456 46.4604 21.2345 46.2916 21.5625 45.6987C21.7878 45.2911 21.7967 44.7729 21.5878 44.1591C21.5616 44.0818 21.603 43.9978 21.6803 43.9716C21.7576 43.9453 21.8416 43.9867 21.8678 44.064C22.1047 44.7618 22.0887 45.3609 21.8194 45.8453C21.4261 46.5529 20.6394 46.7431 20.6061 46.7507C20.5945 46.7529 20.583 46.7542 20.571 46.7542Z" fill="#A9924F"/>
<path d="M33.2769 46.2631C31.9622 46.2476 31.1436 45.5493 30.6698 44.9147C30.08 44.1244 29.8956 43.2849 29.888 43.2493C29.8711 43.1693 29.9218 43.0907 30.0018 43.0738C30.0818 43.0564 30.1605 43.1076 30.1773 43.1876C30.1791 43.1956 30.3582 44.0071 30.9125 44.7453C31.6431 45.7187 32.6529 46.1138 33.9151 45.9204C33.996 45.908 34.0716 45.9636 34.084 46.044C34.0965 46.1249 34.0409 46.2004 33.96 46.2129C33.7191 46.2498 33.4916 46.2658 33.2769 46.2631Z" fill="#A9924F"/>
<path d="M33.0168 47.6422C33.1194 47.6435 33.2239 47.6342 33.3301 47.6138C33.7519 47.5329 34.0719 47.2995 34.2808 46.92C35.2066 45.2387 33.6039 41.1196 33.5354 40.9449C33.5003 40.8551 33.3986 40.8107 33.3088 40.8462C33.219 40.8813 33.175 40.9831 33.2101 41.0729C33.2266 41.1142 34.8217 45.2133 33.9746 46.7516C33.8159 47.0396 33.5834 47.2098 33.2643 47.2707C32.1239 47.4893 31.1821 46.0062 30.5928 44.724C29.9319 43.2862 29.559 41.7689 29.5554 41.7538C29.5328 41.66 29.4381 41.6027 29.3443 41.6253C29.2506 41.648 29.1932 41.7427 29.2159 41.8364C29.2759 42.0822 30.6506 47.6142 33.0168 47.6422Z" fill="#A9924F"/>
<path d="M27.0229 48.3698C26.9976 48.3693 26.9722 48.3627 26.9491 48.3489C26.8829 48.3093 25.3211 47.3622 24.3567 45.5218C24.3189 45.4493 24.3469 45.36 24.4189 45.3222C24.4913 45.2844 24.5807 45.3124 24.6189 45.3844C25.5447 47.1516 27.0851 48.0858 27.1007 48.0947C27.1709 48.1364 27.1936 48.2275 27.1518 48.2978C27.1238 48.3444 27.074 48.3702 27.0229 48.3698Z" fill="#A9924F"/>
<path d="M20.3805 22.2231C20.3805 22.2231 18.0925 17.964 24.1534 17.0458C29.112 16.2947 29.4289 19.7427 28.8245 21.2596C28.2205 22.7764 22.5223 23.632 20.3805 22.2231Z" fill="#F8DF88"/>
<path d="M24.7251 19.98C24.7251 19.98 28.5029 20.2924 29.994 21.1484C32.0105 22.3058 32.0745 29.3787 32.7425 32.4382C33.4105 35.4978 34.8963 40.7098 34.5669 42.1147C34.2371 43.5191 22.9145 44.8351 20.6327 43.996C19.43 43.5538 20.318 35.3258 19.3074 31.8902C18.2967 28.4547 17.174 26.1551 17.3505 24.6276C17.494 23.3867 21.0429 21.5409 21.0429 21.5409L24.7251 19.98Z" fill="#F8DF88"/>
<path d="M21.235 22.9911C21.2216 22.9911 21.2083 22.9884 21.1954 22.9836C20.5541 22.7436 20.2438 22.1013 20.231 22.0742C20.2034 22.0156 20.2283 21.9458 20.2869 21.9182C20.3456 21.8907 20.4154 21.9156 20.4429 21.9738C20.4456 21.9796 20.7269 22.5582 21.2776 22.764C21.3381 22.7867 21.3692 22.8542 21.3465 22.9147C21.3283 22.9627 21.283 22.992 21.235 22.9911Z" fill="#DCC273"/>
<path d="M33.3476 41.4284C33.3369 38.9129 32.9063 36.3529 32.0369 33.6302C30.9449 30.2102 30.7067 25.0533 30.7045 25.0018C30.7014 24.9356 30.6463 24.884 30.5796 24.8871C30.5134 24.8902 30.4623 24.9458 30.4649 25.012C30.4672 25.064 30.7067 30.2524 31.8085 33.7027C32.6698 36.4004 33.0969 38.9356 33.1081 41.4253L33.3476 41.4284Z" fill="#DCC273"/>
<path d="M23.6356 43.1662C21.4947 43.1409 20.333 42.8284 20.2814 42.8142C20.2187 42.7969 20.1823 42.7324 20.1996 42.6702C20.2165 42.608 20.281 42.5711 20.3436 42.588C20.357 42.5916 21.6938 42.9507 24.0867 42.9329C26.2952 42.9164 29.8796 42.5671 34.4156 40.9942C34.4765 40.9729 34.5436 41.0053 34.565 41.0667C34.5863 41.128 34.5538 41.1947 34.4925 41.216C29.9201 42.8013 26.3041 43.1524 24.0761 43.1676C23.925 43.1684 23.7778 43.168 23.6356 43.1662Z" fill="#DCC273"/>
<path d="M28.457 37.3711C27.2304 37.3569 25.8646 36.9938 24.4179 36.2898C22.7273 35.4671 21.5028 34.4573 21.4908 34.4476C21.4384 34.404 21.4313 34.3262 21.4748 34.2738C21.5184 34.2213 21.5961 34.2142 21.6486 34.2578C21.6606 34.2676 22.8659 35.2609 24.5308 36.0707C26.0561 36.8125 28.2921 37.5476 30.2801 36.8391C30.3441 36.8165 30.4148 36.8498 30.4379 36.9138C30.4606 36.9778 30.4273 37.0485 30.3633 37.0716C29.7775 37.2796 29.1388 37.3791 28.457 37.3711Z" fill="#DCC273"/>
<path d="M28.184 39.4729C26.8773 39.4573 25.7907 39.0889 25.0604 38.748C24.0982 38.2987 23.5431 37.8102 23.52 37.7898C23.4689 37.7444 23.4644 37.6667 23.5098 37.616C23.5551 37.5649 23.6329 37.5604 23.684 37.6053C23.7058 37.6244 25.8987 39.5311 29.0302 39.1849C29.0973 39.1773 29.1587 39.2262 29.1662 39.2938C29.1738 39.3613 29.1249 39.4222 29.0573 39.4298C28.7569 39.4631 28.4653 39.476 28.184 39.4729Z" fill="#DCC273"/>
<path d="M23.2924 23.148C22.1964 23.1351 21.3266 22.4142 21.287 22.3809C21.235 22.3369 21.2284 22.2591 21.2719 22.2071C21.3159 22.1551 21.3937 22.1484 21.4457 22.192C21.4599 22.2036 22.4492 23.0191 23.579 22.8867C24.2248 22.8107 24.799 22.4404 25.2852 21.7867C25.3257 21.732 25.403 21.7204 25.4577 21.7613C25.5124 21.8022 25.5239 21.8791 25.483 21.9338C24.9541 22.6453 24.3226 23.0484 23.6057 23.132C23.4999 23.144 23.395 23.1489 23.2924 23.148Z" fill="#DCC273"/>
<path d="M23.7295 39.0378C23.6851 39.0373 23.6433 39.0116 23.6238 38.9684C22.4171 36.2738 21.9024 32.108 21.6833 29.088C21.4464 25.8204 21.494 23.1524 21.4944 23.1258C21.4958 23.0613 21.5486 23.0102 21.6131 23.0107C21.6135 23.0107 21.6135 23.0107 21.614 23.0107C21.6789 23.012 21.73 23.0653 21.7291 23.1302C21.7269 23.236 21.5526 33.7698 23.838 38.8724C23.8642 38.9316 23.838 39.0009 23.7789 39.0276C23.7629 39.0347 23.746 39.0378 23.7295 39.0378Z" fill="white"/>
<path d="M28.4845 39.0111C28.436 39.0107 28.3911 38.98 28.3747 38.9316C26.3947 33.1071 25.1383 22.7267 25.1258 22.6227C25.1183 22.5582 25.164 22.5 25.228 22.4924C25.2925 22.4849 25.3507 22.5307 25.3583 22.5951C25.3707 22.6991 26.6245 33.0551 28.5965 38.8564C28.6174 38.9178 28.5845 38.9844 28.5231 39.0053C28.5107 39.0093 28.4974 39.0111 28.4845 39.0111Z" fill="white"/>
<path d="M26.2566 19.8089C26.2566 19.8089 26.5144 20.1427 24.9709 20.8178C24.1562 21.1738 23.0971 21.0987 22.5433 20.8707C22.318 20.7782 22.186 20.7018 22.186 20.7018C22.2731 19.4449 21.9478 18.6836 21.8602 18.5031C21.8464 18.4756 21.8389 18.4618 21.8389 18.4618L25.7282 15.7791L26.2566 19.8089Z" fill="#FAD2C3"/>
<path d="M25.4454 17.444C25.4454 17.444 24.8223 20.416 22.5601 20.8778C22.3299 20.7836 22.1952 20.7053 22.1952 20.7053C22.2841 19.4218 21.9521 18.6449 21.8623 18.4609L25.4454 17.444Z" fill="#DFBDB3"/>
<path d="M25.7426 13.8978C25.8675 13.0502 26.5124 13.1342 26.5732 13.144C26.6346 13.1409 27.2848 13.1293 27.315 13.9853C27.3452 14.8467 26.9324 15.3849 26.4515 15.3271C25.967 15.3311 25.6168 14.7502 25.7426 13.8978Z" fill="#FAD2C3"/>
<path d="M20.5664 14.7609C20.1731 14 19.5904 14.2884 19.5362 14.3173C19.4771 14.3347 18.8584 14.5342 19.1078 15.3538C19.3584 16.1782 19.9238 16.5533 20.3598 16.3427C20.8193 16.1893 20.962 15.5262 20.5664 14.7609Z" fill="#FAD2C3"/>
<path d="M26.168 12.5747C25.2591 9.10266 22.6116 9.74711 22.3636 9.81555C22.1062 9.83111 19.3934 10.0804 19.66 13.6596C19.928 17.26 21.8938 19.3129 23.8702 18.8524C25.8889 18.6471 27.0822 16.0676 26.168 12.5747Z" fill="#FAD2C3"/>
<path d="M22.5211 13.6076C22.4882 13.9458 22.486 14.2827 22.4944 14.6187C22.5006 14.7867 22.506 14.9547 22.5184 15.1222C22.5286 15.2898 22.5437 15.4573 22.562 15.6244L22.5669 15.6693L22.6024 15.684C22.7189 15.7316 22.8366 15.7764 22.9549 15.82C23.074 15.8618 23.1926 15.9044 23.3149 15.9391C23.2095 15.8676 23.1006 15.804 22.9922 15.74C22.8829 15.6773 22.7726 15.6164 22.6615 15.5578L22.702 15.6173C22.7015 15.4493 22.6984 15.2809 22.69 15.1133C22.6842 14.9453 22.6713 14.7778 22.6589 14.6102C22.63 14.2747 22.5909 13.9404 22.5211 13.6076Z" fill="#3A2C22"/>
<path d="M20.4121 13.6907C20.5481 13.5818 20.6752 13.4827 20.8054 13.3996C20.9348 13.3164 21.0659 13.252 21.1997 13.2178C21.333 13.1827 21.4721 13.1747 21.6174 13.2053C21.6921 13.2111 21.7637 13.2413 21.8423 13.26C21.9197 13.2831 21.9934 13.3187 22.081 13.3409C22.0326 13.2698 21.9766 13.2009 21.9121 13.1396C21.841 13.0884 21.7734 13.024 21.6854 12.9929C21.6423 12.976 21.601 12.952 21.5548 12.9436C21.5086 12.9333 21.4614 12.9253 21.4143 12.9173C21.3188 12.9138 21.2206 12.916 21.1281 12.9431C20.9419 12.9916 20.781 13.0996 20.6601 13.2311C20.541 13.364 20.4486 13.5178 20.4121 13.6907Z" fill="#3A2C22"/>
<path d="M23.751 13.1342C23.887 13.0253 24.0141 12.9262 24.1443 12.8431C24.2736 12.76 24.4048 12.6956 24.5385 12.6613C24.6719 12.6262 24.811 12.6182 24.9563 12.6489C25.031 12.6547 25.103 12.6849 25.1812 12.7031C25.2585 12.7262 25.3323 12.7618 25.4199 12.784C25.3714 12.7129 25.3154 12.644 25.2514 12.5827C25.1803 12.5316 25.1128 12.4671 25.0248 12.436C24.9821 12.4191 24.9408 12.3951 24.8941 12.3867C24.8479 12.3764 24.8008 12.3684 24.7536 12.3604C24.6581 12.3564 24.5599 12.3591 24.4674 12.3862C24.2812 12.4347 24.1203 12.5427 23.9994 12.6742C23.8799 12.8076 23.7874 12.9609 23.751 13.1342Z" fill="#3A2C22"/>
<path d="M24.0693 14.3938C24.0875 14.2373 24.1235 14.084 24.1999 13.9604C24.275 13.8369 24.3937 13.7538 24.5346 13.7329C24.6048 13.7173 24.675 13.7178 24.7417 13.7293C24.8079 13.7436 24.8675 13.7769 24.9204 13.8236C25.0244 13.92 25.0897 14.0653 25.1341 14.216C25.1408 14.0582 25.1035 13.8893 24.991 13.7556C24.9355 13.6884 24.8564 13.6396 24.7706 13.6138C24.6839 13.5929 24.5946 13.5929 24.511 13.6093C24.3408 13.6347 24.1799 13.7578 24.1137 13.9147C24.0421 14.0693 24.0359 14.2391 24.0693 14.3938Z" fill="#3A2C22"/>
<path d="M21.0614 14.8458C21.0797 14.6893 21.1157 14.536 21.1921 14.4124C21.2668 14.2889 21.3859 14.2058 21.5268 14.1849C21.597 14.1693 21.6672 14.1698 21.7339 14.1813C21.8001 14.1956 21.8597 14.2289 21.9126 14.2756C22.0166 14.372 22.0819 14.5173 22.1263 14.668C22.133 14.5102 22.0957 14.3413 21.9832 14.2076C21.9277 14.1404 21.8486 14.0916 21.7628 14.0658C21.6761 14.0449 21.5868 14.0449 21.5032 14.0613C21.333 14.0867 21.1721 14.2098 21.1059 14.3667C21.0343 14.5209 21.0281 14.6911 21.0614 14.8458Z" fill="#3A2C22"/>
<path d="M19.0676 10.9649C19.1281 10.2116 19.529 9.95689 19.7276 9.876C19.5361 7.99333 24.4574 6.82178 24.5819 7.16711C24.7143 7.536 22.9859 8.46355 22.9859 8.46355C22.9859 8.46355 26.1263 7.05155 26.0801 7.84089C26.0428 8.48222 24.705 8.63689 24.2041 8.67244C24.9116 8.64311 27.345 8.62889 26.4548 9.87511C26.3819 9.97689 26.2992 10.0676 26.2103 10.1493C26.5308 11.4569 26.6574 14.6387 26.6574 14.6387L26.381 14.6849L26.1272 12.524C25.5734 12.5062 25.1165 11.2773 24.9392 10.7249C24.0339 10.8893 23.0708 10.7329 22.7121 10.6618C22.9312 10.7227 23.2881 10.8858 22.9916 11.2698C22.689 11.6618 21.3374 11.4711 20.6539 11.3449C20.6196 11.8698 20.4748 13.3493 19.9263 13.5573L20.3876 15.6836L20.1112 15.7298C20.1108 15.7302 18.9868 11.9733 19.0676 10.9649Z" fill="#3A2C22"/>
<path d="M19.0676 10.9649C19.1281 10.2116 19.529 9.95689 19.7276 9.876C19.6925 9.532 19.829 9.21155 20.0752 8.92C20.441 10.1573 21.5441 11.0773 22.8045 11.4018C22.3201 11.6084 21.241 11.4533 20.6539 11.3453C20.6196 11.8702 20.4748 13.3498 19.9263 13.5578L20.3876 15.684L20.1112 15.7302C20.1108 15.7302 18.9868 11.9733 19.0676 10.9649Z" fill="#3A2C22"/>
<path d="M22.6845 17.384C22.7556 17.4293 22.8267 17.464 22.8982 17.4884C22.952 17.5071 23.0054 17.5204 23.0583 17.5293C23.3983 17.588 23.6903 17.4636 23.7254 17.4484C23.7978 17.4156 24.0231 17.3107 24.1876 17.0729C24.192 17.0671 24.1965 17.0613 24.2005 17.0547C24.2374 17 24.2694 16.9413 24.296 16.8729C24.3907 16.6333 24.3738 16.4116 24.3405 16.2618C24.3302 16.2169 24.3183 16.1782 24.3085 16.1476C24.2991 16.1218 24.2903 16.0991 24.2836 16.0818C24.2836 16.0818 24.2836 16.0827 24.2827 16.0831C24.1498 16.2347 23.8543 16.5316 23.3751 16.7102C22.9049 16.8853 22.4956 16.8591 22.2965 16.8329L22.2627 16.8453C22.3 16.9449 22.4103 17.2053 22.6845 17.384Z" fill="#E9C5BA"/>
<path d="M23.0586 17.5293C23.3986 17.588 23.6906 17.4636 23.7257 17.4484C23.7981 17.4156 24.0235 17.3107 24.1879 17.0729C23.9804 17.0173 23.7373 17.0884 23.6044 17.2609C23.4657 17.224 23.3097 17.256 23.1973 17.3449C23.1368 17.3938 23.0893 17.4582 23.0586 17.5293Z" fill="white"/>
<path d="M22.2627 16.8442C23.6991 17.5877 24.2631 16.1353 24.2827 16.0824C24.1498 16.2339 23.8543 16.5308 23.3751 16.7095C22.9049 16.8846 22.4956 16.8584 22.2965 16.8322L22.2627 16.8442Z" fill="white"/>
</g>
</g>
<defs>
<clipPath id="clip0_1141_47607">
<rect width="48" height="48" rx="24" fill="white"/>
</clipPath>
<clipPath id="clip1_1141_47607">
<rect width="48" height="48" fill="white"/>
</clipPath>
</defs>
</svg>
