<svg width="48" height="48" viewBox="0 0 48 48" fill="none" xmlns="http://www.w3.org/2000/svg">
<g clip-path="url(#clip0_1146_79586)">
<rect width="48" height="48" rx="24" fill="white"/>
<g clip-path="url(#clip1_1146_79586)">
<g opacity="0.5">
<path d="M35.1833 23.3582C27.7656 23.2867 21.0531 23.2222 16.1873 23.1756C13.7602 23.164 11.7953 23.1542 10.4304 23.1476C9.75445 23.1493 9.22867 23.1502 8.86511 23.1511C8.69 23.1533 8.55489 23.1556 8.458 23.1564C8.36645 23.1587 8.31934 23.1613 8.31934 23.164C8.31934 23.1667 8.36645 23.1698 8.458 23.1729C8.55489 23.1751 8.68956 23.1782 8.86511 23.1827C9.22822 23.1871 9.75445 23.1938 10.43 23.2022C11.7944 23.2098 13.7593 23.2204 16.1864 23.2333C21.0522 23.2364 27.7651 23.2409 35.1833 23.2453C42.5976 23.2444 49.3118 23.2542 54.1722 23.2902C56.6024 23.3076 58.5691 23.3307 59.9287 23.3569C60.6082 23.3698 61.1358 23.3836 61.4936 23.3978C61.8513 23.4116 62.0393 23.4258 62.0393 23.4391C62.0393 23.4524 61.8513 23.4644 61.4931 23.4747C61.1353 23.4849 60.6073 23.4933 59.9278 23.4996C58.5682 23.512 56.6016 23.5147 54.1713 23.5071C49.3109 23.4942 42.5971 23.4351 35.1833 23.3582Z" fill="#EBEBEB"/>
<path d="M35.0354 25.032C27.719 23.808 21.0981 22.7009 16.299 21.8982C13.903 21.5098 11.9634 21.1951 10.6163 20.9764C9.94832 20.8733 9.42832 20.7929 9.06966 20.7373C8.89588 20.7124 8.76255 20.6933 8.66655 20.68C8.57543 20.668 8.52877 20.6635 8.52832 20.6662C8.52788 20.6689 8.57366 20.6795 8.66388 20.6969C8.75899 20.7142 8.89188 20.7387 9.06432 20.7702C9.42255 20.8311 9.94077 20.9195 10.6074 21.0333C11.9541 21.2529 13.8937 21.5689 16.2892 21.9591C21.0954 22.7178 27.7261 23.7649 35.0537 24.9213C42.3781 26.072 49.0092 27.124 53.8052 27.9151C56.203 28.3102 58.1426 28.6387 59.4812 28.876C60.1506 28.9947 60.6697 29.0907 61.0208 29.16C61.3719 29.2293 61.5554 29.2729 61.5532 29.2862C61.551 29.2995 61.3634 29.2827 61.0083 29.2373C60.6532 29.192 60.1306 29.1182 59.4581 29.0191C58.1132 28.8204 56.1697 28.5178 53.7701 28.1324C48.9701 27.3635 42.3474 26.2609 35.0354 25.032Z" fill="#EBEBEB"/>
<path d="M34.6262 26.6622C27.5942 24.3013 21.2302 22.1644 16.6173 20.616C14.3124 19.8551 12.4466 19.2391 11.1506 18.8111C10.507 18.604 10.0066 18.4427 9.66082 18.3316C9.49326 18.28 9.36437 18.24 9.27193 18.2116C9.18393 18.1853 9.1386 18.1733 9.13771 18.1764C9.13682 18.1791 9.18038 18.1969 9.2666 18.2284C9.35771 18.2604 9.48526 18.3053 9.6506 18.364C9.9946 18.4809 10.4928 18.6498 11.1328 18.8671C12.4284 19.296 14.2937 19.9133 16.5977 20.6764C21.2248 22.1827 27.6079 24.26 34.6617 26.556C41.7137 28.8453 48.0964 30.9284 52.7079 32.4644C55.0137 33.232 56.8773 33.8622 58.1617 34.3076C58.8039 34.5302 59.3013 34.7067 59.6373 34.8307C59.9733 34.9547 60.1475 35.0267 60.143 35.0396C60.1386 35.0524 59.9559 35.0062 59.6124 34.9058C59.2688 34.8053 58.7639 34.6502 58.1155 34.4462C56.8186 34.0382 54.947 33.4333 52.6382 32.6756C48.0199 31.1596 41.6533 29.0276 34.6262 26.6622Z" fill="#EBEBEB"/>
<path d="M33.9679 28.2058C27.3945 24.768 21.4461 21.6573 17.1341 19.4022C14.9776 18.288 13.2319 17.3858 12.0199 16.7596C11.4172 16.4538 10.9479 16.2156 10.6243 16.0516C10.467 15.9738 10.3456 15.9142 10.259 15.8716C10.1763 15.832 10.1332 15.8129 10.1319 15.8156C10.1305 15.8182 10.171 15.8422 10.251 15.8867C10.3359 15.9329 10.4545 15.9969 10.6088 16.0804C10.9301 16.2498 11.3954 16.4951 11.9932 16.8102C13.2048 17.4373 14.9501 18.3409 17.1056 19.4569C21.4376 21.6724 27.4141 24.7293 34.0185 28.1071C40.6221 31.4782 46.5972 34.54 50.9096 36.7827C53.0661 37.9036 54.807 38.8187 56.0056 39.4604C56.6048 39.7813 57.0688 40.0338 57.3808 40.2089C57.6932 40.384 57.8541 40.4822 57.8479 40.4942C57.8416 40.5062 57.6688 40.4316 57.3452 40.2778C57.0216 40.124 56.5479 39.8916 55.9399 39.588C54.7234 38.9809 52.9705 38.0889 50.8096 36.9769C46.4874 34.7538 40.5354 31.6471 33.9679 28.2058Z" fill="#EBEBEB"/>
<path d="M33.0741 29.6275C27.1189 25.2044 21.7296 21.2022 17.8234 18.3009C15.8678 16.8631 14.2843 15.6991 13.1852 14.8911C12.6376 14.4947 12.2114 14.1862 11.9172 13.9733C11.7741 13.872 11.6638 13.7942 11.5847 13.7387C11.5092 13.6867 11.4696 13.6609 11.4678 13.6635C11.4661 13.6658 11.5021 13.696 11.5745 13.7524C11.6514 13.8111 11.7585 13.8933 11.8976 14C12.1883 14.2173 12.6096 14.5324 13.1514 14.9373C14.2501 15.7462 15.8327 16.9111 17.7874 18.3502C21.7198 21.2155 27.1452 25.1689 33.1407 29.5378C39.1363 33.8995 44.5594 37.8578 48.4683 40.7471C50.423 42.1911 51.9994 43.3675 53.0829 44.1884C53.6247 44.5991 54.0434 44.9209 54.3243 45.1427C54.6052 45.3644 54.7487 45.4867 54.7407 45.4973C54.7327 45.5084 54.5736 45.4075 54.2781 45.2053C53.9825 45.0031 53.5509 44.6995 52.9976 44.3044C51.8909 43.5147 50.2989 42.3596 48.3385 40.9236C44.4163 38.0515 39.0229 34.0529 33.0741 29.6275Z" fill="#EBEBEB"/>
<path d="M31.9699 30.8924C26.7753 25.5973 22.0739 20.8053 18.6664 17.332C16.9579 15.6076 15.5753 14.2116 14.6148 13.2422C14.1357 12.7653 13.7628 12.3947 13.505 12.1382C13.3793 12.016 13.2824 11.9218 13.213 11.8547C13.1464 11.7916 13.1113 11.76 13.1095 11.7622C13.1073 11.7644 13.1384 11.7996 13.201 11.8667C13.2677 11.9369 13.361 12.0347 13.4819 12.1613C13.7353 12.4213 14.1028 12.7982 14.5744 13.2822C15.5339 14.2524 16.9162 15.6493 18.6233 17.3747C22.0624 20.8169 26.8068 25.5662 32.0495 30.8138C37.2935 36.0551 42.0348 40.8089 45.4468 44.2707C47.153 46.0013 48.5277 47.4084 49.4699 48.388C49.941 48.8778 50.3046 49.2609 50.5477 49.5236C50.7908 49.7867 50.9139 49.9293 50.9042 49.9387C50.8944 49.948 50.753 49.824 50.4926 49.5782C50.2322 49.3324 49.853 48.9653 49.3677 48.4889C48.3975 47.5364 47.0046 46.148 45.2913 44.4244C41.8637 40.9778 37.1579 36.1889 31.9699 30.8924Z" fill="#EBEBEB"/>
<path d="M30.6831 31.9702C26.3751 25.9315 22.4764 20.4667 19.6506 16.5053C18.2315 14.5364 17.0822 12.9422 16.2844 11.8351C15.8853 11.2898 15.5742 10.8653 15.36 10.572C15.2546 10.4315 15.1738 10.3235 15.1155 10.2462C15.0595 10.1733 15.0302 10.1369 15.0275 10.1387C15.0249 10.1404 15.0502 10.18 15.1018 10.256C15.1569 10.3355 15.2333 10.4467 15.3333 10.5907C15.5435 10.8871 15.8475 11.316 16.2382 11.8675C17.0351 12.9751 18.1831 14.5698 19.6009 16.54C22.4626 20.4751 26.4106 25.9044 30.7733 31.904C35.1386 37.8969 39.0826 43.3302 41.9146 47.2809C43.3311 49.256 44.4698 50.8595 45.2484 51.9738C45.6378 52.5311 45.9373 52.9658 46.1364 53.2631C46.3355 53.5604 46.4346 53.7209 46.424 53.7289C46.4129 53.7369 46.2924 53.592 46.0733 53.3089C45.8542 53.0258 45.5369 52.604 45.1315 52.0582C44.3213 50.9667 43.1613 49.3782 41.7369 47.4093C38.888 43.472 34.9844 38.0093 30.6831 31.9702Z" fill="#EBEBEB"/>
<path d="M29.2439 32.8338C25.9333 26.1956 22.9373 20.1884 20.7657 15.8338C19.6715 13.6671 18.7861 11.9129 18.171 10.6951C17.8621 10.0938 17.6213 9.62622 17.455 9.30311C17.3733 9.14799 17.3097 9.02888 17.2648 8.94311C17.2208 8.86266 17.1973 8.82177 17.1946 8.82311C17.1919 8.82444 17.2106 8.86755 17.2493 8.95066C17.291 9.03777 17.3497 9.15955 17.4257 9.31777C17.5866 9.64311 17.8199 10.1147 18.1199 10.7209C18.7341 11.9396 19.6186 13.6942 20.7106 15.8618C22.9221 20.196 25.9728 26.1756 29.3439 32.7836C32.7186 39.3853 35.7653 45.3684 37.9444 49.7129C39.0346 51.8849 39.9084 53.6471 40.5035 54.8693C40.8008 55.4804 41.0284 55.9569 41.1786 56.2818C41.3288 56.6067 41.4017 56.7804 41.3893 56.7867C41.3773 56.7929 41.2808 56.6311 41.1084 56.3169C40.9364 56.0031 40.6884 55.5369 40.3737 54.9342C39.7439 53.7293 38.8466 51.9791 37.7475 49.8116C35.5488 45.4773 32.5479 39.4711 29.2439 32.8338Z" fill="#EBEBEB"/>
<path d="M27.6871 33.4613C25.4623 26.3849 23.4489 19.9809 21.9898 15.3391C21.2503 13.0271 20.6516 11.1555 20.236 9.85599C20.0254 9.21377 19.8614 8.71377 19.748 8.36888C19.6916 8.2031 19.6476 8.0751 19.6165 7.98355C19.5858 7.89688 19.5689 7.85333 19.5658 7.85422C19.5631 7.8551 19.5747 7.90088 19.5996 7.98888C19.6271 8.08177 19.6658 8.2111 19.716 8.3791C19.824 8.72577 19.98 9.22844 20.1805 9.87377C20.5951 11.1738 21.1925 13.0458 21.9303 15.3582C23.432 19.9862 25.5045 26.3715 27.7942 33.4271C30.0885 40.4773 32.156 46.8653 33.6245 51.4987C34.3591 53.8151 34.9454 55.6929 35.34 56.9938C35.5374 57.644 35.6876 58.1502 35.7845 58.4951C35.8818 58.8395 35.9263 59.0227 35.9129 59.0271C35.9 59.0311 35.8303 58.8564 35.7094 58.5191C35.5889 58.1818 35.4174 57.6827 35.2014 57.0382C34.7689 55.7493 34.1578 53.8795 33.4138 51.5662C31.924 46.9391 29.9054 40.536 27.6871 33.4613Z" fill="#EBEBEB"/>
<path d="M26.05 33.8356C24.966 26.4973 23.9851 19.8564 23.2744 15.0427C22.9077 12.6431 22.6113 10.7009 22.4051 9.352C22.298 8.68445 22.2149 8.16534 22.1571 7.80667C22.1273 7.63378 22.1042 7.50089 22.0877 7.40534C22.0713 7.31511 22.0611 7.26889 22.0584 7.26934C22.0557 7.26978 22.0597 7.31645 22.0709 7.40756C22.0837 7.50356 22.1011 7.63734 22.1242 7.81111C22.1762 8.17067 22.2513 8.69111 22.3477 9.36045C22.5526 10.7093 22.8482 12.652 23.2126 15.052C23.9677 19.8591 25.0091 26.4907 26.1602 33.8187C27.3162 41.1422 28.3526 47.776 29.074 52.5827C29.4349 54.9858 29.7184 56.9324 29.9037 58.2791C29.9966 58.9524 30.0651 59.476 30.1069 59.8316C30.1486 60.1871 30.1637 60.3751 30.1504 60.3769C30.1371 60.3791 30.0957 60.1951 30.0295 59.8431C29.9633 59.4911 29.8731 58.9711 29.7611 58.3009C29.5371 56.96 29.2277 55.0173 28.8566 52.6156C28.114 47.8124 27.1273 41.1711 26.05 33.8356Z" fill="#EBEBEB"/>
<path d="M24.3746 33.9493C24.4413 26.5316 24.5018 19.8191 24.5458 14.9533C24.556 12.5262 24.5644 10.5613 24.5702 9.19644C24.5684 8.52044 24.5666 7.99466 24.5658 7.6311C24.5631 7.45599 24.5613 7.32088 24.56 7.22399C24.5578 7.13244 24.5551 7.08533 24.5524 7.08533C24.5498 7.08533 24.5466 7.13244 24.5435 7.22399C24.5413 7.32088 24.5382 7.45555 24.5342 7.6311C24.5298 7.99422 24.5235 8.52044 24.5155 9.19599C24.5089 10.5604 24.4995 12.5253 24.488 14.9529C24.488 19.8187 24.4875 26.5316 24.4875 33.9493C24.4929 41.3636 24.4871 48.0778 24.4542 52.9382C24.4382 55.3684 24.4164 57.3351 24.3911 58.6947C24.3786 59.3742 24.3649 59.9022 24.3511 60.26C24.3373 60.6178 24.3235 60.8058 24.3102 60.8058C24.2969 60.8058 24.2844 60.6178 24.2742 60.26C24.264 59.9022 24.2551 59.3742 24.2484 58.6947C24.2355 57.3351 24.2311 55.3684 24.2369 52.9382C24.2475 48.0773 24.3022 41.3631 24.3746 33.9493Z" fill="#EBEBEB"/>
<path d="M22.7013 33.8027C23.9204 26.4858 25.0235 19.864 25.8235 15.0644C26.2106 12.6684 26.524 10.7284 26.7417 9.38132C26.8444 8.71333 26.9244 8.19333 26.98 7.83421C27.0044 7.66044 27.0235 7.5271 27.0373 7.4311C27.0493 7.33999 27.0537 7.29332 27.0511 7.29288C27.048 7.29244 27.0377 7.33821 27.0204 7.42844C27.0031 7.52355 26.9791 7.65644 26.9475 7.82888C26.8866 8.1871 26.7986 8.70532 26.6853 9.37199C26.4666 10.7187 26.152 12.6587 25.7631 15.0542C25.0075 19.8609 23.9648 26.4924 22.8124 33.8204C21.6666 41.1458 20.6186 47.7773 19.8306 52.5738C19.4373 54.972 19.1097 56.9115 18.8733 58.2502C18.7551 58.9195 18.6595 59.4387 18.5902 59.7902C18.5208 60.1413 18.4777 60.3249 18.4644 60.3227C18.4511 60.3204 18.468 60.1329 18.5128 59.7778C18.5582 59.4227 18.6311 58.8995 18.7302 58.2271C18.9284 56.8822 19.2297 54.9382 19.6128 52.5387C20.3786 47.7387 21.4768 41.1151 22.7013 33.8027Z" fill="#EBEBEB"/>
<path d="M21.0706 33.3956C23.427 26.3618 25.5599 19.9969 27.1057 15.3831C27.8652 13.0778 28.4803 11.2116 28.907 9.91555C29.1137 9.272 29.2746 8.77111 29.3857 8.42533C29.4372 8.25778 29.4772 8.12889 29.5057 8.03644C29.5319 7.94844 29.5435 7.90311 29.5408 7.90222C29.5381 7.90133 29.5203 7.94489 29.4892 8.03111C29.4572 8.12222 29.4123 8.24978 29.3541 8.41511C29.2377 8.75911 29.0688 9.25733 28.8519 9.89778C28.4239 11.1933 27.8075 13.0591 27.0461 15.364C25.543 19.9911 23.4692 26.3756 21.1777 33.4307C18.8928 40.484 16.8137 46.868 15.2803 51.4804C14.5141 53.7867 13.8852 55.6507 13.4408 56.9351C13.2186 57.5773 13.0426 58.0751 12.9186 58.4111C12.7946 58.7471 12.723 58.9213 12.7101 58.9169C12.6972 58.9124 12.7435 58.7298 12.8435 58.3862C12.9439 58.0427 13.0986 57.5378 13.3021 56.8893C13.7092 55.5924 14.3128 53.72 15.0697 51.4107C16.5821 46.7916 18.7097 40.4236 21.0706 33.3956Z" fill="#EBEBEB"/>
<path d="M19.5266 32.7369C22.96 26.1618 26.0675 20.2111 28.3195 15.8978C29.4324 13.7404 30.3333 11.9942 30.9591 10.7818C31.2644 10.1787 31.5022 9.70933 31.6666 9.38533C31.744 9.228 31.8035 9.10666 31.8466 9.02C31.8862 8.93733 31.9053 8.89422 31.9026 8.89288C31.9 8.89155 31.876 8.932 31.8315 9.012C31.7853 9.09689 31.7213 9.216 31.6377 9.37022C31.4684 9.69155 31.2235 10.1569 30.9088 10.7551C30.2822 11.9671 29.38 13.7129 28.2657 15.8693C26.0528 20.2027 23 26.1813 19.6262 32.7876C16.2595 39.3933 13.2013 45.3702 10.9613 49.684C9.84173 51.8409 8.92751 53.5827 8.28662 54.7818C7.96618 55.3813 7.71418 55.8449 7.53907 56.1573C7.36396 56.4698 7.26618 56.6307 7.25418 56.6244C7.24218 56.6182 7.31685 56.4453 7.47018 56.1218C7.62351 55.7982 7.85596 55.324 8.15907 54.716C8.76573 53.4991 9.6564 51.7458 10.7671 49.584C12.9871 45.2609 16.0897 39.3067 19.5266 32.7369Z" fill="#EBEBEB"/>
<path d="M18.1043 31.8444C22.5235 25.8867 26.5226 20.4947 29.4212 16.5867C30.8577 14.6302 32.0203 13.0462 32.8279 11.9462C33.2239 11.3982 33.5319 10.972 33.7448 10.6778C33.8457 10.5347 33.9235 10.424 33.9795 10.3453C34.0315 10.2698 34.0572 10.2302 34.0546 10.2284C34.0523 10.2267 34.0221 10.2627 33.9657 10.3351C33.907 10.412 33.8248 10.5191 33.7186 10.6587C33.5012 10.9498 33.1866 11.3711 32.7821 11.9129C31.9737 13.012 30.8097 14.5956 29.3719 16.5511C26.5088 20.4853 22.559 25.9133 18.1941 31.9111C13.8363 37.9093 9.88123 43.3351 6.99456 47.2453C5.55145 49.2009 4.37634 50.7782 3.5559 51.8622C3.14568 52.404 2.82434 52.8231 2.60256 53.104C2.38079 53.3853 2.25901 53.5289 2.2479 53.5209C2.23679 53.5129 2.33768 53.3538 2.5399 53.0578C2.74212 52.7622 3.04523 52.3302 3.4399 51.7769C4.22923 50.6698 5.38301 49.0769 6.81812 47.1156C9.68745 43.192 13.6826 37.796 18.1043 31.8444Z" fill="#EBEBEB"/>
<path d="M16.8389 30.7413C22.1309 25.5431 26.9198 20.8391 30.3913 17.4293C32.1144 15.72 33.5095 14.336 34.4784 13.3751C34.9549 12.8956 35.3255 12.5222 35.5815 12.2649C35.7038 12.1391 35.7975 12.0422 35.8651 11.9729C35.9282 11.9062 35.9598 11.8711 35.9575 11.8693C35.9553 11.8671 35.9202 11.8982 35.8531 11.9609C35.7829 12.0276 35.6855 12.1209 35.5584 12.2418C35.2984 12.4956 34.922 12.8631 34.4384 13.3351C33.4691 14.2956 32.0731 15.6782 30.3486 17.3862C26.9082 20.8271 22.1624 25.5747 16.9175 30.8209C11.6798 36.0684 6.92865 40.8124 3.46909 44.2267C1.73931 45.9338 0.333535 47.3093 -0.645577 48.2524C-1.13491 48.724 -1.51758 49.0875 -1.78069 49.3311C-2.04335 49.5742 -2.18602 49.6973 -2.1958 49.6875C-2.20513 49.6778 -2.08113 49.5364 -1.83535 49.2755C-1.58958 49.0151 -1.22291 48.6355 -0.74691 48.1502C0.204646 47.1795 1.59265 45.7853 3.31487 44.0711C6.75931 40.6418 11.5455 35.9329 16.8389 30.7413Z" fill="#EBEBEB"/>
<path d="M15.7604 29.4551C21.7968 25.1436 27.2591 21.2413 31.2186 18.4133C33.1866 16.9929 34.7799 15.8427 35.8866 15.0444C36.4319 14.6449 36.8559 14.3338 37.1488 14.1191C37.2888 14.0138 37.3968 13.9329 37.4742 13.8747C37.5471 13.8187 37.5835 13.7889 37.5817 13.7867C37.5799 13.7844 37.5404 13.8093 37.4644 13.8609C37.3848 13.916 37.2737 13.9929 37.1297 14.0924C36.8333 14.3027 36.4044 14.6071 35.8533 14.9982C34.7462 15.796 33.1519 16.9449 31.1831 18.364C27.2497 21.228 21.8226 25.1796 15.8262 29.5462C9.83594 33.9151 4.40483 37.8627 0.456389 40.6973C-1.51783 42.1147 -3.1205 43.2547 -4.23472 44.0342C-4.79161 44.424 -5.22628 44.7236 -5.52361 44.9231C-5.82094 45.1227 -5.98094 45.2218 -5.98894 45.2107C-5.99694 45.1996 -5.85205 45.0791 -5.56894 44.86C-5.28583 44.6409 -4.8645 44.3231 -4.31872 43.9173C-3.22761 43.1067 -1.64005 41.9453 0.32839 40.5196C4.26395 37.6671 9.72394 33.76 15.7604 29.4551Z" fill="#EBEBEB"/>
<path d="M14.8952 28.0164C21.5312 24.7018 27.5365 21.7018 31.8898 19.5275C34.0561 18.432 35.8094 17.5453 37.0272 16.9298C37.6281 16.6204 38.0956 16.3795 38.4187 16.2129C38.5738 16.1307 38.6929 16.0675 38.7783 16.0222C38.8587 15.9782 38.8996 15.9547 38.8983 15.952C38.8969 15.9493 38.8538 15.968 38.7707 16.0067C38.6836 16.0484 38.5618 16.1071 38.4041 16.1831C38.0787 16.3444 37.6072 16.5778 37.0014 16.8782C35.7832 17.4929 34.0289 18.3787 31.8623 19.4724C27.5289 21.6867 21.5512 24.7409 14.9454 28.1164C8.34583 31.4951 2.36495 34.5458 -1.97861 36.7276C-4.15016 37.8191 -5.9115 38.6942 -7.13372 39.2898C-7.74483 39.5876 -8.22083 39.8155 -8.54572 39.9658C-8.87061 40.116 -9.04439 40.1889 -9.05061 40.1769C-9.05683 40.1649 -8.89505 40.068 -8.58128 39.896C-8.2675 39.7235 -7.80127 39.4755 -7.19905 39.1604C-5.99461 38.5302 -4.24483 37.6311 -2.07816 36.5307C2.25561 34.3293 8.25961 31.3244 14.8952 28.0164Z" fill="#EBEBEB"/>
<path d="M14.2671 26.46C21.3422 24.2307 27.7449 22.2133 32.3858 20.7511C34.6973 20.0102 36.5684 19.4102 37.8675 18.9938C38.5098 18.7827 39.0093 18.6182 39.3542 18.5049C39.52 18.448 39.648 18.4044 39.7395 18.3733C39.8258 18.3427 39.8698 18.3258 39.8689 18.3227C39.868 18.32 39.8222 18.3315 39.7342 18.3569C39.6413 18.3844 39.512 18.4231 39.344 18.4733C38.9973 18.5813 38.4951 18.7378 37.8498 18.9387C36.5502 19.3542 34.6782 19.9524 32.3667 20.692C27.7395 22.1969 21.3555 24.2729 14.3013 26.5671C7.25243 28.8658 0.865766 30.9373 -3.76668 32.4089C-6.08268 33.1449 -7.96001 33.7324 -9.26046 34.128C-9.91068 34.3258 -10.4169 34.476 -10.7613 34.5733C-11.1058 34.6707 -11.2889 34.7155 -11.2929 34.7022C-11.2969 34.6893 -11.1222 34.6191 -10.7849 34.4982C-10.448 34.3773 -9.9489 34.2058 -9.30446 33.9893C-8.01601 33.5564 -6.14668 32.944 -3.83335 32.1982C0.791544 30.7053 7.19377 28.6822 14.2671 26.46Z" fill="#EBEBEB"/>
<path d="M-12.1143 28.8196C-11.7623 28.7533 -11.2423 28.6622 -10.572 28.5498C-9.23115 28.3249 -7.28892 28.0142 -4.88759 27.6418C-0.0844795 26.8956 6.55596 25.9053 13.8911 24.8231C21.2289 23.7347 27.8689 22.7498 32.6822 22.0356C35.0813 21.6676 37.0235 21.3698 38.3724 21.1627C39.04 21.0551 39.5591 20.9716 39.9177 20.9138C40.0906 20.884 40.2235 20.8609 40.3191 20.8444C40.4093 20.828 40.4551 20.8178 40.4551 20.8151C40.4546 20.8124 40.408 20.8164 40.3169 20.8276C40.2209 20.8404 40.0871 20.8582 39.9133 20.8813C39.5537 20.9333 39.0333 21.0089 38.3644 21.1062C37.0155 21.312 35.0729 21.6084 32.6737 21.9747C27.8666 22.7329 21.2355 23.7782 13.908 24.9338C6.5853 26.0942 -0.0480351 27.1351 -4.85426 27.8591C-7.25737 28.2218 -9.20359 28.5062 -10.5503 28.6924C-11.2236 28.7858 -11.7471 28.8542 -12.1027 28.8964" fill="#EBEBEB"/>
<path d="M-12.5337 23.0631C-12.176 23.0524 -11.648 23.0436 -10.9684 23.0364C-9.60885 23.0227 -7.64218 23.0173 -5.21196 23.0213C-0.351514 23.0293 6.36271 23.08 13.7765 23.1476C21.1943 23.2098 27.9067 23.2658 32.7725 23.3067C35.1996 23.3156 37.1649 23.3227 38.5294 23.3276C39.2054 23.3253 39.7312 23.3231 40.0947 23.3218C40.2698 23.3191 40.4049 23.3173 40.5018 23.3156C40.5934 23.3133 40.6405 23.3107 40.6405 23.308C40.6405 23.3053 40.5934 23.3022 40.5018 23.2991C40.4049 23.2969 40.2703 23.2938 40.0947 23.2898C39.7316 23.2858 39.2054 23.2796 38.5298 23.272C37.1654 23.2662 35.2005 23.2582 32.7729 23.248C27.9072 23.2511 21.1943 23.2551 13.7765 23.2596C6.36226 23.2693 -0.351959 23.268 -5.2124 23.2382C-7.64262 23.2236 -9.60929 23.2031 -10.9688 23.1787C-11.6484 23.1662 -12.1764 23.1533 -12.5342 23.14" fill="#EBEBEB"/>
<path d="M13.9226 21.4738C21.2404 22.6884 27.8626 23.7871 32.6631 24.584C35.0595 24.9698 36.9995 25.2818 38.3466 25.4982C39.0146 25.6004 39.5346 25.6804 39.8937 25.7356C40.0675 25.76 40.2009 25.7791 40.2969 25.7924C40.388 25.8044 40.4346 25.8089 40.4351 25.8062C40.4355 25.8031 40.3897 25.7929 40.2995 25.7756C40.2044 25.7582 40.0715 25.7342 39.8991 25.7031C39.5409 25.6427 39.0222 25.5547 38.356 25.4418C37.0089 25.224 35.0693 24.9107 32.6729 24.5231C27.8657 23.7702 21.2337 22.732 13.9049 21.5844C6.57908 20.4431 -0.0533671 19.3996 -4.85026 18.6147C-7.24892 18.2227 -9.18848 17.8964 -10.5271 17.6609C-11.1965 17.5431 -11.716 17.448 -12.0671 17.3787C-12.4187 17.3098 -12.6018 17.2667 -12.5996 17.2533C-12.5974 17.24 -12.4098 17.2569 -12.0547 17.3018C-11.6996 17.3467 -11.1765 17.4196 -10.504 17.5182C-9.1587 17.7156 -7.21514 18.0156 -4.8147 18.3973C-0.0151449 19.1604 6.6093 20.2542 13.9226 21.4738Z" fill="#EBEBEB"/>
<path d="M14.3284 19.8431C21.3635 22.1956 27.7297 24.324 32.3444 25.8667C34.6502 26.6249 36.5168 27.2382 37.8133 27.6644C38.4568 27.8707 38.9577 28.0311 39.304 28.1422C39.4715 28.1938 39.6004 28.2333 39.6933 28.2618C39.7813 28.2876 39.8266 28.2996 39.828 28.2969C39.8289 28.2942 39.7853 28.2764 39.6991 28.2453C39.6075 28.2133 39.4804 28.1684 39.3151 28.1102C38.9711 27.9938 38.4729 27.8253 37.8324 27.6089C36.5364 27.1818 34.6702 26.5667 32.3649 25.8067C27.736 24.3067 21.3502 22.2369 14.2933 19.9502C7.23818 17.6702 0.852849 15.5951 -3.76048 14.0644C-6.06715 13.2996 -7.9316 12.672 -9.21648 12.2284C-9.85915 12.0067 -10.3569 11.8307 -10.6929 11.7071C-11.0289 11.5836 -11.2032 11.512 -11.1992 11.4991C-11.1947 11.4862 -11.012 11.532 -10.6685 11.6324C-10.3249 11.7324 -9.82004 11.8867 -9.17115 12.0898C-7.87382 12.496 -6.00137 13.0987 -3.6916 13.8538C0.928849 15.3631 7.29818 17.4867 14.3284 19.8431Z" fill="#EBEBEB"/>
<path d="M14.9861 18.2987C21.5639 21.728 27.5163 24.8315 31.831 27.0809C33.9888 28.1924 35.7359 29.0924 36.9488 29.7173C37.5519 30.0227 38.0217 30.26 38.3457 30.424C38.503 30.5013 38.6243 30.5609 38.711 30.6035C38.7937 30.6431 38.8368 30.6622 38.8381 30.6595C38.8394 30.6569 38.799 30.6329 38.719 30.5884C38.6341 30.5427 38.515 30.4782 38.3608 30.3951C38.0394 30.2262 37.5737 29.9813 36.975 29.6671C35.7625 29.0413 34.0163 28.1404 31.8594 27.0271C27.5248 24.8169 21.5443 21.768 14.9354 18.3982C8.32744 15.0351 2.34833 11.9804 -1.96678 9.74355C-4.12456 8.62532 -5.86678 7.71244 -7.06589 7.07244C-7.66545 6.75244 -8.12945 6.50044 -8.44189 6.32577C-8.75434 6.1511 -8.91523 6.05332 -8.90901 6.04132C-8.90278 6.02932 -8.72989 6.10355 -8.40589 6.25688C-8.08234 6.41021 -7.60812 6.64177 -6.99967 6.94488C-5.78278 7.55066 -4.02856 8.44044 -1.8659 9.54977C2.45855 11.7667 8.41455 14.8658 14.9861 18.2987Z" fill="#EBEBEB"/>
<path d="M15.8774 16.876C21.8383 21.2915 27.2325 25.2871 31.1423 28.1835C33.0996 29.6187 34.6845 30.7804 35.785 31.5875C36.333 31.9831 36.7596 32.2911 37.0539 32.5036C37.1974 32.6044 37.3076 32.6822 37.3867 32.7378C37.4623 32.7898 37.5019 32.8151 37.5036 32.8129C37.5054 32.8107 37.469 32.7804 37.397 32.724C37.3201 32.6653 37.213 32.5831 37.0734 32.4769C36.7823 32.2595 36.3605 31.9453 35.8187 31.5413C34.7187 30.7338 33.1352 29.5707 31.1783 28.1342C27.2423 25.2738 21.8116 21.3271 15.8112 16.9662C9.80986 12.612 4.38186 8.66044 0.469414 5.77644C-1.48703 4.33466 -3.06525 3.16044 -4.1497 2.34088C-4.69192 1.9311 -5.11103 1.60977 -5.39236 1.38844C-5.6737 1.1671 -5.81725 1.04488 -5.80925 1.03421C-5.80125 1.0231 -5.6417 1.12399 -5.34614 1.32577C-5.05059 1.52755 -4.61814 1.83066 -4.06436 2.22488C-2.95681 3.01333 -1.36348 4.16621 0.599191 5.59999C4.52452 8.46577 9.92319 12.4582 15.8774 16.876Z" fill="#EBEBEB"/>
<path d="M16.9802 15.6098C22.1816 20.8987 26.8887 25.6844 30.3007 29.1538C32.0114 30.876 33.3958 32.2702 34.3571 33.2382C34.8371 33.7142 35.2105 34.0849 35.4682 34.3409C35.594 34.4631 35.6909 34.5569 35.7607 34.6244C35.8274 34.6876 35.8625 34.7191 35.8642 34.7169C35.8665 34.7147 35.8354 34.6796 35.7727 34.6124C35.706 34.5427 35.6127 34.4449 35.4914 34.3182C35.2376 34.0587 34.87 33.6822 34.3976 33.1987C33.4367 32.2298 32.0531 30.8347 30.3438 29.1111C26.9007 25.6729 22.15 20.9298 16.9007 15.6889C11.65 10.4538 6.90291 5.70622 3.48647 2.24845C1.77802 0.520002 0.402024 -0.885332 -0.541975 -1.86355C-1.01398 -2.35289 -1.37753 -2.73511 -1.62109 -2.99778C-1.86464 -3.26044 -1.98775 -3.40311 -1.97798 -3.41244C-1.9682 -3.42178 -1.82686 -3.29778 -1.56598 -3.05244C-1.30509 -2.80711 -0.925531 -2.44044 -0.439753 -1.96489C0.531802 -1.01378 1.92647 0.37289 3.64202 2.09467C7.07358 5.53645 11.7856 10.3196 16.9802 15.6098Z" fill="#EBEBEB"/>
<path d="M18.2658 14.5302C22.5814 20.5635 26.4867 26.0236 29.3174 29.9813C30.7392 31.9484 31.8903 33.5413 32.6894 34.6471C33.0894 35.192 33.4005 35.616 33.6156 35.9089C33.7209 36.0489 33.8023 36.1569 33.8605 36.2342C33.9165 36.3071 33.9463 36.3435 33.9485 36.3418C33.9507 36.34 33.9258 36.3004 33.8743 36.2244C33.8192 36.1449 33.7423 36.0338 33.6423 35.8898C33.432 35.5938 33.1272 35.1649 32.7356 34.6138C31.9369 33.5071 30.7872 31.9138 29.3667 29.9458C26.5 26.0142 22.5454 20.5898 18.1747 14.596C13.8023 8.60844 9.85115 3.17999 7.01427 -0.766675C5.5956 -2.74001 4.45471 -4.34223 3.67471 -5.45556C3.28449 -6.01245 2.98493 -6.44667 2.78493 -6.74401C2.58538 -7.04134 2.48582 -7.20134 2.49693 -7.20934C2.50804 -7.21734 2.62849 -7.07245 2.84804 -6.78979C3.0676 -6.50667 3.38538 -6.08534 3.79115 -5.54001C4.60271 -4.44934 5.76493 -2.86267 7.19204 -0.895119C10.0467 3.03866 13.9569 8.49644 18.2658 14.5302Z" fill="#EBEBEB"/>
<path d="M19.7032 13.6649C23.0223 20.2991 26.0259 26.3022 28.2028 30.6538C29.2996 32.8191 30.1872 34.572 30.8041 35.7893C31.1139 36.3902 31.3552 36.8578 31.5219 37.1804C31.6041 37.3351 31.6672 37.4547 31.713 37.54C31.757 37.6204 31.7805 37.6613 31.7832 37.66C31.7859 37.6587 31.7672 37.6155 31.7281 37.5324C31.6859 37.4453 31.6276 37.3235 31.5512 37.1658C31.3899 36.8404 31.1561 36.3693 30.8556 35.7635C30.2401 34.5458 29.3534 32.792 28.2583 30.6262C26.0414 26.2947 22.9832 20.3191 19.6036 13.7155C16.2205 7.11777 13.1663 1.13866 10.9814 -3.20312C9.88853 -5.37379 9.01209 -7.13468 8.41609 -8.35645C8.11786 -8.96712 7.88942 -9.44312 7.7392 -9.76801C7.58853 -10.0929 7.51564 -10.2667 7.52764 -10.2729C7.53964 -10.2791 7.63653 -10.1173 7.80898 -9.80357C7.98142 -9.48979 8.22986 -9.02401 8.54542 -8.42179C9.17653 -7.21779 10.0765 -5.46845 11.1783 -3.30268C13.3823 1.02932 16.3912 7.03155 19.7032 13.6649Z" fill="#EBEBEB"/>
<path d="M21.2599 13.0356C23.4936 20.1093 25.5154 26.5107 26.9808 31.1502C27.723 33.4613 28.3243 35.332 28.7416 36.6311C28.9532 37.2733 29.1181 37.7729 29.2314 38.1178C29.2883 38.2836 29.3319 38.4116 29.3634 38.5031C29.3941 38.5898 29.4114 38.6333 29.4141 38.6324C29.4168 38.6316 29.4052 38.5858 29.3799 38.4978C29.3523 38.4049 29.3132 38.2755 29.263 38.1075C29.1545 37.7609 28.9981 37.2587 28.7963 36.6133C28.3799 35.3138 27.7803 33.4427 27.0399 31.1311C25.5319 26.5049 23.4519 20.1222 21.1532 13.0698C18.8501 6.02222 16.7745 -0.363111 15.2999 -4.99467C14.5621 -7.31022 13.9736 -9.18711 13.5772 -10.4876C13.379 -11.1378 13.2283 -11.6436 13.1305 -11.988C13.0328 -12.3324 12.9883 -12.5156 13.0012 -12.5196C13.0141 -12.5236 13.0843 -12.3489 13.2052 -12.012C13.3261 -11.6751 13.4981 -11.176 13.715 -10.5316C14.1488 -9.24311 14.7625 -7.37422 15.5096 -5.06178C17.0056 -0.43689 19.0328 5.96355 21.2599 13.0356Z" fill="#EBEBEB"/>
<path d="M22.8967 12.6591C23.9896 19.996 24.9789 26.6356 25.6962 31.4484C26.0656 33.8476 26.3651 35.7893 26.5727 37.1382C26.6807 37.8053 26.7647 38.3249 26.8225 38.6836C26.8522 38.8564 26.8753 38.9893 26.8922 39.0844C26.9087 39.1747 26.9189 39.2204 26.922 39.2204C26.9247 39.22 26.9207 39.1733 26.9096 39.0822C26.8967 38.9862 26.8789 38.8524 26.8553 38.6787C26.8029 38.3191 26.7273 37.7987 26.6296 37.1298C26.4229 35.7809 26.1251 33.8387 25.7571 31.4396C24.9962 26.6338 23.9465 20.0031 22.786 12.6764C21.6207 5.35422 20.5758 -1.27778 19.8487 -6.084C19.4847 -8.48667 19.1989 -10.4329 19.0118 -11.7796C18.918 -12.4529 18.8491 -12.976 18.8069 -13.3316C18.7647 -13.6871 18.7491 -13.8751 18.7625 -13.8769C18.7758 -13.8791 18.8176 -13.6951 18.8838 -13.3436C18.95 -12.992 19.0416 -12.4716 19.1545 -11.8013C19.3802 -10.4609 19.6918 -8.51867 20.066 -6.11733C20.8149 -1.31511 21.8096 5.32489 22.8967 12.6591Z" fill="#EBEBEB"/>
<path d="M24.5712 12.5431C24.5139 19.9609 24.4619 26.6733 24.4241 31.5391C24.417 33.9662 24.4112 35.9311 24.4072 37.296C24.4099 37.972 24.4121 38.4978 24.4139 38.8613C24.4166 39.0364 24.4188 39.1715 24.4201 39.2684C24.4223 39.36 24.425 39.4071 24.4281 39.4071C24.4308 39.4071 24.4339 39.36 24.437 39.2684C24.4392 39.1715 24.4419 39.0369 24.4459 38.8613C24.4499 38.4982 24.4552 37.972 24.4628 37.296C24.4677 35.9315 24.4743 33.9667 24.4832 31.5391C24.477 26.6733 24.469 19.9604 24.4597 12.5427C24.445 5.12844 24.4423 -1.58578 24.469 -6.44623C24.4819 -8.87645 24.5014 -10.8431 24.525 -12.2027C24.537 -12.8822 24.5494 -13.4102 24.5628 -13.768C24.5761 -14.1258 24.5895 -14.3138 24.6032 -14.3138C24.6166 -14.3138 24.629 -14.1258 24.6401 -13.768C24.6512 -13.4102 24.6606 -12.8822 24.6677 -12.2027C24.6823 -10.8431 24.689 -8.87645 24.6863 -6.44623C24.6806 -1.58489 24.6343 5.12933 24.5712 12.5431Z" fill="#EBEBEB"/>
<path d="M26.2458 12.6875C25.036 20.0062 23.9413 26.6293 23.1475 31.4298C22.7635 33.8267 22.4529 35.7667 22.2369 37.1142C22.1351 37.7827 22.0555 38.3027 22.0009 38.6613C21.9764 38.8351 21.9578 38.9684 21.944 39.0644C21.932 39.1555 21.9275 39.2022 21.9306 39.2027C21.9338 39.2031 21.944 39.1573 21.9613 39.0671C21.9786 38.972 22.0026 38.8391 22.0338 38.6667C22.0942 38.3084 22.1818 37.7898 22.2938 37.1231C22.5106 35.776 22.8231 33.836 23.2089 31.4395C23.9586 26.632 24.9924 19.9991 26.1355 12.6698C27.272 5.3431 28.3115 -1.28979 29.0933 -6.08712C29.4835 -8.48579 29.8084 -10.4258 30.0435 -11.7649C30.1609 -12.4342 30.2555 -12.9538 30.3244 -13.3049C30.3933 -13.6565 30.436 -13.8396 30.4498 -13.8378C30.4631 -13.8356 30.4467 -13.648 30.4018 -13.2929C30.3573 -12.9378 30.2844 -12.4147 30.1862 -11.7422C29.9898 -10.3969 29.6911 -8.4529 29.3106 -6.05245C28.5502 -1.25156 27.4604 5.37377 26.2458 12.6875Z" fill="#EBEBEB"/>
<path d="M27.8762 13.0929C25.5286 20.1298 23.4042 26.4973 21.8642 31.1133C21.1077 33.4196 20.4953 35.2867 20.07 36.5831C19.8642 37.2271 19.7037 37.728 19.5935 38.0742C19.542 38.2418 19.5024 38.3707 19.474 38.4636C19.4482 38.5516 19.4362 38.5973 19.4388 38.5982C19.4415 38.5991 19.4593 38.5556 19.4904 38.4693C19.5224 38.3778 19.5668 38.2507 19.6251 38.0853C19.7411 37.7409 19.9091 37.2427 20.1255 36.6022C20.5517 35.3058 21.166 33.4396 21.9242 31.1338C23.4211 26.504 25.4868 20.1169 27.7691 13.0587C30.0446 6.00134 32.1157 -0.385329 33.6428 -5C34.406 -7.30755 35.0326 -9.172 35.4753 -10.4573C35.6966 -11.1 35.8722 -11.5978 35.9957 -11.9338C36.1193 -12.2698 36.1904 -12.4444 36.2037 -12.44C36.2166 -12.4356 36.1708 -12.2529 36.0708 -11.9093C35.9708 -11.5653 35.8171 -11.0604 35.6144 -10.4116C35.2091 -9.11377 34.6077 -7.24133 33.854 -4.93066C32.3477 -0.309329 30.2282 6.06134 27.8762 13.0929Z" fill="#EBEBEB"/>
<path d="M29.4209 13.7493C25.996 20.3293 22.8964 26.284 20.6498 30.6C19.5395 32.7587 18.6409 34.5062 18.0169 35.7195C17.712 36.3231 17.4751 36.7924 17.3115 37.1169C17.2342 37.2742 17.1746 37.3955 17.1324 37.4822C17.0929 37.5649 17.0738 37.608 17.0764 37.6093C17.0791 37.6107 17.1031 37.5702 17.1475 37.4898C17.1933 37.4049 17.2578 37.2858 17.3409 37.1315C17.5098 36.8098 17.7538 36.344 18.068 35.7453C18.6929 34.5324 19.5929 32.7858 20.7049 30.628C22.912 26.2915 25.9573 20.3093 29.3226 13.6987C32.6809 7.08843 35.7315 1.10755 37.9658 -3.2089C39.0826 -5.36756 39.9942 -7.11023 40.6338 -8.30979C40.9533 -8.90979 41.2049 -9.37379 41.3795 -9.68623C41.5542 -9.99868 41.652 -10.16 41.664 -10.1538C41.676 -10.1476 41.6018 -9.97468 41.4489 -9.65068C41.296 -9.32712 41.0644 -8.85245 40.7618 -8.24401C40.1569 -7.02668 39.2684 -5.27156 38.1604 -3.10845C35.9449 1.21732 32.8493 7.1751 29.4209 13.7493Z" fill="#EBEBEB"/>
<path d="M30.8446 14.64C26.433 20.6036 22.4406 26.0004 19.5468 29.912C18.113 31.8707 16.9521 33.456 16.1459 34.5569C15.7504 35.1053 15.4428 35.532 15.2304 35.8267C15.1295 35.9702 15.0517 36.0804 14.9961 36.1596C14.9441 36.2351 14.9188 36.2747 14.921 36.2764C14.9233 36.2782 14.9535 36.2418 15.0099 36.1698C15.0686 36.0929 15.1504 35.9853 15.257 35.8462C15.4739 35.5551 15.7881 35.1329 16.1917 34.5907C16.9984 33.4902 18.1606 31.9058 19.5957 29.9484C22.4539 26.0107 26.3966 20.5778 30.7539 14.5742C35.1046 8.56978 39.0526 3.13955 41.9344 -0.774668C43.3748 -2.732 44.5481 -4.31067 45.3673 -5.396C45.777 -5.93867 46.0979 -6.35778 46.3193 -6.63911C46.5406 -6.92045 46.6624 -7.06445 46.6735 -7.05645C46.6841 -7.04845 46.5841 -6.88889 46.3824 -6.59334C46.1806 -6.29734 45.8779 -5.86489 45.4837 -5.31111C44.6961 -4.20311 43.5441 -2.60889 42.1117 -0.645335C39.2473 3.28178 35.2588 8.68267 30.8446 14.64Z" fill="#EBEBEB"/>
<path d="M32.1114 15.7413C26.826 20.9462 22.0429 25.6564 18.5763 29.0707C16.8549 30.7822 15.4616 32.1676 14.494 33.1298C14.018 33.6098 13.6478 33.9836 13.3923 34.2418C13.2705 34.3676 13.1763 34.4649 13.1092 34.5342C13.046 34.6009 13.0145 34.636 13.0167 34.6378C13.0189 34.64 13.054 34.6089 13.1212 34.5462C13.1909 34.4796 13.2887 34.3862 13.4154 34.2649C13.6749 34.0107 14.0509 33.6431 14.534 33.1702C15.502 32.2089 16.8967 30.824 18.6189 29.1138C22.0549 25.6684 26.7949 20.9151 32.0327 15.6622C37.2638 10.408 42.0087 5.65778 45.4643 2.23955C47.1918 0.53022 48.5963 -0.847114 49.574 -1.79156C50.0629 -2.26356 50.4452 -2.628 50.7078 -2.87156C50.97 -3.11511 51.1127 -3.23822 51.1225 -3.22889C51.1318 -3.21911 51.0078 -3.07734 50.7629 -2.81645C50.5176 -2.55556 50.1514 -2.17556 49.6758 -1.68978C48.7252 -0.71778 47.3394 0.677775 45.6189 2.39466C42.1785 5.82844 37.3985 10.5431 32.1114 15.7413Z" fill="#EBEBEB"/>
<path d="M33.1924 17.0262C27.1618 21.3458 21.7044 25.2547 17.7484 28.0875C15.7822 29.5107 14.1902 30.6627 13.0849 31.4627C12.54 31.8631 12.1164 32.1747 11.8236 32.3898C11.6836 32.4951 11.5755 32.5764 11.4982 32.6347C11.4258 32.6907 11.3893 32.7204 11.3907 32.7227C11.3924 32.7249 11.432 32.7 11.508 32.6484C11.5875 32.5933 11.6982 32.5164 11.8422 32.4164C12.1382 32.2058 12.5667 31.9009 13.1178 31.5089C14.2235 30.7098 15.8164 29.5587 17.784 28.1373C21.7138 25.268 27.1355 21.3098 33.1267 16.9355C39.1115 12.5591 44.5373 8.60444 48.4822 5.76488C50.4547 4.34488 52.056 3.2031 53.1689 2.42221C53.7253 2.03199 54.1595 1.73155 54.4569 1.53199C54.7542 1.33199 54.9142 1.23288 54.9218 1.24355C54.9298 1.25466 54.7853 1.3751 54.5022 1.5951C54.2191 1.8151 53.7982 2.13288 53.2533 2.5391C52.1631 3.35155 50.5773 4.51466 48.6107 5.94266C44.6787 8.79999 39.2231 12.7138 33.1924 17.0262Z" fill="#EBEBEB"/>
<path d="M34.0579 18.464C27.4259 21.7871 21.4246 24.7947 17.0743 26.9747C14.9099 28.0729 13.1575 28.9618 11.9406 29.5791C11.3401 29.8893 10.8726 30.1307 10.5499 30.2978C10.3952 30.38 10.2757 30.4435 10.1903 30.4889C10.1099 30.5329 10.069 30.5564 10.0703 30.5591C10.0717 30.5618 10.1148 30.5431 10.1979 30.504C10.285 30.4618 10.4068 30.4031 10.5646 30.3271C10.8899 30.1653 11.361 29.9311 11.9663 29.6302C13.1837 29.0138 14.9366 28.1262 17.1023 27.0298C21.4326 24.8102 27.4063 21.748 34.0072 18.364C40.6023 14.9769 46.5797 11.9187 50.9201 9.7311C53.0903 8.63688 54.8503 7.75955 56.0717 7.16221C56.6823 6.86355 57.1583 6.6351 57.4828 6.48399C57.8077 6.33332 57.981 6.25999 57.9872 6.27199C57.9935 6.28399 57.8317 6.38088 57.5179 6.55377C57.2041 6.72666 56.7383 6.9751 56.1366 7.2911C54.933 7.9231 53.1846 8.82399 51.0188 9.9271C46.6895 12.1347 40.689 15.1475 34.0579 18.464Z" fill="#EBEBEB"/>
<path d="M34.6888 20.0196C27.6168 22.2578 21.2168 24.2836 16.5777 25.752C14.267 26.496 12.3968 27.0982 11.0981 27.5164C10.4563 27.7284 9.95678 27.8933 9.61189 28.0076C9.44611 28.0644 9.31856 28.1084 9.227 28.1396C9.14078 28.1702 9.09678 28.1876 9.09767 28.1902C9.09856 28.1929 9.14434 28.1813 9.23234 28.156C9.32478 28.128 9.45411 28.0893 9.62211 28.0391C9.96878 27.9307 10.4706 27.7738 11.1159 27.5716C12.415 27.1542 14.2861 26.5533 16.5968 25.8116C21.2221 24.3009 27.603 22.2164 34.6546 19.9129C41.7003 17.6053 48.0843 15.5253 52.715 14.048C55.0301 13.3089 56.9066 12.7191 58.2066 12.3218C58.8568 12.1231 59.3626 11.972 59.707 11.8742C60.0514 11.7764 60.2346 11.7316 60.2386 11.7444C60.2426 11.7573 60.0679 11.8276 59.731 11.9489C59.3941 12.0702 58.895 12.2427 58.251 12.46C56.963 12.8947 55.0946 13.5093 52.7826 14.2582C48.159 15.7569 41.7594 17.788 34.6888 20.0196Z" fill="#EBEBEB"/>
<path d="M35.066 21.656C27.7296 22.7538 21.0909 23.7471 16.2785 24.4676C13.8798 24.8387 11.938 25.1391 10.5896 25.3475C9.92248 25.456 9.40293 25.54 9.0447 25.5982C8.87182 25.6284 8.73893 25.6516 8.64382 25.668C8.55359 25.6849 8.50737 25.6947 8.50782 25.6978C8.50826 25.7009 8.55493 25.6964 8.64604 25.6853C8.74204 25.6724 8.87582 25.6547 9.04959 25.6311C9.40915 25.5787 9.92959 25.5022 10.5985 25.4044C11.9469 25.1969 13.8891 24.8978 16.2883 24.5284C21.0936 23.7644 27.7234 22.7102 35.0491 21.5453C42.3705 20.3751 49.002 19.3262 53.8074 18.596C56.21 18.2302 58.1558 17.9431 59.5025 17.7551C60.1758 17.6609 60.6989 17.5915 61.0545 17.5493C61.41 17.5067 61.5976 17.4911 61.5998 17.5049C61.602 17.5182 61.418 17.56 61.0665 17.6267C60.7149 17.6933 60.1949 17.7849 59.5247 17.8982C58.1843 18.1249 56.2425 18.4378 53.8412 18.8133C49.0389 19.5653 42.3994 20.5644 35.066 21.656Z" fill="#EBEBEB"/>
</g>
<path d="M16.2373 19.6124C16.2631 19.6053 17.9111 19.4373 17.9111 19.4373C17.9111 19.4373 17.7573 20.1364 17.1449 20.2004C16.5324 20.2649 16.2373 19.6124 16.2373 19.6124Z" fill="#D44F43"/>
<path d="M16.5653 19.756C16.6168 19.7818 17.4751 19.7 17.5915 19.6542C17.6422 19.6342 17.6408 19.5622 17.6546 19.4631C17.328 19.4964 16.7697 19.5538 16.46 19.5871C16.4884 19.6507 16.5328 19.7396 16.5653 19.756Z" fill="white"/>
<path d="M17.1446 20.2004C17.3392 20.18 17.4877 20.0956 17.5997 19.9893C17.1961 19.8542 16.8655 20.0169 16.7588 20.1418C16.869 20.1902 16.9979 20.216 17.1446 20.2004Z" fill="#E46F60"/>
<path opacity="0.81" d="M9.90918 34.0298C14.013 34.0298 17.3398 31.2006 17.3398 27.7107C17.3398 24.2207 14.013 21.3916 9.90918 21.3916C5.80534 21.3916 2.47852 24.2207 2.47852 27.7107C2.47852 31.2006 5.80534 34.0298 9.90918 34.0298Z" fill="#FCF3DB"/>
<g opacity="0.5">
<path d="M27.1343 41.3151C27.2258 41.3116 27.3032 41.3831 27.3067 41.4747C27.3103 41.5662 27.2387 41.6436 27.1472 41.6471C27.0556 41.6507 26.9783 41.5791 26.9747 41.4876C26.9712 41.396 27.0427 41.3187 27.1343 41.3151Z" fill="#F7DF8E"/>
<path d="M36.362 41.6698C36.5113 41.6698 36.6322 41.5488 36.6322 41.3996C36.6322 41.2503 36.5113 41.1293 36.362 41.1293C36.2128 41.1293 36.0918 41.2503 36.0918 41.3996C36.0918 41.5488 36.2128 41.6698 36.362 41.6698Z" fill="#F7DF8E"/>
<path d="M36.9845 9.09067L36.6689 10.2382L36.9947 10.3053L37.5472 9.41911L36.9845 9.09067Z" fill="#F7DF8E"/>
<path d="M31.8525 1.99067L32.9214 2.51512L33.0481 2.208L32.2805 1.49911L31.8525 1.99067Z" fill="#F7DF8E"/>
<path d="M36.8867 18.7156L38.0485 18.976L38.0996 18.6471L37.1876 18.1373L36.8867 18.7156Z" fill="#F7DF8E"/>
<path d="M38.041 1.66889L38.8463 1.64978L38.9321 1.45156L38.3446 1.28889L38.041 1.66889Z" fill="#F7DF8E"/>
<path d="M32.7722 45.6493C32.8637 45.6458 32.9353 45.5685 32.9317 45.4769C32.9282 45.3853 32.8508 45.3138 32.7593 45.3173C32.6677 45.3209 32.5962 45.3982 32.5997 45.4898C32.6033 45.5813 32.6806 45.6529 32.7722 45.6493Z" fill="#F7DF8E"/>
<path d="M26.874 1.91911L28.0149 2.25867L28.0891 1.93467L27.2145 1.36311L26.874 1.91911Z" fill="#F7DF8E"/>
<path d="M32.1417 39.7978L33.1195 39.1187L32.9124 38.8587L31.9199 39.1849L32.1417 39.7978Z" fill="#F7DF8E"/>
<path d="M16.4131 33.2569L17.482 33.7818L17.6086 33.4742L16.8411 32.7653L16.4131 33.2569Z" fill="#F7DF8E"/>
<path d="M38.0869 35.6502L39.2487 35.9107L39.3002 35.5818L38.3882 35.072L38.0869 35.6502Z" fill="#F7DF8E"/>
<path d="M37.0479 27.5978L37.8532 27.5787L37.939 27.3804L37.3514 27.2178L37.0479 27.5978Z" fill="#F7DF8E"/>
<path d="M21.8232 20.6218L22.4108 21.6569L22.689 21.4742L22.4539 20.4565L21.8232 20.6218Z" fill="#F7DF8E"/>
<path d="M21.4326 29.2649L22.6024 29.4844L22.6424 29.1542L21.7131 28.6764L21.4326 29.2649Z" fill="#F7DF8E"/>
<path d="M40.3784 6.58645C40.4701 6.58284 40.5415 6.50556 40.5379 6.41383C40.5343 6.3221 40.457 6.25066 40.3653 6.25427C40.2736 6.25788 40.2021 6.33516 40.2058 6.42689C40.2094 6.51862 40.2866 6.59006 40.3784 6.58645Z" fill="#F7DF8E"/>
<path d="M42.0601 16.0067C42.1516 16.0031 42.229 16.0747 42.2325 16.1662C42.2361 16.2578 42.1645 16.3351 42.073 16.3387C41.9814 16.3422 41.9041 16.2707 41.9005 16.1791C41.897 16.0876 41.9681 16.0102 42.0601 16.0067Z" fill="#F7DF8E"/>
<path d="M47.0064 18.7365C47.1553 18.7307 47.2811 18.8467 47.2869 18.9956C47.2926 19.1445 47.1766 19.2702 47.0278 19.276C46.8789 19.2818 46.7531 19.1658 46.7473 19.0169C46.7411 18.868 46.8571 18.7422 47.0064 18.7365Z" fill="#F7DF8E"/>
<path d="M41.596 22.1982L42.396 21.3165L42.1355 21.1098L41.2422 21.6511L41.596 22.1982Z" fill="#F7DF8E"/>
<path d="M43.3535 12.9738L44.5153 13.2342L44.5668 12.9058L43.6548 12.3956L43.3535 12.9738Z" fill="#F7DF8E"/>
<path d="M42.47 27.1138L42.9531 27.9382L42.7145 28.0578L42.1016 27.4853L42.47 27.1138Z" fill="#F7DF8E"/>
<path d="M47.7771 44.3067C47.8686 44.3031 47.9402 44.2258 47.9366 44.1342C47.9331 44.0427 47.8557 43.9711 47.7642 43.9747C47.6726 43.9782 47.6011 44.0556 47.6046 44.1471C47.6082 44.2387 47.6855 44.3102 47.7771 44.3067Z" fill="#F7DF8E"/>
<path d="M9.48242 24.56L10.8322 24.8622L10.8922 24.4804L9.83264 23.888L9.48242 24.56Z" fill="#F7DF8E"/>
<path d="M18.6296 23.4338C18.7788 23.4338 18.8998 23.3128 18.8998 23.1636C18.8998 23.0143 18.7788 22.8933 18.6296 22.8933C18.4804 22.8933 18.3594 23.0143 18.3594 23.1636C18.3594 23.3128 18.4804 23.4338 18.6296 23.4338Z" fill="#F7DF8E"/>
<path d="M16.6374 27.8769C16.729 27.8733 16.8005 27.796 16.797 27.7045C16.7934 27.6129 16.7161 27.5413 16.6245 27.5449C16.533 27.5485 16.4614 27.6258 16.465 27.7173C16.4685 27.8089 16.5459 27.8805 16.6374 27.8769Z" fill="#F7DF8E"/>
<path d="M15.1847 19.8462L16.1624 19.1671L15.9553 18.9071L14.9629 19.2333L15.1847 19.8462Z" fill="#F7DF8E"/>
<path d="M14.1062 40.1391C14.1977 40.1356 14.2693 40.0582 14.2657 39.9667C14.2622 39.8751 14.1848 39.8036 14.0933 39.8071C14.0017 39.8107 13.9302 39.888 13.9337 39.9796C13.9373 40.0711 14.0146 40.1427 14.1062 40.1391Z" fill="#F7DF8E"/>
<path d="M1.38988 28.423C1.539 28.4171 1.65513 28.2915 1.64926 28.1424C1.6434 27.9932 1.51776 27.8771 1.36864 27.883C1.21952 27.8888 1.10339 28.0145 1.10925 28.1636C1.11512 28.3127 1.24076 28.4289 1.38988 28.423Z" fill="#F7DF8E"/>
<path d="M9.79883 40.224L10.9606 40.484L11.0117 40.1556L10.1002 39.6458L9.79883 40.224Z" fill="#F7DF8E"/>
<path d="M2.37179 33.8027C2.46335 33.7991 2.5349 33.7218 2.53135 33.6302C2.52779 33.5387 2.45046 33.4671 2.3589 33.4707C2.26735 33.4742 2.19579 33.5516 2.19935 33.6431C2.2029 33.7347 2.28023 33.8062 2.37179 33.8027Z" fill="#F7DF8E"/>
<path d="M0.124566 32.332L1.1019 31.6529L0.894788 31.3925L-0.0976562 31.7191L0.124566 32.332Z" fill="#F7DF8E"/>
<path d="M12.2246 29.4164L13.3864 29.6769L13.4379 29.3485L12.5259 28.8382L12.2246 29.4164Z" fill="#F7DF8E"/>
<path d="M5.81641 18.6938L6.62174 18.6751L6.70707 18.4764L6.11996 18.3138L5.81641 18.6938Z" fill="#F7DF8E"/>
<path d="M7.07668 2.76044C7.16823 2.75689 7.24556 2.82844 7.24912 2.92C7.25268 3.01155 7.18112 3.08889 7.08956 3.09244C6.99801 3.096 6.92068 3.02444 6.91712 2.93289C6.91356 2.84133 6.98468 2.764 7.07668 2.76044Z" fill="#F7DF8E"/>
<path d="M6.61354 8.952L7.41354 8.07022L7.1531 7.86356L6.25977 8.40489L6.61354 8.952Z" fill="#F7DF8E"/>
<path d="M7.48705 13.8676L7.96972 14.6924L7.73105 14.812L7.11816 14.2391L7.48705 13.8676Z" fill="#F7DF8E"/>
</g>
<path opacity="0.5" d="M34.7642 48.1364C41.2166 48.1364 46.4473 43.3819 46.4473 37.5169C46.4473 31.6519 41.2166 26.8973 34.7642 26.8973C28.3118 26.8973 23.0811 31.6519 23.0811 37.5169C23.0811 43.3819 28.3118 48.1364 34.7642 48.1364Z" fill="#FCF3DB"/>
<g opacity="0.44">
<path d="M14.4496 8.17599C14.3998 8.17599 14.3594 8.13955 14.3594 8.09421V4.41555C14.3594 4.37022 14.3998 4.33377 14.4496 4.33377C14.4994 4.33377 14.5398 4.37022 14.5398 4.41555V8.09421C14.5394 8.13955 14.4994 8.17599 14.4496 8.17599Z" fill="#F7DF8E"/>
<path d="M13.0186 7.63733C12.9955 7.63733 12.9724 7.62933 12.955 7.61333C12.9199 7.58133 12.9199 7.52933 12.955 7.49777L15.8168 4.89644C15.8519 4.86444 15.9088 4.86444 15.9444 4.89644C15.9795 4.92844 15.9795 4.98044 15.9444 5.01199L13.0826 7.61333C13.0648 7.62933 13.0417 7.63733 13.0186 7.63733Z" fill="#F7DF8E"/>
<path d="M16.4733 6.33688H12.4262C12.3764 6.33688 12.3359 6.30044 12.3359 6.2551C12.3359 6.20977 12.3764 6.17332 12.4262 6.17332H16.4733C16.523 6.17332 16.5635 6.20977 16.5635 6.2551C16.563 6.29999 16.523 6.33688 16.4733 6.33688Z" fill="#F7DF8E"/>
<path d="M15.8804 7.63733C15.8573 7.63733 15.8342 7.62933 15.8168 7.61333L12.955 5.01199C12.9199 4.97999 12.9199 4.92799 12.955 4.89644C12.9902 4.86444 13.047 4.86444 13.0826 4.89644L15.9444 7.49777C15.9795 7.52977 15.9795 7.58177 15.9444 7.61333C15.9266 7.62933 15.9035 7.63733 15.8804 7.63733Z" fill="#F7DF8E"/>
</g>
<g opacity="0.56">
<path d="M40.5392 46.664C40.4854 46.664 40.4414 46.6244 40.4414 46.5751V42.5898C40.4414 42.5409 40.485 42.5009 40.5392 42.5009C40.593 42.5009 40.637 42.5404 40.637 42.5898V46.5751C40.637 46.624 40.5934 46.664 40.5392 46.664Z" fill="#F7DF8E"/>
<path d="M38.9882 46.0804C38.9633 46.0804 38.9384 46.072 38.9193 46.0547C38.8811 46.02 38.8811 45.964 38.9193 45.9293L42.0197 43.1111C42.058 43.0764 42.1197 43.0764 42.1575 43.1111C42.1957 43.1458 42.1957 43.2018 42.1575 43.2364L39.0571 46.0547C39.0384 46.0715 39.0131 46.0804 38.9882 46.0804Z" fill="#F7DF8E"/>
<path d="M42.7312 44.6711H38.3468C38.293 44.6711 38.249 44.6316 38.249 44.5822C38.249 44.5333 38.2926 44.4933 38.3468 44.4933H42.7312C42.785 44.4933 42.829 44.5329 42.829 44.5822C42.8286 44.6316 42.785 44.6711 42.7312 44.6711Z" fill="#F7DF8E"/>
<path d="M42.0886 46.0804C42.0637 46.0804 42.0388 46.072 42.0197 46.0547L38.9193 43.2364C38.8811 43.2018 38.8811 43.1458 38.9193 43.1111C38.9575 43.0764 39.0193 43.0764 39.0571 43.1111L42.1575 45.9293C42.1957 45.964 42.1957 46.02 42.1575 46.0547C42.1388 46.0715 42.1135 46.0804 42.0886 46.0804Z" fill="#F7DF8E"/>
</g>
<g opacity="0.5">
<path d="M45.1884 21.3333C45.1636 21.3333 45.1436 21.3151 45.1436 21.2924V19.4533C45.1436 19.4307 45.1636 19.4124 45.1884 19.4124C45.2133 19.4124 45.2333 19.4307 45.2333 19.4533V21.2924C45.2333 21.3151 45.2133 21.3333 45.1884 21.3333Z" fill="#F7DF8E"/>
<path d="M44.4731 21.064C44.4615 21.064 44.45 21.06 44.4411 21.052C44.4233 21.036 44.4233 21.0102 44.4411 20.9942L45.8722 19.6938C45.89 19.6778 45.9184 19.6778 45.9357 19.6938C45.9531 19.7098 45.9535 19.7356 45.9357 19.7516L44.5046 21.052C44.4962 21.06 44.4846 21.064 44.4731 21.064Z" fill="#F7DF8E"/>
<path d="M46.2003 20.4138H44.1767C44.1518 20.4138 44.1318 20.3956 44.1318 20.3729C44.1318 20.3502 44.1518 20.332 44.1767 20.332H46.2003C46.2252 20.332 46.2452 20.3502 46.2452 20.3729C46.2456 20.3951 46.2252 20.4138 46.2003 20.4138Z" fill="#F7DF8E"/>
<path d="M45.9042 21.064C45.8926 21.064 45.8811 21.06 45.8722 21.052L44.4411 19.7516C44.4233 19.7356 44.4233 19.7098 44.4411 19.6938C44.4588 19.6778 44.4873 19.6778 44.5046 19.6938L45.9357 20.9942C45.9535 21.0102 45.9535 21.036 45.9357 21.052C45.9268 21.06 45.9157 21.064 45.9042 21.064Z" fill="#F7DF8E"/>
</g>
<path d="M4.57609 25.676C5.09057 25.676 5.50764 25.2589 5.50764 24.7444C5.50764 24.23 5.09057 23.8129 4.57609 23.8129C4.0616 23.8129 3.64453 24.23 3.64453 24.7444C3.64453 25.2589 4.0616 25.676 4.57609 25.676Z" fill="white"/>
<g opacity="0.5">
<path d="M31.7061 44.1627L31.591 43.9889L17.5999 43.512L15.8105 48.232L32.5585 48.2124L31.7061 44.1627Z" fill="#EC6E5C"/>
<path d="M31.7061 44.1627L31.591 43.9889L17.5999 43.512L15.8105 48.232L32.5585 48.2124L31.7061 44.1627Z" fill="#FBE8B5"/>
<path d="M38.418 31.2587C38.4118 31.0533 38.2878 30.8716 38.1167 30.7582C35.4389 28.9858 33.4212 25.0582 33.2176 21.7329C33.2123 21.5436 33.206 21.3516 33.1998 21.1578C33.1998 21.1569 33.1998 21.156 33.1998 21.1556C33.0452 16.4009 32.3447 10.6347 31.7163 9.09733C30.5554 6.25822 26.6234 5.99155 26.6234 5.99155C21.4038 5.61822 20.4714 9.62889 19.9447 13.2822C19.6172 15.5538 18.3545 23.6693 18.3545 23.6693L19.314 24.0404C20.4443 27.3898 22.9896 30.0982 26.2976 31.344C27.2598 31.7062 28.0745 31.852 28.4567 31.54C29.9763 33.0804 31.8785 34.2444 33.9496 34.8747C34.7927 35.1311 35.6763 35.3027 36.5536 35.2204C37.1234 35.1671 37.7243 34.9791 38.0638 34.5187C38.3563 34.1218 38.3967 33.5547 38.1629 33.1209C37.9292 32.6867 37.4336 32.4084 36.9412 32.4342C37.1389 31.7924 38.4403 31.9813 38.418 31.2587Z" fill="#EC6E5C"/>
<path d="M38.418 31.2587C38.4118 31.0533 38.2878 30.8716 38.1167 30.7582C35.4389 28.9858 33.4212 25.0582 33.2176 21.7329C33.2123 21.5436 33.206 21.3516 33.1998 21.1578C33.1998 21.1569 33.1998 21.156 33.1998 21.1556C33.0452 16.4009 32.3447 10.6347 31.7163 9.09733C30.5554 6.25822 26.6234 5.99155 26.6234 5.99155C21.4038 5.61822 20.4714 9.62889 19.9447 13.2822C19.6172 15.5538 18.3545 23.6693 18.3545 23.6693L19.314 24.0404C20.4443 27.3898 22.9896 30.0982 26.2976 31.344C27.2598 31.7062 28.0745 31.852 28.4567 31.54C29.9763 33.0804 31.8785 34.2444 33.9496 34.8747C34.7927 35.1311 35.6763 35.3027 36.5536 35.2204C37.1234 35.1671 37.7243 34.9791 38.0638 34.5187C38.3563 34.1218 38.3967 33.5547 38.1629 33.1209C37.9292 32.6867 37.4336 32.4084 36.9412 32.4342C37.1389 31.7924 38.4403 31.9813 38.418 31.2587Z" fill="#BDA472"/>
<path d="M27.318 7.468L26.9913 7.15689L23.4624 8.57911C22.9518 8.60756 22.5478 9.02178 22.5322 9.53289L22.5633 21.0311C22.5589 21.8107 22.7149 22.4862 23.186 23.1076L23.6816 23.7618C24.8118 25.2538 27.1362 25.1311 28.0309 23.4871C28.0936 23.3724 28.1367 23.2716 28.1558 23.1898C28.1749 23.0871 28.2024 23.02 28.2082 22.9324C28.3131 22.0076 28.3193 21.2053 28.3193 21.2053C28.3824 20.1898 28.4029 19.7729 28.4033 19.7822C28.4033 19.7822 30.5647 19.5338 31.1491 16.7591C31.4398 15.3791 31.3851 13.4809 31.3033 11.6129C31.19 9.02756 29.3962 7.46534 27.318 7.468Z" fill="#FBE8B5"/>
<path d="M26.5943 13.1622C26.5917 13.352 26.4286 13.5062 26.2303 13.5067C26.0326 13.5076 25.8739 13.3547 25.877 13.1649C25.8797 12.9751 26.0428 12.8209 26.2406 12.82C26.4383 12.8191 26.597 12.9724 26.5943 13.1622Z" fill="#BDA472"/>
<path d="M30.2422 13.2604C30.2396 13.4502 30.0764 13.6044 29.8782 13.6049C29.6804 13.6058 29.5218 13.4529 29.5244 13.2631C29.5271 13.0733 29.6902 12.9191 29.888 12.9182C30.0867 12.9173 30.2453 13.0707 30.2422 13.2604Z" fill="#BDA472"/>
<path d="M30.9336 12.352C30.8869 12.3964 30.6252 12.1818 30.2389 12.1636C29.8536 12.1396 29.5603 12.324 29.5207 12.2747C29.5012 12.2529 29.5509 12.1707 29.6785 12.0871C29.8043 12.004 30.0158 11.9271 30.2563 11.9404C30.4967 11.9538 30.6945 12.0524 30.8061 12.1489C30.9203 12.2458 30.9563 12.332 30.9336 12.352Z" fill="#BDA472"/>
<path d="M27.0164 12.392C26.9653 12.4316 26.7267 12.1911 26.3449 12.1333C25.964 12.0698 25.6533 12.2231 25.6191 12.1702C25.6022 12.1462 25.6591 12.0698 25.7955 11.9996C25.9293 11.9293 26.1475 11.8751 26.3853 11.9129C26.6231 11.9511 26.8098 12.0693 26.9111 12.1769C27.0138 12.2849 27.0409 12.3747 27.0164 12.392Z" fill="#BDA472"/>
<path d="M28.3649 15.2018C28.364 15.1796 28.6062 15.1502 28.9973 15.12C29.0964 15.1147 29.1907 15.1 29.2107 15.0333C29.2373 14.9631 29.2018 14.8551 29.1595 14.7378C29.0787 14.4947 28.9942 14.2396 28.9058 13.9724C28.5547 12.8836 28.3058 11.9902 28.3498 11.9764C28.3938 11.9627 28.7142 12.8342 29.0653 13.9227C29.1493 14.1911 29.2302 14.4467 29.3067 14.6916C29.3382 14.8053 29.396 14.9356 29.3382 15.0809C29.308 15.1533 29.2329 15.2031 29.1689 15.2169C29.1049 15.2329 29.0493 15.2311 29.0004 15.2316C28.608 15.2342 28.3649 15.2236 28.3649 15.2018Z" fill="#BDA472"/>
<path d="M28.4026 19.7822C28.4026 19.7822 26.515 19.8093 24.707 18.5956C24.707 18.5956 25.5519 20.5787 28.3639 20.4573L28.4026 19.7822Z" fill="#FBE8B5"/>
<path d="M27.3195 10.9973C27.2435 11.0791 26.9075 10.8835 26.4684 10.7578C26.0319 10.6231 25.6435 10.6031 25.6244 10.4929C25.6173 10.4409 25.7142 10.3747 25.8902 10.3382C26.0648 10.3018 26.3177 10.3035 26.5799 10.3813C26.8422 10.4595 27.0551 10.5964 27.1813 10.7227C27.3088 10.8489 27.3542 10.9578 27.3195 10.9973Z" fill="#BDA472"/>
<path d="M30.6809 11.4316C30.62 11.5245 30.3476 11.4547 30.028 11.4756C29.708 11.4853 29.4431 11.5813 29.3738 11.4947C29.3431 11.4525 29.3787 11.3613 29.4903 11.2693C29.6 11.1778 29.7894 11.0947 30.0094 11.084C30.2294 11.0738 30.4254 11.1378 30.5436 11.2187C30.6631 11.2991 30.7071 11.3867 30.6809 11.4316Z" fill="#BDA472"/>
<path d="M22.603 14.44C22.603 14.44 24.5798 15.0551 25.6985 10.1764C26.0812 8.508 27.6274 7.15733 27.6274 7.15733L27.0003 6.96844C27.0003 6.96844 23.1021 8.06667 23.0363 8.116C22.971 8.16533 22.0527 10.132 22.0527 10.132L22.603 14.44Z" fill="#EC6E5C"/>
<path d="M23.0896 14.2582C23.0994 14.0498 22.8834 13.5467 22.6794 13.5044C22.1345 13.3911 21.1421 13.3858 21.0629 14.7804C20.9549 16.6867 22.8909 16.4022 22.8976 16.3476C22.9025 16.3044 23.0554 14.9773 23.0896 14.2582Z" fill="#FBE8B5"/>
<path d="M22.3559 15.592C22.3479 15.5853 22.3212 15.6133 22.2639 15.636C22.2079 15.6578 22.1128 15.6698 22.0154 15.6271C21.8181 15.5418 21.667 15.2124 21.6772 14.8684C21.6821 14.6947 21.7279 14.5316 21.7972 14.3982C21.8634 14.2622 21.959 14.1698 22.0617 14.1578C22.1639 14.14 22.2323 14.2049 22.2523 14.26C22.275 14.3147 22.2608 14.3524 22.2706 14.356C22.2754 14.3613 22.3132 14.3267 22.3026 14.2471C22.2968 14.2089 22.2772 14.1627 22.2341 14.1231C22.1906 14.0836 22.1243 14.0604 22.0532 14.064C21.9057 14.0658 21.7657 14.1938 21.6897 14.34C21.6057 14.4867 21.5501 14.6698 21.5443 14.8649C21.5346 15.2498 21.711 15.6204 21.9821 15.7156C22.1141 15.7582 22.2283 15.724 22.2888 15.6822C22.3501 15.6378 22.3626 15.596 22.3559 15.592Z" fill="#EDD8A5"/>
<path d="M22.603 14.44C22.603 14.44 24.5798 15.0551 25.6985 10.1764C26.0812 8.508 27.6274 7.15733 27.6274 7.15733L27.0003 6.96844C27.0003 6.96844 23.1021 8.06667 23.0363 8.116C22.971 8.16533 22.0527 10.132 22.0527 10.132L22.603 14.44Z" fill="#BDA472"/>
<path d="M27.2166 15.412C27.2797 15.4116 27.2592 15.8302 27.6032 16.1458C27.9463 16.4622 28.3952 16.4373 28.3957 16.496C28.4001 16.5227 28.2921 16.5724 28.1032 16.568C27.9179 16.5649 27.6508 16.492 27.4406 16.2991C27.2308 16.1058 27.149 15.8578 27.1432 15.6853C27.1361 15.5093 27.1881 15.408 27.2166 15.412Z" fill="#EC6E5C"/>
<path d="M27.2166 15.412C27.2797 15.4116 27.2592 15.8302 27.6032 16.1458C27.9463 16.4622 28.3952 16.4373 28.3957 16.496C28.4001 16.5227 28.2921 16.5724 28.1032 16.568C27.9179 16.5649 27.6508 16.492 27.4406 16.2991C27.2308 16.1058 27.149 15.8578 27.1432 15.6853C27.1361 15.5093 27.1881 15.408 27.2166 15.412Z" fill="#BDA472"/>
<path d="M42.1899 15.5347C42.1899 15.5347 44.7383 20.6618 45.1707 21.7387C45.5454 22.6715 47.6156 27.0404 46.9756 28.2524C46.3356 29.4644 45.7667 29.4013 44.8747 29.4502C43.9827 29.4991 38.1792 29.26 36.6747 29.1973C34.7596 29.1173 32.6543 28.5742 32.6543 28.5742L33.6419 23.3218L41.3139 24.7489L40.0174 16.4133L42.1899 15.5347Z" fill="#FBE8B5"/>
<path d="M42.2052 15.5729C42.2052 15.5729 41.7629 14.788 41.4892 14.6C41.2154 14.412 38.9918 12.4618 38.9918 12.4618C38.9918 12.4618 38.1194 11.5382 37.8798 11.5893C37.6403 11.6404 35.3652 13.1631 35.3483 13.4027C35.3314 13.6422 35.4509 13.7791 35.5878 13.8133C35.7247 13.8475 35.5194 14.0013 35.8785 14.3609C35.8785 14.3609 35.5363 14.3435 35.5536 14.6689C35.5709 14.9938 35.5536 15.4387 35.7758 15.456C35.9981 15.4729 36.6994 15.6782 36.7336 15.3022L36.8021 15.1484C36.8021 15.1484 37.4007 15.576 37.9483 15.7987C38.4958 16.0209 39.3683 16.004 39.3683 16.004C39.3683 16.004 39.6078 16.3631 40.0185 16.4147C40.4283 16.4644 42.2052 15.5729 42.2052 15.5729Z" fill="#FBE8B5"/>
<path d="M38.7947 14.168C38.7876 14.1622 38.712 14.2489 38.6756 14.4253C38.6374 14.5991 38.6582 14.8564 38.7778 15.1013C38.8978 15.3449 39.0654 15.5235 39.1876 15.6444C39.3116 15.7649 39.3956 15.8307 39.404 15.8227C39.4129 15.8138 39.3445 15.7315 39.2334 15.6018C39.1236 15.4715 38.9698 15.2915 38.8574 15.0627C38.7458 14.8342 38.7174 14.5991 38.7374 14.4351C38.7556 14.2693 38.8085 14.1747 38.7947 14.168Z" fill="#EDD8A5"/>
<path d="M37.7479 14.62C37.7435 14.6231 37.7462 14.6387 37.7666 14.6569C37.7866 14.6747 37.8262 14.6889 37.8719 14.6862C37.9648 14.6813 38.0782 14.6213 38.1617 14.5155C38.2453 14.4098 38.2715 14.2849 38.2675 14.1995C38.2626 14.1124 38.2346 14.0653 38.2244 14.0684C38.2115 14.0715 38.2164 14.1218 38.2053 14.1964C38.1933 14.2707 38.1622 14.372 38.0919 14.4613C38.0235 14.5493 37.9306 14.608 37.8635 14.6244C37.7942 14.644 37.7577 14.6124 37.7479 14.62Z" fill="#EDD8A5"/>
<path d="M38.6005 12.4431C38.6045 12.4409 38.5196 12.4018 38.3827 12.4604C38.3161 12.4889 38.2432 12.5444 38.1792 12.6235C38.1138 12.7022 38.057 12.8009 37.9885 12.9035C37.8516 13.1107 37.6801 13.3516 37.4716 13.6044C37.3676 13.7311 37.2543 13.8604 37.1325 13.9907C37.0721 14.0564 37.0036 14.1267 36.9636 14.224C36.9205 14.3222 36.941 14.4453 36.9965 14.532C37.0503 14.6213 37.1236 14.6884 37.1916 14.7511C37.2605 14.8142 37.3303 14.8742 37.4005 14.9311C37.5432 15.044 37.6778 15.1498 37.8285 15.2347C37.9041 15.2751 37.9898 15.3044 38.077 15.3031C38.1641 15.3018 38.2436 15.272 38.3103 15.2333C38.4418 15.1533 38.545 15.0529 38.6098 14.9364C38.6747 14.8204 38.6796 14.6862 38.6365 14.5884C38.5965 14.4867 38.5032 14.4324 38.4303 14.4258C38.3556 14.4169 38.2983 14.44 38.2685 14.464C38.2378 14.488 38.2298 14.5071 38.2316 14.5084C38.2343 14.5178 38.2898 14.436 38.425 14.46C38.489 14.4716 38.5605 14.5191 38.5912 14.6071C38.6232 14.6929 38.6161 14.8058 38.5556 14.9062C38.4965 15.0062 38.3947 15.1009 38.2747 15.1693C38.2143 15.2022 38.1463 15.2253 38.0765 15.2253C38.0067 15.2249 37.9352 15.2009 37.8667 15.1631C37.7307 15.0844 37.5925 14.9751 37.4552 14.8644C37.3863 14.808 37.3183 14.7484 37.2507 14.6867C37.1832 14.6244 37.1165 14.5618 37.0721 14.4871C37.0267 14.4133 37.0138 14.3311 37.045 14.2564C37.0747 14.1809 37.1352 14.1151 37.1952 14.0498C37.3174 13.9173 37.4307 13.7853 37.5343 13.656C37.7414 13.3973 37.9094 13.1502 38.0405 12.9373C38.1067 12.8307 38.1596 12.7311 38.2174 12.6542C38.2743 12.5764 38.3378 12.5227 38.3974 12.4911C38.5187 12.428 38.601 12.452 38.6005 12.4431Z" fill="#EDD8A5"/>
<path d="M38.1981 14.0778C38.1883 14.0831 38.1967 14.124 38.2358 14.1769C38.2741 14.2298 38.3461 14.2907 38.4412 14.3253C38.5363 14.3595 38.6305 14.3595 38.6936 14.3435C38.7576 14.328 38.7901 14.3022 38.7861 14.2915C38.7781 14.2675 38.6332 14.3044 38.4709 14.2427C38.3069 14.1858 38.2198 14.0649 38.1981 14.0778Z" fill="#EDD8A5"/>
<path d="M37.7058 12.1351C37.7009 12.1311 37.6546 12.1795 37.5751 12.2702C37.4955 12.3609 37.3822 12.4938 37.244 12.6591C37.1022 12.8307 36.94 13.0275 36.7618 13.2431C36.6711 13.3542 36.5769 13.4702 36.4795 13.5898C36.3835 13.7102 36.2742 13.8324 36.1929 13.9844C36.1107 14.1311 36.0724 14.328 36.1569 14.484C36.2369 14.6373 36.3706 14.7267 36.4809 14.8133C36.7102 14.984 36.9035 15.1484 37.0933 15.2653C37.1893 15.3209 37.2884 15.3551 37.38 15.3578C37.4706 15.3604 37.5475 15.3369 37.6022 15.3053C37.7142 15.2387 37.7271 15.1578 37.7235 15.1595C37.716 15.1538 37.6915 15.2244 37.5862 15.2747C37.5346 15.2991 37.4635 15.3151 37.3826 15.3084C37.3026 15.3018 37.2133 15.2671 37.1253 15.2115C36.9515 15.096 36.756 14.9222 36.5306 14.7493C36.42 14.6609 36.2978 14.572 36.2342 14.4453C36.168 14.3195 36.196 14.1627 36.2711 14.0258C36.3453 13.8867 36.4506 13.7662 36.5471 13.644C36.6431 13.5231 36.7364 13.4062 36.8253 13.2938C36.9978 13.0738 37.1551 12.8729 37.2924 12.6978C37.4244 12.5271 37.5302 12.3884 37.6018 12.2911C37.6733 12.1942 37.7106 12.1387 37.7058 12.1351Z" fill="#EDD8A5"/>
<path d="M36.964 12.3107C36.9418 12.2955 36.6626 12.7267 36.1929 13.1409C36.076 13.2453 35.9613 13.3475 35.8733 13.4578C35.784 13.5667 35.7249 13.6849 35.6986 13.7889C35.6431 14.0027 35.7151 14.1342 35.7217 14.1271C35.7369 14.1244 35.692 13.9964 35.7582 13.8067C35.7902 13.7129 35.8489 13.6093 35.936 13.5093C36.0217 13.4084 36.1337 13.3115 36.252 13.2062C36.4897 12.9951 36.676 12.772 36.796 12.6022C36.916 12.4324 36.9733 12.3164 36.964 12.3107Z" fill="#EDD8A5"/>
<path d="M35.8887 14.7489C35.8887 14.78 36.1398 14.7498 36.4105 14.8409C36.5438 14.8889 36.6469 14.9698 36.7069 15.04C36.7682 15.1102 36.7918 15.1667 36.8047 15.1622C36.8149 15.16 36.8122 15.0929 36.7571 15.0031C36.7033 14.9138 36.5909 14.812 36.4402 14.7578C36.2905 14.704 36.1465 14.7027 36.0473 14.7107C35.9473 14.7195 35.8878 14.7373 35.8887 14.7489Z" fill="#EDD8A5"/>
<path opacity="0.3" d="M41.3346 24.6964C41.3244 24.7009 41.3635 24.8155 41.4524 24.9889C41.5413 25.1622 41.6848 25.392 41.8755 25.6213C42.067 25.8498 42.2679 26.032 42.4226 26.1502C42.5773 26.2689 42.683 26.3271 42.6893 26.3182C42.7057 26.296 42.3164 26.0155 41.943 25.5649C41.5662 25.1169 41.359 24.684 41.3346 24.6964Z" fill="#EDD8A5"/>
<path d="M35.6895 29.1209L36.5588 23.8644L37.1535 23.9747L36.4681 29.1871L35.6895 29.1209Z" fill="#FBE8B5"/>
<path d="M6.59909 13.4884C6.59909 13.4884 4.05064 18.6156 3.6182 19.6924C3.24353 20.6253 1.17331 24.9942 1.81331 26.2062C2.45331 27.4182 3.0222 27.3551 3.9142 27.404C4.8062 27.4529 10.6098 27.2138 12.1142 27.1511C14.0293 27.0711 16.1346 26.528 16.1346 26.528L15.1471 21.2756L7.47509 22.7022L8.77153 14.3667L6.59909 13.4884Z" fill="#FBE8B5"/>
<path d="M6.58398 13.5262C6.58398 13.5262 7.02621 12.7413 7.29998 12.5533C7.57376 12.3653 9.79732 10.4151 9.79732 10.4151C9.79732 10.4151 10.6698 9.49155 10.9093 9.54266C11.1489 9.59378 13.424 11.1164 13.4409 11.356C13.4578 11.5956 13.3382 11.7324 13.2013 11.7667C13.0644 11.8009 13.2698 11.9547 12.9107 12.3142C12.9107 12.3142 13.1515 12.3076 13.2355 12.6222C13.316 12.9236 13.3315 13.2298 13.0133 13.4093C12.772 13.5453 12.1951 13.6822 11.9933 13.116L11.9871 13.1018C11.9871 13.1018 11.3884 13.5293 10.8409 13.752C10.2933 13.9742 9.42087 13.9573 9.42087 13.9573C9.42087 13.9573 9.18132 14.3164 8.77065 14.368C8.35998 14.4196 6.58398 13.5262 6.58398 13.5262Z" fill="#FBE8B5"/>
<path d="M9.99443 12.1213C10.0015 12.1156 10.0771 12.2022 10.114 12.3787C10.1522 12.5524 10.1313 12.8098 10.0118 13.0547C9.89176 13.2982 9.72421 13.4769 9.60198 13.5978C9.47798 13.7182 9.39398 13.784 9.38554 13.776C9.37665 13.7671 9.44509 13.6849 9.55621 13.5551C9.66598 13.4249 9.81976 13.2449 9.93221 13.016C10.0438 12.7876 10.0722 12.5524 10.0522 12.3884C10.034 12.2227 9.98109 12.1284 9.99443 12.1213Z" fill="#EDD8A5"/>
<path d="M11.0414 12.5733C11.0459 12.5764 11.0432 12.592 11.0228 12.6102C11.0028 12.628 10.9632 12.6422 10.9174 12.6396C10.8245 12.6347 10.7112 12.5747 10.6277 12.4689C10.5441 12.3631 10.5179 12.2382 10.5219 12.1529C10.5268 12.0658 10.5548 12.0187 10.565 12.0218C10.5779 12.0249 10.573 12.0751 10.5841 12.1498C10.5961 12.224 10.6272 12.3253 10.6974 12.4147C10.7659 12.5027 10.8588 12.5613 10.9259 12.5778C10.9952 12.5973 11.0317 12.5662 11.0414 12.5733Z" fill="#EDD8A5"/>
<path d="M10.1881 10.3969C10.1841 10.3947 10.2689 10.3556 10.4058 10.4142C10.4725 10.4427 10.5454 10.4982 10.6094 10.5773C10.6747 10.656 10.7316 10.7547 10.8001 10.8573C10.9369 11.0644 11.1085 11.3053 11.3169 11.5582C11.4209 11.6849 11.5343 11.8142 11.6561 11.9444C11.7165 12.0102 11.7849 12.0804 11.8249 12.1778C11.8681 12.276 11.8476 12.3991 11.7921 12.4858C11.7383 12.5751 11.6649 12.6422 11.5969 12.7049C11.5281 12.768 11.4583 12.828 11.3881 12.8849C11.2454 12.9978 11.1107 13.1036 10.9601 13.1884C10.8845 13.2289 10.7987 13.2582 10.7116 13.2569C10.6245 13.2556 10.5449 13.2258 10.4783 13.1871C10.3467 13.1071 10.2436 13.0067 10.1787 12.8902C10.1138 12.7742 10.1089 12.64 10.1521 12.5422C10.1921 12.4404 10.2854 12.3862 10.3583 12.3796C10.4329 12.3707 10.4903 12.3938 10.5201 12.4178C10.5507 12.4418 10.5587 12.4609 10.5569 12.4622C10.5543 12.4716 10.4987 12.3898 10.3636 12.4138C10.2996 12.4253 10.2281 12.4729 10.1974 12.5609C10.1654 12.6467 10.1725 12.7596 10.2329 12.86C10.2921 12.96 10.3938 13.0547 10.5138 13.1231C10.5743 13.156 10.6423 13.1791 10.7121 13.1791C10.7818 13.1787 10.8534 13.1547 10.9218 13.1169C11.0578 13.0382 11.1961 12.9289 11.3334 12.8182C11.4023 12.7618 11.4703 12.7022 11.5378 12.6404C11.6054 12.5782 11.6721 12.5156 11.7165 12.4409C11.7618 12.3671 11.7747 12.2849 11.7436 12.2102C11.7138 12.1347 11.6534 12.0689 11.5934 12.0036C11.4712 11.8711 11.3578 11.7391 11.2543 11.6098C11.0472 11.3511 10.8792 11.104 10.7481 10.8911C10.6818 10.7844 10.6289 10.6849 10.5712 10.608C10.5143 10.5302 10.4507 10.4764 10.3912 10.4449C10.2698 10.3813 10.1876 10.4058 10.1881 10.3969Z" fill="#EDD8A5"/>
<path d="M10.5903 12.0315C10.6001 12.0369 10.5916 12.0778 10.5525 12.1307C10.5143 12.1835 10.4423 12.2444 10.3472 12.2791C10.2521 12.3133 10.1578 12.3133 10.0947 12.2973C10.0307 12.2818 9.99828 12.256 10.0023 12.2453C10.0103 12.2213 10.1552 12.2582 10.3174 12.1964C10.4814 12.1395 10.5689 12.0182 10.5903 12.0315Z" fill="#EDD8A5"/>
<path d="M11.0837 10.0884C11.0886 10.0844 11.1348 10.1329 11.2144 10.2236C11.2939 10.3142 11.4073 10.4471 11.5455 10.6124C11.6873 10.784 11.8495 10.9809 12.0277 11.1964C12.1184 11.3076 12.2126 11.4236 12.3099 11.5431C12.4059 11.6636 12.5153 11.7858 12.5966 11.9378C12.6788 12.0844 12.717 12.2813 12.6326 12.4373C12.5526 12.5907 12.4188 12.68 12.3086 12.7667C12.0793 12.9373 11.8859 13.1018 11.6962 13.2187C11.6002 13.2742 11.501 13.3084 11.4095 13.3111C11.3188 13.3138 11.2419 13.2902 11.1873 13.2587C11.0753 13.192 11.0624 13.1111 11.0659 13.1129C11.0735 13.1071 11.0979 13.1778 11.2033 13.228C11.2548 13.2524 11.3259 13.2684 11.4068 13.2618C11.4868 13.2551 11.5762 13.2204 11.6642 13.1649C11.8379 13.0493 12.0335 12.8756 12.2588 12.7027C12.3695 12.6142 12.4917 12.5253 12.5553 12.3987C12.6215 12.2729 12.5935 12.116 12.5184 11.9791C12.4442 11.84 12.3388 11.7196 12.2424 11.5973C12.1464 11.4764 12.053 11.3596 11.9642 11.2471C11.7917 11.0271 11.6344 10.8262 11.497 10.6511C11.365 10.4804 11.2593 10.3418 11.1877 10.2444C11.1162 10.148 11.0788 10.0924 11.0837 10.0884Z" fill="#EDD8A5"/>
<path d="M11.8253 10.264C11.8475 10.2489 12.1266 10.68 12.5964 11.0942C12.7133 11.1987 12.8279 11.3009 12.9159 11.4111C13.0053 11.52 13.0644 11.6382 13.0906 11.7422C13.1462 11.956 13.0742 12.0876 13.0675 12.0804C13.0524 12.0778 13.0973 11.9498 13.0311 11.76C12.9991 11.6662 12.9404 11.5627 12.8533 11.4627C12.7675 11.3618 12.6555 11.2649 12.5373 11.1596C12.2995 10.948 12.1133 10.7253 11.9933 10.5556C11.8733 10.3858 11.8155 10.2702 11.8253 10.264Z" fill="#EDD8A5"/>
<path d="M12.95 12.7373C12.95 12.7684 12.6989 12.7382 12.4282 12.8293C12.2949 12.8773 12.1918 12.9582 12.1318 13.0284C12.0704 13.0987 12.0469 13.1551 12.034 13.1507C12.0238 13.1484 12.0264 13.0813 12.0815 12.9915C12.1353 12.9022 12.2478 12.8004 12.3984 12.7462C12.5482 12.6924 12.6922 12.6911 12.7913 12.6991C12.8913 12.708 12.9509 12.7258 12.95 12.7373Z" fill="#EDD8A5"/>
<path opacity="0.3" d="M7.45522 22.6498C7.46545 22.6542 7.42633 22.7689 7.33745 22.9422C7.24856 23.1156 7.105 23.3453 6.91434 23.5747C6.72278 23.8031 6.52189 23.9853 6.36722 24.1036C6.21256 24.2222 6.10678 24.2804 6.10011 24.2716C6.08367 24.2493 6.473 23.9689 6.84633 23.5182C7.22322 23.0702 7.43078 22.6373 7.45522 22.6498Z" fill="#EDD8A5"/>
<path opacity="0.2" d="M13.6928 27.012L12.6999 21.7302L12.1328 21.836L12.811 27.1036L13.6928 27.012Z" fill="#040000"/>
<path d="M17.3779 40.3938C17.3779 40.3938 16.1312 31.9227 16.1339 30.6964C16.1352 30.212 15.8761 27.0316 15.8761 27.0316L13.7276 27.2249L12.6396 21.4356C12.6396 21.4356 16.909 20.6698 18.0565 20.6089C19.2005 20.5484 23.0663 21.14 23.0663 21.14L29.9361 22.2244C29.9361 22.2244 31.8388 22.5289 31.8192 22.5102L36.5792 23.7418L35.6832 29.1591L32.849 29.0493L32.8668 32.4756C32.8299 32.7347 33.0516 34.0302 31.349 36.1036L31.0623 39.712L32.3397 46.2769H16.5663L17.3779 40.3938Z" fill="#E0CB99"/>
<g opacity="0.3">
<path d="M28.3267 21.9702C28.3414 21.9787 28.3036 22.0769 28.1907 22.2244C28.0778 22.3711 27.888 22.5671 27.608 22.7493C27.3294 22.932 26.9587 23.0978 26.5254 23.1836C26.4165 23.2004 26.3054 23.2236 26.1911 23.236C26.0765 23.244 25.9591 23.2573 25.8396 23.2609C25.72 23.26 25.5987 23.2609 25.4751 23.2573C25.352 23.2449 25.2267 23.232 25.1 23.2191C24.5951 23.1453 24.1289 22.9684 23.756 22.7289C23.3809 22.4907 23.1005 22.1996 22.9036 21.9333C22.7058 21.6662 22.588 21.4236 22.5218 21.252C22.4556 21.0796 22.4409 20.9769 22.4574 20.972C22.4738 20.9667 22.5191 21.056 22.6094 21.2102C22.7 21.364 22.8369 21.5836 23.0418 21.8236C23.2462 22.0631 23.5222 22.3218 23.8769 22.5329C24.2302 22.7453 24.6627 22.9022 25.136 22.9716C25.6089 23.0413 26.0751 23.0258 26.4822 22.9573C26.8916 22.8889 27.2431 22.7511 27.5169 22.5978C27.7916 22.4449 27.9889 22.28 28.1187 22.1591C28.2485 22.0382 28.312 21.9613 28.3267 21.9702Z" fill="#FBE8B5"/>
</g>
<g opacity="0.3">
<path d="M28.3245 30.9969C28.3511 30.9889 28.4832 31.3187 28.512 31.8862C28.5267 32.1689 28.5089 32.5089 28.4343 32.8778C28.3605 33.2467 28.2249 33.6427 28.0187 34.0267C27.8089 34.4093 27.5503 34.7387 27.2814 35.0013C27.0125 35.2649 26.7369 35.4649 26.492 35.6067C26.0005 35.8916 25.652 35.9604 25.644 35.9338C25.6294 35.896 25.9498 35.7684 26.3969 35.4578C26.8423 35.1516 27.4054 34.6316 27.7991 33.9071C28.192 33.1831 28.3214 32.4276 28.3356 31.8871C28.3525 31.3436 28.2845 31.0049 28.3245 30.9969Z" fill="#FBE8B5"/>
</g>
</g>
<path d="M7.56471 38.7778C7.57004 38.6004 7.6767 38.444 7.8247 38.3458C10.1354 36.8164 11.8772 33.4267 12.0527 30.5569C12.0576 30.3933 12.0625 30.2276 12.0678 30.0604C12.0678 30.0596 12.0678 30.0591 12.0678 30.0582C12.2016 25.9551 12.8056 20.9787 13.3483 19.6524C14.35 17.2022 17.7434 16.9724 17.7434 16.9724C22.2478 16.6502 23.0523 20.1116 23.5074 23.264C23.79 25.2244 24.8798 32.228 24.8798 32.228L24.0518 32.5484C23.0763 35.4387 20.8798 37.7764 18.0251 38.8516C17.1949 39.1644 16.4918 39.2898 16.1616 39.0209C14.85 40.3502 13.2087 41.3551 11.4216 41.8987C10.694 42.12 9.93137 42.268 9.17448 42.1969C8.68293 42.1507 8.16426 41.9884 7.87137 41.5911C7.61893 41.2489 7.58426 40.7591 7.78604 40.3849C7.98782 40.0102 8.41537 39.7698 8.84026 39.7924C8.66871 39.2382 7.54515 39.4013 7.56471 38.7778Z" fill="#382B22"/>
<path d="M17.1434 18.2467L17.4252 17.9782L20.4705 19.2058C20.911 19.2302 21.2598 19.5876 21.2732 20.0289L21.2465 29.9516C21.2505 30.6244 21.1154 31.2071 20.7092 31.7436L20.2816 32.3084C19.3065 33.596 17.3003 33.4902 16.5283 32.0716C16.4745 31.9724 16.4367 31.8853 16.4207 31.8151C16.4043 31.7267 16.3803 31.6684 16.3754 31.5933C16.2847 30.7951 16.2794 30.1027 16.2794 30.1027C16.2252 29.2262 16.2074 28.8667 16.207 28.8747C16.207 28.8747 14.3416 28.6604 13.8376 26.2658C13.587 25.0751 13.6341 23.4369 13.7047 21.8244C13.8021 19.5924 15.3496 18.2444 17.1434 18.2467Z" fill="#F4D5C9"/>
<path d="M17.7686 23.1604C17.7708 23.3244 17.9117 23.4573 18.0828 23.4578C18.2535 23.4582 18.3904 23.3267 18.3877 23.1627C18.385 22.9991 18.2446 22.8658 18.0739 22.8653C17.9028 22.8644 17.7659 22.9969 17.7686 23.1604Z" fill="#382B22"/>
<path d="M14.6201 23.2453C14.6224 23.4093 14.7633 23.5422 14.9344 23.5427C15.105 23.5431 15.2419 23.4116 15.2397 23.2476C15.237 23.084 15.0966 22.9507 14.9259 22.9502C14.7544 22.9493 14.6179 23.0813 14.6201 23.2453Z" fill="#382B22"/>
<path d="M14.0231 22.4613C14.0636 22.5 14.2893 22.3147 14.6227 22.2987C14.9551 22.2782 15.2085 22.4373 15.2422 22.3947C15.2591 22.3756 15.2165 22.3049 15.1062 22.2324C14.9978 22.1604 14.8151 22.0947 14.6076 22.1058C14.4 22.1173 14.2293 22.2027 14.1329 22.2858C14.0347 22.3693 14.0036 22.444 14.0231 22.4613Z" fill="#382B22"/>
<path d="M17.4039 22.496C17.4483 22.5302 17.6541 22.3227 17.9834 22.2725C18.3119 22.2178 18.5803 22.3502 18.6097 22.304C18.6243 22.2836 18.575 22.2173 18.4577 22.1569C18.3421 22.0965 18.1541 22.0493 17.9488 22.0818C17.7434 22.1147 17.5826 22.2169 17.495 22.3093C17.4057 22.4031 17.3826 22.4809 17.4039 22.496Z" fill="#382B22"/>
<path d="M16.2401 24.9204C16.2406 24.9013 16.0321 24.876 15.6943 24.8498C15.609 24.8453 15.5277 24.8324 15.5103 24.7751C15.4872 24.7147 15.5183 24.6213 15.5543 24.52C15.6241 24.3102 15.697 24.0902 15.7735 23.8596C16.0766 22.92 16.2912 22.1489 16.2535 22.1373C16.2157 22.1253 15.9388 22.8773 15.6361 23.8169C15.5637 24.0484 15.4939 24.2693 15.4277 24.4804C15.4001 24.5787 15.3503 24.6911 15.4001 24.8164C15.4263 24.8787 15.4908 24.9218 15.5463 24.9338C15.6019 24.9476 15.6495 24.9462 15.6917 24.9467C16.0303 24.9484 16.2401 24.9396 16.2401 24.9204Z" fill="#382B22"/>
<path d="M16.207 28.8738C16.207 28.8738 17.8359 28.8969 19.3964 27.8493C19.3964 27.8493 18.6675 29.5609 16.2404 29.456L16.207 28.8738Z" fill="#E1BCB1"/>
<path d="M17.2319 25.1018C17.1776 25.1013 17.195 25.4627 16.8985 25.7351C16.6025 26.008 16.215 25.9867 16.215 26.0373C16.211 26.0604 16.3043 26.1031 16.467 26.0996C16.627 26.0969 16.8572 26.0342 17.0385 25.8676C17.2194 25.7009 17.2901 25.4867 17.295 25.3378C17.3012 25.1862 17.2563 25.0987 17.2319 25.1018Z" fill="#382B22"/>
<path d="M17.0849 21.1973C17.1312 21.2818 17.4538 21.1889 17.8476 21.1764C18.2414 21.156 18.5707 21.2213 18.6094 21.1329C18.6263 21.0911 18.5592 21.0151 18.4196 20.9476C18.2814 20.88 18.0694 20.8284 17.8329 20.8382C17.5969 20.8484 17.3898 20.9178 17.2578 20.9969C17.1254 21.0756 17.0645 21.1569 17.0849 21.1973Z" fill="#382B22"/>
<path d="M14.0716 21.0302C14.1339 21.1031 14.3596 21.0129 14.6352 20.9956C14.9103 20.9684 15.1472 21.0209 15.197 20.9391C15.2187 20.8996 15.1779 20.8258 15.0725 20.7591C14.9685 20.6929 14.797 20.6431 14.6076 20.6582C14.4183 20.6738 14.2574 20.7507 14.1654 20.8329C14.0721 20.9151 14.0441 20.9947 14.0716 21.0302Z" fill="#382B22"/>
<path d="M21.2134 24.2631C21.2134 24.2631 19.5076 24.7942 18.5418 20.5836C18.2116 19.144 16.877 17.9778 16.877 17.9778L17.4183 17.8151C17.4183 17.8151 20.7823 18.7627 20.8392 18.8053C20.8956 18.8476 21.6881 20.5453 21.6881 20.5453L21.2134 24.2631Z" fill="#382B22"/>
<path d="M20.7923 24.1062C20.7838 23.9267 20.97 23.4925 21.1465 23.4556C21.6167 23.3578 22.4732 23.3533 22.5416 24.5565C22.6349 26.2013 20.9643 25.956 20.9585 25.9089C20.9536 25.8725 20.8216 24.7271 20.7923 24.1062Z" fill="#F4D5C9"/>
<path d="M21.426 25.2573C21.4331 25.2516 21.4558 25.2756 21.5056 25.2951C21.554 25.3142 21.6363 25.3244 21.7203 25.2876C21.8905 25.2138 22.0211 24.9298 22.0123 24.6329C22.0078 24.4827 21.9687 24.3422 21.9087 24.2271C21.8518 24.1098 21.7691 24.0298 21.6807 24.0196C21.5927 24.0044 21.5336 24.0604 21.5158 24.1076C21.4963 24.1547 21.5087 24.1871 21.5003 24.1902C21.4958 24.1947 21.4634 24.1649 21.4727 24.096C21.4776 24.0627 21.4949 24.0231 21.5318 23.9893C21.5696 23.9551 21.6265 23.9356 21.6878 23.9387C21.8154 23.9404 21.9358 24.0507 22.0016 24.1769C22.074 24.3036 22.122 24.4613 22.1269 24.6298C22.1354 24.9618 21.9834 25.2818 21.7491 25.364C21.6354 25.4009 21.5367 25.3711 21.4847 25.3351C21.4314 25.2969 21.4207 25.2604 21.426 25.2573Z" fill="#E1BCB1"/>
<path d="M21.4067 36.1316C21.4111 36.1342 21.4511 36.0756 21.5196 35.9676C21.5889 35.86 21.6871 35.7036 21.8147 35.5138C22.0667 35.1329 22.4302 34.616 22.8751 34.08C23.3222 33.5462 23.772 33.1013 24.1373 32.8293C24.4991 32.5516 24.7631 32.4431 24.756 32.4289C24.7538 32.424 24.6884 32.4511 24.5711 32.504C24.5107 32.528 24.4444 32.5702 24.3653 32.616C24.2849 32.66 24.1996 32.7196 24.1058 32.7862C23.728 33.0507 23.2671 33.4942 22.8173 34.0316C22.3698 34.5707 22.0116 35.0951 21.7698 35.4844C21.648 35.6787 21.556 35.84 21.4942 35.9524C21.4338 36.0653 21.4022 36.1289 21.4067 36.1316Z" fill="#263138"/>
<path d="M22.7695 44.2996L25.4962 32.1582L22.7135 30.6702C22.6558 30.5871 21.2464 29.9516 21.2464 29.9516C20.902 30.5173 20.4269 31.028 19.8029 31.476C18.1158 32.4947 16.4238 31.6631 16.2793 30.1022L14.7358 30.536L11.7535 31.0507C11.7535 31.0507 9.32509 37.3791 9.64642 39.8556C9.9682 42.332 9.51975 46.6156 9.51975 46.6156L9.26953 48.0316L11.8042 48.0836H12.2206L17.8735 48.0524L22.8073 48.0316C22.2286 46.3587 22.7695 44.2996 22.7695 44.2996Z" fill="#F8DF88"/>
<path d="M7.59757 45.3262C6.62068 45.3622 5.67979 44.8729 5.20557 44.0178C5.05401 43.7444 4.95312 43.4387 4.95312 43.1093C4.95312 41.7907 5.77401 39.8991 6.04646 39.2182C6.43935 38.2364 10.1842 31.4404 10.6345 31.5369C11.0847 31.6333 11.3296 31.6684 11.3296 31.6684L9.19801 41.3409L15.9793 42.4533L15.2349 45.0444L7.59757 45.3262Z" fill="#F4D5C9"/>
<path d="M7.42188 35.0916L10.8685 36.9204L12.0072 31.0502C12.0072 31.0502 10.5468 31.1809 10.0654 31.7938C9.5841 32.4067 7.42188 35.0916 7.42188 35.0916Z" fill="#F8DF88"/>
<path d="M11.6001 41.7347L10.6721 39.7187L10.2664 38.228L9.03304 37.2711C9.03304 37.2711 8.62326 37.3187 8.75037 37.6364C8.87748 37.9542 9.49704 38.5258 9.49704 38.5258L9.86237 39.5449L9.26859 38.5098L8.40104 38.0809L7.54326 38.1444C7.54326 38.1444 7.38459 38.5258 7.78148 38.5413H8.21037L8.86148 39.0653L9.26815 40.0502L8.65482 39.0973L7.74948 38.7756L7.17793 38.9227C7.17793 38.9227 7.01926 39.1769 7.30504 39.2084C7.59082 39.24 7.78148 39.24 7.78148 39.24L8.30548 39.5444L8.76593 40.5102L7.95615 39.8431L6.90815 39.7178C6.90815 39.7178 6.73348 39.9702 7.00326 40.0653C7.27348 40.1604 7.81304 40.4467 7.81304 40.4467L8.39659 41.2529L11.6001 41.7347Z" fill="#F4D5C9"/>
<path d="M11.6002 41.7347C11.4793 41.7173 10.3896 41.5591 8.39444 41.2693L8.38778 41.2684L8.38378 41.2627C8.20156 41.0116 8.00556 40.7422 7.79889 40.4578L7.80511 40.4631C7.62244 40.368 7.43089 40.2716 7.22956 40.1804C7.17933 40.1582 7.12822 40.1356 7.07667 40.1147C7.02644 40.0924 6.97 40.0804 6.91756 40.044C6.86467 40.0111 6.83089 39.9449 6.83311 39.8813C6.83578 39.8178 6.858 39.76 6.89178 39.7067L6.898 39.6964L6.91044 39.6978C7.23889 39.7364 7.59311 39.7787 7.95889 39.8218L7.96511 39.8227L7.97 39.8267C8.22378 40.0351 8.49844 40.2609 8.78067 40.4929L8.746 40.52C8.60156 40.2173 8.44467 39.8898 8.28467 39.5547L8.294 39.5649C8.13089 39.4702 7.95133 39.3662 7.76956 39.2604L7.78156 39.2636C7.64244 39.2618 7.49933 39.252 7.35267 39.2373C7.28422 39.2293 7.19 39.2267 7.13444 39.1493C7.10867 39.1111 7.106 39.0636 7.11356 39.0236C7.12156 38.9827 7.13622 38.9458 7.15711 38.9098L7.162 38.9018L7.17178 38.8991C7.35044 38.8529 7.546 38.8027 7.74333 38.752L7.75044 38.7502L7.75756 38.7529C8.04333 38.8542 8.35133 38.9636 8.66289 39.0742L8.67089 39.0769L8.67533 39.084C8.87 39.3867 9.07844 39.7098 9.28867 40.0369L9.24467 40.06C9.17578 39.8929 9.10111 39.7129 9.02644 39.532C8.96333 39.3791 8.90022 39.2267 8.838 39.0751L8.84556 39.0849C8.62644 38.9084 8.40956 38.7338 8.19444 38.5609L8.21 38.5662C8.12556 38.5662 8.04156 38.5662 7.95756 38.5662C7.87267 38.564 7.79267 38.5724 7.70333 38.5573C7.61889 38.5436 7.52378 38.4871 7.50022 38.3938C7.47444 38.3044 7.49 38.2164 7.52022 38.1347L7.52556 38.1209L7.54156 38.1196C7.83089 38.0982 8.11711 38.0773 8.39933 38.0564L8.406 38.056L8.41178 38.0591C8.70556 38.2044 8.99489 38.3476 9.27889 38.4884L9.28556 38.4916L9.28911 38.4978C9.49178 38.8516 9.68956 39.1969 9.882 39.5333L9.84067 39.5524C9.71533 39.2018 9.594 38.8627 9.47622 38.5329L9.482 38.5418C9.262 38.3329 9.05533 38.1213 8.88111 37.8911C8.83711 37.8338 8.798 37.7729 8.76289 37.7102C8.73044 37.6467 8.70111 37.5751 8.70822 37.4982C8.71311 37.4196 8.77044 37.356 8.83089 37.3196C8.89356 37.2827 8.96067 37.2622 9.03089 37.2516L9.03889 37.2502L9.04556 37.2556C9.49044 37.6018 9.89978 37.9204 10.2776 38.2147L10.282 38.2182L10.2833 38.224C10.4353 38.7871 10.5687 39.2813 10.6856 39.7156L10.6847 39.7133C11.258 40.9791 11.5589 41.644 11.6002 41.7347C11.558 41.6444 11.2487 40.9831 10.6598 39.7244L10.6593 39.7236L10.6589 39.7222C10.5398 39.288 10.4042 38.7947 10.2496 38.2324L10.2558 38.2413C9.87711 37.9484 9.46689 37.6311 9.02067 37.2867L9.03533 37.2907C8.97222 37.3 8.90733 37.3204 8.85178 37.3538C8.79756 37.3876 8.75222 37.4387 8.74867 37.5027C8.74111 37.6316 8.83444 37.7538 8.91489 37.8662C9.08689 38.0924 9.294 38.3031 9.51222 38.5098L9.51622 38.5138L9.518 38.5187C9.63667 38.8484 9.75844 39.1871 9.88422 39.5378L9.84289 39.5569C9.64956 39.2204 9.45133 38.8756 9.24822 38.5222L9.25844 38.5316C8.974 38.3911 8.68467 38.2484 8.39089 38.1031L8.40333 38.1053C8.12111 38.1262 7.83533 38.1476 7.54556 38.1693L7.56644 38.1542C7.53978 38.2249 7.52644 38.3089 7.54822 38.3796C7.56689 38.4529 7.638 38.4951 7.71356 38.5093C7.78911 38.5227 7.87667 38.5151 7.95889 38.5173C8.04244 38.5173 8.12644 38.5173 8.21044 38.5173H8.21933L8.226 38.5227C8.44111 38.6956 8.658 38.8702 8.87711 39.0467L8.882 39.0507L8.88422 39.0564C8.94689 39.208 9.00956 39.36 9.07311 39.5133C9.14778 39.6942 9.222 39.8742 9.29133 40.0413L9.24733 40.0644C9.03711 39.7373 8.82911 39.4142 8.63444 39.1116L8.64689 39.1213C8.33533 39.0107 8.02733 38.9009 7.74156 38.7996L7.75578 38.8C7.55844 38.8507 7.36289 38.9009 7.18378 38.9467L7.19844 38.936C7.16467 38.9942 7.14067 39.0738 7.17489 39.1236C7.19133 39.1476 7.21933 39.1658 7.25267 39.1738C7.28467 39.1831 7.32067 39.1867 7.35756 39.1902C7.50289 39.2049 7.646 39.2151 7.78156 39.2169H7.78822L7.79356 39.22C7.97489 39.3258 8.15444 39.4302 8.31756 39.5249L8.32378 39.5284L8.32689 39.5351C8.48644 39.8707 8.64244 40.1987 8.78689 40.5013L8.83044 40.5929L8.75222 40.5284C8.47044 40.296 8.19622 40.0698 7.94289 39.8604L7.954 39.8653C7.58822 39.8213 7.23444 39.7787 6.906 39.7387L6.92511 39.7302C6.89578 39.7756 6.87489 39.8302 6.87311 39.8827C6.87222 39.9351 6.89622 39.9836 6.94067 40.0124C6.98244 40.0427 7.03889 40.0564 7.09133 40.0791C7.14378 40.1 7.19489 40.1231 7.24556 40.1458C7.44778 40.2382 7.63889 40.3351 7.822 40.4316L7.82556 40.4333L7.82822 40.4369C8.034 40.7222 8.22867 40.9924 8.41 41.244L8.39933 41.2373C10.3913 41.5471 11.4798 41.716 11.6002 41.7347Z" fill="#E1BCB1"/>
<g opacity="0.3">
<path d="M22.825 45.0653C22.825 45.0653 22.0379 46.7156 21.0148 47.1987C20.065 47.6476 19.4624 47.7436 18.3317 47.6618C17.7797 47.6218 15.9802 47.2724 15.3286 47.0853L10.9424 45.2027L20.1646 46.6556L22.825 45.0653Z" fill="#040000"/>
</g>
<path d="M25.0752 32.76C25.0752 32.76 26.725 32.1756 26.7574 35.8738C26.7894 39.572 22.4481 45.7787 21.7085 46.3898C20.969 47.0009 20.1236 47.412 17.8947 47.0813C15.0992 46.6671 11.085 45.2031 11.085 45.2031L13.5401 42.9164L18.5245 42.6911L22.5765 34.3618C22.5765 34.3622 23.6921 32.5991 25.0752 32.76Z" fill="#F4D5C9"/>
<path d="M15.2354 45.0444C15.2354 45.0444 16.4714 45.8218 17.8665 45.7818C19.2616 45.7418 20.4976 46.1929 20.6771 46.0671C20.8567 45.9413 20.8762 45.7222 20.6771 45.6227C20.478 45.5231 19.6327 45.4036 19.6327 45.4036L18.9029 45.1044C18.9029 45.1044 21.3945 45.3236 21.5936 45.224C21.7927 45.1244 21.9922 44.9849 21.9127 44.7658C21.8331 44.5467 21.6336 44.5467 21.6336 44.5467C21.6336 44.5467 22.1718 44.5667 22.1518 44.3476C22.1318 44.1284 21.9327 43.9289 21.8527 43.8893C21.7731 43.8493 20.7278 43.4244 20.7278 43.4244L19.3838 43.1573L20.6749 43.1058L21.8025 43.42C21.8025 43.42 22.2522 43.4711 22.1522 43.092C22.0522 42.7133 20.6767 42.2947 20.6767 42.2947L18.9225 42.1738C18.9225 42.1738 20.278 41.9756 20.4176 41.5569C20.5571 41.1382 20.318 40.8991 20.318 40.8991C20.318 40.8991 19.3611 41.2778 18.9029 41.3573C18.4442 41.4369 17.8865 41.6164 17.1487 41.9156C16.4114 42.2147 15.9794 42.4538 15.9794 42.4538" fill="#F4D5C9"/>
<path d="M15.9791 42.4533C15.9791 42.4533 16.0022 42.4382 16.0498 42.4129C16.0969 42.3871 16.168 42.3498 16.2622 42.3031C16.4502 42.2093 16.7311 42.0769 17.1 41.9244C17.4693 41.7742 17.9235 41.5898 18.472 41.4387C18.6093 41.4018 18.7524 41.3684 18.9022 41.3413C19.0498 41.3138 19.2 41.2707 19.3533 41.2231C19.6595 41.1271 19.9791 41.0111 20.3111 40.8813L20.3231 40.8764L20.3306 40.8853C20.4542 41.0253 20.5009 41.224 20.4715 41.4138L20.4578 41.4849L20.4378 41.5547C20.4222 41.6031 20.3933 41.6467 20.36 41.6836C20.2906 41.756 20.2053 41.8098 20.1164 41.8551C19.9378 41.9453 19.744 42.0084 19.5444 42.0627C19.3444 42.116 19.1382 42.16 18.9258 42.1938L18.924 42.1511C19.4818 42.1889 20.0689 42.2289 20.6782 42.2702H20.6809L20.6831 42.2711C21.0355 42.384 21.3915 42.5133 21.7346 42.6938C21.82 42.74 21.904 42.7898 21.9826 42.8493C22.0218 42.8796 22.0604 42.9116 22.0942 42.9493C22.128 42.9871 22.16 43.0293 22.1751 43.0831C22.1858 43.1329 22.196 43.1853 22.1853 43.2391C22.1778 43.292 22.1475 43.3462 22.1018 43.3773C22.0102 43.4404 21.9026 43.4484 21.7991 43.4418H21.7978L21.7955 43.4413C21.4395 43.3422 21.0564 43.2356 20.6675 43.1276L20.6751 43.1284C20.2653 43.1449 19.8275 43.1627 19.384 43.1804L19.388 43.1311C19.6929 43.1916 20.0195 43.2564 20.3484 43.3218C20.4769 43.3471 20.6044 43.3729 20.732 43.3982L20.7342 43.3987L20.7364 43.3996C21.1142 43.5556 21.488 43.7102 21.8569 43.8627C21.9529 43.9156 22.0169 43.996 22.0751 44.0796C22.1298 44.1658 22.1755 44.2591 22.1738 44.3711C22.1684 44.4333 22.1186 44.4769 22.0729 44.4996C22.0258 44.5244 21.9764 44.5373 21.9271 44.5471C21.8284 44.5667 21.7302 44.5711 21.6311 44.5698L21.632 44.5209C21.7235 44.5258 21.8058 44.5684 21.8635 44.6351C21.9191 44.7018 21.9551 44.7849 21.9524 44.8747C21.9475 44.9653 21.8938 45.0431 21.8315 45.0973C21.7693 45.1538 21.6982 45.1947 21.6266 45.232C21.6106 45.2409 21.5884 45.2511 21.5658 45.256C21.5449 45.26 21.524 45.2631 21.504 45.2649C21.4635 45.2689 21.4235 45.2707 21.384 45.2716C21.3044 45.2738 21.2253 45.2729 21.1471 45.2716C20.9902 45.2684 20.8346 45.2618 20.6804 45.2542C20.064 45.2218 19.4693 45.1751 18.8991 45.1258L18.9093 45.0827C19.1578 45.1849 19.4009 45.2844 19.6386 45.3822L19.6333 45.3809C19.9018 45.4209 20.164 45.464 20.4178 45.5218C20.4813 45.5369 20.544 45.552 20.6062 45.5729C20.668 45.5924 20.732 45.6222 20.7778 45.6738C20.824 45.7253 20.8449 45.7982 20.8333 45.8658C20.8218 45.9329 20.7862 45.9924 20.7391 46.0373C20.7275 46.0489 20.7155 46.0596 20.7026 46.0693C20.6915 46.0791 20.6755 46.0898 20.6578 46.096C20.624 46.1076 20.5924 46.1071 20.5604 46.108C20.4978 46.1076 20.4369 46.1 20.3769 46.0916C20.2569 46.0747 20.1404 46.052 20.0253 46.0307C19.7955 45.9871 19.5724 45.9449 19.3555 45.9107C18.9218 45.8409 18.5111 45.8004 18.1311 45.7947C18.036 45.7929 17.9431 45.7942 17.852 45.7956C17.7604 45.7942 17.6706 45.7951 17.5831 45.7916C17.496 45.7844 17.4102 45.78 17.3271 45.7711C17.2444 45.7596 17.164 45.7484 17.0853 45.7373C16.4591 45.6289 15.996 45.4311 15.6889 45.2911C15.5355 45.2182 15.4213 45.1564 15.3453 45.1133C15.2693 45.0698 15.2324 45.0436 15.2324 45.0436C15.2324 45.0436 15.2426 45.0484 15.2622 45.0596C15.2831 45.0711 15.3115 45.0867 15.3489 45.1076C15.4262 45.1489 15.5413 45.2084 15.6946 45.2791C16.0026 45.4151 16.4662 45.6084 17.0893 45.7124C17.1675 45.7231 17.2475 45.7338 17.3298 45.7449C17.4124 45.7533 17.4973 45.7573 17.584 45.764C17.6711 45.7671 17.76 45.7653 17.8511 45.7667C17.9426 45.7649 18.036 45.7631 18.1315 45.7644C18.5133 45.7689 18.9258 45.8076 19.3609 45.8764C19.5786 45.9102 19.8022 45.952 20.0324 45.9947C20.1475 46.0156 20.264 46.0378 20.3822 46.0542C20.4413 46.0622 20.5013 46.0693 20.5604 46.0698C20.5893 46.0689 20.62 46.0684 20.6444 46.0596C20.6653 46.0524 20.6911 46.0293 20.7111 46.0102C20.7533 45.9698 20.7835 45.9169 20.7933 45.8604C20.8026 45.8036 20.7853 45.7453 20.7466 45.7018C20.7075 45.6582 20.652 45.6316 20.5924 45.6129C20.5329 45.5929 20.4702 45.5778 20.4075 45.5631C20.1555 45.5067 19.8938 45.4636 19.6262 45.4244L19.6235 45.424L19.6209 45.4231C19.3826 45.3258 19.1395 45.2262 18.8911 45.1249L18.756 45.0698L18.9013 45.0822C19.4711 45.1302 20.0653 45.176 20.6809 45.208C20.8346 45.2156 20.9898 45.2218 21.1462 45.2249C21.2244 45.2262 21.3026 45.2271 21.3809 45.2244C21.42 45.2236 21.4591 45.2218 21.4978 45.2178C21.5173 45.2164 21.5355 45.2133 21.5538 45.2098C21.5702 45.2067 21.5844 45.2004 21.6031 45.1902C21.6724 45.1538 21.7404 45.1138 21.7973 45.0622C21.8546 45.012 21.8982 44.9458 21.9018 44.8729C21.9049 44.8009 21.8724 44.7244 21.8244 44.668C21.7764 44.6111 21.7018 44.5751 21.6298 44.5707L21.6306 44.5218C21.7249 44.5231 21.8222 44.5187 21.9151 44.5C21.9613 44.4911 22.0075 44.4782 22.0471 44.4573C22.0871 44.4369 22.1191 44.4062 22.1218 44.3676C22.1235 44.2818 22.0822 44.1862 22.0306 44.1084C21.9778 44.0307 21.9111 43.9516 21.8315 43.9084C21.4635 43.7564 21.0911 43.6027 20.7142 43.4471L20.7186 43.4484C20.5915 43.4231 20.4635 43.3978 20.3351 43.372C20.0062 43.3067 19.6795 43.2418 19.3746 43.1809L19.1684 43.14L19.3786 43.1316C19.8222 43.1138 20.26 43.0964 20.6698 43.08H20.6738L20.6773 43.0809C21.0658 43.1893 21.4489 43.296 21.8049 43.3956L21.8013 43.3947C21.8938 43.4013 21.9969 43.3911 22.0693 43.34C22.144 43.288 22.1493 43.1853 22.1249 43.0969C22.0991 43.0133 22.0235 42.9453 21.9502 42.8884C21.8742 42.8311 21.792 42.7818 21.7084 42.7364C21.3711 42.5582 21.0155 42.428 20.6662 42.316L20.6711 42.3169C20.0618 42.2742 19.4746 42.2333 18.9173 42.1947L18.728 42.1813L18.9155 42.152C19.1258 42.1191 19.3315 42.076 19.5298 42.0236C19.7275 41.9702 19.92 41.908 20.0946 41.8204C20.1813 41.7764 20.2635 41.7244 20.3275 41.6578C20.3586 41.6236 20.3835 41.5858 20.3973 41.5436L20.4164 41.4769L20.4298 41.4093C20.4591 41.2298 20.4124 41.0396 20.3009 40.9124L20.3204 40.9164C19.9871 41.0458 19.6666 41.1604 19.3586 41.2556C19.2044 41.3022 19.0538 41.3453 18.9031 41.3724C18.7542 41.3982 18.6115 41.4311 18.4751 41.4671C17.9284 41.6147 17.4738 41.796 17.1035 41.9436C16.7338 42.0933 16.452 42.2222 16.2626 42.3129C16.1693 42.3587 16.0978 42.3938 16.048 42.4182C16.004 42.4413 15.9791 42.4533 15.9791 42.4533Z" fill="#E1BCB1"/>
<path d="M18.9668 44.1533C18.9668 44.1644 19.1272 44.1698 19.3855 44.1853C19.6437 44.2009 19.9992 44.2311 20.3886 44.2898C20.7779 44.3489 21.1268 44.4258 21.3779 44.4871C21.629 44.5484 21.7837 44.5911 21.7872 44.5804C21.7904 44.5716 21.641 44.5107 21.3921 44.436C21.1432 44.3609 20.793 44.2751 20.4001 44.2156C20.0072 44.1564 19.6477 44.1342 19.3877 44.1324C19.1268 44.1302 18.9664 44.144 18.9668 44.1533Z" fill="#E1BCB1"/>
<path d="M10.2291 36.988C10.178 37.2289 10.1353 37.4289 10.1029 37.5827C10.0749 37.7236 10.0615 37.8018 10.0664 37.8031C10.0713 37.8044 10.0944 37.728 10.1313 37.5893C10.17 37.4369 10.2202 37.2387 10.2806 37C10.4038 36.5018 10.5686 35.812 10.7464 35.0489C11.038 33.7969 11.2735 32.7369 11.3344 32.4062L11.3393 32.38L11.3184 32.3947C11.2455 32.4453 11.2131 32.4702 11.2153 32.4733C11.2175 32.4764 11.2535 32.4573 11.33 32.4124L11.314 32.4009C11.2229 32.724 10.9655 33.7791 10.6735 35.0311" fill="#B3995D"/>
<path d="M20.5498 37.2711L26.1178 39.7529C26.1178 39.7529 28.2796 33.0818 25.0947 32.0067L23.4978 32.38L20.5498 37.2711Z" fill="#F8DF88"/>
<path d="M15.2354 45.0444C15.2359 45.0582 13.5265 45.1324 11.4177 45.2102C9.30832 45.288 7.5981 45.34 7.59766 45.3262C7.59721 45.3124 9.3061 45.2382 11.4159 45.1604C13.5243 45.0827 15.2345 45.0307 15.2354 45.0444Z" fill="#E1BCB1"/>
<path d="M8.39728 41.2538C8.39817 41.2631 8.28795 41.2729 8.11595 41.3156C7.94528 41.36 7.71151 41.4418 7.48662 41.5902C7.25995 41.736 7.09106 41.9182 6.99506 42.0653C6.89684 42.2124 6.86217 42.3182 6.85328 42.3151C6.85017 42.3142 6.85684 42.2871 6.87284 42.2391C6.88928 42.1916 6.91817 42.1236 6.96528 42.0467C7.05639 41.8907 7.22662 41.6982 7.45951 41.5484C7.69062 41.3956 7.93284 41.3173 8.10839 41.2809C8.19728 41.2649 8.26928 41.2542 8.31951 41.2529C8.36928 41.2502 8.39684 41.2502 8.39728 41.2538Z" fill="#E1BCB1"/>
<path d="M21.5103 36.4787C21.512 36.4791 21.5063 36.4973 21.4938 36.5307C21.4792 36.5693 21.4605 36.6173 21.4378 36.6769C21.3885 36.8036 21.3138 36.9849 21.2187 37.2084C21.0285 37.6551 20.7498 38.2653 20.4218 38.9289C20.0929 39.5929 19.7796 40.1858 19.5485 40.612C19.4329 40.8253 19.3378 40.9969 19.2707 41.1151C19.2392 41.1698 19.2134 41.2147 19.1925 41.2507C19.1743 41.2813 19.1636 41.2969 19.1623 41.2964C19.1609 41.2956 19.168 41.2782 19.1836 41.2462C19.2018 41.2093 19.2249 41.1631 19.2534 41.1062C19.3187 40.9796 19.408 40.8067 19.5169 40.5956C19.74 40.1649 20.0485 39.5698 20.3769 38.9067C20.7049 38.2436 20.988 37.6364 21.1863 37.1938C21.2827 36.9769 21.3618 36.7996 21.42 36.6693C21.4463 36.6116 21.4676 36.5644 21.4845 36.5271C21.4996 36.4947 21.5085 36.4782 21.5103 36.4787Z" fill="#B3995D"/>
<g opacity="0.5">
<path d="M35.1444 8.87645L35.2596 9.06756C35.3884 9.28178 35.5764 9.45467 35.8004 9.56578L36 9.66445L35.8089 9.77956C35.5947 9.90845 35.4218 10.0964 35.3107 10.3204L35.212 10.52L35.0969 10.3289C34.968 10.1147 34.78 9.94178 34.556 9.83067L34.3564 9.73201L34.5476 9.61689C34.7618 9.48801 34.9347 9.30001 35.0458 9.07601L35.1444 8.87645Z" fill="#F7DF8E"/>
</g>
<path d="M5.69732 24.8787C5.61821 24.7476 5.50354 24.6418 5.36621 24.5738Z" fill="#E0E0E0"/>
<g opacity="0.56">
<path d="M34.9009 36.9978L34.9934 37.1511C35.0969 37.3236 35.248 37.4622 35.428 37.5516L35.5885 37.6311L35.4351 37.7236C35.2627 37.8271 35.124 37.9782 35.0347 38.1582L34.9551 38.3187L34.8627 38.1653C34.7591 37.9929 34.608 37.8542 34.428 37.7649L34.2676 37.6853L34.4209 37.5929C34.5934 37.4893 34.732 37.3382 34.8214 37.1582L34.9009 36.9978Z" fill="#F7DF8E"/>
</g>
<g opacity="0.48">
<path d="M10.4925 16.1964L10.6343 16.432C10.7934 16.6964 11.025 16.9098 11.3018 17.0467L11.5485 17.1684L11.313 17.3102C11.0485 17.4693 10.8352 17.7009 10.6983 17.9778L10.5765 18.2244L10.4347 17.9889C10.2756 17.7244 10.0441 17.5111 9.76717 17.3742L9.52051 17.2524L9.75606 17.1107C10.0205 16.9516 10.2338 16.72 10.3707 16.4431L10.4925 16.1964Z" fill="#F7DF8E"/>
</g>
<g opacity="0.56">
<path d="M4.92975 34.2156L5.00975 34.3484C5.09953 34.4978 5.23064 34.6182 5.38664 34.6956L5.52575 34.7644L5.39286 34.8444C5.24353 34.9342 5.12308 35.0653 5.04575 35.2213L4.97686 35.3604L4.89686 35.2276C4.80708 35.0782 4.67597 34.9578 4.51997 34.8804L4.38086 34.8116L4.51375 34.7316C4.66308 34.6418 4.78353 34.5107 4.86086 34.3547L4.92975 34.2156Z" fill="#F7DF8E"/>
</g>
</g>
</g>
<defs>
<clipPath id="clip0_1146_79586">
<rect width="48" height="48" rx="24" fill="white"/>
</clipPath>
<clipPath id="clip1_1146_79586">
<rect width="48" height="48" rx="24" fill="white"/>
</clipPath>
</defs>
</svg>
