<svg width="48" height="48" viewBox="0 0 48 48" fill="none" xmlns="http://www.w3.org/2000/svg">
<g clip-path="url(#clip0_1141_49275)">
<rect width="48" height="48" rx="24" fill="white"/>
<g clip-path="url(#clip1_1141_49275)">
<g opacity="0.53">
<path d="M16.1278 9.58313H11.2656V25.4982H16.1278V9.58313Z" fill="#C3DAE4"/>
<path d="M23.6415 12.1067H18.7793V25.4987H23.6415V12.1067Z" fill="#C3DAE4"/>
<path d="M31.1562 14.2298H26.2939V25.4987H31.1562V14.2298Z" fill="#C3DAE4"/>
<path d="M39.628 15.2427C39.5178 15.2427 39.4071 15.2111 39.3151 15.1462L32.8222 10.5849H25.1889C24.9129 10.5849 24.6885 10.388 24.6885 10.1453V7.86801H17.3805C17.104 7.86801 16.8796 7.67112 16.8796 7.42845V4.37423H11.4862C11.2098 4.37423 10.9854 4.17734 10.9854 3.93467C10.9854 3.69201 11.2098 3.49512 11.4862 3.49512H17.38C17.656 3.49512 17.8805 3.69201 17.8805 3.93467V6.98845H25.1885C25.4649 6.98845 25.6894 7.18534 25.6894 7.42801V9.70578H32.9974C33.1107 9.70578 33.2209 9.73956 33.3102 9.80178L39.9405 14.4596C40.156 14.6116 40.1911 14.888 40.0187 15.0778C39.92 15.1862 39.7747 15.2427 39.628 15.2427Z" fill="#C3DAE4"/>
<path d="M39.9223 15.5013H34.4716C34.1951 15.5013 33.9707 15.3044 33.9707 15.0618C33.9707 14.8191 34.1951 14.6222 34.4716 14.6222H39.4218V10.2742C39.4218 10.0315 39.6463 9.83466 39.9227 9.83466C40.1991 9.83466 40.4236 10.0315 40.4236 10.2742V15.0618C40.4231 15.3049 40.1987 15.5013 39.9223 15.5013Z" fill="#C3DAE4"/>
</g>
<path d="M20.1553 9.29822V12.6747H27.4451V9.29822H20.1553ZM27.0731 12.3031H20.5264V9.66933H27.0735V12.3031H27.0731Z" fill="#7B9FAA"/>
<path d="M27.0735 9.66931H20.5264V12.3031H27.0735V9.66931Z" fill="white"/>
<path d="M21.3964 9.94312H20.876V12.0302H21.3964V9.94312Z" fill="#5E8189"/>
<path d="M28.0977 10.0831H27.4492V11.8894H28.0977V10.0831Z" fill="#7B9FAA"/>
<path d="M20.1553 12.6751V13.5236L21.2179 12.6751H20.1553Z" fill="#7B9FAA"/>
<path d="M36.8095 21.0168H31.3291V20.6648L36.0282 20.4231L34.4295 14.6875H33.7571V14.0942H34.8802L36.8095 21.0168Z" fill="#36464E"/>
<path opacity="0.1" d="M34.3445 14.0942L34.1325 14.688H33.7578V14.0942H34.3445Z" fill="#040000"/>
<path d="M33.9977 8.12468L33.3955 8.0155L31.3204 19.4598L31.9226 19.569L33.9977 8.12468Z" fill="#36464E"/>
<path d="M34.6277 10.9853L33.5166 17.1115L31.9229 19.5715L33.9984 8.12665L34.6277 10.9853Z" fill="#445962"/>
<path d="M30.1987 21.0168V20.3937L24.7178 20.6648V21.0168H30.1987Z" fill="#36464E"/>
<path d="M18.7979 29.9116L19.1281 31.8934L21.3672 45.3761H21.7276L20.1001 31.8934L19.8592 29.9116H18.7979Z" fill="#445962"/>
<path opacity="0.1" d="M19.8592 29.9116H18.7979L19.1281 31.8934H20.1001L19.8592 29.9116Z" fill="#040000"/>
<path d="M11.7676 45.3761H12.1285L14.3671 31.8934L14.6978 29.9116H13.636L13.3956 31.8934L11.7676 45.3761Z" fill="#445962"/>
<path opacity="0.1" d="M13.636 29.9116L13.3955 31.8934H14.3671L14.6977 29.9116H13.636Z" fill="#040000"/>
<path d="M7.45996 45.3761H7.82085L10.0595 31.8934L10.3897 29.9116H9.3284L9.08796 31.8934L7.45996 45.3761Z" fill="#445962"/>
<path opacity="0.1" d="M9.08789 31.8934H10.0594L10.3897 29.9116H9.32834L9.08789 31.8934Z" fill="#040000"/>
<path d="M8.03223 30.8427H22.0296V29.1143H15.8887L13.8247 17.1063H8.658L8.03223 30.8427Z" fill="#608895"/>
<path d="M8.03223 30.8427H8.92689L9.50956 17.1063H8.658L8.03223 30.8427Z" fill="#486F79"/>
<path d="M24.3374 45.26C24.0214 45.2996 15.3348 43.5013 15.0548 43.2298C15.0205 43.1996 15.1668 42.4107 15.3841 41.3342L15.3881 41.3129C15.5237 40.6307 17.8734 35.0738 17.8734 35.0738L23.5108 36.4662L21.1219 41.628C21.1219 41.628 22.1965 42.3565 23.1201 43.0507C23.121 43.052 23.1223 43.0525 23.1223 43.0538C23.6925 43.48 24.185 43.864 24.2908 43.9898C24.5641 44.3187 24.653 45.2231 24.3374 45.26Z" fill="#A86158"/>
<path d="M24.3378 45.2596C24.0226 45.2996 15.336 43.5009 15.0546 43.2298C15.0209 43.1991 15.1675 42.4111 15.3844 41.3338L15.3889 41.3133C15.4386 41.0591 15.7982 40.1262 16.2275 39.0569C17.1551 39.2769 20.4795 40.0698 21.6889 40.4049L21.1231 41.6284C21.1231 41.6284 22.1978 42.3573 23.1213 43.0515C23.1213 43.0529 23.1226 43.0529 23.1226 43.0542C23.6929 43.4804 24.1858 43.8649 24.2911 43.9898C24.5653 44.3196 24.6542 45.2236 24.3378 45.2596Z" fill="#EBEBEB"/>
<path d="M24.3671 45.3004C24.0422 45.3382 15.3485 43.5169 15.0609 43.2378C14.9511 43.1324 15.1018 41.7649 15.5316 40.3076L21.1351 41.4889C21.1351 41.4889 24.0431 43.6538 24.3258 43.9933C24.6067 44.3324 24.692 45.2622 24.3671 45.3004Z" fill="#C3DAE4"/>
<path d="M24.3158 44.9262C22.866 44.5849 16.986 43.3458 15.5273 43.1191C15.5153 43.1173 15.514 43.1253 15.5256 43.1284C16.9553 43.4978 22.8447 44.6893 24.3113 44.9506C24.3416 44.956 24.3465 44.9338 24.3158 44.9262Z" fill="#8AA6B1"/>
<path d="M21.5611 41.7302C20.9793 41.6 20.2602 41.664 19.7975 42.0653C19.7798 42.0809 19.802 42.1062 19.8211 42.1009C20.4055 41.9395 20.9491 41.8422 21.5558 41.8044C21.5989 41.8018 21.6029 41.7395 21.5611 41.7302Z" fill="#8AA6B1"/>
<path d="M21.9751 42.0004C21.3934 41.8702 20.6743 41.9342 20.2116 42.3355C20.1938 42.3511 20.216 42.3764 20.2351 42.3711C20.8196 42.2097 21.3631 42.1124 21.9698 42.0746C22.0134 42.0715 22.0169 42.0097 21.9751 42.0004Z" fill="#8AA6B1"/>
<path d="M22.3882 42.2702C21.8065 42.14 21.0873 42.204 20.6247 42.6053C20.6069 42.6209 20.6291 42.6462 20.6482 42.6409C21.2327 42.4795 21.7762 42.3822 22.3829 42.3444C22.426 42.3413 22.43 42.2795 22.3882 42.2702Z" fill="#8AA6B1"/>
<path d="M22.8023 42.54C22.2205 42.4097 21.5014 42.4737 21.0387 42.8751C21.021 42.8906 21.0432 42.916 21.0623 42.9106C21.6467 42.7493 22.1903 42.652 22.797 42.6142C22.8401 42.6111 22.8441 42.5493 22.8023 42.54Z" fill="#8AA6B1"/>
<path opacity="0.1" d="M24.3669 45.3C24.2661 45.3115 23.3518 45.1435 22.1318 44.8964L22.9167 42.8378C23.5794 43.3498 24.2021 43.8444 24.3256 43.9938C24.6056 44.332 24.6923 45.2618 24.3669 45.3Z" fill="#040000"/>
<path d="M21.3459 41.7667L15.3619 40.3538C15.3619 40.3538 20.3863 29.2934 19.9472 28.7107C19.7277 28.4191 14.1565 28.3338 12.3845 26.8303C10.0828 24.8774 11.6272 21.8938 11.6272 21.8938L17.849 21.7089C17.849 21.7089 17.7739 23.0103 18.0165 23.2067C18.1765 23.3374 25.5903 23.9614 26.4045 26.4631C27.4032 29.5311 21.3459 41.7667 21.3459 41.7667Z" fill="#36555E"/>
<path d="M21.0121 28.1947C20.8868 28.0876 20.6992 28.0747 20.5423 28.0485C19.6441 27.8983 18.7463 27.7463 17.8481 27.596C17.0077 27.4556 16.1628 27.3294 15.3263 27.1681C14.6335 27.0343 13.9295 26.8538 13.3299 26.4778C12.7299 26.1014 12.3157 25.5356 12.1063 24.8756C11.897 24.2156 11.8823 23.5058 11.9481 22.8223C11.9641 22.6552 11.9948 22.488 12.0263 22.3232C12.0286 22.3107 12.0086 22.3063 12.0063 22.3192C11.7783 23.5952 11.7579 25.0761 12.7139 26.0929C13.1797 26.5885 13.8197 26.88 14.4726 27.0685C15.2095 27.2814 15.9792 27.3823 16.7352 27.5085C17.6335 27.6587 18.5317 27.8094 19.4299 27.9587C19.8619 28.0307 20.301 28.0867 20.7295 28.1765C20.8117 28.1938 20.9046 28.2178 20.9637 28.28C21.045 28.3658 21.0228 28.4876 21.0015 28.5916C20.9583 28.8036 20.901 29.0129 20.8406 29.2205C20.3503 30.8956 16.825 38.7543 16.7277 38.9383C16.7175 38.9578 16.7477 38.9725 16.7583 38.9538C17.5823 37.4845 20.1966 31.4454 20.741 29.8609C20.8801 29.456 21.0081 29.0467 21.0943 28.6276C21.1255 28.4769 21.1437 28.3072 21.0121 28.1947Z" fill="#36464E"/>
<path d="M21.6222 40.3156C21.4591 40.2396 19.888 39.8654 19.5413 39.784C18.8476 39.6214 16.6587 39.1432 16.2573 39.0969C16.2467 39.0956 16.2427 39.1129 16.2533 39.1165C16.5929 39.2343 17.9858 39.5743 18.3325 39.6534C19.028 39.8125 21.4182 40.344 21.616 40.3467C21.6329 40.3472 21.6382 40.3232 21.6222 40.3156Z" fill="#36464E"/>
<path d="M33.1166 45.3942C32.8149 45.496 23.9438 45.4635 23.6153 45.2529C23.5758 45.2302 23.562 44.428 23.5606 43.3298V43.3084C23.5575 42.6129 23.3438 36.668 23.3438 36.668L28.8958 36.6218L29.242 42.476C29.242 42.476 30.4402 42.9755 31.4838 43.4724C31.4851 43.4738 31.4864 43.4738 31.4864 43.4751C32.1304 43.7795 32.6891 44.0573 32.8175 44.1595C33.1513 44.4267 33.4184 45.2951 33.1166 45.3942Z" fill="#A86158"/>
<path d="M33.1164 45.3938C32.8146 45.4951 23.9435 45.4631 23.6146 45.2524C23.575 45.2306 23.5617 44.4275 23.5599 43.3302V43.3084C23.5595 43.26 23.5595 43.2106 23.5577 43.1609C23.5581 43.1253 23.5573 43.0898 23.5555 43.0542C23.555 43.0022 23.5533 42.9489 23.5515 42.8955C23.5399 42.4333 23.5164 41.6831 23.4893 40.8604L29.1453 40.824L29.2426 42.4755C29.2426 42.4755 30.4404 42.9755 31.4844 43.472C31.4857 43.4733 31.487 43.4729 31.487 43.4742C32.1306 43.7791 32.6897 44.0564 32.8177 44.1586C33.1506 44.4266 33.4186 45.2946 33.1164 45.3938Z" fill="#EBEBEB"/>
<path d="M33.1539 45.4275C32.8428 45.5293 23.9606 45.4751 23.6232 45.2591C23.4948 45.1778 23.3699 43.8075 23.501 42.2938L29.2272 42.3355C29.2272 42.3355 32.5081 43.8778 32.853 44.1547C33.1957 44.4315 33.4646 45.3258 33.1539 45.4275Z" fill="#C3DAE4"/>
<path d="M33.0283 45.0716C31.5399 45.0258 25.531 44.9822 24.0559 45.0502C24.0439 45.0507 24.0439 45.0591 24.0559 45.0596C25.5305 45.1369 31.5394 45.132 33.0283 45.096C33.0594 45.0951 33.0599 45.0724 33.0283 45.0716Z" fill="#8AA6B1"/>
<path d="M29.6929 42.488C29.0969 42.476 28.4049 42.6822 28.0315 43.1675C28.0169 43.1862 28.044 43.2066 28.0618 43.1978C28.6022 42.9231 29.1155 42.7195 29.7026 42.5618C29.744 42.5502 29.7355 42.4889 29.6929 42.488Z" fill="#8AA6B1"/>
<path d="M30.1517 42.6702C29.5557 42.6582 28.8637 42.8645 28.4904 43.3493C28.4761 43.368 28.5028 43.3885 28.5206 43.3796C29.061 43.1053 29.5744 42.9013 30.1615 42.7436C30.2032 42.7325 30.1944 42.6707 30.1517 42.6702Z" fill="#8AA6B1"/>
<path d="M30.6108 42.852C30.0148 42.84 29.3228 43.0462 28.9495 43.5316C28.9348 43.5502 28.962 43.5707 28.9797 43.5618C29.5202 43.2871 30.0335 43.0836 30.6206 42.9258C30.662 42.9147 30.6535 42.8529 30.6108 42.852Z" fill="#8AA6B1"/>
<path d="M31.0698 43.0342C30.4738 43.0222 29.7818 43.2284 29.4085 43.7137C29.3938 43.7324 29.4209 43.7529 29.4387 43.744C29.9792 43.4697 30.4925 43.2657 31.0796 43.108C31.1209 43.0964 31.1125 43.0351 31.0698 43.0342Z" fill="#8AA6B1"/>
<path d="M29.7963 42.2938L23.2905 42.2356C23.2905 42.2356 23.3683 31.9364 22.8772 31.3084C22.2229 30.472 13.0678 30.4911 11.1043 27.7622C9.34072 25.3116 10.8292 21.8431 10.8292 21.8431L17.7621 21.6373C17.7621 21.6373 17.5456 22.7382 17.1194 23.8209C17.1194 23.8209 25.4709 25.3622 27.8109 27.924C29.3901 29.6533 29.7963 42.2938 29.7963 42.2938Z" fill="#36555E"/>
<path d="M18.3392 23.3458C18.1387 23.3813 17.941 23.4622 17.7516 23.5342C17.5525 23.6102 17.3565 23.6964 17.165 23.7898C16.7859 23.9747 16.4245 24.1858 16.0681 24.4102C16.057 24.4173 16.0681 24.4324 16.0792 24.4267C16.4543 24.232 16.8414 24.0564 17.2299 23.8893C17.4165 23.8089 17.6032 23.7284 17.7899 23.648C17.9779 23.5671 18.1779 23.4978 18.3565 23.3978C18.3796 23.384 18.3667 23.3409 18.3392 23.3458Z" fill="#36464E"/>
<path d="M17.9238 21.6342C17.8447 21.9507 17.7749 22.2698 17.6843 22.5831C17.6429 22.7271 17.6016 22.8733 17.5474 23.0129C17.5016 23.1307 17.4318 23.2654 17.2958 23.2916C17.1385 23.3218 17.0936 23.1876 17.1065 23.0573C17.1207 22.9125 17.1576 22.7671 17.1865 22.6249C17.2194 22.4605 17.2527 22.2965 17.2825 22.1316C17.2976 22.0489 17.3132 21.9667 17.3269 21.884C17.3305 21.8631 17.3461 21.7054 17.3572 21.66C17.3585 21.664 17.3607 21.6676 17.3661 21.6667C17.3678 21.6662 17.3696 21.6662 17.3714 21.6658C17.3758 21.6654 17.3803 21.6622 17.3812 21.6578C17.3829 21.6454 17.3825 21.6427 17.3732 21.6342C17.3692 21.6302 17.3634 21.6307 17.3589 21.6334C17.3287 21.6498 17.3269 21.6911 17.3172 21.7214C17.2914 21.8014 17.2656 21.8814 17.2421 21.9622C17.1985 22.1134 17.1558 22.2649 17.1172 22.4174C17.0789 22.5698 17.0416 22.7222 17.0038 22.8751C16.9758 22.9894 16.9425 23.1093 16.9732 23.2267C17.0069 23.3547 17.1092 23.4191 17.2216 23.4289C17.2163 23.4391 17.2096 23.4489 17.2047 23.4596C17.1909 23.4907 17.1807 23.524 17.1692 23.556C17.1572 23.5889 17.1461 23.6214 17.1367 23.6551C17.1323 23.6711 17.1296 23.6876 17.1274 23.704C17.1252 23.7222 17.1292 23.7405 17.1269 23.7587C17.1234 23.7871 17.1616 23.8045 17.1758 23.7765C17.1843 23.76 17.1963 23.7476 17.2056 23.732C17.2154 23.7156 17.2221 23.6969 17.2283 23.6791C17.2389 23.6476 17.2483 23.616 17.2563 23.5836C17.2643 23.5516 17.2741 23.5196 17.2798 23.4871C17.2834 23.468 17.2843 23.4485 17.2856 23.4289C17.3501 23.4222 17.4141 23.4005 17.4683 23.3596C17.5625 23.288 17.6181 23.1791 17.6572 23.0702C17.7047 22.9387 17.7421 22.8022 17.7789 22.6671C17.8705 22.3329 17.9487 21.9929 17.9807 21.6471C17.9843 21.6102 17.9332 21.5969 17.9238 21.6342Z" fill="#36464E"/>
<path d="M13.7999 22.4089C13.7714 22.5658 13.7532 22.7245 13.7167 22.8805C13.6812 23.0329 13.6399 23.1853 13.5901 23.3333C13.5421 23.4751 13.483 23.6182 13.3972 23.7413C13.3136 23.8609 13.2039 23.964 13.0901 24.0542C12.867 24.2311 12.615 24.372 12.347 24.468C12.2119 24.5165 12.0741 24.5578 11.9341 24.5889C11.8612 24.6053 11.7874 24.6178 11.7132 24.6276C11.6514 24.6356 11.5905 24.6378 11.5354 24.6689C11.5119 24.6822 11.5159 24.7191 11.5385 24.7307C11.6332 24.7773 11.7661 24.7516 11.8674 24.7413C11.9856 24.7293 12.1034 24.7093 12.2185 24.6796C12.451 24.62 12.6763 24.5222 12.8821 24.3996C13.0843 24.2791 13.2879 24.1289 13.4367 23.9458C13.5914 23.7556 13.6781 23.532 13.7332 23.2951C13.7994 23.0116 13.8456 22.7031 13.8296 22.4116C13.8296 22.3942 13.803 22.3916 13.7999 22.4089Z" fill="#36464E"/>
<path d="M23.8652 31.7263C23.8487 31.5391 23.8123 31.3507 23.7434 31.1747C23.5989 30.8058 23.2923 30.6196 22.9212 30.5258C22.4834 30.4151 22.0301 30.3489 21.5843 30.2765C21.1287 30.2027 20.6718 30.1365 20.2149 30.0729C19.2892 29.944 18.3621 29.8249 17.4403 29.6694C16.5229 29.5147 15.6092 29.3254 14.7176 29.0565C13.8985 28.8094 13.0585 28.5031 12.4029 27.9351C10.9923 26.712 10.9403 24.6623 11.1127 22.9471C11.1372 22.7049 11.1669 22.4636 11.1958 22.2218C11.1972 22.2094 11.1781 22.2049 11.1763 22.2174C11.0647 23.1831 10.9345 24.1547 11.0305 25.1276C11.1092 25.9227 11.3416 26.7214 11.8021 27.3818C12.2794 28.0671 12.9874 28.5098 13.7509 28.8183C14.5856 29.1556 15.4683 29.3827 16.3478 29.5667C18.1776 29.9498 20.0443 30.112 21.8856 30.4276C22.1127 30.4667 22.3394 30.5076 22.5656 30.552C22.7727 30.5925 22.9852 30.6298 23.1789 30.7165C23.5972 30.9036 23.7163 31.3103 23.7638 31.7316C23.9389 33.2685 24.1994 40.2654 24.1972 40.5103C24.1972 40.532 24.2305 40.5298 24.2309 40.5085C24.2812 37.9214 24.0403 33.7036 23.8652 31.7263Z" fill="#36464E"/>
<path d="M23.2709 34.8272C23.2616 34.1507 23.2425 34.448 23.2274 33.772C23.2132 33.1343 23.2278 32.4849 23.1034 31.856C23.0532 31.6018 23.0078 31.2663 22.7354 31.1498C22.5954 31.0898 22.4403 31.0574 22.2927 31.0187C22.1323 30.9765 21.9714 30.9356 21.8092 30.9005C21.0621 30.7396 20.3061 30.6383 19.5487 30.5365C19.5349 30.5347 19.5292 30.5547 19.5434 30.5574C20.1834 30.6805 20.8243 30.8067 21.4598 30.9512C21.7776 31.0236 22.0954 31.0996 22.4092 31.1858C22.5385 31.2214 22.7136 31.2463 22.8038 31.3525C22.8981 31.4636 22.9256 31.6436 22.9581 31.78C23.1038 32.3974 23.0936 33.0418 23.1101 33.6716C23.1274 34.3249 23.1434 34.0049 23.1621 34.6578C23.1834 35.3907 23.2021 36.1258 23.2527 36.8574C23.2541 36.8769 23.2834 36.876 23.2838 36.8565C23.2985 36.18 23.2803 35.5036 23.2709 34.8272Z" fill="#36464E"/>
<path d="M29.1783 40.9672C29.0027 40.9285 27.3876 40.9054 27.0316 40.9014C26.3187 40.8938 24.0787 40.9036 23.6769 40.9458C23.6663 40.9472 23.6663 40.9645 23.6769 40.9658C24.0338 41.0072 25.4672 41.0352 25.8232 41.0374C26.5365 41.0414 28.9849 41.0396 29.1787 40.9992C29.1956 40.9952 29.1956 40.9707 29.1783 40.9672Z" fill="#36464E"/>
<path d="M17.163 23.8383C18.4404 23.9783 19.7097 24.2654 20.9453 24.6147C22.191 24.9667 23.4141 25.4049 24.5946 25.936C25.2577 26.2343 25.8999 26.5676 26.5368 26.9178C26.5493 26.9249 26.5377 26.9432 26.5253 26.9369C25.3826 26.3414 24.1866 25.8276 22.9759 25.3872C21.7697 24.948 20.5346 24.5867 19.2799 24.3138C18.5737 24.16 17.8621 24.0405 17.1493 23.9218C17.1026 23.9143 17.1155 23.8329 17.163 23.8383Z" fill="#36464E"/>
<path d="M20.7391 15.2284C22.4525 15.5978 25.5436 17.0378 26.856 18.0284C27.748 18.7018 27.8609 19.4418 27.6902 19.8315C27.22 20.9044 23.1427 19.1329 23.1391 18.9551C23.1365 18.8209 21.5347 17.9982 19.9374 16.536C19.172 15.8355 20.0031 15.0698 20.7391 15.2284Z" fill="#A0BCC5"/>
<path opacity="0.1" d="M22.0943 18.2155C21.4983 17.812 20.7183 17.2511 19.9379 16.5364C19.1717 15.836 20.0028 15.0693 20.7392 15.2289C20.8557 15.2538 20.9775 15.284 21.1041 15.3178L22.0943 18.2155Z" fill="#040000"/>
<path d="M27.5919 19.8751C27.1083 20.5457 25.895 20.6222 22.6701 21.2057C22.2239 21.2866 20.8114 18.7853 21.191 18.4835C21.6492 18.1195 24.2114 17.6284 24.3861 17.62C25.8603 17.5475 27.9199 19.4204 27.5919 19.8751Z" fill="#FAD2C3"/>
<path d="M21.6778 18.2609C21.6778 18.2609 20.4601 18.6684 19.8863 19.0809C19.1183 19.6329 18.6823 20.4258 18.5201 20.7689C18.1805 21.4853 17.8556 23.4524 18.4058 23.6449C18.9041 23.8191 19.1347 21.7915 19.1347 21.7915C19.1347 21.7915 18.5583 23.82 19.1965 23.9195C19.8347 24.0191 19.969 21.6502 19.969 21.6502C19.969 21.6502 19.4236 23.7475 20.0978 23.7462C20.6076 23.7453 20.8498 21.6066 20.8498 21.6066C20.8498 21.6066 20.3934 23.4124 20.9178 23.4342C21.497 23.4578 21.8445 21.4978 21.8445 21.4978C23.1863 21.328 23.7556 20.6982 24.1072 20.2022C24.1916 20.0818 21.6778 18.2609 21.6778 18.2609Z" fill="#FAD2C3"/>
<path d="M19.2892 21.0773C19.2127 21.3129 19.1341 21.5511 19.079 21.7929C19.0239 22.0347 18.9772 22.2787 18.9447 22.5244C18.8652 23.1276 18.9101 23.5173 18.9101 23.4929C18.907 22.916 19.091 22.0476 19.1461 21.8058C19.2012 21.5644 19.2439 21.3204 19.299 21.0791C19.2999 21.0733 19.291 21.072 19.2892 21.0773Z" fill="#263138"/>
<path d="M20.1657 21.2605C20.0812 21.5658 19.9861 21.8658 19.9155 22.1751C19.8448 22.4827 19.8048 22.7809 19.7555 23.0925C19.7519 23.1165 19.7657 23.1107 19.7706 23.0867C19.8324 22.7773 19.9132 22.496 19.9786 22.1871C20.0435 21.8796 20.0972 21.5671 20.1732 21.2622C20.1741 21.2573 20.167 21.256 20.1657 21.2605Z" fill="#263138"/>
<path d="M20.9462 21.2827C20.7933 21.7427 20.7253 22.2302 20.6702 22.7102C20.6675 22.7342 20.6849 22.7244 20.6893 22.7004C20.772 22.224 20.8338 21.8498 20.9622 21.288C20.964 21.2791 20.9493 21.2729 20.9462 21.2827Z" fill="#263138"/>
<path d="M21.6406 18.0386L24.4126 21.2168C24.4126 21.2168 27.23 20.6133 27.6602 19.8888C27.9433 19.4119 25.8682 17.4235 24.2455 17.6271L21.6406 18.0386Z" fill="#A0BCC5"/>
<path d="M26.1695 18.1653C25.9108 17.9724 25.1824 17.5204 24.2428 17.6244C24.2344 17.6253 24.2339 17.6386 24.2428 17.6386C24.9499 17.6289 25.8988 18.0124 26.1633 18.1769C26.1704 18.1809 26.1762 18.1702 26.1695 18.1653Z" fill="#7599A1"/>
<path d="M25.1898 20.7026C24.9035 20.3368 24.5982 19.9866 24.292 19.6373C23.9853 19.288 23.6795 18.9373 23.3644 18.5955C23.1862 18.4022 23.0093 18.208 22.8244 18.0213C22.8195 18.0164 22.8102 18.0231 22.8146 18.0288C23.1 18.3942 23.4044 18.7457 23.708 19.0968C24.012 19.4484 24.3204 19.7973 24.6315 20.1426C24.8075 20.3377 24.9866 20.5302 25.1715 20.7168C25.1804 20.7262 25.1982 20.7133 25.1898 20.7026Z" fill="#7599A1"/>
<path d="M21.6357 17.9977C21.8086 17.943 21.9873 17.9159 22.1655 17.8853C22.3437 17.8546 22.5224 17.8266 22.7015 17.8008C23.0575 17.7488 23.806 17.5986 24.462 17.6097C24.4691 17.6097 24.4317 17.6444 24.4242 17.6439C24.1122 17.6226 21.8677 18.0355 21.6837 18.0457C21.6909 18.0577 21.6975 18.0702 21.7029 18.0835C21.7064 18.0924 21.6975 18.1044 21.6877 18.0977C21.6651 18.0817 21.6486 18.0622 21.6273 18.0448C21.61 18.0306 21.6131 18.0048 21.6357 17.9977Z" fill="#7599A1"/>
<path d="M10.1934 22.0685C10.1978 22.0987 18.7614 23.4663 18.7614 23.4663C18.7916 23.4578 19.3756 22.9974 19.4881 22.7574C19.6321 22.4498 19.3063 21.2778 19.4618 20.888C20.3925 18.5591 21.3223 17.7205 21.4392 16.2747C21.4872 15.6823 20.621 14.8991 19.9085 14.8716C14.7227 14.6703 10.1778 21.9596 10.1934 22.0685Z" fill="#A0BCC5"/>
<path d="M19.8885 17.0902C19.7147 16.7422 20.0507 15.7089 20.4823 15.172C20.5121 15.1355 20.9396 15.0271 21.453 14.8707C21.7641 14.7747 22.1085 14.6604 22.4147 14.5333L22.7441 16.6493C22.7441 16.6493 22.0232 16.7267 21.4899 16.9511C21.4454 16.9702 21.4059 16.992 21.3694 17.0164C21.3641 17.0195 21.3574 17.024 21.3499 17.028C21.1272 17.1662 20.1605 17.6355 19.8885 17.0902Z" fill="#FAD2C3"/>
<path d="M21.2576 16.8356C21.2861 16.9076 21.3167 16.9711 21.3505 17.0289C21.3585 17.024 21.3647 17.0196 21.3709 17.0173C21.4065 16.9924 21.4461 16.9702 21.4914 16.9516C22.0229 16.7267 22.7456 16.6498 22.7456 16.6498L22.4403 14.6862C21.9763 14.9702 20.8518 15.7884 21.2576 16.8356Z" fill="#E1BCB1"/>
<path d="M24.4536 13.6774C23.6843 13.7356 21.8394 14.8725 21.587 15.5338C21.2212 16.4929 21.6119 17.6774 22.6767 17.8911C23.7087 18.0982 26.087 16.5738 26.2763 15.8707C26.5559 14.8351 25.5901 13.5916 24.4536 13.6774Z" fill="#FAD2C3"/>
<path d="M24.7945 17.0405C24.7989 16.9885 24.7941 16.94 24.7932 16.8885C24.7918 16.8302 24.7972 16.7836 24.7621 16.7334C24.7434 16.7067 24.6958 16.6987 24.6683 16.7147C24.6038 16.7511 24.5874 16.8231 24.5861 16.8934C24.5843 16.9698 24.6029 17.0289 24.6496 17.0889C24.6949 17.1476 24.7892 17.1089 24.7945 17.0405Z" fill="#342D23"/>
<path d="M24.0505 15.7031C24.0945 15.7307 24.1305 15.7636 24.1713 15.7956C24.2171 15.8316 24.2576 15.8556 24.2767 15.9133C24.2869 15.9445 24.2647 15.9871 24.2353 15.9996C24.1673 16.0293 24.1002 15.9991 24.0429 15.9578C23.9811 15.9133 23.9447 15.8631 23.9247 15.7893C23.9051 15.7187 23.9922 15.6667 24.0505 15.7031Z" fill="#342D23"/>
<path d="M22.494 16.4614C22.4718 16.5063 22.4371 16.5556 22.45 16.6089C22.462 16.66 22.5038 16.7107 22.5363 16.7503C22.5394 16.7543 22.5363 16.7605 22.5309 16.7587C22.4643 16.7396 22.4043 16.6734 22.394 16.6031C22.3838 16.5351 22.4291 16.4845 22.4829 16.4494C22.4905 16.4449 22.4971 16.4547 22.494 16.4614Z" fill="#342D23"/>
<path d="M22.898 16.6347C23.0656 16.8405 23.0998 16.9947 23.1513 17.1405C23.1611 17.1547 23.1896 17.1836 23.2056 17.1791L23.2064 17.1787C23.2113 17.176 23.4833 17.0289 23.4833 17.0289C23.4833 17.0751 23.4931 17.3063 23.5447 17.2769C23.9691 17.0307 24.4416 16.7574 24.8118 16.4231C24.8247 16.4129 24.81 16.3925 24.7962 16.4009C24.3789 16.6214 24.0029 16.9134 23.5873 17.1414C23.5798 17.0698 23.5731 16.9503 23.5451 16.8978C23.5336 16.8854 23.2602 17.0711 23.2122 17.0894C23.2122 17.0894 23.1749 16.8218 22.914 16.6063C22.8562 16.5574 22.8367 16.5596 22.898 16.6347Z" fill="#342D23"/>
<path d="M22.8301 16.9675C22.8767 17.0249 23.1745 17.0311 23.1501 16.9137C23.1256 16.7964 22.9607 16.5644 22.7603 16.5311C22.5843 16.5017 22.8114 16.7897 22.8087 16.8506C22.8069 16.9013 22.7967 16.9262 22.8301 16.9675Z" fill="#342D23"/>
<path d="M22.8083 16.8511C22.8079 16.8627 22.8066 16.8715 22.8066 16.8804C22.8919 16.8533 22.9688 16.7542 22.9172 16.5987C22.8692 16.5649 22.8159 16.5395 22.7599 16.5307C22.5848 16.5022 22.811 16.7902 22.8083 16.8511Z" fill="#F094B3"/>
<path d="M23.8278 16.1804C23.8323 16.1764 23.8154 16.1742 23.8105 16.1777C23.6847 16.2609 23.526 16.3351 23.4118 16.2453C23.4083 16.2426 23.402 16.2466 23.4051 16.2506C23.5127 16.38 23.7216 16.2795 23.8278 16.1804Z" fill="#263138"/>
<path d="M23.69 16.2698C23.6545 16.284 23.6131 16.2911 23.5687 16.284C23.5247 16.2773 23.4838 16.2458 23.4598 16.208C23.4349 16.1689 23.4336 16.1133 23.4518 16.0738C23.4696 16.0342 23.4954 16.0027 23.5251 15.9782C23.5438 15.9627 23.5643 15.9493 23.5847 15.9369C23.6287 15.9111 23.6767 15.8929 23.7269 15.8898C23.694 15.9071 23.6634 15.9275 23.6363 15.9507C23.61 15.9724 23.5865 15.9947 23.5651 16.0191C23.5207 16.0698 23.494 16.1293 23.5234 16.1715C23.55 16.2187 23.6078 16.2302 23.6745 16.2151C23.7394 16.2009 23.8056 16.1733 23.8718 16.144C23.8225 16.1982 23.762 16.2427 23.69 16.2698Z" fill="#342D23"/>
<path d="M24.2807 16.9258C24.2865 16.924 24.2803 16.9396 24.2745 16.9422C24.1398 17.0102 23.9967 17.1107 24.0181 17.2547C24.0185 17.2591 24.0118 17.2622 24.0101 17.2578C23.9509 17.1005 24.1421 16.9689 24.2807 16.9258Z" fill="#263138"/>
<path d="M24.1353 17.0004C24.1051 17.024 24.0789 17.0569 24.0625 17.0987C24.0465 17.1404 24.0536 17.1916 24.0745 17.2307C24.0962 17.2716 24.1438 17.3 24.1869 17.3044C24.23 17.3084 24.2705 17.3018 24.3065 17.288C24.3296 17.2796 24.3509 17.2684 24.3722 17.2569C24.4167 17.2316 24.4558 17.1987 24.4838 17.1569C24.4527 17.1773 24.4193 17.1933 24.386 17.2053C24.354 17.2173 24.3229 17.2267 24.2913 17.2333C24.2256 17.2467 24.1607 17.2404 24.138 17.1942C24.1105 17.1476 24.1291 17.0916 24.1749 17.0413C24.2193 16.992 24.2762 16.9484 24.3345 16.9053C24.2633 16.9213 24.1949 16.9516 24.1353 17.0004Z" fill="#342D23"/>
<path d="M22.6357 14.4622C22.6882 14.7876 23.1366 14.8582 23.3504 14.8493C23.5642 14.8405 24.5046 14.2502 24.8389 14.2667C25.1731 14.2827 25.4611 14.5142 25.4997 14.784C25.5389 15.0538 25.3677 15.5045 25.4642 15.672C25.5611 15.84 25.9597 15.7076 26.0157 15.8293C26.1393 16.0978 25.6073 16.6862 25.3353 16.8698C25.3353 16.8698 26.7384 16.2418 26.2624 14.9027C25.7975 13.5965 24.75 13.5853 24.322 13.6529C23.342 13.8089 22.6357 14.4622 22.6357 14.4622Z" fill="#342D23"/>
<path d="M23.0418 15.0151C23.0418 15.0151 23.4952 14.3067 23.217 14.0831C22.9387 13.8596 22.1534 14.576 22.1672 14.9676C22.1809 15.3591 22.5436 15.3534 22.5436 15.3534L23.0418 15.0151Z" fill="#FAD2C3"/>
<path d="M22.9966 14.2938C22.9948 14.288 22.9868 14.2903 22.9868 14.2956C22.9886 14.5734 22.8197 14.7898 22.6273 14.972C22.686 14.8649 22.6944 14.7485 22.5615 14.6654C22.5544 14.6609 22.5473 14.6711 22.5513 14.6769C22.6126 14.7658 22.6246 14.8431 22.5735 14.9414C22.5375 15.0107 22.4806 15.0716 22.4308 15.1311C22.4144 15.1511 22.4415 15.1849 22.4624 15.1667C22.4642 15.1654 22.4655 15.164 22.4673 15.1627C22.7735 15.0436 23.1006 14.632 22.9966 14.2938Z" fill="#263138"/>
<path d="M21.2774 17.0498L20.8076 17.2618L20.8529 15.0471L20.0254 14.8293L19.7676 18.0645L20.7671 17.3893L20.8369 18.1271L21.2791 17.3365L21.2774 17.0498Z" fill="#EBEBEB"/>
<path d="M20.0254 14.8293L19.7676 18.0645L20.7671 17.3893L20.8369 18.1271L21.2791 17.3365" fill="white"/>
<path d="M20.0254 14.8293L19.7676 18.0645L20.7671 17.3893L20.8369 18.1271L21.2791 17.3365" stroke="#194E59" stroke-miterlimit="10"/>
<path d="M23.4214 18.264C23.2863 18.2756 23.1574 18.3587 23.1006 18.5063C23.0552 18.6236 23.0739 18.7614 23.1499 18.8614C23.2508 18.9938 23.4072 19.0383 23.5472 19.0009C23.5819 19.068 23.6383 19.1263 23.7117 19.168C23.8646 19.2547 24.065 19.2343 24.1961 19.1169C24.3681 18.9636 24.3832 18.7218 24.2623 18.5525L24.2726 18.5391C24.4201 18.3511 24.3606 18.0667 24.1286 17.9618C24.0134 17.9098 23.8734 17.9227 23.7686 17.9938C23.7219 18.0258 23.685 18.0645 23.6583 18.1071" fill="white"/>
<path d="M23.4214 18.264C22.8566 18.3236 23.005 19.1471 23.5543 19.0271L23.5237 19.0134C23.7148 19.384 24.2877 19.2969 24.3619 18.8863C24.3855 18.7654 24.3561 18.6365 24.2846 18.5369L24.2837 18.5689C24.6254 18.132 23.9677 17.6369 23.6588 18.1071C23.9623 17.6849 24.5748 18.1538 24.2286 18.5507C24.373 18.7289 24.3223 19.0125 24.1263 19.1303C23.937 19.2556 23.6543 19.1774 23.561 18.9685C23.0472 19.1094 22.901 18.3436 23.4214 18.264Z" fill="#263138"/>
<path d="M23.6011 17.8502C23.4509 17.6729 23.286 17.5102 23.1064 17.3627C23.2567 17.5404 23.422 17.7027 23.6011 17.8502Z" fill="#263138"/>
<path d="M23.274 18.0502C23.178 17.8587 23.0642 17.6782 22.9326 17.5089C23.0286 17.7005 23.1424 17.8809 23.274 18.0502Z" fill="#263138"/>
<path d="M23.5259 18.0631C23.397 17.8667 23.2522 17.6827 23.0908 17.512C23.2193 17.7089 23.3646 17.8925 23.5259 18.0631Z" fill="#263138"/>
<path d="M19.6552 16.4827C19.9192 18.1431 19.9601 20.1045 20.1597 22.3702C20.3823 24.8987 20.3997 27.4169 20.437 27.9614C20.4855 28.6618 16.8952 27.3591 16.9339 26.8783C16.9583 26.5707 17.0863 24.216 17.2086 22.0685C17.3308 19.9209 17.8881 17.708 18.209 16.2774C18.5797 14.6254 19.4606 15.2591 19.6552 16.4827Z" fill="#FAD2C3"/>
<path d="M20.3977 26.8373C20.3977 26.8373 20.4297 27.0853 20.4826 28.2987C20.519 29.1378 20.0724 31.2053 17.9137 32.1609C17.0866 32.5271 16.4684 32.1067 17.2604 31.5738C17.8181 31.1982 18.2368 30.9862 18.3844 30.8129C18.3844 30.8129 17.3586 30.7311 17.0533 30.2187C16.9168 29.9898 16.559 29.3565 16.3506 28.8236C16.3506 28.8236 16.4546 28.7471 16.5999 28.6689C16.5999 28.6689 16.4204 27.548 16.9337 26.8782L20.3977 26.8373Z" fill="#FAD2C3"/>
<path d="M20.3895 29.1053C20.1148 29.4493 19.5201 30.1684 18.829 30.588C18.0615 31.0538 16.4575 31.744 16.1197 31.1738C15.8721 30.7555 16.461 30.4382 16.461 30.4382C16.461 30.4382 15.7379 30.5835 15.5966 30.1573C15.4677 29.7684 15.9383 29.5502 15.9383 29.5502C15.9383 29.5502 15.4846 29.5631 15.4326 29.1649C15.3703 28.6858 16.3317 28.7373 16.6877 28.1978C16.7681 28.076 20.3895 29.1053 20.3895 29.1053Z" fill="#FAD2C3"/>
<path d="M18.4724 29.6946C18.1609 29.976 17.2897 30.4329 16.4773 30.4471C16.4591 30.4475 16.4489 30.4338 16.4653 30.4298C17.3564 30.224 18.1431 29.8609 18.468 29.6871C18.4724 29.6849 18.476 29.6915 18.4724 29.6946Z" fill="#263138"/>
<path d="M17.9798 28.9333C17.686 29.1484 16.7674 29.5791 15.9434 29.5658C15.9251 29.5653 15.9158 29.5511 15.9327 29.548C16.8727 29.3711 17.6416 29.0804 17.9758 28.9262C17.9807 28.924 17.9838 28.9307 17.9798 28.9333Z" fill="#263138"/>
<path d="M20.6711 26.8325L16.5889 26.6C16.5889 26.6 16.8222 22.7165 16.9426 21.392C17.0631 20.0676 17.8893 16.9942 18.248 15.8969C18.6066 14.7996 19.376 15.0729 19.672 16.2916C19.9684 17.5098 20.1604 21.6262 20.1955 21.7538C20.2306 21.8809 20.6711 26.8325 20.6711 26.8325Z" fill="#A0BCC5"/>
<path d="M18.631 25.9333C18.9016 25.9471 19.1723 25.9542 19.443 25.9618C19.5728 25.9653 19.703 25.9702 19.8332 25.9693C19.9732 25.9684 20.1168 25.9791 20.2563 25.9684C20.2661 25.9675 20.267 25.9551 20.2572 25.9533C20.1194 25.9293 19.9759 25.9262 19.8368 25.9115C19.7074 25.8982 19.5776 25.8907 19.4479 25.8813C19.1776 25.8627 18.9079 25.844 18.6372 25.8311C18.0954 25.8062 17.555 25.7964 17.0123 25.7938C16.9994 25.7938 16.9981 25.8129 17.011 25.8142C17.551 25.8635 18.0896 25.9058 18.631 25.9333Z" fill="#7599A1"/>
<path d="M16.7666 23.8005C16.8244 22.7005 16.8293 21.5903 17.0053 20.5009C17.2208 19.4178 17.5044 18.3529 17.8359 17.3005C17.6257 18.2534 17.2999 19.5791 17.1262 20.5231C16.939 21.6063 16.923 22.7116 16.7666 23.8005Z" fill="#7599A1"/>
<path d="M17.4761 18.5894C17.4481 18.3169 17.4614 18.0458 17.5174 17.7778C17.5454 18.0503 17.5316 18.3214 17.4761 18.5894Z" fill="#7599A1"/>
<path d="M21.1648 45.3823H20.7471L23.6893 22.7658H24.8466L21.1648 45.3823Z" fill="#F5C130"/>
<path d="M21.1648 45.3823H20.7471L23.6893 22.7658H24.8466L21.1648 45.3823Z" fill="#4C717A"/>
<path opacity="0.2" d="M24.8462 22.7658L24.7987 23.0574L23.624 23.2649L23.6889 22.7658H24.8462Z" fill="#040000"/>
<path d="M40.1578 21.0169H21.8369V21.584H40.1578V21.0169Z" fill="#F5C130"/>
<path d="M40.1578 21.0169H21.8369V21.584H40.1578V21.0169Z" fill="#658D92"/>
<path d="M39.6787 34.3987H22.3174V34.9658H39.6787V34.3987Z" fill="#F5C130"/>
<path d="M39.6787 34.3987H22.3174V34.9658H39.6787V34.3987Z" fill="#4C717A"/>
<path d="M39.1342 21.584H22.8613V22.7658H39.1342V21.584Z" fill="#F5C130"/>
<path d="M39.1342 21.584H22.8613V22.7658H39.1342V21.584Z" fill="#4C717A"/>
<path d="M40.8302 45.3823H41.2476L38.3058 22.7658H37.1484L40.8302 45.3823Z" fill="#F5C130"/>
<path d="M40.8302 45.3823H41.2476L38.3058 22.7658H37.1484L40.8302 45.3823Z" fill="#4C717A"/>
<path opacity="0.2" d="M37.1484 22.7658L37.196 23.0574L38.3707 23.2649L38.3058 22.7658H37.1484Z" fill="#040000"/>
<path d="M38.2738 33.5711C38.1564 33.3178 37.8831 31.9662 37.7778 31.1542C37.6724 30.3422 38.0489 29.2796 38.4071 28.7213C38.7653 28.1631 38.9649 28.0529 39.0506 27.5431C39.1364 27.0333 39.4151 26.3591 39.9475 25.6747C40.4804 24.9902 40.7902 24.7329 41.1338 24.7596C41.4773 24.7862 41.5315 25.5791 41.5938 25.7329C41.656 25.8867 42.2124 26.2582 42.1538 26.8778C42.0951 27.4973 41.9338 27.7369 41.9498 27.9431C41.9658 28.1489 42.2262 28.4324 42.0862 28.9493C41.9462 29.4662 41.0866 29.9796 40.9066 30.2653C40.7266 30.5511 40.4511 31.3187 40.1098 31.7324C39.7684 32.1458 39.1538 32.5013 38.9053 32.8053C38.6569 33.1093 38.2738 33.5711 38.2738 33.5711Z" fill="#F5C130"/>
<path d="M38.2738 33.5711C38.1564 33.3178 37.8831 31.9662 37.7778 31.1542C37.6724 30.3422 38.0489 29.2796 38.4071 28.7213C38.7653 28.1631 38.9649 28.0529 39.0506 27.5431C39.1364 27.0333 39.4151 26.3591 39.9475 25.6747C40.4804 24.9902 40.7902 24.7329 41.1338 24.7596C41.4773 24.7862 41.5315 25.5791 41.5938 25.7329C41.656 25.8867 42.2124 26.2582 42.1538 26.8778C42.0951 27.4973 41.9338 27.7369 41.9498 27.9431C41.9658 28.1489 42.2262 28.4324 42.0862 28.9493C41.9462 29.4662 41.0866 29.9796 40.9066 30.2653C40.7266 30.5511 40.4511 31.3187 40.1098 31.7324C39.7684 32.1458 39.1538 32.5013 38.9053 32.8053C38.6569 33.1093 38.2738 33.5711 38.2738 33.5711Z" fill="#CCD8DB"/>
<g opacity="0.2">
<path d="M38.3018 33.2209C38.3773 32.8853 38.4595 32.5511 38.5458 32.2178C38.6333 31.8849 38.7266 31.5533 38.8262 31.224C38.9253 30.8942 39.0342 30.5671 39.1564 30.2449C39.1853 30.1635 39.2191 30.0844 39.2515 30.0044C39.2826 29.924 39.3186 29.8453 39.3542 29.7671C39.3893 29.688 39.4262 29.6106 39.46 29.5324C39.4938 29.4538 39.5249 29.3738 39.5551 29.2938C39.7924 28.6493 39.9511 27.9782 40.1195 27.3115C40.2031 26.9778 40.2853 26.6435 40.3769 26.3115C40.4235 26.1458 40.4724 25.9804 40.5284 25.8178C40.5853 25.6555 40.6449 25.492 40.7386 25.3475C40.6475 25.4942 40.592 25.6586 40.5386 25.8213C40.4862 25.9849 40.4409 26.1511 40.3978 26.3173C40.3106 26.6498 40.2324 26.9849 40.1524 27.32C40.0733 27.6551 39.9906 27.9893 39.9018 28.3218C39.812 28.6542 39.716 28.9858 39.5964 29.3098C39.5658 29.3906 39.5342 29.4706 39.4995 29.5502C39.4649 29.6293 39.4271 29.7075 39.3924 29.7858C39.3564 29.8635 39.3209 29.9413 39.2893 30.0213C39.2569 30.1009 39.2231 30.1795 39.1938 30.2604C39.0702 30.5809 38.9622 30.9075 38.8582 31.2351C38.7546 31.5631 38.6582 31.8933 38.5662 32.2244C38.4738 32.5546 38.3844 32.8871 38.3018 33.2209Z" fill="#040000"/>
<path d="M38.303 29.6586C38.2932 29.7706 38.2839 29.8826 38.2786 29.9951C38.2719 30.1071 38.267 30.2195 38.2648 30.3315C38.2612 30.556 38.2626 30.7804 38.287 31.0031C38.3079 31.2262 38.3457 31.4475 38.3861 31.6684C38.4061 31.7791 38.4288 31.8889 38.4528 31.9986C38.4755 32.1089 38.5012 32.2182 38.527 32.328C38.4568 32.1137 38.4008 31.8955 38.3528 31.6751C38.3052 31.4546 38.2675 31.232 38.243 31.0071C38.2221 30.7817 38.2203 30.5551 38.231 30.3302C38.243 30.1053 38.2648 29.8809 38.303 29.6586Z" fill="#040000"/>
<path d="M40.5877 30.116C40.4628 30.3026 40.3322 30.4849 40.1984 30.6657C40.0651 30.8462 39.926 31.0231 39.7824 31.196C39.7082 31.2804 39.6353 31.3666 39.5468 31.4409C39.458 31.5129 39.3611 31.5724 39.262 31.6253C39.0633 31.7315 38.8566 31.8213 38.6455 31.8973C38.7477 31.8506 38.8495 31.8035 38.9495 31.7529C39.05 31.7035 39.1491 31.6515 39.2455 31.5951C39.3411 31.5382 39.4371 31.48 39.5215 31.4093C39.6046 31.3377 39.6762 31.2511 39.7491 31.1666C39.8948 30.9969 40.0331 30.8204 40.1722 30.6444L40.5877 30.116Z" fill="#040000"/>
<path d="M39.2974 27.8702C39.2921 27.9542 39.2854 28.0377 39.2819 28.1217C39.2765 28.2057 39.2725 28.2893 39.2694 28.3733C39.2632 28.5408 39.2574 28.7088 39.2588 28.8764C39.2574 29.044 39.2636 29.2115 39.2725 29.3791C39.2792 29.4626 39.2836 29.5462 39.2943 29.6293C39.3005 29.7133 39.3161 29.7955 39.3263 29.8791C39.2832 29.7164 39.2565 29.5493 39.2383 29.3813C39.2223 29.2133 39.2161 29.0448 39.2139 28.876C39.2161 28.7075 39.2214 28.5386 39.2352 28.3711C39.249 28.2035 39.2676 28.036 39.2974 27.8702Z" fill="#040000"/>
<path d="M41.6375 26.7106C41.5313 26.8933 41.4095 27.0662 41.2806 27.2342C41.1518 27.4017 41.0113 27.5609 40.8655 27.7142C40.7157 27.864 40.558 28.0062 40.3895 28.1346C40.2189 28.2604 40.0371 28.3711 39.8438 28.4569C39.9344 28.4022 40.0286 28.3551 40.1135 28.2924C40.2029 28.2369 40.2846 28.1706 40.3686 28.1075C40.5313 27.9746 40.6873 27.8342 40.8335 27.6831C40.9811 27.5333 41.1197 27.3751 41.254 27.2129C41.3211 27.132 41.3864 27.0493 41.45 26.9653C41.5149 26.8826 41.5766 26.7969 41.6375 26.7106Z" fill="#040000"/>
<path d="M41.2479 26.2924C41.1844 26.4271 41.1084 26.5551 41.0279 26.6804C40.947 26.8053 40.8595 26.9262 40.763 27.0404C40.6657 27.1533 40.5644 27.264 40.4479 27.3586C40.3324 27.4533 40.207 27.5382 40.0684 27.5929C40.1004 27.5733 40.1319 27.5546 40.1639 27.536C40.1964 27.5182 40.2244 27.4933 40.2546 27.4724C40.2692 27.4613 40.2848 27.4515 40.2995 27.4404L40.3417 27.4049C40.3697 27.3809 40.3995 27.3591 40.4252 27.3324L40.5052 27.2564L40.5817 27.1769C40.6079 27.1506 40.6319 27.1226 40.6564 27.0951C40.6808 27.0675 40.7057 27.0404 40.7284 27.0115C40.8244 26.8995 40.9119 26.7804 40.999 26.6609C41.0426 26.6013 41.0844 26.54 41.1252 26.4782C41.1684 26.4178 41.2079 26.3555 41.2479 26.2924Z" fill="#040000"/>
</g>
<path d="M37.1221 40.7929L36.875 40.8107C36.875 40.8107 37.0026 37.7325 37.3266 36.4818C37.7159 34.9782 38.2137 33.8525 38.1932 33.3214L38.4337 33.3782C38.4337 33.3782 37.7439 35.3405 37.5301 36.4116C37.3163 37.4831 37.1221 40.7929 37.1221 40.7929Z" fill="#F5C130"/>
<path d="M37.1221 40.7929L36.875 40.8107C36.875 40.8107 37.0026 37.7325 37.3266 36.4818C37.7159 34.9782 38.2137 33.8525 38.1932 33.3214L38.4337 33.3782C38.4337 33.3782 37.7439 35.3405 37.5301 36.4116C37.3163 37.4831 37.1221 40.7929 37.1221 40.7929Z" fill="#CCD8DB"/>
<path d="M35.7114 35.7751C35.7114 35.7751 35.7065 34.9973 35.7919 34.2849C35.8283 33.9809 35.6359 32.976 35.4643 32.512C35.2928 32.048 34.6057 30.6795 34.2857 30.4631C33.9657 30.2467 32.4839 29.5115 31.8541 29.5542C31.2248 29.5969 31.3781 30.1573 31.5594 30.5431C31.7408 30.9289 32.2834 31.5089 32.4772 31.8449C32.671 32.1809 33.1994 33.6955 33.4465 34.1178C33.6932 34.54 34.0768 35.2213 34.3821 35.4058C34.6874 35.5902 35.4892 35.6138 35.7114 35.7751Z" fill="#F5C130"/>
<path d="M35.7114 35.7751C35.7114 35.7751 35.7065 34.9973 35.7919 34.2849C35.8283 33.9809 35.6359 32.976 35.4643 32.512C35.2928 32.048 34.6057 30.6795 34.2857 30.4631C33.9657 30.2467 32.4839 29.5115 31.8541 29.5542C31.2248 29.5969 31.3781 30.1573 31.5594 30.5431C31.7408 30.9289 32.2834 31.5089 32.4772 31.8449C32.671 32.1809 33.1994 33.6955 33.4465 34.1178C33.6932 34.54 34.0768 35.2213 34.3821 35.4058C34.6874 35.5902 35.4892 35.6138 35.7114 35.7751Z" fill="#CCD8DB"/>
<g opacity="0.2">
<path d="M31.7822 29.7635C31.9213 29.824 32.0507 29.9053 32.1787 29.9867C32.3058 30.0698 32.4316 30.1547 32.5547 30.2435C32.8009 30.4213 33.04 30.6089 33.2702 30.8071C33.3844 30.9075 33.4978 31.0089 33.5996 31.124C33.6502 31.1827 33.6951 31.2444 33.7373 31.3075C33.7804 31.3702 33.8213 31.4342 33.8627 31.4982C34.0253 31.7551 34.1787 32.0169 34.328 32.2813C34.4018 32.4138 34.4742 32.5475 34.5444 32.6822C34.6142 32.8169 34.684 32.9529 34.74 33.0951C34.852 33.3773 34.9591 33.6613 35.064 33.9462L35.3782 34.8L35.6711 35.6618L35.3582 34.8075L35.0324 33.9578C34.9227 33.6751 34.8169 33.3907 34.7031 33.1102C34.6471 32.9702 34.5778 32.8364 34.5071 32.7018C34.4364 32.568 34.3636 32.4351 34.2893 32.3031C34.1413 32.0387 33.9893 31.7764 33.8289 31.5196C33.7884 31.4556 33.748 31.3915 33.7053 31.3293C33.6636 31.2662 33.6191 31.2053 33.5711 31.1489C33.4716 31.0364 33.36 30.9338 33.248 30.8324C33.0213 30.6315 32.7849 30.4418 32.5422 30.2604C32.4218 30.1684 32.2982 30.0809 32.1733 29.9951C32.0471 29.9111 31.92 29.8271 31.7822 29.7635Z" fill="#040000"/>
<path d="M32.0566 30.8076C32.1255 30.8573 32.1935 30.9076 32.2638 30.9547C32.3331 31.0031 32.4033 31.0502 32.4744 31.0947C32.6171 31.1831 32.7633 31.2707 32.9202 31.324C32.9598 31.3378 32.998 31.3476 33.0398 31.356C33.0815 31.3644 33.1229 31.3738 33.1646 31.3831C33.2473 31.4027 33.33 31.4222 33.4113 31.4453C33.5749 31.4902 33.7375 31.5378 33.898 31.592L33.65 31.536L33.4029 31.4787L33.1558 31.4227C33.1144 31.4138 33.0731 31.4053 33.0318 31.3978C32.9904 31.3902 32.9464 31.38 32.906 31.3662C32.8242 31.3373 32.7473 31.2991 32.6726 31.2578C32.5984 31.216 32.5251 31.172 32.4558 31.1231C32.3158 31.0267 32.182 30.9218 32.0566 30.8076Z" fill="#040000"/>
<path d="M34.083 30.608C34.1532 30.7462 34.199 30.8946 34.2488 31.0404C34.2977 31.1871 34.3417 31.3351 34.3835 31.4835C34.4035 31.5582 34.4239 31.6324 34.4421 31.708C34.451 31.7457 34.4599 31.7835 34.467 31.8217C34.4746 31.8609 34.4772 31.9017 34.4746 31.9409C34.4661 32.0986 34.4212 32.2489 34.3643 32.392C34.3848 32.3173 34.4035 32.2426 34.4163 32.1671C34.4306 32.092 34.4412 32.0155 34.4403 31.94C34.4403 31.9022 34.4363 31.8658 34.4288 31.8289C34.4208 31.792 34.411 31.7546 34.4012 31.7178C34.3821 31.6435 34.3612 31.5693 34.3403 31.4951L34.2159 31.0497C34.1955 30.9755 34.1741 30.9013 34.1523 30.8275C34.1315 30.7542 34.111 30.6795 34.083 30.608Z" fill="#040000"/>
<path d="M33.4141 32.9133L33.6025 33.0644C33.6647 33.1151 33.7274 33.1658 33.791 33.2151C33.9176 33.3138 34.0443 33.4133 34.1781 33.4991L34.2287 33.5298L34.2807 33.556L34.3901 33.6071C34.4625 33.6418 34.5358 33.6756 34.6078 33.7116L34.8247 33.8182C34.8963 33.8551 34.9687 33.8907 35.0394 33.9289C34.9643 33.9 34.8901 33.868 34.8154 33.8378L34.5936 33.7427C34.5194 33.7111 34.4465 33.6778 34.3727 33.6453L34.263 33.5956L34.207 33.568L34.1541 33.5364C34.0172 33.4476 33.8914 33.3462 33.7692 33.2413C33.647 33.136 33.5278 33.0276 33.4141 32.9133Z" fill="#040000"/>
<path d="M33.2539 33.4929C33.3246 33.5533 33.3952 33.6142 33.4677 33.6724C33.5397 33.7315 33.6117 33.7897 33.6863 33.8453C33.761 33.9004 33.8348 33.9564 33.9126 34.0066C33.9895 34.0577 34.069 34.1049 34.1521 34.1422C34.1935 34.1626 34.2352 34.1764 34.2797 34.1897L34.4148 34.2244C34.505 34.248 34.5952 34.2697 34.685 34.2946L34.9544 34.368C35.0437 34.3942 35.1335 34.4186 35.2228 34.4462C35.1312 34.4284 35.0406 34.4084 34.949 34.3893L34.6766 34.328C34.5855 34.308 34.4952 34.2849 34.4046 34.2635L34.2686 34.2306C34.2232 34.2182 34.1761 34.2031 34.1339 34.1826C34.0477 34.1426 33.9672 34.0933 33.8899 34.04C33.8121 33.9875 33.737 33.9315 33.665 33.872C33.521 33.7533 33.3824 33.628 33.2539 33.4929Z" fill="#040000"/>
</g>
<path d="M35.6055 35.6804C35.6824 35.7884 35.9064 36.5164 36.0597 37.3111C36.265 38.3747 36.4895 40.8387 36.4895 40.8387L36.745 40.8204C36.745 40.8204 36.3699 37.8929 36.2055 37.1769C36.0415 36.4613 35.6908 35.6107 35.6908 35.6107L35.6055 35.6804Z" fill="#F5C130"/>
<path d="M35.6055 35.6804C35.6824 35.7884 35.9064 36.5164 36.0597 37.3111C36.265 38.3747 36.4895 40.8387 36.4895 40.8387L36.745 40.8204C36.745 40.8204 36.3699 37.8929 36.2055 37.1769C36.0415 36.4613 35.6908 35.6107 35.6908 35.6107L35.6055 35.6804Z" fill="#CCD8DB"/>
<path d="M37.6735 37.4302C37.7401 37.0866 37.7655 36.8964 37.6815 36.4564C37.5979 36.0164 37.3281 35.5671 37.5619 35.1724C37.7952 34.7782 38.3348 34.492 38.4206 34.2382C38.5064 33.9844 38.7699 33.3013 39.3464 32.8044C39.9228 32.3071 40.6388 31.9431 41.0059 31.6173C41.373 31.2915 41.8135 30.7129 42.0864 30.8884C42.3592 31.064 41.9926 32.8409 41.7739 33.0622C41.5552 33.2835 41.2877 34.8133 40.917 35.0875C40.5459 35.3617 40.1984 35.4129 40.1148 35.5226C40.0317 35.6329 39.8495 35.9973 39.5339 36.1373C39.2184 36.2773 38.505 36.68 38.1712 36.9253C37.837 37.1711 37.6735 37.4302 37.6735 37.4302Z" fill="#E1E9EB"/>
<g opacity="0.2">
<path d="M37.6738 37.4302C37.9552 36.8604 38.2605 36.3022 38.5858 35.756C38.9098 35.2089 39.2605 34.6769 39.6383 34.1653C40.0169 33.6542 40.4107 33.1555 40.7845 32.6422C40.9716 32.3857 41.1565 32.1275 41.3352 31.8649C41.5165 31.604 41.6921 31.3391 41.8663 31.0733C41.6983 31.3431 41.5289 31.612 41.3538 31.8773C41.1787 32.1426 40.9969 32.4035 40.8129 32.6626C40.4436 33.1804 40.0503 33.68 39.6743 34.1915C39.4854 34.4466 39.3014 34.7053 39.1258 34.9697C38.9503 35.2342 38.7809 35.5026 38.6152 35.7733C38.4494 36.044 38.2889 36.3182 38.1325 36.5946C37.9738 36.8702 37.8201 37.1484 37.6738 37.4302Z" fill="#040000"/>
<path d="M38.3848 36.1009L38.6679 35.9431C38.7621 35.8906 38.8563 35.8378 38.9501 35.784C39.1377 35.6769 39.3252 35.5706 39.5105 35.46C39.6972 35.352 39.8825 35.2413 40.0674 35.1298L40.6225 34.7955C40.5345 34.8582 40.4457 34.92 40.3563 34.9809C40.2661 35.0404 40.1763 35.1004 40.0852 35.1586C39.9039 35.276 39.7181 35.3866 39.5328 35.4978C39.3452 35.6053 39.1572 35.7124 38.9661 35.8133C38.775 35.9146 38.5821 36.0129 38.3848 36.1009Z" fill="#040000"/>
<path d="M38.8272 33.5417C38.8161 33.624 38.8045 33.7062 38.7961 33.7889C38.7859 33.8711 38.7774 33.9533 38.7694 34.036C38.7543 34.2009 38.7414 34.3657 38.7339 34.5311C38.7245 34.6964 38.7227 34.8617 38.7227 35.0271L38.7241 35.1511L38.7294 35.2751C38.7299 35.3582 38.7401 35.4404 38.7432 35.5235C38.7147 35.36 38.6956 35.1942 38.6885 35.028C38.6801 34.8617 38.681 34.6951 38.6894 34.5289C38.6983 34.3626 38.7125 34.1969 38.7356 34.032C38.7583 33.8671 38.7863 33.7031 38.8272 33.5417Z" fill="#040000"/>
<path d="M39.5862 32.6973C39.5737 32.7715 39.5599 32.8453 39.5493 32.9195C39.5368 32.9933 39.5253 33.0675 39.515 33.1418C39.4946 33.2902 39.475 33.4387 39.4599 33.5875C39.4448 33.7364 39.435 33.8853 39.4284 34.0351C39.427 34.1098 39.4239 34.1844 39.427 34.2596C39.4253 34.3347 39.4328 34.4089 39.435 34.4844C39.4079 34.3364 39.3973 34.1858 39.3946 34.0347C39.3937 33.884 39.4022 33.7333 39.4164 33.5831C39.4324 33.4333 39.4533 33.284 39.4821 33.1364C39.5097 32.988 39.5426 32.8409 39.5862 32.6973Z" fill="#040000"/>
<path d="M41.8835 32.4053C41.824 32.4604 41.7604 32.5115 41.6978 32.5631C41.6338 32.6133 41.5689 32.6622 41.5035 32.7102C41.3724 32.8066 41.2369 32.8964 41.0982 32.9817C40.9595 33.0666 40.8182 33.1475 40.6724 33.2204C40.528 33.2951 40.3791 33.3608 40.2275 33.4199C40.2987 33.3808 40.3724 33.3466 40.4431 33.3066C40.5147 33.2688 40.5862 33.2306 40.6564 33.1902C40.7973 33.1106 40.9373 33.0293 41.0747 32.9439C41.2129 32.8599 41.3489 32.7715 41.4835 32.6822C41.6187 32.5924 41.752 32.5004 41.8835 32.4053Z" fill="#040000"/>
</g>
<path d="M37.7232 37.1271C37.4227 37.8822 37.3027 40.78 37.3027 40.78L37.4774 40.7675C37.4774 40.7675 37.5703 37.6835 37.845 37.2169L37.7232 37.1271Z" fill="#E1E9EB"/>
<path d="M36.7839 34.4862C36.6884 34.0636 36.4586 33.5849 36.0404 33.1982C35.6217 32.8116 34.9017 32.2124 34.6031 30.9573C34.3044 29.7027 34.6511 28.4813 34.7155 28.1756C34.7804 27.8698 34.9493 27.4427 35.0897 27.4062C35.2302 27.3702 35.5533 27.516 35.8142 27.5236C36.0751 27.5307 36.5933 27.4938 37.0915 28.0827C37.5897 28.672 38.2155 29.0436 38.6186 29.9391C39.0217 30.8347 39.0595 32.4467 38.4857 32.9827C37.9124 33.5187 37.3395 33.7031 37.0982 33.968C36.8568 34.2333 36.7839 34.4862 36.7839 34.4862Z" fill="#E1E9EB"/>
<g opacity="0.2">
<path d="M35.2695 27.5498C35.3873 27.6382 35.4846 27.7507 35.5726 27.868C35.6611 27.9854 35.7411 28.1094 35.8166 28.2351C35.9664 28.4885 36.0984 28.7516 36.2215 29.0182C36.3451 29.2849 36.4566 29.5574 36.5602 29.8325C36.6118 29.9702 36.6611 30.1089 36.7069 30.2485C36.7531 30.388 36.7926 30.5307 36.8238 30.6751C36.8855 30.9636 36.9269 31.2547 36.9633 31.5462C36.9989 31.8378 37.0286 32.1302 37.0469 32.424C37.0562 32.5707 37.0642 32.7174 37.066 32.8649C37.07 33.0125 37.0544 33.1605 37.03 33.3054C36.9789 33.5951 36.9015 33.8796 36.8122 34.1591C36.8944 33.8774 36.9646 33.5916 37.0082 33.3022C37.0598 33.0129 37.0331 32.7191 37.0122 32.4271C36.9886 32.1347 36.9602 31.8431 36.9229 31.552C36.8855 31.2614 36.8424 30.9711 36.7802 30.6854C36.7211 30.3996 36.6224 30.1227 36.5224 29.8471C36.4206 29.572 36.3086 29.3014 36.1904 29.0329C36.0713 28.7649 35.9429 28.5014 35.798 28.2467C35.7255 28.1191 35.6491 27.9942 35.5638 27.8751C35.4789 27.7556 35.3851 27.6409 35.2695 27.5498Z" fill="#040000"/>
<path d="M34.7158 29.5693C34.8616 29.7164 35.0225 29.8462 35.1892 29.968C35.3558 30.0893 35.5269 30.2053 35.7029 30.3129C35.8789 30.4218 36.0514 30.5351 36.2429 30.6098C36.338 30.6493 36.4354 30.684 36.5332 30.7169C36.6309 30.7507 36.7296 30.7809 36.8292 30.8107C36.626 30.7689 36.4256 30.7138 36.2305 30.6418C36.1327 30.6067 36.0367 30.5613 35.9469 30.5093C35.8567 30.4582 35.7674 30.4053 35.6794 30.3507C35.5043 30.2391 35.3318 30.1231 35.1683 29.9951C35.0865 29.9311 35.0074 29.864 34.93 29.7942C34.8549 29.7227 34.7816 29.6493 34.7158 29.5693Z" fill="#040000"/>
<path d="M36.9939 28.168C37.0076 28.3218 37.013 28.4765 37.0121 28.6307C37.0112 28.7854 37.0041 28.94 36.9828 29.0943C36.9725 29.1711 36.9556 29.2485 36.9316 29.3231C36.9063 29.3974 36.8761 29.4694 36.8388 29.5378C36.7654 29.6751 36.6765 29.8036 36.5703 29.916C36.6161 29.8538 36.6596 29.7903 36.6988 29.7245C36.7388 29.6591 36.7756 29.592 36.8081 29.5227C36.8739 29.3845 36.921 29.24 36.9388 29.088C36.961 28.9369 36.969 28.7831 36.9783 28.6298C36.9828 28.5529 36.9854 28.476 36.9872 28.3991L36.9939 28.168Z" fill="#040000"/>
<path d="M38.4372 30.1351C38.411 30.2596 38.3803 30.3831 38.3505 30.5067C38.319 30.6298 38.2865 30.7529 38.2523 30.8756C38.1839 31.1205 38.1078 31.3636 38.0207 31.6036C37.9741 31.7222 37.9274 31.8414 37.8661 31.9551C37.8034 32.0702 37.719 32.1671 37.6305 32.26C37.4527 32.444 37.2567 32.608 37.0479 32.7534C37.147 32.6734 37.2439 32.5916 37.3367 32.5049C37.4305 32.4196 37.5212 32.3307 37.6056 32.2369C37.6887 32.1422 37.7732 32.0462 37.8305 31.936C37.8887 31.8249 37.9341 31.7062 37.979 31.588C38.0687 31.3511 38.1439 31.1085 38.2194 30.8658C38.2945 30.6231 38.3661 30.3791 38.4372 30.1351Z" fill="#040000"/>
<path d="M35.2578 31.5485L35.4525 31.7902C35.5169 31.8711 35.5818 31.9516 35.6476 32.0316C35.7787 32.1911 35.9094 32.3516 36.0467 32.5058C36.1814 32.6622 36.3227 32.8125 36.4791 32.9454C36.5569 33.0125 36.6396 33.0742 36.7267 33.128C36.8138 33.1822 36.9054 33.2316 37.0054 33.2591C36.9027 33.2414 36.8071 33.1956 36.7156 33.1471C36.6245 33.0965 36.5387 33.0365 36.4574 32.972C36.2943 32.8422 36.1507 32.6898 36.0134 32.5351C35.8783 32.3778 35.7467 32.2173 35.6209 32.0529C35.4956 31.888 35.3729 31.7209 35.2578 31.5485Z" fill="#040000"/>
<path d="M37.9072 30.72C37.8672 30.864 37.8201 31.0054 37.7707 31.1463C37.7214 31.2871 37.6667 31.4258 37.6067 31.5631C37.5765 31.6316 37.5441 31.6991 37.5098 31.7658C37.4912 31.7987 37.4738 31.832 37.453 31.8636L37.4214 31.9111L37.3827 31.9556C37.2734 32.0587 37.1512 32.1494 37.0156 32.2125C37.0792 32.1734 37.1392 32.1294 37.1961 32.0818C37.2534 32.0351 37.3081 31.9849 37.3587 31.9316C37.405 31.8791 37.4383 31.8111 37.4725 31.7467C37.5054 31.6805 37.537 31.6134 37.5663 31.5454C37.6267 31.4098 37.6823 31.272 37.7392 31.1343L37.9072 30.72Z" fill="#040000"/>
</g>
<path d="M36.6539 40.8267L36.4121 40.844C36.4121 40.844 36.917 35.4378 36.7028 34.2062L36.8632 34.3031C36.8632 34.3031 37.1388 38.1351 36.6539 40.8267Z" fill="#E1E9EB"/>
<path d="M38.8331 45.3822H35.2615L34.8633 39.9751H39.2313L38.8331 45.3822Z" fill="#E1E9EB"/>
<path d="M34.8633 39.9747L34.9673 41.3924H39.1264L39.2308 39.9747H34.8633Z" fill="#C1D4D8"/>
<path opacity="0.1" d="M38.8331 45.3822L36.2455 44.084L35.2819 39.9751H34.8633L35.2615 45.3822H38.8331Z" fill="#040000"/>
</g>
</g>
<defs>
<clipPath id="clip0_1141_49275">
<rect width="48" height="48" rx="24" fill="white"/>
</clipPath>
<clipPath id="clip1_1141_49275">
<rect width="48" height="48" fill="white"/>
</clipPath>
</defs>
</svg>
