<svg width="48" height="48" viewBox="0 0 48 48" fill="none" xmlns="http://www.w3.org/2000/svg">
<g clip-path="url(#clip0_1141_49278)">
<rect width="48" height="48" rx="24" fill="white"/>
<g clip-path="url(#clip1_1141_49278)">
<g clip-path="url(#clip2_1141_49278)">
<g opacity="0.38">
<path d="M35.1633 11.8409H30.2295V13.1462H35.1633V11.8409Z" fill="#C3DAE4"/>
</g>
<path d="M35.0725 25.4996H30.1387V26.8049H35.0725V25.4996Z" fill="#F5F5F5"/>
<g opacity="0.38">
<path d="M44.3273 19.4573H39.3936V20.7627H44.3273V19.4573Z" fill="#C3DAE4"/>
</g>
<g opacity="0.38">
<path d="M18.843 5.8089H13.9092V7.11423H18.843V5.8089Z" fill="#C3DAE4"/>
</g>
<g opacity="0.38">
<path d="M33.0774 14.5209C33.0769 14.5205 33.0765 14.5125 33.076 14.4974C33.0756 14.48 33.0751 14.4578 33.0743 14.4302C33.0734 14.3689 33.072 14.2831 33.0707 14.1734C33.0689 13.948 33.0658 13.624 33.0623 13.2156L33.0774 13.2307C31.9507 13.2329 30.1591 13.2365 28.1436 13.2405C28.1547 13.2294 28.1183 13.2654 28.1685 13.2156V13.216V13.2165V13.2178V13.2205V13.2258V13.2365V13.2574V13.2991V13.3827C28.1685 13.4382 28.1685 13.4938 28.1685 13.5494C28.1685 13.66 28.1685 13.7698 28.1685 13.8787C28.1685 14.0965 28.168 14.3107 28.168 14.5209L28.1436 14.4965C29.5485 14.5009 30.7778 14.5049 31.6596 14.5076C32.0987 14.5107 32.4511 14.5129 32.6974 14.5147C32.8169 14.516 32.9107 14.5174 32.9778 14.5178C33.008 14.5182 33.032 14.5191 33.0511 14.5196C33.068 14.52 33.0769 14.5205 33.0774 14.5209C33.0778 14.5214 33.0703 14.5218 33.0547 14.5227C33.0365 14.5231 33.0134 14.5236 32.9845 14.5245C32.9187 14.5254 32.8267 14.5262 32.7094 14.5276C32.4645 14.5294 32.1138 14.5316 31.6774 14.5347C30.7911 14.5374 29.556 14.5414 28.144 14.5458H28.1196V14.5214C28.1196 14.3116 28.1191 14.0974 28.1191 13.8791C28.1191 13.7702 28.1191 13.6605 28.1191 13.5498C28.1191 13.4947 28.1191 13.4391 28.1191 13.3831V13.2996V13.2578V13.2369V13.2262V13.2209V13.2183V13.2169V13.2165V13.216C28.1694 13.1658 28.1334 13.2023 28.1445 13.1907C30.16 13.1947 31.9516 13.1983 33.0783 13.2005H33.0938V13.2156C33.0903 13.628 33.0871 13.9547 33.0854 14.1823C33.0836 14.2907 33.0827 14.3751 33.0818 14.4356C33.0814 14.4618 33.0805 14.4831 33.08 14.5C33.0783 14.5142 33.0778 14.5214 33.0774 14.5209Z" fill="#C3DAE4"/>
</g>
<g opacity="0.69">
<path d="M-0.065418 37.4787C-0.371196 36.5 -0.390307 35.4334 -0.11964 34.4445C-0.0125291 34.0538 0.166582 33.6427 0.527915 33.4596C0.558582 33.444 0.594582 33.4298 0.627026 33.4422C0.657693 33.4538 0.675471 33.4854 0.689693 33.5147C0.818137 33.7831 0.855471 34.088 0.842138 34.3854C0.828804 34.6827 0.767026 34.9756 0.705693 35.2667C0.591915 35.8054 0.531471 36.384 0.235915 36.8485C0.165693 36.9587 0.103915 37.0778 0.0479153 37.196C-0.00808471 37.3142 -0.00852914 37.3556 -0.0596402 37.4494" fill="#E0E0E0"/>
<path d="M3.69916 38.0396C3.42049 36.9787 3.71649 35.6925 4.38494 34.8227C4.43427 34.7587 4.4996 34.6898 4.58005 34.6973C4.70316 34.7089 4.73516 34.8729 4.72938 34.9965C4.68094 36.0805 4.3196 37.1489 3.69916 38.0396Z" fill="#E0E0E0"/>
<path d="M4.03809 38.2715C5.32697 38.6071 6.80564 38.2809 7.87764 37.4907C7.24253 37.1689 6.4932 37.0769 5.79897 37.2355C5.10475 37.3942 4.47009 37.7053 4.03809 38.2715Z" fill="#E0E0E0"/>
<path d="M4.3252 37.5653C5.04697 36.3885 6.43097 35.6205 7.81008 35.5502C7.65142 36.1111 7.19053 36.5471 6.67053 36.8102C6.15053 37.0738 5.57008 37.1885 4.99764 37.2996C4.77497 37.3427 4.46964 37.3902 4.3252 37.5653Z" fill="#E0E0E0"/>
<path d="M3.7713 34.1373C3.96686 33.4675 4.1633 32.792 4.21708 32.0964C4.27086 31.4009 4.17175 30.6746 3.81042 30.0778C3.13619 31.3826 3.06775 32.9071 3.75086 34.2071" fill="#E0E0E0"/>
<path d="M6.04102 32.9902C6.82946 31.5569 8.43835 30.4125 10.0663 30.252C9.4379 31.8156 7.72546 33.0236 6.04102 32.9902Z" fill="#E0E0E0"/>
<path d="M5.54492 33.2711C6.72092 33.4502 7.7227 34.2013 8.82181 34.6565C9.05692 34.7538 9.31025 34.8316 9.5627 34.7982C9.81514 34.7653 10.064 34.596 10.1205 34.348C10.1676 34.1422 10.0738 33.9236 9.92581 33.7725C9.77781 33.6213 9.5827 33.5271 9.38759 33.4462C8.1907 32.948 6.90714 32.9356 5.64626 33.2378" fill="#E0E0E0"/>
<path d="M4.86426 34.0956C5.13048 34.172 5.22159 34.3098 5.43226 34.4894C6.14737 35.0987 7.00559 35.5391 7.91715 35.7658C8.01226 35.7894 8.1367 35.7987 8.18381 35.7129C8.2247 35.6378 8.1727 35.5471 8.11937 35.4805C7.73715 35.0022 7.19226 34.6756 6.61892 34.4618C6.04559 34.248 5.5487 33.9907 4.86426 34.0462" fill="#E0E0E0"/>
<path d="M4.09668 29.1142C5.05312 30.0067 6.39979 30.4649 7.70201 30.3409C7.76112 30.3351 7.82601 30.3258 7.86601 30.2818C7.95668 30.1831 7.84779 30.0307 7.74201 29.9485C6.68246 29.1218 5.39846 28.7791 4.09668 29.1142Z" fill="#E0E0E0"/>
<path d="M5.00684 28.7809C6.27084 27.8334 8.00417 27.5471 9.50595 28.0387C8.93928 28.5969 8.1535 28.8974 7.36195 28.98C6.57084 29.0622 5.77839 28.9747 5.00684 28.7809Z" fill="#E0E0E0"/>
<path d="M4.64559 26.492C4.54159 25.4338 4.60914 24.5987 4.53581 23.536C4.53003 23.4511 4.51181 23.3489 4.43225 23.3182C4.32159 23.2755 4.22959 23.4115 4.19314 23.5244C3.87803 24.5044 4.05048 25.628 4.64425 26.4689" fill="#E0E0E0"/>
<path d="M4.56836 26.6089C5.28569 26.1653 5.82347 25.5862 6.3208 24.9053C6.66703 24.4315 6.95903 23.8644 6.87991 23.2831C6.39369 23.2733 5.93191 23.5413 5.61547 23.9111C5.29947 24.2804 5.11147 24.7422 4.97103 25.2075C4.83147 25.6729 4.73325 26.1511 4.56836 26.6089Z" fill="#E0E0E0"/>
<path d="M6.29078 26.1302C7.86455 25.5484 9.333 24.6822 10.6041 23.5871C10.089 23.3795 9.49922 23.504 8.98411 23.7115C7.80722 24.1867 6.84589 24.9884 6.26855 26.1187" fill="#E0E0E0"/>
<path d="M5.05273 27.1876C5.84873 27.2747 6.65762 27.3311 7.44785 27.1991C8.22429 27.0693 8.95807 26.7618 9.68385 26.456C9.74385 26.4307 9.80962 26.4004 9.83585 26.3409C9.86429 26.276 9.83407 26.1973 9.78118 26.1498C9.72873 26.1022 9.65896 26.0796 9.59051 26.0604C8.80162 25.84 7.95051 25.9431 7.17407 26.2049C6.39807 26.4662 5.76162 26.7773 5.05273 27.1876Z" fill="#E0E0E0"/>
<path d="M0.506423 29.1502C-0.0366881 28.0538 -0.00157696 26.7742 0.467756 25.644C0.797979 26.1475 0.838423 26.7884 0.777979 27.3871C0.717534 27.9862 0.535312 28.6026 0.523312 29.2044" fill="#E0E0E0"/>
<path d="M1.84766 24.7827C2.0401 24.3351 2.17566 23.8658 2.3481 23.4103C2.52055 22.9547 2.73521 22.5067 3.06143 22.1449C3.38766 21.7831 3.83877 21.5143 4.32543 21.4898C4.02099 22.8685 3.10499 24.1005 1.87255 24.7894" fill="#E0E0E0"/>
<path d="M1.33975 25.3742C1.02108 24.936 0.653529 24.3409 0.221529 24.0138C-0.210471 23.6867 -0.772694 23.4885 -1.2998 23.6142C-0.763805 24.5725 0.249084 25.2476 1.33975 25.3742Z" fill="#E0E0E0"/>
<path d="M1.44166 24.8191C1.23278 24.2889 1.02255 23.7525 0.938109 23.1889C0.853665 22.6253 0.90522 22.0231 1.19322 21.5311C1.75322 22.5898 1.93366 23.7267 1.47011 24.8311" fill="#E0E0E0"/>
<path d="M1.85254 21.5311C2.16987 20.4814 3.13076 19.7085 4.16854 19.3538C4.29921 19.3089 4.43787 19.272 4.57476 19.2929C4.71121 19.3138 4.84543 19.4076 4.87387 19.5427C4.91165 19.7214 4.76409 19.8814 4.62543 20C3.81787 20.6911 2.86809 21.2156 1.85254 21.5311Z" fill="#E0E0E0"/>
<path d="M1.8641 20.6729C1.90455 19.996 1.94677 19.3093 2.16677 18.6685C2.38677 18.0271 2.81121 17.4258 3.42854 17.1449C3.53343 17.8285 3.2321 18.5085 2.8681 19.0969C2.50454 19.6849 2.06588 20.2405 1.84766 20.8965" fill="#E0E0E0"/>
<path d="M1.84721 21.1387C1.58498 20.3738 1.55787 19.4022 1.09965 18.7356C0.779651 18.2698 0.266762 17.9524 -0.00923807 17.4591C-0.192349 17.92 -0.136349 18.4511 0.0552064 18.9084C0.246762 19.3658 0.563651 19.7596 0.902762 20.1218C1.24187 20.4836 1.5321 20.7556 1.84721 21.1387Z" fill="#E0E0E0"/>
<path d="M1.85214 43.6667C1.83169 43.6667 1.81392 38.5636 1.81258 32.2698C1.81125 25.9742 1.82636 20.872 1.8468 20.872C1.86725 20.872 1.88503 25.9742 1.88636 32.2698C1.88814 38.5636 1.87258 43.6667 1.85214 43.6667Z" fill="#E0E0E0"/>
<path d="M6.31167 28.3804C6.31301 28.3853 6.24456 28.4107 6.11967 28.4524C5.98189 28.4991 5.80456 28.5587 5.59167 28.6307C5.14634 28.7822 4.53478 29.0018 3.87123 29.2738C3.21389 29.5556 2.59389 29.7849 2.24101 30.0907C2.06456 30.2418 1.96323 30.4049 1.91345 30.524C1.86278 30.644 1.85389 30.7173 1.84723 30.716C1.84456 30.7156 1.84545 30.6973 1.84945 30.6627C1.85523 30.6284 1.86412 30.5769 1.88678 30.5138C1.92989 30.388 2.02812 30.2133 2.20634 30.052C2.38367 29.8902 2.63078 29.7449 2.91345 29.6124C3.19656 29.4804 3.50989 29.3427 3.84278 29.2058C4.50856 28.9329 5.12501 28.7204 5.57523 28.5809C5.80012 28.5107 5.98367 28.4591 6.11123 28.4249C6.23923 28.3916 6.31034 28.3756 6.31167 28.3804Z" fill="#E0E0E0"/>
<path d="M7.77392 24.7898C7.7757 24.7916 7.75704 24.8116 7.72015 24.8471C7.67659 24.888 7.62237 24.9387 7.55659 25.0009C7.40459 25.1391 7.19748 25.3271 6.94548 25.5565C6.41748 26.0267 5.70192 26.664 4.91081 27.368C4.11659 28.0751 3.43037 28.7507 2.95437 29.2591C2.71615 29.5134 2.52859 29.7236 2.40059 29.8707C2.34104 29.9387 2.29215 29.9947 2.25259 30.0396C2.21837 30.0778 2.19926 30.0974 2.19748 30.0956C2.19526 30.0938 2.21037 30.0716 2.24104 30.0302C2.27215 29.9894 2.31704 29.928 2.37837 29.8525C2.4997 29.6996 2.68192 29.4836 2.9157 29.224C3.38281 28.7049 4.06548 28.0214 4.86104 27.3134C5.65792 26.608 6.38326 25.9743 6.91037 25.5178C7.16904 25.296 7.38104 25.1138 7.53704 24.98C7.60681 24.9222 7.66415 24.8747 7.70992 24.8365C7.75037 24.804 7.77215 24.788 7.77392 24.7898Z" fill="#E0E0E0"/>
<path d="M4.05257 28.0871C4.03168 28.0778 4.19746 27.6947 4.36279 27.2102C4.52946 26.7258 4.60812 26.3169 4.62946 26.3205C4.64857 26.3222 4.6019 26.7431 4.43257 27.2338C4.34946 27.4787 4.2579 27.6942 4.18546 27.8471C4.11346 28 4.06146 28.0911 4.05257 28.0871Z" fill="#E0E0E0"/>
<path d="M1.85697 31.1756C1.85297 31.1787 1.80941 31.128 1.73475 31.0334C1.65163 30.9267 1.54675 30.792 1.42141 30.6311C1.15786 30.2907 0.793857 29.8209 0.385857 29.3067C-0.0225876 28.7925 -0.397699 28.3311 -0.669254 27.9974C-0.797254 27.8387 -0.90481 27.7058 -0.989699 27.6009C-1.06437 27.5067 -1.10392 27.4529 -1.10037 27.4494C-1.09637 27.4463 -1.0497 27.4934 -0.967921 27.5823C-0.886143 27.6707 -0.770588 27.8014 -0.629254 27.964C-0.347032 28.2894 0.0347457 28.7463 0.443635 29.2609C0.852079 29.776 1.2103 30.2516 1.46319 30.6C1.58986 30.7743 1.6903 30.9165 1.7583 31.0165C1.82541 31.116 1.86097 31.1725 1.85697 31.1756Z" fill="#E0E0E0"/>
<path d="M0.87968 29.9205C0.86768 29.9334 0.606791 29.624 0.469902 29.1538C0.369013 28.8223 0.364569 28.5191 0.377013 28.3805L0.409458 28.3831C0.394791 28.4423 0.384124 28.4734 0.378347 28.4725C0.372569 28.4716 0.372124 28.4387 0.377013 28.3778L0.409458 28.3805C0.421458 28.5178 0.442347 28.8107 0.540125 29.1325C0.672569 29.588 0.899236 29.908 0.87968 29.9205Z" fill="#E0E0E0"/>
<path d="M1.84723 26.32C1.82767 26.3249 1.68456 25.828 1.52767 25.2103C1.37078 24.592 1.25967 24.0871 1.27967 24.0823C1.29923 24.0774 1.44234 24.5743 1.59923 25.1925C1.75567 25.8103 1.86678 26.3151 1.84723 26.32Z" fill="#E0E0E0"/>
<path d="M1.86707 26.32C1.84529 26.3271 1.75329 25.9951 1.51285 25.6555C1.27907 25.3089 0.980401 25.1346 0.991512 25.1178C0.995512 25.1102 1.07773 25.1404 1.19285 25.2213C1.30796 25.3013 1.45062 25.4373 1.57329 25.6133C1.82262 25.9666 1.88529 26.3191 1.86707 26.32Z" fill="#E0E0E0"/>
<path d="M1.85195 40.9462C1.84395 40.9475 1.82884 40.8236 1.77151 40.6067C1.71462 40.3898 1.60751 40.0827 1.43062 39.7231C1.07817 39.0027 0.436395 38.0889 -0.378716 37.1742C-0.782716 36.7129 -1.17472 36.2773 -1.50716 35.8604C-1.84049 35.444 -2.11427 35.0475 -2.31427 34.6964C-2.51472 34.3458 -2.64538 34.0449 -2.72183 33.8329C-2.75916 33.7262 -2.78672 33.6435 -2.80183 33.5858C-2.81783 33.5289 -2.82538 33.4982 -2.82272 33.4978C-2.81605 33.4956 -2.77916 33.6147 -2.69516 33.8227C-2.61116 34.0307 -2.47427 34.3258 -2.26938 34.6702C-2.06538 35.0151 -1.78894 35.4058 -1.45472 35.8178C-1.12094 36.2302 -0.72805 36.6631 -0.323605 37.1258C0.493728 38.0431 1.13373 38.9684 1.47728 39.7004C1.64973 40.0658 1.75062 40.3791 1.79906 40.5995C1.82262 40.7102 1.83862 40.796 1.84439 40.8555C1.85195 40.9147 1.85462 40.9458 1.85195 40.9462Z" fill="#E0E0E0"/>
<path d="M5.8822 36.3947C5.88442 36.4 5.80754 36.4391 5.67109 36.5133C5.53554 36.5893 5.34354 36.7067 5.12309 36.8755C4.90309 37.044 4.65642 37.2653 4.40354 37.5315C4.15109 37.7982 3.89109 38.108 3.62531 38.44C3.09465 39.1058 2.5982 39.6951 2.30087 40.1658C2.14976 40.3991 2.04042 40.596 1.96842 40.7338C1.89598 40.8715 1.85731 40.9489 1.85198 40.9462C1.84976 40.9453 1.85642 40.9244 1.87154 40.8862C1.88709 40.8484 1.90842 40.7911 1.94265 40.7209C2.00709 40.5782 2.1102 40.3764 2.25687 40.1378C2.54531 39.656 3.0382 39.0587 3.56798 38.3938C3.8342 38.0613 4.09731 37.7507 4.35465 37.4844C4.61242 37.2187 4.86531 36.9987 5.09198 36.8333C5.31865 36.668 5.51731 36.5564 5.65776 36.4875C5.72754 36.4524 5.78487 36.4307 5.82265 36.4147C5.86087 36.3991 5.88131 36.392 5.8822 36.3947Z" fill="#E0E0E0"/>
<path d="M5.96158 37.8711C5.96247 37.8818 5.79092 37.9027 5.51536 37.936C5.24025 37.9716 4.85758 38.0174 4.45669 38.1445C4.05714 38.2747 3.72514 38.4729 3.50869 38.6418C3.29003 38.8107 3.18736 38.9503 3.17714 38.9423C3.17358 38.9396 3.19492 38.9018 3.24336 38.8396C3.29092 38.7769 3.36914 38.6934 3.4758 38.6014C3.68869 38.4178 4.0238 38.2076 4.43403 38.0743C4.84469 37.944 5.23269 37.9067 5.51003 37.884C5.78825 37.864 5.96069 37.8618 5.96158 37.8711Z" fill="#E0E0E0"/>
<path d="M3.30651 38.78C3.2834 38.7667 3.48429 38.4595 3.64029 38.0462C3.78696 37.6293 3.82118 37.2635 3.8474 37.2675C3.85674 37.2689 3.85674 37.36 3.83985 37.5071C3.82251 37.6533 3.78696 37.8569 3.70963 38.0715C3.63185 38.2858 3.52918 38.4644 3.45051 38.5889C3.3714 38.7133 3.31496 38.7853 3.30651 38.78Z" fill="#E0E0E0"/>
<path d="M7.18725 32.4302C7.18813 32.4324 7.16369 32.4458 7.11569 32.468C7.06013 32.4933 6.9908 32.5249 6.90591 32.5636C6.81391 32.6031 6.70236 32.6529 6.57702 32.7191C6.4508 32.784 6.30369 32.8511 6.15036 32.9431C6.07258 32.9876 5.99125 33.0333 5.9068 33.0818C5.82236 33.1302 5.7388 33.188 5.64991 33.2436C5.47036 33.3524 5.29036 33.4867 5.09836 33.6236C4.7228 33.9084 4.32769 34.2462 3.94769 34.6356C3.57125 35.0289 3.24725 35.4356 2.97525 35.8204C2.84502 36.0169 2.71702 36.2013 2.61436 36.3844C2.56191 36.4751 2.5068 36.5609 2.46147 36.6467C2.41658 36.7329 2.37302 36.8156 2.33125 36.8947C2.24458 37.0511 2.18236 37.2004 2.12191 37.3284C2.06013 37.4564 2.01391 37.5693 1.97747 37.6627C1.94191 37.7489 1.91258 37.8196 1.88947 37.8756C1.86858 37.924 1.85658 37.9489 1.85391 37.9484C1.85169 37.9476 1.8588 37.9209 1.87525 37.8707C1.89525 37.8129 1.92013 37.7409 1.9508 37.6524C1.98325 37.5573 2.02547 37.4422 2.08413 37.312C2.14147 37.1813 2.20058 37.0298 2.28458 36.8711C2.32502 36.7907 2.36725 36.7067 2.41125 36.6191C2.45569 36.532 2.50991 36.4449 2.56147 36.3529C2.6628 36.1671 2.78947 35.9804 2.91925 35.7813C3.19036 35.3911 3.51525 34.98 3.8948 34.5836C4.27791 34.1907 4.67747 33.852 5.05836 33.568C5.25302 33.4316 5.43525 33.2982 5.61747 33.1911C5.70769 33.136 5.79258 33.0796 5.87836 33.032C5.96413 32.9853 6.0468 32.94 6.12591 32.8969C6.28147 32.8071 6.43125 32.7431 6.55969 32.6813C6.68769 32.6182 6.80147 32.572 6.89525 32.5364C6.9828 32.5031 7.05391 32.4756 7.1108 32.4538C7.15969 32.4364 7.18636 32.428 7.18725 32.4302Z" fill="#E0E0E0"/>
<path d="M3.99783 34.5671C3.99116 34.5662 4.02672 34.4422 4.17338 34.3058C4.31605 34.1698 4.5765 34.0435 4.88005 34.0346C5.18227 34.0266 5.4445 34.1111 5.62361 34.18C5.80361 34.2506 5.9085 34.308 5.90494 34.3164C5.90094 34.3266 5.7885 34.2862 5.60672 34.2289C5.42538 34.1733 5.16938 34.1004 4.88272 34.108C4.59738 34.1169 4.35072 34.2266 4.20761 34.3449C4.06094 34.4631 4.00938 34.5742 3.99783 34.5671Z" fill="#E0E0E0"/>
<path d="M3.52114 35.0591C3.5007 35.048 3.6807 34.784 3.72159 34.4063C3.7687 34.0289 3.65448 33.7311 3.6767 33.7249C3.6847 33.7214 3.72514 33.7907 3.75937 33.9151C3.79403 34.0387 3.81714 34.2187 3.79492 34.4151C3.77181 34.6116 3.70781 34.7814 3.64559 34.8934C3.58337 35.0058 3.52825 35.064 3.52114 35.0591Z" fill="#E0E0E0"/>
</g>
<g opacity="0.69">
<path d="M-1.32227 42.1564C-1.21249 44.1067 -0.624488 46.0902 0.279512 48.0951H4.21018C5.0724 46.1098 5.61951 44.1293 5.7164 42.1564H-1.32227Z" fill="#E0E0E0"/>
</g>
<g opacity="0.69">
<path d="M4.72913 44.8333C4.72913 44.8538 3.43491 44.8702 1.83891 44.8702C0.24202 44.8702 -1.05176 44.8538 -1.05176 44.8333C-1.05176 44.8129 0.24202 44.7964 1.83891 44.7964C3.43491 44.7964 4.72913 44.8129 4.72913 44.8333Z" fill="#FBFBFB"/>
</g>
<g opacity="0.69">
<path d="M4.64124 45.5396C4.64124 45.56 3.4279 45.5765 1.93146 45.5765C0.434569 45.5765 -0.77832 45.56 -0.77832 45.5396C-0.77832 45.5191 0.434569 45.5027 1.93146 45.5027C3.4279 45.5027 4.64124 45.5191 4.64124 45.5396Z" fill="#FBFBFB"/>
</g>
<g opacity="0.69">
<path d="M-0.00803299 42.9578C0.0124115 42.9578 0.0288559 43.3631 0.0288559 43.8631C0.0288559 44.3631 0.0124115 44.7684 -0.00803299 44.7684C-0.0284774 44.7684 -0.0449219 44.3631 -0.0449219 43.8631C-0.0449219 43.3631 -0.0284774 42.9578 -0.00803299 42.9578Z" fill="#FBFBFB"/>
</g>
<g opacity="0.69">
<path d="M5.24138 42.9578C5.24138 42.9782 3.7236 42.9947 1.85116 42.9947C-0.0217293 42.9947 -1.53906 42.9782 -1.53906 42.9578C-1.53906 42.9373 -0.0212849 42.9209 1.85116 42.9209C3.72316 42.9209 5.24138 42.9373 5.24138 42.9578Z" fill="#FBFBFB"/>
</g>
<path d="M24.9031 48.7311C35.9336 48.7311 44.8756 48.209 44.8756 47.5649C44.8756 46.9208 35.9336 46.3987 24.9031 46.3987C13.8726 46.3987 4.93066 46.9208 4.93066 47.5649C4.93066 48.209 13.8726 48.7311 24.9031 48.7311Z" fill="#F5F5F5"/>
<path d="M14.0954 17.423C16.8834 16.947 18.873 14.9767 18.5393 13.0222C18.2056 11.0677 15.675 9.86921 12.887 10.3452C10.099 10.8213 8.10939 12.7916 8.4431 14.746C8.77681 16.7005 11.3074 17.899 14.0954 17.423Z" fill="#436EB6"/>
<path d="M14.0954 17.423C16.8834 16.947 18.873 14.9767 18.5393 13.0222C18.2056 11.0677 15.675 9.86921 12.887 10.3452C10.099 10.8213 8.10939 12.7916 8.4431 14.746C8.77681 16.7005 11.3074 17.899 14.0954 17.423Z" fill="#C3DAE4"/>
<path d="M22.6082 13.9943C22.9131 14.632 22.4225 15.5018 21.5127 15.9365C20.6029 16.3711 19.618 16.2067 19.3131 15.5689C19.0082 14.9311 19.4989 14.0614 20.4087 13.6267C21.3189 13.1916 22.3038 13.3565 22.6082 13.9943Z" fill="#436EB6"/>
<path d="M22.6082 13.9943C22.9131 14.632 22.4225 15.5018 21.5127 15.9365C20.6029 16.3711 19.618 16.2067 19.3131 15.5689C19.0082 14.9311 19.4989 14.0614 20.4087 13.6267C21.3189 13.1916 22.3038 13.3565 22.6082 13.9943Z" fill="#C3DAE4"/>
<path d="M24.2408 16.5164C24.3288 16.8991 23.9577 17.3111 23.4119 17.4369C22.8661 17.5627 22.3519 17.3542 22.2639 16.9711C22.1759 16.5884 22.547 16.1764 23.0928 16.0507C23.639 15.9253 24.1528 16.1338 24.2408 16.5164Z" fill="#436EB6"/>
<path d="M24.2408 16.5164C24.3288 16.8991 23.9577 17.3111 23.4119 17.4369C22.8661 17.5627 22.3519 17.3542 22.2639 16.9711C22.1759 16.5884 22.547 16.1764 23.0928 16.0507C23.639 15.9253 24.1528 16.1338 24.2408 16.5164Z" fill="#C3DAE4"/>
<path d="M12.5255 16.8511C12.4611 16.8511 12.3975 16.8484 12.3349 16.8427C12.1113 16.8222 11.9455 16.7631 11.8282 16.6613C11.7486 16.5924 11.6851 16.4871 11.6664 16.3751C11.5509 16.3733 11.4344 16.3675 11.3171 16.3604C11.0593 16.3453 10.7922 16.3164 10.6051 16.144C10.4931 16.0404 10.4295 15.8978 10.4211 15.7351C10.2175 15.672 10.022 15.5453 9.93575 15.3311C9.86419 15.1529 9.88997 14.964 9.96952 14.8004C9.84863 14.7071 9.74952 14.6084 9.66863 14.5004C9.48552 14.2564 9.39263 13.9515 9.39975 13.6489C9.34863 13.6222 9.30552 13.5862 9.2833 13.532C9.24197 13.4307 9.29441 13.3129 9.43086 13.2004C9.45975 13.1769 9.48863 13.1538 9.51752 13.1311C9.68019 12.7742 9.99975 12.4947 10.3784 12.3862C10.686 12.2978 11.0095 12.3227 11.322 12.3467C11.3273 12.3471 11.3326 12.3475 11.338 12.348C11.5762 12.3035 11.8091 12.2764 12.0291 12.2627C12.1584 12.2333 12.2926 12.2231 12.4255 12.2338C12.5553 12.1715 12.6726 12.0818 12.7575 11.9542C12.8002 11.8902 12.8322 11.8204 12.866 11.7462C12.8997 11.6724 12.9344 11.5964 12.9806 11.5267C13.1717 11.2387 13.5442 11.0747 14.0873 11.0391C14.7326 10.9969 15.2553 11.1084 15.6402 11.3698C15.7935 11.4738 15.9175 11.6009 16.0051 11.7391C16.2046 11.7453 16.4024 11.7924 16.574 11.8418C16.8349 11.9173 17.4411 12.1462 17.4389 12.6435C17.438 12.808 17.3646 12.9587 17.2997 13.092L17.0842 13.5342C17.0953 13.592 17.0997 13.6493 17.0966 13.7053C17.1375 13.7222 17.178 13.7418 17.2166 13.764C17.3913 13.8635 17.5726 14.0515 17.5584 14.28C17.5491 14.4289 17.4597 14.5715 17.286 14.7151C17.0682 14.8951 16.8229 15.0204 16.5624 15.1129C16.4793 15.2724 16.3829 15.4244 16.2735 15.5671C16.0624 15.8431 15.71 16.1995 15.2313 16.3284C14.9153 16.4138 14.586 16.3769 14.3237 16.2409C14.2317 16.3022 14.1402 16.3547 14.0566 16.4004C13.51 16.7 12.9953 16.8511 12.5255 16.8511ZM11.7589 16.376C11.7766 16.46 11.8255 16.5395 11.8869 16.5929C11.9895 16.6818 12.1384 16.7338 12.3429 16.7524C12.8446 16.7978 13.4073 16.6529 14.0149 16.3209C14.0851 16.2827 14.1611 16.2391 14.238 16.1898C14.1531 16.1351 14.0775 16.0684 14.0144 15.9915C13.9851 15.9555 13.9513 15.9089 13.9389 15.8529C13.8046 15.8738 13.6686 15.8893 13.5317 15.9013C13.3255 15.996 13.0993 16.068 12.8669 16.1067C12.7544 16.1791 12.6353 16.2338 12.5229 16.2707C12.2762 16.3511 12.0206 16.3755 11.7589 16.376ZM11.9197 16.0582C11.8624 16.0871 11.814 16.1271 11.7833 16.1831C11.7655 16.2155 11.7557 16.2502 11.7531 16.2858C12.0091 16.2853 12.2575 16.2627 12.4953 16.1849C12.538 16.1711 12.5811 16.1542 12.6246 16.1351C12.3869 16.1502 12.1473 16.128 11.9197 16.0582ZM10.5135 15.7595C10.5237 15.8635 10.5624 15.9818 10.6664 16.0778C10.8313 16.2302 11.0806 16.2564 11.322 16.2707C11.4362 16.2773 11.5495 16.2831 11.6615 16.2849C11.6646 16.2355 11.678 16.1862 11.7037 16.1395C11.7309 16.0907 11.7669 16.0515 11.8086 16.0204C11.7691 16.0053 11.73 15.9884 11.6909 15.9702C11.69 15.9747 11.6886 15.9791 11.6873 15.9831C11.6682 16.0489 11.618 16.0987 11.546 16.1222C11.4544 16.1524 11.3473 16.1351 11.2726 16.0782C11.1664 15.9969 11.1184 15.8684 11.0864 15.7453C10.9695 15.776 10.8433 15.7893 10.7131 15.7849C10.6509 15.7827 10.5824 15.7747 10.5135 15.7595ZM14.4104 16.1818C14.6451 16.2902 14.9326 16.3155 15.2095 16.2409C15.6637 16.1182 16.0006 15.7769 16.2033 15.512C16.29 15.3987 16.3686 15.2791 16.4384 15.1547C16.3189 15.192 16.1971 15.2231 16.0735 15.2507C15.9353 15.3773 15.7371 15.4751 15.4744 15.5471C15.2784 15.6009 15.0793 15.6387 14.8789 15.6644C14.8469 15.7227 14.8113 15.7791 14.7713 15.8333C14.6695 15.9715 14.5415 16.0862 14.4104 16.1818ZM14.0282 15.8378C14.0375 15.8738 14.0624 15.9075 14.0842 15.9342C14.1495 16.0138 14.23 16.0813 14.3202 16.1347C14.458 16.0382 14.5935 15.9218 14.6984 15.78C14.7229 15.7471 14.7455 15.7133 14.7664 15.6782C14.7015 15.6853 14.6366 15.6911 14.5717 15.6964C14.3966 15.7595 14.2144 15.8049 14.0282 15.8378ZM11.174 15.7191C11.2024 15.8284 11.2429 15.9409 11.3286 16.0067C11.3784 16.0449 11.4562 16.0569 11.5184 16.0364C11.5486 16.0262 11.5877 16.0049 11.6011 15.9582C11.6037 15.9484 11.6055 15.9378 11.6064 15.9271C11.5153 15.8769 11.4273 15.8173 11.3437 15.7475C11.318 15.7262 11.2935 15.704 11.2695 15.6809C11.2389 15.6947 11.2069 15.7075 11.174 15.7191ZM12.0877 16.0035C12.3322 16.0547 12.5904 16.0547 12.8429 16.0147C12.878 15.9911 12.9126 15.9653 12.946 15.9378C12.9353 15.9382 12.9246 15.9387 12.914 15.9395C12.6895 15.9507 12.4571 15.9618 12.234 15.9831C12.1864 15.9875 12.1366 15.9938 12.0877 16.0035ZM13.0873 15.9307C13.0722 15.9458 13.0562 15.9604 13.0402 15.9751C13.102 15.96 13.1629 15.9427 13.2233 15.9231C13.178 15.9258 13.1326 15.9284 13.0873 15.9307ZM11.6997 15.8711C11.7709 15.9062 11.8437 15.9351 11.9189 15.9591C12.0157 15.9191 12.126 15.9022 12.2251 15.8929C12.4504 15.8711 12.6837 15.86 12.9091 15.8489C12.9553 15.8467 13.0015 15.8444 13.0477 15.8422C13.0869 15.8009 13.1224 15.7569 13.1544 15.7093C12.722 15.7013 12.2789 15.6978 11.8486 15.7431C11.7935 15.7489 11.7397 15.7591 11.7166 15.7929C11.7033 15.8124 11.7006 15.8395 11.6997 15.8711ZM13.2597 15.7111C13.234 15.7551 13.2046 15.7964 13.1731 15.8355C13.2842 15.8293 13.3957 15.8222 13.5064 15.8129C13.5695 15.784 13.6309 15.7524 13.6904 15.7187C13.5589 15.7173 13.4277 15.7147 13.2971 15.712C13.2851 15.7115 13.2722 15.7111 13.2597 15.7111ZM11.3544 15.6355C11.37 15.6498 11.386 15.664 11.402 15.6778C11.4686 15.7338 11.5389 15.7827 11.6122 15.8249C11.6157 15.7969 11.6237 15.7684 11.6415 15.7418C11.6851 15.6773 11.7624 15.6609 11.8389 15.6529C12.2917 15.6049 12.7557 15.6107 13.2069 15.6195C13.2277 15.5795 13.2455 15.5373 13.2602 15.4929C13.162 15.5271 13.058 15.5391 12.9633 15.5475C12.4966 15.5889 12.0282 15.5618 11.5731 15.4684C11.5077 15.5311 11.4353 15.588 11.3544 15.6355ZM13.8629 15.7195C13.858 15.7227 13.8526 15.7262 13.8473 15.7293C13.8162 15.7493 13.7846 15.7684 13.7522 15.7871C13.8149 15.7795 13.8771 15.7707 13.9389 15.7609C13.9424 15.7467 13.9473 15.7329 13.9535 15.7191C13.9237 15.7195 13.8935 15.7195 13.8629 15.7195ZM14.0637 15.7182C14.0566 15.7262 14.05 15.7342 14.0446 15.7427C14.0886 15.7342 14.1331 15.7253 14.1766 15.7155C14.1389 15.7169 14.1011 15.7178 14.0637 15.7182ZM10.5113 15.6667C10.582 15.6835 10.6522 15.6924 10.7175 15.6947C10.8397 15.6991 10.9575 15.6862 11.0664 15.6578C11.0446 15.5622 11.0233 15.456 11.0046 15.3413C10.9984 15.3307 10.9922 15.32 10.9864 15.3093C10.8864 15.2751 10.7873 15.2378 10.6895 15.1969C10.5895 15.3298 10.5237 15.4929 10.5122 15.6498C10.5117 15.6551 10.5117 15.6609 10.5113 15.6667ZM10.0433 14.8542C9.9793 14.9933 9.96019 15.1498 10.0197 15.2973C10.0909 15.4738 10.2509 15.5827 10.4224 15.6409C10.4349 15.472 10.5011 15.3018 10.6037 15.1595C10.5593 15.14 10.5149 15.1195 10.4709 15.0987C10.3064 15.0204 10.1646 14.9395 10.0433 14.8542ZM11.13 15.5258C11.1375 15.5618 11.1451 15.5969 11.1526 15.6307C11.1695 15.6244 11.186 15.6182 11.2024 15.6111C11.1775 15.5835 11.1531 15.5551 11.13 15.5258ZM13.3069 15.6218C13.482 15.6253 13.6589 15.6289 13.8362 15.6293C14.0197 15.508 14.1886 15.3693 14.3455 15.2178C14.27 15.2044 14.1913 15.1849 14.1104 15.1595C13.9837 15.12 13.8095 15.0515 13.6517 14.9409C13.6375 15.1204 13.5691 15.3022 13.4117 15.416C13.3975 15.4262 13.3829 15.4355 13.3682 15.4444C13.3535 15.5067 13.3326 15.5658 13.3069 15.6218ZM14.4584 15.2338C14.3149 15.3764 14.162 15.5093 13.9962 15.6284C14.0064 15.6284 14.0166 15.6284 14.0269 15.628C14.0762 15.5858 14.1446 15.5502 14.2295 15.5231C14.4526 15.452 14.686 15.4013 14.9202 15.3591C14.9451 15.2955 14.9691 15.2298 14.9931 15.1618C14.8415 15.2307 14.6606 15.2547 14.4584 15.2338ZM14.8793 15.4587C14.6673 15.4982 14.4575 15.5453 14.2571 15.6093C14.2469 15.6124 14.2317 15.6178 14.2149 15.6244C14.3277 15.6209 14.4406 15.6155 14.5531 15.6071C14.6651 15.5662 14.774 15.5173 14.8793 15.4595C14.8789 15.4591 14.8793 15.4591 14.8793 15.4587ZM11.1197 15.3524C11.1691 15.4302 11.2251 15.5031 11.2877 15.5693C11.3517 15.5338 11.4104 15.4915 11.4646 15.4449C11.3486 15.4187 11.2335 15.3875 11.1197 15.3524ZM14.9495 15.5235C14.9429 15.5382 14.9362 15.5524 14.9295 15.5667C15.1055 15.5418 15.2793 15.5071 15.4509 15.46C15.6153 15.4151 15.7526 15.3595 15.8633 15.2938C15.6971 15.3253 15.5291 15.3515 15.3629 15.3778C15.2815 15.3907 15.1993 15.4035 15.1166 15.4173C15.0989 15.4302 15.0802 15.4427 15.0615 15.4551C15.0246 15.4791 14.9873 15.5022 14.9495 15.5235ZM11.6486 15.3915C12.0771 15.4742 12.5171 15.4969 12.9553 15.4578C13.0637 15.448 13.1846 15.4333 13.2886 15.384C13.3153 15.2427 13.3077 15.0982 13.2993 14.9458C13.2966 14.8964 13.294 14.8471 13.2926 14.7978C13.2131 14.8693 13.1251 14.9284 13.0295 14.972C12.7215 15.1129 12.3837 15.0862 12.074 14.956C12.0371 14.9511 11.9997 14.944 11.9629 14.9351C11.9513 14.956 11.9393 14.9769 11.9273 14.9978C11.8597 15.1151 11.7682 15.2595 11.6486 15.3915ZM11.0815 15.2453C11.2335 15.2947 11.3882 15.3364 11.5446 15.3702C11.6775 15.2347 11.7775 15.0773 11.8495 14.9524C11.858 14.9378 11.8664 14.9235 11.8744 14.9089C11.7735 14.8738 11.6762 14.8231 11.5869 14.7573C11.3984 14.7902 11.2144 14.836 11.0473 14.916C11.0544 15.0298 11.0664 15.1404 11.0815 15.2453ZM15.0997 15.1307C15.0953 15.144 15.0904 15.1573 15.086 15.1707C15.0655 15.2289 15.0451 15.2858 15.0242 15.3413C15.0429 15.3382 15.0615 15.3351 15.0802 15.332C15.1389 15.288 15.2086 15.228 15.2695 15.1547C15.2126 15.148 15.1562 15.14 15.0997 15.1307ZM13.382 14.7075C13.382 14.7187 13.3815 14.7293 13.382 14.74C13.3824 14.8067 13.386 14.8738 13.3895 14.9409C13.3962 15.0649 13.4029 15.1924 13.3895 15.3182C13.5157 15.208 13.562 15.0333 13.5637 14.8729C13.5015 14.82 13.4446 14.7591 13.3975 14.6902C13.3922 14.696 13.3873 14.7018 13.382 14.7075ZM15.3753 15.1653C15.3415 15.2129 15.3011 15.2591 15.2544 15.3035C15.286 15.2987 15.3175 15.2938 15.3486 15.2889C15.5811 15.2524 15.8091 15.2164 16.0286 15.1689C16.0349 15.1631 16.0406 15.1569 16.0464 15.1511C15.9469 15.1702 15.8357 15.18 15.7131 15.1804C15.6006 15.18 15.4877 15.1751 15.3753 15.1653ZM10.7504 15.124C10.8091 15.148 10.8686 15.1711 10.9282 15.1929C10.9033 15.1378 10.8815 15.0813 10.8629 15.024C10.8229 15.0529 10.7851 15.0867 10.7504 15.124ZM14.5411 15.1493C14.6673 15.1555 14.7966 15.1422 14.9166 15.096C14.8833 15.0889 14.8504 15.0813 14.8175 15.0733C14.7606 15.0595 14.7055 15.0444 14.6522 15.0284C14.6157 15.0698 14.5789 15.1098 14.5411 15.1493ZM13.654 14.8302C13.8135 14.956 14.0033 15.0315 14.1371 15.0733C14.2229 15.1 14.3215 15.1249 14.4251 15.1387C14.47 15.0929 14.5144 15.0462 14.5575 14.9987C14.2664 14.8991 14.0393 14.764 13.8677 14.5884C13.7757 14.4942 13.6997 14.3867 13.6406 14.2707C13.6202 14.3267 13.5966 14.3804 13.57 14.4324C13.5993 14.5191 13.6251 14.6075 13.6406 14.6987C13.6477 14.7409 13.6526 14.7849 13.654 14.8302ZM16.1926 15.1133C16.1877 15.1204 16.1829 15.1275 16.178 15.1347C16.2877 15.1075 16.3949 15.0773 16.4993 15.0413C16.6286 14.7871 16.7233 14.5142 16.7797 14.2347C16.7397 14.2618 16.6966 14.2862 16.6513 14.3075C16.6926 14.4991 16.6762 14.692 16.5606 14.8564C16.4784 14.9738 16.3553 15.0595 16.1926 15.1133ZM15.4291 15.0791C15.5237 15.0862 15.6184 15.0898 15.7131 15.0898C15.8753 15.0893 16.0157 15.072 16.134 15.0373C16.1429 15.0227 16.1509 15.008 16.1584 14.9929C16.2437 14.8195 16.2384 14.6022 16.1517 14.4035C15.9789 14.4013 15.8104 14.3715 15.6557 14.3395C15.6251 14.3929 15.5953 14.4471 15.5664 14.5009C15.5389 14.5515 15.5113 14.6027 15.4824 14.6533C15.4935 14.6911 15.5006 14.7307 15.5029 14.7724C15.5086 14.8751 15.4829 14.9787 15.4291 15.0791ZM10.0864 14.7738C10.2055 14.8582 10.3455 14.9387 10.5095 15.0169C10.5597 15.0409 10.6104 15.064 10.6615 15.0862C10.7113 15.0293 10.7673 14.9787 10.8282 14.9369C10.8304 14.9351 10.8331 14.9338 10.8353 14.932C10.7846 14.7395 10.7677 14.5378 10.7882 14.34C10.6246 14.3742 10.4637 14.4298 10.3224 14.5249C10.2317 14.5867 10.1477 14.6738 10.0864 14.7738ZM15.1713 15.0502C15.2242 15.0578 15.2771 15.0644 15.3304 15.0702C15.3837 14.9844 15.4184 14.8858 15.4122 14.7773C15.4122 14.7747 15.4117 14.772 15.4117 14.7689C15.3442 14.8742 15.2673 14.9715 15.1713 15.0502ZM10.9446 14.9702C10.9513 14.9915 10.958 15.0129 10.9655 15.0338C10.9633 15.0098 10.9615 14.9858 10.9597 14.9613C10.9549 14.9644 10.9495 14.9671 10.9446 14.9702ZM14.718 14.9538C14.7571 14.9649 14.7975 14.9755 14.8389 14.9858C14.9055 15.0018 14.9726 15.0164 15.0397 15.0284C15.1082 14.8302 15.1749 14.6298 15.2389 14.4293C15.2166 14.4067 15.1935 14.3858 15.1704 14.3667C15.0282 14.5693 14.8789 14.7671 14.718 14.9538ZM16.8877 14.1475C16.8384 14.4409 16.7486 14.7275 16.622 14.9964C16.8397 14.9111 17.0442 14.7991 17.23 14.6453C17.3837 14.5182 17.462 14.3969 17.47 14.2742C17.4815 14.0871 17.3246 13.9284 17.1735 13.8427C17.1455 13.8267 17.1162 13.812 17.0869 13.7991C17.0842 13.8133 17.0806 13.8271 17.0771 13.8409C17.0455 13.9551 16.9789 14.06 16.8877 14.1475ZM16.2486 14.4013C16.326 14.5991 16.3313 14.8111 16.2584 14.9902C16.3557 14.944 16.4322 14.8822 16.4869 14.8044C16.5829 14.6675 16.5989 14.5053 16.5669 14.3418C16.5295 14.3551 16.4904 14.3662 16.4504 14.3747C16.3833 14.3893 16.3157 14.3978 16.2486 14.4013ZM12.3495 14.9502C12.5651 14.9964 12.786 14.984 12.9922 14.8898C13.1037 14.8387 13.2051 14.764 13.2926 14.672C13.2949 14.6173 13.2997 14.5653 13.3077 14.5164C13.302 14.5004 13.2966 14.484 13.2917 14.4675C13.286 14.4471 13.2811 14.4267 13.2771 14.4067C13.1833 14.4382 13.0891 14.468 12.994 14.4955C12.8371 14.7249 12.6491 14.8693 12.4277 14.9324C12.4024 14.9391 12.3762 14.9453 12.3495 14.9502ZM15.3082 14.5098C15.2629 14.6511 15.2162 14.792 15.1686 14.932C15.2522 14.8502 15.3202 14.7511 15.3833 14.6435C15.3646 14.5951 15.3384 14.5502 15.3082 14.5098ZM13.7255 14.2351C13.7802 14.3418 13.8495 14.44 13.9326 14.5249C14.1011 14.6973 14.3282 14.8293 14.6229 14.9249C14.7922 14.7311 14.9491 14.524 15.0984 14.3115C15.0682 14.2902 15.0397 14.2724 15.0149 14.2578C14.8722 14.2191 14.7353 14.1631 14.6171 14.0875C14.478 14.0467 14.3344 14.0222 14.1886 14.0151C14.1717 14.0244 14.1544 14.0333 14.1366 14.0422C14.0024 14.1115 13.8651 14.176 13.7255 14.2351ZM10.8837 14.3227C10.8624 14.5075 10.8753 14.6978 10.9202 14.88C10.9313 14.8738 10.9429 14.8675 10.954 14.8613C10.9455 14.6831 10.9486 14.4969 10.97 14.3098C10.9411 14.3138 10.9122 14.3178 10.8837 14.3227ZM12.0949 14.8675C12.1997 14.88 12.3046 14.8729 12.4033 14.8449C12.5735 14.7964 12.7229 14.6933 12.8526 14.5338C12.6162 14.596 12.3762 14.6449 12.1331 14.6795C12.1202 14.6813 12.1073 14.6831 12.0949 14.6849C12.07 14.7342 12.0451 14.7831 12.0193 14.832C12.0437 14.8449 12.0691 14.8564 12.0949 14.8675ZM11.062 14.2995C11.0402 14.4747 11.0357 14.6498 11.042 14.8182C11.1855 14.7538 11.3384 14.7124 11.4949 14.6818C11.4802 14.6684 11.466 14.6547 11.4522 14.6409C11.3544 14.5418 11.2722 14.4222 11.2064 14.2871C11.1593 14.2902 11.1109 14.2942 11.062 14.2995ZM11.8282 14.7204C11.8646 14.7449 11.9015 14.768 11.9393 14.7898C11.9549 14.76 11.9704 14.7298 11.986 14.7C11.9691 14.7022 11.9522 14.7044 11.9353 14.7067C11.8993 14.7111 11.8637 14.7155 11.8282 14.7204ZM13.4566 14.6155C13.4855 14.6613 13.5189 14.7031 13.5557 14.7413C13.5544 14.732 13.5531 14.7227 13.5513 14.7138C13.5411 14.6547 13.5264 14.5964 13.5091 14.5387C13.4926 14.5653 13.4749 14.5907 13.4566 14.6155ZM9.48997 13.6867C9.49086 13.9578 9.57752 14.228 9.74152 14.4462C9.81486 14.544 9.90463 14.6347 10.0144 14.7204C10.0824 14.6115 10.1735 14.5173 10.2726 14.4507C10.4309 14.344 10.6126 14.2831 10.8015 14.2467C10.8149 14.1649 10.8353 14.0844 10.862 14.0053C10.3944 13.9511 9.93352 13.8444 9.48997 13.6867ZM11.3686 14.2755C11.4673 14.412 11.5882 14.5378 11.7229 14.644C11.79 14.6342 11.8566 14.6258 11.9233 14.6169C11.9606 14.612 11.9975 14.6071 12.0349 14.6022C12.0646 14.5422 12.0935 14.4827 12.1224 14.4235C12.1322 14.4035 12.142 14.3831 12.1517 14.3631C12.0317 14.344 11.9251 14.2911 11.8251 14.2258C11.6744 14.2529 11.5202 14.2649 11.3686 14.2755ZM12.2486 14.3707C12.2335 14.4013 12.2184 14.4324 12.2037 14.4631C12.1837 14.504 12.1637 14.5458 12.1433 14.5871C12.4122 14.5475 12.6775 14.4907 12.938 14.4169C13.0491 14.2471 13.1442 14.0293 13.2246 13.7618L13.2606 13.6409C13.3193 13.4422 13.3789 13.2404 13.4597 13.0538C13.4482 13.032 13.4357 13.0102 13.4229 12.9893C13.3526 13.028 13.2833 13.0702 13.2157 13.1169C13.2073 13.1271 13.1989 13.1378 13.1904 13.148C13.1931 13.3169 13.1513 13.4942 13.0917 13.6422C12.9402 14.0155 12.6264 14.3707 12.2486 14.3707ZM15.3415 14.4053C15.3784 14.4475 15.4122 14.4947 15.4389 14.5458C15.4549 14.5169 15.4709 14.4871 15.4869 14.4578C15.51 14.4147 15.5335 14.3711 15.558 14.328C15.5215 14.328 15.4846 14.3267 15.4469 14.3249C15.4211 14.3235 15.3949 14.3218 15.3686 14.3195C15.3597 14.348 15.3509 14.3769 15.3415 14.4053ZM13.4011 14.5071C13.4037 14.5138 13.4064 14.5204 13.4095 14.5267C13.4317 14.4942 13.4526 14.4604 13.4717 14.4253C13.4633 14.4009 13.4544 14.3769 13.4455 14.3524C13.4251 14.4027 13.4109 14.4547 13.4011 14.5071ZM13.2975 13.8324C13.2309 14.0453 13.1544 14.2271 13.0669 14.3791C13.1335 14.3587 13.1997 14.3373 13.2655 14.3147C13.2584 14.2027 13.278 14.0929 13.3175 13.9893C13.3042 13.9391 13.294 13.8853 13.2975 13.8324ZM15.2384 14.3044C15.2491 14.3133 15.2597 14.3227 15.27 14.332C15.2722 14.3244 15.2749 14.3169 15.2771 14.3098C15.2642 14.308 15.2513 14.3062 15.2384 14.3044ZM16.1629 14.2333C16.1793 14.2591 16.1949 14.2858 16.2086 14.3124C16.2842 14.3107 16.358 14.3022 16.4309 14.2862C16.47 14.2778 16.5077 14.2667 16.5446 14.2533C16.5246 14.1867 16.4975 14.1204 16.4655 14.0564C16.3811 14.1302 16.2797 14.1893 16.1629 14.2333ZM15.9353 14.296C15.9935 14.3035 16.05 14.3089 16.1051 14.3115C16.0953 14.2951 16.0851 14.2791 16.0744 14.2631C16.03 14.276 15.9833 14.2871 15.9353 14.296ZM13.3686 14.1462C13.3597 14.1915 13.3553 14.2369 13.3557 14.2831C13.3646 14.28 13.3731 14.2769 13.382 14.2738C13.3882 14.2609 13.3949 14.2484 13.4015 14.2364C13.3904 14.2062 13.3793 14.1764 13.3686 14.1462ZM12.4717 13.9431C12.4086 14.0524 12.3504 14.1653 12.2944 14.2778C12.61 14.2498 12.8744 13.936 13.0073 13.6075C13.05 13.5027 13.0829 13.3822 13.0953 13.2622C12.9669 13.4147 12.8304 13.5627 12.6713 13.6827C12.6651 13.6955 12.6589 13.7084 12.6517 13.7213C12.6082 13.8022 12.5469 13.8773 12.4717 13.9431ZM11.9549 14.1978C12.0264 14.2364 12.1006 14.2649 12.1815 14.2755C12.186 14.276 12.19 14.2764 12.1944 14.2769C12.2295 14.2053 12.266 14.1338 12.3033 14.0627C12.262 14.0862 12.218 14.1075 12.1722 14.1267C12.1006 14.1564 12.0282 14.1795 11.9549 14.1978ZM15.4104 14.1853C15.4793 14.2062 15.5477 14.2231 15.6113 14.2373C15.662 14.1538 15.7175 14.0729 15.782 14.0004C15.7869 13.9951 15.7917 13.9893 15.7966 13.984C15.7197 13.9284 15.6322 13.8773 15.534 13.8302C15.5237 13.8458 15.5135 13.8609 15.5033 13.8764C15.4731 13.9791 15.442 14.0822 15.4104 14.1853ZM15.8686 14.0395C15.8624 14.0462 15.8557 14.0533 15.8495 14.0604C15.8024 14.1133 15.7602 14.1715 15.7206 14.2324C15.8184 14.2253 15.9184 14.2111 16.0157 14.1853C15.9726 14.1338 15.9237 14.0853 15.8686 14.0395ZM10.954 14.0147C10.9291 14.0844 10.9104 14.1564 10.8971 14.2293C10.9251 14.2249 10.9535 14.2213 10.9815 14.2178C10.9913 14.152 11.0037 14.0862 11.0184 14.0209C10.9975 14.0191 10.9757 14.0169 10.954 14.0147ZM13.5846 14.1524C13.5597 14.1733 13.538 14.1969 13.5189 14.2222C13.5357 14.2155 13.5526 14.2089 13.5695 14.2022C13.5749 14.1853 13.5802 14.1689 13.5846 14.1524ZM16.5326 13.9907C16.5713 14.064 16.6037 14.1409 16.6277 14.2182C16.6931 14.1867 16.7522 14.1471 16.8037 14.1022C16.8135 14.0413 16.8215 13.98 16.8273 13.9182C16.806 13.9293 16.7837 13.9364 16.7615 13.9378C16.718 13.9409 16.6797 13.9222 16.654 13.8849L16.6411 13.8667L16.6682 13.784C16.638 13.8507 16.5989 13.9138 16.5486 13.9724C16.5433 13.9787 16.538 13.9844 16.5326 13.9907ZM11.1091 14.032C11.0953 14.0902 11.0842 14.1484 11.0749 14.2075C11.106 14.2044 11.1366 14.2018 11.1677 14.1991C11.1455 14.1453 11.126 14.0898 11.1091 14.032ZM15.0517 14.1742C15.0926 14.1849 15.134 14.1942 15.1753 14.2018C15.1766 14.2 15.1775 14.1987 15.1789 14.1969C14.9793 14.1098 14.7962 13.9782 14.7037 13.7724C14.6851 13.7302 14.6709 13.6875 14.6606 13.6444C14.61 13.7107 14.5451 13.7747 14.4669 13.836C14.5189 13.9009 14.5829 13.9564 14.6549 14.004C14.7851 14.0431 14.9113 14.096 15.0313 14.1627C15.038 14.1667 15.0446 14.1702 15.0517 14.1742ZM11.222 14.0351C11.2469 14.0844 11.2762 14.1355 11.31 14.1889L11.3189 14.1884C11.4513 14.1795 11.586 14.1702 11.718 14.1515C11.6922 14.1324 11.6664 14.1133 11.6411 14.0942C11.6149 14.0747 11.5895 14.0551 11.5637 14.0364C11.4553 14.0409 11.3415 14.0404 11.222 14.0351ZM15.3171 14.1547C15.3193 14.1555 15.322 14.1564 15.3242 14.1573C15.3269 14.1493 15.3291 14.1413 15.3317 14.1333C15.3269 14.1404 15.322 14.1475 15.3171 14.1547ZM15.934 13.9764C16.0006 14.0324 16.0589 14.0929 16.1086 14.1569C16.2233 14.1164 16.3309 14.0582 16.4206 13.9751C16.3837 13.9124 16.3429 13.8524 16.2997 13.7973C16.2949 13.7907 16.2886 13.7835 16.282 13.7751C16.1544 13.8195 16.0353 13.8871 15.934 13.9764ZM13.682 14.14C13.6837 14.1444 13.6855 14.1489 13.6877 14.1533C13.7886 14.1107 13.8886 14.0649 13.9873 14.0169C13.8713 14.0249 13.7749 14.0467 13.6957 14.0827C13.6913 14.1018 13.6869 14.1209 13.682 14.14ZM13.4149 13.9982C13.43 14.0475 13.4469 14.0969 13.4646 14.1458C13.4846 14.1222 13.506 14.1009 13.5291 14.0818C13.5375 14.0747 13.5464 14.0675 13.5557 14.0609C13.5331 13.9871 13.5162 13.9111 13.5069 13.8347C13.47 13.8862 13.4389 13.9413 13.4149 13.9982ZM11.702 14.0262C11.75 14.0622 11.7966 14.0973 11.8442 14.1298C11.9446 14.1098 12.0429 14.0827 12.1371 14.0435C12.2375 14.0018 12.3269 13.948 12.4011 13.8849C12.4113 13.8671 12.422 13.8489 12.4326 13.8311C12.2251 13.9355 11.9829 14.0004 11.702 14.0262ZM14.7424 13.592C14.7513 13.6409 14.7655 13.6889 14.7864 13.7355C14.87 13.9218 15.0424 14.0413 15.2309 14.1209C15.2949 14.0267 15.358 13.932 15.4206 13.8373C15.4255 13.82 15.4309 13.8027 15.4357 13.7853C15.4189 13.7782 15.4011 13.7711 15.3837 13.764C15.1775 13.6822 14.962 13.6244 14.7424 13.592ZM16.9246 13.8378C16.9211 13.8862 16.9166 13.9342 16.9113 13.9822C16.9469 13.9307 16.9735 13.8751 16.9895 13.8169C16.994 13.8 16.998 13.7831 17.0006 13.7658C16.9926 13.7631 16.9846 13.7604 16.9766 13.7578L16.9744 13.7618C16.9624 13.7875 16.9451 13.8133 16.9246 13.8378ZM13.7242 13.6182C13.7269 13.6475 13.7291 13.6769 13.73 13.7067C13.7335 13.7982 13.7282 13.8889 13.7153 13.9773C13.8037 13.9462 13.9077 13.9284 14.0286 13.924C14.0753 13.9222 14.1215 13.9222 14.1682 13.924C14.2264 13.8915 14.2851 13.8555 14.3415 13.8155C14.3029 13.7533 14.2731 13.684 14.254 13.6084C14.25 13.5924 14.2464 13.5764 14.2437 13.56C14.0691 13.564 13.8949 13.5831 13.7242 13.6182ZM13.5886 13.7311C13.5931 13.8111 13.6055 13.8907 13.6251 13.9684C13.6375 13.884 13.6429 13.7973 13.6397 13.7098C13.6393 13.7 13.6389 13.6902 13.6384 13.68C13.6211 13.6969 13.6046 13.7138 13.5886 13.7311ZM14.3255 13.936C14.3682 13.9409 14.4104 13.9475 14.4526 13.9551C14.4322 13.9342 14.4126 13.9129 14.3944 13.8898C14.3722 13.9053 14.3491 13.9209 14.3255 13.936ZM11.1802 13.9422C11.2686 13.9471 11.3544 13.9493 11.4366 13.9489C11.3531 13.8973 11.2669 13.8573 11.1722 13.8409C11.1691 13.8404 11.1664 13.84 11.1633 13.8395C11.1615 13.8444 11.1602 13.8489 11.1589 13.8538C11.1637 13.8795 11.1695 13.9053 11.1757 13.9302C11.1766 13.9342 11.1784 13.9382 11.1802 13.9422ZM11.1935 13.7529C11.3415 13.78 11.4695 13.8573 11.5909 13.944C11.9749 13.9222 12.2864 13.8311 12.5349 13.6684C12.5362 13.6675 12.538 13.6667 12.5393 13.6658C12.5677 13.6244 12.5971 13.5844 12.6277 13.5449C12.6722 13.3978 12.6762 13.2369 12.6806 13.0689C12.6842 12.9267 12.6877 12.7813 12.7184 12.6422C12.6184 12.6209 12.5117 12.6231 12.414 12.6324C12.3037 12.6715 12.1957 12.7187 12.0913 12.7733C11.8771 12.8853 11.6962 13.0191 11.5535 13.1711C11.3895 13.3449 11.2735 13.5431 11.1935 13.7529ZM10.9886 13.9275C11.006 13.9293 11.0233 13.9307 11.0411 13.9324C11.0469 13.9111 11.0526 13.8902 11.0593 13.8689C11.0575 13.8622 11.0553 13.8555 11.0535 13.8484C11.0477 13.8511 11.0424 13.8542 11.0375 13.8582C11.0157 13.8742 11.0011 13.9004 10.9886 13.9275ZM15.5842 13.7538C15.6882 13.8044 15.7806 13.8595 15.862 13.9195C15.9655 13.8258 16.0869 13.7533 16.2175 13.7031C16.1157 13.6 15.95 13.4769 15.7886 13.5453C15.6984 13.5831 15.6349 13.6764 15.5842 13.7538ZM9.49308 13.5915C9.50108 13.5947 9.50908 13.5978 9.51708 13.6004C9.96241 13.7591 10.4246 13.8658 10.8944 13.9178C10.8949 13.9164 10.8957 13.9147 10.8962 13.9133C10.9144 13.8693 10.938 13.8195 10.9833 13.7858C10.9984 13.7742 11.0157 13.7653 11.0344 13.7587C11.0295 13.7284 11.0269 13.6982 11.0251 13.6684C11.0229 13.6195 11.0255 13.5707 11.0322 13.5218C11.0295 13.3462 11.0531 13.1858 11.1024 13.0422C11.186 12.8 11.358 12.5969 11.5757 12.4542C11.5015 12.4507 11.4269 12.4449 11.3535 12.4395C10.6735 12.5693 10.07 12.824 9.59041 13.1889C9.57663 13.2204 9.56419 13.2524 9.55352 13.2853C9.52063 13.3849 9.50063 13.4875 9.49308 13.5915ZM16.3753 13.7467C16.4144 13.7969 16.4513 13.8507 16.4855 13.9071C16.5357 13.8471 16.574 13.7813 16.6011 13.712C16.5246 13.716 16.4491 13.7275 16.3753 13.7467ZM16.7429 13.8467C16.7469 13.848 16.7504 13.8484 16.7549 13.848C16.778 13.8462 16.8086 13.8271 16.8366 13.7995C16.838 13.7747 16.8393 13.7502 16.8402 13.7253C16.822 13.7222 16.8037 13.7195 16.7851 13.7178L16.7429 13.8467ZM13.4962 13.6867C13.4544 13.7089 13.4193 13.7387 13.4011 13.78C13.3922 13.8009 13.3877 13.8235 13.3873 13.8471C13.4189 13.7942 13.4553 13.7435 13.4962 13.6964C13.4962 13.6929 13.4962 13.6898 13.4962 13.6867ZM14.3353 13.5595C14.3371 13.5684 14.3393 13.5773 14.3415 13.5862C14.3575 13.6498 14.3824 13.708 14.4144 13.7609C14.4846 13.7049 14.5482 13.6422 14.5984 13.5738C14.5109 13.5653 14.4233 13.5604 14.3353 13.5595ZM13.5122 13.1627C13.4477 13.3244 13.3971 13.4969 13.3469 13.6667L13.3322 13.7164C13.37 13.6529 13.4322 13.6129 13.4984 13.5862C13.4997 13.5631 13.502 13.54 13.5051 13.5169C13.5149 13.4355 13.5326 13.3555 13.5575 13.2782C13.5442 13.2387 13.5291 13.2004 13.5122 13.1627ZM14.7477 13.5013C14.9771 13.5351 15.202 13.5947 15.4166 13.6804C15.4313 13.6862 15.4464 13.6924 15.4606 13.6982C15.4664 13.6778 15.4726 13.6569 15.4784 13.6364C15.4931 13.5844 15.5051 13.5347 15.4877 13.4973C15.4633 13.444 15.3851 13.4267 15.3117 13.4164C15.2166 13.4031 15.1189 13.3898 15.0197 13.3782C15.0104 13.3818 15.0011 13.3853 14.9922 13.3884L14.9869 13.3742C14.9229 13.3671 14.858 13.3613 14.7926 13.3573C14.7842 13.4067 14.7691 13.4547 14.7477 13.5013ZM15.8851 13.4351C16.062 13.4351 16.2206 13.5724 16.3117 13.6711C16.4149 13.6409 16.5224 13.624 16.63 13.6213C16.6931 13.368 16.6264 13.0818 16.482 12.8538C16.3562 12.7649 16.2211 12.692 16.0829 12.6315C16.0713 12.6293 16.0602 12.6271 16.0491 12.6253C15.9824 12.7533 15.886 12.8742 15.7629 12.9791C15.5909 13.1262 15.39 13.228 15.1957 13.3093C15.2393 13.3151 15.2824 13.3213 15.3251 13.3271C15.4224 13.3404 15.5282 13.3671 15.5709 13.4595C15.5922 13.5062 15.5904 13.5547 15.5806 13.6027C15.626 13.5458 15.6815 13.4924 15.7535 13.4618C15.7975 13.4431 15.842 13.4351 15.8851 13.4351ZM11.1233 13.5271C11.1242 13.572 11.1269 13.6182 11.1313 13.6653C11.214 13.4658 11.3295 13.2764 11.4869 13.1084C11.6362 12.9493 11.8246 12.8098 12.0473 12.6933C11.8335 12.7458 11.6566 12.8231 11.5117 12.9275C11.2984 13.0818 11.1575 13.3027 11.1233 13.5271ZM16.9189 13.3298C16.9206 13.3471 16.922 13.3644 16.9233 13.3813C16.93 13.468 16.9331 13.5551 16.9322 13.6422L16.9904 13.5222C16.9757 13.4587 16.9517 13.3938 16.9189 13.3298ZM16.8135 13.6307C16.8229 13.632 16.8322 13.6333 16.842 13.6347C16.842 13.6053 16.842 13.576 16.8411 13.5467L16.8135 13.6307ZM16.6544 12.9933C16.7366 13.1929 16.7669 13.4138 16.7229 13.6187L16.8255 13.3049C16.8193 13.2507 16.81 13.1955 16.7949 13.1413C16.7797 13.1227 16.7637 13.104 16.7469 13.0858C16.7171 13.0538 16.6864 13.0227 16.6544 12.9933ZM13.6069 13.4515C13.602 13.4764 13.598 13.5018 13.5953 13.5271C13.594 13.5364 13.5931 13.5458 13.5922 13.5551C13.602 13.5524 13.6113 13.5502 13.6206 13.548C13.622 13.5475 13.6233 13.5475 13.6246 13.5471C13.6197 13.5155 13.6135 13.4835 13.6069 13.4515ZM9.45441 13.3004C9.3993 13.3529 9.3393 13.4293 9.3673 13.4978C9.3753 13.5169 9.38908 13.5329 9.40641 13.5462C9.41486 13.4631 9.43041 13.3809 9.45441 13.3004ZM14.2349 13.3849C14.1544 13.4004 14.0753 13.4218 13.9975 13.4507C13.962 13.464 13.9264 13.48 13.8922 13.4978C14.0055 13.4822 14.1193 13.4729 14.234 13.4702C14.2322 13.4413 14.2326 13.4129 14.2349 13.3849ZM14.3237 13.4693C14.4295 13.4698 14.5357 13.476 14.6411 13.488C14.6397 13.4431 14.6424 13.3982 14.6473 13.3529C14.5397 13.3515 14.4322 13.356 14.3264 13.3702C14.3229 13.4027 14.322 13.436 14.3237 13.4693ZM13.6535 13.2791C13.6731 13.3395 13.6895 13.4013 13.702 13.4644L13.726 13.4311C13.8184 13.3035 13.8326 13.1467 13.7944 12.9973C13.7357 13.0853 13.6882 13.1804 13.6535 13.2791ZM16.9526 13.2067C16.9926 13.2711 17.0251 13.3369 17.0491 13.4027L17.2197 13.0524C17.2802 12.928 17.3491 12.7871 17.3495 12.6431C17.3517 12.2071 16.7909 11.9982 16.55 11.9284C16.4006 11.8853 16.2309 11.844 16.0589 11.832C16.118 11.9507 16.1509 12.0751 16.1535 12.1991C16.1549 12.2667 16.1477 12.3347 16.1317 12.4022C16.1869 12.4347 16.2393 12.4702 16.2882 12.5084C16.3517 12.5124 16.4149 12.5169 16.478 12.5209C16.6655 12.5333 16.9242 12.5738 17.0029 12.7795C17.0473 12.896 17.0144 13.0178 16.9735 13.1422L16.9526 13.2067ZM12.8046 12.6675C12.7775 12.7942 12.774 12.9302 12.7704 13.0711C12.7677 13.18 12.7651 13.2911 12.75 13.3991C12.858 13.2813 12.9749 13.1791 13.0966 13.0898C13.0837 12.9462 13.0304 12.8155 12.9153 12.7284C12.8811 12.7027 12.8437 12.6827 12.8046 12.6675ZM13.8602 12.908C13.9131 13.0591 13.9215 13.2227 13.8629 13.3684C14.0046 13.3098 14.1553 13.2418 14.29 13.1515C14.3362 13.0355 14.4082 12.9289 14.4957 12.8369C14.4242 12.7751 14.3402 12.7222 14.2522 12.6791C14.178 12.6964 14.1015 12.7164 14.0237 12.7395C13.9637 12.7902 13.9091 12.8467 13.8602 12.908ZM14.2495 13.2831C14.2437 13.2862 14.238 13.2898 14.2326 13.2929C14.238 13.292 14.2429 13.2911 14.2482 13.2902C14.2482 13.288 14.2486 13.2858 14.2495 13.2831ZM14.8015 13.268C14.8709 13.2724 14.9402 13.2787 15.0082 13.2862C15.2393 13.1982 15.4962 13.0875 15.7037 12.9102C15.8082 12.8213 15.8926 12.7178 15.9535 12.6089C15.6562 12.5604 15.298 12.5311 14.9726 12.6404C14.9469 12.6995 14.922 12.76 14.8975 12.8209C14.8566 12.9227 14.8171 13.0258 14.7869 13.1289C14.7953 13.1644 14.8002 13.2013 14.8011 13.2395C14.8015 13.2489 14.8015 13.2582 14.8015 13.268ZM14.3633 13.2111C14.3557 13.2324 14.3491 13.2547 14.3433 13.2764C14.4491 13.264 14.5553 13.26 14.6611 13.2622C14.6695 13.2173 14.6806 13.1724 14.6931 13.1275C14.6775 13.0724 14.6517 13.0204 14.6189 12.9729C14.5464 13.0662 14.4589 13.1444 14.3633 13.2111ZM11.7464 12.4587C11.4891 12.5898 11.2806 12.8049 11.1886 13.0715C11.1766 13.1062 11.1664 13.1422 11.1575 13.1795C11.2313 13.0569 11.3335 12.9449 11.4589 12.8547C11.6793 12.6955 11.9664 12.596 12.3362 12.5498C12.3549 12.5475 12.374 12.5453 12.3935 12.5431C12.522 12.4978 12.654 12.4627 12.7877 12.4378C12.7895 12.4342 12.7913 12.4302 12.7935 12.4267C12.7944 12.4249 12.7953 12.4231 12.7962 12.4213C12.7451 12.3982 12.6922 12.3791 12.6384 12.3631C12.6069 12.3538 12.5753 12.3462 12.5433 12.34C12.4984 12.3391 12.4535 12.3391 12.4091 12.3391C12.1842 12.4333 11.9362 12.4573 11.7464 12.4587ZM13.5593 13.0515C13.5757 13.084 13.5913 13.1173 13.6055 13.1511C13.646 13.0587 13.6971 12.9711 13.7575 12.8902C13.7504 12.8738 13.7424 12.8573 13.7344 12.8413C13.7064 12.8524 13.6784 12.8644 13.6509 12.8769C13.6171 12.9324 13.5873 12.9911 13.5593 13.0515ZM16.8771 13.0991C16.8806 13.104 16.8846 13.1089 16.8882 13.1133C16.9237 13.0049 16.9526 12.9004 16.9189 12.812C16.8589 12.6547 16.6353 12.6222 16.4722 12.6111C16.4482 12.6093 16.4237 12.608 16.3997 12.6062C16.4091 12.6155 16.4184 12.6253 16.4273 12.6351C16.574 12.6947 16.7086 12.7827 16.7966 12.9195C16.8326 12.9764 16.8584 13.0369 16.8771 13.0991ZM12.8277 12.5795C12.8775 12.5978 12.9255 12.6227 12.97 12.6564C13.0904 12.7475 13.154 12.8764 13.178 13.0191C13.2255 12.9604 13.2735 12.9018 13.3229 12.844C13.2184 12.7084 13.0922 12.5924 12.9504 12.504C12.9171 12.5084 12.8833 12.5133 12.85 12.5191C12.842 12.5387 12.8344 12.5591 12.8277 12.5795ZM10.8815 12.4147C10.7189 12.4147 10.558 12.4289 10.4033 12.4729C10.1095 12.5569 9.85397 12.7515 9.68908 13.0062C10.1113 12.7169 10.5704 12.532 11.0211 12.4178C10.9744 12.4155 10.9282 12.4147 10.8815 12.4147ZM14.5602 12.8991C14.5309 12.9298 14.5033 12.9622 14.4784 12.9964C14.5077 12.9662 14.5353 12.9338 14.5602 12.8991ZM14.6726 12.8929C14.6966 12.9244 14.718 12.9573 14.7362 12.9915C14.7602 12.9227 14.7864 12.8542 14.814 12.7867C14.8273 12.7533 14.8411 12.72 14.8549 12.6867C14.8144 12.7053 14.7749 12.7275 14.7362 12.7529C14.7193 12.8018 14.6984 12.8489 14.6726 12.8929ZM13.502 12.9471C13.5033 12.9493 13.5046 12.9511 13.5055 12.9533C13.5073 12.9498 13.5091 12.9462 13.5109 12.9427C13.5082 12.944 13.5051 12.9458 13.502 12.9471ZM13.4384 12.8489C13.4433 12.856 13.4482 12.8631 13.4531 12.8707C13.4975 12.848 13.5424 12.8262 13.5873 12.8058C13.6073 12.7738 13.6282 12.7427 13.6504 12.7124C13.638 12.6969 13.6251 12.6818 13.6113 12.6675C13.5517 12.7244 13.4944 12.7853 13.4384 12.8489ZM13.818 12.8089C13.8189 12.8102 13.8193 12.8115 13.8202 12.8129C13.8224 12.8107 13.8242 12.808 13.8264 12.8058C13.8233 12.8067 13.8206 12.8075 13.818 12.8089ZM13.09 12.4898C13.1989 12.5702 13.298 12.6667 13.3833 12.7751C13.4353 12.7164 13.4891 12.6595 13.546 12.6058C13.5357 12.5973 13.5255 12.5893 13.5153 12.5818C13.4629 12.5431 13.4069 12.5107 13.3486 12.4835C13.2624 12.4813 13.1762 12.4831 13.09 12.4898ZM14.3882 12.6502C14.45 12.6867 14.5082 12.728 14.5602 12.7742C14.5913 12.7462 14.6242 12.7204 14.658 12.6969C14.6669 12.6667 14.6735 12.636 14.678 12.6049C14.6157 12.6124 14.554 12.6213 14.4917 12.6315C14.4584 12.6373 14.4237 12.6435 14.3882 12.6502ZM13.7633 12.7151C13.7664 12.72 13.7695 12.7244 13.7726 12.7293C13.842 12.7031 13.9104 12.68 13.9784 12.6591C14.0033 12.6387 14.0291 12.6191 14.0553 12.6009C14.0522 12.6 14.0495 12.5991 14.0464 12.5982C14.0037 12.5849 13.9606 12.5729 13.9171 12.5618C13.8602 12.6075 13.8091 12.6591 13.7633 12.7151ZM13.678 12.6067C13.6882 12.6173 13.698 12.6289 13.7073 12.64C13.7384 12.6035 13.7717 12.5684 13.8077 12.536C13.7966 12.5338 13.7851 12.5315 13.774 12.5293C13.7411 12.5538 13.7091 12.5795 13.678 12.6067ZM14.7717 12.5942C14.7704 12.6062 14.7686 12.6178 14.7669 12.6298C14.7891 12.6178 14.8117 12.6067 14.8344 12.5969C14.8429 12.5933 14.8513 12.5898 14.8597 12.5862C14.83 12.5884 14.8011 12.5911 14.7717 12.5942ZM14.0122 12.4933C14.0326 12.4991 14.0531 12.5053 14.0735 12.5115C14.1362 12.5311 14.2002 12.5555 14.2624 12.584C14.3371 12.5675 14.4091 12.5538 14.478 12.5422C14.5473 12.5307 14.6171 12.5209 14.6864 12.5124C14.6873 12.4627 14.6829 12.4133 14.6722 12.3662C14.6686 12.3507 14.6642 12.3342 14.6589 12.3173C14.4006 12.3235 14.1882 12.3818 14.0122 12.4933ZM12.7051 12.5475C12.7171 12.5498 12.7291 12.552 12.7411 12.5547C12.7429 12.5493 12.7446 12.544 12.7464 12.5387C12.7326 12.5413 12.7189 12.5444 12.7051 12.5475ZM13.5513 12.4964C13.5571 12.5004 13.5629 12.5049 13.5686 12.5089C13.5837 12.52 13.5984 12.532 13.6131 12.544C13.6264 12.532 13.6402 12.5204 13.654 12.5089C13.6202 12.504 13.586 12.5 13.5513 12.4964ZM14.7531 12.3182C14.7557 12.3275 14.758 12.3373 14.7602 12.3471C14.7717 12.3978 14.7771 12.4502 14.7771 12.5031C14.8317 12.4978 14.8869 12.4929 14.942 12.4893C14.9664 12.4382 14.9913 12.3884 15.0184 12.3404C14.9251 12.3275 14.8366 12.3204 14.7531 12.3182ZM16.1042 12.4973C16.1077 12.4973 16.1113 12.4978 16.1153 12.4978C16.1122 12.496 16.1091 12.4938 16.106 12.492C16.1051 12.4942 16.1046 12.4955 16.1042 12.4973ZM15.9744 12.4902C15.9855 12.4907 15.9971 12.4915 16.0082 12.492C16.014 12.4769 16.0193 12.4618 16.0246 12.4462C15.7975 12.3267 15.5193 12.2547 15.1926 12.2307C15.1833 12.2435 15.1744 12.2569 15.1655 12.2707C15.2602 12.2875 15.3504 12.3075 15.4335 12.3275C15.6024 12.3689 15.7886 12.42 15.9744 12.4902ZM15.114 12.3542C15.09 12.3955 15.0673 12.4387 15.0455 12.4827C15.2455 12.4724 15.4464 12.472 15.646 12.4773C15.5655 12.4542 15.4873 12.4342 15.4122 12.4155C15.3077 12.3902 15.2086 12.3698 15.114 12.3542ZM13.8775 12.4587C13.8837 12.46 13.89 12.4613 13.8962 12.4631C13.8971 12.4627 13.898 12.4618 13.8989 12.4613C13.9424 12.4293 13.9877 12.4009 14.034 12.3764C14.0006 12.3911 13.9677 12.4075 13.9353 12.4253C13.9157 12.436 13.8966 12.4471 13.8775 12.4587ZM13.37 12.3933C13.498 12.3973 13.626 12.4107 13.7526 12.4333C13.7971 12.4018 13.8433 12.3724 13.8917 12.3458C14.1073 12.2271 14.3469 12.1738 14.562 12.1502C14.5366 12.1235 14.5064 12.0991 14.4695 12.0791C14.3651 12.0213 14.2402 12.0115 14.1109 12.0062C13.7406 11.9907 13.2793 12.0329 13.0109 12.288C13.134 12.3089 13.2557 12.3422 13.37 12.3933ZM12.9255 12.3849C12.9406 12.3933 12.9557 12.4018 12.9709 12.4107C13.014 12.4058 13.0575 12.4018 13.1011 12.3987C13.0473 12.3858 12.9931 12.376 12.9384 12.368C12.934 12.3733 12.9295 12.3791 12.9255 12.3849ZM15.2589 12.1458C15.5642 12.1742 15.8282 12.2449 16.0486 12.3569C16.0593 12.3049 16.0642 12.2524 16.0633 12.2013C16.0606 12.0755 16.0229 11.9484 15.9553 11.8289C15.8109 11.8298 15.6677 11.8551 15.5371 11.9209C15.4277 11.976 15.3371 12.0529 15.2589 12.1458ZM12.5802 12.2507C12.6842 12.2529 12.7922 12.2582 12.9002 12.2715C13.1829 11.9515 13.7024 11.8982 14.1144 11.9155C14.2495 11.9213 14.3913 11.9324 14.5131 11.9995C14.5753 12.0338 14.6282 12.0818 14.67 12.14C14.7486 12.1342 14.8224 12.132 14.8886 12.1311C14.9784 12.1298 15.0651 12.132 15.1491 12.1369C15.2433 12.0138 15.3553 11.9111 15.4957 11.84C15.6233 11.7755 15.7602 11.7462 15.898 11.7395C15.8197 11.6302 15.7157 11.5289 15.5904 11.444C15.2224 11.1942 14.7189 11.088 14.094 11.1289C13.5802 11.1622 13.2313 11.3129 13.0566 11.576C13.014 11.64 12.9824 11.7093 12.9486 11.7831C12.9149 11.8569 12.8802 11.9333 12.8335 12.0035C12.7646 12.1075 12.6771 12.188 12.5802 12.2507ZM14.7393 12.2267C14.8513 12.2284 14.962 12.2391 15.0682 12.2547C15.0744 12.2444 15.0811 12.2347 15.0873 12.2244C15.0233 12.2218 14.9571 12.2209 14.8895 12.2218C14.8433 12.2227 14.7926 12.224 14.7393 12.2267Z" fill="white"/>
<path d="M9.86005 29.8685L10.1436 30.42C10.2058 30.5409 10.2796 30.6529 10.3636 30.7556L8.96094 46.98H9.31072L12.0983 31.4725H16.4552L14.8978 46.98H15.2476L18.3903 30.7556C18.5027 30.6534 18.608 30.5414 18.704 30.42L19.1423 29.8685H9.86005Z" fill="#263138"/>
<path d="M9.86005 29.8685L10.1436 30.42C10.2058 30.5409 10.2796 30.6529 10.3636 30.7556L8.96094 46.98H9.31072L12.0983 31.4725H16.4552L14.8978 46.98H15.2476L18.3903 30.7556C18.5027 30.6534 18.608 30.5414 18.704 30.42L19.1423 29.8685H9.86005Z" fill="#045983"/>
<path d="M29.9262 46.6671H29.3062L26.2422 36.3164H27.3089L29.9262 46.6671Z" fill="#6997A9"/>
<path d="M18.8604 46.6671H19.4804L22.5444 36.3164H21.4777L18.8604 46.6671Z" fill="#6997A9"/>
<path d="M35.5082 46.6671H34.8882L31.8242 36.3164H32.8909L35.5082 46.6671Z" fill="#6997A9"/>
<path d="M29.136 23.6169C25.2472 24.4533 25.1809 29.5458 25.5752 32.8698C25.7396 34.2555 24.6605 35.4742 23.2649 35.4742H19.4383C18.8183 35.4742 18.6347 36.3169 19.1978 36.576C20.4556 37.1542 22.98 37.7444 28.0454 37.7444C35.7489 37.7444 35.4356 33.5786 36.252 29.5462C37.528 23.244 36.0569 22.1284 29.136 23.6169Z" fill="#436EB6"/>
<path d="M29.136 23.6169C25.2472 24.4533 25.1809 29.5458 25.5752 32.8698C25.7396 34.2555 24.6605 35.4742 23.2649 35.4742H19.4383C18.8183 35.4742 18.6347 36.3169 19.1978 36.576C20.4556 37.1542 22.98 37.7444 28.0454 37.7444C35.7489 37.7444 35.4356 33.5786 36.252 29.5462C37.528 23.244 36.0569 22.1284 29.136 23.6169Z" fill="#8EB0C1"/>
<path d="M24.4132 23.8244C23.7674 23.516 22.9937 23.7893 22.6848 24.4351L22.6501 24.5071L22.6021 24.6076L22.543 24.7262L22.4203 24.9684C22.3345 25.1289 22.2497 25.2907 22.1581 25.4453C22.1572 25.4467 22.1563 25.4484 22.1554 25.4498C22.2265 25.2111 22.3034 24.9724 22.383 24.7342C22.4648 24.4853 22.5474 24.2351 22.635 23.9862C22.8052 23.4884 22.9892 22.9822 23.1621 22.4907L23.1679 22.4742C23.2603 22.2098 23.1728 21.9053 22.9337 21.7338C22.643 21.5253 22.2381 21.5916 22.0292 21.8822C21.6981 22.3436 21.4088 22.8058 21.1243 23.2853C20.8425 23.7636 20.579 24.2542 20.331 24.76C20.0888 25.2684 19.8559 25.7889 19.6643 26.3467C19.5688 26.6267 19.4803 26.9147 19.4061 27.2218C19.3314 27.5293 19.2763 27.8551 19.2617 28.2342C19.2394 28.7813 19.6225 29.276 20.1768 29.3773L20.2612 29.3929C20.6154 29.4578 20.9932 29.4511 21.3381 29.3791C21.6839 29.3089 21.9941 29.1769 22.2639 29.0276C22.8061 28.7249 23.2043 28.3493 23.5457 27.968C23.7168 27.7773 23.871 27.5818 24.0132 27.3827C24.1545 27.1836 24.2897 26.9844 24.4101 26.7796C24.5314 26.5751 24.6474 26.3698 24.7519 26.1587C24.8043 26.0533 24.8563 25.9471 24.9048 25.8382L24.9768 25.6724L25.0532 25.4853C25.3106 24.8547 25.0354 24.1218 24.4132 23.8244Z" fill="#3A718D"/>
<path d="M22.0033 20.5707L21.9757 21.0858C21.9646 21.2902 21.9979 21.4951 22.0731 21.6854L22.2819 22.2142C22.3788 22.4596 22.6086 22.6271 22.8717 22.6445C23.2366 22.6685 23.5628 22.4014 23.5957 22.0374C23.6304 21.6538 23.5251 21.2511 23.5251 21.2511L23.4673 20.5969C23.4477 20.3751 23.2704 20.2 23.0486 20.1836L22.4908 20.1418C22.2371 20.1227 22.0171 20.3165 22.0033 20.5707Z" fill="#FAD2C3"/>
<path opacity="0.2" d="M23.5251 21.2511L23.4678 20.5973C23.4478 20.3751 23.27 20.2004 23.0491 20.184L22.5096 20.1426C22.4491 20.9858 22.8807 21.9222 23.3531 22.4906C23.4869 22.3818 23.5789 22.2222 23.5954 22.0373C23.6305 21.6542 23.5251 21.2511 23.5251 21.2511Z" fill="#040000"/>
<path d="M28.1618 22.6836C26.6738 22.7951 24.8121 22.916 23.4756 23.5524C22.8161 23.8667 22.6392 24.5262 22.737 25.2502C22.8925 26.4 23.0258 27.3178 23.313 28.2884C23.9756 30.5267 22.6458 32.1289 24.1383 33.8631C24.7925 34.6071 28.8032 35.3044 31.6432 34.3724C32.0503 32.6773 31.5218 28.4631 30.953 24.6276C30.7525 23.2724 29.5281 22.5813 28.1618 22.6836Z" fill="#3A718D"/>
<path d="M26.3162 20.8827C26.3887 21.5129 26.7007 22.4382 27.234 22.7258C27.4882 22.8631 27.5273 23.2058 27.31 23.3956C26.9953 23.6707 26.51 23.9129 25.8593 24.0454C25.0104 24.2182 24.8278 23.9627 24.8416 23.6982C24.8482 23.5707 24.9096 23.4538 24.99 23.3547C25.2638 23.0165 24.9851 22.7538 24.8193 22.556L26.3162 20.8827Z" fill="#FAD2C3"/>
<path opacity="0.2" d="M25.9349 21.8325C25.9184 21.7965 25.8989 21.7609 25.8789 21.7267L24.8193 22.5565C24.9273 22.6849 25.0829 22.8422 25.1029 23.0293C25.65 22.7031 26.0953 22.1751 25.9349 21.8325Z" fill="#040000"/>
<path d="M19.3359 43.5711C19.5386 43.3591 20.8524 42.956 20.8524 42.956C21.4022 44.516 21.7008 45.9675 21.7008 45.9675L20.0039 46.1378C20.0039 46.1378 19.7239 44.4191 19.3359 43.5711Z" fill="#FAD2C3"/>
<path d="M26.8389 33.0342C21.9327 33.104 15.4758 32.8414 16.9971 37.3134C17.6482 39.2271 17.5949 39.9311 18.3562 42.2494C18.6838 43.2476 18.7958 43.5418 19.0336 44.2329C19.294 44.8529 20.8558 44.7374 21.4322 44.4951C22.1251 44.1258 21.5385 43.1302 21.4576 42.5702C21.0638 39.8338 21.8816 38.7889 21.0211 36.9947C22.5869 37.2214 26.9882 37.0631 27.6438 34.3729C27.6438 34.3729 28.5456 33.2996 26.8389 33.0342Z" fill="#C3DAE4"/>
<path d="M19.433 44.5618L19.6423 44.976C19.6681 45.0271 19.7237 45.0551 19.7801 45.0453C20.0579 44.9964 20.8863 44.864 21.3686 44.9222C21.4415 44.9311 21.5068 44.8756 21.5112 44.8022C21.521 44.6396 21.5192 44.428 21.5166 44.2956C21.5152 44.2249 21.4575 44.1689 21.3868 44.1689C21.101 44.1702 20.3637 44.1933 19.5206 44.3764C19.4379 44.3942 19.3948 44.4862 19.433 44.5618Z" fill="#B2D3E0"/>
<path d="M22.0679 47.0422L21.887 45.8498C21.879 45.796 21.8266 45.7582 21.7617 45.7587L20.0217 45.7662C19.8844 45.7667 19.7288 45.788 19.6262 45.8725C19.2346 46.1956 18.6279 46.5053 17.7457 46.6769C17.467 46.7311 17.5853 47.2849 18.2395 47.2822C19.3213 47.2778 19.2759 47.2436 20.1986 47.2396C20.9875 47.236 21.1857 47.2756 21.8119 47.2822C21.9622 47.2836 22.087 47.1658 22.0679 47.0422Z" fill="#01435C"/>
<path d="M25.7119 19.2276C26.1723 20.2827 26.495 20.8729 26.2496 21.7009C25.8803 22.9463 24.3843 23.2267 23.6194 22.3547C22.931 21.5698 22.2936 19.976 23.0816 18.9787C23.8581 17.9965 25.2514 18.1725 25.7119 19.2276Z" fill="#FAD2C3"/>
<path d="M24.8646 21.7644C24.918 21.7627 24.9744 21.7653 25.0348 21.7738C25.0513 21.776 25.0624 21.7911 25.0602 21.8076C25.0579 21.8236 25.0433 21.8351 25.0264 21.8329C24.5868 21.7707 24.3379 22.0493 24.3353 22.0524C24.3246 22.0649 24.3055 22.0662 24.2935 22.0555C24.2811 22.0449 24.2797 22.0258 24.2904 22.0138C24.2997 22.0018 24.5002 21.7773 24.8646 21.7644Z" fill="#22120E"/>
<path d="M24.3901 20.5058C24.3377 20.5365 24.3332 20.6258 24.3799 20.7058L24.5697 20.5956C24.523 20.5156 24.4426 20.4756 24.3901 20.5058Z" fill="#22120E"/>
<path d="M23.3989 21.0649C23.3465 21.0956 23.342 21.1849 23.3887 21.2649L23.5785 21.1547C23.5314 21.0747 23.4514 21.0347 23.3989 21.0649Z" fill="#22120E"/>
<path d="M24.1319 20.0053C24.1448 19.9889 24.1666 19.9805 24.1884 19.9858C24.4239 20.0449 24.5724 19.9102 24.5737 19.9089C24.5959 19.8885 24.6302 19.8898 24.6506 19.912C24.671 19.9342 24.6697 19.9685 24.6475 19.9889C24.6395 19.996 24.4533 20.1649 24.1613 20.0911C24.1319 20.084 24.1146 20.0542 24.1217 20.0249C24.1244 20.0178 24.1275 20.0111 24.1319 20.0053Z" fill="#22120E"/>
<path d="M23.2758 20.4893C23.286 20.4822 23.298 20.4787 23.3114 20.48C23.3412 20.4827 23.3634 20.5089 23.3612 20.5387C23.3358 20.8387 23.1158 20.96 23.1065 20.9649C23.0798 20.9791 23.0469 20.9693 23.0327 20.9427C23.0185 20.9165 23.0292 20.8836 23.0549 20.8689C23.0638 20.8645 23.2327 20.7676 23.2527 20.5289C23.2536 20.5129 23.2629 20.4982 23.2758 20.4893Z" fill="#22120E"/>
<path opacity="0.2" d="M23.6186 21.1196C23.6186 21.1196 23.6355 21.3907 23.4199 21.5262C23.8995 21.4582 23.6186 21.1196 23.6186 21.1196Z" fill="#040000"/>
<path opacity="0.2" d="M24.2598 20.768C24.2598 20.768 24.4931 20.9071 24.7122 20.7778C24.4509 21.1089 24.2598 20.768 24.2598 20.768Z" fill="#040000"/>
<path d="M26.5818 19.2631C26.5298 18.7867 26.4045 18.4316 26.2374 18.1907C26.3192 18.2147 26.3974 18.2333 26.4605 18.24C26.0365 17.5956 25.345 17.7169 25.1259 17.9769C24.8552 17.3849 24.4716 17.7804 24.037 17.8551C23.6019 17.9298 22.7827 17.6151 22.7827 17.6151C22.7827 17.6151 22.961 17.9293 23.2521 17.9716C22.6881 18.2262 22.4801 18.6644 22.3303 19.0018C22.1805 19.3387 21.7285 19.7436 21.7285 19.7436C21.7285 19.7436 21.961 19.7716 22.2441 19.5547C22.1872 19.8982 21.9494 20.54 21.8303 20.6907C22.1423 20.5876 22.4285 20.2089 22.4285 20.2089C22.4285 20.2089 22.4841 20.8298 22.7747 21.2458C22.7147 20.7102 23.5707 19.6404 23.5707 19.6404C23.5707 19.6404 23.5138 19.8742 23.5725 20.3333C23.9596 20.0071 24.5881 18.9373 24.5881 18.9373C24.5881 18.9373 24.5907 19.3831 24.7196 19.8573C24.7498 19.6133 24.9405 19.3609 24.9405 19.3609C24.8263 19.7436 25.1156 20.6293 25.1156 20.6293C25.1156 20.6293 25.0881 20.2671 25.1596 19.9387C25.241 20.2027 25.741 20.4929 25.9458 20.5222C25.945 20.5222 26.7263 20.5836 26.5818 19.2631Z" fill="#22120E"/>
<path d="M26.5716 20.2231C26.5574 20.524 26.4054 20.7906 26.2191 20.9542C25.9396 21.2004 25.6382 20.9893 25.5814 20.6409C25.5298 20.3271 25.6134 19.8213 25.9591 19.7089C26.2996 19.5982 26.588 19.8791 26.5716 20.2231Z" fill="#FAD2C3"/>
<path opacity="0.2" d="M23.325 37.0093C23.2658 36.3285 23.1796 35.6476 23.0636 34.9742C23.0076 34.6493 22.9081 34.3547 22.7698 34.0911C19.4787 33.6533 19.1818 36.3933 21.3605 41.6022C21.2454 39.5556 21.7725 38.56 21.0223 36.9951C21.5498 37.0716 22.4023 37.1036 23.325 37.0093Z" fill="#040000"/>
<path opacity="0.2" d="M26.1835 20.0596L26.4035 20.516C26.491 20.6974 26.5342 20.8871 26.5302 21.0729L26.5195 21.588C26.5146 21.8271 26.3479 22.0222 26.0915 22.0894C25.7359 22.1827 25.3102 22.0067 25.1413 21.6867C24.9635 21.3494 24.9177 20.968 24.9177 20.968L24.7306 20.3702C24.667 20.1676 24.779 19.976 24.9942 19.9178L25.5355 19.7711C25.7826 19.704 26.075 19.8342 26.1835 20.0596Z" fill="#040000"/>
<path d="M26.3108 20.1195L26.4802 20.6066C26.5473 20.8 26.5722 21.0058 26.5526 21.2098L26.4984 21.776C26.4735 22.0386 26.2993 22.2631 26.0508 22.3529C25.7068 22.4773 25.3193 22.3111 25.1868 21.9702C25.0473 21.6111 25.0366 21.1951 25.0366 21.1951L24.9108 20.5507C24.8682 20.332 24.9899 20.1151 25.1988 20.0373L25.7228 19.8426C25.9619 19.7542 26.2273 19.8791 26.3108 20.1195Z" fill="#FAD2C3"/>
<path d="M29.7825 23.2738C29.0883 23.1004 28.3852 23.5222 28.2119 24.2164L28.187 24.3164L28.1385 24.5098L28.0803 24.7329C28.0381 24.8822 27.9967 25.0329 27.9492 25.1804C27.8576 25.4773 27.7483 25.7635 27.6332 26.0351C27.631 26.04 27.6287 26.0444 27.627 26.0489C27.5127 25.704 27.407 25.344 27.3119 24.9787C27.2416 24.72 27.1754 24.4578 27.1132 24.1938C27.0501 23.9298 26.9856 23.6644 26.9274 23.3969C26.8056 22.8649 26.6927 22.3187 26.5767 21.7898L26.5736 21.7742C26.5132 21.4982 26.2754 21.2844 25.9794 21.2671C25.6225 21.2458 25.3159 21.5182 25.2945 21.8751C25.2599 22.46 25.2603 23.0249 25.2754 23.6013C25.2919 24.1755 25.3301 24.7507 25.3923 25.3315C25.4239 25.6218 25.4652 25.9129 25.5127 26.2071C25.5607 26.5013 25.6167 26.7978 25.6932 27.0991C25.7679 27.4004 25.8572 27.7075 25.9816 28.0302C26.0443 28.192 26.1176 28.3573 26.2127 28.5307C26.3083 28.704 26.423 28.8871 26.5923 29.0813C26.9514 29.4938 27.5674 29.5951 28.0443 29.2947L28.115 29.2502C28.3332 29.1129 28.5341 28.9591 28.7185 28.796C28.9016 28.6329 29.0616 28.4555 29.2119 28.2773C29.3599 28.0978 29.4927 27.9138 29.6167 27.7275C29.7372 27.5395 29.8447 27.3498 29.9456 27.1582C30.047 26.9675 30.1359 26.7742 30.2167 26.5795C30.2972 26.3849 30.3745 26.1902 30.4381 25.9924C30.5025 25.7947 30.5639 25.5973 30.6136 25.3955C30.6385 25.2947 30.6639 25.1933 30.6847 25.0898L30.7154 24.9315L30.7465 24.7498C30.8559 24.0889 30.443 23.4391 29.7825 23.2738Z" fill="#3A718D"/>
<path d="M24.2363 43.4795C24.4163 43.2479 25.6825 42.7142 25.6825 42.7142C26.3874 44.2106 26.831 45.6244 26.831 45.6244L25.1599 45.9653C25.1603 45.9653 24.7079 44.2839 24.2363 43.4795Z" fill="#FAD2C3"/>
<path d="M27.4687 32.7057C22.6469 33.0342 18.918 33.044 21.0456 37.2609C21.9562 39.0657 22.1362 40.0333 23.1278 42.2626C23.5549 43.2226 23.6953 43.504 24.002 44.1675C24.3238 44.7578 25.866 44.4853 26.4153 44.1862C27.0673 43.7489 26.3829 42.8177 26.246 42.2689C25.5776 39.5862 26.2598 38.6337 25.2371 36.9266C26.8171 37.0075 30.9882 37.0626 31.6438 34.3724C31.6442 34.3729 30.8593 32.7057 27.4687 32.7057Z" fill="#C3DAE4"/>
<path d="M24.4326 44.4551L24.6829 44.8458C24.7135 44.8938 24.7717 44.9164 24.8269 44.9009C25.0984 44.8244 25.9091 44.6089 26.3944 44.6178C26.4677 44.6191 26.5273 44.5573 26.5242 44.484C26.5175 44.3209 26.4944 44.1106 26.478 43.9795C26.4695 43.9093 26.4064 43.8595 26.3362 43.8666C26.0517 43.8969 25.3211 43.9942 24.5006 44.2618C24.4202 44.288 24.3873 44.384 24.4326 44.4551Z" fill="#B2D3E0"/>
<path d="M27.3052 46.5791L26.9585 45.3711C26.9425 45.3191 26.8856 45.2893 26.8212 45.2991L25.1007 45.5591C24.9647 45.5795 24.8141 45.6231 24.7247 45.7218C24.3843 46.0982 23.9092 46.5053 23.027 46.6764C22.7483 46.7306 22.8665 47.2844 23.5207 47.2818C24.6025 47.2773 24.5559 47.1391 25.4683 47.0058C26.1581 46.9049 26.4505 46.9004 27.075 46.8435C27.2243 46.8302 27.3363 46.7004 27.3052 46.5791Z" fill="#01435C"/>
<path d="M8.40025 29.8687L42.9385 29.8687V29.2296L8.40025 29.2296V29.8687Z" fill="#436EB6"/>
<path d="M8.40025 29.8687L42.9385 29.8687V29.2296L8.40025 29.2296V29.8687Z" fill="#045983"/>
<path opacity="0.3" d="M33.5696 29.8687H42.9385V29.2296H33.5696V29.8687Z" fill="#436EB6"/>
<path d="M42.0288 46.98H42.3786L40.9759 30.7555C41.0599 30.6533 41.1337 30.5413 41.1959 30.42L41.4795 29.8684H32.1973L32.6355 30.42C32.7315 30.5409 32.8368 30.6529 32.9493 30.7555L36.0919 46.98H36.4417L34.8844 31.472H39.2413L42.0288 46.98Z" fill="#263138"/>
<path d="M42.0288 46.98H42.3786L40.9759 30.7555C41.0599 30.6533 41.1337 30.5413 41.1959 30.42L41.4795 29.8684H32.1973L32.6355 30.42C32.7315 30.5409 32.8368 30.6529 32.9493 30.7555L36.0919 46.98H36.4417L34.8844 31.472H39.2413L42.0288 46.98Z" fill="#045983"/>
<path d="M17.1642 26.6396H8.96289V29.3569H17.1642V26.6396Z" fill="#436EB6"/>
<path d="M17.1642 26.6396H8.96289V29.3569H17.1642V26.6396Z" fill="#C3DAE4"/>
<path opacity="0.3" d="M17.1644 26.6396H13.0635V29.3569H17.1644V26.6396Z" fill="#436EB6"/>
<path opacity="0.3" d="M10.3584 27.6573L13.0544 27.8836L16.4104 27.6573H10.3584Z" fill="#436EB6"/>
<path opacity="0.3" d="M9.16406 28.2987L10.7321 28.4063L12.6836 28.2987H9.16406Z" fill="#436EB6"/>
<path d="M13.0639 26.1587C11.9608 26.6867 8.8457 26.2814 8.8457 26.2814C8.8457 26.2814 9.25548 26.6396 9.66081 26.6396H16.8346C16.8346 26.6396 17.1079 26.5485 17.1079 26.4511C15.279 26.724 13.4217 26.3756 13.0639 26.1587Z" fill="#436EB6"/>
<path d="M13.0639 26.1587C11.9608 26.6867 8.8457 26.2814 8.8457 26.2814C8.8457 26.2814 9.25548 26.6396 9.66081 26.6396H16.8346C16.8346 26.6396 17.1079 26.5485 17.1079 26.4511C15.279 26.724 13.4217 26.3756 13.0639 26.1587Z" fill="#C3DAE4"/>
<path d="M42.0645 27.9036H33.3525V29.3565H42.0645V27.9036Z" fill="#436EB6"/>
<path d="M42.0645 27.9036H33.3525V29.3565H42.0645V27.9036Z" fill="#C3DAE4"/>
<path opacity="0.3" d="M42.064 27.9036H37.708V29.3565H42.064V27.9036Z" fill="#436EB6"/>
<path opacity="0.3" d="M39.9953 28.748L37.1313 28.6267L33.5664 28.748H39.9953Z" fill="#436EB6"/>
<path opacity="0.3" d="M41.2631 28.4045L39.5973 28.3467L37.5244 28.4045H41.2631Z" fill="#436EB6"/>
<path d="M36.9089 27.0792C36.6551 27.9716 33.2275 27.5454 33.2275 27.5454C33.2275 27.5454 33.6627 27.9036 34.0933 27.9036H41.7138C41.7138 27.9036 42.6164 27.6983 42.6164 27.6009C40.6742 27.8743 37.7084 27.6827 36.9089 27.0792Z" fill="#436EB6"/>
<path d="M36.9089 27.0792C36.6551 27.9716 33.2275 27.5454 33.2275 27.5454C33.2275 27.5454 33.6627 27.9036 34.0933 27.9036H41.7138C41.7138 27.9036 42.6164 27.6983 42.6164 27.6009C40.6742 27.8743 37.7084 27.6827 36.9089 27.0792Z" fill="#C3DAE4"/>
<path d="M24.4959 21.5165C24.4924 21.5116 24.4359 21.5462 24.3479 21.6062C24.3262 21.6218 24.3035 21.6347 24.2879 21.624C24.2702 21.6138 24.2595 21.5845 24.2488 21.5525C24.2248 21.4871 24.1995 21.4187 24.1733 21.3471C24.0635 21.0565 23.9648 20.8249 23.9533 20.8293C23.9417 20.8338 24.0213 21.0729 24.131 21.3636C24.1586 21.4347 24.1848 21.5027 24.2102 21.5676C24.2226 21.5969 24.2324 21.6347 24.2693 21.6556C24.2879 21.6658 24.3124 21.6636 24.3284 21.6556C24.3448 21.648 24.3564 21.6382 24.3666 21.6302C24.4497 21.5645 24.4995 21.5209 24.4959 21.5165Z" fill="#263138"/>
<g opacity="0.38">
<path d="M16.7463 20.0409H11.8125V21.3462H16.7463V20.0409Z" fill="#C3DAE4"/>
</g>
<g opacity="0.38">
<path d="M14.6604 22.7209C14.6599 22.7204 14.6595 22.7124 14.659 22.6973C14.6586 22.68 14.6581 22.6578 14.6573 22.6302C14.6564 22.5689 14.655 22.4831 14.6537 22.3733C14.6519 22.148 14.6488 21.824 14.6453 21.4155L14.6604 21.4306C13.5337 21.4329 11.7421 21.4364 9.72659 21.4404C9.7377 21.4293 9.70126 21.4653 9.75148 21.4155V21.416V21.4164V21.4178V21.4204V21.4258V21.4364V21.4573V21.4991V21.5826C9.75148 21.6382 9.75148 21.6938 9.75148 21.7493C9.75148 21.86 9.75148 21.9698 9.75148 22.0786C9.75148 22.2964 9.75104 22.5106 9.75104 22.7209L9.72659 22.6964C11.1315 22.7009 12.3608 22.7049 13.2426 22.7075C13.6817 22.7106 14.0341 22.7129 14.2804 22.7146C14.3999 22.716 14.4937 22.7173 14.5608 22.7178C14.591 22.7182 14.615 22.7191 14.6341 22.7195C14.651 22.72 14.6599 22.7204 14.6604 22.7209C14.6608 22.7213 14.6533 22.7218 14.6377 22.7226C14.6195 22.7231 14.5964 22.7235 14.5675 22.7244C14.5017 22.7253 14.4097 22.7262 14.2924 22.7275C14.0475 22.7293 13.6968 22.7315 13.2604 22.7346C12.3741 22.7373 11.139 22.7413 9.72704 22.7458H9.70259V22.7213C9.70259 22.5115 9.70215 22.2973 9.70215 22.0791C9.70215 21.9702 9.70215 21.8604 9.70215 21.7498C9.70215 21.6946 9.70215 21.6391 9.70215 21.5831V21.4995V21.4578V21.4369V21.4262V21.4209V21.4182V21.4169V21.4164V21.416C9.75237 21.3658 9.71637 21.4022 9.72748 21.3906C11.743 21.3946 13.5346 21.3982 14.6613 21.4004H14.6768V21.4155C14.6733 21.828 14.6701 22.1546 14.6684 22.3822C14.6666 22.4906 14.6657 22.5751 14.6648 22.6355C14.6644 22.6618 14.6635 22.6831 14.663 22.7C14.6613 22.7146 14.6608 22.7218 14.6604 22.7209Z" fill="#C3DAE4"/>
</g>
</g>
</g>
</g>
<defs>
<clipPath id="clip0_1141_49278">
<rect width="48" height="48" rx="24" fill="white"/>
</clipPath>
<clipPath id="clip1_1141_49278">
<rect width="48" height="48" fill="white"/>
</clipPath>
<clipPath id="clip2_1141_49278">
<rect width="48" height="48" fill="white"/>
</clipPath>
</defs>
</svg>
