<svg width="48" height="48" viewBox="0 0 48 48" fill="none" xmlns="http://www.w3.org/2000/svg">
<g clip-path="url(#clip0_1141_49364)">
<rect width="48" height="48" rx="24" fill="white"/>
<path opacity="0.72" fill-rule="evenodd" clip-rule="evenodd" d="M22.3455 14.6441C21.7802 14.7529 15.8744 16.9298 12.7233 17.7743C11.2122 18.1792 11.669 18.8334 11.6664 19.9747C11.6584 23.6009 11.9806 31.5307 11.7762 34.3867C11.7006 35.4396 12.6064 34.7636 13.6277 34.3885C17.0562 33.1294 20.2775 31.8467 23.5753 30.6009C24.7362 30.1623 24.5899 30.4307 24.5899 29.2672V15.7103C24.5904 13.5432 25.1922 14.0956 22.3455 14.6441Z" fill="#A0BCC5"/>
<path opacity="0.72" fill-rule="evenodd" clip-rule="evenodd" d="M25.8661 30.5378C27.831 31.1267 32.355 32.6645 34.9848 33.4009C35.3416 33.5009 35.8056 33.5743 36.0888 33.6587C37.4145 34.0556 38.2532 34.5152 38.2514 33.26L38.231 18.5738C38.2296 17.5383 37.9848 17.1005 36.6541 16.7738C33.5768 16.0183 24.627 14.116 24.4096 14.18C24.251 14.2272 24.4856 14.2365 24.1768 14.2285L24.2172 27.7903C24.223 29.7872 23.8292 29.9272 25.8661 30.5378Z" fill="#2E4B61"/>
<path opacity="0.72" fill-rule="evenodd" clip-rule="evenodd" d="M18.1314 29.021C17.8199 30.0646 17.4447 32.2757 17.4447 33.417C17.4447 34.0601 17.3794 33.7899 17.9483 33.5543C18.7496 33.2223 23.9865 30.7739 23.9932 30.761C24.3176 30.1241 24.4976 25.8561 24.4052 25.6321C24.2394 25.2308 25.7905 22.8917 25.2754 21.6481C24.7172 19.6454 21.855 19.5677 21.131 22.5188C19.7096 22.9392 13.1181 28.0414 18.1314 29.021Z" fill="#466C7C" stroke="#466C7C" stroke-width="0.0444444" stroke-miterlimit="10"/>
<path opacity="0.72" fill-rule="evenodd" clip-rule="evenodd" d="M31.0007 32.0175C28.8403 31.3268 26.8363 30.6708 25.3967 30.2019C24.7256 29.9832 24.4069 29.805 23.0558 30.505C20.7718 31.6881 13.4247 34.4135 13.0616 34.5863C11.8732 35.1535 12.1229 35.3961 12.794 35.6348C15.5763 36.6246 18.6949 38.3837 21.0305 39.2623C24.4447 40.5468 24.9109 40.9757 26.5656 40.2966C29.7198 39.0019 34.306 36.5303 37.11 34.8903C37.7709 34.5037 37.9532 34.1046 36.3745 33.6486C34.6065 33.1383 32.7554 32.5783 31.0007 32.0175Z" fill="#233F4F"/>
<path fill-rule="evenodd" clip-rule="evenodd" d="M20.9596 27.0365C19.4965 27.5041 19.4103 26.7219 19.6703 25.8276C20.1494 24.1788 21.1423 23.7348 22.7756 23.2499C24.9756 22.5965 24.6472 25.5045 22.7587 26.3632C22.0983 26.6632 21.3178 26.9219 20.9596 27.0365Z" fill="#D19C9D"/>
<path fill-rule="evenodd" clip-rule="evenodd" d="M22.2748 26.9116L23.969 26.0872C25.9997 25.0992 24.6694 21.3721 21.1299 23.8432C21.8219 24.8819 21.8845 25.7205 22.2748 26.9116Z" fill="#163A43"/>
<path fill-rule="evenodd" clip-rule="evenodd" d="M18.9472 25.7766C18.8725 24.4348 21.0698 21.5383 22.3329 21.201C22.4614 21.1668 22.5725 21.225 22.7992 21.5183C23.0352 21.8237 22.5512 22.4295 22.0885 23.0335C21.1005 24.3237 21.5503 26.1575 20.8667 26.945C20.3516 27.5379 19.0423 27.485 18.9472 25.7766Z" fill="#E3B2A0"/>
<path opacity="0.72" fill-rule="evenodd" clip-rule="evenodd" d="M33.6058 32.9961C30.9818 32.1997 27.5186 31.0334 25.8662 30.5379C24.9982 30.2779 24.572 30.1028 24.3675 29.8334C24.3955 28.0543 24.4991 25.7859 24.8129 23.9463C24.0129 23.4765 24.1484 22.1672 24.4502 21.1899C25.9266 16.4063 30.5818 20.3032 30.8884 22.837C32.952 23.9383 33.9684 25.1352 32.8573 26.7881C33.0315 27.7934 33.8391 32.1588 33.6058 32.9961Z" fill="#233F4F"/>
<path fill-rule="evenodd" clip-rule="evenodd" d="M22.0528 23.4917C21.7537 23.1681 21.287 23.4317 21.4328 24.3677C21.5932 24.7788 22.0323 25.1455 22.2066 24.8743C22.3835 24.5988 22.3435 23.8063 22.0528 23.4917Z" fill="#D19F8F"/>
<path fill-rule="evenodd" clip-rule="evenodd" d="M30.0919 31.4108C30.3973 31.3663 30.8839 25.2032 28.7475 22.9814C28.1324 22.3414 26.8604 21.4543 25.9937 21.4543C24.6359 21.4543 23.4381 21.2317 22.9795 23.7081C22.8537 24.3877 23.0088 25.6837 22.995 26.8183C22.4888 28.7139 22.0297 29.481 22.6017 29.6103L28.5399 30.9499L30.0919 31.4108Z" fill="#163A43"/>
<path fill-rule="evenodd" clip-rule="evenodd" d="M25.8612 21.505C25.7972 21.4845 25.7332 21.4672 25.6696 21.4521C24.4483 21.4365 23.4016 21.4316 22.9803 23.7085C22.8745 24.2787 22.967 25.2836 22.9914 26.2623C23.2074 26.5627 23.4865 26.7974 23.8327 26.9219C25.6292 27.5672 27.0034 26.9547 27.2772 25.8112C27.7714 23.745 28.5314 22.3543 25.8612 21.505Z" fill="#163A43"/>
<path fill-rule="evenodd" clip-rule="evenodd" d="M27.1913 22.2179C27.3615 22.1575 28.6997 22.7041 28.99 22.8552C29.3371 23.0366 29.67 23.3815 29.8704 23.873C30.4157 25.2117 28.4953 29.4197 27.8326 29.7966C27.6082 30.3308 27.3024 29.8615 27.0664 29.1672C26.9589 28.8512 27.1709 22.225 27.1913 22.2179Z" fill="#D19C9D"/>
<path opacity="0.72" fill-rule="evenodd" clip-rule="evenodd" d="M23.5578 36.8055C22.4538 37.7521 23.3586 38.0908 24.3973 38.0015C25.4938 37.9068 27.4929 36.9432 27.5186 36.9432C29.5924 38.1926 33.1151 34.7708 33.6093 32.8806C32.3222 32.4983 32.2551 32.4183 31.0013 32.0175C28.8409 31.3268 26.8369 30.6708 25.3973 30.2019C24.7262 29.9832 24.4075 29.805 23.0564 30.505C21.9582 31.0739 19.6893 31.9992 17.5889 32.8263C18.1978 33.1899 20.4346 33.7095 19.996 33.9526C19.2262 34.3788 19.0226 34.5321 18.5911 34.7943C17.7106 35.329 17.3733 36.0179 18.9106 36.1108C19.8929 36.1703 21.7431 35.3343 22.5782 35.2721C24.1791 35.1535 24.3764 35.797 23.9009 36.4392C23.9009 36.3606 24.0693 36.3934 24.1755 36.3934C24.1755 36.3094 24.5035 36.3477 24.1298 36.3477C24.1302 36.4512 23.4524 36.5952 23.5578 36.8055Z" fill="#172F39"/>
<path fill-rule="evenodd" clip-rule="evenodd" d="M25.1168 33.9615C25.1523 34.6672 25.1523 35.085 24.8372 35.4948C24.6195 35.7779 24.0426 36.1966 23.5461 36.5566C22.2861 37.4695 24.2915 37.4726 24.5528 37.3641C24.9172 37.213 26.8346 36.4401 26.7546 36.0357L26.4817 34.6526L26.4915 33.9841L25.1355 33.7064L25.1168 33.9615Z" fill="#416572"/>
<path fill-rule="evenodd" clip-rule="evenodd" d="M19.503 33.3272C19.5963 33.5046 19.5554 33.6512 19.5825 33.7494C19.6719 34.0712 18.9888 34.3934 18.1012 34.9757C17.683 35.2499 17.3692 35.3388 17.7399 35.4997C18.2301 35.7117 18.3145 35.7148 18.7012 35.6388C19.1234 35.5561 20.6879 34.9983 21.0203 34.7552C21.1052 34.693 21.0999 34.6614 21.079 34.477C21.0577 34.2881 20.963 33.9268 20.8345 33.5508L20.7985 33.237L19.503 33.3272Z" fill="#416572"/>
<path fill-rule="evenodd" clip-rule="evenodd" d="M23.109 36.8516C23.3393 36.6445 23.6251 36.5987 23.8339 36.6725C24.0326 36.7427 24.3451 36.9396 24.4886 37.2276C24.8904 37.1872 25.6935 36.7339 26.3659 36.3583C26.6686 36.1894 26.6859 36.0596 26.7268 35.8152C26.7664 35.8885 26.8242 35.9885 26.8539 36.109C26.8877 36.2454 26.8748 36.409 26.5704 36.6001C26.1957 36.8352 25.5651 37.1721 25.1255 37.3725C24.7211 37.557 24.0842 37.6845 23.5775 37.6001C23.2171 37.5396 22.6504 37.2636 23.109 36.8516Z" fill="#ECECEB"/>
<path fill-rule="evenodd" clip-rule="evenodd" d="M26.9917 21.9663C27.1659 21.9023 28.6334 22.4801 28.9552 22.6405C29.3401 22.8321 29.7308 23.1947 29.9841 23.7165C30.3366 24.4427 30.0481 26.097 29.5912 27.4267L27.4654 26.4325C27.2401 24.4698 26.9788 21.9712 26.9917 21.9663Z" fill="#163A43"/>
<path fill-rule="evenodd" clip-rule="evenodd" d="M24.6709 28.7592C24.0104 28.2463 22.4562 27.3908 21.2953 26.9063C18.8829 25.9001 18.7149 28.0445 18.634 29.8103C18.5864 30.8539 18.8815 32.7614 19.1549 33.9201L21.1535 33.9734C21.0935 33.905 21.0989 33.1903 21.2331 31.3223C21.2687 30.8294 21.3171 30.965 21.4989 31.277C21.95 32.0503 23.5353 33.1605 24.6407 33.6796C27.0584 34.8161 24.902 29.7352 24.6709 28.7592Z" fill="#8CABAE"/>
<path fill-rule="evenodd" clip-rule="evenodd" d="M27.084 22.9423C26.7636 22.5103 26.3312 22.0956 25.8618 21.5116C23.708 20.2152 25.6903 20.8379 26.0027 20.9672C26.1516 21.0285 25.4183 20.3521 25.5965 20.3356C25.7823 20.3187 26.3027 20.5387 26.4712 20.725C26.5649 20.6019 26.8249 20.6401 27.1512 20.8641C27.928 21.3974 28.0023 22.0836 28.2338 22.5761C28.8032 23.7867 28.4476 28.2587 28.0529 29.3494C27.4134 31.1165 26.3876 29.8494 26.1814 28.621C25.88 26.8214 27.0414 24.5374 27.084 22.9423Z" fill="#E3B2A0"/>
<path fill-rule="evenodd" clip-rule="evenodd" d="M26.7592 27.6925C25.8561 26.9859 24.6321 27.2814 24.8815 29.9494C24.9148 30.305 26.4503 34.3236 26.4859 34.3285C29.0086 34.6654 29.6512 33.3561 29.8157 31.2814L28.7686 30.9556C28.2863 30.1476 27.7579 28.4739 26.7592 27.6925Z" fill="#84A3A9"/>
<path fill-rule="evenodd" clip-rule="evenodd" d="M25.2205 20.8179C23.9441 20.4117 22.6516 21.0517 22.0899 22.1072C21.4667 23.2774 21.7463 25.7157 23.1921 26.2348C24.9885 26.8801 26.3627 26.2677 26.6365 25.1241C27.1307 23.0579 27.8907 21.6677 25.2205 20.8179Z" fill="#E3B2A0"/>
<path fill-rule="evenodd" clip-rule="evenodd" d="M24.6794 33.2121L24.6505 35.0241L26.8012 35.2921C26.8012 34.6014 27.2172 33.5214 27.4341 32.0436C27.5528 31.2347 27.6003 30.2756 27.531 29.4681C27.439 28.4001 26.8265 27.3547 25.9936 27.2952C23.3399 27.1059 24.699 32.0081 24.6794 33.2121Z" fill="#A0BCC5"/>
<path fill-rule="evenodd" clip-rule="evenodd" d="M21.7955 22.3512C21.5755 22.9321 21.6621 23.3423 22.1884 22.9161C22.5559 22.6183 22.4373 22.6219 22.3715 23.125C22.2141 24.3308 22.7479 23.7401 23.1444 23.0806C23.3115 22.8028 23.3404 22.9437 23.4013 23.5339C23.5066 24.549 23.799 24.5934 24.2608 23.6339C24.5359 23.0623 24.5301 23.1072 24.6617 23.6939C24.827 24.4321 25.1906 24.4899 25.6244 23.5117C25.4799 23.6592 26.7266 25.6477 27.2941 24.5868C27.8026 23.6357 27.5568 22.373 26.8613 21.5854C25.5141 20.0614 22.6075 20.2063 21.7955 22.3512Z" fill="#22120E"/>
<path fill-rule="evenodd" clip-rule="evenodd" d="M24.7702 25.8832C24.932 26.0943 24.9413 26.1361 24.7769 26.0334C24.5218 25.8743 24.316 25.5561 24.3053 25.4192C24.2951 25.2854 24.3284 25.2868 24.5591 25.3379C25.3609 25.5157 25.7435 25.8748 25.1707 25.653C25.28 25.7343 25.3444 25.9183 25.0275 25.7823C25.2275 25.9712 25.3155 26.1312 24.7702 25.8832Z" fill="#D19F8F"/>
<path fill-rule="evenodd" clip-rule="evenodd" d="M22.7379 25.2907C22.9739 25.1814 23.1686 25.2076 23.2713 25.2085C23.3997 25.2094 23.3553 25.3312 23.2957 25.4503C23.233 25.5756 23.1455 25.6898 23.041 25.7667C22.9455 25.837 22.6082 26.0138 22.8299 25.6983C22.5948 25.773 22.5055 25.701 22.7139 25.4512C22.6384 25.4814 22.4379 25.4298 22.7379 25.2907Z" fill="#D19F8F"/>
<path fill-rule="evenodd" clip-rule="evenodd" d="M23.5654 25.2899C23.5859 25.1921 23.5499 25.1846 23.5054 25.269C23.437 25.4001 23.3392 25.6677 23.401 25.8699C23.4352 25.9815 23.6387 26.1939 23.9539 26.061C23.9827 26.049 24.1712 25.8952 23.905 25.9903C23.6707 26.0739 23.553 25.945 23.5241 25.877C23.4467 25.6948 23.545 25.3868 23.5654 25.2899ZM23.3401 24.849C22.9947 24.6161 22.7267 24.8579 22.6139 25.0308C22.5676 25.1015 22.5592 25.1508 22.6623 25.1117C22.8227 25.0508 23.0912 24.9823 23.1405 24.9681C23.1899 24.9757 23.2476 24.9855 23.3001 24.9952C23.4156 25.0166 23.3774 24.8743 23.3401 24.849ZM24.2947 24.9135C24.6539 24.6966 25.0907 25.0361 25.2187 25.2446C25.3436 25.4481 25.1703 25.3415 25.0587 25.2921L24.6934 25.1295L24.3659 25.0988C24.2174 25.085 24.1845 24.9801 24.2947 24.9135ZM24.4792 25.2886C24.6761 25.3179 24.873 25.3752 25.0121 25.4295C25.3508 25.5615 25.2045 25.5561 24.9659 25.4957C24.9765 25.5063 24.953 25.6859 24.9121 25.725C24.8605 25.7748 24.7694 25.7815 24.7121 25.6975C24.6788 25.6486 24.6565 25.569 24.6605 25.4495C24.5952 25.4232 24.5405 25.4006 24.4819 25.3735C24.3054 25.2917 24.2165 25.2495 24.4792 25.2886ZM22.6854 25.2783C22.545 25.3303 22.6241 25.3295 22.8494 25.3326C22.8494 25.3326 22.841 25.3935 22.8543 25.4588C22.8934 25.6526 23.1014 25.6863 23.1499 25.4726C23.161 25.4237 23.1596 25.3703 23.1423 25.3286C23.101 25.3303 23.5641 25.1939 23.3796 25.189C23.0774 25.181 22.8601 25.2135 22.6854 25.2783Z" fill="#262726"/>
<path fill-rule="evenodd" clip-rule="evenodd" d="M17.5389 35.2974C17.9941 34.8481 18.5336 35.1041 18.7745 35.5259C19.0936 35.4752 20.0785 35.209 20.7834 34.853C21.1981 34.6436 21.0976 34.5388 21.0776 34.381C21.1167 34.4441 21.1936 34.6503 21.2229 34.7548C21.2563 34.873 21.2541 34.9339 20.9429 35.0845C20.3216 35.3845 18.7994 35.9476 18.0723 35.9085C17.5692 35.881 17.1847 35.6472 17.5389 35.2974Z" fill="#ECECEB"/>
<path fill-rule="evenodd" clip-rule="evenodd" d="M18.2877 34.6987C18.3832 34.6587 18.4775 34.6365 18.5686 34.6303C18.5619 34.6245 18.5566 34.6174 18.5526 34.6094C18.5344 34.5739 18.5481 34.5303 18.5837 34.5121C18.9077 34.3694 19.4024 34.4099 19.5384 34.7561C19.5588 34.7947 19.5437 34.8427 19.505 34.8632C19.4664 34.8836 19.4184 34.8685 19.3979 34.8299C19.1686 34.6205 19.0024 34.5392 18.6801 34.6316C18.8961 34.6507 19.0881 34.7694 19.229 34.9827C19.2512 35.0174 19.241 35.0632 19.2068 35.0854C19.1721 35.1076 19.1264 35.0974 19.1041 35.0632C18.8495 34.8156 18.7032 34.7659 18.3504 34.8436C18.3104 34.861 18.2641 34.8423 18.2472 34.8023C18.229 34.7619 18.2477 34.7156 18.2877 34.6987ZM19.2832 34.0734C19.6157 33.8734 19.925 33.9463 20.1637 34.2499C20.1859 34.2765 20.1824 34.3156 20.1561 34.3383C20.1295 34.3605 20.0904 34.3574 20.0677 34.3307C19.8432 34.185 19.6401 34.0734 19.3686 34.1867C19.3624 34.1912 19.3557 34.1947 19.349 34.1974C19.557 34.2161 19.7366 34.3392 19.8806 34.5583C19.9032 34.5925 19.8939 34.6392 19.8597 34.6619C19.8255 34.6845 19.7788 34.6752 19.7561 34.641C19.5161 34.3987 19.3637 34.2996 19.0197 34.4183C18.981 34.4387 18.933 34.4236 18.9126 34.3845C18.8921 34.3459 18.9072 34.2979 18.9464 34.2774C19.0704 34.221 19.1877 34.1939 19.2975 34.1947C19.2868 34.1899 19.2775 34.1827 19.2699 34.173C19.2459 34.1414 19.2521 34.097 19.2832 34.0734Z" fill="#ECECEB"/>
<path fill-rule="evenodd" clip-rule="evenodd" d="M24.1834 35.8392C24.5856 35.6961 25.0323 35.841 25.2843 36.1468C25.3132 36.177 25.3083 36.2223 25.2741 36.2476C25.2399 36.273 25.1888 36.269 25.1599 36.2388C24.8625 36.0721 24.6394 35.9565 24.2688 35.9992C24.219 36.0201 24.159 36.0014 24.1354 35.957C24.1123 35.9134 24.1336 35.8605 24.1834 35.8392ZM23.863 36.1143C24.2652 35.9712 24.7119 36.1161 24.9639 36.4219C24.9928 36.4521 24.9879 36.4974 24.9536 36.5228C24.9194 36.5481 24.8683 36.5441 24.8394 36.5139C24.5421 36.3472 24.319 36.2316 23.9483 36.2743C23.8985 36.2952 23.8385 36.2765 23.815 36.2321C23.7919 36.1881 23.8132 36.1352 23.863 36.1143ZM24.8288 35.2868C25.2199 35.1783 25.6403 35.2721 25.875 35.5601C25.9052 35.5841 25.9056 35.6241 25.8763 35.649C25.847 35.6739 25.7985 35.6743 25.7688 35.6503C25.4114 35.5379 25.3221 35.4214 24.8985 35.4574C24.8412 35.4734 24.7794 35.4481 24.7603 35.4005C24.7408 35.3539 24.7714 35.3028 24.8288 35.2868ZM24.5763 35.5685C24.9448 35.449 25.3936 35.5539 25.6172 35.8556C25.6376 35.8805 25.6314 35.9156 25.6034 35.9343C25.575 35.9525 25.5354 35.9472 25.5145 35.9219C25.2803 35.8085 24.9465 35.7223 24.6781 35.7432C24.6234 35.7681 24.5568 35.749 24.5288 35.701C24.5003 35.653 24.5216 35.5934 24.5763 35.5685Z" fill="#ECECEB"/>
<path fill-rule="evenodd" clip-rule="evenodd" d="M25.3819 14.1258C25.3819 14.1258 24.6504 14.6414 24.4468 14.9383C24.3495 15.08 24.3859 15.2738 24.5273 15.3712C24.669 15.4685 24.8628 15.4325 24.9601 15.2907C25.1633 14.9938 25.3819 14.1258 25.3819 14.1258ZM27.4321 15.5334C27.4321 15.5334 26.7006 16.0494 26.497 16.3458C26.3997 16.4872 26.4362 16.6814 26.5775 16.7787C26.7193 16.876 26.913 16.8396 27.0104 16.6983C27.2135 16.4014 27.4321 15.5334 27.4321 15.5334ZM29.7624 16.7663C29.7624 16.7663 29.0308 17.2818 28.8273 17.5787C28.7299 17.72 28.7664 17.9143 28.9077 18.0116C29.0495 18.1089 29.2433 18.0725 29.3406 17.9312C29.5437 17.6343 29.7624 16.7663 29.7624 16.7663ZM24.7295 12.7623C24.7295 12.7623 23.9979 13.2783 23.7944 13.5747C23.697 13.7165 23.7335 13.9103 23.8748 14.0076C24.0166 14.1049 24.2104 14.0689 24.3077 13.9272C24.5113 13.6303 24.7295 12.7623 24.7295 12.7623ZM26.7797 14.1698C26.7797 14.1698 26.0482 14.6854 25.8446 14.9823C25.7473 15.1236 25.7833 15.3178 25.925 15.4152C26.0668 15.5125 26.2606 15.4765 26.3575 15.3347C26.5615 15.0378 26.7797 14.1698 26.7797 14.1698ZM29.1099 15.4027C29.1099 15.4027 28.3784 15.9187 28.1748 16.2152C28.0775 16.3565 28.1135 16.5507 28.2553 16.648C28.397 16.7449 28.5908 16.7089 28.6881 16.5676C28.8917 16.2707 29.1099 15.4027 29.1099 15.4027ZM22.7722 17.9276C22.7722 17.9276 22.0406 18.4436 21.837 18.74C21.7397 18.8818 21.7757 19.0756 21.9175 19.1729C22.0593 19.2703 22.253 19.2343 22.3504 19.0925C22.5539 18.7956 22.7722 17.9276 22.7722 17.9276ZM22.1197 16.564C22.1197 16.564 21.3882 17.0796 21.1846 17.3765C21.0873 17.5183 21.1233 17.712 21.265 17.8094C21.4068 17.9067 21.6006 17.8707 21.6979 17.7289C21.9015 17.432 22.1197 16.564 22.1197 16.564ZM24.1699 17.9716C24.1699 17.9716 23.4384 18.4876 23.2348 18.784C23.1375 18.9254 23.1735 19.1196 23.3153 19.2165C23.457 19.3138 23.6508 19.2778 23.7477 19.136C23.9517 18.8396 24.1699 17.9716 24.1699 17.9716ZM24.077 16.0267C24.077 16.0267 23.3455 16.5423 23.1419 16.8392C23.0446 16.9809 23.081 17.1747 23.2224 17.272C23.3642 17.3694 23.5579 17.3334 23.6553 17.1916C23.8588 16.8947 24.077 16.0267 24.077 16.0267ZM26.1273 17.4338C26.1273 17.4338 25.3957 17.9498 25.1922 18.2463C25.0948 18.3876 25.1308 18.5818 25.2726 18.6792C25.4144 18.776 25.6082 18.74 25.7055 18.5987C25.909 18.3023 26.1273 17.4343 26.1273 17.4338ZM28.4575 18.6672C28.4575 18.6672 27.7259 19.1832 27.5224 19.4796C27.425 19.6209 27.461 19.8152 27.6028 19.9125C27.7446 20.0094 27.9384 19.9734 28.0357 19.832C28.2388 19.5352 28.4575 18.6672 28.4575 18.6672ZM23.4246 14.6632C23.4246 14.6632 22.693 15.1792 22.4895 15.4756C22.3921 15.6174 22.4286 15.8112 22.5699 15.9085C22.7117 16.0058 22.9055 15.9698 23.0028 15.828C23.2064 15.5312 23.4246 14.6632 23.4246 14.6632ZM25.4748 16.0703C25.4748 16.0703 24.7433 16.5863 24.5397 16.8827C24.4424 17.0245 24.4784 17.2183 24.6202 17.3156C24.7619 17.4129 24.9557 17.3769 25.053 17.2352C25.2566 16.9387 25.4748 16.0707 25.4748 16.0703ZM27.805 17.3036C27.805 17.3036 27.0735 17.8196 26.8699 18.116C26.7726 18.2574 26.8086 18.4516 26.9504 18.5489C27.0922 18.6463 27.2859 18.6103 27.3833 18.4685C27.5868 18.1716 27.805 17.3036 27.805 17.3036Z" fill="#ECECEB"/>
<path fill-rule="evenodd" clip-rule="evenodd" d="M29.1116 12.4432C28.8223 10.8094 26.2592 10.8298 26.0712 12.3241C25.3045 10.9778 23.7063 12.0005 23.7832 12.5481C21.6632 11.7872 20.4436 14.897 23.6925 15.0752C23.3227 15.8903 24.5796 16.8525 26.4072 16.0925C26.6979 16.9418 28.325 16.917 29.3663 16.4556C29.9907 16.1787 30.3299 15.6152 30.029 15.0205C32.6832 14.5552 30.9499 12.0872 29.1116 12.4432Z" fill="#6A6A6A"/>
<path fill-rule="evenodd" clip-rule="evenodd" d="M21.8195 13.197C21.6906 13.9139 22.5306 14.4637 24.2364 14.2721C24.3182 14.2628 24.436 14.189 24.2818 14.357C23.7129 14.9779 25.1644 15.7721 26.5933 15.0117C26.4786 15.6654 27.0351 15.8285 27.6951 15.805C28.9249 15.761 30.2346 15.1361 29.5022 14.609C29.4115 14.5437 29.3715 14.4819 29.5151 14.4543C30.3475 14.2939 31.6533 14.145 31.2275 13.3734C30.888 12.7583 30.0062 12.2694 29.112 12.4432C28.8226 10.809 26.2595 10.8299 26.0715 12.3241C25.3049 10.9779 23.7066 12.0005 23.7835 12.5481C22.8591 12.2165 22.1058 12.6205 21.8195 13.197Z" fill="#939293" stroke="#939293" stroke-width="0.0096" stroke-miterlimit="22.9256"/>
<path d="M24.1995 25.5755C24.1995 25.5755 24.111 25.4444 24.2137 25.2311" stroke="#D19F8F" stroke-width="0.0222222" stroke-miterlimit="10" stroke-linecap="round" stroke-linejoin="round"/>
<path d="M24.1077 25.5755C24.1077 25.5755 24.0192 25.4444 24.1219 25.2311" stroke="#D19F8F" stroke-width="0.0222222" stroke-miterlimit="10" stroke-linecap="round" stroke-linejoin="round"/>
<path d="M19.1471 18.2053L19.7045 19.064L19.2925 19.0027L19.9467 19.6471L18.6143 18.8035L19.1956 18.8342L18.6143 18.236L19.1471 18.2053Z" fill="#21718B"/>
<path d="M29.9564 18.1556L29.2621 18.908L29.6786 18.9169L28.9248 19.4418L30.3808 18.8351L29.8026 18.7671L30.4768 18.2756L29.9564 18.1556Z" fill="#21718B"/>
<path opacity="0.4" d="M24.8374 25.7196C24.8374 25.7196 24.7832 25.7253 24.7832 25.7329C24.7832 25.7351 24.8076 25.7582 24.8076 25.7613C24.8076 25.7658 24.8525 25.7898 24.8525 25.7951C24.8525 25.8333 24.8525 25.8827 24.8525 25.9102C24.8525 25.9529 24.8374 26.0053 24.8383 26.0276C24.8392 26.0498 24.8579 26.1347 24.8525 26.1631C24.8472 26.1916 24.849 26.3925 24.8339 26.4191C24.8192 26.4458 24.8116 26.5636 24.8436 26.5347C24.8756 26.5058 24.8534 26.3831 24.865 26.3596C24.8765 26.336 24.8739 26.1827 24.8739 26.1511C24.8739 26.1196 24.8592 26.044 24.8592 26.0209C24.8592 25.9978 24.8721 25.9231 24.8716 25.9005C24.8716 25.8853 24.8716 25.856 24.8716 25.8169C24.8716 25.8151 24.9014 25.7965 24.9054 25.7853C24.9121 25.7671 24.965 25.6725 24.965 25.6693C24.965 25.6582 24.8699 25.7102 24.8699 25.7102L24.8374 25.7196Z" fill="white"/>
<path opacity="0.4" d="M22.8786 25.5431C22.8791 25.5453 22.9031 25.6164 22.9173 25.6249C22.9271 25.6307 22.9377 25.6378 22.9457 25.6591C22.9519 25.676 22.9528 25.6773 22.9555 25.6871C22.9604 25.7062 22.9559 25.7644 22.9662 25.788C22.9764 25.8116 22.9804 25.828 22.9759 25.8369C22.9711 25.8458 22.9217 25.8978 22.9111 25.9227C22.9004 25.9476 22.8537 26.0311 22.8599 26.0596C22.8662 26.088 22.8973 26.224 22.9071 26.2467C22.9168 26.2693 22.9475 26.3107 22.9506 26.3298C22.9537 26.3489 22.9653 26.3893 22.9697 26.3933C22.9746 26.3973 22.9782 26.3987 22.9826 26.3978C22.9871 26.3969 22.9893 26.3933 22.9875 26.3911C22.9862 26.3889 22.9759 26.3867 22.9719 26.3773C22.9684 26.368 22.9684 26.3311 22.9653 26.3222C22.9599 26.3067 22.9164 26.2498 22.9142 26.2396C22.9124 26.2293 22.8728 26.0587 22.8719 26.0507C22.8711 26.0427 22.9155 25.9378 22.9231 25.9271C22.9306 25.9164 22.9919 25.8511 22.9959 25.8373C22.9999 25.8236 22.9839 25.7836 22.9817 25.7769C22.9804 25.7724 22.9742 25.7036 22.9639 25.6529C22.9635 25.6511 22.9657 25.628 22.9795 25.6151C22.9871 25.6084 23.0026 25.5831 23.0022 25.5822C23.0004 25.5733 22.9577 25.5738 22.9368 25.5662C22.9204 25.5609 22.8777 25.5382 22.8786 25.5431Z" fill="white"/>
</g>
<defs>
<clipPath id="clip0_1141_49364">
<rect width="48" height="48" rx="24" fill="white"/>
</clipPath>
</defs>
</svg>
