<svg width="48" height="48" viewBox="0 0 48 48" fill="none" xmlns="http://www.w3.org/2000/svg">
<g clip-path="url(#clip0_1141_49276)">
<rect width="48" height="48" rx="24" fill="white"/>
<g clip-path="url(#clip1_1141_49276)">
<path d="M22.4738 44.7569C28.8953 44.7569 34.1009 44.3686 34.1009 43.8898C34.1009 43.4109 28.8953 43.0226 22.4738 43.0226C16.0523 43.0226 10.8467 43.4109 10.8467 43.8898C10.8467 44.3686 16.0523 44.7569 22.4738 44.7569Z" fill="#C3D2D7"/>
<g opacity="0.55">
<path d="M13.9015 37.488C12.0535 35.4662 11.3975 32.428 12.2464 29.8236C13.0633 27.3173 15.1535 25.1756 15.1326 22.5396C15.121 21.0587 14.4277 19.6773 14.1179 18.2293C13.4464 15.0902 14.6348 11.796 16.5077 9.18889C18.2028 6.82978 20.5113 4.85555 23.2424 3.86489C25.9735 2.87422 29.1379 2.94 31.6833 4.34044C34.2286 5.74089 36.0264 8.548 35.9255 11.4516C35.8219 14.4329 33.8593 17.1969 34.1437 20.1667C34.3086 21.888 35.2126 23.4347 35.8228 25.0529C36.5806 27.0622 36.8917 29.2618 36.5433 31.3804C36.1953 33.4996 35.1624 35.5284 33.5353 36.9302C31.9997 38.2533 30.0153 38.968 28.013 39.284C25.6415 39.6582 23.2175 39.6413 20.8375 39.9533C18.3113 40.2844 15.629 39.3782 13.9015 37.488Z" fill="#C3DAE4"/>
</g>
<g opacity="0.55">
<path d="M38.6751 11.472H13.0938C13.6066 10.8346 14.3404 10.2515 15.1409 10.0818C15.9413 9.91198 16.7991 10.0271 17.5262 10.4018C17.2866 9.92887 17.4253 9.29465 17.72 8.8542C18.0146 8.41376 18.5106 8.12843 19.0324 8.03332C19.7222 7.90754 20.464 8.10754 20.9969 8.56309C21.32 7.00754 22.6058 5.59954 24.1813 5.39732C25.7573 5.19509 27.4146 6.08265 28.12 7.5062C29.144 6.71154 30.6146 6.56709 31.7746 7.14487C32.9346 7.72309 33.7115 8.99776 33.6933 10.2938C34.5009 9.88754 35.3662 9.85198 36.2529 10.0289C37.1395 10.2062 38.0857 10.7862 38.6751 11.472Z" fill="#8FAAB3"/>
</g>
<g opacity="0.55">
<path d="M17.6689 12.9885C17.6689 12.9885 17.7072 13.648 17.9565 14.1858C18.0129 14.3076 18.1569 14.3605 18.2787 14.304C18.4005 14.2476 18.4534 14.1036 18.3969 13.9818C18.1476 13.444 17.6689 12.9885 17.6689 12.9885Z" fill="white"/>
<path d="M20.918 16.2658C20.918 16.2658 20.9562 16.9254 21.2055 17.4631C21.262 17.5849 21.406 17.6378 21.5277 17.5814C21.6495 17.5249 21.7024 17.3809 21.646 17.2591C21.3962 16.7209 20.918 16.2658 20.918 16.2658Z" fill="white"/>
<path d="M16.8027 17.8978C16.8027 17.8978 16.841 18.5574 17.0903 19.0952C17.1467 19.2169 17.2907 19.2698 17.4125 19.2134C17.5343 19.1569 17.5872 19.0129 17.5307 18.8912C17.281 18.3534 16.8027 17.8978 16.8027 17.8978Z" fill="white"/>
<path d="M19.7168 19.2356C19.7168 19.2356 19.755 19.8952 20.0044 20.4329C20.0608 20.5547 20.2048 20.6076 20.3266 20.5512C20.4484 20.4947 20.5012 20.3507 20.4448 20.2289C20.195 19.6912 19.7168 19.2356 19.7168 19.2356Z" fill="white"/>
<path d="M18.9355 22.8934C18.9355 22.8934 18.9738 23.5529 19.2231 24.0907C19.2795 24.2125 19.4235 24.2654 19.5453 24.2089C19.6671 24.1525 19.72 24.0085 19.6635 23.8867C19.4138 23.3489 18.9355 22.8934 18.9355 22.8934Z" fill="white"/>
<path d="M15.2334 20.4302C15.2334 20.4302 15.2716 21.0898 15.521 21.6276C15.5774 21.7493 15.7214 21.8022 15.8432 21.7458C15.965 21.6893 16.0178 21.5453 15.9614 21.4236C15.7116 20.8858 15.2334 20.4302 15.2334 20.4302Z" fill="white"/>
<path d="M16.4268 26.1133C16.4268 26.1133 16.465 26.7729 16.7143 27.3107C16.7708 27.4325 16.9148 27.4853 17.0365 27.4289C17.1583 27.3725 17.2112 27.2285 17.1548 27.1067C16.905 26.5689 16.4268 26.1133 16.4268 26.1133Z" fill="white"/>
<path d="M23.6963 21.5556C23.6963 21.5556 23.7345 22.2152 23.9838 22.7529C24.0403 22.8747 24.1843 22.9276 24.3061 22.8712C24.4278 22.8147 24.4807 22.6707 24.4243 22.5489C24.175 22.0112 23.6963 21.5556 23.6963 21.5556Z" fill="white"/>
<path d="M24.8447 18.0556C24.8447 18.0556 24.8829 18.7152 25.1323 19.2529C25.1887 19.3747 25.3327 19.4276 25.4545 19.3712C25.5763 19.3147 25.6292 19.1707 25.5727 19.0489C25.3229 18.5112 24.8447 18.0556 24.8447 18.0556Z" fill="white"/>
<path d="M22.3311 12.9885C22.3311 12.9885 22.3693 13.648 22.6186 14.1858C22.6751 14.3076 22.8191 14.3605 22.9408 14.304C23.0626 14.2476 23.1155 14.1036 23.0591 13.9818C22.8097 13.444 22.3311 12.9885 22.3311 12.9885Z" fill="white"/>
<path d="M27.5859 12.9885C27.5859 12.9885 27.6242 13.648 27.8735 14.1858C27.9299 14.3076 28.0739 14.3605 28.1957 14.304C28.3175 14.2476 28.3704 14.1036 28.3139 13.9818C28.0646 13.444 27.5859 12.9885 27.5859 12.9885Z" fill="white"/>
<path d="M26.873 16.3889C26.873 16.3889 26.9113 17.0485 27.1606 17.5862C27.217 17.708 27.361 17.7609 27.4828 17.7045C27.6046 17.648 27.6575 17.504 27.601 17.3822C27.3513 16.8445 26.873 16.3889 26.873 16.3889Z" fill="white"/>
<path d="M29.4561 20.8867C29.4561 20.8867 29.4943 21.5462 29.7436 22.084C29.8001 22.2058 29.9441 22.2587 30.0658 22.2022C30.1876 22.1458 30.2405 22.0018 30.1841 21.88C29.9347 21.3422 29.4561 20.8867 29.4561 20.8867Z" fill="white"/>
<path d="M30.0605 17.8978C30.0605 17.8978 30.0988 18.5574 30.3481 19.0952C30.4045 19.2169 30.5485 19.2698 30.6703 19.2134C30.7921 19.1569 30.845 19.0129 30.7885 18.8912C30.5392 18.3534 30.0605 17.8978 30.0605 17.8978Z" fill="white"/>
<path d="M27.1865 22.7294C27.1865 22.7294 27.2247 23.3889 27.4741 23.9267C27.5305 24.0485 27.6745 24.1014 27.7963 24.0449C27.9181 23.9885 27.971 23.8445 27.9145 23.7227C27.6652 23.1849 27.1865 22.7294 27.1865 22.7294Z" fill="white"/>
<path d="M31.8799 23.5623C31.8799 23.5623 31.9181 24.2218 32.167 24.7596C32.2234 24.8814 32.3674 24.9343 32.4892 24.8778C32.611 24.8214 32.6639 24.6774 32.6074 24.5556C32.3585 24.0178 31.8799 23.5623 31.8799 23.5623Z" fill="white"/>
<path d="M33.3057 21.5556C33.3057 21.5556 33.3439 22.2152 33.5932 22.7529C33.6497 22.8747 33.7937 22.9276 33.9154 22.8712C34.0372 22.8147 34.0901 22.6707 34.0337 22.5489C33.7843 22.0112 33.3057 21.5556 33.3057 21.5556Z" fill="white"/>
<path d="M33.3057 17.0578C33.3057 17.0578 33.3439 17.7174 33.5932 18.2551C33.6497 18.3769 33.7937 18.4298 33.9154 18.3734C34.0372 18.3169 34.0901 18.1729 34.0337 18.0511C33.7843 17.5134 33.3057 17.0578 33.3057 17.0578Z" fill="white"/>
<path d="M31.3701 13.2205C31.3701 13.2205 31.4083 13.88 31.6577 14.4178C31.7141 14.5396 31.8581 14.5925 31.9799 14.536C32.1017 14.4796 32.1546 14.3356 32.0981 14.2138C31.8488 13.676 31.3701 13.2205 31.3701 13.2205Z" fill="white"/>
<path d="M34.7109 13.6573C34.7109 13.6573 34.7492 14.3169 34.9985 14.8547C35.0549 14.9765 35.1989 15.0293 35.3207 14.9729C35.4425 14.9165 35.4954 14.7725 35.4389 14.6507C35.1896 14.1129 34.7109 13.6573 34.7109 13.6573Z" fill="white"/>
</g>
<path d="M14.3387 40.5231C13.8311 40.8036 13.2911 41.2173 13.6111 41.6778C13.9307 42.1382 15.6227 42.7227 18.8716 41.8529L20.3503 41.3511L20.6818 39.8178C21.1911 36.4933 20.4249 34.8756 19.932 34.608C19.4391 34.3404 19.0867 34.9222 18.864 35.4578C18.6409 35.9933 18.4645 36.6578 18.3249 36.6436C18.1854 36.6293 18.0965 36.5444 18.0645 36.2756C18.0325 36.0067 17.7867 33.5427 16.9 33.1533C16.0134 32.764 15.3076 34.6756 15.1476 34.9138C14.9876 35.152 14.8045 34.9551 14.7538 34.792C14.7018 34.6262 14.1356 32.7884 13.908 31.9409C13.6805 31.0938 13.2991 30.6071 12.7494 30.6622C12.2191 30.7151 12.1356 31.6236 11.9614 32.0013C11.7871 32.3791 11.3631 32.0756 11.3631 32.0756C11.3631 32.0756 10.5418 31.1022 8.77692 29.5502C7.01203 27.9978 6.40137 28.8836 6.40137 28.8836" fill="#EBEBEB"/>
<path d="M6.41574 28.8689C6.41574 28.8689 5.62552 29.5596 7.36196 31.1436C9.0984 32.7276 10.1553 33.4378 10.1553 33.4378C10.1553 33.4378 10.5037 33.8262 10.1473 34.0405C9.79085 34.2551 8.89707 34.4373 8.9024 34.9702C8.90818 35.5227 9.43352 35.8489 10.3002 35.9818C11.1673 36.1151 13.0557 36.4769 13.2264 36.5102C13.394 36.5431 13.61 36.7036 13.3904 36.8885C13.1708 37.0733 11.3486 37.984 11.8326 38.8231C12.3166 39.6622 14.7926 39.6365 15.0637 39.6387" fill="#EBEBEB"/>
<path d="M20.5544 41.6667C19.2629 40.5213 17.0016 38.4475 15.0509 36.6773C13.1007 34.9075 11.334 33.3067 10.0482 32.1551C9.406 31.5809 8.88555 31.116 8.52422 30.7929C8.34555 30.6329 8.20644 30.5084 8.11 30.4222C8.06422 30.3804 8.02866 30.348 8.00288 30.3249C7.97888 30.3027 7.96777 30.2906 7.96777 30.2906C7.96777 30.2906 7.98155 30.3004 8.00644 30.3213C8.03266 30.3435 8.06911 30.3747 8.11666 30.4151C8.21444 30.4995 8.35577 30.6222 8.53666 30.7791C8.90111 31.0955 9.42555 31.5569 10.0709 32.1298C11.3624 33.2751 13.1331 34.872 15.0833 36.6418C17.034 38.4124 19.2918 40.4902 20.5771 41.6418" fill="#E0E0E0"/>
<path d="M10.1631 34.7658C10.1631 34.7622 10.2031 34.7591 10.2755 34.756C10.348 34.7524 10.4529 34.7507 10.5826 34.7493C10.8422 34.7475 11.2004 34.7538 11.596 34.768C11.9858 34.7835 12.3386 34.7973 12.608 34.808C12.7298 34.812 12.832 34.8155 12.9146 34.8182C12.9871 34.8204 13.0271 34.8231 13.0271 34.8262C13.0271 34.8298 12.9871 34.8333 12.9146 34.8369C12.8422 34.84 12.7369 34.8422 12.6071 34.8422C12.3475 34.8418 11.9893 34.8307 11.5938 34.8164C11.204 34.804 10.8515 34.7924 10.5818 34.784C10.46 34.7804 10.3573 34.7778 10.2751 34.7755C10.2031 34.772 10.1631 34.7689 10.1631 34.7658Z" fill="#E0E0E0"/>
<path d="M13.0923 34.6946C13.079 34.6946 13.0594 33.9551 13.0487 33.0426C13.0381 32.1302 13.0403 31.3902 13.0536 31.3902C13.067 31.3902 13.0865 32.1293 13.0972 33.0422C13.1079 33.9546 13.1056 34.6946 13.0923 34.6946Z" fill="#E0E0E0"/>
<path d="M15.9654 37.548C15.9623 37.5471 15.9717 37.5071 15.9908 37.4356C16.0134 37.3547 16.0414 37.2538 16.0748 37.1338C16.1454 36.8787 16.2414 36.5262 16.3334 36.1334C16.4263 35.7405 16.4974 35.3822 16.5472 35.1227C16.5708 35.0005 16.5903 34.8974 16.6063 34.8151C16.6205 34.7427 16.6303 34.7027 16.6334 34.7031C16.6365 34.7036 16.6334 34.7445 16.625 34.8182C16.6161 34.892 16.6019 34.9982 16.581 35.1289C16.5401 35.3907 16.4734 35.7511 16.3805 36.1449C16.2885 36.5387 16.1868 36.8911 16.1077 37.1436C16.0677 37.2698 16.0339 37.3716 16.0085 37.4414C15.9841 37.5111 15.969 37.5494 15.9654 37.548Z" fill="#E0E0E0"/>
<path d="M13.3291 38.1956C13.3282 38.1925 13.3642 38.1796 13.4296 38.1596C13.5051 38.1378 13.5985 38.1111 13.7082 38.0796C13.9438 38.0138 14.2705 37.9267 14.6318 37.8329C14.9931 37.7391 15.3211 37.6569 15.5589 37.6C15.67 37.5742 15.7642 37.5525 15.8411 37.5347C15.9082 37.5205 15.9456 37.5138 15.9465 37.5174C15.9473 37.5205 15.9113 37.5334 15.846 37.5534C15.7704 37.5751 15.6771 37.6018 15.5673 37.6334C15.3318 37.6991 15.0051 37.7862 14.6438 37.88C14.2825 37.9738 13.9549 38.056 13.7167 38.1129C13.6056 38.1387 13.5109 38.1605 13.4345 38.1782C13.3673 38.1925 13.33 38.1987 13.3291 38.1956Z" fill="#E0E0E0"/>
<path d="M15.5459 41.0369C15.545 41.0338 15.5908 41.0178 15.6748 40.9924C15.7677 40.9653 15.8872 40.9302 16.0312 40.8884C16.333 40.8026 16.7504 40.6875 17.2121 40.5631C17.6744 40.4386 18.093 40.3284 18.397 40.2511C18.5424 40.2151 18.6637 40.1853 18.7575 40.1618C18.8428 40.1418 18.8904 40.1324 18.8912 40.1355C18.8921 40.1386 18.8464 40.1546 18.7624 40.18C18.6695 40.2071 18.5499 40.2422 18.4059 40.284C18.1041 40.3698 17.6868 40.4853 17.225 40.6098C16.7632 40.7342 16.3441 40.8444 16.0406 40.9218C15.8952 40.9578 15.7739 40.9875 15.6801 41.0111C15.5944 41.0302 15.5468 41.04 15.5459 41.0369Z" fill="#E0E0E0"/>
<path d="M18.8052 40.1343C18.8021 40.1334 18.8123 40.0823 18.8337 39.9911C18.8577 39.8916 18.8888 39.7614 18.9266 39.6045C19.0048 39.2778 19.1106 38.8267 19.2137 38.3249C19.3177 37.8236 19.3995 37.3671 19.4563 37.036C19.4839 36.8769 19.5066 36.7454 19.5243 36.644C19.5408 36.5516 19.5515 36.5005 19.5546 36.5009C19.5577 36.5014 19.5537 36.5534 19.543 36.6467C19.5323 36.74 19.515 36.8747 19.4901 37.0414C19.4417 37.3738 19.3648 37.832 19.2608 38.3343C19.1577 38.8365 19.0461 39.2876 18.9595 39.612C18.9159 39.7743 18.879 39.9054 18.8515 39.9951C18.8248 40.0858 18.8083 40.1351 18.8052 40.1343Z" fill="#E0E0E0"/>
<path d="M28.8777 42.4351C26.9448 40.268 27.1306 37.14 27.8621 34.4614C27.9839 34.0142 28.047 33.5271 28.3554 33.1827C28.6634 32.8382 29.2279 32.6862 29.5866 32.972C29.8839 33.2089 29.9377 33.6329 30.0488 33.9991C30.1963 34.4867 30.4834 34.9289 30.8666 35.2591C31.1181 35.476 31.4519 35.6511 31.7723 35.5622C32.2119 35.44 32.3848 34.9134 32.4883 34.4645C32.6808 33.6276 32.8737 32.7911 33.0666 31.9542C33.1701 31.5054 33.2772 31.0471 33.5172 30.6547C33.7572 30.2622 34.159 29.94 34.6137 29.9214C35.0683 29.9031 35.5377 30.2738 35.5239 30.7338C35.5181 30.9254 35.4359 31.1062 35.4043 31.2951C35.3728 31.484 35.4106 31.7107 35.575 31.8045C35.7417 31.8996 35.951 31.8147 36.1159 31.7151C36.6857 31.372 37.1377 30.8636 37.5688 30.3529C37.9994 29.8427 38.4248 29.3165 38.9617 28.9222C39.4986 28.528 40.1719 28.2742 40.8226 28.3902C41.4732 28.5058 42.0634 29.0645 42.0763 29.7329C42.0892 30.4036 41.5688 30.9574 41.0461 31.3738C40.271 31.992 39.4079 32.4965 38.4923 32.8662C38.3275 32.9329 38.1483 33.0054 38.055 33.1582C37.887 33.4342 38.0999 33.7978 38.3714 33.9662C38.679 34.1565 39.0501 34.208 39.3897 34.332C39.7297 34.456 40.0715 34.7 40.1257 35.0614C40.2008 35.5631 39.7039 35.9525 39.2523 36.1778C38.3483 36.6289 37.3679 36.9222 36.3688 37.0414C36.0106 37.084 35.6381 37.1076 35.3177 37.276C34.9968 37.4449 34.7408 37.8098 34.8266 38.1636C34.9123 38.5178 35.3008 38.7165 35.6617 38.7342C36.0221 38.752 36.3759 38.6378 36.7346 38.5916C37.4057 38.5049 38.191 38.736 38.4599 39.3618C38.6363 39.7734 38.5439 40.2658 38.3137 40.652C38.0839 41.0382 37.7328 41.3342 37.3714 41.5991C36.1097 42.5236 34.6248 43.1569 33.0781 43.3138C31.5306 43.4707 30.1746 43.2911 28.8777 42.4351Z" fill="#F5F5F5"/>
<path d="M29.2695 42.6956C29.6206 41.6489 29.2535 42.1743 29.9758 40.9076C30.6958 39.6391 31.6006 38.3138 32.5944 36.9605C32.8442 36.6231 33.0909 36.2898 33.334 35.9609C33.5775 35.6334 33.8189 35.3089 34.0749 35.0058C34.5838 34.3974 35.1198 33.8511 35.6446 33.3489C36.1695 32.8458 36.6855 32.388 37.1713 31.9631C37.6584 31.5391 38.1198 31.1525 38.5553 30.8183C39.4246 30.1458 40.1886 29.688 40.726 29.3947C40.9944 29.2471 41.2064 29.1396 41.3513 29.0689C41.4206 29.0356 41.4753 29.0089 41.5162 28.9894C41.5535 28.972 41.5731 28.9636 41.5735 28.9649C41.5744 28.9663 41.5562 28.9774 41.5198 28.9974C41.4798 29.0191 41.4264 29.048 41.3584 29.0845C41.2166 29.1605 41.0069 29.2725 40.7415 29.424C40.21 29.7258 39.4535 30.1903 38.5918 30.8667C38.1598 31.2031 37.7015 31.5916 37.2175 32.0174C36.734 32.444 36.2202 32.9036 35.698 33.4067C35.1762 33.9094 34.6433 34.4547 34.138 35.0605C33.8842 35.3623 33.6451 35.6845 33.4011 36.0129C33.158 36.3414 32.9118 36.6747 32.662 37.012C31.6691 38.3645 30.7646 39.6849 30.0424 40.9476C29.3184 42.2085 29.6824 41.6756 29.3251 42.716" fill="#E0E0E0"/>
<path d="M34.0986 35.0085C34.0928 35.0081 34.0937 34.9365 34.0999 34.8067C34.1057 34.6774 34.1204 34.4903 34.1417 34.2596C34.1839 33.7983 34.2644 33.1632 34.3555 32.4632C34.4466 31.7627 34.5177 31.1285 34.5528 30.6676C34.571 30.4374 34.5839 30.2507 34.591 30.1218C34.599 29.9929 34.6062 29.9214 34.6119 29.9214C34.6177 29.9214 34.6217 29.9929 34.6239 30.1227C34.6266 30.2525 34.623 30.4401 34.6124 30.6716C34.5924 31.1347 34.5306 31.7729 34.4395 32.4738C34.3479 33.1641 34.2648 33.7889 34.2013 34.2663C34.1742 34.4818 34.151 34.6641 34.1328 34.8098C34.1164 34.9378 34.1048 35.0089 34.0986 35.0085Z" fill="#E0E0E0"/>
<path d="M40.1177 35.2964C40.1164 35.3022 40.0324 35.2924 39.8813 35.2693C39.7302 35.2476 39.512 35.2147 39.2409 35.1827C38.6995 35.1147 37.9484 35.0467 37.1164 35.008C36.284 34.9711 35.5293 34.9693 34.9835 34.984C34.7102 34.9893 34.4897 34.9996 34.3369 35.0058C34.184 35.0124 34.0995 35.0138 34.0986 35.0076C34.0982 35.0018 34.1822 34.9893 34.3346 34.9724C34.4871 34.956 34.708 34.9364 34.9817 34.9231C35.5284 34.8929 36.2857 34.8849 37.1209 34.9218C37.9551 34.9604 38.7084 35.0382 39.2493 35.1218C39.52 35.1613 39.7377 35.2036 39.8871 35.2356C40.0369 35.2698 40.1191 35.2907 40.1177 35.2964Z" fill="#E0E0E0"/>
<path d="M30.0719 40.8182C30.0688 40.8187 30.0612 40.7916 30.0488 40.7387C30.0354 40.676 30.0194 40.5996 29.9994 40.5067C29.9577 40.3053 29.9048 40.012 29.8443 39.6489C29.7225 38.9227 29.5861 37.9147 29.4505 36.8C29.3145 35.6849 29.1879 34.6769 29.0817 33.9489C29.0288 33.5951 28.9857 33.304 28.9532 33.0876C28.9399 32.9938 28.9288 32.9164 28.9194 32.8529C28.9128 32.7991 28.9105 32.7707 28.9132 32.7698C28.9159 32.7693 28.9239 32.7969 28.9359 32.8498C28.9492 32.9124 28.9652 32.9889 28.9852 33.0813C29.027 33.2827 29.0799 33.576 29.1403 33.9391C29.2621 34.6653 29.3985 35.6733 29.5341 36.7884C29.6697 37.9031 29.7968 38.9111 29.903 39.6391C29.9559 39.9929 29.999 40.284 30.0314 40.5004C30.0448 40.5942 30.0559 40.6716 30.0652 40.7351C30.0728 40.7893 30.075 40.8178 30.0719 40.8182Z" fill="#E0E0E0"/>
<path d="M38.3153 40.164C38.3153 40.1671 38.2864 40.1716 38.2317 40.1773C38.1673 40.1831 38.0877 40.1902 37.9917 40.1991C37.7704 40.2169 37.4717 40.2413 37.1086 40.2707C36.3628 40.3311 35.334 40.4267 34.1971 40.5338C33.0597 40.6409 32.0291 40.7271 31.282 40.772C30.9082 40.7947 30.606 40.8098 30.3966 40.8164C30.3002 40.8187 30.2206 40.8204 30.1557 40.8222C30.1006 40.8227 30.0717 40.8213 30.0713 40.8182C30.0713 40.8151 30.1002 40.8107 30.1548 40.8049C30.2193 40.7991 30.2988 40.792 30.3948 40.7831C30.6162 40.7653 30.9144 40.7409 31.278 40.7116C32.0237 40.6511 33.0526 40.5556 34.19 40.4484C35.3268 40.3413 36.3575 40.2551 37.1046 40.2102C37.4784 40.1876 37.7806 40.1724 37.99 40.1658C38.0864 40.1636 38.166 40.1613 38.2308 40.16C38.286 40.1596 38.3148 40.1609 38.3153 40.164Z" fill="#E0E0E0"/>
<path d="M32.3687 26.9213C34.2736 30.4004 33.9953 38.196 32.0491 41.3413L31.3353 41.8178L31.5118 41.3707L20.4531 32.1298L20.8065 28.8209L32.3687 26.9213Z" fill="#7BB0CB"/>
<path d="M32.2296 29.1493L30.9282 27.1578L20.8065 28.8204L20.4531 32.1293L30.15 40.232L29.47 35.2027C29.2567 33.624 29.814 32.0391 30.9678 30.9418L31.062 30.8524C31.5665 30.3729 31.9642 29.7929 32.2296 29.1493Z" fill="#6597AB"/>
<path d="M20.6809 26.3578H20.1165C18.7133 26.3578 17.5133 27.3667 17.2725 28.7489L20.3276 28.86L20.6809 26.3578Z" fill="#FAD2C3"/>
<path d="M16.6688 28.4174L16.5213 28.4542C16.1253 28.5529 15.7964 28.8271 15.6284 29.1987L15.1177 30.3271C14.9982 30.5911 14.9679 30.8871 15.0315 31.1698L15.3044 32.3836C15.7457 32.2974 16.0644 31.9107 16.0644 31.4609V30.8636L16.6693 29.4827V28.4174H16.6688Z" fill="#FAD2C3"/>
<path d="M23.0694 33.644L20.6965 30.0862C20.1863 29.3214 19.328 28.8622 18.4085 28.8622C16.7912 28.8622 15.5227 30.2516 15.6698 31.8622L16.4156 40.0387L20.836 39.6996L21.4134 41.7071C21.8014 43.0569 23.036 43.9867 24.4405 43.9867C25.0329 43.9867 25.6134 43.8196 26.1152 43.5045L26.7183 43.1258L23.0694 33.644Z" fill="#9EC1CC"/>
<path d="M23.6619 35.184L24.0397 42.1805C24.0766 42.8605 23.5348 43.4325 22.8535 43.4325H22.6602C23.1717 43.7831 23.7868 43.9862 24.4402 43.9862C25.0326 43.9862 25.613 43.8191 26.1148 43.504L26.7179 43.1254L23.6619 35.184Z" fill="#7DA2AB"/>
<path d="M19.6801 31.9185L19.6328 31.9238L20.431 39.0966L20.4783 39.0914L19.6801 31.9185Z" fill="#7DA2AB"/>
<path d="M19.2921 39.1218L18.7686 31.4565L18.8161 31.4534L19.3401 39.1183L19.2921 39.1218Z" fill="#7DA2AB"/>
<path d="M16.7749 39.1725L16.7695 39.1249L19.8775 38.7863L19.8824 38.8334L16.7749 39.1725Z" fill="#7DA2AB"/>
<path d="M18.2862 41.9565H19.4453L19.1448 39.8373L17.1208 39.984L17.1791 40.7711C17.1933 40.9653 17.1711 41.1582 17.1182 41.3418C17.5151 41.3338 17.9133 41.3956 18.2857 41.5329V41.9565H18.2862Z" fill="#FAD2C3"/>
<path d="M14.5417 43.432C14.5235 43.4707 14.504 43.5085 14.4884 43.5489L14.3213 43.9858H19.7333L19.6546 43.432H14.5417Z" fill="#E5E4E1"/>
<path d="M19.446 41.9565H18.2869V41.5329C17.9144 41.3956 17.5162 41.3338 17.1193 41.3418C17.0518 41.5765 16.934 41.7956 16.7678 41.9809C16.5389 42.236 16.2358 42.4125 15.9011 42.4858L15.6647 42.5374C15.1695 42.6454 14.758 42.9783 14.542 43.4316H19.6553L19.446 41.9565Z" fill="#037C93"/>
<path d="M19.1461 39.8373L17.1221 39.984L17.1674 40.5951L19.1785 40.0649L19.1461 39.8373Z" fill="#E1BCB1"/>
<path d="M26.5361 25.3405L29.4436 26.0916L26.0703 27.3751L26.5361 25.3405Z" fill="#FAD2C3"/>
<path d="M20.588 28.2587C20.1102 28.4071 19.584 28.3956 19.1129 28.2262C18.9529 28.1689 18.7809 28.0711 18.7471 27.9045C18.7 27.6693 18.9449 27.4947 19.1302 27.3427C19.6516 26.9156 19.8729 26.2285 20.0262 25.572C20.1796 24.9156 20.3009 24.2258 20.6973 23.6809C21.2604 22.9062 22.3693 22.5827 23.2604 22.9329C23.64 22.5889 24.1831 22.4858 24.6858 22.5845C25.1884 22.6831 25.6382 22.9818 25.9764 23.3662C26.3147 23.7511 26.548 24.2182 26.7182 24.7014C26.9511 25.3622 27.0613 26.1307 26.7107 26.7374C26.4036 27.2685 25.8098 27.5609 25.2307 27.7645C23.7618 28.2814 22.0751 27.7965 20.588 28.2587Z" fill="#352B24"/>
<path d="M26.8497 26.7778L24.5426 27.3885C23.1755 27.1138 21.7649 27.1463 20.412 27.4836L16.668 28.4169V29.4827L26.2106 30.8636L27.9284 30.4325C27.9546 29.1427 27.5764 27.8445 26.8497 26.7778Z" fill="#FAD2C3"/>
<path d="M27.8221 31.4551C28.1324 29.8502 27.7706 28.1276 26.8506 26.7778L30.039 25.9338C31.3479 25.5876 32.6301 26.5742 32.6301 27.9285C32.6301 28.7356 32.1599 29.4685 31.4261 29.8045L27.8221 31.4551Z" fill="#7BB0CB"/>
<path d="M26.8516 26.7814C27.4565 28.4734 27.3716 29.8636 27.1453 30.6294L27.928 30.4329C27.9542 29.144 27.5769 27.8471 26.8516 26.7814Z" fill="#E1BCB1"/>
<path d="M27.8218 31.4551C27.8872 31.1183 27.9223 30.776 27.9294 30.4329L27.3027 30.5898C27.517 31.0583 27.8218 31.4551 27.8218 31.4551Z" fill="#4F7D8A"/>
<path d="M27.7897 31.496L27.7986 31.4503C27.9537 30.6472 27.9408 29.788 27.7617 28.9663L27.8084 28.956C27.9857 29.7689 28.0017 30.6178 27.8546 31.4138L31.4164 29.7823C32.1391 29.4511 32.6062 28.7232 32.6062 27.928H32.6537C32.6537 28.7418 32.1755 29.4867 31.4359 29.8258L27.7897 31.496Z" fill="#507D8A"/>
<path d="M19.5842 27.6653L16.8184 28.3575L16.8299 28.4037L19.5958 27.7114L19.5842 27.6653Z" fill="#E1BCB1"/>
<path d="M23.5717 30.5058L18.6348 29.7916L18.6414 29.7444L23.5783 30.4587L23.5717 30.5058Z" fill="#E1BCB1"/>
<path d="M18.7617 39.6271C20.2511 41.6885 22.8666 41.1165 22.8666 41.1165L23.5751 39.6271L19.3968 38.2089L18.7617 39.6271Z" fill="#7DA2AB"/>
<path d="M16.1279 43.9863H21.1684V43.4325H16.4155C16.2906 43.5974 16.1915 43.7832 16.1279 43.9863Z" fill="white"/>
<path d="M20.0213 42.2334V41.8694C19.7559 41.6841 19.4573 41.5494 19.1448 41.4641C19.0306 41.6592 18.8941 41.8409 18.7355 42.0027C18.4066 42.3387 17.9981 42.5854 17.5479 42.7205L17.3479 42.7805C16.9701 42.8938 16.6466 43.1254 16.415 43.4316H21.1675V42.2329H20.0213V42.2334Z" fill="#42A1B7"/>
<path d="M20.022 42.2334H21.1687V42.0609L22.4674 39.8089L20.3425 38.8098L19.2932 41.1827C19.25 41.28 19.1998 41.3729 19.1465 41.4645C19.4585 41.5503 19.7572 41.6845 20.0229 41.8698V42.2334H20.022Z" fill="#FAD2C3"/>
<path d="M19.8799 39.8543C20.823 39.952 21.6799 40.6343 21.8577 40.8654L22.467 39.8089L20.3421 38.8098L19.8799 39.8543Z" fill="#E1BCB1"/>
<path d="M31.5124 41.3707L27.1382 31.4267C26.7279 30.4938 25.8048 29.8916 24.7857 29.8916C23.7728 29.8916 22.8542 30.4867 22.4404 31.4112L18.7617 39.6272C21.0866 38.9369 22.8666 41.1165 22.8666 41.1165L24.2835 38.1378L25.0804 41.9112C25.3359 43.1205 26.4031 43.9863 27.6395 43.9863H28.8968C30.3413 43.9863 31.5124 42.8152 31.5124 41.3707Z" fill="#9EC1CC"/>
<path d="M25.868 34.8041C25.9231 36.8321 24.6413 39.8374 24.6413 39.8374L24.2822 38.1379L25.868 34.8041Z" fill="#7DA2AB"/>
<path d="M22.8878 41.1267L22.8447 41.1062L26.1749 34.1036L26.2185 34.124L22.8878 41.1267Z" fill="#7DA2AB"/>
<path d="M22.4216 31.4043L18.7354 39.6166L18.7791 39.6363L22.4654 31.424L22.4216 31.4043Z" fill="#7DA2AB"/>
<path d="M22.8161 40.0805C22.0188 39.1374 20.7126 38.628 19.4872 38.7814L19.4814 38.7338C20.7219 38.5774 22.0454 39.0943 22.8526 40.0494L22.8161 40.0805Z" fill="#7DA2AB"/>
<path d="M24.8608 34.7902L22.2998 40.0539L22.3426 40.0747L24.9036 34.811L24.8608 34.7902Z" fill="#7DA2AB"/>
<path d="M23.9766 30.0236C24.561 30.2725 24.6774 31.1876 24.6134 31.8152C24.5988 31.9592 24.7032 32.0876 24.8463 32.1063L25.0281 32.1298C25.0232 32.268 25.1246 32.3876 25.2619 32.4054L25.6255 32.4525C25.6255 32.5716 25.7174 32.6703 25.8361 32.6787L25.9881 32.6894C26.109 32.6978 26.2152 32.6098 26.229 32.4894L26.245 32.3507C26.4775 32.3863 26.6903 32.216 26.7086 31.9818C26.817 30.5854 26.0032 29.4832 25.137 29.4832C24.1837 29.4832 24.025 29.7916 23.9766 30.0236Z" fill="#FAD2C3"/>
<path d="M26.005 32.7138C25.9992 32.7138 25.993 32.7138 25.9868 32.7134L25.8348 32.7027C25.7112 32.6938 25.613 32.5956 25.6028 32.4743L25.2592 32.4298C25.1161 32.4111 25.0103 32.2934 25.0045 32.1516L24.8436 32.1307C24.6876 32.1107 24.5739 31.9685 24.5899 31.8138L24.6374 31.8187C24.6241 31.948 24.7196 32.0667 24.8499 32.0836L25.0534 32.1098L25.0525 32.1316C25.0481 32.2583 25.1396 32.3663 25.2654 32.3827L25.6499 32.4325V32.4534C25.6499 32.5591 25.7325 32.648 25.8383 32.6556L25.9903 32.6663C26.0979 32.6725 26.1934 32.5952 26.2059 32.4872L26.2245 32.3236L26.249 32.3271C26.3543 32.3431 26.4583 32.3156 26.5419 32.2494C26.6259 32.1827 26.677 32.0871 26.685 31.98C26.7116 31.6387 26.6841 31.3049 26.6028 30.9885C26.5396 30.7418 26.4454 30.5138 26.3236 30.3094C26.0232 29.8072 25.5796 29.5071 25.137 29.5071C24.5179 29.5071 24.1588 29.636 24.0396 29.9018L23.9961 29.8823C24.1241 29.5978 24.4974 29.4596 25.1374 29.4596C25.597 29.4596 26.0556 29.768 26.365 30.2849C26.4894 30.4929 26.585 30.7258 26.6494 30.9765C26.7316 31.2983 26.7601 31.6374 26.733 31.984C26.7236 32.1027 26.665 32.2134 26.5721 32.2872C26.4845 32.3565 26.3756 32.3885 26.2663 32.3778L26.253 32.4925C26.2388 32.6196 26.1312 32.7138 26.005 32.7138Z" fill="#E1BCB1"/>
<path d="M26.2694 32.3516L26.2218 32.3493C26.264 31.5498 26.1209 30.9933 26.1191 30.988L26.1654 30.976C26.1667 30.9813 26.3116 31.5449 26.2694 32.3516Z" fill="#E1BCB1"/>
<path d="M25.649 32.4542L25.6015 32.4511C25.6784 31.2462 25.5184 30.9587 25.5166 30.956L25.5575 30.9316C25.5646 30.9427 25.7273 31.2262 25.649 32.4542Z" fill="#E1BCB1"/>
<path d="M25.0524 32.1325L25.0049 32.1276C25.0813 31.396 25.0058 30.9907 25.0049 30.9867L25.052 30.9774C25.0529 30.9814 25.1298 31.3925 25.0524 32.1325Z" fill="#E1BCB1"/>
</g>
</g>
<defs>
<clipPath id="clip0_1141_49276">
<rect width="48" height="48" rx="24" fill="white"/>
</clipPath>
<clipPath id="clip1_1141_49276">
<rect width="48" height="48" fill="white"/>
</clipPath>
</defs>
</svg>
