<svg width="48" height="48" viewBox="0 0 48 48" fill="none" xmlns="http://www.w3.org/2000/svg">
<g clip-path="url(#clip0_1141_49273)">
<rect width="48" height="48" rx="24" fill="white"/>
<g clip-path="url(#clip1_1141_49273)">
<path opacity="0.29" d="M-2.19631 41.0893L13.1379 39.4018C13.1379 39.4018 32.2148 38.0178 33.4526 38.372C34.6908 38.7262 50.321 38.0413 50.321 38.0413L48.5055 40.9235L47.9135 42.9675L33.341 43.4769H26.2668C25.4237 43.4769 24.5832 43.5764 23.7632 43.7729C19.5015 44.7951 15.0975 45.0858 10.7384 44.632C9.31569 44.484 7.91258 44.1835 6.55391 43.7364L1.04547 41.9231L-1.27986 41.8378C-1.27986 41.8378 -2.90431 42.6373 -3.29898 42.2258C-3.69364 41.8142 -2.19631 41.0893 -2.19631 41.0893Z" fill="#C3DAE4"/>
<g opacity="0.56">
<path d="M35.5367 8.80888L35.1887 7.92355C34.6207 7.9711 34.2434 7.75777 34.0567 7.28266C33.9616 7.04044 33.9554 6.8151 34.0385 6.60666C34.1216 6.39866 34.2701 6.23955 34.4829 6.12932L34.4007 5.91999L34.6901 5.80621L34.7723 6.0151C34.9905 5.96044 35.1883 5.96932 35.3656 6.04221C35.5429 6.11466 35.6918 6.25244 35.8114 6.45599L35.3318 6.72532C35.2349 6.57021 35.1096 6.48932 34.9563 6.48266L35.2812 7.30888C35.6283 7.2751 35.8825 7.30088 36.0447 7.3871C36.2381 7.48977 36.3812 7.66044 36.4749 7.89821C36.5794 8.1631 36.5896 8.41066 36.5065 8.63999C36.4234 8.86977 36.2616 9.05377 36.0216 9.19199L36.1772 9.58755L35.8878 9.70132L35.7367 9.31644C35.2309 9.44532 34.8296 9.25021 34.5332 8.73066L35.0341 8.46532C35.099 8.56844 35.1772 8.64932 35.2683 8.70888C35.3589 8.76755 35.4487 8.80088 35.5367 8.80888ZM34.6638 6.58977C34.5989 6.64577 34.5554 6.71688 34.5323 6.80221C34.5092 6.88755 34.5136 6.97066 34.5452 7.05066C34.6118 7.21955 34.7469 7.30977 34.9514 7.32044L34.6638 6.58977ZM35.8376 8.72488C35.9283 8.66799 35.9909 8.58844 36.0252 8.48621C36.0594 8.38399 36.0554 8.27866 36.0127 8.17066C35.9341 7.97066 35.7674 7.88044 35.5132 7.90088L35.8376 8.72488Z" fill="#C3DAE4"/>
</g>
<g opacity="0.56">
<path d="M40.5836 7.37506H39.877V10.1124H40.5836V7.37506Z" fill="#C3DAE4"/>
<path d="M38.8613 8.3905V9.09717H41.5987V8.3905H38.8613Z" fill="#C3DAE4"/>
</g>
<g opacity="0.56">
<path d="M34.3238 11.9978L31.1445 10.0861L30.6963 10.8315L33.8756 12.7432L34.3238 11.9978Z" fill="#C3DAE4"/>
<path d="M33.6558 13.1085L30.4766 11.1969L30.0284 11.9423L33.2076 13.8539L33.6558 13.1085Z" fill="#C3DAE4"/>
</g>
<g opacity="0.56">
<path d="M41.3671 16.7938H41.8889C41.7151 17.2227 41.444 17.5542 41.0764 17.7889C40.7084 18.0227 40.2578 18.14 39.724 18.14C39.1804 18.14 38.72 18.0329 38.3431 17.8191C37.9662 17.6053 37.6729 17.2924 37.4631 16.8795C37.2533 16.4671 37.1484 15.9711 37.1484 15.392C37.1484 14.7982 37.2635 14.2649 37.4933 13.7915C37.7231 13.3182 38.0244 12.964 38.3973 12.7298C38.7702 12.4951 39.1933 12.3773 39.6671 12.3773C40.0729 12.3773 40.4333 12.472 40.748 12.6609C41.0627 12.8493 41.3107 13.1213 41.4915 13.476C41.6724 13.8302 41.7631 14.2347 41.7631 14.688C41.7631 15.2093 41.6262 15.6831 41.3524 16.1084C41.0347 16.6018 40.6289 16.8484 40.1351 16.8484C40.0031 16.8484 39.9022 16.8213 39.8324 16.7675C39.7627 16.7138 39.7147 16.6267 39.6884 16.5067C39.4964 16.7347 39.2738 16.8484 39.02 16.8484C38.756 16.8484 38.5324 16.7364 38.3484 16.5124C38.1644 16.2884 38.0724 15.9835 38.0724 15.5978C38.0724 15.2178 38.1435 14.8631 38.2853 14.5333C38.4271 14.2035 38.5942 13.9653 38.7862 13.8182C38.9782 13.6711 39.1849 13.5978 39.4071 13.5978C39.5529 13.5978 39.68 13.6315 39.788 13.6995C39.896 13.7675 39.9849 13.8693 40.0547 14.0053L40.1147 13.6724H40.7622L40.3933 15.8222C40.3693 15.96 40.3573 16.0502 40.3573 16.092C40.3573 16.1378 40.3667 16.1733 40.3858 16.1982C40.4049 16.2231 40.4271 16.2355 40.4533 16.2355C40.5293 16.2355 40.6293 16.1795 40.7533 16.0675C40.9191 15.9195 41.0551 15.7169 41.1613 15.4587C41.2671 15.2009 41.3204 14.9338 41.3204 14.6582C41.3204 14.3222 41.248 14.0182 41.1031 13.7453C40.9582 13.4724 40.7662 13.2675 40.5275 13.1307C40.2889 12.9938 39.9995 12.9253 39.6595 12.9253C39.2555 12.9253 38.9035 13.0209 38.6027 13.2115C38.3018 13.4031 38.0591 13.6951 37.8742 14.0898C37.6893 14.4835 37.5969 14.9347 37.5969 15.4427C37.5969 15.8769 37.684 16.2595 37.8578 16.592C38.0315 16.924 38.2698 17.1733 38.5715 17.3404C38.8733 17.5075 39.2422 17.5907 39.6778 17.5907C40.0698 17.5907 40.4062 17.524 40.6884 17.3911C40.968 17.2591 41.1951 17.0595 41.3671 16.7938ZM38.7102 15.5582C38.7102 15.816 38.7533 16.004 38.8391 16.1218C38.9249 16.2395 39.032 16.2987 39.16 16.2987C39.272 16.2987 39.3751 16.2569 39.4689 16.1729C39.5907 16.0649 39.6964 15.8809 39.7853 15.6213C39.8742 15.3613 39.9187 15.0995 39.9187 14.8355C39.9187 14.6098 39.8747 14.4369 39.7867 14.3169C39.6987 14.1969 39.5915 14.1369 39.4658 14.1369C39.264 14.1369 39.1 14.2507 38.9742 14.4787C38.7982 14.7987 38.7102 15.1587 38.7102 15.5582Z" fill="#C3DAE4"/>
</g>
<path d="M28.8289 19.8089C29.3183 20.116 29.872 20.2262 30.4045 20.1627C30.6223 20.1369 30.8374 20.1516 31.0427 20.2044L28.9174 23.5916L29.9249 24.2236L32.0511 20.8342C32.1898 20.9964 32.2978 21.184 32.3689 21.3893C32.5431 21.896 32.8836 22.3471 33.3685 22.6516C34.6667 23.4662 36.4307 22.9235 37.0009 21.4009C37.3289 20.5093 37.0925 19.4769 36.4165 18.8156C35.9165 18.336 35.308 18.1142 34.7014 18.1071C34.2094 18.1067 33.7258 17.9698 33.3 17.7027L33.2831 17.692C32.8787 17.4382 32.5565 17.0818 32.3494 16.6556C32.0845 16.1036 31.6103 15.64 30.9538 15.4004C30.0636 15.0791 29.0316 15.3156 28.3783 15.9973C27.2516 17.1702 27.5307 18.9947 28.8289 19.8089ZM34.0791 20.1964C34.2636 19.9027 34.6471 19.8111 34.9409 19.9955C35.2347 20.18 35.3236 20.5676 35.1391 20.8613C34.9547 21.1551 34.5667 21.244 34.2734 21.0596C33.9796 20.8756 33.8951 20.4902 34.0791 20.1964ZM29.5418 17.3493C29.7263 17.0555 30.1143 16.9667 30.4076 17.1511C30.7014 17.3356 30.7903 17.7236 30.6058 18.0169C30.4214 18.3102 30.0338 18.3996 29.74 18.2151C29.4463 18.0311 29.3574 17.6431 29.5418 17.3493Z" fill="#8EB0C1"/>
<path d="M30.4586 30.6248C28.3266 31.3262 27.0684 33.3226 27.6479 35.0844C28.2275 36.8462 30.4253 37.7057 32.5573 37.0044C34.6893 36.3031 35.9475 34.3066 35.3679 32.5448C34.7884 30.7831 32.5906 29.9235 30.4586 30.6248Z" fill="#F19257"/>
<path d="M19.192 36.3488C17.2266 37.2804 15.8818 38.4582 16.068 39.1515C16.268 39.8959 18.2866 40.2728 21.0182 39.7875C24.5929 38.6115 28.168 37.4355 31.7426 36.2595C31.2924 34.1226 30.8426 31.9857 30.3924 29.8484C29.1795 30.1524 27.7964 30.6008 26.328 31.2742C23.0009 32.7999 20.6635 34.8244 19.192 36.3488Z" fill="#F19257"/>
<path d="M34.6894 40.7195C36.0983 40.6186 37.5072 40.5177 38.9161 40.4168C38.4601 40.1057 37.7592 39.6915 36.8361 39.3955C36.0107 39.1306 35.8765 39.2386 34.7618 38.9768C33.5494 38.6924 33.3201 38.4586 31.665 37.9724C31.0836 37.8017 30.4245 37.6222 29.6752 37.4404C25.3201 36.3853 24.0632 36.7333 23.5125 36.9306C22.7352 37.2088 22.6952 37.2804 21.7067 37.5679C19.7636 38.1333 18.0498 38.1057 16.8863 37.9879C16.1147 38.7399 15.9916 39.2413 16.0823 39.5795C16.4232 40.8524 20.0881 40.9364 22.3663 40.879C23.0907 40.7586 23.8401 40.6542 24.6121 40.5697C28.3405 40.1622 31.7418 40.3155 34.6894 40.7195Z" fill="#FAD2C3"/>
<path d="M32.4975 36.8493C33.4624 34.568 34.4273 32.2871 35.3922 30.0058C35.0344 29.3044 31.8504 23.3071 25.4451 22.456C22.9068 22.1186 20.7859 22.7124 19.5002 23.2102C19.2171 24.3298 18.9335 25.4489 18.6504 26.5684C20.8188 27.8031 23.1779 29.2973 25.6299 31.1009C28.2859 33.0542 30.5668 35.016 32.4975 36.8493Z" fill="#F19257"/>
<path d="M17.0027 27.076C17.5316 27.0364 18.0627 26.9969 18.5938 26.9546C19.4427 26.8906 20.2916 26.8266 21.1405 26.7626L20.9089 23.0022C19.1489 23.3431 17.3889 23.6844 15.6289 24.0253C15.9378 24.5178 16.26 25.1093 16.5489 25.7991C16.7382 26.2506 16.8862 26.68 17.0027 27.076Z" fill="#FAD2C3"/>
<path d="M17.0026 27.076C17.5315 27.0365 18.0626 26.9969 18.5937 26.9547C18.5315 26.2502 17.6328 25.7325 16.5719 25.7978L16.5488 25.7991C16.6986 26.2231 16.8506 26.6498 17.0026 27.076Z" fill="#E1BCB1"/>
<path d="M17.3537 26.6849C17.2093 26.0635 16.7999 24.8942 15.4048 23.68C15.3253 23.6107 14.1279 22.5991 12.6186 23.0471C11.6502 23.3347 11.0235 24.0835 10.7444 24.7907C10.1604 26.2693 10.9315 27.9804 11.7581 28.3675C11.8968 28.4324 12.0297 28.4693 12.143 28.4911C13.1119 28.6418 13.5462 28.7129 13.5684 28.7204C13.5742 28.7222 13.6048 28.7342 13.6439 28.7298C13.6701 28.7267 13.6906 28.7178 13.7026 28.7111C13.8266 28.6698 13.9502 28.6289 14.0742 28.5875C14.9084 28.5729 15.2586 28.5809 15.3648 28.5982C15.3675 28.5987 15.3813 28.6009 15.4008 28.6035C15.5764 28.6271 15.6644 28.6391 15.739 28.6044C15.7608 28.5942 15.7795 28.5858 15.7999 28.5933C15.8386 28.6075 15.831 28.6644 15.8639 28.6827C15.9133 28.7098 16.0075 28.6249 16.0244 28.6098C16.0408 28.5951 16.1795 28.4698 16.1475 28.348C16.1355 28.3013 16.1008 28.2658 16.099 28.2667C16.0946 28.2693 16.1901 28.4867 16.2817 28.4795C16.3186 28.4769 16.3537 28.4373 16.363 28.4267C16.3928 28.3933 16.3955 28.3658 16.4044 28.3507C16.4586 28.2569 17.0017 28.4298 17.2128 28.3449C17.5235 28.2195 17.5217 27.4084 17.3537 26.6849Z" fill="#FAD2C3"/>
<path d="M15.1254 29.14C15.2606 29.132 15.3534 28.9862 15.3881 28.9324C15.4828 28.784 15.481 28.632 15.477 28.5707C15.445 28.5307 15.3823 28.4658 15.293 28.4569C15.2192 28.4493 15.1814 28.4951 15.0925 28.5133C15.0352 28.5253 14.949 28.5284 14.833 28.4809C14.5508 28.5102 14.2686 28.54 13.9863 28.5693C14.1597 28.6524 14.3014 28.7178 14.3988 28.7622C14.7214 28.9098 14.7294 28.9053 14.8086 28.9556C14.993 29.0724 15.0263 29.1458 15.1254 29.14Z" fill="#FAD2C3"/>
<path d="M13.9225 28.3746C13.8829 28.3746 13.846 28.3498 13.8323 28.3106C13.8154 28.2609 13.8416 28.2066 13.8914 28.1893C13.9834 28.1573 14.0567 28.1062 14.1029 28.0418C14.2394 27.8502 14.1763 27.5173 13.9523 27.2498C13.9185 27.2093 13.9238 27.1493 13.9643 27.1155C14.0047 27.0818 14.0647 27.0871 14.0985 27.1275C14.3816 27.4658 14.4474 27.8871 14.2585 28.1524C14.1892 28.2498 14.0838 28.3249 13.954 28.3698C13.9429 28.3729 13.9327 28.3746 13.9225 28.3746Z" fill="#22120E"/>
<path d="M13.5705 27.108C13.5705 27.108 13.5509 27.2391 13.554 27.3649C13.5589 27.5702 13.6251 28.0026 13.7522 28.552C13.7278 28.5818 13.6616 28.6555 13.5602 28.6671C13.474 28.6769 13.4065 28.6364 13.3758 28.6155C13.3625 28.2422 13.3331 27.9702 13.306 27.7795C13.2958 27.708 13.2642 27.4946 13.2931 27.2382C13.3069 27.1151 13.3278 27.06 13.3385 27.0346C13.4145 26.8489 13.5638 26.8066 13.6149 26.7955C13.6002 26.8746 13.5834 26.9804 13.5705 27.108Z" fill="#22120E"/>
<path d="M16.1475 28.4422C16.1022 28.4422 16.0617 28.4098 16.0537 28.3635L15.9408 27.716C15.932 27.664 15.9666 27.6146 16.0182 27.6058C16.0688 27.5955 16.1195 27.6311 16.1284 27.6831L16.2413 28.3306C16.2502 28.3826 16.2155 28.432 16.164 28.4409C16.1586 28.4418 16.1533 28.4422 16.1475 28.4422Z" fill="#E1BCB1"/>
<path d="M28.6767 37.4138C24.4967 37.4933 20.451 37.7351 16.5479 38.1084C18.5496 35.9271 21.3136 33.5542 25.0056 31.7986C25.6239 31.5049 26.2332 31.2444 26.8305 31.0142C29.579 30.2595 32.3274 29.5044 35.0763 28.7498C35.3167 29.1978 35.5572 29.6818 35.7901 30.2022C36.1194 30.9382 36.3856 31.6409 36.6025 32.2942C36.5056 32.8009 36.1119 34.5253 34.5163 35.888C32.8767 37.2884 31.0536 37.3804 30.5474 37.3889C29.9274 37.3938 29.3039 37.4018 28.6767 37.4138Z" fill="#3A718D"/>
<path d="M34.5433 41.0404C29.1339 41.0484 23.7242 41.0559 18.3144 41.0639C18.0824 41.0675 17.0624 41.0582 16.2553 40.2777C15.9353 39.9684 15.7464 39.6319 15.6339 39.3662C15.5628 39.1982 15.5855 39.0066 15.6891 38.8564C16.0384 38.3497 16.4584 37.8106 16.9628 37.2662C18.2495 35.8782 19.6011 34.9791 20.6562 34.4066C25.4033 35.7799 30.1504 37.1537 34.8975 38.5271C34.6908 39.9955 34.7504 39.5719 34.5433 41.0404Z" fill="#3A718D"/>
<path d="M34.526 37.0057C37.23 37.9902 39.9336 38.9751 42.6376 39.9595C42.5927 40.0991 42.5002 40.3142 42.2998 40.4733C41.9407 40.7582 41.4558 40.6888 41.2762 40.6675C40.6038 40.5875 39.4118 40.6106 37.4593 40.7671C37.1833 40.6915 36.8509 40.5635 36.8251 40.3586C36.8025 40.1777 37.0398 40.0795 37.05 39.9417C37.0669 39.7151 36.4687 39.3786 34.1904 38.8653C34.1727 38.6688 34.1678 38.436 34.1945 38.1764C34.246 37.6782 34.3953 37.2791 34.526 37.0057Z" fill="#B2D3E0"/>
<path d="M21.5138 38.9866C21.4867 38.9866 21.4609 38.971 21.4489 38.9448C21.4325 38.9093 21.448 38.8666 21.484 38.8502C23.1485 38.0857 24.9027 37.5866 26.6987 37.367C27.7347 37.2404 28.7907 37.207 29.8378 37.2684C29.8774 37.2706 29.9076 37.3044 29.9049 37.3439C29.9027 37.383 29.868 37.4155 29.8294 37.411C28.7912 37.351 27.7436 37.3835 26.716 37.5093C24.9347 37.727 23.1947 38.2222 21.5436 38.9804C21.5343 38.9848 21.524 38.9866 21.5138 38.9866Z" fill="#306277"/>
<path d="M37.6566 30.6084C37.2699 31.4324 36.509 32.6835 35.1001 33.4848C32.5744 34.9213 29.0064 34.3186 26.2001 31.9159C23.7739 30.2542 21.3481 28.5919 18.9219 26.9302C18.5557 25.7813 18.1895 24.6324 17.8232 23.484C19.1904 22.8644 22.6779 21.5133 26.981 22.3639C33.9632 23.7444 37.2161 29.7604 37.6566 30.6084Z" fill="#7BB0CB"/>
<path d="M19.0664 26.9986C18.8109 27.0448 18.5549 27.0915 18.2993 27.1377C17.974 25.9906 17.6491 24.8435 17.3242 23.6964C17.5042 23.623 17.6842 23.5497 17.8642 23.4764C18.2647 24.651 18.6656 25.8248 19.0664 26.9986Z" fill="#E5E5E5"/>
<path d="M11.4492 39.6373C11.9483 39.9644 12.4474 40.2915 12.9466 40.6186C13.7688 39.7844 14.4861 39.1466 14.9963 38.7133C16.9017 37.0946 18.0101 36.5484 18.5803 35.1319C18.8092 34.5639 18.8723 34.0519 18.8906 33.7106C18.2221 33.1808 17.5541 32.6515 16.8857 32.1217C16.247 32.7448 15.8061 33.3017 15.5363 33.6684C14.0541 35.683 13.9652 37.0906 12.375 38.7808C11.9959 39.1844 11.6532 39.4737 11.4492 39.6373Z" fill="#FAD2C3"/>
<path d="M16.3818 32.5679L18.6285 33.7919C19.6409 32.1826 20.4258 30.7911 20.9894 29.7444C23.4396 25.1959 23.5574 23.7524 23.0263 22.8422C22.9209 22.6613 22.8072 22.5311 22.7312 22.4524C21.3836 23.7786 20.0356 25.1044 18.6881 26.4302C17.9192 28.4764 17.1507 30.5222 16.3818 32.5679Z" fill="#F19257"/>
<path d="M19.7953 33.4893C19.5997 33.9946 19.3651 34.5173 19.0828 35.0484C17.5446 37.9431 15.3024 39.7613 13.6126 40.8377C12.9784 40.3653 12.3442 39.8924 11.71 39.42C13.1788 37.1244 14.6477 34.8284 16.1162 32.5329C16.9362 30.1746 17.7562 27.8164 18.5762 25.4582C19.3873 22.8893 21.7442 21.8684 23.07 22.4853C24.0069 22.9213 24.5584 24.2351 24.5002 25.6649C22.9322 28.2729 21.3637 30.8809 19.7953 33.4893Z" fill="#7BB0CB"/>
<path d="M12.0624 41.5488H5.73661C5.70772 41.4875 5.67928 41.4257 5.65039 41.3644C7.58328 40.7888 9.51617 40.2133 11.4491 39.6373C11.9482 39.9644 12.4473 40.2915 12.9464 40.6186C12.9037 40.7133 12.8482 40.8159 12.7757 40.9213C12.5459 41.2542 12.2571 41.4453 12.0624 41.5488Z" fill="#FAD2C3"/>
<path d="M7.53382 41.5333C7.53027 41.5333 7.52627 41.5333 7.52271 41.5328C7.47027 41.5266 7.43293 41.4795 7.43915 41.427C7.4516 41.3217 7.48849 41.2337 7.54893 41.1657C7.73427 40.9555 8.07515 41.003 8.27915 41.0319L8.30982 41.0364C8.7156 41.0919 9.16671 41.0915 9.65249 41.0359C9.70315 41.0301 9.75204 41.0675 9.75782 41.1199C9.7636 41.1724 9.72627 41.2195 9.67382 41.2253C9.17293 41.2826 8.70493 41.2826 8.28404 41.2248L8.25293 41.2204C8.08715 41.1973 7.80982 41.1581 7.6916 41.2919C7.65738 41.3306 7.63604 41.3835 7.62893 41.4493C7.62227 41.4977 7.58138 41.5333 7.53382 41.5333Z" fill="#E1BCB1"/>
<path d="M22.4103 29.212C22.3978 29.212 22.3849 29.2084 22.3734 29.2017C22.3396 29.1813 22.3289 29.1377 22.3489 29.1035L23.1947 27.6968C23.2152 27.6626 23.2592 27.6524 23.2929 27.6724C23.3267 27.6928 23.3374 27.7364 23.3174 27.7706L22.4716 29.1773C22.4578 29.1995 22.4343 29.212 22.4103 29.212Z" fill="#639AAF"/>
<path d="M21.5139 38.9866C21.4957 38.9866 21.4774 38.9795 21.4632 38.9657C21.4352 38.9382 21.4357 38.8924 21.4632 38.8648L22.4477 37.8804C22.4757 37.8524 22.521 37.8524 22.549 37.8804C22.577 37.9084 22.5765 37.9537 22.549 37.9817L21.5645 38.9662C21.5508 38.9799 21.5321 38.9866 21.5139 38.9866Z" fill="#306277"/>
<path d="M21.2844 38.7026C21.2449 38.7026 21.2129 38.6706 21.2129 38.631V38.1128C21.2129 38.0733 21.2449 38.0413 21.2844 38.0413C21.324 38.0413 21.356 38.0733 21.356 38.1128V38.631C21.3556 38.6706 21.324 38.7026 21.2844 38.7026Z" fill="#306277"/>
<path d="M12.6614 26.7355C12.1761 27.4897 12.5187 28.6337 12.2596 28.6679C12.1121 28.6875 11.973 28.3617 11.8463 28.4039C11.6743 28.4613 11.8285 29.095 11.7094 29.1404C11.5347 29.2066 10.5898 28.0697 10.4543 26.6657C10.3378 25.4586 10.7738 23.5328 12.3578 22.8915C13.933 22.2537 15.4641 23.3635 15.8365 23.7284C15.9343 23.8244 16.1765 24.0617 16.1156 24.2648C16.0761 24.3964 15.9183 24.4839 15.5414 24.5693C14.6516 24.7706 14.0401 24.6195 13.9987 24.7457C13.9467 24.9039 14.8987 25.1782 14.885 25.5168C14.8672 25.9537 13.2743 25.7826 12.6614 26.7355Z" fill="#22120E"/>
<path opacity="0.67" d="M19.0184 19.4218C17.6207 19.4218 16.2127 19.172 14.866 18.6738C14.6131 18.58 14.3251 18.4626 14.1078 18.2542C13.9033 18.0578 13.782 17.804 13.6647 17.5582C13.5944 17.4111 13.522 17.2591 13.4331 17.1253C13.1291 16.6666 12.5847 16.3311 11.7678 16.0995C11.1682 15.9298 10.5402 15.8289 9.93311 15.7311C9.31667 15.632 8.67889 15.5298 8.06511 15.3546C6.93533 15.0329 5.79044 14.5689 4.66155 13.9764C4.12867 13.6964 3.59089 13.368 3.26333 12.8631C2.97978 12.4262 2.86111 11.8586 2.92867 11.2649C3.06778 10.0409 3.818 9.18354 4.45578 8.57287C4.546 8.48265 5.03844 8.02442 5.55044 7.66398C6.11355 7.26754 6.76289 7.10842 6.97622 7.05598L7.01978 7.04531C7.91178 6.81331 8.60778 6.52487 9.34467 6.21954C10.3091 5.81998 11.3064 5.40665 12.826 5.09109C14.5273 4.73776 19.0456 3.79865 20.706 5.56265C20.7278 5.58576 20.7527 5.61331 20.7802 5.64398C21.0211 5.90976 21.522 6.4622 22.3256 6.69909C22.6096 6.78265 22.8171 6.78265 23.1264 6.78265C23.3007 6.7822 23.4962 6.7822 23.7504 6.79687L24.0807 6.81509C24.8193 6.85465 25.5833 6.89554 26.3202 7.05776C27.1762 7.2462 28.6718 7.75998 29.0682 9.08354C29.1607 9.39109 29.1842 9.73242 29.1384 10.0982C28.982 11.3515 28.014 12.5369 26.6122 13.1924L26.47 13.2578C26.1753 13.3915 25.8713 13.5298 25.6816 13.7751C25.3816 14.1635 25.4424 14.6738 25.5069 15.2138C25.5411 15.5004 25.5762 15.7969 25.5558 16.0813C25.4407 17.6733 23.6509 18.4822 22.8869 18.7564C21.6464 19.1995 20.3367 19.4218 19.0184 19.4218ZM5.65889 7.81954C5.09355 8.21776 4.59222 8.70442 4.58733 8.70931C3.67355 9.58442 3.22022 10.3786 3.11667 11.2866C3.054 11.8364 3.16244 12.3595 3.422 12.7595C3.74111 13.2511 4.274 13.5582 4.74911 13.8075C5.86644 14.3942 6.99933 14.8529 8.11622 15.1711C8.71978 15.3431 9.35133 15.4444 9.96244 15.5426C10.5749 15.6409 11.2082 15.7426 11.8189 15.9155C12.6811 16.16 13.2611 16.5213 13.5913 17.0195C13.6873 17.1644 13.7629 17.3226 13.8358 17.4755C13.9509 17.7164 14.0598 17.944 14.2393 18.1164C14.43 18.2995 14.686 18.4035 14.9318 18.4946C17.5069 19.4475 20.3087 19.4764 22.822 18.5751C23.5509 18.3138 25.258 17.5458 25.3651 16.0658C25.3847 15.7995 25.3504 15.5124 25.3171 15.2346C25.2509 14.6804 25.1829 14.1071 25.5304 13.6569C25.7487 13.3742 26.0749 13.2262 26.3909 13.0826L26.5309 13.0182C27.5833 12.5262 28.7713 11.4938 28.9487 10.0729C28.9909 9.73331 28.9696 9.4182 28.8851 9.13642C28.5162 7.9062 27.0936 7.42131 26.2784 7.24176C25.5567 7.08309 24.8011 7.04265 24.0696 7.00354L23.7389 6.98531C23.49 6.97109 23.2944 6.9702 23.1256 6.97154C22.8104 6.97109 22.5816 6.97198 22.2709 6.88042C21.4162 6.62887 20.8909 6.04931 20.6384 5.77065C20.6113 5.74087 20.5873 5.7142 20.5664 5.69198C18.9793 4.00576 14.5362 4.92887 12.8638 5.27642C11.362 5.58842 10.3731 5.9982 9.41667 6.3942C8.67356 6.7022 7.97133 6.99287 7.06689 7.22842L7.02067 7.23998C6.81578 7.29109 6.19267 7.44354 5.65889 7.81954Z" fill="#C3DAE4"/>
<path opacity="0.67" d="M10.0304 19.3613C9.95488 19.3613 9.87932 19.36 9.80288 19.3569C9.13177 19.3315 8.50377 19.196 8.03443 18.9755C7.53932 18.7431 7.27355 18.4391 7.28555 18.1191C7.30999 17.4795 8.45666 17.0204 9.8891 17.076C10.5602 17.1013 11.1882 17.2369 11.6575 17.4573C12.1527 17.6897 12.4184 17.9937 12.4064 18.3137C12.3944 18.6337 12.106 18.9169 11.5949 19.1111C11.1651 19.2742 10.6167 19.3613 10.0304 19.3613ZM9.66688 17.2622C8.47666 17.2622 7.49443 17.6404 7.47577 18.1266C7.46688 18.3617 7.69977 18.6084 8.11488 18.8035C8.56155 19.0133 9.16377 19.1422 9.80955 19.1671C10.4558 19.1911 11.0655 19.1089 11.5269 18.9333C11.9553 18.7702 12.2069 18.5422 12.2153 18.3071C12.2242 18.072 11.9913 17.8253 11.5762 17.6302C11.1295 17.4204 10.5273 17.2915 9.88155 17.2666C9.80955 17.2635 9.73799 17.2622 9.66688 17.2622Z" fill="#C3DAE4"/>
<path opacity="0.67" d="M9.75203 23.0978C9.72359 23.0978 9.69515 23.0973 9.6667 23.0964C8.75959 23.0618 8.0427 22.4889 8.06803 21.8195C8.08048 21.4893 8.26759 21.1875 8.59426 20.9698C8.91159 20.7582 9.32759 20.6511 9.7587 20.6675C10.6658 20.7018 11.3827 21.2747 11.3574 21.9444C11.3329 22.5924 10.6205 23.0978 9.75203 23.0978ZM9.67159 20.8564C9.30715 20.8564 8.96448 20.952 8.70003 21.1284C8.42537 21.3111 8.26848 21.5591 8.2587 21.8267C8.23737 22.3911 8.87248 22.8751 9.67426 22.9058C10.4831 22.9404 11.1458 22.5013 11.1676 21.9369C11.1889 21.3724 10.5538 20.888 9.75203 20.8578C9.72492 20.8569 9.69826 20.8564 9.67159 20.8564Z" fill="#C3DAE4"/>
<path d="M11.407 10.1616L9.98047 10.1075L9.93009 11.4359L11.3566 11.4901L11.407 10.1616Z" fill="white"/>
<path d="M21.5564 10.5467L20.1299 10.4926L20.0795 11.821L21.5061 11.8751L21.5564 10.5467Z" fill="white"/>
<path d="M21.1044 8.31252L10.6016 7.91418L10.3833 13.6697L20.8861 14.068L21.1044 8.31252Z" fill="#C3DAE4"/>
<path d="M12.3105 8.40619L11.1953 8.36389L11.0094 13.2667L12.1246 13.309L12.3105 8.40619Z" fill="white"/>
<path d="M13.6758 8.45795L12.5605 8.41565L12.3746 13.3184L13.4898 13.3607L13.6758 8.45795Z" fill="white"/>
<path d="M15.3973 10.0907C15.4089 9.78446 15.4725 9.56268 15.5871 9.42534C15.7022 9.28801 15.8502 9.22268 16.0316 9.22934C16.2191 9.23646 16.3649 9.3129 16.4689 9.45868C16.5733 9.60446 16.6196 9.83068 16.608 10.1365C16.5965 10.4427 16.5329 10.6645 16.4182 10.8018C16.3031 10.9391 16.1551 11.0045 15.9738 10.9978C15.788 10.9907 15.6427 10.9147 15.5373 10.7693C15.432 10.6245 15.3853 10.3982 15.3973 10.0907ZM15.8085 10.1005C15.8005 10.3142 15.8125 10.4551 15.8449 10.524C15.8773 10.5925 15.9218 10.628 15.9782 10.6298C16.036 10.632 16.084 10.6005 16.1213 10.5342C16.1591 10.4685 16.1818 10.3289 16.1898 10.1147C16.1978 9.9009 16.1858 9.76001 16.1533 9.69112C16.1209 9.62223 16.0765 9.58712 16.02 9.58534C15.9622 9.58312 15.9142 9.61468 15.8769 9.6809C15.8396 9.74712 15.8169 9.88668 15.8085 10.1005ZM16.3009 12.7791L15.9102 12.7645L17.5098 9.28534L17.8858 9.29957L16.3009 12.7791ZM17.1831 11.9316C17.1947 11.6253 17.2587 11.4036 17.3742 11.2662C17.4902 11.1289 17.6391 11.0636 17.8222 11.0702C18.0067 11.0773 18.1507 11.1538 18.2551 11.2996C18.3596 11.4453 18.4058 11.6716 18.3942 11.9773C18.3827 12.2836 18.3191 12.5058 18.204 12.644C18.0889 12.7822 17.9409 12.848 17.7596 12.8409C17.5738 12.8338 17.4285 12.7573 17.3231 12.6116C17.2178 12.4662 17.1711 12.2396 17.1831 11.9316ZM17.5942 11.9449C17.5862 12.1582 17.5978 12.2991 17.6298 12.3671C17.6613 12.4356 17.7062 12.4707 17.764 12.4729C17.8218 12.4751 17.8698 12.4436 17.9071 12.3778C17.9449 12.312 17.9676 12.1725 17.9756 11.9596C17.9836 11.7462 17.9716 11.6053 17.9391 11.5373C17.9067 11.4689 17.8622 11.4338 17.8058 11.4316C17.7462 11.4293 17.6982 11.4609 17.6613 11.5267C17.6249 11.5925 17.6022 11.7316 17.5942 11.9449Z" fill="white"/>
</g>
</g>
<defs>
<clipPath id="clip0_1141_49273">
<rect width="48" height="48" rx="24" fill="white"/>
</clipPath>
<clipPath id="clip1_1141_49273">
<rect width="48" height="48" fill="white"/>
</clipPath>
</defs>
</svg>
