<svg width="48" height="48" viewBox="0 0 48 48" fill="none" xmlns="http://www.w3.org/2000/svg">
<g clip-path="url(#clip0_1141_49366)">
<rect width="48" height="48" rx="24" fill="white"/>
<g clip-path="url(#clip1_1141_49366)">
<path d="M7.81498 7.12669C7.50565 7.03424 7.27676 7.44491 7.45143 7.68802C7.64254 7.95335 8.01543 7.88846 8.23765 7.70491C8.4212 7.55335 8.52521 7.3018 8.51765 7.06535C8.50965 6.80358 8.36965 6.56669 8.14121 6.43646C7.89676 6.29735 7.58476 6.28624 7.33987 6.42935C7.25543 6.47869 7.21809 6.60002 7.27276 6.68491C7.32743 6.7698 7.43809 6.80446 7.52832 6.75202C7.54565 6.7418 7.56387 6.7338 7.58165 6.72402C7.60521 6.71113 7.53898 6.73691 7.58032 6.72535C7.58876 6.72313 7.5972 6.71958 7.60565 6.71735C7.62254 6.71246 7.63987 6.70802 7.6572 6.70446C7.6612 6.70358 7.67809 6.69869 7.68343 6.70002C7.65587 6.70358 7.65232 6.70402 7.67321 6.7018C7.67765 6.70135 7.68209 6.70135 7.68654 6.70091C7.70654 6.69958 7.72654 6.69958 7.74654 6.70002C7.75543 6.70046 7.76432 6.70091 7.77321 6.70135C7.78965 6.70224 7.81098 6.69469 7.77009 6.70002C7.80476 6.69602 7.85498 6.71735 7.88743 6.72846C7.89098 6.7298 7.90876 6.7338 7.91276 6.7378C7.89632 6.72135 7.88787 6.7258 7.90521 6.73469C7.92298 6.74358 7.9412 6.75246 7.95854 6.76269C7.9692 6.76891 8.00254 6.78313 8.00876 6.79513C8.00743 6.79291 7.97543 6.76669 8.00254 6.79024C8.01276 6.79913 8.02254 6.80758 8.03232 6.81691C8.04521 6.82935 8.05676 6.84269 8.06876 6.85558C8.09232 6.88046 8.06787 6.85158 8.06432 6.84891C8.07187 6.85513 8.07765 6.86802 8.08343 6.87646C8.09454 6.89335 8.10343 6.91158 8.1132 6.92891C8.11943 6.94002 8.13232 6.95113 8.11054 6.92091C8.11676 6.92935 8.12076 6.94846 8.12387 6.95869C8.12921 6.97558 8.13365 6.99291 8.13765 7.01024C8.13765 7.01069 8.14387 7.0338 8.14254 7.03646C8.15098 7.02135 8.13987 7.00135 8.14165 7.03291C8.14387 7.06624 8.15498 7.12846 8.13943 7.15958C8.14076 7.15691 8.14787 7.11424 8.14032 7.1498C8.13854 7.15869 8.13676 7.16713 8.13498 7.17602C8.13098 7.19335 8.12654 7.21069 8.12121 7.22802C8.11809 7.23869 8.11409 7.24935 8.11054 7.25958C8.10832 7.2658 8.09632 7.29246 8.10743 7.26846C8.12032 7.24046 8.1012 7.28046 8.09987 7.28269C8.09498 7.29246 8.08965 7.30269 8.08387 7.31202C8.07409 7.32935 8.06254 7.3458 8.05187 7.36269C8.04387 7.37513 8.04476 7.38624 8.05721 7.35691C8.05454 7.36269 8.04476 7.37202 8.03987 7.37735C8.02654 7.39246 8.01276 7.40669 7.99809 7.42002C7.99098 7.42624 7.98165 7.43824 7.97276 7.4418C7.99098 7.43469 7.99498 7.42669 7.97321 7.44046C7.95632 7.45113 7.93854 7.46091 7.92165 7.47113C7.91365 7.47602 7.88965 7.48446 7.92743 7.47024C7.91854 7.4738 7.90921 7.47691 7.90032 7.48002C7.87943 7.48669 7.85809 7.49113 7.83676 7.49558C7.81054 7.50135 7.87009 7.49513 7.84343 7.4938C7.83009 7.49291 7.81409 7.49291 7.80076 7.49424C7.77543 7.49602 7.83187 7.50491 7.80876 7.49602C7.79854 7.49246 7.77943 7.4858 7.76876 7.4858C7.7452 7.4858 7.7972 7.49913 7.77587 7.48891C7.76965 7.4858 7.76387 7.48269 7.75809 7.47869C7.77543 7.49335 7.77898 7.49646 7.76876 7.48758C7.75987 7.47735 7.74165 7.47513 7.76032 7.48224C7.76876 7.49469 7.76876 7.49424 7.76076 7.4818C7.75365 7.46802 7.75365 7.46846 7.76076 7.48402C7.77454 7.5058 7.76432 7.4898 7.76165 7.47958C7.75765 7.46402 7.76165 7.5258 7.76432 7.48446C7.76609 7.46046 7.75187 7.52224 7.76165 7.50002C7.76565 7.49113 7.76965 7.47646 7.77098 7.46713C7.77454 7.44358 7.75587 7.5018 7.76609 7.48091C7.78343 7.4458 7.75187 7.49113 7.76209 7.48269C7.76698 7.47824 7.77276 7.47291 7.7772 7.46758C7.78787 7.45824 7.78209 7.46269 7.76032 7.48135C7.77365 7.47424 7.77187 7.47469 7.75632 7.4818C7.71943 7.49913 7.77987 7.48002 7.73809 7.48669C7.71987 7.48846 7.71854 7.48935 7.73365 7.48891C7.70165 7.48358 7.69587 7.48358 7.71587 7.48891C7.80965 7.51691 7.92343 7.45558 7.94565 7.35824C7.96876 7.25602 7.91543 7.15646 7.81498 7.12669Z" fill="#CFBFB3"/>
<path d="M40.5254 34.7413C40.5112 34.7387 40.4979 34.7347 40.4841 34.7311C40.4521 34.7227 40.5206 34.7524 40.4908 34.7338C40.4841 34.7298 40.4726 34.7195 40.465 34.7178C40.489 34.7373 40.4939 34.7409 40.4792 34.7284C40.4743 34.724 40.4694 34.7195 40.4646 34.7147C40.4517 34.7013 40.4468 34.68 40.4672 34.7218C40.4619 34.7115 40.4534 34.7018 40.4472 34.6915C40.4414 34.6818 40.4374 34.6671 40.4303 34.6591C40.4512 34.6831 40.4419 34.6893 40.4334 34.664C40.4254 34.64 40.4237 34.6133 40.4157 34.5898C40.4299 34.6311 40.4188 34.6164 40.4179 34.5951C40.417 34.5822 40.417 34.5689 40.4174 34.556C40.4179 34.544 40.4219 34.5284 40.4201 34.5169C40.4259 34.5502 40.4148 34.5484 40.4206 34.5222C40.4232 34.5093 40.4263 34.4969 40.4303 34.4844C40.4321 34.4791 40.4334 34.4738 40.4352 34.4684C40.4423 34.4498 40.4401 34.4542 40.4286 34.4822C40.4437 34.4622 40.4543 34.4342 40.4681 34.4124C40.489 34.3804 40.4454 34.4351 40.4739 34.4053C40.4837 34.3951 40.4926 34.3844 40.5028 34.3742C40.5161 34.3609 40.5303 34.3489 40.5441 34.336C40.5721 34.3098 40.5161 34.3542 40.5508 34.3302C40.5783 34.3111 40.6054 34.2929 40.6348 34.2764C40.6597 34.2622 40.6854 34.2489 40.7117 34.2364C40.729 34.228 40.7468 34.22 40.765 34.2124C40.7219 34.2311 40.7681 34.2115 40.7748 34.2093C40.8383 34.1844 40.9028 34.1631 40.9677 34.1418C41.0606 34.1115 41.1303 34.0111 41.0983 33.912C41.0686 33.8195 40.9681 33.7489 40.8686 33.7813C40.5526 33.8849 40.1943 34.0262 40.0761 34.3684C39.9801 34.6467 40.1081 35.0418 40.4272 35.1004C40.5228 35.1182 40.6334 35.0742 40.657 34.9698C40.6766 34.8795 40.6281 34.76 40.5254 34.7413Z" fill="#CFBFB3"/>
<path d="M41.2609 20.1876C41.2698 20.2489 41.2627 20.196 41.2618 20.1822C41.2613 20.1711 41.2609 20.1605 41.2609 20.1494C41.2609 20.1382 41.2613 20.1276 41.2618 20.1165C41.2622 20.1094 41.2627 20.1018 41.2636 20.0947C41.2658 20.0747 41.2649 20.08 41.2609 20.112C41.2756 20.0676 41.2809 20.0205 41.2978 19.9756C41.3107 19.9414 41.2787 20.0165 41.2987 19.9751C41.304 19.9636 41.3098 19.952 41.316 19.9409C41.3276 19.92 41.34 19.8996 41.3533 19.88C41.36 19.8698 41.3707 19.8596 41.3756 19.8485C41.3587 19.8849 41.3609 19.8671 41.3738 19.8516C41.3907 19.832 41.408 19.8129 41.4267 19.7951C41.4444 19.7782 41.4698 19.7631 41.4849 19.744C41.4782 19.7494 41.4716 19.7547 41.4644 19.7596C41.4702 19.7551 41.4764 19.7507 41.4822 19.7467C41.4911 19.7405 41.5004 19.7342 41.5098 19.7285C41.5316 19.7147 41.5538 19.7018 41.5769 19.6907C41.5858 19.6862 41.5987 19.6827 41.6067 19.6769C41.5787 19.6885 41.5738 19.6907 41.5924 19.6831C41.5991 19.6805 41.6062 19.6778 41.6129 19.6756C41.6333 19.6685 41.6542 19.6622 41.6756 19.6569C41.6898 19.6534 41.704 19.6511 41.7182 19.648C41.7569 19.64 41.672 19.6516 41.7116 19.6489C41.7369 19.6471 41.7622 19.6454 41.7876 19.6462C41.7987 19.6467 41.8093 19.6476 41.8204 19.6485C41.8542 19.6507 41.7729 19.64 41.8258 19.6494C41.9218 19.6667 42.0316 19.6231 42.0556 19.5187C42.0764 19.4271 42.028 19.3076 41.9249 19.2889C41.644 19.2378 41.3667 19.3329 41.1622 19.5302C41.0613 19.6276 40.988 19.7454 40.9373 19.8756C40.8858 20.0076 40.8804 20.1471 40.9004 20.2858C40.9067 20.3289 40.9507 20.3765 40.9862 20.3974C41.0262 20.4209 41.0853 20.4307 41.1302 20.416C41.1756 20.4014 41.2191 20.3734 41.2418 20.3302C41.2671 20.284 41.2684 20.24 41.2609 20.1876Z" fill="#CFBFB3"/>
<path d="M17.3179 26.9685C17.3339 26.9765 17.3499 26.9849 17.365 26.9942C17.3779 27.0022 17.4005 27.012 17.4094 27.024C17.4014 27.0178 17.3939 27.0116 17.3859 27.0058C17.3908 27.0093 17.3952 27.0133 17.3996 27.0169C17.4054 27.0218 17.4108 27.0267 17.4165 27.0316C17.4299 27.0436 17.4428 27.056 17.4548 27.0693C17.4659 27.0813 17.4756 27.0947 17.4868 27.1067C17.4445 27.0596 17.4836 27.104 17.4939 27.12C17.5134 27.1502 17.5299 27.1822 17.5445 27.2151C17.5383 27.2005 17.5321 27.1853 17.5259 27.1707C17.5481 27.2231 17.5632 27.2778 17.5712 27.3342C17.569 27.3178 17.5668 27.3013 17.5645 27.2845C17.5703 27.332 17.5712 27.3796 17.5659 27.4271C17.561 27.4716 17.5903 27.5289 17.6205 27.5591C17.653 27.5916 17.7059 27.616 17.7525 27.6138C17.801 27.6116 17.8508 27.5956 17.8845 27.5591C17.9201 27.5205 17.9334 27.4791 17.9392 27.4271C17.9739 27.1156 17.7868 26.7836 17.5063 26.6458C17.4188 26.6027 17.3001 26.6191 17.2508 26.7129C17.2063 26.7973 17.2241 26.9227 17.3179 26.9685Z" fill="#CFBFB3"/>
<path d="M19.6802 36.1218C19.6855 36.1146 19.6909 36.1071 19.6958 36.1C19.7091 36.0809 19.6709 36.1298 19.6864 36.1124C19.6971 36.1004 19.7069 36.0875 19.718 36.0755C19.7398 36.0515 19.7629 36.0293 19.7869 36.008C19.7922 36.0031 19.7975 35.9986 19.8033 35.9942C19.8086 35.9898 19.8344 35.9693 19.8095 35.9889C19.7864 36.0071 19.8069 35.9911 19.8122 35.9875C19.8193 35.9822 19.8269 35.9773 19.8344 35.972C19.8611 35.9542 19.8891 35.9373 19.9175 35.9226C19.9304 35.916 19.9433 35.9098 19.9562 35.9035C19.9602 35.9018 19.994 35.8866 19.9633 35.9C19.9358 35.912 19.9598 35.9018 19.966 35.8995C19.9962 35.888 20.0269 35.8782 20.058 35.8702C20.0735 35.8662 20.0891 35.8626 20.1051 35.8595C20.114 35.8578 20.1229 35.8564 20.1313 35.8546C20.138 35.8538 20.1646 35.8498 20.1331 35.8542C20.0989 35.8591 20.1353 35.8542 20.1402 35.8538C20.1473 35.8533 20.1544 35.8524 20.1615 35.852C20.1793 35.8506 20.1975 35.8502 20.2153 35.8502C20.3131 35.8498 20.4064 35.7644 20.402 35.6635C20.3975 35.5626 20.3198 35.4764 20.2153 35.4769C19.8713 35.4778 19.5535 35.6533 19.3575 35.9329C19.3011 36.0133 19.3402 36.144 19.4246 36.1884C19.5206 36.2391 19.6202 36.2071 19.6802 36.1218Z" fill="#CFBFB3"/>
<path d="M25.724 4.67511C25.7542 4.82089 25.7844 4.96711 25.8151 5.11289C25.8244 5.15689 25.8631 5.20223 25.9009 5.22445C25.9409 5.248 26 5.25778 26.0449 5.24311C26.0902 5.22845 26.1338 5.20045 26.1564 5.15734C26.1809 5.11111 26.1858 5.06445 26.1751 5.01334C26.1449 4.86756 26.1147 4.72134 26.084 4.57556C26.0747 4.53156 26.036 4.48623 25.9982 4.464C25.9582 4.44045 25.8991 4.43067 25.8542 4.44534C25.8089 4.46 25.7653 4.488 25.7427 4.53111C25.7187 4.57734 25.7133 4.624 25.724 4.67511Z" fill="#CFBFB3"/>
<path d="M33.2406 2.29868C33.3015 2.23423 33.365 2.17201 33.4317 2.11379C33.465 2.08445 33.4992 2.05645 33.5339 2.0289C33.5499 2.01601 33.5428 2.0209 33.5312 2.03112C33.5406 2.02312 33.5508 2.01601 33.561 2.0089C33.5788 1.99557 33.597 1.98268 33.6148 1.96979C33.7601 1.86801 33.9157 1.7809 34.0783 1.70979C34.1681 1.67023 34.1957 1.53201 34.1455 1.45423C34.0855 1.36134 33.9859 1.34534 33.8899 1.38712C33.5463 1.53779 33.2335 1.7609 32.9766 2.03423C32.9095 2.10534 32.9006 2.2289 32.9766 2.29823C33.049 2.36534 33.169 2.37468 33.2406 2.29868Z" fill="#CFBFB3"/>
<path d="M27.2352 17.6534C27.2481 17.6111 27.2628 17.5694 27.2788 17.5285C27.2805 17.524 27.2823 17.52 27.2841 17.5156C27.2894 17.5027 27.2877 17.5071 27.2788 17.528C27.2779 17.5227 27.2877 17.5076 27.2899 17.5027C27.2983 17.4836 27.3072 17.4645 27.3165 17.4458C27.3557 17.3667 27.401 17.2902 27.4517 17.2182C27.4637 17.2014 27.4748 17.1827 27.4885 17.1676C27.4797 17.1774 27.4712 17.1894 27.485 17.1725C27.4921 17.1636 27.4997 17.1542 27.5072 17.1454C27.5357 17.1116 27.565 17.0787 27.5957 17.0467C27.625 17.0165 27.6552 16.9876 27.6863 16.96C27.7037 16.9445 27.7214 16.9294 27.7397 16.9147C27.7445 16.9107 27.7552 16.8982 27.7614 16.8974C27.7437 16.9107 27.7405 16.9134 27.7512 16.9054C27.757 16.9014 27.7623 16.8969 27.7681 16.8929C27.8463 16.8347 27.8939 16.7285 27.8352 16.6374C27.7854 16.56 27.6637 16.508 27.5797 16.5702C27.2459 16.8178 26.9983 17.1569 26.8752 17.5547C26.8463 17.648 26.9094 17.7627 27.0059 17.7845C27.1068 17.8067 27.2041 17.7534 27.2352 17.6534Z" fill="#CFBFB3"/>
<path d="M3.28017 23.2675C3.28684 23.2818 3.2935 23.2955 3.29973 23.3098C3.2935 23.2951 3.28728 23.28 3.28106 23.2653C3.3135 23.3431 3.33573 23.424 3.34773 23.5071C3.3455 23.4907 3.34328 23.4742 3.34106 23.4573C3.35173 23.5378 3.35217 23.6187 3.34284 23.6991C3.3375 23.7435 3.36728 23.8013 3.3975 23.8311C3.42995 23.8635 3.48284 23.888 3.5295 23.8858C3.57795 23.8835 3.62773 23.8675 3.6615 23.8311C3.67128 23.8187 3.68106 23.8058 3.69084 23.7933C3.70773 23.764 3.71617 23.7329 3.71617 23.6991C3.7415 23.4862 3.69528 23.2711 3.60284 23.0791C3.58328 23.0387 3.53306 23.0049 3.49128 22.9933C3.44639 22.9809 3.38684 22.9867 3.34728 23.012C3.30728 23.0378 3.27217 23.076 3.2615 23.1235C3.2495 23.1751 3.25706 23.2204 3.28017 23.2675Z" fill="#CFBFB3"/>
<path d="M8.2888 14.232C8.2928 14.2218 8.2968 14.2116 8.30125 14.2013C8.30747 14.1858 8.3088 14.184 8.30169 14.2005C8.31147 14.1778 8.32125 14.1551 8.33191 14.1329C8.35147 14.0907 8.37191 14.0489 8.39325 14.0071C8.43591 13.9244 8.48258 13.8436 8.53325 13.7653C8.5568 13.7284 8.58125 13.692 8.60658 13.656C8.6208 13.636 8.63547 13.616 8.65013 13.596C8.6568 13.5871 8.66347 13.5787 8.66969 13.5698C8.68658 13.5467 8.65236 13.5911 8.67058 13.5685C8.73102 13.4938 8.7928 13.4209 8.85902 13.3511C8.92658 13.2804 8.93458 13.1564 8.85902 13.0871C8.78613 13.02 8.66658 13.0116 8.59502 13.0871C8.30658 13.3907 8.0848 13.744 7.92925 14.1325C7.8928 14.2236 7.9688 14.3413 8.05991 14.3622C8.16702 14.3871 8.24969 14.3298 8.2888 14.232Z" fill="#CFBFB3"/>
<path d="M22.9396 26.9476C22.9965 27.0942 23.0529 27.2414 23.1098 27.388C23.128 27.4347 23.1511 27.4734 23.1956 27.4996C23.2356 27.5231 23.2947 27.5329 23.3396 27.5182C23.3849 27.5036 23.4285 27.4756 23.4511 27.4325C23.4734 27.3907 23.4876 27.3347 23.4698 27.2885C23.4129 27.1418 23.3565 26.9947 23.2996 26.848C23.2814 26.8014 23.2582 26.7627 23.2138 26.7365C23.1738 26.7129 23.1147 26.7031 23.0698 26.7178C23.0245 26.7325 22.9809 26.7605 22.9582 26.8036C22.9365 26.8458 22.9218 26.9014 22.9396 26.9476Z" fill="#CFBFB3"/>
<path d="M36.6155 16.176C36.7311 16.0867 36.8471 15.9973 36.9626 15.908C36.9844 15.8965 37.0017 15.8805 37.0151 15.86C37.0315 15.8418 37.0426 15.8209 37.0484 15.7965C37.0608 15.7516 37.0551 15.692 37.0297 15.6525C37.0039 15.6125 36.9657 15.5773 36.9182 15.5667C36.8728 15.5565 36.8128 15.5556 36.7742 15.5853C36.6586 15.6747 36.5426 15.764 36.4271 15.8533C36.4053 15.8649 36.3879 15.8809 36.3746 15.9013C36.3582 15.9196 36.3471 15.9405 36.3413 15.9649C36.3288 16.0098 36.3346 16.0693 36.3599 16.1089C36.3857 16.1489 36.4239 16.184 36.4715 16.1947C36.5168 16.2049 36.5768 16.2058 36.6155 16.176Z" fill="#CFBFB3"/>
<path d="M41.0487 8.61603C41.2798 8.35025 41.5105 8.08447 41.7416 7.81914C41.8056 7.74536 41.8194 7.62625 41.7416 7.55514C41.6714 7.4907 41.5461 7.47647 41.4776 7.55514C41.2465 7.82092 41.0158 8.0867 40.7847 8.35203C40.7207 8.42581 40.707 8.54492 40.7847 8.61603C40.855 8.68047 40.9803 8.6947 41.0487 8.61603Z" fill="#CFBFB3"/>
<path d="M-1.53105 38.9573C-2.56128 38.948 -3.61461 38.9418 -4.5915 39.2351C-5.92705 39.636 -6.98439 40.5551 -7.90616 41.5107C-9.29994 42.9551 -10.4995 44.5502 -11.4711 46.2507C-11.8471 46.9085 -12.1728 47.7538 -11.6679 48.3378C-11.2199 48.8565 32.3174 48.6698 53.417 48.7302C54.2312 48.7325 55.0725 48.7307 55.8187 48.4382C56.5645 48.1458 57.1934 47.4791 57.1192 46.7516C57.0716 46.2845 56.7538 45.8787 56.4312 45.5098C54.6752 43.5022 52.6792 40.5507 50.4854 38.9267C49.7187 38.3591 48.9201 37.7765 47.9596 37.548C47.2912 37.3893 46.5881 37.4133 45.8974 37.4387C42.7192 37.5551 2.77917 38.9965 -1.53105 38.9573Z" fill="#6C5B50"/>
<path d="M24.4591 25.4907C25.7463 25.528 27.0156 25.7853 28.2774 26.0418C29.0036 26.1893 29.768 26.3556 30.3169 26.8538C30.3969 26.9262 30.4743 27.0111 30.4965 27.1169C30.5156 27.208 30.4907 27.3013 30.4658 27.3911C29.1783 32.048 27.4943 36.5951 25.4378 40.9671C24.8467 40.4862 24.0756 40.3009 23.3311 40.1373C21.3018 39.6916 19.2583 39.308 17.2054 38.988C17.0805 38.9684 16.9454 38.944 16.86 38.8511C16.7231 38.7022 16.7827 38.4662 16.8498 38.2756C17.0445 37.7231 17.2391 37.1702 17.4338 36.6178C17.8129 35.5422 18.1929 34.464 18.684 33.4347C19.9338 30.8151 21.8623 28.5902 23.7671 26.4004L24.4591 25.4907Z" fill="#785D53"/>
<path d="M31.2274 30.0924C32.5567 29.2346 33.9696 28.5062 35.4394 27.92C35.6562 28.7884 35.862 29.66 36.0558 30.5338C36.2585 31.4462 36.4491 32.3746 36.3887 33.3075C36.3416 34.0302 36.1447 34.7346 36.0625 35.4542C35.9238 36.664 36.1109 37.8978 35.9202 39.1004C35.7296 40.3031 35.0074 41.5591 33.8167 41.8138C32.7256 42.0475 31.602 41.328 31.0425 40.3626C30.4829 39.3973 30.3745 38.24 30.3482 37.1244C30.2914 34.7053 30.5616 32.2786 31.15 29.9315L31.2274 30.0924Z" fill="#5D463B"/>
<path d="M28.7288 28.5391C27.8376 32.8422 26.4763 37.0475 24.6768 41.0564C26.0732 41.572 27.5981 41.7355 29.0723 41.5284C29.1416 40.4635 29.2114 39.3991 29.2808 38.3342C29.5368 39.0013 29.8003 39.6755 30.2199 40.2538C30.6399 40.832 31.2399 41.3129 31.9434 41.4382C32.2096 41.4858 32.4896 41.4804 32.7439 41.3871C33.0936 41.2586 33.3652 40.9751 33.5781 40.6693C34.519 39.3191 34.4914 37.5431 34.4274 35.8982C34.3545 34.0155 34.2812 32.1333 34.2083 30.2506C34.195 29.9044 34.179 29.5475 34.0332 29.2333C33.8599 28.8591 33.5239 28.5893 33.1923 28.344C32.4079 27.7631 31.5834 27.2369 30.7261 26.7702C30.5154 26.6555 30.2919 26.5418 30.0523 26.544C29.4661 26.5498 29.1292 27.1964 28.9239 27.7458L28.7288 28.5391Z" fill="#5D463B"/>
<path d="M20.5231 37.2986C20.3226 38.4422 20.3017 39.6173 20.4617 40.7675C21.7688 40.7889 23.0791 40.6311 24.3435 40.3C24.4306 40.2773 24.5239 40.2538 24.6093 40.2831C24.6973 40.3138 24.7564 40.3942 24.8124 40.4689C25.3346 41.1622 26.0688 41.6933 26.8906 41.9724C27.6608 42.2342 28.528 42.292 29.1755 42.7849C29.4906 43.0249 31.4 44.1911 31.7057 43.9391C31.9462 43.7413 29.9084 42.5031 29.9395 42.4782C30.384 42.9622 32.1764 43.8551 32.8288 43.7764C32.6724 43.4293 31.0946 42.4044 30.7728 42.2009L32.8377 43.5742C32.9555 43.6364 33.1075 43.6089 33.1813 43.4982C33.26 43.3804 33.1862 43.2684 33.1133 43.1778C32.8915 42.9018 31.8013 41.9062 31.5151 41.6973C31.8239 41.9742 32.9826 42.9791 33.3253 43.2124C33.4257 43.2809 33.6008 43.3244 33.6355 43.208C33.6488 43.164 33.6297 43.1173 33.6106 43.0751C33.0888 41.9235 31.3733 40.1906 30.2848 39.5475C29.2888 38.9591 28.1439 38.6578 27.1515 38.0635C26.9022 37.9142 26.6599 37.7453 26.3844 37.6546C26.0968 37.56 25.7884 37.5551 25.4857 37.5511C24.4133 37.5373 23.3408 37.5235 22.2688 37.5098L20.5231 37.2986Z" fill="#F9DACE"/>
<path d="M24.2619 26.9191C22.9654 29.9733 21.537 32.9716 19.981 35.9018C21.1156 36.092 22.2503 36.2827 23.385 36.4729C23.281 37.9276 23.1005 39.3769 22.8441 40.8129C18.9823 41.0036 15.0623 41.1644 11.2961 40.2902C10.5885 40.1262 9.84053 39.8942 9.39164 39.3231C9.17875 39.0524 9.05075 38.7231 8.97609 38.3867C8.6992 37.1369 9.14275 35.8391 9.72809 34.7009C11.2925 31.6591 13.8494 29.2667 16.3565 26.9391C17.2868 26.0756 18.2921 25.1733 19.5428 24.9573C20.0414 24.8711 20.5521 24.9009 21.0565 24.94C22.3845 25.0431 23.7076 25.2102 25.0196 25.4409L24.2619 26.9191Z" fill="#5D463B"/>
<path d="M27.48 19.5595L26.9267 19.9026C26.4427 20.6151 25.9591 21.3271 25.4751 22.0395C25.5414 21.684 25.0778 21.4164 24.7338 21.5271C24.3894 21.6377 24.1707 21.9693 23.9987 22.2875C23.7858 22.6804 23.596 23.1151 23.6485 23.5591C23.7009 24.0026 24.0849 24.4346 24.5289 24.3848C24.2062 25.2075 23.8782 26.056 23.8854 26.9395C23.8925 27.8235 24.4978 28.9475 25.3058 29.3057C26.064 29.6422 26.9502 29.3991 27.7062 29.0582C28.3787 28.7551 28.8329 28.1928 29.4218 27.7493C29.4142 28.1377 29.8102 28.4435 30.1987 28.4586C30.5871 28.4742 30.9511 28.2724 31.26 28.0368C31.5649 27.8044 31.8582 27.4911 31.8702 27.108C31.8822 26.7248 31.4449 26.3457 31.1174 26.5444C32.0142 25.4413 32.8369 24.2782 33.5787 23.0648C32.2587 21.1106 30.0298 19.7995 27.6805 19.5946L27.48 19.5595Z" fill="#F9DACE"/>
<path d="M21.6273 36.316C21.322 37.6964 21.2126 39.1169 21.3055 40.528C21.3144 40.6658 21.53 40.6667 21.5211 40.528C21.4291 39.136 21.534 37.7355 21.8353 36.3733C21.8646 36.2382 21.6571 36.1809 21.6273 36.316Z" fill="#4E372E"/>
<path d="M21.8327 39.776C21.8078 39.9355 21.8674 40.096 21.9963 40.1955C22.1185 40.2902 22.2896 40.3093 22.4207 40.2186C22.5474 40.1306 22.6243 39.9786 22.5918 39.824C22.562 39.6813 22.4327 39.5982 22.2958 39.584C22.1478 39.5684 22.0003 39.6511 21.9523 39.7942C21.934 39.8475 21.9731 39.9142 22.0274 39.9266C22.0869 39.9404 22.1407 39.9084 22.1598 39.8515C22.1643 39.8386 22.1714 39.8377 22.1571 39.8564C22.1598 39.8528 22.1611 39.848 22.1634 39.8444C22.1656 39.8404 22.1683 39.8368 22.1705 39.8328C22.1807 39.816 22.1518 39.8511 22.1669 39.8377C22.1736 39.832 22.1798 39.8253 22.186 39.8191C22.1971 39.808 22.1785 39.8253 22.1767 39.8262C22.1829 39.824 22.1891 39.8177 22.1949 39.8146C22.2145 39.8044 22.2256 39.8053 22.1985 39.8115C22.2074 39.8093 22.2158 39.8053 22.2247 39.8031C22.2336 39.8008 22.2429 39.8 22.2518 39.7973C22.2225 39.8057 22.2349 39.7995 22.2456 39.7986C22.2514 39.7982 22.2567 39.7982 22.2625 39.7977C22.2718 39.7977 22.2811 39.7982 22.2905 39.7986C22.3118 39.7995 22.2629 39.7933 22.2843 39.7977C22.2887 39.7986 22.2936 39.7995 22.298 39.8004C22.3069 39.8026 22.3158 39.8053 22.3247 39.808C22.3336 39.8106 22.3425 39.8182 22.3171 39.804C22.3229 39.8071 22.3287 39.8093 22.3345 39.8124C22.3434 39.8173 22.3509 39.8244 22.3598 39.8284C22.3585 39.828 22.3394 39.8106 22.3509 39.8217C22.3549 39.8257 22.3589 39.8293 22.3629 39.8328C22.3847 39.856 22.3563 39.8186 22.3669 39.8368C22.3691 39.8408 22.3718 39.8448 22.374 39.8488C22.3829 39.8666 22.382 39.8644 22.3754 39.8488C22.374 39.852 22.3834 39.8764 22.3847 39.8804C22.3909 39.9026 22.3838 39.8542 22.3847 39.8773C22.3847 39.8817 22.3851 39.8857 22.3856 39.8902C22.386 39.9004 22.3825 39.9128 22.3843 39.9226C22.3807 39.9008 22.3869 39.9057 22.3838 39.92C22.3825 39.9262 22.3807 39.9328 22.3789 39.9391C22.378 39.9422 22.3714 39.9551 22.3723 39.9577C22.3691 39.9488 22.3825 39.9368 22.374 39.9533C22.3683 39.9644 22.3629 39.9751 22.3558 39.9853C22.3536 39.9893 22.3509 39.9928 22.3483 39.9964C22.3354 40.0164 22.3647 39.9786 22.3487 39.996C22.3394 40.0057 22.3305 40.016 22.3207 40.0248C22.3211 40.0244 22.3105 40.0333 22.3105 40.0337C22.3096 40.0293 22.3309 40.0195 22.3109 40.0328C22.3016 40.0391 22.2923 40.0448 22.282 40.0497C22.2656 40.0573 22.2678 40.0564 22.2834 40.0497C22.2825 40.0493 22.2709 40.0542 22.2709 40.0542C22.2647 40.0564 22.258 40.0582 22.2518 40.0595C22.2336 40.0631 22.2376 40.0626 22.254 40.0604C22.2451 40.0577 22.2296 40.0622 22.2198 40.0617C22.2007 40.0604 22.2029 40.0608 22.2198 40.0626C22.2194 40.0617 22.2043 40.0595 22.2025 40.0591C22.1909 40.0564 22.1798 40.0511 22.1687 40.0488C22.1545 40.0462 22.1918 40.0608 22.1718 40.0502C22.1647 40.0462 22.1571 40.0426 22.15 40.0386C22.1451 40.0355 22.1398 40.0324 22.1349 40.0293C22.1309 40.0266 22.1269 40.024 22.1234 40.0208C22.1349 40.0297 22.1371 40.0315 22.1314 40.0266C22.1207 40.0168 22.11 40.0075 22.1003 39.9968C22.0963 39.9924 22.0923 39.988 22.0883 39.9831C22.074 39.9671 22.1011 40.0013 22.0856 39.9786C22.0776 39.9666 22.07 39.9542 22.0634 39.9413C22.0616 39.9377 22.0549 39.9284 22.0554 39.9248C22.0616 39.9395 22.0625 39.9413 22.058 39.9306C22.05 39.9066 22.046 39.8928 22.0434 39.8786C22.0389 39.856 22.0447 39.8822 22.0434 39.8822C22.0434 39.8822 22.0416 39.8591 22.0416 39.8568C22.0416 39.8506 22.0416 39.8448 22.0416 39.8386C22.042 39.8315 22.0465 39.7986 22.0416 39.8315C22.0505 39.776 22.0274 39.7128 21.9665 39.6991C21.9136 39.6893 21.842 39.7164 21.8327 39.776Z" fill="#4E372E"/>
<path d="M32.0432 29.5306C31.7698 30.6897 31.4969 31.8488 31.2236 33.0084C31.0889 33.58 30.9605 34.1528 30.8187 34.7226C30.7529 34.9866 30.6783 35.2511 30.5596 35.4968C30.4583 35.7062 30.3285 35.9 30.2009 36.0937C29.9285 36.5062 29.6378 36.9546 29.6823 37.4715C29.6943 37.6084 29.9098 37.6097 29.8978 37.4715C29.8583 37.012 30.1143 36.6168 30.3565 36.2493C30.4836 36.0564 30.6138 35.8648 30.7196 35.6591C30.8369 35.4302 30.9196 35.1857 30.9863 34.9382C31.1378 34.3768 31.2578 33.8057 31.3912 33.24C31.5249 32.672 31.6587 32.104 31.7929 31.536C31.9458 30.8866 32.0987 30.2377 32.252 29.5884C32.2827 29.4533 32.0752 29.3955 32.0432 29.5306Z" fill="#4E372E"/>
<path d="M29.7902 36.364C29.9858 36.2026 30.2093 36.0546 30.4409 35.932C30.4907 35.9053 30.5102 35.832 30.4796 35.7844C30.4467 35.7338 30.3853 35.7173 30.332 35.7458C30.0849 35.8769 29.8533 36.0337 29.6378 36.2115C29.5942 36.2475 29.5978 36.3271 29.6378 36.364C29.6845 36.4066 29.7436 36.4022 29.7902 36.364Z" fill="#4E372E"/>
<path d="M31.7047 31.9618C32.8251 32.4111 34.0838 32.4924 35.2562 32.2076C35.5865 32.1276 35.9073 32.016 36.2185 31.8796C36.3451 31.824 36.2358 31.6382 36.1096 31.6933C35.0491 32.1587 33.8407 32.2773 32.7082 32.0409C32.3847 31.9733 32.0682 31.8769 31.762 31.7538C31.6331 31.7022 31.5776 31.9107 31.7047 31.9618Z" fill="#4E372E"/>
<path d="M34.9863 30.8924C34.9663 31.0564 35.0645 31.2258 35.2059 31.3062C35.3601 31.3942 35.5539 31.3627 35.6699 31.2267C35.7832 31.0933 35.8072 30.9044 35.7036 30.7573C35.6036 30.6151 35.4299 30.5391 35.2579 30.5778C35.0827 30.6173 34.9352 30.7796 34.9116 30.9569C34.9041 31.0124 34.925 31.0751 34.9867 31.0893C35.0374 31.1009 35.1112 31.0738 35.1192 31.0142C35.1227 30.9871 35.1299 30.9613 35.1387 30.9356C35.1481 30.9089 35.1316 30.9467 35.1405 30.9324C35.1436 30.9271 35.1459 30.9218 35.149 30.9164C35.157 30.9018 35.1659 30.888 35.1756 30.8742C35.1632 30.892 35.1823 30.8667 35.1876 30.8613C35.1979 30.8502 35.209 30.8404 35.2205 30.8302C35.2245 30.8267 35.2365 30.8196 35.2201 30.8307C35.225 30.8276 35.2299 30.824 35.2347 30.8204C35.2485 30.8116 35.2632 30.8044 35.2779 30.7969C35.2925 30.7893 35.2543 30.8036 35.281 30.796C35.2867 30.7942 35.2921 30.792 35.2979 30.7907C35.3094 30.7876 35.321 30.7849 35.333 30.7827C35.3094 30.7867 35.3294 30.7836 35.3356 30.7831C35.3432 30.7827 35.3507 30.7827 35.3583 30.7827C35.3641 30.7827 35.3703 30.7836 35.3761 30.7836C35.3521 30.7836 35.3765 30.7836 35.3832 30.7849C35.3965 30.7876 35.4094 30.7916 35.4223 30.796C35.4281 30.7982 35.4454 30.8067 35.4259 30.7969C35.4312 30.7996 35.4365 30.8022 35.4419 30.8049C35.4525 30.8107 35.4623 30.8173 35.473 30.8236C35.497 30.8378 35.4641 30.8147 35.4765 30.8258C35.4832 30.832 35.4903 30.8373 35.4965 30.844C35.5063 30.8533 35.5152 30.8636 35.5236 30.8738C35.509 30.856 35.5312 30.8867 35.5343 30.8924C35.5379 30.8991 35.5414 30.9058 35.5445 30.912C35.5427 30.9084 35.5374 30.892 35.5441 30.9111C35.549 30.9253 35.5525 30.9396 35.5556 30.9542C35.5507 30.9311 35.5552 30.9498 35.5556 30.9569C35.5561 30.9631 35.5561 30.9689 35.5561 30.9751C35.5561 30.9827 35.5556 30.9902 35.5547 30.9973C35.5552 30.9929 35.5592 30.976 35.5543 30.9951C35.5507 31.008 35.5467 31.0209 35.5427 31.0338C35.5379 31.0493 35.5552 31.0133 35.541 31.0369C35.5365 31.0444 35.5325 31.0529 35.5276 31.0604C35.5245 31.0653 35.521 31.0702 35.5174 31.0756C35.5276 31.0591 35.5214 31.0711 35.5174 31.0751C35.5072 31.0862 35.4965 31.0964 35.4859 31.1071C35.4823 31.1107 35.4699 31.1182 35.4867 31.1071C35.4819 31.1107 35.477 31.1138 35.4721 31.1173C35.4672 31.1204 35.4619 31.1236 35.457 31.1262C35.449 31.1307 35.433 31.1373 35.4507 31.1307C35.437 31.136 35.4227 31.1396 35.4085 31.1431C35.4019 31.1449 35.3903 31.1431 35.4107 31.1431C35.405 31.1431 35.3987 31.144 35.393 31.144C35.3925 31.144 35.3632 31.1436 35.3805 31.1444C35.397 31.1453 35.3694 31.1422 35.3681 31.1418C35.3623 31.1404 35.3565 31.1387 35.3507 31.1369C35.3476 31.136 35.3201 31.1253 35.3427 31.1351C35.329 31.1293 35.3156 31.1222 35.3032 31.1142C35.2983 31.1111 35.2934 31.1076 35.2881 31.1044C35.2681 31.0911 35.297 31.1147 35.2819 31.0991C35.2703 31.0876 35.2587 31.0751 35.2472 31.0636C35.2352 31.0516 35.2596 31.084 35.2445 31.0604C35.2396 31.0529 35.2343 31.0453 35.2299 31.0378C35.2267 31.0324 35.2241 31.0271 35.221 31.0222C35.2192 31.0187 35.2085 30.9924 35.217 31.0151C35.2121 31.0009 35.2072 30.9871 35.2036 30.9724C35.2023 30.9667 35.2014 30.9609 35.2001 30.9551C35.2054 30.98 35.2001 30.9547 35.1996 30.948C35.1987 30.9298 35.1996 30.912 35.2019 30.8942C35.2085 30.8382 35.1476 30.784 35.0943 30.7867C35.0299 30.788 34.9934 30.8324 34.9863 30.8924Z" fill="#4E372E"/>
<path d="M20.2299 35.8515C19.0992 35.6213 17.9686 35.3911 16.8379 35.1604C15.7984 34.9484 14.7419 34.7369 13.6757 34.76C13.0837 34.7724 12.4921 34.8626 11.933 35.0618C11.8032 35.108 11.8592 35.3164 11.9904 35.2693C12.9828 34.9151 14.049 34.9266 15.0815 35.064C16.1575 35.2071 17.221 35.4582 18.2837 35.6746C18.913 35.8026 19.5424 35.9311 20.1721 36.0591C20.3081 36.0866 20.3659 35.8791 20.2299 35.8515Z" fill="#4E372E"/>
<path d="M12.3023 34.5969C12.6 34.6591 12.8978 34.7213 13.1956 34.7836C13.2525 34.7956 13.312 34.7667 13.328 34.7084C13.3427 34.6551 13.3098 34.588 13.2529 34.576C12.9551 34.5138 12.6574 34.4516 12.3596 34.3893C12.3027 34.3773 12.2431 34.4062 12.2271 34.4644C12.2125 34.5178 12.2449 34.5849 12.3023 34.5969Z" fill="#4E372E"/>
<path d="M19.3342 25.3178C19.5671 25.9115 19.4982 26.5507 19.3916 27.1644C19.3369 27.4795 19.272 27.7929 19.2271 28.1098C19.1805 28.4373 19.1614 28.7666 19.1511 29.0973C19.1311 29.7671 19.1196 30.4293 18.9378 31.0795C18.7667 31.6911 18.4951 32.2675 18.212 32.8342C17.8676 33.5244 17.5174 34.212 17.1698 34.9004C17.1076 35.024 17.2934 35.1333 17.356 35.0093C17.6742 34.3791 17.9925 33.7493 18.3102 33.1186C18.5987 32.5458 18.8836 31.9666 19.08 31.3546C19.2876 30.7084 19.3418 30.0502 19.3591 29.3751C19.368 29.0333 19.3751 28.6911 19.412 28.3511C19.4471 28.0262 19.5116 27.7053 19.5702 27.384C19.6978 26.6835 19.8094 25.9427 19.5418 25.2595C19.492 25.1329 19.2836 25.1884 19.3342 25.3178Z" fill="#4E372E"/>
<path d="M23.6305 25.6449C23.1283 26.1773 22.6403 26.7226 22.1674 27.2809C21.9309 27.56 21.698 27.8422 21.4696 28.128C21.358 28.2671 21.2465 28.4058 21.138 28.5475C21.0443 28.6702 20.9563 28.8049 20.9291 28.9595C20.8816 29.2293 21.006 29.4675 21.1811 29.6644C21.2736 29.7689 21.3785 29.8613 21.4843 29.952C21.5874 30.0404 21.7163 30.1262 21.7923 30.2404C21.9731 30.512 21.5509 30.8244 21.3896 30.9938C21.1607 31.2346 20.9438 31.4875 20.7398 31.7502C20.2816 32.3413 19.8896 32.9804 19.5727 33.6578C19.5145 33.7826 19.6998 33.892 19.7589 33.7666C20.0385 33.1684 20.3763 32.5986 20.7683 32.0675C20.9634 31.8031 21.1723 31.5493 21.3936 31.3062C21.5051 31.1835 21.6207 31.0653 21.7367 30.9471C21.846 30.8355 21.9527 30.7142 22.0118 30.568C22.0665 30.4324 22.0647 30.284 21.9927 30.1551C21.9229 30.0306 21.8029 29.9418 21.6963 29.8511C21.5029 29.6866 21.2714 29.5093 21.1709 29.268C21.0411 28.9555 21.2914 28.6969 21.4723 28.4684C21.6958 28.1862 21.9234 27.9066 22.154 27.6306C22.6785 27.0035 23.2216 26.3924 23.7825 25.7978C23.878 25.696 23.7256 25.5435 23.6305 25.6449Z" fill="#4E372E"/>
<path d="M30.8924 19.0409C30.6186 19.3733 30.7404 19.82 30.816 20.2022C30.9151 20.7049 31.0142 21.2071 31.1133 21.7098C31.2124 22.2124 31.3115 22.7147 31.4106 23.2173C31.5035 23.6884 31.5866 24.1578 31.7844 24.5982C31.9942 25.0649 32.2875 25.4929 32.4391 25.9849C32.4795 26.1169 32.6875 26.0609 32.6466 25.9276C32.5177 25.508 32.2915 25.1316 32.0929 24.7427C31.9937 24.5489 31.9035 24.3511 31.8386 24.1427C31.7702 23.9236 31.7244 23.6978 31.68 23.4729C31.488 22.5036 31.2973 21.5342 31.1062 20.5653C31.056 20.3107 30.9986 20.0564 30.9573 19.8004C30.9253 19.6013 30.9071 19.3591 31.0444 19.1929C31.132 19.0867 30.9804 18.9338 30.8924 19.0409Z" fill="#6D341B"/>
<path d="M24.5318 22.288C24.5656 22.7196 24.5456 23.1533 24.4669 23.5791C24.442 23.7147 24.6496 23.7729 24.6745 23.6365C24.7567 23.1916 24.7825 22.7391 24.7469 22.288C24.7367 22.1507 24.5211 22.1493 24.5318 22.288Z" fill="#E1C0B5"/>
<path d="M24.2641 22.8946C24.261 22.8924 24.2539 22.8866 24.2463 22.8809C24.2894 22.9142 24.3281 22.9529 24.3619 22.996C24.3561 22.9889 24.3508 22.9813 24.345 22.9742C24.3792 23.0191 24.4076 23.0675 24.4299 23.1195C24.4263 23.1111 24.4228 23.1022 24.4192 23.0937C24.4285 23.1164 24.437 23.1395 24.4436 23.1635C24.4592 23.2177 24.5201 23.2569 24.5761 23.2386C24.6308 23.2209 24.6681 23.164 24.6512 23.1062C24.6294 23.0311 24.5961 22.9577 24.5512 22.8933C24.501 22.8209 24.4423 22.7617 24.3725 22.7089C24.3516 22.6933 24.3134 22.6915 24.2894 22.6982C24.2645 22.7049 24.2374 22.7244 24.225 22.7475C24.2116 22.7724 24.205 22.8026 24.2143 22.8306C24.2236 22.8586 24.2405 22.8769 24.2641 22.8946Z" fill="#E1C0B5"/>
<path d="M30.4488 27.6337C30.7177 27.5475 30.9866 27.4608 31.2555 27.3746C31.311 27.3568 31.3466 27.3 31.3306 27.2422C31.3155 27.188 31.2537 27.1488 31.1981 27.1671C30.9292 27.2533 30.6604 27.34 30.3915 27.4262C30.3359 27.444 30.3004 27.5008 30.3164 27.5586C30.331 27.6128 30.3928 27.6515 30.4488 27.6337Z" fill="#E1C0B5"/>
<path d="M30.6716 27.556C30.7343 27.6658 30.7969 27.7751 30.8601 27.8849C30.8881 27.9338 30.9587 27.9546 31.0076 27.9235C31.0569 27.8915 31.0761 27.8284 31.0463 27.776C30.9836 27.6662 30.9209 27.5569 30.8578 27.4471C30.8298 27.3982 30.7592 27.3773 30.7103 27.4084C30.6609 27.4404 30.6414 27.5035 30.6716 27.556Z" fill="#E1C0B5"/>
<path d="M29.1091 41.8805C29.9508 42.3049 30.7322 42.8409 31.4295 43.476C31.5317 43.5693 31.6846 43.4173 31.582 43.3236C30.8717 42.6765 30.0757 42.1267 29.218 41.6942C29.0944 41.6325 28.9855 41.8182 29.1091 41.8805Z" fill="#E1C0B5"/>
<path d="M30.4636 41.8022C30.8636 42.0293 31.2161 42.3235 31.5609 42.6253C31.9316 42.9502 32.3009 43.2764 32.6712 43.6022C32.7747 43.6933 32.9281 43.5417 32.8236 43.4497C32.4454 43.1168 32.0681 42.7831 31.6889 42.4515C31.3387 42.1453 30.9783 41.8466 30.5725 41.6164C30.4516 41.548 30.3432 41.7337 30.4636 41.8022Z" fill="#E1C0B5"/>
<path d="M31.1922 41.3636C31.8504 41.9431 32.5091 42.5227 33.1673 43.1022C33.2709 43.1933 33.4242 43.0418 33.3198 42.9498C32.6615 42.3702 32.0029 41.7907 31.3446 41.2111C31.2406 41.12 31.0878 41.272 31.1922 41.3636Z" fill="#E1C0B5"/>
<path d="M29.0192 41.8893C29.9739 41.8031 30.9032 41.5408 31.7615 41.1142C31.8855 41.0524 31.7766 40.8666 31.6526 40.928C30.8303 41.3368 29.9335 41.5911 29.0188 41.6737C28.8823 41.6862 28.881 41.9017 29.0192 41.8893Z" fill="#E1C0B5"/>
<path d="M24.6478 39.1169C24.6727 39.3987 24.682 39.6818 24.6749 39.9644C24.6714 40.1031 24.8869 40.1031 24.8905 39.9644C24.8976 39.6818 24.8887 39.3987 24.8634 39.1169C24.858 39.0591 24.8176 39.0093 24.7558 39.0093C24.7011 39.0093 24.6425 39.0587 24.6478 39.1169Z" fill="#E1C0B5"/>
<path d="M28.3212 24.4969C27.8345 25.2462 27.3528 25.9987 26.8754 26.7542C26.9412 26.7627 27.0065 26.7716 27.0723 26.78C26.9514 26.4756 26.8745 26.1569 26.8488 25.8298C26.8381 25.6924 26.6225 25.6911 26.6332 25.8298C26.6608 26.176 26.7363 26.5138 26.8643 26.8369C26.8981 26.9218 27.0083 26.9462 27.0612 26.8627C27.5385 26.1071 28.0203 25.3547 28.5065 24.6053C28.583 24.4889 28.3968 24.3809 28.3212 24.4969Z" fill="#332418"/>
<path d="M25.6675 23.7702C25.7337 24.344 26.3599 24.7724 26.9195 24.5929C27.051 24.5507 26.9946 24.3427 26.8622 24.3853C26.4488 24.5178 25.9342 24.212 25.883 23.7702C25.8764 23.7124 25.8382 23.6627 25.7755 23.6627C25.7222 23.6627 25.6608 23.712 25.6675 23.7702Z" fill="#332418"/>
<path d="M28.7866 25.6173C28.8529 26.1911 29.4791 26.6195 30.0386 26.44C30.1702 26.3978 30.1137 26.1898 29.9813 26.2324C29.568 26.3649 29.0533 26.0591 29.0022 25.6173C28.9955 25.5595 28.9573 25.5098 28.8946 25.5098C28.8413 25.5098 28.78 25.5591 28.7866 25.6173Z" fill="#332418"/>
<path d="M25.9973 26.5595C26.2217 26.7857 26.376 27.0702 26.4462 27.3808C26.4591 27.4377 26.5244 27.4711 26.5786 27.456C26.6369 27.44 26.6666 27.3804 26.6537 27.3235C26.576 26.9782 26.3986 26.6582 26.1493 26.4071C26.052 26.3084 25.8995 26.4608 25.9973 26.5595Z" fill="#332418"/>
<path d="M28.0445 22.8404C28.0894 23.0026 27.956 23.1742 27.7943 23.2208C27.6325 23.2675 27.4578 23.2177 27.3063 23.1444C27.1547 23.0706 27.0152 22.9724 26.8574 22.9133C26.6369 22.8302 26.3907 22.8262 26.1787 22.724C26.3934 22.4266 26.7654 22.2502 27.1312 22.2715C27.4974 22.2928 27.8458 22.5115 28.0245 22.832L28.0445 22.8404Z" fill="#332418"/>
<path d="M29.8437 24.0818C29.6766 24.1022 29.569 24.2911 29.5881 24.4587C29.6068 24.6262 29.7197 24.7685 29.8455 24.88C29.9717 24.9916 30.1157 25.0836 30.2308 25.2062C30.3917 25.3778 30.4899 25.604 30.665 25.7609C30.8575 25.4489 30.8784 25.0378 30.7188 24.7076C30.5588 24.3773 30.2237 24.1391 29.8592 24.0965L29.8437 24.0818Z" fill="#332418"/>
<path d="M25.6625 21.7106C25.3172 22.1942 25.0585 22.7391 24.9025 23.3124C25.3554 23.372 25.6425 22.8582 25.8274 22.4404C26.2501 21.4862 26.8278 20.6004 27.5305 19.8288C27.3745 20.3128 27.3709 20.8448 27.5203 21.3311C27.5514 21.4324 27.5954 21.5395 27.6874 21.5924C27.8216 21.6697 27.9905 21.5968 28.1212 21.5137C28.5652 21.2315 28.9274 20.8226 29.1541 20.3484C29.0043 20.8275 29.0216 21.3568 29.2021 21.8253C29.2563 21.9662 29.3327 22.1097 29.4652 22.1813C29.6456 22.2786 29.8803 22.208 30.0309 22.0688C30.1816 21.9297 30.2678 21.736 30.3501 21.5475C30.3132 21.8706 30.1749 22.1733 30.1141 22.4928C30.0532 22.8124 30.0887 23.1844 30.3345 23.3973C30.5803 23.6102 31.0629 23.5102 31.1012 23.1871C30.8958 23.3684 30.8447 23.7008 30.9856 23.9355C31.1265 24.1702 31.4438 24.2813 31.7003 24.1853C31.6994 25.1817 31.2238 26.1671 30.4447 26.788C30.5607 26.9084 30.7612 26.88 30.9141 26.8124C31.0669 26.7448 31.2167 26.6457 31.3838 26.652C31.5509 26.6582 31.7172 26.8471 31.6243 26.9862C32.4763 26.244 32.9012 25.1377 33.2945 24.0786C33.4749 23.5933 33.6567 23.0986 33.6869 22.5817C33.7167 22.0648 33.5723 21.5124 33.1883 21.1648C32.9443 20.944 32.6207 20.8186 32.3998 20.5742C32.1185 20.2626 32.0505 19.8111 31.8114 19.4662C31.3203 18.7577 30.3194 18.7111 29.4856 18.4915C28.6505 18.2715 27.7598 17.8164 26.9767 18.1804C26.4776 18.4124 26.1767 18.9204 25.9065 19.4C25.4834 20.1502 25.0603 20.9008 24.6367 21.6511C24.9456 21.5697 25.2998 21.7102 25.4692 21.9813L25.6625 21.7106Z" fill="#332418"/>
<path d="M32.3069 29.4666C32.354 28.5058 32.4011 27.5449 32.4483 26.584C32.4576 26.3969 32.4665 26.2071 32.4265 26.024C32.3807 25.8146 32.2736 25.6249 32.1785 25.4329C31.6905 24.4471 31.506 23.3426 31.3278 22.2573C31.1634 21.2578 30.9994 20.2586 30.8349 19.2591C30.8171 19.1515 30.8829 19.0426 30.9896 19.0204C31.1078 18.996 31.1714 19.0978 31.218 19.1875C31.6069 19.9382 31.9971 20.7644 32.2971 21.5546C32.1131 20.8182 32.2643 17.9502 32.4549 17.3244C32.4967 17.188 32.666 17.1355 32.7727 17.2306C32.8936 17.34 33.0763 17.2858 33.1078 17.1351C33.1451 16.9573 33.21 16.7853 33.3007 16.628C33.3767 16.496 33.5683 16.4929 33.6434 16.6258C33.8674 17.0226 34.0118 17.4649 34.0638 17.9178C34.0585 17.8142 34.062 17.7098 34.0745 17.6066C34.0958 17.4289 34.3323 17.372 34.4314 17.5209C34.606 17.7831 34.6905 18.116 34.7465 18.4329C35.0038 19.8924 34.918 21.4218 35.4154 22.8178C35.7443 22.6395 35.7145 22.1689 35.6727 21.7973C35.6314 21.4253 35.722 20.9275 36.0936 20.8826C36.2789 21.4146 36.4651 21.9533 36.5185 22.5142C36.5718 23.0751 36.4789 23.6698 36.1487 24.1262C35.8896 24.4844 35.49 24.7564 35.3589 25.1786C35.2905 25.3986 35.3047 25.6342 35.3198 25.864C35.3776 26.756 35.8838 29.5404 35.7958 29.5951C34.9398 30.1244 33.3256 29.7542 32.3394 29.5533L32.3069 29.4666Z" fill="#F9DACE"/>
<path d="M32.8672 17.3498C33.0383 18.7587 33.2072 20.1675 33.3747 21.5764C33.3907 21.7124 33.6067 21.7142 33.5903 21.5764C33.4227 20.1671 33.2538 18.7582 33.0827 17.3498C33.0663 17.2142 32.8503 17.2124 32.8672 17.3498Z" fill="#E1C0B5"/>
<path d="M33.825 17.3951C33.9792 18.7902 34.133 20.1853 34.2872 21.5804C34.3023 21.7169 34.5179 21.7182 34.5028 21.5804C34.3485 20.1853 34.1948 18.7902 34.0405 17.3951C34.0254 17.2591 33.8099 17.2573 33.825 17.3951Z" fill="#E1C0B5"/>
<path d="M32.6818 21.8009C33.388 21.752 34.0942 21.7035 34.8005 21.6546C34.9382 21.6453 34.9391 21.4297 34.8005 21.4391C34.0942 21.488 33.388 21.5364 32.6818 21.5853C32.544 21.5951 32.5431 21.8106 32.6818 21.8009Z" fill="#E1C0B5"/>
<path d="M33.7651 25.8475C34.11 25.8506 34.4549 25.8537 34.7998 25.8569C34.9385 25.8582 34.9385 25.6426 34.7998 25.6413C34.4549 25.6382 34.11 25.6351 33.7651 25.632C33.6265 25.6311 33.6265 25.8462 33.7651 25.8475Z" fill="#E1C0B5"/>
<path d="M29.3724 28.476C29.3991 28.4742 29.4342 28.4649 29.4688 28.4555C29.4866 28.4902 29.5039 28.5253 29.5217 28.56C29.5004 28.5764 29.4786 28.5929 29.4573 28.6093C29.3933 28.6284 29.3919 28.5698 29.4057 28.6347C29.4119 28.6635 29.4173 28.6929 29.4231 28.7222C29.4333 28.7747 29.4439 28.8271 29.4542 28.8795C29.4773 28.996 29.4999 29.1124 29.5231 29.2289C29.5666 29.4502 29.6106 29.6715 29.6542 29.8929C29.6991 30.12 29.7439 30.3471 29.7888 30.5742C29.8084 30.6742 29.8359 30.7751 29.8462 30.8764C29.8573 30.9871 29.8195 31.0538 29.7395 31.1267C29.5862 31.2667 29.4182 31.3915 29.2448 31.5053C29.0946 31.604 28.9031 31.6795 28.7835 31.8169C28.6533 31.9667 28.6417 32.1898 28.6066 32.376C28.5648 32.5982 28.5231 32.8209 28.4817 33.0431C28.3862 33.5524 28.2906 34.0613 28.1955 34.5707C28.1702 34.7062 28.3777 34.7644 28.4031 34.628C28.5039 34.0893 28.6048 33.5511 28.7057 33.0129C28.7542 32.7555 28.8022 32.4978 28.8506 32.2404C28.8693 32.1404 28.8813 32.0275 28.9537 31.9498C29.0297 31.868 29.1488 31.82 29.2426 31.7622C29.4551 31.6311 29.6573 31.4822 29.8462 31.3191C29.9235 31.2524 29.9999 31.1813 30.0368 31.0831C30.0768 30.9769 30.0631 30.8653 30.0435 30.7564C29.9466 30.2209 29.8328 29.688 29.7271 29.1542C29.6995 29.0147 29.6719 28.8747 29.6444 28.7351C29.6239 28.6324 29.6213 28.4693 29.5128 28.4129C29.4155 28.3622 29.3053 28.4298 29.3137 28.5395C29.3222 28.6498 29.4391 28.7058 29.5244 28.6284C29.6279 28.5351 29.4751 28.3831 29.3724 28.476Z" fill="#4E372E"/>
<path d="M31.1457 29.2009C30.928 31.436 30.4742 33.6471 29.7951 35.7876C29.6044 36.3893 29.3955 36.9853 29.1697 37.5751C29.12 37.7049 29.3284 37.7609 29.3773 37.6325C29.7804 36.5796 30.1288 35.5058 30.4195 34.416C30.7115 33.3213 30.9462 32.2111 31.1213 31.0916C31.2195 30.4636 31.2991 29.8333 31.3608 29.2009C31.3746 29.0631 31.1591 29.064 31.1457 29.2009Z" fill="#4E372E"/>
<path d="M23.7743 29.0102C24.1237 29.4876 24.4859 29.9809 24.9997 30.2933C25.2406 30.44 25.5086 30.5418 25.7895 30.5751C26.0966 30.6111 26.3908 30.5333 26.6841 30.452C27.0481 30.3507 27.4126 30.2498 27.7766 30.1485C27.9099 30.1116 27.8535 29.9036 27.7192 29.9409C27.4223 30.0236 27.1254 30.1058 26.8286 30.1885C26.5494 30.2662 26.2623 30.3693 25.9695 30.3707C25.4139 30.3729 24.925 30.0382 24.5575 29.6493C24.3379 29.4173 24.149 29.1596 23.9606 28.9027C23.8792 28.7907 23.6921 28.8982 23.7743 29.0102Z" fill="#6B4E45"/>
<path d="M26.2624 33.4227C25.1597 33.8364 24.0481 34.2253 22.9277 34.588C22.6099 34.6907 22.2917 34.7916 21.9726 34.8902C21.8406 34.9311 21.897 35.1391 22.0299 35.0978C23.1548 34.7498 24.2721 34.376 25.3797 33.9764C25.6939 33.8631 26.0072 33.7476 26.3197 33.6302C26.4481 33.5818 26.3926 33.3738 26.2624 33.4227Z" fill="#6B4E45"/>
<path d="M25.2185 34.964C24.4772 35.3893 23.6554 35.6698 22.8074 35.7796C22.6719 35.7969 22.6701 36.0129 22.8074 35.9951C23.695 35.8804 24.551 35.596 25.3274 35.1502C25.4474 35.0809 25.339 34.8947 25.2185 34.964Z" fill="#6B4E45"/>
<path d="M27.8034 18.4351C27.9412 17.8924 27.6692 17.2733 27.1768 17.0075C27.6021 17.2586 27.9639 17.6164 28.2199 18.0386C28.3274 17.5373 28.823 17.1488 29.3354 17.164C28.8776 17.4275 28.6376 18.0186 28.7816 18.5266L27.8034 18.4351Z" fill="#332418"/>
<path d="M-9.57161 47.0791C-2.34539 47.0791 4.88083 47.0791 12.1071 47.0791C19.2964 47.0791 26.4857 47.0791 33.6751 47.0791C37.7306 47.0791 41.7862 47.0791 45.8417 47.0791C45.9804 47.0791 45.9804 46.8635 45.8417 46.8635C38.6155 46.8635 31.3893 46.8635 24.1631 46.8635C16.9737 46.8635 9.78439 46.8635 2.59505 46.8635C-1.4605 46.8635 -5.51606 46.8635 -9.57161 46.8635C-9.71028 46.8635 -9.71073 47.0791 -9.57161 47.0791Z" fill="#463933"/>
<path d="M34.9339 45.0729C36.201 45.0729 37.4677 45.0729 38.7348 45.0729C39.0975 45.0729 39.4606 45.0729 39.8232 45.0729C39.9619 45.0729 39.9619 44.8573 39.8232 44.8573C38.5561 44.8573 37.2895 44.8573 36.0224 44.8573C35.6597 44.8573 35.2966 44.8573 34.9339 44.8573C34.7957 44.8577 34.7952 45.0729 34.9339 45.0729Z" fill="#463933"/>
<path d="M36.188 43.8196C36.7311 43.8196 37.2747 43.8196 37.8178 43.8196C37.9564 43.8196 37.9564 43.604 37.8178 43.604C37.2747 43.604 36.7311 43.604 36.188 43.604C36.0493 43.604 36.0493 43.8196 36.188 43.8196Z" fill="#463933"/>
<path d="M4.84504 43.4431C6.89749 43.4431 8.94993 43.4431 11.0024 43.4431C11.5828 43.4431 12.1633 43.4431 12.7437 43.4431C12.8824 43.4431 12.8824 43.2275 12.7437 43.2275C10.6913 43.2275 8.63882 43.2275 6.58638 43.2275C6.00593 43.2275 5.42549 43.2275 4.84504 43.2275C4.70682 43.228 4.70638 43.4431 4.84504 43.4431Z" fill="#463933"/>
<path d="M7.47802 42.064C8.48113 42.064 9.4838 42.064 10.4869 42.064C10.6256 42.064 10.6256 41.8484 10.4869 41.8484C9.4838 41.8484 8.48113 41.8484 7.47802 41.8484C7.33936 41.8489 7.33936 42.064 7.47802 42.064Z" fill="#463933"/>
<path d="M11.7407 46.076C12.3256 46.076 12.9109 46.076 13.4958 46.076C13.6345 46.076 13.6345 45.8604 13.4958 45.8604C12.9109 45.8604 12.3256 45.8604 11.7407 45.8604C11.6021 45.8604 11.6021 46.076 11.7407 46.076Z" fill="#463933"/>
<g opacity="0.92">
<path d="M40.6155 18.2729L35.1448 15.3471C35.0644 15.304 35.0341 15.2044 35.0773 15.124L37.0013 11.5266C37.0444 11.4462 37.1439 11.416 37.2244 11.4591L42.695 14.3849C42.7755 14.428 42.8057 14.5275 42.7626 14.608L40.8386 18.2053C40.7955 18.2858 40.6959 18.316 40.6155 18.2729Z" fill="#9E8777"/>
<path d="M41.8184 14.4613L39.8779 13.4235L40.5997 12.0737C40.6495 11.9808 40.7646 11.9462 40.8575 11.9955L42.4624 12.8537C42.5553 12.9035 42.5899 13.0186 42.5406 13.1115L41.8184 14.4613Z" fill="#9E8777"/>
<path d="M42.1635 13.0696L40.8428 12.3633L40.515 12.9762L41.8357 13.6826L42.1635 13.0696Z" fill="#AB988B"/>
<path d="M40.364 16.8492C41.2115 16.7126 41.7878 15.9149 41.6512 15.0674C41.5146 14.2199 40.7169 13.6436 39.8694 13.7802C39.022 13.9168 38.4457 14.7145 38.5822 15.5619C38.7188 16.4094 39.5165 16.9857 40.364 16.8492Z" fill="#AB988B"/>
<path d="M40.113 17.0115C39.8375 17.0115 39.5646 16.9435 39.3148 16.8102C38.9148 16.5964 38.6224 16.2395 38.4908 15.8058C38.3593 15.372 38.4046 14.9124 38.6184 14.5129C38.8321 14.1129 39.189 13.8204 39.6228 13.6889C40.0566 13.5573 40.5157 13.6026 40.9157 13.8164C41.3157 14.0302 41.6081 14.3871 41.7397 14.8209C41.8713 15.2546 41.8259 15.7142 41.6121 16.1138C41.3984 16.5138 41.0415 16.8062 40.6077 16.9378C40.4446 16.9871 40.2784 17.0115 40.113 17.0115ZM40.117 13.9013C39.9797 13.9013 39.841 13.9218 39.7059 13.9626C39.3455 14.072 39.0486 14.3151 38.8713 14.6475C38.6935 14.98 38.6557 15.3613 38.765 15.7222C38.8744 16.0831 39.1175 16.3795 39.4499 16.5573C39.7824 16.7351 40.1637 16.7729 40.5246 16.6635C40.885 16.5542 41.1819 16.3111 41.3593 15.9786C41.7264 15.2924 41.4664 14.436 40.7806 14.0693C40.5726 13.9578 40.3459 13.9013 40.117 13.9013Z" fill="#594A42"/>
<path d="M36.8736 16.2715L35.1394 15.344C35.0621 15.3026 35.0332 15.2066 35.0745 15.1293L37.0043 11.5209C37.0456 11.4435 37.1416 11.4146 37.219 11.456L38.9532 12.3835L36.8736 16.2715Z" fill="#6C5B50"/>
<path d="M40.1787 16.3351C40.0196 16.3351 39.8587 16.2973 39.7089 16.2173C39.2227 15.9573 39.0387 15.3502 39.2987 14.864C39.5587 14.3778 40.1658 14.1938 40.652 14.4538C41.1382 14.7138 41.3222 15.3209 41.0622 15.8071C40.8822 16.1431 40.536 16.3351 40.1787 16.3351ZM40.1818 14.3711C39.8374 14.3711 39.5036 14.556 39.3298 14.8804C39.0791 15.3493 39.2565 15.9347 39.7254 16.1853C40.1942 16.436 40.7796 16.2587 41.0302 15.7898C41.2809 15.3209 41.1036 14.7356 40.6347 14.4849C40.4907 14.408 40.3351 14.3711 40.1818 14.3711Z" fill="white"/>
<path d="M37.9663 16.0346C37.8907 16.176 37.7147 16.2293 37.5734 16.1537C37.432 16.0782 37.3787 15.9022 37.4542 15.7609C37.5298 15.6195 37.7058 15.5662 37.8471 15.6417C37.9889 15.7173 38.0418 15.8933 37.9663 16.0346Z" fill="#B5B4B4"/>
<path d="M37.7101 16.26C37.6514 16.26 37.5932 16.2457 37.5399 16.2168C37.3639 16.1226 37.2972 15.9031 37.3914 15.7266C37.4856 15.5506 37.7056 15.484 37.8816 15.5782C37.967 15.624 38.0292 15.7 38.0572 15.7924C38.0852 15.8848 38.0754 15.9831 38.0301 16.0684C37.9843 16.1537 37.9083 16.216 37.8159 16.244C37.7807 16.2546 37.7456 16.26 37.7101 16.26ZM37.711 15.6791C37.6327 15.6791 37.5572 15.7208 37.5176 15.7946C37.4607 15.9008 37.5012 16.0337 37.6074 16.0906C37.659 16.1182 37.7181 16.124 37.7741 16.1071C37.8301 16.0902 37.8759 16.0524 37.9034 16.0008C37.931 15.9493 37.9367 15.8902 37.9199 15.8342C37.903 15.7782 37.8652 15.7324 37.8136 15.7048C37.7812 15.6875 37.7456 15.6791 37.711 15.6791Z" fill="#594A42"/>
<path d="M37.0014 15.5186C36.9258 15.66 36.7498 15.7133 36.6085 15.6378C36.4672 15.5622 36.4138 15.3862 36.4894 15.2449C36.565 15.1035 36.741 15.0502 36.8823 15.1258C37.0236 15.2013 37.077 15.3773 37.0014 15.5186Z" fill="#B5B4B4"/>
<path d="M36.7452 15.7435C36.6875 15.7435 36.6292 15.7297 36.575 15.7008C36.4897 15.6551 36.4275 15.5791 36.3995 15.4866C36.3715 15.3942 36.3812 15.296 36.4266 15.2111C36.4724 15.1257 36.5484 15.0635 36.6408 15.0355C36.7332 15.0075 36.8315 15.0173 36.9168 15.0626C37.0928 15.1568 37.1595 15.3764 37.0652 15.5528C36.9999 15.6742 36.8746 15.7435 36.7452 15.7435ZM36.7461 15.1631C36.7248 15.1631 36.7035 15.1662 36.6826 15.1724C36.6266 15.1893 36.5808 15.2271 36.5532 15.2786C36.5257 15.3302 36.5199 15.3893 36.5368 15.4453C36.5537 15.5013 36.5915 15.5471 36.643 15.5746C36.7492 15.6315 36.8821 15.5911 36.939 15.4848C36.9959 15.3786 36.9555 15.2457 36.8492 15.1888C36.8168 15.1715 36.7812 15.1631 36.7461 15.1631Z" fill="#594A42"/>
<path d="M37.7464 12.5066L36.7588 11.9784L36.4677 12.5228L37.4553 13.0509L37.7464 12.5066Z" fill="#AB988B"/>
<path d="M39.1743 14.2386C38.7667 14.6213 38.5801 15.2017 38.6814 15.7502C38.6943 15.8191 38.7992 15.7897 38.7863 15.7213C38.6916 15.2106 38.873 14.6702 39.2512 14.3155C39.3027 14.2675 39.2254 14.1906 39.1743 14.2386Z" fill="#4E372E"/>
<path d="M39.1893 16.4404C39.2524 16.5409 39.3489 16.616 39.4618 16.6533C39.4889 16.6622 39.5222 16.6431 39.5289 16.6151C39.5355 16.5853 39.52 16.5578 39.4907 16.548C39.4849 16.5462 39.4787 16.544 39.4729 16.5418C39.4698 16.5409 39.4671 16.5395 39.464 16.5382C39.4564 16.5351 39.4595 16.5382 39.4649 16.5386C39.4595 16.5382 39.4529 16.5333 39.448 16.5306C39.4422 16.528 39.4369 16.5249 39.4315 16.5222C39.4204 16.5164 39.4098 16.5098 39.3995 16.5031C39.3942 16.4995 39.3893 16.496 39.384 16.4924C39.3813 16.4906 39.3791 16.4889 39.3764 16.4871C39.3729 16.4844 39.3702 16.4791 39.3769 16.4875C39.3693 16.4786 39.3573 16.4711 39.3484 16.4631C39.34 16.4551 39.3315 16.4466 39.3235 16.4378C39.3195 16.4333 39.3151 16.4284 39.3111 16.4235C39.3093 16.4213 39.3071 16.4186 39.3053 16.4164C39.2973 16.4066 39.3102 16.4231 39.3058 16.4173C39.2982 16.4066 39.2907 16.396 39.2835 16.3849C39.2684 16.3609 39.2342 16.3489 39.2089 16.3653C39.1844 16.3818 39.1729 16.4146 39.1893 16.4404Z" fill="#4E372E"/>
<path d="M41.3035 14.7489C41.3568 14.8644 41.3902 14.9906 41.4013 15.1173C41.4039 15.1466 41.4244 15.1715 41.4555 15.1715C41.483 15.1715 41.5124 15.1466 41.5097 15.1173C41.4968 14.9698 41.459 14.8284 41.3973 14.6942C41.3848 14.6675 41.3466 14.6609 41.3226 14.6746C41.2955 14.6906 41.291 14.7222 41.3035 14.7489Z" fill="#4E372E"/>
<path d="M40.77 12.6707C40.8278 12.832 40.9074 12.9849 41.0087 13.1236C41.026 13.1471 41.0558 13.1591 41.0834 13.1431C41.1069 13.1293 41.1202 13.0924 41.1029 13.0684C41.0074 12.9378 40.93 12.7942 40.8754 12.6418C40.8656 12.6142 40.8385 12.5955 40.8082 12.6035C40.7811 12.6111 40.7602 12.6427 40.77 12.6707Z" fill="#594A42"/>
<path d="M41.0293 12.7595C41.0609 12.8191 41.0925 12.8786 41.124 12.9382C41.1373 12.9635 41.1747 12.9733 41.1987 12.9577C41.2245 12.9413 41.2325 12.9102 41.2182 12.8831C41.1867 12.8235 41.1551 12.764 41.1236 12.7044C41.1102 12.6791 41.0729 12.6693 41.0489 12.6848C41.0236 12.7013 41.0151 12.7324 41.0293 12.7595Z" fill="#594A42"/>
<path d="M38.7742 12.64C38.6609 12.8764 38.548 13.1129 38.4346 13.3493C38.4044 13.4124 38.4982 13.4675 38.5284 13.4044C38.6417 13.168 38.7546 12.9315 38.868 12.6951C38.8982 12.632 38.8044 12.5764 38.7742 12.64Z" fill="#594A42"/>
<path d="M38.1139 13.8507C38.0957 13.8973 38.077 13.9444 38.0588 13.9911C38.0539 14.0036 38.0579 14.0222 38.0642 14.0329C38.0708 14.044 38.0837 14.0551 38.0966 14.0578C38.1104 14.0609 38.1264 14.0604 38.1384 14.0524C38.1419 14.0498 38.1459 14.0467 38.1495 14.044C38.1562 14.0373 38.161 14.0293 38.1633 14.02C38.1815 13.9733 38.2002 13.9262 38.2184 13.8796C38.2233 13.8671 38.2193 13.8484 38.213 13.8378C38.2064 13.8267 38.1935 13.8156 38.1806 13.8129C38.1668 13.8098 38.1508 13.8102 38.1388 13.8182C38.1353 13.8209 38.1313 13.824 38.1277 13.8267C38.121 13.8333 38.1166 13.8413 38.1139 13.8507Z" fill="#594A42"/>
<path d="M40.0896 17.504C40.4038 17.4916 40.7043 17.3729 40.9434 17.1689C40.9967 17.1236 40.9194 17.0467 40.8665 17.092C40.6501 17.2764 40.3736 17.3836 40.0896 17.3951C40.0198 17.3982 40.0194 17.5071 40.0896 17.504Z" fill="#594A42"/>
<path d="M40.5526 17.608C40.6312 17.592 40.7072 17.5618 40.7761 17.5209C40.8006 17.5062 40.8117 17.4711 40.7957 17.4462C40.7797 17.4218 40.7472 17.4111 40.721 17.4267C40.7046 17.4364 40.6881 17.4453 40.6712 17.4538C40.6632 17.4578 40.6552 17.4613 40.6472 17.4649C40.645 17.4658 40.6428 17.4671 40.6401 17.468C40.6472 17.4649 40.6481 17.4644 40.6428 17.4667C40.6388 17.4684 40.6348 17.4698 40.6303 17.4715C40.5957 17.4849 40.5597 17.4951 40.5237 17.5027C40.4957 17.5084 40.477 17.5431 40.4854 17.5698C40.4952 17.5995 40.5228 17.6142 40.5526 17.608Z" fill="#594A42"/>
<path d="M35.9334 14.3848C35.7174 14.7382 35.864 15.1528 36.0325 15.4911C36.0636 15.5537 36.1578 15.4986 36.1263 15.436C35.9756 15.1333 35.8334 14.7569 36.0272 14.4395C36.064 14.38 35.9698 14.3253 35.9334 14.3848Z" fill="#594A42"/>
<path d="M35.5474 14.8057C35.5416 14.9231 35.5527 15.0413 35.5781 15.156C35.5843 15.184 35.6181 15.2026 35.6452 15.1942C35.6745 15.1848 35.6896 15.1568 35.6834 15.1271C35.6598 15.0213 35.651 14.9164 35.6563 14.8057C35.6576 14.7773 35.6301 14.7502 35.6021 14.7515C35.5714 14.7528 35.5492 14.7751 35.5474 14.8057Z" fill="#594A42"/>
<path d="M40.1257 15.7569C40.1297 15.7551 40.1341 15.7533 40.1381 15.7511C40.3017 15.676 40.4324 15.5404 40.5986 15.4715C40.6528 15.4489 40.715 15.4342 40.7626 15.4764C40.8061 15.5151 40.8284 15.5755 40.8275 15.6333C40.8261 15.7071 40.7919 15.7769 40.7479 15.836C40.6475 15.9715 40.4941 16.0644 40.3301 16.1022C40.2706 16.116 40.2084 16.1231 40.1479 16.1111C40.0879 16.0995 40.0301 16.0671 39.9968 16.016C39.9635 15.9649 39.959 15.8933 39.9941 15.8431C40.0248 15.7995 40.0768 15.7787 40.1257 15.7569Z" fill="white"/>
<path d="M40.0054 15.3524C39.9969 15.3617 39.9894 15.3715 39.9823 15.3822C39.948 15.4355 39.9431 15.5119 39.9849 15.5595C40.0094 15.5875 40.0463 15.6022 40.0831 15.6053C40.1391 15.6102 40.1943 15.5906 40.2449 15.5662C40.2898 15.5444 40.3338 15.5173 40.3654 15.4791C40.3974 15.4404 40.4156 15.3884 40.4045 15.3395C40.3769 15.2186 40.2183 15.2328 40.1325 15.2697C40.0854 15.2893 40.0396 15.3155 40.0054 15.3524Z" fill="white"/>
<path d="M39.3665 12.5444C39.7527 11.8196 39.5354 10.8498 38.8625 10.3724C38.0745 9.81378 36.8576 9.93689 36.3985 8.94311C36.1879 8.48756 36.2594 7.94222 36.6199 7.58311C37.0345 7.17022 37.6381 7.24622 38.123 7.48578C38.9674 7.90311 39.5999 8.70933 39.8763 9.60222C40.1799 10.5836 40.0923 11.9067 39.2021 12.5676C39.1465 12.6089 39.2007 12.7036 39.2572 12.6613C40.0496 12.0729 40.2483 10.9742 40.0945 10.0502C39.9372 9.10267 39.3981 8.22089 38.6181 7.65867C38.2141 7.36756 37.7021 7.11733 37.1901 7.18533C36.7225 7.24756 36.3523 7.60489 36.2194 8.05022C36.0807 8.51467 36.2394 9.02 36.5541 9.376C36.8932 9.75911 37.3914 9.91156 37.8643 10.0582C38.4132 10.2284 38.9559 10.4338 39.247 10.9653C39.5021 11.4311 39.5243 12.0178 39.2727 12.4889C39.2394 12.5516 39.3336 12.6067 39.3665 12.5444Z" fill="#594A42"/>
</g>
<g opacity="0.92">
<path d="M8.3437 27.4907C8.34059 27.4929 8.33703 27.4956 8.33392 27.4978C8.52103 27.7987 8.70859 28.1289 8.68281 28.4827C8.66015 28.7921 8.47259 29.0698 8.23748 29.2721C8.01126 29.4667 7.72015 29.6085 7.42281 29.5827C7.18192 29.5614 6.96326 29.4338 6.76815 29.2907C6.19259 28.8689 5.78148 28.4392 5.18726 28.0436C4.90992 27.8592 4.55659 27.5623 4.35081 27.3009C3.9397 26.7796 4.06637 25.8312 4.64948 25.4921C4.9277 25.3303 5.25659 25.2614 5.57659 25.2841C5.73659 25.2956 5.8957 25.3294 6.04548 25.3876C6.08726 25.4041 6.46103 25.6294 6.45792 25.6316C7.19659 25.1649 7.91259 24.6623 8.60237 24.1263C8.2677 23.6796 8.21481 23.0276 8.50903 22.5529C8.80281 22.0783 9.44103 21.8356 9.96415 22.0303C10.4393 22.2076 10.7415 22.6729 10.9481 23.1361C11.2726 23.8623 11.4446 24.6458 11.613 25.4232C11.6677 25.6743 11.7224 25.9285 11.7166 26.1858C11.7113 26.4427 11.6397 26.7072 11.4695 26.8996C11.233 27.1672 10.8326 27.2534 10.4864 27.1649C10.1406 27.0765 9.84815 26.8347 9.63881 26.5454C9.20681 26.8605 8.77526 27.1756 8.3437 27.4907Z" fill="#9E8777"/>
<path d="M5.84356 25.776C5.48623 25.6107 5.10979 25.7489 4.83956 26.0071C4.5849 26.2507 4.50401 26.6409 4.65156 26.9636C4.79912 27.2871 5.17156 27.4809 5.52045 27.4445C5.87956 27.4071 6.18845 27.1267 6.28267 26.7809C6.38756 26.396 6.20179 25.9574 5.84356 25.776C5.78179 25.7449 5.72623 25.8374 5.78845 25.8689C6.06667 26.0094 6.23156 26.3227 6.20134 26.632C6.17023 26.9489 5.92623 27.2356 5.61867 27.3178C5.32445 27.396 4.98756 27.2734 4.81112 27.0254C4.63423 26.7765 4.64845 26.4209 4.8289 26.1782C5.04134 25.8925 5.44756 25.7116 5.78801 25.8694C5.85067 25.8982 5.90667 25.8054 5.84356 25.776Z" fill="#6C5B50"/>
<path d="M8.89657 23.5703C8.87124 23.2609 9.0668 22.9876 9.33391 22.8472C9.47435 22.7734 9.61568 22.7289 9.77613 22.7405C9.92813 22.7516 10.0797 22.8094 10.1966 22.908C10.4357 23.1098 10.505 23.4627 10.3952 23.7498C10.2784 24.0547 9.95168 24.244 9.63124 24.2338C9.26991 24.2227 8.93791 23.9325 8.89657 23.5703C8.88857 23.5023 8.78057 23.4992 8.78857 23.568C8.83035 23.9347 9.11613 24.2494 9.47924 24.324C9.83168 24.3965 10.2179 24.2427 10.417 23.9414C10.6157 23.6409 10.5952 23.216 10.3721 22.9347C10.1561 22.6623 9.75657 22.5578 9.43302 22.6818C9.06813 22.8218 8.75524 23.1547 8.78857 23.568C8.79391 23.6369 8.90191 23.6392 8.89657 23.5703Z" fill="#6C5B50"/>
<path d="M9.67431 22.9889C9.74587 23.092 9.72053 23.2334 9.61787 23.3054C9.51475 23.3769 9.37342 23.3516 9.30142 23.2489C9.22987 23.1458 9.2552 23.0045 9.35787 22.9325C9.46098 22.8605 9.60275 22.8858 9.67431 22.9889Z" fill="white"/>
<path d="M10.104 23.6947C10.1756 23.7978 10.1502 23.9391 10.0476 24.0111C9.94444 24.0827 9.80311 24.0573 9.73111 23.9547C9.65955 23.8516 9.68489 23.7102 9.78755 23.6382C9.89066 23.5662 10.0324 23.5916 10.104 23.6947Z" fill="white"/>
<path d="M9.47118 23.5814C9.54274 23.6845 9.51741 23.8258 9.41474 23.8978C9.31163 23.9694 9.1703 23.944 9.0983 23.8414C9.02674 23.7383 9.05207 23.5969 9.15474 23.5249C9.25785 23.4534 9.39963 23.4787 9.47118 23.5814Z" fill="white"/>
<path d="M10.2642 23.0902C10.3357 23.1933 10.3104 23.3347 10.2077 23.4067C10.1046 23.4782 9.96326 23.4529 9.89126 23.3502C9.81971 23.2471 9.84504 23.1058 9.94771 23.0338C10.0508 22.9622 10.1922 22.9876 10.2642 23.0902Z" fill="white"/>
<path d="M5.43408 26.0982C5.50563 26.2013 5.4803 26.3427 5.37763 26.4147C5.27452 26.4862 5.13319 26.4609 5.06119 26.3582C4.98963 26.2551 5.01496 26.1138 5.11763 26.0418C5.22074 25.9698 5.36252 25.9951 5.43408 26.0982Z" fill="white"/>
<path d="M5.86376 26.804C5.93532 26.9072 5.90998 27.0485 5.80732 27.1205C5.70421 27.192 5.56287 27.1667 5.49087 27.064C5.41932 26.9609 5.44465 26.8196 5.54732 26.7476C5.65043 26.6756 5.79176 26.7009 5.86376 26.804Z" fill="white"/>
<path d="M5.23095 26.6907C5.30251 26.7938 5.27717 26.9351 5.17451 27.0071C5.07139 27.0787 4.93006 27.0534 4.85806 26.9507C4.78651 26.8476 4.81184 26.7062 4.91451 26.6342C5.01762 26.5627 5.15939 26.588 5.23095 26.6907Z" fill="white"/>
<path d="M6.02392 26.1996C6.09547 26.3027 6.07014 26.444 5.96747 26.516C5.86436 26.5876 5.72303 26.5623 5.65103 26.4596C5.57947 26.3565 5.60481 26.2152 5.70747 26.1432C5.81059 26.0716 5.95192 26.0969 6.02392 26.1996Z" fill="white"/>
<path d="M5.86163 25.34C6.84785 25.8724 7.69274 26.6391 8.31674 27.5702C8.35496 27.6276 8.44918 27.5747 8.41052 27.5164C7.77629 26.5698 6.9194 25.7884 5.91674 25.2471C5.85585 25.2142 5.80029 25.3071 5.86163 25.34Z" fill="#6C5B50"/>
<path d="M8.249 23.2889C8.54589 24.4556 8.86855 25.6658 9.67611 26.5952C9.72189 26.6476 9.79833 26.5716 9.753 26.5192C8.95922 25.6058 8.64544 24.4089 8.35389 23.2623C8.33655 23.1947 8.23166 23.2214 8.249 23.2889Z" fill="#6C5B50"/>
<path d="M6.75689 28.5125C6.93023 28.6449 7.13512 28.7356 7.34934 28.776C7.37778 28.7814 7.40756 28.7689 7.416 28.7391C7.42356 28.7129 7.40756 28.6778 7.37912 28.6725C7.17245 28.6338 6.97911 28.5476 6.812 28.42C6.78889 28.4023 6.75156 28.416 6.73778 28.4391C6.72178 28.4658 6.73378 28.4947 6.75689 28.5125Z" fill="#6C5B50"/>
<path d="M7.78923 28.7667C7.84034 28.7472 7.89101 28.7276 7.94212 28.708C7.9559 28.7027 7.96746 28.6965 7.97501 28.6832C7.98168 28.6716 7.98479 28.6552 7.98079 28.6423C7.97679 28.6289 7.96879 28.616 7.9559 28.6094C7.94434 28.6032 7.9279 28.5983 7.91501 28.6036C7.8639 28.6232 7.81323 28.6427 7.76212 28.6623C7.74834 28.6676 7.73679 28.6738 7.72923 28.6872C7.72257 28.6987 7.71946 28.7152 7.72346 28.728C7.72746 28.7414 7.73546 28.7543 7.74834 28.7609C7.7599 28.7672 7.7759 28.772 7.78923 28.7667Z" fill="#6C5B50"/>
<path d="M11.0436 26.4329C11.1667 26.3476 11.2062 26.2031 11.2347 26.0636C11.2693 25.8929 11.2902 25.7191 11.2973 25.5454C11.3 25.4756 11.192 25.4738 11.1893 25.5431C11.1831 25.6987 11.1658 25.8534 11.1364 26.0062C11.1147 26.1196 11.0929 26.268 10.9902 26.3391C10.9333 26.3787 10.9862 26.4729 11.0436 26.4329Z" fill="#6C5B50"/>
<path d="M11.2282 24.8303C11.2131 24.7587 11.1985 24.6876 11.1833 24.6161C11.1776 24.5885 11.1447 24.5689 11.1176 24.5769C11.0887 24.5858 11.0722 24.6129 11.0785 24.6427C11.0936 24.7143 11.1082 24.7854 11.1233 24.8569C11.1291 24.8845 11.162 24.9041 11.1891 24.8961C11.2185 24.8872 11.2345 24.8601 11.2282 24.8303Z" fill="#6C5B50"/>
<path d="M7.46787 25.9632C7.54076 25.9058 7.61409 25.8489 7.68698 25.7916C7.70921 25.7743 7.70698 25.7334 7.68743 25.7152C7.66387 25.6934 7.63498 25.6961 7.61098 25.7147C7.5381 25.7721 7.46476 25.8289 7.39187 25.8863C7.36965 25.9036 7.37187 25.9445 7.39143 25.9627C7.41454 25.9845 7.44387 25.9818 7.46787 25.9632Z" fill="#6C5B50"/>
<path d="M8.20261 25.5169C8.3475 25.4489 8.48261 25.3618 8.60573 25.2596C8.62839 25.2409 8.62528 25.2027 8.60617 25.1831C8.58439 25.1609 8.55239 25.164 8.52973 25.1827C8.41373 25.2787 8.28528 25.3591 8.14884 25.4227C8.12261 25.4351 8.11506 25.4724 8.12884 25.4964C8.14439 25.524 8.17639 25.5293 8.20261 25.5169Z" fill="#6C5B50"/>
<path d="M8.11692 26.2005C8.10804 26.2072 8.12404 26.1952 8.12581 26.1938C8.12981 26.1907 8.13381 26.1881 8.13781 26.1849C8.14715 26.1783 8.15692 26.1716 8.16626 26.1649C8.18492 26.1521 8.20359 26.1401 8.22226 26.1281C8.26093 26.1041 8.30093 26.0818 8.34137 26.0614C8.3667 26.0485 8.37648 26.0116 8.36137 25.9876C8.34492 25.9618 8.3147 25.9538 8.28759 25.9676C8.20004 26.0116 8.11826 26.0645 8.04048 26.1236C8.01781 26.1409 8.02048 26.1818 8.04004 26.2001C8.06404 26.2223 8.09248 26.2192 8.11692 26.2005Z" fill="#6C5B50"/>
<path d="M7.50959 24.8525C6.71715 24.7329 5.87137 24.4103 5.5247 23.6276C5.35492 23.244 5.35048 22.7978 5.57404 22.4351C5.68915 22.248 5.8487 22.1165 6.03181 22C6.17981 21.9058 6.33537 21.8138 6.44781 21.676C6.73804 21.3196 6.60292 20.8454 6.46959 20.4551C6.44737 20.3898 6.34248 20.416 6.36515 20.4818C6.4447 20.7143 6.53004 20.9574 6.5127 21.2067C6.49492 21.46 6.3647 21.6449 6.16115 21.7876C6.00826 21.8947 5.8407 21.9814 5.70292 22.1089C5.5647 22.2374 5.45492 22.3974 5.38426 22.5725C5.08204 23.3196 5.54915 24.1258 6.1847 24.5214C6.57581 24.7649 7.02826 24.8885 7.48026 24.9565C7.54781 24.9667 7.57804 24.8631 7.50959 24.8525Z" fill="#6C5B50"/>
<path d="M10.9862 25.6685L10.0147 25.9169C9.95335 25.9325 9.89113 25.8956 9.87557 25.8342L9.77602 25.4445C9.76046 25.3831 9.79735 25.3209 9.85869 25.3053L10.8302 25.0569C10.8916 25.0413 10.9538 25.0782 10.9694 25.1396L11.0689 25.5293C11.084 25.5907 11.0471 25.6529 10.9862 25.6685Z" fill="#6C5B50"/>
<path d="M7.81349 27.612L7.27527 28.3525C7.24193 28.3987 7.17704 28.4089 7.13127 28.3751L6.78771 28.1253C6.74149 28.092 6.73127 28.0271 6.76504 27.9813L7.30282 27.2409C7.33615 27.1947 7.40104 27.1845 7.44682 27.2182L7.79038 27.468C7.83704 27.5013 7.84727 27.5658 7.81349 27.612Z" fill="#6C5B50"/>
</g>
<g opacity="0.92">
<path d="M14.6247 18.9125C15.0411 18.3636 15.5283 17.8769 16.03 17.4063C16.4785 16.9854 16.9331 16.5711 17.3936 16.1631C18.3105 15.3503 19.2523 14.5645 20.2278 13.8231C22.1505 12.3614 24.2127 11.0645 26.4438 10.1271C27.6971 9.60048 28.9985 9.19337 30.3336 8.93603C30.4998 8.90403 30.462 8.6427 30.2945 8.67515C27.8936 9.13826 25.614 10.08 23.5051 11.3049C21.3674 12.5467 19.3989 14.0587 17.5403 15.6831C17.0158 16.1414 16.4998 16.6089 15.99 17.0836C15.4296 17.6058 14.878 18.1414 14.414 18.7529C14.3118 18.888 14.522 19.0476 14.6247 18.9125Z" fill="#9E8777"/>
<path d="M14.0798 20.5738C13.9958 20.7111 13.8763 20.8707 13.7167 20.8476C13.6652 20.84 13.6189 20.8134 13.5749 20.7863C13.4127 20.6863 13.2589 20.5725 13.1158 20.4458C13.0216 20.3627 12.9265 20.2618 12.9194 20.136C12.9136 20.0343 12.9674 19.94 13.0189 19.8525C13.3545 19.2863 13.6918 18.7187 14.086 18.1903C14.3727 17.8063 14.778 17.1218 15.3318 17.4503C15.4669 17.5303 15.5847 17.6383 15.6976 17.7458C15.8407 17.8827 16.0038 18.0178 16.1296 18.1703C15.9985 18.32 15.8216 18.4454 15.6767 18.5845C15.5287 18.7271 15.3852 18.8743 15.246 19.0258C14.966 19.3311 14.7047 19.6534 14.4643 19.9911C14.3296 20.1805 14.2012 20.3751 14.0798 20.5738Z" fill="#6C5B50"/>
<path d="M17.1513 18.7522C17.3469 18.2085 17.0646 17.6092 16.5209 17.4136C15.9772 17.218 15.3779 17.5002 15.1823 18.0439C14.9867 18.5877 15.2689 19.187 15.8126 19.3826C16.3563 19.5782 16.9557 19.296 17.1513 18.7522Z" fill="#9E8777"/>
<path d="M16.0368 19.4622C15.4497 19.3907 15.0301 18.8551 15.1017 18.268C15.1733 17.6809 15.7088 17.2613 16.2959 17.3329C16.883 17.4045 17.3026 17.94 17.231 18.5271C17.1595 19.1142 16.6235 19.5338 16.0368 19.4622ZM16.2893 17.3853C15.731 17.3173 15.2217 17.7165 15.1537 18.2747C15.0857 18.8329 15.4848 19.3422 16.043 19.4102C16.6013 19.4782 17.1106 19.0791 17.1786 18.5209C17.2461 17.9627 16.8475 17.4533 16.2893 17.3853Z" fill="#5A4B42"/>
<path d="M16.624 18.4534C16.5934 18.7063 16.3636 18.8863 16.1107 18.8556C15.8578 18.8249 15.6778 18.5952 15.7085 18.3423C15.7391 18.0894 15.9689 17.9094 16.2218 17.94C16.4747 17.9707 16.6547 18.2005 16.624 18.4534Z" fill="#6C5B50"/>
<path d="M16.1182 18.6658C16.2502 19.0583 16.3742 19.4543 16.5151 19.8436C16.5391 19.9103 16.5737 19.9769 16.6369 20.0147C16.7084 20.0578 16.7915 20.0498 16.8666 20.0205C16.9489 19.988 17.0231 19.9316 17.0946 19.8805C17.1742 19.8236 17.2515 19.7636 17.3266 19.7009C17.392 19.6467 17.3106 19.5427 17.2453 19.5969C17.1222 19.7 16.9889 19.8156 16.8435 19.8863C16.776 19.9191 16.7062 19.9289 16.6644 19.8556C16.6266 19.7894 16.6084 19.7085 16.5844 19.6369C16.4697 19.2956 16.3546 18.9547 16.24 18.6134C16.212 18.5329 16.0911 18.5854 16.1182 18.6658Z" fill="#6C5B50"/>
<path d="M13.3853 19.8374C13.6684 20.0111 13.9253 20.2249 14.1457 20.4729C14.1817 20.5134 14.2484 20.4614 14.212 20.4209C13.9866 20.1671 13.7253 19.9476 13.436 19.7702C13.3906 19.7418 13.3391 19.8089 13.3853 19.8374Z" fill="#5A4B42"/>
<path d="M13.8358 19.2916C14.0966 19.448 14.3309 19.6449 14.5291 19.8756C14.5642 19.9165 14.6309 19.8649 14.5953 19.8236C14.3926 19.5871 14.1535 19.3845 13.8869 19.2245C13.8406 19.1969 13.7891 19.264 13.8358 19.2916Z" fill="#5A4B42"/>
<path d="M14.2619 18.5151C14.5339 18.7542 14.7753 19.0253 14.9828 19.3222C15.0139 19.3667 15.0801 19.3147 15.049 19.2702C14.8375 18.9676 14.5899 18.692 14.3126 18.448C14.2721 18.412 14.2215 18.4796 14.2619 18.5151Z" fill="#5A4B42"/>
<path d="M17.3516 15.6445C17.3565 15.8405 17.4458 16.0276 17.5858 16.1631C17.6551 16.2302 17.7422 16.2907 17.8347 16.32C17.8836 16.3356 17.9382 16.3387 17.9809 16.3058C18.0196 16.276 18.0365 16.228 18.048 16.1822C18.0854 16.0351 18.1054 15.884 18.1125 15.7325C18.1151 15.6787 18.0316 15.668 18.0289 15.7222C18.0236 15.8369 18.0102 15.9511 17.988 16.064C17.9787 16.1111 17.9716 16.1613 17.9525 16.2058C17.932 16.2525 17.8947 16.2533 17.8511 16.2365C17.6969 16.1782 17.5702 16.0507 17.5 15.9031C17.4591 15.8178 17.4374 15.7262 17.4351 15.6316C17.4334 15.5778 17.3502 15.5907 17.3516 15.6445Z" fill="#594A42"/>
<path d="M19.2852 13.88C19.2874 14.0871 19.3709 14.2867 19.5185 14.4329C19.5901 14.504 19.6807 14.5716 19.7794 14.5987C19.8305 14.6129 19.8856 14.6138 19.9327 14.5871C19.9807 14.56 20.0092 14.5124 20.0309 14.4636C20.0883 14.332 20.1052 14.1844 20.0847 14.0431C20.0767 13.9893 19.9936 14.0018 20.0012 14.0556C20.0203 14.1884 20.0043 14.3311 19.9434 14.452C19.9154 14.5076 19.8736 14.5347 19.8114 14.5204C19.7576 14.5084 19.7065 14.4764 19.662 14.4449C19.486 14.3187 19.3714 14.1076 19.3687 13.8902C19.3683 13.8671 19.3567 13.8467 19.3318 13.8431C19.3118 13.8404 19.2847 13.8573 19.2852 13.88Z" fill="#594A42"/>
<path d="M21.2917 12.4729C21.3232 12.6583 21.3899 12.8574 21.5579 12.9623C21.7055 13.0538 21.9046 13.0529 22.013 12.9018C22.0655 12.8289 22.0832 12.7374 22.0508 12.6525C22.0312 12.6018 21.9539 12.6351 21.9735 12.6858C22.0006 12.756 21.9703 12.8334 21.9179 12.8831C21.8543 12.944 21.7628 12.9551 21.681 12.9276C21.4819 12.8605 21.4072 12.6489 21.3752 12.46C21.3659 12.4076 21.2828 12.4196 21.2917 12.4729Z" fill="#594A42"/>
<path d="M22.9798 11.3143C23.0207 11.4178 23.0314 11.5294 23.0612 11.636C23.0874 11.7307 23.1309 11.8205 23.2047 11.8876C23.2669 11.9445 23.3572 11.9787 23.4412 11.9574C23.5167 11.9383 23.5781 11.8849 23.6154 11.8178C23.6563 11.744 23.6652 11.6511 23.6238 11.5756C23.5981 11.5285 23.5203 11.5614 23.5465 11.6089C23.6012 11.708 23.5336 11.8463 23.4261 11.8751C23.3594 11.8929 23.2905 11.8578 23.2452 11.8098C23.1883 11.7498 23.1567 11.6725 23.1372 11.5934C23.1114 11.4889 23.0976 11.3818 23.0581 11.2809C23.0372 11.2303 22.9598 11.2636 22.9798 11.3143Z" fill="#594A42"/>
<path d="M24.9078 10.2244C24.8465 10.4298 24.8211 10.6729 24.9691 10.8489C25.0318 10.9231 25.1202 10.9795 25.2189 10.9875C25.3087 10.9947 25.3927 10.9582 25.454 10.8938C25.5225 10.8222 25.5518 10.72 25.5158 10.6262C25.4962 10.5755 25.4189 10.6089 25.4385 10.6595C25.4687 10.7391 25.4207 10.8222 25.3558 10.868C25.2798 10.9218 25.182 10.9111 25.1069 10.8609C24.9056 10.7262 24.9242 10.4609 24.9851 10.2564C25.0011 10.2053 24.9234 10.1729 24.9078 10.2244Z" fill="#594A42"/>
<path d="M26.8736 9.32492C26.8838 9.51959 26.8238 9.7227 26.9332 9.89959C26.9767 9.97026 27.0447 10.0289 27.1283 10.0449C27.2056 10.0596 27.2847 10.0316 27.3438 9.98137C27.4145 9.92181 27.4616 9.84003 27.5043 9.75959C27.5296 9.71159 27.4514 9.68003 27.4265 9.72759C27.3874 9.80226 27.342 9.88137 27.2718 9.93115C27.2012 9.98137 27.1149 9.97115 27.0523 9.91381C26.8883 9.76315 26.9678 9.50626 26.9576 9.31248C26.954 9.25826 26.8705 9.27115 26.8736 9.32492Z" fill="#594A42"/>
<path d="M16.5438 17.3822C18.374 15.4089 20.4722 13.6884 22.7602 12.2729C25.0531 10.8542 27.5229 9.76931 30.1034 8.9942C30.354 8.91909 30.6349 8.8222 30.7745 8.58309C30.9082 8.3542 30.8567 8.06887 30.7185 7.85465C30.5536 7.5982 30.2665 7.46042 29.9825 7.37776C29.6767 7.28887 29.3585 7.23642 29.0438 7.19198C27.726 7.00487 26.3714 7.08442 25.0816 7.41109C23.8047 7.73465 22.5945 8.2982 21.5336 9.07953C20.9056 9.54176 20.3251 10.0644 19.702 10.5329C19.0976 10.9871 18.4598 11.4058 17.7914 11.7604C17.1598 12.096 16.4251 12.3866 15.6989 12.2298C15.0594 12.0915 14.5447 11.5929 14.3051 10.9946C13.7967 9.72531 14.5807 8.01554 15.9256 7.65909C16.2282 7.57865 16.542 7.5862 16.8358 7.69642C16.8865 7.71553 16.9189 7.63731 16.8678 7.61865C16.3069 7.40842 15.7034 7.56709 15.2247 7.90042C14.6949 8.26931 14.3278 8.83776 14.1611 9.45776C13.9954 10.0755 14.0416 10.7471 14.3629 11.3071C14.6482 11.8044 15.1225 12.1915 15.6882 12.3133C16.3665 12.4591 17.0594 12.2222 17.6611 11.9218C18.3251 11.5902 18.9571 11.1804 19.5567 10.7444C20.1998 10.2764 20.7931 9.7462 21.4256 9.26487C21.9838 8.84042 22.5798 8.47153 23.2136 8.17065C24.4358 7.5902 25.7722 7.25642 27.1234 7.18887C27.8034 7.15465 28.4874 7.18931 29.1602 7.29376C29.5056 7.34754 29.8722 7.40087 30.1945 7.54176C30.5136 7.68131 30.8162 7.98176 30.7629 8.35998C30.7122 8.7182 30.3314 8.8382 30.0331 8.92709C29.7034 9.02487 29.3749 9.12665 29.0487 9.23509C28.4096 9.44753 27.7776 9.68176 27.1545 9.93731C25.9078 10.448 24.6962 11.0431 23.5291 11.7155C21.1918 13.0626 19.034 14.7204 17.1376 16.64C16.9136 16.8666 16.6931 17.0973 16.4762 17.3311C16.4398 17.3711 16.5069 17.4218 16.5438 17.3822Z" fill="#6C5B50"/>
<path d="M16.8559 7.72265C17.0484 7.71287 17.2404 7.70309 17.4328 7.69287C17.6017 7.68398 17.8097 7.64354 17.9742 7.69865C18.1351 7.75287 18.1386 7.94665 18.2471 8.05865C18.3373 8.15154 18.4631 8.20931 18.5928 8.21109C18.8324 8.2142 19.0755 8.01776 19.0773 7.76843C19.0782 7.6622 19.0284 7.55687 18.9248 7.5182C18.8315 7.48354 18.7248 7.50843 18.6715 7.59465C18.6431 7.64043 18.7102 7.69198 18.7386 7.64576C18.7737 7.58887 18.8444 7.57287 18.9048 7.60043C18.9835 7.63598 19.0013 7.73243 18.9897 7.80887C18.9702 7.93865 18.8688 8.04665 18.7502 8.09598C18.6279 8.14665 18.4897 8.13243 18.3791 8.05954C18.2604 7.98131 18.2404 7.86976 18.1751 7.75598C18.0808 7.59198 17.8764 7.58709 17.7084 7.59465C17.4199 7.60709 17.1315 7.62443 16.8431 7.63909C16.7893 7.6422 16.8022 7.72531 16.8559 7.72265Z" fill="#594A42"/>
<path d="M17.1096 7.98134C16.8549 8.00268 16.6314 7.81379 16.61 7.55912C16.5887 7.30445 16.7776 7.0809 17.0323 7.05957C17.2869 7.03823 17.5105 7.22712 17.5318 7.48179C17.5536 7.73645 17.3643 7.96001 17.1096 7.98134Z" fill="#6C5B50"/>
<path d="M16.61 7.55913C16.6314 7.81379 16.8549 8.00268 17.1096 7.98135L17.0323 7.05957C16.778 7.0809 16.5887 7.30446 16.61 7.55913Z" fill="#9E8777"/>
</g>
<g opacity="0.92">
<path d="M45.2824 29.7839C45.4611 30.6693 45.6104 31.5608 45.7304 32.4559C45.7473 32.5808 45.762 32.7146 45.7037 32.8266C45.6308 32.967 45.4664 33.0293 45.3162 33.079C44.5508 33.3319 43.7771 33.5604 42.9966 33.7635C42.7566 33.8262 42.4833 33.8813 42.2744 33.7466C41.9691 33.5493 42.0162 33.0604 42.2553 32.787C42.4944 32.5137 42.8531 32.3848 43.1735 32.2133C43.2962 32.1475 43.4211 32.067 43.4806 31.9413C43.5242 31.8484 43.5268 31.7426 43.5264 31.6399C43.5242 31.1408 43.4691 30.6422 43.3624 30.1546C43.9691 30.0355 44.6757 29.9026 45.2824 29.7839Z" fill="#9E8777"/>
<path d="M42.1482 33.6382C42.2931 33.8968 42.6202 33.8564 42.8633 33.7986C43.1975 33.719 43.5313 33.6373 43.8629 33.5484C44.19 33.4608 44.5153 33.3657 44.8353 33.2546C44.9953 33.199 45.1535 33.1399 45.3104 33.0759C45.4291 33.0275 45.562 32.9817 45.654 32.8884C45.7633 32.7782 45.762 32.6248 45.754 32.4795C45.7433 32.2915 45.7113 32.1057 45.6615 31.9244C45.6584 31.9124 45.6438 31.9062 45.6331 31.9128C45.2202 32.1675 44.9811 32.6586 45.0384 33.1408C45.0415 33.1653 45.0802 33.1657 45.0775 33.1408C45.022 32.6724 45.2509 32.1946 45.6531 31.9466C45.6438 31.9426 45.634 31.939 45.6247 31.935C45.6669 32.0879 45.6967 32.2439 45.7104 32.4022C45.7233 32.5475 45.746 32.7288 45.6411 32.847C45.5518 32.9475 45.41 32.9942 45.2891 33.0435C45.1487 33.1008 45.0064 33.1542 44.8629 33.2044C44.2931 33.4044 43.7069 33.5537 43.1207 33.6964C42.8433 33.7639 42.3673 33.9466 42.1833 33.6186C42.1695 33.5964 42.1358 33.6159 42.1482 33.6382Z" fill="#6C5B50"/>
<path d="M42.3955 32.6848C42.516 32.6991 42.6186 32.7795 42.7035 32.8608C42.7813 32.9351 42.8484 33.0204 42.9062 33.1111C43.0226 33.2928 43.1053 33.4933 43.1857 33.6928C43.1951 33.716 43.2328 33.7057 43.2231 33.6826C43.1355 33.4653 43.0457 33.2457 42.9128 33.0511C42.7946 32.8777 42.616 32.6724 42.3951 32.6462C42.3706 32.6431 42.3711 32.6822 42.3955 32.6848Z" fill="#6C5B50"/>
<path d="M42.8759 32.9955C43.1999 32.8644 43.5243 32.7084 43.7697 32.4533C43.8772 32.3413 43.9679 32.2124 44.0288 32.0693C44.1017 31.8977 44.1199 31.7142 44.1208 31.5293C44.1226 31.1231 44.0835 30.7155 44.0123 30.3159C43.9848 30.1608 43.9599 29.9826 43.8452 29.8644C43.7577 29.7737 43.6146 29.7257 43.4999 29.7937C43.3483 29.8839 43.3417 30.0813 43.3643 30.2355C43.3981 30.4648 43.4439 30.6928 43.4843 30.9213C43.4888 30.9457 43.5261 30.9355 43.5217 30.9111C43.4906 30.7351 43.4599 30.5591 43.4288 30.3835C43.4003 30.2204 43.3448 30.0146 43.4652 29.8742C43.5946 29.7226 43.7977 29.8306 43.8768 29.9742C43.9519 30.1106 43.9683 30.2813 43.9928 30.4328C44.0501 30.7862 44.0808 31.1448 44.0817 31.5031C44.0821 31.6742 44.071 31.8466 44.011 32.0088C43.9586 32.1515 43.8737 32.2817 43.7719 32.3942C43.5283 32.6631 43.1963 32.8244 42.8652 32.9586C42.8426 32.9675 42.8528 33.0048 42.8759 32.9955Z" fill="#6C5B50"/>
<path d="M45.3603 30.1995C45.335 30.0666 45.3092 29.9337 45.2843 29.8008C45.2732 29.7417 45.2616 29.6768 45.2963 29.6231C45.3265 29.5755 45.3799 29.5475 45.4283 29.5213C45.4505 29.5093 45.4305 29.4759 45.4088 29.4875C45.3603 29.5137 45.3096 29.5426 45.275 29.5866C45.2359 29.6368 45.2305 29.6968 45.2385 29.7582C45.2585 29.9093 45.295 30.0599 45.3234 30.2097C45.3274 30.2342 45.3648 30.2239 45.3603 30.1995Z" fill="#79746F"/>
<path d="M42.7099 32.4964C42.9526 32.592 43.1686 32.7471 43.3401 32.9435C43.3917 33.0026 43.4775 32.9164 43.4264 32.8573C43.2406 32.6449 43.0046 32.4822 42.7424 32.3791C42.7117 32.3671 42.6757 32.3924 42.6673 32.4218C42.6579 32.456 42.6792 32.4844 42.7099 32.4964Z" fill="#6C5B50"/>
<path d="M43.1905 32.212C43.4181 32.308 43.635 32.4302 43.8368 32.5724C43.8634 32.5915 43.9043 32.5773 43.9199 32.5506C43.9376 32.52 43.9248 32.4862 43.8981 32.4675C43.687 32.3186 43.4608 32.1951 43.223 32.0946C43.1928 32.0818 43.1559 32.1084 43.1479 32.1373C43.1381 32.1724 43.1599 32.1991 43.1905 32.212Z" fill="#6C5B50"/>
<path d="M43.5003 31.867C43.7123 31.8902 43.9235 31.9208 44.1337 31.9582C44.1661 31.9639 44.1995 31.9493 44.2088 31.9155C44.2168 31.8862 44.199 31.8462 44.1661 31.8404C43.9452 31.8013 43.7235 31.7693 43.5003 31.7448C43.4675 31.7413 43.4395 31.7755 43.4395 31.8057C43.4395 31.8422 43.4675 31.8635 43.5003 31.867Z" fill="#6C5B50"/>
<path d="M43.5192 31.3791C43.781 31.3 44.0526 31.2671 44.3259 31.2813C44.4041 31.2853 44.4041 31.1635 44.3259 31.1595C44.0428 31.1449 43.7584 31.1795 43.4868 31.2617C43.4121 31.284 43.4441 31.4017 43.5192 31.3791Z" fill="#6C5B50"/>
<path d="M43.4345 30.6688C43.5625 30.6582 43.6851 30.6213 43.8114 30.5986C43.9185 30.5791 44.0371 30.5733 44.1376 30.6217C44.2078 30.6555 44.2696 30.5506 44.1989 30.5164C44.082 30.46 43.9558 30.4551 43.8291 30.4728C43.6967 30.4915 43.5683 30.5355 43.4345 30.5466C43.3567 30.5537 43.3563 30.6755 43.4345 30.6688Z" fill="#6C5B50"/>
<path d="M43.0842 34.772C43.3783 34.772 43.6166 34.5336 43.6166 34.2395C43.6166 33.9455 43.3783 33.7071 43.0842 33.7071C42.7901 33.7071 42.5518 33.9455 42.5518 34.2395C42.5518 34.5336 42.7901 34.772 43.0842 34.772Z" fill="#CFBFB3"/>
<path d="M43.0845 34.7844C42.784 34.7844 42.54 34.54 42.54 34.24C42.54 33.9395 42.7845 33.6951 43.0845 33.6951C43.3849 33.6951 43.6289 33.9395 43.6289 34.24C43.6289 34.54 43.3845 34.7844 43.0845 34.7844ZM43.0845 33.7195C42.7974 33.7195 42.564 33.9528 42.564 34.24C42.564 34.5271 42.7974 34.7604 43.0845 34.7604C43.3716 34.7604 43.6049 34.5271 43.6049 34.24C43.6045 33.9528 43.3712 33.7195 43.0845 33.7195Z" fill="#6C5B50"/>
<path d="M43.0839 34.463C43.2074 34.463 43.3075 34.363 43.3075 34.2395C43.3075 34.116 43.2074 34.0159 43.0839 34.0159C42.9604 34.0159 42.8604 34.116 42.8604 34.2395C42.8604 34.363 42.9604 34.463 43.0839 34.463Z" fill="#6C5B50"/>
<path d="M43.3781 33.9071C43.4536 34.0271 43.4923 34.1666 43.4883 34.3088C43.4879 34.3337 43.5265 34.3337 43.5274 34.3088C43.5314 34.1604 43.491 34.0133 43.4119 33.8875C43.3981 33.8662 43.3648 33.8857 43.3781 33.9071Z" fill="#6C5B50"/>
<path d="M43.429 34.484C43.4418 34.4627 43.4543 34.4418 43.4672 34.4204C43.4725 34.4115 43.4694 34.3986 43.4601 34.3938C43.4507 34.3889 43.4392 34.3915 43.4334 34.4009C43.4205 34.4222 43.4081 34.4431 43.3952 34.4644C43.3898 34.4733 43.393 34.4862 43.4023 34.4911C43.4116 34.496 43.4232 34.4933 43.429 34.484Z" fill="#6C5B50"/>
<path d="M42.7478 34.0071C42.6558 34.16 42.6745 34.3635 42.7901 34.4986C42.8065 34.5177 42.8336 34.4902 42.8176 34.4711C42.7132 34.3493 42.6985 34.164 42.7812 34.0266C42.7941 34.0053 42.7607 33.9857 42.7478 34.0071Z" fill="#6C5B50"/>
<path d="M42.8982 34.5818C42.9062 34.5835 42.9142 34.5858 42.9222 34.5889C42.9235 34.5893 42.9244 34.5898 42.9258 34.5902C42.9262 34.5902 42.9293 34.5915 42.9267 34.5906C42.924 34.5898 42.9271 34.5911 42.9275 34.5911C42.9284 34.5915 42.9293 34.592 42.9302 34.5924C42.9342 34.5942 42.9382 34.5964 42.9418 34.5986C42.9453 34.6009 42.9489 34.6026 42.9524 34.6053C42.9542 34.6062 42.9555 34.6075 42.9573 34.6084C42.9582 34.6089 42.9591 34.6098 42.9595 34.6102C42.9595 34.6102 42.9635 34.6133 42.9609 34.6115C42.9587 34.6098 42.9613 34.612 42.9618 34.6124C42.9627 34.6129 42.9631 34.6138 42.964 34.6142C42.9658 34.6155 42.9675 34.6169 42.9689 34.6186C42.972 34.6218 42.9751 34.6249 42.9782 34.628C42.9853 34.6355 42.9987 34.6355 43.0058 34.628C43.0129 34.62 43.0133 34.6084 43.0058 34.6004C42.9795 34.5729 42.9449 34.5533 42.908 34.5449C42.8982 34.5426 42.8867 34.548 42.884 34.5586C42.8827 34.568 42.888 34.5795 42.8982 34.5818Z" fill="#6C5B50"/>
<path d="M45.9478 33.623C45.9948 33.3327 45.7975 33.0593 45.5072 33.0124C45.2169 32.9654 44.9435 33.1627 44.8966 33.4529C44.8496 33.7432 45.0469 34.0166 45.3372 34.0636C45.6274 34.1106 45.9009 33.9133 45.9478 33.623Z" fill="#CFBFB3"/>
<path d="M45.4224 34.0853C45.1219 34.0853 44.8779 33.8408 44.8779 33.5408C44.8779 33.2404 45.1224 32.9964 45.4224 32.9964C45.7228 32.9964 45.9668 33.2408 45.9668 33.5408C45.9668 33.8413 45.7224 34.0853 45.4224 34.0853ZM45.4224 33.0204C45.1353 33.0204 44.9019 33.2537 44.9019 33.5408C44.9019 33.828 45.1353 34.0613 45.4224 34.0613C45.7095 34.0613 45.9428 33.828 45.9428 33.5408C45.9424 33.2537 45.709 33.0204 45.4224 33.0204Z" fill="#6C5B50"/>
<path d="M45.6454 33.5408C45.6454 33.6644 45.5454 33.7644 45.4218 33.7644C45.2982 33.7644 45.1982 33.6644 45.1982 33.5408C45.1982 33.4173 45.2982 33.3173 45.4218 33.3173C45.5454 33.3168 45.6454 33.4173 45.6454 33.5408Z" fill="#6C5B50"/>
<path d="M45.7159 33.2079C45.7915 33.3279 45.8302 33.4675 45.8262 33.6097C45.8257 33.6346 45.8644 33.6346 45.8653 33.6097C45.8693 33.4613 45.8288 33.3142 45.7497 33.1884C45.7364 33.1675 45.7026 33.187 45.7159 33.2079Z" fill="#6C5B50"/>
<path d="M45.7668 33.7848C45.7797 33.7635 45.7922 33.7426 45.8051 33.7213C45.8104 33.7124 45.8073 33.6995 45.798 33.6946C45.7886 33.6897 45.7771 33.6924 45.7713 33.7017C45.7584 33.723 45.746 33.7439 45.7331 33.7653C45.7277 33.7742 45.7308 33.787 45.7402 33.7919C45.7495 33.7968 45.7611 33.7942 45.7668 33.7848Z" fill="#6C5B50"/>
<path d="M45.0857 33.3084C44.9937 33.4613 45.0124 33.6649 45.128 33.8C45.1444 33.8191 45.1715 33.7915 45.1555 33.7724C45.0511 33.6506 45.0364 33.4653 45.1191 33.328C45.1324 33.3066 45.0986 33.2871 45.0857 33.3084Z" fill="#6C5B50"/>
<path d="M45.2362 33.8831C45.2442 33.8849 45.2522 33.8871 45.2602 33.8902C45.2616 33.8906 45.2625 33.8911 45.2638 33.8915C45.2642 33.8915 45.2674 33.8929 45.2647 33.892C45.262 33.8911 45.2651 33.8924 45.2656 33.8924C45.2665 33.8929 45.2674 33.8933 45.2682 33.8938C45.2722 33.8955 45.2762 33.8978 45.2798 33.9C45.2833 33.9022 45.2869 33.904 45.2905 33.9066C45.2922 33.9075 45.2936 33.9089 45.2954 33.9098C45.2962 33.9102 45.2971 33.9111 45.2976 33.9115C45.2976 33.9115 45.3016 33.9146 45.2989 33.9129C45.2967 33.9111 45.2993 33.9133 45.2998 33.9138C45.3007 33.9142 45.3011 33.9151 45.302 33.9155C45.3038 33.9169 45.3056 33.9182 45.3069 33.92C45.31 33.9231 45.3131 33.9262 45.3162 33.9293C45.3233 33.9369 45.3367 33.9369 45.3438 33.9293C45.3509 33.9213 45.3513 33.9098 45.3438 33.9018C45.3176 33.8742 45.2829 33.8546 45.246 33.8462C45.2362 33.844 45.2247 33.8493 45.222 33.86C45.2202 33.8689 45.2256 33.8809 45.2362 33.8831Z" fill="#6C5B50"/>
<path d="M43.0701 27.9551C43.0021 28.856 42.9047 29.7542 42.7776 30.6484C42.7598 30.7733 42.7376 30.9062 42.6514 30.9977C42.543 31.1129 42.3683 31.1284 42.2101 31.1355C41.4047 31.172 40.5981 31.1822 39.7918 31.1662C39.5438 31.1613 39.2656 31.1404 39.1012 30.9546C38.8607 30.6822 39.0385 30.224 39.343 30.0257C39.6474 29.8275 40.0274 29.8009 40.3821 29.7217C40.5181 29.6915 40.6603 29.648 40.7514 29.5431C40.8185 29.4657 40.8496 29.3644 40.8772 29.2653C41.0101 28.7844 41.0923 28.2893 41.1216 27.7911C41.7381 27.8413 42.4541 27.9049 43.0701 27.9551Z" fill="#9E8777"/>
<path d="M39.0105 30.8164C39.0776 31.0947 39.3882 31.1524 39.6322 31.1631C39.974 31.1782 40.3167 31.1889 40.6589 31.1938C41.0113 31.1987 41.3642 31.1951 41.7162 31.1738C41.8873 31.1636 42.0585 31.1484 42.2291 31.1289C42.354 31.1142 42.4918 31.1049 42.6016 31.0364C42.7313 30.9556 42.7678 30.8049 42.798 30.6649C42.8367 30.4849 42.8553 30.3018 42.8562 30.1182C42.8562 30.1058 42.8438 30.096 42.8318 30.0996C42.3656 30.2329 42.0025 30.6413 41.9269 31.1204C41.9229 31.1449 41.9607 31.1556 41.9642 31.1307C42.0376 30.6644 42.3878 30.2667 42.842 30.1369C42.834 30.1307 42.8256 30.1244 42.8176 30.1182C42.8167 30.2724 42.8038 30.4262 42.7758 30.5782C42.7509 30.7142 42.7269 30.8876 42.6131 30.98C42.5051 31.0684 42.3487 31.076 42.2158 31.0916C42.0589 31.1098 41.9011 31.1236 41.7433 31.1333C41.1291 31.1724 40.5131 31.156 39.8989 31.1342C39.6189 31.1244 39.1345 31.1631 39.0482 30.8062C39.042 30.7818 39.0042 30.7924 39.0105 30.8164Z" fill="#6C5B50"/>
<path d="M39.506 29.9658C39.7073 30.0493 39.8189 30.3098 39.8793 30.504C39.9447 30.7138 39.97 30.9329 39.994 31.1502C39.9967 31.1746 40.0358 31.1751 40.0331 31.1502C40.0069 30.9102 39.9789 30.6671 39.8989 30.4382C39.8313 30.2453 39.7167 30.0115 39.5167 29.9284C39.4931 29.9186 39.4833 29.9564 39.506 29.9658Z" fill="#6C5B50"/>
<path d="M39.8837 30.3946C40.242 30.3551 40.6082 30.2897 40.9193 30.0973C41.0544 30.0137 41.1762 29.9084 41.2708 29.7804C41.3784 29.6351 41.4388 29.4644 41.4868 29.292C41.5931 28.9093 41.6642 28.516 41.7033 28.1209C41.7193 27.9586 41.7446 27.7715 41.6544 27.6249C41.5877 27.5169 41.4597 27.4417 41.3331 27.4871C41.1722 27.5449 41.1197 27.724 41.1006 27.8764C41.0726 28.1044 41.054 28.3337 41.0308 28.5626C41.0282 28.5875 41.0673 28.5875 41.07 28.5626C41.0877 28.3849 41.1055 28.2071 41.1237 28.0293C41.1393 27.8729 41.1415 27.6813 41.2704 27.5693C41.4268 27.4333 41.6148 27.5689 41.6611 27.7382C41.7046 27.8969 41.6708 28.0782 41.6522 28.2386C41.6117 28.5862 41.5455 28.9315 41.4531 29.2689C41.4095 29.4284 41.3562 29.5871 41.2624 29.7249C41.1753 29.8537 41.0575 29.9609 40.9273 30.0458C40.6171 30.2475 40.2455 30.3151 39.8837 30.3551C39.8593 30.3586 39.8588 30.3977 39.8837 30.3946Z" fill="#6C5B50"/>
<path d="M43.0325 28.376C43.0441 28.2395 43.0557 28.1031 43.0677 27.9666C43.073 27.908 43.081 27.8435 43.1285 27.8026C43.1708 27.7662 43.2285 27.7537 43.2819 27.7417C43.3063 27.7364 43.2961 27.6986 43.2716 27.7044C43.217 27.7168 43.1597 27.7306 43.1143 27.7653C43.0641 27.8031 43.0432 27.8595 43.0348 27.92C43.0139 28.0706 43.0072 28.2248 42.9943 28.3768C42.9912 28.4008 43.0303 28.4008 43.0325 28.376Z" fill="#6C5B50"/>
<path d="M39.8604 29.8702C40.0684 30.028 40.2341 30.2364 40.3461 30.4715C40.3604 30.5013 40.4026 30.5089 40.4292 30.4933C40.4595 30.4755 40.4652 30.44 40.451 30.4102C40.3297 30.1551 40.1466 29.9355 39.9217 29.7649C39.8955 29.7449 39.8537 29.7609 39.8386 29.7866C39.8199 29.8182 39.8341 29.8502 39.8604 29.8702Z" fill="#6C5B50"/>
<path d="M40.3868 29.7168C40.5842 29.8742 40.7642 30.0528 40.9233 30.2488C40.9442 30.2742 40.9877 30.2702 41.0095 30.2488C41.0348 30.2235 41.0304 30.1884 41.0095 30.1626C40.8504 29.9666 40.6704 29.788 40.4731 29.6306C40.4473 29.6102 40.4122 29.6057 40.3868 29.6306C40.3655 29.652 40.3611 29.696 40.3868 29.7168Z" fill="#6C5B50"/>
<path d="M40.7912 29.4778C40.9895 29.5578 41.1846 29.6444 41.3766 29.7373C41.4063 29.7515 41.4423 29.7453 41.4597 29.7155C41.4752 29.6889 41.4677 29.6467 41.4379 29.6324C41.2361 29.5351 41.0312 29.4444 40.8232 29.3609C40.7926 29.3484 40.7561 29.3742 40.7481 29.4035C40.7392 29.4378 40.7606 29.4653 40.7912 29.4778Z" fill="#6C5B50"/>
<path d="M40.9418 29.0128C41.2151 29.0075 41.4858 29.0497 41.7449 29.1373C41.8191 29.1626 41.8511 29.0448 41.7774 29.02C41.5089 28.9288 41.2254 28.8857 40.9418 28.8911C40.8631 28.8928 40.8631 29.0146 40.9418 29.0128Z" fill="#6C5B50"/>
<path d="M41.0519 28.3066C41.1839 28.332 41.3186 28.328 41.4519 28.3426C41.5546 28.3538 41.663 28.3822 41.7421 28.4524C41.8008 28.504 41.887 28.4182 41.8284 28.3662C41.6186 28.1809 41.3381 28.2378 41.0848 28.1893C41.0075 28.1746 40.9746 28.292 41.0519 28.3066Z" fill="#6C5B50"/>
<path d="M40.2592 31.7929C40.1796 32.076 39.8854 32.2409 39.6023 32.1613C39.3192 32.0817 39.1543 31.7875 39.2339 31.5044C39.3134 31.2213 39.6076 31.0564 39.8908 31.136C40.1739 31.216 40.3388 31.5097 40.2592 31.7929Z" fill="#CFBFB3"/>
<path d="M39.7465 32.1933C39.6977 32.1933 39.6483 32.1866 39.5994 32.1729C39.3105 32.0915 39.1412 31.7902 39.2225 31.5009C39.3039 31.212 39.6052 31.0426 39.8945 31.124C40.1834 31.2053 40.3528 31.5066 40.2714 31.796C40.2034 32.0364 39.9843 32.1933 39.7465 32.1933ZM39.747 31.1284C39.5199 31.1284 39.3105 31.2786 39.2461 31.508C39.1683 31.784 39.3297 32.072 39.6061 32.1497C39.8821 32.2275 40.1701 32.0662 40.2479 31.7897C40.3257 31.5137 40.1643 31.2257 39.8879 31.148C39.8408 31.1346 39.7937 31.1284 39.747 31.1284Z" fill="#6C5B50"/>
<path d="M39.9617 31.7093C39.9283 31.8284 39.8048 31.8977 39.6857 31.864C39.5666 31.8306 39.4972 31.7071 39.531 31.588C39.5643 31.4688 39.6879 31.3995 39.807 31.4333C39.9261 31.4671 39.9955 31.5906 39.9617 31.7093Z" fill="#6C5B50"/>
<path d="M40.1199 31.4084C40.1603 31.5444 40.1594 31.6893 40.1172 31.8249C40.1096 31.8489 40.1474 31.8591 40.1545 31.8351C40.1985 31.6933 40.1994 31.5404 40.1572 31.3982C40.1501 31.3742 40.1128 31.3844 40.1199 31.4084Z" fill="#6C5B50"/>
<path d="M40.0127 31.9769C40.0305 31.96 40.0487 31.9431 40.0665 31.9262C40.074 31.9191 40.074 31.9057 40.0665 31.8986C40.0585 31.8915 40.0469 31.8911 40.0389 31.8986C40.0212 31.9155 40.0029 31.9324 39.9852 31.9493C39.9776 31.9564 39.9776 31.9697 39.9852 31.9769C39.9932 31.9844 40.0052 31.9844 40.0127 31.9769Z" fill="#6C5B50"/>
<path d="M39.486 31.3342C39.3558 31.4564 39.3189 31.6577 39.394 31.8186C39.4046 31.8413 39.438 31.8217 39.4278 31.7991C39.3598 31.6537 39.3971 31.4711 39.5135 31.3617C39.5318 31.3444 39.5042 31.3173 39.486 31.3342Z" fill="#6C5B50"/>
<path d="M39.4751 31.928C39.4827 31.932 39.4898 31.9364 39.4965 31.9413C39.4978 31.9422 39.5 31.9448 39.496 31.9408C39.4969 31.9413 39.4974 31.9422 39.4982 31.9426C39.5 31.944 39.5014 31.9453 39.5031 31.9466C39.5062 31.9493 39.5094 31.9524 39.5125 31.9555C39.5156 31.9586 39.5182 31.9617 39.5209 31.9649C39.5222 31.9662 39.5236 31.968 39.5245 31.9693C39.5254 31.9706 39.5267 31.9733 39.5245 31.9688C39.5249 31.9697 39.5258 31.9706 39.5267 31.9715C39.5316 31.9782 39.536 31.9857 39.54 31.9929C39.5449 32.0017 39.5582 32.0053 39.5667 32C39.576 31.9942 39.5787 31.9831 39.5738 31.9733C39.556 31.94 39.528 31.9115 39.4947 31.8937C39.4858 31.8888 39.4729 31.8911 39.468 31.9009C39.4636 31.9106 39.4658 31.9231 39.4751 31.928Z" fill="#6C5B50"/>
<path d="M42.1867 32.1417C42.4808 32.1417 42.7192 31.9034 42.7192 31.6093C42.7192 31.3152 42.4808 31.0768 42.1867 31.0768C41.8927 31.0768 41.6543 31.3152 41.6543 31.6093C41.6543 31.9034 41.8927 32.1417 42.1867 32.1417Z" fill="#CFBFB3"/>
<path d="M42.187 32.1537C42.1381 32.1537 42.0887 32.1471 42.0399 32.1333C41.751 32.052 41.5816 31.7506 41.663 31.4613C41.7025 31.3213 41.7941 31.2048 41.9207 31.1337C42.0479 31.0626 42.1945 31.0453 42.3345 31.0844C42.6234 31.1657 42.7927 31.4671 42.7114 31.7564C42.6439 31.9968 42.4247 32.1537 42.187 32.1537ZM42.1861 31.0888C42.0981 31.0888 42.011 31.1115 41.9323 31.1555C41.811 31.2235 41.7234 31.3346 41.6861 31.4684C41.6083 31.7444 41.7701 32.0324 42.0461 32.1102C42.1799 32.148 42.3203 32.1311 42.4416 32.0631C42.563 31.9951 42.6505 31.884 42.6879 31.7502C42.7656 31.4742 42.6039 31.1862 42.3279 31.1084C42.2812 31.0951 42.2336 31.0888 42.1861 31.0888Z" fill="#6C5B50"/>
<path d="M42.4021 31.6697C42.3688 31.7889 42.2452 31.8582 42.1261 31.8244C42.007 31.7911 41.9377 31.6675 41.9714 31.5484C42.0048 31.4293 42.1283 31.36 42.2474 31.3937C42.3661 31.4275 42.4354 31.5511 42.4021 31.6697Z" fill="#6C5B50"/>
<path d="M42.5603 31.3689C42.6007 31.5049 42.5999 31.6498 42.5576 31.7853C42.5501 31.8093 42.5879 31.8195 42.595 31.7955C42.639 31.6538 42.6399 31.5009 42.5976 31.3587C42.5905 31.3347 42.5532 31.3449 42.5603 31.3689Z" fill="#6C5B50"/>
<path d="M42.4531 31.9373C42.4709 31.9204 42.4891 31.9035 42.5069 31.8866C42.5145 31.8795 42.5145 31.8662 42.5069 31.8591C42.4989 31.852 42.4874 31.8515 42.4794 31.8591C42.4616 31.876 42.4434 31.8929 42.4256 31.9097C42.418 31.9169 42.418 31.9302 42.4256 31.9373C42.4336 31.9449 42.4451 31.9449 42.4531 31.9373Z" fill="#6C5B50"/>
<path d="M41.9264 31.2946C41.7962 31.4169 41.7593 31.6182 41.8344 31.7791C41.8451 31.8017 41.8784 31.7822 41.8682 31.7595C41.8002 31.6142 41.8375 31.4315 41.954 31.3222C41.9722 31.3049 41.9446 31.2777 41.9264 31.2946Z" fill="#6C5B50"/>
<path d="M41.9159 31.8884C41.9234 31.8924 41.9305 31.8969 41.9372 31.9017C41.9385 31.9026 41.9408 31.9053 41.9368 31.9013C41.9376 31.9017 41.9381 31.9026 41.939 31.9031C41.9408 31.9044 41.9421 31.9057 41.9439 31.9071C41.947 31.9097 41.9501 31.9129 41.9532 31.916C41.9563 31.9191 41.959 31.9222 41.9616 31.9253C41.963 31.9266 41.9643 31.9284 41.9652 31.9297C41.9661 31.9311 41.9674 31.9337 41.9652 31.9293C41.9656 31.9302 41.9665 31.9311 41.9674 31.932C41.9723 31.9386 41.9768 31.9462 41.9808 31.9533C41.9856 31.9622 41.999 31.9657 42.0074 31.9604C42.0168 31.9546 42.0194 31.9435 42.0145 31.9337C41.9968 31.9004 41.9688 31.872 41.9354 31.8542C41.9265 31.8493 41.9136 31.8515 41.9088 31.8613C41.9039 31.8711 41.9061 31.8835 41.9159 31.8884Z" fill="#6C5B50"/>
</g>
</g>
</g>
<defs>
<clipPath id="clip0_1141_49366">
<rect width="48" height="48" rx="24" fill="white"/>
</clipPath>
<clipPath id="clip1_1141_49366">
<rect width="48" height="48" fill="white"/>
</clipPath>
</defs>
</svg>
