<svg width="48" height="48" viewBox="0 0 48 48" fill="none" xmlns="http://www.w3.org/2000/svg">
<g clip-path="url(#clip0_1141_49371)">
<rect width="48" height="48" rx="24" fill="white"/>
<g clip-path="url(#clip1_1141_49371)">
<g opacity="0.48">
<path d="M4.41636 38.7528C3.28214 36.4351 5.09769 34.0617 6.25458 31.1293C7.11725 28.9426 5.58747 26.7559 5.13636 24.5048C4.73503 22.5013 4.76925 20.1804 5.12081 18.1333C5.60125 15.3382 6.83325 12.6675 8.67903 10.9253C11.5546 8.21016 15.5057 8.08172 18.8257 9.39505C20.2164 9.94528 21.5715 10.7293 23.0439 10.8093C25.1915 10.9262 27.2315 9.54483 29.2888 8.62883C32.0897 7.38216 35.1964 6.98661 37.919 8.2075C41.0057 9.59194 43.2884 13.2071 43.1777 17.4631C43.1275 19.3915 41.3635 22.5004 41.6333 24.3826C41.907 26.2919 44.7244 32.4795 44.1741 36.7235C43.5608 41.4555 39.3412 43.0604 35.8021 45.1568C27.9541 49.8066 6.59058 43.1964 4.41636 38.7528Z" fill="#F2DDD2"/>
<path d="M13.2005 38.976C11.1259 38.552 9.68366 36.6306 9.83966 34.4978C9.9561 32.9044 10.1863 31.2391 10.6365 30.3751C11.3992 28.9111 10.4232 27.3097 10.2348 25.7253C10.0672 24.3151 10.2361 22.7111 10.6192 21.3142C11.1419 19.4071 12.2032 17.6298 13.653 16.5298C15.9117 14.8164 18.7917 14.9546 21.1237 16.0555C22.1005 16.5164 23.037 17.1373 24.1019 17.2777C25.6557 17.4826 27.2241 16.644 28.7765 16.1284C30.8899 15.4271 33.1726 15.332 35.0757 16.3342C37.2334 17.4702 38.6681 20.1044 38.3237 23.044C38.1677 24.376 36.6921 26.4262 36.7717 27.7449C36.8521 29.0822 38.4868 33.5209 37.8526 36.4333C37.5503 37.8226 35.4681 39.4302 33.1512 40.8289C29.2174 43.204 24.3463 43.3782 20.2348 41.2902C17.9192 40.1142 15.2632 39.3973 13.2005 38.976Z" fill="#CFBFB3"/>
<path d="M16.4349 34.6488C16.4096 34.6261 16.3851 34.6021 16.362 34.5768C15.8669 34.0403 15.9825 33.0186 16.0171 32.3448C16.0696 31.3199 16.3909 30.3092 16.5847 29.3075C16.8056 28.1657 16.598 27.1532 16.5531 26.0315C16.5131 25.0332 16.7065 23.9346 17.0314 23.0026C17.4749 21.7297 18.2696 20.6026 19.2874 19.987C20.8736 19.0275 22.7785 19.4203 24.2709 20.4261C24.8958 20.8475 25.4865 21.3755 26.1865 21.583C27.2074 21.8852 28.2914 21.4635 29.3483 21.2648C30.7865 20.9946 32.3069 21.1635 33.5198 22.0563C34.8949 23.0688 35.714 25.0488 35.3367 27.0581C35.1656 27.9688 34.7674 28.8363 34.7531 29.7617C34.7389 30.7003 35.0842 31.5332 35.2087 32.4355C35.3056 33.1368 34.5598 34.0417 34.1647 34.5555C33.6207 35.2635 32.9763 35.8919 32.2589 36.4195C30.8318 37.4688 29.1051 38.1195 27.3309 38.1666C25.3585 38.219 23.4336 37.5746 21.5825 36.8732C20.0558 36.295 18.5451 35.6723 17.0531 35.0066C16.8345 34.9097 16.6118 34.8079 16.4349 34.6488Z" fill="#DCCFC6"/>
<path d="M22.5369 7.0726C22.6978 6.12421 22.0474 5.22297 21.0842 5.05962C20.1211 4.89628 19.2099 5.53269 19.049 6.48108C18.8882 7.42948 19.5386 8.33072 20.5018 8.49406C21.4649 8.6574 22.3761 8.02099 22.5369 7.0726Z" fill="#F2DDD2"/>
<path d="M6.03687 9.89768C6.22487 10.1586 6.59109 10.2204 6.85465 10.0364C7.1182 9.85235 7.17954 9.49191 6.99109 9.23102C6.80309 8.97013 6.43687 8.90835 6.17332 9.09235C5.90976 9.27635 5.84887 9.63724 6.03687 9.89768Z" fill="#F2DDD2"/>
<path d="M45.1062 11.1746C45.2942 11.4355 45.6604 11.4973 45.924 11.3133C46.1875 11.1293 46.2489 10.7688 46.0604 10.5079C45.8724 10.247 45.5062 10.1853 45.2427 10.3693C44.9791 10.5533 44.9182 10.9137 45.1062 11.1746Z" fill="#F2DDD2"/>
<path d="M43.8982 23.216C44.1689 23.5907 44.6951 23.68 45.0742 23.4156C45.4534 23.1511 45.5414 22.6324 45.2707 22.2578C45 21.8831 44.4738 21.7938 44.0947 22.0582C43.7156 22.3231 43.6276 22.8413 43.8982 23.216Z" fill="#F2DDD2"/>
<path d="M0.581376 33.296C0.978709 33.8466 1.75204 33.9778 2.30893 33.5889C2.86582 33.2 2.99471 32.4386 2.59738 31.888C2.20004 31.3373 1.42671 31.2062 0.86982 31.5951C0.312931 31.9835 0.183598 32.7453 0.581376 33.296Z" fill="#E0E0E0"/>
<path d="M41.0807 46.1573C41.3563 46.5391 41.8923 46.6297 42.278 46.3604C42.6638 46.0911 42.7536 45.5631 42.478 45.1813C42.2025 44.7995 41.6665 44.7088 41.2807 44.9782C40.8949 45.2475 40.8052 45.7755 41.0807 46.1573Z" fill="#E0E0E0"/>
<path d="M44.6191 20.8907C44.7031 21.0071 44.8662 21.0346 44.9836 20.9524C45.1009 20.8702 45.1284 20.7098 45.0444 20.5933C44.9604 20.4773 44.7973 20.4493 44.68 20.5315C44.5622 20.6133 44.5351 20.7742 44.6191 20.8907Z" fill="#F2DDD2"/>
<path d="M35.8947 45.3875C36.0178 45.5581 36.2578 45.599 36.4302 45.4781C36.6027 45.3577 36.6431 45.1213 36.5196 44.9506C36.3965 44.7799 36.1565 44.739 35.984 44.8599C35.8116 44.9804 35.7716 45.2164 35.8947 45.3875Z" fill="#E0E0E0"/>
<path d="M3.72788 41.2782C3.85099 41.4489 4.09099 41.4898 4.26343 41.3689C4.43588 41.2484 4.47632 41.012 4.35276 40.8413C4.22965 40.6707 3.98965 40.6298 3.81721 40.7507C3.64477 40.8711 3.60432 41.1076 3.72788 41.2782Z" fill="#E0E0E0"/>
<path d="M20.0927 33.636C20.0727 33.6262 20.0531 33.6155 20.034 33.6035C19.63 33.3542 19.5349 32.6995 19.446 32.2751C19.3104 31.6293 19.3491 30.9471 19.3073 30.292C19.2602 29.5453 18.9607 28.9511 18.7473 28.2622C18.5575 27.6489 18.4998 26.9337 18.5531 26.2995C18.626 25.4337 18.9473 24.5991 19.4949 24.044C20.3487 23.1795 21.6282 23.1009 22.746 23.4733C23.214 23.6293 23.6775 23.8573 24.1584 23.868C24.8598 23.8831 25.4815 23.4373 26.1224 23.1351C26.9953 22.7235 27.9931 22.5715 28.9135 22.9208C29.9575 23.3173 30.8064 24.4084 30.8967 25.7208C30.9375 26.3155 30.8264 26.9222 30.97 27.4991C31.1158 28.0844 31.4731 28.5435 31.7011 29.0831C31.8784 29.5026 31.5518 30.1906 31.3847 30.5769C31.1544 31.1089 30.8469 31.6084 30.4762 32.0573C29.7389 32.9511 28.7447 33.6471 27.6207 33.9769C26.3709 34.3435 25.0371 34.2689 23.7407 34.1462C22.6713 34.0453 21.6055 33.9142 20.5442 33.7533C20.3904 33.7302 20.2313 33.7049 20.0927 33.636Z" fill="#CFBFB3"/>
</g>
<g opacity="0.89">
<path d="M36.768 28.4253L44.3343 28.3205C46.4556 28.2911 48.204 29.7133 48.2387 31.4978L48.6365 48.728L31.4005 48.9671L30.7889 33.6222C30.7334 30.7987 33.4107 28.4716 36.768 28.4253Z" fill="#B5A094"/>
<path d="M33.2533 19.4102C33.3213 19.9391 33.691 20.3778 34.2017 20.6222L34.1639 21.8409C34.1448 22.4658 34.7315 22.9853 35.4746 23.0018L42.1826 23.1484L42.1928 22.8133C42.8159 22.8475 43.3777 22.4755 43.4733 21.9466C43.5368 21.5964 43.3808 21.2609 43.0928 21.0382C43.4337 20.8942 43.6893 20.6191 43.751 20.2778C43.8475 19.7462 43.4386 19.2489 42.8266 19.1284C42.6186 18.5742 42.2422 18.0702 41.6022 17.736C41.6279 17.628 41.635 17.5155 41.6204 17.4004C41.5426 16.7951 40.8959 16.3578 40.1764 16.4231C39.8706 16.4511 39.6017 16.5653 39.3986 16.7338C39.0235 16.16 38.2413 15.8262 37.4346 15.9546C36.8608 16.0462 36.4004 16.3515 36.1462 16.7542C35.9186 16.6115 35.6293 16.5369 35.3244 16.5649C34.6839 16.6231 34.2208 17.1071 34.2902 17.6458C34.2968 17.6991 34.3102 17.7506 34.3266 17.8009C33.6182 18.0826 33.1644 18.7178 33.2533 19.4102Z" fill="#B5A094"/>
<path d="M43.6221 22.7956C43.6115 22.2507 43.0777 21.816 42.4292 21.8249L42.311 21.8267C42.059 21.9733 41.7546 22.0613 41.4248 22.0662C40.5386 22.0787 39.8079 21.484 39.7932 20.7387C39.7906 20.592 39.8164 20.4502 39.8652 20.3173C39.7679 20.264 39.679 20.2018 39.5977 20.1324C39.5359 20.1396 39.4737 20.144 39.4101 20.1449C39.0075 20.1507 38.6381 20.0302 38.3524 19.828C37.9564 20.2093 37.379 20.4547 36.7297 20.4636C36.2568 20.4702 35.8177 20.3498 35.4541 20.1418C35.2826 20.308 35.0479 20.4262 34.7812 20.472L34.871 25.0604C34.895 26.2956 36.1057 27.2804 37.5741 27.26L37.6266 27.2591L37.6617 29.0547C37.6821 30.0987 38.7048 30.9307 39.9461 30.9138C41.1875 30.8964 42.1773 30.0364 42.1564 28.9924L42.083 25.244C42.0821 25.2022 42.0773 25.1613 42.0733 25.12C42.0768 25.0671 42.0786 25.0142 42.0777 24.9609L42.0586 23.9853L42.471 23.9796C43.119 23.9707 43.6355 23.5213 43.6248 22.9764L43.6221 22.7956Z" fill="#D6BFB4"/>
<path opacity="0.1" d="M41.6326 24.8005C41.6557 25.9805 40.5371 26.9525 39.1344 26.972L37.4499 26.9956C36.0473 27.0151 34.8913 26.0742 34.8682 24.8947L34.8713 25.0609C34.8953 26.296 36.1059 27.2809 37.5744 27.2605L37.6766 27.2591L38.0295 27.6271C38.5979 28.22 39.6713 28.2209 40.2411 27.6294L41.1202 26.7165C41.7171 26.2982 42.0917 25.6649 42.0779 24.9609L42.0588 23.9854L41.6166 23.9916L41.6326 24.8005Z" fill="#040000"/>
<path d="M37.8711 22.5201C37.8729 22.6174 37.9685 22.6947 38.084 22.6934C38.1996 22.6916 38.292 22.6116 38.2898 22.5143C38.288 22.417 38.1925 22.3396 38.0769 22.341C37.9618 22.3427 37.8693 22.4227 37.8711 22.5201Z" fill="#B5A094"/>
<path d="M35.3545 22.5547C35.3563 22.652 35.4519 22.7293 35.5674 22.728C35.683 22.7262 35.7754 22.6462 35.7732 22.5489C35.7714 22.4516 35.6759 22.3742 35.5603 22.3756C35.4448 22.3773 35.3523 22.4573 35.3545 22.5547Z" fill="#B5A094"/>
<path opacity="0.57" d="M37.834 22.8005C37.8175 22.8005 37.8006 22.7938 37.7899 22.7818C37.7722 22.7614 37.7771 22.7329 37.8015 22.7178C38.122 22.5183 38.4046 22.7036 38.4073 22.7054C38.4308 22.7214 38.4344 22.7503 38.4157 22.7698C38.3971 22.7898 38.3628 22.7929 38.3393 22.7769C38.3304 22.7712 38.118 22.6347 37.8664 22.7912C37.8566 22.7978 37.8451 22.8005 37.834 22.8005Z" fill="#B5A094"/>
<path opacity="0.57" d="M35.2802 22.8361C35.2638 22.8361 35.2469 22.8294 35.2362 22.8174C35.2185 22.797 35.2234 22.7685 35.2478 22.7534C35.5682 22.5539 35.8505 22.7392 35.8536 22.741C35.8771 22.757 35.8807 22.7859 35.862 22.8054C35.8434 22.8254 35.8091 22.8285 35.7856 22.8125C35.7758 22.8059 35.5642 22.6707 35.3127 22.8267C35.3029 22.833 35.2913 22.8361 35.2802 22.8361Z" fill="#B5A094"/>
<path d="M37.3191 26.1903C37.3084 26.1903 37.2973 26.1877 37.288 26.1819C37.2631 26.1672 37.2573 26.1388 37.2746 26.1179C37.5177 25.8268 37.936 25.9263 37.94 25.9272C37.9688 25.9343 37.9853 25.9597 37.9768 25.9841C37.9684 26.0086 37.9386 26.0223 37.9093 26.0152C37.8951 26.0117 37.5608 25.9343 37.364 26.1708C37.3528 26.1832 37.336 26.1903 37.3191 26.1903Z" fill="#B5A094"/>
<path d="M38.4863 23.6756C38.417 23.6756 38.3463 23.6711 38.2756 23.6613C37.9303 23.6142 37.6277 23.4569 37.4232 23.2182C37.2188 22.9796 37.137 22.6885 37.193 22.3978C37.249 22.1076 37.4361 21.8529 37.7196 21.6809C38.0032 21.5089 38.3499 21.44 38.6952 21.4871C39.4081 21.5844 39.8934 22.1511 39.7779 22.7507C39.6739 23.2902 39.1165 23.6756 38.4863 23.6756ZM38.4832 21.656C38.2561 21.656 38.0352 21.7156 37.8476 21.8293C37.6112 21.9729 37.4552 22.1849 37.4085 22.4267C37.3619 22.6684 37.4299 22.9116 37.6005 23.1102C37.7712 23.3089 38.0232 23.44 38.3112 23.4796C38.9041 23.5604 39.4668 23.2204 39.5632 22.7209C39.6596 22.2213 39.2548 21.7489 38.661 21.668C38.601 21.66 38.5419 21.656 38.4832 21.656Z" fill="white"/>
<path d="M35.4466 23.7583C35.3773 23.7583 35.3071 23.7538 35.2364 23.744C34.5235 23.6467 34.0382 23.08 34.1537 22.4805C34.2693 21.8809 34.9431 21.4725 35.656 21.5698C36.3688 21.6672 36.8542 22.2338 36.7386 22.8334C36.6342 23.3734 36.0768 23.7583 35.4466 23.7583ZM35.4453 21.7392C34.92 21.7392 34.4555 22.06 34.3688 22.5098C34.2724 23.0094 34.6773 23.4814 35.2711 23.5627C35.8653 23.644 36.4266 23.3032 36.5231 22.804C36.6195 22.3045 36.2146 21.8325 35.6208 21.7512C35.5617 21.7432 35.5031 21.7392 35.4453 21.7392Z" fill="white"/>
<path d="M39.2009 21.2889C39.0889 21.3076 38.9591 21.2725 38.8311 21.2449C38.7031 21.2147 38.5737 21.1871 38.4604 21.1667C38.3466 21.1458 38.2151 21.1258 38.084 21.1089C37.9542 21.0894 37.8182 21.076 37.7266 21.0205C37.6382 20.968 37.624 20.8614 37.7711 20.7605C37.9102 20.6614 38.2271 20.5836 38.6035 20.6516C38.9791 20.7209 39.2244 20.9014 39.2982 21.0391C39.3773 21.1805 39.3084 21.272 39.2009 21.2889Z" fill="#B5A094"/>
<path d="M35.0835 21.3566C35.1964 21.3703 35.324 21.3303 35.4502 21.2974C35.5764 21.2623 35.704 21.2294 35.816 21.2041C35.9284 21.1788 36.0586 21.1534 36.1889 21.1312C36.3178 21.1068 36.4529 21.0877 36.5409 21.0286C36.6262 20.9726 36.6342 20.8654 36.4818 20.7703C36.3373 20.677 36.016 20.6121 35.644 20.6952C35.2729 20.7797 35.0378 20.9694 34.9724 21.1103C34.9013 21.2557 34.9751 21.3441 35.0835 21.3566Z" fill="#B5A094"/>
<path d="M42.7614 23.2654C42.7538 23.2654 42.7467 23.264 42.7396 23.2614L42.2578 23.0845L42.5903 22.4654C42.6027 22.4423 42.6347 22.432 42.6627 22.4423C42.6903 22.4525 42.7023 22.48 42.6898 22.5031L42.4027 23.0378L42.7836 23.1774C42.8111 23.1876 42.8236 23.2147 42.8116 23.2378C42.8023 23.2551 42.7823 23.2654 42.7614 23.2654Z" fill="#B5A094"/>
<path d="M36.7881 23.932C36.3953 23.932 36.0726 23.6663 36.0664 23.3347L36.0655 23.2952C36.0624 23.1276 36.2215 22.9889 36.4206 22.9863C36.5468 22.9845 36.6646 22.9414 36.7521 22.8654C36.8397 22.7894 36.8868 22.6889 36.885 22.5827L36.8664 21.6276C36.8659 21.6023 36.8899 21.5814 36.9201 21.5809C36.9201 21.5809 36.9206 21.5809 36.921 21.5809C36.9508 21.5809 36.9753 21.6009 36.9757 21.6263L36.9944 22.5814C36.9997 22.8507 36.7433 23.0738 36.4228 23.0783C36.2837 23.08 36.1726 23.1769 36.1748 23.2938L36.1757 23.3334C36.181 23.6147 36.4553 23.8405 36.7886 23.8405C36.7921 23.8405 36.7953 23.8405 36.7988 23.8405L37.3095 23.8334C37.3095 23.8334 37.3099 23.8334 37.3104 23.8334C37.3401 23.8334 37.3646 23.8534 37.365 23.8787C37.3655 23.904 37.3415 23.9249 37.3113 23.9254L36.8006 23.9325C36.7961 23.932 36.7921 23.932 36.7881 23.932Z" fill="#B5A094"/>
<path d="M37.1751 22.724C37.1729 22.724 37.1707 22.724 37.168 22.724L36.6991 22.6991C36.6391 22.696 36.5933 22.6525 36.5969 22.6018C36.6009 22.5511 36.6529 22.512 36.7124 22.516L37.1813 22.5409C37.2413 22.544 37.2871 22.5876 37.2835 22.6383C37.28 22.6867 37.232 22.724 37.1751 22.724Z" fill="white"/>
<path d="M39.429 23.7156C39.429 23.7156 38.7664 24.0422 38.0766 24.1845C37.3868 24.3271 37.9953 25.1805 39.0504 25.0085C40.105 24.8365 39.9904 23.5694 39.429 23.7156Z" fill="white"/>
<path d="M39.6287 22.36C39.5767 22.36 39.5305 22.3284 39.5211 22.284C39.5109 22.2342 39.5505 22.1867 39.61 22.1778L41.8674 21.8476C41.9274 21.8391 41.9834 21.8724 41.9936 21.9222C42.0038 21.972 41.9643 22.0196 41.9047 22.0284L39.6474 22.3587C39.6411 22.3596 39.6349 22.36 39.6287 22.36Z" fill="white"/>
</g>
<g opacity="0.89">
<path d="M12.6576 43.2445L12.3514 27.6729L6.83984 27.7578L7.59184 43.6169L7.12473 49.396L13.4105 49.2991C13.3745 49.2467 13.3492 49.1867 13.3416 49.1209L12.6576 43.2445Z" fill="#B5A094"/>
<path d="M16.4186 42.1143L22.3284 39.8889L18.4688 31.3547C17.8968 30.0898 16.7786 29.1107 15.391 28.66L12.3506 27.6725L12.6568 43.2445L13.3408 49.1209C13.3484 49.1871 13.3737 49.2467 13.4097 49.2991C13.495 49.4236 13.6466 49.5027 13.8146 49.492L16.9328 49.2952C17.2835 49.2729 17.5373 48.9738 17.4813 48.6498L16.4186 42.1143Z" fill="#B5A094"/>
<path d="M6.83935 27.7578L2.93179 29.1111C1.85224 29.4849 1.08868 30.3942 0.956682 31.4631L-0.69043 44.7911V50.2182L2.96068 49.1675C2.91579 49.4933 3.18024 49.7844 3.53135 49.7955L6.6549 49.896C6.89402 49.9035 7.09713 49.7338 7.11535 49.5106L7.12468 49.3955L7.59179 43.6164L6.83935 27.7578Z" fill="#B5A094"/>
<path d="M14.0109 20.3218C14.1145 20.1423 14.1807 19.9405 14.1949 19.7236C14.242 19.0152 13.7362 18.3947 13.026 18.2276C13.0033 17.8143 12.6522 17.4738 12.2002 17.4476C11.9691 17.4343 11.7536 17.5063 11.5873 17.6334C11.3789 17.3036 11.0185 17.0618 10.5811 17.0041C9.9309 16.9174 9.3229 17.265 9.08867 17.8103C8.93312 17.8098 8.77667 17.8125 8.62023 17.8174C5.55445 17.9165 5.33001 20.2574 5.52201 21.8103C5.22867 22.0552 5.07667 22.4343 5.1589 22.821C5.27623 23.3712 5.82467 23.7383 6.41045 23.6774L6.43756 24.0281L13.1749 23.5752C13.5518 23.5498 13.8358 23.2436 13.8087 22.8912L13.6433 20.745C13.798 20.6334 13.9251 20.489 14.0109 20.3218Z" fill="#B5A094"/>
<path d="M12.7973 20.989C12.3769 20.9645 12.0187 20.7494 11.8107 20.4396C11.5649 20.6672 11.2213 20.8001 10.8489 20.7787C10.3142 20.7476 9.87956 20.4085 9.72801 19.9574C9.16668 19.9792 8.72579 20.0107 8.58312 20.0525C8.12534 20.1876 7.7369 20.5436 7.60134 20.985C7.47823 21.3858 7.53601 21.8245 7.52756 22.2365C7.52356 22.4263 7.52668 22.6165 7.52134 22.8067C7.51956 22.8734 7.54134 23.0165 7.50045 23.0765C7.18356 23.5458 7.42579 22.9503 6.97868 22.4467L6.98534 22.5343L6.73334 22.5512C6.17201 22.589 5.74934 23.045 5.78979 23.5698C5.83023 24.0947 6.31823 24.4898 6.87956 24.4521L7.13156 24.4352L7.16534 24.8765L7.17023 24.9414L7.21379 25.5054C7.22934 25.7063 7.27245 25.8992 7.33868 26.081L7.37645 28.2236C7.3969 29.3934 8.43779 30.3347 9.68934 30.3156C10.9409 30.2965 11.9476 29.3232 11.9271 28.1534L11.9142 27.4107C12.9551 27.0921 13.6716 26.1436 13.5893 25.0761L13.5458 24.5121L13.2702 20.9303C13.1227 20.977 12.9627 20.9987 12.7973 20.989Z" fill="#D6BFB4"/>
<path opacity="0.1" d="M13.59 25.0765L13.5465 24.5125C13.6433 25.7707 12.6305 26.8641 11.2847 26.9547L9.78334 27.0556C8.43757 27.1463 7.26779 26.1996 7.1709 24.9414L7.21445 25.505C7.27845 26.3365 7.8109 27.0312 8.55268 27.3814C8.55268 27.389 8.55179 27.3965 8.55179 27.4045C8.56512 28.153 9.22468 28.7494 10.0251 28.7374C10.7722 28.7258 11.3771 28.1881 11.4442 27.5081C12.7322 27.3645 13.6842 26.2983 13.59 25.0765Z" fill="#040000"/>
<path d="M6.58539 23.7476C6.57473 23.7476 6.56406 23.7436 6.55561 23.7361C6.53873 23.7209 6.53873 23.6956 6.55517 23.6801L6.75428 23.4907L6.41295 23.1747C6.3965 23.1592 6.39606 23.1343 6.4125 23.1187C6.42895 23.1032 6.45562 23.1032 6.47206 23.1183L6.87339 23.4898L6.61517 23.7352C6.60717 23.7436 6.5965 23.7476 6.58539 23.7476Z" fill="#B5A094"/>
<path opacity="0.57" d="M11.4335 26.1059C11.4232 26.1059 11.413 26.1023 11.405 26.0957C11.1677 25.893 10.8752 26.0401 10.8721 26.0414C10.8521 26.0521 10.8259 26.045 10.8148 26.0259C10.8037 26.0068 10.8108 25.9828 10.8312 25.9721C10.8348 25.9703 11.1801 25.7965 11.4619 26.037C11.4792 26.0517 11.4806 26.0765 11.4646 26.093C11.4566 26.1014 11.445 26.1059 11.4335 26.1059Z" fill="#989593"/>
<path d="M9.56945 23.6174C9.56945 23.6174 10.1166 23.8978 10.6819 23.9943C11.2472 24.0912 10.7708 24.9725 9.90723 24.8698C9.04367 24.7667 9.10856 23.5085 9.56945 23.6174Z" fill="white"/>
<path d="M8.92868 21.9738C9.03313 21.9663 9.13713 21.9014 9.24157 21.8441C9.34557 21.7841 9.45135 21.7267 9.54513 21.6796C9.63935 21.6325 9.74913 21.5818 9.8598 21.5343C9.96868 21.4849 10.0847 21.4396 10.1482 21.3632C10.2105 21.2903 10.1909 21.1809 10.0309 21.1143C9.87846 21.0476 9.57535 21.0441 9.2638 21.1992C8.95357 21.3556 8.79091 21.5921 8.7678 21.7467C8.74024 21.9067 8.82868 21.9823 8.92868 21.9738Z" fill="#B5A094"/>
<path d="M12.7808 21.5694C12.6981 21.5877 12.6012 21.561 12.5056 21.541C12.4101 21.5188 12.3136 21.4983 12.2292 21.4837C12.1443 21.469 12.0465 21.4552 11.9488 21.4437C11.8519 21.4303 11.751 21.4219 11.6816 21.3774C11.615 21.3357 11.6016 21.2468 11.7083 21.1588C11.8092 21.0726 12.0421 21.0006 12.3225 21.049C12.6025 21.0983 12.7888 21.2437 12.8465 21.3574C12.9092 21.4748 12.8603 21.553 12.7808 21.5694Z" fill="#B5A094"/>
<path d="M10.9794 23.6024C10.9274 23.6024 10.8732 23.6001 10.8172 23.5961C10.7941 23.5944 10.7763 23.5757 10.7785 23.5539C10.7803 23.5321 10.8025 23.5144 10.8238 23.5175C10.9447 23.5259 11.0558 23.525 11.1545 23.5144C11.3327 23.4948 11.4816 23.4117 11.5527 23.2921C11.6025 23.2081 11.6061 23.1153 11.5634 23.0313L11.0296 21.9833C11.0194 21.9637 11.0287 21.9401 11.0496 21.9308C11.0705 21.9215 11.0958 21.9299 11.1061 21.9495L11.6398 22.9975C11.695 23.1055 11.6901 23.2237 11.627 23.3308C11.543 23.473 11.3701 23.5713 11.1647 23.5935C11.1061 23.5993 11.0443 23.6024 10.9794 23.6024Z" fill="#B5A094"/>
<path d="M10.1837 22.6583C10.2428 22.7561 10.2059 22.8801 10.101 22.9357C9.9961 22.9908 9.86365 22.9561 9.80454 22.8583C9.74543 22.7606 9.78232 22.6361 9.88721 22.581C9.99165 22.5259 10.1245 22.5606 10.1837 22.6583Z" fill="#B5A094"/>
<path d="M12.6251 22.5743C12.6842 22.6721 12.6473 22.7961 12.5424 22.8516C12.4375 22.9072 12.3051 22.8721 12.2459 22.7743C12.1868 22.6765 12.2237 22.5521 12.3286 22.497C12.4331 22.4419 12.5659 22.4765 12.6251 22.5743Z" fill="#B5A094"/>
</g>
<path d="M33.0177 48.6987H15.5186L16.3679 44.3778H32.1572L33.0177 48.6987Z" fill="#332418"/>
<path d="M42.331 30.6733C42.331 30.6733 42.1093 30.4649 42.0835 29.5915C42.0573 28.7182 42.1488 28.1187 42.0835 27.6627C42.0181 27.2067 41.7999 26.4507 42.0786 26.3982C42.3573 26.3462 42.735 26.4502 42.9306 27.3498C43.1261 28.2493 43.0479 28.5489 43.7257 28.64C44.4035 28.7311 45.1204 28.2098 45.355 27.9751C45.5897 27.7404 46.6195 26.4671 46.9715 26.3871C47.3235 26.3067 47.2866 26.724 47.2475 26.7631C47.2084 26.8022 45.899 28.5129 45.7333 28.7311C45.6893 28.7889 45.7595 28.9138 45.9417 28.8875C46.1244 28.8613 47.5581 28.0795 47.8057 27.9231C48.0533 27.7667 48.4573 27.6364 48.5097 27.9231C48.5617 28.2098 48.1315 28.5213 48.1315 28.5213C48.1315 28.5213 48.379 28.64 48.1577 28.8875C47.9359 29.1351 45.7204 30.3995 45.7204 30.3995C45.7204 30.3995 45.603 30.8689 45.5119 30.9862C45.4208 31.1035 43.987 32.1982 43.687 32.2244C43.387 32.2507 43.0484 32.3155 43.0484 32.3155L42.579 32.5893C42.579 32.5893 41.8621 31.4831 42.0764 30.8662C42.0924 30.8191 42.331 30.6733 42.331 30.6733Z" fill="#F9DACE"/>
<path d="M45.7079 30.476C45.7044 30.4751 45.7088 30.4458 45.7186 30.3938C45.7275 30.3418 45.7444 30.2666 45.7426 30.1751C45.7421 30.0849 45.7106 29.9724 45.6199 29.8982C45.5768 29.8626 45.5146 29.8409 45.459 29.8533C45.403 29.8658 45.359 29.92 45.3141 29.9755C45.2253 30.0715 45.1764 30.1826 45.1337 30.2898C45.0924 30.396 45.0621 30.4964 45.0404 30.5831L45.0004 30.5742C44.9977 30.5835 45.0057 30.5929 45.0115 30.5942C45.0124 30.5951 45.0146 30.5946 45.0133 30.5946C45.0124 30.5946 45.0093 30.5951 45.0066 30.5955L44.9888 30.6C44.9768 30.6035 44.9648 30.6075 44.9533 30.6115C44.9301 30.62 44.9079 30.6284 44.8879 30.6369C44.8475 30.6538 44.8128 30.6702 44.7853 30.684C44.7577 30.6982 44.7368 30.7102 44.7239 30.7195C44.7106 30.7289 44.7084 30.7355 44.7061 30.736C44.6968 30.7333 44.7195 30.6969 44.7737 30.6644C44.8004 30.6471 44.8341 30.6275 44.8741 30.6071C44.8941 30.5969 44.9159 30.5866 44.9399 30.5769C44.9519 30.572 44.9644 30.5671 44.9777 30.5626C44.9844 30.5604 44.9915 30.5582 44.999 30.5564C45.003 30.5555 45.007 30.5546 45.0128 30.5546C45.0146 30.5542 45.0204 30.5551 45.0248 30.556C45.0341 30.5582 45.0439 30.5706 45.0408 30.584L45.0008 30.5751C45.019 30.4853 45.0466 30.3826 45.087 30.2729C45.1266 30.1653 45.1817 30.0409 45.2728 29.9426C45.3173 29.8884 45.3666 29.8218 45.4479 29.8026C45.527 29.7866 45.6008 29.8173 45.6524 29.8604C45.7573 29.9506 45.7857 30.0804 45.7817 30.176C45.7786 30.2742 45.7555 30.3493 45.7399 30.4C45.7226 30.4498 45.711 30.4769 45.7079 30.476Z" fill="#DEC5BE"/>
<path d="M48.1484 28.5458C48.1453 28.5507 48.12 28.5267 48.0635 28.5169C48.008 28.5058 47.9235 28.5182 47.828 28.5587C47.6222 28.6547 47.3644 28.7751 47.0791 28.9085C46.7853 29.0431 46.5177 29.1627 46.3235 29.2467C46.1289 29.3307 46.0071 29.3791 46.004 29.3725C46.0009 29.3658 46.1173 29.3049 46.3075 29.212C46.4982 29.1191 46.7626 28.9942 47.0569 28.8596C47.3515 28.7253 47.616 28.6036 47.8146 28.5231C47.916 28.4858 48.0089 28.4773 48.0689 28.4965C48.1293 28.5142 48.1502 28.5453 48.1484 28.5458Z" fill="#DEC5BE"/>
<path d="M44.4753 30.7862C44.4788 30.7915 44.4112 30.8471 44.2846 30.9075C44.1584 30.9693 43.9704 31.0235 43.7606 31.0555C43.5508 31.0875 43.3637 31.1133 43.2348 31.1578C43.105 31.1995 43.0344 31.2489 43.0295 31.2413C43.0255 31.2369 43.0904 31.1751 43.2219 31.1222C43.3521 31.0666 43.545 31.0338 43.7521 31.0026C43.9597 30.9706 44.1428 30.924 44.2695 30.8729C44.3966 30.8222 44.4708 30.7786 44.4753 30.7862Z" fill="#DEC5BE"/>
<path d="M45.4167 29.8711C45.4007 29.8729 45.3691 29.632 45.2793 29.3489C45.1913 29.0649 45.0798 28.8493 45.094 28.8418C45.1056 28.8342 45.2407 29.0426 45.3309 29.3329C45.4229 29.6226 45.4305 29.8706 45.4167 29.8711Z" fill="#DEC5BE"/>
<path d="M43.3164 30.3893C43.3093 30.3835 43.3662 30.3133 43.4275 30.184C43.4893 30.056 43.5497 29.8631 43.5444 29.6458C43.5391 29.4284 43.4693 29.2387 43.4017 29.1138C43.3342 28.9875 43.2737 28.92 43.2808 28.9138C43.2848 28.9098 43.3564 28.9689 43.4351 29.0947C43.5137 29.2187 43.5933 29.416 43.5986 29.6444C43.604 29.8729 43.5342 30.0738 43.4617 30.2013C43.3888 30.3307 43.3204 30.3933 43.3164 30.3893Z" fill="#DEC5BE"/>
<path d="M1.44712 31.08C1.44712 31.08 2.37689 31.2925 2.96134 31.372C3.29245 31.4174 4.34001 31.6551 4.92178 31.9751C5.34756 32.2094 5.21823 32.6898 5.21823 32.6898L6.49512 30.7174L6.25512 30.044C6.25512 30.044 6.39156 29.0054 6.14889 28.3707C5.92267 27.7796 6.50756 26.136 6.12223 26.0862C5.69734 26.0316 5.51112 26.4049 5.29867 27.1489C5.08623 27.8925 4.95334 28.3178 4.44889 28.3974C3.94401 28.4769 2.41156 27.5894 1.80312 27.1396C1.31823 26.7814 0.706672 26.3907 0.566228 26.6738C0.420005 26.968 1.06223 27.6654 2.30667 28.5627C2.36712 28.592 2.50134 28.9129 1.74001 28.5836C1.46756 28.4654 0.011561 27.4 -0.307106 27.5596C-0.625772 27.7191 -0.417772 28.0898 -0.259995 28.2676C-0.0519945 28.5022 1.26712 29.3245 1.26712 29.3245C1.26712 29.3245 -0.25955 28.8382 -0.365772 28.9182C-0.471995 28.9982 -0.597328 29.1529 -0.437772 29.3862C-0.278217 29.6196 0.999117 30.1725 1.39778 30.332C1.79601 30.4916 2.45823 30.5374 2.45823 30.5374C2.36712 30.5374 1.52312 30.5031 1.39201 30.5716C1.26089 30.64 1.21512 30.8454 1.26089 30.9249C1.30534 31.0045 1.44712 31.08 1.44712 31.08Z" fill="#F9DACE"/>
<path d="M4.67428 30.5769C4.67205 30.5796 4.64672 30.5618 4.60628 30.524C4.56539 30.4863 4.51117 30.4263 4.45472 30.3436C4.34183 30.1809 4.23028 29.9125 4.24094 29.6031C4.2525 29.2938 4.38272 29.0338 4.50672 28.8796C4.5685 28.8014 4.62717 28.7454 4.67072 28.7107C4.71383 28.676 4.7405 28.66 4.74228 28.6627C4.74894 28.6703 4.65028 28.7445 4.53739 28.9027C4.4245 29.0583 4.30583 29.3098 4.29472 29.6054C4.2845 29.9005 4.38539 30.16 4.48672 30.3231C4.58805 30.4889 4.68139 30.5698 4.67428 30.5769Z" fill="#DEC5BE"/>
<path d="M2.92398 28.6743C2.93153 28.6779 2.8902 28.7712 2.83376 28.925C2.77687 29.0788 2.70798 29.2943 2.6582 29.5388C2.60887 29.7836 2.58798 30.009 2.58042 30.1725C2.57242 30.3361 2.5742 30.4383 2.56576 30.4388C2.55909 30.4392 2.54442 30.3379 2.5422 30.1721C2.53998 30.0068 2.55509 29.7765 2.60531 29.5281C2.65598 29.2796 2.73198 29.0623 2.79865 28.9108C2.86487 28.7592 2.9182 28.6716 2.92398 28.6743Z" fill="#DEC5BE"/>
<path d="M2.3661 29.6548C2.36388 29.669 2.10165 29.6356 1.78877 29.5472C1.47543 29.4592 1.23499 29.3499 1.24032 29.337C1.2461 29.3223 1.49321 29.4081 1.80343 29.4952C2.11321 29.5832 2.36877 29.6396 2.3661 29.6548Z" fill="#DEC5BE"/>
<path d="M42.7855 33.1427L43.3855 32.624L41.7246 29.6823C41.7206 29.7103 41.2441 29.9556 41.2441 29.9556L42.7855 33.1427Z" fill="#E0E0E0"/>
<path d="M41.5536 29.6316C41.6238 29.6849 43.1887 33.4902 43.1887 33.4902C43.1887 33.4902 36.9829 36.9645 35.5549 37.3627C34.1274 37.7609 33.2847 37.0174 32.8865 36.5658C32.4887 36.1142 31.4189 34.2827 31.4189 34.2827L32.5816 25.6302L32.9816 23.8338C32.9816 23.8338 33.6527 24.1622 33.8398 25.092C34.0269 26.0218 34.8292 32.1036 34.8292 32.1036C34.8292 32.1036 35.4758 31.6365 35.4861 32.3902L41.5536 29.6316Z" fill="#5D463B"/>
<path d="M34.9196 34.5125C34.9125 34.5111 34.9285 34.3889 34.9658 34.1929C35.0032 33.9974 35.0632 33.7285 35.1423 33.4347C35.2218 33.1409 35.3045 32.8787 35.3694 32.6902C35.4343 32.5018 35.4801 32.3876 35.4872 32.3898C35.4943 32.392 35.4614 32.5107 35.4058 32.7018C35.3503 32.8929 35.2734 33.156 35.1943 33.4489C35.1152 33.7414 35.0498 34.008 35.0032 34.2009C34.9565 34.3942 34.9272 34.5142 34.9196 34.5125Z" fill="#332418"/>
<path d="M34.0636 33.8071C34.0601 33.8067 34.0587 33.7804 34.0601 33.732C34.0627 33.684 34.0694 33.6138 34.0885 33.5293C34.1227 33.3596 34.2099 33.1342 34.3361 32.904C34.4619 32.6733 34.589 32.4742 34.6787 32.3284C34.7699 32.1836 34.8294 32.0956 34.8361 32.0996C34.8423 32.1036 34.7947 32.1978 34.7116 32.348C34.6303 32.4987 34.5081 32.7018 34.3836 32.9298C34.2592 33.1578 34.169 33.3747 34.1259 33.5387C34.0792 33.7018 34.073 33.808 34.0636 33.8071Z" fill="#332418"/>
<path d="M5.43398 33.3885L4.83398 32.8698L6.49487 29.928C6.49887 29.956 6.97532 30.2014 6.97532 30.2014L5.43398 33.3885Z" fill="#E0E0E0"/>
<path d="M6.90396 29.8773C6.83285 29.9307 5.24707 33.736 5.24707 33.736C5.24707 33.736 11.536 37.2102 12.9826 37.6085C14.4293 38.0067 15.2835 37.2631 15.6866 36.8116C16.0897 36.36 17.0875 34.8405 17.0875 34.8405L15.6911 24.044C15.6911 24.044 15.1244 24.3071 14.9346 25.2369C14.7448 26.1667 13.7177 32.3489 13.7177 32.3489C13.7177 32.3489 13.0626 31.8818 13.052 32.6356L6.90396 29.8773Z" fill="#5D463B"/>
<path d="M30.3036 44.1089H17.4249V44.0049C17.4058 44.0049 17.3924 44.0174 17.3893 44.0231C17.4778 43.864 17.7293 41.0307 17.8769 39.1609L15.8613 24.0703L20.0689 23.0023L21.0031 21.8983H26.4769L26.9476 22.5934L31.9289 24.3409L31.9231 24.3831L29.7551 39.5263L30.3036 44.1089ZM17.4995 44.0049H30.1867L29.6507 39.5254L29.6515 39.5187L31.8142 24.4111L26.8809 22.6805L26.4218 22.0027H21.0516L20.1271 23.0956L15.9769 24.1489L17.9813 39.1587L17.9809 39.164C17.98 39.1765 17.8827 40.4027 17.7729 41.6134C17.6244 43.2436 17.5515 43.8089 17.4995 44.0049Z" fill="white"/>
<path d="M24.1295 41.9427L24.0789 41.8365C23.9126 41.4867 20.006 33.2525 19.6984 31.6173C19.3904 29.9791 20.9091 23.2445 20.9766 22.9467L21.1784 21.8987H26.4846L26.4975 21.9311C26.5757 22.1236 26.966 23.092 26.966 23.232C26.9677 23.2507 26.9988 23.3916 27.0388 23.5698C27.7806 26.896 28.5104 31.2365 27.7753 33.0236C26.7797 35.444 24.1993 41.7707 24.1735 41.8338L24.1295 41.9427ZM21.2642 22.0022L21.0784 22.9685C21.0624 23.0382 19.4966 29.9796 19.8006 31.5978C20.0868 33.1209 23.6531 40.6929 24.1224 41.6853C24.4704 40.832 26.7566 35.2285 27.6797 32.984C28.4046 31.2218 27.6762 26.9045 26.938 23.5925C26.8757 23.3142 26.8624 23.2525 26.8624 23.232C26.8624 23.1418 26.5931 22.444 26.4149 22.0022H21.2642Z" fill="white"/>
<path d="M21.7088 20.4716L19.735 22.1951L15.6812 24.0476L16.0194 29.3671L17.507 37.1365L15.5186 47.1076L23.2514 48.6987L24.1359 45.0991L25.0132 48.6987L33.4048 47.1467L31.0723 36.6778L32.9821 23.8338L28.1888 21.9334L26.3972 20.1934L21.7088 20.4716Z" fill="#5D463B"/>
<path d="M21.7087 20.4716C21.7233 20.5818 20.8384 22.9227 21.1398 23.9534C21.4415 24.9836 24.1504 34.3329 24.1909 34.2827C24.2309 34.2325 26.0153 26.5169 26.3171 25.1343C26.6189 23.7521 27.0713 23.0058 27.0713 22.1405C27.0713 21.7916 26.306 20.3205 26.306 20.3205L21.7087 20.4716Z" fill="white"/>
<path d="M25.1621 30.1858C25.1693 30.1876 25.1493 30.3014 25.107 30.5063C25.059 30.728 24.9955 31.0196 24.919 31.3711C24.7559 32.1005 24.5239 33.1063 24.2613 34.2151C24.255 34.2423 24.2484 34.2694 24.2426 34.2943L24.1981 34.4827L24.1421 34.2974C23.8186 33.2231 23.5319 32.2525 23.3301 31.5494C23.235 31.2107 23.1564 30.9303 23.0959 30.716C23.043 30.5187 23.0168 30.4089 23.0235 30.4067C23.0301 30.4045 23.0693 30.5107 23.1341 30.7045C23.2021 30.916 23.2919 31.1934 23.3995 31.5285C23.6195 32.2258 23.9173 33.1929 24.2417 34.2676L24.1413 34.2707C24.147 34.2458 24.1537 34.2187 24.1599 34.1916C24.4226 33.0823 24.6661 32.0791 24.8475 31.3543C24.9368 31.0058 25.011 30.7169 25.0675 30.4969C25.1217 30.2951 25.155 30.184 25.1621 30.1858Z" fill="#545453"/>
<path d="M13.6282 34.7583C13.6206 34.7596 13.5908 34.6387 13.5433 34.4436C13.4962 34.248 13.4304 33.9787 13.3517 33.6827C13.273 33.3867 13.1962 33.12 13.1397 32.9267C13.0837 32.7338 13.0495 32.6138 13.0566 32.6116C13.0633 32.6094 13.1104 32.7249 13.1762 32.9152C13.2419 33.1054 13.3246 33.3716 13.4037 33.6685C13.4828 33.9658 13.5428 34.2374 13.5806 34.4356C13.6184 34.6334 13.6348 34.7569 13.6282 34.7583Z" fill="#332418"/>
<path d="M14.4844 34.0138C14.4746 34.0147 14.4684 33.9081 14.4217 33.7445C14.3782 33.5805 14.2866 33.3632 14.1604 33.1356C14.0342 32.9076 13.9106 32.7049 13.8279 32.5543C13.7439 32.4045 13.6955 32.3098 13.7017 32.3063C13.7079 32.3023 13.7684 32.3903 13.8604 32.5347C13.9515 32.6805 14.0799 32.8792 14.2075 33.1098C14.335 33.3401 14.4235 33.5654 14.4586 33.7356C14.4777 33.8205 14.4848 33.8903 14.4875 33.9387C14.4893 33.9867 14.4879 34.0134 14.4844 34.0138Z" fill="#332418"/>
<path d="M15.5191 26.0809C15.52 26.0809 15.5222 26.0903 15.5254 26.1094C15.5289 26.1312 15.5334 26.1592 15.5387 26.1934C15.5498 26.2716 15.5654 26.3796 15.5854 26.5174C15.6254 26.7987 15.6845 27.2058 15.7658 27.7072C15.9245 28.7112 16.1716 30.0934 16.4618 31.6165C16.7556 33.1383 17.0218 34.5152 17.2151 35.5169C17.3076 36.0138 17.3827 36.4169 17.4356 36.7005C17.4596 36.8374 17.4782 36.9454 17.4916 37.0232C17.4969 37.0574 17.5014 37.0854 17.5049 37.1072C17.5076 37.1263 17.5085 37.136 17.5076 37.136C17.5067 37.136 17.504 37.1267 17.4996 37.108C17.4947 37.0863 17.4885 37.0592 17.4809 37.0249C17.4649 36.9476 17.4431 36.8405 17.4147 36.7045C17.3578 36.4218 17.2769 36.0196 17.1774 35.5245C16.9778 34.5276 16.6996 33.1512 16.4085 31.6267C16.1182 30.1032 15.8765 28.7192 15.7276 27.7129C15.6511 27.2103 15.5978 26.8023 15.5645 26.52C15.5489 26.3818 15.5369 26.2729 15.528 26.1947C15.5249 26.16 15.5218 26.132 15.52 26.1098C15.5183 26.0912 15.5182 26.0814 15.5191 26.0809Z" fill="#332418"/>
<path d="M24.1365 45.0991C24.1214 45.0991 24.1094 42.784 24.1094 39.9289C24.1094 37.0729 24.1214 34.7582 24.1365 34.7582C24.1516 34.7582 24.1636 37.0729 24.1636 39.9289C24.1636 42.784 24.1516 45.0991 24.1365 45.0991Z" fill="#332418"/>
<path d="M23.8309 23.192C23.8335 23.1942 23.8029 23.2347 23.7451 23.3058C23.6798 23.3836 23.5962 23.484 23.4953 23.6044C23.282 23.856 22.9833 24.2027 22.6473 24.5884L22.6295 24.6089L22.61 24.592C22.578 24.5644 22.5473 24.5351 22.5162 24.5053C22.1304 24.1253 21.7935 23.7711 21.5495 23.5147C21.434 23.3907 21.338 23.288 21.2638 23.208C21.1971 23.1347 21.1615 23.0929 21.1642 23.0902C21.1669 23.0876 21.2073 23.1244 21.2789 23.1933C21.3566 23.2698 21.4566 23.3689 21.5771 23.488C21.8282 23.7373 22.17 24.088 22.554 24.4662C22.5846 24.496 22.6153 24.5253 22.6438 24.5498L22.6064 24.5533C22.9433 24.1684 23.2469 23.8258 23.4673 23.5804C23.5735 23.464 23.6615 23.3676 23.73 23.2924C23.7922 23.2253 23.8282 23.1898 23.8309 23.192Z" fill="#5D463B"/>
<path d="M26.8666 22.7885C26.8693 22.7911 26.8333 22.8369 26.7648 22.9178C26.6964 22.9987 26.5964 23.1142 26.4702 23.2547C26.2173 23.5356 25.8591 23.9173 25.4262 24.3C25.3519 24.3658 25.2777 24.4289 25.2071 24.4889L25.1884 24.5045L25.1711 24.4876C24.8053 24.1342 24.4835 23.8191 24.2617 23.5845C24.1506 23.4676 24.0635 23.3716 24.0053 23.304C23.9471 23.2365 23.9168 23.1978 23.9191 23.1956C23.9217 23.1933 23.9568 23.2276 24.0195 23.2907C24.0888 23.3605 24.1786 23.4507 24.2875 23.5596C24.5159 23.7871 24.8413 24.0965 25.2088 24.4489L25.1728 24.4476C25.2426 24.3871 25.3159 24.324 25.3906 24.2596C25.8213 23.8787 26.1826 23.5027 26.4426 23.2289C26.5671 23.0969 26.6706 22.9876 26.7497 22.904C26.8222 22.8271 26.8639 22.7858 26.8666 22.7885Z" fill="#5D463B"/>
<path d="M32.8157 25.6587C32.8166 25.6587 32.8157 25.6685 32.813 25.6872C32.8095 25.7089 32.805 25.736 32.7997 25.7698C32.7864 25.8463 32.7677 25.9525 32.7437 26.0876C32.693 26.3631 32.625 26.7623 32.541 27.256C32.3739 28.2432 32.1557 29.6094 31.9228 31.1192C31.6939 32.6285 31.4868 33.9947 31.3362 34.988C31.2615 35.48 31.201 35.8796 31.1579 36.1605C31.1366 36.2956 31.1197 36.4023 31.1073 36.4792C31.1015 36.5129 31.0966 36.54 31.0931 36.5618C31.0895 36.5805 31.0873 36.5898 31.0864 36.5898C31.0855 36.5898 31.0859 36.58 31.0877 36.5609C31.0899 36.5392 31.093 36.5116 31.097 36.4774C31.1068 36.4 31.1202 36.2934 31.1375 36.1574C31.1762 35.8756 31.2308 35.4751 31.2984 34.9823C31.4379 33.9907 31.6366 32.6214 31.8695 31.1103C32.1024 29.6 32.3264 28.2347 32.5033 27.2485C32.5922 26.7556 32.6659 26.3569 32.7228 26.0827C32.7508 25.9489 32.7726 25.8432 32.7886 25.7672C32.7962 25.7338 32.8024 25.7067 32.8073 25.6854C32.8122 25.6676 32.8148 25.6583 32.8157 25.6587Z" fill="#332418"/>
<g opacity="0.3">
<path d="M16.7128 35.4014C16.7128 35.4014 16.1386 30.0996 16.1426 30.1209C16.1462 30.1422 17.0879 34.8409 17.0879 34.8409L16.7128 35.4014Z" fill="#040000"/>
</g>
<path d="M31.7752 40.4618C31.3738 40.7773 30.7796 40.984 30.1578 41.1067C29.5361 41.2293 28.8823 41.2747 28.2334 41.32C28.2334 41.32 28.6001 42.8227 28.6001 42.9178C28.6001 43.0129 31.3583 42.5942 32.2143 42.1951L32.4614 42.0431L31.7752 40.4618Z" fill="#332418"/>
<path d="M31.7755 40.4618C31.7759 40.4609 31.7799 40.4694 31.7884 40.4867C31.7977 40.5072 31.8097 40.5334 31.8248 40.5654C31.8581 40.6396 31.9048 40.7432 31.9644 40.8747C32.0875 41.1516 32.263 41.5467 32.4799 42.0347L32.4866 42.0503L32.4719 42.0592C32.3955 42.1067 32.3115 42.1587 32.2253 42.2125L32.2244 42.2129L32.2235 42.2134C32.0075 42.3129 31.7635 42.3867 31.5039 42.4583C31.2439 42.5285 30.967 42.5929 30.6768 42.6538C30.3861 42.7143 30.0821 42.7716 29.7675 42.8236C29.4524 42.8743 29.1279 42.9254 28.7915 42.9534C28.7506 42.956 28.7101 42.9587 28.6688 42.9583C28.647 42.9574 28.6284 42.9587 28.5999 42.9507C28.5955 42.9494 28.5888 42.9454 28.5844 42.9418C28.5799 42.9374 28.5755 42.9294 28.5741 42.9223L28.5733 42.9152L28.5715 42.9023C28.5706 42.8938 28.5693 42.8849 28.5675 42.8747C28.5537 42.7974 28.5359 42.7196 28.519 42.6427C28.4839 42.4889 28.4488 42.3374 28.4146 42.188C28.3435 41.8898 28.275 41.6014 28.2093 41.3258L28.2021 41.2965L28.2324 41.2947C28.7701 41.2592 29.2688 41.2223 29.711 41.1605C30.1533 41.1 30.5381 41.0129 30.8479 40.912C31.1581 40.812 31.3924 40.6987 31.5453 40.6094C31.6221 40.5645 31.6777 40.5276 31.7177 40.5C31.735 40.488 31.7497 40.4787 31.7617 40.4703C31.771 40.464 31.7759 40.4609 31.7755 40.4618C31.7755 40.4627 31.7701 40.4667 31.7608 40.4747C31.7497 40.484 31.7368 40.4947 31.7208 40.508C31.6861 40.5356 31.6293 40.5765 31.5537 40.6236C31.4026 40.7183 31.1688 40.8369 30.8577 40.9418C30.547 41.0476 30.1604 41.1387 29.7168 41.2032C29.2733 41.2689 28.7733 41.308 28.2355 41.3454L28.2586 41.3138C28.3248 41.5894 28.3946 41.8778 28.4661 42.176C28.5008 42.3254 28.5359 42.4774 28.571 42.6312C28.5879 42.7085 28.6057 42.7858 28.6199 42.8654C28.6221 42.8747 28.6235 42.8858 28.6248 42.8974L28.6266 42.9143L28.627 42.9165V42.9174C28.5826 42.9178 28.615 42.9174 28.6053 42.9174H28.6057C28.6075 42.9169 28.6079 42.9156 28.6079 42.9147C28.6164 42.9085 28.619 42.896 28.6173 42.8996C28.6275 42.9027 28.6497 42.9036 28.6679 42.904C28.7066 42.904 28.7466 42.9018 28.7866 42.8992C29.1186 42.8716 29.4439 42.8209 29.7577 42.7707C30.0719 42.7192 30.3755 42.6632 30.6653 42.604C30.955 42.5445 31.2315 42.4818 31.4906 42.4129C31.7488 42.3436 31.9924 42.2716 32.2048 42.1756L32.2026 42.1769C32.2893 42.124 32.3733 42.0729 32.4506 42.0258L32.443 42.0503C32.2368 41.5636 32.0701 41.1703 31.9533 40.8938C31.8968 40.7587 31.8524 40.6525 31.8204 40.576C31.8061 40.5414 31.795 40.5138 31.7861 40.492C31.7795 40.4729 31.7755 40.4627 31.7755 40.4618Z" fill="#332418"/>
<path d="M16.8288 40.4618C17.2301 40.7773 17.8244 40.984 18.4461 41.1067C19.0675 41.2293 19.7217 41.2747 20.3706 41.32C20.3706 41.32 20.0039 42.8227 20.0039 42.9178C20.0039 43.0129 17.2457 42.5942 16.3897 42.1951L16.1426 42.0431L16.8288 40.4618Z" fill="#332418"/>
<path d="M16.8288 40.4618C16.8293 40.4627 16.8253 40.4729 16.8177 40.4925C16.8088 40.5143 16.7973 40.5423 16.7835 40.5765C16.7515 40.6529 16.7071 40.7592 16.6506 40.8943C16.5337 41.1703 16.3671 41.564 16.1608 42.0507L16.1533 42.0263C16.2302 42.0734 16.3146 42.1245 16.4013 42.1774L16.3991 42.176C16.6115 42.2716 16.8546 42.344 17.1133 42.4134C17.3724 42.4818 17.6488 42.5449 17.9386 42.6045C18.2284 42.664 18.5319 42.72 18.8462 42.7712C19.1599 42.8214 19.4853 42.872 19.8173 42.8996C19.8573 42.9023 19.8968 42.9045 19.9359 42.9045C19.9542 42.9045 19.9764 42.9032 19.9866 42.9C19.9866 42.9 19.9844 42.9009 19.9839 42.9023C19.9808 42.9045 19.9773 42.9098 19.9773 42.9147C19.9773 42.9214 19.9777 42.9147 19.9777 42.9147L19.9795 42.8978C19.9808 42.8863 19.9822 42.8756 19.9844 42.8658C19.9986 42.7858 20.0164 42.7089 20.0333 42.6316C20.0688 42.4778 20.1039 42.3258 20.1382 42.1765C20.2102 41.8783 20.2795 41.5898 20.3457 41.3143L20.3688 41.3458C19.8311 41.3085 19.3311 41.2689 18.8875 41.2036C18.4439 41.1396 18.0573 41.0485 17.7466 40.9423C17.4355 40.8374 17.2013 40.7187 17.0506 40.624C16.9755 40.5769 16.9182 40.536 16.8835 40.5085C16.8675 40.4952 16.8542 40.4845 16.8435 40.4752C16.8337 40.4667 16.8288 40.4627 16.8288 40.4618C16.8288 40.4609 16.8333 40.464 16.8431 40.4703C16.8551 40.4783 16.8693 40.488 16.8871 40.5C16.9266 40.5272 16.9826 40.5645 17.0595 40.6094C17.2124 40.6987 17.4466 40.812 17.7568 40.912C18.0666 41.0129 18.4515 41.1 18.8937 41.1605C19.3359 41.2227 19.8346 41.2592 20.3724 41.2947L20.4026 41.2965L20.3955 41.3258C20.3297 41.6014 20.2613 41.8898 20.1902 42.188C20.1559 42.3374 20.1213 42.4889 20.0857 42.6427C20.0688 42.7196 20.0515 42.7974 20.0373 42.8747C20.0351 42.8849 20.0342 42.8938 20.0333 42.9023L20.0315 42.9152L20.0306 42.9223C20.0293 42.9294 20.0248 42.9374 20.0204 42.9418C20.0159 42.9454 20.0088 42.9494 20.0048 42.9507C19.9764 42.9587 19.9577 42.9574 19.9359 42.9583C19.8942 42.9583 19.8537 42.956 19.8133 42.9534C19.4768 42.9258 19.1524 42.8747 18.8373 42.8236C18.5226 42.7716 18.2186 42.7147 17.9279 42.6538C17.6373 42.5929 17.3604 42.5289 17.1008 42.4583C16.8413 42.3872 16.5977 42.3129 16.3813 42.2134L16.3804 42.2129L16.3795 42.2125C16.2933 42.1587 16.2097 42.1067 16.1328 42.0592L16.1182 42.0503L16.1248 42.0347C16.3417 41.5467 16.5173 41.1516 16.6404 40.8747C16.6995 40.7432 16.7462 40.6396 16.7799 40.5654C16.7946 40.5329 16.8066 40.5072 16.8164 40.4867C16.8244 40.4694 16.8284 40.4609 16.8288 40.4618Z" fill="#332418"/>
<path d="M27.928 37.6791C27.9284 37.6809 27.9066 37.6867 27.8653 37.6956C27.8182 37.7054 27.7582 37.7174 27.684 37.7329C27.5262 37.7645 27.2973 37.8054 27.0137 37.8507C26.4462 37.9422 25.6582 38.0445 24.7831 38.1094C23.908 38.1734 23.1128 38.1871 22.5382 38.1791C22.2506 38.1756 22.0182 38.1685 21.8577 38.16C21.7822 38.1556 21.7208 38.1525 21.6728 38.1498C21.6306 38.1467 21.6084 38.1445 21.6084 38.1427C21.6084 38.1409 21.6306 38.1396 21.6728 38.1391C21.7208 38.1391 21.7822 38.1391 21.8577 38.1391C22.0182 38.1409 22.2506 38.1422 22.5377 38.1409C23.1115 38.1387 23.9048 38.1191 24.7786 38.0551C25.652 37.9907 26.4395 37.8947 27.0075 37.8129C27.2915 37.772 27.5213 37.7374 27.68 37.712C27.7546 37.7009 27.8155 37.692 27.8631 37.6849C27.9057 37.6796 27.928 37.6774 27.928 37.6791Z" fill="#332418"/>
<path d="M26.823 38.5085C26.823 38.5103 26.8057 38.5129 26.7728 38.5165C26.7337 38.52 26.6861 38.524 26.6288 38.5289C26.495 38.5387 26.3159 38.552 26.0985 38.5676C25.651 38.6005 25.0328 38.6507 24.3519 38.7209C23.6705 38.7916 23.0554 38.8694 22.6105 38.9289C22.3945 38.9578 22.2163 38.9818 22.0839 38.9996C22.0265 39.0067 21.9794 39.0125 21.9403 39.0169C21.9074 39.0205 21.8901 39.0214 21.8897 39.0196C21.8892 39.0178 21.9061 39.0134 21.9385 39.0063C21.9772 38.9987 22.0239 38.9898 22.0808 38.9787C22.2043 38.9556 22.3834 38.9254 22.6052 38.8911C23.0492 38.8218 23.6643 38.7378 24.3461 38.6671C25.0279 38.5965 25.6474 38.5525 26.0959 38.5294C26.3203 38.5178 26.5017 38.5103 26.6274 38.5076C26.6852 38.5067 26.7328 38.5058 26.7723 38.5054C26.8057 38.5058 26.823 38.5067 26.823 38.5085Z" fill="#332418"/>
<g opacity="0.3">
<path d="M34.9026 34.5858C34.8902 34.6445 34.8804 34.7311 34.9191 34.7778C34.9742 34.8445 35.0577 34.824 35.1151 34.7591C35.1724 34.6943 35.1875 34.6031 35.2 34.5178C35.3031 33.8187 35.3835 33.0889 35.4866 32.3903C35.3026 32.8023 35.2115 33.2618 35.0973 33.7116C35.02 34.0143 34.9666 34.2849 34.9026 34.5858Z" fill="#040000"/>
</g>
<path d="M25.0907 37.1364C25.0907 37.3142 24.9463 37.4587 24.7685 37.4587C24.5907 37.4587 24.4463 37.3142 24.4463 37.1364C24.4463 36.9587 24.5907 36.8142 24.7685 36.8142C24.9467 36.8142 25.0907 36.9587 25.0907 37.1364Z" fill="#332418"/>
<path d="M25.1903 39.8138C25.1903 39.9916 25.0459 40.136 24.8681 40.136C24.6903 40.136 24.5459 39.9916 24.5459 39.8138C24.5459 39.636 24.6903 39.4916 24.8681 39.4916C25.0459 39.4916 25.1903 39.6356 25.1903 39.8138Z" fill="#332418"/>
<g opacity="0.81">
<path d="M28.7423 15.5716C28.7268 15.5685 29.9654 15.4472 29.9654 15.4472C29.8761 15.1374 30.0743 14.6947 30.3939 14.6507C30.7134 14.6067 31.0374 14.8916 31.0348 15.2143C31.2392 15.0872 31.5499 15.2081 31.6152 15.4396C31.6806 15.6712 31.4783 15.9365 31.2379 15.9347C31.3654 16.1979 31.281 16.5463 31.0468 16.7219C30.8126 16.8974 30.4543 16.8805 30.2374 16.6841C30.2139 16.7974 30.0623 16.8512 29.9597 16.7974C29.857 16.7436 29.8103 16.6143 29.8272 16.4996C29.8441 16.385 29.9126 16.2841 29.9926 16.2005L28.765 16.053" fill="white"/>
</g>
<path d="M28.7655 16.0526C28.7655 16.0508 28.7948 16.0526 28.8508 16.0575C28.9113 16.0637 28.9926 16.0717 29.0948 16.0819C29.3117 16.1059 29.6179 16.1397 29.9957 16.1815L30.033 16.1855L30.0073 16.213C29.9575 16.2664 29.9104 16.3273 29.8793 16.3988C29.8477 16.4695 29.8353 16.5517 29.8584 16.6299C29.8793 16.7064 29.9397 16.7806 30.0206 16.793C30.1001 16.8073 30.1984 16.7606 30.2153 16.6793L30.2237 16.6384L30.2548 16.6664C30.4393 16.8335 30.7601 16.8757 30.9993 16.7233C31.2366 16.5739 31.3464 16.2215 31.2148 15.9464L31.1966 15.9077L31.2397 15.9073C31.3259 15.9068 31.4184 15.8682 31.4846 15.7993C31.5495 15.7348 31.5921 15.6486 31.6006 15.5602C31.609 15.4717 31.5788 15.3828 31.5188 15.3193C31.4015 15.1899 31.1917 15.1482 31.0504 15.2366L31.0104 15.2615V15.2139C31.0099 15.033 30.905 14.8659 30.7641 14.7704C30.625 14.673 30.4424 14.6397 30.2997 14.7028C30.1557 14.7673 30.0633 14.905 30.013 15.0388C29.961 15.1748 29.9535 15.3184 29.9855 15.4419L29.9913 15.4642L29.969 15.4659C29.5935 15.4997 29.2886 15.5273 29.0721 15.5468C28.9704 15.5553 28.8895 15.5619 28.829 15.5668C28.7735 15.5713 28.7441 15.5717 28.7441 15.5717C28.7437 15.569 28.7726 15.5637 28.8277 15.5562C28.8877 15.5486 28.9686 15.5388 29.0699 15.5259C29.2859 15.5024 29.5904 15.469 29.9655 15.4282L29.949 15.4522C29.9126 15.3197 29.9201 15.1682 29.973 15.0242C30.0255 14.8824 30.1206 14.7344 30.281 14.6602C30.6099 14.5175 31.0566 14.8033 31.0633 15.2144L31.0233 15.1922C31.1913 15.0886 31.4237 15.1362 31.5588 15.2833C31.6281 15.3562 31.665 15.4628 31.6548 15.565C31.645 15.6677 31.5966 15.7646 31.5233 15.8375C31.4486 15.9153 31.3419 15.961 31.2397 15.9615L31.2641 15.9228C31.4073 16.2259 31.2886 16.6028 31.0281 16.7673C30.7659 16.9317 30.4241 16.8842 30.2237 16.7019L30.2628 16.689C30.2508 16.7446 30.2104 16.7895 30.1641 16.8135C30.1175 16.8379 30.0646 16.8464 30.0144 16.8384C29.909 16.8202 29.8415 16.7295 29.8179 16.6424C29.7921 16.5526 29.8081 16.4588 29.8433 16.3833C29.8779 16.3059 29.929 16.2428 29.981 16.1882L29.9926 16.2202C29.6153 16.1713 29.3104 16.1317 29.0935 16.1037C28.9917 16.0895 28.9113 16.0779 28.8508 16.0695C28.7944 16.0597 28.7655 16.0544 28.7655 16.0526Z" fill="#6D6B6A"/>
<path d="M29.2388 16.4965C29.2352 16.5112 29.1081 16.4934 28.9548 16.4565C28.8014 16.4201 28.6801 16.3788 28.6837 16.3641C28.6872 16.3494 28.8143 16.3672 28.9677 16.4041C29.121 16.4405 29.2423 16.4819 29.2388 16.4965Z" fill="#6D6B6A"/>
<path d="M29.7696 15.9187C29.7696 15.9338 29.5834 15.9458 29.354 15.9458C29.1247 15.9458 28.9385 15.9338 28.9385 15.9187C28.9385 15.9036 29.1247 15.8916 29.354 15.8916C29.5834 15.8916 29.7696 15.9036 29.7696 15.9187Z" fill="#6D6B6A"/>
<path d="M29.2992 15.2085C29.3028 15.2231 29.1512 15.2733 28.961 15.3209C28.7703 15.3685 28.6134 15.3951 28.6094 15.3809C28.6059 15.3662 28.7574 15.316 28.9477 15.2685C29.1383 15.2209 29.2957 15.1938 29.2992 15.2085Z" fill="#6D6B6A"/>
<path d="M23.6448 8.92004L23.4372 8.92627C21.3465 8.99027 19.6545 10.648 19.5505 12.7374C19.4537 14.6809 19.371 16.8298 19.4159 17.8698C19.5083 20.0223 21.6723 20.2916 21.6723 20.2916C21.6772 20.2916 21.6479 21.228 21.6479 21.228L23.871 23.1427L26.3603 20.8854L26.9661 13.1654C27.0897 10.9232 25.8888 8.98227 23.6448 8.92004Z" fill="#F9DACE"/>
<path d="M21.6708 20.2911C21.6708 20.2911 23.0304 20.3294 24.4495 19.3765C24.4495 19.3765 23.8246 21.016 21.6699 20.8876L21.6708 20.2911Z" fill="#DEC5BE"/>
<path d="M22.1736 16.2307C22.1745 16.212 21.9678 16.1827 21.6331 16.1502C21.5482 16.144 21.4678 16.1298 21.4518 16.0725C21.43 16.012 21.4625 15.92 21.5007 15.8205C21.574 15.6133 21.6505 15.3965 21.7309 15.1693C22.05 14.2427 22.278 13.4818 22.2407 13.4689C22.2033 13.4565 21.9145 14.1973 21.5953 15.124C21.5189 15.3525 21.4456 15.5702 21.3758 15.7787C21.3469 15.8756 21.2953 15.9862 21.342 16.1116C21.3669 16.1742 21.43 16.2178 21.4847 16.2307C21.5393 16.2453 21.5869 16.2449 21.6287 16.2462C21.9647 16.2542 22.1727 16.2493 22.1736 16.2307Z" fill="#332418"/>
<path d="M26.8374 14.7649C26.8734 14.748 28.3036 14.2822 28.3014 15.7556C28.2991 17.2293 26.6458 16.9151 26.6436 16.8729C26.6414 16.8307 26.8374 14.7649 26.8374 14.7649Z" fill="#F9DACE"/>
<path d="M27.2689 16.3231C27.2755 16.3183 27.2946 16.3409 27.3378 16.3609C27.38 16.3805 27.4529 16.3938 27.5298 16.3649C27.6853 16.308 27.8169 16.0609 27.8244 15.7956C27.8284 15.6614 27.8004 15.5338 27.7533 15.428C27.7084 15.32 27.6386 15.2449 27.5604 15.2307C27.4822 15.2125 27.4271 15.2596 27.4089 15.3009C27.3893 15.3423 27.3986 15.3716 27.3906 15.3743C27.3866 15.3778 27.3591 15.3494 27.3711 15.2885C27.3773 15.2591 27.3946 15.2245 27.4293 15.196C27.4649 15.1671 27.5169 15.1525 27.5711 15.1587C27.6849 15.1667 27.7866 15.2716 27.8391 15.3876C27.8973 15.504 27.932 15.648 27.9275 15.7983C27.9178 16.0951 27.7653 16.3729 27.5524 16.4343C27.4489 16.4614 27.3622 16.4298 27.3178 16.3951C27.2715 16.3587 27.264 16.3258 27.2689 16.3231Z" fill="#DEC5BE"/>
<path d="M20.6924 14.6729C20.6915 14.8391 20.8297 14.9769 21.0013 14.9809C21.1724 14.9849 21.3119 14.8538 21.3128 14.6871C21.3137 14.5209 21.1755 14.3827 21.0044 14.3787C20.8328 14.3751 20.6933 14.5067 20.6924 14.6729Z" fill="#332418"/>
<path d="M20.1802 13.6734C20.2198 13.7134 20.45 13.5294 20.7842 13.52C21.118 13.5058 21.3682 13.672 21.4033 13.6294C21.4207 13.6107 21.3793 13.5378 21.27 13.4623C21.1624 13.3872 20.9811 13.3165 20.7727 13.324C20.5647 13.3316 20.3918 13.4147 20.2936 13.4974C20.1931 13.58 20.1607 13.6556 20.1802 13.6734Z" fill="#332418"/>
<path d="M23.6768 14.6516C23.6759 14.8178 23.8141 14.9556 23.9857 14.9596C24.1568 14.9636 24.2963 14.8325 24.2972 14.6663C24.2981 14.5 24.1599 14.3623 23.9888 14.3578C23.8172 14.3538 23.6777 14.4854 23.6768 14.6516Z" fill="#332418"/>
<path d="M23.4574 13.6498C23.4974 13.6898 23.7276 13.5058 24.0614 13.4964C24.3951 13.4822 24.6454 13.6484 24.6805 13.6058C24.6978 13.5867 24.6565 13.5142 24.5471 13.4387C24.4396 13.3635 24.2583 13.2929 24.0503 13.3C23.8423 13.3075 23.6694 13.3907 23.5711 13.4733C23.4707 13.5569 23.4383 13.632 23.4574 13.6498Z" fill="#332418"/>
<path d="M23.3389 13.3751C23.4042 13.4476 23.6958 13.2782 24.0758 13.1711C24.454 13.056 24.79 13.0413 24.8065 12.9449C24.8127 12.8996 24.7287 12.8405 24.5767 12.8076C24.426 12.7742 24.2069 12.7742 23.9794 12.8405C23.7522 12.9071 23.5678 13.0253 23.4585 13.1351C23.3482 13.2453 23.3087 13.34 23.3389 13.3751Z" fill="#332418"/>
<path d="M20.3988 12.888C20.4295 12.9871 20.7099 13.0289 21.0086 13.1631C21.3113 13.2885 21.5353 13.464 21.6268 13.4178C21.6686 13.3942 21.6615 13.3058 21.5824 13.1889C21.5046 13.0729 21.3486 12.9351 21.1419 12.8463C20.9353 12.7574 20.729 12.7387 20.5926 12.7622C20.4548 12.7854 20.3868 12.8409 20.3988 12.888Z" fill="#332418"/>
<g opacity="0.81">
<path d="M18.9496 15.3511C18.9189 15.3511 17.646 15.1658 17.6847 15.1658C17.8536 15.0538 17.8896 14.9396 17.8216 14.7578C17.7513 14.5702 17.5829 14.5045 17.3842 14.4796C17.1962 14.4556 16.9958 14.4538 16.8278 14.5422C16.6602 14.6307 16.5402 14.8333 16.6011 15.0133C16.3171 14.8453 15.8949 15.0129 15.8033 15.3298C15.7118 15.6467 15.9793 16.0133 16.3091 16.0231C16.07 16.1436 15.9598 16.4582 16.0496 16.7102C16.1393 16.9622 16.4038 17.1333 16.6718 17.1373C16.9393 17.1413 17.198 16.9911 17.3504 16.7711C17.3411 16.9596 17.57 17.0982 17.7496 17.0405C17.9291 16.9827 18.0358 16.7849 18.0376 16.5965C18.0393 16.408 17.9553 16.2289 17.8553 16.0693L18.95 15.9618" fill="white"/>
</g>
<path d="M18.9496 15.9618C18.9496 15.9631 18.9248 15.9671 18.8759 15.9738C18.8234 15.98 18.7519 15.9885 18.6616 15.9991C18.4701 16.0196 18.1976 16.0493 17.8563 16.0858L17.8688 16.0605C17.9288 16.1556 17.9883 16.2627 18.0256 16.3876C18.0625 16.5107 18.0736 16.6582 18.0181 16.7956C17.967 16.9289 17.8465 17.0653 17.675 17.0747C17.5923 17.0778 17.5088 17.0502 17.4412 16.9982C17.3741 16.9467 17.3221 16.8627 17.3265 16.7693L17.3701 16.784C17.2665 16.9329 17.1128 17.0578 16.927 17.1213C16.7425 17.1862 16.5212 17.1756 16.3381 17.0733C16.1563 16.976 16.0043 16.7858 15.9936 16.5609C15.9808 16.3427 16.0888 16.1062 16.2976 15.9987L16.3092 16.0498C16.2745 16.0467 16.2372 16.044 16.2012 16.0333C16.0336 15.9898 15.899 15.8662 15.8243 15.7187C15.7483 15.572 15.7363 15.3893 15.811 15.2418C15.9608 14.9471 16.3505 14.8369 16.615 14.9907L16.5781 15.0205C16.5408 14.9093 16.5692 14.7898 16.6261 14.6987C16.6834 14.6067 16.7696 14.536 16.8656 14.4978C17.0594 14.4196 17.2608 14.4373 17.4403 14.4645C17.531 14.4805 17.6208 14.5071 17.6959 14.5596C17.7714 14.6107 17.8234 14.6893 17.8483 14.7698C17.8754 14.8476 17.8874 14.9373 17.8528 15.0142C17.8185 15.0907 17.7545 15.1396 17.6954 15.1796L17.6861 15.1827C17.7252 15.1618 17.6839 15.144 17.691 15.1489L17.6923 15.1493L17.6963 15.1502L17.7052 15.152L17.7234 15.1551L17.7599 15.1613C17.7839 15.1653 17.8079 15.1689 17.8314 15.1729C17.8785 15.1805 17.9243 15.1876 17.9688 15.1947C18.0576 15.2085 18.1412 15.2213 18.2194 15.2338C18.3741 15.2578 18.507 15.2787 18.6172 15.2956C18.7225 15.3125 18.8052 15.3253 18.8656 15.3351C18.8914 15.3396 18.9123 15.3431 18.9296 15.3462C18.9439 15.3489 18.951 15.3502 18.951 15.3511C18.951 15.3533 18.9212 15.3511 18.8643 15.3449C18.8034 15.3373 18.7203 15.3276 18.6145 15.3142C18.5043 15.2996 18.371 15.2813 18.2159 15.2609C18.1376 15.2498 18.0536 15.2382 17.9648 15.2258C17.9203 15.2196 17.8741 15.2129 17.827 15.2058C17.8034 15.2022 17.7794 15.1987 17.755 15.1951L17.7181 15.1893L17.6994 15.1862L17.6901 15.1845L17.6852 15.1836L17.6821 15.1827C17.6879 15.1871 17.6439 15.1685 17.6856 15.1476L17.6763 15.1507C17.7328 15.1116 17.7905 15.0649 17.8185 14.9996C17.847 14.9347 17.8372 14.8569 17.8105 14.7831C17.7865 14.7085 17.7399 14.6405 17.6719 14.5947C17.6043 14.5485 17.5203 14.5231 17.4332 14.5085C17.2581 14.4831 17.0621 14.4689 16.8848 14.5422C16.7972 14.5782 16.7203 14.6418 16.6688 14.7249C16.6176 14.8071 16.595 14.9111 16.627 15.0045L16.6488 15.0693L16.5896 15.0347C16.3545 14.896 15.991 15 15.859 15.2653C15.7225 15.532 15.9141 15.9031 16.215 15.9809C16.2474 15.9902 16.2808 15.9925 16.3114 15.9956L16.4065 16.004L16.323 16.0467C16.1372 16.1413 16.0363 16.3582 16.0483 16.5573C16.0572 16.7605 16.1954 16.936 16.3648 17.0271C16.535 17.1227 16.7385 17.1338 16.9128 17.0733C17.0879 17.0147 17.2341 16.8969 17.3328 16.7569L17.3803 16.6889L17.3759 16.7716C17.3719 16.8462 17.4132 16.9165 17.4714 16.9618C17.5296 17.0076 17.6039 17.032 17.675 17.0302C17.8208 17.024 17.9336 16.904 17.9816 16.7805C18.0341 16.6538 18.0256 16.5169 17.9914 16.3978C17.9572 16.2778 17.9003 16.172 17.8425 16.0778L17.8283 16.0551L17.8545 16.0529C18.1963 16.0227 18.4692 15.9982 18.6612 15.9813C18.7519 15.9742 18.8234 15.9685 18.8763 15.9645C18.9243 15.9609 18.9496 15.96 18.9496 15.9618Z" fill="#6D6B6A"/>
<path d="M18.7731 15.5156C18.7731 15.5307 18.5771 15.5427 18.3358 15.5427C18.094 15.5427 17.8984 15.5307 17.8984 15.5156C17.8984 15.5005 18.094 15.4885 18.3358 15.4885C18.5771 15.4885 18.7731 15.5009 18.7731 15.5156Z" fill="#6D6B6A"/>
<path d="M18.8525 15.1062C18.8494 15.1209 18.7089 15.1031 18.5391 15.0671C18.3694 15.0307 18.2342 14.9898 18.2374 14.9751C18.2405 14.9605 18.3809 14.9782 18.5507 15.0142C18.7205 15.0502 18.8556 15.0916 18.8525 15.1062Z" fill="#6D6B6A"/>
<path d="M19.0039 16.2534C19.011 16.2667 18.8897 16.3463 18.7333 16.4312C18.5768 16.5165 18.4439 16.5747 18.4368 16.5614C18.4297 16.548 18.5506 16.4685 18.7075 16.3836C18.8644 16.2987 18.9968 16.2405 19.0039 16.2534Z" fill="#6D6B6A"/>
<path d="M22.695 17.6476C22.9372 17.7543 23.1492 17.5436 23.3341 17.5027C23.4634 17.4738 23.763 17.4725 23.8412 17.3734C23.9839 17.192 24.0505 17.0618 23.9892 16.8476C23.9536 16.7231 23.8283 16.6076 23.7314 16.5156C23.5714 16.3631 23.1407 16.3694 22.9301 16.4618C22.8367 16.5027 22.7536 16.5311 22.6763 16.5943C22.5296 16.7138 22.4221 16.8769 22.3852 17.0623C22.3443 17.2614 22.3767 17.5071 22.695 17.6476Z" fill="#EDBCAD"/>
<path d="M22.4848 16.8094C22.483 16.8085 22.4866 16.7974 22.4959 16.7769C22.5057 16.7569 22.5222 16.7276 22.5488 16.6938C22.6013 16.6262 22.6986 16.5431 22.8377 16.4787C22.9755 16.4147 23.1555 16.3578 23.3608 16.3694C23.5639 16.3774 23.7942 16.476 23.9333 16.6743C24.0022 16.772 24.0404 16.8907 24.0364 17.0049C24.0337 17.1187 23.9964 17.2267 23.935 17.3116C23.8746 17.3978 23.7844 17.4551 23.6964 17.4809C23.6079 17.508 23.5239 17.5134 23.4488 17.5196C23.2986 17.5276 23.1808 17.5511 23.1075 17.5903C23.0337 17.6276 23.0053 17.6667 23.0013 17.6627C22.9999 17.6618 23.0057 17.6511 23.0204 17.6342C23.035 17.6174 23.0599 17.5938 23.0973 17.5716C23.1706 17.5249 23.2955 17.4942 23.4453 17.4814C23.5199 17.4729 23.6017 17.4649 23.6826 17.4382C23.7635 17.4125 23.8404 17.3609 23.8942 17.2827C24.0048 17.1294 24.0217 16.8854 23.8888 16.7054C23.7608 16.5236 23.5493 16.4294 23.3577 16.4191C23.1635 16.4058 22.9888 16.456 22.8537 16.5138C22.7168 16.572 22.6208 16.6467 22.5653 16.708C22.5093 16.7685 22.4893 16.8116 22.4848 16.8094Z" fill="#263138"/>
<path d="M20.0842 12.4796C21.4456 12.476 21.8736 12.9391 22.5065 12.9351C22.9678 12.932 23.3691 12.6271 23.8162 12.5142C24.134 12.4338 24.4833 12.4476 24.7651 12.2809C24.9585 12.1667 25.0985 11.9773 25.19 11.772C25.2816 11.5671 25.3282 11.3453 25.37 11.1249C25.3922 11.0071 25.4127 10.8796 25.3607 10.7716C25.3082 10.6618 25.1945 10.5978 25.0873 10.54C24.7918 10.3813 24.4931 10.2218 24.1709 10.1284C23.8487 10.0356 23.4958 10.0133 23.1811 10.1302C22.7967 10.2729 22.5149 10.6004 22.2638 10.9249C22.0127 11.2489 21.7633 11.5929 21.4056 11.7933C21.1918 11.9129 20.9513 11.9742 20.7247 12.0676C20.6802 12.0858 20.206 12.2218 19.9527 12.2556C19.9531 12.2556 19.894 12.4804 20.0842 12.4796Z" fill="#EDBCAD"/>
<path d="M18.6735 12.068C19.5957 12.2205 20.5446 12.1622 21.2886 11.596C21.5029 11.4334 21.7024 11.2467 21.886 11.0436C22.2171 10.676 22.4775 10.216 22.9211 9.99602C23.4926 9.71291 24.1744 9.91824 24.7771 10.1271L24.7517 10.104C25.0655 10.2489 25.3508 10.4547 25.5873 10.7062C25.4273 12.1249 25.634 13.5845 26.1913 14.8996C26.2371 15.0076 26.3215 15.0974 26.4304 15.1418C26.774 15.2822 26.6722 14.8227 26.9295 14.7374C27.1268 14.6716 27.222 14.7142 27.6131 14.7071C27.7531 14.3382 27.8433 13.3302 27.9642 12.7862C28.2904 12.4485 28.5962 11.8178 28.6131 11.3231C28.63 10.8285 28.3624 10.1947 28.3624 10.1947C27.9962 9.4818 27.7837 9.11735 27.2131 8.91424L27.1993 8.92002C26.6868 8.71424 26.0553 8.71157 25.6348 9.06757C25.53 8.29913 24.8562 7.69113 24.1055 7.49468C23.3553 7.29824 22.1522 7.41646 21.4326 7.70668C20.942 7.90446 20.4655 8.2858 19.9113 8.83602V8.83557C19.9113 8.83602 19.9108 8.83602 19.9108 8.83646C19.8371 8.90935 19.7624 8.98535 19.686 9.06446C19.6793 9.07113 19.674 9.07824 19.6673 9.08491C19.5073 9.18446 19.3104 9.23024 19.1073 9.25113C18.7797 9.28446 18.5771 9.17913 18.3575 8.93424C18.2908 8.85957 18.2068 8.7658 18.1113 8.79513C18.0508 8.8138 18.0162 8.87646 17.9957 8.93602C17.8869 9.25424 18.0242 9.61824 18.2624 9.85557C18.378 9.97068 18.5135 10.06 18.6588 10.1338C18.6588 10.1338 18.438 10.4009 18.062 10.4582C17.8602 10.4889 17.6766 10.6036 17.5606 10.7711C17.5042 10.8529 17.4633 10.9494 17.462 11.0578C17.4557 11.6787 18.0726 11.9685 18.6735 12.068Z" fill="#332418"/>
<path d="M18.2852 11.4183C18.2847 11.4191 18.2905 11.424 18.3025 11.4329C18.3172 11.4436 18.335 11.4565 18.3563 11.472C18.3798 11.4898 18.4096 11.5103 18.4478 11.5307C18.4852 11.552 18.5274 11.5778 18.579 11.5996C18.7794 11.6947 19.1007 11.7889 19.5021 11.7649C19.8998 11.7423 20.3772 11.6009 20.8034 11.2836C21.2341 10.9734 21.6118 10.5169 21.9207 9.99381C22.0776 9.73248 22.2052 9.46492 22.3461 9.21736C22.4861 8.96981 22.6403 8.74092 22.8274 8.56048C23.0123 8.3787 23.227 8.24448 23.4487 8.1827C23.559 8.14981 23.6705 8.14225 23.7763 8.14492C23.8825 8.15025 23.9834 8.17203 24.0763 8.20225C24.2621 8.26448 24.4123 8.36714 24.5261 8.47292C24.6403 8.57959 24.7172 8.69203 24.7696 8.78848C24.8678 8.9867 24.8732 9.11381 24.8812 9.11159C24.8821 9.11159 24.8816 9.10403 24.8794 9.08892C24.8767 9.07114 24.8732 9.04936 24.8692 9.0227C24.8585 8.96492 24.8336 8.88136 24.787 8.77914C24.7363 8.67959 24.6603 8.5627 24.5452 8.45203C24.4305 8.34225 24.2785 8.2347 24.0874 8.16848C23.9918 8.13603 23.8883 8.11292 23.7776 8.10581C23.6678 8.10225 23.551 8.10936 23.4367 8.14225C23.2065 8.20448 22.9843 8.34181 22.7945 8.5267C22.6021 8.7107 22.4438 8.94359 22.3025 9.19248C22.1598 9.44136 22.0323 9.70848 21.8767 9.96759C21.5701 10.4867 21.1981 10.9378 20.7754 11.2454C20.3572 11.56 19.891 11.7018 19.499 11.7289C19.1038 11.7569 18.7865 11.6698 18.5861 11.5809C18.3852 11.492 18.2892 11.4125 18.2852 11.4183Z" fill="#22170F"/>
<path d="M18.4005 11.0165C18.3987 11.0196 18.4276 11.0365 18.4814 11.0645C18.5347 11.0933 18.6156 11.128 18.7182 11.1636C18.8205 11.2 18.9467 11.232 19.0885 11.2556C19.2307 11.2769 19.3894 11.2889 19.5556 11.2831C19.7218 11.2751 19.8787 11.2502 20.0187 11.2173C20.1582 11.1818 20.2809 11.1396 20.38 11.0947C20.4791 11.0507 20.5574 11.0093 20.608 10.976C20.6596 10.9436 20.6867 10.9245 20.6849 10.9213C20.68 10.9129 20.5658 10.9831 20.3667 11.0613C20.2676 11.1013 20.1454 11.1391 20.008 11.1716C19.8702 11.2013 19.716 11.2245 19.5534 11.2325C19.3907 11.2382 19.2351 11.228 19.0956 11.2093C18.956 11.1885 18.8316 11.1609 18.7289 11.1293C18.5245 11.068 18.4049 11.008 18.4005 11.0165Z" fill="#22170F"/>
<path d="M26.3211 11.6809C26.3153 11.6805 26.306 11.7294 26.2993 11.8191C26.2931 11.9089 26.29 12.0409 26.3029 12.204C26.3131 12.2871 26.3122 12.3716 26.3447 12.4765C26.3598 12.5271 26.4171 12.5902 26.4909 12.5858C26.5616 12.5818 26.6118 12.5427 26.6558 12.5067C26.8202 12.3574 26.9989 12.1956 27.1878 12.0245L27.1109 11.9787C27.0851 12.08 27.0584 12.1862 27.0313 12.2942C26.9589 12.5907 26.8896 12.8725 26.8264 13.1302L26.7922 13.2702L26.8976 13.1729C27.1776 12.9138 27.3709 12.652 27.49 12.4591C27.6091 12.2658 27.6593 12.1431 27.6518 12.1391C27.63 12.1236 27.3976 12.6089 26.8398 13.1085L26.9109 13.1511C26.9767 12.8938 27.0482 12.6125 27.1238 12.3169C27.1504 12.2089 27.1771 12.1027 27.2024 12.0009L27.2407 11.8476L27.1256 11.9551C26.9402 12.1285 26.7647 12.2925 26.6029 12.444C26.5656 12.4778 26.5238 12.5054 26.49 12.5071C26.4567 12.5094 26.43 12.4871 26.4144 12.4485C26.3864 12.3707 26.3784 12.2738 26.366 12.1969C26.3238 11.8782 26.3349 11.6814 26.3211 11.6809Z" fill="#22170F"/>
<path d="M26.3801 10.4702C26.385 10.4716 26.3743 10.5 26.3859 10.5489C26.3979 10.5978 26.4348 10.6618 26.4881 10.7391C26.5139 10.7782 26.5437 10.8209 26.5681 10.8738C26.5908 10.9285 26.6045 10.9871 26.6085 11.0529C26.6121 11.1169 26.6045 11.1907 26.5614 11.2547C26.5192 11.3196 26.4334 11.3569 26.3543 11.3436C26.2752 11.3334 26.2054 11.2858 26.1632 11.2267C26.1201 11.1676 26.0979 11.1009 26.0859 11.0378C26.0628 10.9107 26.0801 10.7929 26.1099 10.7022C26.1401 10.6107 26.1832 10.5445 26.2161 10.5031C26.2499 10.4618 26.273 10.4436 26.2752 10.4458C26.2841 10.4516 26.1965 10.5365 26.1463 10.7138C26.1223 10.8014 26.1108 10.912 26.1343 11.0289C26.1552 11.1422 26.2281 11.2738 26.3605 11.2907C26.4237 11.3005 26.4841 11.2738 26.5174 11.2254C26.5512 11.1774 26.5605 11.1142 26.5583 11.056C26.5561 10.9978 26.5441 10.94 26.5263 10.8925C26.5059 10.8445 26.4792 10.8009 26.4552 10.7609C26.4063 10.6814 26.3712 10.6094 26.365 10.5542C26.3592 10.4965 26.3788 10.4685 26.3801 10.4702Z" fill="white"/>
<path d="M26.7282 10.1111C26.7326 10.1125 26.7268 10.1307 26.7357 10.1609C26.7446 10.1911 26.7686 10.2311 26.8037 10.2805C26.8206 10.3054 26.8402 10.3329 26.857 10.3676C26.8726 10.404 26.8819 10.4422 26.8846 10.4858C26.8873 10.528 26.8828 10.5774 26.853 10.6218C26.8242 10.6667 26.7646 10.6925 26.7104 10.6831C26.6566 10.6765 26.609 10.6436 26.581 10.604C26.5522 10.5645 26.5375 10.52 26.5299 10.4782C26.5153 10.3942 26.5273 10.3174 26.5477 10.2582C26.5908 10.1382 26.6579 10.0898 26.661 10.0947C26.6686 10.1005 26.6148 10.1565 26.5846 10.2694C26.5704 10.3254 26.5637 10.3951 26.5793 10.4689C26.593 10.5409 26.6384 10.62 26.7179 10.6298C26.7557 10.6356 26.7904 10.62 26.8099 10.5916C26.8299 10.5636 26.8362 10.5245 26.8353 10.488C26.8344 10.4516 26.8268 10.4147 26.8162 10.3854C26.8037 10.3551 26.7868 10.3271 26.7717 10.3009C26.741 10.2489 26.7188 10.2014 26.7153 10.1645C26.7122 10.1271 26.7259 10.1094 26.7282 10.1111Z" fill="white"/>
<path d="M20.9766 15.208C20.8108 15.1111 20.633 15.0516 20.441 15.0422C20.249 15.0329 20.0361 15.1458 20.0019 15.3351C19.9783 15.4636 20.0437 15.5969 20.1432 15.6813C20.2428 15.7658 20.3726 15.8071 20.501 15.828C20.6312 15.8493 20.7686 15.8516 20.8921 15.8044C21.0157 15.7573 21.1232 15.6547 21.1494 15.5249C21.1766 15.3951 21.1037 15.2453 20.9766 15.208Z" fill="#EDBCAD"/>
<path d="M23.5099 15.3667C23.789 15.2698 24.0885 15.2102 24.4117 15.2009C24.7348 15.1916 25.093 15.3045 25.1508 15.4938C25.1899 15.6222 25.0805 15.7556 24.9125 15.84C24.7445 15.9245 24.5268 15.9658 24.3099 15.9867C24.0903 16.008 23.8592 16.0102 23.6512 15.9631C23.4432 15.916 23.2623 15.8134 23.2179 15.6836C23.1739 15.5538 23.2965 15.404 23.5099 15.3667Z" fill="#EDBCAD"/>
<path d="M23.0677 13.2631C23.0677 13.2694 23.0223 13.276 22.957 13.2471C22.8935 13.2196 22.8112 13.1476 22.7872 13.0365C22.7646 12.9254 22.8103 12.8258 22.8575 12.7751C22.9055 12.7222 22.9495 12.7102 22.9521 12.7156C22.9566 12.7227 22.9223 12.7462 22.8877 12.7982C22.8535 12.8489 22.8215 12.9347 22.8401 13.0249C22.8597 13.1151 22.9232 13.1805 22.9752 13.2129C23.0277 13.2471 23.0686 13.2542 23.0677 13.2631Z" fill="#263138"/>
<path d="M22.2793 12.9013C22.286 12.9004 22.2975 12.9302 22.2971 12.9804C22.2971 13.0302 22.2824 13.1009 22.2433 13.1675C22.2042 13.2342 22.15 13.2818 22.1064 13.3058C22.0624 13.3302 22.0313 13.3347 22.0286 13.3284C22.022 13.3142 22.1277 13.2609 22.1966 13.14C22.2682 13.0209 22.2633 12.9022 22.2793 12.9013Z" fill="#263138"/>
<path d="M16.791 10.9351L17.6892 10.2413L19.2617 11.8973L18.3981 12.4427L19.6688 13.0862L17.4448 12.5538L18.0755 11.8293L16.791 10.9351Z" fill="#90776A"/>
<path d="M15.6113 15.6062L15.9673 14.984L17.2229 15.6209L16.8504 16.1396L17.7575 16.3253L16.3171 16.3898L16.682 15.7622L15.6113 15.6062Z" fill="#90776A"/>
<path d="M21.4074 10.1858L21.8554 10.1436L21.9816 11.0178L21.5812 11.0142L21.8136 11.5467L21.2607 10.8311L21.7141 10.7916L21.4074 10.1858Z" fill="#90776A"/>
<path d="M28.4564 11.5164L28.772 11.8369L28.1742 12.4871L27.924 12.1742L27.6582 12.6906L27.8635 11.8098L28.1804 12.1364L28.4564 11.5164Z" fill="#90776A"/>
<path d="M25.6434 9.53601L25.8626 9.73734L25.463 10.7453L25.3226 10.524L25.2448 11.2329L25.0928 10.1333L25.4874 10.316L25.6434 9.53601Z" fill="#90776A"/>
<path d="M30.8058 18.8573L30.7467 19.288L29.896 19.2151L29.988 18.8387L29.4355 18.9404L30.2307 18.5773L30.168 19.0124L30.8058 18.8573Z" fill="#90776A"/>
<path d="M18.6916 14.3947L18.6938 14.4013L18.6907 14.4084C18.6871 14.4155 18.684 14.42 18.672 14.4187C18.6573 14.4173 18.6293 14.4075 18.5729 14.3835C18.5125 14.3582 18.4333 14.3218 18.3498 14.2818C18.0236 14.1249 18.0311 14.1093 18.0382 14.0942C18.0458 14.0782 18.0533 14.0755 18.1565 14.1187C18.2169 14.144 18.296 14.18 18.3796 14.2204C18.492 14.2751 18.6831 14.3702 18.6916 14.3947ZM20.7413 12.156C20.6929 12.1067 20.6267 12.0391 20.5578 11.9622C20.488 11.8853 20.428 11.8124 20.3836 11.7595C20.3031 11.6627 20.2982 11.6569 20.2818 11.668L20.2747 11.6729L20.2738 11.6804C20.2702 11.7071 20.3827 11.8702 20.5067 12.0075C20.6285 12.1431 20.7769 12.2698 20.8071 12.2729C20.8076 12.2729 20.808 12.2729 20.8085 12.2729L20.8169 12.2724L20.8218 12.2667C20.8351 12.2515 20.8293 12.2458 20.7413 12.156ZM23.6218 11.2413C23.6236 11.1551 23.6258 11.0742 23.6276 11.0053C23.6347 10.7658 23.6351 10.7667 23.6125 10.7635C23.5956 10.7622 23.588 10.7613 23.5725 10.9124C23.5667 10.9684 23.5569 11.0849 23.5538 11.24C23.5507 11.3951 23.5565 11.512 23.56 11.568C23.5685 11.7013 23.5756 11.7169 23.5885 11.7182C23.5902 11.7182 23.592 11.7182 23.5942 11.7182C23.616 11.7173 23.6165 11.7173 23.6187 11.4778C23.6191 11.4089 23.62 11.328 23.6218 11.2413ZM26.5102 11.6218L26.5045 11.6182C26.4907 11.6089 26.476 11.5995 26.2729 11.9142C26.0698 12.2284 26.0845 12.2378 26.0987 12.2471C26.1009 12.2484 26.1031 12.2498 26.1058 12.2502C26.1213 12.2515 26.1578 12.2182 26.3302 11.9511C26.4005 11.8422 26.5178 11.6551 26.5125 11.6298L26.5102 11.6218ZM28.5285 13.4902L28.5307 13.4827L28.524 13.4698L28.5178 13.4675C28.4916 13.4587 28.312 13.5409 28.2062 13.5907C28.104 13.6387 28.0098 13.6867 27.9591 13.716L27.9436 13.7218L27.9449 13.7244L27.9662 13.7707L27.9809 13.7622C28.0351 13.7422 28.1325 13.7004 28.2351 13.652C28.3409 13.6022 28.5196 13.5147 28.5285 13.4902ZM28.8342 16.3973L28.8298 16.392C28.8138 16.3715 28.6156 16.3453 28.4987 16.3311C28.4125 16.3209 28.3307 16.3129 28.2693 16.3089C28.1693 16.3027 28.1582 16.3062 28.156 16.3244C28.1542 16.3409 28.152 16.3582 28.4911 16.3982C28.5316 16.4031 28.5711 16.4071 28.608 16.4111C28.6493 16.4151 28.6876 16.4182 28.7205 16.4204C28.8205 16.4267 28.8316 16.4231 28.8338 16.4049L28.8342 16.3973Z" fill="#90776A"/>
</g>
</g>
<defs>
<clipPath id="clip0_1141_49371">
<rect width="48" height="48" rx="24" fill="white"/>
</clipPath>
<clipPath id="clip1_1141_49371">
<rect width="48" height="48" fill="white"/>
</clipPath>
</defs>
</svg>
