<svg width="48" height="48" viewBox="0 0 48 48" fill="none" xmlns="http://www.w3.org/2000/svg">
<g clip-path="url(#clip0_1141_49370)">
<rect width="48" height="48" rx="24" fill="white"/>
<path opacity="0.18" d="M13.2698 39.4666C16.0789 39.4666 18.356 38.1519 18.356 36.5302C18.356 34.9084 16.0789 33.5938 13.2698 33.5938C10.4608 33.5938 8.18359 34.9084 8.18359 36.5302C8.18359 38.1519 10.4608 39.4666 13.2698 39.4666Z" fill="#C4B3A6"/>
<path opacity="0.18" d="M24.7474 44.1906C27.5564 44.1906 29.8336 42.8759 29.8336 41.2542C29.8336 39.6324 27.5564 38.3177 24.7474 38.3177C21.9383 38.3177 19.6611 39.6324 19.6611 41.2542C19.6611 42.8759 21.9383 44.1906 24.7474 44.1906Z" fill="#C4B3A6"/>
<path opacity="0.18" d="M34.6556 44.1906C37.4646 44.1906 39.7418 42.8759 39.7418 41.2542C39.7418 39.6324 37.4646 38.3177 34.6556 38.3177C31.8465 38.3177 29.5693 39.6324 29.5693 41.2542C29.5693 42.8759 31.8465 44.1906 34.6556 44.1906Z" fill="#C4B3A6"/>
<g opacity="0.52">
<path d="M3.47852 20.7782L3.69318 20.7925L14.2727 14.68L14.1656 14.6022L3.47852 20.7782Z" fill="#BFA999"/>
<path d="M14.1658 14.6022L3.69336 20.6542V11.7875L14.1658 5.73553V14.6022Z" fill="white"/>
<path d="M14.4874 5.30353L3.47852 11.6635V21.164L14.487 14.804L14.4874 5.30353ZM14.2727 14.68L3.69318 20.7924V11.7875L14.2727 5.67508V14.68Z" fill="#CAB8AB"/>
<path d="M14.2722 14.68L14.165 14.6022V5.73555L14.2722 5.67511V14.68Z" fill="#AD9B8B"/>
<path d="M14.4871 5.30354L14.38 5.24176L3.37109 11.6018L3.4782 11.6635L14.4871 5.30354Z" fill="#AD9B8B"/>
<path d="M3.37109 11.6017L3.4782 11.6635V21.164L3.37109 21.1022V11.6017Z" fill="#AD9B8B"/>
<path d="M3.69238 16.2097L14.1648 10.1555L14.2719 10.22L3.69238 16.3324V16.2097Z" fill="#D9C8BC"/>
<path d="M14.2724 10.22V10.4595L3.69238 16.572L3.69283 16.3324L14.2724 10.22Z" fill="#CAB8AB"/>
<path d="M3.69336 11.9666L14.1658 5.91553L14.2222 6.16664L3.69336 12.2524V11.9666Z" fill="#CAB8AB"/>
<path d="M3.69336 11.9666V12.0813L14.188 6.01508L14.1658 5.91553L3.69336 11.9666Z" fill="#D9C8BC"/>
<path d="M3.69336 12.3667L14.1658 6.31555L14.2222 6.56666L3.69336 12.6524V12.3667Z" fill="#CAB8AB"/>
<path d="M3.69336 12.3667V12.4813L14.188 6.41511L14.1658 6.31555L3.69336 12.3667Z" fill="#D9C8BC"/>
<path d="M3.69336 12.7666L14.1658 6.71552L14.2222 6.96663L3.69336 13.0524V12.7666Z" fill="#CAB8AB"/>
<path d="M3.69336 12.7666V12.8813L14.188 6.81507L14.1658 6.71552L3.69336 12.7666Z" fill="#D9C8BC"/>
<path d="M3.69336 13.1662L14.1658 7.11511L14.2222 7.36622L3.69336 13.4524V13.1662Z" fill="#CAB8AB"/>
<path d="M3.69336 13.1662V13.2813L14.188 7.21511L14.1658 7.11511L3.69336 13.1662Z" fill="#D9C8BC"/>
<path d="M3.69336 13.5662L14.1658 7.51508L14.2222 7.76619L3.69336 13.8524V13.5662Z" fill="#CAB8AB"/>
<path d="M3.69336 13.5662V13.6813L14.188 7.61508L14.1658 7.51508L3.69336 13.5662Z" fill="#D9C8BC"/>
<path d="M3.69336 13.9662L14.1658 7.9151L14.2222 8.16621L3.69336 14.252V13.9662Z" fill="#CAB8AB"/>
<path d="M3.69336 13.9662V14.0813L14.188 8.0151L14.1658 7.9151L3.69336 13.9662Z" fill="#D9C8BC"/>
<path d="M3.69336 14.3662L14.1658 8.31506L14.2222 8.56618L3.69336 14.652V14.3662Z" fill="#CAB8AB"/>
<path d="M3.69336 14.3662V14.4808L14.188 8.41462L14.1658 8.31506L3.69336 14.3662Z" fill="#D9C8BC"/>
<path d="M3.69336 14.7662L14.1658 8.71509L14.2222 8.9662L3.69336 15.052V14.7662Z" fill="#CAB8AB"/>
<path d="M3.69336 14.7662V14.8809L14.188 8.81464L14.1658 8.71509L3.69336 14.7662Z" fill="#D9C8BC"/>
<path d="M3.69336 15.1662L14.1658 9.11511L14.2222 9.36622L3.69336 15.452V15.1662Z" fill="#CAB8AB"/>
<path d="M3.69336 15.1662V15.2809L14.188 9.21467L14.1658 9.11511L3.69336 15.1662Z" fill="#D9C8BC"/>
<path d="M3.69336 15.5662L14.1658 9.51508L14.2222 9.76619L3.69336 15.852V15.5662Z" fill="#CAB8AB"/>
<path d="M3.69336 15.5662V15.6809L14.188 9.61463L14.1658 9.51508L3.69336 15.5662Z" fill="#D9C8BC"/>
<path d="M30.2892 26.6689C31.2554 27.2329 31.2554 28.1476 30.2892 28.712C29.323 29.276 27.7563 29.276 26.7901 28.712C25.8239 28.148 25.8239 27.2334 26.7901 26.6694C27.7568 26.1049 29.323 26.1049 30.2892 26.6689Z" fill="#BFAFA2"/>
<path opacity="0.18" d="M41.6134 36.0426L45.9192 33.5613C46.0192 33.5035 46.0197 33.4098 45.9192 33.3515L35.2783 27.1858C35.1783 27.1275 35.0161 27.1275 34.9161 27.1853L30.6103 29.6666C30.5103 29.7244 30.5099 29.8182 30.6103 29.8764L41.2512 36.0422C41.3512 36.1004 41.5134 36.1004 41.6134 36.0426Z" fill="#C4B3A6"/>
<path opacity="0.18" d="M6.38583 36.0426L2.08005 33.5613C1.98005 33.5035 1.97961 33.4098 2.08005 33.3515L12.7209 27.1858C12.8209 27.1275 12.9832 27.1275 13.0832 27.1853L17.3889 29.6666C17.4889 29.7244 17.4894 29.8182 17.3889 29.8764L6.74805 36.0422C6.64805 36.1004 6.48583 36.1004 6.38583 36.0426Z" fill="#C4B3A6"/>
<path opacity="0.18" d="M19.2949 27.7636L15.9011 25.8076C15.822 25.7618 15.822 25.688 15.9011 25.6422L19.5385 23.5338C19.6171 23.488 19.7451 23.488 19.8242 23.5333L23.218 25.4893C23.2971 25.5351 23.2971 25.6089 23.218 25.6547L19.5807 27.7631C19.5016 27.8093 19.3736 27.8093 19.2949 27.7636Z" fill="#C4B3A6"/>
<path d="M26.9888 27.6543C26.159 26.7978 25.6715 23.3125 26.4808 22.6329H30.5999C31.4092 23.312 30.9221 26.796 30.0928 27.6534C30.0857 27.6614 30.0777 27.6689 30.0701 27.6769C30.0608 27.6863 30.051 27.696 30.0417 27.7054C30.0181 27.7285 29.9932 27.7507 29.9666 27.7729C29.9599 27.7783 29.9532 27.7832 29.9466 27.7885C29.9261 27.8045 29.9061 27.8209 29.8839 27.8365C29.8484 27.8618 29.8128 27.8854 29.7768 27.9058C29.0941 28.3045 27.987 28.3045 27.3044 27.9058C27.2679 27.8854 27.2319 27.8614 27.1964 27.836C27.1755 27.8214 27.1572 27.8063 27.1381 27.7916C27.1301 27.7849 27.1217 27.7792 27.1137 27.772C27.0879 27.7507 27.0639 27.7289 27.0412 27.7072C27.0301 27.6965 27.019 27.6854 27.0084 27.6747C27.0017 27.6672 26.9946 27.6609 26.9888 27.6543Z" fill="#AD9B8B"/>
<path d="M30.2423 22.3596C31.1823 22.9085 31.1823 23.7978 30.2423 24.3467C29.3023 24.8956 27.7788 24.8956 26.8388 24.3467C25.8988 23.7978 25.8988 22.9085 26.8388 22.3596C27.7788 21.8107 29.3023 21.8107 30.2423 22.3596Z" fill="#BFAFA2"/>
<path d="M29.7897 22.6232C30.4799 23.0263 30.4799 23.6796 29.7897 24.0823C29.0995 24.4854 27.9803 24.4854 27.2901 24.0823C26.5999 23.6792 26.5999 23.0258 27.2901 22.6232C27.9803 22.2205 29.0995 22.2205 29.7897 22.6232Z" fill="#E0E0E0"/>
<path d="M27.2903 23.3161C27.9805 22.913 29.0996 22.913 29.7898 23.3161C29.9814 23.4281 30.1178 23.5596 30.2032 23.6996C30.1178 23.8396 29.9814 23.9712 29.7898 24.0832C29.0996 24.4863 27.9805 24.4863 27.2903 24.0832C27.0987 23.9712 26.9618 23.8396 26.877 23.6996C26.9623 23.5596 27.0987 23.4281 27.2903 23.3161Z" fill="#FBFBFB"/>
<path d="M29.7231 17.0822L28.6151 18.2258L29.7391 17.516C29.7391 17.516 29.8267 18.116 29.6805 18.6769C29.6805 18.6769 29.1374 19.1058 28.836 19.4596L29.7058 18.9765C29.7058 18.9765 29.848 19.5729 29.7178 20.528C29.6836 20.7782 29.4729 21.2751 29.3467 21.6422C29.2898 21.8089 29.2223 21.9747 29.1409 22.1374C29.1365 22.1476 29.1311 22.1574 29.1263 22.1676C28.9005 22.0751 28.6676 21.9876 28.4267 21.9045C28.2383 21.6138 27.9454 20.8729 27.7938 20.2551C27.2143 17.8889 28.8485 16.2742 30.2476 15.6209C30.2467 15.6214 29.828 16.316 29.7231 17.0822Z" fill="#BFAFA2"/>
<path d="M28.7024 17.3187C28.4833 17.6058 28.3793 17.9596 28.31 18.3084C28.242 18.66 28.2171 19.0191 28.2269 19.376C28.246 20.0902 28.422 20.8022 28.7629 21.4262L28.7633 21.4271C28.7726 21.444 28.7664 21.4653 28.7495 21.4747C28.7326 21.484 28.7113 21.4778 28.702 21.4609L28.7015 21.4604C28.3642 20.8187 28.1993 20.0964 28.1917 19.3769C28.1877 19.0169 28.2189 18.6569 28.2926 18.3049C28.3677 17.9556 28.4784 17.6022 28.7024 17.3187Z" fill="white"/>
<path d="M24.8418 18.0009C24.8418 18.0009 24.8422 18.0018 24.8436 18.0031C24.8694 18.0476 25.2925 18.78 25.8685 20.1618L27.1556 20.6094L26.1485 20.6071L26.5258 21.5307L27.7818 22.0311L26.7342 22.0165C26.7342 22.0165 26.8409 23.06 27.4965 23.6031C27.8582 23.9031 28.0316 23.9391 28.1898 23.8791C28.3827 23.8058 28.5165 23.5351 28.6622 23.1222C28.808 22.7094 28.812 21.824 28.5587 20.9187C28.4911 20.6778 28.3854 20.448 28.2498 20.2316C27.4756 18.9876 25.7454 18.1476 24.8418 18.0009Z" fill="#BFAFA2"/>
<path d="M26.1511 18.68C26.7831 19.1018 27.3582 19.6289 27.7684 20.2787C27.9755 20.6009 28.1355 20.9556 28.2333 21.3271C28.3266 21.6996 28.3613 22.0863 28.3289 22.4667C28.3289 22.4689 28.3271 22.4703 28.3249 22.4703C28.3231 22.4703 28.3213 22.4685 28.3213 22.4667C28.3111 22.0858 28.2658 21.7094 28.1613 21.3467C28.0631 20.9831 27.9111 20.6347 27.7173 20.3103C27.324 19.6623 26.7653 19.1249 26.1462 18.6863C26.1444 18.6849 26.144 18.6827 26.1453 18.6809C26.1471 18.6791 26.1493 18.6787 26.1511 18.68Z" fill="white"/>
<path d="M33.0722 18.4507C32.9531 18.448 32.8189 18.4542 32.6731 18.4689C32.2353 18.5133 31.6931 18.6365 31.146 18.8405C30.9633 18.9085 30.7807 18.9853 30.6007 19.0716C30.5109 19.1147 30.4216 19.16 30.3336 19.2076C29.8936 19.4453 29.4847 19.7396 29.1633 20.0925C29.0047 20.2662 28.8691 20.4556 28.7607 20.6587C28.7464 20.6849 28.7313 20.7111 28.718 20.7378C28.718 20.7378 28.718 20.7382 28.7176 20.7382C28.6833 20.808 28.6531 20.8765 28.6242 20.9445C28.2869 21.7071 28.2584 22.2365 28.2798 22.8236C28.2962 23.2787 28.4513 23.7996 28.5398 23.8849C28.5518 23.8965 28.5651 23.9062 28.5793 23.9142C28.7091 23.9969 28.9158 23.9489 29.3016 23.7329C30.0749 23.3005 30.3785 22.2049 30.3785 22.2049L29.3033 22.0222L30.6833 21.7467L31.2438 20.8725L30.2122 20.6849L31.614 20.4693C32.4642 19.164 33.0353 18.4938 33.07 18.4529C33.0713 18.4516 33.0722 18.4507 33.0722 18.4507Z" fill="#BFAFA2"/>
<path d="M32.6731 18.4689C32.2353 18.5133 31.6931 18.6365 31.146 18.8405C30.9633 18.9085 30.7807 18.9853 30.6007 19.0716C30.5109 19.1147 30.4216 19.16 30.3336 19.2076C29.8936 19.4453 29.4847 19.7396 29.1633 20.0925C29.0047 20.2662 28.8691 20.4556 28.7607 20.6587C28.7464 20.6849 28.7313 20.7111 28.718 20.7378C28.718 20.7378 28.718 20.7382 28.7176 20.7382C28.6833 20.808 28.6531 20.8765 28.6242 20.9445C28.2869 21.7071 28.2584 22.2365 28.2798 22.8236C28.2962 23.2787 28.4513 23.7996 28.5398 23.8849C28.5518 23.8965 28.5651 23.9062 28.5793 23.9142C28.6042 23.9302 28.6331 23.9396 28.6647 23.9453C28.5696 23.2391 28.9167 21.4493 29.4425 20.7129C29.9896 19.9467 31.2873 18.836 33.0713 18.4525L33.07 18.4507C32.9509 18.448 32.818 18.4542 32.6731 18.4689Z" fill="#AD9B8B"/>
<path d="M28.6594 23.9454C28.6212 23.424 28.6639 22.8982 28.7608 22.384C28.8643 21.8716 29.0199 21.364 29.2785 20.9031C29.543 20.4422 29.923 20.0658 30.327 19.7325C30.739 19.4067 31.1901 19.1298 31.6723 18.9262C31.6745 18.9254 31.6772 18.9262 31.6781 18.9285C31.679 18.9307 31.6781 18.9329 31.6763 18.9342C31.2177 19.1827 30.7799 19.4667 30.383 19.8005C30.1825 19.9645 29.9905 20.1396 29.8145 20.3294C29.6368 20.5169 29.4701 20.7169 29.3394 20.9387C29.0785 21.3849 28.915 21.8858 28.8039 22.3929C28.6959 22.9014 28.6421 23.4236 28.6683 23.9449C28.6683 23.9471 28.6665 23.9494 28.6643 23.9494C28.6617 23.9498 28.6594 23.948 28.6594 23.9454Z" fill="white"/>
<path d="M22.0956 15.5929L20.1898 14.4924C19.8996 14.3249 19.4293 14.3249 19.1391 14.4924L17.2333 15.5929C16.9431 15.7604 16.708 16.1675 16.708 16.5026V25.5684L19.6645 27.2751L22.6209 25.5684V16.5026C22.6209 16.168 22.3858 15.7604 22.0956 15.5929Z" fill="#BFAFA2"/>
<path d="M19.6641 18.2098C19.6641 17.8747 19.8992 17.4676 20.1894 17.3L22.0952 16.1996C22.3854 16.032 22.6205 16.168 22.6205 16.5027V25.5684L19.6641 27.2751V18.2098Z" fill="#D9C8BC"/>
<path d="M16.708 16.5031V25.5689L19.664 27.2755V18.2098C19.664 18.0098 19.7476 17.784 19.8773 17.5982L16.9222 15.8915C16.7929 16.0773 16.708 16.3027 16.708 16.5031Z" fill="#CCBCB1"/>
<path d="M22.3751 17.7587L19.9111 19.1813V22.4564L22.3751 21.0338V17.7587Z" fill="#CCBCB1"/>
<path d="M21.6938 20.6404V18.1498L19.9111 19.1813V21.6724L21.6938 20.6404Z" fill="#BFAFA2"/>
<path d="M21.6938 20.6404L22.3751 21.0338L19.9111 22.4564V21.6724L21.6938 20.6404Z" fill="#CCBCB1"/>
<path d="M22.013 17.9675L21.9224 18.4026L21.8241 18.4586C21.7308 18.512 21.6157 18.5115 21.5228 18.4578L21.5046 18.4471L21.4668 18.2809L22.013 17.9675Z" fill="#A29388"/>
<path d="M20.8214 18.6551L20.7294 19.0969L20.6312 19.1529C20.5379 19.2062 20.4228 19.2058 20.3299 19.152L20.3117 19.1413L20.2734 18.9711L20.8214 18.6551Z" fill="#A29388"/>
<path d="M17.184 14.7947C17.184 14.4676 17.4311 14.1378 17.8623 13.8889C18.3329 13.6174 18.9889 13.4614 19.6631 13.4614C20.3374 13.4614 20.9938 13.6174 21.4645 13.8889C21.8951 14.1378 22.1423 14.468 22.1423 14.7951C22.1423 14.8627 22.1423 15.1311 22.1423 15.1987C22.1423 15.5258 21.8951 15.856 21.4645 16.1045C20.9943 16.376 20.3374 16.532 19.6631 16.532C18.9889 16.532 18.3325 16.376 17.8618 16.1045C17.4311 15.8556 17.1836 15.5254 17.1836 15.1983C17.184 15.1307 17.184 14.8623 17.184 14.7947Z" fill="#B8A79F"/>
<path d="M19.6631 16.1285C20.3374 16.1285 20.9938 15.9729 21.464 15.7009C21.8947 15.452 22.1423 15.1218 22.1423 14.7951C22.1423 14.468 21.8951 14.1378 21.464 13.8889C20.9938 13.6174 20.3369 13.4614 19.6627 13.4614C18.9885 13.4614 18.332 13.6169 17.8618 13.8889C17.4311 14.1378 17.1836 14.468 17.1836 14.7947C17.1836 15.1218 17.4307 15.452 17.8618 15.7009C18.3325 15.9725 18.9889 16.1285 19.6631 16.1285Z" fill="#CCBCB1"/>
<path d="M16.9609 14.2405V9.00223C16.908 8.56579 17.168 8.11912 17.7458 7.78579C18.8044 7.17468 20.5213 7.17468 21.58 7.78579C22.1107 8.09201 22.3751 8.49379 22.3738 8.89556V14.3489C22.3738 14.3498 22.3738 14.3507 22.3738 14.3516V14.4738H22.3636C22.3147 14.8325 22.0547 15.1827 21.5796 15.4569C20.5209 16.068 18.804 16.068 17.7453 15.4569C17.2707 15.1827 17.0102 14.832 16.9613 14.4738H16.96V14.4596C16.952 14.3867 16.952 14.3138 16.9609 14.2405Z" fill="#D9C8BC"/>
<path d="M19.6632 15.5675C20.3272 15.5675 20.9463 15.4213 21.4063 15.1555C21.7659 14.948 21.9837 14.6893 22.0192 14.4266L22.0263 14.3764V10.7666C22.0272 10.4804 21.801 10.1862 21.4063 9.9582C20.9463 9.69243 20.3272 9.5462 19.6632 9.5462C18.9992 9.5462 18.3801 9.69243 17.9201 9.9582C17.493 10.2049 17.2694 10.5231 17.3068 10.8315L17.3094 10.8524V14.2613L17.3068 14.2822C17.3014 14.3271 17.3014 14.3729 17.3068 14.4178L17.3094 14.4404C17.3508 14.6982 17.5672 14.9515 17.9205 15.1551C18.3801 15.4213 18.9992 15.5675 19.6632 15.5675Z" fill="#B8A79F"/>
<path d="M17.9204 9.95869C18.3858 9.70225 18.9996 9.54669 19.6636 9.54669C20.3276 9.54669 20.9258 9.73291 21.4067 9.95869C21.8031 10.1445 22.0302 10.4765 22.0267 10.832C22.0302 11.1876 21.8031 11.5196 21.4067 11.7054C20.9258 11.9307 20.3276 12.1174 19.6636 12.1174C18.9996 12.1174 18.3804 11.9711 17.9204 11.7054C17.4933 11.4587 17.3071 11.1525 17.3071 10.832C17.2867 10.5009 17.4827 10.1996 17.9204 9.95869Z" fill="#C7B7AE"/>
<path d="M19.6631 10.2263C20.3374 10.2263 20.9938 10.0707 21.464 9.7987C21.8947 9.54981 22.1423 9.21959 22.1423 8.89292C22.1423 8.56581 21.8951 8.23559 21.464 7.9867C20.9938 7.71514 20.3369 7.55914 19.6627 7.55914C18.9885 7.55914 18.332 7.7147 17.8618 7.9867C17.4311 8.23559 17.1836 8.56581 17.1836 8.89248C17.1836 9.21959 17.4307 9.54981 17.8618 9.7987C18.3325 10.0703 18.9889 10.2263 19.6631 10.2263Z" fill="#BFAFA2"/>
<path d="M20.6094 17.7778L20.7147 17.8387L20.7094 17.8476C20.7214 17.8667 20.728 17.8925 20.728 17.924C20.728 18.0276 20.6556 18.1529 20.5658 18.2049C20.5387 18.2205 20.5129 18.2276 20.4903 18.2267L20.4849 18.2356L20.3796 18.1747C20.3503 18.1578 20.332 18.1214 20.332 18.0698C20.332 17.9663 20.4045 17.8409 20.4943 17.7889C20.5396 17.7631 20.58 17.7605 20.6094 17.7778Z" fill="#B6A89E"/>
<path d="M20.4375 18.1307C20.4375 18.2343 20.5099 18.2761 20.5997 18.2245C20.6891 18.1729 20.7619 18.0472 20.7619 17.9436C20.7619 17.8401 20.6895 17.7983 20.5997 17.8498C20.5104 17.9014 20.4375 18.0272 20.4375 18.1307Z" fill="#BFAFA2"/>
<path d="M21.8008 17.0969L21.9061 17.1578L21.9008 17.1667C21.9128 17.1858 21.9194 17.2116 21.9194 17.2431C21.9194 17.3467 21.847 17.472 21.7572 17.524C21.7301 17.5396 21.7043 17.5467 21.6817 17.5458L21.6763 17.5547L21.571 17.4938C21.5417 17.4769 21.5234 17.4405 21.5234 17.3889C21.5234 17.2853 21.5959 17.16 21.6857 17.108C21.731 17.0822 21.7714 17.08 21.8008 17.0969Z" fill="#B6A89E"/>
<path d="M21.6299 17.4498C21.6299 17.5534 21.7023 17.5951 21.7921 17.5436C21.8814 17.492 21.9543 17.3663 21.9543 17.2627C21.9543 17.1591 21.8819 17.1174 21.7921 17.1689C21.7023 17.2205 21.6299 17.3463 21.6299 17.4498Z" fill="#BFAFA2"/>
<path d="M40.7031 33.6427L41.0729 35.4769L41.432 35.6845L41.7885 35.4787L42.1613 33.6427L41.432 33.2218L40.7031 33.6427Z" fill="#E0E0E0"/>
<path d="M40.7031 33.6427L41.0729 35.4769L41.432 35.6845L41.7885 35.4787L42.1613 33.6427L41.432 33.2218L40.7031 33.6427Z" fill="#AD9B8B"/>
<path d="M41.432 35.6845V34.0636L40.7031 33.6427L41.0729 35.4769L41.432 35.6845Z" fill="#BFAFA2"/>
<path opacity="0.05" d="M40.7031 33.6427L40.9418 34.8271L41.432 35.1102L41.9205 34.8285L42.1613 33.6427L41.432 33.2218L40.7031 33.6427Z" fill="#040000"/>
<path d="M43.9092 31.7916L44.279 33.6258L44.6385 33.8333L44.9945 33.6276L45.3678 31.7916L44.6385 31.3702L43.9092 31.7916Z" fill="#E0E0E0"/>
<path d="M43.9092 31.7916L44.279 33.6258L44.6385 33.8333L44.9945 33.6276L45.3678 31.7916L44.6385 31.3702L43.9092 31.7916Z" fill="#AD9B8B"/>
<path d="M44.6385 33.8333V32.2125L43.9092 31.7916L44.279 33.6258L44.6385 33.8333Z" fill="#BFAFA2"/>
<path opacity="0.05" d="M43.9092 31.7916L44.1478 32.976L44.6385 33.2591L45.127 32.9773L45.3674 31.7916L44.6385 31.3702L43.9092 31.7916Z" fill="#040000"/>
<path d="M31.2178 28.1662L31.5875 30.0009L31.9471 30.208L32.3036 30.0027L32.6764 28.1662L31.9471 27.7454L31.2178 28.1662Z" fill="#AD9B8B"/>
<path d="M31.9471 30.208V28.5872L31.2178 28.1663L31.5875 30.0009L31.9471 30.208Z" fill="#BFAFA2"/>
<path opacity="0.05" d="M31.2178 28.1662L31.4569 29.3511L31.9471 29.6343L32.4355 29.352L32.6764 28.1662L31.9471 27.7454L31.2178 28.1662Z" fill="#040000"/>
<path d="M41.4316 34.8142L45.4054 32.52V23.9196L41.4316 26.2138V34.8142Z" fill="#B7A595"/>
<path d="M41.4316 26.2138L31.0107 20.1974V28.7978L41.4316 34.8143V26.2138Z" fill="#AD9B8B"/>
<path d="M31.0107 20.1974L41.4316 26.2138L45.4054 23.9196L34.9845 17.9031L31.0107 20.1974Z" fill="#BFAFA2"/>
<path d="M40.8644 30.4742L31.5786 25.1133L31.5791 28.2698L31.4746 28.3298L40.7599 33.6911L40.8644 33.6307V30.4742Z" fill="#CFBFB3"/>
<path d="M40.7599 30.5347L31.4746 25.1738V28.3298L40.7599 33.6911V30.5347Z" fill="#BFAFA2"/>
<path d="M36.2956 28.5538L35.5231 28.108C35.4227 28.0502 35.3418 28.0764 35.3418 28.1671C35.3418 28.2578 35.4231 28.3778 35.5231 28.436L36.2956 28.8818C36.396 28.9395 36.4769 28.9133 36.4769 28.8227C36.4769 28.732 36.3956 28.6115 36.2956 28.5538Z" fill="#E0E0E0"/>
<path d="M40.8644 26.6631L31.5791 21.3022V24.4587L31.4746 24.5187L40.7604 29.88L40.8648 29.8196L40.8644 26.6631Z" fill="#CFBFB3"/>
<path d="M40.7604 26.7236L31.4746 21.3627V24.5187L40.7604 29.88V26.7236Z" fill="#BFAFA2"/>
<path d="M36.2956 24.7427L35.5231 24.2969C35.4227 24.2391 35.3418 24.2653 35.3418 24.356C35.3418 24.4467 35.4231 24.5667 35.5231 24.6249L36.2956 25.0707C36.396 25.1284 36.4769 25.1022 36.4769 25.0116C36.4774 24.9209 36.396 24.8004 36.2956 24.7427Z" fill="#E0E0E0"/>
<path d="M7.29611 33.6427L6.92678 35.4769L6.56722 35.6845L6.21078 35.4787L5.83789 33.6427L6.56722 33.2218L7.29611 33.6427Z" fill="#E0E0E0"/>
<path d="M7.29611 33.6427L6.92678 35.4769L6.56722 35.6845L6.21078 35.4787L5.83789 33.6427L6.56722 33.2218L7.29611 33.6427Z" fill="#B7A595"/>
<path d="M6.56738 35.6845V34.0636L7.29627 33.6427L6.92694 35.4769L6.56738 35.6845Z" fill="#AD9B8B"/>
<path opacity="0.05" d="M7.29611 33.6427L7.05745 34.8271L6.56722 35.1102L6.07878 34.8285L5.83789 33.6427L6.56722 33.2218L7.29611 33.6427Z" fill="#040000"/>
<path d="M4.0905 31.7916L3.72072 33.6258L3.36117 33.8333L3.00517 33.6276L2.63184 31.7916L3.36117 31.3702L4.0905 31.7916Z" fill="#E0E0E0"/>
<path d="M4.0905 31.7916L3.72072 33.6258L3.36117 33.8333L3.00517 33.6276L2.63184 31.7916L3.36117 31.3702L4.0905 31.7916Z" fill="#B7A595"/>
<path d="M3.36133 33.8333V32.2125L4.09066 31.7916L3.72088 33.6258L3.36133 33.8333Z" fill="#AD9B8B"/>
<path opacity="0.05" d="M4.09006 31.7916L3.85139 32.976L3.36072 33.2591L2.87228 32.9773L2.63184 31.7916L3.36072 31.3702L4.09006 31.7916Z" fill="#040000"/>
<path opacity="0.05" d="M16.7819 28.1662L16.4121 30.0009L16.0526 30.208L15.6961 30.0027L15.3232 28.1662L16.0526 27.7454L16.7819 28.1662Z" fill="#040000"/>
<path d="M16.0527 30.208V28.5872L16.7821 28.1663L16.4123 30.0009L16.0527 30.208Z" fill="#EBEBEB"/>
<path opacity="0.05" d="M16.7819 28.1662L16.5428 29.3511L16.0526 29.6343L15.5641 29.352L15.3232 28.1662L16.0526 27.7454L16.7819 28.1662Z" fill="#040000"/>
<path d="M6.56753 34.8142L2.59375 32.52V23.9196L6.56753 26.2138V34.8142Z" fill="#B7A595"/>
<path d="M6.56738 26.2138L16.9883 20.1974V28.7978L6.56738 34.8143V26.2138Z" fill="#AD9B8B"/>
<path d="M16.9884 20.1974L6.56753 26.2138L2.59375 23.9196L13.0146 17.9031L16.9884 20.1974Z" fill="#BFAFA2"/>
<path d="M7.13477 30.4742L16.4205 25.1133L16.4201 28.2698L16.5245 28.3298L7.23921 33.6911L7.13477 33.6307V30.4742Z" fill="#CFBFB3"/>
<path d="M7.23926 30.5347L16.5246 25.1738V28.3298L7.23926 33.6911V30.5347Z" fill="#BFAFA2"/>
<path d="M11.7028 28.5538L12.4753 28.108C12.5757 28.0502 12.6566 28.0764 12.6566 28.1671C12.6566 28.2578 12.5753 28.3778 12.4753 28.436L11.7028 28.8818C11.6024 28.9395 11.5215 28.9133 11.5215 28.8227C11.5215 28.732 11.6024 28.6115 11.7028 28.5538Z" fill="#E0E0E0"/>
<path d="M7.13521 26.6631L16.4205 21.3022V24.4587L16.525 24.5187L7.23921 29.88L7.13477 29.8196L7.13521 26.6631Z" fill="#CFBFB3"/>
<path d="M7.23926 26.7236L16.525 21.3627V24.5187L7.23926 29.88V26.7236Z" fill="#BFAFA2"/>
<path d="M11.7038 24.7427L12.4762 24.2969C12.5767 24.2391 12.6576 24.2653 12.6576 24.356C12.6576 24.4467 12.5762 24.5667 12.4762 24.6249L11.7038 25.0707C11.6034 25.1284 11.5225 25.1022 11.5225 25.0116C11.522 24.9209 11.6034 24.8004 11.7038 24.7427Z" fill="#E0E0E0"/>
<path d="M45.26 21.0556L45.0458 21.0698L34.4658 14.9574L34.5729 14.8796L45.26 21.0556Z" fill="#BFA999"/>
<path d="M34.5732 14.8795L45.0461 20.9315V12.0649L34.5732 6.01288V14.8795Z" fill="white"/>
<path d="M34.2514 15.0813L45.2599 21.4413V11.9409L34.251 5.58087L34.2514 15.0813ZM34.4656 5.95243L45.0452 12.0649V21.0702L34.4656 14.9573V5.95243Z" fill="#CAB8AB"/>
<path d="M34.4658 14.9573L34.5729 14.8796V6.0129L34.4658 5.95245V14.9573Z" fill="#AD9B8B"/>
<path d="M34.251 5.58088L34.3581 5.5191L45.3665 11.8791L45.2594 11.9409L34.251 5.58088Z" fill="#AD9B8B"/>
<path d="M45.3669 11.8791L45.2598 11.9409V21.4413L45.3669 21.3795V11.8791Z" fill="#AD9B8B"/>
<path d="M45.0458 16.4871L34.5734 10.4329L34.4658 10.4973L45.0458 16.6097V16.4871Z" fill="#D9C8BC"/>
<path d="M34.4658 10.4973V10.7369L45.0458 16.8493V16.6098L34.4658 10.4973Z" fill="#CAB8AB"/>
<path d="M45.0455 12.244L34.5726 6.19287L34.5166 6.44398L45.0455 12.5298V12.244Z" fill="#CAB8AB"/>
<path d="M45.0459 12.244V12.3586L34.5508 6.29243L34.573 6.19287L45.0459 12.244Z" fill="#D9C8BC"/>
<path d="M45.0455 12.644L34.5726 6.5929L34.5166 6.84401L45.0455 12.9298V12.644Z" fill="#CAB8AB"/>
<path d="M45.0459 12.644V12.7587L34.5508 6.69245L34.573 6.5929L45.0459 12.644Z" fill="#D9C8BC"/>
<path d="M45.0455 13.044L34.5726 6.99286L34.5166 7.24397L45.0455 13.3297V13.044Z" fill="#CAB8AB"/>
<path d="M45.0459 13.044V13.1586L34.5508 7.09241L34.573 6.99286L45.0459 13.044Z" fill="#D9C8BC"/>
<path d="M45.0455 13.4436L34.5726 7.39246L34.5166 7.64357L45.0455 13.7298V13.4436Z" fill="#CAB8AB"/>
<path d="M45.0459 13.4436V13.5587L34.5508 7.49246L34.573 7.39246L45.0459 13.4436Z" fill="#D9C8BC"/>
<path d="M45.0455 13.8435L34.5726 7.79242L34.5166 8.04353L45.0455 14.1298V13.8435Z" fill="#CAB8AB"/>
<path d="M45.0459 13.8435V13.9586L34.5508 7.89242L34.573 7.79242L45.0459 13.8435Z" fill="#D9C8BC"/>
<path d="M45.0455 14.2436L34.5726 8.19244L34.5166 8.44355L45.0455 14.5293V14.2436Z" fill="#CAB8AB"/>
<path d="M45.0459 14.2436V14.3587L34.5508 8.29244L34.573 8.19244L45.0459 14.2436Z" fill="#D9C8BC"/>
<path d="M45.0455 14.6435L34.5726 8.59241L34.5166 8.84352L45.0455 14.9293V14.6435Z" fill="#CAB8AB"/>
<path d="M45.0459 14.6435V14.7582L34.5508 8.69196L34.573 8.59241L45.0459 14.6435Z" fill="#D9C8BC"/>
<path d="M45.0455 15.0435L34.5726 8.99243L34.5166 9.24354L45.0455 15.3293V15.0435Z" fill="#CAB8AB"/>
<path d="M45.0459 15.0435V15.1582L34.5508 9.09199L34.573 8.99243L45.0459 15.0435Z" fill="#D9C8BC"/>
<path d="M45.0455 15.4436L34.5726 9.39246L34.5166 9.64357L45.0455 15.7293V15.4436Z" fill="#CAB8AB"/>
<path d="M45.0459 15.4436V15.5582L34.5508 9.49201L34.573 9.39246L45.0459 15.4436Z" fill="#D9C8BC"/>
<path d="M45.0455 15.8435L34.5726 9.79242L34.5166 10.0435L45.0455 16.1293V15.8435Z" fill="#CAB8AB"/>
<path d="M45.0459 15.8435V15.9582L34.5508 9.89198L34.573 9.79242L45.0459 15.8435Z" fill="#D9C8BC"/>
<path d="M32.3568 8.80625L32.2221 8.88625L29.4639 7.29381L29.5985 7.21381L32.3568 8.80625Z" fill="#BFA999"/>
<path d="M29.5986 7.21377L32.2222 8.72799V5.98044L29.5986 4.4671V7.21377Z" fill="white"/>
<path d="M29.2109 7.43998L32.4763 9.32531V5.83376L29.2109 3.94843V7.43998ZM29.4643 4.38798L32.2225 5.98043V8.8862L29.4643 7.29376V4.38798Z" fill="#BFAFA2"/>
<path d="M29.4639 7.29378L29.5985 7.21378V4.46711L29.4639 4.388V7.29378Z" fill="#AD9B8B"/>
<path d="M29.2109 3.94889L29.3474 3.87067L32.6127 5.756L32.4763 5.83422L29.2109 3.94889Z" fill="#CAB8AB"/>
<path d="M32.613 5.75598L32.4766 5.8342V9.32532L32.613 9.24754V5.75598Z" fill="#AD9B8B"/>
<path d="M29.7012 7.13158L32.1203 8.52803V7.8298L31.5154 6.43336L31.1385 6.78225L31.2741 7.36758L30.4389 5.58136L29.7012 6.43336V7.13158Z" fill="#BFAFA2"/>
<path d="M31.1621 5.75912C31.2607 5.81601 31.3412 5.95512 31.3412 6.0689C31.3412 6.18267 31.2612 6.22934 31.1621 6.17201C31.0634 6.11512 30.9834 5.97645 30.9834 5.86223C30.983 5.74801 31.063 5.70178 31.1621 5.75912Z" fill="#AD9B8B"/>
<path d="M32.3568 13.5947L32.2221 13.6747L29.4639 12.0823L29.5985 12.0023L32.3568 13.5947Z" fill="#BFA999"/>
<path d="M29.5986 12.0022L32.2222 13.5164V10.7689L29.5986 9.25555V12.0022Z" fill="white"/>
<path d="M29.2109 12.2289L32.4763 14.1143V10.6227L29.2109 8.73737V12.2289ZM29.4643 9.17648L32.2225 10.7689V13.6747L29.4643 12.0823V9.17648Z" fill="#BFAFA2"/>
<path d="M29.4639 12.0822L29.5985 12.0022V9.25556L29.4639 9.17645V12.0822Z" fill="#AD9B8B"/>
<path d="M29.2109 8.73734L29.3474 8.65912L32.6127 10.5445L32.4763 10.6227L29.2109 8.73734Z" fill="#CAB8AB"/>
<path d="M32.613 10.5444L32.4766 10.6227V14.1142L32.613 14.036V10.5444Z" fill="#AD9B8B"/>
<path d="M29.7012 11.92L32.1203 13.3165V12.6183L31.5154 11.2218L31.1385 11.5711L31.2741 12.156L30.4389 10.3698L29.7012 11.2218V11.92Z" fill="#BFAFA2"/>
<path d="M31.1615 10.5476C31.2602 10.6045 31.3406 10.7436 31.3406 10.8573C31.3406 10.9716 31.2606 11.0178 31.1615 10.9605C31.0629 10.9036 30.9824 10.7649 30.9824 10.6507C30.9824 10.5365 31.0624 10.4902 31.1615 10.5476Z" fill="#AD9B8B"/>
</g>
<path d="M16.3876 34.2369C16.4671 34.5405 16.5116 34.6792 16.5787 35.0583C16.6338 35.3698 16.6694 35.6009 16.7863 36.1316C16.8929 36.616 17.0174 36.9738 16.6698 37.4005C16.3849 37.7498 15.7387 37.8538 15.5409 37.4943C15.3147 37.0836 15.4049 36.4849 15.4156 36.0596C15.4258 35.6343 15.364 35.4263 15.3534 35.0885C15.344 34.7907 15.3543 34.6685 15.3605 34.4112C15.6978 34.38 16.0507 34.2769 16.3876 34.2369Z" fill="#6A5649"/>
<path d="M16.1333 28.3485C16.4275 29.5965 16.291 30.1721 16.3213 30.829C16.3608 31.6956 16.3666 31.7836 16.3577 32.6041C16.3497 33.3085 16.3666 33.8387 16.3884 34.2374C16.4182 34.7885 16.6417 35.6761 16.5764 36.1023C16.4782 36.7427 15.7177 36.9956 15.5848 36.2801C15.5017 35.8325 15.4226 34.8454 15.3537 34.3565C15.2742 33.7921 15.1786 33.3272 15.0293 32.6352C14.8799 31.9432 14.487 29.8178 14.2715 28.5294L16.1333 28.3485Z" fill="#F9DACE"/>
<path d="M9.87224 36.1112C10.0087 35.9978 10.0665 35.9392 10.1451 35.8565C10.2073 35.7912 10.2518 35.7116 10.2931 35.6325C10.4562 35.3178 10.5807 35.0205 10.6936 34.6863C10.8153 34.3254 10.882 34.0654 10.8891 33.7534C10.8971 33.3872 10.8602 29.3969 10.7953 28.2289L12.8167 28.3698C12.8238 29.2498 12.7998 29.5827 12.6665 30.2974C12.5322 31.0183 12.1362 32.6721 12.0985 33.1503C12.0593 33.6472 12.0291 33.7569 12.1376 33.9143C12.1385 33.9156 12.1393 33.9169 12.1402 33.9183C12.2651 34.1001 12.3607 34.2698 12.3478 34.3898C12.3322 34.5343 12.2309 34.6601 12.1473 34.7747C12.0682 34.8836 12.0273 34.9965 11.9709 35.1169C11.8398 35.3961 11.786 35.7009 11.7273 35.9996C11.7096 36.0907 11.6909 36.1823 11.6513 36.2667C11.5162 36.5569 11.1718 36.6987 10.8473 36.7547C10.5318 36.8094 10.1745 36.8472 9.85935 36.7565C9.72646 36.7183 9.61002 36.6587 9.59357 36.5063C9.57713 36.3552 9.67535 36.2747 9.87224 36.1112Z" fill="#F9DACE"/>
<path d="M12.0905 36.3303L11.9745 36.3139C11.9679 35.9623 11.9892 35.641 11.8994 35.4752L12.0656 35.0436L12.0905 36.3303Z" fill="#55443A"/>
<path d="M12.3797 34.7299C12.353 34.9707 12.2108 35.2183 12.1992 35.693C12.1877 36.1676 12.2108 36.2996 12.2108 36.2996L12.0903 36.3307L12.0654 35.0445L12.3797 34.7299Z" fill="#55443A"/>
<path d="M9.62402 36.6556C9.62402 36.6556 9.62936 36.7961 9.69202 36.8423C9.75469 36.8881 9.88669 37.0272 10.5289 36.9903C11.1711 36.9534 11.396 36.8005 11.6156 36.6076C11.8351 36.4147 11.8942 35.9081 11.9276 35.6694C11.992 35.2063 12.1925 34.9636 12.3796 34.7303C12.432 34.6165 12.3991 34.4903 12.3991 34.4903C12.3991 34.4903 11.9667 34.5676 11.7356 35.1339C11.5045 35.7005 11.2254 36.253 10.7058 36.4103C10.1862 36.5672 9.62402 36.6556 9.62402 36.6556Z" fill="#55443A"/>
<path d="M12.3439 34.1374C12.2532 33.9818 12.1692 33.9383 12.0817 33.8045C11.9888 33.8685 11.9132 34.0072 11.8737 34.1312C11.8341 34.2547 11.7301 34.8623 11.5737 35.3454C11.4563 35.7081 11.2608 35.9005 10.9919 35.9992C10.8239 36.0609 10.6408 36.0801 10.4626 36.057C10.4617 36.057 10.4608 36.057 10.4599 36.0565C10.1266 36.0125 10.2048 35.781 10.2048 35.781C10.1274 35.8832 9.80878 36.1338 9.61989 36.3178C9.51278 36.4223 9.56256 36.5809 9.64345 36.6827C9.73589 36.7596 9.95322 36.9143 10.7506 36.8023C11.4581 36.7027 11.6248 36.3876 11.6919 36.2458C11.7434 36.1374 11.7879 35.905 11.8403 35.6058C11.8821 35.3676 11.9639 35.1361 12.0901 34.9267C12.1061 34.9005 12.1217 34.8761 12.1368 34.8547C12.1843 34.7872 12.2412 34.7125 12.3048 34.6383C12.3541 34.5805 12.3932 34.5534 12.4079 34.4987C12.423 34.3654 12.423 34.273 12.3439 34.1374Z" fill="#6A5649"/>
<path d="M16.3935 30.7676C16.4148 29.9605 16.529 29.4796 16.209 28.3565C16.1232 25.872 16.2339 22.7267 15.969 21.5063C15.6788 20.1698 15.3984 19.7458 15.0877 19.1329C15.0877 19.1329 14.0406 19.6165 12.9726 19.6712C11.7575 19.7338 11.0215 19.1783 11.0215 19.1783C11.0161 19.3783 10.8752 20.1783 10.781 21.4103C10.6077 23.6752 10.6739 26.72 10.7348 28.4014C10.777 29.5667 10.8068 31.0907 10.877 32.1183C11.217 32.3378 11.8926 32.4818 12.2784 32.2538C12.4717 31.3343 12.6112 31.0805 12.7966 30.0809C12.8966 29.5405 12.9659 29.0449 12.8721 28.3636C12.9459 27.6436 13.2424 25.7734 13.3464 25.1592C13.3464 25.1592 13.9415 27.5694 14.1308 28.48C14.397 29.7592 14.8281 31.8432 15.0037 32.5263C15.2632 32.6925 15.9806 32.6605 16.3597 32.3427C16.3681 31.5227 16.3708 31.6347 16.3935 30.7676Z" fill="#917A69"/>
<path d="M13.3459 25.1596L12.8557 22.8942C12.8557 22.8942 11.9868 22.7027 11.5166 22.0987C11.5166 22.0987 11.6099 22.8205 12.5393 23.1285L12.9859 25.4267L12.9086 28.0494L13.3459 25.1596Z" fill="#7B6659"/>
<path d="M15.0668 10.3649C15.0668 10.3649 15.4695 10.3302 15.7819 10.6414C16.0753 10.9334 16.1984 11.4871 15.9726 12.0836C15.7513 12.6685 15.5064 13.1725 15.7557 13.3165C16.0517 13.4876 16.1677 13.1956 16.1677 13.1956C16.1677 13.1956 16.2859 13.44 16.1277 13.6369C15.9526 13.8547 15.6415 13.7627 15.6415 13.7627C15.6415 13.7627 16.9024 15.1138 15.8402 16.5151C15.2926 17.2374 12.8904 17.6814 11.7588 16.8102C10.6713 15.9734 11.0175 14.8258 11.4171 14.0774C11.8495 13.2676 11.5917 12.5218 11.5708 12.1298C11.5326 11.4129 11.7771 10.9929 12.1828 10.8645C12.1828 10.8645 12.2317 10.22 12.9113 9.98447C13.5908 9.7498 14.6415 9.82269 15.0668 10.3649Z" fill="#332418"/>
<path d="M11.9434 14.3801C11.2101 14.4361 10.9568 14.8085 10.7888 15.081C10.603 15.3818 10.3714 15.8458 9.96298 17.0334C9.72253 17.7325 9.35187 18.9121 9.62164 19.1738C9.85898 19.4045 10.483 19.329 10.483 19.329L10.9234 18.3227L11.9434 14.3801Z" fill="#F9DACE"/>
<path d="M11.0419 17.7543C10.4668 17.6947 10.0215 18.0423 10.0215 18.0423C10.0215 18.0423 10.2535 17.6285 11.0419 17.5272V17.7543Z" fill="#DEC5BE"/>
<path d="M13.2372 14.3996C13.943 14.4858 14.5857 14.6209 15.0492 14.7623C15.2772 14.8316 15.387 15.008 15.2106 16.2018C15.0955 16.9809 14.8586 18.62 14.8586 18.62C15.2132 19.3672 15.5519 19.7596 15.8657 20.8912C15.8657 20.8912 15.0946 21.7063 12.9919 21.6289C11.1452 21.5609 10.7848 21.1387 10.7848 21.1387L11.0101 18.8467C11.0101 18.8467 11.0515 18.0894 11.0395 17.6272C11.0395 17.6272 10.5759 17.26 10.5723 16.7538C10.5697 16.3187 10.6368 15.9836 11.0821 15.3623C11.5248 14.744 11.9435 14.3809 11.9435 14.3809C11.9435 14.3809 12.6546 14.3285 13.2372 14.3996Z" fill="#A467A7"/>
<path d="M13.2372 14.3996C13.943 14.4858 14.5857 14.6209 15.0492 14.7623C15.2772 14.8316 15.387 15.008 15.2106 16.2018C15.0955 16.9809 14.8586 18.62 14.8586 18.62C15.2132 19.3672 15.5519 19.7596 15.8657 20.8912C15.8657 20.8912 15.0946 21.7063 12.9919 21.6289C11.1452 21.5609 10.7848 21.1387 10.7848 21.1387L11.0101 18.8467C11.0101 18.8467 11.0515 18.0894 11.0395 17.6272C11.0395 17.6272 10.5759 17.26 10.5723 16.7538C10.5697 16.3187 10.6368 15.9836 11.0821 15.3623C11.5248 14.744 11.9435 14.3809 11.9435 14.3809C11.9435 14.3809 12.6546 14.3285 13.2372 14.3996Z" fill="#6A594E"/>
<path d="M14.2558 17.1156C14.2558 17.1156 14.0336 17.7503 13.2532 17.7965C12.539 17.8392 12.2012 17.2618 12.2012 17.2618C12.2012 17.2618 12.3043 18.0769 13.271 17.992C14.2354 17.9076 14.2558 17.1156 14.2558 17.1156Z" fill="#5E4E45"/>
<path d="M14.3252 18.0845L14.5327 16.7894C14.7007 15.316 14.9363 14.8951 15.1105 14.7863C15.7216 14.9551 16.1265 15.1991 16.0523 16.1556C16.0172 16.6063 15.9963 16.936 15.8723 17.6898C15.7372 18.5085 15.6572 18.7583 15.5172 19.172C15.3643 19.6231 15.1319 19.6885 14.5781 19.6778C14.0665 19.6676 13.2999 19.6236 12.2679 19.4454C11.9043 19.3827 11.3727 19.3027 11.0941 19.2205C10.891 19.1605 10.1136 18.9725 10.1581 18.6765C10.1705 18.5934 13.131 18.2027 13.4025 18.1516C14.0261 18.0338 14.3252 18.0845 14.3252 18.0845Z" fill="#F9DACE"/>
<path d="M11.0938 19.2205C11.2591 19.2694 11.5138 19.3174 11.7689 19.3614C12.6347 19.0783 14.0147 18.1627 14.32 18.228C14.6765 18.304 14.9769 18.4943 15.0756 18.716C15.0756 18.716 15.0525 18.2925 14.3249 18.0845C14.3249 18.0845 14.0258 18.0338 13.4018 18.1512C13.1302 18.2023 10.1698 18.5934 10.1574 18.676C10.1556 18.688 10.1565 18.7005 10.1565 18.7125C10.1778 18.988 10.8991 19.1632 11.0938 19.2205Z" fill="#DEC5BE"/>
<path d="M13.7576 18.2165C13.0496 18.4174 11.334 19.3347 10.2793 19.3391C9.95533 19.2471 9.91844 19.0885 9.81977 18.6645C9.72111 18.2405 10.5304 17.7374 11.026 17.7534C13.2238 17.8596 14.3251 18.0845 14.3251 18.0845C14.3251 18.0845 14.0949 18.1205 13.7576 18.2165Z" fill="#F9DACE"/>
<path d="M15.1092 10.9933C15.239 11.2116 15.4194 11.4676 15.3594 12.6062C15.3048 13.6467 15.0883 13.8827 14.799 13.9938C14.6261 14.06 14.4901 14.0565 14.1705 14.0125L14.1345 14.6262C14.1345 14.6262 13.7652 15.456 12.7416 15.4538C11.6839 15.4511 12.6252 14.5538 12.6252 14.5538L12.6785 13.2378C12.6785 13.2378 12.4412 13.3467 12.1634 13.108C11.8585 12.8467 11.8768 12.4649 12.0452 12.2627C12.2314 12.0391 12.6128 12.1462 12.7656 12.4373C13.0145 12.5102 13.1101 12.1778 13.0483 11.7978C13.0483 11.7978 13.5381 11.628 13.4674 11.0836C13.8888 11.3782 14.8456 11.4325 15.1092 10.9933Z" fill="#F9DACE"/>
<path d="M14.7412 11.9653L15.0679 11.8058C15.1159 11.8951 15.0812 12.0031 14.991 12.0471C14.9012 12.0911 14.7892 12.0547 14.7412 11.9653Z" fill="#332418"/>
<path d="M14.1269 11.9196L13.7771 11.8054C13.7416 11.9014 13.7913 12.0049 13.8878 12.0365C13.9842 12.068 14.0913 12.0156 14.1269 11.9196Z" fill="#332418"/>
<path d="M14.1701 14.0125C13.5128 13.912 12.9706 13.66 12.8555 13.3907C12.8555 13.3907 12.9044 13.6791 13.1208 13.8427C13.415 14.0649 14.1604 14.1871 14.1604 14.1871L14.1701 14.0125Z" fill="#DEC5BE"/>
<path d="M14.8655 12.2449C14.8549 12.3271 14.9131 12.404 14.9962 12.4173C15.0789 12.4307 15.1549 12.3747 15.1655 12.2925C15.1762 12.2102 15.118 12.1333 15.0353 12.12C14.9522 12.1071 14.8762 12.1631 14.8655 12.2449Z" fill="#332418"/>
<path d="M13.7434 12.2569C13.7328 12.3391 13.791 12.416 13.8741 12.4294C13.9568 12.4427 14.0328 12.3867 14.0434 12.3045C14.0541 12.2223 13.9959 12.1454 13.9132 12.132C13.8301 12.1187 13.7546 12.1747 13.7434 12.2569Z" fill="#332418"/>
<path d="M14.2804 13.0978C14.2288 13.0764 14.1697 13.0627 14.1137 13.0667C14.0871 13.0684 14.0591 13.0684 14.0337 13.0782C14.0226 13.0822 14.0008 13.0916 14.0084 13.1058C14.0155 13.1182 14.044 13.1169 14.0555 13.1164C14.1355 13.1129 14.2182 13.1249 14.2911 13.16C14.3671 13.1969 14.4208 13.2644 14.4662 13.3347C14.476 13.3498 14.4853 13.3271 14.4831 13.3182C14.4626 13.2156 14.3737 13.136 14.2804 13.0978Z" fill="#332418"/>
<path d="M18.5481 10.5542L17.6637 11.1538L17.7957 11.4702L17.205 11.5946L17.3517 11.8591L16.6846 12.1409L17.8446 12.0862L17.6726 11.7969L18.4455 11.7538L18.2468 11.3209L18.9503 11.2418L18.5481 10.5542Z" fill="#A467A7"/>
<path d="M18.5481 10.5542L17.6637 11.1538L17.7957 11.4702L17.205 11.5946L17.3517 11.8591L16.6846 12.1409L17.8446 12.0862L17.6726 11.7969L18.4455 11.7538L18.2468 11.3209L18.9503 11.2418L18.5481 10.5542Z" fill="#6A594E"/>
<path d="M16.4355 11.0627L16.7218 11.2951L16.4382 11.9613L17.1258 11.2302L16.9089 11.0271L17.4342 10.4582L16.8955 10.1831L16.4355 11.0627Z" fill="#A467A7"/>
<path d="M16.4355 11.0627L16.7218 11.2951L16.4382 11.9613L17.1258 11.2302L16.9089 11.0271L17.4342 10.4582L16.8955 10.1831L16.4355 11.0627Z" fill="#6A594E"/>
<path d="M18.0484 12.2662L17.8595 12.5827L16.8213 12.4316L17.9537 13.012L18.1355 12.7285L18.8231 13.0556L18.9271 12.4293L18.0484 12.2662Z" fill="#A467A7"/>
<path d="M18.0484 12.2662L17.8595 12.5827L16.8213 12.4316L17.9537 13.012L18.1355 12.7285L18.8231 13.0556L18.9271 12.4293L18.0484 12.2662Z" fill="#6A594E"/>
<path d="M26.1722 20.5653C26.1375 20.4804 26.1873 20.3787 26.1602 20.2898C26.1473 20.2484 26.1193 20.2142 26.0949 20.1787C26.0709 20.1431 26.0495 20.1013 26.0544 20.0587C26.0651 19.9618 26.1842 19.9809 26.2522 19.9862C26.3446 19.9938 26.4362 20.0133 26.5251 20.0409C26.7029 20.096 26.8691 20.1827 27.0269 20.2804C27.1117 20.3329 27.1944 20.388 27.2829 20.4342C27.3446 20.4662 27.4086 20.4938 27.4744 20.5164C27.4904 20.5218 27.5069 20.5271 27.5233 20.5235C27.5958 20.5089 27.5353 20.3578 27.5331 20.3129C27.5269 20.1991 27.5211 20.0338 27.6131 19.9484C27.7669 19.8053 27.7277 20.1342 27.9673 20.4462C28.2113 20.7644 28.1944 21.0649 28.4104 21.3102C28.6246 21.5538 30.0171 22.6773 30.0171 22.6773C30.0171 22.6773 30.8202 21.7315 31.4709 20.8204C32.1784 19.8293 32.4695 19.7311 32.9909 19.6107C33.2673 20.5235 32.626 22.1471 32.626 22.1471C32.626 22.1471 31.302 23.6311 30.7766 24.0649C30.4144 24.364 30.1242 24.4529 29.5135 24.0062C29.2033 23.7791 28.2864 22.7427 28.022 22.444C27.954 22.3671 27.8837 22.292 27.8091 22.2213C27.7362 22.152 27.6437 22.1084 27.5553 22.0609C27.358 21.9551 27.1553 21.8591 26.966 21.7395C26.8037 21.6369 26.6504 21.5147 26.5295 21.3644C26.4993 21.3267 26.4709 21.2871 26.4455 21.2453C26.4255 21.2124 26.4158 21.176 26.3958 21.1444C26.3415 21.0587 26.2824 20.984 26.2669 20.8804C26.2553 20.8044 26.2669 20.7222 26.2295 20.6551C26.2135 20.6267 26.19 20.6031 26.1762 20.5742C26.1744 20.5707 26.1735 20.568 26.1722 20.5653Z" fill="#F9DACE"/>
<path d="M32.8982 19.6C32.6422 19.6769 32.3013 19.7489 31.9738 20.0866C31.8244 20.2409 31.516 20.6382 31.0311 21.2604C30.6453 21.7555 30.0111 22.6022 30.0111 22.6022L29.0489 21.8804C29.0489 21.8804 29.0649 22.1351 28.8178 22.3969C28.5707 22.6586 28.2822 22.7364 28.2822 22.7364C28.2822 22.7364 28.7871 23.3382 29.1698 23.7191C29.4818 24.0293 29.8942 24.3991 30.0551 24.4773C30.2156 24.5555 30.4244 24.4818 30.7822 24.152C31.14 23.8222 33.1542 21.6951 33.1542 21.6951L32.8982 19.6Z" fill="#917A69"/>
<path d="M28.282 22.7365C28.282 22.7365 28.5704 22.6587 28.8175 22.3969C29.0646 22.1351 29.0486 21.8804 29.0486 21.8804L28.6926 21.5756C28.6926 21.5756 28.6833 21.7218 28.4762 21.9884C28.2691 22.2551 27.9326 22.3462 27.9326 22.3462L28.282 22.7365Z" fill="#7E6C5E"/>
<path d="M33.4985 40.7248L33.043 40.5559L33.1901 40.2475L33.4714 40.5062L33.4985 40.7248Z" fill="#2C211D"/>
<path d="M33.9646 39.9017C33.9646 39.9017 33.9842 40.1977 33.9886 40.291C33.9931 40.3843 33.5971 40.6763 33.4984 40.7248L33.4713 40.5066C33.3869 40.5923 33.3362 40.7012 33.2455 40.8612C33.17 40.9946 33.0735 41.247 32.8637 41.4195C32.5526 41.6759 32.0664 41.8075 31.5695 41.8283C31.0731 41.8492 30.7877 41.7283 30.646 41.6217C30.5042 41.5146 30.4589 41.3888 30.4935 41.2626C30.5282 41.1354 33.9646 39.9017 33.9646 39.9017Z" fill="#43342C"/>
<path d="M32.6309 38.8981L32.6238 38.7262C32.5322 38.7239 32.5224 38.9728 32.39 39.1919C32.2118 39.4866 31.9496 39.8555 31.6958 40.0897C31.1944 40.5515 30.7464 40.8421 30.5229 41.0497C30.2238 41.3279 30.7544 41.7644 31.5647 41.7146C31.9669 41.6897 32.6807 41.4839 32.8802 41.2448C33.0798 41.0057 33.2011 40.6346 33.3611 40.4608C33.5211 40.287 33.8656 40.1115 33.9647 39.9013C34.0189 39.7857 33.9887 39.5168 33.9544 39.2888C33.9229 39.0795 33.9153 38.7577 33.7971 38.7844L33.7891 38.8924C33.7411 38.9844 33.63 39.1364 33.306 39.1928C33.1447 39.2213 32.6616 39.2381 32.6309 38.8981Z" fill="#55443A"/>
<path opacity="0.15" d="M33.0457 39.2031C32.8906 39.1906 32.7239 39.14 32.6581 39.0008C32.6572 38.9991 32.6559 38.9982 32.6555 38.9964C32.6555 38.9964 32.6968 39.1568 32.5528 39.3271C32.4088 39.4973 31.499 40.6986 31.499 40.6986C31.499 40.6986 32.3461 39.7075 32.5088 39.5204C32.7492 39.2444 32.8257 39.212 33.0466 39.2031C33.0461 39.2031 33.0461 39.2031 33.0457 39.2031Z" fill="#040000"/>
<path opacity="0.15" d="M32.8451 39.5208C32.8482 39.5479 32.8726 39.5675 32.9002 39.5644C32.9273 39.5613 32.9468 39.5368 32.9437 39.5093C32.9406 39.4822 32.9162 39.4626 32.8886 39.4657C32.8615 39.4693 32.8419 39.4937 32.8451 39.5208Z" fill="#040000"/>
<path opacity="0.15" d="M32.6077 39.7866C32.6109 39.8137 32.6353 39.8333 32.6629 39.8302C32.69 39.8271 32.7095 39.8026 32.7064 39.7751C32.7033 39.748 32.6789 39.7284 32.6513 39.7315C32.6242 39.7351 32.6046 39.7595 32.6077 39.7866Z" fill="#040000"/>
<path opacity="0.15" d="M32.3695 40.0524C32.3726 40.0795 32.397 40.0991 32.4246 40.0959C32.4517 40.0928 32.4712 40.0684 32.4681 40.0408C32.465 40.0137 32.4406 39.9942 32.413 39.9973C32.3859 40.0008 32.3664 40.0253 32.3695 40.0524Z" fill="#040000"/>
<path opacity="0.15" d="M32.1322 40.3182C32.1353 40.3453 32.1597 40.3649 32.1873 40.3617C32.2144 40.3586 32.2339 40.3342 32.2308 40.3066C32.2277 40.2795 32.2033 40.26 32.1757 40.2631C32.1482 40.2666 32.1291 40.2911 32.1322 40.3182Z" fill="#040000"/>
<path opacity="0.15" d="M31.8939 40.5839C31.897 40.6111 31.9214 40.6306 31.949 40.6275C31.9761 40.6244 31.9957 40.5999 31.9925 40.5724C31.9894 40.5453 31.965 40.5257 31.9374 40.5288C31.9103 40.5324 31.8908 40.5568 31.8939 40.5839Z" fill="#040000"/>
<path d="M32.8966 39.535C32.9011 39.5346 32.906 39.5328 32.9091 39.5288C32.9166 39.5208 32.9166 39.5083 32.9086 39.5008C32.8984 39.491 32.6589 39.2621 32.3469 39.2821H32.3464C32.3357 39.283 32.3273 39.2923 32.3282 39.3035C32.3291 39.3146 32.3384 39.3226 32.3495 39.3221C32.6437 39.3035 32.8784 39.5275 32.8811 39.5297C32.8855 39.5337 32.8913 39.5355 32.8966 39.535Z" fill="#263138"/>
<path d="M32.6584 39.7999C32.6628 39.7995 32.6677 39.7977 32.6708 39.7942C32.6784 39.7862 32.6784 39.7737 32.6704 39.7662C32.6601 39.7564 32.4206 39.5275 32.1086 39.5475H32.1081C32.0975 39.5484 32.089 39.5577 32.0899 39.5688C32.0908 39.5799 32.1001 39.5879 32.1112 39.5875C32.405 39.5688 32.6401 39.7928 32.6428 39.7951C32.6472 39.7986 32.653 39.8004 32.6584 39.7999Z" fill="#382A24"/>
<path d="M32.4201 40.0666C32.4245 40.0661 32.4294 40.0643 32.4325 40.0603C32.4401 40.0523 32.4401 40.0399 32.4321 40.0323C32.4218 40.0226 32.1823 39.7937 31.8703 39.8137H31.8699C31.8592 39.8146 31.8507 39.8239 31.8516 39.835C31.8525 39.8461 31.8619 39.8546 31.873 39.8537C32.1667 39.835 32.4018 40.059 32.4045 40.0612C32.409 40.0652 32.4147 40.067 32.4201 40.0666Z" fill="#382A24"/>
<path d="M32.1828 40.3324C32.1872 40.3319 32.1921 40.3302 32.1952 40.3266C32.2028 40.3186 32.2028 40.3062 32.1948 40.2986C32.1845 40.2888 31.945 40.0599 31.633 40.0795H31.6325C31.6219 40.0804 31.6134 40.0897 31.6143 40.1008C31.6152 40.1119 31.6245 40.1199 31.6357 40.1195C31.9294 40.1008 32.1645 40.3248 32.1672 40.327C32.1717 40.331 32.1774 40.3328 32.1828 40.3324Z" fill="#382A24"/>
<path d="M31.9445 40.5982C31.9489 40.5977 31.9538 40.5959 31.9569 40.5924C31.9645 40.5844 31.9645 40.5719 31.9565 40.5644C31.9463 40.5546 31.7067 40.3257 31.3947 40.3457H31.3943C31.3836 40.3466 31.3752 40.3559 31.376 40.3671C31.3769 40.3782 31.3863 40.3862 31.3974 40.3857C31.6912 40.3671 31.9263 40.5911 31.9289 40.5933C31.9334 40.5968 31.9392 40.5986 31.9445 40.5982Z" fill="#382A24"/>
<path d="M36.2969 42.0715C36.2853 42.4688 36.3236 42.7363 36.4436 42.9803C36.5636 43.2243 36.8218 43.3203 37.0956 43.2759C37.3693 43.2315 37.7284 43.0803 37.8351 42.7461C37.9418 42.4119 37.9467 42.1768 37.9182 41.8052L36.2969 42.0715Z" fill="#43342C"/>
<path d="M37.6144 39.303C37.7241 39.3213 37.7099 39.855 37.7268 40.3919C37.745 40.9675 37.8944 41.2177 37.9144 41.6902C37.937 42.2297 37.8881 42.4657 37.673 42.7719C37.4579 43.0782 36.7681 43.3364 36.4828 42.8457C36.2499 42.4457 36.2757 42.027 36.3468 41.4964C36.4201 40.9479 36.4761 40.5626 36.4904 40.1426C36.5037 39.7413 36.5104 39.3515 36.6099 39.3155C36.6121 39.3746 36.6126 39.4497 36.6157 39.5079C36.6179 39.5528 36.6099 39.7701 36.6717 39.7773C36.6819 39.7266 36.685 39.679 36.6864 39.627C36.6872 39.5817 36.6957 39.5328 36.7281 39.5008C36.761 39.4688 36.8099 39.4617 36.8552 39.4568C36.9659 39.4448 37.0766 39.435 37.1881 39.435C37.2437 39.435 37.2988 39.4373 37.3539 39.4426C37.3988 39.447 37.4512 39.4555 37.4921 39.475C37.5175 39.487 37.5397 39.5075 37.5472 39.5346C37.5526 39.5546 37.5495 39.5755 37.5477 39.5959C37.5446 39.6328 37.5459 39.6702 37.5517 39.7066C37.5544 39.7226 37.5637 39.743 37.5797 39.7404C37.5926 39.7386 37.5992 39.723 37.6006 39.7097C37.6068 39.6453 37.6028 39.5977 37.6064 39.5226C37.6081 39.4879 37.6064 39.4404 37.609 39.4053C37.6108 39.3719 37.6135 39.3377 37.6144 39.303Z" fill="#55443A"/>
<path opacity="0.15" d="M37.4982 41.7866C37.4987 41.8079 37.4814 41.8257 37.46 41.8257C37.4387 41.8261 37.4209 41.8088 37.4209 41.7875C37.4205 41.7661 37.4378 41.7484 37.4591 41.7484C37.4805 41.7484 37.4982 41.7652 37.4982 41.7866Z" fill="#040000"/>
<path opacity="0.15" d="M37.4934 41.4155C37.4938 41.4368 37.4765 41.4546 37.4551 41.4546C37.4338 41.455 37.416 41.4377 37.416 41.4164C37.4156 41.395 37.4329 41.3773 37.4542 41.3773C37.4756 41.3768 37.4929 41.3937 37.4934 41.4155Z" fill="#040000"/>
<path opacity="0.15" d="M37.4885 41.0648C37.4889 41.0862 37.4716 41.104 37.4503 41.104C37.4289 41.1044 37.4111 41.0871 37.4111 41.0657C37.4107 41.0444 37.428 41.0266 37.4494 41.0266C37.4707 41.0262 37.488 41.0435 37.4885 41.0648Z" fill="#040000"/>
<path opacity="0.15" d="M37.4846 40.7191C37.485 40.7404 37.4677 40.7582 37.4463 40.7582C37.425 40.7586 37.4072 40.7413 37.4072 40.72C37.4068 40.6986 37.4241 40.6808 37.4455 40.6808C37.4668 40.6808 37.4841 40.6977 37.4846 40.7191Z" fill="#040000"/>
<path opacity="0.15" d="M36.7561 40.7022C36.7565 40.7235 36.7392 40.7413 36.7178 40.7413C36.6965 40.7417 36.6787 40.7244 36.6787 40.7031C36.6783 40.6817 36.6956 40.6639 36.7169 40.6639C36.7383 40.6635 36.7561 40.6808 36.7561 40.7022Z" fill="#040000"/>
<path opacity="0.15" d="M36.76 41.0501C36.7604 41.0715 36.7431 41.0892 36.7217 41.0892C36.7004 41.0897 36.6826 41.0724 36.6826 41.051C36.6822 41.0297 36.6995 41.0119 36.7208 41.0119C36.7422 41.0115 36.76 41.0288 36.76 41.0501Z" fill="#040000"/>
<path opacity="0.15" d="M36.7648 41.4008C36.7653 41.4222 36.748 41.44 36.7266 41.44C36.7053 41.4404 36.6875 41.4231 36.6875 41.4017C36.6871 41.3804 36.7044 41.3626 36.7257 41.3626C36.7471 41.3622 36.7648 41.3795 36.7648 41.4008Z" fill="#040000"/>
<path opacity="0.15" d="M36.7697 41.7724C36.7702 41.7937 36.7528 41.8115 36.7315 41.8115C36.7102 41.8119 36.6924 41.7946 36.6924 41.7733C36.6919 41.7519 36.7093 41.7341 36.7306 41.7341C36.7519 41.7337 36.7693 41.751 36.7697 41.7724Z" fill="#040000"/>
<path opacity="0.15" d="M37.0794 41.9746L37.0078 39.379L37.1509 39.3888L37.0794 41.9746Z" fill="#040000"/>
<path d="M37.4595 41.807C37.4577 41.807 37.4555 41.8066 37.4537 41.8061C37.2035 41.727 36.9164 41.7203 36.7386 41.7888C36.7284 41.7928 36.7173 41.7875 36.7133 41.7777C36.7093 41.7675 36.7146 41.7563 36.7244 41.7523C36.9128 41.6799 37.2039 41.6861 37.4657 41.7688C37.4759 41.7719 37.4817 41.783 37.4786 41.7932C37.4755 41.8017 37.4679 41.807 37.4595 41.807Z" fill="#382A24"/>
<path d="M37.455 41.4354C37.4515 41.4354 37.4484 41.4346 37.4453 41.4328C37.2586 41.3234 36.9373 41.339 36.7337 41.4172C36.7235 41.4212 36.7124 41.4159 36.7084 41.4061C36.7044 41.3959 36.7097 41.3848 36.7195 41.3808C36.9315 41.2994 37.2679 41.2839 37.4648 41.399C37.4741 41.4043 37.4773 41.4163 37.4719 41.4257C37.4684 41.4319 37.4617 41.4354 37.455 41.4354Z" fill="#382A24"/>
<path d="M37.4507 41.0848C37.4471 41.0848 37.444 41.0839 37.4409 41.0821C37.2542 40.9732 36.9329 40.9883 36.7298 41.0666C36.7196 41.0706 36.7085 41.0652 36.7045 41.0555C36.7005 41.0452 36.7058 41.0341 36.7156 41.0301C36.9271 40.9483 37.264 40.9332 37.4609 41.0483C37.4702 41.0537 37.4734 41.0657 37.468 41.075C37.464 41.0812 37.4574 41.0848 37.4507 41.0848Z" fill="#382A24"/>
<path d="M37.4462 40.7395C37.4427 40.7395 37.4396 40.7386 37.4365 40.7368C37.2498 40.6275 36.9285 40.6435 36.7249 40.7212C36.7147 40.7252 36.7036 40.7199 36.6996 40.7101C36.6956 40.6999 36.7009 40.6888 36.7107 40.6848C36.9227 40.6035 37.2591 40.5879 37.456 40.703C37.4654 40.7084 37.4685 40.7204 37.4631 40.7297C37.4596 40.7359 37.4529 40.7395 37.4462 40.7395Z" fill="#382A24"/>
<path d="M36.7406 24.3088C36.9774 24.7773 37.2761 25.6808 37.3321 26.2857C37.5637 28.7724 37.7166 32.5995 37.7166 32.5995C37.7428 32.8595 37.7877 33.3124 37.9175 34.4559C38.0708 35.8071 37.9579 40.3662 37.9579 40.3662C37.9579 40.3662 36.9206 40.8044 36.3126 40.4115C36.3126 40.4115 35.437 34.2031 35.2432 32.8604C35.0743 31.6888 34.7966 29.5577 34.7966 29.5577L34.4712 32.8924C34.4712 32.8924 34.5917 33.6955 34.5272 34.5168C34.465 35.3093 33.9859 39.5999 33.9859 39.5999C33.9859 39.5999 32.921 40.0591 32.1201 39.4555C32.1201 39.4555 32.1757 34.0639 32.1459 33.1088C32.0872 31.2351 32.1548 27.2124 32.2934 25.2857L36.7406 24.3088Z" fill="#6A5649"/>
<path opacity="0.2" d="M34.7969 29.5581L34.5546 27.9697C34.5546 27.9697 33.6524 27.9937 33.1729 27.5697C33.1729 27.5697 33.3653 28.1413 34.2831 28.2013L34.5155 29.6341L34.5257 32.4421L34.7969 29.5581Z" fill="#040000"/>
<path d="M35.3836 19.0862C36.1405 19.2009 36.9356 19.5204 37.4276 19.7391C37.5703 19.8537 37.6476 20.2991 37.5903 20.7657C37.393 22.3769 37.1765 24.208 37.1765 24.208L37.3427 26.4009C36.7223 27.0355 33.7561 27.2217 32.2285 26.2377C32.2285 26.2377 32.2485 23.2631 32.3912 21.392C32.4934 20.0484 32.7832 19.7004 32.8974 19.6C32.8978 19.6 34.4774 18.9493 35.3836 19.0862Z" fill="#917A69"/>
<path d="M35.7683 17.6071L35.7856 18.2329C35.7856 18.2329 35.9025 17.8333 36.0829 17.5004C36.2336 17.2222 36.4487 16.656 36.4656 16.3369C36.482 16.0284 36.3287 15.3582 35.9834 15.048C35.5069 14.62 35.0434 14.544 34.4349 14.5573C33.9789 14.5671 33.4652 14.7986 33.2807 14.9951C33.0745 15.2142 32.8181 15.6809 32.9145 16.4075C32.9149 16.408 35.5118 17.596 35.7683 17.6071Z" fill="#332418"/>
<path d="M35.1427 15.3599C35.153 15.5795 35.2698 15.9715 35.5934 16.2279C35.5707 16.4755 35.549 16.7288 35.6103 16.9702C35.6236 17.0217 35.641 17.0737 35.673 17.1159C35.705 17.1586 35.7538 17.1911 35.8072 17.1924C35.8787 17.1942 35.9063 17.1493 35.9258 17.0924C35.9512 17.0186 35.9903 16.9493 36.025 16.8791C36.0418 16.8453 36.0623 16.8231 36.085 16.7959C36.189 16.6902 36.5058 16.5528 36.6712 16.8884C36.8423 17.2364 36.5792 17.7199 36.3227 17.8044C35.881 17.9497 35.7698 17.6497 35.7698 17.6497L35.8094 19.1359C35.7014 19.5177 34.9783 20.1288 33.9921 20.3373C33.9921 20.3373 33.6285 20.0191 34.109 19.1991L34.0952 18.6737C34.0952 18.6737 33.7556 18.7066 33.5098 18.6137C33.297 18.5333 33.0916 18.3786 33.0005 17.9004C32.853 17.1288 32.8867 16.5062 32.953 16.0786C33.0183 15.6573 33.2747 15.2773 33.4103 15.1795C33.4098 15.2702 33.5054 15.5039 33.8907 15.5479C34.3721 15.6039 34.8054 15.5182 35.1427 15.3599Z" fill="#F9DACE"/>
<path d="M33.9932 20.3382C33.9932 20.3382 34.1105 20.0965 34.1985 19.8711C34.2509 19.7822 35.1341 19.4085 35.4585 19.1476C35.7483 18.9147 35.7976 18.7645 35.7976 18.7645L35.7589 19.2125C35.7589 19.2125 35.3163 20.2631 33.9932 20.3382Z" fill="#6F5E52"/>
<path d="M34.1982 19.8707C34.3134 19.7378 34.9747 20.3618 35.0605 20.5333C35.0605 20.5333 35.6916 20.1702 35.9289 19.8675C36.1836 19.5427 36.2538 19.292 36.2538 19.292C36.2538 19.292 36.0965 19.0573 36.0338 18.9235C35.9254 18.6924 35.8525 18.5871 35.796 18.6044L35.7982 18.7462C35.6809 18.9267 35.4685 19.0773 35.0965 19.3151C34.5431 19.6698 34.248 19.7613 34.1982 19.8707Z" fill="#7E6C5E"/>
<path d="M34.1097 19.2L34.0991 18.784C34.0991 18.784 34.0395 18.7862 33.9706 18.9413C33.8866 19.1311 33.8431 19.1742 33.6795 19.3276C33.5768 19.5689 33.4324 19.7902 33.552 20.3382C33.68 19.9391 33.7875 19.9627 33.8084 19.9449C33.9488 20.3591 33.9813 20.3329 33.9813 20.3329C33.9813 20.3329 33.7973 19.8036 34.1097 19.2Z" fill="#7E6C5E"/>
<path d="M34.4727 16.3018L34.8162 16.4911C34.8669 16.3924 34.8309 16.2698 34.7358 16.2178C34.6411 16.1658 34.5233 16.2031 34.4727 16.3018Z" fill="#332418"/>
<path d="M33.0603 16.3524L33.4119 16.1968C33.3719 16.1004 33.2607 16.0573 33.1634 16.1004C33.0665 16.1435 33.0203 16.256 33.0603 16.3524Z" fill="#332418"/>
<path d="M34.0957 18.6746C34.5717 18.6715 34.9197 18.5293 35.1464 18.396C35.3126 18.2982 35.5704 17.9857 35.6104 17.8844C35.6104 17.8844 35.5415 18.3155 35.301 18.5151C34.8659 18.876 34.1001 18.8604 34.1001 18.8604L34.0957 18.6746Z" fill="#DEC5BE"/>
<path d="M34.2852 16.7627C34.2865 16.8484 34.3545 16.9169 34.4367 16.9155C34.5194 16.9142 34.5852 16.8435 34.5838 16.7578C34.5825 16.672 34.5149 16.6035 34.4323 16.6049C34.3501 16.6062 34.2843 16.6769 34.2852 16.7627Z" fill="#332418"/>
<path d="M34.3968 17.6573L34.0381 17.7889C34.0728 17.8916 34.1812 17.9453 34.2803 17.9089C34.379 17.8729 34.4314 17.76 34.3968 17.6573Z" fill="#332418"/>
<path d="M33.1651 16.7449C33.1664 16.8311 33.2348 16.9 33.3179 16.8987C33.4011 16.8973 33.4673 16.8262 33.4664 16.7396C33.4651 16.6533 33.3966 16.5844 33.3135 16.5858C33.2304 16.5876 33.1637 16.6587 33.1651 16.7449Z" fill="#332418"/>
<path d="M37.4991 27.3631C37.4764 27.6333 37.4764 27.7937 37.3657 27.9582C37.2986 28.0582 37.1742 28.1435 37.0968 28.2222C36.8671 28.4555 36.896 28.5995 36.7275 28.8137C36.5955 28.9817 36.4742 29.0324 36.4982 29.0791C36.5293 29.1395 36.644 29.2311 36.8186 29.1586C36.9066 29.1222 36.9275 29.1044 37.0644 28.9969C37.0546 29.0502 37.0351 29.1244 37.0275 29.1435C36.9911 29.2386 36.9462 29.3337 36.8986 29.4235C36.8275 29.5582 36.7871 29.6115 36.6964 29.7346C36.6075 29.8555 36.4835 29.9684 36.416 30.1035C36.3604 30.2142 36.4746 30.2582 36.5724 30.2586C36.6826 30.2591 36.7808 30.1955 36.8915 30.2106C36.944 30.2177 36.984 30.2497 37.0342 30.2649C37.1431 30.2977 37.2071 30.2537 37.304 30.2124C37.4462 30.152 37.5955 30.1106 37.7204 30.0155C37.8497 29.9169 37.9604 29.7911 38.0546 29.6586C38.1351 29.5457 38.2044 29.4249 38.2644 29.3004C38.3248 29.1751 38.3551 29.0382 38.404 28.9066C38.5471 28.5235 38.6555 28.0177 38.7608 27.5093C38.8662 27.0009 39.2208 25.0244 39.2208 25.0244L37.6888 24.7942C37.6897 24.7951 37.5333 26.9555 37.4991 27.3631Z" fill="#F9DACE"/>
<path d="M37.1284 19.6107C37.4333 19.7151 37.8711 19.8307 38.1787 20.1151C38.5862 20.4915 38.6715 21.3573 38.8898 22.3653C39.108 23.3733 39.1618 23.6898 39.2373 24.4284C39.2555 24.6084 39.2871 24.7515 39.2404 25.0338C39.1667 25.4822 38.8564 27.0751 38.8564 27.0751C38.8564 27.0751 38.0707 27.2422 37.5271 26.8782L37.6613 24.4653L36.7809 21.5867C36.7809 21.5867 36.6427 20.6693 37.1284 19.6107Z" fill="#917A69"/>
<path d="M37.5273 26.8782C38.0713 27.2417 38.8567 27.0751 38.8567 27.0751L38.7278 27.7235C38.7278 27.7235 38.5087 27.7991 38.0927 27.756C37.6767 27.7128 37.4775 27.5124 37.4775 27.5124L37.5273 26.8782Z" fill="#7E6C5E"/>
<path d="M29.022 40.8648C29.0438 40.8648 29.0691 41.0808 28.9513 41.1826C28.8153 41.2999 28.4233 41.5017 27.8958 41.4333C27.3682 41.3648 27.0824 41.2155 26.8718 41.0386C26.6606 40.8617 26.3646 40.6128 26.126 40.5599C25.9042 40.511 25.6638 40.4106 25.5926 40.3421C25.5215 40.2737 25.5318 39.9688 25.5318 39.9688L29.022 40.8648Z" fill="#55443A"/>
<path d="M25.7566 38.9746C25.7566 38.9746 25.6904 38.9755 25.6766 39.0457C25.6602 39.1297 25.6464 39.3942 25.6113 39.5319C25.5628 39.7235 25.5117 39.9182 25.5406 40.0742C25.6491 40.2417 25.9308 40.3386 26.162 40.4266C26.398 40.5164 26.6704 40.7017 26.91 40.8991C27.158 41.1035 27.6793 41.3164 28.0233 41.3137C28.43 41.3106 28.8882 41.1791 28.9931 40.9906C29.1228 40.7573 28.9548 40.6448 28.3517 40.3653C28.2375 40.3124 27.8535 40.0746 27.7166 39.9888C27.3468 39.756 26.7695 39.3466 26.6557 38.8608C26.5553 38.8751 26.4571 38.9048 26.3655 38.9484C26.2846 38.9871 26.1695 39.032 26.1713 39.1355C26.1717 39.1715 26.1824 39.2066 26.194 39.2408C26.2011 39.2622 26.2068 39.2902 26.1882 39.3026C26.1708 39.3146 26.1473 39.3008 26.1317 39.2871C26.0691 39.2302 25.758 39.0231 25.7566 38.9746Z" fill="#6A5649"/>
<path d="M23.2324 42.1684C23.2284 42.5275 23.1835 42.7675 23.0666 42.9831C22.9493 43.1991 22.7129 43.2759 22.4671 43.2257C22.2213 43.1755 21.9733 43.0346 21.8893 42.7293C21.8053 42.4235 21.8222 42.1688 21.8617 41.8342L23.2324 42.1684Z" fill="#55443A"/>
<path d="M23.209 41.6475C23.1632 41.1497 23.0819 40.8035 23.0846 40.424C23.0872 40.0613 23.0797 39.6955 23.0521 39.6693L22.1752 39.6209C22.1339 39.6186 22.0744 40.0822 22.033 40.5897C21.9841 41.1884 21.9264 41.3737 21.8664 41.8177C21.801 42.3013 21.8424 42.5533 21.9766 42.7675C22.1561 43.0542 22.7606 43.2924 23.0361 42.8604C23.261 42.508 23.2535 42.1289 23.209 41.6475Z" fill="#6A5649"/>
<path d="M26.9257 39.2644C26.7648 39.0884 26.7586 38.9453 26.7462 38.5995C26.7364 38.3226 26.8844 36.0217 26.9444 35.1097C26.9524 34.9937 26.9604 34.8728 26.9684 34.7493C26.9688 34.7431 26.9688 34.7395 26.9688 34.7395C27.0137 34.0293 27.0524 33.2293 27.0422 32.6813C27.0164 31.3111 26.7782 26.7177 26.6093 24.7595L23.2502 24.5217C23.0235 25.0048 22.3871 25.7986 22.1831 26.3417C21.7653 27.4537 21.9648 28.2586 22.0857 29.7213C22.2151 31.288 22.3391 32.5266 22.3391 32.5266C22.3155 32.8053 21.9284 33.3484 21.8782 34.5791C21.8315 35.7297 21.9631 37.1977 21.9631 37.1977C22.0244 38.0755 22.1377 38.8262 22.16 39.6204C22.1626 39.7128 22.1462 40.0871 22.1128 40.5213C22.08 40.9506 22.0311 41.456 22.0706 41.6715C22.1826 42.2817 22.8595 42.3888 22.976 41.8764C23.0533 41.5368 23.0453 41.2604 23.0288 40.8C23.0128 40.3502 23.0528 39.8697 23.0537 39.7902C23.0484 39.2257 23.2693 38.3346 23.4382 37.3493C23.4382 37.3493 23.4382 37.3493 23.4386 37.3493C23.4386 37.3493 24.0888 34.2275 24.2702 32.7875C24.4288 31.5306 24.6097 30.516 24.6097 30.516L25.1008 32.8537C25.1008 32.8537 25.0395 33.4831 25.0137 34.0213C24.9995 34.3133 25.0817 34.8675 25.1737 35.3813C25.5142 37.4142 25.7284 38.7484 25.7448 38.8933C25.7608 39.0382 25.7497 39.1146 25.7475 39.164C25.7391 39.3715 26.0808 39.5937 26.4284 39.8568C26.5657 39.9608 27.0453 40.3248 27.4591 40.5062C27.9 40.7 28.4902 40.588 28.3515 40.3648C27.872 40.0555 27.2622 39.6333 26.9257 39.2644Z" fill="#F9DACE"/>
<path opacity="0.2" d="M24.6104 30.516L24.9072 28.0942C24.9072 28.0942 25.601 28.0315 26.1579 27.3791C26.1579 27.3791 25.993 27.96 25.1895 28.2711L24.8001 30.4173L25.1019 32.8551L24.6104 30.516Z" fill="#040000"/>
<path d="M27.1536 32.908C27.1318 32.436 26.8149 26.0737 26.61 24.7591L22.9233 24.7533C22.5153 25.4342 22.0264 26.0822 21.8691 27.4226C21.7118 28.7631 22.1838 31.4666 22.1709 32.1173C22.158 32.7675 21.7753 34.0684 21.75 34.7444C21.75 34.7444 22.1091 34.9906 22.4153 35.08L22.7584 32.1951L22.8602 35.1435C22.8602 35.1435 23.4718 35.4204 25.0149 35.3311C26.558 35.2417 27.0864 34.7826 27.0864 34.7826C27.0864 34.7826 27.1749 33.38 27.1536 32.908Z" fill="#7E6C5E"/>
<path d="M25.7734 20.0631C26.1121 20.0364 26.4845 19.98 26.9543 20.5791C27.4241 21.1782 28.4445 23.7387 28.4285 23.892C28.4125 24.0453 27.8641 24.7835 27.381 24.6009C26.8979 24.4182 25.8405 21.6969 25.8405 21.6969L25.7734 20.0631Z" fill="#F9DACE"/>
<path d="M28.9939 24.7018C28.9939 24.7018 28.1956 25.1173 27.6756 25.168C27.3032 25.2045 27.1565 24.8045 26.6445 23.5298L28.9939 24.7018Z" fill="#917A69"/>
<path d="M25.7441 19.9729C26.1201 19.9689 26.4104 19.9845 26.7055 20.2111C27.0006 20.4378 27.169 20.78 27.3433 20.8249C27.517 20.8698 27.6068 20.8249 27.6068 20.8249C27.6068 20.8249 27.7086 21.0991 27.4757 21.1636C27.2428 21.228 27.2241 21.244 27.2441 21.3862C27.2641 21.5285 27.201 21.6285 26.985 21.6498C26.769 21.6707 26.805 21.8289 26.6868 21.9289C26.5686 22.0289 26.3895 21.9711 26.3895 21.9711L25.7441 19.9729Z" fill="#917A69"/>
<path d="M26.7664 23.368C27.4589 22.7204 27.2646 22.0133 27.0126 21.4929C26.5091 20.4524 25.9704 19.9729 25.7442 19.9729L24.3202 19.9716C23.6393 20.0524 23.0535 20.1471 22.9046 20.1653C22.7069 20.1893 22.362 20.6413 22.338 21.0862C22.3113 21.5738 22.458 21.5236 22.5718 22.3324C22.5718 22.3324 22.9131 22.8991 23.0171 23.2462C23.1211 23.5938 23.1607 23.9982 23.0251 24.3884C22.966 24.5582 22.9038 24.6653 22.7629 24.8996C22.4571 25.408 22.1287 26.1604 21.9775 26.7858C21.9775 26.7858 22.6015 26.7933 22.9984 26.3302C22.9984 26.3302 23.5393 27.1453 24.8802 27.2129C26.2211 27.2804 26.8838 26.088 26.8838 26.088L26.5962 24.5413C26.6553 24.2662 26.7251 23.7471 26.7664 23.368Z" fill="#917A69"/>
<path opacity="0.1" d="M23.7197 23.0995C23.7197 23.0995 23.9895 23.7129 24.7695 23.6986C25.4828 23.6853 25.7739 23.0858 25.7739 23.0858C25.7739 23.0858 25.7344 23.904 24.7673 23.8946C23.8011 23.8853 23.7197 23.0995 23.7197 23.0995Z" fill="#040000"/>
<path d="M25.0127 27.8156C25.0127 27.8351 25.0127 28.6716 25.0127 28.6916C25.0127 28.7111 25.0256 28.7311 25.0518 28.7462L26.6349 29.66C26.6611 29.6751 26.6954 29.6827 26.7296 29.6827V26.7929L25.0523 27.7614C25.0256 27.776 25.0127 27.7956 25.0127 27.8156Z" fill="#41322B"/>
<path d="M26.8232 29.6596L28.5832 28.6436C28.6094 28.6285 28.6223 28.6089 28.6223 28.5889C28.6223 28.5694 28.6223 27.7329 28.6223 27.7129C28.6223 27.6929 28.6094 27.6734 28.5832 27.6582L27.0001 26.7445C26.9481 26.7142 26.8632 26.7142 26.8112 26.7445L26.7285 26.792V29.6818C26.7632 29.6822 26.7974 29.6747 26.8232 29.6596Z" fill="#5A453E"/>
<path d="M26.6348 28.7841L25.0517 27.8703C24.9997 27.8401 24.9997 27.7912 25.0517 27.7614L26.8117 26.7454C26.8637 26.7152 26.9486 26.7152 27.0006 26.7454L28.5837 27.6592C28.6357 27.6894 28.6357 27.7383 28.5837 27.7681L26.8237 28.7841C26.7717 28.8138 26.6873 28.8138 26.6348 28.7841Z" fill="#5D4B44"/>
<path d="M27.7274 27.9712C27.7372 27.957 27.7461 27.9423 27.7536 27.9276C27.7558 27.9236 27.7576 27.9196 27.7594 27.9156C27.7656 27.9027 27.771 27.8903 27.7754 27.8774C27.7767 27.8734 27.7785 27.8694 27.7798 27.8654C27.7852 27.8494 27.7892 27.833 27.7918 27.817C27.7918 27.8165 27.7918 27.8161 27.7923 27.8161C27.795 27.7996 27.7963 27.7832 27.7963 27.7663C27.7963 27.7614 27.7958 27.7565 27.7958 27.7516C27.7954 27.7401 27.7945 27.7285 27.7932 27.717C27.7923 27.7112 27.7914 27.705 27.7901 27.6992C27.7878 27.6881 27.7852 27.677 27.7816 27.6663C27.7798 27.661 27.7785 27.6552 27.7767 27.6498C27.7714 27.6343 27.7647 27.6187 27.7572 27.6036C27.755 27.5987 27.7518 27.5943 27.7492 27.5894C27.743 27.5787 27.7367 27.5676 27.7296 27.557C27.7252 27.5507 27.7207 27.5441 27.7158 27.5378C27.7123 27.533 27.7092 27.5285 27.7056 27.5236C27.7003 27.5178 27.695 27.5112 27.6892 27.5045C27.6861 27.501 27.6834 27.4978 27.6803 27.4943C27.471 27.2534 27.163 27.1734 26.8185 27.1734C26.4736 27.1734 26.1652 27.2538 25.9558 27.4952C25.9532 27.4978 25.951 27.5005 25.9483 27.5032C25.9425 27.5103 25.9367 27.517 25.931 27.5232C25.927 27.5281 25.9238 27.533 25.9203 27.5383C25.9158 27.5441 25.9114 27.5498 25.9074 27.5561C25.8994 27.5676 25.8927 27.5792 25.8861 27.5912C25.8838 27.5952 25.8812 27.5992 25.8794 27.6032C25.8714 27.6187 25.8652 27.6343 25.8594 27.6503C25.8576 27.6552 25.8567 27.6601 25.855 27.665C25.8514 27.6765 25.8483 27.6885 25.8461 27.7001C25.8452 27.7054 25.8443 27.7107 25.8434 27.7161C25.8416 27.7285 25.8407 27.7405 25.8403 27.753C25.8403 27.7574 25.8398 27.7614 25.8398 27.7658C25.8403 27.7996 25.8456 27.833 25.8563 27.8663C25.8576 27.8698 25.859 27.8734 25.8603 27.877C25.8652 27.8903 25.871 27.9041 25.8772 27.917C25.879 27.9205 25.8807 27.9241 25.8825 27.9272C25.8905 27.9427 25.8998 27.9578 25.9105 27.973C25.911 27.9734 25.9114 27.9743 25.9118 27.9747C25.9234 27.9912 25.9367 28.0076 25.9514 28.0236C25.9523 28.0245 25.9536 28.0258 25.9545 28.0267C25.9674 28.041 25.9816 28.0547 25.9972 28.0681C26.0007 28.0712 26.0043 28.0743 26.0078 28.0774C26.0216 28.0894 26.0367 28.101 26.0523 28.1125C26.0563 28.1152 26.0598 28.1183 26.0638 28.121C26.0838 28.1347 26.1047 28.1485 26.127 28.1614C26.5087 28.3818 27.1287 28.3818 27.5101 28.1614C27.5323 28.1485 27.5532 28.1352 27.5727 28.1214C27.5772 28.1183 27.5812 28.1152 27.5856 28.1121C27.6007 28.101 27.615 28.0898 27.6287 28.0783C27.6327 28.0747 27.6367 28.0716 27.6407 28.0681C27.6554 28.0552 27.6692 28.0418 27.6816 28.0281C27.683 28.0267 27.6847 28.025 27.6861 28.0236C27.7003 28.0076 27.7132 27.9916 27.7247 27.9752C27.7256 27.9738 27.7265 27.9725 27.7274 27.9712Z" fill="#A467A7"/>
<path d="M27.7274 27.9712C27.7372 27.957 27.7461 27.9423 27.7536 27.9276C27.7558 27.9236 27.7576 27.9196 27.7594 27.9156C27.7656 27.9027 27.771 27.8903 27.7754 27.8774C27.7767 27.8734 27.7785 27.8694 27.7798 27.8654C27.7852 27.8494 27.7892 27.833 27.7918 27.817C27.7918 27.8165 27.7918 27.8161 27.7923 27.8161C27.795 27.7996 27.7963 27.7832 27.7963 27.7663C27.7963 27.7614 27.7958 27.7565 27.7958 27.7516C27.7954 27.7401 27.7945 27.7285 27.7932 27.717C27.7923 27.7112 27.7914 27.705 27.7901 27.6992C27.7878 27.6881 27.7852 27.677 27.7816 27.6663C27.7798 27.661 27.7785 27.6552 27.7767 27.6498C27.7714 27.6343 27.7647 27.6187 27.7572 27.6036C27.755 27.5987 27.7518 27.5943 27.7492 27.5894C27.743 27.5787 27.7367 27.5676 27.7296 27.557C27.7252 27.5507 27.7207 27.5441 27.7158 27.5378C27.7123 27.533 27.7092 27.5285 27.7056 27.5236C27.7003 27.5178 27.695 27.5112 27.6892 27.5045C27.6861 27.501 27.6834 27.4978 27.6803 27.4943C27.471 27.2534 27.163 27.1734 26.8185 27.1734C26.4736 27.1734 26.1652 27.2538 25.9558 27.4952C25.9532 27.4978 25.951 27.5005 25.9483 27.5032C25.9425 27.5103 25.9367 27.517 25.931 27.5232C25.927 27.5281 25.9238 27.533 25.9203 27.5383C25.9158 27.5441 25.9114 27.5498 25.9074 27.5561C25.8994 27.5676 25.8927 27.5792 25.8861 27.5912C25.8838 27.5952 25.8812 27.5992 25.8794 27.6032C25.8714 27.6187 25.8652 27.6343 25.8594 27.6503C25.8576 27.6552 25.8567 27.6601 25.855 27.665C25.8514 27.6765 25.8483 27.6885 25.8461 27.7001C25.8452 27.7054 25.8443 27.7107 25.8434 27.7161C25.8416 27.7285 25.8407 27.7405 25.8403 27.753C25.8403 27.7574 25.8398 27.7614 25.8398 27.7658C25.8403 27.7996 25.8456 27.833 25.8563 27.8663C25.8576 27.8698 25.859 27.8734 25.8603 27.877C25.8652 27.8903 25.871 27.9041 25.8772 27.917C25.879 27.9205 25.8807 27.9241 25.8825 27.9272C25.8905 27.9427 25.8998 27.9578 25.9105 27.973C25.911 27.9734 25.9114 27.9743 25.9118 27.9747C25.9234 27.9912 25.9367 28.0076 25.9514 28.0236C25.9523 28.0245 25.9536 28.0258 25.9545 28.0267C25.9674 28.041 25.9816 28.0547 25.9972 28.0681C26.0007 28.0712 26.0043 28.0743 26.0078 28.0774C26.0216 28.0894 26.0367 28.101 26.0523 28.1125C26.0563 28.1152 26.0598 28.1183 26.0638 28.121C26.0838 28.1347 26.1047 28.1485 26.127 28.1614C26.5087 28.3818 27.1287 28.3818 27.5101 28.1614C27.5323 28.1485 27.5532 28.1352 27.5727 28.1214C27.5772 28.1183 27.5812 28.1152 27.5856 28.1121C27.6007 28.101 27.615 28.0898 27.6287 28.0783C27.6327 28.0747 27.6367 28.0716 27.6407 28.0681C27.6554 28.0552 27.6692 28.0418 27.6816 28.0281C27.683 28.0267 27.6847 28.025 27.6861 28.0236C27.7003 28.0076 27.7132 27.9916 27.7247 27.9752C27.7256 27.9738 27.7265 27.9725 27.7274 27.9712Z" fill="#4B3A31"/>
<path d="M26.8178 27.425C26.8023 27.425 26.7881 27.4245 26.7756 27.4232C26.741 27.4205 26.709 27.441 26.6961 27.473C26.6156 27.6694 26.5467 27.8783 26.4867 28.0965C26.473 28.1463 26.5032 28.1943 26.5538 28.2041C26.613 28.2152 26.701 28.2268 26.8178 28.2268C26.9347 28.2268 27.0227 28.2157 27.0818 28.2041C27.1325 28.1943 27.1627 28.1463 27.149 28.0965C27.089 27.8783 27.0201 27.6694 26.9396 27.473C26.9263 27.441 26.8947 27.4205 26.8601 27.4232C26.8476 27.4241 26.8334 27.425 26.8178 27.425Z" fill="#6C534A"/>
<path d="M27.0061 27.4867C27.0856 27.6636 27.1545 27.8583 27.2145 28.0667C27.2288 28.1156 27.2794 28.145 27.327 28.1263C27.3963 28.0992 27.4954 28.0521 27.5812 27.981C27.6203 27.9481 27.6261 27.8814 27.5959 27.8401C27.4776 27.6761 27.3212 27.5343 27.1336 27.4112C27.091 27.3832 27.0372 27.3743 27.0123 27.3858C26.9883 27.397 26.9852 27.4405 27.0061 27.4867Z" fill="#6C534A"/>
<path d="M27.1701 27.3806C27.3497 27.497 27.5039 27.6308 27.631 27.7823C27.6639 27.8214 27.7105 27.8188 27.7221 27.769C27.727 27.7477 27.7305 27.7237 27.7301 27.6974C27.7292 27.6463 27.6839 27.5774 27.6452 27.5441C27.5097 27.4277 27.3457 27.341 27.1959 27.3014C27.1465 27.2886 27.107 27.2948 27.103 27.3081C27.0985 27.3219 27.1274 27.3526 27.1701 27.3806Z" fill="#6C534A"/>
<path d="M27.0869 27.2396C27.0785 27.2281 27.0976 27.2161 27.1345 27.2139C27.154 27.213 27.1772 27.2125 27.2012 27.2148C27.2607 27.2201 27.4043 27.2628 27.5314 27.3561C27.5727 27.3863 27.6327 27.4392 27.6612 27.4761C27.6896 27.5134 27.6754 27.5183 27.6363 27.4854C27.5305 27.3979 27.3594 27.3045 27.1918 27.2725C27.1412 27.2636 27.0954 27.2512 27.0869 27.2396Z" fill="#6C534A"/>
<path d="M26.6306 27.4867C26.551 27.6636 26.4821 27.8583 26.4221 28.0667C26.4079 28.1156 26.3572 28.145 26.3097 28.1263C26.2404 28.0992 26.1412 28.0521 26.0555 27.981C26.0164 27.9481 26.0106 27.8814 26.0404 27.8401C26.1586 27.6761 26.315 27.5343 26.5021 27.4112C26.5448 27.3832 26.5986 27.3743 26.6235 27.3858C26.6484 27.397 26.6515 27.4405 26.6306 27.4867Z" fill="#6C534A"/>
<path d="M26.4663 27.3806C26.2867 27.497 26.1325 27.6308 26.0054 27.7823C25.9725 27.8214 25.9258 27.8188 25.9143 27.769C25.9094 27.7477 25.9058 27.7237 25.9063 27.6974C25.9072 27.6463 25.9525 27.5774 25.9912 27.5441C26.1267 27.4277 26.2907 27.341 26.4405 27.3014C26.4898 27.2886 26.5294 27.2948 26.5334 27.3081C26.5378 27.3219 26.509 27.3526 26.4663 27.3806Z" fill="#6C534A"/>
<path d="M26.5491 27.2396C26.5576 27.2281 26.5385 27.2161 26.5016 27.2139C26.4816 27.213 26.4589 27.2125 26.4349 27.2148C26.3754 27.2201 26.2318 27.2628 26.1047 27.3561C26.0634 27.3863 26.0034 27.4392 25.9749 27.4761C25.9465 27.5134 25.9607 27.5183 25.9998 27.4854C26.1056 27.3979 26.2767 27.3045 26.4443 27.2725C26.4949 27.2636 26.5407 27.2512 26.5491 27.2396Z" fill="#6C534A"/>
<path d="M27.6414 25.7596C27.6387 25.7596 27.6365 25.7596 27.6338 25.7596C27.5614 25.7569 27.4716 25.7067 27.4574 25.5738C27.4436 25.4449 27.4747 25.0947 28.064 24.6285C28.5645 24.2325 28.9809 23.8632 29.0054 23.3485C29.0142 23.1592 28.9436 23.0054 28.8294 22.9667C28.7094 22.9258 28.5542 23.0209 28.4142 23.2214C28.3227 23.3525 28.3071 23.5138 28.3271 23.5543C28.3311 23.5534 28.3378 23.5511 28.3467 23.5467C28.3871 23.5271 28.4356 23.5436 28.4551 23.584C28.4747 23.6245 28.4578 23.6729 28.4178 23.6925C28.2987 23.7503 28.2307 23.692 28.2067 23.6645C28.1094 23.5507 28.1676 23.2907 28.2809 23.1285C28.5458 22.7494 28.7889 22.7814 28.8814 22.8129C29.0676 22.8765 29.1796 23.0898 29.1671 23.356C29.1396 23.9392 28.6965 24.3347 28.1645 24.7556C27.7347 25.0956 27.6009 25.392 27.6187 25.5565C27.6209 25.5747 27.6258 25.5969 27.64 25.5974C27.6631 25.5987 27.7156 25.5676 27.7276 25.5023C27.7356 25.4583 27.7782 25.4289 27.8218 25.4369C27.8658 25.4449 27.8951 25.4872 27.8871 25.5312C27.8636 25.6609 27.7565 25.7596 27.6414 25.7596Z" fill="#A467A7"/>
<path d="M27.6414 25.7596C27.6387 25.7596 27.6365 25.7596 27.6338 25.7596C27.5614 25.7569 27.4716 25.7067 27.4574 25.5738C27.4436 25.4449 27.4747 25.0947 28.064 24.6285C28.5645 24.2325 28.9809 23.8632 29.0054 23.3485C29.0142 23.1592 28.9436 23.0054 28.8294 22.9667C28.7094 22.9258 28.5542 23.0209 28.4142 23.2214C28.3227 23.3525 28.3071 23.5138 28.3271 23.5543C28.3311 23.5534 28.3378 23.5511 28.3467 23.5467C28.3871 23.5271 28.4356 23.5436 28.4551 23.584C28.4747 23.6245 28.4578 23.6729 28.4178 23.6925C28.2987 23.7503 28.2307 23.692 28.2067 23.6645C28.1094 23.5507 28.1676 23.2907 28.2809 23.1285C28.5458 22.7494 28.7889 22.7814 28.8814 22.8129C29.0676 22.8765 29.1796 23.0898 29.1671 23.356C29.1396 23.9392 28.6965 24.3347 28.1645 24.7556C27.7347 25.0956 27.6009 25.392 27.6187 25.5565C27.6209 25.5747 27.6258 25.5969 27.64 25.5974C27.6631 25.5987 27.7156 25.5676 27.7276 25.5023C27.7356 25.4583 27.7782 25.4289 27.8218 25.4369C27.8658 25.4449 27.8951 25.4872 27.8871 25.5312C27.8636 25.6609 27.7565 25.7596 27.6414 25.7596Z" fill="#41322B"/>
<path d="M28.8964 23.7561C28.9658 23.8249 29.0733 23.7685 29.0924 23.7152C29.0924 23.7152 29.18 23.4596 29.1684 23.3205C29.328 23.3792 29.56 23.6249 29.5947 23.6969C29.6164 23.7423 29.6102 23.8112 29.5933 23.8583C29.5729 23.9152 29.5093 23.9445 29.4853 24.0001C29.4595 24.0596 29.4853 24.1298 29.4684 24.1925C29.4418 24.2921 29.3182 24.3445 29.2995 24.4458C29.2907 24.4956 29.3098 24.5472 29.3035 24.5974C29.296 24.6578 29.2533 24.7072 29.2093 24.7489C29.152 24.8045 29.0724 24.8712 28.9884 24.8765C28.8267 24.8863 28.6329 24.8298 28.4813 24.7761C28.448 24.7641 28.4129 24.7103 28.3907 24.6832C28.3613 24.6467 28.332 24.6098 28.3031 24.5734C28.2578 24.5165 28.2093 24.4507 28.2178 24.3783C28.2227 24.3343 28.2484 24.2952 28.2587 24.2521C28.2742 24.1876 28.2547 24.1196 28.2595 24.0529C28.2711 23.8903 28.4218 23.7676 28.4498 23.6072C28.4587 23.5552 28.4542 23.5018 28.4555 23.4494C28.4564 23.3965 28.4635 23.3418 28.4929 23.2978C28.5551 23.2036 28.7618 23.1725 28.8618 23.2036C28.9253 23.2232 29.0022 23.2574 29.0022 23.2574C29.0164 23.4321 28.9729 23.5974 28.8964 23.7561Z" fill="#F9DACE"/>
<path d="M25.0137 23.8578C25.0137 24.7413 25.319 25.1938 25.6723 25.7289C26.0906 26.3622 26.6479 26.804 26.6723 27.2498C26.6723 27.2716 26.6866 27.2933 26.715 27.3098C26.7723 27.3427 26.8648 27.3427 26.9221 27.3098C26.9506 27.2933 26.9648 27.2716 26.9648 27.2502C26.9746 26.8045 27.5466 26.3627 27.9648 25.7293C28.3181 25.1942 28.6234 24.7489 28.6234 23.8582H25.0137V23.8578Z" fill="#554239"/>
<path opacity="0.1" d="M25.0137 23.8707C25.0168 24.7458 25.3203 25.1965 25.6719 25.7289C26.0901 26.3622 26.6474 26.804 26.6719 27.2498C26.6719 27.2716 26.6861 27.2933 26.7146 27.3098C26.727 27.3169 26.7417 27.3227 26.7572 27.3267C26.7426 26.896 26.603 26.4036 26.2937 25.9787C25.9728 25.5378 25.6963 24.9218 25.6963 24.1613C25.6963 24.1613 25.3092 23.9311 25.1319 23.8578H25.0154C25.0141 23.8613 25.0137 23.8658 25.0137 23.8707Z" fill="#040000"/>
<path d="M25.542 24.5943C26.2464 25.0009 27.3891 25.0009 28.0936 24.5943C28.7985 24.1876 28.7985 23.5276 28.0936 23.1209C27.3891 22.7143 26.2464 22.7143 25.542 23.1209C24.8376 23.5276 24.8376 24.1871 25.542 24.5943Z" fill="#A467A7"/>
<path d="M25.542 24.5943C26.2464 25.0009 27.3891 25.0009 28.0936 24.5943C28.7985 24.1876 28.7985 23.5276 28.0936 23.1209C27.3891 22.7143 26.2464 22.7143 25.542 23.1209C24.8376 23.5276 24.8376 24.1871 25.542 24.5943Z" fill="#41322B"/>
<path d="M25.7835 24.4547C26.3546 24.7845 27.2804 24.7845 27.8515 24.4547C28.4226 24.1249 28.4226 23.5903 27.8515 23.2609C27.2804 22.9312 26.3546 22.9312 25.7835 23.2609C25.2128 23.5903 25.2128 24.1249 25.7835 24.4547Z" fill="#A467A7"/>
<path d="M25.7835 24.4547C26.3546 24.7845 27.2804 24.7845 27.8515 24.4547C28.4226 24.1249 28.4226 23.5903 27.8515 23.2609C27.2804 22.9312 26.3546 22.9312 25.7835 23.2609C25.2128 23.5903 25.2128 24.1249 25.7835 24.4547Z" fill="#554239"/>
<path opacity="0.2" d="M26.2257 23.0858C26.0657 23.1267 25.9159 23.1849 25.7848 23.2605C25.2137 23.5903 25.2137 24.1249 25.7848 24.4543C25.8883 24.5138 26.0034 24.5627 26.1257 24.6009C25.7168 23.9085 25.9528 23.2289 26.2257 23.0858Z" fill="#040000"/>
<path d="M26.0423 26.6903C25.9801 26.6903 25.9308 26.6485 25.9157 26.5818C25.9054 26.5383 25.9325 26.4947 25.9761 26.4845C26.009 26.4769 26.0423 26.4907 26.061 26.5169C26.1028 26.4863 26.173 26.3983 26.1832 26.2929C26.1881 26.2418 26.1841 26.1734 26.1374 26.1374C26.0974 26.1067 25.9899 26.0698 25.7157 26.1694C25.3445 26.3045 25.021 26.4049 24.813 26.2672C24.7041 26.1947 24.6441 26.0645 24.6348 25.8796C24.6179 25.5414 24.8232 25.0796 25.0841 24.8712C25.2134 24.7676 25.3494 24.7316 25.4765 24.7672C25.561 24.7907 25.6219 24.8703 25.6396 24.9805C25.6614 25.1156 25.6156 25.2974 25.465 25.3978C25.4276 25.4227 25.3774 25.4125 25.3525 25.3756C25.3277 25.3383 25.3379 25.288 25.3748 25.2632C25.465 25.2027 25.4921 25.0876 25.4792 25.0063C25.4721 24.9627 25.4534 24.9294 25.433 24.9236C25.357 24.9027 25.2739 24.9276 25.1854 24.9983C24.9677 25.1725 24.7828 25.5889 24.797 25.872C24.8037 26.0045 24.8383 26.0894 24.9028 26.1325C25.0472 26.228 25.3561 26.128 25.6601 26.0178C25.925 25.9214 26.1192 25.9187 26.237 26.0098C26.3192 26.0734 26.3574 26.1796 26.345 26.3094C26.3272 26.4934 26.1823 26.6823 26.0521 26.6907C26.0485 26.6903 26.0454 26.6903 26.0423 26.6903Z" fill="#A467A7"/>
<path d="M26.0423 26.6903C25.9801 26.6903 25.9308 26.6485 25.9157 26.5822C25.9054 26.5387 25.9325 26.4951 25.9761 26.4849C26.009 26.4774 26.0423 26.4911 26.061 26.5174C26.1028 26.4867 26.173 26.3987 26.1832 26.2934C26.1881 26.2422 26.1841 26.1738 26.1374 26.1378C26.0974 26.1071 25.9899 26.0703 25.7157 26.1698C25.3445 26.3049 25.021 26.4054 24.813 26.2676C24.7041 26.1951 24.6441 26.0649 24.6348 25.88C24.6179 25.5418 24.8232 25.08 25.0841 24.8716C25.2134 24.768 25.3494 24.732 25.4765 24.7676C25.561 24.7911 25.6219 24.8707 25.6396 24.9809C25.6614 25.116 25.6156 25.2978 25.465 25.3983C25.4276 25.4231 25.3774 25.4129 25.3525 25.376C25.3277 25.3387 25.3379 25.2885 25.3748 25.2636C25.465 25.2031 25.4921 25.088 25.4792 25.0067C25.4721 24.9631 25.4534 24.9298 25.433 24.924C25.357 24.9031 25.2739 24.928 25.1854 24.9987C24.9677 25.1729 24.7828 25.5894 24.797 25.8725C24.8037 26.0049 24.8383 26.0898 24.9028 26.1329C25.0472 26.2285 25.3561 26.1285 25.6601 26.0182C25.925 25.9218 26.1192 25.9191 26.237 26.0103C26.3192 26.0738 26.3574 26.18 26.345 26.3098C26.3272 26.4938 26.1823 26.6827 26.0521 26.6911C26.0485 26.6903 26.0454 26.6903 26.0423 26.6903Z" fill="#41322B"/>
<path d="M21.3515 21.1876C21.3604 21.2027 21.3715 21.2169 21.3839 21.2293C21.4088 21.2542 21.4399 21.2738 21.4581 21.3036C21.5017 21.3747 21.4568 21.4662 21.4653 21.5493C21.4755 21.6511 21.5657 21.7298 21.5826 21.8307C21.5928 21.8916 21.575 21.9533 21.5728 22.0151C21.5679 22.1609 21.7413 22.2453 21.8635 22.284C21.9684 22.3169 22.0955 22.3382 22.1444 22.4369C22.1719 22.492 22.1661 22.5591 22.1924 22.6147C22.2373 22.7107 22.3586 22.7422 22.4644 22.7449C22.5653 22.7476 22.679 22.728 22.7368 22.6453C22.7706 22.5965 22.7786 22.5347 22.7835 22.4751C22.8079 22.1702 22.7799 21.8551 22.6528 21.5765C22.5257 21.2982 22.291 21.06 21.9968 20.9751C21.9635 20.9653 21.9253 20.9458 21.8906 20.944C21.835 20.9409 21.7701 20.9645 21.7137 20.9693C21.5915 20.98 21.4679 20.9751 21.347 20.9538C21.3066 21.0245 21.3097 21.1178 21.3515 21.1876Z" fill="#7E6C5E"/>
<path d="M22.8575 20.2333C22.1717 20.3289 21.9468 20.4964 21.7099 21.08C21.4828 21.6404 20.8921 23.5933 20.7379 24.1227C20.5815 24.6596 20.7024 24.7773 21.065 24.9778C21.3095 25.1129 21.6655 25.2658 21.9739 25.3991C22.0979 25.4524 22.8299 25.748 23.0801 25.848C23.3304 25.948 23.5028 26.0836 23.7041 26.2053C23.9352 26.3453 24.1317 26.56 24.3899 26.6236C24.4766 26.6449 24.5895 26.6276 24.6859 26.6049C24.8761 26.5604 25.0144 26.5133 25.1366 26.3978C25.2721 26.2693 25.2864 26.0293 25.3081 25.8502C25.3246 25.7169 25.3281 25.5764 25.2726 25.4542C25.2335 25.3671 25.1677 25.2956 25.1028 25.2258C25.0824 25.2036 25.0561 25.1636 25.0272 25.172C25.0272 25.172 24.9912 25.2249 24.9801 25.2449C24.9624 25.2764 24.9339 25.3276 24.9126 25.3733C24.8984 25.404 24.8868 25.4396 24.8557 25.4529C24.8166 25.4698 24.7681 25.4453 24.7495 25.4071C24.7308 25.3689 24.753 25.3276 24.7717 25.2898C24.7886 25.256 24.8015 25.2249 24.8215 25.1938C24.837 25.1693 24.893 25.0796 24.893 25.0796C24.8708 25.0684 24.833 25.0622 24.8188 25.0609C24.6401 25.0444 24.4935 25.0858 24.3184 25.1244C24.2632 25.1364 24.1944 25.1644 24.1375 25.1582C24.0988 25.1538 24.0566 25.1373 24.0192 25.1267C23.9157 25.0964 23.817 25.0476 23.7215 24.9982C23.3681 24.8156 22.249 24.076 22.249 24.076L23.0548 22.0604C23.0561 22.0609 23.3397 20.5684 22.8575 20.2333Z" fill="#F9DACE"/>
<path d="M23.1336 22.0987C23.2678 21.7853 23.4842 20.5782 22.9051 20.1653C22.6025 20.1653 22.3322 20.2133 21.9202 20.5849C21.7842 20.7076 21.5456 20.9418 21.338 20.9249C21.3114 21.0525 21.4647 21.1938 21.5687 21.236C21.6549 21.2711 21.7496 21.276 21.8407 21.2947C21.9318 21.3133 22.026 21.3507 22.0762 21.4289C22.1616 21.5613 22.0869 21.7538 22.174 21.8853C22.238 21.9827 22.3545 22.02 22.4434 22.0893C22.4651 22.1067 22.4869 22.1253 22.5016 22.1489C22.5247 22.1858 22.5291 22.2316 22.5282 22.2751C22.5269 22.3471 22.5122 22.4205 22.5287 22.4907C22.5456 22.5636 22.5985 22.6427 22.6545 22.692C22.6651 22.7013 22.7251 22.744 22.8065 22.7551C22.8691 22.6298 22.8962 22.5907 22.9425 22.5036C23.0274 22.3453 23.0776 22.2293 23.1336 22.0987Z" fill="#917A69"/>
<path d="M22.2505 24.0764C21.8025 23.9427 21.4785 24.1196 21.4785 24.1196C21.4785 24.1196 21.7181 23.7898 22.311 23.9253L22.2505 24.0764Z" fill="#DEC5BE"/>
<path d="M24.7928 19.4062C24.6648 19.4053 23.7862 19.3791 23.7862 19.3791C23.6408 19.0698 23.3826 18.9555 23.0413 18.556C22.7382 18.2018 22.6084 17.7369 22.6084 17.2706C22.6084 16.1115 23.5017 15.3209 24.6608 15.3209C24.8844 15.3209 25.2262 15.3662 25.6044 15.5444C25.6044 15.5444 26.2928 15.3658 26.6586 16.1662C26.8413 16.5658 26.6635 17.2324 26.352 17.6173C26.0635 17.9738 26.2737 18.4858 25.9604 18.8204C25.7448 19.0506 25.4777 19.2373 25.1804 19.3449C25.0462 19.3929 24.92 19.4066 24.7928 19.4062Z" fill="#332418"/>
<path d="M25.9156 16.1662C26.1485 16.2964 26.4458 16.8666 26.4467 18.0769C26.4476 19.1026 26.1214 19.364 25.956 19.4409C25.7907 19.5178 25.468 19.4813 25.1538 19.4364L25.1685 20.0515C25.1685 20.0515 26.056 20.976 25.3392 21.0849C24.9814 21.1391 24.388 20.916 24.1089 20.6453C23.8236 20.3684 23.7156 20.0671 23.7156 20.0671L23.6996 18.6444C23.6467 18.7822 23.4036 18.7902 23.2543 18.6302C23.0205 18.38 22.9734 18.0035 23.1694 17.7951C23.3654 17.5862 23.6805 17.6644 23.8298 17.9515C23.8298 17.9515 24.0138 17.9622 24.1889 17.6169C24.1889 17.6169 24.6916 17.6026 25.1587 17.324C25.7276 16.9853 25.9067 16.4444 25.9156 16.1662Z" fill="#F9DACE"/>
<path d="M25.181 17.7782C25.1872 17.8595 25.1286 17.9298 25.0504 17.9351C24.9721 17.9409 24.9037 17.8795 24.8979 17.7982C24.8917 17.7169 24.9504 17.6466 25.0286 17.6413C25.1068 17.636 25.1748 17.6969 25.181 17.7782Z" fill="#332418"/>
<path d="M25.0687 18.4738L25.6683 18.6493C25.623 18.8209 25.4519 18.9204 25.2865 18.872C25.1207 18.8235 25.0234 18.6453 25.0687 18.4738Z" fill="#AB6365"/>
<path d="M25.1612 18.616C25.1283 18.616 25.0967 18.6226 25.0674 18.6337C25.0932 18.7449 25.1732 18.8391 25.2865 18.872C25.3345 18.8862 25.3829 18.8862 25.4287 18.8773C25.4252 18.7324 25.3069 18.616 25.1612 18.616Z" fill="#E88B8A"/>
<path d="M26.2641 17.3177L25.9414 17.184C25.9752 17.0929 26.0747 17.0489 26.1641 17.0857C26.253 17.1226 26.2979 17.2262 26.2641 17.3177Z" fill="#332418"/>
<path d="M25.0346 17.2355L24.7359 17.4168C24.6821 17.3355 24.7057 17.2293 24.7883 17.1791C24.871 17.1288 24.9812 17.1542 25.0346 17.2355Z" fill="#332418"/>
<path d="M26.1927 17.6955C26.199 17.7768 26.1403 17.8471 26.0621 17.8528C25.9839 17.8586 25.9159 17.7973 25.9096 17.7159C25.9034 17.6346 25.9621 17.5644 26.0403 17.5586C26.1181 17.5533 26.1865 17.6146 26.1927 17.6955Z" fill="#332418"/>
<path d="M25.1541 19.4369C24.8234 19.4013 24.1403 19.2231 24.0283 18.9573C24.0283 18.9573 24.0674 19.1249 24.2745 19.2938C24.4812 19.4627 25.1594 19.6422 25.1594 19.6422L25.1541 19.4369Z" fill="#DEC5BE"/>
<path d="M23.8301 17.952L23.843 18.3115C24.0456 18.3067 24.2061 18.1382 24.2012 17.9355L24.1892 17.6169L23.8301 17.952Z" fill="#332418"/>
<path d="M14.3672 12.8778C14.3676 12.8725 14.4267 12.8733 14.5214 12.8782C14.5454 12.88 14.5685 12.8796 14.5752 12.8645C14.5836 12.8485 14.5787 12.8213 14.5725 12.792C14.561 12.7311 14.549 12.6671 14.5361 12.6005C14.4867 12.328 14.4556 12.1058 14.4667 12.104C14.4779 12.1022 14.5267 12.3213 14.5761 12.5938C14.5876 12.6609 14.5987 12.7249 14.6094 12.7858C14.6134 12.8142 14.6232 12.8471 14.6045 12.88C14.5947 12.8965 14.5752 12.9058 14.5596 12.9071C14.5436 12.9089 14.5303 12.9067 14.5187 12.9053C14.4245 12.8933 14.3667 12.8831 14.3672 12.8778Z" fill="#332418"/>
<path d="M25.4297 18.4151C25.4301 18.4098 25.4892 18.4106 25.5839 18.4155C25.6079 18.4173 25.631 18.4169 25.6377 18.4018C25.6461 18.3858 25.6412 18.3586 25.635 18.3293C25.6235 18.2684 25.6115 18.2044 25.5986 18.1378C25.5492 17.8653 25.5181 17.6431 25.5292 17.6413C25.5404 17.6395 25.5892 17.8586 25.6386 18.1311C25.6501 18.1982 25.6612 18.2622 25.6719 18.3231C25.6759 18.3515 25.6857 18.3844 25.667 18.4173C25.6572 18.4338 25.6377 18.4431 25.6221 18.4444C25.6061 18.4462 25.5928 18.444 25.5812 18.4426C25.487 18.4306 25.4292 18.4204 25.4297 18.4151Z" fill="#332418"/>
<path d="M33.932 17.5165C33.9315 17.5111 33.8724 17.512 33.7777 17.5169C33.7537 17.5187 33.7306 17.5182 33.724 17.5031C33.7155 17.4871 33.7204 17.46 33.7266 17.4307C33.7382 17.3698 33.7502 17.3058 33.7631 17.2391C33.8124 16.9667 33.8435 16.7445 33.8324 16.7427C33.8213 16.7409 33.7724 16.96 33.7231 17.2325C33.7115 17.2996 33.7004 17.3636 33.6897 17.4245C33.6857 17.4529 33.676 17.4858 33.6946 17.5187C33.7044 17.5351 33.724 17.5445 33.7395 17.5458C33.7555 17.5476 33.7689 17.5454 33.7804 17.544C33.8746 17.532 33.9324 17.5218 33.932 17.5165Z" fill="#332418"/>
</g>
<defs>
<clipPath id="clip0_1141_49370">
<rect width="48" height="48" rx="24" fill="white"/>
</clipPath>
</defs>
</svg>
