<svg width="48" height="48" viewBox="0 0 48 48" fill="none" xmlns="http://www.w3.org/2000/svg">
<g clip-path="url(#clip0_1141_49369)">
<rect width="48" height="48" rx="24" fill="white"/>
<g opacity="0.51">
<path d="M40.3252 16.8631C39.191 13.9204 36.9243 11.9556 34.2065 10.3969C28.2999 7.00933 24.1305 6.57511 20.135 9.70178C16.1394 12.8289 12.6648 18.8222 10.1456 20.1253C7.62653 21.4284 5.62875 23.0787 5.80253 28.0298C5.97631 32.9809 9.53764 32.1124 9.97186 36.108C10.4061 40.1036 13.1856 43.3173 17.7896 44.1862C22.3932 45.0547 23.8701 41.7542 27.9523 41.0591C32.035 40.364 32.643 42.6227 37.9412 41.9276C43.2399 41.2324 44.8901 32.2858 43.8479 27.3347C43.3136 24.7964 42.4834 22.2418 41.4514 19.8671C41.0301 18.8973 40.711 17.8631 40.3252 16.8631Z" fill="#CFBFB3"/>
<path opacity="0.7" d="M40.3252 16.8631C39.191 13.9204 36.9243 11.9556 34.2065 10.3969C28.2999 7.00933 24.1305 6.57511 20.135 9.70178C16.1394 12.8289 12.6648 18.8222 10.1456 20.1253C7.62653 21.4284 5.62875 23.0787 5.80253 28.0298C5.97631 32.9809 9.53764 32.1124 9.97186 36.108C10.4061 40.1036 13.1856 43.3173 17.7896 44.1862C22.3932 45.0547 23.8701 41.7542 27.9523 41.0591C32.035 40.364 32.643 42.6227 37.9412 41.9276C43.2399 41.2324 44.8901 32.2858 43.8479 27.3347C43.3136 24.7964 42.4834 22.2418 41.4514 19.8671C41.0301 18.8973 40.711 17.8631 40.3252 16.8631Z" fill="#CFBFB3"/>
</g>
<g opacity="0.66">
<path d="M18.9559 24.9516C18.9559 24.9516 17.2044 25.4742 16.2488 24.6382C15.2932 23.8022 17.7884 22.8618 18.6377 23.1751C19.487 23.4885 18.903 24.5338 17.6292 24.0631C16.3555 23.5929 15.559 22.8094 17.6821 22.548C19.8052 22.2867 18.5844 23.2271 17.8412 22.0254C17.0981 20.8236 19.1684 19.204 20.2301 19.5174C21.2919 19.8307 19.4337 20.928 18.7968 20.3009C18.1599 19.6738 15.4528 18.3156 19.8586 18.1067C24.2644 17.8978 22.9372 19.204 22.035 19.204C21.1328 19.204 18.9564 17.0098 20.3364 16.8005C21.7164 16.5916 23.5212 17.8454 23.4684 18.5769C23.4155 19.3085 21.1328 17.4796 22.3004 16.2778C23.4684 15.076 24.9012 16.2778 25.1137 17.6365C25.3261 18.9951 23.7337 19.256 24.2115 17.7934C24.6892 16.3302 25.4324 15.2334 26.1226 16.5916C26.8128 17.9502 26.919 19.7262 26.547 19.5174C26.1755 19.3085 25.6977 15.3374 27.5555 16.8005C29.4132 18.2636 29.2541 19.4129 28.8826 19.7787C28.511 20.1445 26.4937 15.7556 29.2537 17.6889C32.0141 19.6222 29.1475 21.0849 29.7844 22.2867C30.4212 23.4885 32.3324 22.548 31.8546 20.1445C31.3768 17.7409 30.2088 18.4725 29.519 19.8311C28.8288 21.1898 31.0586 24.7422 31.8546 23.2796C32.0475 22.9254 32.1466 22.5134 32.1768 22.1111C32.2715 20.8516 31.6875 19.6898 31.1644 20.7196C30.4741 22.0782 31.6421 23.1751 32.9692 22.7574C34.2964 22.3396 33.5492 20.8956 32.863 21.5036C32.1768 22.1116 32.0137 22.392 32.5977 23.2276C33.1817 24.0636 33.6061 26.4671 31.8546 25.7876C30.103 25.1085 32.0137 23.4365 33.7124 23.9587C35.411 24.4814 34.827 25.2649 34.3492 26.0485C33.8715 26.832 32.5444 26.9369 32.9159 27.668C33.2875 28.3996 34.1897 29.4445 34.6675 27.9294C35.1452 26.4142 33.4466 25.944 32.1724 26.5707" stroke="#6C5B50" stroke-width="0.0444444" stroke-miterlimit="10"/>
<path d="M19.2214 25.7351C19.2214 25.7351 16.9387 25.108 16.5671 23.6454C16.1956 22.1822 17.5756 22.6525 17.5227 23.5929C17.4698 24.5334 17.1511 25.944 16.1956 25.6827C15.24 25.4214 15.5587 21.5551 16.992 21.1369C18.4254 20.7191 20.1769 22.0774 19.3276 22.4956C18.4782 22.9134 17.7351 21.2418 18.6374 19.9356C19.5396 18.6294 21.2382 19.2565 21.1854 19.8831C21.1325 20.5102 18.9027 18.1067 18.956 17.3751C19.0089 16.6436 19.8054 15.3374 20.5485 16.2258C21.2916 17.1138 23.0965 20.3014 22.0347 19.204C20.9729 18.1067 20.7609 17.2187 21.7694 16.644C22.7778 16.0694 23.468 15.9649 23.468 17.2711C23.468 18.5774 23.1018 19.7245 23.3116 17.6094C23.5214 15.4947 25.1138 14.4498 25.6978 16.1214C26.2818 17.7934 26.388 19.5698 25.9102 18.2111C25.4325 16.8525 28.5645 16.0689 28.2991 16.5916C28.0338 17.1142 26.388 17.5845 26.9191 18.0022C27.4498 18.42 29.8387 17.4276 30.7942 18.2636C31.7498 19.0996 30.0511 18.9427 29.5205 19.8311C28.9898 20.7196 32.3871 19.3609 32.5991 20.3014C32.8116 21.2418 29.9449 21.5031 29.7858 22.2867C29.6267 23.0702 35.572 24.6378 33.5547 25.108C31.5374 25.5782 30.7414 25.1605 30.688 25.3169" stroke="#6C5B50" stroke-width="0.0444444" stroke-miterlimit="10"/>
<path d="M18.6906 24.3769C18.6906 24.3769 16.5675 25.7876 16.7795 26.2058C16.992 26.6236 19.2746 25.5267 18.9026 26.2582C18.5306 26.9898 17.0449 27.46 17.7346 27.6689C18.4249 27.8778 19.4862 27.5644 19.752 27.0942" stroke="#6C5B50" stroke-width="0.0444444" stroke-miterlimit="10"/>
<path d="M20.1774 28.0862C20.1774 28.0862 18.8502 27.5636 18.1071 26.5711C17.364 25.5782 18.3725 23.2796 19.1156 23.0707" stroke="#6C5B50" stroke-width="0.0444444" stroke-miterlimit="10"/>
<path d="M32.1072 24.9982C32.1072 24.9982 34.1157 25.6066 35.2112 24.6329C36.3068 23.6591 33.4464 22.5635 32.4726 22.9289C31.4988 23.2942 32.1681 24.5111 33.629 23.9635C35.0899 23.416 36.0028 22.5026 33.5681 22.1986C31.1335 21.8942 32.5335 22.9897 33.3855 21.5902C34.2375 20.1902 31.8641 18.3035 30.6468 18.6689C29.4295 19.0342 31.5597 20.312 32.2899 19.5817C33.0201 18.8515 36.1241 17.2689 31.0726 17.0257C26.021 16.7822 27.5428 18.304 28.5775 18.304C29.6121 18.304 32.1072 15.748 30.525 15.5044C28.9428 15.2609 26.8735 16.7217 26.9344 17.5737C26.9952 18.4257 29.6121 16.2955 28.2735 14.896C26.9344 13.496 25.2912 14.896 25.0477 16.4782C24.8041 18.0604 26.6299 18.3649 26.0824 16.6609C25.5348 14.9569 24.6824 13.6786 23.8912 15.2609C23.1001 16.8431 22.9784 18.9124 23.4041 18.6693C23.8304 18.4257 24.3779 13.8004 22.2477 15.5044C20.1175 17.2084 20.3001 18.5475 20.7264 18.9733C21.1526 19.3995 23.465 14.2871 20.3001 16.5386C17.1352 18.7906 20.4219 20.4946 19.6917 21.8946C18.9615 23.2946 16.7704 22.1991 17.3179 19.3995C17.8655 16.6 19.2046 17.452 19.9957 19.0342C20.7868 20.6164 18.2308 24.7551 17.3179 23.0511C17.097 22.6386 16.9828 22.1586 16.9481 21.6897C16.8397 20.2222 17.509 18.8693 18.109 20.0689C18.9001 21.6511 17.5615 22.9293 16.0397 22.4426C14.5184 21.9555 15.3748 20.2737 16.1615 20.9817C16.9481 21.6897 17.1352 22.0164 16.4659 22.9902C15.7966 23.964 15.3095 26.7635 17.3179 25.9724C19.3264 25.1813 17.1352 23.2337 15.1877 23.8422C14.7006 23.9942 14.3775 24.1653 14.1748 24.3511" stroke="#6C5B50" stroke-width="0.0444444" stroke-miterlimit="10"/>
<path d="M31.8033 25.9111C31.8033 25.9111 34.4202 25.1809 34.8464 23.4764C35.2727 21.7724 33.69 22.32 33.7509 23.4155C33.8118 24.5111 34.1771 26.1542 35.2722 25.8502C36.3678 25.5458 36.0024 21.0422 34.3593 20.5551C32.7162 20.068 30.7078 21.6507 31.6815 22.1373C32.6553 22.6244 33.5073 20.6764 32.4727 19.1551C31.438 17.6338 29.4904 18.364 29.5513 19.0942C29.6122 19.8244 32.1682 17.0249 32.1073 16.1729C32.0464 15.3209 31.1335 13.7991 30.2815 14.8338C29.4295 15.8684 27.3602 19.5809 28.5775 18.3027C29.7949 17.0244 30.038 15.9898 28.882 15.3204C27.7255 14.6511 26.9344 14.5293 26.9344 16.0507C26.9344 17.572 27.3544 18.9084 27.114 16.4449C26.8735 13.9813 25.0478 12.764 24.3784 14.712C23.7091 16.66 23.5873 18.7289 24.1349 17.1467C24.6824 15.5644 21.0918 14.6516 21.3962 15.26C21.7007 15.8684 23.5873 16.4164 22.9784 16.9031C22.37 17.3902 19.6309 16.2338 18.5353 17.2076C17.4398 18.1813 19.3873 17.9987 19.9962 19.0333C20.6047 20.068 16.7095 18.4858 16.4664 19.5809C16.2229 20.6764 19.5095 20.9809 19.6922 21.8938C19.8749 22.8067 13.0584 24.6324 15.3709 25.1804C17.6838 25.728 18.5967 25.2413 18.6575 25.424" stroke="#6C5B50" stroke-width="0.0444444" stroke-miterlimit="10"/>
<path d="M32.4117 24.3289C32.4117 24.3289 34.8463 25.972 34.6028 26.4591C34.3592 26.9462 31.7423 25.668 32.1681 26.52C32.5943 27.372 34.2983 27.92 33.5072 28.1631C32.7161 28.4066 31.4988 28.0413 31.1943 27.4937" stroke="#6C5B50" stroke-width="0.0444444" stroke-miterlimit="10"/>
<path d="M30.708 28.6498C30.708 28.6498 32.2293 28.0414 33.0818 26.8849C33.9338 25.7285 32.7773 23.0507 31.9253 22.8071" stroke="#6C5B50" stroke-width="0.0444444" stroke-miterlimit="10"/>
<path d="M25.3611 6.96927C25.3611 6.96927 24.0887 6.70616 23.8691 7.80305C23.6496 8.89994 24.0007 10.1728 25.3611 10.1288C26.7216 10.0848 27.5989 10.4359 28.1696 9.86572C28.7402 9.29505 29.0909 7.75949 28.1696 7.18883C27.2482 6.61816 26.1073 6.92572 25.8438 6.92572C25.5802 6.92572 25.3611 6.96927 25.3611 6.96927Z" stroke="#6C5B50" stroke-width="0.0444444" stroke-miterlimit="10"/>
<path d="M24.9688 8.32172L25.8728 8.58749" stroke="#6C5B50" stroke-width="0.0444444" stroke-miterlimit="10"/>
<path d="M25.376 7.71906L26.0675 8.39239" stroke="#6C5B50" stroke-width="0.0444444" stroke-miterlimit="10"/>
<path d="M26.7588 8.67592L27.5388 8.64081" stroke="#6C5B50" stroke-width="0.0444444" stroke-miterlimit="10"/>
<path d="M26.6172 8.46349L27.4327 7.8075" stroke="#6C5B50" stroke-width="0.0444444" stroke-miterlimit="10"/>
<path d="M25.4121 9.42081C25.4121 9.42081 25.7668 9.03103 26.1921 9.06614C26.6174 9.1017 26.8837 9.56259 26.8837 9.56259" stroke="#6C5B50" stroke-width="0.0444444" stroke-miterlimit="10"/>
<path d="M28.3363 7.9137C28.3363 7.9137 28.3185 8.10881 28.1412 8.19725C27.9639 8.2857 27.9639 8.2857 27.9639 8.2857" stroke="#6C5B50" stroke-width="0.0444444" stroke-miterlimit="10"/>
<path d="M28 8.49902C28 8.49902 28.1062 8.3928 28.2307 8.46347C28.3547 8.53458 28.3191 8.65858 28.3191 8.65858" stroke="#6C5B50" stroke-width="0.0444444" stroke-miterlimit="10"/>
<path d="M28.5673 8.56975C28.5673 8.56975 28.5317 8.44574 28.5851 8.37463" stroke="#6C5B50" stroke-width="0.0444444" stroke-miterlimit="10"/>
<path d="M32.259 10.3302C32.259 10.3302 31.827 9.38039 31.0933 9.29373C30.359 9.2075 29.8408 9.89817 29.8408 10.4164C29.8408 10.9346 31.1364 13.5688 31.1364 13.5688V12.7053L31.4817 12.7484L31.6546 11.9279H32.1297L31.8706 10.7622L32.259 10.9351V10.3302Z" stroke="#6C5B50" stroke-width="0.0444444" stroke-miterlimit="10"/>
<path d="M32.6906 10.3733V11.2369L32.3884 11.4529L32.5177 11.9711L31.9564 12.4031L31.8702 13.0075L31.5248 13.1369L31.3955 14.0866C31.3955 14.0866 32 13.5684 32.7773 13.2231C33.5546 12.8777 34.7635 12.1866 34.4613 11.3231C34.1586 10.4595 33.252 10.1142 32.6906 10.3733Z" stroke="#6C5B50" stroke-width="0.0444444" stroke-miterlimit="10"/>
<path d="M31.0791 14.2124C31.0791 14.2124 30.9626 14.3871 31.0502 14.4017C31.1373 14.4164 31.3266 14.46 31.3413 14.4017C31.356 14.3435 31.3702 14.2706 31.3266 14.2124C31.2831 14.1542 31.2102 14.0813 31.2102 14.0813L31.0791 14.2124Z" stroke="#6C5B50" stroke-width="0.0444444" stroke-miterlimit="10"/>
<path d="M30.8607 13.7426C30.8607 13.7426 30.8873 13.6142 30.8331 13.6262C30.7789 13.6382 30.6593 13.6573 30.6642 13.6942C30.6695 13.7315 30.678 13.7768 30.7171 13.8004C30.7562 13.8239 30.8153 13.8493 30.8153 13.8493L30.8607 13.7426Z" stroke="#6C5B50" stroke-width="0.0444444" stroke-miterlimit="10"/>
<path d="M30.804 14.2609C30.804 14.2609 30.8307 14.1324 30.7765 14.1444C30.7222 14.1564 30.6027 14.1755 30.6076 14.2124C30.6129 14.2497 30.6213 14.2951 30.6605 14.3186C30.6996 14.3422 30.7587 14.3675 30.7587 14.3675L30.804 14.2609Z" stroke="#6C5B50" stroke-width="0.0444444" stroke-miterlimit="10"/>
<path d="M18.6046 13.4391C18.6046 13.4391 18.1948 13.7462 16.5051 14.3609C14.8148 14.9755 14.3028 15.4875 14.2517 15.8973C14.2006 16.3071 14.1495 16.6142 13.9957 17.1267C13.842 17.6391 13.2788 17.7413 13.6886 18.2022C14.0984 18.6631 14.6615 19.1751 15.2762 19.1751C15.8908 19.1751 16.7615 19.2773 16.8637 18.6631C16.966 18.0484 16.8126 17.1778 17.0686 16.8707C17.3246 16.5635 17.4273 16.8195 17.9904 16.4098C18.554 16 19.1682 15.744 19.1682 15.744L19.6802 15.232L20.4997 15.488L20.1411 14.5662C20.1411 14.5662 20.2433 14.5662 20.3971 14.2075C20.5508 13.8489 20.6531 13.5929 20.2948 13.3369C19.9362 13.0809 19.9362 12.9782 19.6291 12.9271C19.3215 12.8755 18.6046 13.4391 18.6046 13.4391Z" stroke="#6C5B50" stroke-width="0.0444444" stroke-miterlimit="10"/>
<path d="M18.6046 14.2071C18.5024 14.3609 17.9388 14.7191 17.9388 14.7191C17.9388 14.7191 17.4779 15.18 17.2219 15.3338C16.9659 15.4875 16.2491 15.6409 15.8904 16.1533C15.5317 16.6653 15.2246 17.536 15.2246 17.536" stroke="#6C5B50" stroke-width="0.0444444" stroke-miterlimit="10"/>
<path d="M15.8389 17.9458C15.8389 17.9458 16.146 17.0751 16.2998 16.8191C16.4535 16.5631 17.2215 16.1533 17.2215 16.1533L17.7851 15.6413L18.9118 14.6685" stroke="#6C5B50" stroke-width="0.0444444" stroke-miterlimit="10"/>
<path d="M18.7221 7.58092C18.7221 7.58092 18.771 7.72181 17.6985 7.95692C16.6265 8.19159 15.3105 8.0507 15.1159 8.52048C14.9208 8.99026 15.311 9.5067 14.3848 9.8827C13.459 10.2587 12.8252 10.3996 12.7279 10.7751C12.6305 11.1511 13.2639 11.5738 13.459 12.0903C13.6541 12.6071 13.459 13.4054 14.1901 13.7343C14.9212 14.0631 15.311 13.2645 15.9932 13.0298C16.6754 12.7951 16.8705 12.9827 17.699 12.56C18.5274 12.1374 18.8199 11.7614 19.1608 11.4325C19.5021 11.1036 19.7457 11.0565 19.9892 11.1036C20.2328 11.1507 20.9639 10.9627 20.9639 10.9627L21.7541 11.5858C21.8377 11.652 21.9608 11.5778 21.9354 11.4765C21.8745 11.2338 21.8274 10.9285 21.9385 10.8218C22.1337 10.6338 22.4745 10.54 22.5719 10.3049C22.6692 10.0703 22.3283 9.69426 22.0354 8.8947C21.7977 8.24537 21.8345 7.14048 20.9545 6.88492C20.2772 6.68803 19.1528 7.06981 18.7221 7.58092Z" stroke="#6C5B50" stroke-width="0.0444444" stroke-miterlimit="10"/>
<path d="M14.6797 11.1289C14.6797 11.1289 15.2384 11.0422 15.5175 10.6529C15.7966 10.2635 15.657 9.91732 16.0295 9.74443C16.4019 9.57154 17.0535 9.65777 17.3797 9.52799C17.7055 9.39821 18.3108 9.18177 18.3108 9.18177L18.9624 8.66266L19.2881 8.57599" stroke="#6C5B50" stroke-width="0.0444444" stroke-miterlimit="10"/>
<path d="M14.9121 11.8644C14.9121 11.8644 15.8432 11.3884 16.0294 11.0427C16.2157 10.6964 16.681 10.3071 17.1468 10.264C17.6121 10.2209 18.497 9.96133 18.6832 9.74488C18.8694 9.52844 19.1486 9.31244 19.3814 9.31244" stroke="#6C5B50" stroke-width="0.0444444" stroke-miterlimit="10"/>
<path d="M15.1455 12.5565C15.1455 12.5565 16.3095 11.9943 16.4491 11.7347C16.5886 11.4751 16.9144 10.7831 17.6131 10.6965C18.3113 10.6098 18.9633 10.5667 19.382 10.3071C19.8011 10.0476 20.2197 9.87469 20.2197 9.87469" stroke="#6C5B50" stroke-width="0.0444444" stroke-miterlimit="10"/>
<path d="M9.69318 14.2582L10.7176 14.7706L11.0759 14.0533L12.1003 15.0777L12.2541 14.3608L13.3292 16.1017L12.2025 15.4875L11.9465 16.0506L11.0759 15.3337L10.7687 15.7435L9.33496 14.9751L9.69318 14.2582Z" stroke="#6C5B50" stroke-width="0.0444444" stroke-miterlimit="10"/>
<path d="M23.5208 4.27155L23.111 5.24488L22.6502 4.98888L22.5479 6.01288L21.9844 5.91066L22.4968 7.24221L22.9062 6.57643L23.3675 6.62755L23.6746 5.70577L24.0844 5.85955L24.6986 4.73243L23.5208 4.27155Z" stroke="#6C5B50" stroke-width="0.0444444" stroke-miterlimit="10"/>
<path d="M33.0865 16.3178C33.0865 16.3178 33.2434 15.3498 33.9105 15.2804C34.5776 15.2111 35.3625 16.0755 35.1661 16.5595C34.9701 17.0435 34.4207 17.4586 34.4207 17.4586L34.2638 18.1155H33.5967C33.5967 18.1155 33.5576 17.3551 33.7927 17.2164C34.0283 17.0782 34.5776 16.9053 34.4598 16.3866C34.3421 15.868 34.0283 15.6951 33.7927 15.972C33.5572 16.2484 33.6358 16.6289 33.2825 16.6635C32.9296 16.6982 33.0865 16.3178 33.0865 16.3178Z" stroke="#6C5B50" stroke-width="0.0444444" stroke-miterlimit="10"/>
<path d="M34.0279 18.3924C34.0279 18.3924 33.4785 18.3231 33.4785 18.6347C33.4785 18.9458 33.6354 19.4298 33.7532 19.4298C33.871 19.4298 34.2239 19.4644 34.3025 19.1876C34.3812 18.9111 34.3416 18.8418 34.3416 18.6689C34.3416 18.496 34.0279 18.3924 34.0279 18.3924Z" stroke="#6C5B50" stroke-width="0.0444444" stroke-miterlimit="10"/>
<path d="M9.71444 9.65021C9.71444 9.65021 9.87133 8.68221 10.5384 8.61288C11.2056 8.54355 11.9904 9.40799 11.794 9.89199C11.598 10.376 11.0487 10.7911 11.0487 10.7911L10.8918 11.448H10.2247C10.2247 11.448 10.1856 10.6875 10.4207 10.5489C10.6562 10.4107 11.2056 10.2378 11.0878 9.7191C10.97 9.20043 10.6562 9.02755 10.4207 9.30443C10.1851 9.58088 10.2638 9.96132 9.91044 9.99599C9.55755 10.0302 9.71444 9.65021 9.71444 9.65021Z" stroke="#6C5B50" stroke-width="0.0444444" stroke-miterlimit="10"/>
<path d="M10.6558 11.7244C10.6558 11.7244 10.1064 11.6551 10.1064 11.9666C10.1064 12.2777 10.2633 12.7617 10.3811 12.7617C10.4989 12.7617 10.8518 12.7964 10.9304 12.5195C11.0091 12.2431 10.9696 12.1737 10.9696 12.0009C10.9696 11.828 10.6558 11.7244 10.6558 11.7244Z" stroke="#6C5B50" stroke-width="0.0444444" stroke-miterlimit="10"/>
<path d="M12.4312 20.4031C12.4312 20.4031 12.5881 19.4351 13.2552 19.3658C13.9224 19.2965 14.7072 20.1609 14.5108 20.6449C14.3148 21.1289 13.7655 21.544 13.7655 21.544L13.6086 22.2009H12.9415C12.9415 22.2009 12.9023 21.4405 13.1375 21.3018C13.373 21.1636 13.9224 20.9907 13.8046 20.472C13.6868 19.9534 13.373 19.7805 13.1375 20.0574C12.9019 20.3338 12.9806 20.7143 12.6272 20.7489C12.2744 20.7836 12.4312 20.4031 12.4312 20.4031Z" stroke="#6C5B50" stroke-width="0.0444444" stroke-miterlimit="10"/>
<path d="M13.3726 22.4778C13.3726 22.4778 12.8232 22.4085 12.8232 22.7201C12.8232 23.0316 12.9801 23.5152 13.0979 23.5152C13.2157 23.5152 13.5686 23.5498 13.6472 23.2729C13.7259 22.9965 13.6864 22.9272 13.6864 22.7543C13.6864 22.5814 13.3726 22.4778 13.3726 22.4778Z" stroke="#6C5B50" stroke-width="0.0444444" stroke-miterlimit="10"/>
<path d="M30.1793 5.44403C30.1793 5.44403 30.2788 4.83025 30.7019 4.78625C31.1251 4.74225 31.6228 5.29069 31.4984 5.59736C31.3739 5.90447 31.0255 6.16758 31.0255 6.16758L30.9259 6.58403H30.5028C30.5028 6.58403 30.4779 6.1018 30.6273 6.0138C30.7766 5.92625 31.1251 5.81647 31.0504 5.48758C30.9757 5.15869 30.7766 5.04891 30.6273 5.22447C30.4779 5.40003 30.5277 5.64091 30.3037 5.66314C30.0797 5.68536 30.1793 5.44403 30.1793 5.44403Z" stroke="#6C5B50" stroke-width="0.0444444" stroke-miterlimit="10"/>
<path d="M30.7762 6.76004C30.7762 6.76004 30.4277 6.71604 30.4277 6.91338C30.4277 7.11071 30.5273 7.41782 30.602 7.41782C30.6766 7.41782 30.9006 7.4396 30.9504 7.26449C31.0002 7.08893 30.9753 7.04538 30.9753 6.9356C30.9753 6.82582 30.7762 6.76004 30.7762 6.76004Z" stroke="#6C5B50" stroke-width="0.0444444" stroke-miterlimit="10"/>
<path d="M23.0269 11.2524C23.0269 11.2524 23.1265 10.6387 23.5496 10.5947C23.9727 10.5507 24.4705 11.0991 24.346 11.4058C24.2216 11.7129 23.8732 11.976 23.8732 11.976L23.7736 12.3924H23.3505C23.3505 12.3924 23.3256 11.9102 23.4749 11.8222C23.6243 11.7347 23.9727 11.6249 23.898 11.296C23.8234 10.9671 23.6243 10.8573 23.4749 11.0329C23.3256 11.2084 23.3754 11.4493 23.1514 11.4715C22.9274 11.4938 23.0269 11.2524 23.0269 11.2524Z" stroke="#6C5B50" stroke-width="0.0444444" stroke-miterlimit="10"/>
<path d="M23.6238 12.5685C23.6238 12.5685 23.2754 12.5245 23.2754 12.7218C23.2754 12.9191 23.3749 13.2262 23.4496 13.2262C23.5243 13.2262 23.7483 13.248 23.7981 13.0729C23.8478 12.8973 23.8229 12.8538 23.8229 12.744C23.8229 12.6342 23.6238 12.5685 23.6238 12.5685Z" stroke="#6C5B50" stroke-width="0.0444444" stroke-miterlimit="10"/>
<path d="M34.7291 7.6173C34.7291 7.6173 34.8286 7.00353 35.2517 6.95953C35.6749 6.91553 36.1726 7.46397 36.0482 7.77064C35.9237 8.07775 35.5753 8.34086 35.5753 8.34086L35.4757 8.7573H35.0526C35.0526 8.7573 35.0277 8.27508 35.1771 8.18708C35.3264 8.09953 35.6749 7.98975 35.6002 7.66086C35.5255 7.33197 35.3264 7.22219 35.1771 7.39775C35.0277 7.5733 35.0775 7.81419 34.8535 7.83642C34.6295 7.85819 34.7291 7.6173 34.7291 7.6173Z" stroke="#6C5B50" stroke-width="0.0444444" stroke-miterlimit="10"/>
<path d="M35.326 8.93284C35.326 8.93284 34.9775 8.88883 34.9775 9.08617C34.9775 9.2835 35.0771 9.59061 35.1518 9.59061C35.2264 9.59061 35.4504 9.61239 35.5002 9.43728C35.55 9.26172 35.5251 9.21817 35.5251 9.10839C35.5251 8.99861 35.326 8.93284 35.326 8.93284Z" stroke="#6C5B50" stroke-width="0.0444444" stroke-miterlimit="10"/>
<path d="M33.9596 9.51331C36.373 11.5035 35.5223 14.6142 32.7396 15.0778C29.6668 15.5898 29.9272 12.6413 26.8503 12.5173C23.773 12.3933 25.1601 13.388 26.9014 13.9C28.6428 14.412 28.0792 15.5386 25.365 14.3609C22.6508 13.1831 21.6774 12.4658 20.0388 12.5684C18.4001 12.6706 13.2272 14.668 13.3299 16.1022C13.4321 17.536 12.7152 18.8675 13.5348 19.5849C14.3543 20.3018 16.8636 21.736 17.4783 19.6871C18.093 17.6386 20.0388 16.3071 20.5001 16.2044" stroke="#6C5B50" stroke-width="0.0444444" stroke-miterlimit="10"/>
<path d="M18.5049 6.63685C19.0564 6.39996 19.5418 6.20885 19.8849 6.11507C21.5751 5.65419 22.4453 7.34441 23.1627 8.88041C23.8795 10.4169 25.672 11.9022 27.3111 11.0315C28.9498 10.1609 29.6671 7.03685 33.0982 8.93196C33.4218 9.11063 33.7084 9.30574 33.96 9.51285" stroke="#6C5B50" stroke-width="0.0444444" stroke-miterlimit="10"/>
<path d="M19.0655 5.8595C19.0655 5.8595 13.893 7.54972 13.4832 8.4715C13.1566 9.20616 16.3419 7.56705 18.5046 6.63727" stroke="#6C5B50" stroke-width="0.0444444" stroke-miterlimit="10"/>
<path d="M8.14258 15.648C9.01902 16.0538 10.7688 15.9356 11.9981 16.6653C13.6368 17.6382 11.4861 18.8676 11.947 19.892C12.4079 20.9164 15.2248 21.4796 16.6075 21.1213C17.9901 20.7627 18.8608 19.6876 19.5777 18.1511C20.2946 16.6147 21.5239 15.2831 22.087 15.1293C22.6506 14.9756 28.591 16.3587 29.5644 16.7169C30.5372 17.0756 30.691 17.6387 31.8177 18.3556C32.9444 19.0724 32.7906 17.9458 32.5346 17.28C32.2786 16.6142 31.1008 16.6653 30.0764 15.6924C29.0519 14.7196 28.079 13.6951 28.3861 14.5147C28.6932 15.3342 29.2568 16.1533 27.8226 15.744C26.3888 15.3342 24.103 14.2742 23.847 14.2742C23.847 14.2742 22.1195 13.3711 21.5306 13.7244C20.9417 14.0778 21.5697 14.1564 23.4546 14.7453C25.339 15.3342 25.339 15.3342 25.339 15.3342" stroke="#6C5B50" stroke-width="0.0444444" stroke-miterlimit="10"/>
<path d="M17.7755 4.21594C14.6662 5.14439 12.9524 6.46305 13.2782 6.42261C13.688 6.3715 15.8902 5.70572 17.836 4.98883C19.7822 4.27194 21.5235 4.73283 19.6795 5.09105C17.8355 5.44928 13.7902 6.98572 12.9706 7.49816C12.1511 8.01016 13.1244 8.77861 13.1755 9.34172C13.2266 9.90528 12.4075 10.1613 11.9977 10.7244C11.588 11.2879 12.5613 13.4897 12.0488 13.6946C11.5368 13.8995 7.74707 13.8995 7.28618 14.9239C7.17107 15.1799 7.30529 15.3559 7.59729 15.4915" stroke="#6C5B50" stroke-width="0.0444444" stroke-miterlimit="10"/>
<path d="M27.2852 6.24486C26.6549 6.14308 25.9589 5.91553 25.3132 5.60308C23.7256 4.83508 28.2834 5.19331 28.6421 4.93731C29.0007 4.68131 25.2109 2.83775 20.4478 3.60575C19.4714 3.76308 18.5772 3.97686 17.7754 4.21597" stroke="#6C5B50" stroke-width="0.0444444" stroke-miterlimit="10"/>
<path d="M34.122 6.47374C34.122 6.47374 33.9683 5.4493 32.1758 4.73241C30.3834 4.01552 29.7176 4.88618 29.2567 5.75685C28.9834 6.27329 28.2047 6.39329 27.2852 6.24485" stroke="#6C5B50" stroke-width="0.0444444" stroke-miterlimit="10"/>
<path d="M37.6475 13.8218C37.4502 14.7911 37.0564 15.3631 36.6311 15.5898C35.8631 15.9996 35.4533 16.3578 35.8115 16.7676C36.1702 17.1773 36.7333 16.8187 36.7844 17.5356C36.8355 18.2524 36.4773 19.6351 34.9409 20.2498C33.4044 20.8644 32.3804 20.5569 31.6631 19.5329" stroke="#6C5B50" stroke-width="0.0444444" stroke-miterlimit="10"/>
<path d="M32.8419 6.93467C32.8419 6.93467 33.9685 7.85645 33.6614 7.08845C33.3543 6.32045 32.7396 5.75689 32.1761 6.37156C31.6125 6.98623 32.2783 7.80534 33.149 7.95911C34.0196 8.11289 35.505 7.95911 36.3752 10.6733C37.2459 13.3876 35.2996 13.5924 35.1459 14.3093C34.9921 15.0262 36.9894 14.668 37.0921 12.9267C37.1943 11.1853 36.0165 9.64889 36.0676 8.88089C36.1187 8.11289 37.2454 7.70311 37.6552 10.6733C37.8383 11.9996 37.8067 13.04 37.6472 13.8218" stroke="#6C5B50" stroke-width="0.0444444" stroke-miterlimit="10"/>
</g>
<g opacity="0.64">
<path d="M4.76367 32.4546C4.76367 32.4546 7.21167 31.939 7.40501 31.4884C7.59834 31.0372 7.27612 29.6844 8.17789 29.427C9.07967 29.1692 10.6903 29.7492 11.077 29.6204C11.4637 29.4915 12.1721 27.9452 12.5588 27.7519C12.8063 27.6284 13.741 27.663 14.381 27.7039" stroke="#352824" stroke-width="0.0888889" stroke-linecap="round" stroke-linejoin="round"/>
<path d="M15.0072 27.7519L14.0996 28.0497L14.3343 27.7043L14.1507 27.3288L15.0072 27.7519Z" fill="#352824"/>
<path d="M7.4043 37.4795C7.4043 37.4795 9.27274 37.2862 9.53007 36.7711C9.78785 36.2555 9.2723 35.4826 9.98119 34.6453C10.6896 33.8079 11.3985 34.7742 12.107 34.4519C12.8154 34.1297 13.331 33.4213 13.5243 33.2924C13.7176 33.1635 13.9754 33.3568 14.2327 33.1635C14.4905 32.9702 15.199 32.0684 15.3923 31.8106C15.4452 31.7399 15.5274 31.6693 15.6185 31.6039" stroke="#352824" stroke-width="0.0888889" stroke-linecap="round" stroke-linejoin="round"/>
<path d="M16.1655 31.295L15.5851 32.0537L15.5837 31.6359L15.2197 31.4302L16.1655 31.295Z" fill="#352824"/>
<path d="M41.999 34.1297C41.999 34.1297 40.1306 34.0653 39.6154 33.7431C39.0999 33.4208 38.907 32.5835 38.4559 32.3902C38.0048 32.1968 36.3946 31.9391 36.3946 31.9391C36.3946 31.9391 36.0079 31.8746 35.4283 31.2951C34.8483 30.7151 35.2994 30.9084 34.8483 30.7151C34.6843 30.6448 34.4861 30.5831 34.3008 30.5328" stroke="#342E24" stroke-width="0.0888889" stroke-linecap="round" stroke-linejoin="round"/>
<path d="M33.6885 30.3933L34.6325 30.2457L34.3449 30.5488L34.4658 30.9488L33.6885 30.3933Z" fill="#342E24"/>
<path d="M43.8021 29.1692C43.8021 29.1692 42.8359 29.2981 42.2559 29.2981C41.6759 29.2981 40.1301 28.9114 40.1301 28.9114L38.9705 28.4603C38.9705 28.4603 37.7465 28.5892 37.3599 28.5892C36.9732 28.5892 36.007 28.6537 36.007 28.6537L35.667 28.6763" stroke="#342E24" stroke-width="0.0888889" stroke-linecap="round" stroke-linejoin="round"/>
<path d="M35.04 28.7181L35.8987 28.299L35.7129 28.6732L35.9467 29.0199L35.04 28.7181Z" fill="#342E24"/>
<path d="M38.0685 41.0871C38.0685 41.0871 37.1667 39.7343 36.6512 39.412C36.1356 39.0898 35.1049 38.188 35.1049 38.188L34.8472 36.6418L33.9561 35.496" stroke="#342E24" stroke-width="0.0888889" stroke-linecap="round" stroke-linejoin="round"/>
<path d="M33.7514 34.9027L34.4061 35.5987L33.9937 35.5325L33.7314 35.8578L33.7514 34.9027Z" fill="#342E24"/>
<path d="M12.6865 39.9275C12.6865 39.9275 13.2021 38.8324 13.4594 38.3813C13.7172 37.9302 13.7816 37.6728 14.1034 37.0284C14.4256 36.3844 15.1341 35.8688 15.1341 35.8688C15.1341 35.8688 15.1754 35.7999 15.2452 35.6879" stroke="#352824" stroke-width="0.0888889" stroke-linecap="round" stroke-linejoin="round"/>
<path d="M15.585 35.1604L15.4122 36.1L15.221 35.7284L14.8037 35.7102L15.585 35.1604Z" fill="#352824"/>
</g>
<path d="M17.8213 45.3564C17.8213 45.3564 17.6462 46.1364 17.8373 46.2956C18.0285 46.4547 19.2702 46.98 23.1071 47.1711C26.944 47.3622 30.208 46.3751 30.4467 46.1204C30.6853 45.8658 30.4787 44.7036 30.4787 44.7036C30.4787 44.7036 28.5525 45.8338 26.3551 46.0884C24.1582 46.3431 20.9422 46.0409 19.7 45.6902C18.4582 45.34 17.9009 45.1809 17.9009 45.1809L17.8213 45.3564Z" fill="#3F342F" stroke="#5D463B" stroke-width="0.0444444" stroke-miterlimit="10"/>
<path d="M23.1173 29.208C23.1173 29.208 20.0462 29.2675 19.8079 29.4764C19.5693 29.6853 18.5555 41.3729 18.2875 42.5058C18.019 43.6387 17.3035 45.0698 17.5719 45.4573C17.8404 45.8449 22.1635 46.6498 24.6977 46.6498C27.2319 46.6498 29.8257 45.636 30.3328 45.0698C30.8395 44.5031 30.5715 43.7578 30.4817 43.4C30.3924 43.0422 29.915 40.5973 29.9448 40.508C29.9746 40.4187 30.8395 37.4667 30.8395 37.4667C30.8395 37.4667 32.9862 32.6364 32.6879 32.1298C32.3897 31.6231 29.3786 29.9831 29.3786 29.9831L23.8928 29.1187L23.1173 29.208Z" fill="#5D463B"/>
<path d="M18.2871 42.5053C18.2871 42.5053 19.1769 42.3285 19.9182 42.3667C20.6596 42.4049 21.1916 42.5569 21.1916 42.5569C21.1916 42.5569 20.3551 41.5685 19.8991 41.4925C19.4431 41.4165 18.4738 41.7587 18.4738 41.7587L18.2871 42.5053Z" fill="#3F342F" stroke="#5D463B" stroke-width="0.0444444" stroke-miterlimit="10"/>
<path d="M25.6274 30.9022C27.0958 30.9022 28.2861 30.0482 28.2861 28.9947C28.2861 27.9411 27.0958 27.0871 25.6274 27.0871C24.1591 27.0871 22.9688 27.9411 22.9688 28.9947C22.9688 30.0482 24.1591 30.9022 25.6274 30.9022Z" fill="#D9AFA2"/>
<path d="M24.8604 35.7097C25.0061 35.6057 25.1457 35.52 25.2755 35.4582Z" fill="#5D463B"/>
<path d="M24.8604 35.7097C25.0061 35.6057 25.1457 35.52 25.2755 35.4582" stroke="#251C14" stroke-width="0.0444444" stroke-miterlimit="10"/>
<path d="M22.5449 38.0253C22.5449 38.0253 23.5916 36.7422 24.5436 35.9551Z" fill="#5D463B"/>
<path d="M22.5449 38.0253C22.5449 38.0253 23.5916 36.7422 24.5436 35.9551" stroke="#251C14" stroke-width="0.0444444" stroke-miterlimit="10"/>
<path d="M23.7736 35.8133C23.7736 35.8133 22.8999 36.9329 22.6816 37.3422Z" fill="#5D463B"/>
<path d="M23.7736 35.8133C23.7736 35.8133 22.8999 36.9329 22.6816 37.3422" stroke="#251C14" stroke-width="0.0444444" stroke-miterlimit="10"/>
<path d="M24.0234 32.5102C24.0781 32.5831 24.1314 32.6471 24.1821 32.7009Z" fill="#5D463B"/>
<path d="M24.0234 32.5102C24.0781 32.5831 24.1314 32.6471 24.1821 32.7009" stroke="#251C14" stroke-width="0.0444444" stroke-miterlimit="10"/>
<path d="M22.8174 30.2982C22.8174 30.2982 23.3947 31.5879 23.9032 32.3408Z" fill="#5D463B"/>
<path d="M22.8174 30.2982C22.8174 30.2982 23.3947 31.5879 23.9032 32.3408" stroke="#251C14" stroke-width="0.0444444" stroke-miterlimit="10"/>
<path d="M22.5176 30.1888C22.5176 30.1888 23.0362 31.8546 23.2549 32.1822Z" fill="#5D463B"/>
<path d="M22.5176 30.1888C22.5176 30.1888 23.0362 31.8546 23.2549 32.1822" stroke="#251C14" stroke-width="0.0444444" stroke-miterlimit="10"/>
<path d="M21.6855 35.3933C21.7118 35.5546 21.7389 35.6924 21.7669 35.7964Z" fill="#5D463B"/>
<path d="M21.6855 35.3933C21.7118 35.5546 21.7389 35.6924 21.7669 35.7964" stroke="#251C14" stroke-width="0.0444444" stroke-miterlimit="10"/>
<path d="M21.3623 31.9666C21.3623 31.9666 21.4863 34.0044 21.6547 35.1857Z" fill="#5D463B"/>
<path d="M21.3623 31.9666C21.3623 31.9666 21.4863 34.0044 21.6547 35.1857" stroke="#251C14" stroke-width="0.0444444" stroke-miterlimit="10"/>
<path d="M19.668 45.2733C20.1346 45.6173 21.0106 46.1884 21.9697 46.4351Z" fill="#5D463B"/>
<path d="M19.668 45.2733C20.1346 45.6173 21.0106 46.1884 21.9697 46.4351" stroke="#251C14" stroke-width="0.0444444" stroke-miterlimit="10"/>
<path d="M19.3154 44.996C19.3154 44.996 19.3919 45.0626 19.5288 45.168Z" fill="#5D463B"/>
<path d="M19.3154 44.996C19.3154 44.996 19.3919 45.0626 19.5288 45.168" stroke="#251C14" stroke-width="0.0444444" stroke-miterlimit="10"/>
<path d="M17.5628 40.4516C17.5628 40.4516 17.3286 41.1107 17.2406 41.3014C17.1526 41.4916 17.2113 41.7263 17.3286 41.829C17.4459 41.9316 17.6802 42.1805 17.9144 42.2245C18.1486 42.2685 18.2219 42.2098 18.2513 42.1072C18.2806 42.0045 18.2806 42.0045 18.2806 42.0045C18.2806 42.0045 18.7495 42.2094 19.0717 42.1805C19.3939 42.1516 19.7015 41.9463 19.7015 41.9463L20.1851 42.0049L20.6833 40.6721C20.6833 40.6721 19.9508 40.4378 19.6726 40.3498C19.3944 40.2618 18.2224 39.9543 17.9002 40.0276C17.5775 40.1001 17.5628 40.4516 17.5628 40.4516Z" fill="#F9DACE"/>
<path d="M18.2801 42.0041L17.7236 41.8725" stroke="#D0B39D" stroke-width="0.0444444" stroke-miterlimit="10"/>
<path d="M20.5782 40.7009C20.5782 40.7009 20.0049 41.4383 19.9773 41.7929C19.9502 42.148 20.2502 42.1752 20.496 42.2569C20.7417 42.3387 21.8475 40.6187 21.7662 40.5983C21.6857 40.5787 20.8893 40.3778 20.5782 40.7009Z" fill="#2C1E1A"/>
<path d="M29.4246 33.3836C29.4246 33.3836 27.3224 37.3974 26.9397 38.3805C26.5575 39.3636 26.4757 39.6636 26.4757 39.6636L26.3393 40.4827C26.3393 40.4827 21.7522 40.4556 21.4246 40.5645C21.097 40.6738 19.9228 41.7934 20.4962 42.2574C21.0695 42.7214 22.8988 43.1312 24.8375 43.6498C26.7762 44.1685 28.1957 44.3325 28.5237 43.7592C28.8513 43.1858 31.7455 37.6974 32.2917 35.8409C32.8379 33.984 34.0393 32.7009 33.3566 31.636C32.6739 30.5712 30.0802 30.4894 29.725 30.544" fill="#5D463B"/>
<path d="M29.4246 33.3836C29.4246 33.3836 27.3224 37.3974 26.9397 38.3805C26.5575 39.3636 26.4757 39.6636 26.4757 39.6636L26.3393 40.4827C26.3393 40.4827 21.7522 40.4556 21.4246 40.5645C21.097 40.6738 19.9228 41.7934 20.4962 42.2574C21.0695 42.7214 22.8988 43.1312 24.8375 43.6498C26.7762 44.1685 28.1957 44.3325 28.5237 43.7592C28.8513 43.1858 31.7455 37.6974 32.2917 35.8409C32.8379 33.984 34.0393 32.7009 33.3566 31.636C32.6739 30.5712 30.0802 30.4894 29.725 30.544" stroke="#251C14" stroke-width="0.0444444" stroke-miterlimit="10"/>
<path d="M31.9525 35.3223C31.3005 35.8538 30.1809 36.7116 29.3818 37.0396Z" fill="#5D463B"/>
<path d="M31.9525 35.3223C31.3005 35.8538 30.1809 36.7116 29.3818 37.0396" stroke="#251C14" stroke-width="0.0444444" stroke-miterlimit="10"/>
<path d="M32.5186 34.8436C32.5186 34.8436 32.3911 34.953 32.1826 35.1241Z" fill="#5D463B"/>
<path d="M32.5186 34.8436C32.5186 34.8436 32.3911 34.953 32.1826 35.1241" stroke="#251C14" stroke-width="0.0444444" stroke-miterlimit="10"/>
<path d="M30.4937 36.6974C30.4937 36.6974 29.6382 37.1254 29.0391 37.3534Z" fill="#5D463B"/>
<path d="M30.4937 36.6974C30.4937 36.6974 29.6382 37.1254 29.0391 37.3534" stroke="#251C14" stroke-width="0.0444444" stroke-miterlimit="10"/>
<path d="M26.2588 42.8178C26.3188 42.9103 26.3815 42.9898 26.4477 43.0507Z" fill="#5D463B"/>
<path d="M26.2588 42.8178C26.3188 42.9103 26.3815 42.9898 26.4477 43.0507" stroke="#251C14" stroke-width="0.0444444" stroke-miterlimit="10"/>
<path d="M25.5762 40.8827C25.5762 40.8827 25.7628 41.7934 26.0713 42.4685Z" fill="#5D463B"/>
<path d="M25.5762 40.8827C25.5762 40.8827 25.7628 41.7934 26.0713 42.4685" stroke="#251C14" stroke-width="0.0444444" stroke-miterlimit="10"/>
<path d="M24.9072 41.2471C24.9072 41.2471 24.9277 42.2805 25.029 42.5236Z" fill="#5D463B"/>
<path d="M24.9072 41.2471C24.9072 41.2471 24.9277 42.2805 25.029 42.5236" stroke="#251C14" stroke-width="0.0444444" stroke-miterlimit="10"/>
<path d="M26.6934 41.0169L29.404 42.136L29.7191 41.6987L26.6934 41.0169Z" fill="#3F342F" stroke="#5D463B" stroke-width="0.0444444" stroke-miterlimit="10"/>
<path d="M26.3142 39.1404C26.3142 39.1404 27.9138 38.9404 28.1133 38.7404C28.3133 38.5404 28.9129 37.9951 29.0947 37.9591C29.2764 37.9227 30.1307 38.1227 30.3307 38.1227C30.5307 38.1227 30.8213 37.7591 31.0395 37.7773C31.2578 37.7956 31.3667 38.068 31.2942 38.2862C31.2213 38.5044 30.8035 38.7404 30.7124 38.7587C30.6218 38.7769 30.476 38.8316 30.476 38.8316C30.476 38.8316 31.2395 38.9769 31.4755 39.068C31.712 39.1587 31.712 39.3769 31.6209 39.5951C31.5302 39.8133 31.4391 39.9404 31.3302 40.0133C31.2213 40.0862 30.9849 40.3951 30.9849 40.3951C30.9849 40.3951 31.0755 40.704 30.9302 40.904C30.7849 41.104 30.6755 41.2129 30.6031 41.2676C30.5302 41.3222 30.6898 41.3524 30.5311 41.5418C30.42 41.6742 30.4058 41.7276 29.876 41.8124C29.7058 41.84 29.0035 41.7036 28.5129 41.54C28.0222 41.3764 27.168 41.1764 27.168 41.1764L26.0049 40.904L26.3142 39.1404Z" fill="#F9DACE"/>
<path d="M31.1121 39.5547C31.1121 39.5547 31.1295 39.9582 31.0246 40.0987C30.9192 40.2391 30.7615 40.3267 30.7615 40.3267C30.7615 40.3267 30.8143 40.5374 30.7263 40.7302C30.6388 40.9231 30.6388 40.9231 30.6388 40.9231C30.6388 40.9231 30.4957 41.0951 30.549 41.2098" stroke="#D0B39D" stroke-width="0.0444444" stroke-miterlimit="10"/>
<path d="M25.2051 38.9276L26.338 39.1067L26.01 40.8956L25.3242 40.7462L25.2051 38.9276Z" fill="#2C1E1A"/>
<path d="M21.2394 29.4467C21.2394 29.4467 19.7487 28.7311 18.7945 29.0889C17.8403 29.4467 17.7807 31.4742 17.7509 31.7422C17.7212 32.0107 16.6776 38.7787 16.5585 39.8818C16.4394 40.9849 22.1043 41.5218 23.386 41.492C24.6683 41.4622 25.2345 41.0747 25.3238 40.7467C25.4132 40.4187 25.8607 39.0471 25.5625 38.8684C25.2643 38.6893 19.9274 37.5564 19.9274 37.5564L19.6292 37.1987C19.6292 37.1987 20.2852 33.2631 20.4043 32.6369" fill="#5D463B"/>
<path d="M21.2394 29.4467C21.2394 29.4467 19.7487 28.7311 18.7945 29.0889C17.8403 29.4467 17.7807 31.4742 17.7509 31.7422C17.7212 32.0107 16.6776 38.7787 16.5585 39.8818C16.4394 40.9849 22.1043 41.5218 23.386 41.492C24.6683 41.4622 25.2345 41.0747 25.3238 40.7467C25.4132 40.4187 25.8607 39.0471 25.5625 38.8684C25.2643 38.6893 19.9274 37.5564 19.9274 37.5564L19.6292 37.1987C19.6292 37.1987 20.2852 33.2631 20.4043 32.6369" stroke="#251C14" stroke-width="0.0444444" stroke-miterlimit="10"/>
<path d="M18.1332 37.7271C18.0604 37.7551 17.9919 37.7876 17.9297 37.8244Z" fill="#5D463B"/>
<path d="M18.1332 37.7271C18.0604 37.7551 17.9919 37.7876 17.9297 37.8244" stroke="#251C14" stroke-width="0.0444444" stroke-miterlimit="10"/>
<path d="M19.9272 37.556C19.9272 37.556 19.1361 37.4858 18.4717 37.6284Z" fill="#5D463B"/>
<path d="M19.9272 37.556C19.9272 37.556 19.1361 37.4858 18.4717 37.6284" stroke="#251C14" stroke-width="0.0444444" stroke-miterlimit="10"/>
<path d="M17.751 36.9898C17.751 36.9898 18.735 36.8706 19.331 37.1386Z" fill="#5D463B"/>
<path d="M17.751 36.9898C17.751 36.9898 18.735 36.8706 19.331 37.1386" stroke="#251C14" stroke-width="0.0444444" stroke-miterlimit="10"/>
<path d="M23.7324 29.8102C23.7324 29.8102 24.9578 30.4973 25.884 30.2884C26.8102 30.0791 26.7209 27.8978 26.7209 27.8978L25.9738 27.3898L23.7324 29.8102Z" fill="#F9DACE"/>
<path d="M25.9541 28.1195L24.9826 28.4591L23.7314 29.8102C23.7314 29.8102 24.0563 29.992 24.4977 30.1404L25.9541 28.1195Z" fill="#D9AFA2"/>
<path d="M22.0041 20.4515C22.0041 20.4515 19.633 22.5591 19.609 24.2835C19.585 26.008 20.6867 27.852 20.6867 27.852C20.6867 27.852 19.4894 29.8635 19.4654 30.1751C19.4414 30.4866 20.1841 31.1809 20.2556 31.1809C20.3276 31.1809 21.0459 30.5822 21.0459 30.5822L20.6387 31.4684L21.8601 32.1151C21.8601 32.1151 22.4334 29.936 22.7463 29.2413C22.7463 29.2413 21.429 26.7986 21.3334 25.8404C21.2374 24.8826 21.2854 23.9964 21.549 23.5413C21.8125 23.0862 23.0819 22.4395 23.1534 22.3915C23.2254 22.3435 24.8539 23.6849 25.1174 24.8102C25.381 25.936 26.2721 27.9275 26.2721 27.9275C26.2721 27.9275 25.8596 30.1031 25.6681 30.6777C25.4765 31.2524 24.8299 31.8991 24.8299 31.8991C24.8299 31.8991 25.7876 32.2582 26.1712 32.3302C26.5543 32.4022 26.6503 32.4022 26.6503 32.4022C26.6503 32.4022 27.225 31.4444 27.273 31.3724C27.321 31.3004 27.321 32.3302 27.321 32.3302C27.321 32.3302 28.3267 32.2582 29.3805 31.6835C30.4343 31.1089 31.057 30.3902 31.057 30.3902C31.057 30.3902 31.7036 30.1026 32.0147 29.1449C32.3259 28.1871 31.6556 27.2049 30.8654 26.2711C30.0752 25.3369 29.7876 25.0497 29.5241 23.6609C29.2605 22.272 28.7819 20.8111 27.4885 19.9249C26.1952 19.0386 24.4232 19.0146 23.561 19.4937C22.6983 19.9729 22.0041 20.4515 22.0041 20.4515Z" fill="#332418"/>
<path d="M23.1638 21.5026C23.1638 21.5026 21.3407 22.9071 21.0718 23.236C20.8029 23.5648 21.0122 24.2817 20.9522 25.2084C20.8927 26.1346 21.3704 27.1208 21.6393 27.6288C21.9082 28.1368 22.6256 29.7208 23.1633 29.8404C23.7011 29.96 23.7313 29.8106 23.7313 29.8106C23.7313 29.8106 25.7038 28.8844 26.2713 27.928C26.2713 27.928 25.9127 25.836 25.7336 25.0293C25.5544 24.2226 25.4647 24.0133 25.4647 24.0133C25.4647 24.0133 24.4784 22.6986 24.0304 22.28C23.5824 21.8613 23.1638 21.5026 23.1638 21.5026Z" fill="#F9DACE"/>
<path d="M21.7754 25.8893C21.7754 25.8893 21.9736 25.6493 22.1905 25.7684" stroke="#263138" stroke-width="0.0444444" stroke-miterlimit="10" stroke-linecap="round" stroke-linejoin="round"/>
<path d="M22.4238 26.0044C22.4576 26.1559 22.4078 26.2959 22.3127 26.3173C22.2176 26.3386 22.1127 26.2328 22.0789 26.0813C22.0452 25.9297 22.0949 25.7897 22.1901 25.7684C22.2852 25.7475 22.3896 25.8528 22.4238 26.0044Z" fill="#263138"/>
<path d="M24.3896 25.9848C24.4234 26.1364 24.3736 26.2764 24.2785 26.2977C24.1834 26.319 24.0785 26.2132 24.0448 26.0617C24.011 25.9101 24.0608 25.7701 24.1559 25.7488C24.251 25.7279 24.3559 25.8332 24.3896 25.9848Z" fill="#263138"/>
<path d="M23.7061 25.7888C23.7061 25.7888 23.9452 25.639 24.2389 25.7888" stroke="#263138" stroke-width="0.0444444" stroke-miterlimit="10" stroke-linecap="round" stroke-linejoin="round"/>
<path d="M23.1641 21.5026C23.1641 21.5026 23.8801 23.4608 25.465 24.0128C25.465 24.0128 23.8658 23.0151 23.6121 21.3528" fill="#263138"/>
<path d="M23.1641 21.5026C23.1641 21.5026 23.8801 23.4608 25.465 24.0128C25.465 24.0128 23.8658 23.0151 23.6121 21.3528" stroke="#263138" stroke-width="0.0444444" stroke-miterlimit="10" stroke-linecap="round" stroke-linejoin="round"/>
<path d="M23.1844 24.8417C23.1844 24.8417 23.056 24.9688 23.3053 25.0733C23.5547 25.1777 24.3844 25.3608 24.5591 25.2368C24.7338 25.1124 23.6436 24.7662 23.1844 24.8417Z" fill="#263138" stroke="#263138" stroke-width="0.0444444" stroke-miterlimit="10" stroke-linecap="round" stroke-linejoin="round"/>
<path d="M22.08 24.8333C22.08 24.8333 21.3791 25.1364 21.2147 25.3049C21.0502 25.4733 21.9827 25.2702 22.1471 25.1013C22.3116 24.9329 22.08 24.8333 22.08 24.8333Z" fill="#263138" stroke="#263138" stroke-width="0.0444444" stroke-miterlimit="10" stroke-linecap="round" stroke-linejoin="round"/>
<path d="M22.3262 25.3386C22.3262 25.3386 22.5693 25.7386 22.6057 25.92C22.6417 26.1013 22.66 26.3911 22.66 26.3911" stroke="#263138" stroke-width="0.0444444" stroke-miterlimit="10" stroke-linecap="round" stroke-linejoin="round"/>
<path d="M22.7141 27.4955C22.7141 27.4955 22.6781 27.7493 22.7683 27.8395C22.859 27.9301 23.0763 28.075 23.4746 27.8759" stroke="#263138" stroke-width="0.0444444" stroke-miterlimit="10" stroke-linecap="round" stroke-linejoin="round"/>
<path d="M23.0586 28.5462C23.0586 28.5462 23.1853 28.6186 23.439 28.5462" stroke="#263138" stroke-width="0.0444444" stroke-miterlimit="10" stroke-linecap="round" stroke-linejoin="round"/>
<path d="M23.109 24.9582C23.109 24.9582 22.9099 24.6142 23.109 24.3244" stroke="#263138" stroke-width="0.0444444" stroke-miterlimit="10" stroke-linecap="round" stroke-linejoin="round"/>
<path d="M25.5869 23.5458C25.5474 23.5458 25.5123 23.5169 25.506 23.4769C25.4847 23.3396 25.4318 23.2449 25.3483 23.1956C25.2025 23.1089 25.002 23.1769 24.9998 23.1778C24.9576 23.1925 24.9105 23.1707 24.8954 23.1285C24.8803 23.0862 24.9025 23.04 24.9447 23.0249C24.9558 23.0209 25.2185 22.9302 25.4309 23.056C25.5589 23.1316 25.638 23.2649 25.6674 23.4525C25.674 23.4969 25.6438 23.5382 25.5989 23.5449C25.5954 23.5453 25.5909 23.5458 25.5869 23.5458Z" fill="#6C5B50"/>
<path d="M26.3128 22.9236C26.1745 22.9445 26.079 22.9974 26.0288 23.08C25.9412 23.2245 26.0101 23.4231 26.0105 23.4249" fill="#6C5B50"/>
<path d="M26.0913 22.6125C26.0086 22.6125 25.9144 22.5969 25.8282 22.5462C25.7002 22.4707 25.6206 22.3373 25.5917 22.1498C25.5851 22.1053 25.6153 22.064 25.6602 22.0573C25.7046 22.0511 25.7469 22.0809 25.7535 22.1253C25.7749 22.2627 25.8277 22.3573 25.9113 22.4067C26.0571 22.4933 26.2575 22.4253 26.2593 22.4244C26.302 22.4098 26.3486 22.4316 26.3637 22.4738C26.3789 22.516 26.3566 22.5622 26.3144 22.5773C26.3077 22.5791 26.2122 22.6125 26.0913 22.6125Z" fill="#6C5B50"/>
<path d="M24.9597 22.8395C24.9202 22.8395 24.8851 22.8106 24.8789 22.7706C24.8722 22.7262 24.9024 22.6849 24.9473 22.6782C25.0855 22.6573 25.1811 22.6044 25.2313 22.5217C25.3189 22.3773 25.25 22.1786 25.2495 22.1769C25.2344 22.1346 25.2571 22.0884 25.2993 22.0733C25.342 22.0586 25.3886 22.0804 25.4037 22.1222C25.4077 22.1333 25.4993 22.3933 25.3726 22.604C25.2966 22.7306 25.162 22.8093 24.9726 22.8382C24.9682 22.8391 24.9642 22.8395 24.9597 22.8395Z" fill="#6C5B50"/>
</g>
<defs>
<clipPath id="clip0_1141_49369">
<rect width="48" height="48" rx="24" fill="white"/>
</clipPath>
</defs>
</svg>
