<svg width="763" height="438" viewBox="0 0 763 438" fill="none" xmlns="http://www.w3.org/2000/svg">
<path d="M115.22 17.1877C46.4817 29.0684 -2.58127 90.3768 0.894356 160.047L5.20042 246.364C5.60325 254.439 6.7149 262.463 8.52253 270.343L22.2718 330.281C31.8559 372.062 63.3873 405.333 104.593 417.146C110.061 418.713 115.635 419.882 121.272 420.644L205.306 432L285.306 437.5H366.806L450.306 432L537.306 427L589.257 421L756.87 432C766.729 432 761.577 414.162 756.87 405.5L715.5 313C714.5 305 714.806 293.978 714.806 282.5V153.947C714.806 86.9096 666.628 29.569 600.594 18.013L554.806 10L456.306 3.5L353.306 0.5L256.306 3.5L156.806 10L115.22 17.1877Z" fill="#E6F6FA"/>
</svg>
