<svg width="48" height="35" viewBox="0 0 48 35" fill="none" xmlns="http://www.w3.org/2000/svg">
<g clip-path="url(#clip0_1141_49346)">
<g clip-path="url(#clip1_1141_49346)">
<path fill-rule="evenodd" clip-rule="evenodd" d="M20.4209 14.6973C19.9038 15.0722 19.9861 15.8097 20.1418 16.3456C20.371 17.1346 20.8275 17.865 21.3483 18.4946C22.2722 19.6115 23.8407 20.8657 25.2865 19.8851C26.574 19.0118 27.3862 17.2497 27.6665 15.7654C27.7531 15.3067 27.8686 14.6233 27.4614 14.2785C26.8596 13.7687 25.798 13.8615 25.0715 13.9271C24.593 13.9703 24.1313 14.117 23.6585 14.0481C22.5599 13.888 21.3372 14.033 20.4209 14.6973Z" fill="#85C5D6"/>
<path fill-rule="evenodd" clip-rule="evenodd" d="M18.9894 8.20241C19.3479 8.16277 19.7127 8.15234 20.0736 8.15818L20.1805 8.16007C20.4278 8.16182 21.1977 8.13951 21.2724 8.41665C21.3241 8.60864 21.0656 8.55596 20.937 8.56093C20.7429 8.56846 20.5483 8.57006 20.3545 8.58413L20.2715 8.59097C20.062 8.61046 19.6044 8.59184 19.4637 8.77866C19.3125 8.97937 19.6005 9.33121 19.7054 9.51256L19.7108 9.52211C20.1145 10.2434 20.366 11.0181 21.0891 11.497C21.7724 11.9495 22.6661 12.1456 23.4537 12.3542L23.6365 12.4028C23.8984 12.4739 23.9645 12.5132 24.0667 12.8018L24.0787 12.8362C24.1833 13.1426 24.2219 12.9275 24.3001 12.7241L24.3035 12.7153C24.4196 12.419 24.644 12.5522 24.9317 12.573C25.3691 12.6046 25.8498 12.5512 26.2844 12.4792L26.3363 12.4705C27.1625 12.3296 28.0385 12.1393 28.6932 11.5838C29.3637 11.015 29.7869 10.186 30.0469 9.35982L29.9923 9.35326C29.7895 9.32994 29.5602 9.31184 29.3815 9.21795C29.1066 9.07354 29.2476 8.85346 29.5 8.77523C29.9017 8.65078 30.411 8.71435 30.8173 8.76596C31.3269 8.8307 31.8386 8.87263 32.351 8.90738L32.4908 8.91669C34.3629 9.03954 36.1499 9.26258 37.9251 9.90341C39.5992 10.5077 41.1796 11.3699 42.6069 12.4308C44.0525 13.5055 45.2497 14.8014 46.2816 16.2727C46.8295 17.054 47.2167 17.8554 47.5548 18.7456C47.7074 19.1477 47.8138 19.5399 47.8729 19.9665C47.9318 20.3915 47.8554 20.8497 47.9494 21.2676L47.9602 21.3122C48.0831 21.7904 47.8396 22.4321 47.6984 22.8874C47.5175 23.4707 47.2312 24.0203 46.8758 24.5164C45.5691 26.3405 43.2658 27.2596 41.0928 27.4904C40.4779 27.5558 39.8613 27.5672 39.2435 27.5714C39.015 27.573 38.7815 27.5978 38.5542 27.5683C38.3305 27.5393 38.23 27.4318 38.0499 27.3316C37.8436 27.217 37.5402 27.2027 37.3116 27.1556L37.036 27.0993C36.8219 27.0556 36.6085 27.0101 36.3972 26.9519C36.1575 26.886 35.9202 26.8232 35.6784 26.7691L35.5745 26.7465C35.3458 26.6981 35.0908 26.5961 34.8544 26.6575C35.3772 27.4778 35.9695 28.3095 36.6633 28.996C37.2778 29.604 38.0289 30.106 38.5764 30.7791C38.7121 30.9458 38.9051 31.3764 39.1521 31.3903C39.2735 31.3972 39.3389 31.2474 39.4671 31.2862C39.6064 31.3284 39.6062 31.5456 39.5737 31.6511C39.3573 32.355 38.0591 32.5131 37.4597 32.4738L37.4417 32.4726C36.9656 32.4375 36.4674 32.4241 35.9992 32.3298C35.5727 32.2439 35.1736 32.0327 34.7358 32.0019C33.883 31.9417 33.1379 32.6621 32.535 33.1867L32.4036 33.3001C31.8032 33.8163 31.0403 34.4553 30.2258 34.489C29.2549 34.5292 28.2883 34.0674 27.3931 33.7547C26.5335 33.4546 25.6453 33.2101 24.7668 32.962L24.4572 32.8743C23.5319 32.6104 22.5876 32.3 21.6182 32.5122C20.8265 32.6856 19.9692 33.167 19.4499 33.7953L19.4212 33.8306C19.1978 34.1092 19.0045 34.4376 18.6316 34.5221C18.2898 34.5995 17.9647 34.4886 17.7264 34.2423C17.2108 33.7092 16.952 32.9623 16.6772 32.2832L16.6284 32.1641C16.2603 31.2755 16.0401 30.3712 15.8692 29.4266C15.7745 28.903 15.6821 28.3788 15.605 27.8524C15.57 27.6133 15.5379 27.3738 15.5106 27.1337C15.4951 26.9964 15.5223 26.7439 15.4584 26.613C15.3201 26.33 14.8336 26.7082 14.614 26.811L14.4458 26.8865C14.0741 27.0526 13.7047 27.2134 13.3162 27.3418C12.8868 27.4836 12.4615 27.6567 12.0222 27.7634C11.8642 27.8018 11.6867 27.8293 11.5404 27.9053C11.4185 27.9688 11.3752 28.1176 11.2755 28.1695C11.1349 28.2425 10.991 28.1051 10.8412 28.0928C10.6433 28.0767 10.4241 28.1406 10.2314 28.1807C9.78966 28.2726 9.35987 28.3946 8.90691 28.4216C7.9805 28.4768 7.0576 28.2532 6.18422 27.963L6.13484 27.9465C4.45142 27.3813 2.71481 26.6815 1.91461 24.9778C0.374815 21.6998 1.16835 17.4276 3.67304 14.8603C6.28237 12.1858 9.74522 10.3293 13.3207 9.32178C15.1635 8.80245 17.085 8.41302 18.9894 8.20241ZM19.6896 19.0492C18.7244 19.3523 17.77 19.7076 16.9046 20.2382C16.187 20.6783 15.4803 21.1502 14.7801 21.6229L14.1885 22.0228C13.52 22.4736 12.7963 22.9469 12.0465 23.2335C11.7865 23.3329 11.3661 23.4102 11.2155 23.6743C11.0807 23.9108 11.1563 24.2781 11.1596 24.5366C11.1671 25.1288 11.1025 25.7284 11.0736 26.3223L11.0687 26.4336C11.0624 26.5872 10.9934 26.9937 11.1291 27.1093C11.255 27.2164 11.6214 27.0726 11.7486 27.037L11.8882 26.9977C13.3776 26.5767 14.8712 26.0885 16.1646 25.2177C16.911 24.7151 17.5559 24.078 18.2291 23.4854C18.5953 23.1631 19.0039 22.8747 19.3433 22.5238C19.4668 22.396 19.568 22.2547 19.7095 22.1459C19.8444 22.042 20.0044 21.9886 20.117 21.8533C20.2132 21.7375 20.3307 21.633 20.3774 21.4847C20.0924 21.4847 19.2644 21.9808 19.1212 21.5557C18.9737 21.1176 19.7846 20.6444 20.0238 20.381C19.7455 20.4229 19.4714 20.4874 19.2054 20.5792C19.0443 20.6348 18.7817 20.8066 18.6041 20.8012C18.2377 20.7902 18.3737 20.3603 18.5065 20.1703C18.6564 19.9557 18.8622 19.7779 19.0678 19.6112L19.2211 19.488C19.2738 19.4456 19.7344 19.1432 19.6896 19.0492ZM29.3237 18.6978L29.2546 18.6342C28.9614 18.3664 28.5647 18.0556 28.1447 18.153C28.3154 18.5738 28.6578 18.9407 28.9807 19.2565L29.0083 19.2835C29.143 19.4146 29.5751 19.7124 29.4838 19.9494C29.3355 20.3343 28.6982 19.9305 28.5123 19.8191C28.0938 19.5685 27.6462 19.3884 27.1654 19.2952C27.4455 19.6284 27.7467 19.9458 28.099 20.2031L28.2157 20.2867C28.4096 20.4282 28.6398 20.629 28.3996 20.8228C27.8862 21.2371 26.9715 20.4166 26.4761 20.2861C26.4142 20.5703 26.5662 20.7186 26.7644 20.9087C26.9848 21.1198 27.2548 21.0909 27.4525 21.3404C27.8468 21.8384 28.2588 22.306 28.717 22.75C29.6999 23.7026 30.8004 24.316 32.0494 24.8521C33.3578 25.4138 34.7689 25.7724 36.156 26.0853L36.2737 26.1119C36.5636 26.1804 38.1084 26.5826 38.1166 26.4438L38.1335 26.1535C38.1905 25.1503 38.2208 24.1183 37.8289 23.1726C37.6727 22.7957 37.4922 22.6691 37.0909 22.6517L37.0699 22.6509C36.5346 22.6329 36.0202 22.5842 35.4927 22.4784C34.4177 22.2629 33.3366 21.9555 32.328 21.5213C31.8867 21.3312 31.4567 21.1015 31.089 20.7894L31.0391 20.7466C30.8641 20.5946 30.6877 20.4208 30.5737 20.2209C30.4628 20.0264 30.4319 19.8134 30.2899 19.633C30.0257 19.2973 29.6443 18.9903 29.3237 18.6978ZM15.1971 14.5203C15.0555 14.3583 14.642 14.5471 14.481 14.6078L14.4721 14.6111C13.6616 14.909 12.7959 15.15 12.0294 15.547C11.0218 16.0688 10.0601 16.6869 9.16904 17.388C8.277 18.0898 7.45391 18.8648 6.72091 19.7318L6.68315 19.7766C6.08974 20.4824 5.4195 21.3777 5.52809 22.3501C5.62162 23.1884 6.43798 23.494 7.17569 23.5867C7.69427 23.6519 8.16375 23.5724 8.66787 23.4627L8.87006 23.4186C9.3645 23.3114 9.85511 23.2085 10.3349 23.0398C10.9434 22.8257 11.5053 22.5194 12.0825 22.2361C12.6079 21.9781 13.1587 21.7769 13.6789 21.5072L13.7122 21.4901C14.0094 21.3398 14.5221 21.1208 14.6374 20.796C14.6997 20.6205 14.6061 20.3916 14.5957 20.2119C14.578 19.9091 14.6051 19.5935 14.6238 19.2891L14.6277 19.2241C14.6939 18.0607 14.8377 16.9026 14.9572 15.7442L14.9739 15.5772C14.9944 15.3791 15.0207 15.1891 15.1018 15L15.1099 14.9821C15.1691 14.8556 15.3082 14.6475 15.1971 14.5203ZM26.2506 23.4427C26.4569 23.3787 26.2043 22.5767 25.9959 22.6855C25.7773 22.7995 26.0228 23.5135 26.2506 23.4427ZM22.6645 22.6143L22.6717 22.5889C22.7581 22.2942 22.4416 22.4493 22.3438 22.5722C22.1724 22.7878 22.1898 23.1746 22.3665 23.3843C22.5535 23.1716 22.5906 22.8777 22.6645 22.6143ZM34.13 15.4288L34.0432 15.4035C33.7837 15.3292 33.6194 15.3044 33.4867 15.6008C33.3662 15.8697 33.3408 16.1858 33.2974 16.4755L33.2919 16.5116C33.2187 16.9796 33.1621 17.45 33.0868 17.9176L33.0687 18.0274C32.9188 18.9262 32.6883 20.0085 33.0337 20.8784C33.1677 21.2157 33.6304 21.2745 33.9504 21.3806L33.9674 21.3863C34.4524 21.5523 34.951 21.6906 35.453 21.7949C36.384 21.9885 37.3356 22.06 38.2854 22.0678C39.867 22.0809 41.6478 21.8709 42.6952 20.5422C43.0251 20.1236 42.6213 19.6215 42.3508 19.2999C42.0006 18.8836 41.6247 18.529 41.1884 18.2024C40.3273 17.5578 39.3909 17.1002 38.4255 16.6366C37.4493 16.1678 36.512 15.837 35.4378 15.673C34.9976 15.6058 34.5581 15.5538 34.13 15.4288ZM25.6571 14.38C25.0781 14.371 24.4924 14.7423 24.1302 15.1706L24.0933 15.2149C23.9065 15.4372 23.8292 15.4662 23.638 15.2216L23.6049 15.1796C23.4435 14.9765 23.2615 14.7772 23.0137 14.6836C22.5439 14.5062 21.9057 14.624 21.4666 14.8361C20.9831 15.0698 20.7169 15.5765 20.6384 16.0914C20.4531 17.3064 21.667 18.6297 22.6593 19.1697C22.9463 19.3258 23.2666 19.3965 23.5452 19.571L23.6003 19.6052C23.8139 19.736 24.0002 19.822 24.2431 19.6706C24.49 19.5166 24.7452 19.3135 24.9665 19.1231C25.2179 18.9067 25.5305 18.7655 25.771 18.5404L25.8406 18.4749C26.2788 18.0592 26.668 17.6291 26.9359 17.0786C27.0299 16.8857 27.1028 16.7116 27.1256 16.5008L27.1262 16.4916C27.1285 16.4232 27.1155 16.1069 27.1156 16.1068C27.4189 15.862 27.1562 15.3124 26.9751 14.9887L26.9397 14.9263C26.8953 14.8489 26.8183 14.6965 26.7412 14.6477C26.7106 14.6283 26.6384 14.6714 26.5944 14.6507C26.5586 14.6338 26.5387 14.584 26.503 14.5676C26.2398 14.4463 25.9494 14.3847 25.6571 14.38ZM18.4951 18.1952C18.7117 17.8344 18.0171 17.8409 17.985 18.154C17.9476 18.5195 18.3774 18.3911 18.4951 18.1952ZM29.9635 17.8627L29.961 17.8778C29.9431 17.9933 29.9282 18.333 30.1033 18.1454C30.2377 18.0013 29.9623 17.8696 29.9635 17.8627ZM18.1823 15.5474C18.0526 15.4532 17.8345 15.4928 17.689 15.5128C17.4441 15.5465 17.4089 15.8476 17.6166 15.9565C17.7386 16.0205 18.0274 16.0012 18.1509 15.9307C18.3071 15.8415 18.3515 15.6704 18.1823 15.5474ZM5.41813 11.0256C5.31287 11.3655 4.78015 11.5909 4.51449 11.7975C3.58527 12.5205 2.67725 13.2731 1.83718 14.0981C1.41793 14.5099 1.09667 15.0046 0.736433 15.4655L0.679679 15.5377C0.585512 15.6604 0.428903 15.8961 0.256376 15.8727C0.0578574 15.846 0.0177227 15.5041 0.0240526 15.3548C0.0457361 14.8456 0.510787 14.3538 0.842437 14.0032C1.2155 13.6089 1.61436 13.2247 2.0217 12.8657C2.47018 12.4705 2.95685 12.1308 3.45281 11.7982C3.93981 11.4716 4.40675 11.0943 4.91321 10.7985L4.92991 10.7891C5.16973 10.657 5.54497 10.6158 5.41813 11.0256ZM31.1019 15.6643C31.1053 15.3752 30.5305 15.2593 30.5254 15.5969C30.5213 15.8712 31.0987 15.9371 31.1019 15.6643ZM31.4468 13.2229C31.4741 12.7878 30.4698 13.1351 30.4127 13.3848C30.2915 13.9157 31.433 13.4411 31.4468 13.2229ZM18.3355 12.6765C17.9165 12.6726 18.4677 13.1437 18.6026 13.203L18.6066 13.2047C18.7614 13.267 18.976 13.282 18.9238 13.0556C18.8677 12.8124 18.5246 12.7497 18.3355 12.6765ZM37.8997 7.79751C38.2876 7.80974 38.6661 7.93696 39.0318 8.05506C39.8365 8.3149 40.6028 8.67535 41.3585 9.05208C42.6834 9.71243 43.9583 10.5114 45.127 11.4199C45.3539 11.5962 45.586 11.7414 45.8307 11.8856L45.9191 11.9372C46.0862 12.0333 46.3038 12.1519 46.3654 12.3423C46.5317 12.8575 45.6919 12.3404 45.5727 12.2664L45.1536 12.0068C42.7507 10.5211 40.34 9.09424 37.6222 8.24025C37.4723 8.19316 37.4258 8.05952 37.5044 7.92703C37.5896 7.78346 37.7556 7.79298 37.8997 7.79751ZM5.30496 8.87584C5.28751 9.0281 5.11961 9.06619 5.00018 9.11434L4.98946 9.11875C4.54229 9.30658 4.08396 9.46677 3.63801 9.65771C2.81031 10.0121 2.05021 10.5264 1.18628 10.7953C0.988852 10.8569 0.959722 10.6576 1.01258 10.522C1.07145 10.3707 1.24826 10.2645 1.37614 10.1769C1.74504 9.92422 2.16342 9.74254 2.57308 9.56701C2.97922 9.39283 3.39739 9.2611 3.81381 9.1151C4.20083 8.97938 4.65002 8.7268 5.06563 8.70815L5.12786 8.70519C5.23934 8.70104 5.32353 8.71258 5.30496 8.87584ZM22.571 6.62156L22.6036 6.54673C22.6876 6.35009 23.0162 5.47527 23.2636 5.52475C23.5005 5.57207 22.9036 7.12633 22.8437 7.29814L22.8421 7.30292C22.4891 8.33834 22.3228 9.42875 22.3228 10.5227C22.0777 10.302 21.9289 10.2475 21.9053 9.88735C21.8757 9.43604 21.9461 8.98386 22.0297 8.54167L22.0394 8.49069C22.1612 7.85429 22.3156 7.2177 22.571 6.62156ZM27.5796 0.295929C28.1171 0.303537 28.6228 0.453981 29.1241 0.632145L29.4721 0.756887C29.8611 0.897168 30.2527 1.05236 30.5631 1.32957C31.2437 1.93732 31.4209 2.94362 31.5323 3.80456C31.6712 4.87888 31.2089 5.78024 30.8199 6.75218C30.456 7.66122 29.7881 8.39762 28.9942 8.95876C28.5922 9.2429 28.1492 9.41816 27.6857 9.57007L27.6377 9.5857C27.1492 9.74372 26.6761 9.95535 26.1534 9.95455C25.3597 9.9534 24.3435 9.57641 24.0054 8.79441C23.8535 8.44311 23.9974 8.3762 24.2971 8.56036L24.3094 8.56796C24.7563 8.8487 25.187 9.15166 25.7092 9.27621C26.722 9.51781 27.9349 9.14351 28.8229 8.64966C29.7106 8.15594 30.3066 7.41429 30.7049 6.49077C31.1067 5.55911 31.2628 4.64105 31.1078 3.63664C30.9765 2.78547 30.7153 2.00798 29.9483 1.54592C28.2924 0.548581 26.0615 0.628936 24.5889 1.92506C24.4206 2.07313 24.254 2.21788 24.0827 2.36021L23.9438 2.47439C23.8208 2.57643 23.6929 2.699 23.7104 2.86905L23.7118 2.87939C23.7404 3.05355 24.059 3.64066 23.6573 3.45539C23.3249 3.30202 23.1443 3.00222 22.7416 2.9651C22.3131 2.92557 21.8018 3.2548 21.6736 3.66917C21.5513 4.06455 21.7694 4.60549 22.111 4.83227C22.3026 4.95954 22.5118 4.95366 22.728 4.94723L22.7954 4.94536C22.9146 4.94253 23.2464 4.9038 23.3253 5.02983C23.4649 5.25271 22.9725 5.48697 22.8136 5.53628C22.4269 5.65624 21.9698 5.51506 21.7475 5.16986C21.5215 4.81894 21.3669 4.41278 21.3357 3.9947C21.306 3.59414 21.3969 3.18859 21.6332 2.85969C21.8846 2.50991 22.3969 2.11777 22.8562 2.23928C23.0556 2.29202 23.2158 2.49799 23.4114 2.53713C23.5349 2.56178 23.4829 2.57942 23.5852 2.48789C23.6502 2.42983 23.7116 2.32266 23.7715 2.25383L23.9934 1.99703C24.266 1.68187 24.5475 1.36778 24.879 1.11888C25.6355 0.550871 26.6411 0.282593 27.5796 0.295929ZM25.79 8.36974C25.8862 8.4935 26.1125 8.58979 26.1027 8.77233C26.0866 9.0737 25.6758 9.01779 25.5389 8.86059C25.383 8.68161 25.3993 8.34989 25.4876 8.14276C25.5771 7.93302 25.7414 8.30718 25.79 8.36974ZM28.4058 6.71591C28.6274 7.06124 28.3574 7.434 28.1822 7.73965C28.0146 8.03188 27.8591 8.36224 27.664 8.63698C27.3403 9.09313 26.636 8.59967 26.6151 8.13086C26.5995 7.78181 26.8396 7.92003 27.0028 8.05119L27.0388 8.08042C27.1918 8.20304 27.272 8.22782 27.4401 8.08389C27.7942 7.78042 27.9533 7.27301 28.1982 6.88881C28.2467 6.81264 28.3347 6.76683 28.4058 6.71591ZM29.0375 6.82695C29.0947 6.99395 28.9748 7.43646 29.308 7.39222C29.4922 7.36779 29.5315 7.10357 29.6283 6.98824C29.9538 6.60057 29.854 7.3338 29.7689 7.51732C29.5814 7.92178 29.0567 8.20045 28.7964 7.68734C28.7029 7.50305 28.7001 7.27212 28.7443 7.07173L28.7492 7.05038C28.776 6.93863 28.9321 6.51855 29.0375 6.82695ZM38.8188 6.14861C39.081 6.16825 39.3344 6.29203 39.583 6.36669C40.317 6.58706 40.9991 6.82735 41.6845 7.16253L41.7715 7.20567C41.8981 7.27054 42.3187 7.50665 42.0218 7.61347C41.8079 7.69039 41.3083 7.36034 41.1247 7.28117C40.3177 6.9332 39.4506 6.73019 38.6057 6.49259C38.2102 6.38136 38.5838 6.13102 38.8188 6.14861ZM26.0659 6.03601C26.0364 6.23086 25.8532 6.61908 26.0768 6.75848C26.2481 6.86527 26.5299 6.67726 26.7 6.55336L26.7848 6.49077C26.9494 6.36585 27.2825 6.07041 27.296 6.46892C27.3032 6.67931 27.0925 6.93173 26.9423 7.05294L26.9213 7.0694C26.5935 7.32097 25.9504 7.53293 25.7191 7.05676C25.5904 6.79172 25.6608 6.41441 25.7459 6.14734L25.7506 6.13362C25.8281 5.91601 26.1356 5.57516 26.0659 6.03601ZM30.2152 4.90447L30.3313 5.03909C30.4756 5.20905 30.6885 5.48896 30.5428 5.67598C30.3488 5.92479 30.0353 5.47781 29.906 5.34204L29.9008 5.33664C29.7873 5.22061 29.5486 4.89021 29.6504 4.71496C29.7967 4.46313 30.0706 4.7401 30.2152 4.90447ZM28.2203 4.31676C28.6426 4.59183 28.0972 4.79067 27.8505 4.81875L27.792 4.82457C27.5065 4.85127 27.1578 4.86119 26.9032 4.72517C26.5204 4.52066 26.648 4.21175 27.019 4.1378C27.3994 4.06204 27.8893 4.1011 28.2203 4.31676ZM22.6757 3.43225L22.7435 3.4457C23.0393 3.50596 23.3552 3.59712 23.4544 3.91464C23.563 4.26267 23.411 4.38169 23.1003 4.30923L23.0121 4.28796C22.7204 4.21888 22.3333 4.13486 22.1792 3.86849C21.9789 3.52258 22.3849 3.37573 22.6757 3.43225Z" fill="#212529"/>
</g>
</g>
<defs>
<clipPath id="clip0_1141_49346">
<rect width="48" height="35" fill="white"/>
</clipPath>
<clipPath id="clip1_1141_49346">
<rect width="48" height="34.9091" fill="white"/>
</clipPath>
</defs>
</svg>
