<svg width="48" height="48" viewBox="0 0 48 48" fill="none" xmlns="http://www.w3.org/2000/svg">
<g clip-path="url(#clip0_1024_50535)">
<path fill-rule="evenodd" clip-rule="evenodd" d="M24.8915 4.91382C24.6842 5.46174 24.4771 6.00972 24.2698 6.55764C24.137 6.90875 24.0043 7.25981 23.8715 7.61093C23.8243 7.73541 23.7981 7.86311 23.7071 7.94954C23.4924 8.15302 23.1071 8.28253 22.8491 8.42568C22.6762 8.5216 22.5033 8.61752 22.3305 8.71345C22.2414 8.76295 22.0437 8.82509 21.9813 8.90724C21.9126 8.99774 21.945 9.16397 21.945 9.28913V10.3697V12.4058C22.8379 12.2943 23.7308 12.1828 24.6236 12.0713C23.4341 13.4424 22.2446 14.8134 21.055 16.1845C20.7618 16.5224 20.4059 16.8476 20.1875 17.2408C19.7226 18.0776 19.2682 18.9204 18.8087 19.7602C18.3809 20.5419 17.9532 21.3236 17.5254 22.1052L21.3738 21.9416C22.3701 21.8992 23.3937 21.9629 24.3537 21.6808C25.1451 21.4483 25.9364 21.2159 26.7278 20.9833C26.833 20.9524 27.1609 20.9174 27.2355 20.8328C27.3053 20.7535 27.3039 20.454 27.3236 20.3526C27.6971 18.4348 28.1726 16.3214 29.2628 14.6706C30.0444 13.4872 31.0991 12.4511 32.065 11.4191C32.442 11.0164 32.8256 10.6184 33.1892 10.2034C33.2824 10.0971 33.4169 9.97651 33.4785 9.84741C33.5183 9.764 33.5739 9.60506 33.5491 9.53101C33.5384 9.4989 33.2899 9.38371 33.2543 9.36083C33.0024 9.19916 32.7528 9.03406 32.5026 8.86978C31.7996 8.40808 31.0973 7.94525 30.3903 7.48972C29.8391 7.13452 29.2895 6.75791 28.7081 6.45268C28.1055 6.13628 27.4418 5.91359 26.81 5.66362C26.1716 5.41096 25.5319 5.16119 24.8915 4.91382Z" fill="#85C5D6"/>
<path fill-rule="evenodd" clip-rule="evenodd" d="M10.4931 2.25174C11.1646 2.17089 11.8374 2.16604 12.509 2.23816L12.5896 2.24719C13.3781 2.3391 14.1716 2.35722 14.9567 2.48104C18.1738 2.98842 21.3764 3.75662 24.4721 4.7681C25.9061 5.23655 27.4279 5.53596 28.8022 6.16669C29.4105 6.44595 30.0816 6.68876 30.6329 7.07692L30.7111 7.13348C30.8504 7.23624 31.1251 7.45137 30.9959 7.62776C30.8799 7.78622 30.5883 7.64742 30.4487 7.59089L30.4392 7.58708C29.0453 7.03469 27.632 6.53032 26.1904 6.1117C25.8747 6.02003 25.5604 5.92203 25.2448 5.82954L24.9671 5.74992C24.7962 5.70218 24.7553 5.70044 24.6686 5.87878C24.3445 6.5447 24.1479 7.2555 23.7754 7.90369C25.3102 7.65978 26.8789 7.68743 28.4287 7.73595L28.6399 7.74268C30.1625 7.79171 31.6795 8.01212 33.0416 8.73242C33.1693 8.28892 33.9066 8.32504 33.7991 7.86656C33.6815 7.3652 33.4554 6.9112 33.4731 6.37707C33.5026 5.49115 34.2324 4.98676 34.9745 4.66582L35.1295 4.59956C35.4375 4.4702 35.8644 4.31875 36.0889 4.56628C36.3212 4.82242 36.4132 5.06029 36.767 5.17052L36.8351 5.19138C37.1913 5.2979 37.6049 5.37623 37.778 4.98757C37.9589 4.5812 38.2406 4.33042 38.6683 4.17958C39.0464 4.04613 39.5095 4.0367 39.8338 4.30654C40.1384 4.55991 40.0942 4.78005 39.8387 5.02289L39.7759 5.08161C39.5728 5.27316 39.3217 5.54514 39.577 5.78139C39.8626 6.04561 40.1643 6.0921 40.329 6.49587C40.499 6.91242 40.3614 7.14939 39.9936 7.30727L39.975 7.3151C39.5048 7.50969 39.7161 7.64287 39.852 8.02684C40.0007 8.44686 39.8153 8.82707 39.4333 9.03477C39.3075 9.10314 39.1486 9.12642 39.0369 9.21813C38.8848 9.34321 38.8439 9.5572 38.6975 9.69112C38.0827 10.2535 37.0744 9.90906 36.3694 10.2843C35.9827 10.4901 35.6002 10.8652 35.1783 10.5041C34.8305 10.2065 34.8689 9.74276 34.9868 9.34589C34.6902 9.32194 34.3771 9.4764 34.1143 9.5948C33.9567 9.66577 33.7467 9.72303 33.6338 9.85688C33.4481 10.0773 33.3598 10.3934 33.1665 10.6256C32.9422 10.8953 32.6951 11.1448 32.4453 11.3907L32.2664 11.5669C31.4106 12.4111 30.5437 13.2926 29.9118 14.3157C29.1803 15.5002 28.5 16.7134 28.1149 18.059C27.9345 18.6896 27.8549 19.3475 27.6492 19.9706C27.5496 20.2719 27.4505 20.4686 27.4754 20.7787L27.4786 20.8123C27.5146 21.1507 27.3347 21.0794 27.1336 21.2477C26.9748 21.3805 27.0684 21.6573 27.0299 21.8454L27.0119 21.9348C26.9722 22.1343 26.9269 22.3685 26.863 22.547C26.8013 22.7191 26.7518 22.6415 26.6539 22.7409C26.5564 22.8399 26.6123 22.8302 26.5846 22.9786C26.5467 23.1815 26.456 23.243 26.2664 23.2848C26.3942 23.4149 26.2975 23.4657 26.2162 23.5678C26.1709 23.6246 26.1303 23.6383 26.1088 23.7032C26.0927 23.7518 26.1335 23.8184 26.1171 23.8709L26.1151 23.8758L26.1156 23.8742C26.1196 23.8465 25.973 23.9833 25.9713 23.9813L25.9735 23.9784C25.8168 24.1549 25.5713 24.2181 25.3983 24.3761C25.2615 24.501 25.1659 24.6695 25.0831 24.8328C24.8775 25.2382 24.7178 25.6748 24.5537 26.0981L24.5027 26.2298C24.1958 27.0244 23.8749 27.8895 23.7596 28.7322L23.7504 28.8024C23.737 28.911 23.7122 29.3487 23.8888 29.0946C23.9254 29.0419 23.8846 28.9166 23.9036 28.8577C23.9252 28.7908 23.9699 28.7516 24.0005 28.6928C24.0798 28.541 24.059 28.4251 24.116 28.2668C24.1385 28.2046 24.202 28.1655 24.2157 28.0955C24.2255 28.046 24.1639 27.9557 24.1718 27.9328C24.2135 27.8119 24.3012 27.8686 24.3339 27.7268C24.3624 27.6033 24.2868 27.5846 24.3391 27.458C24.367 27.3905 24.4647 27.4093 24.4691 27.331C24.4702 27.3101 24.3903 27.2204 24.3717 27.1821C24.3421 27.1206 24.3167 27.0204 24.3039 26.9527L24.491 27.211C24.5425 27.0706 24.5307 26.9161 24.577 26.7755C24.6333 26.6044 24.7448 26.5699 24.8414 26.4325C24.833 26.4444 24.8888 26.3095 24.9087 26.2735L24.911 26.2694C25.0055 26.1153 25.0631 26.1102 24.9656 25.9162C25.0177 25.9041 25.0613 25.9181 25.0963 25.9583C25.1473 25.8615 25.3033 25.7134 25.2051 25.596C25.4717 25.7164 25.5333 25.3479 25.5008 25.1845L25.4774 25.0698C25.4519 24.938 25.4838 24.9971 25.6593 24.8737L25.6805 24.8585C25.7403 24.8147 25.8227 24.7454 25.8386 24.6773C25.848 24.6367 25.7557 24.6383 25.7714 24.5871C25.8058 24.4745 25.8901 24.3923 25.9578 24.2964C26.2338 24.5931 26.3343 25.0227 26.4881 25.3867C26.6654 25.8061 26.9265 26.1947 27.1896 26.5648L27.2965 26.7148C27.7865 27.4007 28.3196 28.1098 28.996 28.6134C29.6583 29.1064 30.4594 29.3356 31.2364 29.5822L31.3422 29.616C32.197 29.8906 33.0449 30.0774 33.9438 30.129C34.8202 30.1793 35.7092 30.1142 36.5643 29.9113C37.402 29.7125 38.1056 29.2549 38.8781 28.8985C39.6744 28.5311 40.5289 28.2319 41.3715 27.9817L41.4767 27.9506C41.7852 27.8604 41.9826 27.8636 42.2391 28.0673C42.5829 28.3404 42.8813 28.6784 43.1927 28.9866L43.3514 29.1429C43.9609 29.741 44.58 30.3276 45.1209 30.9908C45.7171 31.7217 46.2404 32.5089 46.8447 33.2335C47.4509 33.9602 46.7525 34.7259 46.0966 35.0847C45.7679 35.2645 45.35 35.4177 44.9688 35.4001C44.5229 35.3794 44.6297 35.0458 44.3608 34.7905C44.1115 34.5538 43.7794 34.4253 43.5283 34.1886C43.1982 33.8776 42.9331 33.4997 42.5632 33.2297C41.8821 32.7327 40.8323 32.6588 40.0279 32.5278C39.6073 32.4593 39.133 32.2992 38.7094 32.2901C38.3545 32.2825 38.0648 32.7248 37.7944 32.9201C37.04 33.4649 36.2519 33.8694 35.3719 34.1773C33.4718 34.8423 31.2735 35.0065 29.2724 34.9433C27.2598 34.8797 25.4518 34.3098 23.743 33.2576C23.743 34.9818 23.9059 36.6853 24.2746 38.3704C24.437 39.1128 24.6413 39.834 24.8735 40.5557L24.9434 40.7714C25.1333 41.3635 25.3144 42.022 25.74 42.4892C25.357 42.5446 25.8496 43.8606 25.8901 44.0647C25.9539 44.3854 25.9871 44.7153 25.9989 45.0426L26.0027 45.1595C26.012 45.404 26.0385 45.8661 25.8323 46.0193C25.6957 46.1208 25.7046 46.0387 25.582 45.9992C25.4268 45.9492 25.3219 45.9519 25.1488 45.9581C24.7627 45.9719 24.3763 45.9779 23.99 45.9899C23.1688 46.0153 22.3477 46.0468 21.5268 46.0826C20.7037 46.1185 19.8813 46.16 19.06 46.2265C18.5906 46.2646 18.0668 46.4185 17.5982 46.3248C16.9751 46.2001 17.1053 45.5664 17.1684 45.0774L17.1765 45.0117C17.258 44.3148 17.5778 43.8228 18.1669 43.4406C18.7493 43.0629 19.3404 42.8621 20.0237 42.7558C20.6774 42.654 21.463 42.7013 22.0803 42.4487C21.1353 41.3751 20.3585 40.0417 19.7056 38.7734C19.0943 37.586 18.6548 36.2648 18.2169 35.0049C17.7619 33.6964 17.4011 32.3504 17.1203 30.994C16.8503 29.6899 16.7466 28.3903 16.7282 27.0624L16.7269 26.9485C16.7202 26.2955 16.7161 25.6305 16.8184 24.9839C16.9222 24.3276 17.1241 23.6908 17.2177 23.0325L17.1569 23.0831C17.0959 23.1337 17.0339 23.1833 16.9667 23.2253C16.8367 22.9952 16.9917 22.831 17.1017 22.6405C17.2217 22.4328 17.2759 22.2036 17.3423 21.9752C17.5041 21.4193 17.7313 20.8788 17.9654 20.3498C18.4353 19.2884 18.9757 18.2495 19.6469 17.3001C20.3273 16.3377 21.0597 15.3987 21.8346 14.5104C22.2197 14.0689 22.656 13.6652 23.1069 13.2913C23.4978 12.9672 23.9439 12.6967 24.2741 12.3054C23.7246 12.2291 23.1392 12.2973 22.5884 12.3395C22.3623 12.3569 22.1312 12.407 21.9038 12.3938C21.6927 12.3816 21.6234 12.2259 21.4393 12.2229C21.2604 12.22 21.0311 12.3821 20.857 12.425C20.6223 12.483 20.3841 12.5266 20.1487 12.5826C19.6431 12.703 19.1504 12.8539 18.6518 12.9981C17.7747 13.2517 16.8899 13.42 16.0233 13.7162L15.2464 13.9822C14.5986 14.2034 13.9492 14.4207 13.2932 14.6147C12.3753 14.8861 11.4469 15.1212 10.5246 15.377C10.2133 15.4633 9.7962 15.5137 9.511 15.6684C9.17879 15.8486 9.20953 16.2208 9.17558 16.551C9.08799 17.4035 8.84056 18.2339 8.79723 19.0948C8.75812 19.8717 8.87002 20.7115 8.5439 21.4433C8.1091 22.419 7.48547 21.4077 7.26689 20.8378C6.93783 19.9796 6.87415 19.0435 6.7214 18.145C6.53299 18.6729 6.41564 19.2256 6.30587 19.7765L6.18959 20.3608C6.1123 20.7375 5.98243 21.2328 5.57913 21.3171C4.54861 21.5326 4.68823 18.8826 4.60285 18.4122L4.59524 18.4319C4.46289 18.7932 3.93818 21.0641 3.30877 20.4899C2.97227 20.183 2.94522 19.481 2.86165 19.0618L2.8396 18.9505C2.73457 18.416 2.65434 17.9296 2.70696 17.373C2.79736 16.4176 3.03435 15.4783 3.52754 14.6477C4.01759 13.8223 4.72232 13.2246 5.51564 12.7016C7.22069 11.5778 9.18817 10.7626 11.1234 10.1185C12.1657 9.7716 13.241 9.56784 14.3182 9.36442C15.401 9.15993 16.4696 8.87825 17.561 8.71958C18.601 8.56835 19.6593 8.48687 20.7067 8.38702L20.903 8.36806C21.6384 8.29601 22.9302 8.44104 23.4239 7.76984C22.0199 7.28594 20.5371 7.10379 19.0884 6.80391C17.7937 6.53582 16.5104 6.20666 15.2035 6.00072L15.0329 5.97457C14.5404 5.90126 13.9691 5.72353 13.4705 5.80032C12.9119 5.88627 12.6348 6.43098 12.4008 6.88853C12.1511 7.37664 11.9675 7.89653 11.7119 8.38143L11.681 8.43939C11.4971 8.77915 11.2236 9.19565 10.8147 9.24662C10.3562 9.30382 10.0298 8.90982 9.98511 8.49248C9.93984 8.06998 10.0878 7.65451 10.07 7.23296C9.71846 7.78027 9.41759 8.92112 8.68654 9.08033C8.15317 9.19652 7.92616 8.54813 7.89053 8.13775C7.83817 7.53297 8.17132 6.9492 8.07964 6.35553C7.8874 6.66348 7.70841 6.97802 7.53104 7.29404L7.37913 7.56514C7.22819 7.83445 7.05556 8.11039 6.73044 8.17821C6.26176 8.27601 6.10091 7.82669 6.05049 7.44728C5.88268 6.18408 6.32169 4.98677 6.97935 3.92184C7.70786 2.74239 9.20323 2.40713 10.4931 2.25174ZM23.1669 43.0282C22.8686 42.9963 22.5727 42.9008 22.271 42.9306L22.2438 42.9335C22.0476 42.956 21.7495 43.0234 21.7017 43.2442C21.6752 43.3665 21.7621 43.5358 21.803 43.6535L21.8083 43.6692C21.8333 43.7468 21.9684 44.032 21.9007 44.1116C21.817 44.2102 21.6322 44.0357 21.5547 43.9586L21.5385 43.9423C21.3587 43.762 20.9254 43.0116 20.6981 43.5431C21.0366 43.6632 21.3536 44.6391 20.8118 44.2989C20.578 44.1521 20.5845 43.8934 20.4213 43.6996C20.2086 43.447 19.7585 43.6729 19.4885 43.7533C18.9832 43.9039 18.4102 44.1538 18.0073 44.5003L17.9905 44.5152C17.7655 44.7199 17.293 45.3554 17.589 45.6316C17.7504 45.782 18.2291 45.6559 18.4078 45.6257L18.7459 45.5678C18.9709 45.5296 19.1958 45.4936 19.4241 45.4697C20.1822 45.3906 20.9456 45.3784 21.7071 45.3938C22.4929 45.4097 23.2777 45.4556 24.0627 45.4886C24.4602 45.5053 25.005 45.6892 25.3863 45.5604C25.6443 45.4732 25.5998 45.2416 25.5639 45.0137C25.509 44.666 25.4514 44.3188 25.3863 43.9728C25.3469 43.7634 25.3602 43.3123 25.194 43.1573C25.0321 43.0064 24.7355 43.1389 24.5431 43.1209C24.0852 43.0779 23.6243 43.0772 23.1669 43.0282ZM14.5665 36.8147L14.6017 36.8075C14.7421 36.7803 14.9696 36.7589 14.9513 36.9604C14.9363 37.1259 14.6077 37.2485 14.4932 37.3282C14.0499 37.6365 13.8745 38.3119 14.5201 38.4866L14.5431 38.4924C14.8849 38.5726 15.7274 38.5232 15.7049 38.0254C15.6947 37.7995 15.3918 37.6465 15.187 37.6711C14.858 37.7107 15.0451 37.8813 15.0543 38.0778C15.0675 38.3617 14.8204 38.3466 14.6652 38.1836C14.5314 38.043 14.4592 37.8383 14.4963 37.6447C14.5849 37.1825 15.1844 37.1548 15.5427 37.2829C16.0612 37.4684 16.0576 38.1553 15.7953 38.5491C15.5154 38.9692 14.8615 39.1139 14.3972 38.9738C13.3747 38.6651 13.588 37.0275 14.5665 36.8147ZM7.58121 27.7847L7.64116 27.7814C8.04215 27.7574 8.5923 27.6972 8.83318 28.0744C9.04585 27.7926 9.12447 28.2118 9.26931 27.9625C9.33675 28.0217 9.39728 28.1164 9.49277 28.135C9.53844 28.1438 9.5432 28.0477 9.58619 28.0546C9.64766 28.0646 9.67699 28.1199 9.7309 28.1364C9.80068 28.1578 9.87414 28.1591 9.94512 28.1795C10.2345 28.2627 10.5653 28.5383 10.8082 28.7035L10.833 28.7202C11.316 29.041 11.8535 29.6227 12.2333 30.1307C13.6205 31.9859 12.953 34.6386 11.199 36.0014C8.92867 37.7652 4.92213 37.4874 3.36889 34.8879C2.39101 33.2512 2.71893 31.1904 3.94532 29.7786C4.272 29.4026 4.65474 29.0736 5.07862 28.8113L5.12771 28.7814C5.52447 28.5425 5.90791 28.2336 6.32563 28.0354C6.57427 27.9174 6.81306 27.8837 7.08206 27.8857L7.16795 27.8872C7.20808 27.8873 7.23476 27.8837 7.29876 27.8647C7.40503 27.8332 7.46135 27.7905 7.58121 27.7847ZM7.72733 28.8981C7.56796 29.0113 7.55324 29.0685 7.37737 29.0862L7.35715 29.088C7.1757 29.1023 7.02792 29.1409 6.86019 29.1994L6.8211 29.2132C6.63722 29.2794 5.91922 29.3017 6.03159 29.5823C5.88969 29.5618 5.79581 29.6573 5.7119 29.7547C5.65525 29.8205 5.73313 29.8408 5.71458 29.8694C5.62197 30.0127 5.45282 29.8621 5.40943 29.786C5.28092 29.9156 5.42764 29.9566 5.36998 30.0949C5.34019 30.1664 5.17733 30.229 5.11974 30.2725C4.95233 30.399 5.00657 30.4408 4.93284 30.6323C4.86655 30.8044 4.7663 30.8483 4.59193 30.8818C4.69646 31.196 4.21867 31.0839 4.3913 31.432L4.41181 31.37C4.43481 31.3025 4.46065 31.2398 4.51103 31.1831C4.64369 31.3167 4.50199 31.6518 4.32641 31.4609C4.24177 31.612 4.39445 31.6187 4.41434 31.7419C4.42411 31.8021 4.338 32.0049 4.32313 32.074C4.29286 32.2151 4.25603 32.3593 4.18907 32.4882C4.11467 32.392 4.1357 32.2834 4.0909 32.1773C3.90286 32.4303 4.21599 32.7927 4.2638 33.0434L4.31093 33.296C4.36101 33.562 4.41588 33.8189 4.5273 34.0842C4.66445 34.4107 4.88315 34.7482 5.15824 34.9762C5.33429 35.1221 5.70989 35.2376 5.71003 35.5162C5.86204 35.3495 5.97146 35.5664 6.10431 35.6437C6.25619 35.7322 6.4465 35.7575 6.6111 35.8192C6.65121 35.8342 6.77931 35.9165 6.80061 35.923C6.79579 35.9215 6.91358 35.926 6.90983 35.9242C7.02896 35.9807 7.06659 36.0304 7.15853 36.1256L7.17748 36.0976C7.24015 36.0063 7.30045 35.9398 7.4292 36.0085C7.54271 36.0691 7.50172 36.1422 7.55831 36.2462L7.61396 36.1891C7.68861 36.1133 7.70587 36.1073 7.83367 36.0993C8.03422 36.0867 8.27945 36.1543 8.48784 36.1638C9.02818 36.1884 9.5201 36.1332 10.0205 35.9124C10.8912 35.5281 11.7156 34.7862 11.9751 33.8455C12.2899 32.705 12.0402 31.4837 11.22 30.6118L11.1937 30.5841C11.0001 30.3832 10.8642 30.2085 10.711 29.9837C10.6434 29.8845 10.6237 29.8868 10.554 29.8285C10.4769 29.8545 10.4372 29.8233 10.435 29.7348C10.3616 29.7018 10.2877 29.6699 10.2133 29.6393C10.1015 29.592 9.97639 29.5553 9.87025 29.4954C9.81266 29.4564 9.75588 29.4162 9.69996 29.3748C9.64117 29.4053 9.58619 29.3998 9.53489 29.3582C9.45688 29.3179 9.44342 29.2601 9.35891 29.2239C9.26623 29.1843 9.17851 29.2603 9.14798 29.1143C9.04478 29.2291 9.03829 29.1241 8.95438 29.1136L8.90958 29.0292C8.87382 29.0508 8.83565 29.065 8.7948 29.0718C8.63643 29.0684 8.46989 29.0818 8.30844 29.0787C8.23967 29.0773 8.16521 29.0859 8.09958 29.0824C8.05632 29.084 8.01963 29.0707 7.98963 29.0422C7.95949 29.004 7.93003 29.0095 7.9013 29.0588L7.88043 29.054C7.77696 29.0329 7.74048 29.0559 7.72733 28.8981ZM41.8152 28.3689C41.2975 28.9307 40.3114 28.9774 39.6059 29.1732L39.5405 29.1916C39.2203 29.2774 38.6123 29.3636 38.5053 29.7186C38.4022 30.0608 38.7454 30.5316 38.7898 30.8708C38.8312 31.1874 38.675 31.678 39.0933 31.7812C39.3703 31.8495 39.6977 31.7975 39.9873 31.8489L40.0168 31.8543C40.2567 31.9002 40.5884 31.9955 40.7407 31.7619C40.9161 31.4928 40.7417 31.069 41.0493 30.8643C41.1895 31.0278 41.2861 31.2146 41.2574 31.4306C41.2444 31.528 41.1348 31.6831 41.1566 31.7825C41.205 32.0036 41.5638 32.1664 41.699 31.9653C41.8756 31.7029 41.7508 31.3008 42.0002 31.0584C42.2879 30.7788 42.2528 31.3957 42.2184 31.5534C42.2898 31.541 42.3847 31.5482 42.387 31.638L42.3869 31.6483H42.1291C42.295 31.7831 42.1957 31.7723 42.1759 31.956C42.1668 32.0413 42.1714 32.1532 42.2209 32.227C42.3314 32.3914 42.6423 32.4135 42.8015 32.5165C43.2753 32.823 43.5791 33.3948 43.9803 33.7863C44.1814 33.9824 44.4044 34.1296 44.6415 34.2768C44.8434 34.402 45.0327 34.5962 45.2544 34.6847C45.6957 34.8608 46.254 34.4735 46.5605 34.1849C46.8177 33.943 46.6247 33.755 46.4416 33.5507C46.2357 33.3208 46.0609 33.0671 45.8618 32.8317C45.4056 32.2919 44.9169 31.7774 44.4435 31.2529C43.9886 30.7488 43.4825 30.3015 43.0086 29.817C42.5699 29.3684 42.2335 28.8349 41.8152 28.3689ZM12.4629 32.9006L12.4626 32.9109C12.4594 32.9748 12.4358 33.1986 12.5121 33.185C12.487 33.0751 12.6032 32.9799 12.4629 32.9006ZM12.5746 32.5148L12.4622 32.7787C12.6149 32.7482 12.6216 32.6846 12.5886 32.5631L12.5746 32.5148ZM12.5932 32.3281L12.3855 32.4507C12.431 32.5108 12.5017 32.5352 12.5744 32.5143C12.5368 32.4017 12.501 32.4949 12.5784 32.3553L12.5932 32.3281ZM23.6907 29.8268C23.6371 30.0073 23.6421 30.1841 23.6421 30.3697C23.7725 30.1938 23.7188 30.0235 23.6907 29.8268ZM23.6934 29.3263V29.7454C23.7726 29.6806 23.8981 29.334 23.7047 29.3264L23.6934 29.3263ZM1.04955 25.932L1.03759 25.9076C0.959242 25.7417 0.716701 25.1308 1.12211 25.25C1.37858 25.3254 1.54941 25.9159 1.65053 26.132L2.56814 25.6907L2.58359 25.7281C2.67881 25.9549 2.81139 26.2198 2.53606 26.3668C2.41573 26.431 2.2747 26.4405 2.15423 26.5522C1.78003 26.8993 2.53907 27.3257 2.38137 27.7361C2.12651 28.3989 1.88249 27.3854 1.7795 27.204C1.55644 26.8108 1.19611 27.1571 0.90508 27.282C0.390794 27.5026 0.387981 26.982 0.743093 26.734C0.886597 26.6339 1.16075 26.5651 1.20521 26.371C1.23718 26.2321 1.11136 26.053 1.04955 25.932ZM25.7812 25.3175L25.7808 25.2757C25.7772 25.0715 25.7403 25.0144 25.5362 25.1228L25.5676 25.136C25.6678 25.179 25.7243 25.2137 25.7812 25.3175ZM31.8528 21.6847C32.0725 21.6194 31.8954 22.0256 31.9671 22.1711C32.0623 22.3645 32.3382 22.3288 32.5234 22.3961L32.5394 22.4022C32.7252 22.4749 33.052 22.688 32.7224 22.8282C32.5001 22.9228 32.1211 22.7663 31.8904 22.7476C31.7084 22.7329 31.8141 22.923 31.891 22.9793C32.0209 23.0745 32.2267 23.0367 32.3763 23.0666C32.8452 23.1603 32.7383 23.4875 32.2955 23.4716L32.2609 23.4701C31.9013 23.452 31.6637 23.3678 31.5823 23.799L31.578 23.826C31.5538 23.999 31.501 24.6119 31.2259 24.4901C30.7675 24.287 31.7413 23.4933 31.1155 23.3285C30.7312 23.2273 30.8099 23.5938 30.7464 23.8485C30.6714 24.1486 30.4652 24.2228 30.4369 23.8681C30.4184 23.636 30.61 23.31 30.378 23.1705C30.2411 23.0881 29.7315 23.0818 29.9218 22.8064C30.0602 22.6058 30.4182 22.8476 30.5794 22.7324C30.8352 22.5495 30.4129 22.4995 30.3009 22.4585C29.9982 22.3478 30.0934 22.0686 30.3921 22.0546C30.505 22.0493 30.639 22.1126 30.7459 22.0519C30.8506 21.9925 30.8575 21.8462 30.9366 21.7665C31.2256 21.4753 31.1552 22.0453 31.3277 22.1389C31.6894 22.335 31.6223 21.7532 31.8528 21.6847ZM38.8465 14.0619C38.9536 14.045 38.9185 13.9597 39.041 13.9786C39.083 13.9851 39.1129 14.0125 39.1466 14.0352L39.1594 14.0435C39.2523 14.1 39.3337 14.203 39.415 14.274C39.4915 14.3408 39.5665 14.3929 39.6497 14.4462C39.6842 14.4683 39.7903 14.5083 39.7945 14.5099C39.8027 14.513 39.7883 14.5815 39.7959 14.5891C39.9474 14.498 39.9306 14.5904 40.049 14.6337C40.0971 14.6513 40.2663 14.6652 40.2964 14.7014C40.4422 14.8776 40.7248 14.9562 40.9287 15.0462C41.1644 15.1502 41.3427 15.2526 41.5471 15.4036C41.7123 15.5256 41.8771 15.5402 42.0608 15.6147C42.2725 15.7005 42.4861 15.848 42.6776 15.9729C42.8761 16.1022 43.0575 16.2566 43.2552 16.3867C43.4183 16.4942 43.5959 16.5417 43.7643 16.6377C43.9478 16.7424 44.1525 16.8908 44.3207 17.0179C44.3773 17.0607 44.5063 17.394 44.4926 17.3927C44.531 17.3964 44.5581 17.2466 44.5602 17.2471L44.5758 17.2517C44.7289 17.2998 45.1473 17.5004 45.0338 17.6886C45.344 17.5288 45.5611 17.8932 45.6512 18.1346C45.7746 18.4654 45.7407 18.7795 45.5537 19.079C45.0827 19.8334 44.4314 20.4845 43.8738 21.1737C43.2901 21.8954 42.6977 22.5952 42.0561 23.2672C41.8944 23.4363 41.7225 23.5961 41.564 23.7683C41.4584 23.8831 41.3659 24.0668 41.2392 24.16C41.024 24.3186 40.7228 24.1685 40.5367 24.3936C40.4883 24.2254 40.259 24.3506 40.1106 24.2772C39.8678 24.1572 39.648 23.9748 39.4045 23.8481C38.8334 23.551 38.2645 23.2727 37.6786 23.0067C37.1873 22.7836 36.7393 22.4829 36.2534 22.2527L36.2017 22.2287C35.8883 22.0849 35.5149 21.9465 35.3234 21.6467C35.0542 21.2252 35.3486 20.6153 35.4975 20.1816L35.5117 20.1395C35.7101 19.5355 36.0044 18.9632 36.2864 18.3949C36.8718 17.2152 37.5588 16.0907 38.1632 14.9219C38.2667 14.7219 38.3509 14.5105 38.4512 14.3093L38.5207 14.1744C38.5506 14.1167 38.5893 14.0505 38.6463 14.0286C38.7326 13.9954 38.7806 14.0723 38.8465 14.0619ZM39.3452 15.2686C39.4569 15.9565 39.5407 16.6486 39.6091 17.342C39.6738 17.9986 39.8386 18.6276 39.9444 19.2769C40.0513 19.9331 40.1262 20.5743 40.3351 21.2103C40.3703 21.3176 40.4293 21.4251 40.4396 21.5388C40.4499 21.6528 40.3879 21.7814 40.4245 21.8921C40.4509 21.9721 40.5272 22.0058 40.5663 22.0769C40.6291 22.1913 40.626 22.324 40.6679 22.4451L40.5061 22.3724C40.4252 22.5239 40.7029 22.5629 40.7747 22.6335C40.9143 22.7706 40.8702 22.9359 40.9238 23.083C41.042 23.4074 41.4081 22.7542 41.5296 22.6174C42.3368 21.708 43.0382 20.7414 43.783 19.7838C43.9457 19.5747 44.1115 19.375 44.2879 19.1773L44.3086 19.1546C44.4193 19.036 44.6261 18.8427 44.6303 18.6866C44.6377 18.4063 43.8796 18.0929 43.6166 17.9368L43.6046 17.9296C42.6016 17.3163 41.5007 16.851 40.5409 16.17C40.3017 16.0002 40.0609 15.8278 39.8391 15.6355C39.698 15.513 39.5447 15.2965 39.3452 15.2686ZM39.7885 22.8838C39.8676 22.9158 40.1515 22.5186 39.6811 22.7514C39.7069 22.8037 39.7427 22.8479 39.7885 22.8838ZM31.458 22.8155C31.5337 22.635 30.9852 22.5789 30.9984 22.762C31.0073 22.8844 31.4144 22.9194 31.458 22.8155ZM39.5025 22.3873C39.8477 22.2922 39.8655 21.9018 39.4815 21.9363C39.2052 21.9612 38.9479 22.1088 38.6862 22.1888C38.6979 22.3227 38.8184 22.2461 38.8873 22.281C38.9075 22.2913 38.9436 22.2778 38.9672 22.2887C38.9943 22.3014 38.977 22.363 38.992 22.3709C39.1501 22.4552 39.2974 22.4438 39.5025 22.3873ZM30.8576 8.58693C29.0382 8.20176 27.1481 8.43689 25.3162 8.59275C24.5804 8.65535 23.8339 8.7011 23.0991 8.7781L22.899 8.79991C22.6069 8.83303 22.3697 8.87437 22.2919 9.18428C22.2064 9.52483 22.2469 9.90919 22.2012 10.2589C22.1519 10.6368 21.9455 11.1731 22.0182 11.5485C22.0311 11.6153 22.0837 11.7336 22.1274 11.7839L22.151 11.8118C22.2257 11.9027 22.1469 11.8347 22.2976 11.8544C22.5258 11.8841 22.8318 11.7852 23.0643 11.7654C24.0792 11.6788 25.0495 11.8315 26.0562 11.9244C26.4447 11.9603 26.8219 11.9204 27.2054 11.9297C27.5306 11.9375 27.4592 12.1738 27.1994 12.2624C26.841 12.3846 26.3936 12.3512 26.0261 12.3379C25.7009 12.326 25.1881 12.19 24.8946 12.3807C24.5508 12.6042 24.3456 13.1125 24.0591 13.4118L23.784 13.6992C23.555 13.9389 23.3274 14.1796 23.1052 14.4261C22.4368 15.168 21.7714 15.9465 21.1528 16.7304C19.9106 18.3043 18.8914 19.9845 18.1036 21.8301L18.3982 21.7241C18.8308 21.569 19.2673 21.4215 19.7253 21.3641C20.3194 21.2896 20.9186 21.3806 21.5141 21.3332C22.6917 21.2394 23.8735 21.2374 25.0517 21.1407C25.5729 21.098 26.058 21.0067 26.5606 20.8661C27.0289 20.7353 27.1037 20.4973 27.1843 20.0427C27.5592 17.9297 28.1981 15.9381 29.3115 14.0941C30.1845 12.648 31.3848 11.4984 32.6276 10.3714L32.659 10.3436C32.8348 10.1902 33.1393 9.96073 33.2045 9.74283C33.2713 9.51981 33.0861 9.39305 32.9026 9.28542C32.3157 8.94106 31.5146 8.726 30.8576 8.58693ZM39.3407 20.9844C39.1477 20.9323 38.9123 21.0616 38.7332 21.1106C38.183 21.2613 37.6056 21.2894 37.0549 21.4451C37.275 21.6116 37.5175 21.7562 37.7965 21.7935C38.0938 21.8334 38.3243 21.6807 38.6041 21.6154C38.9439 21.5361 39.2898 21.4873 39.633 21.4256L39.6228 21.395C39.5666 21.2211 39.5433 21.0391 39.3407 20.9844ZM21.9132 9.12133C21.9488 8.8561 21.4811 8.97497 21.3514 8.99999C21.008 9.06615 20.6599 9.08648 20.3119 9.12127C19.3219 9.22027 18.3267 9.34375 17.3467 9.5164C15.4204 9.85581 13.5056 10.3328 11.6408 10.9222C10.131 11.3994 8.65202 11.9824 7.2478 12.7157L7.13411 12.7755C5.87759 13.441 4.56576 14.1716 3.83933 15.444C3.49573 16.0458 3.25292 16.7572 3.19172 17.4491C3.13111 18.1344 3.33194 18.8078 3.3914 19.4861L3.39388 19.5217C3.40272 19.6683 3.41549 20.0029 3.57944 19.9956C3.73263 19.9887 3.83208 19.6375 3.87865 19.5041L3.8854 19.4854C4.13418 18.823 4.26502 18.1268 4.52974 17.471L4.56669 17.3818C4.68147 17.1118 5.08975 16.3477 5.17312 17.073C5.20707 17.3684 5.14989 17.6888 5.14292 17.9841C5.13441 18.3477 5.14151 18.7114 5.15372 19.0747L5.15852 19.211C5.16602 19.4135 5.06203 20.7434 5.5358 20.6153C5.76018 20.5547 5.81169 19.9567 5.84973 19.7735L5.85187 19.7635C5.92098 19.4559 5.98057 19.1462 6.04605 18.8378L6.09649 18.6068C6.14806 18.3783 6.69027 16.2391 7.10719 16.7729C7.29897 17.0185 7.29241 17.4864 7.30252 17.7805C7.31504 18.1458 7.2977 18.5124 7.34149 18.876C7.43156 19.6241 7.64819 20.3917 8.10522 21.0021C8.33303 20.7172 8.28448 20.3428 8.27919 20.0043C8.27297 19.6071 8.31053 19.2101 8.35178 18.8155C8.43803 17.9895 8.68332 17.1895 8.75973 16.3633L8.76582 16.2912C8.81148 15.7013 8.7579 15.1684 9.37018 14.8384C9.96241 14.5192 10.7233 14.4221 11.3735 14.2779C12.8851 13.9429 14.3391 13.434 15.8175 12.9817C17.3387 12.5164 18.8641 12.103 20.4189 11.7664C20.7411 11.6967 21.0672 11.6467 21.3879 11.5795C21.648 11.525 21.6815 11.4055 21.6879 11.1716L21.6887 11.1389C21.7007 10.4624 21.8229 9.7926 21.9132 9.12133ZM39.0631 20.0853C38.7866 20.0662 38.5072 20.1632 38.2366 20.2068C37.8459 20.27 37.4438 20.352 37.0488 20.3765C36.8012 20.392 36.4743 20.3241 36.2412 20.4291C36.142 20.4738 36.0267 20.5555 36.0222 20.6824C36.0181 20.7982 36.0473 20.7665 36.0818 20.7987L36.0859 20.8028C36.3062 21.0401 36.5745 20.9101 36.8381 20.8444L36.8542 20.8405C37.302 20.7336 37.7542 20.6463 38.2079 20.569C38.5149 20.5167 38.9397 20.5352 39.223 20.4144C39.5341 20.2818 39.2766 20.1001 39.0631 20.0853ZM38.8919 19.2863C38.6329 19.2651 38.3767 19.3497 38.1251 19.3988C37.8162 19.459 37.4993 19.5138 37.1848 19.5315C37.0484 19.5392 36.9113 19.5298 36.775 19.5417C36.7469 19.5441 36.641 19.6298 36.6439 19.6305L36.5917 19.5773L36.477 19.5661C36.6604 19.9888 37.064 19.7543 37.4301 19.6756C37.9926 19.5546 38.582 19.5666 39.1543 19.5666L39.1511 19.5238C39.1354 19.3442 39.1004 19.3033 38.8919 19.2863ZM38.9913 18.4373C38.8695 18.2425 38.3444 18.4462 38.1857 18.487C38.0067 18.533 37.833 18.5532 37.6483 18.5728C37.4782 18.5907 37.0913 18.7702 36.9494 18.6623L36.7897 19.0541C37.1972 18.9444 37.6271 18.8879 38.0498 18.8362L38.3024 18.8054C38.4222 18.7907 39.1779 18.7359 38.9913 18.4373ZM38.8323 17.6473C38.8116 17.2777 37.6753 17.7863 37.6386 17.6483C37.6788 17.7998 37.5511 17.9167 37.5031 18.0473L37.52 18.0488C37.7637 18.0651 38.8478 17.9239 38.8323 17.6473ZM38.6655 16.6615C38.709 16.3634 38.4837 16.4545 38.3142 16.4768L38.2297 16.487C38.0725 16.5081 38.0413 16.5373 38.0201 16.7809C37.9958 17.0617 38.6275 16.9213 38.6655 16.6615ZM38.6036 15.9509C38.6011 15.8765 38.4853 15.6824 38.4299 15.8139L38.4263 15.8232C38.3894 15.9194 38.3503 16.0149 38.3092 16.1093L38.3298 16.1096C38.4708 16.1129 38.61 16.1437 38.6036 15.9509ZM43.9236 11.9846L43.9274 11.98C44.2182 11.6323 44.7299 11.7202 44.9788 12.0837C45.142 12.3223 45.1833 12.8699 45.5636 12.8599C45.9311 12.8502 46.0364 12.3079 46.3465 12.1748C46.5269 12.0972 46.6928 12.1491 46.7491 12.3509C46.8307 12.6428 46.6013 12.696 46.3923 12.7773C46.0328 12.9172 45.8316 13.479 45.4046 13.3482C44.9268 13.2018 45.0425 12.6403 44.7069 12.3803C44.5351 12.247 44.2425 12.2737 44.0738 12.4061C43.972 12.486 43.866 12.8008 43.7034 12.7656C43.3982 12.6995 43.8274 12.1018 43.9236 11.9846ZM44.6268 10.6174L44.6336 10.6137C44.9454 10.4467 45.215 10.5127 45.436 10.7844L45.4605 10.8153C45.6875 11.1078 45.9328 11.585 46.3438 11.245C46.5004 11.1154 46.5871 10.8999 46.8026 10.8528C47.0053 10.8084 47.2309 10.9385 47.4132 11.0052C47.6448 11.0897 47.5514 11.3835 47.3493 11.4205C47.1372 11.4594 46.984 11.2643 46.7642 11.3745C46.4363 11.5389 46.4212 11.9757 45.9617 11.8952C45.5173 11.8174 45.422 11.3185 45.0547 11.1365C44.872 11.0459 44.7049 11.0907 44.5278 11.1511L44.4897 11.1643C44.4015 11.195 44.143 11.3212 44.0773 11.1806C43.9876 10.9886 44.4915 10.6907 44.6268 10.6174ZM35.6577 5.0138C35.3263 4.72689 34.9156 5.20263 34.6281 5.3799C34.7592 5.56359 35.2081 5.93945 35.0405 6.20074C34.7628 6.63393 34.3061 5.91838 34.1841 5.73236C34.0564 6.30007 34.0944 6.8813 34.2386 7.4424C34.2902 7.64281 34.3981 7.87934 34.3349 8.08811C34.2635 8.32437 34.0474 8.37481 33.8517 8.48171C33.6433 8.59556 33.4365 8.71228 33.2292 8.82794C33.354 8.99658 33.5218 9.40081 33.7637 9.39809C33.8943 9.3966 34.1029 9.24013 34.2232 9.18849C34.41 9.10822 34.6 9.03952 34.7961 8.98561C35.1493 8.88848 35.5148 8.81518 35.8781 8.76138L35.9689 8.74834C36.1929 8.71717 36.3391 8.73389 36.4009 8.49107L36.4085 8.46004C36.462 8.23564 36.4832 8.01277 36.6921 8.32391C36.8113 8.50131 36.8576 8.72399 37.0004 8.88687C37.1079 9.00949 37.3552 9.13745 37.4886 8.96875C37.5851 8.84681 37.4989 8.64974 37.4421 8.53047C37.3655 8.36919 37.249 8.18865 37.108 8.0752C36.9942 7.98356 36.6963 7.97694 36.7587 7.79171C36.8732 7.4521 37.6972 7.67766 37.9096 7.41457C38.152 7.11422 37.9473 6.48249 37.8589 6.16187C37.814 5.99926 37.7743 5.81182 37.6975 5.66038C37.6019 5.47211 37.5421 5.49971 37.3056 5.52079L37.2126 5.5286C36.8839 5.55538 36.5763 5.56974 36.251 5.46806C35.9625 5.37789 35.8718 5.19929 35.6577 5.0138ZM13.463 3.14233L13.1793 3.11418C12.0429 3.00234 10.8956 2.95063 9.76393 3.13967L9.66074 3.15725C8.80674 3.30585 7.82314 3.55902 7.29214 4.2834C6.93387 4.77216 6.67026 5.38191 6.55718 5.98046L6.515 6.21104C6.44321 6.60795 6.34448 7.26857 6.62544 7.48146C6.83786 7.64254 7.05542 7.41069 7.16203 7.2367C7.36466 6.90612 7.46899 6.5243 7.6733 6.18883C7.87192 5.86266 8.08225 5.54205 8.29326 5.2237L8.31015 5.19772C8.43293 5.00566 8.6502 4.6089 8.87297 4.55993C9.41546 4.44086 8.78458 5.88208 8.71395 6.09921L8.68733 6.18274C8.53415 6.65481 8.02883 8.14672 8.62922 8.31033C9.06515 8.42911 9.45989 7.53224 9.60967 7.22747L9.61995 7.20673C9.72582 6.99515 9.8258 6.77963 9.92015 6.56269C10.0471 6.27077 10.2246 5.45348 10.56 5.32939C11.0121 5.1621 10.7589 6.24261 10.7262 6.4077C10.6541 6.7713 10.5661 7.13257 10.4971 7.49697L10.4723 7.63378C10.4229 7.91693 10.3614 8.4292 10.7489 8.51897C10.9575 8.56733 11.121 8.38926 11.2361 8.23996C11.5484 7.83517 11.7105 7.32043 11.9081 6.85187L12.0151 6.602C12.2913 5.96024 12.6364 5.23003 13.3582 5.04978C13.8852 4.91821 14.4415 5.0544 14.9564 5.17655C15.4377 5.29073 15.9232 5.38324 16.4063 5.48954C17.5193 5.73436 18.6338 5.96795 19.7478 6.20749C20.2649 6.31872 20.7719 6.46897 21.2879 6.58342L21.443 6.61661C21.9217 6.71494 22.4236 6.95288 22.9149 6.949C23.2114 6.94659 23.5029 7.04104 23.7165 7.25209L24.3859 5.58339C23.7516 5.43816 23.1493 5.18731 22.5321 4.98577C21.9963 4.81071 21.4461 4.67522 20.9015 4.52835L20.7654 4.49136C19.5154 4.14847 18.2452 3.89127 16.9756 3.632C15.8092 3.39378 14.6438 3.26064 13.463 3.14233ZM36.1996 6.00035C36.4051 5.78222 36.7111 5.76429 36.9889 5.81406C36.9581 6.03721 36.589 5.93373 36.5218 6.13701C36.449 6.35748 36.6764 6.30491 36.812 6.29652L36.8275 6.29575C37.0001 6.2898 37.283 6.31977 37.0711 6.51476C36.8628 6.7064 36.4123 6.71176 36.1862 6.55723C35.9746 6.41255 36.051 6.15802 36.1996 6.00035Z" fill="#212529"/>
</g>
<defs>
<clipPath id="clip0_1024_50535">
<rect width="48" height="44.5237" fill="white" transform="translate(0 2)"/>
</clipPath>
</defs>
</svg>
