<svg width="533" height="302" viewBox="0 0 533 302" fill="none" xmlns="http://www.w3.org/2000/svg">
<path d="M85.3737 11.5325C34.1207 19.7429 -2.46205 62.1116 0.12948 110.259L3.34021 169.911C3.64057 175.491 4.46945 181.036 5.81727 186.482L16.0692 227.904C23.2153 256.777 46.7261 279.77 77.4503 287.934C81.5274 289.017 85.6838 289.825 89.8869 290.351L152.545 298.199L212.195 302H272.964L335.224 298.199L400.094 294.744L438.067 291.15C443.656 290.621 449.131 289.239 454.302 287.053L479.072 276.58C490.852 271.599 501.266 263.867 509.442 254.031L518.181 243.517C525.23 235.035 529.567 224.63 530.629 213.652L532.443 194.883V106.044C532.443 59.7156 496.52 20.0888 447.283 12.1028L413.142 6.56522L339.698 2.07323L262.898 0L190.572 2.07323L116.382 6.56522L85.3737 11.5325Z" fill="#E6F6FA"/>
</svg>
