<svg width="88" height="88" viewBox="0 0 88 88" fill="none" xmlns="http://www.w3.org/2000/svg">
<path d="M44.0004 88C31.6537 88 20.6408 82.2824 13.467 73.3333C20.6408 64.3843 31.6537 58.6667 44.0004 58.6667C56.347 58.6667 67.3599 64.3843 74.5337 73.3333C67.3599 82.2824 56.347 88 44.0004 88Z" fill="#3C9DAE"/>
<path fill-rule="evenodd" clip-rule="evenodd" d="M6.28279 66.6714C15.244 55.8181 28.8122 48.8889 44.0004 48.8889C59.1883 48.8889 72.7563 55.8179 81.7175 66.6709C85.7058 60.0498 88 52.2928 88 44C88 19.6995 68.3005 0 44 0C19.6995 0 0 19.6995 0 44C0 52.293 2.2943 60.0502 6.28279 66.6714ZM58.6667 29.3333C58.6667 37.4335 52.1002 44 44 44C35.8998 44 29.3333 37.4335 29.3333 29.3333C29.3333 21.2332 35.8998 14.6667 44 14.6667C52.1002 14.6667 58.6667 21.2332 58.6667 29.3333Z" fill="#3C9DAE"/>
</svg>
