<svg width="48" height="48" viewBox="0 0 48 48" fill="none" xmlns="http://www.w3.org/2000/svg">
<g clip-path="url(#clip0_1146_49375)">
<rect width="48" height="48" rx="24" fill="white"/>
<g clip-path="url(#clip1_1146_49375)">
<path d="M11.2393 4.74574L13.1918 10.6595L5.6931 7.97152L10.6922 13.4244L5.22465 14.6533L11.0047 16.6502L4.83398 21.8729L9.67709 23.7933L5.22465 27.864L13.4264 27.48L8.73932 34.2386L14.3638 33.4706L12.2544 39.1542L19.3629 35.5444L21.1593 41.7653L23.4246 36.3124L28.1113 41.6889L27.7989 36.0817L35.766 41.1511L33.3446 34.6995L41.4682 36.2355L36.3131 31.1666L42.7962 29.7071L38.0313 26.9422L43.3429 23.4857L37.1722 21.8729L42.8744 18.724L37.094 17.0342L42.9526 12.1955L35.766 12.4262L40.9998 5.74396L32.954 7.66396L34.0478 2.28796L27.8771 7.20352L25.69 2.36441L24.9869 7.51063L21.8624 2.36441L20.8504 8.07863L18.0349 2.90219L17.41 8.35552L11.2393 4.74574Z" fill="#F8E3E3"/>
<path opacity="0.19" d="M50.0832 42.0498H-0.776367V49.6405H50.0832V42.0498Z" fill="#D2AEAD"/>
<path d="M16.5109 12.4315C16.4794 12.108 16.6598 11.7733 16.9478 11.6222C17.2358 11.4711 17.6136 11.5124 17.862 11.7222C17.8034 11.2408 18.4656 10.9408 18.9078 11.1391C19.3505 11.3373 19.5927 11.8084 19.8016 12.2462L20.2278 12.2586C20.75 12.1511 21.326 12.3751 21.638 12.8075C21.95 13.24 21.9816 13.8568 21.7149 14.3186C22.1465 14.6724 22.3136 15.3146 22.1091 15.8342C21.9047 16.3533 21.3438 16.7088 20.7869 16.6728C21.0874 17.3568 20.8225 18.24 20.1954 18.6462C19.5683 19.052 18.654 18.932 18.1531 18.3777C17.7154 18.5964 17.1518 18.5342 16.7723 18.2257C16.3927 17.9168 16.2167 17.3782 16.3416 16.9048C15.8327 16.8155 15.3883 16.4244 15.2354 15.9306C15.0825 15.4368 15.2278 14.8631 15.5971 14.5017C15.1185 14.2235 14.9043 13.5648 15.1278 13.0582C15.3523 12.5515 15.9825 12.2657 16.5109 12.4315Z" fill="#441B13"/>
<path d="M18.6312 15.4009C18.1859 14.9289 18.6232 13.8346 19.0388 13.336C18.7544 13.044 18.7232 12.6822 18.9481 12.3426C19.1735 12.0031 19.1477 11.9329 19.4984 11.7257C19.6072 10.7773 20.5841 10.0195 21.5304 10.1502C21.9406 9.39463 22.9548 9.18085 23.7997 9.33819C24.0059 9.37641 24.2139 9.43196 24.4228 9.41019C24.5761 9.39419 24.7215 9.3373 24.8712 9.30174C25.6957 9.10574 26.5837 9.61063 26.9872 10.3555C27.0517 10.4746 27.4708 10.7697 27.5641 10.868C27.6864 10.9969 27.841 11.0417 27.9477 11.1844C28.3152 11.6755 28.017 11.9382 28.0712 12.3186C28.1175 12.6417 28.2339 12.6017 28.4001 12.8826C28.4832 13.0235 28.6192 13.1302 28.6877 13.2786C28.8868 13.7089 28.4384 14.2142 28.5761 14.6675C28.6041 14.76 28.6557 14.844 28.6912 14.9337C28.7637 15.1177 28.7664 15.3284 28.6988 15.5142C28.6464 15.6577 28.5526 15.7937 28.5588 15.9462C28.5637 16.0622 28.6259 16.1666 28.6601 16.2769C28.7441 16.5475 28.2548 17.6724 28.0312 17.8466L20.9037 18.6253C20.3526 18.5693 19.8641 18.1244 19.757 17.5809C19.7392 17.4906 19.7277 17.3915 19.6641 17.3253C19.6099 17.2684 19.529 17.2484 19.4566 17.2182C18.9726 17.0177 18.8539 16.3924 18.8504 15.8684C18.8499 15.7951 18.8499 15.72 18.8246 15.6511C18.7895 15.5511 18.7046 15.4782 18.6312 15.4009Z" fill="#441B13"/>
<path d="M20.5825 15.1987C20.4447 13.9373 21.1025 12.412 22.3007 11.6782C23.0559 11.2155 23.6727 11.156 24.0843 11.0689C25.0061 10.8742 25.8007 11.2662 25.8007 11.2662C26.203 11.3222 27.767 12.5093 27.9745 13.9351C28.2047 15.5191 28.4239 17.4622 28.3323 18.6658C28.1483 21.0858 26.3421 21.5391 26.3421 21.5391C26.3416 21.5355 26.4487 22.792 26.4487 22.792L24.8492 24.5911L21.7954 22.7582L20.5825 15.1987Z" fill="#F8C8B4"/>
<path d="M25.4072 14.9089C25.4428 14.892 25.8126 15.5955 26.233 16.48C26.3343 16.6982 26.4317 16.9062 26.5241 17.1053C26.5637 17.1982 26.6277 17.3026 26.5948 17.4324C26.577 17.4973 26.5192 17.548 26.4663 17.5666C26.4139 17.5875 26.3663 17.5924 26.325 17.5982C25.9921 17.6435 25.785 17.6618 25.7823 17.6431C25.7792 17.6244 25.9814 17.5724 26.3099 17.5026C26.3934 17.4871 26.4717 17.464 26.481 17.4053C26.4957 17.3426 26.4534 17.2551 26.4046 17.1604C26.3086 16.9631 26.2086 16.7564 26.1032 16.5395" fill="#441B13"/>
<path d="M26.3413 21.5392C26.3413 21.5392 24.7302 21.7609 23.0596 20.9338C23.0596 20.9338 24.0182 22.5534 26.3907 22.1343L26.3413 21.5392Z" fill="#E0B5A6"/>
<path d="M21.1494 17.4169C21.1342 17.2391 20.8947 16.8365 20.7165 16.8231C20.2414 16.7885 19.3987 16.8951 19.488 18.0871C19.6102 19.7169 21.5218 19.2378 21.5214 19.1907C21.5214 19.1542 21.2014 18.0311 21.1494 17.4169Z" fill="#F8C8B4"/>
<path d="M20.8128 18.6578C20.8052 18.6534 20.7861 18.68 20.7394 18.7054C20.6941 18.7302 20.615 18.7511 20.5274 18.7258C20.3505 18.6756 20.1852 18.4129 20.155 18.12C20.1394 17.972 20.1603 17.8285 20.2039 17.7076C20.2448 17.5845 20.3154 17.4956 20.4012 17.4738C20.4861 17.4476 20.551 17.4947 20.5745 17.5391C20.5999 17.5831 20.5919 17.6165 20.6008 17.6187C20.6057 17.6227 20.6337 17.5889 20.6154 17.5227C20.6061 17.4907 20.5843 17.4538 20.5434 17.4254C20.5021 17.3965 20.4434 17.3845 20.3834 17.3956C20.2585 17.4138 20.1541 17.5378 20.1057 17.6707C20.0505 17.8045 20.0243 17.9662 20.0412 18.1325C20.0763 18.46 20.2674 18.7547 20.5083 18.8054C20.6252 18.8267 20.7181 18.7849 20.7648 18.7427C20.8128 18.6978 20.8185 18.6605 20.8128 18.6578Z" fill="#E0B5A6"/>
<path d="M28.7176 13.9138C28.3714 13.7352 28.1385 13.4729 28.1269 13.0836C27.914 13.1667 27.6696 12.9036 27.5265 12.7254C27.3838 12.5472 27.2198 12.4645 27.2109 12.2365C27.2091 12.1916 27.2083 12.1436 27.1838 12.1058C27.1456 12.0463 27.0665 12.0321 26.9971 12.0165C26.6411 11.9369 26.3349 11.6627 26.2163 11.3174C25.8798 11.4987 25.4976 11.5947 25.1154 11.5934C24.9669 11.8516 24.6803 12.0249 24.3825 12.0365C24.0847 12.0481 23.7856 11.8974 23.6176 11.6512C23.5358 11.8632 23.3354 12.0112 23.1203 12.0849C22.9056 12.1587 22.6749 12.1685 22.4478 12.1774C22.5816 12.6067 22.3376 13.1187 21.9203 13.2858C21.8638 13.3085 21.798 13.3316 21.7763 13.3881C21.7531 13.4467 21.7891 13.5103 21.8163 13.5676C21.9891 13.9285 21.7807 14.4183 21.4011 14.5441C21.6847 14.7285 21.6963 15.2089 21.4225 15.4072C21.366 15.4481 21.2923 15.4974 21.3074 15.5649C21.3131 15.5907 21.3314 15.6116 21.3487 15.6316C21.4834 15.7827 21.6185 15.9485 21.65 16.1485C21.6816 16.3485 21.5643 16.5854 21.3634 16.6107C21.4771 16.6961 21.5856 16.8089 21.5998 16.9503C21.614 17.0916 21.2589 17.3458 21.1229 17.3058C21.0651 17.2889 20.7198 17.0801 20.426 16.6649C19.9758 16.0285 20.4349 15.7258 20.4163 14.9467C20.398 14.1672 20.6069 13.3938 20.9389 12.6885C21.078 12.3925 21.2407 12.1049 21.4527 11.8561C21.6945 11.5721 21.9945 11.3449 22.294 11.1227C22.6847 10.8329 23.0865 10.5423 23.5491 10.3921C24.4109 10.1125 25.3505 10.3565 26.2016 10.6676C26.5251 10.7858 26.8487 10.9161 27.1291 11.1165C27.4647 11.3561 27.7243 11.6867 27.9549 12.0285C28.2883 12.5223 28.5754 13.0609 28.6816 13.6472" fill="#441B13"/>
<path d="M29.4616 11.6178C29.442 12.3449 28.8593 13.0169 28.1425 13.1396C27.4256 13.2622 26.6527 12.8213 26.3931 12.1422C26.1718 12.4413 25.7469 12.5707 25.3967 12.4462C25.046 12.3218 24.7984 11.9529 24.8158 11.5813C24.3696 11.8573 23.7349 11.6951 23.4065 11.2858C23.078 10.8765 23.0358 10.2849 23.2158 9.79201C23.4078 9.26623 23.8402 8.83379 24.3656 8.64134C24.8909 8.4489 25.5002 8.50001 25.9865 8.77734C26.6385 8.24446 27.7664 8.49823 28.1269 9.25912C28.986 9.36579 29.6193 10.3462 29.3629 11.1729" fill="#441B13"/>
<path d="M24.5883 9.67817C24.5909 9.67329 24.5518 9.64084 24.4687 9.60617C24.386 9.57062 24.2567 9.53462 24.0931 9.53684C23.9309 9.53773 23.7332 9.57862 23.5443 9.68929C23.358 9.79906 23.1736 9.97951 23.1043 10.236C23.0483 10.4315 23.1389 10.6711 23.3305 10.7395L23.3083 10.6568C23.19 10.8062 23.1376 10.9813 23.1318 11.1351C23.1234 11.2897 23.1576 11.4248 23.202 11.5271C23.2949 11.7342 23.418 11.8053 23.4207 11.7977C23.4331 11.7866 23.3314 11.7004 23.2629 11.5031C23.1945 11.3151 23.1763 10.9835 23.3887 10.7235L23.4349 10.6666L23.3665 10.6408C23.2407 10.5937 23.1652 10.4204 23.2109 10.2613C23.2674 10.0488 23.4305 9.87729 23.5967 9.77551C23.7652 9.67017 23.9456 9.6244 24.0963 9.61373C24.4034 9.59284 24.5812 9.69951 24.5883 9.67817Z" fill="#34110D"/>
<path d="M27.5514 15.7645C27.5207 15.813 27.25 15.6845 26.9145 15.7516C26.5785 15.8138 26.366 16.0352 26.3216 16.001C26.3003 15.9863 26.3252 15.905 26.4167 15.8058C26.5069 15.7072 26.6723 15.5961 26.8816 15.5556C27.0909 15.5156 27.2821 15.5578 27.3985 15.617C27.5172 15.6761 27.9478 15.4596 27.5514 15.7645Z" fill="#441B13"/>
<path d="M27.3366 14.7404C27.3193 14.8444 27.0424 14.9284 26.7597 15.108C26.4722 15.2791 26.2704 15.4889 26.1713 15.4564C26.1255 15.4391 26.1206 15.3493 26.1846 15.22C26.2468 15.092 26.3851 14.9306 26.5811 14.8097C26.7771 14.6897 26.9824 14.64 27.1233 14.6431C27.2659 14.6457 27.3419 14.6915 27.3366 14.7404Z" fill="#441B13"/>
<path d="M23.0389 15.9968C23.078 16.0386 23.3198 15.8613 23.662 15.8635C24.0038 15.8608 24.254 16.0382 24.2914 15.9959C24.3096 15.9777 24.2696 15.9026 24.1607 15.8226C24.0536 15.7431 23.87 15.6653 23.6571 15.6653C23.4438 15.6657 23.2642 15.7435 23.1611 15.8231C23.0558 15.9031 22.5274 15.6648 23.0389 15.9968Z" fill="#441B13"/>
<path d="M23.3741 14.844C23.3852 14.9463 23.6483 15.0303 23.9114 15.2076C24.1803 15.3769 24.3639 15.584 24.4612 15.5525C24.5061 15.5356 24.5154 15.4476 24.4608 15.32C24.4074 15.1938 24.2821 15.0347 24.0994 14.9151C23.9163 14.796 23.7212 14.7467 23.5852 14.7494C23.447 14.7507 23.3714 14.7956 23.3741 14.844Z" fill="#441B13"/>
<path d="M25.2205 18.1355C24.9494 17.9537 24.5094 17.8039 24.2614 18.0221C24.1374 18.1315 24.0685 18.3115 24.0476 18.4888C24.0218 18.7075 24.105 18.9537 24.2547 19.0941C24.4045 19.235 24.5943 19.3581 24.7881 19.3608C24.8281 19.3612 24.9298 19.3768 24.9698 19.3728C25.225 19.3475 25.3778 19.2612 25.5952 18.9199C25.9423 18.3212 25.4916 18.3172 25.2205 18.1355Z" fill="#E0B5A6"/>
<path d="M25.2843 19.2711C25.2852 19.2724 25.2732 19.28 25.2501 19.2933C25.227 19.3066 25.1914 19.324 25.1434 19.3404C25.0488 19.3742 24.899 19.4035 24.7181 19.3724C24.5403 19.3431 24.3261 19.2417 24.1866 19.0386C24.0474 18.8417 23.9777 18.5555 24.0648 18.284C24.1079 18.1506 24.1892 18.028 24.3052 17.9564C24.423 17.8871 24.5572 17.872 24.6786 17.8884C24.9177 17.9346 25.111 18.0368 25.2657 18.1284C25.4199 18.2217 25.5399 18.3031 25.6292 18.348C25.7177 18.3942 25.7723 18.4071 25.771 18.4111C25.7706 18.4124 25.7572 18.4097 25.731 18.4035C25.7052 18.3968 25.6679 18.384 25.6217 18.3631C25.5288 18.3222 25.4052 18.244 25.2501 18.1546C25.0954 18.0671 24.9017 17.9693 24.6723 17.9271C24.5599 17.912 24.4319 17.9284 24.3261 17.9915C24.2212 18.0564 24.1448 18.1706 24.1039 18.2968C24.0212 18.5528 24.0866 18.8271 24.2172 19.016C24.3483 19.2106 24.5506 19.3102 24.7221 19.3426C24.8963 19.3764 25.0426 19.3528 25.1372 19.3244C25.2341 19.2955 25.2821 19.2671 25.2843 19.2711Z" fill="#441B13"/>
<path d="M23.9984 17.1129C23.9904 17.2991 23.6495 17.436 23.237 17.4177C22.8246 17.4 22.497 17.2342 22.505 17.048C22.513 16.8617 22.8539 16.7249 23.2664 16.7431C23.6788 16.7609 24.0064 16.9262 23.9984 17.1129Z" fill="#E1A7A3"/>
<path d="M28.0025 16.7196C28.034 16.9036 27.73 17.1094 27.3234 17.1791C26.9167 17.2494 26.5611 17.1569 26.5296 16.9734C26.498 16.7894 26.802 16.5836 27.2087 16.5138C27.6154 16.4436 27.9709 16.5356 28.0025 16.7196Z" fill="#E1A7A3"/>
<path d="M27.2819 13.4577C27.0659 13.0813 26.6108 12.9271 26.1953 12.8022C25.7566 12.6706 25.3179 12.5391 24.8788 12.4075C24.7348 12.3644 24.589 12.3209 24.4393 12.3129C24.1593 12.2978 23.8775 12.4062 23.6024 12.3515L23.2766 12.4111C22.9935 12.5809 22.6575 13.0804 22.6575 13.0804C22.5344 13.1897 22.3677 13.5475 22.3246 13.8751C22.2984 14.0746 22.3317 14.296 22.4744 14.4382C22.6553 14.6186 22.9486 14.6164 23.1979 14.56C23.4473 14.5035 23.6953 14.404 23.949 14.432C24.1882 14.4582 24.4006 14.5942 24.633 14.656C25.0833 14.776 25.5548 14.6102 25.9913 14.4462C26.3419 14.3146 26.693 14.1831 27.0437 14.0515C27.1424 14.0146 27.2477 13.9729 27.3077 13.8862C27.3939 13.7626 27.3575 13.5889 27.2819 13.4577Z" fill="#E0B5A6"/>
<path d="M19.6394 17.3094C19.6389 17.3103 19.6265 17.3049 19.6038 17.2929C19.5811 17.2805 19.5456 17.2649 19.5038 17.2374C19.4194 17.1845 19.3016 17.0952 19.1825 16.9538C19.0647 16.8129 18.9451 16.6183 18.8785 16.3729C18.8074 16.1303 18.7949 15.8343 18.8874 15.5396L18.8914 15.5587C18.6562 15.2907 18.5082 14.9045 18.5069 14.4965C18.5025 14.0218 18.6918 13.5743 18.9869 13.2969L18.9856 13.3232C18.8962 13.2041 18.8642 13.0667 18.8465 12.9383C18.8309 12.8089 18.8345 12.6841 18.8518 12.5689C18.8891 12.3383 18.9838 12.1494 19.0887 12.0174C19.1016 12.0009 19.1145 11.9845 19.1265 11.9689C19.1398 11.9543 19.1545 11.9409 19.1674 11.9276C19.1945 11.9018 19.2185 11.8752 19.2438 11.8547C19.2971 11.8161 19.3394 11.7787 19.3794 11.7569C19.4167 11.7365 19.4465 11.7201 19.4705 11.7067C19.4914 11.6956 19.502 11.6903 19.5025 11.6916C19.5029 11.6925 19.4931 11.6996 19.4731 11.7125C19.4505 11.7267 19.4216 11.7449 19.386 11.7676C19.3474 11.7907 19.3069 11.8294 19.2558 11.8685C19.2314 11.8894 19.2087 11.9161 19.1825 11.9423C19.17 11.9556 19.1558 11.9689 19.1434 11.9836C19.1318 11.9992 19.1194 12.0156 19.1074 12.0321C19.0074 12.1632 18.918 12.3485 18.8838 12.5743C18.8682 12.6872 18.8656 12.8085 18.882 12.9343C18.8994 13.0583 18.934 13.1925 19.0149 13.2987L19.026 13.3134L19.0136 13.3254C18.7282 13.5969 18.5447 14.0338 18.5491 14.4969C18.55 14.8952 18.6936 15.2712 18.9207 15.5334L18.9282 15.5418L18.9247 15.5525C18.8336 15.8374 18.8434 16.1263 18.9105 16.3645C18.9731 16.6054 19.0878 16.7978 19.2011 16.9387C19.4336 17.2223 19.6478 17.2996 19.6394 17.3094Z" fill="#34110D"/>
<path d="M29.3487 38.895C29.3487 38.895 30.4087 40.0622 31.7781 39.9582C32.3945 39.9115 32.9105 39.4764 33.2918 39.0124C33.7158 38.4964 34.0105 37.8875 34.1736 37.2399C34.327 36.6302 34.5496 35.7288 34.6047 35.427C34.6905 34.955 34.2918 33.9502 34.2918 33.9502C34.2918 33.9502 33.4865 27.9599 33.5758 27.2146C33.7616 25.6577 32.2905 24.6453 32.2905 24.6453L28.8398 31.0093L29.3487 38.895Z" fill="#E46F6F"/>
<path d="M14.4127 28.7484C14.4114 28.8101 13.9772 31.1924 13.9198 32.7439C13.8625 34.2955 13.8718 35.387 14.4127 37.5417C14.954 39.6964 16.2625 40.1821 17.2812 39.9581C19.1909 39.5381 19.1705 38.0741 19.1483 37.287C19.1238 36.4039 16.4158 26.2066 16.4158 26.2066L16.0154 24.4893C16.0154 24.4897 14.4527 26.9933 14.4127 28.7484Z" fill="#E46F6F"/>
<path d="M18.79 23.4075C18.8278 23.3951 21.7754 22.5084 21.7754 22.5084H26.3909L28.8394 23.5106L25.1776 26.3969L22.3918 26.7484L18.79 23.4075Z" fill="#F8C8B4"/>
<path d="M29.3622 37.3751C29.2706 37.2609 29.6666 35.5538 29.9591 33.9396C30.2128 32.5404 30.8017 29.1609 30.8017 29.1609C30.8017 29.1609 32.26 24.7316 32.2902 24.6458C32.3208 24.56 27.2653 22.8453 27.2653 22.8453C27.2653 22.8453 27.0613 25.0267 24.2635 25.3693C21.4653 25.7124 19.9644 22.9453 19.9644 22.9453L15.7471 24.2387L16.9395 29.0187C16.9395 29.0187 18.1626 33.5342 18.3768 35.2204L18.3746 36.1511C18.3728 36.8258 18.7884 37.2249 18.512 37.84C17.736 39.5662 16.8168 40.8653 16.5617 42.1276L31.4528 42.0933C30.6253 39.7982 29.616 37.8542 29.4031 37.4524C29.3888 37.4182 29.3751 37.3916 29.3622 37.3751Z" fill="#E46F6F"/>
<path d="M13.9338 34.8697C13.9284 34.8702 13.9191 34.7991 13.92 34.6835C13.9204 34.568 13.9342 34.408 13.9724 34.2355C14.0111 34.0631 14.0671 33.9124 14.1155 33.8075C14.164 33.7026 14.2026 33.6422 14.2071 33.6449C14.2195 33.6506 14.0884 33.9044 14.0138 34.2449C13.9364 34.584 13.9471 34.8697 13.9338 34.8697Z" fill="#B24B4B"/>
<path d="M18.7117 36.5805C18.7103 36.5809 18.7037 36.5685 18.6921 36.5445C18.6792 36.5156 18.6632 36.4805 18.6441 36.4378C18.601 36.3387 18.5432 36.2054 18.4726 36.0431C18.3281 35.7098 18.1272 35.2498 17.8868 34.7507C17.6454 34.2516 17.405 33.8111 17.2161 33.5014C17.1699 33.4231 17.1259 33.3538 17.0877 33.2929C17.0499 33.2316 17.0161 33.1791 16.9881 33.1369C16.9628 33.0974 16.9419 33.0649 16.925 33.0382C16.9108 33.0156 16.9041 33.0031 16.9054 33.0022C16.9068 33.0014 16.9157 33.012 16.9321 33.0334C16.9508 33.0587 16.9739 33.0898 17.0019 33.1276C17.0326 33.1685 17.0681 33.2196 17.1077 33.2796C17.1481 33.3396 17.1943 33.4076 17.2419 33.4854C17.4379 33.7925 17.6832 34.232 17.925 34.732C18.1663 35.232 18.3628 35.6947 18.5006 36.0316C18.5694 36.2 18.6232 36.3369 18.6597 36.4316C18.6761 36.4756 18.6894 36.5116 18.7006 36.5414C18.709 36.5667 18.713 36.58 18.7117 36.5805Z" fill="#B24B4B"/>
<path d="M18.0901 34.22C18.0812 34.2294 17.955 34.1054 17.7679 34.0005C17.5817 33.8938 17.4106 33.8489 17.4141 33.8365C17.4155 33.8262 17.5959 33.8534 17.7888 33.9636C17.9821 34.0725 18.0986 34.2134 18.0901 34.22Z" fill="#B24B4B"/>
<path d="M25.4311 31.6365C25.4325 31.6365 25.4347 31.6494 25.4369 31.6747C25.4391 31.7049 25.4422 31.7409 25.4454 31.7845C25.4494 31.8325 25.4525 31.8907 25.4516 31.9587C25.4511 32.0267 25.4538 32.1045 25.4476 32.1898C25.4436 32.2756 25.4382 32.3694 25.4254 32.4694C25.4165 32.5698 25.3969 32.676 25.3782 32.788C25.3347 33.0107 25.2725 33.2529 25.184 33.4996C25.0934 33.7454 24.9858 33.9716 24.876 34.1698C24.8182 34.2676 24.7654 34.3614 24.7076 34.444C24.6534 34.5294 24.5974 34.6045 24.5454 34.6729C24.4956 34.7427 24.4436 34.8005 24.4 34.8529C24.3569 34.9058 24.3169 34.9485 24.2836 34.9827C24.2529 35.0138 24.2276 35.04 24.2067 35.0614C24.1889 35.0791 24.1787 35.088 24.1778 35.0867C24.1769 35.0858 24.1845 35.0751 24.2005 35.0556C24.22 35.0325 24.2431 35.0049 24.2716 34.9716C24.3031 34.936 24.3414 34.8916 24.3822 34.8378C24.4236 34.7845 24.4738 34.7254 24.5218 34.6551C24.572 34.5863 24.6262 34.5103 24.6787 34.4249C24.7347 34.3418 24.7862 34.248 24.8427 34.1507C24.9498 33.9529 25.0551 33.7285 25.1449 33.4849C25.2325 33.2405 25.2956 33.0009 25.3405 32.7805C25.36 32.6698 25.3805 32.5645 25.3907 32.4649C25.4054 32.3658 25.412 32.2729 25.4182 32.188C25.4267 32.1031 25.4258 32.0263 25.4285 31.9583C25.4316 31.8907 25.4307 31.832 25.4294 31.7845C25.4289 31.7409 25.4289 31.7045 25.4289 31.6743C25.4289 31.6498 25.4298 31.6365 25.4311 31.6365Z" fill="#B24B4B"/>
<path d="M29.9238 36.6418C30.2763 35.8675 30.7154 35.1333 31.2305 34.4564Z" fill="#EC6E5C"/>
<path d="M31.4298 33.0022C31.4334 33.0142 31.1774 33.0969 30.8761 33.2338C30.5743 33.3693 30.3427 33.5071 30.3361 33.496C30.333 33.4911 30.3872 33.4507 30.4805 33.3938C30.5734 33.3364 30.7063 33.264 30.8583 33.1951C31.0103 33.1267 31.1525 33.0751 31.257 33.0427C31.3618 33.0107 31.4285 32.9969 31.4298 33.0022Z" fill="#B24B4B"/>
<path d="M31.7216 31.9964C31.73 32.0048 31.4553 32.2919 31.1087 32.6377C30.762 32.9835 30.474 33.2573 30.466 33.2488C30.4576 33.2404 30.7322 32.9537 31.0789 32.6075C31.4251 32.2622 31.7131 31.9884 31.7216 31.9964Z" fill="#B24B4B"/>
<path d="M16.5616 42.1267C16.5612 42.1267 16.5621 42.1196 16.5652 42.1053C16.5687 42.0898 16.5732 42.0689 16.5794 42.0431C16.5941 41.9889 16.6074 41.9058 16.6425 41.8031C16.703 41.5947 16.8132 41.2982 16.967 40.9316C17.2776 40.1991 17.775 39.192 18.4087 38.0489L18.4079 38.0507C18.6679 37.4573 18.7234 36.7342 18.675 36.0044C18.6465 35.552 18.5776 35.1138 18.4994 34.6933C18.4199 34.2729 18.327 33.8707 18.2314 33.4893C18.0394 32.7267 17.8412 32.0458 17.6807 31.4724C17.5194 30.8996 17.3954 30.4338 17.3181 30.1098C17.2799 29.9476 17.251 29.8218 17.2336 29.7356C17.2252 29.6942 17.2185 29.6618 17.2141 29.6378C17.2101 29.6156 17.2079 29.6044 17.2087 29.604C17.2096 29.604 17.2127 29.6151 17.2181 29.6369C17.2239 29.6604 17.2319 29.6929 17.2421 29.7338C17.2634 29.8209 17.2945 29.9458 17.3341 30.1058C17.4163 30.4284 17.5447 30.8924 17.7096 31.4644C17.8736 32.0364 18.075 32.7164 18.2692 33.48C18.3661 33.8618 18.4603 34.2644 18.5403 34.6862C18.6194 35.1076 18.6883 35.5476 18.7172 36.0022C18.7661 36.736 18.7096 37.4653 18.4447 38.0676L18.4443 38.0684L18.4439 38.0693C17.8083 39.2098 17.3065 40.2138 16.9901 40.9422C16.8336 41.3071 16.7194 41.6013 16.6554 41.808C16.6185 41.9098 16.603 41.992 16.5865 42.0458C16.5794 42.0716 16.5736 42.0916 16.5692 42.1071C16.5647 42.12 16.5625 42.1271 16.5616 42.1267Z" fill="#B24B4B"/>
<path d="M31.453 42.0925C31.4526 42.0929 31.4486 42.0844 31.4415 42.0684C31.4339 42.0507 31.4237 42.0267 31.4108 41.996C31.3837 41.9302 31.345 41.836 31.2957 41.7156C31.1961 41.4689 31.053 41.1133 30.8744 40.6711C30.5188 39.78 30.0228 38.5378 29.4588 37.1244L29.457 37.1196L29.4575 37.1147C29.477 36.9285 29.4975 36.7382 29.5175 36.5453C29.5424 36.3529 29.5677 36.1573 29.593 35.96C29.8361 34.1711 30.3561 32.616 30.645 31.4756C30.7957 30.9058 30.9046 30.4413 30.9784 30.12C31.0144 29.9609 31.0424 29.8364 31.0619 29.7498C31.0717 29.7093 31.0793 29.6773 31.0846 29.6538C31.0899 29.632 31.093 29.6213 31.0939 29.6213C31.0948 29.6213 31.093 29.6329 31.089 29.6547C31.0846 29.6787 31.0784 29.7107 31.0704 29.7516C31.0526 29.8387 31.0273 29.9636 30.9944 30.1236C30.9255 30.4458 30.821 30.912 30.6739 31.4831C30.3921 32.6271 29.8775 34.1813 29.6348 35.9658C29.6095 36.1631 29.5841 36.3582 29.5593 36.5502C29.5388 36.7431 29.5184 36.9324 29.4988 37.1187L29.4975 37.1089C30.0561 38.5245 30.5473 39.7685 30.8997 40.6613C31.0735 41.1058 31.2126 41.4627 31.3095 41.7107C31.3561 41.8324 31.3926 41.9271 31.4179 41.9938C31.4295 42.0249 31.4384 42.0489 31.445 42.0676C31.4508 42.0836 31.4535 42.0925 31.453 42.0925Z" fill="#B24B4B"/>
<path d="M15.9805 29.7298C15.9805 29.7298 16.5987 28.7604 16.6969 28.156C16.7952 27.552 16.964 27.1022 16.964 27.1022C16.964 27.1022 18.636 26.3436 18.8187 25.8236C19.0014 25.3036 18.8889 25.1351 18.5378 25.36C18.1867 25.5849 17.1836 26.3071 16.4907 26.1218C15.7978 25.9364 15.7556 25.388 15.7556 25.388C15.7556 25.388 16.5845 23.9129 16.4863 23.6036C16.388 23.2942 16.1325 23.196 15.9089 23.4489C15.6854 23.7018 15.1232 24.896 15.1232 24.896C15.1232 24.896 14.4489 24.0671 14.5752 23.6453C14.7018 23.224 15.0107 22.8196 14.8058 22.6147C14.6432 22.452 14.4183 22.556 14.2187 22.8693C14.064 23.1124 14.0689 23.1409 14.0689 23.1409C14.0689 23.1409 13.9285 22.3107 13.6894 22.1982C13.4507 22.0858 13.2538 22.184 13.3383 22.6058C13.4227 23.0271 13.9987 24.7556 14.0827 25.5C14.1672 26.2444 13.8018 28.8582 13.9 29.5182C13.9983 30.1782 14.2512 34.0004 14.2512 34.0004C14.2512 34.0004 14.9218 35.9533 16.1112 35.4898C17.3 35.0262 17.1316 33.6071 17.0894 33.5929C17.0485 33.5796 15.9805 29.7298 15.9805 29.7298Z" fill="#F8C8B4"/>
<path d="M14.3852 25.5489C14.3825 25.5498 14.3674 25.5178 14.3434 25.4591C14.3194 25.4 14.2861 25.3143 14.2465 25.2076C14.1679 24.9943 14.0621 24.6978 13.9643 24.3636C13.9403 24.28 13.9176 24.1983 13.899 24.1178C13.8821 24.0365 13.8701 23.9565 13.8705 23.88C13.8665 23.7271 13.8919 23.5907 13.923 23.4805C13.9541 23.3698 13.9905 23.2845 14.019 23.2271C14.0474 23.1698 14.0683 23.1409 14.0705 23.1423C14.0732 23.1436 14.0576 23.1751 14.0341 23.2338C14.0105 23.2925 13.9785 23.3787 13.9519 23.488C13.9252 23.5974 13.9039 23.7307 13.9096 23.8791C13.9119 24.0276 13.9568 24.1854 14.0052 24.3525C14.1025 24.6849 14.2039 24.9823 14.275 25.1983C14.3083 25.2996 14.3368 25.3854 14.3594 25.4543C14.3781 25.5138 14.3879 25.5476 14.3852 25.5489Z" fill="#E0B5A6"/>
<path d="M32.4961 29.9738C32.4961 29.9738 31.8579 28.9729 31.7566 28.3493C31.6553 27.7258 31.481 27.2618 31.481 27.2618C31.481 27.2618 29.7553 26.4787 29.5668 25.9422C29.3784 25.4058 29.4944 25.2315 29.857 25.4635C30.2197 25.6955 31.2548 26.4413 31.9699 26.2498C32.685 26.0582 32.7286 25.4924 32.7286 25.4924C32.7286 25.4924 31.873 23.9698 31.9744 23.6507C32.0757 23.3315 32.3393 23.2302 32.5704 23.4911C32.801 23.752 33.3815 24.9849 33.3815 24.9849C33.3815 24.9849 34.0775 24.1293 33.9473 23.6942C33.8166 23.2591 33.4975 22.8418 33.709 22.6302C33.877 22.4622 34.109 22.5698 34.3148 22.8929C34.4748 23.144 34.4695 23.1733 34.4695 23.1733C34.4695 23.1733 34.6144 22.3164 34.861 22.2004C35.1077 22.0844 35.3108 22.1858 35.2237 22.6209C35.1366 23.056 34.5419 24.8395 34.4553 25.6084C34.3681 26.3769 34.7455 29.0747 34.6437 29.756C34.5424 30.4378 34.281 34.3822 34.281 34.3822C34.281 34.3822 33.5886 36.3982 32.3615 35.9195C31.1344 35.4409 31.3081 33.9764 31.3517 33.9618C31.3939 33.9471 32.4961 29.9738 32.4961 29.9738Z" fill="#F8C8B4"/>
<path d="M34.143 25.6578C34.1403 25.6569 34.1501 25.6218 34.1706 25.5592C34.1937 25.4885 34.223 25.4 34.2577 25.2952C34.3315 25.0725 34.4359 24.7654 34.5363 24.4223C34.5866 24.2503 34.6328 24.0872 34.635 23.9338C34.6412 23.7809 34.619 23.6427 34.5915 23.5303C34.5639 23.4174 34.5306 23.3285 34.5066 23.268C34.4821 23.2076 34.4661 23.1752 34.4683 23.1734C34.471 23.172 34.4919 23.2018 34.5212 23.2614C34.5506 23.3205 34.5883 23.4089 34.6203 23.5232C34.6523 23.6369 34.6781 23.7778 34.6741 23.9356C34.6741 24.0147 34.6621 24.0969 34.6448 24.1809C34.6257 24.264 34.6021 24.3485 34.5772 24.4347C34.4759 24.7792 34.367 25.0854 34.2861 25.3058C34.2452 25.416 34.211 25.5045 34.1861 25.5654C34.1612 25.6258 34.1457 25.6592 34.143 25.6578Z" fill="#E0B5A6"/>
<path d="M29.4619 11.4688C33.8699 11.5048 34.7374 11.7222 34.753 12.3351C34.7717 13.064 30.1926 13.772 24.5254 13.9168C18.8583 14.0617 13.1526 13.7191 13.1339 12.9902C13.1179 12.3604 15.0539 11.4782 19.6406 11.2297" stroke="#E3AEAE" stroke-width="2" stroke-miterlimit="10" stroke-linecap="round" stroke-linejoin="round"/>
<path d="M29.4199 10.8263C29.4346 10.8245 29.4497 10.8227 29.4644 10.8209" stroke="#F8E3E3" stroke-miterlimit="10"/>
<path d="M29.5527 10.8107C33.9914 10.2862 34.5536 10.4733 34.6456 11.0907C34.7527 11.812 30.2936 13.0711 24.686 13.9036C19.0785 14.736 13.7549 14.8338 13.6478 14.1125C13.5603 13.5213 15.222 12.6027 19.3967 11.5667" stroke="#F8E3E3" stroke-miterlimit="10" stroke-dasharray="2 2"/>
<path d="M19.4395 11.5556C19.4537 11.552 19.4683 11.5485 19.4826 11.5449" stroke="#F8E3E3" stroke-miterlimit="10"/>
<path d="M32.4085 10.5364C32.4223 10.6822 32.3148 10.8115 32.169 10.8253C32.0232 10.8391 31.8939 10.7315 31.8801 10.5857C31.8663 10.44 31.9739 10.3106 32.1197 10.2968C32.2654 10.2831 32.3952 10.3902 32.4085 10.5364Z" fill="#E3AEAE"/>
<path d="M17.9704 12.2141C18.117 12.2141 18.2357 12.0953 18.2357 11.9488C18.2357 11.8023 18.117 11.6835 17.9704 11.6835C17.8239 11.6835 17.7051 11.8023 17.7051 11.9488C17.7051 12.0953 17.8239 12.2141 17.9704 12.2141Z" fill="#E3AEAE"/>
<path d="M30.7357 13.4973C30.7495 13.643 30.6419 13.7724 30.4961 13.7862C30.3504 13.7999 30.221 13.6924 30.2072 13.5466C30.1935 13.4008 30.301 13.2715 30.4468 13.2577C30.593 13.2444 30.7224 13.3515 30.7357 13.4973Z" fill="#E3AEAE"/>
<path d="M16.6165 13.7288C16.6303 13.8746 16.5228 14.0039 16.377 14.0177C16.2312 14.0315 16.1019 13.9239 16.0881 13.7782C16.0743 13.6324 16.1819 13.5031 16.3277 13.4893C16.4739 13.4759 16.6032 13.5831 16.6165 13.7288Z" fill="#E3AEAE"/>
<path d="M50.8558 42.1022C22.1811 42.1022 -1.05664 42.0759 -1.05664 42.0439Z" fill="#B24B4B"/>
<path d="M12.5703 43.9196L18.3076 46.188L22.2668 43.9196L15.8072 41.9951L12.5703 43.9196Z" fill="#EBEBEB"/>
<path d="M11.1627 43.0072L15.7218 41.4658L22.7738 43.5667L18.4027 45.9334L13.0902 43.8956L12.6431 43.9098C12.6169 43.9107 12.5911 43.9067 12.5667 43.8983L11.1604 43.408C10.9702 43.3418 10.9716 43.0716 11.1627 43.0072Z" fill="#EACACA"/>
<path d="M18.2669 44.5595L20.1149 43.6315L19.2135 43.3551L17.2549 44.2902L18.2669 44.5595Z" fill="#E0E0E0"/>
<path d="M15.1836 43.6453L20.9209 45.9138L24.88 43.6453L18.4205 41.7213L15.1836 43.6453Z" fill="#EBEBEB"/>
<path d="M13.5982 42.752L18.1573 41.2107L25.2093 43.3116L20.8382 45.6782L15.5258 43.6405L15.0787 43.6547C15.0524 43.6556 15.0267 43.6516 15.0022 43.6431L13.596 43.1529C13.4058 43.0862 13.4071 42.8165 13.5982 42.752Z" fill="#E3AEAE"/>
<path d="M20.7019 44.304L22.5499 43.3764L21.6481 43.1L19.6895 44.0351L20.7019 44.304Z" fill="#E0E0E0"/>
<path d="M28.9888 15.4159C28.9616 15.4159 28.9376 15.3964 28.9328 15.3688C28.9274 15.3377 28.9483 15.3079 28.979 15.3026C29.0821 15.2844 29.1723 15.2275 29.2323 15.1417C29.2928 15.0559 29.3159 14.9519 29.2976 14.8484C29.2603 14.6355 29.0568 14.4924 28.8434 14.5297C28.8123 14.5355 28.783 14.5146 28.7772 14.4835C28.7719 14.4524 28.7928 14.4226 28.8234 14.4173C29.0985 14.3693 29.3616 14.5537 29.4096 14.8288C29.4328 14.9622 29.403 15.0964 29.3252 15.2075C29.2474 15.3182 29.1314 15.3919 28.9981 15.4155C28.9954 15.4159 28.9919 15.4159 28.9888 15.4159Z" fill="#E3AEAE"/>
<path d="M30.0951 14.6631C30.0324 14.6631 29.9684 14.6515 29.9066 14.6266C29.7808 14.5759 29.6826 14.4799 29.6297 14.3555C29.5768 14.2311 29.5751 14.0933 29.6257 13.9679C29.6373 13.9386 29.6706 13.9244 29.7 13.9364C29.7293 13.9479 29.7435 13.9813 29.7315 14.0106C29.6924 14.1079 29.6937 14.2146 29.7346 14.3111C29.776 14.4075 29.852 14.4822 29.9493 14.5213C30.1497 14.6017 30.3791 14.5044 30.46 14.3035C30.4715 14.2742 30.5048 14.2599 30.5342 14.2719C30.5635 14.2835 30.5777 14.3168 30.5657 14.3462C30.4866 14.5431 30.296 14.6631 30.0951 14.6631Z" fill="#E3AEAE"/>
<path d="M30.6355 15.8111C30.6333 15.8111 30.6315 15.8111 30.6293 15.8106C30.3515 15.7804 30.1502 15.5297 30.1808 15.2519C30.211 14.9742 30.4613 14.7728 30.7395 14.8035C30.771 14.8071 30.7933 14.8351 30.7902 14.8666C30.7866 14.8982 30.7582 14.9204 30.727 14.9173C30.5119 14.8937 30.3177 15.0497 30.2942 15.2648C30.2706 15.4799 30.4266 15.6742 30.6417 15.6977C30.6733 15.7013 30.6955 15.7293 30.6924 15.7608C30.6888 15.7897 30.6639 15.8111 30.6355 15.8111Z" fill="#E3AEAE"/>
<path d="M29.9591 16.043C29.952 16.043 29.9449 16.0417 29.9378 16.039C29.9085 16.0275 29.8942 15.9942 29.9062 15.9648C29.9387 15.8844 29.9378 15.7968 29.9036 15.7168C29.8698 15.6373 29.8067 15.5759 29.7267 15.5435C29.6467 15.5115 29.5582 15.5124 29.4787 15.5462C29.3991 15.5799 29.3374 15.643 29.3054 15.723C29.2934 15.7524 29.26 15.7666 29.2311 15.7546C29.2018 15.743 29.1876 15.7097 29.1996 15.6804C29.2431 15.5719 29.3267 15.4866 29.4342 15.4408C29.5418 15.395 29.6609 15.3937 29.7694 15.4373C29.9934 15.5275 30.1022 15.783 30.0125 16.007C30.0031 16.0297 29.9818 16.043 29.9591 16.043Z" fill="#E3AEAE"/>
<path d="M18.7938 9.56703C18.7742 9.56703 18.7569 9.55281 18.7534 9.53326C18.7494 9.51104 18.7645 9.4897 18.7867 9.4857C18.8609 9.47281 18.9258 9.43148 18.9689 9.37015C19.012 9.30837 19.0289 9.2337 19.016 9.15948C18.9894 9.00615 18.8431 8.90392 18.6898 8.93015C18.6671 8.93415 18.6462 8.91903 18.6422 8.89681C18.6382 8.87459 18.6534 8.85326 18.6756 8.84926C18.8734 8.81504 19.0622 8.94748 19.0969 9.14526C19.1138 9.24126 19.092 9.3377 19.0365 9.41726C18.9805 9.49681 18.8969 9.55015 18.8014 9.56659C18.7987 9.56659 18.796 9.56703 18.7938 9.56703Z" fill="#E3AEAE"/>
<path d="M19.5897 9.02575C19.5443 9.02575 19.4986 9.01731 19.4541 8.99953C19.3639 8.96309 19.2932 8.8942 19.255 8.80442C19.2168 8.71509 19.2159 8.61598 19.2519 8.52575C19.2603 8.50486 19.2843 8.49464 19.3052 8.50309C19.3261 8.51153 19.3363 8.53553 19.3279 8.55642C19.2999 8.6262 19.3008 8.70309 19.3301 8.77242C19.3594 8.84175 19.4146 8.89553 19.4843 8.92353C19.6283 8.98131 19.7932 8.91109 19.851 8.76709C19.8594 8.7462 19.8834 8.73598 19.9043 8.74442C19.9252 8.75286 19.9354 8.77686 19.927 8.79775C19.8706 8.93953 19.7337 9.02575 19.5897 9.02575Z" fill="#E3AEAE"/>
<path d="M19.9773 9.85113C19.9759 9.85113 19.9742 9.85113 19.9728 9.85068C19.7733 9.82891 19.6288 9.64891 19.6506 9.44935C19.6724 9.2498 19.8519 9.10491 20.0519 9.12713C20.0746 9.1298 20.0906 9.1498 20.0884 9.17246C20.0857 9.19513 20.0657 9.21113 20.0431 9.20891C19.8884 9.19202 19.7488 9.30402 19.7319 9.45868C19.7151 9.61335 19.8271 9.75291 19.9817 9.7698C20.0044 9.77246 20.0204 9.79246 20.0182 9.81513C20.0159 9.83557 19.9982 9.85113 19.9773 9.85113Z" fill="#E3AEAE"/>
<path d="M19.4917 10.0178C19.4868 10.0178 19.4814 10.0169 19.4765 10.0147C19.4557 10.0063 19.4454 9.98226 19.4539 9.96137C19.477 9.90359 19.4765 9.84048 19.4521 9.78314C19.4277 9.72581 19.3828 9.68181 19.325 9.6587C19.2672 9.63559 19.2041 9.63603 19.1468 9.66048C19.0894 9.68492 19.0454 9.73026 19.0223 9.78759C19.0139 9.80848 18.9899 9.8187 18.969 9.81026C18.9481 9.80181 18.9379 9.77781 18.9463 9.75692C18.9779 9.67914 19.0374 9.61781 19.1148 9.58492C19.1921 9.55203 19.2774 9.55114 19.3557 9.58226C19.5165 9.64714 19.5952 9.8307 19.5303 9.99159C19.5232 10.008 19.5077 10.0178 19.4917 10.0178Z" fill="#E3AEAE"/>
<path d="M36.9525 17.2818L35.3694 16.7161L35.3094 17.7192L33.5765 16.913L33.552 17.6778L32.3418 17.2298" stroke="#DC8B8B" stroke-width="2" stroke-miterlimit="10" stroke-linecap="round" stroke-linejoin="round"/>
<path d="M35.2081 14.1525L33.9756 14.5325L34.3997 15.176L32.9654 15.4774L33.3014 15.9582L32.3525 16.2396" stroke="#DC8B8B" stroke-width="2" stroke-miterlimit="10" stroke-linecap="round" stroke-linejoin="round"/>
<path d="M11.7412 21.2116L12.715 19.8414L13.3385 20.6294L14.2977 18.9765L14.7559 19.5889L15.4914 18.5289" stroke="#DC8B8B" stroke-width="2" stroke-miterlimit="10" stroke-linecap="round" stroke-linejoin="round"/>
<path d="M11.3789 17.6476L12.6069 17.2538L12.6278 18.024L13.9762 17.4493L13.9758 18.0365L14.9149 17.7236" stroke="#DC8B8B" stroke-width="2" stroke-miterlimit="10" stroke-linecap="round" stroke-linejoin="round"/>
</g>
</g>
<defs>
<clipPath id="clip0_1146_49375">
<rect width="48" height="48" rx="24" fill="white"/>
</clipPath>
<clipPath id="clip1_1146_49375">
<rect width="48" height="48" fill="white"/>
</clipPath>
</defs>
</svg>
