<svg width="48" height="48" viewBox="0 0 48 48" fill="none" xmlns="http://www.w3.org/2000/svg">
<g clip-path="url(#clip0_1146_49374)">
<rect width="48" height="48" rx="24" fill="white"/>
<g clip-path="url(#clip1_1146_49374)">
<path d="M30.8291 23.6333C32.7162 19.6004 35.7442 13.2831 37.6767 9.21373L37.7247 9.11328L37.7718 9.21373C39.6838 13.3008 42.6571 19.5826 44.526 23.6328C43.6611 21.8431 41.9433 18.2426 41.0935 16.4475L37.6767 9.2555L37.7718 9.25595C35.8109 13.3333 32.7909 19.6128 30.8291 23.6333Z" fill="#EACACA"/>
<path d="M30.8291 24.5315C30.8291 26.071 34.0073 27.4928 37.7109 27.4928C41.4207 27.4928 44.5927 26.115 44.5927 24.5315H30.8291Z" fill="#F8E3E3"/>
<path d="M30.439 24.5316L44.9844 24.5316V23.6334H30.439V24.5316Z" fill="#EACACA"/>
<path d="M3.16113 29.3319C5.04824 25.299 8.07624 18.9817 10.0087 14.9123L10.0562 14.8119L10.1034 14.9123C12.0154 18.9994 14.9887 25.2812 16.8576 29.3314C15.9927 27.5417 14.2749 23.9412 13.4251 22.1461L10.0082 14.9541L10.1034 14.9546C8.14291 19.0314 5.12291 25.311 3.16113 29.3319Z" fill="#EACACA"/>
<path d="M3.16113 30.2301C3.16113 31.7697 6.33935 33.1914 10.0429 33.1914C13.7527 33.1914 16.9247 31.8137 16.9247 30.2301H3.16113Z" fill="#F8E3E3"/>
<path d="M2.77107 30.2302L17.3164 30.2302V29.332H2.77107V30.2302Z" fill="#EACACA"/>
<path d="M10.2449 15.0316C11.0698 14.9373 11.5289 14.4213 12.4307 13.9533C13.74 13.2733 17.7245 12.1231 19.9885 11.8578C20.8858 11.7493 22.8845 12.1538 24.2071 11.8987C25.5298 11.6436 27.2125 10.5289 28.0836 10.296C30.2787 9.70089 34.3289 8.86578 35.8134 9.00667C36.8289 9.10445 37.4596 9.41023 38.2582 9.19112C39.5569 8.84134 39.332 7.01912 37.6627 7.34089C35.9974 7.66223 35.5751 8.072 33.3685 8.45956C32.4165 8.628 27.7609 9.08756 26.1565 9.39734C24.548 9.70756 23.8285 10.0791 23.8285 10.0791C23.8285 10.0791 23.016 10.0031 21.4111 10.3129C19.8027 10.6231 15.4138 12.344 14.464 12.5422C12.2765 13.0027 11.7227 12.7813 10.0534 13.1031C8.38447 13.4258 8.90669 15.1907 10.2449 15.0316Z" fill="#F8E3E3"/>
<path d="M22.5797 43.9537H25.1761C25.1761 43.9537 25.7241 33.3306 25.5961 29.784C25.4677 26.2373 24.3757 10.9364 24.3757 10.9364H23.3806C23.3806 10.9364 22.2881 26.2373 22.1601 29.784C22.0317 33.3311 22.5797 43.9537 22.5797 43.9537Z" fill="#F8E3E3"/>
<path d="M23.0654 8.61375C23.0654 9.90086 23.3997 10.2524 23.3997 10.2524H24.3561C24.3561 10.2524 24.6903 9.90086 24.6903 8.61375C24.6903 7.32664 24.0605 5.10486 24.0605 5.10486H23.6992C23.6992 5.10441 23.0654 7.32664 23.0654 8.61375Z" fill="#F8E3E3"/>
<path d="M22.6279 10.7715C22.6279 11.4364 23.1879 11.9751 23.8786 11.9751C24.5693 11.9751 25.1293 11.436 25.1293 10.7715C25.1293 10.1067 24.5693 9.56799 23.8786 9.56799C23.1879 9.56799 22.6279 10.1071 22.6279 10.7715Z" fill="#EACACA"/>
<path d="M22.8809 5.10441C22.8809 5.63463 23.3275 6.06441 23.8786 6.06441C24.4297 6.06441 24.876 5.63463 24.876 5.10441C24.876 4.57419 24.4293 4.14441 23.8786 4.14441C23.3275 4.14441 22.8809 4.57419 22.8809 5.10441Z" fill="#EACACA"/>
<path d="M31.2261 10.2502C31.4484 9.64975 31.2621 8.93597 30.8181 8.47508C30.3741 8.01375 29.9915 8.01375 30.0559 7.95331C30.2621 7.40308 29.8124 6.77864 29.2537 6.59553C28.6955 6.41242 28.0857 6.55331 27.5261 6.73242C27.3132 5.77153 26.4835 4.97775 25.5141 4.80797C24.5448 4.6382 23.4946 5.1022 22.9675 5.93331C22.1546 5.39197 21.0017 5.42486 20.2204 6.01108C19.4395 6.59731 19.0866 7.69597 19.3795 8.62708C18.7377 8.95953 18.3661 9.74486 18.5168 10.452C18.6675 11.1591 19.3266 11.7249 20.0484 11.7666C20.0332 12.5635 20.1684 13.3626 20.4448 14.1102L29.9368 14.88C29.9368 14.88 30.1995 13.2444 30.1995 12.6653C30.1995 11.9489 30.2524 11.2733 30.2524 11.2733C30.3639 11.2831 31.0039 10.8506 31.2261 10.2502Z" fill="#441B13"/>
<path d="M26.0015 7.0469L25.7486 7.03446C23.2041 6.90779 20.9886 8.75623 20.6583 11.2829C20.3508 13.6327 20.0415 16.2322 19.9939 17.4985C19.8961 20.1207 22.497 20.6585 22.497 20.6585L22.1188 23.7958L28.4886 23.9149L29.6183 12.5247C29.9886 9.8149 28.7201 7.34157 26.0015 7.0469Z" fill="#F8C8B4"/>
<path d="M22.4789 20.6533C22.4789 20.6533 24.1473 20.8373 25.9625 19.8191C25.9625 19.8191 25.0611 21.6649 22.458 21.2991L22.4789 20.6533Z" fill="#E3956B"/>
<path d="M21.7083 13.1571C21.6914 13.3544 21.8447 13.5313 22.0505 13.5526C22.2559 13.574 22.4363 13.4318 22.4532 13.2344C22.4701 13.0371 22.3167 12.8602 22.1114 12.8389C21.9056 12.8171 21.7252 12.9598 21.7083 13.1571Z" fill="#441B13"/>
<path d="M25.5501 13.3428C25.5332 13.5401 25.6865 13.717 25.8923 13.7383C26.0977 13.7596 26.2781 13.6174 26.295 13.4201C26.3119 13.2228 26.1585 13.0459 25.9532 13.0245C25.7474 13.0028 25.567 13.1454 25.5501 13.3428Z" fill="#441B13"/>
<path d="M23.5079 15.7774C23.511 15.7543 23.263 15.6988 22.8599 15.6268C22.7577 15.6112 22.6612 15.5859 22.6474 15.5148C22.627 15.4392 22.6754 15.3308 22.731 15.2134C22.8399 14.9694 22.9541 14.7134 23.0741 14.4454C23.5519 13.3516 23.903 12.4503 23.859 12.4312C23.8146 12.4125 23.3919 13.2836 22.9141 14.3774C22.799 14.6472 22.6883 14.9045 22.5834 15.1508C22.5386 15.2659 22.4652 15.3948 22.5101 15.5516C22.5341 15.6299 22.6066 15.6894 22.6714 15.7103C22.7363 15.7339 22.7941 15.7379 22.8448 15.7432C23.2519 15.7859 23.5052 15.8001 23.5079 15.7774Z" fill="#263138"/>
<path d="M29.2406 14.6348C29.2771 14.2312 29.6415 13.929 30.0429 13.9876C30.5291 14.0583 31.0593 14.3628 30.9771 15.3712C30.8309 17.1601 29.0651 16.6441 29.0664 16.5925C29.0669 16.5574 29.1726 15.3828 29.2406 14.6348Z" fill="#F8C8B4"/>
<path d="M29.5049 15.9513C29.5134 15.9464 29.5342 15.9757 29.5849 16.0042C29.6342 16.0317 29.7214 16.0553 29.8174 16.0282C30.012 15.9744 30.1956 15.6873 30.2307 15.3655C30.2485 15.2033 30.2271 15.0455 30.18 14.9122C30.136 14.7766 30.0591 14.6784 29.9654 14.654C29.8725 14.6242 29.8005 14.6758 29.7742 14.7242C29.7462 14.7722 29.7547 14.8086 29.7449 14.8113C29.7396 14.8153 29.7089 14.778 29.7294 14.7055C29.7396 14.6704 29.764 14.63 29.8089 14.5993C29.8547 14.5678 29.9191 14.5553 29.9849 14.5677C30.1222 14.5886 30.236 14.7255 30.2876 14.8717C30.3471 15.0189 30.3751 15.1966 30.3547 15.3789C30.3138 15.7384 30.1018 16.0606 29.8369 16.114C29.7085 16.1366 29.6067 16.09 29.556 16.0433C29.5049 15.9949 29.4987 15.954 29.5049 15.9513Z" fill="#E3956B"/>
<path d="M28.5152 7.76133L25.1254 6.34399L23.5281 7.02844L20.457 8.96666L20.0508 9.68133C20.0721 9.72711 20.0952 9.77244 20.1201 9.81599C20.5219 10.5307 21.3641 10.9809 22.1828 10.9018C23.0517 10.8178 23.8326 10.1435 24.0414 9.29555C24.7992 9.66666 25.8277 9.30488 26.1863 8.54177C26.1863 8.54177 26.4948 10.0298 27.9188 9.25422C27.4259 9.82799 28.153 11.1284 28.1992 11.6378C28.2726 12.4409 28.061 13.1093 28.2277 13.8987C28.3139 14.3053 28.4979 15.2244 28.8992 15.3329C29.2174 15.4187 29.5352 14.7671 29.7032 14.4835C29.8712 14.2 29.9023 13.8578 29.9099 13.5284C29.9179 13.1991 29.9072 12.8631 30.005 12.5484L30.1997 12.4502V9.44177L28.5152 7.76133Z" fill="#441B13"/>
<path d="M24.2096 17.9924C24.1941 18.0341 23.9976 17.9928 23.7781 18.0719C23.5563 18.1439 23.4261 18.2968 23.3883 18.2733C23.3714 18.2626 23.3816 18.2044 23.4363 18.1297C23.4901 18.0555 23.5927 17.9706 23.7274 17.9244C23.8621 17.8786 23.995 17.8821 24.0834 17.9084C24.1723 17.9341 24.2167 17.9737 24.2096 17.9924Z" fill="#441B13"/>
<path d="M21.6572 10.7328C21.6577 10.7368 21.6217 10.7408 21.5528 10.7448C21.4839 10.748 21.3808 10.7422 21.2519 10.7124C20.9986 10.6524 20.6297 10.4693 20.3581 10.072C20.2217 9.87729 20.1168 9.62884 20.0861 9.34707C20.0572 9.06662 20.1066 8.7604 20.2324 8.47062C20.4812 7.8924 21.0599 7.38218 21.7795 7.24262C22.4021 7.11107 23.0239 7.22173 23.5284 7.43329L23.4537 7.47285C23.5644 6.9644 23.9279 6.58796 24.3101 6.41507C24.6995 6.23507 25.099 6.27151 25.3839 6.37196C25.6741 6.47373 25.8648 6.63596 25.9759 6.75551C26.0315 6.8164 26.0701 6.86707 26.0919 6.90351C26.1146 6.93951 26.1252 6.95907 26.1226 6.96084C26.1155 6.96573 26.0661 6.89196 25.9501 6.78085C25.8341 6.67196 25.6435 6.5244 25.3626 6.43596C25.0866 6.3484 24.7106 6.3244 24.3497 6.49907C23.9937 6.66662 23.6581 7.02618 23.5612 7.49507L23.5479 7.55996L23.4866 7.53462C22.9977 7.33373 22.3977 7.23107 21.8044 7.35685C21.1195 7.49018 20.5737 7.96885 20.331 8.51462C20.2092 8.78751 20.1599 9.07462 20.183 9.33862C20.2075 9.60173 20.3017 9.83818 20.427 10.0266C20.6768 10.4106 21.0226 10.5982 21.2639 10.6688C21.5101 10.7377 21.6572 10.7191 21.6572 10.7328Z" fill="#2C0E0A"/>
<path d="M18.0159 48.104C18.0159 48.104 17.3083 50.844 17.5648 54.1822C17.6639 55.4738 22.023 91.2089 22.023 91.2089H27.9083L26.2541 57.6227L26.7359 57.7271C26.7359 57.7271 29.9488 72.0516 30.2106 74.3707C30.4461 76.4551 33.1555 91.6 33.1555 91.6L38.5368 91.6618L36.8181 71.6298L34.8181 52.4085L34.0657 46.8134L18.0159 48.104Z" fill="#C55859"/>
<path d="M28.8277 34.2956C28.853 33.6893 29.7877 29.3444 29.7877 29.2684C29.7877 29.1924 28.8632 22.8098 28.8632 22.8098L28.6579 20.8107L24.1721 23.5C24.1721 23.5 22.2646 22.0653 22.3099 21.9893L21.2575 28.316L19.1201 48.0907C19.1201 48.0907 19.8535 48.9831 22.6512 49.3924C26.1401 49.9031 31.1779 48.0907 31.1779 48.0907C31.1779 48.0907 28.8023 34.9018 28.8277 34.2956Z" fill="#E0E0E0"/>
<g opacity="0.3">
<path d="M18.4385 55.02C18.4385 55.02 19.0976 55.5182 19.5003 52.52C19.9029 49.5218 21.0927 36.9462 21.0927 36.9462L21.9514 23.9293L19.3856 31.5102L18.4385 55.02Z" fill="#040000"/>
</g>
<g opacity="0.3">
<path d="M28.4316 45.2529C28.4316 45.2529 29.6099 56.76 30.0565 56.5369C30.5036 56.3134 34.8072 54.6165 34.8072 54.6165L34.3743 50.8965L28.4316 45.2529Z" fill="#040000"/>
</g>
<path d="M28.5211 23.5004C28.5255 23.5071 28.4548 23.5604 28.3237 23.6507C28.1704 23.7529 27.9833 23.8773 27.7628 24.0244C27.2864 24.3355 26.6237 24.7591 25.8886 25.2204C25.6482 25.3702 25.4157 25.5155 25.1975 25.6515L25.15 25.6813L25.1211 25.6347C24.7624 25.0547 24.554 24.5062 24.3971 24.1231C24.3211 23.9302 24.2624 23.7755 24.2237 23.6689C24.1851 23.5622 24.1668 23.5031 24.1731 23.5004C24.1855 23.4951 24.2931 23.7173 24.4624 24.0955C24.6366 24.4702 24.8588 25.0124 25.2144 25.5742L25.138 25.5573C25.3553 25.42 25.5873 25.2738 25.8268 25.1227C26.5624 24.6613 27.2317 24.2489 27.7193 23.9551C27.9473 23.8204 28.1415 23.7062 28.2997 23.6124C28.4384 23.5338 28.5166 23.4933 28.5211 23.5004Z" fill="#E46F6F"/>
<path d="M22.0998 24.3373C22.1104 24.3298 22.2011 24.4395 22.3442 24.6307C22.4873 24.8218 22.6833 25.0942 22.9064 25.4124L22.8158 25.4111C22.9069 25.2849 23.002 25.1458 23.0993 25.0009C23.382 24.5787 23.6349 24.1924 23.8304 23.9209C24.0247 23.6484 24.1602 23.4907 24.1731 23.5004C24.186 23.5102 24.0744 23.6835 23.8984 23.9667C23.7211 24.2489 23.4793 24.6413 23.1953 25.0658C23.0976 25.2115 23.0002 25.3511 22.9051 25.4778L22.858 25.5404L22.8144 25.476C22.5976 25.1542 22.4131 24.8733 22.286 24.6711C22.1589 24.4684 22.0887 24.3449 22.0998 24.3373Z" fill="#E46F6F"/>
<path d="M11.8029 20.824C11.7874 20.8035 13.0852 19.7942 13.0852 19.8933C13.0852 19.9929 15.4389 23.4533 15.4389 23.4533L14.0429 24.4102L11.7061 20.8853" fill="#E0E0E0"/>
<path d="M17.7002 54.656C18.1522 54.912 18.7171 54.6146 18.762 54.0973L20.1496 39.8569L22.2451 22.2657L21.5069 22.8915C21.5069 22.8915 17.5696 23.1773 17.4744 23.2409C17.3793 23.3044 16.5909 25.7169 16.2416 28.7017C15.8922 31.6866 16.1598 40.9649 16.1598 40.9649L14.6758 52.6489L17.7002 54.656Z" fill="#E46F6F"/>
<path d="M19.7775 40.2093C19.7735 40.2089 19.7735 40.1426 19.7766 40.0169C19.778 39.8911 19.7913 39.7062 19.7917 39.4671C19.7997 38.9893 19.806 38.2982 19.7993 37.4435C19.7913 35.7346 19.7491 33.3738 19.6908 30.7666C19.6473 28.9871 19.6064 27.3231 19.5722 25.9142L19.5713 25.8835L19.598 25.8693C19.9353 25.6875 20.2531 25.516 20.5526 25.3546L20.5371 25.4195C20.3002 25.0738 20.0851 24.7586 19.8886 24.4715L19.8704 24.4444L19.8935 24.4222C20.4251 23.9191 20.8517 23.5155 21.1535 23.2298C21.2962 23.0978 21.4095 22.9929 21.4944 22.9146C21.5726 22.844 21.6148 22.8084 21.6171 22.8106C21.6197 22.8133 21.5824 22.8542 21.5091 22.9298C21.4277 23.0115 21.3193 23.1213 21.1824 23.2591C20.886 23.5511 20.4677 23.9631 19.9464 24.4769L19.9513 24.428C20.1508 24.7124 20.37 25.0249 20.6108 25.368L20.6393 25.4084L20.5953 25.4324C20.2971 25.5964 19.9811 25.7706 19.6451 25.9555L19.6708 25.9106C19.7184 27.3164 19.766 28.9822 19.806 30.7635C19.8642 33.3711 19.8931 35.7333 19.8806 37.4431C19.8766 38.2982 19.858 38.9902 19.8362 39.468C19.8286 39.7071 19.8082 39.8924 19.7993 40.0178C19.7891 40.144 19.7815 40.2093 19.7775 40.2093Z" fill="#B45353"/>
<path d="M17.7549 23.2405C17.7549 23.2405 17.106 23.2405 16.6505 23.7138C16.2105 24.1711 15.2656 24.9969 15.2656 24.9969L10.6603 26.9013L14.6758 23.9289L11.958 20.3516C11.958 20.3516 7.52694 23.372 5.82382 24.52C4.12071 25.668 3.15183 27.4911 3.48516 28.7129C3.81849 29.9347 4.14294 30.4222 6.55582 31.0218C7.54471 31.2676 15.998 32.1547 15.998 32.1547L17.3945 25.764L17.7549 23.2405Z" fill="#E46F6F"/>
<path d="M8.7016 29.9222C8.69138 29.9053 8.86471 29.7973 9.11271 29.5862C9.36116 29.3764 9.67671 29.0515 9.94382 28.6337C10.2096 28.2151 10.3714 27.792 10.4563 27.4782C10.5425 27.164 10.5674 26.9617 10.5869 26.9635C10.5994 26.964 10.6038 27.1711 10.5363 27.4977C10.47 27.8235 10.3158 28.2653 10.042 28.6964C9.76649 29.1266 9.43138 29.4528 9.16427 29.6506C8.89716 29.8497 8.70738 29.9333 8.7016 29.9222Z" fill="#B45353"/>
<path d="M16.4848 25.8684C16.4928 25.8693 16.4906 25.9826 16.4795 26.1875C16.4657 26.4142 16.4475 26.7049 16.4261 27.0537C16.3795 27.7849 16.3181 28.7946 16.2684 29.9111C16.219 31.028 16.1906 32.0391 16.1724 32.7715C16.1626 33.1209 16.155 33.412 16.1488 33.6391C16.1417 33.844 16.1341 33.9573 16.1261 33.9573C16.1181 33.9573 16.1106 33.844 16.1035 33.6391C16.0964 33.4342 16.0915 33.1373 16.0901 32.7706C16.0875 32.0373 16.1026 31.024 16.1524 29.9057C16.2021 28.788 16.2768 27.7773 16.3444 27.0471C16.3781 26.6822 16.4092 26.3871 16.4346 26.1835C16.459 25.9795 16.4768 25.8675 16.4848 25.8684Z" fill="#B45353"/>
<path d="M28.787 20.9948C28.943 21.1156 30.719 22.8339 30.719 22.8339C30.719 22.8339 34.7826 23.2881 34.8995 23.4094C34.9821 23.4952 35.0199 32.0068 34.9981 32.1956C34.7679 34.2036 33.9879 41.0956 33.9879 41.0956L37.3288 52.7316L30.3426 55.6014C30.3426 55.6014 28.9239 48.4379 28.2604 44.5645C27.5968 40.6912 27.7924 39.5943 27.8706 35.8423C27.9488 32.0899 28.7679 22.8339 28.7679 22.8339L28.787 20.9948Z" fill="#E46F6F"/>
<path d="M28.2611 39.6502C28.2571 39.6498 28.2624 39.5871 28.2762 39.468C28.2913 39.3494 28.3082 39.1725 28.3451 38.948C28.4153 38.4978 28.5286 37.8485 28.6859 37.0498C28.9979 35.4516 29.4717 33.2529 30.0211 30.8311C30.4611 28.8889 30.8815 27.0978 31.2268 25.6631L31.2419 25.7094C30.9451 25.456 30.6704 25.2222 30.4162 25.0058L30.3815 24.9765L30.4144 24.9458C30.7308 24.6476 31.0082 24.3862 31.2504 24.1582L31.2433 24.1929C31.0766 23.7707 30.9446 23.4342 30.8491 23.1929C30.8077 23.084 30.7748 22.996 30.7491 22.9276C30.7273 22.8671 30.7175 22.8356 30.7202 22.8342C30.7228 22.8334 30.738 22.8627 30.7651 22.9209C30.7948 22.988 30.8326 23.0734 30.8802 23.18C30.982 23.4191 31.1237 23.7511 31.3015 24.1689L31.31 24.1885L31.2944 24.2036C31.0562 24.4356 30.7828 24.7014 30.4713 25.0045L30.4695 24.9445C30.7259 25.1582 31.0028 25.3889 31.3028 25.6387L31.3246 25.6569L31.318 25.6849C30.9877 27.1276 30.578 28.9187 30.1344 30.8569C29.5851 33.2787 29.0993 35.4738 28.7668 37.0662C28.5993 37.8622 28.4735 38.5085 28.39 38.9556C28.3464 39.1787 28.3224 39.3538 28.2997 39.4716C28.2779 39.5894 28.2651 39.6511 28.2611 39.6502Z" fill="#B45353"/>
<path d="M37.3295 52.7316C37.3308 52.7347 37.2859 52.7565 37.1984 52.7961C37.1019 52.8383 36.9735 52.8943 36.8117 52.9649C36.4632 53.1125 35.9721 53.3201 35.3606 53.5787C34.1108 54.0978 32.3699 54.8205 30.3646 55.6529L30.301 55.6792L30.2886 55.6112C30.1388 54.8041 29.9788 53.9396 29.8135 53.048C29.3112 50.2916 28.8566 47.7969 28.5255 45.9796C28.3677 45.0818 28.2392 44.3516 28.1481 43.8352C28.1072 43.5889 28.0752 43.3943 28.0512 43.2512C28.0424 43.1898 28.0348 43.1401 28.029 43.0987C28.0246 43.0645 28.0232 43.0463 28.0255 43.0463C28.0272 43.0458 28.0326 43.0632 28.0406 43.0969C28.0495 43.1374 28.0606 43.1867 28.0744 43.2472C28.1032 43.3894 28.1428 43.5827 28.1926 43.8272C28.2921 44.3423 28.433 45.0698 28.6059 45.9649C28.9455 47.7809 29.4121 50.2734 29.9272 53.0276C30.0912 53.9196 30.2504 54.7845 30.3988 55.5916L30.3228 55.5503C32.3348 54.7325 34.0806 54.0232 35.3344 53.5138C35.9512 53.2681 36.4464 53.0703 36.7979 52.9303C36.9628 52.8667 37.0935 52.8165 37.1917 52.7787C37.2806 52.7445 37.3281 52.7285 37.3295 52.7316Z" fill="#445962"/>
<path d="M32.7016 43.1609C32.6865 43.1627 32.6447 42.9165 32.6034 42.5151C32.562 42.1142 32.5247 41.5578 32.5162 40.9422C32.5082 40.3267 32.5314 39.7693 32.562 39.3671C32.5927 38.9649 32.6278 38.7178 32.6434 38.7191C32.6602 38.7205 32.654 38.9693 32.6442 39.3711C32.6345 39.7729 32.6247 40.3276 32.6327 40.9405C32.6411 41.5529 32.6651 42.1076 32.6856 42.5089C32.7056 42.9107 32.7185 43.1596 32.7016 43.1609Z" fill="#B45353"/>
<path d="M32.9397 44.1978C32.9326 44.2018 32.8913 44.1449 32.8219 44.0378C32.7522 43.9311 32.6575 43.7733 32.5455 43.5751C32.3215 43.1791 32.0357 42.6169 31.7677 41.9756C31.5002 41.3338 31.3006 40.7356 31.1766 40.2978C31.1144 40.0787 31.0686 39.9005 31.0419 39.776C31.0148 39.6516 31.0033 39.5818 31.0113 39.58C31.0282 39.5756 31.1117 39.844 31.2557 40.2733C31.3997 40.7031 31.6095 41.2929 31.8757 41.9307C32.1424 42.568 32.4144 43.132 32.6188 43.536C32.8224 43.9409 32.9548 44.1889 32.9397 44.1978Z" fill="#B45353"/>
<path d="M37.5013 40.1147L37.4222 39.8813L36.1031 41.2062C36.1031 41.2062 33.3338 41.184 32.8178 41.3676C32.3022 41.5511 32.3658 42.1511 32.676 42.3249C32.676 42.3249 32.2876 42.9249 32.7862 43.3036L33.0822 43.4813C33.0822 43.4813 32.7778 44.14 33.2556 44.4245C33.7333 44.7089 33.6813 44.5236 33.6773 44.7902C33.6733 45.0569 33.8111 45.4213 34.0529 45.4836C34.2947 45.5453 36.9778 44.52 37.5227 44.2071C38.0676 43.8942 39.0084 42.8591 39.0084 42.8591L37.5013 40.1147Z" fill="#F7BA9B"/>
<path d="M36.5043 24.3801C37.151 25.2543 38.2127 26.8863 38.2127 26.8863C38.2127 26.8863 43.8945 31.2712 45.2852 32.4081C47.2763 34.0352 46.1972 36.1121 45.7345 36.7788C45.2625 37.4596 38.8003 43.9583 38.8003 43.9583L36.035 40.6041L40.1696 35.3259L40.1381 34.969L34.999 32.1956L34.1323 34.2179L34.1172 25.1103L34.6612 23.4996L34.9003 23.4094C35.531 23.4996 36.2447 24.029 36.5043 24.3801Z" fill="#E46F6F"/>
<path d="M35.399 27.1482C35.4305 27.1513 35.3203 28.6193 35.1523 30.4273C34.9843 32.2358 34.8225 33.6993 34.7905 33.6962C34.759 33.6931 34.8692 32.2251 35.0372 30.4166C35.2052 28.6086 35.367 27.1451 35.399 27.1482Z" fill="#B45353"/>
<path d="M43.0598 33.5462C43.0709 33.584 42.25 33.6885 41.4198 34.2307C40.582 34.7618 40.1469 35.4658 40.1171 35.44C40.106 35.4334 40.1976 35.2502 40.402 34.9916C40.6051 34.7329 40.9322 34.4071 41.3571 34.1329C41.7824 33.8605 42.2144 33.6974 42.534 33.6196C42.8536 33.5409 43.0584 33.5338 43.0598 33.5462Z" fill="#B45353"/>
<path d="M36.4872 41.9841C36.4587 41.9996 36.3463 41.8472 36.2361 41.6441C36.1258 41.441 36.0592 41.2641 36.0876 41.2485C36.1161 41.233 36.2281 41.3854 36.3387 41.5885C36.449 41.7916 36.5152 41.9685 36.4872 41.9841Z" fill="#E3956B"/>
<path d="M13.0671 19.7658C13.0671 19.7658 13.5493 19.2138 13.916 18.9662C14.2827 18.7187 16.0035 18.0791 16.2369 18.0569C16.4702 18.0347 16.8449 18.0196 16.8449 18.0196C16.8449 18.0196 17.7893 17.6045 18.0062 18.1596C18.0062 18.1596 18.0787 18.4769 17.9671 18.5898C17.9671 18.5898 18.3822 18.6347 18.5027 18.9854C18.5027 18.9854 18.54 19.2129 18.3587 19.4569C18.3587 19.4569 18.8849 19.8733 18.6635 20.3231C18.6635 20.3231 19.0707 20.7 18.9964 21.04C18.9222 21.3805 18.7515 21.4298 18.4218 21.5591C18.092 21.6885 17.4413 21.7894 17.4413 21.7894C17.4413 21.7894 17.2164 21.9147 17.2622 22.208C17.308 22.5013 17.8729 22.4654 18.4324 23.0614C18.8649 23.5222 18.9933 23.8791 18.8093 24.04C18.7111 24.1262 18.4111 24.2347 17.8355 23.796C17.0222 23.1765 16.6698 23.5076 16.2827 23.3827C15.8955 23.2578 15.0582 22.8916 15.0582 22.8916C15.0582 22.8916 12.8884 20.5449 13.0671 19.7658Z" fill="#F8C8B4"/>
<path d="M17.9104 18.5946C17.9228 18.5986 17.8264 18.8053 17.537 19.0066C17.3944 19.1066 17.2068 19.1995 16.9917 19.2746C16.8841 19.3128 16.7699 19.347 16.6517 19.3799C16.5913 19.3964 16.5304 19.4128 16.4681 19.4293C16.4041 19.4475 16.2997 19.4426 16.2366 19.3808C16.1206 19.2697 16.1166 19.1137 16.1468 18.9919C16.1801 18.8666 16.2535 18.7639 16.3397 18.687C16.5179 18.5359 16.7228 18.491 16.8855 18.4622L16.8526 18.4915C16.9241 18.2928 17.0744 18.1924 17.1757 18.1524C17.281 18.1115 17.3446 18.1195 17.345 18.1262C17.3468 18.1364 17.2868 18.1453 17.1966 18.1955C17.109 18.2444 16.9855 18.3466 16.9353 18.5173L16.9281 18.5408L16.9024 18.547C16.7464 18.583 16.5588 18.6359 16.4121 18.7679C16.3415 18.8337 16.2824 18.9217 16.2579 19.0204C16.233 19.1164 16.2468 19.2337 16.3139 19.2942C16.3713 19.359 16.5033 19.2964 16.6215 19.2706C16.7393 19.239 16.8517 19.2079 16.957 19.1737C17.1681 19.1062 17.3499 19.0253 17.4917 18.9386C17.7784 18.7644 17.8953 18.5826 17.9104 18.5946Z" fill="#E3956B"/>
<path d="M16.5351 19.3409C16.5538 19.3462 16.4547 19.48 16.5227 19.6858C16.5569 19.7827 16.6445 19.8853 16.7716 19.9347C16.8987 19.9849 17.0596 19.9716 17.224 19.9289C17.8974 19.7569 18.3729 19.4298 18.3916 19.4604C18.4125 19.4804 17.9534 19.8622 17.2525 20.0418C17.0796 20.0867 16.8889 20.1031 16.7307 20.0338C16.5742 19.9658 16.4751 19.8324 16.444 19.7098C16.4125 19.5858 16.4387 19.4822 16.468 19.4218C16.4987 19.3604 16.5294 19.3369 16.5351 19.3409Z" fill="#E3956B"/>
<path d="M17.0253 20.0293C17.0409 20.0444 16.8675 20.1258 16.7929 20.3738C16.7569 20.4938 16.772 20.6524 16.876 20.7791C16.9262 20.8413 16.9955 20.8942 17.0764 20.9178C17.1569 20.9422 17.2497 20.936 17.3449 20.9129C17.5355 20.8622 17.7244 20.7853 17.8929 20.732C18.0626 20.6742 18.2173 20.628 18.3355 20.5716C18.5817 20.4653 18.6497 20.3018 18.6644 20.3102C18.6706 20.3124 18.6653 20.3573 18.6235 20.4258C18.5817 20.4938 18.4964 20.5773 18.3733 20.6449C18.2506 20.7151 18.0973 20.7698 17.9293 20.8329C17.7577 20.8933 17.5813 20.9702 17.3715 21.0262C17.2662 21.0516 17.1502 21.0613 17.0426 21.0267C16.9355 20.9933 16.8502 20.9236 16.7911 20.8444C16.668 20.6853 16.6609 20.4827 16.7142 20.3484C16.764 20.2098 16.8511 20.1253 16.9137 20.0791C16.9791 20.0338 17.0222 20.0231 17.0253 20.0293Z" fill="#E3956B"/>
<path d="M17.9555 21.6911C17.9586 21.7044 17.8497 21.752 17.6573 21.7724C17.5617 21.78 17.4417 21.7835 17.312 21.7311C17.1751 21.672 17.0862 21.544 17.0262 21.4035C16.9924 21.3204 17.0035 21.2262 17.0391 21.156C17.0777 21.0835 17.1182 21.0338 17.1862 20.9884C17.3066 20.9249 17.4111 20.896 17.5026 20.8675C17.684 20.8142 17.8044 20.8058 17.8066 20.8227C17.8088 20.8378 17.7008 20.8733 17.5297 20.9453C17.4462 20.9813 17.3382 21.0231 17.2422 21.08C17.1648 21.1382 17.0893 21.2604 17.1342 21.3613C17.1835 21.4804 17.2631 21.5911 17.356 21.6338C17.4546 21.68 17.5644 21.688 17.6542 21.6907C17.8364 21.6915 17.9524 21.6733 17.9555 21.6911Z" fill="#E3956B"/>
<path d="M15.6175 20.0863C15.6268 20.0769 15.7562 20.1836 15.8926 20.4143C15.9597 20.5294 16.0273 20.6751 16.0735 20.8467C16.0993 20.9307 16.1077 21.0316 16.1353 21.1014C16.1606 21.1738 16.2246 21.1898 16.3308 21.2174C16.7375 21.3329 17.0135 21.6276 17.1371 21.8623C17.266 22.1009 17.27 22.2729 17.2584 22.2734C17.2388 22.2787 17.2055 22.1174 17.0664 21.9045C16.9322 21.6938 16.6682 21.4338 16.2993 21.3294C16.2548 21.3156 16.2024 21.3071 16.1486 21.2791C16.0931 21.2529 16.0482 21.196 16.0295 21.1445C15.9917 21.0378 15.9922 20.9543 15.9691 20.8729C15.9313 20.7098 15.8748 20.568 15.8197 20.4529C15.7082 20.2227 15.6033 20.0987 15.6175 20.0863Z" fill="#E3956B"/>
<path d="M16.8208 21.0294C16.7973 21.0472 16.4355 20.5725 16.1444 19.9014C15.8502 19.2312 15.748 18.6432 15.7773 18.6383C15.8111 18.6298 15.9617 19.1965 16.2515 19.8547C16.5373 20.5143 16.8502 21.0103 16.8208 21.0294Z" fill="#E3956B"/>
<path d="M37.8717 20.0071L37.6188 19.968L36.9477 20.6511L36.8695 21.156C36.8695 21.156 36.4748 21.1191 36.6237 20.4657C36.7726 19.812 36.6966 19.9724 36.6966 19.9724C36.6966 19.9724 35.8673 19.8404 35.8095 19.7573C35.7673 19.6973 35.8731 18.8693 35.9335 18.4208C35.9642 18.1951 36.1348 18.0071 36.3522 17.9866C36.3833 17.9835 36.4139 17.984 36.4433 17.9884C36.6504 18.0204 37.6815 18.3533 37.6815 18.3533L38.1184 18.4213L37.8717 20.0071Z" fill="#F8E3E3"/>
<path d="M38.5743 20.2583L38.6877 18.505L38.2548 18.4379L37.9912 20.1321L38.5743 20.2583Z" fill="#F8E3E3"/>
<path d="M14.9939 13.9544L13.4846 13.866C12.8486 14.458 12.0459 14.8873 11.1312 15.0704C8.50057 15.5971 5.94145 13.8913 5.41479 11.2606C4.88812 8.62996 6.5939 6.07085 9.22457 5.54418C11.8552 5.01752 14.4143 6.72329 14.941 9.35396C15.161 10.4522 14.9903 11.538 14.5268 12.4686L14.5286 12.4664L14.9939 13.9544Z" fill="white"/>
<path d="M14.9944 13.9543C14.9944 13.9543 14.9859 13.9232 14.9668 13.8601C14.9473 13.7948 14.9184 13.7005 14.881 13.5765C14.8033 13.3223 14.6895 12.949 14.541 12.4632L14.5348 12.4423L14.5202 12.4588L14.5184 12.461L14.5388 12.4748C14.8179 11.917 15.0837 11.1165 15.0526 10.1414C15.0455 9.89877 15.0184 9.64721 14.969 9.39077C14.9077 9.13699 14.8535 8.87077 14.7482 8.61165C14.5562 8.08854 14.2602 7.56365 13.8495 7.09432C13.4402 6.62543 12.9166 6.21299 12.3046 5.91654C11.6939 5.61965 10.9948 5.43965 10.2659 5.42454C9.53749 5.40499 8.78416 5.56854 8.08993 5.89521C7.3966 6.22277 6.75838 6.72054 6.28282 7.36543C6.22371 7.44677 6.16238 7.52632 6.10505 7.60854C6.05349 7.69432 6.00193 7.7801 5.95082 7.86543L5.87393 7.99343L5.80905 8.12765C5.76638 8.21743 5.72371 8.30677 5.68149 8.39565C5.64238 8.48632 5.6126 8.58054 5.57793 8.6721C5.54638 8.76499 5.50593 8.85477 5.48593 8.95077C5.43927 9.14054 5.38105 9.32677 5.35971 9.51921C5.23527 10.2819 5.2966 11.053 5.51082 11.753C5.72993 12.4525 6.1006 13.077 6.56016 13.581C7.01927 14.0868 7.56549 14.4734 8.13305 14.7348C8.70105 14.9974 9.28993 15.1343 9.84771 15.1712C10.1273 15.1965 10.3984 15.1765 10.6597 15.161C10.9184 15.1205 11.1704 15.093 11.4042 15.0268C12.3486 14.7797 13.041 14.2997 13.493 13.8748L13.4837 13.8779C13.9757 13.9032 14.3539 13.9228 14.6113 13.9365C14.7366 13.9428 14.8322 13.9472 14.8984 13.9508C14.9633 13.9539 14.9944 13.9543 14.9944 13.9543C14.9944 13.9543 14.9597 13.9512 14.8944 13.9463C14.8273 13.9419 14.7308 13.9352 14.6042 13.9268C14.3486 13.9099 13.9735 13.8854 13.4859 13.8539L13.4806 13.8534L13.4766 13.857C13.0237 14.2761 12.333 14.7485 11.3953 14.9899C11.1628 15.0548 10.9126 15.081 10.6562 15.1201C10.397 15.1343 10.1282 15.1534 9.85127 15.1272C9.29882 15.089 8.71616 14.9517 8.15438 14.6903C7.59305 14.4303 7.05349 14.0463 6.60016 13.5454C6.14638 13.0459 5.78105 12.4281 5.56505 11.7365C5.35438 11.0441 5.29438 10.2819 5.41749 9.52854C5.43838 9.33832 5.49616 9.15432 5.54238 8.96677C5.56238 8.8721 5.60238 8.78321 5.63349 8.69165C5.66771 8.60099 5.69705 8.50765 5.73571 8.41832C5.77749 8.33032 5.81971 8.24188 5.86193 8.15343L5.92593 8.02099L6.00193 7.89432C6.0526 7.80988 6.10327 7.72499 6.15438 7.6401C6.21127 7.55921 6.27127 7.4801 6.32993 7.4001C6.79927 6.76277 7.42994 6.27121 8.11482 5.94677C8.8006 5.62365 9.54505 5.46099 10.265 5.47965C10.985 5.49388 11.6766 5.67032 12.2815 5.96321C12.8873 6.25565 13.4064 6.66232 13.8126 7.12588C14.2206 7.58943 14.5148 8.1081 14.7068 8.62588C14.8122 8.88232 14.8668 9.14632 14.9286 9.39743C14.9779 9.65165 15.0064 9.90143 15.0144 10.1419C15.0495 11.109 14.7899 11.9054 14.5166 12.4628L14.4766 12.5445L14.537 12.4765L14.5388 12.4743L14.5175 12.4699C14.6713 12.9503 14.789 13.3192 14.8695 13.5703C14.9095 13.6948 14.9402 13.7899 14.9615 13.8557C14.9824 13.9205 14.9944 13.9543 14.9944 13.9543Z" fill="#E46F6F"/>
<path d="M12.077 9.09213L11.3906 8.44006L8.46828 11.516L9.15461 12.1681L12.077 9.09213Z" fill="#EC6E5C"/>
<path d="M9.06222 8.49921L8.41016 9.18555L11.4861 12.1079L12.1382 11.4216L9.06222 8.49921Z" fill="#EC6E5C"/>
<path d="M23.011 12.1024C22.9154 12.0619 22.7923 12.0752 22.6727 12.081C22.5523 12.0899 22.431 12.0952 22.3256 12.0966C22.2198 12.0979 22.0985 12.0948 21.9781 12.089C21.8581 12.0859 21.7345 12.0752 21.6407 12.1179C21.5505 12.1579 21.5141 12.2699 21.6221 12.4059C21.7234 12.5384 21.9878 12.6801 22.3376 12.677C22.687 12.6721 22.9452 12.5241 23.0416 12.3895C23.1439 12.2512 23.103 12.1401 23.011 12.1024Z" fill="#441B13"/>
<path d="M25.3776 12.1318C25.4918 12.1011 25.6282 12.1358 25.7624 12.162C25.8967 12.1909 26.0322 12.2167 26.1509 12.2349C26.2696 12.2531 26.4069 12.2691 26.5438 12.2815C26.6793 12.2971 26.8207 12.3047 26.9193 12.3678C27.0144 12.4273 27.0371 12.5593 26.8931 12.6949C26.7571 12.8278 26.4358 12.946 26.0424 12.8864C25.65 12.8251 25.3829 12.6171 25.2967 12.45C25.2038 12.2784 25.2678 12.1598 25.3776 12.1318Z" fill="#441B13"/>
<path d="M22.4245 13.9263C22.4498 13.9272 22.4751 13.9147 22.4889 13.8912C22.5085 13.8574 22.4969 13.8138 22.4631 13.7938C21.9889 13.5178 21.6076 13.7396 21.5911 13.7494C21.5574 13.7694 21.5467 13.8134 21.5667 13.8472C21.5867 13.8809 21.6303 13.8921 21.664 13.8716C21.6774 13.8636 21.9925 13.6849 22.3916 13.9169C22.4023 13.9227 22.4134 13.9258 22.4245 13.9263Z" fill="#441B13"/>
<path d="M26.318 14.1969C26.3434 14.1978 26.3687 14.1854 26.3825 14.1618C26.402 14.128 26.3905 14.0845 26.3567 14.0645C25.8825 13.7885 25.5011 14.0102 25.4847 14.02C25.4509 14.04 25.4403 14.084 25.4603 14.1178C25.4803 14.1516 25.5238 14.1627 25.5576 14.1422C25.5709 14.1342 25.886 13.9556 26.2851 14.1876C26.2954 14.1934 26.3065 14.1965 26.318 14.1969Z" fill="#441B13"/>
<path d="M22.8122 18.1529C22.8122 18.1529 23.6273 17.66 24.4664 17.4031C25.3051 17.1462 24.6135 16.1022 23.3326 16.436C22.0522 16.7698 22.1282 18.4014 22.8122 18.1529Z" fill="white"/>
<path d="M7.57577 37.7107L7.82866 37.6716L8.49977 38.3547L8.57799 38.8596C8.57799 38.8596 8.97266 38.8227 8.82377 38.1693C8.67488 37.5156 8.75088 37.676 8.75088 37.676C8.75088 37.676 9.58021 37.544 9.63799 37.4609C9.68021 37.4009 9.57444 36.5729 9.51399 36.1245C9.48332 35.8987 9.31266 35.7107 9.09532 35.6902C9.06421 35.6871 9.03355 35.6876 9.00421 35.692C8.7971 35.724 7.76599 36.0569 7.76599 36.0569L7.3291 36.1249L7.57577 37.7107Z" fill="#F8E3E3"/>
<path d="M6.87363 37.9618L6.76074 36.208L7.19363 36.1409L7.45674 37.8355L6.87363 37.9618Z" fill="#F8E3E3"/>
</g>
</g>
<defs>
<clipPath id="clip0_1146_49374">
<rect width="48" height="48" rx="24" fill="white"/>
</clipPath>
<clipPath id="clip1_1146_49374">
<rect width="48" height="48" fill="white"/>
</clipPath>
</defs>
</svg>
