<svg width="48" height="48" viewBox="0 0 48 48" fill="none" xmlns="http://www.w3.org/2000/svg">
<g clip-path="url(#clip0_1146_49377)">
<rect width="48" height="48" rx="24" fill="white"/>
<g clip-path="url(#clip1_1146_49377)">
<path d="M17.389 2.24353H4.26415L4.09082 3.88086H17.389V2.24353Z" stroke="#F8E3E3" stroke-width="0.0888889" stroke-miterlimit="10" stroke-linecap="round" stroke-linejoin="round"/>
<path d="M17.389 3.88086H4.26415L4.09082 5.51819H17.389V3.88086Z" stroke="#F8E3E3" stroke-width="0.0888889" stroke-miterlimit="10" stroke-linecap="round" stroke-linejoin="round"/>
<path d="M17.389 5.51831H4.26415L4.09082 7.15564H17.389V5.51831Z" stroke="#F8E3E3" stroke-width="0.0888889" stroke-miterlimit="10" stroke-linecap="round" stroke-linejoin="round"/>
<path d="M17.389 7.15552H4.26415L4.09082 8.79285H17.389V7.15552Z" stroke="#F8E3E3" stroke-width="0.0888889" stroke-miterlimit="10" stroke-linecap="round" stroke-linejoin="round"/>
<path d="M17.389 8.79297H4.26415L4.09082 10.4303H17.389V8.79297Z" stroke="#F8E3E3" stroke-width="0.0888889" stroke-miterlimit="10" stroke-linecap="round" stroke-linejoin="round"/>
<path d="M17.389 10.4302H4.26415L4.09082 12.068H17.389V10.4302Z" stroke="#F8E3E3" stroke-width="0.0888889" stroke-miterlimit="10" stroke-linecap="round" stroke-linejoin="round"/>
<path d="M17.389 12.068H4.26415L4.09082 13.7053H17.389V12.068Z" stroke="#F8E3E3" stroke-width="0.0888889" stroke-miterlimit="10" stroke-linecap="round" stroke-linejoin="round"/>
<path d="M17.389 13.7054H4.26415L4.09082 15.3428H17.389V13.7054Z" stroke="#F8E3E3" stroke-width="0.0888889" stroke-miterlimit="10" stroke-linecap="round" stroke-linejoin="round"/>
<path d="M17.389 15.3427H4.26415L4.09082 16.98H17.389V15.3427Z" stroke="#F8E3E3" stroke-width="0.0888889" stroke-miterlimit="10" stroke-linecap="round" stroke-linejoin="round"/>
<path d="M17.389 16.9801H4.26415L4.09082 18.6174H17.389V16.9801Z" stroke="#F8E3E3" stroke-width="0.0888889" stroke-miterlimit="10" stroke-linecap="round" stroke-linejoin="round"/>
<path d="M17.389 18.6173H4.26415L4.09082 20.2546H17.389V18.6173Z" stroke="#F8E3E3" stroke-width="0.0888889" stroke-miterlimit="10" stroke-linecap="round" stroke-linejoin="round"/>
<path d="M17.389 20.2548H4.26415L4.09082 21.8925H17.389V20.2548Z" stroke="#F8E3E3" stroke-width="0.0888889" stroke-miterlimit="10" stroke-linecap="round" stroke-linejoin="round"/>
<path d="M17.389 21.8926H4.26415L4.09082 23.5299H17.389V21.8926Z" stroke="#F8E3E3" stroke-width="0.0888889" stroke-miterlimit="10" stroke-linecap="round" stroke-linejoin="round"/>
<path d="M17.389 23.5298H4.26415L4.09082 25.1671H17.389V23.5298Z" stroke="#F8E3E3" stroke-width="0.0888889" stroke-miterlimit="10" stroke-linecap="round" stroke-linejoin="round"/>
<path d="M17.389 25.1671H4.26415L4.09082 26.8044H17.389V25.1671Z" stroke="#F8E3E3" stroke-width="0.0888889" stroke-miterlimit="10" stroke-linecap="round" stroke-linejoin="round"/>
<path d="M30.8832 2.24365H17.7579L17.585 3.88099H30.8832V2.24365Z" stroke="#F8E3E3" stroke-width="0.0888889" stroke-miterlimit="10" stroke-linecap="round" stroke-linejoin="round"/>
<path d="M30.8832 3.88098H17.7579L17.585 5.51831H30.8832V3.88098Z" stroke="#F8E3E3" stroke-width="0.0888889" stroke-miterlimit="10" stroke-linecap="round" stroke-linejoin="round"/>
<path d="M30.8832 5.51831H17.7579L17.585 7.15564H30.8832V5.51831Z" stroke="#F8E3E3" stroke-width="0.0888889" stroke-miterlimit="10" stroke-linecap="round" stroke-linejoin="round"/>
<path d="M30.8832 7.15564H17.7579L17.585 8.79297H30.8832V7.15564Z" stroke="#F8E3E3" stroke-width="0.0888889" stroke-miterlimit="10" stroke-linecap="round" stroke-linejoin="round"/>
<path d="M30.8832 8.79297H17.7579L17.585 10.4303H30.8832V8.79297Z" stroke="#F8E3E3" stroke-width="0.0888889" stroke-miterlimit="10" stroke-linecap="round" stroke-linejoin="round"/>
<path d="M30.8832 10.4303H17.7579L17.585 12.0681H30.8832V10.4303Z" stroke="#F8E3E3" stroke-width="0.0888889" stroke-miterlimit="10" stroke-linecap="round" stroke-linejoin="round"/>
<path d="M30.8832 12.0681H17.7579L17.585 13.7054H30.8832V12.0681Z" stroke="#F8E3E3" stroke-width="0.0888889" stroke-miterlimit="10" stroke-linecap="round" stroke-linejoin="round"/>
<path d="M30.8832 13.7054H17.7579L17.585 15.3428H30.8832V13.7054Z" stroke="#F8E3E3" stroke-width="0.0888889" stroke-miterlimit="10" stroke-linecap="round" stroke-linejoin="round"/>
<path d="M30.8832 15.3428H17.7579L17.585 16.9801H30.8832V15.3428Z" stroke="#F8E3E3" stroke-width="0.0888889" stroke-miterlimit="10" stroke-linecap="round" stroke-linejoin="round"/>
<path d="M30.8832 16.9801H17.7579L17.585 18.6174H30.8832V16.9801Z" stroke="#F8E3E3" stroke-width="0.0888889" stroke-miterlimit="10" stroke-linecap="round" stroke-linejoin="round"/>
<path d="M30.8832 18.6174H17.7579L17.585 20.2548H30.8832V18.6174Z" stroke="#F8E3E3" stroke-width="0.0888889" stroke-miterlimit="10" stroke-linecap="round" stroke-linejoin="round"/>
<path d="M30.8832 20.2548H17.7579L17.585 21.8925H30.8832V20.2548Z" stroke="#F8E3E3" stroke-width="0.0888889" stroke-miterlimit="10" stroke-linecap="round" stroke-linejoin="round"/>
<path d="M30.8832 21.8925H17.7579L17.585 23.5298H30.8832V21.8925Z" stroke="#F8E3E3" stroke-width="0.0888889" stroke-miterlimit="10" stroke-linecap="round" stroke-linejoin="round"/>
<path d="M30.8832 23.5299H17.7579L17.585 25.1672H30.8832V23.5299Z" stroke="#F8E3E3" stroke-width="0.0888889" stroke-miterlimit="10" stroke-linecap="round" stroke-linejoin="round"/>
<path d="M30.8832 25.1671H17.7579L17.585 26.8044H30.8832V25.1671Z" stroke="#F8E3E3" stroke-width="0.0888889" stroke-miterlimit="10" stroke-linecap="round" stroke-linejoin="round"/>
<path d="M31.5398 0.975586H3.78516V2.2107H31.5398V0.975586Z" stroke="#F8E3E3" stroke-width="0.0888889" stroke-miterlimit="10" stroke-linecap="round" stroke-linejoin="round"/>
<path d="M31.54 2.21106V23.9648" stroke="#F8E3E3" stroke-width="0.0888889" stroke-miterlimit="10" stroke-linecap="round" stroke-linejoin="round"/>
<path d="M31.2373 2.24585V17.1712" stroke="#F8E3E3" stroke-width="0.0888889" stroke-miterlimit="10" stroke-linecap="round" stroke-linejoin="round"/>
<path d="M31.7356 23.9169H31.3623V24.4711H31.7356V23.9169Z" stroke="#F8E3E3" stroke-width="0.0888889" stroke-miterlimit="10" stroke-linecap="round" stroke-linejoin="round"/>
<path d="M31.4007 17.0525H31.0273V17.6067H31.4007V17.0525Z" stroke="#F8E3E3" stroke-width="0.0888889" stroke-miterlimit="10" stroke-linecap="round" stroke-linejoin="round"/>
<path d="M18.2041 12.4724C18.3192 12.7484 16.7597 13.8884 19.6348 16.6408H26.5832C27.1472 16.308 27.5574 14.9768 28.0166 14.6333C28.5317 14.248 28.8654 13.6595 28.793 13.0751C28.7054 12.3675 28.0588 11.7071 28.2703 11.0191C28.009 11.1297 27.7952 11.3208 27.677 11.5502C27.3997 11.4177 27.3606 11.0746 27.4779 10.8208C27.5952 10.5671 27.8232 10.364 27.981 10.1271C28.3592 9.5604 28.2832 8.79373 27.7988 8.29062C27.8654 8.91329 27.4583 9.55373 26.8134 9.84085C26.9881 9.44351 26.8632 8.96174 26.509 8.66618C26.2854 8.47996 25.9881 8.36885 25.7659 8.18129C25.0326 7.56262 25.3317 6.34218 24.505 5.81773C24.3521 6.27107 24.1988 6.7244 24.0459 7.17773C23.6641 7.04618 23.4988 6.65107 23.4939 6.29685C23.489 5.94262 23.5983 5.59062 23.5668 5.23773C23.5352 4.88485 23.301 4.50218 22.897 4.4364C22.9272 4.48485 22.9601 4.97462 22.8512 5.08573C22.1757 5.77329 21.405 6.27996 21.1957 7.16262C20.8966 6.62529 20.4343 6.15596 19.8672 5.81418C20.2472 6.32529 20.3254 6.99418 20.0712 7.5604C19.9139 7.91018 19.6428 8.21329 19.4566 8.55285C19.2703 8.89196 19.177 9.30618 19.3872 9.63507C18.957 9.13862 18.3966 8.72618 17.7597 8.43818C17.9841 8.61196 18.0708 8.88396 18.085 9.14351C18.0988 9.40307 18.0517 9.66262 18.0583 9.92218C18.0641 10.1386 18.0517 10.4057 18.041 10.692C17.7677 10.4417 17.4317 10.2484 17.0997 10.0577C17.245 10.2377 17.3974 10.4457 17.3468 10.6604C17.2912 10.8955 17.0152 11.0417 16.8966 11.2591C16.7757 11.4808 16.8388 11.7511 16.989 11.9595C17.1392 12.1675 17.3646 12.3257 17.5886 12.4768L18.2041 12.4724Z" fill="#F8E3E3"/>
<path d="M19.9191 16.0271C19.2862 15.4227 18.608 14.6307 18.5129 13.944C18.4565 13.5387 18.6231 13.2987 18.7702 13.0867C18.904 12.8938 19.1062 12.6018 18.9551 12.2405L18.796 11.8591L18.8378 10.7138C18.8391 10.6716 18.8409 10.6293 18.8427 10.588C18.8507 10.3733 18.8587 10.1689 18.8569 9.98535L20.0853 9.30357C20.0427 9.2369 20.0605 9.05868 20.1769 8.84668C20.2409 8.73024 20.3245 8.60846 20.4129 8.47957C20.5227 8.32002 20.644 8.14357 20.7467 7.94713L21.5013 9.30357L21.9765 7.30046C22.0707 6.90402 22.3391 6.59602 22.6956 6.25513C22.6956 6.27157 22.6956 6.28846 22.6956 6.30535C22.6996 6.59646 22.7738 6.87824 22.9098 7.12046C23.0951 7.45024 23.3849 7.69068 23.7485 7.81602L24.5653 8.09779L24.6369 7.88535C24.7573 8.16357 24.9307 8.43913 25.2067 8.67202C25.3725 8.81202 25.5453 8.91068 25.6973 8.99824C25.7987 9.05646 25.8947 9.11113 25.9533 9.16002C26.0787 9.26446 26.1285 9.45646 26.0667 9.5969L25.3289 11.2756L26.6951 10.6671C26.4787 11.256 26.7227 11.88 27.2907 12.1511L27.7018 12.3471C27.7236 12.3969 27.7458 12.4453 27.7671 12.4925C27.8747 12.7307 27.9765 12.9556 28 13.1471C28.0405 13.4742 27.8418 13.8538 27.4938 14.1138C27.1573 14.3653 26.9347 14.7707 26.6773 15.24C26.5662 15.4418 26.4516 15.6507 26.34 15.8187C26.2698 15.9245 26.2165 15.9889 26.1813 16.0271H19.9191ZM17.8689 11.7876C17.7818 11.7218 17.7107 11.6587 17.6658 11.5969C17.648 11.5725 17.6382 11.5493 17.6338 11.5333C17.6542 11.5107 17.6853 11.4791 17.7098 11.4542C17.72 11.4436 17.7311 11.4329 17.7422 11.4213L18.14 11.7853L17.8689 11.7876Z" fill="#EEC7C6"/>
<g opacity="0.3">
<path d="M20.4529 15.0261C19.7844 14.3172 19.6817 13.935 19.6666 13.8248C19.6577 13.7608 19.6573 13.7585 19.768 13.599C20.3853 12.7079 20.1409 12.1221 20.0489 11.9012L19.9649 11.6994L20 10.7448C20.0013 10.7092 20.0066 10.5648 20.008 10.5372L20.6902 10.1585L21.9489 12.4208L22.8684 8.54565C23.0093 8.62343 23.1595 8.6901 23.3182 8.74477L23.9942 8.9781C24.1137 9.1261 24.2471 9.2621 24.3955 9.38699C24.5324 9.50254 24.668 9.59632 24.792 9.67454L23.1671 13.3657L25.7795 12.2021C26.0022 12.5501 26.3293 12.8363 26.7289 13.027L26.7693 13.0461C26.8004 13.1185 26.828 13.1874 26.84 13.2319C26.8275 13.2603 26.7933 13.3128 26.7324 13.3585C26.212 13.7479 25.928 14.2648 25.6271 14.8123C25.5875 14.8839 25.548 14.9568 25.5089 15.0261H20.4529Z" fill="white"/>
</g>
<path d="M24.2714 5.64807C24.2572 5.59429 24.243 5.54051 24.2283 5.48673C24.2167 5.44273 24.2047 5.39607 24.2074 5.34762C24.2132 5.24185 24.287 5.16718 24.2807 5.0614C24.3003 5.11518 24.3256 5.16229 24.3452 5.21696C24.3643 5.27118 24.3776 5.33651 24.3687 5.39829C24.3634 5.4374 24.3496 5.47118 24.3359 5.50407C24.3163 5.55251 24.2963 5.60051 24.2767 5.64896" fill="#F8E3E3"/>
<path opacity="0.19" d="M55.0099 43.5004H-2.33496V51.551H55.0099V43.5004Z" fill="#D2AEAD"/>
<g opacity="0.51">
<path d="M12.469 39.8938C12.469 39.8938 11.9179 36.3026 11.9636 34.2133C12.0094 32.124 11.961 29.7733 11.961 29.7733H12.2148C12.2148 29.7733 12.0427 33.9204 12.2299 36.4218C12.417 38.9213 12.9099 39.8938 12.9099 39.8938H12.469Z" fill="#E0E0E0"/>
<path d="M14.1107 25.7329C14.0596 25.6103 13.9969 25.4823 13.8791 25.4121C13.7178 25.3152 13.5067 25.3556 13.3271 25.4156C12.5596 25.6729 11.8796 27.0289 11.5693 27.7418L12.588 30.9952C14.4267 29.3783 14.7453 27.2574 14.1107 25.7329Z" fill="#EBEBEB"/>
<path d="M13.8187 25.5435C13.8201 25.5439 13.8147 25.5586 13.8041 25.5861C13.7912 25.6172 13.7743 25.6564 13.7543 25.7048C13.7094 25.807 13.6472 25.9559 13.5721 26.1408C13.4218 26.5101 13.2307 27.0266 13.0601 27.6088C12.8898 28.191 12.7725 28.727 12.7005 29.1168C12.6641 29.3119 12.637 29.4701 12.6196 29.5795C12.6107 29.6306 12.6036 29.6724 12.5978 29.7052C12.5925 29.7341 12.589 29.7488 12.5876 29.7488C12.5863 29.7488 12.5867 29.7332 12.5898 29.7044C12.5934 29.671 12.5983 29.6288 12.6036 29.5772C12.6161 29.467 12.6387 29.3079 12.6716 29.1119C12.7365 28.7199 12.8494 28.1817 13.0201 27.5977C13.1912 27.0141 13.3876 26.4977 13.545 26.1301C13.6236 25.9461 13.6903 25.799 13.7396 25.6981C13.7627 25.651 13.7818 25.6128 13.797 25.5826C13.8098 25.5564 13.8174 25.543 13.8187 25.5435Z" fill="#E0E0E0"/>
<path d="M12.1356 31.7752C11.1805 31.2752 10.6178 30.3343 10.5654 29.3014C10.5285 28.5796 10.7627 27.8712 11.028 27.1934C11.0511 27.1348 11.0783 27.0712 11.136 27.0405C11.216 26.9974 11.3165 27.0356 11.3965 27.0788C12.0903 27.4534 12.5107 28.1672 12.7347 28.8934C12.8836 29.377 12.9605 29.8863 12.8916 30.3859C12.8223 30.8859 12.5209 31.429 12.1356 31.7752Z" fill="#E0E0E0"/>
<path d="M12.1343 31.7751C12.1329 31.7751 12.1316 31.76 12.1307 31.7315C12.1303 31.6986 12.1294 31.6573 12.128 31.6066C12.1276 31.4982 12.1231 31.3413 12.1138 31.148C12.0956 30.7609 12.0418 30.2275 11.9365 29.6449C11.8307 29.0622 11.7018 28.5404 11.6071 28.1631C11.5605 27.9786 11.5223 27.8275 11.4943 27.7164C11.4823 27.6671 11.4725 27.6266 11.4649 27.5946C11.4587 27.5666 11.456 27.552 11.4574 27.5515C11.4587 27.5511 11.464 27.5653 11.4729 27.5929C11.4827 27.6244 11.4951 27.664 11.5098 27.7129C11.5414 27.8173 11.5845 27.9689 11.636 28.1564C11.7383 28.532 11.8716 29.0537 11.9778 29.6382C12.0836 30.2226 12.1325 30.7582 12.1431 31.1466C12.1489 31.3409 12.1489 31.4977 12.144 31.6066C12.1418 31.6573 12.14 31.6986 12.1387 31.7315C12.1374 31.7604 12.1356 31.7751 12.1343 31.7751Z" fill="#EBEBEB"/>
<path d="M13.2129 37.2697C14.1529 37.4653 14.9267 38.0937 15.8333 38.399C16.4333 38.6013 17.1116 38.6728 17.5907 39.0701C17.4756 38.795 17.2031 38.6119 16.9387 38.4555C16.1929 38.0141 15.3947 37.6528 14.5636 37.3808C14.1369 37.2413 13.6742 37.1244 13.2396 37.2395" fill="#EBEBEB"/>
<path d="M11.8526 38.0635C10.6758 38.0458 9.4362 37.096 8.26465 37.0391C9.49087 36.664 11.2464 36.9702 11.8526 38.0635Z" fill="#EBEBEB"/>
<path d="M12.3135 35.3875C12.9113 35.1835 13.5673 35.1738 14.1953 35.2662C14.8233 35.3587 15.4295 35.5493 16.0321 35.7395C15.9717 35.3524 15.641 35.0613 15.3304 34.804C15.0966 34.6102 14.861 34.4151 14.5926 34.2667C14.3241 34.1182 14.0184 34.0178 13.7077 34.0302C13.3335 34.0453 12.977 34.2284 12.7313 34.4964C12.4864 34.7644 12.3544 35.0347 12.3135 35.3875Z" fill="#EBEBEB"/>
<path d="M9.89788 34.156C9.15699 33.5564 8.03477 33.6151 7.06055 33.636C8.55788 34.3142 10.1712 35.2444 11.461 36.2346C11.5001 35.5818 10.8339 34.9133 9.89788 34.156Z" fill="#EBEBEB"/>
<path d="M12.6465 33.3285C13.019 33.093 13.3959 32.869 13.7861 32.701C14.1759 32.533 14.5399 32.2654 14.9168 32.0721C15.4052 31.8214 15.8283 31.473 16.2768 31.1623C16.7252 30.8516 17.2176 30.5712 17.7661 30.489C17.3185 30.4014 16.8514 30.4494 16.4105 30.5632C15.9701 30.6774 15.5514 30.8556 15.135 31.0334C14.5568 31.2801 13.9688 31.533 13.4963 31.9334C13.0239 32.3343 12.5968 32.7294 12.6465 33.3285Z" fill="#EBEBEB"/>
<path d="M15.8119 38.0636C15.8111 38.065 15.7986 38.0596 15.7746 38.0485C15.7466 38.0348 15.7128 38.0183 15.6719 37.9983C15.5835 37.9534 15.4559 37.8872 15.2959 37.8112C15.2168 37.7716 15.1288 37.7299 15.0333 37.6876C14.9391 37.6432 14.8364 37.5992 14.7275 37.5547C14.5102 37.4667 14.2675 37.3752 14.0026 37.3152C13.7386 37.2539 13.4759 37.2405 13.2475 37.2974C13.1324 37.3236 13.0239 37.3499 12.9275 37.3881C12.8306 37.4254 12.7444 37.4685 12.6693 37.5139C12.5186 37.6036 12.4133 37.6992 12.3448 37.7681C12.2768 37.8374 12.2435 37.8796 12.2404 37.8774C12.2391 37.8765 12.2466 37.8654 12.2613 37.8445C12.2759 37.8236 12.2999 37.7943 12.3324 37.7574C12.3977 37.685 12.5013 37.585 12.6528 37.4899C12.7284 37.4423 12.8155 37.3965 12.9142 37.3574C13.0124 37.317 13.1231 37.289 13.2382 37.2619C13.4715 37.2014 13.7448 37.2143 14.0119 37.277C14.2808 37.3374 14.5248 37.4312 14.7426 37.5214C14.8515 37.5672 14.9542 37.6121 15.0479 37.6583C15.1431 37.7023 15.2306 37.7454 15.3093 37.7867C15.4684 37.8663 15.5933 37.9365 15.6795 37.9854C15.7191 38.0081 15.7515 38.0267 15.7786 38.0423C15.8013 38.0547 15.8124 38.0623 15.8119 38.0636Z" fill="#E0E0E0"/>
<path d="M10.9756 37.5107C10.9765 37.508 11.0027 37.5155 11.0494 37.5311C11.0961 37.5462 11.1619 37.5729 11.2414 37.6102C11.3996 37.6844 11.6081 37.8107 11.8036 37.988C11.9987 38.1662 12.1401 38.3587 12.2245 38.5053C12.2672 38.5787 12.2979 38.64 12.3156 38.6835C12.3339 38.7271 12.3427 38.7515 12.3401 38.7524C12.3334 38.7551 12.2894 38.6609 12.1987 38.5191C12.1085 38.3773 11.9659 38.1915 11.7743 38.0164C11.5819 37.8418 11.3801 37.7142 11.2272 37.6347C11.0743 37.5551 10.973 37.5169 10.9756 37.5107Z" fill="#E0E0E0"/>
<path d="M8.37208 34.1001C8.37252 34.0987 8.38986 34.1036 8.4223 34.1143C8.45875 34.1267 8.50541 34.1423 8.56363 34.1618C8.6263 34.1836 8.70097 34.2098 8.7863 34.2396C8.87297 34.2703 8.96719 34.3152 9.07386 34.3596C9.49786 34.5418 10.0614 34.849 10.6063 35.285C10.8747 35.5063 11.1179 35.7316 11.321 35.9516C11.5232 36.1721 11.6947 36.3796 11.8281 36.5605C11.9623 36.741 12.0645 36.8912 12.1343 36.9952C12.1672 37.0441 12.1939 37.0841 12.2147 37.1147C12.233 37.1423 12.2419 37.157 12.241 37.1578C12.2401 37.1587 12.2285 37.1454 12.2081 37.1192C12.1876 37.093 12.1579 37.0543 12.121 37.0036C12.0467 36.9023 11.9414 36.7547 11.8045 36.577C11.6685 36.3987 11.4952 36.1938 11.2925 35.9761C11.089 35.7583 10.8467 35.5352 10.5796 35.3152C10.0383 34.8818 9.48052 34.5734 9.06186 34.385C8.95652 34.3392 8.86319 34.2921 8.77786 34.2596C8.69341 34.2272 8.62008 34.1992 8.5583 34.1756C8.50141 34.1534 8.45563 34.1352 8.42008 34.121C8.38808 34.1085 8.37163 34.1014 8.37208 34.1001Z" fill="#E0E0E0"/>
<path d="M14.079 34.7605C14.0781 34.7632 14.0447 34.7588 13.9852 34.749C13.9527 34.7432 13.9167 34.737 13.8772 34.7299C13.835 34.7223 13.7861 34.7219 13.7327 34.7165C13.5212 34.7019 13.2127 34.7188 12.9239 34.8677C12.7781 34.9374 12.6559 35.0321 12.5559 35.1263C12.4545 35.2201 12.3772 35.3179 12.3194 35.4037C12.2012 35.5748 12.1647 35.6988 12.1576 35.6961C12.1554 35.6957 12.1621 35.6641 12.1816 35.609C12.2034 35.5552 12.2367 35.4765 12.2941 35.3885C12.3501 35.2997 12.4261 35.1979 12.5283 35.1006C12.6292 35.0023 12.7541 34.9045 12.9043 34.8321C13.2025 34.6783 13.5212 34.6659 13.7354 34.6881C13.7896 34.6952 13.8394 34.6974 13.8812 34.7072C13.9207 34.7165 13.9567 34.7254 13.9892 34.733C14.0479 34.7485 14.0799 34.7579 14.079 34.7605Z" fill="#E0E0E0"/>
<path d="M15.2636 31.2826C15.2641 31.284 15.249 31.2929 15.2192 31.3089C15.1854 31.3262 15.1419 31.3489 15.0881 31.3764C14.9739 31.4346 14.8094 31.5209 14.6099 31.6324C14.4112 31.7453 14.177 31.884 13.9281 32.0529C13.6796 32.2217 13.413 32.4186 13.1668 32.6573C13.0454 32.7773 12.9334 32.9031 12.8552 33.0395C12.7783 33.18 12.7045 33.3155 12.6365 33.4458C12.5005 33.7058 12.3894 33.9453 12.3094 34.1511C12.2294 34.3569 12.1796 34.5284 12.1503 34.648C12.1201 34.7675 12.1094 34.8346 12.105 34.8342C12.1036 34.8342 12.105 34.8169 12.1099 34.7849C12.1143 34.7529 12.1214 34.7053 12.1343 34.6449C12.1592 34.524 12.2045 34.3502 12.2814 34.1417C12.3583 33.9333 12.4672 33.6915 12.6014 33.4297C12.6685 33.2986 12.7414 33.1626 12.8183 33.0217C12.8992 32.8791 13.013 32.752 13.1361 32.6302C13.3854 32.3884 13.6543 32.192 13.9054 32.0235C14.157 31.8555 14.3934 31.7191 14.5948 31.6089C14.797 31.5 14.9636 31.4177 15.0805 31.3635C15.1361 31.3386 15.1805 31.3182 15.2156 31.3026C15.2463 31.288 15.2628 31.2813 15.2636 31.2826Z" fill="#E0E0E0"/>
<path d="M11.9614 34.66C11.9587 34.6605 11.9502 34.6267 11.9378 34.5658C11.924 34.4969 11.9067 34.4107 11.8862 34.308C11.8414 34.0907 11.7729 33.792 11.6636 33.4711C11.5551 33.1498 11.4236 32.8702 11.3276 32.6685C11.2818 32.5733 11.2436 32.4933 11.2129 32.4298C11.1862 32.3733 11.1725 32.3413 11.1751 32.34C11.1778 32.3387 11.196 32.3685 11.2276 32.4227C11.2587 32.4773 11.3027 32.5569 11.3547 32.6565C11.4578 32.8556 11.5947 33.1351 11.704 33.4587C11.8142 33.7818 11.8782 34.084 11.916 34.3031C11.9342 34.4129 11.9476 34.5018 11.9542 34.5636C11.9614 34.6253 11.964 34.6596 11.9614 34.66Z" fill="#E0E0E0"/>
<path d="M11.8771 32.1222C11.8478 31.7009 11.7029 31.2911 11.4945 30.9178C10.9229 29.8942 9.84959 29.1356 8.65137 28.9084C9.5287 30.148 10.4065 31.3871 11.2838 32.6267L11.6238 33.2902C11.8554 32.9298 11.9065 32.5436 11.8771 32.1222Z" fill="#EBEBEB"/>
<path d="M15.6531 39.4498H9.53223V40.4778H15.6531V39.4498Z" fill="#EBEBEB"/>
<path d="M9.98926 40.2738L10.5106 43.464H14.5741L15.1959 40.2738H9.98926Z" fill="#EBEBEB"/>
<path d="M15.6486 40.4792C15.6486 40.4903 14.2677 40.4996 12.565 40.4996C10.8614 40.4996 9.48145 40.4903 9.48145 40.4792C9.48145 40.4681 10.8619 40.4587 12.565 40.4587C14.2681 40.4587 15.6486 40.4676 15.6486 40.4792Z" fill="#E0E0E0"/>
</g>
<path d="M58.3293 43.4822H-1.75293" stroke="#B24B4B" stroke-width="0.0444444" stroke-miterlimit="10"/>
<path d="M40.3303 8.80028C42.001 7.12954 42.001 4.42075 40.3303 2.75002C38.6595 1.07928 35.9507 1.07928 34.28 2.75002C32.6093 4.42075 32.6093 7.12954 34.28 8.80028C35.9507 10.471 38.6595 10.471 40.3303 8.80028Z" stroke="#F8E3E3" stroke-width="0.0888889" stroke-miterlimit="10" stroke-linecap="round" stroke-linejoin="round"/>
<path d="M41.2124 6.41588C41.5667 4.2594 40.1057 2.22406 37.9492 1.86982C35.7927 1.51557 33.7574 2.97658 33.4031 5.13306C33.0489 7.28954 34.5099 9.32489 36.6664 9.67913C38.8229 10.0334 40.8582 8.57237 41.2124 6.41588Z" stroke="#F8E3E3" stroke-width="0.0888889" stroke-miterlimit="10" stroke-linecap="round" stroke-linejoin="round"/>
<path d="M37.6449 5.7751C37.6449 5.96266 37.4929 6.11466 37.3054 6.11466C37.1178 6.11466 36.9658 5.96266 36.9658 5.7751C36.9658 5.58755 37.1178 5.43555 37.3054 5.43555C37.4929 5.43555 37.6449 5.58755 37.6449 5.7751Z" stroke="#F8E3E3" stroke-width="0.0888889" stroke-miterlimit="10" stroke-linecap="round" stroke-linejoin="round"/>
<path d="M36.966 5.77502H35.8096" stroke="#F8E3E3" stroke-width="0.0888889" stroke-miterlimit="10" stroke-linecap="round" stroke-linejoin="round"/>
<path d="M37.3047 6.11462V8.70796" stroke="#F8E3E3" stroke-width="0.0888889" stroke-miterlimit="10" stroke-linecap="round" stroke-linejoin="round"/>
<path d="M34.1622 41.3607L34.188 41.3403V37.7434H33.6711V35.4696H35.5831V37.7434H35.0666V41.402L39.64 42.8594V43.2212C39.64 43.4496 39.4546 43.6345 39.2266 43.6345C38.9982 43.6345 38.8133 43.4496 38.8133 43.2212V43.1696L34.9893 42.7247V43.2727C34.9893 43.4727 34.8275 43.6345 34.6275 43.6345C34.428 43.6345 34.2657 43.4727 34.2657 43.2727V42.7065L30.2866 43.1692V43.2207C30.2866 43.4492 30.1017 43.634 29.8733 43.634C29.6449 43.634 29.46 43.4492 29.46 43.2207V42.8589L34.1622 41.3607Z" fill="#263138" stroke="#263138" stroke-width="0.0444444" stroke-miterlimit="10" stroke-linecap="round" stroke-linejoin="round"/>
<path d="M28.3633 35.8888H40.4127C40.5109 35.8888 40.5904 35.8092 40.5904 35.711V33.4292C40.5904 33.331 40.5109 33.2515 40.4127 33.2515H28.3633C28.2651 33.2515 28.1855 33.331 28.1855 33.4292V35.711C28.1855 35.8092 28.2651 35.8888 28.3633 35.8888Z" fill="#263138" stroke="#263138" stroke-width="0.0444444" stroke-miterlimit="10" stroke-linecap="round" stroke-linejoin="round"/>
<g opacity="0.65">
<path d="M34.7412 27.3573L34.7634 27.8876H40.7545V26.8044L34.7412 27.3573Z" stroke="#C99494" stroke-width="0.0444444" stroke-miterlimit="10" stroke-linecap="round" stroke-linejoin="round"/>
<path d="M34.4544 27.2022L40.9322 26.6053V28.0867H34.4322C34.4322 28.0867 34.366 27.8658 34.5206 27.8658C34.6753 27.8658 40.6446 27.8658 40.6446 27.8658V26.8045L34.4766 27.3791C34.4762 27.3791 34.2109 27.2245 34.4544 27.2022Z" fill="#C99494"/>
<path d="M40.6893 27.0476L38.6777 27.2245" stroke="#263138" stroke-width="0.0444444" stroke-miterlimit="10" stroke-linecap="round" stroke-linejoin="round"/>
<path d="M39.0531 27.4236L36.6211 27.5782" stroke="#C99494" stroke-width="0.0444444" stroke-miterlimit="10" stroke-linecap="round" stroke-linejoin="round"/>
<path d="M40.5999 27.4458L39.959 27.512" stroke="#263138" stroke-width="0.0444444" stroke-miterlimit="10" stroke-linecap="round" stroke-linejoin="round"/>
<path d="M39.6713 27.5343L39.3838 27.5783" stroke="#263138" stroke-width="0.0444444" stroke-miterlimit="10" stroke-linecap="round" stroke-linejoin="round"/>
<path d="M34.6523 24.8734L34.6741 25.404H40.6657V24.3209L34.6523 24.8734Z" stroke="#C99494" stroke-width="0.0444444" stroke-miterlimit="10" stroke-linecap="round" stroke-linejoin="round"/>
<path d="M34.3653 24.7187L40.843 24.1218V25.6032H34.343C34.343 25.6032 34.2768 25.3823 34.4315 25.3823C34.5862 25.3823 40.5555 25.3823 40.5555 25.3823V24.3209L34.3875 24.8956C34.3875 24.8956 34.1222 24.7409 34.3653 24.7187Z" fill="#C56262"/>
<path d="M40.5999 24.564L38.5879 24.7409" stroke="#263138" stroke-width="0.0444444" stroke-miterlimit="10" stroke-linecap="round" stroke-linejoin="round"/>
<path d="M38.9642 24.9396L36.5322 25.0947" stroke="#C99494" stroke-width="0.0444444" stroke-miterlimit="10" stroke-linecap="round" stroke-linejoin="round"/>
<path d="M40.5115 24.9618L39.8701 25.028" stroke="#263138" stroke-width="0.0444444" stroke-miterlimit="10" stroke-linecap="round" stroke-linejoin="round"/>
<path d="M39.583 25.0502L39.2959 25.0946" stroke="#263138" stroke-width="0.0444444" stroke-miterlimit="10" stroke-linecap="round" stroke-linejoin="round"/>
<path d="M34.6113 23.9507L34.6887 24.476L40.6473 23.8538L40.5349 22.7765L34.6113 23.9507Z" stroke="#C99494" stroke-width="0.0444444" stroke-miterlimit="10" stroke-linecap="round" stroke-linejoin="round"/>
<path d="M34.3098 23.8266L40.6903 22.5599L40.844 24.0333L34.3796 24.7084C34.3796 24.7084 34.2907 24.4955 34.4445 24.4795C34.5983 24.4635 40.5351 23.843 40.5351 23.843L40.4249 22.7875L34.3498 23.9999C34.3503 24.0004 34.0703 23.8737 34.3098 23.8266Z" fill="#EA8888"/>
<path d="M40.4944 23.0248L38.5117 23.4097" stroke="#263138" stroke-width="0.0444444" stroke-miterlimit="10" stroke-linecap="round" stroke-linejoin="round"/>
<path d="M38.9066 23.5688L36.5039 23.9755" stroke="#C99494" stroke-width="0.0444444" stroke-miterlimit="10" stroke-linecap="round" stroke-linejoin="round"/>
<path d="M40.4485 23.4302L39.8174 23.5626" stroke="#263138" stroke-width="0.0444444" stroke-miterlimit="10" stroke-linecap="round" stroke-linejoin="round"/>
<path d="M39.5338 23.6146L39.2529 23.6884" stroke="#263138" stroke-width="0.0444444" stroke-miterlimit="10" stroke-linecap="round" stroke-linejoin="round"/>
<path d="M40.5318 25.84L40.5563 26.3707L34.5878 26.8933L34.4932 25.8142L40.5318 25.84Z" stroke="#C99494" stroke-width="0.0444444" stroke-miterlimit="10"/>
<path d="M40.8047 25.6609L34.2998 25.6311L34.4291 27.1067L40.9042 26.5395C40.9042 26.5395 40.9509 26.3133 40.7967 26.3271C40.6425 26.3404 34.6962 26.8613 34.6962 26.8613L34.6038 25.804L40.7985 25.8387C40.798 25.8391 41.0487 25.6618 40.8047 25.6609Z" fill="#E46F6F"/>
<path d="M34.5801 26.0507L36.6001 26.0511" stroke="#C99494" stroke-width="0.0444444" stroke-miterlimit="10" stroke-linecap="round" stroke-linejoin="round"/>
<path d="M36.2432 26.2823L38.6792 26.2245" stroke="#C99494" stroke-width="0.0444444" stroke-miterlimit="10" stroke-linecap="round" stroke-linejoin="round"/>
<path d="M34.7031 26.4392L35.3476 26.4494" stroke="#C99494" stroke-width="0.0444444" stroke-miterlimit="10" stroke-linecap="round" stroke-linejoin="round"/>
<path d="M35.6357 26.4463L35.926 26.4654" stroke="#C99494" stroke-width="0.0444444" stroke-miterlimit="10" stroke-linecap="round" stroke-linejoin="round"/>
<path d="M40.3617 21.7881L40.443 22.313L34.5657 23.4765L34.3555 22.4139L40.3617 21.7881Z" stroke="#C99494" stroke-width="0.0444444" stroke-miterlimit="10"/>
<path d="M40.6138 21.5806L34.1436 22.253L34.4311 23.7059L40.8071 22.4437C40.8071 22.4437 40.8293 22.2139 40.6773 22.2441C40.5253 22.2743 34.6702 23.4334 34.6702 23.4334L34.464 22.3926L40.6262 21.7583C40.6262 21.7583 40.8564 21.5552 40.6138 21.5806Z" fill="#C05C5C"/>
<path d="M34.4678 22.6397L36.4753 22.4224" stroke="#C99494" stroke-width="0.0444444" stroke-miterlimit="10" stroke-linecap="round" stroke-linejoin="round"/>
<path d="M36.1455 22.6908L38.5611 22.3704" stroke="#C99494" stroke-width="0.0444444" stroke-miterlimit="10" stroke-linecap="round" stroke-linejoin="round"/>
<path d="M34.6318 23.013L35.2736 22.9535" stroke="#C99494" stroke-width="0.0444444" stroke-miterlimit="10" stroke-linecap="round" stroke-linejoin="round"/>
<path d="M35.5596 22.9192L35.8498 22.9067" stroke="#C99494" stroke-width="0.0444444" stroke-miterlimit="10" stroke-linecap="round" stroke-linejoin="round"/>
</g>
<path d="M41.5989 19.3071C41.5989 19.3071 41.6744 18.8982 41.6691 18.7622C41.6637 18.6258 41.5682 18.4898 41.6082 18.3533C41.6482 18.2169 41.5997 18.1262 41.6384 17.9444C41.6771 17.7627 41.5255 17.3538 41.5255 17.3538C41.5255 17.3538 41.4962 17.0338 41.5349 16.852C41.5735 16.6702 37.034 16.8787 37.034 16.8787L36.9233 17.56C36.9233 17.56 36.9233 17.56 36.8984 18.1049L36.9282 18.3071L36.8997 18.7613L36.9637 19.2609C36.9637 19.2609 36.722 20.0787 36.7726 20.2147C36.8233 20.3511 36.7442 20.6689 36.7442 20.6689L36.4922 21.2138L36.782 21.668L36.818 22.6218H36.9869L36.9704 22.7227C36.9704 22.7227 36.9704 22.7227 36.9455 23.2676L36.9677 23.8582L36.9393 24.3124L37.0033 24.812C37.0033 24.812 36.7615 25.6298 36.8122 25.7658C36.8629 25.9022 36.7837 26.22 36.7837 26.22L36.5317 26.7649L36.8215 27.2191L36.8575 28.1729H41.7633L41.7006 27.7187C41.7006 27.7187 41.7357 27.4462 41.7691 27.128C41.8024 26.8102 41.7535 26.7191 41.7535 26.7191L41.7331 26.1742C41.7331 26.1742 41.7246 25.9471 41.7615 25.72C41.7984 25.4929 41.7411 25.1751 41.7411 25.1751L41.6384 24.8573C41.6384 24.8573 41.714 24.4484 41.7086 24.3124C41.7033 24.176 41.6077 24.04 41.6477 23.9036C41.6882 23.7671 41.6393 23.6764 41.678 23.4947C41.7166 23.3129 41.5651 22.904 41.5651 22.904C41.5651 22.904 41.6144 22.7676 41.6549 22.6213H41.7242L41.6615 22.1671C41.6615 22.1671 41.6966 21.8947 41.73 21.5764C41.7633 21.2587 41.7144 21.1676 41.7144 21.1676L41.694 20.6227C41.694 20.6227 41.6855 20.3956 41.7224 20.1684C41.7593 19.9413 41.702 19.6236 41.702 19.6236L41.5989 19.3071Z" fill="white" stroke="#EEC7C6" stroke-width="0.0444444" stroke-miterlimit="10" stroke-linecap="round" stroke-linejoin="round"/>
<path d="M40.4737 17.2396L37.3457 17.3387" stroke="#EEC7C6" stroke-width="0.0444444" stroke-miterlimit="10"/>
<path d="M41.38 17.3237L40.9111 17.2802" stroke="#EEC7C6" stroke-width="0.0444444" stroke-miterlimit="10"/>
<path d="M38.4541 17.8139L41.3074 17.6965" stroke="#EEC7C6" stroke-width="0.0444444" stroke-miterlimit="10"/>
<path d="M37.3818 17.7117L38.1609 17.7859" stroke="#EEC7C6" stroke-width="0.0444444" stroke-miterlimit="10"/>
<path d="M39.1468 18.5391L37.4766 18.464" stroke="#EEC7C6" stroke-width="0.0444444" stroke-miterlimit="10"/>
<path d="M40.3977 18.5956L39.4893 18.5547" stroke="#EEC7C6" stroke-width="0.0444444" stroke-miterlimit="10"/>
<path d="M37.1201 18.9246L41.2952 19.1441" stroke="#EEC7C6" stroke-width="0.0444444" stroke-miterlimit="10"/>
<path d="M41.2666 19.517L37.5342 19.4072" stroke="#EEC7C6" stroke-width="0.0444444" stroke-miterlimit="10"/>
<path d="M37.7656 19.8254L40.579 19.9117" stroke="#EEC7C6" stroke-width="0.0444444" stroke-miterlimit="10"/>
<path d="M37 19.8019L37.3444 19.8125" stroke="#EEC7C6" stroke-width="0.0444444" stroke-miterlimit="10"/>
<path d="M37.4828 20.904L37.1299 20.8987" stroke="#EEC7C6" stroke-width="0.0444444" stroke-miterlimit="10"/>
<path d="M40.2097 20.9468L37.8057 20.9094" stroke="#EEC7C6" stroke-width="0.0444444" stroke-miterlimit="10"/>
<path d="M41.321 20.9645L40.6299 20.9534" stroke="#EEC7C6" stroke-width="0.0444444" stroke-miterlimit="10"/>
<path d="M37.0791 21.2933L39.7338 21.3151" stroke="#EEC7C6" stroke-width="0.0444444" stroke-miterlimit="10"/>
<path d="M39.3548 22.0392H38.7295" stroke="#EEC7C6" stroke-width="0.0444444" stroke-miterlimit="10"/>
<path d="M41.2737 22.0392H39.7363" stroke="#EEC7C6" stroke-width="0.0444444" stroke-miterlimit="10"/>
<path d="M41.0182 18.157H40.2725" stroke="#EEC7C6" stroke-width="0.0444444" stroke-miterlimit="10"/>
<path d="M40.5116 22.7915L37.3916 22.5026" stroke="#EEC7C6" stroke-width="0.0444444" stroke-miterlimit="10"/>
<path d="M41.4195 22.8756L40.9502 22.832" stroke="#EEC7C6" stroke-width="0.0444444" stroke-miterlimit="10"/>
<path d="M38.5 22.9773L41.3453 23.2484" stroke="#EEC7C6" stroke-width="0.0444444" stroke-miterlimit="10"/>
<path d="M37.4277 22.8755L38.2068 22.9497" stroke="#EEC7C6" stroke-width="0.0444444" stroke-miterlimit="10"/>
<path d="M39.1849 24.0911L37.5146 24.016" stroke="#EEC7C6" stroke-width="0.0444444" stroke-miterlimit="10"/>
<path d="M40.4368 24.1475L39.5283 24.1066" stroke="#EEC7C6" stroke-width="0.0444444" stroke-miterlimit="10"/>
<path d="M37.1592 24.4764L41.3343 24.6956" stroke="#EEC7C6" stroke-width="0.0444444" stroke-miterlimit="10"/>
<path d="M41.3047 25.0684L37.5723 24.9591" stroke="#EEC7C6" stroke-width="0.0444444" stroke-miterlimit="10"/>
<path d="M37.8047 25.3773L40.618 25.4635" stroke="#EEC7C6" stroke-width="0.0444444" stroke-miterlimit="10"/>
<path d="M37.0391 25.3539L37.3835 25.3645" stroke="#EEC7C6" stroke-width="0.0444444" stroke-miterlimit="10"/>
<path d="M37.5209 26.4561L37.168 26.4503" stroke="#EEC7C6" stroke-width="0.0444444" stroke-miterlimit="10"/>
<path d="M40.2487 26.4987L37.8447 26.4609" stroke="#EEC7C6" stroke-width="0.0444444" stroke-miterlimit="10"/>
<path d="M41.3585 26.5159L40.667 26.5052" stroke="#EEC7C6" stroke-width="0.0444444" stroke-miterlimit="10"/>
<path d="M37.1162 26.845L39.7709 26.8672" stroke="#EEC7C6" stroke-width="0.0444444" stroke-miterlimit="10"/>
<path d="M39.3943 27.5907H38.7686" stroke="#EEC7C6" stroke-width="0.0444444" stroke-miterlimit="10"/>
<path d="M41.3123 27.5907H39.7754" stroke="#EEC7C6" stroke-width="0.0444444" stroke-miterlimit="10"/>
<path d="M41.0553 23.7089H40.3096" stroke="#EEC7C6" stroke-width="0.0444444" stroke-miterlimit="10"/>
<path d="M39.4807 19.3911H38.5127V19.8933H39.4807V19.3911Z" fill="#EEC7C6"/>
<path d="M40.5207 24.5729H39.5527V25.0751H40.5207V24.5729Z" fill="#EEC7C6"/>
<path d="M44.9436 20.5768C44.9436 20.5768 45.0191 20.2266 45.0138 20.1097C45.0085 19.9928 44.9129 19.8764 44.9529 19.7595C44.9934 19.6426 44.9445 19.5648 44.9831 19.4093C45.0218 19.2537 44.8702 18.9035 44.8702 18.9035C44.8702 18.9035 44.9525 18.7088 44.9911 18.5533C45.0298 18.3977 40.3862 18.1639 40.3862 18.1639L40.2756 18.7475C40.2756 18.7475 40.2756 18.7475 40.2507 19.2146L40.2729 19.7204L40.2445 20.1097L40.3085 20.5377C40.3085 20.5377 40.0667 21.2382 40.1174 21.3551C40.168 21.4719 40.0889 21.7444 40.0889 21.7444L39.8369 22.2115L40.1267 22.6008L40.1627 23.4182H40.3316L40.3151 23.5048C40.3151 23.5048 40.3151 23.5048 40.2902 23.9719L40.3125 24.4777L40.284 24.8671L40.348 25.2951C40.348 25.2951 40.1062 25.9955 40.1569 26.1124C40.2076 26.2293 40.1285 26.5017 40.1285 26.5017L39.8765 26.9688L40.1662 27.3582L40.2022 28.1755H45.108L45.0454 27.7862C45.0454 27.7862 45.0805 27.5528 45.1138 27.2804C45.1471 27.0079 45.0982 26.9302 45.0982 26.9302L45.0778 26.4631C45.0778 26.4631 45.0694 26.2684 45.1062 26.0737C45.1431 25.879 45.0858 25.6066 45.0858 25.6066L44.9831 25.3342C44.9831 25.3342 45.0587 24.9839 45.0534 24.8671C45.048 24.7502 44.9525 24.6337 44.9925 24.5168C45.0329 24.3999 44.984 24.3222 45.0227 24.1666C45.0614 24.0111 44.9098 23.6608 44.9098 23.6608C44.9098 23.6608 44.9591 23.5439 44.9996 23.4186H45.0689L45.0062 23.0293C45.0062 23.0293 45.0414 22.7959 45.0747 22.5235C45.108 22.2511 45.0591 22.1733 45.0591 22.1733L45.0387 21.7062C45.0387 21.7062 45.0302 21.5115 45.0671 21.3168C45.104 21.1222 45.0467 20.8497 45.0467 20.8497L44.9436 20.5768Z" fill="white" stroke="#EEC7C6" stroke-width="0.0444444" stroke-miterlimit="10" stroke-linecap="round" stroke-linejoin="round"/>
<path d="M43.8173 18.8058L40.6973 18.5582" stroke="#EEC7C6" stroke-width="0.0444444" stroke-miterlimit="10"/>
<path d="M44.7242 18.8773L44.2549 18.8405" stroke="#EEC7C6" stroke-width="0.0444444" stroke-miterlimit="10"/>
<path d="M41.8057 18.965L44.651 19.197" stroke="#EEC7C6" stroke-width="0.0444444" stroke-miterlimit="10"/>
<path d="M40.7334 18.8773L41.5121 18.9409" stroke="#EEC7C6" stroke-width="0.0444444" stroke-miterlimit="10"/>
<path d="M42.4905 19.9192L40.8203 19.8547" stroke="#EEC7C6" stroke-width="0.0444444" stroke-miterlimit="10"/>
<path d="M43.7415 19.9676L42.833 19.9325" stroke="#EEC7C6" stroke-width="0.0444444" stroke-miterlimit="10"/>
<path d="M40.4639 20.2494L44.639 20.4374" stroke="#EEC7C6" stroke-width="0.0444444" stroke-miterlimit="10"/>
<path d="M44.6094 20.7565L40.877 20.6627" stroke="#EEC7C6" stroke-width="0.0444444" stroke-miterlimit="10"/>
<path d="M41.1084 21.021L43.9217 21.0948" stroke="#EEC7C6" stroke-width="0.0444444" stroke-miterlimit="10"/>
<path d="M40.3438 21.001L40.6877 21.0099" stroke="#EEC7C6" stroke-width="0.0444444" stroke-miterlimit="10"/>
<path d="M40.8255 21.9453L40.4727 21.9404" stroke="#EEC7C6" stroke-width="0.0444444" stroke-miterlimit="10"/>
<path d="M43.553 21.9817L41.1494 21.9497" stroke="#EEC7C6" stroke-width="0.0444444" stroke-miterlimit="10"/>
<path d="M44.6638 21.997L43.9727 21.9877" stroke="#EEC7C6" stroke-width="0.0444444" stroke-miterlimit="10"/>
<path d="M40.4219 22.2787L43.0765 22.2974" stroke="#EEC7C6" stroke-width="0.0444444" stroke-miterlimit="10"/>
<path d="M42.698 22.9178H42.0723" stroke="#EEC7C6" stroke-width="0.0444444" stroke-miterlimit="10"/>
<path d="M44.617 22.9178H43.0801" stroke="#EEC7C6" stroke-width="0.0444444" stroke-miterlimit="10"/>
<path d="M44.361 19.5916H43.6152" stroke="#EEC7C6" stroke-width="0.0444444" stroke-miterlimit="10"/>
<path d="M43.8568 23.5623L40.7363 23.3147" stroke="#EEC7C6" stroke-width="0.0444444" stroke-miterlimit="10"/>
<path d="M44.7643 23.6341L44.2949 23.5968" stroke="#EEC7C6" stroke-width="0.0444444" stroke-miterlimit="10"/>
<path d="M41.8447 23.7218L44.6901 23.9538" stroke="#EEC7C6" stroke-width="0.0444444" stroke-miterlimit="10"/>
<path d="M40.7725 23.6342L41.5516 23.6977" stroke="#EEC7C6" stroke-width="0.0444444" stroke-miterlimit="10"/>
<path d="M42.5296 24.676L40.8594 24.6116" stroke="#EEC7C6" stroke-width="0.0444444" stroke-miterlimit="10"/>
<path d="M43.7815 24.724L42.873 24.6893" stroke="#EEC7C6" stroke-width="0.0444444" stroke-miterlimit="10"/>
<path d="M40.5039 25.0062L44.6795 25.1938" stroke="#EEC7C6" stroke-width="0.0444444" stroke-miterlimit="10"/>
<path d="M44.6494 25.5133L40.917 25.4196" stroke="#EEC7C6" stroke-width="0.0444444" stroke-miterlimit="10"/>
<path d="M41.1494 25.7778L43.9627 25.8516" stroke="#EEC7C6" stroke-width="0.0444444" stroke-miterlimit="10"/>
<path d="M40.3838 25.7578L40.7282 25.7667" stroke="#EEC7C6" stroke-width="0.0444444" stroke-miterlimit="10"/>
<path d="M40.8656 26.7017L40.5127 26.6973" stroke="#EEC7C6" stroke-width="0.0444444" stroke-miterlimit="10"/>
<path d="M43.5935 26.7386L41.1895 26.7062" stroke="#EEC7C6" stroke-width="0.0444444" stroke-miterlimit="10"/>
<path d="M44.7038 26.7538L44.0127 26.7445" stroke="#EEC7C6" stroke-width="0.0444444" stroke-miterlimit="10"/>
<path d="M40.4609 27.0355L43.1152 27.0542" stroke="#EEC7C6" stroke-width="0.0444444" stroke-miterlimit="10"/>
<path d="M42.7381 27.6742H42.1123" stroke="#EEC7C6" stroke-width="0.0444444" stroke-miterlimit="10"/>
<path d="M43.1191 27.6742H44.656" stroke="#EEC7C6" stroke-width="0.0444444" stroke-miterlimit="10"/>
<path d="M44.4006 24.3484H43.6553" stroke="#EEC7C6" stroke-width="0.0444444" stroke-miterlimit="10"/>
<path d="M42.8713 22.3853H41.9033V22.8875H42.8713V22.3853Z" fill="white" stroke="#EEC7C6" stroke-width="0.0444444" stroke-miterlimit="10"/>
<path d="M44.1086 20.3058H43.1406V20.808H44.1086V20.3058Z" fill="#EEC7C6"/>
<mask id="mask0_1146_49377" style="mask-type:luminance" maskUnits="userSpaceOnUse" x="23" y="28" width="33" height="17">
<path d="M55.3245 28.3434L23.6641 28.3434L23.6641 44.0745L55.3245 44.0745V28.3434Z" fill="white"/>
</mask>
<g mask="url(#mask0_1146_49377)">
<path d="M23.6638 44.0741L55.3242 44.0741V28.343L23.6638 28.343L23.6638 44.0741Z" fill="white" stroke="#263138" stroke-width="0.0444444" stroke-miterlimit="10" stroke-linecap="round" stroke-linejoin="round"/>
</g>
<path d="M23.6647 44.0742L55.3252 44.0742V28.3431L23.6647 28.3431L23.6647 44.0742Z" stroke="#F8E3E3" stroke-width="0.0888889" stroke-miterlimit="10" stroke-linecap="round" stroke-linejoin="round"/>
<path opacity="0.44" d="M23.6845 29.1069L55.3125 29.1069V28.698L23.6845 28.698V29.1069Z" fill="#C56262"/>
<path d="M23.4735 28.7469L55.8975 28.7469V28.1007L23.4735 28.1007V28.7469Z" stroke="#F8E3E3" stroke-width="0.0888889" stroke-miterlimit="10" stroke-linecap="round" stroke-linejoin="round"/>
<path d="M40.9123 31.6132C40.9123 31.6132 40.9879 31.263 40.9826 31.1461C40.9772 31.0292 40.8817 30.9128 40.9217 30.7959C40.9621 30.679 40.9132 30.6012 40.9519 30.4457C40.9906 30.2901 40.839 29.9399 40.839 29.9399C40.839 29.9399 40.9212 29.7452 40.9599 29.5897C40.9986 29.4341 36.355 29.2003 36.355 29.2003L36.2443 29.7839C36.2443 29.7839 36.2443 29.7839 36.2194 30.251L36.2417 30.7568L36.2132 31.1461L36.2772 31.5741C36.2772 31.5741 36.0354 32.2745 36.0861 32.3914C36.1368 32.5083 36.0577 32.7808 36.0577 32.7808L35.8057 33.2479L36.0954 33.6372L36.1314 34.4545H36.3003L36.2839 34.5412C36.2839 34.5412 36.2839 34.5412 36.259 35.0083L36.2812 35.5141L36.2528 35.9034L36.3168 36.3314C36.3168 36.3314 36.075 37.0319 36.1257 37.1488C36.1763 37.2656 36.0972 37.5381 36.0972 37.5381L35.8452 38.0052L36.135 38.3945L36.171 39.2119H41.0768L41.0141 38.8225C41.0141 38.8225 41.0492 38.5892 41.0826 38.3168C41.1159 38.0443 41.067 37.9665 41.067 37.9665L41.0466 37.4994C41.0466 37.4994 41.0381 37.3048 41.075 37.1101C41.1119 36.9154 41.0546 36.643 41.0546 36.643L40.9519 36.3705C40.9519 36.3705 41.0274 36.0203 41.0221 35.9034C41.0168 35.7865 40.9212 35.6701 40.9612 35.5532C41.0017 35.4363 40.9528 35.3585 40.9914 35.203C41.0301 35.0474 40.8786 34.6972 40.8786 34.6972C40.8786 34.6972 40.9279 34.5803 40.9683 34.455H41.0377L40.975 34.0656C40.975 34.0656 41.0101 33.8323 41.0434 33.5599C41.0768 33.2874 41.0279 33.2096 41.0279 33.2096L41.0074 32.7425C41.0074 32.7425 40.999 32.5479 41.0359 32.3532C41.0728 32.1585 41.0154 31.8861 41.0154 31.8861L40.9123 31.6132Z" stroke="#C99494" stroke-width="0.0444444" stroke-miterlimit="10" stroke-linecap="round" stroke-linejoin="round"/>
<path d="M39.7865 29.842L36.666 29.5945" stroke="#C99494" stroke-width="0.0444444" stroke-miterlimit="10" stroke-linecap="round" stroke-linejoin="round"/>
<path d="M40.693 29.914L40.2236 29.8767" stroke="#C99494" stroke-width="0.0444444" stroke-miterlimit="10" stroke-linecap="round" stroke-linejoin="round"/>
<path d="M37.7734 30.0016L40.6188 30.2336" stroke="#C99494" stroke-width="0.0444444" stroke-miterlimit="10" stroke-linecap="round" stroke-linejoin="round"/>
<path d="M36.7012 29.9141L37.4803 29.9776" stroke="#C99494" stroke-width="0.0444444" stroke-miterlimit="10" stroke-linecap="round" stroke-linejoin="round"/>
<path d="M38.4593 30.9558L36.7891 30.8914" stroke="#C99494" stroke-width="0.0444444" stroke-miterlimit="10" stroke-linecap="round" stroke-linejoin="round"/>
<path d="M39.7102 31.0037L38.8018 30.9686" stroke="#C99494" stroke-width="0.0444444" stroke-miterlimit="10" stroke-linecap="round" stroke-linejoin="round"/>
<path d="M36.4326 31.2856L40.6077 31.4736" stroke="#C99494" stroke-width="0.0444444" stroke-miterlimit="10" stroke-linecap="round" stroke-linejoin="round"/>
<path d="M40.5781 31.7931L36.8457 31.6993" stroke="#C99494" stroke-width="0.0444444" stroke-miterlimit="10" stroke-linecap="round" stroke-linejoin="round"/>
<path d="M37.0781 32.0576L39.8915 32.1314" stroke="#C99494" stroke-width="0.0444444" stroke-miterlimit="10" stroke-linecap="round" stroke-linejoin="round"/>
<path d="M36.3125 32.0376L36.6569 32.0465" stroke="#C99494" stroke-width="0.0444444" stroke-miterlimit="10" stroke-linecap="round" stroke-linejoin="round"/>
<path d="M36.7943 32.9816L36.4414 32.9772" stroke="#C99494" stroke-width="0.0444444" stroke-miterlimit="10" stroke-linecap="round" stroke-linejoin="round"/>
<path d="M39.5222 33.0185L37.1182 32.9861" stroke="#C99494" stroke-width="0.0444444" stroke-miterlimit="10" stroke-linecap="round" stroke-linejoin="round"/>
<path d="M40.633 33.0336L39.9414 33.0243" stroke="#C99494" stroke-width="0.0444444" stroke-miterlimit="10" stroke-linecap="round" stroke-linejoin="round"/>
<path d="M36.3906 33.3153L39.0453 33.334" stroke="#C99494" stroke-width="0.0444444" stroke-miterlimit="10" stroke-linecap="round" stroke-linejoin="round"/>
<path d="M38.6668 33.954H38.041" stroke="#263138" stroke-width="0.0444444" stroke-miterlimit="10" stroke-linecap="round" stroke-linejoin="round"/>
<path d="M40.5857 33.954H39.0488" stroke="#263138" stroke-width="0.0444444" stroke-miterlimit="10" stroke-linecap="round" stroke-linejoin="round"/>
<path d="M40.3298 30.6283H39.584" stroke="#C99494" stroke-width="0.0444444" stroke-miterlimit="10" stroke-linecap="round" stroke-linejoin="round"/>
<path d="M39.8255 34.599L36.7051 34.3514" stroke="#263138" stroke-width="0.0444444" stroke-miterlimit="10" stroke-linecap="round" stroke-linejoin="round"/>
<path d="M40.7326 34.671L40.2637 34.6337" stroke="#263138" stroke-width="0.0444444" stroke-miterlimit="10" stroke-linecap="round" stroke-linejoin="round"/>
<path d="M37.8135 34.7584L40.6588 34.9904" stroke="#263138" stroke-width="0.0444444" stroke-miterlimit="10" stroke-linecap="round" stroke-linejoin="round"/>
<path d="M36.7412 34.6709L37.5203 34.7345" stroke="#263138" stroke-width="0.0444444" stroke-miterlimit="10" stroke-linecap="round" stroke-linejoin="round"/>
<path d="M38.4988 35.7123L36.8281 35.6478" stroke="#263138" stroke-width="0.0444444" stroke-miterlimit="10" stroke-linecap="round" stroke-linejoin="round"/>
<path d="M39.7502 35.7607L38.8418 35.7256" stroke="#263138" stroke-width="0.0444444" stroke-miterlimit="10" stroke-linecap="round" stroke-linejoin="round"/>
<path d="M36.4727 36.0425L40.6478 36.2305" stroke="#263138" stroke-width="0.0444444" stroke-miterlimit="10" stroke-linecap="round" stroke-linejoin="round"/>
<path d="M40.6182 36.55L36.8857 36.4558" stroke="#263138" stroke-width="0.0444444" stroke-miterlimit="10" stroke-linecap="round" stroke-linejoin="round"/>
<path d="M37.1182 36.8145L39.9315 36.8882" stroke="#263138" stroke-width="0.0444444" stroke-miterlimit="10" stroke-linecap="round" stroke-linejoin="round"/>
<path d="M36.3525 36.7941L36.697 36.8034" stroke="#263138" stroke-width="0.0444444" stroke-miterlimit="10" stroke-linecap="round" stroke-linejoin="round"/>
<path d="M36.8348 37.7385L36.4814 37.7336" stroke="#263138" stroke-width="0.0444444" stroke-miterlimit="10" stroke-linecap="round" stroke-linejoin="round"/>
<path d="M39.5622 37.7754L37.1582 37.7429" stroke="#263138" stroke-width="0.0444444" stroke-miterlimit="10" stroke-linecap="round" stroke-linejoin="round"/>
<path d="M40.6726 37.7901L39.9814 37.7808" stroke="#263138" stroke-width="0.0444444" stroke-miterlimit="10" stroke-linecap="round" stroke-linejoin="round"/>
<path d="M36.4297 38.0718L39.0844 38.0909" stroke="#263138" stroke-width="0.0444444" stroke-miterlimit="10" stroke-linecap="round" stroke-linejoin="round"/>
<path d="M38.7074 38.7109H38.082" stroke="#263138" stroke-width="0.0444444" stroke-miterlimit="10" stroke-linecap="round" stroke-linejoin="round"/>
<path d="M39.0879 38.7109H40.6252" stroke="#263138" stroke-width="0.0444444" stroke-miterlimit="10" stroke-linecap="round" stroke-linejoin="round"/>
<path d="M40.3698 35.3846H39.624" stroke="#263138" stroke-width="0.0444444" stroke-miterlimit="10" stroke-linecap="round" stroke-linejoin="round"/>
<path d="M38.8401 33.422H37.8721V33.9242H38.8401V33.422Z" stroke="#C99494" stroke-width="0.0444444" stroke-miterlimit="10" stroke-linecap="round" stroke-linejoin="round"/>
<path d="M40.0784 31.342H39.1104V31.8443H40.0784V31.342Z" fill="#C99494"/>
<path d="M30.4004 36.3497L30.4226 36.8804H36.4137V35.7972L30.4004 36.3497Z" fill="white" stroke="#263138" stroke-width="0.0444444" stroke-miterlimit="10" stroke-linecap="round"/>
<path d="M30.1133 36.195L36.5911 35.5981V37.0795H30.0911C30.0911 37.0795 30.0249 36.8586 30.1795 36.8586C30.3342 36.8586 36.3035 36.8586 36.3035 36.8586V35.7973L30.1355 36.3719C30.1355 36.3719 29.8702 36.2173 30.1133 36.195Z" fill="#263138" stroke="#263138" stroke-width="0.0444444" stroke-miterlimit="10" stroke-linecap="round"/>
<path d="M36.3479 36.0403L34.3359 36.2172" stroke="#263138" stroke-width="0.0444444" stroke-miterlimit="10" stroke-linecap="round" stroke-linejoin="round"/>
<path d="M34.7123 36.4164L32.2803 36.571" stroke="#263138" stroke-width="0.0444444" stroke-miterlimit="10" stroke-linecap="round" stroke-linejoin="round"/>
<path d="M36.2595 36.4381L35.6182 36.5048" stroke="#263138" stroke-width="0.0444444" stroke-miterlimit="10" stroke-linecap="round" stroke-linejoin="round"/>
<path d="M35.3305 36.5265L35.043 36.5709" stroke="#263138" stroke-width="0.0444444" stroke-miterlimit="10" stroke-linecap="round" stroke-linejoin="round"/>
<path d="M30.3096 33.8664L30.3318 34.397H36.3229V33.3135L30.3096 33.8664Z" fill="white" stroke="#C99494" stroke-width="0.0444444" stroke-miterlimit="10" stroke-linecap="round" stroke-linejoin="round"/>
<path opacity="0.66" d="M30.0228 33.7116L36.5006 33.1147V34.5961H30.0006C30.0006 34.5961 29.9343 34.3752 30.089 34.3752C30.2437 34.3752 36.213 34.3752 36.213 34.3752V33.3139L30.045 33.8885C30.0446 33.8885 29.7792 33.7339 30.0228 33.7116Z" fill="#C56262"/>
<path d="M36.2576 33.5569L34.2461 33.7338" stroke="#C99494" stroke-width="0.0444444" stroke-miterlimit="10" stroke-linecap="round" stroke-linejoin="round"/>
<path d="M34.6215 33.9325L32.1895 34.0872" stroke="#263138" stroke-width="0.0444444" stroke-miterlimit="10" stroke-linecap="round" stroke-linejoin="round"/>
<path d="M36.1682 33.9547L35.5273 34.0209" stroke="#263138" stroke-width="0.0444444" stroke-miterlimit="10" stroke-linecap="round" stroke-linejoin="round"/>
<path d="M35.2397 34.0431L34.9521 34.0871" stroke="#263138" stroke-width="0.0444444" stroke-miterlimit="10" stroke-linecap="round" stroke-linejoin="round"/>
<path d="M30.2705 32.9435L30.3478 33.4688L36.3065 32.8466L36.1941 31.7693L30.2705 32.9435Z" fill="white" stroke="#C99494" stroke-width="0.0444444" stroke-miterlimit="10" stroke-linecap="round" stroke-linejoin="round"/>
<path opacity="0.71" d="M29.9691 32.8196L36.3495 31.553L36.5033 33.0263L30.0389 33.7014C30.0389 33.7014 29.95 33.4885 30.1037 33.4725C30.2575 33.4565 36.1944 32.8361 36.1944 32.8361L36.0842 31.7805L30.0091 32.993C30.0091 32.9934 29.7295 32.8668 29.9691 32.8196Z" fill="#E46F6F"/>
<path d="M36.1536 32.0178L34.1709 32.4027" stroke="#C99494" stroke-width="0.0444444" stroke-miterlimit="10" stroke-linecap="round" stroke-linejoin="round"/>
<path d="M34.5658 32.5618L32.1631 32.9684" stroke="#C99494" stroke-width="0.0444444" stroke-miterlimit="10" stroke-linecap="round" stroke-linejoin="round"/>
<path d="M36.1063 32.4226L35.4756 32.5555" stroke="#C99494" stroke-width="0.0444444" stroke-miterlimit="10" stroke-linecap="round" stroke-linejoin="round"/>
<path d="M35.1925 32.6072L34.9111 32.6814" stroke="#C99494" stroke-width="0.0444444" stroke-miterlimit="10" stroke-linecap="round" stroke-linejoin="round"/>
<path d="M36.19 34.8329L36.214 35.3635L30.2456 35.8862L30.1514 34.8066L36.19 34.8329Z" fill="white" stroke="#263138" stroke-width="0.0444444" stroke-miterlimit="10" stroke-linecap="round"/>
<path d="M36.4629 34.6538L29.958 34.624L30.0873 36.0996L36.5625 35.5325C36.5625 35.5325 36.6091 35.3062 36.4549 35.32C36.3007 35.3334 30.3545 35.8542 30.3545 35.8542L30.262 34.7969L36.4567 34.8316C36.4562 34.832 36.7069 34.6547 36.4629 34.6538Z" fill="#263138" stroke="#263138" stroke-width="0.0444444" stroke-miterlimit="10" stroke-linecap="round"/>
<path d="M30.2383 35.0431L32.2578 35.044" stroke="#263138" stroke-width="0.0444444" stroke-miterlimit="10" stroke-linecap="round" stroke-linejoin="round"/>
<path d="M31.9014 35.275L34.3374 35.2168" stroke="#263138" stroke-width="0.0444444" stroke-miterlimit="10" stroke-linecap="round" stroke-linejoin="round"/>
<path d="M30.3613 35.432L31.0058 35.4422" stroke="#263138" stroke-width="0.0444444" stroke-miterlimit="10" stroke-linecap="round" stroke-linejoin="round"/>
<path d="M31.2939 35.4391L31.5842 35.4582" stroke="#263138" stroke-width="0.0444444" stroke-miterlimit="10" stroke-linecap="round" stroke-linejoin="round"/>
<path d="M36.2853 30.7511L36.3364 31.2369L30.2249 32.4693L30.0146 31.4067L36.2853 30.7511Z" fill="white" stroke="#C99494" stroke-width="0.0444444" stroke-miterlimit="10" stroke-linecap="round" stroke-linejoin="round"/>
<path opacity="0.58" d="M36.272 30.5732L29.8018 31.2457L30.0893 32.6986L36.4653 31.4363C36.4653 31.4363 36.4875 31.2066 36.3355 31.2368C36.1835 31.267 30.328 32.4261 30.328 32.4261L30.1218 31.3852L36.284 30.751C36.2849 30.751 36.5151 30.5479 36.272 30.5732Z" fill="#C99494"/>
<path d="M30.126 31.6325L32.134 31.4152" stroke="#C99494" stroke-width="0.0444444" stroke-miterlimit="10" stroke-linecap="round" stroke-linejoin="round"/>
<path d="M31.8037 31.6836L34.2197 31.3627" stroke="#C99494" stroke-width="0.0444444" stroke-miterlimit="10" stroke-linecap="round" stroke-linejoin="round"/>
<path d="M30.29 32.0058L30.9318 31.9463" stroke="#C99494" stroke-width="0.0444444" stroke-miterlimit="10" stroke-linecap="round" stroke-linejoin="round"/>
<path d="M31.2178 31.912L31.5084 31.8995" stroke="#C99494" stroke-width="0.0444444" stroke-miterlimit="10" stroke-linecap="round" stroke-linejoin="round"/>
<path d="M28.9235 33.8612L28.0244 36.3132H29.5329L28.9235 33.8612Z" fill="#F6D0CF"/>
<path d="M39.8843 33.8612H28.9238V44.1274H39.8843V33.8612Z" fill="#E6BEBE"/>
<path d="M42.5112 33.8612H31.5508V44.1274H42.5112V33.8612Z" fill="#F8E3E3"/>
<path d="M31.5508 33.8612L32.3552 36.5079H43.1588L42.5112 33.8612H31.5508Z" fill="#F6D0CF"/>
<path d="M15.1087 20.6654C15.1087 20.6654 14.8025 21.6867 14.1896 22.7076C13.5767 23.7289 12.4536 25.056 12.4536 25.056L8.36914 23.32C8.36914 23.32 9.28825 22.4009 10.3091 20.8694C11.3305 19.3378 11.5696 19.0214 11.5696 19.0214C11.5696 19.0214 14.1545 20.328 15.1087 20.6654Z" fill="#F8E3E3"/>
<path d="M32.3704 28.8267C32.3704 28.8267 31.3771 28.44 30.4077 27.748C29.4389 27.056 28.2051 25.8307 28.2051 25.8307L30.2606 21.8973C30.2606 21.8973 31.1037 22.8867 32.5491 24.0267C33.9944 25.1667 34.2909 25.4302 34.2909 25.4302C34.2909 25.4302 32.7824 27.9027 32.3704 28.8267Z" fill="#F8E3E3"/>
<path d="M30.1016 12.44L32.7105 14.7591C32.7105 14.7591 33.387 12.6818 34.5465 12.0538C35.7061 11.4258 36.8656 11.0391 36.8656 11.0391L33.2905 8.81689C33.2905 8.81645 29.667 10.2173 30.1016 12.44Z" fill="#F8E3E3"/>
<path d="M8.78432 13.8934L11.3932 16.2125C11.3932 16.2125 12.0696 14.1352 13.2292 13.5072C14.3888 12.8792 15.5483 12.4925 15.5483 12.4925L11.9732 10.2703C11.9728 10.2698 8.3492 11.6707 8.78432 13.8934Z" fill="#F8E3E3"/>
<path d="M24.759 4.23462C24.5901 4.72884 24.3875 5.21195 24.1528 5.67862C24.2946 5.61951 24.4399 5.56884 24.5879 5.52706C24.4644 5.86884 24.0732 6.89817 24.0732 6.89817L25.3408 4.83995L24.6755 5.22662L25.2417 4.24173L24.759 4.23462Z" fill="#E46F6F"/>
<path d="M22.9355 4.90174C22.9711 5.13063 22.9907 5.3613 22.9947 5.59285C23.0382 5.54041 23.0849 5.49063 23.1342 5.44396C23.156 5.60352 23.2142 6.08752 23.2142 6.08752L23.2884 5.01952L23.1071 5.30796L23.1267 4.8053L22.9355 4.90174Z" fill="#E46F6F"/>
<path d="M20.0892 5.39244C20.1932 5.90444 20.3323 6.40932 20.5048 6.90266C20.3715 6.82577 20.2341 6.75688 20.0928 6.69644C20.1715 7.05155 20.427 8.12221 20.427 8.12221L19.4346 5.91821L20.0448 6.3871L19.6101 5.33777L20.0892 5.39244Z" fill="#E46F6F"/>
<path d="M27.6184 8.57288L26.4971 9.2071" stroke="#B24B4B" stroke-width="0.0444444" stroke-miterlimit="10" stroke-linecap="round" stroke-linejoin="round"/>
<path d="M25.8626 6.3302L25.375 7.40309" stroke="#B24B4B" stroke-width="0.0444444" stroke-miterlimit="10" stroke-linecap="round" stroke-linejoin="round"/>
<path d="M20.6943 6.3302L21.1819 7.25642" stroke="#B24B4B" stroke-width="0.0444444" stroke-miterlimit="10" stroke-linecap="round" stroke-linejoin="round"/>
<path d="M17.9639 8.52441L19.3781 9.1093" stroke="#B24B4B" stroke-width="0.0444444" stroke-miterlimit="10" stroke-linecap="round" stroke-linejoin="round"/>
<path d="M22.9375 6.28137V7.01293" stroke="#B24B4B" stroke-width="0.0444444" stroke-miterlimit="10" stroke-linecap="round" stroke-linejoin="round"/>
<path d="M15.9308 19.8111C15.9308 19.8111 15.8908 19.1733 15.9908 18.9538C16.0903 18.7347 16.2699 18.8938 16.4694 19.1929C16.669 19.492 16.9876 19.9107 16.8881 20.0102C16.7885 20.1098 16.589 20.3093 16.3699 20.3093C16.1503 20.3098 15.9308 19.8111 15.9308 19.8111Z" fill="#B24B4B"/>
<path d="M27.9077 43.6348L28.0179 44.4712C28.0179 44.4712 28.7214 45.5139 29.1734 46.117C29.6254 46.7197 29.701 48.3023 28.6459 48.3272C27.5908 48.3525 27.1641 47.1214 27.1134 46.7948C27.0632 46.4681 26.8174 46.257 26.6223 46.0619C26.4268 45.8663 26.2597 45.6712 26.2872 45.2805C26.3152 44.8899 26.2041 43.7294 26.2041 43.7294L27.9077 43.6348Z" fill="#F8C8B4"/>
<path d="M26.2872 45.281C26.3018 45.077 26.2783 44.6632 26.2529 44.3143C26.5374 44.7343 27.044 45.0437 27.044 45.0437C27.044 45.0437 27.0716 44.6028 27.4574 44.4374C27.8432 44.2721 28.1187 44.6579 28.1187 44.6579L28.1458 44.6583C28.3885 45.0103 28.8329 45.6641 29.1729 46.1174C29.6249 46.7201 29.7005 48.3028 28.6454 48.3277C27.5903 48.3526 27.1632 47.1219 27.1129 46.7952C27.0627 46.4686 26.8169 46.2574 26.6218 46.0623C26.4267 45.8668 26.2592 45.6717 26.2872 45.281Z" fill="#E46F6F"/>
<path d="M27.1135 46.7952C27.0632 46.4686 26.8175 46.2575 26.6224 46.0624C26.4295 45.8695 26.2646 45.6757 26.2872 45.2948C26.3926 45.3912 26.5117 45.5037 26.6308 45.6219C26.9744 45.9632 27.0672 46.1397 27.2655 46.8095C27.4637 47.4792 27.8112 47.8761 28.5801 48.0001C29.0357 48.0735 29.317 47.7468 29.4708 47.4681C29.4077 47.9295 29.1628 48.3152 28.6464 48.3277C27.5908 48.3526 27.1641 47.1219 27.1135 46.7952Z" fill="#B24B4B"/>
<path d="M18.4435 43.6348L18.3333 44.4712C18.3333 44.4712 17.6297 45.5139 17.1777 46.117C16.7257 46.7197 16.6502 48.3023 17.7053 48.3272C18.7604 48.3525 19.187 47.1214 19.2377 46.7948C19.2879 46.4681 19.5337 46.257 19.7288 46.0619C19.9244 45.8663 20.0915 45.6712 20.0639 45.2805C20.0359 44.8899 20.147 43.7294 20.147 43.7294L18.4435 43.6348Z" fill="#F8C8B4"/>
<path d="M20.0635 45.281C20.0488 45.077 20.0724 44.6632 20.0977 44.3143C19.8133 44.7343 19.3066 45.0437 19.3066 45.0437C19.3066 45.0437 19.279 44.6028 18.8933 44.4374C18.5075 44.2721 18.2319 44.6579 18.2319 44.6579L18.2048 44.6583C17.9622 45.0103 17.5177 45.6641 17.1777 46.1174C16.7257 46.7201 16.6502 48.3028 17.7053 48.3277C18.7604 48.3526 19.187 47.1219 19.2377 46.7952C19.2879 46.4686 19.5337 46.2574 19.7288 46.0623C19.9239 45.8668 20.0911 45.6717 20.0635 45.281Z" fill="#E46F6F"/>
<path d="M19.2372 46.7952C19.2874 46.4686 19.5332 46.2575 19.7283 46.0624C19.9212 45.8695 20.0861 45.6757 20.0634 45.2948C19.9581 45.3912 19.839 45.5037 19.7199 45.6219C19.3763 45.9632 19.2834 46.1397 19.0852 46.8095C18.887 47.4792 18.5394 47.8761 17.7705 48.0001C17.315 48.0735 17.0337 47.7468 16.8799 47.4681C16.943 47.9295 17.1879 48.3152 17.7043 48.3277C18.7599 48.3526 19.187 47.1219 19.2372 46.7952Z" fill="#B24B4B"/>
<path d="M27.629 35.4978C27.629 35.4978 27.7743 33.3191 27.869 30.8116C27.9637 28.304 27.4872 26.2725 27.4872 26.2725L24.8379 28.3449L23.7379 27.1507L22.521 27.0689L21.3685 28.1347L18.8699 26.2725C18.8699 26.2725 18.4805 28.6205 18.5752 31.128C18.6699 33.6356 18.7277 35.4978 18.7277 35.4978C18.7277 35.4978 18.3019 38.1471 18.3965 38.9987C18.4912 39.8502 18.4437 43.6351 18.4437 43.6351L20.1468 43.7298C20.1468 43.7298 21.6605 38.1947 21.7081 37.0591C21.7552 35.9236 22.2757 33.5582 22.2757 33.5582L23.2468 29.7014L23.3112 29.708L24.0801 33.5582C24.0801 33.5582 24.6005 35.9236 24.6477 37.0591C24.6948 38.1947 26.209 43.7298 26.209 43.7298L27.9121 43.6351C27.9121 43.6351 27.865 39.8502 27.9592 38.9987C28.0548 38.1471 27.629 35.4978 27.629 35.4978Z" fill="#B24B4B"/>
<path d="M18.7817 26.7654C18.7817 26.7654 18.2959 27.2281 19.1728 27.6667C20.0497 28.1049 22.2817 28.7032 23.8363 28.6632C25.391 28.6232 27.4234 27.7463 27.7026 27.3081C27.9817 26.8698 27.583 26.2716 27.4634 26.2716C27.3439 26.2716 24.8728 27.3081 22.5212 27.0689C20.1697 26.8298 19.1732 26.3912 19.1732 26.3912C19.1732 26.3912 18.8288 26.3427 18.7817 26.7654Z" fill="#D47878"/>
<path d="M21.7716 13.5712C21.7716 13.5712 19.16 14.0298 18.4222 14.7476C17.6844 15.4654 17.804 17.1001 17.884 17.6583C17.9636 18.2165 17.8044 19.2534 17.8044 19.2534L17.3658 18.8747C17.3658 18.8747 17.1267 19.4529 16.708 19.7916C16.2893 20.1307 15.9307 19.9312 15.9307 19.8116C15.9307 19.6921 16.5289 21.3667 16.6484 21.6458C16.768 21.9249 16.8676 22.4036 17.2467 22.6427C17.6253 22.8818 18.7022 22.9018 18.8218 22.9018C18.9413 22.9018 18.8058 24.7636 18.7351 25.0365C18.4164 26.2721 18.6431 26.3872 18.7822 26.7658C18.9218 27.1445 21.4538 27.9618 23.228 27.9618C25.0022 27.9618 27.404 27.0094 27.5436 26.5907C27.6209 26.3592 28.1018 26.7503 27.5036 23.9601C27.3036 23.0276 27.4738 22.3036 27.4738 22.3036C27.4738 22.3036 28.3111 22.6623 28.9689 21.9049C29.6267 21.1472 30.7036 19.9312 30.7036 19.9312L31.0227 18.2965C31.0227 18.2965 30.1653 18.7352 29.8067 18.5156C29.448 18.2965 29.6671 17.1801 29.6671 17.1801L29.0489 18.2965C29.0489 18.2965 29.0889 17.4792 28.8298 16.8609C28.5707 16.2427 28.4711 14.8276 27.8129 14.2294C27.1547 13.6312 26.1382 13.6112 26.1382 13.6112L21.7716 13.5712Z" fill="#E46F6F"/>
<path d="M21.6318 13.8502C21.6318 13.8502 21.8909 15.3853 22.7883 15.5648C23.6856 15.7444 24.1043 14.8471 24.1043 14.2293C24.1043 13.6115 21.9705 13.6311 21.6318 13.8502Z" stroke="#B24B4B" stroke-width="0.0444444" stroke-miterlimit="10" stroke-linecap="round" stroke-linejoin="round"/>
<path d="M22.3096 16.2191C22.4242 16.3747 22.5473 16.5169 22.6767 16.6302" stroke="#B24B4B" stroke-width="0.0444444" stroke-miterlimit="10" stroke-linecap="round" stroke-linejoin="round"/>
<path d="M21.542 14.7955C21.542 14.7955 21.7802 15.4089 22.1389 15.9711" stroke="#B24B4B" stroke-width="0.0444444" stroke-miterlimit="10" stroke-linecap="round" stroke-linejoin="round"/>
<path d="M24.3948 14.8325L24.0361 15.789" stroke="#B24B4B" stroke-width="0.0444444" stroke-miterlimit="10" stroke-linecap="round" stroke-linejoin="round"/>
<path d="M18.8213 22.9013C18.8213 22.9013 19.6186 22.8813 19.8778 22.4626C20.1369 22.0439 19.4991 20.5488 19.0204 20.0702C18.5418 19.5915 18.1631 19.3124 18.1631 19.3124" stroke="#B24B4B" stroke-width="0.0444444" stroke-miterlimit="10" stroke-linecap="round" stroke-linejoin="round"/>
<path d="M18.3027 18.5155C18.3027 18.5155 19.3792 20.0906 19.7183 21.2666" stroke="#B24B4B" stroke-width="0.0444444" stroke-miterlimit="10" stroke-linecap="round" stroke-linejoin="round"/>
<path d="M18.6816 17.3391C18.6816 17.3391 19.1403 18.5551 19.2199 18.7347" stroke="#B24B4B" stroke-width="0.0444444" stroke-miterlimit="10" stroke-linecap="round" stroke-linejoin="round"/>
<path d="M19.3916 19.5765C19.4192 19.7556 19.4423 19.9063 19.4587 20.0108" stroke="#B24B4B" stroke-width="0.0444444" stroke-miterlimit="10" stroke-linecap="round" stroke-linejoin="round"/>
<path d="M19 17.0005C19 17.0005 19.1947 18.2885 19.3373 19.2218" stroke="#B24B4B" stroke-width="0.0444444" stroke-miterlimit="10" stroke-linecap="round" stroke-linejoin="round"/>
<path d="M27.6332 17.2529C27.6332 17.6534 27.6332 18.2565 27.6332 19.1334C27.6332 21.1272 27.4736 22.3032 27.4736 22.3032" stroke="#B24B4B" stroke-width="0.0444444" stroke-miterlimit="10" stroke-linecap="round" stroke-linejoin="round"/>
<path d="M27.6328 16.5619C27.6328 16.5619 27.6328 16.6628 27.6328 16.9263" stroke="#B24B4B" stroke-width="0.0444444" stroke-miterlimit="10" stroke-linecap="round" stroke-linejoin="round"/>
<path d="M28.3306 16.8608C28.3306 16.8608 27.892 18.9142 27.6729 19.3128" stroke="#B24B4B" stroke-width="0.0444444" stroke-miterlimit="10" stroke-linecap="round" stroke-linejoin="round"/>
<path d="M29.0487 18.296L28.8296 18.7747C28.8296 18.7747 28.1718 19.0538 27.8927 19.552C27.6136 20.0502 27.7731 20.808 27.9327 20.9276" stroke="#B24B4B" stroke-width="0.0444444" stroke-miterlimit="10" stroke-linecap="round" stroke-linejoin="round"/>
<path d="M17.366 18.8743L16.9118 18.0663C16.9118 18.0663 16.8011 17.5245 16.7016 17.3258C16.602 17.1267 16.5469 16.9392 16.5247 16.8618C16.5025 16.7845 16.5025 16.1214 16.4029 15.9667C16.3034 15.812 16.1376 15.6792 16.0163 15.7676C15.8945 15.856 15.95 15.9885 15.9723 16.1103C15.9945 16.232 16.0718 16.5743 16.0385 16.7183C16.0051 16.8618 15.95 16.9614 15.95 16.9614C15.95 16.9614 15.4083 16.6632 15.3531 16.5636C15.298 16.464 14.8998 15.9445 14.6238 15.6792C14.3474 15.4138 13.9829 15.3032 13.9607 15.4027C13.9385 15.5023 14.0931 15.5907 14.1927 15.7565C14.2923 15.9223 14.69 16.3756 14.69 16.3756C14.69 16.3756 14.2038 16.1214 14.082 16.0329C13.9603 15.9445 13.6954 15.9778 13.7727 16.1214C13.85 16.2649 14.226 16.5747 14.3585 16.6738C14.4909 16.7734 14.7451 17.0165 14.7451 17.0165C14.7451 17.0165 14.7118 17.16 14.8114 17.2267C14.9109 17.2929 15.0767 17.4587 15.1651 17.5583C15.2536 17.6578 15.6958 18.2103 15.8727 18.6636C16.0496 19.1169 16.5469 19.8574 16.5469 19.8574C16.5469 19.8574 17.0131 19.6934 17.366 18.8743Z" fill="#F8C8B4"/>
<path d="M15.8183 17.9666C15.8183 17.9666 15.3761 17.5799 15.1774 17.447C14.9783 17.3146 14.8014 17.0493 14.7463 17.0159C14.6912 16.9826 14.7574 16.9164 14.9454 16.9164C15.1334 16.9164 15.4539 17.1595 15.4539 17.1595C15.4539 17.1595 15.7632 17.3475 15.8961 17.4359C16.0285 17.5244 16.0619 17.5795 16.0619 17.5795" stroke="#E0B5A6" stroke-width="0.0444444" stroke-miterlimit="10" stroke-linecap="round" stroke-linejoin="round"/>
<path d="M14.6904 16.3751C14.6904 16.3751 15.0331 16.5298 15.254 16.8173" stroke="#E0B5A6" stroke-width="0.0444444" stroke-miterlimit="10" stroke-linecap="round" stroke-linejoin="round"/>
<path d="M16.2276 18.3977C16.2276 18.3977 16.2387 17.9999 16.0618 17.8008C15.8849 17.6017 16.2165 17.5243 16.316 17.5799C16.4156 17.635 16.4485 17.823 16.4818 17.8781C16.5151 17.9332 16.6809 17.9999 16.7471 18.1763C16.8134 18.3532 16.8134 18.4195 16.8134 18.4195" stroke="#E0B5A6" stroke-width="0.0444444" stroke-miterlimit="10" stroke-linecap="round" stroke-linejoin="round"/>
<path d="M29.6667 17.1795C29.6667 17.1795 29.7232 16.7155 29.6947 16.5635C29.6663 16.4115 29.5903 15.9839 29.5143 15.7942C29.4383 15.6044 29.4476 15.1577 29.5712 15.1386C29.6947 15.1195 29.7992 15.1293 29.8658 15.3382C29.9325 15.547 29.9796 15.9462 30.0845 16.155C30.189 16.3639 30.2272 16.5253 30.5498 16.5253C30.873 16.5253 31.6707 15.8888 32.0125 15.5946C32.3543 15.3004 32.6774 15.1577 32.8672 15.2337C33.057 15.3097 32.8103 15.4333 32.5725 15.6039C32.3352 15.775 31.6036 16.5062 31.5658 16.5919C31.5281 16.6773 31.889 16.6586 31.889 16.6586C31.889 16.6586 33.1805 16.4688 33.3707 16.5542C33.5605 16.6395 33.4374 16.7253 33.257 16.7915C33.0765 16.8582 32.3263 17.0288 32.3263 17.0288L31.4618 17.2284C31.4618 17.2284 31.9081 17.371 32.2027 17.4182C32.4974 17.4657 32.573 17.5133 32.4498 17.627C32.3267 17.7408 32.4121 17.7408 32.0507 17.7599C31.6898 17.779 31.177 17.7693 31.177 17.7693C31.177 17.7693 31.1294 18.0924 31.0632 18.1684C30.9965 18.2444 31.0232 18.2959 31.0232 18.2959C31.0232 18.2959 30.9587 18.3679 30.5881 18.4724C30.2178 18.5768 30.0418 18.5866 29.8067 18.515C29.5716 18.4439 29.5716 17.8266 29.581 17.5888C29.5903 17.3519 29.6667 17.1795 29.6667 17.1795Z" fill="#F8C8B4"/>
<path d="M31.1762 17.7697L30.9482 17.7604" stroke="#E0B5A6" stroke-width="0.0444444" stroke-miterlimit="10" stroke-linecap="round" stroke-linejoin="round"/>
<path d="M30.9298 17.855C30.9298 17.855 30.8062 17.855 30.6542 17.8074C30.5022 17.7599 30.3502 17.7696 30.3311 17.9501C30.312 18.1305 30.4355 18.159 30.5115 18.1781C30.5875 18.1972 30.6729 18.2825 30.7773 18.2825" stroke="#E0B5A6" stroke-width="0.0444444" stroke-miterlimit="10" stroke-linecap="round" stroke-linejoin="round"/>
<path d="M30.8538 16.5253C30.8538 16.5253 30.7587 16.6582 30.7209 16.8484C30.6831 17.0382 30.5596 17.3613 30.5596 17.3613" stroke="#E0B5A6" stroke-width="0.0444444" stroke-miterlimit="10" stroke-linecap="round" stroke-linejoin="round"/>
<path d="M29.8066 18.5154C29.8066 18.5154 29.8186 18.1972 29.8471 18.0643C29.8755 17.9314 30.1986 17.751 30.1986 17.751" stroke="#E0B5A6" stroke-width="0.0444444" stroke-miterlimit="10" stroke-linecap="round" stroke-linejoin="round"/>
<path d="M19.9829 10.9418C19.9829 10.9418 20.0171 11.3351 19.7776 11.5484C19.5376 11.7618 19.1611 11.9253 19.1953 12.368C19.2296 12.8107 19.6407 12.9747 19.5549 13.0729C19.4691 13.1711 18.7327 13.1387 18.5785 13.5973C18.4242 14.0564 18.7496 14.2204 18.9211 14.204C19.0922 14.1876 18.8527 14.4827 19.0238 14.7284C19.1949 14.9742 19.8629 14.9253 19.8629 14.9253C19.8629 14.9253 19.6402 15.1711 19.726 15.4173C19.8118 15.6631 20.0856 15.8271 20.3767 15.7289C20.6678 15.6307 20.5136 15.352 20.4967 15.1551C20.4793 14.9582 20.942 15.1387 21.1647 14.7124C21.3873 14.2862 21.2673 14.1716 21.2847 14.0729C21.302 13.9747 21.4216 13.8436 21.4216 13.8436L24.1962 13.9253C24.1962 13.9253 24.2478 14.3516 24.5047 14.368C24.7616 14.3844 24.9842 14.3187 24.9842 14.3187C24.9842 14.3187 24.71 14.6956 24.9669 14.9907C25.2238 15.2858 25.6691 15.3022 25.6865 15.4333C25.7038 15.5644 25.3953 15.6467 25.4465 15.7778C25.498 15.9089 25.926 16.0236 26.1829 15.7613C26.4398 15.4991 26.2513 15.1058 26.2513 15.1058C26.2513 15.1058 26.5598 15.2369 26.7993 14.7613C27.0393 14.2858 26.7309 13.8596 26.6967 13.8107C26.6625 13.7613 26.9878 13.5484 26.9878 13.5484C26.9878 13.5484 27.4673 13.5813 27.5358 13.3027C27.6042 13.024 27.2789 12.5484 27.2616 12.4173C27.2442 12.2862 27.4327 11.9418 27.1589 11.5649C26.8847 11.188 26.2513 10.86 26.0287 10.5649C25.806 10.2698 25.806 10.2698 25.806 10.2698L19.9829 10.9418Z" fill="#441B13"/>
<path d="M21.1016 11.5867C21.1016 11.5867 21.1651 12.6062 21.4202 13.116C21.6753 13.6258 22.2358 14.6329 22.478 14.7729C22.7202 14.9129 23.1407 14.964 23.3829 14.8493C23.6251 14.7347 24.3389 13.6769 24.5171 13.3071C24.6953 12.9373 24.7976 12.02 24.7976 11.7778C24.7976 11.5356 25.014 10.5289 24.4025 9.77689C23.7905 9.02489 22.822 8.96134 22.6945 8.99956C22.5669 9.03778 21.7642 9.08889 21.522 9.54756C21.2798 10.0062 21.1905 10.8858 21.1905 11.0387C21.1909 11.1916 21.1016 11.5867 21.1016 11.5867Z" fill="#F8C8B4"/>
<path d="M23.6865 11.6431C23.6865 11.6431 24.1261 11.5618 24.2887 11.5618" stroke="#441B13" stroke-width="0.0333333" stroke-miterlimit="10" stroke-linecap="round" stroke-linejoin="round"/>
<path d="M21.668 11.4641C21.668 11.4641 22.1235 11.6108 22.1889 11.6432" stroke="#441B13" stroke-width="0.0333333" stroke-miterlimit="10" stroke-linecap="round" stroke-linejoin="round"/>
<path d="M23.9309 11.2903C23.9309 11.384 23.8714 11.46 23.7985 11.46C23.7251 11.46 23.666 11.384 23.666 11.2903C23.666 11.1965 23.7256 11.1205 23.7985 11.1205C23.8714 11.1205 23.9309 11.1965 23.9309 11.2903Z" fill="#441B13"/>
<path d="M22.3293 11.2903C22.3293 11.384 22.2698 11.46 22.1969 11.46C22.1236 11.46 22.0645 11.384 22.0645 11.2903C22.0645 11.1965 22.124 11.1205 22.1969 11.1205C22.2698 11.1205 22.3293 11.1965 22.3293 11.2903Z" fill="#441B13"/>
<path d="M22.3389 12.4769C22.3722 12.2432 22.6891 11.9845 22.6891 11.9845C22.6891 11.9845 22.6224 12.1432 22.6722 12.2098C22.7224 12.2765 22.8175 12.3912 22.9598 12.3827C23.1015 12.3743 23.3731 12.2765 23.3984 12.2183C23.4233 12.1601 23.3318 12.0014 23.3318 12.0014C23.3318 12.0014 23.6486 12.2352 23.7322 12.4938" stroke="#441B13" stroke-width="0.0333333" stroke-miterlimit="10" stroke-linecap="round" stroke-linejoin="round"/>
<path d="M23.7386 13.1365C23.7386 13.1365 23.4378 12.7818 23.0618 12.7498C22.6858 12.7178 22.2991 13.0721 22.2778 13.2441C22.2564 13.4161 22.4818 14.1143 22.8684 14.2001C23.2551 14.2858 23.384 14.1249 23.5022 13.9209C23.6204 13.7165 23.7386 13.1365 23.7386 13.1365Z" fill="#441B13"/>
<path d="M22.4326 13.0068C22.538 13.0583 22.7304 13.1215 23.0402 13.1152C23.3375 13.109 23.5019 13.0459 23.5886 12.9935C23.4651 12.8912 23.2757 12.7686 23.0615 12.7503C22.8246 12.7295 22.5837 12.8623 22.4326 13.0068Z" fill="#FFFCF9" stroke="#441B13" stroke-width="0.0333333" stroke-miterlimit="10" stroke-linecap="round" stroke-linejoin="round"/>
<path d="M23.5886 13.6196C23.5135 13.4476 23.4917 13.5658 23.449 13.6733C23.4059 13.7809 23.3739 13.9311 23.277 13.9956C23.1801 14.06 22.869 14.06 22.7397 13.9849C22.6108 13.9098 22.6321 13.5445 22.525 13.5658C22.445 13.5818 22.5019 13.824 22.5366 13.9467C22.6272 14.0711 22.7384 14.1702 22.869 14.1996C23.2557 14.2853 23.3846 14.1245 23.5028 13.9205C23.5383 13.8591 23.5735 13.764 23.6059 13.6609C23.6001 13.6476 23.5948 13.6342 23.5886 13.6196Z" fill="#FFFCF9" stroke="#441B13" stroke-width="0.0333333" stroke-miterlimit="10" stroke-linecap="round" stroke-linejoin="round"/>
<path d="M23.3965 11.1529C23.3965 11.1529 23.8458 10.848 24.0285 10.848C24.2112 10.848 24.372 10.9982 24.372 10.9982" stroke="#441B13" stroke-width="0.0333333" stroke-miterlimit="10" stroke-linecap="round" stroke-linejoin="round"/>
<path d="M22.6004 11.1595C22.6004 11.1595 22.1062 10.8267 21.9129 10.7835C21.7195 10.7404 21.5049 10.9662 21.5049 10.9662" stroke="#441B13" stroke-width="0.0333333" stroke-miterlimit="10" stroke-linecap="round" stroke-linejoin="round"/>
<path d="M22.8262 11.0632C22.8262 11.0632 22.9231 10.9881 22.8906 10.8699C22.8586 10.7517 22.8475 10.6979 22.8475 10.6979" stroke="#441B13" stroke-width="0.0333333" stroke-miterlimit="10" stroke-linecap="round" stroke-linejoin="round"/>
<path d="M23.0615 10.9342C23.0615 10.9342 23.0615 11.0093 23.1366 11.0418" stroke="#441B13" stroke-width="0.0333333" stroke-miterlimit="10" stroke-linecap="round" stroke-linejoin="round"/>
<path d="M23.164 8.25466C23.1449 8.06488 22.9902 7.94355 22.7524 7.91288C22.624 7.83866 22.3591 7.75155 21.9182 7.89422C21.2573 8.10844 20.4 9.14444 20.2751 9.66266C20.1502 10.1804 20.1858 10.252 20.168 10.3591C20.1502 10.4662 19.9933 10.4884 19.9827 10.9418C19.9756 11.2369 20.1244 11.5209 20.2738 11.664C20.26 11.7031 20.2516 11.724 20.2516 11.724C20.2516 11.724 20.764 12.1484 21.1444 11.8995C21.5249 11.6507 21.9933 9.79155 22.1253 9.38177C22.2569 8.97199 22.8867 9.07422 22.8867 9.07422C22.8867 9.07422 23.1933 8.54755 23.164 8.25466Z" fill="#441B13"/>
<path d="M25.5182 10.468C25.6542 10.3742 25.8062 10.2693 25.8062 10.2693C25.8062 10.2693 25.6342 10.0373 25.5093 9.55508C25.3844 9.07286 25.1342 8.59063 24.5088 8.12619C24.0604 7.79286 23.4093 7.83686 23.0773 7.88797C22.7977 7.90574 22.623 7.97597 22.623 7.97597C22.623 7.97597 22.6524 8.86886 22.8866 9.07374C22.8866 9.07374 23.6186 9.19063 23.8382 9.51286C24.0577 9.83508 24.0577 10.3324 24.3653 10.64C24.6728 10.9475 24.6728 10.9475 24.6728 10.9475C24.6728 10.9475 24.6728 11.372 24.7462 11.6649C24.8195 11.9577 25.1706 12.2942 25.4782 12.2649C25.7857 12.2355 26.2688 11.972 26.2542 11.7524C26.2399 11.5529 25.8244 11.1684 25.5182 10.468Z" fill="#441B13"/>
<path d="M25.3911 20.9445C25.0635 21.4378 24.5444 22.0711 23.876 22.4053" stroke="#B24B4B" stroke-width="0.0444444" stroke-miterlimit="10" stroke-linecap="round" stroke-linejoin="round"/>
<path d="M25.7904 20.2529C25.7904 20.2529 25.7442 20.3534 25.6553 20.5129" stroke="#B24B4B" stroke-width="0.0444444" stroke-miterlimit="10" stroke-linecap="round" stroke-linejoin="round"/>
<path d="M24.2346 21.6881L23.2715 22.3868" stroke="#B24B4B" stroke-width="0.0444444" stroke-miterlimit="10" stroke-linecap="round" stroke-linejoin="round"/>
<path d="M24.0837 10.5654C24.0681 10.6254 23.901 10.6596 23.7259 10.7489C23.5481 10.8334 23.4188 10.9454 23.3623 10.9209C23.3366 10.908 23.3388 10.8556 23.3828 10.7836C23.4263 10.712 23.5161 10.6249 23.637 10.5654C23.7583 10.5058 23.881 10.4876 23.9637 10.4974C24.0477 10.5058 24.0895 10.5369 24.0837 10.5654Z" fill="#441B13"/>
<path d="M21.8511 10.5485C21.8658 10.6072 22.0258 10.6343 22.1938 10.7161C22.364 10.7925 22.488 10.8983 22.5418 10.8721C22.5667 10.8587 22.5649 10.8063 22.5227 10.7369C22.4814 10.6681 22.3956 10.5854 22.2791 10.5307C22.1631 10.4765 22.0449 10.4636 21.9662 10.4761C21.8858 10.4881 21.8454 10.5205 21.8511 10.5485Z" fill="#441B13"/>
</g>
</g>
<defs>
<clipPath id="clip0_1146_49377">
<rect width="48" height="48" rx="24" fill="white"/>
</clipPath>
<clipPath id="clip1_1146_49377">
<rect width="48" height="48" fill="white"/>
</clipPath>
</defs>
</svg>
