<svg width="48" height="48" viewBox="0 0 48 48" fill="none" xmlns="http://www.w3.org/2000/svg">
<g clip-path="url(#clip0_1146_49376)">
<rect width="48" height="48" rx="24" fill="white"/>
<g clip-path="url(#clip1_1146_49376)">
<path opacity="0.19" d="M52.3009 41.8765H-5.04395V49.9271H52.3009V41.8765Z" fill="#D2AEAD"/>
<path d="M49.234 41.9129C19.1113 41.9129 -5.2998 41.8853 -5.2998 41.8516Z" fill="#B24B4B"/>
<path d="M14.1202 29.9524C14.39 30.7449 10.738 34.0156 17.47 41.9142H33.7415C35.062 40.9596 36.0224 37.1391 37.098 36.1533C38.3042 35.0476 39.0855 33.3582 38.9162 31.6813C38.7118 29.6511 37.1966 27.7551 37.6922 25.7818C37.0802 26.0987 36.5793 26.648 36.3029 27.3058C35.6531 26.9262 35.562 25.9409 35.8366 25.2124C36.1113 24.484 36.6451 23.9018 37.0149 23.2218C37.9006 21.5951 37.7229 19.396 36.5886 17.9516C36.7446 19.7378 35.7909 21.5764 34.2815 22.4004C34.6909 21.2609 34.3984 19.8773 33.5682 19.0298C33.0442 18.4947 32.3482 18.1764 31.8277 17.6378C30.1104 15.8622 30.8109 12.3604 28.8753 10.8551C28.5166 12.156 28.1584 13.4573 27.7997 14.7582C26.906 14.3804 26.5189 13.2467 26.5073 12.2302C26.4957 11.2142 26.7517 10.204 26.6775 9.19067C26.6037 8.17734 26.0553 7.07956 25.1091 6.89111C25.1802 7.03022 25.2571 8.43556 25.0015 8.75422C23.4198 10.7271 21.6153 12.1818 21.1251 14.7147C20.4246 13.172 19.342 11.8253 18.014 10.8453C18.9042 12.312 19.0869 14.2316 18.4913 15.856C18.1229 16.8604 17.4873 17.7302 17.0518 18.704C16.6158 19.6778 16.3975 20.8658 16.89 21.8093C15.8824 20.3844 14.5695 19.2018 13.0784 18.3751C13.6042 18.8733 13.8073 19.6547 13.8398 20.3996C13.8726 21.1444 13.7611 21.8893 13.778 22.6347C13.7917 23.2556 13.762 24.0218 13.7375 24.8431C13.0971 24.1253 12.3109 23.5702 11.5326 23.0227C11.8731 23.5396 12.2304 24.1356 12.1118 24.7524C11.982 25.4271 11.3349 25.8471 11.058 26.4702C10.7749 27.1067 10.9229 27.8827 11.274 28.4796C11.6251 29.0769 12.1535 29.5302 12.6775 29.9644L14.1202 29.9524Z" fill="#F8E3E3"/>
<path d="M18.1357 40.1534C16.654 38.4187 15.066 36.1467 14.8424 34.1752C14.7108 33.0125 15.1006 32.3227 15.4446 31.7143C15.758 31.1605 16.2313 30.3232 15.878 29.2854L15.5055 28.1912L15.6037 24.9049C15.6073 24.7836 15.6113 24.6632 15.6148 24.5445C15.634 23.9285 15.6522 23.3423 15.6482 22.8147L18.5255 20.8578C18.426 20.6672 18.4677 20.1556 18.7402 19.5467C18.89 19.2121 19.086 18.8632 19.2931 18.4938C19.55 18.0365 19.8344 17.5298 20.0748 16.9663L21.842 20.8583L22.9548 15.1103C23.1753 13.9721 23.8046 13.0889 24.6384 12.1107C24.638 12.1583 24.6384 12.2063 24.6388 12.2543C24.6482 13.0894 24.822 13.8978 25.1411 14.5934C25.5748 15.5392 26.254 16.2294 27.1051 16.5889L29.018 17.3974L29.186 16.7881C29.4682 17.5858 29.8735 18.3774 30.5202 19.0463C30.9086 19.4481 31.3131 19.7316 31.6695 19.9818C31.9073 20.1485 32.1317 20.3063 32.2691 20.4463C32.5628 20.7463 32.6793 21.2969 32.5344 21.7001L30.8037 26.5174L34.0028 24.7716C33.4962 26.4614 34.0673 28.2529 35.398 29.0303L36.3602 29.5925C36.4113 29.7352 36.4628 29.8743 36.5126 30.0098C36.7646 30.6929 37.0024 31.3383 37.058 31.8889C37.1526 32.8276 36.6873 33.9165 35.8722 34.6636C35.0842 35.3858 34.5633 36.5485 33.9597 37.8947C33.7002 38.4743 33.4313 39.0734 33.17 39.5547C33.0051 39.8578 32.8811 40.0432 32.798 40.1525H18.1357V40.1534ZM13.3353 27.9872C13.1313 27.7983 12.9646 27.6174 12.8597 27.4396C12.8184 27.3694 12.7953 27.3036 12.7842 27.2578C12.8322 27.1921 12.9051 27.1023 12.9624 27.0312C12.9868 27.0009 13.0122 26.9698 13.038 26.9374L13.97 27.9818L13.3353 27.9872Z" fill="#EEC7C6"/>
<g opacity="0.3">
<path d="M19.3858 37.2809C17.8209 35.2462 17.5805 34.1498 17.5445 33.8338C17.5236 33.6507 17.5227 33.6436 17.7814 33.1862C19.2271 30.6293 18.6542 28.9476 18.4387 28.3142L18.2414 27.7351L18.3231 24.9956C18.3262 24.8933 18.3391 24.4787 18.3414 24.3991L19.9382 23.3129L22.8858 29.8049L25.0391 18.6844C25.3694 18.9076 25.7209 19.0982 26.092 19.2551L27.6756 19.9244C27.9556 20.3498 28.268 20.7396 28.6151 21.0982C28.9356 21.4293 29.2534 21.6991 29.5431 21.9231L25.7378 32.5156L31.856 29.1764C32.3774 30.1756 33.1436 30.9969 34.0791 31.5436L34.1742 31.5991C34.2471 31.8076 34.3111 32.0053 34.3396 32.1316C34.3107 32.2133 34.2307 32.364 34.0876 32.4951C32.8685 33.6129 32.2036 35.096 31.4996 36.6667C31.4076 36.8724 31.3142 37.0804 31.2222 37.2809H19.3858Z" fill="white"/>
</g>
<path d="M28.3284 10.3689C28.2951 10.2147 28.2613 10.06 28.2279 9.90583C28.2004 9.77916 28.1724 9.64538 28.1786 9.50671C28.1924 9.20316 28.3653 8.98849 28.3502 8.68494C28.3959 8.8396 28.4555 8.97516 28.5008 9.13071C28.5462 9.28627 28.5768 9.47382 28.5564 9.65116C28.5435 9.76316 28.5115 9.86094 28.4799 9.95516C28.4337 10.0934 28.3879 10.232 28.3417 10.3703" fill="#F8E3E3"/>
<path d="M27.534 19.0778C27.5398 19.0631 27.5465 19.0489 27.554 19.0346C27.6838 18.7889 28.0042 18.696 28.2909 18.6489C28.7745 18.5698 29.2674 18.5475 29.754 18.5831C30.2025 18.616 30.6594 18.7031 31.0278 18.9391C31.5327 19.2626 31.8034 19.8191 31.9936 20.3658C32.1514 20.8182 32.4149 25.3978 32.1527 27.5724C32.0922 28.0724 30.9709 32.1675 30.4838 31.9729C30.506 32.652 29.5367 30.4351 28.8931 30.7622C28.1802 31.1244 25.8682 30.8924 26.4967 29.6951C26.5958 29.5066 26.7816 29.3631 26.8638 29.1675C26.9629 28.932 26.8905 28.6644 26.7665 28.4435C26.6425 28.2226 26.4687 28.0293 26.3474 27.8075C26.106 27.3671 26.0856 26.8413 26.1776 26.348C26.2696 25.8546 26.4665 25.3831 26.6447 24.9093C27.2891 23.1938 27.7002 21.372 27.5087 19.5773C27.4914 19.4111 27.47 19.2342 27.534 19.0778Z" fill="#441B13"/>
<path d="M25.0056 28.9236C24.9959 28.9352 24.9852 28.9467 24.9741 28.9574C24.7816 29.1449 24.4736 29.1285 24.2092 29.0796C23.7639 28.9978 23.3292 28.8596 22.9185 28.6694C22.5399 28.4943 22.1719 28.2658 21.9292 27.9267C21.5963 27.4618 21.5425 26.8556 21.5554 26.284C21.5661 25.8112 21.6079 24.7396 22.3754 22.6956C22.7159 21.7889 23.9336 19.0454 24.7852 18.5738C25.2168 18.3347 25.8128 18.4845 26.1719 18.8232C26.3736 18.1823 26.9625 17.6805 27.6274 17.5832C28.3639 17.4752 30.2941 18.4365 29.359 19.3512C29.2119 19.4952 29.0039 19.5689 28.8692 19.7249C28.7065 19.9129 28.6821 20.1858 28.7181 20.4316C28.7541 20.6774 28.8416 20.9138 28.875 21.1605C28.9412 21.6494 28.7879 22.1463 28.5474 22.5769C28.307 23.0076 27.983 23.384 27.6745 23.7689C26.5572 25.1618 25.6079 26.7294 25.1901 28.4654C25.151 28.6263 25.1114 28.7983 25.0056 28.9236Z" fill="#441B13"/>
<g opacity="0.51">
<path d="M11.0872 38.1428C11.0872 38.1428 10.593 34.7459 10.6343 32.7699C10.6756 30.7934 10.6321 28.5703 10.6321 28.5703H10.8596C10.8596 28.5703 10.7054 32.493 10.8734 34.8592C11.041 37.2232 11.4827 38.1432 11.4827 38.1432H11.0872" fill="#E0E0E0"/>
<path d="M12.5585 24.748C12.5127 24.632 12.4563 24.5111 12.3509 24.4445C12.2065 24.3529 12.0172 24.3911 11.8558 24.448C11.1678 24.6911 10.5581 25.9738 10.2803 26.6485L11.1936 29.7258C12.8421 28.1965 13.1274 26.1903 12.5585 24.748Z" fill="#EBEBEB"/>
<path d="M12.2975 24.569C12.2988 24.5694 12.2939 24.5832 12.2841 24.609C12.2726 24.6383 12.2575 24.6756 12.2392 24.721C12.1992 24.8179 12.1432 24.9588 12.0757 25.1334C11.941 25.4828 11.7699 25.9712 11.6166 26.5219C11.4641 27.0725 11.3588 27.5796 11.2943 27.9485C11.2619 28.133 11.2375 28.2828 11.2219 28.3863C11.2139 28.4348 11.2077 28.4743 11.2023 28.5054C11.1975 28.5325 11.1943 28.5468 11.193 28.5468C11.1917 28.5468 11.1926 28.5321 11.1948 28.5045C11.1979 28.473 11.2023 28.4334 11.2072 28.3845C11.2183 28.2801 11.2388 28.1299 11.2681 27.9445C11.3263 27.5739 11.4277 27.0645 11.5806 26.5125C11.7343 25.9605 11.9099 25.4721 12.0512 25.1245C12.1219 24.9508 12.1815 24.8112 12.2259 24.7161C12.2468 24.6716 12.2637 24.6356 12.277 24.6068C12.289 24.5814 12.2961 24.5685 12.2975 24.569Z" fill="#E0E0E0"/>
<path d="M10.7879 30.4635C9.93192 29.9906 9.42748 29.1009 9.38037 28.124C9.34748 27.4413 9.55726 26.7711 9.79503 26.1302C9.81548 26.0746 9.83992 26.0146 9.89192 25.9853C9.96392 25.9444 10.0537 25.9809 10.1253 26.0218C10.7475 26.376 11.1244 27.0511 11.3248 27.7382C11.4581 28.1955 11.5275 28.6778 11.4657 29.1498C11.4035 29.6222 11.1337 30.136 10.7879 30.4635Z" fill="#E0E0E0"/>
<path d="M10.7882 30.4635C10.7868 30.4635 10.7859 30.4493 10.7846 30.4222C10.7842 30.3911 10.7833 30.352 10.7824 30.304C10.7819 30.2013 10.7779 30.0533 10.7695 29.8702C10.753 29.504 10.705 28.9996 10.6104 28.4484C10.5153 27.8973 10.4002 27.4035 10.3153 27.0471C10.2735 26.8724 10.2393 26.7293 10.2139 26.6249C10.2033 26.5782 10.1944 26.54 10.1877 26.5098C10.1819 26.4835 10.1797 26.4693 10.181 26.4689C10.1824 26.4684 10.1873 26.4818 10.1953 26.508C10.2042 26.5378 10.2148 26.5755 10.2286 26.6213C10.2566 26.72 10.2957 26.8635 10.3415 27.0409C10.433 27.3964 10.5526 27.8898 10.6477 28.4422C10.7424 28.9947 10.7864 29.5018 10.7961 29.8689C10.801 30.0524 10.801 30.2013 10.797 30.304C10.7953 30.352 10.7935 30.3911 10.7922 30.4222C10.7908 30.4493 10.7895 30.4635 10.7882 30.4635Z" fill="#EBEBEB"/>
<path d="M11.7539 35.6609C12.5966 35.8458 13.2903 36.44 14.1028 36.7293C14.6406 36.9205 15.2486 36.988 15.6779 37.364C15.5748 37.104 15.3308 36.9307 15.0935 36.7822C14.425 36.3649 13.7095 36.0231 12.9646 35.7658C12.5824 35.6338 12.1672 35.5236 11.7775 35.632" fill="#EBEBEB"/>
<path d="M10.5348 36.4116C9.47969 36.3947 8.36858 35.4965 7.31836 35.4427C8.41747 35.0876 9.99125 35.3774 10.5348 36.4116Z" fill="#EBEBEB"/>
<path d="M10.9473 33.8805C11.4833 33.6876 12.0713 33.6783 12.6339 33.7658C13.1966 33.8534 13.7402 34.0338 14.2806 34.2134C14.2264 33.8471 13.9299 33.572 13.6513 33.3285C13.4415 33.1449 13.2304 32.9605 12.9899 32.82C12.7495 32.6796 12.4753 32.5845 12.197 32.5965C11.8615 32.6107 11.5419 32.784 11.3219 33.0378C11.1019 33.2911 10.9837 33.5463 10.9473 33.8805Z" fill="#EBEBEB"/>
<path d="M8.78237 32.7156C8.11837 32.1485 7.11215 32.2041 6.23926 32.2236C7.58148 32.8654 9.0277 33.7449 10.1837 34.6814C10.2188 34.064 9.62104 33.4316 8.78237 32.7156Z" fill="#EBEBEB"/>
<path d="M11.2468 31.9325C11.5805 31.7098 11.9188 31.4978 12.2681 31.3387C12.6179 31.18 12.9436 30.9267 13.2814 30.744C13.7192 30.5071 14.0983 30.1773 14.5005 29.8836C14.9023 29.5898 15.3436 29.3245 15.8356 29.2467C15.4348 29.164 15.0156 29.2089 14.6205 29.3169C14.2254 29.4249 13.8503 29.5938 13.477 29.7618C12.9588 29.9951 12.4316 30.2342 12.0081 30.6133C11.585 30.992 11.2019 31.3662 11.2468 31.9325Z" fill="#EBEBEB"/>
<path d="M14.0837 36.4116C14.0833 36.4125 14.0717 36.4076 14.0504 36.3974C14.0255 36.3845 13.9953 36.369 13.9584 36.3499C13.8788 36.3076 13.765 36.245 13.621 36.1725C13.5499 36.1352 13.4713 36.0956 13.3855 36.0556C13.301 36.0134 13.209 35.9721 13.1117 35.9299C12.917 35.8467 12.6993 35.7596 12.4619 35.7036C12.2255 35.6454 11.9895 35.633 11.785 35.6867C11.6819 35.7116 11.5846 35.7361 11.4984 35.7725C11.4117 35.8076 11.3344 35.849 11.2668 35.8912C11.1317 35.9761 11.037 36.0663 10.9757 36.1316C10.9144 36.197 10.885 36.237 10.8819 36.2352C10.881 36.2343 10.8873 36.2236 10.901 36.2041C10.9144 36.1841 10.9357 36.1565 10.9646 36.1219C11.0233 36.053 11.1161 35.9587 11.2521 35.869C11.3197 35.8241 11.3979 35.781 11.4864 35.7436C11.5744 35.7054 11.6735 35.6792 11.777 35.653C11.9859 35.5956 12.2313 35.6081 12.4704 35.6672C12.7113 35.7245 12.9299 35.813 13.1255 35.8983C13.2233 35.9414 13.3148 35.9841 13.3993 36.0276C13.4846 36.069 13.5628 36.1099 13.6335 36.149C13.7761 36.2245 13.8881 36.2907 13.9655 36.337C14.001 36.3583 14.0304 36.3761 14.0539 36.3907C14.0739 36.4032 14.0841 36.4103 14.0837 36.4116Z" fill="#E0E0E0"/>
<path d="M9.74809 35.8885C9.74898 35.8863 9.77253 35.8929 9.81431 35.9076C9.85609 35.9218 9.9152 35.9471 9.98631 35.9823C10.1281 36.0525 10.3152 36.1716 10.4903 36.3396C10.6654 36.508 10.7921 36.6898 10.8676 36.8289C10.9059 36.8983 10.9334 36.9565 10.949 36.9978C10.9654 37.0391 10.9734 37.0618 10.9708 37.0631C10.9645 37.0658 10.9254 36.9765 10.8441 36.8427C10.7632 36.7085 10.6356 36.5329 10.4636 36.3671C10.2912 36.2023 10.1103 36.0814 9.97298 36.0063C9.83653 35.9307 9.74586 35.8947 9.74809 35.8885Z" fill="#E0E0E0"/>
<path d="M7.41407 32.6622C7.41452 32.6609 7.43007 32.6658 7.45896 32.6755C7.49141 32.6871 7.53363 32.7022 7.58563 32.7204C7.64207 32.7413 7.70874 32.7658 7.78518 32.7942C7.86296 32.8231 7.94741 32.8658 8.04296 32.908C8.42296 33.0804 8.92829 33.3706 9.41674 33.7831C9.65763 33.9929 9.87541 34.2058 10.0572 34.4138C10.2385 34.6222 10.3923 34.8186 10.5118 34.9898C10.6323 35.1604 10.7238 35.3026 10.7861 35.4009C10.8158 35.4475 10.8399 35.4849 10.8581 35.5142C10.8745 35.54 10.8825 35.5542 10.8816 35.5551C10.8807 35.556 10.8705 35.5431 10.8519 35.5186C10.8332 35.4942 10.8065 35.4573 10.7736 35.4093C10.7074 35.3133 10.6127 35.1738 10.4896 35.0058C10.3674 34.8369 10.2123 34.6435 10.0305 34.4373C9.84785 34.2315 9.63096 34.0204 9.39141 33.812C8.90607 33.4022 8.40652 33.1102 8.03096 32.9324C7.93629 32.8889 7.85318 32.8449 7.77629 32.8142C7.70074 32.7835 7.63496 32.7573 7.57941 32.7346C7.52829 32.7133 7.48741 32.6964 7.45541 32.6831C7.42829 32.6706 7.41363 32.6635 7.41407 32.6622Z" fill="#E0E0E0"/>
<path d="M12.5307 33.2872C12.5298 33.2898 12.5 33.2858 12.4467 33.2765C12.4178 33.2712 12.3854 33.2654 12.3498 33.2587C12.3121 33.2516 12.2681 33.2512 12.2201 33.2463C12.0303 33.2325 11.7538 33.2481 11.4947 33.3894C11.3641 33.4556 11.2543 33.545 11.1649 33.6343C11.0738 33.7232 11.0049 33.8156 10.9529 33.8965C10.8472 34.0587 10.8143 34.1756 10.808 34.1734C10.8058 34.173 10.8121 34.1432 10.8294 34.0912C10.8489 34.0401 10.8787 33.9658 10.9303 33.8827C10.9805 33.7987 11.0485 33.7023 11.1405 33.6103C11.2307 33.5174 11.3432 33.4245 11.4774 33.3565C11.7445 33.2107 12.0303 33.1992 12.2223 33.2201C12.2707 33.2267 12.3152 33.229 12.3529 33.2383C12.3885 33.2472 12.4205 33.2552 12.4494 33.2627C12.5027 33.2761 12.5312 33.285 12.5307 33.2872Z" fill="#E0E0E0"/>
<path d="M13.5914 29.9974C13.5918 29.9987 13.578 30.0072 13.5514 30.0218C13.5211 30.0383 13.482 30.0596 13.4336 30.0858C13.3314 30.141 13.1838 30.2223 13.0051 30.3276C12.8269 30.4343 12.6171 30.5658 12.394 30.7254C12.1714 30.8854 11.9323 31.0712 11.7118 31.297C11.6029 31.4107 11.5025 31.5294 11.4327 31.6583C11.3638 31.7912 11.2976 31.9192 11.2367 32.0423C11.1145 32.2885 11.0154 32.5147 10.9434 32.7098C10.8718 32.9045 10.8274 33.0667 10.8007 33.1796C10.7736 33.2925 10.7638 33.3561 10.7603 33.3556C10.7589 33.3556 10.7603 33.3392 10.7647 33.309C10.7687 33.2783 10.7749 33.2338 10.7865 33.1765C10.8087 33.0618 10.8496 32.8978 10.9185 32.7005C10.9874 32.5036 11.0847 32.2747 11.2056 32.0267C11.2656 31.9027 11.3314 31.7738 11.3998 31.641C11.4723 31.5058 11.5745 31.3858 11.6847 31.2703C11.9083 31.0418 12.1491 30.8556 12.374 30.6965C12.5994 30.5378 12.8114 30.4085 12.9918 30.3041C13.1731 30.2014 13.3225 30.1232 13.4269 30.0721C13.4767 30.0485 13.5167 30.0294 13.5478 30.0143C13.5758 30.0027 13.5909 29.9965 13.5914 29.9974Z" fill="#E0E0E0"/>
<path d="M10.6324 33.192C10.6298 33.1924 10.6227 33.1609 10.6116 33.1031C10.5991 33.0382 10.5836 32.9564 10.5653 32.8595C10.5253 32.6542 10.4636 32.3711 10.3658 32.068C10.2689 31.764 10.1507 31.4995 10.0644 31.3089C10.0236 31.2191 9.98888 31.1431 9.96177 31.0831C9.93777 31.0298 9.92577 30.9995 9.928 30.9982C9.93022 30.9969 9.94711 31.0249 9.97511 31.0764C10.0031 31.128 10.0427 31.2031 10.0889 31.2973C10.1813 31.4853 10.304 31.7498 10.4018 32.0564C10.5004 32.3622 10.5582 32.648 10.5916 32.8551C10.608 32.9587 10.62 33.0431 10.6258 33.1013C10.6324 33.1595 10.6351 33.192 10.6324 33.192Z" fill="#E0E0E0"/>
<path d="M10.5561 30.7916C10.5294 30.393 10.3996 30.0059 10.213 29.6525C9.70095 28.6841 8.73828 27.9667 7.66406 27.7521C8.45073 28.9245 9.23695 30.0965 10.0236 31.269L10.3285 31.8965C10.5365 31.5556 10.5827 31.1903 10.5561 30.7916Z" fill="#EBEBEB"/>
<path d="M13.9417 37.7227H8.45508V38.6951H13.9417V37.7227Z" fill="#EBEBEB"/>
<path d="M8.86426 38.5022L9.33137 41.5195H12.9736L13.5314 38.5022H8.86426Z" fill="#EBEBEB"/>
<path d="M13.9382 38.6964C13.9382 38.707 12.7004 38.7155 11.1742 38.7155C9.64749 38.7155 8.41016 38.707 8.41016 38.6964C8.41016 38.6857 9.64749 38.6773 11.1742 38.6773C12.7004 38.6768 13.9382 38.6857 13.9382 38.6964Z" fill="#E0E0E0"/>
</g>
<path d="M34.6205 9.02844L33.1796 7.01733L32.2942 9.31867L29.8378 8.40089L30.8485 11.0671L28.8516 12.1244L31.3405 13.3347L29.8836 16.0418L32.4338 14.4991L34.3516 16.5511L35.0324 14.1809L37.7458 14.2169L36.2569 12.2178L38.2462 10.712L36.0942 10.4244L36.7338 8.09956L34.6205 9.02844Z" fill="white"/>
<path d="M37.7604 14.1938L37.7844 14.2258L37.7444 14.2254C36.8809 14.2142 35.9702 14.2027 35.0311 14.1907L35.0515 14.1756C34.8355 14.9289 34.6062 15.7289 34.3715 16.5458L34.3609 16.5822L34.3351 16.5547C33.7217 15.8982 33.0751 15.2067 32.4173 14.5031L32.4444 14.5067C32.2244 14.64 31.9871 14.7831 31.7489 14.9276C31.1222 15.3067 30.5031 15.6809 29.8942 16.0494L29.8262 16.0907L29.864 16.0205C30.3622 15.0947 30.8489 14.1907 31.3213 13.3138L31.3306 13.3427C30.4738 12.9258 29.6431 12.5214 28.8422 12.132L28.8066 12.1147L28.8418 12.096C29.5324 11.7307 30.1986 11.3782 30.8395 11.0396L30.8306 11.0631C30.4729 10.1174 30.1355 9.22535 29.8218 8.39646L29.8084 8.3618L29.8431 8.37468C30.7466 8.71335 31.5635 9.01913 32.2986 9.29469L32.2804 9.30268C32.6306 8.39691 32.9249 7.63469 33.1689 7.00313L33.1755 6.98535L33.1866 7.00091C33.6524 7.65513 34.0102 8.1578 34.2524 8.49824C34.3729 8.66846 34.4644 8.7978 34.5266 8.88535C34.588 8.97246 34.6191 9.01824 34.6191 9.01824C34.6191 9.01824 34.5871 8.97602 34.5249 8.89068C34.4622 8.80402 34.3698 8.67646 34.248 8.50802C34.0031 8.16846 33.6409 7.66624 33.1702 7.01291L33.188 7.01069C32.9457 7.64313 32.6538 8.40624 32.3066 9.31291L32.3017 9.3258L32.2889 9.32091C31.5533 9.04713 30.7355 8.74269 29.8315 8.4058L29.8533 8.38402C30.168 9.21246 30.5066 10.104 30.8662 11.0494L30.872 11.0649L30.8573 11.0729C30.2169 11.4125 29.5506 11.7658 28.8609 12.1316L28.8604 12.0956C29.6613 12.4845 30.4929 12.8885 31.3498 13.3045L31.3698 13.3142L31.3595 13.3338C30.8875 14.2111 30.4013 15.1151 29.9035 16.0414L29.8733 16.0125C30.4822 15.644 31.1013 15.2698 31.728 14.8907C31.9662 14.7467 32.2035 14.6031 32.4235 14.4702L32.4386 14.4609L32.4506 14.4738C33.1084 15.1778 33.7546 15.8694 34.368 16.5258L34.3315 16.5347C34.5662 15.7178 34.7964 14.9178 35.0129 14.1645L35.0173 14.1494H35.0333C35.9729 14.1622 36.8831 14.1747 37.7466 14.1862L37.7306 14.2178C37.2133 13.5227 36.7164 12.8542 36.2431 12.2178L36.2324 12.2031L36.2471 12.192C36.956 11.6565 37.6266 11.1498 38.2377 10.688L38.2453 10.7169C37.4644 10.6116 36.7378 10.5138 36.0938 10.4271L36.0782 10.4249L36.0826 10.4098C36.332 9.50846 36.5493 8.72313 36.7258 8.0858L36.7395 8.0978C36.0578 8.39513 35.528 8.6258 35.168 8.78269C34.9893 8.86002 34.8529 8.91913 34.7604 8.95913C34.6689 8.99869 34.6222 9.0178 34.6222 9.0178C34.6222 9.0178 34.6698 8.99557 34.7618 8.95424C34.8542 8.91291 34.9906 8.85202 35.1693 8.77246C35.5271 8.6138 36.0537 8.38046 36.732 8.07957L36.7511 8.07113L36.7458 8.09157C36.5715 8.72935 36.3564 9.51557 36.1102 10.4178L36.0986 10.4005C36.7431 10.4858 37.4698 10.5822 38.2511 10.6858L38.2902 10.6911L38.2586 10.7151C37.6484 11.1778 36.9786 11.6854 36.2706 12.2222L36.2742 12.1969" fill="#263138"/>
<path d="M34.3719 16.6267L34.311 16.5618L34.2976 16.5649L34.3016 16.5516L32.4252 14.5445L29.9163 16.0618L29.9079 16.0774L29.9012 16.0712L29.767 16.1525L29.8412 16.0143L29.8345 16.0081L29.8492 15.9992L31.279 13.3432L28.851 12.1618L28.8376 12.1689V12.1552L28.7559 12.1156L28.8363 12.0734L28.8359 12.0601L28.8492 12.0667L30.7954 11.0374L29.8061 8.42139L29.7901 8.41561L29.7999 8.40539V8.4045L29.7692 8.32317L29.8514 8.35383L29.8612 8.34405L29.867 8.36005L32.2719 9.26139L33.1412 7.01205L33.1292 6.99561L33.1483 6.99339L33.1692 6.93872L33.203 6.98628L33.2216 6.98405L33.2145 7.00272L34.5443 8.8725C34.5847 8.93028 34.6123 8.96983 34.6261 8.98983C34.6474 8.98005 34.6887 8.96094 34.7483 8.93428L35.1559 8.7525L36.7043 8.06583L36.7096 8.04628L36.7225 8.05739L36.7807 8.03161L36.7639 8.09294L36.7772 8.1045L36.7585 8.1125L36.1381 10.3836L38.2332 10.6614L38.2474 10.6507L38.251 10.6636L38.3425 10.6756L38.2687 10.7316L38.2723 10.7445L38.255 10.7423L36.2825 12.2374L37.7154 14.1636L37.7803 14.1645L37.7683 14.1876L37.7772 14.1809L37.8283 14.2494L37.7372 14.2485L37.731 14.2605L37.7221 14.2481L35.0625 14.2138L34.3985 16.5285L34.4079 16.5387L34.3945 16.5418L34.3719 16.6267ZM32.503 14.4974L34.3301 16.4529L34.9741 14.2121H34.9643L34.9767 14.2027L34.999 14.1254L35.079 14.1263L35.0914 14.1169L35.0887 14.1263L37.6599 14.1614L36.2479 12.2632L36.2367 12.2716L36.2394 12.2521L36.199 12.1978L36.2314 12.1734L38.147 10.7263L36.1203 10.4534L36.1154 10.4707L36.1025 10.4512L36.0474 10.4436L36.0621 10.3903L36.0492 10.3707L36.067 10.3729L36.6839 8.14494L34.767 8.97917C34.675 9.01872 34.6283 9.03783 34.6283 9.03783L34.6194 9.01783L34.6016 9.03072C34.6016 9.03072 34.5696 8.9885 34.507 8.90272L33.9772 8.16983L33.1874 7.07428L32.3407 9.28583L32.3576 9.29205L32.3345 9.30228L32.3145 9.35383L32.2625 9.33428L32.2394 9.3445L32.2456 9.32805L29.9043 8.4565L30.8696 10.9969L30.8807 10.9912L30.8741 11.0089L30.899 11.0752L30.8363 11.1085L30.8296 11.1258L30.8252 11.1143L28.9443 12.1116L31.3203 13.2654L31.3256 13.2556L31.3301 13.2703L31.3985 13.3036L31.3621 13.3707L31.3665 13.3849L31.3567 13.3801L29.9972 15.9081L32.3621 14.4778L32.3563 14.4716L32.3696 14.4734L32.4399 14.4307L32.4959 14.4903L32.5096 14.4921L32.503 14.4974Z" fill="#B24B4B"/>
<path d="M34.0034 10.5272L33.8225 12.2143C33.8079 12.3521 33.6923 12.4574 33.5536 12.4596C33.4074 12.4619 33.2848 12.349 33.275 12.2032L33.1612 10.4948C33.1528 10.3654 33.2594 10.2579 33.3888 10.265L33.8012 10.2885C33.9248 10.2961 34.0168 10.4045 34.0034 10.5272ZM33.1456 13.2428C33.2079 13.4623 33.4368 13.5899 33.6563 13.5272C33.8759 13.465 34.0034 13.2361 33.9408 13.0165C33.8785 12.797 33.6496 12.6694 33.4301 12.7321C33.211 12.7943 33.0834 13.0228 33.1456 13.2428Z" fill="#B24B4B"/>
<path d="M5.70248 20.4378C5.6807 20.436 5.30026 20.5578 5.30026 20.5578L5.2207 20.8795C5.2207 20.8795 5.55004 21.2111 5.56115 21.2302C5.57181 21.2493 6.07004 21.0089 6.07004 21.0089L5.9967 20.7569L5.70248 20.4378Z" fill="#E0B5A6"/>
<path d="M5.4816 19.9933C5.46249 19.9813 4.99138 20.1364 4.69982 20.3653C4.40826 20.5942 4.42604 20.7013 4.40915 20.8293C4.39226 20.9573 4.60382 21.1711 4.7856 21.2964C4.96738 21.4222 5.67271 21.5671 5.76071 21.5667C5.84871 21.5662 6.34604 21.3955 6.34249 21.3213C6.33893 21.2471 6.23226 20.876 6.12871 20.8502C6.02515 20.8244 5.59538 21.0191 5.59538 21.0191L5.41626 20.8867L5.48026 20.7711C5.48026 20.7711 5.67449 20.9058 5.92026 20.7431C6.1656 20.5809 5.4816 19.9933 5.4816 19.9933Z" fill="#F8C8B4"/>
<path d="M3.92183 18.0973C4.00227 18.1173 5.13516 18.7902 5.44583 18.9866C5.75649 19.1831 6.47027 19.684 6.70805 19.8968C6.94627 20.1093 9.54849 22.5164 9.54849 22.5164L8.13116 23.7164L7.26316 22.564C7.26316 22.564 6.97827 22.8866 5.87338 22.1693C5.87338 22.1693 5.28183 22.1426 5.10405 22.0306C4.92671 21.9186 4.10494 21.6471 4.36138 21.232C4.61783 20.8168 5.23472 21.3644 5.58494 21.3986C5.9356 21.4328 5.9956 21.3964 6.0796 21.1266C6.1636 20.8568 5.17871 19.9297 4.98849 19.592C4.79827 19.2542 4.09338 18.9946 3.86272 18.5444C3.69694 18.22 3.92183 18.0973 3.92183 18.0973Z" fill="#F8C8B4"/>
<path d="M3.92208 18.0973C3.92386 18.0991 3.8923 18.1146 3.8563 18.1657C3.81986 18.2151 3.79053 18.3106 3.82519 18.4244C3.85897 18.5373 3.93764 18.664 4.05808 18.7822C4.17764 18.9017 4.33408 19.016 4.50964 19.1386C4.59719 19.2004 4.68964 19.2648 4.78119 19.3391C4.8723 19.4115 4.96386 19.5035 5.02519 19.6146C5.16564 19.82 5.35186 20.0173 5.53541 20.2324C5.6283 20.3395 5.72297 20.4502 5.81497 20.5671C5.90653 20.6844 5.99986 20.8053 6.06919 20.9484C6.08519 20.9848 6.09986 21.0231 6.10608 21.0653C6.1083 21.0871 6.10786 21.1097 6.10164 21.1328L6.08297 21.1893C6.0563 21.2617 6.02652 21.3484 5.94519 21.3955C5.86475 21.4382 5.77808 21.4328 5.69719 21.4306C5.6563 21.428 5.61586 21.4253 5.57497 21.4204L5.51186 21.4093L5.45141 21.3915C5.29986 21.3408 5.16341 21.2675 5.0243 21.2075C4.88653 21.1488 4.74297 21.0924 4.60297 21.1022C4.53275 21.1062 4.47186 21.1413 4.42386 21.1875C4.3803 21.2386 4.34119 21.2991 4.3363 21.3644C4.32786 21.4293 4.35186 21.4942 4.38964 21.5475C4.42741 21.6022 4.47764 21.648 4.53053 21.6884C4.63675 21.7697 4.75452 21.832 4.86964 21.8893C4.92786 21.9177 4.98519 21.9457 5.04208 21.9733C5.07008 21.9866 5.09941 22.004 5.12519 22.0186C5.15008 22.0328 5.17808 22.0435 5.20608 22.0533C5.43586 22.1213 5.66697 22.1368 5.87364 22.152L5.87852 22.1524L5.88208 22.1546C6.07764 22.2808 6.2603 22.3857 6.42786 22.464C6.59541 22.5417 6.74741 22.5911 6.87497 22.6137C7.00252 22.6364 7.10519 22.6297 7.16964 22.6088C7.20208 22.5986 7.22564 22.588 7.2403 22.5782C7.25541 22.5693 7.26164 22.5631 7.26252 22.5635C7.26297 22.564 7.25764 22.5715 7.24297 22.5822C7.22919 22.5933 7.20519 22.6062 7.17275 22.6182C7.10741 22.6431 7.00208 22.6524 6.87186 22.6324C6.74164 22.6124 6.58653 22.5648 6.4163 22.4888C6.24653 22.412 6.06119 22.3084 5.86341 22.1835L5.87186 22.1862C5.76653 22.1813 5.65719 22.1724 5.54386 22.1591C5.43053 22.1444 5.31275 22.1284 5.19364 22.0911C5.16386 22.0813 5.13408 22.0702 5.10519 22.0537C5.07719 22.0382 5.0523 22.024 5.02386 22.0102C4.96697 21.9831 4.90964 21.9555 4.85141 21.9275C4.73497 21.8702 4.61497 21.808 4.5043 21.724C4.44919 21.6817 4.39586 21.6337 4.35364 21.5737C4.31141 21.5151 4.28208 21.4382 4.29186 21.3604C4.29853 21.2817 4.34119 21.2151 4.39097 21.1568C4.44564 21.1026 4.51941 21.0617 4.59853 21.0568C4.75586 21.0462 4.90297 21.1062 5.04252 21.1653C5.18297 21.2257 5.3203 21.2991 5.46564 21.3471C5.5403 21.3751 5.61852 21.3786 5.69941 21.384C5.77764 21.3871 5.85986 21.3888 5.92208 21.3551C5.98386 21.3208 6.01364 21.2453 6.03941 21.1742L6.05764 21.1191C6.06119 21.104 6.06208 21.088 6.0603 21.0706C6.05541 21.036 6.04208 21.0008 6.02741 20.9671C5.96253 20.832 5.87008 20.7106 5.77986 20.5942C5.68875 20.4782 5.59497 20.3675 5.50253 20.26C5.31986 20.0435 5.13541 19.8471 4.9923 19.6351C4.93186 19.524 4.8483 19.4404 4.75808 19.3666C4.66875 19.2928 4.57719 19.228 4.49008 19.1653C4.31586 19.0413 4.15897 18.9235 4.03897 18.8004C3.91853 18.6782 3.83986 18.5466 3.80741 18.4293C3.77408 18.3097 3.8083 18.2088 3.8483 18.16C3.88875 18.1088 3.92208 18.0973 3.92208 18.0973Z" fill="#E0B5A6"/>
<path d="M16.7531 42.8618C16.7531 42.8618 16.7451 42.7306 16.8923 42.6324C17.0398 42.5342 17.9896 42.1164 18.0634 42.0755C18.1371 42.0346 19.5376 41.756 19.562 41.748C19.5865 41.74 21.6176 41.4942 21.6589 41.4858C21.6998 41.4778 22.1256 41.2893 22.1256 41.2893C22.1256 41.2893 22.8789 42.5097 22.8545 42.5097C22.83 42.5097 22.2567 42.9764 21.9043 43.0502C21.5523 43.124 19.922 43.2302 19.8647 43.2302C19.8074 43.2302 18.7998 43.3858 18.5625 43.3613C18.3251 43.3369 18.3167 43.124 18.3167 43.124C18.3167 43.124 17.7025 43.2466 17.4487 43.2222C17.1949 43.1978 17.1865 43.0666 17.1865 43.0666C17.1865 43.0666 16.7967 43.1591 16.7398 43.0524C16.6834 42.9462 16.7531 42.8618 16.7531 42.8618Z" fill="#F8C8B4"/>
<path d="M19.9034 42.6982C19.9038 42.7066 19.8109 42.7102 19.6674 42.7493C19.5229 42.7844 19.3318 42.8622 19.1132 42.9351C19.0038 42.9711 18.8963 42.9986 18.7963 43.012C18.6963 43.0248 18.6078 43.0293 18.5345 43.0404C18.4616 43.0511 18.4038 43.0675 18.3692 43.0871C18.3336 43.1062 18.3203 43.1257 18.3167 43.1235C18.3145 43.1226 18.3234 43.0982 18.3589 43.072C18.3941 43.0453 18.4541 43.0231 18.5287 43.008C18.6034 42.9924 18.6932 42.9844 18.7896 42.9697C18.8861 42.9542 18.9901 42.9262 19.0985 42.8906C19.3141 42.8186 19.5101 42.7448 19.6594 42.7173C19.7336 42.7017 19.7949 42.696 19.8372 42.6942C19.8798 42.6937 19.9034 42.6951 19.9034 42.6982Z" fill="#E0B5A6"/>
<path d="M19.53 42.3266C19.5308 42.3297 19.4975 42.3417 19.4366 42.3604C19.3757 42.3791 19.2873 42.4044 19.178 42.4351C19.0646 42.4662 18.9353 42.5013 18.7931 42.5404C18.6491 42.5813 18.4922 42.6324 18.3264 42.6831C18.1602 42.7337 18.0002 42.7777 17.8517 42.8075C17.7037 42.8395 17.566 42.8448 17.4571 42.8666C17.3482 42.888 17.2668 42.9337 17.2291 42.9817C17.19 43.0293 17.1922 43.0684 17.1873 43.0671C17.186 43.0671 17.1846 43.0582 17.1864 43.0408C17.1882 43.024 17.1953 42.9982 17.2144 42.9706C17.2513 42.9142 17.3371 42.8604 17.45 42.8342C17.5637 42.8071 17.6975 42.7991 17.8428 42.7653C17.9886 42.7333 18.1468 42.6888 18.3126 42.6382C18.4784 42.588 18.6357 42.5382 18.7815 42.4991C18.9246 42.464 19.0553 42.4315 19.1691 42.4035C19.2797 42.3773 19.3695 42.3564 19.4317 42.3435C19.494 42.3293 19.5291 42.3235 19.53 42.3266Z" fill="#E0B5A6"/>
<path d="M19.2005 42.0861C19.2009 42.0893 19.1663 42.0986 19.1036 42.1133C19.0307 42.1301 18.9423 42.1501 18.8374 42.1741C18.6125 42.2244 18.3058 42.3061 17.9725 42.4181C17.6392 42.5288 17.34 42.6395 17.1227 42.7164C17.0143 42.755 16.9258 42.7857 16.8645 42.8057C16.8032 42.8257 16.7685 42.8355 16.7676 42.8324C16.7667 42.8293 16.7987 42.8141 16.8583 42.7888C16.9276 42.7604 17.012 42.7261 17.1112 42.6853C17.3258 42.6004 17.6232 42.4848 17.9578 42.3737C18.292 42.2613 18.6032 42.1835 18.8303 42.1417C18.9436 42.1199 19.036 42.1044 19.1 42.095C19.164 42.0857 19.2 42.0826 19.2005 42.0861Z" fill="#E0B5A6"/>
<path d="M18.116 28.1641C18.116 28.1641 19.5898 27.0485 20.068 26.989C20.5462 26.9294 21.9404 27.3872 21.9404 27.3872L23.7142 27.3699L24.5231 26.7783C24.5231 26.7783 26.8235 27.1117 28.2422 27.5348L29.3386 28.3703C29.0409 28.2845 32.5089 29.3085 32.5458 29.3197L28.2142 38.9797L28.6186 41.4001L17.3018 41.4885C17.3018 41.4885 18.8315 39.7845 19.1102 38.669C19.1102 38.669 19.0915 34.0201 18.3746 32.4663L18.116 28.1641Z" fill="#E46F6F"/>
<path d="M19.6244 27.652L14.8204 26.9298L9.61328 21.8516L7.11328 24.4613C7.11328 24.4613 11.0071 29.228 12.5408 30.204C14.0746 31.18 18.7288 32.4156 18.7288 32.4156L21.5542 30.4591L19.6244 27.652Z" fill="#E46F6F"/>
<path d="M28.3477 27.4614L24.4792 27.1045C24.4792 27.1045 24.2997 30.524 24.3166 32.0067C24.3366 33.7467 24.7299 38.8049 24.7299 38.8049C24.7299 38.8049 26.0214 36.8312 26.9254 34.5378C27.8294 32.244 28.4526 28.5618 28.4526 28.5618L28.3477 27.4614Z" fill="#FBFBFB"/>
<path d="M24.6393 39.5734C24.6246 39.5881 24.5286 39.4121 24.3824 39.0921C24.2357 38.7707 24.0348 38.3009 23.8064 37.7121C23.5793 37.1232 23.3215 36.4161 23.0846 35.6147C22.9673 35.2138 22.8548 34.7894 22.7717 34.3418C22.6931 33.8938 22.6215 33.4294 22.5539 32.9525C22.4206 32.0072 22.3131 31.1036 22.2273 30.2854L22.2246 30.2587L22.2513 30.2618C22.4913 30.2894 22.7228 30.3161 22.9464 30.3414L22.9295 30.3761C22.7237 30.1681 22.5291 29.9712 22.3455 29.7854L22.3357 29.7752L22.3428 29.7627C22.7588 29.0325 23.0997 28.4343 23.3384 28.0156C23.4571 27.8098 23.5499 27.6485 23.6148 27.5361C23.6459 27.4827 23.6704 27.4414 23.6882 27.4112C23.7051 27.3832 23.7148 27.3694 23.7148 27.3694C23.7148 27.3694 23.7082 27.3849 23.6931 27.4138C23.6766 27.4445 23.6535 27.4872 23.6242 27.5414C23.5615 27.6547 23.4713 27.8178 23.3566 28.0258C23.1215 28.4463 22.7851 29.0476 22.3753 29.7809L22.3722 29.7587C22.5566 29.9436 22.7522 30.1396 22.9588 30.3467L23.0002 30.3881L22.9419 30.3814C22.7184 30.3565 22.4868 30.3307 22.2468 30.3041L22.2708 30.2805C22.3588 31.0978 22.4677 32.0009 22.6011 32.9454C22.6686 33.4218 22.7402 33.8867 22.8179 34.3329C22.9002 34.7783 23.0113 35.2018 23.1273 35.6023C23.3611 36.4023 23.6153 37.1098 23.8384 37.6996C24.0624 38.2894 24.2584 38.7609 24.4002 39.0841C24.5402 39.4067 24.6295 39.5836 24.6393 39.5734Z" fill="#B24B4B"/>
<path d="M24.6153 39.6529C24.6148 39.6525 24.6219 39.6422 24.637 39.6227C24.6535 39.6014 24.6757 39.5729 24.7041 39.5365C24.765 39.4596 24.8526 39.3489 24.9641 39.208C25.1917 38.9209 25.5184 38.5085 25.921 38C26.3233 37.4885 26.8015 36.8791 27.3206 36.1938C27.5801 35.8511 27.8499 35.4889 28.1197 35.1071C28.2548 34.916 28.3864 34.7187 28.4997 34.5067C28.6148 34.2956 28.7166 34.0729 28.809 33.8431C29.0277 33.2965 29.1873 32.7445 29.3139 32.212C29.4379 31.6787 29.5335 31.164 29.597 30.6805L29.6179 30.7036C29.2708 30.7027 28.9419 30.7022 28.6326 30.7014H28.5553L28.6237 30.6658C28.9855 30.4782 29.3161 30.3071 29.6108 30.1547L29.6028 30.1707C29.5268 29.6049 29.4633 29.1542 29.4179 28.8449C29.3944 28.6925 29.3761 28.5738 29.3633 28.4907C29.3561 28.4525 29.3508 28.4222 29.3468 28.3996C29.3415 28.3796 29.3393 28.3694 29.3401 28.3689C29.341 28.3685 29.3446 28.3782 29.3513 28.3987C29.3566 28.4187 29.3641 28.4489 29.3721 28.4889C29.3886 28.5689 29.4095 28.6876 29.4353 28.8422C29.4859 29.1507 29.5539 29.6009 29.6344 30.1662L29.6357 30.1769L29.6259 30.1822C29.3326 30.3365 29.0028 30.5098 28.6419 30.6991L28.633 30.6636C28.9424 30.6631 29.2717 30.6622 29.6184 30.6614H29.6419L29.6388 30.6849C29.5766 31.1711 29.4824 31.6867 29.3588 32.2218C29.2326 32.756 29.073 33.3102 28.853 33.86C28.7601 34.0911 28.6575 34.3151 28.5415 34.528C28.4268 34.7418 28.2935 34.9422 28.1579 35.1325C27.8868 35.5147 27.6166 35.8765 27.3557 36.2191C26.8339 36.9036 26.353 37.5111 25.9477 38.02C25.5419 38.5285 25.2099 38.9374 24.9793 39.2187C24.8646 39.3574 24.7748 39.4658 24.7121 39.5418C24.6824 39.5769 24.6588 39.6045 24.6415 39.6249C24.6246 39.6445 24.6161 39.6538 24.6153 39.6529Z" fill="#B24B4B"/>
<path d="M20.0002 27.4613C20.0016 27.4609 20.0074 27.4746 20.0167 27.5013C20.0274 27.5333 20.0402 27.572 20.0558 27.6191C20.0731 27.6702 20.0922 27.7333 20.1087 27.808C20.126 27.8826 20.15 27.9666 20.1642 28.0618C20.1816 28.1564 20.1998 28.2604 20.2096 28.3738C20.2251 28.4862 20.2287 28.6075 20.2349 28.7346C20.2398 28.9898 20.226 29.2706 20.1816 29.5618C20.134 29.8524 20.0607 30.124 19.9776 30.3653C19.9322 30.4844 19.8914 30.5986 19.842 30.7009C19.7976 30.8053 19.7487 30.8986 19.7029 30.9835C19.6598 31.0698 19.6114 31.1426 19.5722 31.208C19.5336 31.2738 19.4958 31.328 19.4638 31.3711C19.4345 31.4106 19.4105 31.4435 19.3905 31.4711C19.3731 31.4938 19.3638 31.5049 19.3625 31.504C19.3611 31.5031 19.3682 31.4898 19.3829 31.4658C19.4007 31.4373 19.4225 31.4026 19.4487 31.3613C19.4785 31.3169 19.5136 31.2613 19.55 31.1946C19.5869 31.1284 19.6331 31.0551 19.674 30.9684C19.7176 30.8831 19.7647 30.7898 19.8069 30.6853C19.8545 30.5831 19.8931 30.4698 19.9371 30.3511C20.0171 30.1115 20.0882 29.8422 20.1354 29.5546C20.1794 29.2662 20.194 28.9884 20.1918 28.736C20.1865 28.6098 20.1847 28.4898 20.1709 28.3778C20.1625 28.2658 20.1465 28.1622 20.1314 28.0675C20.1194 27.9724 20.098 27.8884 20.0829 27.8138C20.0687 27.7391 20.0522 27.6755 20.0376 27.624C20.0256 27.5764 20.0154 27.5369 20.0074 27.5044C20.0016 27.4764 19.9989 27.4618 20.0002 27.4613Z" fill="#B24B4B"/>
<path d="M14.5192 29.212C14.5063 29.2103 14.5703 28.7005 14.6619 28.0738C14.7535 27.4467 14.8379 26.94 14.8508 26.9423C14.8637 26.944 14.7997 27.4538 14.7081 28.0809C14.6166 28.7072 14.5321 29.2138 14.5192 29.212Z" fill="#B24B4B"/>
<path d="M14.9114 28.9863C14.9056 28.9796 14.9896 28.9112 15.1003 28.7792C15.1563 28.7138 15.2159 28.6298 15.2745 28.533C15.3314 28.4347 15.3865 28.3223 15.431 28.1987C15.4741 28.0747 15.5021 27.953 15.5194 27.8405C15.535 27.7281 15.5412 27.6254 15.539 27.5392C15.5359 27.3667 15.5136 27.261 15.5225 27.2592C15.5256 27.2583 15.5332 27.2845 15.5443 27.3321C15.5563 27.3796 15.5665 27.4503 15.5723 27.5378C15.579 27.6254 15.5759 27.7307 15.5625 27.8463C15.547 27.9614 15.5194 28.0872 15.4754 28.2143C15.4296 28.341 15.3723 28.4556 15.3119 28.5552C15.2496 28.6534 15.1856 28.737 15.1256 28.801C15.0661 28.8654 15.0136 28.9138 14.9745 28.9432C14.9354 28.9734 14.9136 28.9885 14.9114 28.9863Z" fill="#B24B4B"/>
<path d="M7.32993 24.2134L6.94727 23.7476L8.92771 21.6663L9.36282 22.1098L7.32993 24.2134Z" fill="#EBEBEB"/>
<path d="M19.2433 30.2441C19.2464 30.2449 19.2406 30.2747 19.2268 30.3281C19.2135 30.3814 19.1921 30.4578 19.1637 30.5516C19.1073 30.7396 19.0219 30.9969 18.9153 31.2769C18.8081 31.5569 18.7006 31.8058 18.6175 31.9836C18.5761 32.0725 18.541 32.1436 18.5153 32.1925C18.4899 32.2409 18.4744 32.2672 18.4713 32.2658C18.465 32.2632 18.5117 32.1512 18.5868 31.9703C18.6619 31.7894 18.7646 31.5392 18.8713 31.2605C18.9775 30.9814 19.0677 30.7267 19.1321 30.5418C19.197 30.3565 19.237 30.2418 19.2433 30.2441Z" fill="#B24B4B"/>
<path d="M28.1773 29.9943C28.1782 29.9957 28.1626 30.009 28.132 30.0334C28.0968 30.0605 28.052 30.0957 27.996 30.1388C27.872 30.2325 27.7 30.3619 27.4884 30.5214L27.4742 30.5321L27.4644 30.5165C27.2537 30.1819 26.9808 29.749 26.6768 29.2654L26.7133 29.269C26.5928 29.3983 26.4675 29.5325 26.3395 29.6699C26.0057 30.0259 25.6915 30.361 25.4195 30.6508L25.4048 30.6668L25.3897 30.6512C25.0702 30.3228 24.8013 30.0468 24.6075 29.8477C24.5168 29.7525 24.4435 29.6757 24.3897 29.6188C24.34 29.5654 24.3137 29.5361 24.3155 29.5343C24.3173 29.5325 24.3462 29.5588 24.3991 29.6094C24.4555 29.6641 24.5311 29.7383 24.6253 29.8299C24.8217 30.0259 25.0951 30.2979 25.4195 30.6214L25.3897 30.6219C25.6604 30.3308 25.9737 29.9943 26.3057 29.6374C26.4342 29.5005 26.5595 29.3663 26.68 29.2374L26.7004 29.2152L26.7164 29.241C27.0164 29.7268 27.2853 30.1623 27.4933 30.4988L27.4693 30.4943C27.6844 30.3397 27.8595 30.2143 27.9857 30.1237C28.044 30.0832 28.0906 30.0503 28.1271 30.0254C28.1586 30.0041 28.1764 29.993 28.1773 29.9943Z" fill="#B24B4B"/>
<path d="M24.6526 39.6241C24.6473 39.6361 24.0437 39.3743 23.305 39.0396C22.5659 38.7049 21.9713 38.4241 21.9766 38.4125C21.9819 38.4005 22.585 38.6623 23.3242 38.9969C24.0633 39.3316 24.6579 39.6125 24.6526 39.6241Z" fill="#B24B4B"/>
<path d="M26.3072 39.5578C26.3077 39.5707 25.3552 39.6187 24.1801 39.6649C23.0046 39.7111 22.0512 39.7382 22.0508 39.7249C22.0503 39.712 23.0028 39.664 24.1783 39.6178C25.3534 39.572 26.3068 39.5449 26.3072 39.5578Z" fill="#B24B4B"/>
<path d="M32.8954 35.3755C32.8385 35.7333 31.6234 41.1178 31.3705 41.396C31.1176 41.6742 22.1616 43.2933 22.1616 43.2933L21.627 40.7991C21.7283 40.7738 28.0225 39.2644 28.0225 39.2644C28.0225 39.2644 27.9754 38.8849 28.203 38.8049C28.4305 38.7249 30.4843 32.3644 30.4843 32.3644L32.5447 29.3191C32.5447 29.3191 33.6367 29.9924 33.0625 32.2662C33.0634 32.2658 33.1936 33.5018 32.8954 35.3755Z" fill="#E46F6F"/>
<path d="M31.5459 31.504C31.5459 31.504 31.5415 31.5174 31.5313 31.5422C31.5201 31.5685 31.505 31.6058 31.485 31.6542C31.4428 31.7538 31.381 31.8987 31.3015 32.0871C31.1379 32.4654 30.9001 33.0156 30.6001 33.7094C30.2975 34.4031 29.9304 35.24 29.505 36.1876C29.2921 36.6614 29.065 37.1627 28.8193 37.6854C28.6961 37.9467 28.569 38.2138 28.4299 38.4822C28.3948 38.5494 28.3593 38.6165 28.3206 38.6827C28.3006 38.716 28.2815 38.7489 28.2575 38.7814C28.2521 38.7894 28.2446 38.7974 28.2375 38.8058C28.2344 38.8125 28.2117 38.8258 28.2068 38.8276C28.1913 38.8351 28.1748 38.8409 28.1615 38.8525C28.1037 38.8925 28.073 38.964 28.0566 39.036C28.0415 39.1089 28.0384 39.1871 28.0459 39.2618L28.0477 39.2814L28.029 39.2858C26.5366 39.6445 24.8975 40.0382 23.1815 40.4507C22.6575 40.5765 22.1401 40.7005 21.6335 40.8218L21.6508 40.7942C21.8361 41.66 22.0148 42.4965 22.1841 43.2885L22.1584 43.2711C24.8504 42.7827 27.1615 42.344 28.7966 42.0125C29.6139 41.8467 30.2624 41.7067 30.7041 41.6C30.925 41.5467 31.0944 41.5014 31.2068 41.4654C31.2633 41.4476 31.3055 41.4316 31.3321 41.4187C31.3597 41.4067 31.3699 41.3947 31.3713 41.396C31.3713 41.396 31.3615 41.4089 31.3339 41.4222C31.3073 41.4365 31.265 41.4534 31.209 41.4729C31.097 41.5116 30.9281 41.5591 30.7077 41.6151C30.2668 41.7267 29.6188 41.8707 28.8024 42.0405C27.1686 42.3796 24.8584 42.824 22.1668 43.316L22.1455 43.32L22.141 43.2987C21.9708 42.5067 21.7917 41.6707 21.6055 40.8045L21.6006 40.7822L21.6228 40.7769C22.1295 40.6551 22.6464 40.5311 23.1708 40.4054C24.8868 39.9942 26.5259 39.6014 28.0188 39.2436L28.0024 39.2676C27.9944 39.1862 27.9979 39.1062 28.0144 39.0271C28.0321 38.9498 28.0655 38.8676 28.1361 38.8182C28.1526 38.8045 28.1726 38.7969 28.1913 38.788C28.1935 38.7871 28.1966 38.7849 28.1979 38.7858C28.1979 38.7836 28.1993 38.7836 28.1997 38.7827C28.201 38.7822 28.2033 38.7805 28.2064 38.7765C28.2117 38.7702 28.2175 38.7645 28.2228 38.7565C28.2446 38.7271 28.2641 38.6943 28.2833 38.6623C28.3215 38.5969 28.357 38.5302 28.3921 38.4636C28.5308 38.1965 28.6584 37.9298 28.7824 37.6689C29.029 37.1471 29.2575 36.6463 29.4717 36.1734C29.8997 35.2271 30.2699 34.392 30.5757 33.6996C30.8806 33.008 31.1224 32.4596 31.2886 32.0822C31.3713 31.8951 31.4348 31.7511 31.4788 31.6525C31.5001 31.6045 31.5166 31.568 31.5286 31.5422C31.5393 31.516 31.5459 31.504 31.5459 31.504Z" fill="#B24B4B"/>
<path d="M29.0102 39.8227C28.9996 39.8333 28.8218 39.6395 28.5427 39.4858C28.2645 39.3293 28.0062 39.2809 28.0098 39.2662C28.0107 39.2604 28.0765 39.2653 28.18 39.2911C28.2831 39.3164 28.4231 39.3658 28.5658 39.4449C28.708 39.524 28.824 39.6169 28.9 39.6911C28.9756 39.7653 29.0142 39.8187 29.0102 39.8227Z" fill="#B24B4B"/>
<path d="M29.5587 38.968C29.5542 38.9822 29.2591 38.8853 28.8814 38.8431C28.5036 38.7982 28.1943 38.8253 28.1934 38.8106C28.1929 38.8048 28.2694 38.7906 28.3951 38.7822C28.5205 38.7737 28.6956 38.7742 28.8867 38.7964C29.0778 38.8186 29.248 38.8582 29.3685 38.8946C29.4889 38.9311 29.5605 38.9626 29.5587 38.968Z" fill="#B24B4B"/>
<path d="M32.5456 29.7298C32.551 29.7333 32.5087 29.8058 32.4376 29.9204C32.3572 30.0498 32.263 30.2013 32.159 30.3684C32.0559 30.5364 31.9625 30.688 31.8825 30.8178C31.8114 30.9329 31.7661 31.0031 31.7603 30.9995C31.755 30.9964 31.7901 30.9204 31.8541 30.8009C31.9181 30.6813 32.0105 30.5191 32.1194 30.3431C32.2283 30.1675 32.3319 30.012 32.4105 29.9013C32.4879 29.792 32.5403 29.7262 32.5456 29.7298Z" fill="#B24B4B"/>
<path d="M24.5758 18.7191C25.6576 17.7111 27.0252 17.2818 28.4892 17.4893C29.3149 17.6062 30.4132 17.9347 30.5563 18.5956C30.5563 18.5956 30.9038 18.7973 31.3314 19.3969C31.7603 19.9987 32.0394 20.8236 32.0038 21.5618C31.9674 22.32 31.8256 23.3756 31.3447 24.0929C30.9221 24.7231 30.7754 25.2827 30.2389 25.8196L28.8238 25.712C27.7674 25.5813 26.1692 26.5356 25.1838 26.1338C24.1985 25.7316 23.4901 24.7031 23.2838 23.7044C22.9647 22.1604 23.6456 19.5862 24.5758 18.7191Z" fill="#441B13"/>
<path d="M29.4531 18.6161L28.9664 18.3694L26.2704 18.9752C25.9011 18.9356 25.5628 19.1849 25.4922 19.5498L24.6153 27.0543H24.4375L26.6886 29.3729L28.2993 28.1503L28.3535 27.5552C28.3535 27.5552 30.0762 27.6587 30.8202 25.7387C31.1899 24.7841 31.2015 23.0596 31.4033 21.7169C31.5855 20.5081 30.9428 18.8578 29.4531 18.6161Z" fill="#F8C8B4"/>
<path d="M30.2869 23.168C30.2625 23.3036 30.1278 23.3952 29.9856 23.3725C29.8438 23.3498 29.7482 23.2218 29.7722 23.0858C29.7967 22.9503 29.9314 22.8587 30.0731 22.8814C30.2154 22.904 30.3109 23.0325 30.2869 23.168Z" fill="#441B13"/>
<path d="M30.8799 22.5422C30.8412 22.5685 30.6785 22.384 30.4043 22.3258C30.131 22.2636 29.899 22.3614 29.8768 22.3214C29.8652 22.3031 29.9105 22.2502 30.0119 22.2054C30.1119 22.1605 30.2723 22.1302 30.443 22.1676C30.6136 22.2054 30.7439 22.2991 30.8128 22.3814C30.883 22.464 30.8985 22.5307 30.8799 22.5422Z" fill="#441B13"/>
<path d="M29.0078 24.2959C29.0101 24.2799 29.1869 24.2875 29.4709 24.3115C29.5425 24.3195 29.6118 24.3195 29.6341 24.2746C29.6616 24.2275 29.6483 24.1457 29.6318 24.0568C29.6025 23.8733 29.5718 23.6804 29.5394 23.4786C29.4154 22.6573 29.3416 21.9875 29.3745 21.9831C29.4078 21.9782 29.5354 22.6404 29.6594 23.4617C29.6883 23.6639 29.7163 23.8568 29.7421 24.0413C29.7514 24.1266 29.7776 24.2266 29.7189 24.3239C29.6887 24.3724 29.6292 24.3991 29.5816 24.4017C29.5336 24.4057 29.4941 24.3982 29.4589 24.3928C29.1781 24.3475 29.0056 24.3115 29.0078 24.2959Z" fill="#441B13"/>
<path d="M28.357 27.5533C28.357 27.5533 27.001 27.3516 25.8477 26.2698C25.8477 26.2698 26.2694 27.9076 28.2992 28.1502L28.357 27.5533Z" fill="#E0B5A6"/>
<path d="M30.8187 21.6693C30.7902 21.7511 30.5547 21.7804 30.3014 21.8858C30.0449 21.984 29.8525 22.1253 29.7774 22.0853C29.7431 22.0649 29.7516 21.9915 29.8209 21.896C29.8889 21.8013 30.0236 21.6898 30.1987 21.62C30.3738 21.5502 30.5467 21.5387 30.6605 21.5609C30.7747 21.5827 30.8302 21.6302 30.8187 21.6693Z" fill="#441B13"/>
<path d="M27.2554 22.8613C27.2265 22.9959 27.3171 23.1315 27.4571 23.1639C27.5971 23.1964 27.734 23.1142 27.7629 22.9791C27.7918 22.8444 27.7011 22.7088 27.5611 22.6759C27.4211 22.6439 27.2843 22.7266 27.2554 22.8613Z" fill="#441B13"/>
<path d="M27.2123 21.9907C27.2381 22.0298 27.4581 21.92 27.7346 21.9698C28.011 22.0151 28.1888 22.1934 28.2248 22.1649C28.2421 22.1525 28.2203 22.0862 28.1434 22.0067C28.0679 21.9271 27.9306 21.8387 27.7581 21.8094C27.5857 21.78 27.4297 21.8178 27.335 21.868C27.239 21.9174 27.1994 21.9729 27.2123 21.9907Z" fill="#441B13"/>
<path d="M27.6564 21.3832C27.651 21.4672 27.8519 21.5716 28.0399 21.7521C28.2337 21.9263 28.3532 22.1192 28.4359 22.1072C28.4746 22.0996 28.4946 22.0298 28.4679 21.9192C28.4421 21.8098 28.3635 21.6636 28.2324 21.5418C28.1012 21.4201 27.9501 21.3529 27.8395 21.3361C27.7284 21.3183 27.6608 21.3441 27.6564 21.3832Z" fill="#441B13"/>
<path d="M25.3017 22.9743C25.3333 22.8263 25.2373 22.44 25.0959 22.3858C24.7186 22.2409 24.0079 22.1205 23.7879 23.1107C23.487 24.464 24.9079 24.4871 24.919 24.4489C24.9275 24.4191 25.1928 23.4858 25.3017 22.9743Z" fill="#F8C8B4"/>
<path d="M24.6563 23.8715C24.6514 23.8657 24.6292 23.8826 24.5852 23.892C24.5421 23.9013 24.4727 23.8986 24.4078 23.8564C24.2767 23.772 24.2065 23.5182 24.2545 23.2728C24.2785 23.1488 24.3301 23.0373 24.3954 22.9497C24.459 22.86 24.5381 22.8048 24.6132 22.8084C24.6883 22.8075 24.7296 22.8622 24.7381 22.904C24.7478 22.9457 24.7332 22.9711 24.7398 22.9751C24.743 22.9795 24.7741 22.9591 24.7754 22.9004C24.7758 22.8724 24.767 22.8368 24.7412 22.8035C24.7145 22.7697 24.6701 22.7457 24.6185 22.74C24.5127 22.724 24.3972 22.7991 24.3256 22.8951C24.2483 22.9902 24.187 23.1151 24.1598 23.2542C24.1078 23.5288 24.1905 23.8151 24.3741 23.9151C24.4638 23.9608 24.5496 23.9502 24.5976 23.9271C24.6465 23.9035 24.6607 23.8751 24.6563 23.8715Z" fill="#E0B5A6"/>
<path d="M25.0403 22.3809L25.1154 22.4884C25.2421 22.6698 25.4768 22.7413 25.6825 22.6609C31.1719 20.5231 30.2514 19.5173 30.5568 18.5956C30.5568 18.5956 29.4012 18.072 28.2559 18.0853C27.1105 18.0982 24.907 18.3209 24.731 19.6413C24.5545 20.9618 25.0403 22.3809 25.0403 22.3809Z" fill="#441B13"/>
<path d="M27.7367 24.9263C27.77 24.8143 27.8496 24.7232 27.942 24.6663C28.1265 24.553 28.3936 24.6987 28.5482 24.8459C28.7029 24.9934 29.0074 25.0552 28.6665 25.3565C28.5762 25.5076 28.3776 25.6099 28.2105 25.5979C28.1842 25.5961 28.1585 25.593 28.1327 25.5881C28.0078 25.565 27.894 25.4347 27.8127 25.3272C27.7318 25.2201 27.6958 25.0645 27.7367 24.9263Z" fill="#E0B5A6"/>
<path d="M28.4255 25.564C28.4264 25.5663 28.3935 25.584 28.3278 25.5969C28.2624 25.6094 28.1615 25.6125 28.0469 25.5729C27.934 25.5347 27.8042 25.4445 27.7353 25.296C27.666 25.1516 27.6522 24.956 27.7402 24.7876C27.7838 24.7049 27.8509 24.6329 27.9371 24.5987C28.0238 24.5663 28.1135 24.572 28.1918 24.5969C28.3429 24.6547 28.4562 24.7432 28.5455 24.8205C28.6344 24.8987 28.702 24.9649 28.7535 25.0049C28.8046 25.0454 28.8375 25.0605 28.8358 25.0645C28.8349 25.0667 28.7984 25.0569 28.7429 25.02C28.6864 24.984 28.6149 24.9205 28.5242 24.8463C28.434 24.7734 28.3198 24.6898 28.1784 24.6383C28.1091 24.6169 28.0264 24.6138 27.9544 24.6418C27.882 24.6712 27.8215 24.7343 27.7824 24.8098C27.7024 24.9627 27.7131 25.1436 27.7753 25.2783C27.8366 25.416 27.9535 25.5023 28.0589 25.5427C28.166 25.584 28.262 25.5867 28.3255 25.5796C28.3895 25.572 28.4242 25.56 28.4255 25.564Z" fill="#441B13"/>
<path d="M27.7017 23.6306C27.6692 23.7799 27.3746 23.8431 27.0439 23.7711C26.7132 23.6991 26.4715 23.5195 26.5039 23.3702C26.5363 23.2208 26.831 23.1577 27.1617 23.2297C27.4923 23.3017 27.7341 23.4813 27.7017 23.6306Z" fill="#F5B2A8"/>
<path d="M30.3805 24.148C30.719 24.148 30.9934 24.024 30.9934 23.8711C30.9934 23.7182 30.719 23.5942 30.3805 23.5942C30.042 23.5942 29.7676 23.7182 29.7676 23.8711C29.7676 24.024 30.042 24.148 30.3805 24.148Z" fill="#F5B2A8"/>
<path d="M28.543 21.4853C28.9221 21.7164 29.2461 21.7898 29.6656 21.6435C30.0314 21.516 30.423 21.1769 30.8101 21.1622C30.9634 21.1564 31.139 21.2427 31.2345 21.1018C31.2607 21.0631 31.2741 21.0169 31.2772 20.9707C31.2852 20.8444 31.2256 20.5827 31.1603 20.3893C31.0603 20.0915 31.0207 20.0333 30.8412 19.7844C30.7856 19.7071 30.6727 19.6987 30.6052 19.7658C30.3132 20.056 30.0167 20.4538 29.7363 20.7195C29.3363 21.0991 28.9807 21.4369 28.543 21.4853Z" fill="#F5B2A8"/>
<path d="M41.2943 43.6716H30.4756L32.3631 35.8565C32.4218 35.6142 32.6294 35.4445 32.8676 35.4445H42.6129C42.952 35.4445 43.2005 35.78 43.1174 36.1253L41.2943 43.6716Z" fill="#C99494"/>
<path d="M41.2946 43.6716C41.2946 43.6716 41.3012 43.6378 41.3159 43.5743C41.331 43.5098 41.3532 43.4156 41.3821 43.2925C41.4412 43.0445 41.5274 42.6805 41.639 42.2121C41.863 41.2752 42.187 39.9218 42.5874 38.2489C42.6879 37.8312 42.7928 37.3934 42.9026 36.9374C42.9572 36.7094 43.0132 36.477 43.0701 36.2396C43.0839 36.1805 43.1003 36.1205 43.1092 36.0623C43.1154 36.0032 43.1154 35.9427 43.1034 35.8836C43.0799 35.7658 43.0168 35.6547 42.9226 35.5769C42.8283 35.4987 42.7066 35.4574 42.5803 35.4636C42.4519 35.4636 42.3221 35.4636 42.1914 35.4641C41.9301 35.4641 41.6643 35.4645 41.395 35.4645C40.8559 35.465 40.3012 35.4649 39.7323 35.4654C38.5946 35.4658 37.4003 35.4663 36.1621 35.4667C35.543 35.4667 34.9132 35.4672 34.2737 35.4672C33.9541 35.4672 33.6319 35.4672 33.3079 35.4672C33.147 35.4681 32.9808 35.465 32.8226 35.4694C32.667 35.4832 32.5234 35.5801 32.4448 35.7165C32.3972 35.7916 32.3821 35.8805 32.3599 35.9707C32.3381 36.0601 32.3168 36.1494 32.2954 36.2383C32.2523 36.4165 32.2097 36.5938 32.167 36.7707C32.0817 37.1241 31.9968 37.4752 31.9128 37.8227C31.7448 38.5183 31.5794 39.2014 31.4181 39.8694C31.095 41.2054 30.7861 42.4818 30.4968 43.6765L30.4763 43.6503C33.6812 43.6543 36.3834 43.6578 38.2857 43.6601C39.2372 43.6627 39.9883 43.6645 40.503 43.6658C40.7594 43.6672 40.9568 43.6681 41.0914 43.6685C41.1577 43.6689 41.2083 43.6694 41.243 43.6698C41.2768 43.6707 41.2946 43.6716 41.2946 43.6716C41.2946 43.6716 41.2781 43.6725 41.2448 43.673C41.2101 43.6734 41.1603 43.6738 41.095 43.6743C40.9617 43.6747 40.7652 43.6756 40.5101 43.6769C39.9963 43.6783 39.2465 43.6801 38.2968 43.6827C36.3919 43.685 33.6852 43.6885 30.4759 43.6925H30.4492L30.4554 43.6663C30.7434 42.4716 31.051 41.1952 31.3732 39.8587C31.5346 39.1907 31.6994 38.5072 31.867 37.8121C31.951 37.4645 32.0354 37.1134 32.1208 36.7601C32.1634 36.5832 32.2061 36.4058 32.2492 36.2276C32.2706 36.1387 32.2923 36.0494 32.3137 35.9601C32.3354 35.8729 32.3519 35.7761 32.4039 35.693C32.4892 35.5445 32.6461 35.4383 32.8177 35.4227C32.9852 35.4178 33.1448 35.4214 33.3074 35.4201C33.6314 35.4201 33.9537 35.4201 34.2732 35.4201C34.9128 35.4201 35.5426 35.4205 36.1617 35.4205C37.3999 35.421 38.5941 35.4214 39.7319 35.4218C40.3008 35.4223 40.8554 35.4223 41.3946 35.4227C41.6639 35.4227 41.9297 35.4232 42.191 35.4232C42.3217 35.4232 42.4514 35.4232 42.5799 35.4236C42.711 35.4165 42.8474 35.4618 42.947 35.5467C43.0479 35.6312 43.1154 35.7498 43.1403 35.8761C43.1532 35.9392 43.1532 36.0036 43.1461 36.0672C43.1359 36.1307 43.1199 36.1889 43.1057 36.2489C43.0479 36.4867 42.9914 36.7196 42.9359 36.9481C42.8248 37.405 42.7186 37.8436 42.6168 38.2623C42.2092 39.9347 41.8794 41.2881 41.651 42.2245C41.5368 42.6903 41.4479 43.0525 41.3874 43.2992C41.3572 43.4209 41.3341 43.5138 41.3181 43.5778C41.3034 43.6405 41.2946 43.6716 41.2946 43.6716Z" fill="#AE8181"/>
<path d="M30.5747 43.2903H26.9676C26.7179 43.2903 26.5156 43.4925 26.5156 43.7423L26.5107 43.6676H41.2894L41.3867 43.2903" fill="#C99494"/>
<path d="M41.3861 43.2903C41.3866 43.2903 41.3853 43.2979 41.3817 43.3134C41.3777 43.3303 41.3724 43.353 41.3653 43.3828C41.3497 43.4468 41.3261 43.541 41.2946 43.6694L41.2933 43.6739H41.2884C40.1879 43.6836 36.3977 43.6912 31.8986 43.6912C29.9066 43.6899 28.0541 43.6885 26.5097 43.6872L26.5293 43.6663C26.531 43.6921 26.5328 43.7165 26.5341 43.741L26.4955 43.7423C26.495 43.5717 26.5933 43.4108 26.7359 43.3325C26.8066 43.2925 26.8866 43.273 26.9657 43.2721C27.0417 43.2721 27.1168 43.2725 27.1906 43.2725C27.4866 43.2734 27.767 43.2739 28.0306 43.2743C28.5568 43.2761 29.015 43.2774 29.3924 43.2788C29.7679 43.281 30.0626 43.2828 30.2657 43.2841C30.3648 43.2854 30.4417 43.2863 30.4955 43.2868C30.5475 43.2877 30.5741 43.2899 30.5741 43.2899C30.5741 43.2899 30.5475 43.2921 30.4955 43.293C30.4417 43.2934 30.3653 43.2948 30.2657 43.2957C30.0626 43.297 29.7675 43.2988 29.3924 43.301C29.015 43.3023 28.5568 43.3037 28.0306 43.3054C27.767 43.3059 27.4866 43.3068 27.1906 43.3072C27.043 43.313 26.8848 43.2845 26.7541 43.3641C26.623 43.4365 26.5337 43.5845 26.5346 43.7414L26.4959 43.7428C26.4941 43.7183 26.4924 43.6943 26.4906 43.6681L26.4893 43.6472H26.5101C28.0541 43.6459 29.907 43.6445 31.899 43.6432C36.3981 43.6432 40.1884 43.6503 41.2888 43.6605L41.2826 43.6654C41.3168 43.5374 41.3421 43.4436 41.359 43.3801C41.3675 43.3503 41.3737 43.3281 41.3781 43.3117C41.3835 43.2974 41.3857 43.2903 41.3861 43.2903Z" fill="#AE8181"/>
<path d="M36.6096 39.3805C36.4194 39.6814 36.5091 40.0796 36.81 40.2698C37.1109 40.4601 37.5091 40.3703 37.6993 40.0694C37.8896 39.7685 37.7998 39.3703 37.4989 39.1801C37.198 38.9903 36.7998 39.0796 36.6096 39.3805Z" fill="white"/>
<path d="M32.8473 35.5094C32.8482 35.5094 32.8473 35.517 32.8451 35.5312C32.842 35.5481 32.8384 35.5685 32.8344 35.5939C32.8233 35.6525 32.8078 35.7325 32.7882 35.8334C32.7446 36.045 32.6829 36.3441 32.6073 36.7121C32.4509 37.453 32.2269 38.4752 31.9615 39.6001C31.6958 40.725 31.4384 41.7396 31.2442 42.4716C31.1473 42.8379 31.0669 43.1334 31.0091 43.3374C30.9806 43.4361 30.9584 43.5143 30.942 43.5721C30.9344 43.5965 30.9282 43.6165 30.9233 43.6325C30.9189 43.6463 30.9162 43.653 30.9153 43.653C30.9144 43.653 30.9158 43.6454 30.9184 43.6316C30.9224 43.6152 30.9269 43.5948 30.9326 43.5699C30.9469 43.5121 30.9664 43.433 30.9913 43.333C31.0442 43.1236 31.1193 42.8276 31.2118 42.4636C31.3975 41.7299 31.65 40.7143 31.9153 39.5899C32.1806 38.4654 32.41 37.445 32.5744 36.7059C32.6562 36.3392 32.7229 36.0414 32.77 35.8308C32.7931 35.7308 32.8113 35.6512 32.8246 35.593C32.8309 35.5681 32.8358 35.5481 32.8402 35.5312C32.8442 35.5161 32.8464 35.509 32.8473 35.5094Z" fill="#AE8181"/>
<path d="M33.582 19.0085H33.51C33.4593 19.0085 33.418 18.9671 33.418 18.9165V18.0302C33.418 17.9796 33.4593 17.9382 33.51 17.9382H33.582C33.6326 17.9382 33.674 17.9796 33.674 18.0302V18.9165C33.674 18.9671 33.6326 19.0085 33.582 19.0085Z" fill="#C68B8C"/>
<path d="M34.0439 18.4276V18.5187C34.0439 18.5694 34.0025 18.6107 33.9519 18.6107H33.1399C33.0892 18.6107 33.0479 18.5694 33.0479 18.5187V18.4276C33.0479 18.3769 33.0892 18.3356 33.1399 18.3356H33.9519C34.0025 18.3356 34.0439 18.3769 34.0439 18.4276Z" fill="#C68B8C"/>
<path d="M36.9863 26.1022H36.9143C36.8636 26.1022 36.8223 26.0609 36.8223 26.0102V25.124C36.8223 25.0733 36.8636 25.032 36.9143 25.032H36.9863C37.0369 25.032 37.0783 25.0733 37.0783 25.124V26.0102C37.0783 26.0609 37.0369 26.1022 36.9863 26.1022Z" fill="#C68B8C"/>
<path d="M37.4481 25.5213V25.6124C37.4481 25.6631 37.4068 25.7044 37.3561 25.7044H36.5441C36.4935 25.7044 36.4521 25.6631 36.4521 25.6124V25.5213C36.4521 25.4707 36.4935 25.4293 36.5441 25.4293H37.3561C37.4068 25.4293 37.4481 25.4707 37.4481 25.5213Z" fill="#C68B8C"/>
<path d="M17.0255 21.6502H16.9406C16.89 21.6502 16.8486 21.6089 16.8486 21.5582V20.6182C16.8486 20.5676 16.89 20.5262 16.9406 20.5262H17.0255C17.0762 20.5262 17.1175 20.5676 17.1175 20.6182V21.5582C17.1175 21.6089 17.0762 21.6502 17.0255 21.6502Z" fill="#C68B8C"/>
<path d="M17.5057 21.0356V21.1405C17.5057 21.1912 17.4644 21.2325 17.4137 21.2325H16.552C16.5013 21.2325 16.46 21.1912 16.46 21.1405V21.0356C16.46 20.9849 16.5013 20.9436 16.552 20.9436H17.4137C17.4644 20.9436 17.5057 20.9849 17.5057 21.0356Z" fill="#C68B8C"/>
<path d="M22.5522 19.6076H22.4615C22.4073 19.6076 22.3633 19.5636 22.3633 19.5094V18.5058C22.3633 18.4516 22.4073 18.4076 22.4615 18.4076H22.5522C22.6064 18.4076 22.6504 18.4516 22.6504 18.5058V19.5094C22.6504 19.5636 22.6059 19.6076 22.5522 19.6076Z" fill="#C68B8C"/>
<path d="M23.0647 18.9516V19.0636C23.0647 19.1178 23.0207 19.1618 22.9665 19.1618H22.0465C21.9922 19.1618 21.9482 19.1178 21.9482 19.0636V18.9516C21.9482 18.8974 21.9922 18.8534 22.0465 18.8534H22.9665C23.0202 18.8534 23.0647 18.8978 23.0647 18.9516Z" fill="#C68B8C"/>
<path d="M37.2073 19.4391H37.1304C37.0762 19.4391 37.0322 19.3951 37.0322 19.3408V18.3946C37.0322 18.3404 37.0762 18.2964 37.1304 18.2964H37.2073C37.2616 18.2964 37.3056 18.3404 37.3056 18.3946V19.3408C37.3056 19.3946 37.2611 19.4391 37.2073 19.4391Z" fill="#C68B8C"/>
<path d="M37.6998 18.819V18.9164C37.6998 18.9706 37.6558 19.0146 37.6016 19.0146H36.7349C36.6807 19.0146 36.6367 18.9706 36.6367 18.9164V18.819C36.6367 18.7648 36.6807 18.7208 36.7349 18.7208H37.6016C37.6558 18.7208 37.6998 18.7648 37.6998 18.819Z" fill="#C68B8C"/>
<path d="M20.3126 13.7168C20.4917 14.2182 20.7108 14.7013 20.9748 15.1573C21.0655 15.3142 21.2615 15.3044 21.3539 15.1573C21.4104 15.068 21.4664 14.9782 21.5228 14.8888C21.5495 14.8462 21.5766 14.8035 21.6032 14.7608C21.6166 14.7395 21.6299 14.7182 21.6437 14.6968C21.649 14.6884 21.6544 14.68 21.6597 14.6711C21.7046 14.608 21.6699 14.624 21.5561 14.7182C21.5192 14.7075 21.4824 14.6968 21.4455 14.6862C21.4388 14.6822 21.4206 14.6537 21.4148 14.6537C21.4197 14.6537 21.4415 14.7013 21.445 14.7071C21.465 14.7426 21.485 14.7782 21.505 14.8137C21.545 14.8848 21.585 14.9564 21.6255 15.0275C21.7081 15.1746 21.7908 15.3213 21.8735 15.4684C22.0366 15.7577 22.1992 16.0471 22.3624 16.3368C22.4237 16.4457 22.5592 16.4866 22.6628 16.4213C22.7641 16.3577 22.8032 16.208 22.7415 16.0986C22.4908 15.6533 22.2401 15.208 21.9895 14.7631C21.9295 14.6564 21.8699 14.5488 21.809 14.4426C21.7241 14.2942 21.5757 14.184 21.4126 14.2822C21.3104 14.344 21.2481 14.4857 21.1841 14.5871C21.1144 14.6977 21.0446 14.8088 20.9748 14.9195C21.101 14.9195 21.2272 14.9195 21.3539 14.9195C21.1099 14.4973 20.8992 14.0484 20.7361 13.5915C20.6935 13.4728 20.5886 13.3906 20.4664 13.4266C20.3601 13.4582 20.2699 13.5973 20.3126 13.7168Z" fill="#C68B8C"/>
<path d="M35.7349 19.7725C35.2612 19.8205 34.7932 19.9134 34.3363 20.0565C34.1794 20.1058 34.1376 20.3014 34.2394 20.4298C34.3012 20.508 34.3634 20.5867 34.4252 20.6649C34.4545 20.7023 34.4843 20.7396 34.5136 20.7769C34.5283 20.7956 34.5429 20.8143 34.5581 20.8329C34.5638 20.8405 34.5701 20.848 34.5758 20.8551C34.6181 20.9151 34.6136 20.8774 34.5621 20.7409C34.5807 20.7071 34.5994 20.6738 34.6181 20.64C34.6229 20.6343 34.6523 20.624 34.6536 20.6183C34.6523 20.6231 34.6065 20.6325 34.6003 20.6343C34.5647 20.6449 34.5292 20.6556 34.4936 20.6663C34.4225 20.6876 34.3514 20.7089 34.2803 20.7303C34.1336 20.7743 33.9874 20.8183 33.8407 20.8618C33.5523 20.9485 33.2634 21.0347 32.9749 21.1214C32.8665 21.1538 32.7967 21.2769 32.8261 21.3956C32.8545 21.512 32.9723 21.5885 33.0812 21.556C33.5252 21.4231 33.9692 21.2898 34.4136 21.1569C34.5203 21.1249 34.6269 21.0938 34.7332 21.0609C34.8816 21.0151 35.0136 20.8974 34.9718 20.7116C34.9456 20.5951 34.8403 20.4974 34.7701 20.4085C34.6932 20.3116 34.6167 20.2143 34.5398 20.1174C34.5074 20.2418 34.4749 20.3663 34.4429 20.4907C34.8656 20.3583 35.3029 20.2654 35.7341 20.2218C35.8465 20.2103 35.9434 20.1276 35.9438 19.9978C35.9438 19.8858 35.8478 19.7609 35.7349 19.7725Z" fill="#C68B8C"/>
<path d="M18.0302 16.8134C18.5275 16.8641 19.0195 16.9609 19.4991 17.1116C19.664 17.1632 19.708 17.3685 19.6009 17.5041C19.536 17.5863 19.4706 17.6689 19.4057 17.7512C19.3746 17.7903 19.344 17.8298 19.3129 17.8689C19.2973 17.8885 19.2817 17.9081 19.2662 17.9276C19.26 17.9356 19.2537 17.9432 19.2475 17.9512C19.2031 18.0143 19.208 17.9743 19.2622 17.8312C19.2426 17.7956 19.2231 17.7605 19.2035 17.7249C19.1982 17.7192 19.1675 17.7081 19.1662 17.7023C19.1675 17.7076 19.216 17.7174 19.2222 17.7192C19.2595 17.7303 19.2969 17.7414 19.3342 17.7525C19.4089 17.7747 19.4835 17.7974 19.5582 17.8196C19.712 17.8658 19.8662 17.9116 20.02 17.9578C20.3231 18.0485 20.6262 18.1396 20.9293 18.2303C21.0435 18.2645 21.1164 18.3938 21.0857 18.5183C21.056 18.6405 20.9324 18.7209 20.8177 18.6867C20.3515 18.5472 19.8849 18.4072 19.4186 18.2676C19.3066 18.2343 19.1946 18.2014 19.0826 18.1672C18.9266 18.1192 18.788 17.9952 18.832 17.8001C18.8595 17.6774 18.9697 17.5752 19.044 17.4814C19.1244 17.3796 19.2053 17.2774 19.2857 17.1756C19.3195 17.3063 19.3537 17.4369 19.3875 17.5681C18.9435 17.4289 18.4844 17.3316 18.0315 17.2854C17.9137 17.2734 17.812 17.1867 17.8115 17.0503C17.8111 16.9321 17.9115 16.8014 18.0302 16.8134Z" fill="#C68B8C"/>
<path d="M37.4081 23.2817C36.9601 23.1097 36.4996 22.98 36.0294 22.9017C35.8676 22.8746 35.753 23.0328 35.7943 23.196C35.8196 23.2951 35.8445 23.3946 35.8699 23.4937C35.8819 23.5408 35.8939 23.5884 35.9059 23.6355C35.9116 23.6591 35.9179 23.6826 35.9236 23.7066C35.9259 23.716 35.9285 23.7257 35.9308 23.7351C35.9454 23.8088 35.9561 23.7724 35.9632 23.6253C35.9934 23.6035 36.0236 23.5813 36.0534 23.5595C36.0601 23.5568 36.0908 23.5604 36.0943 23.556C36.0912 23.56 36.0459 23.5471 36.0396 23.5462C36.0032 23.5395 35.9668 23.5333 35.9303 23.5266C35.8574 23.5137 35.785 23.5004 35.7121 23.4875C35.5619 23.4604 35.4121 23.4333 35.2619 23.4066C34.9663 23.3533 34.6708 23.3004 34.3752 23.2471C34.2641 23.2271 34.1525 23.3071 34.1321 23.4275C34.1121 23.5457 34.1885 23.6688 34.3001 23.6888C34.7548 23.7706 35.2094 23.8524 35.6641 23.9342C35.7734 23.9537 35.8823 23.9742 35.9916 23.9933C36.1441 24.0195 36.3103 23.9728 36.3454 23.7853C36.3676 23.6675 36.3108 23.5315 36.2823 23.4186C36.2512 23.2955 36.2201 23.1728 36.1885 23.0497C36.1103 23.148 36.0316 23.2457 35.9534 23.344C36.3885 23.4164 36.821 23.5315 37.229 23.6884C37.3352 23.7293 37.4556 23.6986 37.5072 23.5813C37.5525 23.4791 37.5152 23.3226 37.4081 23.2817Z" fill="#C68B8C"/>
<path d="M19.0883 21.3823C19.4341 21.1507 19.7976 20.9525 20.1781 20.7947C20.3088 20.7405 20.4319 20.8503 20.4248 20.9951C20.4203 21.0831 20.4163 21.1711 20.4119 21.2591C20.4096 21.3009 20.4079 21.3431 20.4056 21.3849C20.4048 21.4058 20.4034 21.4267 20.4025 21.4476C20.4021 21.456 20.4016 21.4645 20.4012 21.4729C20.4016 21.5374 20.3861 21.5089 20.3554 21.3876C20.3265 21.3751 20.2976 21.3627 20.2688 21.3498C20.2625 21.3489 20.2376 21.3578 20.2341 21.3547C20.2372 21.3574 20.2732 21.3378 20.2781 21.336C20.3074 21.3236 20.3368 21.3107 20.3661 21.2983C20.4248 21.2729 20.4834 21.248 20.5421 21.2227C20.663 21.1707 20.7843 21.1187 20.9052 21.0671C21.1434 20.9649 21.3821 20.8627 21.6203 20.7605C21.7101 20.7218 21.8168 20.7671 21.8545 20.864C21.8914 20.9591 21.8483 21.0769 21.7581 21.1156C21.3914 21.2729 21.0248 21.4303 20.6581 21.5876C20.5701 21.6254 20.4821 21.6636 20.3941 21.7009C20.271 21.7529 20.1239 21.7463 20.0625 21.596C20.0243 21.5018 20.0483 21.3769 20.0532 21.2769C20.0585 21.168 20.0639 21.0591 20.0692 20.9498C20.1514 21.0165 20.2336 21.0831 20.3159 21.1503C19.9639 21.296 19.6216 21.4769 19.3065 21.6876C19.2248 21.7427 19.1185 21.74 19.0554 21.652C19.0008 21.576 19.0061 21.4378 19.0883 21.3823Z" fill="#C68B8C"/>
<path d="M19.1813 15.6467C19.4238 15.6467 19.6204 15.4356 19.6204 15.1752C19.6204 14.9147 19.4238 14.7036 19.1813 14.7036C18.9388 14.7036 18.7422 14.9147 18.7422 15.1752C18.7422 15.4356 18.9388 15.6467 19.1813 15.6467Z" fill="#C68B8C"/>
<path d="M37.118 21.4791C37.3487 21.4791 37.5358 21.2779 37.5358 21.0298C37.5358 20.7816 37.3487 20.5804 37.118 20.5804C36.8872 20.5804 36.7002 20.7816 36.7002 21.0298C36.7002 21.2779 36.8872 21.4791 37.118 21.4791Z" fill="#C68B8C"/>
<path d="M29.6145 22.0133C29.6145 22.0187 29.574 22.0249 29.5158 21.9991C29.4589 21.9747 29.3856 21.9098 29.3638 21.8107C29.3433 21.7111 29.3847 21.6222 29.4265 21.5769C29.4691 21.5293 29.5091 21.5187 29.5109 21.5235C29.5149 21.5302 29.4842 21.5511 29.4536 21.5978C29.4229 21.6431 29.3945 21.72 29.4109 21.8009C29.4282 21.8813 29.4856 21.9404 29.5318 21.9693C29.5789 21.9995 29.6153 22.0058 29.6145 22.0133Z" fill="#441B13"/>
<path d="M28.9088 21.6897C28.9146 21.6888 28.9248 21.7155 28.9248 21.7604C28.9248 21.8053 28.9114 21.8679 28.8763 21.9279C28.8412 21.9875 28.7928 22.0302 28.7537 22.0515C28.7146 22.0737 28.6866 22.0777 28.6839 22.0719C28.6777 22.0591 28.7728 22.0115 28.8346 21.9035C28.899 21.7968 28.8946 21.6906 28.9088 21.6897Z" fill="#441B13"/>
<path d="M21.1701 23.7195C21.1443 23.7266 20.0185 23.8741 20.0514 23.8648C20.1683 23.7293 20.1714 23.6235 20.0701 23.4857C19.9656 23.343 19.807 23.3279 19.6318 23.3537C19.4665 23.3786 19.2958 23.4248 19.1745 23.5404C19.0532 23.6555 19.0003 23.8564 19.095 23.9946C18.8136 23.9199 18.495 24.163 18.4932 24.4541C18.491 24.7452 18.8061 24.9928 19.0887 24.9221C18.9145 25.0817 18.8963 25.3755 19.0327 25.5679C19.1692 25.7604 19.435 25.8426 19.663 25.7817C19.8914 25.7213 20.075 25.5315 20.1514 25.3084C20.1883 25.4706 20.4163 25.5337 20.5545 25.4417C20.6932 25.3497 20.7367 25.1564 20.6927 24.9959C20.6492 24.8355 20.535 24.7035 20.4118 24.5919L21.3158 24.2386" fill="white"/>
<path d="M21.3164 24.2382C21.3168 24.2395 21.2964 24.2488 21.2568 24.2657C21.2137 24.2835 21.155 24.308 21.0808 24.3386C20.923 24.4022 20.6986 24.492 20.4177 24.6048L20.4222 24.5804C20.4959 24.6466 20.5724 24.7235 20.6337 24.8208C20.6946 24.9168 20.739 25.0391 20.7248 25.1693C20.7133 25.2946 20.6435 25.4395 20.4999 25.4884C20.4306 25.5106 20.3528 25.5075 20.283 25.4795C20.2137 25.452 20.1497 25.3929 20.131 25.3124L20.1715 25.3146C20.119 25.4657 20.0186 25.6088 19.8755 25.7071C19.7342 25.8066 19.5439 25.8502 19.3639 25.8071C19.1862 25.768 19.0115 25.6426 18.9484 25.4542C18.8853 25.272 18.9204 25.0453 19.0719 24.904L19.0937 24.9449C19.0635 24.9506 19.031 24.9569 18.9977 24.9569C18.8448 24.96 18.7008 24.8871 18.6026 24.78C18.503 24.6737 18.4488 24.5213 18.4773 24.3782C18.5342 24.092 18.839 23.9053 19.1004 23.9729L19.0764 24.0071C19.0182 23.9217 19.0137 23.8133 19.0404 23.7226C19.067 23.6311 19.1235 23.5502 19.1955 23.4946C19.3413 23.3817 19.5164 23.3489 19.6755 23.3289C19.7564 23.3204 19.839 23.3222 19.915 23.3484C19.9915 23.3737 20.0546 23.4284 20.0946 23.4902C20.1364 23.5497 20.1679 23.6231 20.1568 23.6968C20.1462 23.7702 20.1035 23.8266 20.063 23.8751L20.0555 23.88C20.0835 23.8528 20.0444 23.848 20.0515 23.8502H20.0528L20.0568 23.8497L20.0648 23.8488L20.0813 23.8471L20.1137 23.8435C20.135 23.8408 20.1564 23.8386 20.1773 23.8364C20.219 23.8315 20.2595 23.8266 20.299 23.8222C20.3777 23.8129 20.4519 23.804 20.5213 23.7955C20.6586 23.7791 20.7764 23.7649 20.8737 23.7529C20.967 23.7417 21.0404 23.7333 21.0942 23.7271C21.1173 23.7248 21.1359 23.7226 21.151 23.7208C21.1639 23.7195 21.1702 23.7191 21.1706 23.72C21.171 23.7217 21.1453 23.7271 21.0955 23.7355C21.0422 23.744 20.9688 23.7551 20.8764 23.7693C20.779 23.7831 20.6617 23.8 20.5248 23.8191C20.4555 23.8284 20.3817 23.8386 20.303 23.8493C20.2635 23.8546 20.223 23.86 20.1813 23.8653C20.1604 23.868 20.139 23.8706 20.1177 23.8733L20.0853 23.8773L20.0688 23.8791L20.0604 23.88L20.0559 23.8804H20.0533C20.059 23.8826 20.0173 23.8773 20.0479 23.8497L20.0404 23.8546C20.079 23.808 20.1168 23.7542 20.1248 23.6924C20.1337 23.6306 20.1066 23.5666 20.0666 23.5102C20.0284 23.4524 19.9728 23.4062 19.9039 23.3835C19.8355 23.3604 19.7582 23.3591 19.6804 23.3675C19.5257 23.388 19.3559 23.4226 19.2226 23.5275C19.1568 23.5791 19.1066 23.6515 19.083 23.7346C19.0595 23.8169 19.0653 23.9102 19.1142 23.9817L19.1484 24.0315L19.0902 24.016C18.8573 23.9542 18.5733 24.1297 18.5248 24.3866C18.4724 24.6457 18.7244 24.9155 18.9982 24.9089C19.0279 24.9089 19.0568 24.9031 19.0835 24.8982L19.1662 24.8826L19.1053 24.9386C18.9702 25.0635 18.9364 25.2715 18.9942 25.4382C19.0506 25.6084 19.2097 25.7244 19.375 25.7617C19.5426 25.8022 19.7182 25.7626 19.8515 25.6702C19.9862 25.5786 20.0826 25.4435 20.1324 25.3009L20.1568 25.2315L20.1728 25.3026C20.1875 25.3671 20.239 25.4168 20.2995 25.4413C20.3599 25.4662 20.4288 25.4693 20.4888 25.4506C20.611 25.4106 20.6782 25.2813 20.6897 25.1649C20.7039 25.0449 20.6639 24.9306 20.6066 24.8377C20.5488 24.744 20.4755 24.668 20.4035 24.6013L20.3862 24.5853L20.4079 24.5768C20.691 24.4693 20.9168 24.3835 21.0759 24.3231C21.1515 24.2955 21.2106 24.2733 21.2546 24.2573C21.2946 24.244 21.3159 24.2368 21.3164 24.2382Z" fill="#C68B8C"/>
<path d="M21.0601 23.9017C21.0637 23.9146 20.9001 23.9715 20.6952 24.0293C20.4899 24.0871 20.321 24.1235 20.3174 24.1111C20.3139 24.0982 20.4774 24.0413 20.6823 23.9835C20.8872 23.9257 21.0566 23.8889 21.0601 23.9017Z" fill="#C68B8C"/>
<path d="M21.0288 23.535C21.0297 23.5484 20.9062 23.567 20.7533 23.5768C20.6004 23.5866 20.4755 23.5839 20.4746 23.5706C20.4737 23.5573 20.5973 23.5386 20.7502 23.5288C20.9035 23.519 21.0279 23.5217 21.0288 23.535Z" fill="#C68B8C"/>
<path d="M21.4327 24.4733C21.442 24.4827 21.358 24.5796 21.2456 24.6893C21.1331 24.7991 21.034 24.8804 21.0251 24.8711C21.0158 24.8618 21.0998 24.7649 21.2122 24.6551C21.3247 24.5449 21.4233 24.4636 21.4327 24.4733Z" fill="#C68B8C"/>
<path d="M13.891 42.3423C14.1483 42.0276 14.2501 41.5916 14.1581 41.1956C14.1354 41.0978 14.0981 40.9974 14.0216 40.9325C13.8812 40.8138 13.6621 40.8574 13.5079 40.9574C13.3536 41.0578 13.2336 41.2045 13.0776 41.3014C13.0301 41.3311 12.9763 41.3565 12.9199 41.3529C12.8643 41.3494 12.815 41.3178 12.7665 41.2898C12.5572 41.1694 12.3056 41.1027 12.0714 41.1614C11.8372 41.22 11.6319 41.4263 11.6252 41.6676C11.6194 41.8667 11.7403 42.0463 11.8705 42.1969C12.1234 42.4903 12.4336 42.7409 12.6221 43.0796C12.6896 43.2009 12.7408 43.3325 12.8292 43.4391C13.0008 43.6463 13.2888 43.7263 13.5568 43.7107C13.8252 43.6956 14.0808 43.5983 14.3323 43.504C14.5168 43.4351 14.7065 43.3663 14.9039 43.3645C15.011 43.3636 15.1185 43.3823 15.2243 43.3667C15.5759 43.3151 15.7723 42.8663 15.6341 42.5387C15.4959 42.2111 15.1159 42.0329 14.7608 42.0494C14.5021 42.0614 14.2234 42.1556 13.9963 42.0307L13.891 42.3423Z" fill="#EEC7C6"/>
<path d="M14.3972 42.7755C14.1749 43.048 13.7207 43.1013 13.4536 42.8609C13.3247 42.7449 13.2136 42.4795 13.4225 42.3795C13.6323 42.2791 13.8487 42.448 14.0069 42.5689C14.0132 42.5209 14.0194 42.4729 14.0256 42.4244C13.858 42.4498 13.7349 42.2858 13.6518 42.1653C13.5407 42.0044 13.45 41.828 13.2994 41.6991C13.1434 41.5653 12.9469 41.4858 12.7398 41.5151C12.554 41.5413 12.3789 41.6578 12.3203 41.8418C12.2612 42.028 12.3318 42.2555 12.51 42.3484C12.6003 42.3951 12.6803 42.2591 12.5896 42.212C12.462 42.1458 12.4243 41.9755 12.486 41.8502C12.5589 41.7018 12.7514 41.6449 12.9052 41.6715C13.2789 41.736 13.4038 42.1342 13.6234 42.3871C13.7394 42.5209 13.8865 42.604 14.0669 42.5769C14.1429 42.5653 14.1323 42.468 14.0856 42.4324C13.9136 42.3009 13.7207 42.1684 13.4927 42.1978C13.2905 42.224 13.1314 42.3835 13.1478 42.5951C13.1794 42.9969 13.6194 43.2075 13.9803 43.164C14.1834 43.1395 14.3776 43.0471 14.5083 42.8871C14.5727 42.8093 14.4616 42.6969 14.3972 42.7755Z" fill="#F8E3E3"/>
<path d="M14.8692 42.5832C14.8701 42.5689 14.8648 42.5978 14.8688 42.5845C14.8688 42.5849 14.8714 42.5756 14.8714 42.5756C14.8723 42.5765 14.8634 42.5898 14.8679 42.5836C14.8701 42.5805 14.8736 42.5752 14.8745 42.5716C14.8776 42.5632 14.8701 42.58 14.8692 42.5783C14.8688 42.5774 14.8763 42.5707 14.8772 42.5698C14.8825 42.5658 14.8688 42.5743 14.8759 42.5703C14.8808 42.5676 14.8852 42.564 14.8901 42.5614C14.903 42.5534 14.8901 42.5618 14.8892 42.5609C14.8905 42.5618 14.9034 42.556 14.9056 42.5556C14.9079 42.5552 14.9212 42.5538 14.923 42.552C14.9225 42.5525 14.9061 42.5529 14.9145 42.5534C14.9279 42.5525 14.9336 42.5529 14.9399 42.5529C14.9576 42.5534 14.9288 42.5498 14.9412 42.5529C14.9461 42.5543 14.951 42.5552 14.9559 42.5569C14.9554 42.5569 14.9648 42.5605 14.9652 42.5605C14.9639 42.5614 14.9514 42.5529 14.9576 42.5578C14.9612 42.5605 14.9665 42.5636 14.9705 42.5654C14.9781 42.5689 14.9639 42.5618 14.9643 42.5605C14.9643 42.5605 14.9732 42.5689 14.9741 42.5694C14.9763 42.5716 14.9781 42.5743 14.9803 42.5765C14.9794 42.5756 14.9732 42.5654 14.9776 42.5729C14.9816 42.5792 14.9852 42.5854 14.9888 42.5916C14.9963 42.604 14.9861 42.5814 14.9905 42.5952C14.9928 42.6023 14.995 42.6089 14.9968 42.616C14.9985 42.624 14.9985 42.6383 14.9985 42.6227C14.9985 42.6289 14.9994 42.6356 14.9994 42.6418C14.9994 42.648 14.9994 42.6547 14.999 42.6609C14.9985 42.6654 14.9981 42.6694 14.9976 42.6738C14.9985 42.6672 14.9994 42.6632 14.9976 42.672C14.9945 42.6858 14.991 42.6996 14.9861 42.7129C14.9848 42.716 14.9839 42.7192 14.9825 42.7223C14.983 42.7209 14.9883 42.7107 14.9839 42.7183C14.9794 42.7258 14.9759 42.7338 14.9714 42.7409C14.9679 42.7463 14.9643 42.7516 14.9608 42.7569C14.9599 42.7583 14.9576 42.7609 14.955 42.764C14.9439 42.7774 14.9314 42.7894 14.9185 42.8009C14.9159 42.8036 14.9132 42.8058 14.9101 42.808C14.9105 42.8076 14.8941 42.8205 14.9008 42.8156C14.907 42.8107 14.8972 42.8183 14.8968 42.8183C14.8928 42.8209 14.8888 42.824 14.8848 42.8267C14.8692 42.8374 14.8532 42.8472 14.8368 42.856C14.803 42.8752 14.7674 42.892 14.7323 42.908C14.6945 42.9254 14.6825 42.9827 14.7039 43.016C14.7288 43.0547 14.7714 43.0627 14.8119 43.0445C14.891 43.0085 14.9683 42.9685 15.0328 42.9094C15.0999 42.8485 15.143 42.7694 15.1541 42.6796C15.1643 42.5987 15.1408 42.5076 15.079 42.4512C15.0212 42.3987 14.9403 42.3832 14.8656 42.4023C14.7794 42.424 14.7159 42.4929 14.711 42.5827C14.7088 42.624 14.7488 42.6636 14.7901 42.6618C14.8354 42.66 14.867 42.6272 14.8692 42.5832Z" fill="#F8E3E3"/>
<path d="M17.8614 42.9333C17.9209 42.6933 17.876 42.4293 17.7405 42.2222C17.6814 42.132 17.5996 42.0484 17.4943 42.0258C17.3271 41.9893 17.1649 42.1182 17.0818 42.2675C16.9991 42.4169 16.968 42.5902 16.8929 42.7435C16.8796 42.7711 16.864 42.7991 16.84 42.8187C16.8036 42.8489 16.7534 42.856 16.7063 42.8618C16.4085 42.8987 16.1005 42.9493 15.8525 43.1191C15.6049 43.2884 15.436 43.6102 15.5343 43.8938C15.5951 44.0702 15.7485 44.2031 15.9191 44.2778C15.9791 44.304 16.0427 44.3244 16.0929 44.3658C16.1578 44.4191 16.1925 44.4995 16.2374 44.5698C16.444 44.8924 16.8827 45.0004 17.2591 44.9275C17.6356 44.8547 17.9654 44.6373 18.284 44.4244C18.2729 44.252 18.3209 44.0818 18.3436 43.9107C18.3827 43.6169 18.3418 43.3009 18.1685 43.0604C17.9951 42.82 17.6711 42.6769 17.3898 42.7711L17.8614 42.9333Z" fill="#EEC7C6"/>
<path d="M17.2327 43.0151C17.502 43.2115 17.5145 43.6577 17.2336 43.8484C17.1016 43.9382 16.9323 43.9724 16.7776 43.9288C16.6287 43.8866 16.4603 43.7355 16.5012 43.5644C16.5256 43.4617 16.7363 43.3808 16.7807 43.5084C16.8105 43.4786 16.8407 43.4484 16.8705 43.4186C16.514 43.3351 16.1736 42.9906 15.7878 43.172C15.6549 43.2346 15.5767 43.3662 15.5772 43.512C15.5776 43.6466 15.6496 43.7764 15.786 43.812C15.8772 43.8355 15.9158 43.6951 15.8247 43.6711C15.738 43.6484 15.7136 43.5528 15.7252 43.4724C15.7429 43.3506 15.8456 43.2844 15.962 43.2706C16.2767 43.2337 16.5385 43.4902 16.8314 43.5586C16.882 43.5706 16.9403 43.524 16.9212 43.4688C16.8554 43.2791 16.6127 43.2577 16.466 43.368C16.2665 43.5177 16.3536 43.8062 16.5149 43.948C16.8772 44.2657 17.5012 44.028 17.5767 43.5582C17.6176 43.3026 17.5158 43.0413 17.306 42.8884C17.2305 42.8337 17.1576 42.9604 17.2327 43.0151Z" fill="#F8E3E3"/>
</g>
</g>
<defs>
<clipPath id="clip0_1146_49376">
<rect width="48" height="48" rx="24" fill="white"/>
</clipPath>
<clipPath id="clip1_1146_49376">
<rect width="48" height="48" fill="white"/>
</clipPath>
</defs>
</svg>
