<svg width="48" height="48" viewBox="0 0 48 48" fill="none" xmlns="http://www.w3.org/2000/svg">
<g clip-path="url(#clip0_1141_48995)">
<rect width="48" height="48" rx="24" fill="white"/>
<g opacity="0.4">
<path d="M29.6732 28.5591C29.8932 26.8987 28.7256 25.5289 27.267 24.7053C25.8083 23.8822 24.1159 23.6067 22.5048 23.1489C20.9852 22.7173 19.4736 22.0871 18.3483 20.9787C17.223 19.8702 16.5474 18.204 16.9523 16.6769C17.0541 16.2933 17.2354 15.9084 17.5648 15.6871C17.8941 15.4658 18.3968 15.4716 18.6421 15.7831C19.1652 16.4462 18.1461 17.6347 18.7843 18.188C18.931 18.3151 19.1323 18.3618 19.2839 18.4827C19.6874 18.8044 19.5568 19.4302 19.6136 19.9431C19.7265 20.9578 20.6776 21.6622 21.6123 22.0733C22.8639 22.624 24.2199 22.8827 25.5474 23.2093C26.875 23.5356 28.2141 23.9467 29.3203 24.7507C30.4265 25.5542 31.3861 26.8124 31.3785 28.1796C31.3763 28.5618 31.3279 29.0316 31.0879 29.3289C30.8483 29.6262 30.5425 29.688 30.1968 29.5253C29.851 29.3627 29.6092 29.1111 29.6732 28.5591Z" fill="#F2BD8D"/>
</g>
<g opacity="0.4">
<path d="M22.6154 15.3596C22.563 14.7444 23.0212 14.2089 23.5421 13.9218C24.063 13.6347 24.6599 13.5182 25.1972 13.2636C26.531 12.6311 27.379 11.1431 27.4417 9.61645C27.5043 8.08978 26.8425 6.56445 25.8074 5.44311C25.387 4.98756 24.8692 4.51023 24.863 3.88889C24.8563 3.24045 25.4857 2.72934 26.1137 2.73734C26.7421 2.74578 27.3208 3.16623 27.6972 3.69511C28.0732 4.224 28.2817 4.85467 28.4839 5.47378C28.3394 5.21511 28.6359 4.89423 28.9217 4.92223C29.2074 4.94978 29.4328 5.188 29.6088 5.42534C30.3657 6.44445 30.7403 7.75378 30.6359 9.01511C30.5314 10.2764 29.9492 11.4769 29.039 12.3062C28.0225 13.2324 26.6777 13.6671 25.3741 14.0787C24.467 14.3649 23.5599 14.6511 22.6528 14.9373" fill="#F2BD8D"/>
</g>
<g opacity="0.4">
<path d="M21.8579 2.43555C21.5877 2.54933 21.4392 2.89155 21.541 3.16666C21.6428 3.44177 21.9788 3.60489 22.2579 3.51466C22.537 3.42489 22.7143 3.09644 22.6366 2.81377C22.5588 2.53111 22.2383 2.33955 21.9526 2.40489" fill="#F2BD8D"/>
</g>
<g opacity="0.4">
<path d="M25.2142 42.132C24.8809 41.4404 25.1716 40.5782 25.7031 40.024C26.2347 39.4698 26.9605 39.1533 27.6631 38.844C29.2142 38.1609 30.856 37.3467 31.6449 35.8467C31.9107 35.3409 32.0622 34.784 32.212 34.2324C32.5018 33.1649 32.7729 31.9524 32.1907 31.0115C32.0231 30.7409 31.7716 30.5004 31.4582 30.4449C31.1014 30.3813 30.7347 30.5782 30.5147 30.8658C30.2947 31.1538 30.2005 31.5187 30.1551 31.8778C30.0685 32.5613 30.1405 33.2569 30.0685 33.9427C29.9965 34.628 29.7458 35.3449 29.1805 35.7391C28.4938 36.2178 27.5142 36.1102 26.8471 36.616C26.3085 37.0244 26.104 37.7324 25.6827 38.2613C25.3289 38.7053 24.8334 39.0093 24.3796 39.3507C23.9258 39.6924 23.4871 40.1093 23.3329 40.656C23.1729 41.224 23.3729 41.8769 23.824 42.2573C24.2751 42.6378 24.9525 42.7253 25.4854 42.472" fill="#F2BD8D"/>
</g>
<g opacity="0.4">
<path d="M14.8991 7.20889C14.3529 6.80356 14.0196 6.12622 14.0316 5.44622C14.0436 4.76622 14.4009 4.10133 14.9613 3.716C15.2782 3.49822 15.6538 3.36489 15.9356 3.10311C16.1858 2.87022 16.3489 2.54756 16.6293 2.35156C16.9773 2.10845 17.4827 2.11911 17.8205 2.37689C18.1578 2.63467 18.3013 3.11911 18.1587 3.51911C18.0293 3.88089 17.7049 4.14489 17.5693 4.504C17.4236 4.89067 17.5173 5.32356 17.4631 5.73333C17.3965 6.23689 17.0907 6.70311 16.6556 6.96533C16.2205 7.22711 15.6649 7.27911 15.1889 7.10222" fill="#F2BD8D"/>
</g>
<path d="M43.479 46.5102C43.4403 46.5102 43.4092 46.4818 43.4092 46.4467V43.5973C43.4092 43.5622 43.4403 43.5338 43.479 43.5338C43.5176 43.5338 43.5487 43.5622 43.5487 43.5973V46.4467C43.5487 46.4818 43.5172 46.5102 43.479 46.5102Z" fill="white"/>
<path d="M42.3704 46.0929C42.3527 46.0929 42.3349 46.0867 42.3211 46.0742C42.294 46.0493 42.294 46.0093 42.3211 45.9844L44.538 43.9693C44.5651 43.9444 44.6096 43.9444 44.6367 43.9693C44.6638 43.9942 44.6638 44.0342 44.6367 44.0591L42.4198 46.0742C42.406 46.0867 42.3882 46.0929 42.3704 46.0929Z" fill="white"/>
<path d="M45.0467 45.0853H41.9116C41.8729 45.0853 41.8418 45.0569 41.8418 45.0218C41.8418 44.9867 41.8729 44.9582 41.9116 44.9582H45.0467C45.0854 44.9582 45.1165 44.9867 45.1165 45.0218C45.1165 45.0569 45.0849 45.0853 45.0467 45.0853Z" fill="white"/>
<path d="M44.5873 46.0929C44.5696 46.0929 44.5518 46.0867 44.538 46.0742L42.3211 44.0591C42.294 44.0342 42.294 43.9942 42.3211 43.9693C42.3482 43.9444 42.3927 43.9444 42.4198 43.9693L44.6367 45.9844C44.6638 46.0093 44.6638 46.0493 44.6367 46.0742C44.6229 46.0867 44.6051 46.0929 44.5873 46.0929Z" fill="white"/>
<path d="M45.1884 21.3333C45.1636 21.3333 45.1436 21.3151 45.1436 21.2924V19.4533C45.1436 19.4307 45.1636 19.4124 45.1884 19.4124C45.2133 19.4124 45.2333 19.4307 45.2333 19.4533V21.2924C45.2333 21.3151 45.2133 21.3333 45.1884 21.3333Z" fill="white"/>
<path d="M44.4731 21.064C44.4615 21.064 44.45 21.06 44.4411 21.052C44.4233 21.036 44.4233 21.0102 44.4411 20.9942L45.8722 19.6938C45.89 19.6778 45.9184 19.6778 45.9357 19.6938C45.9531 19.7098 45.9535 19.7356 45.9357 19.7516L44.5046 21.052C44.4962 21.06 44.4846 21.064 44.4731 21.064Z" fill="white"/>
<path d="M46.2003 20.4138H44.1767C44.1518 20.4138 44.1318 20.3956 44.1318 20.3729C44.1318 20.3502 44.1518 20.332 44.1767 20.332H46.2003C46.2252 20.332 46.2452 20.3502 46.2452 20.3729C46.2456 20.3951 46.2252 20.4138 46.2003 20.4138Z" fill="white"/>
<path d="M45.9042 21.064C45.8926 21.064 45.8811 21.06 45.8722 21.052L44.4411 19.7516C44.4233 19.7356 44.4233 19.7098 44.4411 19.6938C44.4588 19.6778 44.4873 19.6778 44.5046 19.6938L45.9357 20.9942C45.9535 21.0102 45.9535 21.036 45.9357 21.052C45.9268 21.06 45.9157 21.064 45.9042 21.064Z" fill="white"/>
<path d="M44.1316 37.1627C45.5083 37.1627 46.6245 36.0466 46.6245 34.6698C46.6245 33.293 45.5083 32.1769 44.1316 32.1769C42.7548 32.1769 41.6387 33.293 41.6387 34.6698C41.6387 36.0466 42.7548 37.1627 44.1316 37.1627Z" fill="white"/>
<path d="M12.7113 6.684C12.6615 6.684 12.6211 6.64756 12.6211 6.60223V2.92356C12.6211 2.87823 12.6615 2.84178 12.7113 2.84178C12.7611 2.84178 12.8015 2.87823 12.8015 2.92356V6.60223C12.8011 6.64711 12.7611 6.684 12.7113 6.684Z" fill="white"/>
<path d="M11.2803 6.14534C11.2572 6.14534 11.2341 6.13734 11.2168 6.12134C11.1817 6.08934 11.1817 6.03734 11.2168 6.00578L14.0785 3.40445C14.1137 3.37245 14.1705 3.37245 14.2061 3.40445C14.2412 3.43645 14.2412 3.48845 14.2061 3.52L11.3443 6.12134C11.3265 6.13734 11.3034 6.14534 11.2803 6.14534Z" fill="white"/>
<path d="M14.735 4.84445H10.6879C10.6381 4.84445 10.5977 4.808 10.5977 4.76267C10.5977 4.71734 10.6381 4.68089 10.6879 4.68089H14.735C14.7848 4.68089 14.8252 4.71734 14.8252 4.76267C14.8248 4.808 14.7848 4.84445 14.735 4.84445Z" fill="white"/>
<path d="M14.1421 6.14534C14.119 6.14534 14.0959 6.13734 14.0785 6.12134L11.2168 3.52C11.1817 3.488 11.1817 3.436 11.2168 3.40445C11.2519 3.37245 11.3088 3.37245 11.3443 3.40445L14.2061 6.00578C14.2412 6.03778 14.2412 6.08978 14.2061 6.12134C14.1883 6.13734 14.1652 6.14534 14.1421 6.14534Z" fill="white"/>
<path d="M4.36263 42.6444L4.5044 42.88C4.66351 43.1444 4.89507 43.3578 5.17196 43.4947L5.41863 43.6164L5.18307 43.7582C4.91862 43.9173 4.70529 44.1489 4.5684 44.4258L4.44663 44.6724L4.30485 44.4369C4.14574 44.1724 3.91418 43.9591 3.63729 43.8222L3.39062 43.7004L3.62618 43.5587C3.89063 43.3996 4.10396 43.168 4.24085 42.8911L4.36263 42.6444Z" fill="white"/>
<path d="M32.504 3.70267L32.6044 3.86933C32.7168 4.05645 32.8808 4.20711 33.0764 4.304L33.2506 4.39022L33.084 4.49067C32.8969 4.60311 32.7462 4.76711 32.6493 4.96267L32.5631 5.13689L32.4626 4.97022C32.3502 4.78311 32.1862 4.63245 31.9906 4.53556L31.8164 4.44933L31.9831 4.34889C32.1702 4.23645 32.3208 4.07245 32.4177 3.87689L32.504 3.70267Z" fill="white"/>
<path d="M18.2772 35.604C17.8679 35.7227 17.4136 35.932 17.5683 36.3138C17.723 36.696 18.8412 37.3893 21.3114 37.292L22.4532 37.172L22.9394 36.1267C23.8434 33.8258 23.5567 32.5418 23.2465 32.2698C22.9363 31.9982 22.5896 32.3582 22.343 32.7058C22.0963 33.0533 21.8621 33.5013 21.7643 33.4684C21.6665 33.4356 21.6167 33.3604 21.6372 33.1622C21.6576 32.9644 21.8812 31.1578 21.3083 30.7351C20.7354 30.3124 19.9199 31.5684 19.7665 31.7133C19.6132 31.8582 19.5136 31.6871 19.5039 31.5622C19.4936 31.4347 19.3856 30.0253 19.3599 29.3809C19.3341 28.7364 19.1394 28.3258 18.7363 28.276C18.3474 28.228 18.1403 28.8658 17.9545 29.1084C17.7683 29.3511 17.5136 29.0644 17.5136 29.0644C17.5136 29.0644 17.0825 28.2333 16.0687 26.8342C15.0554 25.4351 14.4736 25.9711 14.4736 25.9711" fill="#EBEBEB"/>
<path d="M14.4861 25.9636C14.4861 25.9636 13.8074 26.3307 14.7954 27.748C15.7834 29.1653 16.4261 29.8458 16.4261 29.8458C16.4261 29.8458 16.6128 30.1805 16.3225 30.2769C16.0323 30.3729 15.3617 30.3587 15.2794 30.7418C15.1941 31.1387 15.5177 31.4578 16.1177 31.6938C16.7177 31.9298 18.0132 32.4956 18.1301 32.5471C18.2448 32.5978 18.3737 32.748 18.1865 32.8449C17.9994 32.9422 16.5448 33.2996 16.7559 33.9796C16.967 34.6596 18.7461 35.0427 18.9399 35.0885" fill="#EBEBEB"/>
<path d="M22.5483 37.4316C21.8078 36.4009 20.5229 34.5476 19.4114 32.9618C18.3003 31.3764 17.2927 29.9422 16.558 28.9084C16.1905 28.3924 15.8931 27.9747 15.6865 27.6849C15.5843 27.5413 15.5047 27.4293 15.4496 27.352C15.4234 27.3147 15.4034 27.2858 15.3887 27.2649C15.3754 27.2453 15.3691 27.2347 15.3691 27.2347C15.3691 27.2347 15.3771 27.244 15.3918 27.2631C15.4069 27.2836 15.4283 27.3116 15.4554 27.348C15.5118 27.4244 15.5931 27.5351 15.6976 27.6769C15.9078 27.9627 16.2087 28.3787 16.5785 28.8942C17.3189 29.9249 18.3296 31.3569 19.4407 32.9418C20.5523 34.5276 21.834 36.3831 22.5691 37.4173" fill="#E0E0E0"/>
<path d="M16.2168 30.7987C16.2172 30.7964 16.2466 30.8004 16.299 30.8098C16.3515 30.8191 16.427 30.8347 16.5204 30.8547C16.7066 30.8951 16.9626 30.9578 17.2439 31.0324C17.5208 31.1067 17.7715 31.1738 17.963 31.2253C18.0497 31.248 18.1226 31.2671 18.1812 31.2822C18.2328 31.2956 18.2612 31.304 18.2608 31.3062C18.2604 31.3084 18.231 31.3049 18.1786 31.2956C18.1261 31.2862 18.0501 31.2707 17.9572 31.2493C17.771 31.2067 17.5164 31.1409 17.235 31.0667C16.9577 30.9947 16.7066 30.9293 16.5146 30.8791C16.4279 30.8569 16.3546 30.8382 16.2959 30.8231C16.2448 30.8098 16.2164 30.8013 16.2168 30.7987Z" fill="#E0E0E0"/>
<path d="M18.3287 31.2231C18.319 31.2209 18.4252 30.6876 18.5656 30.0316C18.7061 29.3756 18.8274 28.8453 18.8372 28.8476C18.847 28.8498 18.7407 29.3831 18.6003 30.0391C18.4599 30.6951 18.3385 31.2249 18.3287 31.2231Z" fill="#E0E0E0"/>
<path d="M19.925 33.7347C19.9228 33.7333 19.9362 33.7062 19.9615 33.6582C19.9908 33.604 20.0273 33.536 20.0708 33.4556C20.1628 33.2844 20.289 33.0471 20.4184 32.7804C20.5486 32.5138 20.6579 32.2684 20.7357 32.0902C20.7726 32.0062 20.8033 31.9356 20.8282 31.8791C20.8504 31.8293 20.8637 31.8022 20.8659 31.8031C20.8682 31.804 20.8593 31.8329 20.841 31.884C20.8228 31.9356 20.7953 32.0093 20.7593 32.0996C20.6873 32.2804 20.5815 32.5284 20.4508 32.7956C20.321 33.0631 20.1913 33.2991 20.0935 33.4676C20.0442 33.5516 20.0037 33.6191 19.9744 33.6649C19.9442 33.7111 19.9273 33.736 19.925 33.7347Z" fill="#E0E0E0"/>
<path d="M17.9307 33.7716C17.9307 33.7689 17.9582 33.7658 18.0084 33.7622C18.0662 33.7587 18.1373 33.7547 18.2209 33.7498C18.4004 33.7409 18.6489 33.7311 18.9231 33.7227C19.1973 33.7142 19.4458 33.7085 19.6253 33.7058C19.7093 33.7053 19.7804 33.7049 19.8382 33.7049C19.8884 33.7053 19.9164 33.7071 19.9164 33.7093C19.9164 33.712 19.8889 33.7151 19.8387 33.7187C19.7809 33.7222 19.7098 33.7262 19.6262 33.7311C19.4467 33.74 19.1982 33.7498 18.924 33.7582C18.6498 33.7667 18.4013 33.7725 18.2218 33.7751C18.1378 33.7756 18.0667 33.776 18.0089 33.776C17.9587 33.7751 17.9307 33.7738 17.9307 33.7716Z" fill="#E0E0E0"/>
<path d="M19.0586 36.1676C19.0586 36.1649 19.0941 36.1613 19.1581 36.1564C19.2293 36.152 19.3208 36.1462 19.4306 36.1396C19.6608 36.1271 19.9786 36.112 20.3301 36.0978C20.6817 36.0836 20.9999 36.0724 21.2301 36.0662C21.3404 36.064 21.4319 36.0622 21.503 36.0609C21.5675 36.0604 21.603 36.0613 21.6035 36.0636C21.6035 36.0662 21.5679 36.0698 21.5039 36.0747C21.4328 36.0791 21.3413 36.0849 21.2315 36.0916C21.0013 36.104 20.6835 36.1191 20.3319 36.1333C19.9808 36.1476 19.6626 36.1587 19.4319 36.1649C19.3217 36.1671 19.2301 36.1689 19.159 36.1702C19.0946 36.1711 19.0586 36.1702 19.0586 36.1676Z" fill="#E0E0E0"/>
<path d="M21.5422 36.0493C21.54 36.048 21.5555 36.0133 21.5858 35.9511C21.6191 35.8836 21.6626 35.7951 21.7151 35.6889C21.824 35.4676 21.9733 35.1609 22.1284 34.8182C22.284 34.4756 22.4169 34.1613 22.5115 33.9338C22.5569 33.8244 22.5946 33.7333 22.6235 33.664C22.6502 33.6004 22.6662 33.5658 22.6684 33.5667C22.6706 33.5676 22.6591 33.604 22.6364 33.6693C22.6138 33.7347 22.5791 33.8284 22.5346 33.9436C22.4462 34.1742 22.3169 34.4902 22.1609 34.8333C22.0053 35.1769 21.8524 35.4822 21.7378 35.7009C21.68 35.8102 21.6324 35.8982 21.5982 35.9582C21.564 36.0178 21.544 36.0507 21.5422 36.0493Z" fill="#E0E0E0"/>
<path d="M31.1225 20.8453C29.8958 19.4702 30.014 17.4853 30.478 15.7858C30.5554 15.5022 30.5954 15.1933 30.7909 14.9742C30.9865 14.7556 31.3447 14.6591 31.5718 14.8404C31.7607 14.9907 31.7945 15.2596 31.8651 15.492C31.9589 15.8013 32.1411 16.0822 32.3843 16.2916C32.5438 16.4293 32.7558 16.5404 32.9589 16.484C33.238 16.4062 33.3478 16.0724 33.4131 15.7876C33.5354 15.2564 33.6576 14.7258 33.7798 14.1947C33.8456 13.9098 33.9136 13.6191 34.0656 13.3702C34.218 13.1213 34.4727 12.9169 34.7616 12.9049C35.05 12.8933 35.3478 13.1284 35.3389 13.4204C35.3354 13.5418 35.2834 13.6564 35.2629 13.7764C35.2429 13.8964 35.2669 14.04 35.3714 14.0996C35.4771 14.16 35.61 14.1062 35.7145 14.0431C36.0763 13.8253 36.3629 13.5027 36.6363 13.1787C36.9096 12.8547 37.1794 12.5209 37.5203 12.2707C37.8607 12.0204 38.2883 11.8596 38.7011 11.9329C39.114 12.0062 39.4883 12.3604 39.4967 12.7849C39.5051 13.2102 39.1745 13.5618 38.8429 13.8262C38.3509 14.2182 37.8034 14.5387 37.2225 14.7733C37.1176 14.8156 37.0043 14.8613 36.9451 14.9587C36.8385 15.1338 36.9736 15.3644 37.146 15.4711C37.3411 15.592 37.5767 15.6244 37.7923 15.7031C38.0078 15.7818 38.2251 15.9364 38.2594 16.1662C38.3069 16.4844 37.9918 16.7316 37.7051 16.8747C37.1314 17.1609 36.5096 17.3471 35.8754 17.4227C35.6478 17.4498 35.4118 17.4649 35.2083 17.5716C35.0047 17.6787 34.8425 17.9102 34.8967 18.1347C34.9514 18.3596 35.1976 18.4853 35.4265 18.4969C35.6554 18.508 35.8798 18.4356 36.1074 18.4062C36.5331 18.3511 37.0318 18.4978 37.202 18.8951C37.314 19.156 37.2554 19.4689 37.1091 19.7138C36.9634 19.9587 36.7403 20.1467 36.5114 20.3147C35.7109 20.9013 34.7687 21.3031 33.7874 21.4027C32.806 21.5022 31.9456 21.3884 31.1225 20.8453Z" fill="#F5F5F5"/>
<path d="M31.3711 21.0107C31.5938 20.3467 31.3609 20.68 31.8195 19.876C32.2764 19.0711 32.8507 18.2302 33.4813 17.3716C33.64 17.1573 33.7964 16.9458 33.9507 16.7373C34.1053 16.5298 34.2582 16.3236 34.4209 16.1311C34.744 15.7449 35.084 15.3987 35.4169 15.0796C35.7498 14.7604 36.0773 14.4698 36.3858 14.2C36.6947 13.9311 36.9875 13.6858 37.264 13.4733C37.8155 13.0467 38.3004 12.756 38.6413 12.5702C38.8115 12.4764 38.9462 12.4084 39.0382 12.3636C39.0822 12.3422 39.1169 12.3258 39.1431 12.3129C39.1666 12.3018 39.1791 12.2964 39.1795 12.2973C39.18 12.2982 39.1684 12.3053 39.1458 12.3178C39.1204 12.3316 39.0866 12.3498 39.0435 12.3729C38.9533 12.4209 38.8204 12.4924 38.652 12.5884C38.3146 12.78 37.8346 13.0747 37.2875 13.5036C37.0133 13.7169 36.7226 13.9636 36.4155 14.2338C36.1089 14.5044 35.7826 14.796 35.4515 15.1156C35.1204 15.4347 34.7827 15.7804 34.4618 16.1649C34.3004 16.3564 34.1489 16.5609 33.9942 16.7693C33.84 16.9778 33.6835 17.1893 33.5253 17.4031C32.8951 18.2613 32.3213 19.0991 31.8631 19.9004C31.4035 20.7004 31.6347 20.3622 31.408 21.0227" fill="#E0E0E0"/>
<path d="M34.436 16.1329C34.4324 16.1324 34.4329 16.0871 34.4369 16.0049C34.4404 15.9227 34.4498 15.804 34.4636 15.6578C34.4902 15.3649 34.5413 14.9622 34.5991 14.5178C34.6569 14.0733 34.7018 13.6707 34.7244 13.3787C34.736 13.2324 34.744 13.1142 34.7489 13.0324C34.7538 12.9507 34.7587 12.9053 34.7622 12.9053C34.7658 12.9053 34.7684 12.9507 34.7698 13.0329C34.7716 13.1151 34.7693 13.2342 34.7622 13.3809C34.7498 13.6747 34.7102 14.08 34.6524 14.5244C34.5942 14.9627 34.5418 15.3587 34.5013 15.6618C34.484 15.7987 34.4693 15.9142 34.4578 16.0067C34.4471 16.088 34.4396 16.1333 34.436 16.1329Z" fill="#E0E0E0"/>
<path d="M38.2547 16.3156C38.2538 16.3191 38.2004 16.3129 38.1044 16.2987C38.0084 16.2849 37.8702 16.264 37.6982 16.2436C37.3547 16.2005 36.8782 16.1573 36.3502 16.1329C35.8222 16.1093 35.3431 16.1085 34.9969 16.1178C34.8235 16.1213 34.6836 16.1276 34.5867 16.1316C34.4898 16.136 34.436 16.1365 34.4355 16.1329C34.4351 16.1289 34.4884 16.1213 34.5853 16.1107C34.6818 16.1005 34.8222 16.088 34.996 16.0796C35.3431 16.0605 35.8236 16.0551 36.3533 16.0787C36.8827 16.1031 37.3609 16.1525 37.704 16.2058C37.876 16.2311 38.0138 16.2578 38.1089 16.2782C38.2036 16.2987 38.2555 16.312 38.2547 16.3156Z" fill="#E0E0E0"/>
<path d="M31.8794 19.8196C31.8776 19.82 31.8728 19.8027 31.8648 19.7689C31.8563 19.7289 31.8461 19.6804 31.8337 19.6218C31.807 19.4938 31.7736 19.308 31.735 19.0773C31.6576 18.6164 31.571 17.9769 31.4852 17.2693C31.399 16.5618 31.3185 15.9218 31.251 15.4604C31.2176 15.236 31.1901 15.0511 31.1697 14.9138C31.1612 14.8542 31.1541 14.8053 31.1483 14.7649C31.1439 14.7307 31.1425 14.7129 31.1443 14.7124C31.1461 14.712 31.151 14.7293 31.159 14.7631C31.1674 14.8027 31.1776 14.8516 31.1901 14.9102C31.2168 15.0382 31.2501 15.224 31.2888 15.4547C31.3661 15.9156 31.4528 16.5551 31.5385 17.2627C31.6248 17.9702 31.7052 18.6098 31.7728 19.0716C31.8065 19.296 31.8336 19.4809 31.8541 19.6182C31.8625 19.6778 31.8697 19.7271 31.8754 19.7671C31.8799 19.8009 31.8816 19.8191 31.8794 19.8196Z" fill="#E0E0E0"/>
<path d="M37.111 19.4044C37.111 19.4062 37.0928 19.4093 37.0581 19.4129C37.0172 19.4164 36.9665 19.4213 36.9057 19.4267C36.7652 19.4382 36.5759 19.4533 36.3452 19.472C35.8719 19.5107 35.219 19.5711 34.4977 19.6387C33.7759 19.7067 33.1221 19.7613 32.6479 19.7898C32.411 19.804 32.219 19.8138 32.0861 19.8178C32.0248 19.8191 31.9741 19.8204 31.9332 19.8213C31.8981 19.8218 31.8799 19.8209 31.8799 19.8187C31.8799 19.8169 31.8981 19.8138 31.9328 19.8102C31.9737 19.8067 32.0239 19.8022 32.0852 19.7964C32.2257 19.7849 32.415 19.7698 32.6457 19.7511C33.119 19.7129 33.7719 19.652 34.4932 19.584C35.2145 19.516 35.8688 19.4613 36.3426 19.4329C36.5794 19.4187 36.7714 19.4089 36.9043 19.4049C36.9657 19.4036 37.0159 19.4022 37.0572 19.4013C37.0923 19.4018 37.1105 19.4022 37.111 19.4044Z" fill="#E0E0E0"/>
<path d="M41.1686 29.8889C41.1695 29.8893 41.1637 29.9058 41.1513 29.9369C41.137 29.9711 41.1184 30.0169 41.0948 30.0742C41.0424 30.1973 40.9686 30.372 40.8748 30.592C40.681 31.04 40.4077 31.6729 40.081 32.4285L40.0761 32.4396L40.0641 32.4413C39.3317 32.5622 38.4779 32.7036 37.569 32.8533C37.2841 32.9 37.005 32.9458 36.7326 32.9902L36.6944 32.9964L36.7037 32.9591C36.9073 32.1565 37.0944 31.4178 37.2535 30.7902L37.265 30.8142C36.6557 30.5418 36.153 30.3173 35.7988 30.1587C35.6268 30.0805 35.4908 30.0182 35.3944 29.9742C35.3504 29.9533 35.3157 29.9373 35.289 29.9244C35.2655 29.9129 35.2535 29.9067 35.2539 29.9053C35.2544 29.9045 35.2673 29.9089 35.2917 29.9187C35.3193 29.9298 35.3548 29.9444 35.3997 29.9627C35.4975 30.004 35.6348 30.0627 35.8086 30.1365C36.1646 30.2907 36.6699 30.5098 37.2819 30.7756L37.2979 30.7827L37.2935 30.8C37.137 31.4285 36.9526 32.168 36.7526 32.9711L36.7241 32.94C36.9966 32.8951 37.2757 32.8493 37.5606 32.8027C38.4695 32.6547 39.3241 32.516 40.0566 32.3969L40.0397 32.4102C40.3735 31.6578 40.6526 31.0271 40.8504 30.5809C40.9486 30.3631 41.0268 30.1902 41.0815 30.068C41.1077 30.0116 41.1286 29.9671 41.1441 29.9333C41.1593 29.904 41.1672 29.8885 41.1686 29.8889Z" fill="#E0E0E0"/>
<path d="M37.025 32.6965L36.957 32.876L37.0659 33.0338L36.8744 33.0245L36.7579 33.1773L36.7073 32.992L36.5264 32.928L36.6868 32.8231L36.6913 32.6311L36.841 32.7516L37.025 32.6965Z" fill="#E0E0E0"/>
<path d="M35.3115 29.7858L35.2777 29.8751L35.3319 29.9533L35.2368 29.9489L35.1786 30.0249L35.1537 29.9325L35.0635 29.9009L35.1435 29.8485L35.1457 29.7533L35.2199 29.8129L35.3115 29.7858Z" fill="#E0E0E0"/>
<path d="M40.1503 32.3165L40.1166 32.4058L40.1708 32.4845L40.0752 32.4796L40.0175 32.5556L39.9926 32.4636L39.9023 32.432L39.9823 32.3796L39.9846 32.284L40.0588 32.344L40.1503 32.3165Z" fill="#E0E0E0"/>
<path d="M37.3584 30.7098L37.3246 30.7991L37.3788 30.8773L37.2832 30.8729L37.2255 30.9489L37.2006 30.8565L37.1104 30.8249L37.1904 30.7729L37.1926 30.6773L37.2668 30.7369L37.3584 30.7098Z" fill="#E0E0E0"/>
<path d="M41.2846 29.7996L41.2508 29.8889L41.305 29.9676L41.2095 29.9627L41.1517 30.0387L41.1264 29.9467L41.0361 29.9151L41.1161 29.8627L41.1184 29.7671L41.193 29.8271L41.2846 29.7996Z" fill="#E0E0E0"/>
<path d="M10.0586 37.2969H15.4519C15.4519 37.2969 14.975 36.4289 13.5866 36.5551C12.2608 36.6756 12.1933 36.128 11.519 36.0609C10.8448 35.9933 10.283 36.5102 10.0586 37.2969Z" fill="#E0E0E0"/>
<path d="M38.5205 19.8129H42.9516C42.9516 19.8129 42.5596 19.1 41.4192 19.2036C40.3298 19.3027 40.2743 18.8529 39.7205 18.7973C39.1667 18.7422 38.7054 19.1667 38.5205 19.8129Z" fill="#F5F5F5"/>
<path d="M25.9388 40.6769L31.6908 40.9231L31.8299 41.2582L28.0597 47.3778L21.2539 47.1791L25.9388 40.6769Z" fill="#3E1F18"/>
<path d="M20.9951 46.5827L27.8422 46.9738L31.4182 41.424L28.9071 41.628L22.5511 43.8662L20.9951 46.5827Z" fill="#E0E0E0"/>
<path d="M20.034 46.1711L26.3215 46.2702C26.0602 45.4658 26.6762 44.3329 27.5215 43.952C28.082 43.6995 29.1362 43.372 29.6798 43.0933C30.7135 42.5631 31.6473 41.5591 31.5655 40.6973L28.9833 40.6151L25.6873 40.4875C25.4118 41.3053 24.8224 41.8409 23.926 42.1631C23.1242 42.4515 22.2113 42.4507 21.4291 42.7782C20.1704 43.3058 19.5655 45.0142 20.034 46.1711Z" fill="#EBEBEB"/>
<path d="M20.0335 46.1711C20.0335 46.1711 20.0277 46.1578 20.0175 46.1307C20.0073 46.1022 19.993 46.0618 19.9744 46.0093C19.9526 45.9564 19.9397 45.8871 19.921 45.8058C19.8984 45.7249 19.8908 45.628 19.8775 45.5195C19.8615 45.3018 19.8637 45.0302 19.9273 44.72C19.9913 44.4116 20.113 44.0636 20.3304 43.7222C20.3868 43.6382 20.441 43.5498 20.5113 43.4693C20.5455 43.4284 20.5775 43.3849 20.6144 43.3449C20.6526 43.3062 20.6913 43.2671 20.7304 43.2271C20.7682 43.1858 20.8113 43.1498 20.8562 43.1142C20.9006 43.0787 20.9437 43.04 20.9908 43.0058C21.0895 42.944 21.185 42.8716 21.297 42.8231C21.7326 42.6036 22.253 42.5107 22.7953 42.4124C23.0673 42.3631 23.3468 42.3111 23.6277 42.2338C23.9073 42.1547 24.189 42.0484 24.4566 41.9C24.5908 41.8276 24.7206 41.7427 24.8437 41.6462C24.9673 41.5511 25.0833 41.4427 25.1868 41.3222C25.3984 41.0831 25.557 40.7929 25.6646 40.4791L25.6704 40.4622L25.6882 40.4631C26.5633 40.4964 27.4819 40.5316 28.4344 40.568C29.3864 40.6053 30.3726 40.6311 31.3819 40.6653C31.4437 40.6671 31.5059 40.6693 31.5659 40.6711L31.5886 40.672L31.5904 40.6942C31.6077 40.8933 31.5713 41.0916 31.5073 41.2756C31.4779 41.3689 31.433 41.4556 31.3922 41.5436C31.3437 41.6271 31.2984 41.7129 31.2419 41.7907C31.0277 42.1107 30.753 42.3787 30.4628 42.6142C30.1704 42.848 29.8535 43.0418 29.5228 43.1951C29.1913 43.344 28.8553 43.4658 28.5264 43.5875C28.1975 43.7093 27.8726 43.8244 27.5637 43.9587C27.4122 44.0293 27.2668 44.1098 27.1406 44.2156C27.0739 44.2631 27.0179 44.3236 26.957 44.3769C26.9033 44.4378 26.8433 44.4924 26.7957 44.5573C26.5926 44.8062 26.4402 45.0889 26.3562 45.3836C26.2673 45.6764 26.257 45.9867 26.3406 46.2631L26.349 46.2911L26.3206 46.2907C24.4162 46.2569 22.845 46.2289 21.7482 46.2093C21.2015 46.1982 20.7735 46.1898 20.4802 46.1836C20.3353 46.18 20.2242 46.1773 20.1477 46.1751C20.0722 46.1738 20.0335 46.1711 20.0335 46.1711C20.0335 46.1711 20.0722 46.1698 20.1473 46.1698C20.2242 46.1702 20.3353 46.1711 20.4802 46.172C20.7735 46.1751 21.2015 46.18 21.7482 46.1862C22.845 46.2013 24.4166 46.2231 26.321 46.2493L26.301 46.2769C26.2135 45.9902 26.2242 45.6711 26.3144 45.372C26.3997 45.0707 26.5544 44.7831 26.7606 44.5289C26.809 44.4627 26.8699 44.4067 26.925 44.3444C26.9873 44.2898 27.0442 44.228 27.1122 44.1791C27.2406 44.0711 27.3904 43.9876 27.545 43.9156C27.8566 43.7796 28.1815 43.664 28.5099 43.5418C28.8384 43.42 29.1739 43.2978 29.5024 43.1498C29.8286 42.9982 30.1424 42.8062 30.4313 42.5747C30.7179 42.3418 30.989 42.0764 31.1997 41.7622C31.2553 41.6858 31.2993 41.6018 31.3468 41.52C31.3868 41.4342 31.4308 41.3498 31.4588 41.2591C31.521 41.0804 31.5557 40.8898 31.5393 40.6996L31.5637 40.7227C31.5033 40.7209 31.4415 40.7187 31.3797 40.7169C30.3704 40.6831 29.3842 40.6569 28.4317 40.6187C27.4797 40.5813 26.561 40.5453 25.6855 40.5111L25.7086 40.4951C25.5993 40.8138 25.4366 41.1102 25.2206 41.3533C25.1144 41.4764 24.9962 41.5862 24.8704 41.6827C24.7455 41.7804 24.6135 41.8662 24.477 41.9396C24.2055 42.0893 23.921 42.1956 23.6384 42.2751C23.3548 42.3524 23.0739 42.4036 22.8019 42.452C22.2597 42.5484 21.7419 42.6396 21.3122 42.8542C21.2019 42.9013 21.1077 42.9724 21.0099 43.0329C20.9633 43.0662 20.9206 43.1044 20.8766 43.1391C20.8326 43.1738 20.7895 43.2093 20.7522 43.2498C20.7135 43.2889 20.6748 43.3271 20.637 43.3653C20.6006 43.4049 20.5686 43.4476 20.5348 43.4876C20.465 43.5667 20.4108 43.6542 20.3544 43.7369C20.137 44.0738 20.0144 44.4182 19.9486 44.724C19.8833 45.0311 19.8788 45.3009 19.8922 45.5178C19.9042 45.6258 19.9104 45.7222 19.9317 45.8027C19.949 45.884 19.9606 45.9533 19.9815 46.0062C19.9984 46.0591 20.0117 46.0996 20.0206 46.1284C20.0304 46.1569 20.0335 46.1711 20.0335 46.1711Z" fill="#3E1F18"/>
<path d="M27.4537 40.5898C27.4492 40.5884 27.4621 40.5493 27.4679 40.4773C27.4732 40.4058 27.4688 40.2987 27.4186 40.1804C27.3701 40.0636 27.2737 39.9338 27.1212 39.8618C26.971 39.7893 26.7728 39.7742 26.5915 39.8427C26.4088 39.9098 26.2772 40.0587 26.2088 40.2111C26.1377 40.3649 26.1279 40.5231 26.1483 40.6489C26.1688 40.776 26.2172 40.8711 26.2559 40.932C26.295 40.9933 26.3239 41.0222 26.3208 41.0253C26.319 41.0271 26.2848 41.0031 26.2395 40.9436C26.1946 40.8849 26.139 40.788 26.1128 40.6556C26.0866 40.5244 26.0928 40.356 26.1657 40.192C26.2359 40.0293 26.3759 39.8676 26.5732 39.7951C26.7683 39.7213 26.9808 39.7391 27.1417 39.8196C27.3057 39.9 27.4052 40.0422 27.4519 40.1671C27.5003 40.2938 27.4994 40.4067 27.4874 40.4796C27.4812 40.5164 27.4737 40.5444 27.4666 40.5627C27.4599 40.5809 27.4555 40.5902 27.4537 40.5898Z" fill="#3E1F18"/>
<path d="M28.439 40.5898C28.4346 40.5884 28.4475 40.5493 28.4532 40.4773C28.4586 40.4058 28.4541 40.2987 28.4039 40.1804C28.3555 40.0636 28.259 39.9338 28.1066 39.8618C27.9564 39.7893 27.7581 39.7742 27.5768 39.8427C27.3941 39.9098 27.2626 40.0587 27.1941 40.2111C27.1226 40.3649 27.1132 40.5231 27.1337 40.6489C27.1541 40.776 27.2026 40.8711 27.2412 40.932C27.2804 40.9933 27.3092 41.0222 27.3061 41.0253C27.3044 41.0271 27.2701 41.0031 27.2248 40.9436C27.1799 40.8849 27.1244 40.788 27.0981 40.6556C27.0719 40.5244 27.0781 40.356 27.151 40.192C27.2212 40.0293 27.3612 39.8676 27.5586 39.7951C27.7537 39.7213 27.9661 39.7391 28.127 39.8196C28.291 39.9 28.3906 40.0422 28.4372 40.1671C28.4857 40.2938 28.4848 40.4067 28.4728 40.4796C28.4666 40.5164 28.459 40.5444 28.4519 40.5627C28.4452 40.5809 28.4408 40.5902 28.439 40.5898Z" fill="#3E1F18"/>
<path d="M29.1874 40.6409C29.1829 40.6396 29.1932 40.6 29.1954 40.528C29.1967 40.4564 29.1861 40.3498 29.1292 40.2342C29.0741 40.1204 28.9705 39.9964 28.8145 39.9329C28.6607 39.8693 28.4616 39.8653 28.2843 39.944C28.1056 40.0213 27.9829 40.1773 27.9229 40.3333C27.8603 40.4907 27.8598 40.6493 27.8874 40.7738C27.9149 40.8996 27.9687 40.992 28.0105 41.0502C28.0527 41.1089 28.0834 41.1364 28.0803 41.1396C28.0785 41.1413 28.0434 41.1191 27.9945 41.0627C27.9461 41.0062 27.8856 40.9129 27.8518 40.7822C27.8181 40.6529 27.8149 40.4844 27.8785 40.3164C27.9394 40.1498 28.0701 39.9809 28.2629 39.8969C28.4536 39.8124 28.6669 39.8182 28.8318 39.8893C28.9998 39.9604 29.1074 40.0964 29.1612 40.2187C29.2167 40.3422 29.2221 40.4551 29.2145 40.5289C29.2105 40.5662 29.2047 40.5947 29.1981 40.6129C29.1932 40.632 29.1892 40.6413 29.1874 40.6409Z" fill="#3E1F18"/>
<path d="M29.99 40.6867C29.9851 40.6858 29.9935 40.6458 29.9917 40.5733C29.9895 40.5018 29.9731 40.3956 29.91 40.2836C29.8491 40.1724 29.7388 40.0542 29.5797 39.9996C29.4228 39.944 29.2237 39.9507 29.0508 40.0387C28.8766 40.1253 28.762 40.2876 28.7108 40.4467C28.6566 40.6071 28.6646 40.7658 28.6984 40.8884C28.7326 41.0124 28.7908 41.1018 28.8362 41.1578C28.8815 41.2142 28.9135 41.24 28.9108 41.2431C28.9095 41.2453 28.8726 41.2249 28.8211 41.1707C28.77 41.1169 28.7042 41.0271 28.6637 40.8982C28.6233 40.7707 28.6108 40.6027 28.666 40.4316C28.718 40.2622 28.8393 40.0862 29.0277 39.9924C29.2135 39.8978 29.4268 39.8924 29.5957 39.9547C29.7673 40.0169 29.882 40.1471 29.942 40.2662C30.0042 40.3867 30.0153 40.4991 30.0113 40.5729C30.0091 40.6102 30.0051 40.6391 29.9993 40.6578C29.9948 40.6773 29.9913 40.6867 29.99 40.6867Z" fill="#3E1F18"/>
<path d="M30.7937 40.6676C30.7888 40.6667 30.7963 40.6262 30.7923 40.5542C30.7879 40.4827 30.7688 40.3773 30.7026 40.2667C30.6386 40.1573 30.5252 40.0422 30.3643 39.992C30.2057 39.9409 30.007 39.9533 29.8368 40.0458C29.6652 40.1373 29.555 40.3027 29.5083 40.4631C29.4586 40.6253 29.471 40.7836 29.5083 40.9053C29.5461 41.0284 29.607 41.116 29.6537 41.1711C29.7008 41.2262 29.7332 41.2511 29.7306 41.2547C29.7292 41.2569 29.6919 41.2373 29.639 41.1849C29.5866 41.1329 29.5181 41.0444 29.4741 40.9169C29.4301 40.7907 29.4132 40.6231 29.463 40.4502C29.5101 40.2796 29.6266 40.1 29.8123 40.0009C29.9954 39.9013 30.2083 39.8898 30.379 39.9471C30.5523 40.0044 30.6706 40.1316 30.7337 40.2489C30.799 40.3676 30.8137 40.4796 30.8119 40.5538C30.811 40.5911 30.8074 40.62 30.8026 40.6391C30.7986 40.6582 30.7954 40.668 30.7937 40.6676Z" fill="#3E1F18"/>
<path d="M31.4709 40.7578C31.466 40.7569 31.4753 40.7169 31.474 40.6444C31.4726 40.5729 31.4571 40.4667 31.3957 40.3538C31.3362 40.2422 31.2278 40.1227 31.0686 40.0658C30.9122 40.0084 30.7131 40.0129 30.5393 40.0987C30.3642 40.1831 30.2478 40.344 30.1944 40.5027C30.1384 40.6627 30.1442 40.8213 30.1771 40.9444C30.21 41.0689 30.2673 41.1591 30.3118 41.2156C30.3566 41.2724 30.3882 41.2987 30.3855 41.3018C30.3842 41.304 30.3478 41.2831 30.2966 41.2284C30.246 41.1742 30.1815 41.0836 30.1424 40.9542C30.1037 40.8262 30.0931 40.6582 30.15 40.4876C30.2038 40.3187 30.3273 40.1444 30.5171 40.0524C30.7042 39.96 30.9175 39.9569 31.0855 40.0213C31.2566 40.0853 31.3695 40.2169 31.4282 40.3369C31.4886 40.4582 31.4989 40.5707 31.494 40.6444C31.4913 40.6818 31.4869 40.7102 31.4811 40.7293C31.4758 40.7489 31.4726 40.7582 31.4709 40.7578Z" fill="#3E1F18"/>
<path d="M34.435 19.6538C34.1643 19.6462 33.8772 19.656 33.583 19.6924C31.8078 19.9124 30.4847 21.4373 30.4883 23.2262C30.4892 23.7471 30.5447 24.3302 30.7083 24.9102C31.2034 26.6671 31.3563 28.2164 31.2994 28.9707L32.9576 29.8622C32.9576 29.8622 33.7256 28.7591 34.467 28.2836C35.2087 27.8076 37.6776 26.536 38.655 25.2284C39.2852 24.3853 39.4061 22.6556 37.9043 21.1427C36.9865 20.2173 35.7367 19.6902 34.435 19.6538Z" fill="#F2BD8D"/>
<path d="M30.5146 30.8893L32.0128 31.6991L31.0377 32.9373L30.0391 32.4836L30.5146 30.8893Z" fill="#9F664E"/>
<path d="M30.5877 30.9391C30.5744 30.9342 30.7233 30.4898 30.9197 29.9462C31.1166 29.4022 31.2864 28.9658 31.2997 28.9702C31.3131 28.9751 31.1642 29.4196 30.9677 29.9636C30.7713 30.5071 30.6011 30.944 30.5877 30.9391Z" fill="#263138"/>
<path d="M31.9184 31.6382C31.9064 31.6311 32.1411 31.2111 32.4429 30.7C32.7446 30.1889 32.9989 29.7805 33.0113 29.788C33.0233 29.7951 32.7886 30.2151 32.4869 30.7262C32.1851 31.2369 31.9304 31.6453 31.9184 31.6382Z" fill="#263138"/>
<path d="M34.9349 19.7005C34.8678 19.704 34.0434 20.6693 33.6785 21.3222C32.4518 23.5196 32.3967 25.6578 32.0563 28.1507C32.0078 28.5067 31.8305 29.2747 31.834 29.2569C32.0154 29.3991 32.6256 29.6822 32.6256 29.6822C32.6256 29.6822 33.2007 28.988 33.4296 28.6387C34.3451 27.24 35.3389 26.1498 36.1229 24.6733C36.9065 23.1969 37.6607 21.8876 36.9354 20.3813C36.9349 20.3822 35.6789 19.6591 34.9349 19.7005Z" fill="#F2BD8D"/>
<path d="M38.6617 25.4489C38.6604 25.4493 38.6533 25.4329 38.6404 25.4013C38.6266 25.3702 38.611 25.3218 38.583 25.2622C38.5288 25.1422 38.4404 24.9698 38.2937 24.7751C38.1462 24.5822 37.9404 24.3644 37.6573 24.1813C37.3786 23.9942 37.0199 23.8458 36.6133 23.7951L36.6035 23.7938L36.5977 23.7858C36.407 23.5289 36.1888 23.2636 35.9284 23.0173C35.6688 22.772 35.3644 22.5462 35.0146 22.388C34.6657 22.2324 34.2893 22.1631 33.9346 22.1822C33.5795 22.2 33.247 22.3129 32.9893 22.4973L32.9742 22.508L32.9604 22.496C32.6524 22.2253 32.2835 22.0849 31.951 22.0476C31.6164 22.0089 31.3195 22.0707 31.0928 22.1569C30.8648 22.2436 30.7039 22.3542 30.5999 22.4342C30.5479 22.4747 30.5093 22.5076 30.4844 22.5307C30.459 22.5533 30.4453 22.5649 30.4444 22.564C30.4435 22.5631 30.4555 22.5498 30.479 22.5253C30.5026 22.5004 30.5399 22.4653 30.5906 22.4227C30.6924 22.3382 30.8528 22.2227 31.0826 22.1311C31.3106 22.0396 31.6128 21.9729 31.955 22.0093C32.2946 22.0449 32.6733 22.1849 32.9906 22.4613L32.9617 22.46C33.2257 22.2689 33.5679 22.152 33.931 22.1324C34.2942 22.112 34.6782 22.1822 35.0346 22.3413C35.3911 22.5022 35.6995 22.732 35.9617 22.9809C36.2244 23.2302 36.4435 23.4987 36.6337 23.7582L36.6177 23.7489C37.0324 23.8031 37.3964 23.9564 37.6773 24.1493C37.963 24.3378 38.1684 24.5609 38.3146 24.7582C38.4599 24.9573 38.5453 25.1338 38.5955 25.256C38.6213 25.3169 38.635 25.3662 38.6466 25.3987C38.6577 25.4316 38.663 25.4484 38.6617 25.4489Z" fill="#263138"/>
<path d="M35.5788 27.6382C35.5685 27.6418 35.5708 27.4884 35.4356 27.2778C35.3676 27.1756 35.2659 27.0596 35.117 26.972C34.9721 26.8822 34.7774 26.8218 34.5681 26.8418L34.5472 26.8436L34.5441 26.8231C34.5108 26.6102 34.4228 26.3836 34.2721 26.1827C34.1223 25.9827 33.9125 25.8044 33.657 25.7049C33.4472 25.6213 33.2236 25.592 33.0139 25.6062C32.8036 25.6213 32.6072 25.6809 32.441 25.768L32.4254 25.7764L32.4134 25.7636C32.2476 25.5858 32.0339 25.4862 31.8374 25.4516C31.6405 25.4116 31.461 25.4316 31.321 25.4676C31.0374 25.5449 30.917 25.6818 30.9112 25.6711C30.9103 25.6702 30.9179 25.6627 30.933 25.6489C30.949 25.6356 30.9703 25.6133 31.0032 25.5907C31.0676 25.544 31.1703 25.4836 31.3134 25.4413C31.4556 25.4004 31.6401 25.376 31.8441 25.4142C32.0472 25.4471 32.2712 25.5476 32.4472 25.7329L32.4192 25.728C32.5908 25.6364 32.793 25.5733 33.0103 25.5569C33.2272 25.5413 33.4583 25.5711 33.6761 25.6578C33.9414 25.7613 34.1583 25.9467 34.3121 26.1538C34.4668 26.3622 34.5561 26.5969 34.5881 26.8173L34.5641 26.7987C34.7859 26.7796 34.9876 26.8462 35.1361 26.9418C35.2885 27.0351 35.3908 27.1573 35.4574 27.2644C35.5236 27.3733 35.553 27.4698 35.5672 27.5356C35.5743 27.5684 35.5756 27.5947 35.5779 27.612C35.5796 27.6289 35.5796 27.6382 35.5788 27.6382Z" fill="#263138"/>
<path d="M31.7239 32.0889C31.7199 32.092 31.7075 32.0684 31.6688 32.0524C31.6301 32.0364 31.5679 32.0342 31.4937 32.0578C31.4559 32.068 31.4128 32.0818 31.3612 32.0822C31.3097 32.0831 31.2528 32.0582 31.2132 32.0169C31.1337 31.9342 31.1035 31.8142 31.0284 31.7316C30.991 31.6911 30.9421 31.6702 30.8901 31.6733C30.8381 31.6756 30.7861 31.6924 30.7341 31.7044C30.6826 31.7169 30.6275 31.7244 30.5772 31.7129C30.527 31.7022 30.4861 31.6773 30.4546 31.6502C30.391 31.5947 30.363 31.5289 30.3559 31.4836C30.3484 31.4378 30.3555 31.4124 30.3581 31.4129C30.3626 31.4129 30.3621 31.4378 30.3755 31.4787C30.3879 31.5191 30.4186 31.576 30.4777 31.6218C30.507 31.6444 30.5439 31.664 30.5857 31.6711C30.627 31.6791 30.6737 31.6716 30.723 31.6587C30.7728 31.6462 30.8257 31.6267 30.8884 31.6231C30.9515 31.6173 31.0217 31.6467 31.0657 31.6964C31.1528 31.7956 31.1799 31.9133 31.2475 31.984C31.2799 32.0187 31.3208 32.0382 31.3626 32.0396C31.4048 32.0413 31.4466 32.0307 31.4852 32.0227C31.5635 32.0022 31.6368 32.0098 31.6777 32.0347C31.7195 32.0596 31.7261 32.0889 31.7239 32.0889Z" fill="#263138"/>
<path d="M31.8954 31.8484C31.8888 31.8609 31.5617 31.6991 31.1648 31.4876C30.7679 31.2756 30.4514 31.0938 30.4581 31.0813C30.4648 31.0689 30.7919 31.2302 31.1892 31.4422C31.5857 31.6542 31.9021 31.836 31.8954 31.8484Z" fill="#263138"/>
<path d="M31.5981 32.2267C31.599 32.2307 31.5772 32.2369 31.5412 32.2538C31.523 32.2618 31.5021 32.2742 31.4736 32.2858C31.4452 32.2978 31.4083 32.3022 31.3705 32.2991C31.2959 32.2938 31.2034 32.2702 31.1239 32.204C31.0843 32.1716 31.0505 32.1244 31.0296 32.0747C31.0074 32.0258 30.9901 31.9756 30.9572 31.94C30.8888 31.8667 30.7776 31.8591 30.6856 31.8622C30.591 31.8658 30.4981 31.8684 30.4252 31.8373C30.3532 31.8071 30.3096 31.7564 30.2936 31.7164C30.2768 31.676 30.283 31.6511 30.2852 31.6516C30.2896 31.6511 30.291 31.6742 30.3114 31.7076C30.331 31.74 30.3732 31.7813 30.4381 31.8036C30.5025 31.8267 30.5874 31.8213 30.6839 31.8151C30.7776 31.8102 30.9048 31.8116 30.995 31.9053C31.0376 31.9524 31.055 32.0084 31.0754 32.0542C31.095 32.1013 31.1208 32.1387 31.1545 32.1684C31.2221 32.228 31.3052 32.2542 31.3736 32.2631C31.443 32.2756 31.4928 32.2467 31.5341 32.2351C31.5741 32.2231 31.5972 32.2236 31.5981 32.2267Z" fill="#263138"/>
<path d="M20.2858 22.6044L22.8765 22.2204L21.6378 20.4658L20.9734 20.5049C20.5263 20.5311 20.1325 20.8076 19.9552 21.2187C19.8609 21.4369 19.8347 21.6787 19.8801 21.9124L20.2858 22.6044Z" fill="#DB4F58"/>
<path opacity="0.4" d="M20.2858 22.6044L22.8765 22.2204L21.6378 20.4658L20.9734 20.5049C20.5263 20.5311 20.1325 20.8076 19.9552 21.2187C19.8609 21.4369 19.8347 21.6787 19.8801 21.9124L20.2858 22.6044Z" fill="#040000"/>
<path d="M31.4145 25.4751C31.4411 25.5493 31.4705 25.6373 31.4998 25.7422C31.5251 25.8324 31.534 25.9262 31.5278 26.0196C31.5203 26.1329 31.5038 26.2831 31.4696 26.3622C31.4269 26.4604 31.526 26.5596 31.61 26.5102C31.694 26.4609 31.818 26.1933 31.8105 25.8484C31.8029 25.5036 32.1545 25.9169 32.2856 26.0653C32.4167 26.2138 32.8429 26.6533 32.9203 26.6493C33.034 26.6431 33.0483 26.5204 32.914 26.3756C32.778 26.2289 32.4083 25.7671 32.49 25.7018C32.5705 25.6373 33.2265 26.4013 33.2265 26.4013C33.2265 26.4013 33.3403 26.5876 33.4371 26.5151C33.6118 26.3844 32.8549 25.6236 32.7807 25.5529C32.7296 25.504 32.8154 25.4298 32.8678 25.4853C32.9216 25.5427 33.5043 26.2627 33.6834 26.1316C33.8207 26.0311 33.0665 25.5 33.0287 25.2836C32.9909 25.0671 33.5598 25.7444 33.6874 25.6431C33.7349 25.6053 33.7651 25.5707 33.382 25.2289C33.1963 25.0631 32.4896 24.5684 32.4896 24.5684L30.3629 18.48L28.7207 19.4204L31.4145 25.4751Z" fill="#F9CBB6"/>
<path d="M18.7564 13.9618L16.3804 11.1262C16.3497 11.0289 16.3124 10.9338 16.264 10.8436C16.1453 10.6222 15.9488 10.4298 15.7035 10.376C15.5528 10.3431 15.3804 10.3587 15.2622 10.26C15.2093 10.2156 15.1742 10.1524 15.1186 10.1116C15.0631 10.0702 14.9711 10.0627 14.9355 10.1218C14.9102 10.164 14.9262 10.2178 14.9453 10.2631C15.0333 10.4724 15.1777 10.6573 15.3577 10.7956C15.1351 10.8631 14.8168 10.9658 14.8168 10.9658C14.8168 10.9658 14.3146 10.4209 14.0573 10.4227C13.8 10.4244 14.2653 10.9093 14.2653 10.9093C14.2653 10.9093 13.8533 10.5284 13.7257 10.636C13.5982 10.7431 13.9253 11.0258 13.9253 11.0258C13.8213 10.9702 13.7075 10.9129 13.5911 10.932C13.4746 10.9511 13.3746 11.0889 13.4373 11.1884C13.4613 11.2267 13.5026 11.2502 13.5417 11.2724C13.7524 11.3898 13.9635 11.5076 14.1742 11.6249C14.28 11.684 14.3911 11.7444 14.5124 11.748C14.8333 11.7578 15.0773 11.5591 15.3982 11.568C15.3982 11.568 17.1902 15.34 17.3711 15.5342C17.5524 15.7289 21.4884 15.9938 21.4884 15.9938L23.7666 14.0307L18.7564 13.9618Z" fill="#F9CBB6"/>
<path d="M25.8929 34.5071L28.3196 35.564L27.02 38.5898C26.7387 38.448 26.8307 36.6333 26.8307 36.6333L25.248 36.02L25.8929 34.5071Z" fill="#C77859"/>
<g opacity="0.6">
<path d="M27.101 35.6413C27.1423 35.5898 27.2254 35.5773 27.2788 35.6164C27.3321 35.6556 27.3454 35.74 27.305 35.7924C27.2645 35.8449 27.1654 35.8627 27.1165 35.8178C27.0681 35.7729 27.0579 35.6729 27.1094 35.6316" fill="white"/>
</g>
<path d="M28.3188 35.5635L28.0699 35.4667L26.917 38.404C26.917 38.404 26.9179 38.564 27.0192 38.5893L28.3188 35.5635Z" fill="#3E1F18"/>
<path d="M26.7943 36.6756C26.8094 36.6813 26.8476 36.6102 26.9263 36.5582C27.0036 36.504 27.0836 36.4938 27.0836 36.4778C27.0867 36.4631 26.989 36.4471 26.8947 36.512C26.8005 36.576 26.7796 36.6729 26.7943 36.6756Z" fill="#3E1F18"/>
<path d="M26.7886 37.0493C26.8015 37.0587 26.8539 37.0058 26.9379 36.9822C27.0215 36.9564 27.0944 36.9729 27.1002 36.9578C27.1086 36.9449 27.0264 36.8973 26.9224 36.9284C26.8184 36.9587 26.7748 37.0427 26.7886 37.0493Z" fill="#3E1F18"/>
<path d="M27.0918 37.3924C27.1007 37.3804 27.0358 37.328 26.9384 37.3311C26.8411 37.3338 26.7793 37.3898 26.7891 37.4009C26.7975 37.4147 26.8602 37.3884 26.9402 37.3867C27.0198 37.384 27.0838 37.4067 27.0918 37.3924Z" fill="#3E1F18"/>
<path d="M26.449 36.4956C26.465 36.4951 26.4739 36.4187 26.5153 36.3373C26.5553 36.2556 26.6113 36.2027 26.6019 36.1893C26.5948 36.176 26.513 36.216 26.4655 36.3124C26.417 36.4084 26.4344 36.4978 26.449 36.4956Z" fill="#263138"/>
<path d="M26.1214 36.2693C26.1276 36.272 26.1618 36.2178 26.1858 36.1173C26.1978 36.0676 26.2063 36.0062 26.2054 35.9378C26.2049 35.9036 26.2023 35.8676 26.1965 35.8311C26.1934 35.8133 26.1916 35.7929 26.1805 35.7702C26.1721 35.7471 26.1369 35.7213 26.1049 35.7298C26.0752 35.7351 26.0534 35.7582 26.0432 35.78C26.0329 35.8018 26.0294 35.8218 26.0267 35.84C26.0205 35.8773 26.0178 35.9138 26.0187 35.948C26.0201 36.0169 26.0334 36.0782 26.0503 36.1271C26.0849 36.2253 26.1298 36.2729 26.1352 36.2689C26.1427 36.2644 26.1112 36.2102 26.0885 36.116C26.0769 36.0689 26.0689 36.0116 26.0703 35.948C26.0712 35.9164 26.0743 35.8831 26.0809 35.8493C26.0863 35.8138 26.0978 35.7862 26.1156 35.784C26.1223 35.7836 26.1245 35.784 26.1312 35.7947C26.1369 35.8053 26.1396 35.8218 26.1427 35.8396C26.1485 35.8738 26.1525 35.9071 26.1543 35.9391C26.1578 36.0031 26.1538 36.0613 26.1476 36.1098C26.1338 36.2076 26.1134 36.2662 26.1214 36.2693Z" fill="#263138"/>
<path d="M26.1499 36.2591C26.1543 36.2547 26.1139 36.2027 26.0205 36.1565C25.9743 36.1333 25.9143 36.1138 25.8459 36.1058C25.8116 36.1022 25.7748 36.1013 25.7374 36.1049C25.7001 36.1098 25.6508 36.1142 25.6192 36.1689C25.6054 36.1982 25.6179 36.2333 25.6343 36.2502C25.6503 36.2689 25.6672 36.2787 25.6832 36.2898C25.7161 36.3107 25.7512 36.3249 25.7854 36.3338C25.8539 36.352 25.9188 36.3485 25.9699 36.3365C26.0739 36.3111 26.1179 36.2569 26.1134 36.2533C26.1081 36.2453 26.0574 36.2845 25.9628 36.2973C25.9161 36.3036 25.8583 36.3027 25.7996 36.284C25.7703 36.2751 25.741 36.2618 25.7134 36.2436C25.6832 36.2249 25.6628 36.2018 25.6712 36.1911C25.6774 36.176 25.7125 36.1609 25.7436 36.1596C25.7774 36.1556 25.8103 36.1551 25.8419 36.1573C25.9045 36.1618 25.9605 36.176 26.0059 36.1929C26.0956 36.2267 26.1441 36.2662 26.1499 36.2591Z" fill="#263138"/>
<path d="M24.0244 38.6635L25.028 40.7662L25.3422 42.6582C25.3649 42.7947 25.4982 42.8831 25.6329 42.8515C25.708 42.8338 25.7697 42.7813 25.7991 42.7093C25.9835 42.2524 26.6537 40.5689 26.572 40.4191C26.4769 40.2458 25.6604 38.1311 25.6604 38.1311L24.0244 38.6635Z" fill="#C77859"/>
<path d="M25.6328 42.8511L26.507 40.2751L26.5475 40.3653C26.5826 40.4431 26.5893 40.5307 26.5653 40.6129C26.5017 40.832 26.3128 41.4338 25.8053 42.7062C25.7759 42.78 25.711 42.8347 25.6328 42.8511Z" fill="#3E1F18"/>
<g opacity="0.6">
<path d="M25.763 39.7858C25.7261 39.8467 25.7452 39.9347 25.8043 39.9742C25.8634 40.0133 25.9536 39.9951 25.9914 39.9351C26.0292 39.8751 26.0096 39.7684 25.9465 39.736C25.8834 39.7035 25.779 39.7311 25.7568 39.7982" fill="white"/>
</g>
<path d="M25.7015 41.7044C25.6922 41.7155 25.594 41.6258 25.4411 41.6231C25.2878 41.6155 25.1842 41.6982 25.1753 41.6862C25.1713 41.6818 25.1904 41.6533 25.2371 41.624C25.2833 41.5947 25.358 41.5693 25.4429 41.572C25.5273 41.5751 25.6007 41.6058 25.6442 41.6382C25.6887 41.6702 25.706 41.7004 25.7015 41.7044Z" fill="#3E1F18"/>
<path d="M25.6774 42.0569C25.6716 42.0707 25.5721 42.032 25.4481 42.0502C25.3236 42.0653 25.2379 42.1284 25.2285 42.1169C25.2174 42.1089 25.2996 42.0178 25.4414 41.9995C25.5828 41.98 25.6859 42.0462 25.6774 42.0569Z" fill="#263138"/>
<path d="M25.8193 41.2129C25.814 41.2275 25.6615 41.1675 25.466 41.1787C25.2704 41.1867 25.1247 41.2609 25.1175 41.2471C25.1091 41.2373 25.2535 41.1369 25.4633 41.1275C25.6731 41.1164 25.8269 41.2022 25.8193 41.2129Z" fill="#3E1F18"/>
<path d="M25.5677 40.5484C25.5677 40.5635 25.4281 40.5675 25.273 40.6307C25.117 40.6915 25.013 40.7849 25.0028 40.7738C24.9921 40.7662 25.0863 40.6489 25.2543 40.5831C25.421 40.5155 25.5699 40.5355 25.5677 40.5484Z" fill="#3E1F18"/>
<path d="M25.2884 39.9235C25.2876 39.9387 25.1373 39.9209 24.9796 40.0009C24.8196 40.0773 24.7422 40.2067 24.7298 40.1982C24.7244 40.1955 24.7356 40.1582 24.772 40.108C24.808 40.0578 24.872 39.9973 24.9573 39.9551C25.0431 39.9133 25.1302 39.8995 25.1916 39.9018C25.2533 39.9035 25.2893 39.9173 25.2884 39.9235Z" fill="#3E1F18"/>
<path d="M24.9296 39.8804C24.927 39.8818 24.9092 39.8551 24.8905 39.8013C24.8723 39.7476 24.8532 39.6653 24.8599 39.5622C24.8652 39.5124 24.8661 39.4511 24.9128 39.3964C24.9359 39.3689 24.9825 39.3547 25.0203 39.3716C25.0576 39.3876 25.0812 39.4191 25.0972 39.4524C25.1554 39.5884 25.0985 39.7707 24.9554 39.8582C24.8105 39.9436 24.6336 39.9187 24.5208 39.8293C24.4941 39.8053 24.4683 39.7724 24.4688 39.7289C24.4688 39.6853 24.5052 39.6516 24.5381 39.6431C24.6056 39.624 24.6616 39.6427 24.711 39.6529C24.8105 39.6787 24.8839 39.7204 24.9301 39.7529C24.9768 39.7858 24.9976 39.8093 24.9959 39.8116C24.991 39.8204 24.8954 39.7311 24.7025 39.688C24.655 39.6796 24.599 39.6671 24.5519 39.6831C24.5288 39.6907 24.5136 39.7084 24.5136 39.7298C24.5132 39.7507 24.5296 39.7751 24.5519 39.7938C24.6456 39.8662 24.8074 39.8884 24.9288 39.8147C25.0501 39.7422 25.0999 39.5813 25.0541 39.4716C25.0425 39.4453 25.0239 39.4222 25.003 39.4129C24.9825 39.404 24.9594 39.4089 24.9434 39.4258C24.9096 39.4609 24.9021 39.5182 24.8959 39.5653C24.8763 39.7618 24.9399 39.8787 24.9296 39.8804Z" fill="#3E1F18"/>
<path d="M27.4057 34.764L24.6546 32.912L25.5652 23.9702L22.959 22.4484L20.5759 21.896C20.5759 21.896 19.5804 23.9667 19.1377 25.2924C18.1964 28.1116 17.5355 29.1218 17.6866 31.1653C17.7346 31.812 20.1226 33.4302 21.631 34.3289C21.6519 34.5351 21.6781 34.7156 21.711 34.8644C22.2266 37.1947 23.7999 40.2933 23.7999 40.2933L26.191 39.1818L25.4195 36.5396L26.223 37.008L27.4057 34.764ZM21.4915 28.9982L21.8124 27.5649C21.7444 28.476 21.6826 29.4267 21.6381 30.3387C21.4835 29.9173 21.431 29.4489 21.4915 28.9982Z" fill="#583126"/>
<path d="M23.7996 40.2929C23.7987 40.2933 23.7925 40.2804 23.7809 40.2551C23.7689 40.2275 23.7525 40.1902 23.7316 40.1422C23.6885 40.04 23.6263 39.8938 23.5467 39.7062C23.388 39.3267 23.1605 38.7769 22.8867 38.0942C22.6147 37.4111 22.2907 36.5973 21.964 35.6804C21.8827 35.4511 21.8032 35.2147 21.728 34.9711C21.6947 34.8475 21.6534 34.7258 21.6316 34.5951C21.6254 34.5627 21.6178 34.5307 21.6125 34.4982L21.6009 34.4009C21.5938 34.3355 21.5863 34.2702 21.5792 34.2044C21.5512 33.9409 21.528 33.6724 21.5107 33.3995C21.5018 33.2631 21.4947 33.1253 21.4894 32.9867C21.4845 32.8484 21.4783 32.7075 21.4863 32.5671C21.5267 31.4435 21.6214 30.3787 21.6987 29.4093C21.7796 28.4409 21.8525 27.5684 21.9138 26.8351C21.9734 26.1022 22.0147 25.5089 22.0383 25.0982C22.0512 24.8929 22.0583 24.7338 22.0632 24.6253C22.0658 24.5733 22.068 24.5324 22.0698 24.5022C22.0716 24.4747 22.0729 24.4604 22.0738 24.4604C22.0747 24.4604 22.0752 24.4747 22.0752 24.5022C22.0747 24.5324 22.0743 24.5733 22.0734 24.6253C22.072 24.7338 22.068 24.8933 22.0583 25.0987C22.0409 25.5098 22.0049 26.104 21.9503 26.8373C21.892 27.5711 21.8227 28.444 21.7458 29.4129C21.6707 30.3818 21.5778 31.448 21.5374 32.568C21.5294 32.708 21.5356 32.8458 21.5405 32.9844C21.5458 33.1227 21.5529 33.26 21.5618 33.396C21.5787 33.6684 21.6018 33.936 21.6294 34.1991C21.6365 34.2649 21.6436 34.3302 21.6512 34.3951L21.6623 34.4924C21.6676 34.5244 21.6747 34.5555 21.6805 34.5871C21.7009 34.7129 21.7427 34.8355 21.7752 34.9578C21.8489 35.2004 21.928 35.4364 22.0085 35.6658C22.332 36.5818 22.6525 37.3969 22.92 38.0818C23.1916 38.7631 23.4116 39.3151 23.5645 39.6995C23.64 39.8884 23.6992 40.0364 23.7405 40.1391C23.7596 40.1875 23.7743 40.2258 23.7854 40.2538C23.7956 40.2791 23.8 40.2924 23.7996 40.2929Z" fill="#3E1F18"/>
<path d="M21.9603 24.1578C21.958 24.1604 21.9363 24.1427 21.8976 24.1071C21.8616 24.0693 21.818 24.0058 21.7812 23.92C21.7069 23.748 21.6696 23.4907 21.6638 23.2107C21.6589 22.9298 21.6794 22.6764 21.698 22.4942C21.7172 22.312 21.7327 22.2 21.7394 22.2004C21.7465 22.2009 21.7438 22.3147 21.734 22.4973C21.7247 22.68 21.71 22.932 21.7149 23.2098C21.7207 23.4871 21.7518 23.7382 21.8149 23.9071C21.8465 23.9911 21.8829 24.0542 21.9127 24.0947C21.9452 24.132 21.9625 24.1551 21.9603 24.1578Z" fill="#3E1F18"/>
<path d="M20.931 22.0298C20.9363 22.0289 20.9608 22.1236 20.9515 22.28C20.943 22.4351 20.8901 22.6533 20.7541 22.8524C20.6181 23.052 20.4346 23.1809 20.2932 23.2453C20.151 23.3116 20.0537 23.3231 20.0528 23.3178C20.0501 23.3093 20.143 23.2853 20.2768 23.2129C20.4097 23.1418 20.5817 23.0138 20.7115 22.8231C20.8412 22.6324 20.8977 22.4258 20.915 22.276C20.9337 22.1258 20.9221 22.0307 20.931 22.0298Z" fill="#3E1F18"/>
<path d="M25.2061 27.2284C25.207 27.2284 25.207 27.2378 25.2057 27.2555C25.2039 27.2764 25.2017 27.3027 25.199 27.3351C25.1914 27.4089 25.1812 27.5107 25.1683 27.6404C25.139 27.9093 25.0972 28.2916 25.0461 28.7622C24.9385 29.7124 24.7905 31.0182 24.6274 32.4613C24.5643 33.1836 24.6274 33.8787 24.763 34.4911C24.8301 34.7982 24.9185 35.0831 25.0119 35.3467C25.1043 35.6107 25.1905 35.8569 25.2697 36.0822C25.4248 36.5298 25.5505 36.8929 25.6394 37.1484C25.6812 37.272 25.7137 37.3689 25.7377 37.4391C25.7474 37.4702 25.7554 37.4951 25.7621 37.5151C25.7674 37.5324 25.7697 37.5413 25.7688 37.5418C25.7679 37.5422 25.7639 37.5338 25.7572 37.5169C25.7497 37.4973 25.7399 37.4729 25.7283 37.4427C25.7025 37.3733 25.6665 37.2773 25.6212 37.1551C25.5288 36.9009 25.3977 36.5395 25.2363 36.0942C25.1554 35.8698 25.0674 35.624 24.9728 35.3609C24.8772 35.0973 24.7861 34.8098 24.7177 34.5013C24.5785 33.8853 24.5137 33.1844 24.5772 32.4569C24.7381 31.0102 24.8981 29.7053 25.011 28.7587C25.0692 28.2889 25.1163 27.9071 25.1492 27.6387C25.1661 27.5093 25.1799 27.4076 25.1892 27.3342C25.1941 27.3018 25.1981 27.276 25.2008 27.2551C25.2034 27.2373 25.2052 27.228 25.2061 27.2284Z" fill="#3E1F18"/>
<path d="M20.5762 21.8787L20.998 20.8004L21.9611 22.2364L20.6771 21.9156" fill="#F9CBB6"/>
<path d="M30.6535 18.6369L29.5104 16.0747C29.3739 15.6627 29.1175 15.5987 28.9028 15.3596L26.0397 13.7449C23.953 12.8902 22.817 15.7565 22.817 15.7565L20.9201 20.0827C18.6899 20.8222 20.269 22.5351 20.269 22.5351C20.269 22.5351 19.6624 21.4805 20.2588 21.1C20.8837 20.7018 21.5761 21.7511 22.2415 22.748C23.0272 23.9249 25.5801 24.6893 25.5801 24.6893C25.8788 24.3738 25.7952 23.2725 26.029 22.6818C26.1032 22.4942 27.8712 18.3996 27.8712 18.3996L28.5566 20.06C28.5566 20.06 29.4352 19.0302 29.8606 18.8662C30.2864 18.7022 30.6535 18.6369 30.6535 18.6369Z" fill="#D19D74"/>
<path d="M25.5801 20.4578C25.5819 20.4604 25.5517 20.4831 25.4935 20.5182C25.4353 20.5533 25.3473 20.5987 25.233 20.6418C25.0064 20.7289 24.6637 20.7969 24.2921 20.7396C23.9201 20.6822 23.6139 20.5142 23.4241 20.3627C23.3281 20.2871 23.2579 20.2173 23.213 20.1662C23.1681 20.1151 23.1464 20.0844 23.1486 20.0822C23.1557 20.0756 23.2521 20.192 23.4459 20.3333C23.6375 20.4747 23.9384 20.6324 24.2997 20.6884C24.661 20.744 24.9953 20.6844 25.2206 20.6071C25.4481 20.5311 25.5753 20.4493 25.5801 20.4578Z" fill="#391912"/>
<path d="M20.835 16.3947L22.6021 16.5613L25.4288 13.5733L23.7661 13.5164L20.8057 13.8084C20.8057 13.8089 21.0679 15.0427 20.835 16.3947Z" fill="#D19D74"/>
<path d="M23.2895 14.8205C23.2913 14.8213 23.2837 14.84 23.2677 14.8751C23.2491 14.9151 23.2255 14.9653 23.1966 15.0276C23.1317 15.1658 23.0429 15.3556 22.9344 15.5876C22.7149 16.0609 22.4233 16.7205 22.1073 17.452C21.7913 18.1836 21.5037 18.8458 21.2864 19.3205C21.178 19.5582 21.0886 19.7493 21.0242 19.8809C20.9935 19.9422 20.9691 19.992 20.9495 20.0316C20.9317 20.0658 20.922 20.0836 20.9202 20.0827C20.9184 20.0818 20.9255 20.0627 20.9402 20.0271C20.9575 19.9867 20.9793 19.9356 21.0064 19.8725C21.0677 19.7325 21.1513 19.5405 21.254 19.3058C21.4629 18.8205 21.7469 18.1609 22.0611 17.4316C22.3771 16.7 22.6744 16.0422 22.9024 15.572C23.0162 15.3369 23.1109 15.148 23.1793 15.0187C23.2117 14.9582 23.238 14.9093 23.2589 14.8702C23.2771 14.8369 23.2877 14.8196 23.2895 14.8205Z" fill="#391912"/>
<path d="M28.6823 15.6893C28.6872 15.6982 28.5779 15.7551 28.4281 15.8822C28.353 15.9449 28.2712 16.0289 28.1894 16.1293C28.1099 16.2311 28.0312 16.3502 27.9654 16.4845C27.9014 16.6191 27.8561 16.7547 27.8254 16.8805C27.7974 17.0067 27.7823 17.1227 27.7796 17.2209C27.7725 17.4169 27.7956 17.5387 27.7854 17.54C27.7819 17.5405 27.7743 17.5107 27.7641 17.456C27.7583 17.4285 27.7525 17.3947 27.7503 17.3551C27.7476 17.3156 27.7414 17.2702 27.7436 17.2205C27.7419 17.12 27.7534 17.0005 27.7796 16.8707C27.8085 16.7413 27.8534 16.6013 27.9196 16.4627C27.9876 16.3249 28.0694 16.2031 28.1534 16.1005C28.2396 15.9991 28.3259 15.916 28.4059 15.8551C28.4441 15.8222 28.4832 15.7991 28.5161 15.7769C28.5485 15.7542 28.5787 15.7378 28.6036 15.7253C28.6525 15.6987 28.6805 15.6862 28.6823 15.6893Z" fill="#391912"/>
<path d="M29.1785 11.5916L27.5208 14.6902C27.2501 15.196 26.6345 15.4067 26.1105 15.1724C25.5341 14.9142 25.2954 14.2227 25.5905 13.664C25.747 13.3684 25.8768 13.1271 25.8768 13.1271C25.8768 13.1271 25.1559 12.66 25.4932 11.8813C25.7941 11.1867 26.8981 9.22534 27.1323 8.81067L28.5296 9.436C29.3141 9.84356 29.6079 10.8182 29.1785 11.5916Z" fill="#F9CBB6"/>
<path d="M25.8787 13.1093C25.8787 13.1093 26.3502 13.368 27.0169 13.2742C27.0169 13.2742 26.5289 13.7249 25.7871 13.3093L25.8787 13.1093Z" fill="#E3956B"/>
<path d="M27.7715 10.5831C27.7689 10.6209 27.8946 10.6587 28.0266 10.7378C28.1604 10.8142 28.2546 10.9058 28.2862 10.8849C28.3009 10.8747 28.2946 10.8356 28.2631 10.7836C28.232 10.732 28.1733 10.6702 28.0937 10.6231C28.0142 10.5764 27.9315 10.5556 27.8711 10.5533C27.8106 10.5516 27.7737 10.5653 27.7715 10.5831Z" fill="#2F1615"/>
<path d="M26.6311 10.1929C26.64 10.2293 26.7347 10.2378 26.8338 10.2809C26.9342 10.32 27.0076 10.3804 27.0396 10.3609C27.0542 10.3511 27.0529 10.3178 27.028 10.276C27.0036 10.2342 26.9529 10.1867 26.884 10.1582C26.8151 10.1302 26.7458 10.1284 26.6991 10.1404C26.652 10.1524 26.628 10.1755 26.6311 10.1929Z" fill="#2F1615"/>
<path d="M28.6554 12.0502C28.671 12.0502 29.2581 12.1311 29.0043 12.6529C28.7506 13.1747 28.279 12.8125 28.2852 12.7969C28.2914 12.7813 28.6554 12.0502 28.6554 12.0502Z" fill="#F9CBB6"/>
<path d="M28.5404 12.6769C28.5435 12.6765 28.5466 12.6876 28.5582 12.7022C28.5697 12.7164 28.5933 12.7338 28.6253 12.7369C28.6902 12.7436 28.779 12.6787 28.8275 12.5858C28.8519 12.5391 28.8639 12.4889 28.8653 12.4431C28.8679 12.3973 28.8564 12.3587 28.831 12.34C28.8066 12.32 28.7786 12.3271 28.7653 12.3387C28.751 12.3498 28.7493 12.3618 28.7462 12.3613C28.7439 12.3618 28.739 12.3471 28.7537 12.3276C28.7608 12.3182 28.7728 12.3089 28.7902 12.3049C28.8075 12.3009 28.8284 12.3044 28.847 12.316C28.8862 12.3382 28.9039 12.3929 28.9026 12.4431C28.903 12.4947 28.8906 12.5511 28.8635 12.604C28.8088 12.7076 28.7075 12.7796 28.6213 12.7649C28.5799 12.7565 28.5546 12.7307 28.5448 12.7107C28.535 12.6898 28.5382 12.6769 28.5404 12.6769Z" fill="#E3956B"/>
<path d="M28.958 12.164C28.886 12.1084 28.7131 12.1204 28.6447 12.1804C28.5762 12.2404 28.5305 12.3231 28.4625 12.3831C28.3945 12.4436 28.286 12.4769 28.2136 12.4218C28.1638 12.3836 28.1474 12.3133 28.1571 12.2516C28.1674 12.1898 28.1994 12.1338 28.2318 12.08C28.3736 11.8467 28.5354 11.6249 28.6567 11.38C28.778 11.1356 28.8585 10.8609 28.8225 10.5902C28.7865 10.3196 28.6162 10.056 28.3589 9.96489C28.1882 9.90445 27.9989 9.92267 27.8251 9.87245C27.6194 9.81289 27.4447 9.65289 27.3678 9.45245C27.358 9.42667 27.2998 9.33511 27.2998 9.33511C27.3056 9.32222 27.3674 9.21733 27.4287 9.19645C27.8874 9.04178 28.5091 9.21956 28.8891 9.51911C29.2691 9.81867 29.5354 10.3009 29.5403 10.7849C29.546 11.2693 29.2411 11.8031 28.958 12.164Z" fill="#2F1615"/>
<path d="M28.9626 12.112C29.1075 11.8653 29.3431 11.6867 29.5226 11.464C29.7022 11.2413 29.9048 10.9671 29.7768 10.7111C29.7333 10.6236 29.7622 10.4858 29.7257 10.3951C29.6888 10.304 29.7115 10.1911 29.6973 10.0938C29.6537 9.79333 29.4351 9.44222 29.1697 9.29422C28.9862 9.192 28.6746 9.02889 28.4888 8.93111C28.1946 8.77644 27.9075 8.72311 27.5982 8.60044C27.4955 8.56 27.3755 8.54 27.2773 8.59067C27.1791 8.64133 27.1266 8.78355 27.1982 8.86755C27.1853 8.76889 27.0577 8.71467 26.9666 8.75555C26.876 8.79644 26.8293 8.90444 26.8355 9.004C26.8417 9.10355 26.8911 9.19511 26.948 9.27644C27.136 9.54533 27.4231 9.74311 27.7413 9.82267L28.4524 9.76711L29.0355 10.1991L29.4671 10.8858L28.6844 11.9022L28.9626 12.112Z" fill="#2F1615"/>
<path d="M24.5133 8.05777C24.424 6.67377 23.2293 5.62399 21.8449 5.71333C20.4609 5.80266 19.4111 6.99733 19.5004 8.38177C19.5653 9.38399 20.2093 10.2102 21.0853 10.5564C21.1044 10.8533 21.1262 11.1889 21.1262 11.1889L23.3231 11.0471C23.3231 11.0471 23.3133 10.6915 23.2978 10.3742C24.0782 9.90577 24.576 9.02888 24.5133 8.05777Z" fill="#F2BD8D"/>
<path d="M22.5277 11.088C22.5277 11.088 22.5273 11.0773 22.5282 11.0569C22.5291 11.0351 22.5309 11.0049 22.5326 10.9658C22.5371 10.8858 22.5437 10.7676 22.5562 10.616C22.5686 10.4644 22.5864 10.2787 22.6206 10.0649C22.6557 9.85155 22.7069 9.60844 22.8029 9.35289C22.8509 9.22489 22.9077 9.09378 22.9846 8.96444C23.0246 8.90133 23.0753 8.83867 23.146 8.79955C23.2166 8.76 23.3077 8.75422 23.3846 8.792C23.4224 8.81067 23.4557 8.84444 23.4704 8.88622C23.4864 8.92711 23.4851 8.97511 23.4682 9.01555C23.4344 9.09733 23.3642 9.15733 23.2855 9.19511C23.1237 9.26355 22.9322 9.26133 22.762 9.192C22.5913 9.12267 22.4495 8.97689 22.3811 8.79689C22.3482 8.70755 22.3269 8.60844 22.3477 8.50889C22.3651 8.41022 22.454 8.31689 22.5642 8.32C22.6189 8.32044 22.6704 8.35422 22.6975 8.4C22.7255 8.44533 22.7357 8.50089 22.7277 8.55333C22.7104 8.65955 22.6397 8.74266 22.5677 8.81378C22.4184 8.95466 22.2077 9.04089 21.9944 9.02089C21.7824 9.00089 21.5855 8.87466 21.4864 8.69111C21.4349 8.60089 21.4166 8.48889 21.45 8.38844C21.4669 8.33911 21.502 8.29155 21.5526 8.27066C21.6024 8.24755 21.6606 8.25333 21.7077 8.27466C21.7553 8.296 21.7953 8.33378 21.8206 8.37778C21.8469 8.42178 21.8606 8.47111 21.8682 8.51955C21.8815 8.61733 21.874 8.716 21.8486 8.80844C21.7993 8.99422 21.6793 9.156 21.5224 9.25155C21.3664 9.34844 21.1797 9.38311 21.0082 9.35644C20.9233 9.34355 20.8357 9.31555 20.7749 9.25155C20.7153 9.18889 20.6926 9.08489 20.7455 9.01111C20.7717 8.97555 20.8135 8.95467 20.8544 8.94889C20.8957 8.94311 20.938 8.94889 20.9753 8.96444C21.0522 8.99644 21.102 9.06267 21.1397 9.12667C21.2113 9.25867 21.2704 9.38755 21.33 9.51022C21.5629 10.0022 21.7322 10.4093 21.846 10.6916C21.9029 10.8329 21.9451 10.9431 21.974 11.0178C21.9877 11.0542 21.998 11.0827 22.0055 11.1031C22.0126 11.1222 22.0153 11.1324 22.0153 11.1324C22.0153 11.1324 22.0104 11.1231 22.0024 11.104C21.994 11.084 21.9829 11.056 21.9677 11.0196C21.9366 10.9444 21.8922 10.8351 21.8344 10.6956C21.7171 10.4147 21.5451 10.0093 21.31 9.51911C21.2504 9.39733 21.1895 9.26711 21.1189 9.13822C21.082 9.076 21.0335 9.01467 20.9655 8.98711C20.8993 8.95955 20.8095 8.96578 20.7651 9.02622C20.7215 9.08622 20.7397 9.17866 20.7931 9.23333C20.8477 9.29066 20.9295 9.31733 21.0113 9.32978C21.1762 9.35511 21.3562 9.32089 21.506 9.22755C21.6562 9.13511 21.7713 8.97955 21.8184 8.80089C21.8429 8.712 21.85 8.61689 21.8371 8.524C21.8246 8.43289 21.7797 8.33955 21.694 8.30222C21.6526 8.28355 21.6042 8.27911 21.5633 8.29822C21.5215 8.31555 21.4922 8.35422 21.4771 8.39822C21.4477 8.488 21.4633 8.59155 21.5117 8.676C21.6051 8.84978 21.794 8.97111 21.9957 8.98978C22.1989 9.00889 22.4015 8.92622 22.5451 8.79111C22.6153 8.72266 22.6811 8.64222 22.6962 8.54844C22.7033 8.50266 22.6944 8.45466 22.6704 8.416C22.6469 8.37733 22.6064 8.35066 22.562 8.35022C22.5175 8.34889 22.4731 8.368 22.4402 8.39866C22.4064 8.42889 22.3855 8.47111 22.3762 8.51555C22.3571 8.60578 22.3766 8.70089 22.4082 8.78666C22.4735 8.95911 22.6095 9.09955 22.7726 9.16622C22.9349 9.23378 23.1215 9.23555 23.2735 9.17111C23.3473 9.13644 23.4135 9.07911 23.4433 9.00666C23.4749 8.93466 23.4411 8.84755 23.3726 8.81555C23.3055 8.78178 23.2211 8.78622 23.158 8.82222C23.0926 8.85822 23.0437 8.91689 23.0046 8.97822C22.9286 9.104 22.8713 9.23511 22.8229 9.36133C22.7264 9.61466 22.674 9.85644 22.6371 10.0684C22.6015 10.2813 22.582 10.4667 22.5677 10.6178C22.5553 10.7684 22.5451 10.8858 22.5384 10.9671C22.5353 11.0062 22.5326 11.0364 22.5309 11.0578C22.5295 11.0773 22.5277 11.088 22.5277 11.088Z" fill="#462118"/>
<path d="M23.1807 11.4644L21.2945 11.5862C21.2163 11.5911 21.1487 11.532 21.1438 11.4538C21.1389 11.3755 21.1981 11.308 21.2763 11.3031L23.1625 11.1813C23.2407 11.1764 23.3083 11.2356 23.3132 11.3138C23.3181 11.392 23.2589 11.4596 23.1807 11.4644Z" fill="#462118"/>
<path d="M23.1889 11.588L21.3026 11.7098C21.2244 11.7147 21.1653 11.7822 21.1702 11.8604C21.1751 11.9387 21.2426 11.9978 21.3209 11.9929L21.528 11.9795L21.8364 12.4844C21.8715 12.5422 21.936 12.5755 22.0035 12.5711L22.6773 12.5275C22.7458 12.5231 22.8058 12.4809 22.8329 12.4182L23.0662 11.88L23.2071 11.8711C23.2853 11.8662 23.3444 11.7987 23.3395 11.7204C23.3346 11.6422 23.2671 11.5831 23.1889 11.588Z" fill="#462118"/>
<g opacity="0.2">
<path d="M20.2935 6.72711C20.4522 6.56044 20.6215 6.44 20.7739 6.36089C20.9264 6.28133 21.0588 6.23955 21.153 6.22355C21.2473 6.20755 21.3019 6.21333 21.3077 6.23289C21.3215 6.27778 21.1357 6.35733 20.8908 6.54489C20.6468 6.72889 20.3459 7.04222 20.1802 7.46844C20.0153 7.89511 20.0259 8.32933 20.0824 8.62978C20.1366 8.93333 20.2202 9.11733 20.1797 9.14133C20.1619 9.152 20.1179 9.11911 20.0593 9.044C20.0002 8.96889 19.9308 8.84844 19.8722 8.68711C19.813 8.52622 19.769 8.32266 19.7642 8.09289C19.7588 7.86355 19.797 7.608 19.8926 7.35689" fill="white"/>
</g>
<g opacity="0.2">
<path d="M21.9173 6.30222C21.7582 6.31111 21.6156 6.27644 21.5938 6.19333C21.584 6.152 21.6107 6.10578 21.6658 6.06711C21.7205 6.02889 21.804 5.99956 21.8991 5.99378C21.9942 5.988 22.0805 6.00711 22.1396 6.03911C22.1987 6.07067 22.2307 6.11378 22.2258 6.15556" fill="white"/>
</g>
<path d="M22.8003 12.4658C22.7985 12.4707 22.7496 12.452 22.6683 12.4342C22.5869 12.4164 22.4718 12.4031 22.3456 12.4147C22.2194 12.4267 22.1087 12.4613 22.0323 12.4938C21.9554 12.5262 21.9109 12.5538 21.9083 12.5493C21.9065 12.5467 21.9469 12.5124 22.0229 12.4738C22.0989 12.4351 22.2123 12.396 22.3425 12.3835C22.4727 12.3715 22.5914 12.3889 22.6731 12.4129C22.7554 12.4364 22.8016 12.4627 22.8003 12.4658Z" fill="#221407"/>
<path d="M23.07 11.8867C23.0704 11.8951 22.73 11.924 22.3095 11.9511C21.8887 11.9782 21.5473 11.9933 21.5469 11.9849C21.5464 11.9764 21.8869 11.9475 22.3073 11.9204C22.7282 11.8929 23.0695 11.8778 23.07 11.8867Z" fill="#221407"/>
<path d="M22.967 12.1178C22.9674 12.1218 22.8972 12.1342 22.7825 12.1484C22.6678 12.1631 22.5092 12.18 22.3336 12.1938C22.1581 12.2075 21.9985 12.216 21.8834 12.2191C21.7678 12.2227 21.6967 12.2218 21.6963 12.2173C21.6963 12.2129 21.7674 12.2062 21.8821 12.1973C22.0061 12.188 22.1607 12.176 22.3314 12.1627C22.5021 12.1489 22.6563 12.1364 22.7803 12.1262C22.8954 12.1178 22.9665 12.1133 22.967 12.1178Z" fill="#221407"/>
<path d="M9.38379 24.7351L9.79357 25.3911C9.79357 25.3911 11.5411 23.7831 13.2745 24.2378C13.274 24.2378 11.7162 22.9169 9.38379 24.7351Z" fill="#F2BD8D"/>
<path d="M13.2744 24.2378C13.2744 24.2378 14.5571 22.8449 16.4375 23.1627L16.9504 23.24L16.7869 22.9436C16.7869 22.944 13.5157 21.8236 13.2744 24.2378Z" fill="#F2BD8D"/>
<path d="M10.5667 19.5413C10.5667 19.5413 7.99739 19.0991 6.3125 20.0111L8.98806 25.0489C8.98806 25.0489 11.1783 22.9378 13.2738 24.2378L10.5667 19.5413Z" fill="#F5F5F5"/>
<path d="M10.5669 19.5413C10.5674 19.5409 10.5718 19.5476 10.5807 19.5618C10.5905 19.5778 10.6029 19.5982 10.6194 19.6253C10.654 19.684 10.7034 19.7676 10.7674 19.8756C10.8971 20.0978 11.0856 20.4205 11.3242 20.8293C11.8029 21.6547 12.4829 22.828 13.294 24.2262C13.3002 24.2369 13.2967 24.2511 13.2856 24.2573C13.278 24.2618 13.2691 24.2613 13.262 24.2569C12.9714 24.0787 12.6376 23.9431 12.2771 23.8787C12.0967 23.8489 11.9105 23.8365 11.722 23.84C11.5336 23.8476 11.3429 23.8716 11.1531 23.9116C10.3945 24.08 9.65714 24.492 9.02825 25.0462L9.00602 25.0667C8.9958 25.0765 8.9798 25.076 8.97003 25.0662C8.96825 25.0645 8.96691 25.0622 8.96603 25.0605C7.97225 23.1853 7.05091 21.4476 6.29447 20.0205C6.28914 20.0107 6.29269 19.9978 6.30247 19.9925L6.30291 19.992C6.89225 19.6876 7.49003 19.5551 8.01536 19.4853C8.54336 19.4173 9.00691 19.4151 9.38558 19.4258C9.76469 19.4382 10.0607 19.4689 10.2611 19.4933C10.3616 19.5053 10.438 19.5173 10.4896 19.5258C10.514 19.5302 10.5331 19.5333 10.5478 19.536C10.5611 19.5396 10.5674 19.5409 10.5669 19.5413C10.5665 19.5418 10.5598 19.5413 10.5469 19.5396C10.5322 19.5378 10.5131 19.5356 10.4887 19.5325C10.4371 19.5262 10.3602 19.5165 10.2598 19.5062C10.0589 19.4853 9.76336 19.4591 9.38514 19.4502C9.00691 19.4431 8.54469 19.4485 8.0198 19.5196C7.49714 19.5925 6.9038 19.7267 6.32291 20.0298L6.33136 20.0013C7.09003 21.4271 8.01402 23.1636 9.01091 25.0369L8.97047 25.0307L8.99358 25.0093C9.31047 24.7253 9.65758 24.4871 10.018 24.2907C10.3794 24.096 10.758 23.9467 11.1429 23.8636C11.3354 23.8231 11.5291 23.7991 11.7207 23.7916C11.9127 23.788 12.102 23.8013 12.2856 23.8316C12.6522 23.8978 12.9918 24.0365 13.2865 24.2182L13.2549 24.2489C12.4527 22.8493 11.7798 21.6751 11.3065 20.8493C11.0718 20.4369 10.8865 20.1116 10.7589 19.8871C10.6967 19.7765 10.6487 19.6911 10.6154 19.6316C10.5998 19.6036 10.5878 19.5818 10.5789 19.5653C10.5705 19.5498 10.5669 19.5422 10.5669 19.5413Z" fill="#462118"/>
<path d="M14.6059 18.508C14.6059 18.508 12.6624 17.2693 10.6006 19.5418L13.3077 24.2382C13.3077 24.2382 13.8601 22.332 17.0926 22.9951L14.6059 18.508Z" fill="#F5F5F5"/>
<path d="M14.6055 18.508C14.606 18.5076 14.6104 18.5142 14.6184 18.5276C14.6273 18.5427 14.6389 18.5627 14.654 18.5885C14.686 18.6445 14.7313 18.7245 14.7904 18.8276C14.91 19.04 15.0829 19.348 15.3024 19.7382C15.7415 20.5262 16.3664 21.6467 17.1118 22.984C17.118 22.9947 17.114 23.0085 17.1029 23.0147C17.0984 23.0173 17.0931 23.0182 17.0882 23.0173H17.0873C16.93 22.9916 16.7695 22.9649 16.606 22.9382C16.5246 22.9218 16.4411 22.9173 16.3575 22.9107C16.2735 22.904 16.1891 22.8973 16.1038 22.8907C16.0184 22.8809 15.9326 22.8827 15.8455 22.8845C15.7589 22.8858 15.6713 22.8867 15.5833 22.888C15.4953 22.8902 15.4078 22.9058 15.3193 22.9142C15.2309 22.9253 15.1406 22.9302 15.0535 22.9542C14.9655 22.9742 14.8771 22.9942 14.7878 23.0142C14.7015 23.0445 14.6149 23.0747 14.5282 23.1049C14.4411 23.1351 14.3611 23.1831 14.2762 23.2213C14.2331 23.24 14.194 23.2649 14.1549 23.2907L14.0362 23.3667C13.958 23.4187 13.8882 23.4831 13.8144 23.5422C13.7495 23.6111 13.6762 23.6733 13.6198 23.7507C13.4984 23.8969 13.3944 24.0658 13.3318 24.2453L13.3313 24.2467C13.3264 24.26 13.3122 24.2671 13.2989 24.2622C13.2931 24.26 13.2882 24.256 13.2851 24.2507C13.2504 24.1907 13.2135 24.1262 13.1758 24.0613C12.2184 22.3978 11.3264 20.8476 10.5811 19.5525C10.5762 19.544 10.5775 19.5338 10.5838 19.5271C11.0415 19.028 11.5469 18.6467 12.0504 18.4245C12.5526 18.1965 13.0429 18.1396 13.434 18.1649C13.8273 18.1893 14.1255 18.2849 14.3189 18.3631C14.4162 18.4022 14.4878 18.4391 14.5353 18.4649C14.5575 18.4778 14.5749 18.488 14.5882 18.496C14.6002 18.5036 14.606 18.5076 14.6055 18.508C14.6051 18.5085 14.5989 18.5053 14.5869 18.4987C14.5731 18.4916 14.5553 18.4827 14.5326 18.4707C14.4842 18.4471 14.4122 18.4125 14.3144 18.3751C14.1202 18.3013 13.8229 18.2102 13.4331 18.1898C13.0455 18.1685 12.5611 18.228 12.0651 18.4565C11.5682 18.6796 11.0691 19.0587 10.6162 19.556L10.6189 19.5307C11.3664 20.8249 12.2606 22.3738 13.2206 24.0356C13.258 24.1005 13.2953 24.1649 13.33 24.2249L13.2833 24.2307C13.3504 24.0387 13.4562 23.8693 13.5811 23.7182C13.6393 23.6391 13.7144 23.5751 13.7811 23.5045C13.8566 23.4436 13.9282 23.3782 14.0082 23.3249L14.1295 23.2476C14.1695 23.2213 14.2095 23.1956 14.2535 23.1769C14.3398 23.1378 14.422 23.0889 14.5109 23.0582C14.5998 23.0271 14.6878 22.9965 14.7753 22.9662C14.866 22.9458 14.9558 22.9258 15.0451 22.9053C15.134 22.8809 15.2251 22.8765 15.3144 22.8649C15.4042 22.8565 15.4931 22.8409 15.582 22.8387C15.6709 22.8378 15.7593 22.8369 15.8469 22.8356C15.9344 22.8338 16.0215 22.832 16.1073 22.8422C16.1931 22.8493 16.2784 22.8565 16.3629 22.8631C16.4473 22.8702 16.5313 22.8751 16.6131 22.8916C16.7775 22.9191 16.9389 22.9458 17.0971 22.9725L17.0726 23.0053C16.3349 21.6658 15.7166 20.544 15.282 19.7547C15.0669 19.3613 14.8975 19.0507 14.7802 18.8365C14.7238 18.7311 14.6798 18.6498 14.6491 18.5929C14.6353 18.5662 14.6242 18.5458 14.6162 18.5298C14.6086 18.5156 14.6051 18.508 14.6055 18.508Z" fill="#462118"/>
<path d="M7.03613 17.5898L9.93347 23.1684C9.93347 23.1684 12.2881 23.0653 13.285 24.2129L10.5997 19.5413C10.6001 19.5413 9.02547 17.5898 7.03613 17.5898Z" fill="#F5F5F5"/>
<path d="M7.03617 17.5898C7.03617 17.5898 7.06017 17.5902 7.1095 17.592C7.16239 17.5942 7.23661 17.5973 7.33305 17.6013C7.3575 17.6027 7.38417 17.6031 7.41128 17.6058C7.43794 17.6102 7.46639 17.6147 7.49572 17.6196C7.55483 17.6293 7.61972 17.64 7.6895 17.6516C7.76017 17.66 7.83261 17.6836 7.91128 17.7045C7.98905 17.728 8.07483 17.744 8.15972 17.7778C8.85217 18.0085 9.78061 18.5667 10.6157 19.5276L10.6171 19.5298L10.6175 19.5302C11.3819 20.8578 12.3073 22.4645 13.3068 24.1996C13.3139 24.2116 13.3095 24.2276 13.2975 24.2342C13.2873 24.24 13.2748 24.2382 13.2668 24.2302L13.2655 24.2289C13.2295 24.1933 13.1908 24.1547 13.1517 24.116C12.9362 23.9071 12.6811 23.7422 12.4099 23.6258C12.1402 23.5067 11.8619 23.4147 11.5811 23.3542C11.0211 23.2285 10.4619 23.1809 9.93394 23.1916H9.9335C9.92417 23.1916 9.91572 23.1867 9.91172 23.1787C9.06728 21.5409 8.3455 20.1413 7.83394 19.1493C7.5815 18.6578 7.38105 18.2671 7.24283 17.9973C7.17572 17.8658 7.12328 17.7636 7.08683 17.6925C7.07039 17.6596 7.05705 17.6338 7.04772 17.6147C7.03972 17.5978 7.03572 17.5893 7.03617 17.5898C7.03661 17.5902 7.04194 17.5996 7.05172 17.6178C7.06239 17.6373 7.07617 17.664 7.09439 17.6978C7.13217 17.7698 7.18683 17.8729 7.25705 18.0062C7.39883 18.276 7.60417 18.6671 7.86283 19.1587C8.37794 20.1431 9.10417 21.532 9.95483 23.1578L9.93261 23.1449C10.4668 23.1333 11.0273 23.18 11.5926 23.3062C11.8757 23.3667 12.1575 23.4596 12.4313 23.5805C12.7064 23.6982 12.9668 23.8662 13.1877 24.0805C13.2277 24.12 13.2673 24.16 13.3042 24.1965L13.2628 24.2258C12.2664 22.4893 11.3437 20.8809 10.5815 19.552L10.5833 19.5547C10.1753 19.0751 9.73083 18.6996 9.31528 18.4071C8.89572 18.1187 8.49661 17.9182 8.15217 17.8009C8.06772 17.7662 7.98283 17.7498 7.90594 17.7253C7.82817 17.7036 7.75617 17.6791 7.68594 17.6698C7.61661 17.6573 7.55261 17.6458 7.4935 17.6347C7.46417 17.6293 7.43617 17.624 7.4095 17.6191C7.38283 17.616 7.3575 17.6151 7.33394 17.6129C7.1575 17.5991 7.07528 17.5929 7.03617 17.5898Z" fill="#462118"/>
<path d="M16.08 33.412L16.1422 33.5156C16.212 33.6316 16.3138 33.7253 16.4351 33.7853L16.5431 33.8387L16.4395 33.9009C16.3235 33.9707 16.2298 34.0724 16.1698 34.1938L16.1164 34.3018L16.0542 34.1982C15.9844 34.0822 15.8827 33.9884 15.7613 33.9284L15.6533 33.8751L15.7569 33.8129C15.8729 33.7431 15.9667 33.6413 16.0267 33.52L16.08 33.412Z" fill="#3E1F18"/>
<path d="M10.369 12.1618L10.4313 12.2653C10.501 12.3813 10.6028 12.4751 10.7242 12.5351L10.8322 12.5884L10.7286 12.6507C10.6126 12.7204 10.5188 12.8222 10.4588 12.9436L10.4055 13.0516L10.3433 12.948C10.2735 12.832 10.1717 12.7382 10.0504 12.6782L9.94238 12.6249L10.0459 12.5627C10.1619 12.4929 10.2557 12.3911 10.3157 12.2698L10.369 12.1618Z" fill="#C77859"/>
<path d="M33.6816 34.7467L33.7438 34.8502C33.8135 34.9662 33.9153 35.06 34.0367 35.12L34.1447 35.1733L34.0411 35.2356C33.9251 35.3053 33.8313 35.4071 33.7713 35.5285L33.718 35.6365L33.6558 35.5329C33.586 35.4169 33.4842 35.3231 33.3629 35.2631L33.2549 35.2098L33.3584 35.1476C33.4744 35.0778 33.5682 34.976 33.6282 34.8547L33.6816 34.7467Z" fill="#3E1F18"/>
<path d="M34.2752 38.7222L34.305 38.7342C34.3383 38.7476 34.3748 38.7511 34.4103 38.7445L34.4419 38.7387L34.4299 38.7685C34.4166 38.8018 34.413 38.8382 34.4197 38.8738L34.4255 38.9053L34.3957 38.8933C34.3623 38.88 34.3255 38.8765 34.2903 38.8831L34.2588 38.8889L34.2708 38.8591C34.2841 38.8258 34.2877 38.7889 34.281 38.7538L34.2752 38.7222Z" fill="#3E1F18"/>
<path d="M11.5301 9.38577L11.5599 9.39777C11.5932 9.41111 11.6301 9.41466 11.6652 9.40799L11.6968 9.40222L11.6848 9.432C11.6714 9.46533 11.6679 9.50222 11.6746 9.53733L11.6803 9.56888L11.6506 9.55688C11.6172 9.54355 11.5803 9.54 11.5452 9.54666L11.5137 9.55244L11.5257 9.52266C11.539 9.48933 11.5426 9.45288 11.5359 9.41733L11.5301 9.38577Z" fill="#C77859"/>
<path d="M14.5594 30.3173L14.5892 30.3293C14.6225 30.3427 14.6594 30.3462 14.6945 30.3396L14.7261 30.3338L14.7141 30.3636C14.7007 30.3969 14.6972 30.4338 14.7039 30.4689L14.7096 30.5004L14.6799 30.4884C14.6465 30.4751 14.6096 30.4716 14.5745 30.4782L14.543 30.484L14.555 30.4542C14.5683 30.4209 14.5719 30.3844 14.5652 30.3489L14.5594 30.3173Z" fill="#583126"/>
<path d="M17.8425 38.4076C17.8425 38.4076 17.8336 38.4182 17.8145 38.4378C17.7941 38.4582 17.7656 38.4867 17.7288 38.5227C17.6514 38.5982 17.5394 38.7071 17.3959 38.8471C17.1034 39.1289 16.6825 39.5351 16.1608 40.0382L16.1656 40.0262C16.2243 41.3191 16.3043 43.076 16.3928 45.0298L16.395 45.0742L16.3581 45.0498C16.2163 44.9551 16.0648 44.8538 15.9123 44.7516C14.895 44.0707 13.9323 43.4258 13.0848 42.8587L13.079 42.8547L13.0768 42.848C12.655 41.588 12.299 40.5253 12.0479 39.7756C11.9243 39.4027 11.827 39.1076 11.7594 38.9036C11.727 38.804 11.7021 38.7267 11.6848 38.672C11.6772 38.6471 11.671 38.6276 11.6665 38.6125C11.6625 38.5991 11.6608 38.592 11.6612 38.592C11.6616 38.592 11.6648 38.5982 11.6696 38.6116C11.675 38.6262 11.6821 38.6458 11.691 38.6702C11.7101 38.724 11.7368 38.8009 11.7719 38.8996C11.8416 39.1027 11.943 39.3965 12.071 39.768C12.3256 40.5165 12.687 41.5778 13.1154 42.8351L13.1074 42.8249C13.9554 43.3911 14.9194 44.0347 15.9372 44.7142C16.0901 44.8165 16.2416 44.9178 16.383 45.0125L16.3483 45.032C16.2648 43.0778 16.1892 41.3209 16.1341 40.028L16.1336 40.0209L16.139 40.016C16.6648 39.5173 17.0892 39.1147 17.3839 38.8351C17.5301 38.6978 17.6439 38.5911 17.7225 38.5169C17.7603 38.4818 17.7896 38.4547 17.8114 38.4351C17.8314 38.416 17.8425 38.4076 17.8425 38.4076Z" fill="#583126"/>
<path d="M16.5266 44.4413L16.5172 44.7329L16.7524 44.9058L16.4724 44.9871L16.3808 45.2644L16.2164 45.0231L15.9248 45.0213L16.1035 44.7907L16.0146 44.5129L16.2892 44.6116L16.5266 44.4413Z" fill="#9F664E"/>
<path d="M13.1207 42.4613L13.1264 42.6502L13.2851 42.7529L13.1073 42.8164L13.0593 42.9991L12.9438 42.8498L12.7549 42.86L12.8616 42.704L12.7931 42.528L12.9744 42.5809L13.1207 42.4613Z" fill="#9F664E"/>
<path d="M11.6534 38.2453L11.7961 38.428L12.0276 38.4142L11.8974 38.6062L11.9818 38.8222L11.7592 38.7582L11.5801 38.9049L11.5725 38.6733L11.377 38.5484L11.5952 38.4693L11.6534 38.2453Z" fill="#9F664E"/>
<path d="M17.7007 38.0622L17.8429 38.2453L18.0745 38.2316L17.9443 38.4236L18.0287 38.6396L17.8061 38.5751L17.6269 38.7222L17.6194 38.4907L17.4238 38.3653L17.6421 38.2867L17.7007 38.0622Z" fill="#9F664E"/>
<path d="M16.113 39.8289L16.2036 39.9453L16.3516 39.9369L16.2685 40.0591L16.3223 40.1969L16.1805 40.156L16.0659 40.2498L16.061 40.1018L15.9365 40.0222L16.0756 39.972L16.113 39.8289Z" fill="#9F664E"/>
<path d="M10.6601 32.0369C11.7949 32.0369 12.7148 31.117 12.7148 29.9822C12.7148 28.8475 11.7949 27.9276 10.6601 27.9276C9.52537 27.9276 8.60547 28.8475 8.60547 29.9822C8.60547 31.117 9.52537 32.0369 10.6601 32.0369Z" fill="#F2BD8D"/>
<g opacity="0.3">
<path d="M10.3929 30.624C10.3929 30.8089 10.2427 30.9591 10.0578 30.9591C9.87288 30.9591 9.72266 30.8089 9.72266 30.624C9.72266 30.4391 9.87288 30.2889 10.0578 30.2889C10.2431 30.2889 10.3929 30.4387 10.3929 30.624Z" fill="white"/>
</g>
<g opacity="0.3">
<path d="M9.91757 29.6569C9.91757 29.7644 9.83045 29.852 9.72245 29.852C9.6149 29.852 9.52734 29.7649 9.52734 29.6569C9.52734 29.5493 9.61445 29.4618 9.72245 29.4618C9.83001 29.4618 9.91757 29.5489 9.91757 29.6569Z" fill="white"/>
</g>
<path d="M8.66721 30.4822C8.67654 30.5178 6.90854 32.2142 7.3641 32.5755C7.81965 32.9369 9.73654 32.0098 11.3708 30.6902C13.005 29.3702 14.4974 27.7675 14.089 27.3435C13.6805 26.9191 11.6383 28.1755 11.6383 28.1755L11.8823 28.3311C11.8823 28.3311 13.117 27.5391 13.5077 27.8462C13.8983 28.1538 12.785 29.3547 11.2134 30.5018C9.64232 31.6489 8.1241 32.4538 7.8881 32.1395C7.65254 31.8253 8.76454 30.7773 8.76454 30.7773L8.66721 30.4822Z" fill="#DB4F58"/>
<path d="M8.66721 30.4822C8.67654 30.5178 6.90854 32.2142 7.3641 32.5755C7.81965 32.9369 9.73654 32.0098 11.3708 30.6902C13.005 29.3702 14.4974 27.7675 14.089 27.3435C13.6805 26.9191 11.6383 28.1755 11.6383 28.1755L11.8823 28.3311C11.8823 28.3311 13.117 27.5391 13.5077 27.8462C13.8983 28.1538 12.785 29.3547 11.2134 30.5018C9.64232 31.6489 8.1241 32.4538 7.8881 32.1395C7.65254 31.8253 8.76454 30.7773 8.76454 30.7773L8.66721 30.4822Z" fill="#583126"/>
<g opacity="0.3">
<path d="M9.52869 28.5351C9.54513 28.5551 9.40602 28.6733 9.24824 28.9102C9.09047 29.144 8.92558 29.5138 8.91669 29.9431C8.90869 30.3724 9.05891 30.7489 9.20691 30.9884C9.35491 31.2315 9.48958 31.3555 9.47224 31.3747C9.46202 31.3889 9.29669 31.2938 9.11402 31.0515C9.02291 30.9311 8.93224 30.7733 8.86469 30.584C8.79669 30.3951 8.75447 30.1738 8.75802 29.9404C8.7638 29.7071 8.81447 29.4875 8.89002 29.3018C8.96558 29.1151 9.06247 28.9609 9.15802 28.8444C9.35002 28.6089 9.51847 28.5204 9.52869 28.5351Z" fill="white"/>
</g>
<path d="M34.4758 11.9599C35.1517 11.3122 35.1746 10.2391 34.5268 9.56322C33.8791 8.88729 32.806 8.86445 32.1301 9.5122C31.4542 10.1599 31.4314 11.233 32.0791 11.9089C32.7268 12.5848 33.7999 12.6077 34.4758 11.9599Z" fill="#D7A278"/>
<g opacity="0.4">
<path d="M33.8555 10.0876C33.8591 9.93511 33.9858 9.81422 34.1387 9.81778C34.2911 9.82134 34.412 9.948 34.4084 10.1009C34.4049 10.2533 34.2782 10.3742 34.1253 10.3707C33.9729 10.3667 33.852 10.24 33.8555 10.0876Z" fill="#040000"/>
</g>
<g opacity="0.4">
<path d="M34.4083 10.7329C34.4105 10.644 34.4843 10.5738 34.5727 10.576C34.6616 10.5782 34.7318 10.652 34.7296 10.7405C34.7274 10.8293 34.6536 10.8996 34.5651 10.8973C34.4763 10.8956 34.406 10.8218 34.4083 10.7329Z" fill="#040000"/>
</g>
<g opacity="0.4">
<path d="M34.1927 11.2267C34.2256 11.2276 34.2514 11.2547 34.2505 11.2876C34.2496 11.3205 34.2225 11.3462 34.1896 11.3453C34.1567 11.3445 34.131 11.3173 34.1319 11.2845C34.1327 11.252 34.1599 11.2258 34.1927 11.2267Z" fill="#040000"/>
</g>
<path d="M26.716 11.7195C26.7142 11.7187 26.7124 11.7173 26.7106 11.7155C26.6608 11.6689 26.6151 11.6218 26.6075 11.5587C26.5991 11.4893 26.6422 11.4302 26.6804 11.3862C26.7417 11.3164 26.8129 11.2529 26.8817 11.1915C27.0097 11.0778 27.1302 10.9702 27.196 10.8231C27.2017 10.8107 27.2164 10.8049 27.2289 10.8107C27.24 10.8164 27.2471 10.8311 27.2413 10.8435C27.1711 11.0004 27.0409 11.1164 26.9146 11.2289C26.8466 11.2893 26.7769 11.3515 26.7173 11.4191C26.6857 11.4551 26.6502 11.5027 26.6564 11.5524C26.6617 11.5987 26.7008 11.6387 26.744 11.6787C26.7542 11.688 26.7546 11.704 26.7453 11.7138C26.7377 11.7231 26.7257 11.7249 26.716 11.7195Z" fill="#2F1615"/>
<path d="M26.1091 11.8907C26.1242 11.8942 27.0166 12.2662 27.0166 12.2662C27.0166 12.2662 26.7433 12.5822 26.4113 12.4449C26.0793 12.3076 26.1091 11.8907 26.1091 11.8907Z" fill="#D44F43"/>
<path d="M26.2372 12.0556C26.2563 12.0831 26.7194 12.2796 26.7918 12.2889C26.8234 12.2929 26.8429 12.2551 26.8772 12.2084C26.7003 12.1347 26.3976 12.0089 26.2296 11.94C26.2269 11.98 26.2247 12.0382 26.2372 12.0556Z" fill="white"/>
<path d="M26.4113 12.4449C26.517 12.4884 26.6166 12.4862 26.7033 12.4631C26.5339 12.2818 26.3188 12.2729 26.2295 12.3076C26.273 12.3627 26.3317 12.412 26.4113 12.4449Z" fill="#E46F60"/>
<path d="M26.7911 10.3813L26.7853 10.5804L26.9457 10.6982L26.7546 10.7542L26.6924 10.9436L26.58 10.7791L26.3809 10.7782L26.5026 10.6204L26.4417 10.4307L26.6293 10.4978L26.7911 10.3813Z" fill="#ED9829"/>
<path d="M27.9662 10.8809L27.9466 11.0791L28.0986 11.208L27.904 11.2502L27.8284 11.4347L27.728 11.2627L27.5293 11.248L27.6617 11.0991L27.6146 10.9058L27.7969 10.9858L27.9662 10.8809Z" fill="#ED9829"/>
</g>
<defs>
<clipPath id="clip0_1141_48995">
<rect width="48" height="48" rx="24" fill="white"/>
</clipPath>
</defs>
</svg>
