<svg width="48" height="48" viewBox="0 0 48 48" fill="none" xmlns="http://www.w3.org/2000/svg">
<path fill-rule="evenodd" clip-rule="evenodd" d="M20.3975 21.4019C19.8804 21.7768 19.9627 22.5143 20.1183 23.0502C20.3475 23.8392 20.8041 24.5696 21.3249 25.1992C22.2488 26.3161 23.8173 27.5703 25.2631 26.5897C26.5506 25.7164 27.3627 23.9543 27.6431 22.47C27.7297 22.0113 27.8451 21.3279 27.438 20.983C26.8362 20.4733 25.7746 20.566 25.048 20.6317C24.5696 20.6749 24.1079 20.8215 23.6351 20.7527C22.5365 20.5926 21.3138 20.7376 20.3975 21.4019Z" fill="#FF5678"/>
<path fill-rule="evenodd" clip-rule="evenodd" d="M18.966 14.907C19.3245 14.8673 19.6893 14.8569 20.0502 14.8627L20.157 14.8646C20.4043 14.8664 21.1742 14.8441 21.249 15.1212C21.3007 15.3132 21.0421 15.2605 20.9136 15.2655C20.7194 15.273 20.5248 15.2746 20.3311 15.2887L20.2481 15.2955C20.0386 15.315 19.581 15.2964 19.4402 15.4832C19.2891 15.6839 19.5771 16.0358 19.6819 16.2171L19.6874 16.2267C20.091 16.948 20.3425 17.7227 21.0656 18.2016C21.7489 18.654 22.6426 18.8501 23.4303 19.0587L23.613 19.1074C23.8749 19.1785 23.9411 19.2177 24.0433 19.5063L24.0552 19.5407C24.1599 19.8471 24.1984 19.632 24.2766 19.4287L24.2801 19.4199C24.3962 19.1236 24.6206 19.2568 24.9082 19.2775C25.3457 19.3092 25.8263 19.2558 26.261 19.1838L26.3129 19.175C27.1391 19.0342 28.0151 18.8438 28.6697 18.2884C29.3403 17.7195 29.7634 16.8905 30.0235 16.0644L29.9689 16.0578C29.7661 16.0345 29.5368 16.0164 29.3581 15.9225C29.0831 15.7781 29.2241 15.558 29.4765 15.4798C29.8782 15.3553 30.3875 15.4189 30.7938 15.4705C31.3034 15.5352 31.8152 15.5772 32.3276 15.6119L32.4674 15.6212C34.3394 15.7441 36.1264 15.9671 37.9017 16.608C39.5758 17.2122 41.1562 18.0744 42.5834 19.1353C44.0291 20.21 45.2263 21.506 46.2582 22.9773C46.8061 23.7586 47.1933 24.5599 47.5313 25.4502C47.684 25.8523 47.7904 26.2444 47.8495 26.6711C47.9083 27.0961 47.8319 27.5542 47.926 27.9721L47.9367 28.0168C48.0596 28.4949 47.8161 29.1366 47.6749 29.592C47.494 30.1752 47.2077 30.7248 46.8523 31.221C45.5457 33.045 43.2424 33.9641 41.0694 34.195C40.4545 34.2603 39.8379 34.2718 39.22 34.276C38.9916 34.2775 38.7581 34.3024 38.5307 34.2729C38.3071 34.2438 38.2066 34.1363 38.0265 34.0362C37.8201 33.9215 37.5167 33.9073 37.2881 33.8601L37.0126 33.8039C36.7985 33.7601 36.585 33.7147 36.3737 33.6565C36.1341 33.5905 35.8968 33.5278 35.655 33.4737L35.5511 33.4511C35.3223 33.4026 35.0673 33.3006 34.831 33.362C35.3538 34.1823 35.9461 35.0141 36.6399 35.7006C37.2543 36.3086 38.0054 36.8106 38.553 37.4836C38.6887 37.6503 38.8817 38.081 39.1286 38.0949C39.25 38.1017 39.3155 37.9519 39.4436 37.9907C39.5829 38.0329 39.5827 38.2501 39.5503 38.3556C39.3338 39.0596 38.0357 39.2176 37.4362 39.1784L37.4183 39.1771C36.9422 39.142 36.444 39.1286 35.9757 39.0343C35.5492 38.9485 35.1502 38.7372 34.7123 38.7064C33.8596 38.6463 33.1144 39.3666 32.5116 39.8912L32.3801 40.0047C31.7797 40.5208 31.0169 41.1598 30.2024 41.1935C29.2315 41.2337 28.2648 40.772 27.3696 40.4593C26.51 40.1591 25.6219 39.9146 24.7433 39.6666L24.4337 39.5788C23.5084 39.315 22.5641 39.0046 21.5947 39.2168C20.8031 39.3901 19.9458 39.8715 19.4265 40.4999L19.3978 40.5351C19.1744 40.8138 18.9811 41.1421 18.6082 41.2266C18.2664 41.3041 17.9412 41.1932 17.703 40.9468C17.1874 40.4137 16.9285 39.6668 16.6537 38.9878L16.605 38.8687C16.2368 37.9801 16.0166 37.0758 15.8457 36.1311C15.7511 35.6075 15.6587 35.0834 15.5815 34.557C15.5465 34.3179 15.5145 34.0783 15.4872 33.8382C15.4716 33.7009 15.4988 33.4484 15.4349 33.3175C15.2966 33.0345 14.8102 33.4127 14.5906 33.5155L14.4223 33.591C14.0507 33.7572 13.6813 33.9179 13.2928 34.0463C12.8634 34.1882 12.438 34.3612 11.9988 34.4679C11.8407 34.5063 11.6633 34.5338 11.517 34.6099C11.3951 34.6733 11.3517 34.8222 11.252 34.874C11.1115 34.9471 10.9676 34.8096 10.8178 34.7974C10.6199 34.7812 10.4006 34.8451 10.208 34.8853C9.76622 34.9771 9.33643 35.0991 8.88347 35.1261C7.95707 35.1813 7.03416 34.9577 6.16078 34.6676L6.1114 34.6511C4.42798 34.0858 2.69137 33.386 1.89117 31.6824C0.351378 28.4044 1.14491 24.1321 3.6496 21.5648C6.25893 18.8903 9.72178 17.0338 13.2972 16.0263C15.1401 15.507 17.0616 15.1176 18.966 14.907ZM19.6662 25.7538C18.701 26.0568 17.7465 26.4121 16.8812 26.9428C16.1636 27.3828 15.4568 27.8547 14.7567 28.3274L14.1651 28.7273C13.4966 29.1781 12.7729 29.6515 12.0231 29.938C11.763 30.0374 11.3426 30.1147 11.1921 30.3788C11.0572 30.6153 11.1329 30.9827 11.1362 31.2411C11.1437 31.8333 11.079 32.433 11.0502 33.0268L11.0452 33.1381C11.039 33.2918 10.97 33.6983 11.1057 33.8138C11.2315 33.9209 11.598 33.7771 11.7252 33.7415L11.8648 33.7022C13.3542 33.2813 14.8478 32.793 16.1412 31.9222C16.8876 31.4196 17.5325 30.7826 18.2057 30.19C18.5718 29.8676 18.9804 29.5793 19.3198 29.2283C19.4434 29.1005 19.5445 28.9593 19.6861 28.8504C19.821 28.7465 19.9809 28.6931 20.0935 28.5578C20.1898 28.4421 20.3072 28.3375 20.354 28.1893C20.0689 28.1893 19.2409 28.6854 19.0978 28.2602C18.9502 27.8222 19.7612 27.349 20.0004 27.0856C19.7221 27.1275 19.448 27.1919 19.1819 27.2837C19.0209 27.3393 18.7583 27.5111 18.5807 27.5058C18.2142 27.4947 18.3503 27.0649 18.483 26.8749C18.633 26.6602 18.8388 26.4824 19.0444 26.3158L19.1977 26.1925C19.2504 26.1501 19.7109 25.8477 19.6662 25.7538ZM29.3003 25.4023L29.2311 25.3387C28.938 25.0709 28.5413 24.7601 28.1213 24.8576C28.292 25.2783 28.6343 25.6452 28.9572 25.9611L28.9848 25.988C29.1196 26.1191 29.5517 26.4169 29.4604 26.6539C29.312 27.0389 28.6748 26.635 28.4889 26.5237C28.0704 26.273 27.6228 26.0929 27.142 25.9997C27.422 26.3329 27.7233 26.6504 28.0756 26.9077L28.1923 26.9913C28.3862 27.1327 28.6164 27.3336 28.3762 27.5273C27.8627 27.9416 26.9481 27.1212 26.4527 26.9907C26.3907 27.2748 26.5428 27.4232 26.741 27.6132C26.9614 27.8244 27.2314 27.7954 27.429 28.045C27.8233 28.543 28.2354 29.0105 28.6935 29.4545C29.6764 30.4071 30.7769 31.0205 32.026 31.5567C33.3344 32.1183 34.7454 32.477 36.1326 32.7898L36.2503 32.8165C36.5401 32.8849 38.0849 33.2872 38.0931 33.1484L38.1101 32.8581C38.1671 31.8549 38.1974 30.8228 37.8055 29.8771C37.6493 29.5003 37.4688 29.3737 37.0674 29.3562L37.0465 29.3554C36.5112 29.3375 35.9967 29.2888 35.4693 29.183C34.3943 28.9674 33.3132 28.6601 32.3046 28.2258C31.8632 28.0358 31.4332 27.806 31.0656 27.4939L31.0157 27.4511C30.8406 27.2991 30.6643 27.1253 30.5503 26.9255C30.4394 26.7309 30.4085 26.5179 30.2665 26.3375C30.0022 26.0018 29.6208 25.6948 29.3003 25.4023ZM15.1736 21.2248C15.0321 21.0628 14.6186 21.2517 14.4575 21.3123L14.4487 21.3156C13.6382 21.6135 12.7725 21.8546 12.006 22.2515C10.9984 22.7733 10.0366 23.3914 9.14561 24.0926C8.25356 24.7943 7.43047 25.5694 6.69748 26.4363L6.65971 26.4811C6.0663 27.1869 5.39606 28.0822 5.50465 29.0547C5.59818 29.893 6.41454 30.1985 7.15225 30.2913C7.67083 30.3565 8.14032 30.2769 8.64443 30.1672L8.84662 30.1231C9.34106 30.0159 9.83167 29.913 10.3114 29.7443C10.92 29.5302 11.4819 29.224 12.059 28.9406C12.5845 28.6827 13.1353 28.4814 13.6554 28.2117L13.6887 28.1947C13.986 28.0444 14.4987 27.8253 14.6139 27.5005C14.6762 27.3251 14.5827 27.0962 14.5723 26.9165C14.5546 26.6137 14.5817 26.298 14.6004 25.9937L14.6042 25.9286C14.6704 24.7652 14.8143 23.6072 14.9338 22.4487L14.9505 22.2817C14.9709 22.0837 14.9973 21.8936 15.0784 21.7046L15.0865 21.6866C15.1457 21.5601 15.2848 21.3521 15.1736 21.2248ZM26.2272 30.1472C26.4335 30.0832 26.1808 29.2813 25.9724 29.39C25.7539 29.504 25.9993 30.2181 26.2272 30.1472ZM22.641 29.3188L22.6483 29.2935C22.7346 28.9987 22.4182 29.1538 22.3203 29.2768C22.149 29.4923 22.1664 29.8792 22.3431 30.0888C22.53 29.8762 22.5671 29.5822 22.641 29.3188ZM34.1065 22.1334L34.0198 22.1081C33.7602 22.0337 33.596 22.0089 33.4633 22.3053C33.3428 22.5742 33.3173 22.8903 33.274 23.18L33.2685 23.2161C33.1952 23.6841 33.1387 24.1545 33.0633 24.6221L33.0453 24.7319C32.8953 25.6307 32.6648 26.713 33.0103 27.583C33.1442 27.9202 33.6069 27.9791 33.9269 28.0851L33.9439 28.0908C34.4289 28.2569 34.9275 28.3951 35.4295 28.4995C36.3606 28.693 37.3122 28.7645 38.2619 28.7724C39.8435 28.7854 41.6243 28.5755 42.6718 27.2468C43.0017 26.8282 42.5979 26.3261 42.3273 26.0044C41.9771 25.5881 41.6012 25.2336 41.165 24.9069C40.3039 24.2623 39.3675 23.8047 38.4021 23.3412C37.4258 22.8723 36.4886 22.5415 35.4144 22.3775C34.9742 22.3103 34.5346 22.2584 34.1065 22.1334ZM25.6337 21.0846C25.0546 21.0755 24.469 21.4468 24.1067 21.8752L24.0698 21.9194C23.883 22.1418 23.8058 22.1708 23.6145 21.9262L23.5814 21.8841C23.42 21.6811 23.2381 21.4817 22.9902 21.3881C22.5205 21.2108 21.8822 21.3285 21.4432 21.5407C20.9597 21.7743 20.6935 22.281 20.6149 22.796C20.4297 24.011 21.6436 25.3342 22.6358 25.8743C22.9228 26.0304 23.2431 26.1011 23.5218 26.2755L23.5769 26.3098C23.7904 26.4406 23.9767 26.5265 24.2197 26.3751C24.4666 26.2212 24.7218 26.018 24.943 25.8276C25.1945 25.6112 25.507 25.47 25.7476 25.245L25.8171 25.1794C26.2553 24.7637 26.6445 24.3336 26.9125 23.7832C27.0064 23.5903 27.0794 23.4162 27.1022 23.2053L27.1027 23.1961C27.1051 23.1278 27.092 22.8115 27.0922 22.8114C27.3955 22.5666 27.1328 22.0169 26.9517 21.6932L26.9163 21.6308C26.8718 21.5535 26.7949 21.401 26.7178 21.3522C26.6872 21.3329 26.6149 21.3759 26.571 21.3552C26.5352 21.3384 26.5153 21.2886 26.4796 21.2721C26.2163 21.1508 25.926 21.0892 25.6337 21.0846ZM18.4716 24.8997C18.6883 24.539 17.9937 24.5455 17.9616 24.8585C17.9241 25.2241 18.354 25.0956 18.4716 24.8997ZM29.9401 24.5673L29.9375 24.5824C29.9196 24.6978 29.9047 25.0376 30.0799 24.8499C30.2143 24.7058 29.9388 24.5741 29.9401 24.5673ZM18.1589 22.252C18.0291 22.1577 17.8111 22.1973 17.6655 22.2173C17.4206 22.251 17.3855 22.5521 17.5932 22.661C17.7151 22.725 18.004 22.7057 18.1274 22.6352C18.2837 22.5461 18.3281 22.375 18.1589 22.252ZM5.39469 17.7301C5.28944 18.07 4.75671 18.2955 4.49105 18.5021C3.56183 19.225 2.65381 19.9777 1.81375 20.8027C1.39449 21.2145 1.07323 21.7092 0.712996 22.17L0.656242 22.2423C0.562074 22.365 0.405465 22.6006 0.232938 22.5773C0.0344199 22.5505 -0.00571483 22.2086 0.000615137 22.0593C0.0222986 21.5501 0.487349 21.0584 0.818999 20.7077C1.19206 20.3135 1.59092 19.9293 1.99826 19.5703C2.44674 19.1751 2.93341 18.8354 3.42937 18.5028C3.91637 18.1762 4.38331 17.7989 4.88977 17.5031L4.90647 17.4936C5.1463 17.3616 5.52154 17.3204 5.39469 17.7301ZM31.0785 22.3688C31.0818 22.0797 30.5071 21.9638 30.502 22.3014C30.4979 22.5758 31.0753 22.6416 31.0785 22.3688ZM31.4233 19.9275C31.4507 19.4923 30.4464 19.8397 30.3892 20.0894C30.268 20.6203 31.4096 20.1457 31.4233 19.9275ZM18.3121 19.381C17.893 19.3772 18.4443 19.8483 18.5791 19.9076L18.5832 19.9093C18.738 19.9716 18.9525 19.9866 18.9004 19.7602C18.8443 19.517 18.5011 19.4543 18.3121 19.381ZM37.8763 14.5021C38.2641 14.5143 38.6426 14.6415 39.0084 14.7596C39.813 15.0194 40.5794 15.3799 41.3351 15.7566C42.6599 16.417 43.9349 17.216 45.1036 18.1244C45.3304 18.3007 45.5626 18.446 45.8073 18.5901L45.8956 18.6417C46.0627 18.7378 46.2804 18.8564 46.3419 19.0469C46.5083 19.5621 45.6685 19.045 45.5493 18.971L45.1302 18.7114C42.7273 17.2257 40.3166 15.7988 37.5987 14.9448C37.4489 14.8977 37.4023 14.7641 37.4809 14.6316C37.5661 14.488 37.7322 14.4975 37.8763 14.5021ZM5.28153 15.5804C5.26408 15.7326 5.09617 15.7707 4.97674 15.8189L4.96602 15.8233C4.51885 16.0111 4.06053 16.1713 3.61457 16.3623C2.78688 16.7166 2.02677 17.2309 1.16284 17.4999C0.965415 17.5614 0.936284 17.3622 0.989139 17.2266C1.04801 17.0753 1.22482 16.969 1.3527 16.8815C1.7216 16.6288 2.13998 16.4471 2.54964 16.2716C2.95578 16.0974 3.37396 15.9656 3.79037 15.8196C4.17739 15.6839 4.62659 15.4313 5.04219 15.4127L5.10442 15.4097C5.2159 15.4056 5.30009 15.4171 5.28153 15.5804ZM22.5476 13.3261L22.5801 13.2513C22.6641 13.0546 22.9928 12.1798 23.2401 12.2293C23.477 12.2766 22.8802 13.8309 22.8203 14.0027L22.8186 14.0075C22.4656 15.0429 22.2994 16.1333 22.2994 17.2273C22.0543 17.0066 21.9055 16.9521 21.8819 16.5919C21.8523 16.1406 21.9227 15.6884 22.0063 15.2462L22.016 15.1952C22.1378 14.5588 22.2921 13.9222 22.5476 13.3261ZM27.5562 7.00047C28.0936 7.00808 28.5994 7.15853 29.1006 7.33669L29.4486 7.46143C29.8377 7.60171 30.2292 7.7569 30.5397 8.03412C31.2202 8.64187 31.3975 9.64816 31.5089 10.5091C31.6478 11.5834 31.1855 12.4848 30.7964 13.4567C30.4325 14.3658 29.7647 15.1022 28.9708 15.6633C28.5687 15.9474 28.1258 16.1227 27.6623 16.2746L27.6143 16.2902C27.1257 16.4483 26.6526 16.6599 26.13 16.6591C25.3362 16.6579 24.3201 16.281 23.9819 15.499C23.8301 15.1477 23.974 15.0807 24.2737 15.2649L24.2859 15.2725C24.7328 15.5532 25.1636 15.8562 25.6858 15.9807C26.6985 16.2224 27.9115 15.8481 28.7995 15.3542C29.6872 14.8605 30.2831 14.1188 30.6814 13.1953C31.0833 12.2637 31.2394 11.3456 31.0844 10.3412C30.9531 9.49001 30.6919 8.71252 29.9248 8.25046C28.269 7.25312 26.038 7.33348 24.5655 8.62961C24.3972 8.77768 24.2305 8.92243 24.0592 9.06475L23.9204 9.17894C23.7974 9.28098 23.6694 9.40355 23.687 9.5736L23.6884 9.58394C23.717 9.7581 24.0356 10.3452 23.6339 10.1599C23.3015 10.0066 23.1208 9.70676 22.7182 9.66965C22.2896 9.63011 21.7784 9.95934 21.6502 10.3737C21.5279 10.7691 21.746 11.31 22.0875 11.5368C22.2792 11.6641 22.4883 11.6582 22.7046 11.6518L22.772 11.6499C22.8911 11.6471 23.223 11.6083 23.3019 11.7344C23.4415 11.9573 22.949 12.1915 22.7901 12.2408C22.4034 12.3608 21.9464 12.2196 21.7241 11.8744C21.4981 11.5235 21.3434 11.1173 21.3123 10.6992C21.2825 10.2987 21.3735 9.89313 21.6097 9.56424C21.8611 9.21446 22.3735 8.82231 22.8328 8.94382C23.0321 8.99656 23.1923 9.20254 23.388 9.24167C23.5115 9.26632 23.4595 9.28397 23.5618 9.19243C23.6267 9.13437 23.6881 9.02721 23.7481 8.95837L23.97 8.70158C24.2426 8.38641 24.5241 8.07232 24.8556 7.82343C25.6121 7.25542 26.6176 6.98714 27.5562 7.00047ZM25.7666 15.0743C25.8628 15.198 26.089 15.2943 26.0792 15.4769C26.0631 15.7782 25.6524 15.7223 25.5154 15.5651C25.3595 15.3862 25.3758 15.0544 25.4642 14.8473C25.5536 14.6376 25.718 15.0117 25.7666 15.0743ZM28.3824 13.4205C28.604 13.7658 28.3339 14.1385 28.1587 14.4442C27.9912 14.7364 27.8356 15.0668 27.6406 15.3415C27.3169 15.7977 26.6126 15.3042 26.5916 14.8354C26.5761 14.4864 26.8161 14.6246 26.9794 14.7557L27.0154 14.785C27.1684 14.9076 27.2485 14.9324 27.4166 14.7884C27.7708 14.485 27.9299 13.9776 28.1747 13.5934C28.2233 13.5172 28.3112 13.4714 28.3824 13.4205ZM29.0141 13.5315C29.0713 13.6985 28.9514 14.141 29.2846 14.0968C29.4688 14.0723 29.5081 13.8081 29.6049 13.6928C29.9304 13.3051 29.8306 14.0383 29.7455 14.2219C29.558 14.6263 29.0332 14.905 28.773 14.3919C28.6795 14.2076 28.6767 13.9767 28.7209 13.7763L28.7258 13.7549C28.7526 13.6432 28.9087 13.2231 29.0141 13.5315ZM38.7954 12.8532C39.0576 12.8728 39.311 12.9966 39.5596 13.0712C40.2935 13.2916 40.9757 13.5319 41.661 13.8671L41.748 13.9102C41.8747 13.9751 42.2952 14.2112 41.9983 14.318C41.7844 14.3949 41.2849 14.0649 41.1013 13.9857C40.2943 13.6377 39.4271 13.4347 38.5822 13.1971C38.1868 13.0859 38.5604 12.8356 38.7954 12.8532ZM26.0425 12.7406C26.013 12.9354 25.8298 13.3236 26.0534 13.463C26.2247 13.5698 26.5064 13.3818 26.6765 13.2579L26.7613 13.1953C26.926 13.0704 27.259 12.775 27.2726 13.1735C27.2797 13.3839 27.0691 13.6363 26.9188 13.7575L26.8979 13.7739C26.57 14.0255 25.927 14.2375 25.6957 13.7613C25.567 13.4963 25.6374 13.119 25.7225 12.8519L25.7271 12.8382C25.8047 12.6206 26.1122 12.2797 26.0425 12.7406ZM30.1918 11.609L30.3079 11.7436C30.4522 11.9136 30.6651 12.1935 30.5193 12.3805C30.3254 12.6293 30.0119 12.1824 29.8825 12.0466L29.8773 12.0412C29.7639 11.9252 29.5252 11.5948 29.627 11.4195C29.7733 11.1677 30.0472 11.4446 30.1918 11.609ZM28.1969 11.0213C28.6191 11.2964 28.0738 11.4952 27.8271 11.5233L27.7686 11.5291C27.4831 11.5558 27.1344 11.5657 26.8797 11.4297C26.497 11.2252 26.6245 10.9163 26.9956 10.8423C27.376 10.7666 27.8659 10.8056 28.1969 11.0213ZM22.6523 10.1368L22.7201 10.1502C23.0158 10.2105 23.3318 10.3017 23.431 10.6192C23.5396 10.9672 23.3875 11.0862 23.0769 11.0138L22.9887 10.9925C22.697 10.9234 22.3099 10.8394 22.1557 10.573C21.9555 10.2271 22.3615 10.0803 22.6523 10.1368Z" fill="black"/>
</svg>
