<svg width="48" height="48" viewBox="0 0 48 48" fill="none" xmlns="http://www.w3.org/2000/svg">
<g clip-path="url(#clip0_1141_46399)">
<rect width="48" height="48" rx="24" fill="white"/>
<g clip-path="url(#clip1_1141_46399)">
<g opacity="0.8">
<g opacity="0.26">
<path d="M27.1851 45.6822C27.2766 45.6796 27.354 45.7351 27.3575 45.8071C27.3611 45.8787 27.2895 45.9391 27.198 45.9422C27.1064 45.9449 27.0291 45.8893 27.0255 45.8173C27.022 45.7458 27.0935 45.6853 27.1851 45.6822Z" fill="#D5BD71"/>
<path d="M36.4138 45.9596C36.563 45.9596 36.684 45.865 36.684 45.7484C36.684 45.6318 36.563 45.5373 36.4138 45.5373C36.2645 45.5373 36.1436 45.6318 36.1436 45.7484C36.1436 45.865 36.2645 45.9596 36.4138 45.9596Z" fill="#D5BD71"/>
<path d="M37.0363 20.4831L36.7207 21.3804L37.0465 21.4329L37.5994 20.74L37.0363 20.4831Z" fill="#D5BD71"/>
<path d="M31.9043 14.9307L32.9727 15.3413L33.0994 15.1009L32.3323 14.5462L31.9043 14.9307Z" fill="#D5BD71"/>
<path d="M27.7217 6.35289L28.883 6.55645L28.9346 6.29956L28.0226 5.90089L27.7217 6.35289Z" fill="#D5BD71"/>
<path d="M38.0928 14.6796L38.8981 14.6644L38.9834 14.5093L38.3959 14.3822L38.0928 14.6796Z" fill="#D5BD71"/>
<path d="M35.2627 8.19289L35.8507 9.00222L36.1285 8.85956L35.8934 8.06356L35.2627 8.19289Z" fill="#D5BD71"/>
<path d="M29.1031 10.7973C29.1703 10.8462 29.2751 10.844 29.3378 10.7916C29.4005 10.7391 29.3974 10.6569 29.3303 10.608C29.2631 10.5591 29.1583 10.5613 29.0956 10.6138C29.0329 10.6662 29.0365 10.7484 29.1031 10.7973Z" fill="#D5BD71"/>
<path d="M26.9258 14.8747L28.0667 15.1404L28.1404 14.8871L27.2662 14.44L26.9258 14.8747Z" fill="#D5BD71"/>
<path d="M32.6318 4.04933L33.8021 4.22133L33.8416 3.96311L32.9127 3.58933L32.6318 4.04933Z" fill="#D5BD71"/>
<path d="M32.1939 44.496L33.1712 43.9649L32.9641 43.7613L31.9717 44.0164L32.1939 44.496Z" fill="#D5BD71"/>
<path d="M16.4648 39.3809L17.5333 39.7916L17.6604 39.5511L16.8928 38.9964L16.4648 39.3809Z" fill="#D5BD71"/>
<path d="M38.1387 41.2524L39.3 41.456L39.3516 41.1991L38.4396 40.8004L38.1387 41.2524Z" fill="#D5BD71"/>
<path d="M37.0996 34.9556L37.9049 34.9404L37.9903 34.7853L37.4032 34.6582L37.0996 34.9556Z" fill="#D5BD71"/>
<path d="M21.875 29.5L22.463 30.3098L22.7408 30.1667L22.5057 29.3707L21.875 29.5Z" fill="#D5BD71"/>
<path d="M22.1266 10.5213C22.1937 10.5702 22.2986 10.568 22.3613 10.5156C22.4239 10.4631 22.4208 10.3809 22.3537 10.332C22.2866 10.2831 22.1817 10.2853 22.119 10.3378C22.0564 10.3898 22.0599 10.472 22.1266 10.5213Z" fill="#D5BD71"/>
<path d="M11.9902 5.73289L13.1311 5.99867L13.2049 5.74489L12.3307 5.29822L11.9902 5.73289Z" fill="#D5BD71"/>
<path d="M21.4844 36.2591L22.6546 36.4311L22.6942 36.1729L21.7653 35.7991L21.4844 36.2591Z" fill="#D5BD71"/>
<path d="M40.425 18.5253C40.5168 18.5253 40.5912 18.4672 40.5912 18.3956C40.5912 18.3239 40.5168 18.2658 40.425 18.2658C40.3332 18.2658 40.2588 18.3239 40.2588 18.3956C40.2588 18.4672 40.3332 18.5253 40.425 18.5253Z" fill="#D5BD71"/>
<path d="M42.1118 25.8911C42.2034 25.8884 42.2807 25.944 42.2843 26.016C42.2878 26.088 42.2163 26.148 42.1247 26.1511C42.0332 26.1538 41.9558 26.0982 41.9523 26.0262C41.9487 25.9542 42.0203 25.8942 42.1118 25.8911Z" fill="#D5BD71"/>
<path d="M47.0581 28.0262C47.207 28.0218 47.3328 28.1124 47.3386 28.2289C47.3444 28.3453 47.2284 28.4436 47.0795 28.448C46.9306 28.4524 46.8048 28.3618 46.799 28.2453C46.7933 28.1289 46.9093 28.0307 47.0581 28.0262Z" fill="#D5BD71"/>
<path d="M41.6482 30.7329L42.4477 30.0436L42.1877 29.8818L41.2939 30.3053L41.6482 30.7329Z" fill="#D5BD71"/>
<path d="M43.4053 23.5196L44.5666 23.7231L44.6182 23.4662L43.7062 23.0676L43.4053 23.5196Z" fill="#D5BD71"/>
<path d="M42.5218 34.5769L43.0044 35.2218L42.7658 35.3156L42.1533 34.8676L42.5218 34.5769Z" fill="#D5BD71"/>
<path d="M47.8288 48.0218C47.9204 48.0191 47.9919 47.9587 47.9884 47.8867C47.9848 47.8151 47.9075 47.7591 47.8159 47.7618C47.7244 47.7644 47.6528 47.8249 47.6564 47.8969C47.6599 47.9689 47.7373 48.0244 47.8288 48.0218Z" fill="#D5BD71"/>
<path d="M44.0261 1.09467C44.1176 1.092 44.1892 1.03156 44.1856 0.959556C44.1821 0.888 44.1048 0.832 44.0132 0.834667C43.9216 0.837334 43.8501 0.897778 43.8536 0.969778C43.8568 1.04178 43.9341 1.09778 44.0261 1.09467Z" fill="#D5BD71"/>
<path d="M45.6378 6.86756L46.6156 6.33644L46.4085 6.13289L45.416 6.38844L45.6378 6.86756Z" fill="#D5BD71"/>
<path d="M9.53418 32.58L10.884 32.8164L10.9435 32.5178L9.88396 32.0547L9.53418 32.58Z" fill="#D5BD71"/>
<path d="M18.6814 31.6991C18.8306 31.6991 18.9516 31.6046 18.9516 31.488C18.9516 31.3714 18.8306 31.2769 18.6814 31.2769C18.5321 31.2769 18.4111 31.3714 18.4111 31.488C18.4111 31.6046 18.5321 31.6991 18.6814 31.6991Z" fill="#D5BD71"/>
<path d="M16.6892 35.1738C16.7807 35.1711 16.8523 35.1107 16.8487 35.0387C16.8452 34.9671 16.7678 34.9111 16.6763 34.9138C16.5847 34.9164 16.5132 34.9769 16.5167 35.0489C16.5203 35.1204 16.5976 35.1764 16.6892 35.1738Z" fill="#D5BD71"/>
<path d="M15.2359 28.8938L16.2132 28.3627L16.0061 28.1596L15.0137 28.4147L15.2359 28.8938Z" fill="#D5BD71"/>
<path d="M14.1579 44.7627C14.2495 44.76 14.321 44.6996 14.3175 44.6276C14.3139 44.556 14.2366 44.5 14.145 44.5027C14.0535 44.5053 13.9819 44.5658 13.9855 44.6378C13.989 44.7093 14.0659 44.7653 14.1579 44.7627Z" fill="#D5BD71"/>
<path d="M1.43136 35.6013C1.58059 35.6013 1.70158 35.5068 1.70158 35.3902C1.70158 35.2736 1.58059 35.1791 1.43136 35.1791C1.28212 35.1791 1.16113 35.2736 1.16113 35.3902C1.16113 35.5068 1.28212 35.6013 1.43136 35.6013Z" fill="#D5BD71"/>
<path d="M9.85059 44.8289L11.0119 45.0324L11.0635 44.7756L10.1515 44.3769L9.85059 44.8289Z" fill="#D5BD71"/>
<path d="M10.4775 2.16L11.2829 2.14489L11.3682 1.98978L10.7811 1.86267L10.4775 2.16Z" fill="#D5BD71"/>
<path d="M2.42355 39.8076C2.5151 39.8049 2.58666 39.7444 2.5831 39.6724C2.57955 39.6009 2.50221 39.5449 2.41066 39.5476C2.3191 39.5502 2.24755 39.6107 2.2511 39.6827C2.25421 39.7547 2.33155 39.8102 2.42355 39.8076Z" fill="#D5BD71"/>
<path d="M0.175879 38.6578L1.15366 38.1267L0.946546 37.9231L-0.0458984 38.1782L0.175879 38.6578Z" fill="#D5BD71"/>
<path d="M12.2764 36.3778L13.4381 36.5813L13.4893 36.3244L12.5777 35.9258L12.2764 36.3778Z" fill="#D5BD71"/>
<path d="M5.86816 27.9929L6.6735 27.9778L6.75883 27.8227L6.17128 27.6956L5.86816 27.9929Z" fill="#D5BD71"/>
<path d="M5.43507 7.90756C5.52663 7.90489 5.60396 7.96044 5.60752 8.03244C5.61107 8.104 5.53952 8.16444 5.44796 8.16756C5.35641 8.17022 5.27907 8.11467 5.27552 8.04267C5.27196 7.97067 5.34352 7.91022 5.43507 7.90756Z" fill="#D5BD71"/>
<path d="M7.12843 15.5329C7.21999 15.5302 7.29732 15.5858 7.30088 15.6578C7.30443 15.7293 7.23288 15.7898 7.14132 15.7929C7.04977 15.7956 6.97243 15.74 6.96888 15.668C6.96532 15.596 7.03688 15.5356 7.12843 15.5329Z" fill="#D5BD71"/>
<path d="M6.66477 20.3747L7.46432 19.6853L7.20432 19.5236L6.31055 19.9467L6.66477 20.3747Z" fill="#D5BD71"/>
<path d="M7.53837 24.2187L8.02103 24.8636L7.78237 24.9569L7.16992 24.5093L7.53837 24.2187Z" fill="#D5BD71"/>
</g>
<path d="M16.4242 17.5084C16.3744 17.5084 16.334 17.48 16.334 17.4444V14.5676C16.334 14.532 16.3744 14.5036 16.4242 14.5036C16.474 14.5036 16.5144 14.532 16.5144 14.5676V17.4444C16.514 17.48 16.474 17.5084 16.4242 17.5084Z" fill="#D5BD71"/>
<path d="M14.9922 17.0871C14.9691 17.0871 14.946 17.0809 14.9287 17.0684C14.8936 17.0436 14.8936 17.0031 14.9287 16.9778L17.7905 14.9436C17.8256 14.9187 17.8825 14.9187 17.918 14.9436C17.9531 14.9684 17.9531 15.0089 17.918 15.0342L15.0562 17.0684C15.0385 17.0809 15.0153 17.0871 14.9922 17.0871Z" fill="#D5BD71"/>
<path d="M18.4473 16.0702H14.3998C14.35 16.0702 14.3096 16.0418 14.3096 16.0062C14.3096 15.9707 14.35 15.9422 14.3998 15.9422H18.4469C18.4967 15.9422 18.5371 15.9707 18.5371 16.0062C18.5371 16.0413 18.4971 16.0702 18.4473 16.0702Z" fill="#D5BD71"/>
<path d="M17.854 17.0871C17.8309 17.0871 17.8078 17.0809 17.7905 17.0684L14.9287 15.0342C14.8936 15.0093 14.8936 14.9689 14.9287 14.9436C14.9638 14.9187 15.0207 14.9187 15.0562 14.9436L17.918 16.9778C17.9531 17.0027 17.9531 17.0431 17.918 17.0684C17.9002 17.0809 17.8771 17.0871 17.854 17.0871Z" fill="#D5BD71"/>
<path d="M4.91662 51.2218C4.84329 51.2218 4.78418 51.1796 4.78418 51.1276V46.9018C4.78418 46.8498 4.84329 46.8076 4.91662 46.8076C4.98996 46.8076 5.04907 46.8498 5.04907 46.9018V51.1276C5.04862 51.1796 4.98951 51.2218 4.91662 51.2218Z" fill="#D5BD71"/>
<path d="M2.81462 50.6031C2.78084 50.6031 2.74706 50.5938 2.72128 50.5756C2.66973 50.5387 2.66973 50.4791 2.72128 50.4427L6.92573 47.4542C6.97728 47.4173 7.06128 47.4173 7.11284 47.4542C7.16439 47.4911 7.16439 47.5507 7.11284 47.5871L2.9084 50.5756C2.88217 50.5938 2.8484 50.6031 2.81462 50.6031Z" fill="#D5BD71"/>
<path d="M7.01906 50.6031C6.98528 50.6031 6.95151 50.5938 6.92573 50.5756L2.72128 47.5871C2.66973 47.5502 2.66973 47.4907 2.72128 47.4542C2.77284 47.4173 2.85684 47.4173 2.9084 47.4542L7.11284 50.4427C7.16439 50.4796 7.16439 50.5391 7.11284 50.5756C7.08662 50.5938 7.05284 50.6031 7.01906 50.6031Z" fill="#D5BD71"/>
<path d="M45.2402 30.0569C45.2153 30.0569 45.1953 30.0427 45.1953 30.0249V28.5867C45.1953 28.5689 45.2153 28.5547 45.2402 28.5547C45.2651 28.5547 45.2851 28.5689 45.2851 28.5867V30.0249C45.2855 30.0422 45.2651 30.0569 45.2402 30.0569Z" fill="#D5BD71"/>
<path d="M44.5248 29.8462C44.5133 29.8462 44.5017 29.8431 44.4928 29.8369C44.475 29.8244 44.475 29.804 44.4928 29.7916L45.9239 28.7747C45.9417 28.7622 45.9702 28.7622 45.9875 28.7747C46.0053 28.7871 46.0053 28.8076 45.9875 28.82L44.5564 29.8369C44.5475 29.8431 44.5359 29.8462 44.5248 29.8462Z" fill="#D5BD71"/>
<path d="M46.252 29.3373H44.2285C44.2036 29.3373 44.1836 29.3231 44.1836 29.3053C44.1836 29.2876 44.2036 29.2733 44.2285 29.2733H46.252C46.2769 29.2733 46.2969 29.2876 46.2969 29.3053C46.2969 29.3231 46.2769 29.3373 46.252 29.3373Z" fill="#D5BD71"/>
<path d="M45.9559 29.8462C45.9444 29.8462 45.9328 29.8431 45.9239 29.8369L44.4928 28.82C44.475 28.8076 44.475 28.7871 44.4928 28.7747C44.5106 28.7622 44.539 28.7622 44.5564 28.7747L45.9875 29.7916C46.0053 29.804 46.0053 29.8244 45.9875 29.8369C45.979 29.8431 45.9675 29.8462 45.9559 29.8462Z" fill="#D5BD71"/>
<path d="M41.9518 50.3684C43.7007 50.3684 45.1185 49.2597 45.1185 47.892C45.1185 46.5243 43.7007 45.4156 41.9518 45.4156C40.2029 45.4156 38.7852 46.5243 38.7852 47.892C38.7852 49.2597 40.2029 50.3684 41.9518 50.3684Z" fill="#D5BD71"/>
<path d="M6.96866 32.9013C7.48315 32.9013 7.90022 32.5752 7.90022 32.1729C7.90022 31.7706 7.48315 31.4444 6.96866 31.4444C6.45418 31.4444 6.03711 31.7706 6.03711 32.1729C6.03711 32.5752 6.45418 32.9013 6.96866 32.9013Z" fill="#D5BD71"/>
</g>
<g opacity="0.41">
<path opacity="0.19" d="M7.40449 8.48889C8.20138 8.44311 10.0689 8.36356 11.6925 8.50045C12.364 8.55689 12.944 8.02045 12.9289 7.34667C12.9227 7.07067 12.8236 6.74978 12.5676 6.38622C11.5818 4.98622 9.86805 6.32311 9.88449 7.03378C9.88449 7.03378 9.53827 5.96356 8.48583 6.15111C7.43338 6.33867 7.80583 7.89467 7.80583 7.89467C7.80583 7.89467 7.46627 7.82311 7.23072 7.98356C7.00005 8.14178 7.12449 8.50489 7.40449 8.48889Z" fill="#F8DF88"/>
</g>
<g opacity="0.41">
<path d="M39.7434 12.2729C38.6154 12.2084 35.9705 12.0956 33.6714 12.2893C32.7203 12.3693 31.899 11.6098 31.9203 10.6556C31.9292 10.2649 32.0692 9.81066 32.4319 9.29555C33.8279 7.31289 36.2546 9.20622 36.231 10.2129C36.231 10.2129 36.7217 8.69733 38.2114 8.96266C39.7012 9.228 39.1745 11.432 39.1745 11.432C39.1745 11.432 39.6554 11.3302 39.9888 11.5578C40.3163 11.7813 40.1394 12.2956 39.7434 12.2729Z" fill="#F8DF88"/>
</g>
<g opacity="0.41">
<path d="M-3.48213 19.1964C-3.56079 18.932 -3.53279 18.6298 -3.34879 18.3778C-3.01546 17.9222 -2.41013 17.5356 -1.32435 17.4689C-1.32435 17.4689 -2.49813 12.2538 2.05076 11.7067C6.72543 11.1444 6.96721 16.6409 6.96721 16.6409C6.96721 16.6409 9.61698 13.7249 11.0614 17.2778C11.0614 17.2778 13.913 15.8387 15.2828 17.5662C15.693 18.0831 15.6236 18.776 15.2712 19.1969H-3.48213V19.1964Z" fill="#F8DF88"/>
</g>
<g opacity="0.41">
<path d="M49.5078 26.9342C49.6065 26.604 49.5714 26.2258 49.3411 25.9107C48.9247 25.3409 48.1678 24.8578 46.8105 24.7747C46.8105 24.7747 48.278 18.256 42.5914 17.5716C36.7478 16.8684 36.446 23.7396 36.446 23.7396C36.446 23.7396 33.134 20.0947 31.3282 24.5356C31.3282 24.5356 27.7638 22.7369 26.0514 24.896C25.5389 25.5422 25.6251 26.4084 26.066 26.9347H49.5078V26.9342Z" fill="#F8DF88"/>
</g>
<path d="M19.986 19.9973C20.0113 19.9996 20.0375 19.9929 20.0598 19.9769C24.7527 16.4613 28.2011 16.048 28.706 16.0053C29.2411 16.9489 29.9824 17.9876 30.9104 19.0933C30.9482 19.1382 31.0149 19.1444 31.0598 19.1062C31.1047 19.0684 31.1104 19.0018 31.0727 18.9569C30.1335 17.8382 29.3847 17.3436 28.8535 16.396L28.3535 16.8476L28.2691 16.3858C28.2327 16.3871 25.0513 15.9729 19.9322 19.8071C19.8851 19.8422 19.8758 19.9089 19.9109 19.9556C19.9295 19.9804 19.9575 19.9947 19.986 19.9973Z" fill="#040000"/>
<path d="M14.6858 15.5364C14.5462 14.5253 14.2666 12.7636 16.3458 10.8662C19.4404 8.04222 20.6218 11.9316 22.0195 12.112C23.4173 12.2924 26.036 11.1018 27.2893 13.2867C28.5426 15.4711 28.8489 16.7476 30.2493 17.216C33.8302 18.4142 34.9142 19.7916 34.3724 24.292C33.8302 28.7924 30.4044 30.0307 30.4044 30.0307C30.4044 30.0307 18.2338 28.0484 13.8644 26.7982C10.6626 25.8822 9.68219 22.5773 11.7458 20.8107C12.72 19.9769 15.1609 18.9796 14.6858 15.5364Z" fill="#483531"/>
<path d="M21.704 20.7751L20.2275 22.0916L20.3062 25.7471L20.9813 25.4596L24.6773 25.2742L25.3858 25.4591V19.1818L21.704 20.7751Z" fill="#FAD2C3"/>
<path d="M25.3532 17.7196L20.2266 22.1093L20.2421 22.816C20.8026 23.488 22.0919 24.1667 23.367 23.7653C25.9643 22.948 25.3532 17.7196 25.3532 17.7196Z" fill="#E0B29A"/>
<path d="M25.0351 20.544C25.6049 19.8556 25.5809 18.2191 25.304 17.4231L23.5907 14.0818C23.5907 14.0818 20.7911 13.2044 20.8365 13.288C20.8818 13.372 17.624 17.3707 17.624 17.3707C17.624 17.3707 18.2685 21.0067 20.632 22.3787C20.6325 22.3782 22.8094 23.2347 25.0351 20.544Z" fill="#FAD2C3"/>
<path d="M21.8721 12.7578C21.8721 12.7578 21.145 15.5013 17.3765 17.8151C17.3765 17.8156 16.385 12.5267 21.8721 12.7578Z" fill="#483531"/>
<path d="M19.9385 12.444C20.2358 12.7747 21.4176 15.9609 24.5331 16.0413C24.5331 16.0413 25.2825 15.1129 25.994 15.8933C25.994 15.8933 26.278 13.6253 26.2651 13.5756C26.2523 13.5258 23.6407 12.2947 23.6407 12.2947L19.9385 12.444Z" fill="#483531"/>
<path d="M21.253 19.2409C21.2708 19.2347 21.2828 19.2164 21.2801 19.1969C21.2774 19.1747 21.257 19.1587 21.2343 19.1613C20.9668 19.1951 20.7023 18.9436 20.6219 18.8591C20.9094 18.5467 21.0392 18.2253 21.0077 17.904C20.9561 17.3804 20.4979 17.0516 20.4783 17.0378C20.4597 17.0249 20.4343 17.0293 20.4214 17.0476C20.4086 17.0662 20.413 17.0916 20.4312 17.1044C20.4357 17.1076 20.8788 17.4267 20.9263 17.9124C20.9561 18.2182 20.825 18.5271 20.5366 18.8302L20.5112 18.8569L20.5352 18.8849C20.549 18.9013 20.8819 19.288 21.2446 19.2422C21.2477 19.2427 21.2503 19.2418 21.253 19.2409Z" fill="#E0B29A"/>
<path d="M18.7006 17.8947C18.7282 17.892 18.7539 17.8764 18.7686 17.8507C18.7722 17.8444 19.1348 17.2111 19.785 17.088C19.8322 17.0791 19.8633 17.0333 19.8544 16.9862C19.8455 16.9391 19.7997 16.9076 19.7526 16.9169C19.0206 17.0556 18.6326 17.7369 18.6166 17.7658C18.593 17.8076 18.6082 17.8609 18.6499 17.8844C18.6659 17.8929 18.6833 17.8964 18.7006 17.8947Z" fill="#483531"/>
<path d="M22.8339 16.2293C22.8606 16.2213 22.8828 16.2013 22.8921 16.1729C22.9072 16.1271 22.8823 16.0778 22.8366 16.0631C22.805 16.0529 22.0579 15.8151 21.4259 16.2089C21.385 16.2342 21.3725 16.288 21.3979 16.3289C21.4232 16.3698 21.4774 16.3822 21.5179 16.3569C22.0819 16.0058 22.7752 16.2267 22.7823 16.2289C22.7997 16.2342 22.8174 16.2342 22.8339 16.2293Z" fill="#483531"/>
<path d="M18.7741 20.7969C19.3039 20.5366 19.5225 19.8961 19.2622 19.3662C19.0019 18.8363 18.3614 18.6177 17.8315 18.878C17.3016 19.1383 17.0831 19.7788 17.3433 20.3087C17.6036 20.8386 18.2442 21.0572 18.7741 20.7969Z" fill="#FAD2C3"/>
<path d="M18.6639 20.1253C18.5216 20.2987 18.2963 20.3076 18.1345 20.2387C17.9434 20.1573 17.8363 19.9827 17.8616 19.7938C17.8976 19.5249 18.0954 19.416 18.223 19.3733C18.1061 19.3364 17.9972 19.3378 17.8985 19.3773C17.6768 19.4662 17.5776 19.7191 17.5768 19.7218C17.5701 19.7396 17.5501 19.748 17.5328 19.7413C17.515 19.7347 17.5061 19.7147 17.5132 19.6973C17.5176 19.6858 17.6243 19.4138 17.8736 19.3142C18.0176 19.2564 18.1781 19.2689 18.351 19.3511L18.4616 19.4036L18.3394 19.416C18.3248 19.4173 17.9754 19.4569 17.9296 19.8036C17.9043 19.9951 18.0385 20.124 18.1616 20.1764C18.2905 20.2316 18.4861 20.2387 18.6145 20.0787C18.6261 20.064 18.6479 20.0613 18.6625 20.0733C18.6772 20.0853 18.6799 20.1067 18.6679 20.1213C18.6665 20.1218 18.6652 20.1236 18.6639 20.1253Z" fill="#E0B29A"/>
<path d="M25.2713 17.7791C25.8876 17.7791 26.3873 17.2795 26.3873 16.6631C26.3873 16.0468 25.8876 15.5471 25.2713 15.5471C24.6549 15.5471 24.1553 16.0468 24.1553 16.6631C24.1553 17.2795 24.6549 17.7791 25.2713 17.7791Z" fill="#FAD2C3"/>
<path d="M25.263 17.1458C25.4972 17.1462 25.6541 16.9707 25.7057 16.7947C25.767 16.5867 25.6972 16.3844 25.5283 16.2791C25.2879 16.1293 25.0688 16.2164 24.9497 16.2907C24.9977 16.172 25.071 16.0853 25.1683 16.032C25.387 15.9124 25.6568 16.0004 25.6594 16.0013C25.6781 16.0076 25.6985 15.9973 25.7048 15.9787C25.711 15.96 25.7008 15.9396 25.6821 15.9333C25.6697 15.9293 25.3799 15.8347 25.1341 15.9689C24.9919 16.0467 24.895 16.1844 24.8465 16.3782L24.8154 16.5027L24.9065 16.4124C24.9177 16.4013 25.1812 16.1462 25.491 16.3396C25.6621 16.4462 25.6768 16.6404 25.6377 16.7742C25.5963 16.9147 25.4723 17.0769 25.2581 17.0738C25.2385 17.0733 25.2221 17.0893 25.2217 17.1089C25.2212 17.1284 25.2372 17.1449 25.2568 17.1453C25.2585 17.1458 25.2608 17.1458 25.263 17.1458Z" fill="#E0B29A"/>
<path d="M23.152 17.2756C23.1432 17.2787 23.1334 17.2796 23.1236 17.2787C22.7258 17.2351 22.1494 17.4871 22.1432 17.4898L21.9609 17.5702L22.0592 17.3969C22.4747 16.6644 23.1689 16.7196 23.1983 16.7222C23.2343 16.7253 23.2609 16.7573 23.2578 16.7938C23.2547 16.8298 23.2223 16.8564 23.1863 16.8538C23.1627 16.8516 22.6578 16.8142 22.2863 17.2929C22.4996 17.2173 22.8538 17.1164 23.1378 17.1476C23.1738 17.1516 23.2 17.184 23.196 17.22C23.1934 17.2467 23.1756 17.2676 23.152 17.2756Z" fill="#483531"/>
<path d="M19.4439 18.7942C19.4524 18.7902 19.4599 18.784 19.4662 18.776C19.7164 18.464 20.3022 18.2338 20.3084 18.2316L20.4942 18.1596L20.3022 18.1067C19.4902 17.8831 19.0391 18.4133 19.0199 18.436C18.9968 18.464 19.0008 18.5053 19.0284 18.5284C19.0564 18.5516 19.0982 18.5476 19.1213 18.52C19.1364 18.5018 19.4666 18.1182 20.0679 18.1933C19.8639 18.2907 19.5422 18.4702 19.3635 18.6933C19.3408 18.7218 19.3453 18.7631 19.3737 18.7858C19.3942 18.8031 19.4217 18.8053 19.4439 18.7942Z" fill="#483531"/>
<path d="M20.6875 20.0707C20.7191 20.0467 22.9004 18.892 22.9004 18.892C22.9004 18.892 23.0795 19.9436 22.2697 20.3747C21.4599 20.8062 20.6875 20.0707 20.6875 20.0707Z" fill="#D44F43"/>
<path d="M21.22 20.0858C21.3054 20.0929 22.4445 19.4996 22.58 19.3711C22.6391 19.3151 22.5965 19.2164 22.5605 19.072C22.1285 19.3009 21.3894 19.6924 20.9805 19.9116C21.0547 19.9831 21.1658 20.0813 21.22 20.0858Z" fill="white"/>
<path d="M22.2689 20.3747C22.5267 20.2373 22.684 20.0373 22.7791 19.8289C22.1467 19.8684 21.7805 20.2778 21.7031 20.5098C21.8827 20.5147 22.0747 20.4782 22.2689 20.3747Z" fill="#E46F60"/>
<path d="M38.1969 37.6671C39.0378 39.2031 41.0494 43.6644 41.0494 43.6644L34.8329 44.7982C34.8329 44.7982 33.7725 37.3382 34.1383 37.3382C34.5036 37.3382 38.1969 37.6671 38.1969 37.6671Z" fill="#E0B29A"/>
<path d="M34.8868 39.9391C34.7611 41.2391 34.1619 44.4409 33.9157 47.9218H11.998C11.7517 44.4409 11.1526 41.2396 11.0268 39.9391C10.7802 37.3889 11.9313 32.7809 11.9313 32.7809C12.014 26.3631 16.1273 24.8 16.1273 24.8H29.786C29.786 24.8 33.8993 26.3631 33.982 32.7809C33.9824 32.7809 35.1335 37.3889 34.8868 39.9391Z" fill="#DBC58E"/>
<path d="M29.6688 24.8004C29.6688 24.8004 33.1604 25.1844 34.8061 28.0369C36.4519 30.8893 39.4683 38.7329 39.4683 38.7329C39.4683 38.7329 34.9155 41.256 30.9661 41.4756L27.291 30.7244L29.6688 24.8004Z" fill="#DBC58E"/>
<path d="M28.3799 24.8004C28.3799 24.8004 23.8701 24.4076 23.447 24.4076C23.4421 24.4076 23.2474 24.5284 23.2363 24.5284C22.8132 24.5284 18.0928 24.8 18.0928 24.8C18.0928 24.8 19.267 27.7089 23.155 27.8538C23.155 27.8564 23.155 27.8582 23.155 27.8582C23.1826 27.8578 23.2092 27.8564 23.2363 27.856C23.2634 27.8569 23.2901 27.8578 23.3177 27.8582C23.3177 27.8582 23.3177 27.8564 23.3177 27.8538C27.2057 27.7093 28.3799 24.8004 28.3799 24.8004Z" fill="#FAD2C3"/>
<path d="M18.6217 30.7244L14.9461 41.4751C14.4897 41.4498 14.0252 41.3938 13.5608 41.3142L13.9043 39.6653L7.70567 37.5809C7.70567 37.5809 7.52656 38.2098 7.28922 39.1658C6.75678 38.9067 6.44434 38.7333 6.44434 38.7333C6.44434 38.7333 9.46167 30.8889 11.107 28.0364C12.7528 25.1844 16.011 24.8004 16.011 24.8004L18.6217 30.7244Z" fill="#DBC58E"/>
<path d="M10.9624 38.2756L13.4122 41.2404C10.91 40.8129 8.40507 39.7089 7.14062 39.0916C7.3784 38.1356 7.55707 37.5067 7.55707 37.5067L10.9624 38.2756Z" fill="#DBC58E"/>
<path d="M23.4873 28.1684C23.4873 28.1684 25.5406 23.8636 31.2735 24.5293C37.0064 25.1951 36.2589 32.7076 36.1882 33.5413C36.0011 35.7511 32.7842 42.3178 25.9424 47.0427L23.5042 28.2978L23.4873 28.1684Z" fill="#F8DF88"/>
<path d="M15.0316 26.6427C9.6596 28.7533 12.3267 35.8164 12.5863 36.612C13.3316 38.8982 18.1227 44.2253 25.9454 47.0422L23.5067 28.2973L23.4898 28.168C23.4898 28.1684 20.4032 24.532 15.0316 26.6427Z" fill="#F8DF88"/>
<path d="M22.1966 44.32C22.1908 44.3209 22.185 44.3196 22.1797 44.316L20.8526 43.4164C20.8415 43.4089 20.8384 43.3938 20.8459 43.3827C20.8535 43.3716 20.8686 43.3684 20.8797 43.376L22.2068 44.2756C22.2179 44.2831 22.221 44.2982 22.2135 44.3093C22.2095 44.3156 22.2033 44.3191 22.1966 44.32Z" fill="#1F111D"/>
<path d="M23.3284 44.6982C23.323 44.6991 23.3177 44.6978 23.3128 44.6951L21.8168 43.8284C21.8052 43.8218 21.8012 43.8067 21.8079 43.7951C21.8146 43.7836 21.8297 43.7796 21.8412 43.7862L23.3372 44.6529C23.3488 44.6596 23.3528 44.6747 23.3461 44.6862C23.3421 44.6929 23.3355 44.6973 23.3284 44.6982Z" fill="#1F111D"/>
<path d="M18.9913 34.2671C19.0006 34.0178 19.213 33.8236 19.4624 33.8169L21.0135 33.7738C21.0619 33.7724 21.1046 33.7404 21.1188 33.6938C21.1401 33.6253 21.0935 33.5547 21.0224 33.5471L18.7433 33.3062C18.4824 33.2787 18.3321 33.0511 18.4104 32.8004C18.4881 32.5498 18.7659 32.3671 19.0268 32.3947L21.3508 32.64C21.4046 32.6458 21.4553 32.6124 21.4713 32.5609L21.4828 32.524C21.5015 32.464 21.4681 32.4004 21.4081 32.3818L18.933 31.612C18.6948 31.5378 18.5428 31.2938 18.6015 31.0511C18.6655 30.7853 18.9393 30.6333 19.1961 30.7129L21.6868 31.4876C21.7468 31.5062 21.8104 31.4729 21.829 31.4129L21.865 31.2964C21.8819 31.2418 21.8557 31.1831 21.8041 31.1596L19.6033 30.1453C19.3766 30.0409 19.2579 29.7791 19.3473 29.5462C19.4455 29.2911 19.7366 29.1756 19.9806 29.2884C19.9806 29.2884 23.4197 30.6547 23.9744 30.8249L23.5793 29.5302C23.4588 29.3013 23.5468 29.0182 23.7757 28.8978C24.0046 28.7773 24.2877 28.8653 24.4081 29.0942L26.8335 32.7253C26.9117 32.8747 26.1237 32.4022 25.9819 32.6427C25.3646 35.336 26.0584 35.6587 25.825 36.3693L22.1921 35.136C21.3873 34.8556 20.5384 34.724 19.6864 34.7476L19.4726 34.7533C19.2033 34.7604 18.981 34.54 18.9913 34.2671Z" fill="#FAD2C3"/>
<path d="M24.1992 35.0342C24.1992 35.0342 30.233 42.5671 32.2806 45.0173C34.3286 47.4676 37.2539 48.8933 39.5574 48.272C41.8614 47.6502 41.4828 43.9809 40.5614 42.5911C40.0886 41.8778 26.3419 32.1591 26.3419 32.1591L24.1992 35.0342Z" fill="#FAD2C3"/>
<path d="M38.9009 45.5204C38.9009 45.5204 39.1982 45.1862 38.9035 44.7969C38.6089 44.4067 37.6035 43.8644 37.408 43.8302C37.2115 43.7969 34.5066 43.9204 34.5066 43.9204C34.5066 43.9204 31.2533 44.6862 31.0702 44.6871L13.4733 42.2982L13.6782 41.3138C11.176 40.8862 8.67109 39.7822 7.40664 39.1649C6.69464 42.028 5.45153 47.8244 6.89064 48.4409C8.57153 49.1613 26.6866 49.2507 31.1751 49.2613C31.3555 49.2636 31.5458 49.264 31.7409 49.2627H31.7426C32.0249 49.2631 32.1778 49.2631 32.1778 49.2631L32.176 49.256C33.0471 49.2369 33.9284 49.1787 34.3622 49.0716C34.3631 49.0716 34.3631 49.0716 34.364 49.0707C34.4315 49.0547 34.4884 49.0364 34.5324 49.0173C34.5342 49.0173 34.5369 49.0164 34.5386 49.0156C34.5511 49.0093 34.5622 49.0031 34.572 48.9982C34.7546 48.8947 34.972 48.8027 35.2106 48.7227C35.9204 48.3676 36.6106 47.9062 36.8595 47.8436C37.0898 47.7862 37.5489 47.956 37.8382 48.08C38.0791 48.1831 38.3684 48.116 38.5186 47.9018C38.6062 47.7773 38.6462 47.6098 38.5506 47.392C38.5506 47.392 39.2289 47.1071 38.892 46.5533C38.8915 46.5547 39.6404 46.2493 38.9009 45.5204Z" fill="#FAD2C3"/>
<path d="M36.449 44.7604C36.4606 44.7707 36.4761 44.7764 36.4926 44.776C36.4992 44.776 37.1703 44.7604 37.4126 44.8284C37.6081 44.8836 38.4512 45.3409 38.8699 45.5751C38.9006 45.5924 38.9392 45.5818 38.9566 45.5516C38.9739 45.5213 38.9628 45.4831 38.9321 45.4662C38.8823 45.4382 37.7054 44.7813 37.4468 44.708C37.1859 44.6342 36.517 44.6498 36.4886 44.6507C36.4534 44.6516 36.4259 44.6804 36.4268 44.7147C36.4277 44.7329 36.4361 44.7493 36.449 44.7604Z" fill="#E0B29A"/>
<path d="M36.5351 45.984C36.5471 45.9942 36.5631 46.0004 36.5805 45.9995C36.5858 45.9991 37.1178 45.9756 37.4311 46.0404C37.7458 46.1058 38.8542 46.6071 38.8654 46.612C38.8974 46.6267 38.9351 46.6129 38.9498 46.5813C38.9645 46.5498 38.9502 46.5129 38.9182 46.4982C38.872 46.4773 37.7854 45.9858 37.4569 45.9178C37.1271 45.8498 36.5965 45.8733 36.5738 45.8747C36.5387 45.8764 36.5116 45.9058 36.5138 45.9404C36.5147 45.9573 36.5227 45.9729 36.5351 45.984Z" fill="#E0B29A"/>
<path d="M36.5186 46.8889C36.5311 46.9 36.5484 46.9058 36.5662 46.9044C36.5698 46.904 36.9249 46.8742 37.2462 46.9302C37.5671 46.9858 38.5124 47.4444 38.5218 47.4489C38.5533 47.4644 38.5915 47.4516 38.6066 47.4204C38.6222 47.3893 38.6089 47.3516 38.5773 47.3364C38.5378 47.3173 37.6062 46.8653 37.2671 46.8067C36.9289 46.748 36.5689 46.7782 36.5538 46.7796C36.5186 46.7827 36.4929 46.8129 36.4964 46.8476C36.4986 46.864 36.5066 46.8787 36.5186 46.8889Z" fill="#E0B29A"/>
<path d="M35.3359 48.7285L35.2728 48.6222C35.4084 48.5418 36.6044 47.8338 36.8462 47.784C37.0919 47.7333 37.6986 47.9591 37.7822 47.9911C38.0902 48.072 38.3039 48.0542 38.4182 47.9373C38.5893 47.7622 38.4915 47.4138 38.4906 47.4102L38.4746 47.3547L38.5293 47.3351C38.7244 47.2653 38.8479 47.1613 38.8964 47.0271C38.9724 46.8156 38.8399 46.5889 38.8386 46.5867L38.8053 46.5311L38.8622 46.5005C39.055 46.3978 39.1595 46.2742 39.1733 46.1338C39.2013 45.8498 38.8648 45.5716 38.8617 45.5689L38.819 45.5342L38.8488 45.488C38.9533 45.3253 38.9742 45.1644 38.9128 44.9964C38.699 44.4124 37.5519 43.9524 37.335 43.8862C37.143 43.8276 35.4604 43.9276 34.827 43.9653C34.6724 43.9747 34.5586 43.9813 34.5093 43.9836C34.2399 43.9956 33.1324 44.304 33.1213 44.3076L31.0724 44.7511L31.0617 44.7498L13.4813 42.3631L10.3195 43.7009L10.2715 43.5871L13.4644 42.2365L13.4813 42.2387L31.0675 44.6258L33.0919 44.1876C33.1346 44.1756 34.2204 43.8729 34.5039 43.86C34.5533 43.8578 34.6662 43.8511 34.8199 43.8418C36.0346 43.7698 37.1844 43.7107 37.3715 43.768C37.6448 43.8516 38.7986 44.3253 39.0288 44.9538C39.0977 45.1422 39.0813 45.3289 38.9804 45.5089C39.0799 45.6018 39.3244 45.8609 39.2964 46.1458C39.2799 46.3156 39.171 46.4613 38.9733 46.58C39.0159 46.6738 39.0835 46.8707 39.0128 47.0685C38.9564 47.2267 38.8253 47.3489 38.6226 47.4324C38.647 47.5538 38.6822 47.8458 38.5066 48.0249C38.3586 48.176 38.103 48.2049 37.7475 48.1111L37.7413 48.1093C37.5608 48.0404 37.0528 47.8702 36.871 47.9067C36.6835 47.9436 35.699 48.5125 35.3359 48.7285Z" fill="#E0B29A"/>
<path d="M13.6193 41.3015L13.4141 42.2857L13.535 42.3109L13.7402 41.3267L13.6193 41.3015Z" fill="#E0B29A"/>
<path d="M6.56152 48.1498C6.56152 48.1498 6.8673 49.4569 14.7113 49.4569C22.5553 49.4569 33.0593 49.264 33.0593 49.264C33.0593 49.264 9.33575 46.7964 8.92419 47.016C8.51263 47.2351 6.56152 47.9218 6.56152 47.9218V48.1498Z" fill="#E0B29A"/>
</g>
</g>
<defs>
<clipPath id="clip0_1141_46399">
<rect width="48" height="48" rx="24" fill="white"/>
</clipPath>
<clipPath id="clip1_1141_46399">
<rect width="48" height="48" rx="24" fill="white"/>
</clipPath>
</defs>
</svg>
