<svg width="48" height="48" viewBox="0 0 48 48" fill="none" xmlns="http://www.w3.org/2000/svg">
<g clip-path="url(#clip0_1141_47609)">
<rect width="48" height="48" rx="24" fill="white"/>
<path opacity="0.19" d="M31.686 27.572C36.6514 27.572 40.6766 23.7447 40.6766 19.0236C40.6766 14.3024 36.6514 10.4751 31.686 10.4751C26.7206 10.4751 22.6953 14.3024 22.6953 19.0236C22.6953 23.7447 26.7206 27.572 31.686 27.572Z" fill="#FBE8B5"/>
<path opacity="0.23" d="M17.6669 39.1338C22.1924 39.1338 25.8611 35.7992 25.8611 31.6858C25.8611 27.5724 22.1924 24.2378 17.6669 24.2378C13.1413 24.2378 9.47266 27.5724 9.47266 31.6858C9.47266 35.7992 13.1413 39.1338 17.6669 39.1338Z" fill="#FBE8B5"/>
<g opacity="0.61">
<path d="M27.5869 36.1187C27.6358 36.1169 27.6767 36.1498 27.6785 36.1916C27.6802 36.2338 27.6425 36.2689 27.5936 36.2707C27.5447 36.2725 27.5038 36.2396 27.502 36.1978C27.5002 36.156 27.5385 36.1205 27.5869 36.1187Z" fill="#FBE8B5"/>
<path d="M26.5771 41.3716C26.626 41.3698 26.6669 41.4027 26.6687 41.4444C26.6705 41.4867 26.6327 41.5218 26.5838 41.5236C26.5349 41.5253 26.494 41.4924 26.4922 41.4507C26.4905 41.4089 26.5282 41.3733 26.5771 41.3716Z" fill="#FBE8B5"/>
<path d="M30.9973 42.6582C31.0764 42.6556 31.143 42.7089 31.1462 42.7769C31.1493 42.8453 31.0875 42.9027 31.0084 42.9053C30.9293 42.908 30.8626 42.8547 30.8595 42.7867C30.8564 42.7187 30.9182 42.6609 30.9973 42.6582Z" fill="#FBE8B5"/>
<path d="M32.4902 36.2809C32.5695 36.2809 32.6338 36.2256 32.6338 36.1573C32.6338 36.0891 32.5695 36.0338 32.4902 36.0338C32.411 36.0338 32.3467 36.0891 32.3467 36.1573C32.3467 36.2256 32.411 36.2809 32.4902 36.2809Z" fill="#FBE8B5"/>
<path d="M27.4985 44.0729L27.9234 43.6689L27.7852 43.5742L27.3105 43.8222L27.4985 44.0729Z" fill="#FBE8B5"/>
<path d="M32.8209 21.3516L32.6533 21.8778L32.8262 21.9085L33.12 21.5022L32.8209 21.3516Z" fill="#FBE8B5"/>
<path d="M30.0938 18.0982L30.6613 18.3387L30.7289 18.1978L30.3209 17.8729L30.0938 18.0982Z" fill="#FBE8B5"/>
<path d="M27.8711 13.0716L28.4884 13.1907L28.5155 13.04L28.0311 12.8067L27.8711 13.0716Z" fill="#FBE8B5"/>
<path d="M28.4336 39.8458L29.0509 39.9649L29.078 39.8147L28.5936 39.5809L28.4336 39.8458Z" fill="#FBE8B5"/>
<path d="M32.7686 25.7622L33.3859 25.8818L33.413 25.7311L32.9286 25.4973L32.7686 25.7622Z" fill="#FBE8B5"/>
<path d="M33.3818 17.9507L33.8098 17.9422L33.8552 17.8511L33.5432 17.7765L33.3818 17.9507Z" fill="#FBE8B5"/>
<path d="M32.1989 40.1507L32.4554 40.5285L32.3283 40.5836L32.0029 40.3209L32.1989 40.1507Z" fill="#FBE8B5"/>
<path d="M31.8789 14.1498L32.1914 14.624L32.3389 14.5405L32.214 14.0738L31.8789 14.1498Z" fill="#FBE8B5"/>
<path d="M28.606 15.676C28.6416 15.7049 28.6976 15.7031 28.7309 15.6724C28.7642 15.6418 28.7624 15.5938 28.7269 15.5649C28.6913 15.536 28.6353 15.5378 28.602 15.5684C28.5687 15.5991 28.5704 15.6471 28.606 15.676Z" fill="#FBE8B5"/>
<path d="M20.7625 43.6653C20.8114 43.6636 20.8492 43.6284 20.8474 43.5862C20.8456 43.544 20.8043 43.5116 20.7558 43.5133C20.707 43.5151 20.6692 43.5502 20.671 43.5924C20.6727 43.6342 20.7136 43.6671 20.7625 43.6653Z" fill="#FBE8B5"/>
<path d="M30.5828 38.1049C30.6317 38.1031 30.6695 38.068 30.6677 38.0258C30.6659 37.9836 30.6246 37.9511 30.5762 37.9529C30.5273 37.9547 30.4895 37.9898 30.4913 38.032C30.493 38.0738 30.5339 38.1067 30.5828 38.1049Z" fill="#FBE8B5"/>
<path d="M27.4492 18.0653L28.0554 18.2213L28.0946 18.0725L27.6301 17.8107L27.4492 18.0653Z" fill="#FBE8B5"/>
<path d="M30.4805 11.7213L31.1022 11.8222L31.1236 11.6711L30.6298 11.452L30.4805 11.7213Z" fill="#FBE8B5"/>
<path d="M30.2477 35.4236L30.7672 35.1125L30.657 34.9929L30.1299 35.1427L30.2477 35.4236Z" fill="#FBE8B5"/>
<path d="M21.8906 32.4262L22.4582 32.6667L22.5257 32.5258L22.1177 32.2009L21.8906 32.4262Z" fill="#FBE8B5"/>
<path d="M33.4062 33.5227L34.0236 33.6422L34.0507 33.4916L33.5662 33.2578L33.4062 33.5227Z" fill="#FBE8B5"/>
<path d="M32.8545 29.8329L33.2825 29.824L33.3278 29.7333L33.0158 29.6587L32.8545 29.8329Z" fill="#FBE8B5"/>
<path d="M24.7656 26.636L25.0776 27.1102L25.2252 27.0267L25.1003 26.56L24.7656 26.636Z" fill="#FBE8B5"/>
<path d="M24.899 15.5142C24.9345 15.5431 24.9905 15.5413 25.0239 15.5107C25.0572 15.48 25.0554 15.432 25.0199 15.4031C24.9843 15.3742 24.9283 15.376 24.895 15.4067C24.8616 15.4369 24.8634 15.4853 24.899 15.5142Z" fill="#FBE8B5"/>
<path d="M19.5127 12.708L20.1189 12.864L20.1585 12.7151L19.6936 12.4533L19.5127 12.708Z" fill="#FBE8B5"/>
<path d="M24.5576 30.5969L25.1794 30.6973L25.2007 30.5462L24.7069 30.3271L24.5576 30.5969Z" fill="#FBE8B5"/>
<path d="M34.6216 20.2045C34.6705 20.2045 34.7101 20.1704 34.7101 20.1285C34.7101 20.0865 34.6705 20.0525 34.6216 20.0525C34.5728 20.0525 34.5332 20.0865 34.5332 20.1285C34.5332 20.1704 34.5728 20.2045 34.6216 20.2045Z" fill="#FBE8B5"/>
<path d="M35.5176 24.5209C35.5665 24.5191 35.6073 24.552 35.6091 24.5938C35.6109 24.636 35.5731 24.6711 35.5242 24.6729C35.4753 24.6747 35.4345 24.6418 35.4327 24.6C35.4309 24.5582 35.4687 24.5227 35.5176 24.5209Z" fill="#FBE8B5"/>
<path d="M38.1457 25.772C38.2248 25.7693 38.2914 25.8227 38.2946 25.8907C38.2977 25.9591 38.2359 26.0165 38.1568 26.0191C38.0777 26.0218 38.011 25.9685 38.0079 25.9005C38.0052 25.8325 38.0666 25.7747 38.1457 25.772Z" fill="#FBE8B5"/>
<path d="M38.509 42.1507C38.5881 42.148 38.6548 42.2014 38.6579 42.2694C38.661 42.3378 38.5992 42.3951 38.5201 42.3978C38.441 42.4005 38.3743 42.3471 38.3712 42.2791C38.3681 42.2107 38.4294 42.1534 38.509 42.1507Z" fill="#FBE8B5"/>
<path d="M35.271 27.3582L35.6959 26.9542L35.5577 26.8596L35.083 27.1076L35.271 27.3582Z" fill="#FBE8B5"/>
<path d="M36.2051 23.1311L36.8224 23.2507L36.8495 23.1L36.3651 22.8662L36.2051 23.1311Z" fill="#FBE8B5"/>
<path d="M35.7351 29.6111L35.9915 29.9889L35.8648 30.0436L35.5391 29.7813L35.7351 29.6111Z" fill="#FBE8B5"/>
<path d="M38.5555 37.4898C38.6044 37.488 38.6422 37.4529 38.6404 37.4107C38.6386 37.3684 38.5973 37.336 38.5488 37.3378C38.4999 37.3396 38.4621 37.3747 38.4639 37.4169C38.4657 37.4587 38.507 37.4916 38.5555 37.4898Z" fill="#FBE8B5"/>
<path d="M36.535 9.99023C36.5839 9.98845 36.6216 9.95334 36.6199 9.91112C36.6181 9.86889 36.5768 9.83645 36.5283 9.83823C36.4794 9.84001 36.4416 9.87512 36.4434 9.91734C36.4452 9.95912 36.4865 9.99156 36.535 9.99023Z" fill="#FBE8B5"/>
<path d="M37.3902 13.3729L37.9098 13.0618L37.7996 12.9427L37.2725 13.0925L37.3902 13.3729Z" fill="#FBE8B5"/>
<path d="M18.209 28.4405L18.9259 28.5791L18.9579 28.4045L18.3948 28.1329L18.209 28.4405Z" fill="#FBE8B5"/>
<path d="M23.0693 27.9244C23.1486 27.9244 23.2129 27.8691 23.2129 27.8009C23.2129 27.7327 23.1486 27.6773 23.0693 27.6773C22.9901 27.6773 22.9258 27.7327 22.9258 27.8009C22.9258 27.8691 22.9901 27.9244 23.0693 27.9244Z" fill="#FBE8B5"/>
<path d="M22.0096 29.9605C22.0585 29.9587 22.0963 29.9236 22.0945 29.8813C22.0927 29.8391 22.0514 29.8067 22.0029 29.8085C21.954 29.8102 21.9163 29.8453 21.918 29.8876C21.9198 29.9293 21.9611 29.9622 22.0096 29.9605Z" fill="#FBE8B5"/>
<path d="M21.2389 26.2809L21.7584 25.9693L21.6482 25.8502L21.1211 26L21.2389 26.2809Z" fill="#FBE8B5"/>
<path d="M20.6658 35.58C20.7147 35.5782 20.7525 35.5431 20.7507 35.5009C20.7489 35.4587 20.7076 35.4262 20.6592 35.428C20.6103 35.4298 20.5725 35.4649 20.5743 35.5071C20.5761 35.5489 20.6169 35.5813 20.6658 35.58Z" fill="#FBE8B5"/>
<path d="M14.2412 42.3276C14.2901 42.3258 14.331 42.3587 14.3328 42.4004C14.3345 42.4427 14.2968 42.4778 14.2479 42.4796C14.199 42.4813 14.1581 42.4484 14.1563 42.4067C14.1545 42.3649 14.1923 42.3293 14.2412 42.3276Z" fill="#FBE8B5"/>
<path d="M18.666 43.8618C18.7453 43.8618 18.8096 43.8065 18.8096 43.7382C18.8096 43.67 18.7453 43.6147 18.666 43.6147C18.5867 43.6147 18.5225 43.67 18.5225 43.7382C18.5225 43.8065 18.5867 43.8618 18.666 43.8618Z" fill="#FBE8B5"/>
<path d="M13.9033 30.2111C13.9826 30.2111 14.0469 30.1558 14.0469 30.0876C14.0469 30.0193 13.9826 29.964 13.9033 29.964C13.824 29.964 13.7598 30.0193 13.7598 30.0876C13.7598 30.1558 13.824 30.2111 13.9033 30.2111Z" fill="#FBE8B5"/>
<path d="M22.6929 41.2933L22.5254 41.8191L22.6983 41.8502L22.9921 41.444L22.6929 41.2933Z" fill="#FBE8B5"/>
<path d="M11.5068 12.028L12.0748 12.2685L12.1419 12.1276L11.7344 11.8027L11.5068 12.028Z" fill="#FBE8B5"/>
<path d="M16.0967 40.8018L16.7136 40.9213L16.7411 40.7707L16.2567 40.5369L16.0967 40.8018Z" fill="#FBE8B5"/>
<path d="M18.376 35.6187L18.9933 35.7378L19.0204 35.5876L18.536 35.3538L18.376 35.6187Z" fill="#FBE8B5"/>
<path d="M18.709 10.6142L19.137 10.6053L19.1823 10.5147L18.8703 10.44L18.709 10.6142Z" fill="#FBE8B5"/>
<path d="M13.5852 44.5524L13.8416 44.9307L13.715 44.9853L13.3896 44.7227L13.5852 44.5524Z" fill="#FBE8B5"/>
<path d="M14.4305 32.676C14.4794 32.6742 14.5171 32.6391 14.5154 32.5969C14.5136 32.5547 14.4723 32.5222 14.4238 32.524C14.3749 32.5258 14.3371 32.5609 14.3389 32.6031C14.3407 32.6449 14.3816 32.6778 14.4305 32.676Z" fill="#FBE8B5"/>
<path d="M13.2359 32.0022L13.7555 31.6911L13.6453 31.5715L13.1182 31.7213L13.2359 32.0022Z" fill="#FBE8B5"/>
<path d="M19.665 30.6662L20.2824 30.7853L20.3095 30.6351L19.825 30.4014L19.665 30.6662Z" fill="#FBE8B5"/>
<path d="M16.2607 25.7525L16.6887 25.744L16.7341 25.6529L16.4221 25.5782L16.2607 25.7525Z" fill="#FBE8B5"/>
<path d="M16.0312 13.9822C16.0801 13.9805 16.121 14.0133 16.1228 14.0551C16.1246 14.0973 16.0868 14.1325 16.0379 14.1342C15.989 14.136 15.9481 14.1031 15.9463 14.0613C15.9446 14.0196 15.9823 13.984 16.0312 13.9822Z" fill="#FBE8B5"/>
<path d="M16.9307 18.4511C16.9795 18.4493 17.0204 18.4822 17.0222 18.524C17.024 18.5662 16.9862 18.6013 16.9373 18.6031C16.8884 18.6049 16.8475 18.572 16.8458 18.5302C16.844 18.488 16.8818 18.4524 16.9307 18.4511Z" fill="#FBE8B5"/>
<path d="M16.6845 21.2885L17.1094 20.8845L16.9712 20.7893L16.4961 21.0378L16.6845 21.2885Z" fill="#FBE8B5"/>
<path d="M17.1487 23.5409L17.4051 23.9187L17.2785 23.9738L16.9531 23.7111L17.1487 23.5409Z" fill="#FBE8B5"/>
</g>
<path d="M23.1848 9.46044C23.1559 9.46044 23.1328 9.4391 23.1328 9.41288V7.28132C23.1328 7.2551 23.1559 7.23377 23.1848 7.23377C23.2137 7.23377 23.2368 7.2551 23.2368 7.28132V9.41288C23.2368 9.4391 23.2137 9.46044 23.1848 9.46044Z" fill="white"/>
<path d="M22.3569 9.14845C22.3436 9.14845 22.3302 9.14401 22.32 9.13467C22.2996 9.11601 22.2996 9.08623 22.32 9.06756L23.9782 7.56045C23.9987 7.54178 24.0316 7.54178 24.052 7.56045C24.0725 7.57912 24.0725 7.6089 24.052 7.62756L22.3938 9.13467C22.3836 9.14356 22.3702 9.14845 22.3569 9.14845Z" fill="white"/>
<path d="M24.3578 8.39467H22.0129C21.984 8.39467 21.9609 8.37334 21.9609 8.34712C21.9609 8.32089 21.984 8.29956 22.0129 8.29956H24.3578C24.3867 8.29956 24.4098 8.32089 24.4098 8.34712C24.4098 8.37334 24.3867 8.39467 24.3578 8.39467Z" fill="white"/>
<path d="M24.0151 9.14845C24.0018 9.14845 23.9885 9.14401 23.9782 9.13467L22.32 7.62756C22.2996 7.6089 22.2996 7.57912 22.32 7.56045C22.3405 7.54178 22.3734 7.54178 22.3938 7.56045L24.052 9.06756C24.0725 9.08623 24.0725 9.11601 24.052 9.13467C24.0418 9.14356 24.0285 9.14845 24.0151 9.14845Z" fill="white"/>
<g opacity="0.32">
<path d="M19.0664 19.7395L18.9189 19.9574L19.573 20.4L19.7204 20.1822L19.0664 19.7395Z" fill="#EEC04D"/>
<path d="M10.2433 16.0714L10.2695 16.4064L11.274 16.3277L11.2477 15.9927L10.2433 16.0714Z" fill="#EEC04D"/>
<path d="M10.4679 31.421L10.7461 31.6093L11.3109 30.775L11.0327 30.5866L10.4679 31.421Z" fill="#EEC04D"/>
<path d="M21.1926 8.13363L21.124 8.44484L22.0572 8.65057L22.1258 8.33936L21.1926 8.13363Z" fill="#DAB03A"/>
<path d="M9.41757 15.1969L9.12793 15.064L8.72946 15.9325L9.0191 16.0654L9.41757 15.1969Z" fill="#F5A941"/>
<path d="M23.1344 10.4873L22.9492 10.5942L23.2699 11.1497L23.455 11.0428L23.1344 10.4873Z" fill="#DDC653"/>
<path d="M36.6746 10.028L36.5234 9.87684L36.07 10.3303L36.2211 10.4815L36.6746 10.028Z" fill="#EEC04D"/>
<path d="M38.031 21.2815L37.8799 21.1303L37.4264 21.5838L37.5776 21.7349L38.031 21.2815Z" fill="#EEC04D"/>
<path d="M9.52564 26.5768L9.45703 26.8881L10.3902 27.0938L10.4588 26.7826L9.52564 26.5768Z" fill="#DAB03A"/>
<path d="M22.0464 20.645L21.4385 21.3822L21.6843 21.5849L22.2923 20.8477L22.0464 20.645Z" fill="#DAB03A"/>
<path d="M12.8479 28.1001L12.584 27.9215L12.0483 28.7128L12.3122 28.8914L12.8479 28.1001Z" fill="#DDC653"/>
<path d="M29.7709 31.5191L29.5732 31.6718L30.031 32.2645L30.2287 32.1118L29.7709 31.5191Z" fill="#DDC653"/>
<path d="M12.6578 8.34412L12.4727 8.451L12.7933 9.00646L12.9785 8.89957L12.6578 8.34412Z" fill="#DDC653"/>
<path d="M19.2871 22.9272L19.4678 23.0415L19.8105 22.4994L19.6298 22.3852L19.2871 22.9272Z" fill="#EEC04D"/>
<path d="M15.8376 9.04934L15.916 9.24822L16.5126 9.01298L16.4342 8.8141L15.8376 9.04934Z" fill="#F5A941"/>
<path d="M11.2233 24.9855L11.3018 25.1844L11.8984 24.9492L11.82 24.7503L11.2233 24.9855Z" fill="#F5A941"/>
<path d="M37.25 31.6063L36.6533 31.8415L36.7317 32.0404L37.3284 31.8052L37.25 31.6063Z" fill="#DAB03A"/>
<path d="M28.2497 29.1875L28.165 29.3838L28.7539 29.6379L28.8386 29.4416L28.2497 29.1875Z" fill="#F5A941"/>
<path d="M36.9711 24.4165L37.1562 24.3097L36.8356 23.7543L36.6505 23.8612L36.9711 24.4165Z" fill="#F5A941"/>
<path d="M21.4333 23.2406L21.5117 23.4395L22.1084 23.2042L22.0299 23.0053L21.4333 23.2406Z" fill="#F5A941"/>
<path d="M20.6618 15.4439L20.7402 15.6428L21.3369 15.4075L21.2585 15.2087L20.6618 15.4439Z" fill="#F5A941"/>
<path d="M20.5045 25.0298L20.3027 25.1005L20.5148 25.7058L20.7165 25.6351L20.5045 25.0298Z" fill="#DDC653"/>
<path d="M33.5879 9.24728L33.5518 9.45798L34.1839 9.56643L34.22 9.35573L33.5879 9.24728Z" fill="#F5A941"/>
<path d="M29.8685 8.37295L29.21 8.93637L29.3978 9.15587L30.0563 8.59245L29.8685 8.37295Z" fill="#DAB03A"/>
<path d="M36.6067 13.0432L35.9482 13.6066L36.136 13.8261L36.7945 13.2627L36.6067 13.0432Z" fill="#DAB03A"/>
<path d="M36.9557 27.7529C36.9472 27.7031 36.9295 27.6542 36.9032 27.6062C36.7717 27.3658 36.4317 27.1613 36.0752 27.1289C35.9077 27.1138 35.7304 27.1582 35.5717 27.2497L35.5712 27.2502C35.5637 27.2253 35.5579 27.2004 35.5539 27.1755C35.5308 27.0355 35.5472 26.9262 35.6028 26.8502C35.6704 26.7586 35.7806 26.7373 35.7939 26.7351C35.7948 26.7351 35.7952 26.7351 35.7952 26.7351L35.7784 26.6058L35.7619 26.4689C35.7384 26.4715 35.5295 26.5013 35.3899 26.6866C35.2872 26.8235 35.2535 27.0022 35.289 27.2186C35.3001 27.2866 35.3206 27.3546 35.3495 27.4222C35.3259 27.4462 35.3037 27.4715 35.2828 27.4982C35.041 27.8026 34.9917 28.2222 35.1432 28.6795C35.3241 29.2244 35.1864 29.652 34.9824 29.8191C34.8366 29.9377 34.6486 29.9409 34.4521 29.8275L34.3184 30.0595C34.3699 30.0893 34.4219 30.1133 34.4739 30.132C34.7179 30.22 34.9584 30.184 35.1521 30.0262C35.4917 29.7493 35.4464 29.1066 35.2544 28.5271C35.0975 28.0551 35.245 27.6875 35.493 27.6649C35.6112 27.8204 35.7717 27.9586 35.957 28.0582C36.2348 28.2075 36.5135 28.2395 36.721 28.1462C36.8961 28.0684 36.9841 27.9209 36.9557 27.7529ZM36.5446 27.9235C36.4192 27.9489 36.253 27.9133 36.0841 27.8231C35.9246 27.7378 35.789 27.6191 35.6939 27.4889C35.8184 27.4142 35.9495 27.3862 36.0508 27.3955C36.4006 27.4275 36.6681 27.6586 36.6912 27.7973C36.6948 27.8182 36.7019 27.8622 36.6112 27.9026C36.593 27.9106 36.5739 27.9173 36.5535 27.9217C36.5481 27.9231 36.5446 27.9235 36.5446 27.9235Z" fill="#EEC04D"/>
<path d="M36.554 27.9218C36.5745 27.9173 36.5936 27.9107 36.6118 27.9027C36.7025 27.8618 36.6954 27.8182 36.6918 27.7973C36.6687 27.6587 36.4012 27.4276 36.0514 27.3956C35.95 27.3862 35.8185 27.4142 35.6945 27.4889C35.6945 27.4889 35.5963 27.3742 35.5723 27.2502C35.5723 27.2502 35.5723 27.2502 35.5727 27.2498C35.7309 27.1582 35.9087 27.1133 36.0763 27.1289C36.4327 27.1613 36.7723 27.3658 36.9043 27.6062C36.9136 27.8324 36.6118 27.9093 36.554 27.9218Z" fill="#C0962E"/>
<path d="M12.031 20.6324C12.0319 20.5822 12.0225 20.5307 12.0057 20.4787C11.919 20.2182 11.6217 19.9564 11.2768 19.8604C11.1145 19.8155 10.9319 19.8275 10.7599 19.8893H10.7594C10.7568 19.8635 10.755 19.8378 10.7559 19.8129C10.7581 19.6711 10.7941 19.5662 10.8625 19.5018C10.9452 19.4235 11.0577 19.4227 11.071 19.4227C11.0719 19.4227 11.0723 19.4227 11.0723 19.4227L11.079 19.2924L11.0874 19.1551C11.0639 19.1538 10.8528 19.1453 10.6825 19.3027C10.5572 19.4187 10.4914 19.5889 10.4879 19.808C10.487 19.8769 10.4945 19.9475 10.511 20.0191C10.4834 20.0387 10.4572 20.0595 10.4319 20.0818C10.1394 20.3382 10.0159 20.7418 10.083 21.2191C10.1634 21.7875 9.95144 22.1835 9.72033 22.3111C9.55588 22.4018 9.3701 22.3711 9.19677 22.2244L9.02344 22.4289C9.06877 22.4675 9.11544 22.5004 9.16344 22.528C9.38788 22.6582 9.63099 22.6658 9.84922 22.5453C10.2328 22.3338 10.3034 21.6933 10.2181 21.0889C10.1483 20.5964 10.3594 20.2613 10.6074 20.2831C10.6959 20.4573 10.8288 20.6222 10.9937 20.7533C11.2403 20.9498 11.5088 21.0311 11.7292 20.9764C11.9159 20.932 12.0288 20.8031 12.031 20.6324ZM11.5959 20.7271C11.4679 20.7298 11.311 20.6649 11.1608 20.5458C11.0194 20.4333 10.907 20.2924 10.8368 20.1471C10.9723 20.096 11.1065 20.092 11.2048 20.1191C11.5434 20.2133 11.7652 20.4884 11.763 20.6289C11.7625 20.6502 11.7621 20.6947 11.6652 20.7182C11.6461 20.7231 11.6261 20.7258 11.6052 20.7267C11.5994 20.7271 11.5959 20.7271 11.5959 20.7271Z" fill="#DAB03A"/>
<path d="M11.6046 20.7267C11.6255 20.7258 11.6455 20.7231 11.6646 20.7182C11.761 20.6942 11.7619 20.6502 11.7623 20.6289C11.7646 20.4885 11.5428 20.2133 11.2041 20.1191C11.1059 20.092 10.9717 20.096 10.8361 20.1471C10.8361 20.1471 10.7601 20.0169 10.7588 19.8902C10.7588 19.8902 10.7588 19.8902 10.7592 19.8902C10.9312 19.8285 11.1139 19.816 11.2761 19.8613C11.621 19.9573 11.9188 20.2191 12.005 20.4796C11.9743 20.7031 11.6632 20.7249 11.6046 20.7267Z" fill="#C0962E"/>
</g>
<path d="M24.7969 11.0422C24.7969 11.0422 25.5844 14.6587 26.14 15.5978C26.4262 16.0809 28.8475 18.7173 28.8475 18.7173L29.9084 16.9116L27.4084 14.6004L25.7938 10.8964L24.7969 11.0422Z" fill="#F7C3AB"/>
<path d="M24.7495 10.0431C24.7428 10.0178 24.6553 9.72489 24.7126 9.63644C24.77 9.548 24.8931 9.55644 24.8931 9.55644C24.8931 9.55644 24.9331 9.42533 25.0277 9.37422C25.122 9.32311 25.2553 9.35511 25.2553 9.35511L25.3353 9.29155C25.4522 9.19822 25.5384 9.23955 25.5384 9.23955C25.5384 9.23955 25.6437 9.31111 25.754 9.29955C25.8642 9.28755 26.0295 9.58178 26.1193 9.72089C26.2144 9.86844 26.3322 10.0444 26.2064 10.2738C26.0375 10.5813 25.7597 10.9453 25.7597 10.9453L24.8566 11.116C24.8566 11.116 24.7237 11.016 24.6806 10.6916C24.638 10.3671 24.7495 10.0431 24.7495 10.0431Z" fill="#F7C3AB"/>
<path d="M24.8945 9.55643C24.8993 9.55465 24.9273 9.61776 24.9687 9.72131C25.01 9.82487 25.0647 9.96887 25.1229 10.1284C25.13 10.1484 25.1371 10.168 25.1442 10.1875C25.146 10.1942 25.1473 10.1933 25.15 10.2062C25.1509 10.2151 25.1496 10.2231 25.1465 10.2302C25.1407 10.2444 25.1309 10.2542 25.1216 10.2613C25.0825 10.2889 25.042 10.2946 25.0047 10.3009C24.9642 10.3075 24.9229 10.296 24.894 10.276C24.8647 10.2564 24.8425 10.2324 24.8256 10.2093C24.7913 10.1626 24.7736 10.1204 24.7625 10.0911C24.7513 10.0613 24.7482 10.044 24.7509 10.0431C24.7567 10.0404 24.7793 10.1075 24.8469 10.1929C24.8802 10.2329 24.9336 10.2795 24.9993 10.2666C25.0336 10.2604 25.0727 10.252 25.0989 10.2324C25.1051 10.2275 25.11 10.2222 25.1118 10.2173C25.1136 10.2111 25.1136 10.2138 25.1087 10.2004C25.1016 10.1809 25.0945 10.1613 25.0869 10.1413C25.0287 9.98176 24.9785 9.83643 24.9433 9.73065C24.9087 9.62487 24.8896 9.5582 24.8945 9.55643Z" fill="#F1956B"/>
<path d="M25.2567 9.35556C25.2616 9.35467 25.2776 9.41022 25.2998 9.50089C25.3216 9.592 25.3496 9.71822 25.3785 9.85911L25.3776 9.85556C25.3793 9.86044 25.3811 9.86578 25.3833 9.87067C25.4073 9.94267 25.4189 10.0169 25.4047 10.0844C25.3913 10.1538 25.3385 10.2031 25.2891 10.2182C25.2393 10.2342 25.1971 10.228 25.1705 10.2222C25.1433 10.2156 25.13 10.2076 25.1309 10.2053C25.1318 10.2027 25.1465 10.2058 25.1727 10.2076C25.1985 10.2093 25.238 10.2102 25.2793 10.1933C25.3202 10.1764 25.3602 10.1356 25.37 10.0773C25.3807 10.0191 25.3696 9.94978 25.3469 9.88311C25.3451 9.87867 25.3438 9.87422 25.342 9.86978L25.3411 9.86756L25.3407 9.86622C25.3122 9.72533 25.2887 9.59778 25.2731 9.50578C25.2589 9.41378 25.2518 9.35644 25.2567 9.35556Z" fill="#F1956B"/>
<path d="M25.5391 9.23955C25.5445 9.23999 25.5449 9.32666 25.5409 9.46622L25.54 9.46044C25.5867 9.57244 25.6471 9.72444 25.712 9.89199C25.7262 9.92888 25.74 9.96533 25.7533 9.99999L25.7565 10.0075L25.7529 10.0142C25.7334 10.0538 25.7089 10.0871 25.6787 10.1151C25.6489 10.1427 25.6107 10.1622 25.5711 10.1644C25.532 10.1684 25.4933 10.1489 25.4716 10.1253C25.448 10.1022 25.4329 10.0764 25.4209 10.0529C25.3969 10.0053 25.3867 9.96488 25.38 9.93688C25.3738 9.90888 25.3729 9.89288 25.3751 9.89244C25.3809 9.89066 25.3938 9.95288 25.4422 10.0409C25.4662 10.0818 25.5067 10.1387 25.5689 10.1315C25.6302 10.1275 25.6858 10.0667 25.7187 9.9991L25.7182 10.0138C25.7045 9.9791 25.6907 9.94266 25.676 9.90577C25.6111 9.73822 25.5542 9.58488 25.5133 9.47066L25.512 9.46755V9.46488C25.5236 9.32577 25.5334 9.2391 25.5391 9.23955Z" fill="#F1956B"/>
<path d="M23.8529 11.4422L23.5293 11.3702C23.5293 11.3702 23.1893 10.8964 23.076 10.2289C22.9706 9.60888 22.9746 8.80355 22.9746 8.80355L26.3449 6.98799L26.6311 8.62488L23.8529 11.4422Z" fill="#A48B3B"/>
<path d="M26.8132 9.40221L26.8256 7.19866L26.5585 7.08044L23.091 8.96977C23.091 8.96977 22.9794 10.3973 23.591 11.2982L23.8083 11.3484L26.8132 9.40221Z" fill="white"/>
<path d="M23.8526 11.4422L26.9353 9.46044C26.9353 9.46044 26.8815 7.52311 27.1455 7.17422L23.4535 9.30267C23.4531 9.30311 23.1073 9.89289 23.8526 11.4422Z" fill="#A48B3B"/>
<path d="M26.6334 7.14042C26.6348 7.14308 26.589 7.17197 26.5041 7.22175C26.4121 7.27464 26.2903 7.34442 26.1428 7.42886C25.8365 7.60219 25.4125 7.83864 24.9423 8.09731C24.4721 8.35597 24.0454 8.58842 23.7352 8.75419C23.585 8.83375 23.4605 8.89908 23.3668 8.94842C23.2792 8.99331 23.2303 9.01686 23.2285 9.0142C23.2272 9.01153 23.273 8.98264 23.3579 8.93286C23.4499 8.87997 23.5717 8.81019 23.7192 8.72575C24.0254 8.55242 24.4499 8.31597 24.9197 8.05686C25.3899 7.79819 25.8165 7.56619 26.1268 7.39997C26.277 7.32042 26.4014 7.25508 26.4952 7.20575C26.5828 7.16131 26.6321 7.13775 26.6334 7.14042Z" fill="#A48B3B"/>
<path d="M26.7838 7.20932C26.7852 7.21198 26.7394 7.24087 26.6545 7.29065C26.5625 7.34354 26.4407 7.41332 26.2932 7.49776C25.9869 7.6711 25.5629 7.90754 25.0927 8.16621C24.6225 8.42487 24.1958 8.65732 23.8856 8.8231C23.7354 8.90265 23.6109 8.96798 23.5172 9.01732C23.4296 9.06221 23.3807 9.08576 23.3789 9.0831C23.3776 9.08043 23.4234 9.05154 23.5083 9.00176C23.6003 8.94887 23.722 8.8791 23.8696 8.79465C24.1758 8.62132 24.6003 8.38487 25.07 8.12576C25.5403 7.8671 25.9669 7.6351 26.2772 7.46887C26.4274 7.38932 26.5518 7.32398 26.6456 7.27465C26.7332 7.23021 26.7825 7.20665 26.7838 7.20932Z" fill="#A48B3B"/>
<path d="M25.7597 10.9453C25.7597 10.9453 26.2046 10.2973 26.2064 10.2738C26.2081 10.2502 26.033 9.56798 25.909 9.44487C25.7846 9.3222 25.6179 9.17909 25.6179 9.17909C25.6179 9.17909 25.4424 9.22398 25.533 9.48709C25.6237 9.7502 25.7375 10.0164 25.7375 10.0164L25.5877 10.2409C25.5877 10.2409 25.0108 10.4035 25.0508 10.9564" fill="#F7BB9B"/>
<path d="M25.052 10.956C25.0502 10.956 25.0484 10.932 25.0466 10.8867C25.0444 10.864 25.0475 10.836 25.0515 10.8031C25.0529 10.7698 25.0644 10.7329 25.0751 10.6916C25.1018 10.6102 25.1538 10.516 25.2395 10.4316C25.3262 10.348 25.4418 10.2729 25.584 10.2258L25.5751 10.2325C25.6222 10.1609 25.672 10.0858 25.724 10.0076L25.7226 10.024C25.6698 9.90046 25.6164 9.76846 25.5644 9.6289C25.54 9.55868 25.5093 9.48934 25.4942 9.40934C25.488 9.36934 25.4862 9.32712 25.4982 9.28579C25.5093 9.24401 25.536 9.2049 25.5738 9.18134C25.5866 9.1729 25.5991 9.16668 25.6146 9.16223L25.624 9.15912L25.6315 9.16579C25.6849 9.21468 25.7377 9.26312 25.7902 9.31068C25.8164 9.33468 25.8422 9.35823 25.8675 9.38179C25.8929 9.40668 25.9195 9.4249 25.9422 9.45646C25.9849 9.51557 26.0089 9.57823 26.0346 9.63912C26.0595 9.70046 26.08 9.76134 26.0995 9.8209C26.1382 9.94046 26.1706 10.0547 26.1978 10.1627C26.2044 10.1898 26.2106 10.2165 26.2169 10.2427L26.2209 10.2636C26.2213 10.268 26.2222 10.2725 26.2222 10.2765C26.2209 10.2809 26.2186 10.2858 26.2169 10.2902C26.2093 10.304 26.2031 10.3142 26.196 10.3253C26.1675 10.3685 26.1404 10.4098 26.1142 10.4493C26.0084 10.6053 25.9204 10.7302 25.8595 10.816C25.8306 10.856 25.8071 10.8885 25.7884 10.9142C25.772 10.9365 25.7626 10.9476 25.7613 10.9471C25.7604 10.9462 25.7675 10.9338 25.7822 10.9102C25.7995 10.8836 25.8209 10.8498 25.8475 10.808C25.908 10.7156 25.9911 10.5893 26.092 10.4351C26.1173 10.3956 26.144 10.3538 26.1715 10.3107L26.1902 10.2787L26.1915 10.2765L26.1924 10.2756L26.1929 10.2751C26.1946 10.2751 26.1889 10.2747 26.2004 10.2751C26.1906 10.2738 26.1933 10.2733 26.1929 10.2729L26.1924 10.2711L26.192 10.268L26.188 10.2498C26.1813 10.224 26.1751 10.1978 26.1684 10.1711C26.14 10.0645 26.1066 9.95068 26.0675 9.83246C26.0471 9.77379 26.0266 9.71334 26.0022 9.65334C25.9773 9.59423 25.9515 9.53112 25.9138 9.47957C25.8969 9.45512 25.8662 9.4329 25.8422 9.40934C25.8169 9.38623 25.7911 9.36268 25.7649 9.33912C25.7129 9.29201 25.6604 9.24401 25.6071 9.19512L25.624 9.19912C25.616 9.20179 25.604 9.20712 25.5946 9.21334C25.5324 9.25157 25.5191 9.3329 25.532 9.40357C25.5453 9.47512 25.5755 9.54668 25.6 9.61646C25.6511 9.75557 25.7035 9.88801 25.7551 10.0111L25.7586 10.02L25.7533 10.0276C25.7009 10.1053 25.6502 10.18 25.6022 10.2511L25.5991 10.2556L25.5933 10.2573C25.4578 10.3005 25.3426 10.3725 25.2578 10.4511C25.1733 10.5311 25.1213 10.6205 25.0929 10.6987C25.0413 10.8569 25.06 10.9569 25.052 10.956Z" fill="#E4AE98"/>
<path d="M26.1979 11.8227C26.6939 12.556 26.8704 13.5071 27.4242 14.2018C27.6855 14.5298 27.4108 14.4755 27.6997 14.7275C28.2611 15.2178 29.2655 16.0604 29.7499 16.5449C29.8984 16.6933 30.4073 16.3893 30.6628 16.7942C30.7584 16.9453 30.0544 17.2827 29.9891 17.4502C29.6886 18.2182 29.8744 19.1738 29.5735 19.9418C28.7664 19.2356 27.6517 18.1867 26.9508 17.3844C26.2499 16.5827 25.7628 15.832 25.4468 14.8329C25.1695 13.9564 25.0286 13.3751 24.8682 12.552L24.9788 12.316L24.9059 11.9751L26.0593 11.5049L26.1979 11.8227Z" fill="#F8DF88"/>
<path d="M38.1524 18.0253C37.9946 17.7542 37.3288 17.2493 36.8648 17.0742C36.487 16.932 34.4684 16.6942 34.2319 17.2996L34.1453 22.0622C34.0097 22.5671 33.8737 23.0764 33.8546 23.5929C33.8359 24.1093 33.943 24.64 34.2595 25.0591C34.5373 25.4271 34.975 25.6942 35.4626 25.7684C35.9501 25.8431 36.4804 25.7187 36.8653 25.4218C37.3701 25.0316 37.5746 24.4138 37.7101 23.8284C37.9688 22.7133 38.0733 21.5778 38.1773 20.4462C38.2293 19.8818 38.2808 19.3164 38.2861 18.7511C38.2884 18.5022 38.279 18.2427 38.1524 18.0253Z" fill="#A48B3B"/>
<path d="M37.5397 33.3057L39.4864 32.9924C39.4864 32.9924 40.4588 34.8662 40.8242 34.8431L40.3522 31.0462L37.2988 31.4097L37.5397 33.3057Z" fill="#CEB575"/>
<path d="M39.1672 31.8388C39.1783 31.7628 39.2543 31.702 39.3307 31.7095C39.4072 31.7175 39.4698 31.7944 39.4601 31.8704C39.4503 31.9464 39.361 32.0224 39.2863 32.0064C39.2112 31.99 39.1427 31.8957 39.1703 31.8237" fill="#E0E0E0"/>
<path d="M40.3394 31.0467L40.0332 31.0955L40.6003 34.7178C40.6003 34.7178 40.695 34.8778 40.8114 34.8435L40.3394 31.0467Z" fill="#A48B3B"/>
<path d="M39.4707 33.0563C39.4893 33.0532 39.4862 32.9598 39.5342 32.8612C39.58 32.7612 39.6542 32.7043 39.6449 32.6883C39.6391 32.6718 39.532 32.7132 39.4756 32.8336C39.4182 32.9527 39.4542 33.062 39.4707 33.0563Z" fill="white"/>
<path d="M39.6944 33.4335C39.7131 33.4357 39.7344 33.3513 39.8051 33.2784C39.8735 33.2037 39.9562 33.1771 39.9531 33.1588C39.954 33.1411 39.8437 33.1415 39.7575 33.2339C39.6709 33.3255 39.6766 33.4357 39.6944 33.4335Z" fill="white"/>
<path d="M40.1907 33.6009C40.1925 33.5836 40.0969 33.5693 40.0009 33.6293C39.9049 33.6889 39.8756 33.7813 39.892 33.7871C39.9085 33.7956 39.956 33.7325 40.0351 33.6845C40.1138 33.6347 40.1911 33.6196 40.1907 33.6009Z" fill="white"/>
<path d="M39.0216 33.0783C39.0376 33.0685 39.0012 32.9867 38.9954 32.8809C38.9874 32.7756 39.0123 32.6894 38.9954 32.6818C38.9807 32.6729 38.9221 32.7609 38.9305 32.8854C38.9385 33.0098 39.0083 33.0894 39.0216 33.0783Z" fill="white"/>
<path d="M34.5055 33.8422L36.4522 33.5289C36.4522 33.5289 37.4246 35.4027 37.79 35.3796L37.318 31.5827L34.2646 31.9462L34.5055 33.8422Z" fill="#CEB575"/>
<path d="M36.1457 32.3753C36.1568 32.2993 36.2328 32.2384 36.3092 32.246C36.3857 32.254 36.4484 32.3309 36.4386 32.4069C36.4288 32.4829 36.3395 32.5589 36.2648 32.5429C36.1897 32.5264 36.1212 32.4322 36.1488 32.3602" fill="#E0E0E0"/>
<path d="M37.3258 31.5832L37.0195 31.6321L37.5866 35.2543C37.5866 35.2543 37.6813 35.4143 37.7978 35.3801L37.3258 31.5832Z" fill="#A48B3B"/>
<path d="M36.4463 33.5932C36.4649 33.5901 36.4618 33.4968 36.5098 33.3981C36.5556 33.2981 36.6298 33.2412 36.6205 33.2252C36.6147 33.2088 36.5076 33.2501 36.4512 33.3706C36.3938 33.4901 36.4298 33.5994 36.4463 33.5932Z" fill="white"/>
<path d="M36.6563 33.9708C36.675 33.973 36.6963 33.8885 36.767 33.8157C36.8354 33.741 36.9181 33.7143 36.915 33.6961C36.9159 33.6783 36.8057 33.6788 36.7194 33.7712C36.6328 33.8623 36.6385 33.9725 36.6563 33.9708Z" fill="white"/>
<path d="M37.1614 34.1374C37.1632 34.12 37.0676 34.1058 36.9716 34.1658C36.8756 34.2254 36.8463 34.3178 36.8627 34.3236C36.8792 34.332 36.9267 34.2689 37.0058 34.2209C37.0845 34.1712 37.1618 34.156 37.1614 34.1374Z" fill="white"/>
<path d="M35.9845 33.6153C36.0005 33.6055 35.9641 33.5237 35.9583 33.4179C35.9503 33.3126 35.9752 33.2264 35.9583 33.2188C35.9436 33.2099 35.885 33.2979 35.8934 33.4224C35.9014 33.5464 35.9712 33.6259 35.9845 33.6153Z" fill="white"/>
<path d="M29.4454 25.5444C29.4454 25.5444 28.2209 29.0453 28.0321 29.7467C27.8432 30.448 27.3249 32.2933 27.8676 33.1187C28.4103 33.944 29.5756 33.8498 30.0912 33.6671C30.6067 33.4844 34.4921 31.2044 34.4921 31.2044L34.4316 29.9209L30.9992 30.3987L31.7365 27.0591L31.8476 25.1289L29.4454 25.5444Z" fill="#FBEAB9"/>
<path d="M31.0944 27.5449L31.3718 27.8684C31.3718 27.8684 30.5691 31.3893 30.6047 32.1395C30.6336 32.7587 30.5958 33.704 31.662 34.1209C32.0678 34.2795 32.5158 34.3035 32.9442 34.2178L34.4469 34.0209L38.7269 33.3524L38.4998 31.096L33.9269 31.192L34.7456 28.8778C34.7456 28.8778 35.2087 27.7827 35.3331 27.0049C35.458 26.2271 35.6873 25.4649 35.6313 25.4462C35.4207 25.376 35.0096 24.6302 35.0096 24.6302L31.2562 24.5689L30.9309 26.6622L31.0944 27.5449Z" fill="#FBEAB9"/>
<path d="M34.7457 28.8773C34.7488 28.8782 34.735 28.928 34.7074 29.0164C34.6768 29.1124 34.6363 29.2378 34.5874 29.3898C34.4843 29.7044 34.3385 30.1378 34.175 30.6156C34.0932 30.8542 34.0154 31.0813 33.9439 31.2893C33.8719 31.4969 33.7959 31.6796 33.727 31.8307C33.6581 31.9818 33.5959 32.1009 33.551 32.1818C33.5061 32.2631 33.4785 32.3062 33.4759 32.3049C33.4728 32.3031 33.495 32.2569 33.535 32.1738C33.575 32.0902 33.6319 31.9693 33.6968 31.8178C33.7617 31.6658 33.8337 31.4831 33.903 31.276C33.9701 31.068 34.0492 30.8404 34.1305 30.6013C34.2941 30.1236 34.4448 29.6916 34.5559 29.3796C34.6101 29.2298 34.6554 29.1058 34.6897 29.0111C34.723 28.9236 34.7425 28.8764 34.7457 28.8773Z" fill="#CEB575"/>
<path d="M30.6167 32.3387C30.6216 32.3422 30.5803 32.4084 30.5047 32.5093C30.4287 32.6098 30.3172 32.744 30.1825 32.8818C30.0479 33.0196 29.9163 33.1342 29.8176 33.2124C29.719 33.2907 29.6536 33.3333 29.6496 33.3284C29.6412 33.3173 29.883 33.1231 30.1492 32.8493C30.4167 32.5769 30.6056 32.3302 30.6167 32.3387Z" fill="#CEB575"/>
<path d="M31.0421 33.7129C31.0413 33.7142 31.0244 33.7009 30.9928 33.6738C30.9621 33.6462 30.9213 33.6005 30.8759 33.536C30.7893 33.4049 30.6981 33.192 30.6488 32.9156C30.6364 32.8462 30.6288 32.7738 30.6186 32.6978C30.6084 32.6222 30.5977 32.5436 30.5946 32.4613C30.5897 32.3791 30.5826 32.2942 30.5844 32.2067C30.5844 32.1191 30.5821 32.0289 30.5884 31.9365C30.603 31.5667 30.6568 31.1636 30.7328 30.7445C30.8879 29.9067 31.0764 29.1596 31.1977 28.616C31.2581 28.348 31.3079 28.1298 31.3435 27.9725C31.3604 27.9 31.3737 27.8422 31.3839 27.7978C31.3937 27.7578 31.3995 27.7374 31.4013 27.7374C31.403 27.7378 31.3999 27.7591 31.3933 27.7996C31.3853 27.8445 31.3746 27.9031 31.3613 27.976C31.3333 28.1294 31.2879 28.3502 31.2301 28.6231C31.1168 29.1689 30.9337 29.9173 30.7786 30.7529C30.703 31.1707 30.6484 31.5716 30.6315 31.9387C30.6248 32.0302 30.6261 32.1196 30.6253 32.2067C30.6226 32.2938 30.6288 32.3778 30.6333 32.4591C30.6355 32.5409 30.6453 32.6191 30.6546 32.6942C30.6639 32.7693 30.6706 32.8422 30.6817 32.9102C30.7266 33.1836 30.8115 33.3951 30.8919 33.5267C30.9741 33.6573 31.0461 33.7089 31.0421 33.7129Z" fill="#CEB575"/>
<path d="M38.5003 31.0956C38.5003 31.0973 38.4843 31.0987 38.4545 31.1004C38.419 31.1018 38.3754 31.1036 38.3225 31.1053C38.2012 31.1084 38.0372 31.1129 37.8376 31.1182C37.4221 31.1307 36.8594 31.1476 36.2376 31.1658C35.6127 31.1853 35.0465 31.1982 34.6367 31.2C34.4319 31.2009 34.2661 31.2004 34.1514 31.1982C34.0985 31.1969 34.055 31.1956 34.0194 31.1947C33.9892 31.1933 33.9736 31.192 33.9736 31.1902C33.9736 31.1884 33.9896 31.1871 34.0194 31.1853C34.055 31.184 34.0985 31.1822 34.1514 31.1804C34.2727 31.1773 34.4367 31.1729 34.6363 31.1676C35.0519 31.1551 35.6145 31.1382 36.2363 31.12C36.8612 31.1004 37.427 31.0876 37.8372 31.0858C38.0421 31.0849 38.2079 31.0853 38.3225 31.0876C38.3754 31.0889 38.419 31.0902 38.4545 31.0911C38.4843 31.0924 38.5003 31.0938 38.5003 31.0956Z" fill="#CEB575"/>
<path d="M31.2347 26.3675C31.2485 26.3675 31.2542 26.6475 31.3009 26.9884C31.3462 27.3298 31.4147 27.6013 31.4013 27.6049C31.3956 27.6066 31.3707 27.5404 31.3413 27.4306C31.3116 27.3209 31.2787 27.1666 31.2551 26.9946C31.232 26.8226 31.2231 26.6653 31.2227 26.5515C31.2222 26.4378 31.2285 26.3675 31.2347 26.3675Z" fill="#CEB575"/>
<path d="M35.438 14.7578C35.2162 14.4502 34.8375 14.2822 34.4598 14.2467C34.082 14.2116 33.7029 14.2951 33.3415 14.4102C32.3549 14.724 31.4469 15.2769 30.7064 16.0004C30.57 16.1338 30.4335 16.2831 30.3949 16.4702C30.3562 16.6569 30.4575 16.8853 30.646 16.9164L33.0082 17.7418C33.43 17.6978 33.8558 17.6529 34.2602 17.5244C34.6646 17.396 35.0518 17.1764 35.3095 16.8396C35.5629 16.5089 35.6749 16.0853 35.6807 15.6689C35.6851 15.3489 35.6251 15.0169 35.438 14.7578Z" fill="#F8DF88"/>
<path d="M31.1459 16.5173C31.0788 16.5413 29.6037 16.9324 29.4566 17.1871C29.3095 17.4418 29.0228 22.2404 29.0601 22.5484C29.0788 22.7022 29.1575 23.0511 29.2313 23.3609C29.3161 23.716 29.2237 23.9058 29.0366 24.2293C28.8268 24.5911 28.6761 24.7356 28.7179 25.1653C28.7344 25.3369 28.9486 25.7582 28.9988 25.9418L28.8486 26.4293C28.8486 26.4293 30.3019 26.4529 32.6517 26.5284C35.0015 26.604 35.513 26.6916 35.513 26.6916L35.5193 26.1591C35.5193 26.1591 35.821 25.4978 35.9379 24.6391C36.0161 24.0676 35.161 22.2618 35.161 22.2618L35.9144 17.9747L35.9877 17.312C35.9877 17.312 35.6001 16.8053 34.8619 16.572C34.1241 16.3378 31.1459 16.5173 31.1459 16.5173Z" fill="#F8DF88"/>
<g opacity="0.3">
<path d="M32.2686 21.0271C32.4321 21.3858 32.637 21.7818 33.0143 21.8956C33.1917 21.9489 33.3819 21.9298 33.5663 21.9498C33.8846 21.9844 34.1761 22.1338 34.469 22.2622C34.9414 22.4693 35.4361 22.6276 35.941 22.7329C36.2268 22.7924 36.5246 22.8347 36.8086 22.768C37.0926 22.7009 37.3619 22.5031 37.4379 22.2213L32.2686 21.0271Z" fill="#040000"/>
</g>
<path d="M36.1004 17.4724C36.0884 17.4822 35.9097 17.2036 35.5889 16.9644C35.2702 16.7222 34.9529 16.628 34.9591 16.6138C34.9604 16.6084 35.0413 16.6253 35.1653 16.6733C35.2889 16.7213 35.4542 16.8053 35.6169 16.9276C35.7791 17.0502 35.9057 17.1853 35.9862 17.2911C36.0666 17.3964 36.1049 17.4693 36.1004 17.4724Z" fill="#DBBF64"/>
<path d="M32.8845 20.156L34.4103 17.5351L35.073 16.6409C34.7174 16.4431 34.405 16.3431 34.0112 16.4378C33.9823 16.5036 33.7201 16.764 33.4205 17.3044C32.7241 18.5618 32.1396 19.9036 32.1396 19.9036L32.2196 20.9262L35.9308 25.1951L36.2068 24.1262L34.7828 23.0591C34.7828 23.0591 33.1068 21.3609 33.1272 21.2938C33.1476 21.2267 32.8845 20.156 32.8845 20.156Z" fill="#A48B3B"/>
<path d="M29.3746 18.02C29.3875 18.0213 29.3408 18.6289 29.2711 19.3769C29.2013 20.1253 29.1342 20.7307 29.1213 20.7298C29.1084 20.7284 29.1551 20.1213 29.2248 19.3729C29.2951 18.6244 29.3622 18.0187 29.3746 18.02Z" fill="#DBBF64"/>
<path d="M31.2 17.9C31.1955 17.904 31.1364 17.8516 31.0497 17.7578C30.9631 17.664 30.8506 17.5276 30.7409 17.3662C30.6311 17.2049 30.5457 17.0498 30.4906 16.9347C30.4355 16.8196 30.4084 16.7449 30.4137 16.7427C30.4266 16.7364 30.5609 17.0213 30.7791 17.3404C30.9955 17.6604 31.2106 17.8902 31.2 17.9Z" fill="#DBBF64"/>
<path d="M34.0526 16.3502C34.0553 16.3524 34.0304 16.3849 33.9841 16.4418C33.937 16.4982 33.8655 16.5778 33.7708 16.6689C33.5833 16.8538 33.3024 17.0867 32.9713 17.3138C32.6388 17.5396 32.3197 17.7164 32.0793 17.8236C31.9597 17.8787 31.8597 17.916 31.7899 17.9396C31.7197 17.9622 31.6806 17.9733 31.6797 17.9702C31.6788 17.9671 31.7157 17.9502 31.7837 17.9227C31.8513 17.8942 31.9486 17.8524 32.0655 17.7942C32.301 17.6804 32.6148 17.5 32.9455 17.276C33.2748 17.0502 33.5566 16.8231 33.7486 16.6458C33.8455 16.5582 33.9201 16.4827 33.9708 16.4302C34.021 16.3764 34.0499 16.348 34.0526 16.3502Z" fill="#DBBF64"/>
<path d="M30.3549 22.8298C30.358 22.8302 30.3575 22.8569 30.354 22.9058C30.3509 22.9547 30.3406 23.0244 30.3229 23.1102C30.2878 23.2813 30.2113 23.5138 30.0784 23.7458C29.9446 23.9778 29.782 24.1604 29.6518 24.2764C29.5869 24.3347 29.5313 24.3787 29.4909 24.4058C29.4509 24.4333 29.4278 24.4475 29.426 24.4449C29.4211 24.4387 29.5069 24.3738 29.6295 24.2529C29.7522 24.1324 29.9073 23.9502 30.0389 23.7227C30.1695 23.4951 30.2491 23.2693 30.2918 23.1027C30.334 22.9355 30.3469 22.8289 30.3549 22.8298Z" fill="#DBBF64"/>
<path d="M33.9353 24.4787C33.9309 24.4827 33.8651 24.4209 33.766 24.3133C33.6682 24.2053 33.534 24.0498 33.4331 23.8462C33.3322 23.6422 33.3033 23.4311 33.3215 23.2836C33.33 23.2098 33.346 23.1511 33.3615 23.1129C33.3766 23.0742 33.3886 23.0547 33.3913 23.056C33.3993 23.0587 33.3615 23.1427 33.354 23.2862C33.3446 23.4289 33.3775 23.6293 33.4744 23.8262C33.5717 24.0231 33.6993 24.1796 33.7904 24.2924C33.8824 24.4044 33.9402 24.4742 33.9353 24.4787Z" fill="#DBBF64"/>
<path d="M35.0202 26.0551C35.0202 26.0569 34.9997 26.056 34.9615 26.0534C34.9184 26.0498 34.8633 26.0454 34.7944 26.0396C34.6437 26.0262 34.4353 26.0085 34.1802 25.9862C33.6615 25.9431 32.9442 25.8942 32.1504 25.868C31.3566 25.8422 30.6375 25.8445 30.1171 25.8538C29.8611 25.8591 29.6517 25.864 29.5006 25.8671C29.4317 25.8685 29.3762 25.8694 29.3331 25.8702C29.2949 25.8702 29.2744 25.8698 29.2744 25.868C29.2744 25.8662 29.2944 25.864 29.3326 25.8609C29.3757 25.8578 29.4313 25.8542 29.4997 25.8494C29.6451 25.84 29.8557 25.8302 30.1162 25.8214C30.6366 25.8036 31.3571 25.7965 32.1517 25.8222C32.9464 25.8485 33.6646 25.9027 34.1829 25.9542C34.442 25.98 34.6517 26.0036 34.7962 26.0222C34.8646 26.0316 34.9197 26.0391 34.9624 26.0449C35.0006 26.0498 35.0202 26.0534 35.0202 26.0551Z" fill="#DBBF64"/>
<path d="M32.9047 22.6911C32.9025 22.6982 32.7731 22.6613 32.5611 22.6151C32.3491 22.5689 32.0536 22.5182 31.7238 22.4956C31.394 22.4733 31.094 22.4831 30.878 22.5C30.6616 22.5169 30.5287 22.5356 30.5273 22.5285C30.5269 22.5253 30.5598 22.5173 30.6193 22.5058C30.6793 22.4938 30.7665 22.4805 30.8749 22.468C31.0913 22.4427 31.394 22.4276 31.7269 22.4498C32.0598 22.4729 32.3571 22.5293 32.5687 22.584C32.6745 22.6111 32.7589 22.6365 32.8167 22.6565C32.874 22.676 32.9056 22.6885 32.9047 22.6911Z" fill="#DBBF64"/>
<path d="M35.9885 17.3116C35.9885 17.3116 37.5223 19.1898 37.7543 19.6187C37.9863 20.0476 38.4338 21.0605 38.3134 21.5062C38.193 21.952 37.8801 22.3627 37.4289 22.4938C36.9774 22.6249 35.4778 22.2556 35.4778 22.2556C35.4778 22.2556 35.6201 20.7751 35.6703 20.8387C35.7205 20.9022 36.0654 20.732 36.0654 20.732L35.2276 19.928L35.1641 18.5747L35.9885 17.3116Z" fill="#F8DF88"/>
<path d="M37.4616 20.748C37.4581 20.7631 37.1385 20.6475 36.7279 20.6578C36.3172 20.6631 36.0021 20.7902 35.9981 20.7755C35.9959 20.7707 36.0714 20.7324 36.2017 20.6924C36.3319 20.6524 36.5181 20.6155 36.727 20.6115C36.9354 20.608 37.1234 20.6378 37.255 20.6724C37.3865 20.7075 37.4634 20.7427 37.4616 20.748Z" fill="#DBBF64"/>
<path d="M35.8817 18.3049C35.8848 18.3053 35.8826 18.3369 35.8764 18.3933C35.8702 18.4498 35.8586 18.5316 35.8439 18.632C35.8137 18.8333 35.767 19.1102 35.7079 19.4151C35.6488 19.72 35.5884 19.9942 35.5413 20.1924C35.5177 20.2915 35.4973 20.3711 35.4822 20.4262C35.467 20.4809 35.4573 20.5111 35.4542 20.5102C35.451 20.5093 35.4551 20.4782 35.4648 20.4222C35.4773 20.356 35.4919 20.2773 35.5093 20.1858C35.5506 19.9747 35.6039 19.7049 35.6626 19.4067C35.7199 19.1084 35.7715 18.8387 35.8119 18.6271C35.8302 18.5355 35.8457 18.4569 35.8591 18.3911C35.8702 18.3347 35.8786 18.3044 35.8817 18.3049Z" fill="#DBBF64"/>
<g opacity="0.3">
<path d="M34.4779 16.1849C34.4303 16.1427 34.3579 16.14 34.2983 16.1622C34.2388 16.184 34.1868 16.2236 34.1414 16.268C33.553 16.8387 33.1028 17.312 32.209 17.7422C32.865 17.5467 33.8374 17.1342 34.3997 16.5409C34.4463 16.4916 34.493 16.4387 34.5152 16.3742C34.537 16.3093 34.5285 16.2302 34.4779 16.1849Z" fill="#040000"/>
</g>
<path d="M33.6343 20.4631C33.6343 20.4631 33.5059 19.8187 33.4521 19.7293C33.3983 19.6404 32.4437 19.4831 32.4437 19.4831C32.4437 19.4831 31.9272 19.4987 31.9374 19.7138C31.9477 19.9289 32.0508 19.9671 32.0508 19.9671C32.0508 19.9671 31.8805 20.0787 31.905 20.2071C31.9294 20.3356 31.9765 20.3591 31.9765 20.3591C31.9765 20.3591 31.8499 20.4169 31.8837 20.5449C31.9174 20.6729 32.0325 20.7707 32.0325 20.7707C32.0325 20.7707 31.9725 20.8684 32.0694 20.9676C32.1663 21.0667 32.3557 21.1009 32.3557 21.1009C32.3557 21.1009 32.773 21.5991 32.949 21.6169C33.1254 21.6347 33.6877 21.6169 33.6877 21.6169L35.4823 22.1978L35.6357 20.9311L33.6343 20.4631Z" fill="#F7C3AB"/>
<path d="M32.5282 19.9529C32.5287 19.9658 32.4171 19.9796 32.2785 19.9845C32.1402 19.9894 32.0278 19.9827 32.0273 19.9698C32.0269 19.9569 32.1385 19.9431 32.2771 19.9382C32.4153 19.9338 32.5278 19.94 32.5282 19.9529Z" fill="#E4AE98"/>
<path d="M32.4108 20.3662C32.4113 20.3791 32.3189 20.3916 32.2046 20.3942C32.0904 20.3969 31.9975 20.3889 31.9971 20.3765C31.9966 20.3636 32.0891 20.3511 32.2033 20.3485C32.3175 20.3454 32.4104 20.3534 32.4108 20.3662Z" fill="#E4AE98"/>
<path d="M32.4342 20.7138C32.4355 20.7267 32.3493 20.7467 32.2417 20.7587C32.1337 20.7707 32.0453 20.7703 32.044 20.7578C32.0426 20.7454 32.1289 20.7249 32.2369 20.7129C32.344 20.7009 32.4329 20.7014 32.4342 20.7138Z" fill="#E4AE98"/>
<path d="M32.5037 20.5956C32.4984 20.5978 32.4859 20.5853 32.4806 20.5582C32.4748 20.5316 32.4806 20.4916 32.5042 20.4569C32.5273 20.4222 32.561 20.4018 32.5868 20.3956C32.613 20.3889 32.6295 20.3938 32.6304 20.3996C32.6321 20.4125 32.5775 20.4285 32.5424 20.4827C32.5046 20.5356 32.5153 20.5907 32.5037 20.5956Z" fill="#E4AE98"/>
<path d="M32.7383 20.264C32.733 20.2662 32.7219 20.2556 32.717 20.2329C32.7117 20.2107 32.7157 20.1765 32.7348 20.1467C32.7535 20.1169 32.7815 20.0987 32.8032 20.0925C32.825 20.0862 32.8397 20.0902 32.8406 20.096C32.8428 20.1089 32.8006 20.1267 32.7739 20.1711C32.7446 20.2147 32.7503 20.2591 32.7383 20.264Z" fill="#E4AE98"/>
<path d="M32.9214 19.8205C32.9089 19.824 32.8929 19.7742 32.9254 19.7271C32.9574 19.68 33.0071 19.6751 33.0098 19.6871C33.0138 19.6996 32.9854 19.72 32.9636 19.7529C32.9405 19.7849 32.9343 19.8187 32.9214 19.8205Z" fill="#E4AE98"/>
<path d="M33.6089 20.8614C33.596 20.86 33.5889 20.7729 33.5929 20.6667C33.5969 20.5605 33.6102 20.4742 33.6231 20.4738C33.636 20.4734 33.6431 20.5605 33.6391 20.6685C33.6351 20.776 33.6214 20.8627 33.6089 20.8614Z" fill="#E4AE98"/>
<g opacity="0.3">
<path d="M34.043 14.7578C33.9897 14.7302 33.9257 14.736 33.8662 14.7449C33.7035 14.7698 33.5444 14.8147 33.3928 14.8782C33.3133 14.9115 33.2306 14.9555 33.1933 15.0333C33.1675 15.0871 33.1684 15.1493 33.1693 15.2093C33.1764 15.584 33.1839 15.9587 33.191 16.3333L33.2982 16.212C33.5986 15.9071 33.8524 15.5569 34.0577 15.1813C34.0955 15.112 34.1324 15.0391 34.1386 14.9604C34.1453 14.8809 34.1133 14.7942 34.043 14.7578Z" fill="#040000"/>
</g>
<path d="M33.1605 15.0187C33.1596 15.0173 33.1725 15.0053 33.1983 14.9835C33.2249 14.9627 33.264 14.9315 33.3192 14.8982C33.4276 14.8298 33.6045 14.7573 33.8329 14.7253C33.8889 14.7169 33.9512 14.7067 34.0169 14.7191C34.0827 14.7289 34.1512 14.78 34.168 14.8551C34.1974 15.0049 34.1063 15.1409 34.0303 15.2653C33.8734 15.524 33.684 15.7987 33.4645 16.0707C33.0254 16.6155 32.5476 17.0378 32.1818 17.3115C31.9992 17.4493 31.8445 17.5515 31.7365 17.6195C31.6854 17.6502 31.6436 17.6755 31.6103 17.6955C31.5814 17.7124 31.5654 17.7204 31.5645 17.7191C31.5636 17.7178 31.5778 17.7071 31.6049 17.6875C31.6369 17.6658 31.6769 17.6382 31.7263 17.6044C31.8312 17.5315 31.9823 17.4258 32.1614 17.2853C32.5209 17.0062 32.9916 16.5827 33.4281 16.0413C33.6463 15.7711 33.8356 15.4991 33.9934 15.2431C34.0325 15.1787 34.0743 15.1182 34.1005 15.0542C34.1272 14.9911 34.1441 14.9235 34.1307 14.864C34.1174 14.8044 34.0663 14.764 34.0098 14.7538C33.9525 14.7422 33.8938 14.7498 33.8374 14.7578C33.6116 14.7853 33.4383 14.8511 33.3281 14.9138C33.2174 14.9764 33.1632 15.0222 33.1605 15.0187Z" fill="#DBBF64"/>
<path d="M31.6374 11.6755L31.5494 11.6831C30.6623 11.7618 29.9836 12.508 29.9903 13.3987C29.9965 14.2275 29.9974 14.9778 30.0418 15.4187C30.1338 16.3315 31.0707 16.4275 31.0707 16.4275C31.0729 16.4275 31.0925 16.7987 31.105 17.0675L31.4605 17.8142C32.0894 17.3564 32.7912 16.7787 33.1916 16.3329L33.1534 13.3987C33.1512 12.4427 32.5929 11.6471 31.6374 11.6755Z" fill="#F7C3AB"/>
<path d="M31.0742 16.4262C31.0742 16.4262 31.6533 16.4089 32.2329 15.9693C32.2329 15.9693 32.0076 16.6818 31.088 16.68L31.0742 16.4262Z" fill="#E4AE98"/>
<path d="M30.3733 14.2034C30.3782 14.2972 30.4617 14.3706 30.5599 14.367C30.6577 14.3634 30.7333 14.2848 30.7284 14.191C30.7235 14.0972 30.6399 14.0239 30.5422 14.0274C30.4439 14.031 30.3684 14.1097 30.3733 14.2034Z" fill="#352B24"/>
<path d="M30.2135 13.7853C30.2313 13.8008 30.3237 13.7191 30.4642 13.7071C30.6042 13.6928 30.7139 13.7559 30.7273 13.7377C30.7339 13.7293 30.7148 13.7004 30.6673 13.6715C30.6202 13.6431 30.5419 13.6177 30.4544 13.6262C30.3668 13.6346 30.2962 13.6733 30.257 13.7097C30.217 13.7462 30.205 13.7782 30.2135 13.7853Z" fill="#352B24"/>
<path d="M31.6002 13.696C31.618 13.7115 31.7104 13.6298 31.8509 13.6178C31.9909 13.6035 32.1007 13.6667 32.114 13.6484C32.1207 13.64 32.1015 13.6111 32.054 13.5822C32.0069 13.5538 31.9287 13.5284 31.8415 13.5369C31.754 13.5453 31.6833 13.584 31.6438 13.6204C31.6038 13.6573 31.5918 13.6893 31.6002 13.696Z" fill="#352B24"/>
<path d="M31.1886 14.82C31.1886 14.812 31.0997 14.8045 30.957 14.7992C30.921 14.7987 30.8863 14.7947 30.8779 14.7707C30.8672 14.7454 30.8788 14.7054 30.8926 14.6623C30.9188 14.5725 30.9459 14.4783 30.9743 14.3796C31.0872 13.9778 31.1655 13.6485 31.1495 13.644C31.133 13.6396 31.0286 13.9618 30.9157 14.3636C30.8886 14.4627 30.8628 14.5569 30.8383 14.6472C30.8286 14.6889 30.809 14.7374 30.8321 14.7894C30.8441 14.8152 30.8721 14.8325 30.8957 14.8365C30.9192 14.8414 30.9397 14.84 30.9575 14.8396C31.1001 14.8352 31.1886 14.828 31.1886 14.82Z" fill="#352B24"/>
<path d="M31.5229 13.2608C31.5451 13.2951 31.678 13.2453 31.8438 13.2271C32.0091 13.2053 32.15 13.2222 32.1633 13.1839C32.1691 13.1657 32.1384 13.1359 32.0771 13.1119C32.0166 13.0879 31.9255 13.0733 31.8264 13.0848C31.7273 13.0968 31.6424 13.1328 31.5891 13.1706C31.5358 13.2084 31.5126 13.2444 31.5229 13.2608Z" fill="#352B24"/>
<path d="M30.1733 13.373C30.2049 13.4027 30.3169 13.361 30.4546 13.3494C30.592 13.3339 30.7106 13.3521 30.7346 13.317C30.7453 13.3001 30.7244 13.2694 30.6715 13.2427C30.6191 13.2165 30.5333 13.1979 30.4391 13.2072C30.3449 13.2165 30.2649 13.2516 30.2195 13.2881C30.1729 13.3245 30.1591 13.3583 30.1733 13.373Z" fill="#352B24"/>
<path d="M33.1426 14.0823C33.1577 14.0743 33.7541 13.8409 33.7892 14.4676C33.8244 15.0943 33.1884 15.0005 33.1861 14.9823C33.1839 14.9645 33.1426 14.0823 33.1426 14.0823Z" fill="#F7C3AB"/>
<path d="M33.3599 14.7342C33.3626 14.732 33.3715 14.7413 33.3901 14.7489C33.4084 14.756 33.4399 14.76 33.4719 14.7458C33.5368 14.7178 33.5866 14.6093 33.583 14.4965C33.5813 14.4396 33.5666 14.3858 33.5435 14.3418C33.5217 14.2969 33.4901 14.2667 33.4568 14.2627C33.423 14.2569 33.4008 14.2782 33.3941 14.2965C33.3866 14.3142 33.3915 14.3267 33.3884 14.328C33.3866 14.3298 33.3741 14.3182 33.3781 14.292C33.3799 14.2796 33.3866 14.264 33.4008 14.2516C33.415 14.2387 33.4368 14.2311 33.4604 14.232C33.5088 14.2325 33.555 14.2747 33.5799 14.3227C33.6075 14.3707 33.6257 14.4311 33.6275 14.4951C33.6306 14.6218 33.5728 14.7436 33.4835 14.7747C33.4399 14.7885 33.4026 14.7773 33.3826 14.7636C33.3617 14.7493 33.3577 14.7356 33.3599 14.7342Z" fill="#E4AE98"/>
<path d="M28.6893 12.6338C28.6973 12.5964 28.7222 12.5644 28.7537 12.5431C28.8231 12.4964 28.9062 12.4973 28.9857 12.4916C29.1844 12.4769 29.3786 12.4142 29.5506 12.3142C29.4871 12.2867 29.4271 12.252 29.3751 12.2058C29.268 12.1107 29.2008 11.9596 29.2391 11.8213C29.2462 11.7956 29.2595 11.768 29.2848 11.7587C29.3248 11.744 29.3626 11.7818 29.3928 11.8116C29.4924 11.9102 29.5808 11.9502 29.7195 11.928C29.8053 11.9142 29.888 11.8898 29.9537 11.8436C29.9564 11.8404 29.9586 11.8373 29.9613 11.8342C29.992 11.7987 30.0217 11.7649 30.0515 11.732C30.0515 11.732 30.0515 11.732 30.0515 11.7316C30.2737 11.484 30.4666 11.3102 30.6706 11.2142C30.9693 11.0733 31.4777 10.9933 31.8017 11.0587C32.1257 11.1236 32.4271 11.3658 32.4906 11.6898C32.6608 11.528 32.9293 11.5138 33.1524 11.5884L33.1577 11.5858C33.4053 11.6582 33.5582 11.9062 33.6444 12.1498C33.6493 12.1631 33.6533 12.1764 33.6577 12.1898C33.7475 12.3151 33.8653 12.42 34.0026 12.4898C34.0271 12.5022 34.0546 12.5173 34.0591 12.544C34.0635 12.5707 34.0422 12.5942 34.0213 12.6111C33.9657 12.656 33.8995 12.6876 33.8297 12.704C33.8555 12.7613 33.8848 12.8173 33.92 12.8698C33.9502 12.9147 33.9857 12.968 33.9648 13.0178C33.9484 13.056 33.9022 13.0742 33.8604 13.0707C33.8186 13.0671 33.7808 13.0462 33.7444 13.0262C33.7751 13.0893 33.8062 13.1524 33.8368 13.216C33.7502 13.2364 33.6586 13.2347 33.572 13.2138C33.5337 13.448 33.5204 13.8787 33.4697 14.0391C33.3035 14.0516 33.2622 14.036 33.18 14.0689C33.0737 14.1111 33.1262 14.3009 32.9817 14.2547C32.9084 14.2311 32.7822 13.9653 32.7537 13.8933C32.5657 13.4169 32.4826 12.8996 32.5106 12.388C32.404 12.2867 32.2773 12.2062 32.1404 12.1524L32.152 12.1618C31.8906 12.0876 31.5955 12.0173 31.3595 12.1516C31.1764 12.256 31.0768 12.4578 30.9453 12.6222C30.6955 12.9338 30.4022 13.1093 30.0048 13.1498C29.9853 13.4284 30.0008 13.8813 30.0022 14.1404L29.7515 13.6369V13.6391C29.732 13.6098 29.7155 13.58 29.6995 13.5507L29.6942 13.5418V13.5404C29.6688 13.4929 29.6444 13.4449 29.6128 13.3978C29.612 13.3987 29.6115 13.3996 29.6106 13.4C29.4782 13.5316 29.2608 13.3551 29.3626 13.1982C29.3826 13.1671 29.4075 13.1391 29.436 13.1151C29.3755 13.1787 29.2817 13.2133 29.1964 13.1924C29.1111 13.1716 29.0413 13.0907 29.0435 13.0027C29.0448 12.9427 29.0844 12.8871 29.1368 12.8604C29.0244 12.8756 28.9075 12.8578 28.8057 12.8076C28.7391 12.7729 28.672 12.716 28.6893 12.6338Z" fill="#352B24"/>
<path d="M32.2081 11.8116C32.2063 11.8142 32.2481 11.8338 32.305 11.8902C32.3614 11.9467 32.4272 12.0471 32.4636 12.1862C32.4823 12.2555 32.4956 12.3333 32.5005 12.4178C32.5058 12.5022 32.5045 12.5929 32.5032 12.6889C32.5027 12.7844 32.5018 12.8858 32.5138 12.9898C32.5201 13.0418 32.5294 13.0947 32.5436 13.1471C32.5583 13.1987 32.5752 13.2547 32.6174 13.2973C32.6507 13.332 32.7045 13.3453 32.7494 13.3333C32.7947 13.3227 32.8343 13.296 32.8618 13.2609C32.9169 13.1884 32.9263 13.1004 32.9365 13.0227L32.9174 13.0262C32.9529 13.0938 32.989 13.16 33.0401 13.212C33.0903 13.264 33.1574 13.2964 33.2241 13.2987C33.2574 13.2995 33.2903 13.2924 33.3174 13.2764C33.3454 13.2609 33.3649 13.2355 33.3778 13.2093C33.3898 13.1827 33.3956 13.1542 33.3925 13.1271C33.3894 13.1 33.3774 13.0747 33.3587 13.0573L33.3507 13.0667C33.4263 13.1431 33.5032 13.1818 33.5565 13.2031C33.5832 13.2138 33.6045 13.2195 33.6187 13.2231C33.6334 13.2267 33.641 13.228 33.641 13.2271C33.641 13.2267 33.6338 13.224 33.6196 13.2195C33.6058 13.2147 33.5849 13.2076 33.5587 13.1964C33.5072 13.1738 33.4325 13.1338 33.3601 13.0578L33.3507 13.0667C33.3836 13.0978 33.3885 13.1547 33.3649 13.2027C33.3529 13.2262 33.3347 13.2484 33.3103 13.2622C33.2858 13.276 33.2556 13.2827 33.2254 13.2813C33.1641 13.2787 33.1014 13.2484 33.0543 13.1987C33.0063 13.1493 32.9712 13.0844 32.9361 13.0169L32.921 12.9884L32.9165 13.0204C32.9063 13.0982 32.8956 13.1831 32.8454 13.248C32.8205 13.2795 32.7845 13.3035 32.7445 13.3129C32.7049 13.3231 32.6614 13.3124 32.6325 13.2827C32.5956 13.2458 32.5787 13.1929 32.5645 13.1422C32.5503 13.0911 32.541 13.0391 32.5347 12.988C32.5223 12.8853 32.5227 12.7849 32.5232 12.6893C32.5236 12.5938 32.5245 12.5027 32.5183 12.4169C32.5125 12.3315 32.4978 12.2524 32.4783 12.1822C32.4396 12.0409 32.3703 11.9396 32.3112 11.884C32.2507 11.8284 32.2081 11.8116 32.2081 11.8116Z" fill="#372519"/>
<path d="M29.418 12.8693C29.418 12.8698 29.4202 12.8715 29.4255 12.8751C29.4322 12.8791 29.4397 12.8844 29.4495 12.8907C29.4602 12.8978 29.4731 12.9058 29.49 12.9133C29.5064 12.9213 29.5251 12.9315 29.5473 12.9395C29.6349 12.9751 29.7735 13.0071 29.9437 12.9871C30.1122 12.9675 30.3117 12.896 30.4851 12.7507C30.6606 12.6084 30.81 12.4049 30.9286 12.1751C30.9886 12.06 31.0366 11.9431 31.0904 11.8347C31.1437 11.7262 31.2037 11.6249 31.2789 11.5435C31.3531 11.4618 31.4411 11.3995 31.5335 11.3675C31.5797 11.3507 31.6269 11.3449 31.6717 11.3435C31.7171 11.3431 31.7606 11.3498 31.8006 11.3604C31.8811 11.3822 31.9477 11.4222 31.9984 11.4644C32.0495 11.5071 32.0851 11.5529 32.1095 11.5924C32.1562 11.6742 32.1615 11.7284 32.1651 11.7271C32.1655 11.7271 32.1651 11.724 32.1637 11.7173C32.162 11.7098 32.1602 11.7009 32.158 11.6893C32.1522 11.6649 32.1393 11.6302 32.1171 11.588C32.0931 11.5467 32.058 11.4991 32.0064 11.4547C31.9549 11.4107 31.8877 11.3689 31.8051 11.3453C31.7637 11.3338 31.7189 11.3267 31.6717 11.3262C31.6251 11.3271 31.5753 11.3333 31.5277 11.3502C31.4313 11.3822 31.3402 11.4462 31.2642 11.5293C31.1869 11.6124 31.1255 11.7151 31.0713 11.8244C31.0166 11.9338 30.9691 12.0507 30.9095 12.1644C30.7917 12.3924 30.6446 12.5938 30.4726 12.7347C30.3024 12.8787 30.1077 12.9502 29.942 12.9715C29.7749 12.9933 29.6375 12.964 29.5504 12.9311C29.4624 12.8982 29.4197 12.8667 29.418 12.8693Z" fill="#372519"/>
<path d="M29.3174 12.4711C29.3165 12.4724 29.329 12.48 29.3516 12.492C29.3743 12.5049 29.4085 12.52 29.4521 12.5355C29.4956 12.5515 29.549 12.5662 29.6094 12.5773C29.6699 12.5875 29.7374 12.5933 29.8081 12.592C29.8788 12.5898 29.9459 12.58 30.0059 12.5671C30.0654 12.5529 30.1183 12.5355 30.1605 12.5173C30.2032 12.4991 30.2365 12.4822 30.2583 12.4684C30.2805 12.4551 30.2921 12.4471 30.2912 12.4458C30.2894 12.4422 30.2401 12.4711 30.1548 12.5035C30.1121 12.52 30.0601 12.5351 30.0014 12.548C29.9423 12.56 29.877 12.5689 29.8072 12.5711C29.7379 12.5724 29.6716 12.5671 29.6125 12.5582C29.5534 12.5484 29.5005 12.536 29.457 12.5218C29.3699 12.4942 29.3196 12.4675 29.3174 12.4711Z" fill="#372519"/>
<path d="M31.8461 15.0969C31.8341 15.0795 31.8199 15.0618 31.7963 15.0551C31.7674 15.0471 31.7363 15.0595 31.7096 15.072C31.515 15.1622 31.3203 15.252 31.1256 15.3422L31.0332 15.3804C31.0923 15.5338 31.2559 15.6649 31.4563 15.6915C31.6563 15.7182 31.8794 15.6244 31.9385 15.4715C31.9865 15.3462 31.9265 15.2115 31.8461 15.0969Z" fill="#E4AE98"/>
<path d="M31.5261 15.7106C31.5221 15.6995 31.6408 15.6938 31.7666 15.6018C31.8275 15.5564 31.8875 15.4893 31.9061 15.4049C31.9261 15.3213 31.9061 15.2213 31.8377 15.1386C31.819 15.1164 31.7977 15.096 31.775 15.0786L31.8208 15.0835C31.3826 15.2631 31.0359 15.3915 31.0266 15.3769C31.0168 15.3626 31.3479 15.2102 31.7839 15.0275L31.8092 15.0169L31.8297 15.0324C31.8568 15.0529 31.8826 15.0769 31.9048 15.1035C31.9857 15.2013 32.0061 15.3182 31.9786 15.416C31.9519 15.5155 31.8764 15.5898 31.8039 15.6351C31.6519 15.7289 31.523 15.7164 31.5261 15.7106Z" fill="#352B24"/>
<g opacity="0.3">
<path d="M29.1328 26.4338C29.4346 26.6551 29.8013 26.7835 30.1746 26.8124C30.5479 26.8413 30.923 26.8058 31.2968 26.7844C32.6386 26.708 34.0053 26.8271 35.3448 26.936L35.3977 26.6773L32.8368 26.5342L29.1328 26.4338Z" fill="#040000"/>
</g>
<g opacity="0.3">
<path d="M29.9521 25.1698L29.9766 25.1973C30.3677 25.4342 30.8428 25.4738 31.2988 25.5076C31.6668 25.5347 32.0375 25.5618 32.4033 25.5147C32.769 25.4676 33.1339 25.3404 33.4081 25.0938C32.2793 25.3662 31.0917 25.3924 29.9521 25.1698Z" fill="#040000"/>
</g>
<path d="M24.8094 14.9116C24.8094 14.9116 24.328 18.5173 23.8587 19.4813C23.6173 19.9773 21.4565 22.7538 21.4565 22.7538L20.2725 21.0698L22.5365 18.6058L23.8214 14.8484L24.8094 14.9116Z" fill="#F7BB9B"/>
<path d="M24.7742 13.9294C24.7787 13.904 24.8409 13.6103 24.7778 13.528C24.7147 13.4458 24.5947 13.4645 24.5947 13.4645C24.5947 13.4645 24.5449 13.3391 24.4485 13.2969C24.352 13.2547 24.224 13.2965 24.224 13.2965L24.1405 13.2405C24.0182 13.1587 23.9374 13.2058 23.9374 13.2058C23.9374 13.2058 23.84 13.2845 23.7311 13.2818C23.6222 13.2791 23.484 13.5805 23.4067 13.724C23.3254 13.876 23.224 14.0578 23.3658 14.2725C23.556 14.56 23.8569 14.8943 23.8569 14.8943L24.7551 14.9894C24.7551 14.9894 24.8774 14.8805 24.8934 14.5591C24.9094 14.2378 24.7742 13.9294 24.7742 13.9294Z" fill="#F7BB9B"/>
<path d="M24.5947 13.4641C24.5898 13.4627 24.5672 13.5267 24.5352 13.6316C24.5032 13.7365 24.4609 13.8814 24.4169 14.0427C24.4116 14.0627 24.4058 14.0827 24.4005 14.1023C24.3991 14.109 24.3978 14.1081 24.3965 14.121C24.3965 14.1298 24.3983 14.1374 24.4018 14.1441C24.4085 14.1578 24.4187 14.1663 24.4285 14.1725C24.4694 14.1965 24.5094 14.1987 24.5463 14.2018C24.5863 14.205 24.6263 14.1903 24.6529 14.1685C24.68 14.1467 24.7 14.1218 24.7147 14.0974C24.7445 14.049 24.7583 14.0058 24.7671 13.9765C24.7756 13.9467 24.7769 13.9294 24.7747 13.929C24.7685 13.9267 24.752 13.9947 24.6929 14.0832C24.6632 14.125 24.6152 14.1752 24.5494 14.1676C24.5152 14.1641 24.4765 14.1592 24.4494 14.1418C24.4427 14.1378 24.4378 14.1325 24.4356 14.1276C24.4334 14.1214 24.4334 14.1241 24.4374 14.1112C24.4427 14.0916 24.448 14.0716 24.4538 14.0516C24.4978 13.8907 24.5356 13.7445 24.5614 13.6378C24.5863 13.5321 24.6 13.4658 24.5947 13.4641Z" fill="#F1956B"/>
<path d="M24.2257 13.296C24.2208 13.2956 24.2092 13.3512 24.195 13.4418C24.1808 13.5329 24.1634 13.6587 24.1466 13.7992L24.1474 13.7956C24.1461 13.8005 24.1448 13.8058 24.143 13.8107C24.1252 13.8832 24.1199 13.9565 24.139 14.0218C24.1577 14.0885 24.2132 14.1325 24.263 14.1436C24.3132 14.1556 24.3537 14.1458 24.3794 14.1378C24.4052 14.1294 24.4181 14.1205 24.4168 14.1183C24.4159 14.1156 24.4017 14.12 24.3759 14.124C24.3506 14.1276 24.3123 14.132 24.2701 14.1187C24.2288 14.1054 24.1861 14.0685 24.1719 14.0125C24.1568 13.9565 24.1621 13.8876 24.179 13.8205C24.1803 13.816 24.1817 13.8112 24.1826 13.8072L24.183 13.8049V13.8036C24.1994 13.6632 24.2128 13.5365 24.2203 13.4449C24.2283 13.3534 24.2306 13.2969 24.2257 13.296Z" fill="#F1956B"/>
<path d="M23.9353 13.2053C23.93 13.2062 23.9366 13.2911 23.9517 13.4275L23.9522 13.4218C23.9153 13.5351 23.8682 13.6889 23.8184 13.8582C23.8073 13.8955 23.7966 13.9324 23.7864 13.9675L23.7842 13.9755L23.7882 13.9818C23.8108 14.0186 23.8371 14.0498 23.8691 14.0742C23.9002 14.0991 23.9397 14.1151 23.9784 14.1138C24.0171 14.1146 24.0531 14.0924 24.0731 14.0675C24.0944 14.0426 24.1068 14.0164 24.1166 13.9924C24.1362 13.944 24.1428 13.9035 24.1473 13.8755C24.1513 13.8475 24.1508 13.832 24.1486 13.8315C24.1428 13.8302 24.1353 13.8924 24.0948 13.9826C24.0744 14.0244 24.0397 14.084 23.978 14.0813C23.9175 14.0822 23.8584 14.0271 23.8206 13.9635L23.8224 13.9778C23.8331 13.9426 23.8437 13.9058 23.8548 13.8684C23.9046 13.6991 23.9486 13.5444 23.9793 13.4293L23.9802 13.4262L23.9797 13.4235C23.9571 13.2884 23.9406 13.2049 23.9353 13.2053Z" fill="#F1956B"/>
<path d="M23.8554 14.8938C23.8554 14.8938 23.3674 14.2947 23.3643 14.272C23.3608 14.2489 23.4777 13.5667 23.5892 13.4365C23.7012 13.3062 23.8528 13.1529 23.8528 13.1529C23.8528 13.1529 24.0283 13.1831 23.9608 13.4476C23.8932 13.7125 23.803 13.9822 23.803 13.9822L23.9679 14.1898C23.9679 14.1898 24.5461 14.3027 24.551 14.8476" fill="#F7BB9B"/>
<path d="M24.5507 14.8476C24.5525 14.8476 24.552 14.8241 24.5503 14.7792C24.5507 14.7565 24.5454 14.7294 24.5387 14.6974C24.5347 14.6649 24.5205 14.6298 24.5067 14.5898C24.4738 14.5125 24.4156 14.4241 24.3245 14.3481C24.2329 14.2734 24.1138 14.2089 23.9703 14.1738L23.9796 14.1796C23.9276 14.1134 23.8729 14.0436 23.8156 13.9712L23.8183 13.9872C23.86 13.8618 23.9018 13.7281 23.9414 13.5872C23.9596 13.5165 23.984 13.4463 23.9925 13.3663C23.9951 13.3267 23.9938 13.2854 23.9787 13.2454C23.9645 13.2054 23.9351 13.1694 23.8965 13.1489C23.8831 13.1418 23.8707 13.1369 23.8551 13.1334L23.8454 13.1312L23.8387 13.1387C23.7903 13.1912 23.7423 13.2427 23.6951 13.2934C23.6716 13.3187 23.648 13.3441 23.6249 13.3689C23.6023 13.3956 23.5774 13.4152 23.5578 13.4481C23.5209 13.5094 23.5023 13.5725 23.4823 13.6343C23.4627 13.6961 23.448 13.7578 23.4329 13.8174C23.4049 13.9374 23.3823 14.0521 23.364 14.1601C23.36 14.1872 23.356 14.2138 23.352 14.2401L23.3498 14.2605C23.3498 14.2649 23.3494 14.2689 23.3498 14.2734C23.3516 14.2778 23.3538 14.2823 23.3565 14.2867C23.3649 14.2996 23.372 14.3089 23.38 14.3196C23.4111 14.3596 23.4414 14.3978 23.4703 14.4343C23.5867 14.5787 23.6823 14.6938 23.7489 14.7729C23.7805 14.8098 23.8063 14.8396 23.8267 14.8632C23.8449 14.8836 23.8547 14.8938 23.8556 14.8929C23.8565 14.8921 23.8485 14.8805 23.8325 14.8583C23.8134 14.8334 23.7894 14.8023 23.76 14.7636C23.6934 14.6783 23.6023 14.5609 23.4907 14.4178C23.4627 14.3809 23.4334 14.3423 23.4031 14.3023L23.3823 14.2725L23.3809 14.2707L23.38 14.2698L23.3796 14.2694C23.3783 14.2694 23.3836 14.2685 23.372 14.2703C23.3814 14.2681 23.3787 14.2681 23.3791 14.2676L23.3796 14.2658L23.38 14.2627L23.3823 14.2445C23.3867 14.2187 23.3907 14.1925 23.3951 14.1658C23.4143 14.0587 23.4383 13.9449 23.4671 13.8263C23.4823 13.7672 23.4978 13.7063 23.5169 13.6454C23.5365 13.5854 23.5565 13.5218 23.5894 13.4681C23.6036 13.4427 23.632 13.4187 23.6538 13.3938C23.6769 13.3689 23.7 13.3441 23.7236 13.3187C23.7707 13.2681 23.8183 13.2169 23.8663 13.1654L23.8498 13.1707C23.8578 13.1725 23.8703 13.1769 23.88 13.1823C23.944 13.2147 23.9636 13.2934 23.9565 13.3636C23.9494 13.4352 23.9254 13.5072 23.9071 13.5774C23.868 13.7178 23.8276 13.8516 23.7871 13.9761L23.7845 13.9849L23.7903 13.9921C23.848 14.0641 23.9036 14.1329 23.956 14.1987L23.9596 14.2032L23.9654 14.2045C24.1018 14.2361 24.22 14.2974 24.3094 14.3676C24.3987 14.4392 24.4565 14.5227 24.4907 14.5965C24.5534 14.7498 24.5427 14.8489 24.5507 14.8476Z" fill="#F1956B"/>
<path d="M17.8364 39.1756L14.8711 42.108L15.9049 43.1729L18.9755 40.8969L17.8364 39.1756Z" fill="#F7BB9B"/>
<path d="M16.0638 43.156L16.2123 43.0436C15.7509 42.6204 15.4443 42.1067 15.3341 41.5262L14.2803 42.0796L16.0505 45.2218C16.3438 45.0458 16.0638 43.156 16.0638 43.156Z" fill="#A48B3B"/>
<path d="M14.2832 42.0797L14.5405 41.9446L16.145 45.0144C16.145 45.0144 16.1623 45.1864 16.0534 45.222L14.2832 42.0797Z" fill="#E0E0E0"/>
<path d="M16.0393 43.1134C16.0233 43.1209 15.9731 43.048 15.8806 42.9983C15.7895 42.9463 15.7002 42.9423 15.6984 42.9249C15.6935 42.9094 15.7993 42.884 15.9104 42.9458C16.0215 43.0067 16.0553 43.1094 16.0393 43.1134Z" fill="#7D6733"/>
<path d="M15.0713 42.2529C15.0246 42.276 14.9668 42.2573 14.9419 42.2115C14.917 42.1658 14.9348 42.1098 14.9815 42.0867C15.0281 42.0635 15.0859 42.0822 15.1108 42.128C15.1357 42.1738 15.1179 42.2298 15.0713 42.2529Z" fill="#E0E0E0"/>
<path d="M16.0343 43.0839C16.0316 43.0857 16.0125 43.0666 15.9823 43.0284C15.9538 42.9902 15.9058 42.9306 15.893 42.8391C15.8898 42.8164 15.8898 42.7924 15.893 42.7679C15.8956 42.7435 15.9001 42.7173 15.917 42.6911C15.9325 42.6635 15.9747 42.6466 16.0085 42.6573C16.0432 42.6653 16.0712 42.6924 16.0867 42.7208C16.1454 42.8324 16.1405 42.9831 16.0547 43.0986L16.0196 43.0639C16.041 43.0493 16.0654 43.0355 16.0912 43.0248C16.2334 42.9631 16.3992 42.9959 16.5041 43.0786C16.5174 43.0888 16.5325 43.1013 16.5423 43.1204C16.5525 43.1399 16.5516 43.1644 16.5427 43.1817C16.525 43.2164 16.4943 43.2333 16.4654 43.2431C16.4076 43.2626 16.3498 43.2586 16.301 43.2479C16.2014 43.2253 16.1396 43.1697 16.0974 43.1391C16.0547 43.1057 16.0325 43.0866 16.0343 43.0839C16.0361 43.0813 16.0627 43.0951 16.1081 43.1235C16.1538 43.1497 16.217 43.1982 16.3072 43.2137C16.3516 43.2217 16.4027 43.2222 16.4498 43.2044C16.4725 43.1964 16.4938 43.1808 16.5023 43.1626C16.5103 43.1453 16.5014 43.1311 16.4765 43.1133C16.3818 43.0422 16.237 43.0146 16.1121 43.0693C16.0894 43.0791 16.0681 43.0906 16.0494 43.1035C16.0383 43.1111 16.0227 43.1084 16.0143 43.0977C16.0076 43.0888 16.0081 43.0773 16.0143 43.0688C16.089 42.9706 16.0943 42.8342 16.0472 42.7408C16.0258 42.6951 15.9707 42.6799 15.9503 42.7133C15.9285 42.7471 15.9245 42.7977 15.9267 42.8359C15.9334 42.9168 15.9738 42.9773 15.9974 43.0177C16.0227 43.0591 16.037 43.0822 16.0343 43.0839Z" fill="#7D6733"/>
<path d="M16.105 43.4472C16.0961 43.4543 16.0321 43.3743 15.9192 43.3285C15.8072 43.2805 15.7046 43.2903 15.7032 43.2792C15.6992 43.2698 15.8103 43.2409 15.9343 43.2938C16.0588 43.3445 16.1148 43.4432 16.105 43.4472Z" fill="#7D6733"/>
<path d="M16.1258 43.7236C16.1183 43.732 16.0476 43.676 15.9454 43.6391C15.8436 43.6009 15.7529 43.5974 15.7529 43.5863C15.7516 43.5765 15.8485 43.5627 15.9592 43.6036C16.0694 43.644 16.1334 43.7174 16.1258 43.7236Z" fill="#7D6733"/>
<path d="M17.0421 37.3689L12.9297 37.6702L12.9968 39.112L16.7572 39.3631L17.0421 37.3689Z" fill="#F7BB9B"/>
<path d="M13.122 39.1987L13.3051 39.2089C13.2411 38.6045 13.3509 38.0303 13.6495 37.5303L12.5082 37.2752L11.7598 40.7209C12.0918 40.7761 13.122 39.1987 13.122 39.1987Z" fill="#A48B3B"/>
<path d="M12.5033 37.2751L12.782 37.3373L11.9584 40.6244C11.9584 40.6244 11.8584 40.7626 11.7549 40.7204L12.5033 37.2751Z" fill="#E0E0E0"/>
<path d="M13.1325 39.1525C13.116 39.1481 13.1267 39.0623 13.0907 38.9672C13.0574 38.8712 12.9938 38.8116 13.004 38.7978C13.0107 38.7832 13.1054 38.8312 13.1467 38.9472C13.1889 39.0623 13.1467 39.1596 13.1325 39.1525Z" fill="#7D6733"/>
<path d="M12.9812 37.904C12.9314 37.8916 12.9008 37.8414 12.9128 37.7916C12.9243 37.7418 12.9741 37.7116 13.0239 37.7236C13.0736 37.736 13.1043 37.7863 13.0923 37.836C13.0803 37.8858 13.0305 37.9165 12.9812 37.904Z" fill="#E0E0E0"/>
<path d="M13.1521 39.1289C13.1489 39.1285 13.1476 39.1027 13.1498 39.0547C13.1538 39.008 13.1574 38.9342 13.2076 38.8578C13.2201 38.8391 13.2356 38.8214 13.2538 38.8049C13.2716 38.7889 13.2925 38.772 13.3218 38.7631C13.3512 38.7525 13.3934 38.7667 13.4116 38.796C13.4321 38.824 13.4347 38.8618 13.4276 38.8925C13.3983 39.012 13.2956 39.1209 13.1565 39.1525L13.1534 39.1045C13.1787 39.1071 13.2058 39.1125 13.2321 39.1205C13.3778 39.1645 13.4787 39.2934 13.5023 39.4209C13.5054 39.4369 13.5085 39.4556 13.5032 39.476C13.4978 39.4969 13.4814 39.5147 13.4632 39.5218C13.4276 39.536 13.3934 39.5294 13.3658 39.5182C13.3103 39.496 13.2698 39.4569 13.2414 39.4182C13.1827 39.3387 13.1734 39.2582 13.1618 39.2089C13.1529 39.1582 13.1489 39.1298 13.1521 39.1289C13.1552 39.128 13.1658 39.1551 13.1805 39.2049C13.1974 39.2534 13.2121 39.3289 13.2685 39.3974C13.2961 39.4311 13.3334 39.464 13.3801 39.4805C13.4018 39.4889 13.4281 39.4907 13.4458 39.4827C13.4627 39.4751 13.4658 39.4587 13.4592 39.4298C13.4356 39.3174 13.3467 39.2058 13.2187 39.1671C13.1956 39.16 13.1721 39.1551 13.1498 39.1529C13.1365 39.1516 13.1267 39.1396 13.1281 39.1262C13.1289 39.1156 13.1369 39.1071 13.1467 39.1049C13.2663 39.0791 13.3596 38.9818 13.3858 38.8827C13.4001 38.8351 13.3694 38.7898 13.3321 38.8014C13.2938 38.8129 13.2574 38.8476 13.2343 38.8778C13.1863 38.9422 13.1765 39.012 13.1676 39.0574C13.1601 39.1036 13.1556 39.1294 13.1521 39.1289Z" fill="#7D6733"/>
<path d="M12.9634 39.4405C12.9523 39.44 12.9572 39.3405 12.9039 39.2352C12.8527 39.1289 12.7701 39.0712 12.7767 39.0623C12.7799 39.0529 12.8807 39.1018 12.9381 39.2187C12.9959 39.3356 12.9727 39.4436 12.9634 39.4405Z" fill="#7D6733"/>
<path d="M12.7977 39.6587C12.7866 39.66 12.771 39.5742 12.7195 39.4822C12.6693 39.3898 12.6044 39.3298 12.6119 39.3214C12.6173 39.3134 12.6982 39.3645 12.7528 39.4645C12.8079 39.564 12.8075 39.6587 12.7977 39.6587Z" fill="#7D6733"/>
<path d="M20.513 28.4684C20.4788 28.5275 20.3152 30.3671 20.3152 30.3671C20.3152 30.3671 21.2845 33.364 21.7632 34.7884C22.209 36.1155 22.5121 37.7595 22.1188 38.512C21.7259 39.2644 17.9494 41.7795 17.9494 41.7795L16.4268 40.4387L19.3179 37.4169L18.0916 31.7L18.657 28.0369L20.513 28.4684Z" fill="#D2B670"/>
<path d="M15.9756 27.4298C15.9756 27.4298 14.7236 29.4067 14.6476 30.4387C14.5605 31.6222 15.3382 32.9547 15.7218 33.78C16.0742 34.5382 17.388 37.1644 17.388 37.1644L14.3547 37.4542C14.3547 37.4542 14.1751 38.7538 14.5485 39.5298C14.5485 39.5298 18.3965 39.4462 19.0147 39.408C19.6329 39.3698 20.5147 39.0307 20.4938 37.9062C20.4729 36.7818 19.2422 32.8347 19.2422 32.8347L19.2374 32.1631L19.4271 31.3338L19.9134 28.3284L17.6698 27.4387L15.9756 27.4298Z" fill="#D2B670"/>
<path opacity="0.3" d="M20.3923 29.6053L20.4457 28.9893L17.859 27.5138L15.7701 27.5071L15.1621 29.0404C15.1621 29.0404 16.9052 28.3769 17.4177 28.4222C17.9301 28.4676 20.3434 30.0484 20.3434 30.0484L20.3923 29.6053Z" fill="#040000"/>
<path d="M19.6053 31.2538C19.6053 31.2538 19.5955 31.2662 19.5751 31.2889C19.5528 31.3129 19.5217 31.3462 19.4822 31.3884C19.3982 31.4773 19.2768 31.6053 19.1213 31.7693L19.1239 31.7604C19.1675 32.0035 19.2222 32.3089 19.2866 32.6662L19.2862 32.6649C19.4444 33.268 19.6444 34.0298 19.8724 34.8987C19.9857 35.3338 20.1066 35.7955 20.2324 36.2778C20.2955 36.5191 20.3604 36.7653 20.4262 37.016C20.4879 37.2693 20.5231 37.5338 20.5199 37.8027C20.5186 38.0431 20.4871 38.2822 20.4088 38.5053C20.3684 38.616 20.3146 38.7227 20.2435 38.8155C20.1724 38.9084 20.0897 38.9898 20.0004 39.0609C19.8213 39.2031 19.6159 39.3022 19.4057 39.364C19.3008 39.396 19.1915 39.4133 19.0848 39.4182C18.9786 39.4209 18.8737 39.4235 18.7702 39.4262C17.9439 39.4489 17.1995 39.4689 16.5733 39.4862C15.9497 39.5013 15.4444 39.5138 15.0919 39.5227C14.9191 39.5258 14.7839 39.5284 14.6893 39.5302C14.6448 39.5307 14.6102 39.5307 14.5844 39.5311C14.5608 39.5311 14.5488 39.5307 14.5488 39.5298C14.5488 39.5289 14.5608 39.528 14.5844 39.5262C14.6102 39.5249 14.6448 39.5231 14.6888 39.5209C14.7835 39.5169 14.9186 39.5115 15.0915 39.5049C15.4435 39.4929 15.9488 39.4755 16.5724 39.4538C17.1986 39.4338 17.9431 39.4102 18.7693 39.384C18.8724 39.3813 18.9768 39.3782 19.0822 39.3755C19.1871 39.3702 19.2906 39.3538 19.3928 39.3222C19.5977 39.2618 19.7977 39.1644 19.9715 39.0262C20.0582 38.9573 20.1382 38.8782 20.2062 38.7889C20.2742 38.6995 20.3253 38.5978 20.3644 38.4907C20.4404 38.2747 20.4711 38.0395 20.4728 37.8031C20.4755 37.5387 20.4413 37.2773 20.3804 37.0275C20.3151 36.7773 20.2511 36.5311 20.1879 36.2902C20.0631 35.8075 19.9439 35.3453 19.8315 34.9098C19.6079 34.0395 19.4119 33.2764 19.2568 32.6724V32.672V32.6715C19.1964 32.3138 19.1448 32.008 19.1035 31.764L19.1026 31.7587L19.1062 31.7551C19.2648 31.5938 19.3884 31.468 19.4742 31.3809C19.5151 31.34 19.5471 31.308 19.5706 31.2849C19.5933 31.2635 19.6053 31.2538 19.6053 31.2538Z" fill="#7D6733"/>
<path d="M17.4052 37.1445C17.4172 37.1387 17.5243 37.3369 17.663 37.5778C17.8008 37.8191 17.9154 38.0133 17.9052 38.02C17.8946 38.0271 17.7617 37.8431 17.623 37.6005C17.4839 37.3587 17.3941 37.1498 17.4052 37.1445Z" fill="#7D6733"/>
<path d="M16.3018 29.2342C16.3035 29.2271 16.3982 29.2484 16.552 29.2716C16.7058 29.2947 16.9204 29.3151 17.1578 29.3089C17.3951 29.3022 17.608 29.2702 17.7609 29.2387C17.9133 29.2076 18.0067 29.1809 18.0089 29.188C18.0107 29.1929 17.9204 29.2307 17.768 29.2707C17.616 29.3107 17.4 29.3484 17.1591 29.3551C16.9182 29.3613 16.7009 29.3356 16.5467 29.3036C16.3924 29.272 16.3004 29.2391 16.3018 29.2342Z" fill="#7D6733"/>
<path d="M17.8244 30.3284C17.8284 30.324 17.9142 30.3924 18.0444 30.5129C18.1746 30.6333 18.3475 30.8076 18.5253 31.012C18.7026 31.2169 18.8506 31.4124 18.9515 31.5587C19.0524 31.7044 19.108 31.7991 19.1031 31.8027C19.0973 31.8067 19.0324 31.7182 18.9248 31.5782C18.8177 31.4378 18.6666 31.2462 18.4897 31.0427C18.3133 30.8396 18.1448 30.6627 18.0208 30.5369C17.8977 30.4107 17.82 30.3338 17.8244 30.3284Z" fill="#7D6733"/>
<path d="M19.0104 31.468C19.0073 31.4671 19.0162 31.4307 19.0344 31.3662C19.0557 31.2925 19.0819 31.2014 19.113 31.0934C19.1793 30.8631 19.2655 30.5436 19.3473 30.1871C19.4282 29.8307 19.4886 29.5049 19.529 29.2689C19.5477 29.1582 19.5637 29.0645 19.5766 28.9889C19.5882 28.9227 19.5957 28.8862 19.5988 28.8867C19.6019 28.8871 19.6002 28.924 19.5944 28.9911C19.5886 29.0582 19.5775 29.1547 19.5615 29.2738C19.5295 29.512 19.4739 29.8396 19.3926 30.1974C19.3108 30.5551 19.2188 30.8742 19.1446 31.1027C19.1077 31.2169 19.0757 31.3089 19.0517 31.3716C19.0282 31.4347 19.0135 31.4689 19.0104 31.468Z" fill="#7D6733"/>
<path d="M12.6628 26.6484C12.6628 26.6484 12.5561 23.1676 12.6726 22.4458C12.8197 21.5338 14.077 21.0707 14.7557 20.9218C15.4348 20.7724 16.605 21.0067 16.605 21.0067C16.605 21.0067 16.4459 26.992 16.4055 27.0351C16.365 27.0782 15.5032 28.4809 15.5032 28.4809C15.5032 28.4809 13.0215 28.3529 12.7886 27.9422C12.5557 27.5316 12.6628 26.6484 12.6628 26.6484Z" fill="#A48B3B"/>
<path d="M20.3528 16.8387C20.4817 17.4782 20.3799 17.8494 20.6817 18.2222C20.9835 18.5951 21.4844 18.7956 21.9599 18.7334C21.9555 18.9534 21.8115 19.164 21.6079 19.2476C21.4048 19.3311 21.1537 19.2831 20.9959 19.1302C21.1221 19.3267 21.2688 19.5098 21.4328 19.6756C21.403 19.8907 21.1768 20.0422 20.9595 20.0351C20.7426 20.028 20.5457 19.8929 20.4128 19.7209C20.4484 19.9334 20.5746 20.1294 20.7541 20.2485C20.5159 20.468 20.1924 20.5925 19.8684 20.5889C19.5444 20.5858 19.2235 20.4551 18.9893 20.2307L20.3528 16.8387Z" fill="#352B24"/>
<path d="M15.7908 17.6045C16.0761 17.1636 16.273 16.6707 16.5948 16.2543C16.9166 15.8378 17.8361 15.4063 18.3708 15.4538L17.5144 19.3214C17.3748 19.8076 17.7673 20.3796 17.2664 20.5209C17.0624 20.528 15.9081 20.4458 15.6939 20.0663C15.757 19.98 15.8206 19.8938 15.8837 19.8076C15.777 19.8925 15.6015 19.9063 15.4695 19.8471C15.2935 19.768 15.1784 19.6031 15.0721 19.4463C15.3037 19.3231 15.493 19.1258 15.6028 18.8934C15.4215 19.0351 15.1704 19.1031 14.9473 19.0378C14.7241 18.9729 14.5464 18.7609 14.5593 18.536C15.0899 18.4543 15.5055 18.0449 15.7908 17.6045Z" fill="#352B24"/>
<path d="M17.1695 17.0281C17.23 16.8521 17.1975 16.6588 17.2175 16.4739C17.2615 16.0663 17.5767 15.7299 17.9491 15.5588C18.2953 15.3997 18.726 15.4165 19.154 15.5388C19.4473 15.6223 19.7264 15.7765 19.9282 16.0059C20.1958 16.3099 20.3015 16.749 20.202 17.1414L18.1167 16.9112C17.9282 17.0788 17.7349 17.249 17.5024 17.3468C17.4344 17.3757 17.3607 17.3979 17.2869 17.389C17.2135 17.3801 17.1407 17.3325 17.1211 17.2614C17.0993 17.1837 17.1433 17.1045 17.1695 17.0281Z" fill="#352B24"/>
<path d="M19.2175 16.1103L17.4197 16.557C17.2451 16.5748 17.1126 16.7232 17.1153 16.8992L17.2731 20.8183C17.2837 21.0859 17.3824 21.3428 17.5539 21.5486L17.7344 21.7654C18.1459 22.2597 18.9419 22.181 19.2228 21.6023C19.2424 21.5619 19.2557 21.5268 19.2611 21.4983C19.2659 21.4628 19.2744 21.4392 19.2748 21.4094L19.2962 21.0263C19.3015 20.6766 19.2917 20.3219 19.2922 20.3254C19.2922 20.3254 20.0304 20.2059 20.1868 19.2446C20.2646 18.7663 20.2442 17.9814 20.2064 17.3401C20.1726 16.7614 19.7931 16.0517 19.2175 16.1103Z" fill="#F7BB9B"/>
<path d="M20.0338 17.7462C20.0182 17.7622 19.9253 17.6928 19.7924 17.6924C19.66 17.6902 19.5622 17.7582 19.5475 17.7417C19.5404 17.7346 19.5564 17.7057 19.5986 17.6746C19.6404 17.6439 19.712 17.6146 19.7946 17.6151C19.8773 17.6159 19.9466 17.6466 19.9866 17.6777C20.0275 17.7097 20.0413 17.7391 20.0338 17.7462Z" fill="#352B24"/>
<path d="M18.7808 17.7578C18.7653 17.7738 18.672 17.7044 18.5395 17.704C18.4071 17.7018 18.3093 17.7698 18.2946 17.7533C18.2875 17.7462 18.3031 17.7173 18.3457 17.6862C18.3875 17.6555 18.4591 17.6258 18.5417 17.6267C18.6244 17.6275 18.6937 17.6582 18.7337 17.6898C18.7746 17.7213 18.7884 17.7507 18.7808 17.7578Z" fill="#352B24"/>
<path d="M19.1996 18.7524C19.1992 18.7448 19.2814 18.7311 19.4157 18.7142C19.4494 18.7106 19.4819 18.7044 19.4877 18.6813C19.4957 18.6568 19.4819 18.6204 19.4654 18.5808C19.4339 18.4986 19.401 18.4124 19.3663 18.3222C19.2285 17.9542 19.129 17.6511 19.1441 17.6457C19.1588 17.6404 19.2828 17.9342 19.4205 18.3026C19.4539 18.3933 19.4854 18.4799 19.5157 18.5626C19.5285 18.6013 19.5503 18.6448 19.5325 18.6959C19.5232 18.7213 19.4983 18.7395 19.4765 18.7453C19.4548 18.7519 19.4356 18.7519 19.4188 18.7528C19.2836 18.7595 19.2001 18.7599 19.1996 18.7524Z" fill="#352B24"/>
<path d="M19.293 20.3245C19.293 20.3245 18.6454 20.3636 18.0059 19.9756C18.0059 19.9756 18.3339 20.656 19.2974 20.5698L19.293 20.3245Z" fill="#F1956B"/>
<path d="M18.8204 17.2448C18.8071 17.2808 18.6746 17.263 18.5186 17.2812C18.3622 17.2963 18.2364 17.3412 18.2159 17.3088C18.2066 17.2932 18.2288 17.2594 18.2799 17.2248C18.3306 17.1901 18.4111 17.1572 18.5044 17.1474C18.5977 17.1376 18.6835 17.1528 18.7404 17.1763C18.7973 17.199 18.8262 17.2274 18.8204 17.2448Z" fill="#352B24"/>
<path d="M19.9931 17.1654C19.9695 17.1956 19.8784 17.1636 19.7682 17.1618C19.6584 17.1561 19.5651 17.1814 19.5437 17.1498C19.5344 17.1343 19.5491 17.1045 19.5899 17.0761C19.6304 17.0476 19.6975 17.0249 19.7731 17.0276C19.8486 17.0303 19.9139 17.0578 19.9522 17.0889C19.9908 17.1196 20.0037 17.1507 19.9931 17.1654Z" fill="#352B24"/>
<path d="M16.8299 16.7601C16.9984 16.2019 17.7926 15.4219 18.3744 15.4543L19.3113 15.9974C19.2597 16.3148 19.0193 16.5939 18.7135 16.6921C18.5499 16.7445 18.3526 16.761 18.257 16.9036C18.1593 17.0494 18.221 17.2583 18.1304 17.4085C18.005 17.6165 17.653 17.6121 17.5601 17.8361C17.5193 17.9343 17.5433 18.0503 17.5006 18.1476C17.4441 18.2774 17.1206 18.4454 16.985 18.4045C16.8495 18.3636 16.909 18.477 16.8495 18.3636C16.7059 18.0908 16.6584 17.6405 16.6864 17.3752C16.7157 17.0983 16.7495 17.0263 16.8299 16.7601Z" fill="#352B24"/>
<path d="M17.38 18.512C17.38 18.4404 17.2978 18.2711 17.2271 18.2595C17.0382 18.2293 16.6978 18.2431 16.6924 18.7231C16.6853 19.3791 17.3453 19.2511 17.3471 19.232C17.348 19.2173 17.3796 18.7591 17.38 18.512Z" fill="#352B24"/>
<path d="M19.1123 15.8059C19.1816 16.0703 19.599 16.3983 19.7843 16.5996C20.1376 16.9841 20.2092 17.1134 20.2363 17.9987C20.3861 17.6872 20.415 17.3916 20.391 17.0467C20.3665 16.7019 20.1399 16.2583 19.8914 16.0183C19.643 15.7787 19.4523 15.7441 19.1123 15.8059Z" fill="#352B24"/>
<path d="M14.2618 18.108C14.264 18.1036 14.3053 18.1249 14.3853 18.1467C14.4649 18.1689 14.5853 18.1863 14.732 18.1711C14.8782 18.1556 15.0502 18.1045 15.2187 18.0058C15.3871 17.9076 15.5475 17.7596 15.6929 17.5867C15.8378 17.412 15.9609 17.2329 16.068 17.0667C16.1742 16.9027 16.2707 16.7538 16.3538 16.6258C16.4329 16.5067 16.4987 16.4076 16.5498 16.3303C16.5969 16.2609 16.6244 16.2236 16.6271 16.2249C16.6298 16.2267 16.6075 16.2671 16.5653 16.3396C16.5173 16.4187 16.4555 16.5205 16.3813 16.6431C16.3009 16.7729 16.2067 16.924 16.1035 17.0903C15.9982 17.2578 15.8751 17.4391 15.7284 17.6165C15.5804 17.7925 15.4151 17.9431 15.24 18.0427C15.0653 18.1427 14.8867 18.192 14.7351 18.204C14.5831 18.2156 14.46 18.192 14.38 18.164C14.34 18.1498 14.3098 18.1369 14.2907 18.1258C14.2711 18.1156 14.2609 18.1094 14.2618 18.108Z" fill="#251A13"/>
<path d="M21.7956 18.1916C21.7965 18.1929 21.7867 18.1996 21.7676 18.2103C21.7489 18.2218 21.72 18.2369 21.6809 18.252C21.6036 18.2827 21.4836 18.3165 21.3325 18.3125C21.1827 18.308 21 18.2698 20.8307 18.1596C20.7463 18.1054 20.6676 18.0325 20.6018 17.9449C20.5374 17.8569 20.4845 17.756 20.4454 17.648C20.3658 17.432 20.336 17.2156 20.3045 17.0227C20.2743 16.8294 20.2392 16.6574 20.192 16.5183C20.1005 16.2365 19.9587 16.1072 19.9672 16.1018C19.9685 16.1009 19.9769 16.108 19.9929 16.1236C20.0094 16.1383 20.0307 16.1632 20.0569 16.1956C20.108 16.2618 20.1725 16.3663 20.2232 16.5076C20.2752 16.648 20.3138 16.8227 20.3467 17.016C20.3805 17.2089 20.412 17.4227 20.4889 17.6325C20.5272 17.7374 20.5778 17.8338 20.6387 17.9183C20.7005 18.0018 20.7743 18.0712 20.8543 18.124C21.0143 18.2312 21.1894 18.2716 21.3338 18.2796C21.48 18.2872 21.5974 18.2596 21.6752 18.2347C21.7534 18.2103 21.7934 18.1867 21.7956 18.1916Z" fill="#263138"/>
<path d="M16.2823 16.0031C16.2881 15.9947 16.4298 16.1098 16.6916 16.2365C16.9512 16.364 17.3387 16.4938 17.7814 16.5165C18.0023 16.5276 18.2134 16.5111 18.4018 16.4769C18.5907 16.4445 18.7565 16.3925 18.885 16.3276C19.1481 16.1987 19.2334 16.0227 19.2405 16.0311C19.2418 16.032 19.237 16.0422 19.2267 16.0614C19.2165 16.0805 19.1987 16.1071 19.173 16.1396C19.1214 16.204 19.0316 16.2876 18.9005 16.3569C18.7703 16.4271 18.6014 16.484 18.4098 16.5191C18.2187 16.556 18.0036 16.5742 17.7792 16.5627C17.3285 16.5396 16.9361 16.4022 16.677 16.2658C16.5467 16.1978 16.4472 16.132 16.381 16.084C16.3156 16.0342 16.2805 16.0058 16.2823 16.0031Z" fill="#251A13"/>
<path d="M16.2267 16.648C16.2311 16.6409 16.3351 16.7045 16.5155 16.78C16.6955 16.856 16.9555 16.9356 17.2524 16.964C17.5493 16.9916 17.82 16.9623 18.0107 16.9218C18.2022 16.8814 18.3164 16.8383 18.3191 16.8463C18.3204 16.8494 18.2924 16.8623 18.2413 16.8827C18.1902 16.9045 18.1138 16.9289 18.0178 16.9534C17.8262 17.0027 17.5502 17.0383 17.2475 17.0098C16.9453 16.9805 16.6809 16.8943 16.5018 16.8098C16.412 16.7676 16.3418 16.7289 16.2955 16.6983C16.2498 16.6685 16.2249 16.6507 16.2267 16.648Z" fill="#251A13"/>
<path d="M15.5078 18.2254C15.5078 18.2165 15.6589 18.2289 15.8967 18.1862C16.1345 18.1462 16.4523 18.0369 16.7763 17.8609C17.1003 17.6849 17.3776 17.4951 17.5847 17.3685C17.6878 17.3045 17.7727 17.2542 17.8323 17.2214C17.8918 17.1885 17.9256 17.172 17.9274 17.1747C17.9291 17.1774 17.898 17.1991 17.8416 17.2365C17.7771 17.2796 17.6971 17.3325 17.6025 17.3956C17.4003 17.5289 17.1256 17.7231 16.7985 17.9014C16.4714 18.0791 16.1451 18.1858 15.9025 18.2182C15.7811 18.2356 15.682 18.2387 15.614 18.236C15.5451 18.2338 15.5078 18.228 15.5078 18.2254Z" fill="#251A13"/>
<path d="M15.2334 18.5436C15.2343 18.5289 15.5347 18.5534 15.8974 18.4925C16.261 18.4347 16.5378 18.3156 16.5432 18.3294C16.5454 18.3347 16.4792 18.3711 16.3654 18.4147C16.2516 18.4587 16.0894 18.5076 15.905 18.5378C15.7205 18.5676 15.5512 18.5734 15.4294 18.5676C15.3076 18.5627 15.233 18.5494 15.2334 18.5436Z" fill="#251A13"/>
<path d="M18.7734 19.4165C18.7734 19.3245 18.8059 19.2334 18.8383 19.144C18.8459 19.1236 18.8565 19.1 18.881 19.0934C18.8943 19.0898 18.9085 19.0925 18.9219 19.0951C19.1534 19.1405 19.3854 19.1858 19.617 19.2316C19.6121 19.3134 19.5583 19.3925 19.5143 19.4671C19.461 19.5574 19.3583 19.6391 19.2494 19.6827C19.1401 19.7262 18.9908 19.7165 18.8979 19.6582C18.8112 19.6036 18.7734 19.5085 18.7734 19.4165Z" fill="#F1956B"/>
<path d="M19.3778 19.6529C19.3805 19.6556 19.3632 19.6756 19.3178 19.6943C19.2734 19.7129 19.1987 19.7303 19.1107 19.7191C19.0232 19.7094 18.9218 19.6774 18.8383 19.6049C18.7529 19.5236 18.7409 19.4058 18.7703 19.2938C18.7858 19.2374 18.8125 19.1849 18.8467 19.1383C18.8547 19.1276 18.8636 19.112 18.8876 19.0974C18.9134 19.0818 18.9436 19.0827 18.9605 19.0854L19.0449 19.1014C19.1409 19.1214 19.2343 19.1405 19.3267 19.1596C19.4863 19.1947 19.5836 19.2214 19.5809 19.2307C19.5778 19.2405 19.4752 19.2311 19.3116 19.2085C19.2178 19.1943 19.1227 19.18 19.0254 19.1654L18.9454 19.1525C18.9343 19.1516 18.9329 19.1529 18.9338 19.1529C18.9329 19.1534 18.9258 19.1605 18.9187 19.1716C18.8903 19.2125 18.8672 19.2583 18.8543 19.3063C18.8276 19.4 18.8418 19.504 18.8996 19.56C18.9627 19.6205 19.0507 19.6551 19.1249 19.6689C19.2787 19.7005 19.3721 19.6414 19.3778 19.6529Z" fill="#352B24"/>
<path d="M19.6327 21.2044C19.6944 21.2622 21.4371 23.5187 21.3056 24.3209C21.174 25.1231 21.0891 25.3858 21.014 25.9622C20.8327 27.3547 21.0616 28.1044 20.9984 28.7249C20.9353 29.3453 20.6211 29.5849 20.5602 29.5471C20.4989 29.5093 18.7202 28.2862 17.7691 27.8293C16.0478 27.0031 15.6856 28.6991 15.2856 28.6533C14.8851 28.6076 14.8193 28.4302 14.8193 28.4302C14.8193 28.4302 15.3953 28.3702 15.4647 28.0689C15.534 27.7676 16.3429 24.9413 16.3429 24.9413L15.9242 21.1942L17.0682 20.7756L19.0878 21.0044L19.6327 21.2044Z" fill="#DBC58E"/>
<path d="M18.9785 21.1533C18.9785 21.1533 19.0892 21.0396 19.2958 21.0391C19.5025 21.0387 20.1305 20.8849 20.1305 20.8849L20.8234 20.3293C21.3998 20.4778 22.7234 21.7991 22.3705 22.1978L21.4594 23.12L21.2656 24.0218L19.8034 22.2453L18.9785 21.1533Z" fill="#DBC58E"/>
<path d="M19.2941 21.0004C19.2941 21.0004 20.1501 21.8995 20.0109 22.3209C19.8718 22.7422 19.4869 22.5662 19.1349 22.4507C18.2438 22.1587 17.2754 20.7951 17.2754 20.7951L19.2941 21.0004Z" fill="#F7BB9B"/>
<path d="M21.2821 24.1449C21.2821 24.1449 21.7497 23.1333 21.3977 22.2249C21.0461 21.3169 20.3363 20.4742 19.291 20.324L19.295 20.5378C19.295 20.5378 20.9159 21.7862 21.0768 22.5831C21.2377 23.38 21.2043 23.3978 21.2043 23.3978L21.2821 24.1449Z" fill="#A48B3B"/>
<path d="M20.8326 22.2956C20.8353 22.2942 20.8535 22.3249 20.8838 22.3822C20.9144 22.4391 20.9544 22.524 20.9989 22.6307C21.0882 22.844 21.1878 23.1498 21.246 23.4987C21.3038 23.848 21.3086 24.1698 21.2931 24.4004C21.2855 24.516 21.2753 24.6089 21.2646 24.6724C21.2544 24.7364 21.2473 24.7711 21.2442 24.7707C21.2362 24.7698 21.2535 24.628 21.2606 24.3987C21.2678 24.1693 21.258 23.8516 21.2006 23.5062C21.1429 23.1609 21.0495 22.8569 20.9686 22.6422C20.8878 22.4276 20.8251 22.2991 20.8326 22.2956Z" fill="#CAB077"/>
<path d="M16.8359 26.5613C16.8359 26.5595 16.8497 26.5564 16.8768 26.552C16.9039 26.548 16.9444 26.5444 16.9968 26.544C17.1013 26.5449 17.255 26.5644 17.4293 26.636C17.6044 26.7049 17.7946 26.8275 17.9826 26.9871C18.1715 27.1462 18.3622 27.3373 18.575 27.5231C18.9959 27.9009 19.4159 28.1973 19.7466 28.3644C19.911 28.4493 20.0506 28.5044 20.147 28.5418C20.2444 28.5764 20.2986 28.5955 20.2977 28.5991C20.2973 28.6004 20.283 28.5978 20.2564 28.5911C20.2297 28.584 20.1906 28.5742 20.1408 28.5591C20.0422 28.5267 19.8995 28.4755 19.7319 28.3938C19.395 28.2329 18.967 27.9373 18.5448 27.5578C18.331 27.3707 18.1404 27.1787 17.9555 27.0195C17.771 26.86 17.587 26.7373 17.4173 26.6662C17.2484 26.5929 17.0995 26.5684 16.9968 26.5622C16.8937 26.5569 16.8364 26.5658 16.8359 26.5613Z" fill="#CAB077"/>
<path d="M13.4287 22.2649C13.4287 22.2649 13.4416 22.6307 13.6705 23.0365C13.8203 23.3018 14.8447 24.3765 14.9972 24.2942C15.1496 24.212 14.2967 22.4009 14.2967 22.4009L13.4287 22.2649Z" fill="#CAB077"/>
<path d="M14.2803 22.6662C14.2221 22.708 11.2105 24.6649 11.1403 25.2676C11.0958 25.6498 11.3829 26.0858 11.7909 26.3636C12.3558 26.7476 13.7221 27.6164 13.7221 27.6164L14.4758 26.9076C14.4758 26.9076 13.0705 25.728 12.9016 25.4551L15.3829 23.9844L14.2803 22.6662Z" fill="#F7BB9B"/>
<path d="M12.2949 25.1027C12.2945 25.0974 12.338 25.088 12.4087 25.0943C12.4794 25.1 12.5767 25.1258 12.6705 25.1818C12.7643 25.2383 12.8327 25.3116 12.8714 25.3712C12.9105 25.4307 12.9229 25.4734 12.918 25.4756C12.906 25.4832 12.826 25.3263 12.6469 25.2218C12.4696 25.1134 12.2936 25.1169 12.2949 25.1027Z" fill="#F1956B"/>
<path d="M16.4562 20.9987C16.4562 20.9987 15.7975 21.1245 15.3935 21.3222C14.99 21.5205 13.4277 22.2645 13.4277 22.2645C13.4277 22.2645 13.9566 22.4831 14.3228 22.952C14.6891 23.4209 14.9962 24.2938 14.9962 24.2938L16.242 23.6231L16.4562 20.9987Z" fill="#DBC58E"/>
<path d="M16.5107 20.4338C16.5107 20.4338 17.169 20.332 17.2698 20.9747C17.3707 21.6169 17.2378 22.7716 17.0996 23.3276C16.9614 23.8836 16.1921 24.6858 16.1921 24.6858L16.1592 23.8449C16.1592 23.8449 16.5996 23.0391 16.5485 21.976C16.4974 20.9129 16.4565 20.6876 16.281 20.6147C16.105 20.5422 15.7121 21.1858 15.7121 21.1858L15.5156 21.2556C15.5152 21.256 15.7534 20.3969 16.5107 20.4338Z" fill="#A48B3B"/>
<path d="M15.5836 27.9396L16.7205 25.0942L14.9663 23.5725L14.5485 23.5871L13.0801 26.6867L15.101 28.3013L15.4512 28.28L15.5836 27.9396Z" fill="#F8DF88"/>
<path d="M14.9944 28.1533C14.9918 28.152 15.0078 28.1107 15.0402 28.0369C15.0762 27.9556 15.1229 27.8511 15.178 27.7262C15.2953 27.4645 15.4558 27.1018 15.6264 26.6991C15.7971 26.296 15.946 25.9285 16.0526 25.6622C16.1038 25.5356 16.1464 25.4298 16.1798 25.3471C16.2104 25.2729 16.2286 25.2325 16.2318 25.2333C16.2349 25.2342 16.222 25.2769 16.1967 25.3533C16.1713 25.4298 16.1326 25.5391 16.0833 25.6738C15.9842 25.9436 15.8402 26.3133 15.6695 26.7173C15.4984 27.1209 15.3331 27.4818 15.2082 27.7405C15.146 27.8698 15.094 27.9738 15.0566 28.0449C15.0193 28.1156 14.9971 28.1547 14.9944 28.1533Z" fill="#C6AE61"/>
<path d="M14.4753 26.9071C14.4753 26.9071 14.9473 26.6173 15.0171 26.5573C15.0868 26.4973 15.5224 26.5196 15.6028 26.4364C15.6833 26.3533 15.8606 26.4058 15.8033 26.6093C15.7455 26.8129 15.45 26.9956 15.226 26.9747C15.226 26.9747 15.9073 27.3324 15.9108 27.4329C15.9144 27.5333 15.874 27.6142 15.7602 27.6538C15.7602 27.6538 15.99 27.8542 15.6868 28.0231C15.6868 28.0231 15.7864 28.1924 15.4953 28.3031C15.4953 28.3031 15.5651 28.424 15.3473 28.4924C15.13 28.5604 14.9175 28.6627 14.7686 28.5125C14.6197 28.3622 13.8117 27.6818 13.8117 27.6818L12.9277 27.0338L13.2797 25.8542L14.4753 26.9071Z" fill="#F7BB9B"/>
<path d="M15.3137 27.532C15.3195 27.52 15.4181 27.5587 15.5417 27.5969C15.6653 27.6356 15.7679 27.6604 15.7661 27.6733C15.7648 27.6853 15.6555 27.6809 15.5279 27.6409C15.4004 27.6013 15.3084 27.5431 15.3137 27.532Z" fill="#F1956B"/>
<path d="M15.1514 27.9965C15.1523 27.9836 15.2687 27.98 15.4114 27.9876C15.5545 27.9956 15.6696 28.0125 15.6687 28.0249C15.6678 28.0378 15.5514 28.0413 15.4087 28.0333C15.266 28.0258 15.1509 28.0089 15.1514 27.9965Z" fill="#F1956B"/>
<path d="M15.0908 28.3089C15.0899 28.296 15.1797 28.2787 15.2922 28.2698C15.4042 28.2609 15.4962 28.264 15.497 28.2765C15.4979 28.2894 15.4082 28.3067 15.2957 28.3156C15.1837 28.3245 15.0917 28.3218 15.0908 28.3089Z" fill="#F1956B"/>
<path d="M15.1002 27.4089C15.094 27.3974 15.138 27.3627 15.1509 27.2996C15.1664 27.2369 15.142 27.1867 15.1522 27.1791C15.1571 27.1756 15.1718 27.1845 15.1847 27.208C15.1975 27.2311 15.2051 27.2698 15.1958 27.3098C15.1864 27.3498 15.1633 27.3814 15.1415 27.3965C15.1202 27.4125 15.1029 27.4142 15.1002 27.4089Z" fill="#F1956B"/>
<path d="M14.9631 27.7614C14.9551 27.7511 14.9902 27.7107 15.0004 27.6494C15.0129 27.5885 14.9951 27.5378 15.0066 27.5316C15.016 27.5231 15.0613 27.5787 15.0458 27.6583C15.0311 27.7374 14.9689 27.7729 14.9631 27.7614Z" fill="#F1956B"/>
<path d="M14.8394 28.1933C14.8336 28.1818 14.8767 28.1493 14.8945 28.0893C14.9145 28.0302 14.8985 27.9791 14.9101 27.9729C14.9154 27.9702 14.9283 27.9804 14.9376 28.0049C14.9474 28.0284 14.9505 28.0658 14.9385 28.1036C14.9265 28.1413 14.9021 28.1698 14.8803 28.1836C14.8585 28.1973 14.8421 28.1987 14.8394 28.1933Z" fill="#F1956B"/>
<path d="M15.5164 21.2751C15.5115 21.2738 15.5284 21.1822 15.5911 21.0462C15.6555 20.912 15.7622 20.7298 15.9475 20.5849C15.9955 20.5511 16.052 20.5258 16.1106 20.5218C16.1693 20.5173 16.2258 20.5356 16.2698 20.5631C16.3591 20.6196 16.4066 20.7058 16.4302 20.7769C16.4546 20.8489 16.4622 20.9093 16.4671 20.9502C16.4715 20.9916 16.472 21.0147 16.4689 21.0151C16.46 21.0173 16.4502 20.9236 16.4 20.788C16.3738 20.7218 16.3271 20.6467 16.248 20.5991C16.2089 20.576 16.1626 20.5622 16.1146 20.5662C16.0666 20.5702 16.0186 20.5916 15.9746 20.6222C15.8875 20.6849 15.8186 20.7693 15.7595 20.8444C15.7013 20.9209 15.6555 20.9956 15.6213 21.06C15.5515 21.1898 15.5235 21.2773 15.5164 21.2751Z" fill="#C6AE61"/>
<path d="M16.1959 20.612C16.2043 20.6231 16.0768 20.7178 15.9665 20.8742C15.8541 21.0293 15.8057 21.18 15.7923 21.176C15.7808 21.1742 15.811 21.0107 15.9288 20.8476C16.0457 20.6827 16.191 20.6013 16.1959 20.612Z" fill="#C6AE61"/>
<path d="M15.8033 24.3427C15.7926 24.3334 15.945 24.1582 16.0877 23.9134C16.2322 23.6689 16.3104 23.4507 16.3237 23.4551C16.3348 23.4578 16.2748 23.6867 16.1277 23.9365C15.9815 24.1867 15.8113 24.3511 15.8033 24.3427Z" fill="#CAB077"/>
<path d="M16.5993 25.0742L14.9086 23.5747L14.6211 23.5845L16.3024 25.0845L16.5993 25.0742Z" fill="white"/>
<path d="M30.4796 14.1665C30.5048 14.1557 30.5185 14.131 30.5101 14.1113C30.5016 14.0917 30.4743 14.0846 30.4491 14.0954C30.4238 14.1063 30.4101 14.131 30.4186 14.1506C30.427 14.1702 30.4543 14.1773 30.4796 14.1665Z" fill="white"/>
<path d="M30.6147 14.2958C30.6508 14.2803 30.6703 14.245 30.6583 14.2171C30.6463 14.1891 30.6073 14.179 30.5712 14.1945C30.5351 14.21 30.5156 14.2452 30.5276 14.2732C30.5396 14.3011 30.5786 14.3113 30.6147 14.2958Z" fill="white"/>
<path d="M31.7171 14.1102C31.722 14.204 31.8055 14.2773 31.9037 14.2738C32.0015 14.2702 32.0771 14.1916 32.0722 14.0978C32.0673 14.004 31.9837 13.9307 31.886 13.9342C31.7873 13.9373 31.7117 14.0164 31.7171 14.1102Z" fill="#352B24"/>
<path d="M31.8253 14.0727C31.8505 14.0618 31.8642 14.0371 31.8558 14.0175C31.8473 13.9979 31.82 13.9908 31.7948 14.0016C31.7695 14.0125 31.7559 14.0372 31.7643 14.0568C31.7727 14.0764 31.8 14.0835 31.8253 14.0727Z" fill="white"/>
<path d="M31.9584 14.2021C31.9945 14.1866 32.014 14.1514 32.002 14.1234C31.99 14.0954 31.951 14.0853 31.915 14.1008C31.8789 14.1163 31.8593 14.1515 31.8714 14.1795C31.8834 14.2075 31.9223 14.2176 31.9584 14.2021Z" fill="white"/>
<path d="M18.3254 18.1493C18.3303 18.2431 18.4139 18.3164 18.5121 18.3129C18.6099 18.3093 18.6854 18.2306 18.6805 18.1369C18.6756 18.0431 18.5921 17.9697 18.4943 17.9733C18.3961 17.9764 18.3205 18.0555 18.3254 18.1493Z" fill="#352B24"/>
<path d="M18.4317 18.1122C18.457 18.1014 18.4706 18.0767 18.4622 18.057C18.4538 18.0374 18.4265 18.0303 18.4012 18.0412C18.3759 18.052 18.3623 18.0767 18.3707 18.0963C18.3791 18.1159 18.4065 18.1231 18.4317 18.1122Z" fill="white"/>
<path d="M18.5659 18.2411C18.6019 18.2256 18.6215 18.1903 18.6095 18.1624C18.5975 18.1344 18.5585 18.1243 18.5224 18.1398C18.4863 18.1553 18.4668 18.1905 18.4788 18.2185C18.4908 18.2464 18.5298 18.2566 18.5659 18.2411Z" fill="white"/>
<path d="M19.6643 18.0556C19.6692 18.1494 19.7528 18.2227 19.851 18.2191C19.9488 18.2156 20.0243 18.1369 20.0194 18.0432C20.0146 17.9494 19.931 17.876 19.8332 17.8796C19.7346 17.8832 19.659 17.9618 19.6643 18.0556Z" fill="#352B24"/>
<path d="M19.9116 18.1478C19.9476 18.1323 19.9672 18.0971 19.9552 18.0691C19.9432 18.0412 19.9042 18.031 19.8681 18.0465C19.832 18.062 19.8125 18.0973 19.8245 18.1252C19.8365 18.1532 19.8755 18.1633 19.9116 18.1478Z" fill="white"/>
<path d="M19.7989 18.009C19.8242 17.9982 19.8378 17.9735 19.8294 17.9539C19.821 17.9342 19.7937 17.9271 19.7684 17.938C19.7431 17.9488 19.7295 17.9735 19.7379 17.9931C19.7463 18.0128 19.7736 18.0199 19.7989 18.009Z" fill="white"/>
</g>
<defs>
<clipPath id="clip0_1141_47609">
<rect width="48" height="48" rx="24" fill="white"/>
</clipPath>
</defs>
</svg>
