<svg width="48" height="48" viewBox="0 0 48 48" fill="none" xmlns="http://www.w3.org/2000/svg">
<g clip-path="url(#clip0_1141_47609)">
<rect width="48" height="48" rx="24" fill="white"/>
<g clip-path="url(#clip1_1141_47609)">
<path opacity="0.19" d="M36.4353 25.3267C41.183 25.3267 45.0318 21.8283 45.0318 17.5129C45.0318 13.1975 41.183 9.69911 36.4353 9.69911C31.6876 9.69911 27.8389 13.1975 27.8389 17.5129C27.8389 21.8283 31.6876 25.3267 36.4353 25.3267Z" fill="#FBE8B5"/>
<g opacity="0.32">
<path d="M28.8632 45.3604C28.9472 45.3578 29.0183 45.4142 29.0214 45.4867C29.0245 45.5591 28.9592 45.6204 28.8752 45.6231C28.7912 45.6258 28.72 45.5693 28.7169 45.4969C28.7134 45.4244 28.7792 45.3631 28.8632 45.3604Z" fill="#FBE8B5"/>
<path d="M37.3257 45.6409C37.4624 45.6409 37.5732 45.5452 37.5732 45.4271C37.5732 45.309 37.4624 45.2133 37.3257 45.2133C37.189 45.2133 37.0781 45.309 37.0781 45.4271C37.0781 45.5452 37.189 45.6409 37.3257 45.6409Z" fill="#FBE8B5"/>
<path d="M37.8968 19.8729L37.6074 20.7804L37.9061 20.8338L38.4132 20.1324L37.8968 19.8729Z" fill="#FBE8B5"/>
<path d="M33.1904 14.2569L34.17 14.672L34.2864 14.4289L33.5829 13.868L33.1904 14.2569Z" fill="#FBE8B5"/>
<path d="M29.3545 5.58089L30.4198 5.78667L30.4669 5.52711L29.6309 5.12355L29.3545 5.58089Z" fill="#FBE8B5"/>
<path d="M37.8066 27.4853L38.872 27.6911L38.9191 27.4316L38.0831 27.028L37.8066 27.4853Z" fill="#FBE8B5"/>
<path d="M38.8652 14.0027L39.6039 13.9876L39.6821 13.8307L39.1435 13.7022L38.8652 14.0027Z" fill="#FBE8B5"/>
<path d="M36.2705 7.44178L36.8096 8.26089L37.0643 8.11644L36.8487 7.31111L36.2705 7.44178Z" fill="#FBE8B5"/>
<path d="M30.6213 10.0764C30.6826 10.1262 30.7791 10.1236 30.8369 10.0707C30.8947 10.0178 30.8915 9.93467 30.8302 9.88489C30.7689 9.83511 30.6724 9.83778 30.6147 9.89067C30.5569 9.94356 30.56 10.0267 30.6213 10.0764Z" fill="#FBE8B5"/>
<path d="M28.624 14.2004L29.6702 14.4693L29.7382 14.2129L28.936 13.7609L28.624 14.2004Z" fill="#FBE8B5"/>
<path d="M33.8574 3.25111L34.9303 3.42489L34.9668 3.16356L34.1148 2.78578L33.8574 3.25111Z" fill="#FBE8B5"/>
<path d="M33.4555 44.1604L34.352 43.6231L34.1622 43.4173L33.252 43.6756L33.4555 44.1604Z" fill="#FBE8B5"/>
<path d="M19.0312 38.9867L20.0112 39.4018L20.1272 39.1587L19.4237 38.5978L19.0312 38.9867Z" fill="#FBE8B5"/>
<path d="M38.9072 40.8796L39.9721 41.0853L40.0197 40.8258L39.1832 40.4222L38.9072 40.8796Z" fill="#FBE8B5"/>
<path d="M37.9551 34.5107L38.6933 34.4956L38.772 34.3387L38.2333 34.2102L37.9551 34.5107Z" fill="#FBE8B5"/>
<path d="M23.9932 28.9929L24.5318 29.812L24.7869 29.6671L24.5709 28.8622L23.9932 28.9929Z" fill="#FBE8B5"/>
<path d="M24.224 9.79689C24.2854 9.84667 24.3818 9.844 24.4396 9.79111C24.4973 9.73822 24.4942 9.65511 24.4329 9.60533C24.3716 9.55555 24.2751 9.55822 24.2173 9.61111C24.1596 9.664 24.1622 9.74711 24.224 9.79689Z" fill="#FBE8B5"/>
<path d="M14.9277 4.95378L15.974 5.22267L16.042 4.96622L15.2402 4.51422L14.9277 4.95378Z" fill="#FBE8B5"/>
<path d="M23.6348 35.8293L24.7077 36.0031L24.7445 35.7418L23.8921 35.364L23.6348 35.8293Z" fill="#FBE8B5"/>
<path d="M41.004 17.8929C41.0882 17.8929 41.1565 17.834 41.1565 17.7613C41.1565 17.6887 41.0882 17.6298 41.004 17.6298C40.9198 17.6298 40.8516 17.6887 40.8516 17.7613C40.8516 17.834 40.9198 17.8929 41.004 17.8929Z" fill="#FBE8B5"/>
<path d="M42.5506 25.3427C42.6346 25.34 42.7057 25.3964 42.7088 25.4689C42.712 25.5413 42.6466 25.6027 42.5626 25.6053C42.4786 25.608 42.4075 25.5516 42.4044 25.4791C42.4013 25.4067 42.4666 25.3458 42.5506 25.3427Z" fill="#FBE8B5"/>
<path d="M47.0866 27.5018C47.223 27.4973 47.3386 27.5889 47.3439 27.7067C47.3493 27.8244 47.243 27.924 47.1062 27.9284C46.9693 27.9329 46.8542 27.8413 46.8488 27.7236C46.8435 27.6058 46.9497 27.5067 47.0866 27.5018Z" fill="#FBE8B5"/>
<path d="M42.1257 30.24L42.859 29.5427L42.6203 29.3791L41.8008 29.8071L42.1257 30.24Z" fill="#FBE8B5"/>
<path d="M43.7373 22.944L44.8026 23.1498L44.8497 22.8902L44.0137 22.4867L43.7373 22.944Z" fill="#FBE8B5"/>
<path d="M42.9271 34.128L43.3698 34.78L43.1506 34.8747L42.5889 34.4218L42.9271 34.128Z" fill="#FBE8B5"/>
<path d="M47.7941 47.7262C47.8781 47.7236 47.9439 47.6622 47.9403 47.5898C47.9372 47.5173 47.8661 47.4609 47.7821 47.4636C47.6981 47.4662 47.6323 47.5276 47.6359 47.6C47.639 47.6729 47.7101 47.7293 47.7941 47.7262Z" fill="#FBE8B5"/>
<path d="M44.3058 0.262666C44.3898 0.259999 44.4556 0.198666 44.452 0.126221C44.4489 0.0537769 44.3778 -0.00266749 44.2938 -8.26195e-07C44.2098 0.00266584 44.144 0.0639992 44.1476 0.136444C44.1512 0.208888 44.2218 0.265777 44.3058 0.262666Z" fill="#FBE8B5"/>
<path d="M45.7846 6.10178L46.6811 5.56444L46.4913 5.35867L45.5811 5.61689L45.7846 6.10178Z" fill="#FBE8B5"/>
<path d="M12.6768 32.108L13.9145 32.3471L13.9692 32.0453L12.9976 31.5764L12.6768 32.108Z" fill="#FBE8B5"/>
<path d="M21.0649 31.2173C21.2017 31.2173 21.3125 31.1216 21.3125 31.0036C21.3125 30.8855 21.2017 30.7898 21.0649 30.7898C20.9282 30.7898 20.8174 30.8855 20.8174 31.0036C20.8174 31.1216 20.9282 31.2173 21.0649 31.2173Z" fill="#FBE8B5"/>
<path d="M19.2375 34.7316C19.3215 34.7289 19.3872 34.6676 19.3837 34.5951C19.3806 34.5227 19.3095 34.4662 19.2255 34.4689C19.1415 34.4716 19.0757 34.5329 19.0792 34.6053C19.0824 34.6778 19.153 34.7342 19.2375 34.7316Z" fill="#FBE8B5"/>
<path d="M17.9047 28.38L18.8012 27.8427L18.6114 27.6369L17.7012 27.8951L17.9047 28.38Z" fill="#FBE8B5"/>
<path d="M16.9162 44.4298C17.0002 44.4271 17.066 44.3658 17.0624 44.2933C17.0593 44.2209 16.9882 44.1644 16.9042 44.1671C16.8202 44.1698 16.7544 44.2311 16.758 44.3036C16.7615 44.3764 16.8322 44.4329 16.9162 44.4298Z" fill="#FBE8B5"/>
<path d="M5.2456 35.164C5.38232 35.164 5.49316 35.0683 5.49316 34.9502C5.49316 34.8322 5.38232 34.7364 5.2456 34.7364C5.10888 34.7364 4.99805 34.8322 4.99805 34.9502C4.99805 35.0683 5.10888 35.164 5.2456 35.164Z" fill="#FBE8B5"/>
<path d="M1.10938 3.78044L2.08937 4.19511L2.20582 3.952L1.50226 3.39156L1.10938 3.78044Z" fill="#FBE8B5"/>
<path d="M12.9658 44.4969L14.0312 44.7031L14.0783 44.4431L13.2423 44.04L12.9658 44.4969Z" fill="#FBE8B5"/>
<path d="M13.541 1.34L14.2797 1.32489L14.3579 1.168L13.8192 1.03955L13.541 1.34Z" fill="#FBE8B5"/>
<path d="M6.15641 39.4182C6.24041 39.4156 6.30618 39.3542 6.30263 39.2818C6.29952 39.2093 6.22841 39.1529 6.14441 39.1556C6.06041 39.1582 5.99463 39.2196 5.99818 39.292C6.0013 39.3644 6.07241 39.4213 6.15641 39.4182Z" fill="#FBE8B5"/>
<path d="M4.09418 38.2551L4.99063 37.7178L4.80085 37.512L3.89062 37.7707L4.09418 38.2551Z" fill="#FBE8B5"/>
<path d="M15.1914 35.9493L16.2567 36.1551L16.3039 35.8951L15.4674 35.492L15.1914 35.9493Z" fill="#FBE8B5"/>
<path d="M9.31445 27.4684L10.0531 27.4533L10.1313 27.2964L9.59268 27.1676L9.31445 27.4684Z" fill="#FBE8B5"/>
<path d="M8.91781 7.15333C9.00181 7.15066 9.07292 7.20711 9.07604 7.27955C9.07915 7.352 9.01381 7.41333 8.92981 7.416C8.84581 7.41866 8.7747 7.36222 8.77159 7.28978C8.76848 7.21733 8.83381 7.156 8.91781 7.15333Z" fill="#FBE8B5"/>
<path d="M10.4705 14.8658C10.5545 14.8631 10.6257 14.9196 10.6288 14.992C10.6319 15.0644 10.5665 15.1258 10.4825 15.1284C10.3985 15.1311 10.3274 15.0747 10.3243 15.0022C10.3212 14.9298 10.3865 14.8689 10.4705 14.8658Z" fill="#FBE8B5"/>
<path d="M10.0451 19.7631L10.7789 19.0658L10.5398 18.9022L9.7207 19.3302L10.0451 19.7631Z" fill="#FBE8B5"/>
<path d="M10.8466 23.6511L11.2892 24.3036L11.0706 24.3978L10.5088 23.9449L10.8466 23.6511Z" fill="#FBE8B5"/>
</g>
<path opacity="0.23" d="M13.1509 48.6467C19.6033 48.6467 24.834 43.8921 24.834 38.0271C24.834 32.1621 19.6033 27.4076 13.1509 27.4076C6.69848 27.4076 1.46777 32.1621 1.46777 38.0271C1.46777 43.8921 6.69848 48.6467 13.1509 48.6467Z" fill="#FBE8B5"/>
<path d="M23.1683 4.68133C23.1186 4.68133 23.0781 4.64489 23.0781 4.59956V0.920889C23.0781 0.875556 23.1186 0.839111 23.1683 0.839111C23.2181 0.839111 23.2586 0.875556 23.2586 0.920889V4.59956C23.2586 4.64489 23.2181 4.68133 23.1683 4.68133Z" fill="white"/>
<path d="M21.7373 4.14267C21.7142 4.14267 21.6911 4.13467 21.6738 4.11867C21.6387 4.08667 21.6387 4.03467 21.6738 4.00311L24.5356 1.40178C24.5707 1.36978 24.6276 1.36978 24.6631 1.40178C24.6982 1.43378 24.6982 1.48578 24.6631 1.51733L21.8013 4.11867C21.7831 4.13467 21.76 4.14267 21.7373 4.14267Z" fill="white"/>
<path d="M25.192 2.84222H21.1449C21.0951 2.84222 21.0547 2.80578 21.0547 2.76044C21.0547 2.71511 21.0951 2.67867 21.1449 2.67867H25.192C25.2418 2.67867 25.2822 2.71511 25.2822 2.76044C25.2822 2.80533 25.2418 2.84222 25.192 2.84222Z" fill="white"/>
<path d="M24.5991 4.14267C24.576 4.14267 24.5529 4.13467 24.5356 4.11867L21.6738 1.51733C21.6387 1.48533 21.6387 1.43333 21.6738 1.40178C21.7089 1.36978 21.7658 1.36978 21.8013 1.40178L24.6631 4.00311C24.6982 4.03511 24.6982 4.08711 24.6631 4.11867C24.6449 4.13467 24.6222 4.14267 24.5991 4.14267Z" fill="white"/>
<path d="M44.5978 43.0542C44.544 43.0542 44.5 43.0147 44.5 42.9653V38.98C44.5 38.9311 44.5436 38.8911 44.5978 38.8911C44.6516 38.8911 44.6956 38.9307 44.6956 38.98V42.9653C44.6956 43.0147 44.6516 43.0542 44.5978 43.0542Z" fill="white"/>
<path d="M43.0468 42.4707C43.0219 42.4707 42.997 42.4622 42.9779 42.4449C42.9397 42.4102 42.9397 42.3542 42.9779 42.3196L46.0783 39.5013C46.1166 39.4667 46.1783 39.4667 46.2161 39.5013C46.2543 39.536 46.2543 39.592 46.2161 39.6267L43.1157 42.4444C43.0966 42.4618 43.0717 42.4707 43.0468 42.4707Z" fill="white"/>
<path d="M46.7898 41.0613H42.4054C42.3516 41.0613 42.3076 41.0218 42.3076 40.9724C42.3076 40.9236 42.3512 40.8836 42.4054 40.8836H46.7898C46.8436 40.8836 46.8876 40.9231 46.8876 40.9724C46.8872 41.0218 46.8436 41.0613 46.7898 41.0613Z" fill="white"/>
<path d="M46.1472 42.4707C46.1223 42.4707 46.0974 42.4622 46.0783 42.4449L42.9779 39.6267C42.9397 39.592 42.9397 39.536 42.9779 39.5013C43.0161 39.4667 43.0779 39.4667 43.1157 39.5013L46.2161 42.3196C46.2543 42.3542 46.2543 42.4102 46.2161 42.4449C46.197 42.4618 46.1721 42.4707 46.1472 42.4707Z" fill="white"/>
<path d="M45.1884 21.3333C45.1636 21.3333 45.1436 21.3151 45.1436 21.2924V19.4533C45.1436 19.4307 45.1636 19.4124 45.1884 19.4124C45.2133 19.4124 45.2333 19.4307 45.2333 19.4533V21.2924C45.2333 21.3151 45.2133 21.3333 45.1884 21.3333Z" fill="white"/>
<path d="M44.4731 21.064C44.4615 21.064 44.45 21.06 44.4411 21.052C44.4233 21.036 44.4233 21.0102 44.4411 20.9942L45.8722 19.6938C45.89 19.6778 45.9184 19.6778 45.9357 19.6938C45.9531 19.7098 45.9535 19.7356 45.9357 19.7516L44.5046 21.052C44.4962 21.06 44.4846 21.064 44.4731 21.064Z" fill="white"/>
<path d="M46.2003 20.4138H44.1767C44.1518 20.4138 44.1318 20.3956 44.1318 20.3729C44.1318 20.3502 44.1518 20.332 44.1767 20.332H46.2003C46.2252 20.332 46.2452 20.3502 46.2452 20.3729C46.2456 20.3951 46.2252 20.4138 46.2003 20.4138Z" fill="white"/>
<path d="M45.9042 21.064C45.8926 21.064 45.8811 21.06 45.8722 21.052L44.4411 19.7516C44.4233 19.7356 44.4233 19.7098 44.4411 19.6938C44.4588 19.6778 44.4873 19.6778 44.5046 19.6938L45.9357 20.9942C45.9535 21.0102 45.9535 21.036 45.9357 21.052C45.9268 21.06 45.9157 21.064 45.9042 21.064Z" fill="white"/>
<path d="M36.8451 20.8284C36.8051 20.7884 36.8171 20.7209 36.8687 20.6978C38.5851 19.9267 39.5967 18.2093 40.1522 16.8564C40.7998 15.2796 40.9847 13.8462 40.9865 13.832C40.9922 13.7876 41.0327 13.7564 41.0767 13.7618C41.1211 13.7676 41.1522 13.8076 41.1469 13.852C41.1451 13.8667 40.9571 15.3209 40.3016 16.9178C39.7349 18.2982 38.6998 20.0524 36.9358 20.8453C36.9051 20.8591 36.8691 20.852 36.8451 20.8284Z" fill="#E7C564"/>
<path d="M43.1513 9.90445C43.1717 10.224 42.929 10.4991 42.6095 10.5196C42.2899 10.54 42.0148 10.2973 41.9944 9.97778C41.9739 9.65822 42.2166 9.38311 42.5361 9.36267C42.8557 9.34222 43.1313 9.58489 43.1513 9.90445Z" fill="#E7C564"/>
<path d="M42.1514 10.2449C42.3047 10.1644 42.4847 10.2916 42.4594 10.4631L42.4247 10.7L42.3638 11.1169V11.1173L42.2412 11.9582L42.1807 12.372L42.0558 13.2253L41.9958 13.6369L41.8145 14.8804C41.8145 14.8804 40.8678 13.6676 39.4594 13.0124C38.9181 12.7604 38.1434 12.7347 37.4932 12.748L37.7772 12.5413L39.4785 11.6476H39.4789L40.0909 11.3262C40.0914 11.3262 40.0914 11.3262 40.0914 11.3262L41.2976 10.6929L41.7887 10.4351L42.1514 10.2449Z" fill="white"/>
<path d="M42.056 13.2253L41.996 13.6369C41.0973 13.2818 40.2173 13.0996 39.4595 13.0124C38.9182 12.7604 38.3089 12.5907 37.6582 12.604L37.7773 12.5413C38.6693 12.5018 40.3115 12.552 42.056 13.2253Z" fill="#E7C564"/>
<path d="M42.2407 11.9582L42.1803 12.372C41.2301 11.96 40.2892 11.7493 39.4785 11.6476L40.0905 11.3262C40.091 11.3262 40.091 11.3262 40.091 11.3262C40.7621 11.4467 41.495 11.6436 42.2407 11.9582Z" fill="#E7C564"/>
<path d="M42.424 10.7L42.3631 11.1169C42.0058 10.948 41.6484 10.808 41.2969 10.6929L41.788 10.4351C41.9982 10.5142 42.2111 10.6018 42.424 10.7Z" fill="#E7C564"/>
<g opacity="0.32">
<path d="M18.2064 25.1385L17.9912 25.4565L18.9452 26.1022L19.1604 25.7842L18.2064 25.1385Z" fill="#EEC04D"/>
<path d="M5.34163 19.7903L5.37988 20.2786L6.84466 20.1638L6.80641 19.6755L5.34163 19.7903Z" fill="#EEC04D"/>
<path d="M5.66863 42.1723L6.07422 42.4468L6.89793 41.2301L6.49234 40.9555L5.66863 42.1723Z" fill="#EEC04D"/>
<path d="M21.308 8.21776L21.208 8.67134L22.5687 8.97132L22.6687 8.51774L21.308 8.21776Z" fill="#DAB03A"/>
<path d="M4.13698 18.5159L3.71484 18.3222L3.13382 19.5886L3.55596 19.7823L4.13698 18.5159Z" fill="#F5A941"/>
<path d="M24.138 11.6493L23.8682 11.8051L24.3357 12.615L24.6056 12.4592L24.138 11.6493Z" fill="#DDC653"/>
<path d="M43.8834 10.9787L43.6631 10.7584L43.0019 11.4196L43.2222 11.6399L43.8834 10.9787Z" fill="#EEC04D"/>
<path d="M45.8609 27.3879L45.6406 27.1676L44.9794 27.8289L45.1997 28.0492L45.8609 27.3879Z" fill="#EEC04D"/>
<path d="M4.29433 35.1098L4.19434 35.5633L5.55506 35.8633L5.65506 35.4097L4.29433 35.1098Z" fill="#DAB03A"/>
<path d="M22.5525 26.4593L21.666 27.5342L22.0243 27.8297L22.9108 26.7547L22.5525 26.4593Z" fill="#DAB03A"/>
<path d="M9.14144 37.33L8.75684 37.0697L7.97573 38.2235L8.36034 38.4838L9.14144 37.33Z" fill="#DDC653"/>
<path d="M33.8154 42.3159L33.5273 42.5384L34.1949 43.4026L34.483 43.1801L33.8154 42.3159Z" fill="#DDC653"/>
<path d="M8.86261 8.52345L8.59277 8.67923L9.06033 9.48913L9.33017 9.33335L8.86261 8.52345Z" fill="#DDC653"/>
<path d="M18.5296 29.7876L18.793 29.9541L19.2927 29.1637L19.0294 28.9972L18.5296 29.7876Z" fill="#EEC04D"/>
<path d="M13.5019 9.55184L13.6162 9.84168L14.4861 9.49868L14.3719 9.20884L13.5019 9.55184Z" fill="#F5A941"/>
<path d="M6.77439 32.7889L6.88867 33.0788L7.7586 32.7358L7.64433 32.4459L6.77439 32.7889Z" fill="#F5A941"/>
<path d="M44.7205 42.443L43.8506 42.786L43.9649 43.0758L44.8348 42.7328L44.7205 42.443Z" fill="#DAB03A"/>
<path d="M31.5971 38.9162L31.4736 39.2023L32.3323 39.5728L32.4557 39.2867L31.5971 38.9162Z" fill="#F5A941"/>
<path d="M44.3142 31.9589L44.584 31.8031L44.1164 30.9933L43.8466 31.1491L44.3142 31.9589Z" fill="#F5A941"/>
<path d="M21.6592 30.2443L21.7734 30.5341L22.6434 30.1912L22.5291 29.9013L21.6592 30.2443Z" fill="#F5A941"/>
<path d="M20.5342 18.8759L20.6484 19.1657L21.5184 18.8227L21.4041 18.5329L20.5342 18.8759Z" fill="#F5A941"/>
<path d="M20.3028 32.8535L20.0088 32.9565L20.3179 33.8391L20.612 33.7361L20.3028 32.8535Z" fill="#DDC653"/>
<path d="M39.3837 9.84087L39.3311 10.1479L40.2527 10.3061L40.3054 9.999L39.3837 9.84087Z" fill="#F5A941"/>
<path d="M33.9581 8.56616L32.998 9.3876L33.272 9.70773L34.232 8.88629L33.9581 8.56616Z" fill="#DAB03A"/>
<path d="M43.7843 15.3755L42.8242 16.197L43.0981 16.5171L44.0582 15.6957L43.7843 15.3755Z" fill="#DAB03A"/>
<path d="M44.2903 36.824C44.2783 36.7516 44.2521 36.68 44.2138 36.6102C44.0218 36.2596 43.5263 35.9613 43.0067 35.9138C42.7627 35.8916 42.5036 35.9569 42.273 36.0902C42.2725 36.0902 42.2725 36.0907 42.2725 36.0907C42.2618 36.0542 42.253 36.0182 42.2472 35.9818C42.2134 35.7778 42.2374 35.6178 42.3187 35.5076C42.417 35.3738 42.5778 35.3431 42.5974 35.3396C42.5983 35.3396 42.5992 35.3396 42.5992 35.3396L42.5747 35.1511L42.5512 34.9516C42.517 34.9556 42.2121 34.9991 42.009 35.2693C41.8592 35.4689 41.8098 35.7298 41.8618 36.0453C41.8783 36.1444 41.9081 36.244 41.9503 36.3422C41.9161 36.3773 41.8836 36.4142 41.853 36.4529C41.5005 36.8969 41.4285 37.5089 41.6494 38.1756C41.913 38.9702 41.7125 39.5938 41.4147 39.8369C41.2023 40.0102 40.9281 40.0147 40.6414 39.8493L40.4463 40.1876C40.5218 40.2311 40.5974 40.2662 40.673 40.2933C41.0285 40.4213 41.3796 40.3693 41.6614 40.1391C42.1565 39.7356 42.0903 38.7978 41.8103 37.9533C41.5818 37.2649 41.797 36.7293 42.1583 36.696C42.3307 36.9231 42.5645 37.1249 42.8347 37.2698C43.2401 37.4871 43.6458 37.5342 43.9485 37.3982C44.2036 37.2836 44.3316 37.0689 44.2903 36.824ZM43.6907 37.0729C43.5076 37.1098 43.2658 37.0582 43.0196 36.9262C42.7872 36.8018 42.5894 36.6289 42.4507 36.4387C42.6321 36.3298 42.8236 36.2889 42.9712 36.3027C43.4814 36.3493 43.8712 36.6862 43.905 36.8884C43.9098 36.9191 43.9205 36.9827 43.7881 37.0422C43.7618 37.0542 43.7338 37.0636 43.7041 37.0702C43.6956 37.072 43.6907 37.0729 43.6907 37.0729Z" fill="#EEC04D"/>
<path d="M43.705 37.0702C43.7348 37.0636 43.7628 37.0542 43.789 37.0422C43.9214 36.9827 43.9108 36.9191 43.9059 36.8884C43.8721 36.6862 43.4823 36.3493 42.9721 36.3027C42.8245 36.2893 42.633 36.3298 42.4517 36.4387C42.4517 36.4387 42.3085 36.2716 42.2734 36.0907C42.2734 36.0907 42.2734 36.0902 42.2739 36.0902C42.5045 35.9564 42.7637 35.8916 43.0077 35.9138C43.5272 35.9613 44.0228 36.2591 44.2148 36.6102C44.2294 36.94 43.789 37.052 43.705 37.0702Z" fill="#C0962E"/>
<path d="M7.94837 26.4413C7.94925 26.368 7.93636 26.2929 7.91148 26.2173C7.78525 25.8378 7.35148 25.456 6.84881 25.316C6.61281 25.2502 6.34614 25.268 6.09503 25.3582C6.09459 25.3582 6.09459 25.3587 6.09459 25.3587C6.09059 25.3209 6.08837 25.2836 6.08925 25.2471C6.09237 25.04 6.14481 24.8876 6.24437 24.7933C6.36481 24.6791 6.52881 24.6778 6.54837 24.6782C6.54925 24.6782 6.55014 24.6782 6.55014 24.6782L6.55992 24.4884L6.57237 24.288C6.53814 24.2858 6.23059 24.2738 5.9817 24.5036C5.79903 24.6729 5.70348 24.9209 5.6977 25.2404C5.69637 25.3409 5.70792 25.444 5.73148 25.548C5.69148 25.5764 5.65281 25.6067 5.61592 25.6396C5.1897 26.0133 5.00925 26.6022 5.10748 27.2978C5.22481 28.1267 4.91548 28.7044 4.57903 28.8902C4.33903 29.0227 4.06837 28.9778 3.81592 28.764L3.56348 29.0622C3.6297 29.1187 3.6977 29.1667 3.76748 29.2071C4.09459 29.3969 4.44925 29.4084 4.76792 29.2324C5.32703 28.924 5.43014 27.9898 5.3057 27.1089C5.20392 26.3907 5.51192 25.9022 5.87325 25.9342C6.00214 26.1884 6.19592 26.4289 6.43592 26.62C6.79548 26.9067 7.18659 27.0253 7.50881 26.9458C7.78081 26.8782 7.94481 26.6898 7.94837 26.4413ZM7.3137 26.5791C7.12703 26.5827 6.89814 26.4884 6.67948 26.3147C6.47325 26.1502 6.30925 25.9453 6.20703 25.7333C6.40481 25.6587 6.60081 25.6529 6.74348 25.6929C7.23725 25.8302 7.56036 26.2311 7.55725 26.4364C7.55681 26.4676 7.55592 26.532 7.41459 26.5667C7.38659 26.5738 7.35725 26.5778 7.32703 26.5791C7.31903 26.5791 7.3137 26.5791 7.3137 26.5791Z" fill="#DAB03A"/>
<path d="M7.32762 26.5787C7.35784 26.5773 7.38717 26.5733 7.41517 26.5662C7.55606 26.5316 7.55739 26.4667 7.55784 26.436C7.56095 26.2311 7.23739 25.8298 6.74406 25.6924C6.60095 25.6529 6.40539 25.6587 6.20762 25.7329C6.20762 25.7329 6.0965 25.5427 6.09473 25.3587C6.09473 25.3587 6.09473 25.3587 6.09517 25.3582C6.34628 25.268 6.6125 25.2502 6.84895 25.316C7.35162 25.4556 7.78584 25.8378 7.91162 26.2173C7.86673 26.5449 7.41384 26.576 7.32762 26.5787Z" fill="#C0962E"/>
</g>
<path d="M16.2373 19.6124C16.2631 19.6053 17.9111 19.4373 17.9111 19.4373C17.9111 19.4373 17.7573 20.1364 17.1449 20.2004C16.5324 20.2649 16.2373 19.6124 16.2373 19.6124Z" fill="#D44F43"/>
<path d="M16.5653 19.756C16.6168 19.7818 17.4751 19.7 17.5915 19.6542C17.6422 19.6342 17.6408 19.5622 17.6546 19.4631C17.328 19.4964 16.7697 19.5538 16.46 19.5871C16.4884 19.6507 16.5328 19.7396 16.5653 19.756Z" fill="white"/>
<path d="M17.1446 20.2004C17.3392 20.18 17.4877 20.0956 17.5997 19.9893C17.1961 19.8542 16.8655 20.0169 16.7588 20.1418C16.869 20.1902 16.9979 20.216 17.1446 20.2004Z" fill="#E46F60"/>
<path d="M4.57609 25.676C5.09057 25.676 5.50764 25.2589 5.50764 24.7444C5.50764 24.23 5.09057 23.8129 4.57609 23.8129C4.0616 23.8129 3.64453 24.23 3.64453 24.7444C3.64453 25.2589 4.0616 25.676 4.57609 25.676Z" fill="white"/>
<path d="M43.3534 33.2636C43.8679 33.2636 44.285 32.8465 44.285 32.332C44.285 31.8175 43.8679 31.4004 43.3534 31.4004C42.8389 31.4004 42.4219 31.8175 42.4219 32.332C42.4219 32.8465 42.8389 33.2636 43.3534 33.2636Z" fill="white"/>
<path d="M35.1522 16.2062C35.1522 16.2062 35.0317 13.2111 37.8926 12.6489C40.7535 12.0867 43.5975 14.5293 42.3126 18.1124C41.0082 21.7507 42.0295 23.208 43.4157 24.0702C44.802 24.9324 47.37 29.4693 44.3597 31.7173C41.3495 33.9658 35.2251 29.9031 33.378 26.6418C32.1504 24.4738 35.0975 22.5511 35.1522 21.2324V16.2062Z" fill="#22120E"/>
<path d="M35.1222 48.8947C35.1222 48.8947 34.508 50.1916 33.5062 51.7027C32.736 52.8658 31.7364 54.1551 30.6107 55.0782C29.516 55.9769 28.3018 56.528 27.0644 56.2778C26.244 56.112 25.9987 55.5004 26.112 54.6564C26.3182 53.116 27.7191 50.8027 28.9978 49.0142C29.672 48.0698 30.192 47.0009 30.604 46.54C32.2244 44.7289 35.1222 48.8947 35.1222 48.8947Z" fill="#FAD2C3"/>
<path d="M38.506 41.4818C38.3317 42.0791 37.5708 43.2778 37.3757 43.8689C37.362 43.9107 37.3477 43.9524 37.3335 43.9942C37.226 44.3102 37.1308 44.6427 37.0322 44.9751C36.8997 45.4204 36.6362 46.4684 36.4495 46.8742C35.8935 48.0796 35.6824 48.8053 34.7553 49.772C34.4393 49.8316 32.7851 49.172 32.1406 48.7644C31.25 48.2013 30.4642 47.4373 29.9971 46.7342C30.2126 46.4449 30.4615 46.1644 30.6437 45.836C31.9704 43.4484 32.7206 41.5311 33.5406 40.1742C33.6806 39.9427 34.0802 39.9773 34.2513 39.8338C35.2771 38.9729 38.506 40.44 38.506 41.4818Z" fill="#FBEAB9"/>
<path d="M37.8349 44.7431C37.8211 44.7849 37.8069 44.8267 37.7926 44.8684C37.6851 45.1844 37.59 45.5169 37.4913 45.8493L37.4735 45.8342C37.4735 45.8342 36.2789 44.0924 35.9824 42.488C35.9824 42.488 36.9006 44.0529 37.8349 44.7431Z" fill="#EDD8A5"/>
<path d="M30.4462 46.1458C30.4462 46.1458 32.548 48.4898 35.2764 49.1062C35.2453 49.5147 34.9035 49.8524 34.6293 50.0178C34.6293 50.0178 32.0102 49.7164 29.7969 46.948C29.9475 46.6049 30.1573 46.3302 30.4462 46.1458Z" fill="#EDD8A5"/>
<path d="M41.703 49.3996C41.703 49.3996 41.963 49.852 41.4044 51.1853C40.6808 52.9138 38.9906 55.7693 37.7999 57.3964C37.0181 58.4644 36.1937 59.2258 35.4012 59.308C33.8537 59.4684 33.6657 57.4769 34.1328 54.9649C34.4399 53.3124 35.0306 51.4342 35.7039 49.7956C36.0244 49.016 36.3635 48.2902 36.6995 47.6689C37.8564 45.532 41.703 49.3996 41.703 49.3996Z" fill="#FAD2C3"/>
<path d="M43.6892 43.2813C43.6484 44.7636 43.4412 46.6058 42.8319 48.46C42.6306 49.0747 42.3843 49.6907 42.0857 50.2956C42.0843 50.2956 41.9003 50.6773 41.8995 50.6773C41.6795 50.6778 41.4506 50.6636 41.2186 50.6373C41.147 50.6293 41.0746 50.6204 41.0021 50.6107C40.4075 50.5276 39.7999 50.3769 39.2621 50.2044C37.815 49.7396 36.4972 49.3311 35.5039 48.5867C35.6728 48.2298 35.8279 47.7662 35.9777 47.2391C36.283 46.168 36.567 44.8342 36.903 43.6018C37.2635 42.2787 37.6826 41.0707 38.2506 40.4267C38.3635 40.2987 40.2652 39.9991 41.0266 40.0138C41.8559 40.0293 42.0395 40.1227 43.523 40.0916C43.5239 40.0916 43.7412 41.3942 43.6892 43.2813Z" fill="#FBEAB9"/>
<path d="M41.1144 50.3493C41.0957 50.3493 41.0766 50.3444 41.0597 50.3338C41.0104 50.3036 40.9948 50.2391 41.0255 50.1898C42.6575 47.5342 42.6282 40.8142 42.6277 40.7467C42.6273 40.6889 42.674 40.6413 42.7317 40.6413C42.7322 40.6413 42.7322 40.6413 42.7326 40.6413C42.7904 40.6413 42.8371 40.6876 42.8375 40.7453C42.8393 41.0236 42.8673 47.5929 41.2042 50.2996C41.1837 50.3316 41.1495 50.3493 41.1144 50.3493Z" fill="#EDD8A5"/>
<path d="M26.8705 33.0822L26.9749 33.1404L27.0754 33.1956C27.142 33.232 27.2087 33.2684 27.2758 33.3031C27.4096 33.3729 27.5438 33.4427 27.6794 33.5093C27.9496 33.6436 28.2238 33.7707 28.5016 33.8933C28.6411 33.9538 28.7811 34.0138 28.9225 34.072C29.0642 34.1298 29.2074 34.1862 29.3522 34.2413C29.4971 34.296 29.6442 34.3489 29.7931 34.4004C29.9425 34.452 30.094 34.5004 30.2491 34.5476C30.4047 34.5951 30.5638 34.6382 30.7296 34.6791C30.8954 34.7196 31.0669 34.7573 31.2522 34.7871C31.4385 34.8169 31.6358 34.8418 31.8718 34.848C31.9905 34.8502 32.1194 34.8476 32.27 34.8311C32.346 34.8227 32.4274 34.8102 32.5171 34.7916C32.6069 34.7724 32.7065 34.7462 32.818 34.7053C32.9291 34.6644 33.0536 34.6089 33.1896 34.524C33.2238 34.5027 33.2594 34.4787 33.2927 34.4542C33.3287 34.4276 33.3634 34.4013 33.3985 34.372C33.4167 34.3569 33.4345 34.3413 33.4518 34.3253C33.4691 34.3093 33.4865 34.2938 33.5047 34.2756C33.522 34.2582 33.5398 34.2404 33.5567 34.2222L33.5807 34.1969C33.6429 34.1316 33.706 34.0662 33.7647 33.9996C33.8856 33.8671 33.998 33.7329 34.1069 33.5982C34.3238 33.328 34.5198 33.0529 34.7016 32.776C34.7931 32.6373 34.8794 32.4982 34.9647 32.3587C35.0478 32.2191 35.1296 32.0787 35.2078 31.9382C35.2869 31.7973 35.3616 31.6564 35.4362 31.5156C35.5091 31.3742 35.5807 31.232 35.6496 31.0902C35.7189 30.9484 35.7856 30.8058 35.8509 30.6636C35.9154 30.5209 35.9789 30.3778 36.0398 30.2347C36.1638 29.9484 36.2785 29.6609 36.3891 29.3724C36.6078 28.7951 36.8069 28.2151 36.9807 27.6284C37.0242 27.4818 37.0674 27.3347 37.1091 27.1876C37.1514 27.0404 37.19 26.8924 37.2287 26.744C37.2669 26.5956 37.3056 26.4467 37.3407 26.2956L37.3936 26.0676L37.4194 25.9507L37.446 25.8218C37.6385 24.8929 37.0425 23.9844 36.1136 23.7916C35.2034 23.6027 34.3118 24.172 34.0954 25.0689L34.0851 25.1116L34.0425 25.2902L33.9949 25.4849L33.8954 25.8796L33.7905 26.276C33.7558 26.4084 33.7198 26.5409 33.6834 26.6724C33.534 27.1996 33.3794 27.724 33.2091 28.2387C33.0402 28.7542 32.858 29.2604 32.6607 29.7507C32.5616 29.9956 32.458 30.236 32.3509 30.4707C32.2425 30.7049 32.1305 30.9333 32.0127 31.1524C31.8954 31.3724 31.7714 31.5809 31.6442 31.7782C31.614 31.824 31.5842 31.8689 31.554 31.9133C31.55 31.9129 31.5456 31.9129 31.5411 31.9124C31.4531 31.9076 31.358 31.8991 31.2598 31.8884C31.1482 31.8756 31.0331 31.8591 30.9149 31.8413C30.9065 31.8404 30.8985 31.8391 30.89 31.8378C29.8687 31.6729 28.746 31.3831 27.666 31.1289L27.634 31.1213C27.0629 30.9871 26.4914 31.3413 26.3571 31.912C26.2447 32.3844 26.4682 32.8564 26.8705 33.0822Z" fill="#FAD2C3"/>
<path d="M35.0316 23.3796C35.0316 23.3796 33.6103 24.3289 33.2285 28.0107L36.3881 29.3724C36.3881 29.3729 37.8214 23.4844 35.0316 23.3796Z" fill="#F8DF88"/>
<path d="M30.9141 31.8422C31.3558 32.308 32.2616 32.8591 32.2798 32.8702L31.5403 31.9138C31.4523 31.9089 31.3572 31.9004 31.259 31.8898C31.1474 31.8764 31.0323 31.86 30.9141 31.8422Z" fill="#C8A399"/>
<path d="M25.1459 29.3276C25.1459 29.3276 25.1206 29.308 25.0762 29.2742C25.1197 29.304 25.1459 29.3276 25.1459 29.3276Z" fill="#F1917D"/>
<path d="M26.7036 29.9111C26.8725 30.0031 27.0023 30.1009 27.1009 30.2009C27.1009 30.2009 27.1054 30.2049 27.1129 30.2133C27.2325 30.3347 28.1823 31.3262 27.9089 31.9938C27.6805 32.5502 26.8711 33.0889 26.5525 32.9222C26.3338 32.808 26.1414 32.7627 26.008 32.7458C25.8965 32.732 25.8263 32.7373 25.8169 32.7382C25.8165 32.7382 25.8165 32.7382 25.8165 32.7382C25.6827 32.7222 25.5543 32.6849 25.44 32.6342C24.9778 32.4293 24.5503 32.12 24.2218 31.5809C23.8965 31.0476 24.1134 30.1227 24.3627 29.5004C23.936 29.2253 23.1165 28.6493 23.1716 28.3093C23.2369 27.904 24.7338 29.0133 25.0774 29.2742C25.1218 29.308 25.1471 29.3276 25.1471 29.3276C25.1471 29.3276 25.0854 29.2133 25.0151 29.0578C24.8698 28.7351 24.6885 28.2382 24.9578 28.2431C25.3569 28.2507 26.2249 29.6489 26.7036 29.9111Z" fill="#FAD2C3"/>
<path d="M26.0075 32.7453C25.9435 32.748 25.8791 32.7458 25.8164 32.7378C25.8257 32.7369 25.896 32.7316 26.0075 32.7453Z" fill="#F1917D"/>
<path d="M25.65 30.2156C25.65 30.2156 26.0126 30.2196 26.3233 30.3782C26.3744 30.4044 26.4353 30.3689 26.4366 30.3116C26.4375 30.2796 26.4189 30.2502 26.3895 30.2378C26.2535 30.1796 25.8575 30.0271 25.5518 30.0733L25.65 30.2156Z" fill="#C8A399"/>
<path d="M22.9932 26.7142L25.4092 30.1511C25.5185 30.2293 25.7638 30.4289 25.9456 30.6449L23.2278 26.7027C23.1496 26.7102 23.0714 26.7142 22.9932 26.7142Z" fill="#1C1F2E"/>
<path d="M24.2069 27.5871C24.1971 27.5778 24.1598 27.5413 24.1064 27.4862C24.162 27.5396 24.1976 27.5773 24.2069 27.5871Z" fill="#175FA7"/>
<path d="M22.0433 23.7484C22.0971 23.9378 22.346 24.8587 22.1269 24.9938C21.886 25.1427 20.8131 24.3342 20.7838 24.3124C20.81 24.3413 21.654 25.2582 21.5926 25.6751C21.5371 26.0502 20.562 26.4569 20.3389 26.5453C20.5558 26.4636 21.3713 26.1156 21.618 26.4124C21.8806 26.7289 21.286 27.6351 21.2309 27.7036C22.5535 26.064 22.7958 27.8733 22.7958 27.8733C22.6304 26.2831 23.7638 27.1573 24.1042 27.4849C23.8686 27.2418 23.3233 26.6387 23.4238 26.3636C23.57 25.964 24.5691 26.0956 24.5691 26.0956C24.5691 26.0956 23.7971 25.9831 23.5735 25.5978C23.3562 25.2236 23.7869 24.1418 23.8122 24.0787C23.7833 24.136 23.3135 25.0524 22.8562 24.9933C22.4326 24.9382 22.1046 23.9458 22.0433 23.7484ZM23.2118 25.5031C23.3366 25.6764 23.386 25.888 23.35 26.0987C23.3149 26.3044 23.2024 26.4849 23.0335 26.6071C22.6798 26.8622 22.1851 26.7822 21.93 26.4289C21.8046 26.2556 21.7553 26.044 21.7913 25.8333C21.8264 25.628 21.9389 25.4471 22.1082 25.3253C22.4615 25.0698 22.9566 25.1498 23.2118 25.5031Z" fill="#E1C36F"/>
<path d="M23.0571 25.6142C23.2514 25.8831 23.1905 26.2582 22.9216 26.4524C22.6527 26.6467 22.2776 26.5858 22.0834 26.3169C21.8892 26.048 21.95 25.6729 22.2189 25.4787C22.4878 25.2849 22.8629 25.3458 23.0571 25.6142Z" fill="#E1C36F"/>
<path d="M25.9267 31.0462C25.9383 31.0387 25.9494 31.0298 25.9591 31.0204C25.9947 30.9867 26.0685 30.8911 25.9938 30.7289C25.7916 30.2902 24.6596 29.6809 24.6116 29.6551C24.572 29.6342 24.5231 29.6489 24.5018 29.6884C24.4809 29.728 24.4956 29.7769 24.5351 29.7982C24.8494 29.9662 25.6978 30.4733 25.8467 30.7969C25.8809 30.8711 25.8556 30.8951 25.8476 30.9031C25.7987 30.9493 25.6574 30.956 25.5325 30.8902C25.5089 30.8778 25.4623 30.8484 25.4089 30.8142C25.1867 30.6729 24.7729 30.4102 24.456 30.376C24.4116 30.3711 24.3716 30.4031 24.3667 30.448C24.3618 30.4924 24.3938 30.5324 24.4387 30.5373C24.7183 30.5676 25.1111 30.8173 25.3223 30.9511C25.3836 30.9902 25.428 31.0182 25.4574 31.0338C25.62 31.1191 25.8125 31.1222 25.9267 31.0462Z" fill="#C8A399"/>
<path d="M25.7236 31.7084C25.7303 31.704 25.7369 31.6991 25.7436 31.6938C25.8165 31.6347 25.8467 31.5427 25.828 31.4351C25.7534 31.0022 24.6658 30.4538 24.5418 30.3924C24.5018 30.3724 24.4529 30.3893 24.4334 30.4293C24.4134 30.4693 24.4298 30.5182 24.4703 30.5378C24.9094 30.7547 25.6227 31.1973 25.6685 31.4627C25.6809 31.536 25.6512 31.56 25.6414 31.568C25.604 31.5987 25.5325 31.6044 25.4752 31.5818C25.4138 31.5573 25.3258 31.5031 25.2236 31.4396C25.0005 31.3013 24.7227 31.1289 24.4512 31.0996C24.4067 31.0947 24.3667 31.1267 24.3618 31.1716C24.3569 31.216 24.3889 31.256 24.4338 31.2609C24.6685 31.2862 24.9289 31.448 25.1383 31.5778C25.2467 31.6449 25.3405 31.7031 25.4156 31.7329C25.5032 31.7671 25.6289 31.7716 25.7236 31.7084Z" fill="#C8A399"/>
<path d="M25.4049 32.1413C25.424 32.1284 25.4414 32.1138 25.4565 32.0969C25.5129 32.0333 25.5298 31.9493 25.5027 31.8662C25.4005 31.5507 24.6302 31.1604 24.5427 31.1173C24.5027 31.0973 24.4538 31.1138 24.4342 31.1538C24.4142 31.1938 24.4307 31.2427 24.4707 31.2622C24.7774 31.4147 25.2871 31.7271 25.3485 31.916C25.3578 31.9449 25.3534 31.968 25.3351 31.9889C25.3085 32.0191 25.2636 32.0316 25.2369 32.0262C25.1725 32.0133 25.0694 31.9431 24.9694 31.8756C24.816 31.7711 24.6418 31.6524 24.4707 31.6342C24.4262 31.6293 24.3862 31.6613 24.3814 31.7062C24.3765 31.7507 24.4085 31.7907 24.4534 31.7956C24.5845 31.8098 24.7405 31.916 24.8787 32.0098C25.0022 32.0938 25.1089 32.1662 25.2058 32.1858C25.2707 32.1987 25.3454 32.1809 25.4049 32.1413Z" fill="#C8A399"/>
<path d="M26.9936 31.7342C27.0233 31.6951 27.0065 31.6382 26.9602 31.6222C26.7318 31.5422 26.3598 31.3551 26.1491 31.0387L26.1465 31.0347C26.1216 30.9973 26.0718 30.9871 26.0345 31.012H26.034C25.9971 31.0364 25.9869 31.0867 26.0113 31.124C26.2411 31.4716 26.6673 31.6742 26.9113 31.76C26.9411 31.7702 26.974 31.7604 26.9927 31.7356C26.9927 31.7347 26.9931 31.7342 26.9936 31.7342Z" fill="#C8A399"/>
<path d="M34.8276 32.0373C34.8023 33.6031 32.9365 41.2804 32.9365 41.2804C35.1259 42.9347 44.1205 42.596 44.1205 42.596C43.8539 40.6409 43.0059 35.0711 43.3383 32.6436C43.4063 32.1471 43.5054 31.6147 43.6187 31.0698C43.7752 30.3156 43.9583 29.5369 44.121 28.7973C44.4863 27.136 44.7499 25.6693 44.3845 25.104C43.7383 24.1053 39.5525 21.8764 39.5525 21.8764L37.1512 22.2893C36.3712 22.6107 34.8027 22.744 34.6259 24.4613C34.4401 26.2653 34.1459 26.2796 33.6916 27.5676C33.2365 28.8556 34.853 30.4716 34.8276 32.0373Z" fill="#F8DF88"/>
<path d="M41.5321 36.7431C41.5601 36.7431 41.5873 36.7302 41.6046 36.7053C41.6326 36.6653 41.6228 36.6102 41.5828 36.5822C41.4264 36.4725 37.7277 33.8898 35.7819 33.7129C35.733 33.7085 35.6904 33.7445 35.6859 33.7929C35.6815 33.8413 35.7175 33.8845 35.7659 33.8889C37.665 34.0618 41.4433 36.7005 41.481 36.7271C41.497 36.7378 41.5148 36.7431 41.5321 36.7431Z" fill="#D5BD71"/>
<path d="M35.8456 34.6951C35.8567 34.6431 35.91 34.6133 35.9594 34.6293C36.9709 34.9582 38.3314 36.0978 39.3811 37.0907C39.3994 37.1076 39.4091 37.1316 39.4091 37.156C39.4091 37.2351 39.3149 37.276 39.2572 37.2218C38.2189 36.2409 36.8812 35.1173 35.9096 34.7991C35.866 34.7844 35.8358 34.7404 35.8456 34.6951Z" fill="#D5BD71"/>
<path d="M40.8945 27.6787C41.4621 29.0293 42.427 30.1227 43.6185 31.0698C43.775 30.3156 43.9581 29.5369 44.1208 28.7973L40.8945 27.6787Z" fill="#BDA162"/>
<path d="M37.4593 24.3267C38.4175 24.3267 39.2748 23.504 39.3122 23.4671C39.342 23.4378 39.3428 23.3898 39.3135 23.36C39.2842 23.3298 39.2366 23.3293 39.2064 23.3587C39.1971 23.3676 38.2842 24.2431 37.3455 24.1707C36.4406 24.1009 36.382 23.2191 36.3797 23.1813C36.3775 23.1396 36.342 23.1076 36.3002 23.1098C36.2584 23.112 36.2264 23.1476 36.2286 23.1893C36.2291 23.2 36.2944 24.2418 37.334 24.3218C37.3762 24.3253 37.418 24.3267 37.4593 24.3267Z" fill="#D5BD71"/>
<path d="M39.6449 22.0338C37.8658 23.9476 36.6952 23.1009 36.6952 23.1009L36.5525 21.7547L36.4512 20.796L38.5081 19.5084L39.0378 19.1773L39.0543 19.2538L39.0841 19.3933L39.6449 22.0338Z" fill="#FAD2C3"/>
<path d="M39.0836 19.3933C38.8849 19.8822 37.8107 21.5573 36.5325 21.564L36.4512 20.796L38.5081 19.5084L39.0543 19.2538L39.0836 19.3933Z" fill="#C8A399"/>
<path d="M36.4503 16.0449C36.4503 16.0449 35.3952 15.3573 34.8206 16.3756C34.2459 17.3942 35.0712 18.2587 36.117 18.0449L36.4503 16.0449Z" fill="#FAD2C3"/>
<path d="M40.6616 17.368C40.4319 17.7689 40.111 18.2551 39.735 18.7413C39.5959 18.9213 39.4487 19.1004 39.2967 19.276C38.0434 20.7169 36.3594 21.2587 35.5447 20.3076C34.955 19.6187 34.7527 18.6458 34.8443 17.7884C34.859 17.648 34.8794 17.5084 34.9039 17.3702C35.1781 15.8169 35.9865 14.4862 35.9865 14.4862C36.8705 13.2231 37.9447 12.9333 39.1092 13.2769C40.1599 13.5862 41.8559 15.2862 40.6616 17.368Z" fill="#FAD2C3"/>
<path d="M39.7347 18.7413C39.5956 18.9209 39.4489 19.1009 39.2969 19.276C39.0569 18.9996 38.9854 18.6182 38.9854 18.6182L39.7347 18.7413Z" fill="#C8A399"/>
<path d="M40.9871 17.9396C40.952 18.4413 40.7169 18.7764 40.4 18.9356C40.3391 18.9662 40.2751 18.9902 40.2085 19.008C39.8187 19.1111 39.3534 18.9862 38.9854 18.6182L39.8085 16.7653C39.8089 16.7653 41.0689 16.7729 40.9871 17.9396Z" fill="#FAD2C3"/>
<path d="M40.0526 19.116C40.1901 19.116 40.3015 19.0046 40.3015 18.8671C40.3015 18.7297 40.1901 18.6182 40.0526 18.6182C39.9151 18.6182 39.8037 18.7297 39.8037 18.8671C39.8037 19.0046 39.9151 19.116 40.0526 19.116Z" fill="white"/>
<path d="M37.549 17.4347C37.4624 17.644 37.3095 17.7796 37.2077 17.7373C37.1055 17.6951 37.093 17.4911 37.1797 17.2818C37.2664 17.0724 37.4193 16.9369 37.521 16.9791C37.6233 17.0213 37.6357 17.2253 37.549 17.4347Z" fill="#22120E"/>
<path d="M35.8293 17.0244C35.7427 17.2338 35.5898 17.3693 35.488 17.3271C35.3858 17.2849 35.3733 17.0809 35.46 16.8716C35.5467 16.6622 35.6995 16.5267 35.8013 16.5689C35.9035 16.6107 35.916 16.8147 35.8293 17.0244Z" fill="#22120E"/>
<path d="M35.7694 15.4498C35.936 15.3533 36.2685 15.1964 36.5867 15.2551C36.6774 15.272 36.7423 15.3529 36.7423 15.4449V15.4884C36.7423 15.5982 36.652 15.688 36.5427 15.6849C36.3965 15.6804 36.1818 15.6982 35.9409 15.7964C35.8218 15.8453 35.6889 15.7676 35.6743 15.64C35.6649 15.5627 35.7023 15.4884 35.7694 15.4498Z" fill="#22120E"/>
<path d="M38.3393 15.8898C38.2171 15.7404 37.9616 15.4769 37.6433 15.4196C37.5527 15.4031 37.4633 15.4564 37.4309 15.5427L37.4149 15.5858C37.3762 15.6884 37.43 15.8022 37.534 15.8378C37.6727 15.8849 37.8669 15.9773 38.0576 16.1542C38.1518 16.2418 38.3038 16.216 38.3624 16.1013C38.3976 16.032 38.3882 15.9493 38.3393 15.8898Z" fill="#22120E"/>
<g opacity="0.5">
<path d="M38.2605 18.1964C38.2454 18.3124 37.9583 18.3698 37.6196 18.3253C37.2809 18.2804 37.0187 18.1507 37.0338 18.0347C37.0489 17.9187 37.336 17.8613 37.6747 17.9058C38.0134 17.9507 38.2756 18.0809 38.2605 18.1964Z" fill="#E8ABAB"/>
</g>
<g opacity="0.5">
<path d="M35.4607 17.6569C35.4456 17.7698 35.1727 17.8276 34.8447 17.7884C34.8594 17.648 34.8798 17.5084 34.9043 17.3702C35.2287 17.4187 35.4754 17.544 35.4607 17.6569Z" fill="#E8ABAB"/>
</g>
<path d="M39.2875 14.732C39.2875 14.732 38.6551 15.4013 38.0479 15.3209C37.4408 15.2404 38.3844 14.344 38.3844 14.344C38.3844 14.344 37.5417 15.0267 37.1231 14.9996C36.7048 14.9729 37.1999 14.1222 37.1999 14.1222C37.1999 14.1222 36.4506 15.0396 36.0222 14.8391C35.5937 14.6382 36.2684 13.7418 37.0284 13.34C37.7884 12.9387 40.0368 12.4804 40.9911 13.9556C41.7711 15.1618 41.3453 16.6849 40.7675 17.1702C40.7675 17.1702 40.0822 16.6747 39.6448 17.0951C39.2075 17.5156 39.1137 17.992 38.8324 17.8004C38.5515 17.6093 39.4075 16.5387 39.4213 15.7356C39.4346 14.9329 39.2875 14.732 39.2875 14.732Z" fill="#22120E"/>
<path d="M53.8181 25.3244C53.807 25.3449 53.7959 25.3653 53.7848 25.3858C53.7035 25.5364 53.6204 25.6862 53.5368 25.8351C53.4533 25.9844 53.3701 26.1329 53.2848 26.2809C52.947 26.8729 52.5973 27.4529 52.2333 28.0076C51.8999 28.5151 51.5515 29.0027 51.1897 29.4364L51.1697 29.4604C51.1279 29.4573 51.0724 29.4511 51.0088 29.44C50.9221 29.4244 50.8226 29.4013 50.7155 29.3702C50.7013 29.3662 50.6875 29.3618 50.6728 29.3573C50.4266 29.2827 50.1524 29.176 49.8746 29.0502C49.5964 28.9236 49.3119 28.78 49.027 28.6253C48.7426 28.4698 48.4559 28.3053 48.1706 28.1324C47.8853 27.9596 47.6008 27.7796 47.3177 27.5933C47.0341 27.4084 46.751 27.2191 46.4697 27.0249C46.3288 26.9276 46.1888 26.8293 46.0488 26.7302C45.9084 26.632 45.7684 26.5329 45.6293 26.4324C45.4897 26.332 45.3506 26.2311 45.2119 26.1293L44.7968 25.8236L44.3853 25.5142L43.987 25.2107L43.9586 25.1889C43.3426 24.7213 42.4608 24.8076 41.9479 25.4013C41.4146 26.0191 41.4835 26.952 42.1008 27.4853L42.2128 27.5818L42.3195 27.6729L42.5328 27.8511C42.6741 27.9693 42.8177 28.0844 42.9608 28.1996C43.1044 28.3142 43.2479 28.4284 43.3928 28.5409C43.5381 28.6529 43.6839 28.7644 43.8306 28.8751C43.9773 28.9858 44.1248 29.0956 44.2728 29.2044C44.4213 29.3129 44.5715 29.42 44.7221 29.5267C45.0235 29.7396 45.3288 29.9493 45.639 30.1547C45.9501 30.3582 46.2666 30.5582 46.5897 30.7529C46.9133 30.9471 47.2426 31.1378 47.5848 31.3178C47.9266 31.4987 48.279 31.6724 48.6515 31.8324C49.0244 31.9924 49.415 32.1418 49.8528 32.2613C50.0719 32.3209 50.3039 32.3729 50.5573 32.4098C50.8119 32.4458 51.0888 32.4671 51.4061 32.4458C51.5648 32.4347 51.7341 32.412 51.9133 32.3689C52.0924 32.3262 52.2813 32.2627 52.4715 32.1702C52.6608 32.0787 52.8497 31.9564 53.0177 31.8093C53.059 31.7724 53.1008 31.7351 53.1395 31.6956C53.179 31.6564 53.2168 31.616 53.2524 31.5751L53.2795 31.544L53.3039 31.5151L53.3275 31.4849L53.3746 31.4249C53.6261 31.1049 53.8541 30.7818 54.0653 30.4547C54.2777 30.1284 54.4724 29.7982 54.6577 29.4667C55.0261 28.8031 55.3497 28.1293 55.6421 27.4471C55.6701 27.3818 55.6973 27.3164 55.7248 27.2507C55.0853 26.6116 54.4515 25.968 53.8181 25.3244Z" fill="#FAD2C3"/>
<path d="M43.96 24.4676C43.96 24.4676 45.5791 25.9671 47.1693 26.8724C47.1693 26.8724 45.168 29.7996 44.5466 30.4867C44.5466 30.4867 40.8662 28.5716 40.5608 26.7476C40.3164 25.2893 42.1724 23.4947 43.96 24.4676Z" fill="#F8DF88"/>
<path d="M24.09 56.0644C23.0709 56.7293 21.1549 55.7 19.7562 53.1302C18.8024 51.3769 17.6069 49.2658 16.5895 47.4867C16.4309 47.2098 16.2766 46.9409 16.1286 46.6827C15.1406 44.9631 14.4131 43.7173 14.4131 43.7173L20.4349 42.0862C20.4349 42.0862 21.1611 43.6338 22.0211 45.652C22.9895 47.9244 24.1273 50.7933 24.5873 52.7187C25.0224 54.5413 24.7362 55.6436 24.09 56.0644Z" fill="#D2B670"/>
<path d="M23.4708 66.7569C23.465 66.7569 23.4593 66.7564 23.453 66.7556C23.3793 66.7458 23.3268 66.6782 23.3366 66.604C23.401 66.1111 22.8397 62.5671 22.2637 59.832C21.8859 58.0373 21.9815 55.3929 22.001 54.944C19.8686 53.0364 17.2379 46.6453 17.1264 46.372C17.0979 46.3031 17.1313 46.224 17.2002 46.196C17.269 46.1676 17.3482 46.2009 17.3762 46.2698C17.4037 46.3364 20.1353 52.9738 22.2273 54.7831C22.2588 54.8102 22.2762 54.8507 22.2739 54.8924C22.2726 54.9218 22.1237 57.8542 22.5282 59.776C23.0646 62.3253 23.6793 66.0671 23.6046 66.6382C23.5957 66.7071 23.5375 66.7569 23.4708 66.7569Z" fill="#BDA060"/>
<path d="M20.2212 40.8329C20.2212 40.8329 20.9981 42.9147 19.5896 44.536C18.1812 46.1573 12.6892 46.9404 10.843 45.9516C8.99674 44.9627 9.20963 43.0413 9.20963 43.0413C9.20963 43.0413 17.959 41.9569 20.2212 40.8329Z" fill="#D2B670"/>
<path d="M13.0885 54.86C12.8552 54.1471 12.5969 53.3787 12.3303 52.5947C11.1832 49.2244 9.8676 45.5609 9.58893 44.7858C9.55382 44.6884 9.53516 44.6369 9.53516 44.6369L16.0929 45.1333C16.0929 45.1333 16.7303 47.6702 17.2547 50.4831C17.2552 50.484 17.2552 50.4844 17.2552 50.4844C17.4769 51.6733 17.6783 52.9111 17.8027 54.0276C17.8543 54.4862 17.8925 54.9236 17.9138 55.3293C18.1672 60.1516 14.5769 59.404 13.0885 54.86Z" fill="#D2B670"/>
<path d="M9.53487 66.6191C9.51843 66.6191 9.50154 66.616 9.48554 66.6093C9.42065 66.5822 9.38998 66.5071 9.4171 66.4422C9.4371 66.3942 11.4327 61.6427 12.2784 59.52C13.0424 57.6027 14.2251 56.8933 14.6331 56.6978C12.6571 53.3635 10.0718 43.9098 10.046 43.8133C10.0273 43.7453 10.0678 43.6751 10.1358 43.6564C10.2038 43.6382 10.274 43.6782 10.2927 43.7462C10.3193 43.8435 12.9615 53.5067 14.9269 56.6898C14.9473 56.7227 14.9513 56.7627 14.9389 56.7991C14.9264 56.8355 14.898 56.864 14.8615 56.8773C14.8469 56.8827 13.386 57.4315 12.5162 59.6147C11.6691 61.74 9.6731 66.4933 9.6531 66.5413C9.63221 66.5898 9.58465 66.6191 9.53487 66.6191Z" fill="#BDA060"/>
<path d="M24.756 17.0338C24.7533 17.9587 24.6648 18.7511 24.4911 19.4031C24.3448 19.9493 24.1302 20.5338 23.8484 21.1538C23.772 21.3222 23.6902 21.4929 23.604 21.6667C23.1493 22.5787 22.5591 23.5609 21.8355 24.6076C20.8497 26.0338 19.9742 27.0578 19.9368 27.1004C19.3146 27.8258 18.2222 27.9089 17.4973 27.2867C16.772 26.6644 16.6884 25.5724 17.3106 24.8471C17.7444 24.3409 18.5555 23.3102 19.3324 22.1289C19.9644 21.168 20.5737 20.1076 20.9382 19.1502C20.9995 18.9893 21.0537 18.8311 21.1004 18.6769C21.1173 18.6204 21.1333 18.5649 21.148 18.5102C21.2657 18.0684 21.4213 16.9947 21.1368 14.7573C20.9653 13.4049 20.72 12.3324 20.7173 12.3218C20.5026 11.3907 21.084 10.4613 22.0155 10.2476C22.9466 10.0329 23.876 10.6142 24.0897 11.5453C24.1013 11.596 24.3768 12.7991 24.5702 14.3213C24.6964 15.3227 24.7591 16.2289 24.756 17.0338Z" fill="#DBC58E"/>
<path d="M22.1771 19.556C22.1771 19.556 21.5664 19.3262 20.9375 19.1502C20.9988 18.9893 21.0531 18.8311 21.0997 18.6769C21.4908 18.9396 21.9882 19.3013 22.1771 19.556Z" fill="#BBA46F"/>
<path d="M19.8417 8.57111C19.8417 8.57111 19.8266 8.54267 19.8008 8.49334C19.823 8.54089 19.8417 8.57111 19.8417 8.57111Z" fill="#F1917D"/>
<path d="M20.1549 10.204C20.2176 10.3858 20.2918 10.5307 20.374 10.6444C20.374 10.6444 20.3776 10.6493 20.3843 10.6587C20.4838 10.7969 21.3016 11.8996 22.0056 11.7422C22.5927 11.6107 23.2594 10.9031 23.1487 10.5609C23.0727 10.3262 23.0607 10.1284 23.066 9.99423C23.0714 9.88178 23.0883 9.81378 23.0905 9.80489C23.0905 9.80445 23.0905 9.80445 23.0905 9.80445C23.0971 9.67023 23.082 9.53689 23.0514 9.41601C22.9274 8.92623 22.694 8.45245 22.2176 8.03778C21.7465 7.62756 20.7985 7.68623 20.1429 7.82712C19.9434 7.36001 19.5131 6.45556 19.1691 6.45289C18.7589 6.44934 19.6007 8.11112 19.7998 8.49378C19.8256 8.54312 19.8407 8.57156 19.8407 8.57156C19.8407 8.57156 19.7385 8.49156 19.5972 8.39645C19.3034 8.19867 18.8443 7.93689 18.8038 8.20312C18.7447 8.59734 19.9767 9.688 20.1549 10.204Z" fill="#F9CBB1"/>
<path d="M23.0664 9.99423C23.0797 9.93156 23.0882 9.86756 23.0909 9.80489C23.0886 9.81334 23.0717 9.88178 23.0664 9.99423Z" fill="#F1917D"/>
<path d="M20.6326 9.21689C20.6326 9.21689 20.5757 9.57512 20.6801 9.908C20.6975 9.96267 20.6521 10.0164 20.5953 10.0084C20.5637 10.004 20.5379 9.98089 20.5304 9.94978C20.4961 9.80578 20.4121 9.38978 20.509 9.096L20.6326 9.21689Z" fill="#C8A399"/>
<path d="M17.6274 6.00978L20.6096 8.96889C20.6683 9.08978 20.8238 9.36534 21.0065 9.58045L17.5771 6.23911C17.5971 6.16311 17.6145 6.08711 17.6274 6.00978Z" fill="#DCC070"/>
<path d="M18.2838 7.35245C18.2763 7.34133 18.2465 7.29822 18.2012 7.23645C18.2447 7.30045 18.2758 7.34178 18.2838 7.35245Z" fill="#F5A941"/>
<path d="M21.4044 9.62934C21.3946 9.63956 21.3844 9.64889 21.3738 9.65689C21.3346 9.68623 21.228 9.74311 21.0804 9.64223C20.6818 9.36934 20.2715 8.15112 20.2542 8.09956C20.24 8.05689 20.2631 8.01111 20.3053 7.99689C20.348 7.98267 20.3938 8.00578 20.408 8.048C20.5209 8.38623 20.8782 9.30756 21.172 9.50845C21.2395 9.55467 21.2671 9.53378 21.2764 9.52711C21.3302 9.48667 21.3604 9.34845 21.3169 9.21423C21.3084 9.18889 21.2875 9.13823 21.2626 9.07956C21.1609 8.83689 20.9711 8.38489 20.9906 8.06667C20.9933 8.02223 21.0315 7.988 21.0764 7.99067C21.1209 7.99334 21.1551 8.032 21.1524 8.07645C21.1355 8.35689 21.3155 8.78623 21.412 9.01689C21.44 9.084 21.4604 9.13245 21.4706 9.164C21.528 9.33867 21.4986 9.52934 21.4044 9.62934Z" fill="#C8A399"/>
<path d="M22.0923 9.53956C22.0866 9.54534 22.0808 9.55111 22.0746 9.55689C22.0039 9.61867 21.9083 9.63289 21.8052 9.59645C21.391 9.45023 21.0332 8.28578 20.9937 8.15334C20.9808 8.11023 21.0052 8.06534 21.0483 8.05245C21.091 8.03956 21.1363 8.064 21.1492 8.10711C21.2892 8.57645 21.6061 9.35423 21.8595 9.44356C21.9297 9.46845 21.9581 9.44311 21.9679 9.43467C22.0043 9.40267 22.0221 9.33334 22.0092 9.27289C21.9955 9.20845 21.9568 9.11245 21.9115 9.00134C21.8123 8.75823 21.6892 8.45511 21.7061 8.18267C21.7088 8.13823 21.7475 8.104 21.7919 8.10667C21.8363 8.10934 21.8706 8.148 21.8679 8.19245C21.8537 8.428 21.9688 8.712 22.0617 8.94C22.1097 9.05823 22.1515 9.16045 22.1679 9.23911C22.187 9.332 22.1701 9.45689 22.0923 9.53956Z" fill="#C8A399"/>
<path d="M22.5724 9.29823C22.5569 9.31511 22.5391 9.32978 22.52 9.34134C22.448 9.38622 22.3622 9.38889 22.2849 9.34845C21.9911 9.19467 21.736 8.36978 21.7075 8.27645C21.6947 8.23378 21.7191 8.18845 21.7618 8.17556C21.8044 8.16267 21.8498 8.18711 21.8627 8.22978C21.9613 8.55778 22.1835 9.11289 22.36 9.20489C22.3867 9.21911 22.4107 9.21867 22.4342 9.204C22.4684 9.18267 22.4884 9.14045 22.4875 9.11334C22.4858 9.04756 22.4338 8.93423 22.384 8.82445C22.3067 8.65556 22.2191 8.464 22.2298 8.292C22.2324 8.24756 22.2711 8.21334 22.3155 8.216C22.3604 8.21867 22.3942 8.25734 22.3915 8.30178C22.3835 8.43334 22.4622 8.60534 22.5315 8.75689C22.5938 8.89289 22.6471 9.01022 22.6498 9.10889C22.6511 9.17556 22.6209 9.24623 22.5724 9.29823Z" fill="#C8A399"/>
<path d="M21.9041 10.7964C21.8605 10.8191 21.8072 10.7929 21.7992 10.7444C21.7588 10.5058 21.637 10.108 21.3601 9.84711L21.3565 9.844C21.3241 9.81334 21.3223 9.76223 21.353 9.72978V9.72934C21.3837 9.69689 21.4343 9.69511 21.4672 9.72578C21.7712 10.0107 21.8997 10.4649 21.9432 10.7196C21.9485 10.7507 21.933 10.7813 21.9054 10.796C21.905 10.796 21.9045 10.796 21.9041 10.7964Z" fill="#C8A399"/>
<path d="M11.1695 22.7969C11.1695 22.7969 9.14284 20.8329 10.7251 19.776C12.766 18.4124 18.0504 21.4591 17.6011 23.7413C17.2811 25.3662 12.6166 24.0698 11.1695 22.7969Z" fill="#DBC58E"/>
<path d="M14.4035 23.3244C14.3599 23.3244 14.3199 23.296 14.307 23.252C13.8862 21.8049 11.6208 20.7373 11.5982 20.7267C11.5479 20.7031 11.5262 20.6436 11.5493 20.5933C11.5724 20.5431 11.6324 20.5209 11.6826 20.5444C11.779 20.5893 14.0533 21.6618 14.4999 23.1956C14.5155 23.2489 14.4848 23.3044 14.4315 23.32C14.4222 23.3231 14.4128 23.3244 14.4035 23.3244Z" fill="#BBA46F"/>
<path d="M13.3622 21.8658C13.3165 21.8658 13.2751 21.8342 13.2645 21.788C13.132 21.2142 12.6311 20.5964 12.6262 20.5902C12.5911 20.5471 12.5973 20.484 12.6405 20.4489C12.6836 20.4138 12.7467 20.42 12.7818 20.4631C12.8036 20.4898 13.3173 21.1227 13.4605 21.7427C13.4729 21.7969 13.4391 21.8507 13.3853 21.8631C13.3773 21.8649 13.3698 21.8658 13.3622 21.8658Z" fill="#BBA46F"/>
<path d="M20.6977 41.7809L10.5612 43.2578L10.3572 43.2827L8.43056 43.4071C8.43056 43.4071 8.42789 40.1564 8.02123 35.3916C7.84167 33.2902 8.03278 30.86 8.41145 28.648C8.51945 28.0191 8.64167 27.4084 8.77634 26.8276C8.78212 26.8027 8.78789 26.7773 8.79367 26.7524C8.98123 25.9498 9.18967 25.2062 9.40789 24.5556C9.89456 23.1044 10.4297 22.1164 10.8892 21.9644C12.283 21.504 19.8506 23.7 20.0706 25.3129C20.003 26.5071 18.775 29.7827 18.639 30.4551C17.9048 34.072 20.6977 41.7809 20.6977 41.7809Z" fill="#DBC58E"/>
<path d="M11.3533 26.2284C11.3533 26.2284 10.2039 26.8836 8.77637 26.8271C8.78214 26.8022 8.78792 26.7769 8.7937 26.752C8.98126 25.9493 9.1897 25.2058 9.40792 24.5551L11.3533 26.2284Z" fill="#BBA46F"/>
<path d="M14.1785 33.7818C14.1679 33.7813 14.1572 33.7796 14.1465 33.7764C14.075 33.7551 14.0345 33.68 14.0559 33.6084C14.7314 31.344 14.5905 28.9333 14.3536 27.3098C14.0963 25.5484 13.675 24.3116 13.6705 24.2991C13.6461 24.2284 13.6839 24.1516 13.7541 24.1276C13.8248 24.1031 13.9016 24.1409 13.9256 24.2111C13.9301 24.2236 14.3599 25.4844 14.6208 27.2707C14.8616 28.9213 15.0043 31.3742 14.3145 33.6858C14.2968 33.7462 14.2394 33.7849 14.1785 33.7818Z" fill="#BBA46F"/>
<path d="M16.8608 34.3262C16.8466 34.3262 16.8323 34.324 16.8186 34.3191C16.7479 34.2956 16.7097 34.2191 16.7332 34.1484C18.0155 30.3013 16.5603 25.0938 16.5452 25.0418C16.5248 24.9702 16.5666 24.8956 16.6381 24.8751C16.7101 24.8547 16.7843 24.8964 16.8048 24.968C16.8083 24.9813 17.1843 26.3129 17.3937 28.108C17.5875 29.7684 17.6741 32.1791 16.9892 34.2342C16.9706 34.2907 16.9177 34.3267 16.8608 34.3262Z" fill="#BBA46F"/>
<path d="M15.8464 24.7062C15.8024 24.7062 15.7566 24.7049 15.7091 24.7018C14.5526 24.628 13.8931 23.4693 13.8655 23.4204C13.838 23.3716 13.8558 23.3093 13.9046 23.2818C13.9535 23.2542 14.0158 23.272 14.0433 23.3209C14.0495 23.332 14.678 24.432 15.7224 24.4987C16.7198 24.5622 16.8051 23.852 16.8082 23.8218C16.814 23.7662 16.8642 23.7253 16.9193 23.7307C16.9749 23.736 17.0158 23.7853 17.0104 23.8413C17.0095 23.8502 16.9153 24.7062 15.8464 24.7062Z" fill="#BBA46F"/>
<path d="M17.6485 37.5413C16.944 37.5413 16.2076 37.4164 15.4485 37.1676C14.6 36.8893 13.7218 36.456 12.8382 35.8804C11.3365 34.9018 10.324 33.8324 10.3138 33.8213C10.2751 33.7804 10.2774 33.716 10.3182 33.6773C10.3591 33.6387 10.4236 33.6409 10.4622 33.6818C10.472 33.6924 11.4711 34.7467 12.9534 35.712C14.3142 36.5982 16.3734 37.5898 18.4551 37.2787C18.5107 37.2702 18.5627 37.3084 18.5707 37.3644C18.5791 37.42 18.5405 37.472 18.4849 37.48C18.212 37.5213 17.9329 37.5413 17.6485 37.5413Z" fill="#BBA46F"/>
<path d="M17.2348 36.5009C17.2313 36.5009 17.2277 36.5009 17.2237 36.5004C16.4122 36.4142 15.466 35.9302 14.4117 35.0627C13.6317 34.4209 13.0788 33.7947 13.0731 33.7884C13.0362 33.7462 13.0402 33.6818 13.0824 33.6449C13.1246 33.6076 13.1891 33.612 13.2259 33.6542C13.2473 33.6787 15.3984 36.1018 17.2451 36.2982C17.3011 36.304 17.3415 36.3542 17.3357 36.4102C17.3304 36.4618 17.286 36.5009 17.2348 36.5009Z" fill="#BBA46F"/>
<path d="M13.5478 19.0662C13.5478 19.0662 13.4069 19.7307 13.6358 20.2782C13.8642 20.8253 14.1162 20.1102 14.1162 20.1102C14.1162 20.1102 13.9282 20.6889 14.366 20.7116C14.8038 20.7338 14.9558 19.9929 14.9558 19.9929L13.5478 19.0662Z" fill="#22120E"/>
<path d="M13.96 22.6191C15.6404 24.4267 16.7462 23.6271 16.7462 23.6271L16.8808 22.3556L16.9769 21.4502L15.0337 20.2342L14.5337 19.9209L14.5182 19.9929L14.4902 20.1249L13.96 22.6191Z" fill="#F9CBB1"/>
<path d="M14.4902 20.1249C14.6778 20.5867 15.904 22.8764 16.9 22.1756L16.9769 21.4502L15.0338 20.2342L14.5178 19.9933L14.4902 20.1249Z" fill="#E0B29A"/>
<path d="M16.9775 16.9618C16.9775 16.9618 17.9744 16.312 18.5171 17.2742C19.0598 18.2364 18.2806 19.0533 17.2926 18.8511L16.9775 16.9618Z" fill="#E0B29A"/>
<path d="M12.9987 18.2116C13.2156 18.5902 13.5192 19.0498 13.8743 19.5089C14.0058 19.6787 14.1445 19.8484 14.288 20.0142C15.472 21.3756 17.0245 22.4556 18.0112 20.9756C18.4863 20.2627 18.58 19.4187 18.4938 18.6089C18.4796 18.4764 18.4609 18.3444 18.4374 18.2138C18.1783 16.7467 17.4147 15.4898 17.4147 15.4898C16.5796 14.2964 15.5649 14.0231 14.4654 14.3476C13.4729 14.6396 11.8712 16.2453 12.9987 18.2116Z" fill="#F9CBB1"/>
<path d="M13.874 19.5089C14.0051 19.6787 14.1442 19.8484 14.2878 20.0138C14.5145 19.7524 14.582 19.3924 14.582 19.3924L13.874 19.5089Z" fill="#E0B29A"/>
<path d="M13.8049 17.6422C13.8049 17.6422 12.6152 17.6493 12.692 18.7511C12.7694 19.8529 13.8694 20.1053 14.5827 19.3924L13.8049 17.6422Z" fill="#F9CBB1"/>
<path d="M15.9381 18.2747C16.0199 18.4724 16.1643 18.6004 16.2608 18.5609C16.3572 18.5209 16.3688 18.3284 16.287 18.1307C16.2052 17.9329 16.0608 17.8049 15.9643 17.8444C15.8683 17.884 15.8563 18.0769 15.9381 18.2747Z" fill="#22120E"/>
<path d="M17.5631 17.8871C17.6449 18.0849 17.7893 18.2129 17.8858 18.1733C17.9822 18.1333 17.9938 17.9409 17.912 17.7431C17.8302 17.5453 17.6858 17.4173 17.5893 17.4569C17.4933 17.4964 17.4813 17.6889 17.5631 17.8871Z" fill="#22120E"/>
<path d="M17.6198 16.3996C17.4625 16.3084 17.1487 16.16 16.8478 16.2156C16.7621 16.2316 16.7012 16.308 16.7012 16.3951V16.4364C16.7012 16.54 16.7861 16.6249 16.8896 16.6218C17.0278 16.6173 17.2305 16.6342 17.4581 16.7271C17.5705 16.7733 17.6963 16.7 17.7101 16.5791C17.7185 16.5067 17.683 16.436 17.6198 16.3996Z" fill="#22120E"/>
<path d="M15.192 16.8151C15.3071 16.6742 15.5489 16.4249 15.8498 16.3711C15.9356 16.3556 16.0196 16.4058 16.0502 16.4871L16.0654 16.528C16.1018 16.6249 16.0511 16.7324 15.9529 16.7658C15.8222 16.8107 15.6387 16.8973 15.4582 17.0644C15.3689 17.1471 15.2258 17.1231 15.1702 17.0147C15.1374 16.9498 15.1458 16.8716 15.192 16.8151Z" fill="#22120E"/>
<g opacity="0.5">
<path d="M15.2672 18.9942C15.2814 19.1036 15.5525 19.1582 15.8725 19.116C16.1925 19.0738 16.4401 18.9511 16.4259 18.8413C16.4116 18.732 16.1405 18.6773 15.8205 18.7196C15.5005 18.7618 15.253 18.8849 15.2672 18.9942Z" fill="#E9645A"/>
</g>
<g opacity="0.5">
<path d="M17.9118 18.4844C17.926 18.5911 18.1838 18.6458 18.4935 18.6089C18.4793 18.4764 18.4606 18.3444 18.4371 18.2138C18.1304 18.2596 17.8975 18.3782 17.9118 18.4844Z" fill="#E9645A"/>
</g>
<path d="M17.4911 15.6227C17.4911 15.6227 18.5933 14.8938 18.2026 14.4498C17.8119 14.0058 17.2382 14.6804 17.2382 14.6804C17.2382 14.6804 18.1506 13.6862 17.7119 13.3844C17.2733 13.0827 16.7017 13.6151 16.7017 13.6151C16.7017 13.6151 16.9306 12.7631 16.4315 12.7982C15.9324 12.8338 15.6142 13.5973 15.6142 13.5973C15.6142 13.5973 14.3911 13.6329 13.4128 14.3431C12.4346 15.0533 12.2751 16.368 12.2751 16.368C12.2751 16.368 11.5915 16.052 11.3786 16.368C11.1968 16.6373 12.0622 16.9351 12.0622 16.9351C12.0622 16.9351 11.3742 17.0196 11.4986 17.4102C11.6231 17.8009 12.3639 17.4858 12.3639 17.4858C12.3639 17.4858 12.5479 17.96 12.8999 18.0249C12.8999 18.0249 13.3582 17.5404 13.9795 17.8151C14.6008 18.0898 14.3555 18.4627 14.7533 18.3204C15.1511 18.1782 14.2115 17.1667 14.2288 16.5982C14.2462 16.0302 14.1128 15.4618 14.9737 15.2489C15.3031 15.1676 16.0191 15.3409 16.2853 15.1867C17.0502 14.7427 17.2346 15.4244 17.4911 15.6227Z" fill="#22120E"/>
<path d="M17.3131 21.6698C17.3464 21.6698 17.3771 21.6476 17.3864 21.6138C17.3975 21.5733 17.374 21.5316 17.3335 21.52C15.4606 21.0022 14.2975 19.3111 13.6518 17.9836C12.9486 16.5391 12.6895 15.2022 12.6869 15.1889C12.6789 15.1476 12.6389 15.1204 12.598 15.1284C12.5566 15.1364 12.5295 15.176 12.5375 15.2173C12.5402 15.2307 12.8033 16.5876 13.5153 18.0502C14.1749 19.4058 15.366 21.1338 17.2935 21.6667C17.2998 21.6689 17.3064 21.6698 17.3131 21.6698Z" fill="#F5A941"/>
<path d="M11.2962 12.1493C11.5979 12.1493 11.8424 11.9048 11.8424 11.6031C11.8424 11.3014 11.5979 11.0569 11.2962 11.0569C10.9946 11.0569 10.75 11.3014 10.75 11.6031C10.75 11.9048 10.9946 12.1493 11.2962 12.1493Z" fill="#F5A941"/>
<path d="M11.7111 11.864C11.5622 11.7973 11.4004 11.928 11.4342 12.0876L11.4809 12.3084L11.5631 12.6969V12.6973L11.7284 13.4809L11.8098 13.8667L11.9778 14.6618L12.0587 15.0453L12.3031 16.204C12.3031 16.204 13.1209 15.0067 14.4067 14.3071C14.9009 14.0378 15.464 13.8418 16.0764 13.8156L15.9609 13.764L14.3075 13.0249H14.3071L13.7124 12.7591C13.712 12.7591 13.712 12.7591 13.712 12.7591L12.54 12.2351L12.0627 12.0222L11.7111 11.864Z" fill="#F5A941"/>
<path d="M11.9785 14.6613L12.0594 15.0449C12.8834 14.6573 13.7003 14.4338 14.4078 14.3067C14.9021 14.0373 15.4652 13.8413 16.0776 13.8151L15.9621 13.7636C15.1203 13.7791 13.579 13.9245 11.9785 14.6613Z" fill="white"/>
<path d="M11.7285 13.4809L11.8098 13.8667C12.6792 13.4222 13.5512 13.1684 14.3076 13.0244L13.713 12.7587C13.7125 12.7587 13.7125 12.7587 13.7125 12.7587C13.089 12.9116 12.4112 13.1404 11.7285 13.4809Z" fill="white"/>
<path d="M11.4814 12.3084L11.5637 12.6969C11.8899 12.5164 12.2174 12.3636 12.5414 12.2347L12.0641 12.0218C11.8708 12.108 11.6761 12.2031 11.4814 12.3084Z" fill="white"/>
<path d="M12.2422 25.4489C11.7827 26.2867 10.7311 26.5933 9.89333 26.1333C9.84356 26.1067 8.66356 25.4564 7.23867 24.4684C6.19289 23.744 5.29422 23.032 4.54756 22.3387C4.40578 22.2062 4.26889 22.0756 4.13822 21.9444C3.656 21.4636 3.24933 20.9924 2.92045 20.5324C2.528 19.9836 2.16622 19.2729 1.83822 18.4084C1.552 17.656 1.29111 16.7862 1.05778 15.8036C0.702668 14.3111 0.53689 13.0876 0.530223 13.0364C0.403112 12.0893 1.068 11.2187 2.01511 11.0911C2.96178 10.964 3.83289 11.6284 3.96045 12.576C3.96178 12.5867 4.10933 13.6769 4.42489 15.0031C4.94667 17.1973 5.47022 18.1476 5.736 18.5196C5.78622 18.5898 5.83911 18.6604 5.89511 18.7311C6 18.8649 6.11467 18.9996 6.23689 19.1342C6.908 19.8733 7.81511 20.6173 8.70845 21.2676C9.852 22.0996 10.9742 22.7787 11.5582 23.1C12.396 23.5596 12.7018 24.6111 12.2422 25.4489Z" fill="#DBC58E"/>
<path d="M6.23645 19.1338L5.06934 19.708L5.89467 18.7307C5.99956 18.8644 6.11423 18.9991 6.23645 19.1338Z" fill="#BBA46F"/>
<path d="M3.45801 8.75733C3.45801 8.75733 3.46201 8.72533 3.46912 8.67022C3.46512 8.72267 3.45801 8.75733 3.45801 8.75733Z" fill="#F1917D"/>
<path d="M3.73946 10.396C3.74479 10.588 3.72657 10.7498 3.68924 10.8853C3.68924 10.8853 3.6879 10.8911 3.68479 10.9022C3.64035 11.0667 3.26301 12.3867 2.54879 12.4876C1.95324 12.5711 1.0799 12.1436 1.06301 11.7844C1.05146 11.5382 0.993236 11.3489 0.940792 11.2253C0.896347 11.1222 0.856347 11.064 0.851014 11.0564C0.850569 11.056 0.850569 11.056 0.850569 11.056C0.797236 10.9324 0.764347 10.8027 0.750569 10.6787C0.694125 10.1764 0.745681 9.65111 1.04568 9.09556C1.34213 8.54578 2.25013 8.26667 2.91324 8.168C2.93546 7.66089 3.0199 6.66267 3.34079 6.53867C3.7239 6.39111 3.52035 8.24267 3.46879 8.67067C3.46213 8.72622 3.45768 8.75778 3.45768 8.75778C3.45768 8.75778 3.52524 8.64667 3.6239 8.508C3.82924 8.21956 4.16701 7.81245 4.29857 8.04756C4.49368 8.39556 3.72435 9.85022 3.73946 10.396Z" fill="#F9CBB1"/>
<path d="M0.940364 11.2244C0.905697 11.1702 0.875475 11.1138 0.850586 11.0556C0.856364 11.0631 0.895919 11.1213 0.940364 11.2244Z" fill="#F1917D"/>
<path d="M2.94434 9.64C2.94434 9.64 3.12389 9.95555 3.14345 10.3036C3.14656 10.3609 3.20789 10.3956 3.25811 10.368C3.28611 10.3529 3.30211 10.3218 3.29811 10.2902C3.27945 10.1436 3.21145 9.72444 3.01767 9.48355L2.94434 9.64Z" fill="#C8A399"/>
<path d="M4.62897 5.58044L2.87963 9.4C2.86719 9.53378 2.81874 9.84667 2.72363 10.112L4.75697 5.77689C4.71163 5.71333 4.66852 5.648 4.62897 5.58044Z" fill="#DCC070"/>
<path d="M4.4873 7.068C4.49042 7.05511 4.5033 7.00444 4.52375 6.93022C4.50553 7.00578 4.49086 7.05556 4.4873 7.068Z" fill="#F5A941"/>
<path d="M2.36754 10.2978C2.37998 10.304 2.39287 10.3089 2.4062 10.3129C2.45287 10.3267 2.57287 10.3422 2.67554 10.196C2.95243 9.80044 2.90754 8.51556 2.90576 8.46089C2.90398 8.416 2.86665 8.38133 2.82176 8.38311C2.77687 8.38489 2.7422 8.42222 2.74398 8.46711C2.75731 8.82311 2.74709 9.81156 2.54309 10.1031C2.49598 10.1702 2.46265 10.1604 2.45198 10.1573C2.38754 10.1382 2.31065 10.0196 2.30398 9.87867C2.30265 9.852 2.30487 9.79689 2.30709 9.73333C2.31687 9.47022 2.33509 8.98044 2.20487 8.68933C2.18665 8.64844 2.13865 8.63022 2.09776 8.64844C2.05687 8.66667 2.03865 8.71467 2.05687 8.75556C2.17154 9.012 2.1542 9.47733 2.14487 9.72711C2.1422 9.79956 2.13998 9.85244 2.14176 9.88578C2.14976 10.0698 2.24443 10.2378 2.36754 10.2978Z" fill="#C8A399"/>
<path d="M1.69294 10.456C1.7005 10.4596 1.70805 10.4631 1.71561 10.4658C1.80361 10.4991 1.89827 10.4782 1.98138 10.4084C2.31738 10.1258 2.24272 8.90978 2.23294 8.772C2.22983 8.72711 2.19116 8.69378 2.14627 8.69689C2.10183 8.7 2.06805 8.73867 2.07116 8.78355C2.10538 9.272 2.08272 10.1116 1.87694 10.2844C1.82005 10.3324 1.78405 10.3187 1.7725 10.3142C1.72716 10.2973 1.68627 10.2387 1.67694 10.1773C1.66672 10.112 1.66983 10.0084 1.67294 9.88844C1.68005 9.62578 1.6885 9.29911 1.57694 9.04978C1.55872 9.00889 1.51072 8.99066 1.46983 9.00889C1.42894 9.02711 1.41072 9.07511 1.42894 9.116C1.52538 9.33155 1.51738 9.63778 1.51072 9.884C1.50716 10.0116 1.5045 10.1218 1.5165 10.2013C1.53116 10.2951 1.59072 10.4062 1.69294 10.456Z" fill="#C8A399"/>
<path d="M1.15768 10.3991C1.17813 10.4093 1.1999 10.4169 1.22213 10.4213C1.30568 10.4382 1.38657 10.4102 1.44479 10.3453C1.66568 10.0978 1.61413 9.236 1.60746 9.13866C1.60435 9.09422 1.56568 9.06044 1.52124 9.06311C1.47635 9.06622 1.44301 9.10489 1.44568 9.14933C1.46879 9.49111 1.4559 10.0889 1.3239 10.2373C1.3039 10.26 1.28168 10.268 1.25413 10.2627C1.21457 10.2547 1.18124 10.2222 1.17235 10.1969C1.15057 10.1347 1.15946 10.0102 1.1679 9.88978C1.18079 9.70444 1.19546 9.49466 1.12479 9.33733C1.10657 9.29644 1.05857 9.27822 1.01768 9.29644C0.976792 9.31466 0.95857 9.36266 0.976792 9.40355C1.03057 9.524 1.01768 9.71244 1.00613 9.87867C0.995903 10.0276 0.987014 10.1564 1.01946 10.2498C1.04035 10.312 1.09368 10.368 1.15768 10.3991Z" fill="#C8A399"/>
<path d="M2.31137 11.5662C2.36026 11.572 2.4007 11.5289 2.39137 11.4809C2.34515 11.2431 2.31937 10.828 2.48603 10.4862L2.48826 10.4822C2.50781 10.4422 2.49137 10.3938 2.45137 10.3738H2.45092C2.41092 10.3542 2.36248 10.3707 2.34248 10.4107C2.15848 10.7844 2.19803 11.2547 2.24692 11.5084C2.2527 11.5391 2.27803 11.5627 2.30915 11.5667C2.31048 11.5658 2.31092 11.5662 2.31137 11.5662Z" fill="#C8A399"/>
<path d="M5.11918 6.11245C5.9638 6.11245 6.64851 5.42774 6.64851 4.58311C6.64851 3.73849 5.9638 3.05378 5.11918 3.05378C4.27455 3.05378 3.58984 3.73849 3.58984 4.58311C3.58984 5.42774 4.27455 6.11245 5.11918 6.11245Z" fill="#F5A941"/>
<path d="M6.28566 4.91244C6.2781 4.91067 6.27144 4.90711 6.26522 4.90133C6.21944 4.85556 6.16699 4.81778 6.1101 4.78933C5.99366 4.73022 5.88077 4.72133 5.80699 4.72356C5.78699 4.72444 5.7701 4.71156 5.76522 4.69244C5.75988 4.67378 5.76877 4.65378 5.78566 4.64444L6.24433 4.39822C6.26477 4.38756 6.2901 4.39467 6.30122 4.41511C6.31233 4.43556 6.30433 4.46089 6.28433 4.472L5.95322 4.64978C6.02122 4.66178 6.08699 4.68356 6.14833 4.71422C6.21322 4.74711 6.27233 4.78978 6.32477 4.84178C6.34122 4.85822 6.34122 4.88489 6.32522 4.90133C6.3141 4.91156 6.29944 4.91556 6.28566 4.91244Z" fill="white"/>
<path d="M4.11569 4.27334C4.10057 4.26978 4.08813 4.25822 4.08413 4.24222C4.0788 4.21956 4.09302 4.19689 4.11524 4.192C4.1868 4.17511 4.25969 4.16978 4.33213 4.17556C4.40057 4.18133 4.46813 4.19734 4.53213 4.22267L4.3428 3.89822C4.33124 3.87822 4.33791 3.85245 4.35791 3.84089C4.37791 3.82934 4.40369 3.836 4.41524 3.856L4.67746 4.30534C4.68724 4.32222 4.68413 4.34356 4.66991 4.35689C4.65569 4.37022 4.63435 4.37245 4.61791 4.36133C4.55613 4.32045 4.45524 4.26978 4.32502 4.25911C4.26146 4.25378 4.19702 4.25867 4.13391 4.27378C4.12813 4.27511 4.12146 4.27467 4.11569 4.27334Z" fill="white"/>
<path d="M5.95992 4.84C5.93947 4.92311 5.87458 5.13867 5.67192 5.30356C5.63281 5.33511 5.59325 5.36133 5.55281 5.384C5.53903 5.39111 5.52525 5.39822 5.51103 5.40533C5.47058 5.42445 5.42925 5.43911 5.38792 5.45111C5.12392 5.52667 4.8817 5.45289 4.85281 5.44356C4.79281 5.424 4.60525 5.36045 4.45458 5.18578C4.45058 5.18133 4.44614 5.17689 4.44303 5.17289C4.41725 5.14222 4.39325 5.10889 4.37147 5.07245C4.36436 5.06133 4.35858 5.04978 4.35192 5.03689C4.25636 4.85511 4.25058 4.67733 4.26436 4.556C4.26836 4.52 4.27458 4.48845 4.27947 4.46311C4.28525 4.44222 4.29014 4.42356 4.2937 4.40889L4.29414 4.40978C4.41236 4.51822 4.67236 4.728 5.06658 4.82845C5.45414 4.92711 5.77681 4.87156 5.93147 4.83378L5.95992 4.84Z" fill="#D08225"/>
<path d="M5.5534 5.384C5.53963 5.39111 5.52585 5.39823 5.51163 5.40534C5.47118 5.42445 5.42985 5.43911 5.38851 5.45111C5.12451 5.52667 4.88229 5.45289 4.8534 5.44356C4.7934 5.424 4.60585 5.36045 4.45518 5.18578C4.45118 5.18134 4.44674 5.17689 4.44363 5.17289C4.41785 5.14223 4.39385 5.10889 4.37207 5.07245C4.44718 4.99645 4.55829 4.95645 4.66407 4.96934C4.78496 4.98311 4.89474 5.06311 4.9454 5.17289C5.06274 5.10267 5.21518 5.09511 5.33874 5.15245C5.43563 5.19823 5.51429 5.28311 5.5534 5.384Z" fill="white"/>
<path d="M16.8934 6.73734C17.6953 6.73734 18.3454 6.08725 18.3454 5.28534C18.3454 4.48342 17.6953 3.83334 16.8934 3.83334C16.0915 3.83334 15.4414 4.48342 15.4414 5.28534C15.4414 6.08725 16.0915 6.73734 16.8934 6.73734Z" fill="#F5A941"/>
<path d="M17.7583 4.52622C17.753 4.53111 17.7468 4.53511 17.7392 4.53645C17.6792 4.54934 17.6219 4.57156 17.5699 4.60222C17.4628 4.66445 17.397 4.74934 17.361 4.80978C17.3512 4.82622 17.3321 4.83289 17.3148 4.82711C17.297 4.82134 17.2859 4.80445 17.2872 4.78578L17.3281 4.29334C17.3299 4.27156 17.349 4.25511 17.3712 4.25689C17.393 4.25867 17.4094 4.27778 17.4077 4.3L17.3783 4.65556C17.4232 4.60756 17.4743 4.56622 17.5303 4.53378C17.5899 4.49911 17.6548 4.47378 17.7232 4.45911C17.7446 4.45467 17.7659 4.468 17.7708 4.48978C17.7726 4.50311 17.7681 4.51689 17.7583 4.52622Z" fill="white"/>
<path d="M16.1283 5.92445C16.1176 5.93467 16.1021 5.93867 16.0869 5.93334C16.0661 5.92578 16.0554 5.90312 16.0629 5.88223C16.0865 5.81645 16.1198 5.75556 16.1621 5.70089C16.2016 5.64934 16.2496 5.604 16.3025 5.56578L15.9461 5.54889C15.9243 5.548 15.9069 5.52934 15.9083 5.50712C15.9092 5.48534 15.9278 5.468 15.9501 5.46934L16.4438 5.49245C16.4625 5.49334 16.4776 5.50667 16.4812 5.52489C16.4847 5.54311 16.4749 5.56134 16.4581 5.56845C16.3936 5.59645 16.3007 5.65067 16.2256 5.74889C16.1887 5.79689 16.1594 5.85067 16.1385 5.90845C16.1358 5.91556 16.1323 5.92045 16.1283 5.92445Z" fill="white"/>
<path d="M17.5331 4.748C17.5887 4.80756 17.7269 4.97022 17.7535 5.21689C17.7584 5.26445 17.7589 5.30933 17.7562 5.35333C17.7549 5.368 17.7535 5.38267 17.7518 5.39778C17.746 5.44 17.7367 5.48045 17.7247 5.51956C17.6487 5.76889 17.4642 5.92356 17.442 5.94178C17.3953 5.97956 17.2478 6.096 17.0313 6.12578C17.0255 6.12667 17.0202 6.128 17.0149 6.12845C16.9771 6.13289 16.938 6.13511 16.8975 6.13333C16.8851 6.13333 16.8727 6.132 16.8593 6.13067C16.6651 6.11289 16.5207 6.02578 16.4313 5.95156C16.4047 5.92978 16.3829 5.90845 16.3651 5.89156C16.3513 5.876 16.3389 5.86267 16.3291 5.852H16.3304C16.478 5.81422 16.7793 5.71556 17.0629 5.45289C17.342 5.19511 17.4642 4.90978 17.514 4.76667L17.5331 4.748Z" fill="#D08225"/>
<path d="M17.7559 5.35334C17.7546 5.368 17.7532 5.38267 17.7515 5.39778C17.7457 5.44 17.7363 5.48045 17.7243 5.51956C17.6483 5.76889 17.4639 5.92356 17.4417 5.94178C17.395 5.97956 17.2475 6.096 17.031 6.12578C17.0252 6.12667 17.0199 6.128 17.0146 6.12845C16.9768 6.13289 16.9377 6.13511 16.8972 6.13334C16.8755 6.03467 16.9012 5.92489 16.9661 5.84756C17.0395 5.75867 17.1599 5.71245 17.2737 5.72845C17.2781 5.59822 17.351 5.47334 17.4608 5.40445C17.547 5.35067 17.6555 5.332 17.7559 5.35334Z" fill="white"/>
<path d="M17.2228 19.0533C17.2255 19.0529 17.2282 19.052 17.2308 19.0507C17.3099 19.0124 17.3837 18.972 17.4166 18.8973C17.4531 18.8156 17.4228 18.7267 17.3926 18.6582C17.3437 18.5489 17.2806 18.4444 17.2193 18.3427C17.1055 18.1547 16.9984 17.9769 16.9739 17.7716C16.9717 17.7538 16.9557 17.7413 16.9384 17.7436C16.9224 17.7462 16.9082 17.7618 16.9104 17.7791C16.9366 17.9982 17.0526 18.1902 17.1646 18.3756C17.2251 18.4751 17.2873 18.5782 17.3344 18.684C17.3593 18.74 17.3846 18.812 17.3584 18.8707C17.3339 18.9253 17.2708 18.9596 17.2033 18.9924C17.1873 19 17.1806 19.0191 17.1886 19.0351C17.1944 19.0489 17.2086 19.056 17.2228 19.0533Z" fill="#2F1615"/>
<path d="M16.2373 19.6124C16.2631 19.6053 17.9111 19.4373 17.9111 19.4373C17.9111 19.4373 17.7573 20.1364 17.1449 20.2004C16.5324 20.2649 16.2373 19.6124 16.2373 19.6124Z" fill="#D44F43"/>
<path d="M16.5653 19.756C16.6168 19.7818 17.4751 19.7 17.5915 19.6542C17.6422 19.6342 17.6408 19.5622 17.6546 19.4631C17.328 19.4964 16.7697 19.5538 16.46 19.5871C16.4884 19.6507 16.5328 19.7396 16.5653 19.756Z" fill="white"/>
<path d="M17.1446 20.2004C17.3392 20.18 17.4877 20.0956 17.5997 19.9893C17.1961 19.8542 16.8655 20.0169 16.7588 20.1418C16.869 20.1902 16.9979 20.216 17.1446 20.2004Z" fill="#E46F60"/>
<path d="M35.3867 18.4844C35.4112 18.4849 36.9187 18.7556 36.9187 18.7556C36.9187 18.7556 36.6036 19.3373 36.0432 19.2382C35.4827 19.1391 35.3867 18.4844 35.3867 18.4844Z" fill="#D44F43"/>
<path d="M35.641 18.6956C35.6802 18.7316 36.4633 18.8778 36.5788 18.8671C36.629 18.8622 36.6459 18.7978 36.6837 18.7133C36.385 18.66 35.8744 18.5684 35.5908 18.5187C35.5997 18.5822 35.6166 18.6729 35.641 18.6956Z" fill="white"/>
<path d="M36.0428 19.2382C36.2211 19.2698 36.3744 19.2324 36.5011 19.1667C36.1771 18.944 35.8415 19.004 35.7148 19.0876C35.8011 19.1587 35.9086 19.2147 36.0428 19.2382Z" fill="#E46F60"/>
<path d="M36.1558 18.1671C36.1531 18.1667 36.1505 18.1658 36.1478 18.1644C36.0687 18.1262 35.9949 18.0858 35.962 18.0111C35.9256 17.9293 35.9558 17.8404 35.986 17.772C36.0349 17.6627 36.098 17.5582 36.1593 17.4564C36.2727 17.2684 36.3802 17.0907 36.4047 16.8853C36.4069 16.868 36.4229 16.8551 36.4402 16.8573C36.4562 16.86 36.4705 16.8756 36.4682 16.8929C36.442 17.112 36.326 17.304 36.214 17.4893C36.1536 17.5889 36.0913 17.692 36.0442 17.7978C36.0193 17.8538 35.994 17.9258 36.0202 17.9844C36.0447 18.0391 36.1078 18.0733 36.1753 18.1062C36.1913 18.1138 36.198 18.1329 36.19 18.1489C36.1838 18.1631 36.1696 18.1698 36.1558 18.1671Z" fill="#2F1615"/>
<path d="M39.8008 18.2698C39.8906 18.4111 40.0568 18.4378 40.1826 18.4009C40.3315 18.3578 40.4261 18.2378 40.4243 18.0956C40.4217 17.8933 40.2852 17.7947 40.1946 17.752C40.2843 17.7351 40.3648 17.7458 40.4346 17.784C40.5906 17.8698 40.6417 18.0658 40.6421 18.068C40.6457 18.0818 40.6595 18.0898 40.6732 18.0867C40.687 18.0831 40.695 18.0693 40.6919 18.0556C40.6897 18.0467 40.635 17.8356 40.4595 17.7396C40.3581 17.684 40.2377 17.6787 40.1026 17.724L40.0159 17.7529L40.1052 17.7729C40.1159 17.7751 40.371 17.8356 40.3741 18.0964C40.3759 18.2404 40.2648 18.324 40.1688 18.352C40.0683 18.3813 39.923 18.3689 39.8421 18.2391C39.835 18.2271 39.819 18.2236 39.807 18.2307C39.795 18.2382 39.7915 18.2538 39.7986 18.2658C39.7995 18.2671 39.7999 18.2684 39.8008 18.2698Z" fill="#C8A399"/>
<path d="M13.8889 19.1222C13.7991 19.2636 13.6329 19.2902 13.5071 19.2533C13.3582 19.2102 13.2635 19.0902 13.2653 18.948C13.268 18.7458 13.4044 18.6471 13.4951 18.6044C13.4053 18.5876 13.3249 18.5982 13.2551 18.6364C13.0991 18.7222 13.048 18.9182 13.0475 18.9204C13.044 18.9342 13.0302 18.9422 13.0164 18.9391C13.0026 18.9356 12.9946 18.9218 12.9977 18.908C13 18.8991 13.0546 18.688 13.2302 18.592C13.3315 18.5364 13.452 18.5311 13.5871 18.5764L13.6737 18.6053L13.5844 18.6253C13.5737 18.6276 13.3186 18.688 13.3155 18.9489C13.3137 19.0929 13.4249 19.1764 13.5209 19.2044C13.6213 19.2338 13.7666 19.2213 13.8475 19.0916C13.8546 19.0796 13.8706 19.076 13.8826 19.0831C13.8946 19.0907 13.8982 19.1062 13.8911 19.1182C13.8906 19.1196 13.8897 19.1209 13.8889 19.1222Z" fill="#E0B29A"/>
</g>
</g>
<defs>
<clipPath id="clip0_1141_47609">
<rect width="48" height="48" rx="24" fill="white"/>
</clipPath>
<clipPath id="clip1_1141_47609">
<rect width="48" height="48" fill="white"/>
</clipPath>
</defs>
</svg>
