<svg width="48" height="48" viewBox="0 0 48 48" fill="none" xmlns="http://www.w3.org/2000/svg">
<g clip-path="url(#clip0_1141_45002)">
<rect width="48" height="48" rx="24" fill="white"/>
<g clip-path="url(#clip1_1141_45002)">
<path opacity="0.44" d="M31.6933 7.66622C31.7435 8.38978 31.0973 9.03467 30.2501 9.10711C29.4026 9.17911 28.675 8.65111 28.6248 7.92711C28.5746 7.20311 29.2208 6.55867 30.0679 6.48622C30.9155 6.41467 31.643 6.94267 31.6933 7.66622Z" fill="#F8DF88"/>
<path opacity="0.44" d="M17.3744 22.5431C20.4811 22.5431 22.9997 20.4747 22.9997 17.9231C22.9997 15.3716 20.4811 13.3031 17.3744 13.3031C14.2676 13.3031 11.749 15.3716 11.749 17.9231C11.749 20.4747 14.2676 22.5431 17.3744 22.5431Z" fill="#F8DF88"/>
<path opacity="0.44" d="M42.057 29.4364C42.8479 29.4364 43.489 28.8186 43.489 28.0564C43.489 27.2943 42.8479 26.6764 42.057 26.6764C41.2661 26.6764 40.625 27.2943 40.625 28.0564C40.625 28.8186 41.2661 29.4364 42.057 29.4364Z" fill="#F8DF88"/>
<path opacity="0.44" d="M18.2937 42.4756C21.1817 43.2996 22.8257 46.2262 21.9728 49.0031C21.8643 49.3564 21.7194 49.6924 21.5408 50.0058L14.0897 51.2178C13.0154 50.9111 10.6474 49.8476 9.60254 49.4898C9.63498 49.1613 11.4185 46.3493 11.5194 46.0204C12.3728 43.2436 15.4057 41.6516 18.2937 42.4756Z" fill="#F8DF88"/>
<g opacity="0.27">
<path d="M27.6494 42.3653C27.7356 42.3627 27.8085 42.4178 27.812 42.4893C27.8156 42.5604 27.748 42.6204 27.6618 42.6231C27.5756 42.6258 27.5027 42.5707 27.4992 42.4991C27.4956 42.428 27.5627 42.3684 27.6494 42.3653Z" fill="#F8DF88"/>
<path d="M36.3402 42.6409C36.4806 42.6409 36.5944 42.547 36.5944 42.4311C36.5944 42.3153 36.4806 42.2213 36.3402 42.2213C36.1998 42.2213 36.0859 42.3153 36.0859 42.4311C36.0859 42.547 36.1998 42.6409 36.3402 42.6409Z" fill="#F8DF88"/>
<path d="M36.9262 17.3564L36.6289 18.2476L36.936 18.2996L37.4565 17.6116L36.9262 17.3564Z" fill="#F8DF88"/>
<path d="M32.0928 11.8462L33.0994 12.2538L33.2185 12.0151L32.4959 11.4649L32.0928 11.8462Z" fill="#F8DF88"/>
<path d="M28.1543 3.33333L29.2481 3.53511L29.2965 3.28045L28.4379 2.88445L28.1543 3.33333Z" fill="#F8DF88"/>
<path d="M36.834 24.8262L37.9278 25.0284L37.9762 24.7733L37.1175 24.3778L36.834 24.8262Z" fill="#F8DF88"/>
<path d="M37.9209 11.5969L38.6796 11.5822L38.76 11.428L38.2067 11.3018L37.9209 11.5969Z" fill="#F8DF88"/>
<path d="M35.2568 5.15911L35.8102 5.96266L36.0719 5.82089L35.8506 5.03111L35.2568 5.15911Z" fill="#F8DF88"/>
<path d="M29.4556 7.74444C29.5187 7.79333 29.6178 7.79066 29.6769 7.73866C29.736 7.68666 29.7329 7.60533 29.6698 7.55644C29.6067 7.50755 29.5076 7.51022 29.4484 7.56222C29.3893 7.61422 29.3929 7.69555 29.4556 7.74444Z" fill="#F8DF88"/>
<path d="M32.9597 45.7289C33.0459 45.7262 33.1135 45.6662 33.1099 45.5951C33.1063 45.524 33.0339 45.4684 32.9472 45.4711C32.861 45.4738 32.7935 45.5338 32.797 45.6049C32.8006 45.6764 32.8735 45.732 32.9597 45.7289Z" fill="#F8DF88"/>
<path d="M27.4043 11.7907L28.479 12.0547L28.5483 11.8031L27.7252 11.3596L27.4043 11.7907Z" fill="#F8DF88"/>
<path d="M32.7783 1.04711L33.8805 1.21778L33.9179 0.961334L33.0428 0.590668L32.7783 1.04711Z" fill="#F8DF88"/>
<path d="M32.3661 41.188L33.287 40.6609L33.0919 40.4587L32.1572 40.7124L32.3661 41.188Z" fill="#F8DF88"/>
<path d="M17.5537 36.1116L18.5599 36.5191L18.6795 36.2804L17.9568 35.7302L17.5537 36.1116Z" fill="#F8DF88"/>
<path d="M37.9648 37.9689L39.0586 38.1711L39.1071 37.916L38.2484 37.5204L37.9648 37.9689Z" fill="#F8DF88"/>
<path d="M36.9863 31.7196L37.745 31.7049L37.8254 31.5511L37.2721 31.4249L36.9863 31.7196Z" fill="#F8DF88"/>
<path d="M22.6484 26.3058L23.2018 27.1089L23.4635 26.9671L23.2422 26.1773L22.6484 26.3058Z" fill="#F8DF88"/>
<path d="M22.8854 7.47022C22.9485 7.51911 23.0476 7.51644 23.1067 7.46444C23.1659 7.41244 23.1627 7.33111 23.0996 7.28222C23.0365 7.23333 22.9374 7.236 22.8783 7.288C22.8192 7.33956 22.8223 7.42133 22.8854 7.47022Z" fill="#F8DF88"/>
<path d="M13.3389 2.71778L14.4135 2.98178L14.4833 2.73022L13.6598 2.28667L13.3389 2.71778Z" fill="#F8DF88"/>
<path d="M22.2803 33.0133L23.3821 33.184L23.4198 32.9276L22.5447 32.5569L22.2803 33.0133Z" fill="#F8DF88"/>
<path d="M40.1174 15.4138C40.2038 15.4138 40.2738 15.3561 40.2738 15.2849C40.2738 15.2137 40.2038 15.156 40.1174 15.156C40.031 15.156 39.9609 15.2137 39.9609 15.2849C39.9609 15.3561 40.031 15.4138 40.1174 15.4138Z" fill="#F8DF88"/>
<path d="M41.706 22.724C41.7922 22.7213 41.8651 22.7764 41.8687 22.848C41.8722 22.9196 41.8047 22.9791 41.7185 22.9818C41.6322 22.9844 41.5594 22.9293 41.5558 22.8578C41.5522 22.7862 41.6198 22.7267 41.706 22.724Z" fill="#F8DF88"/>
<path d="M46.3643 24.8427C46.5048 24.8382 46.623 24.928 46.6283 25.044C46.6337 25.1596 46.5243 25.2573 46.3843 25.2618C46.2439 25.2662 46.1257 25.1764 46.1203 25.0604C46.1146 24.9444 46.2239 24.8471 46.3643 24.8427Z" fill="#F8DF88"/>
<path d="M41.2689 27.5293L42.0222 26.8449L41.7769 26.6844L40.9355 27.1044L41.2689 27.5293Z" fill="#F8DF88"/>
<path d="M42.9238 20.3702L44.0181 20.5724L44.0665 20.3173L43.2078 19.9218L42.9238 20.3702Z" fill="#F8DF88"/>
<path d="M42.0922 31.344L42.5464 31.984L42.322 32.0769L41.7451 31.6324L42.0922 31.344Z" fill="#F8DF88"/>
<path d="M47.0905 44.6871C47.1768 44.6844 47.2443 44.6244 47.2408 44.5533C47.2372 44.4822 47.1648 44.4267 47.0781 44.4293C46.9919 44.432 46.9243 44.492 46.9279 44.5631C46.9314 44.6342 47.0039 44.6898 47.0905 44.6871Z" fill="#F8DF88"/>
<path d="M45.0263 3.844L45.9472 3.31689L45.7521 3.11511L44.8174 3.36844L45.0263 3.844Z" fill="#F8DF88"/>
<path d="M11.0264 29.3618L12.2975 29.5969L12.3539 29.3004L11.3561 28.8404L11.0264 29.3618Z" fill="#F8DF88"/>
<path d="M19.6409 28.488C19.7813 28.488 19.8952 28.3941 19.8952 28.2782C19.8952 28.1624 19.7813 28.0684 19.6409 28.0684C19.5005 28.0684 19.3867 28.1624 19.3867 28.2782C19.3867 28.3941 19.5005 28.488 19.6409 28.488Z" fill="#F8DF88"/>
<path d="M17.7653 31.936C17.8516 31.9333 17.9191 31.8733 17.9156 31.8022C17.912 31.7311 17.8396 31.6756 17.7529 31.6782C17.6667 31.6809 17.5991 31.7409 17.6027 31.812C17.6062 31.8836 17.6791 31.9391 17.7653 31.936Z" fill="#F8DF88"/>
<path d="M16.3968 25.704L17.3173 25.1769L17.1222 24.9747L16.1875 25.2284L16.3968 25.704Z" fill="#F8DF88"/>
<path d="M15.3816 41.4524C15.4678 41.4498 15.5353 41.3898 15.5318 41.3187C15.5282 41.2476 15.4558 41.192 15.3691 41.1947C15.2829 41.1973 15.2153 41.2573 15.2189 41.3284C15.2224 41.4 15.2953 41.4556 15.3816 41.4524Z" fill="#F8DF88"/>
<path d="M3.39582 32.3609C3.53623 32.3609 3.65005 32.267 3.65005 32.1511C3.65005 32.0353 3.53623 31.9413 3.39582 31.9413C3.25542 31.9413 3.1416 32.0353 3.1416 32.1511C3.1416 32.267 3.25542 32.3609 3.39582 32.3609Z" fill="#F8DF88"/>
<path d="M-0.851562 1.56622L0.15466 1.97378L0.274215 1.73511L-0.448451 1.18489L-0.851562 1.56622Z" fill="#F8DF88"/>
<path d="M11.3252 41.5182L12.419 41.7204L12.4674 41.4653L11.6088 41.0698L11.3252 41.5182Z" fill="#F8DF88"/>
<path d="M4.33077 36.5351C4.41699 36.5324 4.48455 36.4724 4.48099 36.4013C4.47744 36.3302 4.40499 36.2747 4.31833 36.2773C4.2321 36.28 4.16455 36.34 4.1681 36.4111C4.17166 36.4822 4.24455 36.5378 4.33077 36.5351Z" fill="#F8DF88"/>
<path d="M2.21422 35.3938L3.13466 34.8667L2.93955 34.6649L2.00488 34.9182L2.21422 35.3938Z" fill="#F8DF88"/>
<path d="M13.6094 33.1311L14.7032 33.3333L14.7516 33.0782L13.8929 32.6827L13.6094 33.1311Z" fill="#F8DF88"/>
<path d="M7.57422 24.8093L8.33244 24.7947L8.41289 24.6409L7.86 24.5147L7.57422 24.8093Z" fill="#F8DF88"/>
<path d="M7.16693 4.876C7.25315 4.87333 7.32604 4.92845 7.32959 5C7.33315 5.07111 7.26559 5.13111 7.17937 5.13378C7.09315 5.13645 7.02026 5.08133 7.01671 5.00978C7.01359 4.93867 7.08071 4.87867 7.16693 4.876Z" fill="#F8DF88"/>
<path d="M8.76165 12.444C8.84788 12.4413 8.92077 12.4964 8.92432 12.568C8.92788 12.6391 8.86032 12.6991 8.7741 12.7018C8.68788 12.7044 8.61499 12.6493 8.61143 12.5778C8.60832 12.5067 8.67543 12.4467 8.76165 12.444Z" fill="#F8DF88"/>
<path d="M8.32499 17.2493L9.07788 16.5649L8.83299 16.4044L7.99121 16.8244L8.32499 17.2493Z" fill="#F8DF88"/>
<path d="M9.14789 21.064L9.60256 21.704L9.37767 21.7969L8.80078 21.3524L9.14789 21.064Z" fill="#F8DF88"/>
</g>
<g opacity="0.27">
<path d="M11.0262 37.7036C10.9787 37.7036 10.9404 37.6667 10.9404 37.6209V33.9031C10.9404 33.8573 10.9787 33.8204 11.0262 33.8204C11.0738 33.8204 11.112 33.8573 11.112 33.9031V37.6209C11.112 37.6667 11.0738 37.7036 11.0262 37.7036Z" fill="#F8DF88"/>
<path d="M9.66206 37.1591C9.64028 37.1591 9.61806 37.1511 9.60117 37.1347C9.56784 37.1022 9.56784 37.0498 9.60117 37.0178L12.3292 34.3889C12.3625 34.3564 12.4172 34.3564 12.4505 34.3889C12.4838 34.4213 12.4838 34.4738 12.4505 34.5058L9.72206 37.1347C9.70606 37.1511 9.68384 37.1591 9.66206 37.1591Z" fill="#F8DF88"/>
<path d="M12.9557 35.8449H9.0975C9.04994 35.8449 9.01172 35.808 9.01172 35.7622C9.01172 35.7164 9.04994 35.6796 9.0975 35.6796H12.9557C13.0033 35.6796 13.0415 35.7164 13.0415 35.7622C13.0415 35.8076 13.0028 35.8449 12.9557 35.8449Z" fill="#F8DF88"/>
<path d="M12.3901 37.1591C12.3683 37.1591 12.3461 37.1511 12.3292 37.1347L9.60117 34.5058C9.56784 34.4733 9.56784 34.4209 9.60117 34.3889C9.63451 34.3569 9.68917 34.3564 9.72251 34.3889L12.4509 37.0178C12.4843 37.0502 12.4843 37.1027 12.4509 37.1347C12.4341 37.1511 12.4123 37.1591 12.3901 37.1591Z" fill="#F8DF88"/>
</g>
<path d="M15.8041 10.0164L15.7454 10.2649L15.6858 10.524C15.6467 10.6978 15.6085 10.872 15.5716 11.0467C15.4974 11.396 15.4276 11.7467 15.3627 12.0969C15.2325 12.7973 15.1205 13.4973 15.0365 14.188C14.9529 14.8778 14.8956 15.5627 14.8912 16.2053C14.8898 16.3662 14.8929 16.5227 14.8996 16.6747C14.9058 16.8267 14.9169 16.9738 14.9329 17.1111C14.9489 17.248 14.9698 17.3764 14.9952 17.4862C15.0201 17.5956 15.0507 17.6871 15.0761 17.7369C15.0792 17.7427 15.0823 17.7502 15.0849 17.7547C15.0881 17.7582 15.0907 17.7613 15.0929 17.7649C15.0978 17.7751 15.1014 17.7711 15.1036 17.7729L15.1045 17.7733C15.1041 17.7724 15.1058 17.7756 15.1072 17.7778L15.1112 17.7849L15.1267 17.8138L15.1578 17.8716L15.2201 17.9871C15.2609 18.064 15.3032 18.1409 15.3463 18.2178L15.4747 18.4484C15.6485 18.7556 15.8294 19.0618 16.0143 19.3676C16.2009 19.6729 16.3916 19.9769 16.5872 20.28C16.7836 20.5827 16.9836 20.8844 17.1876 21.1849C17.5969 21.7849 18.0201 22.3804 18.4565 22.9671C18.6747 23.2604 18.8956 23.552 19.1192 23.84C19.2307 23.984 19.3432 24.1271 19.4556 24.2684L19.6241 24.4782L19.7072 24.5804L19.7476 24.6298L19.7672 24.6533C19.7734 24.6609 19.7805 24.6693 19.7832 24.672C20.8245 25.6858 20.7592 27.2702 19.6365 28.2107C18.5138 29.1516 16.7596 29.092 15.7183 28.0782C15.5943 27.9578 15.4863 27.8289 15.3934 27.6942L15.2254 27.4458L15.1761 27.3729L15.1325 27.3071L15.0481 27.1787L14.8836 26.9249C14.7756 26.7564 14.6694 26.5884 14.5645 26.4204C14.3547 26.0844 14.1498 25.748 13.9481 25.4098C13.5449 24.7338 13.1574 24.0507 12.7832 23.3587C12.5965 23.0124 12.4138 22.6636 12.2347 22.3129C12.0561 21.9613 11.8818 21.6071 11.7116 21.2498C11.5427 20.8916 11.3774 20.5311 11.2183 20.1658L11.1005 19.8907C11.0614 19.7991 11.0223 19.7071 10.9849 19.6142L10.8641 19.3191C10.8303 19.2347 10.7943 19.1462 10.7698 19.068L10.7303 18.9471C10.7183 18.908 10.7085 18.8707 10.6978 18.832C10.6147 18.5267 10.5729 18.2551 10.5463 17.9991C10.5201 17.7436 10.5107 17.5044 10.5098 17.2738C10.5089 17.0431 10.5174 16.8213 10.5312 16.6058C10.5454 16.3898 10.5641 16.1782 10.5881 15.9716C10.6832 15.144 10.8352 14.3658 11.0098 13.6013C11.1854 12.8378 11.3867 12.0916 11.6054 11.3533C11.7147 10.984 11.8285 10.6169 11.9467 10.2507C12.0058 10.0676 12.0663 9.88489 12.1281 9.70178L12.2223 9.42622L12.3223 9.14089C12.6236 8.28089 13.6396 7.804 14.5921 8.076C15.4863 8.33155 16.0063 9.156 15.8174 9.96755L15.8041 10.0164Z" fill="#F8DF88"/>
<path d="M15.8266 8.83156C15.8266 8.83156 14.4555 9.83022 13.2938 9.26933C12.356 8.816 12.2911 7.56089 12.3009 7.09467C12.3031 6.98311 12.3098 6.91733 12.3098 6.91733C12.3098 6.91733 12.2471 6.87644 12.1626 6.80622C11.964 6.64178 11.6435 6.316 11.7249 5.98C11.8404 5.50089 12.7809 5.86978 12.7809 5.86978C12.7809 5.86978 12.7058 5.26933 13.0151 5.12667C13.3191 4.98622 13.8622 5.34444 13.8622 5.34444C13.8622 5.34444 12.9022 2.83911 13.3542 2.70933C14.0338 2.51467 14.8742 5.17467 14.8938 5.23511C14.8946 5.17022 14.9218 2.43689 15.4186 2.62755C15.852 2.79378 15.9853 5.09422 16.0133 5.71956C16.0178 5.81867 16.0195 5.87511 16.0195 5.87511C16.0195 5.87511 16.0555 5.87778 16.116 5.88578C16.4035 5.92222 17.2431 6.07733 17.332 6.62622C17.4391 7.28978 15.8266 8.83156 15.8266 8.83156Z" fill="#FAD2C3"/>
<path d="M14.6053 6.80178C14.5813 6.85511 14.5262 6.924 14.4013 6.94667C14.1355 6.99422 13.796 6.82711 13.544 6.66711C13.6209 6.88578 13.6462 7.11911 13.5755 7.27644C13.5298 7.37733 13.4484 7.44133 13.34 7.46089C13.2649 7.47466 13.1711 7.46355 13.0684 7.43733C12.812 7.37155 12.5022 7.20933 12.3013 7.09422C12.3035 6.98267 12.3102 6.91689 12.3102 6.91689C12.3102 6.91689 12.2475 6.876 12.1631 6.80578C12.1818 6.80667 12.2 6.81244 12.2164 6.82267C12.5258 7.01955 13.0938 7.31867 13.3004 7.28133C13.3275 7.27644 13.3622 7.26311 13.3875 7.20755C13.4653 7.03467 13.3644 6.64133 13.1804 6.39911C13.1511 6.36044 13.1582 6.30844 13.1973 6.27778C13.2369 6.24667 13.2951 6.248 13.3329 6.27955C13.5169 6.43378 14.06 6.82089 14.3609 6.76667C14.4044 6.75867 14.4124 6.74178 14.4164 6.73289C14.472 6.60889 14.2591 6.24044 14.0973 6.03067C14.0653 5.98889 14.0764 5.932 14.1226 5.90311C14.1689 5.87422 14.232 5.88444 14.2644 5.92622C14.3418 6.02667 14.7213 6.54044 14.6053 6.80178Z" fill="#C8A399"/>
<path d="M16.5025 7.224C16.4767 7.224 16.0803 7.22 15.7069 7.124C15.5003 7.07066 15.3003 6.98933 15.1749 6.86444C15.0714 6.76178 15.026 6.64 15.0394 6.50311C15.0878 6.01778 15.6696 5.80355 16.0127 5.71911C16.0172 5.81822 16.0189 5.87466 16.0189 5.87466C16.0189 5.87466 16.0549 5.87733 16.1154 5.88533C15.8274 5.95066 15.2803 6.12622 15.2416 6.51955C15.2332 6.604 15.2603 6.67644 15.3252 6.74089C15.5674 6.98222 16.258 7.03911 16.5038 7.04044C16.5598 7.04044 16.6056 7.08178 16.6047 7.13289C16.6047 7.18311 16.5585 7.224 16.5025 7.224Z" fill="#C8A399"/>
<path d="M14.1187 8.74578C14.0849 8.73733 14.0574 8.71289 14.0481 8.68C14.0343 8.63111 14.0672 8.58089 14.1214 8.56844C14.4143 8.50089 14.6241 8.36 14.7441 8.14933C15.0521 7.60933 14.7032 6.78222 14.6996 6.77378C14.6792 6.72667 14.7054 6.67333 14.7578 6.65511C14.8103 6.63689 14.8689 6.66044 14.8894 6.70755C14.9054 6.74444 15.2743 7.62089 14.9249 8.23333C14.7769 8.49289 14.5236 8.66533 14.1716 8.74622C14.1534 8.75066 14.1356 8.75022 14.1187 8.74578Z" fill="#C8A399"/>
<path d="M13.1221 23.98C13.1221 23.98 15.6963 24.8573 18.6012 23.1636L19.0012 24.94L15.3203 27.5889L13.1221 23.98Z" fill="#EDCF7C"/>
<path d="M21.5566 25.308L21.862 25.5409C25.6686 25.4311 29.2349 25.1458 32.0522 22.5867C33.4389 21.3271 34.0113 19.2969 34.2473 17.8156C34.502 16.2187 34.4309 14.8969 34.4304 14.8836L34.1642 14.896C34.1651 14.9089 34.2344 16.2111 33.9829 17.7858C33.7522 19.2298 33.1975 21.2049 31.8638 22.4164C29.0455 24.9751 25.4198 25.2044 21.5566 25.308Z" fill="#D4C096"/>
<path d="M39.3382 10.1649C39.1258 11.5138 38.3298 12.64 37.256 13.3093C36.7569 13.6204 36.2951 13.9809 35.8587 14.368C35.5982 14.5991 35.2862 14.8044 34.9347 14.9053C34.8698 14.924 34.8036 14.9391 34.736 14.9502C34.7618 15.0302 34.7702 15.1178 34.7231 15.1849C34.6907 15.2316 34.6342 15.2662 34.5702 15.292C34.3405 15.3853 34.0676 15.3498 33.876 15.2027C33.8227 15.1618 33.7796 15.1142 33.7627 15.0613C33.7382 14.9849 33.7733 14.9027 33.8227 14.8324C33.4285 14.6551 33.1364 14.3311 32.9244 13.9898C32.6249 13.5076 32.2925 13.0444 31.9089 12.6196C31.0836 11.7053 30.6667 10.4231 30.8791 9.07378C31.2276 6.85778 33.1507 5.24267 35.296 5.26756C35.4587 5.26933 35.6227 5.28089 35.7876 5.30222C38.1236 5.60356 39.7133 7.78045 39.3382 10.1649Z" fill="#E1C361"/>
<g opacity="0.33">
<path d="M34.736 14.9502C34.7618 15.0302 34.7702 15.1178 34.7231 15.1849C34.6907 15.2316 34.6342 15.2662 34.5702 15.292C34.3405 15.3853 34.0676 15.3498 33.876 15.2027C33.8227 15.1618 33.7796 15.1142 33.7627 15.0613C33.7382 14.9849 33.7733 14.9027 33.8227 14.8324C33.4285 14.6551 33.1364 14.3311 32.9244 13.9898C32.6249 13.5076 32.2925 13.0444 31.9089 12.6196C31.0836 11.7053 30.6667 10.4231 30.8791 9.07378C31.2276 6.85778 33.1507 5.24267 35.296 5.26756C35.296 5.26756 32.4662 5.96222 32.228 8.96711C32.0551 11.1502 33.6209 13.704 34.9342 14.9049C34.8698 14.924 34.8036 14.9391 34.736 14.9502Z" fill="#DA4444"/>
</g>
<g opacity="0.27">
<path d="M38.5458 10.7938C38.7405 9.96 38.708 9.08578 38.3365 8.29467C37.9765 7.52845 37.3338 6.80311 36.4698 6.47333C35.3894 6.06089 34.2658 6.34222 33.3369 6.91022C34.0258 5.71422 35.7325 5.25733 37.0707 5.96756C37.324 6.10178 37.5849 6.26889 37.8462 6.47556C39.3729 7.68489 39.3249 10.1787 38.6071 11.3836C38.428 11.6849 38.2245 11.9778 38.0089 12.2444C38.24 11.7778 38.4289 11.2947 38.5458 10.7938Z" fill="white"/>
</g>
<path d="M16.2959 25.4156C18.4443 27.0404 26.0301 27.7862 28.0088 27.0862C27.403 25.112 28.3475 19.8649 28.4301 18.3987C28.5661 18.1347 29.0719 16.2444 27.5039 14.9387C25.799 13.5191 23.8941 13.4267 22.2097 14.2324C20.8626 14.9551 20.3759 15.8262 19.799 18.2796C19.4381 19.8147 17.4066 24.8067 16.2959 25.4156Z" fill="#22120E"/>
<path d="M26.3838 46.1484C26.3838 46.1484 33.614 55.9191 35.7998 57.5791C35.7998 57.5791 34.5745 59.7667 34.2411 62.6236C33.9687 64.9582 31.9705 70.3595 31.9705 70.3595L35.1611 71.9573C35.1611 71.9573 42.3327 60.1756 41.802 56.6187C41.5229 54.7471 32.3336 42.6724 32.3336 42.6724L26.3838 46.1484Z" fill="#D0B764"/>
<path d="M32.791 69.9676C32.7803 69.9671 32.7697 69.9658 32.7594 69.9622C32.7061 69.9453 32.6781 69.8924 32.6968 69.8444C32.7163 69.7942 34.6603 64.7853 34.9643 62.1573C35.2412 59.7636 36.5443 57.7729 36.815 57.3809C33.6679 54.9547 27.959 46.3596 27.9012 46.2724C27.8723 46.2284 27.8879 46.172 27.9363 46.1458C27.9848 46.1196 28.0479 46.1338 28.0768 46.1778C28.1346 46.2653 33.9097 54.9604 37.0146 57.2916C37.055 57.3218 37.0634 57.3747 37.0346 57.4138C37.019 57.4351 35.4701 59.5622 35.1679 62.1769C34.8612 64.8262 32.9092 69.8556 32.8897 69.9062C32.875 69.9444 32.8341 69.9684 32.791 69.9676Z" fill="white"/>
<path d="M27.1618 46.5991C27.0031 46.6676 26.8426 46.7347 26.6817 46.8004C24.6222 47.6404 21.6324 50.3644 20.5311 49.2822C20.2809 49.0364 19.2164 47.4538 18.6809 46.5773C18.5346 46.3382 18.4004 46.0889 18.2782 45.8418C17.7511 44.7742 17.5938 43.7484 17.5938 43.7484L29.3706 38.6827C29.3706 38.6827 29.904 39.2347 30.524 39.9689C30.9729 40.5 31.4675 41.1267 31.8382 41.708C31.8386 41.7084 31.8391 41.7093 31.8395 41.7093C32.0609 42.0569 32.2378 42.3884 32.3342 42.6729C32.6413 43.5827 30.144 45.3129 27.1618 46.5991Z" fill="#D0B764"/>
<path d="M31.4623 42.7249C30.0951 42.6956 29.288 41.6587 29.2787 41.6467C29.2467 41.6044 29.2587 41.5471 29.3049 41.5182C29.3516 41.4893 29.4151 41.5 29.4471 41.5422C29.4889 41.5969 30.4925 42.88 32.1827 42.4573C32.2374 42.4436 32.2934 42.4724 32.3085 42.5218C32.3236 42.5711 32.2916 42.6218 32.2374 42.6356C31.9627 42.7036 31.7036 42.7298 31.4623 42.7249Z" fill="white"/>
<path d="M26.9076 46.7116C26.8801 46.7111 26.8525 46.7004 26.833 46.68C26.7956 46.6418 26.8001 46.5831 26.8427 46.5498C26.8547 46.5404 28.0205 45.5853 27.7681 43.4582C27.7623 43.4076 27.8027 43.3618 27.8587 43.3564C27.9152 43.3507 27.9654 43.388 27.9716 43.4387C28.2365 45.6676 27.029 46.6489 26.9779 46.6893C26.9574 46.7044 26.9321 46.712 26.9076 46.7116Z" fill="white"/>
<path d="M32.0475 58.8511L31.9653 58.5862L31.8924 58.3516L31.8182 58.1227L31.7435 57.8947L31.6675 57.6707L31.5915 57.4467L31.5142 57.2262C31.3044 56.64 31.088 56.0667 30.8653 55.5004C30.4142 54.3702 29.9449 53.2622 29.4453 52.1693C28.9475 51.076 28.4297 49.9951 27.8849 48.9262L27.4711 48.1271C27.3302 47.8618 27.1911 47.596 27.0462 47.3324C26.9035 47.068 26.7569 46.8049 26.6093 46.5422L26.384 46.1489L26.2693 45.9524L26.1502 45.7533C25.3746 44.4507 23.6391 43.8213 22.052 44.3378C20.3053 44.9062 19.4 46.6458 20.0293 48.2231L20.0391 48.2476L20.1182 48.4462L20.2009 48.6476L20.3693 49.0511C20.4835 49.3196 20.5977 49.5884 20.7151 49.856C20.8302 50.1244 20.9502 50.3911 21.0675 50.6587L21.4257 51.4587C21.9066 52.524 22.3995 53.5827 22.8933 54.6364L24.3666 57.776C24.4751 58.0067 24.5817 58.2369 24.6875 58.4662C24.564 58.484 24.4395 58.5013 24.3133 58.5178C24.0262 58.5551 23.7342 58.5929 23.4377 58.6249C22.8449 58.6889 22.2382 58.7489 21.6249 58.7991C20.3977 58.904 19.1453 58.9867 17.8857 59.068L15.9893 59.1889L15.0386 59.2507L14.564 59.2836L14.3275 59.3004L14.2137 59.3098C14.168 59.9418 14.0329 60.5751 13.964 61.1982C13.8969 61.8031 13.8235 62.4076 13.7422 63.0111C13.7529 63.0133 13.7635 63.016 13.7742 63.0182L14.0266 63.0689L14.272 63.1164C14.4351 63.148 14.5982 63.1769 14.7609 63.2067C15.0866 63.264 15.4124 63.3196 15.7386 63.3707C16.3911 63.4751 17.0449 63.5662 17.7017 63.6498C19.016 63.8147 20.3395 63.9409 21.688 64.0213C22.3626 64.0587 23.0431 64.0889 23.7369 64.0951C24.0835 64.0991 24.4337 64.1009 24.7893 64.0938C25.1444 64.0862 25.5049 64.0738 25.8742 64.0529C26.244 64.0324 26.6222 64.0022 27.0182 63.9547C27.416 63.9067 27.8289 63.8462 28.2911 63.7453C28.5226 63.6942 28.768 63.6333 29.0369 63.5476C29.3057 63.4618 29.6049 63.352 29.9511 63.1818C30.1284 63.0924 30.3173 62.988 30.5231 62.8502C30.7324 62.7084 30.9604 62.5329 31.1977 62.2911C31.4333 62.0507 31.6813 61.7356 31.8751 61.3391C31.9235 61.2378 31.968 61.1382 32.0075 61.0307C32.0466 60.9227 32.0822 60.8147 32.1102 60.7031C32.1675 60.4796 32.2009 60.2511 32.2106 60.0284C32.2284 59.5836 32.1524 59.1747 32.0475 58.8511Z" fill="#D0B764"/>
<path d="M20.6964 49.4876C20.6453 49.4973 20.592 49.4742 20.5693 49.4298C20.5426 49.3778 20.5675 49.3164 20.6249 49.2924C20.6346 49.2884 21.2395 49.0284 21.7782 48.4222C22.5004 47.6093 22.7689 46.5911 22.5755 45.3964C22.5662 45.34 22.6097 45.2871 22.6724 45.2791C22.7351 45.2707 22.7929 45.3098 22.8022 45.3667C23.0555 46.9333 22.4786 47.968 21.9497 48.5595C21.376 49.2018 20.7475 49.4689 20.7213 49.48C20.7133 49.4836 20.7049 49.4862 20.6964 49.4876Z" fill="white"/>
<path d="M24.5526 26.7164L24.6073 26.8898L24.6593 27.0471L24.7646 27.3551C24.8353 27.5591 24.9108 27.7596 24.9868 27.96C25.1388 28.3609 25.3033 28.7564 25.4762 29.1507C25.6477 29.5453 25.8322 29.936 26.0277 30.3253C26.2233 30.7142 26.4264 31.1031 26.6482 31.4867C27.0931 32.2542 27.5802 33.0187 28.1753 33.7613C28.4726 34.1333 28.7926 34.5013 29.1535 34.8613C29.2419 34.9516 29.3375 35.0409 29.4308 35.1298C29.4788 35.1742 29.5282 35.2182 29.5771 35.2622L29.6508 35.328L29.7277 35.3933C29.9295 35.5676 30.1491 35.7373 30.3802 35.9022C30.8455 36.2307 31.3784 36.5396 32.0091 36.7751C32.3224 36.8924 32.6588 36.9924 33.0153 37.0582L33.0815 37.0711L33.0979 37.0742L33.1433 37.0818C33.1819 37.0876 33.2211 37.0929 33.2602 37.0978C33.3384 37.1071 33.4171 37.1138 33.4953 37.1178C33.5757 37.1209 33.6646 37.1191 33.7491 37.1151C33.8344 37.1102 33.9193 37.104 34.0037 37.0907C34.0882 37.0773 34.1726 37.0609 34.2557 37.0409C34.2975 37.0311 34.3384 37.0204 34.3793 37.0089C34.4171 36.9973 34.4548 36.9849 34.4926 36.9716C34.5677 36.9453 34.6419 36.9164 34.7144 36.8849C34.7322 36.8773 34.7517 36.8689 34.7673 36.8613L34.8139 36.8382C34.8451 36.8227 34.8757 36.8062 34.9059 36.7898C34.9668 36.7564 35.0268 36.7209 35.0842 36.6849C35.1326 36.6524 35.1806 36.6182 35.2273 36.5836L35.2966 36.5302L35.3308 36.5031L35.3477 36.4893L35.3615 36.4773C35.3979 36.4453 35.4339 36.4124 35.4691 36.3791L35.5211 36.3284L35.5468 36.3031C35.5557 36.2942 35.5637 36.2862 35.5699 36.2791C35.6246 36.2196 35.6779 36.1582 35.7286 36.096C35.9086 35.8658 36.0117 35.676 36.0984 35.5022L36.1566 35.376C36.1748 35.3347 36.1895 35.2973 36.2059 35.2578C36.2397 35.1773 36.2633 35.1076 36.2904 35.0329C36.3886 34.7458 36.4495 34.4924 36.5006 34.248C36.5975 33.7613 36.6495 33.316 36.6846 32.8769C36.7522 32.0031 36.7544 31.1671 36.7233 30.3364C36.7108 29.9213 36.6824 29.5089 36.6522 29.0973C36.6362 28.8916 36.6157 28.6862 36.5957 28.48C36.5859 28.3769 36.5735 28.2742 36.5615 28.1707L36.5428 28.0151L36.5219 27.8529C36.4135 27.0138 35.5722 26.4129 34.6428 26.5111C33.8215 26.5978 33.2068 27.2009 33.1499 27.9196L33.1473 27.9551L33.0553 29.1027C33.0264 29.4884 32.9891 29.8733 32.9562 30.256C32.8815 31.0191 32.7993 31.7778 32.6815 32.4902C32.6211 32.844 32.5539 33.1893 32.4704 33.4836C32.4304 33.6289 32.3859 33.7636 32.3459 33.8551C32.3362 33.8742 32.3264 33.9 32.3188 33.9116C32.3148 33.9182 32.3108 33.9276 32.3077 33.9324C32.3046 33.936 32.3019 33.9396 32.2997 33.9436C32.2944 33.9502 32.2935 33.9378 32.3446 33.8698C32.3611 33.8467 32.3797 33.8244 32.4002 33.804C32.4024 33.8018 32.4055 33.7987 32.4095 33.7938L32.4206 33.7818L32.4442 33.7582C32.4602 33.7427 32.4766 33.728 32.4939 33.7138L32.5006 33.7084L32.5095 33.7009L32.5273 33.6853C32.5393 33.6751 32.5517 33.6653 32.5646 33.6556C32.5899 33.6364 32.6162 33.6182 32.6437 33.6013C32.6775 33.5782 32.7139 33.5556 32.7513 33.5356C32.7699 33.5253 32.7891 33.5156 32.8082 33.5062L32.8713 33.4764C32.9184 33.4547 32.9668 33.4351 33.0166 33.4187C33.0415 33.4102 33.0664 33.4027 33.0917 33.396C33.1193 33.3876 33.1468 33.3796 33.1748 33.3724C33.2313 33.3582 33.2886 33.3471 33.3464 33.3396C33.4037 33.332 33.4606 33.324 33.5184 33.3213C33.5753 33.3178 33.6362 33.3191 33.6895 33.3209C33.7406 33.3218 33.7917 33.3253 33.8424 33.332C33.8677 33.3351 33.8931 33.3391 33.9179 33.3436L33.9366 33.3471C33.9455 33.3489 33.9433 33.3484 33.9428 33.348L33.9393 33.3471L33.9251 33.3427C33.8495 33.3258 33.7655 33.2964 33.6735 33.2573C33.4904 33.1813 33.2748 33.0529 33.0504 32.8849C32.9384 32.7996 32.8237 32.708 32.7099 32.6031L32.6668 32.5649L32.6242 32.5244L32.5384 32.4436C32.4815 32.3867 32.4237 32.3324 32.3668 32.272C32.1384 32.0382 31.9157 31.776 31.7006 31.4982C31.5931 31.3591 31.4873 31.2164 31.3837 31.0693C31.2797 30.9236 31.1766 30.7733 31.0753 30.6222C30.8735 30.3178 30.6793 30.0027 30.4926 29.6796C30.3077 29.3556 30.1219 29.0284 29.9482 28.6929C29.8602 28.5258 29.7748 28.3564 29.6908 28.1867C29.6064 28.0169 29.5219 27.8462 29.4402 27.6747C29.2762 27.3316 29.1197 26.9844 28.9655 26.6369C28.8886 26.4631 28.8162 26.2884 28.7424 26.1156L28.6353 25.8573L28.5384 25.6191L28.5126 25.5551C28.1162 24.58 26.9197 24.0796 25.8402 24.4378C24.8099 24.7778 24.2606 25.7804 24.5526 26.7164Z" fill="#F8DF88"/>
<path d="M32.708 26.3111C32.6996 26.5218 32.9333 26.8329 33.2849 27.0516C33.5262 27.2018 33.4396 27.7764 33.4396 27.7764C34.1369 28.6307 35.6471 28.4249 36.0173 27.6729C36.0173 27.6729 35.9542 26.764 36.1227 26.2711C36.3889 25.4916 36.4898 23.7249 36.2751 23.4267C35.9622 22.9898 34.4933 22.8107 33.9156 22.9764C33.3378 23.1422 32.304 24.5831 32.2036 24.772C32.1027 24.9604 31.7342 25.7707 32.0933 26.3071C32.2151 26.4884 32.6658 26.4373 32.708 26.3111Z" fill="#FAD2C3"/>
<path d="M33.9345 25.1182C33.986 25.1138 34.03 25.0782 34.0385 25.0293C34.0629 24.888 34.0438 24.6307 33.8172 24.5622C33.3327 24.416 32.4376 24.5507 32.3994 24.5564C32.3358 24.5662 32.2927 24.6209 32.3034 24.6782C32.314 24.7356 32.374 24.7742 32.4385 24.7649C32.4474 24.7636 33.314 24.6333 33.7429 24.7627C33.8167 24.7849 33.818 24.9329 33.8074 24.9969C33.7976 25.0547 33.8416 25.1084 33.9052 25.1173C33.9154 25.1191 33.9252 25.1191 33.9345 25.1182Z" fill="#C8A399"/>
<path d="M34.6906 24.4978C34.7422 24.4933 34.7862 24.4578 34.7946 24.4089C34.8191 24.2676 34.8 24.0102 34.5733 23.9418C34.092 23.7964 32.9217 23.9156 32.8724 23.9204C32.8079 23.9271 32.7622 23.9796 32.7693 24.0373C32.7768 24.0947 32.8337 24.136 32.8973 24.1307C32.8977 24.1307 32.8986 24.1307 32.8991 24.1307C32.9106 24.1293 34.0671 24.012 34.4991 24.1422C34.5728 24.1644 34.5742 24.3124 34.5635 24.3764C34.5537 24.4342 34.5977 24.488 34.6613 24.4969C34.6711 24.4987 34.6813 24.4987 34.6906 24.4978Z" fill="#C8A399"/>
<path d="M35.2489 23.9796C35.3004 23.9751 35.3444 23.9396 35.3529 23.8907C35.3773 23.7493 35.3582 23.492 35.1315 23.4236C34.652 23.2787 33.4497 23.3689 33.3991 23.3724C33.3329 23.3773 33.2871 23.4284 33.2924 23.4867C33.2977 23.5449 33.3546 23.588 33.4191 23.5831C33.4311 23.5822 34.6235 23.4929 35.0577 23.624C35.1315 23.6462 35.1329 23.7942 35.1222 23.8582C35.1124 23.9156 35.1564 23.9698 35.22 23.9787C35.2293 23.98 35.2391 23.9804 35.2489 23.9796Z" fill="#C8A399"/>
<path d="M32.6926 26.3338C32.6281 26.336 32.5735 26.2907 32.5708 26.2324C32.5646 26.0942 32.5703 25.764 32.7552 25.6827C32.7757 25.6738 32.8379 25.6462 33.1041 25.6773C33.1681 25.6849 33.2135 25.7378 33.2055 25.7956C33.197 25.8533 33.1388 25.8942 33.0743 25.8871C32.9895 25.8773 32.8948 25.8724 32.857 25.8756C32.8232 25.9164 32.7979 26.0796 32.8046 26.224C32.8068 26.28 32.7606 26.328 32.6992 26.3333C32.697 26.3333 32.6948 26.3333 32.6926 26.3338Z" fill="#C8A399"/>
<path d="M22.1137 23.0258C22.1137 23.0258 17.9523 22.972 17.2137 23.4973C16.475 24.0222 15.4545 24.7342 15.2243 27.4467C14.9941 30.1587 15.4519 33.0556 15.7972 35.6631C16.0794 37.7969 17.1679 43.0124 17.9101 44.8893C18.6523 46.7662 23.3612 45.7702 26.2479 44.2076C29.1345 42.6449 30.527 40.1071 30.3888 39.3587C30.251 38.6102 29.1177 37.9284 28.9519 37.2422C28.7861 36.556 28.4954 34.132 29.0483 33.2431C29.6012 32.3542 30.4568 31.2436 29.571 29.3418C28.9772 28.0671 29.0643 27.0498 28.5354 25.8347C28.0065 24.6196 27.7661 23.9356 26.571 23.7987C25.3763 23.6618 22.1137 23.0258 22.1137 23.0258Z" fill="#F8DF88"/>
<path d="M28.8045 34.3738C28.8018 34.3742 28.7991 34.3747 28.796 34.3751C28.732 34.3831 28.6733 34.3427 28.6645 34.2849C28.6591 34.2516 28.5458 33.4556 29.1351 32.7587C29.76 32.02 30.308 30.8062 29.3716 29.2182C29.3413 29.1667 29.3627 29.1027 29.42 29.0751C29.4773 29.0476 29.548 29.0671 29.5782 29.1187C30.5733 30.8058 29.9876 32.0991 29.3213 32.8867C28.7929 33.5116 28.8956 34.2484 28.8969 34.2556C28.9049 34.3111 28.864 34.3622 28.8045 34.3738Z" fill="#EDCF7C"/>
<path d="M24.7306 24.0902C23.0693 26.2431 20.9151 23.6942 20.9248 23.1316C21.9964 21.7476 21.5973 20.2662 21.5973 20.2662L25.1191 21.8684C25.0964 21.9613 25.0733 22.0547 25.0502 22.148C24.9431 22.58 24.8306 23.0684 24.7711 23.5418C24.7431 23.768 24.7328 23.848 24.7306 24.0902Z" fill="#FAD2C3"/>
<path d="M24.775 23.5182C22.9626 22.9116 22.0137 20.9991 22.0137 20.9991L25.1963 22.1524C25.0892 22.5844 24.835 23.0449 24.775 23.5182Z" fill="#040E15"/>
<path d="M26.1182 19.5351C26.1182 19.5351 26.5102 18.7764 27.1973 19.0413C27.8844 19.3058 27.6008 21.4524 26.2533 21.2249L26.1182 19.5351Z" fill="#C8A399"/>
<path d="M27.3418 19.5693C27.3302 19.64 27.3142 19.7151 27.2951 19.7933C27.28 19.8573 27.2622 19.9236 27.2427 19.9916C27.2351 20.0164 27.2275 20.0422 27.2195 20.0676C27.2147 20.0831 27.2098 20.0987 27.2044 20.1147C27.1742 20.2093 27.1404 20.3071 27.1031 20.4062C27.0795 20.4707 27.0538 20.5356 27.0275 20.6009C27.0249 20.6067 27.0231 20.6129 27.02 20.6187C27.0075 20.6493 26.9951 20.6796 26.9822 20.7089C26.5329 21.7551 25.9364 22.1942 25.3049 22.38C24.2347 22.6947 21.9013 21.4271 21.6467 20.5293C21.4618 19.8809 21.4275 20.1351 21.6098 18.4733C21.7915 16.8111 22.6787 15.9969 22.6787 15.9969C23.8515 15.0787 25.6338 15.4649 26.7004 16.3044C27.7671 17.1444 27.5293 18.4262 27.3418 19.5693Z" fill="#FAD2C3"/>
<path d="M24.8457 18.9738C24.816 18.96 24.7955 18.9324 24.7946 18.9004C24.7946 18.8978 24.7822 18.6356 24.6009 18.5742C24.4031 18.5071 24.2151 18.6 24.2128 18.6013C24.1675 18.624 24.1097 18.6098 24.0844 18.5689C24.0591 18.528 24.0746 18.4764 24.1195 18.4529C24.1302 18.4476 24.3844 18.3191 24.6666 18.4147C24.9666 18.516 24.9822 18.88 24.9826 18.8951C24.9844 18.9422 24.9431 18.9818 24.8911 18.9831C24.8755 18.9836 24.8595 18.9804 24.8457 18.9738Z" fill="#22120E"/>
<path d="M26.1712 19.2884C26.1699 19.288 26.1686 19.2871 26.1677 19.2867C26.1223 19.2631 26.1068 19.2111 26.1325 19.1702C26.1401 19.1587 26.317 18.8844 26.5965 18.9173C26.857 18.9484 26.9943 19.1409 27.0001 19.1493C27.0281 19.1893 27.0148 19.2418 26.9708 19.2671C26.9268 19.292 26.8685 19.2804 26.8405 19.2409C26.8383 19.2382 26.7414 19.1067 26.5717 19.0867C26.4192 19.0684 26.2979 19.2533 26.2965 19.2551C26.2712 19.2947 26.2157 19.3093 26.1712 19.2884Z" fill="#22120E"/>
<path d="M25.0902 17.632C25.0902 17.632 24.776 17.2489 24.2471 17.3004C23.9516 17.3289 23.952 17.5916 24.2862 17.6316C24.5196 17.6596 24.6418 17.6876 24.8498 17.8164C25.0573 17.9458 25.1773 17.7156 25.0902 17.632Z" fill="#22120E"/>
<path d="M26.4034 17.8667C26.4034 17.8667 26.8403 17.5996 27.3207 17.8062C27.5891 17.9218 27.4927 18.1693 27.1625 18.1071C26.9318 18.0636 26.8065 18.0538 26.5629 18.1129C26.3189 18.1724 26.2905 17.9196 26.4034 17.8667Z" fill="#22120E"/>
<path d="M23.4531 15.3844C23.4531 15.3844 23.9207 16.5716 25.942 17.1889C27.9638 17.8067 27.7922 16.9827 27.7922 16.9827C27.7922 16.9827 25.7816 14.2102 23.4531 15.3844Z" fill="#22120E"/>
<path d="M23.9448 15.664C23.9448 15.664 23.2817 17.668 22.2385 17.9716C21.5674 18.1671 21.2363 17.3084 21.2363 17.3084C21.2363 17.3084 23.0043 14.4467 23.9448 15.664Z" fill="#22120E"/>
<path d="M27.2049 20.1151C27.1747 20.2098 27.1409 20.3076 27.1036 20.4067C27.08 20.4711 27.0542 20.536 27.028 20.6013C27.0253 20.6071 27.0236 20.6133 27.0204 20.6191C27.008 20.6498 26.9956 20.68 26.9827 20.7093C26.5982 20.5396 26.3529 20.3 26.4231 20.152C26.4898 20.0102 26.8244 19.9996 27.2049 20.1151Z" fill="#F8C6B1"/>
<path d="M22.8252 19.0778C22.7666 19.2444 23.0906 19.4867 23.5492 19.6182C24.0079 19.7498 24.427 19.7213 24.4861 19.5547C24.5448 19.388 24.2208 19.1458 23.7621 19.0142C23.3034 18.8827 22.8839 18.9111 22.8252 19.0778Z" fill="#F8C6B1"/>
<path d="M22.1004 18.32C22.1004 18.32 21.7773 17.6027 20.9849 17.8058C20.1929 18.0089 20.172 20.3916 21.6809 20.3124L22.1004 18.32Z" fill="#FAD2C3"/>
<path d="M21.3878 19.868C21.4149 19.9844 21.3323 20.0987 21.2034 20.1231C21.0745 20.1476 20.9478 20.0729 20.9212 19.9564C20.8941 19.84 20.9767 19.7258 21.1056 19.7013C21.2341 19.6769 21.3607 19.7516 21.3878 19.868Z" fill="white"/>
<path d="M23.1621 17.1867C23.1621 17.1867 22.5715 17.664 22.6137 18.6449C22.6559 19.6258 22.8381 20.3493 22.1408 20.5907C22.1408 20.5907 22.495 20.42 22.2204 19.5196C21.9453 18.6191 21.6675 18.0889 21.9768 17.6449C22.2857 17.2009 23.1621 17.1867 23.1621 17.1867Z" fill="#22120E"/>
<path d="M24.3408 20.2667C24.3666 20.2707 25.8986 20.8427 25.8986 20.8427C25.8986 20.8427 25.4977 21.5276 24.9279 21.3169C24.3582 21.1058 24.3408 20.2667 24.3408 20.2667Z" fill="#E27D78"/>
<path d="M24.5786 20.5716C24.6146 20.6231 25.4102 20.9267 25.5315 20.9307C25.5844 20.9324 25.6102 20.8538 25.6599 20.7533C25.3564 20.6404 24.8368 20.4471 24.5488 20.3413C24.5497 20.4222 24.5555 20.5391 24.5786 20.5716Z" fill="white"/>
<path d="M24.9277 21.3164C25.109 21.3836 25.273 21.36 25.4126 21.2964C25.1037 20.9662 24.7477 20.9907 24.6055 21.0769C24.6864 21.1791 24.7912 21.2658 24.9277 21.3164Z" fill="#C66E67"/>
<path d="M21.4611 19.4387C21.2874 19.4751 21.1487 19.3413 21.0878 19.1911C21.0158 19.0133 21.0416 18.8209 21.1536 18.7C21.3131 18.528 21.4869 18.5724 21.5847 18.6213C21.534 18.5218 21.4683 18.4551 21.3896 18.4222C21.2118 18.3484 21.0229 18.4693 21.0211 18.4707C21.0078 18.4791 20.9918 18.4733 20.9847 18.4573C20.9776 18.4413 20.9825 18.4218 20.9958 18.4133C21.0043 18.4076 21.2074 18.2778 21.4074 18.3609C21.5229 18.4089 21.6123 18.5178 21.6731 18.6844L21.7123 18.7916L21.6331 18.7244C21.6234 18.7164 21.3954 18.5276 21.19 18.7489C21.0767 18.8711 21.0905 19.0484 21.1367 19.1627C21.1851 19.2827 21.298 19.4093 21.4567 19.3738C21.4709 19.3702 21.4851 19.3822 21.4883 19.4C21.4909 19.4178 21.4816 19.4347 21.4669 19.4382C21.4647 19.4378 21.4629 19.4382 21.4611 19.4387Z" fill="#C8A399"/>
<path d="M25.1358 20.0867C25.1385 20.0782 25.2496 20.1067 25.4269 20.1591C25.4714 20.1733 25.5154 20.1831 25.5331 20.1618C25.5545 20.14 25.5536 20.0942 25.5509 20.044C25.5487 19.9404 25.546 19.8324 25.5438 19.7187C25.538 19.2573 25.5505 18.8853 25.5718 18.8876C25.5931 18.8898 25.6154 19.2649 25.6211 19.7262C25.6216 19.8396 25.622 19.9476 25.6225 20.0507C25.6207 20.0982 25.6287 20.156 25.5829 20.2004C25.5598 20.2222 25.5194 20.2289 25.4891 20.2236C25.4585 20.2191 25.434 20.2093 25.4127 20.2018C25.2389 20.1382 25.1327 20.0951 25.1358 20.0867Z" fill="#22120E"/>
<g opacity="0.37">
<path d="M21.8397 11.3827C21.7895 11.3827 21.749 11.3462 21.749 11.3009V7.62222C21.749 7.57689 21.7895 7.54044 21.8397 7.54044C21.8895 7.54044 21.9304 7.57689 21.9304 7.62222V11.3009C21.9299 11.3462 21.8895 11.3827 21.8397 11.3827Z" fill="#F8DF88"/>
<path d="M20.4028 10.844C20.3797 10.844 20.3566 10.836 20.3388 10.82C20.3037 10.788 20.3037 10.736 20.3388 10.7044L23.2131 8.10311C23.2482 8.07111 23.3055 8.07111 23.3411 8.10311C23.3762 8.13511 23.3762 8.18711 23.3411 8.21866L20.4668 10.82C20.4491 10.836 20.4259 10.844 20.4028 10.844Z" fill="#F8DF88"/>
<path d="M23.8724 9.54311H19.8075C19.7572 9.54311 19.7168 9.50667 19.7168 9.46133C19.7168 9.416 19.7572 9.37955 19.8075 9.37955H23.8724C23.9221 9.37955 23.963 9.416 23.963 9.46133C23.9626 9.50667 23.9221 9.54311 23.8724 9.54311Z" fill="#F8DF88"/>
<path d="M23.2771 10.844C23.2539 10.844 23.2308 10.836 23.2131 10.82L20.3388 8.21866C20.3037 8.18666 20.3037 8.13466 20.3388 8.10311C20.3739 8.07111 20.4313 8.07111 20.4668 8.10311L23.3411 10.7044C23.3762 10.7364 23.3762 10.7884 23.3411 10.82C23.3233 10.836 23.3002 10.844 23.2771 10.844Z" fill="#F8DF88"/>
</g>
<g opacity="0.37">
<path d="M11.5801 30.024V31.1342" stroke="#F8DF88" stroke-width="4" stroke-miterlimit="10"/>
<path d="M11.5801 31.916V33.0267" stroke="#F8DF88" stroke-width="4" stroke-miterlimit="10"/>
<path d="M12.7988 31.5253H11.8975" stroke="#F8DF88" stroke-width="4" stroke-miterlimit="10"/>
<path d="M11.2627 31.5253H10.3613" stroke="#F8DF88" stroke-width="4" stroke-miterlimit="10"/>
<path d="M40.4854 14.8836V15.7889" stroke="#F8DF88" stroke-width="4" stroke-miterlimit="10"/>
<path d="M40.4854 16.4258V17.3311" stroke="#F8DF88" stroke-width="4" stroke-miterlimit="10"/>
<path d="M41.4788 16.1076H40.7441" stroke="#F8DF88" stroke-width="4" stroke-miterlimit="10"/>
<path d="M40.2269 16.1076H39.4922" stroke="#F8DF88" stroke-width="4" stroke-miterlimit="10"/>
<path d="M39.2383 22.7156V24.2324" stroke="#F8DF88" stroke-width="4" stroke-miterlimit="10"/>
<path d="M39.2383 25.3V26.8169" stroke="#F8DF88" stroke-width="4" stroke-miterlimit="10"/>
<path d="M40.903 24.7662H39.6719" stroke="#F8DF88" stroke-width="4" stroke-miterlimit="10"/>
<path d="M38.8053 24.7662H37.5742" stroke="#F8DF88" stroke-width="4" stroke-miterlimit="10"/>
<path d="M34.4756 17.7636V18.8742" stroke="#F8DF88" stroke-width="4" stroke-miterlimit="10"/>
<path d="M34.4756 19.656V20.7662" stroke="#F8DF88" stroke-width="4" stroke-miterlimit="10"/>
<path d="M35.6943 19.2649H34.793" stroke="#F8DF88" stroke-width="4" stroke-miterlimit="10"/>
<path d="M34.1582 19.2649H33.2568" stroke="#F8DF88" stroke-width="4" stroke-miterlimit="10"/>
</g>
</g>
</g>
<defs>
<clipPath id="clip0_1141_45002">
<rect width="48" height="48" rx="24" fill="white"/>
</clipPath>
<clipPath id="clip1_1141_45002">
<rect width="48" height="48" rx="24" fill="white"/>
</clipPath>
</defs>
</svg>
