<svg width="48" height="48" viewBox="0 0 48 48" fill="none" xmlns="http://www.w3.org/2000/svg">
<g clip-path="url(#clip0_991_50542)">
<rect width="48" height="48" rx="24" fill="white"/>
<g clip-path="url(#clip1_991_50542)">
<g opacity="0.49">
<path d="M42.6783 18.4382H22.4463V19.0786H42.6783V18.4382Z" fill="#E7CDAA"/>
</g>
<path d="M26.8887 18.7587H25.8643V20.7875H26.8887V18.7587Z" fill="#E0E0E0"/>
<g opacity="0.49">
<path d="M39.0371 18.4382H38.0127V20.7871H39.0371V18.4382Z" fill="#E7CDAA"/>
</g>
<g opacity="0.49">
<path d="M33.6858 12.692C33.6858 12.692 32.7623 13.3955 33.6472 14.3253C33.6623 14.3413 33.6836 14.3502 33.7058 14.3502L41.7761 14.3031C41.7761 14.3031 42.4654 13.5302 41.8934 12.6395L33.6858 12.692Z" fill="#D9C095"/>
<path d="M39.9918 13.4262C39.9918 13.4351 38.9869 13.4427 37.7474 13.4427C36.5078 13.4427 35.5029 13.4355 35.5029 13.4262C35.5029 13.4173 36.5078 13.4098 37.7474 13.4098C38.9869 13.4102 39.9918 13.4173 39.9918 13.4262Z" fill="#FAFAFA"/>
<path d="M38.7333 13.7183C38.7333 13.7271 38.2608 13.7347 37.6782 13.7347C37.095 13.7347 36.623 13.7276 36.623 13.7183C36.623 13.7089 37.0955 13.7018 37.6782 13.7018C38.2608 13.7023 38.7333 13.7094 38.7333 13.7183Z" fill="#FAFAFA"/>
<path d="M40.8073 14.2774C40.802 14.276 40.8251 14.1845 40.85 14.0351C40.8753 13.8858 40.8984 13.6774 40.8966 13.4462C40.8944 13.2151 40.8669 13.0071 40.8389 12.8582C40.8109 12.7094 40.7864 12.6182 40.7918 12.6169C40.794 12.6165 40.802 12.6382 40.8153 12.6791C40.8286 12.7196 40.8451 12.7791 40.8615 12.8538C40.8957 13.0027 40.9269 13.2125 40.9291 13.4458C40.9309 13.6791 40.9037 13.8898 40.8726 14.0391C40.8571 14.1138 40.842 14.1738 40.8295 14.2147C40.8175 14.2556 40.8095 14.2778 40.8073 14.2774Z" fill="#FAFAFA"/>
<path d="M41.4106 12.6294C41.4124 12.6286 41.4252 12.6494 41.4466 12.6881C41.4577 12.7072 41.4701 12.7312 41.4826 12.7606C41.495 12.7894 41.511 12.8219 41.5239 12.8592C41.5528 12.933 41.579 13.0241 41.6008 13.1272C41.6204 13.2303 41.6341 13.3454 41.6359 13.4668C41.6364 13.5881 41.6244 13.7037 41.6061 13.8068C41.5861 13.9099 41.5612 14.0014 41.5337 14.0757C41.5217 14.1134 41.5061 14.1459 41.4941 14.1752C41.4821 14.2046 41.4701 14.2286 41.4595 14.2481C41.439 14.2872 41.4266 14.3086 41.4244 14.3072C41.4186 14.3046 41.4639 14.2174 41.5119 14.0686C41.5364 13.9943 41.5586 13.9037 41.5768 13.8019C41.5928 13.6997 41.6039 13.5863 41.6035 13.4672C41.6017 13.3481 41.5892 13.2348 41.5715 13.133C41.5519 13.0317 41.5284 12.9414 41.5026 12.8672C41.4515 12.7183 41.4052 12.6321 41.4106 12.6294Z" fill="#FAFAFA"/>
<path d="M34.956 14.2879C34.9543 14.2893 34.9409 14.2697 34.9182 14.2342C34.9067 14.2164 34.8934 14.1942 34.8805 14.167C34.8671 14.1399 34.8507 14.1097 34.8374 14.0742C34.8071 14.0044 34.78 13.9177 34.7587 13.8195C34.7391 13.7208 34.7267 13.6106 34.7276 13.4946C34.7298 13.3786 34.7454 13.2684 34.7676 13.1706C34.7916 13.0728 34.8209 12.987 34.8529 12.9182C34.8671 12.883 34.8845 12.8533 34.8987 12.8266C34.9125 12.7999 34.9262 12.7777 34.9382 12.7604C34.9618 12.7253 34.9756 12.7062 34.9774 12.7075C34.9827 12.711 34.9311 12.7888 34.8742 12.9275C34.8454 12.9964 34.8187 13.0813 34.7969 13.1777C34.7769 13.2742 34.7622 13.3817 34.76 13.4955C34.7591 13.6093 34.7707 13.7173 34.788 13.8142C34.8076 13.9106 34.8316 13.9964 34.8587 14.0662C34.912 14.2053 34.9618 14.2848 34.956 14.2879Z" fill="#FAFAFA"/>
<path d="M34.081 14.485C34.0793 14.4863 34.0646 14.4645 34.0397 14.4236C34.0268 14.4036 34.0121 14.3783 33.9975 14.3476C33.9828 14.3174 33.9637 14.2832 33.9486 14.2436C33.9144 14.1654 33.8824 14.0685 33.8561 13.9588C33.8317 13.8485 33.8144 13.725 33.8108 13.5948C33.8086 13.4641 33.8206 13.3401 33.8401 13.229C33.8615 13.1183 33.889 13.0196 33.9197 12.9401C33.933 12.8996 33.9504 12.865 33.9637 12.8339C33.977 12.8028 33.9904 12.777 34.0024 12.7561C34.0255 12.7143 34.0393 12.6921 34.041 12.693C34.0468 12.6961 33.9953 12.7876 33.941 12.9472C33.9135 13.0268 33.8886 13.1241 33.869 13.2334C33.8517 13.3432 33.8406 13.465 33.8428 13.5934C33.8464 13.7214 33.8628 13.8428 33.885 13.9516C33.9095 14.0601 33.9384 14.1561 33.9695 14.2343C34.0308 14.3921 34.0864 14.4819 34.081 14.485Z" fill="#FAFAFA"/>
<path d="M41.4748 16.7609C41.4748 16.8222 41.4748 18.3054 41.4748 18.3054H38.4863V16.7609H41.4748Z" fill="#D9C095"/>
<path d="M31.8277 17.5476C31.8282 17.5613 31.8286 17.5747 31.8295 17.5884C31.854 18.0556 32.2504 18.4173 32.7184 18.4173H41.6184V18.3058H39.5055C39.0789 18.3058 38.7335 17.96 38.7335 17.5338C38.7335 17.1071 39.0793 16.7618 39.5055 16.7618H41.6184V16.5978L32.7157 16.628C32.2135 16.6284 31.8095 17.0453 31.8277 17.5476Z" fill="#BDA472"/>
<path d="M41.4749 17.5537C41.4749 17.5626 40.8602 17.5702 40.1029 17.5702C39.3447 17.5702 38.7305 17.563 38.7305 17.5537C38.7305 17.5448 39.3447 17.5373 40.1029 17.5373C40.8602 17.5373 41.4749 17.5448 41.4749 17.5537Z" fill="#9C8459"/>
<path d="M41.4358 17.9018C41.4358 17.9107 40.8544 17.9182 40.1375 17.9182C39.4202 17.9182 38.8389 17.9111 38.8389 17.9018C38.8389 17.8929 39.4202 17.8853 40.1375 17.8853C40.8544 17.8853 41.4358 17.8929 41.4358 17.9018Z" fill="#9C8459"/>
<path d="M41.4835 18.2201C41.4835 18.2289 40.9609 18.2365 40.316 18.2365C39.6711 18.2365 39.1484 18.2294 39.1484 18.2201C39.1484 18.2112 39.6711 18.2036 40.316 18.2036C40.9609 18.2036 41.4835 18.2112 41.4835 18.2201Z" fill="#9C8459"/>
<path d="M41.4756 17.241C41.4756 17.2498 40.8738 17.2574 40.1316 17.2574C39.3889 17.2574 38.7871 17.2503 38.7871 17.241C38.7871 17.2321 39.3889 17.2245 40.1316 17.2245C40.8733 17.225 41.4756 17.2321 41.4756 17.241Z" fill="#9C8459"/>
<path d="M41.4329 16.9284C41.4329 16.9373 40.8974 16.9449 40.2365 16.9449C39.5756 16.9449 39.04 16.9378 39.04 16.9284C39.04 16.9191 39.5756 16.912 40.2365 16.912C40.8974 16.912 41.4329 16.9195 41.4329 16.9284Z" fill="#9C8459"/>
<path d="M32.9098 16.6529C32.9147 16.6578 32.8227 16.7276 32.7209 16.8778C32.6191 17.0254 32.5151 17.2649 32.5178 17.5418C32.5213 17.8187 32.6311 18.0561 32.7364 18.2009C32.8422 18.3485 32.9355 18.4161 32.9307 18.4214C32.9293 18.4227 32.9058 18.4072 32.8662 18.3738C32.8267 18.3409 32.7738 18.2881 32.7173 18.2147C32.6049 18.0703 32.4884 17.8281 32.4844 17.5423C32.4813 17.2565 32.5924 17.0116 32.7013 16.8645C32.7556 16.7898 32.8076 16.7356 32.8462 16.7018C32.8853 16.6676 32.9089 16.6512 32.9098 16.6529Z" fill="#9C8459"/>
<path d="M32.6007 16.62C32.6056 16.6249 32.5136 16.6947 32.4118 16.8449C32.3101 16.9925 32.2061 17.232 32.2087 17.5089C32.2123 17.7858 32.3221 18.0232 32.4274 18.168C32.5332 18.3156 32.6265 18.3832 32.6216 18.3885C32.6203 18.3898 32.5967 18.3743 32.5576 18.3409C32.5181 18.308 32.4652 18.2552 32.4087 18.1818C32.2963 18.0374 32.1798 17.7952 32.1758 17.5094C32.1727 17.2236 32.2838 16.9787 32.3927 16.8316C32.447 16.7569 32.499 16.7027 32.5376 16.6689C32.5763 16.6347 32.5998 16.6183 32.6007 16.62Z" fill="#9C8459"/>
<path d="M38.6481 16.6529C38.6529 16.6578 38.5609 16.7275 38.4592 16.8778C38.3574 17.0253 38.2534 17.2649 38.2561 17.5418C38.2596 17.8186 38.3694 18.056 38.4747 18.2009C38.5805 18.3484 38.6738 18.416 38.6689 18.4213C38.6676 18.4226 38.6441 18.4071 38.6045 18.3738C38.5649 18.3409 38.5121 18.288 38.4556 18.2146C38.3432 18.0702 38.2267 17.828 38.2227 17.5422C38.2196 17.2564 38.3307 17.0115 38.4396 16.8644C38.4938 16.7898 38.5458 16.7355 38.5845 16.7018C38.6232 16.6675 38.6467 16.6511 38.6481 16.6529Z" fill="#9C8459"/>
<path d="M38.3556 16.62C38.3605 16.6249 38.2685 16.6947 38.1667 16.8449C38.065 16.9925 37.9609 17.232 37.9636 17.5089C37.9672 17.7858 38.077 18.0231 38.1823 18.168C38.2881 18.3156 38.3814 18.3831 38.3765 18.3885C38.3756 18.3898 38.3516 18.3742 38.3121 18.3409C38.2725 18.308 38.2196 18.2551 38.1636 18.1818C38.0512 18.0373 37.9347 17.7951 37.9307 17.5093C37.9276 17.2236 38.0387 16.9787 38.1476 16.8316C38.2018 16.7569 38.2538 16.7027 38.2925 16.6689C38.3307 16.6347 38.3543 16.6182 38.3556 16.62Z" fill="#9C8459"/>
<path d="M33.9247 17.7645C33.9221 17.5551 33.919 17.3458 33.9163 17.1365C33.9154 17.0818 33.9145 17.0253 33.8941 16.9747C33.8736 16.924 33.8296 16.8787 33.775 16.8742C33.6963 16.8396 33.5736 16.9049 33.519 16.9956C33.4638 17.0862 33.4581 17.1973 33.4572 17.3031C33.4558 17.4689 33.4638 17.6342 33.4812 17.7991C33.4892 17.8773 33.5003 17.9578 33.5394 18.0262C33.5785 18.0947 33.6527 18.1485 33.731 18.1413C33.8087 18.1342 33.8714 18.0689 33.899 17.9956C33.9265 17.9227 33.9261 17.8427 33.9247 17.7645Z" fill="#9C8459"/>
<path d="M37.3669 17.584C37.3669 17.5929 36.7234 17.6005 35.9301 17.6005C35.1363 17.6005 34.4932 17.5934 34.4932 17.584C34.4932 17.5752 35.1363 17.5676 35.9301 17.5676C36.7238 17.5676 37.3669 17.5747 37.3669 17.584Z" fill="#9C8459"/>
<path d="M33.3172 16.5911L33.3008 15.1271H34.0977L34.1252 16.5911H33.3172Z" fill="#BDA472"/>
<path d="M34.0539 15.3876C34.0539 15.3965 33.8881 15.404 33.6837 15.404C33.4793 15.404 33.3135 15.3969 33.3135 15.3876C33.3135 15.3787 33.4793 15.3711 33.6837 15.3711C33.8881 15.3711 34.0539 15.3787 34.0539 15.3876Z" fill="#9C8459"/>
<path d="M34.0539 15.6134C34.0539 15.6223 33.8881 15.6299 33.6837 15.6299C33.4793 15.6299 33.3135 15.6228 33.3135 15.6134C33.3135 15.6046 33.4793 15.597 33.6837 15.597C33.8881 15.5974 34.0539 15.6046 34.0539 15.6134Z" fill="#9C8459"/>
<path d="M34.0539 15.8395C34.0539 15.8484 33.8881 15.8559 33.6837 15.8559C33.4793 15.8559 33.3135 15.8488 33.3135 15.8395C33.3135 15.8306 33.4793 15.8231 33.6837 15.8231C33.8881 15.8231 34.0539 15.8306 34.0539 15.8395Z" fill="#9C8459"/>
<path d="M34.0539 16.0654C34.0539 16.0743 33.8881 16.0818 33.6837 16.0818C33.4793 16.0818 33.3135 16.0747 33.3135 16.0654C33.3135 16.0565 33.4793 16.0489 33.6837 16.0489C33.8881 16.0494 34.0539 16.0565 34.0539 16.0654Z" fill="#9C8459"/>
<path d="M34.0539 16.2917C34.0539 16.3006 33.8881 16.3081 33.6837 16.3081C33.4793 16.3081 33.3135 16.301 33.3135 16.2917C33.3135 16.2828 33.4793 16.2752 33.6837 16.2752C33.8881 16.2752 34.0539 16.2823 34.0539 16.2917Z" fill="#9C8459"/>
<path d="M33.2641 15.0884H42.0957C42.2046 15.5733 42.1894 16.1067 42.0957 16.6707H33.3014V16.5631H33.8388C33.9788 16.5631 34.0926 16.4493 34.0926 16.3093V15.4338C34.0926 15.2938 33.9788 15.18 33.8388 15.18H33.2637V15.0884H33.2641Z" fill="#D9C095"/>
<path d="M35.3565 15.8804H35.5041C35.5099 15.8804 35.5148 15.8817 35.5201 15.8844C35.5308 15.8906 35.5361 15.9 35.5361 15.912C35.5361 15.9155 35.5356 15.9186 35.5348 15.9213C35.5316 15.9337 35.5285 15.9462 35.525 15.9591C35.5045 16.0266 35.4734 16.0822 35.4325 16.1257C35.3921 16.1689 35.3499 16.1906 35.3068 16.1906C35.301 16.1906 35.2952 16.1902 35.289 16.1893C35.249 16.1831 35.2152 16.1591 35.1885 16.1169C35.1592 16.0697 35.1445 16.0106 35.1445 15.9395C35.1445 15.8977 35.1503 15.8555 35.1619 15.8133C35.1805 15.7444 35.2099 15.6875 35.2494 15.6426C35.2908 15.5955 35.3352 15.572 35.3823 15.572C35.4023 15.572 35.4205 15.576 35.4383 15.5849C35.4765 15.6035 35.505 15.6395 35.5241 15.6924C35.5263 15.6973 35.5276 15.7022 35.5276 15.7071C35.5276 15.7124 35.5263 15.7177 35.5232 15.7231C35.517 15.7337 35.5076 15.7391 35.4961 15.7391C35.493 15.7391 35.4894 15.7386 35.4863 15.7377C35.4761 15.7342 35.4694 15.7275 35.4659 15.7177L35.4641 15.7151C35.4592 15.7022 35.4534 15.6906 35.4463 15.68C35.4272 15.652 35.4036 15.6377 35.3756 15.6377C35.3596 15.6377 35.3432 15.6435 35.3268 15.6555C35.2956 15.6777 35.269 15.7164 35.2463 15.7711C35.2232 15.8275 35.2112 15.8831 35.2112 15.9373C35.2112 15.9897 35.2196 16.0329 35.2365 16.068C35.2552 16.1066 35.281 16.1257 35.3134 16.1257C35.3352 16.1253 35.3592 16.1111 35.3845 16.0826C35.4161 16.0475 35.441 16.0017 35.4601 15.9457C35.3921 15.9457 35.357 15.9453 35.3543 15.9444C35.3312 15.9409 35.3196 15.9289 35.3192 15.9089C35.3196 15.9049 35.321 15.9013 35.3223 15.8982C35.3294 15.8862 35.3405 15.8804 35.3565 15.8804Z" fill="#FBFBFB"/>
<path d="M35.8502 15.5929C35.8515 15.5956 35.8528 15.5996 35.8542 15.6036C35.8604 15.6254 35.8951 15.8076 35.9582 16.1507C35.9591 16.1534 35.9595 16.156 35.9595 16.1587C35.9595 16.164 35.9582 16.1698 35.9551 16.1747C35.9488 16.1854 35.94 16.1907 35.9288 16.1907C35.9275 16.1907 35.9257 16.1907 35.924 16.1903C35.9115 16.188 35.9031 16.1809 35.8995 16.1685L35.8644 15.9867H35.6831L35.596 16.1694C35.5951 16.1716 35.5942 16.1734 35.5933 16.1756C35.5848 16.1858 35.576 16.1912 35.5662 16.1912C35.56 16.1912 35.5542 16.1894 35.5488 16.1858C35.5391 16.1792 35.5342 16.1703 35.5342 16.1592C35.5342 16.156 35.5346 16.1529 35.5364 16.1498C35.5417 16.1369 35.5511 16.1169 35.5635 16.0898C35.6906 15.8125 35.7662 15.6489 35.7911 15.5992C35.7982 15.5845 35.8084 15.5774 35.8217 15.5769C35.8337 15.5774 35.8435 15.5827 35.8502 15.5929ZM35.8106 15.7152L35.7124 15.9218H35.8511L35.8106 15.7152Z" fill="#FBFBFB"/>
<path d="M36.347 16.1911H36.0808C36.0746 16.1911 36.0688 16.1893 36.0639 16.1858C36.0564 16.18 36.0515 16.1689 36.0488 16.1524V16.152C36.0488 16.1413 36.0733 15.9596 36.1222 15.6071C36.1226 15.6031 36.1231 15.5991 36.1239 15.5956C36.1297 15.5827 36.139 15.576 36.1524 15.576C36.1577 15.576 36.1626 15.5773 36.167 15.5796C36.1782 15.5853 36.1839 15.5947 36.1839 15.6076C36.1817 15.6316 36.1755 15.6813 36.1657 15.7569C36.1355 15.9893 36.1195 16.1124 36.1182 16.1253H36.3444C36.3506 16.1253 36.3564 16.1262 36.3613 16.1284C36.3746 16.1342 36.3817 16.144 36.3817 16.1582C36.3817 16.1618 36.3813 16.1653 36.3799 16.1684C36.3755 16.1809 36.3644 16.1884 36.347 16.1911Z" fill="#FBFBFB"/>
<path d="M36.71 15.5928C36.7113 15.5955 36.7127 15.5995 36.714 15.6035C36.7202 15.6253 36.7549 15.8075 36.818 16.1506C36.8189 16.1533 36.8193 16.1559 36.8193 16.1586C36.8193 16.1639 36.818 16.1697 36.8149 16.1746C36.8087 16.1853 36.7998 16.1906 36.7887 16.1906C36.7873 16.1906 36.7856 16.1906 36.7838 16.1902C36.7713 16.1879 36.7629 16.1808 36.7593 16.1684L36.7242 15.9866H36.5429L36.4558 16.1693C36.4549 16.1715 36.454 16.1733 36.4531 16.1755C36.4447 16.1857 36.4358 16.1911 36.4256 16.1911C36.4193 16.1911 36.4136 16.1893 36.4082 16.1857C36.3984 16.1791 36.3936 16.1702 36.3936 16.1591C36.3936 16.1559 36.3944 16.1528 36.3958 16.1497C36.4011 16.1368 36.4104 16.1168 36.4229 16.0897C36.55 15.8124 36.6256 15.6488 36.6504 15.5991C36.6576 15.5844 36.6678 15.5773 36.6811 15.5768C36.6936 15.5773 36.7033 15.5826 36.71 15.5928ZM36.6704 15.7151L36.5722 15.9217H36.7109L36.6704 15.7151Z" fill="#FBFBFB"/>
<path d="M37.135 15.9071C37.1559 15.9649 37.1719 16.0093 37.183 16.0404C37.2105 16.1164 37.2243 16.1564 37.2243 16.1604C37.2243 16.1662 37.2225 16.1715 37.219 16.1764C37.2128 16.1862 37.2039 16.1911 37.1923 16.1911C37.1803 16.1907 37.1719 16.1835 37.1661 16.1698C37.1639 16.164 37.1625 16.1595 37.1612 16.1564C37.1465 16.1231 37.123 16.0609 37.0901 15.9689L36.9394 16.1747C36.931 16.1853 36.9217 16.1911 36.9114 16.1915C36.9057 16.1915 36.9003 16.1902 36.895 16.1871C36.8848 16.1809 36.8799 16.172 36.8799 16.1604C36.8799 16.1578 36.8799 16.1555 36.8803 16.1538C36.8812 16.1489 36.8865 16.1404 36.8963 16.128C36.947 16.0627 37.0025 15.9853 37.0634 15.8951C37.0572 15.8773 37.051 15.8609 37.0452 15.8449C36.9888 15.6929 36.9603 15.6147 36.9603 15.6098C36.9603 15.604 36.9617 15.5987 36.9643 15.5933C36.9701 15.5827 36.9785 15.5773 36.9901 15.5773C37.0039 15.5778 37.0137 15.5835 37.0199 15.5951L37.1088 15.8347L37.2861 15.5929C37.2937 15.5831 37.303 15.5782 37.3145 15.5778C37.3199 15.5778 37.3248 15.5791 37.3292 15.5813C37.3394 15.5871 37.3448 15.5964 37.3448 15.6098C37.3448 15.6142 37.3434 15.6191 37.3417 15.6244L37.135 15.9071Z" fill="#FBFBFB"/>
<path d="M37.7899 15.5791C37.7948 15.5791 37.7997 15.5804 37.8046 15.5826C37.8152 15.5884 37.821 15.5977 37.8215 15.6097C37.7779 15.9537 37.7539 16.14 37.7495 16.1675C37.7392 16.2262 37.7206 16.2746 37.6926 16.3128C37.6499 16.3706 37.5912 16.3995 37.5157 16.3995C37.4912 16.3995 37.4628 16.392 37.4303 16.3768C37.385 16.356 37.3535 16.3284 37.3366 16.2946C37.3343 16.2897 37.333 16.2848 37.333 16.2791C37.333 16.2737 37.3343 16.2684 37.3375 16.2631C37.3437 16.2524 37.353 16.2471 37.3646 16.2471C37.3739 16.2475 37.3823 16.2515 37.3886 16.26C37.4281 16.3115 37.4735 16.3373 37.525 16.3377C37.5659 16.3373 37.601 16.3195 37.6308 16.284C37.6641 16.2431 37.6841 16.1875 37.6895 16.1164C37.6792 16.1324 37.6659 16.1462 37.6503 16.1582C37.6215 16.1791 37.5899 16.1893 37.5548 16.1893C37.549 16.1893 37.5428 16.1888 37.537 16.188C37.4966 16.1822 37.4628 16.1582 37.4361 16.1155C37.4063 16.0684 37.3917 16.0093 37.3917 15.9382C37.3917 15.9057 37.393 15.8728 37.3961 15.8382C37.401 15.7844 37.413 15.708 37.4321 15.6088C37.4326 15.6057 37.4335 15.6026 37.4348 15.6C37.4401 15.5853 37.4499 15.5782 37.4632 15.5782C37.4686 15.5782 37.4735 15.5795 37.4788 15.5826C37.4895 15.5888 37.4948 15.5973 37.4948 15.608C37.4948 15.6244 37.4899 15.6648 37.4801 15.7293C37.4659 15.8244 37.4592 15.8862 37.4592 15.9151C37.4592 15.9742 37.4672 16.0222 37.4828 16.0595C37.501 16.1026 37.5272 16.1244 37.5615 16.1244C37.565 16.1244 37.5686 16.124 37.5721 16.1231C37.5979 16.1177 37.6246 16.0964 37.6517 16.0595C37.6828 16.0168 37.7046 15.968 37.7175 15.9128L37.7579 15.6093C37.7583 15.6044 37.7597 15.6 37.7619 15.596C37.7681 15.5848 37.7775 15.5791 37.7899 15.5791Z" fill="#FBFBFB"/>
<path d="M41.7645 16.6911C41.7556 16.6911 41.748 16.3275 41.748 15.8795C41.748 15.4311 41.7552 15.068 41.7645 15.068C41.7734 15.068 41.7809 15.4315 41.7809 15.8795C41.7809 16.328 41.7738 16.6911 41.7645 16.6911Z" fill="#F5F5F5"/>
<path d="M34.536 16.691C34.5271 16.691 34.5195 16.3275 34.5195 15.8795C34.5195 15.431 34.5266 15.0679 34.536 15.0679C34.5449 15.0679 34.5524 15.4315 34.5524 15.8795C34.5524 16.3279 34.5449 16.691 34.536 16.691Z" fill="#9C8459"/>
<path d="M41.9237 16.6911C41.9148 16.6911 41.9072 16.3275 41.9072 15.8795C41.9072 15.4311 41.9143 15.068 41.9237 15.068C41.9326 15.068 41.9401 15.4315 41.9401 15.8795C41.9401 16.328 41.9326 16.6911 41.9237 16.6911Z" fill="#F5F5F5"/>
<path d="M34.3895 16.6911C34.3806 16.6911 34.373 16.3276 34.373 15.8796C34.373 15.4311 34.3802 15.068 34.3895 15.068C34.3984 15.068 34.4059 15.4316 34.4059 15.8796C34.4059 16.328 34.3984 16.6911 34.3895 16.6911Z" fill="#9C8459"/>
<path d="M39.6164 15.3352L39.6151 15.3325C39.8564 15.5272 40.184 15.7916 40.5484 16.0854L40.5569 16.092L40.5467 16.0947C40.5071 16.1049 40.4649 16.116 40.4227 16.1276C40.1391 16.2018 39.8707 16.2725 39.6347 16.3343L39.6329 16.3347L39.6316 16.3343C39.3387 16.2103 39.0916 16.1054 38.9173 16.0312C38.8307 15.9943 38.7627 15.9649 38.7151 15.9445C38.692 15.9343 38.6742 15.9267 38.6618 15.9214C38.656 15.9187 38.6516 15.9169 38.648 15.9152C38.6449 15.9138 38.6436 15.9129 38.6436 15.9129C38.6436 15.9129 38.6453 15.9134 38.6484 15.9147C38.652 15.916 38.6564 15.9178 38.6622 15.92C38.6751 15.9254 38.6929 15.9325 38.716 15.9418C38.7636 15.9614 38.8324 15.9898 38.9191 16.0258C39.0938 16.0987 39.3413 16.2023 39.6351 16.3249H39.632C39.868 16.2627 40.1364 16.192 40.42 16.1169C40.4627 16.1058 40.5049 16.0947 40.544 16.0845L40.5418 16.0938C40.1782 15.7987 39.8511 15.5334 39.6102 15.3383L39.6089 15.3374V15.3356" fill="#FFFFFE"/>
<path d="M40.4635 15.9684L40.5146 16.016L40.5831 16.0013L40.5533 16.0644L40.5884 16.1249L40.5191 16.116L40.4724 16.1684L40.4595 16.0995L40.3955 16.0715L40.4568 16.0378L40.4635 15.9684Z" fill="#FFFFFE"/>
<path d="M39.5752 16.2649L39.6098 16.2942L39.6534 16.2818L39.6365 16.3236L39.6618 16.3613L39.6165 16.3582L39.5885 16.3938L39.5774 16.3502L39.5352 16.3342L39.5734 16.3102L39.5752 16.2649Z" fill="#E0E0E0"/>
<path d="M38.5801 15.8591L38.6352 15.8627L38.6694 15.8191L38.6836 15.8729L38.7356 15.892L38.6885 15.9218L38.6867 15.9773L38.6436 15.9418L38.5903 15.9569L38.6107 15.9053L38.5801 15.8591Z" fill="#FFFFFE"/>
<path d="M40.8779 15.3471L40.9335 15.3507L40.9677 15.3071L40.9815 15.3609L41.0335 15.3795L40.9868 15.4093L40.9846 15.4649L40.9419 15.4298L40.8886 15.4449L40.909 15.3933L40.8779 15.3471Z" fill="#FFFFFE"/>
<path d="M39.5811 15.3107L39.6166 15.3129L39.6384 15.2849L39.6473 15.3196L39.6806 15.3316L39.6508 15.3507L39.6495 15.3858L39.6219 15.3636L39.5882 15.3729L39.6011 15.34L39.5811 15.3107Z" fill="#E0E0E0"/>
<path d="M40.972 15.3858C40.972 15.3894 40.6698 15.3796 40.2978 15.3636C39.9254 15.3476 39.6236 15.3316 39.624 15.3281C39.624 15.3245 39.9262 15.3343 40.2982 15.3503C40.6707 15.3667 40.972 15.3823 40.972 15.3858Z" fill="#FFFFFE"/>
<path d="M41.305 15.0746H32.3482C32.2308 14.8084 32.2019 14.5555 32.3482 14.3288H41.305C41.4224 14.6004 41.4126 14.8471 41.305 15.0746Z" fill="#BDA472"/>
<path d="M39.0575 14.5422H34.2051V14.8133H39.0575V14.5422Z" fill="#D9C095"/>
<path d="M32.6959 15.0787C32.6932 15.0809 32.6612 15.0502 32.6252 14.9885C32.5892 14.9271 32.5532 14.8329 32.5435 14.724C32.5341 14.6147 32.5528 14.5156 32.5777 14.4494C32.6021 14.3822 32.6283 14.3462 32.6315 14.3485C32.6363 14.3511 32.6177 14.3902 32.5995 14.4565C32.5812 14.5227 32.5666 14.6174 32.5755 14.7214C32.5848 14.8254 32.6155 14.916 32.6452 14.9782C32.6755 15.04 32.7003 15.0756 32.6959 15.0787Z" fill="#E0E0E0"/>
<path d="M32.8893 15.0787C32.8866 15.0809 32.8546 15.0502 32.8186 14.9885C32.7826 14.9271 32.7466 14.8329 32.7368 14.724C32.7275 14.6147 32.7462 14.5156 32.771 14.4494C32.7955 14.3822 32.8217 14.3462 32.8248 14.3485C32.8297 14.3511 32.811 14.3902 32.7928 14.4565C32.7746 14.5227 32.7599 14.6174 32.7688 14.7214C32.7782 14.8254 32.8088 14.916 32.8386 14.9782C32.8688 15.04 32.8937 15.0756 32.8893 15.0787Z" fill="#E0E0E0"/>
<path d="M40.9433 15.0613C40.9335 15.0578 41.0064 14.9027 41.0064 14.6969C41.0091 14.4911 40.9375 14.3351 40.9477 14.3315C40.9535 14.3262 41.0415 14.4827 41.0393 14.6969C41.0388 14.9115 40.9491 15.0667 40.9433 15.0613Z" fill="#F5F5F5"/>
<path d="M40.7764 15.0596C40.7666 15.0573 40.8044 14.9 40.803 14.7027C40.8035 14.5053 40.7653 14.348 40.775 14.3458C40.7826 14.3431 40.8359 14.5 40.8355 14.7027C40.8368 14.9049 40.7839 15.0622 40.7764 15.0596Z" fill="#F5F5F5"/>
</g>
<g opacity="0.49">
<path d="M27.0999 37.176H8.9977C8.55815 37.176 8.20215 36.82 8.20215 36.3804V10.0196C8.20215 9.58 8.55815 9.224 8.9977 9.224H27.0999C27.5395 9.224 27.8955 9.58 27.8955 10.0196V36.3804C27.8955 36.8196 27.5395 37.176 27.0999 37.176Z" fill="#FBE8BE"/>
<path d="M27.1012 37.176C27.1012 37.176 27.1217 37.1742 27.1621 37.172C27.2026 37.1694 27.2626 37.16 27.3395 37.1378C27.4155 37.1129 27.5075 37.0711 27.5999 36.9965C27.691 36.9218 27.7826 36.8129 27.8386 36.6676C27.8684 36.5956 27.8848 36.5138 27.8901 36.4271C27.8946 36.3405 27.891 36.248 27.8919 36.1516C27.8915 35.9587 27.8915 35.7476 27.891 35.5187C27.8906 35.0614 27.8901 34.5334 27.8893 33.9396C27.8879 31.5627 27.8857 28.124 27.883 23.8751C27.8821 21.7507 27.8817 19.4231 27.8808 16.9249C27.8804 15.6756 27.8804 14.384 27.8799 13.0529C27.8799 12.3876 27.8795 11.7125 27.8795 11.028C27.879 10.6862 27.8786 10.3418 27.8781 9.99514C27.875 9.82536 27.8097 9.65825 27.7026 9.5258C27.5932 9.39514 27.4417 9.2978 27.2733 9.26136C27.1893 9.24225 27.1039 9.24047 27.015 9.2418C26.927 9.2418 26.8386 9.2418 26.7506 9.2418C26.5741 9.2418 26.3968 9.2418 26.219 9.2418C25.8635 9.2418 25.5061 9.2418 25.1466 9.2418C24.4275 9.2418 23.6999 9.2418 22.9648 9.24225C21.4946 9.24225 19.9932 9.24269 18.4648 9.24269C15.4079 9.24269 12.243 9.24314 9.00169 9.24314C8.80347 9.24269 8.60703 9.32091 8.4648 9.45736C8.32125 9.59291 8.23325 9.78447 8.22481 9.98136C8.22081 10.3822 8.22392 10.7854 8.22303 11.1854C8.22303 11.9858 8.22303 12.7814 8.22303 13.5707C8.22303 15.1498 8.22303 16.7054 8.22258 18.2342C8.22214 21.2916 8.22169 24.2409 8.22169 27.0502C8.22125 29.8596 8.22036 32.5294 8.21992 35.028C8.21992 35.3405 8.21992 35.6498 8.21947 35.9569C8.22036 36.1102 8.21769 36.264 8.22125 36.4147C8.22614 36.564 8.27769 36.7098 8.36258 36.8302C8.44747 36.9511 8.56747 37.0458 8.70258 37.1022C8.77058 37.1298 8.84169 37.1476 8.91414 37.1565C8.98614 37.1627 9.06081 37.1614 9.13458 37.1614C9.43014 37.1614 9.72303 37.1614 10.0132 37.1618C11.1728 37.1622 12.2857 37.1627 13.3484 37.1631C17.5972 37.1658 21.0359 37.1676 23.4124 37.1694C24.6004 37.1711 25.5226 37.172 26.1484 37.1729C26.4608 37.1738 26.6995 37.1742 26.8599 37.1747C27.019 37.1747 27.1012 37.176 27.1012 37.176C27.1012 37.176 27.019 37.1774 26.859 37.1778C26.6986 37.1782 26.4599 37.1787 26.1475 37.1796C25.5217 37.1805 24.599 37.1818 23.4115 37.1831C21.035 37.1845 17.5964 37.1867 13.3475 37.1894C12.2853 37.1898 11.1724 37.1902 10.0124 37.1907C9.72258 37.1907 9.42969 37.1907 9.13369 37.1911C9.05992 37.1911 8.98569 37.1929 8.91014 37.1862C8.83503 37.1769 8.76081 37.1587 8.69014 37.1302C8.54969 37.0716 8.42525 36.9734 8.33681 36.8476C8.24836 36.7222 8.19503 36.5707 8.18969 36.4156C8.18614 36.2622 8.1888 36.1102 8.18792 35.9565C8.18792 35.6494 8.18792 35.34 8.18747 35.0276C8.18703 32.5289 8.18614 29.8596 8.18569 27.0498C8.18525 24.2405 8.1848 21.2911 8.18436 18.2338C8.18436 16.7049 8.18436 15.1494 8.18392 13.5702C8.18392 12.7809 8.18392 11.9854 8.18392 11.1849C8.18481 10.784 8.18169 10.384 8.18569 9.97914C8.19458 9.77291 8.28658 9.57158 8.43725 9.4298C8.58658 9.28625 8.7928 9.20402 9.00036 9.20491C12.2421 9.20491 15.407 9.20536 18.4635 9.20536C19.9919 9.20536 21.4932 9.2058 22.9635 9.2058C23.6986 9.2058 24.4261 9.2058 25.1453 9.20625C25.5048 9.20625 25.8626 9.20625 26.2177 9.20625C26.3955 9.20625 26.5728 9.20625 26.7492 9.20625C26.8377 9.20625 26.9257 9.20625 27.0137 9.20625C27.1008 9.20536 27.1924 9.20669 27.2799 9.22714C27.4555 9.2658 27.6141 9.36714 27.7284 9.50402C27.8404 9.64269 27.9084 9.81691 27.9115 9.99425C27.9119 10.3409 27.9124 10.6858 27.9124 11.028C27.9124 11.7125 27.9119 12.3876 27.9119 13.0529C27.9115 14.3836 27.9115 15.6756 27.911 16.9249C27.9101 19.4231 27.9093 21.7502 27.9088 23.8751C27.9061 28.124 27.9044 31.5627 27.9026 33.9396C27.9021 34.5338 27.9013 35.0614 27.9008 35.5187C27.9004 35.7476 27.9004 35.9587 27.8999 36.1516C27.8986 36.248 27.9021 36.34 27.8972 36.4276C27.8915 36.5151 27.8741 36.5978 27.8444 36.6702C27.787 36.8169 27.6941 36.9262 27.6021 37.0009C27.5088 37.0751 27.4159 37.1169 27.3395 37.1414C27.2621 37.1631 27.2017 37.172 27.1612 37.1738C27.1217 37.1756 27.1012 37.176 27.1012 37.176Z" fill="#DAA838"/>
<g opacity="0.3">
<path d="M9.91992 36.5445H26.4484L26.267 33.1067V31.2765L9.91992 33.8311V36.5445Z" fill="#040000"/>
</g>
<g opacity="0.3">
<path d="M23.0177 9.28089L23.3933 10.3951V10.9409H22.9697L23.0177 9.28089Z" fill="#040000"/>
</g>
<path d="M9.08203 10.344V36.0204H22.4771H27.0189V10.344H9.08203Z" fill="white"/>
<path d="M27.0205 31.4294C27.0205 31.4294 27.0196 31.396 27.0191 31.3307C27.0187 31.2649 27.0182 31.1676 27.0178 31.0391C27.0173 30.7814 27.0165 30.3996 27.0151 29.9027C27.0142 28.9076 27.0125 27.4502 27.0102 25.6005C27.0085 21.9 27.0062 16.6289 27.0036 10.3445L27.0205 10.3614C21.7209 10.3618 15.588 10.3627 9.08356 10.3636L9.10268 10.3445C9.10268 10.3516 9.10268 10.3596 9.10268 10.3671C9.1009 20.2378 9.09912 29.2516 9.09779 36.0209L9.08356 36.0067C13.2098 36.0094 16.5587 36.0116 18.876 36.0129C20.0342 36.0147 20.9347 36.016 21.5462 36.0169C21.8516 36.0178 22.0845 36.0187 22.2413 36.0191C22.3982 36.02 22.4782 36.0214 22.4782 36.0214C22.4782 36.0214 22.3978 36.0227 22.2413 36.0236C22.0845 36.024 21.8511 36.0249 21.5462 36.0258C20.9347 36.0267 20.0342 36.028 18.876 36.0298C16.5587 36.0311 13.2098 36.0334 9.08356 36.036H9.06934V36.0218C9.06801 29.2525 9.06623 20.2387 9.06445 10.368C9.06445 10.36 9.06445 10.3525 9.06445 10.3454V10.3262H9.08356C15.588 10.3271 21.7209 10.3276 27.0205 10.3285H27.0373V10.3454C27.0347 16.6298 27.032 21.9009 27.0307 25.6014C27.0285 27.4511 27.0271 28.9085 27.0258 29.9036C27.0245 30.4009 27.024 30.7822 27.0231 31.04C27.0227 31.1685 27.0222 31.2658 27.0218 31.3316C27.0213 31.396 27.0205 31.4294 27.0205 31.4294Z" fill="#DAA838"/>
<path d="M23.0179 11.16H13.9424V8.80889C13.9424 8.65378 14.0682 8.52755 14.2237 8.52755H22.737C22.8922 8.52755 23.0184 8.65333 23.0184 8.80889V11.16H23.0179Z" fill="#BDA472"/>
<path d="M19.6354 7.53778H17.3252L17.5954 9.51778H19.3354L19.6354 7.53778Z" fill="#BDA472"/>
<path d="M22.4371 8.52759C22.4371 8.53826 20.6665 8.5467 18.4825 8.5467C16.298 8.5467 14.5273 8.53826 14.5273 8.52759C14.5273 8.51692 16.2976 8.50848 18.4825 8.50848C20.6665 8.50848 22.4371 8.51737 22.4371 8.52759Z" fill="#483818"/>
<path d="M14.1431 10.7351C14.1325 10.7351 14.124 10.3627 14.124 9.90355C14.124 9.444 14.1325 9.072 14.1431 9.072C14.1538 9.072 14.1622 9.44444 14.1622 9.90355C14.1622 10.3631 14.1538 10.7351 14.1431 10.7351Z" fill="#483818"/>
<path d="M22.7242 10.5382C22.7135 10.5382 22.7051 10.2 22.7051 9.78311C22.7051 9.36623 22.7135 9.028 22.7242 9.028C22.7349 9.028 22.7433 9.36578 22.7433 9.78311C22.7433 10.2004 22.7349 10.5382 22.7242 10.5382Z" fill="#483818"/>
<path d="M22.2896 10.8885C22.2896 10.8991 20.4718 10.9076 18.2305 10.9076C15.9878 10.9076 14.1709 10.8991 14.1709 10.8885C14.1709 10.8778 15.9882 10.8694 18.2305 10.8694C20.4722 10.8694 22.2896 10.8778 22.2896 10.8885Z" fill="#483818"/>
<path d="M24.7466 15.2716H14.8408V15.8804H24.7466V15.2716Z" fill="#E0CB99"/>
<path d="M19.3346 16.5156H14.8408V17.12H19.3346V16.5156Z" fill="#E0CB99"/>
<g opacity="0.81">
<path d="M13.6607 17.3018H11.7135C11.6189 17.3018 11.542 17.2249 11.542 17.1302V15.1835C11.542 15.0889 11.6189 15.012 11.7135 15.012H13.6607C13.7553 15.012 13.8322 15.0889 13.8322 15.1835V17.1302C13.8322 17.2249 13.7553 17.3018 13.6607 17.3018Z" fill="#DECCA4"/>
</g>
<path d="M12.6545 16.7022L12.0127 16.2067L12.186 15.9827L12.6163 16.3151L13.2278 15.6111L13.4416 15.7969L12.6545 16.7022Z" fill="white"/>
<path d="M24.7466 19.0418H14.8408V19.6507H24.7466V19.0418Z" fill="#E0CB99"/>
<path d="M19.3346 20.2853H14.8408V20.8902H19.3346V20.2853Z" fill="#E0CB99"/>
<g opacity="0.81">
<path d="M13.6607 21.072H11.7135C11.6189 21.072 11.542 20.9951 11.542 20.9004V18.9538C11.542 18.8591 11.6189 18.7822 11.7135 18.7822H13.6607C13.7553 18.7822 13.8322 18.8591 13.8322 18.9538V20.9004C13.8322 20.9951 13.7553 21.072 13.6607 21.072Z" fill="#DECCA4"/>
</g>
<path d="M12.6545 20.4724L12.0127 19.9764L12.186 19.7524L12.6163 20.0849L13.2278 19.3809L13.4416 19.5666L12.6545 20.4724Z" fill="white"/>
<path d="M24.7466 23.0809H14.8408V23.6898H24.7466V23.0809Z" fill="#E0CB99"/>
<path d="M19.3346 24.3249H14.8408V24.9298H19.3346V24.3249Z" fill="#E0CB99"/>
<path d="M24.7466 26.8151H14.8408V27.424H24.7466V26.8151Z" fill="#E0CB99"/>
<path d="M19.3346 28.0591H14.8408V28.664H19.3346V28.0591Z" fill="#E0CB99"/>
<g opacity="0.81">
<path d="M13.6607 25.1111H11.7135C11.6189 25.1111 11.542 25.0342 11.542 24.9396V22.9924C11.542 22.8978 11.6189 22.8209 11.7135 22.8209H13.6607C13.7553 22.8209 13.8322 22.8978 13.8322 22.9924V24.9396C13.8322 25.0342 13.7553 25.1111 13.6607 25.1111Z" fill="#DECCA4"/>
</g>
<path d="M12.6545 24.5115L12.0127 24.016L12.186 23.792L12.6163 24.1244L13.2278 23.4204L13.4416 23.6062L12.6545 24.5115Z" fill="white"/>
<g opacity="0.81">
<path d="M13.5328 28.9907H11.8426C11.6559 28.9907 11.5039 28.8387 11.5039 28.6516V26.9613C11.5039 26.7747 11.6559 26.6227 11.8426 26.6227H13.5328C13.7195 26.6227 13.8715 26.7747 13.8715 26.9613V28.6516C13.8719 28.8387 13.7199 28.9907 13.5328 28.9907ZM11.8426 26.7004C11.6986 26.7004 11.5812 26.8178 11.5812 26.9618V28.652C11.5812 28.796 11.6986 28.9133 11.8426 28.9133H13.5328C13.6768 28.9133 13.7941 28.796 13.7941 28.652V26.9618C13.7941 26.8178 13.6768 26.7004 13.5328 26.7004H11.8426Z" fill="#DECCA4"/>
</g>
<path d="M24.7466 31.0867H14.8408V31.6955H24.7466V31.0867Z" fill="#E0CB99"/>
<path d="M19.3346 32.3307H14.8408V32.9355H19.3346V32.3307Z" fill="#E0CB99"/>
<g opacity="0.81">
<path d="M13.5328 33.2622H11.8426C11.6559 33.2622 11.5039 33.1102 11.5039 32.9231V31.2329C11.5039 31.0462 11.6559 30.8942 11.8426 30.8942H13.5328C13.7195 30.8942 13.8715 31.0462 13.8715 31.2329V32.9231C13.8719 33.1102 13.7199 33.2622 13.5328 33.2622ZM11.8426 30.972C11.6986 30.972 11.5812 31.0893 11.5812 31.2333V32.9236C11.5812 33.0676 11.6986 33.1849 11.8426 33.1849H13.5328C13.6768 33.1849 13.7941 33.0676 13.7941 32.9236V31.2333C13.7941 31.0893 13.6768 30.972 13.5328 30.972H11.8426Z" fill="#DECCA4"/>
</g>
<path opacity="0.81" d="M23.5249 12.9138H13.6484V13.7591H23.5249V12.9138Z" fill="#DECCA4"/>
</g>
<path d="M28.5826 11.5716C29.1008 11.324 29.7586 11.6267 30.0537 12.1191C30.3488 12.6116 30.3488 13.2293 30.2346 13.792C30.1266 14.3249 29.951 14.9596 30.3306 15.3489C30.6279 15.6538 31.1719 15.6716 31.3826 16.0418C31.6853 16.5738 31.0062 17.1964 31.099 17.8009C31.1577 18.1831 31.5119 18.4489 31.8662 18.6036C32.2204 18.7582 32.6106 18.8507 32.9142 19.0902C33.2177 19.3298 33.4004 19.792 33.1768 20.1076C32.5173 20.3151 31.8573 20.5227 31.1977 20.7302C31.0635 20.4982 30.9293 20.2658 30.7946 20.0338C30.9337 20.3276 30.871 20.6867 30.7048 20.9662C30.5386 21.2458 30.2822 21.4591 30.0195 21.6507C28.9946 22.3996 27.7519 22.9196 26.4844 22.8493" fill="#382B22"/>
<path d="M19.9675 12.6027C19.9524 12.0743 20.4413 11.6658 20.9333 11.472C21.4253 11.2783 21.9724 11.2054 22.4111 10.9103C22.7995 10.6489 23.0604 10.2409 23.3893 9.90759C24.196 9.08981 25.4551 8.7507 26.5635 9.05337C27.6715 9.35559 28.5844 10.2871 28.864 11.4014C29.0529 12.1543 28.924 13.044 28.3307 13.5445C27.6418 14.1249 26.6209 13.996 25.7382 13.8156C24.8555 13.6351 23.8569 13.4569 23.12 13.9751C22.6755 14.2876 22.4209 14.796 22.1493 15.2667C21.8778 15.7374 21.5369 16.2174 21.0231 16.3943C20.5093 16.5711 19.812 16.2658 19.792 15.7227" fill="#382B22"/>
<path d="M20.0017 12.8929C20.06 13.336 19.7391 13.7324 19.42 14.0453C19.1008 14.3582 18.7404 14.6898 18.684 15.1333C18.6182 15.6511 18.996 16.1613 18.8866 16.6715C18.8168 16.9955 18.5653 17.2449 18.4124 17.5391C18.1977 17.952 18.1866 18.4511 18.3182 18.8973C18.4497 19.3435 18.6595 20.34 18.9697 20.6867C19.8275 21.6458 21.1933 22.4729 22.4471 22.7613C23.7008 23.0493 25.0035 23.0511 26.2875 22.972C27.3386 22.9071 28.5475 22.9555 29.4235 21.5093C29.8773 20.7604 30.1022 19.7644 30.3431 18.9227C30.5506 18.1978 30.7302 17.4213 30.5142 16.6991C30.3884 16.2782 30.1351 15.904 30.0111 15.4827C29.856 14.956 29.9124 14.3929 29.8502 13.848C29.7151 12.6675 28.9826 11.5711 27.944 10.9942C26.9053 10.4178 25.5871 10.376 24.5137 10.8862" fill="#382B22"/>
<path d="M29.3477 14.7094C29.2495 13.2009 28.2455 11.3521 26.7428 11.5143L22.0513 12.7112C21.5948 12.7605 21.2517 13.1512 21.2619 13.6103L21.5668 23.9178C21.6108 25.4112 22.8513 26.5894 24.3451 26.5569C25.8224 26.5249 27.0037 25.3192 27.0064 23.8418C27.0077 23.1072 27.0082 22.2418 27.0086 22.2454C27.0086 22.2454 28.9353 21.9209 29.3291 19.4054C29.5246 18.1538 29.4571 16.3854 29.3477 14.7094Z" fill="#F4D5C9"/>
<path d="M26.7653 18.4205C26.7635 18.401 26.9791 18.3632 27.3289 18.3174C27.4173 18.3081 27.5013 18.2903 27.516 18.2299C27.5369 18.1659 27.4995 18.0703 27.4564 17.9672C27.3724 17.753 27.2849 17.5285 27.1929 17.293C26.8267 16.333 26.5618 15.5436 26.6004 15.529C26.6391 15.5147 26.9675 16.281 27.3338 17.241C27.4218 17.4779 27.5062 17.7032 27.5862 17.9192C27.62 18.0196 27.6778 18.1339 27.6329 18.2667C27.6093 18.333 27.544 18.3814 27.4875 18.3965C27.4307 18.4139 27.3809 18.4152 27.3369 18.4179C26.9849 18.4383 26.7667 18.4405 26.7653 18.4205Z" fill="#382B22"/>
<path d="M23.6719 21.3502C23.6719 21.3502 24.4905 23.0778 27.007 22.8369L27.0079 22.2454C27.0079 22.2454 25.3505 22.3542 23.6719 21.3502Z" fill="#D2B0A5"/>
<path d="M25.7353 18.6631C25.7918 18.6595 25.7936 19.0364 26.1162 19.3031C26.4385 19.5706 26.8402 19.5275 26.8433 19.58C26.8487 19.6035 26.754 19.6533 26.5847 19.6582C26.4185 19.6644 26.1753 19.6115 25.978 19.4484C25.7811 19.2849 25.6958 19.0662 25.6829 18.912C25.6678 18.7542 25.7096 18.6609 25.7353 18.6631Z" fill="#382B22"/>
<path d="M25.5753 14.8334C25.5415 14.9276 25.1949 14.8841 24.7878 14.9338C24.3798 14.9756 24.0518 15.0956 23.9975 15.0112C23.9735 14.9707 24.0304 14.8818 24.1629 14.7903C24.2944 14.6987 24.5042 14.6116 24.7487 14.5841C24.9931 14.557 25.2171 14.5952 25.3655 14.6552C25.5149 14.7143 25.59 14.7885 25.5753 14.8334Z" fill="#382B22"/>
<path d="M28.7805 14.7728C28.7196 14.8519 28.4805 14.7706 28.1929 14.767C27.9053 14.7537 27.6622 14.8212 27.6058 14.739C27.5813 14.699 27.6191 14.6199 27.7253 14.5452C27.8302 14.4706 28.0053 14.4097 28.2027 14.415C28.4 14.4208 28.5716 14.4919 28.6716 14.5723C28.7738 14.6532 28.8076 14.7346 28.7805 14.7728Z" fill="#382B22"/>
<path d="M20.2969 20.9854C20.9884 21.1249 21.7418 20.912 22.2587 20.432C22.7755 19.9516 23.0422 19.216 22.9538 18.516C22.8755 17.8982 22.5427 17.2698 22.7569 16.6854C23.04 15.9125 24.1235 15.6747 24.4111 14.9031C24.5782 14.4547 24.428 13.9302 24.6178 13.4911C24.796 13.0778 25.2307 12.84 25.6533 12.6871C26.0764 12.5342 26.5298 12.4285 26.8853 12.1525C27.2404 11.8765 27.4622 11.3551 27.2329 10.968C25.3569 11.1929 23.5075 11.6422 21.7373 12.3031C21.3271 12.4565 20.8955 12.6405 20.6533 13.0054C20.3964 13.3916 20.4089 13.8902 20.4307 14.3534C20.536 16.6116 20.6413 18.8698 20.7467 21.128" fill="#263138"/>
<path d="M27.3045 10.016C27.3694 10.6497 27.4329 11.3017 27.26 11.9151C27.0871 12.5284 26.6205 13.1026 25.992 13.2075C25.6942 13.2573 25.3605 13.2075 25.1156 13.384C24.596 13.7582 25.0213 14.6355 24.7151 15.1977C24.4405 15.7017 23.7022 15.7471 23.3365 16.1893C22.9329 16.6764 23.1413 17.4106 23.4231 17.9773C23.7049 18.5435 24.0525 19.1671 23.8645 19.7711C23.6542 20.4462 22.848 20.8044 22.6498 21.4831C22.5222 21.9204 22.6565 22.4591 22.344 22.7902C22.1027 23.0462 21.7022 23.0511 21.352 23.0191C19.9151 22.8875 18.508 22.4369 17.2622 21.7084C17.4738 21.3609 17.5916 20.9573 17.5996 20.5506C17.3649 20.7217 17.1302 20.8924 16.8956 21.0635C16.3547 20.3893 15.8133 19.7151 15.2725 19.0409C15.5969 18.2164 16.2734 17.5377 17.0965 17.2102C17.5871 17.0151 18.216 16.8493 18.3311 16.3337C18.3947 16.0484 18.0525 15.5289 18.2374 14.8662C18.2374 14.8662 18.5462 13.6044 19.2765 13.2484C20.0067 12.8924 19.9054 12.6795 20.0649 12.1933" fill="#382B22"/>
<path d="M15.6709 18.8329C15.6718 18.816 15.8976 18.8236 16.302 18.828C16.5038 18.8284 16.7513 18.8271 17.0336 18.7942C17.3149 18.7609 17.634 18.6973 17.9513 18.5453C18.1096 18.4693 18.2665 18.3724 18.4118 18.2507C18.5549 18.1276 18.6882 17.98 18.7847 17.804C18.8833 17.6293 18.9411 17.4284 18.9731 17.2093C19.0073 16.9911 19.0193 16.7578 19.0558 16.5133C19.0945 16.2689 19.1589 16.0124 19.3078 15.7796C19.3807 15.6636 19.4802 15.5573 19.5989 15.4751C19.7189 15.3942 19.8553 15.3427 19.9918 15.3111C20.2656 15.2476 20.5376 15.2538 20.7953 15.2236C21.0522 15.196 21.2989 15.1262 21.4633 14.9422C21.6318 14.7627 21.722 14.512 21.7762 14.26C21.8305 14.008 21.8487 13.74 21.9007 13.4756C21.9505 13.2129 22.0389 12.9413 22.2113 12.7249C22.2967 12.6178 22.3967 12.5258 22.5042 12.4489C22.6118 12.372 22.7282 12.3138 22.8451 12.2649C23.3176 12.0756 23.8069 12.0738 24.234 12.1187C24.6642 12.1618 25.0536 12.2329 25.41 12.2476C25.5873 12.2556 25.7576 12.2524 25.914 12.2333C26.0705 12.2138 26.2158 12.176 26.3469 12.1284C26.61 12.0333 26.8131 11.8938 26.9496 11.7538C27.0882 11.6142 27.1611 11.4756 27.1993 11.3791C27.2389 11.2822 27.2518 11.2267 27.2616 11.2289C27.2669 11.2293 27.2696 11.2876 27.242 11.3938C27.2162 11.4996 27.1518 11.6542 27.0136 11.8133C26.8776 11.9729 26.6678 12.1329 26.3922 12.2458C26.2549 12.3027 26.1011 12.3484 25.934 12.3751C25.7665 12.4018 25.59 12.4098 25.4047 12.4067C25.0345 12.4018 24.6376 12.3387 24.2176 12.3044C24.0069 12.2871 23.7922 12.2804 23.5736 12.3004C23.3553 12.3227 23.1331 12.3684 22.9238 12.456C22.7149 12.5427 22.5216 12.6751 22.3807 12.8564C22.2393 13.0369 22.1625 13.2684 22.1167 13.5169C22.0682 13.7658 22.0527 14.0307 21.9945 14.3067C21.9358 14.5778 21.8398 14.8662 21.6269 15.0956C21.5216 15.2089 21.3869 15.2978 21.2451 15.3502C21.1038 15.404 20.9598 15.4293 20.8207 15.4449C20.5429 15.4756 20.2785 15.4698 20.0416 15.5244C19.9238 15.5511 19.8145 15.5929 19.7207 15.6547C19.6287 15.7178 19.5491 15.7996 19.4878 15.8956C19.3625 16.0867 19.2985 16.3178 19.2602 16.5449C19.2225 16.7747 19.2073 17.0098 19.1678 17.2404C19.1309 17.4707 19.062 17.6996 18.946 17.8956C18.8331 18.0924 18.6811 18.2529 18.522 18.3836C18.3602 18.5129 18.1887 18.6124 18.0176 18.6889C17.6736 18.8418 17.3358 18.896 17.0451 18.9187C16.7527 18.94 16.502 18.9284 16.2985 18.9147C15.8918 18.884 15.67 18.8467 15.6709 18.8329Z" fill="#271B12"/>
<path d="M32.1233 39.764L32.5864 44.5396L18.0469 44.5342L20.8558 38.864L32.1233 39.764Z" fill="#F8DF88"/>
<path d="M32.5654 34.1778L35.3943 38.3467C35.3943 38.3467 35.9725 33.7707 36.0259 33.8733C36.0792 33.976 32.8552 29.4911 32.8552 29.4911L32.5654 34.1778Z" fill="#D2B0A5"/>
<path d="M20.8858 24.036C20.7733 24.036 17.168 25.5036 16.7556 26.1778C16.3436 26.852 18.92 39.556 18.92 39.556L32.124 39.8276L32.2542 33.7582L33.2387 25.6369L27.7791 23.7969L27.0511 23.1627L25.572 25.7365L21.5085 23.1325L20.8858 24.036Z" fill="#F8DF88"/>
<g opacity="0.3">
<path d="M20.335 44.1178C21.2105 43.8898 21.9323 43.2467 22.4341 42.4942C22.9363 41.7418 23.2452 40.88 23.5412 40.0253C23.8372 39.1707 24.1296 38.3049 24.6034 37.5347C24.9527 36.9671 25.3941 36.4627 25.8327 35.9609C26.0421 35.7218 26.255 35.4796 26.5225 35.3076C26.8541 35.0942 27.2479 35.0036 27.6323 34.916C28.3065 34.7631 28.9803 34.6098 29.6545 34.4569C29.907 34.3996 30.1652 34.34 30.3843 34.2022C30.6034 34.0644 30.7803 33.8307 30.779 33.572C29.7705 33.6742 28.7514 33.6427 27.7439 33.7507C26.7359 33.8587 25.7127 34.1213 24.9079 34.7373C24.0967 35.3578 23.5767 36.2822 23.1692 37.2187C22.179 39.4951 21.7154 42.0098 20.4047 44.1182" fill="#040000"/>
</g>
<path d="M16.7565 26.1778C16.7565 26.1778 15.661 26.896 15.3738 29.1835C15.1605 30.8831 14.7334 35.6942 14.7334 35.6942L19.9427 35.2591L16.7565 26.1778Z" fill="#F8DF88"/>
<path d="M14.7334 35.6947C14.7334 35.6938 14.7423 35.6924 14.7596 35.6902C14.7796 35.688 14.805 35.6853 14.837 35.6813C14.9081 35.6742 15.0076 35.6644 15.1347 35.6524C15.3965 35.6289 15.7703 35.5951 16.2307 35.5538C17.1592 35.4747 18.4365 35.3653 19.8476 35.2449C19.8796 35.2422 19.9112 35.2396 19.941 35.2373L19.9205 35.2627C19.737 33.8791 19.5716 32.6311 19.4516 31.7253C19.3943 31.276 19.3476 30.9116 19.3152 30.656C19.3005 30.532 19.2885 30.4347 19.2805 30.3653C19.2774 30.3342 19.2747 30.3093 19.2725 30.2898C19.2712 30.2729 19.2707 30.264 19.2712 30.264C19.2721 30.264 19.2738 30.2724 19.277 30.2893C19.2801 30.3089 19.2841 30.3333 19.2894 30.3644C19.2996 30.4338 19.3143 30.5307 19.3325 30.6542C19.3685 30.9093 19.4201 31.2729 19.4832 31.7218C19.6067 32.6271 19.777 33.8747 19.9654 35.2573L19.9685 35.2809L19.945 35.2827C19.9156 35.2853 19.8836 35.288 19.8516 35.2907C18.4401 35.4062 17.1623 35.5107 16.2334 35.5862C15.7725 35.6218 15.3983 35.6507 15.1361 35.6707C15.009 35.6796 14.909 35.6862 14.8374 35.6916C14.8054 35.6933 14.7796 35.6947 14.7596 35.696C14.7427 35.6951 14.7334 35.6951 14.7334 35.6947Z" fill="#DAC172"/>
<path d="M25.5298 25.7027C25.5293 25.7044 25.4995 25.6964 25.4444 25.6796C25.3849 25.6604 25.3053 25.6347 25.2067 25.6031C24.9969 25.5329 24.7058 25.4356 24.356 25.3187L24.3782 25.3107C24.2573 25.5151 24.1231 25.7422 23.9795 25.9849L23.9693 26.0018L23.9515 25.9929C23.7431 25.8916 23.5204 25.7787 23.2924 25.6573C22.6191 25.2996 22.0342 24.932 21.6204 24.6529C21.4133 24.5138 21.2493 24.3956 21.1364 24.3133C21.0835 24.2738 21.0413 24.2413 21.008 24.2164C20.9791 24.1938 20.964 24.1813 20.9649 24.1804C20.9658 24.1791 20.9822 24.1893 21.0129 24.2093C21.0471 24.2324 21.0915 24.2622 21.1462 24.2991C21.2622 24.3769 21.4284 24.4907 21.6378 24.6262C22.0551 24.8982 22.6418 25.2604 23.3133 25.6173C23.5404 25.7382 23.7627 25.8516 23.9702 25.9533L23.9422 25.9618C24.0875 25.72 24.2235 25.4942 24.3458 25.2907L24.3538 25.2773L24.368 25.2822C24.7155 25.4053 25.0053 25.508 25.2138 25.5818C25.3111 25.6173 25.3893 25.6462 25.4484 25.668C25.5022 25.6889 25.5307 25.7009 25.5298 25.7027Z" fill="#DAC172"/>
<path d="M27.7146 23.8165C27.7159 23.8165 27.7155 23.8311 27.7133 23.8582C27.7106 23.8854 27.7075 23.9254 27.6999 23.9765C27.6862 24.0791 27.6617 24.2271 27.6164 24.4067C27.571 24.5862 27.5062 24.7978 27.4119 25.024C27.3648 25.1369 27.3106 25.2542 27.2488 25.3725C27.2177 25.4316 27.1848 25.4911 27.1502 25.5502C27.1333 25.58 27.1146 25.6111 27.0884 25.6391C27.0635 25.6667 27.023 25.6929 26.9777 25.688C26.9333 25.6831 26.9004 25.6565 26.8742 25.6316C26.8475 25.6054 26.8262 25.5787 26.8039 25.5529C26.7595 25.5009 26.7155 25.4494 26.6719 25.3991C26.5857 25.2982 26.5026 25.2009 26.4235 25.108C26.3844 25.0627 26.3435 25.0205 26.2964 24.996C26.2497 24.9698 26.1973 24.9738 26.1582 25.0045C26.1182 25.0342 26.0888 25.0782 26.0582 25.1178C26.0279 25.1578 25.9986 25.1965 25.9706 25.2334C25.8617 25.3756 25.7715 25.4929 25.7044 25.58C25.675 25.6169 25.6506 25.6476 25.6302 25.6729C25.6128 25.6938 25.603 25.7045 25.6017 25.7036C25.6004 25.7027 25.6079 25.6902 25.6226 25.6676C25.6408 25.6409 25.663 25.6085 25.6902 25.5698C25.7546 25.48 25.8404 25.36 25.9448 25.2142C25.9719 25.1769 26.0004 25.1378 26.0302 25.0969C26.0599 25.0569 26.0888 25.0111 26.1355 24.9742C26.1813 24.9351 26.259 24.9285 26.3137 24.9605C26.3702 24.9894 26.4133 25.0342 26.4546 25.0805C26.5346 25.1729 26.6186 25.2698 26.7053 25.3702C26.7488 25.4205 26.7928 25.4716 26.8377 25.5236C26.8822 25.5738 26.9262 25.636 26.9817 25.6431C27.0368 25.6489 27.079 25.584 27.111 25.5276C27.1457 25.4689 27.1782 25.4102 27.2097 25.352C27.2715 25.2351 27.3257 25.1196 27.3737 25.008C27.4693 24.7845 27.5368 24.576 27.5857 24.3987C27.6346 24.2214 27.6639 24.0751 27.683 23.9738C27.7017 23.8725 27.711 23.816 27.7146 23.8165Z" fill="#DAC172"/>
<path d="M30.1285 37.7409C30.1342 37.7516 28.9911 38.392 27.5751 39.1711C26.1587 39.9502 25.0058 40.5733 25 40.5622C24.9942 40.5516 26.1369 39.9111 27.5538 39.1316C28.9698 38.3529 30.1227 37.7298 30.1285 37.7409Z" fill="#DAC172"/>
<path d="M29.3395 40.2578C29.3399 40.2702 28.6039 40.3196 27.6955 40.368C26.7866 40.4164 26.0497 40.4458 26.0488 40.4333C26.0484 40.4209 26.7839 40.3716 27.6928 40.3231C28.6017 40.2747 29.3386 40.2453 29.3395 40.2578Z" fill="#DAC172"/>
<path d="M32.7601 34.3187L32.0205 33.5582L32.7627 29.6684L33.505 32.2791L32.7601 34.3187Z" fill="#F8DF88"/>
<path d="M32.1057 39.5418C32.1049 39.5418 32.1044 39.5351 32.104 39.5218C32.104 39.5058 32.104 39.4867 32.1035 39.4631C32.1044 39.408 32.1053 39.3329 32.1062 39.2382C32.1102 39.0391 32.1155 38.7573 32.1222 38.4115C32.136 37.7138 32.1551 36.7493 32.1666 35.6844C32.1777 34.6191 32.176 33.6547 32.1582 32.9573C32.1506 32.6084 32.136 32.3267 32.1249 32.132C32.1177 32.0378 32.1124 31.9631 32.1084 31.908C32.1071 31.8844 32.1062 31.8653 32.1053 31.8498C32.1049 31.8364 32.1049 31.8298 32.1057 31.8298C32.1066 31.8298 32.108 31.8364 32.1097 31.8493C32.112 31.8649 32.1142 31.884 32.1173 31.9071C32.1235 31.9622 32.1315 32.0364 32.1422 32.1307C32.1591 32.3253 32.1786 32.6075 32.1897 32.9564C32.2155 33.6547 32.2222 34.6195 32.2115 35.6853C32.2 36.7507 32.176 37.7151 32.1537 38.4129C32.1413 38.7587 32.1311 39.04 32.1235 39.2391C32.1186 39.3338 32.1151 39.4084 32.1124 39.4635C32.1106 39.4871 32.1093 39.5062 32.1084 39.5218C32.1075 39.5351 32.1066 39.5418 32.1057 39.5418Z" fill="#DAC172"/>
<path d="M29.6185 23.5409C29.6185 23.5409 29.3642 23.4422 29.1593 23.6342C28.9544 23.8262 28.9802 24.044 29.0442 24.2489C29.1082 24.4538 29.2362 24.5178 29.2362 24.5178L30.0816 24.1209L29.6185 23.5409Z" fill="#D2B0A5"/>
<path d="M28.848 24.8822C28.848 24.8822 28.4943 25.1244 28.4814 25.1978C28.472 25.2502 28.5365 25.3169 28.6369 25.2827C28.724 25.2529 28.9689 25.1053 28.9689 25.1053L28.848 24.8822Z" fill="#DB4F58"/>
<path d="M28.848 24.8822C28.848 24.8822 28.4943 25.1244 28.4814 25.1978C28.472 25.2502 28.5365 25.3169 28.6369 25.2827C28.724 25.2529 28.9689 25.1053 28.9689 25.1053L28.848 24.8822Z" fill="#C79A1F"/>
<path d="M29.6831 23.9884L28.708 24.908L28.9249 25.2093L29.9782 24.8333L35.3556 21.7813C35.5525 21.6693 35.6156 21.4151 35.4933 21.2244C35.3813 21.0493 35.1525 20.9907 34.9702 21.0907L29.6831 23.9884Z" fill="#938144"/>
<path d="M39.9565 35.5564C39.8965 34.6836 34.4272 27.1298 34.0854 26.6582L33.1396 24.6973L32.7383 23.0449C32.7383 23.0449 30.5916 21.8093 30.4218 21.8093C30.2521 21.8093 29.4183 22.8747 29.4027 23.0449C29.3872 23.2151 29.5107 23.3382 29.5107 23.3382L29.6187 24.4191C29.6187 24.4191 29.4952 24.6587 29.5881 24.8787C29.6805 25.0987 30.0512 25.0987 30.0512 25.0987L29.9121 25.5662C29.9121 25.5662 29.9427 26.0867 30.0356 26.1796C30.0716 26.2156 30.2543 26.2413 30.4578 26.2036C30.6356 26.1707 30.6854 25.9116 30.6769 25.7871C30.7343 25.8796 30.9276 25.7867 30.9276 25.7867C30.9463 26.0062 31.1752 26.1702 31.1752 26.1702C31.1752 26.1702 31.5027 27.492 31.5489 27.6618C31.5952 27.8316 31.8885 28.264 32.3209 28.4187C32.3596 28.4324 32.3947 28.448 32.4276 28.4636C32.7441 29.6489 34.9307 37.7991 35.3916 38.3462C35.8889 38.9364 37.2356 39.3062 38.4472 39.2444C39.6592 39.1827 40.0187 36.4573 39.9565 35.5564Z" fill="#F4D5C9"/>
<path d="M31.5757 22.8502C31.5757 22.8564 31.4592 22.8635 31.2708 22.8698C31.0823 22.876 30.8219 22.8809 30.5343 22.8818C30.3903 22.8822 30.2534 22.8818 30.1286 22.8791C30.0663 22.8778 30.0068 22.876 29.9508 22.8729C29.8997 22.8684 29.8521 22.8853 29.8117 22.9053C29.7299 22.9466 29.6735 22.9991 29.6348 23.0333C29.5961 23.0684 29.5761 23.0898 29.5734 23.0875C29.5712 23.0858 29.5868 23.0609 29.6223 23.0209C29.6583 22.9822 29.7121 22.9253 29.797 22.8773C29.8392 22.8546 29.8926 22.8329 29.953 22.836C30.0077 22.8378 30.0668 22.8382 30.129 22.8382C30.2548 22.8378 30.3912 22.8378 30.5339 22.8373C30.8152 22.8378 31.0694 22.8382 31.2699 22.8382C31.4592 22.84 31.5757 22.844 31.5757 22.8502Z" fill="#D2B0A5"/>
<path d="M30.9309 22.8502C30.9291 22.8551 30.8798 22.8418 30.8131 22.7964C30.746 22.7524 30.6629 22.6796 30.5825 22.5884C30.574 22.5787 30.566 22.5689 30.558 22.5596L30.5954 22.536C30.61 22.5689 30.606 22.6036 30.5976 22.6311C30.5878 22.6587 30.574 22.6822 30.5594 22.7022C30.5296 22.7427 30.4976 22.7729 30.47 22.7964C30.4145 22.8431 30.3749 22.864 30.3714 22.8596C30.3678 22.8547 30.4002 22.8258 30.4491 22.7747C30.4731 22.7489 30.5016 22.7178 30.526 22.68C30.5505 22.6431 30.5722 22.5942 30.5549 22.5551L30.4922 22.4147L30.5927 22.5316C30.6003 22.5404 30.6082 22.5498 30.6162 22.5591C30.6945 22.648 30.7718 22.7227 30.8318 22.7711C30.8914 22.8209 30.934 22.8436 30.9309 22.8502Z" fill="#D2B0A5"/>
<path d="M31.4194 23.8142C31.4189 23.8209 31.3171 23.8196 31.1531 23.8245C30.9891 23.8289 30.7625 23.8409 30.5127 23.8622C30.2634 23.8782 30.0474 23.9493 29.9047 24.028C29.7616 24.1053 29.6847 24.1742 29.6798 24.168C29.678 24.1658 29.6949 24.1467 29.7296 24.116C29.7643 24.0853 29.8176 24.044 29.8891 24.0009C30.0305 23.9129 30.2549 23.8342 30.5087 23.8182C30.7594 23.7965 30.9878 23.7898 31.1527 23.7933C31.3185 23.7965 31.4198 23.8089 31.4194 23.8142Z" fill="#D2B0A5"/>
<path d="M30.4098 23.8507C30.4115 23.8604 30.2684 23.864 30.1333 23.7609C30 23.6551 29.9684 23.516 29.9782 23.5151C29.9915 23.5084 30.0404 23.6316 30.1609 23.7253C30.2818 23.8191 30.4129 23.8364 30.4098 23.8507Z" fill="#D2B0A5"/>
<path d="M31.3975 24.4516C31.4001 24.4556 31.3357 24.4996 31.2188 24.5431C31.1024 24.5876 30.9339 24.6236 30.7495 24.6564C30.565 24.6893 30.401 24.7289 30.289 24.7764C30.1766 24.8222 30.1139 24.8658 30.1095 24.8591C30.1068 24.856 30.1637 24.8018 30.2766 24.7471C30.3886 24.6911 30.5566 24.6453 30.7415 24.612C30.9268 24.5787 31.0926 24.5484 31.209 24.5124C31.3255 24.4787 31.3939 24.4449 31.3975 24.4516Z" fill="#D2B0A5"/>
<path d="M30.5364 25.3267C30.5391 25.3222 30.5822 25.3378 30.6387 25.3862C30.6951 25.4329 30.7578 25.5253 30.7693 25.6409C30.776 25.6973 30.7658 25.7582 30.7387 25.8013C30.7147 25.844 30.6853 25.8791 30.656 25.9027C30.5955 25.9502 30.5453 25.9507 30.5453 25.9462C30.5427 25.9391 30.5871 25.9267 30.6347 25.8791C30.6582 25.8551 30.6818 25.8222 30.7022 25.7818C30.7235 25.7436 30.7302 25.6969 30.7249 25.6453C30.7147 25.5418 30.6644 25.4587 30.6169 25.4089C30.5693 25.3582 30.5324 25.3324 30.5364 25.3267Z" fill="#D2B0A5"/>
<path d="M31.1814 25.2587C31.1867 25.2613 31.1765 25.2969 31.1516 25.3515C31.1263 25.4049 31.084 25.4827 31.004 25.5387C30.9645 25.5662 30.9196 25.5835 30.8765 25.5871C30.8338 25.5911 30.7951 25.5822 30.7663 25.5689C30.7067 25.5409 30.6916 25.4995 30.696 25.4978C30.7014 25.4933 30.7249 25.5231 30.7778 25.5395C30.8298 25.5573 30.9094 25.552 30.9787 25.5018C31.0485 25.4533 31.092 25.3849 31.124 25.3364C31.1551 25.2867 31.176 25.2555 31.1814 25.2587Z" fill="#D2B0A5"/>
<path d="M31.3765 25.9187C31.3774 25.924 31.34 25.9373 31.2774 25.9302C31.216 25.924 31.1289 25.892 31.0631 25.8191C30.9974 25.7458 30.9751 25.6556 30.9756 25.5938C30.9756 25.5307 30.9929 25.4951 30.9978 25.4965C31.0045 25.4978 30.9991 25.5347 31.0071 25.5916C31.0147 25.6476 31.0391 25.7253 31.0965 25.7889C31.1538 25.8525 31.228 25.8853 31.2831 25.8987C31.3387 25.9129 31.3756 25.9116 31.3765 25.9187Z" fill="#D2B0A5"/>
<path d="M35.0481 22.076C35.0388 22.0849 34.8961 21.936 34.7623 21.7223C34.6259 21.5103 34.5521 21.3178 34.5637 21.3134C34.5748 21.3085 34.6655 21.4889 34.8001 21.6983C34.9326 21.9094 35.0575 22.068 35.0481 22.076Z" fill="#C79A1F"/>
<path d="M35.1416 21.9369C34.6816 22.2044 34.2141 22.4596 33.7399 22.7013L33.7319 22.7071C33.7114 22.7329 33.7319 22.7747 33.763 22.7867C33.7941 22.7982 33.8287 22.7889 33.8599 22.7773C33.9399 22.748 34.0145 22.7053 34.0883 22.6631C34.3999 22.4853 34.7114 22.308 35.023 22.1302C35.0594 22.1093 35.0972 22.0876 35.123 22.0547C35.1492 22.0218 35.1616 21.9742 35.1416 21.9369Z" fill="#C79A1F"/>
<path d="M21.258 35.8858L19.7442 38.2213L19.6629 35.2831L15.4367 35.636C15.4291 35.7506 15.7402 39.2084 16.2091 42.192C16.4135 43.4933 17.7398 44.4795 19.0571 44.4795C20.0958 44.4795 21.0411 43.8782 21.4807 42.9369L24.0704 36.4533L21.258 35.8858Z" fill="#F4D5C9"/>
<path d="M24.3869 26.684C24.3807 26.6444 24.5154 26.0991 24.5154 26.0991C24.5154 26.0991 31.0812 25.7711 31.0954 25.7795C31.1096 25.788 31.4914 26.0178 31.4914 26.0178L24.3869 26.684Z" fill="white"/>
<path d="M24.3897 26.684C24.3897 26.684 24.403 26.6818 24.4275 26.6787C24.4537 26.676 24.4897 26.672 24.5355 26.6671C24.6324 26.6573 24.771 26.6431 24.9493 26.6249C25.3093 26.5893 25.8275 26.5387 26.4675 26.4755C27.7497 26.3529 29.5217 26.1835 31.4919 25.9955L31.4826 26.0369C31.4133 25.9951 31.3381 25.9498 31.263 25.9049L31.1408 25.8315C31.1204 25.8218 31.1004 25.8022 31.0799 25.8C31.0595 25.8027 31.0412 25.804 31.0204 25.8044C30.9261 25.8084 30.8324 25.8129 30.739 25.8169C30.5524 25.8258 30.3675 25.8342 30.1848 25.8427C29.8199 25.86 29.4635 25.8769 29.1177 25.8933C28.427 25.9262 27.7795 25.9569 27.1919 25.9849C26.0195 26.0386 25.0857 26.0818 24.5186 26.108L24.5266 26.1013C24.4808 26.2875 24.4452 26.4324 24.4208 26.5329C24.3977 26.632 24.3897 26.684 24.3897 26.684C24.3861 26.6844 24.3915 26.6302 24.4119 26.5311C24.4319 26.4315 24.4648 26.2853 24.5097 26.0969L24.511 26.0906L24.5177 26.0902C25.0844 26.06 26.0181 26.0102 27.1901 25.9475C27.7777 25.9178 28.4253 25.8853 29.1159 25.8502C29.4613 25.8333 29.8177 25.816 30.1826 25.7978C30.3653 25.7893 30.5501 25.7804 30.7368 25.7715C30.8301 25.7675 30.9239 25.7631 31.0186 25.7591C31.0452 25.7582 31.0737 25.7582 31.1008 25.7595C31.1257 25.7644 31.1426 25.7818 31.1639 25.7924L31.2861 25.8658C31.3613 25.9111 31.4364 25.956 31.5057 25.9982L31.5644 26.0333L31.4964 26.0395C29.5195 26.2213 27.7408 26.3849 26.4541 26.5031C25.8155 26.56 25.2986 26.6062 24.9395 26.6382C24.7635 26.6533 24.6261 26.6649 24.5301 26.6733C24.4853 26.6769 24.4501 26.6795 24.4244 26.6818C24.4013 26.684 24.3892 26.6844 24.3897 26.684Z" fill="#263138"/>
<path d="M24.421 26.7915L24.3863 26.684L24.2992 26.136L18.145 24.8813L17.5459 25.332L18.4477 33.3209L24.7019 34.8782L24.421 26.7915Z" fill="white"/>
<path d="M24.4214 26.7915C24.4214 26.7915 24.4227 26.804 24.4245 26.8289C24.4258 26.8551 24.4276 26.892 24.4298 26.9404C24.4338 27.04 24.4401 27.1858 24.4481 27.3755C24.4627 27.7578 24.4841 28.3155 24.5107 29.024C24.5623 30.444 24.6352 32.4653 24.7223 34.8773L24.7232 34.9035L24.6974 34.8973C22.8396 34.4355 20.7072 33.9053 18.4423 33.3422L18.4272 33.3387L18.4254 33.3231C18.4041 33.1347 18.3809 32.9311 18.3583 32.7271C18.0547 30.0289 17.7698 27.4964 17.5267 25.3338L17.5254 25.3227L17.5343 25.316C17.7396 25.1618 17.9387 25.012 18.1338 24.8658L18.1405 24.8604L18.1489 24.8622C21.1174 25.4738 23.3272 25.9289 24.3009 26.1293L24.3054 26.1302L24.3058 26.1347C24.3503 26.4307 24.3769 26.6084 24.3885 26.6831V26.6827C24.4183 26.7778 24.4214 26.7915 24.4214 26.7915C24.4214 26.7915 24.4161 26.7782 24.3854 26.6844V26.684C24.3729 26.6093 24.3432 26.4324 24.2938 26.1369L24.2987 26.1422C23.3241 25.9453 21.1125 25.4991 18.1418 24.8995L18.1569 24.896C17.9623 25.0427 17.7636 25.1924 17.5583 25.3471L17.5658 25.3293C17.8107 27.492 18.0978 30.024 18.4032 32.7218C18.4263 32.9258 18.4489 33.1289 18.4703 33.3178L18.4534 33.2987C20.7178 33.8635 22.8494 34.3951 24.7072 34.8587L24.6827 34.8787C24.6023 32.4675 24.5347 30.4462 24.4876 29.0271C24.4654 28.3182 24.4476 27.76 24.4356 27.3773C24.4303 27.1875 24.4263 27.0413 24.4236 26.9413C24.4227 26.8929 24.4218 26.8555 24.4214 26.8293C24.4205 26.8044 24.4214 26.7915 24.4214 26.7915Z" fill="#263138"/>
<path d="M17.3115 25.2658L17.8906 33.3364L24.7022 34.7484L31.5697 33.5138L31.6493 25.9889L24.8062 26.3769C24.8062 26.3769 24.7644 26.6836 24.2626 26.6724L23.9253 26.5569L17.6555 25.3324L17.3115 25.2658Z" fill="#445962"/>
<path d="M24.9838 35.1085C24.9713 35.1089 24.9216 33.1542 24.8722 30.7436C24.8229 28.332 24.7931 26.3778 24.8056 26.3773C24.818 26.3769 24.8678 28.3311 24.9171 30.7427C24.9665 33.1533 24.9962 35.108 24.9838 35.1085Z" fill="#263138"/>
<path d="M24.1069 34.8782C24.106 34.8782 24.1051 34.8711 24.1037 34.8569C24.1024 34.84 24.1006 34.8196 24.0989 34.7942C24.0953 34.7351 24.09 34.6542 24.0837 34.552C24.0709 34.3418 24.0575 34.0373 24.0415 33.6609C24.0113 32.9084 23.982 31.868 23.9597 30.7191C23.9375 29.5698 23.9255 28.5293 23.9206 27.7764C23.9197 27.4027 23.9189 27.0991 23.918 26.8844C23.9189 26.7818 23.9193 26.7009 23.9197 26.6418C23.9206 26.6164 23.9211 26.5956 23.9215 26.5787C23.922 26.5644 23.9229 26.5573 23.9237 26.5573C23.9246 26.5573 23.9255 26.5644 23.9264 26.5787C23.9273 26.5956 23.9282 26.6164 23.9291 26.6418C23.9309 26.7009 23.9326 26.7818 23.9357 26.884C23.9397 27.0982 23.9455 27.4022 23.9526 27.7756C23.966 28.5316 23.9842 29.5702 24.0046 30.7178C24.0269 31.8667 24.0509 32.9067 24.0731 33.6591C24.0846 34.0324 24.0944 34.336 24.1011 34.5507C24.1042 34.6529 24.1064 34.7342 24.1077 34.7929C24.1082 34.8182 24.1082 34.8391 24.1082 34.856C24.1082 34.8707 24.1077 34.8782 24.1069 34.8782Z" fill="#263138"/>
<path d="M23.2561 37.4906C23.2496 37.4933 23.2409 37.4972 23.2305 37.5015C23.2383 37.498 23.247 37.4941 23.2561 37.4906Z" fill="#F7BB9B"/>
<path d="M23.2674 37.4858C23.2662 37.4862 23.2654 37.4866 23.2646 37.487C23.2662 37.4866 23.2674 37.4858 23.2674 37.4858Z" fill="#F7BB9B"/>
<path d="M23.261 37.4893C23.2598 37.4897 23.259 37.4901 23.2578 37.4905C23.2594 37.4901 23.2602 37.4897 23.261 37.4893Z" fill="#F7BB9B"/>
<path d="M26.3577 32.8635C26.691 32.5347 27.0177 32.1995 27.0928 32.0782C27.2573 31.8111 26.9901 31.6258 26.8048 31.5435C26.6199 31.4613 24.1933 33.5382 24.1933 33.5382C24.1933 33.5382 26.2288 31.7289 26.3524 31.6053C26.4759 31.4818 26.5581 31.3173 26.4346 30.9884C26.311 30.6595 25.9204 30.7827 25.7764 30.8036C25.6324 30.824 23.3293 32.7569 23.3293 32.7569C23.3293 32.7569 24.6657 31.4613 24.7893 31.3587C24.9128 31.256 24.9537 31.0707 24.9128 30.824C24.8715 30.5773 24.6044 30.5978 24.4195 30.5978C24.2346 30.5978 21.3413 33.168 21.3413 33.168L21.479 34.5253L20.9893 36.6036L23.2679 37.4862C23.6586 37.3218 24.399 36.3591 24.5426 36.1702C24.6866 35.9818 25.5088 34.5871 25.5088 34.5871C25.8377 34.4022 26.3106 33.6618 26.4959 33.456C26.6808 33.2502 26.6195 33.1475 26.5164 32.9831C26.4613 32.8947 25.9239 33.324 25.439 33.7395L25.5497 33.6413C25.5506 33.6409 25.959 33.2569 26.3577 32.8635Z" fill="#F4D5C9"/>
<path d="M22.2232 33.7053C22.2259 33.7093 22.1814 33.7435 22.0952 33.7644C22.0103 33.7858 21.8801 33.7867 21.7565 33.7244C21.6334 33.6622 21.5565 33.5564 21.5232 33.476C21.4885 33.3942 21.4899 33.3382 21.4948 33.3378C21.5019 33.3364 21.5121 33.3889 21.5516 33.4622C21.5903 33.5351 21.6645 33.628 21.7765 33.6844C21.8885 33.7409 22.0076 33.7453 22.089 33.7333C22.1716 33.7218 22.2201 33.6987 22.2232 33.7053Z" fill="#D2B0A5"/>
<path d="M23.1651 34.4795C23.166 34.4844 23.1198 34.4982 23.0438 34.4898C22.9687 34.4818 22.8634 34.4458 22.7776 34.3635C22.6918 34.2813 22.6518 34.1773 22.6407 34.1027C22.6291 34.0271 22.6407 33.9804 22.646 33.9809C22.6531 33.9809 22.6531 34.0271 22.6718 34.096C22.6896 34.1644 22.7314 34.2569 22.8087 34.3311C22.8865 34.4053 22.9803 34.4431 23.0491 34.4582C23.1189 34.4742 23.1647 34.4724 23.1651 34.4795Z" fill="#D2B0A5"/>
<path d="M24.204 35.2591C24.204 35.264 24.148 35.2693 24.0614 35.2462C23.9756 35.224 23.8591 35.1667 23.7671 35.0631C23.6751 34.9591 23.632 34.8369 23.62 34.7489C23.6071 34.66 23.6191 34.6049 23.624 34.6058C23.6311 34.6058 23.6311 34.66 23.6511 34.7431C23.6707 34.8253 23.7151 34.9369 23.8005 35.0333C23.8858 35.1298 23.9916 35.1871 24.0711 35.216C24.1507 35.2458 24.2049 35.252 24.204 35.2591Z" fill="#D2B0A5"/>
<path d="M20.0758 37.7564C20.0861 37.7631 19.6061 38.5107 19.003 39.4262C18.3998 40.3418 17.903 41.0782 17.8927 41.0715C17.8825 41.0649 18.3625 40.3173 18.9656 39.4018C19.5683 38.4858 20.0656 37.7493 20.0758 37.7564Z" fill="#D2B0A5"/>
<path d="M27.5452 28.8475L27.4958 29.4262L27.4092 29.436L27.1323 29.0662L27.0976 29.4711L26.9932 29.4831L27.0425 28.9044L27.1292 28.8947L27.4065 29.2644L27.4403 28.8591L27.5452 28.8475Z" fill="#263138"/>
<path d="M27.6334 29.1738C27.6116 28.9822 27.7334 28.8178 27.9418 28.7942C28.1125 28.7751 28.224 28.8622 28.24 29.0053C28.2618 29.1969 28.14 29.3613 27.9316 29.3849C27.7614 29.4044 27.6498 29.3173 27.6334 29.1738ZM28.1351 29.024C28.1245 28.9311 28.056 28.8751 27.9427 28.888C27.8005 28.904 27.724 29.0249 27.7387 29.156C27.7489 29.2489 27.8169 29.3053 27.9303 29.2924C28.0725 29.276 28.1498 29.1551 28.1351 29.024Z" fill="#263138"/>
<path d="M28.4776 28.8324L28.29 28.8538L28.2976 28.7627L28.778 28.7084L28.7696 28.7995L28.582 28.8209L28.5411 29.3084L28.4358 29.3204L28.4776 28.8324Z" fill="#263138"/>
<path d="M28.9529 28.7778L28.9404 28.928L29.2146 28.8973L29.2075 28.9858L28.9324 29.0169L28.9191 29.1764L29.2391 29.1404L29.2311 29.2307L28.8066 29.2787L28.856 28.7L29.2693 28.6533L29.2613 28.7435L28.9529 28.7778Z" fill="#263138"/>
<path d="M29.3105 29.1627L29.3457 29.0751C29.3968 29.108 29.4683 29.1236 29.5368 29.116C29.619 29.1067 29.6692 29.0707 29.6634 29.0209C29.6514 28.9156 29.3723 29.0031 29.3519 28.8209C29.3394 28.7093 29.4314 28.6267 29.5777 28.6102C29.6505 28.6018 29.7212 28.6111 29.7723 28.6364L29.7403 28.7244C29.695 28.7009 29.6385 28.6916 29.5817 28.6982C29.4959 28.708 29.4488 28.7484 29.4545 28.7978C29.4665 28.9036 29.7461 28.8196 29.7657 28.9929C29.7785 29.1053 29.6852 29.188 29.5368 29.2044C29.4483 29.2142 29.359 29.1956 29.3105 29.1627Z" fill="#263138"/>
<path d="M30.2272 29.4049C30.229 29.4173 29.4241 29.5449 28.4294 29.6907C27.4343 29.8364 26.6268 29.9444 26.625 29.932C26.6232 29.9196 27.4281 29.792 28.4232 29.6462C29.4174 29.5009 30.2254 29.3929 30.2272 29.4049Z" fill="#263138"/>
<path d="M30.2861 29.7511C30.2879 29.7635 29.5634 29.888 28.6683 30.0293C27.7728 30.1706 27.0452 30.2755 27.043 30.2631C27.0412 30.2506 27.7652 30.1262 28.6612 29.9849C29.5563 29.8435 30.2839 29.7391 30.2861 29.7511Z" fill="#263138"/>
<path d="M24.3807 16.4702C24.4162 16.4253 24.6744 16.576 25.0162 16.5404C25.358 16.5097 25.5918 16.3115 25.6331 16.3488C25.6531 16.3653 25.6207 16.4426 25.5189 16.532C25.4189 16.6208 25.2433 16.7151 25.03 16.736C24.8167 16.7564 24.63 16.6973 24.5189 16.6288C24.4064 16.5604 24.3633 16.4902 24.3807 16.4702Z" fill="#382B22"/>
<path d="M27.8498 16.2764C27.8912 16.2399 28.1081 16.4319 28.4365 16.4599C28.7645 16.4928 29.021 16.3453 29.053 16.3884C29.069 16.4079 29.0245 16.4764 28.9121 16.5435C28.8018 16.6106 28.6192 16.6688 28.4143 16.6501C28.2098 16.6306 28.0441 16.5404 27.9516 16.4541C27.8578 16.3679 27.8298 16.2928 27.8498 16.2764Z" fill="#382B22"/>
</g>
</g>
<defs>
<clipPath id="clip0_991_50542">
<rect width="48" height="48" rx="24" fill="white"/>
</clipPath>
<clipPath id="clip1_991_50542">
<rect width="48" height="48" fill="white"/>
</clipPath>
</defs>
</svg>
