<svg width="48" height="48" viewBox="0 0 48 48" fill="none" xmlns="http://www.w3.org/2000/svg">
<g clip-path="url(#clip0_1141_47350)">
<rect width="48" height="48" rx="24" fill="white"/>
<g clip-path="url(#clip1_1141_47350)">
<g opacity="0.37">
<path d="M14.2928 8.176C14.2426 8.176 14.2021 8.13956 14.2021 8.09422V4.41556C14.2021 4.37022 14.2426 4.33378 14.2928 4.33378C14.3426 4.33378 14.3835 4.37022 14.3835 4.41556V8.09422C14.3835 8.13956 14.343 8.176 14.2928 8.176Z" fill="#F8DF88"/>
<path d="M12.856 7.63733C12.8328 7.63733 12.8097 7.62933 12.792 7.61333C12.7568 7.58133 12.7568 7.52933 12.792 7.49778L15.6662 4.89644C15.7013 4.86444 15.7586 4.86444 15.7942 4.89644C15.8293 4.92844 15.8293 4.98044 15.7942 5.012L12.9195 7.61333C12.9022 7.62933 12.8791 7.63733 12.856 7.63733Z" fill="#F8DF88"/>
<path d="M16.3255 6.33689H12.2606C12.2104 6.33689 12.1699 6.30044 12.1699 6.25511C12.1699 6.20978 12.2104 6.17333 12.2606 6.17333H16.3255C16.3753 6.17333 16.4161 6.20978 16.4161 6.25511C16.4161 6.3 16.3757 6.33689 16.3255 6.33689Z" fill="#F8DF88"/>
<path d="M15.7302 7.63733C15.7071 7.63733 15.684 7.62933 15.6662 7.61333L12.792 5.012C12.7568 4.98 12.7568 4.928 12.792 4.89644C12.8271 4.86444 12.8844 4.86444 12.92 4.89644L15.7942 7.49778C15.8293 7.52978 15.8293 7.58178 15.7942 7.61333C15.7764 7.62933 15.7533 7.63733 15.7302 7.63733Z" fill="#F8DF88"/>
</g>
<g opacity="0.37">
<path d="M32.4039 5.59956L32.5194 5.79067C32.6487 6.00489 32.8376 6.17778 33.0625 6.28889L33.263 6.38756L33.071 6.50267C32.8559 6.63156 32.6821 6.81956 32.5705 7.04356L32.4714 7.24311L32.3559 7.052C32.2265 6.83778 32.0376 6.66489 31.8127 6.55378L31.6123 6.45511L31.8043 6.34C32.0194 6.21111 32.1932 6.02311 32.3047 5.79911L32.4039 5.59956Z" fill="#F8DF88"/>
</g>
<g opacity="0.37">
<path d="M27.0332 41.3151C27.1252 41.3116 27.203 41.3831 27.2065 41.4747C27.2101 41.5662 27.1385 41.6436 27.0465 41.6471C26.9545 41.6507 26.8767 41.5791 26.8732 41.4876C26.8696 41.396 26.9412 41.3187 27.0332 41.3151Z" fill="#F8DF88"/>
<path d="M36.3024 41.6698C36.4521 41.6698 36.5735 41.5488 36.5735 41.3996C36.5735 41.2503 36.4521 41.1293 36.3024 41.1293C36.1526 41.1293 36.0312 41.2503 36.0312 41.3996C36.0312 41.5488 36.1526 41.6698 36.3024 41.6698Z" fill="#F8DF88"/>
<path d="M36.9272 9.09067L36.6104 10.2382L36.9375 10.3053L37.493 9.41911L36.9272 9.09067Z" fill="#F8DF88"/>
<path d="M31.7725 1.99067L32.8458 2.51511L32.9734 2.208L32.2022 1.49911L31.7725 1.99067Z" fill="#F8DF88"/>
<path d="M36.8291 18.7156L37.9958 18.976L38.0478 18.6471L37.1318 18.1373L36.8291 18.7156Z" fill="#F8DF88"/>
<path d="M37.9883 1.66889L38.7972 1.64978L38.8829 1.45155L38.2932 1.28889L37.9883 1.66889Z" fill="#F8DF88"/>
<path d="M32.6969 45.6493C32.7889 45.6458 32.8609 45.5684 32.8569 45.4769C32.8534 45.3853 32.7756 45.3138 32.6836 45.3173C32.5916 45.3209 32.5196 45.3982 32.5236 45.4898C32.5276 45.5813 32.6049 45.6529 32.6969 45.6493Z" fill="#F8DF88"/>
<path d="M26.7725 1.91911L27.9187 2.25867L27.9929 1.93467L27.1147 1.36311L26.7725 1.91911Z" fill="#F8DF88"/>
<path d="M32.0639 39.7978L33.0457 39.1187L32.8377 38.8587L31.8408 39.1849L32.0639 39.7978Z" fill="#F8DF88"/>
<path d="M16.2656 33.2569L17.339 33.7818L17.4665 33.4742L16.6958 32.7653L16.2656 33.2569Z" fill="#F8DF88"/>
<path d="M38.0352 35.6502L39.2018 35.9107L39.2534 35.5818L38.3374 35.072L38.0352 35.6502Z" fill="#F8DF88"/>
<path d="M36.9912 27.5978L37.8001 27.5787L37.8863 27.3804L37.2961 27.2178L36.9912 27.5978Z" fill="#F8DF88"/>
<path d="M21.7002 20.6218L22.2904 21.6569L22.5695 21.4742L22.3335 20.4564L21.7002 20.6218Z" fill="#F8DF88"/>
<path d="M21.3076 29.2649L22.4827 29.4844L22.5227 29.1542L21.5898 28.6764L21.3076 29.2649Z" fill="#F8DF88"/>
<path d="M40.3307 6.58711C40.4228 6.58711 40.4974 6.51269 40.4974 6.42089C40.4974 6.32909 40.4228 6.25467 40.3307 6.25467C40.2387 6.25467 40.1641 6.32909 40.1641 6.42089C40.1641 6.51269 40.2387 6.58711 40.3307 6.58711Z" fill="#F8DF88"/>
<path d="M42.0254 16.0067C42.1174 16.0031 42.1951 16.0747 42.1987 16.1662C42.2023 16.2578 42.1307 16.3351 42.0387 16.3387C41.9467 16.3422 41.8689 16.2707 41.8654 16.1791C41.8618 16.0876 41.9334 16.0102 42.0254 16.0067Z" fill="#F8DF88"/>
<path d="M46.9931 18.7364C47.1428 18.7307 47.2691 18.8467 47.2749 18.9956C47.2806 19.1444 47.1642 19.2702 47.0144 19.276C46.8646 19.2818 46.7384 19.1658 46.7326 19.0169C46.7269 18.868 46.8433 18.7422 46.9931 18.7364Z" fill="#F8DF88"/>
<path d="M41.5597 22.1982L42.3632 21.3164L42.1014 21.1098L41.2041 21.6511L41.5597 22.1982Z" fill="#F8DF88"/>
<path d="M43.3242 12.9738L44.4909 13.2342L44.5429 12.9058L43.6269 12.3956L43.3242 12.9738Z" fill="#F8DF88"/>
<path d="M42.4376 27.1138L42.9225 27.9382L42.6825 28.0578L42.0674 27.4853L42.4376 27.1138Z" fill="#F8DF88"/>
<path d="M47.7672 44.3067C47.8592 44.3031 47.9312 44.2258 47.9272 44.1342C47.9237 44.0427 47.8459 43.9711 47.7539 43.9747C47.6619 43.9782 47.5899 44.0555 47.5939 44.1471C47.5975 44.2391 47.6752 44.3102 47.7672 44.3067Z" fill="#F8DF88"/>
<path d="M9.30469 24.56L10.6602 24.8622L10.7202 24.4804L9.65624 23.888L9.30469 24.56Z" fill="#F8DF88"/>
<path d="M18.4918 23.4338C18.6415 23.4338 18.7629 23.3128 18.7629 23.1636C18.7629 23.0143 18.6415 22.8933 18.4918 22.8933C18.3421 22.8933 18.2207 23.0143 18.2207 23.1636C18.2207 23.3128 18.3421 23.4338 18.4918 23.4338Z" fill="#F8DF88"/>
<path d="M16.4919 27.8769C16.5839 27.8733 16.6559 27.796 16.6519 27.7044C16.6483 27.6129 16.5705 27.5413 16.4785 27.5449C16.3865 27.5484 16.3145 27.6258 16.3185 27.7173C16.3221 27.8089 16.3999 27.8804 16.4919 27.8769Z" fill="#F8DF88"/>
<path d="M15.0317 19.8462L16.0135 19.1671L15.8055 18.9071L14.8086 19.2333L15.0317 19.8462Z" fill="#F8DF88"/>
<path d="M13.9489 40.1391C14.0409 40.1355 14.1129 40.0582 14.1089 39.9667C14.1053 39.8751 14.0275 39.8035 13.9355 39.8071C13.8435 39.8107 13.7715 39.888 13.7755 39.9795C13.7795 40.0711 13.8569 40.1427 13.9489 40.1391Z" fill="#F8DF88"/>
<path d="M1.16662 28.424C1.31635 28.424 1.43773 28.303 1.43773 28.1538C1.43773 28.0045 1.31635 27.8836 1.16662 27.8836C1.01689 27.8836 0.895508 28.0045 0.895508 28.1538C0.895508 28.303 1.01689 28.424 1.16662 28.424Z" fill="#F8DF88"/>
<path d="M9.62305 40.224L10.7897 40.484L10.8413 40.1556L9.92571 39.6458L9.62305 40.224Z" fill="#F8DF88"/>
<path d="M2.16373 33.8027C2.25573 33.7991 2.32773 33.7218 2.32373 33.6302C2.32017 33.5387 2.24239 33.4671 2.15039 33.4707C2.05839 33.4742 1.98639 33.5515 1.99039 33.6431C1.99395 33.7347 2.07173 33.8062 2.16373 33.8027Z" fill="#F8DF88"/>
<path d="M-0.0947162 32.332L0.887062 31.6529L0.679062 31.3924L-0.317383 31.7191L-0.0947162 32.332Z" fill="#F8DF88"/>
<path d="M12.0596 29.4164L13.2262 29.6769L13.2778 29.3484L12.3622 28.8382L12.0596 29.4164Z" fill="#F8DF88"/>
<path d="M5.62305 18.6938L6.43194 18.6751L6.51771 18.4764L5.92749 18.3138L5.62305 18.6938Z" fill="#F8DF88"/>
<path d="M6.88868 2.76044C6.98068 2.75689 7.05845 2.82844 7.06201 2.92C7.06556 3.01155 6.99401 3.08889 6.90201 3.09244C6.81001 3.096 6.73223 3.02444 6.72868 2.93289C6.72468 2.84133 6.79623 2.764 6.88868 2.76044Z" fill="#F8DF88"/>
<path d="M6.42294 8.952L7.22605 8.07022L6.96472 7.86356L6.06738 8.40489L6.42294 8.952Z" fill="#F8DF88"/>
<path d="M7.30089 13.8676L7.78533 14.6924L7.54578 14.812L6.93066 14.2391L7.30089 13.8676Z" fill="#F8DF88"/>
</g>
<g opacity="0.37">
<path d="M40.4982 46.664C40.4439 46.664 40.4004 46.6244 40.4004 46.5751V42.5898C40.4004 42.5409 40.4444 42.5009 40.4982 42.5009C40.5524 42.5009 40.5964 42.5404 40.5964 42.5898V46.5751C40.5959 46.624 40.5524 46.664 40.4982 46.664Z" fill="#F8DF88"/>
<path d="M38.9408 46.0804C38.9159 46.0804 38.8906 46.072 38.8714 46.0547C38.8332 46.02 38.8332 45.964 38.8714 45.9293L41.9857 43.1111C42.0239 43.0764 42.0861 43.0764 42.1243 43.1111C42.1626 43.1458 42.1626 43.2018 42.1243 43.2364L39.0101 46.0547C38.991 46.0715 38.9661 46.0804 38.9408 46.0804Z" fill="#F8DF88"/>
<path d="M42.7 44.6711H38.2965C38.2422 44.6711 38.1982 44.6316 38.1982 44.5822C38.1982 44.5333 38.2422 44.4933 38.2965 44.4933H42.7C42.7542 44.4933 42.7982 44.5329 42.7982 44.5822C42.7978 44.6316 42.7542 44.6711 42.7 44.6711Z" fill="#F8DF88"/>
<path d="M42.055 46.0804C42.0301 46.0804 42.0048 46.072 41.9857 46.0547L38.8714 43.2364C38.8332 43.2018 38.8332 43.1458 38.8714 43.1111C38.9097 43.0764 38.9719 43.0764 39.0101 43.1111L42.1243 45.9293C42.1626 45.964 42.1626 46.02 42.1243 46.0547C42.1052 46.0715 42.0799 46.0804 42.055 46.0804Z" fill="#F8DF88"/>
</g>
<g opacity="0.37">
<path d="M45.1664 21.3333C45.1415 21.3333 45.1211 21.3151 45.1211 21.2924V19.4533C45.1211 19.4307 45.1415 19.4124 45.1664 19.4124C45.1913 19.4124 45.2118 19.4307 45.2118 19.4533V21.2924C45.2118 21.3151 45.1913 21.3333 45.1664 21.3333Z" fill="#F8DF88"/>
<path d="M44.4477 21.064C44.4361 21.064 44.4246 21.06 44.4157 21.052C44.3979 21.036 44.3979 21.0102 44.4157 20.9942L45.853 19.6938C45.8708 19.6778 45.8992 19.6778 45.917 19.6938C45.9348 19.7098 45.9348 19.7356 45.917 19.7516L44.4797 21.052C44.4708 21.06 44.4592 21.064 44.4477 21.064Z" fill="#F8DF88"/>
<path d="M46.1832 20.4138H44.1508C44.1259 20.4138 44.1055 20.3956 44.1055 20.3729C44.1055 20.3502 44.1259 20.332 44.1508 20.332H46.1832C46.2081 20.332 46.2286 20.3502 46.2286 20.3729C46.2281 20.3951 46.2081 20.4138 46.1832 20.4138Z" fill="#F8DF88"/>
<path d="M45.885 21.064C45.8735 21.064 45.8619 21.06 45.853 21.052L44.4157 19.7516C44.3979 19.7356 44.3979 19.7098 44.4157 19.6938C44.4335 19.6778 44.4619 19.6778 44.4797 19.6938L45.917 20.9942C45.9348 21.0102 45.9348 21.036 45.917 21.052C45.9081 21.06 45.8966 21.064 45.885 21.064Z" fill="#F8DF88"/>
</g>
<path opacity="0.37" d="M4.37696 25.676C4.89365 25.676 5.31252 25.2589 5.31252 24.7444C5.31252 24.23 4.89365 23.8129 4.37696 23.8129C3.86027 23.8129 3.44141 24.23 3.44141 24.7444C3.44141 25.2589 3.86027 25.676 4.37696 25.676Z" fill="#F8DF88"/>
<path opacity="0.37" d="M5.50432 24.8787C5.42521 24.7476 5.30965 24.6418 5.17188 24.5738Z" fill="#F8DF88"/>
<g opacity="0.37">
<path d="M34.8342 36.9978L34.9271 37.1511C35.0311 37.3236 35.1827 37.4622 35.3636 37.5516L35.5249 37.6311L35.3707 37.7236C35.1978 37.8271 35.0582 37.9782 34.9685 38.1582L34.8889 38.3187L34.796 38.1653C34.692 37.9929 34.5405 37.8542 34.3596 37.7649L34.1982 37.6853L34.3525 37.5929C34.5254 37.4893 34.6649 37.3382 34.7547 37.1582L34.8342 36.9978Z" fill="#F8DF88"/>
</g>
<g opacity="0.37">
<path d="M12.0354 16.524L12.1158 16.6573C12.2061 16.8067 12.3376 16.9271 12.4945 17.0044L12.6345 17.0733L12.5007 17.1533C12.3505 17.2431 12.2296 17.3742 12.1518 17.5307L12.0825 17.6698L12.0021 17.5364C11.9118 17.3871 11.7803 17.2667 11.6234 17.1893L11.4834 17.1204L11.6172 17.0404C11.7674 16.9507 11.8883 16.8196 11.9661 16.6636L12.0354 16.524Z" fill="#F8DF88"/>
</g>
<g opacity="0.37">
<path d="M4.73169 34.2156L4.81213 34.3484C4.90235 34.4978 5.03391 34.6182 5.1908 34.6956L5.3308 34.7644L5.19702 34.8444C5.0468 34.9342 4.92591 35.0653 4.84813 35.2213L4.7788 35.3604L4.69835 35.2276C4.60813 35.0782 4.47658 34.9578 4.31969 34.8804L4.17969 34.8116L4.31347 34.7316C4.46369 34.6418 4.58458 34.5107 4.66191 34.3547L4.73169 34.2156Z" fill="#F8DF88"/>
</g>
<path d="M32.5841 12.1773C32.7695 12.2093 32.9686 12.0876 33.0246 11.9076C33.0806 11.7276 32.9863 11.5129 32.8161 11.432C32.8481 11.3951 32.8739 11.3556 32.8952 11.3138C32.977 11.2591 33.0481 11.1862 33.1037 11.1009C33.2455 10.8844 33.3579 10.5124 33.2072 10.2742C33.1232 10.1418 32.9823 10.0476 32.8619 9.95156C32.7277 9.844 32.5837 9.74133 32.4699 9.61111C32.3512 9.47556 32.2823 9.30578 32.3708 9.13556C32.4388 9.00489 32.5708 8.93467 32.6552 8.82311C32.8739 8.72222 33.0628 8.58889 33.1406 8.36711C33.2388 8.08756 33.109 7.77555 32.9272 7.54C32.6006 7.11689 32.0952 6.83644 31.5646 6.78356C31.845 6.73778 31.7939 6.25867 31.5295 6.15422C31.265 6.04933 30.9726 6.18933 30.7281 6.33378C30.8677 6.08222 31.0006 5.77244 30.9983 5.49733C31.0143 5.38933 31.0108 5.27778 30.9766 5.17378C30.8895 4.90978 30.6357 4.736 30.3712 4.68133C30.0623 4.61778 29.6917 4.65467 29.3983 4.76844C29.3686 4.78 29.3397 4.79289 29.3112 4.80667C29.3072 4.75511 29.3015 4.704 29.2917 4.65333C29.2419 4.39289 29.0957 4.13555 28.8739 3.98355C28.9223 3.83555 28.9503 3.68089 28.953 3.52444C28.9655 2.87378 28.5797 2.252 27.9783 1.992C27.6308 1.84178 27.2548 1.82756 26.8921 1.928C26.8828 1.93067 26.8775 1.93644 26.8739 1.94222C26.0348 1.932 25.2521 2.49289 24.8388 3.22533C24.5606 3.01644 24.1406 3.07156 23.8726 3.29422C23.7055 3.43289 23.5921 3.62267 23.5241 3.82978C23.4406 3.74444 23.349 3.66667 23.2486 3.60133C23.0868 3.49556 22.8979 3.41511 22.705 3.38489C22.4255 3.252 22.0903 3.27244 21.8143 3.41778C21.4463 3.61156 21.3108 3.98178 21.2183 4.36311C21.1641 4.58711 21.1019 4.844 20.9783 5.05156C20.9343 5.06933 20.889 5.08267 20.8428 5.088C20.7397 4.952 20.6312 4.82089 20.4988 4.73333C20.3348 4.62489 20.1317 4.58756 19.9348 4.59067C19.2592 4.60222 18.6215 5.11555 18.4663 5.77333C18.3108 6.43155 18.6539 7.17244 19.2561 7.47822C19.0103 7.47778 18.7979 7.73644 18.8468 7.97733C18.8859 8.16978 19.0832 8.304 19.2766 8.30044C18.8592 8.39467 18.4099 8.61733 18.4237 9.02622C18.4308 9.24489 18.5815 9.43022 18.7406 9.57911C18.7806 9.61644 18.8223 9.65244 18.8646 9.68756C18.8566 9.69378 18.8486 9.7 18.8415 9.70533C18.5561 9.92356 18.3112 10.2067 18.2032 10.5551C18.1001 10.8871 18.1295 11.272 18.3375 11.5564C18.4486 11.7084 18.5997 11.8298 18.753 11.9364C18.8183 11.9818 18.8886 12.024 18.9623 12.0444C18.9752 12.052 18.9868 12.0613 19.0001 12.0684C18.7521 12.136 18.5197 12.2449 18.3997 12.464C18.1921 12.8427 18.4708 13.3338 18.8557 13.524C19.0735 13.6316 19.3223 13.6707 19.5641 13.6431C19.4681 13.7342 19.4059 13.8716 19.4183 14.0044C19.4428 14.2676 19.6597 14.4724 19.8903 14.5987C20.4721 14.9164 21.233 14.8716 21.7766 14.4876C21.8921 14.4058 22.0103 14.3058 22.1517 14.3058C22.4143 14.3053 22.5437 14.6444 22.4992 14.9049C22.4548 15.1653 22.3121 15.4111 22.3259 15.6751C22.3441 16.0289 22.6486 16.3138 22.9841 16.4213C23.2983 16.5222 23.6357 16.5 23.9655 16.4693C23.9215 16.5556 23.9028 16.6578 23.9255 16.7511C23.9783 16.9707 24.1752 17.1253 24.3788 17.22C24.9895 17.5036 25.7686 17.3658 26.2472 16.8898C26.2495 17.0422 26.3939 17.1773 26.545 17.1689C26.6961 17.16 26.8241 17.0089 26.8086 16.8569C27.1606 17.0609 27.681 16.7689 27.6939 16.3604C27.6157 16.64 27.9303 16.8764 28.2143 16.9262C28.797 17.0284 29.4268 16.7147 29.6988 16.1876C29.6606 16.2551 29.6988 16.3538 29.7726 16.3778C29.8859 16.3187 29.9508 16.1782 29.9223 16.0524C30.2246 16.1653 30.593 16.0609 30.7917 15.8062C30.9623 15.5867 30.9948 15.2711 30.8846 15.016C31.0641 15.2462 31.4788 15.2329 31.7841 15.1356C32.4526 14.9218 33.1112 14.5089 33.3646 13.8524C33.617 13.1969 33.2748 12.2991 32.5841 12.1773ZM18.3779 11.3964C18.2441 11.1378 18.2583 10.8267 18.3557 10.5573C18.4446 10.312 18.6166 10.1049 18.8112 9.93333C18.8032 9.98267 18.7948 10.0324 18.793 10.0822C18.7855 10.0876 18.7775 10.0916 18.7699 10.0969C18.5428 10.2622 18.4126 10.5418 18.3739 10.8147C18.3348 11.0889 18.3935 11.3662 18.5263 11.6009C18.469 11.5391 18.4175 11.472 18.3779 11.3964ZM22.1246 3.47778C21.7877 3.66622 21.6139 4.02889 21.4797 4.37289C21.3997 4.57778 21.3063 4.79556 21.1383 4.94489C21.3139 4.55956 21.3486 4.052 21.6059 3.74267C21.7619 3.55511 21.9975 3.44533 22.2392 3.42711C22.2006 3.44133 22.1619 3.45689 22.1246 3.47778ZM28.753 3.916C28.6726 3.87956 28.5823 3.85644 28.4895 3.84889C28.505 3.772 28.5183 3.696 28.5259 3.62178C28.6086 2.82533 27.9095 2.09422 27.1179 1.96311C27.8326 1.9 28.5388 2.34044 28.7526 3.03911C28.8401 3.32578 28.841 3.632 28.753 3.916ZM29.6792 5.05422C29.5592 5.1 29.4286 5.14178 29.297 5.17067C29.309 5.09289 29.3148 5.01422 29.3157 4.936C29.3641 4.91333 29.4139 4.89289 29.4655 4.87644C29.7255 4.79422 30.0295 4.75778 30.2997 4.808C30.4219 4.83067 30.5455 4.87822 30.6468 4.952C30.3619 4.83422 29.9877 4.93689 29.6792 5.05422ZM32.0126 9.10933C32.0419 9.06 32.0992 9.03556 32.153 9.01556C32.1895 9.00222 32.2268 8.98889 32.2641 8.97556C32.2023 9.06889 32.1601 9.17244 32.1543 9.268C32.137 9.54578 32.3561 9.75733 32.557 9.916C32.6895 10.0204 32.8255 10.1209 32.9592 10.224C33.1281 10.3538 33.1743 10.504 33.1388 10.7129C33.1135 10.8604 33.049 11.0084 32.9548 11.1253C33.0019 10.856 32.9037 10.5462 32.7459 10.3084C32.5228 9.97244 32.2032 9.69956 32.0326 9.33467C31.9988 9.26356 31.9721 9.17689 32.0126 9.10933Z" fill="#382926"/>
<path d="M20.7802 15.9902C20.1313 15.7324 12.5891 19.5062 12.1126 21.0702C11.6353 22.6378 17.2842 30.5938 17.2842 30.5938L18.5615 29.5178C18.5615 29.5178 15.1433 22.7733 15.2197 22.3427C15.2957 21.912 19.8037 20.7942 19.9717 20.5227C20.1397 20.252 20.7802 15.9902 20.7802 15.9902Z" fill="#FAD2C3"/>
<path d="M17.0171 28.3591C16.8224 28.7302 16.6633 29.132 16.5566 29.5444C16.9953 30.188 17.2838 30.5942 17.2838 30.5942L18.5611 29.5182C18.5611 29.5182 18.1269 28.6613 17.5722 27.5404C17.35 27.7876 17.1664 28.0747 17.0171 28.3591Z" fill="#D2B670"/>
<path d="M37.407 57.7671C37.4336 58.6964 37.0776 59.7933 36.5492 59.9604C35.791 60.1973 35.7119 59.7351 33.3061 57.828C30.907 55.9284 25.6767 52.8987 24.0816 51.1418C22.4923 49.3893 21.0825 39.152 21.0825 39.152C21.0825 39.152 21.5723 49.4516 22.2496 50.6076C23.595 52.908 23.5843 55.9822 23.287 59.2169C22.9661 62.6862 24.0705 66.8898 23.9559 67.5711C23.9185 67.7924 23.5532 68.1209 23.0679 68.3853C23.0439 68.3969 23.0176 68.4107 22.9914 68.424C21.9763 68.9449 20.5096 69.1547 20.3807 67.5707C20.1861 65.1809 19.0483 53.3853 18.259 50.912C17.4745 48.4498 13.4074 38.0582 14.2123 35.2582C14.5599 34.0471 15.5536 32.5844 16.5652 31.3156C16.5759 31.3004 16.5887 31.2853 16.6016 31.2702C16.6039 31.268 16.6039 31.268 16.6039 31.2702C17.911 29.6387 19.239 28.3387 19.239 28.3387L24.0723 29.4164L24.2527 29.4573L24.7474 29.5676C24.7474 29.5676 28.2052 34.9191 28.4203 37.8071C28.6345 40.7053 26.6616 47.2751 27.5834 48.8138C28.5052 50.356 30.5363 49.7244 33.2692 52.8249C36.0163 55.9369 36.5616 55.9191 37.1372 56.7338C37.3016 56.9649 37.3843 57.304 37.4047 57.6773C37.4065 57.7062 37.4065 57.7378 37.407 57.7671Z" fill="#D0B764"/>
<path d="M21.1671 39.0667C20.8266 38.6333 20.4351 38.2476 20.0062 37.9076C19.5973 37.5831 19.1511 37.288 18.6693 37.0893C18.6351 37.0751 18.6124 37.132 18.644 37.1502C19.1 37.4089 19.5511 37.6693 19.9675 37.9933C20.0169 38.0316 20.0635 38.0724 20.1115 38.112C19.9777 38.0409 19.8409 37.976 19.6973 37.9289C19.4809 37.8578 19.2413 37.8049 19.0129 37.8124C18.9729 37.8138 18.9591 37.8804 19.0026 37.888C19.2249 37.9249 19.444 37.9542 19.6609 38.0196C19.8809 38.0858 20.0924 38.172 20.2929 38.2858C20.3026 38.2916 20.312 38.2902 20.3195 38.2867C20.6066 38.5404 20.876 38.816 21.1271 39.108C21.1511 39.1364 21.1893 39.0951 21.1671 39.0667Z" fill="#AB9155"/>
<path d="M20.8449 30.0467C20.5991 30.412 20.432 30.8542 20.296 31.2729C20.1578 31.6996 20.0578 32.1382 19.9866 32.5813C19.8426 33.4773 19.7822 34.408 19.8089 35.3178C19.8098 35.352 19.8586 35.3516 19.8604 35.3178C19.9169 34.4089 19.9231 33.5036 20.0658 32.6036C20.1338 32.1751 20.2253 31.7507 20.3533 31.3369C20.4906 30.8929 20.6875 30.4876 20.8831 30.0698C20.896 30.0431 20.8613 30.0222 20.8449 30.0467Z" fill="#AB9155"/>
<path d="M20.5228 29.1996C20.0015 30.0276 19.6486 30.9738 19.4241 31.9293C19.1984 32.892 19.1126 33.8911 19.1899 34.8791C19.193 34.9169 19.2499 34.9178 19.2481 34.8791C19.205 33.8956 19.2873 32.9111 19.513 31.9542C19.7393 30.9947 20.1179 30.0964 20.5757 29.2311C20.5944 29.1956 20.5441 29.1653 20.5228 29.1996Z" fill="#AB9155"/>
<path d="M26.1514 32.2627C25.8123 32.5213 25.5367 32.8484 25.1065 32.956C24.6767 33.0631 24.2865 32.8613 23.9892 32.556C23.6896 32.2489 23.463 31.8671 23.2452 31.4987C22.9985 31.0813 22.7763 30.6489 22.5994 30.1964C22.5834 30.156 22.5181 30.1729 22.5336 30.2147C22.8083 30.9484 23.1941 31.6618 23.6598 32.2902C24.0385 32.8013 24.5865 33.2364 25.2456 32.9995C25.5936 32.8747 25.9541 32.6027 26.1941 32.3178C26.2176 32.2902 26.1856 32.2369 26.1514 32.2627Z" fill="#AB9155"/>
<path d="M19.2231 29.5609C19.1405 29.9062 18.92 30.2173 18.6933 30.4809C18.46 30.7511 18.1907 31.0084 17.8982 31.2138C17.6289 31.404 17.3049 31.5427 16.9716 31.4929C16.8209 31.4689 16.6787 31.4107 16.5645 31.3156C16.5751 31.3004 16.588 31.2853 16.6009 31.2702C16.6031 31.268 16.6031 31.268 16.6031 31.2702C16.7533 31.3804 16.9485 31.4302 17.1378 31.4218C17.4609 31.4067 17.7538 31.2142 17.9973 31.0129C18.2365 30.8138 18.4609 30.5911 18.6578 30.3516C18.8631 30.0987 19.0156 29.8222 19.172 29.5396C19.1893 29.5116 19.2298 29.5307 19.2231 29.5609Z" fill="#AB9155"/>
<path d="M37.4068 57.7671C37.2824 57.6209 37.1575 57.4724 37.0326 57.3244C35.5762 55.6236 33.8975 54.1324 32.0268 52.9187C31.0962 52.316 30.1233 51.7964 29.1206 51.324C28.6326 51.0947 28.1384 50.8498 27.7455 50.4738C27.3873 50.1311 27.1371 49.6978 26.9708 49.2356C26.598 48.1991 26.5935 47.036 26.6602 45.9542C26.7353 44.7551 26.9406 43.5733 27.1397 42.396C27.3424 41.1964 27.5384 39.9902 27.5717 38.7751C27.6028 37.6124 27.4611 36.4582 27.1446 35.3431C26.5304 33.1853 25.3673 31.2244 24.0713 29.4164L24.2517 29.4573C24.3748 29.6342 24.4935 29.8111 24.61 29.9907C25.8286 31.8502 26.9184 33.8369 27.3971 36.0338C27.6393 37.148 27.6935 38.288 27.6113 39.4276C27.5268 40.6151 27.3175 41.7898 27.1233 42.968C26.922 44.1729 26.7357 45.3867 26.7122 46.6133C26.6931 47.6871 26.758 48.8649 27.3162 49.8178C27.9077 50.8276 29.0406 51.1884 30.03 51.692C31.0113 52.1916 31.9593 52.7671 32.8606 53.4058C33.75 54.0404 34.5993 54.7364 35.3935 55.4911C36.1082 56.168 36.7997 56.8907 37.4037 57.6773C37.4064 57.7062 37.4064 57.7378 37.4068 57.7671Z" fill="#AB9155"/>
<path d="M23.068 68.3849C23.044 68.3964 23.0178 68.4102 22.9915 68.4236C22.9764 67.4653 22.8151 66.5084 22.7458 65.5578C22.6702 64.524 22.6382 63.4898 22.6213 62.4569C22.5858 60.4 22.5911 58.3427 22.3458 56.3071C22.1009 54.2707 21.5262 52.3027 21.1387 50.3044C20.7587 48.3342 20.5022 46.3476 20.3778 44.3578C20.2538 42.356 20.256 40.3538 20.4084 38.368C20.4107 38.3373 20.4578 38.3373 20.4555 38.368C20.4418 38.6129 20.4298 38.86 20.4182 39.1053C20.3369 41.1084 20.3555 43.1196 20.5187 45.1302C20.68 47.1533 20.9773 49.1689 21.4053 51.1636C21.6218 52.1662 21.8733 53.164 22.084 54.172C22.2884 55.1547 22.4373 56.1476 22.5253 57.1511C22.704 59.196 22.6791 61.256 22.7302 63.3173C22.756 64.3604 22.8053 65.4053 22.9098 66.4471C22.9747 67.0898 23.0542 67.7369 23.068 68.3849Z" fill="#AB9155"/>
<path d="M18.2546 28.8404C18.2546 28.8404 18.3915 26.3596 17.7977 25.2031C17.2053 24.0484 17.1457 22.6182 17.648 21.1031C18.276 19.208 19.4462 16.3804 20.5022 15.9418C21.5573 15.5031 29.5617 18.7951 30.0466 20.1942C30.4582 21.3809 25.3871 28.5493 24.9675 28.9831C24.548 29.4169 25.3764 29.196 24.9244 30.036C24.6733 30.5027 22.5635 30.8004 20.8857 30.5147C19.4306 30.2667 18.372 29.5164 18.2546 28.8404Z" fill="#F8DF88"/>
<path d="M22.1496 27.3836C21.999 27.0804 21.7385 26.8151 21.4905 26.5933C21.231 26.3613 20.9416 26.1684 20.6394 25.9996C20.3416 25.8333 20.0301 25.6827 19.7132 25.5578C19.3594 25.4182 18.9896 25.2622 18.6185 25.1778C18.5843 25.1702 18.5594 25.22 18.5932 25.2373C18.9039 25.3973 19.2496 25.4991 19.575 25.6258C19.9079 25.7551 20.2408 25.8804 20.5576 26.048C20.8643 26.2102 21.1532 26.4067 21.4114 26.6409C21.6723 26.8773 21.8723 27.156 22.1025 27.42C22.1261 27.4471 22.1643 27.4129 22.1496 27.3836Z" fill="#D5BD71"/>
<path d="M21.5973 22.2391C21.66 22.264 21.6902 22.3347 21.6649 22.3969C21.64 22.4591 21.5689 22.4893 21.5062 22.4644C21.4435 22.4396 21.4133 22.3689 21.4386 22.3067C21.464 22.2444 21.5351 22.2142 21.5973 22.2391Z" fill="#D5BD71"/>
<path d="M21.9918 21.6227C21.943 21.6689 21.8656 21.6662 21.8194 21.6178C21.7732 21.5689 21.7754 21.492 21.8243 21.4462C21.8732 21.4 21.9505 21.4027 21.9967 21.4511C22.0434 21.5 22.0407 21.5769 21.9918 21.6227Z" fill="#D5BD71"/>
<path d="M22.124 20.824C22.124 20.7569 22.1787 20.7027 22.2458 20.7027C22.3134 20.7027 22.3676 20.7569 22.3676 20.824C22.3676 20.8911 22.3129 20.9453 22.2458 20.9453C22.1787 20.9453 22.124 20.8911 22.124 20.824Z" fill="#D5BD71"/>
<path d="M22.6891 20.1498C22.6402 20.196 22.5629 20.1933 22.5167 20.1449C22.4704 20.096 22.4727 20.0191 22.5216 19.9733C22.5704 19.9271 22.6478 19.9298 22.694 19.9782C22.7402 20.0271 22.738 20.104 22.6891 20.1498Z" fill="#D5BD71"/>
<path d="M21.4397 16.3667C21.0117 16.3089 21.153 18.636 22.5944 19.6222C24.0379 20.6098 27.3975 19.5018 27.6148 19.3591C27.8317 19.2164 24.6873 16.8071 21.4397 16.3667Z" fill="#FAD2C3"/>
<path d="M25.6832 18.1604C25.6832 18.1604 25.4818 18.9338 24.0636 19.0351C22.6427 19.1396 22.7747 18.3018 22.7747 18.3018L22.6934 17.5782L22.4561 15.492L25.3609 15.3484L25.4405 16.0511L25.6832 18.1604Z" fill="#FAD2C3"/>
<path d="M25.3356 15.3493L22.4561 15.4916L22.6538 17.2302C23.7974 17.2449 24.8809 16.3769 25.3356 15.3493Z" fill="#E9C1B5"/>
<path d="M19.105 29.94C19.0459 29.8231 18.5503 29.3151 18.2783 29.1107C18.4508 29.2364 18.5881 29.3213 18.7463 29.4529C18.9223 29.5991 19.1948 29.896 19.2992 29.7564C19.4037 29.6169 19.3174 29.3084 19.1125 28.9796C18.8703 28.5907 18.5952 28.368 18.477 28.26C18.3508 28.1449 18.0743 28.0338 17.8485 28.2404C17.4419 28.612 17.0703 29.0507 16.8165 29.5436C16.5348 30.0907 16.7379 30.2698 16.9117 30.5733C17.1299 30.9547 17.9152 31.1844 18.0872 30.9542C18.2592 30.724 17.6317 30.6133 17.3872 30.1627C17.569 30.4956 18.4259 30.864 18.6903 30.6511C18.8294 30.5391 18.6765 30.4018 18.5899 30.3396C18.3312 30.1538 18.017 30.0347 17.8397 29.7356C18.0388 29.908 18.6308 30.3244 18.8961 30.3213C19.145 30.3182 19.1725 30.0738 19.105 29.94Z" fill="#FAD2C3"/>
<path d="M22.0708 14.4196C22.0081 15.1796 21.4415 15.7596 20.8086 15.7089C20.1761 15.6582 19.713 14.9951 19.7775 14.2356C19.7806 14.1978 19.7859 14.1622 19.7913 14.1244C19.849 13.7378 20.0526 13.3711 20.3686 13.1449C20.4646 13.0764 20.5726 13.0218 20.6895 12.9827C20.765 12.9591 20.7753 13.0636 20.7184 13.0907C20.6304 13.1342 20.5441 13.1613 20.4619 13.2116C20.4441 13.2209 20.4264 13.232 20.4108 13.2436C20.3121 13.316 20.2268 13.4044 20.1557 13.5C19.9966 13.7156 19.905 13.9773 19.8824 14.244C19.8233 14.9467 20.2441 15.5573 20.8179 15.6036C21.3917 15.6498 21.9086 15.1142 21.9664 14.4111C22.0095 13.8916 21.789 13.4236 21.4397 13.1969C21.4593 13.1902 21.4788 13.1809 21.4961 13.1738C21.5135 13.1667 21.533 13.1578 21.5508 13.1467C21.9001 13.4031 22.1148 13.8853 22.0708 14.4196Z" fill="#F8DF88"/>
<path d="M22.6065 16.0298C24.0247 16.1844 26.0189 15.6262 26.9989 14.2987C27.4469 13.692 27.7794 12.9622 27.9469 12.1476C28.4776 9.56133 27.1087 7.13511 24.8931 6.72044C22.6789 6.30533 21.1327 7.85022 20.3998 10.7516C20.2834 11.2129 20.1927 11.6644 20.1096 12.0916C19.6625 14.3867 21.1887 15.8751 22.6065 16.0298Z" fill="#FAD2C3"/>
<path d="M23.3075 13.524C23.0497 13.36 22.7644 13.5302 22.2377 13.4791C21.711 13.428 21.4159 13.2378 21.3199 13.3351C21.0977 13.5609 21.4142 14.2516 22.1404 14.3844C22.867 14.5178 23.5653 13.688 23.3075 13.524Z" fill="white"/>
<path d="M29.9149 9.14C29.7514 8.384 29.2038 7.80222 28.6451 7.31956C27.9758 6.74133 27.2345 6.22844 26.402 6.02C25.534 5.80267 24.6256 5.93022 23.7491 6.10533C23.3865 6.17778 23.0189 6.26222 22.6674 6.38622C22.4785 6.47111 22.2843 6.544 22.1011 6.64133C21.8816 6.75822 21.6851 6.92 21.5345 7.11867C21.3145 7.40844 21.0723 8 21.4349 8.26533C21.4598 8.27378 21.4851 8.28222 21.5127 8.28578C21.7918 8.31867 22.0914 8.16578 22.3447 8.06C22.5691 7.96667 22.7865 7.85733 23.0003 7.74C22.99 7.81867 22.998 7.90089 23.0283 7.972C23.1465 8.25111 23.4851 8.28533 23.7314 8.24356C23.9785 8.20178 24.2065 8.08267 24.4078 7.91867C24.4007 7.95511 24.3954 7.99289 24.3936 8.03156C24.3874 8.16622 24.4171 8.30622 24.4803 8.42267C24.5514 8.55378 24.6651 8.64444 24.7798 8.72756C24.9278 8.83467 25.0847 8.936 25.2536 8.99378C25.3047 9.17511 25.3558 9.35644 25.4136 9.53556C25.4754 9.72756 25.5567 9.90844 25.6523 10.08C25.5518 10.3324 25.5483 10.6364 25.6118 10.8947C25.6985 11.2467 25.9318 11.5502 26.2491 11.6804C26.386 11.7364 26.534 11.7258 26.6718 11.7684C26.6723 11.9862 26.5914 12.1884 26.5038 12.4329C26.306 12.9858 26.7078 13.2858 26.9634 12.7404C27.2185 12.1956 27.6509 12.5418 28.0829 12.4524C28.3723 12.3924 28.6856 12.432 28.9469 12.284C29.2256 12.1262 29.3763 11.7938 29.5038 11.4809C29.8056 10.7409 30.0851 9.928 29.9149 9.14Z" fill="#382926"/>
<path d="M28.6226 12.0591C28.772 12.1316 28.8982 12.2547 28.9791 12.4453C29.0684 12.656 29.068 12.8867 29.0249 13.0982C28.9306 13.5564 28.636 13.9396 28.2329 14.1547C27.8973 14.3338 27.3284 14.4853 26.9955 14.1213C26.8484 13.9604 26.8209 13.7302 26.8324 13.5249C26.8578 13.0804 26.964 12.5444 27.3164 12.28C27.628 12.0467 28.2129 11.8609 28.6226 12.0591Z" fill="#FAD2C3"/>
<path d="M28.9105 15.3524C28.9119 16.116 28.3954 16.7404 27.7603 16.7404C27.1252 16.7404 26.6074 16.116 26.6074 15.3524C26.6074 15.3142 26.6096 15.2787 26.6114 15.2404C26.6368 14.8498 26.8088 14.4676 27.1048 14.2164C27.195 14.1404 27.2976 14.0773 27.411 14.0289C27.4843 13.9996 27.5034 14.1027 27.4488 14.1342C27.3648 14.1849 27.2808 14.2187 27.203 14.2756C27.1861 14.2862 27.1692 14.2987 27.1545 14.3116C27.0621 14.3916 26.9843 14.4867 26.9216 14.588C26.7808 14.816 26.7119 15.0844 26.7119 15.3524C26.7119 16.0587 27.1834 16.6342 27.7594 16.6342C28.3359 16.6342 28.8061 16.0587 28.8048 15.3524C28.8039 14.8307 28.5448 14.3809 28.1772 14.1827C28.1959 14.1742 28.215 14.1636 28.2319 14.1551C28.2488 14.1467 28.2674 14.136 28.2843 14.1236C28.655 14.3511 28.9096 14.8156 28.9105 15.3524Z" fill="#F8DF88"/>
<path d="M27.4649 13.64C27.4738 13.484 27.4947 13.3391 27.5636 13.1964C27.6321 13.0547 27.7254 12.9267 27.8427 12.8218C27.9654 12.7124 28.1223 12.6311 28.2889 12.6271C28.3627 12.6253 28.4361 12.6369 28.5036 12.6671C28.5658 12.6947 28.6569 12.7529 28.6627 12.8271C28.6663 12.8707 28.6343 12.9067 28.5894 12.9031C28.5356 12.8987 28.4894 12.8533 28.4392 12.8333C28.3885 12.8129 28.3303 12.8031 28.2756 12.8053C28.2418 12.8067 28.2089 12.8124 28.1774 12.8213C28.2538 12.8924 28.3076 12.9836 28.3294 13.0893C28.3423 13.1529 28.3432 13.2213 28.3321 13.2849C28.3258 13.32 28.3152 13.3551 28.3014 13.388C28.2952 13.4027 28.2881 13.4173 28.2801 13.4316C28.2672 13.4547 28.2512 13.4658 28.2285 13.4782C28.1969 13.4964 28.1476 13.4684 28.1463 13.432C28.1454 13.4142 28.1441 13.3978 28.1494 13.3809C28.1538 13.3667 28.1605 13.3533 28.1654 13.3396C28.1734 13.3173 28.1783 13.2951 28.1832 13.272C28.1934 13.2196 28.1952 13.1676 28.1863 13.1147C28.1707 13.0244 28.1236 12.9369 28.0574 12.8724C28.0009 12.9044 27.9489 12.9449 27.9023 12.9889C27.7267 13.1538 27.5889 13.4093 27.5574 13.6507C27.5489 13.7107 27.4614 13.6996 27.4649 13.64Z" fill="#E9C1B5"/>
<path d="M24.9829 10.1578C24.7753 9.932 24.4984 9.77156 24.1993 9.704C24.006 9.66044 23.4664 9.58356 23.4429 9.89378C23.4211 10.1782 24.1362 10.0991 24.2904 10.1204C24.5815 10.1604 24.8344 10.2942 25.0455 10.4969C25.1509 10.5982 25.2518 10.7204 25.3331 10.8538C25.2846 10.7747 25.2722 10.6436 25.2358 10.5538C25.1762 10.4067 25.0891 10.2733 24.9829 10.1578Z" fill="#382926"/>
<path d="M20.9155 9.52533C21.0644 9.38222 21.2622 9.304 21.4755 9.30489C21.6133 9.30533 21.9982 9.34311 22.0138 9.59733C22.028 9.82978 21.5191 9.63467 21.4089 9.62311C21.2013 9.60133 21.0204 9.66267 20.8693 9.78667C20.7938 9.84844 20.7218 9.92845 20.6631 10.0204C20.6978 9.96578 20.7071 9.86267 20.7338 9.79733C20.7769 9.68933 20.8391 9.59867 20.9155 9.52533Z" fill="#382926"/>
<path d="M29.5811 19.8938C30.1962 20.3498 33.8362 24.1467 33.8362 24.1467L32.4922 18.1L33.862 17.1822C33.862 17.1822 37.9487 27.7649 36.2998 28.3316C35.0273 28.7689 28.5878 24.6262 27.8135 23.9231C27.0407 23.2209 27.1869 21.7031 27.5451 20.6151C27.9029 19.5293 28.8931 19.384 29.5811 19.8938Z" fill="#FAD2C3"/>
<path d="M35.3441 14.4138C35.029 14.7493 34.8143 15.1293 34.7334 15.0996C34.6934 15.0849 34.8588 14.7782 35.0854 14.3382C35.3183 13.8862 35.4548 13.5467 35.285 13.4191C35.1152 13.292 34.3877 14.44 34.229 14.7813C34.0703 15.1231 34.5419 13.7307 34.7095 13.256C34.897 12.7244 34.5997 12.5991 34.2446 13.2329C33.889 13.8671 33.6872 14.4756 33.5521 14.6169C33.5281 14.4516 33.5539 14.2556 33.7392 13.4969C33.8766 12.9342 33.6037 12.892 33.341 13.4196C33.1952 13.7124 33.1037 14.0311 33.0099 14.3444C32.9574 14.5196 32.9206 14.7004 32.8481 14.8693C32.8001 14.9822 32.7192 15.0742 32.6517 15.176C32.5766 15.2898 32.5068 15.4071 32.4428 15.5276C32.2646 15.8653 32.1183 16.232 32.0748 16.6151C32.0397 16.924 32.0832 17.2422 32.1623 17.5418C32.2183 17.7538 32.3006 17.9738 32.4521 18.1364C32.8059 18.516 34.0339 18.3818 34.097 18.0778C34.3908 16.664 35.3295 15.2982 35.5703 14.7613C35.8255 14.1916 35.6992 14.0356 35.3441 14.4138Z" fill="#FAD2C3"/>
<path d="M33.6695 13.7849C33.6486 13.82 33.6282 13.8556 33.6046 13.8893C33.3762 14.2187 33.1077 14.5173 32.8606 14.8329C32.8557 14.8449 32.8522 14.8569 32.8473 14.8689C32.7993 14.9818 32.7184 15.0738 32.6508 15.1756C32.5757 15.2893 32.5059 15.4067 32.4424 15.5271C32.4784 15.7818 32.6237 15.9622 32.7962 16.1476C33.0873 16.4609 33.1744 16.8422 33.1642 17.24C33.3099 16.9142 33.2757 16.5644 33.2726 16.2164C33.2726 16.1951 33.2788 16.1782 33.2873 16.1631C33.3246 15.8293 33.5086 15.5351 33.6162 15.2129C33.7144 14.92 33.7162 14.612 33.7259 14.3049C33.6566 14.4542 33.5997 14.5658 33.5513 14.6164C33.5304 14.4747 33.5473 14.3089 33.6695 13.7849Z" fill="#C8A399"/>
<path d="M33.3762 15.3889C33.577 15.0791 33.6513 14.6889 33.5788 14.3253C33.5717 14.2907 33.5588 14.2502 33.525 14.24C33.4873 14.2284 33.4522 14.2613 33.4264 14.2911C33.2837 14.4578 33.1406 14.6244 32.9979 14.7911C32.7353 15.0978 32.4717 15.408 32.285 15.7693C32.1037 16.1209 32.0362 16.5347 32.0806 16.9284C32.1099 17.1871 32.1788 17.4902 32.3935 17.6609C32.477 17.7271 32.5873 17.7653 32.6913 17.7444C32.9779 17.6867 33.1242 17.3018 33.1544 17.0458C33.1899 16.7462 33.117 16.4342 32.9708 16.1724C32.9455 16.1271 32.9175 16.0782 32.9237 16.0271C32.9273 15.9982 32.9419 15.9716 32.9566 15.9467C33.0766 15.7467 33.2495 15.5844 33.3762 15.3889Z" fill="#FAD2C3"/>
<path d="M16.171 8.70666C16.0643 8.51866 15.9821 7.77511 15.9821 7.77511C15.9821 7.77511 15.8808 8.48222 15.7617 8.70666C15.6425 8.93111 15.167 9.00578 15.167 9.00578C15.167 9.00578 15.6119 9.02311 15.7421 9.22844C15.8719 9.43377 15.9808 10.2969 15.9808 10.2969C15.9808 10.2969 16.0465 9.44266 16.1732 9.23511C16.2994 9.02755 16.7883 8.97911 16.7883 8.97911C16.7883 8.97911 16.2781 8.89466 16.171 8.70666Z" fill="#E1C361"/>
<path d="M17.1172 10.4733C17.0514 10.3573 17.0007 9.89866 17.0007 9.89866C17.0007 9.89866 16.938 10.3347 16.8647 10.4733C16.7914 10.6116 16.498 10.6578 16.498 10.6578C16.498 10.6578 16.7727 10.6684 16.8527 10.7951C16.9327 10.9218 16.9998 11.4542 16.9998 11.4542C16.9998 11.4542 17.0403 10.9271 17.1185 10.7991C17.1963 10.6711 17.498 10.6413 17.498 10.6413C17.498 10.6413 17.1829 10.5893 17.1172 10.4733Z" fill="#E1C361"/>
<path d="M17.4185 8.22C17.379 8.15067 17.3487 7.876 17.3487 7.876C17.3487 7.876 17.3114 8.13689 17.2674 8.22C17.2234 8.30267 17.0479 8.33022 17.0479 8.33022C17.0479 8.33022 17.2123 8.33644 17.2603 8.41244C17.3083 8.48844 17.3483 8.80711 17.3483 8.80711C17.3483 8.80711 17.3727 8.49155 17.4194 8.41511C17.4661 8.33867 17.6465 8.32044 17.6465 8.32044C17.6465 8.32044 17.4581 8.28978 17.4185 8.22Z" fill="#E1C361"/>
<path d="M30.0965 11.9676C30.0694 11.92 30.0485 11.7316 30.0485 11.7316C30.0485 11.7316 30.0227 11.9107 29.9925 11.9676C29.9622 12.0244 29.8418 12.0436 29.8418 12.0436C29.8418 12.0436 29.9547 12.048 29.9876 12.1C30.0205 12.152 30.048 12.3707 30.048 12.3707C30.048 12.3707 30.0649 12.1542 30.0969 12.1013C30.1289 12.0489 30.2529 12.0364 30.2529 12.0364C30.2529 12.0364 30.1236 12.0151 30.0965 11.9676Z" fill="#E1C361"/>
<path d="M29.6317 11.1556C29.5757 11.0569 29.5326 10.6671 29.5326 10.6671C29.5326 10.6671 29.4792 11.0378 29.417 11.1556C29.3548 11.2733 29.1055 11.3124 29.1055 11.3124C29.1055 11.3124 29.3388 11.3213 29.4068 11.4293C29.4748 11.5369 29.5317 11.9893 29.5317 11.9893C29.5317 11.9893 29.5664 11.5413 29.6326 11.4329C29.6988 11.324 29.9548 11.2987 29.9548 11.2987C29.9548 11.2987 29.6877 11.2542 29.6317 11.1556Z" fill="#E1C361"/>
<path d="M21.626 10.7929C21.6362 10.9453 21.5153 11.0796 21.3562 11.0929C21.1975 11.1062 21.0606 10.9938 21.0504 10.8413C21.0402 10.6889 21.1611 10.5547 21.3197 10.5413C21.4789 10.528 21.6162 10.6404 21.626 10.7929Z" fill="#382926"/>
<path d="M24.2891 11.6987C24.2993 11.8511 24.1784 11.9853 24.0193 11.9987C23.8606 12.012 23.7237 11.8996 23.7135 11.7471C23.7033 11.5947 23.8242 11.4604 23.9828 11.4471C24.1419 11.4338 24.2793 11.5462 24.2891 11.6987Z" fill="#382926"/>
<path d="M22.4327 12.728C22.434 12.7156 22.2989 12.688 22.0793 12.6529C22.0238 12.6453 21.9713 12.6329 21.9629 12.5942C21.9509 12.5533 21.9762 12.4938 22.0051 12.4298C22.0616 12.296 22.1211 12.156 22.1833 12.0093C22.4313 11.4107 22.6127 10.9178 22.5882 10.908C22.5642 10.8982 22.3433 11.3756 22.0953 11.9742C22.0358 12.1218 21.9784 12.2627 21.9242 12.3973C21.9011 12.46 21.8624 12.5311 21.8887 12.6156C21.9024 12.6578 21.9424 12.6893 21.978 12.7C22.0136 12.712 22.0447 12.7138 22.0727 12.716C22.294 12.7356 22.4313 12.7404 22.4327 12.728Z" fill="#382926"/>
<path d="M21.6241 10.4116C21.6041 10.4338 21.4819 10.3364 21.3086 10.336C21.1357 10.3329 21.0081 10.4276 20.9895 10.4044C20.9801 10.3942 21.0006 10.3538 21.0561 10.3111C21.1108 10.2684 21.2037 10.2271 21.3117 10.2284C21.4197 10.2298 21.5104 10.2729 21.5628 10.3169C21.6157 10.3604 21.6339 10.4013 21.6241 10.4116Z" fill="#382926"/>
<path d="M24.4242 11.2902C24.3957 11.2982 24.3593 11.1507 24.2269 11.056C24.0962 10.9596 23.9437 10.9698 23.9424 10.9404C23.9411 10.9271 23.9806 10.904 24.0477 10.8982C24.1144 10.892 24.2095 10.908 24.2917 10.9676C24.3735 11.0271 24.418 11.1124 24.4322 11.1773C24.4477 11.2436 24.4375 11.2871 24.4242 11.2902Z" fill="#382926"/>
<g opacity="0.9">
<path d="M11.2585 13.9067C11.3194 13.6591 11.1118 13.3071 10.8594 13.212C10.9803 13.0227 11.022 12.8031 10.9425 12.5684C10.8629 12.3338 10.5847 12.0844 10.3278 12.108C10.4189 11.9244 10.5078 11.7716 10.4607 11.576C10.2674 10.772 8.94205 10.9684 8.32516 11.0373C7.91849 11.0827 7.50116 11.2013 7.09316 11.1707L4.93005 12.6862L-0.289062 13.2142L0.581604 17.9538C0.581604 17.9538 3.63894 17.0627 4.20027 16.9849C4.7616 16.9071 5.34205 17.0222 6.12649 16.9133C6.76116 16.8253 7.73983 16.5964 8.66116 16.3093C8.96872 16.2138 8.99983 16.1422 9.31227 16.0653C9.58916 15.9973 9.86827 15.9289 10.1283 15.8116C10.446 15.6684 11.1154 15.4276 11.1376 14.9022C11.1452 14.7258 11.0954 14.4849 10.9598 14.3929C11.1669 14.2338 11.2194 14.0653 11.2585 13.9067Z" fill="#FAD2C3"/>
<path d="M10.9594 14.3929C10.9594 14.3929 10.3416 14.7671 9.67053 14.9516C9.17186 15.0889 8.84786 15.1293 8.73275 15.0733C8.61809 15.0173 8.34431 14.6982 8.44609 14.3964C8.50253 14.2289 8.59897 14.1053 8.64297 14.0204C8.64297 14.0204 10.3199 13.5271 10.8536 13.212" stroke="#CC9B91" stroke-miterlimit="10"/>
<path d="M8.75247 15.0964C8.65514 15.252 8.67736 15.452 8.78403 15.5969C8.89069 15.7418 9.07158 15.8347 9.26269 15.8724C9.4538 15.9102 9.65558 15.8973 9.85025 15.8631" stroke="#CC9B91" stroke-miterlimit="10"/>
<path d="M8.7113 14.0133C8.47752 14.0267 8.2433 13.9271 8.11264 13.7578C7.98197 13.5884 7.95797 13.356 8.05219 13.1622C8.08864 13.0871 8.14152 13.0187 8.19841 12.9542L10.3273 12.108" stroke="#CC9B91" stroke-miterlimit="10"/>
<path d="M-0.289062 13.2142C1.55849 12.968 2.96694 12.7471 3.37316 12.6071C3.56338 12.5413 3.72827 12.5196 3.87716 12.3867C4.05627 12.2267 4.22605 12.0569 4.40694 11.8991C4.87583 11.4898 5.38116 11.1427 5.88116 10.7729C6.06205 10.6391 6.23538 10.4898 6.36872 10.3102C6.51849 10.1089 6.57716 9.87645 6.6736 9.65111C6.85627 9.22489 6.97894 8.664 7.25271 8.64933C7.78116 8.62089 7.97805 9.116 7.9216 9.70933C7.85449 10.4178 7.45716 11.084 7.35183 11.7911C7.19138 12.8716 6.8216 13.9373 5.8976 14.616" fill="#FAD2C3"/>
<path d="M7.51177 11.1551C7.44333 11.3649 7.38422 11.5756 7.35266 11.7907C7.19222 12.8711 6.82244 13.9369 5.89844 14.6156" stroke="#CC9B91" stroke-miterlimit="10"/>
<path d="M6.99133 8.88489C6.99133 8.88489 7.13667 8.94489 7.13667 9.032C7.13667 9.15067 7.09133 9.26489 7.04067 9.37245C7.026 9.40356 7.01 9.43511 6.98511 9.45911C6.92422 9.51645 6.82156 9.51111 6.75 9.46667" stroke="#CC9B91" stroke-miterlimit="10"/>
<path d="M8.19869 12.9547C7.82135 12.8191 7.65113 12.4769 7.75424 12.0769C7.82224 11.8133 8.04491 11.7138 8.31602 11.6373C8.75558 11.5129 9.06713 11.2907 9.52313 11.2053" stroke="#CC9B91" stroke-miterlimit="10"/>
<path d="M-1.35547 13.2124L2.81342 12.5373L4.00453 17.9538L-1.02036 20.108" fill="#E1C361"/>
<path d="M2.77744 18.48L1.62988 12.7289" stroke="#C0A34F" stroke-miterlimit="10"/>
<path d="M6.14986 7.97022L5.08008 6.89022" stroke="#BE9F4D" stroke-miterlimit="10"/>
<path d="M7.14049 7.608L6.82227 6.02045" stroke="#BE9F4D" stroke-miterlimit="10"/>
<path d="M8.29199 7.52934L8.69021 6.10534" stroke="#BE9F4D" stroke-miterlimit="10"/>
</g>
<g opacity="0.9">
<path d="M38.2965 26.0778C38.1539 25.8649 38.2281 25.4649 38.433 25.2916C38.2539 25.1533 38.1392 24.9609 38.133 24.7133C38.1267 24.4658 38.3032 24.1391 38.5525 24.076C38.4036 23.9338 38.2672 23.8191 38.2445 23.6196C38.1494 22.7987 39.4645 22.5431 40.0685 22.4027C40.4667 22.3102 40.9005 22.2831 41.2739 22.1187L43.8312 22.8253L48.9241 21.5867L49.737 26.3364C49.737 26.3364 46.5534 26.5147 45.9983 26.628C45.4432 26.7413 44.9365 27.0427 44.161 27.2009C43.5334 27.3289 42.5339 27.4391 41.5676 27.4756C41.2454 27.4876 41.1916 27.4307 40.8712 27.4627C40.5872 27.4907 40.301 27.5191 40.0161 27.4951C39.6676 27.4662 38.9548 27.4618 38.753 26.9751C38.6854 26.8116 38.649 26.5684 38.7445 26.4364C38.4952 26.3551 38.3881 26.2142 38.2965 26.0778Z" fill="#FAD2C3"/>
<path d="M38.7446 26.436C38.7446 26.436 39.4548 26.5827 40.1499 26.5333C40.6664 26.4969 40.9855 26.4271 41.0744 26.3364C41.1633 26.2458 41.3104 25.8547 41.1113 25.604C41.0006 25.4653 40.8673 25.3809 40.7962 25.3156C40.7962 25.3156 39.0486 25.4089 38.4375 25.2898" stroke="#CC9B91" stroke-miterlimit="10"/>
<path d="M41.0643 26.364C41.2096 26.4778 41.2571 26.6733 41.2065 26.8453C41.1558 27.0173 41.018 27.1644 40.8509 27.2636C40.6838 27.3627 40.49 27.4178 40.2949 27.4498" stroke="#CC9B91" stroke-miterlimit="10"/>
<path d="M40.7296 25.3311C40.9541 25.2662 41.1403 25.0942 41.2052 24.8916C41.2701 24.6889 41.2123 24.4618 41.0567 24.3111C40.9963 24.2524 40.9234 24.2058 40.8474 24.164L38.5527 24.0756" stroke="#CC9B91" stroke-miterlimit="10"/>
<path d="M48.9244 21.5867C48.2284 21.7324 47.532 21.8751 46.8329 22.0049C46.3635 22.092 45.8911 22.1827 45.4115 22.1893C44.924 22.196 44.5013 22.0871 44.052 21.9102C43.4698 21.6809 42.8747 21.5222 42.2769 21.3404C42.0609 21.2747 41.8462 21.1916 41.6587 21.0671C41.4484 20.9276 41.3133 20.7284 41.1444 20.5484C40.8258 20.208 40.5169 19.7209 40.2547 19.7982C39.748 19.9471 39.7329 20.4782 39.9902 21.0182C40.2973 21.6627 40.9009 22.1573 41.2431 22.788C41.7662 23.7511 42.4809 24.6311 43.5844 24.9627" fill="#FAD2C3"/>
<path d="M40.875 22.2427C41.0114 22.4173 41.1399 22.596 41.2439 22.7876C41.767 23.7507 42.4817 24.6307 43.5852 24.9622" stroke="#CC9B91" stroke-miterlimit="10"/>
<path d="M40.5824 19.9333C40.5824 19.9333 40.466 20.0382 40.4962 20.1204C40.5371 20.232 40.6189 20.3244 40.7042 20.4089C40.7287 20.4333 40.7544 20.4578 40.7864 20.472C40.8638 20.5058 40.9584 20.4667 41.0104 20.4009" stroke="#CC9B91" stroke-miterlimit="10"/>
<path d="M40.8479 24.1644C41.1564 23.9111 41.1986 23.5329 40.9639 23.1907C40.8092 22.9653 40.5657 22.9458 40.2839 22.9636C39.8275 22.9924 39.4577 22.8871 38.999 22.9587" stroke="#CC9B91" stroke-miterlimit="10"/>
<path d="M48.9043 21.6822L45.1475 22.1253L45.8741 27.9636L50.7181 27.4596" fill="#C0A34F"/>
<path d="M51.9964 20.9787L45.8457 22.0236L46.6515 28.4938L51.9964 27.9378" fill="#E1C361"/>
<path d="M48.2006 28.3324L47.3828 21.7622" stroke="#C0A34F" stroke-miterlimit="10"/>
<path d="M38.9311 18.8378L37.6982 17.6511" stroke="#BE9F4D" stroke-miterlimit="10"/>
<path d="M39.8084 18.2076L39.2373 16.6596" stroke="#BE9F4D" stroke-miterlimit="10"/>
<path d="M40.6738 18.2133L41.1138 16.6538" stroke="#BE9F4D" stroke-miterlimit="10"/>
</g>
<g opacity="0.9">
<path d="M12.564 41.2636C12.6476 41.0284 12.4796 40.6662 12.2436 40.5502C12.38 40.3773 12.4418 40.168 12.3872 39.932C12.3325 39.696 12.2325 39.5956 11.9805 39.5942C12.0872 39.4244 12.1965 39.1893 12.1703 38.9951C12.0609 38.1947 10.5974 38.1871 9.99026 38.196C9.59026 38.2018 9.17248 38.2778 8.77871 38.2098L6.52582 39.4804L1.39648 39.5018L1.78093 44.1956C1.78093 44.1956 4.84271 43.6169 5.39648 43.5938C5.95026 43.5707 6.50404 43.7378 7.27737 43.7058C7.90315 43.68 8.87782 43.5493 9.80271 43.3569C10.1112 43.2929 10.1485 43.2262 10.46 43.1809C10.736 43.1409 11.0143 43.1004 11.2787 43.0111C11.6018 42.9018 12.2769 42.7302 12.3494 42.2213C12.3738 42.0502 12.3489 41.8111 12.2263 41.7089C12.4436 41.5733 12.5107 41.4147 12.564 41.2636Z" fill="#FAD2C3"/>
<path d="M12.1498 41.7173C12.1498 41.7173 11.641 41.9138 10.961 41.9542C10.5796 41.9769 10.017 41.9493 9.91029 41.8844C9.80406 41.8191 9.65518 41.7644 9.62806 41.5C9.61073 41.3329 9.66584 41.1227 9.8214 40.9947C9.8214 40.9947 11.4356 41.008 12.1743 40.5991" stroke="#CC9B91" stroke-miterlimit="10"/>
<path d="M9.93522 41.9164C9.71256 42.204 9.83744 42.5702 10.1268 42.6911C10.301 42.764 10.6117 42.7787 10.801 42.78C11.045 42.7818 11.289 42.7649 11.5303 42.7298" stroke="#CC9B91" stroke-miterlimit="10"/>
<path d="M9.82091 40.9947C9.82091 40.9947 9.62491 40.9769 9.51869 40.8222C9.40047 40.6498 9.40758 40.4164 9.51825 40.2373C9.56136 40.1676 9.61914 40.1062 9.68091 40.0489L11.9814 39.5942" stroke="#CC9B91" stroke-miterlimit="10"/>
<path d="M1.39648 39.5013C3.21782 39.436 4.23648 39.4124 4.64537 39.3142C4.83693 39.2684 5.49293 38.9391 5.68493 38.8022C6.07071 38.5271 6.87826 38.1289 7.29826 37.9084C8.03471 37.5213 8.12004 37.5133 8.61871 36.8013C8.92848 36.3587 9.03782 35.7133 9.35248 35.7982C9.74848 35.9053 9.86226 36.2098 9.82493 36.5987C9.76626 37.2147 9.46271 37.7929 8.9916 38.5956C8.44848 39.52 8.24582 40.8747 7.28048 41.448" fill="#FAD2C3"/>
<path d="M9.18783 38.2333C9.10072 38.4307 8.83494 38.8253 8.78294 39.0316C8.52116 40.0676 8.24561 40.8747 7.28027 41.448" stroke="#CC9B91" stroke-miterlimit="10"/>
<path d="M9.00564 36.0596C9.00564 36.0596 9.22475 36.1533 9.21631 36.2382C9.20475 36.3538 9.14964 36.4604 9.08964 36.5604C9.07231 36.5893 9.05409 36.6187 9.02698 36.6396C8.96209 36.6898 8.81631 36.6307 8.75098 36.5804" fill="#FAD2C3"/>
<path d="M9.00564 36.0596C9.00564 36.0596 9.22475 36.1533 9.21631 36.2382C9.20475 36.3538 9.14964 36.4604 9.08964 36.5604C9.07231 36.5893 9.05409 36.6187 9.02698 36.6396C8.96209 36.6898 8.81631 36.6307 8.75098 36.5804" stroke="#DEB4A8" stroke-miterlimit="10"/>
<path d="M9.68136 40.0489C9.3578 39.8956 9.18269 39.5591 9.37469 39.2267C9.50224 39.0058 9.73336 38.9458 9.96758 38.8893C10.1449 38.8467 10.3165 38.7862 10.4898 38.7307C10.7467 38.6484 11.0036 38.5658 11.2605 38.484" stroke="#CC9B91" stroke-miterlimit="10"/>
<path d="M-2.67285 47.8413C-2.67285 47.8413 2.33826 46.5689 2.74804 46.1622C3.15782 45.7556 3.23559 44.9818 3.23559 44.9818L5.11159 44.5173L4.48137 39.1351L2.76048 39.2453C2.76048 39.2453 2.19026 38.7987 1.70759 38.752C1.22448 38.7053 -2.47996 39.124 -2.47996 39.124" fill="#DBC58E"/>
<path d="M3.23526 44.9818L2.80859 39.2489" stroke="#AC986A" stroke-miterlimit="10"/>
<path d="M10.6367 35.408L11.3078 33.8453" stroke="#BE9F4D" stroke-miterlimit="10"/>
<path d="M9.62463 34.9662L9.56152 33.3373" stroke="#BE9F4D" stroke-miterlimit="10"/>
<path d="M8.60363 35.1733L7.94141 33.6916" stroke="#BE9F4D" stroke-miterlimit="10"/>
</g>
<g opacity="0.9">
<path d="M48.2426 11.1627C48.2426 11.1627 45.5328 10.5271 45.0195 10.2422C44.6395 10.0311 44.1524 9.79556 43.6479 9.53156C43.1341 9.26267 42.5435 9.16533 42.1426 8.70933C41.7973 8.31644 41.6853 7.81911 41.6373 7.31689C41.6284 7.22444 41.5795 7.17244 41.4893 7.15733C41.2253 7.11244 40.9541 7.264 40.8066 7.484C40.511 7.924 40.6581 8.57378 40.8221 9.02133C40.8221 9.02133 39.9444 8.85867 39.0417 8.91689C38.7124 8.93822 38.183 9.11244 38.0035 9.45067C37.8768 9.68889 37.971 9.97378 37.971 9.97378C37.971 9.97378 37.6377 10.1551 37.5453 10.5333C37.4661 10.8573 37.5008 11.1724 37.8213 11.2822C37.7444 11.256 37.5195 11.5036 37.4853 11.5591C37.4044 11.6907 37.3857 11.8596 37.4324 12.0058C37.503 12.2258 37.7013 12.392 37.9239 12.4658C37.771 12.556 37.7284 12.7676 37.7902 12.932C37.8519 13.0964 37.9941 13.2187 38.1444 13.3129C38.7257 13.6764 39.4866 13.8293 40.1519 13.968C41.1808 14.1827 42.9515 14.3778 43.2808 14.3738C43.647 14.3693 46.1337 15.0244 46.883 15.2004" fill="#FAD2C3"/>
<path d="M40.8213 9.02089C41.3097 9.01022 42.4426 9.12844 42.4426 9.12844" stroke="#CC9B91" stroke-miterlimit="10"/>
<path d="M37.9805 9.97066C38.0765 9.924 38.1871 9.91866 38.2942 9.916C38.8551 9.90044 39.4169 9.93111 39.9725 10.0071" stroke="#CC9B91" stroke-miterlimit="10"/>
<path d="M37.8057 11.2747C38.3612 11.2453 38.9186 11.256 39.4723 11.3053" stroke="#CC9B91" stroke-miterlimit="10"/>
<path d="M37.9072 12.4671C38.4041 12.4982 38.9006 12.5409 39.3957 12.5951" stroke="#CC9B91" stroke-miterlimit="10"/>
<path d="M41.6468 7.40844C41.5779 7.41911 41.4961 7.436 41.4317 7.46178C41.3992 7.47467 41.3659 7.49067 41.3454 7.51867C41.333 7.53555 41.3259 7.556 41.3214 7.57644C41.3032 7.66267 41.3299 7.75155 41.3561 7.836C41.3619 7.85422 41.3677 7.87333 41.3792 7.88889C41.4028 7.92089 41.445 7.93422 41.485 7.93822C41.5677 7.94667 41.733 7.89644 41.733 7.89644" stroke="#CC9B91" stroke-miterlimit="10"/>
<path d="M51.3031 11.6884L45.48 10.3284L44.1143 15.4422L51.3565 18.2898" fill="#DBC58E"/>
<path d="M47.1602 10.7209L45.958 16.1671" stroke="#AC986A" stroke-miterlimit="10"/>
<path d="M41.0172 5.75867L40.8447 4.07111" stroke="#BE9F4D" stroke-miterlimit="10"/>
<path d="M42.1016 5.82755L42.6727 4.27911" stroke="#BE9F4D" stroke-miterlimit="10"/>
<path d="M42.8242 6.37066L44.2731 5.288" stroke="#BE9F4D" stroke-miterlimit="10"/>
</g>
<g opacity="0.9">
<path d="M50.5566 41.2182C50.5566 41.2182 47.7935 40.8169 47.2526 40.5542C46.8517 40.3596 46.3424 40.1498 45.8122 39.9093C45.2722 39.6644 44.6748 39.6244 44.2273 39.1538C43.8415 38.7484 43.6771 38.1964 43.5753 37.632C43.5566 37.5284 43.5024 37.4751 43.4108 37.468C43.1437 37.448 42.8899 37.6524 42.7668 37.9196C42.5197 38.4542 42.7362 39.1747 42.9473 39.6636C42.9473 39.6636 42.0566 39.5827 41.1655 39.7556C40.8402 39.8187 40.3326 40.0796 40.1904 40.4844C40.0899 40.7702 40.2139 41.0827 40.2139 41.0827C40.2139 41.0827 39.9019 41.328 39.8508 41.7689C39.8068 42.1467 39.8753 42.5 40.2055 42.5871C40.1259 42.5662 39.9291 42.8742 39.9011 42.9413C39.8348 43.1004 39.8339 43.2942 39.8966 43.4551C39.9904 43.6969 40.2055 43.8618 40.4348 43.9191C40.2926 44.0396 40.2731 44.2849 40.3517 44.4644C40.4308 44.6436 40.5851 44.7662 40.7446 44.8551C41.3619 45.1991 42.1344 45.2827 42.8113 45.3618C43.8575 45.484 45.6393 45.496 45.9659 45.4524C46.3295 45.4044 48.8731 45.8538 49.6366 45.9653" fill="#FAD2C3"/>
<path d="M42.9473 39.6636C43.4322 39.5938 44.5713 39.5938 44.5713 39.5938" stroke="#CC9B91" stroke-miterlimit="10"/>
<path d="M40.2246 41.0787C40.3153 41.0147 40.4246 40.9951 40.5308 40.9791C41.0868 40.8951 41.6491 40.8636 42.2095 40.884" stroke="#CC9B91" stroke-miterlimit="10"/>
<path d="M40.1904 42.5804C40.7398 42.4818 41.2949 42.4276 41.8513 42.4182" stroke="#CC9B91" stroke-miterlimit="10"/>
<path d="M40.4189 43.9227C40.9163 43.8991 41.4145 43.8889 41.9127 43.8916" stroke="#CC9B91" stroke-miterlimit="10"/>
<path d="M43.5948 37.7351C43.5277 37.7551 43.4481 37.784 43.3868 37.8213C43.3557 37.84 43.3246 37.8622 43.3072 37.8964C43.2966 37.9173 43.2917 37.9413 43.2895 37.9653C43.2806 38.0658 43.3166 38.1631 43.3517 38.256C43.3592 38.276 43.3672 38.2969 43.3801 38.3133C43.4068 38.3471 43.4503 38.3569 43.4903 38.3564C43.5735 38.356 43.7326 38.28 43.7326 38.28" stroke="#CC9B91" stroke-miterlimit="10"/>
<path d="M53.6569 41.4169L47.72 40.6676L46.9111 45.8947L53.3791 47.688" fill="white"/>
<path d="M47.1328 44.4613L48.9901 44.8969" stroke="#9F999A" stroke-miterlimit="10"/>
<path d="M48.1847 43.6542L48.0869 44.3364" stroke="#9F999A" stroke-miterlimit="10"/>
<path d="M42.4319 36.5627L41.7607 35" stroke="#BE9F4D" stroke-miterlimit="10"/>
<path d="M43.4883 36.3142L43.5701 34.6693" stroke="#BE9F4D" stroke-miterlimit="10"/>
<path d="M44.4648 36.328L45.1275 34.8462" stroke="#BE9F4D" stroke-miterlimit="10"/>
</g>
<g opacity="0.9">
<path d="M0.759563 25.4596C2.03734 25.7698 3.3169 26.0809 4.61645 26.2769C5.3609 26.3893 6.34534 26.5582 7.06179 26.2227C7.52756 26.0044 7.8169 25.668 8.06401 25.2302C8.10934 25.1498 8.17379 25.1222 8.26001 25.1444C8.51201 25.2102 8.69023 25.4582 8.73156 25.7182C8.81423 26.2387 8.41912 26.7711 8.09156 27.1129C8.09156 27.1129 8.78445 27.2924 9.56001 27.7111C9.84312 27.864 10.2605 28.2924 10.3351 28.7151C10.3818 28.9796 10.224 29.2418 10.224 29.2418C10.224 29.2418 10.4316 29.5173 10.3591 29.8996C10.2969 30.2271 10.156 30.4182 9.82756 30.3884C9.90667 30.3956 10.0049 30.7124 10.0125 30.7769C10.0302 30.9293 9.97823 31.0911 9.87734 31.2053C9.72534 31.3773 9.48179 31.4484 9.25467 31.4253C9.35334 31.5693 9.33956 31.6507 9.21823 31.7756C9.09645 31.9004 8.9209 31.9542 8.74934 31.9791C8.08667 32.0751 7.31556 32.0351 6.66979 31.892C5.67112 31.6711 4.02401 31.132 3.73423 30.9951C3.41201 30.8431 0.943119 30.4329 0.208008 30.2902" fill="#FAD2C3"/>
<path d="M8.09184 27.1129C7.61006 26.9733 6.77539 26.8338 6.77539 26.8338" stroke="#CC9B91" stroke-miterlimit="10"/>
<path d="M10.2161 29.2347C10.061 29.0689 9.71163 28.7844 9.41252 28.6356C9.0943 28.4769 8.78407 28.2964 8.44141 28.1947" stroke="#CC9B91" stroke-miterlimit="10"/>
<path d="M9.84294 30.3876C9.36294 30.136 8.86516 29.92 8.35449 29.7409" stroke="#CC9B91" stroke-miterlimit="10"/>
<path d="M9.26822 31.4329C8.81577 31.26 8.35888 31.0978 7.89844 30.9467" stroke="#CC9B91" stroke-miterlimit="10"/>
<path d="M8.01783 25.3098C8.07427 25.3471 8.14005 25.396 8.18672 25.4453C8.21027 25.4702 8.23294 25.4982 8.24005 25.532C8.24405 25.5524 8.24228 25.5742 8.23783 25.5947C8.21872 25.6809 8.15916 25.7507 8.10139 25.8169C8.08894 25.8311 8.07605 25.8458 8.05961 25.8556C8.02583 25.8751 7.98316 25.8702 7.94583 25.8573C7.86939 25.8316 7.74316 25.7191 7.74316 25.7191" stroke="#CC9B91" stroke-miterlimit="10"/>
<path d="M-1.99924 24.2258L3.55676 25.9658L2.12654 31.0516L-4.32812 30.0444" fill="white"/>
<path d="M1.9535 25.464L0.219727 30.7538" stroke="#9F999A" stroke-miterlimit="10"/>
<path d="M7.24924 24.7636L6.57812 23.2009" stroke="#BE9F4D" stroke-miterlimit="10"/>
<path d="M8.30531 24.5151L8.1582 22.8498" stroke="#BE9F4D" stroke-miterlimit="10"/>
<path d="M9.14258 24.5707L9.84658 23.2009" stroke="#BE9F4D" stroke-miterlimit="10"/>
</g>
</g>
</g>
<defs>
<clipPath id="clip0_1141_47350">
<rect width="48" height="48" rx="24" fill="white"/>
</clipPath>
<clipPath id="clip1_1141_47350">
<rect width="48" height="48" fill="white"/>
</clipPath>
</defs>
</svg>
