<svg width="48" height="48" viewBox="0 0 48 48" fill="none" xmlns="http://www.w3.org/2000/svg">
<g clip-path="url(#clip0_1141_49368)">
<rect width="48" height="48" rx="24" fill="white"/>
<g opacity="0.55">
<path d="M23.5317 18.2751C24.2437 18.2751 24.8206 18.852 24.8206 19.564C24.8206 19.592 24.8184 19.6195 24.8166 19.6471C25.2326 19.5364 25.6726 19.5635 26.0806 19.6862C26.5064 19.8142 26.8988 20.0409 27.2637 20.3075C27.9939 20.6929 28.4432 21.2053 28.7139 21.7409L28.7148 21.7413C29.3112 21.1413 29.8361 20.9991 29.5588 20.0675C29.5437 20.0169 29.5272 19.9667 29.5095 19.9169L28.9677 18.0213C28.7392 17.2227 28.5468 16.4129 28.4317 15.5902C28.1704 13.7191 27.0832 13.1342 25.2268 13.1795C25.2268 13.1795 20.6797 13.2911 20.6792 13.2911C19.9135 13.3098 19.2139 13.7151 18.6872 14.248C18.0335 14.9102 17.8757 15.8595 17.749 16.7427C17.501 18.4693 17.1935 20.1862 16.8432 21.8947C16.7699 22.2702 16.6135 22.7227 16.6197 23.1022C16.5721 23.3582 16.557 23.6547 16.4717 23.9018C16.2708 24.9884 20.5432 20.408 22.4841 18.8142C22.4886 18.8107 22.5015 18.8115 22.5206 18.8155C22.7455 18.4791 23.0899 18.2751 23.5317 18.2751Z" fill="#AC9686"/>
<path d="M27.9268 10.5791C27.6308 10.3413 27.2833 10.1631 27.0077 9.904C26.4446 9.37467 26.2744 8.61912 26.1131 7.86445C27.0308 7.50845 27.6597 6.752 27.6455 5.88578C27.6259 4.69823 25.8504 3.38223 24.4339 3.83467C24.2064 3.90756 23.8899 3.89023 23.5686 3.92356C22.6126 3.62667 21.5144 3.924 20.8788 4.82889C20.6886 5.1 20.5535 5.37867 20.5251 5.64623C20.5068 5.81467 20.5019 5.99556 20.3993 6.13334C20.3228 6.23556 20.2033 6.29912 20.0882 6.35956C19.3788 6.73334 18.6593 7.152 18.2117 7.79556C17.7642 8.43912 17.6682 9.368 18.1988 9.95645C18.2771 10.0431 18.3722 10.1333 18.3717 10.2471C18.3713 10.3573 18.2802 10.4449 18.2046 10.5276C17.7957 10.9742 17.6904 11.6271 17.8402 12.204C17.9899 12.7809 18.3686 13.2867 18.8237 13.6947C19.5206 14.3196 20.4139 14.7431 21.3562 14.8956C21.9117 14.9853 22.5335 14.9667 22.9668 14.6267C23.3668 14.3129 23.5179 13.7942 23.5659 13.3022C23.6473 12.4676 25.0073 12.4858 25.1584 13.9338C25.1859 14.1969 25.2468 14.4969 25.4877 14.6293C25.7455 14.7711 26.0739 14.644 26.3104 14.4742C26.5468 14.3044 26.7633 14.0853 27.0531 14.0231C27.5019 13.9267 28.0264 14.2311 28.4077 13.9867C28.5495 13.896 28.6353 13.7458 28.7011 13.5956C29.1459 12.5764 28.8175 11.2942 27.9268 10.5791Z" fill="#AC9686"/>
<path d="M27.0796 9.24176L27.077 9.18754L27.0761 9.16576L27.0325 8.25065L26.9668 6.87288L26.9597 6.71954C26.9308 6.11688 26.6761 5.57999 26.2832 5.18221C26.2783 5.17732 26.2734 5.17243 26.2685 5.16754C26.2623 5.17065 26.2561 5.17332 26.2499 5.17599C26.1668 5.21199 26.0725 5.22621 25.9734 5.20976C24.9481 5.03954 24.2081 6.07643 23.7219 7.17065C23.665 7.29865 23.5979 7.41954 23.5223 7.53199C22.9717 8.35332 21.973 8.65554 21.0792 8.41465C20.9748 8.58265 20.9245 8.78665 20.9525 9.00176C21.0134 9.46576 21.4392 9.79421 21.9063 9.77199L22.1063 9.76265C22.1308 9.9151 22.1685 10.0627 22.2192 10.204C22.1997 10.3124 22.1912 10.4249 22.1965 10.5395L22.3192 13.2507L20.3525 13.3222L21.6019 15.092C22.0579 15.6938 22.7201 16.1182 23.465 16.2387C23.5757 16.2564 23.6881 16.2698 23.801 16.2787C25.089 16.3791 26.2201 15.4218 26.3934 14.1418L26.4961 13.2782L25.9481 13.1978C25.7903 13.1724 25.4854 13.1733 25.3259 13.1711L25.2699 11.7662C26.361 11.4529 27.1361 10.4249 27.0796 9.24176Z" fill="#C7B6A8"/>
<path d="M27.0798 9.24178L27.0771 9.18756C27.1389 10.4844 26.1376 11.5862 24.8402 11.648C23.658 11.7044 22.6407 10.876 22.4229 9.74712L22.1064 9.76223C22.1944 10.3058 22.4558 10.7871 22.83 11.152C23.0607 12.0876 24.1496 12.5102 24.9509 11.9756L25.2598 11.7693C26.3567 11.4591 27.1362 10.4285 27.0798 9.24178Z" fill="#BAA89B"/>
<path d="M25.3643 10.9577C25.3545 10.9577 25.3447 10.9537 25.3376 10.9466C25.171 10.7751 24.9514 10.8755 24.9421 10.88C24.9234 10.8889 24.9012 10.8809 24.8923 10.8622C24.8834 10.8435 24.8914 10.8213 24.9101 10.8124C24.9127 10.8111 25.1865 10.6844 25.391 10.8946C25.4052 10.9093 25.4052 10.9329 25.3901 10.9475C25.383 10.9546 25.3736 10.9577 25.3643 10.9577Z" fill="#998678"/>
<path d="M24.1548 7.58801C24.2228 7.60313 24.3028 7.58001 24.3815 7.56179C24.4601 7.54179 24.5397 7.52401 24.6095 7.51068C24.6792 7.49735 24.7601 7.4849 24.8406 7.47468C24.9201 7.46268 25.0037 7.45513 25.0606 7.41601C25.1157 7.37913 25.1264 7.30224 25.0384 7.22624C24.9552 7.15201 24.7632 7.09068 24.5321 7.13379C24.3015 7.17824 24.1481 7.30535 24.1006 7.40401C24.049 7.50713 24.0895 7.57424 24.1548 7.58801Z" fill="#998678"/>
<path d="M26.8997 7.38266C26.8322 7.39999 26.7517 7.37955 26.6726 7.36399C26.5931 7.34666 26.5131 7.33155 26.4433 7.32043C26.3731 7.30932 26.2922 7.29955 26.2113 7.29199C26.1313 7.28266 26.0477 7.27777 25.9895 7.24043C25.9331 7.20577 25.9202 7.12888 26.0055 7.05021C26.086 6.97332 26.2762 6.90577 26.5086 6.94132C26.7406 6.97821 26.898 7.09999 26.9486 7.19732C27.0028 7.29777 26.9646 7.36666 26.8997 7.38266Z" fill="#998678"/>
<path d="M21.5619 9.20001C21.5485 9.20001 21.5352 9.19246 21.5285 9.18001C21.5192 9.16179 21.5263 9.13912 21.5445 9.12979L21.8019 8.99735L21.5743 8.5689C21.5645 8.55068 21.5716 8.52801 21.5899 8.51868C21.6081 8.5089 21.6307 8.51601 21.6401 8.53424L21.9032 9.02979L21.5787 9.1969C21.5734 9.19868 21.5676 9.20001 21.5619 9.20001Z" fill="#998678"/>
<path d="M24.1373 9.00266C24.1373 9.00266 24.5893 9.16754 25.0333 9.19421C25.4773 9.22088 25.2164 9.91466 24.5435 9.9071C23.8702 9.89955 23.772 8.95866 24.1373 9.00266Z" fill="white"/>
<path d="M25.4924 9.10355C25.472 9.10355 25.4555 9.0871 25.4551 9.0671C25.4546 9.04666 25.4711 9.02977 25.4915 9.02933H25.5044C25.6351 9.0271 25.7569 8.97421 25.848 8.88044C25.9386 8.78666 25.9875 8.6631 25.9853 8.53244C25.9844 8.47733 25.9622 8.42621 25.9226 8.38755C25.884 8.35021 25.8333 8.32977 25.7795 8.32977C25.7782 8.32977 25.7773 8.32977 25.776 8.32977L25.6138 8.33244L25.6013 7.5711C25.6009 7.55066 25.6173 7.53333 25.6382 7.53333H25.6386C25.6591 7.53333 25.6755 7.54977 25.676 7.56977L25.6871 8.25688L25.7746 8.25555C25.8471 8.25333 25.9204 8.28221 25.9742 8.33466C26.028 8.38666 26.0586 8.45688 26.0595 8.53155C26.0622 8.68221 26.0058 8.82444 25.9009 8.93288C25.796 9.04088 25.6555 9.10221 25.5053 9.10444H25.4924C25.4929 9.10355 25.4929 9.10355 25.4924 9.10355Z" fill="#998678"/>
<path d="M24.8308 8.08488C24.8797 8.16488 24.8544 8.26933 24.7744 8.31777C24.6944 8.36666 24.5899 8.34133 24.5415 8.26133C24.4926 8.18133 24.5179 8.07688 24.5979 8.02844C24.6779 7.97955 24.7819 8.00488 24.8308 8.08488Z" fill="#998678"/>
<path d="M26.5799 7.9489C26.6287 8.0289 26.6034 8.13334 26.5234 8.18179C26.4434 8.23068 26.339 8.20534 26.2905 8.12534C26.2416 8.04534 26.267 7.9409 26.347 7.89245C26.427 7.84356 26.531 7.8689 26.5799 7.9489Z" fill="#998678"/>
<path d="M24.5167 8.45954C24.5061 8.45954 24.495 8.45465 24.4878 8.44576C24.475 8.42976 24.4772 8.40621 24.4932 8.39332C24.7678 8.1711 24.967 8.36265 24.9692 8.36443C24.9838 8.3791 24.9838 8.40265 24.9696 8.41732C24.9554 8.43198 24.9318 8.43198 24.9172 8.41776C24.9105 8.41154 24.7616 8.27243 24.5403 8.45154C24.5332 8.45687 24.5252 8.45954 24.5167 8.45954Z" fill="#998678"/>
<path d="M26.2658 8.30578C26.2551 8.30578 26.244 8.3009 26.2369 8.29201C26.224 8.27601 26.2262 8.25245 26.2422 8.23956C26.5169 8.01734 26.716 8.20845 26.7178 8.21067C26.7324 8.22534 26.7324 8.24889 26.7182 8.26356C26.704 8.27823 26.6804 8.27823 26.6658 8.26401C26.6595 8.25778 26.5106 8.11867 26.2893 8.29778C26.2822 8.30312 26.2742 8.30578 26.2658 8.30578Z" fill="#998678"/>
</g>
<g opacity="0.55">
<path d="M25.3204 30.3773C25.3204 30.3773 20.8204 30.2129 20.8196 30.2129C19.9058 30.1795 18.9996 30.7049 18.4542 31.4169C17.8942 32.1484 17.8191 33.2084 17.6129 34.0818C17.3773 35.0782 17.1329 36.0724 16.8658 37.0604C16.716 37.6146 15.8169 41.592 15.7382 42.1609C15.4555 44.1995 17.4973 42.8609 19.6449 43.0702C19.7142 43.0769 19.784 43.0818 19.8533 43.0844L28.1809 43.3964L28.4649 40.6711L29.0644 39.7409C29.5067 39.0542 29.6324 38.1529 29.3978 37.3426L28.3524 33.7284C28.4436 31.2626 27.3876 30.4524 25.3204 30.3773Z" fill="#B7A595"/>
<path d="M19.0365 27.0671C19.2076 26.896 19.4076 26.7458 19.5178 26.5235C19.7143 26.128 19.5649 25.6564 19.532 25.2151C19.4863 24.6022 19.704 23.9724 20.0854 23.5089C20.1454 23.436 20.2098 23.3693 20.2769 23.3071L20.7569 22.1106C21.0934 21.2715 21.8031 20.6893 22.6196 20.4742C22.3871 20.2409 22.1885 19.9151 22.2431 19.564C22.3618 18.804 22.82 18.2751 23.532 18.2751C24.244 18.2751 24.8209 18.852 24.8209 19.564C24.8209 19.592 24.8187 19.6195 24.8169 19.6471C25.2329 19.5364 25.6729 19.5635 26.0809 19.6862C26.5067 19.8142 26.8991 20.0409 27.264 20.3075C28.1365 20.768 28.6094 21.4098 28.8534 22.056C28.8863 22.1151 28.9187 22.1746 28.9494 22.2351C29.332 22.9933 29.5111 23.8915 29.3738 24.7595C29.2271 25.6835 28.7969 26.5431 29.1067 27.472C29.3445 28.1844 29.864 28.8013 29.8809 29.5955C29.8863 29.8569 29.7974 30.1666 29.568 30.2529C29.4658 30.2911 29.3556 30.2769 29.2498 30.2613C26.3787 29.8493 23.5436 29.2626 20.7094 28.6493C20.2636 28.5529 19.8169 28.456 19.3831 28.312C19.0951 28.2164 18.7703 28.0435 18.7356 27.7164C18.708 27.4693 18.8649 27.2382 19.0365 27.0671Z" fill="#AC9686"/>
<path d="M22.1269 30.2369C22.1269 30.2364 22.1269 30.2356 22.1273 30.2351L22.9305 26.6978C22.9531 26.5969 22.9856 26.5004 23.0256 26.4089C23.014 26.228 23.0225 26.044 23.0505 25.8587L22.7753 25.7969C22.2793 25.6853 21.9673 25.1933 22.0789 24.6973L22.098 24.6129C22.2096 24.1169 22.7016 23.8049 23.1976 23.9164L23.3465 23.9498C25.3073 24.2987 25.8927 22.2618 25.8927 22.2618C25.85 23.2227 26.2745 23.3347 26.9825 23.4618C27.0549 23.4747 27.122 22.836 27.122 22.836C27.122 22.836 27.1593 23.5133 27.2002 23.5178C27.2678 23.5249 27.6345 23.6738 27.7011 23.6787C27.7438 23.6818 27.9042 23.7658 27.9718 23.7911C28.3753 23.9422 28.7527 24.0489 28.8878 24.1156L28.5234 26.192L28.3869 26.7996L28.3722 26.864C28.0967 28.0916 26.9918 28.9169 25.7798 28.8849L25.4536 30.3382L26.6487 30.5147C26.4402 32.4249 23.954 33.4649 22.6696 32.036L21.0225 30.2036L22.1269 30.2369Z" fill="#C7B6A8"/>
<path d="M23.3619 26.1658C23.3615 26.1955 23.3633 26.2249 23.3637 26.2547C23.3646 26.3027 23.3646 26.3511 23.3681 26.3987C23.3708 26.432 23.3757 26.4649 23.3797 26.4978C23.3846 26.5413 23.3895 26.5849 23.3966 26.6275C23.4024 26.6618 23.4108 26.6951 23.4179 26.7289C23.4268 26.7698 23.4353 26.8107 23.4464 26.8511C23.4557 26.8849 23.4664 26.9178 23.477 26.9511C23.4895 26.9902 23.5019 27.0293 23.5161 27.068C23.5286 27.1009 23.5424 27.1329 23.5557 27.1649C23.5717 27.2022 23.5877 27.2395 23.6055 27.2764C23.6206 27.308 23.637 27.3387 23.6539 27.3693C23.673 27.4049 23.693 27.4404 23.7139 27.4751C23.7321 27.5049 23.7508 27.5342 23.7704 27.5631C23.793 27.5969 23.8161 27.6302 23.8406 27.6631C23.8615 27.6911 23.8824 27.7187 23.9041 27.7458C23.9299 27.7778 23.9566 27.8084 23.9841 27.8391C24.0073 27.8649 24.0304 27.8902 24.0548 27.9151C24.0837 27.9449 24.1139 27.9733 24.1446 28.0018C24.1699 28.0249 24.1948 28.0484 24.221 28.0707C24.2535 28.0982 24.2873 28.124 24.321 28.1498C24.3481 28.1702 24.3744 28.1911 24.4024 28.2107C24.4384 28.2355 24.4757 28.2587 24.513 28.2818C24.541 28.2991 24.5686 28.3173 24.5975 28.3333C24.6379 28.356 24.6801 28.3764 24.7219 28.3969C24.7499 28.4107 24.777 28.4253 24.8059 28.4382C24.8535 28.4595 24.9033 28.4773 24.9526 28.4955C24.9775 28.5049 25.0015 28.5156 25.0268 28.5236C25.1024 28.5484 25.1802 28.5702 25.2593 28.5884L25.4819 28.6382C26.7917 28.9324 28.0917 28.1089 28.3859 26.7991L28.3713 26.8635C28.0957 28.0915 26.9895 28.9173 25.777 28.8844L25.7788 28.8853C25.1419 29.5978 23.9721 29.3462 23.6841 28.4351L23.437 27.6529C23.1024 27.1373 22.9521 26.504 23.0499 25.8582L23.3779 25.932C23.3686 26.0107 23.3633 26.0884 23.3619 26.1658Z" fill="#BAA89B"/>
<path d="M26.5552 27.9062C26.56 27.9062 26.5649 27.9053 26.5698 27.9031C26.5889 27.8951 26.5974 27.8729 26.5894 27.8542C26.4645 27.5649 26.1409 27.5871 26.1378 27.588C26.1174 27.5898 26.1023 27.6076 26.1036 27.628C26.1054 27.6484 26.1232 27.6631 26.1436 27.6622C26.1552 27.6618 26.4174 27.6444 26.5209 27.884C26.5272 27.8978 26.5409 27.9062 26.5552 27.9062Z" fill="#998678"/>
<path d="M26.1304 24.2325C26.1833 24.2547 26.2513 24.2476 26.318 24.2445C26.3847 24.24 26.4518 24.2369 26.51 24.2365C26.5687 24.236 26.6358 24.2378 26.7024 24.2409C26.7687 24.2427 26.8375 24.2489 26.8891 24.2254C26.9389 24.2036 26.9589 24.1427 26.8989 24.0685C26.8424 23.996 26.6958 23.9182 26.502 23.9196C26.3087 23.9218 26.166 24.0022 26.1131 24.0756C26.0567 24.1516 26.0793 24.212 26.1304 24.2325Z" fill="#998678"/>
<path d="M28.6892 24.8436C28.6319 24.84 28.5737 24.8036 28.5159 24.7716C28.4581 24.7383 28.399 24.7058 28.347 24.6796C28.2945 24.6534 28.2337 24.6254 28.1723 24.5987C28.1119 24.5711 28.0479 24.5463 28.0114 24.5027C27.9763 24.4614 27.9852 24.3978 28.0719 24.3578C28.1545 24.3178 28.3203 24.3129 28.4937 24.3991C28.6661 24.4863 28.759 24.6218 28.7741 24.7107C28.7914 24.8031 28.7443 24.8471 28.6892 24.8436Z" fill="#998678"/>
<path d="M26.6761 25.0578C26.6823 25.0578 26.6885 25.0565 26.6943 25.0529C26.7121 25.0427 26.7188 25.0205 26.7085 25.0022C26.7072 25 26.5699 24.76 26.2436 24.8969C26.2245 24.9049 26.2156 24.9267 26.2236 24.9458C26.2316 24.9649 26.2534 24.9738 26.2725 24.9658C26.5352 24.856 26.6392 25.0311 26.6436 25.0387C26.6503 25.0507 26.6628 25.0578 26.6761 25.0578Z" fill="#998678"/>
<path d="M28.3275 25.4178C28.3324 25.4178 28.3373 25.4169 28.3422 25.4147C28.3613 25.4067 28.3702 25.3849 28.3622 25.3658C28.3613 25.3636 28.2587 25.1293 27.9458 25.2218C27.9262 25.2276 27.9147 25.2485 27.9204 25.268C27.9262 25.2876 27.9471 25.2991 27.9667 25.2933C28.2164 25.2196 28.2902 25.3876 28.2933 25.3951C28.2995 25.4093 28.3133 25.4178 28.3275 25.4178Z" fill="#998678"/>
<path d="M22.6622 25.116C22.6648 25.116 22.6675 25.116 22.6697 25.1151L23.0533 25.0347L22.9217 24.4453C22.9173 24.4253 22.8977 24.4129 22.8773 24.4169C22.8573 24.4213 22.8444 24.4413 22.8488 24.4613L22.964 24.9769L22.6546 25.0418C22.6346 25.0462 22.6217 25.0658 22.6257 25.0858C22.6293 25.104 22.6448 25.116 22.6622 25.116Z" fill="#F19065"/>
<path d="M25.4486 25.3067C25.4486 25.3067 25.9029 25.748 26.422 26.0196C26.9411 26.2911 26.254 26.984 25.4491 26.6125C24.6446 26.2409 25.0335 25.0569 25.4486 25.3067Z" fill="white"/>
<path d="M27.3599 26.1809C27.4293 26.1809 27.4964 26.1564 27.5511 26.1098C27.6239 26.0475 27.6617 25.9573 27.6546 25.8613L27.5635 24.6644C27.5617 24.644 27.5426 24.6289 27.5235 24.6302C27.5031 24.632 27.4875 24.6498 27.4893 24.6702L27.5804 25.8671C27.5857 25.9387 27.5577 26.0067 27.5031 26.0529C27.4484 26.0991 27.3773 26.1164 27.3071 26.0995L26.9444 26.012C26.9239 26.0075 26.9044 26.0195 26.8995 26.0395C26.8946 26.0595 26.9071 26.0795 26.9271 26.0844L27.2897 26.172C27.3133 26.1782 27.3368 26.1809 27.3599 26.1809Z" fill="#998678"/>
</g>
<path d="M1.58628 41.5729L8.6165 41.616L8.78895 42.7374L1.02539 42.6512L1.58628 41.5729Z" fill="#989593"/>
<path d="M7.2274 41.7747C7.29096 42.092 7.36118 42.4076 7.43584 42.7222L8.78873 42.7373L8.61629 41.616L7.19629 41.6071C7.2074 41.6631 7.21629 41.7191 7.2274 41.7747Z" fill="#C4C5D1"/>
<path d="M1.28272 42.1565L1.02539 42.6512L8.78895 42.7374L8.71828 42.2796C6.77072 42.2374 2.95561 42.1587 1.28272 42.1565Z" fill="#E7D5CD"/>
<path d="M6.37375 24.5365C6.37375 24.5365 0.507969 41.7889 0.421747 42.4356C0.335524 43.0827 0.378635 43.4707 0.895969 43.3845C1.4133 43.2983 1.71552 42.1338 2.31908 40.4516C2.92308 38.7694 7.15019 26.8223 7.15019 26.8223L6.37375 24.5365Z" fill="#989593"/>
<path d="M5.74425 28.3929C5.86958 28.9036 5.9638 29.4236 6.04603 29.9427C6.68736 28.1312 7.15047 26.8223 7.15047 26.8223L6.37403 24.5365C6.37403 24.5365 6.00158 25.6316 5.44336 27.2796C5.54469 27.6503 5.65269 28.0196 5.74425 28.3929Z" fill="#C4C5D1"/>
<path d="M13.7491 5.21381C13.7491 5.21381 8.23931 5.26581 5.81309 5.26047C4.38953 5.25736 4.24642 6.0427 4.26065 6.93914C4.2722 7.64758 4.35665 8.4827 4.43265 9.22492C4.60509 10.9071 7.96109 40.9916 8.18509 42.3925C8.35753 43.4707 8.96153 44.1178 9.69487 44.204C11.3851 44.4027 23.4966 44.2471 24.0144 44.2903C24.5322 44.3334 25.4375 43.7294 25.3082 42.608C25.1789 41.4867 21.0815 7.11114 21.0815 7.11114C21.0815 7.11114 21.1246 5.38581 19.4424 5.29958C17.7602 5.21381 13.7491 5.21381 13.7491 5.21381Z" fill="#989593"/>
<path d="M15.9111 43.0573C11.8227 43.0573 10.5235 43.0053 10.1542 42.9618C10.0071 42.9444 9.80976 42.6698 9.73376 42.1951C9.52888 40.9138 6.19376 11.0773 5.99065 9.09733C5.92176 8.42444 5.83554 7.58667 5.82488 6.91911C5.82176 6.72178 5.83021 6.60222 5.83954 6.53155C5.89732 6.52133 5.98665 6.51155 6.11732 6.51155L6.52354 6.512C9.03999 6.512 13.868 6.46711 14.068 6.46533C14.2418 6.46533 18.0898 6.468 19.6915 6.54978C19.8347 6.55689 20.1315 6.57244 20.1435 7.08933L20.1369 7.19378L20.1524 7.26C20.1933 7.60355 24.2511 41.6458 24.3787 42.752C24.3987 42.9249 24.3418 43.0036 24.2987 43.0373C24.1853 43.0342 23.9813 43.032 23.556 43.032C22.9551 43.032 22.0524 43.0364 20.9911 43.0413C19.5022 43.048 17.6498 43.0573 15.9111 43.0573Z" fill="#ACADAD"/>
<path d="M1.58628 41.5746L8.6165 41.6178L8.78895 42.7391L1.02539 42.6529L1.58628 41.5746Z" fill="#7C6B5F"/>
<path d="M7.2274 41.7764C7.29096 42.0938 7.36118 42.4093 7.43584 42.724L8.78873 42.7391L8.61629 41.6178L7.19629 41.6089C7.20696 41.6649 7.21629 41.7209 7.2274 41.7764Z" fill="#C4C5D1"/>
<path d="M1.28272 42.1582L1.02539 42.6529L8.78895 42.7391L8.71828 42.2813C6.77072 42.2386 2.95561 42.1604 1.28272 42.1582Z" fill="#E7D5CD"/>
<path d="M6.37375 24.5378C6.37375 24.5378 0.507969 41.7902 0.421747 42.4369C0.335524 43.084 0.378635 43.472 0.895969 43.3858C1.41375 43.2996 1.71552 42.1351 2.31908 40.4529C2.92308 38.7707 7.14975 26.8236 7.14975 26.8236L6.37375 24.5378Z" fill="#907E72"/>
<path d="M5.74425 28.3947C5.86958 28.9053 5.9638 29.4253 6.04603 29.9444C6.68736 28.1329 7.15047 26.824 7.15047 26.824L6.37403 24.5378C6.37403 24.5378 6.00158 25.6329 5.44336 27.2809C5.54425 27.652 5.65269 28.0209 5.74425 28.3947Z" fill="#C4C5D1"/>
<path d="M13.7491 5.21509C13.7491 5.21509 8.23931 5.26709 5.81309 5.26175C4.38953 5.25864 4.24642 6.04398 4.26065 6.94042C4.2722 7.64887 4.35665 8.48398 4.43265 9.2262C4.60509 10.9084 7.96109 40.9929 8.18509 42.3938C8.35753 43.472 8.96153 44.1191 9.69487 44.2053C11.3851 44.404 23.4966 44.2484 24.0144 44.2915C24.5322 44.3346 25.4375 43.7306 25.3082 42.6093C25.1789 41.488 21.0815 7.11242 21.0815 7.11242C21.0815 7.11242 21.1246 5.38709 19.4424 5.30087C17.7602 5.21509 13.7491 5.21509 13.7491 5.21509Z" fill="#907E72"/>
<path d="M15.9111 43.0586C11.8227 43.0586 10.5235 43.0066 10.1542 42.9631C10.0071 42.9457 9.80977 42.6711 9.73377 42.1964C9.52888 40.9151 6.19377 11.0786 5.99065 9.09861C5.92177 8.42572 5.83554 7.58795 5.82488 6.92039C5.82176 6.72306 5.83021 6.6035 5.83954 6.53284C5.89732 6.52261 5.98665 6.51284 6.11732 6.51284L6.52354 6.51328C9.03999 6.51328 13.868 6.46839 14.068 6.46661C14.2418 6.46661 18.0898 6.46928 19.6915 6.55106C19.8347 6.55817 20.1315 6.57372 20.1435 7.09061L20.1369 7.19506L20.1524 7.26128C20.1933 7.60484 24.2511 41.6471 24.3787 42.7533C24.3987 42.9262 24.3418 43.0048 24.2987 43.0386C24.1853 43.0355 23.9813 43.0333 23.556 43.0333C22.9551 43.0333 22.0524 43.0377 20.9911 43.0426C19.5022 43.0497 17.6498 43.0586 15.9111 43.0586Z" fill="#ACADAD"/>
<path d="M24.0911 42.9529C23.9636 41.8467 19.9058 7.80446 19.8649 7.4609L19.8494 7.39468L19.856 7.29024C19.844 6.77335 19.5471 6.75779 19.404 6.75068C17.8022 6.66846 13.9547 6.66624 13.7805 6.66624C13.5805 6.66802 8.75247 6.7129 6.23603 6.7129L5.82981 6.71246C5.82847 6.71246 5.82758 6.71246 5.82625 6.71246C5.82714 6.6929 5.82758 6.67424 5.82847 6.65735C5.82492 6.72402 5.82314 6.80935 5.82492 6.91913C5.83558 7.58713 5.92136 8.42446 5.99069 9.09735C6.1938 11.0773 9.52892 40.9138 9.73381 42.1951C9.80981 42.6702 10.0071 42.9449 10.1542 42.9618C10.524 43.0054 11.8227 43.0573 15.9111 43.0573C17.6498 43.0573 19.5023 43.0485 20.9911 43.0414C22.0525 43.036 22.9551 43.032 23.556 43.032C23.8014 43.032 23.9716 43.0329 24.0947 43.0338C24.0951 43.0089 24.0947 42.9827 24.0911 42.9529Z" fill="#DBCABD"/>
<path d="M24.2259 43.0351C24.2201 43.0351 24.2152 43.0351 24.209 43.0347C24.2148 43.0351 24.2205 43.0351 24.2259 43.0351Z" fill="#C8E6F0"/>
<mask id="mask0_1141_49368" style="mask-type:luminance" maskUnits="userSpaceOnUse" x="5" y="6" width="20" height="38">
<path d="M24.0911 42.9529C23.9636 41.8467 19.9058 7.80446 19.8649 7.4609L19.8494 7.39468L19.856 7.29024C19.844 6.77335 19.5471 6.75779 19.404 6.75068C17.8022 6.66846 13.9547 6.66624 13.7805 6.66624C13.5805 6.66802 8.75247 6.7129 6.23603 6.7129L5.82981 6.71246C5.82847 6.71246 5.82758 6.71246 5.82625 6.71246C5.82669 6.6929 5.82758 6.67424 5.82847 6.65735C5.82492 6.72402 5.82314 6.80935 5.82492 6.91913C5.83558 7.58713 5.92136 8.42446 5.99069 9.09735C6.1938 11.0773 9.52892 40.9138 9.73381 42.1951C9.80981 42.6702 10.0071 42.9449 10.1542 42.9618C10.524 43.0054 11.8227 43.0573 15.9111 43.0573C17.6498 43.0573 19.5023 43.0485 20.9911 43.0414C22.0525 43.036 22.9551 43.032 23.556 43.032C23.8014 43.032 23.9716 43.0329 24.0947 43.0338C24.0951 43.0089 24.0947 42.9827 24.0911 42.9529Z" fill="white"/>
</mask>
<g mask="url(#mask0_1141_49368)">
<path d="M15.1383 41.3773H15.1863C15.1863 41.3773 15.2765 41.7818 15.8161 41.9529C16.3557 42.124 17.2352 42.2667 17.4654 42.5173C17.6957 42.768 17.5112 42.932 16.9108 42.9C16.3103 42.868 16.0005 42.6942 15.3281 42.7884C14.6557 42.8827 14.4419 43.0235 14.0814 42.8075C13.721 42.5915 13.709 41.5578 13.709 41.5578L15.1383 41.3773Z" fill="#7E6C5E"/>
<path d="M12.0409 42.116C12.0409 42.116 11.9738 42.312 12.3983 42.5982C12.8747 42.9196 13.5476 43.104 13.8009 43.3813C14.0538 43.6587 13.896 43.896 13.112 43.7836C12.7747 43.7351 12.3498 43.6049 11.9458 43.5471C11.4098 43.4702 10.9098 43.4551 10.6916 43.2796C10.3085 42.972 10.4023 42.1582 10.4605 41.9284C10.5178 41.6987 12.024 41.8276 12.0409 42.116Z" fill="#7E6C5E"/>
<path d="M14.0805 42.8071C14.0831 42.8089 14.0858 42.8098 14.0885 42.8116C14.3938 42.2907 14.9142 41.9102 15.5093 41.8036C15.2405 41.6151 15.1862 41.3769 15.1862 41.3769H15.1382L13.708 41.5573C13.708 41.5573 13.72 42.5911 14.0805 42.8071Z" fill="#7E6C5E"/>
<path d="M12.1443 42.38C12.007 42.2173 12.0407 42.116 12.0407 42.116C12.0243 41.8276 10.5176 41.6982 10.4594 41.928C10.4083 42.1298 10.3301 42.7813 10.5705 43.1453C10.9252 42.6365 11.531 42.3609 12.1443 42.38Z" fill="#7E6C5E"/>
<path d="M17.2754 28.22C17.2754 28.22 18.2243 34.1507 17.7932 36.0267C17.3621 37.9027 15.4212 41.6911 15.4212 41.6911C15.4212 41.6911 14.9901 42.0076 14.235 42C13.799 41.996 13.5234 41.8347 13.5234 41.8347C13.5234 41.8347 15.5937 36.1991 15.6585 35.7894C15.7234 35.3796 14.5154 30.0316 14.4079 29.7294C14.2999 29.4276 14.1705 27.7454 14.4728 27.7454C14.7737 27.7458 17.2754 28.22 17.2754 28.22Z" fill="#917A69"/>
<path d="M14.8506 31.5991C14.8968 31.0035 14.9506 30.1435 14.9244 29.6435C14.8813 28.824 15.0106 27.9831 15.0106 27.9831L14.9595 27.808C14.7208 27.7707 14.5395 27.7462 14.471 27.7462C14.1693 27.7462 14.2986 29.4284 14.4062 29.7302C14.4462 29.84 14.6328 30.6262 14.8506 31.5991Z" fill="#7B6759"/>
<path d="M14.6222 29.2982C14.6222 29.2982 13.932 33.4604 13.4791 35.552C13.0262 37.644 12.056 42.1511 12.056 42.1511C12.056 42.1511 11.668 42.3022 11.1502 42.2591C10.6324 42.216 10.3018 42.1942 10.3018 42.1942C10.3018 42.1942 11.1715 36.8027 11.2364 35.6382C11.3013 34.4738 11.0853 28.2844 11.3013 28.112C11.5169 27.9396 15.5498 27.8747 16.024 28.004C16.4982 28.1338 14.6222 29.2982 14.6222 29.2982Z" fill="#917A69"/>
<path d="M11.8996 29.5391C12.8449 29.1085 13.8493 28.7605 14.8947 28.7067C15.4138 28.68 15.9356 28.7307 16.4387 28.8613C16.7818 28.9507 17.1107 29.0796 17.4253 29.2378C17.3387 28.6173 17.2751 28.22 17.2751 28.22C17.2751 28.22 14.7733 27.7458 14.4716 27.7458C14.4089 27.7458 14.3649 27.8191 14.3356 27.9365C13.0271 27.9405 11.4347 28.0058 11.3013 28.1125C11.2298 28.1698 11.2058 28.892 11.2031 29.8729C11.4338 29.7573 11.6658 29.6458 11.8996 29.5391Z" fill="#7B6759"/>
<path d="M16.2395 12.0245C16.2395 11.4129 16.7364 10.8316 17.2795 10.5796C17.3844 10.5307 18.1404 10.1836 18.0857 10.4885C18.0697 10.5769 17.7386 10.7902 17.6622 10.8773C17.5777 10.9733 17.4511 11.0907 17.4493 11.2245C18.0999 11.0898 19.6582 11.4551 19.7515 12.2796C19.3706 12.4258 18.6137 12.204 18.3333 12.4956C18.7324 12.6698 19.1871 12.7453 19.5088 13.068C19.6911 13.2507 19.9933 13.8053 19.9666 14.0702C19.5582 14.0876 19.2119 13.7987 18.7897 13.8125C19.1524 14.0929 19.4657 14.5391 19.6524 14.9569C19.7622 15.2027 19.8897 15.7667 19.7119 15.9969C19.5173 15.9 18.9973 15.5622 18.8071 15.6027C18.9417 15.8951 19.1511 16.1547 19.2644 16.4636C19.3657 16.74 19.4435 17.0182 19.5279 17.2991C19.6279 17.6316 19.8493 18.4969 19.6039 18.7853C19.4635 18.5738 19.1715 17.976 18.8951 17.9578C18.8608 18.1845 18.8951 18.3516 18.8919 18.5805C18.8906 18.6885 18.8804 18.7867 18.8493 18.8871C18.8137 19.0031 18.7155 19.0693 18.6795 19.1627C18.5911 19.3911 18.6306 19.6805 18.5528 19.9231C18.4893 20.1218 18.3733 20.3489 18.2284 20.5C17.9999 20.7382 17.9071 20.4356 17.8355 20.1973C17.7688 19.9765 17.7182 19.7529 17.6671 19.5271C17.5697 19.0933 17.4164 18.6502 17.2111 18.2533C16.9164 17.684 15.1951 18.1938 15.3048 17.5089L16.2395 12.0245Z" fill="#332418"/>
<path d="M15.636 21.9231C15.636 21.9231 16.1538 22.7209 17.016 23.26C17.8787 23.7991 18.2667 23.9071 18.6983 23.5836C19.1294 23.26 17.4258 18.0844 17.1023 17.7827C16.7787 17.4809 15.7005 17.6533 15.3987 17.4809C15.0969 17.3084 15.5712 19.9178 15.3556 20.3489C15.14 20.78 15.636 21.9231 15.636 21.9231Z" fill="#8B786B"/>
<path d="M16.412 12.0458C16.4711 11.544 15.8933 11.1747 15.5373 10.8951C15.1689 10.6058 14.824 10.3551 14.3351 10.368C14.3102 10.4863 14.696 10.9116 14.8013 11.0129C14.9693 11.1743 15.2067 11.3045 15.3333 11.5067C14.984 11.2876 14.384 11.2014 13.9747 11.1831C13.5813 11.1658 12.7671 11.3343 12.5213 11.6565C13.0484 11.7134 13.4307 11.8574 13.9044 12.064C13.6009 12.2538 13.2289 12.3307 12.9356 12.5765C12.7307 12.748 12.3818 13.0316 12.3667 13.3174C12.7351 13.3503 13.7511 12.6711 13.9516 13.1903C13.4071 13.548 12.7484 13.728 12.1636 14.0071C11.9907 14.0894 11.3969 14.3805 11.3471 14.5951C11.2702 14.9271 11.9133 14.6996 11.7991 14.8987C11.7693 14.9503 11.5387 14.9667 11.4782 14.9996C11.3498 15.0694 11.2716 15.1738 11.192 15.2974C11.1302 15.3934 10.9498 15.6783 11.0013 15.7951C11.028 15.8551 11.2391 15.9307 11.2996 15.9698C11.4182 16.0467 11.5342 16.1365 11.6409 16.2298C11.8849 16.4436 12.1169 16.6863 12.3582 16.9098C12.7791 17.2996 13.2084 17.6916 13.6724 18.0365C14.0307 18.3027 14.436 18.4703 14.8373 18.6614C15.0604 18.7676 15.2684 18.96 15.3987 18.6885C15.516 18.4436 15.5004 18.0956 15.5498 17.8325C15.6773 17.1534 15.7973 16.472 15.8996 15.7871C16 15.1151 16.136 14.4569 16.2662 13.788C16.3267 13.4774 16.4378 13.1214 16.4338 12.8058C16.4311 12.568 16.3596 12.2934 16.4547 12.0685" fill="#332418"/>
<path d="M15.011 17.2649C15.011 17.2649 15.6906 17.5369 15.9532 17.5791C16.1826 17.616 15.6794 19.7449 15.9168 20.6507C16.1541 21.5565 16.499 22.5485 16.0461 22.4405C15.5932 22.3325 15.3128 22.0525 15.3559 22.3756C15.399 22.6991 16.1323 23.648 16.8439 25.1574C17.5554 26.6671 17.5123 28.2627 17.491 28.392C17.4692 28.5214 15.6363 27.8098 14.3208 27.788C13.0052 27.7663 11.1937 28.1116 11.1292 28.0467C11.0648 27.9818 10.4608 26.3645 10.1154 24.9414C9.77056 23.5183 9.23145 20.3911 9.23145 18.9031C9.23145 17.4151 10.3203 15.8889 11.079 15.2227C11.7906 14.5974 13.5301 14.4823 13.7817 16.0565C13.8506 16.4885 14.3426 17.0494 15.011 17.2649Z" fill="#7E6C5E"/>
<path d="M15.3558 22.376C15.3238 22.136 15.4705 22.2285 15.7327 22.3365C15.5465 22.204 14.8656 21.7583 13.7381 21.4489C12.4012 21.0823 12.0127 21.2334 12.0127 21.2334L11.7754 22.3765C11.7754 22.3765 12.7456 22.9156 13.8456 23.0667C14.5287 23.1605 15.1114 22.8716 15.4554 22.6391C15.4003 22.5276 15.3647 22.4391 15.3558 22.376Z" fill="#716056"/>
<path d="M11.2804 20.5427C11.0053 20.8729 10.1799 21.7885 9.61816 22.408C9.7155 22.9956 9.82083 23.5654 9.92172 24.0605C10.2093 24.0089 10.6893 23.944 11.1653 23.7916C12.4231 23.3889 12.8044 21.7787 12.9768 21.0889C13.1493 20.3987 13.6093 18.2422 13.6093 18.2422C13.6093 18.2422 11.7115 20.0254 11.2804 20.5427Z" fill="#67564B"/>
<path d="M15.2822 16.6916C15.2822 16.6916 15.1098 17.1227 15.196 17.468C15.2822 17.8129 15.7138 18.6542 15.0018 18.9991C14.2902 19.344 13.4489 18.5249 13.3413 17.8129C13.2333 17.1013 13.7293 15.98 13.9667 15.6778C14.204 15.376 15.2822 16.6916 15.2822 16.6916Z" fill="#F9DACE"/>
<path d="M15.1867 17.4249C15.0685 17.4409 14.9489 17.4476 14.8293 17.4405C14.4653 17.4191 14.1311 17.2578 13.8845 16.9898C13.7533 16.8471 13.6489 16.6818 13.5653 16.5071C13.5631 16.5027 13.5618 16.4982 13.5596 16.4938C13.6942 16.1285 13.8573 15.8165 13.9662 15.6778C14.2036 15.376 15.2818 16.6916 15.2818 16.6916C15.2818 16.6916 15.1236 17.088 15.1867 17.4249Z" fill="#E1C0B5"/>
<path d="M17.644 14.7769C17.5929 15.1271 17.492 15.4449 17.3534 15.6565C17.0969 16.0485 16.7667 16.5351 16.2298 16.8449C15.9996 16.9783 15.7307 17.0783 15.4125 17.1231C14.7267 17.2209 14.3045 17.0471 14.0409 16.7356C14.0232 16.7147 14.0054 16.6929 13.9889 16.6711C13.9867 16.668 13.9849 16.6649 13.9818 16.6618C13.9685 16.6418 13.9547 16.6223 13.9414 16.6023C13.8965 16.5356 13.8592 16.4636 13.8245 16.3876C13.788 16.3054 13.7569 16.2196 13.7307 16.1311C13.7254 16.1125 13.7205 16.0916 13.716 16.0698C13.6294 15.6267 13.8556 14.6823 14.1298 13.8943C14.2934 13.4231 14.4738 13.0085 14.6147 12.7885C15.0023 12.1849 15.8654 11.84 16.0596 11.8618C16.0596 11.8618 17.0094 12.4227 17.4187 13.1125C17.6725 13.5405 17.7263 14.2027 17.644 14.7769Z" fill="#F9DACE"/>
<path d="M16.3155 12.0245C16.3155 12.0245 16.1755 12.8223 16.3048 13.0058C16.4342 13.1889 16.8764 14.3214 16.9626 14.9685C17.0488 15.6156 16.952 16.0143 16.952 16.0143C16.952 16.0143 17.7497 15.3671 17.9008 14.7849C18.052 14.2027 17.944 13.0165 17.6528 12.6609C17.3613 12.3049 16.5311 11.7658 16.3155 12.0245Z" fill="#332418"/>
<path d="M16.3913 11.852C16.4277 12.4396 16.6002 12.8823 15.9815 13.2645C15.4779 13.5756 14.8739 13.6863 14.3811 14.0036C14.2264 14.1031 13.7957 14.5889 13.7379 14.2129C13.7051 13.9987 13.9948 13.6983 14.0828 13.5067C14.2144 13.2196 14.2668 12.9587 14.3691 12.6649C14.4748 12.3609 14.6997 12.1605 14.9575 11.9925C15.3313 11.7489 16.1886 11.4783 16.4779 11.9809" fill="#332418"/>
<path d="M14.752 16.0663C14.752 16.0663 15.1777 15.7049 15.496 15.9098C15.8142 16.1147 15.7115 16.4707 15.7115 16.4707C15.7115 16.4707 15.5284 16.2387 15.2693 16.1525C15.0888 16.092 14.752 16.0663 14.752 16.0663Z" fill="#332418"/>
<path d="M16.2321 14.3032C16.1712 14.4196 16.1055 14.5329 16.0459 14.6498C15.9997 14.7405 15.9588 14.832 15.9068 14.9192C15.861 14.9956 15.8126 15.0734 15.785 15.1583C15.7699 15.2045 15.7521 15.2823 15.7957 15.3196C15.8308 15.3498 15.8872 15.3334 15.9277 15.3267C16.0072 15.3134 16.0868 15.3098 16.1481 15.3712C16.2237 15.4463 16.2486 15.5649 16.1877 15.656C16.1406 15.7258 16.0477 15.7672 15.9659 15.7743C15.8588 15.7836 15.7526 15.7405 15.6726 15.6712C15.6086 15.6156 15.5646 15.5436 15.505 15.484C15.4912 15.4703 15.4641 15.4889 15.477 15.5058C15.5739 15.6334 15.6859 15.7663 15.8512 15.7992C15.9948 15.8276 16.1739 15.7698 16.2357 15.6249C16.2988 15.4765 16.1779 15.2925 16.0192 15.2863C15.9855 15.2849 15.9521 15.2903 15.9192 15.2952C15.8939 15.2992 15.8544 15.3112 15.829 15.3C15.753 15.2672 15.8472 15.0916 15.869 15.0489C15.9228 14.9449 15.9828 14.8449 16.0352 14.7396C16.1064 14.5974 16.1837 14.4583 16.2517 14.3143C16.2575 14.3014 16.2388 14.2903 16.2321 14.3032Z" fill="#E1C0B5"/>
<path d="M15.6729 14.4747C15.5018 14.6164 15.308 14.808 15.2552 14.9142C15.2449 14.9351 15.2218 14.9924 15.1938 15.0653C15.0729 15.3751 14.8729 16.008 14.632 16.2004C14.4058 16.3818 14.2369 16.4196 14.1609 16.4258L14.0409 16.7356C14.0232 16.7147 14.0054 16.6929 13.9889 16.6711C13.9867 16.668 13.9849 16.6649 13.9818 16.6618C13.9685 16.6418 13.9547 16.6222 13.9414 16.6022C13.8978 16.5347 13.8592 16.4627 13.8245 16.3876C13.788 16.3053 13.7569 16.2196 13.7307 16.1311C13.7254 16.1124 13.7205 16.0916 13.716 16.0698C13.6294 15.6267 13.8556 14.6822 14.1298 13.8942C14.2374 13.792 14.352 13.6849 14.4396 13.5556C14.5792 13.3524 14.7254 13.1844 14.8387 13.0867C14.9783 12.9689 15.0983 12.9053 15.1858 12.9053C15.2307 12.9053 15.2663 12.9231 15.288 12.9533C15.3112 12.9858 15.3129 13.0293 15.2952 13.0773C15.2734 13.1369 15.1929 13.2409 15.0636 13.4076C15.0396 13.4387 15.0156 13.4702 14.9907 13.5022C15.0218 13.4667 15.052 13.4347 15.0805 13.4062C15.2472 13.2396 15.4663 13.06 15.5796 13.06C15.6152 13.06 15.636 13.0769 15.6463 13.0893C15.7276 13.1893 15.5929 13.3542 15.4232 13.5636C15.3534 13.6502 15.2805 13.7396 15.2334 13.8147C15.2085 13.8542 15.1814 13.8982 15.1529 13.944C15.2605 13.8333 15.38 13.7187 15.4969 13.6218C15.7325 13.4249 15.8254 13.4018 15.8752 13.4018C15.9156 13.4018 15.9396 13.4204 15.9534 13.4351C15.9765 13.4613 15.9836 13.4987 15.9774 13.5467C15.9658 13.6249 15.8294 13.7751 15.6063 14.0138C15.5289 14.0951 15.4574 14.172 15.4156 14.2231C15.4063 14.2347 15.3969 14.2471 15.3876 14.2596C15.5458 14.1209 15.7285 13.9769 15.8325 13.9396C15.8556 13.9311 15.8752 13.9271 15.8929 13.9271C15.9316 13.9271 15.9605 13.9471 15.9734 13.9804C16.0152 14.0973 15.7858 14.3809 15.6729 14.4747Z" fill="#E1C0B5"/>
<path d="M13.2399 16.2316C13.2399 16.2316 13.4684 15.6765 13.6226 15.1009C13.7017 14.8063 13.7946 14.3547 13.8382 14.2671C13.9248 14.0938 14.095 14.0538 14.2408 13.8716C14.5573 13.476 14.6733 13.26 14.8644 13.0974C15.1519 12.8529 15.2813 12.9143 15.2382 13.0289C15.195 13.144 14.8355 13.5427 14.6773 13.816C14.519 14.0894 14.4488 14.1591 14.4488 14.1591C14.4488 14.1591 14.8639 13.6578 15.1084 13.4134C15.3528 13.1689 15.5586 13.0463 15.5973 13.0934C15.6799 13.1938 15.3239 13.5285 15.1804 13.7583C15.0368 13.9885 14.8066 14.3623 14.8066 14.3623C14.8066 14.3623 15.1768 13.92 15.5217 13.6325C15.8666 13.3449 15.9315 13.4098 15.9173 13.5103C15.903 13.6107 15.4968 14.0027 15.3675 14.1609C15.2382 14.3191 15.1088 14.5489 15.1088 14.5489C15.1088 14.5489 15.6408 14.0311 15.8422 13.9596C16.0435 13.8876 15.8044 14.2614 15.6319 14.4054C15.4595 14.5494 15.2293 14.7556 15.1719 14.8707C15.1146 14.9858 14.879 15.9005 14.5915 16.1307C14.3039 16.3609 14.1173 16.3463 14.1173 16.3463L13.9159 16.864L13.1973 16.4614L13.2399 16.2316Z" fill="#F9DACE"/>
<path d="M15.5729 15.0102C15.5573 14.9684 15.5182 14.936 15.4733 14.9316C15.4 14.924 15.3631 15.0098 15.3769 15.0711C15.3884 15.1222 15.4338 15.148 15.4835 15.1404C15.5475 15.1307 15.5969 15.0764 15.5729 15.0102Z" fill="#F19999"/>
<path d="M16.1168 16.056C16.107 16.0298 16.0826 16.0098 16.055 16.0071C16.0097 16.0023 15.9861 16.056 15.995 16.0943C16.0021 16.1258 16.0306 16.1423 16.0612 16.1374C16.1012 16.1311 16.1319 16.0974 16.1168 16.056Z" fill="#F19999"/>
<path d="M14.8315 16.6413C14.8173 16.6027 14.7808 16.5725 14.7395 16.568C14.6715 16.5609 14.6373 16.6405 14.6501 16.6978C14.6608 16.7449 14.703 16.7693 14.7488 16.7622C14.8084 16.7529 14.8541 16.7027 14.8315 16.6413Z" fill="#F19999"/>
<path d="M15.9404 16.5449C15.928 16.5116 15.8969 16.4853 15.8609 16.4818C15.8022 16.4756 15.7724 16.5444 15.7835 16.5938C15.7929 16.6347 15.8293 16.6551 15.8689 16.6493C15.9204 16.6413 15.96 16.5978 15.9404 16.5449Z" fill="#F19999"/>
<path d="M16.9519 16.0142C16.9519 16.0142 17.0488 15.6151 16.9625 14.9685C16.9323 14.7436 16.859 14.4596 16.771 14.1774C16.775 14.2587 16.7799 14.3436 16.7852 14.428C16.6852 14.104 16.5256 13.688 16.4381 13.6298C16.4181 13.616 16.3985 13.6098 16.3799 13.6098C16.355 13.6098 16.3319 13.6214 16.3154 13.6409C16.2488 13.7222 16.2883 13.964 16.3083 14.064C16.3239 14.1391 16.3523 14.2871 16.3834 14.4485C16.3688 14.4089 16.3572 14.3796 16.3501 14.3631C16.3332 14.3258 16.2456 14.14 16.1456 14.14C16.1092 14.14 16.0634 14.16 16.0456 14.2569C16.0239 14.3831 16.103 14.6885 16.1865 15.0116C16.2336 15.1929 16.2772 15.364 16.3012 15.4942C16.3408 15.7111 16.3065 16.0351 16.2719 16.3498C16.2541 16.5258 16.2354 16.6938 16.2301 16.8449C16.767 16.5351 17.0972 16.0485 17.3536 15.6565C17.3643 15.6405 17.3719 15.6231 17.3803 15.6062C17.1576 15.8467 16.9519 16.0142 16.9519 16.0142Z" fill="#E1C0B5"/>
<path d="M16.4575 17.4898C16.4575 17.4898 16.285 17.2743 16.2957 16.8427C16.3064 16.4116 16.4321 15.7969 16.3677 15.4409C16.3028 15.0849 16.0801 14.4058 16.1126 14.2223C16.145 14.0391 16.2744 14.244 16.3175 14.3409C16.3606 14.4378 16.6428 15.0578 16.6428 15.0578C16.6428 15.0578 16.4184 14.2258 16.3753 14.0103C16.3321 13.7947 16.3286 13.5645 16.4255 13.6294C16.5224 13.6943 16.8028 14.4814 16.8353 14.7294C16.8677 14.9774 16.9664 15.0365 16.9664 15.0365C16.9664 15.0365 16.8028 13.8378 16.8353 13.6654C16.8677 13.4929 16.9864 13.5969 17.0184 13.748C17.0508 13.8991 17.1628 14.2796 17.2179 14.5334C17.2664 14.7578 17.3437 14.972 17.3437 14.972C17.3437 14.972 17.3833 14.6343 17.277 14.2551C17.1864 13.9307 17.1259 13.608 17.2339 13.5974C17.3419 13.5867 17.4148 13.9525 17.5681 14.4063C17.625 14.5751 17.7099 14.7276 17.7824 14.8894C17.8588 15.0609 17.873 15.2551 17.8028 15.428C17.725 15.6191 17.6606 15.816 17.6077 16.0156C17.5321 16.3018 17.4717 16.6005 17.4606 16.8974C17.4499 17.1885 17.493 17.2965 17.493 17.2965L16.4575 17.4898Z" fill="#F9DACE"/>
<path d="M9.5115 17.5093C9.5115 17.5093 8.56261 20.1547 8.87906 21.9231C9.12706 23.3102 9.59773 23.8711 11.1506 23.368C12.7035 22.8649 12.0853 20.0542 11.9271 19.5653C11.7688 19.0764 11.3231 17.4373 11.0213 17.3227C10.7191 17.2071 9.56884 17.3222 9.5115 17.5093Z" fill="#7E6C5E"/>
<path d="M12.9295 16.4778C12.9295 16.4778 11.0855 18.8498 10.2553 20.0578C10.0037 20.4236 10.1366 21.5564 10.1366 21.5564C10.1366 21.5564 11.754 20.4351 12.3362 19.4645C12.9184 18.4942 13.4144 17.3511 13.4362 17.2431C13.458 17.1351 13.4793 16.4884 13.4793 16.4884L12.9295 16.4778Z" fill="#67564B"/>
<path d="M13.0262 16.5316C13.0262 16.5316 10.0933 20.4351 10.0715 20.6507C10.0497 20.8662 9.83418 22.5485 10.5675 23.0445C11.3008 23.5405 11.6026 23.0227 11.6888 23.0227C11.7751 23.0227 12.5084 21.7934 12.9613 20.3054C13.4142 18.8174 14.1044 16.9627 14.1044 16.9627C14.1044 16.9627 13.328 16.4236 13.0262 16.5316Z" fill="#7E6C5E"/>
<path d="M14.1047 16.9631C14.1047 16.9631 13.926 16.8396 13.7074 16.7222C13.4936 17.444 12.2127 21.7276 11.5816 22.872C11.5131 22.9956 11.4269 23.1685 11.3643 23.2742C11.5323 23.2053 11.6931 23.0569 11.7483 23.0018C11.8096 22.9409 12.5087 21.7938 12.9616 20.3058C13.4145 18.8173 14.1047 16.9631 14.1047 16.9631Z" fill="#8B786B"/>
<path d="M14.3005 16.6644C14.3005 16.6644 14.356 16.7036 14.3169 16.8498C14.296 16.9284 14.2578 17.184 14.1107 17.2049C14.0129 17.2187 13.7978 16.932 13.4565 16.8076C13.0911 16.6747 12.832 16.7351 12.7649 16.6822C12.6978 16.6298 12.908 16.3227 13.0151 16.1987C13.1222 16.0742 13.5476 16.136 13.8245 16.2902C14.1014 16.4444 14.3005 16.6644 14.3005 16.6644Z" fill="#67564B"/>
<path d="M16.1826 17.4045C16.1826 17.4045 16.1968 20.6831 16.5795 21.8258C16.9622 22.9685 17.5795 23.8276 18.4871 23.7431C19.3946 23.6582 19.4186 22.2782 19.0044 21.3076C18.5902 20.3369 17.6088 17.4622 17.596 17.2876C17.5826 17.1129 17.5702 17.012 17.5702 17.012C17.5702 17.012 17.0524 17.0174 16.6622 17.14C16.2715 17.2622 16.1826 17.4045 16.1826 17.4045Z" fill="#7E6C5E"/>
<path d="M17.5004 16.7115C17.5004 16.7115 17.5764 16.7089 17.6346 16.8493C17.6662 16.9249 17.7951 17.152 17.6728 17.2587C17.5915 17.3298 17.1808 17.1827 16.7866 17.2924C16.3648 17.4098 16.1937 17.6662 16.0982 17.6653C16.0026 17.6644 15.9991 17.2911 16.0177 17.1267C16.0364 16.9618 16.4675 16.7511 16.8217 16.7049C17.1759 16.6582 17.5004 16.7115 17.5004 16.7115Z" fill="#67564B"/>
<path d="M10.9346 27.832C10.9346 27.832 11.0208 28.2418 11.0639 28.3929C11.107 28.544 13.2203 28.1125 14.4928 28.1556C15.7652 28.1987 17.2963 28.6947 17.5119 28.7165C17.7275 28.7382 17.6843 27.9187 17.6199 27.8756C17.5555 27.8325 15.8946 27.3147 14.3635 27.3796C12.8323 27.4436 10.9995 27.7027 10.9346 27.832Z" fill="#67564B"/>
<path d="M14.6288 10.0173C14.6399 9.83908 14.6617 9.66264 14.6955 9.48708C14.7253 9.33242 14.7964 9.15508 14.7844 8.99686C14.7817 8.96308 14.7622 8.93775 14.727 8.93464C14.4555 8.90975 14.235 9.10264 13.9799 9.15464C14.0039 9.17464 14.0279 9.19464 14.0519 9.21508C14.0568 9.01064 13.987 8.82308 13.9186 8.63375C13.8853 8.54086 13.8519 8.44708 13.8302 8.35019C13.8097 8.26042 13.8244 8.14442 13.7737 8.0653C13.763 8.04886 13.739 8.0413 13.7239 8.0573C13.6044 8.18086 13.7177 8.45197 13.7648 8.58753C13.8355 8.7893 13.9293 8.99286 13.9333 9.21019C13.9337 9.24619 13.9666 9.2813 14.0053 9.27064C14.1155 9.23997 14.2164 9.18175 14.3186 9.13197C14.3884 9.09775 14.6066 8.96619 14.6808 9.03597C14.6782 9.01197 14.6759 8.98753 14.6733 8.96353C14.591 9.11242 14.5737 9.31419 14.5448 9.48042C14.5137 9.66219 14.4995 9.84353 14.5284 10.0266C14.5382 10.084 14.6253 10.0729 14.6288 10.0173Z" fill="#746358"/>
<path d="M12.1174 10.7231C12.2268 10.7529 12.1988 10.5035 12.1939 10.46C12.1756 10.3022 12.133 10.1417 12.0801 9.99241C12.0619 9.9413 11.9899 9.93285 11.9525 9.96396C11.9121 9.99774 11.8948 10.044 11.857 10.0782C11.8059 10.1249 11.7405 10.1626 11.681 10.1973C11.5645 10.2653 11.4414 10.3142 11.3063 10.3235C11.3245 10.3404 11.3423 10.3573 11.3601 10.3742C11.373 10.16 11.3139 9.9613 11.213 9.7733C11.1628 9.67996 11.1045 9.59107 11.0445 9.50441C10.9916 9.42841 10.9374 9.32885 10.8512 9.28796C10.829 9.2773 10.8068 9.30041 10.8099 9.32219C10.821 9.40485 10.8885 9.47685 10.9356 9.54174C10.9948 9.62352 11.0525 9.70707 11.1028 9.79507C11.2028 9.96974 11.2703 10.1617 11.2681 10.3649C11.2676 10.3973 11.2903 10.4173 11.3219 10.4155C11.4601 10.4075 11.5903 10.3595 11.7108 10.2924C11.769 10.26 11.8241 10.2231 11.8792 10.1853C11.9374 10.1457 12.0023 10.1324 12.0588 10.0906C12.0161 10.0813 11.9734 10.0715 11.9312 10.0622C11.9645 10.1649 11.9961 10.2964 12.0228 10.4102C12.0374 10.4729 12.053 10.5351 12.0712 10.5969C12.0765 10.6146 12.0948 10.7026 12.1121 10.6866C12.101 10.6973 12.101 10.7186 12.1174 10.7231Z" fill="#746358"/>
<path d="M10.9874 13.0849C10.8576 13.0195 10.7176 12.9782 10.5847 12.92C10.4461 12.8591 10.3185 12.7858 10.1945 12.7C10.1572 12.6742 10.1016 12.7004 10.091 12.7422C10.0492 12.9049 9.96696 13.0613 9.88341 13.2067C9.80118 13.3498 9.68563 13.5511 9.51674 13.6044C9.34652 13.6578 9.17052 13.5031 9.02963 13.4302C8.89852 13.3622 8.66607 13.2715 8.55052 13.4138C8.53318 13.4351 8.53629 13.4724 8.56785 13.4791C8.67007 13.5013 8.77096 13.4742 8.87363 13.5084C8.96741 13.5395 9.05141 13.5947 9.13807 13.6409C9.28696 13.7209 9.45363 13.7813 9.61407 13.6955C9.94607 13.5182 10.0314 13.0884 10.2198 12.7969C10.183 12.8018 10.1461 12.8062 10.1092 12.8111C10.3123 13.0062 10.6767 13.1929 10.9647 13.1707C11.0056 13.1667 11.031 13.1067 10.9874 13.0849Z" fill="#746358"/>
<path d="M15.2208 2.60132C14.271 3.64088 13.0137 4.45821 11.9697 5.40532C11.4621 5.86621 10.3217 6.63821 9.89103 7.40265C9.75725 7.63999 9.96836 7.93021 10.2324 7.8631C11.0057 7.6671 11.8777 6.85999 12.4684 6.52399C13.015 6.21288 13.5612 5.82576 14.1275 5.53065C14.2337 5.4751 14.3355 5.61332 14.2501 5.69732C12.1275 7.77954 9.49369 9.18576 7.60169 11.4933C6.87947 12.3742 6.96347 12.8075 6.96347 13.9551C6.96347 15.0524 6.70125 18.9173 7.55014 19.7564C8.47814 20.6738 10.0577 19.5018 10.9492 18.9978C12.1186 18.3373 13.2195 17.5964 14.3079 16.8093C14.8417 16.4231 16.3448 15.1084 17.2786 14.772C17.459 14.7071 17.6257 14.9027 17.531 15.0693C16.943 16.1049 15.083 17.0675 14.7532 18.168C14.7079 18.3187 14.8341 18.4644 14.9892 18.4373C15.495 18.3498 15.9755 17.8027 16.3506 17.5315C17.019 17.0484 17.7146 16.6227 18.3475 16.0902C19.5221 15.1022 20.7315 14.164 21.9341 13.2089C22.463 12.7889 22.7239 12.3995 23.099 13.0218C23.4995 13.6867 23.4008 14.9244 23.4564 15.6689C23.5066 16.344 23.7839 17.1649 23.3101 17.6013C23.0328 17.8569 22.3608 18.0769 22.015 18.3027C21.4884 18.6467 20.975 19.0284 20.4821 19.4227C18.435 21.0613 14.4804 24.888 14.0452 24.4195C13.7724 24.1258 16.4884 22.1382 16.7319 20.9635C16.7648 20.8044 16.6164 20.6689 16.4621 20.7191C15.5915 21.0027 14.4852 22.1013 13.831 22.5778C12.9226 23.2391 12.0097 23.8911 11.1284 24.5831C10.2315 25.2867 8.39236 26.2711 8.23325 27.448C8.10169 28.4218 8.53014 27.8404 8.66703 28.8147C8.80258 29.78 8.89503 30.7498 9.01458 31.7098C9.16347 32.9098 9.36125 34.0938 9.5888 35.2755C9.99058 35.3378 10.4786 35.1204 10.8275 34.9142C12.1768 34.1155 14.6097 31.8662 15.1919 32.384C15.3861 32.5564 13.8035 33.2991 14.1781 33.6995C14.6844 34.24 15.9875 32.8827 16.5719 32.5133C17.4199 31.9778 18.1404 31.2938 18.9301 30.6755C19.9417 29.884 20.9644 29.1133 21.9777 28.336C22.3777 28.0293 24.4826 26.5364 25.0044 26.7333C25.4075 26.8858 24.8981 29.5284 24.8404 29.9138C24.4039 28.9658 22.9919 30.204 22.435 30.5782C21.2199 31.3947 17.9737 33.2031 18.5172 33.7675C19.0164 34.2862 21.791 31.6075 22.223 32.2627C22.6586 32.9231 19.6092 33.9942 19.0204 34.3338C17.7395 35.0724 16.3839 35.8507 15.2199 36.7653C14.3004 37.488 13.3084 38.108 12.3981 38.8289C11.9128 39.2133 11.0497 39.7969 10.9346 40.4498C10.7888 41.2778 11.5639 41.5382 12.3035 41.476C14.1417 41.3213 16.4946 40.3187 17.9919 39.368C18.7884 38.8622 19.6039 38.3787 20.3981 37.8778C20.9981 37.4995 22.3057 36.3222 22.4644 36.6787C22.7759 37.3795 19.4697 39.0658 19.6915 39.5382C20.0048 40.2058 22.4266 37.9933 23.4772 37.2787C24.3004 36.7187 25.0524 36.1787 25.9661 35.7947C26.0217 36.2404 25.6617 36.3893 25.3484 36.6258C24.4346 37.3151 23.5839 38.0467 22.7012 38.7827C21.9177 39.4364 21.0617 39.9907 20.3044 40.6809C19.6448 41.2822 19.0155 42.064 18.223 42.4844C17.3737 42.9347 16.2141 42.8187 15.2772 42.9618C14.0008 43.1564 12.4381 43.0035 11.1612 43.1947C9.26036 43.4795 9.17769 42.2542 8.7328 40.6111C8.00969 37.94 7.47947 34.9618 7.16747 32.2147C7.03369 31.0347 6.82347 29.8867 6.62436 28.7187C6.37103 27.2315 6.52614 25.8315 6.45814 24.3427C6.3648 22.2973 6.06969 20.2587 5.99947 18.2178C5.94658 16.6929 5.92303 15.2569 5.73814 13.7444C5.66036 13.1084 5.50969 12.4387 5.46347 11.804C5.34258 10.1573 6.72392 9.67199 7.83725 8.81021C8.50525 8.29332 8.83636 7.7511 8.59547 7.30621C8.45991 7.05554 8.49503 6.7471 8.70791 6.55732C9.98436 5.41688 11.1448 4.74399 12.6075 3.88888C13.2452 3.51421 14.4261 2.59999 15.2208 2.60132Z" fill="white"/>
<path d="M17.6832 9.84974C17.969 9.79108 18.2388 9.67019 18.5032 9.55063C18.5245 9.54085 18.533 9.51197 18.5276 9.49108C18.4854 9.32485 18.365 9.19285 18.3219 9.02752C18.3134 8.99463 18.3103 8.95685 18.2974 8.9253C18.2948 8.91819 18.2961 8.88663 18.2836 8.90574C18.2979 8.88308 18.3734 8.86441 18.397 8.85063C18.5428 8.76574 18.6939 8.71419 18.8574 8.67241C18.9392 8.65152 19.0219 8.63285 19.1041 8.61241C19.1694 8.59596 19.253 8.57685 19.2903 8.51552C19.305 8.49152 19.2894 8.46619 19.2663 8.45685C19.193 8.42708 19.0925 8.46974 19.021 8.48841C18.9263 8.51285 18.8316 8.53552 18.7379 8.56308C18.5668 8.6133 18.4272 8.69374 18.2765 8.78619C18.1863 8.8413 18.1894 8.89241 18.2081 8.99152C18.2245 9.07908 18.2463 9.15685 18.289 9.23596C18.3388 9.32885 18.3979 9.41641 18.4254 9.51952C18.4334 9.49952 18.4414 9.47997 18.4499 9.45997C18.1939 9.57997 17.9396 9.71196 17.6654 9.78574C17.6236 9.79641 17.6414 9.85819 17.6832 9.84974Z" fill="#746358"/>
</g>
<path d="M36.6072 42.0316H36.5583C36.5583 42.0316 36.4663 42.4427 35.9183 42.6169C35.3703 42.7907 34.4756 42.9356 34.2419 43.1907C34.0081 43.4458 34.1952 43.612 34.8059 43.5796C35.4161 43.5471 35.7312 43.3702 36.4148 43.4658C37.0983 43.5613 37.3156 43.7049 37.6819 43.4849C38.0485 43.2649 38.0605 42.2142 38.0605 42.2142L36.6072 42.0316Z" fill="#67564B"/>
<path d="M39.7555 42.7827C39.7555 42.7827 39.8239 42.9822 39.3924 43.2729C38.9079 43.5996 38.2239 43.7871 37.9666 44.0689C37.7093 44.3507 37.8701 44.592 38.667 44.4778C39.0097 44.4289 39.4417 44.296 39.8524 44.2373C40.3968 44.1591 40.9053 44.1436 41.1275 43.9653C41.5173 43.6529 41.4213 42.8253 41.3626 42.592C41.3035 42.3582 39.7724 42.4893 39.7555 42.7827Z" fill="#67564B"/>
<path d="M36.6068 42.0316H36.558C36.558 42.0316 36.5206 42.1969 36.3535 42.3622C36.4886 42.4271 36.6309 42.476 36.7726 42.5236C37.014 42.6044 37.2629 42.6831 37.4309 42.8876C37.5704 43.0573 37.6006 43.2733 37.5495 43.4831C37.5433 43.5089 37.5357 43.5338 37.5277 43.5591C37.5771 43.5413 37.6277 43.5173 37.682 43.4849C38.0486 43.2649 38.0606 42.2142 38.0606 42.2142L36.6068 42.0316Z" fill="#343230"/>
<path d="M41.3629 42.5916C41.3038 42.3582 39.7727 42.4893 39.7558 42.7827C39.7558 42.7827 39.7941 42.8947 39.6318 43.0733C39.9114 43.0991 40.1927 43.1209 40.4643 43.1925C40.6758 43.248 40.9065 43.3382 41.0269 43.5333C41.1132 43.6738 41.1167 43.8418 41.0798 43.9982C41.0972 43.9876 41.1132 43.9769 41.1278 43.9649C41.5176 43.6529 41.4221 42.8253 41.3629 42.5916Z" fill="#343230"/>
<path d="M35.2119 27.4249C35.2119 27.4249 35.7479 32.4764 35.8475 34.0449C36.0888 37.8373 36.3955 42.1995 36.3955 42.1995C36.3955 42.1995 36.7679 42.3529 37.3164 42.5284C37.8644 42.704 38.1057 42.6382 38.1057 42.6382C38.1057 42.6382 38.4781 39.4818 38.6755 37.6404C38.8728 35.7991 39.0261 34.7031 39.1137 32.7302C39.2012 30.7573 39.4208 27.3378 39.4208 27.3378L35.2119 27.4249Z" fill="#917A69"/>
<path d="M37.7676 28.9529C37.8867 29.6733 37.9534 30.4027 38.016 31.1298C38.0507 31.5324 38.0827 31.9355 38.1182 32.3378C38.1529 32.732 38.1982 33.124 38.2431 33.5169C38.3338 34.316 38.4 35.1178 38.4654 35.9191C38.5205 36.5987 38.5818 37.2778 38.6418 37.9573C38.6538 37.8484 38.6654 37.7413 38.676 37.6395C38.8734 35.7982 39.0267 34.7022 39.1142 32.7293C39.1502 31.924 39.2076 30.8778 39.2636 29.9213L37.7676 28.9529Z" fill="#7B6759"/>
<path d="M36.0498 27.4689C36.0498 27.4689 37.632 28.3444 37.9494 29.4538C38.2662 30.5631 38.8987 34.9964 39.0458 36.2862C39.1925 37.576 39.3711 39.0489 39.5098 40.204C39.648 41.3596 39.6116 42.8773 39.6116 42.8773C39.6116 42.8773 40.1694 43.0182 40.7205 43.0493C41.2716 43.0804 41.4862 43.0013 41.4862 43.0013C41.4862 43.0013 41.5716 37.1782 41.5734 34.9631C41.5751 32.748 41.2831 28.6996 41.1311 28.0022C40.9796 27.3049 40.9298 27.1089 40.9298 27.1089L36.0498 27.4689Z" fill="#917A69"/>
<path d="M35.3591 28.8329C35.7755 28.7578 36.3066 28.6858 36.976 28.6333C38.492 28.5142 40.1 28.1578 41.1102 27.9018C40.9755 27.2862 40.9306 27.1085 40.9306 27.1085L37.4484 27.3653L35.5933 27.568C35.5933 27.568 35.628 27.5858 35.688 27.6187L35.2373 27.6569C35.2622 27.9005 35.3062 28.3191 35.3591 28.8329Z" fill="#7B6759"/>
<path d="M35.4973 11.0716C35.4973 11.0716 34.5764 10.5236 33.656 11.4222C32.7351 12.3209 32.5817 13.6582 32.8449 14.4253C33.108 15.1924 33.064 15.6529 32.8666 16.7929C32.6693 17.9329 32.7351 18.5467 33.4364 19.3578C34.1377 20.1689 36.2422 20.6729 38.1057 20.3222C39.9689 19.9716 40.9555 17.8231 40.9337 16.7929C40.912 15.7627 40.4075 15.2804 39.6186 14.3378C38.8297 13.3951 38.7857 11.9484 38.3035 11.3129C37.8213 10.6773 36.7911 10.5236 36.1551 10.7431C35.6431 10.9196 35.4973 11.0716 35.4973 11.0716Z" fill="#332418"/>
<path d="M38.0615 16.7129C38.0615 16.7129 39.2162 16.8004 40.2975 17.6191C41.3789 18.4373 41.8322 19.9133 41.9344 20.6004C42.0366 21.2871 41.9784 22.3249 41.3646 22.8364C40.7509 23.348 39.9033 22.632 39.6989 22.208C39.4944 21.784 38.5442 18.5689 38.3837 18.0284C38.2224 17.4871 38.0615 16.7129 38.0615 16.7129Z" fill="#7E6C5E"/>
<path d="M41.0205 27.4689C40.9325 27.4467 39.3774 27.2498 38.5223 27.2498C37.6672 27.2498 35.1023 27.3378 35.1023 27.2276C35.1023 27.1182 35.0663 25.1582 34.9054 23.9302C34.8863 23.7885 34.865 23.5925 34.8441 23.356C34.7063 21.8854 34.5432 18.8925 34.8188 18.1974C34.8232 18.1889 34.8263 18.1791 34.8303 18.172C34.8348 18.1636 34.8379 18.1551 34.8419 18.1476C34.8463 18.1391 34.8503 18.1329 34.8548 18.1254C34.8579 18.12 34.861 18.1147 34.8641 18.1094C34.8703 18.1009 34.877 18.0934 34.8832 18.0871C34.9152 18.0534 34.9521 18.0191 34.9925 17.9845C35.0139 17.9676 35.0348 17.9494 35.057 17.9316C35.1525 17.8565 35.2636 17.78 35.381 17.7058C35.4116 17.6867 35.4423 17.6676 35.4743 17.6485L35.5761 17.588C36.0414 17.3178 36.5276 17.1005 36.5276 17.1005C36.5276 17.1005 37.2512 17.0347 37.7548 16.9036C38.2592 16.7711 39.6841 17.3858 39.6841 17.3858C39.6841 17.3858 40.1228 19.6214 40.3196 20.52C40.5165 21.4196 40.8899 22.5587 41.0654 24.4223C41.2401 26.2854 41.1085 27.4911 41.0205 27.4689Z" fill="#7E6C5E"/>
<path d="M36.2648 16.508C36.2648 16.508 36.4403 16.9462 36.3523 17.2973C36.2648 17.648 35.8261 18.5031 36.5497 18.8538C37.2732 19.2044 38.1279 18.3716 38.2377 17.648C38.3474 16.9244 37.843 15.7849 37.6021 15.4778C37.3608 15.1711 36.2648 16.508 36.2648 16.508Z" fill="#F9DACE"/>
<path d="M36.3606 17.2533C36.4806 17.2697 36.6023 17.2764 36.7237 17.2693C37.0939 17.248 37.4334 17.0835 37.6841 16.8115C37.8174 16.6666 37.9237 16.4982 38.0086 16.3213C38.0108 16.3169 38.0126 16.312 38.0143 16.3075C37.8775 15.9364 37.7117 15.6191 37.601 15.4782C37.3597 15.1711 36.2637 16.5084 36.2637 16.5084C36.2637 16.5084 36.4246 16.9111 36.3606 17.2533Z" fill="#E1C0B5"/>
<path d="M37.843 15.9378C37.6461 16.5956 37.2074 17.1 36.1327 16.9462C35.8096 16.9005 35.5363 16.7991 35.3021 16.6636C34.7563 16.3489 34.4207 15.8542 34.1598 15.4556C34.019 15.2405 33.9163 14.9174 33.8643 14.5614C33.7807 13.9774 33.8358 13.3049 34.0941 12.8694C34.5105 12.168 35.4758 11.5978 35.4758 11.5978C35.6727 11.5756 36.5501 11.9262 36.9443 12.5396C37.3385 13.1547 38.0398 15.2809 37.843 15.9378Z" fill="#F9DACE"/>
<path d="M35.4533 11.3676C35.4533 11.3676 35.508 11.6747 35.0258 12.2116C34.5436 12.7485 34.3791 12.7485 34.1818 13.2858C34.0036 13.7711 34.1707 14.8862 34.3462 15.456C34.5218 16.0258 35.0258 17.6702 34.9271 17.7796C34.8285 17.8894 33.3818 18.2507 33.4036 17.0782C33.4253 15.9054 33.2609 13.6036 33.4365 13.0227C33.612 12.4418 33.7653 12.0471 34.0502 11.7951C34.3356 11.5431 35.3765 11.28 35.4533 11.3676Z" fill="#332418"/>
<path d="M34.9435 27.2778C34.9555 27.5044 35.0817 27.7818 35.0817 27.7818C35.0946 27.8298 35.139 27.8556 35.1883 27.8604C35.5492 27.896 36.899 27.868 38.2799 27.7724C39.6648 27.6764 40.5026 27.5933 40.907 27.5236C41.1097 27.4884 41.1839 27.3982 41.1919 27.2924C41.2083 27.0662 41.2186 26.7147 41.1203 26.7338C40.5128 26.8533 38.3426 27.0582 37.3452 27.1218C36.4239 27.1809 35.3883 27.1791 35.027 27.1898C34.9795 27.1911 34.9412 27.2302 34.9435 27.2778Z" fill="#67564B"/>
<path d="M34.6641 22.0982C34.6641 22.0982 35.7383 21.5942 37.7547 21.6378C39.7716 21.6818 40.4947 21.9885 40.4947 21.9885C40.4947 21.9885 39.7712 22.5805 37.8423 22.9751C35.9138 23.3694 34.6641 22.0982 34.6641 22.0982Z" fill="#716056"/>
<path d="M35.5761 17.5875C35.5699 18.2275 35.5263 20.3795 35.2561 22.0755C35.1672 22.6297 35.0165 23.0449 34.8441 23.3555C34.7063 21.8849 34.5432 18.892 34.8188 18.1969C34.8232 18.1884 34.8263 18.1786 34.8303 18.1715C34.8348 18.1631 34.8379 18.1546 34.8419 18.1471C34.8463 18.1386 34.8503 18.1324 34.8548 18.1249C34.8579 18.1195 34.861 18.1142 34.8641 18.1089C34.8703 18.1004 34.877 18.0929 34.8832 18.0866C34.9152 18.0529 34.9521 18.0186 34.9925 17.984C35.0139 17.9671 35.0348 17.9489 35.057 17.9311C35.1525 17.856 35.2636 17.7795 35.381 17.7053C35.4116 17.6862 35.4423 17.6671 35.4743 17.648L35.5761 17.5875Z" fill="#67564B"/>
<path d="M35.2795 14.0915C35.372 14.2884 35.4782 14.4782 35.572 14.6747C35.6155 14.7662 35.6653 14.8653 35.6684 14.9689C35.6706 15.0573 35.6195 15.1129 35.548 15.1569C35.4893 15.1929 35.4244 15.2191 35.3693 15.2613C35.3262 15.2947 35.2697 15.3511 35.2715 15.4102C35.276 15.5333 35.4697 15.5147 35.5457 15.4964C35.6302 15.476 35.7133 15.4493 35.7933 15.4155C35.8671 15.3844 35.952 15.3467 36.0031 15.2827C36.0173 15.2649 35.9951 15.2413 35.9777 15.2573C35.8666 15.36 35.72 15.4142 35.576 15.4547C35.5075 15.4738 35.4293 15.4969 35.3591 15.4742C35.2484 15.4382 35.3244 15.3329 35.3853 15.2862C35.4764 15.2164 35.6102 15.1893 35.6733 15.0862C35.7506 14.96 35.6631 14.7915 35.6057 14.6751C35.5071 14.4747 35.4022 14.2782 35.2986 14.0804C35.2924 14.0675 35.2737 14.0787 35.2795 14.0915Z" fill="#E1C0B5"/>
<path d="M35.23 15.2907C35.1896 15.5111 35.2247 15.8405 35.2598 16.1605C35.278 16.3396 35.2967 16.5102 35.302 16.6636C34.7562 16.3489 34.4207 15.8542 34.1598 15.4556C34.0189 15.2405 34.0745 14.9596 34.0225 14.6036C34.0331 14.4942 34.0451 14.4147 34.0611 14.2982C34.1002 14.0156 34.1349 13.6747 34.1296 13.48C34.1798 13.4005 34.2349 13.352 34.2922 13.352C34.3305 13.3565 34.3536 13.3689 34.3705 13.3911C34.4171 13.4538 34.3971 13.5702 34.3558 13.7885C34.3389 13.8787 34.3189 13.9791 34.306 14.0809C34.3007 14.1222 34.2967 14.1636 34.2931 14.2049C34.3238 14.0525 34.3713 13.8849 34.4096 13.7516C34.434 13.6667 34.454 13.5938 34.4647 13.548C34.4869 13.44 34.5549 13.3307 34.6394 13.3307C34.6731 13.3307 34.7327 13.3489 34.7549 13.4654C34.7718 13.5556 34.7571 13.8871 34.7367 14.2058C34.8385 13.8765 35.0007 13.4534 35.0896 13.3942C35.1096 13.3805 35.13 13.3742 35.1487 13.3742C35.174 13.3742 35.1976 13.3858 35.2145 13.4062C35.2825 13.4889 35.242 13.7347 35.222 13.8365C35.206 13.9129 35.1776 14.0631 35.1456 14.2276C35.1602 14.1871 35.1722 14.1578 35.1793 14.1409C35.1962 14.1027 35.2851 13.9142 35.3869 13.9142C35.4238 13.9142 35.4705 13.9342 35.4887 14.0329C35.5109 14.1609 35.4305 14.4716 35.3456 14.8C35.2989 14.9845 35.2545 15.1582 35.23 15.2907Z" fill="#E1C0B5"/>
<path d="M35.0698 17.3192C35.0698 17.3192 35.2454 17.1001 35.2343 16.6614C35.2232 16.2232 35.0956 15.5983 35.1614 15.2365C35.2272 14.8747 35.4538 14.1845 35.4209 13.9978C35.3881 13.8116 35.2565 14.0196 35.2125 14.1183C35.1685 14.2169 34.9494 14.8418 34.9494 14.8418C34.9494 14.8418 35.1103 14.0014 35.1538 13.7823C35.1974 13.5632 35.2014 13.3294 35.1027 13.3952C35.0041 13.4609 34.7192 14.2609 34.6863 14.5129C34.6534 14.7649 34.6205 14.8201 34.6205 14.8201C34.6205 14.8201 34.7192 13.6072 34.6863 13.4316C34.6534 13.2561 34.5329 13.3623 34.5001 13.5156C34.4672 13.6689 34.3245 14.0854 34.3027 14.3485C34.2809 14.6116 34.2369 14.7538 34.2369 14.7538C34.2369 14.7538 34.1929 14.3703 34.2369 14.0303C34.2809 13.6903 34.3903 13.3725 34.2809 13.3618C34.1712 13.3507 34.0067 13.7018 33.9409 14.1841C33.8752 14.6663 33.8423 15.1596 33.8863 15.5872C33.9303 16.0147 34.0396 16.42 34.0507 16.716C34.0618 17.012 34.0178 17.1214 34.0178 17.1214L35.0698 17.3192Z" fill="#F9DACE"/>
<path d="M33.9115 16.9467C33.9115 16.9467 34.4377 16.8298 34.8324 16.9467C35.227 17.0636 35.5048 17.4436 35.5048 17.4436C35.5048 17.4436 35.4461 22.164 34.7155 23.1138C33.9848 24.0636 33.0057 23.4644 32.8595 22.4124C32.7132 21.3604 33.3857 18.6711 33.6048 17.9404C33.8239 17.2098 33.9115 16.9467 33.9115 16.9467Z" fill="#7E6C5E"/>
<path d="M33.3052 21.572C33.4168 20.0489 34.0159 17.6138 34.1964 16.9053C34.0301 16.9204 33.9119 16.9467 33.9119 16.9467C33.9119 16.9467 33.8244 17.2098 33.6048 17.9404C33.3857 18.6711 32.7132 21.36 32.8595 22.4124C32.9239 22.8769 33.1506 23.2524 33.4466 23.4462C33.307 23.1004 33.2328 22.5627 33.3052 21.572Z" fill="#8C796B"/>
<path d="M34.018 16.5302C34.018 16.5302 33.9367 16.5267 33.8753 16.6689C33.8424 16.7458 33.7069 16.9756 33.8389 17.0853C33.9264 17.1582 34.3656 17.0129 34.7887 17.1293C35.2416 17.2533 35.4282 17.5164 35.5304 17.5164C35.6327 17.5164 35.6327 17.1364 35.6109 16.9684C35.5891 16.8004 35.1251 16.5813 34.7451 16.5302C34.3651 16.4791 34.018 16.5302 34.018 16.5302Z" fill="#67564B"/>
<path d="M35.8398 16.2258C35.8744 16.0627 35.8833 15.8773 36.0633 15.8058C36.1589 15.7676 36.2678 15.7689 36.3642 15.8022C36.4109 15.8182 36.4535 15.8422 36.4944 15.8693C36.538 15.8982 36.5771 15.9476 36.6278 15.9605C36.6695 15.9711 36.706 15.9333 36.6958 15.8925C36.6811 15.8325 36.6095 15.7871 36.5598 15.7569C36.506 15.724 36.4442 15.6987 36.3829 15.6831C36.2629 15.6529 36.1366 15.6533 36.0211 15.7013C35.9242 15.7413 35.8469 15.8142 35.8038 15.9107C35.7829 15.9578 35.77 16.0058 35.7624 16.0569C35.7535 16.1173 35.7553 16.1671 35.7673 16.2267C35.7753 16.2613 35.8322 16.2613 35.8398 16.2258Z" fill="#E1C0B5"/>
<path d="M35.4532 11.2031C35.4532 11.2031 35.1683 11.6525 35.179 11.784C35.1901 11.9156 36.5163 13.5378 36.9434 14.064C37.371 14.5902 38.2479 15.8836 38.4341 15.8613C38.6203 15.8396 37.8861 12.7156 37.5461 12.2551C37.2061 11.7947 36.3403 11.2796 36.2417 11.2578C36.1439 11.236 35.4532 11.2031 35.4532 11.2031Z" fill="#332418"/>
<path d="M37.8422 15.9378C37.9471 15.588 37.7973 14.8222 37.5751 14.0898C37.3177 13.6213 36.9648 13.056 36.7151 12.8436C36.5733 12.7231 36.4515 12.6591 36.3626 12.6591C36.3173 12.6591 36.2804 12.6765 36.2591 12.7076C36.2359 12.7409 36.2333 12.7853 36.2511 12.8333C36.2737 12.8938 36.3555 13.0005 36.4866 13.1698C36.5111 13.2013 36.536 13.2333 36.5613 13.2662C36.5297 13.2307 36.4986 13.1973 36.4697 13.1685C36.3 12.9987 36.0777 12.8178 35.9622 12.8178C35.9262 12.8178 35.9057 12.8338 35.8946 12.8471C35.8115 12.948 35.9484 13.1165 36.1213 13.3293C36.1928 13.4173 36.2666 13.5085 36.3146 13.5849C36.3399 13.6249 36.3675 13.6698 36.396 13.7156C36.2866 13.6036 36.1648 13.4867 36.0462 13.388C35.8062 13.188 35.7119 13.1649 35.6617 13.1649C35.6204 13.1649 35.5955 13.1831 35.5822 13.1987C35.5591 13.2253 35.5511 13.2636 35.5582 13.312C35.5697 13.3916 35.7084 13.5445 35.9355 13.7867C36.0133 13.8698 36.0871 13.948 36.1288 13.9991C36.1386 14.0111 36.1484 14.0236 36.1582 14.0365C35.9968 13.896 35.8115 13.7493 35.7053 13.7111C35.6822 13.7027 35.6622 13.6987 35.6444 13.6987C35.6053 13.6987 35.5746 13.7187 35.5626 13.7529C35.52 13.8711 35.7533 14.1596 35.8675 14.2547C36.0408 14.3991 36.1857 14.5831 36.2395 14.6907C36.2502 14.712 36.2733 14.7707 36.3022 14.8449C36.4253 15.1591 36.6813 15.8133 36.9262 16.0089C37.1564 16.1929 37.3284 16.2311 37.4048 16.2382L37.5271 16.5525C37.6724 16.3813 37.7724 16.1693 37.8422 15.9378Z" fill="#E1C0B5"/>
<path d="M38.3393 16.0404C38.3393 16.0404 37.974 14.9444 37.7109 14.4182C37.4478 13.892 36.9802 13.1031 36.6878 12.8547C36.3953 12.6062 36.2638 12.6684 36.3078 12.7853C36.3518 12.9022 36.7171 13.308 36.8776 13.5853C37.0384 13.8631 37.082 13.9947 37.082 13.9947C37.082 13.9947 36.6873 13.4249 36.4389 13.1764C36.1904 12.928 35.9816 12.8036 35.942 12.8511C35.858 12.9533 36.2198 13.2933 36.366 13.5271C36.5122 13.7609 36.746 14.1409 36.746 14.1409C36.746 14.1409 36.3696 13.6916 36.0189 13.3991C35.6682 13.1067 35.6024 13.1724 35.6171 13.2751C35.6318 13.3773 36.0447 13.7756 36.1762 13.9364C36.3078 14.0973 36.4393 14.3311 36.4393 14.3311C36.4393 14.3311 35.8984 13.8049 35.694 13.732C35.4896 13.6591 35.7322 14.0391 35.9078 14.1849C36.0833 14.3311 36.2349 14.5209 36.2931 14.6378C36.3518 14.7547 36.6731 15.7044 36.9655 15.9382C37.258 16.172 37.4478 16.1573 37.4478 16.1573L37.6522 16.6836L38.3829 16.2742L38.3393 16.0404Z" fill="#F9DACE"/>
<path d="M40.3195 20.5196C40.2559 20.2298 40.167 19.8005 40.0759 19.3525C39.2448 18.484 38.1812 17.3916 37.7146 16.9125C37.6483 16.9289 37.5795 16.9445 37.5088 16.9587C37.6226 17.9547 38.0288 21.2351 38.5581 22.3098C39.055 23.3183 39.8732 23.7565 40.7355 23.7129C40.8261 23.7085 40.9066 23.7023 40.9817 23.6956C40.7901 22.2516 40.4897 21.2951 40.3195 20.5196Z" fill="#67564B"/>
<path d="M38.73 17.6809C39.1247 18.3165 41.3167 21.6049 41.3167 21.6049C41.3167 21.6049 41.2509 20.8378 40.5384 19.4893C40.1744 18.8005 39.3931 17.4107 39.15 16.9862C38.7242 16.8231 38.3704 16.7551 38.1904 16.7285C38.2282 16.8427 38.3967 17.144 38.73 17.6809Z" fill="#67564B"/>
<path d="M37.4766 16.6689C37.4766 16.6689 37.9148 19.4747 38.2801 20.7022C38.6455 21.9298 39.1423 22.9089 39.9317 23.2013C40.721 23.4938 41.3495 22.9969 41.5832 22.6022C41.817 22.2076 41.2032 21.0387 40.7357 20.1618C40.2681 19.2849 38.909 16.9613 38.7041 16.596C38.4997 16.2307 38.3388 16.0409 38.3388 16.0409C38.3388 16.0409 37.6081 16.5373 37.4766 16.6689Z" fill="#7E6C5E"/>
<path d="M38.8943 21.1116C38.2357 19.224 37.9237 17.1196 37.8299 16.396C37.6735 16.5084 37.5286 16.6169 37.4766 16.6689C37.4766 16.6689 37.9148 19.4747 38.2801 20.7022C38.6455 21.9298 39.1423 22.9089 39.9317 23.2013C39.9801 23.2191 40.0277 23.2342 40.0748 23.2462C39.7037 22.8333 39.2628 22.1676 38.8943 21.1116Z" fill="#8C796B"/>
<path d="M37.2833 16.4507C37.2833 16.4507 37.226 16.4836 37.2518 16.6351C37.2656 16.7169 37.2816 16.9778 37.4229 17.0156C37.5171 17.0409 37.7504 16.7769 38.0936 16.6911C38.4607 16.5996 38.7082 16.6898 38.7776 16.6445C38.8473 16.5991 38.6682 16.2667 38.5744 16.1294C38.4802 15.992 38.0611 16.0054 37.7784 16.1289C37.4958 16.2525 37.2833 16.4507 37.2833 16.4507Z" fill="#67564B"/>
<path d="M24.3776 42.7489C24.2501 41.6427 20.1923 7.60044 20.1514 7.25689L20.1359 7.19066L20.1425 7.08622C20.1305 6.56933 19.8336 6.55378 19.6905 6.54666C18.0888 6.46444 14.2412 6.46222 14.067 6.46222C13.867 6.464 9.03897 6.50889 6.52253 6.50889L6.11631 6.50844C5.98564 6.50844 5.89586 6.51822 5.83853 6.52844C5.83275 6.56978 5.82786 6.62889 5.8252 6.70978C5.82653 6.70978 5.82742 6.70978 5.82875 6.70978L6.23497 6.71022C8.75142 6.71022 13.5794 6.66533 13.7794 6.66355C13.9532 6.66355 17.8012 6.66622 19.403 6.748C19.5461 6.75511 19.843 6.77066 19.855 7.28755L19.8483 7.392L19.8639 7.45822C19.9047 7.80177 23.9625 41.844 24.0901 42.9502C24.0936 42.98 24.0941 43.0062 24.0932 43.0311C24.1834 43.032 24.2492 43.0333 24.2976 43.0347C24.3407 43 24.3976 42.9218 24.3776 42.7489Z" fill="#746358"/>
<g opacity="0.64">
<path d="M41.8213 11.8564L42.3066 10.3635L42.948 10.5742C42.9648 10.5795 42.9768 10.5929 42.9817 10.6084C42.9848 10.6182 42.9848 10.6289 42.9813 10.6395L42.528 12.0333C42.5253 12.0417 42.5204 12.0493 42.5142 12.0551C42.5128 12.0564 42.5115 12.0573 42.5106 12.0582C42.508 12.0604 42.5053 12.0622 42.5022 12.0635C42.4902 12.0697 42.4764 12.0711 42.4626 12.0666L41.8213 11.8564Z" fill="#907E72"/>
<path d="M40.1991 11.0902C40.2031 11.084 40.2071 11.0782 40.212 11.0724C40.2289 11.0511 40.2502 11.032 40.2764 11.0164C40.2813 11.0138 40.2862 11.0111 40.2911 11.0084C40.3115 10.9978 40.3342 10.9898 40.3591 10.984C40.3333 10.9409 40.3191 10.8835 40.348 10.8151C40.3497 10.8111 40.3515 10.8071 40.3537 10.8027C40.356 10.7987 40.3582 10.7942 40.3604 10.7902C40.3626 10.7858 40.3653 10.7818 40.368 10.7773C40.3706 10.7729 40.3737 10.7689 40.3769 10.7644C40.3844 10.7533 40.3933 10.7422 40.4035 10.7311C40.4186 10.7142 40.436 10.7009 40.4555 10.6911C40.488 10.6742 40.5253 10.6662 40.5649 10.6644C40.536 10.6173 40.4991 10.5275 40.5484 10.4147C40.5555 10.3987 40.564 10.3827 40.5746 10.3658C40.5862 10.3471 40.6009 10.332 40.6177 10.3204C40.6191 10.3195 40.6209 10.3182 40.6222 10.3173C40.6284 10.3133 40.6351 10.3093 40.6417 10.3062C40.6693 10.2929 40.7004 10.2853 40.7337 10.2822C40.7306 10.2787 40.7275 10.2751 40.7244 10.2711C40.7226 10.2684 40.7204 10.2658 40.7186 10.2635C40.7129 10.2555 40.7071 10.2467 40.7022 10.2373C40.7004 10.2342 40.6991 10.2311 40.6977 10.228C40.6955 10.2231 40.6937 10.2182 40.692 10.2129C40.6906 10.2093 40.6897 10.2058 40.6889 10.2022C40.688 10.1987 40.6871 10.1951 40.6866 10.1911C40.6822 10.1644 40.6849 10.1347 40.6986 10.1013C40.7017 10.0938 40.7057 10.0858 40.7102 10.0778C40.7146 10.0698 40.72 10.0613 40.7257 10.0529C40.7284 10.0489 40.7315 10.0449 40.7346 10.0409C40.7364 10.0391 40.7377 10.0369 40.7395 10.0355C40.7426 10.032 40.7462 10.0284 40.7497 10.0253C40.7569 10.0187 40.7644 10.0129 40.7724 10.0075C40.7782 10.0035 40.7844 9.99999 40.7911 9.99643C40.7977 9.99288 40.804 9.99021 40.8111 9.9871C40.8133 9.98621 40.8155 9.98532 40.8177 9.98443C40.8222 9.98266 40.8271 9.98132 40.832 9.97954C40.8413 9.97643 40.8511 9.97421 40.8613 9.97199C40.8689 9.97066 40.8764 9.96932 40.884 9.96799C40.9022 9.96532 40.9204 9.96443 40.9391 9.96399L40.9715 9.96443C40.9875 9.96532 41.004 9.96666 41.02 9.96843C41.0253 9.96888 41.0306 9.96977 41.036 9.97021C41.052 9.97243 41.0675 9.9751 41.0826 9.97777C41.0875 9.97866 41.0924 9.97955 41.0977 9.98088L41.1195 9.98577C41.1244 9.98666 41.1289 9.98799 41.1333 9.98888C41.1355 9.98932 41.1377 9.98977 41.14 9.99066C41.1444 9.99199 41.1489 9.99288 41.1533 9.99421C41.1617 9.99643 41.1702 9.99866 41.1782 10.0009C41.2284 10.0151 41.2617 10.028 41.2617 10.028L41.9866 10.2635L41.9871 10.2627L42.1706 10.3222L41.6849 11.816C41.6177 11.7942 41.5417 11.7987 41.4835 11.808C41.4289 11.8169 41.3902 11.8302 41.3897 11.8302C41.3111 11.8618 41.2115 11.908 41.1071 11.9715C40.8715 12.1155 40.804 12.2991 40.7466 12.3889C40.7466 12.3889 40.7462 12.3893 40.7457 12.3902C40.7169 12.4347 40.6906 12.4555 40.6462 12.436C40.5217 12.3795 40.3897 12.1093 40.8644 11.5662C40.8146 11.5542 40.7475 11.5369 40.6742 11.516C40.6702 11.5151 40.6666 11.5138 40.6626 11.5129C40.6622 11.5129 40.6617 11.5124 40.6613 11.5124C40.6586 11.5115 40.6564 11.5111 40.6542 11.5102C40.6124 11.4982 40.5697 11.4853 40.5271 11.4715C40.5009 11.4631 40.4751 11.4542 40.4497 11.4453C40.3475 11.4084 40.2577 11.3684 40.2151 11.3289C40.2013 11.3164 40.1906 11.3013 40.1822 11.2849C40.1813 11.2831 40.1804 11.2813 40.1795 11.2791C40.1777 11.2755 40.1764 11.2715 40.1746 11.2675C40.1711 11.2578 40.1684 11.248 40.1666 11.2378C40.1657 11.2338 40.1653 11.2293 40.1649 11.2253C40.1609 11.1804 40.172 11.1324 40.1991 11.0902Z" fill="#907E72"/>
</g>
<g opacity="0.64">
<path d="M34.592 7.85642L34.8711 7.30931L33.2111 6.4622L32.6746 7.51376L30.3809 6.34309L30.5893 5.93598L32.4755 6.89865L33.012 5.84753L35.0791 6.9022L35.3977 6.27731L36.0431 7.60176L34.592 7.85642Z" fill="#907E72"/>
</g>
<g opacity="0.46">
<path d="M5.83203 6.62178C5.83292 6.60889 5.83425 6.59734 5.83514 6.58667C5.83425 6.59734 5.83336 6.60889 5.83203 6.62178Z" fill="#C8E6F0"/>
<path d="M5.83594 6.58043C5.83727 6.56843 5.8386 6.55732 5.83994 6.54755C5.83816 6.55732 5.83727 6.56888 5.83594 6.58043Z" fill="#C8E6F0"/>
<path d="M24.2327 43.0124C24.2269 43.0124 24.222 43.0124 24.2158 43.012C24.2216 43.012 24.2269 43.012 24.2327 43.0124Z" fill="#C8E6F0"/>
<path d="M24.3063 43.0138C24.2935 43.0133 24.2792 43.0129 24.2637 43.0129C24.2792 43.0133 24.2935 43.0133 24.3063 43.0138Z" fill="#C8E6F0"/>
</g>
<path opacity="0.18" d="M24.0978 42.9298C23.9703 41.8249 19.9111 7.81958 19.8702 7.47602L19.8547 7.4098L19.8614 7.30536C19.8494 6.78891 19.5525 6.7738 19.4089 6.76625C17.8067 6.68402 13.9574 6.6818 13.7836 6.6818C13.5836 6.68358 8.7538 6.72847 6.23647 6.72847L5.8298 6.72802C5.82847 6.72802 5.82758 6.72802 5.82625 6.72802C5.82714 6.70847 5.82758 6.6898 5.82847 6.67291C5.82492 6.73958 5.82314 6.82447 5.82492 6.93469C5.83558 7.6018 5.9218 8.43825 5.99069 9.11069C6.19381 11.0885 9.53025 40.8929 9.73514 42.1725C9.81114 42.6467 10.0085 42.9214 10.156 42.9387C10.5258 42.9822 11.8254 43.0338 15.9151 43.0338C17.6543 43.0338 19.5076 43.0249 20.9969 43.0178C22.0587 43.0125 22.9614 43.0085 23.5627 43.0085C23.808 43.0085 23.9782 43.0094 24.1014 43.0102C24.1018 42.9858 24.1014 42.96 24.0978 42.9298Z" fill="#C4B3A6"/>
</g>
<defs>
<clipPath id="clip0_1141_49368">
<rect width="48" height="48" rx="24" fill="white"/>
</clipPath>
</defs>
</svg>
