<svg width="48" height="48" viewBox="0 0 48 48" fill="none" xmlns="http://www.w3.org/2000/svg">
<g clip-path="url(#clip0_1141_49370)">
<rect width="48" height="48" rx="24" fill="white"/>
<path opacity="0.18" d="M15.0279 46.6049C18.8909 46.6049 22.0225 44.7969 22.0225 42.5667C22.0225 40.3364 18.8909 38.5284 15.0279 38.5284C11.1648 38.5284 8.0332 40.3364 8.0332 42.5667C8.0332 44.7969 11.1648 46.6049 15.0279 46.6049Z" fill="#C4B3A6"/>
<path opacity="0.18" d="M6.28134 40.0542L1.97556 37.5729C1.87556 37.5151 1.87511 37.4213 1.97556 37.3631L12.6164 31.1973C12.7164 31.1391 12.8787 31.1391 12.9787 31.1969L17.2844 33.6782C17.3844 33.736 17.3849 33.8298 17.2844 33.888L6.644 40.0538C6.544 40.112 6.38178 40.112 6.28134 40.0542Z" fill="#C4B3A6"/>
<path opacity="0.18" d="M19.1904 31.7751L15.7966 29.8191C15.7175 29.7733 15.7175 29.6995 15.7966 29.6538L19.434 27.5453C19.5126 27.4995 19.6406 27.4995 19.7197 27.5449L23.1135 29.5009C23.1926 29.5466 23.1926 29.6204 23.1135 29.6662L19.4762 31.7746C19.3971 31.8209 19.2691 31.8209 19.1904 31.7751Z" fill="#C4B3A6"/>
<g opacity="0.34">
<path d="M3.37305 24.7898L3.58771 24.804L14.1673 18.6915L14.0602 18.6138L3.37305 24.7898Z" fill="#BFA999"/>
<path d="M14.0603 18.6138L3.58789 24.6658V15.7991L14.0603 9.74713V18.6138Z" fill="white"/>
<path d="M14.3819 9.31512L3.37305 15.6751V25.1756L14.3815 18.8156L14.3819 9.31512ZM14.1673 18.6916L3.58771 24.804V15.7991L14.1673 9.68668V18.6916Z" fill="#CAB8AB"/>
<path d="M14.1686 18.6915L14.0615 18.6138V9.74709L14.1686 9.68665V18.6915Z" fill="#AD9B8B"/>
<path d="M14.3826 9.31507L14.2755 9.2533L3.2666 15.6133L3.37371 15.6751L14.3826 9.31507Z" fill="#AD9B8B"/>
<path d="M3.2666 15.6133L3.37371 15.6751V25.1755L3.26705 25.1137L3.2666 15.6133Z" fill="#AD9B8B"/>
<path d="M3.58789 20.2213L14.0603 14.1671L14.1679 14.2316L3.58789 20.344V20.2213Z" fill="#D9C8BC"/>
<path d="M14.1679 14.2316L14.1674 14.4711L3.58789 20.5836V20.344L14.1679 14.2316Z" fill="#CAB8AB"/>
<path d="M3.58789 15.9782L14.0603 9.92712L14.1168 10.1782L3.58789 16.264V15.9782Z" fill="#CAB8AB"/>
<path d="M3.58789 15.9782V16.0929L14.083 10.0267L14.0603 9.92712L3.58789 15.9782Z" fill="#D9C8BC"/>
<path d="M3.58789 16.3783L14.0603 10.3271L14.1168 10.5783L3.58789 16.664V16.3783Z" fill="#CAB8AB"/>
<path d="M3.58789 16.3783V16.4929L14.083 10.4267L14.0603 10.3271L3.58789 16.3783Z" fill="#D9C8BC"/>
<path d="M3.58789 16.7782L14.0603 10.7271L14.1168 10.9782L3.58789 17.064V16.7782Z" fill="#CAB8AB"/>
<path d="M3.58789 16.7782V16.8929L14.083 10.8267L14.0603 10.7271L3.58789 16.7782Z" fill="#D9C8BC"/>
<path d="M3.58789 17.1778L14.0603 11.1267L14.1168 11.3778L3.58789 17.464V17.1778Z" fill="#CAB8AB"/>
<path d="M3.58789 17.1778V17.2929L14.083 11.2267L14.0603 11.1267L3.58789 17.1778Z" fill="#D9C8BC"/>
<path d="M3.58789 17.5778L14.0603 11.5267L14.1168 11.7778L3.58789 17.864V17.5778Z" fill="#CAB8AB"/>
<path d="M3.58789 17.5778V17.6929L14.083 11.6267L14.0603 11.5267L3.58789 17.5778Z" fill="#D9C8BC"/>
<path d="M3.58789 17.9777L14.0603 11.9266L14.1168 12.1777L3.58789 18.2635V17.9777Z" fill="#CAB8AB"/>
<path d="M3.58789 17.9777V18.0929L14.083 12.0266L14.0603 11.9266L3.58789 17.9777Z" fill="#D9C8BC"/>
<path d="M3.58789 18.3778L14.0603 12.3267L14.1168 12.5778L3.58789 18.6636V18.3778Z" fill="#CAB8AB"/>
<path d="M3.58789 18.3778V18.4925L14.083 12.4263L14.0603 12.3267L3.58789 18.3778Z" fill="#D9C8BC"/>
<path d="M3.58789 18.7778L14.0603 12.7267L14.1168 12.9778L3.58789 19.0636V18.7778Z" fill="#CAB8AB"/>
<path d="M3.58789 18.7778V18.8925L14.083 12.8262L14.0603 12.7267L3.58789 18.7778Z" fill="#D9C8BC"/>
<path d="M3.58789 19.1778L14.0603 13.1267L14.1168 13.3778L3.58789 19.4636V19.1778Z" fill="#CAB8AB"/>
<path d="M3.58789 19.1778V19.2925L14.083 13.2263L14.0603 13.1267L3.58789 19.1778Z" fill="#D9C8BC"/>
<path d="M3.58789 19.5778L14.0603 13.5262L14.1168 13.7774L3.58789 19.8636V19.5778Z" fill="#CAB8AB"/>
<path d="M3.58789 19.5778V19.6925L14.083 13.6262L14.0603 13.5262L3.58789 19.5778Z" fill="#D9C8BC"/>
<path d="M21.9911 19.6044L20.0853 18.504C19.7951 18.3364 19.3248 18.3364 19.0346 18.504L17.1288 19.6044C16.8386 19.772 16.6035 20.1791 16.6035 20.5142V29.58L19.56 31.2866L22.5164 29.58V20.5142C22.5164 20.1791 22.2813 19.772 21.9911 19.6044Z" fill="#BFAFA2"/>
<path d="M19.5596 22.2213C19.5596 21.8862 19.7947 21.4791 20.0849 21.3115L21.9907 20.2111C22.2809 20.0435 22.516 20.1795 22.516 20.5142V29.58L19.5596 31.2866V22.2213Z" fill="#D9C8BC"/>
<path d="M16.6035 20.5142V29.5804L19.5595 31.2871V22.2213C19.5595 22.0213 19.6431 21.7955 19.7728 21.6097L16.8177 19.9031C16.6884 20.0889 16.6035 20.3142 16.6035 20.5142Z" fill="#CCBCB1"/>
<path d="M22.2697 21.7702L19.8057 23.1929L19.8061 26.468L22.2697 25.0453V21.7702Z" fill="#CCBCB1"/>
<path d="M21.5883 24.652V22.1613L19.8057 23.1929L19.8061 25.684L21.5883 24.652Z" fill="#BFAFA2"/>
<path d="M21.5879 24.652L22.2692 25.0453L19.8057 26.468V25.684L21.5879 24.652Z" fill="#CCBCB1"/>
<path d="M21.9085 21.9791L21.8179 22.4142L21.7196 22.4702C21.6263 22.5235 21.5112 22.5231 21.4183 22.4693L21.4001 22.4586L21.3623 22.2924L21.9085 21.9791Z" fill="#A29388"/>
<path d="M20.7169 22.6666L20.6249 23.1084L20.5267 23.1644C20.4334 23.2177 20.3183 23.2173 20.2254 23.1635L20.2072 23.1528L20.1689 22.9826L20.7169 22.6666Z" fill="#A29388"/>
<path d="M17.0805 18.8062C17.0805 18.4791 17.3276 18.1493 17.7587 17.9005C18.2294 17.6289 18.8854 17.4729 19.5596 17.4729C20.2339 17.4729 20.8903 17.6289 21.361 17.9005C21.7916 18.1493 22.0387 18.4796 22.0387 18.8067C22.0387 18.8742 22.0387 19.1427 22.0387 19.2102C22.0387 19.5373 21.7916 19.8676 21.361 20.116C20.8907 20.3876 20.2339 20.5436 19.5596 20.5436C18.8854 20.5436 18.229 20.3876 17.7583 20.116C17.3276 19.8671 17.0801 19.5369 17.0801 19.2098C17.0805 19.1422 17.0805 18.8738 17.0805 18.8062Z" fill="#B8A79F"/>
<path d="M19.5596 20.14C20.2339 20.14 20.8903 19.9845 21.3605 19.7125C21.7912 19.4636 22.0387 19.1333 22.0387 18.8067C22.0387 18.4796 21.7916 18.1493 21.3605 17.9005C20.8903 17.6289 20.2334 17.4729 19.5592 17.4729C18.885 17.4729 18.2285 17.6285 17.7583 17.9005C17.3276 18.1493 17.0801 18.4796 17.0801 18.8062C17.0801 19.1333 17.3272 19.4636 17.7583 19.7125C18.229 19.984 18.8854 20.14 19.5596 20.14Z" fill="#CCBCB1"/>
<path d="M16.8574 18.252V13.0138C16.8045 12.5773 17.0645 12.1307 17.6423 11.7973C18.7009 11.1862 20.4178 11.1862 21.4765 11.7973C22.0071 12.1035 22.2716 12.5053 22.2703 12.9071V18.3604C22.2703 18.3613 22.2703 18.3622 22.2703 18.3631V18.4853H22.26C22.2111 18.844 21.9511 19.1942 21.476 19.4684C20.4174 20.0795 18.7005 20.0795 17.6418 19.4684C17.1671 19.1942 16.9067 18.8435 16.8578 18.4853H16.8565V18.4711C16.8485 18.3982 16.8485 18.3253 16.8574 18.252Z" fill="#D9C8BC"/>
<path d="M19.5597 19.5791C20.2237 19.5791 20.8428 19.4329 21.3028 19.1671C21.6624 18.9595 21.8801 18.7008 21.9157 18.4382L21.9228 18.388V14.7782C21.9237 14.492 21.6975 14.1977 21.3028 13.9697C20.8428 13.704 20.2237 13.5577 19.5597 13.5577C18.8957 13.5577 18.2766 13.704 17.8166 13.9697C17.3895 14.2164 17.1659 14.5346 17.2032 14.8431L17.2059 14.864V18.2729L17.2032 18.2937C17.1979 18.3386 17.1979 18.3844 17.2032 18.4293L17.2059 18.452C17.2472 18.7097 17.4637 18.9631 17.817 19.1666C18.2766 19.4329 18.8957 19.5791 19.5597 19.5791Z" fill="#B8A79F"/>
<path d="M17.8169 13.9702C18.2823 13.7138 18.896 13.5582 19.56 13.5582C20.224 13.5582 20.8223 13.7444 21.3031 13.9702C21.6996 14.156 21.9267 14.488 21.9231 14.8436C21.9267 15.1991 21.6996 15.5311 21.3031 15.7169C20.8223 15.9422 20.224 16.1289 19.56 16.1289C18.896 16.1289 18.2769 15.9827 17.8169 15.7169C17.3898 15.4702 17.2036 15.164 17.2036 14.8436C17.1831 14.5125 17.3791 14.2111 17.8169 13.9702Z" fill="#C7B7AE"/>
<path d="M19.5596 14.2378C20.2339 14.2378 20.8903 14.0822 21.3605 13.8102C21.7912 13.5613 22.0387 13.2311 22.0387 12.9045C22.0387 12.5773 21.7916 12.2471 21.3605 11.9982C20.8903 11.7267 20.2334 11.5707 19.5592 11.5707C18.885 11.5707 18.2285 11.7262 17.7583 11.9982C17.3276 12.2471 17.0801 12.5773 17.0801 12.904C17.0801 13.2311 17.3272 13.5613 17.7583 13.8102C18.229 14.0818 18.8854 14.2378 19.5596 14.2378Z" fill="#BFAFA2"/>
<path d="M20.5039 21.7888L20.6092 21.8497L20.6039 21.8586C20.6159 21.8777 20.6226 21.9035 20.6226 21.9351C20.6226 22.0386 20.5501 22.1639 20.4603 22.2159C20.4332 22.2315 20.4075 22.2386 20.3848 22.2377L20.3795 22.2466L20.2741 22.1857C20.2448 22.1688 20.2266 22.1324 20.2266 22.0808C20.2266 21.9773 20.299 21.8519 20.3888 21.7999C20.4341 21.7746 20.4746 21.7719 20.5039 21.7888Z" fill="#B6A89E"/>
<path d="M20.333 22.1422C20.333 22.2458 20.4055 22.2875 20.4952 22.236C20.5846 22.1844 20.6575 22.0586 20.6575 21.9551C20.6575 21.8515 20.585 21.8098 20.4952 21.8613C20.4055 21.9129 20.333 22.0386 20.333 22.1422Z" fill="#BFAFA2"/>
<path d="M21.6963 21.1084L21.8016 21.1693L21.7963 21.1782C21.8083 21.1973 21.8149 21.2231 21.8149 21.2547C21.8149 21.3582 21.7425 21.4835 21.6527 21.5355C21.6256 21.5511 21.5998 21.5582 21.5772 21.5573L21.5718 21.5662L21.4665 21.5053C21.4372 21.4884 21.4189 21.452 21.4189 21.4004C21.4189 21.2969 21.4914 21.1715 21.5812 21.1195C21.6261 21.0938 21.6669 21.0915 21.6963 21.1084Z" fill="#B6A89E"/>
<path d="M21.5244 21.4614C21.5244 21.5649 21.5969 21.6067 21.6866 21.5551C21.776 21.5036 21.8489 21.3778 21.8489 21.2742C21.8489 21.1707 21.7764 21.1289 21.6866 21.1805C21.5969 21.232 21.5244 21.3578 21.5244 21.4614Z" fill="#BFAFA2"/>
<path d="M7.19304 37.6542L6.82326 39.4884L6.46371 39.696L6.10726 39.4902L5.73438 37.6542L6.46371 37.2333L7.19304 37.6542Z" fill="#E0E0E0"/>
<path d="M7.19304 37.6542L6.82326 39.4884L6.46371 39.696L6.10726 39.4902L5.73438 37.6542L6.46371 37.2333L7.19304 37.6542Z" fill="#B7A595"/>
<path d="M6.46387 39.696V38.0751L7.1932 37.6542L6.82342 39.4885L6.46387 39.696Z" fill="#AD9B8B"/>
<path opacity="0.05" d="M7.19304 37.6542L6.95393 38.8387L6.46371 39.1218L5.97526 38.84L5.73438 37.6542L6.46371 37.2333L7.19304 37.6542Z" fill="#040000"/>
<path d="M3.98557 35.8031L3.61579 37.6373L3.25623 37.8449L2.90023 37.6391L2.52734 35.8031L3.25668 35.3818L3.98557 35.8031Z" fill="#E0E0E0"/>
<path d="M3.98557 35.8031L3.61579 37.6373L3.25623 37.8449L2.90023 37.6391L2.52734 35.8031L3.25668 35.3818L3.98557 35.8031Z" fill="#B7A595"/>
<path d="M3.25586 37.8449V36.224L3.98519 35.8031L3.61542 37.6373L3.25586 37.8449Z" fill="#AD9B8B"/>
<path opacity="0.05" d="M3.98557 35.8031L3.7469 36.9876L3.25623 37.2707L2.76823 36.9889L2.52734 35.8031L3.25668 35.3818L3.98557 35.8031Z" fill="#040000"/>
<path opacity="0.05" d="M16.6779 32.1778L16.3082 34.012L15.9486 34.2196L15.5926 34.0142L15.2197 32.1778L15.9486 31.7569L16.6779 32.1778Z" fill="#040000"/>
<path d="M15.9482 34.2196V32.5987L16.6776 32.1778L16.3078 34.012L15.9482 34.2196Z" fill="#EBEBEB"/>
<path opacity="0.05" d="M16.6779 32.1778L16.4393 33.3627L15.9486 33.6458L15.4602 33.3636L15.2197 32.1778L15.9486 31.7569L16.6779 32.1778Z" fill="#040000"/>
<path d="M6.46304 38.8258L2.48926 36.5315V27.9311L6.46304 30.2253V38.8258Z" fill="#B7A595"/>
<path d="M6.46289 30.2254L16.8838 24.2089V32.8094L6.46289 38.8258V30.2254Z" fill="#AD9B8B"/>
<path d="M16.8839 24.2089L6.46304 30.2253L2.48926 27.9311L12.9101 21.9147L16.8839 24.2089Z" fill="#BFAFA2"/>
<path d="M7.03125 34.4858L16.317 29.1249L16.3166 32.2814L16.421 32.3414L7.13569 37.7027L7.03125 37.6423V34.4858Z" fill="#CFBFB3"/>
<path d="M7.13574 34.5463L16.4215 29.1854L16.4211 32.3414L7.13574 37.7028V34.5463Z" fill="#BFAFA2"/>
<path d="M11.5993 32.5654L12.3717 32.1196C12.4722 32.0618 12.5531 32.088 12.5531 32.1787C12.5531 32.2694 12.4717 32.3894 12.3717 32.4476L11.5993 32.8934C11.4989 32.9511 11.418 32.9249 11.418 32.8342C11.418 32.7436 11.4993 32.6231 11.5993 32.5654Z" fill="#E0E0E0"/>
<path d="M7.03072 30.6747L16.3161 25.3138V28.4702L16.4205 28.5302L7.13472 33.8916L7.03027 33.8311L7.03072 30.6747Z" fill="#CFBFB3"/>
<path d="M7.13521 30.7351L16.4205 25.3742V28.5302L7.13477 33.8915L7.13521 30.7351Z" fill="#BFAFA2"/>
<path d="M11.5993 28.7542L12.3717 28.3084C12.4722 28.2506 12.5531 28.2769 12.5531 28.3675C12.5531 28.4582 12.4717 28.5782 12.3717 28.6364L11.5993 29.0822C11.4989 29.14 11.418 29.1138 11.418 29.0231C11.4175 28.9324 11.4989 28.812 11.5993 28.7542Z" fill="#E0E0E0"/>
<path d="M32.2528 12.8178L32.1181 12.8978L29.3604 11.3053L29.4946 11.2253L32.2528 12.8178Z" fill="#BFA999"/>
<path d="M29.4941 11.2253L32.1177 12.7395V9.99197L29.4941 8.47864V11.2253Z" fill="white"/>
<path d="M29.1064 11.4515L32.3718 13.3368V9.84529L29.1064 7.95996V11.4515ZM29.3602 8.39952L32.1184 9.99196V12.8977L29.3602 11.3053V8.39952Z" fill="#BFAFA2"/>
<path d="M29.3604 11.3053L29.4946 11.2253V8.47865L29.3604 8.39954V11.3053Z" fill="#AD9B8B"/>
<path d="M29.1064 7.96042L29.2429 7.8822L32.5082 9.76754L32.3718 9.84576L29.1064 7.96042Z" fill="#CAB8AB"/>
<path d="M32.5085 9.76752L32.3721 9.84574V13.3368L32.5085 13.2591V9.76752Z" fill="#AD9B8B"/>
<path d="M29.5967 11.1431L32.0158 12.5396V11.8413L31.4109 10.4449L31.0345 10.7938L31.1696 11.3791L30.3345 9.5929L29.5967 10.4449V11.1431Z" fill="#BFAFA2"/>
<path d="M31.0576 9.77065C31.1562 9.82754 31.2367 9.96665 31.2367 10.0804C31.2367 10.1947 31.1567 10.2409 31.0576 10.1835C30.9589 10.1267 30.8789 9.98799 30.8789 9.87376C30.8785 9.75954 30.9585 9.71332 31.0576 9.77065Z" fill="#AD9B8B"/>
<path d="M32.2528 17.6062L32.1181 17.6862L29.3604 16.0938L29.4946 16.0138L32.2528 17.6062Z" fill="#BFA999"/>
<path d="M29.4941 16.0138L32.1177 17.528V14.7804L29.4941 13.2671V16.0138Z" fill="white"/>
<path d="M29.1064 16.2405L32.3718 18.1258V14.6342L29.1064 12.7489V16.2405ZM29.3602 13.188L32.1184 14.7805V17.6862L29.3602 16.0938V13.188Z" fill="#BFAFA2"/>
<path d="M29.3604 16.0938L29.4946 16.0138V13.2671L29.3604 13.188V16.0938Z" fill="#AD9B8B"/>
<path d="M29.1064 12.7489L29.2429 12.6707L32.5082 14.556L32.3718 14.6342L29.1064 12.7489Z" fill="#CAB8AB"/>
<path d="M32.5085 14.556L32.3721 14.6342V18.1257L32.5085 18.0475V14.556Z" fill="#AD9B8B"/>
<path d="M29.5967 15.9316L32.0158 17.328V16.6298L31.4109 15.2333L31.0345 15.5822L31.1696 16.1676L30.3345 14.3813L29.5967 15.2333V15.9316Z" fill="#BFAFA2"/>
<path d="M31.057 14.5591C31.1557 14.616 31.2362 14.7551 31.2362 14.8689C31.2362 14.9831 31.1562 15.0293 31.057 14.972C30.9584 14.9151 30.8779 14.7764 30.8779 14.6622C30.8779 14.548 30.9579 14.5018 31.057 14.5591Z" fill="#AD9B8B"/>
</g>
<path d="M18.5599 40.3676C18.6577 40.7404 18.7123 40.9111 18.7946 41.3769C18.8621 41.7596 18.9057 42.0436 19.0497 42.696C19.1808 43.2911 19.3337 43.7311 18.9066 44.2551C18.5568 44.684 17.7626 44.812 17.5195 44.3707C17.2412 43.8658 17.3523 43.1302 17.3652 42.6076C17.3781 42.0849 17.3021 41.8293 17.2888 41.4147C17.2772 41.0489 17.2901 40.8987 17.2977 40.5827C17.7123 40.5431 18.1461 40.4164 18.5599 40.3676Z" fill="#6A5649"/>
<path d="M18.247 33.132C18.6083 34.6654 18.4408 35.3725 18.4781 36.1796C18.527 37.2445 18.5341 37.3525 18.5225 38.3605C18.5128 39.2258 18.5337 39.8778 18.5603 40.3671C18.5968 41.0445 18.8714 42.1347 18.7914 42.6587C18.671 43.4458 17.7363 43.7565 17.5732 42.8774C17.4714 42.3276 17.3741 41.1147 17.2892 40.5138C17.191 39.8205 17.0741 39.2489 16.8905 38.3987C16.707 37.548 16.2243 34.9369 15.959 33.3534L18.247 33.132Z" fill="#F9DACE"/>
<path d="M10.5536 42.6702C10.7212 42.5311 10.7918 42.4591 10.8887 42.3573C10.9652 42.2769 11.0198 42.1796 11.0705 42.0818C11.2709 41.6951 11.4238 41.3298 11.5625 40.9191C11.7123 40.4756 11.7941 40.1565 11.8029 39.7725C11.8132 39.3227 11.7674 34.4191 11.6878 32.984L14.1714 33.1569C14.1798 34.2382 14.1505 34.6471 13.9869 35.5253C13.8221 36.4111 13.3354 38.4431 13.2892 39.0307C13.2412 39.6413 13.2038 39.776 13.3376 39.9698C13.3389 39.9716 13.3398 39.9729 13.3412 39.9747C13.4945 40.1982 13.6123 40.4067 13.5963 40.5542C13.5772 40.7316 13.4527 40.8858 13.3501 41.0276C13.2532 41.1613 13.2029 41.3005 13.1332 41.4485C12.9723 41.7916 12.9061 42.1662 12.8341 42.5333C12.8123 42.6449 12.7892 42.7578 12.7407 42.8618C12.5749 43.2182 12.1514 43.3925 11.7527 43.4613C11.3652 43.5285 10.9261 43.5747 10.5389 43.4636C10.3758 43.4165 10.2327 43.3436 10.2123 43.1565C10.1914 42.9702 10.3123 42.8711 10.5536 42.6702Z" fill="#F9DACE"/>
<path d="M13.2791 42.9396L13.1364 42.9196C13.1279 42.4876 13.1546 42.0929 13.0439 41.8894L13.2484 41.3591L13.2791 42.9396Z" fill="#55443A"/>
<path d="M13.6348 40.9729C13.6024 41.2689 13.4272 41.5729 13.413 42.156C13.3992 42.7391 13.4272 42.9018 13.4272 42.9018L13.2792 42.94L13.249 41.3596L13.6348 40.9729Z" fill="#55443A"/>
<path d="M10.249 43.3391C10.249 43.3391 10.2557 43.512 10.3326 43.5684C10.4099 43.6249 10.5717 43.7956 11.361 43.7502C12.1499 43.7049 12.4264 43.5169 12.6966 43.28C12.9668 43.0427 13.0388 42.4204 13.0797 42.1271C13.1588 41.5582 13.405 41.26 13.6348 40.9733C13.6992 40.8333 13.6588 40.6782 13.6588 40.6782C13.6588 40.6782 13.1272 40.7729 12.8432 41.4689C12.5592 42.1649 12.2161 42.844 11.5779 43.0378C10.9401 43.2307 10.249 43.3391 10.249 43.3391Z" fill="#55443A"/>
<path d="M13.5906 40.2449C13.479 40.0542 13.3764 40.0004 13.2684 39.836C13.1546 39.9147 13.0617 40.0853 13.0128 40.2373C12.9644 40.3893 12.8364 41.1356 12.6444 41.7293C12.5004 42.1751 12.2599 42.4111 11.9293 42.5329C11.723 42.6089 11.4977 42.6324 11.279 42.6036C11.2781 42.6036 11.2768 42.6031 11.2759 42.6031C10.8661 42.5489 10.9626 42.2649 10.9626 42.2649C10.8675 42.3907 10.4759 42.6982 10.2444 42.9244C10.1124 43.0529 10.1741 43.2476 10.2733 43.3729C10.387 43.4676 10.6541 43.6573 11.6337 43.5196C12.5035 43.3973 12.7079 43.0102 12.7906 42.8356C12.8537 42.7022 12.9084 42.4164 12.9728 42.0493C13.0239 41.7564 13.1248 41.472 13.2795 41.2151C13.299 41.1827 13.3181 41.1524 13.3368 41.1267C13.3955 41.0436 13.4648 40.952 13.5435 40.8609C13.6044 40.7902 13.6519 40.7569 13.6701 40.6893C13.6879 40.5253 13.6879 40.4116 13.5906 40.2449Z" fill="#6A5649"/>
<path d="M18.5666 36.1044C18.5928 35.1124 18.7332 34.5217 18.3399 33.1417C18.2346 30.0889 18.3706 26.224 18.0452 24.7244C17.6888 23.0822 17.3439 22.5613 16.9621 21.8084C16.9621 21.8084 15.6755 22.4026 14.363 22.4697C12.8701 22.5466 11.9652 21.864 11.9652 21.864C11.959 22.1097 11.7852 23.0929 11.6697 24.6066C11.4568 27.3893 11.5381 31.1311 11.6128 33.1973C11.6648 34.6293 11.7012 36.5022 11.7875 37.7644C12.2052 38.0337 13.0355 38.2111 13.5097 37.9311C13.747 36.8009 13.919 36.4897 14.1466 35.2613C14.2697 34.5969 14.3546 33.9884 14.239 33.1511C14.3297 32.2662 14.6937 29.9684 14.8217 29.2133C14.8217 29.2133 15.5528 32.1751 15.7857 33.2937C16.1128 34.8657 16.6426 37.4266 16.8586 38.2653C17.1777 38.4697 18.059 38.4297 18.5248 38.0395C18.5355 37.032 18.5386 37.1697 18.5666 36.1044Z" fill="#917A69"/>
<path d="M14.8217 29.2133L14.219 26.4297C14.219 26.4297 13.151 26.1942 12.5732 25.452C12.5732 25.452 12.6875 26.3391 13.8301 26.7173L14.379 29.5413L14.2839 32.764L14.8217 29.2133Z" fill="#7B6659"/>
<path d="M16.9372 11.0342C16.9372 11.0342 17.4319 10.9916 17.8159 11.3742C18.1759 11.7329 18.3275 12.4134 18.0501 13.1462C17.7781 13.8649 17.4772 14.4845 17.7835 14.6614C18.1475 14.8716 18.2897 14.5129 18.2897 14.5129C18.2897 14.5129 18.435 14.8134 18.2403 15.0551C18.0248 15.3231 17.643 15.2094 17.643 15.2094C17.643 15.2094 19.1928 16.8694 17.887 18.5916C17.2141 19.4791 14.2626 20.0249 12.8719 18.9542C11.5355 17.9258 11.9608 16.5156 12.4519 15.5965C12.983 14.6018 12.6666 13.6849 12.6408 13.2036C12.5937 12.3227 12.8941 11.8067 13.3923 11.6489C13.3923 11.6489 13.4523 10.8569 14.2875 10.5676C15.1235 10.2778 16.4146 10.3676 16.9372 11.0342Z" fill="#332418"/>
<path d="M13.0994 15.9675C12.1981 16.0364 11.8874 16.4942 11.6807 16.8289C11.4527 17.1986 11.1678 17.7684 10.6661 19.228C10.3709 20.0871 9.91539 21.5364 10.2465 21.8582C10.5385 22.1418 11.3047 22.0484 11.3047 22.0484L11.8461 20.812L13.0994 15.9675Z" fill="#F9DACE"/>
<path d="M11.9915 20.1138C11.2849 20.0404 10.7373 20.4675 10.7373 20.4675C10.7373 20.4675 11.0226 19.9591 11.9915 19.8347V20.1138Z" fill="#DEC5BE"/>
<path d="M14.6894 15.9915C15.5569 16.0973 16.3467 16.2635 16.9156 16.4373C17.1956 16.5227 17.3307 16.7396 17.1138 18.2062C16.972 19.1636 16.6814 21.1778 16.6814 21.1778C17.1174 22.096 17.5334 22.5778 17.9191 23.9684C17.9191 23.9684 16.9716 24.9702 14.388 24.8751C12.1187 24.7915 11.676 24.2724 11.676 24.2724L11.9529 21.456C11.9529 21.456 12.004 20.5253 11.9889 19.9573C11.9889 19.9573 11.4191 19.5062 11.4151 18.8844C11.4116 18.3498 11.4943 17.9382 12.0414 17.1742C12.5854 16.4142 13.0996 15.968 13.0996 15.968C13.0996 15.968 13.9734 15.9044 14.6894 15.9915Z" fill="#A467A7"/>
<path d="M14.6894 15.9915C15.5569 16.0973 16.3467 16.2635 16.9156 16.4373C17.1956 16.5227 17.3307 16.7396 17.1138 18.2062C16.972 19.1636 16.6814 21.1778 16.6814 21.1778C17.1174 22.096 17.5334 22.5778 17.9191 23.9684C17.9191 23.9684 16.9716 24.9702 14.388 24.8751C12.1187 24.7915 11.676 24.2724 11.676 24.2724L11.9529 21.456C11.9529 21.456 12.004 20.5253 11.9889 19.9573C11.9889 19.9573 11.4191 19.5062 11.4151 18.8844C11.4116 18.3498 11.4943 17.9382 12.0414 17.1742C12.5854 16.4142 13.0996 15.968 13.0996 15.968C13.0996 15.968 13.9734 15.9044 14.6894 15.9915Z" fill="#6A594E"/>
<path d="M15.9404 19.3289C15.9404 19.3289 15.6675 20.1084 14.7079 20.1657C13.8306 20.2177 13.415 19.5089 13.415 19.5089C13.415 19.5089 13.5417 20.5102 14.7293 20.4062C15.9155 20.3022 15.9404 19.3289 15.9404 19.3289Z" fill="#5E4E45"/>
<path d="M16.0259 20.5201L16.281 18.9285C16.4872 17.1179 16.777 16.6005 16.9908 16.4677C17.7419 16.6752 18.2392 16.9748 18.1477 18.1503C18.1046 18.7041 18.0792 19.1094 17.9263 20.0357C17.7606 21.0414 17.6623 21.3485 17.4899 21.8565C17.3019 22.4112 17.0161 22.4912 16.3361 22.4779C15.7077 22.4654 14.7655 22.4112 13.497 22.1925C13.0503 22.1152 12.397 22.017 12.0548 21.9161C11.805 21.8423 10.8503 21.6112 10.9046 21.2477C10.9197 21.1454 14.5575 20.6654 14.8912 20.6023C15.6579 20.4579 16.0259 20.5201 16.0259 20.5201Z" fill="#F9DACE"/>
<path d="M12.055 21.9157C12.2581 21.9757 12.571 22.0348 12.8848 22.089C13.9483 21.741 15.6443 20.6161 16.0194 20.6961C16.4572 20.7899 16.8265 21.0232 16.9479 21.2957C16.9479 21.2957 16.9199 20.7752 16.0257 20.5197C16.0257 20.5197 15.6581 20.4575 14.8914 20.6019C14.5577 20.6646 10.9199 21.145 10.9048 21.2472C10.9025 21.2619 10.9034 21.277 10.9039 21.2921C10.9297 21.6299 11.8159 21.845 12.055 21.9157Z" fill="#DEC5BE"/>
<path d="M15.3288 20.6818C14.4591 20.929 12.3506 22.0556 11.0551 22.0614C10.6568 21.9481 10.612 21.7534 10.4906 21.2321C10.3693 20.7112 11.3635 20.093 11.9728 20.113C14.6733 20.2432 16.0266 20.5196 16.0266 20.5196C16.0266 20.5196 15.7426 20.5641 15.3288 20.6818Z" fill="#F9DACE"/>
<path d="M16.9896 11.8063C17.1491 12.0743 17.3709 12.3889 17.2971 13.7881C17.23 15.0663 16.9642 15.3565 16.6082 15.4929C16.3958 15.5743 16.2282 15.5698 15.8362 15.5161L15.7922 16.2703C15.7922 16.2703 15.3385 17.2903 14.0807 17.2872C12.7811 17.2841 13.9376 16.1814 13.9376 16.1814L14.0033 14.5641C14.0033 14.5641 13.7118 14.6978 13.3705 14.4049C12.9958 14.0836 13.018 13.6147 13.2251 13.3663C13.454 13.0921 13.9225 13.2236 14.1105 13.5809C14.4162 13.6703 14.534 13.2618 14.458 12.7952C14.458 12.7952 15.0598 12.5867 14.9731 11.9174C15.49 12.2792 16.6656 12.3463 16.9896 11.8063Z" fill="#F9DACE"/>
<path d="M16.5381 13.0005L16.9394 12.8045C16.9981 12.9143 16.9559 13.0467 16.8452 13.1009C16.7341 13.1552 16.5968 13.1103 16.5381 13.0005Z" fill="#332418"/>
<path d="M15.7827 12.9445L15.3529 12.804C15.3094 12.9222 15.3703 13.0493 15.4889 13.0885C15.6076 13.1271 15.7392 13.0627 15.7827 12.9445Z" fill="#332418"/>
<path d="M15.8363 15.516C15.0283 15.3925 14.362 15.0831 14.2207 14.752C14.2207 14.752 14.2807 15.1062 14.5465 15.3071C14.9078 15.5805 15.8238 15.7302 15.8238 15.7302L15.8363 15.516Z" fill="#DEC5BE"/>
<path d="M16.6901 13.3445C16.6767 13.4454 16.7487 13.54 16.8505 13.5565C16.9523 13.5725 17.0456 13.5036 17.0585 13.4031C17.0718 13.3023 16.9998 13.2076 16.8981 13.1911C16.7963 13.1747 16.703 13.2436 16.6901 13.3445Z" fill="#332418"/>
<path d="M15.3121 13.3587C15.2988 13.4596 15.3708 13.5543 15.4726 13.5707C15.5744 13.5867 15.6677 13.5178 15.6806 13.4174C15.6939 13.3165 15.6219 13.2218 15.5201 13.2054C15.4188 13.1894 15.3255 13.2578 15.3121 13.3587Z" fill="#332418"/>
<path d="M15.9716 14.3925C15.9081 14.3667 15.8356 14.3494 15.7667 14.3543C15.7343 14.3565 15.6996 14.3565 15.6685 14.3685C15.6547 14.3738 15.6281 14.3849 15.6378 14.4023C15.6463 14.4174 15.6814 14.4156 15.6956 14.4152C15.7938 14.4112 15.8956 14.4254 15.985 14.4689C16.0787 14.5143 16.1445 14.5974 16.2001 14.6832C16.2121 14.7018 16.2232 14.6738 16.221 14.6627C16.1956 14.5369 16.0867 14.4392 15.9716 14.3925Z" fill="#332418"/>
<path d="M21.2156 11.2667L20.1289 12.0036L20.2907 12.3924L19.5653 12.5449L19.7453 12.8702L18.9258 13.216L20.3511 13.1493L20.1396 12.7938L21.0893 12.7404L20.8453 12.2089L21.7098 12.1116L21.2156 11.2667Z" fill="#A467A7"/>
<path d="M21.2156 11.2667L20.1289 12.0036L20.2907 12.3924L19.5653 12.5449L19.7453 12.8702L18.9258 13.216L20.3511 13.1493L20.1396 12.7938L21.0893 12.7404L20.8453 12.2089L21.7098 12.1116L21.2156 11.2667Z" fill="#6A594E"/>
<path d="M18.6201 11.8915L18.9712 12.1769L18.6232 12.9955L19.4677 12.0973L19.2014 11.848L19.8468 11.1489L19.1855 10.8111L18.6201 11.8915Z" fill="#A467A7"/>
<path d="M18.6201 11.8915L18.9712 12.1769L18.6232 12.9955L19.4677 12.0973L19.2014 11.848L19.8468 11.1489L19.1855 10.8111L18.6201 11.8915Z" fill="#6A594E"/>
<path d="M20.6008 13.3706L20.3688 13.759L19.0928 13.5737L20.4843 14.2866L20.7074 13.9382L21.5523 14.3404L21.6799 13.5711L20.6008 13.3706Z" fill="#A467A7"/>
<path d="M20.6008 13.3706L20.3688 13.759L19.0928 13.5737L20.4843 14.2866L20.7074 13.9382L21.5523 14.3404L21.6799 13.5711L20.6008 13.3706Z" fill="#6A594E"/>
<path d="M16.0684 14.1231C16.0693 14.1164 16.1417 14.1173 16.2581 14.124C16.2875 14.1262 16.3159 14.1258 16.3244 14.1071C16.335 14.0875 16.3288 14.0542 16.3208 14.0182C16.3066 13.9435 16.2919 13.8649 16.2759 13.7827C16.2155 13.448 16.1773 13.1747 16.1906 13.1724C16.2039 13.1702 16.2644 13.4395 16.3248 13.7742C16.339 13.8564 16.3528 13.9351 16.3657 14.0102C16.3706 14.0449 16.3826 14.0858 16.3599 14.1262C16.3484 14.1462 16.3239 14.1582 16.3048 14.1595C16.2853 14.1618 16.2688 14.1591 16.2546 14.1573C16.1386 14.1422 16.0675 14.1293 16.0684 14.1231Z" fill="#332418"/>
<g opacity="0.57">
<path d="M28.4701 16.8101C28.4341 16.7226 28.4857 16.6168 28.4577 16.5252C28.4443 16.4826 28.415 16.4474 28.3901 16.4101C28.3652 16.3732 28.3435 16.3306 28.3483 16.2861C28.3595 16.1861 28.4826 16.2057 28.5528 16.2114C28.6488 16.2194 28.743 16.2394 28.835 16.2679C29.019 16.3248 29.191 16.4146 29.3541 16.5154C29.4417 16.5697 29.5275 16.627 29.6186 16.6746C29.6821 16.7079 29.7488 16.7363 29.8168 16.7594C29.8332 16.7652 29.8506 16.7706 29.8675 16.767C29.9421 16.7519 29.8799 16.5959 29.8777 16.5492C29.8715 16.4314 29.8652 16.2608 29.9603 16.1723C30.1195 16.0243 30.079 16.3648 30.3266 16.687C30.579 17.0159 30.5617 17.327 30.7848 17.5803C31.0061 17.8323 32.4466 18.9946 32.4466 18.9946C32.4466 18.9946 33.2772 18.0168 33.9501 17.0741C34.6821 16.0492 34.9826 15.9474 35.5217 15.823C35.8075 16.767 35.1443 18.4461 35.1443 18.4461C35.1443 18.4461 33.775 19.9808 33.2319 20.4292C32.8572 20.7386 32.5572 20.8306 31.9257 20.3683C31.6048 20.1337 30.6563 19.0617 30.383 18.7528C30.3128 18.6732 30.2399 18.5954 30.163 18.5226C30.0879 18.451 29.9919 18.4057 29.9008 18.3568C29.6968 18.2474 29.487 18.1479 29.2915 18.0243C29.1235 17.9181 28.9652 17.7919 28.8403 17.6363C28.8088 17.5972 28.7795 17.5563 28.7532 17.5132C28.7323 17.4794 28.7226 17.4417 28.7017 17.4088C28.6457 17.3203 28.5848 17.243 28.5683 17.1354C28.5563 17.0568 28.5683 16.9714 28.5297 16.9021C28.5132 16.8728 28.4888 16.8483 28.4746 16.8181C28.4723 16.8159 28.4715 16.8128 28.4701 16.8101Z" fill="#F9DACE"/>
<path d="M35.4251 15.8124C35.1603 15.8919 34.8078 15.9666 34.4691 16.3155C34.3145 16.475 33.9958 16.8862 33.4945 17.5293C33.0954 18.0413 32.4398 18.9173 32.4398 18.9173L31.4447 18.1706C31.4447 18.1706 31.4611 18.4342 31.2056 18.7048C30.95 18.9755 30.6514 19.0559 30.6514 19.0559C30.6514 19.0559 31.1736 19.6782 31.5691 20.0724C31.8918 20.3933 32.3185 20.7759 32.4847 20.8568C32.6509 20.9377 32.8669 20.8613 33.2367 20.5204C33.6069 20.179 35.6896 17.9799 35.6896 17.9799L35.4251 15.8124Z" fill="#917A69"/>
<path d="M30.6509 19.0555C30.6509 19.0555 30.9492 18.9751 31.2052 18.7044C31.4612 18.4337 31.4443 18.1702 31.4443 18.1702L31.0763 17.8546C31.0763 17.8546 31.0665 18.0057 30.8523 18.2817C30.638 18.5573 30.29 18.6519 30.29 18.6519L30.6509 19.0555Z" fill="#7E6C5E"/>
<path d="M36.0477 37.6585L35.5762 37.4838L35.7282 37.1647L36.0193 37.4327L36.0477 37.6585Z" fill="#2C211D"/>
<path d="M36.53 36.8074C36.53 36.8074 36.5505 37.1137 36.5549 37.2101C36.5598 37.3065 36.15 37.6088 36.0482 37.6585L36.0198 37.4328C35.9322 37.5217 35.8802 37.6341 35.786 37.7994C35.7078 37.9377 35.6082 38.1981 35.3914 38.3768C35.0696 38.6417 34.5669 38.7781 34.0531 38.7994C33.5394 38.8208 33.2447 38.6963 33.098 38.5857C32.9514 38.475 32.9042 38.3448 32.9402 38.2141C32.9762 38.0834 36.53 36.8074 36.53 36.8074Z" fill="#43342C"/>
<path d="M35.1501 35.7696L35.143 35.5919C35.0484 35.5896 35.0381 35.847 34.9013 36.0736C34.7173 36.3781 34.4457 36.7599 34.183 37.0021C33.6648 37.4794 33.2013 37.7799 32.9701 37.995C32.6608 38.2825 33.2093 38.7341 34.0479 38.6825C34.4639 38.6568 35.2021 38.4439 35.4084 38.1968C35.6146 37.9496 35.7404 37.5656 35.9057 37.3861C36.071 37.2065 36.4275 37.0248 36.5297 36.8074C36.5861 36.6879 36.5546 36.4101 36.519 36.1741C36.4866 35.9572 36.4786 35.6248 36.3564 35.6528L36.3484 35.7643C36.299 35.8594 36.1839 36.0168 35.8488 36.075C35.6817 36.1039 35.1817 36.1212 35.1501 35.7696Z" fill="#55443A"/>
<path opacity="0.15" d="M35.5795 36.0847C35.419 36.0718 35.2466 36.0198 35.1786 35.8758C35.1777 35.8741 35.1764 35.8732 35.1755 35.8714C35.1755 35.8714 35.2182 36.0372 35.0693 36.2136C34.9204 36.3901 33.9795 37.6318 33.9795 37.6318C33.9795 37.6318 34.8555 36.6065 35.0235 36.4136C35.2719 36.1283 35.351 36.0945 35.5799 36.0856C35.5804 36.0852 35.5799 36.0847 35.5795 36.0847Z" fill="#040000"/>
<path opacity="0.15" d="M35.3724 36.4136C35.3755 36.4416 35.4013 36.4621 35.4293 36.4585C35.4573 36.4554 35.4777 36.4296 35.4742 36.4016C35.4711 36.3736 35.4453 36.3532 35.4173 36.3567C35.3893 36.3603 35.3693 36.3856 35.3724 36.4136Z" fill="#040000"/>
<path opacity="0.15" d="M35.1264 36.6887C35.1295 36.7167 35.1553 36.7371 35.1833 36.7336C35.2113 36.7305 35.2317 36.7047 35.2282 36.6767C35.225 36.6487 35.1993 36.6283 35.1713 36.6318C35.1433 36.6349 35.1228 36.6603 35.1264 36.6887Z" fill="#040000"/>
<path opacity="0.15" d="M34.8802 36.9634C34.8833 36.9914 34.9091 37.0119 34.9371 37.0083C34.9651 37.0052 34.9855 36.9794 34.982 36.9514C34.9789 36.9234 34.9531 36.903 34.9251 36.9065C34.8971 36.9096 34.8771 36.9354 34.8802 36.9634Z" fill="#040000"/>
<path opacity="0.15" d="M34.6342 37.2381C34.6373 37.2661 34.6631 37.2865 34.6911 37.283C34.7191 37.2799 34.7395 37.2541 34.736 37.2261C34.7329 37.1981 34.7071 37.1776 34.6791 37.1812C34.6511 37.1847 34.6306 37.2101 34.6342 37.2381Z" fill="#040000"/>
<path opacity="0.15" d="M34.388 37.5132C34.3911 37.5412 34.4169 37.5616 34.4449 37.5581C34.4729 37.5549 34.4933 37.5292 34.4898 37.5012C34.4867 37.4732 34.4609 37.4527 34.4329 37.4563C34.4049 37.4594 34.3849 37.4852 34.388 37.5132Z" fill="#040000"/>
<path d="M35.4245 36.4283C35.4294 36.4279 35.4339 36.4256 35.4374 36.4221C35.4454 36.4141 35.445 36.4008 35.437 36.3928C35.4268 36.3825 35.1788 36.1461 34.8561 36.1665H34.8556C34.8445 36.1674 34.8361 36.1772 34.837 36.1883C34.8379 36.1999 34.8476 36.2083 34.8588 36.2074C35.1632 36.1883 35.4059 36.4199 35.4081 36.4221C35.413 36.427 35.4188 36.4288 35.4245 36.4283Z" fill="#263138"/>
<path d="M35.1794 36.7021C35.1843 36.7016 35.1888 36.6994 35.1923 36.6958C35.2003 36.6878 35.1999 36.6745 35.1919 36.6665C35.1816 36.6563 34.9336 36.4198 34.611 36.4403H34.6105C34.5994 36.4412 34.591 36.4509 34.5919 36.4621C34.5928 36.4736 34.6025 36.4821 34.6136 36.4812C34.9176 36.4621 35.1608 36.6936 35.163 36.6958C35.1679 36.7007 35.1736 36.7029 35.1794 36.7021Z" fill="#382A24"/>
<path d="M34.9323 36.9781C34.9372 36.9776 34.9417 36.9754 34.9452 36.9718C34.9532 36.9638 34.9528 36.9505 34.9448 36.9425C34.9346 36.9323 34.6866 36.6958 34.3639 36.7163H34.3635C34.3523 36.7172 34.3439 36.7269 34.3448 36.7381C34.3457 36.7496 34.3555 36.7581 34.3666 36.7572C34.6706 36.7381 34.9137 36.9696 34.9159 36.9718C34.9208 36.9767 34.9266 36.9785 34.9323 36.9781Z" fill="#382A24"/>
<path d="M34.6853 37.2527C34.6902 37.2523 34.6946 37.25 34.6982 37.2465C34.7062 37.2385 34.7057 37.2252 34.6977 37.2172C34.6875 37.2069 34.4395 36.9705 34.1168 36.9909H34.1164C34.1053 36.9918 34.0968 37.0016 34.0977 37.0127C34.0986 37.0243 34.1084 37.0327 34.1195 37.0318C34.4235 37.0127 34.6666 37.2443 34.6688 37.2465C34.6737 37.2514 34.6799 37.2532 34.6853 37.2527Z" fill="#382A24"/>
<path d="M34.4402 37.5279C34.445 37.5274 34.4495 37.5252 34.453 37.5216C34.461 37.5136 34.4606 37.5003 34.4526 37.4923C34.4424 37.4821 34.1944 37.2456 33.8717 37.2661H33.8713C33.8602 37.267 33.8517 37.2768 33.8526 37.2879C33.8535 37.2994 33.8633 37.3079 33.8744 37.307C34.1784 37.2879 34.4215 37.5194 34.4237 37.5216C34.4286 37.5261 34.4344 37.5283 34.4402 37.5279Z" fill="#382A24"/>
<path d="M38.9405 39.0515C38.9285 39.4622 38.9681 39.739 39.0921 39.9915C39.2161 40.2439 39.4832 40.3431 39.7663 40.2973C40.0494 40.2515 40.421 40.095 40.5312 39.7493C40.6414 39.4035 40.6467 39.1608 40.617 38.7759L38.9405 39.0515Z" fill="#43342C"/>
<path d="M40.3025 36.1884C40.4158 36.2075 40.4011 36.759 40.4189 37.3146C40.4376 37.9097 40.5923 38.1688 40.6127 38.6572C40.6363 39.2155 40.5856 39.4595 40.3629 39.7759C40.1403 40.0924 39.4274 40.3595 39.1318 39.8524C38.8909 39.4386 38.9176 39.0057 38.9909 38.4572C39.0669 37.8901 39.1247 37.4915 39.1394 37.0572C39.1536 36.6421 39.1598 36.2395 39.2634 36.2021C39.2656 36.2635 39.2665 36.3412 39.2691 36.4012C39.2714 36.4475 39.2629 36.6724 39.3269 36.6799C39.3376 36.6275 39.3407 36.5786 39.342 36.5244C39.3429 36.4772 39.3514 36.4266 39.3851 36.3937C39.4189 36.3604 39.4696 36.3532 39.5167 36.3484C39.6309 36.3359 39.7456 36.3261 39.8607 36.3257C39.918 36.3257 39.9754 36.3279 40.0323 36.3337C40.0785 36.3381 40.1327 36.347 40.1749 36.367C40.2011 36.3795 40.2243 36.4008 40.2318 36.4284C40.2376 36.4488 40.234 36.4706 40.2323 36.4919C40.2287 36.5301 40.2305 36.5688 40.2367 36.6066C40.2394 36.623 40.2491 36.6439 40.2656 36.6417C40.2789 36.6395 40.286 36.6235 40.2869 36.6101C40.2931 36.5435 40.2891 36.4946 40.2927 36.4168C40.2945 36.3808 40.2927 36.3315 40.2954 36.2955C40.2994 36.2595 40.302 36.2239 40.3025 36.1884Z" fill="#55443A"/>
<path opacity="0.15" d="M40.1825 38.7568C40.183 38.779 40.1652 38.7972 40.143 38.7972C40.1208 38.7977 40.1025 38.7799 40.1025 38.7577C40.1021 38.7354 40.1199 38.7172 40.1421 38.7172C40.1643 38.7172 40.1821 38.7346 40.1825 38.7568Z" fill="#040000"/>
<path opacity="0.15" d="M40.1777 38.3728C40.1781 38.395 40.1603 38.4133 40.1381 38.4133C40.1159 38.4137 40.0977 38.3959 40.0977 38.3737C40.0972 38.3515 40.115 38.3333 40.1372 38.3333C40.1594 38.3328 40.1777 38.3506 40.1777 38.3728Z" fill="#040000"/>
<path opacity="0.15" d="M40.1738 38.0101C40.1742 38.0324 40.1564 38.0506 40.1342 38.0506C40.112 38.051 40.0938 38.0332 40.0938 38.011C40.0933 37.9888 40.1111 37.9706 40.1333 37.9706C40.1551 37.9706 40.1733 37.9879 40.1738 38.0101Z" fill="#040000"/>
<path opacity="0.15" d="M40.1689 37.6528C40.1693 37.675 40.1515 37.6932 40.1293 37.6932C40.1071 37.6937 40.0889 37.6759 40.0889 37.6537C40.0884 37.6315 40.1062 37.6132 40.1284 37.6132C40.1502 37.6128 40.1684 37.6306 40.1689 37.6528Z" fill="#040000"/>
<path opacity="0.15" d="M39.4159 37.635C39.4164 37.6572 39.3986 37.6755 39.3764 37.6755C39.3542 37.6759 39.3359 37.6581 39.3359 37.6359C39.3355 37.6137 39.3533 37.5955 39.3755 37.5955C39.3977 37.5955 39.4155 37.6132 39.4159 37.635Z" fill="#040000"/>
<path opacity="0.15" d="M39.4199 37.995C39.4203 38.0172 39.4025 38.0354 39.3803 38.0354C39.3581 38.0359 39.3399 38.0181 39.3399 37.9959C39.3394 37.9737 39.3572 37.9554 39.3794 37.9554C39.4016 37.9554 39.4199 37.9728 39.4199 37.995Z" fill="#040000"/>
<path opacity="0.15" d="M39.4247 38.3577C39.4252 38.3799 39.4074 38.3981 39.3852 38.3981C39.363 38.3986 39.3447 38.3808 39.3447 38.3586C39.3443 38.3363 39.3621 38.3181 39.3843 38.3181C39.4061 38.3177 39.4243 38.3355 39.4247 38.3577Z" fill="#040000"/>
<path opacity="0.15" d="M39.4296 38.7421C39.4301 38.7644 39.4123 38.7826 39.3901 38.7826C39.3678 38.783 39.3496 38.7652 39.3496 38.743C39.3492 38.7208 39.3669 38.7026 39.3892 38.7026C39.4109 38.7021 39.4292 38.7199 39.4296 38.7421Z" fill="#040000"/>
<path opacity="0.15" d="M39.7496 38.951L39.6758 36.267L39.8233 36.2768L39.7496 38.951Z" fill="#040000"/>
<path d="M40.1435 38.7776C40.1412 38.7776 40.1394 38.7771 40.1372 38.7767C39.8786 38.6949 39.5812 38.6878 39.3977 38.7585C39.387 38.7629 39.3755 38.7571 39.3715 38.7469C39.3675 38.7363 39.3728 38.7247 39.383 38.7207C39.5781 38.6456 39.879 38.6523 40.1497 38.738C40.1603 38.7416 40.1666 38.7527 40.163 38.7634C40.1599 38.7723 40.1519 38.7776 40.1435 38.7776Z" fill="#382A24"/>
<path d="M40.1386 38.3936C40.135 38.3936 40.1315 38.3927 40.1283 38.3909C39.9355 38.278 39.6026 38.294 39.3928 38.3749C39.3821 38.3789 39.3706 38.3736 39.3666 38.3634C39.3626 38.3527 39.3679 38.3412 39.3781 38.3372C39.5972 38.2527 39.9457 38.2367 40.1488 38.3563C40.1586 38.362 40.1617 38.3745 40.1559 38.3843C40.1523 38.39 40.1457 38.3936 40.1386 38.3936Z" fill="#382A24"/>
<path d="M40.1337 38.0309C40.1301 38.0309 40.1266 38.03 40.1235 38.0283C39.9306 37.9154 39.5981 37.9314 39.3879 38.0123C39.3772 38.0167 39.3657 38.0109 39.3617 38.0007C39.3577 37.99 39.363 37.9785 39.3732 37.9745C39.5924 37.89 39.9404 37.874 40.1439 37.9936C40.1537 37.9994 40.1568 38.0118 40.151 38.0216C40.1475 38.0274 40.1404 38.0309 40.1337 38.0309Z" fill="#382A24"/>
<path d="M40.1288 37.6736C40.1252 37.6736 40.1217 37.6727 40.1186 37.6709C39.9257 37.558 39.5928 37.574 39.383 37.6549C39.3728 37.6593 39.3608 37.6536 39.3568 37.6433C39.3528 37.6327 39.3581 37.6211 39.3684 37.6171C39.5875 37.5327 39.9355 37.5167 40.139 37.6362C40.1488 37.642 40.1519 37.6545 40.1461 37.6642C40.1426 37.67 40.1355 37.6736 40.1288 37.6736Z" fill="#382A24"/>
<path d="M39.4007 20.6821C39.6456 21.1665 39.9545 22.1012 40.0127 22.7265C40.2523 25.2981 40.4101 29.2563 40.4101 29.2563C40.4372 29.5252 40.4834 29.9936 40.6176 31.1758C40.7763 32.5727 40.6594 37.2878 40.6594 37.2878C40.6594 37.2878 39.5865 37.7407 38.9576 37.3345C38.9576 37.3345 38.0518 30.9141 37.8518 29.5256C37.6772 28.3141 37.3901 26.1105 37.3901 26.1105L37.0536 29.559C37.0536 29.559 37.1781 30.3896 37.1114 31.239C37.047 32.0585 36.5518 36.4958 36.5518 36.4958C36.5518 36.4958 35.451 36.971 34.6221 36.3465C34.6221 36.3465 34.6794 30.771 34.6483 29.783C34.5874 27.8452 34.6572 23.6852 34.8007 21.6923L39.4007 20.6821Z" fill="#6A5649"/>
<path opacity="0.2" d="M37.3905 26.1105L37.1398 24.4679C37.1398 24.4679 36.2069 24.4927 35.7109 24.0541C35.7109 24.0541 35.91 24.6452 36.8589 24.7074L37.0994 26.1892L37.11 29.0932L37.3905 26.1105Z" fill="#040000"/>
<path d="M37.9965 15.2808C38.7792 15.399 39.6014 15.7297 40.1103 15.9559C40.2578 16.0746 40.3378 16.535 40.2787 17.0177C40.0747 18.6839 39.8507 20.5777 39.8507 20.5777L40.0223 22.8457C39.3805 23.5021 36.313 23.6946 34.7334 22.6768C34.7334 22.6768 34.7543 19.6003 34.9014 17.6652C35.0072 16.2759 35.3067 15.9159 35.425 15.8119C35.4258 15.8123 37.0592 15.139 37.9965 15.2808Z" fill="#917A69"/>
<path d="M38.3947 13.751L38.413 14.3986C38.413 14.3986 38.5338 13.9852 38.7201 13.6412C38.8761 13.3537 39.0983 12.7683 39.1161 12.4381C39.133 12.119 38.9743 11.4257 38.6174 11.1052C38.125 10.6626 37.6454 10.5843 37.0161 10.5977C36.5445 10.6079 36.0134 10.8475 35.8223 11.0501C35.609 11.2768 35.3436 11.759 35.4436 12.511C35.4436 12.511 38.1294 13.7395 38.3947 13.751Z" fill="#332418"/>
<path d="M37.748 11.4275C37.7587 11.6546 37.8796 12.0599 38.2143 12.3253C38.1912 12.5813 38.168 12.8435 38.232 13.0928C38.2458 13.1461 38.2636 13.1999 38.2969 13.2439C38.3303 13.2879 38.3809 13.3217 38.436 13.323C38.5103 13.3253 38.5387 13.2786 38.5587 13.2195C38.5845 13.1435 38.6254 13.0715 38.6614 12.9986C38.6787 12.9635 38.7 12.9408 38.7232 12.9124C38.8307 12.803 39.1587 12.6608 39.3294 13.0084C39.5063 13.3684 39.2343 13.8684 38.9694 13.9555C38.5125 14.1061 38.3974 13.7959 38.3974 13.7959L38.4383 15.3328C38.3267 15.7275 37.5787 16.3599 36.5587 16.575C36.5587 16.575 36.1827 16.2457 36.6796 15.3981L36.6654 14.855C36.6654 14.855 36.3143 14.8888 36.06 14.7933C35.8396 14.7101 35.6276 14.5501 35.5334 14.0555C35.3809 13.2577 35.4156 12.6133 35.484 12.1715C35.5516 11.7359 35.8169 11.343 35.9569 11.2417C35.9565 11.3355 36.0556 11.5773 36.4538 11.623C36.9512 11.6799 37.3992 11.5906 37.748 11.4275Z" fill="#F9DACE"/>
<path d="M36.5576 16.5755C36.5576 16.5755 36.6789 16.3253 36.7701 16.0924C36.8243 16.0004 37.7372 15.6141 38.0732 15.3444C38.3732 15.1035 38.4238 14.9484 38.4238 14.9484L38.3838 15.4115C38.3834 15.411 37.9261 16.4981 36.5576 16.5755Z" fill="#6F5E52"/>
<path d="M36.7705 16.0919C36.8892 15.9542 37.5736 16.5999 37.6625 16.7773C37.6625 16.7773 38.315 16.4017 38.5603 16.0884C38.8234 15.7524 38.8963 15.4933 38.8963 15.4933C38.8963 15.4933 38.7336 15.2506 38.6687 15.1124C38.5563 14.8733 38.4812 14.7644 38.423 14.7826L38.4252 14.9293C38.3038 15.1159 38.0843 15.2715 37.6994 15.5177C37.127 15.8839 36.8216 15.979 36.7705 16.0919Z" fill="#7E6C5E"/>
<path d="M36.6786 15.3982L36.6675 14.968C36.6675 14.968 36.6058 14.9702 36.5346 15.1306C36.4475 15.3271 36.4031 15.3715 36.2333 15.5302C36.1271 15.7795 35.9778 16.0084 36.1013 16.5755C36.2338 16.1626 36.3449 16.1871 36.3666 16.1688C36.512 16.5973 36.5453 16.5702 36.5453 16.5702C36.5453 16.5702 36.3555 16.0226 36.6786 15.3982Z" fill="#7E6C5E"/>
<path d="M37.0547 12.4012L37.4102 12.5972C37.4627 12.495 37.4254 12.3683 37.3271 12.3145C37.2289 12.2603 37.1071 12.2994 37.0547 12.4012Z" fill="#332418"/>
<path d="M35.593 12.4537L35.9565 12.2932C35.9152 12.1937 35.8001 12.1488 35.6996 12.1932C35.5996 12.2372 35.5516 12.3541 35.593 12.4537Z" fill="#332418"/>
<path d="M36.665 14.855C37.157 14.8519 37.517 14.7048 37.7517 14.5665C37.9237 14.4652 38.1904 14.1425 38.2317 14.0377C38.2317 14.0377 38.1606 14.4834 37.9122 14.6897C37.4624 15.063 36.6704 15.0465 36.6704 15.0465L36.665 14.855Z" fill="#DEC5BE"/>
<path d="M36.8604 12.8781C36.8617 12.967 36.9319 13.0377 37.0173 13.0363C37.1026 13.035 37.171 12.9617 37.1697 12.8732C37.1684 12.7843 37.0981 12.7137 37.0128 12.715C36.9275 12.7163 36.859 12.7892 36.8604 12.8781Z" fill="#332418"/>
<path d="M36.9752 13.803L36.6045 13.939C36.6405 14.0452 36.7525 14.1008 36.8547 14.0634C36.9569 14.0256 37.0107 13.9092 36.9752 13.803Z" fill="#332418"/>
<path d="M35.7022 12.8594C35.7035 12.9487 35.7742 13.0199 35.8599 13.0185C35.9457 13.0172 36.0146 12.9434 36.0133 12.8541C36.0119 12.7647 35.9413 12.6936 35.8555 12.695C35.7693 12.6967 35.7008 12.7701 35.7022 12.8594Z" fill="#332418"/>
<path d="M40.1848 23.8403C40.1613 24.1194 40.1613 24.2856 40.0471 24.4559C39.9773 24.5594 39.8488 24.6474 39.7688 24.7288C39.5315 24.9701 39.5613 25.119 39.387 25.3408C39.2506 25.5145 39.1253 25.5665 39.1502 25.6154C39.1822 25.6781 39.3008 25.7728 39.4813 25.6976C39.5719 25.6599 39.5937 25.6412 39.735 25.5305C39.7248 25.5856 39.7044 25.6625 39.6968 25.6821C39.6595 25.7803 39.6128 25.879 39.5635 25.9719C39.4897 26.1114 39.4479 26.1665 39.3546 26.2936C39.2626 26.4185 39.1346 26.5354 39.0648 26.675C39.0075 26.7892 39.1257 26.835 39.2266 26.8354C39.3404 26.8359 39.4422 26.7701 39.5568 26.7861C39.611 26.7936 39.6524 26.8265 39.7044 26.8425C39.8173 26.8763 39.8835 26.831 39.9835 26.7883C40.1306 26.7256 40.2853 26.683 40.4142 26.5848C40.5479 26.4825 40.6622 26.3528 40.7595 26.2159C40.8426 26.099 40.9142 25.9741 40.9764 25.8452C41.039 25.7154 41.0702 25.5741 41.1208 25.4381C41.2688 25.0421 41.3808 24.519 41.4897 23.9928C41.5986 23.467 41.9657 21.423 41.9657 21.423L40.3813 21.1848C40.3817 21.1848 40.2199 23.419 40.1848 23.8403Z" fill="#F9DACE"/>
<path d="M39.8021 15.823C40.1172 15.931 40.5701 16.0506 40.8883 16.3448C41.3101 16.7341 41.3981 17.6297 41.6234 18.6719C41.8492 19.7146 41.9048 20.0417 41.9826 20.8052C42.0017 20.9914 42.0341 21.1394 41.9857 21.431C41.9092 21.895 41.5883 23.5421 41.5883 23.5421C41.5883 23.5421 40.7759 23.715 40.2132 23.3386L40.3519 20.843L39.4426 17.8666C39.4426 17.8666 39.2999 16.9181 39.8021 15.823Z" fill="#917A69"/>
<path d="M40.2122 23.3391C40.7745 23.7151 41.5874 23.5426 41.5874 23.5426L41.454 24.2133C41.454 24.2133 41.2274 24.2915 40.7971 24.247C40.3669 24.2026 40.1611 23.9955 40.1611 23.9955L40.2122 23.3391Z" fill="#7E6C5E"/>
<path d="M31.4174 37.8035C31.4397 37.8035 31.4663 38.027 31.3445 38.1319C31.2041 38.2533 30.7983 38.4617 30.253 38.3915C29.7072 38.3208 29.4121 38.1661 29.1939 37.9835C28.9757 37.8008 28.6694 37.543 28.4228 37.4884C28.1934 37.4377 27.9445 37.3337 27.8712 37.263C27.7979 37.1924 27.8081 36.8773 27.8081 36.8773L31.4174 37.8035Z" fill="#55443A"/>
<path d="M28.0406 35.8488C28.0406 35.8488 27.9721 35.8497 27.9579 35.9226C27.941 36.0093 27.9263 36.2831 27.8903 36.4253C27.8401 36.6235 27.7872 36.8248 27.8174 36.9862C27.9294 37.1595 28.221 37.26 28.4601 37.3506C28.7041 37.4435 28.9863 37.6351 29.2339 37.8395C29.4903 38.0511 30.0294 38.2711 30.385 38.2684C30.8059 38.2653 31.2792 38.1293 31.3881 37.9342C31.5223 37.6928 31.3486 37.5764 30.725 37.2871C30.6068 37.2324 30.2099 36.9866 30.0686 36.8977C29.6859 36.6568 29.089 36.2337 28.9712 35.7315C28.8672 35.7462 28.7659 35.7768 28.6708 35.8222C28.5872 35.8622 28.4681 35.9084 28.4699 36.0155C28.4703 36.0528 28.4814 36.0893 28.4934 36.1244C28.501 36.1462 28.5068 36.1755 28.4877 36.1884C28.4694 36.2008 28.4454 36.1866 28.4294 36.1719C28.3637 36.1133 28.0423 35.8991 28.0406 35.8488Z" fill="#6A5649"/>
<path d="M25.4296 39.1515C25.4251 39.5227 25.3793 39.7711 25.258 39.9942C25.1367 40.2173 24.8922 40.2973 24.638 40.2453C24.3842 40.1933 24.1273 40.048 24.0407 39.732C23.954 39.416 23.9713 39.1524 24.0122 38.8062L25.4296 39.1515Z" fill="#55443A"/>
<path d="M25.4047 38.6129C25.3572 38.0982 25.2732 37.74 25.2763 37.3475C25.2789 36.9724 25.2709 36.5942 25.2425 36.5671L24.3354 36.5169C24.2927 36.5146 24.2309 36.9937 24.1883 37.5191C24.1376 38.1382 24.0781 38.3297 24.0158 38.7893C23.9483 39.2893 23.9909 39.5497 24.1301 39.7715C24.3158 40.068 24.9407 40.3146 25.2261 39.8675C25.4585 39.5026 25.4505 39.1111 25.4047 38.6129Z" fill="#6A5649"/>
<path d="M29.2495 36.1484C29.0833 35.9662 29.0766 35.8186 29.0642 35.4604C29.054 35.1742 29.2073 32.7942 29.2691 31.8515C29.2775 31.7315 29.2855 31.6066 29.2935 31.4786C29.294 31.472 29.2944 31.4684 29.2944 31.4684C29.3411 30.7342 29.3806 29.9066 29.37 29.34C29.3433 27.9231 29.0966 23.1728 28.9224 21.1475L25.4486 20.9017C25.2144 21.4013 24.5562 22.2222 24.3451 22.784C23.9131 23.9337 24.1193 24.7662 24.2442 26.2786C24.378 27.8991 24.5064 29.18 24.5064 29.18C24.482 29.468 24.0815 30.0297 24.03 31.3026C23.9815 32.4924 24.1175 34.0106 24.1175 34.0106C24.1811 34.9182 24.2984 35.6946 24.3211 36.516C24.3237 36.6115 24.3069 36.9986 24.2722 37.4475C24.238 37.8915 24.1877 38.4142 24.2286 38.6373C24.3442 39.2684 25.0442 39.3791 25.1646 38.8493C25.2446 38.4982 25.2362 38.2124 25.2193 37.736C25.2028 37.2706 25.2437 36.7737 25.2451 36.6915C25.2397 36.108 25.4682 35.1866 25.6429 34.1675C25.6429 34.1675 25.6429 34.1675 25.6433 34.1675C25.6433 34.1675 26.3157 30.9391 26.5033 29.4497C26.6673 28.1497 26.8544 27.1004 26.8544 27.1004L27.3624 29.5177C27.3624 29.5177 27.2989 30.1688 27.2722 30.7253C27.2575 31.0271 27.3424 31.6004 27.438 32.132C27.7904 34.2342 28.0117 35.6142 28.0286 35.764C28.0451 35.9137 28.0335 35.9928 28.0317 36.044C28.0233 36.2586 28.3766 36.4884 28.7362 36.7604C28.8784 36.868 29.3744 37.2444 29.802 37.432C30.258 37.6324 30.8682 37.5168 30.7251 37.2857C30.2277 36.9666 29.5975 36.5297 29.2495 36.1484Z" fill="#F9DACE"/>
<path opacity="0.2" d="M26.8545 27.1013L27.1612 24.5969C27.1612 24.5969 27.8785 24.532 28.4545 23.8573C28.4545 23.8573 28.2843 24.4582 27.4532 24.78L27.0505 26.9995L27.3625 29.5204L26.8545 27.1013Z" fill="#040000"/>
<path d="M29.4845 29.5751C29.4623 29.0871 29.1343 22.5075 28.9223 21.1479L25.1098 21.1417C24.6876 21.8457 24.1823 22.5159 24.0196 23.9022C23.8569 25.2884 24.3449 28.0844 24.3316 28.7573C24.3183 29.4297 23.9227 30.7751 23.8965 31.4742C23.8965 31.4742 24.268 31.7288 24.5845 31.8208L24.9391 28.8373L25.0445 31.8866C25.0445 31.8866 25.6769 32.1728 27.2729 32.0808C28.8689 31.9884 29.4152 31.5137 29.4152 31.5137C29.4152 31.5137 29.5067 30.0631 29.4845 29.5751Z" fill="#7E6C5E"/>
<path d="M28.0586 16.2911C28.4088 16.2635 28.7941 16.2048 29.2799 16.8248C29.7657 17.4444 30.8213 20.0924 30.8044 20.2511C30.7875 20.4097 30.2208 21.1728 29.7208 20.9839C29.2213 20.7951 28.1275 17.9808 28.1275 17.9808L28.0586 16.2911Z" fill="#F9DACE"/>
<path d="M31.3888 21.0884C31.3888 21.0884 30.5634 21.5182 30.0257 21.5706C29.6403 21.6084 29.4888 21.1946 28.959 19.8764L31.3888 21.0884Z" fill="#917A69"/>
<path d="M28.0283 16.1978C28.4172 16.1933 28.7172 16.2098 29.0225 16.4444C29.3279 16.6787 29.5021 17.0324 29.6821 17.0791C29.8621 17.1258 29.9545 17.0791 29.9545 17.0791C29.9545 17.0791 30.0599 17.3627 29.819 17.4298C29.5785 17.4964 29.5585 17.5129 29.5794 17.66C29.6003 17.8071 29.5345 17.9107 29.3114 17.9324C29.0879 17.9542 29.1252 18.1178 29.003 18.2213C28.8808 18.3249 28.6954 18.2649 28.6954 18.2649L28.0283 16.1978Z" fill="#917A69"/>
<path d="M29.0858 19.7089C29.8018 19.0391 29.6009 18.308 29.3405 17.7697C28.8196 16.6937 28.2627 16.1977 28.0285 16.1977L26.556 16.1964C25.852 16.28 25.2462 16.3782 25.0925 16.3969C24.888 16.4217 24.5311 16.8893 24.5062 17.3493C24.4787 17.8533 24.6307 17.8017 24.748 18.6382C24.748 18.6382 25.1013 19.224 25.2089 19.5831C25.3165 19.9422 25.3573 20.3609 25.2169 20.764C25.1556 20.9395 25.0916 21.0502 24.9458 21.2929C24.6298 21.8186 24.2898 22.5964 24.1338 23.2435C24.1338 23.2435 24.7791 23.2515 25.1898 22.7724C25.1898 22.7724 25.7493 23.6155 27.136 23.6853C28.5227 23.7551 29.208 22.5222 29.208 22.5222L28.9107 20.9226C28.9707 20.6377 29.0431 20.1009 29.0858 19.7089Z" fill="#917A69"/>
<path opacity="0.1" d="M25.9346 19.4315C25.9346 19.4315 26.2137 20.0662 27.0199 20.0511C27.7572 20.0373 28.0586 19.4173 28.0586 19.4173C28.0586 19.4173 28.0177 20.2635 27.0177 20.2537C26.0186 20.244 25.9346 19.4315 25.9346 19.4315Z" fill="#040000"/>
<path d="M27.2715 24.3084C27.2715 24.3289 27.2715 25.1938 27.2715 25.2142C27.2715 25.2347 27.2848 25.2551 27.3119 25.2707L28.9488 26.216C28.9759 26.2315 29.011 26.2395 29.0466 26.2395V23.2511L27.3119 24.2524C27.2848 24.2675 27.2715 24.288 27.2715 24.3084Z" fill="#41322B"/>
<path d="M29.1442 26.2155L30.9647 25.1644C30.9918 25.1489 31.0051 25.1284 31.0051 25.108C31.0051 25.0876 31.0051 24.2227 31.0051 24.2022C31.0051 24.1818 30.9918 24.1613 30.9647 24.1458L29.3278 23.2009C29.274 23.1698 29.1864 23.1698 29.1327 23.2009L29.0469 23.2502V26.2387C29.082 26.2391 29.1175 26.2311 29.1442 26.2155Z" fill="#5A453E"/>
<path d="M28.9497 25.3098L27.3128 24.3645C27.259 24.3333 27.259 24.2827 27.3128 24.2516L29.1332 23.2005C29.187 23.1693 29.2746 23.1693 29.3283 23.2005L30.9652 24.1458C31.019 24.1769 31.019 24.2276 30.9652 24.2587L29.1448 25.3098C29.091 25.3409 29.0035 25.3409 28.9497 25.3098Z" fill="#5D4B44"/>
<path d="M30.0796 24.4694C30.0898 24.4547 30.0987 24.4396 30.1067 24.4245C30.1089 24.4205 30.1107 24.4161 30.1129 24.4121C30.1191 24.3992 30.1249 24.3858 30.1298 24.3725C30.1311 24.3685 30.1329 24.3641 30.1342 24.3601C30.1396 24.3436 30.144 24.3267 30.1467 24.3098C30.1467 24.3094 30.1467 24.3089 30.1471 24.3089C30.1498 24.2921 30.1511 24.2747 30.1516 24.2574C30.1516 24.2525 30.1511 24.2472 30.1511 24.2423C30.1507 24.2303 30.1498 24.2183 30.148 24.2063C30.1471 24.2001 30.1462 24.1938 30.1449 24.1881C30.1427 24.1765 30.1396 24.1654 30.1365 24.1538C30.1347 24.1481 30.1334 24.1423 30.1316 24.1369C30.1258 24.1209 30.1196 24.1049 30.1116 24.0894C30.1089 24.0845 30.1058 24.0796 30.1031 24.0747C30.0969 24.0636 30.0902 24.0525 30.0827 24.0414C30.0782 24.0347 30.0734 24.0285 30.0685 24.0218C30.0649 24.0169 30.0618 24.0121 30.0578 24.0072C30.0525 24.0009 30.0467 23.9943 30.0409 23.9876C30.0378 23.9841 30.0347 23.9805 30.0316 23.9774C29.8151 23.7281 29.4965 23.6454 29.14 23.6454C28.7836 23.6454 28.4645 23.7285 28.2476 23.9783C28.2449 23.9809 28.2422 23.9841 28.24 23.9867C28.2338 23.9938 28.228 24.0009 28.2222 24.0076C28.2182 24.0125 28.2147 24.0178 28.2111 24.0232C28.2067 24.0294 28.2022 24.0352 28.1978 24.0414C28.1898 24.0534 28.1827 24.0654 28.176 24.0774C28.1738 24.0814 28.1711 24.0854 28.1689 24.0898C28.1609 24.1058 28.1542 24.1223 28.1485 24.1383C28.1467 24.1432 28.1454 24.1485 28.144 24.1534C28.1405 24.1654 28.1374 24.1774 28.1351 24.1898C28.1342 24.1956 28.1334 24.2009 28.1325 24.2067C28.1307 24.2196 28.1298 24.2321 28.1294 24.2449C28.1294 24.2494 28.1289 24.2538 28.1289 24.2583C28.1294 24.2929 28.1351 24.3276 28.1462 24.3618C28.1476 24.3654 28.1489 24.3689 28.1502 24.3725C28.1551 24.3863 28.1609 24.4005 28.168 24.4143C28.1698 24.4178 28.1716 24.4214 28.1734 24.4249C28.1818 24.4409 28.1911 24.4569 28.2022 24.4725C28.2027 24.4729 28.2031 24.4738 28.2036 24.4743C28.2156 24.4916 28.2294 24.5085 28.2445 24.5249C28.2454 24.5258 28.2467 24.5272 28.2476 24.5281C28.2609 24.5427 28.2756 24.5569 28.2916 24.5712C28.2951 24.5743 28.2991 24.5774 28.3027 24.5809C28.3174 24.5934 28.3325 24.6054 28.3489 24.6174C28.3529 24.6205 28.3569 24.6232 28.3609 24.6263C28.3814 24.6405 28.4031 24.6547 28.4262 24.6681C28.8209 24.8961 29.4622 24.8961 29.8565 24.6681C29.8796 24.6547 29.9009 24.6409 29.9214 24.6267C29.9258 24.6236 29.9302 24.6201 29.9347 24.6169C29.9502 24.6054 29.9649 24.5938 29.9791 24.5823C29.9831 24.5787 29.9876 24.5752 29.9916 24.5716C30.0067 24.5583 30.0209 24.5445 30.0338 24.5303C30.0351 24.5285 30.0369 24.5272 30.0382 24.5254C30.0529 24.5089 30.0662 24.4925 30.0782 24.4756C30.0778 24.4721 30.0782 24.4707 30.0796 24.4694Z" fill="#A467A7"/>
<path d="M30.0796 24.4694C30.0898 24.4547 30.0987 24.4396 30.1067 24.4245C30.1089 24.4205 30.1107 24.4161 30.1129 24.4121C30.1191 24.3992 30.1249 24.3858 30.1298 24.3725C30.1311 24.3685 30.1329 24.3641 30.1342 24.3601C30.1396 24.3436 30.144 24.3267 30.1467 24.3098C30.1467 24.3094 30.1467 24.3089 30.1471 24.3089C30.1498 24.2921 30.1511 24.2747 30.1516 24.2574C30.1516 24.2525 30.1511 24.2472 30.1511 24.2423C30.1507 24.2303 30.1498 24.2183 30.148 24.2063C30.1471 24.2001 30.1462 24.1938 30.1449 24.1881C30.1427 24.1765 30.1396 24.1654 30.1365 24.1538C30.1347 24.1481 30.1334 24.1423 30.1316 24.1369C30.1258 24.1209 30.1196 24.1049 30.1116 24.0894C30.1089 24.0845 30.1058 24.0796 30.1031 24.0747C30.0969 24.0636 30.0902 24.0525 30.0827 24.0414C30.0782 24.0347 30.0734 24.0285 30.0685 24.0218C30.0649 24.0169 30.0618 24.0121 30.0578 24.0072C30.0525 24.0009 30.0467 23.9943 30.0409 23.9876C30.0378 23.9841 30.0347 23.9805 30.0316 23.9774C29.8151 23.7281 29.4965 23.6454 29.14 23.6454C28.7836 23.6454 28.4645 23.7285 28.2476 23.9783C28.2449 23.9809 28.2422 23.9841 28.24 23.9867C28.2338 23.9938 28.228 24.0009 28.2222 24.0076C28.2182 24.0125 28.2147 24.0178 28.2111 24.0232C28.2067 24.0294 28.2022 24.0352 28.1978 24.0414C28.1898 24.0534 28.1827 24.0654 28.176 24.0774C28.1738 24.0814 28.1711 24.0854 28.1689 24.0898C28.1609 24.1058 28.1542 24.1223 28.1485 24.1383C28.1467 24.1432 28.1454 24.1485 28.144 24.1534C28.1405 24.1654 28.1374 24.1774 28.1351 24.1898C28.1342 24.1956 28.1334 24.2009 28.1325 24.2067C28.1307 24.2196 28.1298 24.2321 28.1294 24.2449C28.1294 24.2494 28.1289 24.2538 28.1289 24.2583C28.1294 24.2929 28.1351 24.3276 28.1462 24.3618C28.1476 24.3654 28.1489 24.3689 28.1502 24.3725C28.1551 24.3863 28.1609 24.4005 28.168 24.4143C28.1698 24.4178 28.1716 24.4214 28.1734 24.4249C28.1818 24.4409 28.1911 24.4569 28.2022 24.4725C28.2027 24.4729 28.2031 24.4738 28.2036 24.4743C28.2156 24.4916 28.2294 24.5085 28.2445 24.5249C28.2454 24.5258 28.2467 24.5272 28.2476 24.5281C28.2609 24.5427 28.2756 24.5569 28.2916 24.5712C28.2951 24.5743 28.2991 24.5774 28.3027 24.5809C28.3174 24.5934 28.3325 24.6054 28.3489 24.6174C28.3529 24.6205 28.3569 24.6232 28.3609 24.6263C28.3814 24.6405 28.4031 24.6547 28.4262 24.6681C28.8209 24.8961 29.4622 24.8961 29.8565 24.6681C29.8796 24.6547 29.9009 24.6409 29.9214 24.6267C29.9258 24.6236 29.9302 24.6201 29.9347 24.6169C29.9502 24.6054 29.9649 24.5938 29.9791 24.5823C29.9831 24.5787 29.9876 24.5752 29.9916 24.5716C30.0067 24.5583 30.0209 24.5445 30.0338 24.5303C30.0351 24.5285 30.0369 24.5272 30.0382 24.5254C30.0529 24.5089 30.0662 24.4925 30.0782 24.4756C30.0778 24.4721 30.0782 24.4707 30.0796 24.4694Z" fill="#4B3A31"/>
<path d="M29.1386 23.904C29.1226 23.904 29.108 23.9036 29.0951 23.9023C29.0595 23.8996 29.0262 23.9205 29.0129 23.9538C28.9297 24.1569 28.8586 24.3729 28.7964 24.5987C28.7822 24.6503 28.8133 24.7 28.8657 24.7098C28.9266 24.7214 29.0177 24.7329 29.1386 24.7329C29.2595 24.7329 29.3506 24.7214 29.4115 24.7098C29.464 24.6996 29.4951 24.6503 29.4809 24.5987C29.4186 24.3734 29.3475 24.1569 29.2644 23.9538C29.2506 23.9209 29.2177 23.8996 29.1822 23.9023C29.1693 23.9036 29.1546 23.904 29.1386 23.904Z" fill="#6C534A"/>
<path d="M29.3325 23.9685C29.4147 24.1512 29.4858 24.3525 29.548 24.5685C29.5627 24.6192 29.6151 24.6494 29.6645 24.6298C29.736 24.6018 29.8387 24.5534 29.9276 24.4792C29.968 24.4454 29.9738 24.3761 29.9431 24.3334C29.8209 24.1636 29.6591 24.0174 29.4654 23.8898C29.4214 23.861 29.3658 23.8516 29.34 23.8636C29.3143 23.8756 29.3111 23.9205 29.3325 23.9685Z" fill="#6C534A"/>
<path d="M29.5031 23.8582C29.6885 23.9787 29.8485 24.1169 29.9796 24.2738C30.0134 24.3142 30.0618 24.3116 30.0738 24.26C30.0791 24.2382 30.0822 24.2129 30.0818 24.1858C30.0809 24.1329 30.0342 24.0618 29.9938 24.0271C29.8534 23.9067 29.6836 23.8174 29.5289 23.7765C29.4778 23.7631 29.4369 23.7694 29.4329 23.7836C29.4294 23.7978 29.4587 23.8294 29.5031 23.8582Z" fill="#6C534A"/>
<path d="M29.4171 23.7129C29.4082 23.7009 29.4282 23.6885 29.4665 23.6863C29.4869 23.6849 29.5105 23.6849 29.5354 23.6872C29.5971 23.6925 29.7451 23.7369 29.8767 23.8334C29.9194 23.8645 29.9811 23.9192 30.0109 23.9578C30.0402 23.9965 30.0256 24.0014 29.9851 23.9676C29.8758 23.8769 29.6989 23.7805 29.5256 23.7476C29.4731 23.7374 29.4256 23.7249 29.4171 23.7129Z" fill="#6C534A"/>
<path d="M28.9451 23.9685C28.8629 24.1512 28.7918 24.3525 28.7296 24.5685C28.7149 24.6192 28.6625 24.6494 28.6136 24.6298C28.542 24.6018 28.4394 24.5534 28.3505 24.4792C28.31 24.4454 28.3043 24.3761 28.3349 24.3334C28.4571 24.1636 28.6189 24.0174 28.8127 23.8898C28.8567 23.861 28.9123 23.8516 28.938 23.8636C28.9638 23.8756 28.9669 23.9205 28.9451 23.9685Z" fill="#6C534A"/>
<path d="M28.775 23.8582C28.5897 23.9787 28.4297 24.1169 28.2986 24.2738C28.2648 24.3142 28.2163 24.3116 28.2043 24.26C28.199 24.2382 28.1959 24.2129 28.1963 24.1858C28.1972 24.1329 28.2439 24.0618 28.2839 24.0271C28.4243 23.9067 28.5941 23.8174 28.7488 23.7765C28.7999 23.7631 28.8408 23.7694 28.8448 23.7836C28.8488 23.7978 28.819 23.8294 28.775 23.8582Z" fill="#6C534A"/>
<path d="M28.8604 23.7129C28.8693 23.7009 28.8493 23.6885 28.811 23.6863C28.7906 23.6849 28.767 23.6849 28.7422 23.6872C28.6804 23.6925 28.5324 23.7369 28.4008 23.8334C28.3582 23.8645 28.2964 23.9192 28.2666 23.9578C28.2368 23.9965 28.2519 24.0014 28.2924 23.9676C28.4017 23.8769 28.5786 23.7805 28.7519 23.7476C28.8044 23.7374 28.8515 23.7249 28.8604 23.7129Z" fill="#6C534A"/>
<path d="M29.9904 22.1823C29.9878 22.1823 29.9855 22.1823 29.9829 22.1823C29.9078 22.1796 29.8149 22.1276 29.8002 21.9903C29.786 21.8569 29.818 21.4947 30.4278 21.0125C30.9451 20.6031 31.3758 20.2209 31.4011 19.6885C31.4104 19.4925 31.3371 19.3338 31.2193 19.2934C31.0953 19.2511 30.9349 19.3494 30.79 19.5569C30.6953 19.6925 30.6793 19.8591 30.7002 19.9009C30.7042 19.9 30.7109 19.8978 30.7206 19.8934C30.7624 19.8729 30.8126 19.8903 30.8326 19.932C30.8531 19.9738 30.8358 20.024 30.794 20.044C30.6709 20.104 30.6002 20.0436 30.5758 20.0151C30.4753 19.8974 30.5353 19.6285 30.6522 19.4609C30.926 19.0685 31.178 19.1023 31.2735 19.1347C31.466 19.2005 31.582 19.4209 31.5691 19.6965C31.5402 20.2991 31.0824 20.7085 30.5322 21.144C30.0878 21.4956 29.9491 21.8023 29.9678 21.972C29.97 21.9911 29.9753 22.0138 29.9895 22.0143C30.0135 22.0156 30.0678 21.9831 30.0802 21.916C30.0886 21.8707 30.1326 21.84 30.178 21.8485C30.2238 21.8569 30.2535 21.9005 30.2455 21.9463C30.2202 22.08 30.1095 22.1823 29.9904 22.1823Z" fill="#A467A7"/>
<path d="M29.9904 22.1823C29.9878 22.1823 29.9855 22.1823 29.9829 22.1823C29.9078 22.1796 29.8149 22.1276 29.8002 21.9903C29.786 21.8569 29.818 21.4947 30.4278 21.0125C30.9451 20.6031 31.3758 20.2209 31.4011 19.6885C31.4104 19.4925 31.3371 19.3338 31.2193 19.2934C31.0953 19.2511 30.9349 19.3494 30.79 19.5569C30.6953 19.6925 30.6793 19.8591 30.7002 19.9009C30.7042 19.9 30.7109 19.8978 30.7206 19.8934C30.7624 19.8729 30.8126 19.8903 30.8326 19.932C30.8531 19.9738 30.8358 20.024 30.794 20.044C30.6709 20.104 30.6002 20.0436 30.5758 20.0151C30.4753 19.8974 30.5353 19.6285 30.6522 19.4609C30.926 19.0685 31.178 19.1023 31.2735 19.1347C31.466 19.2005 31.582 19.4209 31.5691 19.6965C31.5402 20.2991 31.0824 20.7085 30.5322 21.144C30.0878 21.4956 29.9491 21.8023 29.9678 21.972C29.97 21.9911 29.9753 22.0138 29.9895 22.0143C30.0135 22.0156 30.0678 21.9831 30.0802 21.916C30.0886 21.8707 30.1326 21.84 30.178 21.8485C30.2238 21.8569 30.2535 21.9005 30.2455 21.9463C30.2202 22.08 30.1095 22.1823 29.9904 22.1823Z" fill="#41322B"/>
<path d="M31.2877 20.1102C31.3592 20.1814 31.4708 20.1231 31.4903 20.068C31.4903 20.068 31.581 19.804 31.569 19.6596C31.7339 19.7205 31.9739 19.9747 32.0099 20.0489C32.0326 20.096 32.0259 20.1671 32.0086 20.2156C31.9877 20.2747 31.9215 20.3045 31.8966 20.3618C31.8699 20.4231 31.8966 20.496 31.8792 20.5609C31.8517 20.6636 31.7237 20.7182 31.7046 20.8227C31.6952 20.8742 31.7152 20.9276 31.709 20.9796C31.701 21.0418 31.657 21.0929 31.6117 21.1365C31.5521 21.1938 31.4699 21.2631 31.3832 21.2685C31.2157 21.2787 31.0157 21.22 30.8588 21.1645C30.8246 21.1525 30.7877 21.0965 30.765 21.0685C30.7348 21.0307 30.7046 20.9925 30.6743 20.9547C30.6272 20.8956 30.5775 20.828 30.5859 20.7529C30.5912 20.7071 30.6175 20.6667 30.6281 20.6222C30.6441 20.5556 30.6241 20.4854 30.629 20.4165C30.641 20.2485 30.797 20.1214 30.8259 19.9556C30.8352 19.9018 30.8308 19.8467 30.8317 19.792C30.8326 19.7374 30.8401 19.6809 30.8703 19.6351C30.9348 19.5378 31.1481 19.5058 31.2521 19.5378C31.3179 19.5582 31.3975 19.5934 31.3975 19.5934C31.4121 19.7751 31.3668 19.9458 31.2877 20.1102Z" fill="#F9DACE"/>
<path d="M27.2734 20.2151C27.2734 21.1289 27.589 21.5969 27.9543 22.1503C28.3868 22.8054 28.9632 23.2618 28.9885 23.7232C28.9885 23.7458 29.0032 23.768 29.033 23.7854C29.0921 23.8196 29.1881 23.8196 29.2472 23.7854C29.277 23.7685 29.2917 23.7458 29.2917 23.7236C29.3019 23.2623 29.8934 22.8058 30.3259 22.1507C30.6912 21.5974 31.0068 21.1365 31.0068 20.2156H27.2734V20.2151Z" fill="#554239"/>
<path opacity="0.1" d="M27.2734 20.2285C27.2765 21.1334 27.5908 21.5996 27.9543 22.1502C28.3868 22.8054 28.9632 23.2618 28.9885 23.7231C28.9885 23.7458 29.0032 23.768 29.033 23.7854C29.0459 23.7929 29.061 23.7987 29.077 23.8027C29.0614 23.3574 28.9174 22.848 28.5979 22.4089C28.2659 21.9529 27.9801 21.316 27.9801 20.5298C27.9801 20.5298 27.5797 20.2916 27.3965 20.2156H27.2761C27.2739 20.2191 27.2734 20.2236 27.2734 20.2285Z" fill="#040000"/>
<path d="M27.8201 20.9769C28.5485 21.3978 29.7303 21.3978 30.4592 20.9769C31.1881 20.556 31.1881 19.8738 30.4592 19.4534C29.7303 19.0325 28.549 19.0325 27.8201 19.4534C27.0912 19.8743 27.0912 20.5565 27.8201 20.9769Z" fill="#A467A7"/>
<path d="M27.8201 20.9769C28.5485 21.3978 29.7303 21.3978 30.4592 20.9769C31.1881 20.556 31.1881 19.8738 30.4592 19.4534C29.7303 19.0325 28.549 19.0325 27.8201 19.4534C27.0912 19.8743 27.0912 20.5565 27.8201 20.9769Z" fill="#41322B"/>
<path d="M28.07 20.8325C28.6602 21.1734 29.618 21.1734 30.2086 20.8325C30.7993 20.4916 30.7993 19.9387 30.2086 19.5978C29.618 19.2569 28.6606 19.2569 28.07 19.5978C27.4793 19.9387 27.4793 20.4916 28.07 20.8325Z" fill="#A467A7"/>
<path d="M28.07 20.8325C28.6602 21.1734 29.618 21.1734 30.2086 20.8325C30.7993 20.4916 30.7993 19.9387 30.2086 19.5978C29.618 19.2569 28.6606 19.2569 28.07 19.5978C27.4793 19.9387 27.4793 20.4916 28.07 20.8325Z" fill="#554239"/>
<path opacity="0.2" d="M28.526 19.4169C28.3606 19.4592 28.2055 19.5192 28.07 19.5978C27.4793 19.9387 27.4793 20.4916 28.07 20.8325C28.1771 20.8943 28.2962 20.9445 28.4228 20.984C27.9997 20.2676 28.2442 19.5654 28.526 19.4169Z" fill="#040000"/>
<path d="M28.3364 23.1445C28.2719 23.1445 28.2213 23.1014 28.2053 23.0325C28.1946 22.9872 28.2231 22.9423 28.2679 22.9316C28.3022 22.9236 28.3364 22.9378 28.3555 22.9649C28.3986 22.9334 28.4715 22.8423 28.4817 22.7334C28.4866 22.6805 28.4826 22.6098 28.4342 22.5725C28.3928 22.5405 28.2817 22.5027 27.9977 22.6058C27.6142 22.7454 27.2791 22.8494 27.0644 22.7067C26.9519 22.632 26.8897 22.4974 26.8799 22.3063C26.8622 21.9565 27.0751 21.4787 27.3444 21.2632C27.4782 21.156 27.6186 21.1187 27.7502 21.1556C27.8377 21.18 27.9008 21.2623 27.9191 21.376C27.9413 21.516 27.8942 21.7036 27.7386 21.8076C27.6999 21.8334 27.6479 21.8232 27.6222 21.7845C27.5964 21.7458 27.6071 21.6938 27.6453 21.668C27.7386 21.6058 27.7666 21.4867 27.7533 21.4023C27.7462 21.3574 27.7266 21.3232 27.7053 21.3169C27.6266 21.2952 27.5408 21.3209 27.4493 21.3938C27.2244 21.5738 27.0328 22.0045 27.0475 22.2974C27.0542 22.4343 27.0902 22.5223 27.1568 22.5667C27.3062 22.6658 27.6257 22.5623 27.9399 22.448C28.2137 22.3485 28.4146 22.3458 28.5364 22.4396C28.6213 22.5054 28.6608 22.6152 28.6484 22.7494C28.6302 22.9396 28.4804 23.1347 28.3457 23.144C28.3426 23.1445 28.3395 23.1445 28.3364 23.1445Z" fill="#A467A7"/>
<path d="M28.3369 23.1445C28.2729 23.1445 28.2218 23.1014 28.2058 23.0325C28.1951 22.9872 28.2236 22.9423 28.2685 22.9316C28.3027 22.9236 28.3369 22.9378 28.356 22.9649C28.3991 22.9334 28.472 22.8423 28.4823 22.7334C28.4871 22.6805 28.4831 22.6098 28.4347 22.5725C28.3934 22.5405 28.2823 22.5027 27.9983 22.6058C27.6147 22.7454 27.2796 22.8494 27.0649 22.7067C26.9525 22.632 26.8903 22.4974 26.8809 22.3063C26.8631 21.9565 27.076 21.4787 27.3454 21.2632C27.4791 21.156 27.6196 21.1187 27.7511 21.1556C27.8387 21.18 27.9018 21.2623 27.92 21.376C27.9423 21.516 27.8951 21.7036 27.7396 21.8076C27.7009 21.8334 27.6489 21.8232 27.6231 21.7845C27.5974 21.7458 27.6076 21.6938 27.6463 21.668C27.7396 21.6058 27.7676 21.4867 27.7543 21.4023C27.7471 21.3574 27.7276 21.3232 27.7063 21.3169C27.6276 21.2952 27.5418 21.3209 27.4503 21.3938C27.2254 21.5738 27.0338 22.0045 27.0485 22.2974C27.0551 22.4343 27.0911 22.5223 27.1578 22.5667C27.3071 22.6658 27.6267 22.5623 27.9409 22.448C28.2147 22.3485 28.4156 22.3458 28.5374 22.4396C28.6223 22.5054 28.6618 22.6152 28.6494 22.7494C28.6311 22.9396 28.4814 23.1347 28.3467 23.144C28.3431 23.1445 28.34 23.1445 28.3369 23.1445Z" fill="#41322B"/>
<path d="M23.4844 17.4537C23.4938 17.4693 23.5049 17.484 23.5182 17.4969C23.544 17.5226 23.576 17.5426 23.5951 17.5737C23.64 17.6471 23.5938 17.7422 23.6022 17.828C23.6129 17.9333 23.7062 18.0146 23.7236 18.1191C23.7342 18.1822 23.7156 18.2462 23.7133 18.3097C23.7084 18.4609 23.8871 18.548 24.0138 18.588C24.1222 18.6222 24.2538 18.644 24.304 18.7457C24.3324 18.8026 24.3267 18.872 24.3533 18.9297C24.4 19.0289 24.5253 19.0613 24.6347 19.0644C24.7391 19.0675 24.8569 19.0471 24.9164 18.9613C24.9516 18.9106 24.9596 18.8466 24.9644 18.7853C24.9898 18.4697 24.9609 18.144 24.8293 17.856C24.6982 17.568 24.4551 17.3222 24.1511 17.2342C24.1164 17.224 24.0773 17.204 24.0413 17.2017C23.9836 17.1986 23.9164 17.2231 23.8582 17.228C23.732 17.2391 23.604 17.2337 23.4791 17.212C23.4382 17.2853 23.4413 17.3817 23.4844 17.4537Z" fill="#7E6C5E"/>
<path d="M25.0426 16.4671C24.3337 16.5658 24.1008 16.7391 23.8559 17.3427C23.6208 17.9222 23.0101 19.9418 22.8506 20.4893C22.6888 21.0449 22.8137 21.1667 23.1888 21.3738C23.4417 21.5133 23.8097 21.6715 24.1288 21.8098C24.2568 21.8653 25.0141 22.1707 25.2728 22.2738C25.5315 22.3773 25.7101 22.5173 25.9181 22.6435C26.1572 22.7884 26.3603 23.0107 26.627 23.076C26.7168 23.0982 26.8337 23.08 26.9332 23.0569C27.1297 23.0107 27.2728 22.9622 27.399 22.8427C27.5395 22.7098 27.5537 22.4618 27.5768 22.2764C27.5937 22.1387 27.5972 21.9933 27.5403 21.8667C27.4999 21.7769 27.4319 21.7027 27.3648 21.6302C27.3435 21.6071 27.3163 21.5658 27.2866 21.5747C27.2866 21.5747 27.2497 21.6293 27.2381 21.6502C27.2199 21.6831 27.1901 21.7355 27.1683 21.7831C27.1537 21.8147 27.1417 21.8515 27.1092 21.8653C27.0688 21.8827 27.0186 21.8573 26.9995 21.8178C26.9803 21.7782 27.003 21.7355 27.0226 21.6964C27.0399 21.6613 27.0537 21.6293 27.0741 21.5969C27.0901 21.572 27.1483 21.4787 27.1483 21.4787C27.1252 21.4671 27.0866 21.4609 27.0719 21.4595C26.887 21.4427 26.7355 21.4853 26.5546 21.5253C26.4972 21.5378 26.4266 21.5667 26.3679 21.56C26.3279 21.5555 26.2843 21.5382 26.2457 21.5271C26.1386 21.496 26.0368 21.4453 25.9377 21.3942C25.5723 21.2053 24.415 20.4404 24.415 20.4404L25.2483 18.356C25.2479 18.3573 25.5412 16.8138 25.0426 16.4671Z" fill="#F9DACE"/>
<path d="M25.3283 18.396C25.4674 18.072 25.6909 16.8235 25.0918 16.3964C24.7789 16.3964 24.4994 16.4462 24.0732 16.8306C23.9327 16.9573 23.6856 17.1995 23.4709 17.1826C23.4434 17.3146 23.602 17.4609 23.7096 17.5044C23.7985 17.5409 23.8967 17.5458 23.9905 17.5653C24.0847 17.5849 24.182 17.6235 24.234 17.7044C24.3225 17.8418 24.2452 18.0404 24.3349 18.1764C24.4012 18.2769 24.5216 18.3155 24.6132 18.3875C24.6358 18.4053 24.658 18.4249 24.6736 18.4493C24.6976 18.4875 24.7025 18.5346 24.7016 18.58C24.7003 18.6546 24.6852 18.7302 24.702 18.8031C24.7198 18.8782 24.774 18.9604 24.8318 19.0115C24.8429 19.0213 24.9047 19.0653 24.9892 19.0769C25.054 18.9475 25.082 18.9066 25.13 18.8169C25.218 18.6515 25.27 18.5315 25.3283 18.396Z" fill="#917A69"/>
<path d="M24.4154 20.4413C23.9523 20.3031 23.6172 20.4858 23.6172 20.4858C23.6172 20.4858 23.8652 20.1444 24.4781 20.2849L24.4154 20.4413Z" fill="#DEC5BE"/>
<path d="M27.0443 15.6116C26.9118 15.6107 26.0034 15.5836 26.0034 15.5836C25.8532 15.2636 25.586 15.1454 25.2327 14.7325C24.9194 14.3663 24.7852 13.8854 24.7852 13.4036C24.7852 12.2049 25.7092 11.3871 26.9078 11.3871C27.1389 11.3871 27.4923 11.4338 27.8834 11.6183C27.8834 11.6183 28.5954 11.4334 28.9736 12.2614C29.1625 12.6747 28.9785 13.364 28.6567 13.7618C28.3585 14.1303 28.5758 14.6596 28.2518 15.0058C28.0287 15.244 27.7527 15.4369 27.4452 15.548C27.3065 15.5983 27.1758 15.6125 27.0443 15.6116Z" fill="#332418"/>
<path d="M28.2049 12.2609C28.4453 12.3956 28.7529 12.9854 28.7542 14.2369C28.7551 15.2978 28.4178 15.568 28.2471 15.6476C28.0764 15.7271 27.7427 15.6894 27.4178 15.6431L27.4329 16.2796C27.4329 16.2796 28.3507 17.2356 27.6093 17.348C27.2391 17.404 26.6253 17.1734 26.3369 16.8934C26.0418 16.6071 25.9302 16.2956 25.9302 16.2956L25.9133 14.8245C25.8587 14.9671 25.6071 14.9751 25.4529 14.8098C25.2111 14.5511 25.1622 14.1618 25.3649 13.9458C25.5675 13.7298 25.8938 13.8103 26.048 14.1076C26.048 14.1076 26.2382 14.1183 26.4195 13.7614C26.4195 13.7614 26.9395 13.7467 27.4227 13.4587C28.0107 13.108 28.196 12.5489 28.2049 12.2609Z" fill="#F9DACE"/>
<path d="M27.4457 13.928C27.4519 14.012 27.3915 14.0849 27.3106 14.0907C27.2297 14.0965 27.159 14.0329 27.1528 13.9489C27.1466 13.8649 27.207 13.7925 27.2879 13.7867C27.3688 13.7809 27.4394 13.8445 27.4457 13.928Z" fill="#332418"/>
<path d="M27.3288 14.6475L27.9488 14.8293C27.9017 15.0066 27.7252 15.1097 27.5537 15.0595C27.383 15.0093 27.2821 14.8249 27.3288 14.6475Z" fill="#AB6365"/>
<path d="M27.425 14.7946C27.3908 14.7946 27.3583 14.8017 27.3281 14.8128C27.3548 14.9275 27.4375 15.0248 27.5543 15.0595C27.6041 15.0742 27.6539 15.0742 27.7015 15.0648C27.6975 14.9151 27.5757 14.7946 27.425 14.7946Z" fill="#E88B8A"/>
<path d="M28.5652 13.452L28.2314 13.3138C28.2666 13.2195 28.3697 13.1738 28.4617 13.212C28.5537 13.2502 28.6003 13.3573 28.5652 13.452Z" fill="#332418"/>
<path d="M27.2938 13.3671L26.9849 13.5542C26.9293 13.4702 26.9538 13.3605 27.0391 13.3085C27.1244 13.2569 27.2382 13.2831 27.2938 13.3671Z" fill="#332418"/>
<path d="M28.4916 13.8427C28.4978 13.9267 28.4373 13.9991 28.3565 14.0054C28.2756 14.0111 28.2049 13.9476 28.1987 13.864C28.1925 13.78 28.2529 13.7071 28.3338 13.7014C28.4147 13.6956 28.4854 13.7591 28.4916 13.8427Z" fill="#332418"/>
<path d="M27.4164 15.6435C27.0742 15.6071 26.368 15.4222 26.252 15.1475C26.252 15.1475 26.2924 15.3209 26.5062 15.4955C26.72 15.6702 27.4213 15.8555 27.4213 15.8555L27.4164 15.6435Z" fill="#DEC5BE"/>
<path d="M26.0479 14.1076L26.0612 14.4796C26.271 14.4747 26.4367 14.3005 26.4319 14.0907L26.4194 13.7614L26.0479 14.1076Z" fill="#332418"/>
<path d="M27.7012 14.5866C27.7016 14.5813 27.763 14.5817 27.8607 14.5875C27.8856 14.5893 27.9092 14.5889 27.9163 14.5733C27.9252 14.5569 27.9198 14.5289 27.9132 14.4982C27.9012 14.4351 27.8887 14.3693 27.8754 14.3C27.8243 14.0182 27.7923 13.7884 27.8034 13.7866C27.815 13.7849 27.8652 14.0115 27.9163 14.2933C27.9283 14.3626 27.9398 14.4289 27.9505 14.492C27.9545 14.5213 27.9647 14.5555 27.9456 14.5897C27.9358 14.6066 27.9154 14.6164 27.899 14.6177C27.8825 14.6195 27.8687 14.6173 27.8567 14.616C27.7607 14.6026 27.7007 14.592 27.7012 14.5866Z" fill="#332418"/>
<path d="M36.5003 13.6577C36.4998 13.6523 36.4385 13.6528 36.3407 13.6586C36.3158 13.6603 36.2923 13.6599 36.2847 13.6443C36.2758 13.6279 36.2811 13.5999 36.2878 13.5692C36.2998 13.5061 36.3123 13.4403 36.3256 13.371C36.3767 13.0892 36.4087 12.8595 36.3976 12.8577C36.386 12.8559 36.3358 13.0826 36.2847 13.3643C36.2727 13.4337 36.2611 13.4999 36.2505 13.563C36.2465 13.5923 36.2362 13.6266 36.2554 13.6608C36.2651 13.6777 36.2856 13.6875 36.302 13.6888C36.3185 13.6906 36.3322 13.6883 36.3442 13.687C36.4411 13.6737 36.5011 13.663 36.5003 13.6577Z" fill="#332418"/>
</g>
</g>
<defs>
<clipPath id="clip0_1141_49370">
<rect width="48" height="48" rx="24" fill="white"/>
</clipPath>
</defs>
</svg>
