<svg width="48" height="48" viewBox="0 0 48 48" fill="none" xmlns="http://www.w3.org/2000/svg">
<g clip-path="url(#clip0_1141_49367)">
<rect width="48" height="48" rx="24" fill="white"/>
<g clip-path="url(#clip1_1141_49367)">
<path d="M23.2308 43.3538C33.8128 43.3538 42.3912 34.853 42.3912 24.3667C42.3912 13.8804 33.8128 5.37958 23.2308 5.37958C12.6487 5.37958 4.07031 13.8804 4.07031 24.3667C4.07031 34.853 12.6487 43.3538 23.2308 43.3538Z" fill="#CFBFB3"/>
<path d="M26.6874 26.6617C26.6874 26.6617 29.4327 27.2 30.0047 27.5404C30.5767 27.8804 32.2639 33.2364 32.6643 35.7871C33.0647 38.3377 32.2639 40.8315 32.2639 40.8315L24.3994 40.2364L24.4567 30.5444L26.6874 26.6617Z" fill="#5D463B"/>
<path d="M18.8515 26.2084C18.8515 26.2084 17.1142 26.6547 15.9346 26.7822C14.7551 26.9098 13.2106 29.0991 12.5671 30.2467C11.9235 31.3942 8.70618 37.1969 8.59907 37.4093C8.49196 37.6218 9.15685 38.4293 10.4866 38.8333C11.8164 39.2373 17.5862 37.6218 17.5862 37.6218L19.2377 30.3529L18.8515 26.2084Z" fill="#5D463B"/>
<path d="M13.1321 36.664C13.1135 36.664 13.0957 36.6547 13.085 36.6378C12.5855 35.84 11.5463 35.36 11.5361 35.3551C11.5086 35.3422 11.4961 35.3098 11.509 35.2822C11.5219 35.2547 11.5543 35.2422 11.5823 35.2551C11.6263 35.2751 12.6615 35.7533 13.1792 36.5795C13.1952 36.6053 13.1872 36.6391 13.1615 36.6551C13.1521 36.6613 13.1419 36.664 13.1321 36.664Z" fill="#332418"/>
<path d="M8.59972 37.4097C8.59972 37.4097 8.47083 38.0049 8.79261 38.7062C9.11438 39.4075 10.2082 40.4702 10.7659 40.7253C11.3237 40.9804 13.7042 40.9377 13.7899 40.8955C13.8757 40.8529 16.5353 39.5351 16.3851 38.7275C16.2348 37.92 14.6051 36.772 13.5539 36.6871C12.5033 36.6017 9.80061 36.6231 8.59972 37.4097Z" fill="#5D463B"/>
<path d="M9.17841 37.1884C9.1553 37.1884 9.13397 37.1742 9.12597 37.1511C9.11619 37.1222 9.13175 37.0911 9.16064 37.0813C9.1633 37.0804 9.42419 36.9929 9.8553 36.8933C9.88508 36.8862 9.91486 36.9049 9.92197 36.9342C9.92908 36.9635 9.91041 36.9933 9.88064 37C9.4553 37.0986 9.19886 37.1844 9.19619 37.1853C9.18997 37.1871 9.18419 37.1884 9.17841 37.1884Z" fill="#332418"/>
<path d="M10.7302 36.8356C10.7035 36.8356 10.68 36.816 10.6755 36.7889C10.6706 36.7591 10.6915 36.7307 10.7217 36.7262C11.8111 36.5569 12.8533 36.5396 13.8195 36.6751C13.8497 36.6791 13.8711 36.7071 13.8666 36.7373C13.8622 36.7676 13.8342 36.7885 13.804 36.784C12.8488 36.6502 11.8177 36.6671 10.7391 36.8351C10.736 36.8351 10.7328 36.8356 10.7302 36.8356Z" fill="#332418"/>
<path d="M16.1708 30.3866C16.1423 30.3866 16.1179 30.3649 16.1157 30.3364C16.0099 29.1018 15.6703 27.7871 15.6668 27.7738C15.6592 27.7444 15.677 27.7146 15.7068 27.7071C15.7366 27.6991 15.7668 27.7173 15.7743 27.7466C15.7779 27.76 16.1201 29.0831 16.2263 30.3275C16.229 30.3578 16.2063 30.3844 16.1757 30.3871C16.1739 30.3866 16.1721 30.3866 16.1708 30.3866Z" fill="#332418"/>
<path d="M19.1309 29.6306L18.5842 26.2751C18.578 26.2764 18.5722 26.2782 18.566 26.2795C18.5327 26.6111 18.4091 28.0631 18.6162 29.6306H19.1309Z" fill="#332418"/>
<path d="M25.7583 14.7524C25.1791 13.4773 22.9058 12.5418 21.2325 13.3071C19.5596 14.0724 19.5809 15.3902 18.8516 16.4102C18.1223 17.4302 16.6854 19.0671 15.9774 20.3422C15.2694 21.6173 15.484 24.3591 16.6636 25.3156C16.6636 25.3156 16.7494 25.3156 16.7707 25.252C16.792 25.1884 16.3418 24.0405 16.5347 23.3178C16.5347 23.3178 16.7276 24.6569 17.6498 25.6556C17.6498 25.6556 19.1943 25.6556 20.2023 25.7191C21.2103 25.7827 25.3711 26.0804 26.0578 26.3356C26.0578 26.3356 26.8298 25.6556 27.1516 25.0178C27.1516 25.0178 27.0658 25.8467 26.9369 26.0591C26.9369 26.0591 27.9663 26.0804 28.0738 26.0164C28.1809 25.9529 28.76 24.6351 28.9747 23.8058C28.9747 23.8058 29.4894 21 29.2751 18.5987C29.2751 18.5987 29.2538 15.9844 27.7738 15.1769C26.2943 14.3698 25.7583 14.7524 25.7583 14.7524Z" fill="#332418"/>
<path d="M22 13.0769C23.9724 12.9738 25.7013 15.4822 25.7013 15.4822L25.7587 14.7525C25.264 13.664 23.536 12.8245 22 13.0769Z" fill="#332418"/>
<path d="M27.5741 16.6298C25.9728 15.5245 20.8252 15.8365 20.8252 15.8365C20.8252 15.8365 19.5954 16.6018 19.2239 17.4236C18.8523 18.2453 17.7941 19.5205 17.2794 20.5125C16.7812 21.4725 16.6852 24.0773 17.8972 25.6569C18.3732 25.6596 19.4412 25.6716 20.2034 25.7196C21.2114 25.7831 25.3723 26.0809 26.059 26.336C26.059 26.336 26.831 25.656 27.1528 25.0182C27.1528 25.0182 27.067 25.8471 26.9381 26.0596C26.9381 26.0596 27.9674 26.0809 28.075 26.0169C28.1821 25.9533 28.7612 24.6356 28.9759 23.8062C28.9759 23.8062 29.3985 21.5018 29.3181 19.2818C29.0039 18.32 28.4528 17.2365 27.5741 16.6298Z" fill="#271A12"/>
<path d="M27.1365 22.016C27.1365 22.016 27.8147 21.7796 27.8716 22.1009C27.9285 22.4222 27.4792 23.628 26.6641 23.6187L27.1365 22.016Z" fill="#F9DACE"/>
<path d="M20.0098 25.6347L20.968 24.912L25.2218 25.4538C25.2218 25.4538 25.5222 26.8035 25.2862 27.2711C25.0502 27.7387 24.5427 29.0778 24.0889 29.3115C23.6351 29.5453 22.1227 29.6515 22.1227 29.6515L20.4604 29.4604L20.0098 25.6347Z" fill="#E6CAC3"/>
<path d="M20.3751 25.0396C20.3751 25.0396 20.3751 27.5262 21.276 29.1418L18.9383 29.8431C18.9383 29.8431 18.3591 26.8889 18.552 25.8684C18.552 25.8684 20.0534 25.0822 20.3751 25.0396Z" fill="white"/>
<path d="M23.3125 29.3329C23.3125 29.3329 24.8783 27.08 25.1783 25.6346C25.1783 25.6346 26.9156 26.4 26.9583 26.5275C27.0014 26.6551 26.0361 29.1631 25.6498 29.652L23.3125 29.3329Z" fill="white"/>
<path d="M19.1664 20.7107C19.1664 20.7107 19.138 23.2044 19.338 23.8844C19.538 24.5644 21.6544 26.7751 22.0833 26.86C22.5122 26.9449 25.4291 25.7547 25.9727 25.2729C26.5162 24.7911 27.0878 22.6089 27.3455 21.3338C27.6029 20.0587 27.8033 18.5 27.2882 17.1964C26.7735 15.8929 25.1433 14.9858 23.1989 15.3262C21.2544 15.6662 19.9958 16.7716 19.71 17.3667C19.4238 17.9618 19.1664 20.7107 19.1664 20.7107Z" fill="#F9DACE"/>
<path d="M25.286 19.1307C25.286 19.1307 24.3566 18.7409 23.5131 19.2085C22.6695 19.676 23.642 17.7916 24.0277 17.6782C24.414 17.5649 24.9144 17.5507 25.1144 17.7489C25.3144 17.9471 25.4002 18.2165 25.4002 18.2165C25.4002 18.2165 25.386 18.812 25.286 19.1307Z" fill="#332418"/>
<path d="M19.3094 20.5409C19.3094 20.5409 18.7659 19.8889 18.4516 20.3427C18.137 20.796 18.1943 22.4964 19.2236 22.78L19.3094 20.5409Z" fill="#F9DACE"/>
<path d="M25.3034 22.4889C25.2629 22.6751 25.1523 22.8098 25.0567 22.7893C24.9611 22.7689 24.9167 22.6013 24.9576 22.4147C24.998 22.2285 25.1087 22.0938 25.2043 22.1142C25.2998 22.1347 25.3443 22.3022 25.3034 22.4889Z" fill="#332418"/>
<path d="M25.5674 22.2449C25.275 22.1551 24.8296 22.1125 24.8252 22.112L24.8332 22.0298C24.8519 22.0316 25.2914 22.0738 25.5923 22.1662L25.5674 22.2449Z" fill="#332418"/>
<path d="M21.7662 22.032C21.7467 22.2218 21.8098 22.3836 21.9071 22.3934C22.0045 22.4031 22.0991 22.2574 22.1183 22.0676C22.1378 21.8778 22.0747 21.716 21.9774 21.7063C21.88 21.696 21.7858 21.8423 21.7662 22.032Z" fill="#332418"/>
<path d="M22.3394 21.82C22.3349 21.8191 21.898 21.7236 21.5918 21.7191L21.5931 21.6369C21.9082 21.6413 22.3394 21.7356 22.3576 21.7396L22.3394 21.82Z" fill="#332418"/>
<path d="M26.1351 21.4111C26.1285 21.4111 26.1222 21.4098 26.1156 21.4076C25.8342 21.3031 24.8489 21.1978 24.8387 21.1965C24.8085 21.1934 24.7862 21.1663 24.7894 21.136C24.7925 21.1058 24.8209 21.0845 24.8502 21.0871C24.8911 21.0916 25.86 21.1951 26.1542 21.3045C26.1827 21.3151 26.1974 21.3467 26.1867 21.3751C26.1787 21.3978 26.1574 21.4111 26.1351 21.4111Z" fill="#332418"/>
<path d="M22.8549 20.9373C22.8509 20.9373 22.8469 20.9369 22.8429 20.936C22.8331 20.9338 21.8656 20.7262 21.5642 20.736C21.5358 20.7396 21.5078 20.7133 21.5069 20.6831C21.5056 20.6529 21.5296 20.6276 21.5602 20.6262C21.8736 20.6129 22.826 20.82 22.8664 20.8289C22.8962 20.8351 22.9153 20.8644 22.9087 20.8942C22.9033 20.9196 22.8802 20.9373 22.8549 20.9373Z" fill="#332418"/>
<path d="M22.7236 24.2534C22.7236 24.2534 23.1419 24.3702 23.453 24.4022C23.453 24.4022 23.1525 24.5618 22.981 24.4871C22.8094 24.4125 22.7236 24.2534 22.7236 24.2534Z" fill="#E1C0B5"/>
<path d="M23.4143 25.3013C23.4143 25.3013 22.712 25.3169 22.1183 25.3716C22.1183 25.3716 22.108 25.3302 22.3063 25.2827C22.5045 25.2351 23.308 25.2284 23.3574 25.2493L23.4143 25.3013Z" fill="#E1C0B5"/>
<path d="M25.2864 19.1307C25.2864 19.1307 25.501 18.0894 24.6646 18.068C23.8281 18.0467 23.837 19.1596 23.5277 19.6409C23.2273 20.1085 22.4126 20.7885 21.4041 21.0222C20.3961 21.256 19.8668 21.9858 19.6024 22.9351C19.3379 23.8845 19.5379 26.1871 20.0957 26.8458C20.0957 26.8458 20.2028 26.9947 20.0099 27.016C19.817 27.0374 18.7873 25.4858 18.6157 24.1254C18.4441 22.7649 18.4868 17.0054 21.0179 15.4325C23.5486 13.8596 24.7286 14.6462 25.1788 15.156C25.6295 15.6662 25.7153 17.5156 25.2864 19.1307Z" fill="#332418"/>
<path d="M25.2861 19.1306C25.2861 19.1306 26.1439 18.8826 26.7875 19.336C27.431 19.7893 27.6452 20.2289 27.6452 20.2289C27.6452 20.2289 27.7168 19.2089 27.5021 18.812C27.2875 18.4151 27.159 17.9333 26.6728 17.8626C26.1866 17.792 25.915 17.6924 25.6435 17.9195C25.3719 18.1462 25.4719 18.4582 25.4719 18.4582L25.2861 19.1306Z" fill="#332418"/>
<path d="M25.2861 19.1307C25.2861 19.1307 25.6937 18.2378 26.3799 18.1529C27.0661 18.068 27.3452 19.0458 27.4737 19.428C27.6026 19.8107 27.3666 22.616 26.6586 24.4227C26.6586 24.4227 27.9168 22.2191 28.1172 19.9805C28.2852 18.1 27.9457 14.688 25.2217 15.4533C25.2217 15.4538 25.6506 17.6218 25.2861 19.1307Z" fill="#332418"/>
<path d="M21.8233 28.4102C21.8095 28.4102 21.7953 28.4053 21.7846 28.3946C21.4899 28.112 21.2331 27.332 21.2224 27.2986C21.2131 27.2698 21.2291 27.2391 21.2579 27.2298C21.2873 27.2204 21.3184 27.236 21.3277 27.2653C21.3304 27.2729 21.5868 28.0524 21.8615 28.316C21.8837 28.3369 21.8842 28.372 21.8628 28.3938C21.8522 28.4044 21.8379 28.4102 21.8233 28.4102Z" fill="#E1C0B5"/>
<path d="M20.375 25.0396C20.0532 25.0822 18.5519 25.8684 18.5519 25.8684C18.4999 26.1427 18.5044 26.5578 18.5377 27.0169C19.0848 27.7422 19.8137 28.6022 20.6546 29.328L21.2755 29.1418C20.375 27.5262 20.375 25.0396 20.375 25.0396Z" fill="white"/>
<path d="M25.6509 29.7067C25.6416 29.7067 25.6318 29.704 25.6229 29.6991C25.5967 29.684 25.5878 29.6502 25.6034 29.624C26.2363 28.5573 26.794 26.8884 26.7994 26.8716C26.8092 26.8427 26.8407 26.8271 26.8696 26.8364C26.8985 26.8458 26.9145 26.8769 26.9052 26.9058C26.8994 26.9227 26.338 28.6031 25.6989 29.6796C25.6887 29.6969 25.67 29.7067 25.6509 29.7067Z" fill="#585655"/>
<path d="M30.1403 25.7694C30.1403 25.7694 29.3967 25.5 29.0536 25.2169C28.7105 24.9334 28.4389 24.4378 28.3385 24.3525C28.2385 24.2676 27.0229 24.0547 26.9087 23.9698C26.7945 23.8849 26.7087 23.6582 26.7798 23.5871C26.8514 23.5165 27.2087 23.3605 27.6949 23.4738C28.1812 23.5871 28.4669 23.6298 28.4669 23.6298L29.2247 23.4031C29.2247 23.4031 29.8394 23.7858 30.0398 24.1542C30.2407 24.5222 30.1403 25.7694 30.1403 25.7694Z" fill="#E1C0B5"/>
<path d="M30.948 30.6507C30.948 30.6507 30.3475 26.4636 30.3262 26.3574C30.3049 26.2511 29.8542 25.1031 29.7257 24.572C29.7257 24.572 29.3395 23.5942 29.2324 23.4031C29.1253 23.212 27.0662 21.2991 27.0017 21.1502C26.9373 21.0014 26.916 20.8102 27.1306 20.7676C27.1306 20.7676 26.852 20.5125 26.9591 20.3214C27.0662 20.1302 27.1737 20.1302 27.1737 20.1302C27.1737 20.1302 26.9591 19.7689 27.1737 19.6627C27.3884 19.5565 29.104 21.0018 29.104 21.0018C29.104 21.0018 30.9271 22.256 31.1844 22.4471C31.4417 22.6382 31.9564 23.5098 32.064 23.956C32.1711 24.4022 32.1711 26.3578 32.1711 26.3578L33.8653 30.736L30.948 30.6507Z" fill="#F9DACE"/>
<path d="M29.2539 22.5516C29.2441 22.5516 29.2343 22.5485 29.2268 22.5414L27.3072 20.8836C27.2899 20.8685 27.2881 20.8427 27.3032 20.8254C27.3183 20.808 27.3446 20.8067 27.3619 20.8214L29.2815 22.4791C29.2988 22.4943 29.3006 22.52 29.2855 22.5374C29.277 22.5467 29.2655 22.5516 29.2539 22.5516Z" fill="#E1C0B5"/>
<path d="M29.3072 21.8609C29.2974 21.8609 29.2881 21.8578 29.2801 21.8511L27.4676 20.3102C27.4503 20.2956 27.4481 20.2693 27.4632 20.252C27.4783 20.2347 27.5045 20.2329 27.5219 20.2476L29.3343 21.7884C29.3516 21.8031 29.3539 21.8293 29.3388 21.8467C29.3308 21.856 29.3192 21.8609 29.3072 21.8609Z" fill="#E1C0B5"/>
<path d="M30.2728 22.0307C30.2639 22.0307 30.255 22.028 30.2474 22.0222L29.4861 21.4484C29.4679 21.4347 29.4643 21.4089 29.4781 21.3907C29.4923 21.3724 29.5181 21.3689 29.5363 21.3827L30.2977 21.9564C30.3159 21.9702 30.3194 21.996 30.3057 22.0142C30.2977 22.0253 30.2852 22.0307 30.2728 22.0307Z" fill="#E1C0B5"/>
<path d="M27.5662 21.7862C27.5564 21.7862 27.5462 21.7827 27.5382 21.7756C27.4844 21.7276 27.0133 21.3022 26.9613 21.1262C26.9231 20.996 26.9249 20.8987 26.9671 20.8285C26.988 20.7938 27.0182 20.7671 27.0569 20.7485C26.9857 20.6631 26.8595 20.4787 26.9186 20.3076C26.9675 20.1662 27.0488 20.1156 27.1071 20.0978C27.0564 19.9978 26.9724 19.7902 27.0906 19.6845C27.1075 19.6694 27.1337 19.6702 27.1493 19.6871C27.1649 19.704 27.1635 19.7302 27.1466 19.7454C27.0622 19.8209 27.1653 20.0382 27.208 20.1085C27.216 20.1218 27.216 20.1387 27.2075 20.1516C27.1991 20.1649 27.1835 20.1725 27.1684 20.1707C27.1644 20.1707 27.0564 20.1649 26.9973 20.3342C26.9351 20.5134 27.1569 20.7356 27.1591 20.7382C27.1697 20.7489 27.1737 20.7645 27.1697 20.7791C27.1653 20.7938 27.1537 20.8045 27.1386 20.8076C27.0902 20.8178 27.0577 20.8387 27.0386 20.8702C27.0093 20.9191 27.0102 20.9974 27.0413 21.1031C27.0795 21.2334 27.4533 21.5889 27.5942 21.7147C27.6111 21.7298 27.6124 21.756 27.5973 21.7729C27.5889 21.7818 27.5777 21.7862 27.5662 21.7862Z" fill="#E1C0B5"/>
<path d="M28.5675 22.7569C28.5569 22.7569 28.5462 22.7529 28.5382 22.7449L27.7444 21.9587C27.7284 21.9427 27.7284 21.9165 27.7444 21.9005C27.7609 21.8845 27.7871 21.8845 27.8031 21.9005L28.5969 22.6867C28.6129 22.7027 28.6129 22.7289 28.5969 22.7449C28.5889 22.7529 28.5782 22.7569 28.5675 22.7569Z" fill="#E1C0B5"/>
<path d="M31.1344 27.1C31.13 27.1 31.1251 27.0991 31.1206 27.0978C30.914 27.0245 30.6584 26.7729 30.6477 26.7622C30.6317 26.7462 30.6317 26.72 30.6477 26.704C30.6642 26.688 30.6904 26.688 30.7064 26.704C30.7091 26.7067 30.9593 26.9533 31.1486 27.02C31.1704 27.0276 31.1815 27.0511 31.174 27.0725C31.1677 27.0893 31.1517 27.1 31.1344 27.1Z" fill="#C3A097"/>
<path d="M34.2732 31.5858C34.2732 31.5858 35.0025 32.096 35.2385 32.372C35.4745 32.6485 35.7318 38.2169 35.6887 38.7485C35.6456 39.28 34.3376 40.6614 34.1229 40.8316C33.9083 41.0018 32.6003 41.044 32.3856 40.9591C32.1709 40.8743 31.3776 39.8325 31.3776 39.8325C31.3776 39.8325 31.0771 32.2871 31.0771 32.0107C31.0776 31.7347 34.2732 31.5858 34.2732 31.5858Z" fill="#5D463B"/>
<path d="M30.6914 30.608C30.6914 30.608 34.1016 29.864 34.2305 29.928C34.3594 29.9916 34.4021 31.5009 34.4021 31.6071C34.4021 31.7134 31.1847 32.2658 31.0132 32.096C30.8416 31.9258 30.6914 30.608 30.6914 30.608Z" fill="#5D463B"/>
<path d="M31.2487 32.172C31.2202 32.172 31.1958 32.1503 31.1936 32.1218C31.1909 32.0916 31.2136 32.0649 31.2442 32.0627C31.2598 32.0614 32.8202 31.932 34.0456 31.6392C34.0758 31.6312 34.1051 31.6503 34.1122 31.6796C34.1194 31.7089 34.1011 31.7387 34.0714 31.7458C32.8376 32.0409 31.2687 32.1712 31.2531 32.1725C31.2518 32.172 31.25 32.172 31.2487 32.172Z" fill="#332418"/>
<path d="M33.5869 33.5325C33.5571 33.5325 33.5326 33.5093 33.5313 33.4796L33.4668 31.8218C33.4655 31.7916 33.4895 31.7658 33.5202 31.7649C33.5509 31.7645 33.5766 31.7876 33.5775 31.8178L33.642 33.4756C33.6433 33.5058 33.6193 33.5316 33.5886 33.5325C33.5882 33.5325 33.5877 33.5325 33.5869 33.5325Z" fill="#332418"/>
<path d="M33.2649 32.7249C33.2422 32.7249 33.2209 32.7112 33.2129 32.6889L32.9556 31.9876C32.9449 31.9592 32.96 31.9276 32.9885 31.9174C33.0174 31.9072 33.0489 31.9218 33.0596 31.9503L33.3169 32.6516C33.3276 32.68 33.3125 32.7116 33.284 32.7218C33.2778 32.7236 33.2711 32.7249 33.2649 32.7249Z" fill="#332418"/>
<path d="M22.57 29.0707H12.7753C12.3397 29.0707 11.9997 29.4445 12.0451 29.8738L13.1895 40.7507C13.2064 40.9093 13.3411 41.0298 13.502 41.0298H22.57H31.6384C31.7993 41.0298 31.9344 40.9093 31.9509 40.7507L33.0953 29.8738C33.1406 29.4445 32.8006 29.0707 32.3651 29.0707H22.57Z" fill="#6C5B50"/>
<path d="M31.6384 41.0298C31.7993 41.0298 31.9344 40.9093 31.9509 40.7507L32.9104 31.6311C29.2598 33.3431 21.3224 36.7231 12.9131 38.124L13.1895 40.7507C13.2064 40.9093 13.3411 41.0298 13.502 41.0298H31.6384Z" fill="#5E4E45"/>
<path d="M20.9688 33.6511V36.4498H24.1719V33.6511H20.9688ZM23.7283 36.0102H21.4119V34.0902H23.7283V36.0102Z" fill="#E4F1F6"/>
<path d="M1.60742 13.2916V23.9498C1.60742 24.3285 1.9172 24.6356 2.29942 24.6356H10.7208C10.931 24.6356 11.1301 24.7303 11.2612 24.8929L12.1652 26.0129C12.3199 26.2045 12.6319 26.0961 12.6319 25.8507V24.6356V13.2916C12.6319 12.9129 12.3221 12.6058 11.9399 12.6058H2.29987C1.91764 12.6058 1.60742 12.9129 1.60742 13.2916Z" fill="white"/>
<path d="M1.60742 13.2916V23.9498C1.60742 24.3285 1.9172 24.6356 2.29942 24.6356H10.7208C10.931 24.6356 11.1301 24.7303 11.2612 24.8929L12.1652 26.0129C12.3199 26.2045 12.6319 26.0961 12.6319 25.8507V24.6356V13.2916C12.6319 12.9129 12.3221 12.6058 11.9399 12.6058H2.29987C1.91764 12.6058 1.60742 12.9129 1.60742 13.2916Z" stroke="#6A5649" stroke-width="3" stroke-miterlimit="10"/>
<path d="M3.17759 15.2685L3.51448 15.4441C3.56248 15.469 3.61892 15.4285 3.60959 15.3756L3.54514 15.0036C3.54159 14.9827 3.5487 14.961 3.56381 14.9463L3.83625 14.6827C3.87537 14.645 3.85359 14.5796 3.79981 14.5716L3.42292 14.5174C3.40159 14.5143 3.38292 14.501 3.37359 14.4819L3.20514 14.1436C3.18114 14.0952 3.11137 14.0952 3.08737 14.1436L2.91892 14.4819C2.90914 14.501 2.89092 14.5143 2.86959 14.5174L2.4927 14.5716C2.43892 14.5792 2.41759 14.645 2.45625 14.6827L2.7287 14.9463C2.74425 14.9614 2.75137 14.9827 2.74737 15.0036L2.68292 15.3756C2.67359 15.429 2.73003 15.4694 2.77803 15.4441L3.11492 15.2685C3.13581 15.2587 3.15848 15.2587 3.17759 15.2685Z" fill="#7E6C5E"/>
<path d="M5.06528 15.2685L5.40217 15.4441C5.45017 15.469 5.50662 15.4285 5.49728 15.3756L5.43284 15.0036C5.42928 14.9827 5.43639 14.961 5.45151 14.9463L5.72395 14.6827C5.76306 14.645 5.74128 14.5796 5.68751 14.5716L5.31062 14.5174C5.28928 14.5143 5.27062 14.501 5.26128 14.4819L5.09284 14.1436C5.06884 14.0952 4.99906 14.0952 4.97506 14.1436L4.80662 14.4819C4.79728 14.501 4.77862 14.5143 4.75728 14.5174L4.38039 14.5716C4.32662 14.5792 4.30528 14.645 4.34395 14.6827L4.61639 14.9463C4.63195 14.9614 4.63906 14.9827 4.63506 15.0036L4.57062 15.3756C4.56128 15.429 4.61773 15.4694 4.66573 15.4441L5.00262 15.2685C5.02306 15.2587 5.04617 15.2587 5.06528 15.2685Z" fill="#9E8777"/>
<path d="M6.952 15.2685L7.28889 15.4441C7.33689 15.469 7.39334 15.4285 7.384 15.3756L7.31956 15.0036C7.316 14.9827 7.32311 14.961 7.33822 14.9463L7.61067 14.6827C7.64978 14.645 7.628 14.5796 7.57422 14.5716L7.19734 14.5174C7.176 14.5143 7.15734 14.501 7.148 14.4819L6.97956 14.1436C6.95556 14.0952 6.88578 14.0952 6.86178 14.1436L6.69334 14.4819C6.684 14.501 6.66534 14.5143 6.644 14.5174L6.26711 14.5716C6.21334 14.5792 6.192 14.645 6.23067 14.6827L6.50311 14.9463C6.51867 14.9614 6.52578 14.9827 6.52178 15.0036L6.45734 15.3756C6.448 15.429 6.50445 15.4694 6.55245 15.4441L6.88934 15.2685C6.91022 15.2587 6.93289 15.2587 6.952 15.2685Z" fill="#9E8777"/>
<path d="M8.8397 15.2685L9.17659 15.4441C9.22459 15.469 9.28103 15.4285 9.2717 15.3756L9.20725 15.0036C9.2037 14.9827 9.21081 14.961 9.22592 14.9463L9.49836 14.6827C9.53748 14.645 9.5157 14.5796 9.46192 14.5716L9.08503 14.5174C9.0637 14.5143 9.04503 14.501 9.0357 14.4819L8.86725 14.1436C8.84325 14.0952 8.77348 14.0952 8.74948 14.1436L8.58103 14.4819C8.57125 14.501 8.55303 14.5143 8.5317 14.5174L8.15481 14.5716C8.10103 14.5792 8.0797 14.645 8.11836 14.6827L8.39081 14.9463C8.40636 14.9614 8.41348 14.9827 8.40948 15.0036L8.34503 15.3756C8.3357 15.429 8.39214 15.4694 8.44014 15.4441L8.77703 15.2685C8.79792 15.2587 8.82059 15.2587 8.8397 15.2685Z" fill="#9E8777"/>
<path d="M10.7274 15.2685L11.0643 15.4441C11.1123 15.469 11.1687 15.4285 11.1594 15.3756L11.0949 15.0036C11.0914 14.9827 11.0985 14.961 11.1136 14.9463L11.3861 14.6827C11.4252 14.645 11.4034 14.5796 11.3496 14.5716L10.9727 14.5174C10.9514 14.5143 10.9327 14.501 10.9234 14.4819L10.7549 14.1436C10.7309 14.0952 10.6612 14.0952 10.6372 14.1436L10.4687 14.4819C10.4594 14.501 10.4407 14.5143 10.4194 14.5174L10.0425 14.5716C9.98873 14.5792 9.96739 14.645 10.0061 14.6827L10.2785 14.9463C10.2941 14.9614 10.3012 14.9827 10.2972 15.0036L10.2327 15.3756C10.2234 15.429 10.2798 15.4694 10.3278 15.4441L10.6647 15.2685C10.6856 15.2587 10.7083 15.2587 10.7274 15.2685Z" fill="#9E8777"/>
<path d="M11.6328 17.6431H2.67235C2.61769 17.6431 2.57324 17.5987 2.57324 17.544V17.2529C2.57324 17.1983 2.61769 17.1538 2.67235 17.1538H11.6328C11.6875 17.1538 11.7319 17.1983 11.7319 17.2529V17.544C11.7315 17.5987 11.6875 17.6431 11.6328 17.6431Z" fill="#917A69"/>
<path d="M10.3315 18.7058H2.67235C2.61769 18.7058 2.57324 18.6614 2.57324 18.6067V18.3156C2.57324 18.2609 2.61769 18.2165 2.67235 18.2165H10.3319C10.3866 18.2165 10.431 18.2609 10.431 18.3156V18.6067C10.4306 18.6614 10.3861 18.7058 10.3315 18.7058Z" fill="#917A69"/>
<path d="M11.6328 19.7684H2.67235C2.61769 19.7684 2.57324 19.724 2.57324 19.6693V19.3782C2.57324 19.3236 2.61769 19.2791 2.67235 19.2791H11.6328C11.6875 19.2791 11.7319 19.3236 11.7319 19.3782V19.6693C11.7315 19.724 11.6875 19.7684 11.6328 19.7684Z" fill="#917A69"/>
<path d="M10.4746 20.8311H2.67235C2.61769 20.8311 2.57324 20.7867 2.57324 20.732V20.4409C2.57324 20.3862 2.61769 20.3418 2.67235 20.3418H10.4746C10.5292 20.3418 10.5737 20.3862 10.5737 20.4409V20.732C10.5737 20.7867 10.5292 20.8311 10.4746 20.8311Z" fill="#917A69"/>
<path d="M8.54435 21.8938H2.67235C2.61769 21.8938 2.57324 21.8494 2.57324 21.7947V21.5036C2.57324 21.4489 2.61769 21.4045 2.67235 21.4045H8.54435C8.59902 21.4045 8.64346 21.4489 8.64346 21.5036V21.7947C8.64302 21.8498 8.59902 21.8938 8.54435 21.8938Z" fill="#917A69"/>
<path d="M10.9608 22.9565H2.67235C2.61769 22.9565 2.57324 22.9121 2.57324 22.8574V22.5663C2.57324 22.5116 2.61769 22.4672 2.67235 22.4672H10.9608C11.0155 22.4672 11.0599 22.5116 11.0599 22.5663V22.8574C11.0595 22.9125 11.0155 22.9565 10.9608 22.9565Z" fill="#917A69"/>
<path d="M38.863 36.7507C38.863 36.7507 37.3186 36.432 36.8253 37.6858C36.3319 38.9396 37.9621 40.1302 38.9488 39.9813L38.9275 39.0676C38.9275 39.0676 37.2115 38.7702 37.4906 37.92C37.7693 37.0698 38.9061 37.516 38.9061 37.516L38.863 36.7507Z" fill="#5E4E45"/>
<path d="M43.154 35.3627H38.7051C38.6069 35.3627 38.5273 35.4422 38.5273 35.5404V40.832H43.3318V35.54C43.3313 35.4422 43.2518 35.3627 43.154 35.3627Z" fill="#5E4E45"/>
<path d="M42.6595 40.3675C42.5982 40.3675 42.5488 40.3182 42.5488 40.2578V36.3893C42.5488 36.3284 42.5986 36.2795 42.6595 36.2795C42.7208 36.2795 42.7702 36.3289 42.7702 36.3893V40.2578C42.7706 40.3182 42.7208 40.3675 42.6595 40.3675Z" fill="#E4F1F6"/>
<path d="M42.0374 38.9222C41.9761 38.9222 41.9268 38.8729 41.9268 38.8124V36.3467C41.9268 36.2858 41.9765 36.2369 42.0374 36.2369C42.0988 36.2369 42.1481 36.2862 42.1481 36.3467V38.8124C42.1481 38.8729 42.0988 38.9222 42.0374 38.9222Z" fill="#E4F1F6"/>
<path d="M47.6913 43.3396H0.1126C-0.0580668 43.3396 -0.196289 43.2014 -0.196289 43.0307V41.1405C-0.196289 40.9698 -0.0580668 40.8316 0.1126 40.8316H47.6908C47.8615 40.8316 47.9997 40.9698 47.9997 41.1405V43.0307C48.0002 43.2014 47.8619 43.3396 47.6913 43.3396Z" fill="#6C5B50"/>
<path d="M7.60661 42.7249H4.65017C4.55328 42.7249 4.47461 42.6511 4.47461 42.56C4.47461 42.4689 4.55328 42.3951 4.65017 42.3951H7.60661C7.7035 42.3951 7.78216 42.4689 7.78216 42.56C7.78216 42.6511 7.7035 42.7249 7.60661 42.7249Z" fill="#E4F1F6"/>
<path d="M46.1636 42.7249H11.1062C11.0093 42.7249 10.9307 42.6511 10.9307 42.56C10.9307 42.4689 11.0093 42.3951 11.1062 42.3951H46.1636C46.2604 42.3951 46.3387 42.4689 46.3387 42.56C46.3387 42.6511 46.26 42.7249 46.1636 42.7249Z" fill="#E4F1F6"/>
<path d="M40.7184 27.0769C40.7184 27.0769 40.9028 26.9245 41.1028 26.9094C41.3028 26.8943 43.6406 26.9094 43.6406 26.9094C43.6406 26.9094 43.8713 27.0467 43.8406 27.2294C43.81 27.412 43.6562 27.6103 43.6562 27.6103C43.6562 27.6103 43.9793 27.732 44.01 27.8694C44.0406 28.0067 43.8255 28.2503 43.8255 28.2503C43.8255 28.2503 44.1331 28.2654 44.1793 28.4636C44.2255 28.6618 43.9486 28.9667 43.9486 28.9667C43.9486 28.9667 44.1637 29.0734 44.1793 29.2565C44.1948 29.4391 43.9793 29.668 43.8562 29.6831C43.7331 29.6983 42.1184 29.6831 42.1184 29.6831C42.1184 29.6831 42.4415 30.2929 42.4722 30.4756C42.5028 30.6583 42.2415 31.2987 41.9953 31.3596C41.7491 31.4205 41.5646 31.3138 41.5646 31.3138C41.5646 31.3138 41.5491 30.5063 41.5491 30.4605C41.5491 30.4147 41.134 29.2565 40.7953 29.1423C40.4571 29.0276 40.7184 27.0769 40.7184 27.0769Z" fill="#F9DACE"/>
<path d="M40.653 29.3934H39.3068C39.2286 29.3934 39.165 29.3298 39.165 29.2516V26.8534C39.165 26.7752 39.2286 26.7116 39.3068 26.7116H40.653C40.7313 26.7116 40.7948 26.7752 40.7948 26.8534V29.2516C40.7948 29.3298 40.7313 29.3934 40.653 29.3934Z" fill="#9E8777"/>
<path d="M40.4306 28.0489C40.3999 28.0489 40.375 28.0245 40.375 27.9943V27.0801C40.375 27.0498 40.3999 27.0254 40.4306 27.0254C40.4612 27.0254 40.4861 27.0498 40.4861 27.0801V27.9938C40.4857 28.0241 40.4612 28.0489 40.4306 28.0489Z" fill="#E4F1F6"/>
<path d="M40.4306 28.7289C40.3999 28.7289 40.375 28.7045 40.375 28.6742V28.3663C40.375 28.336 40.3999 28.3116 40.4306 28.3116C40.4612 28.3116 40.4861 28.336 40.4861 28.3663V28.6742C40.4857 28.7045 40.4612 28.7289 40.4306 28.7289Z" fill="#E4F1F6"/>
<path d="M18.2542 8.48759C18.1742 8.39604 18.0342 8.38581 17.9418 8.46537L17.2431 9.06493V7.22181C17.2431 7.10048 17.144 7.00226 17.0213 7.00226C16.8987 7.00226 16.7996 7.10048 16.7996 7.22181V9.06493L16.1009 8.46537C16.0084 8.38581 15.8684 8.39604 15.7884 8.48759C15.7084 8.57915 15.7182 8.71781 15.8111 8.79737L16.8764 9.71115C16.88 9.71426 16.884 9.71648 16.8876 9.71915C16.8929 9.72315 16.8978 9.72715 16.9036 9.73026C16.9102 9.73426 16.9169 9.73781 16.9236 9.74092C16.9289 9.74359 16.9342 9.74626 16.94 9.74848C16.948 9.75159 16.956 9.75381 16.9644 9.75604C16.9693 9.75737 16.9747 9.75915 16.9796 9.76004C16.9933 9.7627 17.0071 9.76404 17.0213 9.76404C17.0356 9.76404 17.0493 9.7627 17.0631 9.76004C17.0684 9.75915 17.0733 9.75737 17.0782 9.75604C17.0862 9.75381 17.0947 9.75159 17.1027 9.74848C17.1084 9.74626 17.1138 9.74359 17.1191 9.74092C17.1258 9.73737 17.1329 9.73426 17.1391 9.73026C17.1444 9.7267 17.1498 9.7227 17.1551 9.71915C17.1587 9.71648 17.1627 9.71426 17.1662 9.71115L18.2316 8.79737C18.3244 8.71781 18.3342 8.57915 18.2542 8.48759Z" fill="white"/>
<path d="M1.75285 27.7338C1.68351 27.6542 1.56174 27.6453 1.48129 27.7142L0.874624 28.2347V26.6338C0.874624 26.5285 0.788402 26.4431 0.68218 26.4431C0.575957 26.4431 0.489735 26.5285 0.489735 26.6338V28.2347L-0.116932 27.7142C-0.197376 27.6453 -0.318709 27.6538 -0.388487 27.7338C-0.458265 27.8133 -0.449376 27.9338 -0.368932 28.0027L0.556402 28.7964C0.557735 28.7978 0.559513 28.7982 0.561291 28.7991C0.576846 28.812 0.594624 28.8222 0.613735 28.8298C0.616402 28.8307 0.619068 28.8311 0.621735 28.832C0.640846 28.8382 0.661291 28.8427 0.682624 28.8427C0.703957 28.8427 0.724402 28.8382 0.743513 28.832C0.74618 28.8311 0.748846 28.8307 0.751513 28.8298C0.770624 28.8222 0.788402 28.812 0.803957 28.7991C0.805291 28.7978 0.807068 28.7978 0.808846 28.7964L1.73418 28.0027C1.81374 27.9338 1.82218 27.8133 1.75285 27.7338Z" fill="white"/>
<path d="M47.2478 36.48C47.178 36.4 47.0562 36.3916 46.9762 36.4604L46.3696 36.9809V35.38C46.3696 35.2747 46.2833 35.1893 46.1771 35.1893C46.0709 35.1893 45.9847 35.2747 45.9847 35.38V36.9809L45.378 36.4604C45.2976 36.3916 45.1762 36.4 45.1064 36.48C45.0371 36.5596 45.0456 36.68 45.126 36.7489L46.0513 37.5427C46.0527 37.544 46.0544 37.5444 46.0562 37.5453C46.0718 37.5582 46.0896 37.5684 46.1087 37.576C46.1113 37.5769 46.114 37.5773 46.1167 37.5782C46.1358 37.5844 46.1562 37.5889 46.1776 37.5889C46.1989 37.5889 46.2193 37.5844 46.2384 37.5782C46.2411 37.5773 46.2438 37.5769 46.2465 37.576C46.2656 37.5684 46.2833 37.5582 46.2989 37.5453C46.3002 37.544 46.302 37.544 46.3038 37.5427L47.2291 36.7489C47.3087 36.68 47.3171 36.5596 47.2478 36.48Z" fill="#9E8777"/>
<path d="M4.07052 37.468C3.97852 37.468 3.9043 37.3943 3.9043 37.3032V35.0503C3.9043 34.9592 3.97852 34.8854 4.07052 34.8854C4.16252 34.8854 4.23674 34.9592 4.23674 35.0503V37.3032C4.23674 37.3943 4.16252 37.468 4.07052 37.468Z" fill="#9E8777"/>
<path d="M5.18185 36.4952C5.08985 36.4952 5.01562 36.4214 5.01562 36.3303V35.0503C5.01562 34.9592 5.08985 34.8854 5.18185 34.8854C5.27385 34.8854 5.34807 34.9592 5.34807 35.0503V36.3303C5.34807 36.4214 5.2734 36.4952 5.18185 36.4952Z" fill="white"/>
<path d="M45.2863 31.5431C45.1948 31.5431 45.1201 31.4693 45.1201 31.3782V26.6618C45.1201 26.5707 45.1943 26.4969 45.2863 26.4969C45.3779 26.4969 45.4526 26.5707 45.4526 26.6618V31.3782C45.4526 31.4693 45.3783 31.5431 45.2863 31.5431Z" fill="#9E8777"/>
<path d="M46.5061 33.2845C46.4145 33.2845 46.3398 33.2107 46.3398 33.1196V30.3316C46.3398 30.2405 46.4141 30.1667 46.5061 30.1667C46.5976 30.1667 46.6723 30.2405 46.6723 30.3316V33.1196C46.6723 33.2107 46.5976 33.2845 46.5061 33.2845Z" fill="#9E8777"/>
<path d="M35.6936 6.73425C35.602 6.73425 35.5273 6.66047 35.5273 6.56936V4.81247C35.5273 4.72136 35.6016 4.64758 35.6936 4.64758C35.7851 4.64758 35.8598 4.72136 35.8598 4.81247V6.56936C35.8598 6.66047 35.7851 6.73425 35.6936 6.73425Z" fill="#9E8777"/>
<path d="M7.32638 6.45071C7.23438 6.45071 7.16016 6.37693 7.16016 6.28582V5.69071C7.16016 5.5996 7.23438 5.52582 7.32638 5.52582C7.41838 5.52582 7.4926 5.5996 7.4926 5.69071V6.28582C7.4926 6.37693 7.41838 6.45071 7.32638 6.45071Z" fill="#9E8777"/>
<path d="M7.32638 9.15735C7.23438 9.15735 7.16016 9.08358 7.16016 8.99246V7.36313C7.16016 7.27202 7.23438 7.19824 7.32638 7.19824C7.41838 7.19824 7.4926 7.27202 7.4926 7.36313V8.99246C7.4926 9.08358 7.41838 9.15735 7.32638 9.15735Z" fill="#9E8777"/>
<path d="M9.52267 8.02091C9.43067 8.02091 9.35645 7.94713 9.35645 7.85602V5.69113C9.35645 5.60002 9.43067 5.52625 9.52267 5.52625C9.61467 5.52625 9.68889 5.60002 9.68889 5.69113V7.85602C9.68933 7.94713 9.61467 8.02091 9.52267 8.02091Z" fill="white"/>
<path d="M32.1496 16.7382C32.0581 16.7382 31.9834 16.6645 31.9834 16.5733V14.5022C31.9834 14.4111 32.0576 14.3373 32.1496 14.3373C32.2412 14.3373 32.3158 14.4111 32.3158 14.5022V16.5733C32.3158 16.6645 32.2412 16.7382 32.1496 16.7382Z" fill="white"/>
<path d="M32.1496 17.9436C32.0581 17.9436 31.9834 17.8698 31.9834 17.7787V17.3667C31.9834 17.2756 32.0576 17.2018 32.1496 17.2018C32.2412 17.2018 32.3158 17.2756 32.3158 17.3667V17.7787C32.3158 17.8698 32.2412 17.9436 32.1496 17.9436Z" fill="white"/>
<path d="M14.1906 17.7209C14.0986 17.7209 14.0244 17.6472 14.0244 17.556V15.5138C14.0244 15.4227 14.0986 15.3489 14.1906 15.3489C14.2826 15.3489 14.3569 15.4227 14.3569 15.5138V17.556C14.3569 17.6472 14.2826 17.7209 14.1906 17.7209Z" fill="white"/>
<path d="M45.834 9.34979H34.166C33.846 9.34979 33.5869 9.60668 33.5869 9.92357V22.7822V24.7276C33.5869 24.9338 33.8394 25.036 33.9851 24.8893L35.9078 22.9538C36.0167 22.844 36.1651 22.7827 36.3207 22.7827H45.8336C46.1536 22.7827 46.4127 22.5258 46.4127 22.2089V9.92357C46.4127 9.60668 46.1536 9.34979 45.834 9.34979Z" stroke="white" stroke-width="1.0497" stroke-miterlimit="10"/>
<path d="M45.5977 8.99249H33.9297C33.6097 8.99249 33.3506 9.24938 33.3506 9.56627V22.4254V24.3707C33.3506 24.5769 33.603 24.6792 33.7488 24.5325L35.6715 22.5969C35.7804 22.4872 35.9288 22.4258 36.0844 22.4258H45.5973C45.9173 22.4258 46.1764 22.1689 46.1764 21.852V9.56627C46.1768 9.24938 45.9173 8.99249 45.5977 8.99249Z" fill="white" stroke="#4B3D32" stroke-width="3" stroke-miterlimit="10"/>
<path d="M29.8202 14.7956C29.7375 14.7956 29.6651 14.736 29.6522 14.6525C29.6082 14.3672 29.4975 14.1698 29.3242 14.0667C29.0211 13.8863 28.6038 14.028 28.5993 14.0294C28.5109 14.0596 28.4135 14.0143 28.382 13.9263C28.3504 13.8387 28.3967 13.7423 28.4851 13.7112C28.5082 13.7032 29.0544 13.5143 29.4971 13.7756C29.7629 13.9325 29.9287 14.2103 29.9891 14.6009C30.0033 14.6929 29.9398 14.7792 29.8464 14.7934C29.8375 14.7947 29.8291 14.7956 29.8202 14.7956Z" fill="#6C5B50"/>
<path d="M30.5399 14.7689C30.4701 14.7689 30.4048 14.7262 30.3799 14.6569C30.3715 14.6342 30.1813 14.0929 30.4448 13.6542C30.6035 13.3907 30.8835 13.2267 31.2777 13.1667C31.3706 13.1529 31.4577 13.2156 31.4719 13.308C31.4861 13.4 31.4226 13.4862 31.3293 13.5005C31.0413 13.544 30.8421 13.6538 30.7381 13.8258C30.5564 14.1262 30.699 14.5396 30.7008 14.544C30.7319 14.6316 30.6853 14.728 30.5968 14.7591C30.5781 14.7658 30.559 14.7689 30.5399 14.7689Z" fill="#6C5B50"/>
<path d="M30.8697 12.8529C30.6981 12.8529 30.5017 12.8209 30.3221 12.7151C30.0563 12.5578 29.8906 12.2805 29.8301 11.8898C29.8159 11.7978 29.8794 11.7116 29.9728 11.6974C30.0657 11.684 30.1528 11.7462 30.167 11.8387C30.211 12.124 30.3217 12.3214 30.4954 12.4245C30.7986 12.6049 31.2159 12.4631 31.2199 12.4618C31.3088 12.4311 31.4057 12.4769 31.4372 12.5645C31.4688 12.652 31.4226 12.7485 31.3341 12.7796C31.3203 12.7845 31.1217 12.8529 30.8697 12.8529Z" fill="#6C5B50"/>
<path d="M28.5157 13.3258C28.433 13.3258 28.3606 13.2663 28.3477 13.1827C28.3335 13.0907 28.397 13.0045 28.4904 12.9903C28.7784 12.9467 28.9775 12.8369 29.0815 12.6649C29.2632 12.3645 29.1206 11.9512 29.1188 11.9467C29.0877 11.8592 29.1344 11.7627 29.2228 11.7316C29.3117 11.7005 29.4086 11.7458 29.4401 11.8338C29.4486 11.8565 29.6388 12.3978 29.3752 12.8365C29.2166 13.1 28.9366 13.264 28.5424 13.324C28.533 13.3254 28.5241 13.3258 28.5157 13.3258Z" fill="#6C5B50"/>
<path d="M39.9077 11.5182C37.8824 11.5182 36.2344 13.1511 36.2344 15.1582C36.2344 17.1654 37.8819 18.7982 39.9077 18.7982C41.9335 18.7982 43.581 17.1654 43.581 15.1582C43.581 13.1511 41.933 11.5182 39.9077 11.5182Z" fill="#6C5B50"/>
<path d="M38.8063 16.3191L36.6543 16.844C37.269 18.0044 38.4965 18.7978 39.9081 18.7978C41.2356 18.7978 42.401 18.096 43.0463 17.0475L40.9227 16.4231L38.8063 16.3191Z" fill="#9E8777"/>
<path d="M41.5274 16.6009L40.923 16.4231L38.8065 16.3187L38.4639 16.4022C38.4679 16.7702 38.603 17.6627 39.8292 17.6627C40.9488 17.6631 41.3763 16.9778 41.5274 16.6009Z" fill="#F9DACE"/>
<path d="M40.9812 16.6267L40.1887 16.8849L38.7656 16.5733L38.883 15.8409L38.9038 15.7107L38.9398 15.4858H40.8625L40.9114 15.964L40.9203 16.0458L40.9812 16.6267Z" fill="#F9DACE"/>
<path d="M40.9196 16.0458C40.7005 16.2418 40.3841 16.4373 39.9761 16.4658C39.4001 16.5067 39.0489 16.1044 38.8818 15.8409L38.9027 15.7107L38.9387 15.4858H40.8614L40.9107 15.964L40.9196 16.0458Z" fill="#DEC5BE"/>
<path d="M38.5226 13.6311C38.5226 13.6311 38.2546 13.4302 38.1386 13.6955C38.0226 13.9609 38.1893 14.5351 38.5946 14.6644C38.5951 14.6644 38.7253 14.1262 38.5226 13.6311Z" fill="#DEC5BE"/>
<path d="M41.5347 13.6169C41.5347 13.6169 41.7738 13.3729 41.9111 13.5738C42.0489 13.7747 41.94 14.4422 41.4258 14.5782L41.5347 13.6169Z" fill="#DEC5BE"/>
<path d="M41.6153 12.8862C41.6175 13.468 41.5793 14.2475 41.5242 14.4747C41.438 14.8293 41.0033 15.6369 40.5793 15.9271C40.2402 16.1595 40.0584 16.1853 40.0033 16.1853C39.9495 16.1853 39.0873 15.9707 38.8193 15.4111C38.6713 15.0995 38.5948 14.9084 38.5735 14.7147C38.5735 14.7147 38.5051 13.4511 38.4824 13.2898C38.4611 13.1284 38.3095 12.3 38.9166 11.9764C39.5251 11.6538 40.6553 11.8262 40.9268 11.912C41.1984 11.9987 41.4802 12.0409 41.5677 12.2244C41.5699 12.2302 41.5722 12.2355 41.5744 12.2435C41.6006 12.3324 41.6139 12.5818 41.6153 12.8862Z" fill="#F9DACE"/>
<path d="M41.5426 13.7529C41.5426 13.7529 41.492 12.8342 41.376 12.5978L41.9338 12.3609C41.9338 12.3609 41.8106 13.0929 41.8035 13.2796C41.7964 13.4662 41.6733 13.8462 41.6733 13.8462C41.6733 13.8462 41.6373 14.3271 41.5502 14.2982C41.4631 14.2698 41.5426 13.7529 41.5426 13.7529Z" fill="#332418"/>
<path d="M38.5088 14.3413C38.5088 14.3413 38.3639 13.4947 38.3279 13.3653C38.2919 13.236 38.0888 12.1742 38.1902 11.8369C38.2915 11.4996 38.5813 11.4351 38.7839 11.4996C38.7839 11.4996 38.9288 10.7818 39.9137 10.8178C40.8986 10.8538 42.4266 10.9973 42.7884 10.832C42.7884 10.832 42.8173 10.9756 42.803 11.0973C42.7884 11.2191 42.6222 12.468 41.5795 12.6689C40.5368 12.8698 38.8857 12.2169 38.8857 12.2169C38.8857 12.2169 38.719 13.1782 38.6466 13.4942C38.6466 13.4942 38.7119 14.2764 38.6395 14.348C38.5666 14.4204 38.5519 14.4489 38.5088 14.3413Z" fill="#332418"/>
</g>
</g>
<defs>
<clipPath id="clip0_1141_49367">
<rect width="48" height="48" rx="24" fill="white"/>
</clipPath>
<clipPath id="clip1_1141_49367">
<rect width="48" height="48" fill="white"/>
</clipPath>
</defs>
</svg>
