<svg width="48" height="48" viewBox="0 0 48 48" fill="none" xmlns="http://www.w3.org/2000/svg">
<g clip-path="url(#clip0_1141_49367)">
<rect width="48" height="48" rx="24" fill="white"/>
<g clip-path="url(#clip1_1141_49367)">
<g opacity="0.55">
<path d="M51.2598 6.94537C50.1616 7.10715 48.8198 7.55782 48.2234 7.66671C45.086 8.23915 41.9416 8.74626 38.7931 9.18404C33.674 9.89604 28.5309 10.4543 23.3931 10.5658C15.7474 10.732 8.24648 9.00582 0.694478 8.10004C-1.10108 7.88448 -6.49886 6.57337 -7.40241 9.48671C-8.57397 13.2658 -8.52508 17.8049 -8.65486 21.7547C-8.79352 25.9685 -8.92819 30.1769 -8.96863 34.3858C-8.98241 35.8267 -8.8713 37.3072 -8.32863 38.5672C-7.64952 40.1445 -6.3873 40.8223 -4.97663 41.0427C-2.42508 41.4414 0.169589 41.316 2.74559 41.2165C6.2287 41.0818 9.71137 40.7636 13.19 40.4254C19.2114 39.8405 25.334 38.8503 31.362 39.0667C35.5936 39.2187 39.7558 40.0405 43.9074 40.8654C45.5887 41.1996 47.2394 41.716 48.9429 41.9085C50.3229 42.0645 52.4318 42.2152 53.5656 40.9423C54.518 39.8729 54.5567 37.3729 54.678 35.976C54.9394 32.9663 54.9718 29.9334 54.954 26.9209C54.9207 21.2756 54.8523 15.404 53.9905 9.87071C53.6985 7.99426 52.9811 6.69204 51.2598 6.94537Z" fill="#93CDA0"/>
<path d="M51.2598 6.94537C50.1616 7.10715 48.8198 7.55782 48.2234 7.66671C45.086 8.23915 41.9416 8.74626 38.7931 9.18404C33.674 9.89604 28.5309 10.4543 23.3931 10.5658C15.7474 10.732 8.24648 9.00582 0.694478 8.10004C-1.10108 7.88448 -6.49886 6.57337 -7.40241 9.48671C-8.57397 13.2658 -8.52508 17.8049 -8.65486 21.7547C-8.79352 25.9685 -8.92819 30.1769 -8.96863 34.3858C-8.98241 35.8267 -8.8713 37.3072 -8.32863 38.5672C-7.64952 40.1445 -6.3873 40.8223 -4.97663 41.0427C-2.42508 41.4414 0.169589 41.316 2.74559 41.2165C6.2287 41.0818 9.71137 40.7636 13.19 40.4254C19.2114 39.8405 25.334 38.8503 31.362 39.0667C35.5936 39.2187 39.7558 40.0405 43.9074 40.8654C45.5887 41.1996 47.2394 41.716 48.9429 41.9085C50.3229 42.0645 52.4318 42.2152 53.5656 40.9423C54.518 39.8729 54.5567 37.3729 54.678 35.976C54.9394 32.9663 54.9718 29.9334 54.954 26.9209C54.9207 21.2756 54.8523 15.404 53.9905 9.87071C53.6985 7.99426 52.9811 6.69204 51.2598 6.94537Z" fill="#F2DDD2"/>
</g>
<path d="M32.6158 19.9307C32.6158 19.9307 31.274 19.9507 30.7531 21.3729C30.2322 22.7947 31.0535 29.9049 31.0535 29.9049L33.7171 29.4844L34.498 23.0956" fill="#93CDA0"/>
<path d="M32.6158 19.9307C32.6158 19.9307 31.274 19.9507 30.7531 21.3729C30.2322 22.7947 31.0535 29.9049 31.0535 29.9049L33.7171 29.4844L34.498 23.0956" stroke="#263138" stroke-width="0.0444444" stroke-miterlimit="10"/>
<path d="M33.6842 36.7778C33.6842 36.7778 33.5953 36.4026 33.4766 36.4915C33.3579 36.5804 33.4766 36.9062 33.4766 36.9062L33.2197 37.2022L33.4073 37.5871L33.6148 37.676C33.6153 37.676 33.7731 37.0738 33.6842 36.7778Z" fill="#F9DACE" stroke="#E1B8AA" stroke-width="0.0444444" stroke-miterlimit="10"/>
<path d="M33.9111 37.0835C33.9111 37.0835 33.9804 36.6884 33.9013 36.6293C33.8222 36.5702 33.704 36.6195 33.684 36.7773C33.6644 36.935 33.6248 37.0933 33.6146 37.123C33.6048 37.1528 33.3084 37.3204 33.3186 37.4093C33.3284 37.4982 33.3484 37.587 33.4075 37.587C33.4666 37.587 33.8124 37.3795 33.8617 37.3302C33.9111 37.2813 33.9111 37.0835 33.9111 37.0835Z" fill="#F9DACE" stroke="#E1B8AA" stroke-width="0.0444444" stroke-miterlimit="10"/>
<path d="M31.1143 30.7106C31.1143 30.7106 31.4747 35.8977 31.6151 36.2382C31.7551 36.5786 32.5965 37.8004 32.6765 37.9804C32.7565 38.1608 33.0969 38.0804 33.1974 38.0604C33.2974 38.0404 33.9583 37.6 34.0587 37.3995C34.1587 37.1991 34.2791 36.8986 34.0987 36.9186C33.9183 36.9386 33.8183 37.0786 33.7783 37.1991C33.7383 37.3191 33.3978 37.4395 33.3978 37.4395L33.3578 36.7586C33.3578 36.7586 33.5183 35.9573 33.2578 35.5568C32.9974 35.1564 32.5969 34.956 32.5969 34.956L33.4583 30.2693L31.1143 30.7106Z" fill="#F9DACE" stroke="#E1B8AA" stroke-width="0.0444444" stroke-miterlimit="10"/>
<path d="M33.8979 28.6626C33.8979 28.6626 30.7734 29.3435 30.7734 29.564C30.7734 29.7844 30.7934 30.8858 30.9539 30.9058C31.1139 30.9258 33.8179 30.6053 33.8979 30.4653C33.9779 30.3253 34.0783 29.2435 34.0783 28.9631C34.0783 28.6826 34.1583 28.6426 33.8979 28.6626Z" fill="#93CDA0" stroke="#263138" stroke-width="0.0444444" stroke-miterlimit="10"/>
<path d="M13.4254 24.0911H12.9912V18.4222L15.8117 14.2542L16.1712 14.4973L13.4254 18.5551V24.0911Z" fill="#716056"/>
<path d="M13.2081 18.9524C13.4644 18.9524 13.6721 18.7447 13.6721 18.4884C13.6721 18.2322 13.4644 18.0244 13.2081 18.0244C12.9519 18.0244 12.7441 18.2322 12.7441 18.4884C12.7441 18.7447 12.9519 18.9524 13.2081 18.9524Z" fill="#716056"/>
<path d="M15.8987 24.0547H10.4561V24.6422H15.8987V24.0547Z" fill="#263138" stroke="#263138" stroke-width="0.0444444" stroke-miterlimit="10"/>
<path d="M17.0616 14.0546C17.4479 13.6682 17.4479 13.0418 17.0616 12.6555C16.6752 12.2691 16.0488 12.2691 15.6624 12.6555C15.2761 13.0418 15.2761 13.6682 15.6624 14.0546C16.0488 14.441 16.6752 14.441 17.0616 14.0546Z" fill="#5F4D43"/>
<path d="M17.5533 16.3858C18.6549 16.3858 19.5479 15.4927 19.5479 14.3911C19.5479 13.2895 18.6549 12.3964 17.5533 12.3964C16.4516 12.3964 15.5586 13.2895 15.5586 14.3911C15.5586 15.4927 16.4516 16.3858 17.5533 16.3858Z" fill="white" stroke="#3C2C21" stroke-width="0.0444444" stroke-miterlimit="10"/>
<path d="M15.7791 19.6324H8.11426L9.91337 24.5164H17.5783L15.7791 19.6324Z" fill="#48342A"/>
<path d="M15.5259 19.8427H8.52148L10.1655 24.3062H17.1704L15.5259 19.8427Z" stroke="#342D24" stroke-width="0.0444444" stroke-miterlimit="10"/>
<path d="M15.2233 19.8427H8.52148L10.1655 24.3062H16.8677L15.2233 19.8427Z" fill="white" stroke="#263138" stroke-width="0.0444444" stroke-miterlimit="10"/>
<path d="M9.95117 20.7147L11.1623 24.0458" stroke="#352A24" stroke-width="0.0444444" stroke-miterlimit="10"/>
<path d="M10.8877 20.7147L12.0988 24.0458" stroke="#352A24" stroke-width="0.0444444" stroke-miterlimit="10"/>
<path d="M11.8232 20.7147L13.0348 24.0458" stroke="#352A24" stroke-width="0.0444444" stroke-miterlimit="10"/>
<path d="M12.7588 20.7147L13.9703 24.0458" stroke="#352A24" stroke-width="0.0444444" stroke-miterlimit="10"/>
<path d="M13.6953 20.7147L14.9064 24.0458" stroke="#352A24" stroke-width="0.0444444" stroke-miterlimit="10"/>
<path d="M9.29004 21.3755H13.9967" stroke="#352A24" stroke-width="0.0444444" stroke-miterlimit="10"/>
<path d="M9.73047 22.5591H14.4371" stroke="#352A24" stroke-width="0.0444444" stroke-miterlimit="10"/>
<path d="M10.1709 23.7427H14.8776" stroke="#352A24" stroke-width="0.0444444" stroke-miterlimit="10"/>
<path d="M15.7762 20.5222L15.5259 19.8427H8.52148L8.77171 20.5222H15.7762Z" fill="#716056"/>
<path d="M9.99086 20.2737H10.558C10.6078 20.2737 10.6433 20.244 10.6478 20.1977C10.6558 20.1169 10.5682 20.0275 10.4806 20.0275H9.91353C9.86375 20.0275 9.8282 20.0573 9.82375 20.1035C9.81575 20.1849 9.90331 20.2737 9.99086 20.2737Z" stroke="#342D24" stroke-width="0.0444444" stroke-miterlimit="10"/>
<path d="M11.323 20.2737H11.8901C11.9398 20.2737 11.9754 20.244 11.9798 20.1977C11.9878 20.1169 11.9003 20.0275 11.8127 20.0275H11.2456C11.1958 20.0275 11.1603 20.0573 11.1558 20.1035C11.1474 20.1849 11.235 20.2737 11.323 20.2737Z" stroke="#342D24" stroke-width="0.0444444" stroke-miterlimit="10"/>
<path d="M12.6549 20.2737H13.222C13.2718 20.2737 13.3074 20.244 13.3118 20.1977C13.3198 20.1169 13.2323 20.0275 13.1447 20.0275H12.5776C12.5278 20.0275 12.4923 20.0573 12.4878 20.1035C12.4798 20.1849 12.5674 20.2737 12.6549 20.2737Z" stroke="#342D24" stroke-width="0.0444444" stroke-miterlimit="10"/>
<path d="M13.988 20.2737H14.5551C14.6049 20.2737 14.6404 20.244 14.6449 20.1977C14.6529 20.1169 14.5653 20.0275 14.4778 20.0275H13.9107C13.8609 20.0275 13.8253 20.0573 13.8209 20.1035C13.8124 20.1849 13.9 20.2737 13.988 20.2737Z" stroke="#342D24" stroke-width="0.0444444" stroke-miterlimit="10"/>
<path d="M19.6814 24.2871H9.91113V24.6369H19.6814V24.2871Z" fill="#48342A"/>
<path d="M40.1738 35.9746C39.008 35.9746 36.7529 35.1071 36.4805 35.0009L36.7334 34.3537C37.4836 34.6471 39.5916 35.3831 40.3254 35.2706C41.0369 35.1613 43.0929 33.9809 43.068 31.3395C43.044 28.7875 41.9556 27.2529 41.9449 27.2377L42.5067 26.8289C42.5569 26.8977 43.7369 28.5457 43.7631 31.3333C43.7782 32.9404 43.1036 34.0329 42.5351 34.6657C41.7911 35.4946 40.9369 35.8795 40.4311 35.9573C40.3534 35.9693 40.2667 35.9746 40.1738 35.9746Z" fill="#3D322D"/>
<path d="M36.0551 34.8098H35.0146V41.7506H36.0551V34.8098Z" fill="#3D322D"/>
<path d="M36.7929 34.8098H34.2773V35.5644H36.7929V34.8098Z" fill="#3D322D"/>
<path d="M41.1816 43.5778C41.1816 43.3396 40.9887 43.1467 40.7504 43.1467C40.5122 43.1467 40.3193 43.3396 40.3193 43.5778C40.3193 43.816 40.5122 44.0089 40.7504 44.0089C40.9882 44.0089 41.1816 43.816 41.1816 43.5778Z" fill="#263138" stroke="#263138" stroke-width="0.0444444" stroke-miterlimit="10"/>
<path d="M30.7196 43.5778C30.7196 43.3396 30.5268 43.1467 30.2885 43.1467C30.0503 43.1467 29.8574 43.3396 29.8574 43.5778C29.8574 43.816 30.0503 44.0089 30.2885 44.0089C30.5268 44.0089 30.7196 43.816 30.7196 43.5778Z" fill="#3D322D"/>
<path d="M40.8681 42.9653C40.4597 42.784 36.2943 41.8778 36.2943 41.8778L35.5357 41.7853L34.777 41.8778C34.777 41.8778 30.6117 42.784 30.2032 42.9653C29.7948 43.1467 29.7041 43.6462 29.7041 43.6462H30.0672C30.0672 43.6462 30.2032 43.3285 30.4077 43.2378C30.6121 43.1471 35.5361 42.5796 35.5361 42.5796C35.5361 42.5796 40.4605 43.1467 40.6645 43.2378C40.869 43.3285 41.005 43.6462 41.005 43.6462H41.3681C41.3672 43.6458 41.2765 43.1467 40.8681 42.9653Z" fill="#3D322D"/>
<path d="M35.9843 43.5778C35.9843 43.3396 35.7914 43.1467 35.5532 43.1467C35.315 43.1467 35.1221 43.3396 35.1221 43.5778C35.1221 43.816 35.315 44.0089 35.5532 44.0089C35.7914 44.0089 35.9843 43.816 35.9843 43.5778Z" fill="#3D322D"/>
<path d="M35.2627 41.8533H35.8071L35.7258 43.6458H35.3445L35.2627 41.8533Z" fill="#3D322D"/>
<path d="M36.3206 41.1231H34.749V41.8778H36.3206V41.1231Z" fill="#3D322D"/>
<path d="M40.1615 35.1138H30.9082C30.6758 35.1138 30.4873 34.9253 30.4873 34.6929V33.7444C30.4873 33.512 30.6758 33.3235 30.9082 33.3235H40.1615C40.394 33.3235 40.5824 33.512 40.5824 33.7444V34.6929C40.5824 34.9253 40.394 35.1138 40.1615 35.1138Z" fill="#3D322D"/>
<path d="M43.2832 24.1644L41.9397 30.2818C41.8401 30.7249 41.3997 31.0035 40.9566 30.904L40.8152 30.872C40.3721 30.7724 40.0935 30.332 40.193 29.8889L41.5366 23.7715C41.6361 23.3284 42.0766 23.0498 42.5197 23.1493L42.661 23.1813C43.1046 23.2809 43.3832 23.7213 43.2832 24.1644Z" fill="#3D322D"/>
<path d="M24.2588 32.1911C24.2588 32.1911 20.8139 39.7573 20.7432 39.828C20.6726 39.8987 20.2241 39.8044 20.177 39.9698C20.1299 40.1351 20.0592 40.9609 20.0592 40.9609C20.0592 40.9609 18.3606 41.2911 18.1717 41.2911C17.9828 41.2911 16.8503 41.1733 16.7561 41.3853C16.6619 41.5978 16.3788 41.8338 16.5672 42.0458C16.7561 42.2582 17.9592 42.8715 18.6437 43.0604C19.3281 43.2493 19.8468 43.3671 20.0357 43.4378C20.2246 43.5084 22.2299 44.004 22.3952 43.9569C22.5606 43.9098 22.7726 43.7915 22.8437 43.3907C22.9143 42.9898 23.1268 41.9515 23.1268 41.9515C23.1268 41.9515 23.4806 41.5507 23.5041 41.1964C23.5277 40.8427 23.6695 40.0875 23.6695 40.0875L26.7601 35.1169L24.2588 32.1911Z" fill="#5D463B"/>
<path d="M32.3751 28.7938C32.3751 28.7938 28.5529 29.0533 26.1226 29.7138C23.6924 30.3742 23.2911 30.988 23.4564 31.4124C23.6217 31.8373 29.2297 39.9849 29.2297 39.9849C29.2297 39.9849 28.9937 40.5982 29.112 40.6929C29.2297 40.7871 29.8671 41.2356 29.8671 41.2356C29.8671 41.2356 29.7729 41.448 29.8435 41.5422C29.9142 41.6364 29.9142 41.7547 29.9142 41.7547C29.9142 41.7547 29.4186 42.5804 29.2297 42.8164C29.0409 43.0524 28.3569 43.2884 28.3333 43.5009C28.3097 43.7133 28.5457 43.9258 28.6164 43.9258C28.6871 43.9258 30.5746 43.8787 30.74 43.8551C30.9053 43.8316 31.4244 43.3831 31.4244 43.3831C31.4244 43.3831 32.6986 41.9676 33.0289 41.5662C33.3591 41.1653 33.7133 40.5987 33.5951 40.2684C33.4773 39.9382 32.6751 39.4191 32.5333 39.372C32.3915 39.3249 32.156 39.1124 32.156 39.1124L28.3649 32.9227C28.3649 32.9227 33.8386 33.3476 35.396 33.3947C36.9533 33.4418 37.732 32.7342 37.732 32.7342C37.732 32.7342 33.5084 28.7231 33.1782 28.6524C32.8466 28.5813 32.3751 28.7938 32.3751 28.7938Z" fill="#5D463B"/>
<path d="M29.0952 19.9223C29.0952 19.9223 31.2659 19.5685 33.4836 20.2054C35.7014 20.8423 37.5183 23.2725 38.1081 24.8298C38.6979 26.3872 39.3112 30.044 39.3112 30.5867C39.3112 31.1294 39.2876 31.7898 39.0281 32.0729C38.7685 32.356 37.589 33.0169 37.3294 33.1112C37.0699 33.2054 36.8574 32.2854 36.0081 31.6009C35.1588 30.9165 34.1205 30.02 33.9552 29.8312C33.7899 29.6423 33.1059 29.1943 32.7521 29.076C32.3983 28.9583 32.1623 28.84 32.1388 28.604C32.1152 28.368 31.9734 24.8525 31.9734 24.8525L29.3308 23.3898L28.7881 19.9214H29.0952V19.9223Z" fill="#8B7468"/>
<path d="M25.4376 19.6018C25.4376 19.6018 25.2896 18.8062 26.0665 18.8249C26.8434 18.8436 26.8065 19.9534 26.8065 19.9534L28.3789 20.1014L28.8229 23.9862C28.8229 23.9862 27.4722 24.4489 26.9176 24.5414C26.3625 24.6338 25.6411 24.856 24.9749 24.7818C24.3091 24.708 23.9576 24.6151 23.9576 24.6151C23.9576 24.6151 23.4211 23.9494 23.0509 23.172C22.6811 22.3951 22.6256 21.4885 22.9585 21.2294C23.2914 20.9702 23.6798 20.5636 24.4385 20.5818C25.1971 20.6 25.3265 20.0822 25.3265 19.9898C25.3265 19.8978 25.4376 19.6018 25.4376 19.6018Z" fill="#F9DACE"/>
<path d="M24.2161 20.9338C24.2161 20.9338 24.4379 21.3778 24.6046 21.3778C24.7713 21.3778 25.0299 21.0818 25.141 21.008C25.2521 20.9338 26.2508 20.8414 26.325 20.7862C26.3993 20.7307 26.5286 20.5458 26.2881 20.4347C26.0477 20.3236 25.7886 20.1574 25.7886 20.1574L25.437 19.6022C25.437 19.6022 24.1419 19.6209 23.6797 19.5098C23.217 19.3987 22.7917 19.2138 22.4957 19.3987C22.1997 19.5836 21.2748 21.0267 21.2193 21.9702C21.1637 22.9138 21.2006 23.3578 21.4228 23.3391C21.6446 23.3205 21.9779 22.8951 21.9779 22.8951C21.9779 22.8951 21.645 24.5418 21.8668 24.8191C22.0886 25.0965 22.4401 24.6342 22.4401 24.6342C22.4401 24.6342 22.8473 24.9116 23.3281 24.9489C23.809 24.9858 24.4566 24.8565 24.5308 24.7085C24.6046 24.5605 24.0681 24.1907 24.013 24.1165C23.9575 24.0427 24.3646 23.9129 24.2535 23.7094C24.1424 23.5058 23.8837 23.5427 23.6246 23.3022C23.3655 23.0618 23.3286 22.7102 23.3286 22.7102C23.3286 22.7102 23.6801 22.9507 23.569 22.5991C23.4579 22.2476 23.0326 21.8036 23.2544 21.5445C23.4766 21.2854 24.2161 20.9338 24.2161 20.9338Z" fill="#332418"/>
<path d="M25.4371 21.7107C25.4371 21.7107 24.9007 22.5245 24.9931 22.58C25.0856 22.6356 25.1411 22.6725 25.2705 22.5245C25.3998 22.3765 25.622 21.8031 25.622 21.6551C25.622 21.5071 25.4371 21.7107 25.4371 21.7107Z" fill="#332418"/>
<path d="M25.7145 24.3191C25.7145 24.3191 25.2149 23.5236 25.0856 23.5236C24.9563 23.5236 24.9007 23.7084 24.9932 23.8382C25.0856 23.9676 25.6407 24.5969 25.7145 24.3191Z" fill="#332418"/>
<path d="M26.122 21.6924C26.122 21.6924 26.3624 22.192 26.0664 22.4324" stroke="#3C2F29" stroke-width="0.0444444" stroke-miterlimit="10" stroke-linecap="round" stroke-linejoin="round"/>
<path d="M26.1592 23.6902C26.1592 23.6902 26.4183 24.1156 26.1592 24.3934" stroke="#3C2F29" stroke-width="0.0444444" stroke-miterlimit="10" stroke-linecap="round" stroke-linejoin="round"/>
<path d="M25.4004 23.4498C25.4004 23.4498 27.2502 23.5422 27.2133 23.3205C27.1764 23.0982 27.0839 22.488 26.9542 22.4694C26.8248 22.4507 26.6582 22.6174 26.6582 22.6174" stroke="#3C2F29" stroke-width="0.0444444" stroke-miterlimit="10" stroke-linecap="round" stroke-linejoin="round"/>
<path d="M28.1015 22.488C28.1015 22.488 27.6575 22.7471 27.75 23.0431C27.8424 23.3391 28.2309 23.4129 28.2126 23.2649C28.1944 23.1169 28.0277 22.9502 28.1015 22.7653C28.1753 22.5804 28.2122 22.4693 28.1015 22.488Z" fill="#332418"/>
<path d="M26.8066 19.9534C26.8066 19.9534 27.8613 20.4711 28.2311 21.0818Z" fill="white"/>
<path d="M26.8066 19.9534C26.8066 19.9534 27.8613 20.4711 28.2311 21.0818" stroke="#263138" stroke-width="0.0444444" stroke-miterlimit="10"/>
<path d="M28.1781 24.6507H6.80566V26.8174H28.1781V24.6507Z" fill="#716056"/>
<path d="M7.21122 44.0601H6.49611L6.34277 25.1312H7.36455L7.21122 44.0601Z" fill="#716056"/>
<path d="M28.5061 44.0601H27.791L27.6377 25.1312H28.6595L28.5061 44.0601Z" fill="#716056"/>
<path d="M28.6422 24.6267H6.34082V25.6632H28.6422V24.6267Z" fill="#5F4D43"/>
<path d="M29.2336 24.6507H5.75V25.3507H29.2336V24.6507Z" fill="#716056"/>
<path d="M27.9805 19.36L28.7818 23.5258L29.4027 23.0249L28.9418 19.2396L27.9805 19.36Z" fill="#8B7468" stroke="#796156" stroke-width="0.0444444" stroke-miterlimit="10"/>
<path d="M32.2334 26.4107L33.6965 23.6503" stroke="#796156" stroke-width="0.0444444" stroke-miterlimit="10"/>
<path d="M32.54 26.2454L33.4605 24.8298" stroke="#796156" stroke-width="0.0444444" stroke-miterlimit="10"/>
<path d="M32.4932 26.6703L34.2629 25.3961" stroke="#796156" stroke-width="0.0444444" stroke-miterlimit="10"/>
<path d="M34.1787 27.8125C34.3405 27.8667 34.484 27.9129 34.5925 27.9445" stroke="#796156" stroke-width="0.0444444" stroke-miterlimit="10"/>
<path d="M32.4932 27.213C32.4932 27.213 33.1487 27.4552 33.7612 27.669" stroke="#796156" stroke-width="0.0444444" stroke-miterlimit="10"/>
<path d="M34.2559 29.5872C34.7972 29.9134 35.3812 30.3089 35.891 30.752" stroke="#796156" stroke-width="0.0444444" stroke-miterlimit="10"/>
<path d="M32.4219 28.6285C32.4219 28.6285 33.1045 28.9223 33.9588 29.4129" stroke="#796156" stroke-width="0.0444444" stroke-miterlimit="10"/>
<path d="M36.5215 31.7823C36.641 31.9267 36.7344 32.0587 36.7868 32.1676" stroke="#796156" stroke-width="0.0444444" stroke-miterlimit="10"/>
<path d="M34.7578 30.0916C34.7578 30.0916 35.6525 30.8392 36.2671 31.4952" stroke="#796156" stroke-width="0.0444444" stroke-miterlimit="10"/>
<path d="M30.9654 20.5618C30.9654 20.5618 29.6236 20.5818 29.1027 22.004C28.5818 23.4258 29.4031 30.536 29.4031 30.536L32.0667 30.1155L32.8476 23.7267" fill="#8B7468"/>
<path d="M32.0328 37.3937C32.0328 37.3937 31.9439 37.0186 31.8252 37.1075C31.7066 37.1964 31.8252 37.5222 31.8252 37.5222L31.5684 37.8182L31.7559 38.2031L31.9635 38.2919C31.9639 38.2919 32.1217 37.6897 32.0328 37.3937Z" fill="#F9DACE" stroke="#E1B8AA" stroke-width="0.0444444" stroke-miterlimit="10"/>
<path d="M32.2597 37.6995C32.2597 37.6995 32.329 37.3044 32.2499 37.2453C32.1708 37.1862 32.0526 37.2355 32.0326 37.3933C32.013 37.5511 31.9735 37.7093 31.9632 37.7391C31.9535 37.7689 31.657 37.9364 31.6673 38.0253C31.677 38.1142 31.697 38.2031 31.7561 38.2031C31.8153 38.2031 32.161 37.9955 32.2104 37.9462C32.2597 37.8973 32.2597 37.6995 32.2597 37.6995Z" fill="#F9DACE" stroke="#E1B8AA" stroke-width="0.0444444" stroke-miterlimit="10"/>
<path d="M29.4629 31.3413C29.4629 31.3413 29.8233 36.5284 29.9638 36.8689C30.1038 37.2093 30.9451 38.4311 31.0251 38.6111C31.1051 38.7915 31.4456 38.7111 31.546 38.6911C31.646 38.6711 32.3069 38.2306 32.4073 38.0302C32.5073 37.8297 32.6278 37.5293 32.4473 37.5493C32.2669 37.5693 32.1669 37.7097 32.1269 37.8297C32.0869 37.9497 31.7464 38.0702 31.7464 38.0702L31.7064 37.3893C31.7064 37.3893 31.8669 36.588 31.6064 36.1875C31.346 35.7871 30.9456 35.5866 30.9456 35.5866L31.8069 30.9L29.4629 31.3413Z" fill="#F9DACE" stroke="#E1B8AA" stroke-width="0.0444444" stroke-miterlimit="10"/>
<path d="M32.2475 29.2937C32.2475 29.2937 29.123 29.9746 29.123 30.1951C29.123 30.4155 29.143 31.5169 29.3035 31.5369C29.4635 31.5569 32.1675 31.2364 32.2475 31.0964C32.3275 30.9564 32.4279 29.8746 32.4279 29.5942C32.4279 29.3137 32.5075 29.2737 32.2475 29.2937Z" fill="#8B7468" stroke="#796156" stroke-width="0.0444444" stroke-miterlimit="10"/>
<g opacity="0.55">
<path d="M37.5571 17.0493C39.3402 16.4435 40.6856 14.7164 40.8367 12.8395C40.8793 12.3097 40.8344 11.7769 40.79 11.2475C40.7856 11.1942 40.7793 11.1369 40.7451 11.0955C40.7082 11.0515 40.6482 11.0364 40.5922 11.024C39.5673 10.7937 38.5424 10.564 37.518 10.3337C36.9309 10.2017 36.3264 10.0693 35.7318 10.164C36.2491 10.0666 36.7611 10.4715 36.9402 10.9666C37.1193 11.4613 37.0358 12.0124 36.8896 12.5177C36.5056 13.8444 35.6949 15.044 34.6064 15.8942C35.3704 16.0764 36.0976 16.4111 36.7322 16.8737C36.9798 17.0542 37.3313 17.2537 37.5576 17.0475L37.5571 17.0493Z" fill="#CFBFB3"/>
<path d="M37.1491 12.772C37.546 13.1826 37.9109 13.6235 38.2384 14.0915C38.3309 14.2235 38.4198 14.3573 38.5064 14.4929C38.5438 14.5511 38.6371 14.4973 38.5998 14.4382C38.2895 13.9511 37.9415 13.4884 37.5589 13.0555C37.4504 12.9329 37.3393 12.8129 37.2255 12.6951C37.1771 12.6457 37.1011 12.7222 37.1491 12.772Z" fill="#BFAC9F"/>
<path d="M37.6566 12.9137C38.1028 13.4613 38.5491 14.0089 38.9953 14.556C39.0393 14.6097 39.1153 14.5329 39.0717 14.4795C38.6255 13.932 38.1793 13.3844 37.7331 12.8373C37.6886 12.7835 37.6131 12.8604 37.6566 12.9137Z" fill="#BFAC9F"/>
</g>
<g opacity="0.55">
<path d="M22.2308 8.6902C21.9099 8.89331 21.7517 9.27509 21.661 9.64398C21.2824 11.1795 21.8037 12.9031 22.9699 13.9711C23.4544 14.4146 24.0299 14.7444 24.6002 15.0702C24.6868 15.1195 24.781 15.1711 24.8802 15.1604C24.9557 15.1524 25.0224 15.1089 25.0859 15.0666C25.9842 14.4675 26.8517 13.8222 27.6837 13.1342C26.6495 12.7169 25.7966 11.8706 25.3708 10.84C24.9455 9.80931 24.953 8.60753 25.3922 7.58264C24.3046 7.91953 23.2206 8.26886 22.141 8.63109L22.2308 8.6902Z" fill="#CFBFB3"/>
<path d="M22.5349 11.4947C23.2851 11.9329 24.1211 12.2173 24.982 12.3311C25.2251 12.3631 25.47 12.3813 25.7153 12.3862C25.7847 12.3875 25.7847 12.2795 25.7153 12.2782C24.8616 12.2627 24.0104 12.0755 23.2296 11.7293C23.01 11.632 22.7967 11.5227 22.5891 11.4013C22.5291 11.3662 22.4749 11.4595 22.5349 11.4947Z" fill="#BFAC9F"/>
<path d="M23.35 11.356C23.9615 11.5573 24.6024 11.6644 25.2455 11.6738C25.3149 11.6747 25.3149 11.5671 25.2455 11.5658C24.6109 11.5564 23.9811 11.4502 23.3784 11.252C23.3122 11.2302 23.2842 11.3347 23.35 11.356Z" fill="#BFAC9F"/>
</g>
<g opacity="0.55">
<path d="M9.37637 8.77289C9.66437 9.02222 9.42703 9.24489 9.24659 9.58C8.12437 11.6676 6.29637 13.3676 4.13281 14.3351C5.32259 15.3644 6.32259 16.612 7.06837 17.9973C9.68748 17.3871 11.9346 15.3724 12.8261 12.8351C12.8564 12.7484 12.8857 12.6569 12.8701 12.5667C12.8515 12.46 12.7737 12.3751 12.6995 12.2964C11.5915 11.1231 10.4835 9.94978 9.37548 8.77644L9.37637 8.77289Z" fill="#CFBFB3"/>
<path d="M8.73376 11.4058C8.98753 11.9956 9.0422 12.6453 9.0062 13.2804C8.96931 13.9356 8.84487 14.5849 8.7182 15.228C8.64353 15.6084 8.55642 15.9871 8.42531 16.3524C8.40176 16.4178 8.5062 16.4462 8.52931 16.3813C8.64887 16.0484 8.73198 15.704 8.8022 15.3578C8.86931 15.0262 8.93109 14.6933 8.9862 14.3596C9.09242 13.7151 9.16842 13.0551 9.09687 12.4022C9.05731 12.04 8.97109 11.6867 8.82709 11.3516C8.79953 11.2876 8.70664 11.3427 8.73376 11.4058Z" fill="#BFAC9F"/>
<path d="M8.2038 13.1729C8.24603 13.8298 8.22469 14.4906 8.13669 15.1431C8.1118 15.3275 8.08158 15.5111 8.04603 15.6942C8.03314 15.7622 8.13714 15.7911 8.15003 15.7231C8.2758 15.0702 8.33758 14.4049 8.33225 13.74C8.33091 13.5511 8.3238 13.3622 8.31136 13.1733C8.30691 13.104 8.19936 13.1035 8.2038 13.1729Z" fill="#BFAC9F"/>
<path d="M10.3506 13.5964C10.3506 13.6435 10.3506 13.6902 10.3506 13.7373C10.3506 13.7658 10.3755 13.7924 10.4044 13.7911C10.4337 13.7898 10.4581 13.7675 10.4581 13.7373C10.4581 13.6902 10.4581 13.6435 10.4581 13.5964C10.4581 13.5684 10.4333 13.5413 10.4044 13.5426C10.375 13.544 10.3506 13.5662 10.3506 13.5964Z" fill="#BFAC9F"/>
<path d="M10.91 13.5805C10.8593 13.7587 10.8482 13.9436 10.8731 14.1271C10.8771 14.156 10.914 14.1716 10.9393 14.1649C10.9704 14.1565 10.9811 14.1276 10.9771 14.0987C10.9549 13.9351 10.9691 13.7676 11.014 13.6093C11.0331 13.5422 10.9291 13.5133 10.91 13.5805Z" fill="#BFAC9F"/>
</g>
<path d="M24.5472 18.5173H22.6801C22.6196 18.5173 22.5703 18.4684 22.5703 18.4075V17.4311C22.5703 17.3706 22.6192 17.3213 22.6801 17.3213H24.5472C24.6076 17.3213 24.657 17.3702 24.657 17.4311V18.4075C24.6565 18.468 24.6076 18.5173 24.5472 18.5173Z" fill="white" stroke="#263138" stroke-width="0.0444444" stroke-miterlimit="10"/>
<path d="M24.4347 17.4733H24.1885V18.3653H24.4347C24.5 18.3653 24.5529 18.3124 24.5529 18.247V17.591C24.5529 17.5262 24.4996 17.4733 24.4347 17.4733Z" fill="#716056"/>
<path d="M24.0985 17.475C24.0887 17.4742 24.0785 17.4733 24.0683 17.4733H23.9785V18.3653H24.0683C24.0785 18.3653 24.0887 18.3648 24.0985 18.3635V17.475Z" fill="#716056"/>
<path d="M22.4242 18.1657H22.5669V17.6884H22.4242C22.3967 17.6884 22.374 17.7106 22.374 17.7386V18.1155C22.3745 18.1435 22.3967 18.1657 22.4242 18.1657Z" fill="white" stroke="#263138" stroke-width="0.0444444" stroke-miterlimit="10"/>
<path d="M27.5444 17.956C27.587 17.6943 27.6764 17.4312 27.8532 17.2285C27.9648 17.1009 28.1097 17.004 28.2715 16.9534C28.3275 16.936 28.3848 16.924 28.443 16.9187C28.5257 16.9107 28.6097 16.92 28.6924 16.9187C28.8626 16.916 29.0395 16.8929 29.187 16.8014C29.3039 16.7294 29.3892 16.6032 29.411 16.4672C29.4212 16.4027 29.415 16.3334 29.3866 16.2743C29.3524 16.2027 29.2897 16.1547 29.2292 16.1063C29.1715 16.06 29.1137 16.0107 29.0857 15.94C29.063 15.8827 29.0577 15.8129 29.0875 15.7569C29.1012 15.7312 29.123 15.7107 29.1488 15.6978C29.1595 15.6925 29.1706 15.6938 29.1795 15.7018C29.3755 15.8725 29.6012 16.0089 29.8444 16.1018C30.0555 16.1823 30.3066 16.2547 30.5297 16.1805C30.6324 16.1463 30.7172 16.0765 30.7679 15.9809C30.8181 15.8858 30.8319 15.7743 30.8199 15.6685C30.7919 15.4307 30.6204 15.24 30.4408 15.0965C30.2386 14.9352 30.007 14.8076 29.7644 14.7187C29.5444 14.6383 29.3097 14.5818 29.0741 14.5867C28.8684 14.5912 28.6524 14.644 28.5004 14.7907C28.4155 14.8729 28.3435 14.9863 28.3835 15.1076C28.4204 15.2192 28.5221 15.3 28.6124 15.368C28.8199 15.5245 29.0497 15.6525 29.2924 15.7458C29.411 15.7916 29.5328 15.8294 29.6564 15.8587C29.7586 15.8827 29.8666 15.9049 29.9715 15.8836C30.0137 15.8752 30.0564 15.8592 30.0888 15.8294C30.1315 15.7898 30.1466 15.7352 30.1466 15.6783C30.1466 15.6196 30.1355 15.5605 30.1235 15.5027C30.1128 15.4498 30.0995 15.3978 30.0839 15.3463C30.0226 15.1418 29.9235 14.9498 29.7964 14.7787C29.5426 14.4365 29.1728 14.176 28.7581 14.0716C28.5501 14.0192 28.3026 13.9938 28.1092 14.1067C27.907 14.2245 27.8506 14.4752 27.8999 14.6912C27.9577 14.9432 28.1359 15.1512 28.3004 15.3423C28.4652 15.5338 28.6412 15.7156 28.8279 15.8867C29.199 16.2267 29.6101 16.5232 30.0506 16.7672C30.1572 16.8263 30.2652 16.8823 30.375 16.9352C30.3621 16.9423 30.3497 16.9498 30.3368 16.9569C30.3501 16.7387 30.2852 16.52 30.1581 16.3423C30.0306 16.1645 29.8408 16.0405 29.6292 15.9876C29.4212 15.9356 29.1821 15.9494 28.9937 16.0587C28.9012 16.112 28.8248 16.192 28.7884 16.2934C28.7537 16.3894 28.7559 16.4938 28.7781 16.5925C28.8288 16.8138 28.967 17.0032 29.1146 17.1707C29.2692 17.3458 29.4457 17.5023 29.6386 17.6343C29.835 17.7685 30.0537 17.8943 30.291 17.9352C30.4075 17.9552 30.5284 17.9503 30.6404 17.9112C30.7372 17.8774 30.8248 17.8196 30.899 17.7494C30.9755 17.6778 31.039 17.5934 31.0915 17.5032C31.147 17.4076 31.1964 17.3009 31.2048 17.1894C31.2115 17.0983 31.187 16.9947 31.0999 16.9498C31.0421 16.92 30.963 16.9152 30.9066 16.9507C30.8799 16.9676 30.8644 16.9929 30.8586 17.0236C30.8444 17.0156 30.8301 17.0072 30.8164 16.9992C31.0946 16.6898 31.371 16.3383 31.4737 15.9267C31.5217 15.7338 31.5235 15.5303 31.4639 15.34C31.4137 15.1796 31.3208 15.036 31.2026 14.9174C30.959 14.6738 30.6155 14.5325 30.2741 14.5058C30.0688 14.4898 29.8581 14.512 29.6617 14.576C29.5599 14.6094 29.4612 14.6547 29.3715 14.7134C29.2928 14.7649 29.2186 14.8334 29.1986 14.9294C29.1626 15.1018 29.327 15.2418 29.455 15.3245C29.5288 15.3725 29.6084 15.4125 29.6897 15.4458C29.7715 15.4792 29.8572 15.5076 29.9452 15.5174C30.0239 15.5263 30.1075 15.5218 30.1772 15.4814C30.2617 15.4325 30.3012 15.3432 30.3195 15.2507C30.3577 15.0525 30.3328 14.8423 30.2688 14.652C30.1386 14.2658 29.8386 13.9667 29.4781 13.7872C29.1604 13.6294 28.7724 13.5365 28.4226 13.6365C28.2657 13.6814 28.1217 13.7716 28.0341 13.9116C27.9372 14.0667 27.9257 14.2574 27.9697 14.432C28.0168 14.6174 28.1212 14.7796 28.2599 14.9098C28.4097 15.0503 28.5901 15.1529 28.7746 15.2414C28.8644 15.2845 28.9559 15.3245 29.0475 15.3645C29.035 15.3738 29.0226 15.3836 29.0101 15.3929C28.8924 15.1125 28.6212 14.888 28.3168 14.8472C28.1724 14.8276 28.0155 14.8494 27.8946 14.9356C27.7652 15.0276 27.7084 15.1854 27.7106 15.3396C27.7128 15.5103 27.7866 15.6685 27.8821 15.8067C27.9812 15.9503 28.1026 16.0805 28.2266 16.2027C28.4755 16.448 28.7577 16.6592 29.0635 16.828C29.127 16.8632 29.1906 16.9023 29.2621 16.9169C29.3066 16.9263 29.3768 16.9329 29.411 16.8952C29.459 16.8423 29.3928 16.7636 29.3519 16.728C29.3048 16.6876 29.2444 16.6636 29.1835 16.6552C29.0546 16.6365 28.9195 16.6823 28.8332 16.7805C28.735 16.8925 28.7039 17.0525 28.7244 17.1974C28.771 17.5245 29.0684 17.756 29.3501 17.8854C29.6475 18.0223 30.0195 18.0689 30.311 17.8912C30.4395 17.8129 30.5475 17.6929 30.5968 17.5494C30.6444 17.4112 30.631 17.2609 30.5564 17.1347C30.4866 17.0165 30.3626 16.9249 30.2212 16.9272C30.0897 16.9294 29.9581 17.0067 29.8959 17.1232C29.827 17.2525 29.8746 17.4 29.9679 17.5032C30.0715 17.6169 30.2141 17.6872 30.3572 17.7378C30.6608 17.8454 30.9959 17.868 31.3092 17.792C31.6106 17.7192 31.8861 17.5534 32.0732 17.3036C32.2479 17.0707 32.3484 16.7792 32.3381 16.4872C32.3332 16.3445 32.3012 16.2009 32.239 16.072C32.1799 15.9494 32.0946 15.8409 31.9928 15.7512C31.791 15.5734 31.5208 15.4672 31.2506 15.4783C31.1839 15.4809 31.1181 15.4912 31.0541 15.5089C30.9892 15.5272 30.9101 15.5503 30.8617 15.5992C30.803 15.6583 30.8395 15.736 30.8946 15.7823C30.9506 15.8294 31.0261 15.8445 31.0981 15.84C31.2399 15.8312 31.3684 15.7378 31.447 15.6236C31.5359 15.4947 31.5599 15.3405 31.5279 15.188C31.4595 14.8592 31.1861 14.6009 30.9044 14.4409C30.7568 14.3569 30.5968 14.296 30.4315 14.2596C30.3483 14.2414 30.2644 14.2298 30.1795 14.2245C30.103 14.22 30.0212 14.2156 29.9466 14.2365C29.8897 14.2525 29.8266 14.2907 29.8292 14.3574C29.831 14.4023 29.8652 14.4645 29.9181 14.4472C29.9124 14.4574 29.9061 14.468 29.9004 14.4783C29.8537 14.2689 29.6884 14.0956 29.4852 14.0298C29.2795 13.9632 29.0568 14.0232 28.8999 14.1689C28.8124 14.2503 28.7488 14.3543 28.7208 14.4707C28.7132 14.5023 28.6644 14.4889 28.6719 14.4574C28.7248 14.2334 28.9048 14.0512 29.1221 13.9809C29.3461 13.9085 29.5897 13.9765 29.7586 14.1365C29.8524 14.2249 29.9208 14.3396 29.9488 14.4654C29.9519 14.4792 29.9448 14.492 29.931 14.4965C29.867 14.5178 29.8119 14.4712 29.7897 14.4134C29.7635 14.3463 29.7839 14.2778 29.8399 14.2334C29.9017 14.1845 29.9844 14.1734 30.0604 14.1716C30.1501 14.1698 30.2404 14.1769 30.3292 14.1898C30.6892 14.2427 31.0404 14.4143 31.2937 14.6769C31.5252 14.9174 31.699 15.2947 31.5132 15.6125C31.4364 15.744 31.3061 15.8543 31.1541 15.8836C31.0795 15.8983 30.9981 15.8938 30.9279 15.8627C30.8577 15.8316 30.7906 15.7676 30.7804 15.6885C30.7692 15.6027 30.835 15.5432 30.9061 15.5094C30.9724 15.4783 31.0426 15.456 31.1146 15.4427C31.259 15.416 31.4084 15.424 31.5501 15.4605C31.8346 15.5338 32.0932 15.7205 32.2435 15.9743C32.4035 16.2445 32.4239 16.5787 32.3395 16.8769C32.2524 17.184 32.0581 17.46 31.7919 17.6374C31.5012 17.8312 31.1426 17.908 30.7964 17.8814C30.6221 17.868 30.4497 17.8294 30.287 17.7654C30.1368 17.7063 29.9879 17.6218 29.891 17.4894C29.8012 17.3663 29.7808 17.2023 29.8661 17.0712C29.9448 16.9498 30.0906 16.872 30.2355 16.876C30.3888 16.88 30.523 16.9796 30.599 17.1085C30.6799 17.2458 30.6964 17.4116 30.6448 17.5623C30.5919 17.716 30.479 17.8454 30.3417 17.9307C30.1906 18.0245 30.0092 18.0627 29.8324 18.056C29.6497 18.0494 29.4706 17.9983 29.3061 17.92C29.147 17.844 28.9946 17.7414 28.8755 17.6098C28.7617 17.4836 28.6817 17.3294 28.6688 17.1583C28.6568 16.9996 28.7039 16.8316 28.8199 16.7187C28.9221 16.6196 29.075 16.5814 29.2132 16.608C29.2795 16.6209 29.343 16.6512 29.3932 16.6969C29.4466 16.7458 29.499 16.8254 29.4661 16.8996C29.4412 16.9556 29.3772 16.9729 29.3208 16.9729C29.2492 16.9729 29.1844 16.9485 29.1221 16.916C28.9541 16.8289 28.7928 16.7289 28.6395 16.6183C28.4866 16.5076 28.3417 16.3858 28.2066 16.2543C28.0719 16.1232 27.9412 15.9827 27.835 15.8276C27.7328 15.6787 27.6572 15.5067 27.6586 15.3236C27.6599 15.156 27.7266 14.992 27.8652 14.892C27.9955 14.7978 28.1661 14.7747 28.3221 14.7956C28.4875 14.8178 28.643 14.892 28.7719 14.9965C28.8972 15.0978 28.9955 15.2294 29.0577 15.3778C29.0675 15.4009 29.0377 15.4138 29.0204 15.4063C28.6426 15.2414 28.2204 15.0552 28.0119 14.676C27.9199 14.5085 27.8724 14.3129 27.9012 14.1223C27.9288 13.9418 28.0341 13.7836 28.1866 13.6845C28.3337 13.5885 28.5128 13.5494 28.6866 13.5445C28.8759 13.5387 29.063 13.5747 29.2421 13.6343C29.639 13.7667 30.0021 14.024 30.2088 14.3938C30.3124 14.5796 30.3759 14.7885 30.3852 15.0014C30.3932 15.1876 30.3746 15.44 30.1839 15.5329C30.0226 15.6116 29.8248 15.5543 29.6688 15.4898C29.4999 15.42 29.3217 15.3227 29.2124 15.1716C29.1635 15.104 29.1337 15.0223 29.1444 14.9387C29.1568 14.8392 29.2199 14.7609 29.2972 14.7014C29.4715 14.5676 29.6959 14.4952 29.9115 14.4654C30.2906 14.4129 30.6861 14.4898 31.0097 14.6974C31.1599 14.7938 31.2928 14.9178 31.3906 15.0676C31.495 15.2276 31.5524 15.4138 31.5586 15.6045C31.5737 16.0463 31.3266 16.4512 31.0612 16.7849C30.9937 16.8698 30.9235 16.952 30.851 17.0325C30.8328 17.0529 30.8044 17.0307 30.8088 17.008C30.8417 16.836 31.0915 16.8436 31.1875 16.9525C31.263 17.0378 31.2657 17.1649 31.2417 17.2703C31.2159 17.3836 31.1599 17.4916 31.0964 17.5885C30.9746 17.7729 30.7968 17.9329 30.5755 17.98C30.3146 18.036 30.0506 17.9352 29.8257 17.8094C29.6075 17.6872 29.4052 17.5356 29.2261 17.3614C29.0528 17.1925 28.8844 17.0005 28.7861 16.7769C28.6955 16.5707 28.6661 16.3232 28.8177 16.1374C28.9635 15.9587 29.2217 15.8978 29.4426 15.9085C29.6768 15.92 29.9066 16.0129 30.0772 16.1743C30.2466 16.3343 30.3541 16.5552 30.3812 16.7863C30.3879 16.8427 30.3892 16.8996 30.3857 16.956C30.3844 16.976 30.3652 16.9867 30.3475 16.9778C29.871 16.748 29.4235 16.4587 29.0172 16.12C28.8141 15.9507 28.6212 15.7685 28.4404 15.5752C28.3501 15.4787 28.2626 15.3792 28.1781 15.2769C28.0919 15.1725 28.0084 15.0649 27.9439 14.9458C27.8292 14.7343 27.7795 14.4676 27.9008 14.2467C28.0195 14.0307 28.271 13.9654 28.5017 13.9787C28.7275 13.9916 28.9519 14.064 29.1524 14.1672C29.3519 14.2694 29.5337 14.408 29.687 14.5716C29.8404 14.7352 29.9675 14.9249 30.0564 15.1307C30.1008 15.2338 30.1364 15.34 30.1612 15.4494C30.1741 15.5058 30.1844 15.5632 30.191 15.6209C30.1981 15.6849 30.1959 15.7525 30.1644 15.8103C30.1159 15.8987 30.0159 15.9329 29.9208 15.94C29.8048 15.9489 29.6888 15.92 29.5777 15.8912C29.3168 15.8232 29.0648 15.7169 28.8337 15.5787C28.7199 15.5107 28.6084 15.4352 28.5066 15.3498C28.4164 15.2738 28.3284 15.1752 28.319 15.0525C28.3097 14.9285 28.3932 14.8152 28.4812 14.7369C28.5617 14.6654 28.6586 14.6147 28.7612 14.5827C28.9759 14.516 29.2115 14.5249 29.4297 14.5703C29.6964 14.6254 29.9546 14.7263 30.1892 14.8645C30.4079 14.9929 30.6306 15.1556 30.7648 15.3756C30.883 15.5694 30.9181 15.8272 30.7968 16.0285C30.7377 16.1267 30.6435 16.196 30.5346 16.2307C30.4212 16.2667 30.299 16.2649 30.1826 16.248C30.0559 16.2294 29.9324 16.1903 29.8137 16.144C29.6884 16.0952 29.5675 16.0356 29.4528 15.9658C29.3426 15.8987 29.2386 15.8218 29.1417 15.7374C29.1519 15.7387 29.1621 15.74 29.1724 15.7414C29.1164 15.7689 29.1079 15.8347 29.1208 15.8903C29.1381 15.9636 29.1915 16.0125 29.2479 16.0587C29.3084 16.1076 29.3724 16.1543 29.4132 16.2223C29.4475 16.2787 29.4639 16.3445 29.4635 16.4103C29.463 16.5463 29.3972 16.68 29.3012 16.7743C29.1852 16.888 29.0221 16.9383 28.8648 16.9583C28.7803 16.9689 28.6946 16.9712 28.6092 16.9698C28.5675 16.9694 28.5252 16.9658 28.4835 16.9672C28.4324 16.9685 28.3937 16.9743 28.3439 16.9863C28.1937 17.0214 28.0555 17.0974 27.9444 17.2045C27.7657 17.376 27.6657 17.612 27.6128 17.8503C27.6039 17.8903 27.5964 17.9303 27.5901 17.9707C27.5879 18.0018 27.539 17.988 27.5444 17.956Z" fill="#CFBFB3"/>
</g>
</g>
<defs>
<clipPath id="clip0_1141_49367">
<rect width="48" height="48" rx="24" fill="white"/>
</clipPath>
<clipPath id="clip1_1141_49367">
<rect width="48" height="48" fill="white"/>
</clipPath>
</defs>
</svg>
