<svg width="48" height="48" viewBox="0 0 48 48" fill="none" xmlns="http://www.w3.org/2000/svg">
<g clip-path="url(#clip0_1141_49371)">
<rect width="48" height="48" rx="24" fill="white"/>
<g clip-path="url(#clip1_1141_49371)">
<g opacity="0.48">
<path d="M4.41636 38.7529C3.28214 36.4351 5.09769 34.0618 6.25458 31.1293C7.11725 28.9427 5.58747 26.756 5.13636 24.5049C4.73503 22.5013 4.76925 20.1804 5.12081 18.1333C5.60125 15.3382 6.83325 12.6676 8.67903 10.9253C11.5546 8.21023 15.5057 8.08178 18.8257 9.39511C20.2164 9.94534 21.5715 10.7293 23.0439 10.8093C25.1915 10.9262 27.2315 9.54489 29.2888 8.62889C32.0897 7.38222 35.1964 6.98667 37.919 8.20756C41.0057 9.592 43.2884 13.2071 43.1777 17.4631C43.1275 19.3916 41.3635 22.5004 41.6333 24.3827C41.907 26.292 44.7244 32.4796 44.1741 36.7236C43.5608 41.4556 39.3412 43.0605 35.8021 45.1569C27.9541 49.8067 6.59058 43.1964 4.41636 38.7529Z" fill="#F2DDD2"/>
<path d="M13.2005 38.976C11.1259 38.552 9.68366 36.6307 9.83966 34.4978C9.9561 32.9045 10.1863 31.2391 10.6365 30.3751C11.3992 28.9111 10.4232 27.3098 10.2348 25.7254C10.0672 24.3151 10.2361 22.7111 10.6192 21.3143C11.1419 19.4071 12.2032 17.6298 13.653 16.5298C15.9117 14.8165 18.7917 14.9547 21.1237 16.0556C22.1005 16.5165 23.037 17.1374 24.1019 17.2778C25.6557 17.4827 27.2241 16.644 28.7765 16.1285C30.8899 15.4271 33.1726 15.332 35.0757 16.3343C37.2334 17.4703 38.6681 20.1045 38.3237 23.044C38.1677 24.376 36.6921 26.4263 36.7717 27.7449C36.8521 29.0823 38.4868 33.5209 37.8526 36.4334C37.5503 37.8227 35.4681 39.4303 33.1512 40.8289C29.2174 43.204 24.3463 43.3783 20.2348 41.2903C17.9192 40.1143 15.2632 39.3974 13.2005 38.976Z" fill="#CFBFB3"/>
<path d="M16.4349 34.6489C16.4096 34.6262 16.3851 34.6022 16.362 34.5769C15.8669 34.0405 15.9825 33.0187 16.0171 32.3449C16.0696 31.32 16.3909 30.3094 16.5847 29.3076C16.8056 28.1658 16.598 27.1534 16.5531 26.0316C16.5131 25.0334 16.7065 23.9347 17.0314 23.0027C17.4749 21.7298 18.2696 20.6027 19.2874 19.9871C20.8736 19.0276 22.7785 19.4205 24.2709 20.4262C24.8958 20.8476 25.4865 21.3756 26.1865 21.5831C27.2074 21.8854 28.2914 21.4636 29.3483 21.2649C30.7865 20.9947 32.3069 21.1636 33.5198 22.0565C34.8949 23.0689 35.714 25.0489 35.3367 27.0582C35.1656 27.9689 34.7674 28.8365 34.7531 29.7618C34.7389 30.7005 35.0842 31.5334 35.2087 32.4356C35.3056 33.1369 34.5598 34.0418 34.1647 34.5556C33.6207 35.2636 32.9763 35.892 32.2589 36.4196C30.8318 37.4689 29.1051 38.1196 27.3309 38.1667C25.3585 38.2191 23.4336 37.5747 21.5825 36.8734C20.0558 36.2951 18.5451 35.6725 17.0531 35.0067C16.8345 34.9098 16.6118 34.808 16.4349 34.6489Z" fill="#DCCFC6"/>
<path d="M22.5369 7.0726C22.6978 6.12421 22.0474 5.22297 21.0842 5.05962C20.1211 4.89628 19.2099 5.53269 19.049 6.48108C18.8882 7.42948 19.5386 8.33072 20.5018 8.49406C21.4649 8.6574 22.3761 8.02099 22.5369 7.0726Z" fill="#F2DDD2"/>
<path d="M6.03687 9.89775C6.22487 10.1586 6.59109 10.2204 6.85465 10.0364C7.1182 9.85241 7.17954 9.49197 6.99109 9.23108C6.80309 8.97019 6.43687 8.90841 6.17332 9.09241C5.90976 9.27641 5.84887 9.6373 6.03687 9.89775Z" fill="#F2DDD2"/>
<path d="M45.1062 11.1747C45.2942 11.4356 45.6604 11.4973 45.924 11.3133C46.1875 11.1293 46.2489 10.7689 46.0604 10.508C45.8724 10.2471 45.5062 10.1853 45.2427 10.3693C44.9791 10.5533 44.9182 10.9138 45.1062 11.1747Z" fill="#F2DDD2"/>
<path d="M43.8982 23.216C44.1689 23.5907 44.6951 23.68 45.0742 23.4156C45.4534 23.1511 45.5414 22.6324 45.2707 22.2578C45 21.8831 44.4738 21.7938 44.0947 22.0582C43.7156 22.3231 43.6276 22.8413 43.8982 23.216Z" fill="#F2DDD2"/>
<path d="M0.581376 33.296C0.978709 33.8466 1.75204 33.9778 2.30893 33.5889C2.86582 33.2 2.99471 32.4386 2.59738 31.888C2.20004 31.3373 1.42671 31.2062 0.86982 31.5951C0.312931 31.9835 0.183598 32.7453 0.581376 33.296Z" fill="#E0E0E0"/>
<path d="M41.0807 46.1573C41.3563 46.5391 41.8923 46.6297 42.278 46.3604C42.6638 46.0911 42.7536 45.5631 42.478 45.1813C42.2025 44.7995 41.6665 44.7088 41.2807 44.9782C40.8949 45.2475 40.8052 45.7755 41.0807 46.1573Z" fill="#E0E0E0"/>
<path d="M44.6191 20.8907C44.7031 21.0071 44.8662 21.0346 44.9836 20.9524C45.1009 20.8702 45.1284 20.7098 45.0444 20.5933C44.9604 20.4773 44.7973 20.4493 44.68 20.5315C44.5622 20.6133 44.5351 20.7742 44.6191 20.8907Z" fill="#F2DDD2"/>
<path d="M35.8947 45.3875C36.0178 45.5582 36.2578 45.5991 36.4302 45.4782C36.6027 45.3578 36.6431 45.1213 36.5196 44.9507C36.3965 44.78 36.1565 44.7391 35.984 44.86C35.8116 44.9804 35.7716 45.2164 35.8947 45.3875Z" fill="#E0E0E0"/>
<path d="M3.72788 41.2782C3.85099 41.4489 4.09099 41.4898 4.26343 41.3689C4.43588 41.2484 4.47632 41.012 4.35276 40.8413C4.22965 40.6707 3.98965 40.6298 3.81721 40.7507C3.64477 40.8711 3.60432 41.1076 3.72788 41.2782Z" fill="#E0E0E0"/>
<path d="M20.0927 33.636C20.0727 33.6262 20.0531 33.6155 20.034 33.6035C19.63 33.3542 19.5349 32.6995 19.446 32.2751C19.3104 31.6293 19.3491 30.9471 19.3073 30.292C19.2602 29.5453 18.9607 28.9511 18.7473 28.2622C18.5575 27.6489 18.4998 26.9337 18.5531 26.2995C18.626 25.4337 18.9473 24.5991 19.4949 24.044C20.3487 23.1795 21.6282 23.1009 22.746 23.4733C23.214 23.6293 23.6775 23.8573 24.1584 23.868C24.8598 23.8831 25.4815 23.4373 26.1224 23.1351C26.9953 22.7235 27.9931 22.5715 28.9135 22.9208C29.9575 23.3173 30.8064 24.4084 30.8967 25.7208C30.9375 26.3155 30.8264 26.9222 30.97 27.4991C31.1158 28.0844 31.4731 28.5435 31.7011 29.0831C31.8784 29.5026 31.5518 30.1906 31.3847 30.5769C31.1544 31.1089 30.8469 31.6084 30.4762 32.0573C29.7389 32.9511 28.7447 33.6471 27.6207 33.9769C26.3709 34.3435 25.0371 34.2689 23.7407 34.1462C22.6713 34.0453 21.6055 33.9142 20.5442 33.7533C20.3904 33.7302 20.2313 33.7049 20.0927 33.636Z" fill="#CFBFB3"/>
</g>
<g opacity="0.89">
<path d="M35.2342 24.3462L44.0494 24.2187C46.5209 24.1827 48.5578 25.9156 48.5987 28.0885L49.0618 49.0751L28.98 49.3662L28.2676 30.6765C28.2031 27.2369 31.3222 24.4027 35.2342 24.3462Z" fill="#B5A094"/>
<path d="M31.1389 13.3658C31.218 14.0098 31.6487 14.5445 32.2438 14.8422L32.1998 16.3267C32.1771 17.088 32.8607 17.7209 33.7264 17.7405L41.542 17.9191L41.554 17.5107C42.2802 17.552 42.9344 17.0996 43.046 16.4551C43.1198 16.0289 42.9384 15.62 42.6024 15.3489C42.9993 15.1738 43.2976 14.8382 43.3696 14.4231C43.4816 13.776 43.0056 13.1702 42.2927 13.0231C42.0504 12.348 41.6118 11.7342 40.866 11.3271C40.8958 11.196 40.9042 11.0587 40.8869 10.9182C40.7962 10.1809 40.0429 9.64802 39.2042 9.72757C38.8482 9.76135 38.5349 9.90091 38.298 10.1062C37.8611 9.40713 36.9496 9.00091 36.0096 9.15735C35.3411 9.26846 34.8047 9.64091 34.5087 10.1311C34.2433 9.95735 33.9064 9.86668 33.5513 9.90046C32.8051 9.97157 32.2656 10.5609 32.3464 11.2169C32.3544 11.2818 32.3696 11.3445 32.3891 11.4058C31.5642 11.7489 31.0353 12.5222 31.1389 13.3658Z" fill="#B5A094"/>
<path d="M43.2194 17.4889C43.2069 16.8254 42.5847 16.296 41.8296 16.3067L41.6914 16.3089C41.3976 16.4876 41.0429 16.5952 40.6589 16.6005C39.6261 16.6156 38.7749 15.8916 38.7581 14.9836C38.7545 14.8049 38.7852 14.6325 38.8421 14.4703C38.7287 14.4054 38.6247 14.3294 38.5301 14.2449C38.4581 14.2534 38.3856 14.2592 38.3114 14.2605C37.8425 14.2672 37.4118 14.1205 37.0789 13.8743C36.6176 14.3387 35.9447 14.6374 35.1887 14.6485C34.6381 14.6565 34.1261 14.5098 33.7029 14.2565C33.5029 14.4587 33.2296 14.6032 32.9189 14.6587L33.0238 20.2476C33.0518 21.752 34.4621 22.9516 36.1736 22.9267L36.2349 22.9258L36.2758 25.1125C36.2998 26.384 37.4914 27.3978 38.9376 27.3765C40.3838 27.3556 41.5367 26.308 41.5132 25.0365L41.4269 20.4712C41.4261 20.42 41.4203 20.3703 41.4154 20.32C41.4194 20.256 41.4216 20.1912 41.4203 20.1263L41.3981 18.9383L41.8789 18.9312C42.6341 18.92 43.2358 18.3734 43.2234 17.7094L43.2194 17.4889Z" fill="#D6BFB4"/>
<path opacity="0.1" d="M40.9013 19.9312C40.9284 21.3681 39.6249 22.5521 37.9906 22.5761L36.028 22.6045C34.3933 22.6281 33.0466 21.4823 33.0195 20.0454L33.0235 20.2476C33.0515 21.7521 34.4618 22.9516 36.1733 22.9267L36.2924 22.925L36.7035 23.3734C37.3658 24.0952 38.6164 24.0965 39.2804 23.3761L40.3044 22.2645C40.9995 21.7552 41.4364 20.9836 41.4204 20.1263L41.3982 18.9383L40.8831 18.9458L40.9013 19.9312Z" fill="#040000"/>
<path d="M36.5196 17.1534C36.5218 17.272 36.6329 17.3663 36.7676 17.3645C36.9022 17.3627 37.0098 17.2649 37.0076 17.1463C37.0053 17.028 36.8942 16.9334 36.7596 16.9351C36.6249 16.9369 36.5173 17.0347 36.5196 17.1534Z" fill="#B5A094"/>
<path d="M33.5869 17.1956C33.5892 17.3143 33.7003 17.4085 33.8349 17.4067C33.9696 17.4049 34.0772 17.3072 34.0749 17.1885C34.0727 17.0698 33.9616 16.9756 33.8269 16.9774C33.6923 16.9796 33.5847 17.0774 33.5869 17.1956Z" fill="#B5A094"/>
<path opacity="0.57" d="M36.4757 17.4951C36.4562 17.4951 36.4371 17.4871 36.4246 17.4725C36.4037 17.4476 36.4095 17.4125 36.438 17.3943C36.8113 17.1511 37.1406 17.3769 37.1437 17.3791C37.1713 17.3983 37.1757 17.4338 37.1535 17.4578C37.1317 17.4818 37.0917 17.4858 37.0642 17.4667C37.0535 17.4596 36.8064 17.2934 36.5131 17.484C36.5024 17.4916 36.4891 17.4951 36.4757 17.4951Z" fill="#B5A094"/>
<path opacity="0.57" d="M33.5002 17.5382C33.4806 17.5382 33.4615 17.5302 33.449 17.5156C33.4282 17.4907 33.4339 17.4556 33.4624 17.4373C33.8357 17.1942 34.1646 17.42 34.1682 17.4222C34.1957 17.4413 34.2002 17.4769 34.1779 17.5009C34.1562 17.5253 34.1162 17.5289 34.0886 17.5098C34.077 17.5018 33.8304 17.3373 33.5375 17.5271C33.5264 17.5347 33.513 17.5382 33.5002 17.5382Z" fill="#B5A094"/>
<path d="M35.876 21.6236C35.8636 21.6236 35.8507 21.6205 35.8396 21.6134C35.8107 21.5956 35.804 21.5609 35.824 21.5356C36.1071 21.1814 36.5942 21.3018 36.5991 21.3031C36.6329 21.312 36.652 21.3427 36.6422 21.3725C36.6324 21.4022 36.5973 21.4191 36.5636 21.4107C36.5471 21.4067 36.1578 21.312 35.928 21.6C35.9156 21.6156 35.896 21.6236 35.876 21.6236Z" fill="#B5A094"/>
<path d="M37.2352 18.5605C37.1543 18.5605 37.0725 18.5547 36.9898 18.5431C36.5876 18.4858 36.2347 18.2943 35.9965 18.0036C35.7583 17.7129 35.6627 17.3583 35.7281 17.0045C35.7934 16.6507 36.0112 16.3409 36.3418 16.1311C36.6725 15.9218 37.0761 15.8378 37.4783 15.8951C38.3085 16.0138 38.8747 16.704 38.7401 17.4338C38.6187 18.0916 37.9698 18.5605 37.2352 18.5605ZM37.2316 16.1014C36.9672 16.1014 36.7098 16.1738 36.4907 16.3125C36.2152 16.4871 36.0338 16.7454 35.9792 17.04C35.9245 17.3347 36.0041 17.6303 36.2027 17.8725C36.4014 18.1147 36.6952 18.2743 37.0303 18.3223C37.7214 18.4209 38.3765 18.0063 38.4889 17.3978C38.6009 16.7894 38.1294 16.2143 37.4378 16.1156C37.3689 16.1063 37.3001 16.1014 37.2316 16.1014Z" fill="white"/>
<path d="M33.6936 18.6618C33.6127 18.6618 33.5309 18.656 33.4483 18.6444C32.618 18.5258 32.0518 17.8356 32.1869 17.1058C32.3216 16.3756 33.1065 15.8782 33.9371 15.9964C34.7674 16.1151 35.3336 16.8053 35.1985 17.5351C35.0776 18.1924 34.4283 18.6618 33.6936 18.6618ZM33.6923 16.2022C33.0803 16.2022 32.5389 16.5929 32.438 17.1409C32.3256 17.7493 32.7971 18.3244 33.4891 18.4231C34.1816 18.5222 34.8354 18.1071 34.9478 17.4987C35.0603 16.8902 34.5887 16.3151 33.8967 16.2164C33.8283 16.2071 33.7598 16.2022 33.6923 16.2022Z" fill="white"/>
<path d="M38.0687 15.6538C37.938 15.6765 37.7869 15.6338 37.638 15.6C37.4891 15.5631 37.338 15.5298 37.206 15.5045C37.0736 15.4791 36.9203 15.4547 36.7674 15.4338C36.6158 15.4102 36.4576 15.3934 36.3509 15.3258C36.2478 15.2618 36.2314 15.132 36.4025 15.0089C36.5647 14.888 36.934 14.7938 37.3723 14.8765C37.8096 14.9609 38.0958 15.1805 38.1816 15.3485C38.274 15.5218 38.194 15.6334 38.0687 15.6538Z" fill="#B5A094"/>
<path d="M33.2718 15.736C33.4033 15.7529 33.5522 15.704 33.6989 15.6645C33.846 15.6214 33.9945 15.5818 34.1251 15.5511C34.2562 15.5205 34.4078 15.4894 34.5593 15.4622C34.7091 15.4325 34.8669 15.4089 34.9696 15.3369C35.0691 15.2689 35.0785 15.1382 34.9007 15.0227C34.7322 14.9089 34.358 14.8302 33.9247 14.9311C33.4922 15.0338 33.2185 15.2654 33.142 15.4365C33.0593 15.6134 33.1451 15.7214 33.2718 15.736Z" fill="#B5A094"/>
<path d="M42.2165 18.0614C42.2081 18.0614 42.1992 18.06 42.1912 18.0569L41.6299 17.8414L42.0174 17.0871C42.0321 17.0591 42.0694 17.0467 42.1014 17.0591C42.1334 17.072 42.1477 17.1049 42.1334 17.1329L41.7988 17.784L42.2423 17.9543C42.2743 17.9667 42.289 17.9996 42.2752 18.028C42.2641 18.0485 42.241 18.0614 42.2165 18.0614Z" fill="#B5A094"/>
<path d="M35.2573 18.8734C34.7995 18.8734 34.4235 18.5494 34.416 18.1458L34.4151 18.0978C34.4111 17.8938 34.5969 17.7249 34.8289 17.7218C34.976 17.7196 35.1129 17.6676 35.2151 17.5747C35.3173 17.4818 35.3724 17.3596 35.3698 17.2303L35.348 16.0671C35.3475 16.036 35.3755 16.0107 35.4107 16.0103C35.4111 16.0103 35.4111 16.0103 35.4115 16.0103C35.4462 16.0103 35.4747 16.0347 35.4751 16.0654L35.4969 17.2285C35.5031 17.5569 35.2044 17.828 34.8311 17.8338C34.6693 17.836 34.5395 17.9538 34.5422 18.096L34.5431 18.144C34.5498 18.4867 34.8689 18.7618 35.2573 18.7618C35.2613 18.7618 35.2653 18.7618 35.2693 18.7618L35.8644 18.7534C35.8649 18.7534 35.8649 18.7534 35.8653 18.7534C35.9 18.7534 35.9284 18.7778 35.9289 18.8085C35.9293 18.8396 35.9013 18.8649 35.8662 18.8654L35.2711 18.8738C35.2667 18.8729 35.2618 18.8734 35.2573 18.8734Z" fill="#B5A094"/>
<path d="M35.7077 17.4023C35.7051 17.4023 35.7024 17.4023 35.6997 17.4018L35.1535 17.3716C35.0833 17.3676 35.0304 17.3147 35.0344 17.2529C35.0388 17.1911 35.0993 17.1436 35.1691 17.1485L35.7153 17.1787C35.7855 17.1827 35.8388 17.2356 35.8344 17.2974C35.8304 17.3565 35.7744 17.4023 35.7077 17.4023Z" fill="white"/>
<path d="M38.3328 18.6098C38.3328 18.6098 37.5608 19.0076 36.7568 19.1814C35.9532 19.3547 36.6621 20.3947 37.8915 20.1849C39.1208 19.9747 38.987 18.4316 38.3328 18.6098Z" fill="white"/>
<path d="M38.5667 16.9587C38.5058 16.9587 38.4525 16.9205 38.4413 16.8663C38.4293 16.8054 38.4756 16.7476 38.5449 16.7369L41.1747 16.3347C41.2449 16.3245 41.3098 16.3649 41.3218 16.4258C41.3338 16.4867 41.2876 16.5445 41.2182 16.5552L38.5885 16.9574C38.5813 16.9583 38.5742 16.9587 38.5667 16.9587Z" fill="white"/>
</g>
<g opacity="0.89">
<path d="M13.9319 41.9289L13.559 22.9626L6.8457 23.0662L7.7617 42.3826L7.19281 49.4218L14.8488 49.3035C14.8048 49.2395 14.7741 49.1666 14.7648 49.0862L13.9319 41.9289Z" fill="#B5A094"/>
<path d="M18.5142 40.5529L25.7125 37.8422L21.0116 27.4475C20.3147 25.9071 18.9529 24.7146 17.2627 24.1657L13.5596 22.9631L13.9325 41.9293L14.7653 49.0866C14.7747 49.1671 14.8053 49.24 14.8493 49.304C14.9529 49.4555 15.1378 49.5515 15.3422 49.5386L19.14 49.2991C19.5667 49.272 19.8765 48.908 19.808 48.5129L18.5142 40.5529Z" fill="#B5A094"/>
<path d="M6.84591 23.0662L2.08636 24.7147C0.771249 25.1702 -0.158529 26.2773 -0.319418 27.5796L-2.3252 43.8133V50.4236L2.12147 49.1436C2.0668 49.5404 2.38903 49.8947 2.81658 49.9084L6.62103 50.0311C6.91258 50.0404 7.15969 49.8333 7.18192 49.5613L7.19303 49.4213L7.76191 42.3822L6.84591 23.0662Z" fill="#B5A094"/>
<path d="M15.5805 14.0089C15.7067 13.7902 15.7871 13.5445 15.8049 13.28C15.8623 12.4169 15.2463 11.6618 14.3809 11.4582C14.3534 10.9551 13.9258 10.5405 13.3751 10.5085C13.0934 10.492 12.8311 10.5796 12.6289 10.7347C12.3747 10.3333 11.936 10.0387 11.4036 9.96801C10.6116 9.86268 9.87115 10.2858 9.58537 10.9502C9.39604 10.9498 9.20537 10.9529 9.01515 10.9587C5.28092 11.0791 5.00804 13.9307 5.24181 15.8222C4.88448 16.1205 4.69915 16.5822 4.79959 17.0533C4.9427 17.7236 5.6107 18.1702 6.32404 18.0965L6.35692 18.5236L14.5627 17.9716C15.0218 17.9405 15.3676 17.5676 15.3343 17.1382L15.1334 14.5245C15.3214 14.3885 15.476 14.2129 15.5805 14.0089Z" fill="#B5A094"/>
<path d="M14.1024 14.8218C13.5904 14.792 13.1539 14.5298 12.9006 14.1525C12.6011 14.4294 12.1828 14.5916 11.7291 14.5654C11.0779 14.5276 10.5486 14.1143 10.3637 13.5654C9.68017 13.5916 9.14283 13.6303 8.96906 13.6814C8.41128 13.8463 7.93839 14.2796 7.7735 14.8174C7.62372 15.3058 7.69395 15.84 7.68372 16.3418C7.67883 16.5734 7.68239 16.8049 7.67617 17.036C7.67395 17.1174 7.70017 17.2911 7.65083 17.3645C7.26506 17.936 7.55972 17.2107 7.01572 16.5974L7.02417 16.704L6.71706 16.7245C6.03306 16.7707 5.51839 17.3263 5.56772 17.9654C5.61706 18.6049 6.21128 19.0858 6.89528 19.04L7.20239 19.0196L7.24372 19.5569L7.24995 19.636L7.30283 20.3227C7.3215 20.5676 7.37395 20.8023 7.45528 21.024L7.5015 23.6338C7.52683 25.0587 8.79439 26.2054 10.3184 26.1818C11.8424 26.1583 13.0691 24.9734 13.0437 23.5485L13.0277 22.644C14.2957 22.256 15.1682 21.1009 15.0682 19.8005L15.0153 19.1138L14.6797 14.7511C14.4984 14.8076 14.3042 14.8338 14.1024 14.8218Z" fill="#D6BFB4"/>
<path opacity="0.1" d="M15.0678 19.8005L15.0149 19.1138C15.1327 20.6463 13.8993 21.9783 12.2602 22.0885L10.4318 22.2116C8.79267 22.3218 7.36822 21.1689 7.25 19.6365L7.30289 20.3232C7.38067 21.3356 8.02911 22.1823 8.93311 22.6085C8.93311 22.6178 8.93178 22.6272 8.93222 22.6365C8.94822 23.5481 9.75178 24.2747 10.7269 24.2596C11.6367 24.2454 12.374 23.5903 12.4553 22.7623C14.0224 22.5872 15.182 21.2885 15.0678 19.8005Z" fill="#040000"/>
<path d="M6.53653 18.1818C6.52364 18.1818 6.5103 18.1773 6.50052 18.168C6.48008 18.1493 6.48008 18.1191 6.50008 18.1L6.74275 17.8693L6.32675 17.4844C6.30675 17.4658 6.3063 17.4351 6.3263 17.4164C6.3463 17.3978 6.37875 17.3973 6.39919 17.416L6.88808 17.8684L6.57341 18.1676C6.56319 18.1773 6.54986 18.1818 6.53653 18.1818Z" fill="#B5A094"/>
<path opacity="0.57" d="M12.4415 21.0542C12.429 21.0542 12.4166 21.0502 12.4068 21.0418C12.1175 20.7951 11.7615 20.9742 11.7579 20.976C11.7335 20.9889 11.7019 20.9804 11.6881 20.9569C11.6743 20.9338 11.6832 20.9044 11.7081 20.8916C11.7121 20.8893 12.133 20.6778 12.4761 20.9707C12.497 20.9884 12.4988 21.0191 12.4792 21.0387C12.4695 21.0489 12.4557 21.0542 12.4415 21.0542Z" fill="#989593"/>
<path d="M10.1701 18.0231C10.1701 18.0231 10.8368 18.3645 11.5248 18.4822C12.2132 18.6 11.6328 19.6738 10.5812 19.5485C9.53009 19.4231 9.60921 17.8911 10.1701 18.0231Z" fill="white"/>
<path d="M9.38994 16.0214C9.51705 16.012 9.64372 15.9329 9.77083 15.8632C9.8975 15.7903 10.0264 15.72 10.1406 15.6632C10.2553 15.6058 10.3891 15.5445 10.5237 15.4863C10.6562 15.4258 10.7975 15.3707 10.8753 15.2778C10.9513 15.1889 10.9273 15.0556 10.7322 14.9747C10.5464 14.8938 10.1771 14.8894 9.7975 15.0783C9.41927 15.2685 9.2215 15.5569 9.1935 15.7454C9.16061 15.94 9.26816 16.0316 9.38994 16.0214Z" fill="#B5A094"/>
<path d="M14.082 15.5289C13.9815 15.5507 13.8633 15.5187 13.7473 15.4942C13.6308 15.4671 13.5135 15.4427 13.4104 15.4245C13.3073 15.4062 13.1877 15.3898 13.0691 15.376C12.9513 15.36 12.8282 15.3498 12.7437 15.2956C12.6624 15.2445 12.6464 15.1365 12.7762 15.0294C12.8988 14.9245 13.1824 14.8369 13.5242 14.8956C13.8651 14.956 14.0922 15.1329 14.1624 15.2711C14.238 15.4138 14.1788 15.5089 14.082 15.5289Z" fill="#B5A094"/>
<path d="M11.8866 18.0054C11.8231 18.0054 11.7573 18.0032 11.6893 17.9978C11.6609 17.996 11.6395 17.9729 11.6418 17.9463C11.644 17.9196 11.6711 17.8983 11.6969 17.9018C11.844 17.9125 11.9795 17.9112 12.1 17.8978C12.3173 17.8743 12.4986 17.7729 12.5849 17.6272C12.6453 17.5249 12.6502 17.412 12.5978 17.3094L11.9475 16.0329C11.9351 16.0089 11.9462 15.98 11.972 15.9689C11.9973 15.9574 12.0284 15.9676 12.0404 15.9916L12.6906 17.268C12.7578 17.3996 12.752 17.5436 12.6751 17.6738C12.5729 17.8472 12.3622 17.9667 12.112 17.9938C12.0413 18.0014 11.9662 18.0054 11.8866 18.0054Z" fill="#B5A094"/>
<path d="M10.9193 16.8551C10.9913 16.9742 10.946 17.1254 10.8184 17.1929C10.6909 17.26 10.5291 17.2182 10.4571 17.0987C10.3851 16.9796 10.4304 16.8285 10.558 16.7609C10.6855 16.6938 10.8473 16.736 10.9193 16.8551Z" fill="#B5A094"/>
<path d="M13.8925 16.7529C13.9645 16.872 13.9192 17.0231 13.7921 17.0907C13.6645 17.1578 13.5027 17.116 13.4307 16.9965C13.3587 16.8769 13.4041 16.7262 13.5312 16.6587C13.6587 16.5916 13.8205 16.6338 13.8925 16.7529Z" fill="#B5A094"/>
</g>
<path d="M31.0487 48.0777H16.7998L17.4914 44.5595H30.3478L31.0487 48.0777Z" fill="#332418"/>
<path d="M38.6325 33.4004C38.6325 33.4004 38.4521 33.2306 38.4308 32.5195C38.4094 31.8084 38.4836 31.3204 38.4308 30.9488C38.3779 30.5773 38.2001 29.9617 38.4268 29.9195C38.6534 29.8769 38.9614 29.9622 39.1205 30.6942C39.2796 31.4266 39.2161 31.6706 39.7681 31.7449C40.3201 31.8191 40.9037 31.3946 41.0948 31.2035C41.2859 31.0124 42.1241 29.9755 42.4108 29.9102C42.6974 29.8448 42.6672 30.1844 42.6352 30.2164C42.6032 30.2484 41.5374 31.6413 41.4023 31.8191C41.3668 31.8662 41.4236 31.9675 41.5721 31.9466C41.7205 31.9253 42.8881 31.2884 43.0899 31.1613C43.2917 31.0337 43.6205 30.928 43.6632 31.1613C43.7059 31.3946 43.3552 31.6484 43.3552 31.6484C43.3552 31.6484 43.557 31.7448 43.3765 31.9466C43.1961 32.1484 41.3916 33.1777 41.3916 33.1777C41.3916 33.1777 41.2961 33.56 41.2219 33.6555C41.1476 33.7511 39.9801 34.6426 39.7361 34.664C39.4921 34.6853 39.2161 34.7382 39.2161 34.7382L38.8339 34.9609C38.8339 34.9609 38.2503 34.06 38.4245 33.5577C38.4383 33.5191 38.6325 33.4004 38.6325 33.4004Z" fill="#F9DACE"/>
<path d="M41.3822 33.2395C41.3791 33.2386 41.3831 33.2151 41.3911 33.1729C41.3982 33.1306 41.412 33.0693 41.4106 32.9946C41.4102 32.9213 41.3844 32.8298 41.3111 32.7689C41.276 32.74 41.2253 32.7222 41.18 32.7324C41.1346 32.7426 41.0986 32.7866 41.0622 32.832C40.9898 32.9102 40.9498 33.0004 40.9151 33.0875C40.8813 33.1742 40.8569 33.256 40.8391 33.3262L40.8066 33.3191C40.8044 33.3266 40.8111 33.3342 40.8155 33.3351C40.816 33.3355 40.8182 33.3355 40.8169 33.3355C40.816 33.3355 40.8138 33.336 40.8115 33.336L40.7969 33.3395C40.7871 33.3422 40.7773 33.3458 40.768 33.3489C40.7489 33.3555 40.7311 33.3626 40.7146 33.3698C40.6818 33.3835 40.6533 33.3969 40.6311 33.4084C40.6084 33.42 40.592 33.4298 40.5813 33.4373C40.5706 33.4449 40.5684 33.4502 40.5671 33.4506C40.5595 33.4484 40.5778 33.4191 40.6222 33.3924C40.644 33.3782 40.6715 33.3622 40.704 33.3458C40.7204 33.3378 40.7382 33.3293 40.7573 33.3213C40.7671 33.3173 40.7769 33.3133 40.788 33.3098C40.7933 33.308 40.7991 33.3062 40.8053 33.3049C40.8089 33.3044 40.812 33.3035 40.8164 33.3031C40.8178 33.3026 40.8226 33.3031 40.8262 33.304C40.8338 33.3058 40.8418 33.316 40.8391 33.3266L40.8066 33.3195C40.8213 33.2466 40.844 33.1626 40.8769 33.0733C40.9093 32.9858 40.9538 32.8844 41.028 32.8044C41.0644 32.7604 41.1044 32.7058 41.1706 32.6902C41.2351 32.6769 41.2951 32.7022 41.3373 32.7373C41.4226 32.8106 41.4458 32.9164 41.4426 32.9942C41.44 33.0742 41.4213 33.1351 41.4089 33.1764C41.3942 33.2182 41.3849 33.2404 41.3822 33.2395Z" fill="#DEC5BE"/>
<path d="M43.3688 31.668C43.3661 31.672 43.3457 31.6524 43.2999 31.6444C43.2546 31.6355 43.1861 31.6458 43.1079 31.6787C42.9403 31.7569 42.7301 31.8551 42.4981 31.9635C42.259 32.0733 42.0412 32.1706 41.8826 32.2386C41.7239 32.3071 41.6248 32.3466 41.6221 32.3409C41.6195 32.3355 41.7141 32.2858 41.8692 32.2102C42.0243 32.1346 42.2399 32.0329 42.479 31.9231C42.719 31.8138 42.9341 31.7146 43.0959 31.6493C43.1781 31.6186 43.2541 31.612 43.303 31.6275C43.3532 31.6422 43.3706 31.6675 43.3688 31.668Z" fill="#DEC5BE"/>
<path d="M40.3792 33.492C40.3823 33.4964 40.3272 33.5413 40.2241 33.5906C40.1214 33.6408 39.9681 33.6853 39.7974 33.7111C39.6267 33.7368 39.4743 33.7582 39.3694 33.7942C39.2641 33.8284 39.2063 33.8684 39.2023 33.8622C39.1992 33.8586 39.2521 33.8084 39.3587 33.7648C39.4649 33.7195 39.6218 33.6928 39.7903 33.6675C39.9596 33.6417 40.1085 33.6035 40.2116 33.5617C40.3152 33.5217 40.3756 33.4862 40.3792 33.492Z" fill="#DEC5BE"/>
<path d="M41.1451 32.7471C41.1317 32.7484 41.1064 32.5524 41.0335 32.3217C40.962 32.0906 40.8713 31.9151 40.8828 31.9089C40.8922 31.9026 41.0024 32.0724 41.0757 32.3089C41.15 32.5449 41.1562 32.7471 41.1451 32.7471Z" fill="#DEC5BE"/>
<path d="M39.4351 33.1693C39.4293 33.1648 39.4755 33.1075 39.5257 33.0022C39.576 32.8977 39.6253 32.7408 39.6208 32.564C39.6164 32.3871 39.56 32.2324 39.5044 32.1306C39.4493 32.028 39.4 31.9728 39.4057 31.968C39.4088 31.9644 39.4671 32.0128 39.5315 32.1151C39.5955 32.216 39.6604 32.3768 39.6648 32.5631C39.6693 32.7493 39.6124 32.9128 39.5533 33.0168C39.4942 33.1213 39.4386 33.1724 39.4351 33.1693Z" fill="#DEC5BE"/>
<path d="M5.34244 33.7315C5.34244 33.7315 6.09933 33.9044 6.57533 33.9693C6.84466 34.0062 7.698 34.2 8.17177 34.4604C8.51844 34.6511 8.41311 35.0422 8.41311 35.0422L9.45266 33.436L9.25755 32.8875C9.25755 32.8875 9.36866 32.0417 9.17089 31.5248C8.98689 31.0435 9.46288 29.7053 9.14911 29.6648C8.80333 29.6204 8.65177 29.9244 8.47844 30.5302C8.30555 31.136 8.19711 31.4817 7.78644 31.5466C7.37533 31.6115 6.12777 30.8888 5.63177 30.5226C5.23666 30.2306 4.73889 29.9128 4.62466 30.1435C4.50555 30.3831 5.02822 30.9511 6.042 31.6817C6.09133 31.7057 6.20066 31.9671 5.58066 31.6986C5.35889 31.6026 4.17311 30.7351 3.91355 30.8648C3.654 30.9946 3.82377 31.2964 3.95177 31.4413C4.12111 31.6324 5.19533 32.3022 5.19533 32.3022C5.19533 32.3022 3.95222 31.9062 3.86555 31.9711C3.77889 32.036 3.67711 32.1622 3.80689 32.3524C3.93666 32.5426 4.97711 32.9928 5.30155 33.1226C5.626 33.2524 6.16511 33.2897 6.16511 33.2897C6.09089 33.2897 5.40377 33.2617 5.29711 33.3177C5.19044 33.3733 5.15311 33.5404 5.19044 33.6057C5.22689 33.6697 5.34244 33.7315 5.34244 33.7315Z" fill="#F9DACE"/>
<path d="M7.96964 33.3222C7.96787 33.324 7.94742 33.3098 7.91409 33.2791C7.88076 33.2484 7.83676 33.1995 7.79098 33.1324C7.69942 33 7.60831 32.7813 7.61676 32.5298C7.62609 32.2778 7.73231 32.0662 7.8332 31.9409C7.88387 31.8773 7.93142 31.8315 7.96653 31.8031C8.00164 31.7746 8.02342 31.7618 8.02476 31.764C8.03009 31.7702 7.94965 31.8306 7.85809 31.9595C7.76653 32.0862 7.66965 32.2911 7.66076 32.5315C7.65231 32.772 7.73453 32.9831 7.8172 33.116C7.89987 33.2502 7.97542 33.3164 7.96964 33.3222Z" fill="#DEC5BE"/>
<path d="M6.54467 31.7728C6.5509 31.7759 6.51756 31.8519 6.47134 31.9768C6.42512 32.1017 6.36912 32.2777 6.32823 32.4768C6.28778 32.6759 6.27089 32.8599 6.26467 32.9928C6.25845 33.1262 6.25934 33.2093 6.25267 33.2093C6.24734 33.2097 6.23534 33.1271 6.23356 32.9919C6.23178 32.8573 6.24423 32.6702 6.28512 32.4675C6.32645 32.2653 6.38823 32.0884 6.44245 31.9648C6.49667 31.8417 6.54023 31.7702 6.54467 31.7728Z" fill="#DEC5BE"/>
<path d="M6.08981 32.5711C6.08804 32.5826 5.87426 32.5555 5.61959 32.4835C5.36448 32.4119 5.16848 32.3231 5.17293 32.3124C5.17737 32.3004 5.37915 32.3702 5.63159 32.4413C5.88404 32.5124 6.09204 32.5586 6.08981 32.5711Z" fill="#DEC5BE"/>
<path d="M39.0032 35.4111L39.4916 34.9889L38.1392 32.5933C38.1356 32.616 37.748 32.8155 37.748 32.8155L39.0032 35.4111Z" fill="#E0E0E0"/>
<path d="M38.0006 32.552C38.0579 32.5951 39.3317 35.6942 39.3317 35.6942C39.3317 35.6942 34.2788 38.5231 33.1161 38.8475C31.9535 39.172 31.2677 38.5662 30.9437 38.1987C30.6197 37.8311 29.749 36.3395 29.749 36.3395L30.6957 29.2942L31.0215 27.8315C31.0215 27.8315 31.5677 28.0991 31.7206 28.856C31.873 29.6129 32.5259 34.5653 32.5259 34.5653C32.5259 34.5653 33.0526 34.1853 33.0606 34.7987L38.0006 32.552Z" fill="#5D463B"/>
<path d="M32.598 36.5266C32.5922 36.5257 32.6051 36.4257 32.6358 36.2666C32.666 36.1071 32.7149 35.8884 32.7794 35.6493C32.8438 35.4102 32.9114 35.1964 32.9642 35.0431C33.0171 34.8897 33.0545 34.7964 33.0602 34.7986C33.066 34.8004 33.0394 34.8973 32.994 35.0528C32.9487 35.2084 32.8865 35.4231 32.822 35.6613C32.7576 35.8995 32.7042 36.1164 32.6665 36.2737C32.6278 36.4302 32.6042 36.5275 32.598 36.5266Z" fill="#332418"/>
<path d="M31.9009 35.9524C31.8978 35.9524 31.8969 35.9306 31.8978 35.8911C31.9 35.8519 31.9053 35.7951 31.9209 35.7262C31.9489 35.5879 32.0196 35.4044 32.1222 35.2168C32.2249 35.0293 32.328 34.8671 32.4013 34.7484C32.4756 34.6302 32.524 34.5591 32.5293 34.5622C32.5347 34.5653 32.4956 34.6422 32.428 34.7644C32.3618 34.8871 32.2622 35.0524 32.1609 35.2382C32.0596 35.4239 31.9858 35.6004 31.9511 35.7342C31.9138 35.8666 31.9089 35.9528 31.9009 35.9524Z" fill="#332418"/>
<path d="M8.58903 35.6111L8.10059 35.1888L9.45303 32.7933C9.45659 32.8159 9.84414 33.0155 9.84414 33.0155L8.58903 35.6111Z" fill="#E0E0E0"/>
<path d="M9.78639 32.752C9.72861 32.7951 8.4375 35.8942 8.4375 35.8942C8.4375 35.8942 13.5579 38.7231 14.7362 39.0475C15.9144 39.372 16.6095 38.7662 16.9379 38.3986C17.2664 38.0311 18.0788 36.7937 18.0788 36.7937L16.9419 28.0026C16.9419 28.0026 16.4806 28.2168 16.3259 28.9737C16.1713 29.7306 15.3348 34.7648 15.3348 34.7648C15.3348 34.7648 14.8015 34.3848 14.7931 34.9982L9.78639 32.752Z" fill="#5D463B"/>
<path d="M28.8396 44.3404H18.353V44.256C18.3374 44.256 18.3267 44.2657 18.3241 44.2706C18.3961 44.1413 18.601 41.8337 18.7214 40.3115L17.0801 28.024L20.5063 27.1542L21.2672 26.2551H25.7241L26.1072 26.8213L30.1632 28.2444L30.1583 28.2786L28.393 40.6088L28.8396 44.3404ZM18.4134 44.256H28.7441L28.3076 40.6084L28.3085 40.6031L30.0694 28.3017L26.0525 26.8924L25.6787 26.3404H21.3059L20.553 27.2302L17.1739 28.088L18.8063 40.3097L18.8059 40.3142C18.805 40.3244 18.7259 41.3226 18.6365 42.3084C18.5152 43.636 18.4561 44.096 18.4134 44.256Z" fill="white"/>
<path d="M23.8114 42.5768L23.7701 42.4902C23.635 42.2053 20.4536 35.5008 20.2034 34.1688C19.9528 32.8351 21.1892 27.3511 21.2443 27.1084L21.4083 26.2551H25.7292L25.7399 26.2813C25.8034 26.4382 26.1212 27.2266 26.1212 27.3408C26.1225 27.356 26.1483 27.4706 26.1808 27.616C26.7848 30.3244 27.379 33.8586 26.7808 35.3137C25.9701 37.2848 23.8692 42.436 23.8479 42.488L23.8114 42.5768ZM21.4781 26.3395L21.3265 27.1266C21.3136 27.1835 20.0385 32.8355 20.2861 34.1533C20.5194 35.3933 23.423 41.5591 23.8052 42.3671C24.0888 41.672 25.9501 37.1097 26.7016 35.2817C27.2919 33.8471 26.699 30.3311 26.0976 27.6346C26.047 27.408 26.0363 27.3577 26.0363 27.3408C26.0363 27.2671 25.8172 26.6991 25.6719 26.3395H21.4781Z" fill="white"/>
<path d="M21.8412 25.0933L20.2341 26.4969L16.9332 28.0053L17.2088 32.3369L18.4199 38.6631L16.8008 46.7822L23.0977 48.0777L23.8177 45.1466L24.5319 48.0777L31.3648 46.8138L29.4657 38.2898L31.0208 27.8311L27.1177 26.2835L25.659 24.8666L21.8412 25.0933Z" fill="#5D463B"/>
<path d="M21.8412 25.0933C21.8532 25.1831 21.1328 27.0893 21.3781 27.9284C21.6239 28.7675 23.8297 36.3804 23.8626 36.3395C23.8955 36.2986 25.3484 30.016 25.5937 28.8906C25.8395 27.7653 26.2079 27.1573 26.2079 26.4529C26.2079 26.1689 25.5848 24.9706 25.5848 24.9706L21.8412 25.0933Z" fill="white"/>
<path d="M24.653 33.0036C24.6587 33.0049 24.6423 33.0978 24.6081 33.2644C24.569 33.4453 24.5174 33.6822 24.4552 33.9684C24.3223 34.5622 24.1334 35.3813 23.9196 36.2844C23.9143 36.3067 23.909 36.3284 23.9045 36.3489L23.8681 36.5022L23.8227 36.3511C23.5592 35.4764 23.3258 34.6858 23.1614 34.1138C23.0841 33.8378 23.0196 33.6093 22.9707 33.4351C22.9276 33.2747 22.9063 33.1849 22.9121 33.1836C22.9174 33.1818 22.9494 33.268 23.0023 33.4258C23.0578 33.5982 23.1307 33.824 23.2183 34.0964C23.3974 34.6644 23.6401 35.452 23.9041 36.3267L23.8223 36.3293C23.8272 36.3089 23.8325 36.2871 23.8374 36.2649C24.0512 35.3618 24.2494 34.5449 24.3974 33.9547C24.4703 33.6711 24.5307 33.436 24.5765 33.2569C24.6201 33.0924 24.6472 33.0022 24.653 33.0036Z" fill="#545453"/>
<path d="M15.2606 36.7267C15.2543 36.728 15.2299 36.6293 15.1917 36.4702C15.1535 36.3111 15.0997 36.0916 15.0357 35.8507C14.9717 35.6093 14.909 35.3924 14.8632 35.2351C14.8175 35.0778 14.7899 34.9804 14.7957 34.9787C14.801 34.9769 14.8397 35.0707 14.893 35.2258C14.9463 35.3809 15.0139 35.5973 15.0784 35.8391C15.1428 36.0809 15.1917 36.3027 15.2224 36.4636C15.253 36.6249 15.2663 36.7253 15.2606 36.7267Z" fill="#332418"/>
<path d="M15.9581 36.1204C15.9501 36.1209 15.9452 36.0342 15.907 35.9013C15.8715 35.7676 15.7968 35.5907 15.6941 35.4053C15.5915 35.22 15.4906 35.0547 15.4235 34.932C15.355 34.8102 15.3155 34.7329 15.3208 34.7298C15.3261 34.7267 15.375 34.7978 15.4501 34.916C15.5243 35.0347 15.6288 35.1964 15.7328 35.384C15.8368 35.5716 15.9088 35.7547 15.9372 35.8933C15.9528 35.9622 15.9586 36.0196 15.9608 36.0587C15.9621 36.0987 15.9612 36.12 15.9581 36.1204Z" fill="#332418"/>
<path d="M16.8003 29.6609C16.8012 29.6609 16.803 29.6684 16.8056 29.684C16.8083 29.7018 16.8123 29.7244 16.8167 29.7524C16.8261 29.816 16.8385 29.9044 16.8545 30.0164C16.887 30.2453 16.935 30.5769 17.0012 30.9853C17.1305 31.8027 17.3318 32.928 17.5678 34.1684C17.807 35.4076 18.0238 36.5289 18.1812 37.3444C18.2563 37.7489 18.3176 38.0773 18.3607 38.308C18.3803 38.4196 18.3954 38.5076 18.4065 38.5707C18.411 38.5987 18.4145 38.6213 18.4172 38.6391C18.4194 38.6547 18.4203 38.6627 18.4194 38.6627C18.4185 38.6627 18.4163 38.6551 18.4127 38.64C18.4087 38.6222 18.4038 38.6 18.3976 38.5724C18.3847 38.5093 18.3665 38.4222 18.3438 38.3116C18.2976 38.0813 18.2318 37.7538 18.1505 37.3507C17.9878 36.5391 17.7616 35.4182 17.5243 34.1769C17.2878 32.936 17.0914 31.8093 16.9701 30.9902C16.9078 30.5809 16.8643 30.2484 16.8372 30.0187C16.8247 29.9062 16.8145 29.8173 16.8074 29.7538C16.8047 29.7253 16.8025 29.7027 16.8007 29.6849C16.7998 29.6693 16.7994 29.6613 16.8003 29.6609Z" fill="#332418"/>
<path d="M23.8171 45.1466C23.8051 45.1466 23.7949 43.2617 23.7949 40.9368C23.7949 38.6111 23.8047 36.7266 23.8171 36.7266C23.8296 36.7266 23.8394 38.6111 23.8394 40.9368C23.8394 43.2617 23.8291 45.1466 23.8171 45.1466Z" fill="#332418"/>
<path d="M23.5686 27.3084C23.5708 27.3102 23.5459 27.3431 23.4988 27.4009C23.4459 27.4644 23.3775 27.5458 23.2953 27.644C23.1215 27.8489 22.8784 28.1311 22.6046 28.4453L22.5899 28.4622L22.5739 28.4484C22.5482 28.4262 22.5228 28.4018 22.4975 28.3778C22.1837 28.0684 21.909 27.78 21.7104 27.5711C21.6162 27.4702 21.5379 27.3862 21.4775 27.3213C21.4233 27.2618 21.3944 27.2276 21.3966 27.2253C21.3988 27.2231 21.4317 27.2533 21.4899 27.3093C21.553 27.3716 21.6348 27.4524 21.7326 27.5493C21.937 27.7524 22.2153 28.0378 22.5282 28.3458C22.553 28.3698 22.5779 28.3938 22.601 28.4138L22.5704 28.4169C22.8446 28.1036 23.0917 27.8244 23.2717 27.6244C23.3579 27.5298 23.4299 27.4511 23.4855 27.3898C23.5375 27.336 23.5664 27.3067 23.5686 27.3084Z" fill="#5D463B"/>
<path d="M26.0407 26.98C26.0429 26.9822 26.0136 27.0195 25.958 27.0853C25.9025 27.1511 25.8212 27.2453 25.718 27.3595C25.5123 27.588 25.2203 27.8991 24.8678 28.2106C24.8074 28.264 24.7469 28.3155 24.6896 28.3644L24.6745 28.3773L24.6603 28.3635C24.3625 28.076 24.1003 27.8191 23.9198 27.6284C23.8292 27.5333 23.758 27.4551 23.7109 27.4C23.6634 27.3449 23.6389 27.3137 23.6407 27.312C23.6429 27.3102 23.6714 27.3377 23.7225 27.3893C23.7789 27.4462 23.8523 27.5195 23.9407 27.608C24.1265 27.7933 24.3918 28.0453 24.6909 28.332L24.6616 28.3311C24.7185 28.2817 24.778 28.2302 24.8389 28.1777C25.1896 27.8675 25.4838 27.5613 25.6954 27.3382C25.7967 27.2306 25.8812 27.1417 25.9456 27.0737C26.0047 27.0115 26.0385 26.9777 26.0407 26.98Z" fill="#5D463B"/>
<path d="M30.8841 29.3168C30.885 29.3168 30.8841 29.3248 30.8819 29.3399C30.8792 29.3577 30.8757 29.3799 30.8712 29.4075C30.8601 29.4697 30.845 29.5564 30.8259 29.6662C30.7846 29.8902 30.7295 30.2155 30.661 30.6177C30.525 31.4217 30.3472 32.5337 30.1579 33.7635C29.9717 34.9924 29.8028 36.1048 29.6801 36.9142C29.6192 37.3146 29.5699 37.6399 29.5352 37.8688C29.5179 37.9791 29.5041 38.0657 29.4939 38.1279C29.489 38.1555 29.485 38.1777 29.4824 38.1951C29.4792 38.2102 29.4775 38.2177 29.477 38.2177C29.4761 38.2177 29.4766 38.2097 29.4779 38.1942C29.4797 38.1764 29.4824 38.1542 29.4855 38.1262C29.4935 38.0635 29.5046 37.9764 29.5184 37.8657C29.5499 37.6364 29.5944 37.3106 29.6495 36.9088C29.7632 36.1013 29.9246 34.9862 30.1148 33.7559C30.3046 32.5262 30.4868 31.4146 30.6308 30.6115C30.7032 30.2102 30.7632 29.8857 30.8095 29.6622C30.8321 29.5528 30.8499 29.4671 30.8632 29.4048C30.8695 29.3777 30.8744 29.3555 30.8784 29.3382C30.881 29.3244 30.8832 29.3168 30.8841 29.3168Z" fill="#332418"/>
<g opacity="0.3">
<path d="M17.7721 37.2502C17.7721 37.2502 17.3045 32.9333 17.3076 32.9502C17.3107 32.9675 18.0774 36.7933 18.0774 36.7933L17.7721 37.2502Z" fill="#040000"/>
</g>
<path d="M30.0373 41.3706C29.7107 41.6275 29.2267 41.7959 28.7204 41.8959C28.2142 41.9959 27.6818 42.0328 27.1533 42.0693C27.1533 42.0693 27.452 43.2928 27.452 43.3702C27.452 43.4475 29.6978 43.107 30.3947 42.7817L30.596 42.6577L30.0373 41.3706Z" fill="#332418"/>
<path d="M30.0377 41.3706C30.0377 41.3697 30.0413 41.3768 30.0479 41.3911C30.0555 41.408 30.0653 41.4288 30.0773 41.4551C30.1044 41.5155 30.1426 41.5999 30.191 41.7071C30.2915 41.9324 30.4342 42.2542 30.611 42.6515L30.6168 42.664L30.6048 42.6715C30.5426 42.7102 30.4742 42.7528 30.4039 42.7964L30.403 42.7968L30.4022 42.7973C30.2262 42.8782 30.0275 42.9386 29.8164 42.9964C29.6048 43.0537 29.379 43.1062 29.1426 43.1555C28.9061 43.2048 28.6586 43.2511 28.4022 43.2937C28.1457 43.3351 27.8813 43.3768 27.6075 43.3995C27.5742 43.4017 27.5413 43.4035 27.5075 43.4035C27.4897 43.4026 27.4746 43.404 27.4515 43.3973C27.4479 43.396 27.4426 43.3928 27.4386 43.3897C27.435 43.3862 27.4315 43.38 27.4306 43.3742L27.4297 43.3684L27.4284 43.3577C27.4275 43.3511 27.4266 43.3435 27.4248 43.3355C27.4137 43.2724 27.399 43.2093 27.3857 43.1466C27.3568 43.0213 27.3288 42.8977 27.3008 42.7764C27.243 42.5337 27.187 42.2986 27.1337 42.0742L27.1279 42.0502L27.1524 42.0484C27.5902 42.0195 27.9964 41.9897 28.3564 41.9391C28.7164 41.8897 29.0297 41.8191 29.2822 41.7368C29.535 41.6555 29.7257 41.5635 29.8502 41.4902C29.9128 41.4537 29.9582 41.4235 29.9906 41.4013C30.0048 41.3915 30.0164 41.384 30.0262 41.3773C30.0342 41.3724 30.0377 41.3702 30.0377 41.3706C30.0377 41.3711 30.0337 41.3746 30.0257 41.3813C30.0168 41.3888 30.0062 41.3977 29.9928 41.4084C29.9648 41.4311 29.9182 41.4644 29.8568 41.5026C29.7337 41.58 29.543 41.6764 29.2902 41.7617C29.0373 41.848 28.7226 41.9222 28.3613 41.9746C27.9999 42.028 27.5928 42.0599 27.155 42.0906L27.1737 42.0648C27.2279 42.2893 27.2844 42.524 27.343 42.7671C27.371 42.8888 27.3995 43.0124 27.4288 43.1377C27.4426 43.2008 27.4568 43.2635 27.4688 43.3284C27.4706 43.336 27.4719 43.3448 27.4728 43.3542L27.4746 43.368V43.3697V43.3706C27.4386 43.3706 27.4648 43.3706 27.4568 43.3706H27.4573C27.4586 43.3702 27.459 43.3693 27.459 43.3684C27.4657 43.3635 27.4684 43.3528 27.4666 43.356C27.475 43.3582 27.4928 43.3595 27.5079 43.3595C27.5395 43.3595 27.5719 43.3577 27.6044 43.3555C27.875 43.3333 28.1395 43.292 28.395 43.2511C28.6506 43.2093 28.8982 43.1635 29.1342 43.1151C29.3702 43.0666 29.5955 43.0155 29.8062 42.9595C30.0164 42.9031 30.2146 42.8444 30.3875 42.7662L30.3857 42.7671C30.4564 42.724 30.5248 42.6822 30.5875 42.644L30.5813 42.664C30.4133 42.2675 30.2777 41.9471 30.1826 41.7226C30.1364 41.6124 30.1004 41.5262 30.0746 41.464C30.063 41.436 30.0537 41.4133 30.0466 41.3955C30.0404 41.38 30.0373 41.3715 30.0377 41.3706Z" fill="#332418"/>
<path d="M17.8673 41.3707C18.1939 41.6276 18.6779 41.796 19.1841 41.896C19.6904 41.996 20.2228 42.0329 20.7513 42.0693C20.7513 42.0693 20.4526 43.2929 20.4526 43.3702C20.4526 43.4476 18.2068 43.1071 17.5099 42.7818L17.3086 42.6578L17.8673 41.3707Z" fill="#332418"/>
<path d="M17.8672 41.3707C17.8672 41.3715 17.8641 41.38 17.8579 41.3955C17.8508 41.4133 17.8414 41.436 17.8299 41.464C17.8041 41.5262 17.7676 41.6129 17.7219 41.7227C17.6268 41.9475 17.4908 42.268 17.3232 42.664L17.317 42.644C17.3796 42.6822 17.4481 42.724 17.5188 42.7671L17.517 42.7662C17.6899 42.844 17.8881 42.9027 18.0983 42.9595C18.3094 43.0155 18.5343 43.0667 18.7703 43.1151C19.0063 43.1635 19.2534 43.2089 19.5094 43.2511C19.765 43.292 20.0299 43.3333 20.3001 43.3555C20.3325 43.3578 20.365 43.3595 20.3965 43.3595C20.4116 43.3595 20.4294 43.3582 20.4379 43.356C20.4379 43.356 20.4361 43.3564 20.4356 43.3578C20.433 43.3595 20.4303 43.364 20.4303 43.368C20.4303 43.3733 20.4308 43.368 20.4308 43.368L20.4325 43.3542C20.4334 43.3449 20.4348 43.336 20.4365 43.3284C20.4481 43.2635 20.4628 43.2004 20.4765 43.1378C20.5054 43.0124 20.5339 42.8889 20.5623 42.7671C20.621 42.5244 20.6774 42.2893 20.7316 42.0649L20.7503 42.0907C20.3125 42.06 19.9054 42.028 19.5441 41.9747C19.1828 41.9227 18.8681 41.848 18.6152 41.7618C18.3619 41.6764 18.1712 41.58 18.0485 41.5027C17.9872 41.4644 17.9405 41.4311 17.9125 41.4084C17.8996 41.3978 17.889 41.3889 17.8796 41.3813C17.8712 41.3751 17.8672 41.3715 17.8672 41.3707C17.8672 41.3702 17.8708 41.3724 17.8788 41.3778C17.8885 41.3844 17.9001 41.3924 17.9143 41.4018C17.9468 41.424 17.9921 41.4542 18.0548 41.4907C18.1792 41.5635 18.3699 41.6555 18.6228 41.7373C18.8752 41.8195 19.1885 41.8902 19.5485 41.9395C19.9085 41.9902 20.3148 42.02 20.7525 42.0489L20.777 42.0507L20.7712 42.0747C20.7179 42.2991 20.6619 42.5342 20.6041 42.7769C20.5761 42.8987 20.5476 43.0222 20.5192 43.1471C20.5054 43.2098 20.4912 43.2729 20.4801 43.336C20.4783 43.344 20.4774 43.3515 20.4765 43.3582L20.4752 43.3689L20.4743 43.3747C20.4734 43.3804 20.4699 43.3867 20.4663 43.3902C20.4623 43.3933 20.457 43.3964 20.4534 43.3978C20.4303 43.4044 20.4152 43.4031 20.3974 43.404C20.3636 43.404 20.3303 43.4022 20.2974 43.4C20.0236 43.3773 19.7592 43.3355 19.5028 43.2942C19.2463 43.252 18.9988 43.2053 18.7623 43.156C18.5259 43.1067 18.3001 43.0542 18.0885 42.9969C17.8774 42.9387 17.6788 42.8787 17.5028 42.7978L17.5019 42.7973L17.501 42.7969C17.4308 42.7533 17.3628 42.7111 17.3001 42.672L17.2881 42.6644L17.2939 42.652C17.4708 42.2547 17.6134 41.9329 17.7139 41.7075C17.7623 41.6004 17.8001 41.516 17.8276 41.4555C17.8396 41.4293 17.8494 41.408 17.857 41.3915C17.8632 41.3769 17.8668 41.3702 17.8672 41.3707Z" fill="#332418"/>
<path d="M26.9046 39.1049C26.905 39.1062 26.8872 39.1111 26.8535 39.1182C26.8152 39.1262 26.7663 39.136 26.7059 39.1484C26.5775 39.1742 26.3912 39.2075 26.1601 39.2444C25.6979 39.3191 25.0561 39.4022 24.3437 39.4551C23.6308 39.5071 22.9837 39.5182 22.5157 39.512C22.2819 39.5089 22.0926 39.5035 21.9619 39.4964C21.9006 39.4929 21.8503 39.4902 21.8112 39.488C21.777 39.4858 21.7588 39.4835 21.7588 39.4822C21.7588 39.4809 21.777 39.4795 21.8112 39.4791C21.8503 39.4791 21.9001 39.4791 21.9619 39.4791C22.0926 39.4809 22.2819 39.4813 22.5157 39.4804C22.9832 39.4787 23.629 39.4627 24.3401 39.4107C25.0512 39.3582 25.6926 39.28 26.1548 39.2133C26.3863 39.18 26.573 39.152 26.7023 39.1311C26.7632 39.1222 26.8126 39.1147 26.8512 39.1089C26.8863 39.1053 26.9046 39.1035 26.9046 39.1049Z" fill="#332418"/>
<path d="M26.0052 39.7804C26.0052 39.7818 25.9914 39.784 25.9643 39.7871C25.9323 39.7898 25.8936 39.7933 25.847 39.7973C25.7381 39.8053 25.5923 39.816 25.4154 39.8289C25.051 39.8555 24.5478 39.8964 23.9932 39.9538C23.4385 40.0115 22.9376 40.0746 22.5754 40.1231C22.3994 40.1466 22.2545 40.1662 22.1465 40.1804C22.0998 40.1862 22.0616 40.1906 22.0296 40.1946C22.003 40.1973 21.9887 40.1982 21.9883 40.1969C21.9878 40.1955 22.0016 40.1915 22.0283 40.1862C22.0598 40.18 22.0981 40.1729 22.1438 40.164C22.2443 40.1453 22.3905 40.1209 22.571 40.0924C22.9323 40.036 23.4332 39.9675 23.9887 39.9098C24.5438 39.8524 25.0483 39.8164 25.4136 39.7978C25.5963 39.7884 25.7443 39.7822 25.8465 39.78C25.8932 39.7791 25.9323 39.7786 25.9643 39.7782C25.991 39.7782 26.0052 39.7786 26.0052 39.7804Z" fill="#332418"/>
<g opacity="0.3">
<path d="M32.5841 36.5862C32.5739 36.6342 32.5663 36.7049 32.5974 36.7426C32.6423 36.7969 32.7103 36.7804 32.757 36.7275C32.8037 36.6746 32.8157 36.6009 32.8263 36.5311C32.9103 35.9618 32.9757 35.368 33.0597 34.7986C32.9099 35.1342 32.8357 35.5084 32.7423 35.8746C32.6797 36.1209 32.6361 36.3413 32.5841 36.5862Z" fill="#040000"/>
</g>
<path d="M24.5948 38.6631C24.5948 38.808 24.4774 38.9253 24.3325 38.9253C24.1876 38.9253 24.0703 38.808 24.0703 38.6631C24.0703 38.5182 24.1876 38.4009 24.3325 38.4009C24.4774 38.4009 24.5948 38.5182 24.5948 38.6631Z" fill="#332418"/>
<path d="M24.6758 40.8431C24.6758 40.988 24.5585 41.1053 24.4136 41.1053C24.2687 41.1053 24.1514 40.988 24.1514 40.8431C24.1514 40.6982 24.2687 40.5809 24.4136 40.5809C24.5585 40.5809 24.6758 40.6982 24.6758 40.8431Z" fill="#332418"/>
<g opacity="0.81">
<path d="M27.5675 21.1036C27.5546 21.1013 28.5635 21.0022 28.5635 21.0022C28.4906 20.7498 28.6524 20.3893 28.9124 20.3538C29.1728 20.3182 29.4364 20.5498 29.4342 20.8124C29.6004 20.7089 29.8537 20.8076 29.9066 20.996C29.9595 21.1844 29.7951 21.4004 29.5991 21.3991C29.7031 21.6133 29.6342 21.8973 29.4435 22.04C29.2528 22.1831 28.9613 22.1693 28.7848 22.0093C28.7657 22.1018 28.6422 22.1453 28.5586 22.1018C28.4751 22.0578 28.4373 21.9529 28.4506 21.8596C28.4644 21.7662 28.52 21.684 28.5853 21.616L27.5857 21.496" fill="white"/>
</g>
<path d="M27.5857 21.4951C27.5857 21.4938 27.6097 21.4951 27.655 21.4991C27.7044 21.504 27.7701 21.5107 27.8537 21.5187C28.0306 21.5382 28.2795 21.5658 28.5875 21.5996L28.6177 21.6031L28.5968 21.6258C28.5564 21.6693 28.5177 21.7187 28.4924 21.7769C28.467 21.8347 28.4564 21.9013 28.4755 21.9649C28.4924 22.0271 28.5417 22.0876 28.6075 22.0978C28.6719 22.1093 28.7524 22.0716 28.7661 22.0053L28.7728 21.972L28.7981 21.9947C28.9484 22.1307 29.2097 22.1649 29.4044 22.0413C29.5977 21.92 29.687 21.6329 29.5799 21.4084L29.5648 21.3769H29.5999C29.6701 21.3764 29.7453 21.3449 29.7995 21.2889C29.8524 21.2364 29.887 21.1662 29.8941 21.0942C29.9013 21.0222 29.8764 20.9498 29.8275 20.8982C29.7319 20.7929 29.5613 20.7587 29.4461 20.8307L29.4137 20.8511V20.8124C29.4133 20.6653 29.3279 20.5293 29.2133 20.4516C29.0999 20.3724 28.9515 20.3453 28.835 20.3964C28.7177 20.4489 28.6426 20.5613 28.6017 20.6702C28.5595 20.7809 28.5533 20.8982 28.579 20.9982L28.5839 21.016L28.5661 21.0178C28.2604 21.0453 28.0119 21.0676 27.8355 21.0836C27.7524 21.0902 27.6866 21.096 27.6373 21.1C27.5919 21.1036 27.5684 21.104 27.5684 21.104C27.5679 21.1018 27.5915 21.0978 27.6364 21.0916C27.6853 21.0853 27.751 21.0773 27.8337 21.0671C28.0097 21.048 28.2577 21.0209 28.563 20.9876L28.5497 21.0071C28.5199 20.8991 28.5261 20.776 28.5693 20.6587C28.6119 20.5436 28.6893 20.4227 28.8199 20.3622C29.0879 20.2458 29.4515 20.4787 29.4568 20.8133L29.4244 20.7951C29.5613 20.7111 29.7506 20.7493 29.8604 20.8693C29.9168 20.9284 29.947 21.0156 29.9386 21.0987C29.9306 21.1822 29.891 21.2613 29.8315 21.3204C29.7706 21.384 29.6839 21.4213 29.6008 21.4213L29.6208 21.3898C29.7373 21.6369 29.6408 21.9431 29.4284 22.0773C29.2146 22.2111 28.9364 22.1724 28.7733 22.024L28.8053 22.0138C28.7955 22.0591 28.7626 22.0956 28.7248 22.1151C28.687 22.1351 28.6439 22.1422 28.6026 22.1351C28.5168 22.1204 28.4617 22.0467 28.4426 21.9756C28.4217 21.9027 28.4346 21.8262 28.463 21.7644C28.4915 21.7018 28.5328 21.6502 28.5755 21.6053L28.5848 21.6311C28.2777 21.5911 28.0293 21.5591 27.8528 21.5364C27.7701 21.5249 27.7044 21.5156 27.6555 21.5084C27.6088 21.5009 27.5853 21.4964 27.5857 21.4951Z" fill="#6D6B6A"/>
<path d="M27.9716 21.8564C27.9689 21.8684 27.8654 21.8538 27.7405 21.824C27.6156 21.7942 27.5169 21.7604 27.5196 21.7489C27.5223 21.7369 27.6258 21.7515 27.7507 21.7813C27.8756 21.8111 27.9742 21.8449 27.9716 21.8564Z" fill="#6D6B6A"/>
<path d="M28.404 21.3862C28.404 21.3982 28.2524 21.4085 28.0658 21.4085C27.8786 21.4085 27.7275 21.3987 27.7275 21.3862C27.7275 21.3742 27.8791 21.364 28.0658 21.364C28.2524 21.364 28.404 21.3738 28.404 21.3862Z" fill="#6D6B6A"/>
<path d="M28.0208 20.808C28.0239 20.82 27.9004 20.8609 27.7453 20.8995C27.5902 20.9382 27.4622 20.96 27.459 20.9484C27.4559 20.9364 27.5795 20.8955 27.7346 20.8569C27.8897 20.8178 28.0182 20.796 28.0208 20.808Z" fill="#6D6B6A"/>
<path d="M23.4171 15.6871L23.2477 15.6924C21.5455 15.7444 20.1677 17.0946 20.0829 18.7955C20.0037 20.3782 19.9366 22.128 19.9731 22.9746C20.0482 24.7275 21.8104 24.9466 21.8104 24.9466C21.8144 24.9466 21.7904 25.7093 21.7904 25.7093L23.6006 27.2684L25.6277 25.4302L26.1211 19.1444C26.2224 17.3186 25.2446 15.7382 23.4171 15.6871Z" fill="#F9DACE"/>
<path d="M21.8099 24.9462C21.8099 24.9462 22.917 24.9773 24.0721 24.2013C24.0721 24.2013 23.5633 25.5364 21.8086 25.432L21.8099 24.9462Z" fill="#DEC5BE"/>
<path d="M22.2186 21.6404C22.2195 21.6249 22.0511 21.6013 21.7786 21.5747C21.7097 21.5698 21.644 21.5582 21.6311 21.5115C21.6133 21.4622 21.64 21.3871 21.6706 21.3062C21.7302 21.1378 21.7924 20.9609 21.8582 20.776C22.1182 20.0213 22.304 19.4018 22.2733 19.3915C22.2426 19.3813 22.0075 19.9849 21.748 20.7391C21.6857 20.9253 21.6257 21.1027 21.5693 21.272C21.5457 21.3511 21.5035 21.4409 21.5417 21.5431C21.5617 21.5938 21.6137 21.6298 21.6577 21.6404C21.7022 21.6524 21.7409 21.652 21.7751 21.6533C22.0489 21.6595 22.2182 21.6555 22.2186 21.6404Z" fill="#332418"/>
<path d="M26.0177 20.4466C26.047 20.4328 27.2115 20.0533 27.2102 21.2533C27.2084 22.4533 25.8622 22.1977 25.8604 22.1631C25.8582 22.1288 26.0177 20.4466 26.0177 20.4466Z" fill="#F9DACE"/>
<path d="M26.3684 21.7156C26.3737 21.7116 26.3893 21.7302 26.4244 21.7467C26.4586 21.7627 26.5182 21.7733 26.5804 21.7502C26.7071 21.704 26.8142 21.5027 26.8204 21.2867C26.8235 21.1773 26.8008 21.0733 26.7622 20.9875C26.7257 20.8995 26.6688 20.8382 26.6053 20.8267C26.5417 20.812 26.4964 20.8502 26.4817 20.884C26.4657 20.9173 26.4733 20.9413 26.4666 20.9436C26.4631 20.9467 26.4408 20.9236 26.4506 20.8738C26.4555 20.8498 26.4697 20.8218 26.4977 20.7987C26.5266 20.7751 26.5688 20.7636 26.6133 20.7684C26.7057 20.7751 26.7888 20.86 26.8315 20.9547C26.8791 21.0498 26.9071 21.1667 26.9035 21.2893C26.8955 21.5311 26.7715 21.7573 26.5977 21.8071C26.5133 21.8289 26.4431 21.8036 26.4066 21.7751C26.3706 21.7444 26.364 21.7178 26.3684 21.7156Z" fill="#DEC5BE"/>
<path d="M21.0137 20.3719C21.0128 20.5075 21.1257 20.6195 21.2652 20.6226C21.4043 20.6257 21.5181 20.5191 21.519 20.3835C21.5199 20.2479 21.407 20.1359 21.2679 20.1324C21.1279 20.1293 21.0141 20.2364 21.0137 20.3719Z" fill="#332418"/>
<path d="M20.5962 19.5577C20.6287 19.5902 20.8158 19.4404 21.0878 19.4328C21.3593 19.4213 21.5633 19.5568 21.5918 19.5222C21.606 19.5066 21.5722 19.4475 21.4833 19.3862C21.3958 19.3248 21.2482 19.2675 21.0784 19.2733C20.9091 19.2795 20.7682 19.3471 20.6882 19.4146C20.6069 19.4822 20.5802 19.5431 20.5962 19.5577Z" fill="#332418"/>
<path d="M23.4434 20.3542C23.4429 20.4897 23.5554 20.6017 23.6949 20.6048C23.834 20.6079 23.9478 20.5013 23.9487 20.3657C23.9491 20.2302 23.8367 20.1182 23.6976 20.1146C23.5576 20.1119 23.4442 20.2191 23.4434 20.3542Z" fill="#332418"/>
<path d="M23.2652 19.5386C23.2976 19.5711 23.4852 19.4217 23.7567 19.4137C24.0283 19.4022 24.2323 19.5377 24.2607 19.5031C24.2745 19.4875 24.2412 19.4284 24.1523 19.3671C24.0647 19.3057 23.9172 19.2484 23.7474 19.2542C23.5781 19.2604 23.4372 19.328 23.3572 19.3951C23.2758 19.4631 23.2492 19.5244 23.2652 19.5386Z" fill="#332418"/>
<path d="M23.1681 19.3151C23.2214 19.3742 23.4587 19.236 23.7681 19.1489C24.0761 19.0551 24.3499 19.0431 24.3632 18.9649C24.3685 18.928 24.3001 18.88 24.1761 18.8533C24.0534 18.8262 23.8752 18.8262 23.6899 18.8804C23.505 18.9347 23.3547 19.0311 23.2654 19.1204C23.1756 19.2093 23.1436 19.2867 23.1681 19.3151Z" fill="#332418"/>
<path d="M20.7745 18.9182C20.7994 18.9986 21.0279 19.0329 21.271 19.1422C21.5172 19.244 21.6999 19.3871 21.7745 19.3498C21.8083 19.3306 21.8025 19.2586 21.7381 19.1635C21.675 19.0693 21.5474 18.9569 21.3794 18.8844C21.211 18.812 21.0434 18.7969 20.9323 18.816C20.8199 18.8346 20.7648 18.8804 20.7745 18.9182Z" fill="#332418"/>
<g opacity="0.81">
<path d="M19.5942 20.924C19.5693 20.924 18.5324 20.7733 18.564 20.7733C18.7018 20.6818 18.7311 20.5889 18.6755 20.4413C18.6182 20.2884 18.4813 20.2351 18.3191 20.2147C18.1658 20.1951 18.0026 20.1938 17.8662 20.2658C17.7298 20.3378 17.6324 20.5031 17.6818 20.6493C17.4506 20.5124 17.1071 20.6489 17.0324 20.9071C16.9578 21.1653 17.1755 21.464 17.444 21.4715C17.2493 21.5693 17.1595 21.8258 17.2329 22.0311C17.3062 22.2364 17.5213 22.3755 17.7395 22.3787C17.9573 22.3818 18.168 22.2595 18.292 22.0804C18.2844 22.2338 18.4706 22.3467 18.6169 22.2995C18.7631 22.2524 18.8502 22.0915 18.8515 21.9382C18.8529 21.7849 18.7849 21.6391 18.7031 21.5093L19.5942 21.4218" fill="white"/>
</g>
<path d="M19.5941 21.4213C19.5941 21.4227 19.5737 21.4258 19.5341 21.4311C19.4915 21.436 19.4332 21.4431 19.3599 21.4516C19.2039 21.4684 18.9821 21.4924 18.7043 21.5222L18.7146 21.5018C18.7635 21.5791 18.8119 21.6667 18.8421 21.7684C18.8723 21.8689 18.8812 21.9889 18.8359 22.1009C18.7946 22.2093 18.6959 22.3204 18.5563 22.3284C18.4892 22.3307 18.4208 22.3084 18.3657 22.2662C18.311 22.2244 18.2688 22.1556 18.2723 22.0796L18.3075 22.0916C18.223 22.2129 18.0981 22.3147 17.9466 22.3662C17.7963 22.4191 17.6159 22.4107 17.467 22.3271C17.319 22.248 17.195 22.0929 17.1866 21.9098C17.1763 21.7324 17.2639 21.5396 17.4341 21.452L17.4435 21.4938C17.4155 21.4915 17.3848 21.4889 17.3555 21.4804C17.219 21.4449 17.1092 21.344 17.0488 21.2244C16.987 21.1049 16.9772 20.956 17.0377 20.836C17.1599 20.596 17.4772 20.5062 17.6923 20.6315L17.6621 20.656C17.6319 20.5653 17.655 20.468 17.7012 20.3942C17.7479 20.3196 17.8181 20.2618 17.8963 20.2307C18.0541 20.1671 18.2181 20.1813 18.3643 20.2035C18.4381 20.2164 18.5115 20.2387 18.5723 20.2809C18.6337 20.3227 18.6763 20.3867 18.6963 20.452C18.7186 20.5151 18.7283 20.5884 18.6999 20.6511C18.6719 20.7133 18.6199 20.7529 18.5719 20.7858L18.5643 20.788C18.5959 20.7711 18.5626 20.7569 18.5683 20.7604L18.5697 20.7609L18.5732 20.7618L18.5803 20.7631L18.595 20.7658L18.6248 20.7707C18.6443 20.7738 18.6639 20.7769 18.683 20.78C18.7212 20.7862 18.7586 20.792 18.795 20.7978C18.8675 20.8089 18.9355 20.8196 18.999 20.8293C19.1248 20.8489 19.2332 20.8658 19.3226 20.8796C19.4083 20.8933 19.4755 20.904 19.5248 20.9116C19.5457 20.9151 19.563 20.9182 19.5768 20.9204C19.5883 20.9227 19.5941 20.9235 19.5941 20.9244C19.5941 20.9262 19.5697 20.9244 19.5235 20.9196C19.4741 20.9133 19.4061 20.9053 19.3203 20.8947C19.2306 20.8827 19.1221 20.868 18.9955 20.8511C18.9315 20.8422 18.8635 20.8324 18.791 20.8227C18.7546 20.8173 18.7172 20.812 18.679 20.8067C18.6599 20.804 18.6403 20.8009 18.6203 20.7978L18.5906 20.7933L18.5755 20.7907L18.5679 20.7893L18.5639 20.7884L18.5612 20.788C18.5661 20.7916 18.5301 20.7764 18.5643 20.7596L18.5568 20.7618C18.6026 20.7298 18.6497 20.692 18.6723 20.6387C18.6955 20.5858 18.6875 20.5222 18.6661 20.4622C18.6466 20.4013 18.6088 20.3462 18.5532 20.3089C18.4981 20.2711 18.4297 20.2507 18.3586 20.2387C18.2159 20.2178 18.0563 20.2062 17.9119 20.2662C17.8403 20.2955 17.7781 20.3476 17.7359 20.4151C17.6946 20.4822 17.6759 20.5667 17.7017 20.6427L17.7195 20.6955L17.6715 20.6671C17.4803 20.5542 17.1839 20.6387 17.0763 20.8551C16.9652 21.072 17.1212 21.3747 17.3661 21.4378C17.3923 21.4453 17.4195 21.4476 17.4443 21.4498L17.5217 21.4569L17.4537 21.4916C17.3026 21.5684 17.2203 21.7453 17.2301 21.9076C17.2377 22.0729 17.3497 22.216 17.4875 22.2902C17.6261 22.368 17.7919 22.3769 17.9337 22.328C18.0763 22.28 18.1955 22.1844 18.2759 22.0702L18.3146 22.0151L18.311 22.0822C18.3079 22.1431 18.3412 22.2 18.3888 22.2373C18.4363 22.2747 18.4968 22.2947 18.5546 22.2929C18.6732 22.288 18.7652 22.1902 18.8043 22.0893C18.847 21.9862 18.8403 21.8747 18.8123 21.7778C18.7843 21.68 18.7381 21.5942 18.691 21.5173L18.6795 21.4987L18.7008 21.4969C18.979 21.472 19.2012 21.4524 19.3577 21.4387C19.4315 21.4329 19.4897 21.4284 19.5328 21.4249C19.5737 21.4209 19.5941 21.42 19.5941 21.4213Z" fill="#6D6B6A"/>
<path d="M19.4503 21.0582C19.4503 21.0702 19.2907 21.0805 19.0943 21.0805C18.8974 21.0805 18.7383 21.0707 18.7383 21.0582C18.7383 21.0462 18.8978 21.036 19.0943 21.036C19.2907 21.036 19.4503 21.0458 19.4503 21.0582Z" fill="#6D6B6A"/>
<path d="M19.5146 20.7245C19.5119 20.7365 19.3977 20.7222 19.2595 20.6925C19.1213 20.6631 19.0111 20.6294 19.0137 20.6174C19.0164 20.6054 19.1306 20.6196 19.2688 20.6494C19.4071 20.6791 19.5168 20.7129 19.5146 20.7245Z" fill="#6D6B6A"/>
<path d="M19.6388 21.6587C19.6446 21.6693 19.5459 21.7342 19.4183 21.8035C19.2908 21.8729 19.1828 21.9204 19.177 21.9098C19.1712 21.8991 19.2699 21.8342 19.3974 21.7649C19.525 21.6955 19.633 21.648 19.6388 21.6587Z" fill="#6D6B6A"/>
<path d="M22.6444 22.7938C22.8417 22.8809 23.0146 22.7093 23.1648 22.6755C23.2702 22.652 23.5142 22.6511 23.5777 22.5702C23.6942 22.4222 23.7484 22.3164 23.6982 22.1422C23.6693 22.0409 23.567 21.9471 23.4884 21.872C23.3582 21.748 23.0075 21.7529 22.8359 21.828C22.7599 21.8613 22.6924 21.8844 22.6293 21.9355C22.5102 22.0329 22.4222 22.1658 22.3924 22.3164C22.359 22.4795 22.3853 22.6795 22.6444 22.7938Z" fill="#EDBCAD"/>
<path d="M22.473 22.1111C22.4716 22.1107 22.4747 22.1013 22.4823 22.0844C22.4903 22.068 22.5036 22.0444 22.5254 22.0169C22.5681 21.9618 22.6472 21.8942 22.7605 21.8418C22.8725 21.7898 23.0192 21.7436 23.1867 21.7524C23.3521 21.7591 23.5396 21.8391 23.653 22.0009C23.7094 22.0804 23.7401 22.1773 23.737 22.2702C23.7347 22.3627 23.7045 22.4507 23.6543 22.52C23.605 22.5902 23.5316 22.6369 23.4601 22.6578C23.3881 22.68 23.3196 22.684 23.2587 22.6893C23.1365 22.696 23.0405 22.7151 22.9805 22.7467C22.9205 22.7769 22.8974 22.8089 22.8943 22.8058C22.8934 22.8049 22.8978 22.7964 22.9098 22.7827C22.9218 22.7689 22.9418 22.7498 22.9721 22.732C23.0321 22.6938 23.1334 22.6689 23.2556 22.6587C23.3161 22.6516 23.3827 22.6453 23.449 22.6236C23.5147 22.6022 23.5774 22.5609 23.6214 22.4969C23.7112 22.372 23.7254 22.1733 23.617 22.0271C23.513 21.8791 23.3405 21.8027 23.1845 21.7942C23.0267 21.7831 22.8841 21.824 22.7738 21.8711C22.6627 21.9187 22.5841 21.9796 22.5392 22.0293C22.4925 22.0782 22.4765 22.1133 22.473 22.1111Z" fill="#263138"/>
<path d="M20.5179 18.5862C21.6263 18.5831 21.9748 18.9604 22.4903 18.9569C22.8659 18.9546 23.1926 18.7062 23.557 18.6142C23.8157 18.5489 24.1001 18.56 24.3299 18.4244C24.4872 18.3315 24.6015 18.1773 24.6757 18.0102C24.7499 17.8431 24.7881 17.6626 24.8223 17.4831C24.8406 17.3871 24.857 17.2835 24.8148 17.1951C24.7721 17.1057 24.6792 17.0533 24.5921 17.0066C24.3512 16.8773 24.1081 16.7475 23.8459 16.6715C23.5832 16.596 23.2961 16.5777 23.0401 16.6729C22.7272 16.7889 22.4979 17.056 22.2935 17.32C22.089 17.584 21.8859 17.864 21.5948 18.0271C21.421 18.1244 21.225 18.1746 21.0406 18.2502C21.0041 18.2653 20.6183 18.376 20.4117 18.4035C20.4112 18.4035 20.3632 18.5862 20.5179 18.5862Z" fill="#EDBCAD"/>
<path d="M19.3695 18.2506C20.1206 18.3746 20.8931 18.3271 21.4988 17.8666C21.6731 17.7342 21.8357 17.5822 21.9851 17.4169C22.2548 17.1178 22.4668 16.7431 22.8277 16.564C23.2931 16.3333 23.8482 16.5009 24.3388 16.6706L24.318 16.652C24.5735 16.7698 24.806 16.9373 24.9984 17.1422C24.8682 18.2973 25.0362 19.4858 25.4904 20.5569C25.5277 20.6449 25.5966 20.7182 25.6851 20.7542C25.9646 20.8684 25.882 20.4946 26.0913 20.4249C26.2522 20.3715 26.3295 20.4062 26.6477 20.4004C26.7615 20.1 26.8353 19.2795 26.934 18.8364C27.1997 18.5613 27.4486 18.048 27.4624 17.6449C27.4762 17.2418 27.258 16.7262 27.258 16.7262C26.9597 16.1458 26.7868 15.8489 26.322 15.6835L26.3113 15.688C25.894 15.5204 25.3797 15.5182 25.0375 15.8084C24.9522 15.1826 24.4033 14.6875 23.7922 14.5275C23.1811 14.3675 22.2015 14.464 21.6157 14.7C21.2162 14.8609 20.8282 15.1715 20.3771 15.6195V15.6191L20.3766 15.6195C20.3166 15.6791 20.2557 15.7404 20.1935 15.8049C20.1882 15.8102 20.1837 15.8164 20.1784 15.8218C20.0482 15.9031 19.8877 15.94 19.7224 15.9569C19.4557 15.984 19.2908 15.8982 19.1117 15.6986C19.0575 15.6378 18.9891 15.5613 18.9113 15.5853C18.862 15.6004 18.834 15.6515 18.8171 15.7C18.7286 15.9591 18.8402 16.2555 19.0344 16.4489C19.1282 16.5426 19.2388 16.6155 19.3575 16.6751C19.3575 16.6751 19.1775 16.8929 18.8713 16.9391C18.7068 16.964 18.5575 17.0573 18.4633 17.1942C18.4171 17.2609 18.3842 17.3395 18.3828 17.4275C18.378 17.9338 18.8802 18.1698 19.3695 18.2506Z" fill="#332418"/>
<path d="M19.0537 17.7218C19.0533 17.7222 19.0582 17.7262 19.068 17.7338C19.08 17.7422 19.0942 17.7529 19.112 17.7658C19.1311 17.78 19.1555 17.7969 19.1862 17.8133C19.2164 17.8306 19.2511 17.852 19.2929 17.8693C19.456 17.9466 19.7177 18.0235 20.0444 18.004C20.3684 17.9853 20.7568 17.8706 21.104 17.612C21.4546 17.3595 21.7622 16.9875 22.0137 16.5618C22.1413 16.3489 22.2453 16.1311 22.36 15.9298C22.4737 15.7284 22.5995 15.5418 22.752 15.3951C22.9026 15.2471 23.0773 15.1378 23.2577 15.0875C23.3475 15.0609 23.4382 15.0546 23.5244 15.0564C23.6111 15.0609 23.6933 15.0786 23.7688 15.1031C23.9204 15.1538 24.0426 15.2373 24.1351 15.3235C24.228 15.4102 24.2906 15.5018 24.3333 15.5804C24.4133 15.7418 24.4177 15.8453 24.424 15.8435C24.4248 15.8435 24.4244 15.8373 24.4226 15.8253C24.4204 15.8106 24.4177 15.7933 24.4142 15.7715C24.4057 15.7244 24.3853 15.6564 24.3475 15.5733C24.3062 15.492 24.2444 15.3973 24.1506 15.3071C24.0573 15.2178 23.9333 15.1302 23.7782 15.076C23.7004 15.0498 23.616 15.0306 23.5262 15.0249C23.4369 15.0218 23.3417 15.0275 23.2488 15.0546C23.0617 15.1053 22.8804 15.2173 22.7257 15.368C22.5688 15.5178 22.4404 15.7075 22.3248 15.9102C22.2088 16.1129 22.1049 16.3306 21.9782 16.5413C21.7284 16.964 21.4253 17.3315 21.0813 17.5818C20.7408 17.8382 20.3613 17.9533 20.0422 17.9755C19.7204 17.9982 19.4622 17.9271 19.2991 17.8551C19.1351 17.7818 19.0568 17.7169 19.0537 17.7218Z" fill="#22170F"/>
<path d="M19.1465 17.3946C19.1452 17.3973 19.1688 17.4111 19.2128 17.4337C19.2563 17.4573 19.3221 17.4857 19.4056 17.5146C19.4892 17.5444 19.5914 17.5702 19.7074 17.5897C19.8234 17.6071 19.9523 17.6168 20.0879 17.612C20.223 17.6057 20.351 17.5853 20.4652 17.5582C20.579 17.5293 20.679 17.4951 20.7594 17.4586C20.8403 17.4226 20.9039 17.3893 20.9448 17.3622C20.9865 17.336 21.0088 17.3204 21.0074 17.3177C21.0034 17.3111 20.9105 17.368 20.7483 17.4315C20.6674 17.464 20.5683 17.4951 20.4563 17.5213C20.3439 17.5457 20.2185 17.5644 20.0861 17.5706C19.9536 17.5755 19.827 17.5671 19.7132 17.552C19.5994 17.5351 19.4981 17.5124 19.415 17.4866C19.2474 17.4364 19.1501 17.3875 19.1465 17.3946Z" fill="#22170F"/>
<path d="M25.5965 17.9356C25.5921 17.9351 25.5841 17.9751 25.5787 18.0484C25.5734 18.1218 25.5712 18.2289 25.5814 18.3622C25.5894 18.4302 25.5889 18.4987 25.6156 18.584C25.6281 18.6253 25.6747 18.6769 25.7347 18.6733C25.7921 18.6702 25.8329 18.6382 25.8689 18.6089C26.0032 18.4876 26.1485 18.3556 26.3018 18.2164L26.2392 18.1791C26.2183 18.2618 26.1965 18.348 26.1743 18.436C26.1152 18.6773 26.0587 18.9067 26.0072 19.1169L25.9792 19.2311L26.0649 19.1516C26.2929 18.9404 26.4503 18.7271 26.5472 18.5707C26.6441 18.4133 26.6849 18.3133 26.6787 18.3102C26.6609 18.2973 26.4716 18.6929 26.0174 19.0996L26.0752 19.1342C26.1285 18.9244 26.1872 18.6956 26.2485 18.4551C26.2703 18.3671 26.2916 18.2804 26.3125 18.1978L26.3436 18.0729L26.2498 18.1604C26.0987 18.3018 25.9561 18.4351 25.8241 18.5582C25.7938 18.5858 25.7596 18.6084 25.7321 18.6098C25.7049 18.6116 25.6832 18.5933 25.6703 18.5622C25.6476 18.4987 25.6409 18.42 25.6307 18.3573C25.5987 18.0964 25.6076 17.936 25.5965 17.9356Z" fill="#22170F"/>
<path d="M25.6443 16.9497C25.6483 16.9511 25.6394 16.9737 25.6492 17.0137C25.6589 17.0537 25.6892 17.1057 25.7323 17.1684C25.7532 17.2004 25.7776 17.2351 25.7976 17.2777C25.8163 17.3222 25.8274 17.3702 25.8305 17.4235C25.8332 17.4759 25.8274 17.5355 25.7923 17.5879C25.758 17.6408 25.6883 17.6711 25.6234 17.6604C25.5589 17.6524 25.502 17.6133 25.4678 17.5653C25.4327 17.5173 25.4145 17.4626 25.4052 17.4115C25.3865 17.3079 25.4003 17.2124 25.4247 17.1382C25.4496 17.0635 25.4843 17.0097 25.5109 16.9759C25.5385 16.9422 25.5576 16.9275 25.5594 16.9293C25.5665 16.9342 25.4954 17.0031 25.4545 17.1475C25.4349 17.2186 25.4252 17.3088 25.4447 17.4039C25.4616 17.4964 25.5207 17.6035 25.6292 17.6168C25.6803 17.6248 25.73 17.6031 25.7567 17.5635C25.7843 17.5244 25.7918 17.4728 25.79 17.4257C25.7883 17.3782 25.7785 17.3315 25.7638 17.2924C25.7474 17.2533 25.7252 17.2177 25.706 17.1853C25.6665 17.1204 25.6376 17.0617 25.6323 17.0168C25.6274 16.9711 25.6429 16.9484 25.6443 16.9497Z" fill="white"/>
<path d="M25.9284 16.6573C25.9319 16.6587 25.9275 16.6733 25.9346 16.6978C25.9417 16.7227 25.9613 16.7551 25.9897 16.7951C26.0035 16.8155 26.0195 16.8378 26.0328 16.8662C26.0453 16.896 26.0528 16.9271 26.0555 16.9622C26.0577 16.9969 26.0537 17.0369 26.0297 17.0729C26.0061 17.1093 25.9577 17.1302 25.9137 17.1227C25.8697 17.1173 25.831 17.0907 25.8084 17.0582C25.7848 17.0258 25.7733 16.9898 25.767 16.9555C25.755 16.8871 25.7648 16.8244 25.7817 16.7764C25.8168 16.6787 25.8715 16.6395 25.8737 16.6431C25.8799 16.6475 25.8359 16.6933 25.8115 16.7853C25.7999 16.8307 25.7941 16.888 25.807 16.948C25.8186 17.0067 25.855 17.0711 25.9199 17.0791C25.9506 17.084 25.979 17.0711 25.995 17.048C26.0115 17.0249 26.0164 16.9933 26.0155 16.9635C26.0146 16.9342 26.0088 16.904 25.9999 16.88C25.9897 16.8555 25.9759 16.8324 25.9639 16.8111C25.939 16.7689 25.9208 16.7302 25.9181 16.7C25.915 16.6707 25.9261 16.656 25.9284 16.6573Z" fill="white"/>
<path d="M21.2455 20.8075C21.1104 20.7284 20.9655 20.6804 20.8095 20.6724C20.653 20.6649 20.4801 20.7569 20.4521 20.9107C20.433 21.0151 20.4864 21.124 20.5672 21.1924C20.6486 21.2609 20.7539 21.2947 20.8588 21.312C20.965 21.3293 21.0766 21.3311 21.1775 21.2929C21.2779 21.2547 21.3655 21.1707 21.3872 21.0653C21.4077 20.96 21.3486 20.8378 21.2455 20.8075Z" fill="#EDBCAD"/>
<path d="M23.3076 20.9369C23.5351 20.8578 23.7787 20.8098 24.0418 20.8018C24.3049 20.7942 24.5965 20.8862 24.6436 21.04C24.6756 21.1444 24.5862 21.2533 24.4494 21.3218C24.3125 21.3902 24.1351 21.424 23.9587 21.4413C23.78 21.4587 23.5916 21.4604 23.4227 21.4222C23.2534 21.384 23.1058 21.3 23.0698 21.1947C23.0338 21.0893 23.1338 20.9671 23.3076 20.9369Z" fill="#EDBCAD"/>
<path d="M22.9473 19.2236C22.9473 19.2284 22.9104 19.2342 22.857 19.2107C22.805 19.1884 22.7384 19.1293 22.7188 19.0391C22.7002 18.9484 22.7375 18.8676 22.7762 18.8262C22.8153 18.7831 22.8513 18.7733 22.853 18.7778C22.8566 18.7836 22.8286 18.8027 22.8006 18.8453C22.7726 18.8867 22.7468 18.9564 22.7619 19.0302C22.7779 19.1036 22.8299 19.1569 22.8722 19.1836C22.9148 19.2107 22.9482 19.2169 22.9473 19.2236Z" fill="#263138"/>
<path d="M22.3049 18.9293C22.3102 18.9289 22.3195 18.9529 22.3195 18.9938C22.3195 19.0347 22.3075 19.0915 22.2755 19.1462C22.2435 19.2004 22.1995 19.2391 22.164 19.2587C22.1284 19.2787 22.1026 19.2822 22.1009 19.2773C22.0951 19.2658 22.1817 19.2222 22.2377 19.124C22.296 19.0267 22.292 18.9298 22.3049 18.9293Z" fill="#263138"/>
<path d="M16.791 10.9351L17.6892 10.2413L19.2617 11.8973L18.3981 12.4427L19.6688 13.0862L17.4448 12.5538L18.0755 11.8293L16.791 10.9351Z" fill="#90776A"/>
<path d="M15.6113 15.6062L15.9673 14.984L17.2229 15.6209L16.8504 16.1396L17.7575 16.3253L16.3171 16.3898L16.682 15.7622L15.6113 15.6062Z" fill="#90776A"/>
<path d="M21.4074 10.1858L21.8554 10.1436L21.9816 11.0178L21.5812 11.0142L21.8136 11.5467L21.2607 10.8311L21.7141 10.7916L21.4074 10.1858Z" fill="#90776A"/>
<path d="M28.4564 11.5164L28.772 11.8369L28.1742 12.4871L27.924 12.1742L27.6582 12.6906L27.8635 11.8098L28.1804 12.1364L28.4564 11.5164Z" fill="#90776A"/>
<path d="M25.6444 9.53601L25.8635 9.73734L25.464 10.7453L25.3235 10.524L25.2458 11.2329L25.0938 10.1333L25.4884 10.316L25.6444 9.53601Z" fill="#90776A"/>
<path d="M30.8058 18.8573L30.7467 19.288L29.896 19.2151L29.988 18.8387L29.4355 18.9404L30.2307 18.5773L30.168 19.0124L30.8058 18.8573Z" fill="#90776A"/>
<path d="M18.6925 14.3947L18.6948 14.4013L18.6917 14.4084C18.6881 14.4155 18.685 14.42 18.673 14.4187C18.6583 14.4173 18.6303 14.4075 18.5739 14.3835C18.5134 14.3582 18.4343 14.3218 18.3508 14.2818C18.0245 14.1249 18.0321 14.1093 18.0392 14.0942C18.0468 14.0782 18.0543 14.0755 18.1574 14.1187C18.2179 14.144 18.297 14.18 18.3805 14.2204C18.493 14.2751 18.6841 14.3702 18.6925 14.3947ZM20.7423 12.156C20.6939 12.1067 20.6277 12.0391 20.5588 11.9622C20.489 11.8853 20.429 11.8124 20.3845 11.7595C20.3041 11.6627 20.2992 11.6569 20.2828 11.668L20.2757 11.6729L20.2748 11.6804C20.2712 11.7071 20.3837 11.8702 20.5077 12.0075C20.6294 12.1431 20.7779 12.2698 20.8081 12.2729C20.8085 12.2729 20.809 12.2729 20.8094 12.2729L20.8179 12.2724L20.8228 12.2667C20.8361 12.2515 20.8303 12.2458 20.7423 12.156ZM23.6228 11.2413C23.6245 11.1551 23.6268 11.0742 23.6285 11.0053C23.6357 10.7658 23.6361 10.7667 23.6134 10.7635C23.5965 10.7622 23.589 10.7613 23.5734 10.9124C23.5677 10.9684 23.5579 11.0849 23.5548 11.24C23.5517 11.3951 23.5574 11.512 23.561 11.568C23.5694 11.7013 23.5765 11.7169 23.5894 11.7182C23.5912 11.7182 23.593 11.7182 23.5952 11.7182C23.617 11.7173 23.6174 11.7173 23.6197 11.4778C23.6201 11.4089 23.621 11.328 23.6228 11.2413ZM26.5112 11.6218L26.5054 11.6182C26.4917 11.6089 26.477 11.5995 26.2739 11.9142C26.0708 12.2284 26.0854 12.2378 26.0997 12.2471C26.1019 12.2484 26.1041 12.2498 26.1068 12.2502C26.1223 12.2515 26.1588 12.2182 26.3312 11.9511C26.4014 11.8422 26.5188 11.6551 26.5134 11.6298L26.5112 11.6218ZM28.5294 13.4902L28.5317 13.4827L28.525 13.4698L28.5188 13.4675C28.4925 13.4587 28.313 13.5409 28.2072 13.5907C28.105 13.6387 28.0108 13.6867 27.9601 13.716L27.9445 13.7218L27.9459 13.7244L27.9672 13.7707L27.9819 13.7622C28.0361 13.7422 28.1334 13.7004 28.2361 13.652C28.3419 13.6022 28.5205 13.5147 28.5294 13.4902ZM28.8352 16.3973L28.8308 16.392C28.8148 16.3715 28.6165 16.3453 28.4997 16.3311C28.4134 16.3209 28.3317 16.3129 28.2703 16.3089C28.1703 16.3027 28.1592 16.3062 28.157 16.3244C28.1552 16.3409 28.153 16.3582 28.4921 16.3982C28.5325 16.4031 28.5721 16.4071 28.609 16.4111C28.6503 16.4151 28.6885 16.4182 28.7214 16.4204C28.8214 16.4267 28.8325 16.4231 28.8348 16.4049L28.8352 16.3973Z" fill="#90776A"/>
</g>
</g>
<defs>
<clipPath id="clip0_1141_49371">
<rect width="48" height="48" rx="24" fill="white"/>
</clipPath>
<clipPath id="clip1_1141_49371">
<rect width="48" height="48" fill="white"/>
</clipPath>
</defs>
</svg>
