<svg width="48" height="48" viewBox="0 0 48 48" fill="none" xmlns="http://www.w3.org/2000/svg">
<g clip-path="url(#clip0_1146_49381)">
<rect width="48" height="48" rx="24" fill="white"/>
<path opacity="0.7" d="M37.1255 11.2952C35.2401 9.34067 33.0795 7.71635 30.7831 6.57843C27.2862 4.84531 23.4347 4.01075 19.5819 3.96083C8.32297 3.81619 7.46665 17.8309 4.00425 19.7803C0.543134 21.7285 -5.73142 21.9589 -5.94774 29.7528C-6.08342 34.6552 -5.00438 39.6971 -1.96694 43.5167C0.814495 47.0149 4.90153 48.789 8.92713 50.0984C13.4481 51.5691 18.243 53.013 22.9982 52.0197C27.8788 51.0008 31.3079 46.9061 35.3156 44.1387C37.8398 42.3967 40.1041 40.5611 41.6619 37.7656C41.8475 37.4315 42.0228 37.0898 42.1892 36.7442C44.2756 32.3999 44.6839 27.3887 43.5332 22.6872C42.5015 18.4696 40.1719 14.4517 37.1255 11.2952Z" fill="#EFEFEF"/>
<g opacity="0.54">
<path d="M30.6061 36.9092H31.1309V34.6205H30.6061V36.9092Z" fill="#A6A7AD" stroke="#686868" stroke-width="0.096" stroke-miterlimit="10"/>
<path d="M30.0938 37.3994H31.6438L31.4608 36.5123H30.2755L30.0938 37.3994Z" fill="#A6A7AD" stroke="#686868" stroke-width="0.096" stroke-miterlimit="10"/>
<path d="M29.1592 37.773H32.5781L32.2133 36.9551H29.524L29.1592 37.773Z" fill="#A6A7AD" stroke="#686868" stroke-width="0.096" stroke-miterlimit="10"/>
<path d="M32.6009 32.1986C33.2678 32.1986 33.8092 32.7631 33.8092 33.4594C33.8092 34.1557 33.2678 34.7202 32.6009 34.7202C31.934 34.7202 31.3926 34.1557 31.3926 33.4594C31.3926 32.7631 31.9327 32.1986 32.6009 32.1986ZM32.6009 34.4002C33.0988 34.4002 33.502 33.9791 33.502 33.4594C33.502 32.9397 33.0988 32.5186 32.6009 32.5186C32.103 32.5186 31.6998 32.9397 31.6998 33.4594C31.6998 33.9791 32.103 34.4002 32.6009 34.4002Z" fill="#A6A7AD" stroke="#686868" stroke-width="0.096" stroke-miterlimit="10"/>
<path d="M28.9544 32.1987C29.6213 32.1987 30.1627 32.7632 30.1627 33.4595C30.1627 34.1559 29.6213 34.7203 28.9544 34.7203C28.2875 34.7203 27.7461 34.1559 27.7461 33.4595C27.7461 32.7632 28.2863 32.1987 28.9544 32.1987ZM28.9544 34.4003C29.4523 34.4003 29.8555 33.9792 29.8555 33.4595C29.8555 32.9399 29.4523 32.5187 28.9544 32.5187C28.4565 32.5187 28.0533 32.9399 28.0533 33.4595C28.0533 33.9792 28.4565 34.4003 28.9544 34.4003Z" fill="#A6A7AD" stroke="#686868" stroke-width="0.096" stroke-miterlimit="10"/>
<path d="M30.8679 35.2514C31.7114 35.2514 32.3949 34.5512 32.3949 33.6872V32.0757H29.3408V33.6872C29.3408 34.5512 30.0243 35.2514 30.8679 35.2514Z" fill="#A6A7AD" stroke="#686868" stroke-width="0.096" stroke-miterlimit="10"/>
<path d="M30.9101 32.5903L30.7143 33.2099H30.0781L30.5927 33.5926L30.3956 34.2121L30.9101 33.8294L31.4247 34.2121L31.2288 33.5926L31.7434 33.2099H31.1072L30.9101 32.5903Z" fill="#686868"/>
</g>
<g opacity="0.42">
<path d="M12.3814 12.511H11.1514V14.5526H12.3814V12.511Z" fill="#A6A7AD"/>
<path d="M13.8746 11.6367H12.6445V14.5526H13.8746V11.6367Z" fill="#A6A7AD"/>
<path d="M15.3678 11.0403H14.1377V14.5513H15.3678V11.0403Z" fill="#A6A7AD"/>
<path d="M16.8629 10.2466H15.6328V14.5525H16.8629V10.2466Z" fill="#A6A7AD"/>
<path d="M16.1371 8.96533L15.1451 9.27637L15.4075 9.51829L14.7022 10.285L13.0484 10.5999L11.3089 11.9349C11.2372 11.99 11.2244 12.0924 11.2782 12.1641C11.3102 12.2063 11.3588 12.2281 11.4075 12.2281C11.442 12.2281 11.4766 12.2165 11.506 12.1948L13.1841 10.9071L14.8686 10.5871L15.6468 9.74101L15.9105 9.98293L16.1371 8.96533Z" fill="#A6A7AD"/>
</g>
<path d="M30.6006 10.5247L30.5996 10.5256L30.6006 10.5247Z" fill="#F5F5F5"/>
<path d="M30.5954 10.5337L30.5978 10.5361H30.5918L30.5954 10.5337Z" fill="#F5F5F5"/>
<path d="M30.5898 10.5359H30.5869L30.5888 10.5349L30.5898 10.5359Z" fill="#F5F5F5"/>
<path d="M30.6025 10.535L30.6038 10.5311L30.6217 10.526L30.6051 10.5362L30.6025 10.535Z" fill="#F5F5F5"/>
<path d="M30.6015 10.531V10.5339L30.5996 10.532L30.6015 10.531Z" fill="#F5F5F5"/>
<path d="M30.5879 10.5323V10.5333L30.5869 10.5343L30.5879 10.5323Z" fill="#F5F5F5"/>
<path d="M30.5908 10.5349H30.5918L30.5908 10.5359V10.5349Z" fill="#F5F5F5"/>
<path d="M30.6006 10.532H30.5996L30.6015 10.531L30.6006 10.532Z" fill="#F5F5F5"/>
<path d="M30.5889 10.531L30.5898 10.532H30.5889V10.531Z" fill="#F5F5F5"/>
<path d="M31.3372 5.27408L30.5948 10.476L29.8588 5.2728C29.855 5.2728 29.8511 5.27408 29.8473 5.27408L28.8643 -1.73648C29.4159 -1.812 29.9791 -1.85168 30.5526 -1.85168C31.1683 -1.85168 31.7737 -1.8056 32.3651 -1.71856L31.3603 5.27664C31.3513 5.27664 31.3436 5.27536 31.3372 5.27408Z" fill="#F5F5F5"/>
<path d="M28.3926 5.70418L30.584 10.5208L22.5098 1.14482C23.3955 0.378099 24.3926 -0.264461 25.4742 -0.755981L28.4042 5.69906C28.4003 5.70034 28.3965 5.70162 28.3926 5.70418Z" fill="#F5F5F5"/>
<path d="M35.6793 9.045L42.3814 7.08276C42.0562 5.93716 41.5698 4.8594 40.9478 3.87636L30.6297 10.5208H30.6118L30.6169 10.5144L30.6066 10.5208V10.5196H30.6054L30.6066 10.517L30.6105 10.494L30.6015 10.5119L30.6028 10.5196H30.599L30.5964 10.5247L30.59 10.5196L30.5913 10.5119L30.581 10.4901L30.5862 10.5183L30.5849 10.517V10.5183L30.5708 10.5093L30.5785 10.5183H30.5606L20.2054 3.79956C19.5718 4.78516 19.0751 5.86676 18.7423 7.01876L30.558 10.5183H30.535L30.5823 10.5324L30.5631 10.5196L30.5862 10.526V10.5311L30.5836 10.5324H30.5823L25.2959 10.5272C25.2959 10.5247 25.2959 10.5208 25.2959 10.5183H18.2598C18.2674 11.7304 18.4505 12.9016 18.7858 14.0076L25.5135 12.03C25.5122 12.0261 25.511 12.0223 25.511 12.0184L30.5849 10.5336L30.5682 10.5439L30.5887 10.5349L30.5862 10.5324H30.5874L30.59 10.5336V10.5324L30.5926 10.5336L30.5951 10.5349V10.5336L30.5977 10.5362L30.6015 10.5336H30.5951L30.599 10.5311L30.6015 10.5336L30.6028 10.5324V10.5311H30.6041L30.6054 10.5298V10.5311L30.6092 10.5324V10.5311L30.6118 10.5324H30.613L30.6617 10.5183H30.6425L35.6793 9.045ZM30.5862 10.5362L30.5887 10.5349L30.59 10.5362H30.5862ZM30.59 10.5324L30.5887 10.5336L30.5874 10.5324H30.59ZM30.6028 10.5349L30.6002 10.5336L30.6015 10.5324L30.6028 10.5349ZM30.622 10.526L30.6054 10.5362L30.6028 10.5349V10.5311L30.622 10.526Z" fill="#F5F5F5"/>
<path d="M34.0685 6.52351L30.6074 10.5171L32.8026 5.70687C32.8026 5.70687 32.8013 5.70687 32.8013 5.70559L35.7364 -0.705933C36.8077 -0.206733 37.7959 0.442227 38.6727 1.21407L34.0685 6.52351Z" fill="#F5F5F5"/>
<path d="M20.2744 17.1909L26.1355 13.4072C26.1368 13.4085 26.1381 13.4098 26.1381 13.4123L30.5733 10.5566L27.116 14.5451C27.1186 14.5477 27.1211 14.5502 27.125 14.5528L22.5835 19.8034C21.6952 19.0469 20.917 18.1675 20.2744 17.1909Z" fill="#F5F5F5"/>
<path d="M30.5996 10.5372V10.5382L30.6015 10.5372L30.6005 10.5401H30.5977L30.5996 10.5391L30.5986 10.5382H30.5977V10.5372V10.5363H30.6015L30.5996 10.5372Z" fill="#F5F5F5"/>
<path d="M30.6253 10.5489L30.6035 10.5425V10.5374L30.6048 10.5361L30.6253 10.5489Z" fill="#F5F5F5"/>
<path d="M30.6162 10.5592L35.0386 13.429C35.0425 13.4238 35.045 13.4187 35.0489 13.4123L40.846 17.164C40.2098 18.1368 39.4393 19.0149 38.5599 19.7701L33.3913 13.7835L30.6162 10.5592Z" fill="#F5F5F5"/>
<path d="M35.6743 12.0377L30.6055 10.5363L42.8435 10.5491C42.8333 11.7484 42.6515 12.9055 42.3213 13.9999L35.6743 12.0377C35.6743 12.039 35.6743 12.039 35.6743 12.0377Z" fill="#F5F5F5"/>
<path d="M35.6401 21.6364C34.5994 22.11 33.4807 22.4428 32.3095 22.6105L30.6084 10.5759L35.6401 21.6364Z" fill="#F5F5F5"/>
<path d="M30.5869 10.5407V10.5388L30.5879 10.5398L30.5869 10.5407Z" fill="#F5F5F5"/>
<path d="M28.8626 22.6206C27.6875 22.4593 26.565 22.1316 25.5205 21.6632L30.5803 10.5758L28.8626 22.6206Z" fill="#F5F5F5"/>
<path d="M30.6004 10.5566L30.594 10.5962L30.5889 10.5578L30.5953 10.545L30.6004 10.5566Z" fill="#F5F5F5"/>
<path d="M30.5889 10.54V10.541H30.5879L30.5889 10.54Z" fill="#F5F5F5"/>
<g opacity="0.7">
<path d="M25.2771 7.05288C25.2771 7.06952 25.1555 7.08232 25.0057 7.08232C24.856 7.08232 24.7344 7.06824 24.7344 7.05288C24.7344 7.03624 24.856 7.02344 25.0057 7.02344C25.1555 7.02344 25.2771 7.03624 25.2771 7.05288Z" fill="#A6A7AD"/>
<path d="M25.5666 6.31445C25.5832 6.31445 25.596 6.43733 25.596 6.58965C25.596 6.74197 25.5819 6.86485 25.5666 6.86485C25.5499 6.86485 25.5371 6.74197 25.5371 6.58965C25.5371 6.43733 25.5499 6.31445 25.5666 6.31445Z" fill="#A6A7AD"/>
<path d="M25.873 7.0353C25.873 7.01866 25.9946 7.00586 26.1444 7.00586C26.2942 7.00586 26.4158 7.01994 26.4158 7.0353C26.4158 7.05066 26.2942 7.06474 26.1444 7.06474C25.9946 7.06602 25.873 7.05194 25.873 7.0353Z" fill="#A6A7AD"/>
<path d="M25.5871 7.77489C25.5704 7.77489 25.5576 7.65201 25.5576 7.49969C25.5576 7.34737 25.5717 7.22449 25.5871 7.22449C25.6037 7.22449 25.6165 7.34737 25.6165 7.49969C25.6165 7.65201 25.6037 7.77489 25.5871 7.77489Z" fill="#A6A7AD"/>
<path d="M26.0242 7.45751C26.0114 7.46775 25.9577 7.42551 25.9039 7.36151C25.8501 7.29751 25.8181 7.23735 25.8309 7.22711C25.8437 7.21687 25.8975 7.25911 25.9513 7.32311C26.0037 7.38711 26.037 7.44727 26.0242 7.45751Z" fill="#A6A7AD"/>
<path d="M25.9991 6.6191C26.0106 6.63062 25.976 6.68566 25.9197 6.74198C25.8647 6.7983 25.8096 6.83414 25.7981 6.82262C25.7866 6.8111 25.8211 6.75606 25.8775 6.69974C25.9325 6.64342 25.9875 6.60758 25.9991 6.6191Z" fill="#A6A7AD"/>
<path d="M25.3754 6.83292C25.3652 6.84572 25.314 6.82012 25.2602 6.7766C25.2078 6.73308 25.1732 6.687 25.1834 6.6742C25.1937 6.6614 25.2449 6.687 25.2986 6.73052C25.3524 6.77404 25.387 6.82012 25.3754 6.83292Z" fill="#A6A7AD"/>
<path d="M25.349 7.20284C25.3618 7.21436 25.3311 7.26812 25.2799 7.32316C25.23 7.3782 25.1788 7.41404 25.166 7.40252C25.1532 7.391 25.1839 7.33724 25.2351 7.2822C25.2863 7.22716 25.3375 7.19132 25.349 7.20284Z" fill="#A6A7AD"/>
<path d="M38.7101 13.5363C38.7101 13.5453 38.641 13.5529 38.5553 13.5529C38.4695 13.5529 38.4004 13.5453 38.4004 13.5363C38.4004 13.5273 38.4695 13.5197 38.5553 13.5197C38.641 13.5197 38.7101 13.5273 38.7101 13.5363Z" fill="#A6A7AD"/>
<path d="M38.8741 13.1165C38.883 13.1165 38.8907 13.1869 38.8907 13.2726C38.8907 13.3597 38.883 13.4288 38.8741 13.4288C38.8651 13.4288 38.8574 13.3584 38.8574 13.2726C38.8574 13.1869 38.8651 13.1165 38.8741 13.1165Z" fill="#A6A7AD"/>
<path d="M39.0488 13.526C39.0488 13.5171 39.1179 13.5094 39.2037 13.5094C39.2895 13.5094 39.3586 13.5171 39.3586 13.526C39.3586 13.535 39.2895 13.5427 39.2037 13.5427C39.1179 13.544 39.0488 13.5363 39.0488 13.526Z" fill="#A6A7AD"/>
<path d="M38.8848 13.9457C38.8758 13.9457 38.8682 13.8753 38.8682 13.7896C38.8682 13.7025 38.8758 13.6334 38.8848 13.6334C38.8938 13.6334 38.9014 13.7038 38.9014 13.7896C38.9027 13.8766 38.895 13.9457 38.8848 13.9457Z" fill="#A6A7AD"/>
<path d="M39.1377 13.7669C39.1301 13.7733 39.1006 13.749 39.0699 13.7119C39.0392 13.676 39.0213 13.6415 39.0277 13.6351C39.0353 13.6287 39.0648 13.653 39.0955 13.6901C39.1262 13.7259 39.1454 13.7605 39.1377 13.7669Z" fill="#A6A7AD"/>
<path d="M39.1239 13.2903C39.1303 13.2967 39.1111 13.3274 39.0791 13.3594C39.0471 13.3914 39.0164 13.4119 39.01 13.4055C39.0036 13.3991 39.0228 13.3684 39.0548 13.3364C39.0855 13.3031 39.1175 13.2839 39.1239 13.2903Z" fill="#A6A7AD"/>
<path d="M38.7692 13.4122C38.7628 13.4199 38.7333 13.4045 38.7039 13.3802C38.6744 13.3559 38.654 13.329 38.6604 13.3213C38.6668 13.3136 38.6949 13.329 38.7256 13.3533C38.7564 13.3776 38.7756 13.4045 38.7692 13.4122Z" fill="#A6A7AD"/>
<path d="M38.7535 13.6207C38.7599 13.6271 38.7432 13.6578 38.7138 13.6885C38.6856 13.7192 38.6562 13.7397 38.6498 13.7333C38.6434 13.7269 38.66 13.6962 38.6895 13.6655C38.7176 13.6348 38.7458 13.6143 38.7535 13.6207Z" fill="#A6A7AD"/>
<path d="M25.0021 16.8643C25.0021 16.8733 24.933 16.8809 24.8473 16.8809C24.7615 16.8809 24.6924 16.8733 24.6924 16.8643C24.6924 16.8553 24.7615 16.8477 24.8473 16.8477C24.933 16.8477 25.0021 16.8553 25.0021 16.8643Z" fill="#A6A7AD"/>
<path d="M25.1633 16.4442C25.1722 16.4442 25.1799 16.5146 25.1799 16.6004C25.1799 16.6874 25.1722 16.7565 25.1633 16.7565C25.1543 16.7565 25.1466 16.6861 25.1466 16.6004C25.1453 16.5146 25.153 16.4442 25.1633 16.4442Z" fill="#A6A7AD"/>
<path d="M25.3359 16.8538C25.3359 16.8448 25.4051 16.8372 25.4908 16.8372C25.5766 16.8372 25.6457 16.8448 25.6457 16.8538C25.6457 16.8628 25.5766 16.8704 25.4908 16.8704C25.4051 16.8704 25.3359 16.8628 25.3359 16.8538Z" fill="#A6A7AD"/>
<path d="M25.1729 17.2739C25.1639 17.2739 25.1562 17.2035 25.1562 17.1177C25.1562 17.0307 25.1639 16.9615 25.1729 16.9615C25.1818 16.9615 25.1895 17.0319 25.1895 17.1177C25.1895 17.2035 25.1818 17.2739 25.1729 17.2739Z" fill="#A6A7AD"/>
<path d="M25.4209 17.0934C25.4133 17.0998 25.3838 17.0755 25.3531 17.0384C25.3224 17.0026 25.3045 16.968 25.3109 16.9616C25.3185 16.9552 25.348 16.9795 25.3787 17.0166C25.4094 17.0538 25.4286 17.0883 25.4209 17.0934Z" fill="#A6A7AD"/>
<path d="M25.4101 16.6173C25.4165 16.6237 25.3973 16.6544 25.3653 16.6864C25.3333 16.7184 25.3025 16.7389 25.2961 16.7325C25.2897 16.7261 25.3089 16.6953 25.3409 16.6633C25.3717 16.6313 25.4024 16.6109 25.4101 16.6173Z" fill="#A6A7AD"/>
<path d="M25.0543 16.7387C25.0479 16.7464 25.0185 16.7311 24.989 16.7067C24.9596 16.6824 24.9391 16.6555 24.9455 16.6479C24.9519 16.6402 24.9801 16.6555 25.0108 16.6799C25.0415 16.7055 25.0607 16.7323 25.0543 16.7387Z" fill="#A6A7AD"/>
<path d="M25.0377 16.9486C25.0441 16.955 25.0274 16.9857 24.998 17.0164C24.9698 17.0471 24.9404 17.0676 24.934 17.0612C24.9276 17.0548 24.9442 17.0241 24.9737 16.9934C25.0018 16.9626 25.0313 16.9422 25.0377 16.9486Z" fill="#A6A7AD"/>
<path d="M36.3488 25.5569C36.3488 25.5659 36.2797 25.5736 36.1939 25.5736C36.1082 25.5736 36.0391 25.5659 36.0391 25.5569C36.0391 25.548 36.1082 25.5403 36.1939 25.5403C36.2797 25.5403 36.3488 25.548 36.3488 25.5569Z" fill="#A6A7AD"/>
<path d="M36.5158 25.137C36.5248 25.137 36.5324 25.2074 36.5324 25.2931C36.5324 25.3802 36.5248 25.4493 36.5158 25.4493C36.5068 25.4493 36.4992 25.3789 36.4992 25.2931C36.4979 25.2074 36.5056 25.137 36.5158 25.137Z" fill="#A6A7AD"/>
<path d="M36.6904 25.5468C36.6904 25.5378 36.7595 25.5302 36.8453 25.5302C36.9311 25.5302 37.0002 25.5378 37.0002 25.5468C37.0002 25.5558 36.9311 25.5634 36.8453 25.5634C36.7595 25.5647 36.6904 25.557 36.6904 25.5468Z" fill="#A6A7AD"/>
<path d="M36.5245 25.9666C36.5155 25.9666 36.5078 25.8962 36.5078 25.8105C36.5078 25.7234 36.5155 25.6543 36.5245 25.6543C36.5334 25.6543 36.5411 25.7247 36.5411 25.8105C36.5411 25.8975 36.5334 25.9666 36.5245 25.9666Z" fill="#A6A7AD"/>
<path d="M36.7745 25.787C36.7668 25.7934 36.7373 25.7691 36.7066 25.732C36.6759 25.6962 36.658 25.6616 36.6644 25.6552C36.6721 25.6488 36.7015 25.6731 36.7322 25.7102C36.7629 25.7461 36.7809 25.7806 36.7745 25.787Z" fill="#A6A7AD"/>
<path d="M36.7607 25.3109C36.7671 25.3173 36.7479 25.348 36.7159 25.38C36.6839 25.412 36.6531 25.4325 36.6467 25.4261C36.6403 25.4197 36.6595 25.389 36.6915 25.357C36.7235 25.3237 36.7543 25.3045 36.7607 25.3109Z" fill="#A6A7AD"/>
<path d="M36.4069 25.4315C36.4005 25.4392 36.371 25.4238 36.3416 25.3995C36.3121 25.3752 36.2917 25.3483 36.2981 25.3406C36.3045 25.3329 36.3326 25.3483 36.3633 25.3726C36.3941 25.3982 36.4133 25.4251 36.4069 25.4315Z" fill="#A6A7AD"/>
<path d="M36.3941 25.6412C36.4005 25.6476 36.3839 25.6783 36.3544 25.709C36.3263 25.7397 36.2968 25.7602 36.2904 25.7538C36.284 25.7474 36.3007 25.7167 36.3301 25.686C36.3583 25.6553 36.3877 25.6348 36.3941 25.6412Z" fill="#A6A7AD"/>
<path d="M36.5779 11.2617L36.5958 11.304C36.6265 11.3782 36.6867 11.4371 36.7609 11.4678L36.807 11.487L36.7622 11.5049C36.6867 11.5356 36.6265 11.5958 36.5958 11.6713L36.583 11.702L36.5638 11.6636C36.5292 11.5932 36.4691 11.5382 36.3961 11.5113L36.3564 11.4972L36.4089 11.4716C36.4755 11.4396 36.528 11.3846 36.5561 11.3168L36.5779 11.2617Z" fill="#A6A7AD"/>
<path d="M38.5576 10.5194L38.5666 10.5412C38.582 10.5783 38.6114 10.6077 38.6485 10.6231L38.6716 10.632L38.6498 10.641C38.6114 10.6564 38.582 10.6858 38.5666 10.7242L38.5602 10.7396L38.5513 10.7204C38.5346 10.6845 38.5039 10.6576 38.4668 10.6436L38.4463 10.6359L38.4732 10.6231C38.5065 10.6064 38.532 10.5796 38.5461 10.545L38.5576 10.5194Z" fill="#A6A7AD"/>
<path d="M23.1973 7.46912L23.2063 7.49088C23.2216 7.528 23.2511 7.55744 23.2882 7.5728L23.3112 7.58176L23.2895 7.59072C23.2511 7.60608 23.2216 7.63552 23.2063 7.67392L23.1999 7.68928L23.1909 7.67008C23.1743 7.63424 23.1435 7.60736 23.1064 7.59328L23.0859 7.5856L23.1128 7.5728C23.1461 7.55616 23.1717 7.52928 23.1858 7.49472L23.1973 7.46912Z" fill="#A6A7AD"/>
<path d="M24.043 18.897L24.052 18.9187C24.0673 18.9559 24.0968 18.9853 24.1339 19.0007L24.1569 19.0096L24.1352 19.0186C24.0968 19.0339 24.0673 19.0634 24.052 19.1018L24.0456 19.1171L24.0366 19.0979C24.02 19.0621 23.9892 19.0352 23.9521 19.0211L23.9316 19.0135L23.9585 19.0007C23.9918 18.984 24.0174 18.9571 24.0315 18.9226L24.043 18.897Z" fill="#A6A7AD"/>
<path d="M35.8799 23.9044L35.8889 23.9262C35.9042 23.9633 35.9337 23.9927 35.9708 24.0081L35.9938 24.0171L35.9721 24.026C35.9337 24.0414 35.9042 24.0708 35.8889 24.1092L35.8825 24.1246L35.8735 24.1054C35.8569 24.0695 35.8262 24.0427 35.789 24.0286L35.7686 24.0209L35.7954 24.0081C35.8287 23.9915 35.8543 23.9646 35.8684 23.93L35.8799 23.9044Z" fill="#A6A7AD"/>
<path d="M26.9834 5.25476L26.9924 5.27652C27.0078 5.31364 27.0372 5.34308 27.0743 5.35844L27.0973 5.3674L27.0756 5.37636C27.0372 5.39172 27.0078 5.42116 26.9924 5.45956L26.986 5.47492L26.977 5.45572C26.9604 5.41988 26.9297 5.393 26.8926 5.37892L26.8721 5.37124L26.8989 5.35844C26.9322 5.3418 26.9578 5.31492 26.9719 5.28036L26.9834 5.25476Z" fill="#A6A7AD"/>
<path d="M25.6414 20.1897L25.6593 20.2319C25.69 20.3062 25.7502 20.3651 25.8244 20.3958L25.8705 20.415L25.8257 20.4329C25.7502 20.4636 25.69 20.5238 25.6593 20.5993L25.6465 20.63L25.6273 20.5916C25.5927 20.5212 25.5326 20.4662 25.4596 20.4393L25.4199 20.4252L25.4724 20.3996C25.539 20.3676 25.5914 20.3126 25.6196 20.2447L25.6414 20.1897Z" fill="#A6A7AD"/>
</g>
<g opacity="0.11">
<path d="M22.2246 32.922L27.6403 32.6737L26.656 37.9627L22.2246 32.922Z" fill="#A6A7AD"/>
<path d="M25.9812 36.1699L23.9629 33.8744L14.6779 42.038L16.6962 44.3336L25.9812 36.1699Z" fill="#A6A7AD"/>
</g>
<g opacity="0.13">
<path d="M33.7109 25.4839L37.1861 25.3239L36.5538 28.7184L33.7109 25.4839Z" fill="#A6A7AD"/>
<path d="M36.119 27.567L34.8242 26.0944L28.8672 31.332L30.162 32.8046L36.119 27.567Z" fill="#A6A7AD"/>
</g>
<path d="M3.73828 52.2385C3.73828 52.2372 3.74852 52.2372 3.76644 52.236C3.78692 52.236 3.81508 52.2347 3.85092 52.2334C3.92772 52.2321 4.03908 52.2308 4.18628 52.2283C4.48196 52.2257 4.91844 52.2232 5.48292 52.2193C6.61444 52.2155 8.25924 52.2104 10.32 52.2027L10.2855 52.2372C10.2829 50.8894 10.2804 49.3585 10.2765 47.6792V47.6356H10.32C12.5882 47.6331 15.129 47.6305 17.8759 47.628L17.8247 47.6792C17.8234 46.3326 17.8234 44.9156 17.8221 43.4577V43.404H17.8759C20.1095 43.404 22.4775 43.4027 24.9133 43.4027C25.3882 43.4027 25.8618 43.4027 26.3303 43.4027L26.274 43.459C26.274 41.804 26.2752 40.186 26.2752 38.6168V38.5617H26.3303C29.3767 38.5643 32.2426 38.5656 34.8448 38.5681L34.7962 38.6168C34.8013 35.5844 34.8052 32.9105 34.809 30.7012V30.6654H34.8448C37.1296 30.6731 38.946 30.6782 40.1927 30.682C40.8148 30.6859 41.2948 30.6897 41.6199 30.691C41.7812 30.6936 41.904 30.6948 41.9885 30.6961C42.0295 30.6974 42.0602 30.6987 42.082 30.6987C42.1024 30.7 42.114 30.7 42.114 30.7012C42.114 30.7025 42.1037 30.7025 42.082 30.7038C42.0602 30.7038 42.0295 30.7051 41.9885 30.7064C41.9053 30.7076 41.7824 30.7089 41.6199 30.7115C41.2948 30.714 40.8148 30.7166 40.1927 30.7204C38.946 30.7243 37.1296 30.7294 34.8448 30.7371L34.8807 30.7012C34.8845 32.9105 34.8884 35.5832 34.8935 38.6168V38.6654H34.8448C32.2413 38.6667 29.3767 38.6692 26.3303 38.6718L26.3853 38.6168C26.3853 40.186 26.3866 41.804 26.3866 43.459V43.5153H26.3303C25.8605 43.5153 25.3882 43.5153 24.9133 43.5153C22.4775 43.5153 20.1095 43.514 17.8759 43.514L17.9296 43.4603C17.9284 44.9182 17.9284 46.3339 17.9271 47.6817V47.7329H17.8759C15.1303 47.7304 12.5882 47.7265 10.32 47.7252L10.3636 47.6817C10.361 49.3624 10.3572 50.892 10.3546 52.2398V52.2744H10.32C8.25924 52.268 6.61444 52.2616 5.48292 52.2577C4.91844 52.2539 4.48196 52.25 4.18628 52.2488C4.03908 52.2462 3.92772 52.2449 3.85092 52.2436C3.8138 52.2424 3.78564 52.2424 3.76644 52.2411C3.74852 52.2398 3.73828 52.2385 3.73828 52.2385Z" fill="#888889"/>
<path d="M16.8369 19.988L17.7137 19.3518C17.7969 18.7348 18.0465 18.1332 18.4702 17.6161C19.6888 16.13 21.8801 15.9137 23.3662 17.1323C24.8523 18.3508 25.0686 20.5422 23.85 22.0283C22.6315 23.5144 20.4401 23.7307 18.954 22.5121C18.3332 22.004 17.9352 21.3243 17.77 20.5985V20.6011L16.8369 19.988Z" fill="white"/>
<path d="M16.8369 19.9884C16.8369 19.9884 16.8548 20.0012 16.8945 20.0281C16.9355 20.0563 16.9944 20.096 17.0699 20.1472C17.2286 20.2534 17.4616 20.4096 17.7636 20.6118C17.7688 20.6156 17.7764 20.6144 17.7803 20.608C17.7816 20.6067 17.7828 20.6041 17.7828 20.6016V20.599L17.7585 20.6016C17.8571 21.038 18.0721 21.6025 18.5329 22.1299C18.6468 22.2617 18.7761 22.3884 18.9208 22.5088C19.0705 22.6214 19.2216 22.7456 19.3969 22.8403C19.7412 23.0438 20.1444 23.2 20.5848 23.2742C21.0251 23.3484 21.5038 23.3395 21.9774 23.2256C22.451 23.1129 22.9208 22.894 23.3329 22.5715C23.7464 22.2515 24.0894 21.8176 24.3262 21.3209C24.5617 20.8243 24.6897 20.2572 24.6603 19.6825L24.6488 19.4662L24.618 19.2537L24.6027 19.1475L24.5771 19.0438L24.5259 18.8364C24.5067 18.7686 24.4798 18.702 24.458 18.6355C24.4337 18.5689 24.4145 18.5011 24.3825 18.4384C24.3224 18.3116 24.2699 18.1824 24.1944 18.0659C23.9166 17.5859 23.5313 17.1865 23.0948 16.8947C22.6545 16.6067 22.1656 16.4288 21.6804 16.3571C21.1953 16.2854 20.7166 16.3187 20.2827 16.4326C19.8475 16.5452 19.4596 16.7372 19.1332 16.9702C18.9668 17.0828 18.826 17.2172 18.6878 17.3452C18.5624 17.4848 18.4356 17.6153 18.3358 17.7587C17.9249 18.3257 17.7598 18.9068 17.7022 19.3472L17.7073 19.3395C17.4244 19.5494 17.2056 19.7107 17.0558 19.8208C16.9841 19.8732 16.9304 19.9142 16.8907 19.9436C16.8548 19.9744 16.8369 19.9884 16.8369 19.9884C16.8369 19.9884 16.8587 19.9744 16.8971 19.9475C16.9368 19.9193 16.9944 19.8796 17.0673 19.8272C17.2171 19.7209 17.436 19.5648 17.7201 19.3625C17.7227 19.36 17.724 19.3574 17.7252 19.3548C17.7867 18.9171 17.9544 18.3436 18.3652 17.7856C18.4651 17.6448 18.5905 17.5168 18.7147 17.3785C18.8516 17.2531 18.9912 17.1212 19.1563 17.0099C19.4788 16.7808 19.8641 16.5926 20.2929 16.4825C20.7217 16.3724 21.194 16.3404 21.6715 16.4121C22.1489 16.4825 22.6302 16.6592 23.0628 16.9433C23.4929 17.2313 23.8718 17.6243 24.1444 18.0979C24.2187 18.2131 24.2699 18.3398 24.33 18.4652C24.362 18.5267 24.38 18.5932 24.4043 18.6585C24.426 18.7238 24.4529 18.7891 24.4708 18.8556L24.5208 19.0592L24.5451 19.1616L24.5604 19.2665L24.5912 19.4764L24.6027 19.6889C24.6321 20.2534 24.5054 20.8115 24.275 21.3004C24.042 21.7894 23.7041 22.2169 23.2984 22.5331C22.8939 22.8518 22.4318 23.0668 21.9646 23.1795C21.4974 23.2921 21.0264 23.3024 20.5912 23.2307C20.156 23.159 19.7579 23.0067 19.4161 22.807C19.242 22.7136 19.0923 22.592 18.9438 22.4806C18.8004 22.3628 18.6724 22.2374 18.5585 22.1081C18.1003 21.5897 17.8827 21.0316 17.7803 20.599C17.779 20.5926 17.7726 20.5888 17.7662 20.59C17.7611 20.5913 17.7572 20.5964 17.7572 20.6016V20.6041L17.7764 20.5939C17.4744 20.3993 17.2414 20.2496 17.0814 20.1459C17.0033 20.096 16.9432 20.0576 16.8996 20.0307C16.86 20.0025 16.8369 19.9884 16.8369 19.9884Z" fill="#8E8E8E"/>
<path d="M21.1595 22.0651C22.2955 22.0651 23.2165 21.1442 23.2165 20.0081C23.2165 18.8721 22.2955 17.9512 21.1595 17.9512C20.0235 17.9512 19.1025 18.8721 19.1025 20.0081C19.1025 21.1442 20.0235 22.0651 21.1595 22.0651Z" fill="#FF725E"/>
<path d="M21.1595 22.0651C22.2955 22.0651 23.2165 21.1442 23.2165 20.0081C23.2165 18.8721 22.2955 17.9512 21.1595 17.9512C20.0235 17.9512 19.1025 18.8721 19.1025 20.0081C19.1025 21.1442 20.0235 22.0651 21.1595 22.0651Z" fill="#919191"/>
<path d="M21.9352 21.6839C22.9867 21.254 23.4907 20.0531 23.0608 19.0016C22.6309 17.9501 21.43 17.4462 20.3785 17.8761C19.327 18.3059 18.8231 19.5068 19.253 20.5583C19.6828 21.6098 20.8837 22.1138 21.9352 21.6839Z" fill="#A6A7AD"/>
<path d="M22.1316 20.7539C22.6694 20.216 22.6694 19.344 22.1316 18.8062C21.5937 18.2683 20.7217 18.2683 20.1838 18.8062C19.646 19.344 19.646 20.216 20.1838 20.7539C20.7217 21.2918 21.5937 21.2918 22.1316 20.7539Z" fill="white"/>
<path d="M21.1589 20.4548C21.5315 20.4548 21.8335 20.1528 21.8335 19.7803C21.8335 19.4077 21.5315 19.1057 21.1589 19.1057C20.7864 19.1057 20.4844 19.4077 20.4844 19.7803C20.4844 20.1528 20.7864 20.4548 21.1589 20.4548Z" fill="#A6A7AD"/>
<path d="M22.5925 18.275L22.5361 17.836L22.9829 17.3585L23.0149 17.8321L22.5925 18.275Z" fill="#7C7C7C"/>
<path d="M23.5521 17.9257L23.0989 17.8885L22.6445 18.3263L23.0989 18.375L23.5521 17.9257Z" fill="#7C7C7C"/>
<path opacity="0.3" d="M21.248 19.7714L22.8212 18.5707C22.7674 18.4914 22.6996 18.4107 22.624 18.3301L21.248 19.6638V19.7714Z" fill="black"/>
<path d="M23.0324 17.7656C22.8186 17.9794 22.6049 18.1931 22.3924 18.4056C22.0532 18.7448 21.7153 19.0827 21.3761 19.4219C21.298 19.5 21.2199 19.5781 21.1431 19.6549C21.0689 19.7291 21.1841 19.843 21.2583 19.7688C21.4721 19.555 21.6858 19.3413 21.8983 19.1288C22.2375 18.7896 22.5754 18.4517 22.9146 18.1125C22.9927 18.0344 23.0708 17.9563 23.1476 17.8795C23.2218 17.8053 23.1066 17.6914 23.0324 17.7656Z" fill="#5B5B5B"/>
<path d="M10.4492 22.1466L10.814 18.0903C10.8716 17.0778 11.5091 16.2689 12.519 16.3546L12.6124 16.3674C13.5468 16.5018 14.2214 17.3326 14.1625 18.2746C14.1075 19.1514 14.0358 20.1204 13.9628 20.5838C13.8118 21.545 12.8275 21.5553 12.8275 21.5553C12.8249 21.5553 12.7609 22.1428 12.7327 22.427L12.6111 23.0887L12.1171 22.8378L10.4492 22.1466Z" fill="#EFCDBB"/>
<path d="M12.8325 21.5235C12.8325 21.5235 12.2206 21.471 11.6318 20.9718C11.6318 20.9718 11.829 21.7385 12.8018 21.791L12.8325 21.5235Z" fill="#DBB3A2"/>
<path d="M12.476 18.1205C12.4683 18.1628 12.3173 18.1679 12.147 18.2153C11.9768 18.2601 11.845 18.333 11.8155 18.301C11.8027 18.2857 11.8206 18.2434 11.8706 18.196C11.9205 18.1487 12.0037 18.0975 12.1061 18.0693C12.2085 18.0412 12.3058 18.0425 12.3736 18.0591C12.4414 18.0745 12.4786 18.1001 12.476 18.1205Z" fill="#38302D"/>
<path d="M13.7789 18.2163C13.7443 18.2457 13.6278 18.1958 13.4832 18.1753C13.3386 18.151 13.2118 18.1638 13.1888 18.1241C13.1786 18.1049 13.2029 18.0742 13.2605 18.0499C13.3181 18.0256 13.409 18.0102 13.5088 18.0256C13.6086 18.0409 13.6906 18.0832 13.7366 18.1241C13.7827 18.1651 13.7942 18.2022 13.7789 18.2163Z" fill="#38302D"/>
<path d="M10.8024 18.7821C10.787 18.7731 10.1688 18.4915 10.0945 19.152C10.0203 19.8137 10.7 19.751 10.7025 19.7318C10.7064 19.7139 10.8024 18.7821 10.8024 18.7821Z" fill="#EFCDBB"/>
<path d="M10.5132 19.4587C10.5106 19.4562 10.5004 19.4651 10.4799 19.4728C10.4594 19.4792 10.4262 19.4818 10.3942 19.4651C10.3276 19.4319 10.2802 19.3141 10.2905 19.1951C10.2956 19.1349 10.3148 19.0786 10.3417 19.0338C10.3673 18.9877 10.4018 18.957 10.4377 18.9544C10.4735 18.9506 10.4966 18.9736 10.5017 18.9941C10.5081 19.0133 10.503 19.0261 10.5068 19.0274C10.5081 19.0287 10.5222 19.0184 10.5196 18.9903C10.5183 18.9762 10.5119 18.9608 10.4978 18.9455C10.4838 18.9314 10.4607 18.9211 10.4364 18.9211C10.3852 18.9186 10.334 18.9608 10.3046 19.0107C10.2726 19.0607 10.2495 19.1234 10.2444 19.1912C10.2342 19.3243 10.2879 19.4575 10.3801 19.4959C10.4249 19.5138 10.4658 19.5035 10.4876 19.4907C10.5106 19.4741 10.5158 19.46 10.5132 19.4587Z" fill="#DBB3A2"/>
<path d="M15.5864 17.5083C15.58 17.4687 15.5557 17.4328 15.5237 17.4085C15.4533 17.3547 15.365 17.3509 15.2805 17.3407C15.0706 17.3138 14.8696 17.2357 14.693 17.1205C14.7621 17.0949 14.8274 17.0616 14.885 17.0155C15.004 16.9208 15.0834 16.7647 15.0514 16.6162C15.045 16.588 15.0335 16.5586 15.0066 16.5471C14.9656 16.5291 14.9234 16.5663 14.8888 16.597C14.7775 16.6955 14.6815 16.7327 14.5368 16.7007C14.4472 16.6815 14.3602 16.6507 14.2936 16.5983C14.2911 16.5944 14.2885 16.5919 14.286 16.588C14.2552 16.5483 14.2258 16.5112 14.1964 16.4741C13.9762 16.1989 13.7816 16.0043 13.5717 15.8904C13.2632 15.724 12.7295 15.6101 12.3839 15.66C12.037 15.7099 11.7042 15.948 11.6184 16.2885C11.4482 16.108 11.164 16.076 10.9234 16.1426L10.9183 16.14C10.652 16.2027 10.4754 16.4562 10.3704 16.7083C10.3653 16.7224 10.3589 16.7365 10.3538 16.7506C10.2514 16.8786 10.1208 16.9823 9.97109 17.0475C9.94421 17.0591 9.91477 17.0731 9.90837 17.1013C9.90197 17.1295 9.92372 17.1551 9.9442 17.1743C10.0005 17.2255 10.0684 17.2626 10.1413 17.2843C10.1106 17.3432 10.076 17.4008 10.0364 17.4546C10.0018 17.5007 9.96084 17.5544 9.98004 17.6082C9.9954 17.6504 10.0428 17.6722 10.0876 17.6709C10.1324 17.6696 10.1733 17.6504 10.213 17.6299C10.1772 17.6952 10.14 17.7605 10.1042 17.8258C10.1951 17.8527 10.2911 17.8565 10.3845 17.8386C10.4114 18.0895 10.4012 18.5451 10.4447 18.7179C10.62 18.741 10.6648 18.7269 10.7493 18.7666C10.8594 18.8178 10.7928 19.0149 10.9477 18.9752C11.0271 18.9547 11.1756 18.6808 11.2101 18.6066C11.4367 18.1125 11.5557 17.5698 11.5557 17.0271C11.6748 16.9259 11.813 16.8479 11.9615 16.7992L11.9487 16.8082C12.2303 16.7455 12.5464 16.6879 12.7884 16.844C12.9765 16.9656 13.07 17.1845 13.1992 17.3663C13.445 17.7106 13.7458 17.9141 14.1644 17.9794C14.1695 18.2751 14.126 18.7538 14.1093 19.0277L14.4037 18.5093V18.5119C14.4268 18.4824 14.446 18.4517 14.4639 18.421L14.4703 18.412V18.4107C14.4997 18.3621 14.5292 18.3122 14.565 18.2648C14.5663 18.2661 14.5663 18.2661 14.5676 18.2674C14.7007 18.4146 14.94 18.2405 14.8415 18.0677C14.8223 18.0331 14.798 18.0024 14.7685 17.9755C14.8287 18.0459 14.926 18.0882 15.0168 18.0715C15.109 18.0549 15.1871 17.973 15.1896 17.8795C15.1909 17.8155 15.1525 17.7541 15.0988 17.7234C15.2165 17.7464 15.342 17.7336 15.452 17.6863C15.5263 17.653 15.6005 17.5967 15.5864 17.5083Z" fill="#38302D"/>
<path d="M11.9099 16.4332C11.9112 16.4358 11.8664 16.4537 11.8024 16.5113C11.7396 16.5676 11.6641 16.67 11.6168 16.8159C11.5937 16.8876 11.5745 16.9695 11.5643 17.0591C11.554 17.1487 11.5502 17.2447 11.5451 17.3459C11.54 17.447 11.5348 17.5545 11.5156 17.6646C11.5067 17.7196 11.4926 17.7747 11.4747 17.8297C11.4568 17.8835 11.435 17.9411 11.3876 17.9846C11.3505 18.0191 11.2929 18.0307 11.2456 18.0153C11.1982 18.0012 11.1585 17.9705 11.1304 17.9321C11.0766 17.8527 11.0715 17.758 11.0651 17.6761L11.0856 17.6812C11.0446 17.7503 11.0024 17.8182 10.9448 17.8707C10.8884 17.9231 10.8155 17.9539 10.7451 17.9513C10.7105 17.95 10.676 17.9411 10.6478 17.9219C10.6196 17.9039 10.5992 17.8758 10.5876 17.8476C10.5761 17.8182 10.5723 17.7887 10.5774 17.7593C10.5825 17.7311 10.5966 17.7043 10.6171 17.6876L10.626 17.6979C10.5416 17.7747 10.4584 17.8105 10.4008 17.8297C10.3713 17.8387 10.3496 17.8438 10.3329 17.8476C10.3176 17.8502 10.3099 17.8515 10.3086 17.8502C10.3086 17.8489 10.3163 17.8476 10.3316 17.8438C10.347 17.8399 10.3688 17.8335 10.3969 17.8233C10.4532 17.8028 10.5339 17.7644 10.6158 17.6876L10.6248 17.6979C10.5876 17.7286 10.58 17.7887 10.6017 17.8412C10.6132 17.8668 10.6312 17.8911 10.6568 17.9078C10.6824 17.9244 10.7131 17.9321 10.7451 17.9334C10.8104 17.9347 10.8782 17.9052 10.9307 17.8553C10.9844 17.8054 11.0254 17.7388 11.0664 17.6697L11.0843 17.6403L11.0868 17.6748C11.0932 17.758 11.0996 17.8476 11.1483 17.9206C11.1726 17.9551 11.2097 17.9833 11.2507 17.9948C11.2916 18.0076 11.339 17.9987 11.371 17.9692C11.412 17.9321 11.4337 17.8771 11.4516 17.8246C11.4696 17.7708 11.4824 17.7171 11.4926 17.6633C11.5118 17.5558 11.5169 17.4495 11.522 17.3484C11.5272 17.2473 11.5323 17.15 11.5425 17.0604C11.554 16.9708 11.5732 16.8876 11.5988 16.8147C11.6488 16.6675 11.7268 16.5638 11.7934 16.5087C11.8625 16.4486 11.9099 16.4332 11.9099 16.4332Z" fill="#2D2320"/>
<path d="M14.7947 17.7141C14.7947 17.7141 14.7922 17.7166 14.7858 17.7192C14.7781 17.723 14.7704 17.7282 14.7602 17.7346C14.7486 17.741 14.7346 17.7486 14.7166 17.7563C14.6987 17.764 14.6782 17.773 14.6539 17.7806C14.5592 17.8126 14.4107 17.8395 14.2315 17.8075C14.0536 17.7768 13.8475 17.6898 13.6722 17.5259C13.4942 17.3646 13.3483 17.1406 13.2357 16.891C13.1781 16.7656 13.1346 16.6389 13.0846 16.5211C13.0347 16.4034 12.9771 16.292 12.9016 16.2024C12.8274 16.1115 12.7378 16.0398 12.6418 16.0014C12.5944 15.981 12.5445 15.972 12.4971 15.9682C12.4485 15.9656 12.4024 15.9694 12.3602 15.9784C12.2731 15.9963 12.2014 16.0347 12.1451 16.077C12.0888 16.1192 12.0478 16.1653 12.0197 16.2062C11.9659 16.2907 11.957 16.347 11.9531 16.3458C11.9531 16.3458 11.9531 16.3419 11.9544 16.3355C11.957 16.3278 11.9595 16.3176 11.9621 16.3061C11.9698 16.2805 11.9851 16.2446 12.0107 16.2011C12.0389 16.1589 12.0786 16.1102 12.1362 16.0667C12.1938 16.0232 12.2667 15.9822 12.3563 15.963C12.4011 15.9528 12.4485 15.9477 12.4984 15.9502C12.5483 15.9541 12.5995 15.963 12.6494 15.9835C12.7493 16.0232 12.8427 16.0962 12.9182 16.1883C12.995 16.2805 13.0539 16.3931 13.1051 16.5122C13.1563 16.6312 13.1998 16.7579 13.2562 16.8821C13.3675 17.1304 13.5109 17.3518 13.685 17.5118C13.8565 17.6744 14.0587 17.7614 14.2328 17.7934C14.4082 17.8267 14.5554 17.8024 14.6501 17.773C14.7461 17.7422 14.7934 17.7115 14.7947 17.7141Z" fill="#2D2320"/>
<path d="M14.9325 17.2997C14.9338 17.301 14.9197 17.3086 14.8954 17.3202C14.8711 17.3317 14.834 17.347 14.7866 17.3611C14.7393 17.3752 14.6829 17.388 14.6177 17.3957C14.5537 17.4034 14.482 17.4059 14.4065 17.3995C14.3322 17.3931 14.2618 17.379 14.1991 17.3611C14.1364 17.3419 14.0826 17.3214 14.0378 17.2997C13.9943 17.2779 13.9597 17.2574 13.9367 17.2421C13.9137 17.2267 13.9021 17.2178 13.9034 17.2165C13.906 17.2126 13.9559 17.2459 14.0442 17.2856C14.0877 17.3048 14.1428 17.3253 14.2042 17.3419C14.2657 17.3573 14.3348 17.3714 14.4077 17.3778C14.4807 17.3829 14.5511 17.3816 14.6151 17.3752C14.6778 17.3688 14.7354 17.3586 14.7815 17.3458C14.8749 17.3202 14.93 17.2958 14.9325 17.2997Z" fill="#2D2320"/>
<path d="M13.1183 20.2224C13.1043 20.2019 12.9711 20.3043 12.7881 20.2633C12.6051 20.2224 12.5103 20.0688 12.4911 20.0816C12.4809 20.0867 12.4899 20.1328 12.5347 20.1942C12.5782 20.2544 12.6626 20.326 12.7753 20.3516C12.8866 20.376 12.9878 20.3465 13.0454 20.3094C13.1042 20.271 13.126 20.2313 13.1183 20.2224Z" fill="#38302D"/>
<path d="M8.26309 21.5583C8.26309 21.5583 7.62053 21.2767 7.11109 21.822C6.60165 22.3673 4.72901 26.0114 4.48197 26.6988C4.07621 27.8303 4.95045 28.7954 5.67877 28.8351C6.40709 28.8748 9.25637 27.9583 9.25637 27.9583L8.63557 26.3237L6.81669 26.4684L8.22597 23.6357L8.26309 21.5583Z" fill="#C4C4C4"/>
<path d="M11.3779 24.766C11.3779 24.766 12.0794 28.3206 12.4134 28.6086C12.7475 28.8953 15.3856 30.0768 15.3856 30.0768L16.1754 28.7929L14.0787 27.5155L14.0685 24.8172C14.0467 24.0556 13.7421 23.5795 13.3926 23.3235L11.3779 24.766Z" fill="#C4C4C4"/>
<path d="M12.861 22.3441L12.3861 22.9585L12.0917 22.197L10.4162 21.1102L9.92854 21.5787C9.92854 21.5787 8.0495 21.6158 7.9279 21.7067C7.65782 21.9102 7.16374 24.9541 7.16374 24.9541L6.2127 30.6936C6.13206 30.924 6.93078 31.084 7.39414 31.1979L11.6578 31.8085C11.6578 31.8085 12.1647 31.9288 12.3093 31.6165C12.4258 31.3643 12.6677 28.7134 12.9135 27.267C12.9788 26.8843 13.0377 25.516 13.0377 25.516L13.5113 23.4001L12.998 23.0136L12.861 22.3441Z" fill="#C4C4C4"/>
<path d="M7.478 25.1616C7.4844 25.1641 7.4524 25.2396 7.39736 25.3612C7.34104 25.4816 7.26168 25.6467 7.16952 25.8272C7.07864 26.0076 6.99288 26.1702 6.92888 26.2867C6.86488 26.4032 6.82264 26.4736 6.81624 26.4697C6.80984 26.4659 6.84184 26.3904 6.89688 26.27C6.9532 26.1497 7.03256 25.9846 7.12472 25.8041C7.2156 25.6236 7.30136 25.4611 7.36536 25.3459C7.42936 25.2294 7.4716 25.159 7.478 25.1616Z" fill="#9B9B9B"/>
<path d="M11.9958 22.2189C11.9997 22.2227 11.937 22.2919 11.8282 22.4083C11.7194 22.5235 11.5619 22.6861 11.3776 22.8743L11.3635 22.8883L11.3469 22.8755C11.2278 22.7847 11.0998 22.6835 10.968 22.5735C10.6736 22.3277 10.4214 22.0909 10.2448 21.913C10.1565 21.8247 10.0861 21.7504 10.04 21.6979C9.99265 21.6455 9.96833 21.616 9.97089 21.6135C9.97345 21.6109 10.0029 21.6365 10.0541 21.6839C10.113 21.7389 10.1846 21.8067 10.2704 21.8861C10.4534 22.0576 10.7082 22.2893 11.0013 22.5338C11.1318 22.6426 11.2586 22.745 11.3763 22.8371L11.3456 22.8397C11.5325 22.6541 11.6938 22.4967 11.809 22.3866C11.9229 22.2778 11.992 22.2151 11.9958 22.2189Z" fill="#9B9B9B"/>
<path d="M13.2909 24.2413C13.305 24.2426 13.2781 24.5921 13.2333 25.0221C13.1873 25.4522 13.1399 25.7991 13.1258 25.7978C13.1117 25.7965 13.1386 25.4471 13.1834 25.017C13.2295 24.5869 13.2769 24.2401 13.2909 24.2413Z" fill="#9B9B9B"/>
<path d="M15.209 28.3614C15.209 28.3614 15.7325 27.4807 15.8426 27.5153C15.9527 27.5498 16.009 27.779 15.9424 27.9466C15.8759 28.1156 15.6915 28.7914 15.6915 28.7914L15.209 28.3614Z" fill="#EFCDBB"/>
<path d="M15.374 43.6855L14.8543 46.0279C14.8543 46.0279 17.0905 47.171 17.0367 47.6126L12.4287 46.9406L13.0879 43.2567L15.374 43.6855Z" fill="#494949"/>
<g opacity="0.6">
<path d="M13.4835 45.5685C13.3901 45.5762 13.3107 45.6645 13.3146 45.758C13.3184 45.8514 13.408 45.9333 13.5015 45.9269C13.5949 45.9205 13.6935 45.8181 13.6794 45.7247C13.6653 45.6325 13.5552 45.5416 13.4656 45.5711" fill="white"/>
</g>
<g opacity="0.6">
<path d="M12.4287 46.9402L12.4953 46.569L16.9215 47.3728C16.9215 47.3728 17.0598 47.4598 17.0546 47.6493L12.4287 46.9402Z" fill="white"/>
</g>
<path d="M14.9397 46.0192C14.9345 46.041 14.8206 46.0308 14.6977 46.0832C14.5736 46.1319 14.4981 46.2176 14.4801 46.2048C14.4609 46.1972 14.5185 46.0692 14.6683 46.009C14.8181 45.9476 14.9486 45.9988 14.9397 46.0192Z" fill="#E2E2E2"/>
<path d="M15.3877 46.3054C15.389 46.3284 15.2853 46.3476 15.1919 46.4283C15.0959 46.5064 15.0588 46.6049 15.0357 46.5998C15.014 46.5998 15.0229 46.4654 15.1407 46.3681C15.2585 46.2696 15.3916 46.2836 15.3877 46.3054Z" fill="#E2E2E2"/>
<path d="M15.5546 46.9309C15.5328 46.9321 15.5226 46.8144 15.6032 46.703C15.6826 46.5904 15.7965 46.5622 15.8029 46.5827C15.8118 46.6032 15.7325 46.6569 15.6685 46.7491C15.6006 46.84 15.5763 46.9334 15.5546 46.9309Z" fill="#E2E2E2"/>
<path d="M15.007 45.4704C14.9942 45.4896 14.8969 45.4397 14.7689 45.4244C14.6409 45.4064 14.5347 45.4308 14.527 45.4103C14.5168 45.3924 14.6281 45.3271 14.7792 45.3463C14.9289 45.3642 15.0211 45.4551 15.007 45.4704Z" fill="#E2E2E2"/>
<g opacity="0.3">
<path d="M15.2829 44.1488L15.1907 44.566L12.9443 44.1308L13.0109 43.752L15.2829 44.1488Z" fill="black"/>
</g>
<path d="M8.05655 47.9223L7.75831 50.3031C7.75831 50.3031 10.0918 51.2311 10.079 51.6766L5.42871 51.4385L5.74103 47.7098L8.05655 47.9223Z" fill="#494949"/>
<path d="M5.80154 19.8699C5.90954 18.8968 5.20822 18.0204 4.2351 17.9124C3.26198 17.8044 2.38556 18.5057 2.27757 19.4789C2.16958 20.452 2.8709 21.3284 3.84402 21.4364C4.81714 21.5444 5.69355 20.8431 5.80154 19.8699Z" fill="#8C8C8C"/>
<path d="M25.6246 40.1668L23.8543 36.058L5.72826 18.842L3.33594 21.4852L21.366 38.572L25.6246 40.1668Z" fill="#B2B2B2"/>
<path d="M21.3672 38.5722C21.3953 38.3968 21.5477 38.274 21.7141 38.3367C21.5349 38.0589 21.5528 37.6685 21.7589 37.4087C21.9637 37.1501 22.3413 37.0426 22.6523 37.154C22.5857 36.834 22.7035 36.482 22.9493 36.2669C23.195 36.0519 23.5598 35.9815 23.8683 36.089L25.6257 40.1671L21.3672 38.5722Z" fill="#C7C9C9"/>
<path d="M24.9138 38.5148C24.9138 38.5148 24.0793 38.3215 23.8809 39.5132L25.6255 40.166L24.9138 38.5148Z" fill="#595959"/>
<path d="M22.6505 37.155L4.67676 20.2372L5.807 18.924L23.8524 36.058L23.8652 36.0888C23.8652 36.0888 23.6873 36.0158 23.4595 36.0427C23.3072 36.0606 23.1228 36.122 22.9667 36.25C22.7657 36.4152 22.6723 36.6276 22.6428 36.8068C22.6121 37.0001 22.6505 37.155 22.6505 37.155Z" fill="#8C8C8C"/>
<path d="M21.7116 38.3364L3.63546 21.1652L3.33594 21.512L21.3647 38.5719C21.3647 38.5719 21.3942 38.3146 21.6476 38.3197C21.6681 38.321 21.6899 38.33 21.7116 38.3364Z" fill="#8C8C8C"/>
<path d="M5.90778 19.0034L3.38618 21.5391C3.35034 21.575 3.29274 21.575 3.2569 21.5391L2.4761 20.7622C2.44026 20.7263 2.44026 20.6687 2.4761 20.6329L4.9977 18.0972C5.03354 18.0614 5.09114 18.0614 5.12698 18.0972L5.90778 18.8742C5.94234 18.91 5.94362 18.9676 5.90778 19.0034Z" fill="#E0E0E0"/>
<path d="M5.90638 19.0034C5.9051 19.0022 5.9115 18.997 5.91918 18.9817C5.92558 18.9676 5.93326 18.942 5.92302 18.9113C5.91406 18.8818 5.87694 18.8575 5.84366 18.823C5.80782 18.7884 5.76814 18.75 5.72334 18.7065C5.63246 18.6182 5.52238 18.5106 5.39566 18.3865C5.33166 18.3238 5.26382 18.2572 5.19214 18.1868C5.17422 18.1689 5.1563 18.151 5.1371 18.133C5.1179 18.1138 5.10254 18.0959 5.08078 18.0908C5.0603 18.0844 5.03598 18.0882 5.01806 18.101C5.00142 18.1138 4.97966 18.1382 4.96174 18.1574C4.32686 18.7986 3.45518 19.6793 2.49134 20.6521C2.4683 20.6738 2.46574 20.7122 2.48366 20.7378C2.5067 20.7634 2.54126 20.7967 2.5707 20.8249C2.63086 20.885 2.68974 20.9439 2.7499 21.0028C2.86766 21.1206 2.98414 21.237 3.09934 21.351C3.15694 21.4086 3.21326 21.4649 3.26958 21.5199C3.29134 21.5442 3.32334 21.5494 3.35022 21.5353C3.35662 21.5314 3.36302 21.5276 3.36814 21.5225L3.38862 21.502L3.42958 21.461C3.53966 21.351 3.64718 21.2434 3.75214 21.1385C4.17198 20.7186 4.54958 20.341 4.8683 20.0236C5.18574 19.71 5.44302 19.454 5.6235 19.2748C5.71182 19.189 5.78094 19.1212 5.83086 19.0726C5.85262 19.0521 5.87182 19.0342 5.8859 19.0214C5.8987 19.0086 5.9051 19.0034 5.90638 19.0034C5.90638 19.0034 5.90126 19.0111 5.88974 19.0239C5.87566 19.038 5.85902 19.0572 5.83854 19.079C5.7899 19.1289 5.72334 19.1993 5.63758 19.2876C5.45838 19.4694 5.20494 19.7292 4.89262 20.0479C4.57646 20.3679 4.20014 20.7494 3.78414 21.1705C3.67918 21.2754 3.57294 21.3842 3.46286 21.4943L3.4219 21.5353L3.40142 21.5558C3.39246 21.5647 3.38222 21.5711 3.37198 21.5775C3.32846 21.6006 3.2683 21.589 3.2363 21.5532C3.17998 21.4969 3.12366 21.4406 3.06606 21.3842C2.95086 21.2703 2.83438 21.1551 2.71662 21.0374C2.65774 20.9785 2.59758 20.9196 2.53742 20.8594C2.5067 20.8274 2.47854 20.8044 2.44526 20.766C2.41198 20.7225 2.41838 20.6546 2.45806 20.6162C3.42574 19.6473 4.30126 18.7705 4.9387 18.1318C4.96046 18.1113 4.97454 18.0934 5.00142 18.0716C5.0283 18.0537 5.06286 18.0486 5.09358 18.0588C5.12558 18.0678 5.14478 18.0934 5.1627 18.11C5.18062 18.1279 5.19854 18.1471 5.21646 18.165C5.28814 18.2367 5.3547 18.3046 5.41742 18.3673C5.54158 18.494 5.65038 18.6028 5.7387 18.6924C5.78222 18.7372 5.82062 18.7769 5.85518 18.8114C5.88718 18.8473 5.92302 18.8716 5.93326 18.9074C5.9435 18.942 5.93326 18.9689 5.9243 18.983C5.91406 18.9996 5.90638 19.0034 5.90638 19.0034Z" fill="#515151"/>
<path d="M2.77862 20.3652C2.78758 20.3549 2.99878 20.5405 3.24838 20.7799C3.49798 21.0192 3.69382 21.2202 3.68358 21.2304C3.67462 21.2407 3.46342 21.0551 3.21382 20.8157C2.96422 20.5764 2.76966 20.3741 2.77862 20.3652Z" fill="#515151"/>
<path d="M3.71122 19.3682C3.72146 19.358 3.93906 19.5487 4.20914 19.7829C4.47922 20.0172 4.69938 20.2066 4.69042 20.2168C4.68146 20.2271 4.44722 20.0556 4.17714 19.82C3.90578 19.5858 3.70226 19.3772 3.71122 19.3682Z" fill="#515151"/>
<path d="M5.76551 19.1364C5.75527 19.1466 5.54023 18.961 5.28423 18.7229C5.02823 18.4849 4.82727 18.2826 4.83623 18.2724C4.84519 18.2621 5.06151 18.4477 5.31751 18.6871C5.57479 18.9252 5.77575 19.1261 5.76551 19.1364Z" fill="#515151"/>
<path d="M11.5556 24.6532C11.5556 24.6532 10.7018 24.7453 10.4458 24.7812C10.1898 24.817 9.84548 24.8874 9.72644 25.0909C9.6778 25.1741 8.92899 26.2685 8.92899 26.2685L8.64355 26.3492L9.10052 27.6061L9.87363 27.2221C9.87363 27.2221 10.136 26.9277 10.346 26.6487C10.5559 26.3697 10.6199 26.2685 10.6199 26.2685C10.6199 26.2685 11.3853 26.3044 11.5402 26.1713C11.626 26.0983 11.5735 25.969 11.5735 25.969L10.7389 25.8961C10.7389 25.8961 11.6452 25.8935 11.7962 25.7937C11.8103 25.7847 11.8218 25.7745 11.8308 25.7655C11.9178 25.6785 11.85 25.5274 11.7271 25.5261L10.7504 25.5197C10.7504 25.5197 11.8717 25.4173 11.896 25.2932C11.8999 25.2714 11.9024 25.2509 11.9037 25.2317C11.9088 25.1511 11.8436 25.0845 11.7629 25.0871L10.8477 25.1165C10.8477 25.1165 11.7322 24.9745 11.7412 24.8516C11.7578 24.6148 11.5556 24.6532 11.5556 24.6532Z" fill="#EFCDBB"/>
<path d="M5.77051 27.0814C5.99963 26.7319 6.39899 26.5105 6.81627 26.4695C6.85595 26.4657 8.67867 26.2711 8.67867 26.2711L9.23675 28.0145L6.56155 28.7108" fill="#C4C4C4"/>
<path d="M6.5597 28.7108C6.5597 28.7095 6.57634 28.7031 6.60962 28.6928C6.64674 28.6826 6.69666 28.6685 6.75682 28.6506C6.89122 28.6135 7.0781 28.5623 7.31106 28.4996C7.78978 28.3728 8.45666 28.1962 9.22722 27.9914L9.21058 28.0221C9.10562 27.697 8.99298 27.3437 8.8765 26.9802C8.7997 26.7396 8.72546 26.5053 8.6525 26.28L8.6781 26.2967C8.23522 26.3428 7.8205 26.3863 7.44546 26.4247C7.25858 26.4439 7.08194 26.4618 6.91682 26.4784C6.7517 26.4925 6.60194 26.5156 6.47138 26.5629C6.20898 26.6525 6.03106 26.7959 5.92354 26.9021C5.81602 27.0109 5.7725 27.0839 5.76866 27.0813C5.76738 27.08 5.77762 27.0621 5.80066 27.0288C5.82242 26.9956 5.85954 26.9482 5.91074 26.8906C6.0157 26.7792 6.19362 26.6282 6.46114 26.5335C6.59298 26.4836 6.74914 26.4567 6.91298 26.4413C7.0781 26.4234 7.25474 26.4029 7.44162 26.3824C7.81666 26.3415 8.23138 26.2967 8.67298 26.248L8.69218 26.2455L8.69858 26.2647C8.77154 26.4912 8.84578 26.7255 8.92258 26.9648C9.03906 27.3296 9.1517 27.6816 9.25538 28.008L9.26306 28.0324L9.23874 28.0388C8.46562 28.2359 7.79746 28.4074 7.31746 28.529C7.08322 28.5866 6.89378 28.634 6.75938 28.6672C6.69794 28.6813 6.64802 28.6928 6.60962 28.7018C6.5789 28.7095 6.56098 28.7133 6.5597 28.7108Z" fill="#9B9B9B"/>
<path d="M15.7586 28.3319C15.7586 28.3319 16.2949 28.1489 16.437 28.2461C16.5791 28.3434 16.6265 28.4996 16.6265 28.4996C16.6265 28.4996 16.9541 28.5021 16.8556 28.8439C16.8556 28.8439 17.1423 28.9015 17.0565 29.2369C17.0565 29.2369 17.2677 29.2317 17.1666 29.5082C17.0655 29.786 16.6354 30.3389 16.5381 30.4119C16.3333 30.5668 16.277 30.321 16.3269 30.2237C16.3769 30.1265 16.6585 29.5889 16.6585 29.5889C16.6585 29.5889 16.1708 30.3569 16.0057 30.2289C15.9122 30.1559 15.9327 30.0433 16.0569 29.818C16.1439 29.6618 16.3013 29.3533 16.3013 29.3533L15.9173 29.8269C15.8457 29.9153 15.701 29.8807 15.6818 29.7681C15.6754 29.7284 15.6793 29.681 15.701 29.6247C15.7919 29.3905 15.9852 29.1076 15.9852 29.1076L15.6741 29.4135C15.6037 29.4826 15.4885 29.4762 15.4284 29.3981C15.3913 29.3495 15.3695 29.2881 15.4041 29.2189C15.4898 29.0474 15.9647 28.5482 15.9647 28.5482L15.7586 28.3319Z" fill="#EFCDBB"/>
<path d="M6.53109 30.8474C6.53109 30.8474 6.08693 33.0797 6.53877 34.0525C6.99061 35.0253 8.17717 35.4925 9.41109 35.8714C11.0597 36.377 13.909 37.945 13.909 37.945C13.909 37.945 13.5404 39.5706 13.2972 40.5434C13.0629 41.4778 12.4101 44.8788 12.4101 44.8788L15.4079 45.2922L17.5455 37.5994C17.5455 37.5994 18.142 36.0199 16.8453 35.2365C15.7343 34.5658 11.8034 31.9124 11.8034 31.9124L11.4988 31.2071L6.53109 30.8474Z" fill="#7B7C7C"/>
<path d="M6.58689 33.5058L7.14497 34.7845L6.38593 40.8581C6.38593 40.8581 5.73569 42.8549 5.59233 43.9083C5.44897 44.9618 5.13281 49.2063 5.13281 49.2063H8.07169C8.07169 49.2063 8.52737 44.0415 9.40929 42.4914C10.1043 41.2703 10.5754 39.1442 10.6048 39.0047C10.633 38.8664 11.6583 35.4629 11.6583 35.4629L10.2234 32.5087L6.58689 33.5058Z" fill="#7B7C7C"/>
<path d="M14.9478 37.2346C14.9529 37.2487 14.6815 37.3434 14.3961 37.5444C14.1081 37.7428 13.925 37.9642 13.9135 37.954C13.9084 37.9501 13.9481 37.89 14.0262 37.8029C14.1042 37.7159 14.222 37.6058 14.3679 37.5034C14.5138 37.4023 14.6598 37.3293 14.7673 37.2871C14.8761 37.2448 14.9465 37.2282 14.9478 37.2346Z" fill="#606060"/>
<path d="M15.4095 45.2922C15.4095 45.2922 15.3916 45.2909 15.357 45.287C15.3199 45.2832 15.2687 45.2768 15.2022 45.2678C15.0639 45.2499 14.8642 45.2243 14.607 45.191C14.0886 45.1219 13.3385 45.0208 12.4092 44.8966L12.3913 44.8941L12.3951 44.8762C12.5641 43.9878 12.7689 42.9306 13.0095 41.7568C13.0697 41.4637 13.1337 41.1616 13.2015 40.8557C13.2732 40.5498 13.3462 40.2362 13.4217 39.9174C13.5714 39.28 13.7263 38.6195 13.8863 37.9411L13.8991 37.968C13.679 37.8477 13.4422 37.7222 13.2028 37.5968C12.5346 37.2486 11.8767 36.9222 11.2316 36.6253C10.5865 36.3309 9.95416 36.0634 9.33208 35.8714C8.70872 35.6768 8.11992 35.4643 7.6156 35.1699C7.36472 35.0227 7.1356 34.8538 6.94488 34.6592C6.75544 34.4659 6.6044 34.247 6.50712 34.0179C6.40728 33.7875 6.37528 33.5494 6.34968 33.3293C6.33944 33.2179 6.33048 33.1104 6.32792 33.0054C6.3228 32.9005 6.32408 32.7994 6.32536 32.7008C6.33048 32.3078 6.36376 31.9712 6.39704 31.696C6.43032 31.4221 6.46488 31.2096 6.4892 31.0662C6.502 30.9958 6.51352 30.9421 6.51992 30.9037C6.5276 30.8666 6.53272 30.8486 6.53272 30.8486C6.53272 30.8486 6.53016 30.8678 6.52504 30.905C6.51864 30.9434 6.50968 30.9971 6.49944 31.0675C6.47768 31.2109 6.44568 31.4234 6.41624 31.6973C6.3868 31.9712 6.35608 32.3078 6.35352 32.6995C6.35352 32.7968 6.35224 32.8992 6.35864 33.0029C6.3612 33.1078 6.37016 33.2141 6.38168 33.3242C6.40856 33.543 6.44184 33.7786 6.5404 34.0026C6.6364 34.2266 6.78488 34.4416 6.97304 34.631C7.1612 34.8218 7.38776 34.9882 7.63608 35.1328C8.13656 35.4234 8.7228 35.6333 9.34488 35.8266C9.9708 36.0186 10.6044 36.2861 11.2508 36.5805C11.8972 36.8774 12.5564 37.2038 13.2246 37.552C13.4639 37.6774 13.702 37.8029 13.9222 37.9245L13.9388 37.9334L13.935 37.9514C13.775 38.6298 13.6188 39.2915 13.469 39.929C13.3935 40.2477 13.3206 40.56 13.2476 40.8659C13.1785 41.1718 13.1145 41.4726 13.053 41.7658C12.8098 42.9395 12.6025 43.9955 12.4284 44.8826L12.4143 44.8621C13.3423 44.9939 14.0911 45.0989 14.6095 45.1718C14.8668 45.209 15.0652 45.2384 15.2034 45.2589C15.27 45.2691 15.3212 45.2768 15.357 45.2819C15.3916 45.2883 15.4095 45.2922 15.4095 45.2922Z" fill="#606060"/>
<g opacity="0.66">
<path d="M28.4141 6.52588C28.4141 6.52588 26.6323 10.3403 27.9738 13.8987C29.3152 17.4571 34.2406 22.5528 34.7872 22.8228C34.7872 22.8228 33.5238 20.8376 35.8304 20.8542C38.137 20.8708 39.2966 20.3089 39.5437 19.5C39.7907 18.691 38.4237 16.0785 39.6819 15.4513C40.9402 14.8241 42.4749 15.0123 43.504 14.1406C43.504 14.1406 41.104 13.9409 39.3325 13.7604C37.4726 13.571 31.8829 9.67724 31.4323 6.81388" fill="#CA515B"/>
<path d="M28.4141 6.52588C28.4141 6.52588 26.6323 10.3403 27.9738 13.8987C29.3152 17.4571 34.2406 22.5528 34.7872 22.8228C34.7872 22.8228 33.5238 20.8376 35.8304 20.8542C38.137 20.8708 39.2966 20.3089 39.5437 19.5C39.7907 18.691 38.4237 16.0785 39.6819 15.4513C40.9402 14.8241 42.4749 15.0123 43.504 14.1406C43.504 14.1406 41.104 13.9409 39.3325 13.7604C37.4726 13.571 31.8829 9.67724 31.4323 6.81388" fill="#888889"/>
<path d="M34.9004 13.0987C34.9004 13.1 34.9106 13.1076 34.9324 13.123C34.9567 13.1396 34.9874 13.1601 35.0258 13.1857C35.1065 13.2407 35.2268 13.3176 35.3766 13.4084C35.6748 13.5915 36.0972 13.8295 36.5798 14.0612C37.0623 14.2916 37.5129 14.4721 37.8431 14.5899C38.0082 14.6488 38.1426 14.6948 38.2361 14.723C38.2809 14.7371 38.3167 14.7473 38.3436 14.7563C38.3679 14.764 38.382 14.7665 38.382 14.7665C38.382 14.7652 38.3692 14.7601 38.3462 14.7511C38.3193 14.7409 38.2834 14.7281 38.2399 14.7128C38.1478 14.6808 38.0146 14.6321 37.8508 14.5707C37.5231 14.4478 37.0751 14.266 36.5926 14.0356C36.1113 13.8052 35.6889 13.5697 35.3868 13.3918C35.2358 13.3022 35.1154 13.2292 35.0322 13.1768C34.9926 13.1524 34.9606 13.1332 34.9362 13.1179C34.9132 13.1038 34.9017 13.0974 34.9004 13.0987Z" fill="#666668"/>
<path d="M33.3848 15.2144C33.3848 15.2156 33.3976 15.2259 33.4232 15.2451C33.4513 15.2656 33.4884 15.2924 33.5345 15.327C33.6318 15.3974 33.7726 15.5011 33.9454 15.6304C34.2897 15.8889 34.7582 16.2576 35.2523 16.6889C35.7476 17.1216 36.1752 17.535 36.4772 17.8422C36.6283 17.9958 36.7499 18.1212 36.8331 18.2083C36.874 18.2505 36.906 18.2838 36.9291 18.3081C36.9508 18.3312 36.9636 18.3427 36.9636 18.3414C36.9649 18.3401 36.9534 18.3273 36.9329 18.3043C36.9099 18.2787 36.8792 18.2441 36.8408 18.2006C36.7601 18.111 36.6411 17.983 36.4913 17.8281C36.1918 17.5171 35.7668 17.1011 35.2702 16.6672C34.7748 16.2345 34.3038 15.8684 33.9556 15.6137C33.7816 15.487 33.6395 15.3859 33.5396 15.318C33.491 15.286 33.4526 15.2592 33.4244 15.24C33.3988 15.222 33.3848 15.2131 33.3848 15.2144Z" fill="#666668"/>
<path d="M33.59 15.8406C33.5887 15.8419 33.5951 15.8483 33.6066 15.8611C33.6207 15.8765 33.6386 15.8957 33.6591 15.9174C33.7052 15.9661 33.773 16.0352 33.8575 16.1184C34.0278 16.2861 34.2671 16.5126 34.5436 16.7494C34.8201 16.9862 35.0799 17.1897 35.2719 17.3318C35.3679 17.4035 35.446 17.4598 35.501 17.4969C35.5266 17.5136 35.5471 17.5277 35.565 17.5405C35.5804 17.5494 35.5881 17.5545 35.5881 17.5533C35.5881 17.552 35.5817 17.5456 35.5676 17.5353C35.551 17.5225 35.5318 17.5072 35.5074 17.488C35.4511 17.4445 35.3756 17.3856 35.2834 17.3152C35.0953 17.1693 34.838 16.9632 34.5615 16.7264C34.285 16.4896 34.0431 16.2669 33.8703 16.103C33.7871 16.0237 33.718 15.9571 33.6655 15.9085C33.6438 15.888 33.6246 15.8701 33.6092 15.856C33.5977 15.8457 33.59 15.8393 33.59 15.8406Z" fill="#666668"/>
<path d="M33.8877 24.8547L34.1757 26.1539L34.6992 27.1165C34.7364 27.1856 34.7082 27.2727 34.6365 27.3059C34.5968 27.3239 34.5495 27.3226 34.5124 27.3008C34.2692 27.16 33.3744 26.6378 33.3591 26.5418C33.3412 26.4304 32.9648 25.1914 32.9648 25.1914L33.8877 24.8547Z" fill="#888889"/>
<path d="M33.3155 26.4109C33.3142 26.4122 33.3321 26.4262 33.3654 26.4493C33.4038 26.4749 33.4512 26.5069 33.5062 26.5453C33.6317 26.6285 33.7929 26.7373 33.9734 26.8576C34.1526 26.9779 34.3139 27.0867 34.4393 27.1712C34.4957 27.2083 34.543 27.239 34.5814 27.2646C34.6147 27.2864 34.6352 27.2979 34.6352 27.2954C34.6365 27.2941 34.6198 27.2787 34.5878 27.2544C34.5558 27.2301 34.5097 27.1955 34.4509 27.1533C34.3344 27.0688 34.1718 26.9549 33.9888 26.8333C33.807 26.7117 33.6393 26.6042 33.5177 26.5286C33.4563 26.4902 33.4064 26.4608 33.3718 26.4403C33.3373 26.4198 33.3168 26.4096 33.3155 26.4109Z" fill="#4D5A64"/>
<path d="M28.1222 25.1626L28.2003 26.2007C28.2003 26.2007 27.1711 26.6282 27.166 26.8215H29.1884L29.1308 25.1204L28.1222 25.1626Z" fill="#888889"/>
<path d="M27.2305 26.7538C27.2305 26.7564 27.2586 26.7564 27.3086 26.7551C27.3636 26.7538 27.4353 26.7513 27.5197 26.7487C27.6977 26.7423 27.9434 26.7359 28.2161 26.7321C28.4874 26.7282 28.7345 26.7295 28.9124 26.7295C28.9969 26.7295 29.0685 26.7295 29.1236 26.7295C29.1735 26.7295 29.2017 26.7282 29.2017 26.7257C29.2017 26.7231 29.1748 26.7206 29.1249 26.718C29.075 26.7142 29.0033 26.7116 28.9137 26.7078C28.7357 26.7014 28.4887 26.6975 28.2173 26.7014C27.9447 26.7052 27.699 26.7154 27.521 26.727C27.4314 26.7321 27.3597 26.7385 27.3098 26.7423C27.2573 26.7487 27.2305 26.7513 27.2305 26.7538Z" fill="#4D5A64"/>
<path d="M32.65 14.709L34.4343 25.7285L32.7959 25.8283L30.2666 14.709H32.65Z" fill="#C4C4C4"/>
<path d="M30.2365 14.2289L29.4135 25.8282H27.8711V13.5466L30.2365 14.2289Z" fill="#C4C4C4"/>
<path d="M28.4291 25.1023C28.4368 25.1023 28.5622 22.806 28.7068 19.972C28.8528 17.1368 28.9641 14.8405 28.9552 14.8392C28.9475 14.8392 28.822 17.1356 28.6774 19.9708C28.5328 22.8047 28.4214 25.1023 28.4291 25.1023Z" fill="#888889"/>
<path d="M27.87 25.1027C27.87 25.1027 27.87 25.1027 27.8687 25.1027C27.8687 25.1027 27.8675 25.1027 27.8687 25.1052C27.87 25.1065 27.87 25.1065 27.8713 25.1065C27.8739 25.1078 27.8777 25.1091 27.8828 25.1104C27.8931 25.1129 27.9084 25.1155 27.9289 25.1193C27.9686 25.1257 28.0262 25.1334 28.0979 25.1424C28.2412 25.1603 28.4396 25.1808 28.6585 25.2C29.0963 25.2396 29.4547 25.2563 29.4547 25.2358C29.4547 25.2345 29.4495 25.2358 29.438 25.2358C29.4239 25.2345 29.4086 25.2345 29.3919 25.2332C29.3459 25.2294 29.2883 25.2256 29.2217 25.2204C29.0707 25.2076 28.8761 25.1897 28.6611 25.1718C28.446 25.1526 28.2502 25.136 28.1004 25.1219C27.9571 25.1091 27.8636 25.1014 27.87 25.1027Z" fill="#888889"/>
<path d="M31.6787 14.9688C31.6787 14.9688 31.6787 14.9777 31.6813 14.9943C31.6838 15.0123 31.6877 15.0379 31.6915 15.0699C31.7018 15.1377 31.7171 15.235 31.7363 15.3604C31.7747 15.6126 31.8336 15.9787 31.9078 16.4292C32.0563 17.3303 32.2739 18.5745 32.5363 19.9441C32.8 21.3137 33.0598 22.5502 33.2544 23.4423C33.3517 23.8891 33.4336 24.25 33.4912 24.4983C33.5194 24.6212 33.5424 24.7185 33.5578 24.7851C33.5654 24.8171 33.5718 24.8414 33.5757 24.8593C33.5795 24.8759 33.5834 24.8849 33.5834 24.8849C33.5834 24.8849 33.5821 24.8759 33.5795 24.8593C33.5757 24.8414 33.5705 24.8158 33.5641 24.7838C33.5501 24.7172 33.5296 24.6199 33.5027 24.4958C33.449 24.2449 33.3709 23.8839 33.2749 23.4372C33.0842 22.5438 32.8281 21.3073 32.5645 19.9377C32.3021 18.5681 32.0819 17.3252 31.9283 16.4241C31.8515 15.9748 31.7901 15.61 31.7478 15.3566C31.7261 15.2311 31.7094 15.1339 31.6979 15.066C31.6915 15.034 31.6877 15.0084 31.6838 14.9905C31.6813 14.9764 31.6787 14.9688 31.6787 14.9688Z" fill="#888889"/>
<path d="M32.6318 25.1025C32.6318 25.1051 32.6562 25.1051 32.6984 25.1051C32.747 25.1038 32.8085 25.1025 32.8802 25.1012C33.0402 25.0948 33.2475 25.0872 33.4779 25.0769C33.7083 25.0667 33.9157 25.0564 34.0757 25.0488C34.1474 25.0449 34.2075 25.0424 34.2562 25.0398C34.2984 25.0372 34.3214 25.0385 34.3227 25.036C34.324 25.0308 34.228 25.0244 34.0744 25.0283C33.9208 25.0308 33.7096 25.0372 33.4754 25.0475C33.2424 25.0577 33.0299 25.0692 32.8776 25.0795C32.8008 25.0846 32.7394 25.0897 32.6971 25.0936C32.6549 25.0974 32.6318 25.1012 32.6318 25.1025Z" fill="#888889"/>
<g opacity="0.3">
<path d="M32.7358 15.2452L32.6999 15.0263L30.3076 14.8906L30.3972 15.29L32.7358 15.2452Z" fill="black"/>
</g>
<g opacity="0.3">
<path d="M30.1677 15.2902L30.2356 14.8895L27.8701 14.7731L27.8714 15.3401L30.1677 15.2902Z" fill="black"/>
</g>
<path d="M32.4981 6.56163L30.8277 6.19043L29.4249 6.24803L28.2012 6.63715L28.8975 10.1277L31.5612 10.3632L32.4981 6.56163Z" fill="#888889"/>
<path d="M31.0815 6.24805L32.839 6.63717L31.9609 11.3437C31.9609 11.3437 32.7455 13.2535 32.839 15.0276L30.238 14.8906C30.238 14.8906 30.0588 12.552 30.1203 11.6509C30.1817 10.7511 30.2226 9.17541 30.2226 9.17541L31.0815 6.24805Z" fill="#C4C4C4"/>
<path d="M36.1051 8.94895C36.1051 8.94895 35.5086 8.34351 34.8865 8.01967C34.4283 7.78031 33.5297 7.47951 33.1726 7.09295C32.9435 6.84463 32.8373 6.63855 32.8373 6.63855L32.4238 8.85551L34.1877 9.13455C34.1877 9.13455 33.9253 9.27791 34.0891 9.38031L32.9845 10.6744L33.7409 12.1016C33.7409 12.1003 36.2075 9.97167 36.1051 8.94895Z" fill="#C4C4C4"/>
<path d="M29.4234 6.24792C29.4234 6.24792 29.0535 6.29272 28.7924 6.37848C28.4186 6.50264 27.7863 6.63576 27.7863 6.63576L28.6861 11.4038C28.6861 11.4038 27.465 12.9129 27.7863 14.7599C27.7863 14.7599 29.4733 14.893 30.2362 14.8892L30.2464 9.08825C30.2464 9.08825 29.6077 8.27416 29.5258 7.47672C29.4439 6.678 29.4234 6.24792 29.4234 6.24792Z" fill="#C4C4C4"/>
<path d="M27.7848 6.63708C27.7848 6.63708 26.7787 7.68029 26.2245 8.07325C25.6703 8.46621 24.9727 9.05628 24.9727 9.3686C24.9727 9.55292 25.0379 9.78333 25.0917 9.94205C25.1314 10.0585 25.189 10.166 25.2619 10.2646C25.5154 10.6025 26.1899 11.4806 26.6354 11.8979L27.7554 10.7152L26.6891 9.53756C26.6891 9.53756 28.1202 8.94749 28.1919 8.78621C28.2623 8.62749 27.7848 6.63708 27.7848 6.63708Z" fill="#C4C4C4"/>
<path d="M30.2579 9.71701C30.2579 9.71701 30.2669 9.70932 30.2836 9.69396C30.3015 9.67604 30.3245 9.653 30.3539 9.62356C30.4167 9.55956 30.5037 9.46997 30.6125 9.35733C30.8327 9.12693 31.1373 8.80949 31.4855 8.44469L31.4906 8.43957L31.4893 8.43188C31.4522 8.277 31.4138 8.11444 31.3741 7.94676C31.3562 7.8738 31.3396 7.80341 31.3229 7.73301L31.3088 7.75092C31.5034 7.75092 31.6903 7.75093 31.8656 7.74965H31.8848L31.8784 7.73172C31.7428 7.32084 31.6263 6.96757 31.5431 6.71541C31.5021 6.59253 31.4688 6.49397 31.4445 6.42357C31.433 6.39157 31.424 6.36596 31.4176 6.34676C31.4112 6.32884 31.4074 6.31989 31.4061 6.32117C31.4048 6.32117 31.4074 6.33141 31.4125 6.34933C31.4189 6.36981 31.4266 6.39541 31.4356 6.42741C31.4573 6.49909 31.488 6.59764 31.5264 6.7218C31.6071 6.97524 31.7197 7.32853 31.8516 7.74196L31.8643 7.72405C31.689 7.72405 31.5021 7.72404 31.3076 7.72276H31.2896L31.2935 7.74069C31.3101 7.81109 31.3267 7.88277 31.3447 7.95445C31.3843 8.12213 31.424 8.28469 31.4611 8.43957L31.465 8.42676C31.1194 8.79412 30.8173 9.11541 30.5997 9.34708C30.4935 9.461 30.409 9.55317 30.3476 9.61845C30.3194 9.64917 30.2976 9.67349 30.281 9.69269C30.2643 9.70677 30.2567 9.71701 30.2579 9.71701Z" fill="#888889"/>
<path d="M30.2373 14.8895C30.245 14.8895 30.2565 13.5813 30.2616 11.9672C30.2667 10.3531 30.2642 9.0437 30.2565 9.0437C30.2488 9.0437 30.2373 10.3519 30.2322 11.9672C30.227 13.58 30.2296 14.8895 30.2373 14.8895Z" fill="#888889"/>
<path d="M29.1548 6.29028C29.1535 6.29028 29.1509 6.30052 29.1471 6.32228C29.1433 6.34532 29.1369 6.37604 29.1305 6.41444C29.1164 6.49764 29.0972 6.61412 29.0729 6.75876C29.0255 7.05444 28.9589 7.46404 28.8834 7.9338L28.8809 7.953L28.9001 7.95044C28.9999 7.93764 29.1036 7.92356 29.2098 7.9082L29.1945 7.88772C29.174 7.92868 29.1522 7.9722 29.1305 8.017C29.0882 8.10404 29.046 8.1898 29.005 8.27172L29.0012 8.2794L29.0063 8.28708C29.3301 8.69156 29.6169 9.04996 29.8242 9.3098C29.9266 9.43652 30.0098 9.53764 30.0687 9.6106C30.0969 9.64388 30.1186 9.67076 30.1353 9.69124C30.1506 9.70916 30.1596 9.71812 30.1596 9.71812C30.1609 9.71812 30.1532 9.7066 30.1391 9.6874C30.1225 9.66564 30.102 9.63876 30.0764 9.6042C30.0188 9.52996 29.9381 9.42628 29.8383 9.297C29.6322 9.03588 29.3493 8.6762 29.0281 8.26916L29.0293 8.28452C29.069 8.2026 29.1113 8.11684 29.1548 8.0298C29.1765 7.985 29.1983 7.94148 29.2188 7.90052L29.2303 7.8762L29.2034 7.88004C29.0972 7.89412 28.9922 7.9082 28.8937 7.92228L28.9103 7.93892C28.982 7.46916 29.0447 7.05828 29.0895 6.7626C29.11 6.61796 29.1266 6.50148 29.1394 6.417C29.1445 6.3786 29.1484 6.34788 29.1509 6.32484C29.1548 6.3018 29.1561 6.29028 29.1548 6.29028Z" fill="#888889"/>
<path d="M30.4813 12.9923C30.5402 12.9193 30.6567 12.8771 30.713 12.9526L30.7104 12.9513C30.7655 12.9987 30.7911 13.0806 30.7642 13.1484C30.7296 13.2355 30.6119 13.279 30.5299 13.2342C30.448 13.1894 30.4224 13.0652 30.4813 12.9923Z" fill="#888889"/>
<path d="M30.45 11.4766C30.5089 11.4037 30.6253 11.3614 30.6817 11.437L30.6791 11.4357C30.7341 11.483 30.7597 11.565 30.7329 11.6328C30.6983 11.7198 30.5805 11.7634 30.4986 11.7186C30.4154 11.675 30.3898 11.5496 30.45 11.4766Z" fill="#888889"/>
<path d="M26.4422 11.3526C26.501 11.2797 26.6175 11.2374 26.6738 11.3129L26.6713 11.3117C26.7263 11.359 26.7519 11.4409 26.725 11.5088C26.6905 11.5958 26.5727 11.6393 26.4908 11.5945C26.4076 11.5497 26.382 11.4256 26.4422 11.3526Z" fill="#888889"/>
<path d="M33.7504 11.4934C33.8093 11.4204 33.9258 11.3782 33.9821 11.4537L33.9795 11.4524C34.0346 11.4998 34.0602 11.5817 34.0333 11.6495C33.9987 11.7366 33.881 11.7801 33.7991 11.7353C33.7171 11.6905 33.6903 11.5663 33.7504 11.4934Z" fill="#888889"/>
<path d="M34.0703 9.3993C34.0742 9.40826 34.2572 9.29435 34.5145 9.27387C34.7718 9.24955 34.9715 9.33147 34.974 9.32123C34.9753 9.31867 34.9279 9.29434 34.8447 9.27258C34.7628 9.25082 34.6425 9.23419 34.5119 9.24571C34.3814 9.25723 34.2662 9.29435 34.1894 9.33019C34.1113 9.36475 34.0691 9.39674 34.0703 9.3993Z" fill="#888889"/>
<path d="M34.9762 9.13324C34.9775 9.13068 34.9353 9.10764 34.8623 9.0846C34.7894 9.06156 34.6831 9.04236 34.5666 9.04236C34.4489 9.04364 34.3439 9.0654 34.271 9.08972C34.198 9.11404 34.1558 9.13708 34.1583 9.13964C34.1609 9.1486 34.3362 9.0718 34.5679 9.0718C34.7958 9.06924 34.9737 9.1422 34.9762 9.13324Z" fill="#888889"/>
<path d="M32.3704 9.13968C32.3729 9.13968 32.3806 9.1064 32.3947 9.04624C32.41 8.98096 32.4292 8.89392 32.4523 8.78896C32.5048 8.56752 32.5752 8.27056 32.6532 7.94288C32.7313 7.61264 32.794 7.31056 32.8286 7.0904C32.8465 6.98032 32.8593 6.89072 32.8644 6.82928C32.8708 6.76784 32.8734 6.73328 32.8721 6.73328C32.8696 6.73328 32.8632 6.76656 32.8529 6.828C32.8427 6.88944 32.8273 6.97776 32.8068 7.08784C32.7672 7.30672 32.7019 7.60624 32.6225 7.93776C32.5444 8.268 32.474 8.56752 32.4292 8.7864C32.4075 8.8952 32.3896 8.98352 32.3806 9.04624C32.3729 9.10512 32.3691 9.13968 32.3704 9.13968Z" fill="#888889"/>
<path d="M27.8503 6.74475C27.8477 6.74475 27.8528 6.78059 27.8631 6.84331C27.8746 6.91115 27.8887 7.00075 27.9066 7.11083C27.9437 7.34123 27.9949 7.64971 28.0512 7.99147C28.1075 8.33579 28.1613 8.64683 28.2035 8.87211C28.2253 8.98475 28.2419 9.07563 28.256 9.13835C28.2688 9.20107 28.2778 9.23563 28.2791 9.23435C28.2816 9.23435 28.2765 9.19851 28.2663 9.13579C28.2547 9.06795 28.2407 8.97835 28.2227 8.86827C28.1856 8.63787 28.1344 8.32939 28.0781 7.98635C28.0218 7.64203 27.968 7.33099 27.9258 7.10571C27.904 6.99307 27.8861 6.90219 27.8733 6.83947C27.8605 6.77931 27.8515 6.74475 27.8503 6.74475Z" fill="#888889"/>
<path d="M25.9337 8.95762C25.9337 8.96274 25.9964 8.95762 26.0949 8.96274C26.1922 8.96914 26.3356 8.98834 26.4482 9.08818C26.5609 9.18674 26.6108 9.32114 26.6466 9.41202C26.6799 9.50546 26.6991 9.56562 26.7029 9.56434C26.7068 9.56306 26.6953 9.5029 26.6658 9.40562C26.6351 9.31218 26.5877 9.17266 26.4674 9.06642C26.4085 9.01394 26.3381 8.98194 26.2729 8.9653C26.2076 8.94738 26.1461 8.94354 26.0962 8.94226C26.045 8.94226 26.0053 8.9461 25.9772 8.94866C25.9477 8.9525 25.9324 8.95506 25.9337 8.95762Z" fill="#888889"/>
<path d="M25.668 9.22013C25.668 9.22525 25.7295 9.22141 25.8293 9.22653C25.9279 9.23165 26.0636 9.25213 26.2069 9.29949C26.3503 9.34685 26.4706 9.41341 26.5525 9.46717C26.6357 9.52093 26.6818 9.56189 26.6856 9.55805C26.6869 9.55677 26.6767 9.54525 26.6562 9.52605C26.6357 9.50685 26.605 9.47998 26.564 9.45054C26.4834 9.39038 26.3618 9.32125 26.2159 9.27133C26.07 9.22269 25.9304 9.20605 25.8306 9.20605C25.7807 9.20605 25.7397 9.20733 25.7116 9.21117C25.6821 9.21501 25.6668 9.21757 25.668 9.22013Z" fill="#888889"/>
<path d="M31.5392 11.4783C31.543 11.486 31.625 11.4501 31.7286 11.4117C31.8323 11.3733 31.9168 11.3452 31.9155 11.3375C31.9142 11.3298 31.8234 11.3452 31.7184 11.3848C31.6134 11.4232 31.5354 11.4706 31.5392 11.4783Z" fill="#888889"/>
<path d="M31.4669 10.9134C31.4618 10.9211 31.5937 11.0107 31.7409 11.1387C31.8893 11.2654 31.9969 11.3819 32.0033 11.3768C32.0097 11.3717 31.9098 11.2462 31.7588 11.117C31.6116 10.9864 31.4708 10.907 31.4669 10.9134Z" fill="#888889"/>
<path d="M27.7881 14.7601C27.7881 14.7678 28.9183 14.8344 30.3122 14.9073C31.7074 14.9803 32.8377 15.0341 32.839 15.0264C32.839 15.0187 31.7087 14.9521 30.3135 14.8792C28.9196 14.8049 27.7881 14.7525 27.7881 14.7601Z" fill="#888889"/>
<g opacity="0.3">
<path d="M26.7434 9.50567C26.8177 9.29063 26.7332 9.03207 26.5463 8.90279C26.5066 8.87591 26.458 8.85287 26.4106 8.86183C26.3633 8.87079 26.3223 8.92327 26.3402 8.96807C26.353 8.99623 26.3825 9.01159 26.4094 9.02823C26.4964 9.08327 26.5566 9.17287 26.5937 9.26759C26.6308 9.36359 26.6474 9.46471 26.6641 9.56583" fill="black"/>
</g>
<g opacity="0.3">
<path d="M31.8632 7.73531C31.853 7.76475 31.652 7.78779 31.6136 7.87099C31.5752 7.95419 31.5893 8.05147 31.6111 8.13979C31.6328 8.22811 31.661 8.31771 31.652 8.40859C31.6354 8.57115 31.501 8.69403 31.3768 8.80027C31.0287 9.09723 30.605 9.41851 30.2568 9.71547C30.5692 9.34555 30.9724 8.96667 31.3154 8.62491C31.3666 8.57499 31.4191 8.52123 31.4421 8.45467C31.4716 8.37019 31.4485 8.27675 31.4268 8.18971C31.3973 8.07451 31.3679 7.95931 31.3384 7.84411C31.3308 7.81467 31.3141 7.76475 31.3103 7.74811C31.3103 7.74811 31.4037 7.73275 31.4357 7.73787C31.4344 7.73915 31.7327 7.71867 31.8632 7.73531Z" fill="black"/>
</g>
<path d="M33.7958 11.6265C33.7971 11.6252 33.7907 11.6099 33.7779 11.5804C33.7651 11.551 33.7446 11.51 33.7164 11.4614C33.6627 11.3615 33.5795 11.2284 33.4758 11.0889C33.3708 10.9507 33.2659 10.8342 33.1852 10.7535C33.1455 10.7139 33.111 10.6819 33.0867 10.6614C33.0623 10.6409 33.0483 10.6294 33.047 10.6319C33.0444 10.6358 33.0931 10.6857 33.1699 10.7676C33.2467 10.8508 33.3491 10.9686 33.4515 11.1055C33.5551 11.2425 33.6396 11.3743 33.6985 11.4703C33.7574 11.5676 33.7919 11.6291 33.7958 11.6265Z" fill="#888889"/>
<path d="M33.382 10.2367C33.3782 10.2405 33.4434 10.3019 33.5394 10.4107C33.6354 10.5183 33.7622 10.6744 33.8812 10.86C34.0002 11.0469 34.0873 11.2261 34.1449 11.3592C34.2025 11.4923 34.2306 11.5768 34.2358 11.5755C34.2383 11.5755 34.2319 11.5525 34.2204 11.5141C34.2089 11.4744 34.1897 11.4194 34.1641 11.3515C34.1116 11.2159 34.0258 11.0328 33.9068 10.8447C33.7865 10.6565 33.6572 10.5016 33.5561 10.3967C33.5062 10.3442 33.4626 10.3032 33.4319 10.2763C33.3999 10.2495 33.3833 10.2354 33.382 10.2367Z" fill="#888889"/>
<path d="M26.1466 11.3719C26.1479 11.3732 26.1645 11.3566 26.1914 11.3259C26.2234 11.2913 26.2618 11.2478 26.3079 11.1966C26.4064 11.0878 26.5459 10.9406 26.7047 10.7819C26.8634 10.6231 27.0106 10.4849 27.1194 10.3863C27.1706 10.3403 27.2141 10.3019 27.2487 10.2699C27.2794 10.243 27.296 10.2263 27.2947 10.2251C27.2935 10.2238 27.2743 10.2366 27.2423 10.2609C27.209 10.2852 27.1629 10.3223 27.1066 10.371C26.9939 10.4657 26.8429 10.6027 26.6842 10.7614C26.5255 10.9201 26.3872 11.0699 26.2925 11.1825C26.2451 11.2388 26.208 11.2849 26.1824 11.3182C26.1581 11.3515 26.1453 11.3707 26.1466 11.3719Z" fill="#888889"/>
<path d="M33.1407 10.9685L32.7734 11.1669L31.958 11.3986C31.958 11.3986 32.1282 12.5147 32.2332 12.6095C32.3382 12.7042 33.5311 11.7019 33.5311 11.7019L33.1407 10.9685Z" fill="#DBDCDD"/>
<path d="M27.5816 10.9009L27.8466 11.107L28.612 11.4718C28.612 11.4718 28.2575 12.5431 28.1384 12.6199C28.0194 12.6967 27.0107 11.5089 27.0107 11.5089L27.5816 10.9009Z" fill="#DBDCDD"/>
<path d="M31.3486 2.84827C31.3589 3.13499 31.7416 3.30907 31.7365 3.59707C31.7339 3.71995 31.6584 3.83131 31.643 3.95291C31.6225 4.11803 31.7147 4.27291 31.7493 4.43547C31.8197 4.76955 31.6251 5.12283 31.3358 5.30587C31.0478 5.48891 30.6856 5.52347 30.3477 5.47739" fill="#888889"/>
<path d="M29.0373 2.77771C29.0488 2.93131 28.9464 3.06955 28.844 3.18475C28.7416 3.29995 28.6277 3.42155 28.6046 3.57387C28.565 3.84523 28.8312 4.09611 28.7762 4.36491C28.7467 4.50827 28.629 4.62475 28.6085 4.76939C28.588 4.91019 28.6635 5.04715 28.757 5.15467C28.8504 5.26219 28.9579 5.24555 29.0411 5.36203C29.1282 5.48363 29.2677 5.60907 29.3995 5.68075C29.6965 5.84331 30.0536 5.60779 30.197 5.56555" fill="#888889"/>
<path d="M31.4051 3.01334C31.409 2.87382 31.2797 2.76502 31.1491 2.71382C31.0186 2.66262 30.8739 2.64342 30.7587 2.56534C30.6563 2.49622 30.5872 2.3887 30.5002 2.30038C30.2864 2.08406 29.9536 1.99446 29.6605 2.07382C29.3674 2.15318 29.1255 2.40022 29.0525 2.69462C29.0026 2.8943 29.0371 3.12854 29.1933 3.26166C29.3751 3.41526 29.6451 3.3807 29.8794 3.33334C30.1123 3.28598 30.3773 3.23862 30.5719 3.37558C30.6896 3.45878 30.7562 3.59318 30.8291 3.71734C30.9008 3.8415 30.9917 3.96822 31.1274 4.01558C31.2631 4.06294 31.4474 3.98102 31.4525 3.83766" fill="#888889"/>
<path d="M30.8565 3.04208C30.9768 3.05488 31.0677 3.15856 31.0651 3.28016L30.9256 6.4392C30.9192 6.81296 30.3739 7.0216 29.9746 7.01264C29.5714 7.00368 29.5586 6.80528 29.5535 6.45072C29.5445 5.85808 29.5458 5.63536 29.5458 5.63792C29.5458 5.63792 29.0363 5.55216 28.9314 4.88656C28.8802 4.55504 28.8968 4.0136 28.9263 3.56944C28.9519 3.17008 29.2181 2.68112 29.6149 2.72464L30.8565 3.04208Z" fill="#DBDCDD"/>
<path d="M29.1397 3.95194C29.1384 3.99674 29.1742 4.03514 29.2216 4.0377C29.269 4.04026 29.3086 4.0057 29.3099 3.9609C29.3112 3.9161 29.2754 3.8777 29.228 3.87514C29.1806 3.87258 29.141 3.90586 29.1397 3.95194Z" fill="#888889"/>
<path d="M29.0346 3.85236C29.0448 3.86388 29.1101 3.81524 29.2022 3.81652C29.2944 3.81524 29.361 3.8626 29.3712 3.85236C29.3763 3.84724 29.3648 3.82676 29.3366 3.80628C29.3072 3.78452 29.2586 3.76404 29.201 3.76404C29.1434 3.76404 29.096 3.7858 29.0678 3.80628C29.0384 3.82804 29.0294 3.84724 29.0346 3.85236Z" fill="#888889"/>
<path d="M30.0264 3.95169C30.0251 3.99649 30.061 4.03489 30.1083 4.03745C30.1557 4.04001 30.1954 4.00545 30.1966 3.96065C30.1979 3.91585 30.1621 3.87745 30.1147 3.87489C30.0674 3.87233 30.029 3.90561 30.0264 3.95169Z" fill="#888889"/>
<path d="M29.9428 3.87226C29.953 3.88378 30.0183 3.83514 30.1104 3.83642C30.2026 3.83514 30.2692 3.8825 30.2794 3.87226C30.2845 3.86714 30.2743 3.84666 30.2448 3.82618C30.2154 3.80442 30.1668 3.78394 30.1092 3.78394C30.0516 3.78394 30.0042 3.8057 29.976 3.82618C29.9466 3.84794 29.9376 3.86714 29.9428 3.87226Z" fill="#888889"/>
<path d="M29.6095 4.55175C29.6095 4.54663 29.5532 4.53639 29.461 4.52487C29.438 4.52231 29.415 4.51719 29.4111 4.50183C29.406 4.48519 29.415 4.45959 29.4265 4.43271C29.4482 4.37639 29.4713 4.31623 29.4956 4.25479C29.5929 4.00135 29.662 3.79271 29.6518 3.78887C29.6415 3.78503 29.5545 3.98727 29.4585 4.24199C29.4354 4.30471 29.4124 4.36487 29.3919 4.42119C29.383 4.44807 29.3676 4.47751 29.3791 4.51335C29.3855 4.53127 29.4022 4.54407 29.4175 4.54791C29.4329 4.55303 29.4457 4.55303 29.4572 4.55303C29.5519 4.55687 29.6095 4.55815 29.6095 4.55175Z" fill="#888889"/>
<path d="M29.5479 5.63799C29.5479 5.63799 29.9959 5.66743 30.4387 5.40247C30.4311 5.40375 30.193 5.86455 29.5555 5.79543L29.5479 5.63799Z" fill="#BBBBBC"/>
<path d="M29.6403 4.7729C29.6736 4.72938 29.7312 4.70506 29.7888 4.71146C29.8285 4.7153 29.8694 4.7345 29.8925 4.76778C29.9168 4.79978 29.9219 4.84586 29.8989 4.87658C29.8745 4.91114 29.8221 4.91882 29.7785 4.9073C29.735 4.8945 29.6966 4.86634 29.6608 4.8369C29.6505 4.82922 29.6403 4.82026 29.6352 4.81002C29.6288 4.7985 29.6275 4.78442 29.6352 4.77546" fill="#BABABA"/>
<path d="M29.8859 4.61772C29.8706 4.61644 29.8706 4.71628 29.7848 4.78668C29.6991 4.85708 29.5928 4.84556 29.5928 4.85964C29.5915 4.86604 29.6159 4.87884 29.6607 4.88012C29.7042 4.8814 29.7695 4.86732 29.8207 4.82508C29.8731 4.78156 29.8949 4.72396 29.8987 4.683C29.9039 4.64076 29.8936 4.61644 29.8859 4.61772Z" fill="#888889"/>
<path d="M29.8999 3.71186C29.9089 3.73746 30.001 3.72466 30.1085 3.73874C30.2161 3.75026 30.3031 3.78098 30.3172 3.75922C30.3236 3.74898 30.3082 3.72466 30.2737 3.70034C30.2391 3.67602 30.1841 3.65298 30.1188 3.6453C30.0548 3.63762 29.9946 3.64786 29.9562 3.6645C29.9153 3.67986 29.8961 3.69906 29.8999 3.71186Z" fill="#888889"/>
<path d="M29.0779 3.58808C29.0945 3.60856 29.1572 3.58807 29.2327 3.58679C29.3083 3.58295 29.3735 3.60088 29.3876 3.57912C29.394 3.56888 29.3838 3.54711 29.3556 3.52791C29.3275 3.50871 29.2814 3.49208 29.2289 3.49336C29.1764 3.49464 29.1316 3.51383 29.1047 3.53559C29.0791 3.55607 29.0702 3.57784 29.0779 3.58808Z" fill="#888889"/>
<path d="M31.1359 5.26747C30.9528 5.30459 30.9362 5.21115 30.8005 5.08443C30.6635 4.95771 30.5931 4.76315 30.6162 4.57755C30.6367 4.41371 30.725 4.24859 30.6687 4.09371C30.5931 3.88891 30.3077 3.82619 30.2309 3.62267C30.1861 3.50363 30.2258 3.36539 30.1759 3.24891C30.1285 3.14011 30.0133 3.07611 29.9019 3.03643C29.7906 2.99547 29.6703 2.96859 29.5755 2.89563C29.4821 2.82267 29.4232 2.68443 29.4834 2.58203C29.98 2.64091 30.469 2.75995 30.9375 2.93531C31.0463 2.97627 31.1602 3.02491 31.2242 3.12091C31.292 3.22331 31.2895 3.35515 31.2831 3.47803C31.2549 4.07579 31.2267 4.67227 31.1999 5.27003" fill="#888889"/>
<path d="M31.5552 3.91068C31.5757 3.6918 31.7549 3.49724 31.9712 3.45756C32.1876 3.41788 32.4244 3.53692 32.5216 3.73404C32.6138 3.9222 32.5818 4.15004 32.496 4.34076C32.3936 4.56732 32.1837 4.77468 31.9354 4.76316C31.7012 4.75292 31.513 4.54684 31.4464 4.32284C31.3786 4.09884 31.4068 3.8582 31.4336 3.62652" fill="#888889"/>
<path d="M31.6864 4.82187C31.6877 4.82315 31.703 4.81163 31.7209 4.78347C31.7401 4.75531 31.7619 4.71051 31.7709 4.65035C31.7811 4.59019 31.7785 4.51851 31.7645 4.44043C31.7504 4.36235 31.7248 4.28043 31.7056 4.19339C31.6864 4.10635 31.6774 4.02187 31.6915 3.94763C31.7056 3.87339 31.7401 3.81067 31.7555 3.75179C31.7721 3.69291 31.7696 3.64171 31.7593 3.60971C31.7491 3.57643 31.735 3.56363 31.7337 3.56491C31.7312 3.56619 31.7427 3.58155 31.7491 3.61355C31.7555 3.64427 31.7542 3.69291 31.7363 3.74667C31.7197 3.80171 31.6825 3.86315 31.6659 3.94251C31.6493 4.02187 31.6582 4.11147 31.6787 4.19979C31.6979 4.28811 31.7261 4.37003 31.7401 4.44555C31.7555 4.52107 31.7593 4.59019 31.7517 4.64779C31.7376 4.76427 31.68 4.81803 31.6864 4.82187Z" fill="#666668"/>
<path d="M31.6945 4.0232C31.6919 4.02448 31.7239 4.07056 31.7969 4.12304C31.8686 4.17424 31.9863 4.228 32.1233 4.23056C32.2615 4.23312 32.3806 4.18448 32.4535 4.13456C32.5278 4.08464 32.561 4.03984 32.5585 4.03856C32.5546 4.03472 32.5175 4.0744 32.442 4.11664C32.3678 4.16016 32.2538 4.2024 32.1233 4.20112C31.9927 4.19856 31.8788 4.1512 31.8071 4.1064C31.7354 4.06032 31.6983 4.01936 31.6945 4.0232Z" fill="#666668"/>
<path d="M31.7268 4.12695C31.7243 4.12823 31.7409 4.17175 31.7831 4.23191C31.8254 4.29207 31.8983 4.36631 31.9943 4.42519C32.0916 4.48279 32.1915 4.51223 32.2644 4.52119C32.3374 4.53143 32.3835 4.52503 32.3835 4.52247C32.3835 4.51735 32.3387 4.51607 32.2683 4.50071C32.1979 4.48663 32.1031 4.45591 32.0097 4.39959C31.9163 4.34327 31.8446 4.27415 31.7985 4.21911C31.7537 4.16407 31.7319 4.12439 31.7268 4.12695Z" fill="#666668"/>
<path d="M31.56 5.04479C31.56 5.04479 31.5625 5.04223 31.5676 5.03711C31.5715 5.03071 31.5792 5.02303 31.5856 5.01023C31.6009 4.98591 31.6188 4.94751 31.6291 4.89375C31.6393 4.84127 31.6406 4.77215 31.6188 4.69791C31.5984 4.62367 31.5459 4.54431 31.464 4.48927C31.3846 4.43423 31.2822 4.39455 31.2169 4.30623C31.1849 4.26271 31.1708 4.20639 31.1811 4.15007C31.19 4.09247 31.2156 4.03743 31.2387 3.97727C31.2899 3.85823 31.2899 3.70975 31.2297 3.58047C31.199 3.51647 31.1542 3.45631 31.0953 3.41279C31.0352 3.36799 30.9635 3.34495 30.8918 3.32831C30.8201 3.31167 30.7484 3.30271 30.6806 3.28223C30.614 3.26175 30.55 3.23231 30.504 3.18623C30.4566 3.14015 30.4361 3.07615 30.4272 3.01215C30.4182 2.94815 30.4131 2.88159 30.3964 2.81887C30.3644 2.69471 30.3004 2.58335 30.2172 2.50399C30.134 2.42463 30.0316 2.37855 29.9344 2.36319C29.8371 2.34783 29.7462 2.36575 29.6771 2.40159C29.608 2.43743 29.5593 2.48607 29.5286 2.53087C29.4979 2.57567 29.4838 2.61663 29.4761 2.64351C29.4697 2.67167 29.4697 2.68575 29.4697 2.68575C29.4736 2.68703 29.4749 2.62303 29.5376 2.53727C29.5696 2.49503 29.6169 2.44895 29.6848 2.41695C29.7513 2.38367 29.8384 2.36831 29.9318 2.38367C30.024 2.39903 30.1212 2.44383 30.2006 2.52063C30.28 2.59743 30.3401 2.70367 30.3708 2.82399C30.3875 2.88415 30.3913 2.94815 30.4003 3.01471C30.4092 3.07999 30.431 3.15295 30.4835 3.20543C30.5347 3.25791 30.6025 3.28863 30.6716 3.30911C30.742 3.32959 30.8137 3.33983 30.8841 3.35647C30.9545 3.37183 31.0224 3.39487 31.0774 3.43583C31.1325 3.47551 31.1747 3.53183 31.2041 3.59199C31.2604 3.71359 31.2617 3.85311 31.2131 3.96703C31.1913 4.02591 31.1644 4.08351 31.1555 4.14495C31.144 4.20639 31.1606 4.27295 31.1977 4.31903C31.2707 4.41503 31.3756 4.45215 31.4524 4.50463C31.5318 4.55583 31.5817 4.62879 31.6035 4.70047C31.6265 4.77215 31.6278 4.83871 31.6188 4.88991C31.6009 4.99615 31.5561 5.04223 31.56 5.04479Z" fill="#666668"/>
<path d="M31.5166 3.18759C31.5166 3.18759 31.523 3.17735 31.5242 3.15687C31.5268 3.13639 31.523 3.10311 31.5025 3.06855C31.482 3.03399 31.4449 2.99815 31.3911 2.97639C31.3361 2.95591 31.2695 2.95591 31.2004 2.96999C31.1313 2.98279 31.0583 3.01095 30.979 3.02631C30.9009 3.04167 30.8087 3.04295 30.7383 2.98791C30.6679 2.93415 30.6321 2.84071 30.5962 2.74855C30.5604 2.65383 30.5105 2.55911 30.4426 2.47463C30.307 2.30567 30.1239 2.19047 29.9396 2.14951C29.8474 2.12903 29.7553 2.13159 29.6734 2.15591C29.5927 2.18151 29.5249 2.22631 29.4788 2.28135C29.4314 2.33639 29.4084 2.40039 29.4046 2.45799C29.3994 2.51431 29.411 2.56423 29.4263 2.60007C29.4417 2.63719 29.4622 2.66151 29.4762 2.67559C29.4916 2.68967 29.5006 2.69607 29.5006 2.69607C29.5044 2.69351 29.4647 2.66791 29.4366 2.59623C29.4238 2.56039 29.4148 2.51303 29.4199 2.45927C29.425 2.40551 29.4481 2.34535 29.4929 2.29543C29.5377 2.24423 29.6017 2.20199 29.6785 2.17895C29.7553 2.15591 29.8436 2.15463 29.9319 2.17511C30.1086 2.21607 30.2865 2.32871 30.4183 2.49255C30.4849 2.57447 30.5322 2.66535 30.5681 2.75879C30.6052 2.85095 30.641 2.94951 30.7204 3.00967C30.7588 3.03911 30.8062 3.05447 30.8522 3.05959C30.8983 3.06343 30.9418 3.05831 30.9828 3.05063C31.0647 3.03399 31.1364 3.00455 31.203 2.99047C31.2695 2.97511 31.3335 2.97383 31.3834 2.99175C31.4346 3.00967 31.4705 3.04295 31.491 3.07495C31.5127 3.10695 31.5166 3.13767 31.5166 3.15687C31.5178 3.17735 31.514 3.18759 31.5166 3.18759Z" fill="#666668"/>
</g>
<path d="M13.7705 18.4462C13.759 18.4654 13.654 18.418 13.5247 18.4462C13.3954 18.4731 13.3161 18.5601 13.2982 18.5473C13.2892 18.5422 13.2982 18.5102 13.3327 18.4718C13.3673 18.4334 13.43 18.3886 13.5094 18.3719C13.59 18.3553 13.663 18.3694 13.709 18.3911C13.7564 18.4116 13.7756 18.4372 13.7705 18.4462Z" fill="#38302D"/>
<path d="M12.4852 18.5567C12.4712 18.5733 12.3739 18.5093 12.2433 18.517C12.1115 18.5221 12.0193 18.5951 12.004 18.5797C11.9963 18.5733 12.0104 18.5439 12.0513 18.5106C12.091 18.4773 12.1601 18.444 12.242 18.4402C12.324 18.4363 12.3944 18.4632 12.4353 18.4914C12.4763 18.5221 12.4916 18.5503 12.4852 18.5567Z" fill="#38302D"/>
<path d="M13.0079 19.5795C13.0066 19.5718 13.0885 19.5539 13.2191 19.5296C13.2524 19.5244 13.2844 19.5155 13.2882 19.4925C13.2946 19.4681 13.2793 19.4323 13.2601 19.3939C13.2242 19.3145 13.1871 19.2313 13.1474 19.143C12.99 18.7859 12.8748 18.4915 12.8889 18.4851C12.9029 18.4787 13.0425 18.7629 13.1999 19.12C13.2383 19.2083 13.2741 19.2915 13.3087 19.3721C13.3241 19.4093 13.3471 19.4515 13.333 19.5027C13.3253 19.5283 13.301 19.5475 13.2805 19.5552C13.2588 19.5629 13.2409 19.5641 13.2242 19.5667C13.0911 19.5821 13.0079 19.5872 13.0079 19.5795Z" fill="#38302D"/>
<path d="M12.5322 19.4489C12.5322 19.4693 12.5156 19.486 12.4951 19.486C12.4746 19.486 12.458 19.4693 12.458 19.4489C12.458 19.4284 12.4746 19.4117 12.4951 19.4117C12.5156 19.413 12.5322 19.4297 12.5322 19.4489Z" fill="#DBB3A2"/>
<path d="M13.6348 19.4077C13.6348 19.4282 13.6181 19.4448 13.5977 19.4448C13.5772 19.4448 13.5605 19.4282 13.5605 19.4077C13.5605 19.3872 13.5772 19.3706 13.5977 19.3706C13.6181 19.3706 13.6348 19.3872 13.6348 19.4077Z" fill="#DBB3A2"/>
<path d="M13.8379 19.5023C13.8379 19.5228 13.8213 19.5395 13.8008 19.5395C13.7803 19.5395 13.7637 19.5228 13.7637 19.5023C13.7637 19.4819 13.7803 19.4652 13.8008 19.4652C13.8213 19.4652 13.8379 19.4819 13.8379 19.5023Z" fill="#DBB3A2"/>
<path d="M13.9004 19.3486C13.9004 19.3691 13.8838 19.3858 13.8633 19.3858C13.8428 19.3858 13.8262 19.3691 13.8262 19.3486C13.8262 19.3282 13.8428 19.3115 13.8633 19.3115C13.8838 19.3128 13.9004 19.3294 13.9004 19.3486Z" fill="#DBB3A2"/>
<path d="M12.3584 19.6113C12.3584 19.6318 12.3418 19.6485 12.3213 19.6485C12.3008 19.6485 12.2842 19.6318 12.2842 19.6113C12.2842 19.5909 12.3008 19.5742 12.3213 19.5742C12.3418 19.5742 12.3584 19.5909 12.3584 19.6113Z" fill="#DBB3A2"/>
<path d="M12.2276 19.464C12.2276 19.4845 12.2109 19.5011 12.1904 19.5011C12.17 19.5011 12.1533 19.4845 12.1533 19.464C12.1533 19.4435 12.17 19.4269 12.1904 19.4269C12.2109 19.4269 12.2276 19.4435 12.2276 19.464Z" fill="#DBB3A2"/>
<path d="M13.9207 18.8177C13.931 18.883 13.9246 18.9508 13.9003 19.0097C13.8478 19.1339 13.7134 19.212 13.5854 19.1876C13.4561 19.1646 13.355 19.0366 13.3383 18.8984C13.3102 18.65 13.5355 18.4696 13.7249 18.5451C13.762 18.5604 13.7991 18.5848 13.8324 18.6232C13.8785 18.6769 13.9105 18.746 13.9207 18.8177Z" fill="#32292B"/>
<path d="M13.9205 18.8176C13.9013 18.8393 13.8757 18.856 13.8424 18.8662C13.7745 18.888 13.7003 18.8432 13.676 18.7664C13.6517 18.6934 13.6734 18.6 13.7246 18.5449C13.7617 18.5603 13.7989 18.5846 13.8321 18.623C13.8782 18.6768 13.9102 18.7459 13.9205 18.8176Z" fill="#F8FAFB"/>
<path d="M13.6224 19.0148C13.6198 18.9879 13.6339 18.9598 13.6557 18.9431C13.7107 18.8996 13.84 18.9316 13.7977 19.0199C13.7632 19.0929 13.6313 19.1018 13.6224 19.0148Z" fill="#F8FAFB"/>
<path d="M13.4738 18.7601L13.4674 18.7025L13.5007 18.7524C13.5225 18.7857 13.5609 18.8024 13.5993 18.7985L13.6479 18.7921L13.6044 18.8216C13.5724 18.8433 13.5557 18.8792 13.5583 18.9176L13.5647 18.9841L13.5289 18.9278C13.5084 18.8945 13.47 18.8766 13.4316 18.8792L13.3906 18.883L13.4277 18.8587C13.4597 18.8382 13.4789 18.7998 13.4738 18.7601Z" fill="#FFBD00"/>
<path d="M12.577 18.9547C12.5872 19.02 12.5808 19.0878 12.5565 19.1467C12.504 19.2708 12.3696 19.3489 12.2416 19.3246C12.1136 19.3003 12.0112 19.1736 11.9946 19.0353C11.9664 18.787 12.1917 18.6065 12.3811 18.682C12.4183 18.6974 12.4554 18.7217 12.4887 18.7601C12.5347 18.8139 12.5655 18.883 12.577 18.9547Z" fill="#32292B"/>
<path d="M12.5777 18.9545C12.5585 18.9763 12.5329 18.9929 12.4996 19.0032C12.4318 19.0249 12.3575 18.9801 12.3332 18.9033C12.3089 18.8304 12.3306 18.7369 12.3818 18.6819C12.419 18.6972 12.4561 18.7216 12.4894 18.76C12.5354 18.8137 12.5662 18.8828 12.5777 18.9545Z" fill="#F8FAFB"/>
<path d="M12.2767 19.1518C12.2741 19.1249 12.2882 19.0967 12.3099 19.0801C12.365 19.0366 12.4943 19.0686 12.452 19.1569C12.4162 19.2311 12.2843 19.2401 12.2767 19.1518Z" fill="#F8FAFB"/>
<path d="M12.132 18.8985L12.1256 18.8409L12.1589 18.8909C12.1807 18.9241 12.2191 18.9408 12.2575 18.9369L12.3061 18.9305L12.2626 18.96C12.2306 18.9817 12.2139 19.0176 12.2165 19.056L12.2229 19.1225L12.1871 19.0662C12.1666 19.0329 12.1282 19.015 12.0898 19.0176L12.0488 19.0214L12.0859 18.9971C12.1179 18.9753 12.1359 18.9369 12.132 18.8985Z" fill="#FFBD00"/>
</g>
<defs>
<clipPath id="clip0_1146_49381">
<rect width="48" height="48" rx="24" fill="white"/>
</clipPath>
</defs>
</svg>
