<svg width="48" height="48" fill="none" xmlns="http://www.w3.org/2000/svg"><g clip-path="url(#a)"><rect width="48" height="48" rx="24" fill="#fff"/><g clip-path="url(#b)"><path opacity=".7" d="M37.356 11.873c-1.595-1.653-3.422-3.028-5.365-3.99-2.958-1.465-6.217-2.172-9.475-2.214-9.523-.123-10.248 11.733-13.177 13.381C6.41 20.7 1.104 20.892.92 27.487c-.116 4.147.798 8.411 3.367 11.643 2.353 2.96 5.81 4.459 9.215 5.568 3.825 1.244 7.881 2.465 11.904 1.625 4.128-.861 7.029-4.326 10.418-6.666 2.135-1.474 4.05-3.026 5.369-5.392.157-.282.305-.57.445-.864 1.765-3.675 2.11-7.914 1.138-11.89-.872-3.569-2.844-6.967-5.42-9.638Z" fill="#EFEFEF"/><g opacity=".97" fill="#EBEBEB"><path d="m41.545 21.03-15.373-.147-4.659-.022c-.547 0-.972.002-1.266.003l-.329.005a.862.862 0 0 0-.112.005.79.79 0 0 0 .112.008l.33.008c.293.004.72.008 1.265.016l4.66.025 15.373.01c6-.001 11.433.007 15.367.036 1.967.014 3.558.033 4.658.054.55.01.977.022 1.266.033.29.011.441.023.441.033 0 .01-.152.02-.441.029-.29.009-.717.015-1.268.02-1.1.01-2.691.013-4.658.007-3.933-.012-9.366-.06-15.366-.122Z"/><path d="M41.422 22.386 26.26 19.849l-4.599-.745c-.54-.084-.96-.15-1.252-.194l-.326-.046a.82.82 0 0 0-.112-.012c0 .002.036.01.11.025l.324.06c.29.048.71.12 1.249.213l4.598.748 15.185 2.398c5.927.93 11.294 1.782 15.175 2.423 1.94.32 3.51.585 4.594.777.541.096.961.174 1.246.23.284.056.433.09.43.101-.001.011-.153-.003-.44-.039-.287-.036-.71-.096-1.255-.177a428.898 428.898 0 0 1-4.603-.717 2160.22 2160.22 0 0 1-15.162-2.508Z"/><path d="m41.094 23.705-14.573-4.893-4.424-1.462c-.52-.168-.927-.297-1.206-.388l-.315-.096a.792.792 0 0 0-.108-.03.742.742 0 0 0 .104.043l.312.11c.278.093.681.23 1.198.406l4.423 1.465 14.62 4.757A2219.38 2219.38 0 0 1 55.728 28.4c1.866.621 3.374 1.13 4.413 1.492.52.18.922.322 1.194.423.272.101.413.159.409.17-.004.01-.152-.028-.43-.11a69.62 69.62 0 0 1-1.21-.37c-1.05-.331-2.565-.82-4.433-1.434a2160.85 2160.85 0 0 1-14.578-4.865Z"/><path d="M40.562 24.954 26.939 17.83l-4.138-2.139-1.13-.573c-.128-.062-.226-.111-.296-.146a.771.771 0 0 0-.102-.045.65.65 0 0 0 .096.058l.29.157 1.12.59c.98.509 2.393 1.24 4.138 2.143l13.687 7c5.344 2.728 10.18 5.206 13.67 7.02 1.745.908 3.153 1.648 4.124 2.167a63 63 0 0 1 1.112.606c.253.142.383.22.379.23-.005.01-.146-.05-.408-.175a72.729 72.729 0 0 1-1.137-.557 428.367 428.367 0 0 1-4.152-2.113c-3.5-1.8-8.316-4.314-13.63-7.098Z"/><path d="m39.838 26.105-12.342-9.167-3.753-2.759-1.027-.743a56.22 56.22 0 0 1-.268-.19.694.694 0 0 0-.095-.06c0 .002.028.026.087.072l.261.2 1.015.759 3.752 2.762c3.182 2.32 7.573 5.518 12.424 9.053 4.852 3.53 9.24 6.734 12.404 9.072a397.303 397.303 0 0 1 3.734 2.785c.44.332.777.592 1.005.771.227.18.343.279.337.287-.007.009-.136-.073-.375-.236-.239-.163-.588-.409-1.036-.728a404 404 0 0 1-3.77-2.736 2380.002 2380.002 0 0 1-12.353-9.142Z"/><path d="M38.944 27.128 28.177 16.154l-3.278-3.31-.898-.893c-.101-.1-.18-.175-.236-.23a.773.773 0 0 0-.083-.075.577.577 0 0 0 .074.085l.227.238.884.907 3.277 3.312 10.865 10.876c4.244 4.241 8.081 8.089 10.842 10.89 1.38 1.4 2.493 2.54 3.257 3.332.38.397.675.707.872.919.197.213.297.328.288.336-.007.008-.122-.093-.333-.292a68.334 68.334 0 0 1-.91-.881c-.785-.771-1.912-1.894-3.3-3.29a2111.54 2111.54 0 0 1-10.781-10.95Z"/><path d="m37.904 28-8.928-12.515a8126.323 8126.323 0 0 0-2.725-3.78l-.748-1.022-.198-.264a.798.798 0 0 0-.07-.087.703.703 0 0 0 .059.095l.187.27.733 1.034 2.721 3.782 9.042 12.433a2211.88 2211.88 0 0 1 9.016 12.443 408.35 408.35 0 0 1 2.697 3.798c.315.451.558.803.72 1.044.16.24.242.37.232.377-.009.007-.107-.11-.284-.34-.178-.23-.434-.57-.762-1.012a408.496 408.496 0 0 1-2.748-3.762A2294.292 2294.292 0 0 1 37.904 28Z"/><path d="m36.742 28.7-6.861-13.758-2.1-4.16-.578-1.125-.154-.291a.726.726 0 0 0-.057-.097.631.631 0 0 0 .044.104l.144.296.561 1.136 2.097 4.16 6.987 13.695a2207.425 2207.425 0 0 1 6.96 13.7 394.61 394.61 0 0 1 2.07 4.173c.241.495.426.88.547 1.143.122.264.18.404.17.41-.01.004-.088-.126-.227-.38-.14-.255-.34-.632-.594-1.12a417.88 417.88 0 0 1-2.126-4.144c-1.78-3.511-4.21-8.372-6.883-13.743Z"/><path d="m35.48 29.207-4.611-14.666a5879.29 5879.29 0 0 0-1.42-4.437L29.054 8.9a85.962 85.962 0 0 1-.106-.312.579.579 0 0 0-.041-.104.665.665 0 0 0 .027.11l.094.315.377 1.21 1.416 4.438 4.745 14.622c1.857 5.706 3.53 10.875 4.718 14.625a418.263 418.263 0 0 1 1.389 4.447c.16.526.28.936.36 1.214.078.28.114.427.103.43-.01.003-.067-.138-.164-.41a65.752 65.752 0 0 1-.41-1.199 411.11 411.11 0 0 1-1.447-4.428 2204.85 2204.85 0 0 1-4.635-14.65Z"/><path d="M34.154 29.51c-.878-5.939-1.67-11.313-2.247-15.209l-.703-4.605-.2-1.25-.057-.325a.566.566 0 0 0-.024-.11.768.768 0 0 0 .01.113l.043.326.182 1.254.7 4.606 2.385 15.187c.936 5.927 1.774 11.295 2.358 15.185.292 1.945.521 3.52.672 4.61.075.546.13.969.164 1.257.034.288.046.44.035.442-.01.002-.044-.147-.097-.432a64.496 64.496 0 0 1-.217-1.248 390.66 390.66 0 0 1-.732-4.6c-.602-3.89-1.4-9.265-2.272-15.201Z"/><path d="m32.796 29.602.138-15.373.02-4.659-.003-1.266-.005-.33a.862.862 0 0 0-.006-.111.79.79 0 0 0-.008.112c-.002.079-.005.187-.007.33l-.016 1.265-.022 4.66v15.373c.005 6 0 11.433-.027 15.366-.012 1.968-.03 3.56-.05 4.658-.011.55-.022.978-.033 1.267-.012.29-.022.441-.034.441-.01 0-.02-.152-.029-.441-.008-.29-.015-.718-.02-1.268-.011-1.1-.015-2.691-.01-4.658.01-3.933.053-9.366.112-15.366Z"/><path d="m31.441 29.484 2.527-15.165.743-4.599.193-1.252.046-.326a.787.787 0 0 0 .012-.112.795.795 0 0 0-.025.109l-.059.324-.212 1.25-.746 4.598-2.387 15.186a2165.988 2165.988 0 0 1-2.414 15.177 422.28 422.28 0 0 1-.774 4.593c-.096.542-.173.962-.23 1.246-.056.285-.091.433-.102.431-.01-.002.003-.153.04-.44.036-.287.096-.71.175-1.255.16-1.089.404-2.661.714-4.603.62-3.885 1.509-9.245 2.5-15.162Z"/><path d="m30.127 29.154 4.884-14.577 1.458-4.424.387-1.206.097-.315a.79.79 0 0 0 .029-.109.742.742 0 0 0-.043.105l-.11.311c-.093.279-.23.682-.405 1.2l-1.461 4.424-4.75 14.622a2223.72 2223.72 0 0 1-4.772 14.607 399.946 399.946 0 0 1-1.488 4.414c-.18.52-.323.923-.423 1.194-.1.272-.158.413-.169.41-.01-.005.027-.153.109-.43.081-.278.206-.686.371-1.211.33-1.05.818-2.566 1.43-4.434 1.224-3.74 2.945-8.893 4.856-14.581Z"/><path d="m28.878 28.62 7.115-13.627 2.136-4.14.572-1.13.146-.296a.766.766 0 0 0 .045-.103.65.65 0 0 0-.057.097l-.157.29-.59 1.122-2.138 4.138-6.992 13.692c-2.724 5.346-5.2 10.182-7.012 13.673a395.067 395.067 0 0 1-2.165 4.125c-.259.485-.463.86-.604 1.114-.141.252-.221.383-.23.378-.01-.005.05-.145.174-.407.124-.262.312-.645.558-1.138a401.63 401.63 0 0 1 2.11-4.153c1.796-3.5 4.307-8.318 7.088-13.635Z"/><path d="m27.724 27.899 9.158-12.348 2.757-3.755.742-1.026.19-.27a.694.694 0 0 0 .06-.093.785.785 0 0 0-.071.086 34.76 34.76 0 0 0-.2.262l-.757 1.015-2.76 3.753-9.047 12.43a2302.41 2302.41 0 0 1-9.063 12.41A407.143 407.143 0 0 1 15.95 44.1c-.332.438-.592.777-.772 1.005-.18.227-.278.344-.287.337-.008-.007.073-.136.236-.375.164-.239.41-.588.729-1.036.638-.896 1.572-2.185 2.734-3.772 2.322-3.178 5.556-7.544 9.134-12.36Z"/><path d="M26.702 27.006c4.283-4.206 8.159-8.013 10.967-10.773l3.308-3.28.892-.899c.1-.101.175-.18.23-.236a.768.768 0 0 0 .075-.083.56.56 0 0 0-.085.074l-.238.227-.906.885-3.31 3.279-10.87 10.872A2214.289 2214.289 0 0 1 15.883 37.92a400.302 400.302 0 0 1-3.33 3.259c-.396.382-.706.676-.919.872-.212.197-.328.297-.336.29-.007-.008.093-.123.292-.334a62.1 62.1 0 0 1 .881-.91c.77-.786 1.893-1.914 3.287-3.302 2.788-2.777 6.662-6.588 10.945-10.789Z"/><path d="m25.826 25.965 12.51-8.935 3.778-2.727c.442-.323.784-.575 1.021-.749l.263-.197a.772.772 0 0 0 .088-.071.671.671 0 0 0-.095.06 72.71 72.71 0 0 0-.271.187l-1.033.734-3.78 2.723-12.428 9.05c-4.848 3.535-9.243 6.73-12.438 9.023a408.007 408.007 0 0 1-3.795 2.7c-.45.317-.803.559-1.044.72-.24.161-.37.242-.376.233-.007-.009.11-.107.34-.284.23-.178.57-.435 1.012-.762.883-.657 2.167-1.596 3.76-2.75 3.185-2.31 7.603-5.47 12.489-8.955Z"/><path d="m25.129 24.8 13.753-6.869 4.157-2.102 1.127-.58.29-.155a.738.738 0 0 0 .097-.056.65.65 0 0 0-.103.044l-.297.143-1.135.562-4.158 2.1-13.69 6.995c-5.34 2.734-10.18 5.203-13.696 6.969a396.668 396.668 0 0 1-4.172 2.074c-.495.24-.88.425-1.143.547-.263.122-.403.18-.409.17-.006-.009.126-.088.38-.227.255-.14.631-.34 1.119-.595.974-.51 2.39-1.237 4.144-2.128C14.9 29.91 19.76 27.477 25.13 24.8Z"/><path d="m24.618 23.541 14.663-4.62 4.436-1.422c.52-.17.925-.304 1.203-.396l.312-.106a.574.574 0 0 0 .105-.041.672.672 0 0 0-.11.027l-.316.095-1.21.376-4.437 1.419-14.62 4.755a2159.526 2159.526 0 0 1-14.621 4.727 383.563 383.563 0 0 1-4.446 1.39c-.526.161-.936.282-1.214.362-.279.078-.427.115-.43.104-.004-.01.138-.067.41-.165.273-.098.677-.237 1.199-.412 1.042-.35 2.555-.846 4.427-1.45 3.743-1.208 8.924-2.845 14.649-4.643Z"/><path d="M3.268 25.45a62.97 62.97 0 0 1 1.248-.217c1.084-.183 2.657-.433 4.6-.735 3.887-.603 9.261-1.405 15.197-2.28 5.938-.882 11.311-1.678 15.207-2.256l4.605-.707 1.251-.202c.14-.024.248-.043.325-.055a.568.568 0 0 0 .109-.024.711.711 0 0 0-.112.01l-.327.043-1.254.182-4.605.703-15.185 2.394c-5.926.939-11.293 1.782-15.183 2.367-1.945.294-3.52.523-4.61.675-.545.076-.969.13-1.257.165"/><path d="M2.93 20.792c.29-.009.717-.016 1.267-.021 1.1-.012 2.692-.015 4.659-.013 3.933.007 9.367.047 15.367.102l15.372.129 4.659.016L45.52 21l.33-.005a.605.605 0 0 0 .112-.006.718.718 0 0 0-.113-.007l-.329-.008-1.266-.014-4.659-.02-15.373.01c-6 .008-11.434.007-15.367-.017a426.128 426.128 0 0 1-4.658-.048c-.55-.01-.977-.02-1.266-.032"/><path d="m24.34 19.506 15.166 2.518 4.6.74 1.251.192.326.046c.074.01.112.013.113.01a.784.784 0 0 0-.11-.025 39.362 39.362 0 0 0-.324-.058c-.29-.05-.71-.12-1.25-.211l-4.599-.743-15.188-2.378a2235.58 2235.58 0 0 1-15.177-2.403c-1.941-.317-3.511-.581-4.595-.772a67.397 67.397 0 0 1-1.246-.229c-.284-.055-.433-.09-.431-.101.002-.01.154.003.44.04.288.036.711.094 1.255.174 1.089.16 2.662.402 4.605.711 3.885.617 9.245 1.502 15.164 2.49Z"/><path d="m24.668 18.186 14.58 4.875 4.425 1.456c.521.167.926.296 1.206.387.135.04.24.073.315.096.07.022.108.031.108.03a.748.748 0 0 0-.104-.043l-.311-.11-1.2-.404-4.425-1.459-14.625-4.74a2195.768 2195.768 0 0 1-14.61-4.762 407.756 407.756 0 0 1-4.415-1.486c-.52-.18-.923-.322-1.194-.421-.272-.1-.413-.159-.41-.17.004-.01.152.028.429.108.278.08.686.206 1.212.37 1.05.33 2.565.817 4.434 1.428 3.742 1.22 8.896 2.939 14.585 4.845Z"/><path d="m25.2 16.936 13.632 7.107 4.141 2.134c.489.246.868.438 1.13.572l.296.145a.789.789 0 0 0 .102.045.773.773 0 0 0-.096-.058l-.29-.156-1.122-.59L38.853 24l-13.696-6.983a2237.026 2237.026 0 0 1-13.678-7.003 410.991 410.991 0 0 1-4.127-2.162c-.484-.26-.86-.463-1.113-.604-.253-.14-.383-.22-.379-.23.005-.01.145.05.408.175.262.123.646.312 1.138.556.985.49 2.405 1.21 4.155 2.109 3.501 1.794 8.321 4.301 13.639 7.08Z"/><path d="m25.92 15.785 12.352 9.151 3.758 2.754c.443.321.789.57 1.027.741l.27.19a.597.597 0 0 0 .095.061.76.76 0 0 0-.087-.072 32.688 32.688 0 0 0-.262-.2l-1.015-.757-3.756-2.757-12.436-9.038c-4.856-3.523-9.25-6.722-12.415-9.055a407.243 407.243 0 0 1-3.739-2.78 70.447 70.447 0 0 1-1.005-.771c-.227-.18-.343-.278-.338-.287.007-.009.136.073.375.236.239.163.59.409 1.037.727.896.639 2.185 1.572 3.773 2.732 3.178 2.319 7.547 5.55 12.365 9.125Z"/><path d="m26.814 14.76 10.78 10.96 3.283 3.306.9.892.236.229c.053.05.082.077.083.075a.572.572 0 0 0-.074-.085l-.227-.238-.886-.906-3.28-3.308-10.878-10.862C22.5 10.586 18.66 6.744 15.894 3.946a413.526 413.526 0 0 1-3.26-3.329A67.02 67.02 0 0 1 11.76-.3c-.197-.212-.297-.329-.289-.336.008-.008.123.093.333.292.211.198.519.495.911.88.787.77 1.916 1.892 3.304 3.285 2.777 2.788 6.59 6.659 10.794 10.94Z"/><path d="m27.856 13.887 8.943 12.504c1.151 1.591 2.082 2.88 2.728 3.775l.75 1.022.198.263c.045.058.069.088.07.087a.663.663 0 0 0-.06-.095 30.052 30.052 0 0 0-.188-.27l-.733-1.034-2.727-3.777-9.056-12.423a2352.114 2352.114 0 0 1-9.03-12.432 386.226 386.226 0 0 1-2.703-3.795c-.316-.45-.56-.801-.72-1.042-.162-.241-.242-.37-.234-.376.009-.007.107.11.285.34.177.229.434.57.763 1.01.656.883 1.597 2.167 2.752 3.759 2.31 3.184 5.475 7.601 8.962 12.484Z"/><path d="m29.018 13.187 6.878 13.748 2.105 4.156.581 1.126c.066.126.118.222.155.29a.723.723 0 0 0 .056.098.781.781 0 0 0-.044-.104l-.143-.297-.563-1.134-2.103-4.158-7.004-13.685A2257.883 2257.883 0 0 1 21.96-.464a419.526 419.526 0 0 1-2.077-4.17c-.24-.495-.426-.88-.548-1.143-.122-.263-.181-.403-.17-.408.009-.005.088.126.227.38.139.255.34.63.596 1.119.51.974 1.24 2.389 2.13 4.142a2147.42 2147.42 0 0 1 6.9 13.73Z"/><path d="m30.277 12.677 4.63 14.66 1.424 4.434c.17.52.304.924.396 1.203l.107.312c.025.07.038.106.041.105a.669.669 0 0 0-.028-.11l-.094-.315-.377-1.209-1.422-4.436-4.763-14.617a2190.546 2190.546 0 0 1-4.737-14.619A395.487 395.487 0 0 1 24.06-6.36c-.16-.526-.282-.936-.36-1.214-.08-.279-.116-.427-.105-.43.01-.004.067.138.165.41.098.273.237.677.412 1.199.352 1.042.848 2.554 1.453 4.426 1.21 3.743 2.85 8.924 4.652 14.646Z"/><path d="m31.6 12.373 2.265 15.205.71 4.604.202 1.251.057.325c.013.073.021.11.024.11a.711.711 0 0 0-.01-.113l-.045-.327-.182-1.253-.706-4.605-2.404-15.185a2160.32 2160.32 0 0 1-2.378-15.18c-.295-1.945-.526-3.52-.678-4.61a74.786 74.786 0 0 1-.166-1.255c-.035-.288-.047-.44-.036-.442.01-.001.044.147.098.432.054.286.128.706.219 1.248.182 1.085.435 2.657.737 4.6A2090.08 2090.08 0 0 1 31.6 12.374Z"/><path d="m32.96 12.279-.118 15.372-.014 4.659.006 1.266.005.33a.594.594 0 0 0 .006.112.728.728 0 0 0 .007-.112l.008-.33.013-1.266.017-4.659-.02-15.373c-.011-6-.014-11.434.008-15.367.01-1.967.026-3.559.045-4.658.01-.55.02-.977.03-1.266.011-.29.023-.442.033-.442.011 0 .022.153.03.442.009.29.017.717.022 1.267.013 1.1.018 2.692.016 4.659-.005 3.933-.043 9.366-.093 15.366Z"/><path d="m34.314 12.396-2.508 15.167-.737 4.6-.191 1.252-.046.326a.59.59 0 0 0-.01.112c.001 0 .01-.036.024-.109l.059-.325.21-1.248.74-4.6 2.369-15.19c.92-5.929 1.76-11.297 2.393-15.18.316-1.94.579-3.51.769-4.594.095-.541.172-.962.227-1.246.056-.284.09-.433.102-.431.01.002-.003.154-.038.442-.037.287-.095.71-.175 1.254-.159 1.089-.4 2.662-.709 4.604-.614 3.886-1.496 9.246-2.48 15.165Z"/><path d="m35.634 12.724-4.866 14.583-1.452 4.427-.386 1.206-.097.315a.559.559 0 0 0-.028.109.748.748 0 0 0 .042-.105l.11-.31.405-1.2 1.455-4.426 4.73-14.628c1.842-5.71 3.518-10.879 4.754-14.613a379.064 379.064 0 0 1 1.483-4.416c.18-.52.322-.923.422-1.195.1-.272.157-.413.168-.41.01.004-.027.152-.108.43-.08.278-.205.687-.37 1.211-.328 1.05-.814 2.567-1.424 4.436-1.22 3.74-2.935 8.895-4.838 14.586Z"/><path d="m36.882 13.255-7.099 13.637-2.13 4.143-.572 1.131a88.6 88.6 0 0 1-.145.296.764.764 0 0 0-.045.103.78.78 0 0 0 .057-.097l.157-.29.588-1.121 2.134-4.142 6.975-13.7c2.718-5.35 5.186-10.19 6.994-13.684a394.435 394.435 0 0 1 2.16-4.128c.258-.486.461-.861.603-1.113.141-.254.221-.384.23-.379.01.005-.05.145-.173.407-.124.262-.311.646-.556 1.139-.49.985-1.209 2.406-2.105 4.156a2317.294 2317.294 0 0 1-7.073 13.642Z"/><path d="m38.036 13.976-9.143 12.359-2.753 3.758-.74 1.027-.19.27a.61.61 0 0 0-.06.095.757.757 0 0 0 .072-.086l.2-.262.756-1.016 2.755-3.756 9.03-12.442c3.52-4.859 6.715-9.254 9.048-12.422a399.53 399.53 0 0 1 2.778-3.74c.331-.438.591-.778.77-1.006.18-.227.277-.343.286-.338.008.007-.072.136-.235.376-.163.239-.408.59-.727 1.037-.638.897-1.57 2.187-2.73 3.776a2287.657 2287.657 0 0 1-9.117 12.37Z"/><path d="M39.057 14.867 28.103 25.653 24.8 28.938c-.385.39-.685.692-.892.9l-.23.237a.768.768 0 0 0-.074.084.572.572 0 0 0 .084-.074l.238-.228.905-.886 3.306-3.283 10.855-10.886A2255.59 2255.59 0 0 1 49.862 3.94 412.657 412.657 0 0 1 53.187.678c.396-.382.705-.677.918-.874.212-.197.327-.296.335-.289.008.008-.093.123-.291.334-.199.212-.495.519-.88.912-.768.787-1.89 1.917-3.283 3.306-2.783 2.778-6.65 6.593-10.93 10.8Z"/><path d="m39.934 15.906-12.498 8.952-3.774 2.732-1.02.75-.264.197a.625.625 0 0 0-.086.071c.001.002.034-.018.095-.06l.27-.188 1.033-.735 3.775-2.728 12.417-9.065c4.843-3.542 9.234-6.742 12.426-9.04a414.306 414.306 0 0 1 3.793-2.705 71.8 71.8 0 0 1 1.043-.721c.24-.161.37-.242.376-.233.007.008-.11.106-.34.284-.229.177-.569.435-1.01.764a402.8 402.8 0 0 1-3.758 2.754 2124.618 2124.618 0 0 1-12.478 8.971Z"/><path d="M40.639 17.07c-5.368 2.69-10.224 5.124-13.745 6.887l-4.154 2.108-1.126.582-.29.155a.725.725 0 0 0-.097.056c0 .002.036-.013.103-.044l.297-.143 1.135-.563 4.155-2.105 13.681-7.012c5.338-2.741 10.175-5.216 13.687-6.986 1.756-.886 3.18-1.596 4.17-2.079.494-.242.879-.426 1.142-.549.263-.122.403-.181.408-.172.005.01-.126.089-.38.228-.253.14-.63.34-1.117.597-.974.512-2.39 1.24-4.141 2.133a2265.444 2265.444 0 0 1-13.728 6.907Z"/><path d="M41.148 18.33 26.49 22.968l-4.434 1.428-1.203.397-.312.107a.583.583 0 0 0-.105.041.668.668 0 0 0 .11-.028 54.5 54.5 0 0 0 .316-.095l1.208-.378 4.436-1.425c3.743-1.223 8.906-2.91 14.613-4.773 5.702-1.867 10.868-3.55 14.616-4.746a408.047 408.047 0 0 1 4.444-1.397c.526-.161.935-.283 1.214-.362.278-.078.427-.115.43-.104.003.01-.138.067-.41.165a77.08 77.08 0 0 1-1.199.413c-1.042.353-2.554.85-4.426 1.456-3.74 1.212-8.919 2.857-14.641 4.663Z"/><path d="m41.453 19.654-15.204 2.275-4.604.712-1.25.203-.325.056a.68.68 0 0 0-.109.024c0 .002.038 0 .112-.01l.327-.044 1.253-.184 4.605-.708 15.182-2.415c5.925-.946 11.291-1.796 15.18-2.386a426.58 426.58 0 0 1 4.61-.68c.544-.077.968-.133 1.255-.168.288-.034.44-.047.442-.036.002.01-.147.045-.432.099-.285.053-.706.127-1.248.22a413.3 413.3 0 0 1-4.6.74c-3.888.61-9.26 1.418-15.194 2.302Z"/></g><path d="M36.687 34.572 37.7 22.257c.325-2.352-.395-2.813-1.786-2.93l-5.587-.03c-1.456.385-1.144 1.55-1.195 2.148a82.109 82.109 0 0 1-.515 11.372l-.147 1.272 8.218.483Z" fill="#5B5B5B"/><path opacity=".2" d="m36.203 21.3 1.268 3.74.283-4.1-1.55.36Z" fill="#000"/><path d="M28.668 31.996S26.11 47.43 25.787 49.85c-.324 2.42-2.056 12.144-2.056 12.144l1.955.44s2.786-6.95 3.365-11.786c0 0 2.36-8.241 3.17-10.057 0 0 2.341-2.584 1.573-7.185l-5.126-1.41Z" fill="#3A3A3A"/><path opacity=".2" d="M31.012 43.879c.474-1.391.928-2.66 1.208-3.29 0 0 .492-.21 1.077-.709.135-.537.218-.881.218-.881l-1.508-2.244c0 .002-.443 4.591-.995 7.124Z" fill="#000"/><path d="M31.655 33.025s.864 15.71 1.938 18.756c1.073 3.046 4.437 9.992 4.437 9.992l1.862-.809s-1.498-8.21-3.15-10.352l.229-10.748s1.237-5.341-.025-7.869l-5.29 1.03Z" fill="#3A3A3A"/><path d="M36.909 31.996h-8.243l-.499 2.959 3.661 2.552 5.118-2.273-.037-3.238Z" fill="#3A3A3A"/><path d="m31.83 19.88.035.08a.928.928 0 0 0 .783.56c.152.012.507.042 1.32-.445.245-.168.46-.376.635-.616l.003-.005a.482.482 0 0 0-.068-.144c-.53-.757-.529-2.305-.455-3.207l-1.726 1.841c.255.69.29 1.5-.527 1.936Z" fill="#F4CDB8"/><path opacity=".2" d="m33.633 17.086-1.243.939c.037.183.115.381.12.568.43-.05 1.015-.413 1.197-.88.116-.282.035-.59-.074-.627Z" fill="#000"/><path d="M31.267 12.64s-1.47 1.322-.408 1.897c1.062.576.407-1.897.407-1.897Z" fill="#2E353A"/><path d="M34.297 14.618c-.024 1.366.028 2.166-.63 2.893-.989 1.095-2.698.54-3.078-.803-.345-1.217-.243-3.24 1.068-3.838a1.861 1.861 0 0 1 2.64 1.748Z" fill="#F4CDB8"/><path d="M32.183 15.102c.005.111-.05.204-.123.206-.073.003-.134-.084-.139-.195-.005-.112.05-.203.123-.206.073-.002.135.085.14.195ZM30.931 15.156c.004.11-.05.202-.123.205-.073.003-.134-.085-.139-.194-.004-.11.05-.204.123-.206.073-.004.134.083.14.195ZM32.391 14.546a.087.087 0 0 0 .032-.009.067.067 0 0 0 .008-.092.657.657 0 0 0-.541-.247.066.066 0 0 0-.058.072.065.065 0 0 0 .072.058.516.516 0 0 1 .427.2.065.065 0 0 0 .06.018ZM30.533 14.685a.065.065 0 0 0 .049-.038.522.522 0 0 1 .35-.31.064.064 0 0 0 .054-.074.064.064 0 0 0-.075-.053.652.652 0 0 0-.453.388c-.015.031 0 .069.031.083l.002.001a.067.067 0 0 0 .042.003Z" fill="#2E353A"/><path d="M34.035 15.916s-.652-.065-.49-.616c.161-.55-.48-1.095-.355-1.839 0 0-3.712.646-2.68-1.215.41-.629 1.887-.594 2.988-.432 1.447.212 1.109 1.033 1.109 1.033 1.567.326.883 3.557-.572 3.069Z" fill="#2E353A"/><path d="M35.017 15.86c-.171.297-.453.515-.784.606-.44.115-.558-.353-.526-.691.114-.37.482-.878.92-.811.44.065.595.528.39.896Z" fill="#F4CDB8"/><path d="M31.249 16.708s.407-.199 1.604-.448c-.062.429-.262.805-.876.934-.3.097-.62-.096-.715-.43-.004-.019-.01-.037-.013-.056Z" fill="#2E353A"/><path d="M32.198 16.815c-.239.035-.46.153-.63.335.129.059.271.072.405.039.239-.035.46-.152.63-.335a.603.603 0 0 0-.405-.039Z" fill="#D4827D"/><path d="M31.302 16.686c.043.094.13.155.225.158a5.974 5.974 0 0 0 1.041-.324.356.356 0 0 0 .23-.254 9.172 9.172 0 0 0-1.496.42Z" fill="#FAFAFA"/><path d="m43.58 15.728.351-1.946.242-1.215a.614.614 0 0 0-.459-.717l-.28-.067a.618.618 0 0 0-.428.053l-.198.104a.615.615 0 0 0-.328.572l.029.637a.59.59 0 0 0 .046.207l.288.7-.403 1.379 1.14.293Z" fill="#F4CDB8"/><path d="M35.596 20.017a.702.702 0 0 1 .247-.541c.63-.532 4.343.623 5.008-.39 1.29-1.965 1.685-4.721 1.685-4.721l1.429.357s-.206 4.4-1.294 6.287c-.893 1.55-6.306 1.261-6.523 1.092-.333-.26-.539-.833-.552-2.084Z" fill="#5B5B5B"/><path opacity=".1" d="M-5.701 35.119H13.46c.157 0 .284.127.284.283v5.172a.283.283 0 0 1-.284.283H-5.7a.283.283 0 0 1-.283-.283v-5.172a.282.282 0 0 1 .283-.283Z" fill="#000"/><path d="M14.839 33.96h-21.92" stroke="#407BFF" stroke-width=".151" stroke-miterlimit="10"/><path d="M-2.968 56.22a.468.468 0 0 1-.212-.391v-9.434a.466.466 0 0 1 .479-.478h21.694a.462.462 0 0 1 .407.22.466.466 0 0 1 .07.257v9.434a.47.47 0 0 1-.654.429l-10.67-4.64-10.67 4.64a.464.464 0 0 1-.187.04.46.46 0 0 1-.257-.077Zm.724-9.122v8.017l9.216-4.008-9.216-4.009Zm11.563 4.01 9.216 4.007v-8.017l-9.216 4.01Zm-9.782-4.255 8.609 3.744 8.608-3.744H-.463Z" fill="#2E353A"/><path d="M-2.968 56.22a.468.468 0 0 1-.212-.391v-9.434a.466.466 0 0 1 .479-.478h21.694a.462.462 0 0 1 .407.22.466.466 0 0 1 .07.257v9.434a.47.47 0 0 1-.654.429l-10.67-4.64-10.67 4.64a.464.464 0 0 1-.187.04.46.46 0 0 1-.257-.077Zm.724-9.122v8.017l9.216-4.008-9.216-4.009Zm11.563 4.01 9.216 4.007v-8.017l-9.216 4.01Zm-9.782-4.255 8.609 3.744 8.608-3.744H-.463Z" fill="#fff" opacity=".3"/><path d="M25.535 52.17a.466.466 0 0 0 .226-.877l-13.266.023a.464.464 0 0 0-.225-.058H2.682l-7.627-10.35a.468.468 0 0 0-.753.555l7.767 10.541c.088.12.227.19.376.19h9.704l13.16-.08a.477.477 0 0 0 .226.056Z" fill="#2E353A"/><path d="M26.006 52.238a.466.466 0 0 0 .226-.877l-13.737-.045a.464.464 0 0 0-.226-.058H2.682l-7.627-10.35a.468.468 0 0 0-.753.555l7.767 10.541c.088.12.227.19.376.19h9.704l13.632-.012c.072.037.15.056.226.056Z" fill="#fff" opacity=".6"/><path d="M3.02 49.618a.819.819 0 0 0 .65-1.314l-8.04-10.582a.819.819 0 1 0-1.304.99l8.042 10.583a.818.818 0 0 0 .653.323Z" fill="#fff" opacity=".7"/><path d="M-4.964 32.552a.652.652 0 0 1 .627-.466h18.995c.205 0 .398.096.522.26l9.47 12.461c.125.163.317.26.523.26l21.568-.056a.637.637 0 0 1 .333.647c-.037.304-.284 1.582-.336 1.84a.643.643 0 0 1-.643.526l-41.89-.009a.657.657 0 0 1-.523-.259l-8.867-11.668a.645.645 0 0 1-.132-.463c.004-.039.295-2.884.353-3.073Z" fill="#fff"/><path opacity=".2" d="M-4.964 32.552a.652.652 0 0 1 .627-.466h19.32l9.864 12.98 21.894-.056a.638.638 0 0 1 .333.648c-.037.303-.284 1.58-.336 1.839a.643.643 0 0 1-.643.526H25.244l-11.845-.009H4.203a.657.657 0 0 1-.523-.259l-8.867-11.668a.645.645 0 0 1-.132-.463c.006-.038.297-2.883.355-3.072Z" fill="#AFAFAF"/><path opacity=".2" d="m-4.842 33.14 8.868 11.667c.124.163.317.26.522.26H25.19a.656.656 0 0 1-.522-.26l-9.47-12.462a.655.655 0 0 0-.523-.259H-4.32a.656.656 0 0 0-.522 1.053Z" fill="#ADADAD"/><path opacity=".2" d="M25.907 48.024h20.17a.676.676 0 0 0 .665-.552l.346-1.855a.536.536 0 0 0-.53-.634l-20.95.053a.485.485 0 0 0-.483.533l.189 1.917c.03.306.287.538.593.538Z" fill="#fff"/><path d="M14.987 31.81c-1.129-1.37-2.262-2.748-3.148-4.288-.172-.3-.34-.627-.3-.984.038-.356.16-.611.526-.611 1.92.003 4.247 4.142 4.75 4.597 0 .001-1.059 1.12-1.828 1.287Z" fill="#898989"/><path d="M13.22 34.907H6.08L6.3 33.67l.034-.198.05-.281.05-.287c.013-.152.023-.303.032-.453v-.002c.012-.179.017-.354.022-.529l.002-.106c.01-.483-.003-.95-.03-1.393l-.01-.162a20.81 20.81 0 0 0-.059-.667v-.003c-.013-.13-.028-.257-.042-.381v-.002l-.035-.255v-.002l-.004-.035-.008-.052a19.779 19.779 0 0 0-.231-1.314v-.002c-.12-.575-.22-.918-.217-.94.028-.279.233-.491.52-.653l.01-.005a3.39 3.39 0 0 1 .816-.308c.002 0 .005 0 .006-.002l.115-.027h.002c.668-.155 1.31-.182 1.31-.182l.214.005h.002l.158.008.035.002c.054.002.11.003.163.006a19.973 19.973 0 0 1 1.846.156l.092.012c.106.014.276.084.503.163.002 0 .005 0 .006.002.002 0 0 .002.003.002l.013.004c.14.048.304.098.488.14h.003c.102.025.21.044.323.06h.003c.006.002.015.002.02.003.005 0 .011.003.016.008.002 0 .003 0 .004.002.056.044.148.24.248.528.18.52.39 1.336.484 2.064v.002a5.176 5.176 0 0 1 .027.253c.008.065.012.13.014.195a.378.378 0 0 1 .004.056l.004.09v.003c.004.18-.003.343-.028.484a1.218 1.218 0 0 1-.028.134c-.043.124-.082.232-.116.325v.002c0 .005-.002.008-.004.012l-.095.269c-.002.002-.004.005-.004.008-.017.046-.031.088-.045.122v.002l-.069.192a9 9 0 0 1 .407 1.463c.043.217.07.422.089.617.015.152.025.296.027.433.027.753-.098 1.303-.22 1.651Z" fill="#898989"/><path d="M46.916 44.955h-21.46c-.887 0-1.653.625-1.828 1.495-.311 1.551-.964 3.852-2.185 4.611-1.9 1.184-1.877 2.788-2.635 2.788-.757 0-15.022-3.096-16.593-3.446-1.571-.35.007-5.541.007-5.541s-.2-5.902 1.545-8.315c1.744-2.41 9.023-3.77 10.273-3.463 1.249.306 2.81 1.875 2.796 2.319-.011.443-.188.489-.188.489s2.062.524 2.894.611c.834.088 4.769-.45 5.695-.224.926.224 11.206 5.54 11.206 5.54s1.69-1.08 2.656-.742c.965.337 1.844.166 2.521.229.68.063 2.588 2.572 3.003 2.652 1.93.363 2.293.997 2.293.997Z" fill="#545556"/><path opacity=".2" d="M44.806 43.96s-1.008.086-1.71-.24c-.7-.327-2.016.107-3.2.24-1.185.131-11.095-.089-13.856-.24-2.763-.151-2.633.283-3.197.897-.566.614-1.409 4.561-2.32 4.946-.913.386-2.728 2.552-2.78 2.64-.053.088-7.489-1.535-8.385-1.842-.895-.307-6.209-.57-6.212-1.623-.004-1.052.925-3.2.669-3.782-.257-.582.826-7.31 1.704-7.805.876-.492 7.803-3.19 8.354-3.146.55.043 1.467.394 1.988.736.52.341.97 1.15.97 1.15s2.062.525 2.895.612c.833.088 4.768-.45 5.694-.224.927.224 11.206 5.54 11.206 5.54s1.691-1.08 2.656-.742c.966.337 1.844.166 2.522.229.68.064 2.586 2.573 3.002 2.653Z" fill="#909293"/><path opacity=".2" d="M16.49 36.01s-1.35-1.918-3.407-.865c-1.174.6-5.004 2.763-5.148 3.463-.144.702-.192.132 1.455 0 1.646-.131 2.786-4.166 6.288-2.31.763.405 2.418.184 2.418.184l-1.605-.472ZM36.443 41.821s-2.966 1.176-3.98.953c-4.466-.985-11.838 1.103-10.546.52 5.964-2.692 2.021-4.709 7.271-2.764 2.318.858 2.671 1.774 4.78 1.147 1.557-.461 2.475.144 2.475.144ZM24.217 36.584c-.942 1.811-7.273 1.958-9.725 4.436.443-.914 2.304-3.001 4.347-3.132-.345-.4-2.53 0-4.347-.287 5.633-.936 8.029-1.39 9.725-1.017ZM6.464 32.451s.14.586.36.864c.075.095.61.629 1.137.824.263-.093.208-.063.455-.146.966.317 2.17.628 3.014.696a.56.56 0 0 0 .314-.12s1.25.193 1.514.174c.263-.017 1.006-.321 1.133-.362.126-.042.234-.21.203-.292l-.064-.17-.107-.078-3.082.291-4.855-3.04c.007.467 0 .92-.022 1.359ZM12.966 27.157c.14.399.339.965.492 1.026.292-.246.526-.377.823-.357l.891.75c.027.122.06.242 0 .38l.473.537c.361.165.347 1.059-.104 1l-.705.55-2.361.05-1.678.597-2.434-.082-.194-2.536.612 2.106c.7-.346 1.552.218 1.704 0 .101-.144 1.01-.698 1.47-.857.461-.16.604-.898.604-.898.09-.387.334-1.229.614-1.415-.055-.219-.081-.289-.207-.85Z" fill="#000"/><path d="M8.925 33.024c-.573-.363-.956-.857-.481-1.544.395-.569 1.264-.378 1.721-.225a.461.461 0 0 0 .48-.125c.205-.22.592-.535 1.203-.658a.695.695 0 0 0 .44-.284c.385-.567 1.424-1.899 2.432-1.414 1.27.61.774 2.681-1.079 3.88-1.852 1.198-3.76.976-4.716.37Z" fill="#D1D2D3"/><path opacity=".2" d="M10.677 31.368c.307.08.842.246 1.267.514.056.035.131-.025.108-.087-.11-.292-.435-.781-1.363-.56-.072.017-.08.115-.012.133ZM12.357 30.376c.12.032.309.087.534.17.068.025.138-.048.107-.111-.068-.14-.234-.293-.639-.148-.044.016-.046.078-.002.09ZM13.011 33.005c-1.645.795-3.245.559-4.095.02-.573-.363-.956-.856-.48-1.544a.813.813 0 0 1 .167-.18c.431.395 1.623 2.61 4.409 1.704Z" fill="#000"/><path d="M15.171 28.701c.026-.5-.372-.893-.89-.876-.526.015-.942.49-1.182.984a1.982 1.982 0 0 0-.09.094c-.466.522-.2 1.247.485 1.357l.055.01h.004c.177.027.374.005.575-.083.464-.202.59-.465.922-1.074a.954.954 0 0 0 .121-.412Z" fill="#F4CDB8"/><path d="M14.096 28.747c.004.002.009.002.014.002a.03.03 0 0 0 .02-.031.234.234 0 0 0-.145-.177.028.028 0 0 0-.035.017.024.024 0 0 0 .015.033c.06.025.102.077.113.141.003.008.01.014.018.015ZM13.297 28.437a.03.03 0 0 0 .025-.006.233.233 0 0 1 .187-.055.028.028 0 0 0 .034-.018.024.024 0 0 0-.016-.032.288.288 0 0 0-.24.068c-.011.01-.013.025-.004.036a.026.026 0 0 0 .014.007Z" fill="#2E353A"/><path opacity=".2" d="M13.076 28.928c.082.013.13.088.11.169a.166.166 0 0 1-.185.12.133.133 0 0 1-.11-.168.167.167 0 0 1 .185-.121ZM13.646 29.17c.082.014.13.089.11.17a.166.166 0 0 1-.185.12.133.133 0 0 1-.11-.168.168.168 0 0 1 .185-.121Z" fill="#BA4D3C"/><path d="M13.374 28.793c-.034.045-.087.066-.116.044-.03-.02-.027-.074.007-.12.034-.045.087-.065.117-.044.03.021.027.075-.008.12Z" fill="#2E353A"/><path d="m13.393 28.685-.086-.11c0 .001-.008.126.086.11ZM13.815 28.995c-.033.045-.086.065-.116.044-.03-.021-.027-.075.008-.12.033-.045.086-.065.116-.044.03.021.027.074-.008.12Z" fill="#2E353A"/><path d="m13.834 28.887-.086-.11c-.001 0-.008.125.086.11Z" fill="#2E353A"/><path d="M12.86 30.264c.619-.36 1.761-.943 2.48-.793.124.026.21.127.229.249.016.11.022.26-.013.44a.37.37 0 0 1-.435.29c-.402-.085-1.17-.181-2.206-.013-.106.017-.148-.117-.054-.173Z" fill="#C6C6C6"/><path opacity=".2" d="M10.16 32.781c.373-.239.794-.41 1.378-.53.508.088.986.052 1.271.142.467-.045 1.485-1.056 2.503-1.763l-2.537 2.312-2.822.118.207-.279Z" fill="#000"/><path d="M9.036 25.41c-.587.034-.6.388-.559.77.09.802 1.082 1.23 1.905 1.219 1.589-.02 1.524-1.504 1.271-1.615-.876-.386-1.726-.424-2.617-.373Z" fill="#F4CDB8"/><path d="M10.734 27.287c-.3.19-.486.07-.757-.115-1.639-1.013-.842-1.779-.842-1.779.465-.333.622-.811.71-1.571a.539.539 0 0 1 .18-.319c.218-.191.539-.187.719.008l.758.39h.001l-.01.036c-.116.402-.218.712-.287.957l-.025.09-.001.003-.023.092c-.08.34-.06.534.14.696.128.105.45.871-.563 1.512Z" fill="#F4CDB8"/><path opacity=".2" d="m11.505 23.898-.001.003a.09.09 0 0 0-.01.037c-.116.402-.218.712-.287.957a.758.758 0 0 0-.025.09v.003a.69.69 0 0 0-.016.095c-.002 0-.044.226-.046.225-.573-.29-1.002-.916-1.272-1.486-.001-.001.013-.068.012-.07a.546.546 0 0 1 .164-.254c.218-.191.54-.188.72.007l.76.393Z" fill="#000"/><path d="M12.435 19.933c1.38.506 1.552 1.407 1.131 2.865-.526 1.822-1.382 2.94-2.967 1.928-2.153-1.375-.454-5.634 1.836-4.793Z" fill="#F4CDB8"/><path d="M12.237 21.014s-.368-.193-.675-.012M13.26 21.324s.277-.001.509.315" stroke="#2E353A" stroke-width=".081" stroke-miterlimit="10" stroke-linecap="round" stroke-linejoin="round"/><path d="M10.075 21.704s1.06-.897 1.284-1.807c0 0 3.143-.113 2.26 2.71 0 0 1.17-2.365-1.18-3.29-2.348-.923-3.614 2.547-2.77 4.03.002 0-.253-1.08.406-1.643Z" fill="#2E353A"/><path d="M10.193 22.077c.072-.225-.019-.685-.448-.792-.444-.11-.97.692.015 1.293.142.088.283-.03.433-.5Z" fill="#F4CDB8"/><path d="M12.369 20.027s-1.48 2.26-2.807 1.512c-1.52-.858.662-2.815 1.84-2.617 0 0 2.655-.024 3.351 1.637.696 1.66-1.135 2.05-1.135 2.05s.734-1.727-1.25-2.582Z" fill="#2E353A"/><path d="M10.685 21.645a.045.045 0 0 1-.045-.04.046.046 0 0 1 .041-.05c1.283-.125 1.686-1.69 1.69-1.707a.046.046 0 0 1 .056-.033c.025.005.04.03.034.055-.004.017-.423 1.645-1.77 1.774l-.006.001Z" fill="#2E353A"/><path d="M11.73 23.18a.7.7 0 0 0 .298.474" stroke="#2E353A" stroke-width=".044" stroke-miterlimit="10" stroke-linecap="round" stroke-linejoin="round"/><path d="M11.731 21.931c-.041.119-.013.238.062.267.076.028.17-.044.212-.162.04-.118.013-.237-.063-.266-.076-.029-.17.044-.211.162Z" fill="#2E353A"/><path d="m11.907 21.763.306.024c.001 0-.218.168-.306-.024ZM12.99 22.444c-.042.118-.014.237.062.266.076.029.17-.043.211-.161.042-.118.014-.237-.062-.266-.075-.03-.17.043-.211.161Z" fill="#2E353A"/><path d="m13.165 22.276.306.024c.001 0-.219.167-.306-.024ZM8.905 18.385c-.328.456-.278 1.051.111 1.33.389.28.97.137 1.297-.319.327-.456.277-1.051-.111-1.33-.39-.28-.97-.137-1.297.32Z" fill="#2E353A"/><path d="M10.345 19.214s.332-.16.301-.7c-.03-.539-.562-.59-.562-.59s.447.11.474.598c.027.489-.213.692-.213.692Z" fill="#2E353A"/><path d="M8.447 18.955s.035-.476.723-.866c.69-.39 1.017.133 1.017.133s-.36-.388-.982-.034c-.622.355-.758.767-.758.767Z" fill="#2E353A"/><path d="M16.171 30.241c-1.431.363-2.143 1.896-3.545 2.383.043.227.037.636.2.797 2.01-.316 3.2-1.041 3.854-1.622.534-.474.362-.877.236-1.12-.127-.241-.459-.51-.745-.438Z" fill="#898989"/><path d="M12.597 32.542c-.296-.052-1.107-.238-1.107-.238l-1.015.313a.535.535 0 0 0-.372.42l-.056.363a.43.43 0 0 0 .386.5l.813.094 1.577-.551s.604-.756-.226-.9Z" fill="#F4CDB8"/><path opacity=".2" d="M10.223 32.781c.544.31 1.123.647 1.544.773 0 0 .977-.478 1.239-.447.26.03.689.142.689.142l-2.155.51-1.383-.886.066-.092Z" fill="#000"/><path d="M8.783 32.68c-.36-1.28-.615-3.523-.737-4.78-.067-.678-.427-1.287-.97-1.63l-.006-.003c-.809-.353-1.088-.136-1.223.315-.308 1.034.514 4.789.807 5.759.185.614.781.96 1.356.782.296-.091.587-.23.773-.442Z" fill="#898989"/><path d="M7.707 31.622c1.59.214 2.664 1.64 4.214 2-.061.265-.01.919-.402.949 0 0-3.467-.526-4.58-1.71-.211-.224-.094-.636.06-.93.156-.293.39-.353.708-.31Z" fill="#898989"/><path d="M11.849 33.56c.175-.07.533-.228.79-.343a.94.94 0 0 1 .598-.06l.94.225a.251.251 0 0 1 .19.191l.101.465c.031.142-.06.292-.208.342l-.78.26a.945.945 0 0 1-.415.042l-1.388-.178c-.001 0-.643-.62.172-.943Z" fill="#F4CDB8"/><path d="M24.806 44.99V57.73c0 .506.288.915.64.915h20.636c.354 0 .642-.409.642-.915V44.99c0-.505-.288-.914-.642-.914H25.447c-.353-.001-.641.408-.641.914Zm17.549 1.102c0-.464.264-.842.59-.842h2.093c.164 0 .31.095.417.247.107.153.174.364.174.596 0 .467-.264.843-.591.843h-2.092c-.163 0-.311-.093-.418-.247a1.037 1.037 0 0 1-.173-.596Zm-16.454 0c0-.464.264-.842.59-.842h2.092c.164 0 .311.095.418.247.106.153.174.364.174.596 0 .467-.265.843-.592.843h-2.092c-.164 0-.31-.093-.418-.247a1.066 1.066 0 0 1-.172-.596Z" fill="#6B6B6B"/><path opacity=".6" d="M24.806 57.731c0 .506.288.915.64.915h20.636c.354 0 .642-.409.642-.915V44.99c0-.505-.288-.914-.642-.914H25.447c-.353 0-.641.408-.641.914m17.549 1.104c0-.465.264-.843.59-.843h2.093c.164 0 .31.095.417.247.107.153.174.364.174.596 0 .467-.264.843-.591.843h-2.092c-.163 0-.311-.093-.418-.247a1.037 1.037 0 0 1-.173-.596Zm-16.454 0c0-.465.264-.843.59-.843h2.092c.164 0 .311.095.418.247.106.153.174.364.174.596 0 .467-.265.843-.592.843h-2.092c-.164 0-.31-.093-.418-.247a1.066 1.066 0 0 1-.172-.596Z" fill="#6D6D6D"/><path d="M25.15 44.99V57.73c0 .506.287.915.64.915h20.637c.354 0 .642-.409.642-.915V44.99c0-.505-.288-.914-.642-.914H25.792c-.355-.001-.643.408-.643.914Zm17.55 1.102c0-.464.263-.842.59-.842h2.092c.165 0 .311.095.418.247.107.153.173.364.173.596 0 .467-.264.843-.592.843H43.29c-.164 0-.312-.093-.418-.247a1.045 1.045 0 0 1-.173-.596Zm-16.454 0c0-.464.264-.842.59-.842h2.092c.163 0 .311.095.418.247.106.153.173.364.173.596 0 .467-.265.843-.591.843h-2.093c-.163 0-.31-.093-.417-.247a1.059 1.059 0 0 1-.172-.596Z" fill="#353535"/><path opacity=".2" d="m30.384 21.263-1.268 3.741-.282-4.1 1.55.36Z" fill="#000"/><path d="m23.007 15.691-.35-1.946-.243-1.214a.614.614 0 0 1 .46-.717l.28-.067a.618.618 0 0 1 .428.052l.197.104c.212.11.34.334.329.572l-.03.638a.592.592 0 0 1-.045.206l-.288.7.402 1.38-1.14.292Z" fill="#F4CDB8"/><path d="M30.992 19.98a.701.701 0 0 0-.247-.541c-.63-.532-4.343.623-5.008-.389-1.29-1.966-1.685-4.722-1.685-4.722l-1.429.357s.206 4.4 1.294 6.287c.893 1.55 6.306 1.262 6.523 1.093.333-.262.539-.834.552-2.085Z" fill="#5B5B5B"/><path opacity=".4" d="M28.59 18.455c0-.022-.01-.074-.01-.09ZM30.69 15.285c.002.004.035.105.055.116.015.008.03.018.04.05.01.023.011.025.014.039.007.027.001.11.016.144.014.033.02.056.013.069-.007.012-.078.086-.092.122-.015.035-.082.154-.073.195.009.04.053.234.067.266.014.033.058.092.061.118a.325.325 0 0 0 .028.09c.007.006.012.008.019.007.006 0 .01-.006.006-.01-.002-.002-.016-.005-.022-.018-.005-.014-.005-.067-.01-.08-.007-.021-.07-.102-.072-.116-.003-.015-.059-.259-.06-.27a1.148 1.148 0 0 1 .072-.176c.01-.015.098-.108.104-.127.006-.02-.017-.077-.02-.087-.002-.007-.01-.104-.026-.176a.078.078 0 0 1 .022-.054.248.248 0 0 0 .032-.047c-.002-.013-.063-.013-.093-.022-.02-.008-.081-.04-.08-.033Z" fill="#fff"/><path d="M31.606 16.302c0-.008-.106 0-.275.022-.042.006-.084.009-.097-.015-.017-.023-.009-.065 0-.11l.055-.3c.074-.426.119-.771.1-.773-.02-.001-.097.342-.17.767l-.05.3c-.006.044-.022.095.013.143.018.024.054.036.082.036.028 0 .051-.005.073-.009.168-.03.27-.052.27-.061ZM12.123 23.208a.781.781 0 0 1 .192.05c.029.012.059.018.072 0 .016-.016.018-.052.02-.09.005-.08.01-.163.017-.25.026-.356.06-.643.074-.642.014 0 .004.29-.023.645l-.02.25c-.004.037-.003.081-.036.117a.077.077 0 0 1-.066.019.85.85 0 0 1-.23-.099Z" fill="#2E353A"/><path opacity=".4" d="M32.014 15.25s-.067.006-.067.015c0 .003.031.029.031.032 0 .004.056.031.056.038v.13c0 .049-.02.108-.018.133.001.025.024.122.018.154-.007.031-.005.259-.023.29-.019.03-.028.163.012.13.04-.032.013-.17.027-.198.014-.027.012-.2.012-.236 0-.035-.019-.12-.019-.147 0-.026.016-.11.016-.136v-.095c0-.002.036-.023.042-.036.008-.02.074-.127.074-.131 0-.013-.118.046-.118.046l-.043.01Z" fill="#fff"/><path opacity=".6" d="M5.846 26.581c-.308 1.034.514 4.79.807 5.76Z" fill="#898989"/><path d="M13.392 29.17a.662.662 0 0 0-.09-.036c-.014-.005-.026-.01-.027-.018-.002-.008.006-.017.016-.026.02-.02.038-.04.06-.06.083-.088.145-.16.14-.164a1.08 1.08 0 0 0-.162.152l-.058.061c-.008.01-.02.02-.016.036.002.009.011.016.02.02.008.005.017.007.024.009.056.019.092.028.093.027Z" fill="#2E353A"/><path d="M13.285 29.365c.008.004.018.008.025.016a.046.046 0 0 1 .01.025c.004.04-.018.076-.053.086-.034.01-.08-.005-.11-.036a.129.129 0 0 1-.025-.147c.046.018.105.037.153.056Z" fill="#fff"/><path opacity=".7" d="M25.15 44.99V57.73c0 .506.287.915.64.915h20.637c.354 0 .642-.409.642-.915V44.99c0-.505-.288-.914-.642-.914H25.792c-.355-.001-.643.408-.643.914Zm17.55 1.102c0-.464.263-.842.59-.842h2.092c.165 0 .311.095.418.247.107.153.173.364.173.596 0 .467-.264.843-.592.843H43.29c-.164 0-.312-.093-.418-.247a1.045 1.045 0 0 1-.173-.596Zm-16.454 0c0-.464.264-.842.59-.842h2.092c.163 0 .311.095.418.247.106.153.173.364.173.596 0 .467-.265.843-.591.843h-2.093c-.163 0-.31-.093-.417-.247a1.059 1.059 0 0 1-.172-.596Z" fill="#A8A8A8"/><path opacity=".56" d="M20.31 18.602c-.776.049-.948.665-.95.672-.006-.005-.502-.407-1.163 0-.665.412-.14 1.288-.086 1.388.155.286.92.88 2.03 1.068.797-.794 1.068-1.747 1.04-2.045-.01-.113-.092-1.132-.872-1.083Z" fill="#A8A8A8"/><path opacity=".56" d="M35.376 22.595c-.408.026-.498.349-.5.353-.002-.002-.263-.214-.611 0-.35.216-.073.677-.045.73.081.15.484.462 1.067.561.42-.418.562-.919.547-1.075-.005-.06-.048-.595-.458-.57Z" fill="#3F3F3F"/><path opacity=".56" d="M35.47 22.41c-.5.032-.61.428-.612.433-.004-.003-.324-.262-.749.001-.428.264-.09.829-.055.893.1.184.594.567 1.308.687.514-.511.687-1.124.67-1.317-.008-.073-.06-.729-.563-.697Z" fill="#3F3F3F"/><path opacity=".56" d="M35.62 22.104c-.649.041-.793.557-.795.563-.004-.004-.42-.341-.973 0-.556.344-.116 1.078-.071 1.161.13.24.77.736 1.7.893.666-.664.892-1.461.869-1.712-.009-.094-.077-.946-.73-.905Z" fill="#3F3F3F"/></g></g><defs><clipPath id="a"><rect width="48" height="48" rx="24" fill="#fff"/></clipPath><clipPath id="b"><path fill="#fff" d="M0 0h48v48H0z"/></clipPath></defs></svg>