<svg width="48" height="48" viewBox="0 0 48 48" fill="none" xmlns="http://www.w3.org/2000/svg">
<g clip-path="url(#clip0_1146_49388)">
<rect width="48" height="48" rx="24" fill="white"/>
<g clip-path="url(#clip1_1146_49388)">
<path opacity="0.7" d="M37.3565 11.8733C35.761 10.2202 33.9341 8.84544 31.9911 7.88352C29.0333 6.4176 25.7741 5.71104 22.5159 5.6688C12.9927 5.54592 12.2679 17.4019 9.33894 19.0502C6.41094 20.6986 1.10406 20.8925 0.920697 27.4867C0.805497 31.6339 1.71942 35.8982 4.28838 39.1296C6.64134 42.0893 10.0983 43.5888 13.5034 44.6976C17.3281 45.9418 21.3841 47.1629 25.4065 46.3229C29.5345 45.4618 32.4356 41.9971 35.8253 39.6566C37.9604 38.183 39.8756 36.6307 41.1937 34.2653C41.3511 33.983 41.4989 33.6941 41.6391 33.4013C43.4036 29.7264 43.7492 25.487 42.7767 21.5107C41.905 17.9424 39.9332 14.544 37.3565 11.8733Z" fill="#EFEFEF"/>
<g opacity="0.97">
<path d="M41.5449 21.0309C35.542 20.9733 30.1103 20.9205 26.1724 20.883C24.2082 20.8734 22.6175 20.8658 21.5135 20.861C20.9663 20.8619 20.541 20.8629 20.2473 20.8638C20.1052 20.8658 19.9957 20.8677 19.918 20.8686C19.8441 20.8706 19.8057 20.8725 19.8057 20.8744C19.8057 20.8763 19.8441 20.8792 19.918 20.8821C19.9967 20.884 20.1052 20.8869 20.2473 20.8898C20.541 20.8936 20.9673 20.8984 21.5135 20.9061C22.6175 20.9118 24.2082 20.9205 26.1724 20.931C30.1103 20.9339 35.5429 20.9368 41.5458 20.9406C47.5458 20.9397 52.9794 20.9483 56.9125 20.9771C58.8796 20.9915 60.4713 21.0098 61.5705 21.0309C62.1205 21.0414 62.5477 21.053 62.8367 21.0635C63.1266 21.075 63.2783 21.0866 63.2783 21.0971C63.2783 21.1077 63.1257 21.1173 62.8367 21.1259C62.5468 21.1346 62.1196 21.1413 61.5695 21.1461C60.4693 21.1557 58.8777 21.1586 56.9106 21.1528C52.9785 21.1413 47.5449 21.0933 41.5449 21.0309Z" fill="#EBEBEB"/>
<path d="M41.4219 22.3858C35.5016 21.3951 30.1429 20.4994 26.2597 19.8495C24.3205 19.5346 22.7509 19.2802 21.6613 19.1036C21.1208 19.02 20.7003 18.9548 20.4094 18.9096C20.2693 18.8895 20.1608 18.8741 20.083 18.8636C20.0091 18.854 19.9717 18.8501 19.9707 18.852C19.9707 18.854 20.0072 18.8626 20.0801 18.877C20.1569 18.8914 20.2645 18.9106 20.4046 18.9365C20.6945 18.9855 21.1141 19.0575 21.6536 19.1496C22.7432 19.3272 24.3128 19.5826 26.252 19.8984C30.1419 20.5128 35.5073 21.3596 41.4373 22.2956C47.3643 23.2268 52.7307 24.0783 56.612 24.7186C58.5521 25.0383 60.1217 25.3042 61.2056 25.4962C61.747 25.5922 62.1675 25.67 62.4517 25.7256C62.7358 25.7823 62.8846 25.8168 62.8827 25.8274C62.8808 25.838 62.7291 25.8245 62.4421 25.788C62.155 25.7516 61.7317 25.692 61.1873 25.6114C60.0987 25.4501 58.5262 25.2053 56.5841 24.8943C52.6981 24.2722 47.3384 23.3804 41.4219 22.3858Z" fill="#EBEBEB"/>
<path d="M41.0944 23.7046C35.4035 21.7942 30.254 20.0653 26.5206 18.8115C24.6553 18.1952 23.1452 17.6969 22.0969 17.3504C21.5766 17.1824 21.1705 17.0528 20.8912 16.9625C20.7558 16.9203 20.6512 16.8886 20.5763 16.8656C20.5052 16.8445 20.4678 16.8349 20.4678 16.8368C20.4668 16.8387 20.5024 16.8531 20.5724 16.879C20.6464 16.9049 20.7491 16.9414 20.8835 16.9885C21.1619 17.0825 21.5651 17.2198 22.0825 17.3955C23.1308 17.7421 24.64 18.2422 26.5052 18.8595C30.2492 20.0787 35.415 21.7597 41.1241 23.6173C46.8313 25.4701 51.9961 27.1558 55.7286 28.399C57.5948 29.0201 59.103 29.5299 60.1417 29.8909C60.6611 30.0713 61.0643 30.2134 61.336 30.3142C61.6076 30.415 61.7487 30.4726 61.7449 30.4832C61.7411 30.4937 61.5932 30.4563 61.3158 30.3747C61.0374 30.2931 60.6294 30.1683 60.1043 30.0032C59.055 29.6729 57.5401 29.1833 55.672 28.5699C51.9337 27.344 46.7814 25.6189 41.0944 23.7046Z" fill="#EBEBEB"/>
<path d="M40.5618 24.9545C35.2424 22.1724 30.428 19.6553 26.9394 17.8303C25.1941 16.9289 23.7819 16.1983 22.8008 15.6914C22.3131 15.4438 21.933 15.2508 21.6709 15.1183C21.5432 15.0559 21.4453 15.007 21.3752 14.9724C21.308 14.9407 21.2734 14.9254 21.2725 14.9273C21.2715 14.9292 21.3042 14.9494 21.3694 14.9849C21.4386 15.0223 21.5346 15.0742 21.6594 15.1423C21.9195 15.2796 22.2958 15.4774 22.7797 15.7327C23.7598 16.2406 25.172 16.9711 26.9173 17.8745C30.4232 19.6678 35.2597 22.1407 40.604 24.8748C45.9483 27.6031 50.7838 30.0809 54.2734 31.8953C56.0187 32.8025 57.427 33.5426 58.3976 34.062C58.8824 34.3212 59.2578 34.5257 59.5102 34.6678C59.7627 34.8098 59.8933 34.8886 59.8885 34.8982C59.8837 34.9078 59.7435 34.8473 59.4814 34.7234C59.2194 34.5996 58.8363 34.4105 58.3438 34.1657C57.3598 33.6742 55.941 32.9522 54.1918 32.0527C50.6926 30.2527 45.8763 27.7385 40.5618 24.9545Z" fill="#EBEBEB"/>
<path d="M39.838 26.1045C35.0188 22.5256 30.6575 19.2866 27.4963 16.9384C25.9132 15.7749 24.6326 14.8332 23.7427 14.1794C23.2991 13.8588 22.9545 13.6092 22.7164 13.4364C22.6003 13.3548 22.511 13.2914 22.4476 13.2463C22.3862 13.204 22.3545 13.1839 22.3535 13.1858C22.3526 13.1877 22.3814 13.2117 22.4399 13.2578C22.5023 13.3058 22.5887 13.372 22.7011 13.4584C22.9363 13.6341 23.2771 13.8895 23.7158 14.2168C24.6047 14.8716 25.8854 15.8143 27.4675 16.9788C30.6499 19.2981 35.0409 22.4968 39.8918 26.0325C44.7436 29.5624 49.1327 32.766 52.2959 35.1036C53.878 36.2719 55.1539 37.2242 56.0303 37.8885C56.4691 38.2207 56.807 38.4808 57.0345 38.6604C57.262 38.8399 57.3782 38.9388 57.3715 38.9474C57.3647 38.956 57.2361 38.8744 56.9971 38.7112C56.758 38.548 56.4086 38.3023 55.9612 37.9826C55.0655 37.3432 53.7772 36.4092 52.1903 35.2466C49.0175 32.9215 44.6524 29.6853 39.838 26.1045Z" fill="#EBEBEB"/>
<path d="M38.9438 27.1281C34.74 22.8427 30.9355 18.9653 28.1774 16.1544C26.795 14.7585 25.6757 13.6296 24.899 12.8443C24.5112 12.4584 24.2097 12.1579 24.0014 11.9505C23.8997 11.8517 23.8209 11.7758 23.7653 11.7211C23.7115 11.6702 23.6827 11.6443 23.6817 11.6462C23.6798 11.6481 23.7048 11.6769 23.7557 11.7307C23.8094 11.7873 23.8853 11.8661 23.9832 11.9688C24.1886 12.179 24.4853 12.4843 24.8673 12.876C25.644 13.6613 26.7624 14.7912 28.1438 16.188C30.9269 18.9739 34.7659 22.8168 39.0091 27.0638C43.2533 31.3051 47.0904 35.1528 49.8513 37.9541C51.2318 39.3547 52.3445 40.4933 53.1077 41.2862C53.4888 41.6827 53.7835 41.9928 53.9803 42.2049C54.1771 42.4181 54.2769 42.5333 54.2683 42.5409C54.2606 42.5486 54.1464 42.4478 53.9352 42.2491C53.724 42.0504 53.4177 41.7528 53.0251 41.3678C52.2398 40.5969 51.1128 39.4737 49.7256 38.0789C46.9502 35.2901 43.1419 31.4145 38.9438 27.1281Z" fill="#EBEBEB"/>
<path d="M37.9036 28.0005C34.4169 23.1131 31.2623 18.6914 28.9756 15.485C27.8275 13.8914 26.8972 12.6011 26.2511 11.7054C25.9276 11.2638 25.6761 10.9202 25.5033 10.683C25.4179 10.5698 25.3526 10.4824 25.3055 10.419C25.2604 10.3605 25.2364 10.3307 25.2345 10.3317C25.2326 10.3326 25.2527 10.3653 25.294 10.4267C25.3382 10.491 25.4006 10.5813 25.4812 10.6974C25.6511 10.9374 25.8969 11.285 26.2137 11.7314C26.8588 12.628 27.7881 13.9182 28.9353 15.5128C31.2508 18.6971 34.4457 23.091 37.9766 27.9458C41.5094 32.7957 44.7014 37.1925 46.9929 40.3893C48.1391 41.9877 49.0607 43.2856 49.6905 44.187C50.0054 44.6382 50.2483 44.9896 50.4095 45.2306C50.5708 45.4715 50.6515 45.6011 50.6419 45.6078C50.6332 45.6146 50.5353 45.4974 50.3577 45.268C50.1801 45.0386 49.9238 44.6978 49.5955 44.2562C48.9398 43.373 48.0009 42.0875 46.8479 40.4939C44.543 37.3077 41.3846 32.8878 37.9036 28.0005Z" fill="#EBEBEB"/>
<path d="M36.7421 28.6992C34.0628 23.3271 31.6388 18.4656 29.881 14.9415C28.9959 13.1875 28.2788 11.7687 27.7815 10.7827C27.5309 10.296 27.337 9.91778 27.2026 9.65666C27.1364 9.5309 27.0855 9.4349 27.049 9.36578C27.0135 9.3005 26.9943 9.26786 26.9924 9.26882C26.9904 9.26978 27.0048 9.3053 27.0365 9.3725C27.0701 9.44354 27.1181 9.54146 27.1796 9.66914C27.3101 9.93218 27.4983 10.3143 27.7412 10.8048C28.2384 11.7907 28.9536 13.2106 29.8378 14.9655C31.6272 18.4733 34.0964 23.3117 36.8247 28.6599C39.5559 34.0023 42.0212 38.8445 43.7847 42.36C44.6669 44.1178 45.3744 45.5434 45.8554 46.5331C46.0964 47.0275 46.2807 47.4135 46.4016 47.6765C46.5236 47.9395 46.5821 48.0797 46.5725 48.0855C46.5629 48.0903 46.4842 47.9597 46.345 47.7053C46.2058 47.4509 46.0052 47.0736 45.7508 46.5869C45.241 45.6115 44.5152 44.1955 43.6253 42.4416C41.8445 38.9309 39.4157 34.0704 36.7421 28.6992Z" fill="#EBEBEB"/>
<path d="M35.4796 29.2072C33.6796 23.4808 32.0496 18.2977 30.8688 14.5413C30.2707 12.6702 29.7859 11.1553 29.4489 10.1041C29.278 9.58478 29.1456 9.17966 29.0544 8.9003C29.0083 8.7659 28.9728 8.66222 28.9478 8.5883C28.9228 8.51822 28.9094 8.4827 28.9065 8.48366C28.9046 8.48462 28.9132 8.5211 28.9344 8.5931C28.9564 8.66798 28.9881 8.77262 29.0284 8.90894C29.1158 9.18926 29.2416 9.5963 29.4048 10.1185C29.7408 11.1707 30.2236 12.6856 30.8208 14.5566C32.0361 18.3016 33.7132 23.4693 35.566 29.1793C37.4227 34.8846 39.096 40.0542 40.2844 43.804C40.8787 45.6789 41.3529 47.1985 41.6726 48.2507C41.8329 48.7768 41.9539 49.1867 42.0326 49.4651C42.1113 49.7445 42.1468 49.8923 42.1363 49.8952C42.1257 49.8981 42.0691 49.7569 41.9721 49.4843C41.8742 49.2117 41.736 48.8075 41.5612 48.2862C41.2118 47.2427 40.7164 45.7297 40.1145 43.8577C38.9088 40.1137 37.2748 34.9317 35.4796 29.2072Z" fill="#EBEBEB"/>
<path d="M34.1538 29.5096C33.2764 23.5711 32.4834 18.197 31.9074 14.3013C31.6108 12.3592 31.3708 10.7877 31.2037 9.69617C31.1173 9.15569 31.0501 8.73617 31.0031 8.44529C30.9791 8.30513 30.9609 8.19761 30.9474 8.12081C30.934 8.04785 30.9263 8.01041 30.9234 8.01137C30.9215 8.01137 30.9244 8.04977 30.933 8.12369C30.9436 8.20145 30.958 8.30993 30.9762 8.45009C31.0185 8.74097 31.0789 9.16241 31.1577 9.70385C31.3237 10.7954 31.5628 12.3679 31.8575 14.3099C32.4681 18.1999 33.3109 23.5663 34.2431 29.4971C35.1791 35.4242 36.0172 40.7925 36.6009 44.6824C36.8927 46.6274 37.1221 48.2027 37.2729 49.2923C37.3477 49.8376 37.4034 50.261 37.437 50.549C37.4706 50.837 37.4831 50.9887 37.4725 50.9906C37.462 50.9925 37.4284 50.8437 37.3746 50.5586C37.3209 50.2735 37.2479 49.853 37.1577 49.3106C36.9762 48.2258 36.7257 46.6533 36.4261 44.7103C35.8242 40.8203 35.0265 35.4462 34.1538 29.5096Z" fill="#EBEBEB"/>
<path d="M32.796 29.6018C32.8498 23.5989 32.8987 18.1662 32.9342 14.2293C32.9429 12.2651 32.9496 10.6744 32.9544 9.57039C32.9525 9.02319 32.9515 8.59791 32.9506 8.30415C32.9486 8.16207 32.9467 8.05263 32.9458 7.97487C32.9438 7.90095 32.9419 7.86255 32.94 7.86255C32.9381 7.86255 32.9352 7.90095 32.9323 7.97487C32.9304 8.05359 32.9275 8.16207 32.9246 8.30415C32.9208 8.59791 32.916 9.02415 32.9093 9.57039C32.9035 10.6744 32.8968 12.2651 32.8872 14.2293C32.8872 18.1672 32.8872 23.5998 32.8872 29.6027C32.892 35.6027 32.8872 41.0363 32.8603 44.9694C32.8478 46.9365 32.8296 48.5282 32.8094 49.6274C32.7989 50.1774 32.7883 50.6046 32.7768 50.8936C32.7653 51.1835 32.7547 51.3352 32.7432 51.3352C32.7326 51.3352 32.7221 51.1826 32.7144 50.8936C32.7058 50.6037 32.699 50.1765 32.6933 49.6264C32.6827 48.5262 32.6789 46.9346 32.6837 44.9675C32.6933 41.0354 32.7374 35.6018 32.796 29.6018Z" fill="#EBEBEB"/>
<path d="M31.4414 29.4836C32.4283 23.5623 33.3211 18.2036 33.9681 14.3195C34.2811 12.3803 34.5345 10.8107 34.7112 9.7201C34.7947 9.17962 34.859 8.75914 34.9041 8.46826C34.9243 8.3281 34.9397 8.21962 34.9502 8.14186C34.9598 8.06794 34.9637 8.0305 34.9617 8.02954C34.9598 8.02954 34.9512 8.06602 34.9368 8.13898C34.9224 8.21578 34.9032 8.3233 34.8782 8.46346C34.8293 8.75338 34.7573 9.1729 34.6661 9.71242C34.4894 10.802 34.2341 12.3716 33.9201 14.3108C33.3086 18.2007 32.4648 23.5671 31.5326 29.4971C30.6053 35.4251 29.7576 40.7915 29.1192 44.6737C28.8005 46.6148 28.5355 48.1844 28.3445 49.2673C28.2485 49.8087 28.1717 50.2292 28.115 50.5134C28.0593 50.7975 28.0238 50.9463 28.0133 50.9444C28.0027 50.9425 28.0161 50.7908 28.0526 50.5038C28.0891 50.2167 28.1486 49.7934 28.2283 49.2491C28.3886 48.1604 28.6325 46.5879 28.9425 44.6459C29.5617 40.7607 30.4507 35.4011 31.4414 29.4836Z" fill="#EBEBEB"/>
<path d="M30.1272 29.1539C32.0347 23.462 33.7598 18.3107 35.0107 14.5772C35.6251 12.7119 36.1234 11.2009 36.469 10.1526C36.636 9.6313 36.7666 9.22618 36.8558 8.94682C36.8981 8.81146 36.9298 8.70682 36.9528 8.63194C36.9739 8.5609 36.9835 8.52346 36.9816 8.52346C36.9797 8.5225 36.9653 8.55802 36.9394 8.6281C36.9134 8.70202 36.877 8.80474 36.8299 8.93914C36.7358 9.21754 36.5995 9.62074 36.4238 10.1391C36.0773 11.1875 35.579 12.6975 34.9627 14.5628C33.7464 18.3078 32.0683 23.4745 30.2136 29.1846C28.3646 34.8927 26.6818 40.0595 25.4414 43.7919C24.8213 45.6582 24.3125 47.1663 23.9525 48.206C23.773 48.7254 23.6299 49.1286 23.5301 49.4003C23.4302 49.6719 23.3717 49.8131 23.3611 49.8092C23.3506 49.8054 23.388 49.6575 23.4696 49.3801C23.5512 49.1017 23.676 48.6937 23.8411 48.1686C24.1704 47.1193 24.659 45.6035 25.2715 43.7353C26.4946 39.9951 28.2158 34.8419 30.1272 29.1539Z" fill="#EBEBEB"/>
<path d="M28.8775 28.6205C31.6557 23.2992 34.1709 18.4838 35.993 14.9933C36.8935 13.248 37.6231 11.8339 38.129 10.8528C38.3767 10.3651 38.5687 9.98496 38.7012 9.72288C38.7636 9.5952 38.8125 9.49728 38.8471 9.4272C38.8788 9.36 38.8941 9.32544 38.8922 9.32448C38.8903 9.32352 38.8701 9.35616 38.8346 9.42144C38.7972 9.49056 38.7453 9.58656 38.6781 9.71136C38.5409 9.97152 38.3431 10.3478 38.0887 10.8326C37.5818 11.8138 36.8513 13.2259 35.9498 14.9712C34.1594 18.4781 31.6884 23.3165 28.9581 28.6627C26.2337 34.009 23.7588 38.8454 21.9463 42.336C21.0401 44.0813 20.3009 45.4915 19.7815 46.4611C19.5223 46.9459 19.3178 47.3213 19.1767 47.5747C19.0356 47.8272 18.9559 47.9578 18.9463 47.953C18.9367 47.9482 18.9972 47.808 19.121 47.5459C19.2449 47.2838 19.433 46.9008 19.6788 46.4083C20.1693 45.4234 20.8903 44.0045 21.7889 42.2554C23.585 38.7552 26.0964 33.937 28.8775 28.6205Z" fill="#EBEBEB"/>
<path d="M27.7236 27.8988C31.2996 23.0777 34.5357 18.7145 36.882 15.5513C38.0445 13.9682 38.9853 12.6857 39.6391 11.7958C39.9597 11.3522 40.2093 11.0076 40.3812 10.7695C40.4628 10.6534 40.5261 10.5641 40.5712 10.5007C40.6135 10.4393 40.6336 10.4076 40.6317 10.4066C40.6298 10.4057 40.6058 10.4345 40.5597 10.493C40.5117 10.5554 40.4455 10.6418 40.36 10.7551C40.1844 10.9903 39.93 11.3321 39.6026 11.7698C38.9488 12.6598 38.0061 13.9404 36.8426 15.5234C34.5252 18.7078 31.3293 23.0998 27.7965 27.9535C24.2695 32.8073 21.0688 37.1983 18.7332 40.3634C17.5658 41.9455 16.6144 43.2223 15.9501 44.0998C15.618 44.5385 15.3578 44.8774 15.1783 45.1049C14.9988 45.3324 14.8999 45.4486 14.8912 45.4418C14.8826 45.4351 14.9642 45.3065 15.1274 45.0674C15.2906 44.8284 15.5364 44.479 15.856 44.0306C16.4944 43.135 17.4285 41.8457 18.5901 40.2588C20.9124 37.0812 24.1456 32.7151 27.7236 27.8988Z" fill="#EBEBEB"/>
<path d="M26.7024 27.0063C30.985 22.7996 34.8605 18.9932 37.6694 16.2332C39.0643 14.8498 40.1933 13.7304 40.9766 12.9528C41.3626 12.565 41.6621 12.2626 41.8694 12.0543C41.9683 11.9525 42.0442 11.8738 42.0989 11.8181C42.1498 11.7644 42.1757 11.7356 42.1738 11.7346C42.1718 11.7327 42.143 11.7576 42.0893 11.8085C42.0326 11.8623 41.9539 11.9381 41.8512 12.036C41.641 12.2415 41.3366 12.5391 40.945 12.9212C40.1606 13.6978 39.0307 14.8172 37.6349 16.1996C34.8509 18.9845 31.0099 22.8264 26.7658 27.0716C22.5274 31.3176 18.6826 35.1576 15.8822 37.9205C14.4826 39.302 13.345 40.4156 12.552 41.1788C12.1555 41.5608 11.8464 41.8546 11.6333 42.0514C11.4211 42.2482 11.305 42.348 11.2973 42.3404C11.2896 42.3327 11.3904 42.2175 11.5891 42.0072C11.7878 41.796 12.0845 41.4888 12.4704 41.0962C13.2403 40.3109 14.3635 39.1829 15.7574 37.7948C18.5453 35.0184 22.4189 31.2072 26.7024 27.0063Z" fill="#EBEBEB"/>
<path d="M25.8265 25.9653C30.711 22.4757 35.1318 19.3183 38.3363 17.0296C39.9289 15.8805 41.2182 14.9493 42.1139 14.3032C42.5555 13.9797 42.8982 13.7282 43.1353 13.5544C43.2486 13.469 43.3359 13.4037 43.3983 13.3567C43.4569 13.3116 43.4867 13.2876 43.4857 13.2856C43.4847 13.2837 43.4521 13.3039 43.3907 13.3461C43.3263 13.3903 43.2361 13.4527 43.1199 13.5333C42.8799 13.7032 42.5334 13.95 42.087 14.2668C41.1913 14.9119 39.9011 15.8421 38.3075 16.9903C35.1241 19.3077 30.7321 22.5055 25.8793 26.0392C21.0313 29.5749 16.6364 32.7698 13.4415 35.0632C11.8441 36.2104 10.5471 37.133 9.6457 37.7637C9.19546 38.0796 8.84314 38.3215 8.60218 38.4828C8.36122 38.644 8.23162 38.7247 8.22586 38.716C8.21914 38.7074 8.33626 38.6095 8.5657 38.4319C8.79514 38.2543 9.13594 37.997 9.57754 37.6696C10.4607 37.013 11.7452 36.0741 13.3379 34.9202C16.5231 32.6104 20.9411 29.4492 25.8265 25.9653Z" fill="#EBEBEB"/>
<path d="M25.1287 24.8007C30.499 22.1185 35.3595 19.6906 38.8817 17.931C40.6347 17.0449 42.0535 16.3268 43.0395 15.8286C43.5262 15.578 43.9044 15.3831 44.1655 15.2487C44.2913 15.1825 44.3873 15.1306 44.4564 15.0942C44.5217 15.0586 44.5543 15.0394 44.5534 15.0375C44.5524 15.0356 44.5169 15.05 44.4497 15.0817C44.3796 15.1153 44.2807 15.1633 44.1531 15.2247C43.89 15.3553 43.5079 15.5444 43.0183 15.7873C42.0324 16.2846 40.6126 17.0017 38.8596 17.8868C35.3527 19.6782 30.5153 22.1502 25.17 24.8823C19.8295 27.6164 14.9892 30.0855 11.4737 31.851C9.7169 32.7342 8.2913 33.4426 7.30154 33.9246C6.80714 34.1655 6.42218 34.3498 6.15914 34.4718C5.8961 34.5937 5.75594 34.6522 5.75018 34.6426C5.74442 34.633 5.87594 34.5543 6.13034 34.4151C6.38474 34.2759 6.76106 34.0753 7.24874 33.8199C8.22314 33.3102 9.63914 32.5825 11.3931 31.6916C14.8999 29.9098 19.7595 27.4772 25.1287 24.8007Z" fill="#EBEBEB"/>
<path d="M24.6178 23.5412C30.3433 21.7373 35.5244 20.1044 39.2809 18.9207C41.1509 18.3207 42.6658 17.8359 43.717 17.4989C44.2364 17.3281 44.6415 17.1946 44.9199 17.1034C45.0543 17.0573 45.158 17.0218 45.2319 16.9969C45.302 16.9719 45.3375 16.9585 45.3365 16.9556C45.3356 16.9537 45.2991 16.9623 45.2271 16.9834C45.1522 17.0055 45.0476 17.0372 44.9113 17.0775C44.6309 17.1649 44.2239 17.2916 43.7017 17.4538C42.6495 17.7898 41.1356 18.2746 39.2645 18.8727C35.5196 20.0909 30.3538 21.7709 24.6447 23.6276C18.9404 25.4881 13.7717 27.1642 10.0229 28.3546C8.14901 28.9508 6.62933 29.426 5.57717 29.7457C5.05109 29.906 4.64117 30.0269 4.36277 30.1066C4.08437 30.1853 3.93557 30.2218 3.93269 30.2113C3.92885 30.2007 4.07093 30.1441 4.34357 30.0461C4.61621 29.9482 5.02037 29.809 5.54165 29.6343C6.58421 29.2839 8.09717 28.7885 9.96917 28.1847C13.7122 26.9761 18.8933 25.3393 24.6178 23.5412Z" fill="#EBEBEB"/>
<path d="M3.26758 25.4508C3.5527 25.3971 3.97318 25.3231 4.51558 25.2329C5.60038 25.0505 7.17286 24.7999 9.1159 24.4985C13.0029 23.8947 18.377 23.0931 24.3127 22.2175C30.2513 21.3363 35.6244 20.5395 39.5201 19.9615C41.4612 19.6639 43.0337 19.423 44.1252 19.255C44.6657 19.1676 45.0852 19.1004 45.3761 19.0534C45.5162 19.0294 45.6237 19.0102 45.7005 18.9977C45.7735 18.9843 45.8109 18.9766 45.81 18.9737C45.81 18.9718 45.7716 18.9747 45.6977 18.9843C45.6199 18.9948 45.5114 19.0092 45.3713 19.0275C45.0804 19.0697 44.6589 19.1311 44.1175 19.2089C43.026 19.3759 41.4535 19.6159 39.5124 19.9116C35.6225 20.5251 30.257 21.3708 24.3271 22.3059C18.401 23.2447 13.0337 24.0876 9.14374 24.6732C7.19878 24.967 5.62438 25.1964 4.53382 25.3481C3.98854 25.4239 3.56518 25.4787 3.27718 25.5132" fill="#EBEBEB"/>
<path d="M2.92969 20.792C3.21961 20.7833 3.64681 20.7756 4.19689 20.7708C5.29705 20.7593 6.88873 20.7555 8.85577 20.7584C12.7889 20.7651 18.2225 20.8054 24.2225 20.8601C30.2254 20.91 35.658 20.9561 39.595 20.9888C41.5591 20.9955 43.1498 21.0012 44.2538 21.0051C44.801 21.0032 45.2263 21.0012 45.5201 21.0003C45.6622 20.9984 45.7716 20.9964 45.8494 20.9955C45.9233 20.9936 45.9617 20.9916 45.9617 20.9888C45.9617 20.9868 45.9233 20.984 45.8494 20.982C45.7706 20.9801 45.6622 20.9782 45.5201 20.9744C45.2263 20.9715 44.8001 20.9657 44.2538 20.96C43.1498 20.9552 41.5591 20.9484 39.595 20.9408C35.657 20.9427 30.2244 20.9465 24.2215 20.9504C18.2215 20.958 12.7879 20.9571 8.85481 20.9331C6.88777 20.9216 5.29609 20.9043 4.19689 20.8851C3.64681 20.8755 3.21961 20.8649 2.93065 20.8534" fill="#EBEBEB"/>
<path d="M24.3397 19.5065C30.2619 20.4895 35.6206 21.3785 39.5058 22.0236C41.445 22.3356 43.0155 22.5881 44.1051 22.7638C44.6456 22.8463 45.067 22.9116 45.357 22.9558C45.4971 22.9759 45.6056 22.9913 45.6834 23.0018C45.7573 23.0114 45.7947 23.0153 45.7957 23.0124C45.7957 23.0105 45.7592 23.0018 45.6862 22.9874C45.6094 22.973 45.5019 22.9538 45.3618 22.9289C45.0718 22.8799 44.6523 22.8089 44.1128 22.7177C43.0222 22.541 41.4526 22.2876 39.5134 21.9746C35.6235 21.366 30.2562 20.525 24.3253 19.5967C18.3963 18.6732 13.029 17.8284 9.14767 17.1938C7.20655 16.877 5.63695 16.613 4.55311 16.422C4.01167 16.327 3.59119 16.2492 3.30703 16.1935C3.02287 16.1378 2.87407 16.1033 2.87599 16.0918C2.87791 16.0812 3.02959 16.0946 3.31663 16.1311C3.60367 16.1676 4.02703 16.2262 4.57135 16.3058C5.65999 16.4652 7.23343 16.7081 9.17551 17.0172C13.0606 17.6335 18.4213 18.5186 24.3397 19.5065Z" fill="#EBEBEB"/>
<path d="M24.668 18.1864C30.3608 20.0901 35.5131 21.8123 39.2475 23.0613C41.1138 23.6747 42.6239 24.1711 43.6731 24.5167C44.1944 24.6837 44.5995 24.8133 44.8789 24.9035C45.0143 24.9448 45.1189 24.9775 45.1938 25.0005C45.2648 25.0216 45.3023 25.0312 45.3023 25.0293C45.3032 25.0274 45.2677 25.013 45.1976 24.9871C45.1237 24.9611 45.021 24.9247 44.8866 24.8776C44.6082 24.7835 44.205 24.6472 43.6866 24.4725C42.6383 24.1269 41.1272 23.6287 39.2619 23.0143C35.516 21.7999 30.3483 20.1256 24.6373 18.2747C18.9282 16.4296 13.7605 14.7506 10.0271 13.5122C8.15986 12.893 6.6517 12.3851 5.61202 12.0261C5.0917 11.8466 4.68946 11.7045 4.41778 11.6047C4.1461 11.5048 4.00498 11.4463 4.00786 11.4357C4.0117 11.4251 4.15954 11.4626 4.43698 11.5432C4.71538 11.6239 5.12338 11.7487 5.6485 11.9138C6.69874 12.2431 8.21362 12.7298 10.0827 13.3413C13.8248 14.5605 18.9791 16.2799 24.668 18.1864Z" fill="#EBEBEB"/>
<path d="M25.1997 16.9365C30.5229 19.7119 35.3402 22.2233 38.8317 24.0434C40.5779 24.9429 41.992 25.6716 42.9731 26.1765C43.4618 26.4233 43.841 26.6153 44.103 26.7487C44.2307 26.8111 44.3286 26.8591 44.3987 26.8937C44.4659 26.9253 44.5005 26.9407 44.5014 26.9388C44.5024 26.9369 44.4698 26.9177 44.4045 26.8812C44.3354 26.8437 44.2394 26.7919 44.1146 26.7247C43.8544 26.5884 43.4771 26.3897 42.9933 26.1353C42.0122 25.6293 40.599 24.8997 38.8538 23.9993C35.3459 22.2108 30.5056 19.7436 25.1574 17.0162C19.8102 14.2946 14.9709 11.8236 11.4794 10.013C9.73312 9.10774 8.32288 8.3695 7.35232 7.8511C6.86752 7.5919 6.4912 7.38838 6.23872 7.24726C5.98624 7.10614 5.85568 7.02646 5.86048 7.01686C5.86528 7.00726 6.00544 7.06774 6.26752 7.19158C6.5296 7.31542 6.9136 7.50358 7.40608 7.74838C8.39104 8.23894 9.81088 8.95894 11.561 9.85654C15.0621 11.6508 19.8822 14.1583 25.1997 16.9365Z" fill="#EBEBEB"/>
<path d="M25.9191 15.7854C30.7431 19.3585 35.1082 22.5918 38.2724 24.9361C39.8564 26.0977 41.1389 27.0376 42.0298 27.6904C42.4733 28.011 42.8189 28.2597 43.057 28.4315C43.1732 28.5131 43.2625 28.5765 43.3268 28.6216C43.3882 28.6638 43.4199 28.684 43.4218 28.682C43.4228 28.6801 43.394 28.6561 43.3354 28.61C43.273 28.562 43.1866 28.4958 43.0733 28.4104C42.8381 28.2347 42.4964 27.9803 42.0577 27.6529C41.1677 26.9992 39.8861 26.0584 38.3021 24.8958C35.1169 22.5813 30.722 19.3873 25.8663 15.8584C21.0097 12.3352 16.6167 9.13645 13.4506 6.80269C11.8676 5.63629 10.5898 4.68589 9.71238 4.02253C9.27366 3.69037 8.93478 3.43117 8.70726 3.25165C8.47974 3.07213 8.36358 2.97421 8.36934 2.96461C8.37606 2.95597 8.5047 3.03757 8.74374 3.20077C8.98278 3.36397 9.33318 3.60973 9.78054 3.92845C10.6772 4.56685 11.9665 5.49997 13.5543 6.65965C16.7319 8.97901 21.1009 12.2094 25.9191 15.7854Z" fill="#EBEBEB"/>
<path d="M26.8139 14.7602C31.0235 19.0398 34.8327 22.9135 37.5937 25.7205C38.978 27.1144 40.0983 28.2424 40.8769 29.0258C41.2657 29.4107 41.5671 29.7112 41.7764 29.9176C41.8782 30.0165 41.9569 30.0923 42.0126 30.147C42.0663 30.1979 42.0951 30.2238 42.0961 30.2219C42.098 30.22 42.0731 30.1912 42.0222 30.1374C41.9684 30.0808 41.8926 30.0021 41.7947 29.8994C41.5892 29.6891 41.2916 29.3848 40.9095 28.9931C40.1319 28.2088 39.0126 27.0798 37.6292 25.685C34.8423 22.9029 30.9985 19.0638 26.7505 14.8226C22.5015 10.5861 18.6596 6.74417 15.8948 3.94577C14.5124 2.54705 13.3988 1.40945 12.6347 0.61745C12.2526 0.22193 11.9579 -0.0881505 11.7611 -0.30031C11.5643 -0.51247 11.4644 -0.62863 11.4721 -0.63631C11.4798 -0.64399 11.595 -0.54319 11.8052 -0.34447C12.0164 -0.14575 12.3236 0.150889 12.7163 0.535849C13.5025 1.30577 14.6315 2.42801 16.0196 3.82097C18.7969 6.60881 22.61 10.4795 26.8139 14.7602Z" fill="#EBEBEB"/>
<path d="M27.8557 13.8866C31.3481 18.7691 34.5085 23.188 36.799 26.3906C37.9501 27.9822 38.8813 29.2715 39.5273 30.1662C39.8509 30.6069 40.1033 30.9506 40.2771 31.1877C40.3625 31.301 40.4278 31.3883 40.4749 31.4507C40.52 31.5093 40.544 31.539 40.5459 31.5381C40.5478 31.5371 40.5277 31.5045 40.4854 31.443C40.4413 31.3787 40.3789 31.2885 40.2973 31.1723C40.1273 30.9323 39.8806 30.5858 39.5638 30.1394C38.9177 29.2437 37.9875 27.9544 36.8374 26.3618C34.5171 23.1803 31.3174 18.7902 27.7808 13.9394C24.2441 9.09425 21.0464 4.70129 18.7501 1.50737C17.6019 -0.0891115 16.6784 -1.38607 16.0477 -2.28751C15.7318 -2.73775 15.4889 -3.08911 15.3277 -3.33007C15.1664 -3.57103 15.0857 -3.70063 15.0944 -3.70639C15.103 -3.71311 15.2009 -3.59599 15.3785 -3.36655C15.5561 -3.13711 15.8134 -2.79631 16.1417 -2.35567C16.7984 -1.47343 17.7392 -0.188952 18.8941 1.40273C21.2048 4.58705 24.3689 9.00401 27.8557 13.8866Z" fill="#EBEBEB"/>
<path d="M29.0177 13.1868C31.7038 18.5551 34.1345 23.4137 35.8961 26.9349C36.7841 28.6869 37.5022 30.1058 38.0014 31.0908C38.252 31.5765 38.4478 31.9557 38.5822 32.2169C38.6484 32.3426 38.7003 32.4386 38.7368 32.5077C38.7723 32.573 38.7915 32.6057 38.7934 32.6047C38.7953 32.6037 38.78 32.5682 38.7492 32.501C38.7156 32.4309 38.6676 32.3321 38.6062 32.2044C38.4756 31.9413 38.2865 31.5602 38.0427 31.0697C37.5444 30.0837 36.8273 28.6649 35.9403 26.9119C34.146 23.4069 31.6712 18.5705 28.9361 13.2271C26.1992 7.88855 23.7281 3.04919 21.9598 -0.464413C21.0756 -2.22121 20.3662 -3.64585 19.8833 -4.63465C19.6424 -5.12905 19.4571 -5.51401 19.3352 -5.77705C19.2132 -6.04009 19.1537 -6.18025 19.1643 -6.18505C19.1739 -6.18985 19.2526 -6.05929 19.3918 -5.80489C19.531 -5.55049 19.7326 -5.17417 19.988 -4.68649C20.4987 -3.71209 21.2273 -2.29705 22.1182 -0.544093C23.9028 2.96087 26.3374 7.81847 29.0177 13.1868Z" fill="#EBEBEB"/>
<path d="M30.2771 12.6771C32.0848 18.4016 33.7206 23.5817 34.9062 27.3363C35.5072 29.2064 35.9939 30.7203 36.3309 31.7715C36.5018 32.2908 36.6352 32.695 36.7274 32.9744C36.7734 33.1088 36.809 33.2115 36.8339 33.2864C36.8589 33.3564 36.8723 33.392 36.8752 33.391C36.8771 33.39 36.8685 33.3536 36.8474 33.2816C36.8253 33.2067 36.7936 33.102 36.7533 32.9657C36.6659 32.6854 36.5392 32.2784 36.376 31.7571C36.039 30.7059 35.5542 29.191 34.9542 27.3209C33.7341 23.5769 32.0502 18.4121 30.1907 12.704C28.3264 7.0006 26.6474 1.83292 25.4541 -1.91492C24.857 -3.78884 24.3808 -5.30756 24.0602 -6.35972C23.8998 -6.8858 23.7779 -7.29572 23.6992 -7.57412C23.6205 -7.85252 23.584 -8.00132 23.5946 -8.0042C23.6051 -8.00804 23.6618 -7.86596 23.7597 -7.59332C23.8576 -7.32068 23.9968 -6.91652 24.1725 -6.39524C24.5238 -5.35268 25.0202 -3.84068 25.625 -1.96868C26.8346 1.77436 28.4752 6.95452 30.2771 12.6771Z" fill="#EBEBEB"/>
<path d="M31.5998 12.3727C32.4839 18.3103 33.2846 23.6834 33.8654 27.5781C34.1649 29.5193 34.4068 31.0908 34.5748 32.1823C34.6622 32.7228 34.7303 33.1423 34.7774 33.4332C34.8014 33.5733 34.8206 33.6809 34.834 33.7577C34.8474 33.8306 34.8551 33.8681 34.858 33.8671C34.8599 33.8671 34.857 33.8287 34.8474 33.7548C34.8369 33.677 34.8225 33.5685 34.8033 33.4284C34.761 33.1375 34.6996 32.7161 34.6209 32.1746C34.4538 31.0831 34.2129 29.5116 33.9153 27.5695C33.299 23.6805 32.4494 18.3141 31.5105 12.3852C30.5668 6.46102 29.721 1.09366 29.1326 -2.7953C28.8378 -4.74026 28.6065 -6.31466 28.4548 -7.40426C28.379 -7.94954 28.3233 -8.3729 28.2887 -8.65994C28.2542 -8.94794 28.2417 -9.09962 28.2532 -9.10154C28.2638 -9.10346 28.2974 -8.95466 28.3511 -8.66954C28.4049 -8.38442 28.4788 -7.96394 28.57 -7.42154C28.7524 -6.33674 29.0049 -4.76522 29.3073 -2.82122C29.915 1.0639 30.7204 6.43702 31.5998 12.3727Z" fill="#EBEBEB"/>
<path d="M32.9606 12.2786C32.9145 18.2815 32.8723 23.7141 32.8416 27.6511C32.8358 29.6152 32.831 31.206 32.8281 32.31C32.83 32.8572 32.832 33.2824 32.8339 33.5762C32.8358 33.7183 32.8377 33.8277 32.8387 33.9055C32.8406 33.9794 32.8425 34.0178 32.8454 34.0178C32.8473 34.0178 32.8502 33.9794 32.8521 33.9055C32.854 33.8268 32.856 33.7183 32.8598 33.5762C32.8627 33.2824 32.8675 32.8562 32.8732 32.31C32.8771 31.206 32.8828 29.6152 32.8896 27.6511C32.8848 23.7132 32.878 18.2805 32.8704 12.2776C32.8588 6.27765 32.856 0.844046 32.878 -3.08907C32.8886 -5.05611 32.904 -6.64779 32.9232 -7.74699C32.9328 -8.29707 32.9433 -8.72427 32.9539 -9.01323C32.9644 -9.30315 32.976 -9.45483 32.9865 -9.45483C32.9971 -9.45483 33.0076 -9.30219 33.0163 -9.01323C33.0249 -8.72331 33.0326 -8.29611 33.0384 -7.74603C33.0508 -6.64587 33.0556 -5.05419 33.0537 -3.08715C33.0489 0.845966 33.0115 6.27861 32.9606 12.2786Z" fill="#EBEBEB"/>
<path d="M34.3137 12.3955C33.3345 18.3178 32.4484 23.6784 31.8062 27.5626C31.4952 29.5018 31.2436 31.0723 31.0689 32.1629C30.9864 32.7034 30.922 33.1248 30.8779 33.4147C30.8577 33.5549 30.8433 33.6634 30.8318 33.7411C30.8222 33.8151 30.8184 33.8525 30.8212 33.8535C30.8232 33.8535 30.8318 33.817 30.8462 33.744C30.8596 33.6672 30.8798 33.5597 30.9048 33.4195C30.9537 33.1296 31.0248 32.7101 31.115 32.1706C31.2907 31.08 31.5432 29.5104 31.8552 27.5712C32.4619 23.6803 33.299 18.313 34.2235 12.3811C35.1432 6.45219 35.9841 1.08387 36.6168 -2.79837C36.9326 -4.73949 37.1956 -6.30909 37.3857 -7.39293C37.4808 -7.93437 37.5576 -8.35485 37.6132 -8.63901C37.6689 -8.92317 37.7035 -9.07197 37.715 -9.07005C37.7256 -9.06813 37.7121 -8.91645 37.6766 -8.62845C37.6401 -8.34141 37.5816 -7.91805 37.5019 -7.37373C37.3435 -6.28509 37.1016 -4.71165 36.7934 -2.76957C36.179 1.11555 35.2968 6.47619 34.3137 12.3955Z" fill="#EBEBEB"/>
<path d="M35.6337 12.7239C33.7338 18.4186 32.0145 23.5719 30.7684 27.3072C30.1559 29.1735 29.6605 30.6845 29.3159 31.7338C29.1489 32.2551 29.0193 32.6602 28.93 32.9405C28.8887 33.0759 28.8561 33.1805 28.833 33.2554C28.8119 33.3264 28.8023 33.3639 28.8052 33.3639C28.8071 33.3648 28.8215 33.3293 28.8474 33.2592C28.8733 33.1853 28.9098 33.0826 28.9569 32.9482C29.0509 32.6698 29.1873 32.2666 29.362 31.7482C29.7066 30.6989 30.2039 29.1888 30.8173 27.3226C32.0289 23.5757 33.7002 18.4071 35.5473 12.6951C37.3885 6.985 39.0647 1.81635 40.3012 -1.91805C40.9185 -3.78525 41.4253 -5.29437 41.7844 -6.33405C41.9639 -6.85437 42.106 -7.25661 42.2058 -7.52925C42.3057 -7.80093 42.3633 -7.94205 42.3738 -7.93917C42.3844 -7.93533 42.3469 -7.78749 42.2663 -7.50909C42.1857 -7.23069 42.0609 -6.82173 41.8967 -6.29757C41.5684 -5.24733 41.0817 -3.73149 40.4721 -1.86237C39.2519 1.87779 37.5373 7.03299 35.6337 12.7239Z" fill="#EBEBEB"/>
<path d="M36.8815 13.2553C34.11 18.5804 31.6015 23.3986 29.7833 26.8921C28.8847 28.6393 28.158 30.0533 27.6521 31.0354C27.4053 31.5241 27.2133 31.9042 27.0809 32.1663C27.0185 32.294 26.9705 32.3919 26.9359 32.462C26.9042 32.5292 26.8889 32.5637 26.8908 32.5647C26.8927 32.5657 26.9119 32.533 26.9484 32.4677C26.9858 32.3986 27.0377 32.3026 27.1049 32.1778C27.2412 31.9177 27.4389 31.5404 27.6933 31.0565C28.1993 30.0754 28.9269 28.6613 29.8274 26.9151C31.614 23.4063 34.0783 18.565 36.8018 13.2149C39.5196 7.86486 41.9877 3.02454 43.7964 -0.468899C44.6997 -2.2161 45.438 -3.62634 45.9554 -4.5969C46.2137 -5.08266 46.4172 -5.45802 46.5593 -5.7105C46.7004 -5.96394 46.7801 -6.09354 46.7897 -6.08874C46.7993 -6.08394 46.7388 -5.94378 46.6159 -5.6817C46.4921 -5.41962 46.3049 -5.03562 46.0601 -4.54314C45.5705 -3.55818 44.8514 -2.13738 43.9548 -0.387298C42.1615 3.11382 39.6559 7.93494 36.8815 13.2553Z" fill="#EBEBEB"/>
<path d="M38.0356 13.9757C34.4654 18.8016 31.235 23.1687 28.8926 26.3348C27.7319 27.9197 26.7931 29.2023 26.1403 30.0932C25.8206 30.5367 25.571 30.8823 25.3991 31.1204C25.3175 31.2365 25.2542 31.3258 25.21 31.3901C25.1678 31.4516 25.1476 31.4832 25.1495 31.4852C25.1515 31.4861 25.1755 31.4573 25.2215 31.3988C25.2686 31.3364 25.3358 31.25 25.4212 31.1367C25.5969 30.9005 25.8513 30.5597 26.1777 30.121C26.8305 29.2301 27.7713 27.9485 28.9329 26.3645C31.2455 23.1773 34.4366 18.7815 37.9627 13.9229C41.483 9.06436 44.6779 4.66948 47.0107 1.50148C48.1761 -0.0825212 49.1255 -1.36028 49.7889 -2.23868C50.1201 -2.6774 50.3803 -3.01724 50.5588 -3.24476C50.7383 -3.47228 50.8363 -3.58844 50.8449 -3.58268C50.8535 -3.57596 50.7729 -3.44732 50.6097 -3.20732C50.4465 -2.96828 50.2017 -2.61788 49.883 -2.16956C49.2455 -1.27292 48.3134 0.0173189 47.1537 1.60612C44.8353 4.78372 41.6078 9.1546 38.0356 13.9757Z" fill="#EBEBEB"/>
<path d="M39.0567 14.8667C34.7799 19.0791 30.9083 22.8903 28.1031 25.6532C26.7102 27.0385 25.5831 28.1598 24.7998 28.9383C24.4148 29.3271 24.1153 29.6295 23.9079 29.8379C23.8091 29.9396 23.7332 30.0183 23.6785 30.075C23.6276 30.1287 23.6017 30.1575 23.6036 30.1585C23.6055 30.1604 23.6343 30.1355 23.6881 30.0846C23.7447 30.0308 23.8235 29.955 23.9262 29.8571C24.1364 29.6516 24.4407 29.354 24.8315 28.971C25.6148 28.1924 26.7438 27.0721 28.1367 25.6878C30.9169 22.8999 34.7531 19.0532 38.9924 14.8023C43.226 10.5505 47.066 6.7057 49.8615 3.93994C51.2593 2.55658 52.3959 1.44202 53.187 0.677865C53.5825 0.295785 53.8916 0.00106452 54.1047 -0.195735C54.3169 -0.392535 54.4321 -0.492376 54.4398 -0.484696C54.4475 -0.477016 54.3467 -0.361816 54.1489 -0.150615C53.9502 0.0605845 53.6535 0.367785 53.2695 0.761385C52.5006 1.54762 51.3783 2.67754 49.9863 4.06666C47.2033 6.8449 43.3355 10.6599 39.0567 14.8667Z" fill="#EBEBEB"/>
<path d="M39.934 15.9065C35.0534 19.4018 30.6374 22.565 27.4358 24.8585C25.8441 26.0105 24.5558 26.9426 23.662 27.5897C23.2214 27.9132 22.8786 28.1657 22.6415 28.3394C22.5282 28.4249 22.4409 28.4902 22.3785 28.5372C22.3199 28.5823 22.2902 28.6063 22.2921 28.6082C22.293 28.6101 22.3257 28.59 22.3871 28.5477C22.4514 28.5026 22.5407 28.4412 22.6578 28.3596C22.8969 28.1887 23.2444 27.942 23.6898 27.6252C24.5846 26.9781 25.8738 26.0469 27.4655 24.8969C30.646 22.5746 35.0332 19.3721 39.8822 15.8316C44.7254 12.2901 49.1164 9.08951 52.3084 6.79223C53.9049 5.64311 55.2009 4.71863 56.1014 4.08695C56.5516 3.77111 56.903 3.52823 57.1439 3.36599C57.3839 3.20471 57.5135 3.12407 57.5202 3.13271C57.527 3.14135 57.4098 3.23927 57.1804 3.41687C56.951 3.59447 56.6111 3.85175 56.1695 4.18103C55.2873 4.83863 54.0038 5.77943 52.4121 6.93527C49.2287 9.24983 44.8146 12.4169 39.934 15.9065Z" fill="#EBEBEB"/>
<path d="M40.6387 17.0702C35.2714 19.7591 30.4147 22.1937 26.8944 23.9572C25.1424 24.8462 23.7245 25.5652 22.7395 26.0654C22.2538 26.3169 21.8755 26.5118 21.6144 26.6471C21.4887 26.7134 21.3927 26.7652 21.3235 26.8017C21.2583 26.8372 21.2256 26.8564 21.2266 26.8583C21.2275 26.8603 21.2631 26.8449 21.3303 26.8142C21.4003 26.7806 21.4992 26.7326 21.6269 26.6711C21.8899 26.5406 22.2711 26.3505 22.7616 26.1076C23.7466 25.6084 25.1655 24.8903 26.9175 24.0033C30.4215 22.2071 35.256 19.7294 40.5984 16.9905C45.936 14.2497 50.7725 11.7748 54.2851 10.0046C56.041 9.11947 57.4656 8.40907 58.4544 7.92619C58.9488 7.68427 59.3338 7.49995 59.5968 7.37707C59.8599 7.25515 60 7.19563 60.0048 7.20523C60.0096 7.21483 59.8791 7.29355 59.6256 7.43275C59.3722 7.57291 58.9949 7.77355 58.5082 8.02987C57.5338 8.54155 56.1187 9.27019 54.3667 10.163C50.8608 11.9486 46.0051 14.387 40.6387 17.0702Z" fill="#EBEBEB"/>
<path d="M41.1476 18.3296C35.4241 20.1411 30.2449 21.7808 26.4913 22.9683C24.6212 23.5702 23.1082 24.0579 22.057 24.3958C21.5377 24.5677 21.1335 24.7011 20.8542 24.7933C20.7198 24.8394 20.617 24.8749 20.5422 24.8998C20.4721 24.9248 20.4366 24.9382 20.4375 24.9411C20.4385 24.943 20.475 24.9344 20.547 24.9133C20.6218 24.8912 20.7265 24.8595 20.8628 24.8182C21.1431 24.7309 21.5492 24.6032 22.0714 24.44C23.1226 24.1021 24.6366 23.6163 26.5066 23.0154C30.2497 21.7923 35.4135 20.1056 41.1198 18.2422C46.8222 16.375 51.9879 14.6922 55.7358 13.496C57.6097 12.8979 59.1274 12.4208 60.1796 12.0992C60.7057 11.9379 61.1146 11.816 61.394 11.7373C61.6724 11.6586 61.8212 11.6221 61.8241 11.6326C61.827 11.6432 61.6858 11.6998 61.4132 11.7978C61.1406 11.8957 60.7364 12.0349 60.2151 12.2115C59.1726 12.5638 57.6606 13.0611 55.7895 13.6669C52.0484 14.8794 46.8702 16.5238 41.1476 18.3296Z" fill="#EBEBEB"/>
<path d="M41.4525 19.6537C35.5158 20.5417 30.1427 21.3461 26.249 21.9289C24.3078 22.2293 22.7363 22.4722 21.6448 22.6412C21.1053 22.7285 20.6848 22.7967 20.3949 22.8437C20.2547 22.8677 20.1472 22.8869 20.0704 22.9004C19.9974 22.9138 19.96 22.9225 19.961 22.9244C19.961 22.9263 19.9994 22.9234 20.0733 22.9138C20.151 22.9033 20.2595 22.8889 20.3997 22.8697C20.6906 22.8274 21.112 22.765 21.6534 22.6863C22.745 22.5183 24.3165 22.2764 26.2576 21.9778C30.1466 21.3596 35.512 20.5061 41.44 19.5634C47.3651 18.6169 52.7315 17.7673 56.6205 17.1769C58.5645 16.8812 60.1398 16.6489 61.2294 16.4962C61.7738 16.4204 62.1981 16.3637 62.4851 16.3292C62.7731 16.2946 62.9248 16.2821 62.9267 16.2927C62.9286 16.3033 62.7798 16.3378 62.4947 16.3916C62.2096 16.4453 61.7891 16.5193 61.2467 16.6114C60.1619 16.7948 58.5904 17.0482 56.6474 17.3525C52.7594 17.9621 47.3872 18.7705 41.4525 19.6537Z" fill="#EBEBEB"/>
</g>
<path d="M36.6873 34.5724L37.6991 22.2575C38.0236 19.9046 37.3036 19.4438 35.9126 19.3266L30.3264 19.2969C28.87 19.6818 29.182 20.8463 29.1311 21.4454C29.2223 25.2431 29.0505 29.0428 28.6156 32.8166L28.4688 34.0886L36.6873 34.5724Z" fill="#5B5B5B"/>
<path opacity="0.2" d="M36.2031 21.2995L37.4713 25.0406L37.7535 20.9404L36.2031 21.2995Z" fill="black"/>
<path d="M28.6677 31.9958C28.6677 31.9958 26.1103 47.4298 25.7868 49.8499C25.4633 52.2701 23.7305 61.9939 23.7305 61.9939L25.686 62.4336C25.686 62.4336 28.4719 55.4832 29.0508 50.6477C29.0508 50.6477 31.4114 42.407 32.2207 40.5907C32.2207 40.5907 34.5621 38.0074 33.7941 33.4061L28.6677 31.9958Z" fill="#3A3A3A"/>
<path opacity="0.2" d="M31.0117 43.8787C31.486 42.4877 31.94 41.2185 32.2204 40.5897C32.2204 40.5897 32.7119 40.3795 33.2965 39.8803C33.4319 39.3427 33.5154 38.999 33.5154 38.999L32.0072 36.7555C32.0072 36.7565 31.5637 41.3462 31.0117 43.8787Z" fill="black"/>
<path d="M31.6553 33.0251C31.6553 33.0251 32.5193 48.7345 33.5926 51.7806C34.6658 54.8267 38.0297 61.7732 38.0297 61.7732L39.8921 60.964C39.8921 60.964 38.3935 52.754 36.7414 50.6123L36.9708 39.8641C36.9708 39.8641 38.2082 34.5227 36.9458 31.995L31.6553 33.0251Z" fill="#3A3A3A"/>
<path d="M36.9088 31.9958H28.6662L28.167 34.9546L31.8284 37.5072L36.9462 35.2339L36.9088 31.9958Z" fill="#3A3A3A"/>
<path d="M31.8301 19.8797L31.8646 19.9603C32.001 20.2781 32.3024 20.4941 32.648 20.52C32.7997 20.5315 33.1549 20.5622 33.968 20.0745C34.2128 19.9065 34.4278 19.6992 34.6026 19.4592L34.6064 19.4544C34.592 19.4045 34.5699 19.3555 34.5382 19.3104C34.0074 18.5529 34.0093 17.0045 34.0832 16.103L32.3571 17.9443C32.6125 18.6336 32.647 19.4448 31.8301 19.8797Z" fill="#F4CDB8"/>
<path opacity="0.2" d="M33.6328 17.0861L32.3896 18.0249C32.4271 18.2083 32.5048 18.4061 32.5106 18.5933C32.9407 18.5424 33.5253 18.1795 33.7068 17.7139C33.8229 17.4307 33.7423 17.1225 33.6328 17.0861Z" fill="black"/>
<path d="M31.2665 12.6404C31.2665 12.6404 29.7967 13.9623 30.8594 14.5373C31.9212 15.1133 31.2665 12.6404 31.2665 12.6404Z" fill="#2E353A"/>
<path d="M34.2975 14.6181C34.2726 15.9842 34.3254 16.7839 33.6668 17.5106C32.678 18.6059 30.9692 18.0501 30.5891 16.708C30.2444 15.4907 30.3462 13.468 31.6566 12.8699C32.5897 12.4389 33.6956 12.845 34.1267 13.7771C34.2486 14.0411 34.3071 14.3291 34.2975 14.6181Z" fill="#F4CDB8"/>
<path d="M32.1833 15.1019C32.1881 15.2133 32.1334 15.3064 32.0604 15.3083C31.9874 15.3112 31.926 15.2238 31.9212 15.1125C31.9164 15.0011 31.9711 14.9099 32.0441 14.907C32.117 14.9051 32.1794 14.9925 32.1833 15.1019Z" fill="#2E353A"/>
<path d="M30.9312 15.1556C30.9351 15.266 30.8813 15.3581 30.8083 15.361C30.7354 15.3639 30.6739 15.2765 30.6691 15.1671C30.6653 15.0567 30.7191 14.9626 30.792 14.9607C30.865 14.9569 30.9264 15.0442 30.9312 15.1556Z" fill="#2E353A"/>
<path d="M32.3911 14.546C32.4026 14.545 32.4132 14.5421 32.4228 14.5373C32.4497 14.5133 32.4535 14.473 32.4314 14.4452C32.3009 14.281 32.0993 14.1898 31.89 14.1984C31.8545 14.2023 31.8286 14.2349 31.8324 14.2704C31.8362 14.306 31.8689 14.3319 31.9044 14.328C32.0705 14.3223 32.2289 14.3962 32.3306 14.5277C32.347 14.544 32.369 14.5508 32.3911 14.546Z" fill="#2E353A"/>
<path d="M30.5326 14.6852C30.5547 14.6814 30.5729 14.667 30.5816 14.6468C30.643 14.4942 30.7736 14.3799 30.9329 14.3377C30.9685 14.3319 30.9925 14.2983 30.9857 14.2628C30.98 14.2273 30.9464 14.2033 30.9109 14.21C30.7064 14.258 30.5374 14.403 30.4577 14.5978C30.4433 14.6295 30.4577 14.667 30.4894 14.6814C30.4904 14.6814 30.4904 14.6823 30.4913 14.6823C30.5038 14.6871 30.5182 14.689 30.5326 14.6852Z" fill="#2E353A"/>
<path d="M34.0345 15.9159C34.0345 15.9159 33.3827 15.8515 33.5449 15.3005C33.7062 14.7504 33.0659 14.2051 33.1897 13.4611C33.1897 13.4611 29.4784 14.1072 30.5104 12.2458C30.9203 11.617 32.3968 11.6525 33.4979 11.8138C34.9446 12.0259 34.6067 12.8467 34.6067 12.8467C36.1744 13.1731 35.4899 16.4035 34.0345 15.9159Z" fill="#2E353A"/>
<path d="M35.0165 15.8603C34.8456 16.1569 34.5643 16.3748 34.2331 16.466C33.7925 16.5812 33.6753 16.1128 33.707 15.7748C33.8213 15.4052 34.1889 14.8974 34.6277 14.9636C35.0664 15.0289 35.2219 15.4916 35.0165 15.8603Z" fill="#F4CDB8"/>
<path d="M31.249 16.7078C31.249 16.7078 31.6561 16.5091 32.8532 16.2595C32.7908 16.6886 32.5911 17.065 31.9767 17.1936C31.6762 17.2906 31.3565 17.0976 31.2625 16.7645C31.2577 16.7453 31.2529 16.727 31.249 16.7078Z" fill="#2E353A"/>
<path d="M32.1981 16.8154C31.9591 16.8499 31.7383 16.968 31.5674 17.1504C31.697 17.209 31.8391 17.2224 31.9735 17.1888C32.2115 17.1543 32.4323 17.0371 32.6032 16.8538C32.4746 16.7943 32.3325 16.7808 32.1981 16.8154Z" fill="#D4827D"/>
<path d="M31.3018 16.6858C31.345 16.7798 31.4323 16.8413 31.5274 16.8442C31.8826 16.7683 32.2301 16.6598 32.568 16.5197C32.6794 16.4842 32.7658 16.3891 32.7984 16.2662C32.2896 16.3632 31.7894 16.5034 31.3018 16.6858Z" fill="#FAFAFA"/>
<path d="M43.5809 15.7277L43.9313 13.7818L44.1732 12.5674C44.2375 12.2439 44.035 11.9271 43.7143 11.8503L43.434 11.7831C43.2891 11.7485 43.1374 11.7677 43.0059 11.8359L42.8081 11.9395C42.5969 12.0499 42.4692 12.2736 42.4798 12.5117L42.5086 13.1491C42.5115 13.2202 42.5268 13.2893 42.5547 13.3555L42.8427 14.0554L42.4404 15.4349L43.5809 15.7277Z" fill="#F4CDB8"/>
<path d="M35.5957 20.0171C35.5938 19.8097 35.685 19.6091 35.8434 19.4757C36.4732 18.9438 40.1865 20.0987 40.8508 19.0869C42.141 17.1208 42.5365 14.3646 42.5365 14.3646L43.965 14.7217C43.965 14.7217 43.7586 19.1214 42.6709 21.0088C41.7781 22.5582 36.3647 22.2702 36.1477 22.1013C35.8146 21.8411 35.6092 21.268 35.5957 20.0171Z" fill="#5B5B5B"/>
<path opacity="0.1" d="M-5.70117 35.1188H13.4604C13.6169 35.1188 13.7436 35.2455 13.7436 35.402V40.5735C13.7436 40.73 13.6169 40.8567 13.4604 40.8567H-5.70117C-5.85765 40.8567 -5.98437 40.73 -5.98437 40.5735V35.402C-5.98533 35.2455 -5.85765 35.1188 -5.70117 35.1188Z" fill="black"/>
<path d="M14.8386 33.9601H-7.08008" stroke="#407BFF" stroke-width="0.151296" stroke-miterlimit="10"/>
<path d="M-2.96831 56.2203C-3.09983 56.1339 -3.17951 55.987 -3.17951 55.8286V46.3947C-3.18047 46.3601 -3.17759 46.3246 -3.16991 46.2891C-3.15839 46.2344 -3.13823 46.1835 -3.10943 46.1374C-3.07199 46.0779 -3.02303 46.0289 -2.96639 45.9915C-2.91167 45.956 -2.84831 45.931 -2.78015 45.9214C-2.75423 45.9176 -2.72735 45.9166 -2.70047 45.9166H18.9927C19.0186 45.9166 19.0455 45.9176 19.0714 45.9214C19.1405 45.931 19.2048 45.9569 19.2605 45.9934C19.3162 46.0299 19.3642 46.0779 19.3997 46.1365C19.4285 46.1825 19.4496 46.2334 19.4611 46.2881C19.4688 46.3237 19.4717 46.3582 19.4707 46.3937V55.8277C19.4707 55.9851 19.3911 56.1329 19.2595 56.2193C19.1271 56.3057 18.961 56.3201 18.816 56.2568L8.14561 51.6171L-2.52479 56.2577C-2.58431 56.2837 -2.64767 56.2961 -2.71103 56.2961C-2.80127 56.2971 -2.89055 56.2712 -2.96831 56.2203ZM-2.24351 47.0984V55.1153L6.97249 51.1073L-2.24351 47.0984ZM9.31873 51.1073L18.5347 55.1153V47.0984L9.31873 51.1073ZM-0.462709 46.8526L8.14561 50.5966L16.7539 46.8526H-0.462709Z" fill="#2E353A"/>
<g opacity="0.3">
<path d="M-2.96831 56.2203C-3.09983 56.1339 -3.17951 55.987 -3.17951 55.8286V46.3947C-3.18047 46.3601 -3.17759 46.3246 -3.16991 46.2891C-3.15839 46.2344 -3.13823 46.1835 -3.10943 46.1374C-3.07199 46.0779 -3.02303 46.0289 -2.96639 45.9915C-2.91167 45.956 -2.84831 45.931 -2.78015 45.9214C-2.75423 45.9176 -2.72735 45.9166 -2.70047 45.9166H18.9927C19.0186 45.9166 19.0455 45.9176 19.0714 45.9214C19.1405 45.931 19.2048 45.9569 19.2605 45.9934C19.3162 46.0299 19.3642 46.0779 19.3997 46.1365C19.4285 46.1825 19.4496 46.2334 19.4611 46.2881C19.4688 46.3237 19.4717 46.3582 19.4707 46.3937V55.8277C19.4707 55.9851 19.3911 56.1329 19.2595 56.2193C19.1271 56.3057 18.961 56.3201 18.816 56.2568L8.14561 51.6171L-2.52479 56.2577C-2.58431 56.2837 -2.64767 56.2961 -2.71103 56.2961C-2.80127 56.2971 -2.89055 56.2712 -2.96831 56.2203ZM-2.24351 47.0984V55.1153L6.97249 51.1073L-2.24351 47.0984ZM9.31873 51.1073L18.5347 55.1153V47.0984L9.31873 51.1073ZM-0.462709 46.8526L8.14561 50.5966L16.7539 46.8526H-0.462709Z" fill="white"/>
</g>
<path d="M25.5351 52.1701C25.7002 52.1701 25.8606 52.0827 25.945 51.9282C26.0698 51.7016 25.9873 51.4174 25.7607 51.2926L12.4954 51.3157C12.4263 51.2773 12.3486 51.2581 12.2698 51.2581H2.68231L-4.94489 40.9083C-5.09849 40.7 -5.39129 40.6558 -5.59961 40.8094C-5.80793 40.963 -5.85209 41.2558 -5.69849 41.4632L2.06887 52.004C2.15719 52.124 2.29639 52.1941 2.44519 52.1941H12.1489L25.3095 52.1134C25.3815 52.1518 25.4583 52.1701 25.5351 52.1701Z" fill="#2E353A"/>
<g opacity="0.6">
<path d="M26.0065 52.2382C26.1716 52.2382 26.3319 52.1509 26.4164 51.9963C26.5412 51.7698 26.4586 51.4856 26.2321 51.3608L12.4945 51.3157C12.4253 51.2773 12.3476 51.2581 12.2689 51.2581H2.68231L-4.94489 40.9083C-5.09849 40.7 -5.39129 40.6558 -5.59961 40.8094C-5.80793 40.963 -5.85209 41.2558 -5.69849 41.4632L2.06887 52.004C2.15719 52.124 2.29639 52.1941 2.44519 52.1941H12.1489L25.7809 52.1816C25.8529 52.219 25.9306 52.2382 26.0065 52.2382Z" fill="white"/>
</g>
<g opacity="0.7">
<path d="M3.02082 49.6185C3.19362 49.6185 3.36738 49.5638 3.51522 49.4515C3.87522 49.1779 3.9453 48.6643 3.6717 48.3043L-4.37022 37.7222C-4.64382 37.3622 -5.15742 37.2921 -5.51742 37.5657C-5.87742 37.8393 -5.9475 38.3529 -5.6739 38.7129L2.36802 49.295C2.5293 49.5072 2.7741 49.6185 3.02082 49.6185Z" fill="white"/>
</g>
<path d="M-4.96439 32.5517C-4.88471 32.2934 -4.64951 32.0861 -4.33655 32.0861H14.658C14.8625 32.0861 15.0564 32.1821 15.1802 32.3453L24.6506 44.807C24.7745 44.9702 24.9674 45.0662 25.1729 45.0662L46.7412 45.0105C47.0042 45.1565 47.1041 45.4166 47.0743 45.6585C47.0369 45.9619 46.7902 47.2397 46.7383 47.4979C46.6807 47.7792 46.4484 48.024 46.0951 48.024L4.20457 48.0153C4.00009 48.0153 3.80617 47.9193 3.68233 47.7561L-5.18519 36.0883C-5.29463 35.9453 -5.33303 35.7801 -5.31671 35.6246C-5.31287 35.5862 -5.02199 32.7408 -4.96439 32.5517Z" fill="white"/>
<path opacity="0.2" d="M-4.96443 32.5517C-4.88475 32.2934 -4.64955 32.0861 -4.33659 32.0861H14.9834L24.8474 45.0653L46.7412 45.0096C47.0042 45.1555 47.104 45.4157 47.0743 45.6576C47.0368 45.9609 46.7901 47.2387 46.7383 47.4969C46.6807 47.7782 46.4484 48.023 46.0951 48.023H25.2439L13.3985 48.0144H4.20261C3.99813 48.0144 3.80421 47.9184 3.68037 47.7552L-5.18715 36.0873C-5.29659 35.9443 -5.33499 35.7792 -5.31867 35.6237C-5.31291 35.5862 -5.02203 32.7408 -4.96443 32.5517Z" fill="#AFAFAF"/>
<path opacity="0.2" d="M-4.84161 33.1392L4.02591 44.807C4.14975 44.9702 4.34271 45.0662 4.54815 45.0662H25.1891C24.9846 45.0662 24.7907 44.9702 24.6669 44.807L15.1965 32.3453C15.0726 32.1821 14.8797 32.0861 14.6742 32.0861H-4.32033C-4.86177 32.0861 -5.16993 32.7072 -4.84161 33.1392Z" fill="#ADADAD"/>
<path opacity="0.2" d="M25.907 48.0241H46.0775C46.403 48.0241 46.6823 47.7917 46.7419 47.4721L47.0875 45.6173C47.1489 45.2871 46.8955 44.9818 46.5585 44.9828L25.6075 45.0356C25.3204 45.0365 25.0967 45.2842 25.1255 45.5693L25.3137 47.4865C25.3444 47.7917 25.6007 48.0241 25.907 48.0241Z" fill="white"/>
<path d="M14.9873 31.8107C13.8584 30.4398 12.7246 29.0622 11.8395 27.5224C11.6667 27.2229 11.4997 26.8946 11.539 26.5384C11.5774 26.1822 11.6984 25.9269 12.0651 25.9269C13.9851 25.9298 16.3121 30.0693 16.8142 30.5243C16.8142 30.5253 15.7563 31.6437 14.9873 31.8107Z" fill="#898989"/>
<path d="M13.2196 34.9075H6.08105L6.29897 33.6701L6.33257 33.4723L6.38249 33.191L6.43241 32.904C6.44585 32.7523 6.45641 32.6006 6.46505 32.4509V32.449C6.47657 32.2704 6.48233 32.0947 6.48713 31.92C6.48713 31.8845 6.48905 31.849 6.48905 31.8144C6.49865 31.3315 6.48617 30.864 6.45929 30.4214C6.45641 30.3677 6.45257 30.313 6.44969 30.2592C6.43241 30.0288 6.41321 29.8061 6.39017 29.592C6.39017 29.5901 6.39017 29.5891 6.39017 29.5891C6.37673 29.4586 6.36233 29.3318 6.34793 29.208V29.2061C6.33641 29.1197 6.32393 29.0333 6.31337 28.9507V28.9488C6.31145 28.9373 6.30953 28.9267 6.30857 28.9142C6.30569 28.896 6.30281 28.8797 6.30089 28.8624C6.22793 28.3498 6.14537 27.9053 6.06953 27.5482C6.06953 27.5482 6.06953 27.5482 6.06953 27.5462C5.95049 26.9712 5.85065 26.6275 5.85257 26.6054C5.88137 26.327 6.08585 26.1149 6.37385 25.9526C6.37673 25.9507 6.37961 25.9498 6.38345 25.9478C6.61769 25.8144 6.90761 25.7146 7.19945 25.6397C7.20137 25.6397 7.20425 25.6397 7.20521 25.6378C7.24361 25.6291 7.28297 25.6195 7.32041 25.6109H7.32233C7.99049 25.4563 8.63177 25.4294 8.63177 25.4294C8.70281 25.4314 8.77385 25.4323 8.84585 25.4342C8.84585 25.4342 8.84585 25.4342 8.84777 25.4342C8.90057 25.4371 8.95337 25.439 9.00617 25.4419C9.01769 25.4419 9.02825 25.4438 9.04073 25.4438C9.09545 25.4458 9.15017 25.4467 9.20393 25.4496C9.65321 25.4678 10.1006 25.4986 10.5441 25.5466C10.714 25.5629 10.883 25.584 11.05 25.6061C11.0807 25.609 11.1114 25.6138 11.1422 25.6176C11.2478 25.632 11.4177 25.7021 11.6452 25.7808C11.6471 25.7808 11.65 25.7808 11.651 25.7827C11.6529 25.7827 11.6519 25.7846 11.6538 25.7846C11.6577 25.7866 11.6625 25.7875 11.6673 25.7894C11.8074 25.8374 11.9706 25.8874 12.155 25.9296H12.1578C12.2596 25.9536 12.3671 25.9728 12.4814 25.9891C12.4833 25.9891 12.4833 25.9891 12.4842 25.9891C12.49 25.991 12.4986 25.991 12.5044 25.992C12.5092 25.992 12.515 25.9949 12.5198 25.9997C12.5217 25.9997 12.5226 25.9997 12.5236 26.0016C12.5802 26.0458 12.6724 26.2426 12.7722 26.5296C12.9527 27.0499 13.162 27.8659 13.2561 28.5936V28.5955C13.2647 28.6637 13.2724 28.7309 13.2782 28.7981C13.281 28.8144 13.283 28.8307 13.283 28.849C13.2906 28.9142 13.2954 28.9795 13.2974 29.0438C13.3002 29.0621 13.3012 29.0813 13.3012 29.1005C13.3031 29.1302 13.3031 29.161 13.305 29.1907V29.1926C13.3089 29.3722 13.3022 29.5363 13.2772 29.6774C13.2705 29.7254 13.2599 29.7696 13.2494 29.8109C13.2062 29.9347 13.1668 30.0432 13.1332 30.1363V30.1382C13.1332 30.143 13.1313 30.1459 13.1294 30.1498C13.0919 30.2573 13.0602 30.3446 13.0343 30.4186C13.0324 30.4214 13.0305 30.4243 13.0305 30.4272C13.0132 30.4733 12.9988 30.5146 12.9854 30.5491V30.551C12.9345 30.6922 12.9162 30.743 12.9162 30.743C13.1121 31.2787 13.2426 31.7664 13.3233 32.2061C13.3655 32.423 13.3934 32.6285 13.4116 32.8234C13.427 32.975 13.4366 33.119 13.4394 33.2563C13.4663 34.009 13.3406 34.559 13.2196 34.9075Z" fill="#898989"/>
<path d="M46.9158 44.955H25.4569C24.5689 44.955 23.8028 45.5799 23.6281 46.4497C23.317 48.001 22.6642 50.3022 21.4431 51.0615C19.5423 52.2452 19.5663 53.8493 18.8079 53.8493C18.0514 53.8493 3.78583 50.7534 2.21527 50.403C0.64375 50.0526 2.22199 44.8618 2.22199 44.8618C2.22199 44.8618 2.02231 38.9598 3.76663 36.5473C5.51095 34.1367 12.7897 32.7764 14.0396 33.0836C15.2886 33.3898 16.8495 34.9594 16.8361 35.403C16.8246 35.8455 16.6479 35.8916 16.6479 35.8916C16.6479 35.8916 18.71 36.4157 19.5423 36.5031C20.3756 36.5914 24.3106 36.0538 25.237 36.2785C26.1634 36.5031 36.4431 41.8196 36.4431 41.8196C36.4431 41.8196 38.1337 40.7386 39.0985 41.0766C40.0642 41.4145 40.9426 41.2426 41.6204 41.306C42.3001 41.3693 44.2076 43.8778 44.6233 43.9575C46.5538 44.3214 46.9158 44.955 46.9158 44.955Z" fill="#545556"/>
<path opacity="0.2" d="M44.8057 43.9594C44.8057 43.9594 43.7977 44.0458 43.0969 43.7204C42.3951 43.393 41.0799 43.827 39.8963 43.9594C38.7107 44.091 28.8015 43.8711 26.0396 43.7204C23.2767 43.5687 23.4073 44.0026 22.8428 44.617C22.2774 45.2305 21.4345 49.178 20.5235 49.563C19.6105 49.9489 17.7951 52.1146 17.7423 52.203C17.6895 52.2913 10.2543 50.6679 9.3577 50.3607C8.46298 50.0535 3.14938 49.7905 3.1465 48.7383C3.1417 47.6862 4.07098 45.5377 3.81466 44.9559C3.55834 44.3742 4.64122 37.6455 5.51866 37.1511C6.39514 36.6586 13.3225 33.9601 13.8735 34.0052C14.4236 34.0484 15.3404 34.3988 15.8607 34.7415C16.3811 35.0823 16.8313 35.8916 16.8313 35.8916C16.8313 35.8916 18.8934 36.4158 19.7257 36.5031C20.559 36.5914 24.494 36.0538 25.4204 36.2785C26.3468 36.5031 36.6265 41.8196 36.6265 41.8196C36.6265 41.8196 38.3171 40.7386 39.2819 41.0766C40.2476 41.4145 41.126 41.2426 41.8038 41.306C42.4835 41.3703 44.39 43.8788 44.8057 43.9594Z" fill="#909293"/>
<path opacity="0.2" d="M16.4907 36.0096C16.4907 36.0096 15.14 34.0916 13.0827 35.1447C11.9086 35.7456 8.07917 37.9076 7.93517 38.6084C7.79117 39.3101 7.74317 38.7399 9.38957 38.6084C11.036 38.4768 12.1764 34.442 15.6776 36.2976C16.4408 36.7028 18.0958 36.482 18.0958 36.482L16.4907 36.0096Z" fill="black"/>
<path opacity="0.2" d="M36.4431 41.8214C36.4431 41.8214 33.4767 42.9974 32.4629 42.7738C27.997 41.7888 20.6252 43.8768 21.9173 43.2941C27.8808 40.6022 23.9381 38.5853 29.1884 40.5302C31.5058 41.3885 31.8591 42.3043 33.9682 41.6774C35.5253 41.2157 36.4431 41.8214 36.4431 41.8214Z" fill="black"/>
<path opacity="0.2" d="M24.217 36.5838C23.2752 38.3953 16.944 38.5422 14.4922 41.0199C14.9347 40.106 16.7962 38.019 18.8391 37.8884C18.4944 37.4871 16.3085 37.8884 14.4922 37.6014C20.1255 36.6654 22.5207 36.2113 24.217 36.5838Z" fill="black"/>
<path opacity="0.2" d="M6.46387 32.451C6.46387 32.451 6.60403 33.0366 6.82387 33.315C6.89875 33.4101 7.43347 33.9438 7.96051 34.1387C8.22355 34.0456 8.16883 34.0763 8.41555 33.9928C9.38227 34.3096 10.5851 34.6206 11.4299 34.6888C11.5797 34.6706 11.6776 34.6283 11.7439 34.5698C11.7439 34.5698 12.9947 34.7618 13.2578 34.7435C13.5208 34.7262 14.2639 34.4219 14.3906 34.3806C14.5173 34.3394 14.6248 34.1704 14.5941 34.0888C14.5634 34.0072 14.5298 33.9189 14.5298 33.9189L14.4232 33.8411L11.3407 34.132L6.48595 31.0917C6.49267 31.5592 6.48595 32.0123 6.46387 32.451Z" fill="black"/>
<path opacity="0.2" d="M12.9661 27.1575C13.1053 27.5559 13.3049 28.1223 13.4576 28.1828C13.7504 27.937 13.9837 27.8064 14.2813 27.8256L15.1721 28.5764C15.199 28.6983 15.2317 28.8183 15.1721 28.9565L15.6454 29.4931C16.0064 29.6583 15.992 30.552 15.5408 30.4925L14.8361 31.0435L12.4745 31.0925L10.7974 31.6896L8.36286 31.608L8.16895 29.0717L8.78143 31.1779C9.48127 30.8323 10.3328 31.3959 10.4854 31.1779C10.5862 31.0339 11.4953 30.48 11.9552 30.3207C12.416 30.1613 12.559 29.4231 12.559 29.4231C12.6493 29.0362 12.8931 28.1943 13.1734 28.008C13.1177 27.7891 13.0918 27.7191 12.9661 27.1575Z" fill="black"/>
<path d="M8.92492 33.0241C8.3518 32.6612 7.96876 32.1668 8.44396 31.4804C8.83852 30.9112 9.70828 31.1022 10.1652 31.2548C10.3284 31.3096 10.5204 31.2635 10.6443 31.13C10.8497 30.9092 11.2366 30.5953 11.8481 30.4724C12.0248 30.4369 12.186 30.338 12.2878 30.1883C12.6728 29.6209 13.7124 28.2894 14.7204 28.7742C15.9896 29.3848 15.4942 31.4555 13.6414 32.6536C11.7886 33.8516 9.88012 33.6299 8.92492 33.0241Z" fill="#D1D2D3"/>
<path opacity="0.2" d="M10.6765 31.3682C10.9837 31.4478 11.5194 31.6139 11.9437 31.8818C12.0003 31.9173 12.0752 31.8568 12.0522 31.7954C11.9427 31.5035 11.6173 31.0139 10.689 31.2347C10.617 31.252 10.6083 31.3499 10.6765 31.3682Z" fill="black"/>
<path opacity="0.2" d="M12.3574 30.3764C12.4764 30.4081 12.6655 30.4628 12.8911 30.5463C12.9593 30.5713 13.0294 30.4983 12.9977 30.435C12.9295 30.2948 12.7644 30.1422 12.3593 30.2871C12.3151 30.3034 12.3132 30.3649 12.3574 30.3764Z" fill="black"/>
<path opacity="0.2" d="M13.0115 33.0049C11.3661 33.7998 9.76574 33.5636 8.91614 33.0251C8.34302 32.6622 7.95998 32.1688 8.43518 31.4814C8.48318 31.4104 8.54078 31.3518 8.60318 31.3019C9.03422 31.6955 10.2256 33.9112 13.0115 33.0049Z" fill="black"/>
<path d="M15.1715 28.7012C15.1974 28.2001 14.799 27.8075 14.2816 27.8248C13.7555 27.8401 13.3389 28.3153 13.0989 28.8088C13.0672 28.8404 13.0374 28.8712 13.0096 28.9028C12.543 29.4251 12.8089 30.1499 13.4944 30.2603C13.5126 30.2641 13.5309 30.267 13.5491 30.2699C13.5501 30.2699 13.552 30.2708 13.5529 30.2708C13.7296 30.2968 13.9273 30.2747 14.128 30.1873C14.5917 29.9848 14.7184 29.7217 15.0505 29.1131C15.1225 28.9835 15.1638 28.8433 15.1715 28.7012Z" fill="#F4CDB8"/>
<path d="M14.0962 28.7474C14.1001 28.7493 14.1049 28.7493 14.1097 28.7493C14.1241 28.7445 14.1327 28.7311 14.1308 28.7176C14.1164 28.637 14.0617 28.5717 13.9849 28.541C13.9714 28.5362 13.9551 28.5439 13.9503 28.5583C13.9446 28.5717 13.9513 28.5861 13.9647 28.5909C14.0252 28.6159 14.0674 28.6677 14.078 28.732C14.0809 28.7397 14.0876 28.7455 14.0962 28.7474Z" fill="#2E353A"/>
<path d="M13.2971 28.4372C13.3058 28.4391 13.3154 28.4372 13.3221 28.4314C13.3739 28.3863 13.444 28.3652 13.5093 28.3758C13.5237 28.3796 13.5381 28.371 13.5429 28.3575C13.5477 28.3441 13.54 28.3297 13.5266 28.3258C13.444 28.3105 13.3547 28.3354 13.2875 28.394C13.276 28.4036 13.2741 28.419 13.2827 28.4295C13.2827 28.4295 13.2827 28.4295 13.2837 28.4305C13.2866 28.4334 13.2914 28.4362 13.2971 28.4372Z" fill="#2E353A"/>
<path opacity="0.2" d="M13.0759 28.9278C13.1575 28.9413 13.2065 29.0161 13.1854 29.0968C13.1652 29.1765 13.0827 29.2312 13.0011 29.2177C12.9195 29.2043 12.8705 29.1294 12.8916 29.0488C12.9127 28.9691 12.9943 28.9144 13.0759 28.9278Z" fill="#BA4D3C"/>
<path opacity="0.2" d="M13.6463 29.1706C13.7279 29.1841 13.7768 29.2589 13.7557 29.3396C13.7355 29.4193 13.653 29.474 13.5714 29.4605C13.4898 29.4471 13.4408 29.3722 13.4619 29.2916C13.4831 29.2119 13.5656 29.1581 13.6463 29.1706Z" fill="#BA4D3C"/>
<path d="M13.3739 28.7933C13.3403 28.8384 13.2875 28.8586 13.2577 28.8375C13.228 28.8164 13.2309 28.7626 13.2654 28.7175C13.299 28.6724 13.3518 28.6522 13.3816 28.6733C13.4113 28.6944 13.4085 28.7482 13.3739 28.7933Z" fill="#2E353A"/>
<path d="M13.3932 28.6849L13.3068 28.5754C13.3068 28.5764 13.2991 28.7012 13.3932 28.6849Z" fill="#2E353A"/>
<path d="M13.8153 28.995C13.7817 29.0401 13.7289 29.0603 13.6992 29.0391C13.6694 29.018 13.6723 28.9643 13.7068 28.9191C13.7404 28.874 13.7932 28.8539 13.823 28.875C13.8528 28.8961 13.8499 28.9489 13.8153 28.995Z" fill="#2E353A"/>
<path d="M13.8339 28.8865L13.7475 28.7771C13.7466 28.7771 13.7399 28.9019 13.8339 28.8865Z" fill="#2E353A"/>
<path d="M12.8608 30.2642C13.479 29.9033 14.6214 29.3206 15.3405 29.4713C15.4643 29.4972 15.5507 29.598 15.569 29.7199C15.5853 29.8294 15.591 29.9801 15.5565 30.1606C15.5171 30.3602 15.3184 30.4908 15.1206 30.4495C14.7194 30.365 13.9504 30.269 12.9146 30.437C12.809 30.4543 12.7667 30.3199 12.8608 30.2642Z" fill="#C6C6C6"/>
<path opacity="0.2" d="M10.1595 32.7812C10.533 32.5422 10.9544 32.3704 11.5381 32.2504C12.0459 32.3387 12.524 32.3032 12.8091 32.3934C13.2757 32.3483 14.2942 31.3374 15.3118 30.6299L12.7755 32.9416L9.95312 33.0596L10.1595 32.7812Z" fill="black"/>
<path d="M9.03604 25.4105C8.44948 25.4441 8.43508 25.7983 8.47732 26.1804C8.5666 26.982 9.55924 27.4092 10.382 27.3986C11.9708 27.3784 11.9064 25.8952 11.653 25.7839C10.7775 25.398 9.92692 25.3596 9.03604 25.4105Z" fill="#F4CDB8"/>
<path d="M10.7344 27.2873C10.434 27.4774 10.2477 27.3574 9.977 27.1721C8.33828 26.1593 9.13508 25.3932 9.13508 25.3932C9.59972 25.0601 9.75716 24.582 9.84548 23.8217C9.84932 23.7996 9.85412 23.7785 9.86084 23.7574C9.88868 23.6604 9.94628 23.5721 10.025 23.503C10.2429 23.3119 10.5636 23.3158 10.744 23.5107L11.5024 23.9004L11.5034 23.9014C11.4996 23.9139 11.4967 23.9244 11.4928 23.9369C11.3767 24.3391 11.2749 24.6492 11.2058 24.894C11.1972 24.9247 11.1895 24.9545 11.1808 24.9833C11.1799 24.9852 11.1799 24.9862 11.1799 24.9871C11.1722 25.0188 11.1645 25.0486 11.1568 25.0793C11.0772 25.4191 11.0973 25.6131 11.297 25.7753C11.4247 25.8799 11.7472 26.646 10.7344 27.2873Z" fill="#F4CDB8"/>
<path opacity="0.2" d="M11.5047 23.8984C11.5047 23.8994 11.5037 23.9003 11.5037 23.9013C11.497 23.9138 11.4951 23.9262 11.4941 23.9378C11.3779 24.34 11.2762 24.6501 11.2071 24.8949C11.1965 24.9246 11.1888 24.9544 11.1821 24.9842C11.1811 24.9861 11.1811 24.987 11.1811 24.988C11.1735 25.0197 11.1687 25.0523 11.1658 25.083C11.1639 25.0821 11.1216 25.3086 11.1197 25.3077C10.5466 25.0178 10.1184 24.3918 9.8477 23.8216C9.84674 23.8206 9.86114 23.7544 9.86018 23.7525C9.88898 23.6555 9.94562 23.5672 10.0243 23.4981C10.2423 23.307 10.5639 23.3099 10.7434 23.5048L11.5047 23.8984Z" fill="black"/>
<path d="M12.4351 19.9327C13.8146 20.4386 13.9874 21.3401 13.566 22.7983C13.0399 24.6204 12.1836 25.7378 10.5986 24.726C8.4463 23.3513 10.1445 19.0917 12.4351 19.9327Z" fill="#F4CDB8"/>
<path d="M12.2374 21.0136C12.2374 21.0136 11.8687 20.8206 11.5625 21.0021" stroke="#2E353A" stroke-width="0.0808224" stroke-miterlimit="10" stroke-linecap="round" stroke-linejoin="round"/>
<path d="M13.2607 21.3237C13.2607 21.3237 13.5372 21.3228 13.7686 21.6386" stroke="#2E353A" stroke-width="0.0808224" stroke-miterlimit="10" stroke-linecap="round" stroke-linejoin="round"/>
<path d="M10.0748 21.7039C10.0748 21.7039 11.1356 20.8072 11.3593 19.8972C11.3593 19.8972 14.5023 19.7839 13.6182 22.6072C13.6182 22.6072 14.7894 20.2418 12.4383 19.3173C10.0911 18.3938 8.8249 21.8642 9.6697 23.3464C9.67066 23.3464 9.41626 22.2664 10.0748 21.7039Z" fill="#2E353A"/>
<path d="M10.1933 22.0773C10.2653 21.8517 10.1741 21.3919 9.74502 21.2853C9.30054 21.1749 8.77446 21.9775 9.76038 22.5784C9.9015 22.6658 10.0426 22.5477 10.1933 22.0773Z" fill="#F4CDB8"/>
<path d="M12.3686 20.0267C12.3686 20.0267 10.8883 22.2866 9.56159 21.5387C8.04191 20.6815 10.224 18.724 11.4029 18.9218C11.4029 18.9218 14.0573 18.8978 14.7533 20.5586C15.4493 22.2194 13.6176 22.6082 13.6176 22.6082C13.6176 22.6082 14.352 20.8821 12.3686 20.0267Z" fill="#2E353A"/>
<path d="M10.6851 21.6454C10.662 21.6454 10.6419 21.6281 10.6399 21.6041C10.6371 21.5792 10.6563 21.5571 10.6812 21.5542C11.9638 21.4304 12.367 19.8646 12.3718 19.8483C12.3775 19.8243 12.4025 19.8089 12.4275 19.8147C12.4524 19.8204 12.4668 19.8454 12.4611 19.8704C12.4572 19.8867 12.0377 21.5148 10.6908 21.6444C10.6879 21.6454 10.687 21.6454 10.6851 21.6454Z" fill="#2E353A"/>
<path d="M11.7305 23.1793C11.7305 23.1793 11.7516 23.4568 12.0281 23.6545" stroke="#2E353A" stroke-width="0.0438528" stroke-miterlimit="10" stroke-linecap="round" stroke-linejoin="round"/>
<path d="M11.731 21.9315C11.6897 22.0496 11.7176 22.1687 11.7934 22.1975C11.8692 22.2263 11.9633 22.1543 12.0046 22.0362C12.0459 21.9181 12.018 21.7991 11.9422 21.7703C11.8664 21.7415 11.7723 21.8135 11.731 21.9315Z" fill="#2E353A"/>
<path d="M11.9072 21.7634L12.2135 21.7874C12.2144 21.7874 11.9946 21.9545 11.9072 21.7634Z" fill="#2E353A"/>
<path d="M12.9898 22.4441C12.9485 22.5621 12.9764 22.6812 13.0522 22.71C13.128 22.7388 13.2221 22.6668 13.2634 22.5487C13.3047 22.4306 13.2768 22.3116 13.201 22.2828C13.1261 22.253 13.0311 22.326 12.9898 22.4441Z" fill="#2E353A"/>
<path d="M13.165 22.276L13.4713 22.3C13.4722 22.3 13.2524 22.467 13.165 22.276Z" fill="#2E353A"/>
<path d="M8.90475 18.3851C8.57739 18.8411 8.62731 19.4363 9.01611 19.7157C9.40491 19.995 9.98571 19.852 10.3131 19.396C10.6404 18.94 10.5905 18.3448 10.2017 18.0654C9.81291 17.7861 9.23211 17.9291 8.90475 18.3851Z" fill="#2E353A"/>
<path d="M10.3451 19.2136C10.3451 19.2136 10.6773 19.0542 10.6465 18.5147C10.6158 17.9752 10.084 17.9233 10.084 17.9233C10.084 17.9233 10.5313 18.0337 10.5582 18.5224C10.5851 19.011 10.3451 19.2136 10.3451 19.2136Z" fill="#2E353A"/>
<path d="M8.44727 18.9554C8.44727 18.9554 8.48183 18.4792 9.17015 18.0894C9.85943 17.6997 10.1868 18.2219 10.1868 18.2219C10.1868 18.2219 9.82775 17.8341 9.20471 18.1883C8.58263 18.5426 8.44727 18.9554 8.44727 18.9554Z" fill="#2E353A"/>
<path d="M16.1713 30.2411C14.7399 30.604 14.0276 32.1371 12.626 32.6238C12.6692 32.8514 12.6625 33.2603 12.8257 33.4207C14.8369 33.1048 16.0263 32.38 16.6801 31.7992C17.2138 31.325 17.042 30.9218 16.9162 30.6798C16.7895 30.4379 16.4573 30.1691 16.1713 30.2411Z" fill="#898989"/>
<path d="M12.5974 32.5423C12.3008 32.4904 11.4896 32.3042 11.4896 32.3042L10.4748 32.6172C10.28 32.6776 10.1331 32.8437 10.1033 33.0367L10.0467 33.3996C10.0073 33.6511 10.1772 33.8719 10.4326 33.9007L11.2457 33.9938L12.823 33.4428C12.823 33.4428 13.4268 32.6872 12.5974 32.5423Z" fill="#F4CDB8"/>
<path opacity="0.2" d="M10.2235 32.7814C10.7668 33.0905 11.3457 33.4275 11.7671 33.5542C11.7671 33.5542 12.7444 33.0761 13.0055 33.1068C13.2667 33.1375 13.6948 33.2489 13.6948 33.2489L11.5396 33.7596L10.1572 32.8726L10.2235 32.7814Z" fill="black"/>
<path d="M8.78301 32.6805C8.42205 31.3998 8.16765 29.1573 8.04573 27.9006C7.97949 27.2219 7.61853 26.6133 7.07517 26.2696L7.07037 26.2667C6.26109 25.9144 5.98173 26.1314 5.84733 26.5816C5.53917 27.6155 6.36093 31.371 6.65373 32.3406C6.83901 32.955 7.43517 33.3016 8.01021 33.123C8.30589 33.0318 8.59677 32.8926 8.78301 32.6805Z" fill="#898989"/>
<path d="M7.70677 31.6216C9.29749 31.8357 10.3708 33.2613 11.9212 33.6213C11.8597 33.8872 11.9106 34.541 11.5189 34.5707C11.5189 34.5707 8.05237 34.0446 6.93877 32.8619C6.72757 32.6373 6.84469 32.2254 6.99925 31.9317C7.15477 31.6379 7.38901 31.5784 7.70677 31.6216Z" fill="#898989"/>
<path d="M11.8487 33.5608C12.0244 33.4907 12.3824 33.3323 12.6397 33.2171C12.8317 33.1317 13.042 33.1105 13.2368 33.1566L14.1767 33.3822C14.2736 33.4053 14.3456 33.4782 14.3668 33.5733L14.4685 34.0379C14.4992 34.18 14.408 34.3297 14.2602 34.3797L13.4797 34.6398C13.3444 34.6849 13.2013 34.6993 13.065 34.6821L11.6768 34.5035C11.6759 34.5035 11.0336 33.8843 11.8487 33.5608Z" fill="#F4CDB8"/>
<path d="M24.8057 44.9895V57.7315C24.8057 58.2375 25.0937 58.6464 25.4469 58.6464H46.0821C46.4364 58.6464 46.7244 58.2375 46.7244 57.7315V44.9895C46.7244 44.4835 46.4364 44.0746 46.0821 44.0746H25.4469C25.0937 44.0736 24.8057 44.4835 24.8057 44.9895ZM42.3545 46.0925C42.3545 45.6279 42.6185 45.2496 42.9458 45.2496H45.0377C45.2018 45.2496 45.3487 45.3447 45.4553 45.4973C45.5618 45.6499 45.629 45.8611 45.629 46.0935C45.629 46.56 45.365 46.9363 45.0377 46.9363H42.9458C42.7826 46.9363 42.6348 46.8432 42.5282 46.6887C42.4197 46.536 42.3545 46.3248 42.3545 46.0925ZM25.901 46.0925C25.901 45.6279 26.165 45.2496 26.4905 45.2496H28.5833C28.7465 45.2496 28.8943 45.3447 29.0009 45.4973C29.1074 45.6499 29.1746 45.8611 29.1746 46.0935C29.1746 46.56 28.9097 46.9363 28.5833 46.9363H26.4905C26.3273 46.9363 26.1804 46.8432 26.0729 46.6887C25.9682 46.536 25.901 46.3248 25.901 46.0925Z" fill="#6B6B6B"/>
<path opacity="0.6" d="M24.8057 57.7315C24.8057 58.2375 25.0937 58.6464 25.4469 58.6464H46.0821C46.4364 58.6464 46.7244 58.2375 46.7244 57.7315V44.9895C46.7244 44.4835 46.4364 44.0746 46.0821 44.0746H25.4469C25.0937 44.0746 24.8057 44.4835 24.8057 44.9895M42.3545 46.0925C42.3545 45.6279 42.6185 45.2496 42.9458 45.2496H45.0377C45.2018 45.2496 45.3487 45.3447 45.4553 45.4973C45.5618 45.6499 45.629 45.8611 45.629 46.0935C45.629 46.56 45.365 46.9363 45.0377 46.9363H42.9458C42.7826 46.9363 42.6348 46.8432 42.5282 46.6887C42.4197 46.536 42.3545 46.3248 42.3545 46.0925ZM25.901 46.0925C25.901 45.6279 26.165 45.2496 26.4905 45.2496H28.5833C28.7465 45.2496 28.8943 45.3447 29.0009 45.4973C29.1074 45.6499 29.1746 45.8611 29.1746 46.0935C29.1746 46.56 28.9097 46.9363 28.5833 46.9363H26.4905C26.3273 46.9363 26.1804 46.8432 26.0729 46.6887C25.9682 46.536 25.901 46.3248 25.901 46.0925Z" fill="#6D6D6D"/>
<path d="M25.1494 44.9895V57.7315C25.1494 58.2375 25.4374 58.6464 25.7907 58.6464H46.4269C46.7811 58.6464 47.0691 58.2375 47.0691 57.7315V44.9895C47.0691 44.4835 46.7811 44.0746 46.4269 44.0746H25.7917C25.4374 44.0736 25.1494 44.4835 25.1494 44.9895ZM42.6992 46.0925C42.6992 45.6279 42.9632 45.2496 43.2905 45.2496H45.3824C45.5465 45.2496 45.6934 45.3447 45.8 45.4973C45.9065 45.6499 45.9728 45.8611 45.9728 46.0935C45.9728 46.56 45.7088 46.9363 45.3814 46.9363H43.2896C43.1264 46.9363 42.9785 46.8432 42.872 46.6887C42.7645 46.536 42.6992 46.3248 42.6992 46.0925ZM26.2457 46.0925C26.2457 45.6279 26.5097 45.2496 26.8352 45.2496H28.928C29.0912 45.2496 29.239 45.3447 29.3456 45.4973C29.4521 45.6499 29.5193 45.8611 29.5193 46.0935C29.5193 46.56 29.2544 46.9363 28.928 46.9363H26.8352C26.672 46.9363 26.5251 46.8432 26.4176 46.6887C26.312 46.536 26.2457 46.3248 26.2457 46.0925Z" fill="#353535"/>
<path opacity="0.2" d="M30.3844 21.2631L29.1162 25.0042L28.834 20.9031L30.3844 21.2631Z" fill="black"/>
<path d="M23.0066 15.6912L22.6562 13.7453L22.4142 12.5309C22.3499 12.2074 22.5525 11.8906 22.8731 11.8138L23.1534 11.7466C23.2984 11.712 23.4501 11.7312 23.5816 11.7994L23.7794 11.903C23.9906 12.0134 24.1182 12.2371 24.1077 12.4752L24.0789 13.1126C24.076 13.1837 24.0606 13.2528 24.0328 13.319L23.7448 14.0189L24.147 15.3984L23.0066 15.6912Z" fill="#F4CDB8"/>
<path d="M30.9923 19.9805C30.9942 19.7722 30.903 19.5725 30.7446 19.439C30.1149 18.9072 26.4016 20.0621 25.7373 19.0502C24.447 17.0842 24.0515 14.328 24.0515 14.328L22.623 14.6851C22.623 14.6851 22.8294 19.0848 23.9171 20.9722C24.8099 22.5216 30.2234 22.2336 30.4403 22.0646C30.7734 21.8035 30.9789 21.2314 30.9923 19.9805Z" fill="#5B5B5B"/>
<path opacity="0.4" d="M28.5906 18.455C28.5906 18.4329 28.5801 18.3811 28.5801 18.3657Z" fill="white"/>
<path opacity="0.4" d="M30.6907 15.2851C30.6917 15.2889 30.7253 15.3897 30.7454 15.4013C30.7598 15.4089 30.7742 15.4195 30.7858 15.4502C30.7944 15.4742 30.7963 15.4761 30.7992 15.4896C30.8059 15.5174 30.8002 15.6 30.8146 15.6336C30.829 15.6672 30.8347 15.6902 30.828 15.7027C30.8213 15.7152 30.7502 15.7891 30.7358 15.8246C30.7205 15.8601 30.6542 15.9792 30.6629 16.0195C30.6715 16.0598 30.7157 16.2537 30.7301 16.2864C30.7445 16.319 30.7877 16.3776 30.7915 16.4045C30.7954 16.4313 30.8126 16.4889 30.8194 16.4947C30.8261 16.5005 30.8309 16.5024 30.8376 16.5014C30.8443 16.5005 30.8472 16.4947 30.8443 16.4918C30.8424 16.4889 30.828 16.4861 30.8222 16.4726C30.8174 16.4592 30.8165 16.4064 30.8126 16.3939C30.805 16.3718 30.7426 16.2912 30.7397 16.2768C30.7368 16.2624 30.6811 16.0185 30.6792 16.007C30.6782 15.9955 30.7406 15.8457 30.7522 15.8313C30.7627 15.816 30.8501 15.7229 30.8558 15.7037C30.8616 15.6845 30.8386 15.6269 30.8357 15.6173C30.8338 15.6105 30.8251 15.5126 30.8098 15.4406C30.8088 15.4377 30.8117 15.4051 30.8318 15.3869C30.8424 15.3773 30.8645 15.3417 30.8645 15.3398C30.8616 15.3273 30.8011 15.3273 30.7714 15.3177C30.7502 15.3101 30.6898 15.2784 30.6907 15.2851Z" fill="white"/>
<path d="M31.6063 16.3019C31.6054 16.2942 31.4998 16.3028 31.3308 16.3239C31.2886 16.3297 31.2473 16.3326 31.2338 16.3095C31.2175 16.2865 31.2252 16.2443 31.2348 16.1982C31.2521 16.1031 31.2703 16.0033 31.2895 15.8987C31.3634 15.4734 31.4076 15.1278 31.3884 15.1259C31.3682 15.1249 31.2924 15.4676 31.2185 15.8929C31.2012 15.9975 31.1849 16.0974 31.1686 16.1924C31.1628 16.2366 31.1474 16.2884 31.182 16.3364C31.2002 16.3604 31.2358 16.3719 31.2636 16.3719C31.2924 16.3729 31.3154 16.3671 31.3366 16.3633C31.5046 16.3335 31.6073 16.3105 31.6063 16.3019Z" fill="#2E353A"/>
<path d="M12.1231 23.208C12.125 23.2013 12.1989 23.2215 12.3151 23.2589C12.3439 23.2695 12.3736 23.2762 12.3871 23.2589C12.4034 23.2416 12.4053 23.2061 12.4072 23.1677C12.412 23.088 12.4178 23.0045 12.4236 22.9172C12.4504 22.562 12.4831 22.2749 12.4975 22.2759C12.5119 22.2768 12.5023 22.5658 12.4754 22.921C12.4677 23.0084 12.461 23.0919 12.4552 23.1716C12.4514 23.208 12.4524 23.2522 12.4188 23.2877C12.4015 23.305 12.3736 23.3108 12.3535 23.3069C12.3333 23.304 12.317 23.2973 12.3036 23.2916C12.1893 23.2455 12.1212 23.2138 12.1231 23.208Z" fill="#2E353A"/>
<path opacity="0.4" d="M32.0145 15.2495C32.0145 15.2495 31.9473 15.2563 31.9473 15.2649C31.9473 15.2678 31.978 15.2937 31.978 15.2966C31.978 15.3014 32.0337 15.3283 32.0337 15.335C32.0337 15.3782 32.0337 15.4339 32.0337 15.4655C32.0337 15.5135 32.0145 15.5731 32.0164 15.598C32.0173 15.623 32.0404 15.7199 32.0337 15.7516C32.0269 15.7833 32.0289 16.0108 32.0106 16.0415C31.9924 16.0713 31.9828 16.2047 32.0231 16.1721C32.0625 16.1395 32.0356 16.0012 32.05 15.9743C32.0644 15.9475 32.0615 15.7737 32.0615 15.7382C32.0615 15.7027 32.0433 15.6172 32.0433 15.5913C32.0433 15.5654 32.0586 15.4809 32.0586 15.455C32.0586 15.4377 32.0586 15.4051 32.0586 15.3599C32.0586 15.358 32.0951 15.3369 32.1009 15.3244C32.1095 15.3043 32.1748 15.1967 32.1748 15.1929C32.1748 15.1804 32.0567 15.239 32.0567 15.239L32.0145 15.2495Z" fill="white"/>
<path opacity="0.6" d="M5.84636 26.5814C5.5382 27.6153 6.35996 31.3709 6.65276 32.3405Z" fill="#898989"/>
<path d="M13.3919 29.1705C13.3929 29.1686 13.3583 29.1551 13.3026 29.134C13.2882 29.1292 13.2757 29.1235 13.2748 29.1158C13.2729 29.1081 13.2815 29.0995 13.2911 29.0899C13.3103 29.0707 13.3295 29.0505 13.3506 29.0294C13.4341 28.942 13.4965 28.8691 13.4908 28.8662C13.485 28.8633 13.4121 28.9305 13.3285 29.0179C13.3084 29.039 13.2892 29.0601 13.2709 29.0793C13.2633 29.0889 13.2508 29.0985 13.2546 29.1148C13.2565 29.1235 13.2661 29.1311 13.2748 29.135C13.2834 29.1398 13.2921 29.1417 13.2988 29.1436C13.3554 29.1628 13.3909 29.1724 13.3919 29.1705Z" fill="#2E353A"/>
<path d="M13.2848 29.3654C13.2934 29.3692 13.303 29.373 13.3097 29.3807C13.3155 29.3874 13.3184 29.397 13.3193 29.4057C13.3241 29.446 13.302 29.4815 13.2675 29.4921C13.2329 29.5026 13.1868 29.4873 13.1561 29.4556C13.1254 29.4239 13.1043 29.3711 13.1321 29.3087C13.1782 29.327 13.2368 29.3462 13.2848 29.3654Z" fill="white"/>
<path opacity="0.7" d="M25.1494 44.9895V57.7315C25.1494 58.2375 25.4374 58.6464 25.7907 58.6464H46.4269C46.7811 58.6464 47.0691 58.2375 47.0691 57.7315V44.9895C47.0691 44.4835 46.7811 44.0746 46.4269 44.0746H25.7917C25.4374 44.0736 25.1494 44.4835 25.1494 44.9895ZM42.6992 46.0925C42.6992 45.6279 42.9632 45.2496 43.2905 45.2496H45.3824C45.5465 45.2496 45.6934 45.3447 45.8 45.4973C45.9065 45.6499 45.9728 45.8611 45.9728 46.0935C45.9728 46.56 45.7088 46.9363 45.3814 46.9363H43.2896C43.1264 46.9363 42.9785 46.8432 42.872 46.6887C42.7645 46.536 42.6992 46.3248 42.6992 46.0925ZM26.2457 46.0925C26.2457 45.6279 26.5097 45.2496 26.8352 45.2496H28.928C29.0912 45.2496 29.239 45.3447 29.3456 45.4973C29.4521 45.6499 29.5193 45.8611 29.5193 46.0935C29.5193 46.56 29.2544 46.9363 28.928 46.9363H26.8352C26.672 46.9363 26.5251 46.8432 26.4176 46.6887C26.312 46.536 26.2457 46.3248 26.2457 46.0925Z" fill="#A8A8A8"/>
<path opacity="0.56" d="M20.3094 18.6019C19.5338 18.6509 19.3619 19.2672 19.36 19.2739C19.3542 19.2691 18.8579 18.8669 18.1965 19.2749C17.5322 19.6858 18.0573 20.5622 18.111 20.6621C18.2656 20.9482 19.0317 21.5424 20.1414 21.7296C20.9382 20.9357 21.209 19.9834 21.1802 19.6848C21.1706 19.5715 21.089 18.553 20.3094 18.6019Z" fill="#A8A8A8"/>
<path opacity="0.56" d="M35.3758 22.5945C34.9678 22.6205 34.8775 22.944 34.8766 22.9478C34.8737 22.9459 34.6126 22.7337 34.265 22.9478C33.9156 23.1638 34.1921 23.6246 34.2199 23.6774C34.3015 23.8281 34.7038 24.1401 35.2874 24.239C35.707 23.8214 35.849 23.3203 35.8337 23.1638C35.8289 23.1043 35.7857 22.5686 35.3758 22.5945Z" fill="#3F3F3F"/>
<path opacity="0.56" d="M35.4695 22.4102C34.9703 22.4418 34.8599 22.8383 34.8579 22.8431C34.8541 22.8402 34.5344 22.581 34.1091 22.8441C33.681 23.1081 34.0199 23.6726 34.0544 23.7369C34.1543 23.9212 34.6477 24.3042 35.3619 24.4242C35.8755 23.9126 36.0493 23.3001 36.0311 23.1071C36.0243 23.0342 35.9715 22.3785 35.4695 22.4102Z" fill="#3F3F3F"/>
<path opacity="0.56" d="M35.6202 22.104C34.9713 22.1453 34.8273 22.6608 34.8254 22.6666C34.8206 22.6627 34.4049 22.3257 33.8519 22.6675C33.2961 23.0112 33.7358 23.7446 33.7809 23.8282C33.9105 24.0682 34.5518 24.5645 35.4801 24.721C36.1473 24.0566 36.3729 23.2598 36.3498 23.0093C36.3412 22.9152 36.273 22.0627 35.6202 22.104Z" fill="#3F3F3F"/>
</g>
</g>
<defs>
<clipPath id="clip0_1146_49388">
<rect width="48" height="48" rx="24" fill="white"/>
</clipPath>
<clipPath id="clip1_1146_49388">
<rect width="48" height="48" fill="white"/>
</clipPath>
</defs>
</svg>
