<svg width="48" height="48" viewBox="0 0 48 48" fill="none" xmlns="http://www.w3.org/2000/svg">
<g clip-path="url(#clip0_1141_49274)">
<rect width="48" height="48" rx="24" fill="white"/>
<g clip-path="url(#clip1_1141_49274)">
<path d="M65.6334 30.94V48.264H-14.999V30.94C-14.999 30.94 1.49964 27.9733 25.3174 27.9733C49.7156 27.9733 65.6334 30.94 65.6334 30.94Z" fill="#C3DAE4"/>
<path d="M22.0957 42.3898L19.0659 43.5293L15.0557 42.3898L18.0543 41.7898L22.0957 42.3898Z" fill="#58AAC8"/>
<path d="M12.7771 42.1231L8.40953 41.9578L6.41309 43.7858L11.4478 43.9693L12.7771 42.1231Z" fill="#58AAC8"/>
<path d="M13.6789 45.7734L9.59531 47.7138L6.41309 45.1822L10.2046 43.9694L13.6789 45.7734Z" fill="#58AAC8"/>
<path d="M21.3535 44.1933L17.2078 45.4987L14.7549 44.0911L18.4113 42.8391L21.3535 44.1933Z" fill="#58AAC8"/>
<path d="M26.053 41.7897L22.0952 42.3897L16.0361 40.8991L23.6001 40.0702L26.053 41.7897Z" fill="#58AAC8"/>
<path d="M34.8818 34.8907L39.7752 36.7996L55.5512 40.9387V31.5916H46.0569L40.6761 33.1182L48.4223 35.5196L45.7703 36.2653L39.7085 34.9462L38.8365 35.6427L35.8116 34.8604L34.8818 34.8907Z" fill="#9CBDC8"/>
<path d="M9.60229 40.2196L-6.77148 48.264H51.9805L36.1218 40.9956L31.9827 38.8827L29.1472 39.3916L26.2854 36.9156L20.6943 36.7698L18.0094 39.2693L12.9254 39.4538L9.60229 40.2196Z" fill="#9CBDC8"/>
<path d="M34.8537 19.4938C34.8688 19.4938 34.8813 20.7689 34.8813 22.3418C34.8813 23.9151 34.8688 25.1898 34.8537 25.1898C34.8386 25.1898 34.8262 23.9147 34.8262 22.3418C34.8257 20.7689 34.8382 19.4938 34.8537 19.4938Z" fill="#3F5C6B"/>
<g opacity="0.31">
<path d="M11.0137 17.7391C11.0879 17.1995 10.3266 16.7555 9.75411 16.7098C9.48122 16.6875 9.19766 16.7293 8.93944 16.6395C8.37944 16.4444 8.15544 15.7209 7.60922 15.4902C7.20077 15.3178 6.73011 15.4711 6.33411 15.6707C5.93811 15.8702 5.54655 16.1209 5.10389 16.1493C4.719 16.1738 4.30077 16.0311 3.96433 16.2191C3.71322 16.3591 3.58211 16.6484 3.35055 16.8191C3.12433 16.9862 2.82922 17.0213 2.54833 17.0364C2.26744 17.0515 1.97677 17.0547 1.72122 17.1715C1.46566 17.2884 1.25411 17.5591 1.307 17.8351L11.0137 17.7391Z" fill="#C3DAE4"/>
</g>
<g opacity="0.31">
<path d="M13.4992 3.72486C13.5539 3.32841 12.9943 3.00219 12.5739 2.96841C12.3734 2.95241 12.165 2.98308 11.9752 2.91686C11.5636 2.7733 11.3992 2.24175 10.9974 2.07241C10.697 1.94575 10.3516 2.05864 10.0605 2.20486C9.76942 2.35153 9.48186 2.53553 9.15653 2.55641C8.87386 2.57464 8.56631 2.46975 8.3192 2.60797C8.13475 2.71108 8.03831 2.92353 7.86809 3.04886C7.70186 3.17153 7.48498 3.1973 7.27875 3.20886C7.07253 3.21997 6.85875 3.22219 6.67075 3.30797C6.48275 3.39419 6.32764 3.59286 6.36631 3.79553L13.4992 3.72486Z" fill="#C3DAE4"/>
</g>
<g opacity="0.31">
<path d="M46.6451 11.6693C46.6882 11.3578 46.2482 11.1013 45.9175 11.0747C45.7597 11.0618 45.5962 11.0862 45.4468 11.0342C45.1233 10.9213 44.994 10.5036 44.6784 10.3702C44.4424 10.2707 44.1708 10.3591 43.942 10.4747C43.7131 10.5898 43.4868 10.7347 43.2313 10.7511C43.0091 10.7653 42.7673 10.6831 42.5731 10.7916C42.4282 10.8724 42.3522 11.0396 42.2184 11.1382C42.0877 11.2347 41.9171 11.2551 41.7548 11.264C41.5926 11.2729 41.4246 11.2747 41.2771 11.3422C41.1295 11.4098 41.0073 11.5662 41.038 11.7253L46.6451 11.6693Z" fill="#C3DAE4"/>
</g>
<g opacity="0.31">
<path d="M43.2261 8.19112C43.3083 7.5929 42.4643 7.1009 41.8301 7.04979C41.5274 7.02534 41.2132 7.07157 40.927 6.97157C40.3061 6.75512 40.0581 5.9529 39.4523 5.69734C38.9994 5.50623 38.4781 5.67646 38.039 5.89734C37.5999 6.11823 37.1661 6.39646 36.6754 6.42801C36.2488 6.45512 35.7852 6.2969 35.4119 6.50534C35.1337 6.66046 34.9879 6.98134 34.7314 7.17023C34.4808 7.35512 34.1532 7.39423 33.8421 7.41157C33.531 7.42846 33.2088 7.43157 32.9252 7.56134C32.6417 7.69112 32.4074 7.99068 32.4661 8.2969L43.2261 8.19112Z" fill="#C3DAE4"/>
</g>
<path d="M33.2339 6.20931C33.2752 5.86442 32.8517 5.58086 32.5334 5.55109C32.3819 5.53686 32.2241 5.56353 32.0806 5.5062C31.769 5.38131 31.6446 4.91909 31.341 4.77153C31.1139 4.66131 30.8521 4.75953 30.6321 4.88664C30.4117 5.0142 30.1943 5.1742 29.9481 5.19242C29.7339 5.20798 29.5019 5.11686 29.3143 5.23731C29.1748 5.32664 29.1019 5.51153 28.973 5.62086C28.8472 5.72753 28.6832 5.7502 28.5268 5.75998C28.3708 5.76975 28.209 5.77153 28.0668 5.8462C27.9246 5.92086 27.8072 6.09375 27.8366 6.2702L33.2339 6.20931Z" fill="white"/>
<g opacity="0.31">
<path d="M21.8139 12.8267C21.9033 12.1774 20.9868 11.6431 20.2979 11.5876C19.9695 11.5609 19.6281 11.6111 19.317 11.5027C18.6428 11.2676 18.3735 10.3969 17.7157 10.1191C17.2237 9.91158 16.6579 10.0965 16.181 10.3365C15.7041 10.5765 15.233 10.8782 14.7006 10.9125C14.2375 10.9422 13.7339 10.7702 13.3286 10.9965C13.0264 11.1649 12.8681 11.5134 12.5899 11.7187C12.3175 11.9196 11.9624 11.9622 11.6241 11.9805C11.2864 11.9987 10.9361 12.0022 10.6286 12.1431C10.321 12.284 10.0664 12.6094 10.1299 12.9418L21.8139 12.8267Z" fill="#C3DAE4"/>
</g>
<path d="M9.90504 14.0164C9.92015 14.0164 9.93215 15.5378 9.93215 17.4138C9.93215 19.2906 9.92015 20.8115 9.90504 20.8115C9.88993 20.8115 9.87793 19.2906 9.87793 17.4138C9.87793 15.5378 9.88993 14.0164 9.90504 14.0164Z" fill="#3F5C6B"/>
<path d="M24.9441 12.0822C24.929 12.0822 24.917 9.13379 24.917 5.49779C24.917 1.86046 24.929 -1.0871 24.9441 -1.0871C24.9592 -1.0871 24.9712 1.86046 24.9712 5.49779C24.9712 9.13379 24.9592 12.0822 24.9441 12.0822Z" fill="#3F5C6B"/>
<path d="M26.1221 16.3902C26.1221 16.3884 26.1252 16.3964 26.1265 16.392C26.1287 16.3871 26.1301 16.3782 26.131 16.3666C26.1336 16.3435 26.1354 16.3089 26.1372 16.2631C26.1412 16.172 26.1443 16.0373 26.1465 15.864C26.1518 15.5173 26.155 15.0155 26.1563 14.3955C26.1554 13.1524 26.1541 11.4409 26.1527 9.55064C26.1487 7.65953 26.1452 5.94753 26.1425 4.70487C26.143 4.08753 26.143 3.58664 26.143 3.23642C26.1443 3.06575 26.1452 2.93198 26.1456 2.83731C26.1465 2.7942 26.147 2.75953 26.1478 2.73331C26.1487 2.70975 26.1496 2.69775 26.1505 2.69775C26.1514 2.69775 26.1523 2.70975 26.1536 2.73331C26.1545 2.75953 26.1554 2.79375 26.1567 2.83731C26.1585 2.93198 26.1612 3.06575 26.1643 3.23642C26.1683 3.58664 26.1741 4.08753 26.1807 4.70487C26.1918 5.94487 26.2025 7.6582 26.207 9.55064C26.2114 11.4426 26.2078 13.156 26.1945 14.396C26.1878 15.016 26.179 15.5178 26.1674 15.8644C26.1616 16.0378 26.155 16.1724 26.1478 16.2635C26.1443 16.3093 26.1403 16.344 26.1358 16.3671C26.1336 16.3786 26.1318 16.3875 26.1283 16.3929C26.1203 16.3991 26.1225 16.388 26.1221 16.3902Z" fill="#3F5C6B"/>
<path d="M8.82692 18.4618C8.84203 18.4618 8.85403 19.7085 8.85403 21.2462C8.85403 22.7845 8.84203 24.0311 8.82692 24.0311C8.8118 24.0311 8.7998 22.7845 8.7998 21.2462C8.7998 19.7089 8.8118 18.4618 8.82692 18.4618Z" fill="#3F5C6B"/>
<path d="M26.2818 25.3164C25.9475 25.172 24.0382 25.6898 24.0382 25.6898C24.0382 25.6898 22.4093 25.1156 21.9462 25.34C21.9462 25.34 21.1111 25.3 21.0093 26.9756C20.9551 27.8676 21.3129 30.4689 21.2489 31.9644C21.2075 32.9311 20.7275 33.132 20.7275 33.132C20.7275 33.132 22.4791 34.8787 24.3044 34.8093C26.3853 34.7302 27.6564 33.008 27.6564 33.008C27.6564 33.008 26.9689 32.3 26.9147 30.3151C26.8542 28.132 27.2142 25.7187 26.2818 25.3164Z" fill="#7BB0CB"/>
<path d="M23.9787 28.5258C23.9787 28.5258 24.1991 30.0773 24.1155 30.2778C24.032 30.4782 24.1884 31.0818 24.2022 31.3146C24.216 31.5471 24.4573 32.1298 24.2298 32.3266C24.0022 32.5235 24.06 32.5391 24.0284 32.7018C23.9969 32.8644 24.06 33.0951 24.0649 33.2382C24.0702 33.3813 23.8711 33.8551 23.8711 33.8551L24.18 33.8435C24.18 33.8435 24.2293 33.716 24.232 33.3573C24.2346 32.9986 24.0662 32.736 24.2013 32.5515C24.3364 32.3671 24.4386 32.0044 24.3293 31.3631C24.22 30.7218 24.1622 30.3653 24.2204 29.8969C24.2791 29.4289 23.9787 28.5258 23.9787 28.5258Z" fill="#6298AE"/>
<path d="M24.7913 26.2089C24.7913 26.2089 24.25 27.5475 23.8545 27.9569L23.6856 27.9631C23.6856 27.9631 23.1371 27.2049 23.1496 26.5955L23.0656 26.6498C23.0656 26.6498 23.066 27.2244 23.5558 28.0844L23.6967 28.4915C23.6967 28.4915 23.702 30.2844 23.5002 30.6329C23.2985 30.9813 23.6322 31.2733 23.5327 31.4924C23.4336 31.7115 23.0225 31.9151 23.0225 31.9151L23.0398 32.3715L23.6851 32.2035C23.6851 32.2035 23.9189 31.9795 23.958 31.6013C23.9976 31.2231 23.6322 31.2911 23.8287 30.7902C24.0247 30.2898 23.8398 28.4858 23.8398 28.4858L23.9611 28.0689C23.9611 28.0689 24.686 27.0462 24.8002 26.4502L24.7913 26.2089Z" fill="#0E3843"/>
<path d="M24.8157 25.6551C24.8157 25.6551 25.0944 26.4213 24.9553 27.1978L24.5335 26.7982L23.9335 27.3978L23.8442 27.8316L23.2642 26.8462L22.8482 27.2956C22.8482 27.2956 22.7628 25.9898 23.2162 25.5782C23.6695 25.1667 24.8157 25.6551 24.8157 25.6551Z" fill="#6298AE"/>
<path d="M24.5672 25.9102C24.5672 25.9102 24.649 26.28 24.5912 26.5391C24.5334 26.7982 23.829 27.2853 23.829 27.2853L23.7792 27.4755C23.7792 27.4755 23.3268 26.7755 23.2886 26.472C23.2503 26.1684 23.2659 25.8427 23.4441 25.7071C23.6219 25.572 24.5672 25.9102 24.5672 25.9102Z" fill="#FAD2C3"/>
<path d="M22.0926 25.3462C21.649 25.2542 21.053 25.9196 21.0374 26.4578C21.0219 26.996 21.5512 28.6516 22.0086 28.8916C22.4659 29.1316 22.7343 28.9805 22.9419 28.6129C23.1499 28.2453 22.801 25.4938 22.0926 25.3462Z" fill="#7BB0CB"/>
<path d="M25.8777 25.3173C26.3133 25.1915 26.9577 25.8102 27.0137 26.3458C27.0697 26.8813 26.668 28.572 26.2302 28.8462C25.7924 29.12 25.5133 28.9902 25.2782 28.6391C25.0435 28.288 25.1831 25.5178 25.8777 25.3173Z" fill="#7BB0CB"/>
<path d="M24.6136 25.1027C24.6136 25.1027 24.418 25.8102 24.6504 26.0715C24.6504 26.0715 24.438 26.5649 24.0238 26.6018C23.5451 26.6449 23.3589 26.1204 23.3589 26.1204C23.3589 26.1204 23.5869 25.4355 23.3242 25.2075L24.6136 25.1027Z" fill="#E1BCB1"/>
<path d="M23.1984 22.5662C23.4744 22.4298 23.8019 22.3675 24.1233 22.372C24.553 22.3778 25.0495 22.4978 25.3157 22.8649C25.4019 22.984 25.4557 23.1231 25.4752 23.2689C25.6046 24.2275 25.1708 25.1458 25.1708 25.1458C25.1708 25.1458 22.8086 25.0827 22.8068 25.0822C22.7499 25.0809 22.6001 24.4347 22.5828 24.3627C22.5232 24.1164 22.4824 23.8613 22.4957 23.6071C22.5215 23.0982 22.809 22.7582 23.1984 22.5662Z" fill="#0E3843"/>
<path d="M25.2194 24.5724C25.2194 24.5724 25.5549 24.2111 25.6136 24.6164C25.6812 25.0862 25.2603 25.2924 25.1709 25.1453C25.0812 24.9987 25.2194 24.5724 25.2194 24.5724Z" fill="#F08765"/>
<path d="M22.7777 24.6898C22.7777 24.6898 22.4155 24.3546 22.3884 24.7635C22.3564 25.2369 22.792 25.4106 22.8702 25.2573C22.9475 25.1044 22.7777 24.6898 22.7777 24.6898Z" fill="#F08765"/>
<path d="M24.1002 26.3253C24.8744 26.296 25.2917 25.7738 25.2344 24.2573C25.2046 23.4751 24.7886 23.0107 23.9215 23.0436C23.0544 23.0765 22.7077 23.5702 22.7371 24.3525C22.7988 25.9818 23.3002 26.356 24.1002 26.3253Z" fill="#FAD2C3"/>
<path d="M23.0304 25.3133C23.0197 25.3915 23.0904 25.4658 23.1886 25.4791C23.2864 25.4924 23.3744 25.4395 23.385 25.3613C23.3957 25.2831 23.325 25.2089 23.2268 25.1955C23.1286 25.1822 23.0406 25.2351 23.0304 25.3133Z" fill="#E1BCB1"/>
<path d="M24.6236 25.2951C24.6316 25.3738 24.7179 25.4293 24.8165 25.4191C24.9148 25.4089 24.9881 25.3369 24.9796 25.2582C24.9716 25.1795 24.8854 25.124 24.7868 25.1342C24.689 25.1449 24.6156 25.2164 24.6236 25.2951Z" fill="#E1BCB1"/>
<path d="M23.6779 24.4925C23.6677 24.4933 23.6579 24.4978 23.6508 24.5062C23.5513 24.6258 23.3633 24.6333 23.3606 24.6333C23.3397 24.6347 23.3224 24.652 23.3233 24.6733C23.3237 24.6947 23.3419 24.7116 23.3633 24.7107C23.3717 24.7107 23.5886 24.7013 23.7104 24.5556C23.7242 24.5391 23.7219 24.5147 23.7055 24.5009C23.6975 24.4947 23.6873 24.4916 23.6779 24.4925Z" fill="#3A2C28"/>
<path d="M24.2628 24.4778C24.253 24.4782 24.2437 24.4822 24.237 24.4898C24.2224 24.5053 24.2233 24.5298 24.2388 24.5444C24.3775 24.6738 24.5939 24.656 24.6024 24.6551C24.6237 24.6533 24.6393 24.6342 24.6375 24.6133C24.6357 24.592 24.6157 24.5769 24.5953 24.5782C24.5939 24.5786 24.4041 24.5933 24.2913 24.488C24.2833 24.4809 24.273 24.4773 24.2628 24.4778Z" fill="#3A2C28"/>
<path d="M23.332 24.9249C23.3747 25.0191 23.596 25.0106 23.6294 24.9138Z" fill="#3A2C28"/>
<path d="M23.9402 25.6884C24.0153 25.6858 24.0908 25.6631 24.1139 25.656L24.0891 25.5778C24.0086 25.6031 23.8819 25.6213 23.8526 25.5898C23.8424 25.5786 23.8455 25.552 23.8606 25.5169C23.9633 25.2746 23.9637 24.6715 23.9637 24.6458H23.8815C23.8815 24.652 23.8811 25.2578 23.7851 25.4844C23.7557 25.5538 23.7579 25.6075 23.7922 25.6449C23.8251 25.6813 23.8824 25.6906 23.9402 25.6884Z" fill="#E1BCB1"/>
<path d="M24.5032 26.0045C24.5116 25.9694 24.4445 25.8183 23.9929 25.8085C23.5418 25.7987 23.4743 25.9089 23.4756 25.9498C23.4814 26.1151 23.6978 25.9054 23.8778 25.9182C24.0578 25.932 24.4747 26.1222 24.5032 26.0045Z" fill="#3A2C28"/>
<path d="M24.4434 24.8827C24.486 24.9769 24.7074 24.9685 24.7407 24.8716Z" fill="#3A2C28"/>
<path d="M24.6138 23.5547C24.6138 23.5547 24.4662 23.9298 24.16 24.0356C23.8538 24.1413 24.3204 23.68 24.3204 23.68C24.3204 23.68 23.7822 23.8956 23.5924 23.9196C23.4027 23.9436 23.4391 23.8031 23.4391 23.8031C23.4391 23.8031 22.936 24.0556 22.9422 24.2165C22.9484 24.3778 22.8107 24.2942 22.8107 24.2942L22.7809 24.9062C22.7809 24.9062 22.7098 24.4618 22.6649 24.3449C22.62 24.2285 22.5365 22.9538 23.5516 22.8347C24.5667 22.7156 25.1924 23.1489 25.1924 23.1489C25.1924 23.1489 25.4049 24.1885 25.3618 24.3378C25.3187 24.4871 25.2133 25.0471 25.2133 25.0471C25.2133 25.0471 25.1818 24.4649 25.0453 24.2089C25.0453 24.2089 24.9462 24.1129 24.8853 23.8058C24.8853 23.8058 24.8209 24.1445 24.7102 24.0547C24.6 23.9653 24.6138 23.5547 24.6138 23.5547Z" fill="#3A2C28"/>
<path d="M24.9975 22.5831C24.9975 22.5831 24.7659 22.0489 24.4486 21.9804C24.1313 21.912 24.3575 22.1587 24.3575 22.1587C24.3575 22.1587 23.789 21.9649 23.5215 22.0693C23.2539 22.1738 23.5308 22.3191 23.5308 22.3191C23.5308 22.3191 22.6437 22.4182 22.4504 22.6307C22.257 22.8436 22.5082 22.928 22.5082 22.928C22.5082 22.928 22.2939 22.9631 22.2473 23.0453C22.2006 23.128 22.3259 23.244 22.3259 23.244C22.3259 23.244 22.1268 23.3053 22.1917 23.5987C22.2566 23.892 22.5028 24.0071 22.5028 24.0071C22.5028 24.0071 22.2482 23.9751 22.4153 24.1684C22.5824 24.3618 22.6913 24.4387 22.6913 24.4387C22.6913 24.4387 22.8019 22.9311 23.921 23.0427C25.0397 23.1542 25.3557 24.1969 25.3557 24.1969C25.3557 24.1969 25.7042 24.0098 25.6708 23.8396C25.6375 23.6693 25.5793 23.6178 25.5793 23.6178C25.5793 23.6178 25.817 23.4493 25.7864 23.3418C25.7553 23.2342 25.5637 23.2013 25.5637 23.2013C25.5637 23.2013 25.7357 23.0738 25.7024 22.9C25.669 22.7267 25.4735 22.7511 25.4735 22.7511C25.4735 22.7511 25.7615 22.6827 25.6913 22.6044C25.621 22.5262 25.1099 22.5284 25.1099 22.5284C25.1099 22.5284 25.3419 22.4831 25.2953 22.3773C25.2482 22.2729 25.0388 22.4253 24.9975 22.5831Z" fill="#3A2C28"/>
<path d="M24.4564 22.8738C24.4564 22.8738 24.3177 22.8791 24.304 22.8125C24.2902 22.7458 24.5688 22.7218 24.7088 22.6716C24.7368 22.6614 24.8342 22.7031 24.9324 22.7538L24.8764 22.664C24.7511 22.6302 24.7675 22.5587 24.7933 22.5445C24.8191 22.5302 24.9973 22.5836 24.9973 22.5836C24.9973 22.5836 25.1715 22.752 25.1768 22.7685C25.1822 22.7849 25.308 23.2911 25.308 23.2911C25.312 23.304 25.3155 23.3169 25.3195 23.3302C25.3675 23.2502 25.3675 23.128 25.3675 23.128C25.324 23.0422 25.3355 22.988 25.36 22.9334C25.3848 22.8787 25.38 22.9698 25.4528 23.0169C25.5257 23.064 25.5373 23.3565 25.556 23.3894C25.5688 23.4125 25.4857 23.6254 25.4337 23.7525C25.4604 23.8569 25.4777 23.928 25.4777 23.928C25.4777 23.928 25.2328 24.2022 25.0448 24.2094C24.8568 24.2165 24.5564 23.6249 24.568 23.2214L24.3662 23.1014C24.3662 23.1014 24.2657 23.168 24.1928 23.1262C24.1204 23.0845 24.4564 22.8738 24.4564 22.8738Z" fill="#FAD2C3"/>
<path d="M25.5087 23.8467C25.5087 23.8467 25.1461 23.8605 24.9043 24.1671L24.9576 24.3698C24.9576 24.3698 24.9919 27.7756 25.2803 28.464C25.5687 29.1525 26.0399 28.8116 26.2692 28.2471C26.499 27.6827 26.2799 26.6391 26.051 25.8111C25.8221 24.9827 25.8465 24.2898 25.6025 24.2342C25.6025 24.2338 25.5421 23.9765 25.5087 23.8467Z" fill="#86B7CB"/>
<path d="M23.3243 22.9164C23.3243 22.9164 23.4629 22.9111 23.4714 22.8435C23.4803 22.776 23.2003 22.7733 23.0572 22.7338C23.0283 22.7258 22.9345 22.7751 22.8403 22.8324L22.8892 22.7387C23.0114 22.6955 22.9896 22.6253 22.9629 22.6129C22.9363 22.6004 22.7625 22.6671 22.7625 22.6671C22.7625 22.6671 22.6016 22.8484 22.5972 22.8653C22.5932 22.8822 22.506 23.3964 22.506 23.3964C22.5034 23.4098 22.5003 23.4227 22.4976 23.4364C22.4438 23.36 22.4345 23.2382 22.4345 23.2382C22.4714 23.1493 22.4558 23.096 22.4269 23.0435C22.398 22.9911 22.4096 23.0813 22.3407 23.1338C22.2718 23.1862 22.2825 23.4791 22.2665 23.5133C22.2554 23.5373 22.3545 23.7431 22.4158 23.8662C22.3972 23.9724 22.3852 24.0449 22.3852 24.0449C22.3852 24.0449 22.6505 24.3 22.8385 24.2929C23.0265 24.2858 23.2812 23.6733 23.2389 23.2715L23.4309 23.1364C23.4309 23.1364 23.5363 23.1951 23.6056 23.148C23.6749 23.1013 23.3243 22.9164 23.3243 22.9164Z" fill="#FAD2C3"/>
<path d="M22.3474 23.9667C22.3474 23.9667 22.7101 23.9529 22.9745 24.2404L22.9368 24.4467C22.9368 24.4467 23.1612 27.8449 22.9256 28.5533C22.6905 29.2618 22.1945 28.9578 21.923 28.412C21.6514 27.8667 21.7905 26.8098 21.9554 25.9662C22.1208 25.1231 22.0439 24.4338 22.283 24.3595C22.2834 24.36 22.3243 24.0987 22.3474 23.9667Z" fill="#86B7CB"/>
<path d="M13.4706 37.3876C13.8288 38.0324 14.7124 38.1284 14.7124 38.1284L19.403 35.4773C19.403 35.4773 20.6933 36.7311 21.5888 37.0631C22.4844 37.3942 23.4519 36.9107 24.0306 36.9107C24.6079 36.9107 25.3519 37.1258 26.3559 36.7676C27.3599 36.4084 29.2577 35.0107 29.2577 35.0107C29.2577 35.0107 31.211 38.2644 32.2684 37.9316C33.1959 37.6396 32.9853 35.9071 32.9853 35.9071C32.9853 35.9071 30.3093 30.9724 29.4062 31.1293C29.3924 31.1316 29.3795 31.1347 29.3653 31.14C29.3199 31.1573 29.2706 31.1778 29.2168 31.2036C28.2644 31.64 26.1528 33.1947 25.7293 33.3978C25.283 33.6129 22.7382 33.3978 22.7382 33.3978C22.7382 33.3978 20.1137 32.3604 19.0808 32.4827H19.0799C18.9617 32.4964 18.8639 32.5267 18.7942 32.5742C18.2586 32.9396 14.887 35.3898 13.4715 36.4187C13.0857 36.6996 13.4706 37.3876 13.4706 37.3876Z" fill="#2D5C6F"/>
<path d="M24.0809 33.3316C23.9716 33.6489 23.5 34.2222 23.5387 34.5271C23.5774 34.8316 23.5689 35.1004 23.5689 35.1004C23.5689 35.1004 22.7894 34.8498 22.5027 34.5449C22.216 34.2404 21.8458 33.0578 21.3271 32.904C21.3271 32.904 22.1445 32.7684 22.9147 32.904C23.6849 33.04 24.0809 33.3316 24.0809 33.3316Z" fill="#7BB0CB"/>
<path d="M14.7614 37.6444C14.7614 37.6444 19.7067 34.6169 19.9574 33.972C20.2089 33.328 19.7756 32.5786 19.08 32.4831H19.0791C18.9609 32.4969 18.8631 32.5271 18.7934 32.5746C18.2578 32.94 14.8863 35.3902 13.4707 36.4191C14.7774 36.3973 14.7614 37.6444 14.7614 37.6444Z" fill="#2E5B6A"/>
<path d="M28.7202 32.7711C28.8104 33.0044 30.5846 36.2116 31.7486 37.1253C31.7486 37.1253 31.7304 35.9071 32.985 35.9071C32.985 35.9071 30.309 30.9724 29.4059 31.1293C29.3922 31.1316 29.3793 31.1347 29.3651 31.14H29.3646C29.3122 31.1529 29.2619 31.1724 29.2166 31.2031C28.7557 31.5027 28.6415 32.5667 28.7202 32.7711Z" fill="#2E5B6A"/>
<path d="M32.8414 36.2653C32.8414 36.2653 33.2178 36.9462 33.612 37.3227C34.0062 37.6991 34.9022 38.5947 35.3142 38.7382C35.7262 38.8818 36.0849 39.1324 36.0311 39.1502C35.9774 39.168 35.0036 39.3293 34.4422 39.3293C33.8809 39.3293 33.3791 39.0427 33.0925 39.0427C32.8058 39.0427 32.2325 38.756 32.2325 38.756C32.2325 38.756 32.0711 38.0391 32.1249 37.9675C32.1787 37.896 32.0534 37.7973 32.0534 37.7973C32.0534 37.7973 31.7662 36.3191 32.8414 36.2653Z" fill="#6B6C6B"/>
<path d="M32.125 37.9671V38.2573C32.125 38.2573 32.125 38.3969 32.125 38.7915C32.125 38.7915 32.5734 39.0604 32.7886 39.1324C33.0037 39.2035 33.1819 39.1324 33.1819 39.1324C33.1819 39.1324 33.773 39.3644 34.1859 39.4551C34.5974 39.5444 35.8157 39.5444 36.1921 39.3293C36.1921 39.3293 36.1801 39.0249 36.0428 38.8102C36.0308 38.792 36.0103 38.7724 35.9837 38.752C35.7086 38.5444 34.6957 38.236 33.913 37.3791C33.8894 37.3542 33.8668 37.3298 33.8454 37.3049C33.8454 37.3049 33.4339 37.3049 33.2543 37.4298C33.0748 37.5555 33.1112 37.9671 33.1112 37.9671C33.1112 37.9671 32.9992 37.5724 32.7863 37.6444C32.573 37.7164 32.2312 37.736 32.125 37.9671Z" fill="#06262D"/>
<path d="M33.6301 38.1284H34.159L33.6301 38.4875C33.6301 38.4875 34.5976 38.9715 35.1705 38.9529C35.6039 38.9391 35.8759 38.8133 35.9834 38.752C35.7083 38.5444 34.6954 38.236 33.9128 37.3791C33.7288 37.4222 33.5248 37.4738 33.4688 37.5018C33.3612 37.5555 33.6301 38.1284 33.6301 38.1284Z" fill="#0E3843"/>
<path d="M13.4707 36.7311C13.4707 36.7311 13.1449 37.1956 12.6698 37.4627C12.1947 37.7294 11.1045 38.3751 10.6694 38.4116C10.2347 38.448 9.82536 38.6023 9.87292 38.6329C9.92047 38.6636 10.824 39.0614 11.3676 39.2009C11.9116 39.34 12.4685 39.1871 12.7462 39.2583C13.024 39.3294 13.6507 39.1938 13.6507 39.1938C13.6507 39.1938 13.9849 38.5396 13.9502 38.4569C13.916 38.3743 14.5107 37.9143 14.5107 37.9143C14.5107 37.9143 14.6902 36.8565 13.4707 36.7311Z" fill="#6B6C6B"/>
<path d="M13.9506 38.456L13.8786 38.7373C13.8786 38.7373 13.844 38.8729 13.7462 39.2551C13.7462 39.2551 13.2453 39.4044 13.0191 39.4209C12.7933 39.4364 12.6377 39.3231 12.6377 39.3231C12.6377 39.3231 12.0075 39.4013 11.5849 39.3862C11.164 39.3707 9.98396 39.0684 9.67285 38.7667C9.67285 38.7667 9.75996 38.4747 9.94663 38.3009C9.96263 38.2862 9.98707 38.2724 10.0182 38.2591C10.3364 38.1262 11.3937 38.0787 12.3649 37.4431C12.3937 37.4249 12.4217 37.4067 12.4489 37.388C12.4489 37.388 12.848 37.4902 12.9906 37.6556C13.1333 37.8218 12.996 38.212 12.996 38.212C12.996 38.212 13.2022 37.8573 13.3906 37.98C13.5782 38.1022 13.9049 38.2058 13.9506 38.456Z" fill="#06262D"/>
<path d="M12.4522 38.2387L11.9398 38.1076L12.3629 38.5867C12.3629 38.5867 11.3056 38.8151 10.7549 38.6556C10.3385 38.5347 10.1065 38.3453 10.0176 38.2591C10.3358 38.1262 11.3931 38.0787 12.3642 37.4431C12.5318 37.5302 12.7167 37.6311 12.7638 37.672C12.8549 37.7502 12.4522 38.2387 12.4522 38.2387Z" fill="#0E3843"/>
<path d="M29.1389 38.388L30.0283 37.8022C30.0283 37.8022 30.1598 35.7089 28.9016 35.3671C27.6434 35.0253 26.9789 35.9502 26.9554 37.3271L26.1923 37.528L26.0532 37.36C26.0532 37.36 24.5705 37.8978 24.6163 38.2773C24.7527 39.4062 29.1389 38.388 29.1389 38.388Z" fill="#06262D"/>
<path d="M30.032 37.6818V38.4258L26.5378 39.4654L22.1836 38.8911V38.0311L26.5378 37.2614C26.5378 37.2614 25.9111 37.5205 27.2365 37.6818C28.5623 37.8431 30.032 37.6818 30.032 37.6818Z" fill="#06262D"/>
<path d="M26.1465 37.6342C26.1465 37.6342 26.5287 37.4573 26.5523 36.9413L29.5194 37.6342C29.5194 37.6342 29.5665 38.1276 28.9256 38.3329C28.2852 38.5382 26.1465 37.6342 26.1465 37.6342Z" fill="#E0E0E0"/>
<path d="M29.1387 37.7311L25.9742 38.5693L22.208 38.0396L26.0533 37.3596C26.0533 37.3596 25.5 37.5884 26.6707 37.7307C27.8413 37.8729 29.1387 37.7311 29.1387 37.7311Z" fill="#0E3843"/>
<path d="M29.1392 37.7311V38.388L26.0534 39.3063L22.2081 38.7991C22.2081 38.7991 22.0659 38.6894 22.1014 38.388C22.137 38.0871 22.2081 38.0396 22.2081 38.0396L26.0019 38.5187L29.1392 37.7311Z" fill="#06262D"/>
<path d="M19.1704 38.8093L22.0962 39.7413L19.1704 40.2867L16.0371 39.3795L19.1704 38.8093Z" fill="#E0E0E0"/>
<path d="M14.7549 40.2778L19.066 39.7413L21.3535 41.0493L16.7962 41.7662L14.7549 40.2778Z" fill="white"/>
<path d="M7.93555 40.0924L9.79821 39.1831L12.7778 39.548L11.4484 40.5489L7.93555 40.0924Z" fill="#E0E0E0"/>
<path d="M7.0332 41.2511L10.2052 40.8867L13.6794 42.1947L9.75231 43.064L7.0332 41.2511Z" fill="white"/>
<path d="M23.6006 42.9374L27.6197 42.2725L32.7468 43.5387L27.8326 44.9311L23.6006 42.9374Z" fill="white"/>
<path d="M40.0215 30.5462C40.0215 30.5462 44.3237 31.3986 45.0406 31.4026C45.7575 31.4066 51.4913 30.3862 51.5628 30.0898C51.6344 29.7938 51.8135 29.3098 50.0219 28.8351C48.2299 28.3604 44.5264 28.0458 43.8939 28.1978C43.261 28.3498 40.0197 30.0444 40.0215 30.5462Z" fill="#06262D"/>
<path d="M38.226 23.7373C38.226 23.7373 43.8167 24.1231 44.2465 24.4986C44.6767 24.8746 45.3216 30.9226 44.6047 31.6257C43.8878 32.3289 39.1576 30.8244 38.7994 30.6449C38.4411 30.4653 37.366 24.392 38.226 23.7373Z" fill="#0E3843"/>
<path d="M37.9404 24.4991C38.3333 24.3373 42.6338 24.7293 42.8489 25.2319C43.064 25.7346 43.4907 30.388 43.3862 31.0835C43.2818 31.7791 39.6413 31.2008 38.7991 30.6453C37.9573 30.0888 37.9404 24.4991 37.9404 24.4991Z" fill="#06262D"/>
<path d="M39.624 26.8635C39.9507 26.7546 40.5916 28.0604 40.2151 28.5911C39.8387 29.1213 39.624 28.5911 39.624 28.5911L36.0969 29.5382L35.9014 28.5213L39.2476 27.5453C39.2476 27.5449 39.14 27.0249 39.624 26.8635Z" fill="#4D4C4C"/>
<path d="M35.899 28.3493C35.899 28.3493 37.6168 26.1542 37.7243 26.124C37.8319 26.0933 37.4737 25.1618 37.4737 25.1618L37.7448 24.5884C37.7448 24.5884 38.2732 25.1991 38.2999 25.7738C38.3265 26.3489 36.399 28.9244 36.399 28.9244C36.399 28.9244 38.0154 31.4689 38.3003 31.8991C38.5852 32.3293 37.9759 33.1267 37.9759 33.1267L37.6532 32.616C37.6532 32.616 37.8323 32.0787 37.8323 31.9711C37.8323 31.8635 35.9688 29.6258 35.9688 29.6258C35.9688 29.6258 34.0692 32.0258 33.6034 32.124C33.1377 32.2222 32.7434 31.828 32.7434 31.828L33.3528 31.1884C33.3528 31.1884 33.9261 30.9858 33.9977 30.8693C34.0692 30.7529 35.4519 28.8582 35.4519 28.8582C35.4519 28.8582 33.675 26.2987 33.4959 26.1249C33.3168 25.9511 32.7434 26.1249 32.7434 26.1249L32.5283 25.6284C32.5283 25.6284 33.1732 25.3418 33.6394 25.7C34.1057 26.0582 35.899 28.3493 35.899 28.3493Z" fill="#6B6C6B"/>
<path d="M36.0965 28.996C36.0965 29.2582 35.9521 29.4706 35.7738 29.4706C35.5956 29.4706 35.4512 29.2582 35.4512 28.996C35.4512 28.7337 35.5956 28.5213 35.7738 28.5213C35.9525 28.5213 36.0965 28.7337 36.0965 28.996Z" fill="#4D4C4C"/>
<path d="M32.804 31.9302C33.0674 31.9302 33.2809 31.6715 33.2809 31.3524C33.2809 31.0333 33.0674 30.7747 32.804 30.7747C32.5407 30.7747 32.3271 31.0333 32.3271 31.3524C32.3271 31.6715 32.5407 31.9302 32.804 31.9302Z" fill="#333333"/>
<path d="M33.0052 31.9302C33.2686 31.9302 33.4821 31.6715 33.4821 31.3524C33.4821 31.0333 33.2686 30.7747 33.0052 30.7747C32.7418 30.7747 32.5283 31.0333 32.5283 31.3524C32.5283 31.6715 32.7418 31.9302 33.0052 31.9302Z" fill="#4D4C4C"/>
<path d="M37.6966 33.3142C37.96 33.3142 38.1735 33.0555 38.1735 32.7364C38.1735 32.4173 37.96 32.1586 37.6966 32.1586C37.4332 32.1586 37.2197 32.4173 37.2197 32.7364C37.2197 33.0555 37.4332 33.3142 37.6966 33.3142Z" fill="#333333"/>
<path d="M37.8978 33.3142C38.1612 33.3142 38.3747 33.0555 38.3747 32.7364C38.3747 32.4173 38.1612 32.1586 37.8978 32.1586C37.6344 32.1586 37.4209 32.4173 37.4209 32.7364C37.4209 33.0555 37.6344 33.3142 37.8978 33.3142Z" fill="#4D4C4C"/>
<path d="M37.4369 25.6178C37.7002 25.6178 37.9137 25.3591 37.9137 25.04C37.9137 24.7209 37.7002 24.4622 37.4369 24.4622C37.1735 24.4622 36.96 24.7209 36.96 25.04C36.96 25.3591 37.1735 25.6178 37.4369 25.6178Z" fill="#333333"/>
<path d="M37.638 25.6178C37.9014 25.6178 38.1149 25.3591 38.1149 25.04C38.1149 24.7209 37.9014 24.4622 37.638 24.4622C37.3746 24.4622 37.1611 24.7209 37.1611 25.04C37.1611 25.3591 37.3746 25.6178 37.638 25.6178Z" fill="#4D4C4C"/>
<path d="M32.6019 26.5142C32.8653 26.5142 33.0788 26.2555 33.0788 25.9364C33.0788 25.6173 32.8653 25.3586 32.6019 25.3586C32.3385 25.3586 32.125 25.6173 32.125 25.9364C32.125 26.2555 32.3385 26.5142 32.6019 26.5142Z" fill="#333333"/>
<path d="M32.804 26.5142C33.0674 26.5142 33.2809 26.2555 33.2809 25.9364C33.2809 25.6173 33.0674 25.3586 32.804 25.3586C32.5407 25.3586 32.3271 25.6173 32.3271 25.9364C32.3271 26.2555 32.5407 26.5142 32.804 26.5142Z" fill="#4D4C4C"/>
<path d="M39.1734 27.5666C39.1734 27.5666 39.3547 27.5222 39.4889 27.6031C39.6232 27.6835 39.7485 27.8995 39.7778 28.2684C39.7978 28.5213 39.6232 28.5915 39.6232 28.5915L39.42 28.6462C39.42 28.6462 39.6383 29.02 39.7978 29.1489C40.08 29.3773 40.4423 29.4177 40.6712 29.1489C40.9 28.88 41.0409 27.7311 40.5236 26.9986C40.0187 26.284 39.4618 26.6493 39.3543 26.7431C39.2472 26.8369 39.1329 27.1995 39.1734 27.5666Z" fill="#333333"/>
<path d="M17.6169 24.1436L15.2009 17.6982L18.8551 17.7365L13.9502 4.66669H17.0982L20.9511 19.5L17.6586 19.4862L19.0795 24.1436H17.6169Z" fill="#C3D2D7"/>
<path d="M14.9775 22.5525L18.846 26.1338L20.11 22.5525H14.9775Z" fill="#C3D2D7"/>
<path d="M29.9362 25.8711L31.3344 22.1413L29.2197 22.1635L32.0584 14.6H30.2366L28.0068 23.184L29.9122 23.176L29.0899 25.8711H29.9362Z" fill="#C3D2D7"/>
<path d="M31.4634 24.9502L29.2247 27.0226L28.4932 24.9502H31.4634Z" fill="#C3D2D7"/>
<path d="M35.7746 16.0093C35.7897 16.0093 35.8022 17.2845 35.8022 18.8573C35.8022 20.4307 35.7897 21.7053 35.7746 21.7053C35.7595 21.7053 35.7471 20.4302 35.7471 18.8573C35.7471 17.2845 35.7591 16.0093 35.7746 16.0093Z" fill="#3F5C6B"/>
<path d="M18.5732 43.9734L20.4359 43.064L23.4155 43.4289L22.0861 44.4298L18.5732 43.9734Z" fill="#E0E0E0"/>
</g>
</g>
<defs>
<clipPath id="clip0_1141_49274">
<rect width="48" height="48" rx="24" fill="white"/>
</clipPath>
<clipPath id="clip1_1141_49274">
<rect width="48" height="48" fill="white"/>
</clipPath>
</defs>
</svg>
