<svg width="48" height="48" viewBox="0 0 48 48" fill="none" xmlns="http://www.w3.org/2000/svg">
<g clip-path="url(#clip0_1141_49272)">
<rect width="48" height="48" rx="24" fill="white"/>
<g clip-path="url(#clip1_1141_49272)">
<g opacity="0.42">
<path d="M23.5649 6.15067C23.5649 5.08534 22.7014 4.22178 21.636 4.22178C21.4436 4.22178 21.2578 4.25112 21.0823 4.30356C21.1103 4.11023 21.1254 3.91245 21.1254 3.71112C21.1254 1.45512 19.2965 -0.373771 17.0405 -0.373771C16.7832 -0.373771 16.532 -0.348882 16.288 -0.303548C15.66 -1.3311 14.5316 -2.0191 13.2392 -2.0191C11.2832 -2.0191 9.69649 -0.447548 9.66761 1.50179C9.64761 1.50134 9.62805 1.49867 9.60805 1.49867C7.79072 1.49867 6.31738 2.97201 6.31738 4.78934C6.31738 6.60667 7.79072 8.08001 9.60805 8.08001H21.6929L21.6903 8.07734C22.7303 8.04801 23.5649 7.19779 23.5649 6.15067Z" fill="#CEE7F3"/>
<path d="M19.1012 10.9085C19.8901 10.6356 18.2363 8.93823 18.2363 8.93823C18.2363 8.93823 18.3123 11.1813 19.1012 10.9085Z" fill="#CEE7F3"/>
<path d="M19.6533 12.1671C19.6533 12.1671 19.7293 14.4102 20.5182 14.1373C21.3067 13.8644 19.6533 12.1671 19.6533 12.1671Z" fill="#CEE7F3"/>
<path d="M21.0703 15.396C21.0703 15.396 21.1463 17.6391 21.9352 17.3662C22.7241 17.0933 21.0703 15.396 21.0703 15.396Z" fill="#CEE7F3"/>
<path d="M16.4821 10.9289C17.271 10.656 15.6172 8.95868 15.6172 8.95868C15.6172 8.95868 15.6932 11.2018 16.4821 10.9289Z" fill="#CEE7F3"/>
<path d="M17.0352 12.1871C17.0352 12.1871 17.1112 14.4302 17.9 14.1574C18.6889 13.8845 17.0352 12.1871 17.0352 12.1871Z" fill="#CEE7F3"/>
<path d="M18.4521 15.416C18.4521 15.416 18.5281 17.6591 19.317 17.3862C20.1059 17.1133 18.4521 15.416 18.4521 15.416Z" fill="#CEE7F3"/>
<path d="M13.8639 10.9489C14.6528 10.676 12.999 8.9787 12.999 8.9787C12.999 8.9787 13.075 11.2218 13.8639 10.9489Z" fill="#CEE7F3"/>
<path d="M14.418 12.2076C14.418 12.2076 14.494 14.4507 15.2829 14.1778C16.0713 13.9045 14.418 12.2076 14.418 12.2076Z" fill="#CEE7F3"/>
<path d="M15.835 15.436C15.835 15.436 15.911 17.6791 16.6998 17.4062C17.4887 17.1333 15.835 15.436 15.835 15.436Z" fill="#CEE7F3"/>
<path d="M10.3828 8.99866C10.3828 8.99866 10.4588 11.2418 11.2477 10.9689C12.0361 10.696 10.3828 8.99866 10.3828 8.99866Z" fill="#CEE7F3"/>
<path d="M11.7988 12.2276C11.7988 12.2276 11.8748 14.4707 12.6637 14.1978C13.4526 13.9245 11.7988 12.2276 11.7988 12.2276Z" fill="#CEE7F3"/>
<path d="M13.2168 15.456C13.2168 15.456 13.2928 17.6991 14.0817 17.4262C14.8701 17.1533 13.2168 15.456 13.2168 15.456Z" fill="#CEE7F3"/>
<path d="M19.1012 10.9085C19.8901 10.6356 18.2363 8.93823 18.2363 8.93823C18.2363 8.93823 18.3123 11.1813 19.1012 10.9085Z" fill="#CEE7F3"/>
<path d="M19.6533 12.1671C19.6533 12.1671 19.7293 14.4102 20.5182 14.1373C21.3067 13.8644 19.6533 12.1671 19.6533 12.1671Z" fill="#CEE7F3"/>
<path d="M21.0703 15.396C21.0703 15.396 21.1463 17.6391 21.9352 17.3662C22.7241 17.0933 21.0703 15.396 21.0703 15.396Z" fill="#CEE7F3"/>
<path d="M16.4821 10.9289C17.271 10.656 15.6172 8.95868 15.6172 8.95868C15.6172 8.95868 15.6932 11.2018 16.4821 10.9289Z" fill="#CEE7F3"/>
<path d="M17.0352 12.1871C17.0352 12.1871 17.1112 14.4302 17.9 14.1574C18.6889 13.8845 17.0352 12.1871 17.0352 12.1871Z" fill="#CEE7F3"/>
<path d="M18.4521 15.416C18.4521 15.416 18.5281 17.6591 19.317 17.3862C20.1059 17.1133 18.4521 15.416 18.4521 15.416Z" fill="#CEE7F3"/>
<path d="M13.8639 10.9489C14.6528 10.676 12.999 8.9787 12.999 8.9787C12.999 8.9787 13.075 11.2218 13.8639 10.9489Z" fill="#CEE7F3"/>
<path d="M14.418 12.2076C14.418 12.2076 14.494 14.4507 15.2829 14.1778C16.0713 13.9045 14.418 12.2076 14.418 12.2076Z" fill="#CEE7F3"/>
<path d="M15.835 15.436C15.835 15.436 15.911 17.6791 16.6998 17.4062C17.4887 17.1333 15.835 15.436 15.835 15.436Z" fill="#CEE7F3"/>
<path d="M10.3828 8.99866C10.3828 8.99866 10.4588 11.2418 11.2477 10.9689C12.0361 10.696 10.3828 8.99866 10.3828 8.99866Z" fill="#CEE7F3"/>
<path d="M11.7988 12.2276C11.7988 12.2276 11.8748 14.4707 12.6637 14.1978C13.4526 13.9245 11.7988 12.2276 11.7988 12.2276Z" fill="#CEE7F3"/>
<path d="M13.2168 15.456C13.2168 15.456 13.2928 17.6991 14.0817 17.4262C14.8701 17.1533 13.2168 15.456 13.2168 15.456Z" fill="#CEE7F3"/>
</g>
<path d="M21.8702 16.0209C21.8702 16.0209 23.4755 13.9196 25.1391 15.408C25.1391 15.408 28.4373 15.3498 28.408 18.5894C28.408 18.5894 31.1804 20.6151 29.4293 24.0298C29.4293 24.0298 31.7058 25.092 29.7329 27.6556L18.9515 27.7827C18.9515 27.7827 17.2004 26.0605 18.3386 23.9009C18.3386 23.9009 19.7102 21.9454 19.944 19.8147L21.8702 16.0209Z" fill="#342D23"/>
<path d="M17.551 26.9951L16.8506 27.1409L17.8137 39.8956L27.5915 40.3916L30.0137 26.9951L29.0799 26.7031L17.551 26.9951Z" fill="#A0BCC5"/>
<path d="M17.8132 39.8956L14.9238 48.2685H29.6047L27.5909 40.3916L17.8132 39.8956Z" fill="#A0BCC5"/>
<path d="M17.8145 39.8954C17.9025 39.9221 17.962 39.9372 18.0682 39.943C18.8687 39.9834 22.8767 40.187 22.8767 40.187C22.8767 40.187 26.5927 40.3754 27.3345 40.4132C27.4407 40.4181 27.502 40.4092 27.5918 40.3914C27.5042 40.3648 27.4442 40.3496 27.338 40.3439C26.5962 40.3061 22.8802 40.1176 22.8802 40.1176C22.8802 40.1176 18.8722 39.9141 18.0718 39.8736C17.9656 39.8688 17.9047 39.8776 17.8145 39.8954Z" fill="#F7F8F7"/>
<path d="M17.1104 27.0828C17.1517 27.1645 17.1841 27.2179 17.2575 27.2961C17.2672 27.3068 17.2824 27.3223 17.301 27.3419C17.3104 27.3517 17.3206 27.3623 17.3317 27.3734C17.3588 27.401 17.3864 27.429 17.4148 27.4574C17.4472 27.4894 17.4801 27.5219 17.5135 27.5548C17.5806 27.6201 17.6508 27.6859 17.7232 27.7525C18.3024 28.285 19.053 28.8423 19.8375 29.2605C20.2286 29.4712 20.6264 29.6481 21.0032 29.7859C21.3806 29.9232 21.7366 30.0223 22.0428 30.089C22.349 30.1557 22.6046 30.1903 22.7828 30.2121C22.8721 30.221 22.9419 30.2277 22.9895 30.2321C23.037 30.237 23.0624 30.2383 23.0624 30.2383C23.0624 30.2383 23.0877 30.2397 23.1352 30.2428C23.1828 30.245 23.253 30.2512 23.3424 30.2534C23.5215 30.2597 23.7797 30.2619 24.0926 30.241C24.405 30.2201 24.7721 30.1725 25.1641 30.0841C25.5561 29.9965 25.9726 29.8681 26.385 29.7014C26.7975 29.5357 27.205 29.3321 27.5855 29.1085C27.633 29.0805 27.6806 29.0525 27.7277 29.025C27.7744 28.9965 27.8201 28.9668 27.8659 28.9379C27.9575 28.8797 28.049 28.8232 28.1352 28.7623C28.2219 28.7019 28.3099 28.6454 28.3921 28.5845C28.4712 28.5268 28.5495 28.4699 28.6255 28.4139C28.6824 28.3717 28.7272 28.3352 28.7499 28.3174C28.8339 28.2512 28.8744 28.2045 28.9304 28.1325C28.8464 28.1699 28.7912 28.1974 28.7072 28.2628C28.6841 28.2801 28.6397 28.3165 28.5832 28.3583C28.5077 28.4134 28.4299 28.4703 28.3512 28.5277C28.2695 28.5881 28.1824 28.6441 28.0957 28.7041C28.0095 28.7645 27.9188 28.8205 27.8281 28.8783C27.7824 28.9068 27.737 28.9365 27.6908 28.965C27.6437 28.9925 27.597 29.0201 27.5495 29.0481C27.1712 29.2699 26.7668 29.4721 26.3579 29.6365C25.9495 29.8019 25.5366 29.929 25.1481 30.0157C24.7597 30.1028 24.3961 30.1499 24.0868 30.1708C23.777 30.1912 23.5215 30.189 23.3441 30.1832C23.2552 30.181 23.1859 30.1748 23.1388 30.1725C23.0917 30.1699 23.0668 30.1681 23.0668 30.1681C23.0668 30.1681 23.0419 30.1663 22.9948 30.1619C22.9477 30.1574 22.8788 30.1508 22.7904 30.1419C22.6139 30.1201 22.3606 30.0859 22.0575 30.0197C21.7544 29.9539 21.4015 29.8552 21.0268 29.7192C20.653 29.5823 20.2584 29.4068 19.8699 29.1979C19.0912 28.7823 18.345 28.2285 17.7695 27.6997C17.6975 27.6334 17.6277 27.5681 17.561 27.5032C17.5277 27.4708 17.4952 27.4383 17.4632 27.4068C17.4352 27.3788 17.4081 27.3508 17.381 27.3237C17.3699 27.3125 17.3597 27.3019 17.3508 27.2921C17.3321 27.273 17.3175 27.2574 17.3072 27.2468C17.2344 27.1717 17.1855 27.1357 17.1104 27.0828Z" fill="#F7F8F7"/>
<path d="M11.6461 30.1378L11.167 29.1191L12.5972 28.244L13.2452 29.5956L11.6461 30.1378Z" fill="#FAD2C3"/>
<path d="M11.1672 29.1191C11.1672 29.1191 6.67345 27.7626 6.52056 27.5746C6.41522 27.4453 6.65967 27.3435 7.069 27.4835C7.069 27.4835 6.53433 26.868 6.52989 26.6413C6.52544 26.4142 6.87211 26.6733 6.997 26.7951C7.157 26.9511 7.34589 27.1169 7.52633 27.1893C7.52633 27.1893 7.06633 26.6377 7.07567 26.484C7.085 26.3306 7.46678 26.5453 7.67122 26.7444C7.91256 26.98 8.32367 27.108 8.513 27.2057C8.513 27.2057 8.00411 26.576 7.95656 26.4026C7.909 26.2293 8.14589 26.2382 8.38589 26.4853C8.62589 26.7329 8.97967 27.1031 9.43433 27.2609C9.889 27.4186 11.2463 27.5937 11.2463 27.5937C11.2463 27.5937 10.4623 26.9737 10.4912 26.7635C10.5201 26.5533 10.9103 26.8333 11.1277 26.8986C11.345 26.9644 12.973 27.548 12.6183 28.3089L11.1672 29.1191Z" fill="#FAD2C3"/>
<path d="M7.10156 27.4915C7.19756 27.5541 7.26423 27.5928 7.39045 27.6359C7.41178 27.643 7.4469 27.6546 7.51934 27.679C7.58779 27.7012 7.75001 27.7532 7.75001 27.7532C7.75001 27.7532 7.88601 27.7959 7.96156 27.8195C8.05979 27.8483 8.12023 27.8661 8.15178 27.8755C8.28067 27.911 8.35845 27.9163 8.47312 27.915C8.37134 27.8621 8.3029 27.8288 8.17534 27.7919C8.14378 27.7826 8.08378 27.7648 7.98645 27.7359C7.91134 27.7128 7.77579 27.6706 7.77579 27.6706C7.77579 27.6706 7.61445 27.6181 7.54645 27.5963C7.47401 27.5723 7.43934 27.5612 7.41801 27.5541C7.29223 27.5123 7.21578 27.5021 7.10156 27.4915Z" fill="#DDAC9D"/>
<path d="M7.52441 27.1893C7.61286 27.2626 7.67641 27.3075 7.79908 27.3608C7.81997 27.3697 7.85419 27.3839 7.92486 27.4133C7.95552 27.4257 8.00708 27.4466 8.05197 27.4635C8.09641 27.4804 8.1333 27.4942 8.1333 27.4942C8.1333 27.4942 8.25641 27.5399 8.32575 27.563C8.42308 27.5955 8.48352 27.6146 8.51552 27.6239C8.64397 27.6626 8.72219 27.667 8.83686 27.667C8.73553 27.6128 8.66708 27.5804 8.54086 27.5408C8.50975 27.5315 8.44975 27.5128 8.35419 27.4804C8.28619 27.4573 8.16397 27.4128 8.16397 27.4128C8.16397 27.4128 8.12752 27.399 8.08397 27.3822C8.04041 27.3648 7.98886 27.3448 7.95864 27.3328C7.88841 27.3039 7.85464 27.2897 7.83419 27.2813C7.71108 27.2293 7.63686 27.2124 7.52441 27.1893Z" fill="#DDAC9D"/>
<path d="M8.51074 27.2057C8.5463 27.2511 8.58408 27.2835 8.62496 27.3137C8.6663 27.344 8.71341 27.3693 8.77608 27.396C8.79741 27.404 8.83163 27.4195 8.90496 27.4444C8.92408 27.452 8.96985 27.4657 8.96985 27.4657C8.96985 27.4657 9.00808 27.4782 9.02941 27.4849C9.12808 27.5142 9.18985 27.5293 9.2223 27.5373C9.35296 27.5689 9.43119 27.5689 9.54541 27.5626C9.44141 27.5142 9.37074 27.4857 9.24319 27.4533C9.21163 27.4453 9.15119 27.4302 9.05474 27.4013C9.03385 27.3951 8.99652 27.3831 8.99652 27.3831C8.99652 27.3831 8.95208 27.3684 8.93385 27.3617C8.86274 27.3377 8.82985 27.3226 8.80896 27.3155C8.74852 27.2906 8.70052 27.2733 8.6543 27.2573C8.60852 27.2409 8.56319 27.2289 8.51074 27.2057Z" fill="#DDAC9D"/>
<path d="M16.839 27.1307C16.839 27.1307 14.3297 27.544 14.1328 31.6596L14.9368 40.3431C14.9368 40.3431 16.9853 41.5569 17.7444 39.736L17.5266 35.9147L16.839 27.1307Z" fill="#A0BCC5"/>
<path d="M12.8874 28.7142L11.2256 29.6805L14.3923 39.5876C14.5674 40.1351 15.0105 40.5578 15.5683 40.696C16.5496 40.9396 17.9456 40.8653 17.8963 38.4462L12.8874 28.7142Z" fill="#A0BCC5"/>
<path d="M17.6678 37.4596C17.6415 37.3716 17.6215 37.3134 17.5678 37.2214C17.2909 36.7498 15.9029 34.3885 15.9029 34.3885C15.9029 34.3885 14.6082 32.1854 14.35 31.7458C14.2953 31.6543 14.2544 31.6081 14.1904 31.5427C14.2167 31.6307 14.2367 31.6889 14.2904 31.7809C14.5491 32.2209 15.8433 34.4236 15.8433 34.4236C15.8433 34.4236 17.2309 36.7849 17.5082 37.2565C17.5624 37.3481 17.6033 37.3943 17.6678 37.4596Z" fill="#F7F8F7"/>
<path d="M16.8388 28.7943C16.8259 28.8849 16.8201 28.9463 16.8308 29.0525C16.9241 29.9543 17.3916 34.4698 17.3916 34.4698C17.3916 34.4698 17.8245 38.6502 17.9108 39.4849C17.9223 39.5907 17.9405 39.6498 17.9716 39.736C17.9845 39.6454 17.9903 39.584 17.9796 39.4778C17.8934 38.6431 17.4605 34.4627 17.4605 34.4627C17.4605 34.4627 16.993 29.9467 16.8996 29.0454C16.8881 28.9396 16.8699 28.8805 16.8388 28.7943Z" fill="#F7F8F7"/>
<path d="M34.305 30.296L34.8415 29.3062L33.4633 28.3511L32.7393 29.6635L34.305 30.296Z" fill="#FAD2C3"/>
<path d="M34.8412 29.3062C34.8412 29.3062 39.4052 28.208 39.5684 28.0293C39.6808 27.9062 39.4426 27.7907 39.0261 27.9071C39.0261 27.9071 39.595 27.3231 39.6124 27.0969C39.6297 26.8707 39.2688 27.1093 39.1372 27.2236C38.9684 27.3702 38.7706 27.5249 38.5861 27.5871C38.5861 27.5871 39.0768 27.0627 39.0764 26.9089C39.0759 26.7551 38.6826 26.9476 38.467 27.1351C38.2124 27.3565 37.7946 27.4609 37.6004 27.5476C37.6004 27.5476 38.1444 26.948 38.2017 26.7778C38.259 26.6076 38.0221 26.6027 37.7684 26.836C37.5146 27.0693 37.1404 27.4187 36.6772 27.5502C36.2141 27.6818 34.8492 27.7791 34.8492 27.7791C34.8492 27.7791 35.6675 27.2049 35.6506 26.9933C35.6337 26.7818 35.2279 27.0391 35.0075 27.092C34.787 27.1453 33.1284 27.6351 33.439 28.4151L34.8412 29.3062Z" fill="#FAD2C3"/>
<path d="M38.9924 27.9133C38.8777 27.9173 38.8013 27.9231 38.6729 27.9573C38.6511 27.9631 38.6155 27.9724 38.5422 27.9924C38.4729 28.0107 38.3089 28.0538 38.3089 28.0538C38.3089 28.0538 38.1711 28.088 38.0946 28.1067C37.996 28.1298 37.9346 28.1444 37.9026 28.152C37.7733 28.1813 37.7031 28.2111 37.5986 28.2578C37.7129 28.2653 37.7911 28.2649 37.9217 28.2364C37.9537 28.2289 38.0155 28.2147 38.1151 28.1916C38.192 28.1724 38.3302 28.1378 38.3302 28.1378C38.3302 28.1378 38.4951 28.0951 38.5644 28.0769C38.6382 28.0569 38.6737 28.0471 38.6955 28.0413C38.8244 28.0053 38.8933 27.9702 38.9924 27.9133Z" fill="#DDAC9D"/>
<path d="M38.5864 27.5871C38.473 27.604 38.3979 27.6164 38.273 27.6613C38.2517 27.6689 38.2175 27.6809 38.1455 27.7058C38.1144 27.716 38.0619 27.7333 38.0175 27.748C37.9726 27.7622 37.9357 27.7742 37.9357 27.7742C37.9357 27.7742 37.8112 27.8115 37.7419 27.8307C37.6441 27.8573 37.5837 27.8729 37.5517 27.8804C37.4232 27.9124 37.3535 27.9413 37.249 27.9898C37.3632 27.996 37.4415 27.996 37.5721 27.9649C37.6046 27.9573 37.6659 27.9422 37.765 27.9151C37.8352 27.896 37.961 27.8573 37.961 27.8573C37.961 27.8573 37.9984 27.8458 38.0437 27.8315C38.089 27.8173 38.1419 27.7995 38.1735 27.7889C38.2459 27.7635 38.2806 27.7511 38.3019 27.7435C38.4277 27.6964 38.4939 27.6551 38.5864 27.5871Z" fill="#DDAC9D"/>
<path d="M37.6012 27.5475C37.5479 27.5675 37.5016 27.5769 37.455 27.5907C37.4079 27.604 37.359 27.6187 37.2976 27.64C37.2763 27.6462 37.2425 27.6591 37.1701 27.6791C37.1514 27.6849 37.1061 27.6969 37.1061 27.6969C37.1061 27.6969 37.0683 27.7062 37.047 27.7115C36.9492 27.7347 36.8879 27.7462 36.8559 27.7524C36.7265 27.7773 36.6545 27.8022 36.5479 27.8444C36.6616 27.8569 36.7399 27.8618 36.8719 27.8378C36.9047 27.832 36.967 27.82 37.0674 27.7964C37.0887 27.7907 37.1279 27.7809 37.1279 27.7809C37.1279 27.7809 37.1745 27.7693 37.1936 27.7631C37.2683 27.7422 37.3034 27.7289 37.3252 27.7222C37.3892 27.6991 37.4376 27.6764 37.4807 27.6489C37.5239 27.6209 37.563 27.5907 37.6012 27.5475Z" fill="#DDAC9D"/>
<path d="M29.2921 26.9974C29.2921 26.9974 31.7739 27.5529 31.7357 31.6734L30.4379 40.2969C30.4379 40.2969 28.3233 41.392 27.6699 39.5307L28.1055 35.728L29.2921 26.9974Z" fill="#A0BCC5"/>
<path d="M33.1473 28.804L34.7513 29.8636L31.0246 39.5738C30.8189 40.1102 30.3522 40.5071 29.7873 40.6133C28.7935 40.8005 27.4042 40.6467 27.5913 38.2342L33.1473 28.804Z" fill="#A0BCC5"/>
<path d="M28.1143 36.6503C28.1836 36.5903 28.228 36.5476 28.2894 36.4605C28.5711 36.0583 29.9827 34.0427 29.9827 34.0427C29.9827 34.0427 31.3023 32.1587 31.5658 31.7827C31.6267 31.6951 31.6511 31.6387 31.6845 31.5529C31.6151 31.6129 31.5707 31.6556 31.5094 31.7427C31.2458 32.1187 29.9263 34.0027 29.9263 34.0027C29.9263 34.0027 28.5147 36.0178 28.2329 36.4205C28.172 36.5085 28.1471 36.5649 28.1143 36.6503Z" fill="#F7F8F7"/>
<path d="M29.1962 28.6582C29.162 28.7435 29.142 28.8018 29.1269 28.9071C28.9913 29.8911 28.3113 34.8195 28.3113 34.8195C28.3113 34.8195 27.6829 39.3769 27.5571 40.2871C27.5429 40.3929 27.5469 40.4542 27.5567 40.5453C27.5909 40.46 27.6109 40.4018 27.626 40.2964C27.7513 39.3866 28.3802 34.8289 28.3802 34.8289C28.3802 34.8289 29.0598 29.9004 29.1958 28.9164C29.2096 28.8111 29.206 28.7493 29.1962 28.6582Z" fill="#F7F8F7"/>
<path d="M21.5494 23.668V26.032L17.5508 26.9951C17.5508 26.9951 24.3219 33.0951 29.0797 26.7031L25.8983 25.6525L25.7161 22.3436L21.5494 23.668Z" fill="#FAD2C3"/>
<path d="M21.0091 17.1444C21.0091 17.1444 18.2509 21.5662 21.1407 23.4489C24.03 25.3315 26.5695 22.2231 27.1384 19.5089C27.7073 16.7942 24.5989 13.6862 21.0091 17.1444Z" fill="#FAD2C3"/>
<path d="M23.2833 18.6769C23.1775 18.7213 23.1082 18.7582 23.0064 18.8458C22.9891 18.8604 22.9611 18.8849 22.9046 18.9373C22.858 18.9804 22.7971 19.0404 22.7335 19.1071C22.6704 19.1747 22.6051 19.2502 22.5491 19.3227C22.494 19.396 22.446 19.4658 22.4158 19.5191C22.3838 19.5715 22.3678 19.6067 22.3678 19.6067C22.3678 19.6067 22.3642 19.6138 22.3575 19.6271C22.3509 19.64 22.3411 19.6591 22.3318 19.684C22.322 19.7089 22.3082 19.7373 22.2989 19.772C22.2935 19.7889 22.2878 19.8071 22.282 19.8258C22.278 19.8449 22.274 19.8653 22.2695 19.8858C22.2558 19.9684 22.25 20.0653 22.2758 20.1555C22.2789 20.1787 22.2904 20.1991 22.2971 20.2209C22.3011 20.2315 22.3051 20.2422 22.3091 20.2524C22.3135 20.2627 22.3193 20.272 22.3246 20.2813C22.3353 20.3 22.3455 20.3187 22.3558 20.336C22.3682 20.352 22.3798 20.3671 22.3913 20.3818C22.4602 20.4662 22.5149 20.5049 22.5424 20.5249C22.5971 20.5689 22.6482 20.5884 22.6949 20.6089C22.7429 20.6262 22.7913 20.6355 22.8469 20.6471C22.8024 20.6102 22.7646 20.5822 22.7255 20.5533C22.6886 20.5213 22.6438 20.4964 22.5949 20.456C22.5695 20.4373 22.5202 20.4018 22.4602 20.328C22.4504 20.3151 22.4398 20.3018 22.4291 20.288C22.4206 20.2729 22.4118 20.2573 22.4029 20.2409C22.3984 20.2329 22.3931 20.2249 22.3895 20.2164C22.3864 20.2075 22.3829 20.1987 22.3798 20.1898C22.374 20.1715 22.3638 20.1542 22.3615 20.1347C22.3393 20.0587 22.3446 19.9751 22.3566 19.9018C22.3602 19.8835 22.3638 19.8653 22.3673 19.8484C22.3726 19.8315 22.3775 19.8151 22.3824 19.7995C22.3909 19.7684 22.4038 19.7418 22.4126 19.7187C22.4215 19.6955 22.4304 19.6778 22.4366 19.6658C22.4429 19.6533 22.446 19.6467 22.446 19.6467C22.446 19.6467 22.4611 19.6138 22.4913 19.5644C22.5202 19.5138 22.566 19.4475 22.6193 19.3769C22.6735 19.3067 22.7371 19.2338 22.7984 19.168C22.8606 19.1027 22.9202 19.044 22.9655 19.0018C23.0206 18.9502 23.0482 18.9262 23.0646 18.9115C23.1624 18.824 23.2109 18.7658 23.2833 18.6769Z" fill="#342D23"/>
<path d="M23.1259 20.399C23.1067 20.4142 23.0961 20.4248 23.0921 20.4462C23.0885 20.4693 23.0707 20.5848 23.0707 20.5848C23.0707 20.5848 23.053 20.6999 23.0494 20.7235C23.0467 20.7448 23.0534 20.7582 23.0672 20.7786C23.0863 20.7635 23.097 20.7528 23.101 20.7315C23.1045 20.7084 23.1223 20.5928 23.1223 20.5928C23.1223 20.5928 23.1401 20.4777 23.1436 20.4542C23.1467 20.4328 23.1396 20.419 23.1259 20.399Z" fill="#342D23"/>
<path d="M25.0811 19.64C25.0811 19.8013 24.9504 19.932 24.7891 19.932C24.6277 19.932 24.4971 19.8013 24.4971 19.64C24.4971 19.4786 24.6277 19.348 24.7891 19.348C24.9504 19.348 25.0811 19.4786 25.0811 19.64Z" fill="#342D23"/>
<path d="M22.1328 18.4436C22.1328 18.6049 22.0022 18.7355 21.8408 18.7355C21.6795 18.7355 21.5488 18.6049 21.5488 18.4436C21.5488 18.2822 21.6795 18.1516 21.8408 18.1516C22.0022 18.1516 22.1328 18.2822 22.1328 18.4436Z" fill="#342D23"/>
<path d="M20.877 17.2467C20.877 17.2467 23.1534 17.3635 24.5254 15.8751C24.5254 15.8751 24.613 18.4142 27.2396 19.1733C27.2396 19.1733 26.3347 19.436 26.5392 20.7493L26.8018 20.72C26.8018 20.72 28.4361 17.5969 25.6636 15.9333C25.6636 15.9333 22.7161 14.0653 20.877 17.2467Z" fill="#342D23"/>
<path d="M27.0535 20.7097C26.5477 20.4751 25.9233 20.7466 25.6589 21.3164C25.3944 21.8862 25.59 22.5386 26.0962 22.7733C26.602 23.008 27.2264 22.7364 27.4909 22.1666C27.7553 21.5964 27.5593 20.9444 27.0535 20.7097Z" fill="#FAD2C3"/>
<path d="M25.7376 22.4747C25.7376 22.4747 23.7389 26.7613 26.8496 27.0649C26.8496 27.0649 24.5731 29.4929 27.3807 32.528C27.3807 32.528 31.478 31.0862 30.1882 26.7613L25.9456 25.5831L25.7376 22.4747Z" fill="#342D23"/>
<path d="M21.6211 23.6898C21.7233 23.7422 21.7962 23.7716 21.9286 23.7934C21.9464 23.796 21.9735 23.8 22.0069 23.8054C22.0238 23.8076 22.042 23.8102 22.0615 23.8129C22.0998 23.8182 22.1491 23.8236 22.1958 23.8294C22.3878 23.8502 22.6158 23.8645 22.834 23.864C23.0522 23.8636 23.2602 23.8494 23.4131 23.832C23.4895 23.8222 23.5522 23.8147 23.5958 23.808C23.6393 23.8009 23.6638 23.7969 23.6638 23.7969C23.6638 23.7969 23.6882 23.7929 23.7318 23.7858C23.7749 23.7769 23.8371 23.7654 23.9126 23.7489C24.0629 23.7151 24.2646 23.6591 24.4686 23.5796C24.6722 23.5014 24.8793 23.3947 25.0406 23.2929C25.1153 23.244 25.1771 23.2045 25.2051 23.1809C25.3144 23.1014 25.3629 23.0382 25.4295 22.9458C25.326 22.9969 25.2615 23.0347 25.1544 23.1107C25.1269 23.1329 25.0664 23.1711 24.994 23.2191C24.8371 23.3182 24.6353 23.4218 24.4366 23.4982C24.2375 23.576 24.0402 23.6311 23.8931 23.664C23.8193 23.68 23.7584 23.6916 23.7162 23.7005C23.6735 23.7076 23.6495 23.7116 23.6495 23.7116C23.6495 23.7116 23.6255 23.7156 23.5829 23.7227C23.5402 23.7294 23.4784 23.7369 23.4033 23.7462C23.2531 23.7627 23.0487 23.7769 22.8335 23.7774C22.6189 23.7778 22.3944 23.7636 22.2051 23.7431C22.1589 23.7374 22.1104 23.7325 22.0726 23.7271C22.0531 23.7245 22.0353 23.7222 22.0189 23.72C21.986 23.7151 21.9593 23.7111 21.9415 23.7085C21.8113 23.6871 21.7358 23.688 21.6211 23.6898Z" fill="#DDAC9D"/>
<path d="M26.5405 20.7493C26.4685 20.8387 26.4232 20.9009 26.3663 21.0213C26.3569 21.0418 26.3414 21.0751 26.3089 21.144C26.2481 21.2747 26.1045 21.5844 26.1045 21.5844C26.1045 21.5844 25.9836 21.8436 25.9169 21.9871C25.8743 22.0796 25.8476 22.1369 25.8338 22.1667C25.7783 22.2876 25.7601 22.3627 25.7383 22.4751C25.8103 22.3858 25.8556 22.3236 25.9125 22.2031C25.9263 22.1733 25.953 22.116 25.9961 22.024C26.0627 21.8804 26.1832 21.6209 26.1832 21.6209C26.1832 21.6209 26.3272 21.3116 26.3881 21.1809C26.4201 21.1116 26.4356 21.0782 26.4449 21.0578C26.5005 20.9364 26.5187 20.8618 26.5405 20.7493Z" fill="#DDAC9D"/>
<g opacity="0.42">
<path d="M40.9981 12.4307C40.9981 11.4685 40.2181 10.6885 39.2558 10.6885C39.0816 10.6885 38.9141 10.7147 38.7554 10.7623C38.7807 10.5876 38.7945 10.4089 38.7945 10.2271C38.7945 8.18937 37.1425 6.53737 35.1047 6.53737C34.8723 6.53737 34.6456 6.56004 34.4252 6.60093C33.8581 5.67293 32.8385 5.05115 31.6714 5.05115C29.9047 5.05115 28.4714 6.4707 28.4452 8.23115C28.4269 8.2307 28.4096 8.22848 28.3914 8.22848C26.7496 8.22848 25.4189 9.55915 25.4189 11.2009C25.4189 12.8423 26.7496 14.1734 28.3914 14.1734H39.3069L39.3047 14.1707C40.2438 14.144 40.9981 13.3765 40.9981 12.4307Z" fill="#CEE7F3"/>
<path d="M36.9635 16.7281C37.676 16.4814 36.1826 14.9485 36.1826 14.9485C36.1826 14.9485 36.2511 16.9743 36.9635 16.7281Z" fill="#CEE7F3"/>
<path d="M37.4609 17.8649C37.4609 17.8649 37.5294 19.8912 38.2418 19.6445C38.9547 19.3978 37.4609 17.8649 37.4609 17.8649Z" fill="#CEE7F3"/>
<path d="M38.7412 20.7809C38.7412 20.7809 38.8097 22.8067 39.5221 22.5605C40.235 22.3138 38.7412 20.7809 38.7412 20.7809Z" fill="#CEE7F3"/>
<path d="M34.5987 16.7458C35.3112 16.4991 33.8174 14.9662 33.8174 14.9662C33.8174 14.9662 33.8863 16.9925 34.5987 16.7458Z" fill="#CEE7F3"/>
<path d="M35.0957 17.8828C35.0957 17.8828 35.1641 19.909 35.877 19.6623C36.5895 19.4161 35.0957 17.8828 35.0957 17.8828Z" fill="#CEE7F3"/>
<path d="M36.377 20.7992C36.377 20.7992 36.4454 22.825 37.1578 22.5787C37.8703 22.3321 36.377 20.7992 36.377 20.7992Z" fill="#CEE7F3"/>
<path d="M32.233 16.7641C32.9455 16.5174 31.4521 14.9845 31.4521 14.9845C31.4521 14.9845 31.5206 17.0107 32.233 16.7641Z" fill="#CEE7F3"/>
<path d="M32.7324 17.901C32.7324 17.901 32.8009 19.9272 33.5133 19.6806C34.2258 19.4339 32.7324 17.901 32.7324 17.901Z" fill="#CEE7F3"/>
<path d="M34.0117 20.8174C34.0117 20.8174 34.0802 22.8432 34.7926 22.5969C35.5055 22.3503 34.0117 20.8174 34.0117 20.8174Z" fill="#CEE7F3"/>
<path d="M29.0869 15.0027C29.0869 15.0027 29.1554 17.0285 29.8678 16.7823C30.5807 16.5356 29.0869 15.0027 29.0869 15.0027Z" fill="#CEE7F3"/>
<path d="M30.3672 17.9192C30.3672 17.9192 30.4356 19.945 31.1481 19.6987C31.861 19.4521 30.3672 17.9192 30.3672 17.9192Z" fill="#CEE7F3"/>
<path d="M31.6484 20.8356C31.6484 20.8356 31.7169 22.8613 32.4293 22.6151C33.1422 22.3685 31.6484 20.8356 31.6484 20.8356Z" fill="#CEE7F3"/>
<path d="M36.9635 16.7281C37.676 16.4814 36.1826 14.9485 36.1826 14.9485C36.1826 14.9485 36.2511 16.9743 36.9635 16.7281Z" fill="#CEE7F3"/>
<path d="M37.4609 17.8649C37.4609 17.8649 37.5294 19.8912 38.2418 19.6445C38.9547 19.3978 37.4609 17.8649 37.4609 17.8649Z" fill="#CEE7F3"/>
<path d="M38.7412 20.7809C38.7412 20.7809 38.8097 22.8067 39.5221 22.5605C40.235 22.3138 38.7412 20.7809 38.7412 20.7809Z" fill="#CEE7F3"/>
<path d="M34.5987 16.7458C35.3112 16.4991 33.8174 14.9662 33.8174 14.9662C33.8174 14.9662 33.8863 16.9925 34.5987 16.7458Z" fill="#CEE7F3"/>
<path d="M35.0957 17.8828C35.0957 17.8828 35.1641 19.909 35.877 19.6623C36.5895 19.4161 35.0957 17.8828 35.0957 17.8828Z" fill="#CEE7F3"/>
<path d="M36.377 20.7992C36.377 20.7992 36.4454 22.825 37.1578 22.5787C37.8703 22.3321 36.377 20.7992 36.377 20.7992Z" fill="#CEE7F3"/>
<path d="M32.233 16.7641C32.9455 16.5174 31.4521 14.9845 31.4521 14.9845C31.4521 14.9845 31.5206 17.0107 32.233 16.7641Z" fill="#CEE7F3"/>
<path d="M32.7324 17.901C32.7324 17.901 32.8009 19.9272 33.5133 19.6806C34.2258 19.4339 32.7324 17.901 32.7324 17.901Z" fill="#CEE7F3"/>
<path d="M34.0117 20.8174C34.0117 20.8174 34.0802 22.8432 34.7926 22.5969C35.5055 22.3503 34.0117 20.8174 34.0117 20.8174Z" fill="#CEE7F3"/>
<path d="M29.0869 15.0027C29.0869 15.0027 29.1554 17.0285 29.8678 16.7823C30.5807 16.5356 29.0869 15.0027 29.0869 15.0027Z" fill="#CEE7F3"/>
<path d="M30.3672 17.9192C30.3672 17.9192 30.4356 19.945 31.1481 19.6987C31.861 19.4521 30.3672 17.9192 30.3672 17.9192Z" fill="#CEE7F3"/>
<path d="M31.6484 20.8356C31.6484 20.8356 31.7169 22.8613 32.4293 22.6151C33.1422 22.3685 31.6484 20.8356 31.6484 20.8356Z" fill="#CEE7F3"/>
</g>
<path d="M20.5681 22.4098C20.5526 22.2751 20.465 22.1489 20.3161 22.0969C20.1975 22.0551 20.0601 22.0782 19.9624 22.1573C19.833 22.2622 19.7935 22.42 19.8352 22.5587C19.7695 22.5956 19.7126 22.6533 19.673 22.7285C19.5912 22.884 19.6179 23.0836 19.7388 23.2111C19.8975 23.3782 20.1392 23.3858 20.305 23.2596L20.3184 23.2693C20.5108 23.4111 20.7935 23.3427 20.8908 23.1076C20.9392 22.9907 20.9224 22.8511 20.8477 22.7489C20.8144 22.7031 20.7744 22.6676 20.7308 22.6422" fill="white"/>
<path d="M20.5682 22.4098C20.4913 21.8471 19.6722 22.0213 19.81 22.5662L19.8224 22.5351C19.458 22.7378 19.5629 23.3075 19.9753 23.3689C20.0971 23.3889 20.2251 23.3555 20.322 23.2809L20.29 23.2813C20.7375 23.6093 21.2118 22.9364 20.7322 22.6426C21.1638 22.9329 20.714 23.5595 20.3064 23.2258C20.1326 23.3755 19.8478 23.3338 19.7238 23.1418C19.5926 22.9564 19.662 22.6711 19.8678 22.5715C19.7113 22.0622 20.4722 21.892 20.5682 22.4098Z" fill="#263138"/>
<path d="M21.4593 22.0676C21.2869 22.2231 21.1295 22.3933 20.9873 22.5769Z" fill="#263138"/>
<path d="M20.7773 22.256C20.9658 22.1538 21.1427 22.0347 21.3076 21.8978Z" fill="#263138"/>
<path d="M20.7715 22.5085C20.9639 22.3738 21.1435 22.2231 21.3088 22.0565Z" fill="#263138"/>
<path d="M21.9339 22.0516C21.7428 22.0227 21.357 21.4813 21.6601 21.4102C21.9632 21.3391 22.7086 21.4138 23.0361 21.7498C23.3232 22.044 22.3712 21.9107 22.2326 21.9756C22.117 22.0289 22.0717 22.0724 21.9339 22.0516Z" fill="#342D23"/>
<path d="M22.2318 21.976C22.2056 21.9889 22.1865 22 22.166 22.0076C22.1225 21.8236 22.2567 21.5845 22.6825 21.5262C22.8207 21.5814 22.946 21.6542 23.0371 21.7485C23.3216 22.0431 22.3705 21.9111 22.2318 21.976Z" fill="#F094B3"/>
<path d="M23.0958 17.5062C23.0958 17.5062 22.7163 18.1924 21.4189 17.8231" stroke="#342D23" stroke-width="0.0888889" stroke-miterlimit="10" stroke-linecap="round" stroke-linejoin="round"/>
<path d="M24.335 18.1649C24.335 18.1649 24.9452 19.4987 25.9479 19.1307" stroke="#342D23" stroke-width="0.0888889" stroke-miterlimit="10" stroke-linecap="round" stroke-linejoin="round"/>
<path d="M19.869 15.3884C19.8281 15.3884 19.7876 15.3866 19.7476 15.3831C19.6054 15.3702 19.5001 15.3324 19.4254 15.268C19.3748 15.2244 19.3343 15.1573 19.3228 15.0862C19.2494 15.0849 19.1752 15.0813 19.1005 15.0769C18.9365 15.0675 18.7668 15.0489 18.6481 14.9391C18.577 14.8733 18.5365 14.7826 18.5312 14.6791C18.4019 14.6391 18.2774 14.5582 18.2228 14.4222C18.177 14.3089 18.1934 14.1889 18.2445 14.0849C18.1676 14.0258 18.1045 13.9626 18.0534 13.8942C17.937 13.7391 17.8779 13.5453 17.8823 13.3529C17.8499 13.336 17.8223 13.3133 17.8085 13.2786C17.7823 13.2142 17.8156 13.1395 17.9023 13.068C17.9205 13.0529 17.9392 13.0382 17.9574 13.024C18.061 12.7973 18.2641 12.6191 18.5045 12.5502C18.7001 12.4942 18.9059 12.5098 19.1045 12.5249C19.1081 12.5253 19.1112 12.5253 19.1148 12.5258C19.2663 12.4973 19.4143 12.4804 19.5543 12.4715C19.6365 12.4529 19.7219 12.4462 19.8063 12.4533C19.889 12.4138 19.9636 12.3569 20.0174 12.2755C20.0445 12.2346 20.065 12.1902 20.0863 12.1435C20.1076 12.0969 20.1299 12.0484 20.1592 12.004C20.281 11.8209 20.5174 11.7164 20.8628 11.6942C21.273 11.6675 21.6054 11.7382 21.8503 11.9044C21.9476 11.9706 22.0268 12.0515 22.0823 12.1391C22.2094 12.1431 22.3352 12.1729 22.4441 12.2044C22.6099 12.2524 22.9952 12.3978 22.9939 12.7142C22.9934 12.8186 22.9468 12.9146 22.9054 12.9991L22.7685 13.2804C22.7756 13.3173 22.7783 13.3538 22.7765 13.3893C22.8028 13.4 22.8281 13.4124 22.853 13.4266C22.9641 13.4898 23.0792 13.6093 23.0703 13.7546C23.0645 13.8493 23.0076 13.94 22.897 14.0311C22.7583 14.1453 22.6023 14.2253 22.437 14.284C22.3841 14.3853 22.3228 14.4822 22.2534 14.5724C22.1192 14.748 21.8952 14.9742 21.5908 15.0564C21.3899 15.1106 21.1805 15.0871 21.0139 15.0009C20.9552 15.04 20.8974 15.0733 20.8441 15.1022C20.4952 15.2924 20.1676 15.3884 19.869 15.3884ZM19.3819 15.0862C19.393 15.1395 19.4241 15.1902 19.4632 15.2244C19.5285 15.2809 19.6232 15.3142 19.753 15.3258C20.0721 15.3546 20.4299 15.2622 20.8161 15.0511C20.861 15.0266 20.909 14.9991 20.9579 14.9675C20.9041 14.9329 20.8561 14.8906 20.8156 14.8418C20.797 14.8191 20.7756 14.7893 20.7676 14.7538C20.6823 14.7671 20.5956 14.7769 20.509 14.7844C20.3779 14.8444 20.2339 14.8902 20.0863 14.9151C20.0148 14.9613 19.9392 14.996 19.8676 15.0191C19.7108 15.0706 19.5481 15.0862 19.3819 15.0862ZM19.4841 14.8844C19.4476 14.9026 19.417 14.9284 19.3974 14.964C19.3863 14.9844 19.3801 15.0066 19.3783 15.0293C19.541 15.0293 19.6992 15.0146 19.8503 14.9649C19.8774 14.956 19.905 14.9453 19.9325 14.9333C19.781 14.9426 19.6285 14.9289 19.4841 14.8844ZM18.5899 14.6942C18.5961 14.7604 18.621 14.8355 18.6872 14.8964C18.7921 14.9933 18.9508 15.0102 19.1041 15.0191C19.1765 15.0231 19.2485 15.0271 19.3201 15.028C19.3223 14.9964 19.3308 14.9653 19.3472 14.9355C19.3645 14.9044 19.3872 14.8795 19.4139 14.8595C19.3885 14.8498 19.3636 14.8391 19.3392 14.8275C19.3388 14.8302 19.3379 14.8329 19.337 14.836C19.325 14.8778 19.293 14.9093 19.2472 14.9244C19.189 14.9435 19.121 14.9329 19.0734 14.8964C19.0059 14.8449 18.9756 14.7631 18.9552 14.6849C18.881 14.7044 18.8005 14.7129 18.7179 14.7102C18.677 14.7093 18.6339 14.704 18.5899 14.6942ZM21.0672 14.9631C21.2165 15.032 21.3992 15.0484 21.5752 15.0009C21.8641 14.9231 22.0783 14.7058 22.2072 14.5373C22.2623 14.4653 22.3121 14.3893 22.3565 14.3102C22.2805 14.3338 22.2032 14.3538 22.1245 14.3711C22.037 14.4515 21.9108 14.5138 21.7436 14.5595C21.6192 14.5938 21.4925 14.6178 21.365 14.6342C21.3445 14.6711 21.3219 14.7071 21.2965 14.7413C21.2321 14.8293 21.1508 14.9022 21.0672 14.9631ZM20.8245 14.7444C20.8303 14.7671 20.8463 14.7889 20.8601 14.8058C20.9019 14.8564 20.9525 14.8991 21.0103 14.9333C21.0979 14.872 21.1841 14.7978 21.2508 14.7075C21.2663 14.6867 21.2805 14.6649 21.2939 14.6431C21.2525 14.6475 21.2116 14.6515 21.1703 14.6546C21.0588 14.6946 20.9428 14.7231 20.8245 14.7444ZM19.0099 14.6689C19.0276 14.7382 19.0539 14.8098 19.1081 14.8515C19.1396 14.8755 19.1894 14.8835 19.229 14.8706C19.2481 14.8644 19.273 14.8506 19.2814 14.8209C19.2832 14.8146 19.2841 14.808 19.285 14.8009C19.2272 14.7689 19.1712 14.7311 19.1179 14.6866C19.1014 14.6729 19.0859 14.6586 19.0708 14.644C19.0512 14.6533 19.0308 14.6613 19.0099 14.6689ZM19.5908 14.8498C19.7463 14.8822 19.9103 14.8822 20.0708 14.8569C20.093 14.8418 20.1152 14.8253 20.1361 14.808C20.1294 14.8084 20.1223 14.8089 20.1156 14.8089C19.973 14.816 19.8254 14.8231 19.6832 14.8369C19.6539 14.8395 19.6219 14.8431 19.5908 14.8498ZM20.2263 14.8031C20.2165 14.8129 20.2068 14.8222 20.1965 14.8311C20.2356 14.8218 20.2748 14.8106 20.313 14.7982C20.2841 14.8 20.2552 14.8018 20.2263 14.8031ZM19.3441 14.7653C19.389 14.7875 19.4356 14.8062 19.4832 14.8213C19.545 14.796 19.6148 14.7853 19.6779 14.7791C19.821 14.7653 19.9694 14.7582 20.113 14.7511C20.1423 14.7498 20.1716 14.7484 20.2014 14.7466C20.2263 14.7204 20.249 14.6924 20.2694 14.6622C19.9943 14.6569 19.713 14.6546 19.4392 14.6835C19.4041 14.6871 19.3699 14.6938 19.3552 14.7151C19.3463 14.728 19.3445 14.7453 19.3441 14.7653ZM20.3361 14.6635C20.3196 14.6915 20.301 14.7178 20.281 14.7426C20.3516 14.7386 20.4223 14.7342 20.493 14.728C20.533 14.7093 20.5721 14.6893 20.6099 14.668C20.5263 14.6671 20.4428 14.6653 20.3596 14.6635C20.3521 14.664 20.3441 14.664 20.3361 14.6635ZM19.1245 14.6155C19.1343 14.6249 19.1445 14.6338 19.1548 14.6422C19.197 14.6778 19.2419 14.7089 19.2885 14.7355C19.2908 14.7178 19.2961 14.6995 19.3072 14.6826C19.3352 14.6418 19.3841 14.6311 19.4325 14.6262C19.7205 14.596 20.0152 14.5995 20.3023 14.6049C20.3156 14.5791 20.3268 14.5524 20.3361 14.5244C20.2739 14.5462 20.2076 14.5538 20.1472 14.5591C19.8508 14.5853 19.553 14.568 19.2632 14.5089C19.2223 14.5493 19.1761 14.5853 19.1245 14.6155ZM20.7196 14.6689C20.7165 14.6711 20.713 14.6729 20.7099 14.6751C20.6903 14.6875 20.6699 14.7 20.6494 14.712C20.6894 14.7071 20.729 14.7018 20.7681 14.6951C20.7703 14.6862 20.7734 14.6773 20.7774 14.6684C20.7583 14.6689 20.7388 14.6689 20.7196 14.6689ZM20.8472 14.6684C20.8428 14.6733 20.8388 14.6787 20.8352 14.684C20.8632 14.6787 20.8912 14.6729 20.9192 14.6666C20.8948 14.6675 20.8708 14.668 20.8472 14.6684ZM18.5885 14.6351C18.6334 14.6458 18.6783 14.6515 18.7196 14.6529C18.7974 14.6555 18.8721 14.6475 18.9414 14.6293C18.9276 14.5689 18.9139 14.5009 18.9023 14.428C18.8983 14.4213 18.8943 14.4142 18.8908 14.4075C18.8272 14.3858 18.7641 14.3622 18.7019 14.336C18.6383 14.4204 18.5965 14.524 18.589 14.624C18.589 14.628 18.5885 14.6315 18.5885 14.6351ZM18.2912 14.1191C18.2508 14.2075 18.2383 14.3071 18.2761 14.4009C18.3214 14.5133 18.4228 14.5822 18.5321 14.6191C18.5401 14.512 18.5823 14.4035 18.6472 14.3133C18.6188 14.3009 18.5908 14.288 18.5628 14.2746C18.4583 14.2244 18.3681 14.1733 18.2912 14.1191ZM18.9819 14.5458C18.9868 14.5689 18.9912 14.5911 18.9961 14.6124C19.0068 14.6084 19.0174 14.6044 19.0276 14.6C19.0121 14.5826 18.9965 14.5644 18.9819 14.5458ZM20.3659 14.6066C20.4774 14.6089 20.5899 14.6111 20.7023 14.6115C20.8192 14.5342 20.9263 14.4462 21.0259 14.3502C20.9779 14.3418 20.9276 14.3293 20.8765 14.3133C20.7961 14.288 20.685 14.2444 20.585 14.1742C20.5756 14.2884 20.5325 14.404 20.4325 14.476C20.4236 14.4826 20.4143 14.4884 20.405 14.4938C20.3956 14.5338 20.3823 14.5711 20.3659 14.6066ZM21.0979 14.36C21.0068 14.4506 20.9094 14.5351 20.8041 14.6111C20.8108 14.6111 20.817 14.6111 20.8236 14.6111C20.8552 14.5844 20.8983 14.5613 20.9525 14.5444C21.0943 14.4991 21.2428 14.4671 21.3916 14.4404C21.4076 14.4 21.4228 14.3582 21.4379 14.3151C21.3414 14.3582 21.2268 14.3738 21.0979 14.36ZM21.3654 14.5031C21.2308 14.528 21.0974 14.5582 20.9699 14.5986C20.9632 14.6009 20.9539 14.604 20.9432 14.6084C21.0148 14.6062 21.0868 14.6026 21.1583 14.5973C21.2294 14.5715 21.2988 14.5404 21.3654 14.5031C21.3654 14.5035 21.3654 14.5035 21.3654 14.5031ZM18.9752 14.4355C19.0063 14.4849 19.0423 14.5311 19.0819 14.5738C19.1223 14.5511 19.1601 14.5244 19.1943 14.4946C19.121 14.4778 19.0476 14.4578 18.9752 14.4355ZM21.4103 14.5444C21.4063 14.5538 21.4019 14.5626 21.3974 14.572C21.509 14.556 21.6201 14.5342 21.729 14.5044C21.8334 14.4755 21.921 14.4409 21.9912 14.3986C21.8854 14.4186 21.7788 14.4355 21.673 14.452C21.621 14.46 21.569 14.4684 21.5165 14.4769C21.505 14.4849 21.4934 14.4929 21.4814 14.5009C21.4579 14.5164 21.4343 14.5306 21.4103 14.5444ZM19.3116 14.4604C19.5841 14.5129 19.8636 14.5275 20.1423 14.5026C20.2112 14.4964 20.2881 14.4871 20.3543 14.4555C20.3712 14.3658 20.3663 14.2738 20.361 14.1769C20.3592 14.1453 20.3574 14.1142 20.3565 14.0826C20.3059 14.128 20.2499 14.1658 20.1894 14.1933C19.9939 14.2826 19.7788 14.2662 19.5819 14.1831C19.5583 14.18 19.5348 14.1755 19.5112 14.1698C19.5036 14.1831 19.4961 14.1964 19.4885 14.2098C19.4459 14.2849 19.3876 14.3764 19.3116 14.4604ZM18.9512 14.3675C19.0481 14.3991 19.1463 14.4253 19.2454 14.4471C19.3299 14.3609 19.3934 14.2609 19.4392 14.1813C19.4445 14.172 19.4499 14.1626 19.4552 14.1533C19.3912 14.1311 19.329 14.0986 19.2721 14.0569C19.1525 14.0778 19.0356 14.1071 18.929 14.1578C18.9339 14.2306 18.9414 14.3009 18.9512 14.3675ZM21.5059 14.2946C21.5028 14.3031 21.5001 14.3115 21.497 14.32C21.4841 14.3569 21.4712 14.3933 21.4579 14.4284C21.4699 14.4262 21.4814 14.4244 21.4934 14.4226C21.5308 14.3946 21.5752 14.3564 21.6139 14.3098C21.5779 14.3058 21.5419 14.3004 21.5059 14.2946ZM20.4139 14.0258C20.4139 14.0329 20.4139 14.0395 20.4139 14.0466C20.4143 14.0889 20.4165 14.1315 20.4188 14.1742C20.4232 14.2529 20.4272 14.3342 20.4188 14.4142C20.4988 14.344 20.5285 14.2329 20.5299 14.1311C20.4903 14.0973 20.4543 14.0591 20.4241 14.0146C20.4201 14.0182 20.417 14.0218 20.4139 14.0258ZM21.681 14.3169C21.6592 14.3471 21.6339 14.3764 21.6041 14.4049C21.6241 14.4018 21.6441 14.3986 21.6641 14.3955C21.8116 14.3724 21.9565 14.3493 22.0965 14.3195C22.1005 14.316 22.1041 14.312 22.1081 14.308C22.0445 14.32 21.9739 14.3262 21.8961 14.3266C21.8241 14.3262 21.7525 14.3231 21.681 14.3169ZM18.7405 14.2902C18.7779 14.3058 18.8156 14.32 18.8534 14.3338C18.8374 14.2986 18.8236 14.2631 18.8116 14.2266C18.7868 14.2453 18.7628 14.2666 18.7405 14.2902ZM21.1503 14.3066C21.2303 14.3106 21.313 14.3022 21.389 14.2729C21.3681 14.2684 21.3468 14.2635 21.3259 14.2586C21.2894 14.2498 21.2548 14.2404 21.221 14.2302C21.1979 14.256 21.1743 14.2813 21.1503 14.3066ZM20.5868 14.1035C20.6881 14.1835 20.809 14.2315 20.8939 14.2582C20.9485 14.2751 21.0112 14.2906 21.077 14.3C21.1054 14.2711 21.1339 14.2413 21.161 14.2106C20.9761 14.1475 20.8316 14.0613 20.7228 13.9498C20.6645 13.8898 20.6156 13.8218 20.5783 13.748C20.5654 13.7835 20.5503 13.8178 20.5334 13.8511C20.5521 13.9062 20.5685 13.9626 20.5783 14.0204C20.5828 14.0466 20.5859 14.0746 20.5868 14.1035ZM22.2005 14.2835C22.1974 14.288 22.1943 14.2924 22.1912 14.2969C22.261 14.2795 22.329 14.2604 22.3956 14.2378C22.4779 14.076 22.5379 13.9026 22.5739 13.7249C22.5485 13.7422 22.521 13.7578 22.4921 13.7711C22.5183 13.8929 22.5076 14.0155 22.4348 14.12C22.3823 14.1951 22.3041 14.2493 22.2005 14.2835ZM21.7152 14.2618C21.7752 14.2662 21.8356 14.2684 21.8956 14.2684C21.9988 14.2684 22.0881 14.2569 22.1632 14.2351C22.1685 14.2258 22.1739 14.2164 22.1788 14.2066C22.233 14.0964 22.2299 13.9582 22.1743 13.832C22.0645 13.8306 21.9574 13.8115 21.8592 13.7911C21.8396 13.8249 21.821 13.8595 21.8023 13.8938C21.785 13.9262 21.7672 13.9586 21.749 13.9906C21.7561 14.0146 21.7605 14.04 21.7619 14.0666C21.7659 14.132 21.7494 14.1982 21.7152 14.2618ZM18.3183 14.068C18.3943 14.1218 18.4832 14.1729 18.5876 14.2226C18.6196 14.2378 18.6516 14.2524 18.6841 14.2666C18.7156 14.2306 18.7516 14.1982 18.7903 14.1715C18.7916 14.1706 18.7934 14.1693 18.7948 14.1684C18.7623 14.0462 18.7516 13.9178 18.765 13.792C18.661 13.8138 18.5588 13.8489 18.469 13.9098C18.4108 13.9489 18.3574 14.004 18.3183 14.068ZM21.5512 14.2435C21.585 14.2484 21.6183 14.2529 21.6521 14.256C21.6859 14.2018 21.7081 14.1386 21.7041 14.0698C21.7041 14.068 21.7041 14.0662 21.7036 14.0644C21.661 14.1315 21.6121 14.1933 21.5512 14.2435ZM18.8641 14.1924C18.8681 14.2062 18.8725 14.2195 18.8774 14.2329C18.8761 14.2178 18.8748 14.2022 18.8734 14.1866C18.8703 14.1889 18.8672 14.1906 18.8641 14.1924ZM21.2632 14.1822C21.2881 14.1893 21.3139 14.196 21.3401 14.2026C21.3823 14.2129 21.425 14.2222 21.4676 14.2298C21.5112 14.1035 21.5534 13.9764 21.5943 13.8489C21.5801 13.8346 21.5654 13.8213 21.5508 13.8089C21.4601 13.9378 21.3654 14.0635 21.2632 14.1822ZM22.6428 13.6693C22.6112 13.8555 22.5543 14.0382 22.4739 14.2093C22.6125 14.1551 22.7423 14.084 22.8605 13.9862C22.9583 13.9053 23.0081 13.8284 23.013 13.7502C23.0205 13.6311 22.9205 13.5302 22.8245 13.4755C22.8068 13.4653 22.7881 13.456 22.7694 13.4475C22.7676 13.4564 22.7654 13.4653 22.7632 13.4742C22.7428 13.5471 22.7005 13.6142 22.6428 13.6693ZM22.2361 13.8311C22.285 13.9569 22.2885 14.0915 22.2423 14.2053C22.3041 14.176 22.353 14.1364 22.3872 14.0871C22.4481 14 22.4583 13.8969 22.4379 13.7929C22.4139 13.8013 22.3894 13.8084 22.3641 13.8138C22.3219 13.8235 22.2788 13.8289 22.2361 13.8311ZM19.7574 14.18C19.8948 14.2093 20.0352 14.2013 20.1659 14.1413C20.237 14.1089 20.3014 14.0613 20.357 14.0026C20.3583 13.968 20.3614 13.9351 20.3668 13.9035C20.3632 13.8933 20.3596 13.8831 20.3565 13.8724C20.353 13.8595 20.3499 13.8466 20.3472 13.8338C20.2876 13.8538 20.2276 13.8729 20.1672 13.8902C20.0672 14.036 19.9481 14.128 19.8072 14.168C19.7908 14.1729 19.7743 14.1769 19.7574 14.18ZM21.6383 13.8995C21.6094 13.9893 21.5796 14.0791 21.5494 14.168C21.6028 14.116 21.6459 14.0529 21.6859 13.9849C21.6743 13.9542 21.6574 13.9258 21.6383 13.8995ZM20.6321 13.7253C20.6668 13.7929 20.7112 13.8555 20.7636 13.9098C20.8708 14.0195 21.0152 14.1031 21.2028 14.164C21.3103 14.0409 21.4099 13.9089 21.5054 13.7742C21.4863 13.7609 21.4681 13.7493 21.4525 13.74C21.3619 13.7155 21.2748 13.68 21.1996 13.6315C21.1112 13.6053 21.0196 13.5902 20.9272 13.5853C20.9165 13.5911 20.9054 13.5969 20.8943 13.6026C20.8081 13.6466 20.7205 13.6875 20.6321 13.7253ZM18.8254 13.7809C18.8116 13.8986 18.8201 14.0191 18.8485 14.1351C18.8556 14.1311 18.8628 14.1271 18.8699 14.1231C18.8645 14.0098 18.8663 13.8911 18.8801 13.7724C18.8619 13.7751 18.8436 13.7778 18.8254 13.7809ZM19.5952 14.1275C19.6619 14.1355 19.7285 14.1311 19.7912 14.1129C19.8992 14.0822 19.9943 14.0164 20.077 13.9151C19.9268 13.9546 19.7739 13.9858 19.6192 14.008C19.6112 14.0093 19.6028 14.0102 19.5948 14.0115C19.5792 14.0426 19.5632 14.0742 19.5468 14.1049C19.5632 14.1129 19.5792 14.1204 19.5952 14.1275ZM18.9388 13.7662C18.925 13.8773 18.9219 13.9889 18.9263 14.096C19.0174 14.0551 19.1148 14.0289 19.2143 14.0093C19.205 14.0009 19.1961 13.992 19.1872 13.9831C19.125 13.92 19.0725 13.844 19.0312 13.7582C19.0005 13.7604 18.9699 13.7631 18.9388 13.7662ZM19.4259 14.0338C19.449 14.0493 19.4725 14.064 19.4965 14.0778C19.5068 14.0586 19.5165 14.0395 19.5263 14.0204C19.5156 14.0218 19.505 14.0231 19.4943 14.0244C19.4712 14.028 19.4485 14.0306 19.4259 14.0338ZM20.461 13.9671C20.4792 13.996 20.5005 14.0226 20.5241 14.0471C20.5232 14.0413 20.5223 14.0355 20.5214 14.0298C20.5152 13.9924 20.5054 13.9551 20.4943 13.9182C20.4841 13.9351 20.473 13.9515 20.461 13.9671ZM17.9392 13.3764C17.9396 13.5489 17.9948 13.7204 18.0992 13.8591C18.1459 13.9213 18.2032 13.9786 18.2725 14.0333C18.3156 13.964 18.3739 13.9044 18.437 13.8618C18.5374 13.7938 18.653 13.7555 18.7734 13.732C18.7819 13.68 18.7948 13.6289 18.8116 13.5786C18.5143 13.5449 18.2214 13.4769 17.9392 13.3764ZM19.1339 13.7511C19.1965 13.8378 19.2734 13.9178 19.3592 13.9853C19.4019 13.9791 19.4441 13.9738 19.4868 13.968C19.5103 13.9649 19.5339 13.9618 19.5574 13.9586C19.5761 13.9204 19.5948 13.8826 19.613 13.8449C19.6192 13.832 19.6254 13.8191 19.6316 13.8062C19.5556 13.7938 19.4876 13.7604 19.4236 13.7191C19.3281 13.7364 19.2303 13.744 19.1339 13.7511ZM19.693 13.8115C19.6832 13.8311 19.6739 13.8506 19.6645 13.8702C19.6516 13.8964 19.6392 13.9226 19.6259 13.9489C19.797 13.9235 19.9654 13.8875 20.1312 13.8409C20.2019 13.7329 20.2623 13.5946 20.3134 13.4244L20.3361 13.3475C20.3734 13.2213 20.4112 13.0929 20.4628 12.9742C20.4552 12.9604 20.4476 12.9466 20.4392 12.9333C20.3948 12.9578 20.3508 12.9849 20.3072 13.0142C20.3019 13.0209 20.2965 13.0275 20.2912 13.0342C20.293 13.1418 20.2663 13.2542 20.2285 13.3484C20.1325 13.5858 19.933 13.8115 19.693 13.8115ZM21.6596 13.8333C21.6832 13.8604 21.7045 13.8902 21.7214 13.9226C21.7316 13.904 21.7419 13.8853 21.7521 13.8666C21.7668 13.8391 21.7819 13.8115 21.7974 13.7844C21.7743 13.7844 21.7508 13.7835 21.7268 13.7826C21.7103 13.7818 21.6939 13.7809 21.677 13.7791C21.6712 13.7973 21.6654 13.8151 21.6596 13.8333ZM20.4259 13.8982C20.4276 13.9022 20.4294 13.9066 20.4312 13.9106C20.4454 13.8902 20.4583 13.8684 20.4708 13.8462C20.4654 13.8306 20.4596 13.8151 20.4539 13.8C20.441 13.8315 20.4321 13.8649 20.4259 13.8982ZM20.3601 13.4693C20.3179 13.6044 20.269 13.7204 20.2134 13.8169C20.2556 13.804 20.2979 13.7902 20.3396 13.776C20.3352 13.7049 20.3476 13.6346 20.373 13.5689C20.3645 13.5373 20.3579 13.5031 20.3601 13.4693ZM21.5939 13.7693C21.6005 13.7751 21.6072 13.7809 21.6139 13.7871C21.6152 13.7822 21.617 13.7778 21.6183 13.7729C21.6103 13.7715 21.6019 13.7706 21.5939 13.7693ZM22.1819 13.724C22.1925 13.7404 22.2019 13.7573 22.2108 13.7742C22.2588 13.7729 22.3059 13.7675 22.3521 13.7578C22.377 13.7524 22.401 13.7453 22.4245 13.7369C22.4116 13.6946 22.3948 13.6524 22.3743 13.6115C22.3205 13.6586 22.2561 13.696 22.1819 13.724ZM22.037 13.764C22.0739 13.7689 22.1099 13.772 22.145 13.7738C22.1388 13.7631 22.1325 13.7529 22.1254 13.7426C22.097 13.7511 22.0676 13.7582 22.037 13.764ZM20.405 13.6689C20.3992 13.6978 20.3965 13.7266 20.397 13.756C20.4023 13.7542 20.4081 13.752 20.4134 13.7502C20.4174 13.7422 20.4214 13.7342 20.4259 13.7262C20.4192 13.7071 20.4121 13.688 20.405 13.6689ZM19.8352 13.5395C19.7952 13.6093 19.7579 13.6809 19.7223 13.7524C19.9228 13.7346 20.0912 13.5351 20.1756 13.3262C20.2028 13.2595 20.2236 13.1826 20.2316 13.1066C20.1499 13.2035 20.0632 13.2978 19.9623 13.3738C19.9583 13.3822 19.9543 13.3902 19.9499 13.3982C19.9219 13.4502 19.8828 13.4978 19.8352 13.5395ZM19.5063 13.7018C19.5521 13.7262 19.5992 13.7444 19.6503 13.7511C19.653 13.7515 19.6556 13.752 19.6583 13.752C19.681 13.7067 19.7036 13.6609 19.7276 13.6155C19.7014 13.6306 19.6734 13.6444 19.6441 13.6564C19.5992 13.6751 19.553 13.6898 19.5063 13.7018ZM21.7032 13.6938C21.7472 13.7071 21.7903 13.7178 21.8308 13.7266C21.8632 13.6733 21.8983 13.6222 21.9392 13.576C21.9423 13.5724 21.9454 13.5689 21.9485 13.5658C21.8996 13.5302 21.8441 13.4978 21.7814 13.468C21.7748 13.4778 21.7685 13.4875 21.7619 13.4973C21.7432 13.5626 21.7232 13.628 21.7032 13.6938ZM21.9948 13.6009C21.9908 13.6053 21.9868 13.6098 21.9828 13.6142C21.953 13.648 21.9259 13.6849 21.901 13.7235C21.9632 13.7191 22.0268 13.7098 22.0885 13.6938C22.061 13.6609 22.0294 13.6298 21.9948 13.6009ZM18.8703 13.5853C18.8548 13.6298 18.8428 13.6755 18.8343 13.7218C18.8521 13.7191 18.8703 13.7164 18.8881 13.7142C18.8943 13.6724 18.9023 13.6306 18.9116 13.5889C18.8974 13.588 18.8836 13.5867 18.8703 13.5853ZM20.5428 13.6724C20.5272 13.6858 20.513 13.7004 20.501 13.7169C20.5116 13.7129 20.5223 13.7084 20.533 13.704C20.5361 13.6938 20.5396 13.6831 20.5428 13.6724ZM22.4165 13.5698C22.441 13.6164 22.4619 13.6653 22.477 13.7146C22.5183 13.6946 22.5561 13.6693 22.589 13.6409C22.5952 13.6022 22.6001 13.5631 22.6041 13.524C22.5903 13.5311 22.5765 13.5355 22.5623 13.5364C22.5343 13.5386 22.5103 13.5266 22.4939 13.5026L22.4859 13.4911L22.5032 13.4386C22.4841 13.4809 22.4592 13.5213 22.4272 13.5582C22.4236 13.5622 22.4201 13.5662 22.4165 13.5698ZM18.9685 13.596C18.9601 13.6329 18.9525 13.6702 18.9468 13.7075C18.9663 13.7058 18.9863 13.704 19.0059 13.7022C18.9916 13.6684 18.9792 13.6329 18.9685 13.596ZM21.4752 13.6866C21.501 13.6933 21.5272 13.6991 21.5539 13.7044C21.5548 13.7035 21.5552 13.7022 21.5561 13.7013C21.4294 13.6458 21.3125 13.5622 21.2539 13.4315C21.2419 13.4049 21.233 13.3778 21.2263 13.3502C21.1939 13.3924 21.153 13.4329 21.1032 13.472C21.1361 13.5133 21.177 13.5484 21.2228 13.5791C21.3054 13.604 21.3859 13.6378 21.4619 13.68C21.4663 13.6818 21.4708 13.684 21.4752 13.6866ZM19.0405 13.5982C19.0561 13.6298 19.0748 13.6622 19.0965 13.696L19.1023 13.6955C19.1863 13.6898 19.2721 13.684 19.3561 13.672C19.3396 13.66 19.3232 13.6475 19.3072 13.6355C19.2908 13.6231 19.2743 13.6106 19.2579 13.5986C19.1885 13.6018 19.1161 13.6013 19.0405 13.5982ZM21.6441 13.6742C21.6454 13.6747 21.6472 13.6751 21.6485 13.676C21.6503 13.6711 21.6516 13.6658 21.6534 13.6609C21.6503 13.6653 21.6472 13.6698 21.6441 13.6742ZM22.0361 13.5609C22.0783 13.5964 22.1152 13.6346 22.1472 13.6755C22.2201 13.6498 22.2885 13.6129 22.3454 13.56C22.3223 13.52 22.2961 13.4822 22.2685 13.4471C22.2654 13.4431 22.2614 13.4382 22.257 13.4329C22.1765 13.4613 22.1005 13.504 22.0361 13.5609ZM20.6041 13.6649C20.6054 13.6675 20.6063 13.6706 20.6076 13.6733C20.6716 13.6462 20.7352 13.6173 20.7983 13.5866C20.7245 13.5915 20.6632 13.6053 20.613 13.6284C20.6103 13.6404 20.6076 13.6524 20.6041 13.6649ZM20.4343 13.5746C20.4436 13.6058 20.4548 13.6373 20.4659 13.6684C20.4783 13.6538 20.4921 13.64 20.5068 13.6275C20.5121 13.6231 20.5179 13.6186 20.5236 13.6142C20.509 13.5671 20.4988 13.5191 20.4925 13.4702C20.4694 13.5035 20.4499 13.5382 20.4343 13.5746ZM19.3454 13.5924C19.3756 13.6151 19.4059 13.6378 19.4356 13.6582C19.4996 13.6458 19.5619 13.628 19.6219 13.6035C19.6859 13.5769 19.7423 13.5426 19.7899 13.5026C19.7965 13.4911 19.8032 13.48 19.8099 13.4684C19.6783 13.5351 19.5241 13.576 19.3454 13.5924ZM21.2783 13.3164C21.2836 13.3475 21.293 13.3782 21.3063 13.408C21.3592 13.5266 21.4694 13.6022 21.589 13.6529C21.6299 13.5929 21.6699 13.5329 21.7094 13.4724C21.7125 13.4613 21.7156 13.4507 21.7192 13.4395C21.7085 13.4351 21.6974 13.4302 21.6859 13.4258C21.5552 13.3738 21.4179 13.3373 21.2783 13.3164ZM22.6659 13.4724C22.6636 13.5031 22.661 13.5338 22.6574 13.5644C22.6801 13.5315 22.697 13.4964 22.7072 13.4591C22.7103 13.4484 22.7125 13.4378 22.7143 13.4266C22.7094 13.4249 22.7041 13.4231 22.6988 13.4218L22.6974 13.4244C22.6899 13.4404 22.6792 13.4573 22.6659 13.4724ZM20.6312 13.3329C20.633 13.3515 20.6343 13.3702 20.6348 13.3889C20.637 13.4471 20.6334 13.5049 20.6254 13.5609C20.6819 13.5409 20.7476 13.5298 20.8245 13.5271C20.8543 13.5262 20.8836 13.5262 20.9134 13.5271C20.9503 13.5066 20.9876 13.4835 21.0236 13.4582C20.9992 13.4186 20.9801 13.3746 20.9676 13.3266C20.965 13.3164 20.9628 13.3062 20.961 13.296C20.8503 13.2986 20.7396 13.3106 20.6312 13.3329ZM20.545 13.4049C20.5476 13.4555 20.5556 13.5062 20.5681 13.5555C20.5761 13.5018 20.5792 13.4466 20.5774 13.3911C20.577 13.3849 20.577 13.3786 20.5765 13.3724C20.5659 13.3831 20.5552 13.3938 20.545 13.4049ZM21.0134 13.5351C21.0405 13.5382 21.0672 13.5422 21.0943 13.5475C21.0814 13.5342 21.069 13.5204 21.0574 13.5062C21.0432 13.5155 21.0285 13.5253 21.0134 13.5351ZM19.0139 13.5391C19.0703 13.5422 19.1245 13.5435 19.177 13.5431C19.1236 13.5102 19.069 13.4849 19.0085 13.4742C19.0068 13.4738 19.0045 13.4738 19.0028 13.4733C19.0019 13.4764 19.001 13.4795 18.9996 13.4822C19.0028 13.4986 19.0063 13.5151 19.0103 13.5311C19.0116 13.5338 19.0125 13.5364 19.0139 13.5391ZM19.0223 13.4187C19.1165 13.436 19.1979 13.4849 19.2748 13.54C19.5192 13.5262 19.717 13.4684 19.8748 13.3649C19.8756 13.3644 19.8765 13.3635 19.8774 13.3631C19.8952 13.3369 19.9139 13.3111 19.9334 13.2862C19.9619 13.1929 19.9645 13.0902 19.9672 12.9835C19.9694 12.8929 19.9716 12.8004 19.9912 12.7124C19.9276 12.6991 19.8596 12.7004 19.7974 12.7062C19.7272 12.7311 19.6588 12.7609 19.5921 12.7955C19.4556 12.8666 19.341 12.9515 19.2503 13.0484C19.1468 13.1591 19.073 13.2853 19.0223 13.4187ZM18.8921 13.5298C18.9032 13.5307 18.9143 13.532 18.9254 13.5329C18.929 13.5195 18.933 13.5058 18.937 13.4924C18.9356 13.488 18.9348 13.484 18.9334 13.4795C18.9299 13.4813 18.9263 13.4835 18.9232 13.4858C18.9094 13.4955 18.8996 13.5124 18.8921 13.5298ZM21.8139 13.4191C21.8801 13.4511 21.9388 13.4862 21.9903 13.5244C22.0561 13.4649 22.1334 13.4186 22.2161 13.3866C22.1512 13.3213 22.0463 13.2426 21.9432 13.2862C21.8863 13.3106 21.8463 13.3702 21.8139 13.4191ZM17.9414 13.316C17.9463 13.3178 17.9516 13.32 17.9565 13.3218C18.2396 13.4226 18.5339 13.4902 18.8321 13.5235C18.8325 13.5226 18.833 13.5218 18.8334 13.5204C18.845 13.4924 18.8596 13.4609 18.8885 13.4395C18.8983 13.4324 18.909 13.4266 18.921 13.4222C18.9179 13.4031 18.9161 13.384 18.9152 13.3649C18.9139 13.3338 18.9152 13.3026 18.9196 13.2715C18.9179 13.16 18.933 13.0578 18.9645 12.9666C19.0174 12.8124 19.1272 12.6835 19.2654 12.5929C19.2183 12.5906 19.1708 12.5871 19.1241 12.5835C18.6916 12.6662 18.3081 12.828 18.0032 13.06C17.9943 13.08 17.9868 13.1004 17.9796 13.1213C17.9588 13.1849 17.9459 13.2502 17.9414 13.316ZM22.3165 13.4146C22.3414 13.4466 22.365 13.4809 22.3868 13.5169C22.4188 13.4786 22.4428 13.4369 22.4601 13.3929C22.4116 13.3955 22.3636 13.4026 22.3165 13.4146ZM22.5503 13.4782C22.5525 13.4791 22.5552 13.4791 22.5579 13.4791C22.5725 13.4782 22.5921 13.4658 22.6099 13.4484C22.6108 13.4329 22.6116 13.4169 22.6121 13.4013C22.6005 13.3995 22.589 13.3978 22.577 13.3964L22.5503 13.4782ZM20.4863 13.3764C20.4596 13.3906 20.4374 13.4093 20.4259 13.4355C20.4201 13.4489 20.4174 13.4631 20.417 13.4782C20.437 13.4444 20.4601 13.4124 20.4863 13.3822C20.4863 13.3804 20.4863 13.3786 20.4863 13.3764ZM21.0201 13.296C21.0214 13.3018 21.0223 13.3071 21.0241 13.3129C21.0343 13.3533 21.0499 13.3902 21.0703 13.424C21.1148 13.3884 21.1552 13.3484 21.1872 13.3049C21.1312 13.2995 21.0756 13.2964 21.0201 13.296ZM20.4965 13.0435C20.4556 13.1466 20.4232 13.256 20.3916 13.364L20.3823 13.3955C20.4063 13.3551 20.4459 13.3298 20.4881 13.3124C20.489 13.2978 20.4903 13.2831 20.4921 13.2684C20.4983 13.2169 20.5094 13.1658 20.5254 13.1164C20.5165 13.0915 20.5072 13.0671 20.4965 13.0435ZM21.2819 13.2586C21.4276 13.28 21.5708 13.3182 21.7072 13.3724C21.7165 13.376 21.7259 13.38 21.7352 13.384C21.7388 13.3707 21.7428 13.3578 21.7463 13.3444C21.7556 13.3115 21.7632 13.28 21.7521 13.256C21.7365 13.2222 21.6868 13.2111 21.6401 13.2044C21.5796 13.196 21.5174 13.1875 21.4543 13.1804C21.4485 13.1826 21.4423 13.1849 21.4365 13.1871L21.433 13.1782C21.3921 13.1738 21.3508 13.1702 21.3094 13.1675C21.305 13.1986 21.2956 13.2289 21.2819 13.2586ZM22.005 13.2164C22.1174 13.2164 22.2183 13.304 22.2761 13.3666C22.3419 13.3475 22.4099 13.3369 22.4783 13.3351C22.5188 13.1738 22.4761 12.992 22.3841 12.8471C22.3041 12.7906 22.2183 12.7444 22.1303 12.7058C22.1232 12.7044 22.1161 12.7031 22.109 12.7018C22.0668 12.7831 22.005 12.86 21.9272 12.9266C21.8179 13.02 21.6899 13.0849 21.5668 13.1364C21.5943 13.14 21.6219 13.144 21.649 13.1475C21.7108 13.156 21.7779 13.1729 21.805 13.232C21.8188 13.2613 21.8174 13.2924 21.8112 13.3231C21.8401 13.2866 21.8752 13.2529 21.921 13.2338C21.9494 13.2218 21.9774 13.2164 22.005 13.2164ZM18.9774 13.2751C18.9779 13.3035 18.9796 13.3329 18.9823 13.3631C19.0348 13.2364 19.1081 13.116 19.2085 13.0093C19.3032 12.9084 19.4232 12.8195 19.565 12.7453C19.429 12.7786 19.3165 12.828 19.2245 12.8942C19.089 12.992 18.9996 13.1324 18.9774 13.2751ZM22.6623 13.1498C22.6632 13.1609 22.6645 13.172 22.665 13.1826C22.6694 13.2378 22.6712 13.2929 22.6708 13.3484L22.7081 13.2724C22.6988 13.2315 22.6832 13.1906 22.6623 13.1498ZM22.5956 13.3409C22.6019 13.3418 22.6076 13.3426 22.6134 13.3435C22.6134 13.3249 22.6134 13.3062 22.613 13.2875L22.5956 13.3409ZM22.4943 12.9355C22.5468 13.0622 22.5659 13.2031 22.5379 13.3329L22.6032 13.1333C22.5992 13.0991 22.5934 13.0635 22.5836 13.0293C22.5739 13.0173 22.5636 13.0058 22.553 12.9942C22.5343 12.9742 22.5143 12.9546 22.4943 12.9355ZM20.5565 13.2271C20.5534 13.2431 20.5512 13.2591 20.549 13.2751C20.5481 13.2809 20.5476 13.2871 20.5472 13.2929C20.5534 13.2911 20.5592 13.2898 20.5654 13.2884C20.5663 13.2884 20.5672 13.288 20.5681 13.288C20.5645 13.2675 20.561 13.2475 20.5565 13.2271ZM17.9165 13.1311C17.8814 13.1644 17.8436 13.2133 17.861 13.2569C17.8659 13.2689 17.8748 13.2791 17.8859 13.2875C17.8912 13.2346 17.9014 13.1822 17.9165 13.1311ZM20.9556 13.1844C20.9045 13.1942 20.8539 13.208 20.805 13.2262C20.7823 13.2346 20.7596 13.2449 20.7379 13.256C20.8099 13.2458 20.8823 13.24 20.9552 13.2382C20.9543 13.2204 20.9543 13.2026 20.9556 13.1844ZM21.0125 13.2382C21.0801 13.2386 21.1472 13.2426 21.2143 13.2498C21.2134 13.2213 21.2152 13.1924 21.2183 13.164C21.1499 13.1631 21.0819 13.1662 21.0143 13.1751C21.0121 13.196 21.0112 13.2169 21.0125 13.2382ZM20.5863 13.1178C20.5988 13.1564 20.609 13.1955 20.617 13.2355L20.6321 13.2142C20.6908 13.1333 20.7001 13.0333 20.6756 12.9386C20.6388 12.9942 20.6081 13.0546 20.5863 13.1178ZM22.6836 13.0715C22.7094 13.1124 22.7299 13.1542 22.745 13.196L22.8534 12.9733C22.8921 12.8942 22.9356 12.8044 22.9361 12.7133C22.9374 12.4364 22.581 12.3035 22.4276 12.2591C22.3325 12.2315 22.2245 12.2053 22.1152 12.1978C22.153 12.2733 22.1739 12.3524 22.1752 12.4311C22.1761 12.4742 22.1712 12.5173 22.1614 12.5604C22.1965 12.5813 22.2299 12.6035 22.261 12.628C22.3014 12.6306 22.3414 12.6333 22.3814 12.636C22.5005 12.644 22.665 12.6698 22.7152 12.8004C22.7436 12.8746 22.7228 12.952 22.6965 13.0311L22.6836 13.0715ZM20.0468 12.7284C20.0294 12.8089 20.0272 12.8955 20.025 12.9849C20.0232 13.0542 20.0214 13.1249 20.0121 13.1933C20.0805 13.1186 20.1548 13.0533 20.2325 12.9969C20.2241 12.9058 20.1903 12.8226 20.1174 12.7671C20.0952 12.7511 20.0716 12.7382 20.0468 12.7284ZM20.7174 12.8813C20.7512 12.9773 20.7561 13.0813 20.7192 13.1742C20.8094 13.1369 20.905 13.0938 20.9908 13.0364C21.0201 12.9626 21.0659 12.8946 21.1214 12.8364C21.0761 12.7969 21.0228 12.7635 20.9668 12.736C20.9196 12.7471 20.8712 12.7595 20.8214 12.7746C20.7836 12.8066 20.749 12.8426 20.7174 12.8813ZM20.965 13.12C20.9614 13.1222 20.9579 13.124 20.9543 13.1262C20.9574 13.1258 20.961 13.1249 20.9641 13.1244C20.9645 13.1231 20.965 13.1218 20.965 13.12ZM21.3161 13.1102C21.3601 13.1129 21.4041 13.1169 21.4476 13.1218C21.5948 13.0658 21.7579 12.9955 21.8899 12.8826C21.9561 12.8262 22.0099 12.7604 22.0485 12.6911C21.8596 12.6604 21.6316 12.6418 21.425 12.7111C21.4085 12.7484 21.393 12.7871 21.3774 12.8258C21.3516 12.8902 21.3263 12.956 21.3072 13.0218C21.3125 13.0444 21.3156 13.068 21.3165 13.0924C21.3161 13.0982 21.3161 13.1044 21.3161 13.1102ZM21.0374 13.0742C21.0325 13.088 21.0285 13.1018 21.025 13.116C21.0921 13.108 21.1596 13.1058 21.2272 13.1066C21.2325 13.0782 21.2396 13.0493 21.2476 13.0209C21.2374 12.9858 21.2214 12.9529 21.2005 12.9222C21.1539 12.9822 21.0983 13.032 21.0374 13.0742ZM19.3739 12.596C19.2103 12.6791 19.0779 12.816 19.0192 12.9858C19.0116 13.008 19.005 13.0306 18.9996 13.0542C19.0468 12.976 19.1116 12.9049 19.1912 12.8475C19.3312 12.7466 19.5139 12.6831 19.749 12.6538C19.761 12.6524 19.773 12.6511 19.7854 12.6498C19.8672 12.6209 19.9512 12.5986 20.0361 12.5826C20.0374 12.5804 20.0383 12.5778 20.0396 12.5755C20.0401 12.5742 20.041 12.5733 20.0414 12.572C20.009 12.5573 19.9752 12.5449 19.941 12.5351C19.921 12.5293 19.9005 12.5244 19.8805 12.5204C19.8521 12.52 19.8236 12.52 19.7952 12.52C19.6521 12.5795 19.4948 12.5951 19.3739 12.596ZM20.5268 12.9729C20.537 12.9938 20.5468 13.0146 20.5561 13.0364C20.5819 12.9778 20.6143 12.9218 20.6525 12.8706C20.6481 12.86 20.6432 12.8498 20.6379 12.8395C20.6201 12.8467 20.6023 12.8542 20.5845 12.8622C20.5632 12.8973 20.5441 12.9342 20.5268 12.9729ZM22.6356 13.0031C22.6379 13.0062 22.6405 13.0093 22.6428 13.0124C22.6654 12.9435 22.6836 12.8769 22.6623 12.8209C22.6241 12.7209 22.4819 12.7 22.3783 12.6933C22.3632 12.6924 22.3476 12.6911 22.3321 12.6902C22.3379 12.6964 22.3441 12.7022 22.3499 12.7084C22.4432 12.7462 22.529 12.8022 22.5845 12.8893C22.6076 12.9249 22.6241 12.9635 22.6356 13.0031ZM20.0614 12.6729C20.093 12.6844 20.1236 12.7004 20.1516 12.7218C20.2281 12.7795 20.2685 12.8618 20.2841 12.9524C20.3143 12.9151 20.345 12.8778 20.3765 12.8413C20.3099 12.7551 20.2299 12.6813 20.1396 12.6249C20.1183 12.6275 20.097 12.6306 20.0761 12.6342C20.0703 12.6466 20.0659 12.6595 20.0614 12.6729ZM18.8241 12.568C18.721 12.568 18.6183 12.5769 18.5201 12.6053C18.3334 12.6586 18.1708 12.7826 18.0659 12.9444C18.3343 12.7604 18.6263 12.6431 18.9125 12.5702C18.8832 12.5684 18.8534 12.568 18.8241 12.568ZM21.1628 12.876C21.1441 12.8955 21.1268 12.9164 21.1108 12.9378C21.1294 12.9186 21.1468 12.8982 21.1628 12.876ZM21.2343 12.872C21.2494 12.892 21.2632 12.9129 21.2748 12.9346C21.2899 12.8911 21.3068 12.8475 21.3241 12.8044C21.3325 12.7831 21.3414 12.7618 21.3499 12.7409C21.3241 12.7529 21.2988 12.7671 21.2748 12.7826C21.2641 12.8142 21.2503 12.844 21.2343 12.872ZM20.4899 12.9062C20.4908 12.9075 20.4916 12.9089 20.4921 12.9102C20.4934 12.908 20.4943 12.9058 20.4956 12.9031C20.4939 12.9044 20.4921 12.9053 20.4899 12.9062ZM20.4494 12.844C20.4525 12.8484 20.4556 12.8533 20.4588 12.8578C20.4872 12.8431 20.5156 12.8293 20.5441 12.8164C20.5565 12.796 20.5699 12.7764 20.5841 12.7569C20.5761 12.7471 20.5681 12.7373 20.5592 12.7284C20.5214 12.7649 20.485 12.8035 20.4494 12.844ZM20.6908 12.8186C20.6912 12.8195 20.6916 12.8204 20.6921 12.8213C20.6934 12.82 20.6948 12.8182 20.6961 12.8169C20.6943 12.8173 20.6925 12.8178 20.6908 12.8186ZM20.2281 12.6155C20.2974 12.6666 20.3601 12.728 20.4148 12.7969C20.4481 12.7595 20.4823 12.7235 20.5179 12.6893C20.5116 12.684 20.505 12.6791 20.4983 12.6742C20.465 12.6498 20.4294 12.6289 20.3925 12.6115C20.3379 12.6102 20.2828 12.6115 20.2281 12.6155ZM21.0534 12.7178C21.0925 12.7409 21.1294 12.7671 21.1628 12.7964C21.1828 12.7786 21.2036 12.7622 21.225 12.7471C21.2303 12.728 21.2348 12.7084 21.2379 12.6889C21.1983 12.6938 21.1588 12.6995 21.1196 12.7058C21.0979 12.7093 21.0761 12.7133 21.0534 12.7178ZM20.6561 12.7586C20.6579 12.7618 20.6601 12.7649 20.6619 12.7675C20.7059 12.7511 20.7494 12.736 20.7925 12.7231C20.8085 12.7102 20.8245 12.6978 20.8414 12.6862C20.8396 12.6858 20.8374 12.6849 20.8356 12.6844C20.8085 12.676 20.781 12.6684 20.7534 12.6613C20.7179 12.6906 20.6854 12.7231 20.6561 12.7586ZM20.6019 12.6898C20.6081 12.6969 20.6148 12.704 20.6205 12.7111C20.6405 12.688 20.6614 12.6658 20.6845 12.6449C20.6774 12.6435 20.6703 12.6418 20.6632 12.6404C20.6419 12.6564 20.6219 12.6729 20.6019 12.6898ZM21.297 12.6822C21.2961 12.6898 21.2952 12.6973 21.2939 12.7049C21.3081 12.6973 21.3223 12.6902 21.337 12.684C21.3423 12.6818 21.3476 12.6795 21.353 12.6773C21.3343 12.6782 21.3156 12.68 21.297 12.6822ZM20.8143 12.6178C20.8272 12.6213 20.8401 12.6253 20.8534 12.6293C20.8934 12.6418 20.9339 12.6573 20.9734 12.6755C21.021 12.6649 21.0668 12.6564 21.1103 12.6489C21.1543 12.6418 21.1988 12.6355 21.2428 12.6302C21.2432 12.5986 21.2405 12.5671 21.2339 12.5373C21.2316 12.5275 21.229 12.5169 21.2254 12.5062C21.0614 12.5098 20.9263 12.5466 20.8143 12.6178ZM19.9832 12.6524C19.9908 12.6538 19.9988 12.6551 20.0063 12.6569C20.0072 12.6533 20.0085 12.6502 20.0099 12.6466C20.001 12.6484 19.9921 12.6502 19.9832 12.6524ZM20.5214 12.62C20.525 12.6226 20.529 12.6253 20.5325 12.628C20.5423 12.6351 20.5516 12.6426 20.5605 12.6502C20.569 12.6426 20.5779 12.6351 20.5868 12.628C20.565 12.6249 20.5432 12.6222 20.5214 12.62ZM21.2854 12.5066C21.2872 12.5129 21.2885 12.5186 21.2899 12.5249C21.297 12.5573 21.3005 12.5906 21.3005 12.624C21.3352 12.6204 21.3703 12.6178 21.4054 12.6151C21.421 12.5826 21.437 12.5511 21.4539 12.5204C21.3948 12.5124 21.3388 12.508 21.2854 12.5066ZM22.1441 12.6204C22.1463 12.6204 22.1485 12.6209 22.1512 12.6209C22.1494 12.6195 22.1472 12.6187 22.1454 12.6173C22.145 12.6182 22.1445 12.6195 22.1441 12.6204ZM22.0619 12.616C22.069 12.6164 22.0761 12.6169 22.0832 12.6173C22.0868 12.6075 22.0903 12.5982 22.0934 12.5884C21.949 12.5124 21.7721 12.4666 21.5645 12.4515C21.5588 12.46 21.553 12.4684 21.5472 12.4769C21.6076 12.4875 21.6645 12.5004 21.7174 12.5129C21.8254 12.5386 21.9436 12.5711 22.0619 12.616ZM21.5148 12.5293C21.4996 12.5555 21.485 12.5826 21.4712 12.6111C21.5983 12.6044 21.7259 12.6044 21.853 12.6075C21.8019 12.5929 21.7521 12.58 21.7041 12.5684C21.6379 12.5524 21.5748 12.5395 21.5148 12.5293ZM20.729 12.596C20.733 12.5969 20.737 12.5978 20.741 12.5986C20.7414 12.5982 20.7419 12.5978 20.7428 12.5973C20.7703 12.5769 20.7992 12.5591 20.8285 12.5431C20.8072 12.5524 20.7863 12.5631 20.7659 12.5742C20.753 12.5813 20.741 12.5884 20.729 12.596ZM20.4059 12.5542C20.4872 12.5569 20.5685 12.5653 20.649 12.5795C20.6774 12.5595 20.7068 12.5409 20.7374 12.524C20.8743 12.4484 21.0268 12.4146 21.1636 12.3995C21.1476 12.3826 21.1281 12.3671 21.105 12.3542C21.0383 12.3173 20.9592 12.3111 20.877 12.308C20.6414 12.2982 20.3485 12.3249 20.1774 12.4871C20.2561 12.5009 20.3334 12.5218 20.4059 12.5542ZM20.1232 12.5489C20.133 12.5542 20.1423 12.5595 20.1521 12.5653C20.1796 12.5622 20.2072 12.5595 20.2348 12.5578C20.2005 12.5498 20.1663 12.5431 20.1312 12.5382C20.1285 12.5418 20.1259 12.5453 20.1232 12.5489ZM21.6068 12.3969C21.801 12.4151 21.9685 12.46 22.109 12.5311C22.1156 12.4978 22.1188 12.4649 22.1183 12.432C22.1165 12.352 22.0925 12.2715 22.0494 12.1951C21.9579 12.1955 21.8668 12.2115 21.7836 12.2538C21.7143 12.2889 21.6565 12.3378 21.6068 12.3969ZM19.9036 12.4635C19.9699 12.4649 20.0383 12.4684 20.1072 12.4769C20.2872 12.2733 20.617 12.2395 20.8792 12.2507C20.965 12.2542 21.0552 12.2613 21.1325 12.304C21.1721 12.3258 21.2059 12.356 21.2321 12.3933C21.2823 12.3898 21.329 12.3884 21.3712 12.388C21.4281 12.3871 21.4836 12.3884 21.537 12.3915C21.597 12.3133 21.6681 12.248 21.7574 12.2026C21.8388 12.1618 21.9254 12.1431 22.013 12.1386C21.9632 12.0689 21.897 12.0049 21.8174 11.9507C21.5832 11.792 21.2632 11.7244 20.8659 11.7502C20.5392 11.7715 20.3174 11.8671 20.2063 12.0346C20.1792 12.0751 20.1592 12.1195 20.1379 12.1662C20.1165 12.2133 20.0943 12.2618 20.0645 12.3062C20.021 12.3724 19.9654 12.424 19.9036 12.4635ZM21.2765 12.4484C21.3476 12.4498 21.4179 12.4564 21.4854 12.4662C21.4894 12.46 21.4934 12.4533 21.4974 12.4471C21.4565 12.4453 21.4148 12.4449 21.3716 12.4453C21.3428 12.4458 21.3108 12.4466 21.2765 12.4484Z" fill="#A0BCC5"/>
</g>
</g>
<defs>
<clipPath id="clip0_1141_49272">
<rect width="48" height="48" rx="24" fill="white"/>
</clipPath>
<clipPath id="clip1_1141_49272">
<rect width="48" height="48" fill="white"/>
</clipPath>
</defs>
</svg>
