<svg width="48" height="48" viewBox="0 0 48 48" fill="none" xmlns="http://www.w3.org/2000/svg">
<g clip-path="url(#clip0_1141_49280)">
<rect width="48" height="48" rx="24" fill="white"/>
<g clip-path="url(#clip1_1141_49280)">
<path d="M25.3746 4.8996C25.1924 4.85738 25.0431 4.81516 25.0439 4.80538C25.0453 4.79605 25.2 4.78538 25.3871 4.78183C25.5742 4.77827 25.7235 4.82049 25.7177 4.8756C25.7115 4.9316 25.5568 4.94183 25.3746 4.8996Z" fill="#E1E9EB"/>
<path d="M24.8812 5.34357C24.8652 5.15735 24.8594 5.00224 24.8687 5.00002C24.8776 4.99824 24.9354 5.14224 24.9967 5.31913C25.0581 5.49557 25.0638 5.65068 25.0092 5.66268C24.9545 5.67379 24.8972 5.52979 24.8812 5.34357Z" fill="#E1E9EB"/>
<path d="M24.3067 5.01203C24.4791 4.93914 24.6245 4.88537 24.6294 4.89337C24.6338 4.90137 24.5147 5.00092 24.3658 5.11426C24.2169 5.22714 24.0711 5.28092 24.0431 5.23292C24.0151 5.18403 24.1343 5.08492 24.3067 5.01203Z" fill="#E1E9EB"/>
<path d="M24.4445 4.36312C24.5672 4.50446 24.6632 4.62624 24.657 4.63335C24.6503 4.64001 24.5192 4.55779 24.3658 4.45068C24.2125 4.34357 24.1165 4.22179 24.1534 4.18046C24.1907 4.13912 24.3223 4.22179 24.4445 4.36312Z" fill="#E1E9EB"/>
<path d="M25.1034 4.29292C25.007 4.45336 24.9208 4.58225 24.9123 4.5787C24.9039 4.5747 24.9416 4.42447 24.9963 4.24536C25.0505 4.06625 25.1363 3.93736 25.1874 3.95958C25.2381 3.98225 25.1999 4.13292 25.1034 4.29292Z" fill="#E1E9EB"/>
<g opacity="0.45">
<path opacity="0.45" d="M41.5768 2.33868H27.7217V25.2725H41.5768V2.33868Z" fill="#A0BCC5"/>
<path opacity="0.45" d="M41.1159 2.33868H27.2607V25.2725H41.1159V2.33868Z" fill="#A0BCC5"/>
<path opacity="0.45" d="M40.5257 2.80402H27.8506V24.8076H40.5257V2.80402Z" fill="#A0BCC5"/>
<path opacity="0.45" d="M38.0579 5.66315H30.2637V21.9485H38.0579V5.66315Z" fill="#759DA5"/>
<path opacity="0.45" d="M30.2639 16.1854C30.2456 14.664 31.6136 13.1791 33.1203 12.9667C33.8385 12.8654 34.6021 13.008 35.2732 12.7329C36.4714 12.2418 36.8523 10.6498 38.0581 10.1778L38.1132 21.9485H30.2643V16.1854H30.2639Z" fill="#6D8487"/>
</g>
<path opacity="0.45" d="M19.6427 19.0489L18.4134 19.6209L17.0085 15.1125L16.0476 15.9987L14.5943 12.2987C12.5707 10.8542 9.86451 11.1565 8.52585 12.9885C7.48274 14.4156 7.60985 16.3631 8.57518 17.7942C10.0707 20.0116 13.649 21.2458 16.2134 21.5005C17.6818 21.6462 20.1565 22.0809 20.8027 22.1969L19.6427 19.0489Z" fill="#A0BCC5"/>
<g opacity="0.45">
<path d="M13.0057 22.4116C13.0661 22.3809 13.1154 22.3293 13.1439 22.2605L15.1461 17.4307L19.3123 15.3049C19.463 15.228 19.519 15.0351 19.4368 14.8742L18.667 13.3658L22.6559 11.3307C22.8066 11.2538 22.8626 11.0609 22.7808 10.9L21.7488 8.87734L24.6923 7.37556C24.843 7.29868 24.899 7.10579 24.8172 6.9449C24.735 6.78401 24.5461 6.71601 24.3954 6.79334L21.1786 8.43468C21.0279 8.51156 20.9719 8.70445 21.0541 8.86534L22.0861 10.888L18.0972 12.9231C17.9466 13 17.8906 13.1929 17.9723 13.3538L18.7421 14.8622L14.7532 16.8973C14.6914 16.9289 14.6426 16.9822 14.615 17.048L12.5701 21.9796C12.5039 22.14 12.5781 22.3333 12.7363 22.4107C12.8274 22.4556 12.9257 22.4525 13.0057 22.4116Z" fill="#36464E"/>
<path d="M12.9326 22.6649L15.9078 21.1467C16.0584 21.0698 16.1144 20.8769 16.0326 20.716C15.9504 20.5551 15.7615 20.4871 15.6109 20.564L12.9091 21.9427L11.4398 19.0627C11.3575 18.9018 11.1686 18.8338 11.018 18.9111C10.8673 18.988 10.8113 19.1809 10.8931 19.3418L12.5109 22.5129C12.5926 22.6743 12.7815 22.7418 12.9326 22.6649Z" fill="#36464E"/>
</g>
<path d="M6.26101 18.3884C6.10323 18.3627 5.97568 18.3293 5.97657 18.3138C5.9779 18.2982 6.10901 18.284 6.26901 18.2818C6.42857 18.2796 6.55657 18.3129 6.55346 18.3564C6.5499 18.4 6.41879 18.4142 6.26101 18.3884Z" fill="#E1E9EB"/>
<path d="M5.91095 18.9017C5.83273 18.7626 5.7794 18.6417 5.79184 18.6329C5.80473 18.6244 5.89762 18.7182 5.99895 18.8413C6.10029 18.9644 6.15406 19.0853 6.11806 19.1102C6.08251 19.1346 5.98917 19.0409 5.91095 18.9017Z" fill="#E1E9EB"/>
<path d="M5.29146 18.9489C5.35146 18.8009 5.41279 18.684 5.42746 18.688C5.44212 18.6924 5.42701 18.824 5.39368 18.98C5.36079 19.136 5.29946 19.2533 5.25768 19.2404C5.21634 19.2275 5.23146 19.0964 5.29146 18.9489Z" fill="#E1E9EB"/>
<path d="M4.86902 18.4942C5.02235 18.4488 5.15169 18.4235 5.15746 18.4377C5.1628 18.452 5.0508 18.5222 4.90813 18.5937C4.76546 18.6653 4.63569 18.6906 4.61969 18.6502C4.60369 18.6093 4.71569 18.5395 4.86902 18.4942Z" fill="#E1E9EB"/>
<path d="M4.95998 17.88C5.09064 17.9715 5.19153 18.0569 5.18398 18.0707C5.17642 18.084 5.05153 18.04 4.90664 17.9729C4.76176 17.9058 4.66087 17.8204 4.68264 17.7827C4.70487 17.7444 4.82931 17.7884 4.95998 17.88Z" fill="#E1E9EB"/>
<path d="M5.49681 17.568C5.50704 17.7275 5.50304 17.8595 5.48793 17.8618C5.47281 17.864 5.42926 17.7391 5.39148 17.584C5.35326 17.4289 5.35726 17.2969 5.40037 17.2902C5.44348 17.284 5.48659 17.4089 5.49681 17.568Z" fill="#E1E9EB"/>
<path d="M6.07611 17.7929C5.95789 17.9004 5.85256 17.9795 5.841 17.9693C5.82989 17.9587 5.90011 17.8471 5.99744 17.7204C6.09478 17.5942 6.20056 17.5147 6.23256 17.544C6.26456 17.5738 6.19389 17.6853 6.07611 17.7929Z" fill="#E1E9EB"/>
<path d="M45.9844 18.0116C45.7457 17.9725 45.5519 17.9218 45.5537 17.8983C45.5555 17.8747 45.7546 17.8529 45.9964 17.8498C46.2382 17.8467 46.4319 17.8974 46.4271 17.9631C46.4217 18.0294 46.2231 18.0507 45.9844 18.0116Z" fill="#E0E0E0"/>
<path d="M45.4547 18.7893C45.3365 18.5782 45.2552 18.3956 45.2743 18.3822C45.2938 18.3693 45.4347 18.5111 45.588 18.6982C45.7414 18.8849 45.8227 19.068 45.768 19.1053C45.7138 19.1422 45.5729 19 45.4547 18.7893Z" fill="#E0E0E0"/>
<path d="M44.5167 18.8604C44.6078 18.6364 44.7003 18.4587 44.7225 18.4653C44.7447 18.4724 44.7216 18.6711 44.6714 18.908C44.6212 19.1444 44.5287 19.3222 44.4656 19.3027C44.402 19.2831 44.4252 19.084 44.5167 18.8604Z" fill="#E0E0E0"/>
<path d="M43.8761 18.1715C44.1081 18.1031 44.3046 18.0644 44.313 18.0862C44.3215 18.108 44.1517 18.2138 43.9352 18.3222C43.7192 18.4307 43.5228 18.4693 43.4984 18.4076C43.4744 18.3462 43.6441 18.24 43.8761 18.1715Z" fill="#E0E0E0"/>
<path d="M44.0143 17.2413C44.2125 17.38 44.365 17.5098 44.3534 17.5298C44.3419 17.5498 44.153 17.4831 43.9334 17.3818C43.7139 17.2804 43.5614 17.1507 43.5943 17.0933C43.6276 17.036 43.8161 17.1027 44.0143 17.2413Z" fill="#E0E0E0"/>
<path d="M44.8275 16.7689C44.8431 17.0102 44.8368 17.2102 44.8137 17.2142C44.7906 17.2178 44.7248 17.0285 44.6675 16.7938C44.6097 16.5591 44.616 16.3591 44.6813 16.3489C44.7466 16.3387 44.812 16.5276 44.8275 16.7689Z" fill="#E0E0E0"/>
<path d="M45.704 17.1094C45.5253 17.272 45.3649 17.3925 45.3475 17.3765C45.3302 17.3605 45.4369 17.1911 45.5849 16.9996C45.7324 16.808 45.8924 16.6876 45.9409 16.7325C45.9893 16.7774 45.8827 16.9467 45.704 17.1094Z" fill="#E0E0E0"/>
<path d="M32.5452 38.5267C32.3874 38.5009 32.2599 38.4676 32.2607 38.452C32.2621 38.4365 32.3932 38.4222 32.5532 38.42C32.7127 38.4178 32.8407 38.4511 32.8376 38.4947C32.8341 38.5382 32.7025 38.5525 32.5452 38.5267Z" fill="#E1E9EB"/>
<path d="M32.1951 39.0396C32.1169 38.9004 32.0636 38.7796 32.076 38.7707C32.0889 38.7622 32.1818 38.856 32.2831 38.9791C32.3845 39.1022 32.4382 39.2231 32.4022 39.248C32.3662 39.2729 32.2734 39.1787 32.1951 39.0396Z" fill="#E1E9EB"/>
<path d="M31.5758 39.0867C31.6363 38.9387 31.6972 38.8218 31.7118 38.8258C31.7265 38.8302 31.7114 38.9618 31.6781 39.1178C31.6452 39.2738 31.5838 39.3911 31.5421 39.3782C31.5003 39.3658 31.5158 39.2347 31.5758 39.0867Z" fill="#E1E9EB"/>
<path d="M31.1531 38.632C31.3065 38.5867 31.4358 38.5613 31.4416 38.5756C31.4469 38.5898 31.3349 38.66 31.1922 38.7316C31.0496 38.8031 30.9198 38.8284 30.9038 38.788C30.8882 38.7471 31.0002 38.6773 31.1531 38.632Z" fill="#E1E9EB"/>
<path d="M31.2451 38.0182C31.3758 38.1098 31.4767 38.1951 31.4691 38.2089C31.4616 38.2222 31.3367 38.1782 31.1918 38.1111C31.0469 38.044 30.946 37.9587 30.9678 37.9209C30.9896 37.8827 31.114 37.9267 31.2451 38.0182Z" fill="#E1E9EB"/>
<path d="M31.781 37.7062C31.7912 37.8658 31.7872 37.9978 31.7721 38C31.757 38.0022 31.7134 37.8773 31.6757 37.7222C31.6374 37.5671 31.6414 37.4351 31.6846 37.4284C31.7277 37.4222 31.7708 37.5467 31.781 37.7062Z" fill="#E1E9EB"/>
<path d="M32.3593 37.9307C32.2411 38.0383 32.1358 38.1174 32.1242 38.1071C32.1131 38.0965 32.1833 37.9849 32.2806 37.8583C32.378 37.732 32.4838 37.6525 32.5158 37.6818C32.5478 37.7116 32.4775 37.8236 32.3593 37.9307Z" fill="#E1E9EB"/>
<path d="M41.4299 27.9827C41.3139 27.956 41.2193 27.9289 41.2197 27.9231C41.2206 27.9174 41.3188 27.9107 41.4375 27.908C41.5562 27.9058 41.6513 27.9325 41.6477 27.9676C41.6442 28.0027 41.5459 28.0094 41.4299 27.9827Z" fill="#E0E0E0"/>
<path d="M41.1172 28.2645C41.107 28.1458 41.1034 28.0476 41.1092 28.0463C41.115 28.0454 41.1519 28.1369 41.1905 28.2489C41.2292 28.3614 41.2332 28.4596 41.1985 28.4672C41.1634 28.4743 41.127 28.3827 41.1172 28.2645Z" fill="#E0E0E0"/>
<path d="M40.7522 28.0538C40.8615 28.0076 40.9544 27.9734 40.9571 27.9782C40.9597 27.9836 40.8842 28.0467 40.7895 28.1187C40.6948 28.1902 40.6024 28.2245 40.5846 28.1942C40.5668 28.1631 40.6428 28.1 40.7522 28.0538Z" fill="#E0E0E0"/>
<path d="M40.8393 27.6413C40.9171 27.7311 40.9785 27.8085 40.9745 27.8133C40.9705 27.8178 40.8869 27.7653 40.7896 27.6973C40.6922 27.6293 40.6309 27.552 40.6545 27.5253C40.678 27.4991 40.7611 27.552 40.8393 27.6413Z" fill="#E0E0E0"/>
<path d="M41.2588 27.5969C41.1975 27.6987 41.1428 27.7809 41.1375 27.7782C41.1321 27.7756 41.1561 27.68 41.1908 27.5662C41.2255 27.4525 41.2797 27.3707 41.3121 27.3849C41.3446 27.3996 41.3201 27.4951 41.2588 27.5969Z" fill="#E0E0E0"/>
<path d="M39.6854 34.7231C39.4978 34.6995 39.3458 34.6626 39.3467 34.6409C39.348 34.6191 39.5031 34.6 39.6925 34.5982C39.8818 34.5964 40.0334 34.6329 40.0307 34.6804C40.028 34.7275 39.8729 34.7467 39.6854 34.7231Z" fill="#E1E9EB"/>
<path d="M39.3557 35.3795C39.2272 35.2404 39.1343 35.1146 39.149 35.0991C39.1637 35.0835 39.2948 35.1684 39.441 35.2888C39.5872 35.4088 39.6801 35.5346 39.6472 35.5693C39.6152 35.6035 39.4841 35.5186 39.3557 35.3795Z" fill="#E1E9EB"/>
<path d="M38.6809 35.6716C38.6721 35.4827 38.6823 35.3267 38.7036 35.324C38.7249 35.3218 38.7707 35.4711 38.8054 35.6573C38.8401 35.8431 38.8303 35.9991 38.7827 36.0049C38.7356 36.0098 38.6898 35.8604 38.6809 35.6716Z" fill="#E1E9EB"/>
<path d="M37.9764 35.4609C38.091 35.3102 38.199 35.1973 38.2168 35.2089C38.2346 35.2209 38.1737 35.3644 38.0808 35.5293C37.9879 35.6942 37.8799 35.8071 37.8404 35.7813C37.8004 35.7555 37.8617 35.6115 37.9764 35.4609Z" fill="#E1E9EB"/>
<path d="M37.5719 34.8475C37.7563 34.8058 37.9119 34.7884 37.9181 34.8089C37.9243 34.8293 37.7848 34.9004 37.6079 34.9675C37.431 35.0342 37.2755 35.052 37.2617 35.0062C37.2479 34.9604 37.3875 34.8893 37.5719 34.8475Z" fill="#E1E9EB"/>
<path d="M37.6558 34.1169C37.8242 34.2035 37.9545 34.2898 37.946 34.3098C37.9376 34.3293 37.7851 34.2942 37.6065 34.2315C37.4278 34.1689 37.2976 34.0826 37.3162 34.0386C37.3353 33.9951 37.4878 34.0306 37.6558 34.1169Z" fill="#E1E9EB"/>
<path d="M38.1903 33.6115C38.2636 33.7857 38.3081 33.936 38.289 33.9453C38.2699 33.9551 38.1756 33.8302 38.0788 33.6675C37.9819 33.5048 37.9374 33.3551 37.9801 33.3337C38.0223 33.3124 38.1165 33.4373 38.1903 33.6115Z" fill="#E1E9EB"/>
<path d="M38.9242 33.5671C38.8687 33.748 38.806 33.8911 38.7851 33.8866C38.7642 33.8818 38.7722 33.7258 38.8024 33.5386C38.8327 33.352 38.8949 33.2084 38.9415 33.2195C38.9878 33.2306 38.9798 33.3866 38.9242 33.5671Z" fill="#E1E9EB"/>
<path d="M39.5148 34.0053C39.3561 34.108 39.2161 34.1778 39.2032 34.1609C39.1903 34.1435 39.2965 34.0289 39.4401 33.9053C39.5832 33.7818 39.7232 33.712 39.7517 33.7498C39.7801 33.788 39.6739 33.9027 39.5148 34.0053Z" fill="#E1E9EB"/>
<path d="M25.1206 17.6645C25.0998 17.7129 25.0438 17.7351 24.9953 17.7147C24.9469 17.6938 24.9246 17.6378 24.9451 17.5894C24.966 17.5409 25.142 17.3716 25.142 17.3716C25.142 17.3716 25.1415 17.616 25.1206 17.6645Z" fill="white"/>
<path d="M34.9048 16.9511L32.2412 17.4787L34.1883 15.6969L34.9048 16.9511Z" fill="#01435C"/>
<path d="M32.9076 19.8898L31.9561 18.52L33.2587 19.1431L32.9076 19.8898Z" fill="#01435C"/>
<path d="M32.3467 15.2676L31.3916 16.6342L31.6312 15.044L32.3467 15.2676Z" fill="#01435C"/>
<path opacity="0.45" d="M17.9562 7.00979C16.2086 7.34667 14.9566 8.84712 14.71 10.6587L16.2215 14.0889L17.474 13.2258L18.5331 17.9533L20.4611 18.0462L21.3966 20.6169C21.6402 19.7107 21.8851 18.8049 22.1255 17.8982C22.7864 15.4062 23.5264 12.864 22.7091 10.3116C22.022 8.16934 20.3295 6.55201 17.9562 7.00979Z" fill="#A0BCC5"/>
<path d="M30.0508 14.4333C29.2161 12.156 26.9041 11.6067 26.9041 11.6067C23.0441 10.7245 21.3095 13.8062 20.4935 16.4773C20.1441 17.6213 20.3584 20.648 19.1006 21.9916C18.053 23.1111 18.6784 23.8702 18.6784 23.8702L19.353 24.2587C19.8112 26.8938 21.4015 29.2133 23.7312 30.5271C24.409 30.9093 25.0015 31.112 25.3232 30.9231L30.501 29.3831C30.5166 29.2587 35.493 28.8245 33.5486 25.5453C32.493 23.7649 31.6792 21.8511 31.2241 19.832C30.561 16.8902 30.361 15.28 30.0508 14.4333Z" fill="#22120E"/>
<path d="M27.2521 12.7907L27.0437 12.52L24.2406 13.176C23.8557 13.1382 23.5055 13.4014 23.4348 13.7818L22.1295 22.3836C22.0361 22.9662 22.0748 23.4894 22.3552 24.0085L22.6504 24.5551C23.3232 25.8014 25.0757 25.9782 25.9344 24.852C25.9944 24.7734 26.0384 24.7031 26.0619 24.644C26.0877 24.5694 26.1166 24.5222 26.1308 24.4578C26.3161 23.7782 26.4135 23.1791 26.4135 23.1791C26.5779 22.4267 26.6415 22.1178 26.6406 22.1249C26.6406 22.1249 28.2855 22.1889 29.0432 20.1814C29.4201 19.1831 29.5984 17.7574 29.753 16.3507C29.9672 14.4045 28.8068 13.0289 27.2521 12.7907Z" fill="#FBE0D3"/>
<path d="M29.2213 17.6471C29.1813 17.6751 29.0102 17.4845 28.7235 17.4258C28.4382 17.3636 28.1977 17.4676 28.1737 17.4258C28.1617 17.4071 28.2084 17.3516 28.3133 17.3036C28.4168 17.256 28.5839 17.2231 28.7622 17.2605C28.9404 17.2982 29.0768 17.3947 29.1493 17.48C29.2239 17.5658 29.2408 17.6347 29.2213 17.6471Z" fill="#22120E"/>
<path d="M26.3879 17.1004C26.3448 17.124 26.1946 16.9164 25.9155 16.8293C25.6381 16.7378 25.3879 16.8169 25.3684 16.7729C25.3586 16.7529 25.4101 16.7022 25.5199 16.6658C25.6279 16.6289 25.7972 16.6133 25.971 16.6689C26.1444 16.7249 26.2701 16.8351 26.3337 16.9271C26.3986 17.0196 26.4084 17.0902 26.3879 17.1004Z" fill="#22120E"/>
<path d="M27.8689 18.5191C27.7573 17.8218 27.6457 17.1249 27.5346 16.4276L27.488 16.4516C27.44 16.4231 27.3751 16.448 27.3404 16.4916C27.3057 16.5351 27.2942 16.592 27.284 16.6467C27.1982 17.0942 27.112 17.5418 27.0262 17.9898C26.9866 18.1951 26.9551 18.4329 27.0911 18.5916C27.2155 18.7369 27.4297 18.7556 27.6213 18.7631C27.7075 18.7667 27.8111 18.7618 27.856 18.688C27.8857 18.6391 27.8777 18.5764 27.8689 18.5191Z" fill="#EB957A"/>
<path d="M27.1426 18.6951C27.1444 18.6787 27.3288 18.6845 27.6253 18.7071C27.6999 18.7147 27.7724 18.7143 27.7946 18.6671C27.8226 18.6178 27.8084 18.5329 27.7906 18.4405C27.7582 18.2494 27.7248 18.0489 27.6893 17.8391C27.5524 16.9845 27.4693 16.2876 27.5039 16.2823C27.5386 16.2769 27.6773 16.9658 27.8142 17.8205C27.8462 18.0307 27.8768 18.2316 27.9057 18.4236C27.9164 18.5125 27.9444 18.6165 27.8844 18.7183C27.8533 18.7689 27.7915 18.7974 27.7422 18.8005C27.6924 18.8049 27.651 18.7974 27.6146 18.792C27.3208 18.7476 27.1404 18.7116 27.1426 18.6951Z" fill="#22120E"/>
<path d="M26.6409 22.1249C26.6409 22.1249 25.2262 21.9271 24.0146 20.8102C24.0146 20.8102 24.4173 22.3911 26.5342 22.6249L26.6409 22.1249Z" fill="#EACDC1"/>
<path d="M25.4427 15.4951C25.4765 15.4178 25.7654 15.4743 26.1107 15.4551C26.4561 15.4431 26.7387 15.3605 26.7796 15.4347C26.7978 15.4703 26.745 15.5414 26.6281 15.6111C26.5125 15.6805 26.3312 15.7423 26.1241 15.7516C25.917 15.7609 25.7312 15.716 25.6094 15.6574C25.4872 15.5983 25.4276 15.532 25.4427 15.4951Z" fill="#22120E"/>
<path d="M28.3137 15.6813C28.3902 15.6396 28.5733 15.7827 28.8213 15.8809C29.0662 15.9867 29.2977 16.0147 29.3217 16.0978C29.3311 16.1373 29.2742 16.1871 29.1595 16.2107C29.0462 16.2347 28.876 16.2245 28.7062 16.1547C28.5368 16.0845 28.4097 15.9716 28.3471 15.8751C28.2835 15.7778 28.2786 15.7027 28.3137 15.6813Z" fill="#22120E"/>
<path d="M22.9209 17.4595C22.9209 17.4595 23.7116 17.7551 25.9658 14.7115C26.6556 13.78 28.1409 12.8907 28.1409 12.8907L27.0729 12.3804C27.0729 12.3804 24.0307 12.7511 23.976 12.7804C23.9213 12.8098 23.0076 14.1747 23.0076 14.1747L22.9209 17.4595Z" fill="#22120E"/>
<path d="M23.333 17.2845C23.3605 17.1494 23.2699 16.7982 23.1405 16.7498C22.7956 16.6205 22.1468 16.5169 21.9543 17.4209C21.6908 18.6569 22.9863 18.6667 22.9961 18.6316C23.0041 18.6045 23.2379 17.7516 23.333 17.2845Z" fill="#FBE0D3"/>
<path d="M22.7191 18.0831C22.7146 18.0778 22.6942 18.0938 22.6546 18.1027C22.6155 18.1111 22.5524 18.1094 22.4929 18.0716C22.3724 17.996 22.3066 17.7649 22.348 17.5409C22.3689 17.4276 22.4151 17.3258 22.4738 17.2454C22.5306 17.1631 22.6026 17.112 22.6711 17.1147C22.7395 17.1134 22.7778 17.1627 22.7858 17.2009C22.7951 17.2391 22.7818 17.2622 22.788 17.2654C22.7906 17.2694 22.8191 17.2503 22.82 17.1974C22.82 17.1716 22.812 17.1396 22.788 17.1094C22.7635 17.0791 22.7226 17.0574 22.6755 17.0525C22.5786 17.0387 22.4742 17.108 22.4098 17.196C22.34 17.2836 22.2849 17.3978 22.2618 17.5245C22.2164 17.7751 22.2942 18.0356 22.4622 18.1254C22.5444 18.1667 22.6226 18.1556 22.6662 18.1347C22.7106 18.1125 22.7231 18.0862 22.7191 18.0831Z" fill="#EACDC1"/>
<path d="M26.2092 17.2276C26.1981 17.2 26.1666 17.1876 26.1386 17.1787C25.9208 17.108 25.703 17.0369 25.4852 16.9662C25.4466 16.9538 25.407 16.9409 25.3666 16.9427C25.3261 16.9444 25.2839 16.9636 25.2657 17C25.2101 17.1369 25.5035 17.2742 25.6635 17.3502C25.8235 17.4262 26.0279 17.4342 26.1661 17.324C26.1955 17.3 26.223 17.2627 26.2092 17.2276Z" fill="#EB957A"/>
<path d="M29.0898 17.8791C29.0787 17.8516 29.0471 17.8391 29.0191 17.8302C28.8014 17.7596 28.5836 17.6884 28.3658 17.6178C28.3271 17.6053 28.2876 17.5924 28.2471 17.5942C28.2067 17.596 28.1645 17.6151 28.1462 17.6516C28.0969 17.7538 28.384 17.9258 28.544 18.0018C28.704 18.0778 28.9085 18.0858 29.0467 17.9756C29.076 17.9516 29.104 17.9142 29.0898 17.8791Z" fill="#EB957A"/>
<path d="M26.9465 19.2627C26.8238 19.2573 26.7522 19.2222 26.63 19.2342C26.5247 19.2445 26.4025 19.2693 26.3242 19.3405C26.246 19.4116 26.1842 19.4982 26.1229 19.5845C26.0714 19.6569 26.0176 19.7356 26.0176 19.8249C26.0176 19.9351 26.1051 20.032 26.2091 20.0693C26.3127 20.1071 26.4487 20.1436 26.5567 20.1209C26.9042 20.0485 27.0936 19.8596 27.2829 19.4636C27.1994 19.4 27.1087 19.2698 26.9465 19.2627Z" fill="#EACDC1"/>
<path d="M26.724 20.0782C26.7285 20.0876 26.5947 20.1529 26.3605 20.1489C26.3031 20.1471 26.2373 20.1427 26.168 20.1187C26.1005 20.0969 26.0205 20.0405 25.996 19.9502C25.9716 19.8627 25.9893 19.776 26.0151 19.6942C26.0418 19.6116 26.0858 19.5316 26.144 19.4609C26.26 19.3182 26.4227 19.2289 26.58 19.2036C26.7365 19.1778 26.8787 19.2013 26.9893 19.24C27.1005 19.2787 27.18 19.3351 27.2262 19.3805C27.2725 19.4271 27.2885 19.46 27.284 19.4636C27.2733 19.4751 27.1818 19.36 26.9693 19.3045C26.8653 19.2765 26.7338 19.2627 26.5956 19.2902C26.4591 19.3165 26.3191 19.3965 26.2169 19.5218C26.1658 19.584 26.1271 19.6533 26.1031 19.7245C26.0787 19.7956 26.0649 19.8698 26.0805 19.9276C26.0942 19.9853 26.1409 20.024 26.1965 20.0462C26.2516 20.0689 26.3107 20.0769 26.3653 20.0831C26.5836 20.1027 26.7209 20.0631 26.724 20.0782Z" fill="#22120E"/>
<path d="M34.8464 28.2574C34.8406 28.2498 34.8824 28.2085 34.9557 28.1294C35.0242 28.0463 35.1184 27.9156 35.1788 27.7223C35.2393 27.5303 35.2668 27.2774 35.2153 26.9934C35.1926 26.8512 35.1504 26.7018 35.0873 26.5516C35.0246 26.4014 34.9433 26.248 34.8339 26.1058C34.6135 25.8156 34.3099 25.5467 33.965 25.2778C33.6224 25.0058 33.2286 24.7334 32.8788 24.3623C32.5255 23.9978 32.2188 23.5552 31.9735 23.0632C31.7255 22.5716 31.5428 22.0316 31.4015 21.4712C31.1184 20.3476 31.0259 19.2503 30.909 18.2698C30.8499 17.7787 30.7864 17.3138 30.7068 16.8832C30.6277 16.4525 30.533 16.056 30.4273 15.7C30.325 15.3423 30.1975 15.0316 30.081 14.7609C29.9566 14.4938 29.8357 14.2698 29.7273 14.0925C29.6717 14.0045 29.6224 13.9263 29.5797 13.8583C29.5339 13.7929 29.4948 13.7378 29.4624 13.6925C29.3997 13.6018 29.3699 13.5512 29.3757 13.5458C29.3819 13.5405 29.4242 13.5805 29.4993 13.6627C29.5366 13.704 29.5833 13.7547 29.6357 13.8169C29.6846 13.8827 29.7406 13.9578 29.8037 14.0423C29.9259 14.2147 30.0615 14.4365 30.1997 14.704C30.3299 14.9752 30.4717 15.2889 30.5864 15.6503C30.7046 16.0098 30.8104 16.4116 30.8988 16.8467C30.9882 17.2818 31.0597 17.7503 31.125 18.2432C31.2544 19.2294 31.353 20.3134 31.6304 21.4134C31.7686 21.9618 31.945 22.4867 32.1806 22.9609C32.4139 23.4356 32.7033 23.8605 33.0357 24.212C33.3628 24.5685 33.7446 24.8427 34.0868 25.1249C34.4313 25.404 34.7424 25.6916 34.9677 26.0067C35.0828 26.1654 35.1646 26.3334 35.2264 26.4969C35.2886 26.6605 35.3273 26.8214 35.3455 26.9747C35.3873 27.2805 35.3437 27.5516 35.265 27.7538C35.1855 27.9574 35.0717 28.088 34.989 28.1636C34.9019 28.2343 34.8504 28.2632 34.8464 28.2574Z" fill="#22120E"/>
<path d="M22.3721 23.5658C22.3712 23.5578 22.3917 23.5471 22.4303 23.5342C22.469 23.5218 22.5263 23.5071 22.5974 23.4822C22.7401 23.4355 22.9428 23.3547 23.161 23.2053C23.2681 23.128 23.3797 23.036 23.4859 22.924C23.5903 22.8107 23.6894 22.6787 23.7712 22.528C23.9383 22.2284 24.0201 21.8493 23.9774 21.4507C23.9388 21.0524 23.8001 20.6844 23.6352 20.3738C23.4681 20.0618 23.2765 19.8004 23.1108 19.5844C22.7734 19.1551 22.5517 18.8929 22.5783 18.8689C22.6001 18.8489 22.8623 19.0675 23.2392 19.4773C23.425 19.684 23.6379 19.9435 23.8259 20.2684C24.0121 20.5933 24.1699 20.9875 24.213 21.4284C24.2348 21.648 24.2241 21.8671 24.1801 22.0729C24.1361 22.2795 24.0583 22.4702 23.9605 22.6355C23.8628 22.8013 23.7463 22.9435 23.625 23.0622C23.5019 23.1795 23.3734 23.272 23.2508 23.3467C23.0014 23.4907 22.7743 23.5515 22.6179 23.5724C22.5397 23.5844 22.4779 23.5849 22.4361 23.5818C22.3948 23.5791 22.373 23.5742 22.3721 23.5658Z" fill="#22120E"/>
<path d="M31.0968 26.4155C31.0968 26.4155 31.8826 27.5213 32.3492 30.0195C32.8159 32.5178 33.4301 35.3986 32.179 36.2849C31.5079 36.7604 29.8306 34.5493 29.8306 34.5493L29.3452 29.3551L28.8701 27.8026L31.0968 26.4155Z" fill="#FBE0D3"/>
<path d="M30.7034 30.9324L33.4834 29.9329C33.4834 29.9329 30.9714 24.4769 29.715 23.7658C28.871 23.4058 27.6287 23.5702 27.6287 23.5702C27.0381 25.3969 23.1065 25.2404 22.0865 22.8044C21.9478 22.7733 19.3043 23.4151 18.6158 23.9747C17.0643 25.236 16.5527 31.7227 16.5527 31.7227L19.6945 31.5018L19.5772 36.352L19.1127 37.0538C18.9483 37.3022 19.027 37.6378 19.2843 37.7871L25.9732 41.6738L29.2514 38.3093C29.6083 37.9431 29.5203 37.3373 29.0736 37.0884L30.5234 30.6542L30.7034 30.9324Z" fill="#6C99AF"/>
<path d="M29.8235 26.2196C29.8248 26.2191 29.8328 26.2347 29.8466 26.2653C29.8621 26.3013 29.8812 26.3458 29.9048 26.4009C29.9301 26.4596 29.9599 26.532 29.9906 26.6178C30.0217 26.7031 30.0599 26.7996 30.0937 26.9089C30.1675 27.1258 30.2426 27.3884 30.3128 27.6831C30.3803 27.9787 30.4412 28.3062 30.4843 28.6533C30.5252 29.0009 30.5435 29.3338 30.5479 29.6369C30.5497 29.94 30.539 30.2129 30.5186 30.4409C30.5115 30.5551 30.4972 30.6578 30.4875 30.7484C30.4781 30.8391 30.4661 30.9164 30.4555 30.9796C30.4457 31.0382 30.4372 31.0867 30.431 31.1249C30.4248 31.1582 30.4208 31.1751 30.4195 31.1751C30.4177 31.1747 30.4186 31.1569 30.4217 31.1236C30.4257 31.0849 30.431 31.0364 30.4372 30.9773C30.4452 30.9138 30.4541 30.8364 30.4608 30.7458C30.4683 30.6556 30.4799 30.5529 30.4848 30.4387C30.5008 30.2111 30.5079 29.9391 30.5039 29.6378C30.4968 29.3364 30.4772 29.0049 30.4368 28.6591C30.3941 28.3138 30.3346 27.9871 30.2697 27.6929C30.2021 27.3991 30.1306 27.1364 30.0612 26.9191C30.0292 26.8093 29.9937 26.7124 29.9648 26.6267C29.9368 26.5404 29.9097 26.4671 29.887 26.4076C29.8666 26.3516 29.8501 26.3058 29.8372 26.2689C29.827 26.2373 29.8221 26.2204 29.8235 26.2196Z" fill="#456F80"/>
<path d="M21.219 27.1666C21.2199 27.1666 21.2212 27.1733 21.2234 27.1857C21.2256 27.2013 21.2283 27.22 21.2319 27.2426C21.239 27.2964 21.2483 27.3702 21.2607 27.4635C21.2843 27.66 21.3176 27.9382 21.359 28.2831C21.439 28.9826 21.5492 29.952 21.6745 31.048L21.6772 31.0711L21.6545 31.0742C21.4567 31.1013 21.2487 31.1302 21.0372 31.1595C19.7959 31.3222 18.6701 31.4511 17.8576 31.5613C17.4545 31.6168 17.127 31.6622 16.8959 31.6942C16.7852 31.7097 16.6981 31.7222 16.6345 31.7311C16.607 31.7346 16.5843 31.7373 16.5665 31.7395C16.551 31.7413 16.543 31.7417 16.543 31.7408C16.543 31.74 16.5505 31.7382 16.5656 31.7346C16.5834 31.7311 16.6056 31.7271 16.6332 31.7217C16.6963 31.7106 16.7834 31.6955 16.8932 31.6764C17.1194 31.6391 17.4474 31.5866 17.8532 31.5288C18.6647 31.4097 19.7901 31.276 21.031 31.1133C21.2425 31.0844 21.4501 31.056 21.6479 31.0288L21.6279 31.0551C21.5087 29.9582 21.4039 28.988 21.3279 28.2875C21.2923 27.9417 21.2639 27.6631 21.2439 27.4662C21.2354 27.3724 21.2283 27.2986 21.2234 27.2444C21.2216 27.2213 21.2203 27.2026 21.219 27.1871C21.2185 27.1733 21.2185 27.1666 21.219 27.1666Z" fill="#456F80"/>
<path d="M22.9639 37.4866C22.9643 37.4849 22.9852 37.4862 23.0256 37.4902C23.0705 37.4951 23.1288 37.5018 23.2008 37.5102C23.2768 37.52 23.3696 37.5311 23.4781 37.5409C23.5865 37.5511 23.7092 37.5658 23.8461 37.5746C24.119 37.5978 24.4443 37.6146 24.8061 37.6222C25.1679 37.6266 25.5656 37.6204 25.9821 37.5951C26.3985 37.5675 26.7941 37.5235 27.1523 37.4729C27.5101 37.4195 27.831 37.3618 28.0985 37.3044C28.2328 37.2782 28.3532 37.248 28.459 37.224C28.5652 37.2004 28.6559 37.1778 28.7301 37.1582C28.8008 37.1409 28.8576 37.1271 28.9016 37.1164C28.9408 37.1075 28.9616 37.1035 28.9621 37.1049C28.9625 37.1066 28.9425 37.1133 28.9039 37.1258C28.8608 37.1386 28.8043 37.1555 28.7345 37.1764C28.6612 37.1982 28.571 37.224 28.4648 37.2498C28.359 37.276 28.2394 37.3089 28.1052 37.3369C27.8381 37.3986 27.5168 37.46 27.1581 37.516C26.799 37.5689 26.4025 37.6146 25.9843 37.6422C25.5661 37.668 25.167 37.6729 24.8043 37.6658C24.4416 37.656 24.1154 37.636 23.8425 37.608C23.7056 37.5969 23.583 37.58 23.4745 37.5671C23.3661 37.5546 23.2736 37.5409 23.1976 37.5284C23.1256 37.5164 23.0679 37.5071 23.0234 37.4995C22.9843 37.4929 22.9639 37.4884 22.9639 37.4866Z" fill="#456F80"/>
<path d="M24.2119 35.5769C24.2106 35.5738 24.2559 35.5524 24.3382 35.5169C24.4208 35.4818 24.5395 35.4289 24.6844 35.3609C24.9746 35.2249 25.3675 35.0191 25.7768 34.7516C26.1857 34.4831 26.5315 34.2049 26.7719 33.9933C26.8924 33.8876 26.9884 33.8 27.0533 33.7382C27.1191 33.6769 27.1564 33.644 27.1586 33.6462C27.1608 33.6484 27.1279 33.6858 27.0662 33.7511C27.0048 33.8169 26.9124 33.9084 26.7942 34.0178C26.5586 34.2369 26.2142 34.5209 25.8026 34.7907C25.3911 35.06 24.9933 35.2622 24.6982 35.3911C24.5506 35.4556 24.4297 35.504 24.3448 35.5338C24.2604 35.5649 24.2133 35.58 24.2119 35.5769Z" fill="#456F80"/>
<path d="M18.5244 23.524C18.7813 23.4067 19.3871 23.5373 19.6204 23.6965C19.8537 23.8556 20.0377 24.0765 20.2546 24.2569C20.5751 24.5231 20.9786 24.7009 21.3951 24.704C21.8115 24.7067 22.3106 24.5902 22.6289 24.3218C23.0026 24.0062 23.1035 23.8307 23.18 23.4756C23.52 21.8982 23.6471 21.3765 22.7022 18.6165L21.9489 18.9822L20.0937 22.6982L18.5244 23.524Z" fill="#22120E"/>
<path d="M23.4053 24.5747C23.4053 24.5747 25.7648 21.7475 26.0008 21.5782C26.4666 21.244 27.4008 21.1822 27.7013 21.4329C27.8786 21.5804 29.8493 23.3338 29.8493 23.3338L29.2604 24.56L27.0493 26.2515L23.4053 24.5747Z" fill="white"/>
<path d="M23.4053 24.5747C23.4053 24.5747 23.4302 24.5844 23.4751 24.6044C23.5217 24.6253 23.5875 24.6551 23.6728 24.6929C23.8466 24.7715 24.0977 24.8853 24.4168 25.0298C25.0555 25.3209 25.9653 25.7351 27.0582 26.2329L27.0373 26.2351C27.7022 25.7253 28.4488 25.1529 29.2466 24.5409L29.2399 24.5493C29.4288 24.1555 29.6266 23.7435 29.8284 23.3231L29.8342 23.3511C29.7791 23.3027 29.7199 23.2502 29.6604 23.1973C29.2271 22.8133 28.8035 22.4387 28.3946 22.0769C28.1902 21.896 27.9897 21.7178 27.7933 21.5435C27.6159 21.34 27.3475 21.3058 27.1022 21.3018C26.9782 21.2995 26.8551 21.3102 26.7355 21.3293C26.6155 21.3471 26.4991 21.3755 26.3875 21.4124C26.2755 21.448 26.1697 21.4969 26.0728 21.5555C25.9733 21.6102 25.9048 21.7009 25.8257 21.7795C25.5239 22.1075 25.2528 22.4227 25.0044 22.7093C24.5119 23.2849 24.1133 23.7511 23.8359 24.0751C23.6991 24.2351 23.5924 24.36 23.5186 24.4467C23.4831 24.4875 23.4555 24.5195 23.4351 24.5427C23.4168 24.5635 23.4053 24.5747 23.4053 24.5747C23.4053 24.5747 23.4128 24.5635 23.4311 24.54C23.4502 24.516 23.4768 24.4831 23.5106 24.4409C23.5831 24.3529 23.6875 24.2262 23.8213 24.0635C24.0924 23.7369 24.4857 23.2653 24.9786 22.688C25.2257 22.4 25.4955 22.0835 25.7968 21.7533C25.8355 21.7129 25.8746 21.672 25.9137 21.6307C25.9346 21.6107 25.9568 21.5911 25.9786 21.5711C26.0008 21.5515 26.0271 21.5382 26.0511 21.5218C26.1511 21.4609 26.2595 21.4102 26.3737 21.3738C26.4875 21.3355 26.6062 21.3062 26.7284 21.288C26.8502 21.268 26.9751 21.2573 27.1017 21.2591C27.2284 21.2604 27.3577 21.2711 27.4844 21.3058C27.5475 21.3249 27.6106 21.3471 27.6679 21.384C27.7284 21.4204 27.7702 21.4675 27.8213 21.5102C28.0182 21.684 28.2191 21.8618 28.4239 22.0427C28.8333 22.4044 29.2568 22.7795 29.6906 23.1631C29.7502 23.216 29.8093 23.2684 29.8644 23.3169L29.8777 23.3289L29.8702 23.3449C29.6679 23.7653 29.4702 24.1769 29.2808 24.5707L29.2786 24.5755L29.2742 24.5791C28.4751 25.1889 27.7271 25.76 27.0608 26.2684L27.0511 26.276L27.0399 26.2711C25.9457 25.7627 25.0342 25.3391 24.3946 25.0418C24.0795 24.8942 23.8311 24.7782 23.6595 24.6978C23.5768 24.6587 23.5128 24.6284 23.4675 24.6071C23.4257 24.5858 23.4053 24.5747 23.4053 24.5747Z" fill="white"/>
<path d="M20.6578 33.2084C20.5641 33.3022 19.5303 34.9231 19.5303 35.7218C19.5303 36.5204 19.7654 38.0235 21.0103 37.6951C22.2552 37.3662 22.8894 36.1213 23.8525 34.0542C24.8156 31.9871 26.3681 28.6853 26.3681 28.6853L24.4992 27.5667L20.6578 33.2084Z" fill="#FBE0D3"/>
<path d="M21.1938 32.0089L21.0978 31.1351L17.5449 31.6711C17.6703 32.6827 17.824 34.016 17.9889 34.6085C18.4009 36.0911 19.4 38.0849 20.7738 37.6298C22.1467 37.1747 21.1938 32.0089 21.1938 32.0089Z" fill="#FBE0D3"/>
<path d="M28.4178 27.3884L32.1796 33.2218C32.1796 33.2218 33.58 35.3222 31.9511 36.4702C30.3222 37.6187 28.9014 34.3431 28.3774 33.088C27.8534 31.8329 26.8369 28.8075 26.8369 28.8075L28.4178 27.3884Z" fill="#FBE0D3"/>
<path d="M27.7921 22.3173C27.9072 22.3004 28.0197 22.3617 28.0828 22.46C28.3672 22.904 29.4019 24.5346 29.4721 24.8862C29.5534 25.2937 29.2419 25.408 29.2419 25.408C29.2419 25.408 29.3463 25.9849 28.9037 26.2417C28.9037 26.2417 28.9974 26.6635 28.565 26.9004L28.3774 28.0342L26.837 28.8084L26.6943 28.0933L26.9508 27.3902L27.313 25.9853L27.2037 23.9382C27.2037 23.9382 27.185 23.4689 27.5112 23.5706C27.5112 23.5706 27.253 23.2133 27.4166 22.9595C27.5161 22.8053 27.7041 22.8609 27.7041 22.8609C27.7041 22.8609 27.5361 22.6035 27.6379 22.42C27.6748 22.3537 27.7326 22.3257 27.7921 22.3173Z" fill="#FBE0D3"/>
<path d="M28.8698 24.8968C28.8671 24.8986 28.8476 24.8706 28.8151 24.819C28.7827 24.7675 28.7365 24.6919 28.6809 24.5986C28.5694 24.411 28.4178 24.1506 28.2534 23.8613C28.0889 23.5719 27.9423 23.3088 27.8383 23.1177C27.7863 23.0222 27.7449 22.9444 27.7174 22.8902C27.6898 22.8359 27.676 22.8053 27.6791 22.8039C27.6823 22.8026 27.7018 22.8306 27.7343 22.8822C27.7671 22.9337 27.8129 23.0093 27.8685 23.103C27.98 23.2906 28.1311 23.5506 28.2956 23.839C28.46 24.1275 28.6063 24.3902 28.7103 24.5813C28.7623 24.6768 28.8036 24.7546 28.8311 24.8093C28.8587 24.8644 28.8729 24.895 28.8698 24.8968Z" fill="#EACDC1"/>
<path d="M28.4169 25.3889C28.4054 25.3946 28.1716 24.9555 27.8956 24.408C27.6192 23.86 27.4045 23.4115 27.4165 23.4058C27.4281 23.4 27.6618 23.8391 27.9378 24.3866C28.2143 24.9342 28.4285 25.3826 28.4169 25.3889Z" fill="#EACDC1"/>
<path d="M27.8591 25.7764C27.8471 25.7813 27.6928 25.4346 27.5151 25.0022C27.3373 24.5698 27.2026 24.2151 27.2146 24.2102C27.2266 24.2053 27.3808 24.5515 27.5586 24.9844C27.7368 25.4169 27.8711 25.7715 27.8591 25.7764Z" fill="#EACDC1"/>
<path d="M25.7971 22.4293C25.7971 22.4293 24.4522 24.6506 24.3504 25.0986C24.2487 25.5471 24.5135 27.6866 24.5135 27.6866L26.3678 28.6853C26.3678 28.6853 27.0198 27.7275 27.1015 26.9124C27.1829 26.0973 27.2033 25.7102 27.2033 25.7102C27.2033 25.7102 27.5495 24.1004 27.3869 23.9169C27.2238 23.7333 27.122 23.7742 27.122 23.7742C27.122 23.7742 27.5353 22.9795 27.4304 22.7551C27.3255 22.5311 27.106 22.5186 27.106 22.5186C27.106 22.5186 27.1584 22.224 26.9411 22.1289C26.694 22.0209 26.4904 22.3471 26.4904 22.3471C26.4904 22.3471 26.126 21.8773 25.7971 22.4293Z" fill="#FBE0D3"/>
<path d="M26.4901 22.3479C26.5017 22.3537 26.2452 22.8791 25.9172 23.5208C25.5892 24.1626 25.3137 24.6782 25.3021 24.6724C25.2906 24.6666 25.547 24.1413 25.875 23.4995C26.203 22.8577 26.4786 22.3422 26.4901 22.3479Z" fill="#EACDC1"/>
<path d="M27.1055 22.5191C27.1082 22.5204 27.0926 22.5569 27.0619 22.6204C27.0264 22.6929 26.9819 22.7831 26.9295 22.8897C26.8113 23.1257 26.657 23.4337 26.4864 23.7746C26.3126 24.12 26.1526 24.4315 26.033 24.6551C25.9735 24.7666 25.9242 24.8569 25.8886 24.9182C25.8535 24.9795 25.8326 25.0129 25.8295 25.0115C25.8264 25.0102 25.8419 24.9737 25.8722 24.9097C25.9073 24.8373 25.9513 24.7466 26.0033 24.6395C26.1206 24.4035 26.2744 24.0946 26.4442 23.7529C26.6179 23.4075 26.7788 23.0964 26.8997 22.8737C26.9602 22.7622 27.0099 22.6724 27.0455 22.6115C27.0815 22.5506 27.1028 22.5177 27.1055 22.5191Z" fill="#EACDC1"/>
<path d="M26.4962 25.3115C26.4953 25.3111 26.4975 25.3013 26.5029 25.2822C26.51 25.2595 26.5184 25.232 26.5286 25.1982C26.5522 25.1249 26.5882 25.0173 26.6371 24.8818C26.7344 24.6102 26.8829 24.2253 27.0873 23.7729L27.0917 23.7631L27.1015 23.7618C27.1722 23.7511 27.246 23.7613 27.31 23.8013C27.3749 23.84 27.4157 23.9106 27.4362 23.9822C27.4629 24.1324 27.4429 24.2795 27.43 24.4329C27.398 24.7382 27.3469 25.0582 27.2886 25.3884C27.2757 25.4586 27.2629 25.5284 27.2513 25.5938L27.2517 25.5915C27.2037 26.0444 27.158 26.4733 27.1166 26.8631C27.1113 26.9115 27.1064 26.9595 27.1011 27.0071C27.0944 27.0546 27.0851 27.1013 27.0771 27.1475C27.0655 27.1929 27.0544 27.2373 27.0437 27.2813C27.0304 27.3244 27.0171 27.3666 27.0042 27.4084C26.9486 27.5738 26.8851 27.7226 26.8242 27.8564C26.7002 28.1235 26.5851 28.3311 26.5029 28.4724C26.462 28.5431 26.4282 28.5969 26.4051 28.6333C26.382 28.6693 26.3686 28.688 26.3673 28.6871C26.366 28.6862 26.3766 28.6662 26.3971 28.6289C26.4197 28.5875 26.4495 28.5324 26.4873 28.464C26.5646 28.3204 26.6753 28.1111 26.7949 27.8435C26.8535 27.7093 26.9144 27.5604 26.9677 27.3969C27.0229 27.2329 27.0615 27.0546 27.0744 26.8586C27.1144 26.4693 27.1584 26.0409 27.2051 25.5884V25.5871V25.5862C27.2171 25.5213 27.2295 25.4515 27.2424 25.3818C27.3006 25.0524 27.3522 24.7324 27.3851 24.4298C27.3989 24.28 27.4175 24.1275 27.3949 23.9955C27.3766 23.9306 27.342 23.8711 27.2882 23.8386C27.2357 23.8049 27.1682 23.7951 27.1095 23.8035L27.1237 23.792C26.9157 24.2413 26.7624 24.624 26.6589 24.8924C26.6091 25.0235 26.5695 25.128 26.5402 25.2049C26.5273 25.2382 26.5171 25.2649 26.5086 25.2871C26.5015 25.3026 26.4971 25.312 26.4962 25.3115Z" fill="#EACDC1"/>
<path d="M24.8779 25.2871C24.8819 25.2911 24.8641 25.3195 24.8175 25.3439C24.7721 25.3684 24.6948 25.3848 24.6166 25.3559C24.5384 25.3266 24.4908 25.2635 24.4726 25.2155C24.4535 25.1662 24.4584 25.1333 24.4641 25.1328C24.4713 25.1319 24.4784 25.1613 24.5024 25.2004C24.5255 25.2391 24.5699 25.2879 24.633 25.3115C24.6966 25.3351 24.7615 25.3271 24.8046 25.3128C24.8486 25.2995 24.8735 25.2817 24.8779 25.2871Z" fill="#EACDC1"/>
<path d="M25.4861 25.672C25.4897 25.6764 25.467 25.7035 25.4154 25.7249C25.3652 25.7466 25.283 25.7582 25.2012 25.7262C25.1194 25.6942 25.067 25.6297 25.0448 25.58C25.0217 25.5293 25.0234 25.4937 25.0288 25.4933C25.0359 25.4915 25.0461 25.5226 25.0737 25.5635C25.1008 25.6044 25.1497 25.6551 25.2181 25.6822C25.2866 25.7089 25.3568 25.7044 25.4048 25.6929C25.4537 25.6822 25.4821 25.6662 25.4861 25.672Z" fill="#EACDC1"/>
<path d="M26.0982 25.9364C26.1022 25.9404 26.0835 25.9702 26.0346 25.9986C25.9875 26.0266 25.907 26.0488 25.8213 26.0275C25.7359 26.0057 25.6755 25.9484 25.647 25.9013C25.6177 25.8533 25.615 25.8182 25.6204 25.8164C25.627 25.8137 25.6408 25.8435 25.6737 25.8813C25.7057 25.9186 25.7608 25.9635 25.8328 25.9813C25.9044 25.9991 25.9742 25.9857 26.0204 25.9679C26.067 25.9506 26.0933 25.9306 26.0982 25.9364Z" fill="#EACDC1"/>
<path d="M24.4991 27.5671C24.5004 27.568 24.4866 27.5911 24.4591 27.6342C24.4289 27.6804 24.388 27.7426 24.3364 27.8213C24.2257 27.9862 24.0702 28.2186 23.8786 28.5044C23.4902 29.08 22.9515 29.8729 22.3466 30.7426C21.7417 31.6124 21.1831 32.3924 20.7729 32.9524C20.5675 33.2324 20.4004 33.4582 20.2831 33.6129C20.2262 33.6875 20.1809 33.7466 20.1475 33.7906C20.116 33.8311 20.0991 33.8515 20.0977 33.8506C20.0964 33.8497 20.1111 33.8271 20.14 33.7849C20.172 33.7395 20.2146 33.6786 20.2684 33.6022C20.384 33.4404 20.5462 33.2129 20.7457 32.9333C21.1489 32.3684 21.7031 31.5857 22.308 30.7164C22.9093 29.8471 23.4537 29.0604 23.8511 28.4862C24.0475 28.2044 24.2075 27.9746 24.3213 27.812C24.3755 27.7355 24.4191 27.6751 24.4511 27.6297C24.4813 27.5871 24.4977 27.5657 24.4991 27.5671Z" fill="#EACDC1"/>
<path d="M32.1796 33.2217C32.1782 33.2226 32.164 33.2035 32.1387 33.1657C32.1111 33.1244 32.0751 33.0693 32.0298 33.0009C31.9333 32.8529 31.7982 32.6457 31.6329 32.392C31.2933 31.8751 30.8293 31.168 30.3164 30.3871C29.8018 29.604 29.3409 28.892 29.016 28.3711C28.8529 28.1106 28.7231 27.8991 28.6356 27.7515C28.5938 27.6809 28.5604 27.624 28.5351 27.5813C28.5124 27.5422 28.5013 27.5209 28.5031 27.5204C28.5044 27.5195 28.5182 27.5391 28.5436 27.5764C28.5707 27.6182 28.6067 27.6733 28.6511 27.7422C28.7467 27.8911 28.8804 28.0986 29.044 28.3537C29.3764 28.8697 29.8413 29.5791 30.356 30.3617C30.8707 31.1444 31.3333 31.8555 31.6609 32.3746C31.8249 32.6342 31.9564 32.8449 32.0453 32.992C32.0876 33.0626 32.1213 33.1191 32.1471 33.1617C32.1693 33.2 32.1809 33.2209 32.1796 33.2217Z" fill="#EACDC1"/>
<path d="M31.5072 48.364C31.1979 46.8129 30.9037 44.692 30.9037 44.692C30.9037 44.692 30.689 43.528 30.6063 42.4067C30.5188 41.2192 29.413 37.7827 29.413 37.7827C26.7828 40.1347 19.1788 37.7418 19.1788 37.7418C16.4926 41.7263 16.1232 45.3258 16.3566 48.3747L23.7721 48.4436L23.9028 47.9738L24.0583 48.408L31.5072 48.364Z" fill="#A0BCC5"/>
<path d="M25.1138 47.2872C25.1253 47.2974 25.264 47.1476 25.4987 46.9192C25.7333 46.6907 26.0698 46.3876 26.4702 46.0898C26.8716 45.793 27.2591 45.5592 27.5462 45.401C27.8329 45.2427 28.0165 45.1538 28.0102 45.1396C28.0053 45.1285 27.812 45.1947 27.5138 45.3387C27.216 45.4818 26.8173 45.7094 26.4111 46.0098C26.0053 46.3112 25.672 46.6267 25.4485 46.8698C25.224 47.1134 25.1045 47.2796 25.1138 47.2872Z" fill="#306074"/>
<path d="M24.2188 46.9805C24.2255 46.9823 24.2606 46.8809 24.3188 46.6956C24.3779 46.5107 24.4548 46.24 24.5423 45.9036C24.7175 45.2311 24.9201 44.2911 25.0641 43.24C25.2072 42.1885 25.2641 41.228 25.2752 40.5334C25.2815 40.1858 25.2797 39.9049 25.2721 39.7107C25.2655 39.5165 25.2588 39.4094 25.2521 39.4094C25.2455 39.4094 25.2392 39.5169 25.2335 39.7107C25.229 39.9045 25.2201 40.1849 25.205 40.5311C25.1757 41.2236 25.1081 42.1787 24.9655 43.2267C24.8219 44.2738 24.6308 45.2125 24.4739 45.8871C24.3957 46.2245 24.329 46.4974 24.2815 46.6854C24.2352 46.8734 24.2126 46.9787 24.2188 46.9805Z" fill="#306074"/>
<path d="M24.1355 39.2552C24.1351 39.2498 24.0986 39.2454 24.0373 39.2676C23.9773 39.2889 23.8928 39.3436 23.8328 39.4463C23.772 39.5441 23.7431 39.7098 23.8302 39.8525C23.9106 39.9898 24.0844 40.0996 24.2777 40.0694C24.4702 40.0334 24.5973 39.8725 24.6275 39.7161C24.6626 39.5529 24.5795 39.4058 24.4897 39.3338C24.3986 39.2569 24.3013 39.2338 24.2373 39.2338C24.1724 39.2334 24.1395 39.2494 24.1408 39.2547C24.1377 39.2721 24.292 39.2405 24.4422 39.3854C24.5133 39.4547 24.5693 39.5712 24.5377 39.6965C24.5106 39.8196 24.4026 39.9458 24.2608 39.9712C24.1186 39.9947 23.9751 39.9116 23.9084 39.8045C23.8368 39.6965 23.8506 39.5681 23.8951 39.4792C23.9884 39.2916 24.1444 39.2703 24.1355 39.2552Z" fill="#306074"/>
<path d="M21.2399 39.4467C21.2657 39.4561 21.3604 39.2587 21.451 39.0059C21.5417 38.753 21.5941 38.541 21.5684 38.5316C21.5426 38.5223 21.4479 38.7196 21.3573 38.9725C21.267 39.225 21.2142 39.4374 21.2399 39.4467Z" fill="#306074"/>
<path d="M20.7432 39.3205C20.7699 39.3276 20.8468 39.1285 20.9156 38.8756C20.9845 38.6227 21.0188 38.4116 20.9921 38.4045C20.9654 38.3974 20.8885 38.5965 20.8196 38.8494C20.7512 39.1023 20.717 39.3129 20.7432 39.3205Z" fill="#306074"/>
<path d="M28.4337 39.321C28.4595 39.3259 28.5159 39.1081 28.4822 38.837C28.4497 38.5654 28.3426 38.3676 28.3191 38.3787C28.2924 38.3894 28.3537 38.593 28.3835 38.8494C28.4159 39.105 28.4053 39.317 28.4337 39.321Z" fill="#306074"/>
<path d="M27.8855 39.5116C27.9126 39.5085 27.9139 39.3116 27.8881 39.0712C27.8624 38.8307 27.8193 38.6383 27.7917 38.6414C27.7646 38.6445 27.7633 38.8414 27.789 39.0818C27.8153 39.3218 27.8584 39.5143 27.8855 39.5116Z" fill="#306074"/>
<g opacity="0.56">
<path d="M12.627 32.096C12.4901 31.7991 12.1701 30.2178 12.0465 29.2676C11.923 28.3174 12.3639 27.0738 12.783 26.4205C13.2021 25.7671 13.4354 25.6382 13.5359 25.0418C13.6363 24.4454 13.9621 23.656 14.5856 22.8551C15.2092 22.0542 15.5719 21.7529 15.9736 21.784C16.3754 21.8151 16.4394 22.7431 16.5119 22.9231C16.5847 23.1031 17.2359 23.5378 17.1674 24.2631C17.0985 24.9885 16.9101 25.2689 16.9287 25.5098C16.9474 25.7507 17.2523 26.0827 17.0883 26.6876C16.9243 27.2925 15.9185 27.8934 15.7083 28.2276C15.4976 28.5618 15.175 29.4605 14.7754 29.9445C14.3759 30.4285 13.6567 30.844 13.3656 31.2C13.0754 31.5556 12.627 32.096 12.627 32.096Z" fill="#F5C130"/>
<path d="M12.627 32.096C12.4901 31.7991 12.1701 30.2178 12.0465 29.2676C11.923 28.3174 12.3639 27.0738 12.783 26.4205C13.2021 25.7671 13.4354 25.6382 13.5359 25.0418C13.6363 24.4454 13.9621 23.656 14.5856 22.8551C15.2092 22.0542 15.5719 21.7529 15.9736 21.784C16.3754 21.8151 16.4394 22.7431 16.5119 22.9231C16.5847 23.1031 17.2359 23.5378 17.1674 24.2631C17.0985 24.9885 16.9101 25.2689 16.9287 25.5098C16.9474 25.7507 17.2523 26.0827 17.0883 26.6876C16.9243 27.2925 15.9185 27.8934 15.7083 28.2276C15.4976 28.5618 15.175 29.4605 14.7754 29.9445C14.3759 30.4285 13.6567 30.844 13.3656 31.2C13.0754 31.5556 12.627 32.096 12.627 32.096Z" fill="#CCD8DB"/>
<g opacity="0.2">
<path d="M12.6592 31.6862C12.7485 31.2934 12.845 30.9022 12.9463 30.5125C13.0494 30.1231 13.1587 29.7351 13.2756 29.3498C13.3921 28.964 13.5192 28.5814 13.6627 28.2045C13.697 28.1094 13.7365 28.0165 13.7738 27.9231C13.8103 27.8289 13.8525 27.7374 13.8943 27.6454C13.9352 27.5529 13.9787 27.4627 14.0183 27.3707C14.0578 27.2787 14.0943 27.1854 14.1298 27.0911C14.2703 26.7147 14.3836 26.3285 14.4898 25.9405C14.5961 25.5525 14.6916 25.1614 14.7894 24.7707C14.8872 24.38 14.9827 23.9889 15.0894 23.6C15.1436 23.4062 15.2005 23.2125 15.2654 23.0218C15.3321 22.832 15.401 22.6405 15.5107 22.4711C15.4041 22.6427 15.3387 22.8347 15.2756 23.0254C15.2138 23.2169 15.161 23.4111 15.1103 23.6058C15.0081 23.9951 14.9161 24.3871 14.8223 24.7787C14.7294 25.1707 14.6325 25.5618 14.5285 25.9511C14.4232 26.34 14.3112 26.728 14.1712 27.1067C14.1352 27.2009 14.0983 27.2951 14.0578 27.388C14.0174 27.4809 13.9734 27.572 13.9325 27.6636C13.8907 27.7547 13.8485 27.8458 13.8121 27.9396C13.7743 28.0325 13.7347 28.1249 13.7001 28.2196C13.5552 28.5947 13.429 28.9769 13.3081 29.3609C13.1872 29.7449 13.0743 30.1311 12.9672 30.5191C12.8587 30.9062 12.7552 31.2951 12.6592 31.6862Z" fill="#040000"/>
<path d="M12.6608 27.5178C12.6484 27.6489 12.6372 27.78 12.6301 27.9116C12.6217 28.0427 12.6159 28.1743 12.6132 28.3054C12.6088 28.568 12.6101 28.8312 12.6381 29.0916C12.6626 29.3525 12.707 29.612 12.755 29.8707C12.7786 30 12.8057 30.1289 12.8341 30.2574C12.8612 30.3863 12.8915 30.5143 12.923 30.6423C12.8426 30.3912 12.7777 30.1356 12.7217 29.8778C12.6666 29.62 12.6226 29.3596 12.5941 29.0965C12.5692 28.8329 12.5675 28.568 12.5795 28.3045C12.5928 28.0405 12.6177 27.7774 12.6608 27.5178Z" fill="#040000"/>
<path d="M15.3344 28.0525C15.1873 28.2698 15.0335 28.4832 14.8766 28.6938C14.7197 28.9045 14.5575 29.1116 14.3891 29.3138C14.3024 29.4129 14.2171 29.5138 14.1144 29.6C14.0104 29.684 13.8975 29.7538 13.7815 29.816C13.5491 29.9409 13.3082 30.0467 13.0615 30.1369C13.1815 30.0832 13.3006 30.0285 13.418 29.9694C13.5357 29.9116 13.6522 29.8516 13.7651 29.7858C13.8775 29.7196 13.9895 29.6516 14.0886 29.5685C14.1864 29.4849 14.2704 29.3832 14.3557 29.2845C14.5264 29.0858 14.6877 28.8787 14.85 28.6729L15.3344 28.0525Z" fill="#040000"/>
<path d="M13.8238 25.424C13.8167 25.5222 13.8087 25.62 13.8038 25.7182C13.7971 25.8165 13.7918 25.9142 13.7882 26.0125C13.7802 26.2089 13.7736 26.4049 13.7749 26.6013C13.7736 26.7978 13.7811 26.9938 13.7922 27.1898C13.8002 27.2876 13.806 27.3858 13.8189 27.4827C13.8269 27.5809 13.8451 27.6773 13.858 27.7751C13.8091 27.5845 13.7785 27.3889 13.758 27.1925C13.7398 26.996 13.7327 26.7987 13.7305 26.6013C13.7331 26.404 13.7389 26.2071 13.7545 26.0107C13.77 25.8147 13.7905 25.6182 13.8238 25.424Z" fill="#040000"/>
<path d="M16.563 24.0676C16.4376 24.2805 16.2941 24.4827 16.143 24.6782C15.9914 24.8738 15.8279 25.06 15.6568 25.2391C15.4816 25.4142 15.2972 25.5805 15.1008 25.7316C14.9016 25.8791 14.6896 26.0093 14.4639 26.1107C14.5701 26.0476 14.6808 25.9925 14.7808 25.92C14.8856 25.8556 14.9816 25.7778 15.0799 25.7045C15.2705 25.5493 15.4536 25.3845 15.6252 25.208C15.7976 25.0325 15.9599 24.8471 16.1168 24.6569C16.1954 24.5618 16.2714 24.4649 16.3456 24.3667C16.4208 24.2693 16.4923 24.1689 16.563 24.0676Z" fill="#040000"/>
<path d="M16.1065 23.5782C16.0309 23.7351 15.9411 23.8845 15.8465 24.0307C15.7509 24.1765 15.6478 24.3169 15.5358 24.4511C15.5087 24.4854 15.4785 24.5169 15.4491 24.5494C15.4198 24.5818 15.3909 24.6147 15.3594 24.6449L15.2665 24.7374C15.234 24.7667 15.2011 24.7956 15.1678 24.824C15.0331 24.9351 14.8874 25.0351 14.7256 25.1005C14.7629 25.0782 14.8007 25.056 14.838 25.0347C14.8758 25.0138 14.9091 24.9854 14.9447 24.9614C14.962 24.9485 14.9803 24.9374 14.9976 24.924L15.0474 24.8827C15.0803 24.8547 15.1149 24.8294 15.1456 24.7982C15.2745 24.6831 15.3905 24.5551 15.5016 24.4227C15.6149 24.292 15.7171 24.152 15.818 24.0116C15.8687 23.9414 15.9176 23.8698 15.9651 23.7974C16.0145 23.7254 16.0607 23.652 16.1065 23.5782Z" fill="#040000"/>
</g>
<path d="M11.2791 40.5476L10.9902 40.5685C10.9902 40.5685 11.1396 36.9662 11.5187 35.5027C11.9742 33.7431 12.5565 32.4253 12.5329 31.804L12.8142 31.8707C12.8142 31.8707 12.0067 34.1671 11.7565 35.4209C11.5062 36.6742 11.2791 40.5476 11.2791 40.5476Z" fill="#F5C130"/>
<path d="M11.2791 40.5476L10.9902 40.5685C10.9902 40.5685 11.1396 36.9662 11.5187 35.5027C11.9742 33.7431 12.5565 32.4253 12.5329 31.804L12.8142 31.8707C12.8142 31.8707 12.0067 34.1671 11.7565 35.4209C11.5062 36.6742 11.2791 40.5476 11.2791 40.5476Z" fill="#CCD8DB"/>
<path d="M9.62786 34.6752C9.62786 34.6752 9.62208 33.7649 9.72208 32.9312C9.76475 32.5756 9.53986 31.3992 9.33897 30.856C9.13808 30.3129 8.33408 28.7116 7.95941 28.4583C7.58475 28.2049 5.85052 27.3449 5.11408 27.3947C4.37763 27.4449 4.55675 28.1005 4.76919 28.552C4.98163 29.0032 5.6163 29.6823 5.84341 30.0756C6.07052 30.4689 6.68875 32.2414 6.97764 32.7356C7.26652 33.2298 7.71541 34.0272 8.0723 34.2432C8.42919 34.4592 9.36741 34.4867 9.62786 34.6752Z" fill="#F5C130"/>
<path d="M9.62786 34.6752C9.62786 34.6752 9.62208 33.7649 9.72208 32.9312C9.76475 32.5756 9.53986 31.3992 9.33897 30.856C9.13808 30.3129 8.33408 28.7116 7.95941 28.4583C7.58475 28.2049 5.85052 27.3449 5.11408 27.3947C4.37763 27.4449 4.55675 28.1005 4.76919 28.552C4.98163 29.0032 5.6163 29.6823 5.84341 30.0756C6.07052 30.4689 6.68875 32.2414 6.97764 32.7356C7.26652 33.2298 7.71541 34.0272 8.0723 34.2432C8.42919 34.4592 9.36741 34.4867 9.62786 34.6752Z" fill="#CCD8DB"/>
<g opacity="0.2">
<path d="M5.0293 27.6401C5.19196 27.7112 5.34307 27.8063 5.49285 27.9019C5.6413 27.9992 5.78841 28.0992 5.93196 28.2036C6.21952 28.4121 6.49952 28.6316 6.76841 28.8641C6.90174 28.9819 7.03463 29.1005 7.1533 29.2347C7.21241 29.3032 7.26485 29.3752 7.31419 29.4494C7.36441 29.5227 7.41241 29.5979 7.46041 29.6725C7.65063 29.973 7.82974 30.2796 8.00441 30.589C8.09107 30.7441 8.17552 30.9005 8.25819 31.0579C8.33996 31.2152 8.4213 31.3743 8.48707 31.5405C8.61863 31.8707 8.74352 32.2032 8.86663 32.5361L9.23507 33.5352L9.57952 34.5432L9.21507 33.5427L8.83463 32.5481C8.70663 32.217 8.58263 31.8841 8.44974 31.5556C8.38396 31.3916 8.30263 31.2347 8.22041 31.0774C8.13774 30.9205 8.05241 30.765 7.96574 30.6107C7.79285 30.3014 7.61463 29.9943 7.42619 29.6939C7.37863 29.6192 7.33107 29.5441 7.2813 29.4712C7.23241 29.3974 7.18041 29.3259 7.12396 29.2596C7.00752 29.1281 6.87641 29.0076 6.7453 28.8894C6.47996 28.6547 6.20263 28.4325 5.91819 28.221C5.77685 28.1139 5.63196 28.0112 5.48574 27.9112C5.33907 27.8125 5.19063 27.7143 5.0293 27.6401Z" fill="#040000"/>
<path d="M5.34961 28.8619C5.42961 28.9205 5.50916 28.9797 5.5905 29.0357C5.67139 29.0925 5.75316 29.1481 5.83672 29.2005C6.00383 29.3045 6.1745 29.4072 6.35894 29.4703C6.40516 29.4863 6.4505 29.4979 6.49939 29.5077C6.54828 29.5174 6.59672 29.5281 6.64517 29.5392C6.74205 29.5619 6.8385 29.5845 6.93405 29.6117C7.12561 29.6637 7.31583 29.7188 7.50428 29.7805L6.92561 29.645L6.63628 29.5788C6.58783 29.5681 6.53983 29.5583 6.49139 29.5494C6.44294 29.5405 6.39183 29.5285 6.34472 29.5125C6.24916 29.4792 6.15939 29.4343 6.07228 29.3863C5.98517 29.3374 5.89983 29.2863 5.8185 29.229C5.6545 29.1165 5.49761 28.9943 5.34961 28.8619Z" fill="#040000"/>
<path d="M7.7207 28.6281C7.80115 28.7903 7.85404 28.9645 7.91226 29.1352C7.96826 29.3072 8.01893 29.4805 8.06915 29.6543C8.0927 29.7414 8.11581 29.8289 8.13715 29.9169C8.14781 29.9609 8.15848 30.0049 8.16737 30.0498C8.17626 30.0952 8.17981 30.1427 8.1767 30.1885C8.16737 30.3725 8.11581 30.5485 8.05048 30.7169C8.07493 30.6298 8.09715 30.5427 8.11315 30.4543C8.13048 30.3663 8.14293 30.2769 8.14248 30.1885C8.14293 30.1441 8.13804 30.1009 8.12959 30.0578C8.12026 30.0143 8.10915 29.9707 8.09804 29.9272C8.07537 29.8401 8.05093 29.7534 8.02648 29.6667C7.97981 29.4925 7.92915 29.3196 7.87981 29.1458C7.85581 29.0587 7.83004 28.9725 7.8047 28.8858C7.77893 28.7992 7.75448 28.7121 7.7207 28.6281Z" fill="#040000"/>
<path d="M6.93848 31.3263L7.15759 31.5045C7.23048 31.5641 7.30337 31.6236 7.37759 31.6814C7.52514 31.7974 7.6727 31.9152 7.83048 32.0147L7.88959 32.0507L7.95092 32.0818L8.07892 32.1418C8.16425 32.1823 8.25003 32.221 8.33448 32.2627L8.5887 32.3867C8.6727 32.4294 8.75759 32.4707 8.8407 32.5147C8.75314 32.4801 8.66648 32.4423 8.57937 32.4063L8.32025 32.2938C8.23359 32.257 8.14825 32.217 8.06248 32.1787L7.93359 32.1205L7.8687 32.0885L7.80692 32.0521C7.64781 31.9472 7.49981 31.8298 7.35625 31.7076C7.2127 31.5854 7.0727 31.4587 6.93848 31.3263Z" fill="#040000"/>
<path d="M6.75098 32.0045C6.8332 32.0761 6.91542 32.1476 6.99987 32.2161C7.08387 32.2854 7.16831 32.3543 7.25498 32.4192C7.34209 32.4841 7.42875 32.5494 7.51942 32.6085C7.6092 32.6685 7.70253 32.7241 7.80031 32.7681C7.84875 32.7921 7.89809 32.8085 7.95009 32.8236L8.10831 32.8641C8.21364 32.8912 8.31942 32.917 8.42475 32.9459L8.74031 33.0307C8.8452 33.0605 8.95053 33.089 9.05498 33.1201C8.94831 33.0987 8.84164 33.0743 8.73498 33.0516L8.41631 32.9787C8.30964 32.9552 8.20431 32.9281 8.09809 32.9027L7.93898 32.8641C7.88609 32.8494 7.83142 32.8321 7.78209 32.8081C7.68164 32.7614 7.58742 32.7036 7.4972 32.6419C7.40653 32.5805 7.31853 32.5152 7.23409 32.4454C7.06475 32.3076 6.90253 32.1614 6.75098 32.0045Z" fill="#040000"/>
</g>
<path d="M9.50293 34.5645C9.59271 34.6907 9.85537 35.5427 10.0345 36.4725C10.2749 37.717 10.5372 40.601 10.5372 40.601L10.8363 40.5796C10.8363 40.5796 10.3972 37.1534 10.2052 36.3156C10.0132 35.4778 9.60293 34.4827 9.60293 34.4827L9.50293 34.5645Z" fill="#F5C130"/>
<path d="M9.50293 34.5645C9.59271 34.6907 9.85537 35.5427 10.0345 36.4725C10.2749 37.717 10.5372 40.601 10.5372 40.601L10.8363 40.5796C10.8363 40.5796 10.3972 37.1534 10.2052 36.3156C10.0132 35.4778 9.60293 34.4827 9.60293 34.4827L9.50293 34.5645Z" fill="#CCD8DB"/>
<path d="M11.9242 36.6125C12.002 36.2107 12.0318 35.9876 11.9335 35.4725C11.8353 34.9574 11.5202 34.4316 11.7935 33.9698C12.0669 33.5081 12.698 33.1734 12.7984 32.8765C12.8989 32.5796 13.2073 31.7805 13.8815 31.1983C14.5558 30.6165 15.394 30.1903 15.8238 29.8089C16.2535 29.4276 16.7687 28.7503 17.0882 28.9561C17.4078 29.1618 16.9784 31.2409 16.7224 31.5001C16.4669 31.7592 16.1535 33.5494 15.7193 33.8703C15.2851 34.1912 14.878 34.2507 14.7807 34.3796C14.6833 34.5085 14.47 34.9352 14.1007 35.0992C13.7313 35.2627 12.8967 35.7343 12.506 36.0214C12.1158 36.3089 11.9242 36.6125 11.9242 36.6125Z" fill="#E1E9EB"/>
<g opacity="0.2">
<path d="M11.9248 36.6125C12.2555 35.9463 12.6132 35.2938 12.9946 34.6547C13.3746 34.0152 13.7844 33.3925 14.2266 32.7938C14.6692 32.1956 15.1301 31.6121 15.567 31.0107C15.7857 30.7103 16.0021 30.4081 16.2106 30.1005C16.4221 29.7947 16.627 29.4845 16.8301 29.1734C16.6332 29.4885 16.4346 29.8032 16.2288 30.113C16.0235 30.4232 15.8106 30.7281 15.595 31.0312C15.1626 31.637 14.7021 32.2214 14.2617 32.8201C14.0408 33.1187 13.8252 33.4214 13.6199 33.7312C13.4141 34.0405 13.2164 34.3552 13.0226 34.6721C12.8288 34.9894 12.6417 35.3103 12.4586 35.6338C12.2755 35.9565 12.0959 36.2823 11.9248 36.6125Z" fill="#040000"/>
<path d="M12.7568 35.0565C12.8679 34.996 12.9791 34.9356 13.0888 34.8734C13.1995 34.8125 13.3097 34.7512 13.4195 34.688C13.6391 34.5632 13.8591 34.4392 14.0759 34.3098C14.2946 34.1832 14.5115 34.0538 14.7275 33.9227L15.3755 33.5289C15.2719 33.6018 15.1679 33.6734 15.0631 33.744C14.9573 33.8134 14.8519 33.8836 14.7453 33.9512C14.5328 34.088 14.3155 34.2178 14.0982 34.3476C13.8791 34.4738 13.6591 34.5987 13.4355 34.7174C13.2124 34.8369 12.9871 34.952 12.7568 35.0565Z" fill="#040000"/>
<path d="M13.2746 32.0614C13.2608 32.1578 13.247 32.2538 13.2364 32.3503C13.2239 32.4463 13.2137 32.5427 13.2039 32.6392C13.1853 32.8321 13.1693 33.0254 13.1613 33.2187C13.1488 33.4121 13.1479 33.6058 13.1493 33.7996L13.1515 33.945L13.1581 34.0903C13.1595 34.1876 13.1715 34.2836 13.1764 34.381C13.1448 34.1894 13.1226 33.9952 13.115 33.801C13.1066 33.6063 13.1079 33.4116 13.1168 33.217C13.1284 33.0227 13.1439 32.8285 13.1701 32.6356C13.1964 32.4427 13.2288 32.2507 13.2746 32.0614Z" fill="#040000"/>
<path d="M14.1631 31.0734C14.1475 31.1601 14.1311 31.2463 14.1178 31.333C14.1027 31.4196 14.0889 31.5059 14.0764 31.593C14.0511 31.7663 14.0275 31.9401 14.0111 32.1143C13.992 32.2885 13.9818 32.4632 13.9747 32.6383C13.9738 32.7259 13.9702 32.8134 13.9738 32.901C13.9724 32.989 13.9813 33.0761 13.9849 33.1641C13.9547 32.9908 13.9427 32.8143 13.9404 32.6379C13.9404 32.4614 13.9511 32.2854 13.9667 32.1099C13.9867 31.9348 14.0102 31.7601 14.0427 31.5872C14.076 31.4143 14.1138 31.2423 14.1631 31.0734Z" fill="#040000"/>
<path d="M16.8509 30.7316C16.7802 30.7956 16.706 30.8547 16.6322 30.9147C16.5571 30.973 16.4811 31.0303 16.4042 31.0863C16.2504 31.1983 16.0909 31.3023 15.9295 31.4032C15.7669 31.5014 15.602 31.597 15.4322 31.6827C15.2633 31.7703 15.0895 31.8481 14.9131 31.9187C14.9966 31.8734 15.0829 31.8338 15.166 31.7876C15.25 31.7436 15.334 31.6996 15.4162 31.6525L15.6633 31.5125C15.7446 31.4636 15.8264 31.4161 15.9064 31.365C16.0691 31.2676 16.2273 31.1636 16.3846 31.0578C16.5424 30.953 16.698 30.8441 16.8509 30.7316Z" fill="#040000"/>
</g>
<path d="M11.9827 36.2578C11.6307 37.1418 11.4902 40.5325 11.4902 40.5325L11.6947 40.5178C11.6947 40.5178 11.8036 36.9085 12.1249 36.3627L11.9827 36.2578Z" fill="#E1E9EB"/>
<path d="M10.8838 33.1667C10.7718 32.672 10.5034 32.112 10.0136 31.6596C9.52383 31.2072 8.68116 30.5058 8.33139 29.0374C7.98205 27.5689 8.38739 26.1396 8.46294 25.7818C8.5385 25.424 8.73672 24.924 8.90116 24.8818C9.06561 24.8396 9.44383 25.0103 9.74916 25.0192C10.0545 25.0276 10.6612 24.984 11.2438 25.6738C11.8269 26.3636 12.5589 26.7983 13.0309 27.8467C13.5025 28.8947 13.5469 30.7814 12.8758 31.4089C12.2047 32.0365 11.5345 32.252 11.2518 32.5618C10.9692 32.8712 10.8838 33.1667 10.8838 33.1667Z" fill="#E1E9EB"/>
<g opacity="0.2">
<path d="M9.11133 25.0494C9.24911 25.1529 9.36244 25.2849 9.46555 25.4223C9.56866 25.56 9.66199 25.7049 9.75044 25.8525C9.92511 26.1489 10.0793 26.4569 10.2233 26.7694C10.3673 27.0818 10.498 27.4 10.6193 27.7223C10.6798 27.8832 10.7371 28.0454 10.7904 28.2094C10.8447 28.3729 10.8904 28.5396 10.9269 28.708C10.9993 29.0454 11.0478 29.3858 11.0904 29.7272C11.1322 30.0685 11.1669 30.4107 11.1887 30.7538C11.1998 30.9254 11.2091 31.0969 11.2113 31.2694C11.2162 31.4418 11.1984 31.6152 11.17 31.7845C11.1109 32.1236 11.0211 32.4565 10.9171 32.7836C11.014 32.4543 11.0967 32.12 11.1487 31.7809C11.2096 31.4423 11.1784 31.0983 11.1544 30.756C11.1273 30.4138 11.094 30.072 11.05 29.732C11.006 29.3916 10.9558 29.052 10.8829 28.7174C10.8473 28.5498 10.8029 28.3849 10.7496 28.2223C10.6971 28.0592 10.6402 27.8974 10.5807 27.7365C10.4616 27.4147 10.3304 27.0974 10.1918 26.7836C10.0522 26.4703 9.90155 26.1614 9.73133 25.8636C9.64644 25.7147 9.55666 25.5685 9.45666 25.4289C9.35666 25.2898 9.24644 25.156 9.11133 25.0494Z" fill="#040000"/>
<path d="M8.46289 27.4125C8.63267 27.5858 8.82067 27.7383 9.01534 27.8814C9.21045 28.024 9.41045 28.1596 9.61667 28.2863C9.82245 28.4134 10.0251 28.5463 10.2496 28.6334C10.3611 28.6791 10.4749 28.72 10.59 28.7574C10.7047 28.7965 10.8207 28.8311 10.9367 28.8654C10.6998 28.8147 10.4651 28.7498 10.2371 28.6649C10.1229 28.6236 10.0109 28.5707 9.906 28.5094C9.80067 28.4494 9.69622 28.3871 9.59311 28.3236C9.38822 28.1934 9.18645 28.0578 8.99489 27.9085C8.89889 27.8343 8.806 27.7556 8.71578 27.6747C8.62689 27.5916 8.54067 27.5058 8.46289 27.4125Z" fill="#040000"/>
<path d="M11.1288 25.7734C11.1435 25.9534 11.1488 26.1343 11.147 26.3152C11.1448 26.496 11.1359 26.6769 11.1119 26.8574C11.0999 26.9472 11.0799 27.0374 11.0515 27.1245C11.0226 27.2112 10.9875 27.2956 10.9444 27.3756C10.859 27.536 10.7559 27.6867 10.6328 27.8196C10.687 27.7476 10.7381 27.6734 10.7848 27.5965C10.8319 27.52 10.8755 27.4414 10.9137 27.3605C10.9515 27.2796 10.9866 27.1969 11.0133 27.112C11.0395 27.0272 11.0573 26.94 11.0679 26.8512C11.095 26.6743 11.1039 26.4943 11.1133 26.3143C11.1177 26.2245 11.1208 26.1343 11.1226 26.044C11.1261 25.9538 11.127 25.8636 11.1288 25.7734Z" fill="#040000"/>
<path d="M12.8182 28.0747C12.7867 28.22 12.7507 28.3645 12.7151 28.5089C12.6778 28.6529 12.6396 28.7969 12.5991 28.94C12.5182 29.2267 12.4294 29.5112 12.3276 29.7916C12.2729 29.9307 12.2187 30.0698 12.1471 30.2027C12.1298 30.236 12.1076 30.2676 12.088 30.3C12.0676 30.3316 12.0431 30.3605 12.0209 30.3907L11.9489 30.4769C11.9236 30.5045 11.8987 30.5325 11.8729 30.5592C11.6658 30.7747 11.4365 30.9672 11.1934 31.1387C11.3098 31.0458 11.4236 30.9503 11.5325 30.8494C11.6422 30.7494 11.7489 30.6458 11.848 30.536C11.9454 30.4254 12.0449 30.3129 12.112 30.184C12.1805 30.0538 12.2334 29.9147 12.2862 29.7765C12.3911 29.4992 12.4791 29.2147 12.5667 28.9312C12.6538 28.6467 12.7365 28.3609 12.8182 28.0747Z" fill="#040000"/>
<path d="M9.09766 29.7294L9.32432 30.0134C9.39943 30.108 9.47543 30.2027 9.55188 30.296C9.70477 30.4836 9.85766 30.6711 10.0181 30.8516C10.1759 31.0343 10.3417 31.2103 10.5252 31.3658C10.6168 31.444 10.7132 31.5165 10.8159 31.5792C10.9181 31.6423 11.0257 31.6996 11.143 31.7307C11.023 31.7094 10.9119 31.6551 10.8048 31.5978C10.6985 31.5378 10.5985 31.468 10.5034 31.392C10.3128 31.2396 10.1457 31.0618 9.98477 30.8805C9.82655 30.6965 9.67277 30.5089 9.52521 30.3169C9.37766 30.1249 9.23366 29.9294 9.09766 29.7294Z" fill="#040000"/>
<path d="M12.1979 28.7596C12.1499 28.9276 12.0939 29.0929 12.0352 29.2574C11.9765 29.4218 11.9112 29.584 11.8427 29.7445C11.8072 29.8245 11.769 29.9031 11.7285 29.9814C11.7072 30.02 11.6867 30.0587 11.6627 30.096L11.6263 30.1516L11.5819 30.2031C11.4547 30.3245 11.3121 30.4307 11.1543 30.5058C11.229 30.4605 11.2996 30.4098 11.3663 30.3547C11.4339 30.3005 11.4979 30.2418 11.5574 30.1791C11.6121 30.1169 11.6521 30.0378 11.6925 29.9627C11.7312 29.8854 11.7676 29.8062 11.8019 29.7267C11.8734 29.5685 11.9379 29.4067 12.0032 29.2454L12.1979 28.7596Z" fill="#040000"/>
</g>
<path d="M10.7314 40.5872L10.4482 40.6076C10.4482 40.6076 11.0394 34.2805 10.7882 32.8396L10.9758 32.9529C10.9762 32.9525 11.2985 37.4374 10.7314 40.5872Z" fill="#E1E9EB"/>
<path d="M13.2805 45.9182H9.10099L8.63477 39.5902H13.7463L13.2805 45.9182Z" fill="#E1E9EB"/>
<path d="M8.63477 39.5898L8.75699 41.2489H13.6241L13.7463 39.5898H8.63477Z" fill="#C1D4D8"/>
<path opacity="0.1" d="M13.2805 45.9182L10.2521 44.3991L9.12454 39.5902H8.63477L9.10099 45.9182H13.2805Z" fill="#040000"/>
</g>
</g>
</g>
<defs>
<clipPath id="clip0_1141_49280">
<rect width="48" height="48" rx="24" fill="white"/>
</clipPath>
<clipPath id="clip1_1141_49280">
<rect width="48" height="48" fill="white"/>
</clipPath>
</defs>
</svg>
