<svg width="48" height="48" viewBox="0 0 48 48" fill="none" xmlns="http://www.w3.org/2000/svg">
<g clip-path="url(#clip0_1141_49281)">
<rect width="48" height="48" rx="24" fill="white"/>
<g clip-path="url(#clip1_1141_49281)">
<path opacity="0.14" d="M14.1108 43.8165C8.87164 44.8511 8.87209 46.5285 14.1112 47.5631C19.3503 48.5978 27.8445 48.5978 33.0832 47.5631C38.3219 46.5285 38.3219 44.8511 33.0828 43.8165C27.8436 42.7818 19.3494 42.7818 14.1108 43.8165Z" fill="#6D8487"/>
<path opacity="0.14" d="M37.0742 20.064C36.9662 19.884 36.8537 19.7075 36.7364 19.5346C35.1724 17.2368 32.5693 15.6635 30.0391 14.9511C28.9306 14.6386 27.7924 14.4751 26.6564 14.4333C19.2048 14.1626 16.4675 20.3066 14.0666 21.8906C11.6657 23.4746 7.98172 26.1804 8.44394 31.8644C8.79461 36.1862 11.2533 40.3182 15.7435 42.1986C16.2382 42.4062 16.7577 42.5866 17.3017 42.7364C18.3137 43.0146 19.4106 43.1897 20.5928 43.2422C23.9875 43.3933 26.7439 42.5751 29.4404 40.5146C30.0671 40.0355 30.6906 39.4955 31.5039 39.436C32.0951 39.3929 32.6555 39.6053 32.0377 40.1768C31.3115 40.8484 32.1493 42.1693 33.9933 41.2515C37.0724 39.7191 38.3391 36.4124 38.9359 33.0502C39.6675 28.9231 39.3124 23.7906 37.0742 20.064Z" fill="#6D8487"/>
<path d="M34.2222 23.056C34.212 23.0497 34.3471 22.8084 34.524 22.5173C34.7009 22.2257 34.8524 21.9951 34.8627 22.0008C34.8729 22.0071 34.7378 22.248 34.5609 22.5395C34.3844 22.8311 34.2324 23.0622 34.2222 23.056Z" fill="#E0E0E0"/>
<path d="M38.4047 10.8134C38.2989 10.5142 37.9967 10.2951 37.6793 10.288C37.7487 9.94847 37.6069 9.57514 37.3304 9.36714C37.054 9.15869 36.6558 9.1258 36.3487 9.28625C36.1504 8.77692 35.6331 8.40892 35.0869 8.38803C34.5407 8.36714 33.9971 8.69558 33.7607 9.18803C33.6487 9.15869 33.6011 9.20403 33.4869 9.22447C33.1544 9.28447 32.8749 9.57069 32.8233 9.90492C32.5593 9.82625 32.262 9.83692 32.0211 9.97069C31.7802 10.1045 31.6087 10.3711 31.6229 10.6467C31.6371 10.9218 31.8602 11.1818 32.1349 11.2054C31.8736 11.6494 32.0233 12.2871 32.4553 12.568C32.8873 12.8489 33.5313 12.7271 33.8309 12.308C33.9989 12.7134 34.4411 12.9862 34.8789 12.9578C35.3167 12.9294 35.7189 12.6036 35.8398 12.1818C35.9878 12.5102 36.3931 12.6974 36.7393 12.5978C37.0856 12.4982 37.3291 12.124 37.2798 11.7671C37.558 11.9205 37.9287 11.8831 38.1709 11.6778C38.4136 11.4725 38.5109 11.1125 38.4047 10.8134Z" fill="#EBEBEB"/>
<path d="M41.9708 15.3418C41.893 15.1222 41.6717 14.9622 41.4392 14.9569C41.4899 14.708 41.3864 14.4347 41.1837 14.2818C40.981 14.1289 40.6895 14.1049 40.4641 14.2227C40.3188 13.8493 39.9397 13.5796 39.5392 13.5645C39.1388 13.5493 38.7406 13.7898 38.5672 14.1507C38.4855 14.1293 38.4504 14.1622 38.3668 14.1773C38.1232 14.2213 37.9184 14.4311 37.8806 14.676C37.6872 14.6182 37.469 14.6262 37.2926 14.7245C37.1161 14.8227 36.9904 15.0182 37.0006 15.2196C37.0112 15.4213 37.1744 15.612 37.3757 15.6289C37.1841 15.9542 37.2939 16.4218 37.6108 16.6276C37.9272 16.8333 38.3992 16.744 38.6188 16.4369C38.7419 16.7338 39.0659 16.9338 39.3868 16.9133C39.7077 16.8925 40.0024 16.6538 40.0912 16.3449C40.1997 16.5853 40.497 16.7227 40.7504 16.6498C41.0041 16.5769 41.1824 16.3022 41.1464 16.0409C41.3499 16.1533 41.6219 16.1258 41.7992 15.9756C41.9775 15.8249 42.0486 15.5613 41.9708 15.3418Z" fill="#F5F5F5"/>
<path d="M12.0401 15.624C11.9624 15.4049 11.741 15.2445 11.5086 15.2391C11.5593 14.9902 11.4557 14.7169 11.253 14.564C11.0504 14.4111 10.7588 14.3871 10.5335 14.5049C10.3881 14.1316 10.009 13.8618 9.60858 13.8467C9.20814 13.8316 8.80992 14.072 8.63658 14.4329C8.55481 14.4116 8.51969 14.4445 8.43614 14.4596C8.19258 14.5036 7.98769 14.7133 7.94992 14.9582C7.75658 14.9005 7.53836 14.9085 7.36192 15.0067C7.18547 15.1049 7.05969 15.3005 7.06992 15.5018C7.08058 15.7036 7.24369 15.8942 7.44503 15.9111C7.25347 16.2365 7.36325 16.704 7.67969 16.9098C7.99614 17.1156 8.46814 17.0262 8.68769 16.7191C8.81081 17.016 9.13481 17.216 9.45569 17.1956C9.77658 17.1747 10.0713 16.936 10.1601 16.6271C10.2686 16.8676 10.5659 17.0049 10.8193 16.932C11.073 16.8591 11.2513 16.5845 11.2153 16.3231C11.4188 16.4356 11.6908 16.408 11.8681 16.2578C12.0464 16.1071 12.1175 15.8431 12.0401 15.624Z" fill="#F5F5F5"/>
<path d="M25.2711 11.2973C25.0866 10.776 24.5604 10.3947 24.0071 10.3818C24.1275 9.79068 23.8813 9.14001 23.3991 8.7769C22.9168 8.41379 22.2235 8.3569 21.6888 8.63601C21.3435 7.74845 20.4417 7.10712 19.4902 7.07068C18.5386 7.03423 17.5911 7.60623 17.1795 8.4649C16.9844 8.41379 16.9013 8.4929 16.7026 8.5289C16.1231 8.63334 15.6364 9.13245 15.5462 9.71423C15.0862 9.5769 14.568 9.59557 14.1484 9.8289C13.7288 10.0622 13.4293 10.5271 13.4546 11.0067C13.48 11.4862 13.868 11.9396 14.3466 11.98C13.8911 12.7538 14.1524 13.8653 14.9053 14.3547C15.6582 14.844 16.78 14.632 17.3022 13.9013C17.5951 14.6076 18.3653 15.0831 19.128 15.0338C19.8906 14.9845 20.5915 14.4165 20.8026 13.6818C21.0608 14.2538 21.7671 14.5805 22.3702 14.4067C22.9733 14.2329 23.3977 13.5809 23.312 12.9591C23.7964 13.2262 24.4431 13.1613 24.8648 12.8036C25.2862 12.4462 25.4555 11.8187 25.2711 11.2973Z" fill="#EBEBEB"/>
<g opacity="0.57">
<path d="M16.315 18.8822C16.3048 18.876 16.4399 18.6347 16.6168 18.3436C16.7937 18.052 16.9452 17.8214 16.9554 17.8271C16.9657 17.8334 16.8306 18.0742 16.6537 18.3658C16.4768 18.6574 16.3252 18.8885 16.315 18.8822Z" fill="#91A7AF"/>
<path d="M18.8931 21.1129C18.8829 21.1067 19.018 20.8653 19.1949 20.5742C19.3718 20.2827 19.5233 20.052 19.5336 20.0578C19.5438 20.064 19.4087 20.3049 19.2318 20.5965C19.0549 20.888 18.9033 21.1191 18.8931 21.1129Z" fill="#91A7AF"/>
<path d="M16.19 22.8152C16.1798 22.8089 16.3149 22.5676 16.4918 22.2765C16.6687 21.9849 16.8202 21.7543 16.8304 21.7601C16.8407 21.7663 16.7056 22.0072 16.5287 22.2987C16.3522 22.5903 16.2002 22.8214 16.19 22.8152Z" fill="#91A7AF"/>
<path d="M12.567 29.792C12.5567 29.7858 12.6918 29.5445 12.8687 29.2534C13.0456 28.9618 13.1972 28.7311 13.2074 28.7369C13.2176 28.7431 13.0825 28.984 12.9056 29.2756C12.7287 29.5671 12.5772 29.7983 12.567 29.792Z" fill="#91A7AF"/>
<path d="M24.4683 41.1645C24.4581 41.1582 24.5932 40.9169 24.7701 40.6258C24.947 40.3342 25.0985 40.1036 25.1088 40.1094C25.119 40.1156 24.9839 40.3565 24.807 40.648C24.6301 40.9396 24.4785 41.1707 24.4683 41.1645Z" fill="#91A7AF"/>
<path d="M31.3384 18.3285C31.3282 18.3223 31.4633 18.0809 31.6402 17.7898C31.8171 17.4982 31.9687 17.2676 31.9789 17.2734C31.9891 17.2796 31.854 17.5205 31.6771 17.812C31.5002 18.1036 31.3487 18.3347 31.3384 18.3285Z" fill="#91A7AF"/>
<path d="M35.5328 18.5173C35.5225 18.5111 35.6577 18.2698 35.8345 17.9786C36.0114 17.6871 36.163 17.4564 36.1732 17.4622C36.1834 17.4684 36.0483 17.7093 35.8714 18.0009C35.6946 18.2924 35.543 18.5235 35.5328 18.5173Z" fill="#91A7AF"/>
<path d="M31.9625 22.432C31.9522 22.4258 32.0873 22.1845 32.2642 21.8934C32.4411 21.6018 32.5927 21.3712 32.6029 21.3769C32.6131 21.3832 32.478 21.624 32.3011 21.9156C32.1242 22.2067 31.9727 22.4378 31.9625 22.432Z" fill="#91A7AF"/>
<path d="M33.6421 27.2431C33.6319 27.2369 33.767 26.9956 33.9439 26.7045C34.1208 26.4129 34.2724 26.1823 34.2826 26.188C34.2928 26.1943 34.1577 26.4351 33.9808 26.7267C33.8039 27.0178 33.6524 27.2494 33.6421 27.2431Z" fill="#91A7AF"/>
<path d="M33.9019 32.7996C33.8917 32.7934 34.0268 32.552 34.2037 32.2609C34.3806 31.9698 34.5321 31.7387 34.5424 31.7445C34.5526 31.7507 34.4175 31.9916 34.2406 32.2832C34.0637 32.5747 33.9121 32.8058 33.9019 32.7996Z" fill="#91A7AF"/>
<path d="M8.89605 40.2102C8.88583 40.204 9.02094 39.9627 9.19783 39.6716C9.37472 39.38 9.52627 39.1494 9.5365 39.1551C9.54672 39.1614 9.41161 39.4022 9.23472 39.6938C9.05783 39.9849 8.90627 40.216 8.89605 40.2102Z" fill="#91A7AF"/>
<path d="M12.188 25.8458C12.1778 25.8396 12.3129 25.5982 12.4898 25.3071C12.6667 25.0156 12.8183 24.7849 12.8285 24.7907C12.8387 24.7969 12.7036 25.0378 12.5267 25.3294C12.3503 25.6209 12.1983 25.852 12.188 25.8458Z" fill="#91A7AF"/>
<path d="M16.7105 26.9369C16.7003 26.9307 16.8354 26.6894 17.0123 26.3983C17.1892 26.1067 17.3407 25.876 17.3509 25.8818C17.3612 25.888 17.2261 26.1289 17.0492 26.4205C16.8723 26.712 16.7207 26.9432 16.7105 26.9369Z" fill="#91A7AF"/>
<path d="M11.939 34.7902C11.9288 34.784 12.0639 34.5426 12.2408 34.2515C12.4177 33.96 12.5692 33.7293 12.5795 33.7351C12.5897 33.7413 12.4546 33.9822 12.2777 34.2738C12.1008 34.5653 11.9492 34.7964 11.939 34.7902Z" fill="#91A7AF"/>
<path d="M25.1998 36.8733C25.1895 36.8671 25.3247 36.6258 25.5015 36.3347C25.6784 36.0431 25.83 35.8124 25.8402 35.8182C25.8504 35.8244 25.7153 36.0653 25.5384 36.3569C25.3615 36.6484 25.2095 36.8796 25.1998 36.8733Z" fill="#91A7AF"/>
<path d="M28.0123 39.3392C28.002 39.3329 28.1372 39.0916 28.314 38.8005C28.4909 38.5089 28.6425 38.2783 28.6527 38.284C28.6629 38.2903 28.5278 38.5312 28.3509 38.8227C28.174 39.1138 28.0225 39.3449 28.0123 39.3392Z" fill="#91A7AF"/>
<path d="M27.3961 25.3849C27.3858 25.3787 27.5209 25.1374 27.6978 24.8463C27.8747 24.5547 28.0263 24.324 28.0365 24.3298C28.0467 24.336 27.9116 24.5769 27.7347 24.8685C27.5578 25.16 27.4063 25.3912 27.3961 25.3849Z" fill="#91A7AF"/>
</g>
<path d="M31.2989 27.032L13.0469 26.8436L18.9882 17.3951L37.2402 17.584L31.2989 27.032Z" fill="#6C99AF"/>
<path opacity="0.15" d="M31.2989 27.032L13.0469 26.8436L18.9882 17.3951L37.2402 17.584L31.2989 27.032Z" fill="#040000"/>
<path d="M22.2958 26.7418L22.1593 26.5089C21.9913 26.2218 20.9607 25.6943 20.0651 25.6849L12.8145 25.6107L13.4358 26.6498L22.2958 26.7418Z" fill="#F5F5F5"/>
<path d="M12.8145 25.6107L20.0651 25.6854C20.9607 25.6938 21.9913 26.2223 22.1593 26.5085L22.2953 26.7418L27.9784 17.7045H27.9789L27.8424 17.4716C27.6744 17.1845 26.6438 16.6569 25.7482 16.6476L18.5011 16.5734L18.4976 16.5729L12.8145 25.6107Z" fill="#FBFBFB"/>
<path d="M12.8145 25.6107L20.0651 25.6854C20.9607 25.6938 21.9913 26.2223 22.1593 26.5085L22.2953 26.7418L27.9784 17.7045H27.9789L27.8424 17.4716C27.6744 17.1845 26.6438 16.6569 25.7482 16.6476L18.4976 16.5729L12.8145 25.6107Z" fill="#FBFBFB"/>
<path d="M22.1693 26.5254L22.5226 25.9618L22.9884 25.2196C22.5769 25.3827 22.3355 25.5832 22.2075 25.7863C22.0369 26.0552 22.0693 26.3289 22.1693 26.5254Z" fill="#F0F0F0"/>
<path d="M22.1693 26.5254L22.5226 25.9618L22.9884 25.2196C22.5769 25.3827 22.3355 25.5832 22.2075 25.7863C22.0369 26.0552 22.0693 26.3289 22.1693 26.5254Z" fill="#E0E0E0"/>
<path d="M31.4264 27.2489L31.2988 27.032L37.2402 17.584L37.3686 17.7987L31.4264 27.2489Z" fill="#6C99AF"/>
<path opacity="0.3" d="M31.4264 27.2489L31.2988 27.032L37.2402 17.584L37.3686 17.7987L31.4264 27.2489Z" fill="#040000"/>
<path d="M31.4264 27.2489L13.174 27.0605L13.0469 26.8436L31.2989 27.032L31.4264 27.2489Z" fill="#6C99AF"/>
<path d="M22.1696 26.5253C22.0016 26.2382 22.4132 25.7067 23.3087 25.7133L30.5434 25.7658L31.1816 26.8333L22.2967 26.7418C22.2963 26.7418 22.3381 26.8124 22.1696 26.5253Z" fill="#F5F5F5"/>
<path d="M31.1817 26.8334L30.5439 25.7658L36.2266 16.728L36.8648 17.796L31.1817 26.8334Z" fill="#EBEBEB"/>
<path d="M23.3088 25.7138L23.6328 25.716L30.5434 25.7658L35.5634 17.7827L36.2265 16.7285L28.9919 16.6765C28.3354 16.6716 28.071 16.8401 27.9381 17.0472L22.1768 26.2085C22.3874 25.8814 22.767 25.7249 23.3088 25.7138Z" fill="#FBFBFB"/>
<path d="M30.446 24.7582L24.274 24.696L23.95 24.6942L23.8291 24.8867L24.1531 24.8884L30.3251 24.9507L30.446 24.7582Z" fill="#E0E0E0"/>
<path d="M30.737 24.2965L24.5655 24.2343L24.2415 24.2325L24.1201 24.4249L24.4446 24.4267L30.6161 24.4889L30.737 24.2965Z" fill="#E0E0E0"/>
<path d="M31.027 23.8347L24.855 23.7725L24.531 23.7703L24.4102 23.9627L24.7342 23.9649L30.9057 24.0272L31.027 23.8347Z" fill="#E0E0E0"/>
<path d="M31.3171 23.3729L25.1455 23.3107L24.8215 23.3085L24.7002 23.5009L25.0242 23.5031L31.1962 23.5654L31.3171 23.3729Z" fill="#E0E0E0"/>
<path d="M31.6077 22.9111L25.4361 22.8489L25.1121 22.8467L24.9912 23.0391L25.3152 23.0413L31.4868 23.1036L31.6077 22.9111Z" fill="#E0E0E0"/>
<path d="M31.8981 22.4493L25.7266 22.3871L25.4026 22.3849L25.2812 22.5773L25.6052 22.5796L31.7772 22.6418L31.8981 22.4493Z" fill="#E0E0E0"/>
<path d="M32.1887 21.9871L26.0172 21.9253L25.6932 21.9231L25.5723 22.1155L25.8963 22.1173L32.0678 22.1795L32.1887 21.9871Z" fill="#E0E0E0"/>
<path d="M32.4792 21.5254L26.3076 21.4631L25.9832 21.4614L25.8623 21.6538L26.1863 21.6556L32.3583 21.7178L32.4792 21.5254Z" fill="#E0E0E0"/>
<path d="M32.7698 21.0636L26.5982 21.0014L26.2742 20.9996L26.1533 21.192L26.4773 21.1938L32.6489 21.256L32.7698 21.0636Z" fill="#E0E0E0"/>
<path d="M33.0602 20.6018L26.8887 20.5396L26.5642 20.5374L26.4434 20.7298L26.7674 20.732L32.9389 20.7942L33.0602 20.6018Z" fill="#E0E0E0"/>
<path d="M33.3503 20.14L27.1787 20.0778L26.8547 20.0756L26.7334 20.268L27.0578 20.2702L33.2294 20.3325L33.3503 20.14Z" fill="#E0E0E0"/>
<path d="M33.6413 19.6782L27.4693 19.616L27.1453 19.6138L27.0244 19.8062L27.3484 19.8084L33.52 19.8707L33.6413 19.6782Z" fill="#E0E0E0"/>
<path d="M33.9313 19.216L27.7598 19.1538L27.4358 19.152L27.3145 19.3444L27.6389 19.3466L33.8105 19.4089L33.9313 19.216Z" fill="#E0E0E0"/>
<path d="M34.2209 18.7542L28.0494 18.692L27.7254 18.6902L27.6045 18.8827L27.9285 18.8845L34.1 18.9467L34.2209 18.7542Z" fill="#E0E0E0"/>
<path d="M34.5114 18.2925L28.3399 18.2302L28.0159 18.2285L27.8945 18.4209L28.2185 18.4227L34.3905 18.4849L34.5114 18.2925Z" fill="#E0E0E0"/>
<path d="M34.802 17.8307L28.6304 17.7685L28.3064 17.7662L28.1855 17.9587L28.5095 17.9609L34.6811 18.0231L34.802 17.8307Z" fill="#E0E0E0"/>
<path d="M35.0925 17.3689L28.9209 17.3067L28.5965 17.3044L28.4756 17.4969L28.7996 17.4991L34.9716 17.5613L35.0925 17.3689Z" fill="#E0E0E0"/>
<path opacity="0.1" d="M23.0914 25.4649C23.1981 25.4205 23.4514 25.3716 23.5843 25.3343C24.1448 25.176 25.2479 25.088 26.3248 25.0392C27.7643 24.9734 29.1599 24.9778 29.1599 24.9778L34.3621 16.7143L28.9923 16.6756C28.7279 16.6734 28.5279 16.7 28.3736 16.7454C28.243 16.8463 28.1523 16.9485 28.0905 17.0454L27.983 16.9854C27.967 17.0054 27.9519 17.0254 27.9385 17.0463L22.1768 26.2085C22.5008 25.6938 22.7443 25.6098 23.0914 25.4649Z" fill="#040000"/>
<path d="M30.688 25.9951L29.6143 26.0387L30.7285 26.0756L31.2911 25.1805L30.688 25.9951Z" fill="#E6E6E5"/>
<path d="M31.0007 26.5329L28.9727 26.512L30.9669 26.4769L32.1633 24.6844L31.0007 26.5329Z" fill="#E6E6E5"/>
<path d="M36.3673 16.9636L35.5166 18.3773L36.4344 17.076L36.3673 16.9636Z" fill="#E6E6E5"/>
<path d="M36.6141 17.3818L35.3604 19.4947L36.675 17.4796L36.6141 17.3818Z" fill="#E6E6E5"/>
<path d="M22.9879 25.2192C23.0955 25.176 23.215 25.1352 23.3479 25.0983C23.9084 24.94 25.0115 24.852 26.0884 24.8032C27.5279 24.7374 28.9235 24.7418 28.9235 24.7418L34.6128 15.7045C34.6128 15.7045 30.3697 15.6658 28.9755 16.1032C28.3213 16.3085 28.0039 16.5752 27.8541 16.8098L27.8524 16.8089L22.207 25.7858C22.335 25.5827 22.5764 25.3827 22.9879 25.2192Z" fill="#F5F5F5"/>
<path d="M22.853 24.7596C22.981 24.5565 23.2223 24.356 23.6339 24.1929C23.7414 24.1498 23.8614 24.1089 23.9939 24.072C24.3667 23.9667 24.9805 23.8929 25.6663 23.8405C26.0112 23.8143 26.3743 23.7934 26.7347 23.7769C27.601 23.7374 28.4512 23.7232 28.9907 23.7183L28.8614 23.9236C28.3214 23.9285 27.4716 23.9427 26.6054 23.9823C26.245 23.9987 25.8819 24.0196 25.537 24.0458C24.8512 24.0978 24.2374 24.172 23.8645 24.2774C23.7316 24.3147 23.6121 24.3556 23.5045 24.3983C23.093 24.5614 22.8516 24.7614 22.7236 24.9649L22.853 24.7596Z" fill="#E0E0E0"/>
<path d="M23.1435 24.2969C23.2715 24.0938 23.5129 23.8933 23.9244 23.7302C24.032 23.6871 24.1515 23.6467 24.2844 23.6093C24.6573 23.504 25.2711 23.4302 25.9569 23.3778C26.3018 23.3516 26.6649 23.3307 27.0253 23.3142C27.8915 23.2747 28.7418 23.2604 29.2818 23.2556L29.1524 23.4609C28.6124 23.4658 27.7626 23.48 26.8964 23.5196C26.536 23.536 26.1729 23.5569 25.828 23.5831C25.1422 23.6351 24.5284 23.7093 24.1555 23.8147C24.0226 23.852 23.9031 23.8929 23.7955 23.9356C23.384 24.0987 23.1426 24.2991 23.0146 24.5022L23.1435 24.2969Z" fill="#E0E0E0"/>
<path d="M23.435 23.8342C23.563 23.6311 23.8043 23.4311 24.2159 23.2676C24.3234 23.2245 24.443 23.1836 24.5759 23.1467C24.9488 23.0414 25.5626 22.9676 26.2483 22.9151C26.5932 22.8889 26.9563 22.868 27.3168 22.8516C28.183 22.812 29.0332 22.7978 29.5728 22.7929L29.4434 22.9982C28.9034 23.0031 28.0537 23.0174 27.1874 23.0569C26.827 23.0734 26.4639 23.0942 26.119 23.1205C25.4332 23.1725 24.8194 23.2467 24.4466 23.352C24.3137 23.3894 24.1941 23.4298 24.0866 23.4729C23.675 23.636 23.4337 23.8365 23.3057 24.0396L23.435 23.8342Z" fill="#E0E0E0"/>
<path d="M23.726 23.3716C23.8536 23.1685 24.0953 22.968 24.5069 22.8049C24.6145 22.7618 24.734 22.7209 24.8669 22.684C25.2398 22.5787 25.8536 22.5049 26.5393 22.4525C26.8842 22.4263 27.2473 22.4054 27.6078 22.3889C28.474 22.3494 29.3242 22.3352 29.8638 22.3303L29.7345 22.5356C29.1945 22.5405 28.3447 22.5547 27.4785 22.5943C27.118 22.6107 26.7549 22.6316 26.41 22.6578C25.7242 22.7098 25.1109 22.784 24.7376 22.8894C24.6047 22.9267 24.4851 22.9676 24.3776 23.0103C23.966 23.1734 23.7242 23.3734 23.5967 23.5769L23.726 23.3716Z" fill="#E0E0E0"/>
<path d="M24.017 22.9089C24.1446 22.7058 24.3864 22.5058 24.7979 22.3423C24.9055 22.2992 25.0255 22.2583 25.1579 22.2214C25.5308 22.1161 26.1446 22.0423 26.8304 21.9898C27.1753 21.9636 27.5384 21.9427 27.8988 21.9263C28.765 21.8867 29.6153 21.8725 30.1548 21.8676L30.0255 22.0729C29.4855 22.0778 28.6357 22.0921 27.7695 22.1316C27.409 22.1481 27.0459 22.1689 26.701 22.1952C26.0153 22.2476 25.4015 22.3214 25.0286 22.4267C24.8957 22.4641 24.7761 22.5049 24.6686 22.5476C24.257 22.7107 24.0157 22.9112 23.8877 23.1143L24.017 22.9089Z" fill="#E0E0E0"/>
<path d="M24.308 22.4462C24.436 22.2431 24.6774 22.0431 25.0889 21.8796C25.1965 21.8365 25.3165 21.7956 25.4489 21.7587C25.8218 21.6534 26.4356 21.5796 27.1214 21.5271C27.4663 21.5009 27.8294 21.48 28.1898 21.4636C29.056 21.424 29.9063 21.4098 30.4458 21.4049L30.3165 21.6102C29.7765 21.6151 28.9267 21.6294 28.0605 21.6689C27.7 21.6854 27.3374 21.7062 26.992 21.7325C26.3063 21.7845 25.6929 21.8587 25.3196 21.964C25.1872 22.0014 25.0672 22.0422 24.9596 22.0849C24.548 22.248 24.3067 22.448 24.1787 22.6516L24.308 22.4462Z" fill="#E0E0E0"/>
<path d="M24.5981 21.9836C24.7256 21.7805 24.9674 21.5805 25.379 21.4169C25.4865 21.3738 25.6061 21.3334 25.739 21.296C26.1119 21.1907 26.7256 21.1169 27.4114 21.0645C27.7563 21.0383 28.1194 21.0174 28.4799 21.0009C29.3461 20.9614 30.1963 20.9471 30.7359 20.9423L30.6065 21.1476C30.0665 21.1525 29.2168 21.1667 28.3505 21.2063C27.9901 21.2227 27.627 21.2436 27.2821 21.2698C26.5963 21.3218 25.983 21.396 25.6096 21.5014C25.4767 21.5387 25.3572 21.5796 25.2496 21.6223C24.8381 21.7854 24.5963 21.9858 24.4688 22.1889L24.5981 21.9836Z" fill="#E0E0E0"/>
<path d="M24.8891 21.5209C25.0167 21.3178 25.2584 21.1174 25.67 20.9543C25.7775 20.9112 25.8971 20.8703 26.03 20.8334C26.4029 20.7281 27.0167 20.6543 27.7024 20.6018C28.0473 20.5756 28.4104 20.5547 28.7709 20.5383C29.6371 20.4987 30.4873 20.4845 31.0269 20.4796L30.898 20.6849C30.358 20.6898 29.5082 20.7041 28.6415 20.7436C28.2811 20.7601 27.9184 20.7809 27.5731 20.8072C26.8873 20.8592 26.274 20.9334 25.9007 21.0387C25.7678 21.0761 25.6482 21.1169 25.5407 21.1596C25.1291 21.3227 24.8878 21.5227 24.7598 21.7263L24.8891 21.5209Z" fill="#E0E0E0"/>
<path d="M25.8332 20.6969C25.9407 20.6538 26.0607 20.6129 26.1932 20.5761C26.7536 20.4178 27.8567 20.3298 28.9336 20.2814C29.7998 20.2418 30.6501 20.2276 31.1896 20.2227L31.319 20.0174C30.779 20.0223 29.9292 20.0365 29.063 20.0761C27.9856 20.1249 26.883 20.2125 26.3225 20.3712C26.1896 20.4085 26.0701 20.449 25.9625 20.4921C25.551 20.6552 25.3092 20.8556 25.1816 21.0587L25.0527 21.2641C25.1798 21.0605 25.4212 20.8601 25.8332 20.6969Z" fill="#E0E0E0"/>
<path d="M26.1232 20.2343C26.2308 20.1912 26.3503 20.1503 26.4832 20.1134C27.0437 19.9552 28.1468 19.8672 29.2237 19.8183C30.0899 19.7788 30.9401 19.7645 31.4801 19.7597L31.6094 19.5543C31.0694 19.5592 30.2197 19.5734 29.3534 19.613C28.2761 19.6619 27.1734 19.7494 26.613 19.9081C26.4805 19.9454 26.3606 19.9863 26.253 20.029C25.8414 20.1921 25.5997 20.3925 25.4721 20.5957L25.3428 20.801C25.4703 20.5979 25.7117 20.3979 26.1232 20.2343Z" fill="#E0E0E0"/>
<path d="M26.4147 19.7716C26.5222 19.7284 26.6418 19.6876 26.7747 19.6507C27.3351 19.4924 28.4382 19.4044 29.5151 19.3556C30.3813 19.316 31.2316 19.3018 31.7711 19.2969L31.9005 19.0916C31.3605 19.0964 30.5107 19.1107 29.6445 19.1502C28.5671 19.1991 27.4645 19.2867 26.904 19.4449C26.7711 19.4822 26.6516 19.5231 26.544 19.5658C26.1325 19.7289 25.8911 19.9293 25.7631 20.1324L25.6338 20.3378C25.7613 20.1351 26.0027 19.9347 26.4147 19.7716Z" fill="#E0E0E0"/>
<path d="M26.7057 19.309C26.8132 19.2658 26.9333 19.225 27.0657 19.1881C27.6261 19.0298 28.7292 18.9423 29.8061 18.8934C30.6724 18.8538 31.5226 18.8396 32.0621 18.8347L32.1915 18.6294C31.6515 18.6343 30.8017 18.6485 29.9355 18.6881C28.8581 18.737 27.7555 18.8245 27.1946 18.9832C27.0617 19.0205 26.9421 19.0614 26.8346 19.1041C26.423 19.2672 26.1817 19.4676 26.0537 19.6707L25.9248 19.8761C26.0528 19.6725 26.2941 19.4725 26.7057 19.309Z" fill="#E0E0E0"/>
<path d="M26.9958 18.8463C27.1034 18.8031 27.2229 18.7623 27.3558 18.7254C27.9163 18.5671 29.0194 18.4791 30.0967 18.4303C30.9629 18.3907 31.8132 18.3765 32.3532 18.3716L32.4825 18.1663C31.9425 18.1711 31.0927 18.1854 30.2265 18.2249C29.1492 18.2738 28.0465 18.3618 27.486 18.52C27.3532 18.5574 27.2336 18.5983 27.126 18.6409C26.7145 18.804 26.4727 19.0045 26.3452 19.2076L26.2158 19.4129C26.3429 19.2098 26.5843 19.0098 26.9958 18.8463Z" fill="#E0E0E0"/>
<path d="M27.2858 18.3836C27.3933 18.3405 27.5129 18.2996 27.6458 18.2627C28.2062 18.1045 29.3093 18.0165 30.3867 17.968C31.2529 17.9285 32.1031 17.9143 32.6427 17.9094L32.772 17.704C32.232 17.7089 31.3822 17.7232 30.516 17.7627C29.4387 17.8116 28.336 17.8992 27.7751 18.0578C27.6422 18.0952 27.5227 18.1356 27.4151 18.1787C27.0035 18.3418 26.7622 18.5423 26.6342 18.7454L26.5049 18.9507C26.6324 18.7472 26.8738 18.5472 27.2858 18.3836Z" fill="#E0E0E0"/>
<path d="M27.5768 17.921C27.6843 17.8779 27.8039 17.837 27.9368 17.8001C28.4972 17.6419 29.6003 17.5539 30.6772 17.505C31.5435 17.4654 32.3937 17.4512 32.9332 17.4463L33.0626 17.241C32.5226 17.2459 31.6728 17.2601 30.8066 17.2996C29.7292 17.3485 28.6266 17.4361 28.0661 17.5947C27.9332 17.6321 27.8137 17.673 27.7061 17.7156C27.2946 17.8787 27.0532 18.0792 26.9252 18.2823L26.7959 18.4876C26.9239 18.2845 27.1652 18.0845 27.5768 17.921Z" fill="#E0E0E0"/>
<path d="M27.8683 17.4587C27.9759 17.4156 28.0954 17.3747 28.2283 17.3378C28.7888 17.1796 29.8919 17.0916 30.9692 17.0427C31.8354 17.0031 32.6857 16.9889 33.2252 16.984L33.3546 16.7787C32.8146 16.7836 31.9648 16.7978 31.0986 16.8374C30.0212 16.8862 28.9186 16.9738 28.3581 17.1325C28.2252 17.1698 28.1057 17.2107 27.9981 17.2534C27.5866 17.4165 27.3452 17.6169 27.2172 17.82L27.0879 18.0254C27.215 17.8218 27.4568 17.6218 27.8683 17.4587Z" fill="#E0E0E0"/>
<path d="M28.1598 16.996C28.2674 16.9529 28.3869 16.912 28.5198 16.8752C29.0802 16.7169 30.1833 16.6289 31.2602 16.58C32.1265 16.5405 32.9767 16.5263 33.5162 16.5214L33.6456 16.316C33.106 16.3209 32.2558 16.3352 31.3896 16.3747C30.3122 16.4236 29.2096 16.5116 28.6491 16.6698C28.5162 16.7072 28.3967 16.748 28.2891 16.7907C27.8776 16.9538 27.6362 17.1543 27.5082 17.3574L27.3789 17.5627C27.5069 17.3592 27.7482 17.1592 28.1598 16.996Z" fill="#E0E0E0"/>
<path d="M20.5972 24.84C20.9323 24.8431 21.2861 24.9191 21.607 25.028L21.7252 24.84C21.4048 24.7311 21.0505 24.6551 20.7154 24.652L14.2208 24.5911L14.1025 24.7791L20.5972 24.84Z" fill="#E0E0E0"/>
<path d="M20.5972 24.84C20.9323 24.8431 21.2861 24.9191 21.607 25.028L21.7252 24.84C21.4048 24.7311 21.0505 24.6551 20.7154 24.652L14.2208 24.5911L14.1025 24.7791L20.5972 24.84Z" fill="#E0E0E0"/>
<path d="M20.8882 24.3778C21.2233 24.3809 21.5771 24.4569 21.898 24.5658L22.0162 24.3778C21.6958 24.2689 21.3416 24.1929 21.0064 24.1898L14.5118 24.1289L14.3936 24.3169L20.8882 24.3778Z" fill="#E0E0E0"/>
<path d="M21.1783 23.9156C21.5134 23.9187 21.8671 23.9947 22.188 24.1036L22.3063 23.9156C21.9858 23.8067 21.6316 23.7307 21.2965 23.7276L14.8018 23.6667L14.6836 23.8547L21.1783 23.9156Z" fill="#E0E0E0"/>
<path d="M21.4697 23.4534C21.8048 23.4565 22.1586 23.5325 22.4791 23.6414L22.5973 23.4534C22.2768 23.3445 21.9226 23.2685 21.5875 23.2654L15.0928 23.2045L14.9746 23.3925L21.4697 23.4534Z" fill="#E0E0E0"/>
<path d="M21.7593 22.9916C22.0944 22.9947 22.4482 23.0707 22.7691 23.1796L22.8873 22.9916C22.5669 22.8827 22.2126 22.8067 21.8775 22.8036L15.3829 22.7427L15.2646 22.9307L21.7593 22.9916Z" fill="#E0E0E0"/>
<path d="M22.0503 22.5293C22.3854 22.5325 22.7392 22.6085 23.0601 22.7173L23.1783 22.5293C22.8579 22.4205 22.5037 22.3445 22.1686 22.3413L15.6739 22.2805L15.5557 22.4685L22.0503 22.5293Z" fill="#E0E0E0"/>
<path d="M22.3413 22.0671C22.6765 22.0703 23.0302 22.1463 23.3511 22.2551L23.4693 22.0671C23.1489 21.9583 22.7947 21.8823 22.4596 21.8791L15.9649 21.8178L15.8467 22.0058L22.3413 22.0671Z" fill="#E0E0E0"/>
<path d="M22.6314 21.6049C22.9665 21.608 23.3203 21.684 23.6412 21.7929L23.7594 21.6049C23.4389 21.496 23.0847 21.42 22.7496 21.4169L16.2549 21.356L16.1367 21.544L22.6314 21.6049Z" fill="#E0E0E0"/>
<path d="M22.9224 21.1427C23.2575 21.1458 23.6113 21.2218 23.9322 21.3307L24.0504 21.1427C23.73 21.0338 23.3757 20.9578 23.0406 20.9547L16.546 20.8934L16.4277 21.0814L22.9224 21.1427Z" fill="#E0E0E0"/>
<path d="M23.2124 20.6809C23.5475 20.684 23.9013 20.76 24.2222 20.8689L24.3404 20.6809C24.02 20.572 23.6658 20.496 23.3307 20.4929L16.836 20.4316L16.7178 20.6196L23.2124 20.6809Z" fill="#E0E0E0"/>
<path d="M23.5035 20.2187C23.8386 20.2218 24.1923 20.2978 24.5132 20.4067L24.6315 20.2187C24.311 20.1098 23.9568 20.0338 23.6217 20.0307L17.127 19.9698L17.0088 20.1578L23.5035 20.2187Z" fill="#E0E0E0"/>
<path d="M23.7935 19.7565C24.1286 19.7596 24.4824 19.8356 24.8033 19.9445L24.9215 19.7565C24.6011 19.6476 24.2468 19.5716 23.9117 19.5685L17.4171 19.5071L17.2988 19.6951L23.7935 19.7565Z" fill="#E0E0E0"/>
<path d="M24.085 19.2942C24.4201 19.2973 24.7738 19.3733 25.0943 19.4822L25.2125 19.2942C24.8921 19.1853 24.5378 19.1094 24.2027 19.1062L17.7081 19.0453L17.5898 19.2333L24.085 19.2942Z" fill="#E0E0E0"/>
<path d="M24.3755 18.8324C24.7106 18.8356 25.0644 18.9116 25.3853 19.0204L25.5035 18.8324C25.1831 18.7236 24.8289 18.6476 24.4937 18.6444L17.9991 18.5836L17.8809 18.7716L24.3755 18.8324Z" fill="#E0E0E0"/>
<path d="M24.6656 18.3702C25.0007 18.3733 25.3545 18.4493 25.6753 18.5582L25.7936 18.3702C25.4731 18.2613 25.1189 18.1853 24.7838 18.1822L18.2891 18.1213L18.1709 18.3093L24.6656 18.3702Z" fill="#E0E0E0"/>
<path d="M24.9566 17.908C25.2917 17.9111 25.6455 17.9871 25.9664 18.096L26.0846 17.908C25.7641 17.7991 25.4099 17.7231 25.0748 17.72L18.5801 17.6587L18.4619 17.8467L24.9566 17.908Z" fill="#E0E0E0"/>
<path d="M25.2466 17.4458C25.5817 17.4489 25.9355 17.5249 26.2564 17.6338L26.3746 17.4458C26.0542 17.3369 25.7 17.2609 25.3648 17.2578L18.8702 17.1969L18.752 17.3849L25.2466 17.4458Z" fill="#E0E0E0"/>
<path d="M14.5062 25.9107L13.0186 25.9489L12.9648 25.8609L14.5062 25.9107Z" fill="#E6E6E5"/>
<path d="M13.2075 26.2671L15.7226 26.26L13.168 26.2014L13.2075 26.2671Z" fill="#E6E6E5"/>
<path opacity="0.02" d="M32.8941 15.7222C31.5528 15.756 29.7848 15.8493 28.9755 16.1031C28.3213 16.3085 28.0039 16.5751 27.8541 16.8098L27.8524 16.8089L22.207 25.7858C22.335 25.5827 22.5764 25.3822 22.9879 25.2191C22.9879 25.2191 25.7061 20.6485 27.8937 18.4205C30.0813 16.1929 32.8941 15.7222 32.8941 15.7222Z" fill="#040000"/>
<path d="M19.978 43.0098C19.978 43.0098 20.8611 44.0534 20.9211 44.2138C20.9811 44.3743 20.7002 44.836 20.5797 44.9365C20.4593 45.0369 19.9975 45.3983 19.7571 45.5987C19.5162 45.7996 19.3757 46.0001 19.7171 46.0805C20.0584 46.1609 20.9211 46.1809 21.2824 46.0405C21.6437 45.9001 21.7842 45.6792 21.8846 45.3178C21.9851 44.9565 22.1655 44.6356 22.246 44.4547C22.3264 44.2743 22.6673 44.1738 22.5069 43.712C22.3464 43.2503 21.8246 43.0698 21.7442 42.9894C21.6637 42.9089 21.4229 42.568 21.3829 42.4676C21.3429 42.3676 19.978 43.0098 19.978 43.0098Z" fill="#FBE0D3"/>
<path d="M22.1443 43.2436C22.1381 43.3876 22.1221 43.556 22.0861 43.692C22.0056 43.9929 21.4438 45.0969 21.2429 45.0969C21.0421 45.0969 20.5807 44.9365 20.5807 44.9365C20.4603 45.0369 19.9985 45.3983 19.7581 45.5987C19.5172 45.7996 19.3767 46 19.7181 46.0805C20.0594 46.1609 20.9221 46.1809 21.2834 46.0405C21.6447 45.9 21.7852 45.6791 21.8856 45.3178C21.9861 44.9565 22.1665 44.6356 22.2469 44.4547C22.3274 44.2743 22.6683 44.1738 22.5078 43.712C22.4349 43.5045 22.2896 43.3543 22.1443 43.2436Z" fill="#6C99AF"/>
<path d="M30.9852 41.2947C30.9252 41.0539 30.7443 40.813 30.5639 40.9134C30.3834 41.0139 29.0186 42.2939 29.0186 42.2939L30.1021 42.9005C30.1021 42.9005 30.0821 43.2214 30.0621 43.3219C30.0514 43.3752 30.0666 43.4201 30.0452 43.5641C30.0181 43.5663 29.9634 43.6694 29.9581 43.6761C29.9083 43.7383 29.7221 43.8996 29.7346 44.1236C29.747 44.3472 30.1323 44.3596 30.3932 44.3596C30.6541 44.3596 31.0892 44.2103 31.1514 44.1112C31.1648 44.0894 31.1741 44.0605 31.1808 44.029C31.1946 44.0032 31.2039 43.9756 31.2061 43.9441C31.2261 43.6632 31.0452 41.5356 30.9852 41.2947Z" fill="#FBE0D3"/>
<path d="M30.5639 40.9134C30.511 40.9427 30.3559 41.0743 30.1634 41.2445C30.2803 41.2321 30.5514 41.2223 30.667 41.3761C30.8163 41.5752 30.8163 42.2463 30.8163 42.7436C30.8163 43.241 30.8412 43.5143 30.6919 43.5765C30.5425 43.6387 30.0456 43.5641 30.0456 43.5641C30.0185 43.5663 29.9639 43.6694 29.9585 43.6761C29.9087 43.7383 29.7225 43.8996 29.735 44.1236C29.7474 44.3472 30.1327 44.3596 30.3936 44.3596C30.6545 44.3596 31.0896 44.2103 31.1519 44.1112C31.1652 44.0894 31.1745 44.0605 31.1812 44.029C31.195 44.0032 31.2043 43.9756 31.2065 43.9441C31.2265 43.6632 31.0461 41.5356 30.9856 41.2947C30.9252 41.0539 30.7447 40.813 30.5639 40.9134Z" fill="#6C99AF"/>
<path d="M30.1016 42.9005L30.4829 42.1578" stroke="#E5C7BA" stroke-width="0.0444444" stroke-miterlimit="10" stroke-linecap="round" stroke-linejoin="round"/>
<path d="M22.283 35.4383L21.7781 36.4841C21.7781 36.4841 19.8039 35.8641 18.5412 35.8641C17.2785 35.8641 16.2914 35.9098 16.131 36.6676C15.9701 37.4254 16.7048 38.5272 17.187 39.3307C17.6692 40.1343 19.5972 42.7054 19.5972 42.7054C19.5972 42.7054 20.4234 42.2921 20.7221 42.0854C21.0208 41.8787 21.0203 41.8787 21.0203 41.8787L20.1021 39.7436C20.1021 39.7436 21.319 40.5241 22.5585 40.3863C23.7981 40.2485 24.2803 40.065 24.2803 40.065C24.2803 40.065 25.1297 45.0694 25.3363 45.345C25.543 45.6205 25.9332 45.8498 26.2545 45.781C26.5759 45.7121 26.9057 45.5605 26.9057 45.5605C26.9057 45.5605 28.151 45.5023 29.0994 44.2632C29.4741 43.7743 29.8679 43.1201 29.8679 43.1201L29.0185 42.2938L27.2599 43.1547C27.2599 43.1547 28.1914 40.4614 28.2523 40.0423C28.4923 38.3863 28.3443 37.7005 28.0225 36.5298C27.7012 35.3592 27.0421 34.4667 27.0421 34.4667L22.5359 35.0147L22.283 35.4383Z" fill="#A0BCC5"/>
<path d="M20.1257 39.5374L19.2764 37.1956" stroke="#7C99A0" stroke-width="0.0444444" stroke-miterlimit="10" stroke-linecap="round" stroke-linejoin="round"/>
<path d="M20.8367 41.4196C20.8367 41.4196 20.5385 41.8556 20.0332 42.0396C19.5283 42.2232 19.138 42.2232 19.138 42.2232C19.138 42.2232 19.0692 42.361 19.1612 42.4988C19.2532 42.6365 19.5514 43.0036 19.7123 43.0956C19.8732 43.1876 20.4469 43.1188 20.814 42.9579C21.1812 42.797 21.5029 42.4068 21.5029 42.269C21.5029 42.1312 21.0438 41.3739 21.0438 41.3739C21.0438 41.3739 20.9745 41.213 20.8367 41.4196Z" fill="#71949C"/>
<path d="M27.2121 43.3907L26.6006 45.2779" stroke="#7C99A0" stroke-width="0.0444444" stroke-miterlimit="10" stroke-linecap="round" stroke-linejoin="round"/>
<path d="M24.2123 39.8392C24.2123 39.8392 24.0318 38.8556 23.63 38.2134C23.2287 37.5712 23.0078 37.3703 23.0078 37.3703" stroke="#7C99A0" stroke-width="0.0444444" stroke-miterlimit="10" stroke-linecap="round" stroke-linejoin="round"/>
<path d="M28.415 42.565C28.415 42.565 29.0755 42.8952 29.2408 43.1312C29.4062 43.3672 29.5239 43.7445 29.5239 43.7445C29.5239 43.7445 29.5239 43.8623 29.7364 43.5556C29.9488 43.249 30.2084 43.2019 30.279 42.9188C30.3497 42.6356 29.9488 42.3054 29.6421 42.093C29.3355 41.8805 29.2413 41.9041 29.123 41.9988C29.0048 42.093 28.4857 42.3761 28.415 42.565Z" fill="#71949C"/>
<path d="M27.0574 28.7858C26.8761 28.6934 26.689 28.6125 26.4957 28.5467C25.8041 28.3111 25.0197 28.2778 24.293 28.3005L19.769 28.7027C19.225 28.752 18.6481 28.9827 18.0961 29.0756C17.5236 29.172 16.801 29.0174 16.2334 29.1311L14.6161 27.444C14.6161 27.444 14.2543 27.9894 13.8525 27.9676C14.1272 28.4325 14.2725 28.7765 14.5521 29.2383C14.7468 29.5596 14.9414 29.8805 15.1428 30.1974C15.3481 30.5205 15.413 30.652 15.8143 30.7307C16.5734 30.88 17.0992 31.1143 17.873 31.1298C18.6974 31.1467 19.5161 31.0094 20.3392 30.9814C20.3392 30.9814 20.909 31.6516 20.909 31.8191C20.909 31.9867 20.7036 33.2018 20.8085 33.5618C20.9352 33.9974 21.101 34.2005 21.369 34.3014C21.637 34.4018 22.0485 34.4667 22.0485 34.4667L22.2832 35.4387C22.2832 35.4387 23.6237 36.0085 25.1988 35.7738C26.7739 35.5391 27.0419 34.4667 27.0419 34.4667C27.0419 34.4667 26.1685 34.1196 26.4356 31.3423C26.5059 31.3458 27.9876 31.8427 28.0552 31.8391C28.5899 31.8125 28.441 31.556 28.441 31.556C28.441 31.556 28.5743 29.8725 28.5748 29.8716C28.6054 29.8054 27.7508 29.2076 27.6508 29.1396C27.4597 29.0098 27.2623 28.8903 27.0574 28.7858Z" fill="#6C99AF"/>
<path d="M16.2334 29.1311C16.2334 29.1311 15.8219 29.236 15.869 29.9378" stroke="#263138" stroke-width="0.0444444" stroke-miterlimit="10" stroke-linecap="round" stroke-linejoin="round"/>
<path d="M15.584 29.6449C15.584 29.6449 15.6511 30.0685 15.8338 30.2742" stroke="#263138" stroke-width="0.0444444" stroke-miterlimit="10" stroke-linecap="round" stroke-linejoin="round"/>
<path d="M25.7926 33.6938C25.5757 34.3445 24.9686 34.4311 24.5561 34.3662C24.1441 34.3013 23.645 34.0845 23.2113 34.1058C22.7775 34.1276 22.4521 34.3227 22.4521 34.3227C22.4521 34.3227 23.2108 34.236 23.573 34.4173C23.9353 34.5982 24.7215 34.8729 25.209 34.692C25.6966 34.5111 25.7926 33.6938 25.7926 33.6938Z" fill="#6C99AF"/>
<path d="M20.339 30.9814L19.875 30.5827L19.9861 30.9867L20.339 30.9814Z" fill="#6C99AF"/>
<path d="M25.5791 30.54C25.5791 30.54 25.9124 31.2249 26.3382 31.336" stroke="#263138" stroke-width="0.0444444" stroke-miterlimit="10" stroke-linecap="round" stroke-linejoin="round"/>
<path d="M25.5254 31.1014C25.5254 31.1014 25.8174 31.4552 26.1138 31.5294" stroke="#263138" stroke-width="0.0444444" stroke-miterlimit="10" stroke-linecap="round" stroke-linejoin="round"/>
<path d="M13.8518 27.9675L13.3976 27.0626C13.3976 27.0626 12.4674 26.4933 12.0772 26.3013C11.6869 26.1093 11.8509 26.2271 11.6727 26.156C11.4478 26.0657 11.0749 25.3853 11.0998 25.268C11.1136 25.2035 11.1149 25.1657 11.5029 25.604C11.63 25.7475 12.2194 25.908 12.2194 25.908C12.2194 25.908 11.6834 25.4706 11.5389 25.2591C11.3945 25.0475 11.2789 24.8093 11.4487 24.8475C11.4949 24.8577 11.6812 25.0382 11.9109 25.276C12.0158 25.3849 12.2976 25.5186 12.2976 25.5186C12.2976 25.5186 11.7474 24.7449 11.766 24.6502C11.7847 24.5555 11.9856 24.7102 12.1674 24.8835C12.3492 25.0569 12.7287 25.5097 12.774 25.5249C12.8194 25.54 13.4327 25.8182 13.4327 25.8182C13.4327 25.8182 13.2389 25.4897 13.2194 25.2817C13.1998 25.0737 13.3132 24.9977 13.4078 25.0164C13.5025 25.0351 13.4465 25.3569 13.5945 25.5191C13.7425 25.6813 13.8905 25.9191 13.8909 26.1084C13.8914 26.2973 13.8958 26.412 13.8958 26.412L14.6145 27.4449C14.6158 27.444 14.3665 28.0871 13.8518 27.9675Z" fill="#FBE0D3"/>
<path d="M13.2136 26.7898C13.2136 26.7898 12.1656 26.5315 12.0251 26.4222C11.8851 26.3129 11.6833 25.8182 11.5847 25.6973C11.486 25.5764 11.486 25.5009 11.6109 25.5422C11.7358 25.5835 11.918 25.7569 12.0162 25.8778C12.1149 25.9987 12.346 26.2133 12.346 26.2133C12.346 26.2133 12.8349 26.0884 13.0998 26.1635" fill="#FBE0D3"/>
<path d="M13.2136 26.7898C13.2136 26.7898 12.1656 26.5315 12.0251 26.4222C11.8851 26.3129 11.6833 25.8182 11.5847 25.6973C11.486 25.5764 11.486 25.5009 11.6109 25.5422C11.7358 25.5835 11.918 25.7569 12.0162 25.8778C12.1149 25.9987 12.346 26.2133 12.346 26.2133C12.346 26.2133 12.8349 26.0884 13.0998 26.1635" stroke="#EBD2C8" stroke-width="0.0444444" stroke-miterlimit="10"/>
<path d="M27.5684 31.5822C27.6546 31.7271 27.8084 31.828 28.0546 31.8391C28.711 31.8698 29.2466 31.4298 29.5106 31.1213C29.6706 30.9347 30.8937 29.2787 31.4741 28.4502L30.7408 27.8453C30.263 28.2009 29.7404 28.5187 29.3146 28.8382C28.6972 29.3013 27.9101 30.1138 27.643 30.5862" fill="#6C99AF"/>
<path d="M31.4039 28.5707L31.9901 27.8116C31.9901 27.8116 33.0697 27.6556 33.5039 27.6334C33.9381 27.6111 33.7412 27.6547 33.9328 27.6591C34.175 27.6649 34.7861 27.1871 34.8097 27.0694C34.8225 27.0049 34.8359 26.9694 34.3066 27.2187C34.1332 27.3005 33.5283 27.2151 33.5283 27.2151C33.5283 27.2151 34.1937 27.0249 34.4097 26.8876C34.6257 26.7502 34.8261 26.5769 34.655 26.5449C34.6083 26.536 34.3665 26.628 34.0612 26.756C33.9217 26.8147 33.6101 26.8262 33.6101 26.8262C33.6101 26.8262 34.4212 26.3325 34.4417 26.2382C34.4617 26.144 34.2163 26.2067 33.9808 26.2942C33.7452 26.3818 33.2177 26.648 33.1701 26.644C33.1225 26.64 32.4492 26.6534 32.4492 26.6534C32.4492 26.6534 32.7568 26.428 32.8568 26.2449C32.9568 26.0614 32.8825 25.9471 32.7883 25.9267C32.6941 25.9067 32.6185 26.224 32.4185 26.3147C32.2185 26.4054 31.9888 26.5654 31.9137 26.7387C31.8385 26.912 31.7892 27.016 31.7892 27.016L30.7412 27.8462C30.7403 27.8458 30.8834 28.4774 31.4039 28.5707Z" fill="#FBE0D3"/>
<path d="M32.2666 27.6338C32.2666 27.6338 33.3315 27.8107 33.5035 27.7654C33.6755 27.7205 34.0564 27.3454 34.1946 27.2734C34.3328 27.2014 34.363 27.132 34.2319 27.1205C34.1008 27.1089 33.8653 27.1965 33.727 27.2685C33.5888 27.3405 33.2915 27.4467 33.2915 27.4467C33.2915 27.4467 32.8915 27.1391 32.6186 27.1031" fill="#FBE0D3"/>
<path d="M32.2666 27.6338C32.2666 27.6338 33.3315 27.8107 33.5035 27.7654C33.6755 27.7205 34.0564 27.3454 34.1946 27.2734C34.3328 27.2014 34.363 27.132 34.2319 27.1205C34.1008 27.1089 33.8653 27.1965 33.727 27.2685C33.5888 27.3405 33.2915 27.4467 33.2915 27.4467C33.2915 27.4467 32.8915 27.1391 32.6186 27.1031" stroke="#EBD2C8" stroke-width="0.0444444" stroke-miterlimit="10"/>
<path d="M23.5444 28.3129C20.848 28.3129 18.64 28.0551 16.9529 27.7418C13.0302 27.0138 11.0377 25.8667 10.9551 25.8182L11.2391 25.3325C11.2586 25.344 13.2524 26.4876 17.0906 27.1951C20.6355 27.8485 26.5226 28.2533 34.4404 26.4702L34.564 27.0196C30.2946 27.9805 26.6049 28.3129 23.5444 28.3129Z" fill="#6C99AF"/>
<path d="M35.4174 25.144C27.8996 26.8374 22.3098 26.4529 18.9441 25.8325C15.2996 25.1605 13.4067 24.0747 13.3881 24.064L11.2383 25.3329C11.2578 25.3445 13.2516 26.488 17.0898 27.1956C20.6347 27.8489 26.5218 28.2538 34.4396 26.4707L34.9041 25.8036C35.1129 25.7591 35.3227 25.7138 35.5352 25.6662L35.4174 25.144Z" fill="#8CB6C6"/>
<path d="M34.4395 26.4702L35.4172 25.144L35.535 25.6653L34.563 27.0191L34.4395 26.4702Z" fill="#8CB6C6" stroke="#6D96A3" stroke-width="0.0444444" stroke-miterlimit="10" stroke-linecap="round" stroke-linejoin="round"/>
<path d="M24.348 23.8532C25.941 22.2603 25.9408 19.6774 24.3477 18.0842C22.7545 16.4911 20.1717 16.4909 18.5787 18.0839C16.9857 19.6769 16.9858 22.2598 18.579 23.8529C20.1721 25.4461 22.755 25.4462 24.348 23.8532Z" fill="#6C99AF"/>
<path d="M23.8078 23.3124C25.1022 22.0179 25.1022 19.9192 23.8078 18.6248C22.5133 17.3303 20.4146 17.3303 19.1202 18.6248C17.8257 19.9192 17.8257 22.0179 19.1202 23.3124C20.4146 24.6068 22.5133 24.6068 23.8078 23.3124Z" fill="#91A7AF" stroke="#3B6372" stroke-width="0.0444444" stroke-miterlimit="10"/>
<path d="M21.248 20.7062L19.7671 19.712L19.6582 19.8742L21.1391 20.8689C21.1591 20.8044 21.1973 20.748 21.248 20.7062Z" fill="white"/>
<path d="M21.2186 21.2013L19.8506 23.5964L20.0199 23.6933L21.3879 21.2982C21.3226 21.2831 21.2639 21.2493 21.2186 21.2013Z" fill="white"/>
<path d="M21.8025 20.9413C21.7874 20.7542 21.6238 20.6147 21.4367 20.6298C21.2496 20.6449 21.11 20.8084 21.1251 20.9956C21.1403 21.1827 21.3038 21.3222 21.4909 21.3071C21.678 21.2924 21.8176 21.1284 21.8025 20.9413Z" fill="white" stroke="#5D8499" stroke-width="0.0444444" stroke-miterlimit="10" stroke-linecap="round" stroke-linejoin="round"/>
<path d="M12.0713 24.6911C12.0713 24.6911 12.5691 25.7845 13.5731 26.1929C14.5775 26.6018 15.9726 26.5574 16.266 27.748L18.0077 24.1222C18.0077 24.1222 17.6077 23.3489 16.906 23.2778C16.2037 23.2067 15.6175 23.2511 15.0664 22.6556C14.5153 22.06 14.0708 21.5089 14.0708 21.5089L12.0713 24.6911Z" fill="white" stroke="#3B6372" stroke-width="0.0444444" stroke-miterlimit="10"/>
<path d="M14.8691 26.024L16.0718 23.7133" stroke="#6C99AF" stroke-width="0.0444444" stroke-miterlimit="10"/>
<path d="M15.2627 26.2835L16.6303 23.808" stroke="#6C99AF" stroke-width="0.0444444" stroke-miterlimit="10"/>
<path d="M14.2987 22.7071C14.2987 22.7071 14.2018 23.9045 14.8801 24.7502C15.5587 25.596 16.7992 26.236 16.4761 27.4191L19.7618 25.0987C19.7618 25.0987 19.7885 24.2285 19.2098 23.8249C18.6312 23.4213 18.097 23.1747 17.9054 22.3862C17.7138 21.5978 17.5934 20.9005 17.5934 20.9005L14.2987 22.7071Z" fill="white" stroke="#3B6372" stroke-width="0.0444444" stroke-miterlimit="10"/>
<path d="M16.0947 25.2329L18.2698 23.7996" stroke="#6C99AF" stroke-width="0.0444444" stroke-miterlimit="10"/>
<path d="M16.3115 25.6507L18.7106 24.1533" stroke="#6C99AF" stroke-width="0.0444444" stroke-miterlimit="10"/>
<path d="M16.667 26.0805L19.0568 24.4694" stroke="#6C99AF" stroke-width="0.0444444" stroke-miterlimit="10"/>
<path d="M16.5947 24.3285C16.5947 24.3285 17.0969 25.4196 18.1032 25.824C19.1089 26.2284 20.5041 26.1782 20.8027 27.368L22.5294 23.7347C22.5294 23.7347 22.1263 22.9631 21.4236 22.8951C20.7214 22.8271 20.1347 22.8738 19.5814 22.2809C19.0281 21.688 18.5809 21.1387 18.5809 21.1387L16.5947 24.3285Z" fill="white" stroke="#3B6372" stroke-width="0.0444444" stroke-miterlimit="10"/>
<path d="M19.3984 25.6494L20.5913 23.3338" stroke="#6C99AF" stroke-width="0.0444444" stroke-miterlimit="10"/>
<path d="M19.792 25.9071L21.1489 23.4262" stroke="#6C99AF" stroke-width="0.0444444" stroke-miterlimit="10"/>
<path d="M20.3115 26.1075L21.6049 23.532" stroke="#263138" stroke-width="0.0444444" stroke-miterlimit="10" stroke-linecap="round" stroke-linejoin="round"/>
<path d="M25.152 26.9346L30.8017 26.2897C30.9671 26.271 31.0857 26.1212 31.0671 25.9559L30.6942 22.6866C30.6755 22.5212 30.5257 22.4026 30.3604 22.4212L24.7106 23.0666C24.5453 23.0852 24.4266 23.235 24.4453 23.4004L24.8182 26.6697C24.8373 26.8346 24.9866 26.9537 25.152 26.9346Z" fill="#8CAEC0" stroke="#3B6372" stroke-width="0.0444444" stroke-miterlimit="10"/>
<path d="M30.8453 23.9947L24.5967 24.7079L24.7461 26.0172L30.9948 25.3041L30.8453 23.9947Z" fill="#8CAEC0" stroke="#3B6372" stroke-width="0.0444444" stroke-miterlimit="10"/>
<path d="M26.2922 23.5203C26.3034 23.619 26.3927 23.6896 26.4914 23.6785C26.59 23.6674 26.6607 23.5781 26.6496 23.4799C26.6385 23.3812 26.5491 23.3105 26.4505 23.3216C26.3518 23.3328 26.2807 23.4216 26.2922 23.5203Z" fill="#8CAEC0" stroke="#3B6372" stroke-width="0.0444444" stroke-miterlimit="10"/>
<path d="M25.5979 23.5995C25.609 23.6982 25.6984 23.7688 25.797 23.7577C25.8957 23.7466 25.9664 23.6573 25.9552 23.5586C25.9441 23.4599 25.8548 23.3893 25.7561 23.4004C25.6575 23.4119 25.5864 23.5008 25.5979 23.5995Z" fill="#8CAEC0" stroke="#3B6372" stroke-width="0.0444444" stroke-miterlimit="10"/>
<path d="M24.9036 23.6786C24.9147 23.7773 25.004 23.8479 25.1022 23.8368C25.2009 23.8257 25.2716 23.7364 25.2605 23.6377C25.2494 23.539 25.16 23.4684 25.0614 23.4795C24.9631 23.491 24.892 23.5799 24.9036 23.6786Z" fill="#8CAEC0" stroke="#3B6372" stroke-width="0.0444444" stroke-miterlimit="10"/>
<path d="M28.9559 21.9439L32.2647 26.4377C32.3807 26.5955 32.6025 26.6288 32.7603 26.5128L35.3248 24.6248C35.4825 24.5088 35.5159 24.2871 35.3999 24.1293L32.0905 19.6355C31.9745 19.4777 31.7528 19.4444 31.595 19.5604L29.0305 21.4484C28.8732 21.5644 28.8399 21.7862 28.9559 21.9439Z" fill="#8CAEC0" stroke="#3B6372" stroke-width="0.0444444" stroke-miterlimit="10"/>
<path d="M30.5798 20.3104L29.5186 21.0917L33.2472 26.1562L34.3084 25.3749L30.5798 20.3104Z" fill="#8CAEC0" stroke="#3B6372" stroke-width="0.0444444" stroke-miterlimit="10"/>
<path d="M32.453 21.1906C32.373 21.2493 32.3561 21.3618 32.4148 21.4418C32.4735 21.5218 32.5859 21.5386 32.6659 21.48C32.7459 21.4213 32.7628 21.3084 32.7041 21.2289C32.6455 21.1489 32.533 21.1315 32.453 21.1906Z" fill="#8CAEC0" stroke="#3B6372" stroke-width="0.0444444" stroke-miterlimit="10"/>
<path d="M32.039 20.628C31.959 20.6866 31.9421 20.7991 32.0008 20.8791C32.0594 20.9591 32.1719 20.976 32.2519 20.9173C32.3319 20.8586 32.3487 20.7462 32.2901 20.6662C32.2314 20.5862 32.119 20.5688 32.039 20.628Z" fill="#8CAEC0" stroke="#3B6372" stroke-width="0.0444444" stroke-miterlimit="10"/>
<path d="M31.6249 20.0653C31.5449 20.1239 31.528 20.2364 31.5867 20.3164C31.6454 20.3964 31.7578 20.4133 31.8378 20.3546C31.9178 20.2959 31.9347 20.1835 31.876 20.1035C31.8174 20.0235 31.7049 20.0062 31.6249 20.0653Z" fill="#8CAEC0" stroke="#3B6372" stroke-width="0.0444444" stroke-miterlimit="10"/>
<path d="M26.3322 23.08L26.6184 27.0102L25.7051 26.8857" fill="#6C99AF"/>
<path d="M20.5368 23.0071L26.3315 23.08C26.3315 23.08 26.1826 26.5089 25.3541 27.4506L19.5684 26.784C19.5684 26.784 20.6359 25.6537 20.5368 23.0071Z" fill="#AED3E0" stroke="#3B6372" stroke-width="0.0444444" stroke-miterlimit="10"/>
<path d="M21.0412 24.0115L25.7439 24.2C25.7439 24.2 25.579 26.0204 25.1537 26.704L20.3701 26.2115C20.3701 26.2115 21.0683 25.0542 21.0412 24.0115Z" stroke="#3A7799" stroke-width="0.0444444" stroke-miterlimit="10" stroke-linecap="round" stroke-linejoin="round"/>
<path d="M21.4951 24.032C21.4951 24.032 21.3075 25.572 20.8262 26.26" stroke="#3A7799" stroke-width="0.0444444" stroke-miterlimit="10" stroke-linecap="round" stroke-linejoin="round"/>
<path d="M22.121 24.0947C22.121 24.0947 21.9335 25.6347 21.4521 26.3227" stroke="#3A7799" stroke-width="0.0444444" stroke-miterlimit="10" stroke-linecap="round" stroke-linejoin="round"/>
<path d="M22.6874 24.1058C22.6874 24.1058 22.4999 25.6458 22.0186 26.3338" stroke="#3A7799" stroke-width="0.0444444" stroke-miterlimit="10" stroke-linecap="round" stroke-linejoin="round"/>
<path d="M23.1972 24.1218C23.1972 24.1218 23.0097 25.6618 22.5283 26.3498" stroke="#3A7799" stroke-width="0.0444444" stroke-miterlimit="10" stroke-linecap="round" stroke-linejoin="round"/>
<path d="M23.7363 24.1631C23.7363 24.1631 23.5487 25.7031 23.0674 26.3911" stroke="#3A7799" stroke-width="0.0444444" stroke-miterlimit="10" stroke-linecap="round" stroke-linejoin="round"/>
<path d="M23.5869 26.5191C24.0682 25.8311 24.2491 24.2071 24.2491 24.2071" stroke="#3A7799" stroke-width="0.0444444" stroke-miterlimit="10" stroke-linecap="round" stroke-linejoin="round"/>
<path d="M24.728 24.1969C24.728 24.1969 24.5218 25.8511 24.04 26.5391" stroke="#3A7799" stroke-width="0.0444444" stroke-miterlimit="10" stroke-linecap="round" stroke-linejoin="round"/>
<path d="M25.211 24.2427C25.211 24.2427 25.0888 25.8902 24.6074 26.5782" stroke="#3A7799" stroke-width="0.0444444" stroke-miterlimit="10" stroke-linecap="round" stroke-linejoin="round"/>
<path d="M21.0186 24.4369L25.6483 24.7724" stroke="#3A7799" stroke-width="0.0444444" stroke-miterlimit="10" stroke-linecap="round" stroke-linejoin="round"/>
<path d="M20.915 24.8973L25.5773 25.2867" stroke="#3A7799" stroke-width="0.0444444" stroke-miterlimit="10" stroke-linecap="round" stroke-linejoin="round"/>
<path d="M20.7822 25.3596L25.4493 25.8049" stroke="#3A7799" stroke-width="0.0444444" stroke-miterlimit="10" stroke-linecap="round" stroke-linejoin="round"/>
<path d="M20.6201 25.7964L25.2895 26.2698" stroke="#3A7799" stroke-width="0.0444444" stroke-miterlimit="10" stroke-linecap="round" stroke-linejoin="round"/>
<path d="M21.4802 23.3271C21.3176 23.34 21.1736 23.2 21.1584 23.0137C21.1438 22.828 21.2633 22.6666 21.426 22.6533C21.5887 22.6404 21.7327 22.7804 21.7478 22.9666" stroke="#3A7799" stroke-width="0.0444444" stroke-miterlimit="10" stroke-linecap="round" stroke-linejoin="round"/>
<path d="M22.1599 23.3573C21.9972 23.3702 21.8532 23.2302 21.8381 23.0439C21.8235 22.8582 21.943 22.6968 22.1057 22.6835C22.2684 22.6706 22.4124 22.8106 22.4275 22.9968" stroke="#3A7799" stroke-width="0.0444444" stroke-miterlimit="10" stroke-linecap="round" stroke-linejoin="round"/>
<path d="M22.8406 23.3875C22.678 23.4004 22.534 23.2604 22.5189 23.0742C22.5038 22.8884 22.6238 22.727 22.7864 22.7137C22.9491 22.7008 23.0931 22.8408 23.1082 23.027" stroke="#3A7799" stroke-width="0.0444444" stroke-miterlimit="10" stroke-linecap="round" stroke-linejoin="round"/>
<path d="M23.5203 23.4177C23.3576 23.4306 23.2136 23.2906 23.1985 23.1044C23.1838 22.9186 23.3034 22.7573 23.466 22.7439C23.6287 22.731 23.7727 22.871 23.7878 23.0573" stroke="#3A7799" stroke-width="0.0444444" stroke-miterlimit="10" stroke-linecap="round" stroke-linejoin="round"/>
<path d="M24.201 23.448C24.0383 23.4609 23.8943 23.3209 23.8792 23.1346C23.8641 22.9489 23.9841 22.7875 24.1468 22.7742C24.3094 22.7613 24.4534 22.9013 24.4685 23.0875" stroke="#3A7799" stroke-width="0.0444444" stroke-miterlimit="10" stroke-linecap="round" stroke-linejoin="round"/>
<path d="M24.8817 23.4782C24.719 23.4911 24.575 23.3511 24.5599 23.1649C24.5448 22.9791 24.6648 22.8177 24.8274 22.8044C24.9901 22.7915 25.1341 22.9315 25.1492 23.1177" stroke="#3A7799" stroke-width="0.0444444" stroke-miterlimit="10" stroke-linecap="round" stroke-linejoin="round"/>
<path d="M25.5613 23.5084C25.3986 23.5213 25.2546 23.3813 25.2395 23.1951C25.2248 23.0093 25.3444 22.848 25.5071 22.8346C25.6697 22.8217 25.8137 22.9617 25.8288 23.148" stroke="#3A7799" stroke-width="0.0444444" stroke-miterlimit="10" stroke-linecap="round" stroke-linejoin="round"/>
<path d="M20.5813 25.6738C20.5813 25.6738 19.8907 25.6205 19.6782 25.8067C19.4658 25.9929 18.8018 27.1347 18.6956 27.7187C18.5893 28.3031 19.3596 28.728 19.4925 28.8609C19.6253 28.9938 19.8378 29.8169 19.7049 29.9765C19.572 30.136 19.28 30.136 19.28 30.136C19.28 30.136 19.3333 30.4018 20.0502 30.508C20.7671 30.6143 21.1231 30.3436 21.1231 30.3436C21.1231 30.3436 19.9173 27.8787 20.7938 27.0823C21.6702 26.2849 21.0858 25.5676 20.5813 25.6738Z" fill="#301D1A"/>
<path d="M21.9062 30.5942C21.9062 30.5942 22.236 31.7364 22.7436 31.7364C23.2511 31.7364 23.5302 30.8226 23.5302 29.9853C23.5302 29.148 22.7436 29.3253 22.3374 29.5538C21.9316 29.7818 21.9062 30.5942 21.9062 30.5942Z" fill="#FBE0D3"/>
<path d="M22.5089 29.98L22.1378 31.1485L21.9062 30.5943L22.5089 29.98Z" fill="#6C99AF"/>
<path d="M20.298 26.7355C20.298 26.7355 19.8309 27.0986 19.6522 27.9244C19.4731 28.7502 20.1477 30.1631 20.2344 30.2995C20.3211 30.436 20.9553 30.9253 21.066 30.9689C21.1766 31.0124 21.454 31.0346 21.6277 30.9498C21.8015 30.8649 22.9313 29.4862 22.9437 29.3969C22.9562 29.3071 22.0184 27.5191 21.9566 27.4746C21.8944 27.4293 20.5877 27.1609 20.298 26.7355Z" fill="#FBE0D3"/>
<path d="M20.5529 28.8097C20.3204 28.6435 20.0742 28.8648 20.0742 28.8648" stroke="#301D1A" stroke-width="0.0444444" stroke-miterlimit="10" stroke-linecap="round" stroke-linejoin="round"/>
<path d="M21.2715 28.6666C21.2715 28.6666 21.4742 28.4462 21.7239 28.5969" stroke="#301D1A" stroke-width="0.0444444" stroke-miterlimit="10" stroke-linecap="round" stroke-linejoin="round"/>
<path d="M20.6254 28.5538C20.6254 28.5538 20.3699 28.3951 20.2352 28.312C20.1005 28.2285 19.917 28.412 19.917 28.412C19.917 28.412 20.0797 28.3551 20.1832 28.4471C20.2868 28.5391 20.5948 28.7667 20.6254 28.5538Z" fill="#301D1A"/>
<path d="M21.0537 28.4422C21.0537 28.4422 21.235 28.2022 21.3306 28.076C21.4262 27.9497 21.6635 28.0542 21.6635 28.0542C21.6635 28.0542 21.491 28.06 21.4279 28.1831C21.3644 28.3062 21.159 28.6302 21.0537 28.4422Z" fill="#301D1A"/>
<path d="M20.7715 29.4849C20.7715 29.4849 20.9879 29.6338 21.1124 29.5667C21.2364 29.4996 21.3124 29.336 21.3124 29.336" stroke="#301D1A" stroke-width="0.0444444" stroke-miterlimit="10" stroke-linecap="round" stroke-linejoin="round"/>
<path d="M21.6782 29.9627C21.6044 29.8525 21.4724 29.7965 21.3399 29.8076C21.2266 29.8169 21.0746 29.8409 20.9462 29.9014C20.7062 30.0143 20.6564 30.1645 20.6786 30.224C20.7008 30.2836 20.7795 30.4707 20.9902 30.3485C21.1559 30.2525 21.2564 30.2143 21.463 30.2836C21.6702 30.3525 21.7377 30.2027 21.719 30.0627C21.7146 30.0276 21.699 29.9938 21.6782 29.9627Z" fill="white" stroke="#301D1A" stroke-width="0.0444444" stroke-miterlimit="10" stroke-linecap="round" stroke-linejoin="round"/>
<path d="M20.6787 30.224C20.6787 30.224 20.8192 30.1805 20.9956 30.1472" stroke="#301D1A" stroke-width="0.0444444" stroke-miterlimit="10" stroke-linecap="round" stroke-linejoin="round"/>
<path d="M21.7187 30.0623L21.3721 30.0818" stroke="#301D1A" stroke-width="0.0444444" stroke-miterlimit="10" stroke-linecap="round" stroke-linejoin="round"/>
<path d="M20.2622 27.188C20.2622 27.188 21.4573 28.0645 22.0417 28.1974C22.6262 28.3302 22.7324 29.2329 22.5995 29.552C22.4666 29.8707 22.1746 29.8707 22.1746 29.8707C22.1746 29.8707 21.8826 30.0565 22.8119 30.2427C23.7413 30.4285 23.8742 29.924 24.1666 29.5787C24.4586 29.2334 24.6977 28.6756 24.5386 28.0916C24.3791 27.5071 23.1151 26.212 22.7959 25.8405C22.4773 25.4685 21.6435 25.3031 20.9528 25.4622C20.2622 25.6218 20.2093 25.8342 19.9968 26.3916C19.7844 26.9489 20.2622 27.188 20.2622 27.188Z" fill="#301D1A"/>
<path d="M12.3232 21.2982C12.2557 21.4088 12.1877 21.5266 12.1201 21.651" stroke="#6C99AF" stroke-width="0.0444444" stroke-miterlimit="10" stroke-linecap="round" stroke-linejoin="round"/>
<path d="M13.4663 19.9053C13.4663 19.9053 13.0121 20.2622 12.4961 21.0284" stroke="#6C99AF" stroke-width="0.0444444" stroke-miterlimit="10" stroke-linecap="round" stroke-linejoin="round"/>
<path d="M12.219 20.6533C12.219 20.6533 11.4208 21.6008 11.2715 22.4986" stroke="#6C99AF" stroke-width="0.0444444" stroke-miterlimit="10" stroke-linecap="round" stroke-linejoin="round"/>
<path d="M35.8262 23.3484L36.0102 23.5959" stroke="#6C99AF" stroke-width="0.0444444" stroke-miterlimit="10" stroke-linecap="round" stroke-linejoin="round"/>
<path d="M34.7139 21.8502L35.6014 23.0448" stroke="#6C99AF" stroke-width="0.0444444" stroke-miterlimit="10" stroke-linecap="round" stroke-linejoin="round"/>
<path d="M34.9619 21.3017L36.2588 23.0475" stroke="#6C99AF" stroke-width="0.0444444" stroke-miterlimit="10" stroke-linecap="round" stroke-linejoin="round"/>
<path d="M31.0281 30.2097C30.6805 30.6737 30.3165 31.1351 30.0752 31.3768" stroke="#6C99AF" stroke-width="0.0444444" stroke-miterlimit="10" stroke-linecap="round" stroke-linejoin="round"/>
<path d="M32.0204 28.8333C32.0204 28.8333 31.6475 29.3719 31.207 29.9693" stroke="#6C99AF" stroke-width="0.0444444" stroke-miterlimit="10" stroke-linecap="round" stroke-linejoin="round"/>
<path d="M31.7708 29.9302C31.7708 29.9302 30.7232 31.4266 30.1748 31.8253" stroke="#6C99AF" stroke-width="0.0444444" stroke-miterlimit="10" stroke-linecap="round" stroke-linejoin="round"/>
<path d="M13.665 29.8306C13.665 29.8306 14.7126 31.0275 15.6104 31.3271" stroke="#6C99AF" stroke-width="0.0444444" stroke-miterlimit="10" stroke-linecap="round" stroke-linejoin="round"/>
<path d="M15.1973 31.7613C15.3004 31.8057 15.4053 31.8444 15.5115 31.876" stroke="#6C99AF" stroke-width="0.0444444" stroke-miterlimit="10" stroke-linecap="round" stroke-linejoin="round"/>
<path d="M13.8643 30.8782C13.8643 30.8782 14.3483 31.332 14.9629 31.6506" stroke="#6C99AF" stroke-width="0.0444444" stroke-miterlimit="10" stroke-linecap="round" stroke-linejoin="round"/>
<path d="M17.7713 -10.0672L15.6807 28.6617L15.7561 28.6658L17.8467 -10.0631L17.7713 -10.0672Z" fill="#26323F"/>
<path d="M29.6614 28.6609C29.6441 28.5107 29.733 28.5049 29.7485 28.6533C29.749 28.6582 29.8645 29.1573 30.1565 29.3413C30.2832 29.4213 30.4921 29.4418 30.681 29.3889C30.8325 29.3462 30.8365 29.42 30.685 29.4627C30.4245 29.536 30.3205 29.5329 30.129 29.4115C29.853 29.2369 29.6876 28.9298 29.6614 28.6609Z" fill="#26323F"/>
<path d="M30.7436 29.9115C30.9031 29.9546 30.8676 29.6902 30.8382 29.5471C31.128 29.8738 31.2907 29.7204 31.2774 29.6462C31.2565 29.5315 30.8796 29.4142 30.7822 29.3853C30.7516 29.5075 30.5645 29.8635 30.7436 29.9115ZM30.7622 29.86C30.6742 29.8364 30.7485 29.5991 30.7836 29.4884C30.7991 29.5582 30.8396 29.8809 30.7622 29.86ZM31.216 29.6546C31.2209 29.6844 31.1 29.784 30.8414 29.4586C31.012 29.516 31.2062 29.6004 31.216 29.6546Z" fill="#26323F"/>
<path d="M14.7135 29.4764C14.5646 29.4516 14.5828 29.3649 14.7304 29.3907C14.7348 29.3916 15.2468 29.4178 15.5041 29.188C15.6161 29.088 15.6935 28.8929 15.6944 28.6969C15.6952 28.5396 15.7672 28.556 15.7664 28.7133C15.765 28.9836 15.7335 29.0831 15.5641 29.2338C15.3197 29.4511 14.9792 29.5253 14.7135 29.4764Z" fill="#26323F"/>
<path d="M14.2318 29.1991C14.1332 29.332 14.3923 29.3956 14.5363 29.4213C14.126 29.5711 14.2091 29.7787 14.2825 29.7933C14.3967 29.816 14.6443 29.5085 14.7069 29.4289C14.6047 29.3542 14.3425 29.0498 14.2318 29.1991ZM14.2727 29.2351C14.3269 29.1622 14.5203 29.3182 14.61 29.3916C14.5403 29.3805 14.2247 29.2996 14.2727 29.2351ZM14.2972 29.7329C14.2678 29.7267 14.2194 29.5773 14.6172 29.4565C14.5012 29.5938 14.3514 29.7436 14.2972 29.7329Z" fill="#26323F"/>
<path d="M27.8222 43.004C27.7996 42.8022 27.9165 42.7938 27.9369 42.9938C27.9374 43 28.0898 43.672 28.4742 43.92C28.6413 44.0276 28.9165 44.0556 29.1649 43.984C29.3649 43.9267 29.3698 44.0258 29.1698 44.0831C28.8267 44.1818 28.6894 44.1773 28.4374 44.0142C28.0742 43.7787 27.8565 43.3653 27.8222 43.004Z" fill="#26323F"/>
<path d="M29.2484 44.6867C29.4586 44.7445 29.4115 44.3885 29.3733 44.196C29.7551 44.6356 29.9693 44.4289 29.9515 44.3298C29.924 44.1756 29.4275 44.0174 29.2995 43.9787C29.2586 44.1431 29.0124 44.6223 29.2484 44.6867ZM29.2729 44.6178C29.1569 44.5858 29.2546 44.2667 29.3013 44.1183C29.3213 44.2111 29.3746 44.6458 29.2729 44.6178ZM29.8706 44.3414C29.8773 44.3814 29.7178 44.5156 29.3769 44.0778C29.6018 44.1543 29.8578 44.268 29.8706 44.3414Z" fill="#26323F"/>
<path d="M20.666 43.789C20.5056 43.801 20.5065 43.7161 20.6651 43.7054C20.67 43.7054 21.2087 43.6094 21.4273 43.3356C21.5225 43.2165 21.5616 43.0174 21.5207 42.8347C21.4878 42.6881 21.5665 42.6867 21.5993 42.8334C21.6558 43.085 21.6438 43.185 21.4998 43.3645C21.2918 43.6232 20.9527 43.7721 20.666 43.789Z" fill="#26323F"/>
<path d="M22.2225 42.7689C22.2607 42.5542 21.9105 42.6338 21.7225 42.6894C22.1251 42.2689 21.8998 42.0743 21.8025 42.1014C21.6518 42.1431 21.5398 42.652 21.5127 42.7827C21.6798 42.8089 22.1794 43.0098 22.2225 42.7689ZM22.1509 42.7511C22.13 42.8694 21.8029 42.8014 21.6505 42.7689C21.742 42.7396 22.1696 42.6467 22.1509 42.7511ZM21.8211 42.1809C21.8603 42.1707 22.0087 42.3174 21.6038 42.6969C21.6594 42.4658 21.7491 42.2009 21.8211 42.1809Z" fill="#26323F"/>
<path d="M20.517 29.1538C20.5121 29.1489 20.5596 29.1018 20.593 29.0289C20.6276 28.9565 20.6334 28.8898 20.6405 28.8903" stroke="#D5B7AB" stroke-width="0.0111111" stroke-miterlimit="10" stroke-linecap="round" stroke-linejoin="round"/>
<path d="M21.3112 28.8311C21.2375 28.816 21.1859 28.7822 21.1886 28.7769" stroke="#D5B7AB" stroke-width="0.0111111" stroke-miterlimit="10" stroke-linecap="round" stroke-linejoin="round"/>
<path d="M20.5967 29.1431C20.6309 29.0893 20.6487 29.0395 20.6553 29.0413" stroke="#D5B7AB" stroke-width="0.0111111" stroke-miterlimit="10" stroke-linecap="round" stroke-linejoin="round"/>
<path d="M21.5048 28.9005C21.5048 28.9067 21.4515 28.912 21.387 28.9014C21.3221 28.8911 21.2732 28.8698 21.2755 28.8636" stroke="#D5B7AB" stroke-width="0.0111111" stroke-miterlimit="10" stroke-linecap="round" stroke-linejoin="round"/>
<path d="M19.9296 29.0662C19.918 29.08 19.9073 29.0942 19.902 29.1111C19.8967 29.128 19.9002 29.1458 19.9069 29.1622C19.9158 29.1836 19.9367 29.1938 19.9598 29.1964C20.002 29.2018 20.0242 29.1622 20.0407 29.1178C20.0576 29.0733 20.0562 29.008 20.0429 28.9653C20.0007 28.9933 19.9624 29.0271 19.9296 29.0662Z" fill="#F5F5F5"/>
<path d="M19.9847 28.8858C19.9567 28.9005 19.9291 28.9156 19.9011 28.9302C19.8905 28.936 19.8789 28.9431 19.8771 28.9547C19.8754 28.9671 19.8865 28.9787 19.8989 28.9809C19.9114 28.9831 19.9238 28.9774 19.934 28.9702C19.9598 28.9516 19.9745 28.9214 19.9878 28.892" fill="#F5F5F5"/>
<path d="M21.6975 28.7293C21.6944 28.7418 21.6922 28.7542 21.694 28.7667C21.6958 28.7791 21.7038 28.7893 21.7131 28.7978C21.7255 28.8089 21.742 28.8084 21.7575 28.8031C21.786 28.7933 21.7878 28.7613 21.7847 28.7275C21.7815 28.6942 21.7607 28.6529 21.7384 28.6298C21.7202 28.6604 21.706 28.6942 21.6975 28.7293Z" fill="#F5F5F5"/>
<path d="M21.597 42.828L21.5215 42.8143L22.333 -7.01331L22.4086 -6.99908L21.597 42.828Z" fill="#26323F"/>
<path d="M21.8828 28.9342C21.8859 28.9462 21.8899 28.9586 21.8975 28.9689C21.905 28.9791 21.917 28.984 21.929 28.9866C21.945 28.9902 21.9593 28.9822 21.9704 28.9698C21.9904 28.9475 21.9766 28.9186 21.9579 28.8906C21.9388 28.8626 21.9006 28.8369 21.8704 28.8271C21.869 28.8631 21.873 28.8995 21.8828 28.9342Z" fill="#F5F5F5"/>
<path d="M32.7189 25.7871L32.6016 25.7596L32.6887 25.712C32.714 25.7289 32.722 25.7547 32.7189 25.7871Z" fill="#6C99AF"/>
<path opacity="0.5" d="M32.7189 25.7871L32.6016 25.7596L32.6887 25.712C32.714 25.7289 32.722 25.7547 32.7189 25.7871Z" fill="#040000"/>
<path d="M30.3725 27.8827C30.4392 27.9004 30.5321 27.8756 30.581 27.8271L32.5574 25.848L28.5236 24.7907L28.429 24.7649L26.4436 26.7111C26.3952 26.76 26.4098 26.8142 26.4761 26.8316L30.3725 27.8827Z" fill="#6C99AF"/>
<path d="M30.5753 25.1235L31.5167 25.376L31.9629 24.9293L32.6722 25.1209C32.6722 25.1209 32.7678 25.4778 32.782 25.5315C32.7962 25.5853 32.7567 25.6782 32.7313 25.6711C32.7313 25.6711 32.686 25.6938 32.6251 25.7444C32.5642 25.7951 32.4891 25.9155 32.4891 25.9155L30.334 25.3649L30.5753 25.1235Z" fill="#6C99AF"/>
<path opacity="0.15" d="M30.5753 25.1235L31.5167 25.376L31.9629 24.9293L32.6722 25.1209C32.6722 25.1209 32.7678 25.4778 32.782 25.5315C32.7962 25.5853 32.7567 25.6782 32.7313 25.6711C32.7313 25.6711 32.686 25.6938 32.6251 25.7444C32.5642 25.7951 32.4891 25.9155 32.4891 25.9155L30.334 25.3649L30.5753 25.1235Z" fill="#040000"/>
<path d="M32.3486 25.2604L32.4677 25.7062C32.47 25.7035 32.4717 25.7018 32.4735 25.7C32.4944 25.6791 32.5273 25.652 32.5651 25.6422C32.5909 25.6351 32.614 25.6315 32.6349 25.64L32.4944 25.1142L32.3486 25.2604Z" fill="#36464E"/>
<path d="M32.3937 25.8902C32.3875 25.8635 32.392 25.8342 32.4026 25.8062C32.408 25.7924 32.4146 25.7786 32.4226 25.7653C32.4248 25.7613 32.4275 25.7573 32.4302 25.7533C32.4333 25.7484 32.4368 25.744 32.44 25.7391C32.4426 25.7355 32.4457 25.7315 32.4484 25.728C32.4546 25.7204 32.4608 25.7129 32.4675 25.7062L32.3488 25.2622L32.2524 25.3591L32.252 25.3569L32.3937 25.8902Z" fill="#E0E0E0"/>
<path opacity="0.4" d="M32.7817 25.5316C32.7959 25.5853 32.7564 25.6782 32.7311 25.6711L32.6346 25.6396L32.5439 25.3004L32.5884 25.1369L32.6288 25.1089L32.6719 25.1204C32.6719 25.1209 32.7671 25.4778 32.7817 25.5316Z" fill="#040000"/>
<path d="M30.3232 27.2867L30.4592 27.7956C30.4846 27.7889 30.5086 27.7769 30.5241 27.7604L30.741 27.5436L32.3926 25.8898L32.2504 25.3564L30.3232 27.2867Z" fill="#EBEBEB"/>
<path d="M26.3936 26.2898L26.4962 26.6742C26.5082 26.7187 26.554 26.7645 26.598 26.7765L30.0909 27.7182L30.3869 27.7982C30.4087 27.8045 30.4353 27.8031 30.4607 27.796L30.3398 27.3445L26.3936 26.2898Z" fill="#F5F5F5"/>
<path d="M28.3457 24.1289L32.3884 25.2191C32.3884 25.2191 32.3941 25.24 32.4008 25.2663C32.4079 25.2925 32.447 25.2925 32.4848 25.2543C32.523 25.216 32.551 25.1738 32.539 25.1285L32.5315 25.0827L28.4128 23.972L28.3959 23.9676C28.3941 23.9756 28.3937 23.9836 28.3959 23.9907L28.4017 24.0125C28.4084 24.0391 28.3835 24.0907 28.3457 24.1289Z" fill="#6C99AF"/>
<path opacity="0.1" d="M28.3457 24.1289L32.3884 25.2191C32.3884 25.2191 32.3941 25.24 32.4008 25.2663C32.4079 25.2925 32.447 25.2925 32.4848 25.2543C32.523 25.216 32.551 25.1738 32.539 25.1285L32.5315 25.0827L28.4128 23.972L28.3959 23.9676C28.3941 23.9756 28.3937 23.9836 28.3959 23.9907L28.4017 24.0125C28.4084 24.0391 28.3835 24.0907 28.3457 24.1289Z" fill="#040000"/>
<path d="M30.412 27.1987L32.3445 25.2636C32.3693 25.2405 32.3925 25.2214 32.4053 25.224L32.388 25.2196L28.3453 24.1294C28.3453 24.1294 28.3218 24.1231 28.2982 24.1165C28.272 24.1094 28.2249 24.1298 28.1925 24.1622L26.2747 26.0827C26.2262 26.1316 26.2409 26.1858 26.3071 26.2031L30.2036 27.2542C30.2702 27.2725 30.3636 27.2476 30.412 27.1987Z" fill="#6C99AF"/>
<path d="M28.3955 23.968L28.4124 23.9724L32.5311 25.0831C32.5311 25.0831 32.532 25.0769 32.536 25.0716C32.5386 25.0689 32.5422 25.0658 32.5462 25.0613L32.568 25.0396C32.576 25.0316 32.5853 25.0222 32.5946 25.0124C32.6071 25 32.6213 24.9978 32.636 25.0053C32.6377 25.0058 32.6395 25.0067 32.6408 25.008C32.6457 25.0111 32.6511 25.0151 32.6555 25.02C32.6608 25.0249 32.6657 25.0311 32.6702 25.0378C32.6751 25.0444 32.6795 25.0516 32.6835 25.0591C32.688 25.0676 32.692 25.076 32.696 25.0849C32.6986 25.0898 32.7004 25.0951 32.7022 25.1009C32.704 25.1053 32.7053 25.1093 32.7071 25.1138C32.7106 25.1236 32.7137 25.1338 32.7168 25.1449L32.6902 25.0444C32.6755 24.9889 32.6093 24.9298 32.5431 24.9116L28.6466 23.8604C28.58 23.8427 28.4955 23.8591 28.4573 23.8969L28.4213 23.9333L28.42 23.9347C28.4177 23.9373 28.4115 23.9436 28.4048 23.9498C28.4048 23.9498 28.4044 23.9498 28.4044 23.9502C28.4004 23.9542 28.3968 23.9604 28.3955 23.968Z" fill="#6C99AF"/>
<path d="M30.5797 27.8271L30.6988 27.7076L32.4881 25.916C32.4819 25.8894 32.4854 25.8605 32.4966 25.8325C32.5117 25.7925 32.5401 25.7538 32.5672 25.7263C32.5881 25.7049 32.621 25.6783 32.6588 25.668C32.6846 25.6614 32.709 25.6631 32.7303 25.672C32.7392 25.6498 32.7454 25.572 32.7223 25.4858L32.8023 25.4645C32.8321 25.5756 32.8254 25.6965 32.7872 25.7343L32.753 25.7689C32.7339 25.7885 32.7161 25.7938 32.7126 25.7814L32.7068 25.7596C32.7001 25.7356 32.6641 25.7463 32.6259 25.7845C32.5881 25.8227 32.5623 25.8729 32.569 25.8969L32.5748 25.9187C32.5783 25.9311 32.5543 25.9671 32.5219 25.9996L30.7917 27.7325L30.6041 27.92C30.6041 27.92 30.6037 27.92 30.6037 27.9205C30.5792 27.9445 30.5441 27.9627 30.5063 27.9729L30.4814 27.88C30.5201 27.8698 30.5557 27.8516 30.5797 27.8271Z" fill="#6C99AF"/>
<path opacity="0.3" d="M30.5797 27.8271L30.6988 27.7076L32.4881 25.916C32.4819 25.8894 32.4854 25.8605 32.4966 25.8325C32.5117 25.7925 32.5401 25.7538 32.5672 25.7263C32.5881 25.7049 32.621 25.6783 32.6588 25.668C32.6846 25.6614 32.709 25.6631 32.7303 25.672C32.7392 25.6498 32.7454 25.572 32.7223 25.4858L32.8023 25.4645C32.8321 25.5756 32.8254 25.6965 32.7872 25.7343L32.753 25.7689C32.7339 25.7885 32.7161 25.7938 32.7126 25.7814L32.7068 25.7596C32.7001 25.7356 32.6641 25.7463 32.6259 25.7845C32.5881 25.8227 32.5623 25.8729 32.569 25.8969L32.5748 25.9187C32.5783 25.9311 32.5543 25.9671 32.5219 25.9996L30.7917 27.7325L30.6041 27.92C30.6041 27.92 30.6037 27.92 30.6037 27.9205C30.5792 27.9445 30.5441 27.9627 30.5063 27.9729L30.4814 27.88C30.5201 27.8698 30.5557 27.8516 30.5797 27.8271Z" fill="#040000"/>
<path d="M30.4113 27.1991C30.4113 27.1991 30.4118 27.1987 30.4122 27.1987L30.5313 27.0791L31.906 25.7031L32.3447 25.2636C32.3758 25.232 32.4038 25.2165 32.4087 25.2271C32.4091 25.2276 32.4091 25.228 32.4096 25.228L32.4158 25.2516C32.4229 25.2778 32.4593 25.268 32.4971 25.2298C32.5345 25.1929 32.5451 25.156 32.5393 25.1307L32.5327 25.1049C32.5291 25.0916 32.5305 25.0765 32.5367 25.0711C32.5393 25.0685 32.5429 25.0645 32.5469 25.0609C32.5531 25.0551 32.5607 25.0476 32.5687 25.0391C32.5767 25.0311 32.586 25.0218 32.5953 25.012C32.6078 24.9996 32.622 24.9973 32.6367 25.0049C32.6385 25.0053 32.6402 25.0062 32.6416 25.0076C32.6451 25.0098 32.6482 25.012 32.6513 25.0151C32.6536 25.0165 32.6545 25.0178 32.6562 25.0196C32.6616 25.0245 32.6665 25.0307 32.6709 25.0373C32.6758 25.044 32.6802 25.0511 32.6842 25.0587C32.6887 25.0671 32.6927 25.0756 32.6967 25.0845C32.6993 25.0893 32.7011 25.0947 32.7029 25.1005C32.7047 25.1049 32.706 25.1089 32.7078 25.1133C32.7113 25.1231 32.7145 25.1333 32.7176 25.1445L32.8029 25.4636L32.7229 25.4849L32.6376 25.1658C32.6353 25.1573 32.6327 25.1489 32.63 25.1409L32.6225 25.1213C32.6225 25.1205 32.622 25.12 32.6216 25.1196C32.6313 25.1853 32.5856 25.2587 32.5411 25.3031C32.5211 25.3236 32.4891 25.3498 32.4513 25.36C32.4233 25.3676 32.3953 25.364 32.3727 25.3525L32.3665 25.3582C32.3625 25.3622 32.3589 25.3662 32.3549 25.3702L30.6247 27.1031L30.4371 27.2907C30.4371 27.2907 30.4367 27.2907 30.4367 27.2911C30.4362 27.2916 30.4358 27.2916 30.4353 27.2925C30.4109 27.3156 30.3762 27.3338 30.3393 27.3436L30.3145 27.2507C30.3558 27.2405 30.386 27.2222 30.4113 27.1991Z" fill="#6C99AF"/>
<path opacity="0.3" d="M30.4113 27.1991C30.4113 27.1991 30.4118 27.1987 30.4122 27.1987L30.5313 27.0791L31.906 25.7031L32.3447 25.2636C32.3758 25.232 32.4038 25.2165 32.4087 25.2271C32.4091 25.2276 32.4091 25.228 32.4096 25.228L32.4158 25.2516C32.4229 25.2778 32.4593 25.268 32.4971 25.2298C32.5345 25.1929 32.5451 25.156 32.5393 25.1307L32.5327 25.1049C32.5291 25.0916 32.5305 25.0765 32.5367 25.0711C32.5393 25.0685 32.5429 25.0645 32.5469 25.0609C32.5531 25.0551 32.5607 25.0476 32.5687 25.0391C32.5767 25.0311 32.586 25.0218 32.5953 25.012C32.6078 24.9996 32.622 24.9973 32.6367 25.0049C32.6385 25.0053 32.6402 25.0062 32.6416 25.0076C32.6451 25.0098 32.6482 25.012 32.6513 25.0151C32.6536 25.0165 32.6545 25.0178 32.6562 25.0196C32.6616 25.0245 32.6665 25.0307 32.6709 25.0373C32.6758 25.044 32.6802 25.0511 32.6842 25.0587C32.6887 25.0671 32.6927 25.0756 32.6967 25.0845C32.6993 25.0893 32.7011 25.0947 32.7029 25.1005C32.7047 25.1049 32.706 25.1089 32.7078 25.1133C32.7113 25.1231 32.7145 25.1333 32.7176 25.1445L32.8029 25.4636L32.7229 25.4849L32.6376 25.1658C32.6353 25.1573 32.6327 25.1489 32.63 25.1409L32.6225 25.1213C32.6225 25.1205 32.622 25.12 32.6216 25.1196C32.6313 25.1853 32.5856 25.2587 32.5411 25.3031C32.5211 25.3236 32.4891 25.3498 32.4513 25.36C32.4233 25.3676 32.3953 25.364 32.3727 25.3525L32.3665 25.3582C32.3625 25.3622 32.3589 25.3662 32.3549 25.3702L30.6247 27.1031L30.4371 27.2907C30.4371 27.2907 30.4367 27.2907 30.4367 27.2911C30.4362 27.2916 30.4358 27.2916 30.4353 27.2925C30.4109 27.3156 30.3762 27.3338 30.3393 27.3436L30.3145 27.2507C30.3558 27.2405 30.386 27.2222 30.4113 27.1991Z" fill="#040000"/>
<path d="M26.248 26.1533L26.2734 26.248C26.2792 26.2698 26.2987 26.2875 26.3307 26.2964L26.3325 26.2969L29.9729 27.2787L30.2285 27.3475V27.348C30.2285 27.348 30.2289 27.3475 30.2289 27.348C30.2623 27.3564 30.3018 27.3547 30.3392 27.3449L30.3143 27.252C30.2765 27.2622 30.2369 27.264 30.2036 27.2551L30.0409 27.2111H30.0405L26.3072 26.204C26.272 26.1938 26.2543 26.176 26.248 26.1533Z" fill="#6C99AF"/>
<path opacity="0.2" d="M26.248 26.1533L26.2734 26.248C26.2792 26.2698 26.2987 26.2875 26.3307 26.2964L26.3325 26.2969L29.9729 27.2787L30.2285 27.3475V27.348C30.2285 27.348 30.2289 27.3475 30.2289 27.348C30.2623 27.3564 30.3018 27.3547 30.3392 27.3449L30.3143 27.252C30.2765 27.2622 30.2369 27.264 30.2036 27.2551L30.0409 27.2111H30.0405L26.3072 26.204C26.272 26.1938 26.2543 26.176 26.248 26.1533Z" fill="#040000"/>
<path d="M26.416 26.7814L26.4413 26.876C26.4471 26.8978 26.4667 26.9156 26.4987 26.9245L26.5005 26.9249L30.1409 27.9067L30.3965 27.9756V27.976C30.3965 27.976 30.3969 27.9756 30.3969 27.976C30.4302 27.9845 30.4698 27.9827 30.5071 27.9729L30.4822 27.88C30.4445 27.8903 30.4049 27.892 30.3716 27.8831L30.2089 27.8391H30.2085L26.4751 26.832C26.44 26.8218 26.4222 26.8045 26.416 26.7814Z" fill="#6C99AF"/>
<path opacity="0.2" d="M26.416 26.7814L26.4413 26.876C26.4471 26.8978 26.4667 26.9156 26.4987 26.9245L26.5005 26.9249L30.1409 27.9067L30.3965 27.9756V27.976C30.3965 27.976 30.3969 27.9756 30.3969 27.976C30.4302 27.9845 30.4698 27.9827 30.5071 27.9729L30.4822 27.88C30.4445 27.8903 30.4049 27.892 30.3716 27.8831L30.2089 27.8391H30.2085L26.4751 26.832C26.44 26.8218 26.4222 26.8045 26.416 26.7814Z" fill="#040000"/>
<path d="M32.4436 24.7573L30.1272 27.0502L25.9316 25.9306L28.2476 23.6378L32.4436 24.7573Z" fill="#6C99AF"/>
<path opacity="0.2" d="M32.4436 24.7573L30.1272 27.0502L25.9316 25.9306L28.2476 23.6378L32.4436 24.7573Z" fill="white"/>
<path d="M30.0771 26.9613L32.3255 24.7258C32.2277 24.5827 32.1828 24.3973 32.1895 24.1707L29.9513 26.3898C29.9508 26.3898 29.9464 26.5338 30.0771 26.9613Z" fill="#F5F5F5"/>
<path d="M30.0125 26.188C29.9174 26.2831 29.868 26.4649 29.9027 26.5946L30.0129 27.0062C30.0476 27.136 30.1529 27.164 30.2485 27.0689L32.4707 24.8591L32.4436 24.7573L30.2427 26.936C30.1854 26.9929 30.1222 26.976 30.1018 26.8982L30.0018 26.5164C29.9809 26.4386 30.0107 26.3293 30.068 26.2724L32.2662 24.0942L32.2351 23.9786L30.0125 26.188Z" fill="#6C99AF"/>
<path opacity="0.4" d="M30.0125 26.188C29.9174 26.2831 29.868 26.4649 29.9027 26.5946L30.0129 27.0062C30.0476 27.136 30.1529 27.164 30.2485 27.0689L32.4707 24.8591L32.4436 24.7573L30.2427 26.936C30.1854 26.9929 30.1222 26.976 30.1018 26.8982L30.0018 26.5164C29.9809 26.4386 30.0107 26.3293 30.068 26.2724L32.2662 24.0942L32.2351 23.9786L30.0125 26.188Z" fill="white"/>
<path d="M32.2349 23.9786L28.0394 22.8586L25.8172 25.068C25.722 25.1631 25.6727 25.3453 25.7074 25.4746L25.8172 25.8862C25.8345 25.9506 25.8692 25.9902 25.9123 26.0018L30.1078 27.1218C30.0652 27.1102 30.03 27.0706 30.0127 27.0062L29.9025 26.5946C29.8678 26.4649 29.9172 26.2826 30.0123 26.188L32.2349 23.9786Z" fill="#6C99AF"/>
<path opacity="0.85" d="M32.2349 23.9786L28.0394 22.8586L25.8172 25.068C25.722 25.1631 25.6727 25.3453 25.7074 25.4746L25.8172 25.8862C25.8345 25.9506 25.8692 25.9902 25.9123 26.0018L30.1078 27.1218C30.0652 27.1102 30.03 27.0706 30.0127 27.0062L29.9025 26.5946C29.8678 26.4649 29.9172 26.2826 30.0123 26.188L32.2349 23.9786Z" fill="white"/>
<path d="M29.9088 26.3787C29.8888 26.4524 29.8852 26.5302 29.9025 26.5951L30.0127 27.0067C30.0301 27.0711 30.0647 27.1107 30.1079 27.1222L25.9123 26.0022C25.8696 25.9907 25.8345 25.9511 25.8172 25.8867L25.7074 25.4751C25.6901 25.4102 25.6936 25.3324 25.7136 25.2587L29.9088 26.3787Z" fill="#6C99AF"/>
<path opacity="0.6" d="M29.9088 26.3787C29.8888 26.4524 29.8852 26.5302 29.9025 26.5951L30.0127 27.0067C30.0301 27.0711 30.0647 27.1107 30.1079 27.1222L25.9123 26.0022C25.8696 25.9907 25.8345 25.9511 25.8172 25.8867L25.7074 25.4751C25.6901 25.4102 25.6936 25.3324 25.7136 25.2587L29.9088 26.3787Z" fill="white"/>
<path d="M26.2666 25.4036C26.2777 25.7093 26.3448 25.9578 26.4666 26.1516L26.6617 26.204C26.5399 26.0102 26.4728 25.7618 26.4617 25.456L26.2666 25.4036Z" fill="white"/>
<path d="M29.0557 26.1556C29.0668 26.4614 29.1339 26.7098 29.2557 26.9036L29.4508 26.956C29.329 26.7622 29.2619 26.5138 29.2508 26.208L29.0557 26.1556Z" fill="white"/>
<path d="M31.8826 23.9343L29.8493 25.9321L25.6035 24.7987L27.6364 22.8014L31.8826 23.9343Z" fill="#6C99AF"/>
<path opacity="0.6" d="M31.8826 23.9343L29.8493 25.9321L25.6035 24.7987L27.6364 22.8014L31.8826 23.9343Z" fill="#040000"/>
<path d="M29.7975 25.8396L31.7602 23.9014C31.6588 23.7529 31.6499 23.7023 31.6566 23.4672L29.7046 25.3881C29.7046 25.3881 29.6619 25.3961 29.7975 25.8396Z" fill="#F5F5F5"/>
<path d="M29.7679 25.1792C29.6692 25.2778 29.6181 25.4663 29.6541 25.601L29.7306 25.8863C29.7666 26.021 29.8759 26.0498 29.9746 25.9516L31.9101 24.0405L31.8821 23.9347L29.9688 25.8138C29.9097 25.873 29.8439 25.8556 29.8226 25.7747L29.7568 25.5201C29.7354 25.4392 29.7661 25.3263 29.8252 25.2672L31.7359 23.3881L31.7039 23.2681L29.7679 25.1792Z" fill="#6C99AF"/>
<path opacity="0.5" d="M29.7679 25.1792C29.6692 25.2778 29.6181 25.4663 29.6541 25.601L29.7306 25.8863C29.7666 26.021 29.8759 26.0498 29.9746 25.9516L31.9101 24.0405L31.8821 23.9347L29.9688 25.8138C29.9097 25.873 29.8439 25.8556 29.8226 25.7747L29.7568 25.5201C29.7354 25.4392 29.7661 25.3263 29.8252 25.2672L31.7359 23.3881L31.7039 23.2681L29.7679 25.1792Z" fill="#040000"/>
<path d="M31.7051 23.268L27.4593 22.1351L25.5237 24.0462C25.4251 24.1445 25.374 24.3338 25.41 24.468L25.4864 24.7534C25.5046 24.8205 25.5406 24.8614 25.5851 24.8729L29.8309 26.0058C29.7864 25.9938 29.7504 25.9529 29.7322 25.8862L29.6553 25.6005C29.6193 25.4662 29.6704 25.2774 29.7691 25.1787L31.7051 23.268Z" fill="#6C99AF"/>
<path opacity="0.35" d="M31.7051 23.268L27.4593 22.1351L25.5237 24.0462C25.4251 24.1445 25.374 24.3338 25.41 24.468L25.4864 24.7534C25.5046 24.8205 25.5406 24.8614 25.5851 24.8729L29.8309 26.0058C29.7864 25.9938 29.7504 25.9529 29.7322 25.8862L29.6553 25.6005C29.6193 25.4662 29.6704 25.2774 29.7691 25.1787L31.7051 23.268Z" fill="#040000"/>
<path d="M29.6614 25.3765C29.641 25.4529 29.637 25.5338 29.6552 25.6009L29.7321 25.8867C29.7503 25.9538 29.7863 25.9947 29.8308 26.0062L25.585 24.8734C25.5406 24.8614 25.5046 24.8205 25.4863 24.7538L25.4099 24.4685C25.3921 24.4014 25.3957 24.3205 25.4161 24.244L29.6614 25.3765Z" fill="#6C99AF"/>
<path opacity="0.45" d="M29.6614 25.3765C29.641 25.4529 29.637 25.5338 29.6552 25.6009L29.7321 25.8867C29.7503 25.9538 29.7863 25.9947 29.8308 26.0062L25.585 24.8734C25.5406 24.8614 25.5046 24.8205 25.4863 24.7538L25.4099 24.4685C25.3921 24.4014 25.3957 24.3205 25.4161 24.244L29.6614 25.3765Z" fill="#040000"/>
<path d="M25.9883 24.3938C25.9994 24.7107 26.0318 24.8271 26.1581 25.028L26.3603 25.0827C26.2341 24.8818 26.2021 24.7654 26.1905 24.4485L25.9883 24.3938Z" fill="#6C99AF"/>
<path d="M28.7734 25.1387C28.7845 25.4556 28.8161 25.5681 28.9419 25.7694L29.1441 25.8241C29.0179 25.6232 28.9868 25.5107 28.9757 25.1934L28.7734 25.1387Z" fill="#6C99AF"/>
<path d="M32.1434 23.1796L30.11 25.1769L25.8643 24.044L27.8971 22.0467L32.1434 23.1796Z" fill="#6C99AF"/>
<path opacity="0.4" d="M32.1434 23.1796L30.11 25.1769L25.8643 24.044L27.8971 22.0467L32.1434 23.1796Z" fill="#040000"/>
<path d="M30.0569 25.085L32.0196 23.1467C31.9182 22.9983 31.9031 22.9241 31.9098 22.689L29.9578 24.6099C29.9573 24.6099 29.9213 24.6414 30.0569 25.085Z" fill="#F5F5F5"/>
<path d="M30.0218 24.4009C29.9231 24.4996 29.872 24.688 29.908 24.8227L29.9907 25.1316C30.0267 25.2663 30.136 25.2952 30.2347 25.1969L32.1702 23.2858L32.1422 23.18L30.2289 25.0592C30.1698 25.1183 30.104 25.1005 30.0827 25.02L30.0102 24.7418C29.9889 24.6609 30.0196 24.5476 30.0787 24.4885L31.9894 22.6094L31.9574 22.4894L30.0218 24.4009Z" fill="#6C99AF"/>
<path opacity="0.25" d="M30.0218 24.4009C29.9231 24.4996 29.872 24.688 29.908 24.8227L29.9907 25.1316C30.0267 25.2663 30.136 25.2952 30.2347 25.1969L32.1702 23.2858L32.1422 23.18L30.2289 25.0592C30.1698 25.1183 30.104 25.1005 30.0827 25.02L30.0102 24.7418C29.9889 24.6609 30.0196 24.5476 30.0787 24.4885L31.9894 22.6094L31.9574 22.4894L30.0218 24.4009Z" fill="#040000"/>
<path d="M31.958 22.4898L27.7122 21.3569L25.7767 23.268C25.678 23.3663 25.6269 23.5556 25.6629 23.6898L25.7456 23.9987C25.7638 24.0658 25.7998 24.1067 25.8442 24.1183L30.0896 25.2516C30.0451 25.2396 30.0091 25.1987 29.9909 25.132L29.9078 24.8227C29.8718 24.6885 29.9229 24.4996 30.0216 24.4009L31.958 22.4898Z" fill="#6C99AF"/>
<path d="M29.9154 24.5983C29.8949 24.6747 29.8909 24.7556 29.9091 24.8227L29.9922 25.132C30.0105 25.1992 30.0465 25.24 30.0909 25.2516L25.8451 24.1187C25.8007 24.1067 25.7647 24.0658 25.7465 23.9992L25.6638 23.6903C25.646 23.6232 25.6496 23.5423 25.67 23.4658L29.9154 24.5983Z" fill="#6C99AF"/>
<path opacity="0.15" d="M29.9154 24.5983C29.8949 24.6747 29.8909 24.7556 29.9091 24.8227L29.9922 25.132C30.0105 25.1992 30.0465 25.24 30.0909 25.2516L25.8451 24.1187C25.8007 24.1067 25.7647 24.0658 25.7465 23.9992L25.6638 23.6903C25.646 23.6232 25.6496 23.5423 25.67 23.4658L29.9154 24.5983Z" fill="#040000"/>
<path d="M26.2422 23.6156C26.2533 23.9325 26.292 24.0725 26.4182 24.2734L26.6204 24.328C26.4942 24.1272 26.456 23.9872 26.4444 23.6703L26.2422 23.6156Z" fill="#6C99AF"/>
<path d="M29.0273 24.3622C29.0385 24.6791 29.0758 24.8142 29.202 25.0151L29.4042 25.0698C29.278 24.8689 29.2407 24.7329 29.2296 24.416L29.0273 24.3622Z" fill="#6C99AF"/>
<g opacity="0.4">
<path d="M26.2422 23.6156C26.2533 23.9325 26.292 24.0725 26.4182 24.2734L26.6204 24.328C26.4942 24.1272 26.456 23.9872 26.4444 23.6703L26.2422 23.6156Z" fill="white"/>
<path d="M29.0273 24.3622C29.0385 24.6791 29.0758 24.8142 29.202 25.0151L29.4042 25.0698C29.278 24.8689 29.2407 24.7329 29.2296 24.416L29.0273 24.3622Z" fill="white"/>
</g>
<path d="M31.4035 22.5027L31.2861 22.4751L31.3732 22.4276C31.3986 22.4449 31.407 22.4707 31.4035 22.5027Z" fill="#6C99AF"/>
<path opacity="0.5" d="M31.4035 22.5027L31.2861 22.4751L31.3732 22.4276C31.3986 22.4449 31.407 22.4707 31.4035 22.5027Z" fill="#040000"/>
<path d="M29.0566 24.5987C29.1229 24.6164 29.2162 24.5916 29.2651 24.5431L31.2415 22.564L27.2077 21.5067L27.1131 21.4809L25.1282 23.4271C25.0797 23.476 25.0944 23.5302 25.1606 23.5476L29.0566 24.5987Z" fill="#6C99AF"/>
<path d="M29.2599 21.8395L30.2012 22.092L30.6474 21.6453L31.3568 21.8369C31.3568 21.8369 31.4523 22.1938 31.4666 22.2475C31.4808 22.3013 31.4412 22.3942 31.4159 22.3871C31.4159 22.3871 31.3706 22.4098 31.3097 22.4604C31.2488 22.5111 31.1737 22.6315 31.1737 22.6315L29.0186 22.0809L29.2599 21.8395Z" fill="#6C99AF"/>
<path opacity="0.15" d="M29.2599 21.8395L30.2012 22.092L30.6474 21.6453L31.3568 21.8369C31.3568 21.8369 31.4523 22.1938 31.4666 22.2475C31.4808 22.3013 31.4412 22.3942 31.4159 22.3871C31.4159 22.3871 31.3706 22.4098 31.3097 22.4604C31.2488 22.5111 31.1737 22.6315 31.1737 22.6315L29.0186 22.0809L29.2599 21.8395Z" fill="#040000"/>
<path d="M31.0332 21.9764L31.1523 22.4222C31.1545 22.4195 31.1563 22.4178 31.1581 22.416C31.179 22.3951 31.2119 22.368 31.2496 22.3582C31.2754 22.3511 31.2985 22.3475 31.3194 22.356L31.179 21.8302L31.0332 21.9764Z" fill="#36464E"/>
<path d="M31.0783 22.6062C31.0721 22.5795 31.0765 22.5502 31.0872 22.5222C31.0925 22.5084 31.0992 22.4947 31.1072 22.4813C31.1094 22.4773 31.1121 22.4733 31.1147 22.4693C31.1179 22.4644 31.1214 22.46 31.1245 22.4551C31.1272 22.4515 31.1303 22.4475 31.133 22.444C31.1392 22.4364 31.1454 22.4289 31.1521 22.4222L31.0334 21.9782L30.937 22.0751L30.9365 22.0729L31.0783 22.6062Z" fill="#E0E0E0"/>
<path opacity="0.4" d="M31.4663 22.2476C31.4805 22.3013 31.441 22.3942 31.4156 22.3871L31.3192 22.3556L31.2285 22.0164L31.273 21.8529L31.3134 21.8249L31.3561 21.8364C31.3565 21.8369 31.4521 22.1938 31.4663 22.2476Z" fill="#040000"/>
<path d="M29.0088 24.0027L29.1448 24.5116C29.1701 24.5049 29.1941 24.4929 29.2097 24.4764L29.4266 24.2596L31.0781 22.6058L30.9359 22.0724L29.0088 24.0027Z" fill="#EBEBEB"/>
<path d="M25.0781 23.0058L25.1808 23.3902C25.1928 23.4342 25.2386 23.4805 25.2826 23.4925L28.7755 24.4342L29.0715 24.5142C29.0932 24.5205 29.1199 24.5191 29.1452 24.512L29.0243 24.0605L25.0781 23.0058Z" fill="#F5F5F5"/>
<path d="M27.0312 20.8449L31.0739 21.9351C31.0739 21.9351 31.0797 21.956 31.0864 21.9823C31.0935 22.0085 31.1326 22.0085 31.1704 21.9703C31.2086 21.932 31.2366 21.8898 31.2246 21.8445L31.217 21.7987L27.0984 20.688L27.0815 20.6836C27.0797 20.6916 27.0793 20.6996 27.0815 20.7067L27.0873 20.7285C27.0939 20.7551 27.069 20.8063 27.0312 20.8449Z" fill="#6C99AF"/>
<path opacity="0.1" d="M27.0312 20.8449L31.0739 21.9351C31.0739 21.9351 31.0797 21.956 31.0864 21.9823C31.0935 22.0085 31.1326 22.0085 31.1704 21.9703C31.2086 21.932 31.2366 21.8898 31.2246 21.8445L31.217 21.7987L27.0984 20.688L27.0815 20.6836C27.0797 20.6916 27.0793 20.6996 27.0815 20.7067L27.0873 20.7285C27.0939 20.7551 27.069 20.8063 27.0312 20.8449Z" fill="#040000"/>
<path d="M29.0966 23.9146L31.029 21.9795C31.0539 21.9564 31.077 21.9373 31.0899 21.94L31.0726 21.9355L27.0299 20.8453C27.0299 20.8453 27.0064 20.8391 26.9828 20.8324C26.9566 20.8253 26.9095 20.8457 26.877 20.8782L24.9592 22.7986C24.9108 22.8475 24.9255 22.9017 24.9917 22.9191L28.8886 23.9702C28.9548 23.988 29.0481 23.9631 29.0966 23.9146Z" fill="#6C99AF"/>
<path d="M27.0811 20.684L27.0979 20.6884L31.2166 21.7991C31.2166 21.7991 31.2175 21.7929 31.2215 21.7876C31.2242 21.7849 31.2277 21.7818 31.2317 21.7773L31.2535 21.7556C31.2615 21.7476 31.2708 21.7382 31.2802 21.7284C31.2926 21.716 31.3068 21.7138 31.3215 21.7213C31.3233 21.7218 31.3251 21.7227 31.3264 21.724C31.3313 21.7271 31.3366 21.7311 31.3411 21.736C31.3464 21.7409 31.3513 21.7471 31.3557 21.7538C31.3606 21.7604 31.3651 21.7676 31.3691 21.7751C31.3735 21.7836 31.3775 21.792 31.3815 21.8009C31.3842 21.8058 31.3859 21.8111 31.3877 21.8169C31.3895 21.8213 31.3908 21.8253 31.3926 21.8298C31.3962 21.8396 31.3993 21.8498 31.4024 21.8609L31.3757 21.7604C31.3611 21.7049 31.2948 21.6458 31.2286 21.6276L27.3322 20.5764C27.2655 20.5587 27.1811 20.5751 27.1428 20.6129L27.1068 20.6493L27.1055 20.6507C27.1033 20.6533 27.0971 20.6596 27.0904 20.6658C27.0904 20.6658 27.0899 20.6658 27.0899 20.6662C27.0859 20.6702 27.0828 20.6764 27.0811 20.684Z" fill="#6C99AF"/>
<path d="M29.2652 24.5427L29.3843 24.4231L31.1737 22.6315C31.1674 22.6049 31.171 22.576 31.1821 22.548C31.1972 22.508 31.2257 22.4693 31.2528 22.4418C31.2737 22.4204 31.3065 22.3938 31.3443 22.3835C31.3701 22.3769 31.3945 22.3787 31.4159 22.3875C31.4248 22.3653 31.431 22.2875 31.4079 22.2013L31.4879 22.18C31.5177 22.2911 31.511 22.412 31.4728 22.4498L31.4385 22.4844C31.4194 22.504 31.4017 22.5093 31.3981 22.4969L31.3923 22.4751C31.3857 22.4511 31.3497 22.4618 31.3114 22.5C31.2737 22.5382 31.2479 22.5884 31.2545 22.6124L31.2603 22.6342C31.2634 22.6467 31.2399 22.6827 31.2074 22.7151L29.4772 24.448L29.2897 24.6355C29.2897 24.6355 29.2892 24.6355 29.2892 24.636C29.2648 24.66 29.2297 24.6782 29.1919 24.6884L29.167 24.5955C29.2052 24.5853 29.2408 24.5675 29.2652 24.5427Z" fill="#6C99AF"/>
<path opacity="0.3" d="M29.2652 24.5427L29.3843 24.4231L31.1737 22.6315C31.1674 22.6049 31.171 22.576 31.1821 22.548C31.1972 22.508 31.2257 22.4693 31.2528 22.4418C31.2737 22.4204 31.3065 22.3938 31.3443 22.3835C31.3701 22.3769 31.3945 22.3787 31.4159 22.3875C31.4248 22.3653 31.431 22.2875 31.4079 22.2013L31.4879 22.18C31.5177 22.2911 31.511 22.412 31.4728 22.4498L31.4385 22.4844C31.4194 22.504 31.4017 22.5093 31.3981 22.4969L31.3923 22.4751C31.3857 22.4511 31.3497 22.4618 31.3114 22.5C31.2737 22.5382 31.2479 22.5884 31.2545 22.6124L31.2603 22.6342C31.2634 22.6467 31.2399 22.6827 31.2074 22.7151L29.4772 24.448L29.2897 24.6355C29.2897 24.6355 29.2892 24.6355 29.2892 24.636C29.2648 24.66 29.2297 24.6782 29.1919 24.6884L29.167 24.5955C29.2052 24.5853 29.2408 24.5675 29.2652 24.5427Z" fill="#040000"/>
<path d="M29.0959 23.9151C29.0959 23.9151 29.0964 23.9147 29.0968 23.9147L29.2159 23.7951L30.5906 22.4191L31.0292 21.9796C31.0604 21.948 31.0884 21.9324 31.0932 21.9431C31.0937 21.9436 31.0937 21.944 31.0941 21.9444L31.1004 21.968C31.1075 21.9942 31.1439 21.9844 31.1817 21.9462C31.219 21.9093 31.2297 21.8724 31.2239 21.8471L31.2172 21.8213C31.2137 21.808 31.215 21.7929 31.2212 21.7876C31.2239 21.7849 31.2275 21.7809 31.2315 21.7773C31.2377 21.7716 31.2452 21.764 31.2532 21.7556C31.2612 21.7476 31.2706 21.7382 31.2799 21.7284C31.2924 21.716 31.3066 21.7138 31.3212 21.7213C31.323 21.7218 31.3248 21.7227 31.3261 21.724C31.3297 21.7262 31.3328 21.7284 31.3359 21.7316C31.3381 21.7329 31.339 21.7342 31.3408 21.736C31.3461 21.7409 31.351 21.7471 31.3555 21.7538C31.3604 21.7604 31.3648 21.7676 31.3688 21.7751C31.3732 21.7836 31.3772 21.792 31.3812 21.8009C31.3839 21.8058 31.3857 21.8111 31.3875 21.8169C31.3892 21.8213 31.3906 21.8253 31.3924 21.8298C31.3959 21.8396 31.399 21.8498 31.4021 21.8609L31.4875 22.18L31.4075 22.2013L31.3221 21.8822C31.3199 21.8738 31.3172 21.8653 31.3146 21.8573L31.307 21.8378C31.307 21.8369 31.3066 21.8364 31.3061 21.836C31.3159 21.9018 31.2701 21.9751 31.2257 22.0196C31.2057 22.04 31.1737 22.0662 31.1359 22.0764C31.1079 22.084 31.0799 22.0804 31.0572 22.0689L31.051 22.0747C31.047 22.0787 31.0435 22.0827 31.0395 22.0867L29.3092 23.8196L29.1217 24.0071C29.1217 24.0071 29.1212 24.0071 29.1212 24.0076C29.1208 24.008 29.1204 24.008 29.1199 24.0089C29.0955 24.032 29.0608 24.0502 29.0239 24.06L28.999 23.9671C29.0404 23.9564 29.071 23.9382 29.0959 23.9151Z" fill="#6C99AF"/>
<path opacity="0.3" d="M29.0959 23.9151C29.0959 23.9151 29.0964 23.9147 29.0968 23.9147L29.2159 23.7951L30.5906 22.4191L31.0292 21.9796C31.0604 21.948 31.0884 21.9324 31.0932 21.9431C31.0937 21.9436 31.0937 21.944 31.0941 21.9444L31.1004 21.968C31.1075 21.9942 31.1439 21.9844 31.1817 21.9462C31.219 21.9093 31.2297 21.8724 31.2239 21.8471L31.2172 21.8213C31.2137 21.808 31.215 21.7929 31.2212 21.7876C31.2239 21.7849 31.2275 21.7809 31.2315 21.7773C31.2377 21.7716 31.2452 21.764 31.2532 21.7556C31.2612 21.7476 31.2706 21.7382 31.2799 21.7284C31.2924 21.716 31.3066 21.7138 31.3212 21.7213C31.323 21.7218 31.3248 21.7227 31.3261 21.724C31.3297 21.7262 31.3328 21.7284 31.3359 21.7316C31.3381 21.7329 31.339 21.7342 31.3408 21.736C31.3461 21.7409 31.351 21.7471 31.3555 21.7538C31.3604 21.7604 31.3648 21.7676 31.3688 21.7751C31.3732 21.7836 31.3772 21.792 31.3812 21.8009C31.3839 21.8058 31.3857 21.8111 31.3875 21.8169C31.3892 21.8213 31.3906 21.8253 31.3924 21.8298C31.3959 21.8396 31.399 21.8498 31.4021 21.8609L31.4875 22.18L31.4075 22.2013L31.3221 21.8822C31.3199 21.8738 31.3172 21.8653 31.3146 21.8573L31.307 21.8378C31.307 21.8369 31.3066 21.8364 31.3061 21.836C31.3159 21.9018 31.2701 21.9751 31.2257 22.0196C31.2057 22.04 31.1737 22.0662 31.1359 22.0764C31.1079 22.084 31.0799 22.0804 31.0572 22.0689L31.051 22.0747C31.047 22.0787 31.0435 22.0827 31.0395 22.0867L29.3092 23.8196L29.1217 24.0071C29.1217 24.0071 29.1212 24.0071 29.1212 24.0076C29.1208 24.008 29.1204 24.008 29.1199 24.0089C29.0955 24.032 29.0608 24.0502 29.0239 24.06L28.999 23.9671C29.0404 23.9564 29.071 23.9382 29.0959 23.9151Z" fill="#040000"/>
<path d="M24.9326 22.8693L24.958 22.964C24.9637 22.9858 24.9833 23.0035 25.0153 23.0124L25.0171 23.0129L28.6575 23.9947L28.9131 24.0635V24.064C28.9131 24.064 28.9135 24.0635 28.9135 24.064C28.9468 24.0724 28.9864 24.0707 29.0237 24.0609L28.9988 23.968C28.9611 23.9782 28.9215 23.98 28.8882 23.9711L28.7255 23.9271H28.7251L24.9917 22.92C24.9562 22.9098 24.9384 22.892 24.9326 22.8693Z" fill="#6C99AF"/>
<path opacity="0.2" d="M24.9326 22.8693L24.958 22.964C24.9637 22.9858 24.9833 23.0035 25.0153 23.0124L25.0171 23.0129L28.6575 23.9947L28.9131 24.0635V24.064C28.9131 24.064 28.9135 24.0635 28.9135 24.064C28.9468 24.0724 28.9864 24.0707 29.0237 24.0609L28.9988 23.968C28.9611 23.9782 28.9215 23.98 28.8882 23.9711L28.7255 23.9271H28.7251L24.9917 22.92C24.9562 22.9098 24.9384 22.892 24.9326 22.8693Z" fill="#040000"/>
<path d="M25.1016 23.4973L25.1269 23.592C25.1327 23.6138 25.1522 23.6315 25.1842 23.6404L25.186 23.6409L28.826 24.6222L29.0816 24.6911V24.6915C29.0816 24.6915 29.082 24.6911 29.082 24.6915C29.1153 24.7 29.1549 24.6982 29.1922 24.6884L29.1673 24.5955C29.1296 24.6058 29.09 24.6075 29.0567 24.5986L28.894 24.5546H28.8936L25.1602 23.5475C25.1251 23.5378 25.1073 23.52 25.1016 23.4973Z" fill="#6C99AF"/>
<path opacity="0.2" d="M25.1016 23.4973L25.1269 23.592C25.1327 23.6138 25.1522 23.6315 25.1842 23.6404L25.186 23.6409L28.826 24.6222L29.0816 24.6911V24.6915C29.0816 24.6915 29.082 24.6911 29.082 24.6915C29.1153 24.7 29.1549 24.6982 29.1922 24.6884L29.1673 24.5955C29.1296 24.6058 29.09 24.6075 29.0567 24.5986L28.894 24.5546H28.8936L25.1602 23.5475C25.1251 23.5378 25.1073 23.52 25.1016 23.4973Z" fill="#040000"/>
<path d="M31.7415 21.5792L29.425 23.872L25.2295 22.7525L27.5455 20.4596L31.7415 21.5792Z" fill="#6C99AF"/>
<path opacity="0.2" d="M31.7415 21.5792L29.425 23.872L25.2295 22.7525L27.5455 20.4596L31.7415 21.5792Z" fill="white"/>
<path d="M29.3749 23.7831L31.6234 21.5475C31.5256 21.4044 31.4807 21.2191 31.4874 20.9924L29.2491 23.2115C29.2487 23.2115 29.2443 23.3555 29.3749 23.7831Z" fill="#F5F5F5"/>
<path d="M29.3103 23.0098C29.2152 23.1049 29.1659 23.2867 29.2005 23.4165L29.3108 23.828C29.3454 23.9578 29.4508 23.9858 29.5463 23.8907L31.7685 21.6809L31.7414 21.5791L29.5405 23.7578C29.4832 23.8147 29.4201 23.7978 29.3997 23.72L29.2997 23.3383C29.2788 23.2605 29.3085 23.1511 29.3659 23.0943L31.5641 20.916L31.533 20.8005L29.3103 23.0098Z" fill="#6C99AF"/>
<path opacity="0.4" d="M29.3103 23.0098C29.2152 23.1049 29.1659 23.2867 29.2005 23.4165L29.3108 23.828C29.3454 23.9578 29.4508 23.9858 29.5463 23.8907L31.7685 21.6809L31.7414 21.5791L29.5405 23.7578C29.4832 23.8147 29.4201 23.7978 29.3997 23.72L29.2997 23.3383C29.2788 23.2605 29.3085 23.1511 29.3659 23.0943L31.5641 20.916L31.533 20.8005L29.3103 23.0098Z" fill="white"/>
<path d="M31.5328 20.8005L27.3372 19.6805L25.115 21.8898C25.0199 21.9849 24.9706 22.1671 25.0052 22.2965L25.115 22.708C25.1323 22.7725 25.167 22.812 25.2101 22.8236L29.4057 23.9436C29.363 23.932 29.3279 23.8925 29.3106 23.828L29.2003 23.4165C29.1657 23.2867 29.215 23.1045 29.3101 23.0098L31.5328 20.8005Z" fill="#6C99AF"/>
<path opacity="0.85" d="M31.5328 20.8005L27.3372 19.6805L25.115 21.8898C25.0199 21.9849 24.9706 22.1671 25.0052 22.2965L25.115 22.708C25.1323 22.7725 25.167 22.812 25.2101 22.8236L29.4057 23.9436C29.363 23.932 29.3279 23.8925 29.3106 23.828L29.2003 23.4165C29.1657 23.2867 29.215 23.1045 29.3101 23.0098L31.5328 20.8005Z" fill="white"/>
<path d="M29.2066 23.2004C29.1866 23.2742 29.183 23.352 29.2004 23.4169L29.3106 23.8284C29.3279 23.8929 29.3626 23.9324 29.4057 23.944L25.2102 22.824C25.1675 22.8124 25.1324 22.7729 25.115 22.7084L25.0053 22.2969C24.9879 22.232 24.9915 22.1542 25.0115 22.0804L29.2066 23.2004Z" fill="#6C99AF"/>
<path opacity="0.6" d="M29.2066 23.2004C29.1866 23.2742 29.183 23.352 29.2004 23.4169L29.3106 23.8284C29.3279 23.8929 29.3626 23.9324 29.4057 23.944L25.2102 22.824C25.1675 22.8124 25.1324 22.7729 25.115 22.7084L25.0053 22.2969C24.9879 22.232 24.9915 22.1542 25.0115 22.0804L29.2066 23.2004Z" fill="white"/>
<path d="M25.5635 22.2253C25.5746 22.5311 25.6417 22.7796 25.7635 22.9733L25.9586 23.0258C25.8368 22.832 25.7697 22.5836 25.7586 22.2778L25.5635 22.2253Z" fill="white"/>
<path d="M28.3525 22.9774C28.3637 23.2831 28.4308 23.5316 28.5525 23.7254L28.7477 23.7778C28.6259 23.584 28.5588 23.3356 28.5477 23.0298L28.3525 22.9774Z" fill="white"/>
<path d="M27.836 42.9436L27.4756 -1.09772L27.5516 -1.10083L27.912 42.9409L27.836 42.9436Z" fill="#26323F"/>
<path d="M29.6789 28.6307L29.334 -12.3013L29.4095 -12.3027L29.7487 28.6533L29.6789 28.6307Z" fill="#26323F"/>
<path d="M18.3257 25.0684C18.3159 25.0604 18.4453 24.7457 18.6146 24.3653C18.7839 23.9848 18.9288 23.6835 18.9386 23.6915C18.9484 23.6995 18.819 24.0142 18.6497 24.3946C18.4808 24.7751 18.3355 25.0768 18.3257 25.0684Z" fill="#91A7AF"/>
<path d="M18.0699 18.0164C18.0601 18.0084 18.1894 17.6938 18.3587 17.3133C18.5281 16.9329 18.673 16.6316 18.6827 16.6396C18.6925 16.6476 18.5632 16.9622 18.3939 17.3427C18.225 17.7227 18.0796 18.0244 18.0699 18.0164Z" fill="#91A7AF"/>
<path d="M18.5982 34.8827C18.5884 34.8747 18.7177 34.56 18.8871 34.1795C19.0564 33.7991 19.2013 33.4978 19.2111 33.5058C19.2208 33.5138 19.0915 33.8284 18.9222 34.2089C18.7528 34.5889 18.608 34.8907 18.5982 34.8827Z" fill="#91A7AF"/>
<path d="M13.3335 36.6942C13.3237 36.6862 13.4531 36.3716 13.6224 35.9911C13.7917 35.6107 13.9366 35.3094 13.9464 35.3174C13.9562 35.3254 13.8269 35.64 13.6575 36.0205C13.4882 36.4005 13.3433 36.7022 13.3335 36.6942Z" fill="#91A7AF"/>
<path d="M35.4077 31.8076C35.398 31.7996 35.5273 31.4849 35.6966 31.1045C35.866 30.724 36.0109 30.4227 36.0206 30.4307C36.0304 30.4387 35.9011 30.7534 35.7317 31.1338C35.5624 31.5143 35.4175 31.816 35.4077 31.8076Z" fill="#91A7AF"/>
<path d="M29.271 42.1875C29.2612 42.1795 29.3906 41.8649 29.5599 41.4844C29.7292 41.104 29.8741 40.8026 29.8839 40.8106C29.8937 40.8186 29.7644 41.1333 29.595 41.5138C29.4257 41.8938 29.2808 42.1955 29.271 42.1875Z" fill="#91A7AF"/>
<path d="M32.1548 46.1432C32.145 46.1352 32.2744 45.8205 32.4437 45.44C32.613 45.0596 32.7579 44.7583 32.7677 44.7663C32.7775 44.7743 32.6482 45.0889 32.4788 45.4694C32.3099 45.8498 32.1646 46.1512 32.1548 46.1432Z" fill="#91A7AF"/>
<path d="M39.0064 30.052C38.9966 30.044 39.1259 29.7293 39.2953 29.3489C39.4646 28.9684 39.6095 28.6671 39.6193 28.6751C39.629 28.6831 39.4997 28.9977 39.3304 29.3782C39.161 29.7582 39.0162 30.06 39.0064 30.052Z" fill="#91A7AF"/>
<path d="M39.8931 23.476C39.8833 23.468 40.0127 23.1533 40.182 22.7729C40.3513 22.3924 40.4962 22.0911 40.506 22.0991C40.5158 22.1071 40.3864 22.4218 40.2171 22.8022C40.0478 23.1826 39.9029 23.4844 39.8931 23.476Z" fill="#91A7AF"/>
<path d="M37.4966 14.1493C37.4868 14.1413 37.6162 13.8267 37.7855 13.4462C37.9548 13.0658 38.0997 12.7644 38.1095 12.7724C38.1193 12.7804 37.9899 13.0951 37.8206 13.4755C37.6517 13.856 37.5064 14.1578 37.4966 14.1493Z" fill="#91A7AF"/>
<path d="M33.7857 26.2822C33.7759 26.2742 33.9052 25.9595 34.0746 25.5791C34.2439 25.1986 34.3888 24.8973 34.3986 24.9053C34.4083 24.9133 34.279 25.228 34.1097 25.6084C33.9403 25.9884 33.7955 26.2902 33.7857 26.2822Z" fill="#91A7AF"/>
<path d="M37.2603 22.1649C37.2505 22.1569 37.3798 21.8422 37.5492 21.4618C37.7185 21.0813 37.8634 20.78 37.8732 20.788C37.883 20.796 37.7536 21.1107 37.5843 21.4911C37.415 21.8711 37.2701 22.1729 37.2603 22.1649Z" fill="#91A7AF"/>
<path d="M22.6011 16.2445C22.5913 16.2365 22.7207 15.9218 22.89 15.5414C23.0593 15.1609 23.2042 14.8596 23.214 14.8676C23.2238 14.8756 23.0944 15.1903 22.9251 15.5707C22.7558 15.9507 22.6109 16.2525 22.6011 16.2445Z" fill="#91A7AF"/>
<path d="M13.9468 29.6516C13.937 29.6436 14.0664 29.3289 14.2357 28.9485C14.405 28.568 14.5499 28.2667 14.5597 28.2747C14.5695 28.2827 14.4401 28.5974 14.2708 28.9778C14.1015 29.3582 13.9561 29.6596 13.9468 29.6516Z" fill="#91A7AF"/>
<path d="M18.3257 30.24C18.3159 30.232 18.4453 29.9173 18.6146 29.5368C18.7839 29.1564 18.9288 28.8551 18.9386 28.8631C18.9484 28.8711 18.819 29.1857 18.6497 29.5662C18.4808 29.9466 18.3355 30.248 18.3257 30.24Z" fill="#91A7AF"/>
</g>
</g>
<defs>
<clipPath id="clip0_1141_49281">
<rect width="48" height="48" rx="24" fill="white"/>
</clipPath>
<clipPath id="clip1_1141_49281">
<rect width="48" height="48" fill="white"/>
</clipPath>
</defs>
</svg>
