<svg width="48" height="48" viewBox="0 0 48 48" fill="none" xmlns="http://www.w3.org/2000/svg">
<g clip-path="url(#clip0_1141_49277)">
<rect width="48" height="48" rx="24" fill="white"/>
<path d="M30.4298 13.5858C30.4298 13.5858 24.1209 10.504 17.9067 13.4774C11.7067 16.4445 8.54755 23.456 5.84 29.0476C3.13422 34.6356 4.66488 40.8307 9.39111 44.1342C14.1169 47.4382 17.348 43.7814 23.9893 44.3751C30.6311 44.9689 32.4142 46.168 37.936 42.9262C43.4582 39.6845 44.4809 30.5978 40.1533 23.2694C35.8262 15.9409 30.4298 13.5858 30.4298 13.5858Z" fill="#C3DAE4"/>
<g opacity="0.42">
<path d="M20.2148 14.2182V25.3746" stroke="#7BB0CB" stroke-width="0.0888889" stroke-miterlimit="10"/>
<path d="M17.6885 18.3942H22.7414V23.0684H27.9316" stroke="#7BB0CB" stroke-width="0.0888889" stroke-miterlimit="10"/>
<path d="M30.3899 15.4649V20.8249H27.9316V30.3609H42.1352" stroke="#7BB0CB" stroke-width="0.0888889" stroke-miterlimit="10"/>
<path d="M27.9316 25.5618H40.4961" stroke="#7BB0CB" stroke-width="0.0888889" stroke-miterlimit="10"/>
<path d="M30.7314 23.1934H39.4723" stroke="#7BB0CB" stroke-width="0.0888889" stroke-miterlimit="10"/>
<path d="M33.1221 23.1933V20.8871H35.7852V19.7031" stroke="#7BB0CB" stroke-width="0.0888889" stroke-miterlimit="10"/>
<path d="M30.3896 18.332H32.9843" stroke="#7BB0CB" stroke-width="0.0888889" stroke-miterlimit="10"/>
<path d="M25.4053 18.3942H27.9319V14.4675" stroke="#7BB0CB" stroke-width="0.0888889" stroke-miterlimit="10"/>
<path d="M25.3369 14.4053V20.9498" stroke="#7BB0CB" stroke-width="0.0888889" stroke-miterlimit="10"/>
<path d="M22.9463 16.1507H25.405" stroke="#7BB0CB" stroke-width="0.0888889" stroke-miterlimit="10"/>
<path d="M15.0938 16.8982V25.5617" stroke="#7BB0CB" stroke-width="0.0888889" stroke-miterlimit="10"/>
<path d="M7.5127 26.1227V27.8675H9.76647V25.5618H17.6194V28.0547H22.7407V25.6862H25.4723V30.4231H15.0927" stroke="#7BB0CB" stroke-width="0.0888889" stroke-miterlimit="10"/>
<path d="M15.0927 28.0546V32.6666H7.5127" stroke="#7BB0CB" stroke-width="0.0888889" stroke-miterlimit="10"/>
<path d="M9.90332 32.7288V41.9533H15.0931" stroke="#7BB0CB" stroke-width="0.0888889" stroke-miterlimit="10"/>
<path d="M9.8349 37.3413H7.24023" stroke="#7BB0CB" stroke-width="0.0888889" stroke-miterlimit="10"/>
<path d="M4.50879 35.0351H7.30879" stroke="#7BB0CB" stroke-width="0.0888889" stroke-miterlimit="10"/>
<path d="M5.46582 30.236H12.4996V27.9924" stroke="#7BB0CB" stroke-width="0.0888889" stroke-miterlimit="10"/>
<path d="M12.5664 39.5849V34.9729H22.878V32.7289H33.1211V34.9729H35.6477V27.9302H38.4473" stroke="#7BB0CB" stroke-width="0.0888889" stroke-miterlimit="10"/>
<path d="M30.5947 27.9924H33.3263V25.5618" stroke="#7BB0CB" stroke-width="0.0888889" stroke-miterlimit="10"/>
<path d="M40.974 38.5875V32.6666H38.3108V37.4657H22.946V39.8342H20.2148V43.3244" stroke="#7BB0CB" stroke-width="0.0888889" stroke-miterlimit="10"/>
<path d="M20.1459 42.0778H17.5508" stroke="#7BB0CB" stroke-width="0.0888889" stroke-miterlimit="10"/>
<path d="M20.2155 37.4658H15.0938V44.0724" stroke="#7BB0CB" stroke-width="0.0888889" stroke-miterlimit="10"/>
<path d="M17.6885 37.528V39.8965" stroke="#7BB0CB" stroke-width="0.0888889" stroke-miterlimit="10"/>
<path d="M17.7568 35.0351V32.7916" stroke="#7BB0CB" stroke-width="0.0888889" stroke-miterlimit="10"/>
<path d="M20.2148 30.4231V32.7915" stroke="#7BB0CB" stroke-width="0.0888889" stroke-miterlimit="10"/>
<path d="M22.8105 43.4489V42.14H25.3372" stroke="#7BB0CB" stroke-width="0.0888889" stroke-miterlimit="10"/>
<path d="M25.4727 43.5738V39.8342" stroke="#7BB0CB" stroke-width="0.0888889" stroke-miterlimit="10"/>
<path d="M27.999 37.4658V42.14H33.1888V43.8231" stroke="#7BB0CB" stroke-width="0.0888889" stroke-miterlimit="10"/>
<path d="M30.6631 39.772H40.2235" stroke="#7BB0CB" stroke-width="0.0888889" stroke-miterlimit="10"/>
<path d="M35.7842 39.8342V42.2027" stroke="#7BB0CB" stroke-width="0.0888889" stroke-miterlimit="10"/>
<path d="M30.5264 37.528V35.0351" stroke="#7BB0CB" stroke-width="0.0888889" stroke-miterlimit="10"/>
<path d="M27.999 32.7288V35.035" stroke="#7BB0CB" stroke-width="0.0888889" stroke-miterlimit="10"/>
<path d="M25.4053 37.4036V35.0974" stroke="#7BB0CB" stroke-width="0.0888889" stroke-miterlimit="10"/>
<path d="M20.2151 23.1934H17.6885" stroke="#7BB0CB" stroke-width="0.0888889" stroke-miterlimit="10"/>
<path d="M17.5513 20.8249H15.2295" stroke="#7BB0CB" stroke-width="0.0888889" stroke-miterlimit="10"/>
<path d="M9.15234 23.1933H12.4986V19.2666" stroke="#7BB0CB" stroke-width="0.0888889" stroke-miterlimit="10"/>
<path d="M7.17188 39.5849V41.5169" stroke="#7BB0CB" stroke-width="0.0888889" stroke-miterlimit="10"/>
</g>
<path opacity="0.2" d="M32.4974 14.8004C31.3543 14.0097 30.5627 13.6453 30.5627 13.6453C30.5627 13.6453 24.1956 10.4951 17.8809 13.472C16.5023 14.1217 15.3045 15.0306 14.1947 16.0075L7.24805 42.4133C7.82805 43.0431 8.48805 43.6182 9.22494 44.1248C14.0289 47.4284 17.3129 43.772 24.064 44.3657C30.8152 44.9595 32.6276 46.1582 38.2409 42.9168C38.7445 42.6262 39.2103 42.2875 39.6396 41.9084L32.4974 14.8004Z" fill="white"/>
<path d="M28.2588 42.7622L29.5179 43.3618L29.7695 42.3267L28.2588 42.7622Z" fill="#FBE0D3"/>
<path d="M26.4688 43.1667L27.7279 43.7662L27.9794 42.7316L26.4688 43.1667Z" fill="#FBE0D3"/>
<path d="M28.0499 29.592C28.0499 29.592 28.4095 27.6973 28.0499 26.0902C27.6904 24.4831 25.6575 23.9795 25.6575 23.9795C25.6575 23.9795 23.9712 22.2707 22.1979 24.1955C20.2312 26.3302 20.9166 27.3618 18.8401 29.496C16.8975 31.4924 16.1419 35.0182 21.2112 34.7484C25.6499 34.5124 28.0499 29.592 28.0499 29.592Z" fill="#2C1B17"/>
<path d="M19.6338 30.6716C19.6338 30.6716 19.0574 33.5973 19.1054 35.948C19.1534 38.2982 19.6303 39.7133 19.6303 39.7133C19.6303 39.7133 21.8716 37.9769 23.1103 37.4827C24.3489 36.9885 24.8609 34.3169 24.8609 34.3169L19.6338 30.6716Z" fill="#538DA3"/>
<path d="M22.2709 27.8174C22.2709 27.8174 20.6211 27.7694 19.9349 28.9205C19.2486 30.0716 19.9349 34.8205 19.9349 34.8205L20.0878 34.7476L28.3384 35.54L29.6873 32.6263C29.6873 32.6263 28.578 28.9209 27.9544 28.3694C27.3309 27.8178 26.1798 27.8174 26.1798 27.8174H22.2709Z" fill="#538DA3"/>
<path d="M25.2635 24.8555C25.2635 24.8555 26.6844 25.0355 26.8644 26.3306C27.0444 27.6258 26.5764 29.1186 25.5333 29.7302C24.4902 30.3418 23.9502 29.748 23.5546 29.4066C23.159 29.0649 22.655 28.3995 22.655 28.3995C22.655 28.3995 22.2608 28.6342 22.0173 28.0311C21.7737 27.428 22.0435 27.0324 22.3493 27.0142C22.655 26.9964 22.655 27.284 22.655 27.284C22.655 27.284 24.2382 26.3484 25.2635 24.8555Z" fill="#FBE0D3"/>
<path opacity="0.37" d="M25.929 27.9471C25.929 27.9471 25.8743 28.0329 25.9521 28.1471C26.0299 28.2609 26.0032 28.3297 25.9103 28.4351C25.8175 28.54 25.9041 28.6057 25.9823 28.7137C26.0601 28.8217 25.8939 29.0017 25.9979 29.1035C26.1019 29.2053 26.4077 29.0075 26.4077 29.0075C26.4077 29.0075 26.3148 28.8457 26.3326 28.7889C26.3503 28.732 26.4103 28.5911 26.3623 28.54C26.3143 28.4889 26.2606 28.4649 26.3143 28.3542C26.3681 28.2431 26.3295 28.1142 26.2903 28.0635C26.2512 28.0124 26.2606 27.9866 26.2606 27.9866L25.929 27.9471Z" fill="#ABCBE6"/>
<path opacity="0.37" d="M23.7815 27.9404C23.7815 27.9404 23.6513 28.0333 23.7162 28.2009C23.7815 28.3689 23.5002 28.4107 23.5184 28.5964C23.5362 28.7822 23.6504 28.9022 23.5664 29.0462C23.4824 29.1902 24.1362 29.2582 24.1362 29.2582C24.1362 29.2582 24.226 29.1724 24.2202 28.9982C24.214 28.8244 24.0824 28.7578 24.1722 28.5991C24.262 28.4404 24.4251 28.4044 24.4127 28.2547C24.4002 28.1049 24.3344 27.94 24.3344 27.94H23.7815V27.9404Z" fill="#ABCBE6"/>
<path d="M21.684 34.4787C21.684 34.4787 20.8804 34.5565 20.5329 34.6165C20.1853 34.6765 20.0889 34.7471 20.0889 34.7471C20.0889 34.7471 21.0609 36.9307 21.708 37.0507C22.3551 37.1707 21.684 34.4787 21.684 34.4787Z" fill="#EACDC1"/>
<path d="M22.3669 31.2711C22.3669 31.2711 22.1629 29.4844 22.4269 29.1844C22.6909 28.8844 23.446 28.6689 23.878 28.9298C24.3096 29.1907 24.3096 29.5236 24.3096 29.5236C24.3096 29.5236 24.4625 29.6676 24.5256 29.8831C24.5887 30.0991 24.4807 30.2969 24.4807 30.2969C24.4807 30.2969 24.61 30.5578 24.5456 30.7644C24.4807 30.9711 24.1571 31.0071 24.1571 31.0071C24.1571 31.0071 24.1122 31.2769 24.0313 31.4569C23.9505 31.6369 23.6265 31.9155 23.6265 31.9155C23.6265 31.9155 23.8185 34.8684 23.6505 36.1155C23.4825 37.3627 22.4393 37.4467 21.7078 37.0511C20.9762 36.6556 21.2162 35.3124 21.4198 34.5809C21.6233 33.8493 22.3669 31.2711 22.3669 31.2711Z" fill="#FBE0D3"/>
<path d="M29.6875 32.6262L28.0689 30.6116C28.0689 30.6116 27.6013 29.1458 27.4302 28.9747C27.2591 28.8036 26.36 28.6151 26 28.9027C25.6404 29.1907 25.82 29.64 25.82 29.64C25.82 29.64 25.6582 29.928 25.6582 30.1524C25.6582 30.3773 25.928 30.512 25.928 30.512C25.928 30.512 25.9009 30.8809 26.0631 31.0067C26.2249 31.1324 26.3426 31.2004 26.3426 31.2004C26.3426 31.2004 26.4049 31.4111 26.6386 31.5373C26.8724 31.6631 27.1604 31.6724 27.1604 31.6724C27.1604 31.6724 27.5653 33.1653 27.9969 33.6151C28.4284 34.0649 30.0475 33.7053 29.6875 32.6262Z" fill="#FBE0D3"/>
<path d="M26.9014 33.3098C26.9014 33.3098 28.48 31.7618 29.6085 32.368C30.7369 32.9742 30.9289 35.2284 30.9049 36.7636C30.8809 38.2987 30.3054 42.5676 30.3054 42.5676C30.3054 42.5676 28.984 42.9031 28.4863 42.6156C27.9885 42.328 26.9014 33.3098 26.9014 33.3098Z" fill="#527F91"/>
<path d="M28.2591 42.7622C28.2591 42.7622 28.1511 43.3618 28.1271 43.6618C28.1031 43.9618 28.1929 44.1173 28.1929 44.1173C28.1929 44.1173 28.8702 45.2085 29.7818 45.6765C30.6933 46.144 31.6765 46.18 31.9885 45.7845C32.3005 45.3889 32.1565 44.8489 31.9885 44.4653C31.8205 44.0818 30.564 42.3765 30.564 42.3765C30.564 42.3765 30.1778 42.024 29.7702 42.3271C29.3627 42.6302 29.1707 43.0382 29.1707 43.0382C29.1707 43.0382 28.3569 42.7053 28.2591 42.7622Z" fill="#4D8596"/>
<path d="M19.6309 39.7133C19.6309 39.7133 20.4011 41.512 22.2237 41.752C24.0464 41.992 25.6593 40.2409 25.6593 40.2409L26.4686 43.1666C26.4686 43.1666 27.1162 43.2626 27.8597 43.0706C28.6033 42.8786 28.7735 42.7804 28.7735 42.7804C28.7735 42.7804 28.3633 36.3911 28.0037 34.4786C27.6442 32.5658 26.3011 31.8706 25.1255 32.7338C23.9504 33.5973 21.8157 37.9142 21.8157 37.9142L19.6309 39.7133Z" fill="#6C99AF"/>
<path d="M23.9738 40.2409C23.3996 41.0747 22.381 41.548 21.2285 41.4338C21.5174 41.5863 21.8472 41.7023 22.2232 41.752C24.0458 41.992 25.6587 40.2409 25.6587 40.2409L24.6592 37.1711C24.6587 37.1711 24.717 39.1618 23.9738 40.2409Z" fill="#527F91"/>
<path d="M24.6592 26.9422C24.6592 26.9422 24.5165 27.2751 23.7432 27.3831Z" fill="#7BB0CB"/>
<path d="M24.6592 26.9422C24.6592 26.9422 24.5165 27.2751 23.7432 27.3831" stroke="#22120E" stroke-width="0.177778" stroke-miterlimit="10" stroke-linecap="round" stroke-linejoin="round"/>
<path d="M25.8467 26.9871C25.8467 26.9871 26.0787 27.4685 26.4671 27.4818Z" fill="#7BB0CB"/>
<path d="M25.8467 26.9871C25.8467 26.9871 26.0787 27.4685 26.4671 27.4818" stroke="#22120E" stroke-width="0.177778" stroke-miterlimit="10" stroke-linecap="round" stroke-linejoin="round"/>
<path d="M24.6965 27.7693C24.6965 27.7693 24.4805 28.12 23.7432 27.9311" stroke="#22120E" stroke-width="0.0888889" stroke-miterlimit="10" stroke-linecap="round" stroke-linejoin="round"/>
<path d="M25.7217 27.8413C25.7217 27.8413 26.0363 28.0751 26.3332 27.9493" stroke="#22120E" stroke-width="0.0888889" stroke-miterlimit="10" stroke-linecap="round" stroke-linejoin="round"/>
<path d="M24.5068 29.3102C24.5308 29.2982 25.0331 29.0822 25.3068 29.3102" stroke="#22120E" stroke-width="0.0444444" stroke-miterlimit="10" stroke-linecap="round" stroke-linejoin="round"/>
<path d="M24.3094 29.5231C24.3094 29.5231 24.3089 29.4689 24.2809 29.388C24.0561 29.2751 23.6738 29.3102 23.6738 29.3102C23.6738 29.3102 23.7756 29.34 23.9649 29.376C24.1538 29.4124 24.3094 29.5231 24.3094 29.5231Z" fill="#EACDC1"/>
<path d="M23.8652 30.0538C23.8652 30.0538 24.027 30.0715 24.2008 30.1378C24.3746 30.2035 24.4799 30.2969 24.4799 30.2969C24.4799 30.2969 24.5141 30.232 24.5328 30.1373C24.4977 30.1107 24.4581 30.0827 24.4115 30.0538C24.2079 29.928 23.8652 30.0538 23.8652 30.0538Z" fill="#EACDC1"/>
<path d="M24.4815 30.8631C24.3841 30.8391 24.2783 30.7778 24.2219 30.7045C24.1321 30.5876 24.0721 30.3747 24.0721 30.3747C24.0721 30.3747 24.0481 30.5427 24.1081 30.6983C24.1681 30.8543 24.1561 31.0071 24.1561 31.0071C24.1561 31.0071 24.3663 30.9818 24.4815 30.8631Z" fill="#EACDC1"/>
<path d="M26.3422 31.2014C26.3422 31.2014 26.3769 31.3182 26.4911 31.4302C26.4902 31.2667 26.5889 31.1031 26.5929 30.9236C26.5987 30.6538 26.3418 30.4978 26.3418 30.4978C26.3418 30.4978 26.4667 30.7138 26.4129 30.9054C26.3596 31.0974 26.3422 31.2014 26.3422 31.2014Z" fill="#EACDC1"/>
<path d="M25.8184 30.4373C25.8766 30.4853 25.9286 30.5125 25.9286 30.5125C25.9286 30.5125 25.9348 30.3867 26.0335 30.2578C26.1326 30.1289 26.2521 29.9951 26.2521 29.9951C26.2521 29.9951 25.9197 30.1089 25.8184 30.4373Z" fill="#EACDC1"/>
<path d="M26.3093 29.2444C26.3093 29.2444 25.9711 29.2947 25.7773 29.4182C25.784 29.5467 25.8209 29.64 25.8209 29.64C25.8209 29.64 25.9378 29.4991 26.0489 29.412C26.1596 29.3253 26.3093 29.2444 26.3093 29.2444Z" fill="#EACDC1"/>
<path d="M22.6302 28.0751C22.6302 28.0751 22.5498 27.42 22.2227 27.5355" stroke="#EACDC1" stroke-width="0.0444444" stroke-miterlimit="10" stroke-linecap="round" stroke-linejoin="round"/>
<path d="M31.8 45.6942C31.2423 45.964 30.4809 45.7662 29.6627 45.2804C29.0903 44.9409 28.4569 44.1267 28.1276 43.6675C28.1054 43.9631 28.1938 44.1173 28.1938 44.1173C28.1938 44.1173 28.8712 45.2084 29.7827 45.6764C30.6943 46.144 31.6774 46.18 31.9894 45.7844C32.0841 45.664 32.1365 45.5302 32.1592 45.392C32.0729 45.5653 31.9783 45.608 31.8 45.6942Z" fill="#FBDFE2"/>
<path d="M26.4671 43.1666C26.4671 43.1666 26.3591 43.7662 26.3351 44.0662C26.3111 44.3662 26.4009 44.5218 26.4009 44.5218C26.4009 44.5218 27.0782 45.6129 27.9898 46.0809C28.9014 46.5484 29.8845 46.5844 30.1965 46.1889C30.5085 45.7933 30.3645 45.2533 30.1965 44.8698C30.0285 44.4862 28.772 42.7809 28.772 42.7809C28.772 42.7809 28.3858 42.4284 27.9782 42.7315C27.5707 43.0346 27.3787 43.4426 27.3787 43.4426C27.3787 43.4426 26.5649 43.1102 26.4671 43.1666Z" fill="#538DA3"/>
<path d="M30.0081 46.0986C29.4503 46.3684 28.6889 46.1706 27.8707 45.6849C27.2983 45.3453 26.6649 44.5311 26.3356 44.072C26.3134 44.3675 26.4018 44.5217 26.4018 44.5217C26.4018 44.5217 27.0792 45.6128 27.9907 46.0808C28.9023 46.5484 29.8854 46.5844 30.1974 46.1888C30.2921 46.0684 30.3445 45.9346 30.3672 45.7964C30.2809 45.9697 30.1863 46.0124 30.0081 46.0986Z" fill="#FBDFE2"/>
<path d="M25.0957 28.7835C25.0961 28.7777 25.1588 28.7773 25.2597 28.7813C25.285 28.783 25.3095 28.7817 25.3166 28.7653C25.3255 28.7479 25.3197 28.7195 25.3122 28.6884C25.2988 28.6239 25.2846 28.5564 25.2699 28.4857C25.2122 28.1973 25.1748 27.9617 25.1864 27.9595C25.1979 27.9573 25.2544 28.1893 25.3122 28.4777C25.3259 28.5488 25.3388 28.6164 25.3513 28.6813C25.3561 28.7115 25.3668 28.7462 25.3482 28.7817C25.3384 28.7995 25.3175 28.8097 25.301 28.8115C25.2842 28.8137 25.2699 28.8115 25.2575 28.8102C25.157 28.799 25.0953 28.7893 25.0957 28.7835Z" fill="#22120E"/>
<g opacity="0.42">
<path d="M15.8476 10.0604C15.8476 9.38661 15.3014 8.84083 14.6281 8.84083C14.5063 8.84083 14.389 8.85905 14.2779 8.89239C14.2956 8.77017 14.3054 8.64528 14.3054 8.51772C14.3054 7.09105 13.149 5.93461 11.7223 5.93461C11.5596 5.93461 11.401 5.95016 11.2463 5.97905C10.8494 5.32928 10.1356 4.89417 9.3183 4.89417C8.08141 4.89417 7.0783 5.88794 7.06007 7.12039C7.04763 7.11994 7.03518 7.11861 7.02229 7.11861C5.87296 7.11861 4.94141 8.05017 4.94141 9.1995C4.94141 10.3488 5.87296 11.2804 7.02229 11.2804H14.6636L14.6619 11.2786C15.3201 11.2599 15.8476 10.7226 15.8476 10.0604Z" fill="#CEE7F3"/>
<path d="M13.0242 13.0689C13.5229 12.8965 12.4775 11.8231 12.4775 11.8231C12.4775 11.8231 12.5255 13.2413 13.0242 13.0689Z" fill="#CEE7F3"/>
<path d="M13.375 13.8648C13.375 13.8648 13.423 15.283 13.9217 15.1106C14.4208 14.9377 13.375 13.8648 13.375 13.8648Z" fill="#CEE7F3"/>
<path d="M14.2705 15.9062C14.2705 15.9062 14.3185 17.3245 14.8172 17.152C15.3158 16.9796 14.2705 15.9062 14.2705 15.9062Z" fill="#CEE7F3"/>
<path d="M11.3699 13.0818C11.8686 12.9093 10.8232 11.836 10.8232 11.836C10.8232 11.836 10.8712 13.2542 11.3699 13.0818Z" fill="#CEE7F3"/>
<path d="M11.7188 13.8773C11.7188 13.8773 11.7667 15.2955 12.2654 15.1231C12.7641 14.9507 11.7188 13.8773 11.7188 13.8773Z" fill="#CEE7F3"/>
<path d="M12.6143 15.9191C12.6143 15.9191 12.6623 17.3374 13.1609 17.1649C13.66 16.992 12.6143 15.9191 12.6143 15.9191Z" fill="#CEE7F3"/>
<path d="M9.71366 13.0942C10.2123 12.9218 9.16699 11.8484 9.16699 11.8484C9.16699 11.8484 9.21499 13.2667 9.71366 13.0942Z" fill="#CEE7F3"/>
<path d="M10.0625 13.8902C10.0625 13.8902 10.1105 15.3084 10.6092 15.136C11.1083 14.9631 10.0625 13.8902 10.0625 13.8902Z" fill="#CEE7F3"/>
<path d="M10.959 15.9315C10.959 15.9315 11.007 17.3497 11.5057 17.1773C12.0048 17.0049 10.959 15.9315 10.959 15.9315Z" fill="#CEE7F3"/>
<path d="M7.51172 11.8614C7.51172 11.8614 7.55972 13.2796 8.05839 13.1072C8.5575 12.9343 7.51172 11.8614 7.51172 11.8614Z" fill="#CEE7F3"/>
<path d="M8.40918 13.9027C8.40918 13.9027 8.45718 15.3209 8.95585 15.1485C9.45451 14.976 8.40918 13.9027 8.40918 13.9027Z" fill="#CEE7F3"/>
<path d="M9.30371 15.9445C9.30371 15.9445 9.35171 17.3627 9.85038 17.1903C10.349 17.0174 9.30371 15.9445 9.30371 15.9445Z" fill="#CEE7F3"/>
<path d="M13.0242 13.0689C13.5229 12.8965 12.4775 11.8231 12.4775 11.8231C12.4775 11.8231 12.5255 13.2413 13.0242 13.0689Z" fill="#CEE7F3"/>
<path d="M13.375 13.8648C13.375 13.8648 13.423 15.283 13.9217 15.1106C14.4208 14.9377 13.375 13.8648 13.375 13.8648Z" fill="#CEE7F3"/>
<path d="M14.2705 15.9062C14.2705 15.9062 14.3185 17.3245 14.8172 17.152C15.3158 16.9796 14.2705 15.9062 14.2705 15.9062Z" fill="#CEE7F3"/>
<path d="M11.3699 13.0818C11.8686 12.9093 10.8232 11.836 10.8232 11.836C10.8232 11.836 10.8712 13.2542 11.3699 13.0818Z" fill="#CEE7F3"/>
<path d="M11.7188 13.8773C11.7188 13.8773 11.7667 15.2955 12.2654 15.1231C12.7641 14.9507 11.7188 13.8773 11.7188 13.8773Z" fill="#CEE7F3"/>
<path d="M12.6143 15.9191C12.6143 15.9191 12.6623 17.3374 13.1609 17.1649C13.66 16.992 12.6143 15.9191 12.6143 15.9191Z" fill="#CEE7F3"/>
<path d="M9.71366 13.0942C10.2123 12.9218 9.16699 11.8484 9.16699 11.8484C9.16699 11.8484 9.21499 13.2667 9.71366 13.0942Z" fill="#CEE7F3"/>
<path d="M10.0625 13.8902C10.0625 13.8902 10.1105 15.3084 10.6092 15.136C11.1083 14.9631 10.0625 13.8902 10.0625 13.8902Z" fill="#CEE7F3"/>
<path d="M10.959 15.9315C10.959 15.9315 11.007 17.3497 11.5057 17.1773C12.0048 17.0049 10.959 15.9315 10.959 15.9315Z" fill="#CEE7F3"/>
<path d="M7.51172 11.8614C7.51172 11.8614 7.55972 13.2796 8.05839 13.1072C8.5575 12.9343 7.51172 11.8614 7.51172 11.8614Z" fill="#CEE7F3"/>
<path d="M8.40918 13.9027C8.40918 13.9027 8.45718 15.3209 8.95585 15.1485C9.45451 14.976 8.40918 13.9027 8.40918 13.9027Z" fill="#CEE7F3"/>
<path d="M9.30371 15.9445C9.30371 15.9445 9.35171 17.3627 9.85038 17.1903C10.349 17.0174 9.30371 15.9445 9.30371 15.9445Z" fill="#CEE7F3"/>
</g>
<g opacity="0.49">
<path d="M30.8474 24.9075C30.8354 24.9422 30.8114 24.9689 30.7789 24.9831C30.6891 25.0226 30.6007 24.9466 30.526 24.8671C30.4603 24.7973 30.378 24.6933 30.2749 24.5502C30.0869 24.2889 29.8571 23.936 29.6354 23.5946C29.4607 23.3258 29.2949 23.0711 29.1531 22.8662C29.1563 22.8715 29.1589 22.8769 29.162 22.8822C29.3016 23.1364 29.4834 23.4475 29.6758 23.7769C29.8891 24.1422 30.11 24.52 30.2691 24.816C30.5363 25.3129 30.5336 25.4004 30.5025 25.4635C30.4851 25.4986 30.4523 25.5218 30.4131 25.5266C30.2647 25.5444 30.0891 25.3151 29.306 24.0826C29.1043 23.7649 28.8954 23.4364 28.7247 23.1866C28.6611 23.0938 28.6087 23.0204 28.5656 22.9631C28.5936 23.0213 28.63 23.092 28.6763 23.1782C28.8109 23.4284 28.9963 23.7453 29.1754 24.0515C29.3763 24.3946 29.5843 24.7493 29.7309 25.028C29.9563 25.4564 29.9736 25.58 29.9269 25.6573C29.9025 25.6982 29.8594 25.7204 29.8091 25.7182C29.7127 25.7138 29.5971 25.6329 29.3447 25.2506C29.178 24.9978 28.9856 24.6653 28.7998 24.344C28.6385 24.0649 28.486 23.8013 28.3545 23.5951C28.262 23.4506 28.1989 23.3658 28.1571 23.316C28.1754 23.384 28.2167 23.4973 28.3083 23.6844C28.4283 23.9293 28.5936 24.2191 28.7531 24.4991C29.1634 25.2195 29.2607 25.4142 29.198 25.5231C29.1767 25.56 29.138 25.5822 29.094 25.5826C28.9211 25.5844 28.7109 25.2969 28.2745 24.6075C28.2123 24.5098 28.1434 24.4009 28.082 24.3084C28.0909 24.3338 28.1007 24.3613 28.1123 24.3911C28.1687 24.5404 28.2411 24.6991 28.2803 24.7591C28.3087 24.8031 28.2963 24.8613 28.2523 24.8898C28.2083 24.9182 28.15 24.9058 28.1216 24.8618C28.07 24.7826 27.986 24.5964 27.9211 24.4191C27.7954 24.0755 27.8229 24.0018 27.8616 23.956C27.8883 23.924 27.9398 23.8995 28.0038 23.9266C28.0829 23.9604 28.1794 24.104 28.4345 24.5067C28.5598 24.7049 28.7025 24.9298 28.8291 25.104C28.8811 25.176 28.9243 25.2298 28.9594 25.2707C28.9438 25.2378 28.9247 25.1995 28.9011 25.1542C28.8189 24.996 28.7074 24.8 28.5891 24.5924C28.4216 24.2978 28.2478 23.9933 28.1243 23.7369C27.9585 23.3929 27.9198 23.2195 27.9874 23.1191C28.014 23.0795 28.0558 23.0573 28.1025 23.0591C28.1865 23.0618 28.2771 23.128 28.4905 23.4564C28.63 23.6706 28.7923 23.9515 28.9638 24.2493C29.1425 24.5582 29.3269 24.8778 29.4869 25.1231C29.5931 25.2853 29.6678 25.3831 29.7198 25.4418C29.6891 25.3653 29.6345 25.2484 29.5389 25.0693C29.3963 24.8022 29.2011 24.4693 29.0127 24.1475C28.3109 22.9498 28.2065 22.7191 28.3136 22.6062C28.3389 22.5795 28.3745 22.5666 28.4118 22.5702C28.4927 22.5782 28.5874 22.656 28.8554 23.044C29.0331 23.3009 29.2527 23.6475 29.4656 23.9822C29.6718 24.3066 29.8851 24.6426 30.0607 24.8986C30.1167 24.9804 30.1647 25.0475 30.2047 25.1022C30.1718 25.036 30.13 24.956 30.0767 24.8586C29.9216 24.5733 29.7136 24.2173 29.5123 23.8733C29.3078 23.5235 29.1149 23.1933 28.9718 22.9293C28.7331 22.4889 28.7314 22.4129 28.7549 22.3538C28.7678 22.3218 28.794 22.2978 28.8265 22.2884C28.9611 22.2498 29.0878 22.4071 29.7931 23.4924C29.9958 23.8044 30.2056 24.1266 30.382 24.3764C30.4789 24.5133 30.5509 24.6071 30.6038 24.6711C30.5767 24.6115 30.5385 24.5338 30.4843 24.4315C30.3656 24.2093 30.2038 23.9342 30.0474 23.668C29.8825 23.388 29.7123 23.0982 29.5958 22.8755C29.4265 22.5515 29.3954 22.424 29.4683 22.3498C29.4949 22.3226 29.5305 22.3098 29.5691 22.3138C29.7034 22.3271 29.8718 22.5666 30.2843 23.1982C30.4096 23.3902 30.5394 23.5884 30.6483 23.7404C30.7011 23.8142 30.7425 23.8671 30.7745 23.9053C30.7603 23.8626 30.738 23.8066 30.7043 23.7333C30.6345 23.5804 30.5411 23.4084 30.4589 23.2564C30.406 23.1586 30.3603 23.0742 30.3287 23.0098C30.3105 22.9724 30.2985 22.9449 30.2909 22.9226C30.2616 22.8373 30.2998 22.7964 30.3247 22.7795C30.43 22.7093 30.5598 22.8191 30.7358 23.0191C30.8518 23.1515 30.9549 23.2889 30.9589 23.2946C30.99 23.3364 30.9816 23.3955 30.9398 23.4266C30.898 23.4578 30.8389 23.4493 30.8078 23.4075C30.8069 23.4066 30.7345 23.3093 30.6451 23.2031C30.8998 23.6746 31.0291 23.948 30.9803 24.0911C30.9705 24.1195 30.9536 24.1431 30.9291 24.1618C30.9016 24.1826 30.8674 24.1911 30.8318 24.1849C30.7656 24.1738 30.6891 24.1178 30.5118 23.8742C30.3963 23.7155 30.2589 23.5053 30.126 23.3018C30.0007 23.1098 29.8709 22.9115 29.762 22.7595C29.7465 22.7378 29.7323 22.7182 29.7185 22.7C29.7394 22.7418 29.7643 22.7902 29.7945 22.8462C29.9069 23.0555 30.0611 23.3182 30.2109 23.572C30.3749 23.8511 30.5447 24.1391 30.6665 24.3698C30.85 24.7173 30.8718 24.8324 30.8483 24.9058C30.8478 24.9058 30.8478 24.9066 30.8474 24.9075Z" fill="#538DA3"/>
</g>
<path d="M30.8068 24.7809C30.8041 24.7885 30.801 24.7956 30.7966 24.8014C30.7854 24.8182 30.7694 24.8267 30.7508 24.8258C30.6268 24.8218 30.3677 24.3885 29.9561 23.676C29.6006 23.0605 29.1974 22.3631 29.0361 22.3556C29.0232 22.3551 29.0188 22.3596 29.0161 22.364C28.9974 22.3947 29.017 22.5102 29.2152 22.8867C29.3606 23.1631 29.5677 23.5169 29.7681 23.8587C29.9632 24.1916 30.1646 24.5356 30.3028 24.7978C30.509 25.1894 30.5072 25.2738 30.4783 25.304C30.4699 25.3129 30.4588 25.3169 30.4463 25.3156C30.3268 25.304 29.9912 24.7885 29.4526 23.9405C29.2321 23.5934 29.0041 23.2347 28.821 22.9707C28.5721 22.6125 28.4819 22.5418 28.4503 22.5458C28.4477 22.5462 28.4463 22.5471 28.4454 22.5494C28.4317 22.5774 28.4606 22.6951 28.677 23.0974C28.8352 23.392 29.0557 23.7685 29.2686 24.1329C29.7579 24.9702 30.0534 25.4867 30.0214 25.5805C30.0214 25.5809 30.021 25.5814 30.021 25.5818C30.0174 25.5911 30.0108 25.5974 30.0019 25.5996C29.9663 25.6098 29.9019 25.5747 29.6717 25.2498C29.5166 25.0316 29.3263 24.7387 29.1246 24.4285C28.9032 24.088 28.6743 23.7365 28.4877 23.4774C28.2206 23.1067 28.1397 23.0694 28.1157 23.08C28.113 23.0814 28.1086 23.0836 28.1063 23.092C28.069 23.2076 28.4223 23.808 28.7339 24.3374C28.8983 24.6165 29.0681 24.9054 29.1837 25.1262C29.357 25.4574 29.3526 25.5307 29.325 25.5582C29.3157 25.5676 29.3032 25.572 29.2894 25.5707C29.1886 25.5609 28.9641 25.2285 28.6334 24.7222C28.3828 24.3387 28.0983 23.9036 28.0006 23.8867C27.9934 23.8854 27.9899 23.8876 27.9877 23.8889C27.8952 23.96 28.1619 24.452 28.321 24.7462C28.4779 25.0356 28.509 25.0996 28.481 25.1182C28.4517 25.1378 28.3886 25.1356 28.1748 24.8925C28.0606 24.7627 27.9566 24.6236 27.9557 24.6222C27.9508 24.616 27.9521 24.6071 27.9583 24.6022C27.9646 24.5974 27.9734 24.5987 27.9783 24.6049C27.9792 24.6062 28.0828 24.7449 28.1961 24.8738C28.3863 25.0902 28.4454 25.1018 28.4619 25.096C28.4606 25.0631 28.377 24.9089 28.2961 24.7596C28.0566 24.3174 27.8668 23.9454 27.9703 23.8662C27.9797 23.8591 27.9921 23.8565 28.0054 23.8587C28.1157 23.8774 28.3788 24.28 28.6574 24.7067C28.9103 25.0938 29.1974 25.5329 29.2926 25.5422C29.2979 25.5427 29.3019 25.5414 29.305 25.5382C29.3201 25.5227 29.3214 25.4502 29.1588 25.1391C29.0437 24.9187 28.8739 24.6302 28.7094 24.3511C28.3641 23.7645 28.0383 23.2102 28.0792 23.0827C28.0837 23.0689 28.0921 23.0587 28.1041 23.0538C28.2206 23.0027 28.5761 23.5329 29.1481 24.4129C29.3494 24.7227 29.5397 25.0151 29.6943 25.2329C29.9206 25.5516 29.9792 25.576 29.9939 25.5716C29.9948 25.5711 30.0086 25.5565 29.9583 25.4365C29.9254 25.3587 29.8726 25.2516 29.7957 25.1094C29.6526 24.844 29.4543 24.5049 29.2446 24.1458C28.7143 23.2382 28.3708 22.636 28.4206 22.5351C28.4259 22.5245 28.4357 22.5174 28.4477 22.516C28.565 22.5018 28.9152 23.0382 29.4774 23.9236C29.8797 24.5569 30.3357 25.2747 30.4499 25.2858C30.4548 25.2862 30.457 25.2849 30.4588 25.2831C30.4752 25.2654 30.4743 25.1805 30.2788 24.8094C30.141 24.5476 29.9397 24.204 29.745 23.8711C29.2477 23.0222 28.9263 22.4574 28.993 22.3471C28.9992 22.3365 29.0126 22.324 29.0383 22.3254C29.2152 22.3334 29.5872 22.9778 29.9814 23.66C30.3028 24.2165 30.6352 24.792 30.7526 24.7956C30.7583 24.7956 30.7663 24.7947 30.7734 24.7836C30.8641 24.6485 30.4779 23.9698 30.1672 23.4249C29.8623 22.8898 29.6779 22.5578 29.7223 22.4805C29.7272 22.4716 29.7374 22.4614 29.7574 22.4614C29.9134 22.4596 30.2294 22.9587 30.5086 23.3991C30.6761 23.664 30.8343 23.9138 30.8899 23.9374C30.9023 23.9427 30.9054 23.9391 30.9063 23.9378C30.9552 23.8796 30.7432 23.3231 30.6383 23.1609C30.6339 23.1542 30.6361 23.1454 30.6423 23.1414C30.649 23.1369 30.6579 23.1391 30.6619 23.1454C30.7468 23.276 30.9979 23.8725 30.9281 23.956C30.9214 23.9636 30.9063 23.9751 30.8788 23.9631C30.8183 23.9374 30.6899 23.7378 30.485 23.4142C30.2374 23.0236 29.8988 22.4885 29.7583 22.4898C29.7512 22.4898 29.749 22.4925 29.7472 22.4947C29.7357 22.5142 29.7459 22.584 29.8574 22.8049C29.9419 22.9716 30.0632 23.1849 30.1921 23.4111C30.525 23.9969 30.8686 24.6005 30.8068 24.7809Z" fill="#EBEBEB"/>
<g opacity="0.42">
<path d="M42.1695 13.9742C42.1695 13.1853 41.5299 12.5458 40.741 12.5458C40.5983 12.5458 40.461 12.5676 40.3308 12.6062C40.3517 12.4631 40.3628 12.3169 40.3628 12.1676C40.3628 10.4969 39.0086 9.14268 37.3379 9.14268C37.1477 9.14268 36.9615 9.16135 36.7806 9.19468C36.3157 8.43379 35.4797 7.92401 34.5228 7.92401C33.0744 7.92401 31.8997 9.08757 31.8779 10.5311C31.8632 10.5307 31.8486 10.5289 31.8339 10.5289C30.4881 10.5289 29.3975 11.62 29.3975 12.9658C29.3975 14.3116 30.4886 15.4027 31.8339 15.4027H40.7823L40.7806 15.4005C41.5512 15.3791 42.1695 14.7498 42.1695 13.9742Z" fill="#CEE7F3"/>
<path d="M38.867 17.4972C39.451 17.295 38.2266 16.0386 38.2266 16.0386C38.2266 16.0386 38.2826 17.6995 38.867 17.4972Z" fill="#CEE7F3"/>
<path d="M39.2744 18.4292C39.2744 18.4292 39.3309 20.0901 39.9149 19.8879C40.4989 19.6861 39.2744 18.4292 39.2744 18.4292Z" fill="#CEE7F3"/>
<path d="M40.3242 20.82C40.3242 20.82 40.3802 22.4809 40.9647 22.2787C41.5491 22.0765 40.3242 20.82 40.3242 20.82Z" fill="#CEE7F3"/>
<path d="M36.9266 17.5119C37.5106 17.3097 36.2861 16.0533 36.2861 16.0533C36.2861 16.0533 36.3426 17.7142 36.9266 17.5119Z" fill="#CEE7F3"/>
<path d="M37.3369 18.4439C37.3369 18.4439 37.3934 20.1048 37.9774 19.9026C38.5614 19.7008 37.3369 18.4439 37.3369 18.4439Z" fill="#CEE7F3"/>
<path d="M38.3857 20.8351C38.3857 20.8351 38.4417 22.496 39.0262 22.2937C39.6102 22.0915 38.3857 20.8351 38.3857 20.8351Z" fill="#CEE7F3"/>
<path d="M34.9891 17.527C35.5731 17.3248 34.3486 16.0684 34.3486 16.0684C34.3486 16.0684 34.4051 17.7292 34.9891 17.527Z" fill="#CEE7F3"/>
<path d="M35.3984 18.4591C35.3984 18.4591 35.4544 20.12 36.0389 19.9178C36.6224 19.7156 35.3984 18.4591 35.3984 18.4591Z" fill="#CEE7F3"/>
<path d="M36.4473 20.8497C36.4473 20.8497 36.5033 22.5106 37.0877 22.3083C37.6722 22.1061 36.4473 20.8497 36.4473 20.8497Z" fill="#CEE7F3"/>
<path d="M32.4111 16.083C32.4111 16.083 32.4671 17.7439 33.0516 17.5417C33.6356 17.3399 32.4111 16.083 32.4111 16.083Z" fill="#CEE7F3"/>
<path d="M33.459 18.4737C33.459 18.4737 33.515 20.1346 34.0994 19.9324C34.6834 19.7306 33.459 18.4737 33.459 18.4737Z" fill="#CEE7F3"/>
<path d="M34.5088 20.8649C34.5088 20.8649 34.5648 22.5258 35.1492 22.3235C35.7337 22.1213 34.5088 20.8649 34.5088 20.8649Z" fill="#CEE7F3"/>
<path d="M38.867 17.4972C39.451 17.295 38.2266 16.0386 38.2266 16.0386C38.2266 16.0386 38.2826 17.6995 38.867 17.4972Z" fill="#CEE7F3"/>
<path d="M39.2744 18.4292C39.2744 18.4292 39.3309 20.0901 39.9149 19.8879C40.4989 19.6861 39.2744 18.4292 39.2744 18.4292Z" fill="#CEE7F3"/>
<path d="M40.3242 20.82C40.3242 20.82 40.3802 22.4809 40.9647 22.2787C41.5491 22.0765 40.3242 20.82 40.3242 20.82Z" fill="#CEE7F3"/>
<path d="M36.9266 17.5119C37.5106 17.3097 36.2861 16.0533 36.2861 16.0533C36.2861 16.0533 36.3426 17.7142 36.9266 17.5119Z" fill="#CEE7F3"/>
<path d="M37.3369 18.4439C37.3369 18.4439 37.3934 20.1048 37.9774 19.9026C38.5614 19.7008 37.3369 18.4439 37.3369 18.4439Z" fill="#CEE7F3"/>
<path d="M38.3857 20.8351C38.3857 20.8351 38.4417 22.496 39.0262 22.2937C39.6102 22.0915 38.3857 20.8351 38.3857 20.8351Z" fill="#CEE7F3"/>
<path d="M34.9891 17.527C35.5731 17.3248 34.3486 16.0684 34.3486 16.0684C34.3486 16.0684 34.4051 17.7292 34.9891 17.527Z" fill="#CEE7F3"/>
<path d="M35.3984 18.4591C35.3984 18.4591 35.4544 20.12 36.0389 19.9178C36.6224 19.7156 35.3984 18.4591 35.3984 18.4591Z" fill="#CEE7F3"/>
<path d="M36.4473 20.8497C36.4473 20.8497 36.5033 22.5106 37.0877 22.3083C37.6722 22.1061 36.4473 20.8497 36.4473 20.8497Z" fill="#CEE7F3"/>
<path d="M32.4111 16.083C32.4111 16.083 32.4671 17.7439 33.0516 17.5417C33.6356 17.3399 32.4111 16.083 32.4111 16.083Z" fill="#CEE7F3"/>
<path d="M33.459 18.4737C33.459 18.4737 33.515 20.1346 34.0994 19.9324C34.6834 19.7306 33.459 18.4737 33.459 18.4737Z" fill="#CEE7F3"/>
<path d="M34.5088 20.8649C34.5088 20.8649 34.5648 22.5258 35.1492 22.3235C35.7337 22.1213 34.5088 20.8649 34.5088 20.8649Z" fill="#CEE7F3"/>
</g>
</g>
<defs>
<clipPath id="clip0_1141_49277">
<rect width="48" height="48" rx="24" fill="white"/>
</clipPath>
</defs>
</svg>
