<svg width="48" height="48" viewBox="0 0 48 48" fill="none" xmlns="http://www.w3.org/2000/svg">
<g clip-path="url(#clip0_1141_49266)">
<rect width="48" height="48" rx="24" fill="white"/>
<g clip-path="url(#clip1_1141_49266)">
<g opacity="0.63">
<path d="M38.6688 29.4289C38.8106 29.3391 38.9617 29.2702 39.1186 29.2222L39.2031 28.7711L39.9613 28.7422L40.0795 29.1853C40.2395 29.2213 40.3955 29.2782 40.5435 29.3569L40.9217 29.0978L41.4786 29.6138L41.2488 30.0107C41.3386 30.1524 41.4075 30.304 41.4555 30.4604L41.9066 30.5449L41.9355 31.3031L41.4924 31.4213C41.4564 31.5809 41.3995 31.7373 41.3208 31.8853L41.5799 32.2636L41.0639 32.8204L40.6671 32.5911C40.5253 32.6809 40.3742 32.7498 40.2173 32.7978L40.1328 33.2489L39.3746 33.2778L39.2564 32.8347C39.0964 32.7987 38.9404 32.7418 38.7924 32.6631L38.4142 32.9222L37.8573 32.4062L38.0871 32.0093C37.9973 31.8676 37.9284 31.7164 37.8804 31.5596L37.4293 31.4751L37.4004 30.7169L37.8435 30.5987C37.8795 30.4391 37.9364 30.2827 38.0151 30.1347L37.7559 29.7564L38.2719 29.1996L38.6688 29.4289ZM39.0942 30.4316C38.7884 30.7613 38.8084 31.2764 39.1382 31.5822C39.4679 31.888 39.9831 31.868 40.2888 31.5382C40.5946 31.2084 40.5746 30.6933 40.2448 30.3875C39.9146 30.0818 39.3995 30.1018 39.0942 30.4316Z" fill="#BF9892"/>
</g>
<g opacity="0.63">
<path d="M39.9717 17.42L40.8392 17.784C40.8392 17.784 41.1446 17.0555 41.9072 17.36C42.3032 17.5182 42.3992 17.8613 42.3992 18.0933C42.3992 18.3627 42.2606 18.6115 42.0428 18.7702C41.7939 18.9511 41.3788 19.0364 40.8375 18.6884L40.0175 20.6444L40.8752 21.004L41.3557 19.8578C41.3557 19.8578 42.6895 20.0511 43.2455 18.7249C43.7775 17.456 42.7632 16.6844 42.2761 16.48C41.9037 16.3244 40.597 15.8822 39.9717 17.42Z" fill="#BF9892"/>
<path d="M40.7163 21.4088L39.8457 21.0439L39.5048 21.857L40.3754 22.222L40.7163 21.4088Z" fill="#BF9892"/>
</g>
<g opacity="0.63">
<path d="M40.9588 12.948L39.0912 13.7453L39.3143 14.0231L37.8281 14.9076L39.9912 14.0538L39.761 13.7676L40.9588 12.948Z" fill="#BF9892"/>
</g>
<g opacity="0.63">
<path d="M34.477 7.46756L34.125 10.6889L34.6854 10.596L34.753 13.3547L35.2574 9.67867L34.6797 9.77467L34.477 7.46756Z" fill="#BF9892"/>
</g>
<g opacity="0.63">
<path d="M37.9026 8.30799L36.9039 11.128C36.8221 11.3587 36.9252 11.6138 37.1443 11.7231C37.375 11.8382 37.6559 11.7524 37.7826 11.5275L39.2661 8.89821C39.3786 8.6991 39.291 8.44665 39.0795 8.35999L38.4057 8.0831C38.2043 8.00043 37.975 8.1031 37.9026 8.30799Z" fill="#BF9892"/>
<path d="M37.2119 13.5782C36.9452 13.8795 36.4848 13.908 36.1834 13.6413C35.8821 13.3747 35.8537 12.9142 36.1203 12.6129C36.387 12.3115 36.8474 12.2831 37.1488 12.5498C37.4501 12.8164 37.4785 13.2769 37.2119 13.5782Z" fill="#BF9892"/>
</g>
<path opacity="0.37" d="M38.286 22.6791C38.9522 21.5725 39.1802 20.2213 38.962 18.9502C38.9531 18.8996 38.9429 18.8489 38.9304 18.7982C38.8371 18.3573 38.7655 17.9987 38.5522 17.624C38.5304 17.5773 38.5082 17.5307 38.4851 17.4845C38.462 17.4382 38.4384 17.3925 38.4135 17.3471C37.5313 15.7098 35.7486 14.596 33.89 14.5213C33.574 11.5253 31.4802 8.78534 28.6722 7.69334C25.8642 6.60134 22.4695 7.20668 20.2122 9.20134C17.8269 7.41468 14.5313 6.91868 11.726 7.92401C8.92065 8.92934 6.68998 11.4053 5.98198 14.3005C5.76554 15.1858 5.67532 16.1236 5.22376 16.9151C4.88287 17.5125 4.36065 17.9809 3.91443 18.504C2.48998 20.1738 1.84821 22.4853 2.20909 24.6507C2.56954 26.816 3.92554 28.7947 5.81443 29.9133C4.30554 31.9858 4.83487 35.2502 6.92154 36.7396C8.11976 37.5947 9.71843 37.9222 10.6313 39.0773C11.0198 39.5685 11.2446 40.1676 11.582 40.6956C12.7278 42.4898 15.2744 43.2245 17.2002 42.3165L27.4286 39.7165C30.8664 39.9925 34.3962 38.868 37.0415 36.6551C38.0224 35.8347 38.9038 34.8396 39.3286 33.6333C39.7535 32.4271 39.6522 30.9831 38.8366 29.9987C40.7624 28.0142 40.4869 24.352 38.286 22.6791Z" fill="#BF9892"/>
<path d="M13.707 27.4622C13.8545 27.3689 14.0123 27.2969 14.1759 27.2471L14.2639 26.7769L15.0545 26.7467L15.1781 27.2089C15.3448 27.2462 15.5074 27.3058 15.6621 27.388L16.0563 27.1178L16.6368 27.6556L16.3972 28.0693C16.4905 28.2169 16.5625 28.3751 16.6123 28.5382L17.0825 28.6262L17.1128 29.4169L16.6505 29.5405C16.6132 29.7071 16.5537 29.8698 16.4714 30.024L16.7417 30.4182L16.2039 30.9987L15.7901 30.7591C15.6425 30.8525 15.4843 30.9245 15.3212 30.9742L15.2332 31.4445L14.4425 31.4747L14.319 31.0125C14.1523 30.9751 13.9897 30.9156 13.8354 30.8333L13.4412 31.1036L12.8608 30.5658L13.1003 30.152C13.007 30.0045 12.935 29.8467 12.8852 29.6831L12.415 29.5951L12.3848 28.8045L12.847 28.6809C12.8843 28.5142 12.9439 28.3516 13.0261 28.1973L12.7559 27.8031L13.2937 27.2227L13.707 27.4622ZM14.1501 28.5071C13.8314 28.8511 13.8519 29.388 14.1959 29.7067C14.5399 30.0253 15.0768 30.0049 15.3954 29.6609C15.7141 29.3169 15.6937 28.78 15.3497 28.4613C15.0061 28.1427 14.4688 28.1631 14.1501 28.5071Z" fill="#F5F5F5"/>
<path d="M28.2684 14.7898C28.3484 14.7391 28.4333 14.7004 28.5217 14.6733L28.5693 14.4196L28.9964 14.4031L29.063 14.6529C29.1528 14.6733 29.2408 14.7053 29.3244 14.7498L29.5373 14.604L29.8506 14.8947L29.7213 15.1182C29.7719 15.1982 29.8106 15.2831 29.8377 15.3716L30.0915 15.4191L30.1079 15.8462L29.8582 15.9129C29.8382 16.0027 29.8057 16.0907 29.7617 16.1742L29.9075 16.3871L29.6168 16.7004L29.3933 16.5711C29.3133 16.6218 29.2284 16.6604 29.1399 16.6876L29.0924 16.9413L28.6653 16.9578L28.5986 16.708C28.5088 16.6876 28.4208 16.6556 28.3373 16.6111L28.1244 16.7569L27.811 16.4662L27.9404 16.2427C27.8897 16.1627 27.851 16.0778 27.8239 15.9893L27.5702 15.9418L27.5537 15.5147L27.8035 15.448C27.8235 15.3582 27.8559 15.2702 27.8999 15.1867L27.7542 14.9738L28.0448 14.6604L28.2684 14.7898ZM28.5079 15.3547C28.3359 15.5404 28.347 15.8307 28.5328 16.0027C28.7186 16.1747 29.0088 16.1636 29.1808 15.9778C29.3528 15.792 29.3417 15.5018 29.1559 15.3298C28.9702 15.1578 28.6799 15.1689 28.5079 15.3547Z" fill="#F5F5F5"/>
<path d="M7.62562 32.5702C7.72873 32.5049 7.83895 32.4547 7.95317 32.42L8.01451 32.0916L8.56695 32.0707L8.65317 32.3938C8.76962 32.42 8.88339 32.4618 8.99139 32.5187L9.26695 32.3298L9.67273 32.7058L9.50562 32.9951C9.57095 33.0982 9.62117 33.2089 9.65628 33.3227L9.98473 33.384L10.0056 33.9365L9.68251 34.0227C9.65628 34.1391 9.61451 34.2529 9.55762 34.3609L9.74651 34.6365L9.37051 35.0422L9.08117 34.8751C8.97806 34.9405 8.86739 34.9907 8.75362 35.0253L8.69228 35.3538L8.13984 35.3747L8.05362 35.0516C7.93717 35.0253 7.82339 34.9836 7.71539 34.9267L7.43984 35.1156L7.03406 34.7396L7.20117 34.4502C7.13584 34.3471 7.08562 34.2369 7.05051 34.1227L6.72206 34.0613L6.70117 33.5089L7.02428 33.4227C7.05051 33.3062 7.09228 33.1925 7.14917 33.0845L6.96028 32.8089L7.33628 32.4031L7.62562 32.5702ZM7.93539 33.3005C7.71273 33.5409 7.72695 33.916 7.96739 34.1387C8.20784 34.3613 8.58295 34.3471 8.80562 34.1067C9.02828 33.8662 9.01406 33.4911 8.77362 33.2685C8.53362 33.0458 8.15806 33.0605 7.93539 33.3005Z" fill="#F5F5F5"/>
<path d="M32.7155 33.3813C32.8186 33.316 32.9288 33.2658 33.043 33.2307L33.1043 32.9022L33.6568 32.8813L33.743 33.2045C33.8595 33.2307 33.9732 33.2725 34.0812 33.3293L34.3568 33.1405L34.7626 33.5165L34.5955 33.8058C34.6608 33.9089 34.711 34.0196 34.7461 34.1333L35.0746 34.1947L35.0955 34.7471L34.7723 34.8333C34.7461 34.9498 34.7043 35.0636 34.6475 35.1716L34.8363 35.4471L34.4603 35.8529L34.171 35.6858C34.0679 35.7511 33.9572 35.8013 33.8435 35.836L33.7821 36.1645L33.2297 36.1853L33.1435 35.8622C33.027 35.836 32.9132 35.7942 32.8052 35.7373L32.5297 35.9262L32.1239 35.5502L32.291 35.2609C32.2257 35.1578 32.1755 35.0476 32.1403 34.9333L31.8119 34.872L31.791 34.3196L32.1141 34.2333C32.1403 34.1169 32.1821 34.0031 32.239 33.8951L32.0501 33.6196L32.4261 33.2138L32.7155 33.3813ZM33.0252 34.112C32.8026 34.3525 32.8168 34.7276 33.0572 34.9502C33.2977 35.1729 33.6728 35.1587 33.8955 34.9182C34.1181 34.6778 34.1039 34.3027 33.8635 34.08C33.6235 33.8573 33.2479 33.8716 33.0252 34.112Z" fill="#F5F5F5"/>
<path d="M10.0398 23.2911C9.91043 22.9698 9.6362 22.704 9.30287 22.6089C9.01665 22.5271 8.67976 22.5591 8.45665 22.3622C8.35043 22.2684 8.28776 22.136 8.19442 22.0298C8.02731 21.84 7.77309 21.7484 7.52243 21.7147C6.68243 21.6013 5.9122 22.176 5.60598 22.8489C5.26242 23.076 4.91354 23.308 4.65398 23.628C4.39487 23.948 4.23487 24.3751 4.33087 24.7751C4.40154 25.0689 4.6002 25.3196 4.67265 25.6129C4.73887 25.8809 4.69487 26.1627 4.71576 26.4378C4.73709 26.7129 4.85398 27.0147 5.11087 27.1151C5.42776 27.2391 5.82065 27.0058 6.11309 27.1791C6.3122 27.2969 6.37576 27.5551 6.53843 27.72C6.8202 28.0058 7.29487 27.9324 7.67442 27.8009C8.11265 27.6493 8.53354 27.4476 8.92687 27.2013C9.18376 27.0404 9.43265 26.8564 9.61443 26.6133C9.7962 26.3707 9.90509 26.0604 9.85487 25.7613C9.8242 25.5787 9.73665 25.4071 9.72554 25.2227C9.70554 24.8973 9.91976 24.6111 10.0353 24.3062C10.1589 23.9827 10.1691 23.6124 10.0398 23.2911Z" fill="#F5F5F5"/>
<path d="M9.41215 26.82L8.59215 27.3849L8.59082 27.3862L9.42993 27.6836L9.41215 26.82Z" fill="#F5F5F5"/>
<path d="M6.73797 24.7831C6.73797 24.9698 6.58641 25.1213 6.39975 25.1213C6.21308 25.1213 6.06152 24.9698 6.06152 24.7831C6.06152 24.5964 6.21308 24.4449 6.39975 24.4449C6.58641 24.4449 6.73797 24.5964 6.73797 24.7831Z" fill="#BF9892"/>
<path d="M7.78777 24.7831C7.78777 24.9698 7.63622 25.1213 7.44955 25.1213C7.26288 25.1213 7.11133 24.9698 7.11133 24.7831C7.11133 24.5964 7.26288 24.4449 7.44955 24.4449C7.63622 24.4449 7.78777 24.5964 7.78777 24.7831Z" fill="#BF9892"/>
<path d="M8.83855 24.7831C8.83855 24.9698 8.687 25.1213 8.50033 25.1213C8.31366 25.1213 8.16211 24.9698 8.16211 24.7831C8.16211 24.5964 8.31366 24.4449 8.50033 24.4449C8.687 24.4449 8.83855 24.5964 8.83855 24.7831Z" fill="#BF9892"/>
<path d="M35.7731 17.5795C35.6966 17.4564 35.5335 17.4267 35.3891 17.4138C34.8664 17.3667 34.338 17.3849 33.8202 17.4684C33.6371 17.4978 33.3762 17.4813 33.3584 17.2964C33.3477 17.1875 33.4464 17.0964 33.5486 17.0573C33.726 16.9898 33.9233 17.0218 34.1131 17.0173C34.3029 17.0129 34.5184 16.9498 34.5944 16.776C34.7104 16.5124 34.4091 16.2395 34.1242 16.1978C33.8393 16.1564 33.5402 16.2347 33.2651 16.1493L32.6655 16.1622C32.2229 16.1698 31.7811 16.2338 31.3549 16.3524C31.2353 16.3858 31.0949 16.4493 31.0864 16.5733C31.078 16.6947 31.2024 16.7773 31.2602 16.8844C31.3762 17.0995 31.1869 17.3711 30.9575 17.4555C30.7282 17.54 30.4744 17.5062 30.2309 17.5244C29.9869 17.5431 29.7153 17.6453 29.6349 17.876C29.5713 18.0582 29.6477 18.2653 29.5917 18.4502C29.5206 18.6844 29.262 18.8075 29.0211 18.8507C28.7802 18.8938 28.5251 18.8871 28.3024 18.9889C27.9789 19.1364 27.7833 19.5213 27.8544 19.8693C27.9255 20.2178 28.2566 20.4947 28.6122 20.5031C28.7846 20.5071 28.954 20.4555 29.1264 20.4462C29.2522 20.4395 29.3891 20.464 29.4891 20.5347C29.5104 20.8991 29.7624 21.256 30.1202 21.352C30.3584 21.416 30.614 21.3755 30.8553 21.4267C31.0966 21.4778 31.3446 21.6827 31.2989 21.9249C31.266 22.0978 31.0944 22.2244 31.0806 22.4C31.0637 22.6147 31.2966 22.7715 31.5113 22.7911C31.7255 22.8107 31.9402 22.7444 32.1553 22.7569C32.3704 22.7693 32.61 22.9062 32.6149 23.1213C32.6202 23.3604 32.3389 23.5298 32.3335 23.7689C32.3291 23.9693 32.5211 24.1178 32.7082 24.1898C32.8953 24.2622 33.1051 24.2991 33.2522 24.4355C33.3993 24.5715 33.4242 24.8618 33.2411 24.9427C33.5375 24.9324 33.7117 24.5022 33.506 24.2884C33.3789 24.156 33.1646 24.12 33.0664 23.9653C32.9566 23.7924 33.0526 23.5533 33.21 23.4231C33.3677 23.2929 33.5713 23.2364 33.758 23.1529C33.9446 23.0693 34.1313 22.936 34.1797 22.7373C34.2522 22.4395 33.9664 22.1578 33.6673 22.0911C33.3682 22.0244 33.0584 22.0995 32.7522 22.1178C32.4464 22.136 32.0984 22.0738 31.926 21.8204C32.2593 21.6618 32.5926 21.5035 32.926 21.3449C33.0171 21.3018 33.1171 21.2484 33.1482 21.1524C33.2037 20.9804 33.0077 20.8404 32.8433 20.7658C32.6264 20.6671 32.4091 20.5684 32.1922 20.4698C32.19 20.4307 32.1815 20.3915 32.1664 20.3542C32.5615 20.1915 33.0082 20.2538 33.4317 20.3111C33.8553 20.3684 34.3082 20.4138 34.6904 20.2227C35.0726 20.032 35.3189 19.5107 35.0731 19.1609C34.9406 18.9724 34.6837 18.8431 34.6784 18.6124C34.674 18.4218 34.8557 18.2773 35.0362 18.2164C35.2166 18.1555 35.4153 18.1435 35.5824 18.0515C35.7495 17.9618 35.8735 17.7418 35.7731 17.5795Z" fill="#F5F5F5"/>
<path d="M31.0247 18.9969C31.2034 18.9969 31.3483 18.852 31.3483 18.6733C31.3483 18.4946 31.2034 18.3498 31.0247 18.3498C30.846 18.3498 30.7012 18.4946 30.7012 18.6733C30.7012 18.852 30.846 18.9969 31.0247 18.9969Z" fill="#BF9892"/>
<path d="M32.3532 18.6733C32.3532 18.852 32.2083 18.9969 32.0296 18.9969C31.8509 18.9969 31.7061 18.852 31.7061 18.6733C31.7061 18.4947 31.8509 18.3498 32.0296 18.3498C32.2083 18.3498 32.3532 18.4947 32.3532 18.6733Z" fill="#BF9892"/>
<path d="M33.0345 18.9969C33.2132 18.9969 33.358 18.852 33.358 18.6733C33.358 18.4946 33.2132 18.3498 33.0345 18.3498C32.8558 18.3498 32.7109 18.4946 32.7109 18.6733C32.7109 18.852 32.8558 18.9969 33.0345 18.9969Z" fill="#BF9892"/>
<path d="M10.3809 11.2187C9.66227 11.2156 8.96227 11.6742 8.67872 12.3347C8.39516 12.9951 8.54405 13.8187 9.04094 14.3378C8.15783 14.5285 7.59027 15.5627 7.82761 16.4347C8.0645 17.3067 8.9965 17.9031 9.89783 17.8405C10.7992 17.7778 11.6067 17.1187 11.9383 16.2778C12.1827 16.9738 12.8805 17.4849 13.6178 17.5085C14.3552 17.5316 15.0841 17.0653 15.3716 16.3858C15.7694 17.1267 16.9045 17.2507 17.5538 16.7165C18.2032 16.1822 18.3525 15.1902 18.0409 14.4089C17.7294 13.628 17.0361 13.048 16.2734 12.6947C16.7596 12.256 16.8205 11.452 16.4738 10.8965C16.1272 10.3409 15.4436 10.0431 14.7898 10.0765C14.1356 10.1098 13.5201 10.4422 13.0574 10.9058C12.8472 10.3525 12.2401 9.97912 11.6516 10.0413C11.0632 10.1036 10.5472 10.5951 10.4569 11.18" fill="#F5F5F5"/>
<path d="M11.3809 12.824L12.2253 14.3115C12.2942 14.4333 12.4431 14.4844 12.5724 14.4307C12.7089 14.3742 12.7769 14.2204 12.7271 14.0818L12.1467 12.456C12.1027 12.3329 11.9609 12.276 11.844 12.3351L11.472 12.5227C11.3613 12.5787 11.3195 12.716 11.3809 12.824Z" fill="#BF9892"/>
<path d="M13.3998 15.0964C13.43 15.3244 13.27 15.5342 13.042 15.5644C12.814 15.5947 12.6042 15.4347 12.574 15.2067C12.5438 14.9787 12.7038 14.7689 12.9318 14.7387C13.1598 14.708 13.3695 14.868 13.3998 15.0964Z" fill="#BF9892"/>
<path d="M14.1123 11.9391L14.1394 13.4156C14.1417 13.5365 14.2337 13.6365 14.3537 13.6489C14.4803 13.6622 14.595 13.5738 14.615 13.448L14.8448 11.976C14.8621 11.8645 14.7781 11.7631 14.6652 11.7596L14.3061 11.7485C14.1986 11.7445 14.1106 11.8316 14.1123 11.9391Z" fill="#BF9892"/>
<path d="M14.7064 14.4942C14.6353 14.6796 14.4273 14.7724 14.242 14.7018C14.0566 14.6307 13.9637 14.4227 14.0344 14.2373C14.1055 14.052 14.3135 13.9591 14.4989 14.0298C14.6846 14.1009 14.7775 14.3084 14.7064 14.4942Z" fill="#BF9892"/>
<path d="M27.6564 26.7325L26.8915 28.8925C26.8288 29.0689 26.908 29.2645 27.0755 29.3485C27.2524 29.4369 27.4675 29.3711 27.5644 29.1987L28.7008 27.1845C28.7871 27.032 28.72 26.8387 28.5577 26.772L28.0417 26.56C27.8875 26.4969 27.712 26.5756 27.6564 26.7325Z" fill="#F5F5F5"/>
<path d="M27.1278 30.7693C26.9234 31.0004 26.5709 31.0218 26.3398 30.8178C26.1087 30.6133 26.0874 30.2609 26.2914 30.0298C26.4954 29.7987 26.8482 29.7773 27.0794 29.9813C27.3105 30.1858 27.3318 30.5387 27.1278 30.7693Z" fill="#F5F5F5"/>
<path d="M18.7326 12.0751H19.4614C19.4614 12.0751 19.4614 11.4036 20.0974 11.3916C20.4277 11.3853 20.5988 11.6227 20.6686 11.8044C20.7494 12.0156 20.725 12.2564 20.6166 12.452C20.493 12.6756 20.2219 12.8787 19.7308 12.784V14.5871H20.4512V13.5311C20.4512 13.5311 21.4619 13.2444 21.4619 12.0222C21.4619 10.8529 20.5063 10.5813 20.097 10.5813C19.7846 10.5813 18.7188 10.6644 18.7326 12.0751Z" fill="#F5F5F5"/>
<path d="M20.4601 14.9586H19.7285V15.708H20.4601V14.9586Z" fill="#F5F5F5"/>
<path d="M37.9137 25.0169C37.9137 25.0169 37.923 25.0067 37.9443 24.9893C37.9657 24.9724 38.0012 24.9502 38.0532 24.9351C38.1052 24.92 38.1746 24.9138 38.2532 24.932C38.3315 24.9493 38.4195 24.9951 38.4852 25.0796C38.5519 25.1622 38.5963 25.2787 38.6021 25.4093C38.6092 25.5404 38.5719 25.6836 38.5021 25.8213C38.3581 26.096 38.1092 26.3618 37.791 26.6031C37.6315 26.7244 37.4541 26.8396 37.2643 26.9542C37.0741 27.0684 36.8728 27.1853 36.655 27.2947C36.4372 27.4027 36.2039 27.5062 35.9492 27.5804C35.8226 27.6187 35.6906 27.6489 35.5546 27.668C35.4186 27.6889 35.2781 27.6969 35.1355 27.6911C34.9946 27.6876 34.8417 27.6693 34.715 27.5831C34.6532 27.5396 34.6035 27.4729 34.5879 27.3956C34.571 27.3187 34.5861 27.2382 34.6163 27.1671C34.6768 27.0227 34.7879 26.908 34.8999 26.7996C35.0132 26.6907 35.1386 26.5916 35.2692 26.4973C35.5328 26.3111 35.8146 26.1373 36.1039 25.9587C36.395 25.7836 36.7057 25.6164 37.0492 25.5093C37.2208 25.456 37.3999 25.4182 37.5835 25.4044C37.7666 25.3911 37.9572 25.3987 38.1386 25.4564C38.3168 25.5133 38.4972 25.616 38.5959 25.7902C38.6986 25.9622 38.6888 26.1836 38.6061 26.3631C38.5252 26.5476 38.371 26.6902 38.2003 26.7947C38.0279 26.8987 37.8381 26.9729 37.6426 27.0302C37.2501 27.1431 36.8301 27.1729 36.4101 27.1489C35.9888 27.1253 35.5666 27.0498 35.1408 26.9649C34.9279 26.9222 34.7128 26.8764 34.5017 26.8089C34.3963 26.7747 34.2915 26.736 34.1901 26.6884C34.0892 26.6422 33.9857 26.5862 33.9088 26.4964C33.871 26.452 33.8412 26.3964 33.8332 26.3364C33.8235 26.2764 33.8372 26.2142 33.8635 26.1609C33.9172 26.0538 34.0115 25.976 34.1106 25.9182C34.3106 25.7987 34.5439 25.752 34.7728 25.7293C35.2332 25.6916 35.7017 25.6902 36.1732 25.7333C36.4088 25.756 36.6452 25.7893 36.8799 25.84C36.9972 25.864 37.1141 25.8942 37.2301 25.9262C37.3452 25.9587 37.4661 25.9951 37.5675 26.0729C37.6661 26.1489 37.7421 26.2756 37.7181 26.4098C37.6932 26.5436 37.5839 26.6333 37.4795 26.696C37.263 26.8187 37.023 26.896 36.775 26.9284C36.651 26.9444 36.5252 26.9484 36.3999 26.9409C36.275 26.9324 36.1483 26.9156 36.0275 26.8711C35.9088 26.8276 35.7906 26.7551 35.723 26.6382C35.6537 26.5213 35.6639 26.3711 35.7243 26.2551C35.8439 26.0178 36.1177 25.8818 36.3803 25.9062C36.511 25.9187 36.6426 25.9751 36.7301 26.0796C36.8163 26.1822 36.8608 26.3187 36.8492 26.4533C36.8435 26.5204 36.8221 26.5876 36.7839 26.6444C36.7461 26.7022 36.6919 26.7467 36.6315 26.7782C36.5097 26.8404 36.3675 26.8471 36.2377 26.8169C36.1088 26.7871 35.9772 26.7142 35.9172 26.5827C35.8879 26.5169 35.895 26.4338 35.9377 26.3747C35.9795 26.3147 36.0439 26.2778 36.1115 26.2604C36.251 26.2293 36.3835 26.2742 36.5088 26.308C36.6355 26.3458 36.7617 26.3951 36.8732 26.4724C36.9848 26.5489 37.0772 26.6573 37.127 26.7862C37.1786 26.9138 37.1723 27.0676 37.1052 27.1893C37.0395 27.312 36.9332 27.4071 36.8146 27.4733C36.6963 27.5413 36.563 27.5822 36.4275 27.5978C36.1563 27.6293 35.8737 27.5609 35.6475 27.4053C35.4199 27.2511 35.2475 27.0231 35.1439 26.7689C35.0417 26.5164 35.0008 26.2244 35.0897 25.9564C35.1328 25.8231 35.2177 25.7018 35.3315 25.6182C35.4448 25.5342 35.5781 25.4867 35.7106 25.4538C35.9772 25.3884 36.2523 25.38 36.5217 25.3902C36.7906 25.404 37.0612 25.4147 37.3248 25.4804C37.5857 25.5444 37.8412 25.6822 37.9986 25.9084C38.0768 26.0204 38.1239 26.1547 38.1323 26.2902C38.1408 26.4262 38.1172 26.5622 38.0697 26.688C37.9755 26.9427 37.7835 27.1458 37.5715 27.2996C37.4648 27.3778 37.3519 27.4453 37.2372 27.508C37.1226 27.5707 37.0052 27.6289 36.8835 27.6773C36.6421 27.7756 36.3719 27.8244 36.1132 27.7733C35.855 27.7258 35.6186 27.6098 35.403 27.4724C35.1875 27.3342 34.9897 27.1636 34.8412 26.9542C34.691 26.7462 34.6052 26.496 34.5826 26.244C34.5581 25.9916 34.5986 25.7369 34.6821 25.5013C34.7666 25.2658 34.9003 25.0493 35.0719 24.8711C35.243 24.6924 35.4457 24.5467 35.6666 24.4422C35.8879 24.3387 36.1252 24.2733 36.3661 24.2511C36.607 24.2289 36.8497 24.256 37.079 24.3236C37.3061 24.3933 37.5252 24.5173 37.6679 24.7116C37.8106 24.9053 37.8683 25.144 37.8861 25.3738C37.9146 25.8373 37.8275 26.2982 37.6506 26.712C37.5617 26.9187 37.4523 27.116 37.3168 27.2924C37.1812 27.4684 37.0163 27.6231 36.823 27.7298C36.6297 27.8347 36.4097 27.8916 36.1915 27.8773C35.9723 27.8649 35.7675 27.7653 35.6061 27.6284C35.4421 27.4924 35.3088 27.3302 35.175 27.1729C35.0426 27.0147 34.9155 26.8489 34.8359 26.6578C34.7972 26.5622 34.7723 26.4609 34.7675 26.3582C34.763 26.2556 34.7799 26.1529 34.8106 26.0569C34.8732 25.8636 34.9857 25.6947 35.1106 25.5444C35.3612 25.2436 35.6932 25.012 36.0617 24.9196C36.427 24.8271 36.8243 24.8711 37.1323 25.0653C37.4426 25.2564 37.6501 25.5649 37.7706 25.8827C37.8919 26.2027 37.9319 26.5436 37.8901 26.8653C37.8488 27.1862 37.7106 27.4907 37.483 27.6996C37.2559 27.9089 36.9679 28.0173 36.6906 28.0747C36.4115 28.1293 36.1332 28.1484 35.8697 28.1098C35.6061 28.0733 35.3643 27.9573 35.1866 27.7884C35.007 27.6209 34.8843 27.4129 34.8146 27.2013C34.7443 26.9893 34.7297 26.772 34.7541 26.5729C34.8026 26.172 34.9852 25.8467 35.1843 25.6142C35.3866 25.38 35.6052 25.2298 35.7879 25.1267C35.9719 25.024 36.1226 24.9662 36.2243 24.9311C36.3266 24.896 36.3803 24.8831 36.3803 24.8831C36.3803 24.8831 36.3675 24.888 36.3412 24.8964C36.315 24.9044 36.2768 24.9173 36.2257 24.9356C36.1248 24.9724 35.975 25.0311 35.7923 25.1347C35.611 25.2387 35.3946 25.3898 35.1946 25.6231C34.9981 25.8551 34.8181 26.1782 34.7719 26.5751C34.7483 26.772 34.7635 26.9858 34.8332 27.1951C34.9026 27.4036 35.0239 27.608 35.2008 27.7724C35.3763 27.9378 35.6128 28.0507 35.8723 28.0858C36.1315 28.1236 36.4079 28.104 36.6843 28.0493C36.9586 27.992 37.2417 27.884 37.463 27.6791C37.6843 27.4751 37.8195 27.1773 37.8595 26.8618C37.9003 26.5453 37.8603 26.2093 37.7399 25.8942C37.6212 25.5813 37.4163 25.2796 37.1137 25.0938C36.8141 24.9053 36.4261 24.8622 36.0688 24.9533C35.7092 25.044 35.3835 25.2711 35.1372 25.5676C35.0141 25.716 34.9043 25.8818 34.8443 26.068C34.8146 26.1609 34.799 26.2587 34.803 26.3564C34.8079 26.4542 34.8315 26.5516 34.8688 26.6436C34.9457 26.828 35.071 26.9911 35.2026 27.1484C35.3359 27.3053 35.4688 27.4662 35.6288 27.5987C35.787 27.732 35.9821 27.8262 36.1923 27.8382C36.4017 27.852 36.6146 27.7973 36.8017 27.6951C36.9888 27.5916 37.1497 27.4404 37.2826 27.268C37.4155 27.0947 37.523 26.9 37.6106 26.696C37.7848 26.288 37.8701 25.832 37.8421 25.3769C37.8248 25.1516 37.7679 24.9209 37.6319 24.7364C37.4959 24.552 37.2861 24.432 37.0643 24.3644C36.8408 24.2991 36.6035 24.2724 36.3679 24.2942C36.1328 24.3164 35.8999 24.3804 35.6835 24.4818C35.2523 24.6862 34.8848 25.0533 34.7221 25.5169C34.6408 25.7467 34.6017 25.9947 34.6252 26.24C34.6475 26.4849 34.7301 26.7262 34.8759 26.928C35.0199 27.1311 35.2132 27.2978 35.4252 27.4338C35.6377 27.5689 35.8697 27.6822 36.119 27.728C36.3683 27.7769 36.627 27.7302 36.8639 27.6342C36.983 27.5867 37.099 27.5293 37.2123 27.4671C37.3261 27.4049 37.4372 27.3382 37.5412 27.2618C37.7492 27.1107 37.9332 26.9147 38.0235 26.6711C38.0692 26.5507 38.091 26.4209 38.083 26.2929C38.0746 26.1649 38.031 26.04 37.9572 25.9342C37.8083 25.7204 37.5648 25.5871 37.3101 25.5249C37.0537 25.4609 36.7843 25.4498 36.5168 25.436C36.2497 25.4258 35.979 25.4342 35.7186 25.4982C35.5892 25.5302 35.4617 25.5764 35.3559 25.6551C35.2501 25.7329 35.1719 25.8449 35.131 25.9707C35.047 26.224 35.0848 26.5053 35.1843 26.7507C35.2843 26.9973 35.4519 27.2178 35.6706 27.3662C35.8879 27.516 36.1595 27.5813 36.419 27.5511C36.5488 27.5364 36.6759 27.4973 36.7883 27.4324C36.9012 27.3693 37.0008 27.2796 37.0608 27.1671C37.1221 27.0556 37.1275 26.92 37.0803 26.8022C37.0346 26.6836 36.9488 26.5822 36.8435 26.5102C36.7381 26.4369 36.6163 26.3889 36.4923 26.352C36.3683 26.3178 36.239 26.2773 36.119 26.3049C36.0608 26.3191 36.0052 26.352 35.9723 26.4004C35.9386 26.448 35.9328 26.5107 35.9563 26.5644C36.0057 26.6742 36.1248 26.7449 36.2443 26.7716C36.3652 26.7996 36.4977 26.7929 36.6066 26.7369C36.7172 26.6827 36.791 26.5707 36.7995 26.4484C36.8101 26.3271 36.7697 26.2013 36.6915 26.1084C36.6137 26.0151 36.4937 25.9622 36.3723 25.9511C36.1283 25.9276 35.8706 26.0564 35.7612 26.2747C35.7061 26.3813 35.6981 26.512 35.7586 26.6151C35.8177 26.7182 35.9257 26.7867 36.039 26.828C36.1532 26.8707 36.2759 26.8871 36.3986 26.8956C36.5212 26.9031 36.6439 26.8991 36.7652 26.8836C37.007 26.852 37.2435 26.776 37.4528 26.6573C37.5532 26.5973 37.6506 26.5133 37.6706 26.4013C37.6915 26.2902 37.6261 26.1764 37.5363 26.1071C37.4443 26.036 37.3288 26 37.2141 25.968C37.099 25.936 36.983 25.9062 36.8666 25.8822C36.6337 25.832 36.399 25.7987 36.1648 25.776C35.6963 25.7324 35.2288 25.7338 34.7723 25.7711C34.5461 25.7933 34.319 25.8396 34.127 25.9538C34.0315 26.0093 33.9443 26.0831 33.8959 26.1787C33.8452 26.2738 33.8639 26.3902 33.9355 26.4698C34.0052 26.5511 34.103 26.6053 34.2026 26.6511C34.3021 26.6978 34.4052 26.736 34.5092 26.7698C34.7177 26.8369 34.9315 26.8827 35.1439 26.9253C35.5688 27.0107 35.9897 27.0862 36.4075 27.1098C36.8243 27.1342 37.2399 27.1044 37.6275 26.9938C37.8203 26.9373 38.0079 26.864 38.1763 26.7627C38.343 26.6609 38.4915 26.5236 38.5683 26.348C38.6475 26.176 38.6563 25.968 38.5603 25.8076C38.4683 25.6444 38.2963 25.5444 38.123 25.4893C37.947 25.4329 37.7612 25.4253 37.5808 25.4382C37.3999 25.4516 37.223 25.4884 37.0537 25.5409C36.7141 25.6462 36.4052 25.8111 36.115 25.9853C35.8266 26.1631 35.5439 26.3369 35.2817 26.5213C35.1515 26.6147 35.027 26.7129 34.915 26.8204C34.8035 26.9276 34.695 27.04 34.6372 27.1778C34.6083 27.2453 34.595 27.32 34.6101 27.3898C34.6243 27.46 34.6688 27.52 34.7261 27.5609C34.8443 27.6418 34.9928 27.6613 35.1319 27.6649C35.2728 27.6711 35.4119 27.6636 35.5466 27.6431C35.6812 27.6244 35.8123 27.5947 35.9381 27.5573C36.1906 27.4844 36.423 27.3822 36.6408 27.2751C36.8577 27.1667 37.0595 27.0507 37.2497 26.9373C37.4395 26.8236 37.6168 26.7093 37.7759 26.5893C38.0937 26.3502 38.3421 26.0867 38.4857 25.8156C38.5559 25.68 38.5928 25.5391 38.5866 25.4107C38.5817 25.2822 38.5386 25.1676 38.4741 25.0862C38.4101 25.0031 38.3248 24.9573 38.2479 24.9396C38.171 24.9209 38.1021 24.9262 38.0506 24.9404C37.9506 24.9698 37.9155 25.0209 37.9137 25.0169Z" fill="#F5F5F5"/>
<path d="M28.411 9.70354C28.411 9.70354 28.4261 9.68754 28.4603 9.65999C28.4945 9.63332 28.5514 9.59776 28.635 9.57376C28.7176 9.54976 28.8292 9.53999 28.9545 9.56932C29.079 9.59732 29.2194 9.67065 29.3243 9.80576C29.4301 9.93821 29.5012 10.124 29.5101 10.3329C29.5207 10.5422 29.4616 10.7711 29.3492 10.9907C29.1185 11.4293 28.7199 11.8547 28.2101 12.2409C27.955 12.4347 27.6705 12.6191 27.3665 12.8022C27.0616 12.9849 26.739 13.1715 26.3905 13.3467C26.0416 13.5195 25.6679 13.6849 25.2612 13.8031C25.0585 13.864 24.8474 13.912 24.6296 13.9431C24.4123 13.9764 24.1874 13.9889 23.9594 13.9795C23.7341 13.9742 23.4905 13.9444 23.2901 13.808C23.1923 13.7391 23.1145 13.6342 23.0896 13.5124C23.063 13.3915 23.087 13.2644 23.1345 13.1515C23.2305 12.9222 23.4079 12.7391 23.587 12.5658C23.7683 12.3915 23.9683 12.2333 24.1781 12.0827C24.3879 11.932 24.6079 11.7898 24.8314 11.6475C25.055 11.5053 25.2816 11.3609 25.515 11.22C25.9807 10.9395 26.4781 10.6724 27.0274 10.5013C27.3016 10.4164 27.5879 10.356 27.8812 10.3342C28.1736 10.3129 28.4776 10.3249 28.7665 10.4173C28.9105 10.4627 29.0505 10.5262 29.1772 10.6129C29.3034 10.6991 29.4172 10.8107 29.4932 10.9471C29.6559 11.2191 29.6403 11.5702 29.5092 11.8555C29.3807 12.1484 29.1354 12.3755 28.8634 12.5418C28.5883 12.708 28.2852 12.8258 27.9727 12.9178C27.3452 13.0978 26.6741 13.1458 26.0016 13.1075C25.3279 13.0698 24.6514 12.9489 23.9696 12.8124C23.6287 12.7444 23.2847 12.6707 22.947 12.5627C22.7785 12.508 22.6114 12.4458 22.4492 12.3702C22.2879 12.296 22.1239 12.2071 22.003 12.0662C21.9434 11.9964 21.8972 11.9098 21.8847 11.816C21.8696 11.7222 21.891 11.6258 21.9319 11.5418C22.0163 11.3738 22.1652 11.2502 22.3225 11.1582C22.6407 10.9684 23.0123 10.8938 23.3785 10.8573C24.115 10.7973 24.8652 10.7947 25.6203 10.864C25.9976 10.9 26.3759 10.9538 26.751 11.0342C26.939 11.0729 27.1256 11.1209 27.3114 11.172C27.4959 11.2235 27.6879 11.2822 27.847 11.4044C27.9261 11.4658 27.9923 11.5435 28.0372 11.6342C28.0816 11.724 28.103 11.8298 28.0834 11.9311C28.0656 12.0324 28.011 12.124 27.9425 12.1969C27.8741 12.2711 27.7923 12.3298 27.7074 12.3809C27.363 12.576 26.9794 12.6995 26.5839 12.7515C26.3861 12.7769 26.1856 12.7831 25.9852 12.7711C25.7861 12.7578 25.5839 12.7307 25.3927 12.66C25.2043 12.5907 25.0176 12.4764 24.9123 12.2929C24.8594 12.2027 24.835 12.0964 24.8367 11.992C24.8394 11.8871 24.8687 11.7844 24.915 11.692C25.1034 11.3178 25.5376 11.1018 25.9523 11.1404C26.159 11.16 26.3665 11.2498 26.5034 11.4133C26.6394 11.5747 26.7092 11.7902 26.6905 12.0018C26.6812 12.1075 26.6479 12.2124 26.5883 12.3018C26.5292 12.392 26.4439 12.4618 26.3496 12.5115C26.1581 12.6093 25.9336 12.62 25.7279 12.5724C25.5243 12.5258 25.3167 12.4098 25.2243 12.2053C25.179 12.1035 25.1901 11.9769 25.2559 11.8853C25.3199 11.7929 25.4207 11.7347 25.5265 11.708C25.6336 11.6822 25.7434 11.6898 25.8479 11.708C25.9527 11.7271 26.0541 11.7551 26.1559 11.7844C26.3581 11.8444 26.559 11.9235 26.7359 12.0462C26.9123 12.1675 27.059 12.3391 27.1372 12.5427C27.1754 12.6444 27.1963 12.7538 27.1905 12.8635C27.1856 12.9733 27.1532 13.0809 27.1025 13.1773C26.999 13.3707 26.8305 13.5213 26.6425 13.6267C26.5487 13.6804 26.4487 13.7244 26.3452 13.7564C26.2421 13.7907 26.1354 13.8115 26.0279 13.8244C25.5972 13.8747 25.1474 13.7658 24.7874 13.5182C24.4256 13.2729 24.1505 12.9098 23.9861 12.5049C23.9047 12.3022 23.8465 12.0875 23.8292 11.8675C23.8105 11.6484 23.8279 11.4235 23.8994 11.2129C23.9679 11.0013 24.1016 10.8098 24.2816 10.6778C24.4612 10.5453 24.6727 10.4693 24.8843 10.4164C25.3101 10.312 25.7492 10.2987 26.1803 10.3151C26.611 10.3373 27.0439 10.3547 27.4639 10.4591C27.8803 10.5613 28.2856 10.7809 28.5354 11.1391C28.6594 11.3164 28.7336 11.5284 28.7474 11.744C28.7612 11.9595 28.7239 12.1755 28.6479 12.3755C28.4981 12.78 28.1932 13.1031 27.8545 13.3493C27.6847 13.4742 27.5043 13.5822 27.3207 13.6827C27.1372 13.7831 26.9496 13.876 26.7554 13.9533C26.5616 14.0307 26.3594 14.0898 26.1523 14.1195C25.9452 14.1502 25.7336 14.1435 25.5292 14.1067C25.1185 14.0311 24.7407 13.8458 24.3959 13.6267C24.0514 13.4058 23.7359 13.1338 23.4994 12.8004C23.2603 12.4689 23.1239 12.0707 23.0874 11.6693C23.0487 11.2667 23.1132 10.8609 23.2461 10.4858C23.3123 10.2973 23.4007 10.1178 23.5052 9.94932C23.555 9.86354 23.6181 9.78621 23.6736 9.70443C23.7381 9.62932 23.7981 9.55065 23.8674 9.48043C24.1407 9.19599 24.4639 8.96265 24.8163 8.79599C25.1696 8.63065 25.5487 8.52665 25.9323 8.49065C26.3167 8.4551 26.7039 8.49865 27.0696 8.60576C27.4319 8.71688 27.7799 8.91465 28.007 9.22265C28.2336 9.53021 28.3261 9.90976 28.3541 10.2773C28.3999 11.0178 28.2607 11.7542 27.9781 12.416C27.8359 12.7462 27.6616 13.0613 27.4452 13.3435C27.2287 13.6244 26.9656 13.8711 26.6581 14.0413C26.3501 14.2089 25.9994 14.2991 25.6532 14.276C25.4807 14.264 25.3096 14.2235 25.1532 14.1529C24.9959 14.0835 24.8523 13.988 24.7216 13.88C24.4599 13.6631 24.2461 13.4035 24.0327 13.1515C23.8207 12.8982 23.6176 12.6338 23.491 12.3293C23.4296 12.1773 23.3896 12.016 23.3821 11.8529C23.3754 11.6898 23.4016 11.5271 23.451 11.3738C23.5505 11.0662 23.7296 10.7969 23.9296 10.5564C24.3301 10.0755 24.8599 9.70621 25.4474 9.55865C26.0301 9.4111 26.6639 9.48132 27.155 9.79065C27.4016 9.94087 27.6083 10.144 27.7785 10.3667C27.9452 10.5929 28.0785 10.8387 28.1741 11.0951C28.3683 11.6062 28.4323 12.1511 28.3656 12.6649C28.3323 12.9218 28.2599 13.1698 28.1527 13.3982C28.0456 13.6267 27.8936 13.8284 27.7163 13.9964C27.3541 14.3302 26.8945 14.504 26.451 14.596C26.0043 14.6835 25.559 14.7147 25.1385 14.6524C24.9287 14.6209 24.7261 14.564 24.5416 14.476C24.3567 14.3889 24.191 14.2733 24.0474 14.14C23.7603 13.8729 23.5643 13.5404 23.4527 13.2022C23.3403 12.8631 23.3163 12.5164 23.3559 12.1982C23.3927 11.8791 23.4874 11.5867 23.6096 11.3302C23.7323 11.0733 23.883 10.8515 24.043 10.664C24.3661 10.2893 24.7159 10.048 25.0083 9.88221C25.303 9.71732 25.5439 9.62488 25.707 9.56799C25.8701 9.51154 25.9563 9.48976 25.9563 9.48976C25.9563 9.48976 25.9354 9.49687 25.8936 9.51021C25.8519 9.52265 25.7901 9.54354 25.7087 9.57243C25.5465 9.63065 25.3065 9.72487 25.0132 9.89065C24.7221 10.0569 24.3745 10.2991 24.0541 10.6729C23.895 10.86 23.7461 11.0813 23.6247 11.3369C23.5043 11.5924 23.411 11.8831 23.3745 12.2C23.3363 12.516 23.3607 12.86 23.4727 13.1955C23.5839 13.5302 23.779 13.8595 24.0634 14.1231C24.3452 14.3893 24.7256 14.5707 25.143 14.6275C25.5594 14.6884 26.003 14.6573 26.4465 14.5693C26.887 14.4773 27.3416 14.3044 27.6981 13.9751C27.8727 13.8093 28.0221 13.6107 28.1274 13.3853C28.2327 13.16 28.3039 12.9147 28.3367 12.6604C28.4025 12.152 28.3385 11.612 28.1456 11.1062C28.051 10.8524 27.9185 10.6093 27.7536 10.3862C27.5852 10.1662 27.3816 9.96665 27.1385 9.81865C26.6559 9.5151 26.0314 9.44576 25.4567 9.59199C24.8781 9.73776 24.3545 10.1027 23.9581 10.5791C23.7603 10.8173 23.5839 11.084 23.4865 11.3844C23.4385 11.5342 23.4132 11.6924 23.4199 11.8507C23.4274 12.0089 23.4661 12.1658 23.5261 12.3142C23.6501 12.6115 23.8514 12.8738 24.0625 13.1258C24.2763 13.3773 24.4892 13.6355 24.747 13.8484C25.0012 14.0635 25.3172 14.2155 25.6563 14.2351C25.9941 14.2573 26.3376 14.1689 26.6394 14.0044C26.9412 13.8373 27.1999 13.5947 27.4136 13.3169C27.6274 13.0382 27.7999 12.7258 27.9407 12.3982C28.2207 11.7427 28.3581 11.0107 28.3127 10.2791C28.2852 9.91643 28.1936 9.54488 27.9736 9.24665C27.7541 8.94843 27.4145 8.7551 27.0581 8.64576C26.6981 8.54043 26.3163 8.49776 25.9376 8.53288C25.559 8.56843 25.1847 8.67154 24.8363 8.83465C24.4887 8.99954 24.1696 9.22932 23.9007 9.51021C23.8323 9.57954 23.7732 9.65688 23.7101 9.7311C23.6554 9.81154 23.5932 9.88754 23.5443 9.97199C23.4416 10.1378 23.3545 10.3151 23.2892 10.5004C23.1585 10.8702 23.095 11.2698 23.1336 11.6649C23.1696 12.0591 23.303 12.4484 23.5376 12.7738C23.7696 13.1009 24.0807 13.3693 24.4216 13.588C24.763 13.8049 25.1363 13.9875 25.5385 14.0613C25.739 14.0973 25.9447 14.104 26.147 14.0738C26.3492 14.0444 26.5479 13.9867 26.7394 13.9102C26.931 13.8338 27.1172 13.7418 27.2994 13.6418C27.4816 13.5422 27.6603 13.4347 27.8279 13.3115C28.1621 13.0684 28.4599 12.752 28.6052 12.3587C28.679 12.164 28.715 11.9542 28.7016 11.7467C28.6883 11.5391 28.6172 11.3364 28.4976 11.1649C28.379 10.9929 28.2176 10.8511 28.0381 10.7418C27.8585 10.6315 27.6585 10.5555 27.4527 10.5035C27.0399 10.4004 26.6079 10.3827 26.179 10.3609C25.7501 10.3449 25.3154 10.3582 24.8959 10.4609C24.6879 10.5124 24.4821 10.5871 24.3101 10.7142C24.1385 10.8404 24.011 11.0227 23.9447 11.2267C23.8759 11.4298 23.8585 11.6489 23.8767 11.8622C23.8936 12.0769 23.9501 12.2867 24.0301 12.4858C24.1914 12.8831 24.4612 13.2387 24.8141 13.4782C25.1647 13.72 25.6034 13.8258 26.023 13.7769C26.1279 13.7644 26.2319 13.744 26.3319 13.7107C26.4323 13.6795 26.5292 13.6373 26.6203 13.5849C26.8025 13.4831 26.9647 13.3373 27.0625 13.1542C27.1625 12.972 27.1714 12.7498 27.0945 12.5578C27.0203 12.3644 26.8807 12.2 26.7101 12.0831C26.5394 11.9644 26.343 11.8871 26.1434 11.8275C25.9443 11.7729 25.7363 11.7067 25.5381 11.752C25.4421 11.776 25.3501 11.8298 25.2945 11.9107C25.2376 11.9902 25.2283 12.0973 25.2679 12.1867C25.3061 12.2773 25.3794 12.3515 25.4616 12.4089C25.5452 12.4658 25.6403 12.5035 25.739 12.5267C25.9359 12.5724 26.1501 12.5613 26.3292 12.4698C26.4172 12.4235 26.4963 12.3582 26.551 12.2755C26.6061 12.1929 26.6372 12.096 26.6461 11.9969C26.6634 11.7987 26.5972 11.5938 26.4696 11.4418C26.3421 11.2889 26.1461 11.2031 25.9492 11.1849C25.5527 11.1471 25.135 11.3555 24.9567 11.7111C24.9127 11.7987 24.8856 11.8951 24.883 11.992C24.8816 12.0884 24.9039 12.1858 24.9527 12.2698C25.0496 12.4391 25.2265 12.5498 25.4096 12.6169C25.5945 12.6853 25.7923 12.7124 25.9896 12.7258C26.187 12.7378 26.3847 12.7315 26.5794 12.7067C26.9687 12.656 27.3487 12.5333 27.6861 12.3422C27.7687 12.2924 27.8474 12.236 27.9114 12.1662C27.9759 12.0973 28.0252 12.0138 28.0412 11.9227C28.0759 11.7378 27.9674 11.5515 27.8212 11.4387C27.671 11.3227 27.4847 11.2649 27.3007 11.2138C27.1159 11.1627 26.9301 11.1151 26.743 11.0764C26.3696 10.996 25.9932 10.9422 25.6172 10.9062C24.8656 10.8369 24.1163 10.8391 23.3839 10.8987C23.0203 10.9347 22.655 11.0084 22.3447 11.1933C22.1905 11.2831 22.0487 11.4022 21.9696 11.5591C21.9319 11.6369 21.9127 11.7244 21.9261 11.8093C21.9372 11.8942 21.9785 11.9733 22.035 12.0391C22.1487 12.172 22.307 12.2595 22.467 12.3329C22.6274 12.4075 22.7927 12.4693 22.9599 12.5235C23.295 12.6311 23.6376 12.7044 23.9781 12.7729C24.659 12.9093 25.3336 13.0302 26.0043 13.0684C26.6736 13.1071 27.3403 13.0595 27.9625 12.8813C28.2723 12.7902 28.5736 12.6729 28.8443 12.5098C29.1123 12.3462 29.3519 12.124 29.4763 11.84C29.6039 11.5622 29.6185 11.2249 29.4625 10.964C29.3896 10.8324 29.2803 10.7249 29.1572 10.6409C29.0341 10.5564 28.8972 10.4942 28.7559 10.4498C28.4723 10.3591 28.1732 10.3467 27.8834 10.3675C27.5927 10.3889 27.3087 10.4484 27.0367 10.5324C26.4914 10.7018 25.9959 10.9667 25.5305 11.2462C25.2976 11.3862 25.071 11.5307 24.8474 11.6724C24.6239 11.8142 24.4043 11.956 24.195 12.1058C23.9861 12.2555 23.7865 12.4129 23.6065 12.5858C23.4279 12.7578 23.2532 12.9387 23.1599 13.1613C23.1136 13.2707 23.091 13.392 23.1159 13.5058C23.139 13.62 23.2119 13.7187 23.3052 13.7849C23.4972 13.916 23.7363 13.9471 23.9599 13.9524C24.1861 13.9622 24.4092 13.9502 24.6252 13.9173C24.8416 13.8871 25.0519 13.8395 25.2536 13.7791C25.659 13.6618 26.0314 13.4973 26.3799 13.3258C26.7279 13.152 27.0505 12.9658 27.3554 12.784C27.6599 12.6013 27.9439 12.4182 28.1985 12.2253C28.7074 11.8418 29.1061 11.4187 29.3363 10.9835C29.4487 10.7658 29.5079 10.5395 29.4976 10.3324C29.4892 10.1258 29.4199 9.94176 29.3159 9.81065C29.2132 9.67688 29.0754 9.60399 28.9519 9.57554C28.8279 9.54576 28.7176 9.55465 28.635 9.57776C28.4692 9.6271 28.4136 9.70932 28.411 9.70354Z" fill="#BF9892"/>
<path d="M11.0625 21.4005C11.0625 21.4005 11.0456 21.3991 11.0127 21.3947C10.9781 21.3893 10.9301 21.3818 10.8674 21.372C10.7412 21.348 10.5496 21.3191 10.3243 21.216C10.2127 21.164 10.0941 21.088 9.99318 20.9751C9.89318 20.8636 9.80607 20.7133 9.79095 20.5342C9.78429 20.4458 9.79807 20.3507 9.84162 20.2649C9.88429 20.1791 9.95273 20.104 10.0372 20.048C10.1225 19.9942 10.2278 19.9587 10.3367 19.9725C10.4443 19.9867 10.5492 20.0507 10.6092 20.148C10.6714 20.2449 10.6905 20.3649 10.683 20.4813C10.6754 20.5987 10.6398 20.7156 10.5825 20.8236C10.5523 20.8765 10.5176 20.9289 10.4745 20.9738C10.4354 21.0222 10.387 21.0622 10.3394 21.1045C10.2394 21.1822 10.1261 21.2458 10.0038 21.2925C9.88118 21.3387 9.74873 21.3636 9.61407 21.3716C9.47895 21.38 9.34029 21.3676 9.20562 21.3302C9.07095 21.2938 8.93984 21.2347 8.82295 21.1502C8.70518 21.0671 8.60695 20.9542 8.5314 20.8276C8.38073 20.5733 8.32295 20.2591 8.3714 19.9542C8.39584 19.8018 8.44873 19.6516 8.53006 19.5165C8.5714 19.4493 8.61895 19.3853 8.67451 19.3276C8.7274 19.2676 8.79318 19.2169 8.86651 19.18C8.9394 19.144 9.02918 19.1231 9.11362 19.1507C9.1554 19.164 9.19229 19.188 9.22429 19.2182C9.25407 19.2507 9.27629 19.2898 9.28829 19.3316C9.31229 19.4151 9.30429 19.5009 9.28829 19.5822C9.2714 19.6636 9.24207 19.7418 9.20651 19.8169C9.12962 19.964 9.04607 20.1036 8.9554 20.2436C8.86384 20.3822 8.76118 20.5169 8.63673 20.6333C8.51229 20.7493 8.36695 20.8427 8.2074 20.8991C8.04873 20.9565 7.87273 20.9711 7.70962 20.9285C7.54651 20.8871 7.40162 20.7942 7.28651 20.6778C7.17095 20.5613 7.08162 20.4227 7.0194 20.2751C6.8954 19.9778 6.86873 19.66 6.85318 19.3578C6.84518 19.2067 6.83895 19.0533 6.86118 18.9036C6.8834 18.7565 6.93362 18.6013 7.05273 18.5009C7.11095 18.4516 7.18251 18.4182 7.25807 18.4085C7.33318 18.3982 7.40918 18.4085 7.47807 18.4342C7.61584 18.4862 7.72962 18.5893 7.79273 18.7182C7.85495 18.8467 7.86873 18.9907 7.85584 19.1253C7.84207 19.2605 7.80429 19.3902 7.75051 19.5089C7.70029 19.6298 7.63007 19.7378 7.55673 19.84C7.4794 19.9391 7.39584 20.0307 7.30384 20.1093C7.12162 20.2685 6.91407 20.3813 6.70651 20.456C6.49762 20.5293 6.28473 20.5578 6.08607 20.5502C5.88651 20.5427 5.70162 20.4973 5.53895 20.4316C5.21318 20.2982 4.97673 20.0947 4.82207 19.9045C4.66518 19.7133 4.58295 19.5373 4.53895 19.416C4.51451 19.356 4.50384 19.3076 4.49495 19.2756C4.48651 19.2436 4.4834 19.2267 4.4834 19.2267C4.4874 19.2253 4.50073 19.2929 4.54784 19.4125C4.59451 19.532 4.67851 19.7053 4.83584 19.8925C4.9914 20.0791 5.22695 20.2778 5.54873 20.4071C5.70918 20.4707 5.8914 20.5142 6.0874 20.5205C6.28295 20.5267 6.49095 20.4973 6.69584 20.4245C6.8994 20.3502 7.10251 20.2387 7.28073 20.0818C7.37051 20.004 7.45229 19.9147 7.5274 19.8173C7.59851 19.7173 7.66695 19.6111 7.7154 19.4933C7.7674 19.3773 7.80384 19.2516 7.81673 19.1213C7.82873 18.992 7.81495 18.856 7.75673 18.736C7.69895 18.6178 7.5914 18.5213 7.46473 18.4738C7.33807 18.4253 7.18695 18.4413 7.08207 18.5338C6.9754 18.6236 6.92695 18.7676 6.90607 18.9102C6.88473 19.0551 6.89051 19.204 6.89895 19.3556C6.91495 19.6569 6.94207 19.9689 7.06295 20.2573C7.1234 20.4 7.21007 20.5338 7.32073 20.6453C7.43095 20.7569 7.56873 20.8445 7.72251 20.8836C7.87584 20.9236 8.04162 20.9098 8.19318 20.8551C8.34562 20.8009 8.48607 20.7111 8.60607 20.5991C8.84607 20.372 9.01051 20.0778 9.16562 19.7969C9.23229 19.6547 9.28207 19.4916 9.24518 19.3449C9.23495 19.3089 9.21629 19.2778 9.19229 19.2507C9.16607 19.2267 9.13495 19.2058 9.10073 19.1947C9.03184 19.172 8.95451 19.1885 8.8874 19.2213C8.82029 19.2551 8.75851 19.3018 8.70829 19.3591C8.6554 19.4142 8.60962 19.4756 8.56962 19.54C8.49095 19.6698 8.43984 19.8142 8.41584 19.9618C8.36873 20.2565 8.42429 20.5609 8.56873 20.8058C8.71051 21.0547 8.95673 21.2222 9.21673 21.2907C9.47762 21.3636 9.75229 21.3405 9.99051 21.256C10.1092 21.2111 10.2194 21.1502 10.3163 21.0756C10.4096 20.9973 10.4941 20.9089 10.551 20.8067C10.6056 20.7036 10.6407 20.5911 10.6483 20.4791C10.6563 20.368 10.6381 20.2551 10.5812 20.1658C10.5265 20.076 10.4305 20.0169 10.3327 20.0036C10.2332 19.9902 10.1341 20.0222 10.0532 20.0729C9.97318 20.1253 9.9074 20.1969 9.86651 20.2773C9.82518 20.3582 9.8114 20.4471 9.81718 20.5325C9.83051 20.7036 9.91273 20.8507 10.0096 20.9605C10.1074 21.0716 10.2225 21.1467 10.3323 21.1996C10.5536 21.3036 10.7438 21.336 10.8696 21.3627C10.9318 21.3742 10.9798 21.3836 11.0141 21.3898C11.0461 21.396 11.0625 21.4005 11.0625 21.4005Z" fill="#BF9892"/>
<path d="M16.851 18.9582C16.6017 18.3386 16.1017 17.7835 15.4506 17.6369C14.7879 17.488 14.1061 17.7782 13.5315 18.14C12.9644 18.4973 12.4248 18.96 12.1861 19.5862C11.9555 20.1911 12.0937 20.9693 12.6208 21.3324C12.0741 20.992 11.2372 21.404 11.1044 22.0466C10.9666 22.712 11.4852 23.4018 12.1421 23.5769C12.7159 23.7298 13.3377 23.5449 13.8141 23.1835C13.4199 23.6044 13.3555 24.3155 13.6657 24.8155C14.0221 25.3898 14.7777 25.652 15.4372 25.5035C16.0964 25.3551 16.6412 24.8426 16.9164 24.2253L17.1541 20.9266C17.1377 20.2591 17.1004 19.5773 16.851 18.9582Z" fill="#44393A"/>
<path d="M16.4054 20.472C15.7712 20.6773 15.641 21.1911 15.5094 21.6195C15.2259 22.5409 15.545 23.9049 16.0605 24.7195C16.5761 25.5342 17.1419 25.9484 18.0961 26.0862C18.1272 24.6235 18.1583 23.1604 18.1894 21.6978L16.4054 20.472Z" fill="#44393A"/>
<path d="M16.0468 22.9915C15.6134 22.4289 15.6748 21.5453 16.1819 21.0475C15.9041 20.6986 16.0037 20.1604 16.2863 19.8151C16.5685 19.4697 16.9881 19.2715 17.393 19.0844C17.6152 18.0635 18.7614 17.3453 19.777 17.5906C20.3063 16.8129 21.4334 16.6906 22.3365 16.9537C22.557 17.0182 22.7774 17.1013 23.0072 17.1004C23.1757 17.0995 23.3405 17.0537 23.5077 17.0311C24.4263 16.9075 25.3388 17.5542 25.697 18.4093C25.7543 18.5462 25.8014 18.6902 25.8921 18.8071C26.0112 18.9609 26.1921 19.0511 26.3463 19.1697C26.6792 19.4266 26.8908 19.8346 26.9085 20.2546C26.9237 20.6115 26.8099 20.9902 26.9601 21.3142C27.0352 21.4764 27.1717 21.608 27.2303 21.7769C27.4001 22.2671 26.857 22.7684 26.9574 23.2773C26.9779 23.3813 27.025 23.4777 27.0534 23.58C27.1125 23.7884 27.0921 24.0177 26.9983 24.2129C26.9259 24.3635 26.809 24.5013 26.7992 24.668C26.7917 24.7946 26.8481 24.9151 26.8734 25.0391C26.9357 25.3431 26.2801 26.5146 26.0174 26.68L18.1717 26.7502C17.5779 26.6293 17.0943 26.0911 17.037 25.488C17.0277 25.3875 17.0259 25.2786 16.9637 25.1995C16.9108 25.132 16.825 25.1009 16.7494 25.0604C16.2441 24.7893 16.1832 24.0955 16.2365 23.5249C16.2441 23.4449 16.2521 23.3631 16.2321 23.2853C16.2028 23.1724 16.1179 23.084 16.0468 22.9915Z" fill="#44393A"/>
<path d="M18.2944 23.0027C18.2713 21.6142 19.142 20.0187 20.5211 19.3395C21.3904 18.9115 22.0686 18.9089 22.5259 18.8555C23.5499 18.736 24.3762 19.2435 24.3762 19.2435C24.8086 19.3453 26.3935 20.796 26.4757 22.3707C26.5673 24.12 26.6099 26.2591 26.3886 27.5613C25.9442 30.1795 23.9304 30.492 23.9304 30.492C23.9299 30.488 24.118 34.844 24.118 34.844L20.2477 38.0155L18.7411 32.9778L18.2944 23.0027Z" fill="#FAD6C8"/>
<path d="M23.9312 30.492C23.9312 30.492 22.1539 30.5875 20.417 29.5178C20.417 29.5178 21.3321 31.3764 23.9597 31.1591L23.9312 30.492Z" fill="#C8A399"/>
<path d="M18.6902 25.4929C18.692 25.2973 18.4711 24.8347 18.2787 24.8027C17.7645 24.7169 16.8356 24.7484 16.8129 26.0564C16.7818 27.8444 18.5836 27.5067 18.5876 27.4555C18.5902 27.4151 18.6845 26.1671 18.6902 25.4929Z" fill="#FAD6C8"/>
<path d="M18.1061 26.7933C18.0985 26.7875 18.0745 26.8147 18.0216 26.8378C17.9696 26.8604 17.8812 26.8751 17.7887 26.8387C17.6012 26.7662 17.4474 26.4635 17.4443 26.1409C17.4425 25.9782 17.4794 25.8235 17.539 25.6964C17.5959 25.5667 17.6821 25.4769 17.7776 25.4613C17.8727 25.4409 17.939 25.4991 17.9599 25.5498C17.983 25.6004 17.971 25.636 17.9803 25.6391C17.9852 25.6435 18.0194 25.6098 18.0061 25.536C17.9994 25.5004 17.979 25.4578 17.9376 25.4227C17.8954 25.3871 17.8327 25.368 17.7661 25.3742C17.6279 25.3813 17.5016 25.5062 17.4359 25.6458C17.3625 25.7862 17.3172 25.9595 17.3194 26.1422C17.3247 26.5027 17.5034 26.8431 17.7603 26.9222C17.8856 26.9573 17.991 26.9209 18.0461 26.88C18.1021 26.8364 18.1123 26.7969 18.1061 26.7933Z" fill="#C8A399"/>
<path d="M26.8599 22.1058C26.803 21.4564 26.5443 20.8404 26.231 20.2689C26.0141 19.8733 25.7648 19.4871 25.4234 19.192C25.1381 18.9453 24.7985 18.7711 24.4576 18.6098C23.5616 18.1849 22.5625 17.8244 21.5954 18.0422C21.0763 18.1591 20.6088 18.4351 20.1541 18.7115C19.8056 18.9235 19.4554 19.1409 19.1639 19.4258C18.9079 19.6755 18.7021 19.9729 18.5203 20.2813C18.0874 21.0164 17.7816 21.8382 17.723 22.6893C17.6643 23.5404 17.0203 24.2929 17.5194 24.9849C17.5581 25.0387 18.447 25.2227 18.5083 25.2467C18.6528 25.304 18.8114 25.1475 18.8105 24.992C18.8096 24.8364 18.7025 24.7027 18.5874 24.5982C18.8088 24.5907 18.9603 24.3444 18.9465 24.1235C18.9328 23.9027 18.8016 23.708 18.6705 23.5298C18.6532 23.5067 18.6354 23.4818 18.6319 23.4533C18.6225 23.3778 18.7079 23.3315 18.7732 23.2929C19.0919 23.1044 19.1274 22.58 18.8372 22.3502C19.2639 22.2515 19.5403 21.7387 19.3883 21.328C19.3643 21.2631 19.3314 21.1902 19.3625 21.1284C19.3923 21.0689 19.4661 21.0502 19.5301 21.0315C20.0021 20.8915 20.319 20.3582 20.2168 19.8769C20.4648 19.8898 20.7172 19.9027 20.959 19.844C21.2003 19.7853 21.4341 19.644 21.5443 19.4213C21.7025 19.7067 22.0136 19.9009 22.339 19.9182C22.6648 19.9355 22.9945 19.7755 23.1825 19.5093C23.599 19.5493 24.0252 19.4831 24.4101 19.3195C24.5048 19.7075 24.8105 20.0373 25.1905 20.16C25.2643 20.184 25.3492 20.2071 25.3848 20.276C25.4074 20.32 25.4039 20.372 25.4012 20.4213C25.3879 20.6711 25.5581 20.7773 25.6959 20.9862C25.8336 21.1947 26.0736 21.5058 26.3141 21.4369C26.2874 21.8622 26.515 22.1715 26.8736 22.4009L26.8599 22.1058Z" fill="#44393A"/>
<path d="M27.2297 21.7778C27.2297 21.7778 27.2124 21.7035 27.135 21.5849C27.0977 21.5249 27.0448 21.4551 26.995 21.3662C26.9466 21.2769 26.9079 21.1635 26.8977 21.0311C26.8848 20.8991 26.8968 20.7506 26.9093 20.5889C26.9221 20.4275 26.9355 20.2471 26.8999 20.0578C26.8661 19.8693 26.7915 19.6733 26.6697 19.4924C26.6088 19.4022 26.5364 19.3155 26.4519 19.2373C26.3679 19.1582 26.2697 19.0911 26.1715 19.0249C26.0737 18.9578 25.975 18.8853 25.9017 18.788C25.8284 18.6906 25.7835 18.5711 25.735 18.4498C25.6381 18.2053 25.4964 17.9662 25.3066 17.7546C25.1186 17.5435 24.8893 17.3515 24.6181 17.2155C24.4853 17.1426 24.3386 17.0938 24.1893 17.0498C24.0373 17.0155 23.8804 16.9884 23.7199 16.9924C23.6399 16.9911 23.5595 17.0018 23.479 17.0093C23.399 17.0209 23.3199 17.0373 23.2408 17.0506C23.0826 17.0804 22.9226 17.084 22.763 17.0471C22.603 17.0142 22.4466 16.9551 22.2817 16.9124C22.1177 16.8658 21.9479 16.8382 21.7755 16.8186C21.603 16.7995 21.4275 16.7995 21.2515 16.8093C21.0755 16.8222 20.899 16.8533 20.7261 16.9013C20.3835 17.0026 20.0493 17.192 19.8208 17.4875C19.7981 17.5169 19.7759 17.5462 19.7537 17.5751L19.7821 17.564C19.2421 17.4346 18.6768 17.5755 18.2399 17.8618C17.7999 18.1471 17.4728 18.5898 17.3666 19.0782L17.3808 19.0604C17.1639 19.1609 16.9493 19.2622 16.751 19.3862C16.5537 19.5098 16.3719 19.6578 16.2355 19.8395C16.0999 20.0222 16.0173 20.2373 15.9977 20.4546C15.9773 20.6711 16.0306 20.8955 16.1635 21.0604L16.1653 21.0306C15.9079 21.2844 15.7759 21.6235 15.7457 21.9453C15.715 22.2684 15.7804 22.584 15.9244 22.8355C15.9573 22.9004 16.0017 22.9564 16.0417 23.0138C16.0848 23.0684 16.1288 23.1195 16.1635 23.1742C16.1981 23.2289 16.2213 23.288 16.2257 23.3502C16.2315 23.412 16.2239 23.4742 16.219 23.536C16.1981 23.7826 16.2017 24.0115 16.2324 24.2146C16.2635 24.4178 16.3208 24.5955 16.4039 24.7329C16.4853 24.8711 16.5879 24.9658 16.6795 25.0253C16.7715 25.0871 16.8528 25.1111 16.8977 25.1449C16.9444 25.1755 16.9608 25.2009 16.9621 25.1995C16.9621 25.1995 16.9479 25.1729 16.9013 25.1395C16.8564 25.1035 16.775 25.0769 16.6866 25.0146C16.5973 24.9542 16.4986 24.86 16.4204 24.7235C16.3404 24.588 16.2861 24.4124 16.2573 24.212C16.2288 24.0111 16.227 23.784 16.2497 23.5395C16.255 23.4786 16.263 23.4146 16.2577 23.3484C16.2533 23.2818 16.2279 23.2151 16.1919 23.1573C16.1559 23.0991 16.111 23.0471 16.0688 22.9929C16.0301 22.9369 15.987 22.8822 15.9555 22.8186C15.8168 22.5733 15.7546 22.2653 15.7857 21.9502C15.8164 21.6364 15.9466 21.3075 16.1959 21.0635L16.2101 21.0493L16.1977 21.0333C16.0737 20.8778 16.0235 20.6666 16.0435 20.4595C16.0626 20.2515 16.1435 20.044 16.2737 19.8693C16.4057 19.6942 16.5826 19.5502 16.7768 19.4293C16.9715 19.308 17.1844 19.208 17.4017 19.108L17.4133 19.1026L17.4159 19.0902C17.5195 18.6164 17.8381 18.1853 18.2679 17.9071C18.6946 17.628 19.2457 17.4915 19.7684 17.6169L19.7853 17.6209L19.7968 17.6058C19.8181 17.5778 19.8399 17.5498 19.8617 17.5213C20.0817 17.236 20.4048 17.0524 20.7395 16.9529C20.9084 16.9058 21.0808 16.8755 21.2537 16.8626C21.4266 16.8529 21.599 16.8529 21.7684 16.8715C21.9377 16.8906 22.1053 16.9178 22.2661 16.9635C22.4279 17.0049 22.5857 17.0644 22.7506 17.0982C22.8328 17.1155 22.9164 17.1262 23.0008 17.1262C23.0848 17.1262 23.1675 17.1151 23.2475 17.1013C23.3279 17.0875 23.4066 17.0715 23.4848 17.06C23.563 17.0524 23.6413 17.0418 23.719 17.0431C23.875 17.0386 24.0279 17.0649 24.1759 17.0978C24.3217 17.14 24.4653 17.1875 24.5955 17.2586C24.8608 17.3911 25.0861 17.5782 25.2719 17.7853C25.4586 17.9924 25.5986 18.2262 25.695 18.4662C25.7439 18.5862 25.7901 18.7093 25.8684 18.8129C25.9466 18.9164 26.0497 18.9898 26.1484 19.0573C26.2479 19.124 26.3439 19.1884 26.4261 19.2649C26.5088 19.3409 26.5799 19.4249 26.6399 19.5124C26.7599 19.6884 26.8341 19.8795 26.8688 20.064C26.9053 20.2489 26.8937 20.4258 26.8821 20.5875C26.871 20.7493 26.8604 20.8995 26.875 21.0338C26.887 21.1684 26.9279 21.2844 26.979 21.3746C27.031 21.4644 27.0853 21.5329 27.1239 21.5915C27.1635 21.6493 27.1893 21.6964 27.2048 21.7289C27.2226 21.7604 27.2284 21.7782 27.2297 21.7778Z" fill="#44393A"/>
<path d="M20.6193 17.2044C20.6219 17.2084 20.6668 17.1777 20.7539 17.136C20.841 17.0946 20.9735 17.0435 21.1446 17.0253C21.3144 17.0062 21.525 17.0222 21.7317 17.1155C21.9366 17.2084 22.1357 17.3764 22.2628 17.6044C22.2993 17.6697 22.3304 17.7395 22.3499 17.8075C22.3686 17.8751 22.3708 17.9471 22.3353 17.996L22.2913 18.0564L22.3637 18.0364C22.5624 17.9817 22.7664 18.0213 22.9161 18.1066C23.0686 18.1915 23.1646 18.3226 23.2166 18.44C23.2695 18.5586 23.2815 18.664 23.2841 18.7351C23.2859 18.8066 23.2801 18.8462 23.2841 18.8466C23.2859 18.8471 23.2886 18.8373 23.2926 18.8186C23.297 18.8 23.3006 18.772 23.3024 18.7351C23.3055 18.6622 23.2984 18.5524 23.2477 18.4266C23.1975 18.3026 23.0997 18.1604 22.9388 18.0671C22.781 17.9737 22.5646 17.9284 22.3499 17.9857L22.3779 18.0262C22.4281 17.9564 22.4215 17.8666 22.4015 17.7933C22.3797 17.7177 22.3481 17.6475 22.3095 17.5777C22.1761 17.3386 21.9673 17.1644 21.7517 17.0697C21.5344 16.9746 21.3144 16.9626 21.1397 16.9871C20.9633 17.0106 20.8295 17.0693 20.7441 17.1169C20.701 17.1409 20.669 17.1622 20.649 17.1782C20.6281 17.1942 20.6179 17.2031 20.6193 17.2044Z" fill="#44393A"/>
<path d="M17.7013 19.2346C17.6991 19.2369 17.72 19.2609 17.7631 19.2991C17.8067 19.3369 17.8724 19.3902 17.9644 19.4413C18.056 19.4915 18.1764 19.5417 18.3204 19.5511C18.4618 19.5609 18.6302 19.5297 18.7653 19.4204L18.7258 19.4142C18.7427 19.4382 18.76 19.4631 18.7778 19.488C18.7969 19.512 18.8178 19.5351 18.8382 19.5591C18.9689 19.6964 19.128 19.7906 19.2827 19.8404C19.4373 19.8924 19.5862 19.9057 19.7084 19.8973C19.8311 19.8889 19.9271 19.8595 19.9907 19.8355C20.0533 19.8084 20.0858 19.7893 20.0844 19.7862C20.0809 19.7751 19.9453 19.8506 19.7067 19.8591C19.5884 19.8626 19.4462 19.8453 19.2991 19.7933C19.1516 19.7426 19.0013 19.6515 18.8778 19.5217C18.8587 19.4991 18.8387 19.4773 18.8204 19.4546C18.8036 19.4311 18.7871 19.408 18.7711 19.3853L18.7538 19.3609L18.7316 19.3791C18.6111 19.4782 18.456 19.5097 18.3231 19.5035C18.1884 19.4977 18.072 19.4542 17.9813 19.4093C17.7991 19.316 17.7071 19.2266 17.7013 19.2346Z" fill="#44393A"/>
<path d="M16.7439 20.8853C16.7421 20.8858 16.7435 20.8969 16.7479 20.9182C16.7541 20.9391 16.7639 20.9702 16.787 21.0049C16.8306 21.0751 16.9275 21.1613 17.0737 21.1987C17.2208 21.2382 17.403 21.2098 17.5848 21.1471C17.6759 21.1151 17.771 21.0835 17.8679 21.0382C17.9621 20.9929 18.0653 20.9271 18.1168 20.8151C18.1208 20.8053 18.1248 20.7955 18.1284 20.7862L18.0861 20.7987C18.2573 20.9347 18.4337 21.0529 18.6141 21.1213C18.7933 21.192 18.9733 21.2044 19.1159 21.1773C19.2595 21.1515 19.3653 21.0915 19.4266 21.0391C19.4577 21.0133 19.479 20.9902 19.4919 20.9733C19.5048 20.9564 19.511 20.9471 19.5093 20.9462C19.5057 20.9431 19.4773 20.9773 19.4137 21.0227C19.351 21.0684 19.2475 21.12 19.1097 21.14C18.9724 21.1613 18.803 21.1458 18.6319 21.0755C18.4599 21.0075 18.2888 20.8915 18.1195 20.7564L18.091 20.7338L18.0773 20.7689C18.0741 20.7764 18.071 20.7844 18.0679 20.7929C18.0261 20.8858 17.9355 20.9467 17.8453 20.9907C17.7537 21.0342 17.6581 21.068 17.5693 21.1004C17.3919 21.1644 17.2199 21.1938 17.083 21.1618C16.9453 21.1315 16.851 21.056 16.8048 20.9929C16.7568 20.9302 16.7497 20.8835 16.7439 20.8853Z" fill="#445962"/>
<path d="M25.744 24.36C25.7045 24.4044 25.448 24.2271 25.092 24.2395C24.7365 24.2467 24.4814 24.4382 24.4414 24.396C24.4218 24.3773 24.4609 24.2982 24.572 24.2115C24.6814 24.1258 24.8698 24.0391 25.0911 24.0329C25.3129 24.0271 25.5018 24.1027 25.6116 24.1827C25.724 24.2631 25.7636 24.34 25.744 24.36Z" fill="#44393A"/>
<path d="M22.2547 24.6124C22.2107 24.6524 21.9733 24.4497 21.6182 24.4257C21.264 24.3964 20.9902 24.5604 20.9547 24.5146C20.9373 24.4942 20.984 24.4191 21.1036 24.3449C21.2209 24.2706 21.4173 24.204 21.6382 24.2204C21.8596 24.2373 22.0396 24.332 22.1409 24.4231C22.2444 24.5137 22.2764 24.5942 22.2547 24.6124Z" fill="#44393A"/>
<path d="M23.6416 26.1804C23.6394 26.1604 23.8594 26.1151 24.2162 26.0578C24.3069 26.0453 24.3922 26.0244 24.4056 25.9622C24.4247 25.896 24.3838 25.7991 24.3362 25.6946C24.2438 25.4773 24.1469 25.2498 24.0451 25.0115C23.6402 24.0386 23.3442 23.2373 23.3834 23.2213C23.4229 23.2053 23.7829 23.9813 24.1878 24.9542C24.2856 25.1942 24.3789 25.4231 24.4674 25.6418C24.5051 25.744 24.5678 25.8591 24.526 25.9969C24.5038 26.0658 24.4385 26.1169 24.3807 26.1346C24.3229 26.1542 24.2718 26.1569 24.2269 26.1609C23.8674 26.192 23.6434 26.2004 23.6416 26.1804Z" fill="#44393A"/>
<path d="M23.0905 26.7115C22.9572 26.736 22.655 26.916 22.5772 27.0617C22.4994 27.2075 22.3954 27.4355 22.4723 27.5684C22.5381 27.6813 23.0181 27.5413 23.2203 27.5084C23.3141 27.4929 23.5434 27.6031 23.5745 27.4866L23.631 27.0711C23.6385 26.8769 23.5114 26.7915 23.3794 26.7373C23.2896 26.7009 23.1892 26.6933 23.0905 26.7115Z" fill="#C8A399"/>
<path d="M20.4784 22.6284C20.5126 22.5315 20.8686 22.5746 21.286 22.5218C21.7046 22.4769 22.0402 22.3524 22.0962 22.4386C22.1211 22.48 22.0633 22.5715 21.9277 22.6662C21.7935 22.7609 21.5789 22.8511 21.3282 22.8809C21.0775 22.9102 20.8477 22.872 20.6953 22.8111C20.5411 22.7502 20.4633 22.6746 20.4784 22.6284Z" fill="#44393A"/>
<path d="M24.2064 22.1035C24.2899 22.0342 24.5584 22.1591 24.8957 22.2129C25.2313 22.2773 25.5277 22.252 25.581 22.3453C25.6037 22.3902 25.5468 22.4635 25.4108 22.5209C25.2766 22.5782 25.061 22.6089 24.8299 22.5684C24.5988 22.5275 24.4086 22.4253 24.3033 22.3258C24.1957 22.2258 24.169 22.1378 24.2064 22.1035Z" fill="#44393A"/>
<path d="M23.4532 27.5146C23.4518 27.5306 23.2972 27.508 23.0607 27.568C23.0021 27.5831 22.9381 27.6026 22.8736 27.6293C22.8083 27.6564 22.7354 27.696 22.6398 27.704C22.5923 27.7075 22.5349 27.696 22.4918 27.6609C22.4483 27.628 22.4212 27.5782 22.4065 27.5297C22.3767 27.432 22.3883 27.324 22.4265 27.2289C22.4647 27.1329 22.5212 27.0546 22.5821 26.9835C22.6434 26.9129 22.7123 26.8524 22.7856 26.8075C22.9318 26.7151 23.0896 26.6786 23.2194 26.6826C23.3501 26.6849 23.4505 26.7231 23.5127 26.7569C23.5758 26.7906 23.6038 26.8191 23.6012 26.8231C23.5972 26.8298 23.5625 26.812 23.4985 26.7902C23.4349 26.7675 23.3389 26.7426 23.2203 26.7489C23.1025 26.7533 22.9625 26.7924 22.8327 26.8795C22.7674 26.9217 22.7065 26.9778 22.6518 27.0426C22.5976 27.1075 22.5456 27.1817 22.5141 27.2626C22.4816 27.3431 22.4736 27.4289 22.4949 27.5031C22.5158 27.5786 22.5678 27.6217 22.6358 27.6173C22.7052 27.6137 22.7758 27.5826 22.8456 27.5564C22.9172 27.5306 22.9847 27.5142 23.0474 27.5026C23.2989 27.4573 23.4563 27.5057 23.4532 27.5146Z" fill="#44393A"/>
<path d="M18.1073 28.1542C18.5047 28.1542 18.8268 27.832 18.8268 27.4346C18.8268 27.0372 18.5047 26.7151 18.1073 26.7151C17.7099 26.7151 17.3877 27.0372 17.3877 27.4346C17.3877 27.832 17.7099 28.1542 18.1073 28.1542Z" fill="#533A3A"/>
<path d="M21.1178 21.3102C21.1151 21.3089 21.1213 21.2862 21.1387 21.2431C21.1582 21.2017 21.1907 21.1409 21.2493 21.0751C21.3076 21.0093 21.3929 20.9395 21.5067 20.8853C21.6204 20.8329 21.7662 20.7969 21.9267 20.8169C22.0062 20.8253 22.0929 20.8529 22.1658 20.9106C22.2022 20.9395 22.2356 20.9786 22.2529 21.0293C22.2698 21.0795 22.2667 21.1391 22.2413 21.188C22.1924 21.2871 22.0778 21.3386 21.9729 21.3373C21.8671 21.3373 21.7658 21.3093 21.668 21.2653C21.4747 21.1769 21.2991 21.0093 21.2227 20.7844C21.1467 20.5613 21.1782 20.2951 21.3258 20.0897C21.4751 19.8826 21.7338 19.7844 21.9684 19.8111C22.0853 19.8253 22.2013 19.8657 22.2889 19.9471C22.332 19.9871 22.3684 20.0351 22.3907 20.0915C22.4129 20.148 22.4164 20.2151 22.3938 20.2733C22.3716 20.332 22.3267 20.3764 22.28 20.4057C22.2324 20.4355 22.1818 20.4537 22.1311 20.4649C22.0302 20.4862 21.9284 20.4835 21.8356 20.4613C21.6498 20.4164 21.4969 20.3057 21.4071 20.1711C21.3151 20.036 21.2907 19.8831 21.3018 19.7577C21.312 19.6311 21.3529 19.5275 21.3987 19.4524C21.4449 19.3769 21.4933 19.3275 21.5293 19.2991C21.5653 19.2706 21.5871 19.2595 21.5884 19.2618C21.5956 19.2693 21.5098 19.3213 21.4302 19.4702C21.3916 19.544 21.3582 19.6435 21.3538 19.7609C21.348 19.8773 21.3756 20.0146 21.4613 20.1329C21.5449 20.2515 21.6858 20.3484 21.8524 20.3849C21.9356 20.4031 22.0253 20.4035 22.1124 20.3835C22.1973 20.364 22.2849 20.3169 22.3129 20.2417C22.3427 20.1671 22.2996 20.0746 22.2284 20.012C22.1587 19.948 22.0596 19.9129 21.9582 19.9013C21.7547 19.8791 21.5284 19.9662 21.4013 20.1435C21.2733 20.3209 21.2436 20.5586 21.3098 20.7537C21.3751 20.9511 21.5316 21.1044 21.7044 21.1857C21.7907 21.2262 21.8853 21.2524 21.972 21.2537C22.0582 21.256 22.1378 21.2173 22.1724 21.1515C22.2084 21.0875 22.1787 21.012 22.12 20.9657C22.0618 20.9177 21.9898 20.8911 21.9178 20.8817C21.7729 20.8595 21.6364 20.8875 21.528 20.9324C21.4191 20.9791 21.3356 21.0409 21.276 21.0995C21.1569 21.2204 21.1262 21.3151 21.1178 21.3102Z" fill="#44393A"/>
<path d="M12.892 20.9058C12.8925 20.9089 12.8525 20.9169 12.776 20.9289C12.6996 20.9404 12.5863 20.9578 12.4383 20.9671C12.2907 20.9751 12.1054 20.9786 11.8965 20.9249C11.7929 20.8973 11.6845 20.8546 11.58 20.7889C11.476 20.724 11.3756 20.6346 11.3023 20.516C11.2272 20.3982 11.1889 20.252 11.1827 20.1022C11.1765 19.9515 11.1978 19.7973 11.2343 19.6413C11.3098 19.3311 11.4547 19.0062 11.7054 18.7378C11.8312 18.6053 11.9818 18.4858 12.1587 18.4062C12.2454 18.3631 12.3423 18.3369 12.4392 18.3155C12.5374 18.3013 12.6383 18.2902 12.7392 18.2995C12.9414 18.3102 13.1449 18.3738 13.3245 18.4849C13.4143 18.5409 13.4947 18.6133 13.5658 18.6946C13.6347 18.7786 13.688 18.876 13.7263 18.9795L13.7667 19.0893L13.6618 19.036C13.5378 18.9729 13.4303 18.8706 13.3592 18.7458C13.2867 18.6218 13.2449 18.4791 13.236 18.3342C13.2285 18.2124 13.2405 18.0893 13.2787 17.9742C13.3156 17.86 13.3698 17.7524 13.4365 17.656C13.5712 17.4631 13.7476 17.3093 13.9356 17.1884C14.3134 16.9471 14.7396 16.8169 15.1507 16.7991C15.5623 16.7786 15.9574 16.8835 16.2712 17.072C16.5863 17.26 16.824 17.5218 16.9667 17.7982C17.112 18.0755 17.152 18.3658 17.1356 18.6106C17.1209 18.8573 17.0503 19.0622 16.9725 19.216C16.8925 19.3693 16.8072 19.4746 16.7427 19.5382C16.7125 19.5715 16.684 19.592 16.6667 19.6075C16.6489 19.6222 16.6392 19.6293 16.6383 19.628C16.6356 19.6249 16.6698 19.592 16.7285 19.5253C16.7876 19.4586 16.8663 19.352 16.9396 19.2C17.0107 19.048 17.0738 18.8471 17.0832 18.608C17.0943 18.3706 17.0512 18.0933 16.908 17.8293C16.7676 17.5658 16.5356 17.3169 16.2316 17.1391C15.9285 16.9609 15.5503 16.8635 15.1543 16.8853C14.7592 16.9044 14.3476 17.032 13.9854 17.2653C13.8049 17.3818 13.6383 17.5284 13.5129 17.7084C13.3894 17.8884 13.3112 18.1053 13.3294 18.328C13.3449 18.5906 13.4845 18.8462 13.7032 18.9529L13.6383 19.0093C13.604 18.9164 13.5569 18.8298 13.4952 18.7533C13.4312 18.6795 13.3583 18.6133 13.2756 18.5618C13.1112 18.4591 12.9214 18.3986 12.7334 18.3884C12.352 18.3538 12.0018 18.5435 11.7654 18.7942C11.5254 19.0475 11.3818 19.3591 11.3058 19.6582C11.2689 19.8084 11.2467 19.9578 11.2507 20.0991C11.2552 20.2404 11.2885 20.3742 11.3552 20.4826C11.4205 20.5924 11.5125 20.6778 11.6098 20.7413C11.7072 20.8053 11.8103 20.8484 11.9089 20.8769C12.108 20.9333 12.2903 20.9351 12.436 20.9324C12.5827 20.928 12.6965 20.9164 12.7734 20.9106C12.8512 20.9049 12.8916 20.9026 12.892 20.9058Z" fill="#44393A"/>
<path d="M14.4568 24.3671C14.4586 24.372 14.4137 24.396 14.3261 24.4209C14.239 24.4458 14.1075 24.4702 13.943 24.4662C13.7795 24.4613 13.5826 24.428 13.3835 24.336C13.2853 24.2898 13.1826 24.2333 13.0937 24.1471C13.0057 24.0644 12.9297 23.9373 12.9381 23.796C12.9461 23.656 13.0181 23.5404 13.0946 23.4493C13.1733 23.3569 13.2613 23.2849 13.3466 23.2186C13.5186 23.0875 13.6919 22.996 13.8421 22.9346C13.9928 22.8729 14.1208 22.8409 14.2097 22.8244C14.2986 22.8075 14.3493 22.8066 14.3501 22.8124C14.3537 22.8284 14.1559 22.8618 13.8688 22.9955C13.7257 23.0626 13.5621 23.1569 13.3995 23.2871C13.319 23.3524 13.235 23.424 13.1648 23.5084C13.095 23.5924 13.0368 23.6933 13.0315 23.8009C13.0253 23.9084 13.0808 24.0075 13.1577 24.0818C13.2341 24.1578 13.3284 24.2124 13.4204 24.2582C13.6053 24.3489 13.7906 24.3875 13.9466 24.4C14.2617 24.4231 14.4533 24.3489 14.4568 24.3671Z" fill="#44393A"/>
<path d="M22.4396 25.1906C22.433 25.2044 22.3325 25.1631 22.1654 25.124C22.0819 25.1035 21.981 25.0875 21.8685 25.0773C21.7561 25.0693 21.6316 25.0684 21.5019 25.0809C21.3725 25.0951 21.2508 25.1209 21.1423 25.152C21.0343 25.1849 20.9388 25.2213 20.861 25.2582C20.705 25.3306 20.6152 25.3911 20.6059 25.3791C20.5992 25.3711 20.6761 25.2902 20.8303 25.1995C20.9068 25.1537 21.0041 25.1089 21.1161 25.0702C21.2285 25.0333 21.3561 25.0031 21.4925 24.9884C21.629 24.9751 21.7596 24.9791 21.8774 24.9924C21.9948 25.008 22.0992 25.032 22.1836 25.0613C22.353 25.1182 22.4445 25.1813 22.4396 25.1906Z" fill="#C8A399"/>
<path d="M29.885 49.0173L28.8513 46.4147L29.5135 42.5467L29.6931 40.2627C29.6593 38.7889 29.5339 37.6507 28.9259 36.3084L27.0357 31.64L24.7277 32.2662C24.657 31.956 24.5619 31.6511 24.4348 31.4093C24.0033 30.5898 18.4255 30.868 18.0646 31.1627C17.8353 31.3502 17.7224 32.0258 17.6704 32.4942L15.7299 32.4835L13.4424 38.3618C13.5148 38.5231 14.9259 40.4067 14.9259 40.4067L16.3259 48.1573L15.8744 48.9662L29.885 49.0173Z" fill="#AE837E"/>
<path d="M18.5748 33.3947C18.5716 33.3956 18.5605 33.3636 18.5428 33.3053C18.5245 33.2471 18.5041 33.1613 18.4845 33.0538C18.445 32.8396 18.4205 32.5356 18.4548 32.2031C18.4899 31.8707 18.5765 31.5782 18.6592 31.3769C18.7005 31.276 18.7383 31.196 18.7681 31.1427C18.7974 31.0893 18.8148 31.0604 18.8174 31.0618C18.825 31.0653 18.7636 31.1853 18.6899 31.3884C18.6156 31.5911 18.5356 31.88 18.501 32.208C18.4672 32.5356 18.4863 32.8351 18.517 33.0489C18.5476 33.2622 18.5828 33.3924 18.5748 33.3947Z" fill="#796060"/>
<path d="M20.1213 33.4724C20.1182 33.4729 20.1093 33.4382 20.0964 33.3751C20.0826 33.312 20.068 33.22 20.0533 33.1058C20.0231 32.8769 20.0031 32.5582 20.0062 32.2067C20.0097 31.8551 20.0293 31.5373 20.0453 31.308C20.0537 31.2013 20.0613 31.1107 20.0671 31.0364C20.0733 30.9724 20.0782 30.9369 20.0813 30.9373C20.0844 30.9373 20.0857 30.9733 20.0853 31.0373C20.0848 31.1018 20.0822 31.1947 20.0782 31.3098C20.0706 31.5395 20.056 31.8569 20.0528 32.2071C20.0497 32.5573 20.0644 32.8738 20.0862 33.1022C20.1066 33.3307 20.1288 33.4711 20.1213 33.4724Z" fill="#796060"/>
<path d="M21.7871 33.1827C21.78 33.1818 21.7893 33.0524 21.7995 32.8427C21.8093 32.6333 21.8182 32.3436 21.7991 32.0253C21.7795 31.7067 21.7306 31.4213 21.6818 31.2178C21.6333 31.0142 21.592 30.8911 21.5995 30.8884C21.6026 30.8876 21.6155 30.9173 21.6369 30.972C21.6586 31.0267 21.6853 31.108 21.7138 31.2093C21.7711 31.4124 21.8258 31.7004 21.8458 32.0218C21.8653 32.3431 21.8506 32.6347 21.8324 32.8444C21.8231 32.9493 21.8133 33.0338 21.8049 33.092C21.7964 33.1511 21.7906 33.1831 21.7871 33.1827Z" fill="#796060"/>
<path d="M23.3518 33.3947C23.3438 33.392 23.3909 33.2613 23.4407 33.0444C23.4905 32.8284 23.5362 32.5218 23.5114 32.1836C23.4905 31.8449 23.3976 31.5489 23.3176 31.3422C23.2345 31.136 23.1665 31.0151 23.1745 31.0107C23.1771 31.0089 23.1962 31.0382 23.2278 31.0924C23.2611 31.1458 23.3011 31.2271 23.3482 31.3293C23.4371 31.5347 23.5371 31.8351 23.558 32.18C23.5834 32.524 23.5314 32.8356 23.4727 33.052C23.4442 33.1609 23.4149 33.2467 23.3918 33.3053C23.3687 33.364 23.3549 33.3956 23.3518 33.3947Z" fill="#796060"/>
<path d="M24.8557 33.2658C24.849 33.2662 24.8357 33.1635 24.8153 32.9973C24.7944 32.8315 24.7668 32.6022 24.713 32.3538C24.6593 32.1053 24.5886 31.8858 24.5384 31.7258C24.4877 31.5662 24.4575 31.4671 24.4637 31.4649C24.4695 31.4627 24.5108 31.5578 24.5699 31.7151C24.6281 31.8724 24.7046 32.092 24.7588 32.3435C24.813 32.5951 24.8357 32.8267 24.8481 32.9938C24.8601 33.1613 24.8615 33.2653 24.8557 33.2658Z" fill="#796060"/>
<path d="M15.4455 23.1769L15.5784 22.2516C15.5784 22.2516 15.6126 21.5587 15.4455 21.2125C15.2784 20.8662 15.4864 20.6813 15.902 21.0045C16.3175 21.3276 16.3638 21.6049 16.3638 21.6049C16.3638 21.6049 16.9873 19.8729 17.2184 19.4111C17.4495 18.9493 18.05 18.1178 18.05 18.1178C18.05 18.1178 18.9966 16.6627 19.066 16.6396C19.1353 16.6165 19.2971 16.6165 19.2278 16.8707L19.5971 16.6302C19.5971 16.6302 20.0126 16.8013 19.7126 17.3556C19.4122 17.9098 19.0198 18.7182 19.0198 18.7182L18.9966 19.1107L20.0589 17.8173C20.0589 17.8173 20.5206 17.6093 20.3593 18.1636C20.1975 18.7178 19.6433 19.5956 19.6433 19.5956L19.366 21.0045C19.366 21.0045 19.4584 21.5356 19.3198 22.1822C19.1811 22.8289 18.2598 24.7245 17.6926 24.9085C17.126 25.092 15.4455 23.1769 15.4455 23.1769Z" fill="#FAD6C8"/>
<path d="M15.446 23.1769C15.446 23.1769 15.4545 23.1849 15.4705 23.2018C15.4869 23.2196 15.51 23.2444 15.5402 23.2764C15.6016 23.3422 15.6927 23.44 15.8136 23.5644C15.9345 23.6893 16.0851 23.8413 16.2673 24.0138C16.4504 24.1849 16.6633 24.38 16.9207 24.5724C17.0496 24.668 17.1905 24.7631 17.3496 24.8373C17.4296 24.872 17.5158 24.9036 17.6051 24.9049C17.694 24.9076 17.7784 24.8587 17.8531 24.8009C18.0024 24.6818 18.13 24.5244 18.2509 24.3564C18.3722 24.188 18.4851 24.0044 18.5953 23.812C18.8127 23.4249 19.0211 22.9996 19.1927 22.5351C19.2345 22.4187 19.274 22.2996 19.3011 22.1769C19.3269 22.0529 19.3464 21.9267 19.3589 21.7978C19.3829 21.5409 19.3838 21.2729 19.3456 21.008L19.3451 21.004L19.346 21.0004C19.4336 20.5538 19.5265 20.0796 19.622 19.5916L19.6229 19.5876L19.6251 19.584C19.8153 19.2751 19.9989 18.952 20.1593 18.6111C20.2376 18.4404 20.3131 18.2644 20.3562 18.0813C20.3651 18.0356 20.3722 17.9893 20.3696 17.9444C20.3664 17.9004 20.3558 17.8556 20.3238 17.8311C20.2931 17.8053 20.2473 17.7996 20.2025 17.804C20.1576 17.808 20.1109 17.8213 20.0691 17.8387L20.0776 17.8324C19.7376 18.2462 19.3793 18.6827 19.0153 19.1258L18.9696 19.1813L18.974 19.1093C18.9758 19.0782 18.978 19.044 18.9798 19.0102C18.9856 18.912 18.9913 18.8142 18.9971 18.7169L18.9976 18.712L18.9998 18.708C19.1833 18.3471 19.3647 17.9902 19.5438 17.6387C19.5887 17.5507 19.6331 17.4631 19.6776 17.376C19.7002 17.332 19.7198 17.2898 19.7411 17.2467C19.7567 17.2018 19.7758 17.1582 19.7842 17.112C19.8056 17.0213 19.8051 16.9258 19.7713 16.8413C19.7367 16.7587 19.6691 16.688 19.59 16.6511L19.6113 16.6493C19.4869 16.7302 19.3638 16.8102 19.2416 16.8898L19.1922 16.9218L19.2073 16.8649C19.2247 16.7987 19.2358 16.7187 19.1953 16.6773C19.1758 16.6578 19.1433 16.6507 19.1113 16.6538C19.1033 16.6542 19.0953 16.656 19.0873 16.6578L19.0758 16.6609C19.0722 16.6622 19.0749 16.6627 19.0727 16.6636C19.0616 16.6742 19.05 16.688 19.0389 16.7018C18.9504 16.8147 18.8691 16.9342 18.7878 17.0511C18.626 17.2867 18.47 17.5204 18.318 17.7511C18.242 17.8667 18.1669 17.9809 18.0922 18.0942C18.0144 18.2053 17.9376 18.3156 17.8611 18.4249C17.7104 18.6436 17.5656 18.86 17.4327 19.0764C17.3664 19.1849 17.3024 19.2929 17.2464 19.4031C17.1913 19.5133 17.1425 19.6262 17.0958 19.7378C17.0025 19.9613 16.9167 20.1818 16.834 20.396C16.6691 20.8249 16.5185 21.2316 16.3802 21.6107L16.362 21.6604L16.3487 21.608C16.3144 21.4724 16.2291 21.352 16.142 21.2493C16.0518 21.1467 15.9509 21.0578 15.8469 20.9822C15.7442 20.9098 15.6269 20.8418 15.5118 20.8542C15.4833 20.8564 15.4593 20.8711 15.4393 20.8884C15.4224 20.9089 15.41 20.9338 15.406 20.9609C15.3971 21.0151 15.4069 21.0724 15.4251 21.1244C15.4424 21.1764 15.4673 21.2262 15.4878 21.2782C15.506 21.3302 15.5207 21.3822 15.5322 21.4333C15.5549 21.536 15.5678 21.636 15.5767 21.7316C15.594 21.9227 15.5949 22.0969 15.5887 22.252V22.2524V22.2529C15.5438 22.5529 15.5091 22.7831 15.4856 22.94C15.4736 23.0169 15.4642 23.0756 15.458 23.1169C15.4505 23.1564 15.446 23.1769 15.446 23.1769C15.446 23.1769 15.4473 23.1573 15.4522 23.1178C15.4576 23.0769 15.4651 23.0182 15.4753 22.9413C15.4971 22.7836 15.5287 22.552 15.5705 22.2502V22.2511C15.5753 22.0973 15.5731 21.9236 15.5544 21.7338C15.5362 21.5431 15.5007 21.3382 15.4002 21.132C15.3811 21.0778 15.37 21.0173 15.3793 20.9556C15.3838 20.9244 15.398 20.8942 15.4193 20.8693C15.4438 20.8471 15.474 20.8293 15.5069 20.8267C15.6389 20.8129 15.7571 20.8849 15.8633 20.9582C15.97 21.0351 16.0722 21.124 16.1651 21.2289C16.2549 21.3351 16.342 21.4533 16.3807 21.6027L16.3491 21.6C16.486 21.22 16.6349 20.8129 16.7989 20.3831C16.8811 20.1684 16.9665 19.9476 17.0593 19.7231C17.1056 19.6107 17.1544 19.4973 17.2104 19.3853C17.2669 19.2733 17.3313 19.1644 17.3976 19.0556C17.5304 18.8378 17.6753 18.6204 17.826 18.4013C17.902 18.2924 17.9784 18.1822 18.0558 18.0711C18.13 17.9578 18.2051 17.8431 18.2811 17.7276C18.4331 17.4969 18.5891 17.2627 18.7504 17.0267C18.8322 16.9089 18.9127 16.7898 19.0033 16.6742C19.0149 16.66 19.0269 16.6453 19.042 16.6311C19.0469 16.6267 19.0567 16.6204 19.0616 16.6191L19.0762 16.6151C19.086 16.6129 19.0962 16.6111 19.1065 16.6102C19.146 16.6062 19.1927 16.6138 19.226 16.6462C19.2593 16.6787 19.2669 16.7244 19.2673 16.7636C19.2682 16.804 19.2589 16.8413 19.25 16.8782L19.2158 16.8533C19.338 16.7738 19.4611 16.6938 19.5851 16.6129L19.5958 16.6058L19.6065 16.6107C19.7002 16.6542 19.7722 16.7316 19.8131 16.8258C19.8513 16.9209 19.8509 17.0271 19.8287 17.124C19.8193 17.1738 19.7998 17.2196 19.7829 17.2667C19.7611 17.3111 19.7398 17.3569 19.7176 17.4C19.6731 17.4871 19.6287 17.5747 19.5842 17.6622C19.406 18.0133 19.2247 18.3693 19.0416 18.7302L19.0438 18.7213C19.038 18.8187 19.0322 18.9164 19.0264 19.0147C19.0247 19.0484 19.0225 19.0827 19.0207 19.1138L18.9793 19.0973C19.3433 18.6542 19.7016 18.2182 20.042 17.804L20.0456 17.7996L20.0504 17.7978C20.0984 17.7778 20.1469 17.764 20.1985 17.7591C20.2491 17.7547 20.3078 17.7596 20.3531 17.7969C20.4002 17.8342 20.4122 17.8933 20.4158 17.9427C20.4193 17.9942 20.4109 18.0436 20.4016 18.092C20.3562 18.2831 20.2798 18.4591 20.2011 18.6316C20.0389 18.9747 19.8549 19.2982 19.6629 19.6089L19.666 19.6013C19.5696 20.0889 19.4758 20.5636 19.3878 21.0098V21.0022C19.4264 21.2742 19.4247 21.5427 19.3998 21.8031C19.3869 21.9333 19.3669 22.0613 19.3402 22.1867C19.3118 22.3124 19.2718 22.4324 19.2296 22.5498C19.0558 23.0173 18.8456 23.4427 18.626 23.8307C18.5149 24.024 18.4007 24.208 18.278 24.3773C18.1553 24.5462 18.0264 24.7044 17.8722 24.8267C17.7958 24.8853 17.7051 24.9382 17.6056 24.9356C17.5087 24.9338 17.4202 24.9 17.3385 24.864C17.1762 24.7871 17.0349 24.6907 16.9056 24.5938C16.6478 24.3987 16.4358 24.2022 16.2536 24.0293C16.0722 23.8551 15.9229 23.7018 15.8033 23.5751C15.6838 23.4489 15.5945 23.3498 15.5345 23.2822C15.5056 23.2489 15.4833 23.2236 15.4673 23.2053C15.4531 23.1867 15.446 23.1769 15.446 23.1769Z" fill="#C8A399"/>
<path d="M19.1726 16.8849C19.1752 16.8867 19.1464 16.9333 19.0926 17.016C19.0339 17.1049 18.9561 17.2227 18.8624 17.3649C18.6699 17.66 18.4019 18.0693 18.177 18.5573C17.9508 19.0449 17.8317 19.5204 17.7744 19.8671C17.7446 20.0409 17.7295 20.1827 17.7197 20.2809C17.7099 20.3791 17.7055 20.4333 17.7019 20.4333C17.7001 20.4333 17.6992 20.4195 17.6992 20.3933C17.6992 20.3671 17.6988 20.3289 17.7015 20.2795C17.7055 20.1809 17.7157 20.0373 17.7415 19.8622C17.7908 19.512 17.9059 19.0302 18.1344 18.5378C18.361 18.0453 18.6348 17.6373 18.8348 17.3467C18.9352 17.2013 19.0192 17.0853 19.0779 17.0058C19.1361 16.9262 19.1699 16.8831 19.1726 16.8849Z" fill="#C8A399"/>
<path d="M19.0436 19.0831C19.0494 19.0893 18.9565 19.1644 18.8454 19.3178C18.7329 19.4698 18.6129 19.7058 18.5396 19.9858C18.4663 20.2658 18.4409 20.5289 18.4223 20.7182C18.4045 20.908 18.3934 21.0262 18.3863 21.0258C18.3832 21.0258 18.3818 20.996 18.3818 20.9422C18.3823 20.8889 18.3841 20.8111 18.3889 20.7156C18.3996 20.5249 18.4192 20.2587 18.4943 19.9733C18.5689 19.688 18.6969 19.4476 18.8187 19.2978C18.8792 19.2222 18.9347 19.1671 18.9756 19.132C19.0169 19.0973 19.0418 19.0809 19.0436 19.0831Z" fill="#C8A399"/>
<path d="M17.8311 18.5089C17.8374 18.5116 17.8023 18.6093 17.7476 18.7676C17.6929 18.9258 17.62 19.1458 17.5503 19.3916C17.4805 19.6373 17.4271 19.8627 17.3907 20.0262C17.3543 20.1898 17.3329 20.2916 17.3258 20.2902C17.32 20.2893 17.3298 20.1858 17.3583 20.0196C17.3867 19.8538 17.4351 19.6258 17.5054 19.3787C17.5756 19.1316 17.6538 18.912 17.7165 18.756C17.7796 18.6 17.8254 18.5067 17.8311 18.5089Z" fill="#C8A399"/>
<path d="M16.3911 21.4525C16.3973 21.4542 16.3791 21.5333 16.3466 21.6596C16.3097 21.8031 16.2671 21.9693 16.2195 22.1529C16.1733 22.3369 16.132 22.5036 16.096 22.6471C16.064 22.7738 16.0426 22.8516 16.036 22.8502C16.0297 22.8489 16.04 22.7685 16.0635 22.64C16.0871 22.5116 16.1253 22.3347 16.1742 22.1413C16.2235 21.948 16.2742 21.7747 16.3146 21.6502C16.3555 21.5258 16.3849 21.4507 16.3911 21.4525Z" fill="#C8A399"/>
<path d="M24.4386 18.0653C24.2351 17.8418 23.8786 18.0987 24.0293 18.3604C24.0315 18.3649 24.0342 18.3689 24.0369 18.3733C24.2951 18.804 25.1782 20.2133 25.1782 20.2133L25.3937 20.6991C25.3937 20.6991 25.8591 21.4378 25.9453 21.6533C26.0315 21.8689 27.2133 23.8004 27.3693 23.9724C27.5253 24.1449 28.344 23.9724 28.344 23.9724L29.2271 22.2284L28.344 20.2133C28.344 20.2133 28.3871 19.924 28.2146 19.9884C28.0422 20.0529 27.9564 20.1178 27.9564 20.1178L26.0057 17.2942C26.0057 17.2942 25.4964 16.44 25.1297 17.0182C25.1297 17.0182 24.7013 17.1476 24.944 17.7298C25.2222 18.3982 25.6093 18.8258 25.6093 18.8258L25.9537 19.7302L24.4386 18.0653Z" fill="#FAD6C8"/>
<path d="M24.4388 18.0653C24.4388 18.0653 24.4486 18.0742 24.4659 18.0925C24.4846 18.112 24.5099 18.1396 24.5437 18.1751C24.6126 18.2498 24.713 18.3578 24.8428 18.4982C25.1042 18.7831 25.4842 19.1973 25.9642 19.7209L25.941 19.7351C25.837 19.4636 25.7197 19.1587 25.5944 18.8316L25.5975 18.8365C25.3908 18.5956 25.2059 18.3116 25.0455 17.9942C25.0059 17.9147 24.9682 17.8329 24.9326 17.7489C24.8988 17.6636 24.8659 17.5751 24.8566 17.4796C24.845 17.3853 24.8544 17.2836 24.9002 17.1938C24.9477 17.1053 25.0259 17.0342 25.1246 16.9991L25.1135 17.0076C25.1588 16.9356 25.2193 16.8667 25.3015 16.8253C25.385 16.7853 25.4868 16.7916 25.569 16.8298C25.7357 16.9067 25.857 17.0485 25.9646 17.1938C26.1699 17.4916 26.3819 17.7991 26.6006 18.1156C27.0375 18.7476 27.4988 19.4142 27.9766 20.1049L27.9437 20.0996C28.0286 20.0418 28.1184 19.9996 28.2202 19.9636C28.2464 19.9533 28.2846 19.9525 28.3139 19.9725C28.3433 19.9925 28.3557 20.0236 28.3633 20.0511C28.3766 20.1076 28.3748 20.1618 28.3682 20.2173L28.3664 20.2045C28.4873 20.4805 28.6166 20.7751 28.7468 21.072C28.9166 21.46 29.0846 21.8427 29.2495 22.2196L29.2539 22.2298L29.249 22.2396C28.9455 22.8387 28.6499 23.4218 28.3655 23.9831L28.3606 23.9929L28.3499 23.9951C28.121 24.0391 27.893 24.0733 27.6646 24.0716C27.6073 24.0693 27.5499 24.0667 27.493 24.0538C27.4379 24.0458 27.3735 24.0156 27.3388 23.9676C27.269 23.8773 27.2108 23.7853 27.1504 23.6938C26.9126 23.3271 26.6922 22.968 26.4824 22.6218C26.3788 22.448 26.277 22.2778 26.1779 22.1111C26.0824 21.9427 25.981 21.7818 25.9077 21.6111C25.7415 21.2849 25.553 20.988 25.3815 20.7085L25.3806 20.7071L25.3802 20.7062C25.3033 20.532 25.2335 20.3733 25.1659 20.22L25.1668 20.2218C24.6868 19.4427 24.3037 18.8205 24.0397 18.3916C24.0068 18.3382 23.9824 18.2782 23.9882 18.22C23.9917 18.1622 24.0166 18.1125 24.0482 18.0747C24.1117 17.9973 24.201 17.9742 24.2659 17.9765C24.3339 17.9791 24.3775 18.0111 24.4046 18.0298C24.4273 18.0529 24.4388 18.0653 24.4388 18.0653C24.4388 18.0653 24.425 18.0547 24.4002 18.0329C24.3726 18.016 24.3295 17.9858 24.2642 17.9849C24.2015 17.9845 24.1157 18.008 24.0566 18.0827C24.0273 18.1187 24.0046 18.1662 24.0019 18.2205C23.9975 18.2751 24.0206 18.3298 24.053 18.3822C24.3197 18.8093 24.7073 19.4289 25.1917 20.2049L25.1922 20.2058L25.1926 20.2067C25.2606 20.3596 25.3317 20.5182 25.409 20.692L25.4077 20.6898C25.581 20.9698 25.7695 21.2636 25.9393 21.5942C26.0122 21.7627 26.1139 21.9227 26.2095 22.0907C26.309 22.2565 26.4108 22.4267 26.5148 22.6C26.7255 22.9453 26.9468 23.3045 27.1846 23.6693C27.2446 23.7596 27.3046 23.8533 27.3704 23.9387C27.4019 23.98 27.4459 24 27.5006 24.0098C27.5526 24.0218 27.6082 24.0245 27.6633 24.0262C27.8855 24.0276 28.113 23.9938 28.3388 23.9498L28.3233 23.9618C28.6073 23.4 28.9024 22.8169 29.2055 22.2178L29.205 22.2378C29.0402 21.8613 28.8722 21.4782 28.7024 21.0902C28.5722 20.7929 28.4433 20.4987 28.3224 20.2222L28.3197 20.2165L28.3206 20.2093C28.3264 20.1605 28.3277 20.1071 28.3166 20.0618C28.305 20.0138 28.2762 19.9911 28.2317 20.0076C28.1393 20.04 28.045 20.0845 27.9699 20.136L27.9499 20.1498L27.937 20.1307C27.4597 19.4391 26.9993 18.7716 26.5628 18.1391C26.3455 17.8227 26.1339 17.5151 25.9295 17.2178C25.825 17.0751 25.705 16.9369 25.5517 16.8667C25.4762 16.8316 25.3899 16.8276 25.3175 16.8613C25.2459 16.8973 25.1895 16.9596 25.1459 17.0285L25.1424 17.0342L25.1348 17.0369C25.0499 17.0671 24.9753 17.1325 24.9335 17.2116C24.8922 17.2925 24.8828 17.3858 24.8935 17.4751C24.9148 17.6556 25.0033 17.8191 25.0775 17.9782C25.2353 18.2933 25.4188 18.5769 25.621 18.8151L25.6233 18.8178L25.6242 18.8205C25.7482 19.1485 25.8637 19.4538 25.9664 19.7258L25.9926 19.7947L25.9433 19.74C25.4673 19.2129 25.0904 18.7956 24.8317 18.5089C24.7042 18.3662 24.6059 18.2565 24.5379 18.1809C24.5055 18.1445 24.481 18.116 24.4633 18.096C24.4464 18.076 24.4388 18.0653 24.4388 18.0653Z" fill="#C8A399"/>
<path d="M26.5319 20.5471C26.519 20.5511 26.4533 20.3689 26.3466 20.1565C26.2968 20.0485 26.235 19.9627 26.1639 19.9387C26.095 19.9107 26.0475 19.9334 26.0453 19.9262C26.0404 19.9227 26.0897 19.8836 26.1746 19.9071C26.2155 19.9178 26.2608 19.9462 26.2964 19.988C26.3333 20.0294 26.3617 20.0818 26.3884 20.1356C26.4977 20.352 26.5439 20.544 26.5319 20.5471Z" fill="#C8A399"/>
<path d="M26.9304 19.7116C26.9273 19.7129 26.905 19.6738 26.8668 19.6018C26.829 19.5298 26.7735 19.4253 26.7033 19.2982C26.5633 19.0431 26.3566 18.6982 26.1046 18.3324C25.8535 17.9658 25.6144 17.6418 25.445 17.4044C25.365 17.2911 25.2979 17.1964 25.2459 17.1222C25.1997 17.0551 25.1753 17.0169 25.1779 17.0151C25.1806 17.0133 25.2099 17.0476 25.2606 17.1116C25.3157 17.1831 25.3868 17.2747 25.4717 17.3849C25.6477 17.6173 25.8913 17.9382 26.1433 18.3062C26.3962 18.6733 26.5997 19.0227 26.7326 19.2827C26.7993 19.4124 26.8504 19.5191 26.8833 19.5938C26.9162 19.6684 26.933 19.7102 26.9304 19.7116Z" fill="#C8A399"/>
<path d="M27.3212 20.3765C27.307 20.376 27.3328 20.2054 27.2412 20.0258C27.1532 19.844 27.0017 19.7618 27.0101 19.7502C27.0123 19.7454 27.0541 19.7578 27.1105 19.7982C27.167 19.8382 27.2354 19.9094 27.283 20.0049C27.3305 20.1005 27.3461 20.1982 27.3434 20.2671C27.3412 20.3369 27.3265 20.3774 27.3212 20.3765Z" fill="#C8A399"/>
<path d="M28.5937 21.34C28.5879 21.3431 28.547 21.2729 28.483 21.1591C28.411 21.0294 28.3279 20.8791 28.2355 20.7129C28.1399 20.5378 28.0564 20.3778 27.9999 20.2596C27.9435 20.1414 27.9132 20.0662 27.9186 20.0636C27.9244 20.0605 27.9652 20.1307 28.0292 20.2445C28.1012 20.3742 28.1844 20.5245 28.2768 20.6907C28.3724 20.8658 28.4559 21.0258 28.5124 21.144C28.5692 21.2618 28.5995 21.3374 28.5937 21.34Z" fill="#C8A399"/>
<path d="M20.834 42.8938C20.8335 42.892 20.8504 42.8858 20.8824 42.8756C20.9193 42.864 20.966 42.8498 21.0229 42.8324C21.054 42.8231 21.0878 42.8133 21.1247 42.8022C21.1615 42.7902 21.2007 42.7747 21.2433 42.7596C21.3282 42.7276 21.4269 42.6969 21.53 42.6489C21.5824 42.6262 21.6371 42.6027 21.694 42.5782C21.7509 42.5533 21.8078 42.5218 21.8678 42.4924C21.9891 42.4356 22.1109 42.3604 22.2411 42.2853C22.4962 42.1258 22.7651 41.9316 23.0242 41.7C23.2807 41.4658 23.5015 41.2178 23.686 40.98C23.7744 40.8582 23.8611 40.7444 23.93 40.6293C23.9655 40.5724 24.0024 40.5196 24.0331 40.4653C24.0633 40.4111 24.0922 40.3591 24.1202 40.3093C24.1784 40.2111 24.2189 40.1164 24.2593 40.0351C24.2789 39.9942 24.298 39.9564 24.3135 39.9213C24.3282 39.8858 24.3415 39.8533 24.354 39.8231C24.3771 39.768 24.3962 39.7236 24.4113 39.6876C24.4251 39.6569 24.4327 39.6409 24.4344 39.6413C24.4358 39.6418 24.4309 39.6587 24.4202 39.6907C24.4073 39.7276 24.3909 39.7733 24.3709 39.8298C24.3598 39.8604 24.3473 39.8938 24.3344 39.9298C24.3198 39.9658 24.3015 40.004 24.2833 40.0458C24.2451 40.1284 24.2064 40.2249 24.1495 40.3249C24.1224 40.3756 24.094 40.4284 24.0647 40.4836C24.0349 40.5387 23.998 40.5924 23.9633 40.6502C23.8953 40.7667 23.8091 40.8827 23.7207 41.0062C23.5362 41.2471 23.3149 41.4982 23.0558 41.7347C22.7944 41.968 22.5224 42.1631 22.2638 42.3222C22.1318 42.3973 22.0082 42.4716 21.8851 42.5276C21.8242 42.5564 21.7669 42.5876 21.7091 42.6116C21.6513 42.6351 21.5958 42.6582 21.5424 42.68C21.4375 42.7262 21.3375 42.7551 21.2513 42.7849C21.2082 42.7991 21.1682 42.8133 21.1309 42.824C21.0935 42.8333 21.0593 42.8422 21.0273 42.8502C20.9691 42.8644 20.922 42.876 20.8842 42.8849C20.8518 42.892 20.8344 42.8951 20.834 42.8938Z" fill="#796060"/>
<path d="M16.2309 23.3662C16.0624 23.3849 7.56552 27.5342 7.5233 29.4844C7.48064 31.4347 8.19619 32.3062 8.91841 33.4151C9.64064 34.524 13.5171 38.6871 13.7295 38.7636C13.942 38.84 16.8255 34.8382 16.8255 34.8382L15.6362 32.1231C15.6362 32.1231 15.254 31.0533 14.0646 31.5689L13.0877 30.6316L18.3549 25.584C18.3549 25.5844 19.3317 23.0222 16.2309 23.3662Z" fill="#AE837E"/>
<path d="M14.6208 36.5818C14.6195 36.5813 14.623 36.5662 14.6315 36.5387C14.6421 36.5062 14.655 36.4667 14.6706 36.4191C14.6888 36.3676 14.7097 36.3044 14.7284 36.2289C14.7479 36.1538 14.775 36.0698 14.7919 35.9738C14.8017 35.9258 14.8119 35.876 14.8226 35.824C14.8328 35.772 14.8386 35.7164 14.847 35.66C14.8661 35.5471 14.8728 35.4244 14.883 35.2964C14.8941 35.0391 14.887 34.7556 14.8475 34.4609C14.8044 34.1667 14.7337 33.892 14.6524 33.6476C14.6075 33.5271 14.5675 33.4111 14.5177 33.3076C14.4937 33.2556 14.4732 33.204 14.4492 33.1564C14.4248 33.1093 14.4012 33.0644 14.3786 33.0209C14.3359 32.9329 14.2866 32.8596 14.2475 32.7929C14.2088 32.7253 14.1715 32.6702 14.1395 32.6258C14.1115 32.584 14.0884 32.5498 14.0692 32.5213C14.0537 32.4973 14.0457 32.484 14.047 32.4831C14.0484 32.4822 14.0586 32.4933 14.0768 32.516C14.0981 32.5431 14.1235 32.576 14.1546 32.6156C14.1888 32.6587 14.2288 32.7124 14.2697 32.7791C14.3115 32.8449 14.363 32.9178 14.4079 33.0053C14.4315 33.0484 14.4564 33.0938 14.4821 33.1404C14.5075 33.1876 14.5288 33.2396 14.5537 33.2916C14.6052 33.3951 14.647 33.5116 14.6937 33.6333C14.7781 33.8791 14.851 34.1569 14.8946 34.4542C14.9346 34.752 14.9408 35.0391 14.927 35.2987C14.9155 35.428 14.9075 35.5516 14.8866 35.6653C14.8768 35.7222 14.8706 35.7778 14.859 35.8302C14.847 35.8822 14.8359 35.9324 14.8248 35.9809C14.8057 36.0773 14.7759 36.1613 14.7541 36.2364C14.7328 36.3116 14.7092 36.3742 14.6884 36.4253C14.6697 36.472 14.6537 36.5107 14.6408 36.5422C14.6288 36.5684 14.6221 36.5822 14.6208 36.5818Z" fill="#796060"/>
<path d="M15.171 40.1631C15.1697 40.1622 15.1808 40.1396 15.203 40.0973C15.2279 40.0516 15.2608 39.9902 15.3021 39.9138C15.3243 39.8738 15.3483 39.8298 15.3746 39.7818C15.3999 39.7329 15.4243 39.6782 15.4523 39.6205C15.5066 39.504 15.5754 39.3742 15.6332 39.2231C15.6639 39.148 15.6963 39.0698 15.7301 38.9885C15.7634 38.9067 15.7901 38.8187 15.8226 38.7293C15.8897 38.5511 15.9412 38.3542 16.0003 38.1489C16.1057 37.7347 16.1928 37.2716 16.2372 36.7796C16.2763 36.2871 16.2683 35.816 16.2346 35.3898C16.211 35.1773 16.1932 34.9747 16.1568 34.7876C16.1403 34.6938 16.1283 34.6027 16.1097 34.5165C16.0901 34.4302 16.0719 34.3476 16.0541 34.2689C16.0226 34.1098 15.9768 33.9707 15.943 33.8467C15.9252 33.7849 15.9101 33.7271 15.8932 33.6742C15.8755 33.6227 15.859 33.5751 15.8439 33.532C15.8159 33.4493 15.7937 33.3836 15.7772 33.3342C15.7626 33.2889 15.7554 33.2645 15.7568 33.264C15.7581 33.2636 15.7683 33.2862 15.7861 33.3307C15.8048 33.3791 15.8297 33.4445 15.8612 33.5258C15.8772 33.5689 15.895 33.616 15.9146 33.6671C15.9328 33.7191 15.9488 33.7773 15.9679 33.8387C16.0043 33.9622 16.0523 34.1018 16.0861 34.2609C16.1048 34.34 16.1248 34.4231 16.1452 34.5093C16.1652 34.596 16.1777 34.6876 16.1954 34.7813C16.2332 34.9689 16.2528 35.1725 16.2777 35.3862C16.3141 35.8147 16.3235 36.2885 16.2839 36.784C16.2395 37.2787 16.1501 37.744 16.0421 38.1605C15.9817 38.3667 15.9279 38.564 15.859 38.7427C15.8261 38.8325 15.7981 38.9205 15.7639 39.0022C15.7292 39.0836 15.6959 39.1622 15.6639 39.2369C15.6039 39.388 15.5328 39.5173 15.4759 39.6329C15.4466 39.6902 15.4208 39.7445 15.3941 39.7929C15.3666 39.8405 15.3408 39.884 15.3177 39.9236C15.2728 39.9987 15.2372 40.0582 15.2106 40.1031C15.1861 40.1427 15.1723 40.164 15.171 40.1631Z" fill="#796060"/>
<path d="M13.9212 29.88C13.9234 29.8822 13.8892 29.9169 13.8256 29.9773C13.7625 30.0378 13.6687 30.1231 13.5509 30.2262C13.3158 30.4333 12.9821 30.7089 12.6012 30.9973C12.2203 31.2862 11.8656 31.5342 11.6069 31.7102C11.4772 31.7978 11.3718 31.868 11.2981 31.9151C11.2243 31.9622 11.1825 31.9871 11.1807 31.9844C11.1789 31.9818 11.2172 31.952 11.2878 31.9C11.3656 31.8435 11.4665 31.7707 11.5883 31.6831C11.8421 31.5004 12.1932 31.2484 12.5732 30.96C12.9536 30.672 13.2896 30.4009 13.5301 30.2009C13.6452 30.1049 13.7407 30.0249 13.8141 29.9635C13.8807 29.9075 13.9189 29.8773 13.9212 29.88Z" fill="#796060"/>
<path d="M27.0858 23.7262C27.0858 23.7262 27.5849 21.6098 29.8694 22.0458C29.8694 22.0458 34.7996 25.4853 36.2338 27.3124C37.668 29.1396 37.2391 29.8253 36.8534 30.7716C36.4676 31.7178 35.1116 33.2951 32.6369 35.3516L29.3458 37.8356C29.3458 37.8356 26.584 32.1649 26.8614 31.756C26.9951 31.5587 31.2307 29.7307 31.2307 29.7307C31.2307 29.7307 31.0654 29.5351 31.3463 29.2227L29.6551 27.1556L27.0858 23.7262Z" fill="#AE837E"/>
<path d="M36.2132 28.7249C36.2172 28.7226 36.2563 28.7973 36.267 28.9306C36.2781 29.0613 36.2483 29.2564 36.1234 29.4218C35.9985 29.5871 35.823 29.6724 35.6954 29.7031C35.5661 29.7351 35.483 29.7244 35.4834 29.7195C35.483 29.7115 35.5643 29.7102 35.6861 29.6711C35.8065 29.6333 35.9692 29.548 36.0861 29.3933C36.203 29.2386 36.2363 29.0573 36.2341 28.9315C36.2323 28.8044 36.2052 28.7271 36.2132 28.7249Z" fill="#796060"/>
<path d="M29.3834 43.0831C29.3825 43.0831 29.3834 43.0742 29.3852 43.0573C29.3879 43.0378 29.391 43.0133 29.395 42.9831C29.4052 42.9147 29.419 42.8191 29.4367 42.6978C29.4767 42.4507 29.5234 42.0916 29.575 41.6471C29.667 40.7604 29.751 39.5147 29.5252 38.1667C29.4096 37.4947 29.2239 36.8693 29.0163 36.3169C28.9621 36.1796 28.9123 36.0445 28.8585 35.9151C28.8012 35.7876 28.7452 35.6636 28.6914 35.544C28.6639 35.4845 28.639 35.4249 28.611 35.368C28.5821 35.3116 28.5541 35.256 28.5261 35.2018C28.471 35.0929 28.4176 34.9889 28.367 34.8889C28.1527 34.4965 27.9736 34.1818 27.8394 33.9707C27.7759 33.8658 27.7261 33.7836 27.6901 33.724C27.6745 33.6973 27.6621 33.676 27.6523 33.6591C27.6439 33.6445 27.6399 33.6365 27.6407 33.636C27.6416 33.6356 27.6465 33.6427 27.6563 33.6565C27.6674 33.6729 27.6807 33.6933 27.6981 33.7187C27.7359 33.7769 27.7883 33.8578 27.855 33.9604C27.9941 34.1689 28.1781 34.4813 28.3963 34.8729C28.4479 34.9725 28.5021 35.0764 28.5585 35.1849C28.5865 35.2391 28.6154 35.2947 28.6447 35.3511C28.6732 35.408 28.6985 35.4676 28.7265 35.5271C28.7812 35.6471 28.8381 35.7711 28.8963 35.8987C28.951 36.028 29.0016 36.1636 29.0567 36.3013C29.2674 36.8551 29.4554 37.4831 29.5714 38.1587C29.7985 39.5133 29.7083 40.7636 29.6083 41.6507C29.5523 42.0951 29.5007 42.4542 29.455 42.7005C29.4336 42.8209 29.4167 42.916 29.4047 42.9845C29.399 43.0147 29.3941 43.0387 29.3905 43.0582C29.3865 43.0751 29.3843 43.0836 29.3834 43.0831Z" fill="#796060"/>
<path d="M31.8243 30.7462C31.8199 30.7502 31.7648 30.7018 31.6861 30.6129C31.6074 30.524 31.5074 30.3929 31.4154 30.236C31.3234 30.0791 31.2581 29.9275 31.219 29.8155C31.1799 29.7035 31.1643 29.6311 31.1701 29.6298C31.1839 29.6249 31.2737 29.904 31.4559 30.2124C31.6359 30.5222 31.8354 30.7364 31.8243 30.7462Z" fill="#796060"/>
<path d="M32.9536 30.7C32.9518 30.7027 32.9243 30.6867 32.8767 30.656C32.8287 30.6253 32.7611 30.5787 32.6789 30.5187C32.514 30.3996 32.2927 30.2258 32.0611 30.0191C31.8296 29.8124 31.6314 29.6125 31.494 29.4622C31.4251 29.3871 31.3709 29.3253 31.3349 29.2813C31.2989 29.2373 31.2798 29.212 31.2825 29.2098C31.2878 29.2053 31.3749 29.2956 31.518 29.4391C31.6611 29.5827 31.8616 29.7782 32.0922 29.984C32.3229 30.1893 32.5398 30.3662 32.6989 30.492C32.8576 30.6178 32.9576 30.6942 32.9536 30.7Z" fill="#796060"/>
<g opacity="0.3">
<path d="M11.2549 31.9169C11.6833 31.9809 12.1349 31.868 12.4829 31.6102C12.8309 31.3524 13.0709 30.9533 13.1349 30.5253C12.5322 30.9111 11.8175 31.4738 11.2549 31.9169Z" fill="#040000"/>
</g>
<g opacity="0.3">
<path d="M29.3973 35.5995C29.0964 34.8764 28.5213 34.2938 27.828 33.9302L27.8213 33.9431C28.6302 35.1231 29.16 36.5115 29.508 37.8995C29.7382 37.1511 29.6982 36.3227 29.3973 35.5995Z" fill="#040000"/>
</g>
</g>
</g>
<defs>
<clipPath id="clip0_1141_49266">
<rect width="48" height="48" rx="24" fill="white"/>
</clipPath>
<clipPath id="clip1_1141_49266">
<rect width="48" height="48" fill="white"/>
</clipPath>
</defs>
</svg>
