<svg width="48" height="48" viewBox="0 0 48 48" fill="none" xmlns="http://www.w3.org/2000/svg">
<g clip-path="url(#clip0_1141_49264)">
<rect width="48" height="48" rx="24" fill="white"/>
<g clip-path="url(#clip1_1141_49264)">
<g opacity="0.31">
<path d="M14.5793 8.98799C13.6638 9.94132 13.1073 11.232 13.0433 12.552C12.9793 13.8724 13.4078 15.2107 14.2264 16.2484C15.2935 17.6004 16.9842 18.4515 17.7358 20.0013C17.8815 20.3013 17.9882 20.6342 17.9464 20.9653C17.9047 21.2964 17.6829 21.6209 17.3589 21.7009C16.93 21.8067 16.5273 21.4778 16.2078 21.1733C15.0024 20.0249 13.79 18.8684 12.8127 17.5209C11.8353 16.1733 11.0958 14.6093 10.9593 12.9502C10.8233 11.2911 11.3518 9.53288 12.5775 8.40666C12.9593 8.05599 13.4567 7.75777 13.9678 7.84221C14.4789 7.92666 14.8838 8.56977 14.5775 8.98755" fill="#BF9892"/>
</g>
<g opacity="0.31">
<path d="M31.2965 20.884C32.5916 20.2636 33.9449 19.5951 34.7658 18.4174C35.5867 17.2391 35.632 15.3894 34.4743 14.54C33.9898 14.1849 33.38 14.0551 32.8396 13.7929C31.6147 13.1983 30.84 11.9805 29.8667 11.0285C27.9329 9.13692 25.0383 8.28403 22.3876 8.82492C20.7543 9.15825 19.0823 10.1827 18.728 11.8116C18.5009 12.856 18.8671 13.9587 19.4774 14.836C20.0876 15.7134 20.9231 16.4049 21.748 17.0845C22.1743 17.4356 22.8031 17.7925 23.2249 17.4365C23.6103 17.1111 23.424 16.4471 23.0378 16.1231C22.6516 15.7987 22.1374 15.6743 21.708 15.4098C20.5707 14.7089 20.26 13.0529 20.8623 11.8605C21.4645 10.668 22.788 9.95203 24.1178 9.82359C25.8769 9.65336 27.6996 10.4471 28.7729 11.8511C29.5409 12.8551 30.0223 14.2049 31.1836 14.7049C31.9654 15.0414 32.9765 14.9427 33.5423 15.5787C34.1143 16.2209 33.8516 17.2996 33.2196 17.8823C32.5876 18.4649 31.7089 18.6791 30.8711 18.8725" fill="#BF9892"/>
</g>
<g opacity="0.31">
<path d="M36.723 28.724C40.8008 27.0036 43.9541 23.8374 45.2221 20.1916C46.4901 16.5458 45.8537 12.4729 43.5074 9.21557C41.6599 6.65069 38.6781 4.56002 35.1581 3.92446C34.5901 3.8218 33.8888 3.79602 33.5421 4.18313C33.095 4.68269 33.6239 5.36935 34.1483 5.81424C36.9892 8.22491 40.4741 10.2525 42.2963 13.2658C43.6017 15.4249 43.9199 17.9822 43.1723 20.3169C42.4252 22.6511 40.6199 24.7414 38.195 26.0791C37.643 26.3836 37.0479 26.6596 36.6319 27.088C36.2159 27.5165 36.0234 28.1547 36.3808 28.6182" fill="#BF9892"/>
</g>
<g opacity="0.31">
<path d="M39.055 27.7253C39.9337 26.2036 41.1519 24.7036 42.8613 24.2969C42.9422 24.2778 43.0355 24.2636 43.1008 24.3151C43.1937 24.3884 43.163 24.5347 43.1217 24.6458C41.8724 28.0338 39.4528 30.5916 36.2022 32.1636L36.1973 32.1276C37.4719 30.9182 38.1764 29.2467 39.055 27.7253Z" fill="#BF9892"/>
</g>
<g opacity="0.31">
<path d="M26.1109 10.1817C26.1122 10.1791 26.074 10.1462 25.9998 10.0862C25.9256 10.0262 25.8153 9.93953 25.6727 9.82931C25.386 9.61108 24.9713 9.29242 24.4304 8.95864C24.1598 8.79331 23.8571 8.62353 23.5202 8.47864C23.1833 8.33553 22.814 8.20442 22.4136 8.14397C22.214 8.10886 22.0073 8.09775 21.7962 8.09375C21.5851 8.09775 21.3696 8.11419 21.1522 8.15597C20.9358 8.20086 20.7167 8.26219 20.5029 8.35597C20.2896 8.45108 20.0798 8.57153 19.8811 8.72175C19.7851 8.80264 19.6873 8.87997 19.6002 8.97242C19.5091 9.05864 19.426 9.15597 19.3482 9.25731C19.1936 9.46086 19.0638 9.68975 18.9736 9.93686C18.8824 10.1831 18.8367 10.4506 18.8411 10.7115C18.8456 10.9724 18.8967 11.2231 18.97 11.4524C19.0438 11.6822 19.1393 11.8937 19.2442 12.0871C19.2984 12.1826 19.3491 12.2791 19.4078 12.3666C19.4362 12.4111 19.4638 12.456 19.4927 12.4986C19.5224 12.5404 19.5522 12.5817 19.5816 12.6231C19.8184 12.9502 20.0762 13.2133 20.3287 13.4195C20.8344 13.836 21.3118 14.0249 21.6407 14.1177C21.7229 14.144 21.7976 14.1569 21.862 14.1706C21.926 14.1857 21.9811 14.1929 22.0256 14.1978C22.1144 14.2089 22.1611 14.2129 22.1611 14.2098C22.1616 14.2066 22.1153 14.196 22.0273 14.1786C21.9833 14.1706 21.9291 14.1604 21.866 14.1426C21.8024 14.1257 21.7287 14.1102 21.6478 14.0813C21.3238 13.9782 20.8549 13.7813 20.3598 13.3635C20.1127 13.1564 19.8611 12.8946 19.6304 12.5706C19.4024 12.2466 19.1802 11.8671 19.0376 11.4209C18.9673 11.1982 18.9198 10.9577 18.9162 10.7102C18.9127 10.4631 18.9562 10.2106 19.0438 9.97508C19.1304 9.73908 19.2553 9.51908 19.4051 9.32264C19.4802 9.22442 19.5607 9.13064 19.6496 9.04664C19.734 8.95686 19.8296 8.88175 19.9229 8.80308C20.1162 8.65686 20.3202 8.53908 20.5287 8.44619C20.7376 8.35419 20.9518 8.29419 21.1638 8.24931C21.3767 8.20753 21.5882 8.19064 21.7958 8.18575C22.0033 8.18842 22.2069 8.19819 22.4033 8.23197C22.7976 8.28931 23.1633 8.41553 23.4976 8.55419C23.8322 8.69464 24.134 8.85908 24.4047 9.01997C24.946 9.34397 25.3647 9.65331 25.6558 9.86131C25.7998 9.96531 25.9127 10.0462 25.9909 10.1026C26.0682 10.1573 26.1096 10.1849 26.1109 10.1817Z" fill="#BF9892"/>
<path d="M21.9687 16.8649C21.9691 16.8644 21.9673 16.8555 21.9625 16.8387C21.9571 16.8204 21.9496 16.7951 21.9402 16.7618C21.9296 16.728 21.9185 16.6849 21.9007 16.6364C21.882 16.5875 21.8607 16.5315 21.8362 16.4675C21.7322 16.2164 21.542 15.8622 21.2229 15.4915C20.9069 15.1164 20.4669 14.7338 19.9487 14.3115C19.6909 14.0982 19.4131 13.8729 19.1345 13.6102C18.9945 13.4795 18.8549 13.3387 18.7198 13.184C18.5842 13.0298 18.4522 12.8622 18.334 12.6742C18.2153 12.4871 18.1078 12.2822 18.0211 12.0591C18.0011 12.0022 17.9811 11.9453 17.9611 11.888C17.9424 11.8302 17.9291 11.7693 17.9127 11.7098C17.8989 11.6493 17.8771 11.5911 17.8696 11.5275C17.8593 11.4653 17.8491 11.4027 17.8389 11.3395C17.826 11.2769 17.8242 11.212 17.8193 11.1475C17.8158 11.0827 17.8087 11.0182 17.8073 10.9524C17.8082 10.8871 17.8096 10.8209 17.8105 10.7551C17.8113 10.7222 17.8105 10.6889 17.8131 10.6555L17.8229 10.5564C17.83 10.4902 17.8353 10.4231 17.8433 10.3564C17.8549 10.2907 17.8669 10.224 17.8789 10.1578C17.8851 10.1244 17.89 10.0911 17.8976 10.0578L17.9229 9.95955C17.9402 9.89421 17.9558 9.82755 17.974 9.76221C18.2878 8.7191 18.9949 7.7711 19.9433 7.26977C20.4127 7.00932 20.9269 6.83466 21.4607 6.72621C21.9945 6.61466 22.5487 6.56932 23.1127 6.54932C24.2402 6.51644 25.4162 6.53955 26.5936 6.79821C27.1811 6.92977 27.754 7.11644 28.2931 7.38088C28.5633 7.5111 28.8251 7.65955 29.0758 7.8271C29.326 7.99466 29.5687 8.17421 29.7953 8.37688C30.022 8.57866 30.2367 8.79466 30.4349 9.02755C30.6313 9.26221 30.8122 9.5111 30.9758 9.77199C31.2993 10.2973 31.5345 10.8795 31.7958 11.4262C32.0549 11.9715 32.346 12.4991 32.7473 12.8684C32.7989 12.9115 32.8469 12.96 32.9007 12.9978C32.9545 13.0355 33.0069 13.0755 33.0611 13.1107C33.1705 13.1795 33.2842 13.2351 33.3976 13.2831C33.6251 13.38 33.8536 13.4498 34.0718 13.5364C34.2891 13.6244 34.5007 13.724 34.6785 13.8804C34.7265 13.9133 34.7665 13.9587 34.8082 14.0004C34.8496 14.0431 34.8936 14.0818 34.9282 14.132C34.9651 14.1795 35.0016 14.2271 35.038 14.2742C35.07 14.3262 35.1016 14.3778 35.1331 14.4289C35.2513 14.6404 35.3491 14.8658 35.4082 15.1018L35.4331 15.1889L35.4513 15.2778C35.4633 15.3369 35.4753 15.396 35.4869 15.4547C35.4945 15.5142 35.5025 15.5738 35.51 15.6324L35.5211 15.7204L35.5265 15.8089C35.558 16.2791 35.51 16.7351 35.394 17.1364C35.2802 17.5391 35.1024 17.8858 34.9104 18.1804C34.5207 18.7702 34.0682 19.1435 33.6927 19.412C33.3113 19.6747 32.9945 19.8324 32.7793 19.9342C32.6718 19.9858 32.5887 20.0209 32.5327 20.0453C32.5056 20.0578 32.4847 20.0671 32.47 20.0738C32.4558 20.0804 32.4491 20.084 32.4491 20.0849C32.4491 20.0858 32.4567 20.0835 32.4713 20.0782C32.4865 20.0724 32.5078 20.0649 32.5353 20.0542C32.5922 20.0329 32.6762 20.0004 32.7851 19.9515C33.0025 19.8551 33.322 19.7027 33.7078 19.4435C34.0878 19.1787 34.5469 18.8075 34.9451 18.2133C35.1411 17.9164 35.3233 17.5662 35.4416 17.1555C35.5616 16.7467 35.6122 16.2827 35.582 15.8027L35.5771 15.7124L35.566 15.6222C35.5584 15.5618 35.5509 15.5013 35.5433 15.4404C35.5313 15.3804 35.5193 15.32 35.5073 15.2595L35.4891 15.1684L35.4638 15.0791C35.4038 14.8369 35.3042 14.6049 35.1829 14.3862C35.1504 14.3329 35.118 14.2795 35.0851 14.2258C35.0478 14.1769 35.01 14.1275 34.9718 14.0782C34.9358 14.0262 34.8905 13.9858 34.8478 13.9413C34.8047 13.8978 34.7629 13.8511 34.7136 13.8164C34.5291 13.6533 34.3113 13.5498 34.0918 13.46C33.8709 13.3715 33.6429 13.3009 33.4198 13.2049C33.1953 13.1124 32.9811 12.98 32.7887 12.8C32.4007 12.4418 32.1149 11.9235 31.8585 11.3809C31.5998 10.8369 31.3642 10.2511 31.0358 9.71599C30.87 9.4511 30.6869 9.19821 30.4878 8.95999C30.2869 8.72399 30.0696 8.50444 29.8402 8.29999C29.6113 8.09466 29.366 7.91244 29.1127 7.7431C28.8593 7.57332 28.5949 7.42355 28.322 7.29155C27.7771 7.02399 27.1993 6.83555 26.6073 6.7031C25.4211 6.44266 24.2407 6.42044 23.11 6.45466C22.5438 6.47555 21.9865 6.52177 21.4478 6.6351C20.9091 6.74532 20.3887 6.9231 19.9127 7.18844C19.4376 7.45155 19.0051 7.80799 18.6696 8.25377C18.3265 8.69066 18.0749 9.20399 17.9122 9.73466C17.8936 9.80177 17.8776 9.86977 17.8602 9.93688L17.8349 10.0373C17.8273 10.0711 17.8225 10.1058 17.8162 10.1395C17.8042 10.2075 17.7922 10.2755 17.7807 10.3431C17.7722 10.4115 17.7669 10.48 17.7602 10.548L17.7505 10.6498C17.7478 10.6835 17.7487 10.7178 17.7478 10.7515C17.7469 10.8195 17.746 10.8871 17.7451 10.9542C17.7465 11.0213 17.754 11.088 17.758 11.1542C17.7633 11.2204 17.7656 11.2871 17.7785 11.3511C17.7891 11.4155 17.7998 11.48 17.8105 11.544C17.8185 11.6089 17.8411 11.6689 17.8553 11.7307C17.8722 11.792 17.8864 11.8542 17.9056 11.9133C17.9264 11.972 17.9469 12.0302 17.9678 12.0884C18.0576 12.3164 18.1678 12.5253 18.2896 12.7151C18.4109 12.9058 18.5451 13.0751 18.6829 13.2302C18.8202 13.3862 18.9616 13.5271 19.1029 13.6578C19.3847 13.9204 19.6642 14.144 19.9233 14.3551C20.4438 14.7729 20.8842 15.1493 21.2011 15.5178C21.5211 15.8818 21.7136 16.2293 21.8216 16.476C21.8469 16.5387 21.8696 16.5938 21.8891 16.6418C21.9082 16.6898 21.9202 16.732 21.9322 16.7649C21.9438 16.7973 21.9522 16.8222 21.9585 16.84C21.9647 16.8569 21.9682 16.8653 21.9687 16.8649Z" fill="#BF9892"/>
<path d="M31.4153 18.4196C31.4161 18.4258 31.509 18.4116 31.6757 18.3769C31.8419 18.3409 32.0837 18.2876 32.3753 18.1836C32.6646 18.0769 33.0113 17.9138 33.3277 17.5996C33.485 17.4422 33.6237 17.2387 33.7348 17.0053C33.7877 16.8871 33.837 16.7627 33.8699 16.6284C33.8899 16.5627 33.8993 16.4929 33.9135 16.424C33.921 16.3533 33.933 16.2831 33.9335 16.2107C33.9495 15.9222 33.8837 15.6347 33.7633 15.4049C33.6419 15.1742 33.4739 15 33.301 14.8711C32.9521 14.6111 32.5908 14.512 32.2993 14.4258C32.0046 14.3431 31.769 14.2707 31.6095 14.2053C31.4499 14.1404 31.365 14.0933 31.3624 14.1004C31.361 14.1036 31.381 14.1182 31.4206 14.1436C31.4601 14.1689 31.5201 14.2022 31.5988 14.2404C31.7566 14.3173 31.993 14.4004 32.2855 14.4916C32.5757 14.5858 32.9286 14.6911 33.2624 14.9458C33.4277 15.072 33.5855 15.2391 33.6975 15.4551C33.8086 15.6702 33.869 15.9347 33.8544 16.2053C33.8544 16.2729 33.8424 16.3396 33.8357 16.4058C33.8224 16.4707 33.8135 16.5369 33.7944 16.5991C33.7637 16.7267 33.7166 16.8453 33.6668 16.9587C33.5615 17.1822 33.4299 17.3787 33.2806 17.5311C32.9788 17.8373 32.6419 18.0049 32.3584 18.1178C32.0726 18.2293 31.8335 18.2924 31.669 18.3396C31.5055 18.3862 31.4144 18.4129 31.4153 18.4196Z" fill="#BF9892"/>
<path d="M25.5115 2.85605C25.5097 2.85427 25.4915 2.87516 25.4603 2.92005C25.4306 2.96583 25.3888 3.03605 25.3475 3.13605C25.2652 3.33383 25.1906 3.65871 25.2275 4.05871C25.247 4.25605 25.291 4.47916 25.4106 4.6756C25.4701 4.77249 25.5506 4.85783 25.6448 4.91738C25.7386 4.97871 25.8448 5.01516 25.9537 5.03471C26.1732 5.07205 26.4043 5.04316 26.635 4.97471C26.8643 4.9036 27.0977 4.77827 27.2888 4.57071C27.4817 4.36583 27.6066 4.08049 27.6421 3.78983C27.683 3.4996 27.6181 3.19694 27.4759 2.98627C27.3346 2.77338 27.147 2.64449 26.9715 2.54983C26.883 2.50271 26.7955 2.4636 26.7115 2.42894C26.6697 2.4116 26.6292 2.39516 26.5852 2.38049C26.5421 2.3676 26.499 2.35916 26.4572 2.35738C26.2892 2.34671 26.1417 2.39294 26.0181 2.4436C25.895 2.49694 25.795 2.56183 25.7186 2.62271C25.6412 2.6836 25.5897 2.74405 25.5559 2.78538C25.5243 2.82938 25.5097 2.85427 25.5115 2.85605C25.5172 2.86271 25.5799 2.76494 25.735 2.65383C25.8123 2.59916 25.9115 2.54094 26.0323 2.49383C26.1528 2.44938 26.2968 2.41027 26.4532 2.42449C26.5323 2.42938 26.6061 2.46005 26.691 2.49827C26.7737 2.53427 26.859 2.57427 26.9443 2.62183C27.1141 2.71649 27.2906 2.8436 27.4181 3.04005C27.5466 3.23471 27.6035 3.50538 27.5652 3.77471C27.531 4.04316 27.4155 4.30716 27.2359 4.49827C27.0572 4.69294 26.8363 4.81338 26.6159 4.88271C26.3946 4.95027 26.1701 4.97916 25.9639 4.94627C25.7581 4.91516 25.5723 4.80449 25.4626 4.62671C25.3515 4.45027 25.3048 4.2396 25.283 4.04983C25.2403 3.66494 25.3039 3.34849 25.3755 3.15116C25.4483 2.95294 25.5181 2.86183 25.5115 2.85605Z" fill="#BF9892"/>
<path d="M17.9091 15.684C17.9068 15.6817 17.8917 15.6982 17.8637 15.7315C17.8371 15.7662 17.7979 15.8177 17.7562 15.8933C17.7139 15.968 17.6699 16.0684 17.6424 16.1951C17.6153 16.3222 17.6099 16.4728 17.6268 16.6351C17.6473 16.8013 17.7082 16.9702 17.8037 17.1266C17.8513 17.2044 17.9131 17.2791 17.9891 17.3333C18.0646 17.3871 18.1508 17.4222 18.2402 17.4404C18.4197 17.4768 18.6091 17.4555 18.7975 17.4022C18.9855 17.3466 19.1771 17.2471 19.3353 17.0795C19.4944 16.9133 19.5993 16.6808 19.63 16.4426C19.6455 16.3235 19.6437 16.2022 19.6197 16.088C19.5966 15.9724 19.5504 15.8715 19.5015 15.7817C19.4522 15.6902 19.3935 15.6075 19.326 15.5417C19.2588 15.4755 19.1846 15.4266 19.1122 15.388C19.0388 15.3502 18.9682 15.32 18.8944 15.2986C18.8211 15.2813 18.7499 15.2706 18.6819 15.2742C18.4095 15.2831 18.2059 15.4017 18.0806 15.4964C18.0171 15.5444 17.9744 15.5933 17.9459 15.6262C17.9193 15.6617 17.9073 15.6822 17.9091 15.684C17.9139 15.6902 17.9686 15.6146 18.0962 15.5288C18.2224 15.4466 18.4237 15.3417 18.6819 15.3422C18.7459 15.3408 18.8126 15.3533 18.8802 15.3706C18.946 15.392 19.0166 15.4235 19.0851 15.4608C19.2233 15.5346 19.3513 15.6546 19.4397 15.8297C19.4855 15.9168 19.5264 16.0088 19.5455 16.1097C19.5664 16.2106 19.5673 16.32 19.5526 16.4275C19.5237 16.644 19.4286 16.8546 19.2824 17.0071C19.1366 17.1617 18.9575 17.2568 18.7784 17.3106C18.5988 17.3626 18.4166 17.3844 18.2513 17.3528C18.1686 17.3373 18.0908 17.3066 18.0233 17.26C17.9557 17.2137 17.9011 17.1497 17.8548 17.0777C17.7637 16.9351 17.7028 16.7746 17.6811 16.6248C17.6615 16.4706 17.6624 16.3275 17.6842 16.2071C17.7064 16.0866 17.7442 15.9884 17.7811 15.9128C17.8571 15.7622 17.9148 15.6902 17.9091 15.684Z" fill="#BF9892"/>
<path d="M37.9463 20.9551C37.9431 20.9515 37.8951 21.0013 37.8334 21.1173C37.7747 21.2311 37.6969 21.4262 37.7245 21.6817C37.7414 21.8084 37.788 21.9364 37.8605 22.0564C37.8965 22.116 37.944 22.1737 38.0023 22.2155C38.0605 22.2573 38.1263 22.284 38.1947 22.2982C38.332 22.3266 38.476 22.3106 38.6196 22.2706C38.7631 22.2293 38.9089 22.1537 39.0311 22.0266C39.1538 21.9004 39.2351 21.7231 39.26 21.5409C39.272 21.4497 39.2725 21.3564 39.2547 21.2684C39.2383 21.18 39.2031 21.1 39.1649 21.032C39.0867 20.8929 38.9787 20.7897 38.8654 20.7324C38.7525 20.6746 38.6374 20.6542 38.5347 20.6586C38.3298 20.6671 38.1702 20.7377 38.0734 20.8093C37.9756 20.8826 37.9431 20.9533 37.9463 20.9551C37.9516 20.9609 37.9911 20.9013 38.0885 20.8417C38.1854 20.7835 38.3409 20.7257 38.5356 20.7262C38.632 20.7262 38.7369 20.7493 38.8391 20.8049C38.9409 20.8604 39.0356 20.9546 39.1045 21.0813C39.1391 21.1457 39.1676 21.2133 39.1809 21.2889C39.1951 21.364 39.1947 21.4449 39.1836 21.5249C39.1605 21.6857 39.0889 21.8409 38.9791 21.9537C38.8698 22.068 38.7356 22.1391 38.6014 22.1791C38.4667 22.2182 38.3298 22.2342 38.2067 22.2106C37.9502 22.1764 37.82 21.884 37.7796 21.6697C37.7471 21.44 37.8107 21.2506 37.86 21.1355C37.912 21.0186 37.9516 20.9604 37.9463 20.9551Z" fill="#BF9892"/>
<path d="M28.0835 5.13287C28.0826 5.13242 28.08 5.14531 28.0755 5.17109C28.0715 5.19642 28.0644 5.23464 28.0613 5.28576C28.0529 5.38753 28.0524 5.54176 28.0902 5.73509C28.1297 5.92664 28.208 6.15687 28.3493 6.3862C28.4889 6.61731 28.6955 6.83731 28.9511 7.02887C29.2062 7.22264 29.5106 7.38398 29.8386 7.55464C30.1649 7.72753 30.5217 7.91242 30.8435 8.21287C31.1653 8.5142 31.4271 8.93864 31.6893 9.38976C31.9533 9.83731 32.2329 10.3289 32.6475 10.6875L32.6329 10.6404C32.6062 10.7715 32.5791 10.9089 32.5529 11.0502C32.5404 11.1213 32.5275 11.1929 32.5146 11.2653L32.4977 11.376C32.4933 11.4151 32.4866 11.4471 32.4875 11.4982L32.4889 11.5778L32.5457 11.5324C32.7529 11.3675 32.9764 11.1893 33.2035 11.0089L33.1693 11.0138C33.5297 11.168 33.94 11.2138 34.3306 11.0858C34.7213 10.9595 35.0746 10.6426 35.2969 10.2151C35.4986 9.83331 35.5893 9.35998 35.5133 8.92131C35.4417 8.48176 35.2475 8.10264 35.0395 7.76664C34.6164 7.09776 34.1475 6.51242 33.6609 6.01198C33.1755 5.5102 32.6729 5.09376 32.1795 4.75464C31.9333 4.58442 31.6893 4.43376 31.4475 4.30442C31.2026 4.1822 30.9591 4.09687 30.7244 4.02842C30.2546 3.89553 29.8164 3.83642 29.4315 3.86798C29.0444 3.90531 28.7315 4.08664 28.5195 4.28931C28.3049 4.49376 28.1933 4.72176 28.1391 4.87998C28.1142 4.96131 28.0977 5.02353 28.0915 5.06753C28.0857 5.1102 28.0822 5.13242 28.0835 5.13287C28.0849 5.13331 28.0906 5.11153 28.1009 5.06976C28.1093 5.02709 28.1284 4.9662 28.1551 4.88753C28.2133 4.7342 28.3266 4.51464 28.54 4.31864C28.7506 4.12442 29.0586 3.95242 29.4364 3.92131C29.8142 3.89509 30.2484 3.9582 30.7129 4.0942C30.9444 4.16398 31.1857 4.25064 31.4253 4.37242C31.6622 4.50131 31.9049 4.65331 32.1484 4.82353C32.6369 5.16309 33.1342 5.57909 33.6146 6.07864C34.096 6.57642 34.5609 7.15953 34.9786 7.8222C35.1831 8.15331 35.3697 8.5222 35.4369 8.93864C35.5084 9.35242 35.4231 9.79776 35.2311 10.1626C35.0195 10.5706 34.6822 10.8724 34.3111 10.9929C33.9382 11.1155 33.544 11.0729 33.196 10.9249L33.1777 10.9173L33.1617 10.9302C32.9351 11.1115 32.7115 11.2902 32.5049 11.4555L32.5631 11.4898C32.5626 11.4662 32.5675 11.4244 32.5724 11.3906L32.5889 11.2831C32.6013 11.2115 32.6137 11.1404 32.6262 11.0698C32.652 10.9293 32.6786 10.7924 32.7049 10.6613L32.7106 10.6315L32.6897 10.6138C32.2889 10.2698 32.0102 9.78798 31.7449 9.34087C31.4809 8.89109 31.2133 8.46042 30.8809 8.15287C30.5489 7.84709 30.1871 7.66442 29.8591 7.4942C29.5297 7.32664 29.2271 7.16976 28.9737 6.9822C28.7204 6.79642 28.5155 6.58442 28.3764 6.36042C28.2351 6.1382 28.1551 5.91464 28.1124 5.72753C28.072 5.53909 28.068 5.38753 28.0724 5.28664C28.0777 5.18576 28.0871 5.13376 28.0835 5.13287Z" fill="#BF9892"/>
<path d="M32.9232 8.53375C32.9072 8.74664 33.0365 8.93464 33.2121 8.9542C33.3877 8.97331 33.5423 8.81642 33.5583 8.60398C33.5743 8.39109 33.445 8.20309 33.2694 8.18353C33.0939 8.16398 32.9392 8.32086 32.9232 8.53375Z" fill="#BF9892"/>
<path d="M31.888 7.33065C32.064 7.33065 32.2067 7.15753 32.2067 6.94398C32.2067 6.73043 32.064 6.55731 31.888 6.55731C31.712 6.55731 31.5693 6.73043 31.5693 6.94398C31.5693 7.15753 31.712 7.33065 31.888 7.33065Z" fill="#BF9892"/>
<path d="M29.7299 5.70928C29.7139 5.92217 29.8432 6.11017 30.0187 6.12973C30.1943 6.14884 30.3494 5.99239 30.365 5.7795C30.381 5.56661 30.2516 5.37861 30.0761 5.35906C29.901 5.33995 29.7459 5.49684 29.7299 5.70928Z" fill="#BF9892"/>
<path d="M34.3108 20.4182C34.3108 20.4173 34.3046 20.4124 34.2921 20.4035C34.2797 20.3951 34.2615 20.3822 34.237 20.3671C34.1864 20.3377 34.1104 20.2951 34.0046 20.2582C33.8992 20.2217 33.765 20.1893 33.6046 20.1857C33.4446 20.1835 33.2575 20.2093 33.061 20.2968L32.9619 20.3413L33.0681 20.3386C33.205 20.3351 33.3557 20.3591 33.4988 20.4373C33.6415 20.5137 33.7744 20.6542 33.8464 20.8479L33.8481 20.8213C33.7686 20.9635 33.7388 21.1568 33.7815 21.3373C33.8224 21.5177 33.9308 21.6786 34.0752 21.7719C34.2166 21.8697 34.3868 21.9115 34.557 21.9071C34.7281 21.9031 34.9001 21.8573 35.0708 21.7986C35.7512 21.5608 36.4828 21.1724 37.1566 20.5493C37.3241 20.3928 37.4877 20.2235 37.6459 20.0395C37.8024 19.8542 37.9521 19.6542 38.0926 19.4404C38.3717 19.0106 38.6121 18.5222 38.789 17.9862C38.9641 17.4506 39.0819 16.8679 39.1024 16.2648C39.1126 15.9635 39.1032 15.6595 39.0752 15.3555C39.0477 15.0515 39.0046 14.7466 38.9401 14.4453C38.8352 13.9515 38.6824 13.4759 38.4619 13.0519C38.2361 12.6306 37.9081 12.2999 37.5384 12.1119C37.1695 11.9239 36.7597 11.8626 36.3806 11.9711C36.1926 12.0253 36.0108 12.1293 35.8695 12.2888C35.7984 12.3675 35.7379 12.4599 35.6912 12.5613C35.6677 12.6119 35.6486 12.6648 35.6335 12.7195C35.6157 12.7728 35.6055 12.8293 35.5961 12.8853C35.5615 13.1115 35.5961 13.3431 35.661 13.5453C35.7259 13.7497 35.8144 13.9351 35.9041 14.1124C35.9935 14.2906 36.0868 14.4608 36.1624 14.6377C36.2384 14.8142 36.3055 14.9937 36.3566 15.1768C36.5695 15.9066 36.5939 16.6515 36.4952 17.2968C36.3992 17.9462 36.1717 18.4919 35.9201 18.9151C35.7939 19.1279 35.6584 19.3093 35.5259 19.4657C35.3935 19.6226 35.2619 19.7528 35.1379 19.8595C34.8908 20.0759 34.6748 20.1995 34.5312 20.2835C34.4597 20.3257 34.405 20.3582 34.3672 20.3808C34.3299 20.4044 34.3108 20.4168 34.3108 20.4182C34.3108 20.4199 34.3299 20.4106 34.3677 20.3915C34.4068 20.3711 34.4628 20.3413 34.5361 20.3026C34.6846 20.2231 34.9028 20.1048 35.1552 19.8906C35.2819 19.7853 35.4161 19.6559 35.5517 19.4995C35.6872 19.3435 35.8259 19.1617 35.9557 18.9475C36.2139 18.5217 36.4486 17.9702 36.5499 17.3102C36.6539 16.6546 36.633 15.8968 36.4184 15.1511C36.3668 14.9644 36.2988 14.7808 36.2219 14.5999C36.145 14.4182 36.0517 14.2462 35.9637 14.0688C35.8748 13.8924 35.789 13.7106 35.7277 13.5151C35.6659 13.3213 35.6357 13.1079 35.6677 12.9017C35.6766 12.8506 35.6855 12.7991 35.7024 12.7502C35.7161 12.6999 35.7335 12.6515 35.7552 12.6053C35.7984 12.5128 35.8535 12.4284 35.9192 12.3555C36.0504 12.2084 36.2184 12.1119 36.3979 12.0604C36.7575 11.9582 37.1539 12.0173 37.5077 12.1986C37.8632 12.3799 38.1788 12.6986 38.3957 13.1039C38.609 13.5151 38.7601 13.9835 38.8632 14.4688C38.9268 14.7653 38.969 15.0657 38.9966 15.3653C39.0246 15.6648 39.0335 15.9653 39.0237 16.2599C39.0041 16.8515 38.889 17.4235 38.7175 17.9511C38.5446 18.4786 38.3086 18.9604 38.0344 19.3844C37.8961 19.5955 37.749 19.7928 37.5952 19.9764C37.4401 20.1582 37.2788 20.3262 37.1139 20.4813C36.4504 21.0995 35.7272 21.4884 35.0544 21.7284C34.8859 21.7875 34.7192 21.8328 34.5557 21.8377C34.393 21.8431 34.2335 21.8048 34.1001 21.7146C33.9664 21.6302 33.8668 21.4831 33.8286 21.3199C33.7895 21.1564 33.8144 20.9822 33.8864 20.8506L33.8935 20.8382L33.8881 20.8244C33.8095 20.6168 33.6659 20.4697 33.5157 20.3915C33.3646 20.3111 33.2081 20.2893 33.0672 20.2951L33.0739 20.3368C33.2646 20.2484 33.4477 20.2195 33.605 20.2186C33.7628 20.2186 33.8957 20.2471 34.0006 20.2795C34.1055 20.3128 34.1824 20.3515 34.2339 20.3773C34.2588 20.3911 34.2784 20.4017 34.2921 20.4093C34.3041 20.4164 34.3108 20.4195 34.3108 20.4182Z" fill="#BF9892"/>
<path d="M15.556 6.23066C15.556 6.23066 15.3823 6.46267 15.1583 6.95644C15.0503 7.20489 14.9294 7.51778 14.8267 7.89822C14.7245 8.27778 14.6387 8.72533 14.6085 9.22889C14.6031 9.29155 14.6014 9.35555 14.6009 9.42C14.6 9.48444 14.5983 9.54978 14.5987 9.616C14.6045 9.748 14.6058 9.88355 14.6227 10.0204C14.6489 10.2942 14.7045 10.5791 14.8005 10.8529C14.8934 11.1284 15.0174 11.4009 15.1805 11.6511C15.2636 11.7747 15.356 11.892 15.46 11.9987C15.5649 12.1036 15.6818 12.1942 15.8089 12.2662C15.9356 12.3404 16.0743 12.3836 16.2169 12.4089C16.36 12.4302 16.5151 12.4102 16.6511 12.3316C16.7889 12.256 16.904 12.1196 16.9796 11.9596C17.0569 11.7996 17.0978 11.6191 17.1223 11.4382C17.1734 11.0742 17.1494 10.7027 17.1569 10.3338C17.1636 9.964 17.1867 9.58755 17.2649 9.22266C17.3423 8.85911 17.4769 8.51511 17.6827 8.24933C17.8871 7.98089 18.144 7.78622 18.4005 7.60889C18.6578 7.43066 18.9183 7.26933 19.16 7.07511C19.4 6.88089 19.6138 6.62844 19.7303 6.312C19.8338 5.98178 19.7787 5.61689 19.6409 5.344C19.5094 5.06355 19.3143 4.84311 19.0983 4.696C18.8805 4.55067 18.644 4.47244 18.4143 4.45911C18.1863 4.44933 17.9676 4.46666 17.7618 4.50889C17.3511 4.59822 16.9965 4.77066 16.7107 4.97111C16.4236 5.16933 16.2005 5.38666 16.0307 5.57778C15.944 5.67111 15.8756 5.76489 15.8129 5.84178C15.7547 5.924 15.7045 5.992 15.6663 6.04978C15.6298 6.10755 15.6023 6.152 15.5823 6.18355C15.564 6.21378 15.5547 6.22978 15.556 6.23066C15.5569 6.23155 15.568 6.21778 15.5889 6.18933C15.6103 6.15911 15.64 6.11689 15.6787 6.06178C15.7187 6.00622 15.7707 5.94044 15.8303 5.86089C15.8943 5.78666 15.964 5.69555 16.0516 5.60489C16.2231 5.41955 16.4467 5.20889 16.7325 5.01733C17.0165 4.824 17.3671 4.65911 17.7711 4.57511C17.9734 4.536 18.1885 4.52133 18.4107 4.53244C18.6311 4.54711 18.8583 4.62444 19.0658 4.76444C19.272 4.90711 19.4565 5.11778 19.5805 5.38489C19.6116 5.45111 19.6378 5.52178 19.6618 5.59333C19.6836 5.66444 19.6978 5.73955 19.7054 5.81689C19.7191 5.97022 19.7111 6.13422 19.6631 6.27733C19.6094 6.42133 19.5303 6.55822 19.4378 6.67778C19.3449 6.79911 19.2347 6.90266 19.1183 6.99866C18.8827 7.18755 18.6218 7.34844 18.3627 7.52667C18.1045 7.70489 17.8396 7.90311 17.6254 8.184C17.4089 8.46311 17.268 8.82355 17.1889 9.19822C17.1085 9.57466 17.0854 9.95778 17.0787 10.3316C17.0716 10.7062 17.0951 11.0729 17.0463 11.4227C17.0231 11.5964 16.984 11.7667 16.9138 11.9129C16.8449 12.0591 16.7436 12.1791 16.62 12.248C16.3711 12.3929 16.0787 12.3133 15.84 12.1853C15.7196 12.1178 15.6071 12.032 15.5063 11.9316C15.4063 11.8298 15.3165 11.7173 15.2356 11.5978C15.0769 11.356 14.9543 11.0911 14.8618 10.8218C14.7663 10.5538 14.7116 10.2791 14.684 10.0107C14.6663 9.87689 14.6645 9.74355 14.6578 9.61422C14.6569 9.54933 14.6587 9.48489 14.6587 9.42133C14.6587 9.35778 14.66 9.29466 14.6649 9.23289C14.6911 8.736 14.772 8.292 14.8694 7.91422C14.9671 7.53555 15.0827 7.22311 15.1858 6.97333C15.2925 6.72578 15.3867 6.54089 15.4543 6.41866C15.4876 6.35866 15.5134 6.31244 15.5316 6.27955C15.5489 6.24844 15.5569 6.23155 15.556 6.23066Z" fill="#BF9892"/>
</g>
<path d="M39.1897 35.0396C39.1844 34.8569 39.0755 34.6956 38.9252 34.5947C36.5741 33.0187 34.8021 29.5253 34.6235 26.5685C34.6186 26.4 34.6137 26.2293 34.6079 26.0569C34.6079 26.056 34.6079 26.0556 34.6079 26.0547C34.4612 21.6085 33.847 16.4902 33.3052 15.3316C32.1532 12.8658 28.8337 12.5698 28.8337 12.5698C24.2506 12.2378 23.4319 15.8045 22.9692 19.0533C22.6817 21.0738 21.5732 28.2907 21.5732 28.2907L22.4155 28.6209C23.4079 31.5996 25.6426 34.0085 28.5475 35.116C29.3924 35.4382 30.1079 35.5676 30.4435 35.2902C31.7777 36.66 33.4479 37.6956 35.2666 38.2556C36.007 38.4836 36.7826 38.636 37.5528 38.5631C38.0528 38.5156 38.5804 38.3485 38.8786 37.9387C39.1355 37.5858 39.171 37.0813 38.9657 36.6956C38.7604 36.3098 38.3252 36.0618 37.8928 36.0849C38.0666 35.5142 39.2092 35.6822 39.1897 35.0396Z" fill="#423A33"/>
<path d="M29.4444 13.8823L29.1577 13.6054L26.0591 14.8703C25.6106 14.8956 25.256 15.2636 25.2422 15.7183L25.2693 25.9436C25.2653 26.6369 25.4026 27.2374 25.816 27.7903L26.2511 28.372C27.2435 29.6987 29.2844 29.5898 30.0702 28.1276C30.1253 28.0254 30.1631 27.936 30.1795 27.8632C30.196 27.772 30.2209 27.712 30.2257 27.6347C30.3182 26.812 30.3231 26.0987 30.3231 26.0987C30.3782 25.1956 30.3964 24.8249 30.3969 24.8334C30.3969 24.8334 32.2946 24.6125 32.808 22.1449C33.0631 20.9178 33.0151 19.2298 32.9431 17.568C32.844 15.2689 31.2693 13.88 29.4444 13.8823Z" fill="#FAD6C8"/>
<g opacity="0.47">
<path d="M24.9521 17.824C27.0375 17.468 29.2321 17.7773 31.3819 17.7302C31.7424 17.7222 32.1393 17.6929 32.3846 17.5147C32.629 17.3369 32.6446 17.0671 32.6099 16.8253C32.4344 15.6013 31.2388 14.1569 29.2095 13.8729" fill="#D6AA9C"/>
</g>
<path d="M20.8088 40.0361L9.62261 40.0295C8.27728 40.0286 7.18706 38.9432 7.1875 37.605L7.19283 9.70725C7.19328 8.36814 8.28483 7.2828 9.63106 7.28369L20.8173 7.29036C22.1626 7.29125 23.2528 8.37658 23.1599 9.7148L23.1546 37.6126C23.2466 38.9517 22.1551 40.037 20.8088 40.0361Z" fill="#DEBAB7"/>
<path d="M20.8251 8.08848L18.6562 8.08715C18.3656 8.08715 18.1296 8.33648 18.1296 8.64448V9.04315C18.1296 9.35115 17.8936 9.60048 17.6029 9.60048L13.3754 9.59782C13.0847 9.59782 12.8487 9.34804 12.8487 9.04004V8.64137C12.8487 8.33337 12.6131 8.0836 12.322 8.0836L11.5594 8.08315L9.66113 8.08182C8.71846 8.08137 7.95402 8.85515 7.95358 9.80982L7.94824 37.5338C7.94824 38.488 8.71135 39.2623 9.65358 39.2627L20.8176 39.2694C21.7602 39.2698 22.5247 38.496 22.5251 37.5414L22.5305 9.81737C22.5309 8.86315 21.7674 8.08893 20.8251 8.08848Z" fill="#ECCECC"/>
<path d="M21.4607 11.2795C21.4607 11.2875 21.1598 11.2964 20.7887 11.2995C20.4171 11.3027 20.1162 11.2987 20.1162 11.2907C20.1162 11.2827 20.4171 11.2738 20.7882 11.2707C21.1598 11.268 21.4607 11.2715 21.4607 11.2795Z" fill="white"/>
<path d="M21.4646 11.628C21.4646 11.636 21.1637 11.6449 20.7926 11.648C20.421 11.6511 20.1201 11.6471 20.1201 11.6391C20.1201 11.6311 20.421 11.6222 20.7921 11.6191C21.1632 11.6164 21.4646 11.62 21.4646 11.628Z" fill="white"/>
<path d="M21.4675 11.9765C21.4675 11.9845 21.1666 11.9934 20.7955 11.9965C20.4239 11.9996 20.123 11.9956 20.123 11.9876C20.123 11.9796 20.4239 11.9707 20.795 11.9676C21.1666 11.9649 21.4675 11.9685 21.4675 11.9765Z" fill="white"/>
<path d="M9.23492 12.3858C9.23537 12.3853 9.24515 12.3844 9.26293 12.384C9.28515 12.3831 9.31048 12.3822 9.3407 12.3813C9.41404 12.3796 9.51004 12.3773 9.62781 12.3742L9.61981 12.3822C9.61893 12.3178 9.61759 12.2476 9.61626 12.1716C9.6167 12.1324 9.61315 12.0956 9.6167 12.0502C9.62426 12.0049 9.66426 11.9653 9.71315 11.9604C9.75937 11.9596 9.80026 11.9573 9.85048 11.9596C9.90204 11.9658 9.94604 12.0164 9.9447 12.072C9.94559 12.1702 9.94693 12.2729 9.94826 12.3796L9.93493 12.3662C10.0514 12.3649 10.1723 12.364 10.2971 12.3627L10.2834 12.3769C10.282 12.2293 10.2807 12.0764 10.2794 11.92C10.2789 11.8809 10.2789 11.8422 10.2785 11.8036C10.2785 11.7676 10.2567 11.7436 10.2274 11.7169C10.1736 11.6636 10.1211 11.6107 10.0691 11.5587C10.0171 11.5067 9.96648 11.456 9.91626 11.4062C9.89137 11.3813 9.86648 11.3564 9.84204 11.332C9.8167 11.3071 9.7967 11.2813 9.76693 11.2756C9.73848 11.2676 9.70693 11.2738 9.68381 11.2916C9.66204 11.3102 9.63848 11.3369 9.61626 11.3587C9.57181 11.4044 9.52826 11.4484 9.48648 11.4916C9.4047 11.5773 9.31937 11.656 9.25759 11.7302C9.23137 11.7711 9.24115 11.8213 9.23937 11.8671C9.23937 11.9124 9.23937 11.9556 9.23893 11.9964C9.23848 12.0756 9.23804 12.1453 9.23759 12.2044C9.23715 12.2578 9.2367 12.3018 9.23626 12.3378C9.23581 12.3684 9.23537 12.3849 9.23492 12.3858C9.23404 12.3867 9.23359 12.3711 9.23226 12.3418C9.23137 12.3062 9.23004 12.2631 9.2287 12.2107C9.22737 12.1507 9.22559 12.0809 9.22381 12.0009C9.22292 11.9596 9.22204 11.9156 9.22159 11.8693C9.22115 11.8458 9.2207 11.8218 9.2207 11.7973C9.2207 11.7711 9.22693 11.7444 9.2407 11.7204C9.30781 11.6373 9.38781 11.5636 9.47004 11.4751C9.51181 11.432 9.55493 11.3871 9.59893 11.3413C9.62204 11.3182 9.64115 11.2951 9.6687 11.2711C9.69759 11.2484 9.73759 11.2404 9.77359 11.2502C9.81226 11.2587 9.83715 11.2907 9.8607 11.3133C9.88515 11.3378 9.91004 11.3622 9.93493 11.3871C9.98515 11.4369 10.0363 11.4876 10.0883 11.5391C10.1403 11.5907 10.1931 11.6436 10.2469 11.6969C10.2598 11.7107 10.2749 11.7222 10.2874 11.7413C10.2989 11.7596 10.3056 11.7813 10.3065 11.8031C10.3069 11.8418 10.3074 11.8809 10.3074 11.92C10.3087 12.0764 10.3096 12.2293 10.3109 12.3769V12.3911H10.2971C10.1723 12.392 10.0514 12.3929 9.93493 12.3933H9.92159V12.38C9.92115 12.2733 9.9207 12.1707 9.91981 12.0724C9.92115 12.028 9.88737 11.9889 9.84648 11.9836C9.8047 11.9813 9.75581 11.9827 9.71493 11.9831C9.67581 11.9862 9.64337 12.0182 9.6367 12.0542C9.63315 12.0911 9.63581 12.1342 9.63493 12.1716C9.63493 12.2476 9.63493 12.3178 9.63493 12.3822V12.3907H9.62693C9.50737 12.3898 9.40959 12.3893 9.33492 12.3884C9.30559 12.388 9.28026 12.3876 9.25893 12.3871C9.24293 12.3867 9.23404 12.3862 9.23492 12.3858Z" fill="white"/>
<path d="M15.915 35.3368C17.0633 35.3368 17.9942 34.394 17.9942 33.231C17.9942 32.068 17.0633 31.1252 15.915 31.1252C14.7668 31.1252 13.8359 32.068 13.8359 33.231C13.8359 34.394 14.7668 35.3368 15.915 35.3368Z" fill="white"/>
<path d="M14.6384 33.7159L15.1575 33.5923C15.2215 33.5772 15.2669 33.519 15.2669 33.4523V33.3439C15.2669 33.3439 15.2447 33.1599 15.4162 33.1483C15.5393 33.1399 16.3202 33.1483 16.3202 33.1483C16.3202 33.1483 16.5255 33.1443 16.522 33.3083V33.4657C16.522 33.5199 16.5571 33.5679 16.6082 33.5835L17.1713 33.7559C17.2313 33.7741 17.2949 33.7435 17.3189 33.6852L17.3909 33.5092C17.4042 33.4768 17.4104 33.4426 17.4087 33.4075C17.4051 33.3386 17.3789 33.231 17.3118 33.1439C17.2002 32.999 16.674 32.6563 15.67 32.7057C14.714 32.7528 14.5055 33.1608 14.4509 33.2581C14.4167 33.3186 14.4064 33.467 14.4331 33.5301C14.4429 33.5532 14.4589 33.5923 14.4749 33.6306C14.5015 33.6959 14.5709 33.7319 14.6384 33.7159Z" fill="#ECCECC"/>
<g opacity="0.2">
<path d="M15.9146 27.9427C16.7099 27.9427 17.3546 27.2897 17.3546 26.4841C17.3546 25.6785 16.7099 25.0254 15.9146 25.0254C15.1193 25.0254 14.4746 25.6785 14.4746 26.4841C14.4746 27.2897 15.1193 27.9427 15.9146 27.9427Z" fill="#A88886"/>
</g>
<path d="M15.5211 26.6556C15.6136 26.6556 15.6886 26.5796 15.6886 26.4858C15.6886 26.3921 15.6136 26.316 15.5211 26.316C15.4285 26.316 15.3535 26.3921 15.3535 26.4858C15.3535 26.5796 15.4285 26.6556 15.5211 26.6556Z" fill="white"/>
<path d="M16.0822 26.4858C16.0822 26.5796 16.0071 26.6556 15.9146 26.6556C15.8222 26.6556 15.7471 26.5796 15.7471 26.4858C15.7471 26.392 15.8222 26.316 15.9146 26.316C16.0071 26.316 16.0822 26.392 16.0822 26.4858Z" fill="white"/>
<path d="M16.4757 26.4858C16.4757 26.5796 16.4006 26.6556 16.3082 26.6556C16.2157 26.6556 16.1406 26.5796 16.1406 26.4858C16.1406 26.392 16.2157 26.316 16.3082 26.316C16.4006 26.316 16.4757 26.392 16.4757 26.4858Z" fill="white"/>
<path d="M15.6886 26.0809C15.6886 26.1747 15.6135 26.2507 15.5211 26.2507C15.4286 26.2507 15.3535 26.1747 15.3535 26.0809C15.3535 25.9871 15.4286 25.9111 15.5211 25.9111C15.6135 25.9111 15.6886 25.9871 15.6886 26.0809Z" fill="white"/>
<path d="M16.0822 26.0809C16.0822 26.1747 16.0071 26.2507 15.9146 26.2507C15.8222 26.2507 15.7471 26.1747 15.7471 26.0809C15.7471 25.9871 15.8222 25.9111 15.9146 25.9111C16.0071 25.9111 16.0822 25.9871 16.0822 26.0809Z" fill="white"/>
<path d="M16.4757 26.081C16.4757 26.1748 16.4006 26.2508 16.3082 26.2508C16.2157 26.2508 16.1406 26.1748 16.1406 26.081C16.1406 25.9872 16.2157 25.9112 16.3082 25.9112C16.4006 25.9112 16.4757 25.9872 16.4757 26.081Z" fill="white"/>
<path d="M15.6886 26.8867C15.6886 26.9804 15.6135 27.0564 15.5211 27.0564C15.4286 27.0564 15.3535 26.9804 15.3535 26.8867C15.3535 26.7929 15.4286 26.7169 15.5211 26.7169C15.6135 26.7169 15.6886 26.7929 15.6886 26.8867Z" fill="white"/>
<path d="M16.0822 26.8867C16.0822 26.9805 16.0071 27.0565 15.9146 27.0565C15.8222 27.0565 15.7471 26.9805 15.7471 26.8867C15.7471 26.7929 15.8222 26.7169 15.9146 26.7169C16.0071 26.7169 16.0822 26.7929 16.0822 26.8867Z" fill="white"/>
<path d="M16.4757 26.8866C16.4757 26.9804 16.4006 27.0564 16.3082 27.0564C16.2157 27.0564 16.1406 26.9804 16.1406 26.8866C16.1406 26.7929 16.2157 26.7169 16.3082 26.7169C16.4006 26.7169 16.4757 26.7929 16.4757 26.8866Z" fill="white"/>
<g opacity="0.2">
<path d="M11.7808 27.9427C12.5761 27.9427 13.2208 27.2897 13.2208 26.4841C13.2208 25.6785 12.5761 25.0254 11.7808 25.0254C10.9855 25.0254 10.3408 25.6785 10.3408 26.4841C10.3408 27.2897 10.9855 27.9427 11.7808 27.9427Z" fill="#A88886"/>
</g>
<path d="M11.1035 26.2934V26.6387C11.1035 26.6534 11.1151 26.6654 11.1297 26.6654H11.3177C11.3235 26.6654 11.3293 26.6672 11.3337 26.6712L11.6271 26.9036C11.6444 26.9174 11.6693 26.9049 11.6693 26.8827V26.0756C11.6693 26.0538 11.6453 26.0414 11.628 26.0538L11.344 26.2605C11.3395 26.2636 11.3342 26.2654 11.3288 26.2654L11.1297 26.2667C11.1155 26.2667 11.1035 26.2787 11.1035 26.2934Z" fill="white"/>
<path d="M12.2139 27.0671C12.2059 27.0671 12.1984 27.0645 12.1917 27.0587C12.1779 27.0462 12.177 27.0253 12.189 27.0116C12.353 26.8262 12.4308 26.6347 12.4202 26.4422C12.4042 26.1542 12.1939 25.9609 12.1917 25.9591C12.1779 25.9467 12.177 25.9258 12.189 25.912C12.201 25.8982 12.2219 25.8969 12.2357 25.9093C12.245 25.9178 12.4686 26.1231 12.4864 26.4387C12.4979 26.6493 12.4148 26.8573 12.2384 27.0565C12.2322 27.0631 12.2233 27.0671 12.2139 27.0671Z" fill="white"/>
<path d="M12.033 26.904C12.0241 26.904 12.0152 26.9004 12.009 26.8933C11.9966 26.88 11.9975 26.8586 12.0103 26.8462C12.1268 26.7355 12.1859 26.6155 12.1859 26.4884C12.1863 26.2706 12.0121 26.1022 12.0103 26.1004C11.997 26.088 11.9966 26.0666 12.009 26.0533C12.0215 26.04 12.0423 26.0391 12.0557 26.052C12.0637 26.0595 12.2521 26.2413 12.2521 26.4884C12.2521 26.6346 12.1859 26.7715 12.0557 26.8955C12.0495 26.9009 12.0415 26.904 12.033 26.904Z" fill="white"/>
<path d="M11.8711 26.7355C11.8626 26.7355 11.8542 26.7324 11.8475 26.7257C11.8346 26.7124 11.8346 26.6915 11.8479 26.6786C12.0506 26.4751 11.8546 26.2449 11.8466 26.2351C11.8346 26.2213 11.8359 26.2 11.8497 26.188C11.8635 26.1755 11.8844 26.1769 11.8964 26.1906C11.8991 26.1933 12.1422 26.4777 11.8951 26.7257C11.8879 26.7324 11.8795 26.7355 11.8711 26.7355Z" fill="white"/>
<g opacity="0.2">
<path d="M19.6949 27.9427C20.4902 27.9427 21.1349 27.2897 21.1349 26.4841C21.1349 25.6785 20.4902 25.0254 19.6949 25.0254C18.8996 25.0254 18.2549 25.6785 18.2549 26.4841C18.2549 27.2897 18.8996 27.9427 19.6949 27.9427Z" fill="#A88886"/>
</g>
<path d="M19.7032 26.9885C19.6787 26.9885 19.6592 26.9685 19.6592 26.9441V26.0241C19.6592 25.9996 19.6787 25.9796 19.7032 25.9796C19.7276 25.9796 19.7472 25.9996 19.7472 26.0241V26.9441C19.7472 26.9685 19.7276 26.9885 19.7032 26.9885Z" fill="white"/>
<path d="M20.1358 26.5285H19.2549C19.2305 26.5285 19.2109 26.5085 19.2109 26.4841C19.2109 26.4596 19.2305 26.4396 19.2549 26.4396H20.1358C20.1603 26.4396 20.1798 26.4596 20.1798 26.4841C20.1798 26.5085 20.1603 26.5285 20.1358 26.5285Z" fill="white"/>
<path d="M19.9244 15.6289C20.3182 16.0591 20.5151 16.6777 20.5151 17.4853C20.5151 18.0573 20.4093 18.5475 20.1982 18.956C19.9871 19.3644 19.6893 19.6746 19.3048 19.8857C18.9204 20.0973 18.4768 20.2031 17.9737 20.2031C17.7079 20.2031 17.4542 20.1729 17.2119 20.1129C16.9697 20.0529 16.7635 19.9675 16.5928 19.8569L17.0199 18.9991C17.2622 19.1675 17.5728 19.2515 17.9524 19.2515C18.3746 19.2515 18.7093 19.1253 18.9559 18.8729C19.2026 18.6204 19.3355 18.2564 19.3546 17.7804C19.0555 18.0831 18.6426 18.2346 18.1159 18.2346C17.7982 18.2346 17.5084 18.1697 17.2475 18.04C16.9866 17.9102 16.7799 17.7262 16.6284 17.4884C16.4764 17.2506 16.4004 16.9755 16.4004 16.6631C16.4004 16.3266 16.4835 16.0311 16.6497 15.7764C16.8159 15.5217 17.0422 15.3257 17.3297 15.1889C17.6168 15.052 17.9359 14.9835 18.2871 14.9835C18.9848 14.9835 19.5306 15.1986 19.9244 15.6289ZM18.9884 17.1497C19.1475 17.008 19.2271 16.8266 19.2271 16.6053C19.2271 16.3844 19.1497 16.204 18.9955 16.0644C18.8413 15.9249 18.6288 15.8555 18.3586 15.8555C18.1119 15.8555 17.9115 15.9231 17.7573 16.0573C17.6031 16.192 17.5257 16.3746 17.5257 16.6053C17.5257 16.836 17.6026 17.02 17.7573 17.1569C17.9115 17.2937 18.1168 17.3622 18.3728 17.3622C18.6244 17.3626 18.8297 17.2915 18.9884 17.1497Z" fill="white"/>
<path d="M13.0092 15.1511V20.1978H11.8558V16.0884H10.8594V15.1511H13.0092Z" fill="white"/>
<path d="M15.7992 15.1511V20.1978H14.6459V16.0884H13.6494V15.1511H15.7992Z" fill="white"/>
<path d="M10.9693 23.1716V23.3418H10.3516V22.5623H10.9551V22.7325H10.5671V22.864H10.9089V23.0289H10.5671V23.1716H10.9693Z" fill="white"/>
<path d="M11.785 23.3418L11.7827 22.9285L11.585 23.2649H11.4881L11.2912 22.9396V23.3414H11.0898V22.5618H11.269L11.5396 23.0116L11.8036 22.5618H11.9827L11.985 23.3414H11.785V23.3418Z" fill="white"/>
<path d="M12.7574 23.1716V23.3418H12.1396V22.5623H12.7432V22.7325H12.3552V22.864H12.697V23.0289H12.3552V23.1716H12.7574Z" fill="white"/>
<path d="M13.2144 23.1347H13.0957V23.3418H12.8779V22.5623H13.2299C13.2997 22.5623 13.3602 22.5738 13.4113 22.5974C13.4624 22.6209 13.5019 22.6543 13.5299 22.6974C13.5579 22.7409 13.5717 22.792 13.5717 22.8503C13.5717 22.9067 13.5588 22.956 13.5326 22.9978C13.5064 23.0396 13.4695 23.0725 13.421 23.0965L13.5873 23.3414H13.3544L13.2144 23.1347ZM13.3175 22.7663C13.2948 22.7463 13.261 22.736 13.2162 22.736H13.0953V22.9645H13.2162C13.261 22.9645 13.2948 22.9547 13.3175 22.9351C13.3402 22.9156 13.3517 22.8876 13.3517 22.8511C13.3517 22.8143 13.3402 22.7863 13.3175 22.7663Z" fill="white"/>
<path d="M14.2075 22.9351H14.3999V23.2582C14.3559 23.2902 14.3052 23.3147 14.2483 23.3316C14.191 23.3485 14.1341 23.3574 14.0768 23.3574C13.9963 23.3574 13.9235 23.34 13.859 23.3054C13.7946 23.2707 13.7439 23.2227 13.7075 23.1614C13.6706 23.0996 13.6523 23.0298 13.6523 22.952C13.6523 22.8742 13.6706 22.8045 13.7075 22.7427C13.7439 22.6809 13.795 22.6329 13.8603 22.5987C13.9257 22.564 13.9995 22.5467 14.0812 22.5467C14.1532 22.5467 14.2177 22.5591 14.2746 22.5836C14.3319 22.608 14.3795 22.6431 14.4177 22.6894L14.279 22.8165C14.227 22.7587 14.1648 22.7298 14.0923 22.7298C14.0261 22.7298 13.9732 22.7502 13.9328 22.7907C13.8923 22.8311 13.8723 22.8854 13.8723 22.9525C13.8723 22.9956 13.8817 23.0338 13.8999 23.0676C13.9181 23.1014 13.9439 23.1276 13.9768 23.1467C14.0097 23.1658 14.0475 23.1751 14.0901 23.1751C14.1319 23.1751 14.171 23.1667 14.2079 23.1494V22.9351H14.2075Z" fill="white"/>
<path d="M15.1559 23.1716V23.3418H14.5381V22.5623H15.1416V22.7325H14.7536V22.864H15.0954V23.0289H14.7536V23.1716H15.1559Z" fill="white"/>
<path d="M16.0093 22.5623V23.3418H15.8302L15.4907 22.9263V23.3418H15.2773V22.5623H15.4565L15.796 22.9778V22.5623H16.0093Z" fill="white"/>
<path d="M16.3293 23.3054C16.2653 23.2707 16.2146 23.2227 16.1782 23.1614C16.1413 23.0996 16.123 23.0298 16.123 22.952C16.123 22.8742 16.1413 22.8045 16.1782 22.7427C16.2146 22.6809 16.2653 22.6329 16.3293 22.5987C16.3933 22.564 16.4657 22.5467 16.5466 22.5467C16.6168 22.5467 16.6804 22.5596 16.7368 22.5845C16.7933 22.6098 16.8399 22.6462 16.8777 22.6938L16.739 22.8209C16.6893 22.76 16.6288 22.7298 16.5577 22.7298C16.5159 22.7298 16.4786 22.7391 16.4462 22.7578C16.4137 22.7765 16.3884 22.8027 16.3702 22.8365C16.3524 22.8702 16.343 22.9089 16.343 22.9529C16.343 22.9969 16.3519 23.0356 16.3702 23.0694C16.3879 23.1031 16.4133 23.1294 16.4462 23.148C16.4786 23.1667 16.5159 23.176 16.5577 23.176C16.6288 23.176 16.6893 23.1458 16.739 23.0849L16.8777 23.212C16.8404 23.2596 16.7933 23.296 16.7368 23.3214C16.6804 23.3467 16.6168 23.3591 16.5466 23.3591C16.4657 23.3574 16.3933 23.34 16.3293 23.3054Z" fill="white"/>
<path d="M17.3836 23.0623V23.3418H17.1658V23.0591L16.8721 22.5623H17.1018L17.2845 22.872L17.4672 22.5623H17.6783L17.3836 23.0623Z" fill="white"/>
<path d="M18.2199 23.3054C18.1559 23.2707 18.1052 23.2227 18.0688 23.1614C18.0319 23.0996 18.0137 23.0298 18.0137 22.952C18.0137 22.8742 18.0319 22.8045 18.0688 22.7427C18.1052 22.6809 18.1559 22.6329 18.2199 22.5987C18.2839 22.564 18.3563 22.5467 18.4372 22.5467C18.5074 22.5467 18.571 22.5596 18.6274 22.5845C18.6839 22.6098 18.7306 22.6462 18.7683 22.6938L18.6297 22.8209C18.5799 22.76 18.5194 22.7298 18.4483 22.7298C18.4066 22.7298 18.3692 22.7391 18.3368 22.7578C18.3043 22.7765 18.279 22.8027 18.2608 22.8365C18.243 22.8702 18.2337 22.9089 18.2337 22.9529C18.2337 22.9969 18.2426 23.0356 18.2608 23.0694C18.2786 23.1031 18.3039 23.1294 18.3368 23.148C18.3692 23.1667 18.4066 23.176 18.4483 23.176C18.5194 23.176 18.5799 23.1458 18.6297 23.0849L18.7683 23.212C18.731 23.2596 18.6839 23.296 18.6274 23.3214C18.571 23.3467 18.5074 23.3591 18.4372 23.3591C18.3563 23.3574 18.2839 23.34 18.2199 23.3054Z" fill="white"/>
<path d="M19.3668 23.1903H19.0415L18.981 23.3418H18.7588L19.0983 22.5623H19.3126L19.6535 23.3418H19.4268L19.3668 23.1903ZM19.3028 23.0276L19.2037 22.7783L19.1046 23.0276H19.3028Z" fill="white"/>
<path d="M19.7158 22.5623H19.9336V23.1671H20.3007V23.3418H19.7158V22.5623Z" fill="white"/>
<path d="M20.3867 22.5623H20.6045V23.1671H20.9716V23.3418H20.3867V22.5623Z" fill="white"/>
<path d="M40.4451 10.6015L38.5064 9.16283L38.2584 11.5344L35.7939 11.7953L37.6868 13.7122L36.2379 15.1108L38.2904 15.2637L38.5286 17.1295L40.1526 15.7402L42.3526 17.1295L42.9673 14.8299L45.3966 14.4846L43.2677 12.9499L44.4157 10.9073L42.5668 11.3357L42.0473 8.82327L40.4451 10.6015Z" fill="white"/>
<path d="M40.4462 10.6016C40.4462 10.6016 40.4817 10.5594 40.5515 10.4807C40.6217 10.4016 40.7253 10.2856 40.86 10.134C41.1311 9.83091 41.5288 9.38558 42.0391 8.81535L42.0551 8.79758L42.06 8.82113C42.204 9.51002 42.3813 10.3594 42.5844 11.3322L42.5644 11.3194C43.1266 11.1882 43.7497 11.0434 44.4128 10.8887L44.4555 10.8789L44.4337 10.9176C44.0795 11.5496 43.6937 12.2371 43.2875 12.9611L43.2813 12.9327C43.9551 13.4176 44.6684 13.9309 45.4111 14.4656L45.4586 14.4998L45.4013 14.5078C44.628 14.618 43.8115 14.7349 42.972 14.8545L42.992 14.8367C42.796 15.5696 42.5888 16.3451 42.3777 17.1362L42.3688 17.1687L42.3404 17.1509C41.7986 16.8087 41.2248 16.4465 40.6435 16.0794C40.4751 15.9731 40.3075 15.8669 40.1404 15.7616L40.1697 15.7594C39.6195 16.23 39.0773 16.6936 38.5457 17.1487L38.5111 17.178L38.5053 17.1327C38.4244 16.4989 38.3453 15.8762 38.2675 15.2669L38.2897 15.2882C37.5871 15.2358 36.9026 15.1842 36.2377 15.1345L36.1853 15.1305L36.2231 15.094C36.7222 14.6127 37.2062 14.146 37.6728 13.6962L37.6724 13.7282C37.0017 13.0478 36.3702 12.4069 35.7813 11.8096L35.752 11.7798L35.7928 11.7754C36.6937 11.6811 37.516 11.5949 38.2573 11.5176L38.2426 11.5327C38.3413 10.6051 38.4253 9.81713 38.4946 9.16158L38.4968 9.14024L38.5137 9.15269C39.1386 9.6198 39.6208 9.98069 39.948 10.2251C40.1106 10.3478 40.2346 10.4407 40.3191 10.5042C40.4035 10.5678 40.4462 10.6016 40.4462 10.6016C40.4462 10.6016 40.404 10.5722 40.32 10.5114C40.2351 10.4491 40.1106 10.358 39.9475 10.2385C39.6173 9.99535 39.1306 9.63713 38.5004 9.17269L38.5195 9.16424C38.4524 9.82024 38.3715 10.6082 38.276 11.5362L38.2746 11.5496L38.2613 11.5509C37.5195 11.6305 36.6982 11.7185 35.7973 11.8154L35.8093 11.7816C36.3991 12.378 37.032 13.0176 37.7035 13.6971L37.7195 13.7131L37.7031 13.7291C37.2368 14.1794 36.7537 14.6469 36.2551 15.1287L36.2408 15.0882C36.9057 15.1376 37.5902 15.1882 38.2933 15.2402L38.3128 15.2416L38.3155 15.2616C38.3937 15.8709 38.4733 16.4936 38.5542 17.1274L38.5137 17.1114C39.0453 16.6562 39.5875 16.1927 40.1377 15.7216L40.1515 15.7096L40.1671 15.7194C40.3342 15.8247 40.5017 15.9309 40.6702 16.0371C41.2515 16.4042 41.8253 16.7669 42.3671 17.1091L42.3302 17.1238C42.5417 16.3331 42.7493 15.5576 42.9457 14.8247L42.9497 14.8091L42.9657 14.8069C43.8048 14.6878 44.6217 14.5722 45.3951 14.4625L45.3848 14.5047C44.6431 13.9691 43.9302 13.4549 43.2568 12.9691L43.2408 12.9576L43.2506 12.9407C43.6582 12.2176 44.0448 11.5305 44.4004 10.8994L44.4213 10.9278C43.7577 11.0807 43.1342 11.2242 42.572 11.3536L42.5551 11.3576L42.5515 11.3407C42.352 10.3669 42.1777 9.51713 42.0364 8.82735L42.0573 8.83313C41.5408 9.40202 41.1382 9.84558 40.8635 10.1478C40.7275 10.2967 40.6235 10.4109 40.5524 10.4887C40.4822 10.5638 40.4462 10.6016 40.4462 10.6016Z" fill="#BF9892"/>
<path d="M40.1333 11.4765L40.0049 13.3565C39.9942 13.5103 39.8724 13.632 39.7204 13.64C39.56 13.6489 39.4213 13.5289 39.4044 13.3671L39.2093 11.476C39.1946 11.3329 39.3071 11.2089 39.4493 11.2116L39.9022 11.2205C40.0373 11.2231 40.1426 11.3396 40.1333 11.4765Z" fill="#BF9892"/>
<path d="M39.2413 14.5182C39.3186 14.7591 39.5746 14.8911 39.8124 14.8124C40.0506 14.7338 40.1804 14.4751 40.103 14.2338C40.0257 13.9929 39.7697 13.8609 39.5319 13.9396C39.2937 14.0182 39.1635 14.2773 39.2413 14.5182Z" fill="#BF9892"/>
<path d="M41.6685 11.4765L41.54 13.3565C41.5293 13.5103 41.4076 13.632 41.2556 13.64C41.0951 13.6489 40.9565 13.5289 40.9396 13.3671L40.7445 11.476C40.7298 11.3329 40.8422 11.2089 40.9845 11.2116L41.4373 11.2205C41.5725 11.2231 41.6778 11.3396 41.6685 11.4765Z" fill="#BF9892"/>
<path d="M40.7745 14.5182C40.8518 14.7591 41.1078 14.8911 41.3456 14.8125C41.5838 14.7338 41.7136 14.4751 41.6362 14.2338C41.5589 13.9929 41.3029 13.8609 41.0651 13.9396C40.8269 14.0182 40.6967 14.2774 40.7745 14.5182Z" fill="#BF9892"/>
<path d="M30.4707 26.26C30.4707 26.26 32.1458 25.5311 33.0107 25.3658C33.876 25.2004 39.9205 23.6222 39.9205 23.6222L33.6814 18.2071L35.0578 16.5111C35.0578 16.5111 39.692 19.312 42.9871 21.5444C42.9871 21.5444 43.0107 21.5569 43.0489 21.5871C44.9227 23.0809 44.2667 25.6836 42.3431 26.9058C41.3854 27.5147 37.1858 29.3493 36.3711 29.7511C34.7449 30.5533 34.7707 30.5262 34.7707 30.5262L30.4707 26.26Z" fill="#FAD6C8"/>
<path d="M29.2519 19.2089C29.2492 19.3778 29.1061 19.5147 28.9323 19.5151C28.7586 19.516 28.6194 19.38 28.6221 19.2111C28.6248 19.0422 28.7679 18.9053 28.9412 18.9045C29.115 18.904 29.2546 19.04 29.2519 19.2089Z" fill="#423A33"/>
<path d="M32.3329 19.2977C32.3303 19.4666 32.1872 19.6035 32.0134 19.6039C31.8396 19.6043 31.7005 19.4688 31.7032 19.2999C31.7058 19.131 31.8489 18.9941 32.0223 18.9932C32.1961 18.9923 32.3352 19.1288 32.3329 19.2977Z" fill="#423A33"/>
<path d="M32.6133 18.2261C32.5724 18.2657 32.3426 18.075 32.0035 18.0586C31.6653 18.0372 31.4075 18.2012 31.3728 18.1572C31.3555 18.1377 31.399 18.0648 31.5115 17.9901C31.6222 17.9159 31.8079 17.8479 32.0186 17.8594C32.2297 17.8714 32.4035 17.959 32.5013 18.0448C32.6022 18.1314 32.6337 18.2083 32.6133 18.2261Z" fill="#423A33"/>
<path d="M29.1809 18.2612C29.136 18.2963 28.9262 18.0825 28.5911 18.031C28.2569 17.9745 27.984 18.111 27.9538 18.0638C27.9387 18.0425 27.9889 17.9745 28.1085 17.9123C28.2258 17.8501 28.4173 17.8016 28.6262 17.835C28.8351 17.8687 28.9987 17.9741 29.0876 18.0696C29.1787 18.1656 29.2027 18.2456 29.1809 18.2612Z" fill="#423A33"/>
<path d="M30.361 20.7601C30.3605 20.7405 30.573 20.7143 30.9165 20.6876C31.0036 20.6827 31.0863 20.6698 31.1036 20.6107C31.1272 20.5485 31.0956 20.4521 31.0588 20.3481C30.9876 20.1316 30.9139 19.905 30.8357 19.6676C30.5272 18.6992 30.3085 17.905 30.3472 17.8925C30.3859 17.8801 30.6672 18.6552 30.9756 19.6236C31.0494 19.8623 31.1205 20.0898 31.1877 20.3076C31.2157 20.409 31.2663 20.525 31.2157 20.6538C31.189 20.7183 31.1232 20.7623 31.0672 20.7747C31.0108 20.789 30.9623 20.7876 30.9192 20.7881C30.5748 20.7885 30.3614 20.7796 30.361 20.7601Z" fill="#423A33"/>
<path d="M30.4011 24.8335C30.4011 24.8335 28.7438 24.8575 27.1562 23.778C27.1562 23.778 27.898 25.5415 30.3674 25.4335L30.4011 24.8335Z" fill="#D6AA9C"/>
<path d="M27.9806 16.9243C27.9926 16.8257 28.3326 16.7923 28.71 16.655C29.09 16.5252 29.3771 16.3377 29.4469 16.4075C29.4789 16.4412 29.4433 16.5395 29.3371 16.6572C29.2317 16.7746 29.0504 16.9043 28.8233 16.9848C28.5962 17.0648 28.3744 17.0768 28.2197 17.051C28.0642 17.0257 27.9762 16.971 27.9806 16.9243Z" fill="#423A33"/>
<path d="M32.389 16.9212C32.3254 16.9963 32.0961 16.9034 31.8156 16.8852C31.5356 16.8572 31.2948 16.9114 31.2441 16.827C31.2219 16.7861 31.2632 16.7101 31.3708 16.6416C31.477 16.5732 31.6512 16.5221 31.8436 16.5376C32.0361 16.5536 32.2001 16.6327 32.2934 16.7176C32.3885 16.8025 32.4174 16.8843 32.389 16.9212Z" fill="#423A33"/>
<path d="M25.3024 20.0822C25.3024 20.0822 27.038 20.6293 28.0202 16.2906C28.3562 14.8071 29.714 13.6057 29.714 13.6057L29.1633 13.4377C29.1633 13.4377 25.7407 14.4142 25.6829 14.4582C25.6251 14.5017 24.8193 16.2511 24.8193 16.2511L25.3024 20.0822Z" fill="#423A33"/>
<path d="M25.7307 19.9204C25.7396 19.7351 25.5498 19.288 25.3702 19.2502C24.8916 19.1498 24.0204 19.1449 23.9511 20.3849C23.856 22.08 25.556 21.8271 25.5618 21.7787C25.5662 21.7409 25.7004 20.5604 25.7307 19.9204Z" fill="#F7BA9B"/>
<path d="M25.0868 21.1071C25.0797 21.1013 25.0566 21.1262 25.0059 21.1462C24.9566 21.1658 24.873 21.1764 24.7877 21.1382C24.6144 21.0622 24.4815 20.7693 24.4908 20.4636C24.4952 20.3089 24.5352 20.164 24.5961 20.0453C24.6544 19.9244 24.7384 19.8422 24.8281 19.8316C24.9179 19.816 24.9779 19.8733 24.9957 19.9222C25.0157 19.9711 25.0028 20.0044 25.0117 20.0076C25.0161 20.012 25.049 19.9813 25.0397 19.9107C25.0348 19.8764 25.0175 19.8356 24.9797 19.8004C24.9415 19.7649 24.8832 19.7449 24.821 19.748C24.6912 19.7498 24.5686 19.8631 24.5019 19.9933C24.4281 20.1236 24.3792 20.2867 24.3744 20.46C24.3659 20.8022 24.5206 21.132 24.7588 21.2164C24.8748 21.2542 24.9752 21.224 25.0281 21.1867C25.0815 21.1476 25.0926 21.1102 25.0868 21.1071Z" fill="#E3956B"/>
<path d="M26.4814 19.2525C26.481 19.2467 26.5739 19.2467 26.7321 19.2014C26.8894 19.1565 27.1112 19.0525 27.3281 18.8511C27.4361 18.7507 27.5423 18.6271 27.6388 18.4823C27.7334 18.3365 27.8188 18.1694 27.8917 17.9867C28.0397 17.6214 28.1348 17.196 28.2521 16.7538C28.3699 16.3116 28.497 15.8943 28.637 15.5227C28.7752 15.1507 28.9281 14.8271 29.073 14.5649C29.2183 14.3027 29.3557 14.1027 29.4566 13.9694C29.5059 13.9018 29.549 13.8534 29.5766 13.8191C29.6046 13.7854 29.6201 13.768 29.621 13.7689C29.6223 13.7698 29.609 13.7889 29.5832 13.8245C29.5579 13.8605 29.5174 13.9107 29.4703 13.9796C29.3739 14.1156 29.2419 14.3178 29.1006 14.58C28.9601 14.8427 28.8108 15.1658 28.6752 15.5369C28.5379 15.9071 28.4121 16.3236 28.2948 16.7649C28.1779 17.2054 28.081 17.6329 27.929 18.0018C27.8543 18.1863 27.7668 18.3547 27.6686 18.5023C27.569 18.6485 27.4592 18.7729 27.3481 18.8738C27.1246 19.0756 26.8966 19.1774 26.7357 19.2174C26.5743 19.2587 26.4814 19.2525 26.4814 19.2525Z" fill="#423A33"/>
<path d="M24.192 26.4858C24.1903 26.4862 24.184 26.4582 24.1738 26.404C24.1631 26.3445 24.1494 26.2645 24.1316 26.1631C24.096 25.9454 24.0454 25.6356 23.9809 25.2427L24.0214 25.2369C24.0298 25.2982 24.0391 25.3667 24.0489 25.4369L24.0471 25.4307C24.0578 25.4538 24.0698 25.48 24.0823 25.5067L24.0405 25.5222C23.8423 24.8285 23.6249 23.896 23.5036 22.7934C23.4409 22.2427 23.4058 21.6498 23.4014 21.028C23.4071 20.4085 23.4027 19.7502 23.5667 19.0929C23.6343 18.8214 23.7369 18.5609 23.8711 18.3236C24.0049 18.0862 24.1649 17.8702 24.3338 17.6707C24.6743 17.2725 25.0409 16.9298 25.3756 16.5898C26.0511 15.9165 26.6596 15.3102 27.1725 14.7991C27.6827 14.2947 28.0974 13.8849 28.3885 13.5969C28.5303 13.4591 28.6414 13.3507 28.7218 13.2729C28.7578 13.2391 28.7867 13.2116 28.8098 13.1898C28.8298 13.1716 28.8409 13.1627 28.8418 13.1636C28.8427 13.1645 28.8338 13.1751 28.8156 13.1956C28.7938 13.2187 28.7667 13.2476 28.7329 13.284C28.6551 13.3645 28.5471 13.4765 28.4098 13.6187C28.1227 13.9111 27.7138 14.3267 27.2107 14.8387C26.7014 15.3529 26.0965 15.9636 25.4254 16.6409C25.092 16.9822 24.7258 17.3267 24.3907 17.7205C24.0556 18.1125 23.7671 18.5765 23.6405 19.1129C23.4796 19.756 23.4823 20.4116 23.4751 21.0285C23.4778 21.6476 23.5111 22.2378 23.5707 22.7867C23.6858 23.8854 23.8947 24.8165 24.0831 25.5107L24.0409 25.5262C24.0289 25.4991 24.0174 25.4729 24.0071 25.4498L24.0058 25.4467L24.0054 25.4436C23.9969 25.3729 23.9885 25.3045 23.9809 25.2431L24.0214 25.2374C24.0774 25.6316 24.1218 25.9422 24.1529 26.1609C24.1663 26.2631 24.1769 26.3436 24.1849 26.4036C24.1916 26.4569 24.1943 26.4854 24.192 26.4858Z" fill="#382D25"/>
<path d="M22.8753 18.6485C22.8731 18.6472 22.8833 18.6227 22.9046 18.5769C22.9309 18.5236 22.9629 18.4578 23.0024 18.3778C23.0873 18.2049 23.2211 17.9605 23.3966 17.6649C23.5709 17.3685 23.7949 17.0249 24.0589 16.6547C24.326 16.2867 24.6349 15.8934 24.9815 15.5005C25.3309 15.1094 25.6842 14.7565 26.0171 14.4485C26.3526 14.1436 26.666 13.8814 26.9389 13.6743C27.2109 13.4663 27.4362 13.3054 27.5971 13.2014C27.6713 13.1534 27.7322 13.1138 27.782 13.0818C27.8246 13.0552 27.8477 13.0423 27.8491 13.0445C27.8504 13.0467 27.8304 13.0641 27.7904 13.0947C27.7429 13.1298 27.6846 13.1734 27.614 13.2258C27.4589 13.3369 27.2389 13.5041 26.9722 13.7169C26.7046 13.9289 26.3966 14.1943 26.0651 14.5005C25.7366 14.8098 25.3864 15.1627 25.0389 15.5516C24.694 15.9427 24.3851 16.3325 24.1162 16.6965C23.8504 17.0627 23.6229 17.4014 23.4433 17.6934C23.2624 17.9845 23.122 18.2241 23.0291 18.3921C22.9851 18.4689 22.9486 18.5325 22.9189 18.5841C22.8926 18.6276 22.878 18.6498 22.8753 18.6485Z" fill="#382D25"/>
<path d="M25.192 25.9904C25.192 25.9904 25.1893 25.9894 25.1855 25.988C25.1879 25.989 25.1893 25.9894 25.192 25.9904Z" fill="#445962"/>
<path d="M25.1856 25.9883C25.1786 25.9859 25.1731 25.9841 25.168 25.9822C25.1745 25.9846 25.1809 25.9864 25.1856 25.9883Z" fill="#445962"/>
<path d="M37.7742 48L35.3746 40.392L35.1857 33.1614C35.1266 31.9147 35.0386 30.0911 35.0386 30.0911C34.2559 27.5436 31.7666 25.3929 31.7666 25.3929L30.3537 25.6125C30.2995 27.2022 27.967 28.6462 26.2897 27.5925C25.6693 27.1294 25.1915 25.9902 25.1915 25.9902L22.3408 27.4245L24.2982 41.9782C24.2982 41.9782 22.3675 45.7254 22.3675 48.0005H37.7742V48Z" fill="#AB7E79"/>
<path d="M25.1695 25.9825C25.1635 25.9802 25.1574 25.9783 25.1523 25.9765C25.156 25.9779 25.1621 25.9797 25.1695 25.9825Z" fill="#445962"/>
<path d="M25.1511 25.9765C25.1413 25.9729 25.1382 25.972 25.1511 25.9765Z" fill="#445962"/>
<g opacity="0.3">
<path d="M24.1074 40.2409C24.4581 41.1716 25.1465 41.9911 26.0483 42.3369C26.9496 42.6831 28.0576 42.4876 28.7061 41.7498C29.1039 41.2969 29.3039 40.6929 29.4305 40.0933C29.5416 39.5662 29.6048 39.0298 29.6643 38.4938C29.9661 35.772 30.1861 33.0227 29.9443 30.2938L29.5865 27.144L28.5528 27.7502L28.0728 38.968L24.1074 40.2409Z" fill="#040000"/>
</g>
<path d="M30.3809 25.5556C30.3809 25.5556 32.4582 25.0129 34.1471 24.9662L36.9484 24.2307L37.4271 29.4369L34.7564 31.22L30.3809 25.5556Z" fill="#AB7E79"/>
<path d="M25.441 33.5613L20.5228 36.1284C20.5228 36.1284 19.1606 28.536 22.3272 27.4244L22.5103 28.5027L25.441 33.5613Z" fill="#AB7E79"/>
<path d="M34.8817 27.0293C34.8826 27.0293 34.884 27.0409 34.8862 27.0635C34.888 27.0889 34.8906 27.1222 34.8937 27.1644C34.8995 27.2564 34.9075 27.3871 34.9182 27.5533C34.9391 27.8911 34.964 28.38 34.9937 28.9844C35.052 30.1929 35.1204 31.8631 35.1853 33.708C35.2502 35.5533 35.3009 37.2244 35.3333 38.4337C35.348 39.036 35.36 39.5249 35.3684 39.8662C35.3711 40.0329 35.3733 40.1635 35.3751 40.2555C35.3751 40.2977 35.3755 40.3315 35.3755 40.3569C35.3755 40.3795 35.3746 40.3915 35.3737 40.3915C35.3729 40.3915 35.3715 40.38 35.3702 40.3573C35.3689 40.332 35.3671 40.2982 35.3649 40.256C35.3609 40.164 35.3555 40.0333 35.3489 39.8666C35.3369 39.5253 35.3195 39.0369 35.2977 38.4346C35.256 37.2226 35.1986 35.5537 35.1351 33.7093C35.0662 31.8662 35.0035 30.1973 34.9582 28.9857C34.9333 28.3835 34.9129 27.8955 34.8986 27.5542C34.8924 27.3875 34.8871 27.2573 34.8835 27.1649C34.8826 27.1226 34.8817 27.0889 34.8809 27.0635C34.8809 27.0413 34.8809 27.0297 34.8817 27.0293Z" fill="#875A57"/>
<path d="M20.5225 36.128C20.522 36.1271 20.5287 36.1227 20.542 36.1147C20.558 36.1053 20.578 36.0942 20.602 36.0804C20.6589 36.0493 20.7367 36.0071 20.8354 35.9533C21.0429 35.8431 21.3363 35.6867 21.6971 35.4942C22.4305 35.1093 23.4367 34.5809 24.5487 33.9973C24.7536 33.8907 24.9549 33.7858 25.1465 33.6858L25.1345 33.7178C25.0376 33.4511 24.9545 33.192 24.8363 32.9578C24.726 32.7173 24.6403 32.4791 24.5576 32.2542C24.3949 31.804 24.2265 31.412 24.0887 31.0831C23.95 30.7547 23.842 30.4893 23.7723 30.3049C23.7376 30.2124 23.7114 30.1409 23.6949 30.092C23.678 30.0431 23.67 30.0173 23.6714 30.0169C23.6727 30.0164 23.6838 30.0409 23.7034 30.0889C23.7243 30.1404 23.7527 30.2102 23.7887 30.2982C23.8634 30.4804 23.9758 30.7431 24.1185 31.0698C24.2603 31.3964 24.4327 31.788 24.5985 32.2382C24.6825 32.4622 24.7691 32.7 24.8789 32.9369C24.9985 33.172 25.0843 33.4364 25.1807 33.7L25.1887 33.7218L25.1687 33.732C24.9771 33.832 24.7758 33.9373 24.5709 34.0444C23.4567 34.6227 22.4478 35.1462 21.7127 35.5275C21.3487 35.7138 21.0527 35.8649 20.8438 35.972C20.7438 36.0218 20.6643 36.0613 20.6065 36.0907C20.5816 36.1027 20.5607 36.1124 20.5443 36.1204C20.5305 36.1262 20.5229 36.1289 20.5225 36.128Z" fill="#875A57"/>
<path d="M30.761 21.5924C30.5725 21.4596 30.349 21.3787 30.1201 21.36C30.0481 21.3542 29.9734 21.3547 29.9067 21.3827C29.8059 21.4244 29.737 21.524 29.7041 21.6293C29.6712 21.7347 29.6699 21.8471 29.6681 21.9573C29.6676 21.9991 29.6676 22.0436 29.6867 22.0804C29.7223 22.1484 29.8085 22.1684 29.8845 22.1747C30.1427 22.1964 30.4067 22.1476 30.6405 22.0338" fill="#D6AA9C"/>
<path d="M21.1484 35.4969C22.1533 37.8631 24.064 40.2645 25.2413 40.704C26.996 41.3587 28.448 41.0333 29.1204 38.8667C29.7929 36.7 29.3618 27.0756 29.3618 27.0756L26.4369 26.9058L25.8951 35.1982C25.8951 35.1982 25.572 34.5542 25.0031 33.5382" fill="#FAD6C8"/>
<path d="M33.6821 18.2071L32.9461 17.6636L32.8332 16.728C32.8332 16.728 31.5026 16.7627 31.4212 16.0405C31.4212 16.0405 30.6541 16.2467 30.6915 15.4836C30.6915 15.4836 30.3008 15.2151 30.4435 14.9676C30.5861 14.72 31.6883 14.3516 31.7492 14.3311C31.8106 14.3107 32.531 14.156 32.531 14.156L32.3177 13.9151L31.7475 13.9769C31.7475 13.9769 31.4012 14.3071 31.1159 14.3485C30.8306 14.3898 30.8101 14.2658 30.8101 14.2658C30.8101 14.2658 30.4843 13.9151 30.9119 13.5645C31.3399 13.2138 31.8897 13.0898 32.175 13.0694C32.4603 13.0489 32.8426 13.6054 32.8426 13.6054L33.1528 14.1627C33.1528 14.1627 33.7639 14.08 33.9675 14.5547V14.8849C33.9675 14.8849 34.4155 14.8231 34.599 15.3596L34.7212 15.8343C34.7212 15.8343 35.251 16.5356 35.2715 16.8245" fill="#FAD6C8"/>
<path d="M35.2716 16.8245C35.2693 16.8249 35.2671 16.7987 35.2542 16.7512C35.2409 16.7032 35.2129 16.6347 35.1698 16.548C35.0818 16.376 34.9298 16.1338 34.7116 15.8414L34.7102 15.8392L34.7098 15.8365C34.6725 15.6947 34.6307 15.5347 34.5853 15.3627L34.5858 15.3636C34.5453 15.2454 34.4782 15.1245 34.3725 15.0334C34.2676 14.9436 34.1196 14.8894 33.9707 14.9018L33.9507 14.9036V14.8845C33.9502 14.7827 33.9502 14.6698 33.9498 14.5543L33.9511 14.5618C33.892 14.4285 33.7818 14.3107 33.6356 14.2503C33.4916 14.1876 33.3218 14.1672 33.156 14.1832L33.1418 14.1845L33.1351 14.1725C33.0378 13.9978 32.932 13.8094 32.824 13.6156L32.8249 13.6174C32.7587 13.5245 32.6845 13.4338 32.6031 13.3485C32.5213 13.2645 32.4316 13.1832 32.3276 13.1294C32.2747 13.1032 32.22 13.0894 32.1627 13.0934C32.1022 13.0978 32.0413 13.1072 31.9809 13.1178C31.8596 13.14 31.7378 13.1712 31.6182 13.2112C31.3791 13.2916 31.144 13.4089 30.9391 13.5747C30.8373 13.6547 30.7507 13.7605 30.7236 13.8872C30.6987 14.0134 30.7453 14.1503 30.8289 14.2485L30.8329 14.2534L30.8351 14.2614C30.8409 14.2836 30.8747 14.3098 30.9102 14.3187C30.9467 14.3294 30.9871 14.332 31.0276 14.3312C31.1102 14.3285 31.1902 14.3112 31.2676 14.2769C31.4222 14.2085 31.5653 14.1036 31.6978 13.9885C31.7089 13.9783 31.72 13.9685 31.7307 13.9587L31.7369 13.9529L31.7449 13.952C31.9369 13.9312 32.1271 13.9107 32.3151 13.8903L32.3276 13.8889L32.336 13.8987C32.4076 13.9796 32.4787 14.06 32.5493 14.1396L32.5778 14.1716L32.536 14.1809C32.2853 14.2369 32.0382 14.292 31.7947 14.3463C31.556 14.4174 31.3267 14.5085 31.1045 14.6C30.9933 14.6463 30.8853 14.6965 30.7809 14.7498C30.6778 14.804 30.5733 14.8614 30.4951 14.9387C30.4591 14.9774 30.4365 15.0272 30.4356 15.0792C30.4342 15.1312 30.4529 15.1832 30.4796 15.2303C30.5351 15.3236 30.6173 15.4018 30.7031 15.4649L30.7125 15.4716L30.7129 15.4845C30.7147 15.5325 30.712 15.5805 30.7169 15.6276C30.7258 15.6738 30.7285 15.7214 30.7476 15.7632C30.776 15.8498 30.8316 15.9263 30.908 15.9707C31.0613 16.0614 31.2525 16.056 31.4151 16.0205L31.4382 16.0156L31.4405 16.0383C31.4565 16.1978 31.5493 16.3338 31.6685 16.4227C31.7876 16.5138 31.9245 16.5698 32.0591 16.6098C32.3298 16.688 32.5942 16.7116 32.8325 16.712H32.8467L32.8485 16.7258C32.8916 17.0965 32.9271 17.4054 32.9569 17.6618L32.9525 17.6543C33.1893 17.832 33.372 17.9694 33.4973 18.0632C33.5573 18.1089 33.6031 18.144 33.6365 18.1694C33.6676 18.1934 33.6822 18.2067 33.6822 18.2067C33.6822 18.2067 33.6649 18.1965 33.6329 18.1738C33.5991 18.1498 33.552 18.116 33.4907 18.0725C33.364 17.9805 33.1791 17.8463 32.9396 17.672L32.9356 17.6694L32.9351 17.6645C32.9031 17.4085 32.8645 17.1 32.8178 16.7298L32.8333 16.7436C32.5911 16.7449 32.3258 16.7232 32.0493 16.6449C31.912 16.6045 31.7711 16.5485 31.6458 16.4538C31.5205 16.3618 31.4182 16.2147 31.4009 16.0432L31.4262 16.0605C31.3382 16.0818 31.2485 16.0898 31.1565 16.0849C31.0649 16.0796 30.9702 16.0587 30.8867 16.0076C30.8018 15.9587 30.7387 15.8725 30.7076 15.7783C30.6867 15.732 30.6836 15.6818 30.6742 15.6325C30.6689 15.5827 30.6711 15.5325 30.6693 15.4823L30.6791 15.5018C30.5876 15.4347 30.5031 15.3556 30.4413 15.2534C30.412 15.2018 30.3893 15.1423 30.3907 15.0783C30.3916 15.0143 30.4187 14.9525 30.4627 14.9063C30.5502 14.82 30.6551 14.7632 30.7605 14.7072C30.8667 14.6525 30.9756 14.6018 31.0871 14.5552C31.3107 14.4627 31.5405 14.3707 31.7805 14.2987C32.0253 14.2436 32.2742 14.188 32.5267 14.1312L32.5133 14.1725C32.4427 14.0929 32.3716 14.0125 32.3 13.9316L32.3209 13.9396C32.1329 13.96 31.9427 13.9805 31.7507 14.0014L31.7649 13.9947C31.7538 14.0049 31.7422 14.0156 31.7307 14.0258C31.5947 14.1436 31.4498 14.2507 31.2871 14.3227C31.2058 14.3587 31.116 14.3783 31.0289 14.3809C30.9849 14.3818 30.94 14.3796 30.896 14.3663C30.8533 14.3525 30.8045 14.3298 30.7867 14.2694L30.7929 14.2823C30.6982 14.1712 30.648 14.0218 30.6756 13.8769C30.6907 13.8054 30.7236 13.7409 30.764 13.6832C30.7862 13.6565 30.808 13.6289 30.8325 13.604C30.8582 13.5814 30.8827 13.5565 30.9093 13.5356C31.12 13.3658 31.36 13.2467 31.604 13.1654C31.7262 13.1245 31.8498 13.0934 31.9738 13.0712C32.036 13.0605 32.0978 13.0512 32.16 13.0467C32.2258 13.0414 32.2929 13.0587 32.3489 13.0876C32.4613 13.1467 32.5529 13.2307 32.6365 13.3169C32.7191 13.4045 32.7938 13.496 32.8618 13.592L32.8622 13.5929L32.8627 13.5938C32.9702 13.788 33.0751 13.9769 33.172 14.152L33.1511 14.1414C33.3262 14.1254 33.4991 14.1472 33.6516 14.2138C33.8058 14.2778 33.9245 14.4049 33.9853 14.5467L33.9867 14.5503V14.5543C33.9862 14.6698 33.9862 14.7827 33.9858 14.8845L33.9658 14.8672C34.1289 14.8543 34.2818 14.9134 34.3933 15.0089C34.5045 15.1058 34.5729 15.2325 34.6138 15.3543V15.3547V15.3552C34.6573 15.528 34.6978 15.688 34.7338 15.8303L34.7316 15.8258C34.948 16.1214 35.0965 16.3663 35.1818 16.5418C35.2236 16.6298 35.2493 16.7 35.2609 16.7489C35.272 16.7987 35.2716 16.8245 35.2716 16.8245Z" fill="#D6AA9C"/>
<path d="M33.9615 17.2041C33.9557 17.2094 33.9064 17.1583 33.8157 17.0916C33.725 17.0245 33.5899 16.9463 33.4295 16.8867C33.2672 16.829 33.1183 16.777 33.009 16.7565C32.8992 16.7352 32.8286 16.7374 32.8281 16.7294C32.8277 16.7236 32.8988 16.7085 33.0143 16.7214C33.1308 16.7338 33.2819 16.781 33.4472 16.8396C33.6126 16.901 33.7504 16.9876 33.8379 17.0641C33.9259 17.1401 33.9663 17.2005 33.9615 17.2041Z" fill="#D6AA9C"/>
<path d="M34.1767 15.8462C34.1767 15.8498 34.1372 15.8542 34.0661 15.8596C33.9843 15.8645 33.8834 15.8702 33.7638 15.8769C33.5087 15.8893 33.1563 15.9031 32.767 15.9151C32.5727 15.9205 32.3878 15.9253 32.2181 15.9302C32.0496 15.932 31.899 15.94 31.7727 15.956C31.647 15.9711 31.5465 15.9933 31.479 16.0147C31.4114 16.0356 31.3763 16.0542 31.3741 16.0502C31.3727 16.048 31.4052 16.0231 31.4723 15.996C31.5394 15.9685 31.6407 15.9405 31.7674 15.9205C31.8941 15.8996 32.0474 15.888 32.2167 15.8836C32.387 15.8778 32.5718 15.8711 32.7656 15.8645C33.155 15.8525 33.5078 15.8445 33.763 15.8409C33.8825 15.8405 33.9834 15.84 34.0652 15.8396C34.1372 15.8409 34.1767 15.8427 34.1767 15.8462Z" fill="#D6AA9C"/>
<path d="M33.5633 14.9783C33.5637 14.9818 33.5237 14.9898 33.4513 15.0009C33.3686 15.0134 33.2655 15.0289 33.1442 15.0476C32.8851 15.0863 32.5273 15.1432 32.134 15.2165C31.7406 15.2903 31.3864 15.3667 31.1309 15.424C31.0109 15.4507 30.9095 15.4734 30.8277 15.4916C30.7562 15.5072 30.7157 15.5143 30.7149 15.5107C30.714 15.5072 30.7526 15.4938 30.8229 15.4725C30.8931 15.4507 30.9957 15.4223 31.1229 15.3889C31.3771 15.3223 31.7309 15.24 32.1255 15.1663C32.5197 15.0925 32.8793 15.0414 33.1402 15.0116C33.2709 14.9965 33.3766 14.9863 33.4495 14.9809C33.522 14.976 33.5629 14.9747 33.5633 14.9783Z" fill="#D6AA9C"/>
<path d="M32.3544 13.5533C32.3668 13.5489 32.402 13.6302 32.3966 13.7373C32.3917 13.8444 32.3486 13.9218 32.3366 13.9164C32.3233 13.9111 32.3428 13.8324 32.3468 13.7351C32.3522 13.6373 32.3406 13.5573 32.3544 13.5533Z" fill="#E3956B"/>
<path d="M23.2654 20.0854C24.0738 21.1698 26.1791 24.3094 27.0369 25.4325C27.2178 25.6694 27.744 25.5818 27.9765 25.3965C28.5289 24.956 29.4965 24.1916 30.0734 23.772C30.3178 23.5943 30.3685 23.2471 30.1849 23.0058L26.0831 17.6094C25.8934 17.3596 25.5329 17.3276 25.3031 17.54L23.332 19.3631C23.1289 19.5507 23.1 19.8636 23.2654 20.0854Z" fill="#A67C77"/>
<path d="M26.3617 36.4711L25.8946 35.1978L26.4363 26.9053C26.4363 26.9053 25.3572 24.9142 25.2377 24.4769C25.1181 24.0396 25.0879 22.7734 25.0879 22.7734L25.8417 23.6591C25.8417 23.6591 25.8626 22.1365 25.8626 21.6267C25.8626 21.6267 25.9701 19.712 25.9888 19.4467C26.007 19.1813 26.2728 19.0382 26.4443 19.0382C26.6159 19.0382 26.7817 19.3547 26.7817 19.3547L27.0123 22.4858C27.0123 22.4858 27.3923 20.8391 27.5363 20.6209C27.6803 20.4022 28.1772 20.2982 28.5128 20.3222C28.5163 20.3227 28.5194 20.3227 28.5226 20.3231C28.783 20.3471 28.8679 20.6929 28.6532 20.8445L28.2106 21.1582L28.043 22.7289C28.043 22.7289 28.4506 21.3689 28.6666 21.1991C28.8821 21.0294 29.2661 21.1991 29.3377 21.3934C29.4097 21.5876 29.1457 21.976 29.1457 21.976L29.0737 22.9471C29.0737 22.9471 29.3612 22.5342 29.5026 22.3156C29.6439 22.0969 30.0083 22.3156 30.0528 22.4129C30.0968 22.5102 29.7928 23.5582 29.7928 23.5582L29.3612 27.0756L29.4972 32.1396" fill="#FAD6C8"/>
<path d="M29.4976 32.1396C29.4976 32.1396 29.4954 32.1102 29.4932 32.052C29.4909 31.9934 29.4883 31.9071 29.4843 31.7947C29.4772 31.5667 29.4669 31.232 29.4536 30.7978C29.4287 29.9276 29.3923 28.6623 29.3465 27.076V27.0747V27.0734C29.4732 26.0334 29.6163 24.8534 29.7741 23.5556V23.5542L29.7745 23.5525C29.8301 23.3574 29.8847 23.1582 29.9358 22.9547C29.9612 22.8529 29.9861 22.7503 30.0074 22.6463C30.0181 22.5943 30.0274 22.5422 30.0341 22.4898C30.0363 22.4645 30.0376 22.4369 30.0341 22.4209C30.0247 22.4027 30.0056 22.384 29.9869 22.3671C29.9087 22.3018 29.8083 22.2538 29.7069 22.2445C29.6567 22.2405 29.6052 22.2498 29.5661 22.2791C29.5278 22.3067 29.5016 22.3569 29.4692 22.4027C29.3447 22.5862 29.2185 22.7716 29.0914 22.9596L29.0465 23.0258L29.0523 22.9454C29.0745 22.6449 29.0989 22.312 29.1234 21.9738L29.1238 21.968L29.1274 21.9627C29.1927 21.8618 29.2518 21.7529 29.2927 21.6387C29.3123 21.5818 29.3278 21.5218 29.3269 21.464C29.3269 21.4067 29.2989 21.3551 29.2581 21.312C29.1758 21.2267 29.0589 21.172 28.9403 21.156C28.8234 21.1391 28.6901 21.1734 28.6274 21.2791C28.5585 21.3822 28.5052 21.5009 28.4549 21.6191C28.4052 21.7382 28.3581 21.8596 28.3141 21.9831C28.2247 22.2289 28.1429 22.4809 28.0647 22.7356L28.0189 22.7262C28.0714 22.2329 28.1283 21.6982 28.1861 21.1556L28.1874 21.1445L28.1963 21.1382C28.3354 21.0396 28.4749 20.9409 28.6149 20.8414C28.6861 20.7965 28.7345 20.7307 28.7465 20.6503C28.7581 20.5716 28.7349 20.4863 28.6812 20.428C28.6278 20.3658 28.5492 20.3445 28.4638 20.3445C28.3785 20.3414 28.2927 20.3462 28.2074 20.3565C28.0376 20.3778 27.8656 20.4178 27.7149 20.4996C27.6407 20.5414 27.5723 20.5947 27.5376 20.6702C27.5012 20.7471 27.4732 20.8329 27.4461 20.9174C27.3923 21.0871 27.3443 21.2605 27.2981 21.4342C27.2056 21.7827 27.1189 22.1356 27.0358 22.4911L26.9989 22.6498L26.9869 22.4876C26.9558 22.0654 26.9225 21.6125 26.8887 21.1569C26.8443 20.5507 26.7998 19.9502 26.7563 19.3565L26.7589 19.3662C26.7043 19.2689 26.6367 19.1711 26.5505 19.1058C26.4665 19.0338 26.3496 19.068 26.2518 19.1138C26.1545 19.1627 26.0714 19.244 26.0349 19.3454C26.0158 19.396 26.0114 19.4489 26.0092 19.5076L25.9994 19.6791C25.9727 20.136 25.9465 20.5885 25.9207 21.0356C25.9092 21.2591 25.8914 21.4814 25.8856 21.7027C25.8834 21.924 25.8812 22.1445 25.8785 22.3631C25.8741 22.8009 25.8692 23.2329 25.8647 23.6591L25.8638 23.7222L25.8229 23.6742C25.5678 23.3742 25.3167 23.0791 25.0696 22.788L25.1101 22.772C25.1212 23.1654 25.1403 23.5534 25.1763 23.9329C25.1963 24.1218 25.2149 24.312 25.2647 24.4894C25.3225 24.664 25.4029 24.8334 25.4803 25C25.7981 25.6645 26.1318 26.2934 26.4536 26.8947L26.4563 26.9L26.4558 26.9058C26.2003 30.7302 26.0047 33.6622 25.9021 35.1974L25.9016 35.1938C26.0563 35.62 26.1718 35.9387 26.2487 36.1516C26.2865 36.2569 26.3149 36.3365 26.3341 36.3902C26.3527 36.4431 26.3612 36.4698 26.3612 36.4698C26.3612 36.4698 26.3501 36.444 26.3301 36.3916C26.3101 36.3382 26.2803 36.2596 26.2407 36.1547C26.1621 35.9422 26.0438 35.6249 25.8861 35.1996L25.8856 35.1978V35.196C25.9838 33.6609 26.1709 30.7285 26.4154 26.9027L26.4181 26.9138C26.0949 26.3125 25.7607 25.6845 25.4412 25.0187C25.3629 24.8511 25.2829 24.6836 25.2225 24.5018C25.1705 24.3174 25.1523 24.1276 25.1318 23.9369C25.0954 23.5556 25.0758 23.1671 25.0643 22.7725L25.0625 22.7067L25.1052 22.7565C25.3527 23.0471 25.6038 23.3423 25.8594 23.6423L25.8181 23.6574C25.8221 23.2311 25.8265 22.7987 25.8309 22.3609C25.8332 22.1418 25.8354 21.9218 25.8376 21.7C25.8429 21.4787 25.8612 21.256 25.8723 21.032C25.8981 20.5845 25.9243 20.1316 25.9505 19.6743L25.9603 19.5027C25.9625 19.4471 25.9674 19.3836 25.9892 19.3267C26.0314 19.2107 26.1243 19.1209 26.2305 19.0676C26.2838 19.0409 26.3416 19.0218 26.4016 19.0143C26.4305 19.0111 26.4647 19.0098 26.4963 19.0205C26.5278 19.0289 26.5545 19.0462 26.5798 19.0636C26.6772 19.1387 26.7438 19.2374 26.8029 19.3414L26.8052 19.3458L26.8056 19.3516C26.8492 19.9454 26.8936 20.5458 26.9385 21.152C26.9723 21.608 27.0056 22.0605 27.0363 22.4827L26.9874 22.4787C27.0705 22.1222 27.1572 21.7689 27.2501 21.42C27.2967 21.2454 27.3447 21.072 27.3989 20.9009C27.4265 20.8151 27.4541 20.7303 27.4936 20.6463C27.5341 20.5587 27.6132 20.4978 27.6914 20.4547C27.8518 20.3685 28.0274 20.3285 28.2016 20.3063C28.2892 20.296 28.3772 20.2911 28.4656 20.2942C28.5514 20.2925 28.6563 20.3191 28.7172 20.3938C28.7816 20.464 28.8083 20.5636 28.7945 20.6565C28.7865 20.7027 28.7701 20.7485 28.7425 20.7867C28.7158 20.8245 28.6776 20.8574 28.6425 20.88C28.5021 20.9791 28.3625 21.0782 28.2234 21.1765L28.2336 21.1591C28.1754 21.7018 28.1181 22.2365 28.0656 22.7294L28.0198 22.72C28.0981 22.464 28.1807 22.2125 28.2705 21.9654C28.3149 21.8418 28.3625 21.7196 28.4127 21.5996C28.4643 21.4796 28.5167 21.3609 28.5905 21.2507C28.6069 21.2227 28.6341 21.1969 28.6589 21.1747C28.6865 21.1542 28.7172 21.1387 28.7487 21.1267C28.8127 21.104 28.8812 21.1009 28.9461 21.1094C29.0758 21.1276 29.1989 21.1845 29.2909 21.28C29.3358 21.3267 29.3723 21.3929 29.3718 21.4622C29.3732 21.5298 29.3558 21.5934 29.3349 21.6534C29.2918 21.7734 29.2318 21.8831 29.1638 21.9876L29.1678 21.9765C29.1425 22.3142 29.1176 22.6471 29.0954 22.9476L29.0563 22.9334C29.1838 22.7462 29.3096 22.5609 29.4341 22.3778L29.4807 22.3094C29.4981 22.2867 29.5163 22.2605 29.5416 22.2436C29.5909 22.2067 29.6532 22.1965 29.7101 22.2009C29.8247 22.2125 29.9278 22.2627 30.0136 22.3338C30.0345 22.3534 30.0558 22.3716 30.0709 22.4018C30.0812 22.4383 30.0758 22.4654 30.0741 22.4929C30.0669 22.5476 30.0576 22.6005 30.0465 22.6529C30.0252 22.7578 29.9998 22.8609 29.9741 22.9631C29.9225 23.1671 29.8674 23.3663 29.8114 23.5618L29.8118 23.5587C29.6514 24.8556 29.5052 26.0356 29.3763 27.0751V27.0729C29.4158 28.6591 29.4474 29.9249 29.4692 30.7951C29.4789 31.2294 29.4865 31.5645 29.4918 31.792C29.4941 31.9049 29.4954 31.9907 29.4967 32.0498C29.4981 32.1098 29.4976 32.1396 29.4976 32.1396Z" fill="#D6AA9C"/>
<path d="M25.8945 25.4325C25.8878 25.4329 25.8776 25.3014 25.8674 25.0885C25.8572 24.8756 25.8461 24.5818 25.8372 24.2569C25.8283 23.932 25.823 23.6378 25.8216 23.4249C25.8203 23.212 25.823 23.08 25.8296 23.08C25.8363 23.08 25.8465 23.2116 25.8567 23.424C25.867 23.6369 25.8781 23.9307 25.887 24.2556C25.8958 24.58 25.9012 24.8742 25.9025 25.0871C25.9038 25.3 25.9012 25.4325 25.8945 25.4325Z" fill="#E3956B"/>
<path d="M30.6396 22.0342C30.6409 22.0369 30.6089 22.0574 30.5462 22.0858C30.4836 22.1138 30.3898 22.1489 30.2689 22.1738C30.148 22.1978 30.0013 22.212 29.8369 22.1929C29.7956 22.1862 29.7511 22.1751 29.7116 22.1462C29.6707 22.1187 29.6462 22.0649 29.644 22.0174C29.6409 21.924 29.6422 21.8351 29.6542 21.7378C29.6667 21.6422 29.6978 21.5476 29.7556 21.4729C29.8107 21.3974 29.8982 21.3471 29.9836 21.3391C30.1525 21.3258 30.2951 21.364 30.4129 21.4014C30.5298 21.4414 30.6178 21.4902 30.6756 21.5276C30.7333 21.5654 30.7618 21.5907 30.76 21.5934C30.7551 21.6022 30.6333 21.5067 30.4027 21.4356C30.2889 21.4036 30.1431 21.3707 29.9902 21.3854C29.9147 21.3942 29.8445 21.436 29.7951 21.5031C29.7449 21.5694 29.7165 21.6547 29.7045 21.7449C29.6929 21.8342 29.6916 21.9294 29.6938 22.0129C29.6942 22.0969 29.7698 22.1365 29.8453 22.1471C30.0005 22.1676 30.1462 22.1582 30.264 22.1391C30.5009 22.0978 30.636 22.0249 30.6396 22.0342Z" fill="#423A33"/>
<path d="M41.6054 24.1462C41.6054 24.152 41.5067 24.16 41.3467 24.1502C41.1872 24.1409 40.9667 24.1093 40.7312 24.0413C40.4961 23.9724 40.2925 23.8804 40.1525 23.8026C40.0121 23.7249 39.9325 23.6649 39.9356 23.66C39.9396 23.6533 40.0254 23.7022 40.1685 23.7706C40.3112 23.8395 40.5134 23.9249 40.745 23.9924C40.9765 24.0595 41.1925 24.096 41.3499 24.1142C41.5072 24.1337 41.6054 24.1382 41.6054 24.1462Z" fill="#D6AA9C"/>
<path d="M33.9876 13.6445C33.7618 13.6445 33.5383 13.5653 33.4392 13.3653C33.3587 13.2031 33.3899 13.0125 33.4263 12.8645C33.4792 12.6476 33.6454 12.076 33.9907 11.7293C33.6516 11.8676 33.2947 12.2449 33.1556 12.4893C33.1458 12.5062 33.1245 12.5125 33.1076 12.5027C33.0907 12.4929 33.085 12.4716 33.0943 12.4547C33.233 12.2107 33.6707 11.7156 34.101 11.6209C34.1076 11.6196 34.1147 11.6178 34.1214 11.6169C34.2298 11.5373 34.3534 11.4805 34.4925 11.4591C34.7147 11.4253 34.9378 11.508 35.061 11.6698C35.1694 11.8125 35.1872 11.9898 35.1614 12.148C35.2187 12.168 35.2627 12.1987 35.2952 12.2396C35.365 12.3289 35.3712 12.4578 35.3138 12.6236C35.1485 13.1 34.7258 13.4889 34.237 13.6133C34.1578 13.6333 34.0725 13.6445 33.9876 13.6445ZM34.149 11.6831C33.7427 11.9911 33.5516 12.648 33.4947 12.8809C33.4614 13.0173 33.4325 13.192 33.5027 13.3338C33.6218 13.5738 33.9574 13.6111 34.2192 13.5445C34.6854 13.4253 35.089 13.0547 35.2467 12.5996C35.2956 12.4578 35.2934 12.3511 35.2392 12.2822C35.217 12.2542 35.1863 12.2325 35.1467 12.2169C35.1365 12.2569 35.1241 12.2947 35.1098 12.3298C34.9561 12.704 34.4943 13.2542 34.0263 13.3133C34.0072 13.3156 33.9894 13.3022 33.9867 13.2827C33.9845 13.2636 33.9978 13.2458 34.0174 13.2431C34.4525 13.188 34.901 12.652 35.0445 12.3027C35.0578 12.2702 35.0694 12.2351 35.0787 12.1982C35.0454 12.192 35.0076 12.1889 34.9658 12.1885C34.8947 12.1876 34.8236 12.192 34.7525 12.2009C34.7596 12.5551 34.517 12.8951 34.1778 13.0009C34.065 13.036 33.9361 13.028 33.849 12.9805C33.7916 12.9493 33.7525 12.9018 33.7361 12.8431C33.705 12.7307 33.765 12.6058 33.9054 12.4902C34.125 12.3102 34.3961 12.1889 34.6778 12.1409C34.6596 11.9765 34.5823 11.8316 34.4667 11.7489C34.3778 11.6853 34.2707 11.6631 34.149 11.6831ZM34.6823 12.212C34.4152 12.2587 34.1587 12.3742 33.9503 12.5453C33.8823 12.6013 33.7725 12.7116 33.8041 12.8245C33.8152 12.8649 33.8418 12.8965 33.8827 12.9187C33.953 12.9569 34.0632 12.9627 34.157 12.9338C34.4587 12.8396 34.6832 12.5276 34.6823 12.212ZM34.269 11.6062C34.357 11.612 34.437 11.6405 34.5081 11.6916C34.6387 11.7853 34.7267 11.9471 34.7476 12.1302C34.8205 12.1209 34.8934 12.1165 34.9663 12.1178C35.0125 12.1182 35.0547 12.1222 35.0925 12.1293C35.1143 11.9898 35.0978 11.8351 35.0041 11.712C34.8965 11.5707 34.6996 11.4982 34.5027 11.5285C34.4192 11.5414 34.341 11.5685 34.269 11.6062Z" fill="#A67C77"/>
<path d="M25.5807 11.6257C25.5718 11.6257 25.5629 11.6222 25.5558 11.6155C25.542 11.6017 25.542 11.5795 25.5558 11.5657C25.6896 11.4311 25.6811 11.2702 25.6505 11.1591C25.6394 11.1191 25.6238 11.0795 25.6047 11.0413C25.3722 11.136 25.1007 11.1715 24.9082 11.1595C24.7114 11.1471 24.5829 11.0893 24.5474 10.9969C24.518 10.9209 24.5518 10.832 24.6474 10.7333C24.7869 10.5893 24.9691 10.5373 25.1602 10.5862C25.3482 10.6342 25.5265 10.776 25.6345 10.9511C25.774 10.8857 25.8905 10.7973 25.9514 10.6844C26.078 10.4493 26.0829 10.1569 25.9687 9.90219C25.8896 9.91241 25.8176 9.91685 25.7589 9.91507C25.3634 9.90485 24.9634 9.70219 24.87 9.52796C24.8371 9.46663 24.85 9.42263 24.8665 9.39641C24.9082 9.33019 25.0238 9.3013 25.2096 9.31019C25.5429 9.32619 25.8274 9.50085 25.9905 9.7893C25.9971 9.8013 26.0038 9.81374 26.01 9.82574C26.3611 9.77285 26.8349 9.6093 26.9976 9.33241C27.0762 9.19863 27.0696 9.05107 26.9771 8.89419C26.8487 8.67685 26.6087 8.67019 26.4776 8.68574C26.4274 8.69152 26.3776 8.70219 26.3291 8.71641C26.3518 8.77507 26.3687 8.83819 26.3789 8.90441C26.4056 9.07952 26.3451 9.38841 26.1896 9.4733C26.1309 9.5053 26.034 9.51996 25.9042 9.40663C25.7638 9.28352 25.766 9.15463 25.7931 9.06796C25.8429 8.90707 26.0189 8.75641 26.2331 8.67419C26.1362 8.48174 25.9638 8.3493 25.754 8.3173C25.7349 8.31419 25.7216 8.29641 25.7242 8.27685C25.7274 8.25774 25.7447 8.24485 25.7647 8.24707C26.0011 8.28307 26.194 8.4333 26.3002 8.65019C26.3549 8.6333 26.4118 8.6213 26.4691 8.61463C26.7251 8.58441 26.9274 8.67063 27.038 8.8573C27.1447 9.03819 27.1514 9.20974 27.0585 9.36752C26.8878 9.6573 26.406 9.83108 26.0407 9.89108C26.1554 10.1609 26.1469 10.4689 26.0131 10.7173C25.9447 10.8449 25.818 10.9422 25.6687 11.0129C25.6891 11.0542 25.706 11.0969 25.718 11.14C25.7682 11.3226 25.7287 11.4915 25.6056 11.6155C25.5989 11.6222 25.5896 11.6257 25.5807 11.6257ZM25.0207 10.6382C24.9207 10.6382 24.8056 10.6715 24.698 10.7822C24.6465 10.8355 24.59 10.9115 24.6131 10.9711C24.6376 11.0346 24.7496 11.0786 24.9127 11.0889C25.0998 11.1004 25.354 11.0649 25.5691 10.9786C25.4705 10.8226 25.3109 10.6973 25.1429 10.6542C25.1065 10.6449 25.0651 10.6382 25.0207 10.6382ZM25.1465 9.37863C24.9754 9.37863 24.9349 9.41996 24.926 9.4333C24.9167 9.44796 24.9189 9.46841 24.9322 9.49374C25.0047 9.62974 25.3634 9.8333 25.7607 9.84352C25.8105 9.84485 25.87 9.84174 25.9358 9.83463C25.9336 9.83063 25.9314 9.82708 25.9296 9.82308C25.7785 9.55596 25.5154 9.39463 25.2069 9.37996C25.1847 9.37908 25.1647 9.37863 25.1465 9.37863ZM26.262 8.73819C26.0665 8.81241 25.9038 8.94796 25.8602 9.08796C25.83 9.18485 25.8607 9.27419 25.9505 9.35285C26.03 9.42219 26.0989 9.44174 26.1554 9.41063C26.2776 9.34352 26.3318 9.06752 26.3087 8.91419C26.2994 8.85196 26.2838 8.7933 26.262 8.73819Z" fill="#A67C77"/>
<path d="M35.3293 24.2489C35.2461 24.2489 35.1608 24.2325 35.0746 24.1996C35.0564 24.1925 35.047 24.1725 35.0541 24.1538C35.0613 24.1356 35.0817 24.1262 35.0999 24.1334C35.2924 24.2067 35.4786 24.1889 35.6381 24.0818C35.8577 23.9347 36.0101 23.6262 36.0177 23.3151C36.0181 23.2894 36.0186 23.2618 36.0168 23.2329C35.9146 23.3138 35.779 23.3534 35.6177 23.3462C35.4848 23.3405 35.3746 23.2894 35.315 23.2062C35.2621 23.132 35.2506 23.064 35.2817 23.0036C35.3559 22.8582 35.6564 22.8245 35.7657 22.8236C35.7661 22.8236 35.767 22.8236 35.7679 22.8236C35.8746 22.8236 35.979 22.8947 36.0346 23.0058C36.0466 23.0298 36.0559 23.0542 36.0635 23.0791C36.079 23.056 36.0928 23.0307 36.1044 23.0036C36.1884 22.808 36.1568 22.5422 36.0381 22.3547C35.9493 22.5529 35.6106 22.648 35.4021 22.612C35.2457 22.5849 35.1661 22.4885 35.1893 22.3538C35.2061 22.256 35.283 22.1685 35.4013 22.1138C35.6173 22.0138 35.8221 22.0374 35.9821 22.1787C35.9608 22.0956 35.8981 22.0071 35.795 21.9151C35.5724 21.716 35.355 21.6205 35.1501 21.628C35.1306 21.6285 35.1141 21.6138 35.1133 21.5942C35.1124 21.5747 35.1275 21.5582 35.147 21.5574C35.3719 21.5467 35.6053 21.6507 35.8421 21.8622C35.9959 21.9996 36.0693 22.1338 36.0608 22.2622C36.2235 22.4711 36.2728 22.792 36.1697 23.0307C36.147 23.0836 36.1177 23.1302 36.083 23.1702C36.0897 23.2222 36.0901 23.2729 36.0893 23.3169C36.0813 23.6502 35.9159 23.9809 35.6781 24.1405C35.5697 24.2129 35.4524 24.2489 35.3293 24.2489ZM35.7675 22.8938C35.767 22.8938 35.7666 22.8938 35.7661 22.8938C35.6244 22.8947 35.3928 22.9405 35.3444 23.0356C35.3261 23.0711 35.3355 23.1138 35.3724 23.1654C35.4195 23.2311 35.5097 23.2716 35.6208 23.276C35.7813 23.2827 35.9146 23.2378 36.007 23.1471C35.9999 23.1094 35.9888 23.072 35.971 23.0374C35.935 22.9658 35.8581 22.8938 35.7675 22.8938ZM35.6559 22.124C35.5839 22.124 35.5079 22.1418 35.4301 22.1778C35.3844 22.1991 35.2764 22.2596 35.2581 22.3658C35.2377 22.4858 35.3315 22.528 35.4137 22.5422C35.6315 22.5796 35.9541 22.4596 35.9861 22.284C35.9755 22.2716 35.9644 22.26 35.9528 22.2485C35.8679 22.1662 35.7661 22.124 35.6559 22.124Z" fill="#A67C77"/>
<path d="M29.2261 19.8342C29.2287 19.8387 29.195 19.8676 29.1292 19.8938C29.0639 19.9205 28.9647 19.9391 28.8563 19.9258C28.7479 19.912 28.6563 19.8698 28.5994 19.828C28.5416 19.7862 28.5163 19.7502 28.5199 19.7467C28.5279 19.7356 28.6559 19.8582 28.8616 19.8813C29.067 19.9093 29.2212 19.8213 29.2261 19.8342Z" fill="#D6AA9C"/>
<path d="M29.2134 19.9929C29.2161 19.9973 29.1823 20.0262 29.1165 20.0525C29.0512 20.0791 28.9521 20.0978 28.8436 20.0845C28.7352 20.0707 28.6436 20.0285 28.5867 19.9867C28.5289 19.9449 28.5036 19.9089 28.5072 19.9053C28.5152 19.8942 28.6432 20.0169 28.8489 20.04C29.0543 20.068 29.2085 19.9805 29.2134 19.9929Z" fill="#D6AA9C"/>
<path d="M32.4475 19.5782C32.452 19.5809 32.4347 19.6218 32.3871 19.6747C32.3404 19.7275 32.26 19.7884 32.1569 19.8249C32.0538 19.8609 31.9529 19.8635 31.8835 19.852C31.8133 19.8404 31.7746 19.8195 31.7764 19.8147C31.7786 19.8013 31.948 19.8538 32.1427 19.7831C32.3382 19.7164 32.4373 19.5689 32.4475 19.5782Z" fill="#D6AA9C"/>
<path d="M32.5085 19.7258C32.5129 19.7284 32.4956 19.7693 32.4481 19.8222C32.4014 19.8751 32.3209 19.936 32.2178 19.9724C32.1147 20.0084 32.0138 20.0111 31.9445 19.9995C31.8743 19.988 31.8356 19.9671 31.8369 19.9622C31.8392 19.9489 32.0085 20.0013 32.2032 19.9307C32.3992 19.864 32.4983 19.7164 32.5085 19.7258Z" fill="#D6AA9C"/>
<g opacity="0.4">
<path d="M32.195 19.4982C32.2293 19.4497 32.2955 19.4266 32.3524 19.444C32.4093 19.4613 32.4515 19.5173 32.4528 19.5764C32.5297 19.5555 32.6133 19.6066 32.6484 19.6786C32.6835 19.7502 32.6786 19.8355 32.6577 19.9129C32.6475 19.9502 32.6333 19.988 32.6057 20.0155C32.5781 20.0431 32.535 20.0577 32.4995 20.0422C32.4581 20.0244 32.4408 19.9733 32.4426 19.9284C32.4444 19.8831 32.4608 19.84 32.4661 19.7951C32.4715 19.7502 32.4621 19.6986 32.4253 19.6729C32.3941 19.6506 32.3528 19.6524 32.315 19.6484C32.2773 19.6444 32.2341 19.6275 32.2253 19.5902C32.0835 19.6511 31.9164 19.6484 31.7764 19.584C31.9777 19.504 32.1635 19.4244 32.195 19.4982Z" fill="white"/>
</g>
<g opacity="0.2">
<path d="M32.0975 22.6067C32.2722 22.0129 32.3415 21.3996 32.3918 20.7876C32.3949 20.7511 32.3984 20.7129 32.4202 20.6818C32.442 20.6503 32.4886 20.628 32.53 20.6405C32.5691 20.652 32.5847 20.7027 32.554 20.7231C32.6162 21.84 32.2611 23.024 31.5944 23.98C31.5024 24.112 31.3744 24.2556 31.1904 24.2574C31.638 23.7774 31.9229 23.2005 32.0975 22.6067Z" fill="white"/>
</g>
<g opacity="0.4">
<path d="M28.2148 19.268C28.2522 19.2431 28.3028 19.2467 28.3433 19.2658C28.3837 19.2849 28.4162 19.3173 28.4477 19.3489C28.4237 19.3133 28.4539 19.2604 28.4957 19.2507C28.5375 19.2409 28.5806 19.2635 28.6113 19.2933C28.6419 19.3231 28.6642 19.3609 28.693 19.3924C28.7508 19.4564 28.8362 19.4942 28.9224 19.4947L29.0308 19.5307C28.8793 19.6222 28.6722 19.6107 28.5322 19.5022C28.4837 19.5462 28.4157 19.5671 28.3508 19.5578C28.2864 19.5484 28.2268 19.5089 28.193 19.4529C28.1579 19.3942 28.1579 19.3062 28.2148 19.268Z" fill="white"/>
</g>
<g opacity="0.4">
<path d="M32.5605 20.1827L32.5894 20.1956C32.6311 20.2169 32.6507 20.2733 32.6316 20.316C32.6129 20.3591 32.5583 20.3822 32.5143 20.3667C32.4698 20.3511 32.4423 20.2991 32.4538 20.2538C32.4649 20.2084 32.5138 20.1756 32.5605 20.1827Z" fill="white"/>
</g>
<path d="M30.1301 16.696C30.1332 16.6933 30.1594 16.7205 30.1772 16.7769C30.195 16.832 30.199 16.92 30.1563 17.0018C30.1132 17.0836 30.0385 17.1302 29.983 17.1471C29.9265 17.1649 29.8897 17.1587 29.8897 17.1547C29.8892 17.1489 29.9243 17.1458 29.9737 17.1236C30.0225 17.1022 30.0861 17.0569 30.1239 16.9853C30.1612 16.9133 30.1621 16.8356 30.1519 16.7831C30.1425 16.7298 30.1252 16.6991 30.1301 16.696Z" fill="#D6AA9C"/>
<path d="M30.873 17.2022C30.8726 17.2062 30.8357 17.204 30.789 17.1711C30.7432 17.1396 30.6903 17.0698 30.6895 16.9791C30.6899 16.8884 30.7423 16.8182 30.7877 16.7862C30.8339 16.7524 30.8708 16.7507 30.8712 16.7542C30.873 16.76 30.841 16.7707 30.8037 16.8058C30.7668 16.8396 30.7255 16.9027 30.725 16.9787C30.7259 17.0547 30.7677 17.1178 30.8046 17.1511C30.8428 17.1862 30.8752 17.1969 30.873 17.2022Z" fill="#D6AA9C"/>
<path d="M37.6551 33.5187C37.6543 33.5173 37.6649 33.5067 37.6871 33.4867C37.7111 33.4658 37.7445 33.4373 37.7876 33.4009C37.8756 33.3253 38.0098 33.2196 38.1769 33.0765C38.5134 32.7929 38.9934 32.3742 39.5551 31.824C40.116 31.2733 40.7516 30.584 41.3903 29.764C41.5498 29.5591 41.7098 29.3462 41.8694 29.1258C42.0303 28.9049 42.1925 28.6827 42.3258 28.436C42.5943 27.944 42.7934 27.3889 42.9027 26.8045C42.9538 26.5116 42.9783 26.2173 42.9636 25.9298C42.9494 25.6422 42.8943 25.3618 42.7805 25.1089C42.5569 24.5982 42.1774 24.1845 41.7307 23.932C41.288 23.6702 40.8063 23.5405 40.3556 23.4569C39.9018 23.3778 39.4725 23.3413 39.0805 23.3151C38.688 23.2902 38.3316 23.276 38.0191 23.2409C37.7067 23.208 37.4405 23.1565 37.2267 23.0991C37.0134 23.0418 36.8507 22.9862 36.7423 22.9449C36.6898 22.924 36.6494 22.9076 36.6196 22.8956C36.592 22.884 36.5783 22.8773 36.5791 22.8756C36.5796 22.8738 36.5947 22.8773 36.6231 22.8862C36.6534 22.896 36.6951 22.9089 36.7489 22.9262C36.8591 22.9613 37.0227 23.0111 37.236 23.0622C37.4494 23.1133 37.7143 23.1591 38.0245 23.1867C38.3347 23.216 38.6903 23.2253 39.084 23.2462C39.4778 23.268 39.9094 23.3005 40.3689 23.3769C40.8258 23.4582 41.3178 23.5867 41.7756 23.8542C42.2374 24.1116 42.6356 24.5422 42.8676 25.0698C42.9871 25.3342 43.0449 25.6285 43.06 25.9245C43.0751 26.2213 43.0503 26.5222 42.9983 26.8213C42.8867 27.4178 42.684 27.9805 42.4089 28.4818C42.272 28.7338 42.1045 28.9618 41.944 29.1805C41.7831 29.4009 41.6214 29.6138 41.4605 29.8191C40.8156 30.6396 40.1716 31.3267 39.6027 31.8729C39.0334 32.4187 38.5449 32.8302 38.2005 33.1053C38.0294 33.244 37.8911 33.3453 37.7991 33.416C37.7538 33.4493 37.7187 33.4756 37.6929 33.4942C37.6689 33.5116 37.656 33.52 37.6551 33.5187Z" fill="white"/>
<path d="M34.2195 36.0448C34.2204 36.0462 34.2039 36.0551 34.1715 36.0697C34.1368 36.0848 34.0888 36.1066 34.0261 36.1342C33.9613 36.1617 33.8817 36.1959 33.7879 36.2355C33.691 36.2697 33.5799 36.3088 33.4546 36.3524C33.2021 36.4359 32.8875 36.5208 32.5173 36.5968C32.1457 36.6631 31.719 36.7297 31.2439 36.7537C30.7693 36.7813 30.2475 36.7826 29.6893 36.7546C29.131 36.7271 28.5364 36.6715 27.9133 36.5999C27.2901 36.5279 26.6368 36.4462 25.9604 36.3564C25.2839 36.2675 24.5839 36.1733 23.8657 36.0964C22.4301 35.9382 21.0461 35.8906 19.8066 36.0577C19.4964 36.0915 19.2008 36.1586 18.9328 36.2755C18.7995 36.3337 18.6728 36.4026 18.5613 36.4871C18.451 36.5724 18.3559 36.6737 18.2915 36.7897C18.2266 36.9053 18.1959 37.0346 18.1964 37.1631C18.199 37.2911 18.2359 37.4146 18.2919 37.5262C18.4075 37.7493 18.5848 37.9262 18.7613 38.0795C19.1159 38.3902 19.4804 38.6177 19.811 38.7937C20.143 38.9679 20.4448 39.0871 20.6955 39.1702C20.9466 39.2528 21.147 39.2995 21.283 39.3293C21.3501 39.3426 21.4017 39.3528 21.4386 39.3604C21.4737 39.3675 21.4915 39.3724 21.491 39.3742C21.4906 39.3759 21.4724 39.3746 21.4368 39.3706C21.4013 39.3662 21.3479 39.3604 21.279 39.3493C21.1413 39.3257 20.9381 39.2848 20.6835 39.2071C20.4293 39.1288 20.123 39.0142 19.7853 38.8431C19.4493 38.6702 19.0781 38.4439 18.7155 38.1324C18.5346 37.9782 18.3497 37.7986 18.2239 37.5608C18.1626 37.4422 18.1213 37.3071 18.1173 37.1653C18.1155 37.0244 18.1488 36.8791 18.2199 36.7511C18.2901 36.6226 18.3928 36.5124 18.5097 36.4213C18.6279 36.3311 18.7595 36.2582 18.8977 36.1973C19.1741 36.0746 19.4817 36.0044 19.7941 35.9688C21.0435 35.7955 22.4364 35.8404 23.8755 35.9995C24.5959 36.0764 25.2964 36.1715 25.9724 36.2617C26.6484 36.3528 27.3008 36.4368 27.923 36.5111C28.5453 36.5848 29.1373 36.6435 29.6928 36.6742C30.2484 36.7053 30.767 36.7084 31.239 36.6853C31.7119 36.6662 32.1359 36.6044 32.5061 36.5439C32.875 36.4733 33.1893 36.3946 33.4421 36.3168C33.5679 36.2764 33.6795 36.2404 33.7768 36.2088C33.8715 36.1724 33.9519 36.1417 34.0177 36.1164C34.0817 36.0924 34.131 36.0742 34.1666 36.0608C34.2013 36.0484 34.219 36.0431 34.2195 36.0448Z" fill="white"/>
<path d="M39.5045 27.1084C39.5041 27.108 39.5089 27.1026 39.5192 27.0929C39.5307 27.0826 39.5458 27.0689 39.5663 27.0506C39.6076 27.0129 39.6694 26.9577 39.7472 26.8817C39.9018 26.7297 40.1321 26.5031 40.3783 26.1724C40.5009 26.0075 40.6169 25.808 40.6774 25.5657C40.7378 25.3266 40.7516 25.0453 40.6494 24.7751C40.5374 24.5133 40.3423 24.2515 40.0641 24.0817C39.9249 23.9969 39.7667 23.9351 39.5978 23.9C39.4285 23.8653 39.2498 23.8546 39.0672 23.8622C38.3325 23.9084 37.5316 24.0475 36.6996 24.2933C35.8667 24.536 35.0041 24.8862 34.1298 25.32C33.2556 25.7542 32.3663 26.2684 31.4738 26.8457C30.5792 27.4209 29.6836 28.0631 28.7569 28.7089C27.8307 29.356 26.9125 29.9706 25.9929 30.512C25.0703 31.0471 24.1481 31.5146 23.2258 31.8533C22.9943 31.9351 22.7681 32.0217 22.5374 32.0875C22.4232 32.1226 22.3094 32.1573 22.1965 32.1915C22.0823 32.2204 21.9685 32.2493 21.8556 32.2777C21.4063 32.3986 20.9547 32.4675 20.5165 32.4809C20.2974 32.4857 20.0809 32.4804 19.8703 32.4511C19.7645 32.4409 19.6618 32.4173 19.5592 32.3982C19.5081 32.3871 19.4583 32.3715 19.4085 32.3586C19.3583 32.3457 19.3089 32.332 19.2609 32.3129C19.0649 32.2515 18.8872 32.1529 18.7209 32.0484C18.6441 31.9871 18.5601 31.9351 18.4938 31.8649C18.4592 31.8315 18.4245 31.7982 18.3903 31.7653C18.3601 31.7284 18.3298 31.692 18.2996 31.6555C18.0601 31.3622 17.9383 31.0097 17.8947 30.6764C17.8547 30.3404 17.8845 30.0182 17.9614 29.7315C18.0356 29.444 18.1574 29.1906 18.2969 28.9795C18.4352 28.7666 18.5827 28.588 18.7227 28.4346C19.0041 28.1289 19.2525 27.9222 19.4227 27.7862C19.5085 27.7186 19.5752 27.6689 19.6209 27.6369C19.6432 27.6213 19.6605 27.6093 19.6729 27.6009C19.6849 27.5929 19.6907 27.5893 19.6916 27.5902C19.6921 27.5911 19.6867 27.596 19.6761 27.6049C19.6641 27.6146 19.6481 27.6275 19.6272 27.6449C19.5836 27.6795 19.5192 27.732 19.4356 27.8017C19.2698 27.9422 19.0263 28.1529 18.7512 28.4604C18.6143 28.6146 18.4703 28.7937 18.3365 29.0049C18.2014 29.2151 18.0854 29.4631 18.0147 29.7457C17.9418 30.0271 17.9156 30.3422 17.9569 30.6689C18.0018 30.9933 18.1223 31.3324 18.3543 31.6129C18.3832 31.6475 18.4125 31.6826 18.4418 31.7182C18.4752 31.7497 18.5085 31.7817 18.5423 31.8137C18.6063 31.8813 18.6881 31.9306 18.7623 31.9897C18.9236 32.0897 19.0956 32.184 19.2863 32.2426C19.3325 32.2609 19.3809 32.2742 19.4298 32.2862C19.4787 32.2986 19.5272 32.3137 19.5765 32.324C19.6765 32.3422 19.7769 32.3649 19.8805 32.3742C20.0863 32.4017 20.2987 32.4062 20.5143 32.4004C20.9458 32.3857 21.3894 32.3164 21.8352 32.1951C21.9472 32.1662 22.0596 32.1373 22.1729 32.1084C22.2849 32.0737 22.3978 32.0391 22.5112 32.004C22.7396 31.9382 22.9645 31.8515 23.1943 31.7697C24.1094 31.4311 25.0263 30.9644 25.9445 30.4302C26.8601 29.8897 27.7756 29.276 28.7009 28.6297C29.6267 27.9844 30.5241 27.3417 31.4218 26.7662C32.3174 26.188 33.2107 25.6737 34.0898 25.24C34.9689 24.8062 35.8374 24.4569 36.6769 24.216C37.5156 23.9724 38.3218 23.836 39.0645 23.7937C39.2516 23.7871 39.4361 23.7991 39.6112 23.8364C39.7863 23.8742 39.9516 23.9395 40.0965 24.0297C40.3876 24.2115 40.5849 24.4804 40.7005 24.7569C40.8054 25.0417 40.7872 25.3333 40.7223 25.5786C40.6574 25.8266 40.5347 26.0315 40.4085 26.196C40.1552 26.5266 39.9201 26.7489 39.7605 26.8969C39.6801 26.9706 39.6156 27.0235 39.5725 27.0591C39.5512 27.0755 39.5343 27.0884 39.5223 27.0977C39.5112 27.1053 39.5049 27.1093 39.5045 27.1084Z" fill="white"/>
</g>
</g>
<defs>
<clipPath id="clip0_1141_49264">
<rect width="48" height="48" rx="24" fill="white"/>
</clipPath>
<clipPath id="clip1_1141_49264">
<rect width="48" height="48" fill="white"/>
</clipPath>
</defs>
</svg>
