<svg width="48" height="48" viewBox="0 0 48 48" fill="none" xmlns="http://www.w3.org/2000/svg">
<g clip-path="url(#clip0_1141_49269)">
<rect width="48" height="48" rx="24" fill="white"/>
<g clip-path="url(#clip1_1141_49269)">
<g opacity="0.25">
<path d="M11.5176 31.0084C11.5176 31.0084 10.4731 31.3018 11.3887 33.552C12.3047 35.8027 12.9754 36.9351 12.9754 36.9351C12.9754 36.9351 13.1278 37.4524 12.6998 37.4942C12.2718 37.536 11.3567 37.3084 11.1247 37.8084C10.8842 38.3267 11.2296 38.8644 11.9794 39.3742C12.7291 39.884 14.3309 41.0618 14.4754 41.1689C14.6171 41.2738 14.7474 41.5196 14.4602 41.5951C14.1731 41.6702 12.0674 41.7098 12.146 42.7076C12.2247 43.7058 14.5469 44.7831 14.7985 44.9058C15.05 45.0284 15.1029 45.144 15.0696 45.2849C15.0362 45.4258 14.3269 45.3724 13.7287 45.408C13.13 45.4436 12.4425 45.5902 12.5362 46.1622C12.6296 46.7342 13.9491 48.032 17.3678 48.6649L18.9709 48.8542L19.962 47.5707C21.9158 44.6947 21.9202 42.844 21.5789 42.3756C21.238 41.9067 20.6505 42.2929 20.2042 42.6933C19.758 43.0938 19.2976 43.6356 19.174 43.5604C19.0505 43.4849 19.0051 43.3662 19.0949 43.1009C19.1847 42.8356 20.0509 40.4267 19.3967 39.6693C18.742 38.912 17.2336 40.3818 16.9785 40.5329C16.7234 40.684 16.6398 40.4187 16.6651 40.244C16.6905 40.0662 16.9794 38.0991 17.1438 37.2076C17.3082 36.316 17.1687 35.692 16.6314 35.4987C16.1131 35.3124 15.6314 36.1231 15.3007 36.3982C14.97 36.6733 14.7091 36.2013 14.7091 36.2013C14.7091 36.2013 14.3754 34.928 13.4189 32.6942C12.4625 30.4609 11.4985 31.0156 11.4985 31.0156" fill="#B1B5DB"/>
</g>
<path d="M18.0695 47.0316C18.0664 47.0289 18.0989 46.9858 18.1593 46.9098C18.2269 46.8262 18.3135 46.7187 18.4171 46.5898C18.6349 46.3196 18.934 45.9453 19.2531 45.5231C19.5731 45.1013 19.8527 44.712 20.0531 44.4289C20.1491 44.2942 20.2291 44.1818 20.2913 44.0938C20.3482 44.0151 20.3807 43.9725 20.3842 43.9742C20.3873 43.9765 20.3607 44.0231 20.3095 44.1053C20.2584 44.188 20.182 44.3062 20.0855 44.4507C19.8927 44.7396 19.6175 45.1333 19.2971 45.556C18.9775 45.9791 18.6727 46.3502 18.4469 46.6142C18.3335 46.7462 18.2411 46.8516 18.1753 46.9231C18.11 46.9956 18.0722 47.0342 18.0695 47.0316Z" fill="#E0E0E0"/>
<g opacity="0.25">
<path d="M31.5673 48.568C29.2904 47.1071 28.6748 44.2533 28.661 41.6671C28.6588 41.2356 28.5935 40.7827 28.7837 40.3965C28.9739 40.0102 29.4424 39.7329 29.8357 39.8991C30.1619 40.0373 30.3161 40.404 30.5073 40.7053C30.7615 41.1058 31.1299 41.4311 31.5566 41.6316C31.8366 41.7631 32.1797 41.8369 32.445 41.6769C32.809 41.4569 32.8326 40.9418 32.813 40.5129C32.7766 39.7138 32.7401 38.9147 32.7037 38.116C32.6841 37.6876 32.6655 37.2493 32.7828 36.8373C32.9001 36.4253 33.1801 36.0356 33.5833 35.9053C33.9868 35.7751 34.5006 35.9902 34.6033 36.4067C34.6459 36.58 34.6175 36.7627 34.6366 36.94C34.6557 37.1178 34.7464 37.3111 34.917 37.3542C35.0904 37.3978 35.257 37.2693 35.3801 37.1391C35.8059 36.6889 36.0841 36.1191 36.3428 35.5533C36.6019 34.9876 36.8517 34.4089 37.2348 33.9209C37.6179 33.4329 38.1588 33.0369 38.7713 32.9778C39.3841 32.9187 40.0535 33.272 40.2321 33.8689C40.4117 34.4676 40.0828 35.0947 39.7184 35.5991C39.1775 36.3476 38.529 37.016 37.8001 37.5773C37.6686 37.6787 37.5264 37.788 37.481 37.9489C37.3993 38.2387 37.681 38.5116 37.9673 38.5947C38.2913 38.6885 38.6366 38.6418 38.9726 38.668C39.3086 38.6942 39.6766 38.8276 39.8153 39.1387C40.0081 39.5702 39.6597 40.044 39.3108 40.3591C38.6121 40.9902 37.8064 41.4987 36.9393 41.8556C36.6281 41.9836 36.3001 42.0978 36.0548 42.3293C35.809 42.5609 35.6708 42.9525 35.8361 43.2485C36.0019 43.5449 36.4001 43.6258 36.7281 43.5516C37.0561 43.4773 37.3446 43.2862 37.6548 43.1551C38.2353 42.9093 38.9979 42.92 39.3953 43.4147C39.6566 43.7396 39.6966 44.2049 39.5868 44.6089C39.477 45.0129 39.2361 45.3667 38.9784 45.6942C38.0775 46.8396 36.9033 47.7791 35.5548 48.3071C34.2073 48.8333 32.9455 49.0116 31.5673 48.568Z" fill="#B1B5DB"/>
</g>
<path d="M32.2349 46.8187C32.2322 46.82 32.2184 46.7973 32.1944 46.7529C32.1669 46.7 32.1331 46.6356 32.0922 46.5574C32.0042 46.3871 31.8833 46.1369 31.7384 45.8267C31.4478 45.2053 31.0726 44.3351 30.6722 43.3685C30.2713 42.4018 29.9051 41.5289 29.6278 40.9027C29.4918 40.5982 29.3802 40.348 29.2971 40.1618C29.2615 40.0809 29.2322 40.0142 29.2082 39.9596C29.1886 39.9129 29.1798 39.888 29.182 39.8867C29.1846 39.8858 29.1984 39.908 29.2224 39.9525C29.25 40.0053 29.2838 40.0698 29.3246 40.148C29.4126 40.3182 29.5335 40.568 29.6784 40.8787C29.9691 41.5 30.3438 42.3702 30.7446 43.3374C31.1451 44.3036 31.5113 45.1765 31.7886 45.8031C31.9246 46.1076 32.0362 46.3578 32.1193 46.544C32.1549 46.6249 32.1842 46.6916 32.2082 46.7462C32.2282 46.7925 32.2371 46.8174 32.2349 46.8187Z" fill="#E0E0E0"/>
<g opacity="0.47">
<path d="M18.774 48.5773C18.0775 46.9347 17.1349 44.6564 16.1015 42.1369C15.0687 39.6178 14.1318 37.3382 13.4447 35.6916C13.1011 34.8702 12.8224 34.2049 12.6291 33.7422C12.534 33.5138 12.4593 33.3356 12.4078 33.212C12.3838 33.1529 12.3651 33.1071 12.3513 33.0733C12.3389 33.0422 12.334 33.0253 12.334 33.0253C12.334 33.0253 12.3424 33.0404 12.3567 33.0711C12.3713 33.104 12.3918 33.1493 12.418 33.2076C12.4718 33.3302 12.5495 33.5071 12.6487 33.7338C12.8487 34.1911 13.1327 34.8547 13.4807 35.6764C14.1771 37.3196 15.1198 39.5969 16.1527 42.116C17.186 44.6356 18.1229 46.916 18.81 48.5627" fill="#B1B5DB"/>
<path d="M12.3926 38.1782C12.3944 38.1746 12.4331 38.1893 12.5024 38.2182C12.5718 38.2471 12.6709 38.2915 12.7926 38.348C13.0358 38.4613 13.3678 38.6262 13.7304 38.8151C14.0864 39.0026 14.4082 39.172 14.6571 39.3031C14.7673 39.3604 14.8611 39.4093 14.9384 39.4498C15.0051 39.484 15.0411 39.5049 15.0393 39.5084C15.0375 39.512 14.9984 39.4978 14.9291 39.4693C14.8598 39.4404 14.7606 39.396 14.6393 39.3382C14.3971 39.2226 14.0673 39.0533 13.7046 38.8644C13.3478 38.6795 13.0246 38.5124 12.7749 38.3831C12.6642 38.3262 12.57 38.2778 12.4926 38.2378C12.4269 38.2026 12.3909 38.1818 12.3926 38.1782Z" fill="#B1B5DB"/>
<path d="M15.1577 39.4146C15.1439 39.4084 15.4537 38.7089 15.8492 37.8529C16.2452 36.9964 16.5772 36.3075 16.591 36.3142C16.6048 36.3204 16.2954 37.02 15.8994 37.8764C15.5039 38.732 15.1714 39.4213 15.1577 39.4146Z" fill="#B1B5DB"/>
<path d="M16.5695 43.3551C16.5669 43.3524 16.5931 43.3191 16.6424 43.2609C16.7002 43.1942 16.7713 43.1124 16.8544 43.016C17.0335 42.8093 17.2793 42.5226 17.5397 42.1969C17.8006 41.8715 18.0273 41.5693 18.1895 41.3493C18.2651 41.2471 18.3295 41.16 18.3824 41.0889C18.4282 41.0275 18.4553 40.9946 18.4584 40.9969C18.4615 40.9991 18.4406 41.036 18.4002 41.1009C18.3597 41.1658 18.2989 41.2586 18.2215 41.3715C18.0673 41.5978 17.8451 41.9049 17.5833 42.2311C17.3224 42.5578 17.0704 42.8413 16.8837 43.0418C16.79 43.1418 16.7131 43.2213 16.6584 43.2751C16.6037 43.3293 16.5722 43.3578 16.5695 43.3551Z" fill="#B1B5DB"/>
<path d="M13.8223 42.7871C13.8232 42.7836 13.8623 42.7871 13.9321 42.7973C14.0023 42.8076 14.1032 42.824 14.2276 42.8458C14.4769 42.8889 14.8205 42.952 15.1992 43.0253C15.5783 43.0987 15.9205 43.168 16.1676 43.2209C16.2912 43.2475 16.3912 43.2698 16.4601 43.2862C16.5289 43.3027 16.5667 43.3138 16.5658 43.3178C16.5649 43.3213 16.5258 43.3178 16.4561 43.3075C16.3858 43.2973 16.2849 43.2809 16.1605 43.2591C15.9112 43.216 15.5676 43.1529 15.1889 43.0795C14.8103 43.0062 14.4676 42.9369 14.2205 42.884C14.0969 42.8573 13.9969 42.8351 13.9281 42.8187C13.8592 42.8018 13.8214 42.7911 13.8223 42.7871Z" fill="#B1B5DB"/>
<path d="M14.626 46.424C14.6269 46.4204 14.6767 46.4258 14.7664 46.4387C14.8669 46.4547 14.994 46.4751 15.1455 46.4991C15.4651 46.5529 15.906 46.6307 16.3927 46.7195C16.8793 46.8089 17.3189 46.8929 17.6371 46.956C17.7873 46.9871 17.9135 47.0133 18.0131 47.0338C18.1015 47.0533 18.1504 47.0662 18.1495 47.0698C18.1487 47.0733 18.0989 47.068 18.0091 47.0551C17.9087 47.0391 17.7815 47.0187 17.63 46.9947C17.3104 46.9409 16.8695 46.8631 16.3829 46.7738C15.8967 46.6844 15.4567 46.6004 15.1389 46.5373C14.9887 46.5062 14.8624 46.48 14.7629 46.4595C14.674 46.4404 14.6251 46.428 14.626 46.424Z" fill="#B1B5DB"/>
<path d="M32.1709 46.9227C32.4998 45.604 32.9802 44.1889 33.5336 42.7258C33.6731 42.3604 33.8113 41.9995 33.9473 41.644C34.0838 41.2893 34.2193 40.9373 34.3731 40.6018C34.6776 39.9284 35.022 39.3044 35.3669 38.7222C35.7118 38.1395 36.0607 37.5995 36.3905 37.0969C36.7216 36.5946 37.0385 36.1324 37.346 35.7231C37.958 34.9022 38.5287 34.3 38.9376 33.9026C39.1416 33.7031 39.3047 33.5538 39.4171 33.4538C39.4709 33.4062 39.5136 33.3689 39.5451 33.3409C39.5745 33.316 39.5896 33.3035 39.5905 33.3044C39.5913 33.3053 39.578 33.32 39.5505 33.3466C39.5198 33.376 39.4793 33.4155 39.4278 33.4653C39.3193 33.5689 39.1593 33.7222 38.9589 33.9244C38.5576 34.328 37.9949 34.9342 37.3905 35.7569C37.0869 36.1667 36.7731 36.6298 36.4451 37.1329C36.118 37.6369 35.7718 38.1778 35.4291 38.7595C35.0865 39.3413 34.7451 39.964 34.4433 40.6338C34.2909 40.968 34.1571 41.3169 34.0202 41.6724C33.8842 42.028 33.7465 42.3889 33.6069 42.7538C33.054 44.2155 32.5727 45.6267 32.2411 46.9404" fill="#B1B5DB"/>
<path d="M34.3949 40.5978C34.3896 40.5987 34.3727 40.5342 34.346 40.4164C34.3189 40.2987 34.2851 40.1276 34.2464 39.9151C34.1691 39.4907 34.082 38.9004 33.9887 38.2498C33.8953 37.5987 33.8002 37.0116 33.7167 36.5893C33.6753 36.3782 33.6402 36.2076 33.6144 36.0898C33.5891 35.972 33.578 35.9062 33.5833 35.9044C33.5887 35.9031 33.61 35.9662 33.6442 36.0822C33.6793 36.1978 33.7229 36.3671 33.7709 36.5773C33.8691 36.9982 33.9731 37.5862 34.0664 38.2378C34.1571 38.8804 34.2389 39.4613 34.3011 39.9053C34.3305 40.1058 34.3558 40.2747 34.3758 40.4102C34.3931 40.5298 34.4002 40.5964 34.3949 40.5978Z" fill="#B1B5DB"/>
<path d="M39.8681 39.3502C39.8685 39.3555 39.7903 39.368 39.6494 39.3853C39.5085 39.4035 39.3045 39.4284 39.0534 39.468C38.5507 39.5422 37.8596 39.6693 37.1036 39.8431C36.3476 40.0182 35.6699 40.2053 35.1841 40.3551C34.9405 40.4284 34.745 40.4929 34.6094 40.5364C34.4743 40.5809 34.3983 40.6026 34.3965 40.5977C34.3947 40.5924 34.4667 40.5604 34.5992 40.5071C34.7316 40.4542 34.925 40.3813 35.1672 40.3013C35.6503 40.1373 36.3281 39.9409 37.0863 39.7653C37.8445 39.5915 38.5401 39.4724 39.0463 39.4124C39.2992 39.3804 39.505 39.3635 39.6472 39.3551C39.7885 39.3466 39.8672 39.3449 39.8681 39.3502Z" fill="#B1B5DB"/>
<path d="M39.4683 44.1693C39.4692 44.172 39.4443 44.1831 39.3967 44.2022C39.3403 44.2236 39.2709 44.2498 39.1869 44.2818C38.9927 44.3533 38.7309 44.4498 38.4123 44.5667C37.7585 44.8076 36.8589 45.1507 35.8656 45.5311C34.8718 45.912 33.9687 46.2467 33.3096 46.4742C32.9803 46.588 32.7127 46.6773 32.5265 46.7356C32.4403 46.7618 32.3696 46.7836 32.3118 46.8009C32.2625 46.8151 32.2358 46.8213 32.2354 46.8187C32.2345 46.816 32.2594 46.8049 32.3069 46.7858C32.3634 46.7644 32.4327 46.7382 32.5167 46.7062C32.7109 46.6347 32.9727 46.5387 33.2909 46.4213C33.9447 46.1804 34.8443 45.8373 35.838 45.4569C36.8314 45.0764 37.7345 44.7413 38.3936 44.5138C38.7229 44.4 38.9905 44.3107 39.1767 44.2524C39.2629 44.2262 39.3336 44.2044 39.3914 44.1871C39.4407 44.1724 39.4669 44.1667 39.4683 44.1693Z" fill="#B1B5DB"/>
</g>
<path d="M37.0206 12.7862L35.3682 17.696C35.2331 18.0973 35.4184 18.5364 35.8002 18.72C36.2029 18.9133 36.6869 18.7569 36.9002 18.3644L39.3966 13.7715C39.5855 13.4235 39.4273 12.9889 39.0589 12.8444L37.8846 12.3835C37.5349 12.2458 37.1406 12.4293 37.0206 12.7862Z" fill="#B1B5DB"/>
<path d="M35.9691 21.9302C35.5157 22.4596 34.7193 22.5209 34.19 22.0676C33.6606 21.6142 33.5993 20.8173 34.0526 20.2885C34.5059 19.7591 35.3028 19.6978 35.8317 20.1511C36.3611 20.6045 36.4228 21.4009 35.9691 21.9302Z" fill="#B1B5DB"/>
<path d="M39.7304 21.4813L40.3282 23.2547C40.3771 23.3995 40.5264 23.4853 40.6762 23.4547C40.8344 23.4222 40.9393 23.2716 40.9148 23.112L40.6291 21.2453C40.6073 21.104 40.4668 21.0138 40.3291 21.0524L39.8908 21.1764C39.7597 21.2133 39.6868 21.3524 39.7304 21.4813Z" fill="#B1B5DB"/>
<path d="M41.4266 24.3409C41.412 24.592 41.1964 24.784 40.9449 24.7693C40.6937 24.7547 40.5017 24.5391 40.5164 24.2876C40.5311 24.0365 40.7466 23.8445 40.9982 23.8591C41.2497 23.8742 41.4413 24.0898 41.4266 24.3409Z" fill="#B1B5DB"/>
<path d="M18.5964 44.672L17.8018 48.9369H33.4409C33.4409 48.9369 32.9049 46.4133 30.6782 43.6182L18.5964 44.672Z" fill="#737797"/>
<path d="M18.3712 40.5885L17.8098 32.4298L18.7387 24.0787L23.8169 23.3702L27.5321 23.7809L30.0667 32.352L30.7498 39.9902C30.7498 39.9902 31.1121 41.1956 31.5325 42.6031C31.7663 43.3854 31.4481 44.2316 30.7507 44.656C30.1472 45.0231 29.2445 45.3089 27.9396 45.1725C24.9307 44.8587 21.5183 44.3094 19.8707 44.584C18.2232 44.8587 17.9881 44.4662 17.9881 44.4662C17.9881 44.4662 17.4681 43.9565 17.6298 43.368C17.7921 42.7805 18.3712 40.5885 18.3712 40.5885Z" fill="#B1B5DB"/>
<path d="M30.5827 39.9422C30.5835 39.9436 30.5689 39.956 30.54 39.9782C30.5062 40.0031 30.464 40.0347 30.4124 40.0733C30.296 40.1596 30.1364 40.2769 29.9418 40.4204C29.5453 40.7151 29.0053 41.132 28.4138 41.5991C27.8222 42.0667 27.2871 42.4907 26.8951 42.7916C26.6991 42.9422 26.5396 43.0627 26.428 43.144C26.3756 43.1818 26.3329 43.2124 26.2991 43.2373C26.2693 43.2582 26.2529 43.2684 26.252 43.2671C26.2511 43.2658 26.2649 43.2529 26.2929 43.2293C26.3253 43.2031 26.3662 43.1698 26.4164 43.1289C26.5298 43.0387 26.6844 42.9147 26.8738 42.764C27.2649 42.452 27.796 42.0284 28.3831 41.56C28.9747 41.0924 29.5187 40.6796 29.9209 40.392C30.1218 40.248 30.2858 40.1338 30.4013 40.0573C30.4555 40.0218 30.4995 39.9929 30.5347 39.9702C30.5649 39.9502 30.5818 39.9404 30.5827 39.9422Z" fill="white"/>
<path d="M26.4848 26.344C26.4737 26.3525 26.3564 26.2143 26.2231 26.036C26.0893 25.8578 25.9897 25.7067 26.0008 25.6983C26.012 25.6903 26.1288 25.828 26.2626 26.0063C26.396 26.1845 26.4955 26.3356 26.4848 26.344Z" fill="#666B84"/>
<path d="M27.0955 25.0867C27.0826 25.0951 26.9751 24.9222 26.7773 24.7774C26.5813 24.6294 26.3848 24.576 26.3897 24.5614C26.3902 24.5489 26.6013 24.5831 26.8071 24.7378C27.0137 24.8898 27.1071 25.0827 27.0955 25.0867Z" fill="#666B84"/>
<path d="M22.2894 26.1827C22.3014 26.1924 22.1677 26.34 22.093 26.5662C22.0152 26.7915 22.0321 26.9898 22.0166 26.9907C22.005 26.9947 21.9641 26.7884 22.0459 26.5507C22.125 26.3115 22.2823 26.1724 22.2894 26.1827Z" fill="#666B84"/>
<path d="M20.3545 24.5138C20.3545 24.5285 20.1345 24.5329 19.8674 24.572C19.6003 24.6103 19.3883 24.668 19.3839 24.6543C19.3794 24.6423 19.5883 24.5618 19.8603 24.5232C20.1319 24.4832 20.355 24.5009 20.3545 24.5138Z" fill="#666B84"/>
<g opacity="0.3">
<path d="M18.4209 39.8684C19.7316 39.3293 20.6129 38.0658 21.1422 36.7511C21.672 35.4364 21.9218 34.0258 22.4022 32.6924C22.5427 32.3031 22.7885 31.8569 23.2022 31.8449C23.5413 31.8347 23.8031 32.1293 23.9978 32.4071C24.9169 33.7204 25.4982 35.2338 26.2053 36.6724C26.912 38.1111 27.7916 39.5298 29.1182 40.4293C29.3631 40.5956 29.6338 40.7462 29.9293 40.7627C30.2249 40.7796 30.548 40.6262 30.6431 40.3458C30.6818 40.2311 30.68 40.1071 30.6778 39.9862C30.6645 39.2667 30.6516 38.5471 30.6382 37.8276C30.624 37.0502 30.6058 36.252 30.312 35.532C29.8831 34.4809 28.9365 33.7493 28.0667 33.0196C26.9227 32.06 25.8405 31.0116 24.9742 29.7956C24.6662 29.3631 24.3787 28.9027 23.9609 28.5751C23.5431 28.248 22.9502 28.0787 22.4742 28.3138C21.9445 28.5751 21.7427 29.2138 21.5902 29.7849C20.7227 33.032 19.7476 36.2502 18.6667 39.4329" fill="#040000"/>
</g>
<path d="M18.2902 39.4098C19.2489 39.3275 19.9844 38.268 20.2467 37.3422L22.3529 29.9124L19.1369 27.7569L17.8547 32.0293L18.7391 24.0791C18.7391 24.0791 15.7871 24.8267 15.0955 28.404C14.5089 31.4378 14.3071 34.2618 14.4449 35.3658C14.4449 35.3653 14.4658 39.7373 18.2902 39.4098Z" fill="#B1B5DB"/>
<path d="M23.7773 30.536C23.7773 30.536 25.2396 34.2373 26.6836 36.3836C28.064 38.4356 30.3973 40.5036 31.8956 40.2587C33.3938 40.0138 34.1756 36.1951 34.1756 34.7689C34.1756 33.3427 32.3431 27.4747 32.3431 27.4747C32.3431 27.4747 31.9765 24.1765 28.7862 23.7813L26.5409 23.6716L29.9507 32.1089L28.5169 30.3978C28.5169 30.3978 28.7009 29.9378 28.4707 29.4316C28.2405 28.9253 26.7222 27.6373 26.7222 27.6373L23.7773 30.536Z" fill="#B1B5DB"/>
<path d="M17.934 30.9707C17.9305 30.9716 17.9185 30.9294 17.8989 30.8529C17.8802 30.7765 17.8505 30.6663 17.8109 30.5316C17.7322 30.2614 17.6047 29.8938 17.4202 29.5067C17.2349 29.1196 17.0291 28.7889 16.8687 28.5583C16.7887 28.4427 16.7216 28.3507 16.674 28.2876C16.6269 28.2245 16.602 28.1885 16.6047 28.1863C16.6074 28.184 16.6371 28.216 16.6891 28.2756C16.7416 28.3347 16.8131 28.424 16.8976 28.5378C17.0665 28.7645 17.2789 29.0952 17.4656 29.4854C17.6514 29.8756 17.7749 30.2485 17.8451 30.5223C17.8802 30.6592 17.9051 30.7712 17.918 30.8489C17.9314 30.9267 17.9371 30.9703 17.934 30.9707Z" fill="#666B84"/>
<path d="M28.3731 35.512C28.3713 35.5125 28.3638 35.496 28.3509 35.4636C28.3367 35.4258 28.3184 35.3787 28.2967 35.3213C28.2731 35.2596 28.2456 35.1836 28.2193 35.0933C28.1922 35.0036 28.158 34.9018 28.1313 34.7867C28.1016 34.672 28.0704 34.5462 28.0456 34.4094C28.0158 34.2734 27.9958 34.1258 27.9727 33.9711C27.9344 33.6605 27.9104 33.3169 27.9158 32.9556C27.9238 32.5942 27.9602 32.2511 28.0096 31.9422C28.0384 31.7885 28.0633 31.6418 28.098 31.5071C28.1278 31.3711 28.1638 31.2467 28.1976 31.1333C28.2282 31.0191 28.2664 30.9191 28.2967 30.8302C28.326 30.7409 28.3562 30.6658 28.382 30.6053C28.406 30.5489 28.4256 30.5022 28.4411 30.4653C28.4553 30.4333 28.4633 30.4174 28.4647 30.4178C28.466 30.4182 28.4611 30.436 28.45 30.4689C28.4367 30.5067 28.4198 30.5542 28.3993 30.612C28.3762 30.6738 28.3491 30.7493 28.322 30.8391C28.2944 30.9285 28.2589 31.0289 28.2304 31.1431C28.1989 31.2565 28.1651 31.3809 28.1371 31.5165C28.1042 31.6507 28.0807 31.7969 28.0536 31.9498C28.0069 32.2573 27.9722 32.5978 27.9642 32.9565C27.9593 33.3151 27.9816 33.6569 28.0171 33.9658C28.0389 34.1196 28.0567 34.2662 28.0851 34.4018C28.1082 34.5382 28.1371 34.6636 28.1647 34.7782C28.1891 34.8933 28.2211 34.9951 28.2451 35.0853C28.2687 35.176 28.2931 35.2525 28.314 35.3151C28.3322 35.3738 28.3473 35.4218 28.3593 35.46C28.37 35.4933 28.3744 35.5111 28.3731 35.512Z" fill="#666B84"/>
<path d="M32.3069 36.3836C32.3051 36.3832 32.3051 36.3676 32.3064 36.3383C32.3087 36.3032 32.3118 36.2605 32.3149 36.2098C32.3202 36.1543 32.3251 36.0858 32.3238 36.0067C32.3238 35.9276 32.3296 35.8369 32.3207 35.7374C32.318 35.6876 32.3149 35.6352 32.3118 35.5809C32.3082 35.5267 32.2989 35.4707 32.2922 35.4125C32.2811 35.2956 32.2544 35.1734 32.2296 35.044C32.17 34.7876 32.0833 34.5103 31.9602 34.232C31.8336 33.9556 31.6829 33.7072 31.5296 33.4925C31.4491 33.3885 31.3749 33.2872 31.2949 33.2014C31.2553 33.1578 31.2198 33.1138 31.1816 33.0752C31.1429 33.0369 31.106 33.0005 31.07 32.9654C31.0011 32.8929 30.9296 32.8374 30.8704 32.7849C30.8118 32.7316 30.7571 32.6903 30.7122 32.6574C30.6718 32.6263 30.638 32.6 30.61 32.5787C30.5869 32.56 30.5753 32.5498 30.5762 32.5485C30.5771 32.5472 30.5909 32.5547 30.6158 32.5707C30.6451 32.5903 30.6807 32.6138 30.7238 32.6423C30.7709 32.6729 30.8273 32.7125 30.8882 32.764C30.9496 32.8152 31.0233 32.8689 31.0944 32.9405C31.1313 32.9752 31.1696 33.0116 31.2091 33.0494C31.2487 33.0876 31.2856 33.1316 31.326 33.1747C31.4087 33.26 31.4847 33.3614 31.5669 33.4658C31.7238 33.6809 31.8776 33.932 32.006 34.212C32.1309 34.4934 32.2171 34.7747 32.2749 35.0347C32.2989 35.1658 32.3247 35.2898 32.334 35.408C32.3398 35.4672 32.3482 35.5236 32.3509 35.5787C32.3527 35.6334 32.3549 35.6863 32.3567 35.7365C32.3633 35.8369 32.3549 35.928 32.3527 36.008C32.3509 36.088 32.3433 36.1565 32.3349 36.212C32.3278 36.2627 32.322 36.3049 32.3171 36.34C32.3118 36.3689 32.3087 36.384 32.3069 36.3836Z" fill="#666B84"/>
<path d="M32.3981 33.7791C32.3923 33.7836 32.3163 33.6911 32.1905 33.544C32.0638 33.3987 31.8892 33.1956 31.6643 33.008C31.4412 32.8187 31.2021 32.6933 31.0145 32.6591C30.8274 32.6209 30.7074 32.6493 30.7061 32.6378C30.7056 32.6342 30.7345 32.628 30.7887 32.6191C30.8158 32.6129 30.8492 32.612 30.8883 32.6133C30.9083 32.6138 30.9292 32.6138 30.9509 32.6142C30.9732 32.6178 30.9967 32.6209 31.0203 32.6244C31.2172 32.6511 31.4687 32.7769 31.6958 32.9698C31.9252 33.1613 32.0972 33.3698 32.2176 33.5218C32.2772 33.5982 32.3238 33.6618 32.3545 33.7067C32.3852 33.7516 32.4012 33.7773 32.3981 33.7791Z" fill="#666B84"/>
<path d="M33.0686 33.1005C33.0611 33.1178 32.7166 32.9098 32.2415 32.8125C31.7651 32.7138 31.3691 32.7889 31.3682 32.7707C31.3673 32.7654 31.4637 32.7405 31.6242 32.7263C31.7842 32.712 32.0095 32.7147 32.2513 32.7636C32.4931 32.8129 32.7011 32.8965 32.8451 32.9676C32.9891 33.0391 33.0713 33.0951 33.0686 33.1005Z" fill="#666B84"/>
<path d="M30.9873 24.9018C30.9877 24.9036 30.9717 24.9129 30.9402 24.9293C30.9037 24.948 30.8579 24.9711 30.8024 24.9996C30.7717 25.0147 30.7384 25.0311 30.7024 25.0493C30.6668 25.0689 30.6299 25.0942 30.5895 25.1191C30.5095 25.1707 30.4139 25.2231 30.3224 25.3005C30.2748 25.3373 30.2255 25.3756 30.1739 25.4156C30.1246 25.4582 30.0762 25.5062 30.0246 25.5538C29.9175 25.6458 29.8242 25.7645 29.7171 25.8809C29.5197 26.1285 29.3291 26.4213 29.1655 26.7485C28.8415 27.4067 28.6811 28.0573 28.5899 28.5276C28.5646 28.6449 28.5504 28.7529 28.5344 28.8471C28.5179 28.9413 28.5068 29.0227 28.4988 29.0898C28.4899 29.152 28.4828 29.2027 28.4771 29.2431C28.4717 29.2782 28.4677 29.2965 28.4659 29.2965C28.4642 29.2965 28.4646 29.2778 28.4668 29.2422C28.4699 29.2013 28.4744 29.1502 28.4793 29.0876C28.4846 29.0205 28.4926 28.9382 28.5064 28.8436C28.5202 28.7489 28.5317 28.64 28.5548 28.5218C28.6375 28.0476 28.7935 27.3911 29.1206 26.7267C29.2859 26.3965 29.4797 26.1009 29.6815 25.852C29.7908 25.7351 29.8864 25.616 29.9962 25.524C30.0491 25.4765 30.0988 25.4285 30.1491 25.3862C30.2019 25.3467 30.2526 25.3089 30.3015 25.2725C30.3957 25.196 30.4935 25.1453 30.5753 25.0956C30.6171 25.0716 30.6544 25.0476 30.6913 25.0289C30.7282 25.0125 30.7624 24.9969 30.7939 24.9827C30.8517 24.9573 30.8988 24.9369 30.9366 24.9205C30.9691 24.9067 30.9868 24.9005 30.9873 24.9018Z" fill="#666B84"/>
<path d="M17.0313 33.4311C17.0309 33.4311 17.0335 33.4218 17.0389 33.404C17.0455 33.3845 17.054 33.3587 17.0651 33.3249C17.0895 33.2538 17.1251 33.1511 17.1709 33.0187C17.2655 32.7498 17.4024 32.3596 17.5757 31.8667C17.9269 30.8773 18.4242 29.476 19.0117 27.82L19.0206 27.7947L19.0442 27.8085C19.5642 28.1093 20.0691 28.4902 20.6242 28.8369C21.1851 29.1765 21.7677 29.5293 22.3655 29.8916L22.3815 29.9013L22.3762 29.9196C22.3424 30.0373 22.306 30.1649 22.2691 30.2925C21.4109 33.2729 20.6415 35.9436 20.1295 37.7213L20.1291 37.7222L20.1286 37.7231C19.802 38.4489 19.4046 38.9689 19.0424 39.216C18.8629 39.3405 18.6971 39.3929 18.5846 39.4058C18.5282 39.4116 18.4851 39.4138 18.4562 39.4107C18.4273 39.4093 18.4126 39.4076 18.4126 39.4076C18.4126 39.4076 18.4273 39.4062 18.4562 39.4058C18.4851 39.4071 18.5277 39.4036 18.5833 39.3965C18.694 39.3805 18.8562 39.3262 19.0322 39.2013C19.3869 38.9533 19.7784 38.4325 20.0984 37.7102L20.098 37.712C20.606 35.9333 21.3695 33.2605 22.2211 30.2782C22.2575 30.1507 22.294 30.0236 22.3282 29.9053L22.3389 29.9333C21.7411 29.5707 21.1589 29.2178 20.598 28.8773C20.0406 28.5285 19.5371 28.1467 19.0211 27.8467L19.0535 27.8347C18.4589 29.488 17.9557 30.8871 17.6006 31.8751C17.4224 32.3662 17.2811 32.7551 17.1837 33.0231C17.1353 33.1547 17.0975 33.256 17.0717 33.3267C17.0593 33.3596 17.0495 33.3853 17.042 33.4045C17.0357 33.4222 17.0322 33.4311 17.0313 33.4311Z" fill="#666B84"/>
<path d="M17.1077 33.3667C17.1112 33.3751 16.981 33.4271 16.7859 33.5396C16.5912 33.6511 16.3352 33.8307 16.0961 34.076C15.8579 34.3222 15.6855 34.5831 15.5797 34.7813C15.4735 34.9796 15.425 35.1111 15.4166 35.108C15.4135 35.1067 15.4232 35.0733 15.4437 35.0129C15.4632 34.9524 15.4988 34.8676 15.5486 34.7653C15.6477 34.5609 15.8179 34.292 16.0606 34.0418C16.3037 33.792 16.5672 33.6138 16.769 33.5089C16.8699 33.456 16.9539 33.4182 17.0135 33.3969C17.073 33.3747 17.1064 33.3636 17.1077 33.3667Z" fill="#666B84"/>
<path d="M17.1439 33.0853C17.1431 33.0933 17.0457 33.0875 16.8884 33.0907C16.7315 33.0933 16.5146 33.1089 16.2799 33.1551C16.0453 33.2018 15.8386 33.2693 15.6924 33.3262C15.5457 33.3831 15.4577 33.4249 15.4542 33.4182C15.4515 33.4129 15.5342 33.36 15.6791 33.2938C15.8235 33.228 16.0319 33.1533 16.2706 33.1062C16.5093 33.0595 16.7302 33.0493 16.8888 33.0555C17.0479 33.0618 17.1448 33.0795 17.1439 33.0853Z" fill="#666B84"/>
<path d="M30.897 40.1196C30.897 40.1196 30.8775 40.1133 30.8401 40.0982C30.8015 40.0827 30.7468 40.0604 30.6752 40.0316C30.6041 39.9996 30.5112 39.9702 30.4104 39.9164C30.3081 39.8644 30.1908 39.8044 30.0588 39.7369C29.5401 39.4489 28.8335 38.9422 28.0997 38.1729C27.3601 37.4093 26.6041 36.3853 25.8912 35.1769C25.1806 33.9667 24.509 32.5716 23.937 31.056C23.8735 30.8849 23.8112 30.7147 23.7539 30.544L23.749 30.5293L23.7601 30.5182C24.9317 29.3804 26.0401 28.3044 27.0326 27.3409L27.049 27.3249L27.0641 27.3413C27.5544 27.8747 27.9859 28.4049 28.3117 28.9431C28.3917 29.0782 28.4646 29.2147 28.5219 29.3542C28.5779 29.4938 28.6241 29.6378 28.6232 29.7858C28.6232 29.86 28.5988 29.9324 28.5788 29.9964C28.5584 30.0622 28.5437 30.1284 28.533 30.1942C28.525 30.26 28.5215 30.3258 28.5348 30.3871C28.5459 30.4471 28.5832 30.5058 28.6348 30.52L28.641 30.5218L28.6441 30.5249C29.2704 31.1756 29.7695 31.6933 30.113 32.0502C30.2824 32.2276 30.4139 32.3649 30.5037 32.4591C30.5468 32.5049 30.5801 32.5404 30.6037 32.5653C30.6259 32.5893 30.6366 32.6027 30.6366 32.6027C30.6366 32.6027 30.6237 32.5916 30.6006 32.5689C30.5761 32.5444 30.5419 32.5102 30.4975 32.4658C30.4059 32.3729 30.273 32.2373 30.1006 32.0627C29.7544 31.7084 29.2521 31.1938 28.621 30.5476L28.6299 30.5524C28.5539 30.532 28.5166 30.4609 28.5024 30.3951C28.4877 30.3276 28.4912 30.2582 28.4992 30.1902C28.5099 30.1222 28.525 30.0542 28.5455 29.9871C28.5664 29.9187 28.5877 29.856 28.5877 29.7858C28.5881 29.6471 28.5432 29.5058 28.4877 29.3693C28.4308 29.2324 28.3584 29.0973 28.2784 28.964C27.9535 28.4311 27.521 27.9027 27.0321 27.3729L27.0641 27.3733C26.0726 28.3382 24.9659 29.4151 23.7952 30.5542L23.8015 30.5289C23.8584 30.6982 23.9206 30.8684 23.9841 31.0391C24.5548 32.5516 25.2246 33.9449 25.9312 35.1542C26.6406 36.3618 27.3917 37.3849 28.1255 38.1493C28.8539 38.9191 29.5548 39.4284 30.0686 39.7209C30.1992 39.7898 30.3157 39.8507 30.417 39.904C30.517 39.9591 30.609 39.9898 30.6797 40.0231C30.7499 40.0538 30.8041 40.0773 30.8424 40.0942C30.8788 40.1098 30.897 40.1196 30.897 40.1196Z" fill="#666B84"/>
<path d="M25.4906 35.8111C25.4906 35.8142 25.4439 35.8142 25.3608 35.8062C25.2773 35.7987 25.1573 35.7796 25.0119 35.7409C24.723 35.6653 24.3315 35.4916 23.9928 35.1778C23.6542 34.8636 23.451 34.4867 23.3542 34.204C23.3048 34.0622 23.2768 33.9436 23.2626 33.8613C23.2484 33.7787 23.2453 33.7325 23.2479 33.732C23.2577 33.7298 23.2808 33.9147 23.387 34.192C23.491 34.4676 23.6946 34.8338 24.0266 35.1413C24.3582 35.4489 24.7386 35.6245 25.0213 35.7071C25.3057 35.792 25.4919 35.8009 25.4906 35.8111Z" fill="#666B84"/>
<path d="M28.4642 42.1796C28.4647 42.1805 28.458 42.1853 28.4438 42.1951C28.4273 42.2062 28.4069 42.2196 28.3816 42.2365C28.3229 42.2738 28.242 42.3258 28.1398 42.3916C28.0869 42.4253 28.0282 42.4622 27.9642 42.5027C27.8989 42.5413 27.8256 42.5791 27.7478 42.6218C27.5909 42.7045 27.4171 42.808 27.2114 42.8956C27.1096 42.9422 27.0034 42.9907 26.8927 43.0413C26.7816 43.0911 26.6611 43.132 26.5389 43.1805C26.2958 43.2809 26.026 43.3591 25.7442 43.4476C25.1753 43.6049 24.5367 43.7351 23.8576 43.7996C23.1776 43.8565 22.526 43.8418 21.938 43.7876C21.6451 43.7507 21.3656 43.7218 21.1087 43.6658C20.9798 43.64 20.8545 43.6209 20.7362 43.5916C20.6185 43.5613 20.5051 43.5325 20.3967 43.5045C20.1789 43.4547 19.9891 43.3836 19.8202 43.3298C19.7362 43.3013 19.6571 43.2773 19.586 43.2511C19.5158 43.2227 19.4518 43.1965 19.3936 43.1729C19.2811 43.1262 19.1922 43.0898 19.1282 43.0631C19.1002 43.0511 19.078 43.0413 19.0598 43.0333C19.0447 43.0262 19.0367 43.0227 19.0371 43.0218C19.0376 43.0209 19.046 43.0236 19.0616 43.0289C19.0802 43.0356 19.1033 43.044 19.1318 43.0542C19.1967 43.0787 19.2865 43.1125 19.4002 43.1551C19.4589 43.1773 19.5233 43.2022 19.5936 43.2293C19.6651 43.2547 19.7442 43.2769 19.8282 43.304C19.9976 43.3551 20.1873 43.4236 20.4047 43.4711C20.5127 43.4978 20.626 43.5258 20.7438 43.5547C20.862 43.5831 20.9873 43.6009 21.1153 43.6258C21.3713 43.68 21.65 43.7071 21.942 43.7427C22.5278 43.7942 23.1758 43.8071 23.8527 43.7507C24.5287 43.6867 25.1642 43.5587 25.7314 43.4045C26.0122 43.3178 26.2816 43.2413 26.5238 43.1431C26.6456 43.096 26.766 43.056 26.8771 43.0076C26.9878 42.9582 27.0945 42.9107 27.1958 42.8653C27.4016 42.78 27.5762 42.6791 27.7336 42.5987C27.8118 42.5573 27.8856 42.5209 27.9513 42.4836C28.0158 42.4445 28.0749 42.4089 28.1287 42.3765C28.2331 42.3142 28.3153 42.2649 28.3749 42.2293C28.4011 42.2142 28.4225 42.2018 28.4398 42.192C28.4562 42.1827 28.4638 42.1787 28.4642 42.1796Z" fill="#666B84"/>
<path d="M27.1554 39.7315C27.1567 39.7324 27.1496 39.7484 27.134 39.7782C27.1154 39.8124 27.0927 39.8551 27.0647 39.9071C27.0349 39.9631 26.9963 40.0311 26.946 40.1062C26.8967 40.1818 26.8438 40.2707 26.7745 40.3604C26.7407 40.4067 26.7056 40.4547 26.6687 40.5044C26.6314 40.5542 26.5887 40.6027 26.5465 40.6547C26.4634 40.76 26.3643 40.8627 26.2616 40.9729C26.05 41.1871 25.802 41.4075 25.5212 41.6124C25.238 41.8147 24.9505 41.9804 24.6803 42.1138C24.5434 42.1764 24.4145 42.2382 24.2883 42.284C24.1643 42.3351 24.046 42.3738 23.9372 42.4075C23.8296 42.4449 23.7287 42.4671 23.6416 42.4902C23.5545 42.5142 23.478 42.5293 23.4154 42.54C23.3576 42.5502 23.3096 42.5587 23.2714 42.5653C23.2385 42.5707 23.2207 42.5724 23.2207 42.5707C23.2203 42.5689 23.2372 42.5635 23.2696 42.5551C23.3074 42.5458 23.3545 42.5347 23.4114 42.5209C23.4732 42.5075 23.5487 42.4893 23.6345 42.4631C23.7207 42.4373 23.8203 42.4133 23.926 42.3738C24.0332 42.3378 24.1505 42.2978 24.2727 42.2453C24.3972 42.1987 24.5247 42.1355 24.6598 42.0724C24.9265 41.9378 25.2109 41.7724 25.4914 41.572C25.77 41.3689 26.0167 41.1511 26.2283 40.9404C26.3309 40.832 26.4305 40.7307 26.5145 40.6275C26.5572 40.5764 26.6003 40.5293 26.638 40.4804C26.6754 40.4315 26.7114 40.3844 26.7456 40.3395C26.8163 40.2511 26.8709 40.1644 26.922 40.0907C26.974 40.0173 27.0149 39.9515 27.0474 39.8969C27.0785 39.8471 27.1043 39.8062 27.1247 39.7733C27.1434 39.7449 27.1536 39.7307 27.1554 39.7315Z" fill="#666B84"/>
<path d="M24.9533 30.7996C24.9444 30.8085 24.7857 30.644 24.6666 30.3916C24.5457 30.14 24.5186 29.9129 24.5311 29.912C24.5457 29.9089 24.5942 30.1258 24.7115 30.3702C24.8271 30.616 24.9653 30.7902 24.9533 30.7996Z" fill="#666B84"/>
<path d="M25.86 29.832C25.8476 29.8374 25.7441 29.6303 25.6285 29.3694C25.5134 29.1085 25.4298 28.8925 25.4427 28.8867C25.4552 28.8814 25.5587 29.088 25.6743 29.3494C25.7894 29.6103 25.8725 29.8267 25.86 29.832Z" fill="#666B84"/>
<path d="M26.8431 28.9102C26.8293 28.9151 26.7533 28.7169 26.6307 28.488C26.5089 28.2582 26.3867 28.0849 26.3982 28.0765C26.408 28.0685 26.5502 28.2307 26.6742 28.4649C26.7996 28.6982 26.8551 28.9067 26.8431 28.9102Z" fill="#666B84"/>
<path d="M20.8543 30.3809C20.8409 30.3769 20.9058 30.1142 20.9987 29.7938C21.0489 29.6209 21.0969 29.4667 21.1321 29.3636L21.1316 29.3658C21.1503 29.2711 21.1641 29.2151 21.1703 29.216C21.1765 29.2169 21.1738 29.2747 21.1641 29.3707V29.3711L21.1636 29.3729C21.1383 29.4787 21.0965 29.6347 21.0463 29.8076C20.9534 30.128 20.8676 30.3849 20.8543 30.3809Z" fill="#666B84"/>
<path d="M19.8475 28.3147C19.8604 28.3191 19.8106 28.5018 19.7364 28.7231C19.6622 28.9444 19.5911 29.12 19.5782 29.1155C19.5653 29.1111 19.6151 28.9284 19.6893 28.7071C19.7635 28.4858 19.8346 28.3102 19.8475 28.3147Z" fill="#666B84"/>
<g opacity="0.2">
<path d="M17.0703 33.4071C17.0646 33.2458 16.9419 33.1071 16.7975 33.0356C16.653 32.9636 16.4886 32.9458 16.3281 32.9289C16.5637 32.8378 16.8059 32.7431 16.9895 32.5698C17.1983 32.3729 17.3103 32.0969 17.4157 31.8298C17.6579 31.2173 17.9019 30.5355 17.6717 29.9182C17.6361 29.8227 17.6183 29.672 17.7197 29.6582C17.7877 29.6489 17.8343 29.7222 17.8628 29.7844C17.9597 29.9969 18.0566 30.2089 18.1535 30.4213" fill="#040000"/>
</g>
<g opacity="0.2">
<path d="M23.3647 34.1578C23.3243 34.5467 23.3852 34.9458 23.5394 35.3049C23.6825 35.6378 23.9203 35.948 24.2558 36.0844C24.5909 36.2213 25.0296 36.1369 25.2238 35.8316C24.8194 35.6853 24.4078 35.5351 24.0665 35.2733C23.7252 35.012 23.458 34.6169 23.458 34.1867" fill="#040000"/>
</g>
<path d="M29.5198 23.9822C29.5203 23.9827 29.5105 23.9933 29.49 24.0129C29.4683 24.0338 29.438 24.0622 29.3998 24.0991C29.3176 24.1756 29.1998 24.2853 29.0492 24.4262C28.7412 24.7102 28.2985 25.1187 27.7527 25.6227C26.6532 26.6307 25.1372 28.0209 23.4625 29.5565C23.3127 29.6933 23.1638 29.8293 23.0247 29.9565L23.0083 29.9716L22.9918 29.9573C21.3767 28.5582 19.9336 27.3085 18.8923 26.4062C18.3754 25.9556 17.958 25.5916 17.6683 25.3391C17.5265 25.2142 17.4158 25.1165 17.3385 25.0485C17.3025 25.016 17.2745 24.9907 17.2536 24.972C17.2345 24.9547 17.2252 24.9453 17.2256 24.9449C17.226 24.9445 17.2367 24.9525 17.2567 24.9685C17.278 24.9862 17.3074 25.0102 17.3447 25.0413C17.4234 25.1076 17.5358 25.2031 17.6803 25.3253C17.9727 25.5756 18.3932 25.9351 18.914 26.3809C19.958 27.2796 21.4043 28.5253 23.0238 29.92L22.9909 29.9205C23.13 29.7933 23.2785 29.6573 23.4283 29.52C25.1069 27.9889 26.6265 26.6027 27.7283 25.5973C28.2789 25.0982 28.7252 24.6938 29.0354 24.4125C29.1892 24.2747 29.3092 24.1671 29.3927 24.092C29.4327 24.0569 29.4638 24.0298 29.4865 24.0098C29.5078 23.9907 29.5189 23.9813 29.5198 23.9822Z" fill="white"/>
<path d="M32.6906 28.9711C32.6906 28.9747 32.632 28.9805 32.5253 28.9885C32.472 28.9916 32.4071 28.9969 32.332 29.0071C32.2569 29.0169 32.1711 29.0236 32.0777 29.0418C31.984 29.0569 31.8813 29.0742 31.7724 29.1005C31.6626 29.1222 31.548 29.156 31.4271 29.1893C31.1866 29.2627 30.9271 29.3578 30.6649 29.4818C30.4035 29.608 30.1657 29.7498 29.9577 29.8907C29.856 29.964 29.7573 30.0316 29.6715 30.1036C29.5826 30.1716 29.5044 30.2405 29.4337 30.304C29.3609 30.3653 29.3013 30.4276 29.2466 30.48C29.1915 30.5316 29.1466 30.5791 29.1106 30.6182C29.0377 30.696 28.996 30.7378 28.9933 30.7356C28.9906 30.7333 29.0275 30.6871 29.0964 30.6053C29.1302 30.564 29.1733 30.5142 29.2271 30.4605C29.2804 30.4062 29.3382 30.3413 29.4102 30.2782C29.48 30.2129 29.5573 30.1418 29.6457 30.0716C29.7311 29.9978 29.8297 29.9285 29.932 29.8533C30.1404 29.7093 30.38 29.5649 30.6435 29.4373C30.9084 29.3125 31.1715 29.2173 31.4146 29.1458C31.5373 29.1138 31.6533 29.0809 31.7644 29.0609C31.8746 29.036 31.9782 29.0209 32.0733 29.0076C32.168 28.9916 32.2546 28.9871 32.3302 28.98C32.4057 28.972 32.4715 28.9702 32.5249 28.9698C32.6315 28.9671 32.6906 28.9676 32.6906 28.9711Z" fill="white"/>
<path d="M33.0685 39.1996C33.0671 39.1987 33.0742 39.1778 33.0893 39.1391C33.1071 39.0956 33.1298 39.0396 33.1582 38.9698C33.188 38.8965 33.2289 38.808 33.2618 38.7C33.28 38.6462 33.2991 38.5893 33.3191 38.5289C33.3293 38.4987 33.34 38.4676 33.3507 38.4356C33.3605 38.4031 33.3676 38.3693 33.3769 38.3351C33.4102 38.1973 33.4551 38.0485 33.4769 37.8831C33.4889 37.8009 33.5089 37.7169 33.5156 37.6285C33.5227 37.54 33.5302 37.4493 33.5378 37.356C33.5542 36.9827 33.5262 36.5698 33.4316 36.1485C33.3409 35.7258 33.1853 35.3409 33.0249 35.0036C32.8667 34.6636 32.6853 34.3773 32.5333 34.1382C32.3742 33.9031 32.2422 33.7151 32.144 33.5902C32.0991 33.5298 32.0627 33.4809 32.0347 33.4436C32.0102 33.4098 31.9978 33.3911 31.9991 33.3902C32.0005 33.3893 32.0151 33.4053 32.0422 33.4373C32.072 33.4738 32.1111 33.5205 32.1591 33.5787C32.2622 33.7 32.3991 33.8858 32.5622 34.1191C32.7187 34.3569 32.9045 34.6427 33.0658 34.984C33.2298 35.3231 33.3876 35.7107 33.4796 36.1378C33.5751 36.5636 33.6022 36.9818 33.5831 37.3587C33.5747 37.4529 33.5667 37.5445 33.5587 37.6338C33.5511 37.7231 33.5302 37.8076 33.5169 37.8907C33.4929 38.0573 33.4458 38.2067 33.4102 38.3449C33.4005 38.3791 33.3925 38.4133 33.3822 38.4453C33.3707 38.4773 33.3596 38.5085 33.3489 38.5387C33.3271 38.5987 33.3067 38.656 33.2876 38.7093C33.252 38.8169 33.2085 38.9045 33.1756 38.9769C33.1436 39.0453 33.1178 39.1005 33.0978 39.1431C33.08 39.1809 33.0698 39.2 33.0685 39.1996Z" fill="white"/>
<path d="M28.6113 38.4911C28.6122 38.4827 28.7082 38.5369 28.89 38.5169C29.0673 38.4991 29.3282 38.3831 29.5104 38.1116C29.6967 37.8449 29.8091 37.4653 29.9353 37.0542C30.0562 36.6396 30.1575 36.1747 30.2207 35.68C30.3504 34.6898 30.2887 33.78 30.1913 33.1351C30.1398 32.8124 30.0851 32.5533 30.0433 32.3751C30.0229 32.2898 30.0064 32.2218 29.994 32.1702C29.9833 32.1231 29.9784 32.0982 29.9798 32.0978C29.9815 32.0973 29.9896 32.1213 30.0033 32.1676C30.018 32.2187 30.0376 32.2858 30.062 32.3702C30.1096 32.5471 30.17 32.8062 30.226 33.1293C30.3331 33.7756 30.4007 34.6902 30.27 35.6862C30.2064 36.1836 30.1029 36.6511 29.9793 37.0671C29.85 37.4796 29.7344 37.8596 29.5393 38.132C29.4433 38.2671 29.3282 38.3707 29.2127 38.4342C29.0975 38.4996 28.9847 38.5289 28.8927 38.5365C28.7998 38.5449 28.7278 38.5316 28.6811 38.5182C28.6336 38.504 28.6113 38.4911 28.6113 38.4911Z" fill="white"/>
<path d="M27.8856 32.0698C27.8883 32.072 27.8621 32.1103 27.8114 32.1783C27.7865 32.2129 27.755 32.2538 27.7136 32.2978C27.6727 32.3418 27.6287 32.3956 27.5714 32.4454C27.5163 32.4978 27.455 32.5543 27.3834 32.6076C27.315 32.6654 27.2341 32.7165 27.1501 32.7725C26.9785 32.8774 26.7794 32.9765 26.5594 33.052C26.3385 33.1249 26.1199 33.1667 25.9199 33.1876C25.8194 33.1938 25.7239 33.2023 25.6345 33.1978C25.5452 33.1987 25.4621 33.1907 25.3865 33.1827C25.3105 33.1778 25.2434 33.1618 25.1843 33.1511C25.1247 33.1414 25.0745 33.128 25.0341 33.1156C24.9527 33.092 24.9083 33.0774 24.9092 33.0743C24.9119 33.0636 25.091 33.1218 25.3901 33.1476C25.4647 33.1538 25.5465 33.1596 25.635 33.1565C25.723 33.1591 25.8167 33.1494 25.9154 33.1418C26.1119 33.1191 26.3265 33.0765 26.5434 33.0049C26.7594 32.9303 26.9559 32.8343 27.1261 32.7334C27.2092 32.6791 27.2896 32.6303 27.3581 32.5747C27.4301 32.5236 27.4914 32.4694 27.5474 32.4191C27.7696 32.2178 27.8772 32.0627 27.8856 32.0698Z" fill="white"/>
<path d="M29.0926 31.0222C29.0961 31.0227 29.0957 31.0582 29.0926 31.1236C29.0904 31.1889 29.0793 31.2827 29.0588 31.3973C29.0393 31.5124 29.0046 31.6476 28.9561 31.7942C28.9055 31.94 28.8397 32.0973 28.7553 32.2547C28.6695 32.4111 28.5735 32.552 28.4784 32.6742C28.3815 32.7947 28.2873 32.8973 28.2015 32.9764C28.1161 33.056 28.0437 33.1164 27.9904 33.1542C27.9375 33.1924 27.9077 33.2124 27.9055 33.2093C27.8997 33.2022 28.0148 33.1151 28.177 32.9511C28.2588 32.8698 28.349 32.7662 28.4424 32.6458C28.5339 32.524 28.6268 32.3849 28.7117 32.2307C28.7948 32.076 28.861 31.9218 28.913 31.7791C28.9633 31.6356 29.0006 31.5031 29.0246 31.3902C29.0735 31.1649 29.0837 31.0213 29.0926 31.0222Z" fill="white"/>
<path d="M27.117 36.8752C27.1174 36.8756 27.113 36.8814 27.1032 36.892C27.0912 36.9045 27.077 36.92 27.0592 36.9387C27.017 36.9818 26.9592 37.0405 26.8863 37.1147C26.7316 37.2694 26.5125 37.488 26.2427 37.7578C25.6925 38.3009 24.9352 39.0485 24.0934 39.8796L24.0801 39.8929L24.0636 39.8836C24.0196 39.8583 23.9716 39.8307 23.9241 39.8036C22.8676 39.1934 21.9112 38.6414 21.2147 38.2392C20.8721 38.0387 20.5934 37.8756 20.3965 37.76C20.3032 37.704 20.2294 37.66 20.1752 37.6276C20.1525 37.6134 20.1334 37.6018 20.1183 37.592C20.1054 37.5836 20.0992 37.5792 20.0996 37.5783C20.1001 37.5774 20.1072 37.5805 20.1205 37.5876C20.1365 37.596 20.1561 37.6063 20.1801 37.6187C20.2352 37.6489 20.3107 37.6907 20.4059 37.7432C20.605 37.8552 20.8859 38.0138 21.2321 38.2085C21.9303 38.6076 22.8894 39.1552 23.9485 39.7605C23.9965 39.788 24.0441 39.8152 24.0881 39.8405L24.0583 39.8445C24.9045 39.0174 25.6654 38.2738 26.2183 37.7334C26.4925 37.4685 26.7152 37.2534 26.873 37.1014C26.9485 37.0298 27.0081 36.9734 27.0521 36.9316C27.0712 36.9143 27.0867 36.9 27.0996 36.8885C27.1103 36.8792 27.1161 36.8747 27.117 36.8752Z" fill="white"/>
<path d="M23.8066 34.7494C23.8084 34.7494 23.8097 34.7605 23.8102 34.7818C23.8097 34.8031 23.8062 34.8356 23.7902 34.8738C23.7609 34.9507 23.6711 35.0467 23.528 35.0889C23.3831 35.1369 23.1973 35.0885 23.0346 34.9898C22.8702 34.8894 22.7111 34.7569 22.5355 34.628C22.1875 34.3649 21.8746 34.1249 21.6493 33.9489C21.5435 33.8649 21.4546 33.7942 21.3844 33.7387C21.3226 33.688 21.2893 33.6587 21.2911 33.656C21.2933 33.6534 21.3302 33.6774 21.396 33.7231C21.4689 33.7756 21.5609 33.8418 21.6706 33.9209C21.9013 34.0898 22.2177 34.3254 22.5657 34.5885C22.7409 34.7174 22.9013 34.8525 23.0586 34.9507C23.2155 35.0476 23.3853 35.0951 23.5191 35.0551C23.6533 35.02 23.7404 34.9351 23.7733 34.8658C23.8075 34.796 23.8004 34.7485 23.8066 34.7494Z" fill="white"/>
<path d="M25.1913 33.4956C25.194 33.5027 25.0922 33.5467 24.9322 33.6258C24.7722 33.7045 24.5553 33.8218 24.3287 33.972C24.1024 34.1227 23.91 34.2769 23.7753 34.3938C23.6407 34.5107 23.5607 34.5871 23.5549 34.5818C23.5504 34.5778 23.6216 34.492 23.7518 34.3676C23.8816 34.2431 24.0722 34.0827 24.3011 33.9303C24.53 33.7787 24.7522 33.6649 24.9171 33.5938C25.0824 33.5223 25.1891 33.4898 25.1913 33.4956Z" fill="white"/>
<path d="M28.439 30.4796C27.9416 31.7711 27.8523 33.0916 28.0167 34.4658C28.051 34.7502 28.1945 35.1502 28.3052 35.4147C28.4158 35.6791 28.6047 35.9213 28.8656 36.0409C29.1034 36.1493 29.4203 36.1298 29.5843 35.9262C29.7012 35.7813 29.7163 35.5796 29.6998 35.3942C29.6585 34.9169 29.447 34.4733 29.2656 34.0298C28.8038 32.9004 28.5198 31.6987 28.427 30.4818" fill="#666B84"/>
<g opacity="0.3">
<path d="M31.7573 33.0569C32.252 33.4511 32.6013 34.0245 32.724 34.6449C32.7568 34.8111 32.776 34.9858 32.8657 35.1298C32.9551 35.2738 33.144 35.3747 33.2968 35.3018C33.484 35.2125 33.4906 34.9498 33.4453 34.7476C33.2404 33.8329 32.5093 33.0556 31.6084 32.7956" fill="#040000"/>
</g>
<path d="M23.9074 43.7965C23.9007 43.8085 22.706 43.1392 21.2398 42.3023C19.7732 41.4649 18.59 40.7765 18.5967 40.7649C18.6034 40.7529 19.7976 41.4218 21.2643 42.2592C22.7305 43.096 23.914 43.7845 23.9074 43.7965Z" fill="white"/>
<path d="M25.7812 43.4152C25.783 43.4178 25.7501 43.4445 25.6883 43.4903C25.6181 43.5409 25.5296 43.6049 25.4252 43.6805C25.2016 43.8392 24.891 44.0556 24.5461 44.292C24.4545 44.3547 24.3652 44.4156 24.2799 44.4738L24.2674 44.4823L24.2545 44.4752C23.9559 44.3103 23.6963 44.1645 23.5114 44.0583C23.4261 44.0085 23.3545 43.9663 23.2959 43.932C23.2456 43.9018 23.2194 43.8836 23.2208 43.8814C23.2221 43.8787 23.2514 43.8916 23.3039 43.9174C23.3643 43.9485 23.4385 43.9863 23.5265 44.0312C23.7154 44.1298 23.9781 44.2703 24.2776 44.4329L24.2523 44.4343C24.3376 44.3756 24.4265 44.3143 24.5181 44.2516C24.863 44.0152 25.1768 43.8032 25.4056 43.652C25.5141 43.5818 25.6052 43.5223 25.6776 43.4752C25.7425 43.4334 25.7794 43.412 25.7812 43.4152Z" fill="white"/>
<g opacity="0.3">
<path d="M27.9175 42.5574C27.5824 42.1756 27.0077 42.0849 26.5122 42.1951C26.0166 42.3054 25.577 42.5822 25.1415 42.8431C24.7059 43.104 24.2473 43.3587 23.7428 43.4156C23.1522 43.4822 22.5708 43.2716 21.9882 43.1556C21.4055 43.0396 20.7322 43.0427 20.2988 43.4494C20.2988 43.4494 22.1544 44.0809 24.3824 43.7325C26.0175 43.4765 27.9175 42.5574 27.9175 42.5574Z" fill="#040000"/>
</g>
<path d="M20.9635 34.26C20.963 34.2636 20.9066 34.2573 20.8044 34.2436C20.7533 34.2373 20.691 34.228 20.619 34.2133C20.547 34.1991 20.4648 34.1853 20.3755 34.1622C20.1955 34.1218 19.9844 34.06 19.7542 33.9796C19.5248 33.8965 19.2768 33.7925 19.0262 33.6645C18.7759 33.5347 18.5475 33.3933 18.3462 33.2551C18.1466 33.1147 17.9737 32.9787 17.8359 32.8556C17.7653 32.7965 17.7062 32.7373 17.6528 32.6871C17.599 32.6373 17.5555 32.592 17.5204 32.5542C17.4497 32.4791 17.4119 32.4369 17.4142 32.4342C17.4168 32.432 17.459 32.4698 17.5337 32.5405C17.5706 32.576 17.6164 32.6191 17.6715 32.6667C17.7262 32.7147 17.7866 32.7716 17.8586 32.8289C17.9986 32.9476 18.1724 33.0796 18.3715 33.2173C18.5724 33.3525 18.7999 33.4911 19.0484 33.62C19.2973 33.7471 19.5426 33.8511 19.7693 33.936C19.9968 34.0182 20.2057 34.0827 20.3835 34.1276C20.4715 34.1529 20.5533 34.1689 20.6239 34.1853C20.6946 34.2027 20.7564 34.2147 20.807 34.224C20.9079 34.244 20.9639 34.2565 20.9635 34.26Z" fill="white"/>
<path d="M15.3548 38.0756C15.353 38.076 15.3481 38.06 15.3401 38.0284C15.3312 37.9916 15.3201 37.9462 15.3072 37.8916C15.3001 37.8609 15.2926 37.828 15.2846 37.792C15.2775 37.7556 15.2726 37.7151 15.2659 37.672C15.2543 37.5858 15.2357 37.488 15.2312 37.3782C15.2277 37.3231 15.2237 37.2658 15.2197 37.2062C15.2161 37.1462 15.2192 37.084 15.2183 37.0196C15.2148 36.8902 15.2286 36.7529 15.2392 36.608C15.2717 36.3196 15.3317 36.0044 15.433 35.6849C15.5383 35.3662 15.6739 35.0756 15.817 34.8227C15.893 34.6991 15.9628 34.5796 16.041 34.4769C16.0792 34.4249 16.1135 34.3724 16.1512 34.3262C16.1895 34.2804 16.2263 34.236 16.2615 34.1938C16.3295 34.1076 16.4019 34.0391 16.4619 33.976C16.4926 33.9449 16.5201 33.9151 16.5472 33.8898C16.5748 33.8658 16.6006 33.8431 16.6241 33.8227C16.6672 33.7858 16.7023 33.7556 16.7312 33.7311C16.7561 33.7107 16.7695 33.7004 16.7708 33.7018C16.7717 33.7031 16.7606 33.7156 16.7379 33.7387C16.7108 33.7649 16.6775 33.7978 16.6375 33.8369C16.6148 33.8582 16.5903 33.8818 16.5641 33.9071C16.5379 33.9333 16.5117 33.964 16.4823 33.9956C16.4246 34.06 16.3543 34.1293 16.289 34.2164C16.2548 34.2591 16.2192 34.3036 16.1823 34.3498C16.1455 34.3964 16.1126 34.4489 16.0752 34.5009C15.9988 34.6036 15.9312 34.7227 15.857 34.8458C15.7179 35.0973 15.585 35.3849 15.4806 35.7004C15.3801 36.0169 15.3192 36.328 15.285 36.6133C15.273 36.7564 15.2583 36.8924 15.2597 37.0204C15.2592 37.0844 15.2557 37.1462 15.2579 37.2053C15.261 37.2644 15.2637 37.3213 15.2663 37.376C15.2686 37.4849 15.2846 37.5822 15.2935 37.6684C15.2988 37.7116 15.3023 37.7516 15.3077 37.7884C15.3143 37.8244 15.3206 37.8573 15.3259 37.888C15.3357 37.9436 15.3432 37.9893 15.3499 38.0267C15.3548 38.0582 15.3566 38.0751 15.3548 38.0756Z" fill="white"/>
<path d="M17.5224 31.8987C17.5202 31.9013 17.4819 31.8751 17.4148 31.8258C17.3402 31.7702 17.2451 31.6996 17.1313 31.6151C16.8828 31.4329 16.5548 31.192 16.1922 30.9253C15.8242 30.6578 15.4908 30.4151 15.2517 30.236C15.1322 30.1467 15.0362 30.0733 14.9708 30.0218C14.9051 29.9702 14.8699 29.9404 14.8722 29.9373C14.8744 29.9347 14.9135 29.9591 14.9824 30.0062C15.0588 30.0591 15.1562 30.1267 15.2726 30.2076C15.5166 30.3791 15.8531 30.6173 16.2215 30.8849C16.5895 31.1529 16.9188 31.4013 17.1531 31.5867C17.2699 31.6791 17.3637 31.7556 17.4273 31.8098C17.4904 31.8649 17.5246 31.896 17.5224 31.8987Z" fill="white"/>
<path d="M27.7423 12.6724C27.7779 13.652 29.0837 14.2453 29.0668 15.2253C29.0597 15.6458 28.7988 16.0235 28.7477 16.4409C28.6788 17.0022 28.9926 17.532 29.1086 18.0853C29.3472 19.2253 29.133 21.5733 28.1495 22.1978C27.1659 22.8218 25.4823 21.7955 24.3281 21.6378" fill="#352927"/>
<path d="M19.8576 12.432C19.8963 12.9578 19.5492 13.4276 19.1994 13.8218C18.8496 14.216 18.4603 14.6271 18.3847 15.1489C18.2505 16.0738 19.1558 16.932 18.9692 17.8476C18.8692 18.3382 18.4674 18.7325 18.3958 19.228C18.3265 19.7071 18.5834 20.1765 18.9021 20.5413C19.2203 20.9062 19.2558 22.0707 19.5376 22.4645C19.8345 22.8796 20.6452 22.0876 21.0927 22.3329C22.1074 22.8885 23.3252 22.0845 23.8145 21.9405" fill="#352927"/>
<path d="M27.9386 13.236C27.9524 12.7591 27.5111 12.3906 27.0675 12.216C26.6235 12.0413 26.1302 11.9755 25.7346 11.7093C25.3844 11.4733 25.1489 11.1058 24.852 10.8049C24.1244 10.0671 22.9884 9.76131 21.9889 10.0342C20.9893 10.3071 20.1662 11.1471 19.9138 12.152C19.7431 12.8311 19.8595 13.6338 20.3951 14.0853C21.0164 14.6089 21.9373 14.4929 22.7333 14.3298C23.5293 14.1666 24.4302 14.0062 25.0951 14.4738C25.496 14.7555 25.7258 15.2142 25.9706 15.6386C26.2155 16.0631 26.5231 16.4964 26.9866 16.656C27.4498 16.8155 28.0791 16.54 28.0973 16.0502" fill="#352927"/>
<path d="M21.6 24.3431C21.5933 23.2489 21.5871 22.1827 21.5866 22.1884C21.5866 22.1884 19.8484 21.896 19.4933 19.6267C19.3169 18.4982 19.3773 16.6484 19.476 15.1364C19.5649 13.7756 20.4702 12.108 21.8258 12.2542L26.0578 13.3338C26.4698 13.3782 26.7791 13.7307 26.7698 14.1444L26.3822 24.4187C26.3329 25.7222 25.2484 26.7462 23.9444 26.72C22.6475 26.6951 21.6075 25.64 21.6 24.3431Z" fill="#FAD2C3"/>
<path d="M20.1965 16.4329C20.1907 16.5867 20.316 16.7182 20.4765 16.7271C20.6365 16.736 20.7711 16.6191 20.7769 16.4653C20.7827 16.3116 20.6574 16.18 20.4974 16.1711C20.3369 16.1622 20.2023 16.2796 20.1965 16.4329Z" fill="#352927"/>
<path d="M19.8747 16.0996C19.9107 16.1378 20.1316 15.9751 20.4445 15.9764C20.7574 15.9733 20.9867 16.1351 21.0205 16.0969C21.0374 16.08 21.0005 16.0116 20.901 15.9382C20.8027 15.8653 20.6347 15.7947 20.4396 15.7951C20.2445 15.7956 20.0805 15.8671 19.9858 15.9404C19.8898 16.0142 19.857 16.0827 19.8747 16.0996Z" fill="#352927"/>
<path d="M23.2365 16.5116C23.2307 16.6654 23.3561 16.7969 23.5165 16.8058C23.6765 16.8147 23.8112 16.6978 23.817 16.544C23.8227 16.3902 23.6974 16.2587 23.5374 16.2498C23.377 16.2409 23.2423 16.3578 23.2365 16.5116Z" fill="#352927"/>
<path d="M22.9529 16.1649C22.9889 16.2031 23.2097 16.0405 23.5226 16.0418C23.8355 16.0387 24.0649 16.2005 24.0986 16.1623C24.1151 16.1454 24.0791 16.0769 23.9786 16.0036C23.8804 15.9307 23.7124 15.86 23.5177 15.8605C23.3226 15.8614 23.1586 15.9325 23.064 16.0058C22.968 16.0796 22.9351 16.148 22.9529 16.1649Z" fill="#352927"/>
<path d="M21.8111 18.484C21.8124 18.4663 21.6182 18.432 21.3026 18.3911C21.2226 18.3827 21.1471 18.3667 21.1337 18.312C21.1151 18.2543 21.1488 18.168 21.1875 18.0751C21.2631 17.8818 21.3422 17.6791 21.4253 17.4671C21.7555 16.6014 21.9946 15.8889 21.96 15.876C21.9248 15.8631 21.6288 16.5543 21.2986 17.4205C21.2191 17.6338 21.1431 17.8378 21.0706 18.0325C21.0404 18.1231 20.988 18.2263 21.0284 18.3463C21.0497 18.4058 21.1084 18.4494 21.1595 18.4636C21.2106 18.4791 21.2555 18.4805 21.2951 18.4827C21.6128 18.5 21.8097 18.5018 21.8111 18.484Z" fill="#352927"/>
<path d="M21.9637 22.7378C21.9637 22.7378 22.6953 22.8262 24.2091 21.9205C24.1837 21.9258 23.8095 23.092 21.6357 22.8547L21.9637 22.7378Z" fill="#C8A399"/>
<path d="M22.8897 14.6147C22.8972 14.7049 23.2092 14.748 23.5524 14.8867C23.8981 15.0187 24.1559 15.2 24.223 15.1391C24.2537 15.1093 24.2248 15.0187 24.1306 14.908C24.0377 14.7973 23.875 14.6724 23.6688 14.5911C23.4621 14.5102 23.2581 14.4911 23.115 14.5084C22.9706 14.5253 22.8875 14.572 22.8897 14.6147Z" fill="#352927"/>
<path d="M19.9379 15.2107C20.0063 15.2694 20.2023 15.1534 20.4557 15.0978C20.7072 15.0334 20.9343 15.048 20.969 14.9654C20.9832 14.9254 20.9352 14.8627 20.8277 14.816C20.7214 14.7694 20.5557 14.7476 20.3819 14.7885C20.2183 14.8102 20.105 14.856 19.9966 15.0134C19.9219 15.1036 19.9072 15.1814 19.9379 15.2107Z" fill="#352927"/>
<path d="M27.0183 20.9231C26.3943 21.0489 26.3387 20.7315 25.8725 20.2982C25.4063 19.8649 25.1658 19.2013 25.2454 18.5698C25.3161 18.0124 25.6165 17.4458 25.4232 16.9182C25.1676 16.2209 24.1903 16.0066 23.9312 15.3106C23.7805 14.9062 23.9156 14.4333 23.7449 14.0369C23.5845 13.6644 23.1921 13.4498 22.8107 13.3115C22.4289 13.1738 22.0201 13.0782 21.6996 12.8293C21.3792 12.5804 21.1792 12.1102 21.3863 11.7609C23.0787 11.9635 24.7467 12.3689 26.3436 12.9653C26.7138 13.1035 27.1027 13.2698 27.3218 13.5986C27.5534 13.9466 27.5423 14.3969 27.5227 14.8146C27.4276 16.8515 27.3325 18.8884 27.2374 20.9253" fill="#352927"/>
<path d="M28.464 20.1618C28.4653 20.1626 28.4737 20.1533 28.4888 20.1338C28.5026 20.1133 28.5279 20.0858 28.5515 20.0431C28.6026 19.9609 28.6644 19.8284 28.7008 19.6462C28.7373 19.4653 28.7404 19.2306 28.6644 18.9764C28.5933 18.7226 28.4168 18.4502 28.1364 18.2662C27.8671 18.0764 27.5168 17.9444 27.2942 17.6422C27.1831 17.4946 27.1359 17.3035 27.1711 17.1093C27.2013 16.9146 27.2906 16.724 27.3684 16.5209C27.5417 16.1142 27.5435 15.6066 27.3391 15.1662C27.236 14.9475 27.0835 14.7435 26.8786 14.5942C26.6755 14.4404 26.4275 14.3613 26.1826 14.3058C25.9368 14.2498 25.692 14.2173 25.4644 14.1484C25.2377 14.0804 25.0204 13.9791 24.8631 13.8195C24.7013 13.6622 24.6328 13.444 24.6022 13.2244C24.5711 13.0049 24.5546 12.7773 24.4955 12.5649C24.3844 12.1395 24.1684 11.7626 23.8831 11.4915C23.5982 11.2191 23.2488 11.0626 22.9195 11.0133C22.5888 10.9618 22.2768 11.0231 22.0426 11.1462C21.8057 11.2666 21.6413 11.4342 21.5355 11.5853C21.4302 11.7386 21.3808 11.8764 21.3582 11.9702C21.3346 12.0644 21.336 12.116 21.336 12.116C21.3506 12.1222 21.3537 11.9031 21.5671 11.608C21.6746 11.4644 21.8377 11.3071 22.0675 11.196C22.2946 11.0826 22.5924 11.0293 22.9088 11.0831C23.2235 11.1346 23.5568 11.2884 23.8262 11.5511C24.0964 11.8129 24.3022 12.1764 24.4066 12.588C24.4626 12.7933 24.4773 13.0102 24.5084 13.2386C24.5377 13.4631 24.6133 13.712 24.7937 13.8884C24.9684 14.0658 25.2004 14.1729 25.4364 14.244C25.6746 14.316 25.9204 14.3484 26.1613 14.4035C26.4004 14.4578 26.6337 14.5333 26.8204 14.6746C27.0102 14.812 27.1533 15.0022 27.2511 15.208C27.444 15.624 27.4466 16.0982 27.2831 16.4884C27.208 16.6884 27.1168 16.8844 27.0848 17.0964C27.0471 17.3075 27.104 17.532 27.228 17.6911C27.4755 18.0164 27.8364 18.1431 28.0973 18.3244C28.3688 18.4982 28.5373 18.7493 28.6115 18.9929C28.6897 19.2355 28.6924 19.4626 28.6631 19.6391C28.6004 19.9986 28.4493 20.1555 28.464 20.1618Z" fill="#322321"/>
<path d="M28.3126 13.8284C28.3126 13.8284 28.3339 13.7955 28.3405 13.7235C28.3481 13.6529 28.3374 13.5404 28.2654 13.4222C28.1952 13.3053 28.0699 13.1804 27.8863 13.1084C27.7006 13.0369 27.4712 13.0395 27.2348 13.0871C26.997 13.132 26.7508 13.2271 26.4806 13.2795C26.2157 13.3306 25.8992 13.3378 25.6601 13.1506C25.4188 12.9675 25.2979 12.6498 25.1743 12.3342C25.0534 12.012 24.8819 11.6871 24.6503 11.4C24.1881 10.8244 23.5614 10.4293 22.9334 10.2898C22.6197 10.2218 22.3028 10.228 22.0268 10.3138C21.7517 10.3991 21.5206 10.5546 21.3632 10.7426C21.2032 10.9298 21.125 11.1506 21.1121 11.344C21.0961 11.5382 21.1339 11.7053 21.1872 11.8302C21.2397 11.956 21.3077 12.04 21.3579 12.0893C21.4081 12.1395 21.4401 12.1591 21.4414 12.1573C21.453 12.1484 21.3174 12.0626 21.2228 11.8155C21.1774 11.6938 21.1468 11.5329 21.1672 11.3489C21.185 11.1658 21.2623 10.9618 21.4166 10.788C21.5681 10.6133 21.789 10.4698 22.0508 10.3924C22.3121 10.3151 22.613 10.3115 22.9139 10.3791C23.5157 10.5178 24.1246 10.9035 24.5726 11.4618C24.7979 11.7418 24.9628 12.0515 25.0837 12.3698C25.209 12.6826 25.3334 13.0182 25.605 13.2235C25.737 13.3258 25.8988 13.3778 26.053 13.3915C26.2081 13.4066 26.3574 13.3875 26.497 13.3604C26.777 13.3022 27.0197 13.204 27.2494 13.156C27.477 13.1053 27.6957 13.1 27.8672 13.1609C28.0397 13.2226 28.1623 13.3364 28.233 13.4431C28.3059 13.5511 28.3219 13.6551 28.321 13.7226C28.3205 13.7911 28.3063 13.8266 28.3126 13.8284Z" fill="#322321"/>
<path d="M21.8858 20.628L22.8996 22.1014L23.0947 22.9529C23.0947 22.9529 23.1293 22.6827 23.1836 22.4258C23.2378 22.1689 23.1836 21.3982 23.1836 21.3982L22.44 20.2898C22.44 20.2898 22.0076 19.6814 22.3725 19.3165L23.0947 20.0329C23.0947 20.0329 22.4805 19.1791 22.8996 18.8622L23.4951 19.3662C23.4951 19.3662 23.3262 19.164 23.556 19.0018L25.0898 20.4787L25.2791 22.9525L25.1982 25.5614L26.7227 27.5667L24.516 29.7391C24.516 29.7391 22.4458 26.3649 22.3245 25.8511C22.2027 25.3374 22.3191 22.5062 22.3191 22.5062C22.3191 22.5062 21.6893 21.5965 21.6973 21.1951C21.7053 20.7938 21.8858 20.628 21.8858 20.628Z" fill="#FAD2C3"/>
<path d="M23.6315 28.192C23.6306 28.1924 23.6248 28.1853 23.6137 28.1707C23.6026 28.1547 23.587 28.1324 23.567 28.1036C23.5266 28.0418 23.4675 27.9529 23.3906 27.8364C23.2386 27.6009 23.0168 27.2529 22.7519 26.7964C22.6212 26.5671 22.4746 26.3138 22.3497 26.016C22.2817 25.8662 22.2679 25.6916 22.2559 25.5204C22.2452 25.3476 22.2395 25.168 22.2372 24.9831C22.2275 24.2418 22.2457 23.404 22.2777 22.4849L22.2848 22.5098C22.1039 22.2409 21.9257 21.9547 21.7799 21.6338C21.7439 21.5533 21.7115 21.4702 21.6861 21.3827C21.6732 21.3391 21.6639 21.2933 21.6572 21.2462L21.6523 21.1738L21.6555 21.1044C21.6617 21.012 21.6781 20.9191 21.7092 20.8289C21.7412 20.7382 21.7808 20.6529 21.855 20.5742L21.891 20.536L21.9226 20.5818C22.2457 21.0498 22.5866 21.5444 22.9386 22.0538L22.9439 22.0613L22.9461 22.0702C23.0075 22.3373 23.0746 22.6276 23.1421 22.9218L23.047 22.9262C23.0675 22.8027 23.0888 22.6773 23.1101 22.5502C23.1208 22.4876 23.131 22.4244 23.1417 22.3613C23.1506 22.3009 23.1546 22.2369 23.1563 22.1729C23.1639 21.9151 23.1515 21.648 23.1346 21.3813L23.143 21.4053C22.9981 21.1893 22.8488 20.9667 22.6968 20.7404C22.6208 20.6271 22.5443 20.5133 22.4675 20.3987C22.4301 20.3413 22.3883 20.2849 22.3519 20.2213C22.3163 20.1591 22.283 20.0951 22.2568 20.0276C22.2066 19.9053 22.1741 19.772 22.179 19.6351C22.1826 19.4987 22.2381 19.3573 22.3381 19.2609L22.3737 19.2267L22.4083 19.2609C22.6519 19.5022 22.8923 19.7413 23.1306 19.9778L23.0559 20.0413C22.9288 19.8551 22.823 19.6609 22.7541 19.4476C22.7212 19.3413 22.699 19.2284 22.7079 19.1116C22.7159 18.9956 22.7741 18.8747 22.8715 18.8031L22.9039 18.7791L22.9332 18.8058C23.1395 18.992 23.3426 19.1756 23.543 19.3569L23.4719 19.4196C23.4266 19.3471 23.3995 19.2698 23.4039 19.1813C23.407 19.0924 23.4635 19.0111 23.5292 18.9644L23.5612 18.9413L23.5892 18.968C24.1221 19.4756 24.6337 19.9627 25.1208 20.4262L25.1332 20.4378L25.1346 20.4547C25.2008 21.3453 25.2617 22.172 25.3181 22.9289V22.9311V22.9329C25.283 23.9373 25.2523 24.8116 25.227 25.5418L25.2212 25.524C25.6812 26.1453 26.0457 26.6369 26.2959 26.9751C26.4186 27.1436 26.5132 27.2733 26.5781 27.3627C26.6088 27.4062 26.6323 27.4396 26.6492 27.4636C26.6648 27.4867 26.6723 27.4987 26.6715 27.4991C26.6706 27.5 26.6608 27.4893 26.6435 27.468C26.6252 27.4453 26.5995 27.4133 26.5661 27.3716C26.4986 27.2844 26.3999 27.1573 26.2723 26.9929C26.0172 26.6587 25.6457 26.172 25.1768 25.5578L25.171 25.5502L25.1715 25.54C25.1915 24.8098 25.215 23.9356 25.2426 22.9307V22.9347C25.183 22.1782 25.1177 21.3516 25.0475 20.4613L25.0612 20.4898C24.5728 20.0276 24.0599 19.5418 23.5257 19.036L23.5861 19.04C23.5363 19.0773 23.5021 19.1276 23.4999 19.1867C23.4959 19.2449 23.519 19.3124 23.5519 19.3644L23.7395 19.66L23.4808 19.4271C23.2799 19.2462 23.0763 19.0631 22.8697 18.8773L22.9315 18.88C22.8572 18.936 22.8146 19.0227 22.8066 19.1196C22.799 19.2164 22.8181 19.3191 22.8492 19.4178C22.9123 19.6156 23.0172 19.8076 23.1372 19.9831L23.0626 20.0467C22.8243 19.8107 22.5835 19.5716 22.3399 19.3302H22.4097C22.327 19.4107 22.2835 19.5218 22.2795 19.6382C22.2755 19.7551 22.303 19.876 22.3501 19.9893C22.3746 20.052 22.4057 20.112 22.439 20.1702C22.4719 20.2276 22.5123 20.2827 22.5506 20.3413C22.6275 20.4564 22.7043 20.5707 22.7803 20.6836C22.9323 20.9102 23.0812 21.1329 23.2266 21.3493L23.2341 21.3604L23.235 21.3733C23.2519 21.6436 23.2639 21.9102 23.2563 22.1751C23.2541 22.2413 23.2501 22.3076 23.2403 22.3756C23.2297 22.44 23.2186 22.5036 23.2079 22.5671C23.1866 22.6924 23.1657 22.816 23.1452 22.9373L23.1043 23.1791L23.0501 22.9418C22.983 22.6476 22.9168 22.3569 22.8559 22.0898L22.863 22.1062C22.5128 21.5956 22.1728 21.1004 21.851 20.6316L21.9186 20.6391C21.8661 20.6938 21.823 20.7764 21.7959 20.8564C21.7675 20.9378 21.7523 21.0236 21.7457 21.1093C21.7279 21.2773 21.7955 21.4404 21.8608 21.5973C22.0003 21.9098 22.1772 22.1964 22.3537 22.4613L22.3612 22.4729L22.3608 22.4862C22.3239 23.404 22.3008 24.2418 22.3048 24.9804C22.3057 25.1653 22.3101 25.3436 22.319 25.5151C22.3297 25.6871 22.3408 25.8493 22.4043 25.9933C22.5235 26.2853 22.6675 26.5413 22.7946 26.7711C23.0528 27.2298 23.2679 27.5813 23.4132 27.8213C23.4857 27.9404 23.5408 28.0316 23.5795 28.0947C23.5972 28.1249 23.611 28.148 23.6212 28.1653C23.6283 28.1827 23.6323 28.1911 23.6315 28.192Z" fill="#C8A399"/>
<path d="M24.0817 22.5711C24.0679 22.572 24.047 22.4098 24.0234 22.1476C24.0003 21.8853 23.975 21.5227 23.9537 21.1213C23.9519 21.0836 23.9497 21.0462 23.9479 21.0111L23.9608 21.0418C23.7088 20.7622 23.4874 20.5093 23.3319 20.324C23.1759 20.1387 23.0857 20.0213 23.0954 20.0124C23.1052 20.0036 23.2132 20.1053 23.3821 20.2787C23.551 20.452 23.7808 20.6973 24.0341 20.9756L24.0457 20.9884L24.0466 21.0062C24.0483 21.0413 24.0506 21.0787 24.0528 21.1164C24.0746 21.5173 24.0883 21.8809 24.0937 22.144C24.099 22.4071 24.0954 22.5702 24.0817 22.5711Z" fill="#C8A399"/>
<path d="M24.6634 21.7942C24.6505 21.7951 24.631 21.648 24.6096 21.4071C24.5883 21.1662 24.5647 20.8306 24.5443 20.4546L24.559 20.4875C24.5319 20.4609 24.503 20.4329 24.4736 20.404C24.1847 20.1213 23.927 19.8613 23.7443 19.6698C23.5612 19.4782 23.4527 19.3546 23.4625 19.3449C23.4723 19.3351 23.5976 19.4409 23.7936 19.6195C23.9892 19.7982 24.2545 20.0502 24.5434 20.3329C24.5727 20.3613 24.6016 20.3898 24.6287 20.4164L24.6425 20.4302L24.6434 20.4493C24.6621 20.8253 24.6736 21.1613 24.6772 21.4035C24.6803 21.6457 24.6763 21.7938 24.6634 21.7942Z" fill="#C8A399"/>
<path d="M19.9475 24.1632C19.9475 24.1632 19.7853 23.0592 19.6328 22.6663C19.4804 22.2738 19.0586 21.7769 19.0586 21.7769C19.0586 21.7769 19.2884 21.5201 19.6586 21.7374C20.1395 22.0196 20.1141 22.6618 20.1141 22.6618L19.9475 24.1632Z" fill="#FAD2C3"/>
<path d="M20.068 22.7671C20.068 22.7671 19.8067 20.9374 19.824 20.8151C19.8413 20.6934 20.5213 19.0898 20.5213 19.0898C20.5213 19.0898 20.9222 19.0551 20.8698 19.4382C20.8173 19.8218 20.6782 20.24 20.6782 20.24L21.7587 18.9854C21.7587 18.9854 22.1595 19.0725 22.0027 19.4734C22.0027 19.4734 22.3684 19.4209 22.264 20.0311L21.7809 20.9569L21.836 21.9196L22.6302 20.8765C22.6302 20.8765 23.0138 21.1116 22.8218 21.4951C22.6302 21.8787 22.2293 22.7676 22.2293 22.7676L22.3458 24.1445C22.3458 24.1445 22.5493 24.9111 22.3458 25.312C22.1422 25.7129 21.9507 26.0787 21.9507 26.0787L21.5871 29.4222L19.2227 27.9382L19.912 24.58L20.068 22.7671Z" fill="#FAD2C3"/>
<path d="M21.587 29.4218C21.5852 29.4218 21.5861 29.4018 21.5888 29.3631C21.5919 29.3231 21.5968 29.2663 21.6026 29.1916C21.6172 29.0391 21.6381 28.8174 21.6657 28.5303C21.7248 27.9534 21.8106 27.1174 21.9177 26.0743L21.9181 26.068L21.9212 26.0623C21.9906 25.9267 22.0617 25.7867 22.1355 25.6423C22.1724 25.5703 22.2097 25.4969 22.2475 25.4227C22.2857 25.3476 22.327 25.2743 22.3506 25.1983C22.399 25.0414 22.4039 24.8663 22.3928 24.6903C22.3804 24.5138 22.3515 24.332 22.307 24.1538L22.3061 24.1503L22.3057 24.1471C22.2679 23.7107 22.2275 23.2498 22.1861 22.7707L22.1852 22.7591L22.1901 22.7489C22.3301 22.4471 22.475 22.1347 22.6239 21.8134C22.6612 21.7329 22.6986 21.652 22.7364 21.5707C22.7737 21.4867 22.8155 21.4129 22.8252 21.3325C22.8515 21.1711 22.7457 21.0085 22.6061 20.916L22.6684 20.9045C22.4172 21.2347 22.1488 21.588 21.875 21.9485L21.7955 22.0534L21.7879 21.9218C21.7701 21.6178 21.7515 21.2907 21.7324 20.9591L21.7315 20.9458L21.7377 20.9338C21.891 20.64 22.055 20.3254 22.2208 20.0076L22.2159 20.0223C22.2301 19.9271 22.2408 19.8267 22.2257 19.732C22.2124 19.6369 22.1639 19.5525 22.0795 19.5298C22.0572 19.5231 22.0288 19.5205 22.0106 19.5223L21.9279 19.5298L21.9572 19.4547C21.9932 19.3636 22.0039 19.2645 21.963 19.1876C21.9248 19.1103 21.8346 19.056 21.7488 19.0334L21.7968 19.0174C21.4292 19.4436 21.0684 19.8627 20.7155 20.2716L20.559 20.4534L20.6324 20.2245C20.7044 19.9991 20.7652 19.7698 20.8052 19.5418C20.8155 19.4849 20.8244 19.4263 20.8266 19.3756C20.8257 19.3245 20.8159 19.2751 20.7901 19.2374C20.7399 19.1609 20.6248 19.1316 20.5257 19.1365L20.5652 19.1076C20.4301 19.4298 20.2977 19.7458 20.1679 20.0551C20.1048 20.2103 20.0426 20.3636 19.9808 20.5156C19.951 20.5916 19.9208 20.6676 19.8941 20.7423C19.8879 20.7605 19.8799 20.7809 19.8755 20.7969L19.8688 20.8205V20.8445C19.8701 20.8796 19.8732 20.9214 19.8768 20.96C19.9444 21.5938 20.031 22.1965 20.1075 22.7605L20.1079 22.7654L20.1075 22.7698C20.0479 23.4289 19.9937 24.0347 19.9444 24.5818V24.584L19.9439 24.5858C19.7226 25.6316 19.5452 26.4698 19.423 27.048C19.3604 27.3347 19.3115 27.5569 19.2781 27.7094C19.2608 27.7831 19.2475 27.84 19.2381 27.88C19.2288 27.9183 19.223 27.9378 19.2212 27.9374C19.2195 27.9369 19.2221 27.9169 19.2284 27.8783C19.2355 27.8378 19.2457 27.7805 19.259 27.7058C19.2884 27.5525 19.331 27.3294 19.3866 27.0409C19.5017 26.4609 19.6688 25.6209 19.8777 24.5725L19.8772 24.5765C19.9226 24.0289 19.9728 23.4231 20.0279 22.7636L20.0284 22.7725C19.9484 22.2076 19.859 21.6076 19.7884 20.9689C19.7844 20.928 19.7808 20.8898 19.7795 20.8445L19.7799 20.808L19.7888 20.7734C19.795 20.7503 19.8021 20.7334 19.8088 20.7129C19.8364 20.6351 19.8661 20.5591 19.8959 20.4827C19.9572 20.3303 20.0195 20.1765 20.0821 20.0205C20.211 19.7107 20.343 19.3938 20.4772 19.0711L20.4888 19.0436L20.5168 19.0423C20.583 19.0391 20.6435 19.0458 20.7061 19.0663C20.7675 19.0867 20.8288 19.1249 20.8684 19.1836C20.9084 19.2423 20.9212 19.312 20.9217 19.3765C20.919 19.4427 20.9092 19.4996 20.899 19.5583C20.8581 19.7929 20.7972 20.0236 20.7239 20.2551L20.6408 20.208C20.9932 19.7987 21.3537 19.3796 21.7208 18.9529L21.7408 18.9298L21.7688 18.9369C21.8288 18.952 21.879 18.9756 21.9292 19.0089C21.9777 19.0418 22.0221 19.0871 22.0501 19.1427C22.1097 19.256 22.0892 19.388 22.0484 19.4916L21.995 19.4245C22.0364 19.4205 22.0692 19.4249 22.1057 19.4351C22.1684 19.4529 22.2252 19.4951 22.2599 19.548C22.2941 19.6009 22.3155 19.6596 22.3221 19.716C22.3399 19.8303 22.3275 19.9378 22.3124 20.0396L22.3115 20.0467L22.3075 20.0543C22.1417 20.372 21.9772 20.6863 21.8239 20.98L21.8292 20.9543C21.8479 21.2858 21.8666 21.6129 21.8835 21.9169L21.7964 21.8903C22.071 21.5303 22.3399 21.1774 22.5919 20.8476L22.619 20.8125L22.6546 20.836C22.7408 20.8938 22.8079 20.9649 22.859 21.0525C22.9092 21.1391 22.9306 21.2454 22.9164 21.3454C22.903 21.4467 22.8528 21.5329 22.8177 21.612C22.7799 21.6929 22.7421 21.7738 22.7048 21.8538C22.555 22.1738 22.4092 22.4849 22.2688 22.7854L22.2724 22.7636C22.3119 23.2431 22.3497 23.704 22.3857 24.1405L22.3844 24.1334C22.4297 24.3196 22.4577 24.5031 22.4697 24.6854C22.4799 24.8671 22.475 25.0494 22.4208 25.2209C22.3924 25.3085 22.3492 25.3827 22.3115 25.456C22.2728 25.5303 22.235 25.6031 22.1977 25.6751C22.123 25.8191 22.0501 25.9587 21.9799 26.0938L21.9835 26.0818C21.8635 27.1231 21.7675 27.9583 21.7012 28.5347C21.6661 28.8205 21.639 29.0423 21.6208 29.1938C21.6106 29.2676 21.603 29.3245 21.5977 29.364C21.5924 29.4027 21.5884 29.4223 21.587 29.4218Z" fill="#C8A399"/>
<path d="M20.5573 22.1973C20.5302 22.2009 20.4462 21.7449 20.3697 21.1787C20.3475 21.0133 20.3284 20.8573 20.3133 20.7209L20.3115 20.7031L20.3209 20.6902C20.5186 20.4125 20.6626 20.2293 20.6786 20.24C20.6946 20.2507 20.5786 20.4529 20.3942 20.74L20.4013 20.7093C20.4231 20.8449 20.4457 21.0005 20.468 21.1658C20.5444 21.7316 20.5844 22.1938 20.5573 22.1973Z" fill="#C8A399"/>
<path d="M21.1647 21.7769C21.1425 21.7796 21.0803 21.3911 21.0149 20.8538L21.0127 20.8365L21.0229 20.8214C21.0874 20.7263 21.1567 20.6236 21.2283 20.5178C21.6336 19.9249 21.9807 19.4569 22.0034 19.4725C22.026 19.488 21.7158 19.9809 21.31 20.5738C21.2371 20.6792 21.1669 20.7805 21.1016 20.8752L21.1096 20.8432C21.1629 21.3818 21.1869 21.7747 21.1647 21.7769Z" fill="#C8A399"/>
<path d="M16.3366 20.0458C16.1184 19.992 15.066 19.7333 13.0304 19.2333L13.0549 19.2293C12.3278 19.6929 11.3429 20.0671 10.2011 20.0849C9.63309 20.0827 9.0322 20.0147 8.43265 19.8267C7.83353 19.64 7.24465 19.3302 6.70909 18.9129C5.63798 18.0845 4.80376 16.7565 4.62376 15.228C4.53176 14.4689 4.59353 13.6707 4.82953 12.9062C5.06998 12.144 5.48509 11.4218 6.0442 10.8138C6.32776 10.4925 6.66153 10.2258 7.00198 9.97957C7.18065 9.86934 7.35709 9.75468 7.54109 9.65734L7.82242 9.52179L7.96242 9.45468L8.1082 9.40134C8.87842 9.10268 9.69842 8.98712 10.4855 9.03957C11.2735 9.09023 12.0278 9.31068 12.6878 9.65779C13.3491 10.0045 13.9158 10.4747 14.3606 11.0089C14.8069 11.5431 15.1309 12.1405 15.3371 12.7436C15.5433 13.3476 15.6371 13.9547 15.6424 14.5285C15.6491 15.6813 15.2891 16.6702 14.8504 17.3925L14.8509 17.3627C15.7695 19.0227 16.234 19.8609 16.3366 20.0458C16.2304 19.8631 15.75 19.0338 14.7989 17.3929L14.7904 17.3782L14.7993 17.3631C15.2269 16.6449 15.5753 15.6662 15.562 14.5302C15.5535 13.9645 15.458 13.3671 15.2526 12.7738C15.0473 12.1813 14.7264 11.5951 14.2864 11.0716C13.8473 10.548 13.2895 10.0876 12.6398 9.7489C11.9913 9.40979 11.2509 9.19468 10.478 9.14623C9.70598 9.09601 8.90242 9.21023 8.14731 9.50357L8.00465 9.55601L7.86731 9.62223L7.59176 9.75512C7.41131 9.85023 7.23842 9.96312 7.06331 10.0711C6.72998 10.3129 6.40242 10.5742 6.12465 10.8893C5.57665 11.4853 5.16953 12.1929 4.93309 12.94C4.70109 13.6889 4.63976 14.4716 4.72909 15.2165C4.90331 16.7156 5.71842 18.0205 6.7682 18.8378C7.29309 19.2493 7.87087 19.556 8.45931 19.7418C9.0482 19.9289 9.63931 19.9987 10.1993 20.004C11.3246 19.9925 12.2984 19.6298 13.0211 19.1773L13.0326 19.1702L13.0455 19.1738C15.0718 19.7107 16.1193 19.9885 16.3366 20.0458Z" fill="#B1B5DB"/>
<path d="M9.65796 12.1035L9.83263 14.8653C9.84685 15.0911 10.0273 15.2711 10.2531 15.2844C10.4913 15.2987 10.6989 15.1235 10.7251 14.8862L11.0317 12.1107C11.0549 11.9004 10.8886 11.7173 10.6775 11.7204L10.0037 11.7298C9.80285 11.7324 9.64507 11.9031 9.65796 12.1035Z" fill="#B1B5DB"/>
<path d="M10.985 16.8378C10.8676 17.1911 10.4863 17.3822 10.133 17.2649C9.77963 17.1476 9.58808 16.7662 9.70541 16.4129C9.82274 16.0596 10.2041 15.8684 10.5574 15.9853C10.9112 16.1031 11.1023 16.4844 10.985 16.8378Z" fill="#B1B5DB"/>
</g>
</g>
<defs>
<clipPath id="clip0_1141_49269">
<rect width="48" height="48" rx="24" fill="white"/>
</clipPath>
<clipPath id="clip1_1141_49269">
<rect width="48" height="48" fill="white"/>
</clipPath>
</defs>
</svg>
