<svg width="48" height="48" viewBox="0 0 48 48" fill="none" xmlns="http://www.w3.org/2000/svg">
<g clip-path="url(#clip0_1141_49271)">
<rect width="48" height="48" rx="24" fill="white"/>
<g opacity="0.45">
<path d="M36.3743 40.6218C36.2467 40.5124 35.9614 40.1653 36.1814 39.7613C36.2618 39.6133 36.4329 39.54 36.588 39.4751C36.7427 39.4098 36.9058 39.3533 37.0338 39.244C37.2756 39.0382 37.3423 38.6969 37.5027 38.4227C37.6867 38.108 38.0307 37.872 38.3938 37.8884C38.8098 37.9076 39.1565 38.2471 39.3138 38.6342C39.4711 39.0213 39.4765 39.4516 39.4796 39.8698C39.4814 40.1009 39.4711 40.3618 39.3014 40.5178C39.1449 40.6618 38.9094 40.6636 38.6969 40.6569C37.9396 40.6338 37.1818 40.6102 36.424 40.5871" fill="#8D93B5"/>
<path d="M40.721 34.372H34.7441L35.8206 40.792C35.8677 41.0725 36.0704 41.2885 36.3308 41.3636C36.3375 41.3658 36.3446 41.3671 36.3517 41.3693C36.3695 41.3738 36.3868 41.38 36.405 41.3831C36.4446 41.3911 36.485 41.3956 36.5264 41.3969C36.5268 41.3987 36.5268 41.4009 36.5273 41.4031L36.5566 41.3987H39.2206C39.2708 41.3987 39.3197 41.3933 39.3668 41.384C39.6815 41.3356 39.933 41.0827 39.9713 40.7565L40.4904 36.3329L40.5139 36.1569H40.5113L40.7166 34.4053L40.721 34.372ZM39.5935 38.4671H38.9801L39.0419 36.604H39.7526L39.5935 38.4671ZM39.8121 36.604H40.3993L40.1806 38.4671H39.653L39.8121 36.604ZM38.0597 40.5325L38.0224 38.9138H38.9055L38.8517 40.5325H38.0597ZM37.105 38.9138H37.9633L38.0006 40.5325H37.2308L37.105 38.9138ZM37.1713 40.5325H36.4517C36.3833 40.0956 36.2944 39.5276 36.1979 38.9138H37.0455L37.1713 40.5325ZM37.0704 38.4671L36.9255 36.604H37.9099L37.953 38.4671H37.0704ZM38.0121 38.4671L37.969 36.604H38.9824L38.9206 38.4671H38.0121ZM37.9588 36.1569L37.9193 34.4316H39.0548L38.9975 36.1569H37.9588ZM37.8997 36.1569H36.8908L36.7566 34.4316H37.8601L37.8997 36.1569ZM36.8313 36.1569H35.7637C35.7259 35.9187 35.6899 35.6929 35.6575 35.4902C35.5459 34.7925 35.5041 34.5302 35.481 34.4316H36.697L36.8313 36.1569ZM36.8659 36.604L37.0108 38.4671H36.1277C36.0979 38.2782 36.0681 38.0867 36.0379 37.8956C35.9686 37.4556 35.8993 37.016 35.8344 36.604H36.8659ZM36.0677 38.4671H35.4908L35.1784 36.604H35.7739C35.865 37.1796 35.9664 37.8205 36.0677 38.4671ZM36.1379 38.9138C36.2259 39.4738 36.3121 40.0262 36.3917 40.5325H35.8375L35.5659 38.9138H36.1379ZM38.9113 40.5325L38.965 38.9138H39.5553L39.417 40.5325H38.9113ZM39.0566 36.1569L39.1139 34.4316H39.9379L39.7904 36.1569H39.0566ZM35.4246 34.4316C35.4481 34.5565 35.5575 35.2351 35.7037 36.1569H35.1037L34.8144 34.4316H35.4246ZM39.9384 40.5325H39.4766L39.6148 38.9138H40.1286L39.9384 40.5325ZM40.4517 36.1569H39.8504L39.9979 34.4316H40.6544L40.4517 36.1569Z" fill="#B1B5DB"/>
</g>
<g opacity="0.15">
<path d="M14.6023 18.3173H11.4814V21.4382H14.6023V18.3173Z" fill="#B1B5DB"/>
<path d="M14.6023 21.8964H11.4814V25.0173H14.6023V21.8964Z" fill="#B1B5DB"/>
<path d="M18.2127 18.3173H15.0918V21.4382H18.2127V18.3173Z" fill="#B1B5DB"/>
<path d="M18.2127 21.8964H15.0918V25.0173H18.2127V21.8964Z" fill="#B1B5DB"/>
<path d="M21.7264 18.3173H18.6055V21.4382H21.7264V18.3173Z" fill="#B1B5DB"/>
<path d="M21.7264 21.8964H18.6055V25.0173H21.7264V21.8964Z" fill="#B1B5DB"/>
<path d="M25.3367 18.3173H22.2158V21.4382H25.3367V18.3173Z" fill="#B1B5DB"/>
<path d="M25.3367 21.8964H22.2158V25.0173H25.3367V21.8964Z" fill="#B1B5DB"/>
<path d="M28.8504 18.3173H25.7295V21.4382H28.8504V18.3173Z" fill="#B1B5DB"/>
<path d="M28.8504 21.8964H25.7295V25.0173H28.8504V21.8964Z" fill="#B1B5DB"/>
<path d="M32.4607 18.3173H29.3398V21.4382H32.4607V18.3173Z" fill="#B1B5DB"/>
<path d="M32.4607 21.8964H29.3398V25.0173H32.4607V21.8964Z" fill="#B1B5DB"/>
<path d="M35.9744 18.3173H32.8535V21.4382H35.9744V18.3173Z" fill="#B1B5DB"/>
<path d="M35.9744 21.8964H32.8535V25.0173H35.9744V21.8964Z" fill="#B1B5DB"/>
<path d="M39.5848 18.3173H36.4639V21.4382H39.5848V18.3173Z" fill="#B1B5DB"/>
<path d="M39.5848 21.8964H36.4639V25.0173H39.5848V21.8964Z" fill="#B1B5DB"/>
<path d="M43.0994 18.3173H39.9785V21.4382H43.0994V18.3173Z" fill="#B1B5DB"/>
<path d="M43.0994 21.8964H39.9785V25.0173H43.0994V21.8964Z" fill="#B1B5DB"/>
<path d="M46.7098 18.3173H43.5889V21.4382H46.7098V18.3173Z" fill="#B1B5DB"/>
<path d="M46.7098 21.8964H43.5889V25.0173H46.7098V21.8964Z" fill="#B1B5DB"/>
<path d="M14.6023 25.3142H11.4814V28.4351H14.6023V25.3142Z" fill="#B1B5DB"/>
<path d="M14.6023 28.8933H11.4814V32.0142H14.6023V28.8933Z" fill="#B1B5DB"/>
<path d="M18.2127 25.3142H15.0918V28.4351H18.2127V25.3142Z" fill="#B1B5DB"/>
<path d="M18.2127 28.8933H15.0918V32.0142H18.2127V28.8933Z" fill="#B1B5DB"/>
<path d="M21.7264 25.3142H18.6055V28.4351H21.7264V25.3142Z" fill="#B1B5DB"/>
<path d="M21.7264 28.8933H18.6055V32.0142H21.7264V28.8933Z" fill="#B1B5DB"/>
<path d="M25.3367 25.3142H22.2158V28.4351H25.3367V25.3142Z" fill="#B1B5DB"/>
<path d="M25.3367 28.8933H22.2158V32.0142H25.3367V28.8933Z" fill="#B1B5DB"/>
<path d="M28.8504 25.3142H25.7295V28.4351H28.8504V25.3142Z" fill="#B1B5DB"/>
<path d="M28.8504 28.8933H25.7295V32.0142H28.8504V28.8933Z" fill="#B1B5DB"/>
<path d="M32.4607 25.3142H29.3398V28.4351H32.4607V25.3142Z" fill="#B1B5DB"/>
<path d="M32.4607 28.8933H29.3398V32.0142H32.4607V28.8933Z" fill="#B1B5DB"/>
<path d="M35.9744 25.3142H32.8535V28.4351H35.9744V25.3142Z" fill="#B1B5DB"/>
<path d="M35.9744 28.8933H32.8535V32.0142H35.9744V28.8933Z" fill="#B1B5DB"/>
<path d="M39.5848 25.3142H36.4639V28.4351H39.5848V25.3142Z" fill="#B1B5DB"/>
<path d="M39.5848 28.8933H36.4639V32.0142H39.5848V28.8933Z" fill="#B1B5DB"/>
<path d="M43.0994 25.3142H39.9785V28.4351H43.0994V25.3142Z" fill="#B1B5DB"/>
<path d="M43.0994 28.8933H39.9785V32.0142H43.0994V28.8933Z" fill="#B1B5DB"/>
<path d="M46.7098 25.3142H43.5889V28.4351H46.7098V25.3142Z" fill="#B1B5DB"/>
<path d="M46.7098 28.8933H43.5889V32.0142H46.7098V28.8933Z" fill="#B1B5DB"/>
<path d="M7.44218 18.3173H4.32129V21.4382H7.44218V18.3173Z" fill="#B1B5DB"/>
<path d="M7.44218 21.8964H4.32129V25.0173H7.44218V21.8964Z" fill="#B1B5DB"/>
<path d="M11.0525 18.3173H7.93164V21.4382H11.0525V18.3173Z" fill="#B1B5DB"/>
<path d="M11.0525 21.8964H7.93164V25.0173H11.0525V21.8964Z" fill="#B1B5DB"/>
<path d="M7.44218 25.3142H4.32129V28.4351H7.44218V25.3142Z" fill="#B1B5DB"/>
<path d="M7.44218 28.8933H4.32129V32.0142H7.44218V28.8933Z" fill="#B1B5DB"/>
<path d="M11.0525 25.3142H7.93164V28.4351H11.0525V25.3142Z" fill="#B1B5DB"/>
<path d="M11.0525 28.8933H7.93164V32.0142H11.0525V28.8933Z" fill="#B1B5DB"/>
</g>
<g opacity="0.29">
<path d="M7.04431 16.4196H16.1768V3.18228L7.04431 3.18228L7.04431 16.4196Z" fill="#8D93B5"/>
<path d="M7.50232 16.4196H16.6348V3.18228L7.50232 3.18228L7.50232 16.4196Z" fill="#B1B5DB"/>
<path d="M15.4989 4.61646H8.63574V14.9862H15.4989V4.61646Z" fill="white"/>
<path d="M8.63595 14.9862C8.63595 14.9862 8.63684 14.9685 8.63728 14.9356C8.63773 14.9013 8.63817 14.8525 8.63861 14.7885C8.63906 14.6582 8.63995 14.4676 8.64128 14.2196C8.64261 13.7227 8.64484 12.9982 8.6475 12.0836C8.65017 10.2551 8.65417 7.66579 8.65861 4.61646L8.63595 4.63913C10.7328 4.63957 13.0564 4.64046 15.4982 4.64135H15.4991L15.4742 4.61646C15.4759 8.52846 15.4777 12.1351 15.4791 14.9862L15.4991 14.9667C13.4088 14.9711 11.6959 14.9747 10.5035 14.9769C9.90706 14.9791 9.44128 14.9809 9.1235 14.9818C8.96528 14.9827 8.84439 14.9836 8.76128 14.984C8.67906 14.9845 8.63595 14.9862 8.63595 14.9862C8.63595 14.9862 8.67639 14.9876 8.75684 14.9885C8.83906 14.9889 8.95906 14.9898 9.1155 14.9907C9.43239 14.992 9.89684 14.9933 10.4911 14.9956C11.6862 14.9982 13.4035 15.0018 15.4991 15.0058H15.5191V14.9858C15.5204 12.1347 15.5222 8.52801 15.5239 4.61601V4.59113H15.4991H15.4982C13.0559 4.59201 10.7328 4.59246 8.63595 4.59335H8.61328V4.61601C8.61773 7.67157 8.62173 10.2658 8.62439 12.0982C8.62706 13.0111 8.62928 13.7333 8.63061 14.2293C8.63195 14.4751 8.63284 14.6645 8.63328 14.7938C8.63373 14.8565 8.63417 14.9045 8.63462 14.9382C8.63506 14.9702 8.63595 14.9862 8.63595 14.9862Z" fill="#8D93B5"/>
<path d="M7.4759 3.18266C7.47057 3.18666 7.53279 3.27733 7.63857 3.41911C7.74479 3.56089 7.89501 3.75378 8.06701 3.96267C8.23901 4.17155 8.39946 4.356 8.51857 4.48755C8.63768 4.61866 8.71457 4.69689 8.71946 4.69244C8.72479 4.688 8.65724 4.60133 8.54524 4.46444C8.42301 4.316 8.27235 4.13333 8.10568 3.93111C7.93946 3.72889 7.78879 3.54622 7.66657 3.39733C7.55279 3.26133 7.48124 3.17822 7.4759 3.18266Z" fill="#8D93B5"/>
<path d="M8.60021 14.9525C8.25932 15.4947 7.8571 15.9978 7.40332 16.4493Z" fill="white"/>
<path d="M7.40355 16.4498C7.408 16.4542 7.48933 16.3836 7.61244 16.26C7.73511 16.1364 7.89778 15.9582 8.064 15.7507C8.23022 15.5427 8.368 15.3449 8.46133 15.1982C8.55511 15.0511 8.60622 14.9564 8.60044 14.9529C8.59422 14.9489 8.53289 15.0373 8.432 15.1787C8.33155 15.32 8.18978 15.5133 8.02489 15.72C7.85955 15.9262 7.70222 16.1071 7.58666 16.2364C7.47111 16.3653 7.39866 16.4444 7.40355 16.4498Z" fill="#8D93B5"/>
<path d="M16.6345 16.4093C16.2358 15.9173 15.8371 15.4253 15.4385 14.9333Z" fill="white"/>
<path d="M15.4388 14.9333C15.4281 14.9418 15.6872 15.2796 16.0175 15.6867C16.3477 16.0942 16.6241 16.4178 16.6348 16.4089C16.6455 16.4004 16.3864 16.0631 16.0561 15.6551C15.7259 15.248 15.4495 14.9249 15.4388 14.9333Z" fill="#8D93B5"/>
<path d="M16.6343 3.18266C16.6236 3.17422 16.3636 3.48489 16.0538 3.87689C15.7441 4.26889 15.5014 4.59333 15.5121 4.60177C15.5227 4.61022 15.7827 4.29955 16.0925 3.90755C16.4027 3.51555 16.6449 3.19111 16.6343 3.18266Z" fill="#8D93B5"/>
<path d="M15.4754 6.17777C14.9994 5.66444 14.1008 5.43244 13.4563 5.70533C12.8114 5.97822 12.3741 6.67866 12.4114 7.37777C11.7577 7.48622 11.2541 8.07555 11.1021 8.72044C10.9501 9.36533 11.0981 10.0484 11.3577 10.6582C11.4634 10.9067 11.5892 11.1511 11.6385 11.4164C11.6883 11.6822 11.6492 11.9818 11.4617 12.1764C11.2385 12.4084 10.8817 12.4302 10.5839 12.552C10.1479 12.7302 9.83588 13.1342 9.6621 13.572C9.48877 14.0098 9.43588 14.4844 9.38477 14.9529H15.4385L15.4754 6.17777Z" fill="#8D93B5"/>
<path d="M15.1268 13.6569C15.1335 13.6512 13.8028 12.1614 12.1553 10.3303C10.5073 8.49827 9.1664 7.01871 9.16018 7.02449C9.15351 7.03027 10.4842 8.5196 12.1322 10.3516C13.7793 12.1827 15.1202 13.6627 15.1268 13.6569Z" fill="#FBFBFB"/>
<path d="M9.79398 6.66983C9.78776 6.6756 10.6255 7.60938 11.6655 8.75472C12.706 9.90049 13.5544 10.8245 13.5606 10.8187C13.5669 10.8129 12.7291 9.8796 11.6886 8.73383C10.6486 7.58805 9.8002 6.66405 9.79398 6.66983Z" fill="#FBFBFB"/>
<path d="M10.1778 9.49022C10.1769 9.49111 10.188 9.50311 10.2098 9.52534C10.2338 9.54978 10.2653 9.58178 10.3053 9.62222C10.3911 9.70845 10.5111 9.82889 10.6582 9.97689C10.9556 10.2769 11.3622 10.6951 11.8005 11.1676C12.2387 11.6404 12.6249 12.0773 12.9018 12.3964C13.0382 12.5542 13.1493 12.6831 13.2289 12.7751C13.2662 12.8178 13.296 12.852 13.3182 12.8778C13.3391 12.9009 13.3502 12.9129 13.3511 12.912C13.352 12.9111 13.3422 12.8982 13.3231 12.8738C13.3018 12.8471 13.2738 12.812 13.2382 12.7676C13.164 12.6756 13.0551 12.544 12.9187 12.3822C12.6462 12.0591 12.2618 11.6196 11.8236 11.1462C11.3849 10.6733 10.9756 10.2573 10.6738 9.96134C10.5231 9.81334 10.4 9.69467 10.3138 9.61378C10.2725 9.57511 10.2391 9.54445 10.2142 9.52089C10.1911 9.5 10.1787 9.48934 10.1778 9.49022Z" fill="#FBFBFB"/>
</g>
<path d="M45.5188 41.4031C45.5188 41.4164 36.5624 41.4271 25.5162 41.4271C14.4664 41.4271 5.51172 41.4164 5.51172 41.4031C5.51172 41.3898 14.4664 41.3791 25.5162 41.3791C36.5619 41.3787 45.5188 41.3898 45.5188 41.4031Z" fill="#B1B5DB"/>
<g opacity="0.52">
<path d="M10.1852 37.9164C10.1852 37.9164 8.36523 35.8218 7.67812 33.7267C6.99145 31.632 7.31767 31.872 7.31767 31.872C7.31767 31.872 8.24479 33.9071 8.94879 34.8898C9.65279 35.8729 10.9061 37.3151 10.9061 37.3151L10.1852 37.9164Z" fill="#C8CCE7"/>
<path d="M10.5483 32.1987C10.4897 32.0964 10.3332 32.1493 10.351 32.2662C10.4621 33.0022 10.7017 34.7289 10.6923 35.8489C10.6799 37.304 10.6928 37.8662 10.6928 37.8662H11.4506C11.4506 37.8662 11.3159 34.8587 11.1448 33.9418C11.0248 33.2982 10.7701 32.5844 10.5483 32.1987Z" fill="#C8CCE7"/>
<path d="M10.9609 37.6213C10.9609 37.6213 11.4378 36.6187 11.5845 35.3596C11.6467 34.824 11.5356 34.1005 11.3698 33.1342C11.2898 32.6662 11.2716 32.3102 11.2743 32.0636C11.276 31.8769 11.5223 31.816 11.6138 31.9787C11.7054 32.1418 11.9698 32.6991 12.0369 33.0485C12.2205 34.0022 12.428 34.4791 12.2694 35.3836C12.1103 36.2885 11.5236 37.6822 11.5236 37.6822L10.9609 37.6213Z" fill="#C8CCE7"/>
<path d="M11.6436 37.6826C11.6436 37.6826 13.6418 33.388 13.7804 32.7506C13.9191 32.1133 14.3898 30.6453 14.4453 30.7284C14.5009 30.8115 14.584 31.5871 14.2236 32.4738C13.8636 33.3604 12.3258 37.8133 12.3258 37.8133H11.6436" fill="#C8CCE7"/>
<path d="M10.7417 37.4902C10.7408 37.4915 10.7217 37.4782 10.6857 37.4515C10.6502 37.4249 10.5964 37.3867 10.5311 37.3333C10.3982 37.2289 10.2115 37.0698 9.99418 36.8591C9.55774 36.44 9.01507 35.7942 8.5444 34.9982C8.07285 34.2022 7.75552 33.424 7.55463 32.8542C7.45418 32.5689 7.38085 32.3355 7.33329 32.1733C7.30885 32.0924 7.29196 32.0289 7.2804 31.9862C7.26885 31.9431 7.26352 31.9204 7.26485 31.92C7.26618 31.9195 7.27418 31.9413 7.2884 31.9835C7.30352 32.0293 7.32352 32.0911 7.34929 32.1684C7.40174 32.3289 7.47907 32.5609 7.58307 32.844C7.79063 33.4102 8.11107 34.1835 8.58085 34.9764C9.04974 35.7689 9.58574 36.4147 10.0151 36.8378C10.2288 37.0502 10.412 37.2124 10.5413 37.3204C10.6048 37.376 10.6573 37.4155 10.6906 37.4449C10.7253 37.4733 10.7426 37.4889 10.7417 37.4902Z" fill="#8C90B6"/>
<path d="M10.9612 35.4298C10.9581 35.4298 10.9519 35.3849 10.9434 35.3036C10.9341 35.2147 10.9216 35.0987 10.9065 34.9591C10.875 34.6684 10.8256 34.268 10.755 33.8276C10.6839 33.3871 10.6052 32.9911 10.5443 32.7053C10.5145 32.568 10.4901 32.4542 10.4714 32.3671C10.4541 32.2871 10.4461 32.2427 10.4487 32.2418C10.4514 32.2409 10.4652 32.2844 10.4874 32.3631C10.5096 32.4418 10.5394 32.5564 10.5736 32.6987C10.6421 32.9831 10.7261 33.3796 10.7972 33.8204C10.8679 34.2618 10.9127 34.664 10.9367 34.9556C10.9487 35.1013 10.9567 35.2196 10.9603 35.3013C10.9634 35.3844 10.9643 35.4298 10.9612 35.4298Z" fill="#8C90B6"/>
<path d="M11.4288 31.9453C11.4301 31.9449 11.4381 31.9635 11.4523 32C11.4674 32.0404 11.4874 32.0933 11.5123 32.1595C11.539 32.2289 11.5692 32.3142 11.5981 32.4151C11.6279 32.516 11.6666 32.6298 11.6954 32.7591C11.7114 32.8235 11.7279 32.8911 11.7448 32.9609C11.7617 33.0311 11.7737 33.1058 11.7888 33.1818C11.8212 33.3342 11.8417 33.4995 11.8657 33.6733C11.9048 34.0213 11.9261 34.4071 11.9132 34.8115C11.8968 35.216 11.8479 35.5991 11.7843 35.9435C11.7479 36.1151 11.7159 36.2782 11.6723 36.428C11.6514 36.5031 11.6346 36.5764 11.6128 36.6453C11.5906 36.7142 11.5692 36.78 11.5488 36.8431C11.5106 36.9702 11.4643 37.0804 11.4274 37.1791C11.3914 37.2778 11.355 37.3609 11.3234 37.428C11.2941 37.492 11.2701 37.5435 11.2523 37.5827C11.2354 37.6178 11.2261 37.636 11.2248 37.6355C11.2234 37.6351 11.2301 37.6155 11.2443 37.5791C11.2603 37.5391 11.2817 37.4867 11.3079 37.4213C11.3368 37.3533 11.371 37.2698 11.4048 37.1707C11.4394 37.0715 11.4839 36.9609 11.5199 36.8338C11.5394 36.7707 11.5594 36.7044 11.5808 36.636C11.6017 36.5671 11.6181 36.4938 11.6377 36.4191C11.6794 36.2698 11.7101 36.1067 11.7452 35.936C11.8066 35.5929 11.8541 35.212 11.8701 34.8098C11.8826 34.4075 11.8626 34.0244 11.8261 33.6778C11.803 33.5049 11.7843 33.3404 11.7532 33.1884C11.7386 33.1124 11.7279 33.0382 11.7119 32.968C11.6959 32.8978 11.6803 32.8307 11.6652 32.7662C11.6381 32.6369 11.6021 32.5231 11.5746 32.4218C11.5479 32.3204 11.5199 32.2347 11.4959 32.1644C11.4741 32.0973 11.4568 32.0435 11.4434 32.0027C11.4328 31.9653 11.427 31.9458 11.4288 31.9453Z" fill="#8C90B6"/>
<path d="M14.4218 30.8146C14.4227 30.8146 14.4218 30.8213 14.42 30.8337C14.4178 30.8489 14.4147 30.8671 14.4111 30.8897C14.4022 30.9386 14.3911 31.0111 14.3716 31.1035C14.3329 31.2884 14.2689 31.5542 14.1689 31.8769C14.0693 32.1995 13.9329 32.5777 13.7711 32.9933C13.6098 33.4093 13.4227 33.8622 13.2449 34.3444C13.0649 34.8257 12.9258 35.2955 12.7956 35.7222C12.6662 36.1489 12.5436 36.532 12.4253 36.848C12.308 37.1644 12.1951 37.4142 12.1098 37.5822C12.0689 37.6671 12.032 37.7306 12.0084 37.7742C11.9973 37.7937 11.988 37.8102 11.9804 37.8231C11.9738 37.8342 11.9702 37.8395 11.9698 37.8391C11.9693 37.8386 11.9716 37.8324 11.9769 37.8209C11.9836 37.8071 11.9916 37.7902 12.0009 37.7697C12.0222 37.7249 12.0564 37.6604 12.0951 37.5742C12.1756 37.404 12.284 37.1537 12.3973 36.8364C12.512 36.5195 12.6311 36.1369 12.7582 35.7093C12.8867 35.2826 13.0244 34.8111 13.2053 34.3284C13.3831 33.8449 13.5716 33.3924 13.7347 32.9777C13.8982 32.5635 14.0373 32.1871 14.1404 31.8666C14.244 31.5462 14.3124 31.2822 14.356 31.0991C14.3778 31.0075 14.3916 30.9355 14.4031 30.8875C14.4084 30.8653 14.4124 30.8475 14.416 30.8324C14.4191 30.8209 14.4213 30.8146 14.4218 30.8146Z" fill="#8C90B6"/>
<path d="M8.26011 29.8662C8.13434 29.7409 7.92456 29.872 7.977 30.0418C8.02989 30.2138 8.10989 30.4364 8.22811 30.6876C8.50278 31.2716 9.30989 33.3662 9.68767 34.5169C10.0654 35.6676 10.5979 37.8138 10.5979 37.8138L11.4046 37.6831C11.4046 37.6831 10.6663 34.1564 9.94545 32.8858C9.36589 31.864 8.78634 30.3889 8.26011 29.8662Z" fill="#C8CCE7"/>
<path d="M9.90879 35.236C9.91146 35.2351 9.92612 35.2693 9.95057 35.3329C9.97457 35.396 10.007 35.4884 10.0435 35.6035C10.1177 35.8338 10.2088 36.1551 10.3003 36.512C10.3919 36.8693 10.4679 37.1942 10.5208 37.4298C10.5448 37.5413 10.5652 37.6346 10.5817 37.7093C10.595 37.7755 10.6012 37.8124 10.5986 37.8133C10.5959 37.8142 10.5843 37.7782 10.5657 37.7133C10.5461 37.6395 10.5212 37.5471 10.4919 37.4369C10.4301 37.1942 10.3492 36.8751 10.2595 36.5226C10.1679 36.1658 10.0817 35.844 10.015 35.612C9.98301 35.5026 9.95635 35.4106 9.93501 35.3378C9.91501 35.2733 9.90568 35.2369 9.90879 35.236Z" fill="#8C90B6"/>
<path d="M11.0031 37.748C11.0022 37.748 11.0009 37.7409 10.9987 37.7266C10.9965 37.7098 10.9934 37.6889 10.9894 37.6631C10.9809 37.6075 10.9734 37.5244 10.9565 37.4186C10.9267 37.2066 10.8738 36.9013 10.7871 36.5289C10.7009 36.1564 10.5756 35.7178 10.4094 35.24C10.244 34.7622 10.0365 34.2458 9.80136 33.7111C9.32669 32.6435 8.85291 31.6964 8.54136 30.9964C8.38403 30.6471 8.2618 30.3618 8.1818 30.1631C8.14091 30.064 8.11158 29.9862 8.09114 29.9338C8.0818 29.9093 8.07469 29.8893 8.06891 29.8738C8.06403 29.86 8.0618 29.8529 8.06269 29.8529C8.06358 29.8524 8.06669 29.8591 8.07291 29.8724C8.08002 29.888 8.08847 29.9071 8.09914 29.9311C8.12269 29.9858 8.15558 30.0613 8.19736 30.1573C8.28225 30.3538 8.40847 30.6369 8.56936 30.9844C8.88758 31.6809 9.3658 32.6253 9.84136 33.6946C10.0769 34.2298 10.284 34.748 10.4476 35.228C10.612 35.7075 10.7347 36.1484 10.8174 36.5226C10.9005 36.8973 10.9489 37.204 10.9734 37.4169C10.988 37.5231 10.9929 37.6062 10.9987 37.6626C11.0009 37.6889 11.0022 37.7098 11.0036 37.7266C11.004 37.7404 11.004 37.7475 11.0031 37.748Z" fill="#8C90B6"/>
<path d="M11.4044 37.6826C11.4012 37.6831 11.3919 37.6346 11.3772 37.5471C11.3612 37.4524 11.3399 37.3275 11.3146 37.1764C11.259 36.864 11.1741 36.4333 11.0519 35.9649C10.931 35.496 10.795 35.0786 10.6901 34.7791C10.6386 34.6346 10.5964 34.5151 10.5639 34.4249C10.5337 34.3413 10.5181 34.2946 10.5208 34.2933C10.5235 34.292 10.5444 34.3369 10.579 34.4186C10.6137 34.5004 10.6626 34.6195 10.7181 34.7689C10.8301 35.0666 10.9715 35.4835 11.0928 35.9542C11.2155 36.4244 11.2955 36.8573 11.3439 37.1715C11.367 37.3289 11.3844 37.4564 11.3932 37.5449C11.403 37.6329 11.407 37.6822 11.4044 37.6826Z" fill="#8C90B6"/>
<path d="M13.06 37.5667H9.91113V41.4031H13.06V37.5667Z" fill="#EC6E5C"/>
<path d="M13.06 37.5667H9.91113V41.4031H13.06V37.5667Z" fill="#A8AED5"/>
<path d="M12.0555 37.5667H9.26172V41.4031H12.0555V37.5667Z" fill="#8C90B6"/>
</g>
<path d="M25.5511 42.5204L28.956 45.4689L28.9057 46.0284L20.064 46.4036L18.1844 43.0884L18.168 42.5391L25.5511 42.5204Z" fill="#A8AED5"/>
<g opacity="0.3">
<path d="M20.1955 45.8929L28.956 45.4689L28.9057 46.0285L20.064 46.4036L18.1844 43.0885L18.168 42.5391L20.1955 45.8929Z" fill="#040000"/>
</g>
<path d="M25.5514 45.0049L24.9172 44.4369L22.7417 44.5164L22.5186 45.1787C23.7074 45.3764 24.6261 45.3276 25.5514 45.0049Z" fill="white"/>
<path d="M25.5512 45.0049C25.5526 45.0054 25.5343 45.012 25.497 45.0262C25.4605 45.0396 25.4005 45.0645 25.3277 45.0858C25.1819 45.1338 24.9668 45.1929 24.6939 45.2414C24.421 45.2889 24.0899 45.3205 23.7197 45.316C23.3494 45.3125 22.941 45.272 22.5143 45.2018L22.4863 45.1974L22.4952 45.1707C22.5286 45.072 22.5637 44.9667 22.5997 44.8605C22.6397 44.7414 22.6797 44.624 22.7183 44.5085L22.7237 44.4925L22.7401 44.492C23.6063 44.4636 24.3739 44.4382 24.9161 44.4205H24.9228L24.9272 44.4249C25.1223 44.6054 25.2792 44.7502 25.3917 44.8538C25.4414 44.9005 25.4814 44.9378 25.5121 44.9667C25.5397 44.9925 25.553 45.0054 25.5512 45.0049C25.5499 45.0045 25.5334 44.9911 25.5037 44.9658C25.4708 44.9378 25.4281 44.9009 25.3748 44.8551C25.2614 44.7569 25.1032 44.6196 24.9063 44.4489L24.9174 44.4529C24.3757 44.4747 23.6081 44.5058 22.7423 44.5405L22.7641 44.524C22.725 44.6396 22.6854 44.7569 22.6454 44.876C22.6094 44.9822 22.5743 45.0871 22.541 45.1858L22.5223 45.1542C22.9472 45.2249 23.3526 45.2662 23.7206 45.2725C24.0881 45.2791 24.417 45.2516 24.689 45.2085C24.9606 45.1645 25.1766 45.1107 25.3232 45.068C25.3983 45.048 25.4494 45.0311 25.4894 45.0209C25.5281 45.0111 25.5499 45.0045 25.5512 45.0049Z" fill="#6A7194"/>
<path d="M24.0504 45.1956C24.037 45.1973 24.0082 45.0573 23.9859 44.8831C23.9637 44.7089 23.9562 44.5662 23.9695 44.5649C23.9828 44.5631 24.0117 44.7031 24.0339 44.8773C24.0566 45.0511 24.0637 45.1938 24.0504 45.1956Z" fill="#6A7194"/>
<path d="M24.4096 44.8965C24.3981 44.9031 24.3474 44.8347 24.2963 44.744C24.2452 44.6533 24.2132 44.5747 24.2252 44.568C24.2367 44.5613 24.2874 44.6298 24.3385 44.7205C24.3892 44.8111 24.4212 44.8898 24.4096 44.8965Z" fill="#6A7194"/>
<path d="M24.7255 44.7485C24.7166 44.7587 24.6761 44.7378 24.6344 44.7018C24.593 44.6658 24.5664 44.6285 24.5748 44.6187C24.5837 44.6085 24.6241 44.6293 24.6659 44.6653C24.7077 44.7009 24.7344 44.7382 24.7255 44.7485Z" fill="#6A7194"/>
<path d="M23.5717 44.9596C23.5588 44.9592 23.5504 44.8792 23.5664 44.7823C23.5819 44.6854 23.6148 44.612 23.6273 44.6156C23.6401 44.6196 23.629 44.6965 23.6139 44.7898C23.5988 44.8836 23.5855 44.96 23.5717 44.9596Z" fill="#6A7194"/>
<path d="M23.1744 44.8512C23.1628 44.8449 23.181 44.7889 23.2153 44.7267C23.2495 44.6645 23.2868 44.6192 23.2984 44.6258C23.3099 44.6321 23.2917 44.6881 23.2575 44.7503C23.2233 44.8125 23.1859 44.8574 23.1744 44.8512Z" fill="#6A7194"/>
<path d="M22.6434 41.4031L22.4016 42.6804L22.258 43.2124C22.2425 43.4533 22.3789 43.6737 22.6203 43.6826L25.498 43.6875C25.6789 43.6871 25.7647 43.4617 25.6278 43.3435C25.5607 43.2853 25.4629 43.2302 25.3211 43.188C24.7878 43.0284 23.898 42.7937 23.898 42.7937L24.1323 41.4906L22.6434 41.4031Z" fill="#FAD2C3"/>
<path d="M26.2376 20.7182C26.2376 20.7182 27.1465 21.7635 27.2354 25.1458C27.2892 27.1866 25.99 33.1413 25.7607 34.4791C25.6047 35.3898 24.0092 42.7084 24.0092 42.7084H22.3594C22.3594 42.7084 23.4149 33.4791 23.3767 32.5173C23.338 31.556 22.9923 26.4409 22.9923 26.4409L22.4923 22.5564L26.2376 20.7182Z" fill="#737797"/>
<path d="M20.8816 42.0409L20.8362 42.7653L20.7358 43.1498C20.6691 43.4049 20.7078 43.552 20.8505 43.8018C20.8505 43.8018 21.5353 45.024 21.7216 45.1595C21.9673 45.3382 22.9073 45.536 22.8878 45.2333C22.8682 44.9307 22.074 42.8289 22.074 42.8289L22.2802 42.0382L20.8816 42.0409Z" fill="#FAD2C3"/>
<path d="M18.7229 21.6337C18.8385 21.6724 22.8496 22.3644 22.8496 22.3644C22.8496 22.3644 24.2162 32.8955 24.3314 34.2799C24.4469 35.6644 22.2562 42.7088 22.2562 42.7088L20.7571 42.7097C20.7571 42.7097 20.5687 38.056 20.8762 36.6333C21.1838 35.2102 21.1838 34.8639 20.9918 33.9795C20.7994 33.0951 18.8242 28.8622 18.3242 26.5159C17.8242 24.1697 18.7229 21.6337 18.7229 21.6337Z" fill="#737797"/>
<path d="M23.1944 25.1462C23.1944 25.1462 23.1949 25.1617 23.1976 25.1924C23.2011 25.2248 23.206 25.2697 23.2122 25.3271C23.2264 25.448 23.2473 25.6222 23.2735 25.8448C23.3295 26.2968 23.4096 26.9466 23.5087 27.7484C23.7113 29.3568 23.9904 31.5751 24.2989 34.0253C24.3167 34.3302 24.2793 34.6351 24.2402 34.932C24.1989 35.2293 24.1478 35.5208 24.0909 35.8066C23.9784 36.3777 23.8518 36.9253 23.7238 37.4448C23.4678 38.4844 23.2104 39.4137 22.99 40.1928C22.7691 40.972 22.5824 41.6 22.4535 42.0342C22.3895 42.2493 22.3393 42.4173 22.3047 42.5337C22.2887 42.5893 22.2758 42.6324 22.2664 42.664C22.258 42.6933 22.2549 42.7088 22.2549 42.7088C22.2549 42.7088 22.2611 42.6946 22.2713 42.6657C22.2815 42.6346 22.2958 42.592 22.3144 42.5368C22.3513 42.4208 22.4047 42.2537 22.4727 42.04C22.6078 41.6075 22.7993 40.9808 23.0247 40.2031C23.2495 39.4248 23.5104 38.4964 23.7696 37.4568C23.8984 36.9368 24.0269 36.3893 24.1398 35.8168C24.1971 35.5311 24.2487 35.2382 24.2904 34.9395C24.33 34.6408 24.3678 34.3355 24.35 34.0226C24.0464 31.5675 23.7527 29.3515 23.5447 27.7444C23.4389 26.9435 23.3527 26.2942 23.2931 25.8426C23.2624 25.62 23.2389 25.4466 23.222 25.3257C23.2135 25.2684 23.2069 25.224 23.2024 25.1915C23.198 25.1613 23.1944 25.1462 23.1944 25.1462Z" fill="#5F6481"/>
<path d="M22.8645 24.5978C22.8592 24.604 22.7832 24.5391 22.6485 24.4524C22.5143 24.3658 22.3174 24.2622 22.0841 24.1907C21.8508 24.12 21.6294 24.096 21.4694 24.0933C21.3094 24.0902 21.2099 24.1018 21.209 24.0933C21.2085 24.0902 21.233 24.0844 21.2779 24.0764C21.3228 24.068 21.3881 24.0618 21.4694 24.0587C21.6317 24.0524 21.8592 24.0715 22.0983 24.144C22.337 24.2169 22.5361 24.328 22.6677 24.4235C22.7334 24.4711 22.7845 24.5129 22.817 24.5449C22.8499 24.5769 22.8668 24.5951 22.8645 24.5978Z" fill="#5F6481"/>
<path d="M24.9407 23.2684C24.9438 23.2698 24.9349 23.2969 24.9162 23.3444C24.898 23.3924 24.8673 23.46 24.8256 23.5413C24.7429 23.7049 24.6091 23.9218 24.4291 24.1373C24.2487 24.3524 24.0584 24.5222 23.9122 24.6329C23.8393 24.6884 23.778 24.7307 23.7344 24.7569C23.6909 24.7836 23.666 24.7973 23.6642 24.7947C23.6598 24.788 23.7518 24.7227 23.8913 24.6062C24.0309 24.4898 24.2144 24.3187 24.3922 24.1067C24.5696 23.8942 24.7056 23.6831 24.7953 23.5253C24.8856 23.3676 24.9335 23.2653 24.9407 23.2684Z" fill="#5F6481"/>
<path d="M18.5557 15.0724L19.2494 20.4035L19.3957 21.864C19.3957 21.864 23.2032 22.7489 25.4068 21.628C25.6503 21.504 25.8134 21.3689 25.9112 21.2538C26.177 20.9413 26.3508 20.8102 26.1023 20.4831L25.4188 19.4018C25.4188 19.4018 26.2019 17.6773 25.873 16.2898C25.5441 14.9022 24.9943 12.6435 24.9943 12.6435L23.1748 12.3569L20.8161 12.3235L18.9014 12.5622L18.5557 15.0724Z" fill="#FAD2C3"/>
<path d="M25.9359 16.5529L25.9185 16.3649L24.951 14.7569L24.4799 12.564L24.1985 12.5178L24.6599 14.7302L22.787 16.7555L20.4243 14.7933L20.1679 12.4044L19.879 12.4262L20.1763 14.8431L19.0967 16.1533L18.6865 16.5538V16.7964L19.0234 18.8186L25.6505 18.9693L25.8007 18.36C25.947 17.7689 25.9923 17.1582 25.9359 16.5529Z" fill="#B1B5DB"/>
<path d="M24.415 19.4751C24.4167 19.4809 24.3181 19.5196 24.1523 19.5649C23.987 19.6102 23.7536 19.6578 23.4927 19.6818C23.2314 19.7053 22.9936 19.7009 22.8225 19.6867C22.6514 19.6725 22.5474 19.652 22.5479 19.6462C22.5487 19.6387 22.6541 19.6471 22.8243 19.6525C22.9945 19.6578 23.2296 19.6569 23.4883 19.6333C23.7465 19.6093 23.9781 19.5676 24.1443 19.5311C24.311 19.4956 24.4127 19.468 24.415 19.4751Z" fill="#C8A399"/>
<g opacity="0.3">
<path d="M25.7161 18.9689L25.4952 17.3418L24.3366 15.0795L24.0134 15.4293L24.9481 18.2013C24.7623 18.1849 24.1472 18.1129 23.6992 17.864C23.6992 17.864 24.081 18.496 25.0637 18.544L25.2037 18.9591L25.7161 18.9689Z" fill="#040000"/>
</g>
<path d="M25.2407 18.0667C25.239 18.0671 25.2305 18.048 25.2158 18.0102C25.1998 17.968 25.179 17.9133 25.1527 17.8453C25.0981 17.696 25.0221 17.4893 24.9296 17.236C24.7438 16.7151 24.4901 16.0049 24.2101 15.22C23.9474 14.4693 23.7087 13.7862 23.5305 13.2769L23.5318 13.2795C23.3918 13.0147 23.2803 12.7969 23.2461 12.6289C23.2296 12.5458 23.2305 12.4782 23.2412 12.4342C23.2465 12.4124 23.255 12.396 23.2652 12.3884C23.2763 12.3813 23.2834 12.3858 23.283 12.3858C23.283 12.3875 23.2763 12.3858 23.2687 12.3924C23.2612 12.3995 23.255 12.4151 23.2514 12.4364C23.2443 12.4787 23.247 12.544 23.2656 12.6249C23.3038 12.7858 23.4198 13.0013 23.563 13.2627L23.5638 13.264L23.5643 13.2653C23.7456 13.7738 23.9887 14.4547 24.2558 15.204C24.531 15.9907 24.7794 16.7027 24.9621 17.2249C25.0487 17.48 25.1198 17.6884 25.171 17.8391C25.1932 17.908 25.2114 17.964 25.2256 18.0071C25.2367 18.0453 25.2425 18.0658 25.2407 18.0667Z" fill="#C8A399"/>
<path d="M22.4097 17.3418C22.4119 17.3435 22.3893 17.3822 22.3413 17.4471C22.2933 17.5124 22.2164 17.6018 22.1088 17.6995C21.8968 17.8951 21.5413 18.116 21.0995 18.1911C20.6577 18.2658 20.2488 18.1738 19.9848 18.0587C19.851 18.0013 19.7493 17.9422 19.6826 17.8969C19.6155 17.8515 19.5817 17.8222 19.583 17.82C19.5884 17.8111 19.731 17.9227 19.9977 18.0271C20.2613 18.1324 20.6608 18.2164 21.0915 18.1435C21.5222 18.0707 21.8719 17.86 22.0862 17.6742C22.3035 17.4871 22.4017 17.3351 22.4097 17.3418Z" fill="#969CC2"/>
<path d="M25.241 18.1938C25.2414 18.1969 25.2108 18.2018 25.1552 18.2075C25.0997 18.2142 25.0188 18.2173 24.9188 18.216C24.7192 18.2133 24.4419 18.1791 24.1508 18.084C23.8601 17.988 23.6166 17.8506 23.4543 17.7342C23.373 17.676 23.3099 17.6253 23.269 17.5871C23.2277 17.5493 23.2063 17.5275 23.2081 17.5249C23.2134 17.5182 23.3077 17.5982 23.473 17.7058C23.6383 17.8138 23.8797 17.9435 24.1654 18.0378C24.4517 18.1315 24.7228 18.1702 24.9197 18.1818C25.1174 18.1938 25.2406 18.1853 25.241 18.1938Z" fill="#969CC2"/>
<g opacity="0.3">
<path d="M19.7588 15.4009C19.7468 15.4187 18.9525 17.2098 18.9525 17.2098C18.9525 17.2098 19.617 18.3587 20.9539 18.1871C20.9681 18.1853 20.9823 18.1835 20.9965 18.1813C20.9965 18.1813 20.0694 18.6253 19.1601 18.1084L18.9792 18.5471L18.709 16.9258L19.7588 15.4009Z" fill="#040000"/>
</g>
<path d="M22.7624 16.7831C22.7539 16.7805 22.7877 16.6845 22.8081 16.524C22.8192 16.444 22.8228 16.3476 22.8184 16.2414C22.8117 16.1351 22.7952 16.0191 22.7637 15.9C22.7308 15.7818 22.6859 15.6734 22.6379 15.5782C22.5877 15.4845 22.5357 15.4031 22.4855 15.34C22.3864 15.2125 22.3086 15.1467 22.3148 15.14C22.317 15.1374 22.3375 15.152 22.3735 15.1809C22.4099 15.2089 22.4579 15.256 22.5121 15.3182C22.5668 15.3805 22.6232 15.4618 22.677 15.5569C22.7286 15.6534 22.7761 15.7649 22.8104 15.8871C22.8428 16.0094 22.8584 16.1298 22.8628 16.2391C22.865 16.3485 22.8575 16.4476 22.8419 16.5285C22.8268 16.6098 22.8095 16.6742 22.7921 16.7174C22.7757 16.7609 22.7655 16.784 22.7624 16.7831Z" fill="#C8A399"/>
<path d="M24.1327 20.9862C23.9563 21.0693 23.7469 21.0804 23.5625 21.0164Z" fill="#F7BA9B"/>
<path d="M23.5627 21.0165C23.5672 21.0027 23.6925 21.0418 23.8494 21.0325C24.0067 21.0253 24.1267 20.9733 24.1329 20.9862C24.1401 20.9965 24.0209 21.0725 23.8521 21.0805C23.6832 21.0902 23.5565 21.0271 23.5627 21.0165Z" fill="#C8A399"/>
<path d="M23.6566 22.1667C23.6566 22.1667 22.7095 21.8529 22.1752 21.7098C21.521 21.5342 21.5326 21.26 21.5992 21.0093C21.6663 20.7587 22.0766 20.8213 22.4215 20.652C22.637 20.5462 22.6797 20.4062 22.6819 20.3191C22.6832 20.2804 22.6441 20.252 22.6072 20.2653C22.2672 20.3858 21.8006 20.1551 21.4717 20.2124C21.1215 20.2733 20.2779 20.6338 20.2779 20.6338L19.0863 19.9151L18.4766 21.088L19.3099 21.7498C19.6188 22.0178 20.6655 22.8782 20.7748 22.9235C20.9015 22.976 21.3908 22.9187 21.5908 22.892C21.6335 22.9071 21.6739 22.9213 21.7108 22.9338C22.6295 23.24 22.5726 22.7858 22.5726 22.7858C23.3499 22.8333 23.1997 22.4689 23.1997 22.4689C23.9855 22.4658 23.6566 22.1667 23.6566 22.1667Z" fill="#FAD2C3"/>
<path d="M25.6926 21.2511C25.6948 21.2538 25.6686 21.2764 25.6193 21.3156C25.5704 21.3551 25.4961 21.4076 25.401 21.4671C25.2117 21.5876 24.933 21.7302 24.6059 21.8356C24.2788 21.9413 23.9695 21.9889 23.7459 22.0044C23.6339 22.012 23.5433 22.0147 23.4801 22.012C23.4175 22.0102 23.3828 22.008 23.3828 22.0044C23.3828 21.996 23.521 21.9942 23.7424 21.9702C23.9637 21.9462 24.2677 21.8938 24.5908 21.7893C24.9139 21.6849 25.1908 21.5493 25.3833 21.4373C25.5757 21.3262 25.6873 21.2444 25.6926 21.2511Z" fill="#C8A399"/>
<path d="M18.3606 12.8435C18.3606 12.8435 17.7033 13.5227 16.9038 14.8773C15.9353 16.5182 14.4362 18.672 14.9109 19.7307C15.3855 20.7898 19.2855 21.7911 19.3953 21.864C19.5046 21.9369 19.87 20.4035 19.87 20.4035L17.4304 18.7813L19.938 15.14C19.938 15.14 20.2175 13.0609 19.5775 12.6991C18.914 12.3235 18.3606 12.8435 18.3606 12.8435Z" fill="#FAD2C3"/>
<path d="M19.0862 19.9151C19.0866 19.9146 19.0938 19.9182 19.1075 19.9257C19.1231 19.9346 19.1431 19.9457 19.1684 19.96C19.224 19.9924 19.3022 20.0382 19.4031 20.0973C19.6098 20.22 19.908 20.3973 20.2849 20.6213L20.272 20.6204C20.5715 20.4955 20.9182 20.3475 21.3231 20.228C21.4235 20.1986 21.5351 20.1773 21.6471 20.1857C21.7591 20.1915 21.8706 20.2124 21.984 20.2329C22.0973 20.2529 22.2124 20.2733 22.3306 20.2786C22.3893 20.2795 22.4489 20.2795 22.5071 20.268C22.5369 20.2644 22.5644 20.2546 22.5933 20.2466C22.6266 20.2297 22.6831 20.2462 22.6978 20.2884C22.7173 20.4382 22.6191 20.5537 22.5102 20.6262C22.3978 20.6982 22.2698 20.7391 22.14 20.7706C22.0111 20.8035 21.8751 20.82 21.7555 20.872C21.6964 20.8986 21.6471 20.9409 21.6271 21C21.6071 21.0613 21.5938 21.1306 21.5924 21.1964C21.5866 21.3311 21.6684 21.4524 21.7866 21.524C21.9018 21.6004 22.0386 21.6471 22.1769 21.6853C22.4582 21.7617 22.7413 21.8489 23.028 21.9386C23.2422 22.0075 23.4546 22.076 23.6635 22.1435L23.6689 22.1453L23.6724 22.1489C23.6978 22.1737 23.7178 22.2004 23.7329 22.2324C23.7484 22.2635 23.7551 22.3062 23.7382 22.3422C23.7329 22.3617 23.7173 22.3733 23.7062 22.3884C23.6924 22.3991 23.6778 22.4097 23.6635 22.4186C23.6333 22.4329 23.6026 22.4466 23.5715 22.4533C23.4471 22.4862 23.3222 22.4889 23.1995 22.492L23.2213 22.4591C23.2493 22.5351 23.232 22.6231 23.1778 22.68C23.1249 22.7377 23.0529 22.764 22.9849 22.7826C22.8458 22.816 22.7062 22.8142 22.5711 22.808L22.5951 22.7822C22.6053 22.896 22.5244 23.0009 22.424 23.0311C22.3258 23.0666 22.2244 23.0626 22.128 23.0551C21.9351 23.0311 21.7551 22.9733 21.5835 22.9115L21.5933 22.9124C21.4658 22.9289 21.34 22.9426 21.216 22.9524C21.092 22.9609 20.9706 22.9697 20.8493 22.9582C20.8195 22.9551 20.7871 22.9502 20.7578 22.9355C20.7284 22.9204 20.7062 22.9035 20.6809 22.8875C20.6329 22.8542 20.5862 22.8209 20.5404 22.7871C20.4498 22.7191 20.3618 22.6524 20.2755 22.5875C19.9346 22.3249 19.6346 22.0866 19.3858 21.8729L19.3906 21.8755C19.0084 21.7515 18.7058 21.6529 18.4955 21.5844C18.3938 21.5506 18.3146 21.524 18.2586 21.5053C18.2333 21.4964 18.2138 21.4897 18.1978 21.484C18.184 21.4791 18.1773 21.476 18.1778 21.4755C18.1778 21.4751 18.1853 21.4764 18.1991 21.4804C18.2151 21.4849 18.2351 21.4906 18.2609 21.4982C18.3178 21.5155 18.3973 21.5395 18.5 21.5706C18.7111 21.636 19.0155 21.7306 19.3991 21.8497L19.4018 21.8506L19.404 21.8524C19.6538 22.0626 19.956 22.2991 20.2978 22.5591C20.384 22.6231 20.4724 22.6889 20.5631 22.7564C20.6089 22.7893 20.6551 22.8226 20.7026 22.8551C20.7262 22.8702 20.7511 22.888 20.7742 22.8995C20.7973 22.9111 20.8249 22.9151 20.8533 22.9182C21.0853 22.9337 21.3338 22.9004 21.5871 22.8693L21.5924 22.8689L21.5973 22.8706C21.7675 22.9315 21.9453 22.9875 22.132 23.0102C22.2244 23.0173 22.3213 23.02 22.4071 22.9884C22.4946 22.9617 22.5555 22.876 22.5489 22.7875L22.5466 22.7604L22.5729 22.7617C22.7058 22.7675 22.8422 22.7684 22.9724 22.7369C23.036 22.7195 23.1 22.6946 23.1422 22.648C23.1853 22.6035 23.1973 22.5337 23.1769 22.4764L23.1658 22.4444L23.1991 22.4435C23.3191 22.4404 23.4426 22.4369 23.5582 22.4062C23.6138 22.3915 23.6764 22.3671 23.6938 22.3222C23.7151 22.2795 23.6782 22.2209 23.64 22.1826L23.6484 22.1875C23.4395 22.1204 23.2275 22.052 23.0133 21.9831C22.7271 21.8933 22.444 21.8057 22.1644 21.7297C22.0235 21.6906 21.8831 21.6435 21.7604 21.5617C21.6986 21.5222 21.6422 21.4715 21.6026 21.4071C21.5626 21.3435 21.5435 21.2671 21.5458 21.1942C21.548 21.1204 21.5613 21.052 21.5835 20.9826C21.608 20.9093 21.672 20.8564 21.7364 20.8284C21.8675 20.7724 22.0022 20.7573 22.1298 20.7249C22.2569 20.6946 22.3813 20.6546 22.4862 20.5875C22.5378 20.5533 22.5835 20.5115 22.6151 20.4613C22.6311 20.4364 22.6431 20.4093 22.6506 20.3813C22.6542 20.3671 22.6573 20.3529 22.6586 20.3386C22.6595 20.3315 22.66 20.3244 22.6604 20.3169C22.6604 20.3115 22.66 20.3071 22.6582 20.3026C22.6498 20.2844 22.6306 20.2746 22.6071 20.2849C22.5764 20.2933 22.5458 20.3035 22.5146 20.3075C22.4524 20.3195 22.3902 20.3191 22.3293 20.3177C22.2075 20.3115 22.0906 20.2902 21.9773 20.2697C21.864 20.2493 21.7538 20.228 21.6453 20.2217C21.5369 20.2129 21.4338 20.232 21.3329 20.2609C20.9315 20.3764 20.5831 20.5222 20.2835 20.644L20.2769 20.6466L20.2706 20.6431C19.8969 20.4142 19.6004 20.2333 19.3955 20.1075C19.2964 20.0457 19.2191 19.9977 19.1644 19.964C19.14 19.9484 19.1204 19.936 19.1058 19.9262C19.0924 19.92 19.0858 19.9155 19.0862 19.9151Z" fill="#C8A399"/>
<path d="M21.5885 21.2537C21.5503 21.1515 21.5694 21.0342 21.6205 20.9382C21.6716 20.8417 21.7516 20.764 21.8374 20.6969C22.2943 20.3377 22.9036 20.2506 23.4832 20.2075C23.8152 20.1826 24.1548 20.1693 24.4841 20.2075" fill="#FAD2C3"/>
<path d="M24.4841 20.2071C24.4836 20.2106 24.4361 20.2075 24.3503 20.204C24.2645 20.2004 24.1405 20.1969 23.9872 20.2009C23.8339 20.2044 23.6516 20.2151 23.4494 20.2324C23.2472 20.2497 23.0254 20.2724 22.7965 20.3177C22.5681 20.3626 22.3543 20.428 22.1734 20.5155C21.9925 20.6022 21.8401 20.7062 21.7339 20.8129C21.6263 20.9195 21.5827 21.04 21.5783 21.1235C21.5725 21.208 21.5934 21.2533 21.5885 21.2542C21.5872 21.2546 21.5805 21.2444 21.5739 21.2222C21.5667 21.2004 21.5587 21.1666 21.5596 21.1226C21.5579 21.0351 21.5996 20.904 21.709 20.7893C21.817 20.6751 21.9694 20.5666 22.1539 20.4755C22.3379 20.3835 22.5556 20.316 22.7872 20.2702C23.0192 20.2244 23.2428 20.2026 23.4459 20.188C23.649 20.1733 23.8325 20.1657 23.9868 20.1666C24.141 20.1675 24.2659 20.176 24.3516 20.1853C24.4379 20.1946 24.4845 20.204 24.4841 20.2071Z" fill="#C8A399"/>
<path d="M24.906 10.8978C24.9122 10.6111 25.0375 10.3422 25.146 10.0764C25.2544 9.81066 25.3491 9.52222 25.2913 9.24133C25.2184 8.88799 24.9224 8.62577 24.7766 8.29555C24.63 7.96399 24.6437 7.58755 24.6384 7.22488C24.6331 6.86266 24.598 6.47688 24.3775 6.18888C24.0988 5.82488 23.3113 5.70933 22.9202 5.94888C22.7237 7.99422 22.098 10.036 22.4006 12.068C23.3971 12.1782 24.4237 12.0053 25.3291 11.5747C25.0522 11.4991 24.8997 11.1844 24.906 10.8978Z" fill="#503E33"/>
<path d="M20.7158 11.8306L20.5029 6.90353C20.5074 6.67553 20.6856 6.48842 20.9136 6.47331L23.2678 5.97553C24.0176 5.92575 24.4776 6.86442 24.4954 7.61553C24.5154 8.44975 24.5065 9.46931 24.3834 10.0866C24.1363 11.3275 23.1727 11.4489 23.1727 11.4489L23.238 12.3791C23.2585 12.6689 23.1727 12.956 22.9967 13.1871C22.6589 13.6311 22.0585 13.7826 21.5505 13.552L21.4834 13.5218C21.0945 13.3453 20.8292 12.9746 20.7869 12.5498L20.7158 11.8306Z" fill="#FAD2C3"/>
<path d="M24.2708 8.69023C24.2703 8.84534 24.1383 8.9729 23.9766 8.97512C23.8148 8.97734 23.6841 8.85379 23.6846 8.69868C23.685 8.54356 23.817 8.41601 23.9788 8.41379C24.1401 8.41156 24.2712 8.53512 24.2708 8.69023Z" fill="#503E33"/>
<path d="M24.2351 8.072C24.2147 8.092 24.0965 7.99778 23.9245 7.99111C23.7525 7.98222 23.6222 8.06622 23.6045 8.04444C23.5956 8.03467 23.6173 7.99778 23.6738 7.96C23.7293 7.92222 23.8236 7.88711 23.9307 7.89156C24.0378 7.89644 24.1267 7.93956 24.1769 7.98178C24.2289 8.02489 24.2453 8.06311 24.2351 8.072Z" fill="#503E33"/>
<path d="M22.6169 8.67731C22.6165 8.83242 22.4845 8.95998 22.3223 8.9622C22.1605 8.96442 22.0294 8.84086 22.0303 8.68575C22.0307 8.53064 22.1627 8.40309 22.3245 8.40042C22.4867 8.3982 22.6174 8.5222 22.6169 8.67731Z" fill="#503E33"/>
<path d="M22.6379 8.12353C22.617 8.14353 22.4992 8.04931 22.3268 8.04264C22.1548 8.03375 22.0246 8.11775 22.0068 8.09553C21.9979 8.08575 22.0197 8.04886 22.0766 8.01109C22.1321 7.97331 22.2264 7.9382 22.3335 7.94264C22.4406 7.94753 22.5295 7.99064 22.5797 8.03286C22.6317 8.07598 22.6481 8.11464 22.6379 8.12353Z" fill="#503E33"/>
<path d="M23.1342 9.40798C23.1338 9.3982 23.2418 9.38398 23.416 9.36842C23.46 9.36576 23.5022 9.35865 23.5106 9.32887C23.5222 9.29731 23.5058 9.24931 23.4862 9.19731C23.4489 9.08931 23.4102 8.97598 23.3693 8.85731C23.2071 8.37331 23.092 7.97553 23.1115 7.96931C23.1311 7.96309 23.2782 8.3502 23.4404 8.83465C23.4791 8.95376 23.5164 9.06798 23.552 9.17642C23.5666 9.22709 23.5933 9.28487 23.568 9.3502C23.5546 9.38265 23.5218 9.40531 23.4933 9.41153C23.4649 9.41909 23.44 9.41865 23.4182 9.41909C23.2431 9.42131 23.1346 9.41776 23.1342 9.40798Z" fill="#503E33"/>
<path d="M23.1737 11.452C23.1737 11.452 22.3314 11.4733 21.5186 10.9404C21.5186 10.9404 21.9426 11.8804 23.1968 11.8129L23.1737 11.452Z" fill="#C8A399"/>
<path d="M22.6638 7.39907C22.6452 7.44529 22.4736 7.4164 22.2705 7.43285C22.0669 7.44529 21.9016 7.49818 21.8763 7.45507C21.8652 7.43462 21.8954 7.39151 21.9629 7.34885C22.0301 7.30618 22.1358 7.26707 22.2581 7.25862C22.3798 7.25018 22.4905 7.27373 22.5629 7.30662C22.6358 7.33862 22.6718 7.37685 22.6638 7.39907Z" fill="#E0E0E0"/>
<path d="M23.6763 7.28801C23.7203 7.26089 23.8341 7.33956 23.9847 7.38978C24.1341 7.44445 24.2727 7.45378 24.2896 7.50223C24.2967 7.52534 24.2643 7.55645 24.1972 7.57378C24.131 7.59156 24.0292 7.59067 23.9261 7.55467C23.823 7.51867 23.7434 7.45601 23.703 7.4009C23.6616 7.34578 23.6563 7.30178 23.6763 7.28801Z" fill="#503E33"/>
<path d="M23.5468 5.96532C23.37 5.40621 22.91 5.32754 22.4175 5.23732C21.9251 5.14754 21.1735 5.31554 20.7442 5.57287C20.4091 5.77376 20.03 6.03109 19.7793 6.33021C19.5384 6.61687 19.4166 6.95554 19.2571 7.29421C19.0082 7.82176 18.9806 8.42132 18.9117 9.00043C18.8246 9.72798 18.6655 10.4467 18.4366 11.1422C18.3548 11.3915 18.2677 11.6911 18.5962 11.8595C18.6566 11.8907 18.7228 11.9102 18.7895 11.9235C19.3104 12.0267 19.806 12.2418 20.3868 12.3209L20.7473 12.3444C21.2037 12.3755 21.4584 12.0791 21.4695 11.6818C21.5037 10.4822 21.0873 8.48043 21.0526 8.09909C21.0517 8.09998 21.0415 5.43998 23.5468 5.96532Z" fill="#503E33"/>
<path d="M23.3809 5.96574C23.2111 6.06885 23.1235 6.26796 23.0835 6.46263C23.0435 6.6573 23.0413 6.85863 22.9915 7.05107C22.892 7.43552 22.5924 7.76263 22.2177 7.89507C22.0986 7.9373 21.9377 7.94663 21.8733 7.83819C21.8689 8.11419 21.6746 8.37641 21.4124 8.46219C21.2226 8.52396 21.0164 8.49819 20.8195 8.52841C20.6222 8.55863 20.4093 8.67863 20.3857 8.87641L20.3977 7.48708L20.8697 6.28974L22.1142 5.65863L23.3809 5.96574Z" fill="#503E33"/>
<path d="M21.1065 8.10355C21.1047 8.10089 21.1554 8.08089 21.2269 8.01866C21.2976 7.956 21.3812 7.84266 21.4389 7.68266C21.4985 7.52355 21.5314 7.32222 21.5625 7.09866C21.5945 6.87555 21.6212 6.62711 21.6963 6.37555C21.7718 6.12533 21.8967 5.89822 22.0665 5.744C22.1509 5.66755 22.2443 5.60755 22.3407 5.57422C22.4363 5.53955 22.5314 5.52533 22.6176 5.52533C22.7914 5.52577 22.9256 5.58666 23.0012 5.64444C23.0212 5.65777 23.0367 5.67289 23.05 5.68533C23.0643 5.69733 23.0745 5.70933 23.082 5.71911C23.098 5.73866 23.1065 5.74889 23.1056 5.74933C23.1029 5.752 23.0727 5.70666 22.9954 5.65155C22.9189 5.59689 22.7869 5.54044 22.6172 5.54177C22.4492 5.54222 22.2438 5.60355 22.0812 5.76C21.9158 5.91155 21.7936 6.13466 21.7189 6.38222C21.6447 6.63066 21.6172 6.87866 21.5838 7.10177C21.5514 7.32488 21.5172 7.52755 21.4545 7.68844C21.3936 7.84977 21.3065 7.964 21.2327 8.02533C21.158 8.08711 21.1065 8.10355 21.1065 8.10355Z" fill="#3A2821"/>
<path d="M20.0781 7.86667C20.0777 7.86223 20.1479 7.87201 20.2639 7.83379C20.3795 7.79512 20.531 7.69379 20.6683 7.52401C20.7368 7.43912 20.8057 7.34045 20.8648 7.22667C20.9243 7.11334 20.9626 6.98045 20.9892 6.83912C21.0163 6.69734 21.0323 6.54579 21.0599 6.38979C21.0741 6.31201 21.0901 6.2329 21.1141 6.15423C21.1381 6.07556 21.1697 5.99779 21.2092 5.92312C21.371 5.62445 21.6443 5.41556 21.9212 5.32401C22.2003 5.22934 22.4768 5.25556 22.6848 5.32401C22.8959 5.39201 23.0439 5.49912 23.135 5.5809C23.2261 5.66356 23.2652 5.72045 23.2652 5.72045C23.2648 5.7209 23.2617 5.71779 23.2559 5.71201C23.2492 5.7049 23.2408 5.69601 23.2306 5.68534C23.2199 5.67334 23.2061 5.65867 23.1888 5.64267C23.1715 5.62667 23.1528 5.60712 23.1288 5.58801C23.0363 5.50934 22.8883 5.40534 22.6795 5.34001C22.4732 5.27423 22.2017 5.25067 21.9279 5.34445C21.6564 5.43512 21.3883 5.64134 21.2297 5.93379C21.191 6.00712 21.1599 6.08312 21.1363 6.16045C21.1128 6.23779 21.0968 6.31601 21.0826 6.39334C21.055 6.54801 21.0386 6.69956 21.0106 6.84267C20.9826 6.98534 20.9439 7.12045 20.8821 7.23556C20.8212 7.35023 20.751 7.44934 20.6812 7.53423C20.5408 7.7049 20.3848 7.80579 20.2666 7.84223C20.2075 7.86001 20.1595 7.86623 20.127 7.86756C20.1119 7.86756 20.0999 7.86756 20.0901 7.86756C20.0821 7.86712 20.0781 7.86712 20.0781 7.86667Z" fill="#3A2821"/>
<path d="M21.8728 7.83822C21.8733 7.83822 21.8728 7.84222 21.8715 7.84977C21.8702 7.85866 21.868 7.86977 21.8657 7.88399C21.8626 7.8991 21.8604 7.91777 21.8551 7.93955C21.8488 7.96133 21.8422 7.98622 21.8346 8.01422C21.8146 8.06888 21.7897 8.13733 21.7417 8.20666C21.6955 8.27644 21.6288 8.34844 21.5386 8.40622C21.3591 8.52488 21.092 8.56799 20.8088 8.5351C20.6666 8.5191 20.5182 8.48666 20.3688 8.43599C20.22 8.38533 20.068 8.3191 19.9275 8.22266L19.9004 8.20399L19.9337 8.20133C20.1102 8.18799 20.2915 8.14666 20.4657 8.0751L20.4751 8.07155L20.4808 8.09422C20.0844 8.13244 19.7013 8.01822 19.416 7.82799L19.3955 7.81422L19.4195 7.80799C19.6742 7.74399 19.9026 7.65066 20.0808 7.52755C20.2595 7.40488 20.3808 7.25022 20.4444 7.10622C20.5093 6.96133 20.5155 6.83333 20.5235 6.74888C20.5231 6.7071 20.5231 6.67466 20.5226 6.65066C20.5226 6.64044 20.5226 6.63199 20.5231 6.62533C20.5231 6.61955 20.5235 6.61688 20.524 6.61688C20.5244 6.61688 20.5248 6.61955 20.5253 6.62533C20.5257 6.63199 20.5262 6.64044 20.5271 6.65066C20.528 6.67466 20.5297 6.70755 20.5315 6.74933C20.5257 6.83422 20.5213 6.96399 20.4573 7.11199C20.3946 7.25866 20.2724 7.41777 20.092 7.5431C19.912 7.66933 19.6817 7.76444 19.4253 7.82977L19.4288 7.80977C19.7111 7.99688 20.0888 8.10844 20.4791 8.07066L20.5604 8.06266L20.4848 8.09333L20.4755 8.09688C20.2991 8.16933 20.1151 8.2111 19.9364 8.22444L19.9422 8.2031C20.0795 8.29777 20.2302 8.36355 20.3773 8.41422C20.5248 8.46488 20.6715 8.49777 20.8124 8.51422C21.0924 8.54799 21.3551 8.5071 21.532 8.39288C21.6208 8.33733 21.6871 8.26755 21.7333 8.19955C21.7813 8.13199 21.8071 8.06488 21.8284 8.0111C21.8368 7.98355 21.8444 7.9591 21.8506 7.93733C21.8568 7.91599 21.8595 7.89733 21.8631 7.88266C21.8662 7.86888 21.8688 7.85777 21.8706 7.84888C21.8715 7.84177 21.8728 7.83822 21.8728 7.83822Z" fill="#3A2821"/>
<path d="M19.0589 11.4493C19.0522 11.448 19.1762 10.7453 19.3349 9.87997C19.494 9.01419 19.6277 8.3133 19.6344 8.31464C19.6411 8.31597 19.5175 9.01864 19.3584 9.88442C19.1993 10.7497 19.0655 11.4506 19.0589 11.4493Z" fill="#3A2821"/>
<path d="M19.7526 11.6693C19.7517 11.6693 19.7513 11.6591 19.7504 11.6391C19.75 11.6169 19.7495 11.5884 19.7486 11.5529C19.7477 11.4782 19.7477 11.3697 19.7495 11.236C19.7531 10.9684 19.7655 10.5991 19.7944 10.1915C19.8233 9.78397 19.8624 9.41642 19.8966 9.15108C19.9135 9.01819 19.9286 8.91108 19.9402 8.83731C19.946 8.80219 19.9504 8.77419 19.954 8.75242C19.9575 8.73286 19.9597 8.72308 19.9602 8.72308C19.9611 8.72308 19.9606 8.73375 19.9584 8.75331C19.9562 8.77553 19.9531 8.80353 19.9491 8.83908C19.9402 8.91642 19.9282 9.02308 19.9131 9.15375C19.8833 9.41953 19.8469 9.78708 19.818 10.1937C19.7895 10.6004 19.774 10.9697 19.7664 11.2369C19.7629 11.3684 19.7602 11.4755 19.758 11.5533C19.7566 11.5889 19.7557 11.6173 19.7553 11.6395C19.7544 11.6586 19.7535 11.6693 19.7526 11.6693Z" fill="#3A2821"/>
<path d="M23.2549 12.4609C23.2549 12.4609 23.3256 12.1947 23.4398 12.0409C23.554 11.8871 23.81 11.4191 23.81 11.4191L23.8256 11.2147C23.8256 11.2147 23.4304 10.424 23.606 10.1347L23.7024 10.1049C23.7024 10.1049 23.5464 9.89381 23.7064 9.72847L23.8513 9.73603L24.442 10.604L24.0927 9.70536C24.0927 9.70536 24.1011 9.4827 24.2544 9.44403L24.8873 10.444C24.8873 10.444 24.6638 9.99736 24.6847 9.8907C24.7056 9.78403 24.6949 9.67648 24.8207 9.59825L25.1593 10.2129L25.2038 11.2458L24.5402 12.4707" fill="#FAD2C3"/>
<path d="M24.5406 12.4702C24.5397 12.4698 24.5429 12.4622 24.55 12.4476C24.5584 12.4302 24.5691 12.4093 24.5815 12.3836C24.6126 12.3236 24.6549 12.2422 24.7082 12.1391C24.8229 11.9231 24.9855 11.6165 25.1873 11.2365L25.1851 11.2462C25.1709 10.9422 25.154 10.5947 25.1362 10.2133L25.1393 10.224C25.0317 10.0302 24.918 9.8249 24.7989 9.61068L24.8353 9.62001C24.7762 9.65512 24.7406 9.71201 24.7295 9.78357C24.7237 9.8209 24.718 9.85823 24.7122 9.89601C24.7095 9.92223 24.7189 9.96223 24.73 9.9969C24.7753 10.1413 24.8433 10.2862 24.9135 10.4302L24.8651 10.4578C24.6633 10.1396 24.4504 9.80357 24.2313 9.45823L24.2624 9.47068C24.2269 9.48001 24.194 9.50446 24.1713 9.54046C24.1415 9.58757 24.1264 9.6489 24.1224 9.7049L24.1206 9.69335C24.2402 10.0009 24.3566 10.3018 24.4695 10.592L24.5593 10.8227L24.4202 10.6178C24.2144 10.3142 24.0171 10.0236 23.8309 9.7489L23.8513 9.76046C23.802 9.75779 23.754 9.75512 23.7064 9.7529L23.7264 9.7449C23.6815 9.79157 23.6575 9.85246 23.6615 9.91468C23.6651 9.97646 23.6904 10.0391 23.7237 10.0889L23.7429 10.1173L23.7113 10.1271C23.678 10.1373 23.646 10.1471 23.6149 10.1569L23.6286 10.1462C23.5815 10.2311 23.5829 10.3378 23.5931 10.4342C23.6037 10.5325 23.6286 10.6262 23.6544 10.716C23.7082 10.8956 23.7757 11.0591 23.8446 11.2053L23.8469 11.2102L23.8464 11.2151C23.8402 11.2898 23.8349 11.3556 23.8295 11.4196L23.8291 11.4236L23.8273 11.4267C23.7357 11.5902 23.6513 11.7356 23.5744 11.86C23.5006 11.9876 23.4162 12.0818 23.374 12.1725C23.3291 12.2627 23.3024 12.336 23.2842 12.3849C23.2664 12.4342 23.258 12.4605 23.2562 12.46C23.2553 12.46 23.2562 12.4529 23.2593 12.44C23.2624 12.4267 23.2673 12.4076 23.2749 12.3822C23.29 12.3316 23.3135 12.2569 23.3566 12.164C23.398 12.0689 23.4802 11.9729 23.5504 11.8458C23.6246 11.72 23.7069 11.5738 23.7957 11.4098L23.7935 11.4169C23.798 11.3529 23.8029 11.2867 23.8077 11.212L23.8095 11.2218C23.7375 11.0738 23.6682 10.9102 23.6113 10.728C23.5842 10.6365 23.558 10.5413 23.546 10.4391C23.5357 10.3382 23.5295 10.2258 23.586 10.1209L23.59 10.1133L23.5993 10.1102C23.6309 10.1005 23.6624 10.0907 23.6957 10.08L23.6833 10.1182C23.6429 10.0587 23.6162 9.99246 23.6104 9.91779C23.6046 9.84312 23.6349 9.76446 23.6886 9.70935L23.6966 9.7009L23.7082 9.70135C23.7557 9.70357 23.8037 9.70579 23.8531 9.70846L23.866 9.7089L23.8735 9.71957C24.0606 9.99379 24.2589 10.284 24.466 10.5867L24.4166 10.6125C24.3033 10.3222 24.1864 10.0218 24.0664 9.71423L24.0642 9.70801L24.0646 9.70268C24.07 9.63468 24.0851 9.56979 24.1224 9.50935C24.15 9.46401 24.1975 9.42712 24.2477 9.41468L24.2682 9.40979L24.2793 9.42712C24.498 9.7729 24.7104 10.1089 24.9117 10.4276L24.8633 10.4551C24.7922 10.308 24.7251 10.164 24.6775 10.012C24.6669 9.9729 24.6544 9.9369 24.6589 9.88623C24.6651 9.84846 24.6709 9.81068 24.6771 9.77335C24.6873 9.69468 24.738 9.61379 24.8077 9.57512L24.8317 9.56179L24.8442 9.58446C24.9615 9.79912 25.0744 10.0053 25.1811 10.2L25.1837 10.2049V10.2102C25.1984 10.5916 25.2117 10.9396 25.2233 11.2436V11.2489L25.2206 11.2533C25.0126 11.6298 24.8446 11.9338 24.7264 12.1476C24.6691 12.2489 24.6237 12.3289 24.5909 12.3876C24.5762 12.4125 24.5642 12.4325 24.5544 12.4489C24.546 12.464 24.5411 12.4707 24.5406 12.4702Z" fill="#C8A399"/>
<path d="M24.2296 11.388C24.2261 11.3853 24.2372 11.3684 24.2434 11.3346C24.2492 11.3009 24.2483 11.2502 24.2372 11.1871C24.2305 11.1533 24.2243 11.1191 24.2176 11.084C24.2136 11.0649 24.2101 11.0453 24.2061 11.0258C24.2012 11.0071 24.1967 10.992 24.1869 10.972C24.1532 10.8964 24.1056 10.8142 24.0567 10.7289C23.8572 10.388 23.6892 10.1133 23.7029 10.1044C23.7154 10.0964 23.9052 10.3564 24.1061 10.7004C24.1554 10.7871 24.2016 10.8698 24.2354 10.952C24.2443 10.9711 24.2509 10.9969 24.2549 11.0173C24.2581 11.0369 24.2607 11.0564 24.2638 11.0755C24.2696 11.1133 24.2745 11.1493 24.2772 11.1822C24.2834 11.248 24.2781 11.3044 24.2643 11.3404C24.2501 11.3769 24.2318 11.3902 24.2296 11.388Z" fill="#C8A399"/>
<path d="M24.628 11.2969C24.62 11.2929 24.636 11.2529 24.6413 11.1862C24.6471 11.12 24.6373 11.0271 24.6 10.9324C24.5622 10.8373 24.5102 10.7578 24.4742 10.6987C24.4378 10.6396 24.4164 10.6013 24.4231 10.5964C24.4293 10.592 24.4618 10.6213 24.5071 10.6747C24.552 10.7284 24.6124 10.808 24.6533 10.9116C24.6946 11.0151 24.6991 11.1209 24.6818 11.1924C24.6644 11.2649 24.6338 11.3004 24.628 11.2969Z" fill="#C8A399"/>
<path d="M24.9927 11.1116C24.9763 11.1116 24.9638 10.9613 24.9291 10.7805C24.8954 10.5991 24.8523 10.4551 24.8674 10.4489C24.8811 10.4431 24.9505 10.5822 24.9856 10.7698C25.0211 10.9569 25.0078 11.112 24.9927 11.1116Z" fill="#C8A399"/>
<path d="M24.9942 12.6431C24.9942 12.6431 25.592 12.9044 25.9591 13.4635C26.3257 14.0227 27.4382 16.2075 27.7506 17.0791C28.0631 17.9507 28.0133 18.8075 27.5315 19.1858C27.0493 19.564 25.8724 19.4755 25.4253 18.5711C25.2182 18.152 23.2373 12.3791 23.2373 12.3791L24.5031 12.1107L24.6093 12.5924L24.9942 12.6431Z" fill="#FAD2C3"/>
<path d="M27.3906 17.8174C27.3848 17.8169 27.4106 17.7338 27.3906 17.584C27.3719 17.4343 27.2875 17.2303 27.1448 17.0005C26.859 16.5396 26.479 15.8925 26.0737 15.1703C25.6692 14.4507 25.303 13.8 25.0346 13.3223C24.9017 13.0907 24.7932 12.9018 24.715 12.7649C24.6795 12.7023 24.651 12.652 24.6288 12.6129C24.6097 12.5778 24.6004 12.5591 24.6017 12.5583C24.603 12.5574 24.6155 12.5747 24.6372 12.608C24.6612 12.6458 24.6924 12.6947 24.731 12.7556C24.8115 12.884 24.9257 13.0716 25.0639 13.3054C25.3412 13.772 25.7101 14.4249 26.1159 15.1467C26.5212 15.8685 26.8955 16.5174 27.1741 16.9831C27.3141 17.2165 27.3959 17.4276 27.4092 17.5818C27.4172 17.6583 27.411 17.7183 27.4057 17.7578C27.3977 17.7974 27.3924 17.8178 27.3906 17.8174Z" fill="#C8A399"/>
<path d="M29.5313 6.0631L28.4757 4.97021L28.2135 6.69866L26.7997 6.65066L27.6846 7.81288L26.7939 8.98088L28.2686 8.69021L28.4815 10.1738L29.6735 9.27066L31.1766 10.0578L30.8473 8.53955L32.5526 8.2711L31.2264 7.48799L31.9997 6.15466L30.6744 6.67288L30.5131 5.02799L29.5313 6.0631Z" fill="white"/>
<path d="M29.5314 6.06308C29.5314 6.06308 29.5532 6.03819 29.5959 5.99197C29.6394 5.9453 29.7025 5.87775 29.7843 5.7893C29.9505 5.61197 30.1932 5.3533 30.5052 5.02041L30.5217 5.00264L30.5239 5.02708C30.5688 5.47375 30.6248 6.0293 30.6897 6.67153L30.6683 6.65864C31.0657 6.50264 31.5128 6.32664 31.9928 6.13775L32.0417 6.11864L32.0154 6.16397C31.7772 6.57641 31.5172 7.02575 31.2439 7.49864L31.2368 7.47064C31.659 7.71953 32.103 7.98086 32.5639 8.25197L32.6168 8.28308L32.5563 8.29241C32.0123 8.37819 31.4403 8.46886 30.8514 8.56175L30.8705 8.53419C30.9754 9.01819 31.0865 9.53019 31.1999 10.0524L31.2105 10.1017L31.1657 10.0782C30.7492 9.86041 30.3097 9.63019 29.8634 9.39641C29.7963 9.3613 29.7292 9.32619 29.6625 9.29108L29.6879 9.28886C29.2839 9.59464 28.8861 9.89597 28.4959 10.1915L28.4639 10.2155L28.4581 10.176C28.3857 9.67019 28.3145 9.17508 28.2457 8.69241L28.2728 8.71153C27.7657 8.81108 27.2737 8.90797 26.7981 9.0013L26.7412 9.01241L26.7763 8.96619C27.0857 8.5613 27.383 8.17153 27.6679 7.79864V7.82353C27.3559 7.41286 27.0617 7.0253 26.7848 6.66041L26.7612 6.6293L26.8003 6.63064C27.3137 6.64886 27.783 6.66575 28.2141 6.68086L28.1977 6.69464C28.3025 6.01464 28.3923 5.43597 28.4648 4.96664L28.4683 4.94397L28.4839 4.96041C28.823 5.31553 29.0839 5.58886 29.2617 5.77508C29.3497 5.86753 29.4163 5.93819 29.4625 5.98708C29.5083 6.03686 29.5314 6.06308 29.5314 6.06308C29.5314 6.06308 29.5083 6.0413 29.463 5.99508C29.4163 5.94753 29.3488 5.87864 29.2599 5.78886C29.079 5.60353 28.8132 5.33153 28.4683 4.97819L28.4874 4.97197C28.4177 5.44175 28.3314 6.02086 28.2301 6.7013L28.2279 6.71553L28.2137 6.71508C27.7825 6.7013 27.3128 6.68619 26.7999 6.66975L26.8154 6.63997C27.0937 7.00397 27.3888 7.39064 27.7017 7.80086L27.711 7.8133L27.7017 7.82575C27.4177 8.19908 27.1208 8.5893 26.8123 8.99508L26.7905 8.95997C27.2661 8.86575 27.7577 8.76841 28.2648 8.66841L28.2883 8.66353L28.2919 8.68753C28.3612 9.16975 28.4328 9.66486 28.5057 10.1706L28.4679 10.1551C28.8577 9.85953 29.2559 9.55819 29.6594 9.25197L29.6714 9.24264L29.6848 9.24975C29.7514 9.28486 29.8185 9.31997 29.8857 9.35508C30.3314 9.58886 30.7714 9.81908 31.1874 10.0369L31.1532 10.0626C31.0403 9.53997 30.9292 9.02797 30.8248 8.54397L30.8194 8.51997L30.8434 8.51597C31.4328 8.42353 32.0048 8.33375 32.5488 8.24841L32.5412 8.28886C32.0812 8.01686 31.6377 7.75419 31.2159 7.50486L31.1985 7.49464L31.2088 7.4773C31.4834 7.0053 31.7443 6.55641 31.9839 6.14486L32.0065 6.17108C31.5257 6.35819 31.0781 6.53197 30.6803 6.68708L30.6608 6.69464L30.659 6.67419C30.5977 6.03197 30.5448 5.47597 30.5025 5.02886L30.5217 5.03553C30.2039 5.36664 29.9563 5.62441 29.787 5.80041C29.7039 5.88619 29.6403 5.95197 29.5963 5.9973C29.5532 6.04175 29.5314 6.06308 29.5314 6.06308Z" fill="#737797"/>
<path d="M26.7005 7.88707C26.7005 8.06129 26.5596 8.20218 26.3854 8.20218C26.2112 8.20218 26.0703 8.06129 26.0703 7.88707C26.0703 7.71285 26.2112 7.57196 26.3854 7.57196C26.5596 7.57196 26.7005 7.71285 26.7005 7.88707Z" fill="white"/>
<path d="M26.7007 7.88707C26.6962 7.88707 26.6958 7.85907 26.682 7.81241C26.6682 7.76663 26.6353 7.70041 26.566 7.65019C26.4989 7.59952 26.39 7.57241 26.2856 7.61196C26.182 7.64841 26.0931 7.75863 26.094 7.88707C26.0927 8.01552 26.182 8.12619 26.2856 8.16263C26.39 8.20219 26.4989 8.17463 26.566 8.12441C26.6353 8.07418 26.6678 8.00796 26.682 7.96218C26.6962 7.91507 26.6967 7.88707 26.7007 7.88707C26.7029 7.88707 26.7091 7.91507 26.6998 7.96619C26.6904 8.01596 26.6607 8.09107 26.5864 8.15063C26.5149 8.21018 26.3922 8.24663 26.2709 8.20352C26.1509 8.16441 26.0456 8.03685 26.0469 7.88707C26.0456 7.7373 26.1509 7.60974 26.2709 7.57063C26.3922 7.52752 26.5149 7.56352 26.5864 7.62352C26.6607 7.68307 26.6909 7.75818 26.6998 7.80796C26.7091 7.85863 26.7029 7.88707 26.7007 7.88707Z" fill="#737797"/>
<path d="M29.6871 6.74132L29.6231 7.74932C29.6178 7.83154 29.552 7.89732 29.4698 7.90221C29.3827 7.90754 29.3071 7.84354 29.2974 7.75688L29.1854 6.74399C29.1769 6.6671 29.2374 6.60043 29.3147 6.60177L29.5605 6.60532C29.6342 6.60577 29.6916 6.66799 29.6871 6.74132Z" fill="#737797"/>
<path d="M29.203 8.46885C29.2456 8.59774 29.3852 8.66751 29.5141 8.62485C29.643 8.58218 29.7127 8.44262 29.6701 8.31374C29.6274 8.18485 29.4879 8.11507 29.359 8.15774C29.2301 8.20085 29.1603 8.33996 29.203 8.46885Z" fill="#737797"/>
<path d="M22.7071 10.0711C22.7262 10.0307 22.748 9.99289 22.7982 9.98578C22.9613 9.996 23.1253 9.98533 23.2885 10.0022C23.3089 10.008 23.3138 10.0276 23.3249 10.0418C23.3298 10.0467 23.4885 10.2964 23.4418 10.4293C23.4142 10.4733 23.4053 10.5347 23.3391 10.5444C23.3067 10.5351 23.2907 10.5076 23.2711 10.4836C23.1542 10.3436 22.9587 10.324 22.816 10.4364C22.7778 10.4667 22.7698 10.5213 22.724 10.5436C22.6329 10.5444 22.6258 10.5071 22.6067 10.4378C22.5711 10.2653 22.7027 10.0756 22.7071 10.0711Z" fill="#170812"/>
<path d="M22.7928 9.99864C22.7541 10.0133 22.7297 10.0453 22.707 10.0711C22.7164 9.96753 22.8013 9.92575 22.875 9.88442C22.9808 9.82486 23.1475 9.81064 23.2506 9.91153C23.287 9.94708 23.3186 9.98797 23.3248 10.0417C23.2955 10.0022 23.2004 9.95553 23.1821 9.94975C23.0448 9.90753 22.9164 9.93242 22.7928 9.99864Z" fill="#C8A399"/>
<path d="M22.7236 10.544C22.8543 10.3209 23.0921 10.2765 23.2614 10.444C23.2912 10.4738 23.3134 10.5107 23.3392 10.5445C23.3156 10.5649 23.2187 10.5573 23.1814 10.5253C23.097 10.4889 23.0143 10.4791 22.929 10.5205C22.8339 10.5689 22.7423 10.5418 22.7236 10.544Z" fill="#E9856D"/>
<path d="M23.2952 10.0116C23.1276 10.012 22.9601 10.0165 22.793 9.99868C22.9147 9.89334 23.1899 9.89956 23.2952 10.0116Z" fill="#FBF4F2"/>
<path d="M22.324 8.81998C22.3935 8.81998 22.4498 8.76366 22.4498 8.6942C22.4498 8.62473 22.3935 8.56842 22.324 8.56842C22.2546 8.56842 22.1982 8.62473 22.1982 8.6942C22.1982 8.76366 22.2546 8.81998 22.324 8.81998Z" fill="white"/>
<path d="M23.9783 8.81998C24.0478 8.81998 24.1041 8.76366 24.1041 8.6942C24.1041 8.62473 24.0478 8.56842 23.9783 8.56842C23.9089 8.56842 23.8525 8.62473 23.8525 8.6942C23.8525 8.76366 23.9089 8.81998 23.9783 8.81998Z" fill="white"/>
</g>
<defs>
<clipPath id="clip0_1141_49271">
<rect width="48" height="48" rx="24" fill="white"/>
</clipPath>
</defs>
</svg>
