<svg width="48" height="48" viewBox="0 0 48 48" fill="none" xmlns="http://www.w3.org/2000/svg">
<g clip-path="url(#clip0_1141_49268)">
<rect width="48" height="48" rx="24" fill="white"/>
<g clip-path="url(#clip1_1141_49268)">
<path opacity="0.26" d="M49.1789 36.204H-2.22559V49.0755H49.1789V36.204Z" fill="#B1B5DB"/>
<g opacity="0.39">
<path d="M40.5742 33.5178H36.2422V34.6635H40.5742V33.5178Z" fill="#B1B5DB"/>
<path d="M38.7429 35.8711C38.7425 35.8706 38.742 35.8635 38.7416 35.8502C38.7411 35.8346 38.7407 35.8155 38.7402 35.7915C38.7393 35.7377 38.7385 35.6622 38.7371 35.5662C38.7353 35.3684 38.7327 35.084 38.7296 34.7253L38.7429 34.7386C37.754 34.7404 36.1807 34.7439 34.4113 34.7471C34.4211 34.7373 34.3891 34.7693 34.4331 34.7248V34.7253V34.7257V34.7271V34.7293V34.7337V34.7431V34.7613V34.7982V34.8715C34.4331 34.9204 34.4331 34.9693 34.4331 35.0177C34.4331 35.1151 34.4331 35.2115 34.4331 35.3071C34.4331 35.4982 34.4327 35.6866 34.4327 35.8706L34.4109 35.8488C35.6442 35.8528 36.7238 35.8564 37.498 35.8586C37.8838 35.8613 38.1931 35.8635 38.4091 35.8648C38.5145 35.8662 38.5967 35.8671 38.6553 35.8675C38.682 35.868 38.7029 35.8684 38.7198 35.8688C38.7345 35.8702 38.7425 35.8706 38.7429 35.8711C38.7433 35.8715 38.7367 35.872 38.7229 35.8724C38.7069 35.8728 38.6864 35.8733 38.6611 35.8737C38.6033 35.8746 38.5224 35.8755 38.4193 35.8764C38.2042 35.8777 37.8967 35.8799 37.5131 35.8826C36.7353 35.8853 35.6504 35.8884 34.4109 35.8924H34.3891V35.8706C34.3891 35.6862 34.3887 35.4982 34.3887 35.3071C34.3887 35.2115 34.3887 35.1151 34.3887 35.0177C34.3887 34.9693 34.3887 34.9204 34.3887 34.8715V34.7982V34.7613V34.7431V34.7337V34.7293V34.7271V34.7257V34.7253V34.7248C34.4327 34.6808 34.4011 34.7124 34.4109 34.7026C36.1802 34.7062 37.7536 34.7093 38.7425 34.7111H38.7558V34.7244C38.7527 35.0866 38.75 35.3737 38.7482 35.5733C38.7469 35.6684 38.7456 35.7426 38.7451 35.7959C38.7447 35.8191 38.7442 35.8377 38.7438 35.8524C38.7438 35.8653 38.7433 35.8715 38.7429 35.8711Z" fill="#B1B5DB"/>
</g>
<g opacity="0.39">
<path d="M24.2549 22.3258H19.9229V23.4716H24.2549V22.3258Z" fill="#B1B5DB"/>
<path d="M24.1748 34.3182H19.8428V35.464H24.1748V34.3182Z" fill="#B1B5DB"/>
<path d="M43.5224 17.496H39.1904V18.6418H43.5224V17.496Z" fill="#B1B5DB"/>
<path d="M9.92575 17.0298H5.59375V18.1756H9.92575V17.0298Z" fill="#B1B5DB"/>
<path d="M22.4226 24.6791C22.4221 24.6787 22.4217 24.6716 22.4212 24.6582C22.4208 24.6427 22.4204 24.6235 22.4199 24.5995C22.419 24.5458 22.4181 24.4702 22.4168 24.3742C22.415 24.1764 22.4124 23.892 22.4092 23.5333L22.4226 23.5467C21.4337 23.5484 19.8604 23.552 18.091 23.5551C18.1008 23.5453 18.0688 23.5773 18.1128 23.5329V23.5333V23.5338V23.5351V23.5373V23.5418V23.5511V23.5693V23.6062V23.6795C18.1128 23.7284 18.1128 23.7773 18.1128 23.8258C18.1128 23.9231 18.1128 24.0196 18.1128 24.1151C18.1128 24.3062 18.1124 24.4947 18.1124 24.6787L18.0906 24.6569C19.3239 24.6609 20.4035 24.6644 21.1777 24.6667C21.5635 24.6693 21.8728 24.6716 22.0888 24.6729C22.1941 24.6742 22.2764 24.6751 22.335 24.6756C22.3617 24.676 22.3826 24.6764 22.3995 24.6769C22.4146 24.6782 22.4221 24.6787 22.4226 24.6791C22.423 24.6796 22.4164 24.68 22.4026 24.6804C22.3866 24.6809 22.3661 24.6813 22.3408 24.6818C22.283 24.6827 22.2021 24.6836 22.099 24.6844C21.8839 24.6858 21.5764 24.688 21.1928 24.6907C20.415 24.6933 19.3301 24.6964 18.0906 24.7004H18.0688V24.6787C18.0688 24.4942 18.0684 24.3062 18.0684 24.1151C18.0684 24.0196 18.0684 23.9231 18.0684 23.8258C18.0684 23.7773 18.0684 23.7284 18.0684 23.6795V23.6062V23.5693V23.5511V23.5418V23.5373V23.5351V23.5338V23.5333V23.5329C18.1124 23.4889 18.0808 23.5204 18.0906 23.5107C19.8599 23.5142 21.4332 23.5173 22.4221 23.5191H22.4355V23.5324C22.4324 23.8942 22.4297 24.1818 22.4279 24.3813C22.4266 24.4764 22.4252 24.5507 22.4248 24.604C22.4244 24.6271 22.4239 24.6458 22.4235 24.6604C22.4235 24.6733 22.423 24.6796 22.4226 24.6791Z" fill="#B1B5DB"/>
</g>
<g opacity="0.39">
<path d="M34.3896 13.1729H30.0576V14.3187H34.3896V13.1729Z" fill="#B1B5DB"/>
<path d="M32.5573 15.5258C32.5569 15.5253 32.5565 15.5182 32.556 15.5049C32.5556 15.4893 32.5551 15.4702 32.5547 15.4462C32.5538 15.3925 32.5529 15.3169 32.5516 15.2209C32.5498 15.0231 32.5471 14.7387 32.544 14.38L32.5573 14.3933C31.5685 14.3951 29.9951 14.3987 28.2258 14.4018C28.2356 14.392 28.2036 14.424 28.2476 14.3796V14.38V14.3805V14.3818V14.384V14.3885V14.3978V14.416V14.4529V14.5262C28.2476 14.5751 28.2476 14.624 28.2476 14.6725C28.2476 14.7698 28.2476 14.8662 28.2476 14.9618C28.2476 15.1529 28.2471 15.3413 28.2471 15.5253L28.2253 15.5036C29.4587 15.5076 30.5382 15.5111 31.3125 15.5133C31.6982 15.516 32.0076 15.5182 32.2236 15.5196C32.3289 15.5209 32.4111 15.5218 32.4698 15.5222C32.4965 15.5227 32.5173 15.5231 32.5342 15.5236C32.5489 15.5249 32.5569 15.5253 32.5573 15.5258C32.5578 15.5262 32.5511 15.5267 32.5373 15.5271C32.5213 15.5276 32.5009 15.528 32.4756 15.5285C32.4178 15.5293 32.3369 15.5302 32.2338 15.5311C32.0187 15.5325 31.7111 15.5347 31.3276 15.5373C30.5498 15.54 29.4649 15.5431 28.2253 15.5471H28.2036V15.5253C28.2036 15.3409 28.2031 15.1529 28.2031 14.9618C28.2031 14.8662 28.2031 14.7698 28.2031 14.6725C28.2031 14.624 28.2031 14.5751 28.2031 14.5262V14.4529V14.416V14.3978V14.3885V14.384V14.3818V14.3805V14.38V14.3796C28.2471 14.3356 28.2156 14.3671 28.2253 14.3573C29.9947 14.3609 31.568 14.364 32.5569 14.3658H32.5702V14.3791C32.5671 14.7409 32.5645 15.028 32.5627 15.228C32.5613 15.3231 32.56 15.3973 32.5596 15.4507C32.5591 15.4738 32.5587 15.4925 32.5582 15.5071C32.5582 15.52 32.5578 15.5262 32.5573 15.5258Z" fill="#B1B5DB"/>
</g>
<g opacity="0.39">
<path d="M42.4499 9.81643C42.4495 9.81599 42.449 9.80888 42.4486 9.79555C42.4481 9.77999 42.4477 9.76088 42.4473 9.73688C42.4464 9.6831 42.4455 9.60755 42.4441 9.51155C42.4424 9.31377 42.4397 9.02932 42.4366 8.67066L42.4499 8.68399C41.461 8.68577 39.8877 8.68932 38.1184 8.69243C38.1281 8.68266 38.0961 8.71466 38.1401 8.67021V8.67066V8.6711V8.67243V8.67466V8.6791V8.68843V8.70666V8.74355V8.81688C38.1401 8.86577 38.1401 8.91466 38.1401 8.9631C38.1401 9.06043 38.1401 9.15688 38.1401 9.25243C38.1401 9.44355 38.1397 9.63199 38.1397 9.81599L38.1179 9.79421C39.3513 9.79821 40.4308 9.80177 41.205 9.80399C41.5908 9.80666 41.9001 9.80888 42.1161 9.81021C42.2215 9.81155 42.3037 9.81243 42.3624 9.81288C42.389 9.81332 42.4099 9.81377 42.4268 9.81421C42.4415 9.81555 42.4495 9.81599 42.4499 9.81643C42.4504 9.81688 42.4437 9.81732 42.4299 9.81777C42.4139 9.81821 42.3935 9.81866 42.3681 9.8191C42.3104 9.81999 42.2295 9.82088 42.1264 9.82177C41.9113 9.8231 41.6037 9.82532 41.2201 9.82799C40.4424 9.83066 39.3575 9.83377 38.1179 9.83777H38.0961V9.81599C38.0961 9.63155 38.0957 9.44355 38.0957 9.25243C38.0957 9.15688 38.0957 9.06043 38.0957 8.9631C38.0957 8.91466 38.0957 8.86577 38.0957 8.81688V8.74355V8.70666V8.68843V8.6791V8.67466V8.67243V8.6711V8.67066V8.67021C38.1397 8.62621 38.1081 8.65777 38.1179 8.64799C39.8873 8.65155 41.4606 8.65466 42.4495 8.65643H42.4628V8.66977C42.4597 9.03199 42.457 9.3191 42.4553 9.51866C42.4539 9.61377 42.4526 9.68799 42.4521 9.74132C42.4517 9.76443 42.4513 9.7831 42.4508 9.79777C42.4508 9.81066 42.4504 9.81688 42.4499 9.81643Z" fill="#B1B5DB"/>
<path d="M43.0369 8.67067C43.0365 8.67022 43.036 8.66267 43.0351 8.64889C43.0347 8.63245 43.0342 8.61244 43.0334 8.588C43.0325 8.53156 43.0311 8.45511 43.0294 8.35822C43.0271 8.15733 43.0245 7.87333 43.0209 7.52445L43.0369 7.54045C42.3627 7.54222 41.4454 7.54445 40.4342 7.54667C40.4142 7.56622 40.4609 7.51956 40.456 7.52489V7.52533V7.52578V7.52711V7.52933V7.53422V7.54356V7.56222V7.6V7.67511C40.456 7.72489 40.456 7.77467 40.456 7.82356C40.456 7.92222 40.456 8.01956 40.456 8.11511C40.4556 8.30667 40.4556 8.49289 40.4551 8.67067L40.4342 8.64978C41.1858 8.65378 41.8325 8.65733 42.296 8.65956C42.5245 8.66178 42.708 8.664 42.8382 8.66533C42.8991 8.66622 42.9476 8.66711 42.9845 8.668C43.0182 8.66889 43.036 8.66978 43.0369 8.67067C43.0378 8.67156 43.0218 8.67244 42.9898 8.67333C42.9542 8.67378 42.9071 8.67467 42.848 8.676C42.7187 8.67733 42.5369 8.67956 42.3102 8.68178C41.8431 8.68444 41.1911 8.68756 40.4342 8.69156H40.4134V8.67022C40.4129 8.492 40.4129 8.30622 40.4125 8.11467C40.4125 8.01867 40.4125 7.92133 40.4125 7.82311C40.4125 7.77378 40.4125 7.72444 40.4125 7.67467V7.59956V7.56178V7.54311V7.53378V7.52889V7.52667V7.52533V7.52489V7.52445C40.4076 7.52889 40.4542 7.48267 40.4347 7.50222C41.4458 7.50445 42.3631 7.50667 43.0374 7.50845H43.0534V7.52445C43.0498 7.87733 43.0467 8.16445 43.0449 8.36756C43.0431 8.46267 43.0418 8.53822 43.0409 8.59378C43.0391 8.64533 43.0382 8.67156 43.0369 8.67067Z" fill="#B1B5DB"/>
</g>
<g opacity="0.39">
<path d="M10.8786 7.92355C10.8782 7.92311 10.8777 7.916 10.8773 7.90266C10.8769 7.88711 10.8764 7.868 10.876 7.844C10.8751 7.79022 10.8742 7.71466 10.8729 7.61866C10.8711 7.42088 10.8684 7.13644 10.8653 6.77777L10.8786 6.79111C9.88975 6.79288 8.31641 6.796 6.54708 6.79955C6.55686 6.78977 6.52486 6.82177 6.56886 6.77733V6.77777V6.77822V6.77955V6.78177V6.78622V6.79555V6.81377V6.85066V6.92399C6.56886 6.97288 6.56886 7.02177 6.56886 7.07022C6.56886 7.16755 6.56886 7.264 6.56886 7.35955C6.56886 7.55066 6.56841 7.73911 6.56841 7.92311L6.54664 7.90133C7.77997 7.90533 8.85953 7.90888 9.63375 7.91111C10.0195 7.91377 10.3289 7.916 10.5449 7.91733C10.6502 7.91866 10.7324 7.91955 10.7911 7.92C10.8177 7.92044 10.8386 7.92088 10.8555 7.92133C10.8702 7.92266 10.8782 7.92311 10.8786 7.92355C10.8791 7.924 10.8724 7.92444 10.8586 7.92488C10.8426 7.92533 10.8222 7.92577 10.7969 7.92622C10.7391 7.92711 10.6582 7.928 10.5551 7.92888C10.34 7.93022 10.0324 7.93244 9.64886 7.93511C8.87108 7.93777 7.78619 7.94088 6.54664 7.94488H6.52486V7.92311C6.52486 7.73866 6.52441 7.55066 6.52441 7.35955C6.52441 7.264 6.52441 7.16755 6.52441 7.07022C6.52441 7.02177 6.52441 6.97288 6.52441 6.92399V6.85066V6.81377V6.79555V6.78622V6.78177V6.77955V6.77822V6.77777V6.77733C6.56841 6.73333 6.53686 6.76488 6.54664 6.75511C8.31597 6.75866 9.8893 6.76177 10.8782 6.76355H10.8915V6.77688C10.8884 7.13911 10.8857 7.42622 10.884 7.62577C10.8826 7.72088 10.8813 7.79511 10.8809 7.84844C10.8804 7.87155 10.88 7.89022 10.8795 7.90488C10.8795 7.91777 10.8791 7.924 10.8786 7.92355Z" fill="#B1B5DB"/>
<path d="M11.4656 6.77736C11.4652 6.77691 11.4647 6.76936 11.4638 6.75558C11.4634 6.73913 11.463 6.71914 11.4621 6.69469C11.4612 6.63825 11.4598 6.5618 11.4581 6.46491C11.4558 6.26402 11.4532 5.98002 11.4496 5.63113L11.4656 5.64713C10.7914 5.64891 9.87407 5.65113 8.86296 5.65336C8.84296 5.67291 8.88963 5.62625 8.88474 5.63158V5.63202V5.63247V5.6338V5.63602V5.64091V5.65025V5.66891V5.70669V5.7818C8.88474 5.83158 8.88474 5.88136 8.88474 5.93025C8.88474 6.02891 8.88474 6.12625 8.88474 6.2218C8.88429 6.41336 8.88429 6.59958 8.88385 6.77736L8.86296 6.75647C9.61452 6.76047 10.2612 6.76402 10.7247 6.76625C10.9532 6.76891 11.1367 6.77069 11.267 6.77202C11.3278 6.77291 11.3763 6.7738 11.4132 6.77469C11.447 6.77602 11.4647 6.77691 11.4656 6.77736C11.4665 6.77825 11.4505 6.77914 11.4185 6.78002C11.383 6.78047 11.3358 6.78136 11.2767 6.78269C11.1474 6.78402 10.9656 6.78625 10.739 6.78847C10.2718 6.79114 9.61985 6.79425 8.86296 6.79825H8.84207V6.77691C8.84163 6.59869 8.84163 6.41291 8.84118 6.22136C8.84118 6.12536 8.84118 6.02802 8.84118 5.9298C8.84118 5.88047 8.84118 5.83113 8.84118 5.78136V5.70625V5.66847V5.6498V5.64047V5.63558V5.63336V5.63202V5.63158V5.63113C8.83629 5.63558 8.88296 5.58936 8.8634 5.60891C9.87452 5.61113 10.7918 5.61336 11.4661 5.61513H11.4821V5.63113C11.4785 5.98402 11.4754 6.27113 11.4736 6.47425C11.4718 6.56936 11.4705 6.64491 11.4696 6.70047C11.4678 6.75247 11.467 6.77869 11.4656 6.77736Z" fill="#B1B5DB"/>
</g>
<path d="M24.543 38.7875C24.5443 38.7875 24.5439 38.8035 24.5421 38.8342C24.5394 38.8689 24.5363 38.9138 24.5319 38.9707C24.5208 39.0951 24.5052 39.2702 24.4857 39.4933L24.4848 39.5058H24.4719C24.2954 39.5058 24.0861 39.5053 23.8492 39.5053L23.8674 39.4844C23.8977 39.6973 23.9319 39.9387 23.9692 40.2L23.9723 40.2222L23.9501 40.2249C23.7545 40.2493 23.5452 40.2755 23.3257 40.3027L23.3461 40.2707C23.4088 40.4635 23.4754 40.6662 23.5363 40.8827L23.547 40.924C23.5497 40.9409 23.555 40.9458 23.5537 40.9773L23.5528 40.9809C23.5523 40.9835 23.5461 40.9951 23.535 40.9987C23.5083 41.0009 23.5208 40.9982 23.5181 41C23.5185 41.0004 23.5194 41.0013 23.5194 41.0013C23.5221 41.0009 23.5172 41.0018 23.5145 41.0027L23.4959 41.0075L23.4563 41.02C23.403 41.0387 23.3488 41.0578 23.2945 41.0769C23.1861 41.1178 23.0759 41.1591 22.9639 41.2013L22.9777 41.1613C23.0852 41.3391 23.1999 41.5284 23.3172 41.7218L23.3305 41.744L23.3097 41.7595C23.1474 41.8804 22.975 42.0093 22.7994 42.14L22.8052 42.0991C22.9301 42.2658 23.0625 42.4427 23.1968 42.6213L23.2119 42.6413L23.1941 42.6591L23.1932 42.66C23.0639 42.7915 22.9359 42.9218 22.8097 43.0502L22.8065 43.0067C22.9661 43.1302 23.123 43.252 23.2768 43.3715L23.2305 43.3982C23.1319 42.7124 23.1981 42.0533 23.3554 41.492C23.5114 40.9284 23.7501 40.4595 23.991 40.1009C24.2319 39.7409 24.4701 39.4867 24.6417 39.3222C24.7274 39.24 24.7972 39.18 24.8448 39.14C24.867 39.1222 24.8852 39.1075 24.8999 39.096C24.9123 39.0862 24.9194 39.0818 24.9199 39.0827C24.9212 39.084 24.8972 39.1062 24.8519 39.148C24.8065 39.1902 24.7394 39.2524 24.6559 39.3369C24.4897 39.5049 24.2572 39.7618 24.0225 40.1218C23.7874 40.4804 23.5554 40.9467 23.4043 41.5053C23.2514 42.0618 23.1892 42.7133 23.2879 43.3902L23.2981 43.4609L23.2417 43.4173C23.0879 43.2982 22.9305 43.1764 22.771 43.0533L22.7452 43.0333L22.7683 43.0098C22.8945 42.8813 23.0225 42.7511 23.1519 42.6191L23.1528 42.6182L23.1501 42.6564C23.0159 42.4773 22.8839 42.3009 22.7585 42.1338L22.7412 42.1102L22.7648 42.0929C22.9403 41.9622 23.1132 41.8338 23.2754 41.7129L23.2679 41.7507C23.151 41.5569 23.0372 41.3671 22.9301 41.1889L22.9128 41.1604L22.9439 41.1489C23.0563 41.1071 23.167 41.0658 23.2759 41.0253C23.331 41.0062 23.3857 40.9875 23.4399 40.9689L23.4817 40.956L23.5039 40.9502C23.5079 40.9493 23.5101 40.948 23.5194 40.9475C23.5234 40.9475 23.5274 40.9475 23.5314 40.948L23.5341 40.9484H23.535C23.5199 40.9951 23.531 40.9609 23.5274 40.9711L23.5265 40.9702C23.5252 40.9698 23.5252 40.9711 23.5234 40.9707C23.5203 40.9693 23.5172 40.9684 23.5137 40.9675C23.4941 40.964 23.5048 40.9707 23.5021 40.9671L23.5017 40.9635L23.5003 40.9547L23.4963 40.9351L23.4865 40.8951C23.4279 40.6813 23.3617 40.4773 23.3008 40.2849L23.2919 40.2564L23.3212 40.2529C23.5412 40.2271 23.7505 40.2027 23.9461 40.1795L23.927 40.2044C23.8923 39.9427 23.8608 39.7009 23.8323 39.488L23.8297 39.4667L23.851 39.4671C24.0879 39.4707 24.2972 39.4742 24.4737 39.4769L24.4599 39.4893C24.4852 39.2667 24.5052 39.092 24.5194 38.968C24.5265 38.9115 24.5323 38.8667 24.5368 38.8324C24.539 38.8031 24.5417 38.7871 24.543 38.7875Z" fill="#5C617C"/>
<path d="M24.5434 38.7875C24.5465 38.7911 24.4918 38.8404 24.3962 38.9324C24.3002 39.0235 24.1642 39.1595 24.0074 39.3369C23.85 39.5138 23.6745 39.7355 23.5011 39.9951C23.3296 40.256 23.1594 40.5569 23.0367 40.8951C22.9145 41.2333 22.8505 41.5738 22.81 41.8835C22.7696 42.1938 22.7567 42.476 22.7558 42.7129C22.7549 42.9498 22.7647 43.1418 22.7758 43.2738C22.786 43.4062 22.7936 43.4791 22.7891 43.48C22.7869 43.4804 22.7829 43.4622 22.7767 43.428C22.7709 43.3933 22.7607 43.3427 22.7536 43.2764C22.7354 43.1444 22.7198 42.952 22.7149 42.7138C22.7105 42.4755 22.7194 42.1911 22.7571 41.8773C22.7949 41.5644 22.8576 41.2204 22.982 40.8755C23.1069 40.5311 23.2807 40.2271 23.4567 39.9653C23.6345 39.7044 23.8149 39.484 23.9771 39.3093C24.1394 39.1342 24.2798 39.0022 24.3811 38.9155C24.4309 38.8711 24.4722 38.84 24.4994 38.8182C24.5269 38.7964 24.542 38.7858 24.5434 38.7875Z" fill="#5C617C"/>
<path d="M24.316 38.5382C24.3191 38.5422 24.2586 38.5915 24.1529 38.684C24.0471 38.776 23.8982 38.9151 23.7302 39.1004C23.3924 39.4684 22.9964 40.052 22.748 40.7764C22.4946 41.4991 22.448 42.2026 22.4791 42.7013C22.4933 42.9515 22.5209 43.1529 22.5444 43.2915C22.568 43.4298 22.5831 43.5062 22.5782 43.5075C22.5764 43.508 22.5702 43.4893 22.5604 43.4538C22.5515 43.4178 22.5355 43.3653 22.5217 43.296C22.4911 43.1582 22.4569 42.9564 22.4373 42.7044C22.3951 42.2026 22.4355 41.4893 22.692 40.7578C22.9435 40.0249 23.3506 39.4373 23.6991 39.0733C23.8729 38.8893 24.0271 38.7546 24.1377 38.6671C24.192 38.6222 24.2377 38.5915 24.2675 38.5693C24.2986 38.5471 24.3151 38.5369 24.316 38.5382Z" fill="#5C617C"/>
<path d="M26.3043 41.2418C26.3035 41.2578 26.2372 41.2671 26.1572 41.2618C26.0768 41.2569 26.0128 41.2395 26.0137 41.2235C26.0146 41.2075 26.0803 41.1982 26.1608 41.2035C26.2412 41.2084 26.3057 41.2258 26.3043 41.2418Z" fill="white"/>
<path d="M21.4691 8.11425L20.1438 6.74225L19.8144 8.91247L18.0393 8.85247L19.15 10.3111L18.0322 11.7782L19.8833 11.4129L20.1509 13.2756L21.6478 12.1418L23.5349 13.1302L23.1216 11.2236L25.2629 10.8862L23.5976 9.90358L24.5682 8.22936L22.9042 8.88003L22.7016 6.81469L21.4691 8.11425Z" fill="white"/>
<path d="M21.4695 8.11425C21.4695 8.11425 21.497 8.08269 21.5504 8.02492C21.605 7.96625 21.6841 7.88136 21.7872 7.77069C21.9957 7.54803 22.3006 7.22314 22.6921 6.80536L22.713 6.78314L22.7161 6.81336C22.7726 7.37425 22.8428 8.07203 22.9241 8.8778L22.8975 8.86136C23.3961 8.66536 23.9575 8.44447 24.5606 8.20758L24.6219 8.18358L24.589 8.24092C24.2895 8.75869 23.9637 9.32269 23.6206 9.91647L23.6112 9.88136C24.1415 10.1938 24.6992 10.5218 25.2775 10.8627L25.3437 10.9018L25.2677 10.9138C24.585 11.0218 23.8668 11.1351 23.1268 11.252L23.1508 11.2174C23.2828 11.8249 23.4224 12.468 23.5646 13.1236L23.5779 13.1854L23.5215 13.156C22.9988 12.8822 22.4468 12.5934 21.8864 12.3C21.8019 12.256 21.7179 12.212 21.6339 12.168L21.6659 12.1654C21.1588 12.5494 20.6588 12.928 20.1695 13.2987L20.1295 13.3289L20.1224 13.2791C20.0312 12.644 19.9424 12.0222 19.8557 11.4165L19.8899 11.4405C19.2535 11.5654 18.6357 11.6867 18.0384 11.804L17.9668 11.8182L18.0108 11.7605C18.3988 11.252 18.7726 10.7627 19.1299 10.2947V10.3258C18.7384 9.81025 18.369 9.32358 18.021 8.86536L17.9912 8.82625L18.0406 8.82803C18.685 8.85114 19.2744 8.87203 19.8157 8.89114L19.7952 8.90847C19.9272 8.05469 20.0392 7.32803 20.1304 6.73914L20.1348 6.71069L20.1548 6.73158C20.5806 7.17736 20.9081 7.52092 21.1312 7.75425C21.2415 7.87069 21.3255 7.95914 21.3837 8.02047C21.4401 8.08136 21.4695 8.11425 21.4695 8.11425C21.4695 8.11425 21.4406 8.08669 21.3832 8.02892C21.3246 7.96936 21.2397 7.88314 21.1281 7.7698C20.901 7.53736 20.5672 7.19558 20.1339 6.75203L20.1579 6.74447C20.0699 7.33425 19.9619 8.06136 19.8348 8.91558L19.8321 8.93336L19.8139 8.93292C19.2726 8.91558 18.6828 8.89647 18.0388 8.87603L18.0584 8.83869C18.4072 9.29603 18.7784 9.78136 19.1712 10.296L19.1832 10.3116L19.1712 10.3271C18.8148 10.796 18.4419 11.2858 18.0548 11.7951L18.0277 11.7511C18.6246 11.6329 19.2424 11.5107 19.8784 11.3849L19.9081 11.3791L19.9126 11.4094C19.9997 12.0151 20.0895 12.6365 20.181 13.2716L20.1339 13.252C20.6237 12.8809 21.1232 12.5022 21.6304 12.1182L21.6455 12.1067L21.6624 12.1156C21.7464 12.1596 21.8304 12.2036 21.9148 12.2476C22.4748 12.5409 23.0268 12.8302 23.5495 13.1036L23.5068 13.136C23.365 12.48 23.2259 11.8369 23.0944 11.2294L23.0877 11.1991L23.1179 11.1942C23.8579 11.0782 24.5761 10.9658 25.2592 10.8587L25.2495 10.9098C24.6717 10.568 24.1148 10.2387 23.585 9.92536L23.5632 9.91247L23.5761 9.89025C23.921 9.29736 24.2486 8.73425 24.549 8.21736L24.5775 8.25025C23.9739 8.48492 23.4117 8.70358 22.9121 8.8978L22.8877 8.90714L22.885 8.88136C22.8081 8.07469 22.7419 7.37647 22.6886 6.81558L22.7126 6.82358C22.3135 7.23914 22.0028 7.56269 21.7904 7.78403C21.6864 7.89158 21.6064 7.97425 21.5512 8.03158C21.497 8.08758 21.4695 8.11425 21.4695 8.11425Z" fill="#6B708F"/>
<path d="M18.7374 13.2756C18.7374 13.4942 18.5601 13.6711 18.3418 13.6711C18.1236 13.6711 17.9463 13.4938 17.9463 13.2756C17.9463 13.0569 18.1236 12.88 18.3418 12.88C18.5601 12.88 18.7374 13.0569 18.7374 13.2756Z" fill="white"/>
<path d="M18.7369 13.2756C18.7316 13.2756 18.7311 13.2404 18.7134 13.1818C18.696 13.1244 18.6551 13.0409 18.568 12.9778C18.484 12.9142 18.3471 12.88 18.216 12.9298C18.0858 12.9756 17.9743 13.1142 17.9756 13.2756C17.9743 13.4369 18.0858 13.5756 18.216 13.6213C18.3471 13.6711 18.484 13.6369 18.568 13.5733C18.6551 13.5102 18.696 13.4271 18.7134 13.3693C18.7311 13.3107 18.7316 13.2756 18.7369 13.2756C18.7396 13.2751 18.7476 13.3111 18.736 13.3751C18.7245 13.4378 18.6871 13.532 18.5938 13.6071C18.5036 13.6822 18.3498 13.7276 18.1974 13.6733C18.0467 13.624 17.9143 13.464 17.916 13.276C17.9143 13.088 18.0467 12.928 18.1974 12.8787C18.3494 12.8244 18.5036 12.8698 18.5938 12.9449C18.6871 13.02 18.7245 13.1142 18.736 13.1769C18.7476 13.24 18.74 13.2756 18.7369 13.2756Z" fill="#6B708F"/>
<path d="M21.6659 8.96579L21.5859 10.2311C21.5793 10.3347 21.4966 10.4169 21.393 10.4231C21.2837 10.4298 21.1886 10.3493 21.1766 10.2409L21.0362 8.9689C21.0255 8.87246 21.1015 8.7889 21.1984 8.79024L21.5073 8.79468C21.5993 8.79602 21.6717 8.87379 21.6659 8.96579Z" fill="#6B708F"/>
<path d="M21.0578 11.1351C21.1116 11.2969 21.2863 11.3844 21.4481 11.3311C21.6098 11.2773 21.6978 11.1027 21.6441 10.9409C21.5903 10.7791 21.4156 10.6915 21.2538 10.7449C21.0916 10.7982 21.0041 10.9729 21.0578 11.1351Z" fill="#6B708F"/>
<path d="M34.6204 43.4578C35.0146 43.2831 35.4364 42.9787 35.3799 42.5885C35.3284 42.2338 34.9102 42.0285 34.5315 41.9138C34.0759 41.7756 33.6026 41.6831 33.1239 41.6396C33.0022 41.6285 32.8759 41.6196 32.7679 41.5676C32.6599 41.516 32.5746 41.408 32.5999 41.3005C32.6351 41.1525 32.8439 41.0916 32.919 40.956C32.9897 40.828 32.9159 40.6662 32.7915 40.5769C32.6671 40.4876 32.5053 40.4538 32.3484 40.4262C31.0991 40.2058 29.8039 40.196 28.5506 40.3982C28.3133 40.4365 28.0457 40.5036 27.9408 40.6978C27.8484 40.8685 27.9195 41.0702 27.9915 41.2489C27.6026 41.2831 27.2039 41.2196 26.8519 41.0685L25.4866 41.5605C25.7991 41.6809 26.0026 41.9947 25.9648 42.2969C25.9271 42.5991 25.6506 42.8649 25.3164 42.9205C25.1537 42.9476 24.9799 42.9298 24.8266 42.9853C24.6733 43.0409 24.5551 43.2205 24.6568 43.3373C24.7395 43.432 24.9039 43.4222 25.0177 43.4858C25.2093 43.5929 25.1755 43.8702 25.0151 44.012C24.8546 44.1538 24.6208 44.2009 24.4044 44.2569C24.1875 44.3129 23.9568 44.3982 23.8524 44.5773C23.7359 44.7773 23.8248 45.0351 24.0022 45.1956C24.1795 45.356 24.4262 45.4373 24.6693 45.4973C25.1911 45.6271 25.7359 45.6813 26.2768 45.6582C26.5013 45.6485 26.7364 45.6276 26.9413 45.7098C27.1462 45.792 27.2959 46.0245 27.1835 46.1982C27.0764 46.364 26.7973 46.3933 26.6999 46.5636C26.5782 46.776 26.8257 47.0071 27.0591 47.1231C28.0822 47.6307 29.3479 47.6267 30.4675 47.3236C30.6706 47.2685 30.8773 47.2009 31.0319 47.0707C31.1866 46.9405 31.2768 46.732 31.1999 46.5551C31.1471 46.4338 31.0231 46.336 31.0124 46.2062C31.0013 46.0711 31.1253 45.9516 31.2666 45.9031C31.4079 45.8547 31.5644 45.8609 31.7155 45.864C32.3684 45.876 33.023 45.812 33.6577 45.6733C34.0044 45.5978 34.3653 45.4885 34.5924 45.2418C34.8195 44.9956 34.8413 44.5742 34.5502 44.3893C34.4062 44.2978 34.2044 44.2707 34.1075 44.1382C34.0119 44.0076 34.0671 43.8249 34.1839 43.7089C34.2999 43.5929 34.4644 43.5271 34.6204 43.4578Z" fill="white"/>
<path d="M35.761 45.2111C36.0477 45.5031 36.2383 45.888 36.2979 46.2929C35.9206 46.2031 35.4326 45.9809 35.1721 45.6933C34.9117 45.4058 34.741 45.0378 34.6895 44.6533C35.0935 44.7209 35.4743 44.9191 35.761 45.2111Z" fill="#818594"/>
<path d="M35.8919 45.8427C35.8932 45.8418 35.8799 45.8222 35.8554 45.7876C35.831 45.7529 35.7937 45.7036 35.7465 45.644C35.6519 45.5244 35.5132 45.3658 35.3465 45.2031C35.1794 45.0409 35.0163 44.9071 34.8945 44.8156C34.8337 44.7698 34.7834 44.7342 34.7479 44.7107C34.7123 44.6871 34.6923 44.6747 34.6914 44.676C34.6905 44.6773 34.7088 44.692 34.7425 44.7178C34.7763 44.7436 34.8252 44.7809 34.8848 44.828C35.0039 44.9222 35.1648 45.0573 35.331 45.2187C35.4972 45.3804 35.6368 45.5369 35.7345 45.6533C35.7834 45.7116 35.8221 45.7591 35.8488 45.7924C35.875 45.8258 35.8905 45.8436 35.8919 45.8427Z" fill="#5C617C"/>
<path d="M34.1198 45.4164C34.2935 45.7289 34.3655 46.0973 34.3224 46.452C34.0251 46.2893 33.6655 45.9893 33.5122 45.6867C33.3593 45.384 33.3006 45.0347 33.346 44.6987C33.6704 44.8489 33.9455 45.104 34.1198 45.4164Z" fill="#818594"/>
<path d="M34.0841 45.9787C34.0854 45.9783 34.0787 45.9587 34.0663 45.9236C34.0538 45.8885 34.0338 45.8387 34.0076 45.7774C33.9556 45.6547 33.8752 45.4889 33.7725 45.3134C33.6694 45.1383 33.5627 44.9876 33.481 44.8823C33.4401 44.8298 33.4058 44.788 33.3814 44.76C33.357 44.732 33.3432 44.7169 33.3418 44.7178C33.341 44.7187 33.353 44.7356 33.3752 44.7649C33.3978 44.7943 33.4303 44.8374 33.4694 44.8907C33.5481 44.9974 33.6521 45.1489 33.7552 45.3231C33.8578 45.4978 33.9392 45.6623 33.9947 45.7827C34.0223 45.8431 34.0441 45.892 34.0587 45.9263C34.0738 45.9605 34.0827 45.9791 34.0841 45.9787Z" fill="#5C617C"/>
<path d="M34.704 44.2702C34.968 44.0289 35.1533 43.7027 35.2244 43.352C34.8906 43.412 34.4546 43.5822 34.2133 43.8209C33.9724 44.0595 33.8057 44.372 33.7422 44.7049C34.0982 44.6658 34.44 44.5111 34.704 44.2702Z" fill="#818594"/>
<path d="M34.8482 43.7253C34.8491 43.7262 34.8371 43.7427 34.8135 43.772C34.7904 43.8013 34.7557 43.8422 34.7113 43.892C34.6228 43.9915 34.4944 44.1235 34.3411 44.2573C34.1873 44.3906 34.0388 44.5 33.9282 44.5733C33.8726 44.6102 33.8273 44.6391 33.7948 44.6578C33.7628 44.6769 33.7446 44.6867 33.7442 44.6853C33.7433 44.684 33.7602 44.672 33.7908 44.6511C33.8215 44.6302 33.866 44.6 33.9202 44.5618C34.0286 44.4853 34.1753 44.3751 34.3282 44.2422C34.4811 44.1093 34.6104 43.9791 34.7011 43.8822C34.7464 43.8338 34.7828 43.7942 34.8077 43.7662C34.8331 43.7395 34.8473 43.7244 34.8482 43.7253Z" fill="#5C617C"/>
<path d="M36.1812 43.9671C36.3692 43.6724 36.4612 43.3178 36.4398 42.9689C36.1403 43.1102 35.7714 43.3813 35.6047 43.6675C35.4376 43.9538 35.3598 44.2911 35.3843 44.6213C35.7096 44.4942 35.9932 44.2613 36.1812 43.9671Z" fill="#818594"/>
<path d="M36.1796 43.4165C36.1809 43.4169 36.1733 43.4356 36.1587 43.4689C36.1445 43.5022 36.1218 43.5498 36.0929 43.608C36.0347 43.7245 35.9467 43.8818 35.836 44.0467C35.7249 44.2116 35.612 44.352 35.5262 44.4498C35.4831 44.4987 35.4476 44.5373 35.4218 44.5631C35.3965 44.5889 35.3818 44.6031 35.3809 44.6022C35.38 44.6013 35.3925 44.5858 35.4165 44.5582C35.4405 44.5307 35.4742 44.4911 35.516 44.4409C35.5991 44.3413 35.7098 44.2 35.82 44.036C35.9302 43.872 36.0196 43.7165 36.0809 43.6018C36.1116 43.5445 36.1356 43.4978 36.152 43.4653C36.1685 43.4338 36.1782 43.416 36.1796 43.4165Z" fill="#5C617C"/>
<path d="M30.3604 44.1538C30.3604 44.1533 30.3661 44.1547 30.3764 44.1573C30.3884 44.1604 30.4035 44.1649 30.4226 44.1702C30.4648 44.1827 30.5239 44.2004 30.5995 44.2227C30.6381 44.2342 30.6804 44.2471 30.727 44.2613C30.7741 44.2738 30.8252 44.2875 30.8804 44.3022C30.9906 44.3311 31.115 44.3671 31.255 44.3973C31.3248 44.4133 31.3977 44.4302 31.4737 44.448C31.5501 44.4649 31.6301 44.4791 31.7124 44.4955C31.8772 44.5307 32.055 44.556 32.2417 44.5862C32.6164 44.6387 33.0306 44.6804 33.467 44.6964C33.9035 44.7093 34.3199 44.6951 34.6968 44.6649C34.8848 44.6449 35.0644 44.6302 35.2306 44.6031C35.3137 44.5907 35.3946 44.5804 35.4715 44.5675C35.5484 44.5533 35.6217 44.5395 35.6924 44.5262C35.8337 44.5027 35.959 44.4702 36.0701 44.4453C36.1252 44.4324 36.1768 44.4204 36.2244 44.4093C36.271 44.3964 36.3141 44.3844 36.3528 44.3738C36.4288 44.3533 36.4884 44.3369 36.5306 44.3253C36.5497 44.3204 36.5652 44.3164 36.5772 44.3133C36.5879 44.3107 36.5932 44.3098 36.5932 44.3102C36.5932 44.3107 36.5884 44.3124 36.5781 44.316C36.5666 44.3195 36.5515 44.3244 36.5324 44.3307C36.4901 44.3431 36.431 44.3613 36.3555 44.384C36.3168 44.3955 36.2741 44.408 36.2275 44.4218C36.1799 44.4333 36.1284 44.4462 36.0732 44.46C35.9626 44.4867 35.8372 44.52 35.6959 44.5449C35.6257 44.5587 35.5519 44.5729 35.475 44.588C35.3981 44.6018 35.3172 44.6124 35.2337 44.6253C35.0675 44.6533 34.8875 44.6689 34.699 44.6898C34.3212 44.7209 33.9039 44.7364 33.4661 44.7235C33.0288 44.7075 32.6132 44.6649 32.2381 44.6111C32.051 44.5804 31.8728 44.5538 31.7079 44.5178C31.6252 44.5009 31.5452 44.4862 31.4688 44.4684C31.3928 44.4502 31.3199 44.4329 31.2501 44.416C31.1101 44.3844 30.9857 44.3475 30.8759 44.3173C30.8212 44.3018 30.7701 44.2875 30.723 44.2742C30.6768 44.2595 30.6341 44.2458 30.5959 44.2333C30.5212 44.2089 30.4621 44.1898 30.4204 44.176C30.4017 44.1698 30.3866 44.1644 30.375 44.1604C30.3652 44.1564 30.3604 44.1542 30.3604 44.1538Z" fill="#5C617C"/>
<path d="M38.345 43.1182C38.461 43.1124 38.5952 43.1271 38.6623 43.2222C38.7241 43.3102 38.6996 43.4373 38.6343 43.5227C38.569 43.608 38.4712 43.6618 38.3765 43.7129C38.6054 43.6364 38.8636 43.6507 39.0827 43.7516C39.1561 43.7853 39.2347 43.8467 39.2254 43.9267C39.2187 43.9831 39.1698 44.024 39.1232 44.0573C38.9396 44.1884 38.7378 44.2938 38.5254 44.3702C38.6258 44.416 38.7303 44.4644 38.7992 44.5507C38.8676 44.6373 38.8872 44.7733 38.8121 44.8542C38.7707 44.8987 38.7098 44.9182 38.6512 44.9338C38.2761 45.0342 37.8765 45.0409 37.4983 44.9529C37.2974 44.9062 37.0943 44.828 36.9574 44.6733C36.8205 44.5191 36.6912 44.2942 36.8085 44.1249L36.7836 44.1769C37.0583 43.5756 37.6845 43.1507 38.345 43.1182Z" fill="#5C617C"/>
<path d="M36.7666 44.2911C36.7666 44.2915 36.7728 44.2906 36.7848 44.288C36.7982 44.2849 36.8155 44.2809 36.8364 44.2764C36.8586 44.2711 36.8857 44.2644 36.9177 44.2586C36.9497 44.2524 36.9857 44.244 37.0262 44.2377C37.0666 44.2306 37.1106 44.2231 37.1586 44.2177C37.2062 44.2106 37.2573 44.2066 37.311 44.2017C37.4186 44.1942 37.5377 44.1906 37.6622 44.1955C37.7866 44.2013 37.9048 44.2155 38.0115 44.2333C38.0644 44.2435 38.115 44.252 38.1617 44.264C38.2088 44.2742 38.2519 44.2862 38.291 44.2973C38.3306 44.3075 38.3657 44.32 38.3968 44.3293C38.4279 44.3386 38.4542 44.348 38.4759 44.356C38.4964 44.3631 38.5128 44.3689 38.5257 44.3733C38.5373 44.3773 38.5435 44.3791 38.5435 44.3782C38.5435 44.3777 38.5382 44.3751 38.527 44.3702C38.5142 44.3649 38.4982 44.3582 38.4782 44.3497C38.4568 44.3409 38.431 44.3306 38.3999 44.3204C38.3693 44.3097 38.3342 44.2969 38.2946 44.2857C38.2555 44.2737 38.2119 44.2613 38.1648 44.2506C38.1182 44.2382 38.0675 44.2289 38.0142 44.2186C37.907 44.2 37.7884 44.1853 37.663 44.1795C37.5377 44.1742 37.4182 44.1782 37.3097 44.1871C37.2555 44.1924 37.2044 44.1969 37.1564 44.2049C37.1084 44.2111 37.0644 44.2191 37.0239 44.2266C36.9835 44.2333 36.9475 44.2426 36.9155 44.2497C36.8835 44.2569 36.8564 44.264 36.8346 44.2702C36.8137 44.276 36.7973 44.2809 36.7839 44.2849C36.7724 44.2884 36.7666 44.2906 36.7666 44.2911Z" fill="#5C617C"/>
<path d="M37.582 44.192C37.5825 44.1929 37.5949 44.1875 37.6176 44.1773C37.6398 44.1671 37.6718 44.1511 37.7114 44.1311C37.79 44.0911 37.8967 44.0324 38.0123 43.9631C38.1274 43.8938 38.2292 43.8262 38.3012 43.7755C38.3372 43.7502 38.366 43.7293 38.3856 43.7146C38.4052 43.7 38.4158 43.6911 38.4154 43.6902C38.4149 43.6893 38.4029 43.6964 38.382 43.7098C38.3585 43.7249 38.3296 43.744 38.2945 43.7666C38.2207 43.8146 38.1185 43.8804 38.0034 43.9498C37.8883 44.0191 37.7825 44.0786 37.7056 44.1213C37.6692 44.1413 37.6389 44.1586 37.6145 44.172C37.5932 44.184 37.5816 44.1911 37.582 44.192Z" fill="#5C617C"/>
<g opacity="0.3">
<path d="M38.525 44.3702C38.525 44.3702 38.0917 44.0227 37.6299 44.1862C37.6299 44.1862 38.1526 44.1973 38.525 44.3702Z" fill="#040000"/>
</g>
<path d="M29.0469 43.9124L29.1051 44.0155L29.6793 44.1435L29.3433 45.0973L29.5282 45.2391L30.3509 45.2071L30.0042 45.644L30.1895 45.7458L30.8362 45.6151L30.9353 45.3L30.2895 44.6933C30.2895 44.6933 29.9127 43.8062 29.8975 43.7995C29.882 43.7929 29.4055 43.7622 29.4055 43.7622L29.0469 43.9124Z" fill="#EC6E5C"/>
<path d="M29.0469 43.9124L29.1051 44.0155L29.6793 44.1435L29.3433 45.0973L29.5282 45.2391L30.3509 45.2071L30.0042 45.644L30.1895 45.7458L30.8362 45.6151L30.9353 45.3L30.2895 44.6933C30.2895 44.6933 29.9127 43.8062 29.8975 43.7995C29.882 43.7929 29.4055 43.7622 29.4055 43.7622L29.0469 43.9124Z" fill="#2D3243"/>
<path d="M29.0463 43.5933L30.1628 41.9302C30.1628 41.9302 32.557 42.7373 32.5095 45.5756L30.641 45.8947L30.7779 45.4845L30.0032 45.644L30.2766 45.0516L29.3423 45.0973L29.7068 43.9125H29.0459V43.5933H29.0463Z" fill="#D6DAED"/>
<path d="M26.5021 43.3338L26.4097 42.9506L25.9937 42.5471L26.6132 42.0751V41.8533L26.1288 41.3347H26.539H26.691V41.0253L26.9834 41.0018L26.3088 40.5982L25.6901 41.1493L25.375 41.4644C25.375 41.4644 25.9034 42.0493 25.9034 42.0831C25.9034 42.1169 25.727 42.4049 25.731 42.4409C25.735 42.4769 25.5777 42.6906 25.5777 42.6906L25.6114 42.8929L26.5021 43.3338Z" fill="#EC6E5C"/>
<path d="M26.5021 43.3338L26.4097 42.9506L25.9937 42.5471L26.6132 42.0751V41.8533L26.1288 41.3347H26.539H26.691V41.0253L26.9834 41.0018L26.3088 40.5982L25.6901 41.1493L25.375 41.4644C25.375 41.4644 25.9034 42.0493 25.9034 42.0831C25.9034 42.1169 25.727 42.4049 25.731 42.4409C25.735 42.4769 25.5777 42.6906 25.5777 42.6906L25.6114 42.8929L26.5021 43.3338Z" fill="#2D3243"/>
<path d="M20.6909 39.8547C20.6909 39.8547 21.3126 38.0973 23.0184 38.0715C23.538 38.064 24.0371 38.2742 24.4184 38.6275L26.9829 41.0022L26.5015 40.8542L26.5384 41.3355H25.8722L26.6126 42.076L25.8353 42.668L26.5015 43.3342C26.5015 43.3342 25.2957 43.2951 24.2437 43.3342C23.1455 43.3747 21.9117 43.7782 21.1344 43.0382C20.358 42.2973 20.2122 41.0227 20.6909 39.8547Z" fill="#D6DAED"/>
<path d="M25.0844 39.2431C25.0875 39.2467 25.0418 39.292 24.96 39.3747C24.8786 39.4578 24.7635 39.5804 24.6324 39.7409C24.3693 40.0604 24.0555 40.5476 23.8355 41.1418C23.6102 41.7338 23.5338 42.3089 23.5182 42.7222C23.5106 42.9293 23.5146 43.0978 23.5204 43.2138C23.5258 43.3298 23.5298 43.3942 23.5253 43.3947C23.5231 43.3951 23.52 43.3791 23.5151 43.3489C23.5106 43.3187 23.5031 43.2738 23.4978 43.2156C23.4849 43.0996 23.4746 42.9302 23.4769 42.7213C23.4818 42.3044 23.5524 41.7209 23.7804 41.1213C24.0026 40.5209 24.3262 40.0298 24.6004 39.7147C24.7369 39.556 24.8573 39.4369 24.944 39.3582C24.9866 39.3182 25.0222 39.2902 25.0458 39.2702C25.0698 39.2511 25.0831 39.2418 25.0844 39.2431Z" fill="#5C617C"/>
<path d="M25.9775 42.3862C25.986 42.4 25.9518 42.4355 25.902 42.4658C25.8518 42.496 25.8042 42.5089 25.7962 42.4951C25.7878 42.4813 25.822 42.4458 25.8718 42.4155C25.9215 42.3853 25.9691 42.372 25.9775 42.3862Z" fill="white"/>
<path opacity="0.3" d="M30.2553 42.1058C30.2553 42.1058 29.7726 44.2173 32.4153 45.4844C32.4153 45.4844 32.4273 43.264 30.2553 42.1058Z" fill="#040000"/>
<path d="M32.4154 45.4093C32.4136 45.4093 32.4109 45.3809 32.4043 45.3271C32.3976 45.2733 32.3861 45.1942 32.3669 45.0929C32.3278 44.8911 32.2558 44.6004 32.1216 44.2569C32.0545 44.0853 31.9745 43.8995 31.8745 43.7071C31.7754 43.5151 31.6549 43.3173 31.4998 43.1298C31.1909 42.7569 30.7665 42.4067 30.2616 42.1635L30.3021 42.1422C30.2989 42.1631 30.2954 42.1858 30.2918 42.2084C30.2465 42.4884 30.2652 42.7698 30.3247 43.0307C30.3834 43.292 30.4812 43.5347 30.5941 43.7542C30.8216 44.1933 31.0905 44.5569 31.3612 44.8147C31.6314 45.0742 31.8954 45.2311 32.0825 45.3244C32.1763 45.3715 32.2509 45.4044 32.3021 45.4258C32.3532 45.4471 32.3794 45.4595 32.3789 45.4613C32.3785 45.4631 32.3505 45.4547 32.2981 45.4364C32.2456 45.4187 32.1687 45.3889 32.0732 45.3444C31.8816 45.2569 31.6109 45.1035 31.3332 44.8444C31.0545 44.5867 30.7794 44.2218 30.5465 43.7787C30.4309 43.5569 30.3296 43.3107 30.2692 43.0431C30.2078 42.7769 30.1883 42.4871 30.2345 42.1995C30.2381 42.1764 30.2416 42.1529 30.2447 42.1315L30.2505 42.0933L30.2852 42.1102C30.8029 42.3595 31.2283 42.7142 31.5416 43.096C31.6981 43.2875 31.8194 43.4902 31.9176 43.6858C32.0163 43.8809 32.0949 44.0689 32.1598 44.2427C32.2901 44.5907 32.3567 44.8849 32.3892 45.0893C32.4052 45.1915 32.4132 45.272 32.4163 45.3262C32.4185 45.3809 32.4172 45.4093 32.4154 45.4093Z" fill="#5C617C"/>
<path d="M31.6894 45.4866C31.6872 45.4902 31.6405 45.4649 31.557 45.4164C31.5148 45.3929 31.4645 45.3622 31.4094 45.3213C31.3539 45.2813 31.2881 45.2386 31.2232 45.1813C31.1561 45.1266 31.0837 45.0658 31.0121 44.9933C30.9365 44.9249 30.8659 44.8422 30.7894 44.7569C30.6432 44.5809 30.4974 44.3746 30.3712 44.1422C30.2481 43.908 30.1579 43.672 30.093 43.4524C30.0645 43.3413 30.0352 43.2369 30.0205 43.136C30.0001 43.0364 29.9899 42.9422 29.9819 42.856C29.9703 42.7702 29.9717 42.692 29.9694 42.6231C29.9659 42.5546 29.9685 42.4955 29.9725 42.4475C29.9788 42.3511 29.9837 42.2982 29.9877 42.2986C30.0001 42.2991 29.9828 42.5124 30.0232 42.8515C30.0339 42.9364 30.0463 43.0289 30.0685 43.1266C30.0854 43.2258 30.1161 43.3284 30.1454 43.4373C30.2121 43.6524 30.3023 43.884 30.4237 44.1146C30.5477 44.3435 30.6894 44.5475 30.8312 44.7226C30.9054 44.8075 30.9739 44.8902 31.0463 44.9591C31.1152 45.0324 31.1854 45.0938 31.2499 45.1498C31.5094 45.372 31.6961 45.476 31.6894 45.4866Z" fill="#5C617C"/>
<path d="M29.6242 42.8822C29.6384 42.8885 29.5726 43.0654 29.4437 43.2578C29.3153 43.4507 29.1771 43.5791 29.166 43.5685C29.1535 43.5569 29.27 43.4138 29.3948 43.2254C29.5211 43.0374 29.6091 42.8751 29.6242 42.8822Z" fill="white"/>
<path d="M29.5155 44.8422C29.5004 44.8369 29.5226 44.7373 29.5648 44.6209C29.6075 44.504 29.6541 44.4142 29.6693 44.4195C29.6844 44.4249 29.6621 44.524 29.6195 44.6409C29.5777 44.7573 29.5306 44.8475 29.5155 44.8422Z" fill="white"/>
<path d="M30.2349 45.4325C30.2215 45.4236 30.2269 45.3916 30.2473 45.3609C30.2677 45.3302 30.2953 45.3129 30.3086 45.3218C30.322 45.3307 30.3166 45.3627 30.2962 45.3933C30.2757 45.4236 30.2482 45.4413 30.2349 45.4325Z" fill="white"/>
<path d="M30.5057 43.8182C30.5003 43.8222 30.4363 43.7511 30.3577 43.6187C30.2786 43.4867 30.1892 43.2907 30.1341 43.0613C30.0799 42.8316 30.071 42.6165 30.0826 42.4627C30.0937 42.3089 30.1181 42.2165 30.1248 42.2178C30.1443 42.2187 30.0812 42.5978 30.1915 43.0476C30.2955 43.4987 30.5226 43.8089 30.5057 43.8182Z" fill="white"/>
<path d="M27.5648 44.168V44.5062C27.5648 44.5062 27.148 45.5253 27.1271 45.532C27.1062 45.5391 26.4173 45.3986 26.4173 45.3986L26.3906 45.2017L27.5648 44.168Z" fill="#EC6E5C"/>
<path d="M27.5648 44.168V44.5062C27.5648 44.5062 27.148 45.5253 27.1271 45.532C27.1062 45.5391 26.4173 45.3986 26.4173 45.3986L26.3906 45.2017L27.5648 44.168Z" fill="#2D3243"/>
<path d="M27.0875 43.7289C27.023 43.7804 26.2617 44.2324 26.2746 44.2711C26.2875 44.3098 26.3906 45.2018 26.3906 45.2018C26.3906 45.2018 27.0617 45.4067 27.0875 45.3551C27.1132 45.3035 27.5648 44.1675 27.5648 44.1675L27.0875 43.7289Z" fill="#D6DAED"/>
<path d="M26.9834 42.384V42.8324L27.0767 43.2035L28.6941 43.28L28.7301 43.1515L26.9834 42.384Z" fill="#EC6E5C"/>
<path d="M26.9834 42.384V42.8324L27.0767 43.2035L28.6941 43.28L28.7301 43.1515L26.9834 42.384Z" fill="#2D3243"/>
<path d="M26.9834 42.384L27.0723 42.9289L28.7301 43.1516L28.007 42.1058L26.9834 42.384Z" fill="#D6DAED"/>
<path d="M28.334 41.5609L28.3655 41.7196L28.9993 42.1058L29.7242 42.0795L29.9989 41.5995L29.0815 41.4591L28.334 41.5609Z" fill="#EC6E5C"/>
<path d="M28.334 41.5609L28.3655 41.7196L28.9993 42.1058L29.7242 42.0795L29.9989 41.5995L29.0815 41.4591L28.334 41.5609Z" fill="#2D3243"/>
<path d="M29.3535 40.9147L28.334 41.5609L28.9406 41.9351H29.6762L29.9989 41.5996L29.3535 40.9147Z" fill="#D6DAED"/>
<path d="M33.6496 42.8436C33.9185 42.8885 34.1718 43.0205 34.3625 43.2151C34.1243 43.3147 33.7749 43.3862 33.522 43.3338C33.2691 43.2809 33.0425 43.1618 32.8643 42.9751C33.1078 42.8525 33.3811 42.7987 33.6496 42.8436Z" fill="#818594"/>
<path d="M33.9678 43.1316C33.9683 43.1307 33.9536 43.1253 33.9265 43.116C33.8998 43.1067 33.8603 43.0951 33.8114 43.0813C33.7136 43.0542 33.5767 43.0231 33.4234 43.0009C33.27 42.9791 33.1296 42.9711 33.0283 42.9698C32.9776 42.9689 32.9367 42.9698 32.9083 42.9707C32.8798 42.972 32.8643 42.9729 32.8643 42.9738C32.8643 42.9747 32.8798 42.9756 32.9083 42.976C32.9367 42.9765 32.9776 42.9778 33.0278 42.9796C33.1287 42.9836 33.2683 42.9933 33.4211 43.0151C33.5736 43.0369 33.7105 43.0667 33.8087 43.0907C33.8576 43.1027 33.8976 43.1133 33.9247 43.1205C33.9523 43.1293 33.9674 43.1329 33.9678 43.1316Z" fill="#5C617C"/>
<path d="M34.3826 41.9102C34.6514 41.9551 34.9048 42.0871 35.0954 42.2818C34.8572 42.3813 34.5079 42.4529 34.255 42.4004C34.0021 42.3476 33.7666 42.2169 33.5879 42.0302C33.8314 41.908 34.1137 41.8653 34.3826 41.9102Z" fill="#818594"/>
<path d="M34.7002 42.1986C34.7007 42.1978 34.686 42.1924 34.6589 42.1831C34.6322 42.1738 34.5927 42.1622 34.5438 42.1484C34.446 42.1213 34.3091 42.0902 34.1558 42.068C34.0025 42.0462 33.862 42.0382 33.7607 42.0369C33.71 42.036 33.6691 42.0369 33.6407 42.0378C33.6122 42.0391 33.5967 42.04 33.5967 42.0409C33.5967 42.0418 33.6122 42.0426 33.6407 42.0431C33.6691 42.0435 33.71 42.0449 33.7602 42.0466C33.8611 42.0506 34.0007 42.0604 34.1536 42.0822C34.306 42.104 34.4429 42.1338 34.5411 42.1578C34.59 42.1698 34.63 42.1804 34.6571 42.1875C34.6847 42.196 34.6998 42.1995 34.7002 42.1986Z" fill="#5C617C"/>
<path d="M33.9905 40.9471C33.9323 40.6809 33.7883 40.4342 33.5843 40.2534C33.4963 40.496 33.442 40.8489 33.5074 41.0987C33.5723 41.3485 33.7149 41.5778 33.91 41.7467C34.0198 41.4978 34.0487 41.2134 33.9905 40.9471Z" fill="#818594"/>
<path d="M33.6866 40.644C33.6875 40.6435 33.6938 40.6582 33.704 40.6844C33.7146 40.7107 33.7284 40.7493 33.744 40.7978C33.776 40.8942 33.8138 41.0293 33.8431 41.1813C33.8724 41.3333 33.8875 41.4729 33.8938 41.5742C33.8969 41.6249 33.8986 41.6658 33.8986 41.6942C33.8991 41.7227 33.8986 41.7382 33.8973 41.7382C33.8964 41.7382 33.8946 41.7227 33.8929 41.6942C33.8911 41.6658 33.888 41.6253 33.8835 41.5747C33.8746 41.4738 33.8582 41.3351 33.8289 41.1835C33.7995 41.032 33.7635 40.8973 33.7342 40.8004C33.7195 40.752 33.7075 40.7129 33.6986 40.6862C33.6898 40.6595 33.6858 40.6444 33.6866 40.644Z" fill="#5C617C"/>
<path d="M33.2063 41.808C33.1481 41.5418 33.0041 41.2951 32.8001 41.1143C32.7121 41.3569 32.6579 41.7094 32.7232 41.9596C32.7881 42.2094 32.9307 42.4387 33.1259 42.6076C33.2356 42.3587 33.2641 42.0743 33.2063 41.808Z" fill="#818594"/>
<path d="M32.9025 41.5049C32.9033 41.5044 32.9096 41.5191 32.9198 41.5453C32.9305 41.5716 32.9442 41.6102 32.9598 41.6587C32.9918 41.7551 33.0296 41.8902 33.0589 42.0422C33.0882 42.1942 33.1033 42.3338 33.1096 42.4351C33.1127 42.4858 33.1145 42.5267 33.1145 42.5551C33.1149 42.5836 33.1145 42.5991 33.1131 42.5991C33.1122 42.5991 33.1105 42.5836 33.1087 42.5551C33.1069 42.5267 33.1038 42.4862 33.0993 42.4356C33.0905 42.3347 33.074 42.196 33.0447 42.0444C33.0153 41.8929 32.9793 41.7582 32.95 41.6613C32.9353 41.6129 32.9233 41.5738 32.9145 41.5471C32.906 41.5204 32.9016 41.5053 32.9025 41.5049Z" fill="#5C617C"/>
<path d="M32.5372 43.7192C32.5367 43.7187 32.5398 43.708 32.5469 43.6872C32.5549 43.6649 32.5652 43.6347 32.5785 43.5969C32.5856 43.5774 32.5931 43.5556 32.6016 43.532C32.6105 43.5085 32.6216 43.4832 32.6327 43.456C32.6558 43.4018 32.6798 43.3387 32.7131 43.2725C32.7291 43.2387 32.746 43.2036 32.7634 43.1672C32.7811 43.1307 32.802 43.0938 32.822 43.0552C32.8616 42.9774 32.9109 42.8978 32.9611 42.8134C33.066 42.6472 33.1905 42.4703 33.3358 42.2956C33.4825 42.1223 33.6349 41.9685 33.7803 41.8365C33.8545 41.772 33.9243 41.7098 33.994 41.6574C34.0287 41.6307 34.0611 41.6036 34.094 41.58C34.1269 41.5565 34.1589 41.5338 34.1892 41.5125C34.2487 41.468 34.3065 41.4334 34.3558 41.4014C34.3807 41.3854 34.4038 41.3703 34.4252 41.3574C34.4469 41.3449 34.4669 41.3334 34.4851 41.3232C34.5203 41.3036 34.5478 41.288 34.5683 41.2765C34.5874 41.2658 34.5976 41.2609 34.598 41.2614C34.5985 41.2618 34.5887 41.2685 34.5705 41.28C34.5505 41.2925 34.5234 41.3089 34.4892 41.3303C34.4714 41.3409 34.4514 41.3529 34.43 41.3658C34.4087 41.3792 34.386 41.3947 34.3616 41.4112C34.3127 41.444 34.2558 41.4796 34.1967 41.5245C34.1669 41.5463 34.1354 41.5694 34.1029 41.5929C34.0705 41.6169 34.0385 41.644 34.0043 41.6712C33.9349 41.724 33.866 41.7867 33.7923 41.8512C33.6478 41.9836 33.4967 42.1369 33.3505 42.3094C33.206 42.4832 33.0816 42.6592 32.9763 42.824C32.9256 42.908 32.8763 42.9867 32.8363 43.064C32.8158 43.1023 32.7945 43.1387 32.7767 43.1752C32.7589 43.2116 32.742 43.2463 32.7256 43.2796C32.6918 43.3454 32.6669 43.4076 32.6429 43.4614C32.6314 43.4885 32.6198 43.5134 32.6105 43.5365C32.6016 43.56 32.5931 43.5814 32.5856 43.6009C32.5709 43.6383 32.5594 43.668 32.5505 43.6898C32.542 43.7089 32.5376 43.7196 32.5372 43.7192Z" fill="#5C617C"/>
<path d="M34.8046 40.8587C35.0414 40.7241 35.321 40.6663 35.5917 40.6969C35.4699 40.9245 35.2441 41.2009 35.0148 41.3196C34.7855 41.4383 34.5197 41.4858 34.2637 41.4534C34.3757 41.2049 34.5677 40.9938 34.8046 40.8587Z" fill="#818594"/>
<path d="M35.2335 40.8822C35.233 40.8814 35.2184 40.8862 35.1917 40.8965C35.165 40.9062 35.1273 40.9218 35.0806 40.9422C34.9877 40.9831 34.8619 41.0449 34.729 41.1249C34.5961 41.2049 34.4824 41.2871 34.4028 41.3502C34.3633 41.3818 34.3317 41.408 34.3104 41.4267C34.289 41.4454 34.2775 41.456 34.2784 41.4569C34.2793 41.4578 34.2917 41.4485 34.3139 41.4311C34.3361 41.4138 34.3686 41.3885 34.409 41.3582C34.4899 41.2974 34.6041 41.2169 34.7361 41.1374C34.8681 41.0578 34.993 40.9947 35.0846 40.9516C35.1304 40.9302 35.1677 40.9129 35.1935 40.9018C35.2197 40.8898 35.2339 40.8831 35.2335 40.8822Z" fill="#5C617C"/>
<path d="M36.2812 40.8418C36.3585 40.7933 36.4563 40.7516 36.5385 40.7911C36.615 40.828 36.6465 40.924 36.6345 41.008C36.6225 41.0916 36.5759 41.1658 36.5305 41.2374C36.6585 41.0969 36.8408 41.008 37.0297 40.9929C37.0928 40.988 37.1705 40.9996 37.1945 41.0582C37.2119 41.0996 37.1937 41.1467 37.1745 41.1871C37.099 41.3476 37.0012 41.4974 36.8848 41.6311C36.9714 41.624 37.0617 41.6169 37.1417 41.6498C37.2221 41.6827 37.2874 41.7689 37.267 41.8529C37.2554 41.8991 37.2217 41.936 37.1874 41.9689C36.9688 42.1818 36.6972 42.3396 36.4043 42.4245C36.2488 42.4698 36.0794 42.4938 35.9261 42.4405C35.7732 42.3871 35.5977 42.2827 35.6137 42.1213L35.6168 42.1667C35.5741 41.6493 35.8403 41.1178 36.2812 40.8418Z" fill="#5C617C"/>
<path d="M35.6484 42.252C35.6489 42.2524 35.6524 42.2493 35.6595 42.2431C35.6675 42.236 35.6778 42.2267 35.6902 42.2151C35.7035 42.2027 35.7196 42.188 35.7391 42.1715C35.7587 42.1551 35.78 42.1355 35.8053 42.1155C35.8302 42.0951 35.8578 42.0733 35.8884 42.0511C35.9182 42.028 35.952 42.0058 35.9871 41.9813C36.0582 41.9347 36.1382 41.8867 36.2258 41.8422C36.3133 41.7987 36.4 41.7627 36.48 41.7342C36.5204 41.7209 36.5582 41.7075 36.5947 41.6973C36.6307 41.6862 36.6649 41.6778 36.696 41.6702C36.7271 41.6618 36.7556 41.6569 36.7809 41.6515C36.8058 41.6462 36.8276 41.6427 36.8453 41.6395C36.8622 41.6364 36.8756 41.6342 36.8862 41.6324C36.8956 41.6307 36.9004 41.6293 36.9004 41.6293C36.9004 41.6289 36.8955 41.6293 36.8858 41.6302C36.8751 41.6315 36.8613 41.6329 36.8444 41.6351C36.8267 41.6373 36.8044 41.64 36.7795 41.6449C36.7542 41.6498 36.7253 41.6538 36.6942 41.6618C36.6627 41.6689 36.6284 41.6769 36.592 41.6875C36.5551 41.6969 36.5169 41.7102 36.476 41.7235C36.3955 41.752 36.3084 41.7875 36.22 41.8315C36.132 41.876 36.0516 41.9249 35.9809 41.972C35.9458 41.9964 35.9124 42.0191 35.8827 42.0427C35.852 42.0653 35.8249 42.088 35.8004 42.1084C35.7751 42.1284 35.7542 42.1489 35.7351 42.1658C35.716 42.1827 35.7 42.1982 35.6875 42.2111C35.6755 42.2231 35.6658 42.2329 35.6582 42.2404C35.6516 42.248 35.6484 42.252 35.6484 42.252Z" fill="#5C617C"/>
<path d="M36.1699 41.8712C36.1708 41.8716 36.1771 41.8632 36.1886 41.8476C36.2002 41.832 36.2157 41.8089 36.2348 41.78C36.2731 41.7223 36.3242 41.6414 36.3766 41.5494C36.4291 41.4574 36.4726 41.3725 36.5028 41.3098C36.5179 41.2787 36.5295 41.2534 36.5375 41.2356C36.5455 41.2178 36.5491 41.208 36.5486 41.2076C36.5477 41.2072 36.5424 41.2165 36.5335 41.2334C36.5233 41.2529 36.5104 41.2769 36.4953 41.3058C36.4633 41.3672 36.4184 41.4516 36.3659 41.5432C36.3135 41.6347 36.2637 41.7165 36.2273 41.7752C36.2099 41.8027 36.1957 41.8263 36.1842 41.8449C36.1744 41.8614 36.1695 41.8707 36.1699 41.8712Z" fill="#5C617C"/>
<g opacity="0.3">
<path d="M36.8856 41.6311C36.8856 41.6311 36.4549 41.5591 36.2012 41.8485C36.2012 41.8485 36.5638 41.656 36.8856 41.6311Z" fill="#040000"/>
</g>
<path d="M15.9601 9.77243C16.1481 9.45643 16.0481 9.02265 15.789 8.76132C15.5299 8.49999 15.1468 8.39243 14.7792 8.39332C14.4112 8.39376 14.0512 8.4911 13.6961 8.5871C13.4428 8.23732 12.985 8.04843 12.5583 8.11732C12.1321 8.18621 11.757 8.50976 11.6263 8.92132C11.3783 8.8151 11.073 8.85776 10.8632 9.02799C10.6534 9.19821 10.5486 9.48799 10.6014 9.75287L12.1379 10.5787L13.4241 13.9804C13.8739 14.5049 14.7246 14.6258 15.3028 14.2475C15.881 13.8693 16.1108 13.0413 15.8103 12.4191C15.9246 12.3471 16.0232 12.2542 16.1081 12.1498C16.417 12.02 16.6797 11.7831 16.8032 11.4702C17.0654 10.808 16.6463 9.96399 15.9601 9.77243Z" fill="#392925"/>
<path d="M13.8636 16.116C13.8423 15.5915 13.8267 15.2324 13.8271 15.2364C13.8271 15.2364 14.8445 15.0133 14.988 13.664C15.0596 12.9929 14.9698 11.9031 14.868 11.0142C14.776 10.2138 14.1934 9.25597 13.3978 9.38175L10.932 10.1418C10.6903 10.18 10.616 10.3898 10.6334 10.6338L10.6191 10.7493L10.9325 14.5764L10.9098 16.2098C10.9667 16.9373 11.7098 17.5746 12.4396 17.5835C13.2463 17.592 13.896 16.9226 13.8636 16.116Z" fill="#FAD2C3"/>
<path d="M14.5734 12.1973C14.5814 12.288 14.5112 12.3689 14.417 12.3791C14.3227 12.3889 14.2401 12.324 14.2321 12.2333C14.2241 12.1427 14.2943 12.0613 14.3885 12.0516C14.4827 12.0418 14.5654 12.1071 14.5734 12.1973Z" fill="#392925"/>
<path d="M14.6244 11.7284C14.6044 11.752 14.4692 11.6622 14.2844 11.6724C14.0999 11.6796 13.9692 11.7818 13.9479 11.76C13.9377 11.7507 13.9572 11.7089 14.0141 11.6631C14.0701 11.6173 14.167 11.5707 14.2821 11.5653C14.3972 11.56 14.4964 11.5973 14.5541 11.6378C14.6128 11.6782 14.6341 11.7178 14.6244 11.7284Z" fill="#392925"/>
<path d="M12.9035 12.2738C12.9115 12.3644 12.8413 12.4453 12.747 12.4555C12.6528 12.4653 12.5701 12.4004 12.5621 12.3098C12.5541 12.2191 12.6244 12.1378 12.7186 12.128C12.8128 12.1182 12.8959 12.1835 12.9035 12.2738Z" fill="#392925"/>
<path d="M12.8588 11.7836C12.8388 11.8071 12.7032 11.7173 12.5188 11.7276C12.3343 11.7347 12.2032 11.8369 12.1823 11.8151C12.1721 11.8058 12.1912 11.764 12.2485 11.7182C12.3045 11.6724 12.4014 11.6258 12.5165 11.6204C12.6316 11.6151 12.7308 11.6524 12.7885 11.6929C12.8472 11.7333 12.8685 11.7729 12.8588 11.7836Z" fill="#392925"/>
<path d="M13.5867 13.0568C13.5854 13.0462 13.6992 13.0208 13.8841 12.9875C13.9312 12.9804 13.9752 12.9684 13.9814 12.936C13.9907 12.9013 13.9685 12.8515 13.9427 12.7977C13.8925 12.6857 13.8401 12.5688 13.785 12.4457C13.565 11.9444 13.4032 11.5311 13.4236 11.5222C13.4441 11.5133 13.6387 11.9128 13.8587 12.4142C13.9116 12.5377 13.9627 12.656 14.0107 12.7688C14.0312 12.8217 14.065 12.8808 14.0445 12.9528C14.0338 12.9888 14.0005 13.016 13.9703 13.0257C13.9405 13.0364 13.9138 13.0382 13.8907 13.0408C13.7041 13.0604 13.5881 13.0675 13.5867 13.0568Z" fill="#392925"/>
<path d="M13.8271 15.2364C13.8271 15.2364 12.9298 15.3409 12.0098 14.8502C12.0098 14.8502 12.5107 15.7716 13.8435 15.5778L13.8271 15.2364Z" fill="#E3956B"/>
<path d="M12.8338 11.0289C12.8138 11.0786 12.6302 11.0484 12.4124 11.0671C12.1942 11.0813 12.0173 11.1391 11.9898 11.0929C11.9778 11.0706 12.0098 11.0244 12.0822 10.9782C12.1542 10.932 12.2675 10.8897 12.3982 10.8795C12.5289 10.8697 12.6475 10.8946 12.7253 10.9293C12.8035 10.9644 12.8427 11.0053 12.8338 11.0289Z" fill="#392925"/>
<path d="M14.6021 11.0502C14.5657 11.0942 14.4133 11.0582 14.2319 11.0658C14.0506 11.0675 13.899 11.1111 13.8617 11.0689C13.8453 11.0484 13.867 11.0053 13.9319 10.9618C13.9959 10.9187 14.1048 10.8809 14.2293 10.8778C14.3537 10.8747 14.4635 10.9071 14.5288 10.9471C14.5946 10.9867 14.6181 11.0289 14.6021 11.0502Z" fill="#392925"/>
<path d="M11.6302 9.36751C11.6422 9.63551 11.7791 9.89551 11.9928 10.0573C12.2066 10.2191 12.4937 10.28 12.7551 10.2191C12.9577 10.1715 13.1768 10.0573 13.3591 10.1577C13.5511 10.2631 13.5724 10.5435 13.7444 10.6786C13.9906 10.872 14.3564 10.6613 14.6604 10.7355C14.8951 10.7928 15.0506 11.0066 15.2133 11.1853C15.3759 11.364 15.6151 11.5293 15.8431 11.4493C15.8182 11.2422 15.7924 11.0324 15.7208 10.8364C15.6493 10.6404 15.5257 10.456 15.3457 10.3506C15.2471 10.2928 15.1337 10.2604 15.0413 10.1928C14.8417 10.0471 14.7839 9.77951 14.6546 9.56885C14.4879 9.29729 14.1831 9.11596 13.8648 9.09907C13.5999 9.08529 13.3328 9.17729 13.0728 9.12529C12.8808 9.08662 12.7088 8.97196 12.5151 8.94485C12.1373 8.89196 11.8022 9.17773 11.5439 9.45862" fill="#392925"/>
<path d="M12.8541 9.84172C12.6839 9.80216 12.335 9.71016 12.2381 9.56883C12.027 9.26216 11.6719 9.0635 11.3208 9.09994C10.9697 9.13638 10.6452 9.43105 10.5914 9.80661C10.1657 9.83061 9.763 10.1186 9.57811 10.5315C9.39322 10.9444 9.43411 11.4653 9.68033 11.8422C9.74478 11.9408 9.83278 12.1591 9.83278 12.1591C9.83278 12.1591 9.64789 12.3279 9.56789 12.4502C9.19767 13.0155 9.90745 13.3657 9.90745 13.3657C9.84522 13.7751 10.2226 13.8324 10.4648 13.8688C10.6977 13.9039 10.7394 14.5715 10.9319 14.5759L11.0528 12.5537C11.0746 12.5666 11.1021 12.5773 11.1386 12.5835C11.5932 12.6631 11.6092 11.7817 11.4968 11.5355C11.6523 11.3831 11.8097 11.2284 11.9248 11.0386C12.0399 10.8488 12.1248 10.3431 12.087 10.1191C12.2497 10.1208 12.9292 9.85905 12.8541 9.84172Z" fill="#392925"/>
<path d="M11.1041 12.6702C11.0761 12.3862 10.7566 12.2111 10.5166 12.3662C10.385 12.4511 10.289 12.6138 10.3161 12.9155C10.389 13.7204 11.1819 13.4813 11.181 13.4578C11.181 13.4431 11.1375 13.0026 11.1041 12.6702Z" fill="#FAD2C3"/>
<path d="M10.9077 13.1751C10.9037 13.1729 10.8944 13.1862 10.8717 13.1991C10.8495 13.2115 10.8104 13.2227 10.7673 13.2107C10.6793 13.1871 10.5957 13.0587 10.5788 12.9138C10.5699 12.8409 10.5793 12.7698 10.5997 12.7093C10.6188 12.6484 10.6535 12.6035 10.6953 12.592C10.737 12.5782 10.7695 12.6013 10.7815 12.6231C10.7944 12.6444 10.7908 12.6613 10.7948 12.6622C10.797 12.664 10.8108 12.6471 10.8015 12.6147C10.7966 12.5991 10.7855 12.5809 10.765 12.5671C10.7442 12.5533 10.7153 12.5475 10.6855 12.5538C10.6237 12.5635 10.573 12.6258 10.5504 12.6915C10.5242 12.7582 10.5122 12.8382 10.5219 12.9204C10.5419 13.0822 10.6384 13.2262 10.7579 13.2493C10.8157 13.2591 10.8615 13.2378 10.8842 13.2164C10.9077 13.1947 10.9104 13.1764 10.9077 13.1751Z" fill="#C8A399"/>
<path d="M9.95605 10.9822C9.95516 10.9831 9.94316 10.9738 9.92138 10.9547C9.90049 10.9347 9.86894 10.9053 9.83383 10.8631C9.76405 10.7791 9.66805 10.6427 9.62805 10.4453C9.60894 10.3475 9.6076 10.2347 9.63738 10.12C9.66671 10.0062 9.72716 9.88888 9.82583 9.79732C9.92271 9.70488 10.0645 9.64665 10.2116 9.65332C10.3569 9.65688 10.5125 9.72132 10.6045 9.85243L10.5667 9.8711C10.5658 9.86843 10.5649 9.86532 10.564 9.86221C10.4725 9.57243 10.4814 9.25865 10.6089 9.02176C10.7329 8.78399 10.9592 8.63954 11.1614 8.6231C11.3654 8.60532 11.5223 8.68843 11.604 8.76132C11.6467 8.79776 11.6716 8.83421 11.688 8.85821C11.7027 8.88354 11.7094 8.89732 11.708 8.89821C11.7036 8.90132 11.6778 8.8431 11.5929 8.77421C11.5107 8.70754 11.3574 8.63243 11.164 8.65332C10.9729 8.67288 10.76 8.81243 10.6432 9.04043C10.5232 9.2671 10.5152 9.56843 10.604 9.85021C10.6049 9.85332 10.6058 9.85599 10.6067 9.85865L10.644 9.98443L10.5689 9.87732C10.4867 9.75999 10.3445 9.69954 10.2094 9.69554C10.0725 9.68888 9.94316 9.74132 9.8516 9.82665C9.75871 9.9111 9.70005 10.0218 9.67071 10.1298C9.64094 10.2387 9.64049 10.3458 9.65694 10.4404C9.6916 10.6311 9.78138 10.7675 9.84627 10.8533C9.91294 10.9391 9.95871 10.9795 9.95605 10.9822Z" fill="#392925"/>
<path d="M13.5677 13.5009C13.5415 13.4449 13.4686 13.3809 13.373 13.4022C13.2855 13.3982 13.2446 13.4724 13.2299 13.5262C13.2166 13.5755 13.2295 13.6324 13.2566 13.672C13.2837 13.7115 13.3232 13.7355 13.3637 13.7475C13.4161 13.7631 13.4686 13.7507 13.5179 13.7191C13.5646 13.6893 13.5948 13.5587 13.5677 13.5009Z" fill="#E3956B"/>
<path d="M11.293 43.9756L11.7076 47.5529L13.2752 47.3142L13.3805 43.7885L11.293 43.9756Z" fill="#FAD2C3"/>
<path d="M13.2807 46.6053C13.2807 46.6053 12.2287 47.4978 11.6424 46.8422L11.526 47.1911L11.0655 49.6485C11.0358 49.8076 11.1193 49.9738 11.2704 50.0213C11.3864 50.0578 11.5095 50.0227 11.5887 49.9329C12.0135 49.4529 13.5678 47.68 13.5358 47.4587L13.4878 46.868C13.4771 46.7449 13.3953 46.6409 13.2807 46.6053Z" fill="#737797"/>
<g opacity="0.6">
<path d="M11.3252 50.0329L13.5212 47.2524L13.5296 47.3818C13.5514 47.5209 13.4954 47.5809 13.4372 47.6755C13.2634 47.9564 12.7728 48.5924 11.5968 49.932C11.5288 50.0098 11.4261 50.048 11.3252 50.0329Z" fill="white"/>
</g>
<g opacity="0.6">
<path d="M13.146 46.8947C13.0749 46.9529 13.058 47.0703 13.1117 47.1454C13.1655 47.2205 13.282 47.2383 13.354 47.1814C13.426 47.1245 13.4504 46.984 13.3886 46.916C13.3269 46.8476 13.1891 46.8343 13.1326 46.9076" fill="white"/>
</g>
<path d="M12.2773 48.0978C12.2644 48.1134 12.1079 47.9707 11.8679 47.8965C11.6293 47.8183 11.4208 47.844 11.4191 47.8236C11.4133 47.8076 11.6315 47.7489 11.8875 47.8325C12.1448 47.9129 12.2911 48.088 12.2773 48.0978Z" fill="#505572"/>
<path d="M12.2785 47.3605C12.2718 47.3791 12.1025 47.3209 11.8878 47.3289C11.6732 47.3338 11.507 47.4018 11.4994 47.3836C11.4901 47.3693 11.6554 47.2676 11.8865 47.2618C12.1167 47.2542 12.287 47.3458 12.2785 47.3605Z" fill="#505572"/>
<path d="M11.7656 47.332C11.7616 47.3316 11.7599 47.2903 11.7745 47.2165C11.7892 47.1436 11.8221 47.0378 11.8972 46.9254C11.9354 46.8725 11.9768 46.8036 12.0643 46.7729C12.1079 46.7574 12.1683 46.772 12.199 46.816C12.2296 46.8591 12.235 46.9103 12.2305 46.9587C12.2061 47.1511 12.0239 47.3196 11.8088 47.3236C11.5936 47.3236 11.4145 47.1778 11.3488 47.0018C11.335 46.9565 11.3283 46.9023 11.3568 46.8534C11.3852 46.804 11.4479 46.7903 11.4892 46.8023C11.5759 46.8258 11.6256 46.884 11.6732 46.928C11.7661 47.0236 11.8194 47.1191 11.8496 47.1867C11.8799 47.2547 11.8874 47.2956 11.8834 47.2969C11.8723 47.3036 11.8252 47.1391 11.6412 46.9623C11.5945 46.9209 11.5412 46.8694 11.4781 46.8565C11.4474 46.8498 11.4194 46.8596 11.4056 46.8836C11.3914 46.9067 11.3936 46.9458 11.4056 46.9814C11.4616 47.1258 11.6256 47.2587 11.8074 47.2556C11.9883 47.2543 12.1488 47.1058 12.1696 46.9511C12.1741 46.9138 12.1688 46.8751 12.1514 46.8507C12.1345 46.8267 12.1061 46.8174 12.0776 46.8258C12.0172 46.8431 11.9714 46.9027 11.9341 46.952C11.7848 47.1623 11.7785 47.3365 11.7656 47.332Z" fill="#505572"/>
<path d="M17.5036 46.7943C17.4676 46.7392 17.1387 45.5418 17.1387 45.5418L19.168 44.9894L19.4556 46.7147L17.5036 46.7943Z" fill="#FAD2C3"/>
<path d="M19.4384 46.3756L19.4406 46.5134C19.4406 46.5134 21.674 47.4236 21.7028 47.8662L17.2891 47.8982L17.3388 46.3542C17.9971 46.6689 18.6842 46.7 19.4384 46.3756Z" fill="#737797"/>
<g opacity="0.6">
<path d="M17.7893 46.8445C17.704 46.8698 17.6458 46.9711 17.6662 47.0613C17.6867 47.152 17.784 47.2151 17.8698 47.1916C17.9555 47.168 18.0289 47.0485 17.9991 46.9609C17.9693 46.8733 17.8507 46.8058 17.7729 46.8502" fill="white"/>
</g>
<g opacity="0.6">
<path d="M17.2891 47.8982L17.3011 47.5267L21.5273 47.632C21.5273 47.632 21.7242 47.7205 21.7033 47.8662L17.2891 47.8982Z" fill="white"/>
</g>
<path d="M19.4563 46.5263C19.4559 46.5489 19.3479 46.56 19.2425 46.6334C19.135 46.704 19.0812 46.8027 19.0612 46.7938C19.0412 46.7894 19.0727 46.6538 19.2016 46.5671C19.3301 46.4791 19.4607 46.5054 19.4563 46.5263Z" fill="#505572"/>
<path d="M19.9206 46.724C19.9255 46.7458 19.8326 46.7854 19.7601 46.8814C19.685 46.9756 19.6672 47.0792 19.6455 47.0783C19.625 47.0818 19.6095 46.9494 19.7019 46.8316C19.7935 46.7129 19.9201 46.7023 19.9206 46.724Z" fill="#505572"/>
<path d="M20.1876 47.3045C20.168 47.3094 20.1373 47.1965 20.192 47.0721C20.2458 46.9472 20.3471 46.8974 20.3564 46.9165C20.3689 46.9352 20.3036 47.0023 20.2604 47.1049C20.2142 47.2063 20.2089 47.3018 20.1876 47.3045Z" fill="#505572"/>
<path d="M16.4264 25.7645C16.522 25.8271 17.2496 30.1827 18.1962 35.9734C18.9749 40.736 19.4291 45.5578 19.4291 45.5578L17.2447 45.984C17.2447 45.984 15.1882 40.0809 14.1002 35.8347C13.0967 31.9191 12.6064 29.1774 12.6064 29.1774V26.3111L16.4264 25.7645Z" fill="#505572"/>
<path d="M9.80156 24.1618C9.80156 24.1618 7.79001 26.8809 7.95934 29.7191C8.06067 31.4169 11.2927 45.892 11.2927 45.892H13.6989L12.9131 29.9471L13.1433 26.2338L9.80156 24.1618Z" fill="#505572"/>
<path d="M16.2233 16.5804C16.2233 16.5804 16.9104 16.692 17.2713 17.6698C17.6469 18.6876 18.0744 21.0773 18.0744 21.0773L15.4727 21.3204L15.5544 17.4124L16.2233 16.5804Z" fill="#B1B5DB"/>
<path d="M8.97856 16.5391C8.97856 16.5391 7.87545 16.8333 7.72478 18.6289C7.64167 19.6196 7.6599 21.3205 7.6599 21.3205C7.6599 21.3205 8.00212 21.4391 8.94967 21.0582C9.71501 20.7507 10.463 21.0693 10.463 21.0693L9.2119 17.3351L8.97856 16.5391Z" fill="#B1B5DB"/>
<path d="M10.8847 15.4609L10.4136 16.004L8.84826 16.5804L9.18826 23.2147L8.21582 27.2075C8.21582 27.2075 9.1656 27.3911 9.54204 27.8933C9.91849 28.3955 11.0372 28.9662 12.4292 29.0573C13.8216 29.1484 15.0083 28.2813 15.5558 28.0075C16.1034 27.7338 16.9878 27.508 17.0976 27.2075C17.1696 27.0102 16.3318 21.1373 16.3318 21.1373L16.2229 16.58L14.7994 16.2511L14.2443 15.7884L12.21 17.4871L11.7514 16.9173L10.8847 15.4609Z" fill="#B1B5DB"/>
<path opacity="0.3" d="M10.4639 16.1431L10.9528 18.2471L11.2474 17.8347L10.4639 16.1431Z" fill="#040000"/>
<path d="M12.0074 17.3097C12.0096 17.3111 11.9976 17.3351 11.9718 17.3768C11.946 17.4191 11.906 17.4786 11.8531 17.5528C11.7496 17.7017 11.586 17.9022 11.4207 18.1515L11.3967 18.1875L11.3767 18.1493C11.282 17.968 11.1816 17.7657 11.0789 17.5515C10.8767 17.1288 10.7056 16.7413 10.5838 16.4595C10.5234 16.3186 10.4754 16.204 10.4434 16.1244C10.4114 16.0448 10.3954 16 10.3989 15.9986C10.4025 15.9973 10.4251 16.0391 10.4629 16.116C10.5047 16.2035 10.5571 16.3133 10.6194 16.444C10.7545 16.732 10.9323 17.1102 11.1283 17.5284C11.2305 17.7417 11.3296 17.9444 11.4211 18.1266L11.3776 18.1244C11.5496 17.8724 11.7176 17.6782 11.8278 17.5346C11.9416 17.3928 12.0025 17.3066 12.0074 17.3097Z" fill="#5C617C"/>
<path d="M13.8224 21.248C13.8224 21.2466 13.8366 21.2435 13.865 21.2387C13.897 21.2333 13.9384 21.2267 13.9904 21.2182C14.1006 21.2018 14.2624 21.1791 14.4695 21.1547C14.8837 21.1062 15.4801 21.052 16.2032 21.0355L16.2237 21.0351L16.2259 21.0555C16.277 21.4947 16.3339 21.98 16.3944 22.4991C16.4246 22.7591 16.4552 23.0271 16.4872 23.3022C16.5032 23.44 16.5192 23.5791 16.5352 23.72C16.5432 23.7902 16.5512 23.8613 16.5597 23.9324C16.5659 24.0031 16.5828 24.0747 16.5699 24.1551C16.5619 24.2075 16.5299 24.2604 16.4846 24.2893C16.4397 24.3195 16.389 24.332 16.341 24.3395C16.2437 24.3524 16.153 24.3538 16.0601 24.3613C15.8757 24.3733 15.6935 24.3853 15.5148 24.3969C15.3361 24.4084 15.1606 24.42 14.9886 24.4311C14.8179 24.44 14.6459 24.4631 14.4775 24.4253C14.3068 24.392 14.1677 24.2622 14.1064 24.1142C14.0392 23.9671 14.0179 23.8129 13.9988 23.668C13.9628 23.3769 13.9357 23.1053 13.9148 22.8573C13.8726 22.3609 13.8512 21.9582 13.8375 21.6804C13.8317 21.5444 13.8272 21.4373 13.8237 21.36C13.8228 21.3262 13.8224 21.2987 13.8215 21.2764C13.821 21.2578 13.8215 21.248 13.8224 21.248C13.8232 21.248 13.8246 21.2573 13.8268 21.276C13.8286 21.2978 13.8312 21.3253 13.8344 21.3591C13.8401 21.4364 13.8481 21.5431 13.8584 21.6786C13.8788 21.9564 13.9059 22.3582 13.953 22.8533C13.9766 23.1009 14.0059 23.372 14.0437 23.6618C14.0637 23.8053 14.0864 23.956 14.1499 24.0938C14.2095 24.2329 14.3317 24.3449 14.4886 24.376C14.6441 24.4102 14.813 24.3884 14.985 24.3787C15.157 24.3671 15.3326 24.3551 15.5112 24.3431C15.6899 24.3311 15.8717 24.3191 16.0566 24.3067C16.1481 24.2995 16.2441 24.2969 16.3326 24.2853C16.421 24.2742 16.505 24.2311 16.5161 24.1449C16.5272 24.0818 16.5126 24.0093 16.5055 23.9382C16.4975 23.8671 16.4895 23.7964 16.4815 23.7258C16.4655 23.5849 16.4495 23.4458 16.4339 23.308C16.4028 23.0329 16.3726 22.7644 16.3432 22.5044C16.285 21.9849 16.2308 21.4991 16.1819 21.06L16.205 21.08C15.4832 21.0915 14.8877 21.1391 14.473 21.18C14.269 21.2018 14.1077 21.2191 13.993 21.2311C13.9406 21.2369 13.8988 21.2413 13.8668 21.2449C13.8375 21.2484 13.8228 21.2493 13.8224 21.248Z" fill="#5C617C"/>
<path d="M16.3106 21.864C16.3115 21.8791 15.7693 21.924 15.1 21.964C14.4302 22.004 13.8866 22.0244 13.8857 22.0093C13.8849 21.9942 14.4271 21.9493 15.0969 21.9093C15.7662 21.8689 16.3097 21.8489 16.3106 21.864Z" fill="#5C617C"/>
<path d="M12.9679 29.064C12.9671 29.064 12.9662 29.0542 12.9653 29.0351C12.9644 29.0129 12.9635 28.9853 12.9622 28.9507C12.9608 28.8724 12.9586 28.7635 12.9564 28.6258C12.9524 28.3395 12.9471 27.9324 12.9404 27.4311C12.9266 26.4187 12.9071 25.0271 12.8857 23.4902C12.8675 21.9507 12.8644 20.5569 12.8759 19.548C12.8817 19.0435 12.8888 18.6355 12.8973 18.3533C12.9017 18.2155 12.9053 18.1071 12.9079 18.0284C12.9097 17.9938 12.9111 17.9662 12.9119 17.944C12.9133 17.9249 12.9142 17.9151 12.9151 17.9151C12.9159 17.9151 12.9168 17.9249 12.9173 17.944C12.9177 17.9662 12.9182 17.9938 12.9186 18.0284C12.9186 18.1067 12.9186 18.2155 12.9186 18.3533C12.9177 18.6395 12.9164 19.0467 12.9146 19.5475C12.9128 20.556 12.9222 21.9498 12.9404 23.4889C12.9586 25.0275 12.9755 26.4213 12.9786 27.4302C12.9804 27.9347 12.9799 28.3427 12.9773 28.6249C12.9755 28.7627 12.9742 28.8711 12.9728 28.9498C12.9719 28.9844 12.9711 29.012 12.9702 29.0342C12.9697 29.0542 12.9688 29.064 12.9679 29.064Z" fill="#5C617C"/>
<path d="M9.86803 25.8711C9.88314 25.872 9.87336 26.3164 9.84625 26.8644C9.81914 27.4124 9.78491 27.8555 9.7698 27.8551C9.75469 27.8542 9.76447 27.4098 9.79158 26.8618C9.81869 26.3142 9.85291 25.8706 9.86803 25.8711Z" fill="#5C617C"/>
<path d="M9.5581 26.3249C9.57277 26.3289 9.53454 26.5222 9.47232 26.7573C9.4101 26.9924 9.34788 27.1795 9.33321 27.1755C9.31854 27.1715 9.35677 26.9782 9.41899 26.7431C9.48121 26.5084 9.54343 26.3213 9.5581 26.3249Z" fill="#5C617C"/>
<path d="M15.5473 27.2866C15.5406 27.2893 15.4953 27.1902 15.4371 27.0244C15.3788 26.8586 15.3095 26.6253 15.2553 26.3626C15.2011 26.0995 15.1722 25.8582 15.1606 25.6831C15.1486 25.508 15.1513 25.3991 15.1584 25.3986C15.1664 25.3982 15.1775 25.5062 15.1993 25.6791C15.2211 25.8524 15.2557 26.0906 15.3091 26.3515C15.3628 26.612 15.4255 26.8448 15.474 27.0124C15.5224 27.1804 15.5548 27.284 15.5473 27.2866Z" fill="#5C617C"/>
<path d="M14.7355 16.3782C14.7382 16.3809 14.7071 16.4182 14.648 16.4835C14.5809 16.556 14.496 16.6475 14.3946 16.7564C14.1791 16.9853 13.8786 17.2982 13.5444 17.6422C13.3773 17.8129 13.2177 17.976 13.0715 18.1253C13.0342 18.1618 13.0022 18.1991 12.9604 18.2333C12.9395 18.2498 12.9142 18.2644 12.8849 18.2693C12.8555 18.2742 12.8249 18.2671 12.8018 18.2529C12.7551 18.2235 12.7311 18.1813 12.708 18.1449C12.6858 18.1084 12.6644 18.0733 12.6435 18.0395C12.5671 17.912 12.5026 17.8053 12.452 17.7204C12.408 17.6444 12.3849 17.6013 12.388 17.5995C12.3911 17.5973 12.4204 17.6364 12.4698 17.7089C12.5244 17.7911 12.5938 17.8951 12.676 18.0186C12.6978 18.052 12.72 18.0862 12.7435 18.1218C12.7662 18.1569 12.7911 18.1938 12.8244 18.2129C12.8573 18.2329 12.8955 18.224 12.9302 18.1946C12.9644 18.1662 12.9986 18.1258 13.0351 18.0893C13.1804 17.9391 13.3386 17.7751 13.5049 17.6031C13.8391 17.2595 14.144 16.9506 14.3666 16.7289C14.4729 16.6249 14.5618 16.5373 14.6324 16.4684C14.6964 16.408 14.7329 16.3755 14.7355 16.3782Z" fill="#5C617C"/>
<g opacity="0.3">
<path d="M16.4982 23.4151C15.46 21.4418 14.3693 19.496 13.2284 17.5809L12.8115 18.3471C13.3009 19.2044 13.3182 20.2418 13.572 21.1955C13.8422 22.2111 14.3942 23.1498 15.1506 23.8791C15.3773 24.0978 15.6413 24.3062 15.9546 24.3413C16.2675 24.376 16.6253 24.164 16.6373 23.8493C16.6431 23.6955 16.5697 23.5511 16.4982 23.4151Z" fill="#040000"/>
</g>
<g opacity="0.3">
<path d="M10.0088 23.1045L9.03809 24.0916C9.1692 24.4445 9.57097 24.6507 9.94609 24.6227C10.3212 24.5947 10.6603 24.368 10.8985 24.0765C11.1368 23.7849 11.2861 23.4325 11.4168 23.0796C11.8501 21.9049 12.1025 20.6676 12.2199 19.4209C11.4825 20.6489 10.7456 21.8765 10.0088 23.1045Z" fill="#040000"/>
</g>
<path d="M9.6499 19.3818C9.64413 19.3867 9.55879 19.2982 9.4259 19.1502C9.29302 19.0027 9.11213 18.7964 8.9059 18.5756C8.69924 18.3551 8.50324 18.164 8.35213 18.0373C8.2019 17.9089 8.09879 17.8422 8.10368 17.8347C8.10546 17.8315 8.13346 17.8453 8.1819 17.8729C8.2299 17.9013 8.2979 17.9458 8.37657 18.0071C8.53613 18.128 8.73835 18.3164 8.94635 18.5382C9.1539 18.7604 9.33035 18.9711 9.45568 19.1253C9.58057 19.2796 9.65568 19.3769 9.6499 19.3818Z" fill="#5C617C"/>
<path d="M16.7411 17.0116C16.7473 17.0178 16.6637 17.1049 16.5388 17.2529C16.4135 17.4005 16.2495 17.6125 16.0935 17.8631C15.9379 18.1142 15.8206 18.3551 15.7437 18.5329C15.6664 18.7107 15.6255 18.824 15.6171 18.8213C15.6108 18.8196 15.6388 18.7018 15.7077 18.5187C15.7762 18.3356 15.8891 18.0889 16.0468 17.8347C16.2046 17.5809 16.3762 17.3702 16.5099 17.2276C16.6433 17.084 16.7366 17.0067 16.7411 17.0116Z" fill="#5C617C"/>
<path d="M12.3578 14.3978C12.3578 14.3978 12.2107 15.7667 12.2862 15.904C12.3622 16.0418 13.0987 16.8787 13.0987 16.8787L14.2071 16.8378L14.9053 14.9183L14.7489 14.1072C14.7489 14.1072 14.5965 14.0805 14.5556 14.2827L14.4298 13.7032C14.4298 13.7032 14.1378 13.5738 14.1427 13.8334C14.1476 14.0929 14.1582 14.3632 14.1582 14.3632L13.9862 15.0792L14.0605 14.0858L13.8689 13.4872C13.8689 13.4872 13.6271 13.3992 13.592 13.7365C13.5565 14.0734 13.5791 14.3649 13.5791 14.3649L13.416 14.9716L13.44 13.8618C13.44 13.8618 13.3711 13.4858 13.1805 13.5907C12.9898 13.6956 12.828 15.3587 12.828 15.3587L12.7227 15.5685L12.7627 15.0867C12.7627 15.0854 12.7818 14.1645 12.3578 14.3978Z" fill="#FAD2C3"/>
<path d="M12.3582 14.3978C12.3578 14.3974 12.3645 14.3934 12.3791 14.3854C12.3938 14.3774 12.4165 14.3667 12.4485 14.36C12.4796 14.3529 12.524 14.3516 12.5676 14.376C12.6116 14.3991 12.648 14.4454 12.676 14.5018C12.7311 14.616 12.7596 14.7703 12.7716 14.9503C12.7742 14.9956 12.7765 15.0418 12.7756 15.0916C12.772 15.14 12.768 15.1898 12.764 15.2409C12.756 15.344 12.7476 15.4534 12.7382 15.5689L12.7098 15.5609C12.7418 15.496 12.7774 15.4245 12.8142 15.3507L12.8125 15.3565C12.8427 15.0503 12.8818 14.7076 12.9418 14.3334C12.9734 14.1467 13.0058 13.9516 13.068 13.7534C13.0854 13.704 13.1014 13.6543 13.1347 13.6063C13.1716 13.5525 13.2431 13.536 13.3022 13.564C13.36 13.5929 13.3876 13.6471 13.412 13.6969C13.4356 13.7485 13.4516 13.8014 13.4631 13.8574L13.4636 13.8596V13.8623C13.4565 14.2138 13.4489 14.5849 13.4414 14.972L13.3925 14.9649C13.4431 14.7751 13.4987 14.5685 13.5547 14.3583L13.5538 14.3667C13.5431 14.1956 13.544 14.02 13.5569 13.8409C13.5654 13.7534 13.5662 13.6569 13.6129 13.5676C13.6356 13.5236 13.6751 13.4831 13.7249 13.4649C13.7751 13.4458 13.8271 13.4471 13.8787 13.4627L13.8907 13.4663L13.8951 13.4796C13.9556 13.668 14.0209 13.872 14.0871 14.0783L14.0889 14.0831L14.0885 14.0885C14.0649 14.4049 14.04 14.7409 14.0142 15.0818L13.96 15.0734C13.9934 14.9351 14.0289 14.7863 14.0649 14.6369C14.0876 14.5436 14.1098 14.4503 14.132 14.3574L14.1311 14.3649C14.1276 14.2374 14.1236 14.1103 14.12 13.9836C14.1196 13.9187 14.1129 13.8614 14.1178 13.7911C14.1218 13.7569 14.1334 13.7191 14.1609 13.6907C14.1885 13.6618 14.2267 13.648 14.2622 13.6454C14.3356 13.6387 14.4067 13.6774 14.4467 13.7347C14.4676 13.7623 14.48 13.7991 14.4858 13.8298L14.5054 13.92C14.5311 14.04 14.5569 14.1591 14.5827 14.2774L14.5298 14.2778C14.5396 14.2276 14.5605 14.1756 14.5991 14.1351C14.6396 14.0951 14.6951 14.0743 14.7542 14.0814L14.7725 14.0836L14.776 14.1027C14.8294 14.3791 14.8809 14.6498 14.932 14.9138L14.9334 14.9209L14.9307 14.9276C14.6791 15.6156 14.444 16.2591 14.2298 16.8458L14.2245 16.86L14.2094 16.8605C13.8125 16.8743 13.4436 16.8867 13.1009 16.8987L13.0911 16.8991L13.0849 16.892C12.8031 16.5671 12.5485 16.2738 12.3382 16.0036C12.3138 15.9685 12.284 15.9378 12.2689 15.8947C12.2609 15.872 12.2591 15.8511 12.2574 15.8307C12.2547 15.8098 12.2534 15.7898 12.2534 15.7698C12.2502 15.6898 12.2529 15.6134 12.2556 15.54C12.2618 15.3938 12.2711 15.26 12.2809 15.1405C12.3 14.9009 12.32 14.7151 12.3338 14.5894C12.3409 14.5285 12.3467 14.4809 12.3511 14.4463C12.3547 14.4143 12.3574 14.3969 12.3582 14.3978C12.3591 14.3987 12.3587 14.4143 12.356 14.4467C12.3534 14.4814 12.3494 14.5294 12.3445 14.5903C12.3342 14.7165 12.3178 14.9023 12.3022 15.1418C12.2942 15.2618 12.2867 15.3951 12.2818 15.5409C12.28 15.6138 12.2778 15.6903 12.2818 15.7685C12.2822 15.788 12.2836 15.808 12.2862 15.8271C12.288 15.8471 12.2902 15.8667 12.2965 15.8831C12.308 15.9178 12.3382 15.9503 12.3627 15.984C12.5738 16.2507 12.8311 16.5427 13.1142 16.8654L13.0987 16.8587C13.4409 16.8454 13.8102 16.8307 14.2067 16.8147L14.1862 16.8298C14.3991 16.2423 14.632 15.5978 14.8814 14.9094L14.8805 14.9231C14.8294 14.6591 14.7769 14.3885 14.7231 14.112L14.7449 14.1334C14.7085 14.1289 14.6649 14.1436 14.6374 14.1725C14.6094 14.2023 14.5911 14.2436 14.5827 14.288L14.5578 14.4165L14.5298 14.288C14.504 14.1698 14.4782 14.0507 14.452 13.9307L14.4325 13.8405C14.4262 13.8107 14.4187 13.7876 14.4022 13.7654C14.3716 13.7218 14.3187 13.6938 14.2667 13.6987C14.2116 13.7018 14.1769 13.7396 14.172 13.7969C14.168 13.852 14.1742 13.92 14.1747 13.9814C14.1782 14.1076 14.1822 14.2343 14.1858 14.3618V14.3658L14.1849 14.3694C14.1627 14.4623 14.1405 14.5551 14.1178 14.6489C14.0818 14.7983 14.0462 14.9471 14.0129 15.0854L13.9587 15.0769C13.9845 14.736 14.0098 14.4 14.0334 14.0836L14.0347 14.0938C13.9689 13.8876 13.904 13.6836 13.8436 13.4951L13.86 13.512C13.7831 13.4867 13.6938 13.5165 13.6587 13.5925C13.6196 13.6654 13.6165 13.7565 13.6085 13.8445C13.5956 14.0209 13.5942 14.1956 13.604 14.3627L13.6045 14.3671L13.6036 14.3711C13.5467 14.5814 13.4907 14.7876 13.4396 14.9774L13.3858 15.1751L13.3907 14.9703C13.4 14.5831 13.4085 14.212 13.4169 13.8605L13.4174 13.8649C13.4067 13.8138 13.3916 13.7618 13.3702 13.7147C13.3489 13.6689 13.3214 13.6218 13.2818 13.6031C13.2627 13.5911 13.2414 13.5938 13.2205 13.5965C13.2102 13.6014 13.1991 13.6049 13.1898 13.6098C13.1827 13.6151 13.1751 13.6214 13.1689 13.6316C13.1418 13.6694 13.1245 13.7191 13.108 13.7658C13.0467 13.9583 13.0129 14.1538 12.9805 14.3391C12.9187 14.7111 12.8774 15.0538 12.8445 15.3587L12.844 15.3618L12.8427 15.3645C12.8054 15.4383 12.7689 15.5094 12.7365 15.5738L12.7014 15.6436L12.708 15.5658C12.7182 15.4507 12.728 15.3418 12.7369 15.2387C12.7414 15.1876 12.7458 15.1378 12.7502 15.0894C12.752 15.0423 12.7502 14.9951 12.748 14.9507C12.7387 14.7725 12.7129 14.6191 12.6614 14.5076C12.6356 14.4525 12.6018 14.408 12.5614 14.3854C12.5218 14.3618 12.4805 14.3614 12.4498 14.3667C12.3876 14.3805 12.3605 14.4 12.3582 14.3978Z" fill="#C8A399"/>
<path d="M14.4423 15.3729C14.4289 15.3685 14.4889 15.1516 14.5787 14.8761L14.5774 14.8863C14.5761 14.8654 14.5747 14.8432 14.5734 14.8209C14.5547 14.5009 14.5521 14.2409 14.5672 14.2401C14.5823 14.2392 14.6098 14.4978 14.6285 14.8174C14.6298 14.8396 14.6312 14.8618 14.6321 14.8827L14.6325 14.8881L14.6307 14.8929C14.5374 15.1681 14.4556 15.3774 14.4423 15.3729Z" fill="#C8A399"/>
<path d="M8.2207 21.296C8.2207 21.296 8.34915 22.8342 8.97893 23.2275C9.6087 23.6209 10.4558 23.8693 11.1865 22.048C11.5314 21.1884 13.2736 16.6529 13.2736 16.6529L11.786 16.0791L8.90248 20.7369L8.2207 21.296Z" fill="#FAD2C3"/>
<path d="M13.8431 15.9751L17.1102 20.6315C17.1102 20.6315 18.1116 22.7547 16.7551 23.396C15.6391 23.9235 14.8049 22.7991 14.4649 21.8218C14.1164 20.8204 12.6387 16.8449 12.6387 16.8449L13.8431 15.9751Z" fill="#FAD2C3"/>
<path d="M11.6528 13.4791C11.6528 13.4791 11.5439 14.6764 11.5439 14.8337C11.5439 14.9911 11.7857 16.0795 11.7857 16.0795L13.0555 17.2195L14.3133 15.2329L14.5671 14.4466C14.5671 14.4466 14.4462 14.3497 14.3133 14.5071L14.4826 13.9386C14.4826 13.9386 14.2893 13.6849 14.1679 13.9146C14.0466 14.1444 13.9262 14.3862 13.9262 14.3862L13.4302 14.9306L13.9746 14.096L14.0955 13.4791C14.0955 13.4791 13.9262 13.2857 13.7328 13.5635C13.5395 13.8417 13.4182 14.108 13.4182 14.108L12.9826 14.5609L13.5395 13.6C13.5395 13.6 13.6604 13.2373 13.4426 13.2373C13.2248 13.2373 12.2817 14.616 12.2817 14.616L12.0884 14.7489L11.9915 14.2511C11.9915 14.2511 12.1368 13.4791 11.6528 13.4791Z" fill="#FAD2C3"/>
<path d="M12.2116 19.4102C12.2107 19.4098 12.2151 19.3969 12.2236 19.372C12.2333 19.3449 12.2467 19.308 12.264 19.2604C12.3013 19.16 12.3556 19.0156 12.4253 18.8293C12.5689 18.4511 12.7773 17.9031 13.0391 17.2133L13.0396 17.2116L13.0405 17.2102C13.3911 16.6533 13.816 15.9787 14.2933 15.2204L14.2907 15.2258C14.3698 14.9791 14.4556 14.7133 14.5436 14.4391L14.5516 14.4658C14.5231 14.4458 14.4787 14.4351 14.4396 14.4467C14.3996 14.4582 14.3622 14.4871 14.332 14.5231L14.2551 14.6151L14.2893 14.5C14.3418 14.3231 14.3996 14.1289 14.4578 13.9316L14.4618 13.9542C14.42 13.9036 14.3605 13.8498 14.2996 13.8449C14.2698 13.8427 14.2427 13.8569 14.2209 13.8827C14.1991 13.9067 14.1831 13.9409 14.1653 13.9764C14.0947 14.1142 14.0227 14.2556 13.9493 14.3982L13.9476 14.4018L13.9453 14.4044C13.7893 14.5756 13.6209 14.7609 13.4498 14.9489L13.4076 14.916C13.58 14.6511 13.7645 14.3684 13.9516 14.0813L13.9476 14.0911C13.9858 13.896 14.0271 13.6858 14.0685 13.4742L14.0747 13.4978C14.0373 13.4591 13.9773 13.4316 13.9218 13.4453C13.8649 13.4564 13.8151 13.5031 13.7747 13.5542C13.6467 13.7307 13.536 13.9253 13.4427 14.12L13.4405 14.1244L13.4373 14.1276C13.2907 14.28 13.1458 14.4307 13.0018 14.58L12.8458 14.7422L12.9587 14.5476C13.148 14.2209 13.3338 13.9004 13.5156 13.5871L13.5133 13.592C13.5391 13.5031 13.5609 13.3987 13.5311 13.32C13.5169 13.2813 13.4818 13.2627 13.44 13.2644C13.4085 13.2689 13.3653 13.3009 13.3311 13.3302C13.1889 13.4556 13.068 13.6062 12.9498 13.7511C12.7156 14.0453 12.5018 14.3413 12.3013 14.6302L12.2987 14.6342L12.2951 14.6369C12.2285 14.6827 12.1649 14.7262 12.1013 14.7698L12.0711 14.7907L12.064 14.7547C12.0311 14.5844 11.9991 14.4187 11.968 14.2569L11.9671 14.2529L11.968 14.248C11.9938 14.0844 11.9996 13.9164 11.96 13.7658C11.9396 13.6916 11.9071 13.6196 11.852 13.5716C11.7969 13.5231 11.7245 13.5053 11.652 13.5013L11.6733 13.4818C11.6489 13.7556 11.6253 14.0173 11.6031 14.2649C11.5929 14.3889 11.5831 14.5093 11.5733 14.6262C11.5693 14.6844 11.5658 14.7422 11.5618 14.7987C11.5578 14.8542 11.5676 14.9076 11.5756 14.9622C11.6489 15.396 11.7325 15.7693 11.7969 16.0769L11.7978 16.0818L11.7951 16.0858C11.6045 16.3889 11.4578 16.6222 11.3573 16.7818C11.308 16.8587 11.2702 16.9178 11.2436 16.9596C11.2178 16.9991 11.2031 17.0187 11.2031 17.0187C11.2031 17.0187 11.2138 16.9969 11.2378 16.9564C11.2631 16.9138 11.2991 16.8538 11.3462 16.7756C11.4445 16.6142 11.5876 16.3791 11.7738 16.0733L11.7725 16.0827C11.7045 15.7751 11.6178 15.4036 11.5413 14.968C11.5329 14.9142 11.5222 14.856 11.5262 14.7973C11.5298 14.7404 11.5329 14.6822 11.5365 14.6236C11.5453 14.5062 11.5547 14.3858 11.564 14.2613C11.5849 14.0133 11.6071 13.7516 11.6302 13.4773L11.632 13.4573L11.6516 13.4582C11.7311 13.4613 11.8156 13.4818 11.8805 13.5382C11.9449 13.5942 11.98 13.6742 12.0027 13.7533C12.0453 13.9151 12.0396 14.0849 12.0133 14.256V14.2471C12.0449 14.4089 12.0773 14.5747 12.1111 14.7449L12.0738 14.7298C12.1369 14.6862 12.2009 14.6422 12.2671 14.5964L12.2609 14.6027C12.4613 14.3124 12.6747 14.0151 12.9098 13.7191C13.0293 13.5724 13.1485 13.4222 13.2973 13.2902C13.3373 13.2596 13.372 13.2231 13.4378 13.212C13.4671 13.2116 13.4951 13.2169 13.5231 13.2311C13.5485 13.248 13.5707 13.272 13.5805 13.2991C13.6022 13.3529 13.6013 13.4067 13.5965 13.4578C13.5907 13.5093 13.5805 13.5587 13.5645 13.6089L13.5636 13.6111L13.5622 13.6138C13.3809 13.9276 13.1951 14.248 13.0062 14.5747L12.9631 14.5422C13.1067 14.3929 13.252 14.2418 13.3982 14.0893L13.3929 14.0969C13.4889 13.8964 13.5978 13.7044 13.7316 13.52C13.776 13.4644 13.832 13.408 13.9102 13.3916C13.9889 13.3738 14.0658 13.4089 14.116 13.4613L14.1249 13.4707L14.1222 13.4844C14.0809 13.696 14.0396 13.9058 14.0013 14.1013L14.0005 14.1067L13.9973 14.1111C13.8102 14.3982 13.6253 14.6809 13.4529 14.9453L13.4107 14.9124C13.5818 14.7249 13.7507 14.5396 13.9071 14.3684L13.9031 14.3742C13.9765 14.2316 14.0493 14.0902 14.12 13.952C14.1373 13.9187 14.1538 13.8813 14.1831 13.848C14.2098 13.8151 14.2565 13.7889 14.3031 13.7933C14.3956 13.8044 14.4533 13.8653 14.5031 13.9231L14.5111 13.9324L14.5071 13.9458C14.448 14.1431 14.3902 14.3369 14.3369 14.5142L14.2942 14.4911C14.3285 14.4507 14.3729 14.4142 14.4271 14.3991C14.4822 14.3844 14.5387 14.396 14.5822 14.4276L14.5956 14.4373L14.5902 14.4542C14.5013 14.728 14.4151 14.9938 14.3351 15.24L14.3342 15.2427L14.3329 15.2449C13.8516 16.0009 13.4236 16.6733 13.0702 17.2284L13.0716 17.2253C12.8031 17.9124 12.5898 18.4587 12.4427 18.8356C12.3693 19.0204 12.3125 19.164 12.2729 19.2636C12.2538 19.3102 12.2391 19.3467 12.228 19.3733C12.2182 19.3982 12.2125 19.4107 12.2116 19.4102Z" fill="#C8A399"/>
<path d="M14.3291 14.4542C14.342 14.4582 14.2998 14.632 14.2326 14.8582L14.2313 14.8631L14.2278 14.8676C14.2078 14.892 14.1873 14.9165 14.1664 14.9418C13.9851 15.1578 13.8286 15.3253 13.8171 15.3156C13.8055 15.3058 13.9429 15.1227 14.1242 14.9067C14.1455 14.8818 14.166 14.8573 14.1864 14.8333L14.1815 14.8427C14.2526 14.6173 14.3162 14.4502 14.3291 14.4542Z" fill="#C8A399"/>
<path d="M28.0831 29.9236H26.6777V39.4609H28.0831V29.9236Z" fill="#D1D5E8"/>
<path d="M28.0826 39.4604C28.0826 39.4604 28.0812 39.4431 28.0808 39.4107C28.0803 39.3769 28.0799 39.3293 28.079 39.268C28.0781 39.1413 28.0772 38.9578 28.0755 38.7213C28.0737 38.2453 28.0715 37.5578 28.0683 36.7027C28.0657 34.9924 28.0617 32.612 28.0572 29.9231L28.0821 29.948C27.6323 29.948 27.1586 29.948 26.6777 29.948H26.6772L26.7026 29.9227C26.6968 34.0449 26.6919 37.6329 26.6897 39.46L26.6777 39.448C27.1301 39.4511 27.4799 39.4533 27.7186 39.4547C27.8363 39.456 27.9266 39.4569 27.9892 39.4578C28.0501 39.4591 28.0826 39.4604 28.0826 39.4604C28.0826 39.4604 28.0532 39.4618 27.9932 39.4627C27.931 39.4636 27.8417 39.4644 27.7252 39.4658C27.4852 39.4676 27.1332 39.4698 26.6772 39.4725H26.6652V39.46C26.6626 37.6329 26.6577 34.0453 26.6523 29.9227V29.8973H26.6777H26.6781C27.1595 29.8973 27.6332 29.8973 28.0826 29.8973H28.1075V29.9222C28.103 32.6182 28.0995 35.0049 28.0963 36.72C28.0932 37.5729 28.0906 38.2587 28.0892 38.7329C28.0879 38.9667 28.0866 39.1484 28.0857 39.2738C28.0848 39.3338 28.0843 39.38 28.0839 39.4133C28.0839 39.4453 28.0826 39.4604 28.0826 39.4604Z" fill="#949DB8"/>
<path d="M38.9678 29.8405H37.5625V39.4609H38.9678V29.8405Z" fill="#D1D5E8"/>
<path d="M38.9673 39.4605C38.9673 39.4605 38.966 39.4431 38.9656 39.4103C38.9651 39.376 38.9647 39.3285 38.9638 39.2667C38.9629 39.1391 38.962 38.9538 38.9602 38.7151C38.9584 38.2351 38.9562 37.5414 38.9531 36.6787C38.9504 34.9534 38.9464 32.552 38.9424 29.84L38.9673 29.8649C38.518 29.8649 38.0438 29.8649 37.5629 29.8649H37.5624L37.5878 29.8396C37.582 34.0014 37.5771 37.6223 37.5749 39.4596L37.5629 39.4476C38.0158 39.4507 38.3651 39.4529 38.6038 39.4543C38.7216 39.4556 38.8118 39.4565 38.8744 39.4574C38.9349 39.4591 38.9673 39.4605 38.9673 39.4605C38.9673 39.4605 38.938 39.4618 38.878 39.4627C38.8158 39.4636 38.7264 39.4645 38.61 39.4654C38.37 39.4671 38.018 39.4694 37.562 39.472H37.55V39.46C37.5473 37.6223 37.5424 34.0014 37.5371 29.84V29.8147H37.5624H37.5629C38.0442 29.8147 38.518 29.8147 38.9673 29.8147H38.9922V29.8396C38.9878 32.5587 38.9842 34.9663 38.9816 36.696C38.9784 37.5565 38.9758 38.248 38.9744 38.7267C38.9731 38.9627 38.9718 39.1463 38.9709 39.2725C38.97 39.3329 38.9696 39.3796 38.9691 39.4129C38.9687 39.4454 38.9673 39.4605 38.9673 39.4605Z" fill="#949DB8"/>
<path d="M39.627 30.0498L26.1523 30.0751V25.0858H39.627V30.0498Z" fill="#D1D5E8"/>
<path d="M39.6269 30.0498C39.6269 30.0498 39.6255 30.0195 39.6251 29.9618C39.6246 29.9031 39.6242 29.8178 39.6233 29.7062C39.6224 29.4809 39.6211 29.1506 39.6189 28.7235C39.6166 27.8693 39.6135 26.6306 39.6095 25.0858L39.6269 25.1031C36.2984 25.1049 31.49 25.108 26.1522 25.1111L26.1775 25.0858C26.1775 25.0893 26.1775 25.0933 26.1775 25.0973C26.1771 26.8342 26.1771 28.5146 26.1766 30.0746L26.1522 30.0502C30.0433 30.0475 33.4086 30.0453 35.8029 30.0435C37.0006 30.044 37.9553 30.0449 38.6118 30.0449C38.9393 30.0458 39.1922 30.0462 39.3646 30.0466C39.45 30.0471 39.5149 30.0475 39.5598 30.048C39.6038 30.0489 39.6269 30.0498 39.6269 30.0498C39.6269 30.0498 39.6055 30.0506 39.5624 30.0515C39.518 30.052 39.454 30.0524 39.37 30.0533C39.1989 30.0542 38.9473 30.056 38.622 30.0578C37.9669 30.0604 37.014 30.0649 35.8184 30.0698C33.4202 30.0769 30.0495 30.0875 26.1513 30.0991H26.1269V30.0746C26.1264 28.5146 26.1264 26.8342 26.126 25.0973C26.126 25.0933 26.126 25.0893 26.126 25.0858V25.0604H26.1513C31.4895 25.0635 36.2975 25.0666 39.626 25.0684H39.6433V25.0858C39.6393 26.6351 39.6362 27.8773 39.634 28.7338C39.6322 29.1591 39.6309 29.4884 39.6295 29.7129C39.6286 29.8231 39.6282 29.9075 39.6278 29.9653C39.6282 30.0218 39.6269 30.0498 39.6269 30.0498Z" fill="#949DB8"/>
<path d="M38.5196 29.064C38.5196 29.064 38.5183 29.044 38.5179 29.0067C38.5174 28.968 38.517 28.9129 38.5161 28.8409C38.5152 28.6942 38.5134 28.48 38.5116 28.2022C38.5094 27.6462 38.5059 26.8391 38.5019 25.8262L38.5196 25.8413C35.7943 25.8431 31.7174 25.8462 27.1721 25.8493H27.1712L27.1983 25.8258C27.1979 26.9507 27.1979 28.0418 27.1974 29.0636L27.1712 29.0409C30.4352 29.0449 33.2685 29.0489 35.2876 29.0516C36.2979 29.0542 37.1041 29.0565 37.6596 29.0578C37.9361 29.0591 38.1503 29.06 38.297 29.0609C38.3685 29.0613 38.4236 29.0618 38.4623 29.0622C38.4996 29.0631 38.5196 29.064 38.5196 29.064C38.5196 29.064 38.5019 29.0649 38.4659 29.0653C38.4276 29.0658 38.3739 29.0662 38.3036 29.0667C38.1583 29.0676 37.9463 29.0685 37.6721 29.0698C37.1179 29.0711 36.3139 29.0733 35.3063 29.076C33.2828 29.0787 30.4432 29.0822 27.1716 29.0867H27.1454V29.064C27.145 28.0422 27.145 26.9511 27.1445 25.8262V25.8027H27.1716H27.1725C31.7179 25.8058 35.7948 25.8089 38.5201 25.8107H38.5379V25.8258C38.5339 26.8427 38.5303 27.6533 38.5281 28.2111C38.5263 28.4871 38.5245 28.7005 38.5236 28.8462C38.5228 28.9169 38.5223 28.9711 38.5219 29.0093C38.521 29.0462 38.5196 29.064 38.5196 29.064Z" fill="#949DB8"/>
<path d="M27.5768 28.6395C27.5865 28.6484 27.5065 28.7448 27.3981 28.8555C27.2892 28.9657 27.1932 29.0484 27.1834 29.0395C27.1736 29.0306 27.2536 28.9342 27.3621 28.8235C27.4705 28.7128 27.567 28.6306 27.5768 28.6395Z" fill="#949DB8"/>
<path d="M27.5767 26.2511C27.5665 26.26 27.4674 26.172 27.3545 26.0547C27.2421 25.9378 27.159 25.8355 27.1688 25.8271C27.179 25.8182 27.2781 25.9062 27.391 26.0235C27.5039 26.1404 27.587 26.2427 27.5767 26.2511Z" fill="#949DB8"/>
<path d="M38.5399 25.8364C38.5514 25.8462 38.443 25.9502 38.2927 26.0613C38.1425 26.1724 38.0199 26.2591 38.0096 26.2511C37.9981 26.2418 38.1065 26.1373 38.2567 26.0262C38.407 25.9156 38.5296 25.8284 38.5399 25.8364Z" fill="#949DB8"/>
<path d="M38.5202 29.0644C38.5096 29.0737 38.3873 28.9862 38.2465 28.8689C38.1056 28.7515 38.0002 28.6489 38.0105 28.64C38.0211 28.6306 38.1433 28.7182 38.2842 28.8355C38.4251 28.9524 38.5305 29.0551 38.5202 29.0644Z" fill="#949DB8"/>
<path d="M38.0098 28.6395C38.0098 28.6395 38.0089 28.6249 38.008 28.5973C38.0075 28.5684 38.0071 28.5284 38.0062 28.476C38.0053 28.368 38.004 28.2111 38.0022 28.0075C38 27.5986 37.9969 27.0035 37.9929 26.2511L38.0093 26.2653C35.6391 26.2675 31.8644 26.2706 27.6213 26.2742H27.6209L27.648 26.2511C27.648 27.072 27.6475 27.8724 27.6475 28.6395L27.6209 28.6169C30.5866 28.6209 33.18 28.6244 35.0338 28.6271C35.9609 28.6298 36.7031 28.632 37.2155 28.6338C37.4702 28.6351 37.6675 28.636 37.8035 28.6369C37.8693 28.6373 37.9204 28.6382 37.9564 28.6382C37.9911 28.6386 38.0098 28.6395 38.0098 28.6395C38.0098 28.6395 37.9933 28.6404 37.96 28.6409C37.9244 28.6413 37.8751 28.6418 37.8102 28.6422C37.6755 28.6431 37.4804 28.644 37.228 28.6453C36.7169 28.6467 35.9769 28.6489 35.0524 28.652C33.1938 28.6546 30.5942 28.6582 27.6209 28.6622H27.5942V28.6395C27.5942 27.8724 27.5938 27.072 27.5938 26.2511V26.2275H27.6209H27.6213C31.8649 26.2311 35.6391 26.2347 38.0093 26.2364H38.0262V26.2507C38.0222 27.0067 38.0191 27.6049 38.0169 28.0155C38.0151 28.2178 38.0138 28.3738 38.0129 28.4809C38.012 28.532 38.0115 28.5715 38.0111 28.5995C38.0111 28.6267 38.0098 28.6395 38.0098 28.6395Z" fill="#949DB8"/>
<path d="M33.7721 27.2248C33.6948 27.1759 33.6081 27.143 33.5192 27.1159C33.4383 27.091 33.3539 27.079 33.269 27.079H32.5752C32.3708 27.079 32.1708 27.1479 32.0228 27.2813C31.9859 27.3142 31.957 27.347 31.9401 27.3759C31.8806 27.4768 31.8779 27.6177 31.9672 27.6968C32.0566 27.7759 32.2383 27.7373 32.2535 27.6226C32.249 27.7742 32.413 27.9013 32.573 27.891C32.733 27.8808 32.869 27.7564 32.9143 27.611C32.9126 27.7399 33.029 27.8599 33.1646 27.8697C33.3001 27.8795 33.4343 27.7773 33.4535 27.6497C33.5392 27.7555 33.6659 27.8537 33.8117 27.8088C33.8952 27.783 33.9566 27.7137 33.9779 27.6333C34.021 27.4675 33.913 27.3137 33.7721 27.2248Z" fill="#E0E0E0"/>
<path d="M32.6989 27.076C32.706 27.0884 32.5389 27.1573 32.414 27.3231C32.2855 27.4866 32.2682 27.6582 32.2535 27.6555C32.2478 27.6551 32.2433 27.612 32.2575 27.5431C32.2713 27.4746 32.3078 27.3822 32.3744 27.2951C32.4411 27.2084 32.5229 27.1471 32.5873 27.1137C32.6518 27.0804 32.6967 27.0706 32.6989 27.076Z" fill="#5C617C"/>
<path d="M32.9649 27.1035C32.9782 27.1057 32.9764 27.2226 32.9609 27.3644C32.9453 27.5066 32.9213 27.6213 32.9076 27.6204C32.8938 27.6195 32.896 27.503 32.9116 27.3595C32.9276 27.2159 32.9511 27.1013 32.9649 27.1035Z" fill="#5C617C"/>
<path d="M33.2993 27.096C33.3024 27.0911 33.3384 27.1049 33.3798 27.148C33.4211 27.1902 33.4615 27.2635 33.4771 27.3502C33.4926 27.4364 33.486 27.5146 33.4784 27.5693C33.4704 27.6244 33.4606 27.6573 33.454 27.6569C33.4469 27.6564 33.4442 27.6217 33.4433 27.5671C33.442 27.5124 33.4429 27.4373 33.4282 27.3577C33.4135 27.2786 33.3824 27.2115 33.3518 27.168C33.322 27.124 33.2949 27.1017 33.2993 27.096Z" fill="#5C617C"/>
<path d="M40.4349 24.1835H25.1855V25.384H40.4349V24.1835Z" fill="#D1D5E8"/>
<path d="M40.4344 25.384C40.4344 25.384 40.433 25.3569 40.4326 25.3049C40.4322 25.252 40.4313 25.1755 40.4304 25.0746C40.429 24.8715 40.4273 24.5729 40.425 24.1831L40.4344 24.1924C38.0259 24.1951 32.1055 24.2009 25.1859 24.2084H25.185L25.2104 24.1831C25.2104 24.5942 25.2104 25.0022 25.2104 25.3835L25.1855 25.3586C29.4499 25.3626 33.2584 25.3666 36.0024 25.3693C37.3753 25.3724 38.4815 25.3751 39.2464 25.3769C39.6282 25.3782 39.9242 25.3795 40.1264 25.3804C40.2264 25.3813 40.3028 25.3818 40.3557 25.3822C40.4073 25.3826 40.4344 25.384 40.4344 25.384C40.4344 25.384 40.4095 25.3853 40.3588 25.3858C40.3068 25.3862 40.2313 25.3866 40.133 25.3875C39.9322 25.3884 39.6379 25.3893 39.2588 25.3911C38.4957 25.3929 37.3913 25.3955 36.0206 25.3986C33.2722 25.4013 29.457 25.4049 25.1855 25.4093H25.1602V25.384C25.1602 25.0022 25.1602 24.5946 25.1602 24.1835V24.1582H25.1855H25.1864C32.1059 24.1653 38.0259 24.1715 40.4348 24.1742H40.4442V24.1835C40.4419 24.5755 40.4402 24.876 40.4388 25.0804C40.4379 25.18 40.437 25.256 40.4366 25.3084C40.4357 25.3591 40.4344 25.384 40.4344 25.384Z" fill="#949DB8"/>
<path d="M24.1876 46.7649C24.6984 46.7649 25.1125 46.6085 25.1125 46.4156C25.1125 46.2226 24.6984 46.0662 24.1876 46.0662C23.6768 46.0662 23.2627 46.2226 23.2627 46.4156C23.2627 46.6085 23.6768 46.7649 24.1876 46.7649Z" fill="white"/>
</g>
</g>
<defs>
<clipPath id="clip0_1141_49268">
<rect width="48" height="48" rx="24" fill="white"/>
</clipPath>
<clipPath id="clip1_1141_49268">
<rect width="48" height="48" fill="white"/>
</clipPath>
</defs>
</svg>
