<svg width="48" height="48" viewBox="0 0 48 48" fill="none" xmlns="http://www.w3.org/2000/svg">
<g clip-path="url(#clip0_1141_47610)">
<rect width="48" height="48" rx="24" fill="white"/>
<g clip-path="url(#clip1_1141_47610)">
<g opacity="0.55">
<path d="M27.5239 40.9649C27.6155 40.9613 27.6928 41.0329 27.6964 41.1244C27.6999 41.216 27.6284 41.2933 27.5368 41.2969C27.4453 41.3004 27.3679 41.2289 27.3644 41.1373C27.3608 41.0458 27.4324 40.9684 27.5239 40.9649Z" fill="#F2BD8D"/>
<path d="M36.7526 41.3196C36.9019 41.3196 37.0229 41.1986 37.0229 41.0493C37.0229 40.9001 36.9019 40.7791 36.7526 40.7791C36.6034 40.7791 36.4824 40.9001 36.4824 41.0493C36.4824 41.1986 36.6034 41.3196 36.7526 41.3196Z" fill="#F2BD8D"/>
<path d="M37.3751 8.74043L37.0596 9.88799L37.3853 9.9551L37.9382 9.06888L37.3751 8.74043Z" fill="#F2BD8D"/>
<path d="M32.2432 1.63999L33.3116 2.16488L33.4383 1.85733L32.6712 1.14844L32.2432 1.63999Z" fill="#F2BD8D"/>
<path d="M38.4316 1.31866L39.237 1.29955L39.3223 1.10133L38.7348 0.93866L38.4316 1.31866Z" fill="#F2BD8D"/>
<path d="M33.1628 45.2991C33.2544 45.2956 33.3259 45.2182 33.3224 45.1267C33.3188 45.0351 33.2415 44.9636 33.1499 44.9671C33.0584 44.9707 32.9868 45.048 32.9904 45.1396C32.9939 45.2311 33.0713 45.3027 33.1628 45.2991Z" fill="#F2BD8D"/>
<path d="M27.2646 1.56843L28.4055 1.90843L28.4793 1.58443L27.6051 1.01288L27.2646 1.56843Z" fill="#F2BD8D"/>
<path d="M32.5323 39.4476L33.5101 38.7684L33.303 38.508L32.3105 38.8347L32.5323 39.4476Z" fill="#F2BD8D"/>
<path d="M16.8037 32.9067L17.8722 33.4315L17.9988 33.124L17.2317 32.4151L16.8037 32.9067Z" fill="#F2BD8D"/>
<path d="M38.4775 35.3L39.6389 35.56L39.6904 35.2316L38.7784 34.7218L38.4775 35.3Z" fill="#F2BD8D"/>
<path d="M37.4385 27.2476L38.2438 27.2284L38.3291 27.0302L37.7416 26.8676L37.4385 27.2476Z" fill="#F2BD8D"/>
<path d="M22.2139 20.2711L22.8019 21.3067L23.0796 21.124L22.8445 20.1058L22.2139 20.2711Z" fill="#F2BD8D"/>
<path d="M21.8232 28.9147L22.9935 29.1342L23.033 28.804L22.1041 28.3262L21.8232 28.9147Z" fill="#F2BD8D"/>
<path d="M40.769 6.23623C40.8607 6.23262 40.9322 6.15534 40.9286 6.06361C40.9249 5.97188 40.8477 5.90044 40.7559 5.90405C40.6642 5.90766 40.5928 5.98494 40.5964 6.07667C40.6 6.1684 40.6773 6.23984 40.769 6.23623Z" fill="#F2BD8D"/>
<path d="M42.4507 15.656C42.5423 15.6524 42.6196 15.724 42.6231 15.8156C42.6267 15.9071 42.5551 15.9844 42.4636 15.988C42.372 15.9916 42.2947 15.92 42.2911 15.8284C42.2876 15.7369 42.3591 15.66 42.4507 15.656Z" fill="#F2BD8D"/>
<path d="M47.397 18.3862C47.5459 18.3804 47.6717 18.4964 47.6775 18.6453C47.6832 18.7942 47.5672 18.92 47.4183 18.9258C47.2695 18.9316 47.1437 18.8156 47.1379 18.6667C47.1321 18.5178 47.2481 18.392 47.397 18.3862Z" fill="#F2BD8D"/>
<path d="M41.987 21.848L42.7866 20.9662L42.5261 20.7591L41.6328 21.3004L41.987 21.848Z" fill="#F2BD8D"/>
<path d="M43.7441 12.6235L44.9055 12.884L44.957 12.5551L44.045 12.0453L43.7441 12.6235Z" fill="#F2BD8D"/>
<path d="M42.8606 26.7635L43.3433 27.588L43.1046 27.7075L42.4922 27.1347L42.8606 26.7635Z" fill="#F2BD8D"/>
<path d="M48.1677 43.9564C48.2592 43.9529 48.3308 43.8756 48.3272 43.784C48.3237 43.6924 48.2464 43.6209 48.1548 43.6244C48.0632 43.628 47.9917 43.7053 47.9952 43.7969C47.9988 43.8884 48.0761 43.96 48.1677 43.9564Z" fill="#F2BD8D"/>
<path d="M9.87305 24.2093L11.2228 24.512L11.2824 24.1302L10.2228 23.5378L9.87305 24.2093Z" fill="#F2BD8D"/>
<path d="M19.0202 23.0831C19.1695 23.0831 19.2904 22.9621 19.2904 22.8129C19.2904 22.6636 19.1695 22.5427 19.0202 22.5427C18.871 22.5427 18.75 22.6636 18.75 22.8129C18.75 22.9621 18.871 23.0831 19.0202 23.0831Z" fill="#F2BD8D"/>
<path d="M17.028 27.5262C17.1196 27.5227 17.1912 27.4453 17.1876 27.3538C17.184 27.2622 17.1067 27.1907 17.0152 27.1942C16.9236 27.1978 16.852 27.2751 16.8556 27.3667C16.8592 27.4587 16.9365 27.5302 17.028 27.5262Z" fill="#F2BD8D"/>
<path d="M15.5748 19.496L16.5521 18.8169L16.345 18.5564L15.3525 18.8831L15.5748 19.496Z" fill="#F2BD8D"/>
<path d="M14.4968 39.7884C14.5883 39.7849 14.6599 39.7076 14.6563 39.616C14.6528 39.5244 14.5755 39.4529 14.4839 39.4564C14.3923 39.46 14.3208 39.5373 14.3243 39.6289C14.3279 39.7209 14.4048 39.792 14.4968 39.7884Z" fill="#F2BD8D"/>
<path d="M1.7805 28.0723C1.92962 28.0665 2.04575 27.9408 2.03989 27.7917C2.03402 27.6426 1.90838 27.5264 1.75926 27.5323C1.61014 27.5382 1.49401 27.6638 1.49988 27.8129C1.50574 27.962 1.63138 28.0782 1.7805 28.0723Z" fill="#F2BD8D"/>
<path d="M10.1895 39.8733L11.3512 40.1338L11.4028 39.8053L10.4908 39.2955L10.1895 39.8733Z" fill="#F2BD8D"/>
<path d="M2.76242 33.4524C2.85397 33.4489 2.92553 33.3716 2.92197 33.28C2.91842 33.1884 2.84108 33.1169 2.74953 33.1204C2.65797 33.124 2.58642 33.2013 2.58997 33.2929C2.59308 33.3844 2.67042 33.456 2.76242 33.4524Z" fill="#F2BD8D"/>
<path d="M0.514747 31.9818L1.49252 31.3022L1.28497 31.0422L0.292969 31.3689L0.514747 31.9818Z" fill="#F2BD8D"/>
<path d="M12.6152 29.0662L13.7766 29.3267L13.8281 28.9978L12.9161 28.488L12.6152 29.0662Z" fill="#F2BD8D"/>
<path d="M6.20605 18.3435L7.01183 18.3244L7.09717 18.1262L6.50961 17.9635L6.20605 18.3435Z" fill="#F2BD8D"/>
<path d="M7.4673 2.41022C7.55886 2.40667 7.63619 2.47822 7.63974 2.56978C7.6433 2.66133 7.57174 2.73867 7.48019 2.74222C7.38863 2.74578 7.3113 2.67422 7.30774 2.58267C7.30419 2.49111 7.37574 2.41378 7.4673 2.41022Z" fill="#F2BD8D"/>
<path d="M7.00364 8.60178L7.80319 7.72L7.54319 7.51334L6.64941 8.05467L7.00364 8.60178Z" fill="#F2BD8D"/>
<path d="M7.87723 13.5173L8.3599 14.3422L8.12123 14.4618L7.50879 13.8889L7.87723 13.5173Z" fill="#F2BD8D"/>
</g>
<g opacity="0.56">
<path d="M43.479 46.5102C43.4403 46.5102 43.4092 46.4818 43.4092 46.4467V43.5973C43.4092 43.5622 43.4403 43.5338 43.479 43.5338C43.5176 43.5338 43.5487 43.5622 43.5487 43.5973V46.4467C43.5487 46.4818 43.5172 46.5102 43.479 46.5102Z" fill="#F4D7BF"/>
<path d="M42.3704 46.0929C42.3527 46.0929 42.3349 46.0867 42.3211 46.0742C42.294 46.0493 42.294 46.0093 42.3211 45.9844L44.538 43.9693C44.5651 43.9444 44.6096 43.9444 44.6367 43.9693C44.6638 43.9942 44.6638 44.0342 44.6367 44.0591L42.4198 46.0742C42.406 46.0867 42.3882 46.0929 42.3704 46.0929Z" fill="#F4D7BF"/>
<path d="M45.0467 45.0853H41.9116C41.8729 45.0853 41.8418 45.0569 41.8418 45.0218C41.8418 44.9867 41.8729 44.9582 41.9116 44.9582H45.0467C45.0854 44.9582 45.1165 44.9867 45.1165 45.0218C45.1165 45.0569 45.0849 45.0853 45.0467 45.0853Z" fill="#F4D7BF"/>
<path d="M44.5873 46.0929C44.5696 46.0929 44.5518 46.0867 44.538 46.0742L42.3211 44.0591C42.294 44.0342 42.294 43.9942 42.3211 43.9693C42.3482 43.9444 42.3927 43.9444 42.4198 43.9693L44.6367 45.9844C44.6638 46.0093 44.6638 46.0493 44.6367 46.0742C44.6229 46.0867 44.6051 46.0929 44.5873 46.0929Z" fill="#F4D7BF"/>
</g>
<path d="M45.1884 21.3333C45.1636 21.3333 45.1436 21.3151 45.1436 21.2924V19.4533C45.1436 19.4307 45.1636 19.4124 45.1884 19.4124C45.2133 19.4124 45.2333 19.4307 45.2333 19.4533V21.2924C45.2333 21.3151 45.2133 21.3333 45.1884 21.3333Z" fill="white"/>
<path d="M44.4731 21.064C44.4615 21.064 44.45 21.06 44.4411 21.052C44.4233 21.036 44.4233 21.0102 44.4411 20.9942L45.8722 19.6938C45.89 19.6778 45.9184 19.6778 45.9357 19.6938C45.9531 19.7098 45.9535 19.7356 45.9357 19.7516L44.5046 21.052C44.4962 21.06 44.4846 21.064 44.4731 21.064Z" fill="white"/>
<path d="M46.2003 20.4138H44.1767C44.1518 20.4138 44.1318 20.3956 44.1318 20.3729C44.1318 20.3502 44.1518 20.332 44.1767 20.332H46.2003C46.2252 20.332 46.2452 20.3502 46.2452 20.3729C46.2456 20.3951 46.2252 20.4138 46.2003 20.4138Z" fill="white"/>
<path d="M45.9042 21.064C45.8926 21.064 45.8811 21.06 45.8722 21.052L44.4411 19.7516C44.4233 19.7356 44.4233 19.7098 44.4411 19.6938C44.4588 19.6778 44.4873 19.6778 44.5046 19.6938L45.9357 20.9942C45.9535 21.0102 45.9535 21.036 45.9357 21.052C45.9268 21.06 45.9157 21.064 45.9042 21.064Z" fill="white"/>
<path opacity="0.56" d="M42.9181 36.2827C43.5487 36.2827 44.0599 35.7715 44.0599 35.1409C44.0599 34.5103 43.5487 33.9991 42.9181 33.9991C42.2876 33.9991 41.7764 34.5103 41.7764 35.1409C41.7764 35.7715 42.2876 36.2827 42.9181 36.2827Z" fill="#EEB995"/>
<path d="M12.7113 6.684C12.6615 6.684 12.6211 6.64756 12.6211 6.60223V2.92356C12.6211 2.87823 12.6615 2.84178 12.7113 2.84178C12.7611 2.84178 12.8015 2.87823 12.8015 2.92356V6.60223C12.8011 6.64711 12.7611 6.684 12.7113 6.684Z" fill="white"/>
<path d="M11.2803 6.14534C11.2572 6.14534 11.2341 6.13734 11.2168 6.12134C11.1817 6.08934 11.1817 6.03734 11.2168 6.00578L14.0785 3.40445C14.1137 3.37245 14.1705 3.37245 14.2061 3.40445C14.2412 3.43645 14.2412 3.48845 14.2061 3.52L11.3443 6.12134C11.3265 6.13734 11.3034 6.14534 11.2803 6.14534Z" fill="white"/>
<path d="M14.735 4.84445H10.6879C10.6381 4.84445 10.5977 4.808 10.5977 4.76267C10.5977 4.71734 10.6381 4.68089 10.6879 4.68089H14.735C14.7848 4.68089 14.8252 4.71734 14.8252 4.76267C14.8248 4.808 14.7848 4.84445 14.735 4.84445Z" fill="white"/>
<path d="M14.1421 6.14534C14.119 6.14534 14.0959 6.13734 14.0785 6.12134L11.2168 3.52C11.1817 3.488 11.1817 3.436 11.2168 3.40445C11.2519 3.37245 11.3088 3.37245 11.3443 3.40445L14.2061 6.00578C14.2412 6.03778 14.2412 6.08978 14.2061 6.12134C14.1883 6.13734 14.1652 6.14534 14.1421 6.14534Z" fill="white"/>
<g opacity="0.56">
<path d="M4.36263 42.6444L4.5044 42.88C4.66351 43.1444 4.89507 43.3578 5.17196 43.4947L5.41863 43.6164L5.18307 43.7582C4.91862 43.9173 4.70529 44.1489 4.5684 44.4258L4.44663 44.6724L4.30485 44.4369C4.14574 44.1724 3.91418 43.9591 3.63729 43.8222L3.39062 43.7004L3.62618 43.5587C3.89063 43.3996 4.10396 43.168 4.24085 42.8911L4.36263 42.6444Z" fill="#F4D7BF"/>
</g>
<path d="M32.504 3.70267L32.6044 3.86933C32.7168 4.05645 32.8808 4.20711 33.0764 4.304L33.2506 4.39022L33.084 4.49067C32.8969 4.60311 32.7462 4.76711 32.6493 4.96267L32.5631 5.13689L32.4626 4.97022C32.3502 4.78311 32.1862 4.63245 31.9906 4.53556L31.8164 4.44933L31.9831 4.34889C32.1702 4.23645 32.3208 4.07245 32.4177 3.87689L32.504 3.70267Z" fill="white"/>
<g opacity="0.44">
<path d="M23.8325 26.4378L23.832 26.4387H23.8351L23.8325 26.4378Z" fill="#F2BD8D"/>
<path d="M23.8242 26.4382L23.8313 26.4387L23.8264 26.436L23.8242 26.4382Z" fill="#F2BD8D"/>
<path d="M23.8154 26.4329L23.8105 26.4387H23.823L23.8154 26.4329Z" fill="#F2BD8D"/>
<path d="M23.8056 26.4316L23.8074 26.4302L23.8047 26.4298L23.8056 26.4316Z" fill="#F2BD8D"/>
<path d="M23.8027 26.4156V26.4169L23.805 26.4182L23.8027 26.4156Z" fill="#F2BD8D"/>
<path d="M23.8299 26.4311L23.8281 26.4329L23.8303 26.4342L23.8299 26.4311Z" fill="#F2BD8D"/>
<path d="M23.8003 26.4347L23.7994 26.428L23.7656 26.4182L23.7958 26.4378L23.8003 26.4347Z" fill="#F2BD8D"/>
<path d="M23.8007 26.4289L23.7998 26.4347L23.8042 26.432L23.8007 26.4289Z" fill="#F2BD8D"/>
<path d="M23.8272 26.4289L23.8232 26.4298L23.8259 26.4316L23.8272 26.4289Z" fill="#F2BD8D"/>
<path d="M23.824 26.4356L23.8223 26.4351L23.8232 26.4373L23.824 26.4356Z" fill="#F2BD8D"/>
<g opacity="0.87">
<path d="M21.0205 7.09334L22.417 16.8111C22.4303 16.8093 22.4432 16.8071 22.4565 16.8053L23.8152 26.3293L25.1618 16.8036C25.169 16.8044 25.1761 16.8058 25.1832 16.8067L26.525 7.24578C25.4432 7.07156 24.3338 6.97956 23.2027 6.97956C22.4654 6.97911 21.7374 7.01822 21.0205 7.09334Z" fill="#F2BD8D"/>
</g>
<g opacity="0.87">
<path d="M36.4467 11.7649C35.0409 10.5951 33.4787 9.60844 31.7951 8.84L27.8276 17.5818C27.8347 17.5849 27.8418 17.5884 27.8489 17.5916L23.8369 26.4089L36.4467 11.7649Z" fill="#F2BD8D"/>
</g>
<g opacity="0.87">
<path d="M14.5074 23.708L23.7421 26.4115H23.7057L23.7945 26.4378L23.7932 26.4387L23.795 26.4382L23.799 26.4355L23.7994 26.4369L23.8057 26.4351L23.8048 26.4333L23.8061 26.4351L23.8083 26.4347L23.8074 26.4364L23.8096 26.4391L23.8145 26.4333L23.8221 26.4391H23.8096L23.8159 26.4444L23.8212 26.4404L23.8199 26.4431L23.8243 26.4418L23.8301 26.44L23.8305 26.4422L23.8341 26.4387L23.8363 26.4391L23.8305 26.4431L23.8679 26.4596L23.8372 26.44L33.1257 29.1591C33.1239 29.1658 33.1217 29.1724 33.1199 29.1791L43.427 32.2089C43.7492 30.7569 43.9208 29.248 43.9208 27.6987C43.9208 27.2662 43.9061 26.8373 43.8799 26.4115H33.5168C33.5168 26.4169 33.5168 26.4227 33.5168 26.4284L23.8381 26.4387H23.835L23.8359 26.4382L23.8319 26.4355L23.8332 26.4271L23.8759 26.4142L23.8412 26.4369L23.927 26.4115H23.8852L42.7523 20.8227C42.123 19.0338 41.2559 17.3573 40.1874 15.8311L23.8799 26.4115H23.8465L23.8603 26.3956L23.8354 26.4115H23.835L23.8354 26.4098L23.8337 26.4115L23.8425 26.3596L23.8248 26.3987L23.8265 26.4115L23.815 26.42L23.811 26.4115H23.803L23.8048 26.3982L23.7897 26.3649L23.7959 26.408L23.799 26.4115H23.7963V26.4129L23.7768 26.4L23.7865 26.4115H23.7545L6.56787 15.344C5.39276 16.924 4.43676 18.6764 3.74609 20.5573L14.5074 23.708ZM23.8319 26.4378L23.835 26.4387H23.8319V26.4378ZM23.8234 26.4382L23.8257 26.436L23.8305 26.4387L23.8234 26.4382ZM23.8297 26.4311L23.8301 26.4342L23.8279 26.4329L23.8297 26.4311ZM23.827 26.4289L23.8257 26.432L23.823 26.4302L23.827 26.4289ZM23.8239 26.4355L23.823 26.4378L23.8217 26.4351L23.8239 26.4355ZM23.8048 26.4316L23.8039 26.4298L23.8065 26.4307L23.8048 26.4316ZM23.8025 26.4155L23.8048 26.4182L23.8025 26.4169V26.4155ZM23.8008 26.4289L23.8043 26.432L23.7999 26.4347L23.8008 26.4289ZM23.799 26.428L23.7999 26.4347L23.7954 26.4378L23.7656 26.4187L23.799 26.428Z" fill="#F2BD8D"/>
</g>
<g opacity="0.87">
<path d="M17.4543 19.0924C17.4548 19.092 17.4552 19.0916 17.4557 19.0911L23.7925 26.4036L19.773 17.5964C19.7739 17.596 19.7752 17.5956 19.7761 17.5951L15.5797 8.42667C13.7965 9.13244 12.1352 10.0796 10.6348 11.2262L17.4543 19.0924Z" fill="#F2BD8D"/>
</g>
<g opacity="0.87">
<path d="M31.9786 31.6947C31.9768 31.6973 31.975 31.7004 31.9732 31.7031L23.8555 26.476L30.1857 33.7778C30.1804 33.7822 30.1755 33.7867 30.1701 33.7911L37.7012 42.4982C39.1292 41.0991 40.3555 39.4951 41.3328 37.7333L31.9786 31.6947Z" fill="#F2BD8D"/>
</g>
<path d="M23.8289 26.4591L23.8271 26.4582L23.8285 26.4596L23.8289 26.4591Z" fill="#F2BD8D"/>
<path d="M23.8061 26.4409L23.8048 26.4435L23.8012 26.4409L23.8026 26.4484L23.803 26.4475V26.4484L23.8092 26.4462L23.8061 26.444L23.8083 26.4413L23.8101 26.4418L23.8092 26.4404L23.8106 26.4387H23.8008L23.8061 26.4409Z" fill="#F2BD8D"/>
<path d="M23.7989 26.4493L23.7998 26.44L23.7975 26.4387L23.7598 26.4609L23.7989 26.4493Z" fill="#F2BD8D"/>
<g opacity="0.87">
<path d="M23.7752 26.4796L15.6779 31.7329C15.6717 31.7231 15.665 31.7129 15.6588 31.7031L5.41699 38.3316C6.4961 40.1329 7.84144 41.7564 9.39833 43.1484L18.693 32.3813L23.7752 26.4796Z" fill="#F2BD8D"/>
</g>
<g opacity="0.87">
<path d="M14.5136 29.1875L23.7941 26.4387L2.52118 26.4613C2.49718 26.8707 2.4834 27.2831 2.4834 27.6987C2.4834 29.3764 2.68429 31.0071 3.06073 32.5689L14.5145 29.1889C14.5136 29.1889 14.5136 29.188 14.5136 29.1875Z" fill="#F2BD8D"/>
</g>
<g opacity="0.87">
<path d="M23.7893 26.512L14.6582 46.58C16.5426 47.4342 18.5782 48.0133 20.7133 48.2689L23.7893 26.512Z" fill="#F2BD8D"/>
</g>
<path d="M23.8318 26.4431L23.8291 26.4449L23.8309 26.4476L23.8318 26.4431Z" fill="#F2BD8D"/>
<g opacity="0.87">
<path d="M23.8408 26.5102L26.9186 48.0853C28.9942 47.7093 30.9613 47.024 32.7719 46.0791L23.8408 26.5102Z" fill="#F2BD8D"/>
</g>
<path d="M23.8057 26.4756L23.8163 26.548L23.8261 26.4778L23.8154 26.4542L23.8057 26.4756Z" fill="#F2BD8D"/>
<path d="M23.8275 26.4458L23.8262 26.4467L23.8279 26.4471L23.8275 26.4458Z" fill="#F2BD8D"/>
</g>
<path d="M37.3575 41.2364C37.206 41.1716 37.0815 41.0471 37.0162 40.896C36.9891 40.8333 36.9886 40.736 37.0553 40.7222C37.0962 40.7138 37.1335 40.7453 37.1633 40.7751C37.2624 40.8738 37.362 40.972 37.4611 41.0707C37.4024 40.9151 37.41 40.7364 37.4815 40.5862C37.5073 40.5324 37.5602 40.4751 37.6157 40.496C37.6597 40.512 37.6735 40.5662 37.6815 40.6124C37.7055 40.7547 37.7291 40.8973 37.7531 41.0396C37.7922 40.8742 37.8735 40.7187 37.9873 40.592C38.0286 40.5458 38.0948 40.5009 38.1477 40.5338C38.194 40.5627 38.1917 40.6302 38.182 40.6836C38.1575 40.8173 38.1197 40.9484 38.0704 41.0747C38.1975 40.9622 38.3642 40.896 38.5335 40.8911C38.5833 40.8898 38.6397 40.8964 38.6704 40.9356C38.7166 40.9938 38.6762 41.08 38.6268 41.136C38.4811 41.3013 38.1384 41.344 37.9184 41.3293" fill="#C77859"/>
<path d="M38.6754 41.588C38.1416 41.168 37.2038 41.1084 36.586 41.3911C35.8887 41.7102 35.4323 42.4529 35.3638 43.164C35.2989 43.84 35.6251 44.5258 35.902 45.1458L38.5967 45.1582C38.9203 44.624 39.2567 44.0262 39.2789 43.4022C39.3016 42.7782 39.166 41.9742 38.6754 41.588Z" fill="#E59F65"/>
<path d="M37.4665 41.2173C37.4665 41.2178 37.4625 41.2191 37.4545 41.2209C37.4451 41.2231 37.4336 41.2258 37.4194 41.2289C37.4034 41.2324 37.3843 41.2364 37.362 41.2413C37.3394 41.2458 37.3131 41.2516 37.2847 41.2618C37.1687 41.2924 37.0056 41.3591 36.8283 41.4804C36.6505 41.6004 36.4687 41.7867 36.3083 42.0204C36.2296 42.1387 36.1567 42.2689 36.0905 42.4084C36.0265 42.5493 35.9691 42.6991 35.9229 42.8564C35.8309 43.1716 35.8296 43.4907 35.8776 43.7702C35.9238 44.0507 36.0069 44.2951 36.0807 44.4969C36.1554 44.6991 36.222 44.8604 36.266 44.9729C36.2874 45.0276 36.3043 45.0711 36.3163 45.1022C36.3211 45.116 36.3256 45.1271 36.3287 45.136C36.3314 45.1436 36.3327 45.1476 36.3323 45.148C36.3318 45.148 36.33 45.1444 36.3265 45.1369C36.3225 45.128 36.3176 45.1173 36.3118 45.104C36.2985 45.0729 36.2803 45.0302 36.2571 44.9764C36.21 44.8653 36.1411 44.7049 36.0643 44.5031C35.9878 44.3013 35.9025 44.0569 35.8549 43.7738C35.8056 43.4924 35.806 43.1684 35.8989 42.8493C35.9456 42.6907 36.0034 42.54 36.0683 42.3982C36.1354 42.2573 36.2096 42.1267 36.2891 42.0076C36.4523 41.7724 36.6371 41.5853 36.8185 41.4658C36.9989 41.3453 37.1651 41.2804 37.2825 41.2524C37.3114 41.2431 37.3376 41.2378 37.3607 41.2342C37.3829 41.2302 37.4025 41.2271 37.4189 41.224C37.4336 41.2218 37.4451 41.22 37.4545 41.2182C37.462 41.2169 37.4665 41.2169 37.4665 41.2173Z" fill="#925933"/>
<path d="M38.251 45.1369C38.2501 45.1364 38.2546 45.1227 38.2634 45.0964C38.2732 45.0684 38.287 45.0302 38.3039 44.9827C38.339 44.884 38.391 44.7413 38.4514 44.564C38.5114 44.3867 38.5799 44.1742 38.6386 43.9342C38.6977 43.6942 38.7452 43.4258 38.7586 43.1409C38.7697 42.8564 38.7386 42.584 38.6763 42.3453C38.6137 42.1067 38.523 41.9013 38.4234 41.744C38.3243 41.5858 38.2239 41.4716 38.1479 41.4C38.1119 41.3618 38.0786 41.3382 38.059 41.3191C38.0386 41.3009 38.0279 41.2907 38.0283 41.2902C38.0288 41.2893 38.0403 41.2982 38.0621 41.3151C38.083 41.3329 38.1172 41.356 38.1546 41.3929C38.2332 41.4627 38.3363 41.5764 38.4386 41.7347C38.5412 41.8924 38.6346 42.0991 38.699 42.34C38.763 42.5804 38.795 42.8551 38.7839 43.1427C38.7706 43.4298 38.7221 43.7 38.6612 43.9404C38.6008 44.1813 38.5306 44.3938 38.4683 44.5707C38.4057 44.7476 38.3514 44.8889 38.3132 44.9867C38.2946 45.0338 38.2794 45.0711 38.2683 45.0987C38.2581 45.124 38.2519 45.1373 38.251 45.1369Z" fill="#925933"/>
<path d="M37.7309 41.2329C37.7318 41.2333 37.7283 41.2467 37.7203 41.2724C37.7114 41.3 37.6998 41.3373 37.6852 41.384C37.6692 41.4324 37.6505 41.4916 37.6305 41.5609C37.61 41.6298 37.5852 41.7084 37.5616 41.796C37.5114 41.9702 37.4585 42.18 37.4047 42.4138C37.3532 42.648 37.3029 42.9071 37.262 43.1809C37.222 43.4551 37.1958 43.7173 37.1794 43.9569C37.1736 44.0769 37.1656 44.1902 37.1643 44.2969C37.1629 44.3502 37.162 44.4018 37.1607 44.4511C37.1612 44.5004 37.1612 44.548 37.1616 44.5933C37.1607 44.684 37.1652 44.7662 37.1674 44.8382C37.1692 44.9102 37.1727 44.9724 37.1767 45.0231C37.1798 45.072 37.182 45.1107 37.1838 45.14C37.1852 45.1667 37.1856 45.1809 37.1847 45.1809C37.1838 45.1809 37.182 45.1671 37.1789 45.1404C37.1758 45.1116 37.1723 45.0729 37.1674 45.024C37.162 44.9733 37.1572 44.9116 37.154 44.8391C37.15 44.7671 37.1447 44.6849 37.1443 44.5938C37.1434 44.5484 37.1425 44.5004 37.1416 44.4511C37.142 44.4013 37.1429 44.3498 37.1434 44.2964C37.1434 44.1893 37.1509 44.0756 37.1558 43.9551C37.1714 43.7151 37.1972 43.4516 37.2367 43.1769C37.278 42.9022 37.3292 42.6431 37.3816 42.4084C37.4363 42.1742 37.4914 41.9649 37.5438 41.7907C37.5687 41.7031 37.5945 41.6253 37.6163 41.5564C37.638 41.4876 37.658 41.4289 37.6754 41.3809C37.6918 41.3347 37.7052 41.2982 37.7149 41.2707C37.7247 41.2458 37.73 41.2324 37.7309 41.2329Z" fill="#925933"/>
<path d="M35.45 43.3791C35.4532 43.3853 35.3705 43.4293 35.266 43.4769C35.1616 43.5244 35.0745 43.5578 35.0714 43.5515C35.0683 43.5453 35.1509 43.5013 35.2554 43.4538C35.3598 43.4062 35.4469 43.3729 35.45 43.3791Z" fill="#925933"/>
<path d="M35.5356 42.6049C35.5321 42.6111 35.4414 42.5653 35.3334 42.5027C35.2254 42.44 35.1405 42.3844 35.1436 42.3782C35.1472 42.372 35.2379 42.4178 35.3459 42.4804C35.4543 42.5431 35.5392 42.5987 35.5356 42.6049Z" fill="#925933"/>
<path d="M36.0275 41.9653C36.0213 41.9684 35.9813 41.8973 35.9382 41.8071C35.895 41.7169 35.8657 41.6409 35.8719 41.6378C35.8781 41.6347 35.9181 41.7058 35.9613 41.796C36.0039 41.8862 36.0337 41.9622 36.0275 41.9653Z" fill="#925933"/>
<path d="M36.7031 41.3613C36.6973 41.3653 36.6538 41.316 36.6053 41.2511C36.5569 41.1858 36.5222 41.1298 36.528 41.1253C36.5338 41.1213 36.5773 41.1707 36.6258 41.2356C36.6738 41.3009 36.7089 41.3569 36.7031 41.3613Z" fill="#925933"/>
<path d="M35.7551 44.3249C35.7586 44.3311 35.6738 44.3831 35.5662 44.4413C35.4586 44.4996 35.3689 44.5418 35.3653 44.5356C35.3622 44.5293 35.4467 44.4773 35.5542 44.4191C35.6618 44.3609 35.752 44.3187 35.7551 44.3249Z" fill="#925933"/>
<path d="M36.5606 43.8538C36.5571 43.86 36.4802 43.8231 36.3886 43.7715C36.2971 43.72 36.2255 43.6733 36.2286 43.6675C36.2317 43.6618 36.3091 43.6982 36.4011 43.7498C36.4922 43.8013 36.5637 43.848 36.5606 43.8538Z" fill="#925933"/>
<path d="M36.7841 42.7778C36.7872 42.7836 36.7152 42.8284 36.6183 42.8662C36.5214 42.9044 36.4379 42.92 36.4366 42.9133C36.4348 42.9062 36.5139 42.88 36.6094 42.8422C36.7046 42.8058 36.781 42.7716 36.7841 42.7778Z" fill="#925933"/>
<path d="M37.0403 41.9667C37.0345 41.9698 36.9972 41.9133 36.9705 41.8351C36.9434 41.7569 36.9372 41.6898 36.9439 41.6884C36.951 41.6871 36.9679 41.7507 36.9945 41.8267C37.0208 41.9027 37.0465 41.9631 37.0403 41.9667Z" fill="#925933"/>
<path d="M36.4695 44.9102C36.4633 44.9071 36.4957 44.8262 36.542 44.7293C36.5882 44.6324 36.6308 44.5564 36.6371 44.5591C36.6433 44.5622 36.6108 44.6431 36.5646 44.74C36.5184 44.8369 36.4757 44.9133 36.4695 44.9102Z" fill="#925933"/>
<path d="M37.8272 44.6213C37.8232 44.6267 37.7459 44.5698 37.6699 44.4804C37.5934 44.3916 37.5494 44.3067 37.5552 44.3031C37.5614 44.2991 37.6143 44.3764 37.6894 44.464C37.7636 44.5511 37.8321 44.6156 37.8272 44.6213Z" fill="#925933"/>
<path d="M38.2977 43.4364C38.3013 43.4427 38.2173 43.4973 38.1097 43.5587C38.0026 43.62 37.9128 43.6649 37.9093 43.6591C37.9057 43.6529 37.9897 43.5982 38.0973 43.5369C38.2044 43.4751 38.2942 43.4302 38.2977 43.4364Z" fill="#925933"/>
<path d="M37.9817 42.7076C37.9768 42.7027 38.0421 42.6329 38.1275 42.5524C38.2128 42.472 38.2857 42.4111 38.2906 42.416C38.2955 42.4209 38.2301 42.4902 38.1448 42.5711C38.0595 42.6516 37.9861 42.7129 37.9817 42.7076Z" fill="#925933"/>
<path d="M37.996 41.9342C37.9915 41.9395 37.9249 41.8929 37.8475 41.8298C37.7697 41.7667 37.7106 41.7111 37.7151 41.7058C37.7195 41.7004 37.7862 41.7471 37.8635 41.8102C37.9409 41.8733 38.0004 41.9289 37.996 41.9342Z" fill="#925933"/>
<path d="M38.894 41.4227C38.898 41.4284 38.8318 41.4782 38.7465 41.5338C38.6611 41.5893 38.5887 41.6298 38.5851 41.624C38.5811 41.6182 38.6474 41.5684 38.7327 41.5129C38.8176 41.4569 38.89 41.4169 38.894 41.4227Z" fill="#925933"/>
<path d="M39.2395 42.1316C39.2399 42.1387 39.171 42.1493 39.0857 42.1551C38.9999 42.1613 38.9306 42.1604 38.9297 42.1533C38.9292 42.1462 38.9981 42.1355 39.0839 42.1298C39.1692 42.1235 39.239 42.1244 39.2395 42.1316Z" fill="#925933"/>
<path d="M39.4654 42.9693C39.4645 42.9764 39.377 42.9733 39.269 42.9631C39.1614 42.9529 39.0743 42.9387 39.0752 42.9316C39.0761 42.9244 39.1636 42.9276 39.2716 42.9378C39.3792 42.9484 39.4663 42.9622 39.4654 42.9693Z" fill="#925933"/>
<path d="M39.3531 44.0502C39.3482 44.0551 39.2673 43.9813 39.1727 43.8858C39.078 43.7898 39.0051 43.7084 39.01 43.7036C39.0149 43.6987 39.0958 43.7724 39.1904 43.868C39.2856 43.9636 39.3584 44.0453 39.3531 44.0502Z" fill="#925933"/>
<path d="M39.0589 44.8822C39.0544 44.8871 38.9664 44.8142 38.8766 44.7058C38.7864 44.5978 38.73 44.4982 38.7358 44.4947C38.742 44.4907 38.8069 44.5831 38.8962 44.6893C38.9851 44.7964 39.0642 44.8769 39.0589 44.8822Z" fill="#925933"/>
<g opacity="0.3">
<path d="M38.0278 41.2902C38.0322 41.2836 38.0856 41.3093 38.1744 41.3698C38.2616 41.432 38.382 41.5338 38.4998 41.6884C38.6176 41.8422 38.7282 42.0502 38.7971 42.2973C38.8691 42.5436 38.8998 42.8249 38.8976 43.1173C38.894 43.4116 38.85 43.6889 38.7878 43.9342C38.7251 44.1796 38.6473 44.3938 38.5727 44.5689C38.4224 44.9191 38.2958 45.1173 38.282 45.1107C38.2642 45.1018 38.362 44.8893 38.4891 44.5364C38.6136 44.1849 38.7647 43.6831 38.7709 43.1164C38.7731 42.8333 38.7469 42.5636 38.6847 42.3284C38.6251 42.0924 38.5291 41.8933 38.4269 41.7409C38.3247 41.588 38.2189 41.4804 38.1433 41.4084C38.066 41.3378 38.0224 41.2982 38.0278 41.2902Z" fill="#040000"/>
</g>
<g opacity="0.3">
<path d="M37.7113 41.1929C37.7287 41.1969 37.694 41.4191 37.6273 41.7756C37.5616 42.132 37.4638 42.6227 37.3802 43.1671C37.3393 43.4395 37.3069 43.7 37.2829 43.9373C37.2727 44.056 37.2611 44.1689 37.2549 44.2747C37.2465 44.3804 37.242 44.4791 37.2376 44.5693C37.2216 44.9298 37.2251 45.1542 37.2056 45.1555C37.19 45.1569 37.1549 44.9333 37.1478 44.568C37.146 44.4769 37.1456 44.3769 37.1496 44.2698C37.1509 44.1622 37.1589 44.048 37.166 43.9275C37.1838 43.6871 37.2131 43.4231 37.2545 43.1484C37.3389 42.5987 37.4509 42.1089 37.5393 41.7564C37.6287 41.4044 37.6945 41.1893 37.7113 41.1929Z" fill="#040000"/>
</g>
<g opacity="0.3">
<path d="M37.3951 41.1649C37.3977 41.1742 37.3355 41.1982 37.2271 41.2475C37.1191 41.2969 36.9644 41.3733 36.7933 41.4964C36.6222 41.6187 36.4351 41.7889 36.2742 42.0142C36.1142 42.2391 35.9804 42.5187 35.9129 42.8298C35.8782 42.9853 35.8649 43.1409 35.8622 43.2915C35.8617 43.4422 35.8746 43.588 35.8951 43.7258C35.936 44.0018 36.008 44.2458 36.0724 44.4484C36.1382 44.6515 36.1995 44.8138 36.2391 44.9271C36.2791 45.0404 36.2986 45.1044 36.2902 45.108C36.2822 45.1115 36.2475 45.0542 36.1933 44.9462C36.1395 44.8382 36.0653 44.6804 35.9875 44.4782C35.9111 44.276 35.828 44.0293 35.7791 43.744C35.7546 43.6013 35.7386 43.4493 35.7373 43.2911C35.7382 43.1329 35.7515 42.9675 35.7884 42.8027C35.86 42.4724 36.0049 42.1782 36.1795 41.9449C36.3546 41.7111 36.5582 41.5391 36.7431 41.4218C36.928 41.3031 37.0937 41.2373 37.2093 41.2009C37.3257 41.1653 37.3929 41.1573 37.3951 41.1649Z" fill="#040000"/>
</g>
<path d="M39.6287 45.128H34.6416V46.012H39.6287V45.128Z" fill="#B77545"/>
<path d="M35.0146 45.8364L35.6209 48.4778H38.5933L39.2569 45.8364H35.0146Z" fill="#B77545"/>
<path d="M39.6265 46.0129C39.6265 46.0227 38.5016 46.0302 37.114 46.0302C35.726 46.0302 34.6016 46.0222 34.6016 46.0129C34.6016 46.0031 35.7265 45.9955 37.114 45.9955C38.5011 45.9955 39.6265 46.0031 39.6265 46.0129Z" fill="#925933"/>
<path d="M19.8115 27.6849L21.516 29.9884L23.8457 32.2427L25.1631 30.372L25.1404 28.5084L25.1213 26.9453C25.1213 26.9453 27.192 26.6267 27.2204 24.5569C27.2342 23.5573 27.0951 21.4973 26.9475 19.6342C26.7889 17.6302 25.1186 16.0844 23.1084 16.0813L22.9089 16.0809C20.7555 16.2036 19.6564 18.1009 19.8386 20.2502L19.8115 27.1609" fill="#F9CBB6"/>
<path d="M25.1246 26.9444C25.1246 26.9444 23.8166 27.0489 22.4277 26.1738C22.4277 26.1738 23.0633 27.664 25.1286 27.4809L25.1246 26.9444Z" fill="#987163"/>
<path d="M25.3483 21.0538C25.3812 21.012 25.6199 21.1556 25.9363 21.124C26.2528 21.0973 26.4697 20.912 26.5074 20.9476C26.5261 20.9631 26.4954 21.036 26.4012 21.1191C26.3088 21.2022 26.1457 21.2898 25.9483 21.308C25.751 21.3258 25.5781 21.2693 25.4759 21.204C25.3714 21.1391 25.3319 21.0729 25.3483 21.0538Z" fill="#22120E"/>
<path d="M22.2815 21.1693C22.3166 21.1293 22.5477 21.2853 22.865 21.2707C23.1824 21.2609 23.4086 21.0876 23.445 21.1249C23.4628 21.1413 23.4286 21.2124 23.3299 21.2907C23.233 21.3684 23.0659 21.4476 22.8677 21.4551C22.6699 21.4622 22.5002 21.3969 22.401 21.3262C22.3006 21.2556 22.2642 21.1871 22.2815 21.1693Z" fill="#22120E"/>
<path d="M24.5257 23.0609C24.5244 23.0427 24.7221 23.0089 25.0421 22.9684C25.1235 22.96 25.2004 22.944 25.2141 22.8889C25.2332 22.8302 25.1995 22.7427 25.1604 22.648C25.0844 22.4516 25.0048 22.2453 24.9212 22.0293C24.5888 21.1484 24.3488 20.424 24.3844 20.4111C24.4199 20.3982 24.7181 21.1013 25.0506 21.9827C25.1306 22.2 25.207 22.4071 25.2799 22.6049C25.3106 22.6973 25.363 22.8022 25.3217 22.9236C25.2999 22.984 25.2399 23.028 25.1879 23.0422C25.1359 23.0582 25.0901 23.0587 25.0501 23.0613C24.727 23.0778 24.527 23.0787 24.5257 23.0609Z" fill="#22120E"/>
<path d="M20.0062 21.7836C19.971 21.7684 18.5848 21.3609 18.6279 22.776C18.671 24.1911 20.0826 23.856 20.0839 23.8151C20.0853 23.7742 20.0062 21.7836 20.0062 21.7836Z" fill="#F9CBB6"/>
<path d="M19.6354 23.292C19.6292 23.2876 19.6114 23.3098 19.5701 23.3302C19.5301 23.3502 19.4608 23.3649 19.3861 23.3396C19.235 23.2893 19.1016 23.0556 19.087 22.8009C19.0794 22.6724 19.1025 22.5489 19.1452 22.4458C19.1852 22.3409 19.2501 22.2667 19.3248 22.2511C19.399 22.2316 19.4536 22.2751 19.4723 22.3142C19.4923 22.3533 19.4843 22.3818 19.4919 22.384C19.4959 22.3876 19.5216 22.3591 19.5083 22.3013C19.5016 22.2733 19.4839 22.2404 19.4501 22.2142C19.4154 22.1876 19.3648 22.1751 19.3128 22.1822C19.2039 22.1929 19.1088 22.2964 19.0621 22.4093C19.0092 22.5231 18.9803 22.6618 18.9888 22.8062C19.0065 23.0911 19.1608 23.3533 19.367 23.4062C19.4674 23.4293 19.5492 23.3964 19.5914 23.3618C19.6336 23.3262 19.6403 23.2947 19.6354 23.292Z" fill="#987163"/>
<path d="M23.6564 23.8369C23.6639 23.8098 23.9604 23.8716 24.3302 23.9049C24.6999 23.94 25.0026 23.9333 25.0053 23.9618C25.0084 23.9871 24.7013 24.0378 24.3213 24.0018C23.9413 23.9671 23.6488 23.8613 23.6564 23.8369Z" fill="#22120E"/>
<path d="M29.0618 18.976L29.196 18.1204C28.344 18.288 27.5258 17.4707 27.1213 16.98C26.8511 16.6524 26.5458 16.3542 26.2191 16.0831C25.5351 15.5156 24.9822 15.1387 24.436 14.9849C23.7293 14.7858 22.5849 14.7982 21.8991 15.06C21.2133 15.3218 20.6413 15.9636 20.6218 16.6973C20.1818 16.4004 19.5733 16.4751 19.1089 16.732C18.6444 16.9893 18.2875 17.3991 17.924 17.7862C17.5604 18.1733 17.1635 18.5564 16.6631 18.7333C16.8724 18.7369 17.0818 18.7404 17.2911 18.744C17.1346 18.88 16.9778 19.016 16.8213 19.152C17.0386 19.4831 17.5582 19.5613 17.8635 19.3084C17.8106 19.5147 17.7009 19.7062 17.5493 19.856C17.6898 20.0827 18.0489 20.1889 18.1355 20.164C18.1355 20.164 18.756 20.0138 18.7258 19.7693L19.3346 21.7356C19.5466 21.704 19.7066 21.7067 19.8586 21.816C20.0649 21.9649 20.2649 22.1764 20.5644 22.0218C20.7169 21.9431 20.8204 21.7916 20.856 21.6236C21.0924 20.5098 21.0849 19.3449 20.8355 18.2342C21.0324 17.9729 21.2582 17.7742 21.5382 17.6058C22.084 17.3471 22.7044 17.084 23.2715 17.292C23.7111 17.4533 24.0035 17.8596 24.3533 18.1716C25.0155 18.7622 25.9351 19.0276 26.8209 18.9698C26.9129 19.5378 26.9506 20.3009 27.0426 20.8689L27.4338 19.7249C27.7266 20.3351 28.4955 20.2542 28.4955 20.2542L28.68 19.5253C28.1782 19.5036 27.6786 18.9316 27.6786 18.9316C27.6786 18.9316 28.5902 19.3769 29.0618 18.976Z" fill="#22120E"/>
<path d="M28.9486 18.1405C28.9491 18.1413 28.9424 18.1462 28.9291 18.156C28.9131 18.1671 28.8931 18.1809 28.8686 18.1978C28.8162 18.2365 28.7326 18.2822 28.622 18.3365C28.3993 18.4369 28.0473 18.5467 27.6037 18.52C27.3837 18.5062 27.1429 18.4596 26.9015 18.3622C26.6597 18.2667 26.4197 18.1138 26.2153 17.9036C26.01 17.6938 25.842 17.4356 25.6744 17.1689C25.506 16.9031 25.3357 16.6227 25.1046 16.3849C24.642 15.9062 24.0126 15.6631 23.4415 15.6289C23.1549 15.6102 22.8802 15.6431 22.6335 15.7098C22.3869 15.7778 22.1673 15.876 21.9797 15.9862C21.6033 16.2085 21.3562 16.4707 21.206 16.6613C21.1669 16.7085 21.1357 16.7529 21.1091 16.7916C21.0811 16.8293 21.0593 16.8627 21.0424 16.8902C21.026 16.9151 21.0131 16.9356 21.0024 16.952C20.9931 16.9658 20.9882 16.9725 20.9873 16.972C20.9873 16.972 21.0442 16.8476 21.1909 16.6498C21.3375 16.4542 21.5833 16.1853 21.9624 15.9569C22.1513 15.8436 22.3731 15.7418 22.6233 15.6711C22.8735 15.6018 23.1531 15.5667 23.4451 15.5845C24.026 15.6169 24.6677 15.8627 25.1402 16.3516C25.3762 16.5947 25.5477 16.8782 25.7153 17.144C25.882 17.4111 26.0477 17.6662 26.2482 17.8729C26.4477 18.0791 26.6806 18.2302 26.9175 18.3253C27.154 18.4222 27.39 18.4702 27.6069 18.4858C28.0433 18.516 28.3922 18.4133 28.6153 18.3191C28.726 18.268 28.8109 18.2253 28.8646 18.1893C28.8904 18.1742 28.9109 18.1618 28.9277 18.152C28.9406 18.1436 28.9482 18.1396 28.9486 18.1405Z" fill="#3D210C"/>
<path d="M18.8223 19.6045C18.8183 19.5951 18.9961 19.5565 19.2437 19.396C19.3663 19.3156 19.505 19.2031 19.6321 19.0502C19.7606 18.8987 19.8748 18.7053 19.9481 18.4809L19.9708 18.4116L19.993 18.4809C20.0446 18.6409 20.0788 18.8173 20.0872 19.0013C20.0917 19.0911 20.089 19.1796 20.0823 19.2631L20.0406 19.2449C20.4046 18.8431 20.6014 18.3911 20.6917 18.0605C20.7379 17.8942 20.7623 17.7578 20.7761 17.6631C20.7894 17.5685 20.7957 17.516 20.7992 17.5165C20.8006 17.5165 20.801 17.5298 20.8006 17.5551C20.7992 17.5805 20.7992 17.6178 20.7939 17.6653C20.7854 17.7613 20.7659 17.9 20.7232 18.0693C20.6406 18.4058 20.4463 18.868 20.0766 19.2778L20.029 19.3307L20.0348 19.2596C20.0414 19.1782 20.0437 19.0916 20.0392 19.004C20.0312 18.8249 19.9979 18.652 19.949 18.496H19.9939C19.9174 18.7267 19.7979 18.9245 19.6641 19.0773C19.5317 19.232 19.3881 19.344 19.2606 19.4222C19.133 19.5005 19.0223 19.5467 18.9446 19.5729C18.9063 19.5871 18.8752 19.5933 18.8548 19.5996C18.8334 19.604 18.8228 19.6058 18.8223 19.6045Z" fill="#3D210C"/>
<path d="M12.3926 37.3636C12.3926 37.3636 12.6579 30.5413 14.8632 29.6707L15.3037 29.4178L17.089 37.2018L16.7246 37.6067L12.3926 37.3636Z" fill="#D19D74"/>
<path d="M33.9726 37.6062C33.9726 37.6062 33.1175 32.396 32.6406 31.484C32.3788 30.9836 32.0628 30.5471 31.7646 30.1924C31.2397 29.568 30.5326 29.124 29.7437 28.9178L25.1659 27.7036C25.1659 27.7036 22.2855 30.3004 19.7143 27.5876C19.7143 27.5876 15.6312 29.0831 15.0646 29.5689C14.4979 30.0547 15.3077 32.7471 15.3077 32.7471L16.3606 36.472L16.5668 48.5111H30.669L29.593 37.7809L33.9726 37.6062Z" fill="#D19D74"/>
<g opacity="0.3">
<path d="M28.7906 41.2724C27.4986 39.0751 26.1595 36.9053 24.7719 34.7667C24.3506 34.1173 23.8386 33.4124 23.0746 33.2867C22.539 33.1987 21.9901 33.4311 21.5817 33.7884C21.1732 34.1453 20.883 34.616 20.6128 35.0867C18.8257 38.1933 17.6946 41.2742 16.499 44.6529L16.5057 44.9022C19.0844 43.748 21.0572 41.3991 21.7759 38.6671C21.8675 38.3191 21.9417 37.96 22.1235 37.6493C22.3052 37.3391 22.6226 37.0796 22.9826 37.0804C23.5484 37.0818 23.9057 37.6689 24.1555 38.1764C24.7884 39.464 25.4684 40.7427 26.3915 41.8409C27.3146 42.9391 28.5052 43.8551 29.8879 44.2364C29.879 43.1698 29.331 42.1916 28.7906 41.2724Z" fill="#040000"/>
</g>
<path d="M25.7364 42.3227C25.7378 42.3236 25.7213 42.3449 25.6889 42.3836C25.6533 42.4253 25.6058 42.4818 25.5458 42.552C25.4836 42.6253 25.4067 42.7138 25.3138 42.8138C25.2213 42.9142 25.1182 43.0307 24.9978 43.1529C24.7613 43.4022 24.4698 43.6889 24.136 43.9973C23.8 44.3031 23.4213 44.6289 23.0093 44.9533C22.5956 45.2756 22.1884 45.5653 21.8111 45.8182C21.432 46.0684 21.0836 46.2827 20.7849 46.4524C20.6373 46.54 20.4996 46.6124 20.38 46.6778C20.2605 46.744 20.156 46.7973 20.0702 46.8404C19.9876 46.8818 19.9213 46.9147 19.8724 46.9391C19.8271 46.9613 19.8027 46.972 19.8018 46.9707C19.8009 46.9693 19.8236 46.9556 19.868 46.9307C19.916 46.904 19.9804 46.8689 20.0613 46.824C20.1458 46.7787 20.2489 46.7227 20.3671 46.6542C20.4853 46.5867 20.6213 46.5124 20.768 46.4231C21.064 46.2498 21.4098 46.0329 21.7867 45.7813C22.1618 45.5271 22.5676 45.2369 22.98 44.9156C23.3911 44.592 23.7698 44.268 24.1067 43.9649C24.4413 43.6591 24.7351 43.3756 24.9742 43.1298C25.096 43.0089 25.2009 42.8947 25.2947 42.796C25.3893 42.6978 25.4684 42.6111 25.5324 42.54C25.5951 42.472 25.6449 42.4178 25.6822 42.3778C25.716 42.3404 25.7351 42.3213 25.7364 42.3227Z" fill="#A17354"/>
<path d="M30.7421 29.2604C30.7448 29.2622 30.7181 29.3067 30.6679 29.3849C30.6168 29.4627 30.5457 29.5773 30.4612 29.7204C30.2919 30.0067 30.0795 30.4147 29.8972 30.888C29.7164 31.3618 29.6017 31.808 29.5364 32.1338C29.5035 32.2969 29.4799 32.4293 29.4657 32.5213C29.451 32.6133 29.4412 32.664 29.4377 32.6636C29.4346 32.6631 29.4377 32.6116 29.447 32.5187C29.4555 32.4258 29.4737 32.2916 29.5026 32.1271C29.5595 31.7982 29.6697 31.3476 29.8519 30.8707C30.035 30.3942 30.2541 29.9853 30.4319 29.7027C30.5204 29.5609 30.5964 29.4489 30.6524 29.3742C30.7075 29.2991 30.7395 29.2582 30.7421 29.2604Z" fill="#A17354"/>
<path d="M16.5511 32.9476C16.548 32.9484 16.5284 32.9018 16.496 32.8164C16.464 32.7311 16.416 32.608 16.3537 32.4573C16.2297 32.156 16.0409 31.7462 15.7933 31.3151C15.5444 30.8844 15.2849 30.5156 15.0862 30.2573C14.9871 30.128 14.9049 30.0244 14.8466 29.9542C14.7893 29.8836 14.7586 29.8431 14.7609 29.8409C14.7635 29.8387 14.7986 29.8747 14.8609 29.9418C14.9235 30.0084 15.0097 30.1089 15.1129 30.236C15.3191 30.4898 15.5853 30.8578 15.8351 31.2907C16.0844 31.724 16.2693 32.1382 16.3857 32.4444C16.444 32.5973 16.4875 32.7227 16.5142 32.8102C16.5409 32.8978 16.5542 32.9462 16.5511 32.9476Z" fill="#A17354"/>
<path d="M16.4565 33.8338C16.4583 33.8338 16.4592 33.8493 16.46 33.8791C16.46 33.9147 16.4605 33.9573 16.4605 34.0089C16.46 34.1218 16.4569 34.2849 16.452 34.4867C16.4396 34.8969 16.4232 35.4502 16.4049 36.0618C16.388 36.6769 16.3814 37.2338 16.3858 37.6369C16.3872 37.8382 16.3903 38.0013 16.3929 38.1142C16.3938 38.1658 16.3943 38.2089 16.3947 38.244C16.3947 38.2738 16.3938 38.2893 16.392 38.2893C16.3903 38.2893 16.388 38.2738 16.3849 38.2445C16.3818 38.2093 16.3783 38.1667 16.3743 38.1151C16.3658 38.0027 16.3574 37.8396 16.3516 37.6378C16.3387 37.2342 16.3396 36.6765 16.3565 36.0609C16.3738 35.4453 16.3992 34.8889 16.4178 34.4862C16.4276 34.2907 16.4356 34.1293 16.4418 34.0093C16.4454 33.9578 16.448 33.9151 16.4503 33.8796C16.4525 33.8493 16.4547 33.8338 16.4565 33.8338Z" fill="#A17354"/>
<path d="M29.4314 33.3502C29.4332 33.3502 29.4358 33.3671 29.4394 33.4C29.4429 33.4382 29.4474 33.4858 29.4532 33.5436C29.4643 33.668 29.4776 33.8489 29.4927 34.072C29.5229 34.5182 29.5576 35.1356 29.5838 35.8178C29.61 36.5 29.6234 37.1182 29.6274 37.5658C29.6296 37.7893 29.63 37.9707 29.6287 38.0956C29.6278 38.1538 29.6269 38.2013 29.626 38.2396C29.6247 38.2724 29.6234 38.2898 29.622 38.2898C29.6203 38.2898 29.6185 38.2724 29.6163 38.2396C29.6145 38.2013 29.6123 38.1538 29.6096 38.0956C29.6056 37.9636 29.5998 37.7844 29.5932 37.5662C29.5803 37.1191 29.5616 36.5018 29.5354 35.8196C29.5092 35.1378 29.4798 34.5209 29.4585 34.0738C29.4487 33.8556 29.4403 33.6764 29.4345 33.5444C29.4327 33.4862 29.4309 33.4387 29.43 33.4004C29.4292 33.368 29.43 33.3502 29.4314 33.3502Z" fill="#A17354"/>
<path d="M33.7518 37.6138C33.7518 37.6138 33.9096 39.3649 33.9731 40.4329C34.0713 42.0809 33.1838 45.2387 32.4144 45.4409C31.6451 45.6431 31.1189 45.6231 30.2687 44.8942C29.4184 44.1653 27.414 42.1613 26.4829 40.2987L23.75 34.9542L25.2682 33.512C25.2682 33.512 29.0362 38.1302 29.3376 38.3151C29.6384 38.5 29.6447 38.5996 29.6447 38.5996L29.6224 37.7209L33.7518 37.6138Z" fill="#F9CBB6"/>
<path d="M12.4356 37.3658C12.4356 37.3658 12.3382 38.1742 12.2716 39.2258C12.1796 40.6805 12.0284 45.6636 14.1947 45.8053C16.3609 45.9471 18.7093 41.9591 19.276 40.6836C19.8427 39.408 21.8671 35.096 21.8671 35.096L19.7818 34.4076L16.6813 37.9849L16.6031 37.6062L12.4356 37.3658Z" fill="#F9CBB6"/>
<path d="M19.7822 34.4253C19.7822 34.4253 20.4258 33.5044 20.5698 33.2822C20.7138 33.06 20.8578 32.7329 20.8444 32.5236C20.8316 32.3142 20.8453 31.5293 20.8453 31.5293C20.8453 31.5293 20.6876 31.5031 20.6089 31.2547C20.5302 31.0062 20.5698 30.6791 20.5698 30.6791C20.5698 30.6791 20.4653 30.3129 20.5173 29.9858C20.5698 29.6587 20.7267 29.2533 20.7267 29.2533C20.7267 29.2533 21.4462 28.2329 21.6818 28.1151C21.9173 27.9973 22.0351 27.9844 22.2707 28.1151C22.5062 28.2458 22.624 28.3244 22.624 28.3244C22.624 28.3244 23.0036 27.9973 23.1996 28.0889C23.3956 28.1804 24.2462 28.8213 24.364 29.1222C24.4818 29.4231 24.4818 29.2662 24.56 29.6849C24.6387 30.1036 24.6125 30.8751 24.56 30.8884C24.5076 30.9013 24.5076 30.9013 24.5076 30.9013L24.3636 30.8884C24.3636 30.8884 24.4493 31.9742 24.6093 32.2751C24.7689 32.576 25.2685 33.5298 25.2685 33.5298L23.7502 34.972C23.7502 34.972 23.644 34.564 23.4347 34.3547C23.2253 34.1453 22.7938 33.9907 22.7413 33.656C22.6889 33.3213 22.7284 33.596 22.7284 33.596C22.7284 33.596 22.82 34.08 22.6107 34.3284C22.4013 34.5769 22.1213 34.5724 21.8676 35.1133L19.7822 34.4253Z" fill="#F9CBB6"/>
<path d="M22.6867 33.488C22.6849 33.488 22.6827 33.4716 22.68 33.4396C22.6773 33.4022 22.6742 33.356 22.6702 33.3C22.6635 33.1716 22.6547 32.9978 22.6436 32.7858C22.6253 32.3444 22.6009 31.7458 22.5738 31.0813L22.5831 31.0996C22.5684 31.0876 22.5529 31.0751 22.5369 31.0622C22.3964 30.9436 22.2871 30.7973 22.2129 30.6422L22.2364 30.6556C22.0107 30.6751 21.7951 30.6147 21.6275 30.5116L21.6591 30.5C21.5764 30.7324 21.3715 30.8698 21.1898 30.9L21.2022 30.8769C21.244 30.9827 21.2373 31.0893 21.212 31.1729C21.1871 31.2573 21.1431 31.3213 21.1013 31.3658C21.0591 31.4107 21.0178 31.4356 20.9898 31.4502C20.9604 31.4636 20.9449 31.4684 20.9444 31.4671C20.9413 31.4618 21.0093 31.4427 21.0875 31.3533C21.1253 31.3084 21.1649 31.2462 21.1862 31.1653C21.208 31.0858 21.2111 30.9858 21.1711 30.8898L21.1631 30.8707L21.1835 30.8667C21.3533 30.8351 21.5444 30.7022 21.6182 30.4862L21.6267 30.4609L21.6498 30.4747C21.8107 30.5716 22.0173 30.6276 22.232 30.608L22.2484 30.6067L22.2555 30.6213C22.3275 30.7702 22.4329 30.9107 22.568 31.0249C22.5831 31.0373 22.5982 31.0493 22.6124 31.0609L22.6218 31.0684L22.6222 31.0796C22.6435 31.744 22.6631 32.3431 22.6773 32.7844C22.6818 32.9969 22.6858 33.1707 22.6884 33.2991C22.6889 33.3556 22.6889 33.4018 22.6889 33.4391C22.6893 33.4711 22.688 33.488 22.6867 33.488Z" fill="#987163"/>
<path d="M20.9791 30.0747C20.9791 30.0747 20.9573 30.0458 20.9399 29.9809C20.9319 29.9485 20.9222 29.9085 20.9226 29.8578C20.9253 29.8076 20.9471 29.752 20.9853 29.7C21.0235 29.6485 21.0759 29.5982 21.1435 29.5587C21.2106 29.5187 21.2902 29.4893 21.3751 29.4609C21.5444 29.4031 21.7395 29.3436 21.9577 29.2871C22.1764 29.2311 22.4168 29.1765 22.6795 29.1351C22.8111 29.116 22.9502 29.1036 23.0933 29.1178C23.2368 29.1298 23.3804 29.1782 23.5137 29.2471C23.6479 29.3147 23.7764 29.3978 23.9142 29.4662C23.9831 29.5005 24.0564 29.5316 24.1262 29.5742C24.1955 29.616 24.2631 29.6747 24.3004 29.7547C24.3373 29.8347 24.3408 29.9218 24.3439 30.0036C24.3466 30.0858 24.3493 30.1689 24.3519 30.2525C24.3573 30.4196 24.3631 30.5889 24.3684 30.7605C24.3702 30.8165 24.3719 30.8729 24.3737 30.9285L24.3742 30.9485L24.3542 30.9529C24.2355 30.9791 24.1124 30.9458 24.0155 30.8853C23.9173 30.8249 23.8382 30.7382 23.7848 30.6396C23.6782 30.4418 23.6586 30.2231 23.6373 30.0236L23.6586 30.0445C23.1453 30.0013 22.6897 29.852 22.2759 29.7631C22.0697 29.7178 21.8715 29.6751 21.6911 29.7071C21.5111 29.7391 21.3631 29.8329 21.2351 29.9182C21.1071 30.0067 20.9915 30.0853 20.8973 30.1622C20.8031 30.2387 20.7297 30.3129 20.6773 30.3791C20.5728 30.5129 20.5488 30.6049 20.5439 30.6027C20.5439 30.6027 20.5484 30.5796 20.5662 30.5387C20.5835 30.4978 20.6137 30.4382 20.6648 30.3698C20.7159 30.3009 20.7888 30.224 20.8826 30.1449C20.9768 30.0658 21.0911 29.9849 21.2186 29.8947C21.3466 29.8071 21.4964 29.7089 21.6853 29.6733C21.8746 29.6382 22.0782 29.6813 22.2848 29.7249C22.7013 29.8116 23.1564 29.9582 23.6622 29.9987L23.6813 30L23.6835 30.0191C23.7048 30.2187 23.7262 30.4311 23.8266 30.6169C23.8764 30.708 23.9502 30.7885 24.0404 30.844C24.1302 30.8996 24.2395 30.928 24.3435 30.9053L24.3244 30.9298C24.3226 30.8742 24.3208 30.8182 24.3191 30.7618C24.3137 30.5902 24.3079 30.4209 24.3026 30.2538C24.2999 30.1702 24.2973 30.0871 24.2946 30.0049C24.2919 29.9236 24.2875 29.8427 24.2559 29.7742C24.2244 29.7058 24.1662 29.6538 24.1004 29.6138C24.0346 29.5733 23.9626 29.5422 23.8924 29.5071C23.7515 29.4365 23.6235 29.3529 23.4924 29.2862C23.3617 29.2182 23.2262 29.1716 23.0879 29.1596C22.9502 29.1453 22.8142 29.1565 22.6844 29.1742C22.4239 29.2133 22.1831 29.2658 21.9653 29.3196C21.7475 29.3738 21.5524 29.4311 21.3826 29.4862C21.2977 29.5133 21.2195 29.5409 21.1542 29.5782C21.0888 29.6151 21.0368 29.6622 20.9995 29.7107C20.9622 29.7596 20.9404 29.8116 20.9364 29.8582C20.9346 29.9049 20.9422 29.9462 20.9488 29.9778C20.9635 30.0431 20.9813 30.0738 20.9791 30.0747Z" fill="#987163"/>
<path d="M21.6755 29.0378C21.688 29.0356 21.712 29.1231 21.6933 29.2311C21.6751 29.3396 21.6235 29.4142 21.6124 29.408C21.6 29.4018 21.6288 29.3231 21.6453 29.2231C21.6631 29.1231 21.6617 29.0396 21.6755 29.0378Z" fill="#987163"/>
<path d="M20.7268 29.2529C20.7241 29.2507 20.7463 29.2191 20.7894 29.1644C20.8334 29.1107 20.8926 29.0284 20.9863 28.9427C21.0334 28.9009 21.0872 28.8587 21.1432 28.8124C21.1997 28.7667 21.2583 28.7151 21.3254 28.6649C21.4579 28.5662 21.6223 28.4689 21.8183 28.4418C22.0139 28.4156 22.2014 28.4676 22.3494 28.544C22.4992 28.6213 22.6126 28.724 22.697 28.8164C22.7814 28.9093 22.8392 28.9933 22.8766 29.052C22.9139 29.1111 22.9312 29.1458 22.9286 29.1471C22.921 29.1529 22.8419 29.0182 22.6717 28.8396C22.5859 28.752 22.4734 28.6551 22.329 28.5836C22.1859 28.512 22.0077 28.4649 21.8246 28.4893C21.6414 28.5147 21.4823 28.6058 21.3517 28.7C21.2859 28.7476 21.2263 28.7978 21.1681 28.8427C21.1103 28.888 21.0557 28.9284 21.0081 28.9676C20.9148 29.0467 20.8512 29.1258 20.8028 29.1756C20.7566 29.228 20.7294 29.2551 20.7268 29.2529Z" fill="#987163"/>
<path d="M22.9147 28.1071C22.9218 28.1191 22.7889 28.2089 22.6409 28.3382C22.492 28.4671 22.3849 28.5862 22.3738 28.5773C22.3636 28.5698 22.456 28.4333 22.6089 28.3013C22.7609 28.1689 22.9085 28.096 22.9147 28.1071Z" fill="#987163"/>
<path d="M23.3567 29.18C23.354 29.1849 23.3202 29.1751 23.2767 29.14C23.2331 29.1053 23.1833 29.0422 23.1558 28.9604C23.1287 28.8787 23.1309 28.7982 23.1451 28.7444C23.1589 28.6902 23.1802 28.6618 23.1855 28.6644C23.1989 28.6684 23.15 28.796 23.202 28.9453C23.2495 29.0956 23.3647 29.1684 23.3567 29.18Z" fill="#987163"/>
<path d="M24.0237 29.2724C24.0348 29.2796 24.0126 29.3307 23.9557 29.364C23.8993 29.3978 23.8437 29.3933 23.8428 29.3804C23.841 29.3667 23.8846 29.3507 23.9308 29.3222C23.9779 29.2951 24.0126 29.2644 24.0237 29.2724Z" fill="#987163"/>
<path d="M22.6693 30.4636C22.6809 30.4689 22.6164 30.5773 22.4782 30.6289C22.3404 30.6822 22.2204 30.644 22.2258 30.6325C22.228 30.6182 22.3386 30.6316 22.4613 30.5836C22.5849 30.5378 22.6582 30.4542 22.6693 30.4636Z" fill="#987163"/>
<path d="M23.0926 30.896C23.1037 30.9022 23.0237 31.0129 22.8708 31.0618C22.7184 31.1125 22.5886 31.0707 22.5939 31.0587C22.5961 31.0445 22.7175 31.0618 22.8557 31.0156C22.9948 30.9716 23.0824 30.8858 23.0926 30.896Z" fill="#987163"/>
<path d="M23.1486 29.9849C23.1375 29.9916 23.0855 29.9222 23.0535 29.8218C23.0211 29.7213 23.0233 29.6347 23.0362 29.6338C23.0499 29.6325 23.0691 29.712 23.0997 29.8071C23.1295 29.9022 23.1606 29.9782 23.1486 29.9849Z" fill="#987163"/>
<path d="M16.7039 37.96C16.7052 37.9609 16.6959 37.9747 16.6772 38.0004C16.6577 38.0253 16.6314 38.0644 16.5914 38.1093C16.515 38.2022 16.3937 38.3289 16.2252 38.4649C16.0568 38.6 15.8385 38.7382 15.5852 38.8684C15.3328 39.0004 15.0479 39.128 14.7554 39.2738C14.463 39.4196 14.1905 39.5711 13.9599 39.7338C13.7274 39.8942 13.5394 40.0671 13.4021 40.2302C13.1252 40.5582 13.0621 40.8276 13.0492 40.8204C13.0474 40.82 13.0519 40.804 13.0617 40.7738C13.0728 40.744 13.0839 40.6982 13.1092 40.6436C13.1554 40.532 13.2394 40.3769 13.3754 40.2084C13.511 40.04 13.6999 39.8613 13.9337 39.6973C14.1657 39.5307 14.4399 39.3764 14.7337 39.2302C15.0274 39.084 15.3128 38.9578 15.5648 38.8284C15.8172 38.7009 16.0345 38.5676 16.2039 38.4373C16.3728 38.3067 16.4963 38.1849 16.5768 38.0964C16.6581 38.0089 16.7008 37.9573 16.7039 37.96Z" fill="#987163"/>
<path d="M33.2352 40.9293C33.2219 40.936 33.181 40.6738 32.9321 40.3507C32.6903 40.0244 32.2228 39.6862 31.6468 39.4578C31.3583 39.3431 31.0774 39.2453 30.8254 39.148C30.573 39.0511 30.3485 38.9556 30.1659 38.8636C29.9828 38.7716 29.8401 38.6871 29.7445 38.6244C29.6961 38.5938 29.6605 38.5676 29.6357 38.5502C29.6112 38.5324 29.5988 38.5227 29.5997 38.5213C29.6019 38.5182 29.6557 38.5511 29.7543 38.6084C29.8525 38.6658 29.997 38.7453 30.181 38.8324C30.3645 38.9204 30.589 39.0116 30.8414 39.1062C31.0939 39.2009 31.3743 39.2973 31.665 39.4124C32.2468 39.6431 32.7201 39.9916 32.9597 40.3298C33.0814 40.496 33.1534 40.6484 33.1899 40.7569C33.2108 40.8102 33.2183 40.8547 33.2268 40.8836C33.2339 40.9133 33.2365 40.9289 33.2352 40.9293Z" fill="#987163"/>
<path d="M25.2689 33.512C25.2689 33.512 25.2591 33.4978 25.2427 33.4684C25.2253 33.4369 25.2018 33.3938 25.1716 33.3387C25.1089 33.2218 25.0187 33.0538 24.9036 32.8391C24.8458 32.7307 24.7818 32.6102 24.7116 32.4791C24.6764 32.4133 24.64 32.3449 24.6022 32.2738C24.5645 32.2004 24.5387 32.1191 24.5164 32.0347C24.4329 31.696 24.3849 31.304 24.3449 30.872L24.3427 30.8498L24.3653 30.8516C24.4093 30.8556 24.4591 30.86 24.5093 30.8644L24.5031 30.8649L24.5551 30.8516C24.5542 30.8507 24.5502 30.8533 24.5502 30.8542L24.5516 30.8516C24.5529 30.8493 24.5538 30.8453 24.5551 30.8422C24.5573 30.8347 24.5596 30.8267 24.5613 30.8182C24.5684 30.7844 24.572 30.7484 24.5756 30.7124C24.5822 30.64 24.5853 30.5662 24.5876 30.4911C24.5911 30.3413 24.5889 30.1871 24.5796 30.0298C24.5702 29.872 24.5516 29.7138 24.5151 29.5524C24.4973 29.472 24.4818 29.3911 24.4409 29.3213C24.3973 29.2493 24.3653 29.1649 24.3311 29.0898C24.2951 29.0173 24.2396 28.9502 24.1818 28.8867C24.1244 28.8222 24.0609 28.7618 23.996 28.7018C23.8662 28.5822 23.7271 28.468 23.5818 28.3573C23.5093 28.3018 23.4351 28.2484 23.3591 28.196C23.3209 28.1707 23.2822 28.1449 23.2431 28.1218C23.2022 28.0987 23.1671 28.0769 23.124 28.0791C23.0382 28.0796 22.9507 28.1187 22.8702 28.1636C22.7893 28.2089 22.7116 28.2644 22.6396 28.3244L22.6262 28.3356L22.6102 28.3262C22.5364 28.2827 22.46 28.2373 22.3822 28.1911C22.304 28.1453 22.2262 28.0947 22.1427 28.0618C22.0658 28.0307 21.9844 28.0187 21.9053 28.0364C21.8271 28.0533 21.748 28.0889 21.6778 28.1284C21.612 28.1702 21.5529 28.2324 21.4964 28.292C21.4396 28.3524 21.3858 28.4151 21.3329 28.4787C21.1227 28.7324 20.9293 28.9929 20.7462 29.2484L20.7489 29.2436C20.6604 29.4818 20.584 29.7218 20.5422 29.9591C20.5049 30.1956 20.536 30.4356 20.5907 30.6547L20.5916 30.6591L20.5911 30.6631C20.5751 30.8271 20.5769 30.992 20.6071 31.1458C20.6236 31.2218 20.6467 31.2964 20.6871 31.3591C20.7253 31.4209 20.7849 31.4751 20.8484 31.4916L20.8653 31.496L20.8649 31.5116C20.8604 31.7542 20.8573 31.9862 20.8569 32.2062C20.8569 32.3164 20.8578 32.4227 20.8618 32.5271C20.8618 32.6351 20.8333 32.7351 20.8018 32.8284C20.7351 33.0142 20.6476 33.1778 20.5507 33.3164C20.4542 33.4547 20.3662 33.5813 20.2862 33.696C20.1271 33.9227 20.0022 34.1004 19.9156 34.2244C19.8733 34.2831 19.8409 34.3289 19.8173 34.3622C19.7947 34.3933 19.7822 34.408 19.7822 34.408C19.7822 34.408 19.7916 34.3907 19.8124 34.3587C19.8351 34.3249 19.8662 34.2778 19.9062 34.2178C19.9907 34.0929 20.1124 33.9129 20.2676 33.6836C20.4156 33.4493 20.6467 33.188 20.7716 32.8182C20.8018 32.7267 20.8284 32.6289 20.828 32.528C20.8231 32.4249 20.8218 32.3164 20.8213 32.2067C20.8204 31.9862 20.8227 31.7542 20.8258 31.5116L20.8422 31.5316C20.7573 31.5102 20.6973 31.4498 20.6533 31.3822C20.6089 31.3138 20.5844 31.2347 20.5671 31.1556C20.5351 30.9956 20.5329 30.8289 20.5489 30.6596L20.5498 30.668C20.4924 30.4422 20.46 30.2 20.4982 29.9529C20.5404 29.7093 20.6169 29.4693 20.7058 29.2276L20.7067 29.2249L20.7085 29.2222C20.892 28.9649 21.0849 28.7044 21.2964 28.4484C21.3493 28.3844 21.404 28.3209 21.4618 28.2596C21.52 28.1982 21.5773 28.1364 21.6542 28.0871C21.7302 28.0444 21.8084 28.0093 21.8964 27.9893C21.9844 27.9693 22.0796 27.9836 22.1613 28.0169C22.2516 28.0524 22.3293 28.1036 22.408 28.1498C22.4867 28.1964 22.5636 28.2422 22.6382 28.2862L22.6089 28.288C22.6844 28.2253 22.7631 28.1693 22.8476 28.1218C22.9316 28.0756 23.0227 28.0324 23.1258 28.0311L23.1649 28.0347C23.1778 28.0382 23.1907 28.0427 23.2031 28.0467C23.2267 28.0564 23.2476 28.0684 23.268 28.0804C23.3089 28.1044 23.348 28.1307 23.3867 28.1564C23.4636 28.2093 23.5382 28.2636 23.6111 28.3196C23.7569 28.4311 23.8969 28.5462 24.028 28.6676C24.0933 28.7284 24.1573 28.7898 24.216 28.856C24.2751 28.9213 24.332 28.9889 24.3724 29.0707C24.4093 29.1516 24.4369 29.2271 24.4804 29.3C24.5249 29.3769 24.5409 29.4636 24.5587 29.5436C24.5947 29.7053 24.6138 29.8693 24.6222 30.0271C24.6311 30.1858 24.6329 30.3409 24.6284 30.492C24.6262 30.5676 24.6227 30.6422 24.6156 30.716C24.612 30.7529 24.608 30.7893 24.6 30.8262C24.5982 30.8356 24.5956 30.8449 24.5929 30.8542C24.5907 30.8596 24.5898 30.864 24.5862 30.8698L24.5804 30.8787C24.5778 30.8822 24.5693 30.8876 24.5649 30.8889L24.5129 30.9018L24.5098 30.9027L24.5067 30.9022C24.4564 30.8973 24.4067 30.8929 24.3627 30.8889L24.3831 30.8684C24.4209 31.2987 24.4662 31.6911 24.5462 32.0262C24.5676 32.1098 24.592 32.1889 24.6276 32.2596C24.6649 32.3311 24.7004 32.4 24.7347 32.4662C24.8031 32.5982 24.8658 32.7191 24.9222 32.8284C25.0338 33.0449 25.1209 33.2147 25.1813 33.3329C25.2098 33.3893 25.2316 33.4333 25.248 33.4653C25.2627 33.496 25.2689 33.512 25.2689 33.512Z" fill="#987163"/>
<path d="M22.6108 34.3111C22.6064 34.3076 22.6331 34.2791 22.6606 34.2164C22.6891 34.1547 22.718 34.0587 22.726 33.936C22.7362 33.8129 22.7246 33.6689 22.6957 33.5062L22.6935 33.4907L22.6926 33.4827L22.6922 33.4787C22.6926 33.4769 22.6908 33.4813 22.6926 33.4684C22.6935 33.4653 22.6957 33.4596 22.7019 33.4551C22.7082 33.4507 22.7162 33.4507 22.7202 33.4516C22.7282 33.4538 22.7291 33.4556 22.7304 33.4565C22.734 33.4605 22.7366 33.4667 22.7375 33.472L22.7384 33.476L22.7397 33.484L22.7424 33.4996C22.746 33.5204 22.7495 33.5413 22.7531 33.5627C22.7597 33.6058 22.7668 33.6489 22.7775 33.6884C22.8015 33.7698 22.8548 33.8436 22.9197 33.9085C23.0522 34.0382 23.2113 34.1271 23.3424 34.2293C23.4797 34.3276 23.5646 34.4613 23.6193 34.5725C23.6748 34.6853 23.7073 34.7813 23.7273 34.8485C23.7468 34.9156 23.7531 34.9538 23.7499 34.9547C23.7419 34.9573 23.7037 34.8067 23.5891 34.5884C23.5304 34.4804 23.4491 34.3582 23.3153 34.2653C23.186 34.1676 23.0251 34.08 22.8855 33.9431C22.8171 33.8747 22.7584 33.7938 22.7317 33.7027C22.7197 33.656 22.7131 33.6125 22.7068 33.5702C22.7037 33.5489 22.7002 33.528 22.6971 33.5076L22.6944 33.492L22.6931 33.4845L22.6926 33.4809C22.6931 33.4822 22.6935 33.484 22.6944 33.4853L22.6962 33.4871L22.6971 33.488C22.7002 33.4858 22.7077 33.4791 22.7122 33.4747C22.7117 33.4738 22.6953 33.4982 22.7082 33.4956C22.7122 33.4969 22.7202 33.4973 22.7264 33.4933C22.7326 33.4893 22.7348 33.484 22.7357 33.4813C22.7375 33.4698 22.7362 33.4751 22.7366 33.4747L22.7371 33.4782L22.7379 33.4858L22.7397 33.5009C22.766 33.6618 22.7748 33.8151 22.7597 33.94C22.7473 34.0658 22.7117 34.164 22.6771 34.2258C22.6597 34.2569 22.6437 34.2791 22.6304 34.2925C22.6188 34.3053 22.6122 34.312 22.6108 34.3111Z" fill="#987163"/>
<g opacity="0.56">
<path d="M41.3605 48.512C41.3605 48.5253 33.1858 48.5364 23.1045 48.5364C13.0196 48.5364 4.84668 48.5258 4.84668 48.512C4.84668 48.4987 13.0196 48.4875 23.1045 48.4875C33.1858 48.488 41.3605 48.4987 41.3605 48.512Z" fill="#F4D7BF" stroke="#EEB995" stroke-width="3" stroke-miterlimit="10"/>
</g>
<path d="M23.4876 20.024C23.4578 20.1213 23.1049 20.0924 22.6956 20.1622C22.2849 20.2236 21.9587 20.36 21.9001 20.2769C21.8738 20.2369 21.9272 20.144 22.0569 20.0449C22.1854 19.9458 22.3934 19.848 22.6392 19.8084C22.8849 19.7698 23.1134 19.7982 23.2663 19.8524C23.4205 19.9062 23.5 19.9778 23.4876 20.024Z" fill="#22120E"/>
<path d="M26.3918 19.9698C26.334 20.0529 26.0882 19.9813 25.7971 19.9911C25.506 19.9907 25.2629 20.0702 25.202 19.9893C25.1753 19.9498 25.21 19.868 25.314 19.7871C25.4162 19.7067 25.5904 19.6364 25.7909 19.6329C25.9909 19.6298 26.1678 19.6942 26.2726 19.7711C26.3793 19.8484 26.4171 19.9293 26.3918 19.9698Z" fill="#22120E"/>
<path d="M21.7797 23.0178C21.8148 23.1907 22.2317 23.2827 22.7104 23.2231C23.1895 23.1636 23.549 22.9751 23.5139 22.8022C23.4788 22.6293 23.0619 22.5373 22.5833 22.5969C22.1046 22.6565 21.7446 22.8449 21.7797 23.0178Z" fill="#E8A3A0"/>
<path d="M27.1098 22.012C27.124 22.144 27.1369 22.276 27.1471 22.4213C27.1533 22.5133 27.1565 22.5409 27.1631 22.664C27.1627 22.6724 27.1649 22.7391 27.1645 22.7475C27.1649 22.792 27.1676 22.8373 27.1667 22.8809C26.5258 22.9529 26.0329 22.8431 26.0431 22.6209C26.052 22.4089 26.5067 22.1444 27.1098 22.012Z" fill="#E8A3A0"/>
<path d="M18.8217 9.54578C18.7831 9.54578 18.752 9.51734 18.752 9.48223V6.63289C18.752 6.59778 18.7831 6.56934 18.8217 6.56934C18.8604 6.56934 18.8915 6.59778 18.8915 6.63289V9.48223C18.8915 9.51734 18.8604 9.54578 18.8217 9.54578Z" fill="#F4D7BF"/>
<path d="M17.7096 9.12844C17.6919 9.12844 17.6736 9.12222 17.6603 9.10978C17.6328 9.08489 17.6328 9.04489 17.6603 9.02L19.8834 7.00489C19.911 6.98 19.955 6.98 19.9825 7.00489C20.0101 7.02978 20.0101 7.06978 19.9825 7.09467L17.7594 9.10978C17.7456 9.12222 17.7279 9.12844 17.7096 9.12844Z" fill="#F4D7BF"/>
<path d="M20.3935 8.12089H17.2495C17.2108 8.12089 17.1797 8.09244 17.1797 8.05733C17.1797 8.02222 17.2108 7.99377 17.2495 7.99377H20.3935C20.4321 7.99377 20.4632 8.02222 20.4632 8.05733C20.4632 8.09244 20.4321 8.12089 20.3935 8.12089Z" fill="#F4D7BF"/>
<path d="M19.9328 9.12844C19.915 9.12844 19.8968 9.12222 19.8834 9.10978L17.6603 7.09467C17.6328 7.06978 17.6328 7.02978 17.6603 7.00489C17.6874 6.98 17.7319 6.98 17.7594 7.00489L19.9825 9.02C20.0101 9.04489 20.0101 9.08489 19.9825 9.10978C19.9683 9.12222 19.9505 9.12844 19.9328 9.12844Z" fill="#F4D7BF"/>
</g>
</g>
<defs>
<clipPath id="clip0_1141_47610">
<rect width="48" height="48" rx="24" fill="white"/>
</clipPath>
<clipPath id="clip1_1141_47610">
<rect width="48" height="48" fill="white"/>
</clipPath>
</defs>
</svg>
