<svg width="48" height="48" viewBox="0 0 48 48" fill="none" xmlns="http://www.w3.org/2000/svg">
<g clip-path="url(#clip0_1146_49383)">
<rect width="48" height="48" rx="24" fill="white"/>
<path opacity="0.7" d="M36.6747 36.6143C36.3886 37.2393 36.0862 37.8546 35.7368 38.4412C31.7096 45.2101 20.2673 48.8946 14.1953 41.8982C12.7486 40.2306 12.1784 38.2156 11.1685 36.3033C8.87118 31.9535 4.8315 29.3529 2.18862 25.3257C0.13998 22.2038 0.21198 18.2025 1.12206 14.8271C2.11086 11.1599 4.02798 8.59767 7.19214 6.65079C10.7393 4.46775 14.6667 5.07447 18.643 5.83383C20.4315 6.17559 22.2747 6.52407 24.0814 6.39351C26.3432 6.23031 28.5541 5.57271 30.7909 5.25303C33.1169 4.92087 35.5429 4.84215 37.8315 5.56599C45.1601 7.88631 47.3662 18.7574 44.6792 24.9849C43.7278 27.189 42.0238 28.8902 40.4475 30.6153C38.7464 32.4786 37.7345 34.3017 36.6747 36.6143Z" fill="#EFEFEF"/>
<path opacity="0.51" d="M41.5813 11.3318C41.8885 11.3519 42.1554 11.4383 42.3819 11.5919C42.7535 11.8425 42.9915 12.2524 43.0933 12.8217C43.1557 13.1702 43.1576 13.511 43.0981 13.846C43.0386 14.1801 42.9215 14.5075 42.7487 14.8262C42.5749 15.1449 42.3512 15.455 42.0757 15.7564L42.2293 16.6099L40.94 16.8422L40.7375 15.719C40.9621 15.4684 41.156 15.1996 41.3202 14.9126C41.4843 14.6255 41.6015 14.3299 41.6735 14.0265C41.7445 13.7231 41.7531 13.4198 41.6984 13.1183C41.66 12.9033 41.5928 12.7555 41.4968 12.6739C41.4008 12.5923 41.2779 12.5654 41.1272 12.5923C40.988 12.6172 40.8863 12.6777 40.8229 12.7727C40.7595 12.8678 40.7403 12.9887 40.7663 13.1337C40.7826 13.2268 40.8085 13.3075 40.8411 13.3766C40.8747 13.4457 40.9131 13.5177 40.9573 13.5935L39.7304 14.1206C39.6584 13.99 39.5979 13.8614 39.549 13.7356C39.4991 13.6099 39.4616 13.4745 39.4357 13.3286C39.3435 12.8179 39.4271 12.3907 39.6853 12.047C39.8149 11.8751 39.9839 11.7331 40.1941 11.6217M41.2319 18.7055L40.989 17.3558L42.3733 17.1062L42.6162 18.4559L41.2319 18.7055Z" fill="#C4C4C4"/>
<path opacity="0.51" d="M35.6634 22.6464L35.8775 21.9956C36.0675 21.9274 36.2471 21.841 36.416 21.7364C36.585 21.6317 36.7309 21.5088 36.8557 21.3696C36.9795 21.2295 37.0707 21.072 37.1283 20.8973C37.1696 20.7725 37.1763 20.6756 37.1495 20.6045C37.1226 20.5344 37.065 20.4845 36.9776 20.4557C36.897 20.4288 36.8259 20.4317 36.7655 20.4644C36.705 20.497 36.6599 20.5546 36.633 20.6391C36.6157 20.6928 36.6051 20.7428 36.6032 20.7888C36.6013 20.8349 36.6003 20.8839 36.6023 20.9367L35.8045 20.8647C35.8045 20.7754 35.8093 20.69 35.8189 20.6093C35.8285 20.5287 35.8477 20.4461 35.8755 20.3626C35.9725 20.0669 36.1386 19.8653 36.3738 19.7578C36.608 19.6503 36.8941 19.6522 37.2301 19.7626C37.5699 19.874 37.8023 20.0496 37.9271 20.2877C38.0519 20.5268 38.0595 20.8109 37.9511 21.1402C37.8848 21.3418 37.7879 21.5223 37.6611 21.6826C37.5344 21.842 37.3789 21.9812 37.1965 22.1002C37.0141 22.2192 36.8067 22.3191 36.5754 22.3988L36.4131 22.8932L35.6634 22.6464ZM35.2842 23.712L35.5415 22.9296L36.344 23.1936L36.0867 23.976L35.2842 23.712Z" fill="#C4C4C4"/>
<path opacity="0.51" d="M44.5164 23.8003C44.526 24.1469 44.4656 24.5222 44.3331 24.9245C44.1708 25.417 43.9347 25.8586 43.6246 26.2474C43.3145 26.6371 42.9363 26.977 42.4908 27.2669C42.0444 27.5568 41.5395 27.8006 40.974 27.9965L40.5766 29.2042L38.7536 28.6042L39.2767 27.0144C39.7414 26.8483 40.1791 26.6381 40.591 26.3818C41.0028 26.1264 41.3609 25.8269 41.6643 25.4851C41.9676 25.1434 42.1894 24.7594 42.3305 24.3322C42.4303 24.0288 42.4476 23.7898 42.3814 23.6179C42.3151 23.4461 42.175 23.3251 41.9619 23.2541C41.7651 23.1888 41.5923 23.1965 41.4435 23.2742C41.2947 23.353 41.1862 23.495 41.119 23.6995C41.0758 23.831 41.0518 23.953 41.047 24.0653C41.0422 24.1776 41.0412 24.2976 41.0441 24.4262L39.0953 24.2496C39.0944 24.0307 39.1059 23.8234 39.1299 23.6256C39.1539 23.4288 39.199 23.2272 39.2671 23.0218C39.5052 22.2989 39.9103 21.8064 40.4835 21.5443C41.0566 21.2822 41.7536 21.2861 42.5753 21.5568C43.4048 21.8294 43.9712 22.2576 44.2764 22.8403C44.3705 23.0198 44.4368 23.2099 44.4771 23.4106M37.8271 31.2086L38.455 29.2992L40.4143 29.9434L39.7865 31.8528L37.8271 31.2086Z" fill="#C4C4C4"/>
<g opacity="0.51">
<path d="M4.0149 23.6471C4.43659 23.4084 4.58489 22.873 4.34613 22.4513C4.10737 22.0296 3.57196 21.8813 3.15027 22.1201C2.72857 22.3588 2.58027 22.8942 2.81903 23.3159C3.05779 23.7376 3.5932 23.8859 4.0149 23.6471Z" fill="#C4C4C4"/>
<path d="M8.88266 23.0237C8.88266 23.1984 8.74154 23.3396 8.56682 23.3396C8.3921 23.3396 8.25098 23.1984 8.25098 23.0237C8.25098 22.849 8.3921 22.7079 8.56682 22.7079C8.74154 22.7079 8.88266 22.849 8.88266 23.0237Z" fill="#C4C4C4"/>
<path d="M3.40758 10.4583C3.40758 10.6714 3.23478 10.8442 3.02166 10.8442C2.80854 10.8442 2.63574 10.6714 2.63574 10.4583C2.63574 10.2452 2.80854 10.0724 3.02166 10.0724C3.23478 10.0724 3.40758 10.2452 3.40758 10.4583Z" fill="#C4C4C4"/>
<path opacity="0.51" d="M37.0448 14.8166C37.0448 14.9913 36.9036 15.1324 36.7289 15.1324C36.5542 15.1324 36.4131 14.9913 36.4131 14.8166C36.4131 14.6419 36.5542 14.5007 36.7289 14.5007C36.9036 14.5007 37.0448 14.6419 37.0448 14.8166Z" fill="#C4C4C4"/>
<path d="M26.9873 34.487C27.3945 34.487 27.7246 34.1569 27.7246 33.7497C27.7246 33.3425 27.3945 33.0125 26.9873 33.0125C26.5801 33.0125 26.25 33.3425 26.25 33.7497C26.25 34.1569 26.5801 34.487 26.9873 34.487Z" fill="#C4C4C4"/>
<path d="M24.2441 29.9039C24.2441 30.1074 24.079 30.2726 23.8755 30.2726C23.672 30.2726 23.5068 30.1074 23.5068 29.9039C23.5068 29.7004 23.672 29.5353 23.8755 29.5353C24.079 29.5353 24.2441 29.7004 24.2441 29.9039Z" fill="#C4C4C4"/>
<path opacity="0.51" d="M32.3993 12.7047C32.3993 13.0339 32.1324 13.3018 31.8022 13.3018C31.4729 13.3018 31.2051 13.0349 31.2051 12.7047C31.2051 12.3754 31.472 12.1075 31.8022 12.1075C32.1324 12.1075 32.3993 12.3754 32.3993 12.7047Z" fill="#C4C4C4"/>
<path opacity="0.51" d="M42.9991 6.84293C43.3093 6.84293 43.5607 6.59149 43.5607 6.28133C43.5607 5.97116 43.3093 5.71973 42.9991 5.71973C42.6889 5.71973 42.4375 5.97116 42.4375 6.28133C42.4375 6.59149 42.6889 6.84293 42.9991 6.84293Z" fill="#C4C4C4"/>
<path opacity="0.51" d="M21.3783 4.94785C21.8046 4.94785 22.1501 4.60229 22.1501 4.17601C22.1501 3.74974 21.8046 3.40417 21.3783 3.40417C20.952 3.40417 20.6064 3.74974 20.6064 4.17601C20.6064 4.60229 20.952 4.94785 21.3783 4.94785Z" fill="#C4C4C4"/>
</g>
<g opacity="0.51">
<path d="M3.85884 22.2289L3.28956 20.4557L2.94492 20.6122L2.67708 19.9709L3.09084 19.7837L2.84988 19.0177L2.35548 19.2413L2.07324 18.5847L2.66844 18.3149L2.20092 16.8663L2.86524 16.5658L3.32604 18.0173L3.81468 17.7965L3.34716 16.3479L4.00476 16.0503L4.46556 17.5018L4.79772 17.3511L5.0742 18.0106L4.64892 18.2036L4.8966 18.9668L5.391 18.7431L5.65884 19.3844L5.09532 19.6397L5.65212 21.4177L5.00124 21.7124L4.43868 19.9373L3.95004 20.1581L4.5126 21.9332L3.85884 22.2289ZM3.74268 19.489L4.23708 19.2653L3.99612 18.4993L3.50748 18.7201L3.74268 19.489Z" fill="#C4C4C4"/>
<path d="M7.70356 15.936L7.81684 16.1866C8.0194 16.633 8.08084 17.0083 8.00116 17.3107C7.92148 17.6131 7.66516 17.8627 7.23028 18.0595C6.8002 18.2544 6.445 18.2803 6.16468 18.1382C5.8834 17.9962 5.64148 17.6995 5.437 17.2493L5.33524 17.0237C5.12692 16.5648 5.06356 16.1904 5.1442 15.9024C5.22484 15.6144 5.485 15.3706 5.92276 15.1718C6.36148 14.9731 6.71572 14.9366 6.98548 15.0605C7.10356 15.1152 7.21588 15.2006 7.32148 15.3187M6.93556 17.4077C7.04404 17.3587 7.10932 17.2944 7.13236 17.2166C7.15444 17.1389 7.14676 17.041 7.10932 16.9248C7.07188 16.8086 7.01812 16.6733 6.94804 16.5187L6.877 16.3622C6.76948 16.1242 6.6754 15.9571 6.59668 15.8592C6.517 15.7622 6.3922 15.7517 6.22132 15.8294C6.05428 15.9053 5.9794 16.0042 5.99764 16.127C6.01588 16.2499 6.07828 16.4304 6.1858 16.6685L6.2626 16.8374C6.33268 16.992 6.39796 17.1206 6.46036 17.2234C6.5218 17.3261 6.59092 17.3942 6.66676 17.4278C6.74164 17.4624 6.83188 17.4557 6.93556 17.4077ZM8.83732 19.9738L8.09908 14.1946L8.6626 13.9392L9.4066 19.7155L8.83732 19.9738ZM11.5839 18.7373C11.1538 18.9322 10.7996 18.9581 10.5212 18.815C10.2428 18.672 10.0008 18.3754 9.79732 17.9242L9.69556 17.6986C9.48724 17.2397 9.42292 16.8662 9.50164 16.5792C9.58036 16.2922 9.8386 16.0493 10.2773 15.8506C10.716 15.6518 11.0703 15.6154 11.34 15.7392C11.6098 15.864 11.8488 16.1549 12.0572 16.6147L12.1676 16.8595C12.372 17.3107 12.4344 17.687 12.3548 17.9894C12.2741 18.2909 12.0178 18.5405 11.5839 18.7373ZM11.2882 18.0864C11.3967 18.0374 11.462 17.9731 11.485 17.8954C11.5071 17.8176 11.5004 17.7216 11.4639 17.6064C11.4274 17.4922 11.3736 17.3578 11.3036 17.2032L11.2268 17.0342C11.1192 16.7962 11.0261 16.6301 10.9474 16.5341C10.8687 16.439 10.7439 16.4304 10.573 16.5072C10.406 16.583 10.3311 16.6819 10.3493 16.8048C10.3676 16.9277 10.43 17.1082 10.5375 17.3462L10.6143 17.5152C10.6844 17.6698 10.7496 17.7984 10.812 17.9011C10.8735 18.0038 10.9426 18.072 11.0184 18.1056C11.0943 18.1402 11.1845 18.1334 11.2882 18.0864Z" fill="#C4C4C4"/>
<path d="M13.3465 17.9309L12.9155 16.9786L13.8803 16.5418L14.3113 17.4941L13.3465 17.9309ZM13.0758 16.4995L11.0742 12.863L12.0889 12.4032L13.4272 16.3411L13.0758 16.4995Z" fill="#C4C4C4"/>
</g>
<g opacity="0.51">
<path opacity="0.51" d="M4.09082 29.1657L4.81946 28.198L4.6073 28.0732L4.8473 27.6901L5.1017 27.8399L5.4185 27.4242L5.11322 27.2457L5.3561 26.8492L5.72282 27.0642L6.31706 26.2722L6.72602 26.5122L6.12794 27.3023L6.42842 27.4789L7.02266 26.6869L7.42778 26.925L6.8297 27.7151L7.03418 27.8351L6.78746 28.2297L6.52538 28.0761L6.21242 28.4946L6.51674 28.6732L6.27674 29.0562L5.92922 28.8527L5.1929 29.8165L4.79162 29.5813L5.5241 28.6156L5.22362 28.4389L4.49114 29.4047L4.09082 29.1657ZM5.50298 28.0751L5.80826 28.2537L6.12506 27.838L5.82362 27.6613L5.50298 28.0751Z" fill="#C4C4C4"/>
<path d="M8.87812 28.8469L8.78788 29.0014C8.6266 29.2769 8.45092 29.4497 8.25988 29.5217C8.06884 29.5928 7.84036 29.5505 7.57252 29.3931C7.30756 29.2376 7.15972 29.059 7.12996 28.8565C7.1002 28.6539 7.16644 28.4139 7.32964 28.1365L7.41124 27.9973C7.57732 27.7141 7.75204 27.5403 7.9354 27.475C8.11876 27.4097 8.34532 27.4568 8.61604 27.6152C8.8858 27.7736 9.03844 27.9483 9.07396 28.1384C9.08932 28.2219 9.08548 28.3131 9.06244 28.4139M7.80772 28.9918C7.87492 29.0312 7.93252 29.0417 7.9834 29.0245C8.03332 29.0072 8.08228 28.9669 8.13028 28.9025C8.17828 28.8392 8.23012 28.7595 8.2858 28.6645L8.34244 28.5685C8.42884 28.4216 8.4826 28.3093 8.50468 28.2305C8.52676 28.1518 8.48452 28.0817 8.37892 28.0193C8.2762 27.9589 8.19556 27.9569 8.137 28.0117C8.07844 28.0673 8.00644 28.1681 7.92004 28.315L7.8586 28.4187C7.80292 28.5137 7.75876 28.5973 7.72804 28.6683C7.69636 28.7393 7.6858 28.8017 7.69636 28.8545C7.70596 28.9083 7.7434 28.9534 7.80772 28.9918ZM7.15876 30.9646L9.95236 28.4024L10.2999 28.6059L7.50916 31.171L7.15876 30.9646ZM8.84644 31.9601C8.58148 31.8046 8.4346 31.6261 8.4058 31.4245C8.377 31.2229 8.4442 30.9829 8.6074 30.7054L8.689 30.5662C8.85508 30.283 9.02884 30.1093 9.21124 30.043C9.39364 29.9768 9.61924 30.0229 9.88996 30.1813C10.1597 30.3397 10.3124 30.5144 10.3479 30.7045C10.3834 30.8945 10.3181 31.1317 10.152 31.4139L10.0637 31.5646C9.90052 31.842 9.72388 32.0168 9.5338 32.0888C9.34276 32.1598 9.11332 32.1166 8.84644 31.9601ZM9.08164 31.5588C9.14884 31.5982 9.20644 31.6088 9.25732 31.5915C9.30724 31.5742 9.35524 31.5339 9.40228 31.4715C9.44932 31.4091 9.50116 31.3304 9.55684 31.2353L9.61828 31.1317C9.70468 30.9848 9.75748 30.8734 9.7786 30.7957C9.79972 30.7179 9.75748 30.6488 9.65188 30.5864C9.54916 30.5259 9.46852 30.524 9.40996 30.5787C9.3514 30.6344 9.2794 30.7352 9.193 30.8821L9.13156 30.9857C9.07588 31.0808 9.03172 31.1643 9.00004 31.2353C8.96836 31.3064 8.9578 31.3688 8.96836 31.4216C8.97988 31.4753 9.01732 31.5214 9.08164 31.5588Z" fill="#C4C4C4"/>
<path d="M9.93555 32.5948L10.2792 32.0082L10.8735 32.3567L10.5298 32.9432L9.93555 32.5948ZM10.5951 31.9122L11.7759 29.4834L12.4008 29.8501L10.8111 32.0399L10.5951 31.9122Z" fill="#C4C4C4"/>
</g>
<path d="M29.4436 20.6899C28.9857 20.7696 28.3771 20.9069 27.8836 21.1229C26.9668 21.5242 25.7217 21.527 25.7217 21.527C25.7217 21.527 25.258 20.7187 25.1111 20.6141C24.9652 20.5085 24.7531 20.303 24.6715 20.1936C24.5899 20.0842 24.4343 19.9939 24.3451 20.1494C24.2548 20.305 24.4075 20.4346 24.4919 20.5037C24.5764 20.5728 24.8625 21.0086 24.8625 21.0086L24.7377 21.0816C24.7377 21.0816 22.4731 20.8051 22.4126 20.8733C22.3521 20.9414 22.3444 21.0614 22.4471 21.0998C22.5489 21.1382 23.4599 21.3552 23.5703 21.3782C23.6817 21.4013 23.5339 21.5846 23.5339 21.5846C23.5339 21.5846 21.9739 21.4877 21.9844 21.577C21.995 21.6662 22.0391 21.7334 22.1966 21.7824C22.354 21.8323 23.6318 21.9514 23.6318 21.9514C23.6318 21.9514 23.6615 22.1136 23.579 22.1491C23.4964 22.1846 22.4577 22.224 22.3751 22.2595C22.2926 22.295 22.3406 22.4266 22.4519 22.4486C22.5633 22.4717 23.6587 22.5475 23.6587 22.5475C23.6587 22.5475 23.075 22.7683 22.9521 22.801C22.8292 22.8336 22.8686 22.9805 23.0529 22.9843C23.2372 22.9882 24.131 22.6973 24.131 22.6973L25.451 22.5302C25.451 22.5302 28.2561 22.5667 29.4436 22.4573V20.6899Z" fill="#EFCDBB" stroke="#DDB9A8" stroke-width="0.096" stroke-miterlimit="10"/>
<path d="M24.7371 21.0806C24.7371 21.0806 24.6277 21.7775 24.8072 21.9129C24.9867 22.0473 25.2114 22.0473 25.2114 22.0473" fill="#EFCDBB"/>
<path d="M24.7371 21.0806C24.7371 21.0806 24.6277 21.7775 24.8072 21.9129C24.9867 22.0473 25.2114 22.0473 25.2114 22.0473" stroke="#DDB9A8" stroke-width="0.096" stroke-miterlimit="10"/>
<path d="M13.3178 23.4882L13.0106 33.0085C13.0106 33.0085 12.4385 34.0155 12.1937 35.1051C11.9489 36.1947 10.723 39.571 10.723 39.571C10.723 39.571 9.9876 40.5243 10.097 40.796C10.2055 41.0686 10.2881 41.9394 10.2881 41.9394C10.2881 41.9394 9.38952 44.1992 9.82536 44.4987C10.2612 44.7982 11.731 44.6898 11.922 44.4171C12.113 44.1445 12.2215 41.9394 12.2215 41.9394C12.2215 41.9394 12.3847 41.5851 12.4663 41.3134C12.5479 41.0408 12.739 40.1422 12.739 40.1422C12.739 40.1422 15.8426 34.6146 16.0337 34.0155C16.2247 33.4165 16.4417 32.2184 16.4695 32.1099C16.4964 32.0014 17.3047 27.7093 17.3047 27.7093L20.227 33.8254C20.227 33.8254 19.5194 35.6494 19.4647 37.3928C19.41 39.1352 19.1383 41.6408 19.1383 41.6408C19.1383 41.6408 18.8935 41.5592 18.8657 41.8856C18.8388 42.212 18.593 42.8926 18.593 43.1922C18.593 43.4917 18.402 44.0907 18.7015 44.2539C19.001 44.4171 20.9892 44.2808 21.2062 44.2808C21.4241 44.2808 22.8948 44.5803 23.4391 44.4987C23.9834 44.4171 24.2292 43.9266 24.065 43.8728C23.9018 43.8181 22.867 43.3554 22.5943 43.1653C22.3217 42.9742 21.5873 42.2667 21.5873 42.2667C21.5873 42.2667 21.7236 41.8856 21.6958 41.7762C21.6689 41.6677 21.4778 40.9592 21.4778 40.9592C21.4778 40.9592 22.458 36.1938 22.7306 35.1867C23.0033 34.1797 23.2212 33.4712 23.1386 32.9816C23.057 32.491 20.9335 25.2757 20.9335 25.2757L20.7156 23.7234L13.5002 22.8795L13.3178 23.4882Z" fill="#595B5B"/>
<path d="M18.4617 11.9097L15.9734 12.0594C15.9734 12.0594 14.9635 12.0037 14.4211 12.3772C13.8787 12.7516 10.8105 18.0076 10.8105 18.0076L12.6249 18.5692L14.6073 16.5676C14.6073 16.5676 13.6531 20.5708 13.56 21.0949C13.4669 21.6191 13.1433 24.7093 13.1433 24.765C13.1433 24.8207 15.5568 25.9813 16.8662 25.9247C18.1757 25.869 20.7254 25.1884 20.9126 25.0761C21.0998 24.9637 20.9654 24.3033 20.9472 24.2476C20.9289 24.1919 20.7811 22.2921 20.7811 22.2921L21.96 17.6908L23.4941 20.8146L25.0464 20.0101L23.2877 14.8847C23.2877 14.8847 22.5581 13.8556 21.9782 13.3698C21.3984 12.8831 19.8269 12.2284 19.8269 12.2284L18.4617 11.9097Z" fill="#C4C4C4"/>
<path d="M16.9173 24.5643C16.4853 24.7189 16.0946 24.8418 15.8027 24.9032" stroke="#263238" stroke-width="0.096" stroke-miterlimit="10"/>
<path d="M20.4292 23.1072C20.4292 23.1072 18.779 23.8637 17.3467 24.4061" stroke="#263238" stroke-width="0.096" stroke-miterlimit="10"/>
<path d="M19.2215 24.1084C19.2215 24.1084 17.7364 24.6604 17.1152 24.8678" stroke="#263238" stroke-width="0.096" stroke-miterlimit="10"/>
<path d="M17.0283 19.3208C17.3038 19.7365 17.5813 20.108 17.805 20.3106" stroke="#263238" stroke-width="0.096" stroke-miterlimit="10"/>
<path d="M15.8027 17.2377C15.8027 17.2377 16.2059 18.0009 16.6879 18.7862" stroke="#263238" stroke-width="0.096" stroke-miterlimit="10"/>
<path d="M15.3887 17.6515C15.3887 17.6515 16.148 18.7564 16.4591 19.102" stroke="#263238" stroke-width="0.096" stroke-miterlimit="10"/>
<path d="M19.828 12.2274L18.4629 11.9097L17.3896 11.974C17.9167 13.1423 19.3375 16.7778 19.4613 16.7001C19.5823 16.6242 20.7708 13.8143 21.1864 12.8677C20.5423 12.525 19.828 12.2274 19.828 12.2274Z" fill="#263238" stroke="#263238" stroke-width="0.096" stroke-miterlimit="10"/>
<path d="M12.6259 18.5693L13.7971 17.3875L12.001 16.0109C11.3424 17.0995 10.8115 18.0086 10.8115 18.0086L12.6259 18.5693Z" fill="#EFCDBB"/>
<path d="M22.4219 18.6297L23.4942 20.8137L25.0465 20.0092L24.3313 17.9241L22.4219 18.6297Z" fill="#EFCDBB"/>
<path d="M24.4875 16.4936C24.4875 16.4936 24.692 16.9294 24.7323 17.3518C24.7736 17.7742 24.9915 19.5032 25.0453 19.7893C25.1 20.0753 25.2363 21.2187 25.0722 21.5182C24.909 21.8177 24.2552 21.9406 23.9691 21.7909C23.6831 21.6411 23.2069 20.9192 23.2203 20.5649C23.2338 20.2107 23.6562 18.1275 23.6562 18.0862C23.6562 18.0449 23.4248 17.9365 23.1253 17.6504C22.8258 17.3643 22.6895 16.9697 22.6895 16.9697L23.3019 16.0577L24.4875 16.4936Z" fill="#EFCDBB" stroke="#DDB9A8" stroke-width="0.096" stroke-miterlimit="10"/>
<path d="M23.4521 15.7447C23.4521 15.7447 22.7849 15.3502 22.6351 15.282C22.4854 15.2138 21.9132 15.2551 21.6684 15.3367C21.4236 15.4183 21.655 15.6497 21.75 15.6775C21.845 15.7044 22.3625 15.691 22.3625 15.691L22.9346 16.0586L23.4386 15.8954L23.4521 15.7447Z" fill="#EFCDBB"/>
<path d="M24.2421 17.2423C24.2421 17.2423 24.3237 17.1472 24.4188 17.2557C24.5138 17.3642 24.0242 17.8144 23.9013 17.7597C23.7785 17.705 22.5535 17.0656 22.4719 16.9562C22.3903 16.8477 23.0441 15.7984 23.0441 15.7984C23.0441 15.7984 23.2889 15.6218 23.453 15.7437C23.6172 15.8656 23.7525 15.9482 23.7525 15.9482C23.7525 15.9482 24.2287 16.3024 24.3516 16.384C24.4745 16.4656 24.5282 16.602 24.5695 16.7248" fill="#EFCDBB"/>
<path d="M24.2011 16.5214C24.2011 16.5214 23.6568 17.0935 23.5608 17.2154C23.4657 17.3383 23.4792 17.5015 23.5061 17.5418" stroke="#D6AF9D" stroke-width="0.096" stroke-miterlimit="10"/>
<path d="M23.7112 16.0442C23.7112 16.0442 23.0027 16.9562 22.9759 17.0656C22.949 17.1751 22.9346 17.297 22.9346 17.297" stroke="#D6AF9D" stroke-width="0.096" stroke-miterlimit="10"/>
<path d="M22.4718 16.9572C22.4718 16.9572 22.227 17.298 22.3086 17.393C22.3902 17.488 22.949 17.8423 23.044 17.8154C23.139 17.7885 23.3032 17.4746 23.2888 17.4343C23.2754 17.392 22.4718 16.9572 22.4718 16.9572Z" fill="#EFCDBB"/>
<path d="M19.3385 6.46561C19.3385 6.46561 18.3315 6.81889 18.1088 7.61665C17.886 8.41441 18.3833 9.68353 18.4486 10.0762C18.5139 10.4688 18.5532 11.1619 18.5139 11.2138C18.4745 11.2666 18.2259 11.9328 18.2259 11.9328C18.2259 11.9328 18.7491 13.607 19.0236 14.2483C19.2982 14.8896 19.5075 15.3475 19.5862 15.1901C19.6649 15.0336 20.5808 12.1421 20.5808 12.1421C20.5808 12.1421 21.2614 12.4819 21.6924 12.2467C22.1244 12.0115 22.3462 10.9517 22.3462 10.9517C22.3462 10.9517 22.6601 10.7165 22.6995 10.4938C22.7388 10.271 22.4115 10.2451 22.5555 9.80065C22.6995 9.35617 22.8828 8.61025 22.5948 7.96897C22.3068 7.32769 21.9017 6.79201 20.9993 6.52993C20.0969 6.26977 19.3385 6.46561 19.3385 6.46561Z" fill="#EFCDBB"/>
<path d="M23.822 10.6464L22.7852 11.0812" stroke="#263238" stroke-width="0.096" stroke-miterlimit="10"/>
<path d="M22.7354 11.616L23.2038 11.6832" stroke="#263238" stroke-width="0.096" stroke-miterlimit="10"/>
<path d="M22.5342 12.0681L23.4375 12.7526" stroke="#263238" stroke-width="0.096" stroke-miterlimit="10"/>
<path d="M22.5948 7.96989C22.3068 7.32861 21.9017 6.79293 20.9993 6.53085C20.0969 6.26877 19.3385 6.46557 19.3385 6.46557C19.3385 6.46557 18.3315 6.81885 18.1088 7.61661C17.886 8.41437 18.3833 9.68349 18.4486 10.0761C18.4486 10.0761 18.6838 9.93213 18.7232 9.78813C18.7625 9.64413 18.5532 8.95101 18.8278 8.74173C19.1024 8.53245 19.5209 8.83293 19.5737 9.06909C19.6256 9.30429 19.7312 9.42237 19.8876 9.31773C20.0451 9.21309 20.0182 8.99037 20.1104 8.88573C20.2016 8.78109 20.6988 8.68989 20.7123 8.33661C20.7257 7.98333 20.359 7.73469 20.4502 7.55133C20.5222 7.40829 22.0332 7.98525 22.6889 8.24349C22.6659 8.15037 22.6352 8.05917 22.5948 7.96989Z" fill="#383227"/>
<path d="M18.8154 9.93213C18.8154 9.93213 18.8941 10.128 19.0113 10.1932C19.1293 10.2585 19.3511 10.1414 19.3511 10.1414C19.3511 10.1414 19.233 10.6905 19.4951 10.9785" stroke="#D6AF9D" stroke-width="0.072" stroke-miterlimit="10" stroke-linecap="round"/>
<path d="M22.1109 9.8083C22.0898 9.95134 22.0121 10.0579 21.9372 10.0473C21.8623 10.0368 21.8181 9.91198 21.8393 9.76894C21.8604 9.6259 21.9381 9.51934 22.013 9.5299C22.0879 9.54046 22.1311 9.66526 22.1109 9.8083Z" fill="#383227"/>
<path d="M21.7582 9.22559C21.7582 9.22559 22.268 9.64415 22.3208 9.57887C22.3726 9.51359 22.4254 9.51359 22.2296 9.34367C22.0328 9.17375 21.6929 9.02975 21.7582 9.22559Z" fill="#383227" stroke="#383227" stroke-width="0.096" stroke-miterlimit="10"/>
<path d="M21.8264 11.5488C21.6699 11.8099 21.4395 11.9587 21.3128 11.8829C21.186 11.8061 21.21 11.5334 21.3665 11.2723C21.523 11.0112 21.7534 10.8624 21.8801 10.9382C22.0068 11.015 21.9828 11.2886 21.8264 11.5488Z" fill="#383227"/>
<path d="M20.5804 12.143L19.9785 11.7245L20.2924 12.9667L20.5804 12.143Z" fill="#D6AF9D"/>
<path d="M28.2236 23.4461C28.2236 23.4461 28.5433 30.1181 28.7516 31.2893C28.96 32.4605 29.1424 32.929 29.2979 33.6317C29.4544 34.3344 31.6182 40.8749 31.7747 41.3434C31.9312 41.8119 32.0089 42.4368 32.0089 42.4368C32.0089 42.4368 31.8006 42.9053 31.072 43.296C30.3433 43.6867 29.4323 44.0247 29.3286 44.2071C29.2249 44.3895 29.4323 44.6237 29.6406 44.7015C29.8489 44.7792 31.2544 44.7274 31.5923 44.7274C31.9302 44.7274 33.0236 44.4413 33.2579 44.4413C33.4921 44.4413 34.4291 44.3895 34.6633 44.2589C34.8976 44.1283 34.4291 42.984 34.1689 42.5155C33.9088 42.0471 33.518 41.3443 33.518 40.824C33.518 40.3037 32.414 33.4925 32.414 33.4925L32.2844 25.632L32.3363 22.3527L28.2236 23.4461Z" fill="#C4C4C4"/>
<path d="M34.6631 44.2591C34.8973 44.1285 34.4288 42.9842 34.1687 42.5157C33.9085 42.0472 33.5178 41.3445 33.5178 40.8242C33.5178 40.7388 33.49 40.5007 33.4429 40.1647C32.7268 40.5228 31.9559 40.4968 31.4807 40.4268C31.6362 40.9173 31.7447 41.2543 31.7744 41.3445C31.9309 41.813 32.0087 42.438 32.0087 42.438C32.0087 42.438 31.8004 42.9064 31.0717 43.2972C30.3431 43.6879 29.432 44.0258 29.3284 44.2082C29.2247 44.3906 29.432 44.6248 29.6404 44.7026C29.8487 44.7804 31.2541 44.7285 31.592 44.7285C31.93 44.7285 33.0234 44.4424 33.2576 44.4424C33.4919 44.4415 34.4288 44.3887 34.6631 44.2591Z" fill="#444444"/>
<path d="M33.9796 42.8335C33.4948 43.1301 32.2017 43.2645 32.2017 43.2645C32.2017 43.2645 32.2285 42.8604 32.1748 42.6722C32.121 42.4841 31.9319 42.4025 31.9319 42.4025C31.9319 42.4025 31.7159 42.8873 30.9623 43.2914C30.2077 43.6956 29.265 44.046 29.1575 44.2341C29.05 44.4223 29.265 44.6652 29.481 44.7458C29.697 44.8265 31.1514 44.7727 31.5018 44.7727C31.8522 44.7727 32.9841 44.4761 33.226 44.4761C33.4679 44.4761 34.4385 44.4223 34.6813 44.2879C34.8983 44.1679 34.5345 43.2098 34.2628 42.6607C34.1927 42.7029 34.1015 42.7586 33.9796 42.8335Z" fill="#747575"/>
<path d="M34.7191 43.8856C34.0644 43.8299 33.3885 44.1563 32.6906 44.3358C31.9447 44.5288 31.0778 44.5038 30.0669 44.5288C29.584 44.5403 29.2999 44.4693 29.1338 44.3925C29.1645 44.5403 29.322 44.6872 29.4804 44.7467C29.6964 44.8273 31.1507 44.7736 31.5011 44.7736C31.8515 44.7736 32.9834 44.4769 33.2253 44.4769C33.4672 44.4769 34.4378 44.4232 34.6807 44.2888C34.7594 44.2446 34.7604 44.0901 34.7191 43.8856Z" fill="white" stroke="#515151" stroke-width="0.096" stroke-miterlimit="10"/>
<path d="M30.1761 25.1635C30.1761 25.1635 31.6075 31.9824 31.8676 32.711C32.1278 33.4397 33.898 36.3283 34.522 37.3699C35.147 38.4106 36.5889 42.1507 36.5889 42.1507C36.5889 42.1507 36.1204 42.9571 35.7297 43.3997C35.339 43.8422 34.7927 44.1283 34.6622 44.2589C34.5316 44.3894 34.9223 44.6237 35.1307 44.6496C35.339 44.6755 36.5102 44.519 36.9268 44.4413C37.3435 44.3635 37.9943 43.7386 38.3582 43.4525C38.723 43.1664 39.3614 42.889 39.2106 42.576C39.1012 42.3504 38.1038 41.4855 38.1499 41.3175C38.1499 41.3175 37.1236 37.8643 36.6033 35.808C36.2884 34.5658 35.7441 33.6221 35.146 32.6323C34.547 31.6435 34.4174 31.487 34.4174 31.487C34.4174 31.487 35.1719 24.8765 34.6516 23.471C34.1313 22.0656 33.3499 21.5453 33.3499 21.5453L29.6279 23.3933" fill="#C4C4C4"/>
<path d="M38.1505 41.3174C38.1505 41.3174 37.9796 40.6684 37.7329 39.9148C37.5726 40.0454 37.3595 40.3122 37.1099 40.4332C36.7095 40.6271 36.4014 40.7922 36.0414 40.7759C36.4321 41.6025 36.5886 42.1506 36.5886 42.1506C36.5886 42.1506 36.1201 42.957 35.7294 43.3996C35.3387 43.8422 34.7924 44.1282 34.6619 44.2588C34.5313 44.3894 34.922 44.6236 35.1303 44.6495C35.3387 44.6754 36.5099 44.519 36.9265 44.4412C37.3431 44.3634 37.994 43.7385 38.3579 43.4524C38.7227 43.1663 39.3707 42.8841 39.2103 42.5759C39.1239 42.4098 38.1409 41.5199 38.1505 41.3174Z" fill="#444444"/>
<path d="M38.475 41.7543C38.3656 42.0816 38.2561 42.1412 38.1054 42.2756C37.9278 42.434 37.2404 42.8544 37.2404 42.8544C37.2404 42.8544 37.1099 42.5684 36.9544 42.3341C36.7979 42.0999 36.5896 42.1517 36.5896 42.1517C36.5896 42.1517 36.1211 42.9581 35.7304 43.4007C35.3396 43.8432 34.7934 44.1293 34.6628 44.2599C34.5323 44.3904 34.923 44.6247 35.1313 44.6506C35.3396 44.6765 36.5108 44.52 36.9275 44.4423C37.3441 44.3645 37.995 43.7396 38.3588 43.4535C38.7236 43.1674 39.2891 42.9159 39.2113 42.577C39.1739 42.4167 38.7054 41.9636 38.475 41.7543Z" fill="#747575"/>
<path d="M35.131 44.6497C35.3393 44.6756 36.5105 44.5191 36.9272 44.4414C37.3438 44.3636 37.9947 43.7386 38.3585 43.4526C38.7233 43.1665 39.2888 42.915 39.211 42.5761C39.1985 42.5242 39.1409 42.4407 39.0603 42.3447C38.6312 42.7441 37.603 43.6916 37.2747 43.9105C36.8561 44.1898 36.2753 44.3521 35.7166 44.3991C35.1589 44.4452 34.6625 44.2599 34.6625 44.2599C34.5329 44.3886 34.9227 44.6228 35.131 44.6497Z" fill="white" stroke="#515151" stroke-width="0.096" stroke-miterlimit="10"/>
<path d="M25.8273 8.49304C25.8273 8.49304 25.2033 9.45688 25.2302 9.76888C25.2571 10.0809 25.2436 10.4342 25.0948 10.5695C24.9451 10.7049 24.5246 10.773 24.5111 10.9228C24.4977 11.0726 24.8366 11.3846 24.8366 11.3846C24.8366 11.3846 24.8635 12.837 25.0132 12.9868C25.163 13.1366 26.3572 13.0002 26.3572 13.0002L27.131 15.2399L28.5566 13.8009L28.1764 12.1986C28.1764 12.1986 28.9636 11.7503 28.9367 11.0178C28.9099 10.2844 27.0359 9.04984 26.6971 8.85976C26.3563 8.66968 25.8273 8.49304 25.8273 8.49304Z" fill="#EFCDBB"/>
<path d="M26.601 7.70584C26.601 7.70584 25.8954 6.89176 25.3655 7.19032C24.8365 7.48888 24.7818 8.43928 25.0266 8.6428C25.2714 8.84632 25.9223 8.9548 25.9223 8.9548C25.9223 8.9548 26.289 9.76888 26.7642 10.0406C27.2394 10.3122 27.5245 10.4342 27.5245 10.4342L27.6599 10.6924C27.6599 10.6924 28.0266 10.4476 28.1754 10.5023C28.3251 10.557 28.569 10.774 28.4605 11.1945C28.352 11.615 27.9719 11.9279 27.8221 11.9682C27.6723 12.0086 27.7002 12.2265 27.7002 12.2265C27.7002 12.2265 26.7229 12.5519 26.8448 13.3535C26.9667 14.1542 27.9575 14.399 28.2426 14.2905C28.5277 14.182 28.9895 13.8566 29.1661 13.9238C29.3427 13.991 29.8717 14.3577 30.2115 14.2358C30.5514 14.1138 30.9987 13.2854 30.8221 12.7967C30.6455 12.3081 30.1299 12.2399 30.008 11.7791C29.8861 11.3174 30.5514 10.3535 30.1712 9.34936C29.7911 8.3452 28.9223 7.9516 28.0131 7.66648C27.1031 7.37944 26.601 7.70584 26.601 7.70584Z" fill="#383227"/>
<path d="M25.309 11.9403C25.3378 12.0756 25.3158 12.1956 25.261 12.2071C25.2063 12.2187 25.1382 12.1179 25.1094 11.9825C25.0806 11.8471 25.1026 11.7271 25.1574 11.7156C25.213 11.7041 25.2812 11.8039 25.309 11.9403Z" fill="#383227"/>
<path d="M25.5766 10.6511C25.6551 10.6511 25.7187 10.5355 25.7187 10.3929C25.7187 10.2503 25.6551 10.1346 25.5766 10.1346C25.4982 10.1346 25.4346 10.2503 25.4346 10.3929C25.4346 10.5355 25.4982 10.6511 25.5766 10.6511Z" fill="#383227"/>
<path d="M25.4359 9.76884C25.4359 9.76884 25.9457 10.1874 25.9985 10.1221C26.0503 10.0568 26.1031 10.0568 25.9073 9.88692C25.7105 9.71604 25.3707 9.57204 25.4359 9.76884Z" fill="#383227" stroke="#383227" stroke-width="0.096" stroke-miterlimit="10"/>
<path d="M28.5419 13.8009C28.0178 13.823 27.5493 14.1465 27.341 14.6284C27.2114 14.927 27.0654 15.3379 26.9243 15.8975C26.5298 17.4575 26.404 18.2457 26.6738 18.623C26.9426 18.9993 28.036 20.111 28.036 20.111L28.1714 23.8895C28.1714 23.8895 30.3141 23.5487 31.659 23.0831C33.004 22.6166 33.7931 21.8083 33.7931 21.8083C33.7931 21.8083 31.3701 18.7497 31.3528 18.6777C31.3346 18.6057 30.9765 16.1318 30.3131 15.0921C29.6498 14.0524 29.0037 13.7855 28.5563 13.8019C28.5506 13.8009 28.5467 13.8009 28.5419 13.8009Z" fill="#7B7C7C"/>
<path d="M29.4709 14.7677C29.4709 14.7677 29.0408 14.1763 28.5387 14.2119C28.0366 14.2474 27.7678 14.6419 28.0011 15.7536C28.2344 16.8653 29.5966 20.5229 29.5966 20.5229C29.5966 20.5229 28.5214 21.2938 27.9291 22.1002C27.3377 22.9066 26.2616 23.5344 26.2616 23.5344C26.2616 23.5344 25.4552 23.0679 25.2757 23.0506C25.0961 23.0323 24.8091 22.9613 24.6843 22.9075C24.5585 22.8538 24.38 22.8538 24.38 23.0333C24.38 23.2128 24.5768 23.2483 24.6843 23.2666C24.7918 23.2848 25.2584 23.5171 25.2584 23.5171L25.1864 23.6429C25.1864 23.6429 23.0888 24.5395 23.0705 24.6288C23.0523 24.7181 23.1061 24.8256 23.2136 24.8083C23.3211 24.7901 24.2177 24.5213 24.3253 24.4858C24.4328 24.4503 24.3973 24.6826 24.3973 24.6826C24.3973 24.6826 22.9985 25.3815 23.0523 25.4535C23.1061 25.5255 23.1781 25.561 23.3393 25.5255C23.5006 25.4899 24.6661 24.9514 24.6661 24.9514C24.6661 24.9514 24.7736 25.0771 24.7198 25.1482C24.6661 25.2202 23.7877 25.776 23.7339 25.8471C23.6801 25.9191 23.7877 26.0083 23.8952 25.9728C24.0027 25.9373 24.9886 25.4525 24.9886 25.4525C24.9886 25.4525 24.5941 25.9363 24.5048 26.0266C24.4155 26.1159 24.523 26.2234 24.6843 26.1341C24.8456 26.0448 25.4734 25.345 25.4734 25.345L26.5313 24.5386C26.5313 24.5386 29.9739 22.6023 30.3137 22.1722C30.6545 21.7421 31.3179 20.9712 31.2997 20.8099C31.2814 20.6487 31.1739 20.3261 31.1739 20.3261C31.1739 20.3261 30.7793 17.6189 30.26 16.3287C29.7397 15.0365 29.4709 14.7677 29.4709 14.7677Z" fill="#EFCDBB"/>
<path d="M14.8057 15.2687C14.8057 15.2687 30.1484 21.142 30.5602 21.142C30.9721 21.142 32.4543 20.0168 32.4543 20.0168" stroke="#3A3837" stroke-width="0.192" stroke-miterlimit="10" stroke-linecap="round"/>
<path d="M31.3839 18.48L27.8838 21.1229" stroke="#3A3837" stroke-width="0.192" stroke-miterlimit="10" stroke-linecap="round"/>
<path d="M27.8438 19.9075C27.8438 19.9075 31.1097 20.8128 32.9212 20.6486" stroke="#3A3837" stroke-width="0.192" stroke-miterlimit="10" stroke-linecap="round"/>
<path d="M31.877 19.3314L28.0898 21.5269" stroke="#3A3837" stroke-width="0.192" stroke-miterlimit="10" stroke-linecap="round"/>
<path d="M27.5957 19.6329L30.972 16.4764" stroke="#3A3837" stroke-width="0.192" stroke-miterlimit="10" stroke-linecap="round"/>
<path d="M15.2305 15.097C15.2305 15.097 15.5223 15.0855 15.7354 14.8282C15.9485 14.5699 16.0157 14.9856 15.9821 15.1757C15.9485 15.3658 15.3197 15.6807 15.3197 15.6807L15.2305 15.097Z" fill="#EFCDBB"/>
<path d="M14.5695 17.2876C14.5695 17.2876 13.7929 22.9353 14.4025 23.8108C15.0121 24.6863 15.4441 22.677 15.2434 20.8857C15.0428 19.0943 14.7701 16.319 14.7701 16.319" stroke="#3A3837" stroke-width="0.192" stroke-miterlimit="10" stroke-linecap="round"/>
<path d="M14.4518 17.9356C14.4518 17.9356 13.5734 22.2009 14.1667 22.8489C14.76 23.4969 15.2275 21.9762 15.0595 20.6313C14.8925 19.2863 14.6707 17.2021 14.6707 17.2021" stroke="#3A3837" stroke-width="0.192" stroke-miterlimit="10" stroke-linecap="round"/>
<path d="M14.071 14.8781L13.3145 17.3184C13.3145 17.3184 11.2006 17.5766 10.9596 17.6966C10.7187 17.8166 10.2031 18.3494 10.1686 18.8649C10.134 19.3805 10.6668 19.8278 11.4233 19.6896C12.1798 19.5523 14.0182 17.9712 14.0182 17.9712C14.0182 17.9712 14.2591 17.9366 14.4483 17.7475C14.6374 17.5584 14.8947 17.1974 14.8947 17.1974C14.8947 17.1974 15.2556 17.1801 15.3075 17.0601C15.3593 16.9401 15.5139 15.9254 15.5311 15.72C15.5484 15.5145 15.6857 15.1872 15.4284 15.1181C15.1702 15.0509 14.2774 14.7408 14.071 14.8781Z" fill="#EFCDBB"/>
<path d="M14.4004 15.3552L15.4996 15.6019" stroke="#D6AF9D" stroke-width="0.096" stroke-miterlimit="10"/>
<path d="M14.4004 15.9274L15.4103 16.1405" stroke="#D6AF9D" stroke-width="0.096" stroke-miterlimit="10"/>
<path d="M14.4111 16.4764L15.3654 16.5772" stroke="#D6AF9D" stroke-width="0.096" stroke-miterlimit="10"/>
<path d="M14.8959 17.1984L14.9391 16.9478C14.9391 16.9478 14.7932 16.9699 14.6924 16.9363" stroke="#D6AF9D" stroke-width="0.096" stroke-miterlimit="10"/>
<path d="M9.58882 21.1372C9.59266 21.1372 9.59266 20.6572 9.58882 20.6572C9.58498 20.6572 9.58498 21.1372 9.58882 21.1372Z" fill="#263238"/>
<path d="M36.7116 7.62136H31.8156C31.4143 7.62136 31.0889 7.29592 31.0889 6.89464V3.10648C31.0889 2.7052 31.4143 2.37976 31.8156 2.37976H36.7116C37.1129 2.37976 37.4383 2.7052 37.4383 3.10648V6.89464C37.4373 7.29592 37.1129 7.62136 36.7116 7.62136Z" fill="#6C6D6D"/>
<path d="M31.7287 7.62136L31.2861 8.95384L33.0036 7.42456" fill="#6D6D6D"/>
<path d="M36.4203 4.28348C36.4212 4.10588 36.3838 3.93116 36.2945 3.76796C36.1054 3.42332 35.7329 3.1958 35.3393 3.1958C34.8257 3.1958 34.3956 3.55196 34.2814 4.031C34.1681 3.55196 33.7371 3.1958 33.2235 3.1958C32.7684 3.1958 32.3508 3.49052 32.1982 3.91964C31.9659 4.57436 32.4372 5.31836 32.8568 5.78972C33.306 6.29372 34.2776 6.90812 34.2776 6.90812C35.036 6.42908 35.803 5.85884 36.2177 5.04092C36.3377 4.8086 36.4203 4.54364 36.4203 4.28348Z" fill="white"/>
<path d="M14.3982 4.42554C14.3992 4.0329 14.3099 3.64314 14.0948 3.28218C13.6388 2.51802 12.7412 2.01306 11.7899 2.01306C10.5515 2.01306 9.51371 2.8041 9.23915 3.86586C8.96459 2.80314 7.92779 2.01306 6.68843 2.01306C5.59115 2.01306 4.58411 2.66586 4.21643 3.61818C3.65675 5.0697 4.79243 6.7209 5.80619 7.76634C6.89003 8.88474 9.23339 10.2479 9.23339 10.2479C11.0622 9.18426 12.9112 7.9209 13.9124 6.1065C14.1976 5.59002 14.3963 5.00346 14.3982 4.42554Z" fill="#9B9B9B"/>
<path d="M5.04292 2.16374C5.85604 1.91414 4.98244 2.85686 4.59076 3.05078C4.19908 3.2447 4.59076 2.85686 5.04292 2.35766C5.49508 1.85846 5.977 2.16374 5.977 2.16374C5.977 2.16374 4.1386 3.60566 4.50052 3.54998C4.86244 3.4943 7.7242 0.639258 6.5194 2.24726C5.31364 3.8543 3.89764 4.57526 4.37956 4.51958C4.86148 4.4639 8.32708 1.91414 7.513 2.30198C6.69988 2.68982 4.1386 4.43606 4.681 5.49014C5.2234 6.54326 7.9354 1.30454 8.29732 2.7455C8.65924 4.18742 8.05636 4.29782 7.45348 3.82646C6.8506 3.3551 4.0186 3.63254 4.07908 4.1039C4.10212 4.28438 5.07364 5.08598 6.28516 5.98838C8.23876 7.44374 10.8164 9.16118 11.0391 8.95574C11.401 8.62262 7.15204 5.01974 6.3082 5.18582C5.46436 5.3519 6.12772 7.9583 6.91108 8.59574C7.69444 9.23318 7.75492 9.09494 10.4967 6.07286C11.3396 5.14454 12.0144 4.47254 12.5367 4.04342C13.7146 3.07574 14.1197 3.34262 13.9316 4.68662C13.7204 6.19766 11.209 8.82326 9.937 9.83702C9.57508 10.125 9.31396 10.2834 9.23332 10.2479C8.86948 10.0914 5.46436 5.73974 5.3434 6.40502C5.2234 7.0703 7.27204 9.48182 9.62308 8.9279C11.9741 8.37398 11.8532 3.1343 10.4669 4.10486C9.08068 5.07542 12.4858 7.73654 12.938 7.40342C13.3901 7.0703 13.1789 3.82742 12.0644 3.0239C10.9498 2.22038 10.1962 2.30294 9.74404 2.85782C9.29188 3.4127 9.1114 3.43958 9.17188 4.85366C9.23236 6.26774 10.6186 8.01398 11.5824 7.7087C12.5463 7.40342 13.2701 5.87894 12.2756 5.4911C11.281 5.10326 8.20804 5.4911 7.4842 6.18422C6.76132 6.87734 6.6106 7.43126 6.76132 8.01398C6.91204 8.59574 10.1664 8.2079 12.1853 6.43382C14.2042 4.65974 13.5111 3.21782 12.8487 2.6639C12.1853 2.10902 11.2733 1.57142 10.2576 2.71958C9.23908 3.86582 5.79556 6.15542 4.92196 6.0719C4.04836 5.98838 4.77124 4.15958 5.94628 4.26998C7.12132 4.38134 7.36228 5.26838 8.2666 5.15702C9.17092 5.04566 10.8576 1.35926 13.4794 2.68982C16.1012 4.02038 13.6004 5.60054 12.4244 4.87958C11.2493 4.15862 10.2845 3.29942 9.65188 3.63254C9.01924 3.96566 7.78372 4.9631 8.35588 6.79286C8.92804 8.62262 9.53092 9.8975 10.0436 9.34358C10.5562 8.7887 7.81348 5.1023 7.36132 4.40918C6.90916 3.71606 8.11492 2.91254 8.77732 3.32822C9.44068 3.7439 9.9226 6.7103 7.99396 7.62518C6.06532 8.54006 5.94628 6.26678 6.94084 5.87798C7.9354 5.49014 10.0148 9.75926 9.23044 9.78614C8.44708 9.81398 9.16996 7.26326 11.8215 5.90486C14.473 4.54646 13.0868 2.88374 12.4541 2.77238C11.8215 2.66102 11.0679 3.07766 11.52 3.65942C11.9722 4.24118 14.0516 4.71254 13.7194 5.84918C13.3882 6.98582 9.68164 5.4335 9.65188 4.4351C9.62212 3.4367 9.53092 1.27478 12.1527 1.6079C14.1639 1.86326 15.0404 3.47222 14.9712 4.69622C14.9712 4.69622 14.7188 5.19926 14.8992 5.5967C15.0797 5.9951 15.9447 5.16566 16.0532 5.36438C16.0983 5.4479 15.9274 5.63126 15.7383 5.84534L14.7965 7.42742L16.4333 6.70262L16.2519 8.37494L17.3424 7.65014L17.6458 8.37494" stroke="#898989" stroke-width="0.096" stroke-miterlimit="10"/>
<path opacity="0.51" d="M34.4815 4.2738C34.565 4.29012 34.6361 4.32372 34.6927 4.3746C34.7858 4.45716 34.8367 4.57908 34.8434 4.7394C34.8482 4.83732 34.8357 4.9314 34.8069 5.02164C34.7781 5.11188 34.734 5.19732 34.6754 5.27892C34.6159 5.36052 34.5429 5.43732 34.4565 5.51028L34.4681 5.75124L34.1042 5.76852L34.0898 5.45172C34.1609 5.39124 34.2242 5.32404 34.2799 5.25108C34.3356 5.17812 34.3788 5.10132 34.4095 5.01972C34.4402 4.93908 34.4537 4.85556 34.4498 4.77012C34.4469 4.70964 34.4335 4.66644 34.4105 4.64052C34.3874 4.6146 34.3538 4.60212 34.3116 4.605C34.2722 4.60692 34.2425 4.6194 34.2213 4.6434C34.2002 4.6674 34.1906 4.70004 34.1925 4.74036C34.1935 4.76628 34.1973 4.78932 34.2041 4.80948C34.2108 4.82964 34.2185 4.85076 34.2281 4.8738L33.8709 4.97364C33.8556 4.93524 33.8441 4.8978 33.8345 4.86132C33.8258 4.82484 33.8201 4.78644 33.8181 4.74516C33.8114 4.60116 33.8498 4.48692 33.9333 4.40148C33.9756 4.35924 34.0274 4.32564 34.0889 4.3026M34.1157 6.29172L34.0985 5.91156L34.4892 5.89332L34.5065 6.27348L34.1157 6.29172Z" fill="#8E8E8E"/>
</g>
<defs>
<clipPath id="clip0_1146_49383">
<rect width="48" height="48" rx="24" fill="white"/>
</clipPath>
</defs>
</svg>
