<svg width="48" height="48" viewBox="0 0 48 48" fill="none" xmlns="http://www.w3.org/2000/svg">
<g clip-path="url(#clip0_1146_49385)">
<rect width="48" height="48" rx="24" fill="white"/>
<path opacity="0.54" d="M28.6302 4.80396H7.49865C7.14249 4.80396 6.85449 5.09291 6.85449 5.44811V43.0552C6.85449 43.4113 7.14345 43.6993 7.49865 43.6993H28.6302C28.9863 43.6993 29.2743 43.4104 29.2743 43.0552V5.44907C29.2743 5.09291 28.9863 4.80396 28.6302 4.80396ZM28.6302 6.23531V43.0552H7.49865V6.23531" fill="#9B9A9A"/>
<g opacity="0.54">
<path opacity="0.7" d="M28.218 5.12659H7.91212C7.50604 5.12659 7.17676 5.45587 7.17676 5.86195V42.6424C7.17676 43.0485 7.50604 43.3778 7.91212 43.3778H28.2171C28.6232 43.3778 28.9524 43.0485 28.9524 42.6424V5.86195C28.9534 5.45587 28.6241 5.12659 28.218 5.12659Z" fill="#EFEFEF"/>
<mask id="mask0_1146_49385" style="mask-type:luminance" maskUnits="userSpaceOnUse" x="7" y="5" width="22" height="39">
<path d="M28.2171 5.12659H7.91114C7.50506 5.12659 7.17578 5.45587 7.17578 5.86195V42.6424C7.17578 43.0485 7.50506 43.3778 7.91114 43.3778H28.2161C28.6222 43.3778 28.9515 43.0485 28.9515 42.6424V5.86195C28.9524 5.45587 28.6231 5.12659 28.2171 5.12659Z" fill="white"/>
</mask>
<g mask="url(#mask0_1146_49385)">
<path d="M22.1962 26.8552L24.4628 34.228H26.7246L24.7508 25.2165C24.7508 25.2165 24.5732 16.9154 22.682 16.0898C21.8506 15.7269 20.1764 15.821 19.0484 15.941V15.5944V14.7823C19.587 14.333 19.9316 13.6581 19.9316 12.9064V12.7759C20.1553 12.2632 20.4634 11.2456 20.2503 9.81906C20.2417 9.7605 20.2311 9.7029 20.2196 9.64722C20.1092 9.1077 19.8414 8.66514 19.4804 8.33682C19.4804 8.33682 17.8666 6.63954 15.5262 8.10642C15.8036 8.1909 15.8036 8.1909 15.8036 8.1909C15.8036 8.1909 14.9713 8.41266 14.5268 9.5781C14.7207 9.41202 14.9156 9.35634 14.9156 9.35634C14.9156 9.35634 14.137 10.6274 15.0471 12.244V12.9083C15.0471 13.66 15.3918 14.3359 15.9303 14.7842V15.8815C15.7978 15.8978 15.6596 15.9189 15.5166 15.9467C14.3886 15.8248 12.6826 15.724 11.8407 16.0917C9.94857 16.9173 10.3374 25.2184 10.3374 25.2184L9.40137 34.2299H11.6631H22.6455L21.4638 27.2402C21.3879 26.5691 21.3591 25.8943 21.3754 25.2203C21.6798 25.8971 21.9601 26.4674 22.1962 26.8552Z" fill="#A8A8A8"/>
<path d="M15.7607 11.3186C15.8999 11.7582 16.4001 12.0011 16.8724 11.8552C16.5777 11.2245 15.7607 11.3186 15.7607 11.3186Z" fill="#4F4E4E"/>
<path d="M17.8047 11.8561C18.277 12.002 18.7772 11.7591 18.9164 11.3194C18.9173 11.3185 18.1004 11.2244 17.8047 11.8561Z" fill="#4F4E4E"/>
<path d="M29.4182 24.6915C29.2252 24.5542 28.5696 24.6406 27.815 24.8048C26.8886 24.0809 29.0092 23.5308 29.2579 21.4831C29.519 19.3327 28.2796 19.304 27.7248 18.247C27.287 17.4118 27.8908 16.0073 28.0531 15.1625C28.3104 13.8214 28.2643 12.3756 27.4627 11.2121C26.8675 10.3481 25.871 9.82875 24.8265 10.0937C24.1459 10.2655 23.5065 10.7331 23.2473 11.3791C22.0377 11.167 20.7206 11.478 19.704 12.4265C19.0771 13.0102 18.4627 13.8022 17.9904 14.8726C17.3548 16.3126 17.6313 17.6134 18.1766 18.6463V19.7379C18.1766 21.1145 18.8947 22.3308 19.9747 23.0335L19.944 23.0374V26.0451C19.944 26.0451 15.432 25.3683 14.903 26.0451C14.374 26.7219 10.2432 43.0563 10.2432 43.0563H33.1776C32.2752 29.5039 29.9443 25.0668 29.4182 24.6915Z" fill="#8E8E8E"/>
<path d="M18.7461 17.9687C18.9611 18.6493 19.7349 19.0237 20.4655 18.7991C20.0085 17.8227 18.7461 17.9687 18.7461 17.9687Z" fill="#4F4E4E"/>
<path d="M21.9062 18.7991C22.6368 19.0237 23.4106 18.6493 23.6256 17.9687C23.6256 17.9687 22.3632 17.8227 21.9062 18.7991Z" fill="#4F4E4E"/>
<path d="M19.6515 32.5049C19.4297 32.0892 18.4966 31.5535 17.5865 31.1081C18.1779 29.6047 17.982 27.2258 17.4022 26.285C16.7686 25.2578 18.1836 24.5532 17.7948 23.1986C18.7942 23.2322 19.4383 16.35 13.0947 16.35C13.0947 16.35 10.6639 16.4421 9.77593 17.9781C8.88793 19.5141 6.61273 20.1516 6.91801 21.9554C7.22329 23.7593 8.05561 23.5577 7.97209 24.5877C7.88857 25.6178 6.88921 25.5631 6.88921 25.5631C6.88921 25.5631 7.23961 26.1909 8.19385 25.8127C5.91865 27.8661 8.80441 29.7708 8.41561 30.6501C8.02681 31.5295 6.88921 31.1129 6.88921 31.1129C6.88921 31.1129 7.10425 31.4892 7.70521 31.6447C7.14265 31.8473 6.62809 32.0402 6.30649 32.1785C5.22649 32.6412 3.29785 43.0553 3.29785 43.0553H23.046C23.045 43.0553 20.1142 33.3717 19.6515 32.5049Z" fill="#6D6C6C"/>
<path d="M12.0996 22.0688C12.3146 22.7494 13.0884 23.1238 13.819 22.8992C13.363 21.9219 12.0996 22.0688 12.0996 22.0688Z" fill="#4F4E4E"/>
<path d="M15.2607 22.8992C15.9913 23.1238 16.7651 22.7494 16.9801 22.0688C16.9801 22.0688 15.7167 21.9219 15.2607 22.8992Z" fill="#4F4E4E"/>
</g>
<path d="M16.4174 5.59789H19.6286C19.7102 5.59789 19.7774 5.53069 19.7774 5.44909C19.7774 5.36749 19.7102 5.30029 19.6286 5.30029H16.4174C16.3358 5.30029 16.2686 5.36749 16.2686 5.44909C16.2676 5.53069 16.3348 5.59789 16.4174 5.59789Z" fill="#777777"/>
<path d="M15.4955 5.59789C15.5771 5.59789 15.6443 5.53069 15.6443 5.44909C15.6443 5.36749 15.5771 5.30029 15.4955 5.30029C15.4139 5.30029 15.3467 5.36749 15.3467 5.44909C15.3467 5.53069 15.4139 5.59789 15.4955 5.59789Z" fill="#777777"/>
<path d="M20.5492 5.59789C20.6308 5.59789 20.698 5.53069 20.698 5.44909C20.698 5.36749 20.6308 5.30029 20.5492 5.30029C20.4676 5.30029 20.4004 5.36749 20.4004 5.44909C20.4004 5.53069 20.4676 5.59789 20.5492 5.59789Z" fill="#777777"/>
</g>
<path d="M37.1791 21.8651C36.6511 20.0402 35.9272 19.5179 35.9272 19.5179C35.6508 19.2136 35.3301 18.9535 34.9759 18.7509C35.166 18.581 35.2188 18.316 34.973 17.9023C34.2012 16.6043 31.9365 17.1007 31.5429 17.7122C31.2424 18.1807 31.3269 18.4927 31.469 18.6818C30.2805 19.2664 29.8159 20.2207 29.2351 20.9138C29.1084 21.0655 28.9605 21.1989 28.8002 21.3151C28.6332 21.436 28.4517 21.5378 28.2588 21.6098C27.8623 21.7576 27.3141 21.8536 26.6325 21.7106C26.5816 21.9851 26.694 22.1714 26.8293 22.2923C26.1285 22.7215 25.6524 23.3397 25.636 24.5205C25.6101 26.4175 23.7554 26.836 24.2258 28.5323C24.6962 30.2296 26.814 30.6367 30.5263 29.8005C34.2386 28.9643 36.6261 27.7903 37.3912 25.8223C37.6015 25.2818 37.5976 24.5378 37.4815 23.7429C38.1496 24.0261 38.3685 23.5653 38.3685 23.5653C38.3685 23.5653 37.7071 23.6901 37.1791 21.8651Z" fill="#49372A"/>
<path d="M33.5664 22.926C33.5664 22.926 37.2019 23.286 40.1885 27.3238C43.176 31.3625 44.1158 35.5116 43.176 37.1705C42.2352 38.8303 40.8845 38.6355 39.4138 36.7519C37.944 34.8684 33.5664 22.926 33.5664 22.926Z" fill="#605A5A"/>
<path d="M39.9438 42.6127C39.9438 42.6127 42.9371 42.7979 42.9371 43.7003C38.9627 43.7003 38.2139 43.7003 38.2139 43.7003V42.6127H39.9438Z" fill="#515151"/>
<path d="M37.0793 27.3593C36.4985 25.8655 34.3414 24.0396 31.2425 24.5935C31.2425 24.5935 28.5315 24.7596 26.7612 29.1852C25.9875 31.1196 24.2595 32.9782 23.7872 34.206C23.2438 35.6182 23.2649 36.8969 24.3017 37.973C24.9228 38.6182 25.7772 38.9878 26.6691 39.079L28.9126 39.3094C29.9868 36.03 30.4726 34.2338 31.927 32.7036C32.8908 31.6898 34.3913 31.3318 35.6662 31.9097C35.912 32.0211 36.1308 32.1631 36.2796 32.3436C37.5411 31.2377 39.0022 31.6956 39.0022 31.6956C39.0022 31.6956 37.6601 28.8521 37.0793 27.3593Z" fill="#605A5A"/>
<path d="M36.361 24.7759C36.361 24.7759 35.7591 25.7685 35.9742 27.1797C36.1882 28.5909 36.3399 29.0844 36.3399 29.0844" stroke="#222221" stroke-width="0.0868896" stroke-miterlimit="10" stroke-linecap="round" stroke-linejoin="round"/>
<path d="M25.6667 32.0374C25.6667 32.0374 25.5986 34.2876 26.811 36.1913C27.5272 35.5903 27.6846 35.5692 27.6846 35.5692L25.6667 32.0374Z" fill="#28201E"/>
<path d="M40.6092 31.6534C40.0178 29.9887 38.4434 27.7951 36.5292 29.0575C34.8636 30.1567 33.6713 33.2777 32.9254 35.2361H29.9714C29.9714 35.2361 27.3161 41.5423 32.2217 43.7004H37.0716C37.8636 43.7004 36.8537 43.2905 37.0735 42.7529L40.854 42.7135C40.853 42.7135 41.8572 35.1679 40.6092 31.6534Z" fill="#878787"/>
<path d="M36.4912 30.508C36.4912 30.508 36.9962 29.1218 37.7152 31.3307C38.4343 33.5397 38.8643 35.8571 38.5466 42.6981" stroke="white" stroke-width="0.096" stroke-miterlimit="10"/>
<path d="M35.8457 29.8485C35.8457 29.8485 37.0553 30.8469 37.6851 33.9218C38.2217 36.5445 38.0268 42.6127 38.0268 42.6127L38.0211 42.6991" stroke="#222221" stroke-width="0.0868896" stroke-miterlimit="10" stroke-linecap="round" stroke-linejoin="round"/>
<path d="M36.3227 42.6127C36.3227 42.6127 39.316 42.7979 39.316 43.7003C35.3416 43.7003 34.5928 43.7003 34.5928 43.7003V42.6127H36.3227Z" fill="#515151"/>
<path d="M36.9031 31.6533C36.3117 29.9887 34.889 28.3115 32.8231 29.0575C30.9463 29.7362 29.9652 33.2776 29.2193 35.236C28.1018 35.2629 26.6954 35.3023 26.057 36.0703C26.057 36.0703 25.5377 38.3656 25.6673 39.4927C25.8525 41.1026 26.4122 42.7759 28.5156 43.7013H33.3655C33.7514 43.2501 34.0442 43.2559 34.2641 42.7183L37.1642 42.676C37.1633 42.6751 38.1511 35.1679 36.9031 31.6533Z" fill="#878787"/>
<path d="M28.5488 39.5811C28.5488 39.5811 28.6525 36.15 29.8266 33.4755" stroke="#222221" stroke-width="0.0868896" stroke-miterlimit="10" stroke-linecap="round" stroke-linejoin="round"/>
<path d="M26.7423 35.5769C26.7423 35.5769 26.1049 39.0368 27.6851 41.2976C28.2678 42.1318 29.2028 42.9113 30.2291 42.3142C31.5414 41.551 31.9859 39.872 32.2479 38.4828C32.5139 37.0755 32.6377 35.6441 32.7827 34.2204C32.8748 33.3113 32.9526 32.3907 33.1417 31.495C33.2012 31.2118 33.326 30.3564 33.7484 30.3564C34.8899 30.3564 36.0697 37.832 35.5311 42.7001" stroke="white" stroke-width="0.096" stroke-miterlimit="10"/>
<path d="M25.1914 37.2338C25.1914 37.2338 25.7856 35.2726 28.3556 35.2284" stroke="#222221" stroke-width="0.0868896" stroke-miterlimit="10" stroke-linecap="round" stroke-linejoin="round"/>
<path d="M33.2041 27.6837L34.8639 25.9624" stroke="#222221" stroke-width="0.0868896" stroke-miterlimit="10" stroke-linecap="round" stroke-linejoin="round"/>
<path d="M34.5928 39.1096C34.5928 39.1096 34.5928 42.8584 32.9521 43.6994C34.8731 43.6994 34.5928 43.6994 34.5928 43.6994V39.1096Z" fill="#28201E"/>
<path d="M34.7432 37.444C34.7432 37.444 34.7269 37.8424 35.7435 38.4846C36.7601 39.1268 37.2142 39.4475 37.4408 39.1403C37.9755 39.4177 38.0293 39.2228 38.1512 39.1201C38.5909 39.1854 38.4661 38.8974 38.2069 38.739C37.9477 38.5806 37.1432 38.0612 37.1432 38.0612L37.8795 38.379C37.8795 38.379 38.3096 38.6113 38.3777 38.4539C38.4459 38.2964 36.6392 37.1723 36.6392 37.1723C36.6392 37.1723 37.507 37.4382 37.8161 37.1195C37.9669 36.9505 37.2584 36.8939 36.5153 36.5579C35.7723 36.2209 35.1301 36.5521 35.1301 36.5521L34.7432 37.444Z" fill="#FCDAC8"/>
<path d="M41.9432 36.9823C42.1074 37.3625 42.0085 37.8051 41.6974 38.0777C41.5592 38.1987 41.3787 38.335 41.1416 38.4847C40.125 39.127 39.6709 39.4476 39.4443 39.1404C38.9096 39.4179 38.8558 39.223 38.7339 39.1203C38.2942 39.1855 38.419 38.8975 38.6782 38.7391C38.9374 38.5807 39.7419 38.0614 39.7419 38.0614L39.0056 38.3791C39.0056 38.3791 38.5755 38.6115 38.5074 38.454C38.4392 38.2966 40.2459 37.1724 40.2459 37.1724C40.2459 37.1724 39.3781 37.4383 39.069 37.1196C38.9182 36.9507 39.6267 36.894 40.3698 36.558C40.627 36.4419 40.8718 36.4054 41.0821 36.4073C41.4584 36.4083 41.7944 36.6377 41.9432 36.9823Z" fill="#FCDAC8"/>
<path d="M31.438 23.0162C31.438 23.0162 28.1884 23.451 26.5842 25.996C24.9801 28.541 25.4466 33.8776 26.7983 35.187C28.9708 37.2933 30.8726 36.2862 31.7414 37.3365C32.6102 38.3877 35.061 39.1077 36.0402 37.1147C37.0204 35.1218 36.6489 33.5742 32.4441 31.085C29.2089 29.1698 30.8111 25.1368 31.87 23.1563C32.1878 22.564 31.438 23.0162 31.438 23.0162Z" fill="#605A5A"/>
<path d="M32.7792 22.8232L30.79 24.7903L32.7379 27.6837L34.75 25.1551L32.7792 22.8232Z" fill="#FCDAC8"/>
<path d="M31.2685 22.9586C31.2685 22.9586 30.9901 24.3573 31.7379 24.4226C32.4858 24.4878 32.457 22.419 31.7418 22.3566C31.2925 22.3182 31.2685 22.9586 31.2685 22.9586Z" fill="#FCDAC8"/>
<path d="M31.7105 24.5916C31.7105 24.5916 31.627 26.2399 33.4539 26.7852C33.5374 26.6796 34.195 25.854 34.195 25.854L31.7105 24.5916Z" fill="#28201E"/>
<path d="M37.0478 23.5269C37.0478 23.5269 37.0805 24.9525 36.3336 24.8882C35.5857 24.8229 35.9707 22.7906 36.6859 22.853C37.1352 22.8914 37.0478 23.5269 37.0478 23.5269Z" fill="#FCDAC8"/>
<path d="M33.8592 26.5682C35.1696 26.6825 36.3351 25.7033 36.4493 24.3929L36.5693 23.0143C36.6835 21.7039 35.7043 20.5385 34.3939 20.4242C33.0835 20.31 31.9181 21.2892 31.8039 22.5996L31.6839 23.9781C31.5696 25.2885 32.5488 26.454 33.8592 26.5682Z" fill="#FCDAC8"/>
<path opacity="0.69" d="M36.2555 23.6104C36.2555 23.6104 36.5108 23.6843 36.4523 24.3563C36.4014 24.9371 36.1768 25.3076 36.1768 25.3076C36.1768 25.3076 36.4724 25.3691 36.5339 24.866C36.5982 24.34 36.6577 23.7534 36.2555 23.6104Z" fill="white"/>
<path d="M34.4061 22.6533L34.4762 23.932C34.4762 23.932 34.89 23.9839 34.8036 24.1951C34.7172 24.4063 34.3994 24.3496 34.3994 24.3496" stroke="#49372A" stroke-width="0.072" stroke-miterlimit="10" stroke-linecap="round" stroke-linejoin="round"/>
<path d="M34.4352 25.1647C34.4352 25.1647 34.105 24.9209 33.4531 25.0169" stroke="#49372A" stroke-width="0.072" stroke-miterlimit="10" stroke-linecap="round" stroke-linejoin="round"/>
<path d="M32.4756 21.8652C32.4756 21.8652 33.1706 22.0552 33.6919 21.6357C33.7485 21.5896 33.833 21.6098 33.8599 21.678L33.8609 21.6808C33.8801 21.7279 33.8618 21.7816 33.8186 21.8095C33.6209 21.9391 33.041 22.2444 32.4756 21.8652Z" fill="#49372A"/>
<path d="M36.393 22.3164C36.393 22.3164 35.6691 22.3288 35.3034 21.7682C35.264 21.7077 35.1776 21.6991 35.1315 21.7548C35.0979 21.7951 35.0979 21.8536 35.1325 21.893C35.287 22.0687 35.7411 22.493 36.393 22.3164Z" fill="#49372A"/>
<path d="M32.5039 23.3052C32.5039 23.3052 33.0492 22.9433 33.7644 23.3311" stroke="#49372A" stroke-width="0.072" stroke-miterlimit="10" stroke-linecap="round" stroke-linejoin="round"/>
<path d="M32.5283 23.143C32.5283 23.143 33.1926 22.8233 33.7638 23.3321" stroke="#49372A" stroke-width="0.072" stroke-miterlimit="10" stroke-linecap="round" stroke-linejoin="round"/>
<path d="M36.2957 23.4358C36.2957 23.4358 35.7801 23.0326 35.0371 23.3647" stroke="#49372A" stroke-width="0.072" stroke-miterlimit="10" stroke-linecap="round" stroke-linejoin="round"/>
<path d="M36.2822 23.2716C36.2822 23.2716 35.6448 22.902 35.0352 23.3648" stroke="#49372A" stroke-width="0.072" stroke-miterlimit="10" stroke-linecap="round" stroke-linejoin="round"/>
<path opacity="0.6" d="M31.8718 23.5826C31.8603 23.717 31.9937 23.838 32.1713 23.8533C32.3479 23.8687 32.5015 23.7727 32.5131 23.6383C32.5246 23.5039 32.3911 23.3829 32.2135 23.3676C32.0359 23.3522 31.8833 23.4482 31.8718 23.5826Z" fill="#F2B0AD"/>
<path opacity="0.6" d="M35.6921 23.9148C35.6806 24.0492 35.814 24.1701 35.9916 24.1855C36.1683 24.2009 36.3219 24.1049 36.3334 23.9705C36.3449 23.8361 36.2115 23.7151 36.0339 23.6997C35.8572 23.6844 35.7036 23.7804 35.6921 23.9148Z" fill="#F2B0AD"/>
<path d="M32.7387 27.6837C32.7387 27.6837 31.1182 26.3177 30.7121 24.4917C30.8379 23.6594 31.1268 23.0738 31.1268 23.0738C31.1268 23.0738 29.3998 22.5353 27.5211 23.8553C26.1396 24.8258 27.019 26.1833 27.019 26.1833C27.019 26.1833 29.5064 29.7996 32.7387 27.6837Z" fill="#605A5A"/>
<path opacity="0.69" d="M32.693 23.4098C32.693 23.4098 32.5048 23.3896 32.4952 23.7131C32.4875 24.0021 32.4376 24.2171 32.3176 24.1336C32.214 24.0626 32.3637 23.309 32.693 23.4098Z" fill="white"/>
<path d="M30.0919 21.1096C29.5725 21.8094 29.7799 22.7829 30.497 23.2773C30.5249 23.2965 30.5527 23.3176 30.5805 23.3397C31.2458 23.8648 32.2087 23.5768 32.5965 22.1589C32.9853 20.741 34.1469 22.3432 35.1252 20.907C35.5053 22.1493 36.0842 22.661 36.5105 22.8702C36.7677 22.997 37.0615 22.7848 37.0298 22.4987C36.9127 21.459 36.3972 19.2126 34.1258 19.2126C32.1645 19.2136 30.9213 19.9922 30.0919 21.1096Z" fill="#49372A"/>
<path d="M32.2044 23.1363C32.1766 23.6883 32.6028 24.1587 33.1548 24.1865C33.7068 24.2143 34.1772 23.7881 34.2051 23.2361C34.2329 22.6841 33.8067 22.2137 33.2547 22.1859C32.7017 22.158 32.2313 22.5833 32.2044 23.1363Z" stroke="#7C7C7C" stroke-width="0.0868896" stroke-miterlimit="10"/>
<path d="M34.6654 23.2582C34.6375 23.8102 35.0638 24.2806 35.6158 24.3084C36.1678 24.3363 36.6382 23.91 36.666 23.358C36.6938 22.806 36.2676 22.3356 35.7156 22.3078C35.1626 22.28 34.6932 22.7062 34.6654 23.2582Z" stroke="#7C7C7C" stroke-width="0.0868896" stroke-miterlimit="10"/>
<path d="M34.2041 23.2351L34.6659 23.2581" stroke="#7C7C7C" stroke-width="0.0868896" stroke-miterlimit="10"/>
<path d="M29.9961 23.8552C29.9961 23.8552 31.5811 25.5275 32.8022 27.8997" stroke="#222221" stroke-width="0.0868896" stroke-miterlimit="10" stroke-linecap="round" stroke-linejoin="round"/>
<path d="M26.9189 25.5371C26.9189 25.5371 27.9385 24.4686 29.1922 24.5915C30.4469 24.7144 31.1612 25.7627 31.4847 26.6449C31.8082 27.5272 31.4271 30.2219 31.4271 30.2219" stroke="#222221" stroke-width="0.0868896" stroke-miterlimit="10" stroke-linecap="round" stroke-linejoin="round"/>
<path d="M28.8447 30.0886C28.8447 30.0886 29.6914 29.7746 31.1026 30.221" stroke="#222221" stroke-width="0.0868896" stroke-miterlimit="10" stroke-linecap="round" stroke-linejoin="round"/>
<path d="M29.9746 29.7026C29.9746 29.7026 30.6063 29.6806 31.0296 29.982" stroke="#222221" stroke-width="0.0868896" stroke-miterlimit="10" stroke-linecap="round" stroke-linejoin="round"/>
<path d="M31.6162 36.8777C31.6162 36.8777 31.4568 35.4367 32.8028 34.4565" stroke="#222221" stroke-width="0.0868896" stroke-miterlimit="10" stroke-linecap="round" stroke-linejoin="round"/>
<path d="M40.1064 29.3906C40.1064 29.3906 40.3292 29.1381 41.0271 29.2274" stroke="#222221" stroke-width="0.0868896" stroke-miterlimit="10" stroke-linecap="round" stroke-linejoin="round"/>
<path d="M31.5898 27.1663L32.5623 28.3471" stroke="#222221" stroke-width="0.0868896" stroke-miterlimit="10" stroke-linecap="round" stroke-linejoin="round"/>
<path d="M41.2354 34.2588C41.2354 34.2588 42.5112 34.4902 43.1179 35.4578" stroke="#222221" stroke-width="0.0868896" stroke-miterlimit="10" stroke-linecap="round" stroke-linejoin="round"/>
<path d="M41.3848 36.4591C41.3848 36.4591 42.506 37.0332 41.7592 38.0181" stroke="#222221" stroke-width="0.0868896" stroke-miterlimit="10" stroke-linecap="round" stroke-linejoin="round"/>
<path d="M34.5928 42.7125L38.02 42.6991" stroke="#222221" stroke-width="0.0868896" stroke-miterlimit="10" stroke-linecap="round" stroke-linejoin="round"/>
<path d="M40.8535 42.7135L38.0205 42.6991" stroke="#222221" stroke-width="0.0868896" stroke-miterlimit="10" stroke-linecap="round" stroke-linejoin="round"/>
<path d="M37.209 43.156L37.5719 42.7471" stroke="#222221" stroke-width="0.0868896" stroke-miterlimit="10" stroke-linecap="round" stroke-linejoin="round"/>
<path d="M37.5713 43.2577L37.9351 42.8497" stroke="#222221" stroke-width="0.0868896" stroke-miterlimit="10" stroke-linecap="round" stroke-linejoin="round"/>
<path d="M37.9355 43.3605L38.2984 42.9515" stroke="#222221" stroke-width="0.0868896" stroke-miterlimit="10" stroke-linecap="round" stroke-linejoin="round"/>
<path d="M40.8389 43.156L41.2027 42.7471" stroke="#222221" stroke-width="0.0868896" stroke-miterlimit="10" stroke-linecap="round" stroke-linejoin="round"/>
<path d="M41.2031 43.2577L41.566 42.8497" stroke="#222221" stroke-width="0.0868896" stroke-miterlimit="10" stroke-linecap="round" stroke-linejoin="round"/>
<path d="M41.5664 43.3605L41.9302 42.9515" stroke="#222221" stroke-width="0.0868896" stroke-miterlimit="10" stroke-linecap="round" stroke-linejoin="round"/>
<path opacity="0.69" d="M32.36 25.2531C32.36 25.2531 32.3476 25.6303 32.36 25.807C32.3725 25.9827 32.4618 26.3052 32.7383 26.1727C32.48 25.9011 32.4234 25.8195 32.36 25.2531Z" fill="white"/>
<path d="M26.9189 22.3547C26.9189 22.3547 27.3932 22.6495 28.0489 22.4325" stroke="#33251C" stroke-width="0.072" stroke-miterlimit="10" stroke-linecap="round" stroke-linejoin="round"/>
<path d="M30.0732 22.4335C30.0732 22.4335 30.558 22.8511 31.3414 22.5122" stroke="#33251C" stroke-width="0.072" stroke-miterlimit="10" stroke-linecap="round" stroke-linejoin="round"/>
<path d="M30.6426 22.3548C30.6426 22.3548 31.3232 22.4537 31.7523 21.6079" stroke="#33251C" stroke-width="0.072" stroke-miterlimit="10" stroke-linecap="round" stroke-linejoin="round"/>
<path d="M31.6162 18.6396C31.6162 18.6396 31.9541 18.2979 32.8661 18.2979" stroke="#33251C" stroke-width="0.072" stroke-miterlimit="10" stroke-linecap="round" stroke-linejoin="round"/>
<path d="M34.818 18.6396C34.818 18.6396 34.4772 18.3833 33.9502 18.3545" stroke="#33251C" stroke-width="0.072" stroke-miterlimit="10" stroke-linecap="round" stroke-linejoin="round"/>
<path d="M37.1406 23.0441C37.1406 23.0441 37.2145 23.4156 37.4401 23.6105" stroke="#222221" stroke-width="0.0868896" stroke-miterlimit="10" stroke-linecap="round" stroke-linejoin="round"/>
<path d="M28.6639 38.1746C28.6639 38.1746 28.2185 38.5326 28.0879 39.2018" stroke="#222221" stroke-width="0.0868896" stroke-miterlimit="10" stroke-linecap="round" stroke-linejoin="round"/>
<g opacity="0.82">
<path d="M31.2268 11.7726H26.4633C25.5407 11.7726 24.7861 12.5271 24.7861 13.4497C24.7861 14.3723 25.5407 15.1268 26.4633 15.1268H26.5449V16.0955L27.5135 15.1268H31.2258C32.1484 15.1268 32.9029 14.3723 32.9029 13.4497C32.9039 12.5271 32.1493 11.7726 31.2268 11.7726Z" fill="white" stroke="#606060" stroke-width="0.096" stroke-miterlimit="10"/>
<path d="M28.2389 13.5572C28.2389 13.5572 28.0968 13.7406 27.9135 13.9162C27.7301 14.0929 27.9471 14.4241 27.805 14.4519C27.6629 14.4788 27.5343 14.3367 27.5813 14.0046C27.6082 13.7742 27.4258 13.6791 27.4258 13.6791V12.6826C27.4258 12.6826 27.9682 12.554 28.2389 12.8247C28.4626 12.8247 28.476 12.8247 28.476 12.8247V13.5534L28.2389 13.5572Z" fill="#A3A3A3"/>
<path d="M27.1695 13.4574H27.493C27.5679 13.4574 27.6294 13.5188 27.6294 13.5937C27.6294 13.6686 27.5679 13.73 27.493 13.73H27.1695C27.0946 13.73 27.0332 13.6686 27.0332 13.5937C27.0332 13.5188 27.0946 13.4574 27.1695 13.4574Z" fill="#A3A3A3"/>
<path d="M27.1695 13.1847H27.493C27.5679 13.1847 27.6294 13.2461 27.6294 13.321C27.6294 13.3959 27.5679 13.4573 27.493 13.4573H27.1695C27.0946 13.4573 27.0332 13.3959 27.0332 13.321C27.0332 13.2461 27.0946 13.1847 27.1695 13.1847Z" fill="#A3A3A3"/>
<path d="M27.1695 12.9111H27.493C27.5679 12.9111 27.6294 12.9726 27.6294 13.0475C27.6294 13.1223 27.5679 13.1838 27.493 13.1838H27.1695C27.0946 13.1838 27.0332 13.1223 27.0332 13.0475C27.0332 12.9726 27.0946 12.9111 27.1695 12.9111Z" fill="#A3A3A3"/>
<path d="M27.2176 12.6672H27.5075C27.5747 12.6672 27.6295 12.722 27.6295 12.7892C27.6295 12.8564 27.5747 12.9111 27.5075 12.9111H27.2176C27.1504 12.9111 27.0957 12.8564 27.0957 12.7892C27.0957 12.722 27.1504 12.6672 27.2176 12.6672Z" fill="#A3A3A3"/>
<path d="M30.0806 14.5998C30.6585 14.5998 31.127 14.1313 31.127 13.5534C31.127 12.9754 30.6585 12.507 30.0806 12.507C29.5027 12.507 29.0342 12.9754 29.0342 13.5534C29.0342 14.1313 29.5027 14.5998 30.0806 14.5998Z" fill="#636262"/>
<path d="M30.5021 13.994C30.5002 13.9921 30.4982 13.9902 30.4963 13.9883C30.2669 13.7617 29.8944 13.7617 29.6659 13.9883C29.664 13.9902 29.6621 13.9921 29.6602 13.994" stroke="white" stroke-width="0.0868896" stroke-miterlimit="10" stroke-linecap="round" stroke-linejoin="round"/>
<path d="M29.5967 13.4276C29.5967 13.4968 29.6533 13.5534 29.7224 13.5534C29.7916 13.5534 29.8482 13.4968 29.8482 13.4276C29.8482 13.3585 29.7916 13.3019 29.7224 13.3019C29.6533 13.3019 29.5967 13.3585 29.5967 13.4276Z" fill="white"/>
<path d="M30.3135 13.4276C30.3135 13.4968 30.3701 13.5534 30.4392 13.5534C30.5084 13.5534 30.565 13.4968 30.565 13.4276C30.565 13.3585 30.5084 13.3019 30.4392 13.3019C30.3701 13.3019 30.3135 13.3585 30.3135 13.4276Z" fill="white"/>
<path d="M30.2637 13.3355C30.2637 13.3355 30.351 13.156 30.615 13.1713" stroke="white" stroke-width="0.0868896" stroke-miterlimit="10" stroke-linecap="round" stroke-linejoin="round"/>
<path d="M29.8982 13.3355C29.8982 13.3355 29.8109 13.156 29.5469 13.1713" stroke="white" stroke-width="0.0868896" stroke-miterlimit="10" stroke-linecap="round" stroke-linejoin="round"/>
</g>
<g opacity="0.84">
<path d="M4.78942 15.2496H9.55294C10.4755 15.2496 11.2301 16.0042 11.2301 16.9268C11.2301 17.8493 10.4755 18.6039 9.55294 18.6039H9.47135V19.5725L8.5027 18.6039H4.78942C3.86686 18.6039 3.1123 17.8493 3.1123 16.9268C3.1123 16.0042 3.86686 15.2496 4.78942 15.2496Z" fill="white" stroke="#606060" stroke-width="0.096" stroke-miterlimit="10"/>
<path d="M8.97261 17.8258C9.43914 17.475 9.53293 16.8124 9.1821 16.3459C8.83127 15.8793 8.16867 15.7855 7.70214 16.1364C7.23562 16.4872 7.14183 17.1498 7.49265 17.6163C7.84348 18.0829 8.50608 18.1766 8.97261 17.8258Z" fill="#898989"/>
<path d="M8.66078 17.5795C8.71454 17.5891 8.75294 17.5286 8.72222 17.4845C8.6531 17.3856 8.53214 17.2627 8.34974 17.2512V17.2493C8.34494 17.2493 8.3411 17.2502 8.3363 17.2502C8.3315 17.2502 8.32766 17.2493 8.32286 17.2493V17.2512C8.14046 17.2627 8.0195 17.3856 7.95038 17.4845C7.91966 17.5286 7.95806 17.5901 8.01182 17.5795C8.22686 17.5392 8.4467 17.5392 8.66078 17.5795Z" fill="#28201E"/>
<path d="M7.89941 16.9911L8.16341 16.7271" stroke="#28201E" stroke-width="0.0868896" stroke-miterlimit="10" stroke-linecap="round" stroke-linejoin="round"/>
<path d="M7.88867 16.7271L8.15267 16.9911" stroke="#28201E" stroke-width="0.0868896" stroke-miterlimit="10" stroke-linecap="round" stroke-linejoin="round"/>
<path d="M8.52246 16.9911L8.78646 16.7271" stroke="#28201E" stroke-width="0.0868896" stroke-miterlimit="10" stroke-linecap="round" stroke-linejoin="round"/>
<path d="M8.5127 16.7271L8.7767 16.9911" stroke="#28201E" stroke-width="0.0868896" stroke-miterlimit="10" stroke-linecap="round" stroke-linejoin="round"/>
<path d="M6.89514 17.4643C6.89514 17.088 6.56682 16.969 6.56682 16.969C6.56682 16.969 6.60618 16.6522 6.38442 16.4026C5.95434 15.9187 5.53482 16.0637 5.53482 16.0637C5.53482 16.0637 5.77386 16.1664 5.43498 16.4813C5.19018 16.7088 5.2209 16.969 5.2209 16.969C5.2209 16.969 4.89258 17.088 4.89258 17.4643C4.89258 17.8474 5.2017 18.0384 5.89386 18.0384C6.58698 18.0384 6.89514 17.8474 6.89514 17.4643Z" fill="#5B5A5A"/>
<path d="M5.60946 17.1015C5.66937 17.1015 5.71794 17.0529 5.71794 16.993C5.71794 16.9331 5.66937 16.8845 5.60946 16.8845C5.54954 16.8845 5.50098 16.9331 5.50098 16.993C5.50098 17.0529 5.54954 17.1015 5.60946 17.1015Z" fill="#E2E2E2"/>
<path d="M6.17879 17.1015C6.2387 17.1015 6.28727 17.0529 6.28727 16.993C6.28727 16.9331 6.2387 16.8845 6.17879 16.8845C6.11888 16.8845 6.07031 16.9331 6.07031 16.993C6.07031 17.0529 6.11888 17.1015 6.17879 17.1015Z" fill="#E2E2E2"/>
</g>
<g opacity="0.54">
<path d="M10.1863 7.21155H13.2737C13.8718 7.21155 14.3604 7.70115 14.3604 8.29827C14.3604 8.89635 13.8708 9.38499 13.2737 9.38499H13.2209V10.0128L12.5931 9.38499H10.1863C9.58825 9.38499 9.09961 8.89539 9.09961 8.29827C9.09865 7.70115 9.58825 7.21155 10.1863 7.21155Z" fill="white"/>
<path d="M12.7993 8.61305C12.9398 8.61305 13.0537 8.49915 13.0537 8.35865C13.0537 8.21815 12.9398 8.10425 12.7993 8.10425C12.6588 8.10425 12.5449 8.21815 12.5449 8.35865C12.5449 8.49915 12.6588 8.61305 12.7993 8.61305Z" fill="#28201E"/>
<path d="M10.6597 8.10425C10.7998 8.10425 10.9141 8.21849 10.9141 8.35865C10.9141 8.49881 10.7998 8.61305 10.6597 8.61305C10.5195 8.61305 10.4053 8.49881 10.4053 8.35865C10.4062 8.21849 10.5195 8.10425 10.6597 8.10425Z" fill="#28201E"/>
<path d="M11.73 8.10425C11.8701 8.10425 11.9844 8.21849 11.9844 8.35865C11.9844 8.49881 11.8701 8.61305 11.73 8.61305C11.5898 8.61305 11.4756 8.49881 11.4756 8.35865C11.4756 8.21849 11.5898 8.10425 11.73 8.10425Z" fill="#28201E"/>
</g>
<path opacity="0.72" d="M21.4783 34.7579V33.6952H7.77051V34.7579V40.2894H21.4783V34.7579Z" fill="#7B7C7B"/>
<path d="M20.9491 33.1663H7.24121V39.7605H20.9491V33.1663Z" fill="white"/>
<path d="M19.6426 39.7538L20.4163 41.3023L20.1034 39.7538H19.6426Z" fill="#F5F5FA"/>
<path d="M20.9491 33.1663H7.24121V34.229H20.9491V33.1663Z" fill="#606060"/>
<path d="M8.03757 33.8968C8.14785 33.8968 8.23725 33.8074 8.23725 33.6971C8.23725 33.5868 8.14785 33.4974 8.03757 33.4974C7.92729 33.4974 7.83789 33.5868 7.83789 33.6971C7.83789 33.8074 7.92729 33.8968 8.03757 33.8968Z" fill="white"/>
<path d="M11.6842 33.4984H8.60449V33.8968H11.6842V33.4984Z" fill="white"/>
<path d="M9.48732 37.9885L9.89532 35.7114C9.69948 35.4234 9.36828 35.2343 8.99388 35.2343C8.391 35.2343 7.90332 35.7229 7.90332 36.3248C7.94748 37.6352 9.543 38.6403 9.9318 38.8659L10.31 37.1504L9.48732 37.9885Z" fill="#898989"/>
<path d="M12.2193 36.3238C12.2193 35.721 11.7307 35.2333 11.1287 35.2333C10.8014 35.2333 10.5086 35.3773 10.3089 35.6058L10.0439 37.087L10.9175 36.1962L10.3521 38.7594C10.9271 38.3773 12.3095 37.3501 12.2193 36.3238Z" fill="#898989"/>
<path d="M13.3706 35.4681V36.9054H13.1965V35.4681H13.3706ZM14.2754 36.9054V35.4681H14.4494V36.1081H15.2158V35.4681H15.3898V36.9054H15.2158V36.2625H14.4494V36.9054H14.2754ZM15.7972 36.9054H15.6148L16.1425 35.4681H16.3222L16.8499 36.9054H16.6675L16.238 35.6955H16.2267L15.7972 36.9054ZM15.8646 36.344H16.6001V36.4983H15.8646V36.344ZM16.8273 35.6225V35.4681H17.9053V35.6225H17.4533V36.9054H17.2793V35.6225H16.8273ZM18.1739 36.9054V35.4681H19.0413V35.6225H18.3479V36.1081H18.9964V36.2625H18.3479V36.751H19.0526V36.9054H18.1739Z" fill="#595959"/>
<path d="M13.073 37.2248H13.2723L13.6709 37.8957H13.6878L14.0864 37.2248H14.2857L13.7664 38.0698V38.6621H13.5923V38.0698L13.073 37.2248ZM15.656 37.9435C15.656 38.0951 15.6286 38.2261 15.5739 38.3365C15.5191 38.4469 15.444 38.532 15.3486 38.5919C15.2532 38.6518 15.1441 38.6818 15.0216 38.6818C14.899 38.6818 14.79 38.6518 14.6945 38.5919C14.5991 38.532 14.524 38.4469 14.4692 38.3365C14.4145 38.2261 14.3871 38.0951 14.3871 37.9435C14.3871 37.7919 14.4145 37.6609 14.4692 37.5504C14.524 37.44 14.5991 37.3549 14.6945 37.295C14.79 37.2351 14.899 37.2052 15.0216 37.2052C15.1441 37.2052 15.2532 37.2351 15.3486 37.295C15.444 37.3549 15.5191 37.44 15.5739 37.5504C15.6286 37.6609 15.656 37.7919 15.656 37.9435ZM15.4876 37.9435C15.4876 37.819 15.4667 37.714 15.4251 37.6283C15.3839 37.5427 15.328 37.4779 15.2574 37.4339C15.1872 37.39 15.1086 37.368 15.0216 37.368C14.9345 37.368 14.8557 37.39 14.785 37.4339C14.7149 37.4779 14.659 37.5427 14.6173 37.6283C14.5761 37.714 14.5556 37.819 14.5556 37.9435C14.5556 38.0679 14.5761 38.173 14.6173 38.2586C14.659 38.3442 14.7149 38.409 14.785 38.453C14.8557 38.497 14.9345 38.5189 15.0216 38.5189C15.1086 38.5189 15.1872 38.497 15.2574 38.453C15.328 38.409 15.3839 38.3442 15.4251 38.2586C15.4667 38.173 15.4876 38.0679 15.4876 37.9435ZM16.8919 37.2248H17.0659V38.1765C17.0659 38.2747 17.0428 38.3624 16.9964 38.4396C16.9506 38.5164 16.8858 38.577 16.802 38.6214C16.7183 38.6654 16.62 38.6874 16.5073 38.6874C16.3945 38.6874 16.2963 38.6654 16.2125 38.6214C16.1288 38.577 16.0637 38.5164 16.0174 38.4396C15.9716 38.3624 15.9486 38.2747 15.9486 38.1765V37.2248H16.1227V38.1624C16.1227 38.2326 16.1381 38.2951 16.169 38.3498C16.1999 38.4041 16.2439 38.4469 16.3009 38.4782C16.3585 38.5091 16.4273 38.5246 16.5073 38.5246C16.5873 38.5246 16.6561 38.5091 16.7136 38.4782C16.7712 38.4469 16.8151 38.4041 16.8455 38.3498C16.8764 38.2951 16.8919 38.2326 16.8919 38.1624V37.2248Z" fill="#595959"/>
<g opacity="0.65">
<path opacity="0.7" d="M44.3005 8.02278V15.7777H34.6631V8.02278V7.17126H44.3005V8.02278Z" fill="#9B9A9A"/>
<path d="M44.5922 6.87964H35.0518V15.39H44.5922V6.87964Z" fill="white"/>
<path d="M44.5453 6.92767V15.3421H35.1009V6.92767H44.5453ZM44.6413 6.83167H35.0039V15.4381H44.6413V6.83167Z" fill="#898989"/>
<path d="M35.7238 15.4534H35.9609L35.5625 16.2511L35.7238 15.4534Z" fill="#F5F5FA"/>
<path d="M35.9224 15.4773L35.621 16.0792L35.7429 15.4773H35.9224ZM36.0002 15.4293H35.7036L35.5029 16.4239L36.0002 15.4293Z" fill="#7C7B7B"/>
<path d="M35.0051 7.68372L44.6416 7.68372L44.6416 6.8322L35.0051 6.8322L35.0051 7.68372Z" fill="#A8A8A8"/>
<path d="M44.0012 7.41711C44.0892 7.41711 44.1605 7.34576 44.1605 7.25775C44.1605 7.16974 44.0892 7.09839 44.0012 7.09839C43.9131 7.09839 43.8418 7.16974 43.8418 7.25775C43.8418 7.34576 43.9131 7.41711 44.0012 7.41711Z" fill="#7C7C7C"/>
<path d="M40.8972 7.41772L43.542 7.41772L43.542 7.09804L40.8972 7.09804L40.8972 7.41772Z" fill="white"/>
<path d="M39.4972 11.3166L40.005 13.6542L38.4863 10.2193L40.006 10.8788L39.3484 8.97419C39.5231 8.93579 39.7046 8.91467 39.8908 8.91467C40.053 8.91467 40.2114 8.93099 40.365 8.95979L40.965 12.2756L39.4972 11.3166Z" fill="#919191"/>
<path d="M40.5023 13.611L40.0127 14.6008L40.4524 12.9256L40.8105 13.6005L41.1205 12.724C41.1945 12.7605 41.2655 12.8046 41.3327 12.8584C41.3913 12.9054 41.4441 12.9563 41.4911 13.011L40.7538 14.38L40.5023 13.611Z" fill="#AAA9A9"/>
<path d="M41.9395 9.0433L42.0796 8.65546L42.3926 8.76778L42.4761 8.39722L42.8899 8.54602L42.8063 8.91658L43.0627 9.00874L43.1462 8.63818L43.5599 8.78698L43.4764 9.15754L43.8383 9.2881L43.6982 9.67594L43.3852 9.56362L43.3065 9.90346L43.6684 10.034L43.5292 10.4219L43.2163 10.3095L43.1327 10.6801L42.719 10.5313L42.8025 10.1607L42.5462 10.0686L42.4627 10.4391L42.0489 10.2903L42.1324 9.91978L41.7705 9.78922L41.9097 9.40138L42.2227 9.5137L42.3014 9.17386L41.9395 9.0433ZM42.6364 9.6625L42.8927 9.75466L42.9715 9.41482L42.7151 9.32266L42.6364 9.6625Z" fill="#7C7C7C"/>
<path d="M35.4961 13.201L35.6363 12.8132L35.9492 12.9255L36.0327 12.5549L36.4465 12.7037L36.363 13.0743L36.6193 13.1665L36.7028 12.7959L37.1166 12.9447L37.0331 13.3153L37.395 13.4458L37.2548 13.8337L36.9419 13.7213L36.8631 14.0612L37.2251 14.1917L37.0859 14.5796L36.7729 14.4673L36.6894 14.8378L36.2756 14.689L36.3591 14.3185L36.1028 14.2263L36.0193 14.5969L35.6056 14.4481L35.6891 14.0775L35.3271 13.9469L35.4663 13.5591L35.7793 13.6714L35.858 13.3316L35.4961 13.201ZM36.1931 13.8202L36.4494 13.9124L36.5281 13.5725L36.2718 13.4804L36.1931 13.8202Z" fill="#AAA9A9"/>
<path d="M35.4706 8.955L35.3957 8.92812C35.3534 8.91276 35.3304 8.86572 35.3458 8.82252L35.3755 8.74092C35.3909 8.69868 35.4379 8.67564 35.4811 8.691L35.507 8.7006C35.5531 8.71692 35.604 8.69004 35.6146 8.64108L35.6242 8.59692C35.6347 8.54892 35.6856 8.52108 35.7317 8.5374L35.8277 8.57196C35.867 8.58636 35.8891 8.62668 35.8795 8.667L35.8603 8.75052C35.8507 8.79084 35.8738 8.83212 35.9122 8.84556C35.9582 8.86188 36.0091 8.835 36.0197 8.78604L36.0293 8.74188C36.0398 8.69388 36.0907 8.66604 36.1368 8.68236L36.2328 8.71692C36.2722 8.73132 36.2942 8.77164 36.2846 8.81196L36.2654 8.89548C36.2558 8.9358 36.2789 8.97708 36.3173 8.99052L36.3922 9.0174C36.4344 9.03276 36.4574 9.0798 36.4421 9.123L36.4123 9.2046C36.397 9.24684 36.3499 9.26988 36.3067 9.25452L36.2808 9.24492C36.2347 9.2286 36.1838 9.25548 36.1733 9.30348L36.1627 9.3486C36.1531 9.38892 36.1762 9.4302 36.2146 9.4446L36.2885 9.47148C36.3307 9.48684 36.3538 9.53388 36.3384 9.57708L36.3086 9.65868C36.2933 9.70092 36.2462 9.72396 36.203 9.7086L36.1771 9.699C36.131 9.68268 36.0802 9.70956 36.0696 9.75852L36.06 9.80268C36.0494 9.85068 35.9986 9.87852 35.9525 9.8622L35.8565 9.82764C35.8171 9.81324 35.795 9.77292 35.8046 9.7326L35.8238 9.64908C35.8334 9.60876 35.8104 9.56748 35.772 9.55404C35.7259 9.53772 35.675 9.5646 35.6645 9.61356L35.6549 9.65772C35.6443 9.70572 35.5934 9.73356 35.5474 9.71724L35.4514 9.68268C35.412 9.66828 35.3899 9.62796 35.3995 9.58764L35.4187 9.50412C35.4283 9.4638 35.4053 9.42252 35.3669 9.40908L35.292 9.3822C35.2498 9.36684 35.2267 9.3198 35.2421 9.2766L35.2718 9.195C35.2872 9.15276 35.3342 9.12972 35.3774 9.14508L35.4034 9.15468C35.4494 9.171 35.5003 9.14412 35.5109 9.09612L35.5214 9.051C35.532 9.01068 35.5099 8.9694 35.4706 8.955ZM35.7701 9.16044L35.7595 9.20556C35.7499 9.24588 35.773 9.28716 35.8114 9.30156C35.8574 9.31788 35.9083 9.291 35.9189 9.243L35.9294 9.19788C35.939 9.15756 35.916 9.11628 35.8776 9.10188C35.8315 9.08556 35.7816 9.1134 35.7701 9.16044Z" fill="#AAA9A9"/>
<path d="M41.515 11.7697L41.4219 11.5182L41.6244 11.4433L41.5112 11.2244L41.779 11.1255L41.8923 11.3444L42.0584 11.283L41.9451 11.0641L42.2129 10.9652L42.3262 11.1841L42.5604 11.0967L42.6536 11.3482L42.451 11.4231L42.5547 11.6247L42.7889 11.5374L42.882 11.7889L42.6795 11.8638L42.7928 12.0826L42.5249 12.1815L42.4116 11.9626L42.2456 12.0241L42.3588 12.243L42.091 12.3418L41.9777 12.123L41.7435 12.2103L41.6504 11.9588L41.8529 11.8839L41.7492 11.6823L41.515 11.7697ZM42.1208 11.7851L42.2868 11.7236L42.1832 11.522L42.0171 11.5835L42.1208 11.7851Z" fill="#7C7C7C"/>
<path d="M37.6185 9.25455L37.5254 9.00303L37.7279 8.92815L37.6147 8.70927L37.8825 8.61039L37.9958 8.82927L38.1619 8.76783L38.0486 8.54895L38.3164 8.45007L38.4297 8.66895L38.6639 8.58159L38.7571 8.83311L38.5545 8.90799L38.6582 9.10959L38.8924 9.02223L38.9855 9.27375L38.783 9.34863L38.8963 9.56751L38.6284 9.66639L38.5152 9.44751L38.3491 9.50895L38.4623 9.72783L38.1945 9.82671L38.0812 9.60783L37.847 9.69519L37.7539 9.44367L37.9564 9.36879L37.8527 9.16719L37.6185 9.25455ZM38.2243 9.26991L38.3903 9.20847L38.2867 9.00687L38.1206 9.06831L38.2243 9.26991Z" fill="#7C7C7C"/>
<path d="M38.6718 13.8529L38.1928 14.0717L36.3467 10.9028L37.7464 10.0369L38.6718 13.8529ZM38.7592 14.6785C38.5518 14.7735 38.3444 14.6996 38.2667 14.5297C38.188 14.3569 38.2715 14.1601 38.4788 14.065C38.6862 13.97 38.8897 14.0362 38.9684 14.2081C39.0472 14.3789 38.9675 14.5834 38.7592 14.6785Z" fill="#7C7C7C"/>
<path d="M42.14 14.5969L41.8232 14.3684L43.1873 12.0126L44.2606 12.5963L42.14 14.5969ZM41.6398 14.9559C41.5025 14.8571 41.4737 14.6967 41.5544 14.5844C41.6369 14.4702 41.7944 14.4519 41.9317 14.5508C42.0689 14.6497 42.1016 14.8052 42.019 14.9195C41.9384 15.0318 41.7771 15.0558 41.6398 14.9559Z" fill="#919191"/>
</g>
</g>
<defs>
<clipPath id="clip0_1146_49385">
<rect width="48" height="48" rx="24" fill="white"/>
</clipPath>
</defs>
</svg>
