<svg width="48" height="48" viewBox="0 0 48 48" fill="none" xmlns="http://www.w3.org/2000/svg">
<g clip-path="url(#clip0_1146_49387)">
<rect width="48" height="48" rx="24" fill="white"/>
<g clip-path="url(#clip1_1146_49387)">
<path d="M46.5702 25.7106C46.3475 27.6719 45.5814 29.5669 44.4169 31.1605C42.662 33.5605 39.279 34.1499 36.8684 32.4095C36.6275 32.2347 36.3712 32.0821 36.0966 31.9554C34.7651 31.34 32.9478 31.5733 32.1558 32.8069C31.2784 34.1768 31.9753 35.972 31.864 37.5954C31.742 39.3704 30.5958 40.9583 29.1356 41.9739C28.6278 42.3272 28.0854 42.6191 27.519 42.8639C26.4582 43.3256 25.3177 43.6232 24.1801 43.8536C20.4236 44.6139 16.4176 44.6744 12.8099 43.4735C12.0908 43.2354 11.3891 42.9464 10.7075 42.6027C6.60348 40.5349 3.46044 36.2111 3.69276 31.6223C3.77436 30.0018 4.52316 28.148 6.10716 27.7976C6.64188 27.6805 7.19964 27.7554 7.74492 27.7026C8.43324 27.6363 9.19164 27.284 9.18876 26.4642C9.1878 26.2098 9.10524 25.964 8.97468 25.7461C8.53212 25.0146 7.71708 24.6843 7.1766 24.0661C6.3366 23.1061 6.34332 21.6171 6.8838 20.4632C7.42428 19.3083 8.40444 18.4232 9.40476 17.6322C16.4176 12.0776 26.1433 9.23027 35.008 11.0754C37.551 11.6053 39.9846 12.7285 41.9574 14.4315C42.0217 14.4863 42.0841 14.5419 42.1456 14.5976C44.6713 16.8613 46.3398 20.108 46.6048 23.4699C46.6652 24.2149 46.6547 24.9647 46.5702 25.7106Z" fill="#EFEFEF"/>
<path d="M46.6057 23.471C46.0729 23.6726 45.543 23.8713 45.0198 24.0623C43.9168 25.5657 41.8979 25.8249 40.1632 26.5103C39.206 26.8886 38.1097 27.213 37.2016 27.695C36.6803 27.9724 35.9795 27.8486 35.584 27.4108C35.1894 26.973 35.1529 26.3145 35.4813 25.8249C35.0675 25.6857 34.6211 25.6828 34.1833 25.6578C33.7465 25.6329 33.2953 25.5791 32.92 25.3554C32.5437 25.1298 32.3497 24.719 32.2796 24.286C32.1251 23.3241 32.0195 22.3209 31.863 21.358C29.848 21.5634 27.832 21.7689 25.8169 21.9753C25.5644 22.0012 25.2985 22.0252 25.0681 21.9177C24.8387 21.8111 24.6025 21.4214 24.7158 21.1948C27.0073 20.2982 29.3008 19.4015 31.5933 18.5039C31.5289 18.1622 31.7449 17.8319 32.03 17.6322C32.3152 17.4335 32.6636 17.351 33.0025 17.2713C33.9443 17.0543 34.8841 16.8354 35.8259 16.6175C37.983 16.1183 40.07 15.3772 42.1465 14.5996C44.6723 16.8633 46.3408 20.109 46.6057 23.471Z" fill="#F4CDB8"/>
<path d="M31.6318 18.4799C33.0085 17.8885 34.3842 17.2972 35.7608 16.7058" stroke="#0D0B0D" stroke-width="0.096" stroke-miterlimit="10" stroke-linecap="round" stroke-linejoin="round"/>
<path d="M35.4391 25.8229C36.0813 24.8754 36.7437 23.9317 37.3869 22.9842C36.712 22.2488 36.0333 21.549 35.3584 20.8146C34.1892 21.0047 33.0208 21.1957 31.8516 21.3858" stroke="#0D0B0D" stroke-width="0.096" stroke-miterlimit="10" stroke-linecap="round" stroke-linejoin="round"/>
<path d="M45.3236 23.3865C45.1978 23.6514 45.072 23.9164 44.9463 24.1814" stroke="#0D0B0D" stroke-width="0.096" stroke-miterlimit="10" stroke-linecap="round" stroke-linejoin="round"/>
<path d="M35.3887 23.8252C35.5192 22.9862 35.6508 22.1471 35.7813 21.3071" stroke="#0D0B0D" stroke-width="0.096" stroke-miterlimit="10" stroke-linecap="round" stroke-linejoin="round"/>
<path d="M27.5207 42.8649C26.4599 43.3266 25.3194 43.6242 24.1818 43.8546C20.4253 44.615 16.4193 44.6754 12.8116 43.4745C12.3834 41.7398 11.9937 39.9887 11.9629 38.207C11.9265 36.1996 12.3853 34.1202 13.6218 32.5391C17.9236 32.3145 22.2013 32.0361 26.5031 31.8134C26.8689 35.4902 27.1703 39.1823 27.5207 42.8649Z" fill="#666666"/>
<path d="M20.865 44.1224C20.865 44.1224 20.649 42.8744 20.1172 39.7996" stroke="#0D0B0D" stroke-width="0.096" stroke-miterlimit="10" stroke-linecap="round" stroke-linejoin="round"/>
<path d="M13.2772 34.6041C12.7367 35.4211 12.5303 36.4224 12.5236 37.4016C12.5169 38.3808 12.6993 39.3504 12.8807 40.3132C13.402 43.0809 13.4836 43.5168 13.4836 43.5168" stroke="#0D0B0D" stroke-width="0.096" stroke-miterlimit="10" stroke-linecap="round" stroke-linejoin="round"/>
<path d="M12.6553 36.4703C13.6095 36.1017 14.415 35.3606 14.8614 34.439" stroke="#0D0B0D" stroke-width="0.096" stroke-miterlimit="10" stroke-linecap="round" stroke-linejoin="round"/>
<path d="M22.1279 33.3695C23.6236 33.4511 25.1193 33.5327 26.615 33.6153" stroke="#0D0B0D" stroke-width="0.096" stroke-miterlimit="10" stroke-linecap="round" stroke-linejoin="round"/>
<path d="M25.5586 33.6239C25.9205 34.6309 26.3602 35.6111 26.8728 36.5509" stroke="#0D0B0D" stroke-width="0.096" stroke-miterlimit="10" stroke-linecap="round" stroke-linejoin="round"/>
<path d="M24.7518 22.5916C23.7361 22.27 22.7694 21.982 21.7537 21.6604C21.2996 22.2134 20.5825 22.5407 19.8663 22.5215C19.1511 22.5014 18.4859 22.1049 18.0625 21.527C17.1495 21.7891 16.2519 22.0684 15.3438 22.3468C14.57 22.5839 13.8251 22.9727 13.3355 23.6169C12.8545 24.2495 12.3735 24.8831 11.8926 25.5158C12.578 25.8259 13.2827 26.1139 13.9691 26.4239C14.0516 28.4063 14.1275 30.4233 14.21 32.4057L25.3825 32.7446C25.7732 30.6403 26.1227 28.4975 26.3406 26.3692C26.9118 26.0063 27.5012 25.6607 28.0734 25.2979C27.3159 24.0748 26.1246 23.0265 24.7518 22.5916Z" fill="#A7A7AA"/>
<path d="M24.0898 26.635C25.2438 25.9986 26.3977 25.363 27.5516 24.7266" stroke="#0D0B0D" stroke-width="0.096" stroke-miterlimit="10" stroke-linecap="round" stroke-linejoin="round"/>
<path d="M15.3231 26.7244C15.2828 26.3356 15.2415 25.9458 15.2012 25.557" stroke="#0D0B0D" stroke-width="0.096" stroke-miterlimit="10" stroke-linecap="round" stroke-linejoin="round"/>
<path d="M12.5371 24.7996C13.4145 25.2757 14.3198 25.702 15.2472 26.0735" stroke="#0D0B0D" stroke-width="0.096" stroke-miterlimit="10" stroke-linecap="round" stroke-linejoin="round"/>
<path d="M16.8887 30.2495C17.0336 30.7362 17.5079 31.1058 18.0157 31.1279C18.5236 31.15 19.0276 30.8226 19.2148 30.3494" stroke="#0D0B0D" stroke-width="0.096" stroke-miterlimit="10" stroke-linecap="round" stroke-linejoin="round"/>
<path d="M15.5088 22.8557C15.6105 23.0285 15.7113 23.2013 15.8131 23.3741" stroke="white" stroke-width="0.0768" stroke-miterlimit="10" stroke-linecap="round" stroke-linejoin="round"/>
<path d="M14.2344 23.8291C14.3544 23.8733 14.4744 23.9165 14.5944 23.9606" stroke="white" stroke-width="0.0768" stroke-miterlimit="10" stroke-linecap="round" stroke-linejoin="round"/>
<path d="M16.7847 24.9792C16.6426 25.0455 16.5015 25.1117 16.3594 25.178" stroke="white" stroke-width="0.0768" stroke-miterlimit="10" stroke-linecap="round" stroke-linejoin="round"/>
<path d="M15.9482 26.808C16.0798 26.9606 16.2103 27.1133 16.3418 27.2669" stroke="white" stroke-width="0.0768" stroke-miterlimit="10" stroke-linecap="round" stroke-linejoin="round"/>
<path d="M17.7012 26.879C17.8317 26.8243 17.9633 26.7686 18.0938 26.7139" stroke="white" stroke-width="0.0768" stroke-miterlimit="10" stroke-linecap="round" stroke-linejoin="round"/>
<path d="M17.665 28.0685C17.7514 28.2106 17.8378 28.3536 17.9252 28.4957" stroke="white" stroke-width="0.0768" stroke-miterlimit="10" stroke-linecap="round" stroke-linejoin="round"/>
<path d="M19.4404 28.7194C19.3636 28.872 19.2877 29.0246 19.2109 29.1782" stroke="white" stroke-width="0.0768" stroke-miterlimit="10" stroke-linecap="round" stroke-linejoin="round"/>
<path d="M16.5186 28.9449C16.4629 29.0429 16.4082 29.1408 16.3525 29.2387" stroke="white" stroke-width="0.0768" stroke-miterlimit="10" stroke-linecap="round" stroke-linejoin="round"/>
<path d="M20.5127 30.91C20.7105 30.9715 20.9082 31.0329 21.106 31.0934" stroke="white" stroke-width="0.0768" stroke-miterlimit="10" stroke-linecap="round" stroke-linejoin="round"/>
<path d="M20.2266 31.537C20.3034 31.6243 20.3792 31.7117 20.456 31.7991" stroke="white" stroke-width="0.0768" stroke-miterlimit="10" stroke-linecap="round" stroke-linejoin="round"/>
<path d="M17.8682 30.3244C17.9776 30.2812 18.0861 30.237 18.1955 30.1938" stroke="white" stroke-width="0.0768" stroke-miterlimit="10" stroke-linecap="round" stroke-linejoin="round"/>
<path d="M22.0939 31.6676C22.0046 31.7607 21.9672 31.9018 21.9979 32.0276" stroke="white" stroke-width="0.0768" stroke-miterlimit="10" stroke-linecap="round" stroke-linejoin="round"/>
<path d="M22.4863 23.5431C22.639 23.5431 22.7916 23.5431 22.9452 23.5431" stroke="white" stroke-width="0.0768" stroke-miterlimit="10" stroke-linecap="round" stroke-linejoin="round"/>
<path d="M23.8672 22.8864C23.9555 23.0496 24.0438 23.2128 24.1321 23.376" stroke="white" stroke-width="0.0768" stroke-miterlimit="10" stroke-linecap="round" stroke-linejoin="round"/>
<path d="M23.1396 24.9937C23.3259 25.0474 23.5112 25.1021 23.6974 25.1559" stroke="white" stroke-width="0.0768" stroke-miterlimit="10" stroke-linecap="round" stroke-linejoin="round"/>
<path d="M22.3044 22.1942C22.2612 22.3257 22.219 22.4573 22.1758 22.5878" stroke="white" stroke-width="0.0768" stroke-miterlimit="10" stroke-linecap="round" stroke-linejoin="round"/>
<path d="M25.6973 24.0748C25.8614 24.0854 26.0246 24.095 26.1888 24.1055" stroke="white" stroke-width="0.0768" stroke-miterlimit="10" stroke-linecap="round" stroke-linejoin="round"/>
<path d="M25.0742 25.0829C25.0742 25.1702 25.0742 25.2576 25.0742 25.345" stroke="white" stroke-width="0.0768" stroke-miterlimit="10" stroke-linecap="round" stroke-linejoin="round"/>
<path d="M23.9609 25.7712C24.103 25.7712 24.2451 25.7712 24.3872 25.7712" stroke="white" stroke-width="0.0768" stroke-miterlimit="10" stroke-linecap="round" stroke-linejoin="round"/>
<path d="M20.1738 19.4986C20.6327 18.9091 21.4305 18.6048 22.1649 18.7392C22.8993 18.8736 23.5377 19.44 23.7585 20.1543" stroke="#0D0B0D" stroke-width="0.096" stroke-miterlimit="10" stroke-linecap="round" stroke-linejoin="round"/>
<path d="M22.4706 19.9401C22.7289 20.0861 22.9583 20.2713 23.1426 20.4969C23.2972 20.4163 23.4518 20.3366 23.6073 20.256C23.5286 20.0477 23.421 19.8499 23.2895 19.6694C23.1215 19.439 22.9132 19.2365 22.6703 19.0877C22.2844 18.8505 21.814 18.7555 21.3657 18.8227C20.9183 18.8909 20.4748 19.1126 20.1762 19.4534C19.6943 19.3209 19.1577 19.3987 18.7334 19.6637C18.309 19.9286 18.0028 20.376 17.9106 20.8675C17.8242 21.3264 18.1468 21.7814 18.5164 22.0665C18.886 22.3507 19.3631 22.4736 19.8297 22.4717C20.181 22.4697 20.5382 22.3987 20.8425 22.223C21.1468 22.0473 21.3954 21.7613 21.4838 21.4205L21.6978 21.2467C22.0473 21.0662 22.3948 20.8857 22.7423 20.7053C22.7106 20.4336 22.6185 20.1696 22.4706 19.9401Z" fill="#0D0B0D"/>
<path d="M21.1972 22.4679C21.4938 22.5149 21.8096 22.3469 21.945 22.0781C22.0804 21.8103 22.0333 21.4627 21.8384 21.2333C21.6445 21.0039 21.3172 20.8992 21.0234 20.9626C21.0061 21.145 20.9725 21.3283 20.9552 21.5117C20.8285 21.5328 20.6788 21.5232 20.5664 21.4608C20.4541 21.3975 20.3648 21.2957 20.3168 21.1767C20.2516 21.1546 20.1728 21.1287 20.1076 21.1066C19.9108 21.2871 19.6266 21.3667 19.3645 21.3149C19.1024 21.2631 18.8701 21.0807 18.7568 20.8387C18.656 20.8963 18.5178 20.9367 18.417 20.9943C18.7194 21.8227 18.9901 22.6791 19.2925 23.5075C20.0423 23.5056 20.8112 23.1111 21.1972 22.4679Z" fill="#F4A89F"/>
<path d="M21.291 21.6883C21.3966 21.5645 21.5022 21.4416 21.6088 21.3177" stroke="#0D0B0D" stroke-width="0.096" stroke-miterlimit="10" stroke-linecap="round" stroke-linejoin="round"/>
<path d="M19.1309 21.4886C19.3046 21.5798 19.4985 21.6326 19.6944 21.6422" stroke="#0D0B0D" stroke-width="0.096" stroke-miterlimit="10" stroke-linecap="round" stroke-linejoin="round"/>
<path d="M19.3145 22.0599C19.4009 22.0512 19.4863 22.0426 19.5727 22.0349" stroke="#0D0B0D" stroke-width="0.096" stroke-miterlimit="10" stroke-linecap="round" stroke-linejoin="round"/>
<path d="M28.9094 28.7654C28.5475 27.1631 27.671 25.4687 27.671 25.4687L24.5299 26.9874C23.4585 26.0265 22.4304 25.0607 21.359 24.1007C21.4521 23.7138 21.4598 23.2713 21.3196 22.8998C21.0163 22.0962 20.7264 21.2726 20.423 20.469C20.2003 20.4527 19.9958 20.6831 19.966 20.9039C19.8768 21.5702 19.7884 22.2374 19.6992 22.9036C19.4227 22.5974 19.1203 22.2998 18.8428 21.9935C18.7171 21.3762 18.5865 20.7878 18.4608 20.1705C18.4252 19.9967 18.2563 19.8374 18.0796 19.8594C18.0691 19.9737 18.0604 20.0706 18.0499 20.1849C18.0681 20.0879 18.0096 19.965 17.9433 19.8911C17.8771 19.8182 17.7763 19.7788 17.6774 19.7874C17.64 20.014 17.5814 20.2444 17.543 20.471C17.5152 20.3586 17.4499 20.2434 17.35 20.1858C17.2953 20.1542 17.2262 20.1484 17.1676 20.1705C17.1072 20.5036 17.0438 20.8502 16.9824 21.1842C16.9574 21.2092 16.9248 21.2255 16.8998 21.2495C16.7376 21.981 16.5744 22.7222 16.4131 23.4537C17.1494 24.4185 17.8953 25.4361 18.6316 26.3999C20.1292 28.3622 21.5212 30.4175 23.2416 32.1878C23.9462 32.9126 25.0099 33.1372 26.0179 33.0671C27.0259 32.997 28.006 32.4777 28.5849 31.6502C29.1648 30.8217 29.1321 29.7513 28.9094 28.7654Z" fill="#F4CDB8"/>
<path d="M18.0339 20.0304C18.0089 20.7629 17.9839 21.4963 17.959 22.2288" stroke="#0D0B0D" stroke-width="0.096" stroke-miterlimit="10" stroke-linecap="round" stroke-linejoin="round"/>
<path d="M17.5536 20.2751C17.4768 21.0172 17.4 21.7583 17.3223 22.5004" stroke="#0D0B0D" stroke-width="0.096" stroke-miterlimit="10" stroke-linecap="round" stroke-linejoin="round"/>
<path d="M16.9845 21.1487C16.9308 21.7381 16.878 22.3276 16.8242 22.918" stroke="#0D0B0D" stroke-width="0.096" stroke-miterlimit="10" stroke-linecap="round" stroke-linejoin="round"/>
<path d="M21.3884 24.0959C21.3634 24.19 21.3394 24.2841 21.3145 24.3782" stroke="#0D0B0D" stroke-width="0.096" stroke-miterlimit="10" stroke-linecap="round" stroke-linejoin="round"/>
<path d="M24.5469 26.9576C25.0874 27.4645 25.6278 27.9724 26.1693 28.4792" stroke="#0D0B0D" stroke-width="0.096" stroke-miterlimit="10" stroke-linecap="round" stroke-linejoin="round"/>
<path d="M25.7001 36.4185C25.8383 36.4204 26.0101 36.3427 26.0533 36.2112C25.2959 35.1868 24.5164 34.1404 23.4537 33.4368C22.8844 33.0604 22.245 32.7907 21.5951 32.5862C19.6415 31.9708 17.6879 31.2508 15.7804 30.5049C15.6373 29.2329 15.4943 27.9609 15.3522 26.6889L12.5682 25.6531C12.1967 27.0547 11.8751 28.4534 11.4949 29.8531C11.2761 30.6576 11.2165 31.512 11.3817 32.3299C11.5468 33.1468 11.9452 33.9254 12.5529 34.4956C13.1615 35.0659 13.9919 35.3088 14.8098 35.4672C16.6521 35.8243 18.4943 36.1622 20.3116 36.4944C20.8741 37.0156 21.621 37.3968 22.0108 38.0582C22.2805 38.5161 22.5897 38.952 22.9343 39.358C22.9852 39.4185 23.0399 39.48 23.1138 39.5068C23.1877 39.5347 23.3154 39.5289 23.349 39.4579C23.1647 38.9836 22.9977 38.4998 22.8143 38.0256C23.2684 38.4566 23.7225 38.8867 24.1765 39.3177C24.261 39.3984 24.3493 39.4809 24.4588 39.5222C24.5682 39.5635 24.7228 39.5616 24.7996 39.4742C24.7823 39.4387 24.7871 39.4012 24.7698 39.3667C24.8303 39.4425 24.9196 39.4944 25.0146 39.5088C25.1097 39.5232 25.2287 39.5136 25.3084 39.4588C24.9801 38.6419 24.6901 37.8163 24.3618 36.9993C24.7151 37.5225 25.0348 38.0985 25.4447 38.5785C25.5676 38.7225 25.8057 38.7782 25.9689 38.6822C25.6127 37.8163 25.2383 36.9398 24.8831 36.0739C25.0233 36.1497 25.1653 36.2236 25.3074 36.2947C25.4322 36.3561 25.5618 36.4166 25.7001 36.4185Z" fill="#F4CDB8"/>
<path d="M15.1748 30.2582C15.3879 30.3273 15.601 30.3964 15.8142 30.4655" stroke="#0D0B0D" stroke-width="0.096" stroke-miterlimit="10" stroke-linecap="round" stroke-linejoin="round"/>
<path d="M24.5273 35.1733C24.6665 35.5007 24.8057 35.8281 24.9449 36.1554" stroke="#0D0B0D" stroke-width="0.096" stroke-miterlimit="10" stroke-linecap="round" stroke-linejoin="round"/>
<path d="M23.5176 37.4937C23.9534 38.1503 24.3883 38.806 24.8241 39.4626" stroke="#0D0B0D" stroke-width="0.096" stroke-miterlimit="10" stroke-linecap="round" stroke-linejoin="round"/>
<path d="M23.2787 16.6597C23.2787 16.4937 23.1443 16.3593 22.9782 16.3593C22.8121 16.3593 22.6777 16.4937 22.6777 16.6597C22.6777 16.8258 22.8121 16.9602 22.9782 16.9602C23.1443 16.9612 23.2787 16.8258 23.2787 16.6597Z" fill="#868687" stroke="#868687" stroke-width="0.096" stroke-miterlimit="10"/>
<path d="M36.765 34.8046C36.765 34.6385 36.6306 34.5042 36.4645 34.5042C36.2985 34.5042 36.1641 34.6385 36.1641 34.8046C36.1641 34.9707 36.2985 35.1051 36.4645 35.1051C36.6306 35.1051 36.765 34.9707 36.765 34.8046Z" fill="#868687" stroke="#868687" stroke-width="0.096" stroke-miterlimit="10"/>
<path d="M40.4056 14.0945C40.4056 13.9285 40.2712 13.7941 40.1052 13.7941C39.9391 13.7941 39.8047 13.9285 39.8047 14.0945C39.8047 14.2606 39.9391 14.395 40.1052 14.395C40.2703 14.395 40.4056 14.2606 40.4056 14.0945Z" fill="#868687" stroke="#868687" stroke-width="0.096" stroke-miterlimit="10" stroke-linecap="round" stroke-linejoin="round"/>
<path d="M10.5238 12.26C10.5238 12.0939 10.3894 11.9595 10.2233 11.9595C10.0573 11.9595 9.92285 12.0939 9.92285 12.26C9.92285 12.426 10.0573 12.5604 10.2233 12.5604C10.3894 12.5604 10.5238 12.426 10.5238 12.26Z" fill="#868687" stroke="#868687" stroke-width="0.096" stroke-miterlimit="10"/>
<path d="M28.1488 36.6479C28.1488 36.4818 28.0144 36.3474 27.8483 36.3474C27.6822 36.3474 27.5479 36.4818 27.5479 36.6479C27.5479 36.814 27.6822 36.9484 27.8483 36.9484C28.0144 36.9493 28.1488 36.814 28.1488 36.6479Z" fill="#868687" stroke="#868687" stroke-width="0.096" stroke-miterlimit="10"/>
<path d="M6.08857 32.0283C6.25452 32.0283 6.38905 31.8938 6.38905 31.7278C6.38905 31.5619 6.25452 31.4274 6.08857 31.4274C5.92262 31.4274 5.78809 31.5619 5.78809 31.7278C5.78809 31.8938 5.92262 32.0283 6.08857 32.0283Z" fill="#868687" stroke="#868687" stroke-width="0.096" stroke-miterlimit="10"/>
<path d="M18.9763 17.9374C18.9763 17.8711 18.9226 17.8174 18.8563 17.8174C18.7901 17.8174 18.7363 17.8711 18.7363 17.9374C18.7363 18.0036 18.7901 18.0574 18.8563 18.0574C18.9226 18.0583 18.9763 18.0046 18.9763 17.9374Z" fill="#868687" stroke="#868687" stroke-width="0.096" stroke-miterlimit="10"/>
<path d="M42.5838 29.5573C42.5838 29.491 42.53 29.4373 42.4638 29.4373C42.3975 29.4373 42.3438 29.491 42.3438 29.5573C42.3438 29.6235 42.3975 29.6773 42.4638 29.6773C42.53 29.6773 42.5838 29.6235 42.5838 29.5573Z" fill="#868687" stroke="#868687" stroke-width="0.096" stroke-miterlimit="10"/>
<path d="M29.447 11.8386C29.447 11.7724 29.3933 11.7186 29.327 11.7186C29.2608 11.7186 29.207 11.7724 29.207 11.8386C29.207 11.9049 29.2608 11.9586 29.327 11.9586C29.3923 11.9596 29.447 11.9058 29.447 11.8386Z" fill="#868687" stroke="#868687" stroke-width="0.096" stroke-miterlimit="10"/>
<path d="M29.8143 26.2251C29.8806 26.2251 29.9343 26.1714 29.9343 26.1051C29.9343 26.0388 29.8806 25.9851 29.8143 25.9851C29.7481 25.9851 29.6943 26.0388 29.6943 26.1051C29.6943 26.1714 29.7481 26.2251 29.8143 26.2251Z" fill="#868687" stroke="#868687" stroke-width="0.096" stroke-miterlimit="10"/>
<path d="M14.4785 17.1848L13.9658 18.0719H14.9901L14.4785 17.1848Z" fill="#868687" stroke="#868687" stroke-width="0.096" stroke-miterlimit="10"/>
<path d="M6.38959 41.8693L5.87695 42.7563H6.90127L6.38959 41.8693Z" fill="#868687" stroke="#868687" stroke-width="0.096" stroke-miterlimit="10" stroke-linecap="round" stroke-linejoin="round"/>
<path d="M45.1357 33.7275L45.6474 32.8405H44.623L45.1357 33.7275Z" fill="#868687" stroke="#868687" stroke-width="0.096" stroke-miterlimit="10" stroke-linecap="round" stroke-linejoin="round"/>
<path d="M34.0341 14.3855L34.5468 13.4984H33.5215L34.0341 14.3855Z" fill="#868687" stroke="#868687" stroke-width="0.096" stroke-miterlimit="10"/>
<path d="M17.227 14.516L16.4014 15.3416" stroke="#868687" stroke-width="0.096" stroke-miterlimit="10" stroke-linecap="round"/>
<path d="M16.4014 14.516L17.227 15.3416" stroke="#868687" stroke-width="0.096" stroke-miterlimit="10" stroke-linecap="round"/>
<path d="M32.0453 28.0828L31.2197 28.9084" stroke="#868687" stroke-width="0.096" stroke-miterlimit="10" stroke-linecap="round" stroke-linejoin="round"/>
<path d="M31.2197 28.0828L32.0453 28.9084" stroke="#868687" stroke-width="0.096" stroke-miterlimit="10" stroke-linecap="round" stroke-linejoin="round"/>
<path d="M10.6352 38.9442L9.80957 39.7698" stroke="#868687" stroke-width="0.096" stroke-miterlimit="10" stroke-linecap="round"/>
<path d="M9.80957 38.9442L10.6352 39.7698" stroke="#868687" stroke-width="0.096" stroke-miterlimit="10" stroke-linecap="round"/>
<path d="M39.9643 9.61414L39.1387 10.4407" stroke="#868687" stroke-width="0.096" stroke-miterlimit="10" stroke-linecap="round"/>
<path d="M39.1387 9.61414L39.9643 10.4407" stroke="#868687" stroke-width="0.096" stroke-miterlimit="10" stroke-linecap="round"/>
<path d="M5.17521 23.9115L4.34961 24.7371" stroke="#868687" stroke-width="0.096" stroke-miterlimit="10" stroke-linecap="round"/>
<path d="M4.34961 23.9115L5.17521 24.7371" stroke="#868687" stroke-width="0.096" stroke-miterlimit="10" stroke-linecap="round"/>
</g>
</g>
<defs>
<clipPath id="clip0_1146_49387">
<rect width="48" height="48" rx="24" fill="white"/>
</clipPath>
<clipPath id="clip1_1146_49387">
<rect width="48" height="48" fill="white"/>
</clipPath>
</defs>
</svg>
