<svg width="48" height="48" viewBox="0 0 48 48" fill="none" xmlns="http://www.w3.org/2000/svg">
<g clip-path="url(#clip0_1146_49389)">
<rect width="48" height="48" rx="24" fill="white"/>
<g clip-path="url(#clip1_1146_49389)">
<g opacity="0.28">
<g opacity="0.6">
<path d="M24.5829 8.63528C24.5829 8.63528 24.4427 8.3204 24.3025 8.21576C24.1624 8.11112 24.1278 7.72616 24.2325 7.51592C24.3371 7.30568 23.9521 7.0964 23.9521 7.0964C23.9521 7.0964 24.2325 6.46664 24.8968 5.94152C25.5621 5.4164 25.6158 4.91336 25.7109 4.44776C25.8059 3.98216 25.8059 3.70184 26.3665 3.42248C26.9262 3.14216 27.6261 2.89736 27.7317 2.618C27.8363 2.33768 27.8363 2.33768 27.8363 2.33768C27.8363 2.33768 27.6961 3.1076 27.3813 3.28232C27.0664 3.45704 26.5413 3.842 26.5413 4.05224C26.5413 4.26248 26.5758 4.64744 26.5758 4.64744C26.5758 4.64744 26.6459 3.98216 27.2411 3.98216C27.8363 3.98216 28.3259 4.12232 28.4661 3.70184C28.6062 3.28232 28.6408 2.86184 28.6408 2.86184L29.0958 2.12744C29.0958 2.12744 28.7809 2.86184 28.8856 3.28232C28.9902 3.70184 29.3752 4.05224 29.62 3.42248C29.8648 2.79272 29.6901 2.19752 29.6901 2.19752C29.6901 2.19752 30.0405 3.07208 29.8648 3.56264C29.6891 4.0532 29.5845 4.33256 29.0603 4.40264C28.5352 4.47272 28.2904 4.4372 27.9054 4.75208C27.5205 5.06696 27.3803 5.34728 27.5205 5.41736C27.6606 5.48744 27.9054 5.41736 27.94 5.55752C27.9745 5.69768 28.0043 5.70632 28.0773 5.99912C28.1502 6.29192 28.1502 5.8724 28.6398 5.8724C29.1294 5.8724 29.5845 6.43208 29.9694 5.66216C30.3544 4.89224 30.2142 4.36712 30.7739 4.26248C31.3336 4.15784 31.4737 4.15784 31.4737 4.15784C31.4737 4.15784 30.6693 4.298 30.5992 4.85768C30.5291 5.41736 30.9486 5.97704 30.4945 6.57224C30.0395 7.16744 29.62 7.13192 29.4097 7.41224C29.1995 7.69256 29.1294 8.21672 29.1649 8.32232C29.1995 8.42696 29.5144 9.09224 29.5144 9.09224C29.5144 9.09224 29.4097 8.95208 30.0395 8.70728C30.6693 8.46248 30.6693 8.46248 30.6693 8.46248C30.6693 8.46248 30.2497 8.81288 30.2843 9.16232C30.3189 9.51176 30.5291 9.65192 30.3544 10.177C30.1797 10.7022 29.9694 10.8423 29.6545 10.9815C29.3397 11.1217 29.1294 11.2263 29.1294 11.401C29.1294 11.5758 29.3397 11.6458 29.4443 11.8561C29.5489 12.0663 29.8293 12.4158 29.5845 12.4858C29.3397 12.5559 28.8145 12.8353 28.7099 13.0455C28.6053 13.2558 28.5352 13.4305 28.5352 13.4305C28.5352 13.4305 28.6398 12.241 28.2203 11.8561C27.8008 11.4711 27.2056 11.5758 27.2056 11.5758C27.2056 11.5758 27.9755 11.0862 27.6606 10.5265C27.3457 9.9668 26.9349 10.4074 26.9349 10.4074C26.9349 10.4074 27.1182 9.88232 26.8561 9.79208C26.5941 9.70184 26.331 9.89672 26.331 9.89672C26.331 9.89672 26.6805 9.3716 26.2965 8.81192C25.9115 8.25224 25.5621 8.3924 25.3518 8.6372C25.1416 8.882 24.5819 10.107 24.5819 10.107C24.5819 10.107 24.8632 9.0548 24.5829 8.63528Z" fill="#686868"/>
<path opacity="0.49" d="M27.2076 11.5747C27.2076 11.5747 28.182 11.0054 28.4441 10.8297C28.7062 10.655 28.279 10.3094 28.279 10.3094L29.144 9.34267C29.144 9.34267 29.0124 9.12379 28.5315 9.16795C28.0505 9.21211 27.7001 9.21211 27.5686 8.77435C27.4371 8.33659 28.3568 7.94299 28.3568 7.94299C28.3568 7.94299 28.0947 7.98715 27.6569 7.37371C27.2192 6.76123 28.2694 6.58555 28.2694 6.58555C28.2694 6.58555 27.4812 6.58555 27.175 6.76027C26.8688 6.93499 26.694 7.15387 26.3436 7.06651C25.9932 6.97915 26.5184 6.32251 26.5184 6.32251C26.5184 6.32251 25.8617 6.58555 25.5123 6.93499C25.1619 7.28539 25.4249 7.37275 25.3376 8.02939C25.2502 8.68603 24.583 8.63515 24.583 8.63515C24.8633 9.05467 24.583 10.1049 24.583 10.1049C24.583 10.1049 25.1427 8.87995 25.3529 8.63515C25.5632 8.39035 25.9126 8.25019 26.2976 8.80987C26.6825 9.36955 26.3321 9.89467 26.3321 9.89467C26.3321 9.89467 26.5952 9.69979 26.8572 9.79003C27.1193 9.88027 26.936 10.4054 26.936 10.4054C26.936 10.4054 27.3468 9.96475 27.6617 10.5244C27.9776 11.0841 27.2076 11.5747 27.2076 11.5747Z" fill="white"/>
</g>
<g opacity="0.7">
<path d="M13.2997 23.5045C13.2997 23.5045 16.3017 17.4153 25.9929 13.9852C35.6841 10.5551 40.1865 11.0505 45.9119 15.7765C51.6364 20.5026 50.0073 24.1045 57.3829 25.4773C64.7586 26.8492 67.9314 34.3967 68.8751 39.6287C69.8188 44.8607 68.0178 48.6335 68.0178 48.6335H9.44054C9.44054 48.6335 7.72502 37.0559 9.61238 31.6521C11.4988 26.2492 13.2997 23.5045 13.2997 23.5045Z" fill="#EFEFEF"/>
</g>
<path d="M53.1811 20.4125C54.1526 19.3882 53.4797 15.4378 52.5082 14.1216C51.5367 12.8045 53.1062 11.5613 53.1062 11.5613C53.1062 11.5613 52.0599 12.1469 51.5367 13.9757C51.0135 15.8045 49.8922 14.1955 49.5187 13.8298C49.1453 13.464 50.7149 11.7082 50.7149 11.7082C50.7149 11.7082 48.6221 12.7325 47.9501 14.1226C47.2771 15.5126 46.7539 15.3658 46.2307 15.0739C45.7075 14.7811 46.7539 13.8307 46.7539 13.8307C46.7539 13.8307 45.409 14.3424 44.2128 15.7325C43.0166 17.1226 43.6147 17.8541 43.0915 18.5126C42.841 18.8275 42.0077 18.9418 41.208 18.9744V41.0054C42.1997 40.9718 43.3277 40.8864 43.9142 40.6771C45.1018 40.2538 45.5587 38.5555 45.5587 38.5555L42.7939 38.7754C42.7939 38.7754 44.064 37.8979 45.1853 36.4349C46.3066 34.9718 45.335 33.143 45.7085 32.4115C46.0819 31.68 47.951 31.8259 48.6979 31.3142C49.4458 30.8026 50.0429 29.4125 50.0429 29.4125C50.0429 29.4125 48.7728 30.2899 48.3235 29.7053C47.8752 29.1197 49.5197 28.1693 49.5197 28.1693C49.5197 28.1693 48.6979 28.0234 48.025 28.3891C47.352 28.7549 46.5302 30.072 45.5587 31.1693C44.5872 32.2666 43.8394 31.608 43.8394 31.608C43.8394 31.608 45.4838 30.6566 46.5302 28.9747C47.5766 27.2918 47.1283 26.8531 48.1747 26.2685C49.2211 25.6829 51.1642 25.6099 51.7622 24.8784C52.3603 24.1469 52.5101 22.6109 52.5101 22.6109C52.5101 22.6109 52.5101 22.6109 51.912 23.2694C51.3139 23.928 50.1187 23.7082 49.0723 23.4893C48.0259 23.2694 47.2042 24.2208 47.2042 24.2208C47.2042 24.2208 47.279 23.2694 48.1757 22.319C49.0704 21.3629 52.2096 21.4368 53.1811 20.4125Z" fill="#686868"/>
<path opacity="0.49" d="M50.64 18.218C50.64 18.218 48.9206 18.291 47.9491 18.7297C46.9776 19.1684 46.9776 20.4126 45.7814 20.4126C44.5853 20.4126 45.8563 18.6567 45.8563 18.6567C45.8563 18.6567 44.3616 19.3883 43.7635 19.827C43.1654 20.2657 43.2403 21.1441 43.1654 22.0215C43.0982 22.8087 41.5306 23.1841 41.207 23.2532V35.4308L41.2224 38.6267C41.2224 38.6267 41.3722 37.4564 41.5958 36.578C41.8205 35.7006 42.3427 34.8951 43.3152 34.5668C44.2867 34.2375 44.8099 32.6286 44.8099 32.6286C44.8099 32.6286 44.1744 33.2142 42.7258 32.2907C42.3158 32.0295 42.0835 31.9431 41.9597 31.9403C41.9165 31.3892 42.1104 30.8295 43.1664 30.1412C44.2877 29.4097 45.1094 29.6295 46.081 28.6052C47.0525 27.5809 47.5008 25.2404 47.5008 25.2404C47.5008 25.2404 47.1274 25.4603 46.6042 26.8494C46.081 28.2395 44.8483 27.8007 44.8483 27.8007C44.8483 27.8007 44.8483 27.8007 45.4838 26.9963C46.1194 26.1918 45.7085 25.5332 45.2592 25.2404C44.8109 24.9476 44.8109 23.8503 46.1558 22.9729C47.5008 22.0955 47.9491 21.8027 47.8003 20.6324C47.6515 19.4622 50.64 18.218 50.64 18.218Z" fill="white"/>
<path d="M44.4002 22.4611C44.7512 22.4611 45.0357 22.1826 45.0357 21.839C45.0357 21.4954 44.7512 21.2169 44.4002 21.2169C44.0492 21.2169 43.7646 21.4954 43.7646 21.839C43.7646 22.1826 44.0492 22.4611 44.4002 22.4611Z" fill="#383838"/>
<path d="M43.2413 25.2769C43.2413 25.4584 43.0906 25.6062 42.9053 25.6062C42.7201 25.6062 42.5693 25.4584 42.5693 25.2769C42.5693 25.0955 42.7201 24.9476 42.9053 24.9476C43.0906 24.9476 43.2413 25.0955 43.2413 25.2769Z" fill="#383838"/>
<path d="M44.5863 25.679C44.669 25.679 44.736 25.6137 44.736 25.5331C44.736 25.4525 44.669 25.3872 44.5863 25.3872C44.5036 25.3872 44.4365 25.4525 44.4365 25.5331C44.4365 25.6137 44.5036 25.679 44.5863 25.679Z" fill="#383838"/>
<path d="M43.989 27.3254C43.989 27.4665 43.8719 27.5817 43.7279 27.5817C43.5839 27.5817 43.4668 27.4675 43.4668 27.3254C43.4668 27.1843 43.5839 27.0691 43.7279 27.0691C43.8719 27.0691 43.989 27.1833 43.989 27.3254Z" fill="#383838"/>
<path d="M43.3914 29.373C43.3914 29.5141 43.2743 29.6293 43.1303 29.6293C42.9863 29.6293 42.8691 29.5151 42.8691 29.373C42.8691 29.2319 42.9863 29.1167 43.1303 29.1167C43.2743 29.1167 43.3914 29.2319 43.3914 29.373Z" fill="#383838"/>
<path d="M45.1101 28.057C45.1101 28.1981 44.993 28.3133 44.849 28.3133C44.705 28.3133 44.5879 28.1991 44.5879 28.057C44.5879 27.9159 44.705 27.8007 44.849 27.8007C44.993 27.8007 45.1101 27.9149 45.1101 28.057Z" fill="#383838"/>
<path d="M43.3162 34.5667C43.3162 34.7079 43.1991 34.8231 43.0551 34.8231C42.9111 34.8231 42.7939 34.7088 42.7939 34.5667C42.7939 34.4256 42.9111 34.3104 43.0551 34.3104C43.1991 34.3114 43.3162 34.4256 43.3162 34.5667Z" fill="#383838"/>
<path d="M44.3627 33.3965C44.3627 33.4973 44.2792 33.5789 44.1755 33.5789C44.0718 33.5789 43.9883 33.4973 43.9883 33.3965C43.9883 33.2957 44.0718 33.2141 44.1755 33.2141C44.2792 33.2141 44.3627 33.2957 44.3627 33.3965Z" fill="#383838"/>
<path d="M43.4659 36.3954C43.4659 36.5769 43.3152 36.7247 43.1299 36.7247C42.9447 36.7247 42.7939 36.5769 42.7939 36.3954C42.7939 36.214 42.9447 36.0662 43.1299 36.0662C43.3152 36.0662 43.4659 36.214 43.4659 36.3954Z" fill="#383838"/>
<path d="M43.1665 39.7238C43.1665 39.8851 43.033 40.0166 42.8679 40.0166C42.7028 40.0166 42.5693 39.8861 42.5693 39.7238C42.5693 39.5626 42.7028 39.431 42.8679 39.431C43.033 39.431 43.1665 39.5626 43.1665 39.7238Z" fill="#383838"/>
<path d="M29.7506 8.9502H13.7676V48.6337H29.7506V8.9502Z" fill="white" stroke="#3A3A3A" stroke-width="0.096" stroke-miterlimit="10" stroke-linecap="round" stroke-linejoin="round"/>
<path d="M29.7506 8.9502H13.7676V10.0878H29.7506V8.9502Z" fill="#383838"/>
<path d="M29.7506 18.9419H13.7676V20.0795H29.7506V18.9419Z" fill="#383838"/>
<path d="M29.7506 28.9825H13.7676V30.1201H29.7506V28.9825Z" fill="#383838"/>
<path d="M29.7506 38.7821H13.7676V39.9197H29.7506V38.7821Z" fill="#383838"/>
<path d="M41.2345 8.9502H29.749V48.6337H41.2345V8.9502Z" fill="#BDBDBD" stroke="#3A3A3A" stroke-width="0.096" stroke-miterlimit="10" stroke-linecap="round" stroke-linejoin="round"/>
<path d="M42.2843 18.4973H13.1426V19.5908H42.2843V18.4973Z" fill="#919191" stroke="#3A3A3A" stroke-width="0.096" stroke-miterlimit="10" stroke-linecap="round" stroke-linejoin="round"/>
<path d="M30.5637 18.4973H13.1426V19.5908H30.5637V18.4973Z" fill="white" stroke="#3A3A3A" stroke-width="0.096" stroke-miterlimit="10" stroke-linecap="round" stroke-linejoin="round"/>
<path d="M42.2843 28.4017H13.1426V29.4952H42.2843V28.4017Z" fill="#919191" stroke="#3A3A3A" stroke-width="0.096" stroke-miterlimit="10" stroke-linecap="round" stroke-linejoin="round"/>
<path d="M30.5637 28.4017H13.1426V29.4952H30.5637V28.4017Z" fill="white" stroke="#3A3A3A" stroke-width="0.096" stroke-miterlimit="10" stroke-linecap="round" stroke-linejoin="round"/>
<path d="M42.2843 38.307H13.1426V39.4004H42.2843V38.307Z" fill="white" stroke="#3A3A3A" stroke-width="0.096" stroke-miterlimit="10" stroke-linecap="round" stroke-linejoin="round"/>
<path d="M30.5637 38.307H13.1426V39.4004H30.5637V38.307Z" fill="white" stroke="#3A3A3A" stroke-width="0.096" stroke-miterlimit="10" stroke-linecap="round" stroke-linejoin="round"/>
<path d="M17.7214 11.4337H14.8184V16.5726H17.7214V11.4337Z" fill="#383838"/>
<path d="M17.4939 11.835H15.0449V16.1713H17.4939V11.835Z" fill="white" stroke="#3A3A3A" stroke-width="0.096" stroke-miterlimit="10" stroke-linecap="round" stroke-linejoin="round"/>
<path d="M17.4939 13.8184H15.0449V14.188H17.4939V13.8184Z" fill="#383838"/>
<path d="M23.2214 11.4337H20.3184V16.5726H23.2214V11.4337Z" fill="#383838"/>
<path d="M22.9939 11.835H20.5449V16.1713H22.9939V11.835Z" fill="white" stroke="#3A3A3A" stroke-width="0.096" stroke-miterlimit="10" stroke-linecap="round" stroke-linejoin="round"/>
<path d="M22.9939 13.8184H20.5449V14.188H22.9939V13.8184Z" fill="#383838"/>
<path d="M17.7214 21.8306H14.8184V26.9694H17.7214V21.8306Z" fill="#383838"/>
<path d="M17.4939 22.2318H15.0449V26.5681H17.4939V22.2318Z" fill="white" stroke="#3A3A3A" stroke-width="0.096" stroke-miterlimit="10" stroke-linecap="round" stroke-linejoin="round"/>
<path d="M17.4939 24.2152H15.0449V24.5848H17.4939V24.2152Z" fill="#383838"/>
<path d="M23.2214 21.8306H20.3184V26.9694H23.2214V21.8306Z" fill="#383838"/>
<path d="M22.9939 22.2319H20.5449V26.5683H22.9939V22.2319Z" fill="white" stroke="#3A3A3A" stroke-width="0.096" stroke-miterlimit="10" stroke-linecap="round" stroke-linejoin="round"/>
<path d="M22.9939 24.2152H20.5449V24.5848H22.9939V24.2152Z" fill="#383838"/>
<path d="M17.7214 31.564H14.8184V36.7028H17.7214V31.564Z" fill="#383838"/>
<path d="M17.4939 31.9652H15.0449V36.3015H17.4939V31.9652Z" fill="white" stroke="#3A3A3A" stroke-width="0.096" stroke-miterlimit="10" stroke-linecap="round" stroke-linejoin="round"/>
<path d="M17.4939 33.9486H15.0449V34.3182H17.4939V33.9486Z" fill="#383838"/>
<path d="M23.2214 31.564H20.3184V36.7028H23.2214V31.564Z" fill="#383838"/>
<path d="M22.9939 31.9652H20.5449V36.3015H22.9939V31.9652Z" fill="white" stroke="#3A3A3A" stroke-width="0.096" stroke-miterlimit="10" stroke-linecap="round" stroke-linejoin="round"/>
<path d="M22.9939 33.9486H20.5449V34.3182H22.9939V33.9486Z" fill="#383838"/>
<path d="M17.7214 41.2052H14.8184V46.3441H17.7214V41.2052Z" fill="#383838"/>
<path d="M17.4939 41.6064H15.0449V45.9428H17.4939V41.6064Z" fill="white" stroke="#3A3A3A" stroke-width="0.096" stroke-miterlimit="10" stroke-linecap="round" stroke-linejoin="round"/>
<path d="M17.4939 43.5898H15.0449V43.9594H17.4939V43.5898Z" fill="#383838"/>
<path d="M23.2214 41.2052H20.3184V46.3441H23.2214V41.2052Z" fill="#383838"/>
<path d="M22.9939 41.6064H20.5449V45.9428H22.9939V41.6064Z" fill="white" stroke="#3A3A3A" stroke-width="0.096" stroke-miterlimit="10" stroke-linecap="round" stroke-linejoin="round"/>
<path d="M22.9939 43.5898H20.5449V43.9594H22.9939V43.5898Z" fill="#383838"/>
<path d="M28.5583 11.4338H25.6553V16.5727H28.5583V11.4338Z" fill="#383838"/>
<path d="M28.3308 11.8351H25.8818V16.1714H28.3308V11.8351Z" fill="white" stroke="#3A3A3A" stroke-width="0.096" stroke-miterlimit="10" stroke-linecap="round" stroke-linejoin="round"/>
<path d="M28.3308 13.8185H25.8818V14.1881H28.3308V13.8185Z" fill="#383838"/>
<path d="M28.5583 21.8304H25.6553V26.9693H28.5583V21.8304Z" fill="#383838"/>
<path d="M28.3308 22.2317H25.8818V26.568H28.3308V22.2317Z" fill="white" stroke="#3A3A3A" stroke-width="0.096" stroke-miterlimit="10" stroke-linecap="round" stroke-linejoin="round"/>
<path d="M28.3308 24.2151H25.8818V24.5847H28.3308V24.2151Z" fill="#383838"/>
<path d="M34.8962 11.4337H31.9932V16.5726H34.8962V11.4337Z" fill="#383838"/>
<path d="M34.6687 11.835H32.2197V16.1713H34.6687V11.835Z" fill="white" stroke="#3A3A3A" stroke-width="0.096" stroke-miterlimit="10" stroke-linecap="round" stroke-linejoin="round"/>
<path d="M34.6687 13.8184H32.2197V14.188H34.6687V13.8184Z" fill="#383838"/>
<path d="M28.5583 31.564H25.6553V36.7028H28.5583V31.564Z" fill="#383838"/>
<path d="M28.3308 31.9652H25.8818V36.3015H28.3308V31.9652Z" fill="white" stroke="#3A3A3A" stroke-width="0.096" stroke-miterlimit="10" stroke-linecap="round" stroke-linejoin="round"/>
<path d="M28.3308 33.9486H25.8818V34.3182H28.3308V33.9486Z" fill="#383838"/>
<path d="M34.8962 21.8306H31.9932V26.9694H34.8962V21.8306Z" fill="#383838"/>
<path d="M34.6687 22.2319H32.2197V26.5683H34.6687V22.2319Z" fill="white" stroke="#3A3A3A" stroke-width="0.096" stroke-miterlimit="10" stroke-linecap="round" stroke-linejoin="round"/>
<path d="M34.6687 24.2152H32.2197V24.5848H34.6687V24.2152Z" fill="#383838"/>
<path d="M39.6306 21.8306H36.7275V26.9694H39.6306V21.8306Z" fill="#383838"/>
<path d="M39.4031 22.2319H36.9541V26.5683H39.4031V22.2319Z" fill="white" stroke="#3A3A3A" stroke-width="0.096" stroke-miterlimit="10" stroke-linecap="round" stroke-linejoin="round"/>
<path d="M39.4031 24.2152H36.9541V24.5848H39.4031V24.2152Z" fill="#383838"/>
<path d="M39.6306 31.564H36.7275V36.7028H39.6306V31.564Z" fill="#383838"/>
<path d="M39.4031 31.9652H36.9541V36.3015H39.4031V31.9652Z" fill="white" stroke="#3A3A3A" stroke-width="0.096" stroke-miterlimit="10" stroke-linecap="round" stroke-linejoin="round"/>
<path d="M39.4031 33.9486H36.9541V34.3182H39.4031V33.9486Z" fill="#383838"/>
<path d="M28.5583 41.2053H25.6553V46.3442H28.5583V41.2053Z" fill="#383838"/>
<path d="M28.3308 41.6066H25.8818V45.9429H28.3308V41.6066Z" fill="white" stroke="#3A3A3A" stroke-width="0.096" stroke-miterlimit="10" stroke-linecap="round" stroke-linejoin="round"/>
<path d="M28.3308 43.59H25.8818V43.9596H28.3308V43.59Z" fill="#383838"/>
<path d="M34.8962 31.564H31.9932V36.7028H34.8962V31.564Z" fill="#383838"/>
<path d="M34.6687 31.9652H32.2197V36.3015H34.6687V31.9652Z" fill="white" stroke="#3A3A3A" stroke-width="0.096" stroke-miterlimit="10" stroke-linecap="round" stroke-linejoin="round"/>
<path d="M34.6687 33.9486H32.2197V34.3182H34.6687V33.9486Z" fill="#383838"/>
<path d="M39.6306 41.2052H36.7275V46.3441H39.6306V41.2052Z" fill="#383838"/>
<path d="M39.4031 41.6064H36.9541V45.9428H39.4031V41.6064Z" fill="white" stroke="#3A3A3A" stroke-width="0.096" stroke-miterlimit="10" stroke-linecap="round" stroke-linejoin="round"/>
<path d="M39.4031 43.5898H36.9541V43.9594H39.4031V43.5898Z" fill="#383838"/>
<path d="M34.8962 41.2052H31.9932V46.3441H34.8962V41.2052Z" fill="#383838"/>
<path d="M34.6687 41.6064H32.2197V45.9428H34.6687V41.6064Z" fill="white" stroke="#3A3A3A" stroke-width="0.096" stroke-miterlimit="10" stroke-linecap="round" stroke-linejoin="round"/>
<path d="M34.6687 43.5898H32.2197V43.9594H34.6687V43.5898Z" fill="#383838"/>
<path d="M36.339 9.62027L36.9995 10.6657L38.6497 12.0414L38.4299 12.9774L37.4391 14.4625L37.8241 15.3438L38.5403 16.994H38.9252L39.5857 17.1592L40.6859 17.0488L41.234 17.4404V8.9502H40.5774L36.1191 9.0702L36.339 9.62027Z" fill="#C2C2C2" stroke="#3A3A3A" stroke-width="0.096" stroke-miterlimit="10" stroke-linecap="round" stroke-linejoin="round"/>
<path d="M39.4753 17.1313L40.3009 17.0488L40.3479 17.0833L40.6859 17.0488L40.8491 17.1659V8.9502H40.5774L36.1191 9.0702L36.339 9.62027L36.9995 10.6657L38.6497 12.0414L38.4299 12.9774L37.4391 14.4625L37.8241 15.3438L38.5403 16.994H38.9252L39.4753 17.1313Z" fill="#383838"/>
<path d="M42.2843 8.48169H13.1426V9.57513H42.2843V8.48169Z" fill="#919191" stroke="#3A3A3A" stroke-width="0.096" stroke-miterlimit="10" stroke-linecap="round" stroke-linejoin="round"/>
<path d="M30.5637 8.48169H13.1426V9.57513H30.5637V8.48169Z" fill="white" stroke="#3A3A3A" stroke-width="0.096" stroke-miterlimit="10" stroke-linecap="round" stroke-linejoin="round"/>
<path d="M7.78087 17.4759C7.29511 16.9642 7.63111 14.9885 8.11687 14.33C8.60263 13.6714 7.81831 13.0503 7.81831 13.0503C7.81831 13.0503 8.34151 13.3431 8.60263 14.257C8.86375 15.1709 9.42439 14.3665 9.61159 14.1841C9.79879 14.0017 9.01351 13.1233 9.01351 13.1233C9.01351 13.1233 10.0599 13.6349 10.3959 14.33C10.7319 15.025 10.994 14.9521 11.2551 14.8052C11.5162 14.6593 10.994 14.1831 10.994 14.1831C10.994 14.1831 11.667 14.4394 12.2641 15.1345C12.8622 15.8295 12.5626 16.1953 12.8247 16.5245C12.9495 16.682 13.3662 16.7386 13.7665 16.7559V27.7719C13.2702 27.7556 12.7066 27.7124 12.4138 27.6077C11.8206 27.3956 11.5921 26.5469 11.5921 26.5469L12.9745 26.6564C12.9745 26.6564 12.339 26.2177 11.7783 25.4861C11.2177 24.7546 11.7034 23.8407 11.5172 23.4749C11.331 23.1092 10.3959 23.1821 10.0225 22.9268C9.64903 22.6705 9.34951 21.9754 9.34951 21.9754C9.34951 21.9754 9.98503 22.4141 10.2087 22.1213C10.4334 21.8285 9.61063 21.3533 9.61063 21.3533C9.61063 21.3533 10.0215 21.2804 10.3585 21.4628C10.6945 21.6452 11.1063 22.3037 11.5921 22.8529C12.0778 23.401 12.4513 23.0727 12.4513 23.0727C12.4513 23.0727 11.6295 22.5975 11.1063 21.7556C10.5831 20.9146 10.8078 20.6948 10.2846 20.402C9.76135 20.1092 8.78983 20.0727 8.49127 19.7069C8.19271 19.3412 8.11783 18.5732 8.11783 18.5732C8.11783 18.5732 8.11783 18.5732 8.41639 18.9025C8.71495 19.2317 9.31303 19.1223 9.83623 19.0119C10.3594 18.9025 10.7703 19.3777 10.7703 19.3777C10.7703 19.3777 10.7329 18.9025 10.2846 18.4263C9.83623 17.9511 8.26663 17.9876 7.78087 17.4759Z" fill="#686868"/>
<path opacity="0.49" d="M9.05078 16.3785C9.05078 16.3785 9.90998 16.415 10.3957 16.6349C10.8815 16.8547 10.8815 17.4758 11.4796 17.4758C12.0777 17.4758 11.4421 16.5984 11.4421 16.5984C11.4421 16.5984 12.19 16.9641 12.4885 17.184C12.7871 17.4038 12.7497 17.8425 12.7871 18.2813C12.8207 18.6749 13.6041 18.8621 13.7663 18.8966V24.9859L13.7586 26.5833C13.7586 26.5833 13.6837 25.9977 13.5714 25.559C13.4591 25.1203 13.198 24.7181 12.7122 24.5529C12.2265 24.3888 11.9644 23.5833 11.9644 23.5833C11.9644 23.5833 12.2821 23.8761 13.006 23.4144C13.2105 23.2838 13.3266 23.2406 13.389 23.2397C13.4101 22.9641 13.3132 22.6848 12.7861 22.3401C12.2255 21.9744 11.8146 22.0838 11.3289 21.5721C10.8431 21.0605 10.6185 19.8893 10.6185 19.8893C10.6185 19.8893 10.8057 19.9987 11.0668 20.6937C11.3279 21.3888 11.9452 21.1689 11.9452 21.1689C11.9452 21.1689 11.9452 21.1689 11.6274 20.7667C11.3097 20.3645 11.5151 20.0352 11.7397 19.8893C11.9644 19.7433 11.9644 19.1942 11.2914 18.7555C10.6185 18.3168 10.3948 18.1699 10.4697 17.5853C10.5455 17.0006 9.05078 16.3785 9.05078 16.3785Z" fill="white"/>
<path d="M12.1703 18.5003C12.3458 18.5003 12.4881 18.361 12.4881 18.1892C12.4881 18.0174 12.3458 17.8782 12.1703 17.8782C11.9948 17.8782 11.8525 18.0174 11.8525 18.1892C11.8525 18.361 11.9948 18.5003 12.1703 18.5003Z" fill="#383838"/>
<path d="M12.751 19.9076C12.751 19.9988 12.8259 20.0717 12.919 20.0717C13.0121 20.0717 13.087 19.9978 13.087 19.9076C13.087 19.8164 13.0121 19.7434 12.919 19.7434C12.8259 19.7434 12.751 19.8173 12.751 19.9076Z" fill="#383838"/>
<path d="M12.0778 20.1092C12.1192 20.1092 12.1527 20.0765 12.1527 20.0362C12.1527 19.9959 12.1192 19.9633 12.0778 19.9633C12.0365 19.9633 12.0029 19.9959 12.0029 20.0362C12.0029 20.0765 12.0365 20.1092 12.0778 20.1092Z" fill="#383838"/>
<path d="M12.376 20.9319C12.376 21.0029 12.4345 21.0596 12.5065 21.0596C12.5785 21.0596 12.6371 21.002 12.6371 20.9319C12.6371 20.8608 12.5785 20.8042 12.5065 20.8042C12.4345 20.8042 12.376 20.8618 12.376 20.9319Z" fill="#383838"/>
<path d="M12.6758 21.9562C12.6758 22.0272 12.7343 22.0839 12.8063 22.0839C12.8783 22.0839 12.9369 22.0263 12.9369 21.9562C12.9369 21.8851 12.8783 21.8285 12.8063 21.8285C12.7343 21.8285 12.6758 21.8851 12.6758 21.9562Z" fill="#383838"/>
<path d="M11.8164 21.2976C11.8164 21.3686 11.875 21.4253 11.947 21.4253C12.019 21.4253 12.0775 21.3677 12.0775 21.2976C12.0775 21.2266 12.019 21.1699 11.947 21.1699C11.875 21.1699 11.8164 21.2275 11.8164 21.2976Z" fill="#383838"/>
<path d="M12.7139 24.553C12.7139 24.624 12.7724 24.6807 12.8444 24.6807C12.9164 24.6807 12.975 24.6231 12.975 24.553C12.975 24.4819 12.9164 24.4253 12.8444 24.4253C12.7724 24.4253 12.7139 24.4819 12.7139 24.553Z" fill="#383838"/>
<path d="M12.1904 23.9683C12.1904 24.0192 12.2327 24.0595 12.2835 24.0595C12.3354 24.0595 12.3767 24.0182 12.3767 23.9683C12.3767 23.9184 12.3344 23.8771 12.2835 23.8771C12.2317 23.8761 12.1904 23.9174 12.1904 23.9683Z" fill="#383838"/>
<path d="M12.6387 25.4679C12.6387 25.5591 12.7136 25.632 12.8067 25.632C12.8998 25.632 12.9747 25.5581 12.9747 25.4679C12.9747 25.3767 12.8998 25.3037 12.8067 25.3037C12.7136 25.3028 12.6387 25.3767 12.6387 25.4679Z" fill="#383838"/>
<path d="M12.7881 27.1315C12.7881 27.2122 12.8553 27.2774 12.9378 27.2774C13.0204 27.2774 13.0876 27.2122 13.0876 27.1315C13.0876 27.0509 13.0204 26.9856 12.9378 26.9856C12.8543 26.9856 12.7881 27.0509 12.7881 27.1315Z" fill="#383838"/>
<g opacity="0.24">
<path d="M18.6395 15.9148C17.2081 15.9148 16.0475 16.943 16.0475 18.2102C16.0475 18.6546 16.1905 19.0703 16.4382 19.4217C15.7499 19.5455 15.2324 20.0812 15.2324 20.7244C15.2324 21.4588 15.9083 22.054 16.7415 22.054C17.5748 22.054 18.2507 21.4588 18.2507 20.7244C18.2507 20.639 18.2411 20.5564 18.2238 20.4758C18.3591 20.495 18.4983 20.5055 18.6404 20.5055C20.0718 20.5055 21.2324 19.4774 21.2324 18.2102C21.2324 16.943 20.0708 15.9148 18.6395 15.9148Z" fill="black"/>
<path d="M18.3431 15.841C19.3658 15.841 20.1949 15.0286 20.1949 14.0266C20.1949 13.0245 19.3658 12.2122 18.3431 12.2122C17.3203 12.2122 16.4912 13.0245 16.4912 14.0266C16.4912 15.0286 17.3203 15.841 18.3431 15.841Z" fill="black"/>
<path d="M15.0465 12.7295C15.5576 12.7295 15.972 12.3981 15.972 11.9893C15.972 11.5805 15.5576 11.2491 15.0465 11.2491C14.5354 11.2491 14.1211 11.5805 14.1211 11.9893C14.1211 12.3981 14.5354 12.7295 15.0465 12.7295Z" fill="black"/>
<path d="M17.9364 9.99059C18.2842 9.99059 18.5662 9.74173 18.5662 9.43475C18.5662 9.12776 18.2842 8.87891 17.9364 8.87891C17.5886 8.87891 17.3066 9.12776 17.3066 9.43475C17.3066 9.74173 17.5886 9.99059 17.9364 9.99059Z" fill="black"/>
<path d="M14.5528 8.44404C14.5067 8.26548 14.2927 8.16756 14.0747 8.22324C13.8568 8.27892 13.7176 8.46996 13.7637 8.64756C13.8098 8.82612 14.0239 8.92404 14.2418 8.86836C14.4607 8.81172 14.5999 8.62164 14.5528 8.44404Z" fill="black"/>
</g>
<g opacity="0.24">
<path d="M34.0955 27.5491C32.6642 27.5491 31.5035 28.5772 31.5035 29.8444C31.5035 30.2889 31.6466 30.7046 31.8942 31.056C31.2059 31.1798 30.6885 31.7155 30.6885 32.3587C30.6885 33.0931 31.3643 33.6883 32.1976 33.6883C33.0309 33.6883 33.7067 33.0931 33.7067 32.3587C33.7067 32.2732 33.6971 32.1907 33.6798 32.11C33.8152 32.1292 33.9544 32.1398 34.0965 32.1398C35.5278 32.1398 36.6885 31.1116 36.6885 29.8444C36.6885 28.5772 35.5269 27.5491 34.0955 27.5491Z" fill="black"/>
<path d="M33.8001 27.4751C34.8228 27.4751 35.6519 26.6628 35.6519 25.6607C35.6519 24.6586 34.8228 23.8463 33.8001 23.8463C32.7773 23.8463 31.9482 24.6586 31.9482 25.6607C31.9482 26.6628 32.7773 27.4751 33.8001 27.4751Z" fill="black"/>
<path d="M30.5036 24.3637C31.0147 24.3637 31.429 24.0324 31.429 23.6236C31.429 23.2148 31.0147 22.8834 30.5036 22.8834C29.9925 22.8834 29.5781 23.2148 29.5781 23.6236C29.5781 24.0324 29.9925 24.3637 30.5036 24.3637Z" fill="black"/>
<path d="M33.3925 21.6239C33.74 21.6239 34.0222 21.3752 34.0222 21.068C34.0222 20.7608 33.74 20.5122 33.3925 20.5122C33.0449 20.5122 32.7627 20.7608 32.7627 21.068C32.7637 21.3752 33.0449 21.6239 33.3925 21.6239Z" fill="black"/>
<path d="M30.0098 20.0773C29.9638 19.8988 29.7497 19.8009 29.5318 19.8565C29.3138 19.9132 29.1746 20.1033 29.2207 20.2809C29.2668 20.4594 29.4809 20.5573 29.6988 20.5017C29.9167 20.446 30.0559 20.2559 30.0098 20.0773Z" fill="black"/>
</g>
</g>
<path d="M15.8338 28.4908C15.6379 28.2623 15.4786 28.0233 15.4488 27.7794C15.3701 27.1257 14.7691 26.5238 13.8792 26.4191C12.9902 26.3145 13.1467 26.7071 12.5189 26.4451C11.891 26.1839 11.1067 25.6079 10.2168 26.2098C9.32785 26.8118 9.48433 27.4396 9.82417 27.6489C10.164 27.8582 9.90289 28.2239 9.58897 28.198C9.27505 28.1721 8.30737 28.5379 8.09809 29.0611C7.88881 29.5843 8.35921 30.8399 7.83697 31.1011C7.31377 31.3622 5.87473 30.6825 4.64593 31.9382C3.41617 33.1939 4.38481 33.9782 4.43665 34.5273C4.48849 35.0764 3.78289 34.7625 3.86161 35.5996C3.94033 36.4367 4.85521 37.3526 6.11089 37.0905C7.36657 36.8294 7.54993 36.4627 7.83697 37.0646C8.12497 37.6665 9.64176 38.8694 10.9234 38.3203C12.205 37.7711 12.5976 37.5091 12.9374 37.6137C13.2773 37.7183 14.7422 37.2479 15.0562 36.8025C15.3701 36.358 15.0043 35.7043 15.2654 35.5209C15.5266 35.3375 16.1285 35.3903 16.0498 34.5532C15.971 33.7161 16.3896 32.8531 16.861 32.5651C17.3314 32.2771 17.7768 31.414 17.436 30.4204C17.0962 29.4268 17.0174 29.8972 16.573 29.2953C16.3963 29.0563 16.0853 28.7827 15.8338 28.4908Z" fill="#353535"/>
<path d="M12.0436 35.9885C12.0436 35.9885 11.0528 35.9424 10.5229 35.9885C9.99299 36.0346 6.09923 37.3709 6.09923 37.3709C6.09923 37.3709 2.17955 39.9898 2.43587 40.32C2.69219 40.6502 2.96579 40.7578 3.42659 40.7578C3.88739 40.7578 8.12675 40.0435 8.12675 40.0435C8.12675 40.0435 8.49539 43.5226 8.51843 43.9142C8.54147 44.3059 7.29731 48.0614 7.29731 48.0614H15.9604L16.3981 44.0986C16.3981 44.0986 16.928 43.4534 17.2045 42.5779C17.481 41.7024 17.8957 38.7994 17.8957 38.7994C17.8957 38.7994 23.1028 38.0621 23.5636 37.6243C24.0244 37.1866 21.9508 35.6198 21.3978 35.3894C20.8448 35.159 18.7252 35.3434 18.4717 35.3434C18.2183 35.3434 17.8957 35.2051 16.5824 35.3894C15.2692 35.5738 13.6103 35.8963 13.6103 35.8963L12.0436 35.9885Z" fill="#898989"/>
<path d="M11.8588 34.7444C11.8588 34.7444 11.8128 35.8272 11.7206 36.1268C11.6284 36.4263 13.8172 39.0298 14.1168 38.9837C14.4163 38.9376 15.0384 36.5645 15.0844 36.3111C15.1305 36.0576 14.9923 34.7213 14.9923 34.7213C14.9923 34.7213 14.6006 35.6199 13.702 35.4356C12.8035 35.2512 11.8588 34.7444 11.8588 34.7444Z" fill="#F4CDB8"/>
<path d="M11.8359 35.0861L11.7207 36.1267L13.4631 36.3014L11.8359 35.0861Z" fill="#D3B0A1"/>
<path d="M18.2046 37.489L17.8955 38.7994L18.7249 37.3248" stroke="#606060" stroke-width="0.096" stroke-miterlimit="10" stroke-linecap="round" stroke-linejoin="round"/>
<path d="M18.3794 36.7489L18.2939 37.1089" stroke="#606060" stroke-width="0.096" stroke-miterlimit="10" stroke-linecap="round" stroke-linejoin="round"/>
<path d="M7.43606 38.7994L8.12726 40.0436L7.18262 39.122" stroke="#606060" stroke-width="0.096" stroke-miterlimit="10" stroke-linecap="round" stroke-linejoin="round"/>
<path d="M10.9424 45.1469L13.8185 44.1216" stroke="#606060" stroke-width="0.096" stroke-miterlimit="10" stroke-linecap="round" stroke-linejoin="round"/>
<path d="M10.5225 45.2968L10.7154 45.2286" stroke="#606060" stroke-width="0.096" stroke-miterlimit="10" stroke-linecap="round" stroke-linejoin="round"/>
<path d="M14.5859 44.1793L13.5645 44.6286" stroke="#606060" stroke-width="0.096" stroke-miterlimit="10" stroke-linecap="round" stroke-linejoin="round"/>
<path d="M15.0854 43.9603L14.8301 44.0726" stroke="#606060" stroke-width="0.096" stroke-miterlimit="10" stroke-linecap="round" stroke-linejoin="round"/>
<path d="M14.7578 29.3366C14.7578 29.3366 14.4199 29.4307 14.082 29.0362C13.7441 28.6426 13.6317 28.8672 13.3879 29.4115C13.1441 29.9558 12.6938 30.5933 12.0746 30.2371C11.4554 29.881 11.2682 30.6125 11.2308 30.8755C11.1933 31.1386 10.5233 32.4643 10.5953 32.7302C10.6673 32.9962 10.7431 33.7651 10.9303 34.1597C11.1175 34.5533 13.2381 36.3178 13.914 36.2803C14.5898 36.2429 14.7559 36.025 15.4308 34.8614C16.1066 33.6979 16.2813 32.6544 15.9405 31.177C15.5988 29.6966 14.7578 29.3366 14.7578 29.3366Z" fill="#F4CDB8" stroke="#D3B0A1" stroke-width="0.096" stroke-miterlimit="10"/>
<path d="M13.6517 30.312C13.6517 30.312 13.7084 31.0435 13.7832 31.1376C13.8581 31.2317 14.1768 31.4938 14.0645 31.6819C13.9522 31.8691 13.502 32.0199 13.502 32.0199" stroke="#3A3A3A" stroke-width="0.096" stroke-miterlimit="10" stroke-linecap="round" stroke-linejoin="round"/>
<path d="M14.3217 32.9386C14.2468 32.8081 14.1163 32.7188 13.9675 32.6958C13.7755 32.666 13.4855 32.6583 13.1822 32.7889C12.6571 33.0145 12.6945 33.5953 12.7127 34.1396C12.7319 34.6839 13.4068 35.3588 13.9511 35.209C14.4955 35.0593 14.6827 34.4026 14.5895 33.746C14.5358 33.3726 14.4158 33.1018 14.3217 32.9386Z" fill="#383838"/>
<path d="M14.25 34.5151C14.1376 34.7963 13.7056 34.8904 13.4992 34.8155C13.2928 34.7407 13.218 34.4219 13.0298 34.3279C12.8426 34.2338 12.8608 34.5717 12.8608 34.5717L12.8637 34.6043C13.097 34.996 13.5568 35.3186 13.9495 35.2101C14.3949 35.0872 14.6013 34.6245 14.61 34.1003C14.5648 34.0811 14.512 34.0648 14.4564 34.0648C14.3066 34.0648 14.3632 34.2338 14.25 34.5151Z" fill="white" stroke="#3A3A3A" stroke-width="0.096" stroke-miterlimit="10" stroke-linecap="round" stroke-linejoin="round"/>
<path d="M13.1814 33.1076C13.4819 32.9761 13.6508 32.9386 13.9504 32.9953C14.0953 33.0222 14.248 33.0279 14.368 33.026C14.3516 32.9943 14.3363 32.9646 14.3219 32.9386C14.247 32.8081 14.1164 32.7188 13.9676 32.6958C13.7756 32.666 13.4857 32.6583 13.1824 32.7889C12.9568 32.8858 12.8358 33.0481 12.7715 33.2449C12.8521 33.2276 12.9952 33.1892 13.1814 33.1076Z" fill="white" stroke="#3A3A3A" stroke-width="0.096" stroke-miterlimit="10" stroke-linecap="round" stroke-linejoin="round"/>
<path d="M12.3565 31.419C12.4498 31.419 12.5254 31.2844 12.5254 31.1185C12.5254 30.9525 12.4498 30.818 12.3565 30.818C12.2631 30.818 12.1875 30.9525 12.1875 31.1185C12.1875 31.2844 12.2631 31.419 12.3565 31.419Z" fill="#383838"/>
<path d="M14.457 31.0253C14.5504 31.0253 14.626 30.8907 14.626 30.7248C14.626 30.5588 14.5504 30.4243 14.457 30.4243C14.3637 30.4243 14.2881 30.5588 14.2881 30.7248C14.2881 30.8907 14.3637 31.0253 14.457 31.0253Z" fill="#383838"/>
<path d="M11.9062 30.4991C11.9062 30.4991 12.319 30.0671 12.7318 30.3494" stroke="#3A3A3A" stroke-width="0.096" stroke-miterlimit="10" stroke-linecap="round" stroke-linejoin="round"/>
<path d="M13.9697 30.0115C13.9697 30.0115 14.3451 29.5421 14.7387 29.9549" stroke="#3A3A3A" stroke-width="0.096" stroke-miterlimit="10" stroke-linecap="round" stroke-linejoin="round"/>
<path d="M9.21171 33.6959C9.21171 33.6959 8.81332 32.0476 8.75668 31.7442C8.70004 31.4409 8.79412 31.0809 8.86996 30.8534C8.9458 30.6258 9.11667 30.2092 9.36243 29.8674C9.60915 29.5266 9.76083 29.6966 9.72243 29.83C9.68499 29.9625 9.36244 30.3801 9.32404 30.5308C9.2866 30.6825 9.30484 31.4783 9.30484 31.4783L9.72148 30.3417C9.72148 30.3417 10.2524 29.375 10.4223 29.4316C10.5932 29.4882 10.5356 29.6591 10.4789 29.735C10.4223 29.8108 10.0239 30.8342 10.0239 30.8342L9.94804 31.5926C9.94804 31.5926 10.5164 30.4742 10.5922 30.3417C10.668 30.2092 11.0847 29.4892 11.1797 29.6591C11.2748 29.83 11.0847 30.1516 11.0847 30.1516L10.478 31.4591L10.4213 31.8758C10.4213 31.8758 10.838 31.535 11.0088 31.3074C11.1797 31.0799 11.4447 30.7007 11.5589 30.7007C11.6722 30.7007 11.6722 30.8332 11.5964 30.9657C11.5205 31.0982 10.8764 32.0274 10.8572 32.0841C10.838 32.1407 10.5922 32.7282 10.5922 32.7282C10.5922 32.7282 10.5922 33.8841 10.4789 34.2825C10.3656 34.6809 9.8914 35.23 9.8914 35.23C9.8914 35.23 5.0962 39.8159 4.85044 40.0818C4.60468 40.3478 4.05459 40.6502 2.68947 40.6502C1.32531 40.6502 2.04531 38.8684 2.82195 38.205C3.59859 37.5417 4.94451 36.7074 5.13363 36.6316C5.32275 36.5558 8.73459 34.3958 8.92371 34.2057C9.11667 34.0175 9.21171 33.6959 9.21171 33.6959Z" fill="#F4CDB8"/>
<path d="M15.6367 28.9957C15.6367 28.9957 16.0918 29.4124 16.2617 29.7157C16.4326 30.0191 16.7359 31.1375 16.7359 31.1375L15.6367 28.9957Z" stroke="#3A3A3A" stroke-width="0.096" stroke-miterlimit="10" stroke-linecap="round" stroke-linejoin="round"/>
<path d="M16.8122 34.4533C16.8122 34.4533 15.9779 33.9225 16.0355 33.2591C16.0691 32.8626 15.7322 31.4591 15.7322 31.4591C15.7322 31.4591 14.8221 29.8674 14.9171 29.6965C15.0122 29.5257 15.1062 29.6591 15.2013 29.7157C15.2963 29.7724 16.0922 31.0799 16.0922 31.0799C16.0922 31.0799 15.7888 29.9999 15.5997 29.6965C15.4106 29.3932 15.0122 28.8249 15.2771 28.7682C15.5421 28.7116 16.1488 29.9625 16.263 30.19C16.3763 30.4175 16.8506 31.3842 16.888 31.8959C16.9254 32.4076 17.1155 33.4693 17.1155 33.4693C17.1155 33.4693 22.6682 34.7769 23.1424 35.2319C23.6166 35.6869 24.6774 36.6345 24.3933 37.1461C24.1091 37.6578 23.3315 38.0745 21.9299 37.3353C20.5274 36.5961 18.5565 35.4777 18.1398 35.2501C17.7222 35.0217 16.8122 34.4533 16.8122 34.4533Z" fill="#F4CDB8"/>
<path d="M16.691 44.3424C16.6689 44.3251 16.6622 44.2934 16.6766 44.2684C16.6919 44.2406 16.7274 44.232 16.7553 44.2473C16.8177 44.2828 16.883 44.2752 16.9262 44.2617C17.0154 44.2348 17.0999 44.1619 17.1422 44.0764C17.2132 43.9344 17.2103 43.7616 17.2084 43.5945V43.5446C17.2074 43.3488 17.2238 43.128 17.3562 42.9676C17.4254 42.8851 17.5175 42.8265 17.6068 42.7699C17.7278 42.6931 17.842 42.6211 17.8737 42.502C17.8986 42.407 17.8631 42.3062 17.8257 42.1996C17.7902 42.0988 17.7527 41.9942 17.7623 41.8828C17.7748 41.7379 17.866 41.615 17.939 41.5161C18.0167 41.4105 18.082 41.3145 18.0878 41.207C18.0906 41.1504 18.0666 41.087 18.0263 41.0476C18.0071 41.0284 17.9754 41.0064 17.9342 41.0092C17.9025 41.0112 17.8746 40.9881 17.8727 40.9564C17.8698 40.9248 17.8938 40.8969 17.9255 40.895C17.9908 40.8902 18.0561 40.9152 18.107 40.9651C18.1713 41.0284 18.2078 41.1235 18.203 41.2137C18.1953 41.352 18.1175 41.4681 18.0321 41.5843C17.9639 41.6764 17.8871 41.7801 17.8775 41.8924C17.8698 41.9788 17.9015 42.0681 17.9342 42.1612C17.9764 42.2793 18.0196 42.4022 17.985 42.5318C17.9418 42.695 17.8026 42.7833 17.6682 42.8678C17.5866 42.9196 17.5012 42.9734 17.4446 43.0416C17.3361 43.1731 17.3217 43.3603 17.3226 43.5436V43.5936C17.3246 43.774 17.3265 43.9603 17.2439 44.1273C17.1873 44.2416 17.0778 44.3356 16.9578 44.3712C16.8638 44.4 16.7735 44.3913 16.6958 44.3462C16.6958 44.3452 16.6929 44.3443 16.691 44.3424Z" fill="#545354"/>
<path d="M17.44 44.0447C17.4352 44.0408 17.4304 44.036 17.4275 44.0312C17.4102 44.0053 17.4169 43.9688 17.4438 43.9516C17.5302 43.8949 17.5379 43.7605 17.535 43.6856C17.534 43.6597 17.5321 43.6338 17.5302 43.6069C17.5235 43.5109 17.5158 43.4111 17.5504 43.3141C17.608 43.1519 17.7539 43.0655 17.895 42.981C18.0121 42.9119 18.1216 42.8456 18.1801 42.742C18.2464 42.6239 18.23 42.4703 18.2128 42.3647C18.208 42.3349 18.2022 42.3042 18.1964 42.2744C18.1753 42.1631 18.1532 42.0479 18.1648 41.9298C18.1792 41.7772 18.2694 41.6015 18.4355 41.5525C18.4662 41.5439 18.4979 41.5612 18.5065 41.5919C18.5152 41.6226 18.4979 41.6543 18.4672 41.6629C18.352 41.6965 18.2896 41.8261 18.278 41.9404C18.2684 42.0421 18.2876 42.1448 18.3078 42.2533C18.3136 42.284 18.3193 42.3157 18.3241 42.3464C18.3443 42.4693 18.3616 42.6498 18.278 42.7986C18.2051 42.9292 18.0764 43.006 17.9516 43.0799C17.823 43.1567 17.7011 43.2296 17.6569 43.3525C17.63 43.4264 17.6368 43.51 17.6435 43.5983C17.6454 43.6261 17.6473 43.653 17.6483 43.6808C17.655 43.8517 17.6041 43.9813 17.5062 44.0466C17.4851 44.061 17.4582 44.0591 17.44 44.0447Z" fill="#545354"/>
<path d="M8.00876 43.5897C8.03084 43.607 8.03852 43.6387 8.02412 43.6636C8.00876 43.6915 7.97324 43.7011 7.94636 43.6857C7.88396 43.6502 7.81868 43.6588 7.77548 43.6732C7.68716 43.7011 7.60268 43.774 7.56044 43.8604C7.49132 44.0035 7.4942 44.1763 7.49708 44.3424L7.49804 44.3923C7.50092 44.5872 7.48556 44.8089 7.35404 44.9702C7.28588 45.0537 7.19372 45.1123 7.10444 45.1699C6.98348 45.2467 6.8702 45.3206 6.83948 45.4396C6.81548 45.5347 6.851 45.6355 6.89036 45.742C6.92684 45.8428 6.96428 45.9465 6.95564 46.0588C6.94412 46.2038 6.85388 46.3276 6.78188 46.4275C6.70508 46.534 6.64076 46.63 6.635 46.7376C6.63212 46.7942 6.65708 46.8576 6.6974 46.8969C6.7166 46.9161 6.74924 46.9372 6.79052 46.9344C6.8222 46.9315 6.85004 46.9555 6.85292 46.9872C6.8558 47.0188 6.8318 47.0467 6.80012 47.0496C6.73484 47.0553 6.66956 47.0304 6.61772 46.9804C6.5534 46.918 6.51596 46.823 6.5198 46.7328C6.52652 46.5945 6.60332 46.4784 6.68876 46.3612C6.75596 46.2691 6.8318 46.1644 6.84044 46.0512C6.84716 45.9648 6.81548 45.8764 6.78188 45.7824C6.73964 45.6643 6.69548 45.5424 6.72812 45.4128C6.7694 45.2486 6.9086 45.1603 7.04204 45.0739C7.12364 45.022 7.20812 44.9673 7.26476 44.8982C7.37228 44.7667 7.38476 44.5785 7.38284 44.3952L7.38188 44.3452C7.37804 44.1648 7.37516 43.9785 7.45676 43.8105C7.51244 43.6953 7.62188 43.6012 7.74092 43.5638C7.835 43.535 7.92524 43.5427 8.003 43.5868C8.00492 43.5868 8.00684 43.5878 8.00876 43.5897Z" fill="#545354"/>
<path d="M7.26344 43.8931C7.26824 43.897 7.27304 43.9018 7.27592 43.9066C7.2932 43.9325 7.28648 43.969 7.26056 43.9863C7.17512 44.0439 7.1684 44.1783 7.17128 44.2531C7.17224 44.2791 7.17416 44.305 7.17704 44.3319C7.18472 44.4279 7.1924 44.5277 7.1588 44.6247C7.10216 44.7869 6.9572 44.8752 6.81704 44.9597C6.70088 45.0298 6.59144 45.097 6.53384 45.2007C6.46856 45.3187 6.48584 45.4723 6.50408 45.5779C6.50888 45.6077 6.5156 45.6384 6.52136 45.6682C6.54344 45.7795 6.56552 45.8947 6.55496 46.0128C6.54152 46.1655 6.4532 46.3421 6.28616 46.392C6.2564 46.4007 6.22376 46.3834 6.21512 46.3536C6.20648 46.3229 6.22376 46.2912 6.25352 46.2826C6.36872 46.248 6.43016 46.1175 6.44072 46.0042C6.44936 45.9024 6.43016 45.7997 6.40808 45.6922C6.40232 45.6615 6.3956 45.6298 6.3908 45.5991C6.36968 45.4762 6.35144 45.2967 6.43304 45.1469C6.50504 45.0163 6.63368 44.9386 6.75752 44.8627C6.88616 44.785 7.00712 44.7111 7.05032 44.5882C7.07624 44.5133 7.06952 44.4307 7.0628 44.3424C7.06088 44.3146 7.058 44.2877 7.05704 44.2599C7.04936 44.089 7.09832 43.9584 7.1972 43.8922C7.21832 43.8768 7.2452 43.8787 7.26344 43.8931Z" fill="#545354"/>
<path d="M18.0143 32.5103C17.9874 32.5103 17.9625 32.4911 17.9577 32.4633C17.9519 32.4316 17.973 32.4019 18.0037 32.3971C18.1458 32.3721 18.2274 32.2051 18.2245 32.0582C18.2217 31.9276 18.1727 31.8028 18.1218 31.6713C18.1093 31.6396 18.0978 31.6089 18.0863 31.5772C18.0325 31.4332 17.9711 31.2191 18.0517 31.0271C18.0853 30.9475 18.1391 30.8783 18.1919 30.8111C18.2725 30.7075 18.3426 30.6182 18.3263 30.5135C18.309 30.4022 18.1977 30.335 18.0796 30.2649C17.9567 30.191 17.83 30.1151 17.7801 29.9769C17.7359 29.854 17.7695 29.734 17.8031 29.6169C17.8233 29.5449 17.8425 29.4777 17.8444 29.4115C17.8463 29.2809 17.7676 29.1494 17.6514 29.0908C17.5353 29.0323 17.3817 29.0467 17.2789 29.1254C17.254 29.1446 17.2175 29.1398 17.1983 29.1148C17.1791 29.0899 17.1839 29.0534 17.2089 29.0342C17.3481 28.9276 17.5468 28.9094 17.7033 28.9881C17.8597 29.0668 17.9625 29.2377 17.9596 29.4134C17.9577 29.495 17.9356 29.5727 17.9145 29.6486C17.8847 29.7523 17.8569 29.8502 17.8885 29.9375C17.925 30.0374 18.0287 30.0998 18.1391 30.166C18.2745 30.2467 18.4146 30.3311 18.4405 30.4953C18.4645 30.6489 18.3724 30.767 18.2831 30.8812C18.2351 30.9427 18.1852 31.006 18.1583 31.0713C18.094 31.2259 18.1487 31.4111 18.1948 31.5369C18.2063 31.5676 18.2178 31.5983 18.2303 31.6281C18.2831 31.7635 18.3378 31.9027 18.3407 32.0543C18.3445 32.2473 18.2361 32.4719 18.0249 32.5084C18.021 32.5103 18.0181 32.5103 18.0143 32.5103Z" fill="#545354"/>
<path d="M18.5376 31.9939C18.5309 31.9939 18.5242 31.993 18.5184 31.9901C18.4886 31.9795 18.4733 31.9459 18.4838 31.9162C18.5203 31.8154 18.4666 31.7059 18.4099 31.5898C18.3514 31.4707 18.2909 31.3469 18.3139 31.2115C18.3331 31.1021 18.4003 31.0195 18.4666 30.9398C18.4982 30.9014 18.527 30.8659 18.551 30.8285C18.6605 30.6547 18.6422 30.407 18.5088 30.2515C18.4675 30.2035 18.4166 30.1632 18.3629 30.12C18.3043 30.073 18.2429 30.025 18.193 29.9635C18.0403 29.7773 18.024 29.495 18.1536 29.2915C18.1709 29.2646 18.2064 29.257 18.2333 29.2742C18.2602 29.2915 18.2678 29.327 18.2506 29.3539C18.1478 29.5133 18.1613 29.7446 18.2822 29.8915C18.3245 29.9434 18.3782 29.9856 18.4349 30.0307C18.4906 30.0749 18.5482 30.12 18.5962 30.1766C18.7642 30.3715 18.7862 30.672 18.649 30.8899C18.6211 30.9341 18.5875 30.9744 18.5558 31.0138C18.4973 31.0848 18.4416 31.152 18.4282 31.2317C18.4109 31.3306 18.4608 31.4323 18.5136 31.5398C18.5789 31.6723 18.6461 31.8086 18.5923 31.9555C18.5827 31.9795 18.5606 31.9939 18.5376 31.9939Z" fill="#545354"/>
<path d="M3.32092 37.0493C3.33628 37.0695 3.33724 37.0954 3.32284 37.1127C3.30652 37.1309 3.27676 37.1299 3.2566 37.1098C3.16348 37.0186 3.0166 37.0359 2.92828 37.1069C2.84956 37.1693 2.79964 37.2624 2.7478 37.3603C2.73532 37.3834 2.72284 37.4074 2.71036 37.4295C2.65084 37.5351 2.55388 37.6791 2.3926 37.7098C2.3254 37.7223 2.2534 37.7155 2.18332 37.7079C2.0758 37.6973 1.98172 37.6877 1.927 37.7482C1.86844 37.8125 1.8886 37.9239 1.90972 38.0419C1.9318 38.1648 1.95484 38.2925 1.89724 38.3923C1.84636 38.4816 1.7542 38.5123 1.66396 38.5421C1.60828 38.5603 1.55644 38.5776 1.51516 38.6074C1.43452 38.6659 1.39708 38.785 1.42396 38.8963C1.4518 39.0077 1.54396 39.1123 1.64956 39.1507C1.67548 39.1603 1.6918 39.1882 1.687 39.2141C1.6822 39.24 1.65724 39.2525 1.63132 39.2439C1.4902 39.192 1.36924 39.0567 1.33276 38.9059C1.29532 38.7562 1.34428 38.6016 1.45372 38.5229C1.5046 38.4864 1.56508 38.4663 1.62268 38.4471C1.70236 38.4202 1.77724 38.3952 1.81372 38.3319C1.855 38.2589 1.83676 38.1543 1.8166 38.0439C1.7926 37.9085 1.76668 37.7683 1.85404 37.6733C1.93468 37.584 2.05852 37.5965 2.17756 37.609C2.24092 37.6157 2.30716 37.6224 2.36188 37.6119C2.49148 37.5869 2.57596 37.4621 2.6278 37.3699C2.64028 37.3479 2.65276 37.3248 2.66428 37.3018C2.71804 37.201 2.77372 37.0963 2.86492 37.0243C2.98108 36.9322 3.17884 36.9072 3.31612 37.0426C3.31708 37.0445 3.319 37.0464 3.32092 37.0493Z" fill="#545354"/>
<path d="M2.71879 36.9082C2.72263 36.913 2.72551 36.9178 2.72743 36.9245C2.73703 36.9514 2.72551 36.9773 2.70151 36.983C2.61991 37.0032 2.58151 37.0925 2.54215 37.1875C2.50087 37.2854 2.45863 37.3862 2.36263 37.4323C2.28487 37.4698 2.19751 37.4582 2.11207 37.4477C2.07175 37.4429 2.03335 37.4381 1.99687 37.4381C1.83079 37.439 1.68871 37.5677 1.66663 37.7357C1.65991 37.7885 1.66279 37.8432 1.66567 37.9018C1.66951 37.9661 1.67239 38.0323 1.66279 38.0976C1.63207 38.2944 1.46791 38.4374 1.27207 38.4374C1.24615 38.4374 1.22215 38.4154 1.21831 38.3875C1.21447 38.3606 1.23175 38.3386 1.25767 38.3386C1.41127 38.3386 1.54567 38.2224 1.56967 38.0669C1.57831 38.0122 1.57543 37.9536 1.57159 37.8922C1.56871 37.8317 1.56487 37.7683 1.57255 37.7078C1.60039 37.4957 1.77223 37.3411 1.98151 37.3392C2.02375 37.3392 2.06695 37.344 2.10823 37.3498C2.18407 37.3594 2.25607 37.369 2.31175 37.3421C2.38183 37.3085 2.41639 37.2259 2.45383 37.1376C2.49991 37.0291 2.54695 36.9168 2.66599 36.888C2.68519 36.8822 2.70631 36.8909 2.71879 36.9082Z" fill="#545354"/>
<path d="M16.9968 40.2028C16.9891 40.0271 16.9219 39.7833 16.6493 39.622C16.3469 39.4415 16.0934 39.5164 15.935 39.6114C15.8275 39.6748 15.7497 39.7545 15.7056 39.8063C15.6701 39.7487 15.6057 39.6575 15.5097 39.5778C15.3677 39.4598 15.1296 39.3455 14.8022 39.4751C14.5075 39.5922 14.4029 39.8217 14.3673 39.9935C14.3001 40.3142 14.4182 40.703 14.6525 40.9401C14.9558 41.2454 15.5107 41.8175 15.5165 41.8233C15.5241 41.831 15.5337 41.8358 15.5433 41.8358C15.5529 41.8358 15.5635 41.8338 15.5721 41.8271C15.5789 41.8223 16.2173 41.3452 16.5648 41.0918C16.8345 40.8959 17.0121 40.5302 16.9968 40.2028Z" fill="#606060"/>
<path d="M14.8466 40.5571C14.859 40.5581 14.8696 40.5514 14.8744 40.5408L14.9291 40.4122L15.0021 40.9853C15.004 40.9987 15.0146 41.0093 15.029 41.0103C15.0424 41.0112 15.0549 41.0016 15.0578 40.9891L15.2498 40.2288L15.3122 40.6877C15.3141 40.7002 15.3237 40.7098 15.3362 40.7117C15.3486 40.7136 15.3611 40.7069 15.3659 40.6963L15.4571 40.5072L15.485 40.5917C15.4888 40.6023 15.4984 40.6099 15.5099 40.6109L15.7211 40.6282C15.7336 40.6291 15.7442 40.6224 15.749 40.6109L15.8046 40.4842L15.8776 41.0563C15.8795 41.0698 15.8901 41.0803 15.9035 41.0813C15.9035 41.0813 15.9035 41.0813 15.9045 41.0813C15.9179 41.0823 15.9304 41.0727 15.9333 41.0602L16.1253 40.2999L16.1877 40.7587C16.1896 40.7712 16.1992 40.7808 16.2117 40.7827C16.2242 40.7847 16.2366 40.7779 16.2414 40.7674L16.3326 40.5783L16.3605 40.6627C16.3643 40.6733 16.3739 40.681 16.3854 40.6819L16.8779 40.7213C16.8875 40.7031 16.8962 40.6848 16.9038 40.6666L16.4075 40.6272L16.3634 40.4938C16.3595 40.4832 16.3499 40.4755 16.3384 40.4746C16.3269 40.4736 16.3163 40.4803 16.3106 40.4909L16.2299 40.6579L16.1608 40.1472C16.1589 40.1338 16.1483 40.1232 16.1339 40.1223C16.1205 40.1213 16.108 40.1309 16.1051 40.1434L15.9141 40.9008L15.8469 40.3757C15.845 40.3632 15.8354 40.3527 15.8229 40.3507C15.8104 40.3488 15.7979 40.3555 15.7931 40.3671L15.7048 40.5696L15.533 40.5562L15.4888 40.4227C15.485 40.4122 15.4754 40.4045 15.4638 40.4035C15.4523 40.4026 15.4418 40.4093 15.436 40.4199L15.3554 40.5869L15.2862 40.0762C15.2843 40.0627 15.2738 40.0522 15.2594 40.0512C15.2459 40.0503 15.2334 40.0599 15.2306 40.0723L15.0395 40.8298L14.9723 40.3047C14.9704 40.2922 14.9608 40.2816 14.9483 40.2797C14.9358 40.2778 14.9234 40.2845 14.9186 40.296L14.8312 40.4928C14.8312 40.4928 14.5269 40.4717 14.3867 40.4631C14.3925 40.4832 14.3982 40.5024 14.404 40.5226C14.5442 40.5322 14.8466 40.5571 14.8466 40.5571Z" fill="white"/>
<g opacity="0.7">
<path d="M27.7548 31.5302L20.623 33.4464C20.1967 33.5693 19.7676 33.3216 19.6553 32.904L19.1081 30.8678C18.9958 30.4502 19.2435 30.0211 19.6611 29.9088L26.7929 27.9926C27.2105 27.8803 27.6396 28.128 27.7519 28.5456L28.2991 30.5817C28.4115 30.9993 28.1638 31.4285 27.7548 31.5302Z" fill="white" stroke="#777477" stroke-width="0.096" stroke-miterlimit="10"/>
</g>
<path d="M20.908 30.9822L21.1547 31.0456L21.1345 31.1291L20.8849 31.0609L20.9512 31.3057L20.8715 31.3269L20.8072 31.0811L20.6248 31.2654L20.5643 31.204L20.7477 31.0254L20.499 30.9621L20.5201 30.8766L20.7707 30.9467L20.7025 30.7019L20.7822 30.6808L20.8485 30.9265L21.0299 30.7403L21.0894 30.8037L20.908 30.9822Z" fill="#2E353A"/>
<path d="M22.9936 30.9697C23.0723 31.2634 23.0099 31.465 22.8323 31.513C22.72 31.5428 22.6259 31.4948 22.5866 31.3777C22.5501 31.515 22.4435 31.6177 22.2918 31.659C22.047 31.7252 21.8138 31.5879 21.7437 31.3268C21.6746 31.0676 21.807 30.8334 22.0528 30.7681C22.2016 30.7278 22.3418 30.7604 22.4435 30.8574L22.3965 30.6826L22.5088 30.6529L22.6845 31.3076C22.7104 31.4046 22.768 31.4257 22.8266 31.4103C22.9331 31.3815 22.9667 31.2298 22.9043 30.9966C22.7949 30.5905 22.431 30.3994 22.0134 30.5118C21.5901 30.625 21.3779 30.986 21.4883 31.3959C21.5987 31.8049 21.9606 32.0151 22.3802 31.9028C22.4838 31.875 22.6048 31.8164 22.6912 31.7377L22.743 31.8145C22.6538 31.8961 22.5194 31.9604 22.4032 31.9911C21.928 32.1188 21.5162 31.8798 21.3933 31.4218C21.2694 30.962 21.5133 30.553 21.9904 30.4244C22.457 30.2977 22.8717 30.5175 22.9936 30.9697ZM22.5155 31.1185C22.4598 30.9092 22.2813 30.8132 22.095 30.8631C21.903 30.915 21.8022 31.0878 21.8579 31.2951C21.9136 31.5025 22.0893 31.6052 22.2813 31.5534C22.4666 31.5044 22.5722 31.3297 22.5155 31.1185Z" fill="#2E353A"/>
<path d="M23.8893 30.3773L23.9421 30.7517L24.1869 30.6855L24.2128 30.7805L23.9555 30.8496L24.0035 31.1885L23.9104 31.2135L23.8624 30.8746L23.5081 30.9696L23.5552 31.3085L23.4621 31.3335L23.4141 30.9946L23.1683 31.0608L23.1424 30.9658L23.3997 30.8967L23.3469 30.5223L23.1001 30.5885L23.0742 30.4935L23.3334 30.4244L23.2854 30.0855L23.3805 30.0596L23.4275 30.3984L23.7837 30.3024L23.7347 29.9636L23.8278 29.9386L23.8768 30.2775L24.1206 30.2122L24.1465 30.3072L23.8893 30.3773ZM23.7961 30.4023L23.4419 30.4973L23.4928 30.8727L23.8489 30.7767L23.7961 30.4023Z" fill="#2E353A"/>
<path d="M25.4773 30.8142L25.2632 30.6865C25.1903 30.8228 25.0674 30.915 24.9032 30.9591C24.6661 31.0225 24.4636 30.9438 24.4146 30.7604C24.3762 30.6174 24.4309 30.4897 24.6172 30.3025C24.4674 30.2132 24.4127 30.1499 24.3877 30.0567C24.3464 29.9031 24.4376 29.7678 24.6239 29.7169C24.7948 29.6708 24.9292 29.7313 24.9695 29.8811C25.0021 30.002 24.9522 30.1057 24.7861 30.2727L25.2095 30.5252C25.2287 30.4513 25.2354 30.3668 25.2277 30.2699L25.3362 30.2737C25.3429 30.3889 25.3314 30.4916 25.3036 30.5809L25.5244 30.7124L25.4773 30.8142ZM24.502 30.0241C24.5212 30.0951 24.5605 30.1383 24.7007 30.2209C24.8485 30.074 24.8888 29.9982 24.8658 29.9118C24.8418 29.8225 24.7612 29.7783 24.6488 29.8091C24.5288 29.8407 24.476 29.9271 24.502 30.0241ZM25.1711 30.6318L24.7055 30.3553C24.5413 30.5175 24.5039 30.6097 24.5327 30.7163C24.5682 30.8478 24.7084 30.9025 24.8831 30.8555C25.0136 30.8199 25.1125 30.7451 25.1711 30.6318Z" fill="#2E353A"/>
<path d="M25.3302 29.8791C25.2774 29.6823 25.3523 29.521 25.5145 29.4778C25.6749 29.4346 25.8227 29.5345 25.8755 29.7322C25.9293 29.931 25.8515 30.0903 25.6912 30.1335C25.5289 30.1777 25.383 30.0759 25.3302 29.8791ZM25.7901 29.7562C25.7478 29.5988 25.648 29.5258 25.5357 29.5556C25.4214 29.5863 25.3744 29.7006 25.4166 29.8561C25.4589 30.0116 25.5568 30.0874 25.6701 30.0567C25.7824 30.026 25.8313 29.9127 25.7901 29.7562ZM26.2499 29.2897L26.3517 29.2618L25.8505 30.6922L25.7488 30.7201L26.2499 29.2897ZM26.224 30.2497C26.1712 30.0529 26.248 29.8916 26.4083 29.8484C26.5705 29.8052 26.7165 29.906 26.7693 30.1028C26.8221 30.2996 26.7472 30.4609 26.5849 30.5041C26.4246 30.5482 26.2768 30.4474 26.224 30.2497ZM26.6838 30.1268C26.6425 29.9713 26.5437 29.8954 26.4294 29.9262C26.3171 29.9559 26.2681 30.0692 26.3104 30.2266C26.3526 30.3841 26.4525 30.457 26.5648 30.4273C26.6781 30.3966 26.7251 30.2823 26.6838 30.1268Z" fill="#2E353A"/>
<g opacity="0.7">
<path d="M21.1711 33.2996L20.333 34.8365L20.572 33.4839L21.1711 33.2996Z" fill="white" stroke="#777477" stroke-width="0.096" stroke-miterlimit="10"/>
</g>
</g>
</g>
<defs>
<clipPath id="clip0_1146_49389">
<rect width="48" height="48" rx="24" fill="white"/>
</clipPath>
<clipPath id="clip1_1146_49389">
<rect width="48" height="48" fill="white"/>
</clipPath>
</defs>
</svg>
