<svg width="48" height="48" viewBox="0 0 48 48" fill="none" xmlns="http://www.w3.org/2000/svg">
<g clip-path="url(#clip0_1146_49382)">
<rect width="48" height="48" rx="24" fill="white"/>
<g clip-path="url(#clip1_1146_49382)">
<path opacity="0.3" d="M47.2781 18.8419C46.3661 18.9619 45.2525 19.2969 44.7581 19.3776C42.1536 19.8028 39.5443 20.1792 36.9302 20.5046C32.6813 21.0336 28.4121 21.4473 24.1469 21.5308C17.8003 21.6547 11.5737 20.3721 5.3059 19.7001C3.81502 19.5398 -0.6653 18.5664 -1.41506 20.7302C-2.38754 23.5363 -2.34722 26.9068 -2.45474 29.8406C-2.56994 32.9692 -2.6813 36.095 -2.7149 39.2198C-2.72642 40.2902 -2.63426 41.3894 -2.18402 42.3244C-1.6205 43.4956 -0.57218 43.9996 0.59806 44.1628C2.71582 44.4585 4.87006 44.3654 7.00798 44.2915C9.8995 44.1916 12.7901 43.9555 15.6777 43.704C20.6755 43.2691 25.7577 42.5337 30.7613 42.695C34.2739 42.8083 37.7289 43.4179 41.1744 44.0304C42.5702 44.278 43.9401 44.662 45.3542 44.8051C46.4995 44.9212 48.2505 45.0326 49.1913 44.088C49.9814 43.294 50.0141 41.4374 50.1149 40.3996C50.3318 38.1648 50.3587 35.9126 50.3443 33.6758C50.3165 29.4835 50.2598 25.1232 49.5446 21.0144C49.3027 19.6204 48.7075 18.6537 47.2781 18.8419Z" fill="#9B9A9A"/>
<path d="M-5.06055 45.5319H50.9718" stroke="#263238" stroke-width="0.096" stroke-miterlimit="10" stroke-linecap="round" stroke-linejoin="round"/>
<path d="M6.93816 31.8039C6.93816 31.8039 7.53432 24.8285 8.09112 24.289C8.64792 23.7495 37.95 23.5652 39.5772 24.289C40.2319 24.5799 41.3263 30.7248 41.525 31.5725C41.7238 32.4202 41.6047 36.12 41.6047 36.12H6.58008L6.93816 31.8039Z" fill="#B5B5B5" stroke="#686868" stroke-width="0.096" stroke-miterlimit="10" stroke-linecap="round" stroke-linejoin="round"/>
<path d="M13.4959 24.2929C13.4959 24.2929 9.87864 24.4014 8.9244 24.6193C7.97016 24.8372 6.8172 25.0187 6.61848 25.0187C6.41976 25.0187 5.06808 24.6923 4.9884 24.9457C4.90872 25.2001 5.02776 25.6715 5.02776 25.6715C5.02776 25.6715 5.10744 27.5223 5.22648 28.5755C5.34552 29.6286 5.46456 30.027 5.34552 30.3179C5.22648 30.6078 5.18616 30.9351 5.10744 31.298C5.02776 31.6609 4.9884 31.8788 5.30616 31.8788C5.62392 31.8788 6.8172 31.0801 8.48664 31.2615C10.1561 31.443 11.6278 31.4065 13.2972 31.298C14.9666 31.1895 17.5116 30.5358 17.7497 30.3543C17.9878 30.1729 17.7103 29.9185 17.5903 29.8465C17.4713 29.7735 16.0793 26.0353 15.6022 25.2366C15.125 24.4379 15.1644 23.93 14.9657 23.8935C14.767 23.8571 14.2505 24.002 14.0911 24.0385C13.9337 24.075 13.4959 24.2929 13.4959 24.2929Z" fill="white" stroke="#686868" stroke-width="0.096" stroke-miterlimit="10" stroke-linecap="round" stroke-linejoin="round"/>
<path d="M11.082 27.4542C11.563 27.7096 11.8299 27.7537 11.8299 27.7537Z" fill="white"/>
<path d="M11.082 27.4542C11.563 27.7096 11.8299 27.7537 11.8299 27.7537" stroke="#686868" stroke-width="0.096" stroke-miterlimit="10" stroke-linecap="round" stroke-linejoin="round"/>
<path d="M8.24023 26.1744C8.24023 26.1744 9.71095 26.569 10.5327 27.122Z" fill="white"/>
<path d="M8.24023 26.1744C8.24023 26.1744 9.71095 26.569 10.5327 27.122" stroke="#686868" stroke-width="0.096" stroke-miterlimit="10" stroke-linecap="round" stroke-linejoin="round"/>
<path d="M11.6143 27.2007C11.6143 27.2007 12.22 27.4772 12.7394 27.5165Z" fill="white"/>
<path d="M11.6143 27.2007C11.6143 27.2007 12.22 27.4772 12.7394 27.5165" stroke="#686868" stroke-width="0.096" stroke-miterlimit="10" stroke-linecap="round" stroke-linejoin="round"/>
<path d="M39.5378 34.1597L36.4774 36.5558L25.086 37.609L13.6946 36.5558L10.6342 34.1597L5.1084 34.4141C5.1084 34.4141 5.23608 37.7539 5.7036 40.9478C6.17112 44.1418 7.91352 44.1062 8.42424 44.0697C8.934 44.0333 25.086 44.0697 25.086 44.0697C25.086 44.0697 41.238 44.0333 41.7478 44.0697C42.2575 44.1062 44.0009 44.1427 44.4684 40.9478C44.9359 37.7539 45.0636 34.4141 45.0636 34.4141L39.5378 34.1597Z" fill="#D3D3D3" stroke="#686868" stroke-width="0.096" stroke-miterlimit="10" stroke-linecap="round" stroke-linejoin="round"/>
<path d="M32.6598 35.1399C32.6598 35.1399 37.9475 34.6675 38.4246 34.632C38.9017 34.5955 39.6572 34.705 39.7369 35.5027C39.8166 36.3015 39.8963 39.5683 39.5776 39.7863C39.2598 40.0042 38.4246 40.0042 38.1068 40.0042C37.7891 40.0042 10.7555 40.1491 10.358 40.1491C9.9606 40.1491 9.76188 35.8656 9.84156 35.4663C9.92124 35.0669 10.3187 34.777 10.478 34.8125C10.6374 34.849 17.2758 35.1389 17.2758 35.1389L20.774 35.2474L32.6598 35.1399Z" fill="#D3D3D3" stroke="#686868" stroke-width="0.096" stroke-miterlimit="10" stroke-linecap="round" stroke-linejoin="round"/>
<path d="M44.0711 34.7808C42.849 34.6963 41.626 34.6089 40.4001 34.5849C39.6589 34.5705 38.0644 34.7904 37.7082 33.8688C37.4702 33.2515 38.3044 31.4371 39.7751 31.0377C41.2458 30.6384 43.9895 31.2192 44.7441 31.8365C45.4996 32.4537 45.7377 33.4339 45.4996 34.0147C45.2135 34.7145 44.6634 34.8221 44.0711 34.7808Z" fill="#D3D3D3" stroke="#686868" stroke-width="0.096" stroke-miterlimit="10" stroke-linecap="round" stroke-linejoin="round"/>
<path d="M43.6807 34.583C44.0983 34.6195 44.4083 34.6435 44.4813 34.632C44.6272 34.608 45.0631 34.415 45.0631 34.415" fill="#D3D3D3"/>
<path d="M43.6807 34.583C44.0983 34.6195 44.4083 34.6435 44.4813 34.632C44.6272 34.608 45.0631 34.415 45.0631 34.415" stroke="#686868" stroke-width="0.096" stroke-miterlimit="10" stroke-linecap="round" stroke-linejoin="round"/>
<path d="M39.8309 32.0045C39.6735 32.1476 39.5266 32.3568 39.4633 32.6583C39.2924 33.4618 39.5612 33.9735 40.0969 34.2663C40.6325 34.5591 41.2421 34.3882 42.2405 34.4612C42.5669 34.4852 42.9039 34.514 43.214 34.5418" fill="#D3D3D3"/>
<path d="M39.8309 32.0045C39.6735 32.1476 39.5266 32.3568 39.4633 32.6583C39.2924 33.4618 39.5612 33.9735 40.0969 34.2663C40.6325 34.5591 41.2421 34.3882 42.2405 34.4612C42.5669 34.4852 42.9039 34.514 43.214 34.5418" stroke="#686868" stroke-width="0.096" stroke-miterlimit="10" stroke-linecap="round" stroke-linejoin="round"/>
<path d="M40.3886 31.7078C40.3886 31.7078 40.2619 31.7327 40.1006 31.8162Z" fill="#D3D3D3"/>
<path d="M40.3886 31.7078C40.3886 31.7078 40.2619 31.7327 40.1006 31.8162" stroke="#686868" stroke-width="0.096" stroke-miterlimit="10" stroke-linecap="round" stroke-linejoin="round"/>
<path d="M5.44388 34.99C6.66596 34.9055 7.889 34.8182 9.11492 34.7942C9.85604 34.7798 11.4506 34.9996 11.8068 34.078C12.0448 33.4607 11.2106 31.6463 9.73988 31.247C8.26916 30.8476 5.52548 31.4284 4.77092 32.0457C4.0154 32.663 3.77732 33.6431 4.0154 34.2239C4.30148 34.9228 4.85156 35.0313 5.44388 34.99Z" fill="#D3D3D3" stroke="#686868" stroke-width="0.096" stroke-miterlimit="10" stroke-linecap="round" stroke-linejoin="round"/>
<path d="M5.83455 34.7913C5.41695 34.8278 5.10687 34.8518 5.03391 34.8403C4.88799 34.8163 4.45215 34.6233 4.45215 34.6233" fill="#D3D3D3"/>
<path d="M5.83455 34.7913C5.41695 34.8278 5.10687 34.8518 5.03391 34.8403C4.88799 34.8163 4.45215 34.6233 4.45215 34.6233" stroke="#686868" stroke-width="0.096" stroke-miterlimit="10" stroke-linecap="round" stroke-linejoin="round"/>
<path d="M9.68382 32.2128C9.84126 32.3558 9.98814 32.5651 10.0515 32.8665C10.2224 33.67 9.95358 34.1817 9.4179 34.4745C8.88222 34.7673 8.27262 34.5965 7.27422 34.6694C6.94782 34.6934 6.61086 34.7222 6.30078 34.7501" fill="#D3D3D3"/>
<path d="M9.68382 32.2128C9.84126 32.3558 9.98814 32.5651 10.0515 32.8665C10.2224 33.67 9.95358 34.1817 9.4179 34.4745C8.88222 34.7673 8.27262 34.5965 7.27422 34.6694C6.94782 34.6934 6.61086 34.7222 6.30078 34.7501" stroke="#686868" stroke-width="0.096" stroke-miterlimit="10" stroke-linecap="round" stroke-linejoin="round"/>
<path d="M9.12598 31.917C9.12598 31.917 9.2527 31.942 9.41398 32.0255Z" fill="#D3D3D3"/>
<path d="M9.12598 31.917C9.12598 31.917 9.2527 31.942 9.41398 32.0255" stroke="#686868" stroke-width="0.096" stroke-miterlimit="10" stroke-linecap="round" stroke-linejoin="round"/>
<path d="M18.4557 44.3692C18.2954 44.4883 18.1677 45.2188 18.1072 45.4233C17.992 45.8159 17.8759 46.2585 17.9565 46.6694C18.1159 47.4758 19.3043 47.9663 20.0349 47.6716C20.4083 47.5209 20.9267 47.1484 20.9104 46.7807C20.8269 44.9529 20.944 44.3702 20.944 44.3702C20.944 44.3702 19.4896 43.6003 18.4557 44.3692Z" fill="white" stroke="#263238" stroke-width="0.096" stroke-miterlimit="10" stroke-linecap="round" stroke-linejoin="round"/>
<path d="M17.957 46.6684C18.1164 47.4748 19.3048 47.9654 20.0354 47.6707C20.4088 47.52 20.9272 47.1475 20.9109 46.7798C20.8908 46.3296 20.8821 45.9552 20.8812 45.646C20.8418 45.9657 20.789 46.3526 20.7448 46.5312C20.6613 46.8633 20.357 47.2233 19.9423 47.3337C19.5266 47.4441 18.8901 47.472 18.3919 47.0841C17.8936 46.6963 18.1087 45.4224 18.1087 45.4224C17.9916 45.815 17.8754 46.2576 17.957 46.6684Z" fill="white" stroke="#263238" stroke-width="0.096" stroke-miterlimit="10" stroke-linecap="round" stroke-linejoin="round"/>
<path d="M30.3282 44.3692C30.4885 44.4883 30.6162 45.2188 30.6766 45.4233C30.7918 45.8159 30.908 46.2585 30.8274 46.6694C30.668 47.4758 29.4795 47.9663 28.749 47.6716C28.3755 47.5209 27.8571 47.1484 27.8734 46.7807C27.957 44.9529 27.8398 44.3702 27.8398 44.3702C27.8398 44.3702 29.2942 43.6003 30.3282 44.3692Z" fill="white" stroke="#263238" stroke-width="0.096" stroke-miterlimit="10" stroke-linecap="round" stroke-linejoin="round"/>
<path d="M30.8273 46.6684C30.668 47.4748 29.4795 47.9654 28.7489 47.6707C28.3755 47.52 27.8571 47.1475 27.8734 46.7798C27.8936 46.3296 27.9022 45.9552 27.9032 45.646C27.9425 45.9657 27.9953 46.3526 28.0395 46.5312C28.123 46.8633 28.4273 47.2233 28.8421 47.3337C29.2577 47.4441 29.8942 47.472 30.3925 47.0841C30.8907 46.6963 30.6757 45.4224 30.6757 45.4224C30.7928 45.815 30.9089 46.2576 30.8273 46.6684Z" fill="white" stroke="#263238" stroke-width="0.096" stroke-miterlimit="10" stroke-linecap="round" stroke-linejoin="round"/>
<path d="M17.3728 31.4649C17.3728 31.4649 16.336 32.11 16.1286 32.7552C15.9212 33.4003 16.0134 33.9993 16.2208 34.4601C16.4281 34.9209 18.4787 43.654 18.4787 43.654C18.4787 43.654 18.1792 43.7001 18.2022 43.8614C18.2252 44.0227 18.4556 44.3683 18.4556 44.3683L19.024 44.6352C19.4137 44.8185 19.863 44.8272 20.2604 44.6582L20.9449 44.3673C20.9449 44.3673 21.0371 43.7913 21.0601 43.5148C21.0832 43.2384 20.9219 43.1001 20.9219 43.1001L20.8067 35.2656H27.374L27.904 43.1692C27.904 43.1692 27.6275 43.3075 27.6275 43.3996C27.6275 43.4918 27.6966 44.206 27.6966 44.206L27.9817 44.3423C28.6662 44.6697 29.4006 44.8483 30.0486 44.4527L30.328 44.3683C30.328 44.3683 30.3462 43.7923 30.3462 43.5849C30.3462 43.3776 30.3001 43.078 30.231 42.9859C30.1619 42.8937 31.8668 33.815 31.8668 33.4924C31.8668 33.1699 31.7056 32.8243 31.6825 32.7552C31.6595 32.686 30.7609 31.8336 30.1388 31.534C29.5168 31.2345 28.0422 30.912 27.95 30.912C27.8579 30.912 26.798 31.3958 24.8166 31.534C22.8352 31.6723 19.886 30.7046 19.886 30.7046C19.886 30.7046 18.0179 30.8428 17.3728 31.4649Z" fill="#353535" stroke="#263238" stroke-width="0.096" stroke-miterlimit="10" stroke-linecap="round" stroke-linejoin="round"/>
<path d="M19.8712 32.9635C19.7628 32.8137 19.6812 32.7091 19.6533 32.687" stroke="#999999" stroke-width="0.096" stroke-miterlimit="10" stroke-linecap="round" stroke-linejoin="round"/>
<path d="M20.8064 35.2675C20.8064 35.2675 20.8525 34.8067 20.8525 34.5763C20.8525 34.4284 20.4061 33.7296 20.0557 33.2236" stroke="#999999" stroke-width="0.096" stroke-miterlimit="10" stroke-linecap="round" stroke-linejoin="round"/>
<path d="M21.1982 33.239C21.1982 33.239 22.5346 34.4141 22.7419 35.1744" stroke="#999999" stroke-width="0.096" stroke-miterlimit="10" stroke-linecap="round" stroke-linejoin="round"/>
<path d="M27.3728 35.2675C27.3728 35.2675 27.1885 34.968 27.1885 34.369C27.1885 33.7699 28.2253 32.3414 28.2253 32.3414" stroke="#999999" stroke-width="0.096" stroke-miterlimit="10" stroke-linecap="round" stroke-linejoin="round"/>
<path d="M27.4425 32.7321C27.4425 32.7321 27.1199 33.1007 27.0508 33.4693" stroke="#999999" stroke-width="0.096" stroke-miterlimit="10" stroke-linecap="round" stroke-linejoin="round"/>
<path d="M26.7054 33.2159C26.7054 33.2159 26.6593 33.9993 26.9819 34.5292" stroke="#999999" stroke-width="0.096" stroke-miterlimit="10" stroke-linecap="round" stroke-linejoin="round"/>
<path d="M20.4385 32.8473C20.4385 32.8473 20.6228 33.3311 20.738 33.9532" stroke="#999999" stroke-width="0.096" stroke-miterlimit="10" stroke-linecap="round" stroke-linejoin="round"/>
<path d="M23.9639 34.3593C24.272 33.8783 24.7578 33.2082 25.3683 32.663" stroke="#999999" stroke-width="0.096" stroke-miterlimit="10" stroke-linecap="round" stroke-linejoin="round"/>
<path d="M23.5947 34.991C23.5947 34.991 23.6466 34.8892 23.7435 34.7222" stroke="#999999" stroke-width="0.096" stroke-miterlimit="10" stroke-linecap="round" stroke-linejoin="round"/>
<path d="M25.29 34.0713C25.3822 34.0166 25.4705 33.9695 25.5531 33.9302" stroke="#999999" stroke-width="0.096" stroke-miterlimit="10" stroke-linecap="round" stroke-linejoin="round"/>
<path d="M23.7559 35.2214C23.7559 35.2214 24.4 34.6578 25.0125 34.2469" stroke="#999999" stroke-width="0.096" stroke-miterlimit="10" stroke-linecap="round" stroke-linejoin="round"/>
<path d="M22.8613 21.0277C22.8613 21.0277 19.1404 22.2959 18.5653 22.7355C17.9903 23.1752 17.804 23.5131 17.6687 24.0383C17.5333 24.5624 16.5522 29.3826 16.5858 29.9912C16.6194 30.5999 17.8204 30.9042 18.1756 30.9387C18.5308 30.9723 19.1231 30.7861 19.1231 30.7861C19.1231 30.7861 20.6792 31.4283 21.4232 31.7499C22.1672 32.0715 23.757 32.4431 25.1106 32.1224C26.4632 31.8008 27.7487 31.125 27.884 31.0741C28.0194 31.0232 29.9816 31.0232 29.9816 31.0232C29.9816 31.0232 30.574 30.0421 30.6076 28.8075C30.6412 27.573 31.1317 25.7461 30.9292 24.8331C30.7266 23.9202 30.3541 23.4632 29.542 22.8037C28.7298 22.1442 26.7848 21.3493 26.7848 21.3493C26.7848 21.3493 24.79 20.6389 22.8613 21.0277Z" fill="#6D6D6D"/>
<path d="M20.1564 25.5273L19.9365 26.8463L20.477 25.4591" stroke="#565656" stroke-width="0.096" stroke-miterlimit="10" stroke-linecap="round" stroke-linejoin="round"/>
<path d="M22.7041 25.1106C22.7339 25.2498 22.7694 25.3746 22.8116 25.4764" stroke="#565656" stroke-width="0.096" stroke-miterlimit="10" stroke-linecap="round" stroke-linejoin="round"/>
<path d="M22.574 22.3976C22.574 22.3976 22.5077 23.8683 22.6594 24.8638" stroke="#565656" stroke-width="0.096" stroke-miterlimit="10" stroke-linecap="round" stroke-linejoin="round"/>
<path d="M22.0836 22.8718C22.0836 22.8718 21.9655 24.1573 22.05 24.6814" stroke="#565656" stroke-width="0.096" stroke-miterlimit="10" stroke-linecap="round" stroke-linejoin="round"/>
<path d="M28.1387 27.3368L29.306 25.5608" stroke="#565656" stroke-width="0.096" stroke-miterlimit="10" stroke-linecap="round" stroke-linejoin="round"/>
<path d="M28.207 26.998L28.5958 25.798" stroke="#565656" stroke-width="0.096" stroke-miterlimit="10" stroke-linecap="round" stroke-linejoin="round"/>
<path d="M30.6073 28.8085C30.6208 28.3036 30.711 27.7007 30.7993 27.1007L28.1382 27.6921L27.8848 31.0751C28.0201 31.0242 29.9824 31.0242 29.9824 31.0242C29.9824 31.0242 30.5737 30.0431 30.6073 28.8085Z" fill="#FCDAC8" stroke="#D6AF9F" stroke-width="0.096" stroke-miterlimit="10"/>
<path d="M17.3155 25.7106C16.9881 27.3368 16.5648 29.588 16.5878 29.9912C16.6214 30.5999 17.8224 30.9042 18.1776 30.9387C18.5328 30.9723 19.1251 30.7861 19.1251 30.7861L19.9373 26.8453L17.3155 25.7106Z" fill="#FCDAC8"/>
<path d="M22.7418 19.1221C22.7418 19.1221 22.4605 18.7228 22.2685 19.3295C22.0765 19.9362 22.8609 20.9135 22.8609 20.9135L22.9501 19.4188L22.7418 19.1221Z" fill="#FCDAC8"/>
<path d="M24.74 25.3986C25.7782 25.3986 26.6197 24.0598 26.6197 22.4082C26.6197 20.7567 25.7782 19.4178 24.74 19.4178C23.7019 19.4178 22.8604 20.7567 22.8604 22.4082C22.8604 24.0598 23.7019 25.3986 24.74 25.3986Z" fill="#FCDAC8"/>
<path d="M22.9411 23.3624L24.3715 23.3308L22.8893 21.7717C22.8902 21.7717 22.823 22.6319 22.9411 23.3624Z" fill="#E0BFB1"/>
<path d="M22.9489 19.4188C22.9489 19.4188 22.7569 21.2543 22.8894 21.7727C23.0228 22.2911 23.955 23.4162 24.1623 23.5641C24.3697 23.7119 24.6807 24.0671 25.2135 23.9788C25.7463 23.8905 26.9751 22.5878 27.0788 22.2316C27.1825 21.8764 27.7748 19.0194 27.7748 19.0194C27.7748 19.0194 27.9524 18.6786 27.4638 17.7167C26.9751 16.7548 25.0801 16.1769 24.5924 16.3401C24.1038 16.5033 23.186 17.7023 23.0823 18.0575C22.9787 18.4118 22.9489 19.4188 22.9489 19.4188Z" fill="#FCDAC8" stroke="#EAC8B9" stroke-width="0.096" stroke-miterlimit="10"/>
<path d="M23.8373 15.8956C23.8373 15.8956 23.3045 15.5846 23.0232 15.7478C22.742 15.911 22.5788 16.1471 22.5788 16.1471C22.5788 16.1471 22.934 16.0578 22.9781 16.0876C23.0223 16.1174 23.1701 16.1769 23.1701 16.1769C23.1701 16.1769 22.5634 16.414 22.5192 16.5916C22.4751 16.7692 22.4453 16.917 22.4453 16.917L23.1413 16.5618C23.1413 16.5618 22.6968 16.799 22.5788 17.3318C22.4607 17.8646 22.5788 18.3676 22.6229 18.5308C22.6671 18.694 22.7122 19.0338 22.7122 19.0338L23.053 19.6703L23.0386 18.9158C23.0386 18.9158 23.3938 18.5308 23.4677 18.4127C23.5416 18.2946 23.6751 17.9682 23.6751 17.9682L23.6607 18.6345C23.6607 18.6345 23.9276 18.3388 24.0754 18.0575C24.2232 17.7762 24.4604 16.9478 24.4604 16.9478L24.7272 17.303L24.8165 16.9919C24.8165 16.9919 25.2312 17.6726 25.3647 17.7916C25.4981 17.9097 26.1048 18.191 26.1048 18.191L26.0453 17.5842C26.0453 17.5842 26.8594 18.4137 26.9631 18.5164C27.0668 18.6201 27.5852 19.0492 27.5852 19.0492L27.6293 19.5974C27.6293 19.5974 28.0287 19.4054 28.118 19.3305C28.2072 19.2566 28.2812 18.9897 28.2812 18.9897L28.4146 19.5378C28.4146 19.5378 28.7256 18.9897 28.8293 18.5308C28.933 18.0719 28.8437 17.6274 28.6815 17.2578C28.5183 16.8882 28.2082 16.4879 28.2082 16.4879L28.5192 16.5618C28.5192 16.5618 28.4895 16.3401 28.2677 16.1471C28.046 15.9551 26.4322 15.0662 26.2844 15.0518C26.1365 15.0374 26.1365 15.0374 26.1365 15.0374L26.6991 14.9778C26.6991 14.9778 26.077 14.7263 25.7516 14.7263C25.4261 14.7263 24.7157 15.0671 24.5525 15.2447C24.3893 15.4223 24.2712 15.5702 24.2712 15.5702L24.2568 15.0815C24.252 15.0815 23.8085 15.4214 23.8373 15.8956Z" fill="#332E2A" stroke="#332E2A" stroke-width="0.096" stroke-miterlimit="10" stroke-linecap="round" stroke-linejoin="round"/>
<path d="M27.5671 20.1292C27.5671 20.1292 27.8042 20.1148 27.834 20.2473C27.8638 20.3808 27.8484 20.8099 27.6708 21.0614C27.4932 21.3129 27.2119 21.6537 27.2119 21.6537L27.5671 20.1292Z" fill="#FCDAC8"/>
<path d="M23.7964 19.5676C23.7964 19.5676 25.0569 19.4677 25.0598 19.3737C25.0627 19.2786 24.9695 19.0338 24.9695 19.0338C24.9695 19.0338 24.7036 19.198 24.5289 19.2364C24.3542 19.2757 23.8041 19.3573 23.7215 19.4197C23.639 19.4821 23.6006 19.6041 23.6006 19.6041L23.7964 19.5676Z" fill="#332E2A"/>
<path d="M27.0539 19.7606C27.0539 19.7606 25.8472 20.1388 25.8088 20.0514C25.7714 19.9641 25.7656 19.702 25.7656 19.702C25.7656 19.702 26.0738 19.7548 26.2495 19.726C26.4261 19.6972 26.9675 19.5676 27.0674 19.5954C27.1672 19.6223 27.2479 19.7212 27.2479 19.7212L27.0539 19.7606Z" fill="#332E2A"/>
<path d="M24.7842 21.4319C24.7842 21.4319 24.7842 21.6095 24.9023 21.669C25.0203 21.7285 25.1979 21.8168 25.3314 21.7727C25.4648 21.7285 25.5983 21.5356 25.5983 21.5356" stroke="#332E2A" stroke-width="0.096" stroke-miterlimit="10" stroke-linecap="round" stroke-linejoin="round"/>
<path d="M24.1777 22.4831C24.1777 22.4831 24.6961 22.2911 25.0072 22.2911C25.3182 22.2911 25.5102 22.3804 25.5102 22.3804" stroke="#332E2A" stroke-width="0.096" stroke-miterlimit="10" stroke-linecap="round" stroke-linejoin="round"/>
<path d="M23.8086 19.9363C23.8086 19.9363 24.1043 20.4844 24.6822 20.1436" stroke="#332E2A" stroke-width="0.096" stroke-miterlimit="10" stroke-linecap="round" stroke-linejoin="round"/>
<path d="M25.4952 19.1078C25.4952 19.1078 25.4511 19.4332 25.332 19.5523" stroke="#332E2A" stroke-width="0.096" stroke-miterlimit="10" stroke-linecap="round" stroke-linejoin="round"/>
<path d="M25.6882 20.085C25.6882 20.085 25.6882 20.3221 25.7622 20.5439C25.8361 20.7657 26.0578 22.0098 26.0578 22.0098C26.0578 22.0098 25.3916 23.0313 25.3916 23.5045C25.3916 23.9778 25.599 24.5701 25.599 24.5701L27.2127 30.166C27.2127 30.166 27.8636 31.3948 28.2639 31.6319C28.6633 31.869 29.3737 31.9871 29.6108 31.75C29.8479 31.5129 30.1436 31.0098 30.2031 30.4175C30.2626 29.8252 29.8623 29.2041 29.4486 28.7001C29.0338 28.197 27.5833 25.3842 27.3615 24.9253C27.1398 24.4665 26.9766 24.0517 26.9622 24.0076C26.9478 23.9634 27.8799 22.5129 27.9692 22.3199C28.0585 22.1279 28.0134 21.3724 27.9097 21.2101C27.806 21.0469 27.3769 20.2329 27.2588 20.1292C27.1407 20.0255 27.1407 20.0255 27.1407 20.0255C27.1407 20.0255 26.7702 19.7001 26.6521 19.7298C26.534 19.7596 26.4889 19.9372 26.4889 19.9372C26.4889 19.9372 26.1778 19.8037 26.0895 19.8633C26.0002 19.9228 26.0002 20.1301 26.0002 20.1301C26.0002 20.1301 25.8063 19.8181 25.6882 20.085Z" fill="#FCDAC8" stroke="#D6AF9F" stroke-width="0.096" stroke-miterlimit="10"/>
<path d="M25.999 20.1292C25.999 20.1292 26.3398 21.2245 26.4137 21.5058C26.4877 21.7871 26.4435 21.9349 26.4435 21.9349" fill="#FCDAC8"/>
<path d="M25.999 20.1292C25.999 20.1292 26.3398 21.2245 26.4137 21.5058C26.4877 21.7871 26.4435 21.9349 26.4435 21.9349" stroke="#D6AF9F" stroke-width="0.096" stroke-miterlimit="10"/>
<path d="M26.4883 19.9363C26.4883 19.9363 27.0211 21.2832 27.0508 21.4905C27.0806 21.6979 27.0806 21.8313 27.0806 21.8313" fill="#FCDAC8"/>
<path d="M26.4883 19.9363C26.4883 19.9363 27.0211 21.2832 27.0508 21.4905C27.0806 21.6979 27.0806 21.8313 27.0806 21.8313" stroke="#D6AF9F" stroke-width="0.096" stroke-miterlimit="10"/>
<path d="M26.9609 19.9075C26.9609 19.9075 27.3305 20.8108 27.464 21.166C27.5974 21.5212 27.656 21.8169 27.6416 21.862" fill="#FCDAC8"/>
<path d="M26.9609 19.9075C26.9609 19.9075 27.3305 20.8108 27.464 21.166C27.5974 21.5212 27.656 21.8169 27.6416 21.862" stroke="#D6AF9F" stroke-width="0.096" stroke-miterlimit="10"/>
<path d="M22.8384 28.1193C23.2138 27.622 22.6714 27.2149 22.8192 26.7253" stroke="#565656" stroke-width="0.096" stroke-miterlimit="10" stroke-linecap="round" stroke-linejoin="round"/>
<path d="M23.584 28.1193C23.7587 27.7545 23.7587 27.3599 23.6944 26.9682C23.6387 26.6303 23.4986 26.2655 23.5639 25.9189" stroke="#565656" stroke-width="0.096" stroke-miterlimit="10" stroke-linecap="round" stroke-linejoin="round"/>
<path d="M24.331 28.1193C24.716 27.6095 24.1611 27.2255 24.3118 26.7253" stroke="#565656" stroke-width="0.096" stroke-miterlimit="10" stroke-linecap="round" stroke-linejoin="round"/>
<path d="M19.6485 29.637C19.6485 29.637 20.5106 28.7577 20.6968 28.6559C20.8831 28.5542 21.9141 28.7577 22.0159 28.7913C22.1176 28.8249 22.4892 29.4172 22.4892 29.4172C22.4892 29.4172 22.4556 29.5698 22.4047 29.6706C22.3538 29.7724 22.3874 29.9078 22.3711 30.0431C22.3538 30.1785 22.3538 30.381 22.3202 30.5001C22.2866 30.6182 22.2866 30.838 22.2184 30.8889C22.1512 30.9398 21.3391 31.0415 21.3391 31.0415C21.3391 31.0415 20.8485 31.3122 20.5269 31.414C20.2053 31.5158 19.2079 31.2786 19.1397 31.2614C19.0725 31.2441 18.2604 31.5148 17.6172 31.6674C16.9749 31.8201 16.3826 31.4985 16.23 31.0751C16.0773 30.6518 16.23 29.6543 16.636 29.2991C17.0421 28.9439 18.1298 28.9228 18.6492 29.2319C19.277 29.6034 19.6485 29.637 19.6485 29.637Z" fill="#FCDAC8"/>
<path d="M21.2051 29.1974L22.406 29.6707" stroke="#D6AF9F" stroke-width="0.096" stroke-miterlimit="10" stroke-linecap="round" stroke-linejoin="round"/>
<path d="M21.2383 29.9414L22.372 30.0432" stroke="#D6AF9F" stroke-width="0.096" stroke-miterlimit="10" stroke-linecap="round" stroke-linejoin="round"/>
<path d="M21.2383 30.6182L22.3212 30.4991" stroke="#D6AF9F" stroke-width="0.096" stroke-miterlimit="10" stroke-linecap="round" stroke-linejoin="round"/>
<path d="M19.6484 29.6371L19.0225 30.0432" stroke="#D6AF9F" stroke-width="0.096" stroke-miterlimit="10" stroke-linecap="round" stroke-linejoin="round"/>
<path opacity="0.72" d="M30.3704 16.392C30.3186 16.392 30.2667 16.3901 30.2168 16.3853C30.0363 16.369 29.9019 16.321 29.8078 16.2394C29.7435 16.1837 29.6926 16.0992 29.6773 16.008C29.5842 16.0061 29.4901 16.0013 29.395 15.9965C29.1867 15.984 28.9707 15.961 28.82 15.8218C28.7298 15.7382 28.6779 15.623 28.6712 15.4915C28.507 15.4406 28.3486 15.3379 28.2795 15.1651C28.2219 15.0211 28.2421 14.8685 28.3074 14.736C28.2094 14.6611 28.1298 14.5805 28.0645 14.4941C27.9166 14.2973 27.8418 14.0506 27.8475 13.8067C27.8062 13.7846 27.7717 13.7558 27.7534 13.7126C27.7198 13.631 27.7621 13.536 27.8725 13.4448C27.8955 13.4256 27.9195 13.4074 27.9426 13.3891C28.0741 13.1011 28.3323 12.8755 28.6376 12.7872C28.8862 12.7162 29.1474 12.7363 29.3998 12.7555C29.4046 12.7555 29.4085 12.7565 29.4133 12.7565C29.6053 12.72 29.7934 12.6989 29.971 12.6874C30.0757 12.6634 30.1842 12.6557 30.2907 12.6643C30.3954 12.6144 30.4904 12.5414 30.5586 12.4387C30.5931 12.3869 30.619 12.3302 30.6459 12.2707C30.6728 12.2112 30.7006 12.1498 30.739 12.0931C30.8936 11.8608 31.1941 11.7283 31.6328 11.6995C32.1541 11.6659 32.5755 11.7552 32.8866 11.9664C33.0104 12.0509 33.1102 12.1526 33.1813 12.265C33.3426 12.2698 33.5019 12.3082 33.6402 12.3485C33.8504 12.409 34.34 12.5942 34.3381 12.9955C34.3371 13.128 34.2786 13.2499 34.2258 13.3574L34.052 13.7146C34.0606 13.7616 34.0645 13.8077 34.0626 13.8528C34.0962 13.8662 34.1278 13.8826 34.1595 13.8998C34.3006 13.9805 34.4475 14.1322 34.435 14.3165C34.4274 14.4365 34.3554 14.5517 34.2152 14.6678C34.0395 14.8128 33.8408 14.9146 33.6315 14.9894C33.5643 15.1181 33.4866 15.241 33.3982 15.3562C33.2274 15.5789 32.9432 15.8669 32.5563 15.9706C32.301 16.0397 32.035 16.0099 31.8238 15.8995C31.7499 15.9494 31.676 15.9917 31.6078 16.0282C31.1662 16.2701 30.7506 16.392 30.3704 16.392ZM29.7522 16.008C29.7666 16.0752 29.8059 16.1405 29.8558 16.1837C29.9384 16.2557 30.0594 16.2979 30.2235 16.3123C30.6286 16.3488 31.0827 16.2317 31.5733 15.9638C31.6299 15.9331 31.6914 15.8976 31.7538 15.8582C31.6856 15.8141 31.6242 15.7603 31.5733 15.6979C31.5493 15.6691 31.5224 15.6307 31.5118 15.5856C31.4034 15.6029 31.2939 15.6154 31.1835 15.625C31.0165 15.7018 30.8341 15.7594 30.6469 15.791C30.5557 15.8496 30.4597 15.8938 30.3694 15.9235C30.1698 15.9878 29.9634 16.008 29.7522 16.008ZM29.8818 15.7517C29.8357 15.7747 29.7963 15.8074 29.7714 15.8525C29.757 15.8784 29.7493 15.9062 29.7464 15.935C29.9528 15.935 30.1534 15.9158 30.3454 15.8534C30.38 15.8419 30.4146 15.8285 30.4501 15.8131C30.259 15.8256 30.0661 15.8083 29.8818 15.7517ZM28.7461 15.5107C28.7538 15.5952 28.7854 15.6902 28.8699 15.768C29.0034 15.8909 29.204 15.912 29.3998 15.9235C29.492 15.9293 29.5832 15.9331 29.6744 15.935C29.6773 15.8947 29.6878 15.8554 29.709 15.8179C29.731 15.7786 29.7598 15.7469 29.7934 15.7219C29.7618 15.7094 29.7301 15.696 29.6984 15.6816C29.6974 15.6854 29.6965 15.6883 29.6955 15.6922C29.6802 15.745 29.6398 15.7853 29.5813 15.8045C29.5074 15.8285 29.421 15.815 29.3605 15.769C29.275 15.7037 29.2357 15.6 29.2098 15.5002C29.1157 15.5251 29.0139 15.5357 28.9083 15.5318C28.8574 15.529 28.8018 15.5222 28.7461 15.5107ZM31.893 15.8515C32.0821 15.9389 32.3144 15.96 32.5381 15.8995C32.9048 15.8006 33.1765 15.5251 33.3406 15.311C33.4107 15.2198 33.4741 15.1229 33.5307 15.0221C33.4347 15.0518 33.3358 15.0778 33.236 15.0998C33.1246 15.2016 32.9643 15.2813 32.7522 15.3389C32.5938 15.3821 32.4334 15.4128 32.2712 15.4339C32.2453 15.481 32.2165 15.5261 32.1838 15.5702C32.1022 15.6816 31.9986 15.7738 31.893 15.8515ZM31.5848 15.5741C31.5925 15.6029 31.6126 15.6307 31.6299 15.6518C31.6827 15.7162 31.747 15.7709 31.821 15.8141C31.9323 15.7363 32.0418 15.6422 32.1262 15.528C32.1454 15.5011 32.1637 15.4742 32.181 15.4464C32.1291 15.4522 32.0763 15.457 32.0235 15.4608C31.8814 15.5107 31.7346 15.5472 31.5848 15.5741ZM29.2798 15.4781C29.3029 15.5664 29.3355 15.6576 29.4046 15.7104C29.445 15.7411 29.5074 15.7507 29.5582 15.7344C29.5832 15.7267 29.6139 15.7085 29.6254 15.671C29.6274 15.6634 29.6293 15.6547 29.6302 15.6461C29.5563 15.6058 29.4853 15.5578 29.4181 15.5011C29.397 15.4838 29.3778 15.4656 29.3576 15.4474C29.3317 15.4579 29.3058 15.4685 29.2798 15.4781ZM30.0171 15.7075C30.2149 15.7488 30.4232 15.7488 30.6267 15.7162C30.6555 15.697 30.6834 15.6758 30.7102 15.6538C30.7016 15.6538 30.693 15.6547 30.6843 15.6547C30.5029 15.6634 30.3157 15.673 30.1352 15.6902C30.0978 15.695 30.0574 15.6998 30.0171 15.7075ZM30.8245 15.649C30.812 15.6614 30.7995 15.673 30.7861 15.6845C30.836 15.672 30.885 15.6586 30.9339 15.6422C30.8974 15.6451 30.861 15.647 30.8245 15.649ZM29.7042 15.601C29.7618 15.6288 29.8203 15.6528 29.8808 15.672C29.9595 15.6394 30.0478 15.6259 30.1285 15.6182C30.3099 15.601 30.499 15.5914 30.6805 15.5827C30.7179 15.5808 30.7554 15.5789 30.7928 15.577C30.8245 15.5434 30.8533 15.5078 30.8792 15.4694C30.5298 15.4627 30.1726 15.4598 29.8251 15.4963C29.781 15.5011 29.7368 15.5088 29.7186 15.5366C29.707 15.553 29.7051 15.575 29.7042 15.601ZM30.9637 15.4714C30.9426 15.5069 30.9195 15.5405 30.8936 15.5722C30.9838 15.5674 31.0731 15.5616 31.1634 15.5539C31.2142 15.5309 31.2642 15.505 31.3122 15.4781C31.2056 15.4771 31.1 15.4752 30.9944 15.4723C30.9838 15.4714 30.9742 15.4714 30.9637 15.4714ZM29.4258 15.4099C29.4382 15.4214 29.4507 15.433 29.4642 15.4435C29.5179 15.4886 29.5746 15.528 29.6341 15.5626C29.637 15.5395 29.6437 15.5165 29.6581 15.4954C29.6936 15.4435 29.755 15.4301 29.8174 15.4234C30.1832 15.385 30.5576 15.3898 30.9224 15.3965C30.9387 15.3638 30.9531 15.3302 30.9656 15.2947C30.8859 15.3226 30.8024 15.3322 30.7256 15.3389C30.3493 15.3725 29.971 15.3504 29.6034 15.2746C29.5496 15.3254 29.4901 15.3725 29.4258 15.4099ZM31.4504 15.4781C31.4466 15.481 31.4418 15.4838 31.4379 15.4858C31.413 15.5021 31.387 15.5174 31.3611 15.5328C31.412 15.527 31.4619 15.5194 31.5118 15.5117C31.5147 15.5002 31.5186 15.4886 31.5234 15.4781C31.5003 15.4781 31.4754 15.4781 31.4504 15.4781ZM31.6126 15.4771C31.6069 15.4838 31.6021 15.4896 31.5973 15.4973C31.6328 15.4906 31.6683 15.4838 31.7038 15.4752C31.6731 15.4762 31.6434 15.4771 31.6126 15.4771ZM28.7442 15.4358C28.8008 15.4493 28.8584 15.457 28.9102 15.4589C29.0091 15.4627 29.1042 15.4522 29.1915 15.4291C29.1742 15.3523 29.157 15.2659 29.1416 15.1738C29.1368 15.1651 29.132 15.1565 29.1272 15.1478C29.0466 15.12 28.9669 15.0902 28.8872 15.0566C28.8066 15.1642 28.7528 15.2957 28.7442 15.4224C28.7451 15.4262 28.7451 15.431 28.7442 15.4358ZM28.3669 14.7792C28.315 14.8915 28.2997 15.0182 28.3477 15.1373C28.4053 15.2803 28.5339 15.3677 28.6731 15.4147C28.6837 15.2784 28.7365 15.1411 28.819 15.0259C28.7835 15.0106 28.747 14.9933 28.7115 14.977C28.579 14.9136 28.4648 14.8483 28.3669 14.7792ZM29.2443 15.3216C29.2501 15.3504 29.2568 15.3792 29.2626 15.4061C29.276 15.4013 29.2894 15.3955 29.3029 15.3907C29.2827 15.3686 29.2626 15.3456 29.2443 15.3216ZM31.0021 15.3994C31.1432 15.4022 31.2862 15.4051 31.4293 15.4051C31.5781 15.3072 31.7134 15.1949 31.8402 15.073C31.7787 15.0624 31.7154 15.0461 31.6501 15.0259C31.5474 14.9942 31.4072 14.9386 31.2795 14.8493C31.268 14.9942 31.2133 15.1411 31.0856 15.2333C31.0741 15.2419 31.0626 15.2496 31.0501 15.2563C31.0395 15.3062 31.0222 15.3542 31.0021 15.3994ZM31.9314 15.0864C31.8152 15.2016 31.6923 15.3091 31.5579 15.4051C31.5666 15.4051 31.5742 15.4051 31.5829 15.4051C31.6232 15.3715 31.6779 15.3418 31.747 15.3206C31.9275 15.263 32.1157 15.2227 32.3048 15.1882C32.325 15.1373 32.3442 15.0835 32.3634 15.0288C32.2414 15.0835 32.0955 15.1027 31.9314 15.0864ZM32.2712 15.2678C32.1003 15.2995 31.9304 15.3379 31.7691 15.3898C31.7605 15.3926 31.749 15.3965 31.7355 15.4022C31.8267 15.3994 31.9179 15.3946 32.0082 15.3878C32.0984 15.3542 32.1867 15.3149 32.2712 15.2678ZM29.2357 15.1814C29.275 15.2438 29.3211 15.3034 29.371 15.3571C29.4229 15.3283 29.4699 15.2947 29.5141 15.2563C29.421 15.2352 29.3278 15.2102 29.2357 15.1814ZM32.3278 15.3197C32.3221 15.3312 32.3173 15.3427 32.3115 15.3542C32.4536 15.3341 32.5938 15.3062 32.733 15.2678C32.8654 15.2314 32.9768 15.1872 33.0661 15.1334C32.9317 15.1584 32.7963 15.1805 32.6619 15.2016C32.5957 15.2122 32.5294 15.2227 32.4632 15.2333C32.4488 15.2438 32.4344 15.2534 32.419 15.264C32.3893 15.2842 32.3586 15.3024 32.3278 15.3197ZM29.6629 15.2131C30.0094 15.2794 30.3646 15.2986 30.7179 15.2669C30.8053 15.2592 30.9032 15.2467 30.9867 15.2074C31.0078 15.0931 31.0021 14.976 30.9954 14.8531C30.9934 14.8128 30.9915 14.7734 30.9896 14.7331C30.9253 14.7907 30.8542 14.8387 30.7774 14.8742C30.5288 14.9875 30.2562 14.9664 30.0056 14.8618C29.9758 14.8579 29.9461 14.8522 29.9163 14.8445C29.9067 14.8618 29.8971 14.8781 29.8875 14.8954C29.8328 14.9904 29.7598 15.1066 29.6629 15.2131ZM29.205 15.095C29.3278 15.1354 29.4526 15.169 29.5784 15.1958C29.6859 15.0864 29.7666 14.9597 29.8251 14.8589C29.8318 14.8474 29.8386 14.8358 29.8453 14.8234C29.7637 14.7955 29.685 14.7542 29.613 14.7005C29.4613 14.7274 29.3125 14.7638 29.1771 14.8282C29.1829 14.9213 29.1925 15.0106 29.205 15.095ZM32.4498 15.0029C32.4459 15.0134 32.4421 15.024 32.4382 15.0355C32.4219 15.0826 32.4056 15.1286 32.3883 15.1728C32.4037 15.1699 32.4181 15.168 32.4334 15.1651C32.4805 15.1296 32.5371 15.0816 32.5861 15.0221C32.541 15.0163 32.4949 15.0106 32.4498 15.0029ZM31.0626 14.6611C31.0626 14.6698 31.0626 14.6784 31.0626 14.687C31.0626 14.7408 31.0654 14.7955 31.0683 14.8493C31.0741 14.9491 31.0789 15.0518 31.0683 15.1546C31.1701 15.0653 31.2075 14.9242 31.2094 14.7946C31.1595 14.7523 31.1134 14.7024 31.075 14.6467C31.0712 14.6515 31.0664 14.6563 31.0626 14.6611ZM32.6725 15.0307C32.6446 15.0691 32.612 15.1066 32.5746 15.1421C32.5995 15.1382 32.6254 15.1344 32.6504 15.1296C32.8376 15.0998 33.0219 15.071 33.1995 15.0326C33.2043 15.0278 33.2091 15.023 33.2139 15.0182C33.1333 15.0336 33.044 15.0413 32.9451 15.0422C32.8539 15.0422 32.7627 15.0384 32.6725 15.0307ZM28.9381 14.9971C28.9851 15.0163 29.0331 15.0355 29.0811 15.0528C29.061 15.0086 29.0437 14.9626 29.0283 14.9165C28.9957 14.9395 28.9659 14.9674 28.9381 14.9971ZM31.9986 15.0182C32.1003 15.023 32.205 15.0125 32.3019 14.975C32.275 14.9693 32.2482 14.9635 32.2222 14.9568C32.1762 14.9453 32.132 14.9338 32.0888 14.9203C32.059 14.9539 32.0283 14.9856 31.9986 15.0182ZM31.2824 14.76C31.411 14.8618 31.5646 14.9222 31.6722 14.9558C31.7413 14.9779 31.821 14.9971 31.9045 15.0086C31.941 14.9722 31.9765 14.9338 32.011 14.8954C31.7758 14.8147 31.5925 14.7062 31.4542 14.5642C31.3803 14.4883 31.3189 14.401 31.2709 14.3078C31.2546 14.353 31.2354 14.3962 31.2133 14.4384C31.2373 14.5085 31.2574 14.5795 31.2709 14.6534C31.2776 14.688 31.2814 14.7235 31.2824 14.76ZM33.332 14.9885C33.3282 14.9942 33.3243 15 33.3205 15.0058C33.4088 14.9837 33.4952 14.9597 33.5797 14.9309C33.6843 14.7254 33.7602 14.5056 33.8062 14.279C33.7736 14.3011 33.739 14.3203 33.7026 14.3376C33.7362 14.4922 33.7227 14.6477 33.6296 14.7811C33.5624 14.8762 33.4635 14.9453 33.332 14.9885ZM32.7157 14.9606C32.7925 14.9664 32.8683 14.9693 32.9451 14.9693C33.0766 14.9693 33.1899 14.9549 33.285 14.927C33.2917 14.9155 33.2984 14.903 33.3042 14.8915C33.3733 14.7514 33.3685 14.5766 33.2984 14.4154C33.1592 14.4134 33.0229 14.3894 32.8981 14.3635C32.8731 14.4067 32.8491 14.4509 32.8261 14.4941C32.804 14.5354 32.7819 14.5766 32.7579 14.617C32.7666 14.6477 32.7723 14.6794 32.7742 14.713C32.78 14.7965 32.7589 14.88 32.7157 14.9606ZM28.4014 14.7149C28.4974 14.783 28.6107 14.8483 28.7432 14.9117C28.7835 14.9309 28.8248 14.9501 28.8661 14.9674C28.9064 14.9213 28.9515 14.881 29.0005 14.8464C29.0024 14.8454 29.0043 14.8435 29.0062 14.8426C28.965 14.687 28.9515 14.5248 28.9688 14.3645C28.8363 14.3923 28.7067 14.4365 28.5925 14.5142C28.5186 14.5632 28.4514 14.6342 28.4014 14.7149ZM32.5074 14.9376C32.5496 14.9443 32.5928 14.9491 32.636 14.9539C32.6792 14.8848 32.707 14.8051 32.7022 14.7178C32.7022 14.7158 32.7022 14.713 32.7022 14.711C32.6466 14.7955 32.5851 14.8742 32.5074 14.9376ZM29.0946 14.8733C29.0994 14.8906 29.1051 14.9078 29.1118 14.9251C29.1099 14.9059 29.108 14.8867 29.107 14.8666C29.1022 14.8685 29.0984 14.8704 29.0946 14.8733ZM32.1416 14.8598C32.1733 14.8685 32.2059 14.8771 32.2395 14.8858C32.2933 14.8992 32.347 14.9107 32.4018 14.9203C32.4574 14.76 32.5112 14.5987 32.563 14.4365C32.5448 14.4182 32.5266 14.401 32.5083 14.3856C32.3912 14.5498 32.2712 14.7091 32.1416 14.8598ZM33.8936 14.209C33.8533 14.4461 33.7813 14.6774 33.6786 14.8944C33.8542 14.8253 34.0194 14.735 34.1691 14.6112C34.293 14.5085 34.3563 14.4106 34.363 14.3117C34.3726 14.161 34.2459 14.0323 34.124 13.9632C34.101 13.9498 34.0779 13.9382 34.0539 13.9277C34.052 13.9392 34.0491 13.9507 34.0462 13.9613C34.0203 14.0534 33.9666 14.1379 33.8936 14.209ZM33.3771 14.4134C33.4395 14.5728 33.4434 14.7446 33.3848 14.8886C33.4635 14.8512 33.525 14.8013 33.5691 14.7389C33.6469 14.6285 33.6594 14.4979 33.6334 14.3654C33.6027 14.376 33.572 14.3846 33.5394 14.3923C33.4856 14.4038 33.4309 14.4106 33.3771 14.4134ZM30.2293 14.857C30.403 14.8944 30.5816 14.8838 30.7477 14.808C30.8379 14.7667 30.9195 14.7062 30.9906 14.6323C30.9925 14.5882 30.9963 14.5459 31.003 14.5066C30.9982 14.4941 30.9944 14.4806 30.9906 14.4672C30.9858 14.4509 30.9819 14.4346 30.979 14.4182C30.9032 14.4442 30.8274 14.4682 30.7506 14.4902C30.6238 14.6755 30.4722 14.7917 30.2936 14.8435C30.2715 14.8483 30.2504 14.8531 30.2293 14.857ZM32.6178 14.5008C32.5813 14.615 32.5438 14.7283 32.5045 14.8416C32.5717 14.7754 32.6264 14.6957 32.6782 14.6083C32.6638 14.5699 32.6427 14.5344 32.6178 14.5008ZM31.34 14.28C31.3842 14.3664 31.4398 14.4451 31.507 14.5142C31.6434 14.6534 31.8267 14.76 32.0648 14.8368C32.2021 14.6803 32.3278 14.5133 32.4488 14.3414C32.4248 14.3242 32.4018 14.3098 32.3816 14.2982C32.2664 14.2666 32.156 14.2214 32.06 14.161C31.9477 14.1283 31.8315 14.1082 31.7144 14.1024C31.701 14.1101 31.6866 14.1168 31.6722 14.1245C31.5637 14.1802 31.4523 14.232 31.34 14.28ZM29.0456 14.3501C29.0283 14.4998 29.0389 14.6525 29.0754 14.8003C29.084 14.7955 29.0936 14.7898 29.1022 14.785C29.0955 14.641 29.0974 14.4902 29.1157 14.3395C29.0917 14.3434 29.0686 14.3462 29.0456 14.3501ZM30.0229 14.7907C30.1074 14.8003 30.1918 14.7955 30.2725 14.7725C30.4098 14.7331 30.5307 14.6506 30.6354 14.521C30.4443 14.5709 30.2504 14.6102 30.0546 14.639C30.044 14.641 30.0334 14.6419 30.0238 14.6438C30.0037 14.6832 29.9835 14.7235 29.9624 14.7629C29.9826 14.7715 30.0027 14.7811 30.0229 14.7907ZM29.1896 14.3318C29.1723 14.473 29.1685 14.615 29.1733 14.7504C29.2894 14.6986 29.4123 14.665 29.539 14.64C29.5275 14.6294 29.516 14.6179 29.5045 14.6064C29.4258 14.5267 29.3586 14.4298 29.3058 14.3203C29.2683 14.3242 29.229 14.327 29.1896 14.3318ZM29.8078 14.6717C29.8376 14.6918 29.8674 14.7101 29.8971 14.7274C29.9096 14.7034 29.9221 14.6794 29.9346 14.6544C29.9211 14.6563 29.9077 14.6582 29.8933 14.6602C29.8654 14.664 29.8366 14.6678 29.8078 14.6717ZM31.123 14.5872C31.1461 14.6237 31.173 14.6582 31.2027 14.689C31.2018 14.6813 31.2008 14.6736 31.1989 14.6669C31.1912 14.6189 31.1787 14.5718 31.1643 14.5258C31.1518 14.5459 31.1374 14.567 31.123 14.5872ZM27.9195 13.8365C27.9205 14.0554 27.9906 14.2733 28.1221 14.4499C28.1816 14.5286 28.2536 14.6016 28.3419 14.6717C28.3966 14.5834 28.4706 14.5075 28.5502 14.4538C28.6779 14.3674 28.8248 14.3184 28.9774 14.2886C28.988 14.2224 29.0043 14.1571 29.0264 14.0938C28.6501 14.0506 28.2786 13.9642 27.9195 13.8365ZM29.4373 14.3117C29.517 14.4221 29.6149 14.5238 29.7234 14.6093C29.7771 14.6016 29.8318 14.5949 29.8856 14.5872C29.9154 14.5834 29.9461 14.5795 29.9758 14.5757C29.9998 14.5277 30.0229 14.4787 30.0469 14.4317C30.0546 14.4154 30.0632 14.399 30.0709 14.3827C29.9739 14.3674 29.8885 14.3242 29.8069 14.2723C29.684 14.2934 29.5592 14.304 29.4373 14.3117ZM30.1477 14.3894C30.1352 14.4144 30.1237 14.4394 30.1112 14.4643C30.0949 14.4979 30.0786 14.5306 30.0622 14.5642C30.2792 14.5325 30.4933 14.4864 30.7035 14.4269C30.7928 14.2896 30.8696 14.1139 30.9349 13.8979L30.9637 13.8C31.0107 13.6397 31.0587 13.4765 31.124 13.3258C31.1144 13.3085 31.1048 13.2912 31.0942 13.2739C31.0376 13.3056 30.9819 13.3392 30.9272 13.3766C30.9205 13.3853 30.9138 13.393 30.907 13.4016C30.909 13.5379 30.8754 13.681 30.8274 13.801C30.7054 14.1024 30.452 14.3894 30.1477 14.3894ZM32.6446 14.4173C32.6744 14.4518 32.7013 14.4893 32.7234 14.5306C32.7358 14.5075 32.7493 14.4835 32.7618 14.4595C32.781 14.425 32.7992 14.3894 32.8194 14.3549C32.7896 14.3549 32.7598 14.3539 32.7301 14.352C32.709 14.351 32.6878 14.3491 32.6667 14.3482C32.659 14.3712 32.6523 14.3942 32.6446 14.4173ZM31.0779 14.4989C31.0798 14.5046 31.0827 14.5094 31.0846 14.5142C31.1029 14.4883 31.1192 14.4605 31.1346 14.4326C31.1278 14.4134 31.1202 14.3933 31.1134 14.3741C31.0971 14.4144 31.0856 14.4566 31.0779 14.4989ZM30.9944 13.9546C30.9406 14.1264 30.8792 14.2733 30.8082 14.3962C30.8619 14.3798 30.9157 14.3626 30.9685 14.3443C30.9627 14.2541 30.9781 14.1648 31.0107 14.0813C31.0002 14.041 30.9915 13.9978 30.9944 13.9546ZM32.5611 14.3357C32.5698 14.3434 32.5784 14.3501 32.587 14.3578C32.589 14.352 32.5909 14.3453 32.5928 14.3395C32.5822 14.3386 32.5717 14.3366 32.5611 14.3357ZM33.308 14.2781C33.3214 14.2992 33.3339 14.3203 33.3445 14.3424C33.4059 14.3405 33.4654 14.3338 33.524 14.3213C33.5557 14.3146 33.5864 14.3059 33.6162 14.2944C33.5998 14.2406 33.5778 14.1869 33.5518 14.135C33.4837 14.1946 33.4021 14.2426 33.308 14.2781ZM33.1237 14.329C33.1707 14.3347 33.2158 14.3395 33.261 14.3414C33.2533 14.328 33.2446 14.3155 33.236 14.3021C33.2005 14.3126 33.163 14.3213 33.1237 14.329ZM31.052 14.208C31.0443 14.2445 31.0414 14.281 31.0414 14.3184C31.0482 14.3155 31.0558 14.3136 31.0626 14.3107C31.0674 14.3002 31.0731 14.2906 31.0789 14.28C31.0693 14.256 31.0606 14.232 31.052 14.208ZM30.3272 14.0438C30.2763 14.1322 30.2293 14.2234 30.1842 14.3146C30.4386 14.2925 30.6526 14.039 30.7602 13.7731C30.7947 13.6886 30.8206 13.5907 30.8312 13.4938C30.7275 13.6166 30.6171 13.7366 30.4894 13.8336C30.4846 13.8442 30.4789 13.8547 30.4741 13.8643C30.4376 13.9306 30.3886 13.991 30.3272 14.0438ZM29.9096 14.2493C29.9672 14.281 30.0277 14.303 30.093 14.3117C30.0968 14.3117 30.0997 14.3126 30.1035 14.3126C30.1323 14.255 30.1611 14.1974 30.1918 14.1398C30.1582 14.159 30.1227 14.1763 30.0862 14.1917C30.0277 14.2157 29.9691 14.2349 29.9096 14.2493ZM32.7003 14.2397C32.756 14.257 32.8107 14.2704 32.8626 14.2819C32.9038 14.2147 32.948 14.1494 33.0008 14.0909C33.0046 14.0861 33.0085 14.0822 33.0123 14.0774C32.9499 14.0323 32.8798 13.991 32.8002 13.9526C32.7915 13.9651 32.7838 13.9776 32.7752 13.9901C32.7512 14.0726 32.7262 14.1562 32.7003 14.2397ZM33.0699 14.1216C33.0651 14.1274 33.0594 14.1331 33.0546 14.1379C33.0162 14.1802 32.9826 14.2272 32.9509 14.2771C33.0296 14.2714 33.1102 14.2598 33.189 14.2397C33.1544 14.1974 33.115 14.159 33.0699 14.1216ZM29.1022 14.1014C29.0821 14.1581 29.0667 14.2157 29.0562 14.2752C29.0792 14.2714 29.1013 14.2685 29.1243 14.2656C29.132 14.2128 29.1426 14.159 29.1541 14.1062C29.1368 14.1053 29.1195 14.1034 29.1022 14.1014ZM31.2267 14.2128C31.2066 14.2301 31.1893 14.2483 31.1739 14.2694C31.1874 14.2637 31.2008 14.2589 31.2142 14.2531C31.2181 14.2397 31.2229 14.2262 31.2267 14.2128ZM33.6066 14.0822C33.6373 14.1418 33.6642 14.2032 33.6834 14.2666C33.7362 14.2406 33.7842 14.209 33.8254 14.1725C33.8331 14.1235 33.8398 14.0736 33.8446 14.0237C33.8274 14.0323 33.8091 14.0381 33.7918 14.04C33.7563 14.0429 33.7256 14.0275 33.7045 13.9968L33.6939 13.9824L33.716 13.9152C33.692 13.969 33.6603 14.0198 33.619 14.0669C33.6152 14.0726 33.6114 14.0774 33.6066 14.0822ZM29.227 14.1158C29.2165 14.1629 29.2069 14.2099 29.1992 14.2579C29.2242 14.255 29.2491 14.2531 29.2741 14.2512C29.2568 14.207 29.2405 14.1619 29.227 14.1158ZM32.4104 14.231C32.443 14.2397 32.4766 14.2474 32.5102 14.2531C32.5112 14.2522 32.5122 14.2502 32.5131 14.2493C32.3518 14.1792 32.204 14.0726 32.1291 13.9066C32.1138 13.873 32.1022 13.8384 32.0946 13.8029C32.0533 13.8566 32.0014 13.9075 31.9381 13.9574C31.9803 14.0093 32.0312 14.0544 32.0898 14.0928C32.1944 14.1245 32.2971 14.1677 32.3941 14.2205C32.3998 14.2243 32.4046 14.2272 32.4104 14.231ZM29.3182 14.1178C29.3384 14.1581 29.3614 14.1994 29.3893 14.2416L29.396 14.2406C29.5026 14.233 29.612 14.2262 29.7186 14.2109C29.6974 14.1955 29.6773 14.1802 29.6562 14.1648C29.635 14.1494 29.6139 14.1331 29.5938 14.1178C29.5064 14.1226 29.4152 14.1226 29.3182 14.1178ZM32.6254 14.2147C32.6274 14.2157 32.6293 14.2157 32.6312 14.2166C32.6331 14.2099 32.635 14.2042 32.637 14.1974C32.6331 14.2032 32.6293 14.209 32.6254 14.2147ZM33.1227 14.0707C33.1765 14.1158 33.2235 14.1648 33.2638 14.2166C33.357 14.184 33.4434 14.137 33.5154 14.0698C33.4856 14.0189 33.453 13.9709 33.4174 13.9258C33.4136 13.921 33.4088 13.9142 33.403 13.9075C33.3013 13.944 33.2053 13.9987 33.1227 14.0707ZM31.3045 14.2022C31.3064 14.2061 31.3074 14.209 31.3093 14.2128C31.3909 14.1782 31.4715 14.1418 31.5512 14.1024C31.4571 14.1091 31.3794 14.1264 31.316 14.1552C31.3122 14.1715 31.3083 14.1878 31.3045 14.2022ZM31.0885 14.088C31.101 14.1274 31.1144 14.1677 31.1288 14.207C31.1451 14.1878 31.1624 14.1706 31.1806 14.1552C31.1874 14.1494 31.195 14.1437 31.2018 14.1379C31.1835 14.0784 31.1701 14.017 31.1624 13.9555C31.1336 13.9978 31.1086 14.0419 31.0885 14.088ZM29.7061 14.111C29.7445 14.1398 29.7829 14.1686 29.8213 14.1946C29.9029 14.1782 29.9816 14.1562 30.0574 14.1245C30.139 14.0909 30.211 14.0477 30.2706 13.9968C30.2792 13.9824 30.2878 13.968 30.2965 13.9536C30.1285 14.0381 29.9326 14.0899 29.7061 14.111ZM32.1608 13.7606C32.1675 13.8 32.179 13.8394 32.1963 13.8768C32.2635 14.0275 32.4027 14.1235 32.5554 14.1878C32.6072 14.112 32.6581 14.0352 32.709 13.9584C32.7128 13.944 32.7176 13.9306 32.7214 13.9162C32.708 13.9104 32.6936 13.9046 32.6792 13.8989C32.5122 13.8336 32.3384 13.7866 32.1608 13.7606ZM33.9234 13.9584C33.9205 13.9978 33.9166 14.0362 33.9128 14.0755C33.9416 14.0342 33.9627 13.9891 33.9762 13.9421C33.98 13.9286 33.9829 13.9152 33.9858 13.9008C33.979 13.8989 33.9723 13.897 33.9666 13.8941L33.9646 13.8979C33.9531 13.9181 33.9397 13.9392 33.9234 13.9584ZM31.339 13.7818C31.341 13.8058 31.3429 13.8288 31.3438 13.8528C31.3467 13.9267 31.3419 13.9997 31.3323 14.0717C31.4034 14.0467 31.4878 14.0323 31.5858 14.0285C31.6232 14.0275 31.6606 14.0275 31.6981 14.0285C31.7451 14.0026 31.7922 13.9728 31.8382 13.9411C31.8066 13.8902 31.7826 13.8346 31.7672 13.7741C31.7643 13.7606 31.7614 13.7482 31.7586 13.7347C31.6174 13.7376 31.4763 13.753 31.339 13.7818ZM31.2296 13.873C31.2334 13.9373 31.243 14.0016 31.2594 14.065C31.2699 13.9968 31.2738 13.9267 31.2709 13.8557C31.2709 13.848 31.2699 13.8394 31.2699 13.8317C31.2555 13.8451 31.2421 13.8586 31.2296 13.873ZM31.8238 14.0381C31.8584 14.0419 31.892 14.0477 31.9266 14.0534C31.9102 14.0371 31.8939 14.0189 31.8795 14.0006C31.8622 14.0131 31.843 14.0256 31.8238 14.0381ZM29.2846 14.0429C29.3566 14.0467 29.4248 14.0486 29.492 14.0486C29.4248 14.0064 29.3547 13.9747 29.2779 13.9613C29.275 13.9613 29.2731 13.9603 29.2702 13.9603C29.2693 13.9642 29.2674 13.968 29.2664 13.9718C29.2702 13.993 29.275 14.0131 29.2798 14.0333C29.2818 14.0371 29.2837 14.04 29.2846 14.0429ZM29.2952 13.8902C29.4152 13.9123 29.5179 13.9747 29.6158 14.0448C29.9259 14.0275 30.1774 13.9536 30.3781 13.8221C30.379 13.8211 30.38 13.8202 30.3819 13.8202C30.405 13.7866 30.428 13.7539 30.453 13.7222C30.4885 13.6032 30.4923 13.4736 30.4952 13.3382C30.4981 13.223 30.501 13.1059 30.5259 12.9936C30.4453 12.9763 30.3589 12.9782 30.2802 12.9859C30.1909 13.0176 30.1035 13.056 30.02 13.0992C29.8472 13.1894 29.7013 13.2979 29.5861 13.4198C29.4536 13.561 29.3605 13.7213 29.2952 13.8902ZM29.1301 14.0314C29.1445 14.0323 29.1579 14.0342 29.1723 14.0352C29.1771 14.0179 29.1819 14.0006 29.1867 13.9843C29.1848 13.9786 29.1838 13.9738 29.1819 13.968C29.1771 13.9699 29.1733 13.9728 29.1685 13.9757C29.1522 13.9882 29.1397 14.0093 29.1301 14.0314ZM32.8405 13.8912C32.924 13.9325 32.9989 13.9766 33.0651 14.0246C33.1486 13.9488 33.2466 13.8902 33.3522 13.8499C33.2696 13.7664 33.1362 13.6675 33.0056 13.7222C32.9326 13.753 32.8818 13.8288 32.8405 13.8912ZM27.9224 13.7597C27.9291 13.7626 27.9358 13.7645 27.9416 13.7664C28.3006 13.8941 28.675 13.9805 29.0533 14.0227C29.0542 14.0218 29.0542 14.0198 29.0552 14.0189C29.0696 13.9834 29.0888 13.943 29.1253 13.9162C29.1378 13.9066 29.1512 13.8998 29.1666 13.8941C29.1627 13.8701 29.1598 13.8451 29.1589 13.8211C29.157 13.7818 29.1589 13.7424 29.1646 13.703C29.1627 13.561 29.1819 13.4314 29.2213 13.3162C29.2885 13.1203 29.4277 12.9562 29.6034 12.841C29.5429 12.8381 29.4834 12.8333 29.4238 12.8294C28.8747 12.9341 28.388 13.1395 28.0002 13.4342C27.9896 13.4602 27.979 13.4861 27.9704 13.512C27.9445 13.5926 27.9282 13.6762 27.9224 13.7597ZM33.4798 13.8854C33.5115 13.9258 33.5413 13.9699 33.5691 14.015C33.6094 13.9661 33.6402 13.9133 33.6622 13.8576C33.5998 13.8605 33.5394 13.8701 33.4798 13.8854ZM33.7765 13.9661C33.7794 13.967 33.7832 13.967 33.7861 13.967C33.8053 13.9661 33.8293 13.9498 33.8523 13.9277C33.8533 13.9075 33.8542 13.8874 33.8552 13.8682C33.8408 13.8653 33.8254 13.8634 33.811 13.8624L33.7765 13.9661ZM31.1547 13.8365C31.1211 13.8547 31.0923 13.8787 31.0779 13.9114C31.0702 13.9277 31.0674 13.9469 31.0664 13.9651C31.0914 13.9219 31.1211 13.8816 31.1547 13.8432C31.1547 13.8422 31.1547 13.8394 31.1547 13.8365ZM31.8325 13.7338C31.8344 13.7405 31.8354 13.7482 31.8373 13.7549C31.8498 13.8058 31.8699 13.8528 31.8958 13.896C31.9525 13.8509 32.0034 13.8 32.0446 13.7453C31.9736 13.7386 31.9035 13.7347 31.8325 13.7338ZM31.1682 13.4131C31.1163 13.5437 31.075 13.6829 31.0347 13.8202L31.0232 13.8605C31.0539 13.8096 31.1038 13.777 31.1576 13.7549C31.1586 13.7366 31.1605 13.7174 31.1624 13.6992C31.1701 13.6339 31.1845 13.5686 31.2046 13.5062C31.1931 13.4746 31.1816 13.4438 31.1682 13.4131ZM32.1656 13.6867C32.3509 13.7136 32.5323 13.7626 32.7061 13.8307C32.7186 13.8355 32.7301 13.8403 32.7416 13.8451C32.7464 13.8288 32.7512 13.8115 32.756 13.7952C32.7675 13.753 32.7771 13.7136 32.7637 13.6829C32.7435 13.6397 32.6811 13.6262 32.6216 13.6176C32.5448 13.607 32.4661 13.5965 32.3854 13.5869C32.3778 13.5898 32.3701 13.5926 32.3634 13.5955L32.3595 13.584C32.3077 13.5782 32.2549 13.5734 32.203 13.5706C32.1944 13.6109 32.1829 13.6493 32.1656 13.6867ZM33.0834 13.6339C33.2264 13.6339 33.3541 13.7453 33.428 13.825C33.5115 13.801 33.5979 13.7866 33.6853 13.7846C33.7362 13.5802 33.6824 13.3488 33.5653 13.1645C33.4635 13.0925 33.3541 13.0339 33.2427 12.985C33.2331 12.983 33.2245 12.9811 33.2158 12.9802C33.1621 13.0838 33.0843 13.1808 32.9845 13.2653C32.8453 13.3843 32.683 13.4659 32.5266 13.5322C32.5621 13.537 32.5966 13.5418 32.6312 13.5466C32.7099 13.5571 32.7954 13.5792 32.8299 13.6541C32.8472 13.6915 32.8453 13.7309 32.8376 13.7702C32.8741 13.7242 32.9192 13.681 32.9768 13.657C33.0133 13.6397 33.0488 13.6339 33.0834 13.6339ZM29.2386 13.7078C29.2395 13.7443 29.2414 13.7818 29.2453 13.8192C29.3115 13.6579 29.4056 13.5053 29.5323 13.3699C29.6533 13.2413 29.805 13.129 29.9845 13.0349C29.8117 13.0771 29.6686 13.1395 29.5525 13.224C29.3806 13.3488 29.2664 13.5264 29.2386 13.7078ZM33.9186 13.5485C33.9195 13.5629 33.9214 13.5763 33.9224 13.5898C33.9282 13.6598 33.9301 13.7299 33.9291 13.8L33.9762 13.703C33.9646 13.6522 33.9445 13.6003 33.9186 13.5485ZM33.8331 13.7914C33.8408 13.7923 33.8485 13.7933 33.8562 13.7942C33.8562 13.7702 33.8562 13.7472 33.8552 13.7232L33.8331 13.7914ZM33.7045 13.2768C33.7707 13.4381 33.7957 13.6166 33.7592 13.7818L33.8418 13.5283C33.837 13.4851 33.8293 13.44 33.8168 13.3958C33.8043 13.3805 33.7918 13.3661 33.7784 13.3507C33.7554 13.3258 33.7304 13.3008 33.7045 13.2768ZM31.244 13.6474C31.2402 13.6675 31.2373 13.6877 31.2344 13.7088C31.2334 13.7165 31.2325 13.7242 31.2315 13.7318C31.2392 13.7299 31.2469 13.728 31.2546 13.7261C31.2555 13.7261 31.2565 13.7251 31.2574 13.7251C31.2546 13.6982 31.2498 13.6723 31.244 13.6474ZM27.8917 13.5245C27.8466 13.5667 27.7986 13.6291 27.8216 13.6838C27.8283 13.6992 27.8389 13.7126 27.8533 13.7232C27.859 13.656 27.8715 13.5898 27.8917 13.5245ZM31.7509 13.5926C31.6856 13.6051 31.6222 13.6224 31.5589 13.6454C31.5301 13.656 31.5013 13.6694 31.4734 13.6838C31.5646 13.6714 31.6568 13.6637 31.749 13.6618C31.749 13.6387 31.749 13.6157 31.7509 13.5926ZM31.8229 13.6608C31.9083 13.6618 31.9938 13.6666 32.0792 13.6762C32.0782 13.6397 32.0802 13.6032 32.084 13.5667C31.9976 13.5658 31.9102 13.5696 31.8248 13.5811C31.8219 13.607 31.8219 13.6339 31.8229 13.6608ZM31.2814 13.5082C31.2978 13.5571 31.3102 13.607 31.3208 13.6579L31.34 13.631C31.4149 13.5283 31.4264 13.4016 31.3957 13.2806C31.3486 13.3517 31.3093 13.4275 31.2814 13.5082ZM33.9454 13.4496C33.9781 13.5014 34.004 13.5542 34.0232 13.608L34.1605 13.3258C34.2094 13.225 34.2651 13.1117 34.2651 12.9955C34.267 12.6432 33.8139 12.4752 33.62 12.4186C33.499 12.384 33.3627 12.3504 33.2235 12.3408C33.2715 12.4368 33.2974 12.5366 33.2994 12.6374C33.3003 12.6922 33.2946 12.7469 33.2821 12.8016C33.3262 12.8275 33.3685 12.8563 33.4088 12.887C33.4597 12.8899 33.5115 12.8938 33.5624 12.8976C33.7141 12.9082 33.9224 12.9398 33.9867 13.1069C34.0222 13.201 33.9963 13.2989 33.9627 13.3997L33.9454 13.4496ZM30.596 13.0138C30.5739 13.1165 30.571 13.2259 30.5682 13.3392C30.5662 13.4275 30.5634 13.5168 30.5518 13.6042C30.6392 13.5091 30.7333 13.4266 30.8322 13.3546C30.8216 13.2384 30.7784 13.1328 30.6853 13.0627C30.6584 13.0426 30.6277 13.0262 30.596 13.0138ZM31.4485 13.2077C31.4917 13.3296 31.4974 13.4621 31.4504 13.5792C31.5646 13.5322 31.6866 13.4765 31.795 13.4035C31.8325 13.3104 31.8901 13.224 31.9611 13.1491C31.9035 13.0992 31.8354 13.057 31.7643 13.0214C31.7048 13.0349 31.6424 13.0512 31.58 13.0704C31.532 13.1126 31.4878 13.1587 31.4485 13.2077ZM31.7624 13.511C31.7576 13.5139 31.7528 13.5168 31.749 13.5187C31.7528 13.5178 31.7576 13.5168 31.7614 13.5168C31.7624 13.5149 31.7624 13.513 31.7624 13.511ZM32.2088 13.4986C32.2645 13.5024 32.3211 13.5072 32.3758 13.513C32.563 13.4419 32.7694 13.3526 32.9374 13.2096C33.0219 13.1376 33.0901 13.0541 33.139 12.9658C32.899 12.9264 32.6101 12.9034 32.347 12.9907C32.3259 13.0387 32.3067 13.0867 32.2866 13.1366C32.2539 13.2192 32.2213 13.3027 32.1973 13.3853C32.204 13.4141 32.2078 13.4438 32.2088 13.4746C32.2088 13.4832 32.2088 13.4909 32.2088 13.4986ZM31.8546 13.4525C31.8488 13.4698 31.843 13.487 31.8382 13.5053C31.9237 13.4947 32.0091 13.4918 32.0946 13.4938C32.1013 13.4573 32.1099 13.4208 32.1205 13.3853C32.108 13.3402 32.0869 13.2989 32.06 13.2605C32.0024 13.3354 31.9323 13.3987 31.8546 13.4525ZM29.7416 12.8448C29.5342 12.9504 29.3653 13.1242 29.2914 13.3402C29.2818 13.368 29.2731 13.3978 29.2664 13.4275C29.3259 13.3286 29.4085 13.2384 29.5093 13.1654C29.6869 13.0368 29.9192 12.9562 30.2178 12.9197C30.2331 12.9178 30.2485 12.9158 30.2638 12.9149C30.3675 12.8784 30.4741 12.8496 30.5826 12.8294C30.5845 12.8266 30.5854 12.8237 30.5874 12.8208C30.5883 12.8198 30.5893 12.8179 30.5893 12.817C30.548 12.7987 30.5058 12.7824 30.4616 12.7699C30.4357 12.7622 30.4107 12.7565 30.3848 12.7517C30.3483 12.7507 30.3118 12.7507 30.2763 12.7507C30.0958 12.8246 29.8952 12.8438 29.7416 12.8448ZM31.2056 13.3238C31.219 13.3498 31.2315 13.3766 31.243 13.4045C31.2757 13.3296 31.317 13.2586 31.3659 13.1933C31.3602 13.1798 31.3534 13.1664 31.3467 13.1539C31.3246 13.1626 31.3016 13.1722 31.2795 13.1827C31.2526 13.2278 31.2286 13.2749 31.2056 13.3238ZM33.885 13.3622C33.8878 13.3661 33.8907 13.3699 33.8936 13.3738C33.9224 13.2864 33.9454 13.2019 33.9186 13.1309C33.8696 13.0042 33.6891 12.9773 33.5576 12.9686C33.5384 12.9677 33.5182 12.9658 33.499 12.9648C33.5067 12.9725 33.5144 12.9802 33.5211 12.9878C33.6392 13.0358 33.7486 13.1069 33.8197 13.2173C33.8485 13.2634 33.8696 13.3123 33.885 13.3622ZM30.6152 12.9427C30.6555 12.9571 30.6939 12.9773 30.7304 13.0051C30.8274 13.079 30.8792 13.1827 30.8984 13.2979C30.9368 13.2509 30.9752 13.2029 31.0155 13.1568C30.931 13.0474 30.8293 12.9533 30.715 12.8822C30.6882 12.8861 30.6613 12.8899 30.6344 12.8947C30.6267 12.9101 30.621 12.9264 30.6152 12.9427ZM29.0437 12.8093C28.9122 12.8093 28.7826 12.8208 28.6578 12.8563C28.4206 12.9245 28.2142 13.081 28.0808 13.2874C28.4216 13.0541 28.7922 12.9043 29.156 12.8122C29.1186 12.8102 29.0811 12.8093 29.0437 12.8093ZM32.0139 13.201C31.9899 13.2259 31.9678 13.2518 31.9477 13.2797C31.9717 13.2547 31.9938 13.2288 32.0139 13.201ZM32.1042 13.1962C32.1234 13.2211 32.1406 13.248 32.155 13.2758C32.1742 13.2202 32.1954 13.1645 32.2174 13.1098C32.228 13.0829 32.2395 13.056 32.2501 13.0291C32.2174 13.0445 32.1858 13.0618 32.1541 13.0829C32.1426 13.1222 32.1253 13.1606 32.1042 13.1962ZM31.1595 13.2394C31.1605 13.2413 31.1614 13.2422 31.1624 13.2442C31.1643 13.2413 31.1653 13.2384 31.1672 13.2355C31.1643 13.2374 31.1614 13.2384 31.1595 13.2394ZM31.1077 13.1606C31.1115 13.1664 31.1154 13.1722 31.1192 13.1779C31.1547 13.1597 31.1912 13.1424 31.2277 13.1261C31.244 13.1002 31.2603 13.0752 31.2786 13.0502C31.269 13.0378 31.2584 13.0253 31.2469 13.0138C31.1998 13.0598 31.1538 13.1088 31.1077 13.1606ZM31.4149 13.128C31.4158 13.129 31.4158 13.1299 31.4168 13.1309C31.4187 13.129 31.4206 13.127 31.4216 13.1251C31.4187 13.1261 31.4168 13.127 31.4149 13.128ZM30.8264 12.8707C30.9147 12.936 30.9944 13.0138 31.0635 13.1011C31.1058 13.0541 31.149 13.008 31.195 12.9638C31.1874 12.9571 31.1787 12.9504 31.1701 12.9446C31.1278 12.9139 31.0827 12.887 31.0357 12.865C30.9656 12.863 30.8965 12.865 30.8264 12.8707ZM31.8747 13.0003C31.9246 13.0301 31.9717 13.0627 32.0139 13.1002C32.0389 13.0781 32.0658 13.057 32.0926 13.0378C32.0994 13.0138 32.1051 12.9888 32.109 12.9638C32.059 12.9696 32.0091 12.9773 31.9592 12.9859C31.9314 12.9898 31.9035 12.9946 31.8747 13.0003ZM31.3707 13.0522C31.3736 13.056 31.3755 13.0598 31.3784 13.0637C31.4341 13.0426 31.4898 13.0234 31.5445 13.007C31.5646 12.9907 31.5858 12.9744 31.6069 12.96C31.604 12.959 31.6021 12.9581 31.5992 12.9581C31.5646 12.9475 31.5301 12.9379 31.4946 12.9283C31.4485 12.9658 31.4072 13.007 31.3707 13.0522ZM31.3016 12.9648C31.3093 12.9734 31.3179 12.983 31.3256 12.9917C31.3506 12.9619 31.3774 12.9341 31.4062 12.9072C31.3976 12.9053 31.388 12.9034 31.3794 12.9014C31.3525 12.9226 31.3266 12.9427 31.3016 12.9648ZM32.1848 12.9542C32.1838 12.9638 32.1819 12.9734 32.181 12.983C32.1992 12.9734 32.2174 12.9648 32.2357 12.9562C32.2424 12.9533 32.2491 12.9504 32.2558 12.9475C32.2318 12.9504 32.2078 12.9523 32.1848 12.9542ZM31.5714 12.8736C31.5877 12.8784 31.604 12.8832 31.6203 12.888C31.6712 12.9034 31.7221 12.9235 31.773 12.9466C31.8334 12.9331 31.891 12.9216 31.9467 12.913C32.0024 12.9034 32.059 12.8957 32.1147 12.889C32.1157 12.8486 32.1118 12.8093 32.1032 12.7709C32.1003 12.7584 32.0965 12.745 32.0926 12.7315C31.8853 12.7363 31.7134 12.7834 31.5714 12.8736ZM30.5163 12.9168C30.5259 12.9187 30.5355 12.9206 30.5451 12.9226C30.5461 12.9178 30.548 12.9139 30.549 12.9101C30.5384 12.912 30.5269 12.9149 30.5163 12.9168ZM31.1998 12.8755C31.2046 12.8784 31.2094 12.8822 31.2142 12.8861C31.2267 12.8947 31.2382 12.9043 31.2498 12.9149C31.2603 12.9053 31.2718 12.8957 31.2834 12.887C31.2546 12.8822 31.2267 12.8784 31.1998 12.8755ZM32.1694 12.7315C32.1714 12.7392 32.1733 12.7469 32.1752 12.7546C32.1848 12.7958 32.1886 12.8381 32.1886 12.8803C32.2328 12.8755 32.277 12.8717 32.3221 12.8688C32.3413 12.8275 32.3624 12.7872 32.3835 12.7488C32.3086 12.7392 32.2376 12.7334 32.1694 12.7315ZM33.26 12.8765C33.2629 12.8765 33.2658 12.8765 33.2686 12.8774C33.2658 12.8755 33.2638 12.8746 33.261 12.8726C33.261 12.8736 33.261 12.8755 33.26 12.8765ZM33.1563 12.8707C33.165 12.8707 33.1746 12.8717 33.1842 12.8726C33.189 12.8602 33.1938 12.8477 33.1976 12.8362C33.0142 12.7402 32.7896 12.6816 32.5256 12.6624C32.5179 12.673 32.5112 12.6835 32.5035 12.695C32.5803 12.7085 32.6523 12.7248 32.7195 12.7411C32.8558 12.7728 33.0056 12.8141 33.1563 12.8707ZM32.4613 12.7613C32.4421 12.7949 32.4238 12.8294 32.4056 12.865C32.5669 12.8563 32.7291 12.8563 32.8904 12.8602C32.8251 12.8419 32.7618 12.8256 32.7013 12.8102C32.6178 12.7901 32.5371 12.7738 32.4613 12.7613ZM31.4629 12.8448C31.4677 12.8458 31.4725 12.8467 31.4782 12.8486C31.4792 12.8477 31.4792 12.8477 31.4802 12.8467C31.5157 12.8208 31.5522 12.7978 31.5896 12.7776C31.5627 12.7891 31.5358 12.8026 31.5099 12.817C31.4936 12.8266 31.4782 12.8362 31.4629 12.8448ZM31.053 12.793C31.1566 12.7958 31.2594 12.8074 31.3621 12.8256C31.3976 12.7997 31.435 12.7766 31.4744 12.7546C31.6482 12.6586 31.8421 12.6154 32.0158 12.5962C31.9957 12.575 31.9707 12.5549 31.941 12.5386C31.8565 12.4915 31.7557 12.4838 31.651 12.48C31.3515 12.4675 30.98 12.5021 30.763 12.7075C30.8619 12.7248 30.9608 12.7507 31.053 12.793ZM30.6939 12.7853C30.7064 12.792 30.7179 12.7987 30.7304 12.8064C30.765 12.8026 30.8005 12.7987 30.835 12.7968C30.7918 12.7862 30.7477 12.7786 30.7035 12.7718C30.7006 12.7766 30.6968 12.7805 30.6939 12.7853ZM32.5774 12.5923C32.8242 12.6154 33.0373 12.672 33.2149 12.7632C33.2235 12.721 33.2274 12.6787 33.2264 12.6374C33.2245 12.5357 33.1938 12.433 33.139 12.337C33.0229 12.3379 32.9067 12.3581 32.8011 12.4118C32.7147 12.456 32.6408 12.5174 32.5774 12.5923ZM30.4146 12.6778C30.4981 12.6797 30.5854 12.6845 30.6728 12.6941C30.9013 12.4358 31.3208 12.3926 31.653 12.407C31.7624 12.4118 31.8766 12.4205 31.9746 12.4752C32.0245 12.503 32.0677 12.5414 32.1013 12.5885C32.1646 12.5837 32.2242 12.5818 32.2779 12.5818C32.3499 12.5808 32.421 12.5827 32.4882 12.5866C32.564 12.4867 32.6542 12.4042 32.7685 12.3466C32.8712 12.2947 32.9816 12.2707 33.093 12.2659C33.0296 12.1776 32.9461 12.096 32.8443 12.0278C32.5467 11.8262 32.1406 11.7408 31.6357 11.7734C31.221 11.8003 30.9387 11.9222 30.7976 12.1344C30.763 12.1862 30.7381 12.2419 30.7102 12.3014C30.6834 12.361 30.6546 12.4224 30.6171 12.479C30.5643 12.5616 30.4933 12.6269 30.4146 12.6778ZM32.1589 12.6576C32.2491 12.6595 32.3384 12.6682 32.4248 12.6806C32.4296 12.673 32.4354 12.6643 32.4402 12.6566C32.3883 12.6547 32.3355 12.6538 32.2808 12.6547C32.2424 12.6547 32.2011 12.6557 32.1589 12.6576Z" fill="#5E5E5E"/>
<path opacity="0.56" d="M19.2861 16.1482C19.3379 16.1482 19.3898 16.1501 19.4397 16.1549C19.6202 16.1712 19.7546 16.2192 19.8486 16.3008C19.913 16.3565 19.9638 16.441 19.9792 16.5322C20.0723 16.5341 20.1664 16.5389 20.2614 16.5437C20.4698 16.5562 20.6858 16.5792 20.8365 16.7184C20.9267 16.802 20.9786 16.9172 20.9853 17.0487C21.1494 17.0996 21.3078 17.2023 21.377 17.3751C21.4346 17.5191 21.4144 17.6717 21.3491 17.8042C21.447 17.8791 21.5267 17.9597 21.592 18.0461C21.7398 18.2429 21.8147 18.4896 21.809 18.7335C21.8502 18.7556 21.8848 18.7844 21.903 18.8276C21.9366 18.9092 21.8944 19.0042 21.784 19.0954C21.761 19.1146 21.737 19.1328 21.7139 19.1511C21.5824 19.4391 21.3242 19.6647 21.0189 19.753C20.7702 19.824 20.5091 19.8039 20.2566 19.7847C20.2518 19.7847 20.248 19.7837 20.2432 19.7837C20.0512 19.8202 19.863 19.8413 19.6854 19.8528C19.5808 19.8768 19.4723 19.8845 19.3658 19.8759C19.2611 19.9258 19.1661 19.9988 19.0979 20.1015C19.0634 20.1533 19.0374 20.21 19.0106 20.2695C18.9837 20.329 18.9558 20.3904 18.9174 20.4471C18.7629 20.6794 18.4624 20.8119 18.0237 20.8407C17.5024 20.8743 17.081 20.785 16.7699 20.5738C16.6461 20.4893 16.5462 20.3876 16.4752 20.2752C16.3139 20.2704 16.1546 20.232 16.0163 20.1917C15.8061 20.1312 15.3165 19.946 15.3184 19.5447C15.3194 19.4122 15.3779 19.2903 15.4307 19.1828L15.6045 18.8256C15.5958 18.7786 15.592 18.7325 15.5939 18.6874C15.5603 18.674 15.5286 18.6576 15.497 18.6404C15.3558 18.5597 15.209 18.408 15.2214 18.2237C15.2291 18.1037 15.3011 17.9885 15.4413 17.8724C15.617 17.7274 15.8157 17.6256 16.025 17.5508C16.0922 17.4221 16.1699 17.2992 16.2582 17.184C16.4291 16.9613 16.7133 16.6733 17.1002 16.5696C17.3555 16.5005 17.6214 16.5303 17.8326 16.6407C17.9066 16.5908 17.9805 16.5485 18.0486 16.512C18.4902 16.2701 18.9059 16.1482 19.2861 16.1482ZM19.9043 16.5322C19.8899 16.465 19.8506 16.3997 19.8006 16.3565C19.7181 16.2845 19.5971 16.2423 19.433 16.2279C19.0278 16.1914 18.5738 16.3085 18.0832 16.5764C18.0266 16.6071 17.9651 16.6426 17.9027 16.682C17.9709 16.7261 18.0323 16.7799 18.0832 16.8423C18.1072 16.8711 18.1341 16.9095 18.1446 16.9546C18.2531 16.9373 18.3626 16.9248 18.473 16.9152C18.64 16.8384 18.8224 16.7808 19.0096 16.7492C19.1008 16.6906 19.1968 16.6464 19.287 16.6167C19.4867 16.5524 19.6931 16.5322 19.9043 16.5322ZM19.7747 16.7885C19.8208 16.7655 19.8602 16.7328 19.8851 16.6877C19.8995 16.6618 19.9072 16.634 19.9101 16.6052C19.7037 16.6052 19.503 16.6244 19.311 16.6868C19.2765 16.6983 19.2419 16.7117 19.2064 16.7271C19.3974 16.7146 19.5914 16.7319 19.7747 16.7885ZM20.9104 17.0295C20.9027 16.945 20.871 16.85 20.7866 16.7722C20.6531 16.6493 20.4525 16.6282 20.2566 16.6167C20.1645 16.6109 20.0733 16.6071 19.9821 16.6052C19.9792 16.6455 19.9686 16.6848 19.9475 16.7223C19.9254 16.7616 19.8966 16.7933 19.863 16.8183C19.8947 16.8308 19.9264 16.8442 19.9581 16.8586C19.959 16.8548 19.96 16.8519 19.961 16.848C19.9763 16.7952 20.0166 16.7549 20.0752 16.7357C20.1491 16.7117 20.2355 16.7252 20.296 16.7712C20.3814 16.8365 20.4208 16.9402 20.4467 17.04C20.5408 17.0151 20.6426 17.0045 20.7482 17.0084C20.799 17.0112 20.8547 17.018 20.9104 17.0295ZM17.7635 16.6887C17.5744 16.6013 17.3421 16.5802 17.1184 16.6407C16.7517 16.7396 16.48 17.0151 16.3158 17.2292C16.2458 17.3204 16.1824 17.4173 16.1258 17.5181C16.2218 17.4884 16.3206 17.4624 16.4205 17.4404C16.5318 17.3386 16.6922 17.2589 16.9043 17.2013C17.0627 17.1581 17.223 17.1274 17.3853 17.1063C17.4112 17.0592 17.44 17.0141 17.4726 16.97C17.5542 16.8586 17.6579 16.7664 17.7635 16.6887ZM18.0726 16.9661C18.065 16.9373 18.0448 16.9095 18.0275 16.8884C17.9747 16.824 17.9104 16.7693 17.8365 16.7261C17.7251 16.8039 17.6157 16.898 17.5312 17.0122C17.512 17.0391 17.4938 17.066 17.4765 17.0938C17.5283 17.088 17.5811 17.0832 17.6339 17.0794C17.775 17.0295 17.9219 16.993 18.0726 16.9661ZM20.3766 17.0621C20.3536 16.9738 20.321 16.8826 20.2518 16.8298C20.2115 16.7991 20.1491 16.7895 20.0982 16.8058C20.0733 16.8135 20.0426 16.8317 20.031 16.8692C20.0291 16.8768 20.0272 16.8855 20.0262 16.8941C20.1002 16.9344 20.1712 16.9824 20.2384 17.0391C20.2595 17.0564 20.2787 17.0746 20.2989 17.0928C20.3248 17.0823 20.3507 17.0717 20.3766 17.0621ZM19.6394 16.8327C19.4416 16.7914 19.2333 16.7914 19.0298 16.824C19.001 16.8432 18.9731 16.8644 18.9462 16.8864C18.9549 16.8864 18.9635 16.8855 18.9722 16.8855C19.1536 16.8768 19.3408 16.8672 19.5213 16.85C19.5597 16.8461 19.599 16.8404 19.6394 16.8327ZM18.832 16.8912C18.8445 16.8788 18.857 16.8672 18.8704 16.8557C18.8205 16.8682 18.7715 16.8816 18.7226 16.898C18.759 16.8951 18.7955 16.8932 18.832 16.8912ZM19.9523 16.9392C19.8947 16.9114 19.8362 16.8874 19.7757 16.8682C19.697 16.9008 19.6086 16.9143 19.528 16.922C19.3466 16.9392 19.1574 16.9488 18.976 16.9575C18.9386 16.9594 18.9011 16.9613 18.8637 16.9632C18.832 16.9968 18.8032 17.0324 18.7773 17.0708C19.1267 17.0775 19.4838 17.0804 19.8314 17.0439C19.8755 17.0391 19.9197 17.0314 19.9379 17.0036C19.9494 16.9872 19.9514 16.9652 19.9523 16.9392ZM18.6928 17.0688C18.7139 17.0333 18.737 16.9997 18.7629 16.968C18.6726 16.9728 18.5834 16.9786 18.4931 16.9863C18.4422 17.0093 18.3923 17.0352 18.3443 17.0621C18.4509 17.0631 18.5565 17.065 18.6621 17.0679C18.6726 17.0688 18.6822 17.0688 18.6928 17.0688ZM20.2307 17.1303C20.2182 17.1188 20.2058 17.1072 20.1923 17.0967C20.1386 17.0516 20.0819 17.0122 20.0224 16.9776C20.0195 17.0007 20.0128 17.0237 19.9984 17.0448C19.9629 17.0967 19.9014 17.1101 19.839 17.1168C19.4733 17.1552 19.0989 17.1504 18.7341 17.1437C18.7178 17.1764 18.7034 17.21 18.6909 17.2455C18.7706 17.2176 18.8541 17.208 18.9309 17.2013C19.3072 17.1677 19.6854 17.1898 20.0531 17.2656C20.1069 17.2148 20.1664 17.1677 20.2307 17.1303ZM18.2061 17.0621C18.2099 17.0592 18.2147 17.0564 18.2186 17.0544C18.2435 17.0381 18.2694 17.0228 18.2954 17.0074C18.2445 17.0132 18.1946 17.0208 18.1446 17.0285C18.1418 17.04 18.1379 17.0516 18.1331 17.0621C18.1562 17.0621 18.1811 17.0621 18.2061 17.0621ZM18.0438 17.0631C18.0496 17.0564 18.0544 17.0506 18.0592 17.0429C18.0237 17.0496 17.9882 17.0564 17.9526 17.065C17.9834 17.064 18.0131 17.0631 18.0438 17.0631ZM20.9123 17.1044C20.8557 17.0909 20.7981 17.0832 20.7462 17.0813C20.6474 17.0775 20.5523 17.088 20.465 17.1111C20.4822 17.1879 20.4995 17.2743 20.5149 17.3664C20.5197 17.3751 20.5245 17.3837 20.5293 17.3924C20.6099 17.4202 20.6896 17.45 20.7693 17.4836C20.8499 17.376 20.9037 17.2445 20.9123 17.1178C20.9114 17.114 20.9114 17.1092 20.9123 17.1044ZM21.2896 17.761C21.3414 17.6487 21.3568 17.522 21.3088 17.4029C21.2512 17.2599 21.1226 17.1725 20.9834 17.1255C20.9728 17.2618 20.92 17.3991 20.8374 17.5143C20.873 17.5296 20.9094 17.5469 20.945 17.5632C21.0774 17.6266 21.1917 17.6919 21.2896 17.761ZM20.4122 17.2186C20.4064 17.1898 20.3997 17.161 20.3939 17.1341C20.3805 17.1389 20.367 17.1447 20.3536 17.1495C20.3738 17.1716 20.3939 17.1946 20.4122 17.2186ZM18.6544 17.1408C18.5133 17.138 18.3702 17.1351 18.2272 17.1351C18.0784 17.233 17.943 17.3453 17.8163 17.4672C17.8778 17.4778 17.9411 17.4941 18.0064 17.5143C18.1091 17.546 18.2493 17.6016 18.377 17.6909C18.3885 17.546 18.4432 17.3991 18.5709 17.3069C18.5824 17.2983 18.5939 17.2906 18.6064 17.2839C18.617 17.234 18.6342 17.186 18.6544 17.1408ZM17.7251 17.4538C17.8413 17.3386 17.9642 17.2311 18.0986 17.1351C18.0899 17.1351 18.0822 17.1351 18.0736 17.1351C18.0333 17.1687 17.9786 17.1984 17.9094 17.2196C17.729 17.2772 17.5408 17.3175 17.3517 17.352C17.3315 17.4029 17.3123 17.4567 17.2931 17.5114C17.416 17.4567 17.5619 17.4375 17.7251 17.4538ZM17.3853 17.2724C17.5562 17.2407 17.7261 17.2023 17.8874 17.1504C17.896 17.1476 17.9075 17.1437 17.921 17.138C17.8298 17.1408 17.7386 17.1456 17.6483 17.1524C17.5581 17.186 17.4707 17.2253 17.3853 17.2724ZM20.4208 17.3588C20.3814 17.2964 20.3354 17.2368 20.2854 17.1831C20.2336 17.2119 20.1866 17.2455 20.1424 17.2839C20.2355 17.305 20.3286 17.33 20.4208 17.3588ZM17.3286 17.2205C17.3344 17.209 17.3392 17.1975 17.345 17.186C17.2029 17.2061 17.0627 17.234 16.9235 17.2724C16.791 17.3088 16.6797 17.353 16.5904 17.4068C16.7248 17.3818 16.8602 17.3597 16.9946 17.3386C17.0608 17.328 17.127 17.3175 17.1933 17.3069C17.2077 17.2964 17.2221 17.2868 17.2374 17.2762C17.2682 17.256 17.2979 17.2378 17.3286 17.2205ZM19.9936 17.3271C19.647 17.2608 19.2918 17.2416 18.9386 17.2733C18.8512 17.281 18.7533 17.2935 18.6698 17.3328C18.6486 17.4471 18.6544 17.5642 18.6611 17.6871C18.663 17.7274 18.665 17.7668 18.6669 17.8071C18.7312 17.7495 18.8022 17.7015 18.879 17.666C19.1277 17.5527 19.4003 17.5738 19.6509 17.6784C19.6806 17.6823 19.7104 17.688 19.7402 17.6957C19.7498 17.6784 19.7594 17.6621 19.769 17.6448C19.8237 17.5498 19.8966 17.4336 19.9936 17.3271ZM20.4515 17.4452C20.3286 17.4048 20.2038 17.3712 20.0781 17.3444C19.9706 17.4538 19.8899 17.5805 19.8314 17.6813C19.8246 17.6928 19.8179 17.7044 19.8112 17.7168C19.8928 17.7447 19.9715 17.786 20.0435 17.8397C20.1952 17.8128 20.344 17.7764 20.4794 17.712C20.4736 17.6189 20.464 17.5296 20.4515 17.4452ZM17.2067 17.5373C17.2106 17.5268 17.2144 17.5162 17.2182 17.5047C17.2346 17.4576 17.2509 17.4116 17.2682 17.3674C17.2528 17.3703 17.2384 17.3722 17.223 17.3751C17.176 17.4106 17.1194 17.4586 17.0704 17.5181C17.1155 17.5239 17.1616 17.5296 17.2067 17.5373ZM18.5939 17.8791C18.5939 17.8704 18.5939 17.8618 18.5939 17.8532C18.5939 17.7994 18.591 17.7447 18.5882 17.6909C18.5824 17.5911 18.5776 17.4884 18.5882 17.3856C18.4864 17.4749 18.449 17.616 18.447 17.7456C18.497 17.7879 18.543 17.8378 18.5814 17.8935C18.5853 17.8887 18.5901 17.8839 18.5939 17.8791ZM16.985 17.5095C17.0128 17.4711 17.0454 17.4336 17.0829 17.3981C17.0579 17.402 17.032 17.4058 17.007 17.4106C16.8198 17.4404 16.6355 17.4692 16.4579 17.5076C16.4531 17.5124 16.4483 17.5172 16.4435 17.522C16.5242 17.5066 16.6134 17.4989 16.7123 17.498C16.8026 17.498 16.8938 17.5018 16.985 17.5095ZM20.7194 17.5431C20.6723 17.5239 20.6243 17.5047 20.5763 17.4874C20.5965 17.5316 20.6138 17.5776 20.6291 17.6237C20.6608 17.6007 20.6906 17.5728 20.7194 17.5431ZM17.6579 17.522C17.5562 17.5172 17.4515 17.5277 17.3546 17.5652C17.3814 17.5709 17.4083 17.5767 17.4342 17.5834C17.4803 17.5949 17.5245 17.6064 17.5677 17.6199C17.5974 17.5872 17.6282 17.5546 17.6579 17.522ZM18.3741 17.7802C18.2454 17.6784 18.0918 17.618 17.9843 17.5844C17.9152 17.5623 17.8355 17.5431 17.752 17.5316C17.7155 17.568 17.68 17.6064 17.6454 17.6448C17.8806 17.7255 18.064 17.834 18.2022 17.976C18.2762 18.0519 18.3376 18.1392 18.3856 18.2324C18.4019 18.1872 18.4211 18.144 18.4432 18.1018C18.4192 18.0317 18.399 17.9607 18.3856 17.8868C18.3798 17.8522 18.376 17.8167 18.3741 17.7802ZM16.3245 17.5517C16.3283 17.546 16.3322 17.5402 16.336 17.5344C16.2477 17.5565 16.1613 17.5805 16.0768 17.6093C15.9722 17.8148 15.8963 18.0346 15.8502 18.2612C15.8829 18.2391 15.9174 18.2199 15.9539 18.2026C15.9203 18.048 15.9338 17.8925 16.0269 17.7591C16.0941 17.664 16.193 17.5949 16.3245 17.5517ZM16.9408 17.5796C16.864 17.5738 16.7882 17.5709 16.7114 17.5709C16.5798 17.5709 16.4666 17.5853 16.3715 17.6132C16.3648 17.6247 16.3581 17.6372 16.3523 17.6487C16.2832 17.7888 16.288 17.9636 16.3581 18.1248C16.4973 18.1268 16.6336 18.1508 16.7584 18.1767C16.7834 18.1335 16.8074 18.0893 16.8304 18.0461C16.8525 18.0048 16.8746 17.9636 16.8986 17.9232C16.8899 17.8925 16.8842 17.8608 16.8822 17.8272C16.8765 17.7437 16.8976 17.6602 16.9408 17.5796ZM21.255 17.8253C21.159 17.7572 21.0458 17.6919 20.9133 17.6285C20.873 17.6093 20.8317 17.5901 20.7904 17.5728C20.7501 17.6189 20.705 17.6592 20.656 17.6938C20.6541 17.6948 20.6522 17.6967 20.6502 17.6976C20.6915 17.8532 20.705 18.0154 20.6877 18.1757C20.8202 18.1479 20.9498 18.1037 21.064 18.026C21.1379 17.977 21.2051 17.906 21.255 17.8253ZM17.1491 17.6026C17.1069 17.5959 17.0637 17.5911 17.0205 17.5863C16.9773 17.6554 16.9494 17.7351 16.9542 17.8224C16.9542 17.8244 16.9542 17.8272 16.9542 17.8292C17.0099 17.7447 17.0714 17.666 17.1491 17.6026ZM20.5619 17.6669C20.5562 17.6496 20.5514 17.6324 20.5446 17.6151C20.5466 17.6343 20.5485 17.6535 20.5494 17.6736C20.5542 17.6717 20.5581 17.6698 20.5619 17.6669ZM17.5149 17.6804C17.4832 17.6717 17.4506 17.6631 17.417 17.6544C17.3632 17.641 17.3094 17.6295 17.2547 17.6199C17.199 17.7802 17.1453 17.9415 17.0934 18.1037C17.1117 18.122 17.1299 18.1392 17.1482 18.1546C17.2653 17.9904 17.3853 17.8311 17.5149 17.6804ZM15.7629 18.3312C15.8032 18.0941 15.8752 17.8628 15.9779 17.6458C15.8022 17.7149 15.6371 17.8052 15.4874 17.929C15.3635 18.0317 15.3002 18.1296 15.2934 18.2285C15.2838 18.3792 15.4106 18.5079 15.5325 18.577C15.5555 18.5904 15.5786 18.602 15.6026 18.6125C15.6045 18.601 15.6074 18.5895 15.6102 18.5789C15.6362 18.4868 15.6899 18.4023 15.7629 18.3312ZM16.2794 18.1268C16.217 17.9674 16.2131 17.7956 16.2717 17.6516C16.193 17.689 16.1315 17.7389 16.0874 17.8013C16.0096 17.9117 15.9971 18.0423 16.023 18.1748C16.0538 18.1642 16.0845 18.1556 16.1171 18.1479C16.1709 18.1364 16.2256 18.1296 16.2794 18.1268ZM19.4282 17.6832C19.2544 17.6458 19.0758 17.6564 18.9098 17.7322C18.8195 17.7735 18.7379 17.834 18.6669 17.9079C18.665 17.952 18.6611 17.9943 18.6544 18.0336C18.6592 18.0461 18.663 18.0596 18.6669 18.073C18.6717 18.0893 18.6755 18.1056 18.6784 18.122C18.7542 18.096 18.8301 18.072 18.9069 18.05C19.0336 17.8647 19.1853 17.7485 19.3638 17.6967C19.385 17.6919 19.4061 17.6871 19.4282 17.6832ZM17.0387 18.0394C17.0752 17.9252 17.1126 17.8119 17.152 17.6986C17.0848 17.7648 17.0301 17.8445 16.9782 17.9319C16.9936 17.9703 17.0138 18.0058 17.0387 18.0394ZM18.3165 18.2602C18.2723 18.1738 18.2166 18.0951 18.1494 18.026C18.0131 17.8868 17.8298 17.7802 17.5917 17.7034C17.4544 17.8599 17.3286 18.0269 17.2077 18.1988C17.2317 18.216 17.2547 18.2304 17.2749 18.242C17.3901 18.2736 17.5005 18.3188 17.5965 18.3792C17.7088 18.4119 17.825 18.432 17.9421 18.4378C17.9555 18.4301 17.9699 18.4234 17.9843 18.4157C18.0928 18.36 18.2042 18.3082 18.3165 18.2602ZM20.6118 18.1901C20.6291 18.0404 20.6186 17.8877 20.5821 17.7399C20.5734 17.7447 20.5638 17.7504 20.5552 17.7552C20.5619 17.8992 20.56 18.05 20.5418 18.2007C20.5648 18.1968 20.5878 18.194 20.6118 18.1901ZM19.6336 17.7495C19.5491 17.7399 19.4646 17.7447 19.384 17.7677C19.2467 17.8071 19.1258 17.8896 19.0211 18.0192C19.2122 17.9693 19.4061 17.93 19.6019 17.9012C19.6125 17.8992 19.623 17.8983 19.6326 17.8964C19.6528 17.857 19.673 17.8167 19.6941 17.7773C19.6749 17.7687 19.6538 17.7591 19.6336 17.7495ZM20.4678 18.2084C20.4851 18.0672 20.489 17.9252 20.4842 17.7898C20.368 17.8416 20.2451 17.8752 20.1184 17.9002C20.1299 17.9108 20.1414 17.9223 20.153 17.9338C20.2317 18.0135 20.2989 18.1104 20.3517 18.2199C20.3891 18.216 20.4275 18.2132 20.4678 18.2084ZM19.8486 17.8685C19.8189 17.8484 19.7891 17.8301 19.7594 17.8128C19.7469 17.8368 19.7344 17.8608 19.7219 17.8858C19.7354 17.8839 19.7488 17.882 19.7632 17.88C19.791 17.8762 19.8198 17.8724 19.8486 17.8685ZM18.5334 17.953C18.5104 17.9165 18.4835 17.882 18.4538 17.8512C18.4547 17.8589 18.4557 17.8666 18.4576 17.8733C18.4653 17.9213 18.4778 17.9684 18.4922 18.0144C18.5046 17.9943 18.519 17.9732 18.5334 17.953ZM21.737 18.7037C21.736 18.4848 21.6659 18.2669 21.5344 18.0903C21.4749 18.0116 21.4029 17.9386 21.3146 17.8685C21.2598 17.9568 21.1859 18.0327 21.1062 18.0864C20.9786 18.1728 20.8317 18.2218 20.679 18.2516C20.6685 18.3178 20.6522 18.3831 20.6301 18.4464C21.0064 18.4896 21.3789 18.576 21.737 18.7037ZM20.2202 18.2285C20.1405 18.1181 20.0426 18.0164 19.9341 17.9309C19.8803 17.9386 19.8256 17.9453 19.7718 17.953C19.7421 17.9568 19.7114 17.9607 19.6816 17.9645C19.6576 18.0125 19.6346 18.0615 19.6106 18.1085C19.6029 18.1248 19.5942 18.1412 19.5866 18.1575C19.6835 18.1728 19.769 18.216 19.8506 18.2679C19.9725 18.2468 20.0973 18.2362 20.2202 18.2285ZM19.5088 18.1508C19.5213 18.1258 19.5328 18.1008 19.5453 18.0759C19.5616 18.0423 19.5779 18.0096 19.5942 17.976C19.3773 18.0077 19.1632 18.0538 18.953 18.1133C18.8637 18.2506 18.7869 18.4263 18.7216 18.6423L18.6928 18.7402C18.6458 18.9005 18.5978 19.0637 18.5325 19.2144C18.5421 19.2317 18.5517 19.249 18.5622 19.2663C18.6189 19.2346 18.6746 19.201 18.7293 19.1636C18.736 19.1549 18.7427 19.1472 18.7494 19.1386C18.7475 19.0023 18.7811 18.8592 18.8291 18.7392C18.951 18.4378 19.2045 18.1508 19.5088 18.1508ZM17.0118 18.1229C16.9821 18.0884 16.9552 18.0509 16.9331 18.0096C16.9206 18.0327 16.9072 18.0567 16.8947 18.0807C16.8755 18.1152 16.8573 18.1508 16.8371 18.1853C16.8669 18.1853 16.8966 18.1863 16.9264 18.1882C16.9475 18.1892 16.9686 18.1911 16.9898 18.192C16.9974 18.169 17.0042 18.146 17.0118 18.1229ZM18.5786 18.0413C18.5766 18.0356 18.5738 18.0308 18.5718 18.026C18.5536 18.0519 18.5373 18.0797 18.5219 18.1076C18.5286 18.1268 18.5363 18.1469 18.543 18.1661C18.5594 18.1258 18.5709 18.0836 18.5786 18.0413ZM18.6621 18.5856C18.7158 18.4138 18.7773 18.2669 18.8483 18.144C18.7946 18.1604 18.7408 18.1776 18.688 18.1959C18.6938 18.2861 18.6784 18.3754 18.6458 18.4589C18.6563 18.4992 18.665 18.5424 18.6621 18.5856ZM17.0954 18.2045C17.0867 18.1968 17.0781 18.1901 17.0694 18.1824C17.0675 18.1882 17.0656 18.1949 17.0637 18.2007C17.0742 18.2016 17.0848 18.2036 17.0954 18.2045ZM16.3485 18.2621C16.335 18.241 16.3226 18.2199 16.312 18.1978C16.2506 18.1997 16.191 18.2064 16.1325 18.2189C16.1008 18.2256 16.0701 18.2343 16.0403 18.2458C16.0566 18.2996 16.0787 18.3533 16.1046 18.4052C16.1728 18.3456 16.2544 18.2976 16.3485 18.2621ZM16.5328 18.2112C16.4858 18.2055 16.4406 18.2007 16.3955 18.1988C16.4032 18.2122 16.4118 18.2247 16.4205 18.2381C16.456 18.2276 16.4934 18.2189 16.5328 18.2112ZM18.6045 18.3322C18.6122 18.2957 18.615 18.2592 18.615 18.2218C18.6083 18.2247 18.6006 18.2266 18.5939 18.2295C18.5891 18.24 18.5834 18.2496 18.5776 18.2602C18.5872 18.2842 18.5958 18.3082 18.6045 18.3322ZM19.3293 18.4964C19.3802 18.408 19.4272 18.3168 19.4723 18.2256C19.2179 18.2477 19.0038 18.5012 18.8963 18.7671C18.8618 18.8516 18.8358 18.9495 18.8253 19.0464C18.929 18.9236 19.0394 18.8036 19.167 18.7066C19.1718 18.696 19.1776 18.6855 19.1824 18.6759C19.2189 18.6096 19.2678 18.5492 19.3293 18.4964ZM19.7469 18.2909C19.6893 18.2592 19.6288 18.2372 19.5635 18.2285C19.5597 18.2285 19.5568 18.2276 19.553 18.2276C19.5242 18.2852 19.4954 18.3428 19.4646 18.4004C19.4982 18.3812 19.5338 18.3639 19.5702 18.3485C19.6288 18.3245 19.6874 18.3053 19.7469 18.2909ZM16.9562 18.3005C16.9005 18.2832 16.8458 18.2698 16.7939 18.2583C16.7526 18.3255 16.7085 18.3908 16.6557 18.4493C16.6518 18.4541 16.648 18.458 16.6442 18.4628C16.7066 18.5079 16.7766 18.5492 16.8563 18.5876C16.865 18.5751 16.8726 18.5626 16.8813 18.5501C16.9053 18.4676 16.9312 18.384 16.9562 18.3005ZM16.5866 18.4186C16.5914 18.4128 16.5971 18.4071 16.6019 18.4023C16.6403 18.36 16.6739 18.313 16.7056 18.2631C16.6269 18.2688 16.5462 18.2804 16.4675 18.3005C16.5021 18.3428 16.5414 18.3812 16.5866 18.4186ZM20.5542 18.4388C20.5744 18.3821 20.5898 18.3245 20.6003 18.265C20.5773 18.2688 20.5552 18.2717 20.5322 18.2746C20.5245 18.3274 20.5139 18.3812 20.5024 18.434C20.5197 18.4349 20.537 18.4368 20.5542 18.4388ZM18.4307 18.3274C18.4509 18.3101 18.4682 18.2919 18.4835 18.2708C18.4701 18.2765 18.4566 18.2813 18.4432 18.2871C18.4384 18.3005 18.4346 18.314 18.4307 18.3274ZM16.0499 18.458C16.0192 18.3984 15.9923 18.337 15.9731 18.2736C15.9203 18.2996 15.8723 18.3312 15.831 18.3677C15.8234 18.4167 15.8166 18.4666 15.8118 18.5165C15.8291 18.5079 15.8474 18.5021 15.8646 18.5002C15.9002 18.4973 15.9309 18.5127 15.952 18.5434L15.9626 18.5578L15.9405 18.625C15.9645 18.5712 15.9962 18.5204 16.0374 18.4733C16.0413 18.4676 16.0461 18.4628 16.0499 18.458ZM20.4294 18.4244C20.44 18.3773 20.4496 18.3303 20.4573 18.2823C20.4323 18.2852 20.4074 18.2871 20.3824 18.289C20.3997 18.3332 20.416 18.3783 20.4294 18.4244ZM17.2461 18.3092C17.2134 18.3005 17.1798 18.2928 17.1462 18.2871C17.1453 18.288 17.1443 18.29 17.1434 18.2909C17.3046 18.361 17.4525 18.4676 17.5274 18.6336C17.5427 18.6672 17.5542 18.7018 17.5619 18.7373C17.6032 18.6836 17.655 18.6327 17.7184 18.5828C17.6762 18.5309 17.6253 18.4858 17.5667 18.4474C17.4621 18.4157 17.3594 18.3725 17.2624 18.3197C17.2566 18.3159 17.2518 18.313 17.2461 18.3092ZM20.3382 18.4224C20.3181 18.3821 20.295 18.3408 20.2672 18.2986L20.2605 18.2996C20.1539 18.3072 20.0445 18.314 19.9379 18.3293C19.959 18.3447 19.9792 18.36 20.0003 18.3754C20.0214 18.3908 20.0426 18.4071 20.0627 18.4224C20.1501 18.4176 20.2422 18.4176 20.3382 18.4224ZM17.031 18.3255C17.0291 18.3245 17.0272 18.3245 17.0253 18.3236C17.0234 18.3303 17.0214 18.336 17.0195 18.3428C17.0234 18.337 17.0272 18.3312 17.031 18.3255ZM16.5338 18.4695C16.48 18.4244 16.433 18.3754 16.3926 18.3236C16.2995 18.3562 16.2131 18.4032 16.1411 18.4704C16.1709 18.5213 16.2035 18.5693 16.239 18.6144C16.2429 18.6192 16.2477 18.626 16.2534 18.6327C16.3552 18.5962 16.4512 18.5415 16.5338 18.4695ZM18.352 18.338C18.3501 18.3341 18.3491 18.3312 18.3472 18.3274C18.2656 18.362 18.185 18.3984 18.1053 18.4378C18.1994 18.4311 18.2771 18.4138 18.3405 18.385C18.3443 18.3687 18.3482 18.3524 18.352 18.338ZM18.568 18.4522C18.5555 18.4128 18.5421 18.3725 18.5277 18.3332C18.5114 18.3524 18.4941 18.3696 18.4758 18.385C18.4691 18.3908 18.4614 18.3965 18.4547 18.4023C18.473 18.4618 18.4864 18.5232 18.4941 18.5847C18.5229 18.5424 18.5478 18.4983 18.568 18.4522ZM19.9504 18.4292C19.912 18.4004 19.8736 18.3716 19.8352 18.3456C19.7536 18.362 19.6749 18.384 19.599 18.4157C19.5174 18.4493 19.4454 18.4925 19.3859 18.5434C19.3773 18.5578 19.3686 18.5722 19.36 18.5866C19.528 18.5021 19.7238 18.4503 19.9504 18.4292ZM17.4957 18.7796C17.489 18.7402 17.4774 18.7008 17.4602 18.6634C17.393 18.5127 17.2538 18.4167 17.1011 18.3524C17.0493 18.4282 16.9984 18.505 16.9475 18.5818C16.9437 18.5962 16.9389 18.6096 16.935 18.624C16.9485 18.6298 16.9629 18.6356 16.9773 18.6413C17.1443 18.7066 17.3181 18.7536 17.4957 18.7796ZM15.7331 18.5818C15.736 18.5424 15.7398 18.504 15.7437 18.4647C15.7149 18.506 15.6938 18.5511 15.6803 18.5981C15.6765 18.6116 15.6736 18.625 15.6707 18.6394C15.6774 18.6413 15.6842 18.6432 15.6899 18.6461L15.6918 18.6423C15.7034 18.6221 15.7168 18.601 15.7331 18.5818ZM18.3174 18.7584C18.3155 18.7344 18.3136 18.7114 18.3126 18.6874C18.3098 18.6135 18.3146 18.5405 18.3242 18.4685C18.2531 18.4935 18.1686 18.5079 18.0707 18.5117C18.0333 18.5127 17.9958 18.5127 17.9584 18.5117C17.9114 18.5376 17.8643 18.5674 17.8182 18.5991C17.8499 18.65 17.8739 18.7056 17.8893 18.7661C17.8922 18.7796 17.895 18.792 17.8979 18.8055C18.039 18.8026 18.1802 18.7872 18.3174 18.7584ZM18.4269 18.6672C18.423 18.6029 18.4134 18.5386 18.3971 18.4752C18.3866 18.5434 18.3827 18.6135 18.3856 18.6845C18.3856 18.6922 18.3866 18.7008 18.3866 18.7085C18.401 18.6951 18.4144 18.6816 18.4269 18.6672ZM17.8326 18.5021C17.7981 18.4983 17.7645 18.4925 17.7299 18.4868C17.7462 18.5031 17.7626 18.5213 17.777 18.5396C17.7942 18.5271 17.8134 18.5146 17.8326 18.5021ZM20.3718 18.4973C20.2998 18.4935 20.2317 18.4916 20.1645 18.4916C20.2317 18.5338 20.3018 18.5655 20.3786 18.5789C20.3814 18.5789 20.3834 18.5799 20.3862 18.5799C20.3872 18.576 20.3891 18.5722 20.3901 18.5684C20.3862 18.5472 20.3814 18.5271 20.3766 18.5069C20.3747 18.504 20.3738 18.5002 20.3718 18.4973ZM20.3613 18.65C20.2413 18.6279 20.1386 18.5655 20.0406 18.4954C19.7306 18.5127 19.479 18.5866 19.2784 18.7181C19.2774 18.7191 19.2765 18.72 19.2746 18.72C19.2515 18.7536 19.2275 18.7863 19.2035 18.818C19.168 18.937 19.1642 19.0666 19.1613 19.202C19.1584 19.3172 19.1555 19.4343 19.1306 19.5466C19.2112 19.5639 19.2976 19.562 19.3763 19.5543C19.4656 19.5226 19.553 19.4842 19.6365 19.441C19.8093 19.3508 19.9552 19.2423 20.0704 19.1204C20.2029 18.9792 20.297 18.8189 20.3613 18.65ZM20.5264 18.5088C20.512 18.5079 20.4986 18.506 20.4842 18.505C20.4794 18.5223 20.4746 18.5396 20.4698 18.5559C20.4717 18.5616 20.4726 18.5664 20.4746 18.5722C20.4794 18.5703 20.4832 18.5674 20.488 18.5645C20.5043 18.552 20.5168 18.5309 20.5264 18.5088ZM16.816 18.649C16.7325 18.6077 16.6576 18.5636 16.5914 18.5156C16.5078 18.5914 16.4099 18.65 16.3043 18.6903C16.3869 18.7738 16.5203 18.8727 16.6509 18.818C16.7238 18.7872 16.7747 18.7114 16.816 18.649ZM21.7341 18.7805C21.7274 18.7776 21.7206 18.7757 21.7149 18.7738C21.3558 18.6461 20.9814 18.5597 20.6032 18.5175C20.6022 18.5184 20.6022 18.5204 20.6013 18.5213C20.5869 18.5568 20.5677 18.5972 20.5312 18.624C20.5187 18.6336 20.5053 18.6404 20.4899 18.6461C20.4938 18.6701 20.4966 18.6951 20.4976 18.7191C20.4995 18.7584 20.4976 18.7978 20.4918 18.8372C20.4938 18.9792 20.4746 19.1088 20.4352 19.224C20.368 19.4199 20.2288 19.584 20.0531 19.6992C20.1136 19.7021 20.1731 19.7069 20.2326 19.7108C20.7818 19.6061 21.2685 19.4007 21.6563 19.106C21.6669 19.08 21.6774 19.0541 21.6861 19.0282C21.712 18.9476 21.7283 18.864 21.7341 18.7805ZM16.1766 18.6548C16.145 18.6144 16.1152 18.5703 16.0874 18.5252C16.047 18.5741 16.0163 18.6269 15.9942 18.6826C16.0566 18.6797 16.1171 18.6701 16.1766 18.6548ZM15.88 18.5741C15.8771 18.5732 15.8733 18.5732 15.8704 18.5732C15.8512 18.5741 15.8272 18.5904 15.8042 18.6125C15.8032 18.6327 15.8022 18.6528 15.8013 18.672C15.8157 18.6749 15.831 18.6768 15.8454 18.6778L15.88 18.5741ZM18.5018 18.7037C18.5354 18.6855 18.5642 18.6615 18.5786 18.6288C18.5862 18.6125 18.5891 18.5933 18.5901 18.5751C18.5651 18.6183 18.5354 18.6586 18.5018 18.697C18.5018 18.698 18.5018 18.7008 18.5018 18.7037ZM17.824 18.8064C17.8221 18.7997 17.8211 18.792 17.8192 18.7853C17.8067 18.7344 17.7866 18.6874 17.7606 18.6442C17.704 18.6893 17.6531 18.7402 17.6118 18.7949C17.6829 18.8016 17.753 18.8055 17.824 18.8064ZM18.4893 19.1271C18.5411 18.9965 18.5824 18.8573 18.6227 18.72L18.6342 18.6797C18.6035 18.7306 18.5536 18.7632 18.4998 18.7853C18.4989 18.8036 18.497 18.8228 18.495 18.841C18.4874 18.9063 18.473 18.9716 18.4528 19.034C18.4634 19.0656 18.4758 19.0964 18.4893 19.1271ZM17.4909 18.8535C17.3056 18.8266 17.1242 18.7776 16.9504 18.7095C16.9379 18.7047 16.9264 18.6999 16.9149 18.6951C16.9101 18.7114 16.9053 18.7287 16.9005 18.745C16.889 18.7872 16.8794 18.8266 16.8928 18.8573C16.913 18.9005 16.9754 18.914 17.0349 18.9226C17.1117 18.9332 17.1904 18.9437 17.271 18.9533C17.2787 18.9504 17.2864 18.9476 17.2931 18.9447L17.297 18.9562C17.3488 18.962 17.4016 18.9668 17.4534 18.9696C17.4621 18.9293 17.4736 18.8909 17.4909 18.8535ZM16.5731 18.9063C16.4301 18.9063 16.3024 18.7949 16.2285 18.7152C16.145 18.7392 16.0586 18.7536 15.9712 18.7556C15.9203 18.96 15.9741 19.1914 16.0912 19.3757C16.193 19.4477 16.3024 19.5063 16.4138 19.5552C16.4234 19.5572 16.432 19.5591 16.4406 19.56C16.4944 19.4564 16.5722 19.3594 16.672 19.2749C16.8112 19.1559 16.9734 19.0743 17.1299 19.008C17.0944 19.0032 17.0598 18.9984 17.0253 18.9936C16.9466 18.9831 16.8611 18.961 16.8266 18.8861C16.8093 18.8487 16.8112 18.8093 16.8189 18.77C16.7824 18.816 16.7373 18.8592 16.6797 18.8832C16.6432 18.9005 16.6077 18.9063 16.5731 18.9063ZM20.4179 18.8324C20.417 18.7959 20.415 18.7584 20.4112 18.721C20.345 18.8823 20.2509 19.0349 20.1242 19.1703C20.0032 19.2989 19.8515 19.4112 19.672 19.5053C19.8448 19.4631 19.9878 19.4007 20.104 19.3162C20.2768 19.1914 20.3901 19.0138 20.4179 18.8324ZM15.7379 18.9917C15.737 18.9773 15.735 18.9639 15.7341 18.9504C15.7283 18.8804 15.7264 18.8103 15.7274 18.7402L15.6803 18.8372C15.6918 18.888 15.712 18.9399 15.7379 18.9917ZM15.8234 18.7488C15.8157 18.7479 15.808 18.7469 15.8003 18.746C15.8003 18.77 15.8003 18.793 15.8013 18.817L15.8234 18.7488ZM15.952 19.2634C15.8858 19.1021 15.8608 18.9236 15.8973 18.7584L15.8147 19.0119C15.8195 19.0551 15.8272 19.1002 15.8397 19.1444C15.8522 19.1597 15.8646 19.1741 15.8781 19.1895C15.9011 19.2144 15.9261 19.2394 15.952 19.2634ZM18.4125 18.8928C18.4163 18.8727 18.4192 18.8525 18.4221 18.8314C18.423 18.8237 18.424 18.816 18.425 18.8084C18.4173 18.8103 18.4096 18.8122 18.4019 18.8141C18.401 18.8141 18.4 18.8151 18.399 18.8151C18.4019 18.842 18.4067 18.8679 18.4125 18.8928ZM21.7658 19.0157C21.8109 18.9735 21.8589 18.9111 21.8358 18.8564C21.8291 18.841 21.8186 18.8285 21.8042 18.817C21.7974 18.8842 21.785 18.9504 21.7658 19.0157ZM17.9056 18.9476C17.9709 18.9351 18.0342 18.9178 18.0976 18.8948C18.1264 18.8842 18.1552 18.8708 18.183 18.8564C18.0918 18.8688 17.9997 18.8765 17.9075 18.8784C17.9075 18.9015 17.9075 18.9245 17.9056 18.9476ZM17.8336 18.8794C17.7482 18.8784 17.6627 18.8736 17.5773 18.864C17.5782 18.9005 17.5763 18.937 17.5725 18.9735C17.6589 18.9744 17.7462 18.9706 17.8317 18.9591C17.8346 18.9332 17.8346 18.9063 17.8336 18.8794ZM18.375 19.032C18.3587 18.9831 18.3462 18.9332 18.3357 18.8823L18.3165 18.9092C18.2416 19.0119 18.2301 19.1386 18.2608 19.2596C18.3088 19.1885 18.3472 19.1127 18.375 19.032ZM15.711 19.0906C15.6784 19.0388 15.6525 18.986 15.6333 18.9322L15.496 19.2144C15.447 19.3152 15.3914 19.4285 15.3914 19.5447C15.3894 19.897 15.8426 20.065 16.0365 20.1216C16.1574 20.1562 16.2938 20.1898 16.433 20.1994C16.385 20.1034 16.359 20.0036 16.3571 19.9028C16.3562 19.848 16.3619 19.7933 16.3744 19.7386C16.3302 19.7127 16.288 19.6839 16.2477 19.6532C16.1968 19.6503 16.145 19.6464 16.0941 19.6426C15.9424 19.632 15.7341 19.6004 15.6698 19.4333C15.6342 19.3392 15.6602 19.2413 15.6938 19.1405L15.711 19.0906ZM19.0605 19.5264C19.0826 19.4237 19.0854 19.3143 19.0883 19.201C19.0902 19.1127 19.0931 19.0234 19.1046 18.936C19.0173 19.0311 18.9232 19.1136 18.8243 19.1856C18.8349 19.3018 18.8781 19.4074 18.9712 19.4775C18.9981 19.4976 19.0288 19.514 19.0605 19.5264ZM18.208 19.3325C18.1648 19.2106 18.159 19.0781 18.2061 18.961C18.0918 19.008 17.9699 19.0637 17.8614 19.1367C17.824 19.2298 17.7664 19.3162 17.6954 19.3911C17.753 19.441 17.8211 19.4832 17.8922 19.5188C17.9517 19.5053 18.0141 19.489 18.0765 19.4698C18.1245 19.4276 18.1686 19.3815 18.208 19.3325ZM17.8941 19.0292C17.8989 19.0263 17.9037 19.0234 17.9075 19.0215C17.9037 19.0224 17.8989 19.0234 17.895 19.0234C17.8941 19.0253 17.8941 19.0272 17.8941 19.0292ZM17.4477 19.0416C17.392 19.0378 17.3354 19.033 17.2806 19.0272C17.0934 19.0983 16.887 19.1876 16.719 19.3306C16.6346 19.4026 16.5664 19.4861 16.5174 19.5744C16.7574 19.6138 17.0464 19.6368 17.3094 19.5495C17.3306 19.5015 17.3498 19.4535 17.3699 19.4036C17.4026 19.321 17.4352 19.2375 17.4592 19.1549C17.4525 19.1261 17.4486 19.0964 17.4477 19.0656C17.4477 19.057 17.4477 19.0493 17.4477 19.0416ZM17.8019 19.0877C17.8077 19.0704 17.8134 19.0532 17.8182 19.0349C17.7328 19.0455 17.6474 19.0484 17.5619 19.0464C17.5552 19.0829 17.5466 19.1194 17.536 19.1549C17.5485 19.2 17.5696 19.2413 17.5965 19.2797C17.6541 19.2048 17.7251 19.1415 17.8019 19.0877ZM19.9149 19.6954C20.1222 19.5898 20.2912 19.416 20.3651 19.2C20.3747 19.1722 20.3834 19.1424 20.3901 19.1127C20.3306 19.2116 20.248 19.3018 20.1472 19.3748C19.9696 19.5034 19.7373 19.584 19.4387 19.6205C19.4234 19.6224 19.408 19.6244 19.3926 19.6253C19.289 19.6618 19.1824 19.6906 19.0739 19.7108C19.072 19.7136 19.071 19.7165 19.0691 19.7194C19.0682 19.7204 19.0672 19.7223 19.0672 19.7232C19.1085 19.7415 19.1507 19.7578 19.1949 19.7703C19.2208 19.778 19.2458 19.7837 19.2717 19.7885C19.3082 19.7895 19.3446 19.7895 19.3802 19.7895C19.5606 19.7156 19.7613 19.6964 19.9149 19.6954ZM18.4509 19.2164C18.4374 19.1904 18.425 19.1636 18.4134 19.1357C18.3808 19.2106 18.3395 19.2816 18.2906 19.3469C18.2963 19.3604 18.303 19.3738 18.3098 19.3863C18.3318 19.3776 18.3549 19.368 18.377 19.3575C18.4038 19.3124 18.4288 19.2653 18.4509 19.2164ZM15.7725 19.178C15.7696 19.1741 15.7667 19.1703 15.7638 19.1664C15.735 19.2538 15.712 19.3383 15.7389 19.4093C15.7878 19.536 15.9683 19.5629 16.0998 19.5716C16.119 19.5725 16.1392 19.5744 16.1584 19.5754C16.1507 19.5677 16.143 19.56 16.1363 19.5524C16.0182 19.5044 15.9088 19.4333 15.8387 19.3229C15.808 19.2768 15.7869 19.2279 15.7725 19.178ZM19.0413 19.5975C19.001 19.5831 18.9626 19.5629 18.9261 19.5351C18.8291 19.4612 18.7773 19.3575 18.7581 19.2423C18.7197 19.2893 18.6813 19.3373 18.641 19.3834C18.7254 19.4928 18.8272 19.5869 18.9414 19.658C18.9683 19.6541 18.9952 19.6503 19.0221 19.6455C19.0298 19.6301 19.0365 19.6138 19.0413 19.5975ZM20.6128 19.7309C20.7443 19.7309 20.8739 19.7194 20.9987 19.6839C21.2358 19.6157 21.4422 19.4592 21.5757 19.2528C21.2349 19.4861 20.8643 19.6359 20.5005 19.728C20.5379 19.73 20.5754 19.7309 20.6128 19.7309ZM17.6426 19.3392C17.6666 19.3143 17.6886 19.2884 17.7088 19.2605C17.6848 19.2855 17.6627 19.3114 17.6426 19.3392ZM17.5523 19.344C17.5331 19.3191 17.5158 19.2922 17.5014 19.2644C17.4822 19.32 17.4611 19.3757 17.439 19.4304C17.4285 19.4573 17.417 19.4842 17.4064 19.5111C17.439 19.4957 17.4707 19.4784 17.5024 19.4573C17.5139 19.418 17.5312 19.3796 17.5523 19.344ZM18.497 19.3008C18.496 19.2989 18.495 19.298 18.4941 19.296C18.4922 19.2989 18.4912 19.3018 18.4893 19.3047C18.4922 19.3028 18.495 19.3018 18.497 19.3008ZM18.5488 19.3796C18.545 19.3738 18.5411 19.368 18.5373 19.3623C18.5018 19.3805 18.4653 19.3978 18.4288 19.4141C18.4125 19.44 18.3962 19.465 18.3779 19.49C18.3875 19.5024 18.3981 19.5149 18.4096 19.5264C18.4576 19.4804 18.5037 19.4314 18.5488 19.3796ZM18.2416 19.4122C18.2406 19.4112 18.2406 19.4103 18.2397 19.4093C18.2378 19.4112 18.2358 19.4132 18.2349 19.4151C18.2378 19.4141 18.2397 19.4132 18.2416 19.4122ZM18.8301 19.6695C18.7418 19.6042 18.6621 19.5264 18.593 19.4391C18.5507 19.4861 18.5075 19.5322 18.4614 19.5764C18.4691 19.5831 18.4778 19.5898 18.4864 19.5956C18.5286 19.6263 18.5738 19.6532 18.6208 19.6752C18.6909 19.6772 18.76 19.6752 18.8301 19.6695ZM17.7818 19.5399C17.7318 19.5101 17.6848 19.4775 17.6426 19.44C17.6176 19.4621 17.5907 19.4832 17.5638 19.5024C17.5571 19.5264 17.5514 19.5514 17.5475 19.5764C17.5974 19.5706 17.6474 19.5629 17.6973 19.5543C17.7251 19.5504 17.753 19.5456 17.7818 19.5399ZM18.2858 19.488C18.2829 19.4842 18.281 19.4804 18.2781 19.4765C18.2224 19.4976 18.1667 19.5168 18.112 19.5332C18.0918 19.5495 18.0707 19.5658 18.0496 19.5802C18.0525 19.5812 18.0544 19.5821 18.0573 19.5821C18.0918 19.5927 18.1264 19.6023 18.1619 19.6119C18.208 19.5744 18.2493 19.5332 18.2858 19.488ZM18.3549 19.5754C18.3472 19.5668 18.3386 19.5572 18.3309 19.5485C18.3059 19.5783 18.279 19.6061 18.2502 19.633C18.2589 19.6349 18.2685 19.6368 18.2771 19.6388C18.304 19.6176 18.3299 19.5975 18.3549 19.5754ZM17.4717 19.586C17.4726 19.5764 17.4746 19.5668 17.4755 19.5572C17.4573 19.5668 17.439 19.5754 17.4208 19.584C17.4141 19.5869 17.4074 19.5898 17.4006 19.5927C17.4246 19.5898 17.4486 19.5879 17.4717 19.586ZM18.0851 19.6676C18.0688 19.6628 18.0525 19.658 18.0362 19.6532C17.9853 19.6378 17.9344 19.6176 17.8835 19.5946C17.823 19.608 17.7654 19.6196 17.7098 19.6282C17.6541 19.6378 17.5974 19.6455 17.5418 19.6522C17.5408 19.6925 17.5446 19.7319 17.5533 19.7703C17.5562 19.7828 17.56 19.7962 17.5638 19.8096C17.7712 19.8039 17.943 19.7568 18.0851 19.6676ZM19.1411 19.6234C19.1315 19.6215 19.1219 19.6196 19.1123 19.6176C19.1114 19.6224 19.1094 19.6263 19.1085 19.6301C19.1181 19.6282 19.1296 19.6253 19.1411 19.6234ZM18.4576 19.6647C18.4528 19.6618 18.448 19.658 18.4432 19.6541C18.4307 19.6455 18.4192 19.6359 18.4077 19.6253C18.3971 19.6349 18.3856 19.6445 18.3741 19.6532C18.4019 19.658 18.4298 19.6618 18.4576 19.6647ZM17.487 19.8087C17.4851 19.801 17.4832 19.7933 17.4813 19.7856C17.4717 19.7444 17.4678 19.7021 17.4678 19.6599C17.4237 19.6647 17.3795 19.6685 17.3344 19.6714C17.3152 19.7127 17.2941 19.753 17.273 19.7914C17.3478 19.801 17.4198 19.8068 17.487 19.8087ZM16.3965 19.6637C16.3936 19.6637 16.3907 19.6637 16.3878 19.6628C16.3907 19.6647 16.3926 19.6656 16.3955 19.6676C16.3955 19.6666 16.3955 19.6647 16.3965 19.6637ZM16.5011 19.6695C16.4925 19.6695 16.4829 19.6685 16.4733 19.6676C16.4685 19.68 16.4637 19.6925 16.4598 19.704C16.6432 19.8 16.8678 19.8586 17.1318 19.8778C17.1395 19.8672 17.1462 19.8567 17.1539 19.8452C17.0771 19.8317 17.0051 19.8154 16.9379 19.7991C16.8006 19.7674 16.6509 19.7261 16.5011 19.6695ZM17.1952 19.7789C17.2144 19.7453 17.2326 19.7108 17.2509 19.6752C17.0896 19.6839 16.9274 19.6839 16.7661 19.68C16.8314 19.6983 16.8947 19.7146 16.9552 19.73C17.0387 19.7501 17.1194 19.7664 17.1952 19.7789ZM18.1936 19.6954C18.1888 19.6944 18.184 19.6935 18.1782 19.6916C18.1773 19.6925 18.1773 19.6925 18.1763 19.6935C18.1408 19.7194 18.1043 19.7424 18.0669 19.7626C18.0938 19.7511 18.1206 19.7376 18.1466 19.7232C18.1629 19.7136 18.1782 19.704 18.1936 19.6954ZM18.6035 19.7472C18.4998 19.7444 18.3971 19.7328 18.2944 19.7146C18.2589 19.7405 18.2214 19.7636 18.1821 19.7856C18.0083 19.8816 17.8144 19.9248 17.6406 19.944C17.6608 19.9652 17.6858 19.9853 17.7155 20.0016C17.8 20.0487 17.9008 20.0564 18.0054 20.0602C18.305 20.0727 18.6765 20.0381 18.8934 19.8327C18.7946 19.8164 18.6957 19.7895 18.6035 19.7472ZM18.9626 19.7549C18.9501 19.7482 18.9386 19.7415 18.9261 19.7338C18.8915 19.7376 18.856 19.7415 18.8214 19.7434C18.8646 19.754 18.9088 19.7616 18.953 19.7684C18.9558 19.7636 18.9597 19.7597 18.9626 19.7549ZM17.079 19.9479C16.8323 19.9248 16.6192 19.8682 16.4416 19.777C16.433 19.8192 16.4291 19.8615 16.4301 19.9028C16.432 20.0045 16.4627 20.1072 16.5174 20.2032C16.6336 20.2023 16.7498 20.1821 16.8554 20.1284C16.9418 20.0842 17.0157 20.0228 17.079 19.9479ZM19.2419 19.8624C19.1584 19.8605 19.071 19.8557 18.9837 19.8461C18.7552 20.1044 18.3357 20.1476 18.0035 20.1332C17.8941 20.1284 17.7798 20.1197 17.6819 20.065C17.632 20.0372 17.5888 19.9988 17.5552 19.9517C17.4918 19.9565 17.4323 19.9584 17.3786 19.9584C17.3066 19.9594 17.2355 19.9575 17.1683 19.9536C17.0925 20.0535 17.0022 20.136 16.888 20.1936C16.7853 20.2455 16.6749 20.2695 16.5635 20.2743C16.6269 20.3626 16.7104 20.4442 16.8122 20.5124C17.1098 20.714 17.5158 20.7994 18.0208 20.7668C18.4355 20.7399 18.7178 20.618 18.8589 20.4058C18.8934 20.354 18.9184 20.2983 18.9462 20.2388C18.9731 20.1792 19.0019 20.1178 19.0394 20.0612C19.0922 19.9786 19.1632 19.9133 19.2419 19.8624ZM17.4986 19.8826C17.4083 19.8807 17.319 19.872 17.2326 19.8596C17.2278 19.8672 17.2221 19.8759 17.2173 19.8836C17.2691 19.8855 17.3219 19.8864 17.3766 19.8855C17.4141 19.8855 17.4554 19.8845 17.4986 19.8826Z" fill="#5E5E5E"/>
</g>
</g>
<defs>
<clipPath id="clip0_1146_49382">
<rect width="48" height="48" rx="24" fill="white"/>
</clipPath>
<clipPath id="clip1_1146_49382">
<rect width="48" height="48" fill="white"/>
</clipPath>
</defs>
</svg>
