<svg width="48" height="48" viewBox="0 0 48 48" fill="none" xmlns="http://www.w3.org/2000/svg">
<g clip-path="url(#clip0_1146_49386)">
<rect width="48" height="48" rx="24" fill="white"/>
<g clip-path="url(#clip1_1146_49386)">
<g opacity="0.7">
<path d="M45.5926 21.0652C45.4947 20.6313 43.3001 9.60182 34.0217 4.14806C24.7433 -1.3057 19.9395 -0.860257 15.6819 2.47862C11.4243 5.8175 8.04122 13.7193 3.89306 18.0594C-0.255097 22.3996 -4.62118 28.1874 -1.1287 36.5346C2.36474 44.8818 12.4073 41.7657 20.2668 40.3189C28.1263 38.8722 30.6367 43.3237 39.1519 40.4303C47.6662 37.5369 46.5747 25.4053 45.5926 21.0652Z" fill="#EFEFEF"/>
<path opacity="0.7" d="M45.659 21.0652C45.5611 20.6313 43.3665 9.60182 34.0881 4.14806C24.8097 -1.3057 20.0068 -0.860257 15.7492 2.47862C11.4916 5.8175 8.10763 13.7193 3.95947 18.0594C-0.188691 22.3996 -4.55477 28.1874 -1.06229 36.5346C2.43115 44.8818 12.4737 41.7657 20.3332 40.3189C28.1927 38.8722 30.7032 43.3237 39.2183 40.4303C47.7335 37.5369 46.642 25.4053 45.659 21.0652Z" fill="#EFEFEF"/>
</g>
<g opacity="0.64">
<path d="M28.6761 12.8218C28.6761 12.8218 28.5081 13.2826 28.4668 13.6186C28.4246 13.9536 28.7183 14.2474 28.7183 14.2474C28.7183 14.2474 28.0895 15.673 28.2575 15.8823C28.4255 16.0916 28.9286 16.2173 28.9286 16.2173C28.9286 16.2173 29.1378 18.0202 29.4738 18.1037C29.8089 18.1872 31.0674 17.6007 31.0674 17.6007L31.7385 19.4458C31.7385 19.4458 30.4809 22.0032 30.3964 22.3383C30.3129 22.6733 30.3129 22.6733 30.3129 22.6733C30.3129 22.6733 29.4326 22.7156 29.2646 23.0506C29.0966 23.3856 29.0553 23.5536 29.2646 23.6794C29.4738 23.8052 28.9295 24.602 29.1388 24.9792C29.3481 25.3565 29.5996 25.3143 29.5996 25.5658C29.5996 25.8173 29.4738 25.8173 29.6831 26.0266C29.8924 26.2359 30.4377 26.4039 30.4377 26.4039C30.4377 26.4039 30.5212 29.9674 30.5212 31.0992C30.5212 32.2311 30.5212 32.6506 30.8562 32.9021C31.1913 33.1536 31.1913 33.1536 31.1913 33.1536C31.1913 33.1536 30.7305 35.9626 30.6882 37.5975C30.6546 38.906 30.621 40.3748 30.6095 40.9095H34.3478C34.4726 40.4151 34.7817 39.1767 34.8815 38.6458C35.0073 37.9748 35.3846 36.8852 35.3846 36.8852L36.0623 40.9104H39.2543C39.1526 40.1751 38.8223 37.6925 38.8223 36.5924V32.7351C38.8223 32.1485 38.7801 31.729 38.7801 31.729C38.7801 31.729 39.7862 31.4775 40.3737 30.2612C40.9602 29.0448 40.7932 26.1524 40.751 24.6432C40.7087 23.1341 39.8706 21.792 39.3676 21.2468C38.8646 20.7015 38.2358 20.2829 38.2358 20.2829C38.2358 20.2829 36.7679 18.8996 36.0556 18.4378C35.3433 17.977 34.2527 17.5997 34.2527 17.5997L33.7497 16.3834C33.7497 16.3834 33.9177 14.8743 34.0012 14.5805C34.0847 14.2868 34.3785 13.0292 34.0847 12.1911C33.791 11.353 32.6591 11.017 32.1138 10.9335C31.5686 10.85 30.4367 10.7242 30.5202 10.85C30.6038 10.9757 30.8553 11.3108 30.8553 11.3108C30.8553 11.3108 28.7586 10.8077 28.7174 11.0592C28.6751 11.3108 29.4719 11.6045 29.4719 11.6045C29.4719 11.6045 27.334 11.7725 27.2082 12.1911C27.0825 12.6125 28.6761 12.8218 28.6761 12.8218Z" fill="#263238"/>
<path opacity="0.5" d="M28.6761 12.8218C28.6761 12.8218 28.5081 13.2826 28.4668 13.6186C28.4246 13.9536 28.7183 14.2474 28.7183 14.2474C28.7183 14.2474 28.0895 15.673 28.2575 15.8823C28.4255 16.0916 28.9286 16.2173 28.9286 16.2173C28.9286 16.2173 29.1378 18.0202 29.4738 18.1037C29.8089 18.1872 31.0674 17.6007 31.0674 17.6007L31.7385 19.4458C31.7385 19.4458 30.4809 22.0032 30.3964 22.3383C30.3129 22.6733 30.3129 22.6733 30.3129 22.6733C30.3129 22.6733 29.4326 22.7156 29.2646 23.0506C29.0966 23.3856 29.0553 23.5536 29.2646 23.6794C29.4738 23.8052 28.9295 24.602 29.1388 24.9792C29.3481 25.3565 29.5996 25.3143 29.5996 25.5658C29.5996 25.8173 29.4738 25.8173 29.6831 26.0266C29.8924 26.2359 30.4377 26.4039 30.4377 26.4039C30.4377 26.4039 30.5212 29.9674 30.5212 31.0992C30.5212 32.2311 30.5212 32.6506 30.8562 32.9021C31.1913 33.1536 31.1913 33.1536 31.1913 33.1536C31.1913 33.1536 30.7305 35.9626 30.6882 37.5975C30.6546 38.906 30.621 40.3748 30.6095 40.9095H34.3478C34.4726 40.4151 34.7817 39.1767 34.8815 38.6458C35.0073 37.9748 35.3846 36.8852 35.3846 36.8852L36.0623 40.9104H39.2543C39.1526 40.1751 38.8223 37.6925 38.8223 36.5924V32.7351C38.8223 32.1485 38.7801 31.729 38.7801 31.729C38.7801 31.729 39.7862 31.4775 40.3737 30.2612C40.9602 29.0448 40.7932 26.1524 40.751 24.6432C40.7087 23.1341 39.8706 21.792 39.3676 21.2468C38.8646 20.7015 38.2358 20.2829 38.2358 20.2829C38.2358 20.2829 36.7679 18.8996 36.0556 18.4378C35.3433 17.977 34.2527 17.5997 34.2527 17.5997L33.7497 16.3834C33.7497 16.3834 33.9177 14.8743 34.0012 14.5805C34.0847 14.2868 34.3785 13.0292 34.0847 12.1911C33.791 11.353 32.6591 11.017 32.1138 10.9335C31.5686 10.85 30.4367 10.7242 30.5202 10.85C30.6038 10.9757 30.8553 11.3108 30.8553 11.3108C30.8553 11.3108 28.7586 10.8077 28.7174 11.0592C28.6751 11.3108 29.4719 11.6045 29.4719 11.6045C29.4719 11.6045 27.334 11.7725 27.2082 12.1911C27.0825 12.6125 28.6761 12.8218 28.6761 12.8218Z" fill="white"/>
</g>
<g opacity="0.81">
<path d="M33.4995 22.1797C33.7194 22.2901 34.8742 22.7845 34.8742 22.7845C34.8742 22.7845 34.8742 22.7845 34.544 22.3996C34.2138 22.0146 34.2138 22.0693 34.2138 21.8495C34.2138 21.6297 34.7638 21.9599 35.1488 22.2345C35.5338 22.509 35.6989 22.894 35.6989 22.894L36.1386 24.0489L37.3482 25.0933L38.288 22.0617L38.6682 19.486L38.9984 19.2661C39.1376 19.1999 38.6202 18.2437 38.8957 18.2399C39.1299 18.237 39.4218 18.2332 39.7798 18.1919C39.8326 18.1861 39.8845 18.1804 39.9354 18.1737C39.9373 17.7061 40.0486 17.3029 40.112 17.1119C40.1571 16.9765 40.1984 16.8402 40.231 16.7039C40.063 16.3737 39.9018 15.9954 39.7885 15.5797C39.7405 15.406 39.704 15.2361 39.6762 15.0709C39.3325 14.9077 38.3984 14.4421 38.2064 14.1282C37.9501 13.7087 39.0858 12.0594 40.1984 11.2357C41.3398 10.3909 42.8182 10.5023 43.6899 11.0495C44.4944 11.5545 44.7882 12.3925 45.0243 13.0665C45.0502 13.1404 45.0752 13.2114 45.1002 13.2805C45.1779 13.4937 45.271 13.6914 45.3757 13.8786C45.3757 13.8786 46.9952 15.6479 47.7373 16.1548C48.583 16.7327 50.3437 17.9356 49.5219 19.5781C49.4797 19.6626 49.4355 19.7442 49.3933 19.8239C49.0909 20.3874 48.8528 20.8329 49.3933 21.7698C49.5354 22.0156 49.6765 22.2277 49.8128 22.4332C50.2813 23.1369 50.6202 23.6457 50.2448 24.4991L50.1833 24.6402C49.8579 25.389 49.4115 26.4133 48.2634 26.7033C48.1549 26.9049 47.9792 27.1439 47.7248 27.2245C47.6096 27.261 47.4771 27.2937 47.336 27.3196C47.5866 28.2191 48.1184 30.0613 48.4736 30.814C48.7366 31.3698 48.8278 31.7365 48.7462 31.9026C48.7222 31.9516 48.6858 31.9756 48.6704 31.9775C48.6387 31.9909 48.2989 32.1349 47.8179 32.2645C47.8304 32.4709 47.8342 32.6639 47.8237 32.8357C47.7104 34.8133 46.5795 38.734 46.568 38.7733C46.5622 38.7935 46.5459 38.8098 46.5258 38.8156C46.5162 38.8185 46.183 38.9058 45.6771 39.0181C45.5917 39.4425 45.5322 40.0962 45.6877 40.9093H40.3222C40.1888 40.3305 39.9613 39.6661 39.8029 39.2332C39.1309 39.0853 38.6941 38.9317 38.6854 38.9289C38.6643 38.9212 38.649 38.9029 38.6461 38.8799C38.6384 38.8271 38.0269 34.4687 38.0336 31.6703C37.7091 31.8018 37.4739 31.8114 37.4096 31.8114C37.401 31.8114 37.3952 31.8114 37.3933 31.8114C37.3818 31.8105 37.3712 31.8066 37.3626 31.7999C37.3616 31.7989 37.3606 31.7999 37.3597 31.7989C37.3578 31.797 37.3568 31.7951 37.3549 31.7932C37.352 31.7903 37.3482 31.7884 37.3453 31.7845C37.3443 31.7826 37.3434 31.7797 37.3424 31.7778C37.3405 31.774 37.3395 31.7711 37.3386 31.7673C37.3366 31.7605 37.3366 31.7548 37.3366 31.7481C37.3366 31.7452 37.3357 31.7433 37.3357 31.7413C37.3414 31.7116 37.6976 29.7561 37.9482 28.0079C37.7552 27.9733 37.5363 27.9196 37.4048 27.8409C37.1302 27.6757 34.5459 25.4764 34.5459 25.4764L34.9309 24.7065C34.9309 24.7065 33.392 23.8818 33.0618 23.6073C32.7315 23.3327 32.6221 22.4524 32.6221 21.9033C32.6221 21.3541 33.2797 22.0693 33.4995 22.1797Z" fill="#848484"/>
<path opacity="0.2" d="M33.4995 22.1797C33.7194 22.2901 34.8742 22.7845 34.8742 22.7845C34.8742 22.7845 34.8742 22.7845 34.544 22.3996C34.2138 22.0146 34.2138 22.0693 34.2138 21.8495C34.2138 21.6297 34.7638 21.9599 35.1488 22.2345C35.5338 22.509 35.6989 22.894 35.6989 22.894L36.1386 24.0489L37.3482 25.0933L38.288 22.0617L38.6682 19.486L38.9984 19.2661C39.1376 19.1999 38.6202 18.2437 38.8957 18.2399C39.1299 18.237 39.4218 18.2332 39.7798 18.1919C39.8326 18.1861 39.8845 18.1804 39.9354 18.1737C39.9373 17.7061 40.0486 17.3029 40.112 17.1119C40.1571 16.9765 40.1984 16.8402 40.231 16.7039C40.063 16.3737 39.9018 15.9954 39.7885 15.5797C39.7405 15.406 39.704 15.2361 39.6762 15.0709C39.3325 14.9077 38.3984 14.4421 38.2064 14.1282C37.9501 13.7087 39.0858 12.0594 40.1984 11.2357C41.3398 10.3909 42.8182 10.5023 43.6899 11.0495C44.4944 11.5545 44.7882 12.3925 45.0243 13.0665C45.0502 13.1404 45.0752 13.2114 45.1002 13.2805C45.1779 13.4937 45.271 13.6914 45.3757 13.8786C45.3757 13.8786 46.9952 15.6479 47.7373 16.1548C48.583 16.7327 50.3437 17.9356 49.5219 19.5781C49.4797 19.6626 49.4355 19.7442 49.3933 19.8239C49.0909 20.3874 48.8528 20.8329 49.3933 21.7698C49.5354 22.0156 49.6765 22.2277 49.8128 22.4332C50.2813 23.1369 50.6202 23.6457 50.2448 24.4991L50.1833 24.6402C49.8579 25.389 49.4115 26.4133 48.2634 26.7033C48.1549 26.9049 47.9792 27.1439 47.7248 27.2245C47.6096 27.261 47.4771 27.2937 47.336 27.3196C47.5866 28.2191 48.1184 30.0613 48.4736 30.814C48.7366 31.3698 48.8278 31.7365 48.7462 31.9026C48.7222 31.9516 48.6858 31.9756 48.6704 31.9775C48.6387 31.9909 48.2989 32.1349 47.8179 32.2645C47.8304 32.4709 47.8342 32.6639 47.8237 32.8357C47.7104 34.8133 46.5795 38.734 46.568 38.7733C46.5622 38.7935 46.5459 38.8098 46.5258 38.8156C46.5162 38.8185 46.183 38.9058 45.6771 39.0181C45.5917 39.4425 45.5322 40.0962 45.6877 40.9093H40.3222C40.1888 40.3305 39.9613 39.6661 39.8029 39.2332C39.1309 39.0853 38.6941 38.9317 38.6854 38.9289C38.6643 38.9212 38.649 38.9029 38.6461 38.8799C38.6384 38.8271 38.0269 34.4687 38.0336 31.6703C37.7091 31.8018 37.4739 31.8114 37.4096 31.8114C37.401 31.8114 37.3952 31.8114 37.3933 31.8114C37.3818 31.8105 37.3712 31.8066 37.3626 31.7999C37.3616 31.7989 37.3606 31.7999 37.3597 31.7989C37.3578 31.797 37.3568 31.7951 37.3549 31.7932C37.352 31.7903 37.3482 31.7884 37.3453 31.7845C37.3443 31.7826 37.3434 31.7797 37.3424 31.7778C37.3405 31.774 37.3395 31.7711 37.3386 31.7673C37.3366 31.7605 37.3366 31.7548 37.3366 31.7481C37.3366 31.7452 37.3357 31.7433 37.3357 31.7413C37.3414 31.7116 37.6976 29.7561 37.9482 28.0079C37.7552 27.9733 37.5363 27.9196 37.4048 27.8409C37.1302 27.6757 34.5459 25.4764 34.5459 25.4764L34.9309 24.7065C34.9309 24.7065 33.392 23.8818 33.0618 23.6073C32.7315 23.3327 32.6221 22.4524 32.6221 21.9033C32.6221 21.3541 33.2797 22.0693 33.4995 22.1797Z" fill="#848484"/>
</g>
<g opacity="0.65">
<path d="M9.31552 20.6034C9.49024 21.4194 10.2813 21.4626 10.4128 21.8754C10.5434 22.2882 10.6797 23.0553 10.0682 24.1813C9.45664 25.3074 9.28096 26.0841 9.53824 26.5554C9.79552 27.0268 10.7421 27.6623 10.7421 27.6623C10.7421 27.6623 10.0422 29.5756 10.0518 30.6825C10.0614 31.7893 10.5904 32.2021 10.5904 32.2021C10.5904 32.2021 10.503 32.5909 10.7459 32.7945C10.9888 32.998 11.0176 33.1343 11.0176 33.1343C11.0176 33.1343 11.367 37.1548 11.4976 37.965C11.6282 38.7762 11.8739 39.405 11.6982 39.7132C11.5514 39.9705 11.4966 40.6271 11.4822 40.9122H14.7664C14.847 40.6281 14.943 39.9973 14.993 39.5481C15.0563 38.9797 15.1581 37.6645 15.1581 37.6645L16.263 40.9122H19.4378L18.8013 33.8236L19.5232 33.8149L19.8736 29.4748C19.8736 29.4748 19.3254 23.6629 19.263 23.4354C19.1997 23.2069 18.1907 21.1487 17.8163 20.5324C17.4429 19.9161 16.336 19.1289 16.336 19.1289L16.385 18.2937C16.385 18.2937 18.5507 18.7113 18.6477 18.2361C18.7446 17.7599 18.7888 16.5705 18.7888 16.5705C18.7888 16.5705 19.4253 16.4197 19.4099 16.1529C19.3955 15.886 18.9002 15.1669 18.9002 15.1669L18.8714 14.6332C18.8714 14.6332 19.6432 14.8521 19.9245 14.3077C20.2058 13.7634 19.7162 13.3996 19.7162 13.3996C19.7162 13.3996 20.391 12.8994 19.935 11.8319C19.479 10.7634 18.0371 10.6031 17.561 10.9045C17.0848 11.205 17.007 11.5065 16.6576 11.4681C16.3082 11.4287 14.6723 11.4239 13.9773 12.0988C13.2832 12.7737 13.0787 14.6092 12.904 14.9874C12.7293 15.3657 10.4426 16.4389 9.60736 17.1868C8.77216 17.9346 9.88864 19.4303 9.88864 19.4303C9.88864 19.4303 9.1408 19.7874 9.31552 20.6034Z" fill="#263238"/>
<path opacity="0.5" d="M9.31552 20.6034C9.49024 21.4194 10.2813 21.4626 10.4128 21.8754C10.5434 22.2882 10.6797 23.0553 10.0682 24.1813C9.45664 25.3074 9.28096 26.0841 9.53824 26.5554C9.79552 27.0268 10.7421 27.6623 10.7421 27.6623C10.7421 27.6623 10.0422 29.5756 10.0518 30.6825C10.0614 31.7893 10.5904 32.2021 10.5904 32.2021C10.5904 32.2021 10.503 32.5909 10.7459 32.7945C10.9888 32.998 11.0176 33.1343 11.0176 33.1343C11.0176 33.1343 11.367 37.1548 11.4976 37.965C11.6282 38.7762 11.8739 39.405 11.6982 39.7132C11.5514 39.9705 11.4966 40.6271 11.4822 40.9122H14.7664C14.847 40.6281 14.943 39.9973 14.993 39.5481C15.0563 38.9797 15.1581 37.6645 15.1581 37.6645L16.263 40.9122H19.4378L18.8013 33.8236L19.5232 33.8149L19.8736 29.4748C19.8736 29.4748 19.3254 23.6629 19.263 23.4354C19.1997 23.2069 18.1907 21.1487 17.8163 20.5324C17.4429 19.9161 16.336 19.1289 16.336 19.1289L16.385 18.2937C16.385 18.2937 18.5507 18.7113 18.6477 18.2361C18.7446 17.7599 18.7888 16.5705 18.7888 16.5705C18.7888 16.5705 19.4253 16.4197 19.4099 16.1529C19.3955 15.886 18.9002 15.1669 18.9002 15.1669L18.8714 14.6332C18.8714 14.6332 19.6432 14.8521 19.9245 14.3077C20.2058 13.7634 19.7162 13.3996 19.7162 13.3996C19.7162 13.3996 20.391 12.8994 19.935 11.8319C19.479 10.7634 18.0371 10.6031 17.561 10.9045C17.0848 11.205 17.007 11.5065 16.6576 11.4681C16.3082 11.4287 14.6723 11.4239 13.9773 12.0988C13.2832 12.7737 13.0787 14.6092 12.904 14.9874C12.7293 15.3657 10.4426 16.4389 9.60736 17.1868C8.77216 17.9346 9.88864 19.4303 9.88864 19.4303C9.88864 19.4303 9.1408 19.7874 9.31552 20.6034Z" fill="white"/>
</g>
<path opacity="0.85" d="M12.0761 40.9123L11.7584 40.3766L11.7766 40.391C11.7766 40.391 11.8438 38.2339 11.6422 37.559C11.4397 36.8851 10.2934 35.3337 10.2934 35.3337L8.60766 29.6045C8.43294 27.1497 8.24382 24.5165 8.19006 23.9289C8.10942 23.0419 7.1427 21.3437 6.65502 20.5363L6.65982 20.52L7.57374 21.2909L7.28478 19.5581L6.53022 19.0819L6.79518 17.6102L7.5939 17.7984L8.11806 17.6937L8.60862 15.4205L9.18942 14.9232L8.72574 13.8691L8.92158 13.3785L8.57982 12.1104C8.58078 12.1094 8.58174 12.1085 8.5827 12.1075C8.58654 12.1037 8.58942 12.0998 8.59422 12.096C8.59806 12.0921 8.60286 12.0873 8.60766 12.0825C8.61246 12.0777 8.6163 12.0739 8.6211 12.0681C8.62686 12.0624 8.63358 12.0557 8.63934 12.048C8.64414 12.0432 8.64894 12.0384 8.65374 12.0326C8.66142 12.024 8.67006 12.0153 8.67774 12.0067C8.68254 12.0019 8.68734 11.9971 8.69214 11.9913C8.7027 11.9798 8.71326 11.9683 8.72382 11.9568C8.72766 11.9529 8.7315 11.9491 8.73534 11.9443C8.7507 11.928 8.76606 11.9097 8.78142 11.8915C8.78238 11.8905 8.78334 11.8896 8.7843 11.8877C8.7987 11.8704 8.81406 11.8531 8.82846 11.8358C8.83326 11.8301 8.83806 11.8243 8.84286 11.8176C8.85438 11.8041 8.86494 11.7907 8.87646 11.7763C8.88222 11.7686 8.88798 11.7619 8.89374 11.7542C8.9043 11.7417 8.9139 11.7283 8.92446 11.7149C8.93118 11.7072 8.93694 11.6985 8.9427 11.6909C8.9523 11.6784 8.9619 11.6659 8.9715 11.6525C8.97822 11.6438 8.98398 11.6352 8.9907 11.6265C8.99934 11.6141 9.00798 11.6016 9.01662 11.5891C9.02238 11.5805 9.02814 11.5718 9.03486 11.5632C9.0435 11.5507 9.05118 11.5382 9.05886 11.5257C9.06462 11.5171 9.06942 11.5085 9.07518 11.4998C9.08286 11.4873 9.08958 11.4749 9.09726 11.4624C9.10206 11.4547 9.10686 11.4461 9.1107 11.4384C9.11742 11.4249 9.12414 11.4115 9.13086 11.399C9.13374 11.3923 9.13758 11.3856 9.14046 11.3798C9.1491 11.3606 9.15678 11.3414 9.16254 11.3241C9.20958 11.1821 9.15774 10.9536 9.02718 10.727C8.92734 10.5552 8.63742 10.1443 8.09598 10.0358C7.39326 9.8947 4.19934 9.83326 3.3939 10.2864C2.89854 10.5648 2.77854 11.0678 2.77278 11.5833C2.7699 11.8176 2.79006 12.0547 2.80926 12.2755C2.81694 12.3667 2.82462 12.456 2.83038 12.5414C2.8323 12.5645 2.83422 12.5885 2.8371 12.6153C2.83806 12.6249 2.83998 12.6365 2.84094 12.647C2.84286 12.6643 2.84478 12.6806 2.84766 12.6998C2.84958 12.7123 2.8515 12.7248 2.85342 12.7382C2.8563 12.7565 2.85918 12.7747 2.86302 12.7949C2.8659 12.8093 2.86878 12.8237 2.8707 12.839C2.87454 12.8582 2.87742 12.8774 2.88126 12.8976C2.88414 12.9139 2.88798 12.9312 2.89182 12.9485C2.89566 12.9686 2.8995 12.9878 2.9043 13.0089C2.90814 13.0262 2.91198 13.0454 2.91582 13.0637C2.92062 13.0848 2.92446 13.1059 2.92926 13.127C2.9331 13.1462 2.9379 13.1654 2.9427 13.1856C2.9475 13.2077 2.9523 13.2297 2.95806 13.2518C2.96286 13.272 2.96766 13.2931 2.97246 13.3142C2.97822 13.3363 2.98302 13.3584 2.98878 13.3814C2.99358 13.4035 2.99934 13.4256 3.0051 13.4467C3.01086 13.4697 3.01662 13.4928 3.02238 13.5168C3.02814 13.5389 3.0339 13.5609 3.03966 13.583C3.04542 13.607 3.05214 13.631 3.0579 13.655C3.06366 13.6781 3.06942 13.7011 3.07614 13.7241C3.08286 13.7481 3.08862 13.7731 3.09534 13.7971C3.1011 13.8201 3.10782 13.8441 3.11454 13.8681C3.12126 13.8921 3.12702 13.9161 3.13374 13.9411C3.14046 13.9661 3.14718 13.991 3.1539 14.0169C3.16062 14.04 3.16638 14.064 3.1731 14.087C3.17982 14.1129 3.1875 14.1379 3.19422 14.1638C3.20094 14.1869 3.2067 14.2099 3.21342 14.2329C3.2211 14.2598 3.22782 14.2857 3.2355 14.3126C3.24222 14.3347 3.24798 14.3568 3.2547 14.3798C3.26238 14.4067 3.27006 14.4326 3.27678 14.4585C3.2835 14.4816 3.28926 14.5037 3.29598 14.5267C3.30366 14.5517 3.31038 14.5776 3.31806 14.6025C3.32478 14.6256 3.3315 14.6486 3.33822 14.6707C3.3459 14.6957 3.35262 14.7206 3.3603 14.7456C3.36702 14.7677 3.37278 14.7897 3.3795 14.8118C3.38718 14.8377 3.3939 14.8627 3.40158 14.8877C3.40734 14.9088 3.41406 14.9289 3.41982 14.9491C3.4275 14.9741 3.43422 14.999 3.4419 15.024C3.44766 15.0451 3.45438 15.0653 3.46014 15.0854C3.46686 15.1085 3.47358 15.1305 3.4803 15.1536C3.48702 15.1757 3.49278 15.1968 3.4995 15.2179C3.50526 15.2371 3.51102 15.2553 3.51678 15.2745C3.52446 15.2985 3.53118 15.3225 3.5379 15.3465C3.5427 15.3638 3.5475 15.3801 3.55326 15.3965C3.55998 15.4185 3.5667 15.4406 3.57342 15.4627C3.57822 15.479 3.58302 15.4944 3.58782 15.5107C3.59454 15.5337 3.60126 15.5549 3.60798 15.5769C3.61182 15.5885 3.6147 15.6 3.61854 15.6115C3.62622 15.6365 3.6339 15.6614 3.64062 15.6845C3.64254 15.6921 3.64542 15.6989 3.64734 15.7056C3.65502 15.7315 3.6627 15.7565 3.67038 15.7805C3.67134 15.7843 3.6723 15.7881 3.67422 15.791C3.72126 15.9427 3.7539 16.0473 3.76542 16.0838L3.59358 17.2857L3.46686 17.184L3.07422 17.8569C3.07422 17.8569 -0.427862 19.8259 -0.495062 20.231C-0.562262 20.6352 -0.832022 23.8723 -0.967382 24.4109C-1.10178 24.9504 -2.58594 29.6697 -2.38338 30.0067C-2.24994 30.2285 -0.829142 32.1773 0.125098 33.4809L-0.441302 36.5193L-0.416342 36.5357C-0.407702 36.5414 0.0626979 36.8515 0.751978 37.1357L0.531178 40.9113H12.0761V40.9123Z" fill="#848484"/>
<path d="M24.6859 35.7571C24.6859 35.7571 25.4693 37.3229 25.9512 38.1667C26.4331 39.0096 27.8789 40.7568 28.3608 41.3587C28.8427 41.9606 29.6856 43.0454 29.7163 43.1961C29.7461 43.3469 29.3851 43.7078 28.9934 44.16C28.6018 44.6121 28.1198 44.6419 28.0901 44.9126C28.0603 45.1833 29.3554 45.1833 29.7768 45.1536C30.1982 45.1238 30.7704 44.4307 31.0421 44.2502C31.3128 44.0697 31.5845 43.8585 31.5538 43.5273C31.524 43.1961 31.0718 42.8947 30.8914 42.5635C30.7109 42.2323 29.7173 39.7027 29.2354 38.4979C28.7534 37.2931 28.211 36.4502 28.091 36.2093C27.971 35.9683 27.7301 35.5469 27.7301 35.5469L27.6696 34.9449L24.5381 35.5171L24.6859 35.7571Z" fill="#FCDAC8" stroke="#3A3A3A" stroke-width="0.096" stroke-miterlimit="10" stroke-linecap="round" stroke-linejoin="round"/>
<path d="M31.5521 43.5265C31.5329 43.3114 31.3361 43.1098 31.1508 42.9034C30.6747 43.4689 30.1371 43.7674 30.1371 43.7674C30.1371 43.7674 29.9259 43.4967 29.8356 43.4065C29.7454 43.3162 29.7156 43.1953 29.7156 43.1953C29.7454 43.346 29.3844 43.707 28.9927 44.1591C28.6011 44.6113 28.1191 44.641 28.0894 44.9118C28.0596 45.1825 29.3547 45.1825 29.7761 45.1527C30.1975 45.123 30.7697 44.4298 31.0414 44.2494C31.3111 44.0689 31.5819 43.8577 31.5521 43.5265Z" fill="#505151" stroke="#263238" stroke-width="0.096" stroke-miterlimit="10"/>
<path d="M31.5521 43.5265C31.5502 43.5025 31.5444 43.4794 31.5387 43.4554C31.3985 43.5994 31.2439 43.7415 31.0942 43.8452C30.6363 44.1639 30.0497 44.8628 29.6475 44.9434C29.3076 45.0116 28.3927 44.8686 28.1191 44.8225C28.1038 44.8494 28.0932 44.8782 28.0894 44.9108C28.0596 45.1815 29.3547 45.1815 29.7761 45.1518C30.1975 45.122 30.7697 44.4289 31.0414 44.2484C31.3111 44.0689 31.5819 43.8577 31.5521 43.5265Z" fill="white" stroke="#263238" stroke-width="0.096" stroke-miterlimit="10"/>
<path d="M24.2643 35.3951C24.2643 35.3951 24.0531 36.0873 23.9331 36.7199C23.8131 37.3526 23.3907 41.1772 23.1805 42.1103C22.9693 43.0435 22.8493 43.5561 22.8493 43.5561C22.8493 43.5561 21.4035 43.6761 21.0119 43.4956C20.6202 43.3151 20.289 43.4351 20.3792 43.7366C20.4695 44.038 21.5235 44.7302 22.1562 45.0019C22.7888 45.2735 23.6615 45.454 23.8429 45.2726C24.0234 45.0921 24.1741 43.9171 24.2039 43.7068C24.2336 43.4956 25.9808 40.5753 26.312 39.4905C26.6432 38.4067 26.5827 37.2921 26.673 36.9004C26.7632 36.5087 27.2749 35.3951 27.2749 35.3951H24.2643Z" fill="#FCDAC8" stroke="#3A3A3A" stroke-width="0.096" stroke-miterlimit="10" stroke-linecap="round" stroke-linejoin="round"/>
<path d="M21.0109 43.4966C20.6192 43.3161 20.288 43.4361 20.3782 43.7376C20.4685 44.039 21.5226 44.7312 22.1552 45.0028C22.7878 45.2736 23.6605 45.455 23.8419 45.2736C23.9686 45.1468 24.08 44.5315 24.1462 44.1024C23.265 44.2348 22.6074 43.918 22.6074 43.918L22.8483 43.5571C22.8474 43.5561 21.4026 43.6771 21.0109 43.4966Z" fill="#505151" stroke="#263238" stroke-width="0.096" stroke-miterlimit="10"/>
<path d="M23.8414 45.2735C23.8741 45.2409 23.9058 45.1756 23.9355 45.0892C23.4478 45.0844 22.7077 44.9903 21.9579 44.5689C21.0219 44.0428 20.5698 43.6876 20.3922 43.5321C20.3605 43.5849 20.3518 43.654 20.3768 43.7375C20.467 44.039 21.5211 44.7311 22.1538 45.0028C22.7883 45.2735 23.661 45.454 23.8414 45.2735Z" fill="white" stroke="#263238" stroke-width="0.096" stroke-miterlimit="10"/>
<path d="M22.3213 26.0314C22.3213 26.0314 22.3213 28.4708 22.5018 29.8858C22.6822 31.3008 22.713 34.2826 22.713 34.584C22.713 34.8855 24.4592 35.5479 26.0854 35.5479C27.7117 35.5479 29.4886 35.066 29.8803 34.946C30.272 34.826 30.4525 34.7348 30.4525 34.7348C30.4525 34.7348 30.7539 31.2711 30.7539 29.3444C30.7539 27.4167 29.7901 25.5802 29.5194 25.249C29.2486 24.9178 28.8867 24.5261 28.8867 24.5261C28.8867 24.5261 26.6279 25.61 25.0016 25.6704C23.3754 25.7309 22.472 25.5802 22.472 25.5802L22.3213 26.0314Z" fill="#444444"/>
<path d="M23.7071 17.2743C23.7071 17.2743 22.2219 17.7697 21.2677 18.0164C20.3135 18.2641 20.3135 19.8903 20.2424 20.4557C20.1714 21.0212 19.9247 22.1175 19.5704 23.1428C19.2171 24.1681 19.1106 24.9457 19.7471 25.1578C20.3835 25.37 20.8079 25.0167 21.1967 24.7335C21.5855 24.4503 22.0453 23.8849 22.0453 23.8849C22.0453 23.8849 21.8331 26.3242 22.0453 26.713C22.2575 27.1018 23.4239 27.2429 24.8735 27.2084C26.3231 27.1729 27.9848 26.3242 28.4091 25.6877C28.8335 25.0513 28.9045 24.8391 28.7624 24.0615C28.6213 23.2839 27.3839 20.0314 26.2165 18.5108C25.0511 16.9911 23.7071 17.2743 23.7071 17.2743Z" fill="#7B7C7C"/>
<path d="M21.3815 21.5473C21.3392 21.3428 21.3104 21.1643 21.3047 21.0347" stroke="#666666" stroke-width="0.096" stroke-miterlimit="10" stroke-linecap="round" stroke-linejoin="round"/>
<path d="M21.9766 23.7225C21.9766 23.7225 21.6684 22.752 21.4688 21.9331" stroke="#666666" stroke-width="0.096" stroke-miterlimit="10" stroke-linecap="round" stroke-linejoin="round"/>
<path d="M23.7063 17.2743C23.7063 17.2743 22.4583 17.69 21.5146 17.9502C21.5338 18.4378 21.6884 19.5975 22.7166 19.8193C23.9636 20.089 24.5358 18.1422 24.6174 17.3473C24.0865 17.1946 23.7063 17.2743 23.7063 17.2743Z" fill="#FCDAC8" stroke="#666666" stroke-width="0.096" stroke-miterlimit="10" stroke-linecap="round" stroke-linejoin="round"/>
<path d="M22.1959 18.9418L21.9953 17.7764L21.5527 18.098C21.0305 18.2986 20.2663 17.4144 19.8247 16.7309C19.3822 16.0474 18.7793 14.0784 18.7793 14.0784C18.7793 14.0784 18.7793 13.7972 20.7895 12.9927C22.7998 12.1892 23.7243 12.2688 24.2465 12.5904C24.7687 12.912 24.9703 13.394 24.93 13.9172C24.8897 14.4394 24.6084 14.882 24.4078 15.0423C24.2071 15.2026 23.9652 15.5645 23.9652 15.5645C23.9652 15.5645 23.8049 15.8458 23.8049 16.3287C23.8049 16.8106 24.0055 18.097 24.0055 18.097" fill="#FCDAC8"/>
<path d="M22.1959 18.9418L21.9953 17.7764L21.5527 18.098C21.0305 18.2986 20.2663 17.4144 19.8247 16.7309C19.3822 16.0474 18.7793 14.0784 18.7793 14.0784C18.7793 14.0784 18.7793 13.7972 20.7895 12.9927C22.7998 12.1892 23.7243 12.2688 24.2465 12.5904C24.7687 12.912 24.9703 13.394 24.93 13.9172C24.8897 14.4394 24.6084 14.882 24.4078 15.0423C24.2071 15.2026 23.9652 15.5645 23.9652 15.5645C23.9652 15.5645 23.8049 15.8458 23.8049 16.3287C23.8049 16.8106 24.0055 18.097 24.0055 18.097" stroke="#3A3A3A" stroke-width="0.096" stroke-miterlimit="10" stroke-linecap="round" stroke-linejoin="round"/>
<path d="M20.4678 15.0826L20.6281 16.2884L21.0707 16.1684" fill="#FCDAC8"/>
<path d="M20.4678 15.0826L20.6281 16.2884L21.0707 16.1684" stroke="#3A3A3A" stroke-width="0.096" stroke-miterlimit="10" stroke-linecap="round" stroke-linejoin="round"/>
<path d="M21.3516 15.2843C21.3516 15.2843 21.8335 15.5655 22.3164 15.2036Z" fill="#FCDAC8"/>
<path d="M21.3516 15.2843C21.3516 15.2843 21.8335 15.5655 22.3164 15.2036" stroke="#3A3A3A" stroke-width="0.096" stroke-miterlimit="10" stroke-linecap="round" stroke-linejoin="round"/>
<path d="M19.4863 15.4464C19.4863 15.4464 19.781 15.6778 20.2226 15.4675Z" fill="#FCDAC8"/>
<path d="M19.4863 15.4464C19.4863 15.4464 19.781 15.6778 20.2226 15.4675" stroke="#3A3A3A" stroke-width="0.096" stroke-miterlimit="10" stroke-linecap="round" stroke-linejoin="round"/>
<path d="M21.6338 15.3832C21.6338 15.3832 21.676 15.5934 21.8229 15.5723C21.9698 15.5512 21.9909 15.3832 21.9909 15.3832C21.9909 15.3832 21.7595 15.4043 21.6338 15.3832Z" fill="#3A3A3A" stroke="#3A3A3A" stroke-width="0.096" stroke-miterlimit="10" stroke-linecap="round" stroke-linejoin="round"/>
<path d="M19.6768 15.5521C19.6768 15.5521 19.719 15.7624 19.8659 15.7412C20.0128 15.7201 20.0339 15.5521 20.0339 15.5521C20.0339 15.5521 19.8025 15.5732 19.6768 15.5521Z" fill="#3A3A3A" stroke="#3A3A3A" stroke-width="0.096" stroke-miterlimit="10" stroke-linecap="round" stroke-linejoin="round"/>
<path d="M21.2119 14.5C21.2119 14.5 21.8014 14.3531 22.3265 14.6257Z" fill="#FCDAC8"/>
<path d="M21.2119 14.5C21.2119 14.5 21.8014 14.3531 22.3265 14.6257" stroke="#3A3A3A" stroke-width="0.192" stroke-miterlimit="10" stroke-linecap="round" stroke-linejoin="round"/>
<path d="M20.1823 14.6055C20.1823 14.6055 19.5928 14.5633 19.2568 14.858Z" fill="#FCDAC8"/>
<path d="M20.1823 14.6055C20.1823 14.6055 19.5928 14.5633 19.2568 14.858" stroke="#3A3A3A" stroke-width="0.192" stroke-miterlimit="10" stroke-linecap="round" stroke-linejoin="round"/>
<path d="M21.9805 17.7447L22.9856 16.9307L22.1235 18.4455L21.9805 17.7447Z" fill="#DDBBA2"/>
<path d="M20.8262 17.0343L21.1459 16.9709" stroke="#3A3A3A" stroke-width="0.096" stroke-miterlimit="10" stroke-linecap="round" stroke-linejoin="round"/>
<path d="M25.4816 12.1824C25.0804 10.5764 23.9428 10.5245 23.8948 10.5226L23.4551 10.5101L23.8871 10.4276C23.9149 10.4218 24.5764 10.2989 25.1255 10.4612L25.0986 10.5533C24.7904 10.4631 24.4362 10.4669 24.1943 10.4871C24.5927 10.6109 25.2829 10.992 25.5748 12.1604L25.4816 12.1824Z" fill="#353535" stroke="#353535" stroke-width="0.096" stroke-miterlimit="10"/>
<path d="M24.1165 16.4247C23.8506 16.0925 23.9139 15.5809 23.9168 15.5588L23.9715 15.1383L24.0118 15.5607C24.0118 15.5636 24.0387 15.8141 24.2346 15.9706C24.3709 16.0791 24.5562 16.1204 24.7885 16.0906L24.8 16.1857C24.5418 16.2183 24.3306 16.1703 24.1741 16.0445C24.1011 15.986 24.0493 15.9178 24.0118 15.8516C24.0262 16.0129 24.0714 16.2125 24.1923 16.3642L24.1165 16.4247Z" fill="#353535"/>
<path d="M22.0088 9.95236C22.0088 9.95236 20.2107 10.0522 18.3617 11.4989C16.5128 12.9456 17.01 14.5604 17.6129 14.6813C18.2158 14.8023 19.1 14.3194 19.1 14.3194C19.1 14.3194 20.2251 14.6813 20.9489 14.3597C21.6728 14.0381 22.6376 12.9533 22.6376 12.9533C22.6376 12.9533 22.3563 14.2397 22.9592 14.2397C23.562 14.2397 23.8836 13.8778 23.8836 13.8778C23.8836 13.8778 24.2859 12.9533 24.4462 13.154C24.6065 13.3546 24.9281 13.7972 24.6468 14.1994C24.3656 14.6016 23.9633 14.7216 23.9633 14.7216C23.9633 14.7216 23.7224 15.2842 23.9633 15.5655C24.2043 15.8468 24.8475 15.3245 25.0884 14.8013C25.3294 14.2791 25.2094 12.912 25.0078 12.1882C24.8072 11.4644 24.4596 10.7962 23.8961 10.4746C23.8961 10.4746 24.4184 10.4746 24.5393 9.95236C24.6603 9.43012 24.0171 8.62564 23.0523 8.58532C22.0875 8.545 21.0824 8.98756 21.284 9.5098C21.4856 10.033 22.0088 9.95236 22.0088 9.95236Z" fill="#353535" stroke="#353535" stroke-width="0.096" stroke-miterlimit="10"/>
<path d="M22.3283 26.9222C22.3283 26.9222 22.1363 26.4105 22.0087 26.3462C21.881 26.2818 21.2781 27.1814 20.7923 27.7862C20.4611 28.199 20.056 29.0025 20.2807 29.4182C20.5043 29.8338 21.7207 30.1545 22.2007 29.9942C22.6807 29.8338 22.7123 29.3222 22.7123 28.7462C22.7123 28.1702 22.7767 27.3705 22.6807 27.1458C22.5847 26.9222 22.3283 26.9222 22.3283 26.9222Z" fill="#263238" stroke="#263238" stroke-width="0.096" stroke-miterlimit="10"/>
<path d="M21.3049 29.7388C21.3741 29.8607 21.5382 29.9625 21.7408 30.0316C21.9213 30.0441 22.0835 30.0345 22.2016 29.9951C22.6816 29.8348 22.7133 29.3231 22.7133 28.7471C22.7133 28.1711 22.7776 27.3714 22.6816 27.1468C22.5856 26.9231 22.3293 26.9231 22.3293 26.9231C22.3293 26.9231 21.1763 29.5141 21.3049 29.7388Z" fill="#3E4649" stroke="#263238" stroke-width="0.096" stroke-miterlimit="10"/>
<path d="M24.5063 17.1945C24.5063 17.1945 22.5546 24.6181 22.4586 25.1941C22.3626 25.7701 22.2666 27.6258 22.2666 27.6258H22.4586L22.6506 25.2258L24.7943 17.2578L24.5063 17.1945Z" fill="#263238" stroke="#263238" stroke-width="0.096" stroke-miterlimit="10"/>
<path d="M20.4685 23.8521C20.9985 23.711 22.6141 23.0016 22.6141 23.0016C22.6141 23.0016 22.6852 23.4614 22.5786 23.8502C22.473 24.239 21.3402 25.5341 20.5972 25.9152C19.5738 26.4393 19.0641 25.6368 19.1159 25.0733C19.1409 24.7968 19.1908 24.4205 19.3415 23.9683" fill="#7B7C7C"/>
<path d="M23.8905 22.3208C23.8905 22.3208 24.3043 22.3208 24.3667 22.4034C24.4291 22.4859 24.4493 22.9208 24.3254 22.9832C24.2016 23.0456 24.0566 22.9006 24.0566 22.7758C24.0566 22.651 23.8291 22.7134 23.8291 22.7134L23.8905 22.3208Z" fill="#FCDAC8" stroke="#666666" stroke-width="0.096" stroke-miterlimit="10" stroke-linecap="round" stroke-linejoin="round"/>
<path d="M22.2598 23.2492C22.2598 23.2492 22.5775 22.4716 22.7196 22.1528C22.8607 21.8351 23.1084 21.7285 23.215 21.7285C23.3206 21.7285 24.0281 22.1173 24.0281 22.2584C24.0281 22.3996 23.7804 23.4959 23.6038 23.6015C23.4271 23.7071 23.3916 23.8136 23.1794 23.8492C22.9673 23.8847 22.3663 23.6725 22.3663 23.6725C22.3663 23.6725 22.2598 23.638 22.2598 23.2492Z" fill="#FCDAC8" stroke="#666666" stroke-width="0.096" stroke-miterlimit="10" stroke-linecap="round" stroke-linejoin="round"/>
<path d="M23.9217 22.6482L23.0029 22.2239" stroke="#666666" stroke-width="0.096" stroke-miterlimit="10" stroke-linecap="round" stroke-linejoin="round"/>
<path d="M22.8965 22.8602L23.8162 23.1434" stroke="#666666" stroke-width="0.096" stroke-miterlimit="10" stroke-linecap="round" stroke-linejoin="round"/>
<path d="M22.9385 23.3354L23.6047 23.6023" stroke="#666666" stroke-width="0.096" stroke-miterlimit="10" stroke-linecap="round" stroke-linejoin="round"/>
<path d="M26.997 19.2893C26.997 19.2893 25.6184 16.92 24.7698 17.0621C23.9212 17.2032 23.9922 18.5117 24.5221 19.8201C25.052 21.1286 26.4316 24.1334 26.5372 24.3456C26.5372 24.3456 24.5922 24.4166 24.2744 24.3811C23.9567 24.3456 23.6735 24.24 23.6735 24.24C23.6735 24.24 23.1436 23.8512 22.7538 23.568C22.365 23.2848 22.1528 23.5325 22.1528 23.6736C22.1528 23.8147 22.1884 23.9568 22.1884 23.9568C22.1884 23.9568 22.0117 24.2745 22.0117 24.5933C22.0117 24.911 22.1173 25.0176 22.3295 25.1232C22.5416 25.2288 23.2136 25.1232 23.6725 25.1232C24.1324 25.1232 24.6623 25.4765 24.6623 25.4765C24.6623 25.4765 26.0053 26.2185 27.1372 26.2185C28.269 26.2185 28.94 25.7587 28.9756 24.5213C29.013 23.2848 26.997 19.2893 26.997 19.2893Z" fill="#FCDAC8" stroke="#666666" stroke-width="0.096" stroke-miterlimit="10" stroke-linecap="round" stroke-linejoin="round"/>
<path d="M26.9971 19.2893C26.9971 19.2893 25.6185 16.92 24.7699 17.0621C23.9213 17.2032 23.9923 18.5117 24.5222 19.8201C25.0521 21.1286 26.4317 24.1334 26.5373 24.3456C26.5373 24.3456 24.9869 24.4022 24.4291 24.3888L24.287 25.2758C24.5049 25.3718 24.6633 25.4765 24.6633 25.4765C24.6633 25.4765 26.0064 26.2185 27.1382 26.2185C28.2701 26.2185 28.9411 25.7587 28.9766 24.5213C29.0131 23.2848 26.9971 19.2893 26.9971 19.2893Z" fill="#767777" stroke="#666666" stroke-width="0.096" stroke-miterlimit="10" stroke-linecap="round" stroke-linejoin="round"/>
<path d="M26.8076 24.984L26.9075 25.2182" stroke="#666666" stroke-width="0.096" stroke-miterlimit="10" stroke-linecap="round" stroke-linejoin="round"/>
<path d="M26.5371 24.3456L26.7301 24.8035" stroke="#666666" stroke-width="0.096" stroke-miterlimit="10" stroke-linecap="round" stroke-linejoin="round"/>
<path d="M25.0359 24.3868C24.7949 24.3907 24.577 24.3926 24.4282 24.3888L24.2861 25.2758C24.5041 25.3718 24.6625 25.4764 24.6625 25.4764C24.6625 25.4764 24.722 25.5091 24.8266 25.5609L25.0359 24.3868Z" fill="#263238"/>
</g>
</g>
<defs>
<clipPath id="clip0_1146_49386">
<rect width="48" height="48" rx="24" fill="white"/>
</clipPath>
<clipPath id="clip1_1146_49386">
<rect width="48" height="48" fill="white"/>
</clipPath>
</defs>
</svg>
