<svg width="48" height="48" viewBox="0 0 48 48" fill="none" xmlns="http://www.w3.org/2000/svg">
<g clip-path="url(#clip0_1146_49384)">
<rect width="48" height="48" rx="24" fill="white"/>
<g clip-path="url(#clip1_1146_49384)">
<path opacity="0.43" d="M31.568 5.57385C31.568 5.57385 23.9514 2.58153 16.6669 6.80457C9.38243 11.0276 5.88323 19.7166 2.86403 26.6708C-0.154214 33.6251 1.88483 40.8414 7.62371 44.2657C13.3626 47.69 17.0768 42.9812 24.9987 42.9678C32.9207 42.9543 35.0845 44.1899 41.5386 39.7268C47.9927 35.2638 48.8874 24.3236 43.4797 16.0599C38.0711 7.79529 31.568 5.57385 31.568 5.57385Z" fill="#B7B7B6"/>
<path opacity="0.8" d="M13.261 22.3747C18.7554 22.3747 23.2095 17.9207 23.2095 12.4263C23.2095 6.93187 18.7554 2.47778 13.261 2.47778C7.76659 2.47778 3.3125 6.93187 3.3125 12.4263C3.3125 17.9207 7.76659 22.3747 13.261 22.3747Z" fill="#E8E8E8"/>
<g opacity="0.8">
<path d="M8.92406 9.11904C8.76566 8.6304 8.87702 8.20704 8.97782 7.73088C9.0623 7.3344 9.09782 6.57504 8.81558 6.27936C8.53334 5.98368 8.09174 5.9664 7.88726 6.144C7.63286 6.3648 7.53974 6.67296 7.52246 7.06176C7.4927 7.70112 7.70006 9.15552 7.68278 9.59232C7.6655 10.0282 8.92406 9.11904 8.92406 9.11904Z" fill="#474747"/>
<path d="M14.97 15.2631L14.3066 19.2058L14.7194 19.3613L15.0679 19.1453C15.0679 19.1453 15.4394 17.8311 15.5815 17.2762C15.7236 16.7203 15.7102 15.5664 15.7102 15.5664L14.97 15.2631Z" fill="#C4C4C4"/>
<path d="M14.3668 18.8812C14.3658 18.8812 14.3639 18.8803 14.3629 18.8803C14.3562 18.8793 14.3495 18.8832 14.3428 18.886C14.2381 18.9398 14.1412 19.0118 14.0452 19.079C13.953 19.1433 13.8608 19.2076 13.7668 19.2691C13.7274 19.295 13.6871 19.3209 13.6458 19.344C13.6237 19.3564 13.5978 19.3728 13.5719 19.3756C13.4692 19.3862 13.1994 19.3027 13.1332 19.4707C13.1082 19.534 13.0938 19.584 13.0861 19.6214C13.0736 19.678 13.0996 19.7347 13.1495 19.7644C13.2551 19.8268 13.4922 19.919 13.9703 19.9056C14.6874 19.8864 15.0541 19.8758 15.1444 19.8739C15.2346 19.871 15.2855 19.846 15.2999 19.799C15.3143 19.751 15.3076 19.6291 15.2749 19.4764C15.2528 19.3689 15.2221 19.1923 15.1636 19.0972C15.1357 19.0521 15.0714 19.0473 15.0368 19.0876C14.961 19.176 14.8285 19.2067 14.7162 19.1961C14.6384 19.1894 14.5578 19.1635 14.4964 19.1136C14.4656 19.0886 14.4416 19.0588 14.4253 19.0233C14.4061 18.983 14.41 18.9331 14.385 18.8956C14.3792 18.8899 14.3735 18.8841 14.3668 18.8812Z" fill="#666665"/>
<path d="M13.4951 19.5983L13.5719 19.3756C13.4692 19.3862 13.1994 19.3027 13.1332 19.4707C13.1082 19.534 13.0938 19.5839 13.0861 19.6214C13.0736 19.678 13.0996 19.7347 13.1495 19.7644C13.2551 19.8268 13.4922 19.919 13.9703 19.9055C14.6874 19.8863 15.0541 19.8758 15.1444 19.8739C15.2346 19.871 15.2855 19.846 15.2999 19.799C15.3104 19.7654 15.3095 19.6963 15.298 19.6051C15.296 19.6051 15.2932 19.6051 15.2912 19.606C13.9252 19.7683 13.4951 19.5983 13.4951 19.5983Z" fill="#E2E2E2"/>
<path d="M14.1209 18.984L14.0211 19.0512C14 19.0656 13.9933 19.0944 14.0077 19.1165C14.0422 19.1683 14.1017 19.2585 14.1296 19.2902C14.1699 19.3363 14.3091 19.2633 14.3053 19.2086C14.3033 19.176 14.2285 19.0589 14.1872 18.9974C14.1718 18.9753 14.1421 18.9696 14.1209 18.984Z" fill="#878787"/>
<path d="M13.8328 19.1511L13.733 19.2183C13.7119 19.2327 13.7052 19.2615 13.7196 19.2836C13.7541 19.3355 13.8136 19.4257 13.8415 19.4574C13.8818 19.5035 14.021 19.4305 14.0172 19.3758C14.0152 19.3431 13.9404 19.226 13.8991 19.1646C13.8847 19.1425 13.8549 19.1358 13.8328 19.1511Z" fill="#878787"/>
<path d="M18.6025 16.4841L20.2806 18.7555L20.6541 18.7027L20.8269 18.3072C20.8269 18.3072 20.0713 16.7481 19.6432 16.2345C19.216 15.7219 19.0729 15.6288 19.0729 15.6288L18.6025 16.4841Z" fill="#C4C4C4"/>
<path d="M20.0955 18.4943C20.0946 18.4943 20.0927 18.4953 20.0917 18.4962C20.085 18.4991 20.0811 18.5058 20.0783 18.5116C20.0197 18.6134 19.9784 18.7266 19.9333 18.8361C19.8911 18.9398 19.8488 19.0444 19.8037 19.1471C19.7845 19.1903 19.7653 19.2335 19.7432 19.2758C19.7317 19.2978 19.7192 19.3266 19.6991 19.343C19.6194 19.4073 19.3467 19.485 19.3832 19.6617C19.3967 19.7289 19.412 19.7778 19.4255 19.8134C19.4456 19.8671 19.4984 19.9017 19.556 19.8988C19.6779 19.894 19.9275 19.8412 20.3211 19.5695C20.9115 19.1615 21.213 18.9542 21.2879 18.9023C21.3627 18.8505 21.3915 18.8025 21.3771 18.7545C21.3637 18.7065 21.2907 18.6086 21.1803 18.4972C21.1026 18.4185 20.9807 18.287 20.8799 18.2399C20.8319 18.2169 20.7752 18.2486 20.7685 18.3014C20.7531 18.4166 20.6591 18.5145 20.5592 18.5673C20.4901 18.6038 20.4085 18.6268 20.3298 18.6182C20.2914 18.6143 20.2539 18.6018 20.2203 18.5817C20.1819 18.5586 20.1589 18.5145 20.1167 18.4972C20.1109 18.4943 20.1023 18.4924 20.0955 18.4943Z" fill="#666665"/>
<path d="M19.7567 19.5715L19.6991 19.343C19.6194 19.4073 19.3467 19.4851 19.3832 19.6617C19.3967 19.7289 19.412 19.7779 19.4255 19.8134C19.4456 19.8672 19.4984 19.9017 19.556 19.8989C19.6779 19.8941 19.9275 19.8413 20.3202 19.5696C20.9106 19.1616 21.212 18.9542 21.2869 18.9024C21.3618 18.8505 21.3906 18.8025 21.3762 18.7545C21.3666 18.7209 21.3282 18.6633 21.2687 18.5933C21.2667 18.5942 21.2648 18.5961 21.2629 18.5971C20.2098 19.4784 19.7567 19.5715 19.7567 19.5715Z" fill="#E2E2E2"/>
<path d="M19.9455 18.7143L19.8985 18.8256C19.8879 18.8496 19.8994 18.8775 19.9225 18.8871C19.9801 18.912 20.079 18.9543 20.1193 18.9658C20.1788 18.9821 20.2546 18.8458 20.222 18.8016C20.2018 18.7757 20.0761 18.7191 20.0079 18.6893C19.983 18.6797 19.9551 18.6903 19.9455 18.7143Z" fill="#878787"/>
<path d="M19.7961 19.0109L19.7491 19.1223C19.7385 19.1463 19.75 19.1741 19.7731 19.1837C19.8307 19.2087 19.9295 19.2509 19.9699 19.2624C20.0294 19.2787 20.1052 19.1424 20.0726 19.0983C20.0524 19.0723 19.9267 19.0157 19.8585 18.9859C19.8335 18.9763 19.8057 18.9869 19.7961 19.0109Z" fill="#878787"/>
<path d="M19.4265 11.5968C19.4265 11.5968 19.7029 12.0029 19.6972 12.6432C19.6914 13.2422 19.174 15.0288 19.174 15.0288C19.174 15.0288 19.9468 16.1395 19.942 16.2874C19.9372 16.4342 18.9964 17.209 18.8025 17.0947C18.6076 16.9805 17.8569 15.8899 17.7551 15.5107C17.6466 15.1075 17.6773 14.1034 17.6773 14.1034C17.6773 14.1034 16.3468 15.2016 16.2383 15.4426C16.1298 15.6835 15.8965 17.1811 15.8965 17.1811C15.5433 17.4586 14.614 17.2051 14.3721 16.9488C14.3721 16.9488 14.6639 15.1142 14.8204 14.7533C14.9769 14.3923 16.6127 12.5875 16.6127 12.5875C17.6217 12.5242 18.5874 12.048 19.4265 11.5968Z" fill="#8E8E8E"/>
<path opacity="0.2" d="M17.6761 14.1235C17.6646 14.1235 17.655 14.1139 17.655 14.1024L17.6608 13.4381L17.344 13.5216C17.3325 13.5245 17.3209 13.5177 17.3181 13.5072C17.3152 13.4957 17.3219 13.4841 17.3325 13.4813L17.6752 13.391C17.6819 13.3891 17.6886 13.391 17.6934 13.3949C17.6982 13.3987 17.7011 13.4054 17.7011 13.4112L17.6953 14.1033C17.6973 14.1139 17.6877 14.1235 17.6761 14.1235Z" fill="black"/>
<path opacity="0.2" d="M15.5725 16.847C14.9831 16.847 14.48 16.5667 14.4743 16.5638C14.4647 16.5581 14.4608 16.5456 14.4666 16.535C14.4723 16.5254 14.4848 16.5216 14.4954 16.5274C14.5021 16.5312 15.2019 16.921 15.9114 16.7712C15.9229 16.7693 15.9335 16.776 15.9363 16.7875C15.9383 16.799 15.9315 16.8096 15.92 16.8125C15.8029 16.8365 15.6858 16.847 15.5725 16.847Z" fill="black"/>
<path opacity="0.2" d="M18.5921 16.8326C18.5825 16.8326 18.5739 16.8259 18.572 16.8172C18.5691 16.8057 18.5758 16.7951 18.5873 16.7923C18.594 16.7903 19.2593 16.6127 19.7192 15.9878C19.7259 15.9782 19.7393 15.9763 19.748 15.983C19.7576 15.9897 19.7595 16.0031 19.7528 16.0118C19.2843 16.6492 18.6046 16.8297 18.5979 16.8316C18.595 16.8326 18.594 16.8326 18.5921 16.8326Z" fill="black"/>
<path d="M16.3598 7.13465L17.1624 8.66105L16.38 9.06809L15.6494 7.72121C15.6494 7.72025 16.2638 7.10585 16.3598 7.13465Z" fill="#C4C4C4"/>
<path d="M16.3525 7.37182C16.4783 7.35742 16.4898 6.82462 16.4072 6.50302C16.3266 6.1891 16.1932 5.92318 15.9042 5.7859C15.6479 5.66398 15.4012 5.7667 15.4012 5.7667C15.4012 5.7667 15.4511 5.64574 15.7026 5.66014C15.4511 5.55838 15.2946 5.65534 15.2754 5.77438C15.2687 5.67934 15.1564 5.66494 15.0479 5.69566C15.0479 5.69566 15.1237 5.72446 15.164 5.7715C15.164 5.7715 14.6792 5.5363 14.4133 5.68318C14.1474 5.83006 13.9957 6.15358 14.0668 6.32926C14.0668 6.32926 13.9208 6.72286 14.205 6.9811L15.2015 6.2419L15.9138 7.43902L16.3525 7.37182Z" fill="#474747"/>
<path d="M16.2904 6.56929C16.5505 7.04833 16.3009 7.84129 15.8363 8.28385C15.5473 8.55937 15.2641 8.65921 14.955 8.35681C14.7688 8.17537 14.6382 7.95265 14.4193 7.54945C14.2014 7.14721 13.924 6.42529 14.6891 6.01057C15.2536 5.70529 15.868 5.78977 16.2904 6.56929Z" fill="#C4C4C4"/>
<path d="M15.9317 8.20599C15.9269 8.20599 15.9221 8.20407 15.9183 8.20119C15.9096 8.19351 15.9087 8.18007 15.9163 8.17143C16.0536 8.01687 16.1688 7.82775 16.2504 7.62615C16.2552 7.61559 16.2667 7.60983 16.2773 7.61463C16.2879 7.61847 16.2936 7.63095 16.2888 7.64151C16.2063 7.84695 16.0882 8.03991 15.948 8.19831C15.9432 8.20407 15.9375 8.20599 15.9317 8.20599Z" fill="#707070"/>
<path d="M14.4619 7.61475C14.5426 7.72035 14.556 8.02179 14.5819 8.09859C14.6078 8.17635 14.8814 8.05827 14.8814 8.05827L14.4619 7.61475Z" fill="#C4C4C4"/>
<path d="M14.4072 7.52646C14.3812 7.48902 14.3467 7.40454 14.3467 7.40454C14.363 7.37382 14.3707 7.35654 14.4024 7.32774C14.4984 7.24326 14.6088 7.22022 14.6289 7.25286C14.65 7.28646 14.5752 7.3671 14.4964 7.44774C14.4619 7.48326 14.435 7.50534 14.4072 7.52646Z" fill="#707070"/>
<path d="M14.6825 5.99519C14.2054 6.25343 13.9155 6.67391 14.0115 6.85919C14.1075 7.04447 14.2985 7.12319 14.4838 7.04831C14.6441 6.98399 14.5836 6.80255 14.5836 6.80255C14.5836 6.80255 14.6729 6.98399 14.8256 6.98783C14.9792 6.99167 15.1395 6.88127 15.1395 6.88127C15.1395 6.88127 15.2028 7.08287 15.3248 7.16351C15.4534 7.24895 15.6809 7.30559 15.6809 7.30559C15.6809 7.30559 15.7088 7.04447 15.7961 7.05503C15.8067 7.13087 15.7779 7.21823 15.8537 7.22303C15.9785 7.23071 15.7798 7.17983 15.8921 7.12415C15.9555 7.21823 16.0659 7.40063 16.1993 7.42463C16.3328 7.44863 16.3961 7.37471 16.4412 7.26815C16.4787 7.17983 16.4067 6.70943 16.2848 6.48479C15.8566 5.69567 15.2537 5.68607 14.6825 5.99519Z" fill="#474747"/>
<path d="M16.1619 7.20866C16.1868 7.41506 16.0803 7.59746 15.9248 7.6157C15.7692 7.63394 15.6233 7.48226 15.5993 7.27586C15.5744 7.06946 15.6809 6.88706 15.8364 6.86882C15.991 6.84962 16.1369 7.00226 16.1619 7.20866Z" fill="#C4C4C4"/>
<path d="M15.9077 7.41128C15.9048 7.41128 15.9019 7.41032 15.899 7.40936C15.8885 7.40456 15.8846 7.39208 15.8894 7.38152C15.9653 7.22408 15.9547 7.13288 15.9192 7.10024C15.9077 7.08968 15.8971 7.08488 15.8866 7.08584C15.8702 7.08776 15.8549 7.10216 15.8501 7.10792C15.8434 7.11752 15.8299 7.11848 15.8213 7.11176C15.8117 7.10504 15.8098 7.0916 15.8165 7.08296C15.8194 7.07912 15.8434 7.04744 15.8818 7.0436C15.9048 7.04168 15.9269 7.05032 15.947 7.06856C16.0075 7.12424 15.9989 7.24808 15.9259 7.3988C15.9221 7.40744 15.9154 7.41128 15.9077 7.41128Z" fill="#707070"/>
<path d="M14.5255 7.6895C14.5217 7.6895 14.5188 7.68854 14.515 7.68758C14.4967 7.68182 14.4871 7.66262 14.4929 7.64438C14.5063 7.6031 14.5409 7.56758 14.5879 7.54934C14.6426 7.52822 14.7031 7.53302 14.7588 7.5647C14.7751 7.5743 14.7809 7.59542 14.7713 7.61174C14.7617 7.62806 14.7406 7.63382 14.7242 7.62518C14.6743 7.59734 14.633 7.60598 14.6129 7.61366C14.586 7.62422 14.5658 7.64342 14.5591 7.6655C14.5543 7.68086 14.5409 7.6895 14.5255 7.6895Z" fill="#707070"/>
<path d="M14.9211 8.32227C14.8855 8.28483 14.851 8.24547 14.8174 8.20227L14.9393 8.10819C14.9739 8.08131 15.0238 8.08803 15.0497 8.12259C15.0756 8.15715 15.0699 8.20707 15.0353 8.23299L14.9211 8.32227Z" fill="white"/>
<path d="M12.4648 9.64792C12.314 9.5692 12.1537 9.48856 12.0712 9.44056C11.9886 9.39256 11.9291 9.05944 11.8801 8.98936C11.8312 8.91928 11.642 8.92888 11.572 8.90776C11.5009 8.88664 11.378 8.8972 11.3032 8.99512C11.2283 9.09304 11.09 9.29848 11.0814 9.38392C11.0728 9.4684 11.2254 9.53848 11.4193 9.66232C11.6123 9.78616 11.7755 9.79192 11.8638 9.86488C11.9521 9.93784 12.1259 10.0194 12.1259 10.0194L12.4648 9.64792Z" fill="#C4C4C4"/>
<path d="M11.4899 9.16897C11.4775 9.16897 11.4659 9.16705 11.4554 9.16321C11.4285 9.15361 11.4131 9.13441 11.4122 9.10849C11.4103 9.05377 11.4467 8.97217 11.5514 8.90593C11.5571 8.90209 11.5648 8.90401 11.5677 8.90977C11.5715 8.91553 11.5696 8.92321 11.5639 8.92609C11.4679 8.98657 11.4343 9.06241 11.4362 9.10753C11.4371 9.12673 11.4515 9.13537 11.4631 9.14017C11.4909 9.14977 11.5274 9.14209 11.5427 9.12385C11.5763 9.08545 11.6234 9.03361 11.6243 9.03265C11.6291 9.02785 11.6368 9.02785 11.6416 9.03169C11.6464 9.03649 11.6464 9.04417 11.6426 9.04897C11.6416 9.04993 11.5946 9.10081 11.5619 9.13921C11.5447 9.15937 11.5159 9.16897 11.4899 9.16897Z" fill="#AAA9A9"/>
<path d="M11.4112 9.47514C11.3574 9.47514 11.3037 9.4185 11.3008 9.41562C11.296 9.41082 11.297 9.40314 11.3018 9.39834C11.3066 9.39354 11.3142 9.3945 11.319 9.3993C11.3373 9.4185 11.3939 9.46554 11.4314 9.4473C11.4602 9.4329 11.4784 9.41274 11.4813 9.39162C11.4842 9.37146 11.4755 9.35034 11.4534 9.32922C11.4534 9.32922 11.3661 9.25434 11.3075 9.2361C11.2691 9.22458 11.2221 9.26874 11.1683 9.32058C11.1472 9.34074 11.1261 9.3609 11.1021 9.38106C11.0973 9.3849 11.0896 9.3849 11.0848 9.3801C11.081 9.3753 11.081 9.36762 11.0858 9.36282C11.1088 9.34362 11.1299 9.3225 11.151 9.3033C11.2106 9.24666 11.2624 9.1977 11.3142 9.21306C11.3776 9.23226 11.4659 9.3081 11.4698 9.31098C11.5043 9.34554 11.5082 9.37626 11.5053 9.39546C11.5005 9.42426 11.4784 9.45018 11.4419 9.46842C11.4314 9.47322 11.4208 9.47514 11.4112 9.47514Z" fill="#AAA9A9"/>
<path d="M11.4945 9.37621C11.4926 9.37621 11.4897 9.37525 11.4878 9.37429C11.4821 9.37045 11.4811 9.36277 11.4849 9.35797C11.4859 9.35701 11.5425 9.27349 11.4965 9.21205C11.4446 9.15541 11.3573 9.08245 11.3285 9.09781C11.2843 9.12085 11.2613 9.14197 11.1989 9.19765L11.1825 9.21301C11.1777 9.21781 11.1701 9.21685 11.1653 9.21205C11.1605 9.20725 11.1614 9.19957 11.1662 9.19477L11.1825 9.17941C11.244 9.12373 11.2699 9.10069 11.3169 9.07573C11.3726 9.04693 11.4907 9.17077 11.5137 9.19669C11.5723 9.27253 11.507 9.36757 11.5041 9.37141C11.5022 9.37429 11.4984 9.37621 11.4945 9.37621Z" fill="#AAA9A9"/>
<path d="M11.279 9.0489C11.2761 9.0489 11.2742 9.04794 11.2723 9.04602C11.2675 9.04218 11.2656 9.0345 11.2704 9.0297C11.2732 9.02586 11.3404 8.93754 11.4163 8.96538C11.4633 8.98266 11.4691 8.98458 11.4691 8.98458C11.4748 8.98746 11.4777 8.99418 11.4758 8.99994C11.4729 9.0057 11.4662 9.00954 11.4604 9.00666C11.4604 9.00666 11.4528 9.00378 11.4086 8.98746C11.35 8.96634 11.2905 9.04314 11.2896 9.0441C11.2857 9.04698 11.2828 9.0489 11.279 9.0489Z" fill="#AAA9A9"/>
<path d="M11.5313 9.24374C11.5284 9.24374 11.5256 9.24278 11.5236 9.24086C11.5188 9.23606 11.5179 9.22934 11.5227 9.22358C11.5457 9.1967 11.5822 9.14486 11.5793 9.11894C11.5784 9.11318 11.5764 9.11126 11.5745 9.10934C11.5697 9.1055 11.5688 9.09782 11.5726 9.09206C11.5764 9.08726 11.5841 9.0863 11.5889 9.09014C11.5966 9.0959 11.6014 9.1055 11.6024 9.11606C11.6062 9.16022 11.5467 9.2303 11.539 9.23798C11.538 9.24278 11.5352 9.24374 11.5313 9.24374Z" fill="#AAA9A9"/>
<path d="M15.981 8.32703C15.981 8.32703 14.733 9.37343 14.1992 9.89471L12.0123 9.29087L11.6514 9.81983C11.6514 9.81983 13.9208 10.896 14.2894 10.8057C14.6581 10.7155 16.1989 9.58943 16.1989 9.58943C16.1029 9.03839 15.981 8.32703 15.981 8.32703Z" fill="#606060"/>
<path d="M20.4567 10.5725C20.4567 10.6973 20.45 10.9056 20.498 11.0381C20.546 11.1705 20.6343 11.5296 20.6017 11.6285C20.569 11.7273 20.2186 11.8627 20.0909 11.8694C19.9633 11.8761 19.8797 11.8771 19.8298 11.8445C19.7799 11.8128 19.8173 11.6755 19.8087 11.6381C19.8001 11.6006 19.7041 11.5747 19.6666 11.5113C19.6282 11.448 19.7175 11.2867 19.7569 11.2022C19.7962 11.1158 19.8605 10.9824 19.9076 10.8902C19.9546 10.7981 19.8778 10.5417 19.8778 10.5417L20.4567 10.5725Z" fill="#C4C4C4"/>
<path d="M20.041 11.8751C20.0391 11.8751 20.0381 11.8751 20.0362 11.8742C20.0247 11.8713 20.0179 11.8607 20.0199 11.8492L20.0611 11.6611C20.064 11.6495 20.0746 11.6428 20.0861 11.6447C20.0976 11.6476 20.1043 11.6582 20.1024 11.6697L20.0611 11.8579C20.0592 11.8684 20.0506 11.8751 20.041 11.8751Z" fill="#AAA9A9"/>
<path d="M20.2421 11.8319C20.2402 11.8319 20.2393 11.8319 20.2373 11.8319C20.2258 11.8291 20.2191 11.8185 20.221 11.807L20.2556 11.6476C20.2585 11.6361 20.269 11.6294 20.2805 11.6313C20.2921 11.6342 20.2988 11.6447 20.2969 11.6563L20.2623 11.8156C20.2604 11.8252 20.2517 11.8319 20.2421 11.8319Z" fill="#AAA9A9"/>
<path d="M20.4665 11.7408H20.4656C20.454 11.7399 20.4454 11.7303 20.4464 11.7187L20.455 11.5699C20.456 11.5584 20.4665 11.5498 20.4771 11.5507C20.4886 11.5517 20.4972 11.5613 20.4963 11.5728L20.4876 11.7216C20.4867 11.7322 20.4771 11.7408 20.4665 11.7408Z" fill="#AAA9A9"/>
<path d="M19.8258 11.7484C19.8143 11.7484 19.8047 11.7388 19.8047 11.7273C19.8047 11.6995 19.8095 11.5603 19.8642 11.5199C19.8796 11.5084 19.8968 11.5055 19.916 11.5113C19.9717 11.5276 19.9573 11.6198 19.9544 11.638C19.9525 11.6495 19.941 11.6563 19.9304 11.6543C19.9189 11.6524 19.9112 11.6409 19.9141 11.6303C19.9208 11.5967 19.918 11.5545 19.9055 11.5507C19.8997 11.5487 19.8949 11.5497 19.8901 11.5526C19.8623 11.5727 19.8488 11.6668 19.8479 11.7263C19.8469 11.7398 19.8373 11.7484 19.8258 11.7484Z" fill="#AAA9A9"/>
<path d="M16.5655 7.99976C16.5454 7.9796 19.818 7.63015 20.2759 7.94311C20.6282 8.18407 20.5764 10.9508 20.5764 10.9508L19.8305 10.9633L19.5895 8.86952L17.9114 9.00199L16.5655 7.99976Z" fill="#606060"/>
<path d="M16.1367 8.11308C16.5073 7.87116 17.2858 7.94796 17.5469 8.19852C17.8887 8.52588 18.3639 8.7438 18.7585 9.60876C19.2106 10.6004 19.8461 11.9099 19.7271 12.0452C19.6263 12.1595 18.9581 12.6011 18.2881 12.5579C17.5172 12.5089 16.6801 12.6347 16.61 12.5857C16.4833 12.4964 16.5706 11.6526 16.4429 11.0123C16.3306 10.4497 16.1789 10.084 16.0081 9.45708C15.8381 8.8302 15.7661 8.35596 16.1367 8.11308Z" fill="#606060"/>
<path d="M8.37647 8.31058C8.37647 8.31058 8.02703 8.23283 7.88879 7.94867C7.75055 7.66547 7.60271 7.57522 7.56239 7.31506C7.52303 7.05394 7.60559 6.86674 7.60559 6.86674C7.60559 6.86674 7.42799 6.5749 7.79855 6.37042C7.79855 6.37042 7.86575 5.95378 8.26415 5.89522C8.26415 5.89522 8.33807 5.73298 8.53103 5.78578C8.53103 5.78578 8.69807 5.53714 8.93519 5.6821C8.93519 5.6821 9.40847 5.47954 9.69647 5.85778C9.69647 5.85778 10.165 5.93747 9.97007 6.42995C9.77615 6.92339 8.37647 8.31058 8.37647 8.31058Z" fill="#474747"/>
<path d="M8.30273 8.05332L8.77505 9.71124L9.90881 9.40404L9.50849 7.92468C9.50753 7.92468 8.35265 7.96596 8.30273 8.05332Z" fill="#C4C4C4"/>
<path d="M7.96234 7.59632C8.10538 8.12144 8.8321 8.52464 9.47434 8.52464C9.87274 8.52464 10.1473 8.40176 10.1627 7.9688C10.1713 7.70864 10.1127 7.45712 9.9937 7.01552C9.8737 6.57392 9.57706 5.86064 8.73706 6.0872C8.1169 6.2552 7.73098 6.74096 7.96234 7.59632Z" fill="#C4C4C4"/>
<path d="M9.47473 8.54484C9.47377 8.54484 9.47377 8.54484 9.47473 8.54484C9.22417 8.54484 8.95153 8.48339 8.70481 8.37107C8.69425 8.36627 8.68945 8.3538 8.69425 8.34324C8.69905 8.33268 8.71153 8.32788 8.72209 8.33268C8.96305 8.44212 9.22993 8.5026 9.47473 8.5026C9.54097 8.5026 9.60145 8.49876 9.65617 8.49204C9.66769 8.49108 9.67825 8.49876 9.67921 8.51028C9.68113 8.5218 9.67249 8.53236 9.66097 8.53332C9.60433 8.54196 9.54193 8.54484 9.47473 8.54484Z" fill="#707070"/>
<path d="M10.0078 7.09033C10.0222 7.22281 10.22 7.44937 10.2545 7.52425C10.2891 7.59913 10.0097 7.70089 10.0097 7.70089L10.0078 7.09033Z" fill="#C4C4C4"/>
<path d="M9.98561 6.98864C9.97793 6.94352 9.94529 6.85904 9.94529 6.85904C9.91265 6.84848 9.89537 6.8408 9.85217 6.84176C9.72449 6.84656 9.62849 6.90608 9.63617 6.94352C9.64385 6.98288 9.75425 6.9896 9.86657 6.99344C9.91745 6.99632 9.95201 6.99344 9.98561 6.98864Z" fill="#707070"/>
<path d="M9.86476 6.52792C9.65452 6.18232 9.40204 5.8684 8.79916 6.0316C8.10796 6.2188 7.67787 6.75928 7.93611 7.71256C7.99563 7.93144 8.17324 8.12824 8.37676 8.31064C8.49292 8.22808 8.60427 7.95544 8.71467 7.68088C8.71467 7.68088 8.3854 7.65112 8.67532 7.60696C8.96524 7.5628 8.95276 7.32472 8.95276 7.32472C9.18604 7.26136 9.17355 7.05784 9.17355 7.05784C9.47307 6.98584 9.59595 6.6316 9.59595 6.6316C9.59595 6.6316 9.7342 6.62968 9.86476 6.52792Z" fill="#474747"/>
<path d="M8.49644 7.96991C8.62124 8.13599 8.8238 8.19455 8.9486 8.10143C9.0734 8.00735 9.07436 7.79711 8.94956 7.63007C8.82476 7.46303 8.6222 7.40543 8.4974 7.49855C8.3726 7.59263 8.37164 7.80383 8.49644 7.96991Z" fill="#C4C4C4"/>
<path d="M8.8064 7.94688C8.80352 7.94688 8.80161 7.94688 8.79873 7.94592C8.64225 7.88736 8.55104 7.80288 8.55584 7.72128C8.55776 7.69344 8.56737 7.67232 8.58561 7.65792C8.61537 7.63392 8.65568 7.64064 8.65952 7.64064C8.67104 7.64256 8.67872 7.65312 8.6768 7.66464C8.67488 7.67616 8.66432 7.68384 8.6528 7.68192C8.64608 7.68096 8.624 7.68 8.61152 7.69056C8.60288 7.69728 8.59808 7.70784 8.59808 7.7232C8.5952 7.7712 8.65088 7.84512 8.81408 7.90656C8.82464 7.9104 8.8304 7.92288 8.82656 7.93344C8.82272 7.94208 8.81504 7.94688 8.8064 7.94688Z" fill="#707070"/>
<path d="M9.81832 7.24507C9.81256 7.24507 9.80584 7.24315 9.80104 7.24027C9.78472 7.23067 9.77896 7.20955 9.78952 7.19323C9.8116 7.15579 9.85096 7.12892 9.89704 7.11836C9.94696 7.1078 9.9988 7.11835 10.043 7.14907C10.0583 7.15963 10.0622 7.18171 10.0516 7.19707C10.041 7.21243 10.019 7.21627 10.0036 7.20571C9.97576 7.18555 9.94216 7.17883 9.91144 7.18555C9.88456 7.19131 9.86152 7.20763 9.84904 7.22779C9.84136 7.23931 9.82984 7.24507 9.81832 7.24507Z" fill="#707070"/>
<path d="M10.1625 7.91987C10.1625 7.86803 10.1596 7.81523 10.1548 7.76147L10.0022 7.77779C9.959 7.78259 9.92732 7.82195 9.93212 7.86515C9.93692 7.90835 9.97628 7.94004 10.0195 7.93524L10.1625 7.91987Z" fill="white"/>
<path d="M7.81232 18.045L7.34576 19.1481L7.0808 19.2124L6.66992 18.9724L7.0568 18.3052L7.81232 18.045Z" fill="#C4C4C4"/>
<path d="M7.46147 18.7535C7.46243 18.7535 7.46435 18.7526 7.46531 18.7526C7.47203 18.7526 7.47875 18.7554 7.48451 18.7593C7.58627 18.8188 7.67843 18.8966 7.77059 18.9686C7.85891 19.0377 7.94723 19.1078 8.03747 19.175C8.07587 19.2028 8.11331 19.2306 8.15363 19.2566C8.17475 19.27 8.19971 19.2882 8.22563 19.293C8.32739 19.3094 8.60195 19.2422 8.65859 19.413C8.67971 19.4783 8.69123 19.5282 8.69699 19.5657C8.70563 19.6223 8.67683 19.678 8.62595 19.7049C8.51747 19.7615 8.27555 19.8393 7.79843 19.799C7.08323 19.7385 6.71843 19.7078 6.62819 19.7001C6.53795 19.6924 6.48899 19.6646 6.47747 19.6166C6.46595 19.5686 6.48035 19.4466 6.52067 19.2959C6.54947 19.1894 6.58979 19.0146 6.65315 18.9234C6.68387 18.8793 6.74819 18.8793 6.78083 18.9215C6.85187 19.0137 6.98243 19.0521 7.09475 19.0482C7.17347 19.0454 7.25507 19.0252 7.31939 18.9782C7.35107 18.9551 7.37699 18.9263 7.39619 18.8927C7.41731 18.8534 7.41635 18.8034 7.44419 18.7679C7.44803 18.7612 7.45379 18.7554 7.46147 18.7535Z" fill="#666665"/>
<path d="M8.29129 19.5197L8.22697 19.2931C8.32873 19.3094 8.60329 19.2422 8.65993 19.4131C8.68105 19.4784 8.69257 19.5283 8.69833 19.5657C8.70697 19.6224 8.67817 19.6781 8.62729 19.7049C8.51881 19.7616 8.27689 19.8393 7.79977 19.799C7.08457 19.7385 6.71977 19.7078 6.62953 19.7001C6.53929 19.6925 6.49033 19.6646 6.47881 19.6166C6.47017 19.583 6.47497 19.5139 6.49225 19.4237C6.49417 19.4237 6.49705 19.4246 6.49897 19.4246C7.85161 19.6646 8.29129 19.5197 8.29129 19.5197Z" fill="#919191"/>
<path d="M7.70006 18.8697L7.79606 18.9427C7.81718 18.958 7.82102 18.9878 7.80566 19.0089C7.76822 19.0588 7.7039 19.1452 7.67414 19.175C7.63094 19.2191 7.49654 19.1375 7.50422 19.0838C7.50806 19.0511 7.58966 18.9388 7.63478 18.8793C7.65014 18.8582 7.6799 18.8543 7.70006 18.8697Z" fill="#878787"/>
<path d="M7.97741 19.0532L8.07341 19.1261C8.09453 19.1415 8.09837 19.1712 8.08301 19.1924C8.04557 19.2423 7.98125 19.3287 7.95149 19.3584C7.90829 19.4026 7.77389 19.321 7.78157 19.2672C7.78541 19.2346 7.86701 19.1223 7.91213 19.0628C7.92749 19.0416 7.95725 19.0378 7.97741 19.0532Z" fill="#878787"/>
<path d="M12.6932 17.6284L12.1815 19.2892L11.9223 19.3699L11.4961 19.1577L11.7323 17.9366L12.6932 17.6284Z" fill="#C4C4C4"/>
<path d="M12.2728 18.888C12.2738 18.888 12.2757 18.887 12.2767 18.887C12.2834 18.8861 12.2901 18.8889 12.2968 18.8928C12.4024 18.9456 12.4994 19.0166 12.5963 19.0829C12.6895 19.1462 12.7816 19.2105 12.8767 19.271C12.916 19.2969 12.9563 19.3219 12.9976 19.3449C13.0197 19.3574 13.0456 19.3737 13.0715 19.3766C13.1743 19.3862 13.444 19.3008 13.5112 19.4678C13.5371 19.5312 13.5515 19.5811 13.5602 19.6176C13.5727 19.6733 13.5477 19.7318 13.4987 19.7616C13.3941 19.8249 13.1579 19.919 12.6799 19.9094C11.9627 19.896 11.596 19.8883 11.5058 19.8873C11.4155 19.8854 11.3647 19.8614 11.3493 19.8134C11.3349 19.7654 11.3407 19.6435 11.3714 19.4909C11.3925 19.3824 11.4213 19.2057 11.4799 19.1107C11.5077 19.0646 11.572 19.0598 11.6066 19.1001C11.6834 19.1875 11.8159 19.2173 11.9282 19.2067C12.0059 19.199 12.0866 19.1731 12.1471 19.1222C12.1768 19.0973 12.2008 19.0665 12.2181 19.032C12.2373 18.9917 12.2325 18.9417 12.2575 18.9043C12.2603 18.8966 12.2661 18.8899 12.2728 18.888Z" fill="#666665"/>
<path d="M13.1496 19.5984L13.0709 19.3756C13.1736 19.3852 13.4433 19.2998 13.5105 19.4668C13.5365 19.5302 13.5509 19.5801 13.5595 19.6166C13.572 19.6723 13.547 19.7308 13.4981 19.7606C13.3934 19.824 13.1573 19.9171 12.6792 19.9084C11.9621 19.895 11.5953 19.8873 11.5051 19.8864C11.4149 19.8844 11.364 19.8604 11.3486 19.8124C11.3381 19.7788 11.3381 19.7097 11.3496 19.6185C11.3515 19.6185 11.3544 19.6185 11.3563 19.6195C12.7205 19.7712 13.1496 19.5984 13.1496 19.5984Z" fill="#919191"/>
<path d="M12.5184 18.9878L12.6192 19.0541C12.6413 19.0685 12.6471 19.0973 12.6327 19.1193C12.5991 19.1721 12.5395 19.2614 12.5117 19.2941C12.4714 19.3401 12.3322 19.2681 12.336 19.2134C12.3379 19.1808 12.4119 19.0637 12.4522 19.0013C12.4675 18.9801 12.4963 18.9744 12.5184 18.9878Z" fill="#878787"/>
<path d="M12.8075 19.1529L12.9083 19.2192C12.9304 19.2336 12.9361 19.2624 12.9217 19.2844C12.8881 19.3372 12.8286 19.4265 12.8008 19.4592C12.7604 19.5052 12.6212 19.4332 12.6251 19.3785C12.627 19.3459 12.7009 19.2288 12.7412 19.1664C12.7566 19.1443 12.7854 19.1385 12.8075 19.1529Z" fill="#878787"/>
<path d="M7.91193 13.2231C7.53945 13.968 8.69337 16.1357 8.69337 16.1357L6.56313 18.6519C6.54585 18.6749 6.56025 18.7085 6.58905 18.7123C6.97497 18.768 7.37529 18.7613 7.78617 18.7027C7.78617 18.7027 9.93561 16.8154 10.1055 16.3191C10.2495 15.8986 9.90489 14.3885 9.90489 14.3885L11.6943 16.1031L11.3218 18.865C11.7231 19.008 12.1119 19.0455 12.4767 18.865C12.4767 18.865 13.2495 16.0032 13.0278 15.4167C12.8022 14.8205 10.4195 12.7296 10.4195 12.7296L7.91193 13.2231Z" fill="#606060"/>
<path opacity="0.2" d="M9.90487 14.4086C9.89527 14.4086 9.88663 14.4019 9.88471 14.3923L9.74935 13.7155C9.74743 13.704 9.75415 13.6934 9.76567 13.6905C9.77719 13.6886 9.78775 13.6953 9.79063 13.7068L9.92599 14.3836C9.92791 14.3952 9.92119 14.4057 9.90967 14.4086C9.90679 14.4086 9.90583 14.4086 9.90487 14.4086Z" fill="black"/>
<path d="M13.8574 6.29001C14.0629 6.20937 14.0917 5.82249 14.1464 5.72457C14.2021 5.62665 14.3086 5.53833 14.4075 5.54697C14.5054 5.55561 14.7598 5.59017 14.8213 5.65929C14.8837 5.72937 14.9653 6.00777 14.8865 6.08169C14.8088 6.15561 14.6465 6.17001 14.6465 6.17001C14.6465 6.17001 14.5861 6.29961 14.5035 6.36009C14.4209 6.41961 14.0686 6.58953 14.0686 6.58953L13.8574 6.29001Z" fill="#C4C4C4"/>
<path d="M14.6471 6.19117C14.6346 6.19117 14.626 6.18157 14.626 6.17005L14.6289 6.05965C14.6289 6.04813 14.6385 6.03854 14.65 6.0395C14.6615 6.0395 14.6701 6.0491 14.6701 6.06062L14.6673 6.17101C14.6682 6.18253 14.6586 6.19117 14.6471 6.19117Z" fill="#AAA9A9"/>
<path d="M14.8144 5.72357C14.8125 5.72357 14.8115 5.72357 14.8096 5.72261L14.5619 5.66501C14.5504 5.66213 14.5437 5.65157 14.5466 5.64005C14.5494 5.62853 14.56 5.62181 14.5715 5.62469L14.8192 5.68229C14.8307 5.68517 14.8374 5.69573 14.8346 5.70725C14.8317 5.71781 14.824 5.72357 14.8144 5.72357Z" fill="#AAA9A9"/>
<path d="M14.869 5.83972C14.867 5.83972 14.8661 5.83972 14.8642 5.83876L14.6654 5.79172C14.6539 5.78884 14.6472 5.77828 14.6501 5.76676C14.653 5.75524 14.6635 5.74852 14.675 5.7514L14.8738 5.79844C14.8853 5.80132 14.892 5.81188 14.8891 5.8234C14.8872 5.833 14.8786 5.83972 14.869 5.83972Z" fill="#AAA9A9"/>
<path d="M14.8889 5.9454C14.888 5.9454 14.887 5.9454 14.8851 5.9454L14.6787 5.91084C14.6672 5.90892 14.6595 5.89836 14.6614 5.88684C14.6633 5.87532 14.6739 5.86764 14.6854 5.86956L14.8918 5.90412C14.9033 5.90604 14.911 5.9166 14.9091 5.92812C14.9081 5.93772 14.8985 5.9454 14.8889 5.9454Z" fill="#AAA9A9"/>
<path d="M13.8569 6.29004L11.335 7.57164C11.5615 7.92012 11.6201 8.08428 11.7343 8.48364C12.7174 7.68684 14.0681 6.58956 14.0681 6.58956L13.8569 6.29004Z" fill="#C4C4C4"/>
<path d="M10.3614 7.94212C9.42253 8.39908 9.20653 8.97699 9.56749 9.40995C9.92845 9.84291 10.4824 9.52996 11.0593 9.169C11.2283 9.0634 11.5758 8.79268 11.9829 8.46244C11.8686 8.06308 11.7486 7.6666 11.5221 7.31812L10.3614 7.94212Z" fill="#8E8E8E"/>
<path d="M7.16099 11.1198C7.08131 11.6094 7.86083 13.5006 7.86083 13.5006L8.18819 13.13L7.90211 11.4337L8.51459 10.5217C8.21315 10.4007 8.14691 10.2759 7.87331 10.0945C7.80035 10.2202 7.17539 11.0305 7.16099 11.1198Z" fill="#C4C4C4"/>
<path d="M8.96535 8.80908C8.96535 8.80908 7.7212 10.0484 7.29688 10.7915C7.57047 10.9729 7.85656 11.1265 8.158 11.2475L8.84535 10.3009L8.96535 8.80908Z" fill="#8E8E8E"/>
<path d="M10.0718 8.11108C10.0718 8.11108 9.80106 8.27908 9.3921 8.49604C8.98314 8.713 8.5137 9.03556 8.49258 9.49444C8.47242 9.92164 8.4129 10.8586 8.28618 11.761C8.12394 12.9168 7.61994 13.7684 7.71114 13.848C7.80234 13.9277 8.86122 13.464 9.27018 13.344C9.67914 13.224 10.5527 13.2192 10.8657 12.9783C10.8657 12.9783 10.7793 12.5732 10.6046 12.2064C10.6046 12.2064 10.5047 9.98884 10.5767 9.12196C10.6497 8.25508 10.0718 8.11108 10.0718 8.11108Z" fill="#8E8E8E"/>
<path opacity="0.2" d="M10.0668 9.74406C10.0592 9.74406 10.0524 9.74022 10.0486 9.7335C10.0428 9.7239 10.0467 9.71046 10.0563 9.7047L10.5411 9.43398C10.5507 9.42822 10.5641 9.43206 10.5699 9.44166C10.5756 9.45126 10.5718 9.4647 10.5622 9.47046L10.0774 9.74118C10.0745 9.7431 10.0707 9.74406 10.0668 9.74406Z" fill="black"/>
<path opacity="0.2" d="M10.0514 12.8045C10.0447 12.8045 10.037 12.8007 10.0332 12.794C10.0274 12.7844 10.0303 12.7709 10.0409 12.7652C10.493 12.4983 10.5535 12.2449 10.5535 12.242C10.5564 12.2305 10.567 12.2237 10.5785 12.2257C10.59 12.2285 10.5967 12.2391 10.5948 12.2506C10.5929 12.2612 10.5324 12.5242 10.062 12.8007C10.0591 12.8036 10.0553 12.8045 10.0514 12.8045Z" fill="black"/>
<path opacity="0.2" d="M8.65102 13.4027C8.50798 13.4027 8.36782 13.394 8.26798 13.3691C8.25646 13.3662 8.24974 13.3547 8.25262 13.3441C8.2555 13.3326 8.26606 13.3259 8.27758 13.3287C8.57422 13.4027 9.26062 13.3239 9.26734 13.3239C9.27886 13.323 9.28942 13.3307 9.29038 13.3422C9.29134 13.3537 9.28366 13.3643 9.27214 13.3652C9.2539 13.3671 8.94382 13.4027 8.65102 13.4027Z" fill="black"/>
</g>
<path opacity="0.8" d="M37.8641 25.826C43.3071 25.826 47.7195 21.4136 47.7195 15.9706C47.7195 10.5276 43.3071 6.11523 37.8641 6.11523C32.4212 6.11523 28.0088 10.5276 28.0088 15.9706C28.0088 21.4136 32.4212 25.826 37.8641 25.826Z" fill="#E8E8E8"/>
<g opacity="0.8">
<path d="M40.7101 12.1267C40.8915 11.6784 40.7638 11.2896 40.6458 10.8518C40.5478 10.488 40.5066 9.79102 40.831 9.51934C41.1555 9.24766 41.6634 9.23326 41.8986 9.3955C42.1923 9.59806 42.2989 9.88222 42.32 10.2384C42.3546 10.8249 42.535 10.9929 42.824 11.0697C43.1418 11.1552 43.5046 11.7965 43.5248 12.1977C43.545 12.599 40.7101 12.1267 40.7101 12.1267Z" fill="#474747"/>
<path d="M37.6676 12.9446C37.6676 12.9446 37.5985 12.9234 37.5553 12.8745C37.5159 12.8303 37.4775 12.79 37.4247 12.7756C37.3786 12.7631 37.3229 12.7036 37.3085 12.6959C37.2788 12.6796 37.249 12.7074 37.249 12.7074L37.2797 12.8284L37.4074 13.367L37.5649 13.3823L37.6676 12.9446Z" fill="#C4C4C4"/>
<path d="M37.7516 14.4327C37.7516 14.4327 37.8736 14.1763 37.7027 13.9872C37.7027 13.9872 37.8304 13.609 37.5529 13.4266C37.5529 13.4266 37.6508 13.0176 37.3014 12.9216C37.3667 12.721 37.1555 12.4839 36.9875 12.4627C36.9875 12.4627 37.0729 12.2189 36.6956 12.0567C36.6956 12.0567 36.8646 11.8675 36.5296 11.5296C36.5296 11.5296 36.7494 11.0439 36.4297 10.7837L36.0928 10.9008C36.0928 10.9008 36.0054 11.3635 36.3817 11.593C36.3817 11.593 36.1868 11.9367 36.5276 12.1469C36.5353 12.3485 36.5996 12.5165 36.8329 12.5875C36.7945 12.6269 36.8636 12.9965 37.1958 12.984C37.1958 12.984 37.1468 13.2451 37.406 13.4707C37.406 13.4707 37.3484 13.7722 37.574 14.0016C37.574 14.0016 37.4828 14.1475 37.623 14.4288C37.6009 14.6746 37.5568 14.7639 37.4224 15.0048C37.478 15.0365 37.5385 15.0586 37.6 15.0701C37.6201 15.0279 37.6403 14.9722 37.6451 14.9194C37.6451 14.9194 37.6441 14.9923 37.6201 15.0739C37.7574 15.0951 37.8995 15.0701 38.0147 15.0106C37.9484 14.9405 37.7968 14.6947 37.7516 14.4327Z" fill="#474747"/>
<path d="M37.0219 12.865C37.0267 12.8948 37.0766 12.913 37.1332 12.9034C37.1899 12.8948 37.2331 12.8631 37.2283 12.8333C37.2235 12.8036 37.1735 12.7853 37.1169 12.7949C37.0593 12.8036 37.0171 12.8353 37.0219 12.865Z" fill="#C4C4C4"/>
<path d="M37.0269 12.9706C37.0365 12.9994 37.0884 13.009 37.1431 12.9907C37.1978 12.9725 37.2343 12.9351 37.2247 12.9053C37.2151 12.8765 37.1632 12.8669 37.1085 12.8851C37.0538 12.9034 37.0173 12.9408 37.0269 12.9706Z" fill="#C4C4C4"/>
<path d="M37.0689 13.059C37.0785 13.0878 37.1304 13.0974 37.1851 13.0791C37.2398 13.0609 37.2763 13.0234 37.2667 12.9937C37.2571 12.9649 37.2052 12.9553 37.1505 12.9735C37.0958 12.9918 37.0593 13.0302 37.0689 13.059Z" fill="#C4C4C4"/>
<path d="M37.1312 13.13C37.1379 13.152 37.1772 13.1588 37.2185 13.1453C37.2598 13.1319 37.2867 13.1031 37.28 13.082C37.2732 13.0599 37.2339 13.0532 37.1926 13.0666C37.1513 13.0791 37.1235 13.1079 37.1312 13.13Z" fill="#C4C4C4"/>
<path d="M35.7168 11.2589C35.8397 11.3414 36.0307 11.3635 36.1949 11.3126C36.2909 11.2829 36.3955 11.0909 36.4224 10.9949C36.457 10.8701 36.408 10.7366 36.4195 10.607C36.4224 10.5696 36.4291 10.5254 36.4013 10.5005C36.3715 10.4726 36.3235 10.4861 36.289 10.5072C36.215 10.5523 36.1622 10.6243 36.1114 10.6944C36.0182 10.823 35.9251 10.9517 35.832 11.0803C35.8013 11.1226 35.7715 11.183 35.807 11.2214L35.7168 11.2589Z" fill="#474747"/>
<path d="M34.6599 9.54428C34.682 9.455 34.7252 9.37148 34.801 9.30236C34.8778 9.23228 34.9719 9.18428 35.067 9.14204C35.1514 9.10556 35.2398 9.07292 35.331 9.05756C35.4327 9.04124 35.5354 9.047 35.6382 9.05276C35.7409 9.05852 35.8446 9.06428 35.9434 9.09116C36.0567 9.12284 36.1604 9.1814 36.2622 9.23996C36.3466 9.28796 36.457 9.33884 36.5022 9.43004C36.553 9.53372 36.5252 9.65564 36.5492 9.76508C36.5809 9.90428 36.6759 10.0051 36.626 10.1568C36.6068 10.2163 36.5703 10.2691 36.5578 10.3296C36.5425 10.3987 36.5578 10.4697 36.553 10.5398C36.5434 10.6694 36.4638 10.7769 36.3524 10.8384C36.2266 10.9084 36.1623 10.9804 36.0702 11.0928C35.9982 11.1801 35.9089 11.2531 35.8081 11.3059C35.6161 11.4067 35.3943 11.3884 35.2753 11.2128C35.1649 11.0505 35.1572 10.8518 35.0958 10.6665C35.0804 10.6185 35.0641 10.5686 35.0276 10.534C34.9594 10.4716 34.8519 10.4899 34.7646 10.4582C34.6263 10.4083 34.707 10.3084 34.6887 10.1625C34.6628 9.96956 34.611 9.74012 34.6599 9.54428Z" fill="#474747"/>
<path d="M35.0652 10.9355L34.8617 11.356C34.8262 11.428 34.7513 11.4722 34.6716 11.4683L34.4873 11.7295L35.0239 12.1355L35.5433 11.7727C35.5164 11.5922 35.5116 11.4136 35.5817 11.2408L35.0652 10.9355Z" fill="#C4C4C4"/>
<path d="M36.2262 10.4613C36.063 11.0786 35.4035 11.4693 34.9562 11.3512C34.6768 11.2773 34.4992 11.0229 34.504 10.7109C34.5069 10.5237 34.6154 10.3423 34.6672 10.0975C34.7181 9.85268 34.816 9.05108 35.6733 9.2786C36.1206 9.39572 36.3894 9.84404 36.2262 10.4613Z" fill="#C4C4C4"/>
<path d="M35.1263 11.3877C35.0658 11.3877 35.0073 11.38 34.9525 11.3656C34.9228 11.358 34.893 11.3474 34.8652 11.3349C34.8565 11.3311 34.8537 11.3215 34.8565 11.3138C34.8604 11.3052 34.87 11.3013 34.8777 11.3052C34.9045 11.3167 34.9324 11.3263 34.9612 11.334C35.1004 11.3704 35.2617 11.3589 35.4297 11.2984C35.4383 11.2956 35.4469 11.2994 35.4508 11.308C35.4537 11.3167 35.4498 11.3253 35.4412 11.3292C35.3317 11.3685 35.2261 11.3877 35.1263 11.3877Z" fill="#707070"/>
<path d="M34.9826 10.5649C34.9701 10.5649 34.9576 10.563 34.9461 10.5582C34.9211 10.5486 34.9019 10.5294 34.8914 10.5054C34.8808 10.4814 34.8799 10.4545 34.8895 10.4296C34.9096 10.3787 34.9672 10.3528 35.0181 10.3729C35.0354 10.3797 35.0498 10.3912 35.0613 10.4056C35.0651 10.4104 35.0642 10.4171 35.0594 10.42C35.0546 10.4238 35.0479 10.4229 35.045 10.4181C35.0363 10.4065 35.0248 10.3979 35.0114 10.3931C34.9711 10.3777 34.9259 10.3979 34.9096 10.4373C34.9019 10.4565 34.9029 10.4776 34.9106 10.4968C34.9192 10.516 34.9346 10.5304 34.9538 10.5381C34.9672 10.5429 34.9816 10.5448 34.996 10.5419C35.0018 10.5409 35.0075 10.5448 35.0085 10.5505C35.0095 10.5563 35.0056 10.5621 34.9999 10.563C34.9941 10.5649 34.9883 10.5649 34.9826 10.5649Z" fill="#707070"/>
<path d="M35.5712 10.6908C35.55 10.7445 35.4675 10.7618 35.3868 10.7301C35.3062 10.6985 35.2572 10.6293 35.2784 10.5765C35.2995 10.5228 35.382 10.5055 35.4627 10.5372C35.5433 10.5689 35.5923 10.637 35.5712 10.6908Z" fill="#707070"/>
<path d="M34.6297 10.2433C34.6086 10.3134 34.5846 10.3777 34.5635 10.4401C34.6403 10.465 34.7152 10.4458 34.7344 10.3959C34.7555 10.3431 34.7084 10.2759 34.6297 10.2433Z" fill="#707070"/>
<path d="M35.3528 10.0561C35.3384 10.0887 35.3969 10.1578 35.4862 10.2173C35.5755 10.2769 35.6676 10.3095 35.6907 10.2903C35.7128 10.2711 35.6638 10.1828 35.5668 10.1098C35.4699 10.0359 35.3672 10.0234 35.3528 10.0561Z" fill="#474747"/>
<path d="M34.7191 10.0138C34.8257 10.0033 34.9102 9.97063 34.913 9.93511C34.9159 9.90151 34.8276 9.86503 34.7143 9.87847C34.7018 9.92839 34.6922 9.97543 34.6836 10.0157C34.6961 10.0157 34.7076 10.0148 34.7191 10.0138Z" fill="#474747"/>
<path d="M34.8754 10.2433C34.8668 10.2433 34.8581 10.2385 34.8543 10.2308C34.8236 10.1752 34.7535 10.155 34.6988 10.1857C34.6873 10.1924 34.6719 10.1876 34.6652 10.1761C34.6585 10.1646 34.6633 10.1492 34.6748 10.1425C34.7535 10.0993 34.8533 10.1281 34.8965 10.2068C34.9033 10.2184 34.8985 10.2337 34.8869 10.2404C34.8841 10.2424 34.8793 10.2433 34.8754 10.2433Z" fill="#707070"/>
<path d="M35.4926 10.4508C35.484 10.4508 35.4753 10.446 35.4715 10.4383C35.4571 10.4114 35.4321 10.3922 35.4033 10.3836C35.3736 10.3749 35.3428 10.3788 35.316 10.3932C35.3044 10.3999 35.2891 10.3951 35.2824 10.3836C35.2756 10.372 35.2804 10.3567 35.292 10.35C35.3304 10.3288 35.3745 10.324 35.4168 10.3365C35.459 10.349 35.4936 10.3768 35.5147 10.4143C35.5214 10.4258 35.5166 10.4412 35.5051 10.4479C35.5003 10.4498 35.4964 10.4508 35.4926 10.4508Z" fill="#707070"/>
<path d="M35.7545 9.22482C35.575 9.15954 35.3139 9.15186 35.1363 9.2181C34.928 9.29586 34.7542 9.53586 34.6582 9.72978C34.7273 9.6837 34.6592 9.78834 34.7244 9.73746C34.8137 9.66834 34.8876 9.4677 35.0201 9.4725C35.0672 9.47442 35.1075 9.50706 35.1545 9.5109C35.2025 9.51474 35.2476 9.4869 35.2956 9.47922C35.382 9.46578 35.4636 9.51762 35.5491 9.53874C35.6028 9.55218 35.6624 9.55411 35.7046 9.59059C35.7449 9.62515 35.7593 9.68466 35.8035 9.71538C35.8457 9.74514 35.9052 9.74227 35.9446 9.77587C35.9811 9.80659 35.9888 9.8613 35.983 9.9093C35.9772 9.9573 35.9619 10.0034 35.9628 10.0523C35.9638 10.1003 35.9811 10.1474 35.9878 10.1944C36.0032 10.2971 35.9456 10.3759 35.9456 10.4738C35.9456 10.5256 35.9715 10.5755 35.9676 10.6264C35.9648 10.6629 35.9475 10.6975 35.9417 10.733C35.936 10.7695 35.9465 10.8136 35.9811 10.8271C36.006 10.8367 36.0358 10.8251 36.055 10.8059C36.0742 10.7867 36.1395 10.8031 36.15 10.7781C36.2249 10.5976 36.3526 10.4056 36.3785 10.2117C36.4035 10.0178 36.3747 9.74899 36.2604 9.59059C36.1664 9.46003 35.9571 9.3045 35.8083 9.24402C35.7881 9.2373 35.7718 9.23058 35.7545 9.22482Z" fill="#474747"/>
<path d="M35.7958 11.0911C35.8697 11.1535 36.0895 11.117 36.1759 11.0181C36.2777 10.901 36.2892 10.7445 36.2019 10.6677C36.1817 10.6504 36.1596 10.638 36.1337 10.6322C36.0771 10.6197 36.007 10.6495 35.9772 10.6783C35.9475 10.709 35.743 11.0469 35.7958 11.0911Z" fill="#C4C4C4"/>
<path d="M35.9475 10.9845C35.9408 10.9845 35.934 10.9797 35.9321 10.973C35.9302 10.9644 35.934 10.9557 35.9427 10.9538C36.0675 10.9173 36.1126 10.8655 36.1136 10.83C36.1136 10.8184 36.1107 10.8098 36.1049 10.805C36.0953 10.7964 36.08 10.7954 36.0742 10.7964C36.0656 10.7973 36.0579 10.7906 36.0569 10.782C36.056 10.7733 36.0627 10.7656 36.0713 10.7647C36.0742 10.7647 36.1049 10.7618 36.126 10.781C36.1385 10.7925 36.1452 10.8088 36.1443 10.83C36.1433 10.8914 36.0713 10.949 35.9513 10.9836C35.9504 10.9845 35.9484 10.9845 35.9475 10.9845Z" fill="#707070"/>
<path d="M35.0216 10.9352C35.0005 10.9285 34.9813 10.9141 34.9698 10.893C34.9563 10.8671 34.9333 10.8479 34.9054 10.8402C34.8776 10.8316 34.8478 10.8344 34.8219 10.8488C34.7797 10.8719 34.7259 10.8556 34.7038 10.8133C34.6808 10.7711 34.6971 10.7173 34.7394 10.6952C34.8066 10.6597 34.8834 10.652 34.9563 10.6741C35.0293 10.6962 35.0888 10.7452 35.1243 10.8124C35.1474 10.8546 35.131 10.9084 35.0888 10.9304C35.0667 10.94 35.0427 10.942 35.0216 10.9352Z" fill="#707070"/>
<path d="M35.0237 10.9363C35.0217 10.8739 34.9814 10.8173 34.9181 10.7981C34.8557 10.7789 34.7894 10.8038 34.7539 10.8547C34.776 10.8614 34.8 10.8605 34.8221 10.849C34.848 10.8355 34.8777 10.8326 34.9056 10.8403C34.9334 10.849 34.9565 10.8682 34.9699 10.8931C34.9814 10.9142 35.0006 10.9296 35.0217 10.9354C35.0217 10.9354 35.0227 10.9354 35.0237 10.9363Z" fill="#969696"/>
<path d="M34.9158 10.7337C34.9763 10.752 35.0348 10.7568 35.0809 10.751C35.0473 10.7145 35.0041 10.6876 34.9561 10.6723C34.9014 10.656 34.8438 10.656 34.79 10.6723C34.8227 10.6972 34.8659 10.7184 34.9158 10.7337Z" fill="white"/>
<path d="M34.2452 9.80638C34.0964 9.92734 34.3383 10.0608 34.5486 10.0857C34.5486 10.0857 34.3921 9.68734 34.2452 9.80638Z" fill="white"/>
<path d="M36.0536 10.4966C36.1189 10.3161 35.8424 10.3267 35.6494 10.414C35.6494 10.414 35.9893 10.6742 36.0536 10.4966Z" fill="white"/>
<path d="M34.2432 10.2615C34.2451 10.3911 34.4141 10.322 34.5177 10.2221C34.5197 10.2202 34.5187 10.2164 34.5158 10.2154C34.4726 10.2039 34.2413 10.1444 34.2432 10.2615Z" fill="white"/>
<path d="M35.6236 10.8565C35.7522 10.8498 35.6773 10.6837 35.5746 10.5839C35.5727 10.582 35.5689 10.5829 35.5679 10.5858C35.5573 10.629 35.5065 10.8623 35.6236 10.8565Z" fill="white"/>
<path d="M32.9725 22.6186L32.9216 22.8759L32.0173 22.9143L31.9463 22.7866C31.9463 22.7866 32.1402 22.6848 32.2506 22.5668C32.3601 22.4487 32.4733 22.3412 32.5252 22.0848L33.0628 22.0992L32.9725 22.6186Z" fill="#C4C4C4"/>
<path d="M31.9852 22.7655C31.9852 22.7655 32.2492 22.9325 32.9606 22.6234C32.9606 22.6234 32.9731 22.608 32.9875 22.6282C33.0019 22.6484 33.0892 22.777 33.0239 22.9114C33.0239 22.9114 33.0163 22.9652 32.9164 22.9757C32.8166 22.9863 31.894 23.0093 31.8124 23.0112C31.7155 23.0141 31.6291 22.968 31.6175 22.9133C31.6041 22.8605 31.9852 22.7655 31.9852 22.7655Z" fill="#606060"/>
<path d="M35.0712 22.6186L35.0203 22.8759L34.116 22.9143L34.0449 22.7866C34.0449 22.7866 34.2388 22.6848 34.3492 22.5668C34.4587 22.4487 34.4913 22.2672 34.4971 22.0848L35.0971 22.0992L35.0712 22.6186Z" fill="#C4C4C4"/>
<path d="M34.0829 22.7655C34.0829 22.7655 34.3469 22.9325 35.0582 22.6234C35.0582 22.6234 35.0707 22.608 35.0851 22.6282C35.0995 22.6484 35.1869 22.777 35.1216 22.9114C35.1216 22.9114 35.1139 22.9652 35.0141 22.9757C34.9142 22.9863 33.9917 23.0093 33.9101 23.0112C33.8131 23.0141 33.7267 22.968 33.7152 22.9133C33.7018 22.8605 34.0829 22.7655 34.0829 22.7655Z" fill="#606060"/>
<path d="M32.895 16.3633L32.5254 22.0858C32.7097 22.1934 32.8892 22.1982 33.063 22.1002L34.0816 16.7358L32.895 16.3633Z" fill="#C4C4C4"/>
<path d="M33.9277 17.0122L34.497 22.0858C34.6794 22.1943 34.8993 22.2078 35.097 22.1002L35.1844 16.8721L33.9277 17.0122Z" fill="#C4C4C4"/>
<path d="M34.4991 11.4614C34.4991 11.4614 34.2447 11.4672 34.1333 11.5008C33.9528 11.5555 32.8623 12.4195 32.8623 12.4195L30.6399 12.2064L30.5391 12.5731C30.5391 12.5731 32.7653 13.1923 32.9679 13.128C33.1704 13.0637 34.3752 12.3542 34.3752 12.3542L34.4991 11.4614Z" fill="#C4C4C4"/>
<path d="M35.8633 11.9942C35.9679 12.0816 36.0399 12.215 36.0754 12.3974C36.11 12.5798 35.63 13.6166 35.4908 14.088C35.3103 14.6976 35.27 15.7113 35.27 15.7113C35.5954 16.8979 35.7471 18.8678 35.6137 18.9581C35.4658 19.0569 33.829 19.7299 32.6367 18.9629C32.6367 18.9629 32.8057 15.6777 33.0591 14.3846C33.2847 13.2345 33.6668 12.6835 33.9375 12.2553C34.165 11.8953 34.4991 11.4614 34.4991 11.4614L34.671 11.4672C34.671 11.4672 34.6172 11.6937 34.8198 11.8301C35.0223 11.9654 35.5426 11.7715 35.5426 11.7715C35.5426 11.7715 35.7586 11.9078 35.8633 11.9942Z" fill="#606060"/>
<path d="M35.6074 12.0327C36.0509 12.0106 36.1229 12.8141 35.8388 13.297C35.5546 13.7799 35.0439 14.5536 34.7463 14.6535C34.4487 14.7524 32.017 14.0871 32.017 14.0871C32.017 14.0871 31.8692 14.0141 31.9402 13.7588L34.5408 13.9757C34.5399 13.9757 35.0208 12.0615 35.6074 12.0327Z" fill="#C4C4C4"/>
<path d="M30.6399 12.2064C30.5391 12.1556 30.4287 11.7216 30.3423 11.7255C30.2559 11.7303 30.3336 12.0394 30.3336 12.0394C30.3336 12.0394 30.276 12.0586 30.1829 12.0173C30.0898 11.976 29.8248 11.7524 29.7624 11.8042C29.7 11.857 29.7951 11.905 29.8239 11.9319C29.8527 11.9588 30.0389 12.0884 30.0389 12.0884C30.0389 12.0884 29.7106 11.9684 29.6424 11.978C29.5733 11.9876 29.556 12.0384 29.6002 12.0692C29.6443 12.0999 29.9794 12.2208 29.9794 12.2208C29.9794 12.2208 29.6395 12.2045 29.5944 12.2064C29.5493 12.2074 29.5416 12.2794 29.5877 12.2996C29.6338 12.3188 29.9775 12.384 29.9775 12.384C29.9775 12.384 29.6789 12.4128 29.6367 12.432C29.5954 12.4512 29.6079 12.5136 29.6712 12.53C29.7355 12.5463 30.3307 12.5636 30.5007 12.5684C30.5112 12.5684 30.5237 12.5703 30.5391 12.5732C30.5717 12.4503 30.6504 12.2122 30.6399 12.2064Z" fill="#C4C4C4"/>
<path d="M31.9389 13.7588C31.9389 13.7588 31.6682 13.7059 31.4714 13.6637C31.2746 13.6215 31.1699 13.5994 31.1066 13.6148C31.0432 13.6301 30.7763 13.6877 30.7658 13.7155C30.7552 13.7434 30.7591 13.7895 30.8426 13.8048C30.8426 13.8048 30.7149 13.8375 30.7015 13.873C30.688 13.9095 30.785 13.9392 30.8541 13.9268C30.9232 13.9143 31.073 13.8787 31.1277 13.8941C31.1277 13.8941 30.8224 14.0967 30.8099 14.1331C30.7984 14.1706 30.833 14.1879 30.88 14.1802C30.9271 14.1725 31.1959 13.9747 31.2842 13.9853C31.2842 13.9853 31.2563 13.9978 31.2275 14.0256C31.1987 14.0535 31.0634 14.233 31.0739 14.2599C31.0845 14.2867 31.1219 14.2963 31.1613 14.2675C31.1997 14.2387 31.3552 14.0986 31.433 14.0871C31.5117 14.0756 31.6903 14.1389 31.7632 14.136C31.8362 14.1331 32.0167 14.0842 32.0167 14.0842L31.9389 13.7588Z" fill="#C4C4C4"/>
<path opacity="0.2" d="M34.6424 16.0608C34.6357 16.0608 34.629 16.0569 34.6261 16.0502C34.6213 16.0406 34.6251 16.0301 34.6347 16.0253C34.9102 15.888 35.2578 15.6969 35.2607 15.695C35.2693 15.6902 35.2808 15.6931 35.2856 15.7027C35.2904 15.7113 35.2875 15.7229 35.2779 15.7277C35.2741 15.7296 34.9266 15.9206 34.6501 16.0589C34.6482 16.0608 34.6453 16.0608 34.6424 16.0608Z" fill="black"/>
<path d="M43.4948 22.1693L43.4266 21.0941L42.8516 20.9895L43.0388 22.0503L43.4948 22.1693Z" fill="#C4C4C4"/>
<path d="M43.2117 21.9092C43.3653 21.9053 43.4998 21.9956 43.5046 22.1319C43.5094 22.2682 43.6293 22.4564 43.6466 22.5245C43.6629 22.5927 43.662 22.6647 43.6437 22.6858C43.6255 22.7069 42.943 22.6964 42.8825 22.6733C42.822 22.6513 42.8604 22.5053 42.9113 22.4525C42.9621 22.3997 42.9794 22.3258 43.0054 22.2365C43.0322 22.1473 42.9804 22.0522 43.0274 21.9889C43.0754 21.9255 43.1225 21.9121 43.2117 21.9092Z" fill="#666665"/>
<path d="M43.0921 22.1377C43.1046 22.1242 43.4108 22.1184 43.4252 22.1309C43.4396 22.1434 43.4396 22.2212 43.4262 22.224C43.4128 22.2269 43.0921 22.2269 43.0835 22.2154C43.0748 22.2029 43.0796 22.1511 43.0921 22.1377Z" fill="#919191"/>
<path d="M43.0476 22.3037C43.0601 22.2902 43.4585 22.3008 43.4729 22.3123C43.4873 22.3248 43.4882 22.392 43.4757 22.3958C43.4623 22.3987 43.0514 22.391 43.0428 22.3795C43.0341 22.368 43.0351 22.3171 43.0476 22.3037Z" fill="#919191"/>
<path d="M43.6452 22.6858C43.6634 22.6647 43.6644 22.5927 43.6481 22.5246C43.6471 22.5207 43.6461 22.5169 43.6452 22.513C43.3476 22.441 42.9991 22.4737 42.882 22.4967C42.8493 22.562 42.8359 22.6561 42.8839 22.6734C42.9434 22.6964 43.6269 22.707 43.6452 22.6858Z" fill="#919191"/>
<path d="M39.8234 20.7715L39.5488 22.1558L39.8051 22.3372L40.0403 22.2134L40.3879 20.8531L39.8234 20.7715Z" fill="#C4C4C4"/>
<path d="M39.5681 22.0167C39.5672 22.0167 39.5662 22.0157 39.5653 22.0157C39.5605 22.0147 39.5557 22.0176 39.5518 22.0195C39.4817 22.0551 39.4174 22.104 39.3521 22.1482C39.2907 22.1914 39.2293 22.2346 39.1659 22.2759C39.139 22.2931 39.1131 22.3104 39.0853 22.3258C39.0709 22.3344 39.0536 22.345 39.0363 22.3469C38.9681 22.3536 38.7867 22.2979 38.7425 22.4103C38.7253 22.4525 38.7157 22.4861 38.7109 22.5111C38.7032 22.5485 38.7195 22.5869 38.7531 22.6071C38.8232 22.6493 38.9825 22.7098 39.3022 22.7011C39.7822 22.6877 40.027 22.681 40.0875 22.68C40.148 22.6781 40.1816 22.6618 40.1912 22.6301C40.2008 22.5984 40.196 22.5168 40.1749 22.4141C40.1595 22.3421 40.1393 22.224 40.1 22.1607C40.0808 22.1299 40.0385 22.1271 40.0145 22.1539C39.9637 22.2125 39.8753 22.2336 39.8005 22.2269C39.7486 22.2221 39.6949 22.2048 39.6536 22.1722C39.6334 22.1559 39.6171 22.1357 39.6056 22.1117C39.5931 22.0848 39.595 22.0512 39.5787 22.0263C39.5768 22.0224 39.5729 22.0176 39.5681 22.0167Z" fill="#666665"/>
<path d="M38.9854 22.4966L39.0363 22.3478C38.9681 22.3545 38.7867 22.2989 38.7425 22.4112C38.7253 22.4534 38.7157 22.487 38.7109 22.512C38.7032 22.5494 38.7195 22.5878 38.7531 22.608C38.8232 22.6502 38.9825 22.7107 39.3022 22.7021C39.7822 22.6886 40.027 22.6819 40.0875 22.6809C40.148 22.679 40.1816 22.6627 40.1912 22.631C40.1979 22.6089 40.1979 22.5619 40.1893 22.5014C40.1873 22.5014 40.1864 22.5014 40.1845 22.5014C39.2734 22.6099 38.9854 22.4966 38.9854 22.4966Z" fill="#919191"/>
<path d="M39.4044 22.0848L39.3372 22.1299C39.3228 22.1395 39.3189 22.1587 39.3285 22.1731C39.3516 22.2076 39.3919 22.2681 39.4101 22.2892C39.437 22.3199 39.5301 22.271 39.5272 22.2345C39.5253 22.2124 39.4754 22.1347 39.4485 22.0934C39.4389 22.079 39.4188 22.0752 39.4044 22.0848Z" fill="#919191"/>
<path d="M39.212 22.1961L39.1448 22.2412C39.1304 22.2508 39.1265 22.27 39.1361 22.2844C39.1592 22.319 39.1995 22.3794 39.2177 22.4006C39.2446 22.4313 39.3377 22.3823 39.3349 22.3458C39.3329 22.3238 39.283 22.246 39.2561 22.2047C39.2465 22.1903 39.2264 22.1865 39.212 22.1961Z" fill="#919191"/>
<path d="M40.5105 16.3526C40.5105 16.3526 39.3979 21.7085 39.4843 21.7853C39.5716 21.8611 40.2216 21.8314 40.3147 21.7853C40.4078 21.7392 41.9284 17.4086 41.9284 17.4086C41.9284 17.4086 42.7262 21.7094 42.8136 21.7853C42.9009 21.8611 43.5019 21.8746 43.5883 21.7853C43.6756 21.696 43.4356 17.1245 43.2571 16.3085L40.5105 16.3526Z" fill="#606060"/>
<path opacity="0.2" d="M41.9331 17.2205C41.9216 17.2205 41.8669 17.2186 41.8266 17.1773C41.7959 17.1466 41.7815 17.1014 41.7834 17.0438C41.7901 16.8835 41.8083 16.6176 41.8083 16.6147C41.8093 16.6042 41.8179 16.5965 41.8285 16.5974C41.8391 16.5984 41.8467 16.607 41.8458 16.6176C41.8458 16.6205 41.8285 16.8854 41.8208 17.0458C41.8189 17.0918 41.8295 17.1274 41.8525 17.1514C41.8736 17.1725 41.9005 17.1792 41.9168 17.1821L41.9495 16.5811C41.9504 16.5706 41.9591 16.5638 41.9687 16.5638C41.9792 16.5648 41.9869 16.5734 41.9859 16.583L41.9523 17.2032C41.9514 17.2128 41.9437 17.2205 41.9341 17.2205C41.936 17.2205 41.9351 17.2205 41.9331 17.2205Z" fill="black"/>
<path opacity="0.2" d="M43.1695 21.6249C42.9929 21.6249 42.8259 21.5961 42.7759 21.552C42.7683 21.5452 42.7673 21.5337 42.774 21.526C42.7807 21.5184 42.7923 21.5174 42.7999 21.5241C42.8383 21.5577 42.9747 21.5836 43.1302 21.5875C43.3059 21.5913 43.4643 21.5673 43.5545 21.5212C43.5641 21.5164 43.5747 21.5203 43.5795 21.5299C43.5843 21.5395 43.5804 21.55 43.5708 21.5548C43.4729 21.6038 43.3174 21.6249 43.1695 21.6249Z" fill="black"/>
<path opacity="0.2" d="M39.9494 21.6288C39.7939 21.6288 39.6403 21.6144 39.5347 21.5798C39.5251 21.577 39.5193 21.5664 39.5222 21.5568C39.5251 21.5472 39.5357 21.5414 39.5453 21.5443C39.7325 21.6048 40.1433 21.6067 40.3757 21.5482C40.3853 21.5453 40.3958 21.552 40.3977 21.5616C40.4006 21.5712 40.3939 21.5818 40.3843 21.5837C40.2749 21.6125 40.1117 21.6288 39.9494 21.6288Z" fill="black"/>
<path opacity="0.2" d="M40.1232 21.6173C40.1204 21.6173 40.1184 21.6163 40.1156 21.6153C40.106 21.6115 40.1021 21.6 40.106 21.5913L41.9117 17.4C41.9156 17.3904 41.9271 17.3865 41.9357 17.3904C41.9453 17.3942 41.9492 17.4057 41.9453 17.4144L40.1396 21.6057C40.1376 21.6134 40.1309 21.6173 40.1232 21.6173Z" fill="black"/>
<path d="M40.9432 11.8129C40.9432 11.8129 40.3096 11.9905 40.1176 12.1345C39.9256 12.2785 39.2939 13.2893 39.2939 13.2893C39.2939 13.2893 37.7598 12.8641 37.7128 12.8631C37.6244 12.8612 37.4027 13.4439 37.5121 13.5169C37.587 13.5668 39.2305 14.137 39.5041 14.0861C39.7777 14.0353 40.3518 13.4353 40.3518 13.4353L40.9432 11.8129Z" fill="#8E8E8E"/>
<path d="M40.9436 11.8128L41.989 11.7322L42.7023 12.6154C42.7023 12.6154 43.4386 15.2813 43.3455 16.3891C43.38 16.584 41.7212 16.8807 41.2911 16.8327C40.86 16.7847 40.3992 16.5456 40.3781 16.4707C40.357 16.3959 40.7756 15.2419 40.3743 13.5283C40.3676 13.4976 40.2274 12.9859 40.2197 12.9552L40.9436 11.8128Z" fill="#8E8E8E"/>
<path opacity="0.2" d="M40.3517 13.4544C40.343 13.4544 40.3354 13.4487 40.3334 13.44C40.3296 13.4256 40.3056 13.3056 40.2768 13.1664C40.2451 13.0119 40.2096 12.8362 40.2058 12.8199C40.2029 12.8103 40.2096 12.7997 40.2192 12.7978C40.2288 12.7949 40.2394 12.8016 40.2413 12.8112C40.2451 12.8285 40.2797 12.9965 40.3133 13.1588C40.3402 13.2922 40.3661 13.418 40.369 13.4314C40.3709 13.441 40.3651 13.4516 40.3555 13.4535C40.3546 13.4544 40.3536 13.4544 40.3517 13.4544Z" fill="black"/>
<path d="M44.1713 15.2948C44.1713 15.3246 44.201 15.4705 44.2001 15.4801C44.1886 15.5828 43.9054 15.8247 43.937 15.8977C43.9687 15.9706 44.2106 15.8046 44.2106 15.8046C44.2106 15.8046 44.2452 15.8478 44.2394 15.9418C44.2337 16.035 44.1252 16.3354 44.1905 16.3719C44.2558 16.4094 44.2663 16.3114 44.2807 16.2778C44.2942 16.2442 44.347 16.0426 44.347 16.0426C44.347 16.0426 44.3489 16.3633 44.3786 16.4199C44.4084 16.4766 44.4583 16.4756 44.4708 16.4266C44.4833 16.3786 44.4804 16.0513 44.4804 16.0513C44.4804 16.0513 44.5754 16.3498 44.5908 16.3873C44.6062 16.4257 44.6705 16.4094 44.6724 16.3633C44.6743 16.3172 44.6215 16.0004 44.6215 16.0004C44.6215 16.0004 44.7415 16.249 44.7713 16.2788C44.801 16.3086 44.851 16.2778 44.8442 16.2174C44.8375 16.1569 44.6887 15.5828 44.6398 15.435C44.6369 15.4254 44.634 15.4138 44.6321 15.4004C44.514 15.4138 44.2855 15.3159 44.1713 15.2948Z" fill="#C4C4C4"/>
<path opacity="0.2" d="M42.5038 14.9943C42.497 14.9943 42.4903 14.9905 42.4874 14.9838C42.4826 14.9742 42.4865 14.9636 42.4951 14.9588L43.1508 14.6218C43.1594 14.617 43.171 14.6209 43.1758 14.6295C43.1806 14.6391 43.1767 14.6497 43.1681 14.6545L42.5124 14.9914C42.5095 14.9934 42.5066 14.9943 42.5038 14.9943Z" fill="black"/>
<path d="M41.9893 11.7322C41.9893 11.7322 42.572 11.8013 42.7803 11.8714C42.9896 11.9415 44.0792 13.0387 44.2261 13.3296C44.372 13.6205 44.7877 15.337 44.7617 15.4109C44.7358 15.4848 44.1387 15.5491 44.0782 15.5127C44.0177 15.4762 43.603 13.7818 43.603 13.7818L42.5864 13.1127L41.9893 11.7322Z" fill="#8E8E8E"/>
<path opacity="0.2" d="M42.8843 13.3391C42.8804 13.3391 42.8775 13.3382 42.8747 13.3363L42.4043 13.0358C42.3956 13.03 42.3927 13.0185 42.3985 13.0099C42.4043 13.0012 42.4158 12.9983 42.4244 13.0041L42.8948 13.3046C42.9035 13.3103 42.9063 13.3219 42.9006 13.3305C42.8967 13.3363 42.891 13.3391 42.8843 13.3391Z" fill="black"/>
<path d="M42.0881 10.3565C42.0881 10.3565 42.3866 9.78243 42.0468 9.50115C42.0468 9.50115 42.0295 9.24291 41.8241 9.14691C41.6186 9.05091 41.3585 9.11523 41.3585 9.11523C41.3585 9.11523 41.226 9.00003 40.9898 9.04227C40.7537 9.08451 40.6826 9.26307 40.6826 9.26307C40.6826 9.26307 40.5146 9.22179 40.3927 9.32931C40.2708 9.43683 40.2362 9.59715 40.289 9.68355C40.289 9.68355 40.1364 9.82083 40.1767 10.0762C40.217 10.3315 40.4474 10.6493 40.4474 10.6493L42.0881 10.3565Z" fill="#474747"/>
<path d="M41.8985 11.1168L41.8477 11.713L41.9878 11.7322C41.9878 11.7322 41.7065 12.1565 41.3446 12.144C40.9827 12.1315 40.9424 11.8128 40.9424 11.8128L41.095 11.7715L41.0787 11.5546L41.2131 11.5373L41.8985 11.1168Z" fill="#C4C4C4"/>
<path d="M42.1264 10.3844C42.1581 11.0727 41.607 11.6881 41.1088 11.7111C40.7978 11.7255 40.5318 11.521 40.4368 11.1985C40.3792 11.0045 40.432 10.7828 40.4051 10.514C40.3782 10.2461 40.2198 9.38981 41.175 9.34565C41.6723 9.32357 42.0947 9.69701 42.1264 10.3844Z" fill="#C4C4C4"/>
<path d="M41.0945 11.7331C41.0859 11.7331 41.0792 11.7264 41.0782 11.7178C41.0773 11.7091 41.084 11.7014 41.0936 11.7005C41.2558 11.689 41.4814 11.6218 41.6273 11.4672C41.6331 11.4605 41.6437 11.4605 41.6504 11.4662C41.6571 11.472 41.6571 11.4826 41.6513 11.4893C41.4997 11.6506 41.2654 11.7206 41.0965 11.7322C41.0955 11.7331 41.0955 11.7331 41.0945 11.7331Z" fill="#707070"/>
<path d="M40.9455 10.9288C40.9196 10.9288 40.8956 10.9192 40.8755 10.9019C40.8553 10.8837 40.8428 10.8578 40.8419 10.8299C40.8409 10.8021 40.8505 10.7762 40.8687 10.755C40.887 10.7349 40.9129 10.7224 40.9407 10.7214C40.9599 10.7205 40.9782 10.7253 40.9955 10.7339C41.0012 10.7368 41.0031 10.7435 41.0003 10.7493C40.9974 10.755 40.9907 10.757 40.9849 10.7541C40.9715 10.7474 40.9571 10.7435 40.9417 10.7445C40.9196 10.7454 40.8995 10.755 40.8851 10.7714C40.8707 10.7877 40.863 10.8078 40.8639 10.8299C40.8649 10.852 40.8745 10.8722 40.8908 10.8866C40.9071 10.901 40.9273 10.9086 40.9494 10.9077C40.9647 10.9067 40.9791 10.9019 40.9916 10.8942C40.9964 10.8904 41.0031 10.8923 41.007 10.8971C41.0108 10.9019 41.0089 10.9086 41.0041 10.9125C40.9887 10.923 40.9695 10.9288 40.9513 10.9298C40.9484 10.9288 40.9475 10.9288 40.9455 10.9288Z" fill="#707070"/>
<path d="M41.2628 11.0659C41.2925 11.1034 41.1399 11.2714 40.9882 11.2733C40.8413 11.2752 40.729 11.1331 40.752 11.0775C40.7751 11.0227 41.233 11.0295 41.2628 11.0659Z" fill="white"/>
<path d="M40.7614 10.296C40.7643 10.3325 40.6779 10.3796 40.5694 10.4093C40.4609 10.4381 40.364 10.442 40.3486 10.4151C40.3332 10.3892 40.411 10.3172 40.532 10.2778C40.6529 10.2375 40.7585 10.2596 40.7614 10.296Z" fill="#474747"/>
<path d="M41.0715 10.2922C41.0773 10.3287 41.1675 10.3556 41.2789 10.3585C41.3903 10.3594 41.4901 10.3364 41.4987 10.3066C41.5074 10.2778 41.4143 10.2269 41.2885 10.2183C41.1618 10.2087 41.0658 10.2557 41.0715 10.2922Z" fill="#474747"/>
<path d="M41.1731 9.33804C40.4636 9.37068 40.3081 9.66828 40.3167 10.0254L40.3263 10.1204C40.3263 10.1204 40.9225 10.0206 40.8937 9.70092C40.8937 9.70092 40.9916 9.90828 41.3151 9.96684C41.3151 9.96684 41.2191 9.87756 41.2076 9.771C41.2076 9.771 41.4707 9.963 41.6454 9.867C41.6271 10.012 41.7087 10.4478 41.9497 10.6494C41.991 10.684 42.0889 10.5956 42.1225 10.5966C42.1311 10.5265 42.135 10.4555 42.1311 10.3825C42.0995 9.69132 41.6751 9.315 41.1731 9.33804Z" fill="#474747"/>
<path d="M42.3378 10.6315C42.3857 10.4771 42.3305 10.3227 42.2145 10.2867C42.0986 10.2507 41.9657 10.3468 41.9178 10.5012C41.8699 10.6557 41.9251 10.81 42.041 10.846C42.157 10.882 42.2898 10.786 42.3378 10.6315Z" fill="#C4C4C4"/>
<path d="M42.1012 10.6983C42.0964 10.6983 42.0916 10.6964 42.0887 10.6926C42.083 10.6858 42.0839 10.6753 42.0907 10.6695C42.1943 10.5822 42.2155 10.514 42.2011 10.4794C42.1963 10.4679 42.1905 10.4612 42.1819 10.4593C42.1694 10.4545 42.154 10.4612 42.1492 10.4641C42.1415 10.4689 42.1319 10.466 42.1271 10.4574C42.1223 10.4497 42.1252 10.4401 42.1329 10.4353C42.1358 10.4334 42.1636 10.419 42.1915 10.4286C42.2087 10.4343 42.2212 10.4478 42.2299 10.467C42.2548 10.5255 42.2097 10.611 42.1108 10.6945C42.1089 10.6974 42.1051 10.6983 42.1012 10.6983Z" fill="#707070"/>
<path d="M40.5182 10.7021C40.5125 10.7021 40.5067 10.7002 40.5029 10.6964C40.4923 10.6877 40.4913 10.6724 40.5 10.6618C40.5585 10.5927 40.6613 10.584 40.7304 10.6426C40.7409 10.6512 40.7419 10.6666 40.7333 10.6772C40.7246 10.6877 40.7093 10.6887 40.6987 10.68C40.6507 10.6388 40.5777 10.6455 40.5374 10.6935C40.5326 10.6992 40.5259 10.7021 40.5182 10.7021Z" fill="#707070"/>
<path d="M41.1686 10.6752C41.1628 10.6752 41.1571 10.6733 41.1532 10.6695C41.1427 10.6608 41.1417 10.6455 41.1504 10.6349C41.1782 10.6013 41.2185 10.5811 41.2617 10.5773C41.3049 10.5735 41.3472 10.5869 41.3808 10.6157C41.3913 10.6243 41.3923 10.6397 41.3836 10.6503C41.375 10.6608 41.3596 10.6618 41.3491 10.6531C41.326 10.633 41.2963 10.6234 41.2656 10.6263C41.2348 10.6291 41.207 10.6426 41.1878 10.6666C41.182 10.6723 41.1753 10.6752 41.1686 10.6752Z" fill="#707070"/>
</g>
<path d="M32.9959 18.3793L28.6001 18.4954L28.5127 20.0372L32.7309 20.763C32.7309 20.763 32.7415 19.3191 33.1303 18.4129" fill="#FCDAC8"/>
<path d="M34.6067 18.312C34.6067 18.312 34.7363 18.0432 34.4339 17.976C34.1305 17.9088 33.0237 17.976 32.8557 17.976C32.6877 17.976 32.1587 18.5136 32.0742 19.5207C31.9897 20.5277 32.0646 21.0653 32.2681 21.1661C32.4717 21.2669 33.8454 21.1325 33.8454 21.1325C33.8454 21.1325 34.1277 19.8903 34.3878 19.3191C34.647 18.7479 34.6067 18.312 34.6067 18.312Z" fill="#434444"/>
<path d="M30.6877 50.1658C30.97 48.1584 31.2964 45.6269 31.282 44.7283C31.257 43.1539 31.2119 42.9053 31.2119 42.9053H19.2388L19.1188 43.1952C19.1188 43.1952 18.8231 45.4733 19.1121 48.001C19.2637 49.3277 19.3895 50.6198 19.4759 51.5482C21.0033 51.0758 22.6631 50.5488 24.6071 50.279L24.6705 45.8477L25.162 45.4752L25.3914 50.1878C25.9588 50.1322 26.5501 50.1005 27.1693 50.0995C28.4961 50.0947 29.6509 50.1302 30.6877 50.1658Z" fill="#353535" stroke="#263238" stroke-width="0.096" stroke-miterlimit="10"/>
<path d="M22.1424 27.3282H28.729L29.4826 43.5676C29.4826 43.5676 28.5351 43.8988 27.1258 43.8575C25.7165 43.8162 25.4611 43.3602 24.1411 43.7337C22.8211 44.1062 22.7434 44.3961 21.7872 44.1897C20.8311 43.9823 20.8311 43.9823 20.8311 43.9823L22.1424 27.3282Z" fill="white"/>
<path d="M25.4926 39.2699C25.4283 39.4609 25.3774 39.6203 25.3457 39.7326" stroke="#6D6D6D" stroke-width="0.096" stroke-miterlimit="10" stroke-linecap="round" stroke-linejoin="round"/>
<path d="M26.9161 35.4106C26.9161 35.4106 26.15 37.4036 25.6758 38.739" stroke="#6D6D6D" stroke-width="0.096" stroke-miterlimit="10" stroke-linecap="round" stroke-linejoin="round"/>
<path d="M25.1367 37.3613L24.9658 37.7453" stroke="#6D6D6D" stroke-width="0.096" stroke-miterlimit="10" stroke-linecap="round" stroke-linejoin="round"/>
<path d="M26.3084 34.7156L25.4473 36.6577" stroke="#6D6D6D" stroke-width="0.096" stroke-miterlimit="10" stroke-linecap="round" stroke-linejoin="round"/>
<path d="M26.9148 28.6867L26.9964 36.0067L26.9916 46.3152C26.9916 46.3152 28.7043 46.3152 29.7411 46.0464C30.7779 45.7776 32.0652 44.3674 32.0652 44.3674C32.0652 44.3674 30.6627 36.3427 30.6118 35.2349C30.5609 34.1271 30.9718 28.2509 30.9718 28.2509C30.9718 28.2509 36.8576 21.3187 37.2329 20.7629C37.8233 19.8903 37.9798 19.1847 37.8406 18.8151C37.7004 18.4455 34.6073 18.1767 34.2732 18.2775C33.9392 18.3783 33.439 20.7283 33.439 20.7283C33.439 20.7283 31.3164 22.3738 30.5504 22.8096C29.7852 23.2464 29.3177 23.448 28.351 23.8503C27.3814 24.2544 26.6201 24.96 26.6201 24.96L26.9148 28.6867Z" fill="#757575" stroke="#6D6D6D" stroke-width="0.096" stroke-miterlimit="10"/>
<path d="M29.7979 27.0355C29.8007 27.2467 29.8075 27.4416 29.819 27.6125Z" fill="#757575"/>
<path d="M29.7979 27.0355C29.8007 27.2467 29.8075 27.4416 29.819 27.6125" stroke="#6D6D6D" stroke-width="0.096" stroke-miterlimit="10"/>
<path d="M29.9207 23.4154C29.9207 23.4154 29.8026 25.1924 29.7959 26.6016Z" fill="#757575"/>
<path d="M29.9207 23.4154C29.9207 23.4154 29.8026 25.1924 29.7959 26.6016" stroke="#6D6D6D" stroke-width="0.096" stroke-miterlimit="10"/>
<path d="M30.3191 23.1803C30.3191 23.1803 30.0752 24.7585 30.0205 25.564Z" fill="#757575"/>
<path d="M30.3191 23.1803C30.3191 23.1803 30.0752 24.7585 30.0205 25.564" stroke="#6D6D6D" stroke-width="0.096" stroke-miterlimit="10"/>
<path d="M33.4375 20.7294C33.4375 20.7294 34.5713 19.8414 34.8439 19.7953Z" fill="#757575"/>
<path d="M33.4375 20.7294C33.4375 20.7294 34.5713 19.8414 34.8439 19.7953" stroke="#6D6D6D" stroke-width="0.096" stroke-miterlimit="10"/>
<path d="M23.7876 28.4851L23.4612 37.584L22.9658 46.6157C22.9658 46.6157 21.618 46.3133 20.2999 45.7766C18.9818 45.239 18.2676 44.6688 18.2676 44.6688C18.2676 44.6688 18.7927 41.7475 19.1364 40.1357C19.4801 38.5238 19.9313 35.2003 19.9226 34.6627C19.914 34.1251 19.8439 31.8086 19.6231 30.5664C19.4023 29.3241 18.4029 27.7459 18.401 27.5779C18.3981 27.4099 21.8685 26.0333 22.5012 25.6973C23.1338 25.3613 23.6369 25.2941 23.6369 25.2941L23.8058 25.3613L23.7876 28.4851Z" fill="#757575" stroke="#6D6D6D" stroke-width="0.096" stroke-miterlimit="10"/>
<path d="M23.7305 24.8928C23.7305 24.8928 23.0969 25.1952 22.9721 25.799C22.8473 26.4038 22.4133 28.7203 22.3855 29.0563C22.3577 29.3923 22.4892 29.2579 22.7532 28.9555C23.0172 28.6531 23.3109 28.15 23.4473 28.2835C23.5836 28.4179 24.0953 28.9219 24.0953 28.9219H26.5797C26.5797 28.9219 26.7804 28.8547 26.9119 28.6867C27.0434 28.5187 27.2719 28.1155 27.4082 28.2499C27.5445 28.3843 27.894 29.2569 27.9919 29.0553C28.0898 28.8537 27.6137 26.3692 27.4668 25.5974C27.3228 24.8256 26.0057 24.3552 23.7305 24.8928Z" fill="#434444"/>
<path d="M23.8109 25.6646C23.8109 25.6646 23.6909 28.7202 23.9693 29.3241C24.2477 29.9289 24.9955 30.4991 25.6963 30.2639C26.3981 30.0287 26.8954 29.6255 26.9165 28.8873C26.9386 28.149 26.7312 25.63 26.7312 25.63L23.8109 25.6646Z" fill="#FCDAC8"/>
<path d="M26.9173 28.8883C26.9394 28.15 26.732 25.631 26.732 25.631L23.8117 25.6646C23.8117 25.6646 23.7685 26.7667 23.7944 27.7775C24.0872 27.7468 24.6469 27.646 25.1451 27.31C25.8584 26.8291 26.2098 26.2886 26.2098 26.2886L26.8731 29.207C26.8971 29.1091 26.9135 29.0035 26.9173 28.8883Z" fill="#E5CEC3"/>
<path d="M21.8326 20.7485C21.8326 20.7485 21.5782 20.376 21.3392 20.9347C21.0992 21.4934 21.5772 22.2701 21.798 22.4563C22.0179 22.6425 22.6121 22.8912 22.6073 22.6118C22.6025 22.3325 22.3664 21.1219 22.1734 20.687C21.9804 20.2512 21.8326 20.7485 21.8326 20.7485Z" fill="#FCDAC8"/>
<path d="M28.8813 20.8417C28.8813 20.8417 29.1242 20.4692 29.3815 21.0279C29.6387 21.5866 29.1856 22.3633 28.9706 22.5495C28.7565 22.7357 28.1699 22.9844 28.1661 22.705C28.1613 22.4257 28.36 21.2151 28.5395 20.7802C28.7191 20.3453 28.8813 20.8417 28.8813 20.8417Z" fill="#FCDAC8"/>
<path d="M22.2566 22.0522C22.2566 22.0522 22.5312 23.6976 22.7289 24.4426C22.9267 25.1875 24.6307 26.8954 25.2518 26.9261C25.8729 26.9568 27.503 25.9632 27.8909 24.9389C28.2787 23.9146 28.3766 22.2691 28.3747 22.176C28.3728 22.0829 28.5859 19.847 27.984 19.0406C27.3811 18.2333 24.8688 18.3571 23.6371 19.0099C22.4054 19.6618 21.7373 20.6554 22.2566 22.0522Z" fill="#FCDAC8"/>
<path d="M24.3896 23.4643C24.3925 23.6611 24.3051 23.8214 24.1938 23.8214C24.0824 23.8214 23.9893 23.6611 23.9864 23.4643C23.9835 23.2675 24.0709 23.1072 24.1822 23.1072C24.2936 23.1081 24.3867 23.2675 24.3896 23.4643Z" fill="#3A3939" stroke="#3A3939" stroke-width="0.096" stroke-miterlimit="10"/>
<path d="M26.7812 23.4643C26.7841 23.6611 26.6967 23.8214 26.5854 23.8214C26.474 23.8214 26.3809 23.6611 26.378 23.4643C26.3751 23.2675 26.4625 23.1072 26.5738 23.1072C26.6852 23.1081 26.7774 23.2675 26.7812 23.4643Z" fill="#3A3939" stroke="#3A3939" stroke-width="0.096" stroke-miterlimit="10"/>
<path d="M24.5579 22.3008L23.3877 22.8902" stroke="#3A3939" stroke-width="0.192" stroke-miterlimit="10" stroke-linecap="round" stroke-linejoin="round"/>
<path d="M26.3594 22.3314L27.5191 23.014" stroke="#3A3939" stroke-width="0.192" stroke-miterlimit="10" stroke-linecap="round" stroke-linejoin="round"/>
<path d="M25.8642 24.6759C25.8671 24.8881 25.6799 25.0589 25.4457 25.0589C25.2115 25.0589 25.0185 24.8871 25.0146 24.6759" stroke="#263238" stroke-width="0.096" stroke-miterlimit="10" stroke-linecap="round"/>
<path d="M25.1426 25.8095C25.1426 25.8095 25.4104 25.6742 25.7061 25.8095" stroke="#263238" stroke-width="0.096" stroke-miterlimit="10" stroke-linecap="round"/>
<path d="M23.5576 23.8051L24.0319 23.8943" stroke="#263238" stroke-width="0.096" stroke-miterlimit="10" stroke-linecap="round"/>
<path d="M27.3183 23.8051L26.8027 23.9625" stroke="#263238" stroke-width="0.096" stroke-miterlimit="10" stroke-linecap="round"/>
<path d="M23.9014 16.0291C23.9014 16.0291 22.2991 16.774 21.7942 18.2649C21.2902 19.7548 21.966 21.3072 22.0659 21.7113C22.1657 22.1145 22.231 22.3324 22.231 22.3324C22.231 22.3324 22.6879 21.8044 23.0259 21.5558C23.3638 21.3072 24.0444 21.1833 24.4467 21.0902C24.8489 20.9971 26.2409 20.6553 26.6076 20.2828C26.9743 19.9104 27.0963 19.7548 27.0963 19.7548C27.0963 19.7548 27.4006 21.3379 27.8115 21.8035C28.2223 22.2691 28.3231 22.7664 28.3231 22.7664C28.3231 22.7664 28.5929 22.1452 28.8012 21.5865C29.0095 21.0278 29.1555 18.4512 28.5795 17.3644C28.0035 16.2777 25.5651 15.2217 23.9014 16.0291Z" fill="#3A3939" stroke="#3A3939" stroke-width="0.096" stroke-miterlimit="10"/>
<path d="M27.0963 19.7549C27.0963 19.7549 25.8445 21.0902 24.3949 21.7104C22.9453 22.3315 21.4189 23.977 21.5562 24.815C21.6935 25.6531 22.7235 25.9642 22.5987 25.9642C22.4749 25.9642 20.9485 25.6848 20.96 24.4426C20.9715 23.2003 22.2637 22.4554 22.9415 22.1453C23.6202 21.8352 26.481 20.1581 27.0963 19.7549Z" fill="#3A3939" stroke="#3A3939" stroke-width="0.096" stroke-miterlimit="10"/>
<path d="M27.3906 20.686C27.3906 20.686 27.8178 22.176 28.0741 22.6732C28.3305 23.1696 28.7836 24.3494 28.4553 25.1884C28.1269 26.0265 27.8802 26.1513 27.8802 26.1513C27.8802 26.1513 28.9861 25.3747 28.966 24.1027C28.9458 22.8307 27.5903 21.5548 27.3906 20.686Z" fill="#3A3939" stroke="#3A3939" stroke-width="0.096" stroke-miterlimit="10"/>
<path d="M27.1671 16.5029C27.1971 15.6551 26.3946 14.9385 25.3746 14.9024C24.3546 14.8662 23.5033 15.5242 23.4733 16.372C23.4433 17.2198 24.2458 17.9364 25.2658 17.9725C26.2858 18.0087 27.1371 17.3507 27.1671 16.5029Z" fill="#3A3939" stroke="#3A3939" stroke-width="0.096" stroke-miterlimit="10"/>
<path d="M26.4317 15.1845C26.4474 14.6874 25.967 14.2689 25.3586 14.2497C24.7503 14.2304 24.2444 14.6178 24.2287 15.1149C24.2129 15.6119 24.6934 16.0305 25.3017 16.0497C25.9101 16.069 26.416 15.6816 26.4317 15.1845Z" fill="#3A3939" stroke="#3A3939" stroke-width="0.096" stroke-miterlimit="10"/>
<path d="M16.1659 39.1296L16.2456 44.1994C16.2456 44.1994 15.8443 46.4151 16.0478 46.5831C16.2523 46.7511 16.9329 47.3549 17.0702 47.5229C17.2075 47.6909 17.4773 47.7581 17.6789 47.7917C17.8805 47.8253 18.4488 47.6573 18.3432 47.3549C18.2376 47.0525 18.1089 47.4221 18.0072 47.3213C17.9045 47.2205 17.7326 46.9517 17.7326 46.9517L17.9227 46.2135C17.9227 46.2135 17.9678 46.9181 18.1358 46.9517C18.3038 46.9853 18.3355 46.8509 18.3317 46.5821C18.3278 46.3133 18.2597 46.2461 18.2846 45.7431C18.3105 45.2391 18.1032 44.8704 17.9976 44.6016C17.8929 44.3328 17.6837 43.8298 17.6472 43.6618C17.6107 43.4938 18.7233 39.4983 18.7233 39.4983C18.7233 39.4983 17.9928 39.9687 16.1659 39.1296Z" fill="#FCDAC8"/>
<path d="M18.4001 27.5789C18.4001 27.5789 17.4381 28.3507 17.2893 29.5267C17.1396 30.7017 17.0993 32.3808 16.9735 32.9184C16.8477 33.456 16.3438 37.6867 16.3438 37.6867C16.3438 37.6867 16.8209 38.1571 17.2269 38.3587C17.633 38.5603 18.5373 38.3923 18.6708 38.3587C18.8042 38.3251 19.0711 38.1907 19.0711 38.1907C19.0711 38.1907 19.6231 34.8998 19.6481 34.3296C19.673 33.7584 19.89 32.6169 19.89 32.6169C19.89 32.6169 19.866 28.9219 18.4001 27.5789Z" fill="#757575" stroke="#6D6D6D" stroke-width="0.096" stroke-miterlimit="10"/>
<path d="M19.032 34.0253C18.9581 34.1549 18.8947 34.2691 18.8506 34.3565Z" fill="#757575"/>
<path d="M19.032 34.0253C18.9581 34.1549 18.8947 34.2691 18.8506 34.3565" stroke="#6D6D6D" stroke-width="0.096" stroke-miterlimit="10"/>
<path d="M19.8909 32.615C19.8909 32.615 19.5367 33.1747 19.2295 33.6873Z" fill="#757575"/>
<path d="M19.8909 32.615C19.8909 32.615 19.5367 33.1747 19.2295 33.6873" stroke="#6D6D6D" stroke-width="0.096" stroke-miterlimit="10"/>
<path d="M19.0846 33.3531L18.3828 34.5234" stroke="#6D6D6D" stroke-width="0.096" stroke-miterlimit="10"/>
<path d="M16.233 37.0138C16.233 37.0138 16.9136 37.6186 17.5549 37.8192C18.1962 38.0208 18.7328 37.9872 18.967 37.92C19.2013 37.8528 19.3002 37.752 19.3376 38.0208C19.375 38.2896 19.1552 39.2295 19.159 39.4983C19.1629 39.7671 19.065 39.9015 18.5293 40.0023C17.9936 40.1031 16.8493 39.9015 16.5094 39.6663C16.1696 39.4311 15.9296 39.0951 15.9584 38.7936C15.9872 38.4912 16.111 37.8202 16.1408 37.585C16.1715 37.3498 16.1005 37.081 16.233 37.0138Z" fill="#434444"/>
<path d="M23.3854 32.0919C23.3778 32.0842 23.3682 32.0775 23.3595 32.0717C23.1214 31.9229 21.9022 32.2388 21.5941 32.2388C20.5918 32.2388 20.1771 31.9651 20.1368 32.3299C20.0974 32.6947 20.012 33.0595 20.1061 33.2419C20.2002 33.4243 20.516 33.2419 20.7906 33.2871C21.0651 33.3322 21.6171 33.6519 21.8446 33.6519C22.0722 33.6519 22.6597 33.2871 22.796 33.2871C22.9323 33.2871 23.2539 33.4234 23.3432 33.2861C23.4843 33.0634 23.5832 32.282 23.3854 32.0919Z" fill="white" stroke="white" stroke-width="0.096" stroke-miterlimit="10"/>
<path d="M21.9619 33.1747C21.9638 33.2841 21.8765 33.3734 21.7661 33.3734C21.6566 33.3734 21.5664 33.2841 21.5645 33.1747C21.5626 33.0652 21.6499 32.976 21.7603 32.976C21.8707 32.976 21.96 33.0652 21.9619 33.1747Z" stroke="#263238" stroke-width="0.096" stroke-miterlimit="10" stroke-linecap="round"/>
<path d="M30.405 32.0919C30.3973 32.0842 30.3886 32.0775 30.379 32.0717C30.141 31.9229 28.9218 32.2388 28.6136 32.2388C27.6114 32.2388 27.1966 31.9651 27.1563 32.3299C27.117 32.6947 27.0315 33.0595 27.1256 33.2419C27.2197 33.4243 27.5355 33.2419 27.8101 33.2871C28.0846 33.3322 28.6366 33.6519 28.8642 33.6519C29.0917 33.6519 29.6792 33.2871 29.8155 33.2871C29.9518 33.2871 30.2734 33.4234 30.3627 33.2861C30.5038 33.0634 30.6027 32.282 30.405 32.0919Z" fill="white" stroke="white" stroke-width="0.096" stroke-miterlimit="10"/>
<path d="M29.0166 33.2247C29.0185 33.3342 28.9312 33.4234 28.8208 33.4234C28.7104 33.4234 28.6211 33.3342 28.6192 33.2247C28.6173 33.1153 28.7046 33.026 28.815 33.026C28.9245 33.026 29.0147 33.1153 29.0166 33.2247Z" stroke="#263238" stroke-width="0.096" stroke-miterlimit="10" stroke-linecap="round"/>
<path opacity="0.55" d="M41.0248 8.74461L40.6677 8.12541L40.3096 7.50525H41.0248H41.7409L41.3828 8.12541L41.0248 8.74461Z" fill="#8C8C8C"/>
<path opacity="0.55" d="M8.86266 5.33567L8.50458 4.71647L8.14746 4.09631H8.86266H9.57882L9.22074 4.71647L8.86266 5.33567Z" fill="#8C8C8C"/>
<path d="M18.9582 16.9803H11.4952C11.1841 16.9803 10.9316 17.2328 10.9316 17.5439V19.9381C10.9316 20.2491 11.1841 20.5016 11.4952 20.5016H17.6564L19.2376 21.6728L18.6942 20.5016H18.9582C19.2692 20.5016 19.5217 20.2491 19.5217 19.9381V17.5439C19.5217 17.2328 19.2692 16.9803 18.9582 16.9803Z" fill="#474747" stroke="#474747" stroke-width="0.096" stroke-miterlimit="10"/>
<path d="M19.049 16.8374H11.586C11.2749 16.8374 11.0225 17.0899 11.0225 17.4009V19.7952C11.0225 20.1062 11.2749 20.3587 11.586 20.3587H17.7473L19.2372 21.6729L18.785 20.3587H19.049C19.3601 20.3587 19.6125 20.1062 19.6125 19.7952V17.4009C19.6125 17.0899 19.361 16.8374 19.049 16.8374Z" fill="white" stroke="#666666" stroke-width="0.096" stroke-miterlimit="10"/>
<path d="M12.2782 17.7543V19.3517H12.1006V17.7543H12.2782Z" fill="#515151"/>
<path d="M12.5552 18.1767H12.4823L12.5389 17.976H12.4727V17.7543H12.6435V17.9578L12.5552 18.1767Z" fill="#515151"/>
<path d="M13.4146 19.3498H13.2437L12.9788 18.0788V19.3527H12.8232V17.7552H13.0719L13.334 19.0311L13.5874 17.7552H13.836V19.3527H13.6671V18.0672L13.4146 19.3498Z" fill="#515151"/>
<path d="M15.0648 18.1382V18.1814H14.8958V18.1286C14.8958 17.9846 14.8411 17.9002 14.7134 17.9002C14.5858 17.9002 14.531 17.9846 14.531 18.1258C14.531 18.4838 15.0677 18.5184 15.0677 18.9677C15.0677 19.2096 14.9515 19.367 14.7067 19.367C14.4629 19.367 14.3486 19.2096 14.3486 18.9677V18.8765H14.5157V18.9773C14.5157 19.1213 14.5752 19.2058 14.7029 19.2058C14.8306 19.2058 14.8901 19.1213 14.8901 18.9773C14.8901 18.6211 14.3563 18.5866 14.3563 18.1373C14.3563 17.8906 14.4706 17.7379 14.7106 17.7379C14.9506 17.7389 15.0648 17.8963 15.0648 18.1382Z" fill="#515151"/>
<path d="M15.208 18.1402C15.208 17.8963 15.329 17.7389 15.5728 17.7389C15.8195 17.7389 15.9405 17.8963 15.9405 18.1402V18.9667C15.9405 19.2087 15.8195 19.368 15.5728 19.368C15.329 19.368 15.208 19.2087 15.208 18.9667V18.1402ZM15.3846 18.9754C15.3846 19.1213 15.4461 19.2058 15.5738 19.2058C15.7043 19.2058 15.7629 19.1213 15.7629 18.9754V18.1306C15.7629 17.9866 15.7034 17.9002 15.5738 17.9002C15.4461 17.9002 15.3846 17.9866 15.3846 18.1306V18.9754Z" fill="#515151"/>
<path d="M16.4655 17.7543C16.7161 17.7543 16.8217 17.8819 16.8217 18.1191V18.2487C16.8217 18.4243 16.7603 18.5338 16.623 18.577C16.7689 18.6202 16.8236 18.7392 16.8236 18.9101V19.1587C16.8236 19.2298 16.8255 19.296 16.8553 19.3507H16.6748C16.6547 19.3047 16.6451 19.2643 16.6451 19.1568V18.9053C16.6451 18.7248 16.5606 18.6682 16.4127 18.6682H16.287V19.3507H16.1094V17.7533H16.4655V17.7543ZM16.4204 18.5079C16.5615 18.5079 16.646 18.4618 16.646 18.289V18.1363C16.646 17.9923 16.5932 17.9175 16.4607 17.9175H16.287V18.5088H16.4204V18.5079Z" fill="#515151"/>
<path d="M17.3649 17.7543C17.6155 17.7543 17.7211 17.8819 17.7211 18.1191V18.2487C17.7211 18.4243 17.6597 18.5338 17.5224 18.577C17.6683 18.6202 17.723 18.7392 17.723 18.9101V19.1587C17.723 19.2298 17.7249 19.296 17.7547 19.3507H17.5742C17.5541 19.3047 17.5445 19.2643 17.5445 19.1568V18.9053C17.5445 18.7248 17.46 18.6682 17.3121 18.6682H17.1864V19.3507H17.0088V17.7533H17.3649V17.7543ZM17.3198 18.5079C17.4609 18.5079 17.5454 18.4618 17.5454 18.289V18.1363C17.5454 17.9923 17.4926 17.9175 17.3601 17.9175H17.1864V18.5088H17.3198V18.5079Z" fill="#515151"/>
<path d="M18.169 18.7796L17.8311 17.7552H18.0163L18.265 18.5405L18.5155 17.7552H18.6845L18.3447 18.7796V19.3527H18.169V18.7796Z" fill="#515151"/>
</g>
</g>
<defs>
<clipPath id="clip0_1146_49384">
<rect width="48" height="48" rx="24" fill="white"/>
</clipPath>
<clipPath id="clip1_1146_49384">
<rect width="48" height="48" fill="white"/>
</clipPath>
</defs>
</svg>
