<svg width="48" height="48" viewBox="0 0 48 48" fill="none" xmlns="http://www.w3.org/2000/svg">
<g clip-path="url(#clip0_1146_49385)">
<rect width="48" height="48" rx="24" fill="white"/>
<path opacity="0.54" d="M24.9814 -1.79517H-2.31347C-2.77351 -1.79517 -3.14551 -1.42193 -3.14551 -0.963126V47.6126C-3.14551 48.0727 -2.77227 48.4447 -2.31347 48.4447H24.9814C25.4415 48.4447 25.8135 48.0714 25.8135 47.6126V-0.961886C25.8135 -1.42193 25.4415 -1.79517 24.9814 -1.79517ZM24.9814 0.0536736V47.6126H-2.31347V0.0536736" fill="#9B9A9A"/>
<g opacity="0.54">
<path opacity="0.7" d="M24.4478 -1.37854H-1.78063C-2.30515 -1.37854 -2.73047 -0.95322 -2.73047 -0.4287V47.0794C-2.73047 47.6039 -2.30515 48.0293 -1.78063 48.0293H24.4466C24.9711 48.0293 25.3964 47.6039 25.3964 47.0794V-0.4287C25.3977 -0.95322 24.9724 -1.37854 24.4478 -1.37854Z" fill="#EFEFEF"/>
<mask id="mask0_1146_49385" style="mask-type:luminance" maskUnits="userSpaceOnUse" x="-3" y="-2" width="29" height="51">
<path d="M24.4478 -1.37854H-1.78063C-2.30515 -1.37854 -2.73047 -0.95322 -2.73047 -0.4287V47.0794C-2.73047 47.6039 -2.30515 48.0293 -1.78063 48.0293H24.4466C24.9711 48.0293 25.3964 47.6039 25.3964 47.0794V-0.4287C25.3977 -0.95322 24.9724 -1.37854 24.4478 -1.37854Z" fill="white"/>
</mask>
<g mask="url(#mask0_1146_49385)">
<path d="M16.6713 26.6874L19.5989 36.2106H22.5203L19.9709 24.5707C19.9709 24.5707 19.7415 13.8484 17.2987 12.782C16.2249 12.3133 14.0623 12.4348 12.6053 12.5898V12.1422V11.0931C13.3009 10.5128 13.7461 9.64108 13.7461 8.67016V8.50152C14.035 7.83936 14.4331 6.52496 14.1578 4.68232C14.1466 4.60668 14.133 4.53228 14.1181 4.46036C13.9755 3.76348 13.6295 3.19184 13.1633 2.76776C13.1633 2.76776 11.0789 0.575443 8.05573 2.47016C8.41409 2.57928 8.41409 2.57928 8.41409 2.57928C8.41409 2.57928 7.33901 2.86572 6.76489 4.37108C7.01537 4.15656 7.26709 4.08464 7.26709 4.08464C7.26709 4.08464 6.26145 5.7264 7.43697 7.81456V8.67264C7.43697 9.64356 7.88213 10.5165 8.57777 11.0956V12.5129C8.40665 12.534 8.22809 12.5613 8.04333 12.5972C6.58633 12.4398 4.38285 12.3096 3.29537 12.7845C0.851331 13.8509 1.35353 24.5732 1.35353 24.5732L0.144531 36.213H3.06597H17.2516L15.7251 27.1846C15.6272 26.3178 15.59 25.4461 15.6111 24.5756C16.0041 25.4498 16.3662 26.1864 16.6713 26.6874Z" fill="#A8A8A8"/>
<path d="M8.35742 6.61933C8.53722 7.18725 9.18326 7.50097 9.79334 7.31249C9.41266 6.49781 8.35742 6.61933 8.35742 6.61933Z" fill="#4F4E4E"/>
<path d="M10.998 7.31376C11.6081 7.50224 12.2542 7.18852 12.434 6.6206C12.4352 6.61936 11.38 6.49784 10.998 7.31376Z" fill="#4F4E4E"/>
<path d="M26.0002 23.8925C25.7509 23.7152 24.904 23.8268 23.9294 24.0388C22.7328 23.1039 25.4719 22.3933 25.7931 19.7484C26.1304 16.9708 24.5295 16.9336 23.8128 15.5684C23.2474 14.4896 24.0273 12.6755 24.2369 11.5843C24.5692 9.85197 24.5097 7.98453 23.4743 6.48165C22.7055 5.36565 21.4184 4.69481 20.0693 5.03705C19.1901 5.25901 18.3643 5.86289 18.0295 6.69741C16.4671 6.42337 14.7658 6.82513 13.4526 8.05025C12.6429 8.80417 11.8493 9.82717 11.2392 11.2098C10.4183 13.0698 10.7755 14.75 11.4798 16.0842V17.4941C11.4798 19.2723 12.4073 20.8433 13.8023 21.751L13.7626 21.756V25.6409C13.7626 25.6409 7.93462 24.7667 7.25138 25.6409C6.56814 26.5151 1.23242 47.6137 1.23242 47.6137H30.856C29.6904 30.1086 26.6797 24.3773 26.0002 23.8925Z" fill="#8E8E8E"/>
<path d="M12.2148 15.209C12.4926 16.0881 13.492 16.5717 14.4357 16.2816C13.8454 15.0205 12.2148 15.209 12.2148 15.209Z" fill="#4F4E4E"/>
<path d="M16.2969 16.2816C17.2405 16.5717 18.24 16.0881 18.5177 15.209C18.5177 15.209 16.8871 15.0205 16.2969 16.2816Z" fill="#4F4E4E"/>
<path d="M13.3851 33.9851C13.0987 33.4482 11.8934 32.7563 10.7179 32.1809C11.4817 30.2391 11.2288 27.1664 10.4798 25.9512C9.6614 24.6244 11.4892 23.7142 10.987 21.9646C12.2778 22.008 13.1098 13.1184 4.91592 13.1184C4.91592 13.1184 1.77624 13.2374 0.629241 15.2214C-0.51776 17.2054 -3.45656 18.0288 -3.06224 20.3588C-2.66792 22.6887 -1.59284 22.4283 -1.70072 23.7588C-1.8086 25.0894 -3.09944 25.0187 -3.09944 25.0187C-3.09944 25.0187 -2.64684 25.8296 -1.41428 25.3411C-4.35308 27.9934 -0.625639 30.4536 -1.12784 31.5894C-1.63004 32.7253 -3.09944 32.1871 -3.09944 32.1871C-3.09944 32.1871 -2.82168 32.6732 -2.04544 32.8741C-2.77208 33.1357 -3.43672 33.385 -3.85212 33.5635C-5.24712 34.1612 -7.73828 47.6127 -7.73828 47.6127H17.7698C17.7685 47.6127 13.9828 35.1048 13.3851 33.9851Z" fill="#6D6C6C"/>
<path d="M3.63184 20.5051C3.9096 21.3843 4.90904 21.8679 5.85268 21.5777C5.26368 20.3154 3.63184 20.5051 3.63184 20.5051Z" fill="#4F4E4E"/>
<path d="M7.71387 21.5777C8.65751 21.8679 9.65695 21.3843 9.93471 20.5051C9.93471 20.5051 8.30287 20.3154 7.71387 21.5777Z" fill="#4F4E4E"/>
</g>
</g>
<path d="M36.0224 20.242C35.3404 17.8848 34.4054 17.2102 34.4054 17.2102C34.0483 16.8171 33.6341 16.4811 33.1766 16.2194C33.4221 16 33.4903 15.6577 33.1729 15.1233C32.1759 13.4468 29.2507 14.0879 28.7423 14.8778C28.3542 15.4829 28.4633 15.8859 28.6469 16.1302C27.1117 16.8853 26.5116 18.1179 25.7614 19.0132C25.5977 19.2091 25.4067 19.3814 25.1997 19.5315C24.9839 19.6877 24.7495 19.8192 24.5003 19.9122C23.9882 20.1031 23.2801 20.2271 22.3997 20.0424C22.334 20.397 22.4791 20.6376 22.6539 20.7938C21.7487 21.3481 21.1337 22.1466 21.1126 23.6718C21.0791 26.1221 18.6835 26.6627 19.2911 28.8538C19.8987 31.0461 22.6341 31.5719 27.4292 30.4918C32.2243 29.4118 35.3081 27.8953 36.2964 25.3533C36.568 24.6552 36.563 23.6942 36.413 22.6674C37.276 23.0332 37.5587 22.438 37.5587 22.438C37.5587 22.438 36.7044 22.5992 36.0224 20.242Z" fill="#49372A"/>
<path d="M31.3564 21.6122C31.3564 21.6122 36.0523 22.0772 39.91 27.2926C43.7688 32.5093 44.9828 37.8686 43.7688 40.0113C42.5536 42.1553 40.809 41.9035 38.9093 39.4707C37.0108 37.0378 31.3564 21.6122 31.3564 21.6122Z" fill="#605A5A"/>
<path d="M39.5939 47.0409C39.5939 47.0409 43.4602 47.2802 43.4602 48.4458C38.3266 48.4458 37.3594 48.4458 37.3594 48.4458V47.0409H39.5939Z" fill="#515151"/>
<path d="M35.894 27.3385C35.1438 25.4091 32.3575 23.0506 28.3548 23.7661C28.3548 23.7661 24.853 23.9806 22.5665 29.697C21.567 32.1956 19.335 34.5962 18.725 36.1822C18.0231 38.0062 18.0504 39.6579 19.3896 41.0479C20.1919 41.8812 21.2955 42.3586 22.4474 42.4764L25.3453 42.774C26.7329 38.5382 27.3603 36.2181 29.2389 34.2416C30.4839 32.9321 32.422 32.4696 34.0687 33.2161C34.3862 33.3599 34.6689 33.5435 34.8611 33.7766C36.4904 32.3481 38.3777 32.9396 38.3777 32.9396C38.3777 32.9396 36.6442 29.2667 35.894 27.3385Z" fill="#605A5A"/>
<path d="M34.9669 24.0018C34.9669 24.0018 34.1894 25.284 34.4672 27.1068C34.7437 28.9296 34.9396 29.567 34.9396 29.567" stroke="#222221" stroke-width="0.10475" stroke-miterlimit="10" stroke-linecap="round" stroke-linejoin="round"/>
<path d="M21.1532 33.3811C21.1532 33.3811 21.0652 36.2877 22.6313 38.7466C23.5564 37.9703 23.7597 37.9431 23.7597 37.9431L21.1532 33.3811Z" fill="#28201E"/>
<path d="M40.4534 32.885C39.6895 30.7348 37.6559 27.9014 35.1834 29.532C33.032 30.9518 31.4919 34.9831 30.5284 37.5127H26.7129C26.7129 37.5127 23.2831 45.6582 29.6195 48.4458H35.884C36.907 48.4458 35.6025 47.9163 35.8865 47.2219L40.7696 47.171C40.7683 47.171 42.0654 37.4246 40.4534 32.885Z" fill="#878787"/>
<path d="M35.1367 31.4058C35.1367 31.4058 35.789 29.6153 36.7177 32.4685C37.6465 35.3218 38.202 38.3151 37.7916 47.1514" stroke="white" stroke-width="0.115733" stroke-miterlimit="10"/>
<path d="M34.3008 30.5538C34.3008 30.5538 35.8632 31.8434 36.6766 35.8152C37.3698 39.2028 37.1181 47.0409 37.1181 47.0409L37.1106 47.1525" stroke="#222221" stroke-width="0.10475" stroke-miterlimit="10" stroke-linecap="round" stroke-linejoin="round"/>
<path d="M34.9171 47.0409C34.9171 47.0409 38.7834 47.2802 38.7834 48.4458C33.6498 48.4458 32.6826 48.4458 32.6826 48.4458V47.0409H34.9171Z" fill="#515151"/>
<path d="M35.6658 32.8851C34.9019 30.7349 33.0642 28.5687 30.3958 29.5321C27.9716 30.4088 26.7043 34.9832 25.7408 37.5128C24.2974 37.5475 22.4808 37.5983 21.6562 38.5903C21.6562 38.5903 20.9854 41.5552 21.1528 43.0109C21.3921 45.0904 22.115 47.2517 24.8319 48.4471H31.0964C31.5948 47.8643 31.973 47.8717 32.257 47.1773L36.003 47.1228C36.0018 47.1215 37.2778 37.4247 35.6658 32.8851Z" fill="#878787"/>
<path d="M24.875 43.1249C24.875 43.1249 25.0089 38.6932 26.5254 35.2385" stroke="#222221" stroke-width="0.10475" stroke-miterlimit="10" stroke-linecap="round" stroke-linejoin="round"/>
<path d="M22.5421 37.953C22.5421 37.953 21.7187 42.4219 23.7598 45.3421C24.5125 46.4197 25.7202 47.4266 27.0458 46.6553C28.7409 45.6695 29.315 43.5007 29.6535 41.7064C29.997 39.8886 30.1569 38.0398 30.3442 36.2008C30.4632 35.0266 30.5637 33.8374 30.8079 32.6805C30.8848 32.3147 31.046 31.2098 31.5916 31.2098C33.066 31.2098 34.5899 40.8657 33.8943 47.1538" stroke="white" stroke-width="0.115733" stroke-miterlimit="10"/>
<path d="M20.54 40.0933C20.54 40.0933 21.3076 37.56 24.6271 37.5029" stroke="#222221" stroke-width="0.10475" stroke-miterlimit="10" stroke-linecap="round" stroke-linejoin="round"/>
<path d="M30.8906 27.7576L33.0346 25.5343" stroke="#222221" stroke-width="0.10475" stroke-miterlimit="10" stroke-linecap="round" stroke-linejoin="round"/>
<path d="M32.6826 42.5161C32.6826 42.5161 32.6826 47.3583 30.5635 48.4446C33.0447 48.4446 32.6826 48.4446 32.6826 48.4446V42.5161Z" fill="#28201E"/>
<path d="M32.878 40.3648C32.878 40.3648 32.8569 40.8794 34.17 41.709C35.4832 42.5385 36.0697 42.9527 36.3624 42.5559C37.053 42.9142 37.1225 42.6625 37.28 42.5299C37.8479 42.6142 37.6867 42.2422 37.3519 42.0376C37.0171 41.833 35.978 41.1621 35.978 41.1621L36.929 41.5726C36.929 41.5726 37.4845 41.8726 37.5726 41.6693C37.6606 41.4659 35.327 40.0139 35.327 40.0139C35.327 40.0139 36.4479 40.3574 36.8472 39.9457C37.0419 39.7275 36.1267 39.6543 35.167 39.2203C34.2072 38.7851 33.3777 39.2129 33.3777 39.2129L32.878 40.3648Z" fill="#FCDAC8"/>
<path d="M42.1749 39.7682C42.387 40.2593 42.2592 40.8309 41.8575 41.1831C41.6789 41.3393 41.4458 41.5154 41.1395 41.7088C39.8264 42.5384 39.2398 42.9526 38.9472 42.5558C38.2565 42.9141 38.1871 42.6624 38.0296 42.5297C37.4617 42.614 37.6229 42.242 37.9577 42.0374C38.2925 41.8328 39.3316 41.162 39.3316 41.162L38.3805 41.5724C38.3805 41.5724 37.825 41.8725 37.737 41.6692C37.6489 41.4658 39.9826 40.0138 39.9826 40.0138C39.9826 40.0138 38.8616 40.3572 38.4624 39.9456C38.2677 39.7273 39.1828 39.6542 40.1426 39.2202C40.4749 39.0701 40.7911 39.023 41.0626 39.0255C41.5487 39.0267 41.9827 39.3231 42.1749 39.7682Z" fill="#FCDAC8"/>
<path d="M28.608 21.7287C28.608 21.7287 24.4106 22.2905 22.3385 25.5777C20.2665 28.8649 20.8691 35.7581 22.6151 37.4495C25.4212 40.17 27.8776 38.8693 28.9998 40.2258C30.122 41.5836 33.2877 42.5136 34.5525 39.9394C35.8186 37.3651 35.3387 35.3663 29.9075 32.1509C25.7287 29.6771 27.7983 24.4679 29.166 21.9098C29.5764 21.1447 28.608 21.7287 28.608 21.7287Z" fill="#605A5A"/>
<path d="M30.3398 21.4796L27.7705 24.0204L30.2865 27.7577L32.8855 24.4916L30.3398 21.4796Z" fill="#FCDAC8"/>
<path d="M28.3878 21.6544C28.3878 21.6544 28.0282 23.4611 28.9941 23.5454C29.9601 23.6297 29.9229 20.9575 28.9991 20.8769C28.4188 20.8273 28.3878 21.6544 28.3878 21.6544Z" fill="#FCDAC8"/>
<path d="M28.9588 23.7637C28.9588 23.7637 28.8509 25.8928 31.2106 26.5971C31.3185 26.4607 32.1679 25.3943 32.1679 25.3943L28.9588 23.7637Z" fill="#28201E"/>
<path d="M35.854 22.3884C35.854 22.3884 35.8962 24.2298 34.9315 24.1467C33.9655 24.0624 34.4627 21.4373 35.3865 21.5179C35.9669 21.5675 35.854 22.3884 35.854 22.3884Z" fill="#FCDAC8"/>
<path d="M31.7356 26.3168C33.4282 26.4644 34.9336 25.1996 35.0811 23.507L35.2361 21.7264C35.3837 20.0338 34.1189 18.5284 32.4263 18.3808C30.7337 18.2333 29.2283 19.4981 29.0808 21.1907L28.9258 22.9713C28.7782 24.6639 30.043 26.1693 31.7356 26.3168Z" fill="#FCDAC8"/>
<path opacity="0.69" d="M34.4337 22.4493C34.4337 22.4493 34.7636 22.5448 34.6879 23.4128C34.6222 24.163 34.332 24.6417 34.332 24.6417C34.332 24.6417 34.7139 24.721 34.7933 24.0713C34.8764 23.3917 34.9545 22.6353 34.4337 22.4493Z" fill="white"/>
<path d="M32.4423 21.2601L32.5328 22.9118C32.5328 22.9118 33.0672 22.9788 32.9556 23.2516C32.844 23.5244 32.4336 23.4512 32.4336 23.4512" stroke="#49372A" stroke-width="0.0868" stroke-miterlimit="10" stroke-linecap="round" stroke-linejoin="round"/>
<path d="M32.4795 24.5039C32.4795 24.5039 32.0529 24.189 31.2109 24.313" stroke="#49372A" stroke-width="0.0868" stroke-miterlimit="10" stroke-linecap="round" stroke-linejoin="round"/>
<path opacity="0.6" d="M29.1679 22.4604C29.153 22.634 29.3254 22.7902 29.5548 22.8101C29.7829 22.8299 29.9813 22.7059 29.9962 22.5323C30.0111 22.3587 29.8387 22.2025 29.6093 22.1826C29.3799 22.1628 29.1828 22.2868 29.1679 22.4604Z" fill="#F2B0AD"/>
<path opacity="0.6" d="M34.1034 22.8895C34.0886 23.0631 34.2609 23.2193 34.4903 23.2391C34.7185 23.259 34.9169 23.135 34.9318 22.9614C34.9466 22.7878 34.7743 22.6315 34.5449 22.6117C34.3167 22.5919 34.1183 22.7159 34.1034 22.8895Z" fill="#F2B0AD"/>
<path d="M30.2882 27.7578C30.2882 27.7578 28.195 25.9933 27.6705 23.6348C27.833 22.5597 28.2062 21.8033 28.2062 21.8033C28.2062 21.8033 25.9754 21.1077 23.5488 22.8127C21.7644 24.0663 22.9002 25.8197 22.9002 25.8197C22.9002 25.8197 26.1131 30.4907 30.2882 27.7578Z" fill="#605A5A"/>
<path opacity="0.69" d="M30.5497 22.3252C30.5497 22.3252 30.3067 22.2991 30.2943 22.717C30.2844 23.0903 30.2199 23.368 30.0649 23.2601C29.9322 23.1671 30.1244 22.1937 30.5497 22.3252Z" fill="white"/>
<path d="M26.8706 19.266C26.1997 20.17 26.4676 21.4274 27.3939 22.066C27.4298 22.0908 27.4658 22.118 27.5017 22.1466C28.3611 22.8248 29.6048 22.4528 30.1057 20.6214C30.6079 18.7899 32.1083 20.8594 33.3719 19.0044C33.8629 20.609 34.6107 21.2699 35.1612 21.5402C35.4935 21.7039 35.873 21.4298 35.8321 21.0603C35.6808 19.7174 35.0149 16.8158 32.0811 16.8158C29.5477 16.817 27.9419 17.8227 26.8706 19.266Z" fill="#49372A"/>
<path d="M29.5974 21.8838C29.5614 22.5968 30.112 23.2044 30.825 23.2404C31.538 23.2763 32.1456 22.7258 32.1815 22.0128C32.2175 21.2998 31.6669 20.6922 30.9539 20.6562C30.2397 20.6203 29.6321 21.1696 29.5974 21.8838Z" stroke="#7C7C7C" stroke-width="0.10475" stroke-miterlimit="10"/>
<path d="M32.7751 22.0413C32.7391 22.7543 33.2897 23.3619 34.0027 23.3978C34.7157 23.4338 35.3233 22.8832 35.3593 22.1702C35.3952 21.4572 34.8447 20.8496 34.1317 20.8137C33.4174 20.7777 32.8111 21.3283 32.7751 22.0413Z" stroke="#7C7C7C" stroke-width="0.10475" stroke-miterlimit="10"/>
<path d="M32.1797 22.0116L32.7761 22.0414" stroke="#7C7C7C" stroke-width="0.10475" stroke-miterlimit="10"/>
<path d="M26.7451 22.8125C26.7451 22.8125 28.7924 24.9726 30.3696 28.0366" stroke="#222221" stroke-width="0.10475" stroke-miterlimit="10" stroke-linecap="round" stroke-linejoin="round"/>
<path d="M22.7715 24.9851C22.7715 24.9851 24.0884 23.605 25.7078 23.7637C27.3285 23.9224 28.251 25.2765 28.6689 26.416C29.0868 27.5556 28.5945 31.0363 28.5945 31.0363" stroke="#222221" stroke-width="0.10475" stroke-miterlimit="10" stroke-linecap="round" stroke-linejoin="round"/>
<path d="M25.2588 30.8638C25.2588 30.8638 26.3525 30.4584 28.1753 31.035" stroke="#222221" stroke-width="0.10475" stroke-miterlimit="10" stroke-linecap="round" stroke-linejoin="round"/>
<path d="M26.7178 30.3653C26.7178 30.3653 27.5337 30.3368 28.0805 30.7262" stroke="#222221" stroke-width="0.10475" stroke-miterlimit="10" stroke-linecap="round" stroke-linejoin="round"/>
<path d="M28.8386 39.6331C28.8386 39.6331 28.6328 37.7719 30.3712 36.5059" stroke="#222221" stroke-width="0.10475" stroke-miterlimit="10" stroke-linecap="round" stroke-linejoin="round"/>
<path d="M39.8047 29.9623C39.8047 29.9623 40.0924 29.6362 40.9938 29.7515" stroke="#222221" stroke-width="0.10475" stroke-miterlimit="10" stroke-linecap="round" stroke-linejoin="round"/>
<path d="M28.8037 27.0892L30.0598 28.6144" stroke="#222221" stroke-width="0.10475" stroke-miterlimit="10" stroke-linecap="round" stroke-linejoin="round"/>
<path d="M41.2627 36.2504C41.2627 36.2504 42.9107 36.5492 43.6943 37.7991" stroke="#222221" stroke-width="0.10475" stroke-miterlimit="10" stroke-linecap="round" stroke-linejoin="round"/>
<path d="M41.4551 39.0924C41.4551 39.0924 42.9034 39.8339 41.9387 41.1062" stroke="#222221" stroke-width="0.10475" stroke-miterlimit="10" stroke-linecap="round" stroke-linejoin="round"/>
<path d="M32.6826 47.1698L37.1094 47.1525" stroke="#222221" stroke-width="0.10475" stroke-miterlimit="10" stroke-linecap="round" stroke-linejoin="round"/>
<path d="M40.7686 47.1712L37.1094 47.1526" stroke="#222221" stroke-width="0.10475" stroke-miterlimit="10" stroke-linecap="round" stroke-linejoin="round"/>
<path d="M36.0615 47.7427L36.5302 47.2145" stroke="#222221" stroke-width="0.10475" stroke-miterlimit="10" stroke-linecap="round" stroke-linejoin="round"/>
<path d="M36.5312 47.8742L37.0012 47.3472" stroke="#222221" stroke-width="0.10475" stroke-miterlimit="10" stroke-linecap="round" stroke-linejoin="round"/>
<path d="M37 48.007L37.4687 47.4788" stroke="#222221" stroke-width="0.10475" stroke-miterlimit="10" stroke-linecap="round" stroke-linejoin="round"/>
<path d="M40.75 47.7427L41.22 47.2145" stroke="#222221" stroke-width="0.10475" stroke-miterlimit="10" stroke-linecap="round" stroke-linejoin="round"/>
<path d="M41.2207 47.8742L41.6894 47.3472" stroke="#222221" stroke-width="0.10475" stroke-miterlimit="10" stroke-linecap="round" stroke-linejoin="round"/>
<path d="M41.6904 48.0068L42.1604 47.4785" stroke="#222221" stroke-width="0.10475" stroke-miterlimit="10" stroke-linecap="round" stroke-linejoin="round"/>
<path opacity="0.69" d="M30.0482 24.6923C30.0482 24.6923 30.0321 25.1796 30.0482 25.4077C30.0643 25.6347 30.1796 26.0513 30.5367 25.8802C30.2032 25.528 30.13 25.4226 30.0482 24.6923Z" fill="white"/>
<path d="M22.7715 20.8744C22.7715 20.8744 23.384 21.2551 24.231 20.9748" stroke="#33251C" stroke-width="0.0868" stroke-miterlimit="10" stroke-linecap="round" stroke-linejoin="round"/>
<path d="M26.8447 20.9761C26.8447 20.9761 27.4709 21.5155 28.4828 21.0778" stroke="#33251C" stroke-width="0.0868" stroke-miterlimit="10" stroke-linecap="round" stroke-linejoin="round"/>
<path d="M27.5801 20.8744C27.5801 20.8744 28.4592 21.0021 29.0135 19.9097" stroke="#33251C" stroke-width="0.0868" stroke-miterlimit="10" stroke-linecap="round" stroke-linejoin="round"/>
<path d="M28.8389 16.0755C28.8389 16.0755 29.2753 15.634 30.4533 15.634" stroke="#33251C" stroke-width="0.0868" stroke-miterlimit="10" stroke-linecap="round" stroke-linejoin="round"/>
<path d="M32.9735 16.0756C32.9735 16.0756 32.5333 15.7445 31.8525 15.7073" stroke="#33251C" stroke-width="0.0868" stroke-miterlimit="10" stroke-linecap="round" stroke-linejoin="round"/>
<path d="M35.9746 21.7646C35.9746 21.7646 36.0701 22.2445 36.3615 22.4962" stroke="#222221" stroke-width="0.10475" stroke-miterlimit="10" stroke-linecap="round" stroke-linejoin="round"/>
<path d="M25.0243 41.3083C25.0243 41.3083 24.4489 41.7709 24.2803 42.6352" stroke="#222221" stroke-width="0.10475" stroke-miterlimit="10" stroke-linecap="round" stroke-linejoin="round"/>
<g opacity="0.82">
<path d="M28.3358 7.20593H22.1829C20.9912 7.20593 20.0166 8.18057 20.0166 9.37221C20.0166 10.5639 20.9912 11.5385 22.1829 11.5385H22.2883V12.7897L23.5394 11.5385H28.3345C29.5262 11.5385 30.5008 10.5639 30.5008 9.37221C30.502 8.18057 29.5274 7.20593 28.3358 7.20593Z" fill="white" stroke="#606060" stroke-width="0.115733" stroke-miterlimit="10"/>
<path d="M24.4761 9.51113C24.4761 9.51113 24.2925 9.74797 24.0557 9.97489C23.8189 10.2031 24.0991 10.6309 23.9156 10.6668C23.7321 10.7015 23.5659 10.518 23.6267 10.089C23.6614 9.79137 23.4258 9.66861 23.4258 9.66861V8.38149C23.4258 8.38149 24.1264 8.21533 24.4761 8.56501C24.765 8.56501 24.7823 8.56501 24.7823 8.56501V9.50617L24.4761 9.51113Z" fill="#A3A3A3"/>
<path d="M23.094 9.3822H23.5119C23.6086 9.3822 23.688 9.46156 23.688 9.55828C23.688 9.655 23.6086 9.73436 23.5119 9.73436H23.094C22.9973 9.73436 22.918 9.655 22.918 9.55828C22.918 9.46156 22.9973 9.3822 23.094 9.3822Z" fill="#A3A3A3"/>
<path d="M23.094 9.03003H23.5119C23.6086 9.03003 23.688 9.10939 23.688 9.20611C23.688 9.30283 23.6086 9.38219 23.5119 9.38219H23.094C22.9973 9.38219 22.918 9.30283 22.918 9.20611C22.918 9.10939 22.9973 9.03003 23.094 9.03003Z" fill="#A3A3A3"/>
<path d="M23.094 8.67664H23.5119C23.6086 8.67664 23.688 8.756 23.688 8.85272C23.688 8.94944 23.6086 9.0288 23.5119 9.0288H23.094C22.9973 9.0288 22.918 8.94944 22.918 8.85272C22.918 8.756 22.9973 8.67664 23.094 8.67664Z" fill="#A3A3A3"/>
<path d="M23.1555 8.36169H23.53C23.6168 8.36169 23.6875 8.43237 23.6875 8.51917C23.6875 8.60597 23.6168 8.67666 23.53 8.67666H23.1555C23.0687 8.67666 22.998 8.60597 22.998 8.51917C22.998 8.43237 23.0687 8.36169 23.1555 8.36169Z" fill="#A3A3A3"/>
<path d="M26.8565 10.8579C27.603 10.8579 28.2081 10.2527 28.2081 9.50626C28.2081 8.75979 27.603 8.15466 26.8565 8.15466C26.11 8.15466 25.5049 8.75979 25.5049 9.50626C25.5049 10.2527 26.11 10.8579 26.8565 10.8579Z" fill="#636262"/>
<path d="M27.4 10.0754C27.3975 10.073 27.395 10.0705 27.3925 10.068C27.0962 9.77535 26.6151 9.77535 26.3199 10.068C26.3175 10.0705 26.315 10.073 26.3125 10.0754" stroke="white" stroke-width="0.10475" stroke-miterlimit="10" stroke-linecap="round" stroke-linejoin="round"/>
<path d="M26.2314 9.34384C26.2314 9.43312 26.3046 9.50628 26.3939 9.50628C26.4832 9.50628 26.5563 9.43312 26.5563 9.34384C26.5563 9.25456 26.4832 9.1814 26.3939 9.1814C26.3046 9.1814 26.2314 9.25456 26.2314 9.34384Z" fill="white"/>
<path d="M27.1553 9.34384C27.1553 9.43312 27.2284 9.50628 27.3177 9.50628C27.407 9.50628 27.4802 9.43312 27.4802 9.34384C27.4802 9.25456 27.407 9.1814 27.3177 9.1814C27.2284 9.1814 27.1553 9.25456 27.1553 9.34384Z" fill="white"/>
<path d="M27.0908 9.22472C27.0908 9.22472 27.2037 8.99284 27.5447 9.01268" stroke="white" stroke-width="0.10475" stroke-miterlimit="10" stroke-linecap="round" stroke-linejoin="round"/>
<path d="M26.6208 9.22484C26.6208 9.22484 26.508 8.99296 26.167 9.0128" stroke="white" stroke-width="0.10475" stroke-miterlimit="10" stroke-linecap="round" stroke-linejoin="round"/>
</g>
<g opacity="0.84">
<path d="M-5.81419 11.6973H0.33869C1.53033 11.6973 2.50497 12.6719 2.50497 13.8635C2.50497 15.0552 1.53033 16.0298 0.33869 16.0298H0.233291V17.281L-1.01787 16.0298H-5.81419C-7.00583 16.0298 -7.98047 15.0552 -7.98047 13.8635C-7.98047 12.6719 -7.00583 11.6973 -5.81419 11.6973Z" fill="white" stroke="#606060" stroke-width="0.115733" stroke-miterlimit="10"/>
<path d="M-0.41046 15.0249C0.192137 14.5717 0.313285 13.7159 -0.139869 13.1133C-0.593024 12.5107 -1.44888 12.3895 -2.05148 12.8427C-2.65408 13.2959 -2.77522 14.1517 -2.32207 14.7543C-1.86891 15.3569 -1.01306 15.4781 -0.41046 15.0249Z" fill="#898989"/>
</g>
<g opacity="0.54">
<path d="M1.15759 1.3147H5.14543C5.91795 1.3147 6.54911 1.9471 6.54911 2.71838C6.54911 3.4909 5.91671 4.12206 5.14543 4.12206H5.07723V4.93302L4.26627 4.12206H1.15759C0.385068 4.12206 -0.246092 3.48966 -0.246092 2.71838C-0.247332 1.9471 0.385068 1.3147 1.15759 1.3147Z" fill="white"/>
<path d="M4.5327 3.12497C4.71418 3.12497 4.8613 2.97785 4.8613 2.79637C4.8613 2.61489 4.71418 2.46777 4.5327 2.46777C4.35122 2.46777 4.2041 2.61489 4.2041 2.79637C4.2041 2.97785 4.35122 3.12497 4.5327 3.12497Z" fill="#28201E"/>
<path d="M1.76805 2.46777C1.94909 2.46777 2.09665 2.61533 2.09665 2.79637C2.09665 2.97741 1.94909 3.12497 1.76805 3.12497C1.58701 3.12497 1.43945 2.97741 1.43945 2.79637C1.44069 2.61533 1.58701 2.46777 1.76805 2.46777Z" fill="#28201E"/>
<path d="M3.15087 2.46777C3.33191 2.46777 3.47947 2.61533 3.47947 2.79637C3.47947 2.97741 3.33191 3.12497 3.15087 3.12497C2.96983 3.12497 2.82227 2.97741 2.82227 2.79637C2.82227 2.61533 2.96983 2.46777 3.15087 2.46777Z" fill="#28201E"/>
</g>
<path opacity="0.72" d="M15.744 36.8953V35.5226H-1.96191V36.8953V44.0401H15.744V36.8953Z" fill="#7B7C7B"/>
<path d="M15.0624 34.8396H-2.64355V43.3572H15.0624V34.8396Z" fill="white"/>
<path d="M13.376 43.3484L14.3754 45.3485L13.9712 43.3484H13.376Z" fill="#F5F5FA"/>
<path d="M15.0624 34.8395H-2.64355V36.2122H15.0624V34.8395Z" fill="#606060"/>
<path d="M3.09511 35.2686H-0.882812V35.7832H3.09511V35.2686Z" fill="white"/>
<path d="M0.254008 41.0679L0.781007 38.1267C0.528048 37.7547 0.100248 37.5104 -0.383352 37.5104C-1.16207 37.5104 -1.79199 38.1415 -1.79199 38.919C-1.73495 40.6116 0.325927 41.9099 0.828127 42.2013L1.31669 39.9854L0.254008 41.0679Z" fill="#898989"/>
<path d="M3.78347 38.918C3.78347 38.1393 3.15231 37.5094 2.37483 37.5094C1.95199 37.5094 1.57379 37.6954 1.31587 37.9905L0.973633 39.9038L2.10203 38.7531L1.37167 42.0639C2.11443 41.5704 3.90003 40.2436 3.78347 38.918Z" fill="#898989"/>
<path d="M5.23996 37.3531V39.0858H5.03014V37.3531H5.23996ZM6.33075 39.0858V37.3531H6.54058V38.1247H7.46448V37.3531H7.6743V39.0858H7.46448V38.3108H6.54058V39.0858H6.33075ZM8.16545 39.0858H7.94547L8.58171 37.3531H8.7983L9.43454 39.0858H9.21457L8.69677 37.6272H8.68324L8.16545 39.0858ZM8.24667 38.409H9.13334V38.5951H8.24667V38.409ZM9.40726 37.5392V37.3531H10.7068V37.5392H10.1619V39.0858H9.95212V37.5392H9.40726ZM11.0306 39.0858V37.3531H12.0764V37.5392H11.2405V38.1247H12.0222V38.3108H11.2405V38.8997H12.0899V39.0858H11.0306Z" fill="#595959"/>
<path d="M4.88123 39.6222H5.12151L5.60208 40.4311H5.62238L6.10295 39.6222H6.34323L5.71714 40.6409V41.355H5.50732V40.6409L4.88123 39.6222ZM7.99517 40.4886C7.99517 40.6714 7.96218 40.8293 7.89618 40.9624C7.83019 41.0955 7.73966 41.1982 7.6246 41.2704C7.50953 41.3426 7.37811 41.3787 7.23033 41.3787C7.08255 41.3787 6.95113 41.3426 6.83606 41.2704C6.721 41.1982 6.63047 41.0955 6.56448 40.9624C6.49848 40.8293 6.46549 40.6714 6.46549 40.4886C6.46549 40.3059 6.49848 40.1479 6.56448 40.0148C6.63047 39.8817 6.721 39.779 6.83606 39.7068C6.95113 39.6346 7.08255 39.5985 7.23033 39.5985C7.37811 39.5985 7.50953 39.6346 7.6246 39.7068C7.73966 39.779 7.83019 39.8817 7.89618 40.0148C7.96218 40.1479 7.99517 40.3059 7.99517 40.4886ZM7.79212 40.4886C7.79212 40.3386 7.76702 40.2119 7.71682 40.1087C7.66718 40.0055 7.59978 39.9274 7.51461 39.8744C7.43 39.8213 7.33524 39.7948 7.23033 39.7948C7.12542 39.7948 7.03038 39.8213 6.94521 39.8744C6.8606 39.9274 6.7932 40.0055 6.743 40.1087C6.69336 40.2119 6.66854 40.3386 6.66854 40.4886C6.66854 40.6386 6.69336 40.7653 6.743 40.8685C6.7932 40.9717 6.8606 41.0498 6.94521 41.1029C7.03038 41.1559 7.12542 41.1824 7.23033 41.1824C7.33524 41.1824 7.43 41.1559 7.51461 41.1029C7.59978 41.0498 7.66718 40.9717 7.71682 40.8685C7.76702 40.7653 7.79212 40.6386 7.79212 40.4886ZM9.4851 39.6222H9.69492V40.7695C9.69492 40.888 9.667 40.9937 9.61116 41.0868C9.55588 41.1793 9.47776 41.2523 9.3768 41.3059C9.27584 41.3589 9.15739 41.3854 9.02145 41.3854C8.88552 41.3854 8.76707 41.3589 8.6661 41.3059C8.56514 41.2523 8.48674 41.1793 8.4309 41.0868C8.37562 40.9937 8.34798 40.888 8.34798 40.7695V39.6222H8.55781V40.7526C8.55781 40.8372 8.57642 40.9125 8.61365 40.9785C8.65088 41.0439 8.7039 41.0955 8.77271 41.1333C8.84209 41.1705 8.925 41.1892 9.02145 41.1892C9.1179 41.1892 9.20082 41.1705 9.2702 41.1333C9.33957 41.0955 9.39259 41.0439 9.42926 40.9785C9.46648 40.9125 9.4851 40.8372 9.4851 40.7526V39.6222Z" fill="#595959"/>
<g opacity="0.65">
<path opacity="0.7" d="M45.2189 2.36245V12.3792H32.7705V2.36245V1.26257H45.2189V2.36245Z" fill="#9B9A9A"/>
<path d="M45.5936 0.885254H33.2705V11.8779H45.5936V0.885254Z" fill="white"/>
<path d="M45.5333 0.947242V11.8158H33.3342V0.947242H45.5333ZM45.6573 0.823242H33.209V11.9398H45.6573V0.823242Z" fill="#898989"/>
<path d="M34.138 11.9597H34.4443L33.9297 12.9902L34.138 11.9597Z" fill="#F5F5FA"/>
<path d="M34.3954 11.9907L34.006 12.7682L34.1635 11.9907H34.3954ZM34.4958 11.9287H34.1127L33.8535 13.2134L34.4958 11.9287Z" fill="#7C7B7B"/>
<path d="M33.2101 1.92407L45.6572 1.92407L45.6572 0.824193L33.2101 0.824193L33.2101 1.92407Z" fill="#A8A8A8"/>
<path d="M44.8338 1.57989C44.9475 1.57989 45.0396 1.48773 45.0396 1.37405C45.0396 1.26037 44.9475 1.16821 44.8338 1.16821C44.7201 1.16821 44.6279 1.26037 44.6279 1.37405C44.6279 1.48773 44.7201 1.57989 44.8338 1.57989Z" fill="#7C7C7C"/>
<path d="M40.8231 1.58081L44.2393 1.58081L44.2393 1.16789L40.8231 1.16789L40.8231 1.58081Z" fill="white"/>
<path d="M39.0157 6.61713L39.6716 9.63653L37.71 5.19981L39.6729 6.05169L38.8235 3.59153C39.0492 3.54193 39.2835 3.51465 39.5241 3.51465C39.7336 3.51465 39.9382 3.53573 40.1366 3.57293L40.9116 7.85589L39.0157 6.61713Z" fill="#919191"/>
<path d="M40.3121 9.58058L39.6797 10.859L40.2476 8.69522L40.7101 9.56694L41.1106 8.43481C41.2061 8.48193 41.2979 8.53898 41.3847 8.60842C41.4603 8.66918 41.5285 8.7349 41.5893 8.80558L40.637 10.5738L40.3121 9.58058Z" fill="#AAA9A9"/>
<path d="M42.1694 3.68071L42.3505 3.17975L42.7547 3.32483L42.8626 2.84619L43.397 3.03839L43.2891 3.51703L43.6202 3.63607L43.7281 3.15743L44.2625 3.34963L44.1547 3.82827L44.6221 3.99691L44.4411 4.49787L44.0369 4.35279L43.9352 4.79175L44.4027 4.96039L44.2229 5.46135L43.8186 5.31627L43.7107 5.79491L43.1763 5.60271L43.2842 5.12407L42.9531 5.00503L42.8452 5.48367L42.3108 5.29147L42.4187 4.81283L41.9512 4.64419L42.131 4.14323L42.5352 4.28831L42.6369 3.84935L42.1694 3.68071ZM43.0697 4.48051L43.4007 4.59955L43.5024 4.16059L43.1713 4.04155L43.0697 4.48051Z" fill="#7C7C7C"/>
<path d="M33.8471 9.05107L34.0282 8.55011L34.4324 8.69519L34.5403 8.21655L35.0747 8.40875L34.9669 8.88739L35.2979 9.00643L35.4058 8.52779L35.9403 8.71999L35.8324 9.19863L36.2999 9.36727L36.1188 9.86823L35.7146 9.72315L35.6129 10.1621L36.0804 10.3308L35.9006 10.8317L35.4963 10.6866L35.3885 11.1653L34.854 10.9731L34.9619 10.4944L34.6308 10.3754L34.5229 10.854L33.9885 10.6618L34.0964 10.1832L33.6289 10.0146L33.8087 9.51359L34.2129 9.65867L34.3146 9.21971L33.8471 9.05107ZM34.7474 9.85087L35.0785 9.96991L35.1801 9.53095L34.8491 9.41191L34.7474 9.85087Z" fill="#AAA9A9"/>
<path d="M33.814 3.56657L33.7173 3.53185C33.6627 3.51201 33.6329 3.45125 33.6528 3.39545L33.6912 3.29005C33.7111 3.23549 33.7718 3.20573 33.8276 3.22557L33.8611 3.23797C33.9206 3.25905 33.9863 3.22433 34 3.16109L34.0124 3.10405C34.026 3.04205 34.0917 3.00609 34.1513 3.02717L34.2753 3.07181C34.3261 3.09041 34.3546 3.14249 34.3422 3.19457L34.3174 3.30245C34.305 3.35453 34.3348 3.40785 34.3844 3.42521C34.4439 3.44629 34.5096 3.41157 34.5233 3.34833L34.5357 3.29129C34.5493 3.22929 34.615 3.19333 34.6745 3.21441L34.7985 3.25905C34.8494 3.27765 34.8779 3.32973 34.8655 3.38181L34.8407 3.48969C34.8283 3.54177 34.8581 3.59509 34.9077 3.61245L35.0044 3.64717C35.0589 3.66701 35.0887 3.72777 35.0689 3.78357L35.0304 3.88897C35.0106 3.94353 34.9498 3.97329 34.894 3.95345L34.8605 3.94105C34.801 3.91997 34.7353 3.95469 34.7217 4.01669L34.708 4.07497C34.6956 4.12705 34.7254 4.18037 34.775 4.19897L34.8705 4.23369C34.925 4.25353 34.9548 4.31429 34.9349 4.37009L34.8965 4.47549C34.8767 4.53005 34.8159 4.55981 34.7601 4.53997L34.7266 4.52757C34.6671 4.50649 34.6014 4.54121 34.5877 4.60445L34.5753 4.66149C34.5617 4.72349 34.496 4.75945 34.4365 4.73837L34.3125 4.69373C34.2616 4.67513 34.2331 4.62305 34.2455 4.57097L34.2703 4.46309C34.2827 4.41101 34.2529 4.35769 34.2033 4.34033C34.1438 4.31925 34.0781 4.35397 34.0645 4.41721L34.0521 4.47425C34.0384 4.53625 33.9727 4.57221 33.9132 4.55113L33.7892 4.50649C33.7383 4.48789 33.7098 4.43581 33.7222 4.38373L33.747 4.27585C33.7594 4.22377 33.7297 4.17045 33.6801 4.15309L33.5833 4.11837C33.5288 4.09853 33.499 4.03777 33.5189 3.98197L33.5573 3.87657C33.5771 3.82201 33.6379 3.79225 33.6937 3.81209L33.7272 3.82449C33.7867 3.84557 33.8524 3.81085 33.8661 3.74885L33.8797 3.69057C33.8933 3.63849 33.8648 3.58517 33.814 3.56657ZM34.2009 3.83193L34.1872 3.89021C34.1748 3.94229 34.2046 3.99561 34.2542 4.01421C34.3137 4.03529 34.3794 4.00057 34.3931 3.93857L34.4067 3.88029C34.4191 3.82821 34.3893 3.77489 34.3397 3.75629C34.2802 3.73521 34.2157 3.77117 34.2009 3.83193Z" fill="#AAA9A9"/>
<path d="M41.6232 7.20233L41.5029 6.87745L41.7646 6.78073L41.6182 6.49801L41.9642 6.37029L42.1105 6.65301L42.325 6.57365L42.1787 6.29093L42.5247 6.16321L42.671 6.44593L42.9736 6.33309L43.0938 6.65797L42.8322 6.75469L42.9661 7.01509L43.2687 6.90225L43.389 7.22713L43.1273 7.32385L43.2736 7.60657L42.9277 7.73429L42.7814 7.45157L42.5668 7.53093L42.7132 7.81365L42.3672 7.94137L42.2209 7.65865L41.9183 7.77149L41.798 7.44661L42.0597 7.34989L41.9258 7.08949L41.6232 7.20233ZM42.4056 7.22217L42.6202 7.14281L42.4862 6.88241L42.2717 6.96177L42.4056 7.22217Z" fill="#7C7C7C"/>
<path d="M36.59 3.95355L36.4697 3.62867L36.7314 3.53195L36.585 3.24923L36.931 3.12151L37.0773 3.40423L37.2918 3.32487L37.1455 3.04215L37.4915 2.91443L37.6378 3.19715L37.9404 3.08431L38.0606 3.40919L37.799 3.50591L37.9329 3.76631L38.2355 3.65347L38.3558 3.97835L38.0941 4.07507L38.2404 4.35779L37.8945 4.48551L37.7482 4.20279L37.5336 4.28215L37.68 4.56487L37.334 4.69259L37.1877 4.40987L36.8851 4.52271L36.7648 4.19783L37.0265 4.10111L36.8926 3.84071L36.59 3.95355ZM37.3724 3.97339L37.587 3.89403L37.453 3.63363L37.2385 3.71299L37.3724 3.97339Z" fill="#7C7C7C"/>
<path d="M37.9496 9.89311L37.3308 10.1758L34.9463 6.08259L36.7542 4.96411L37.9496 9.89311ZM38.0624 10.9595C37.7946 11.0823 37.5267 10.9868 37.4263 10.7673C37.3246 10.5441 37.4325 10.2899 37.7003 10.1672C37.9682 10.0444 38.2311 10.13 38.3327 10.3519C38.4344 10.5726 38.3315 10.8368 38.0624 10.9595Z" fill="#7C7C7C"/>
<path d="M42.4293 10.8541L42.0201 10.559L43.7821 7.51599L45.1684 8.26991L42.4293 10.8541ZM41.7832 11.3178C41.6059 11.1901 41.5687 10.983 41.6729 10.838C41.7795 10.6904 41.9829 10.6668 42.1602 10.7946C42.3375 10.9223 42.3797 11.1232 42.273 11.2707C42.1689 11.4158 41.9605 11.4468 41.7832 11.3178Z" fill="#919191"/>
</g>
<path d="M31.3203 22.0563C31.3055 22.153 31.2658 22.2448 31.2038 22.3179C31.0736 22.468 30.8491 22.5176 30.678 22.4258C30.5069 22.334 30.4213 22.1084 30.4623 21.9075C30.5354 21.5442 30.9347 21.3916 31.1666 21.5851C31.2137 21.6235 31.2534 21.6756 31.2819 21.7426C31.3253 21.8393 31.3377 21.9509 31.3203 22.0563Z" fill="#49372A"/>
<path d="M31.3195 22.0562C31.2823 22.0773 31.2376 22.0897 31.1868 22.0897C31.0814 22.0897 30.9983 21.9917 30.9971 21.8739C30.9958 21.7598 31.069 21.6371 31.167 21.5837C31.2141 21.6222 31.2538 21.6743 31.2823 21.7412C31.3244 21.8392 31.3368 21.9508 31.3195 22.0562Z" fill="#F8FAFB"/>
<path d="M34.5191 22.132C34.5116 22.225 34.4819 22.3143 34.4286 22.3874C34.3182 22.5387 34.1111 22.6019 33.9425 22.5288C33.7751 22.4556 33.6771 22.2498 33.6994 22.0576C33.7416 21.7104 34.1049 21.5368 34.338 21.7005C34.3852 21.7327 34.4261 21.7786 34.4583 21.8406C34.5067 21.9274 34.5265 22.0303 34.5191 22.132Z" fill="#49372A"/>
<path d="M34.5187 22.1317C34.4852 22.1553 34.4456 22.1702 34.3972 22.1739C34.298 22.1813 34.2124 22.0958 34.2013 21.9854C34.1914 21.8788 34.2509 21.7573 34.3389 21.699C34.386 21.7312 34.427 21.7771 34.4592 21.8391C34.5063 21.9271 34.5262 22.0301 34.5187 22.1317Z" fill="#F8FAFB"/>
<path d="M30.5862 21.869C30.5714 21.9546 30.6321 22.0476 30.7164 22.0674C30.8008 22.0873 30.8975 22.0315 30.9198 21.9471C30.9806 21.7215 30.6272 21.626 30.5862 21.869Z" fill="#F8FAFB"/>
<path d="M33.8062 22.0116C33.7988 22.0934 33.8633 22.1753 33.9439 22.1877C34.0257 22.2001 34.1113 22.1406 34.1262 22.0587C34.1659 21.843 33.8261 21.7785 33.8062 22.0116Z" fill="#F8FAFB"/>
<path d="M30.4382 21.7487C30.4072 21.7487 30.38 21.7276 30.3725 21.6954C30.3651 21.6594 30.3874 21.6234 30.4246 21.616C30.6081 21.5776 30.7718 21.456 30.8636 21.2924C30.8809 21.2601 30.9218 21.249 30.9541 21.2663C30.9863 21.2837 30.9987 21.3246 30.9801 21.3568C30.871 21.554 30.6726 21.7003 30.4519 21.7474C30.4469 21.7474 30.4432 21.7487 30.4382 21.7487Z" fill="#49372A"/>
<path d="M34.5354 21.7935C34.5317 21.7935 34.528 21.7935 34.5243 21.7935C34.3284 21.7724 34.1399 21.6992 33.9824 21.5814C33.9539 21.5603 33.9489 21.5207 33.97 21.4934C33.9911 21.4649 34.0308 21.4599 34.058 21.481C34.1982 21.5851 34.3643 21.6509 34.5379 21.6682C34.5726 21.6719 34.5974 21.7029 34.5937 21.7377C34.59 21.7687 34.5652 21.7922 34.5354 21.7935Z" fill="#49372A"/>
<path d="M34.5889 20.4616C34.5355 20.5558 34.2392 20.5384 33.9044 20.6116C33.5671 20.6748 33.2993 20.8063 33.2162 20.7393C33.179 20.7071 33.205 20.619 33.3117 20.5161C33.4171 20.4144 33.6068 20.3078 33.8374 20.2607C34.0681 20.2136 34.2838 20.2384 34.4177 20.2917C34.5541 20.345 34.6112 20.4157 34.5889 20.4616Z" fill="#49372A"/>
<path d="M30.6408 20.2371C30.6767 20.3363 30.9582 20.3562 31.2633 20.4702C31.572 20.5744 31.8039 20.7368 31.8932 20.681C31.9341 20.6538 31.9217 20.5632 31.8374 20.4492C31.7543 20.3363 31.5906 20.2074 31.3798 20.133C31.169 20.0586 30.9632 20.0561 30.828 20.0908C30.6904 20.1268 30.6259 20.19 30.6408 20.2371Z" fill="#49372A"/>
<path d="M33.0659 20.8685C33.0659 20.8734 33.0274 20.8784 32.9729 20.8561C32.9196 20.8338 32.8501 20.7767 32.829 20.6899C32.8104 20.6019 32.8489 20.5238 32.8886 20.4828C32.9295 20.4407 32.9667 20.432 32.9679 20.4357C32.9716 20.4419 32.9431 20.4593 32.9134 20.5014C32.8848 20.5411 32.8576 20.6093 32.8737 20.6812C32.8898 20.7519 32.9444 20.804 32.9878 20.83C33.0324 20.8561 33.0671 20.8623 33.0659 20.8685Z" fill="#49372A"/>
<path d="M32.3185 20.4186C32.3222 20.4149 32.3557 20.4322 32.383 20.4831C32.4103 20.5314 32.4264 20.617 32.3842 20.6976C32.3408 20.7782 32.2578 20.8166 32.2007 20.8241C32.1412 20.8327 32.1052 20.8191 32.1065 20.8141C32.1077 20.8079 32.1424 20.8104 32.192 20.7943C32.2416 20.7794 32.3074 20.7422 32.3421 20.6777C32.3768 20.612 32.3694 20.5401 32.352 20.4942C32.3371 20.4483 32.3136 20.4235 32.3185 20.4186Z" fill="#49372A"/>
<path d="M34.0899 19.1349C34.0676 19.1349 34.049 19.1188 34.0441 19.0965C34.0391 19.0717 34.0565 19.0481 34.0813 19.0431C34.1643 19.0283 34.2375 18.9824 34.2859 18.9129C34.3342 18.8435 34.3528 18.7604 34.3379 18.6773C34.3082 18.5062 34.1445 18.3909 33.9721 18.4207C33.9473 18.4256 33.9238 18.4083 33.9188 18.3835C33.9139 18.3587 33.9312 18.3351 33.956 18.3301C34.178 18.2917 34.39 18.4405 34.4285 18.6625C34.4471 18.7703 34.4235 18.8782 34.3603 18.9675C34.297 19.0568 34.204 19.1163 34.0961 19.1349C34.0949 19.1337 34.0924 19.1349 34.0899 19.1349Z" fill="#D3ACAB"/>
<path d="M34.9817 18.5273C34.9309 18.5273 34.88 18.5174 34.8304 18.4976C34.7288 18.4566 34.6494 18.3798 34.6072 18.2793C34.5638 18.1789 34.5638 18.0685 34.6035 17.9668C34.6134 17.9433 34.6395 17.9321 34.663 17.9408C34.6866 17.9507 34.6978 17.9768 34.6891 18.0003C34.6581 18.0784 34.6581 18.1652 34.6916 18.2421C34.725 18.3202 34.7858 18.3798 34.8639 18.412C35.0251 18.4765 35.2099 18.3984 35.2756 18.2372C35.2855 18.2136 35.3116 18.2024 35.3351 18.2111C35.3587 18.221 35.3698 18.2471 35.3612 18.2706C35.2967 18.4306 35.1429 18.5273 34.9817 18.5273Z" fill="#D3ACAB"/>
<path d="M35.4171 19.4524C35.4159 19.4524 35.4134 19.4524 35.4122 19.4524C35.189 19.4276 35.0265 19.2255 35.0513 19.0023C35.0761 18.7791 35.277 18.6166 35.5015 18.6414C35.5263 18.6439 35.5449 18.6675 35.5424 18.6923C35.5399 18.7171 35.5163 18.7357 35.4915 18.7332C35.3179 18.7146 35.1617 18.8398 35.1431 19.0134C35.1245 19.187 35.2497 19.3433 35.4233 19.3619C35.4481 19.3643 35.4667 19.3879 35.4643 19.4127C35.4605 19.435 35.4407 19.4524 35.4171 19.4524Z" fill="#D3ACAB"/>
<path d="M34.8736 19.6396C34.8674 19.6396 34.8624 19.6384 34.8562 19.6359C34.8326 19.626 34.8215 19.6 34.8302 19.5764C34.8562 19.5119 34.855 19.4412 34.8277 19.3768C34.8004 19.3123 34.7496 19.2627 34.6851 19.2366C34.6206 19.2106 34.5499 19.2118 34.4854 19.2391C34.421 19.2664 34.3714 19.3172 34.3453 19.3817C34.3354 19.4053 34.3094 19.4164 34.2858 19.4078C34.2622 19.3978 34.2511 19.3718 34.2598 19.3482C34.2945 19.2602 34.3614 19.192 34.4482 19.1548C34.535 19.1176 34.6305 19.1164 34.7186 19.1523C34.8996 19.2255 34.9864 19.4313 34.9145 19.6111C34.9083 19.6285 34.8909 19.6396 34.8736 19.6396Z" fill="#D3ACAB"/>
</g>
<defs>
<clipPath id="clip0_1146_49385">
<rect width="48" height="48" rx="24" fill="white"/>
</clipPath>
</defs>
</svg>
