<svg width="48" height="48" viewBox="0 0 48 48" fill="none" xmlns="http://www.w3.org/2000/svg">
<g clip-path="url(#clip0_1146_49381)">
<rect width="48" height="48" rx="24" fill="white"/>
<g clip-path="url(#clip1_1146_49381)">
<path opacity="0.7" d="M35.9237 11.8445C34.5097 10.3786 32.8892 9.16037 31.1669 8.30693C28.5442 7.00709 25.6556 6.38117 22.766 6.34373C14.3218 6.23525 13.6796 16.7463 11.0828 18.2084C8.48694 19.6695 3.78102 19.8423 3.61878 25.6877C3.51702 29.3645 4.3263 33.146 6.60438 36.0106C8.69046 38.6343 11.7557 39.9648 14.7749 40.9469C18.1657 42.05 21.7618 43.1328 25.3282 42.3879C28.9887 41.6237 31.5605 38.5527 34.5663 36.4772C36.4594 35.1706 38.1577 33.794 39.326 31.6973C39.4652 31.4468 39.5967 31.1905 39.7215 30.9313C41.2863 27.673 41.5925 23.9146 40.7295 20.3885C39.9557 17.2253 38.2085 14.2128 35.9237 11.8445Z" fill="#EFEFEF"/>
<path d="M27.9063 41.4097H27.5127V43.0849H27.9063V41.4097Z" fill="#A6A7AD" stroke="#686868" stroke-width="0.75" stroke-miterlimit="10"/>
<path d="M28.2905 43.4439H27.1279L27.2643 42.7939H28.1532L28.2905 43.4439Z" fill="#A6A7AD" stroke="#686868" stroke-width="0.75" stroke-miterlimit="10"/>
<path d="M28.9919 43.7175H26.4277L26.7013 43.1184H28.7183L28.9919 43.7175Z" fill="#A6A7AD" stroke="#686868" stroke-width="0.75" stroke-miterlimit="10"/>
<path d="M26.4101 39.6355C25.91 39.6355 25.5039 40.0493 25.5039 40.559C25.5039 41.0688 25.91 41.4825 26.4101 41.4825C26.9103 41.4825 27.3164 41.0688 27.3164 40.559C27.3164 40.0493 26.9103 39.6355 26.4101 39.6355ZM26.4101 41.2473C26.0367 41.2473 25.7343 40.9392 25.7343 40.559C25.7343 40.1789 26.0367 39.8707 26.4101 39.8707C26.7836 39.8707 27.086 40.1789 27.086 40.559C27.086 40.9392 26.7836 41.2473 26.4101 41.2473Z" fill="#A6A7AD" stroke="#686868" stroke-width="0.75" stroke-miterlimit="10"/>
<path d="M29.1455 39.6355C28.6453 39.6355 28.2393 40.0493 28.2393 40.559C28.2393 41.0688 28.6453 41.4825 29.1455 41.4825C29.6457 41.4825 30.0517 41.0688 30.0517 40.559C30.0517 40.0493 29.6457 39.6355 29.1455 39.6355ZM29.1455 41.2473C28.7721 41.2473 28.4697 40.9392 28.4697 40.559C28.4697 40.1789 28.7721 39.8707 29.1455 39.8707C29.5189 39.8707 29.8213 40.1789 29.8213 40.559C29.8213 40.9392 29.5189 41.2473 29.1455 41.2473Z" fill="#A6A7AD" stroke="#686868" stroke-width="0.75" stroke-miterlimit="10"/>
<path d="M27.7088 41.8704C27.0761 41.8704 26.5635 41.3578 26.5635 40.7251V39.5453H28.854V40.7251C28.854 41.3578 28.3414 41.8704 27.7088 41.8704Z" fill="#A6A7AD" stroke="#686868" stroke-width="0.75" stroke-miterlimit="10"/>
<path d="M27.6777 39.9226L27.8256 40.3767H28.3027L27.9168 40.657L28.0636 41.1101L27.6777 40.8298L27.2918 41.1101L27.4396 40.657L27.0537 40.3767H27.5308L27.6777 39.9226Z" fill="#686868"/>
<path d="M25.6568 11.7014V11.1533H25.3141C25.2872 11.0563 25.2479 10.9651 25.198 10.8806L25.4111 10.6675L25.0232 10.2797L24.812 10.4909C24.718 10.4342 24.6152 10.391 24.5068 10.3632V10.1097H23.9586V10.3632C23.8386 10.3929 23.7263 10.4429 23.6255 10.5081L23.4738 10.3565L23.086 10.7443L23.2501 10.9085C23.1896 11.0169 23.1474 11.135 23.1253 11.2617H22.917V11.8099H23.1666C23.205 11.9241 23.2607 12.0317 23.3317 12.1257L23.1628 12.2947L23.5506 12.6825L23.7599 12.4733C23.8559 12.5174 23.9596 12.5491 24.068 12.5654V12.8515H24.6162V12.5097C24.7084 12.4761 24.7938 12.431 24.8725 12.3763L25.101 12.6048L25.4888 12.2169L25.2344 11.9625C25.2767 11.88 25.3084 11.7926 25.3295 11.7005H25.6568V11.7014ZM24.2322 12.1401C23.854 12.1401 23.5468 11.8329 23.5468 11.4547C23.5468 11.0765 23.854 10.7693 24.2322 10.7693C24.6104 10.7693 24.9176 11.0765 24.9176 11.4547C24.9167 11.8329 24.6104 12.1401 24.2322 12.1401Z" fill="#A6A7AD"/>
<path d="M26.1576 13.8739V13.4707H25.9061C25.886 13.3996 25.8572 13.3324 25.8207 13.27L25.9772 13.1136L25.692 12.8284L25.5365 12.984C25.4674 12.9427 25.3916 12.911 25.3119 12.8908V12.7046H24.9087V12.8908C24.8204 12.9129 24.7378 12.9494 24.6639 12.9974L24.5525 12.886L24.2674 13.1711L24.3884 13.2921C24.3442 13.3718 24.3125 13.4592 24.2972 13.5513H24.1436V13.9545H24.3269C24.3548 14.039 24.396 14.1168 24.4488 14.1868L24.325 14.3107L24.6101 14.5958L24.7637 14.4422C24.8348 14.4748 24.9106 14.4979 24.9903 14.5094V14.7196H25.3935V14.4691C25.4607 14.4441 25.524 14.4115 25.5826 14.3712L25.7506 14.5392L26.0357 14.254L25.8485 14.0668C25.8792 14.0064 25.9032 13.942 25.9176 13.8739H26.1576ZM25.1103 14.1964C24.8319 14.1964 24.6063 13.9708 24.6063 13.6924C24.6063 13.414 24.8319 13.1884 25.1103 13.1884C25.3887 13.1884 25.6143 13.414 25.6143 13.6924C25.6143 13.9708 25.3887 14.1964 25.1103 14.1964Z" fill="#A6A7AD"/>
<path d="M36.7165 31.7999L36.2835 31.4803C36.1155 31.3564 35.888 31.3487 35.7123 31.462L34.8522 31.9737C34.737 32.0419 34.713 32.1983 34.8023 32.2982C34.8627 32.3654 34.9587 32.3884 35.0423 32.3539L35.8467 32.0774L36.8135 33.0777L37.4125 32.8684V31.6473L36.7165 31.7999Z" fill="#A6A7AD"/>
<path d="M35.7391 32.2137L34.9385 32.4902C34.7925 32.5526 34.6322 32.3088 34.6322 32.1504C34.6322 31.9459 34.8271 31.8893 34.9807 31.753L35.1257 31.6243C34.9644 31.4774 34.7292 31.4429 34.5324 31.5389C34.302 31.6512 34.0361 31.6713 33.7913 31.5945L33.5791 31.5283V32.8848L33.8508 32.9184L33.8767 32.8963C34.061 32.7379 34.3385 32.7533 34.5036 32.9318L35.4665 33.9677C35.5116 34.0166 35.5865 34.0214 35.6383 33.9792C35.693 33.9341 35.6997 33.8515 35.6527 33.7987L35.4117 33.529L35.7458 33.7488C35.8034 33.7862 35.8783 33.7824 35.9311 33.7392C36.0021 33.6816 36.0079 33.575 35.9445 33.5097L35.7506 33.3091L36.0425 33.4944C36.1058 33.5347 36.1874 33.5299 36.246 33.4819C36.3228 33.4195 36.3314 33.3053 36.2652 33.2323L36.0905 33.0374L36.4092 33.2304C36.4581 33.2601 36.5215 33.2553 36.5657 33.2189C36.629 33.167 36.6319 33.072 36.5733 33.0153L35.7391 32.2137Z" fill="#A6A7AD"/>
<path d="M34.2421 33.4099L34.365 33.2544C34.4197 33.1853 34.4082 33.0835 34.3391 33.0288C34.27 32.9741 34.1682 32.9856 34.1135 33.0547L33.9906 33.2102C33.9359 33.2794 33.9474 33.3811 34.0165 33.4358C34.0866 33.4906 34.1874 33.479 34.2421 33.4099Z" fill="#A6A7AD"/>
<path d="M34.4775 33.6364L34.6003 33.4808C34.6551 33.4117 34.6435 33.31 34.5744 33.2552C34.5053 33.2005 34.4035 33.212 34.3488 33.2812L34.2259 33.4367C34.1712 33.5058 34.1827 33.6076 34.2519 33.6623C34.3219 33.718 34.4227 33.7064 34.4775 33.6364Z" fill="#A6A7AD"/>
<path d="M34.7138 33.8639L34.8367 33.7084C34.8914 33.6393 34.8799 33.5375 34.8107 33.4828C34.7416 33.4281 34.6399 33.4396 34.5852 33.5087L34.4623 33.6642C34.4076 33.7333 34.4191 33.8351 34.4882 33.8898C34.5573 33.9455 34.6581 33.933 34.7138 33.8639Z" fill="#A6A7AD"/>
<path d="M35.0461 33.7103C34.977 33.6556 34.8752 33.6671 34.8205 33.7362L34.6976 33.8918C34.6429 33.9609 34.6544 34.0626 34.7235 34.1174C34.7927 34.1721 34.8944 34.1606 34.9491 34.0914L35.072 33.9359C35.1267 33.8658 35.1152 33.765 35.0461 33.7103Z" fill="#A6A7AD"/>
<path d="M13.3815 16.4054H12.459V17.9366H13.3815V16.4054Z" fill="#A6A7AD"/>
<path d="M14.5026 15.7498H13.5801V17.9366H14.5026V15.7498Z" fill="#A6A7AD"/>
<path d="M15.6228 15.3024H14.7002V17.9356H15.6228V15.3024Z" fill="#A6A7AD"/>
<path d="M16.7438 14.7062H15.8213V17.9356H16.7438V14.7062Z" fill="#A6A7AD"/>
<path d="M16.1993 13.7462L15.4553 13.9795L15.6521 14.1609L15.1231 14.736L13.8828 14.9721L12.5781 15.9734C12.5244 16.0147 12.5148 16.0915 12.5551 16.1453C12.5791 16.1769 12.6156 16.1933 12.6521 16.1933C12.678 16.1933 12.7039 16.1846 12.726 16.1683L13.9845 15.2025L15.2479 14.9625L15.8316 14.328L16.0293 14.5094L16.1993 13.7462Z" fill="#A6A7AD"/>
<path d="M35.9892 14.088V14.089H35.9883L35.9892 14.088Z" fill="#F5F5F5"/>
<path d="M35.9853 14.0957L35.9872 14.0976H35.9824L35.9853 14.0957Z" fill="#F5F5F5"/>
<path d="M35.9814 14.0976H35.9785L35.9804 14.0967L35.9814 14.0976Z" fill="#F5F5F5"/>
<path d="M35.9902 14.0957L35.9912 14.0938L36.0046 14.089L35.9922 14.0976L35.9902 14.0957Z" fill="#F5F5F5"/>
<path d="M35.9902 14.0938V14.0957L35.9883 14.0947L35.9902 14.0938Z" fill="#F5F5F5"/>
<path d="M35.9795 14.0947V14.0957H35.9785L35.9795 14.0947Z" fill="#F5F5F5"/>
<path d="M35.9814 14.0967H35.9824L35.9814 14.0976V14.0967Z" fill="#F5F5F5"/>
<path d="M35.9892 14.0947H35.9883L35.9902 14.0938L35.9892 14.0947Z" fill="#F5F5F5"/>
<path d="M35.9805 14.0938H35.9814L35.9805 14.0947V14.0938Z" fill="#F5F5F5"/>
<path d="M36.5412 10.1511L35.9844 14.0525L35.4324 10.1501C35.4296 10.1501 35.4267 10.1511 35.4238 10.1511L34.6865 4.89316C35.1003 4.83652 35.5227 4.80676 35.9528 4.80676C36.4145 4.80676 36.8686 4.84132 37.3121 4.9066L36.5585 10.153C36.5518 10.153 36.546 10.152 36.5412 10.1511Z" fill="#F5F5F5"/>
<path d="M34.3331 10.4737L35.9766 14.0861L29.9209 7.05414C30.5852 6.4791 31.3331 5.99718 32.1443 5.62854L34.3417 10.4698C34.3388 10.4708 34.3359 10.4717 34.3331 10.4737Z" fill="#F5F5F5"/>
<path d="M39.798 12.9792L44.8246 11.5076C44.5808 10.6484 44.216 9.84005 43.7494 9.10277L36.0108 14.0861H35.9974L36.0012 14.0813L35.9936 14.0861V14.0852H35.9926L35.9936 14.0832L35.9964 14.066L35.9897 14.0794L35.9907 14.0852H35.9878L35.9859 14.089L35.9811 14.0852L35.982 14.0794L35.9744 14.0631L35.9782 14.0842L35.9772 14.0832V14.0842L35.9667 14.0775L35.9724 14.0842H35.959L28.1926 9.04517C27.7174 9.78437 27.3449 10.5956 27.0953 11.4596L35.9571 14.0842H35.9398L35.9753 14.0948L35.9609 14.0852L35.9782 14.09V14.0938L35.9763 14.0948H35.9753L32.0105 14.0909C32.0105 14.089 32.0105 14.0861 32.0105 14.0842H26.7334C26.7392 14.9933 26.8764 15.8717 27.128 16.7012L32.1737 15.218C32.1728 15.2151 32.1718 15.2122 32.1718 15.2093L35.9772 14.0957L35.9648 14.1034L35.9801 14.0967L35.9782 14.0948H35.9792L35.9811 14.0957V14.0948L35.983 14.0957L35.9849 14.0967V14.0957L35.9868 14.0976L35.9897 14.0957H35.9849L35.9878 14.0938L35.9897 14.0957L35.9907 14.0948V14.0938H35.9916L35.9926 14.0928V14.0938L35.9955 14.0948V14.0938L35.9974 14.0948H35.9984L36.0348 14.0842H36.0204L39.798 12.9792ZM35.9782 14.0976L35.9801 14.0967L35.9811 14.0976H35.9782ZM35.9811 14.0938L35.9801 14.0948L35.9792 14.0938H35.9811ZM35.9907 14.0957L35.9888 14.0948L35.9897 14.0938L35.9907 14.0957ZM36.0051 14.089L35.9926 14.0967L35.9907 14.0957V14.0928L36.0051 14.089Z" fill="#F5F5F5"/>
<path d="M38.59 11.0881L35.9941 14.0833L37.6405 10.4756C37.6405 10.4756 37.6396 10.4756 37.6396 10.4747L39.8409 5.66602C40.6444 6.04042 41.3855 6.52714 42.0431 7.10602L38.59 11.0881Z" fill="#F5F5F5"/>
<path d="M28.2441 19.0887L32.64 16.251C32.6409 16.2519 32.6419 16.2529 32.6419 16.2548L35.9673 14.113L33.3744 17.1044C33.3763 17.1063 33.3782 17.1082 33.3811 17.1102L29.975 21.0481C29.3097 20.4807 28.727 19.8212 28.2441 19.0887Z" fill="#F5F5F5"/>
<path d="M35.9795 14.1063L35.9805 14.1053L35.9795 14.1063Z" fill="#F5F5F5"/>
<path d="M35.9892 14.0986V14.0996L35.9911 14.0986L35.9902 14.1015L35.9873 14.1005H35.9892L35.9883 14.0986L35.9873 14.0996V14.0986V14.0977H35.9911L35.9892 14.0986Z" fill="#F5F5F5"/>
<path d="M36.0075 14.1073L35.9912 14.1025V14.0986L35.9922 14.0977L36.0075 14.1073Z" fill="#F5F5F5"/>
<path d="M36.001 14.1149L39.3178 16.2672C39.3207 16.2633 39.3226 16.2595 39.3255 16.2547L43.6733 19.0685C43.1962 19.7981 42.6183 20.4566 41.9587 21.023L38.0823 16.5331L36.001 14.1149Z" fill="#F5F5F5"/>
<path d="M39.7948 15.2237L35.9932 14.0977L45.1717 14.1073C45.164 15.0068 45.0277 15.8746 44.78 16.6954L39.7948 15.2237Z" fill="#F5F5F5"/>
<path d="M39.7689 22.4228C38.9884 22.778 38.1494 23.0276 37.271 23.1534L35.9951 14.1274L39.7689 22.4228Z" fill="#F5F5F5"/>
<path d="M35.9785 14.1015V14.0996L35.9795 14.1006L35.9785 14.1015Z" fill="#F5F5F5"/>
<path d="M34.6853 23.161C33.804 23.0401 32.9621 22.7943 32.1787 22.443L35.9736 14.1274L34.6853 23.161Z" fill="#F5F5F5"/>
<path d="M35.9891 14.113L35.9843 14.1428L35.9805 14.114L35.9853 14.1044L35.9891 14.113Z" fill="#F5F5F5"/>
<g opacity="0.7">
<path d="M31.8484 10.7723C31.8484 10.7848 31.7572 10.7944 31.6449 10.7944C31.5326 10.7944 31.4414 10.7838 31.4414 10.7723C31.4414 10.7598 31.5326 10.7502 31.6449 10.7502C31.7572 10.7502 31.8484 10.7598 31.8484 10.7723Z" fill="#A6A7AD"/>
<path d="M32.0641 10.2184C32.0766 10.2184 32.0862 10.3105 32.0862 10.4248C32.0862 10.539 32.0756 10.6312 32.0641 10.6312C32.0516 10.6312 32.042 10.539 32.042 10.4248C32.042 10.3105 32.0516 10.2184 32.0641 10.2184Z" fill="#A6A7AD"/>
<path d="M32.2949 10.7589C32.2949 10.7464 32.3861 10.7368 32.4984 10.7368C32.6108 10.7368 32.702 10.7474 32.702 10.7589C32.702 10.7714 32.6108 10.781 32.4984 10.781C32.3871 10.7819 32.2949 10.7714 32.2949 10.7589Z" fill="#A6A7AD"/>
<path d="M32.0787 11.3138C32.0662 11.3138 32.0566 11.2216 32.0566 11.1074C32.0566 10.9932 32.0672 10.901 32.0787 10.901C32.0912 10.901 32.1008 10.9932 32.1008 11.1074C32.1008 11.2216 32.0912 11.3138 32.0787 11.3138Z" fill="#A6A7AD"/>
<path d="M32.4078 11.0757C32.3982 11.0834 32.3579 11.0517 32.3176 11.0037C32.2773 10.9557 32.2533 10.9106 32.2629 10.9029C32.2725 10.8952 32.3128 10.9269 32.3531 10.9749C32.3925 11.0229 32.4174 11.068 32.4078 11.0757Z" fill="#A6A7AD"/>
<path d="M32.3887 10.4468C32.3973 10.4554 32.3714 10.4967 32.3292 10.539C32.2879 10.5812 32.2466 10.6081 32.238 10.5994C32.2293 10.5908 32.2553 10.5495 32.2975 10.5073C32.3397 10.465 32.3801 10.4382 32.3887 10.4468Z" fill="#A6A7AD"/>
<path d="M31.9227 10.6072C31.915 10.6168 31.8766 10.5976 31.8363 10.565C31.7969 10.5324 31.771 10.4978 31.7787 10.4882C31.7864 10.4786 31.8248 10.4978 31.8651 10.5304C31.9045 10.5631 31.9304 10.5976 31.9227 10.6072Z" fill="#A6A7AD"/>
<path d="M31.9031 10.8847C31.9127 10.8933 31.8897 10.9336 31.8513 10.9749C31.8138 11.0162 31.7754 11.0431 31.7658 11.0344C31.7562 11.0258 31.7793 10.9855 31.8177 10.9442C31.8561 10.9029 31.8945 10.876 31.9031 10.8847Z" fill="#A6A7AD"/>
<path d="M41.9237 15.6347C41.9237 15.6414 41.8719 15.6472 41.8076 15.6472C41.7432 15.6472 41.6914 15.6414 41.6914 15.6347C41.6914 15.628 41.7432 15.6222 41.8076 15.6222C41.8719 15.6222 41.9237 15.628 41.9237 15.6347Z" fill="#A6A7AD"/>
<path d="M42.0467 15.3198C42.0534 15.3198 42.0591 15.3726 42.0591 15.4369C42.0591 15.5022 42.0534 15.5541 42.0467 15.5541C42.0399 15.5541 42.0342 15.5013 42.0342 15.4369C42.0342 15.3726 42.0399 15.3198 42.0467 15.3198Z" fill="#A6A7AD"/>
<path d="M42.1777 15.627C42.1777 15.6203 42.2296 15.6145 42.2939 15.6145C42.3582 15.6145 42.4101 15.6203 42.4101 15.627C42.4101 15.6337 42.3582 15.6395 42.2939 15.6395C42.2296 15.6404 42.1777 15.6347 42.1777 15.627Z" fill="#A6A7AD"/>
<path d="M42.0545 15.9419C42.0478 15.9419 42.042 15.8891 42.042 15.8248C42.042 15.7595 42.0478 15.7076 42.0545 15.7076C42.0612 15.7076 42.067 15.7604 42.067 15.8248C42.0679 15.89 42.0622 15.9419 42.0545 15.9419Z" fill="#A6A7AD"/>
<path d="M42.2417 15.8075C42.236 15.8123 42.2139 15.7941 42.1908 15.7663C42.1678 15.7394 42.1544 15.7135 42.1592 15.7087C42.1649 15.7039 42.187 15.7221 42.2101 15.7499C42.2331 15.7768 42.2475 15.8027 42.2417 15.8075Z" fill="#A6A7AD"/>
<path d="M42.2309 15.4504C42.2357 15.4552 42.2213 15.4782 42.1973 15.5022C42.1733 15.5262 42.1503 15.5416 42.1455 15.5368C42.1407 15.532 42.1551 15.5089 42.1791 15.4849C42.2031 15.46 42.2261 15.4456 42.2309 15.4504Z" fill="#A6A7AD"/>
<path d="M41.9663 15.5406C41.9615 15.5464 41.9394 15.5348 41.9173 15.5166C41.8952 15.4984 41.8799 15.4782 41.8847 15.4724C41.8895 15.4667 41.9106 15.4782 41.9336 15.4964C41.9557 15.5156 41.9701 15.5358 41.9663 15.5406Z" fill="#A6A7AD"/>
<path d="M41.9557 15.698C41.9605 15.7028 41.9481 15.7259 41.926 15.7489C41.9049 15.7719 41.8828 15.7873 41.878 15.7825C41.8732 15.7777 41.8857 15.7547 41.9077 15.7316C41.9289 15.7086 41.95 15.6932 41.9557 15.698Z" fill="#A6A7AD"/>
<path d="M31.6386 18.1306C31.6386 18.1374 31.5867 18.1431 31.5224 18.1431C31.4581 18.1431 31.4062 18.1374 31.4062 18.1306C31.4062 18.1239 31.4581 18.1182 31.5224 18.1182C31.5867 18.1182 31.6386 18.123 31.6386 18.1306Z" fill="#A6A7AD"/>
<path d="M31.7616 17.8158C31.7683 17.8158 31.7741 17.8686 31.7741 17.9329C31.7741 17.9982 31.7683 18.05 31.7616 18.05C31.7549 18.05 31.7491 17.9972 31.7491 17.9329C31.7482 17.8686 31.7539 17.8158 31.7616 17.8158Z" fill="#A6A7AD"/>
<path d="M31.8926 18.123C31.8926 18.1162 31.9444 18.1105 32.0087 18.1105C32.0731 18.1105 32.1249 18.1162 32.1249 18.123C32.1249 18.1297 32.0731 18.1354 32.0087 18.1354C31.9444 18.1354 31.8926 18.1297 31.8926 18.123Z" fill="#A6A7AD"/>
<path d="M31.7693 18.4379C31.7626 18.4379 31.7568 18.3851 31.7568 18.3207C31.7568 18.2555 31.7626 18.2036 31.7693 18.2036C31.776 18.2036 31.7818 18.2564 31.7818 18.3207C31.7818 18.3851 31.777 18.4379 31.7693 18.4379Z" fill="#A6A7AD"/>
<path d="M31.9566 18.3025C31.9508 18.3073 31.9287 18.2891 31.9057 18.2612C31.8827 18.2344 31.8692 18.2084 31.874 18.2036C31.8798 18.1988 31.9019 18.2171 31.9249 18.2449C31.9479 18.2728 31.9623 18.2987 31.9566 18.3025Z" fill="#A6A7AD"/>
<path d="M31.9457 17.9453C31.9505 17.9501 31.9361 17.9732 31.9121 17.9972C31.8881 18.0212 31.8651 18.0365 31.8603 18.0317C31.8555 18.0269 31.8699 18.0039 31.8939 17.9799C31.9169 17.9559 31.9409 17.9405 31.9457 17.9453Z" fill="#A6A7AD"/>
<path d="M31.6801 18.0366C31.6753 18.0423 31.6533 18.0308 31.6312 18.0126C31.6091 17.9943 31.5937 17.9742 31.5985 17.9684C31.6033 17.9627 31.6245 17.9742 31.6475 17.9924C31.6705 18.0116 31.6849 18.0308 31.6801 18.0366Z" fill="#A6A7AD"/>
<path d="M31.6706 18.194C31.6754 18.1988 31.6629 18.2218 31.6408 18.2449C31.6197 18.2679 31.5976 18.2833 31.5928 18.2785C31.588 18.2737 31.6005 18.2506 31.6226 18.2276C31.6437 18.2046 31.6648 18.1892 31.6706 18.194Z" fill="#A6A7AD"/>
<path d="M40.1532 24.6499C40.1532 24.6566 40.1014 24.6624 40.0371 24.6624C39.9727 24.6624 39.9209 24.6566 39.9209 24.6499C39.9209 24.6432 39.9727 24.6375 40.0371 24.6375C40.1014 24.6375 40.1532 24.6432 40.1532 24.6499Z" fill="#A6A7AD"/>
<path d="M40.2763 24.3351C40.283 24.3351 40.2887 24.3879 40.2887 24.4522C40.2887 24.5175 40.283 24.5693 40.2763 24.5693C40.2695 24.5693 40.2638 24.5165 40.2638 24.4522C40.2628 24.3879 40.2686 24.3351 40.2763 24.3351Z" fill="#A6A7AD"/>
<path d="M40.4072 24.6422C40.4072 24.6355 40.4591 24.6298 40.5234 24.6298C40.5877 24.6298 40.6395 24.6355 40.6395 24.6422C40.6395 24.649 40.5877 24.6547 40.5234 24.6547C40.4591 24.6557 40.4072 24.6499 40.4072 24.6422Z" fill="#A6A7AD"/>
<path d="M40.284 24.9571C40.2772 24.9571 40.2715 24.9043 40.2715 24.84C40.2715 24.7747 40.2772 24.7229 40.284 24.7229C40.2907 24.7229 40.2964 24.7757 40.2964 24.84C40.2964 24.9053 40.2907 24.9571 40.284 24.9571Z" fill="#A6A7AD"/>
<path d="M40.4712 24.8228C40.4655 24.8276 40.4434 24.8094 40.4203 24.7815C40.3973 24.7546 40.3839 24.7287 40.3887 24.7239C40.3944 24.7191 40.4165 24.7373 40.4395 24.7652C40.4626 24.7921 40.476 24.818 40.4712 24.8228Z" fill="#A6A7AD"/>
<path d="M40.4604 24.4657C40.4652 24.4705 40.4508 24.4935 40.4268 24.5175C40.4028 24.5415 40.3797 24.5569 40.3749 24.5521C40.3701 24.5473 40.3845 24.5242 40.4085 24.5002C40.4316 24.4753 40.4546 24.4599 40.4604 24.4657Z" fill="#A6A7AD"/>
<path d="M40.1948 24.5559C40.19 24.5616 40.1679 24.5501 40.1458 24.5319C40.1237 24.5136 40.1084 24.4935 40.1132 24.4877C40.118 24.4819 40.1391 24.4935 40.1621 24.5117C40.1852 24.5309 40.1996 24.5511 40.1948 24.5559Z" fill="#A6A7AD"/>
<path d="M40.1843 24.7133C40.1891 24.7181 40.1766 24.7411 40.1545 24.7642C40.1334 24.7872 40.1113 24.8026 40.1065 24.7978C40.1017 24.793 40.1142 24.7699 40.1363 24.7469C40.1574 24.7238 40.1795 24.7085 40.1843 24.7133Z" fill="#A6A7AD"/>
<path d="M40.3214 13.9287L40.3348 13.9604C40.3578 14.0161 40.403 14.0602 40.4586 14.0833L40.4932 14.0977L40.4596 14.1111C40.403 14.1342 40.3578 14.1793 40.3348 14.2359L40.3252 14.259L40.3108 14.2302C40.2849 14.1774 40.2398 14.1361 40.185 14.1159L40.1553 14.1054L40.1946 14.0862C40.2446 14.0622 40.2839 14.0209 40.305 13.97L40.3214 13.9287Z" fill="#A6A7AD"/>
<path d="M41.8062 13.3719L41.8129 13.3883C41.8244 13.4161 41.8465 13.4382 41.8743 13.4497L41.8916 13.4564L41.8753 13.4631C41.8465 13.4747 41.8244 13.4967 41.8129 13.5255L41.8081 13.5371L41.8014 13.5227C41.7889 13.4958 41.7659 13.4756 41.738 13.4651L41.7227 13.4593L41.7428 13.4497C41.7678 13.4372 41.787 13.4171 41.7975 13.3911L41.8062 13.3719Z" fill="#A6A7AD"/>
<path d="M30.2876 11.0842L30.2943 11.1005C30.3059 11.1284 30.3279 11.1505 30.3558 11.162L30.3731 11.1687L30.3567 11.1754C30.3279 11.1869 30.3059 11.209 30.2943 11.2378L30.2895 11.2493L30.2828 11.2349C30.2703 11.2081 30.2473 11.1879 30.2195 11.1773L30.2041 11.1716L30.2243 11.162C30.2492 11.1495 30.2684 11.1293 30.279 11.1034L30.2876 11.0842Z" fill="#A6A7AD"/>
<path d="M30.9214 19.6552L30.9281 19.6715C30.9397 19.6993 30.9617 19.7214 30.9896 19.7329L31.0068 19.7396L30.9905 19.7464C30.9617 19.7579 30.9397 19.78 30.9281 19.8088L30.9233 19.8203L30.9166 19.8059C30.9041 19.779 30.8811 19.7588 30.8533 19.7483L30.8379 19.7425L30.858 19.7329C30.883 19.7204 30.9022 19.7003 30.9128 19.6744L30.9214 19.6552Z" fill="#A6A7AD"/>
<path d="M39.7993 23.4106L39.8061 23.427C39.8176 23.4548 39.8397 23.4769 39.8675 23.4884L39.8848 23.4951L39.8685 23.5018C39.8397 23.5134 39.8176 23.5354 39.8061 23.5642L39.8013 23.5758L39.7945 23.5614C39.7821 23.5345 39.759 23.5143 39.7312 23.5038L39.7158 23.498L39.736 23.4884C39.7609 23.4759 39.7801 23.4558 39.7907 23.4298L39.7993 23.4106Z" fill="#A6A7AD"/>
<path d="M33.1265 9.42346L33.1332 9.43978C33.1447 9.46762 33.1668 9.4897 33.1946 9.50122L33.2119 9.50794L33.1956 9.51466C33.1668 9.52618 33.1447 9.54826 33.1332 9.57706L33.1284 9.58858L33.1217 9.57418C33.1092 9.5473 33.0862 9.52714 33.0583 9.51658L33.043 9.51082L33.0631 9.50122C33.0881 9.48874 33.1073 9.46858 33.1178 9.44266L33.1265 9.42346Z" fill="#A6A7AD"/>
<path d="M32.1202 20.6248L32.1336 20.6564C32.1567 20.7121 32.2018 20.7563 32.2575 20.7793L32.292 20.7937L32.2584 20.8072C32.2018 20.8302 32.1567 20.8753 32.1336 20.932L32.124 20.955L32.1096 20.9262C32.0837 20.8734 32.0386 20.8321 31.9839 20.812L31.9541 20.8014L31.9935 20.7822C32.0434 20.7582 32.0827 20.7169 32.1039 20.666L32.1202 20.6248Z" fill="#A6A7AD"/>
</g>
<g opacity="0.11">
<path d="M14.9707 27.4868L19.0334 27.2996L18.2952 31.2672L14.9707 27.4868Z" fill="#A6A7AD"/>
<path d="M17.7872 29.9226L16.2734 28.2009L9.30969 34.3237L10.8234 36.0453L17.7872 29.9226Z" fill="#A6A7AD"/>
</g>
<g opacity="0.11">
<path d="M25.5508 23.7994L29.6135 23.6132L28.8753 27.5799L25.5508 23.7994Z" fill="#A6A7AD"/>
<path d="M28.3672 26.235L26.8535 24.5133L19.8898 30.636L21.4035 32.3577L28.3672 26.235Z" fill="#A6A7AD"/>
</g>
<path d="M12.2969 19.6704L14.9033 19.5504L14.429 22.0963L12.2969 19.6704Z" fill="#F5F5F5"/>
<path d="M14.103 21.2332L13.1318 20.1287L8.66405 24.0569L9.63516 25.1614L14.103 21.2332Z" fill="#F5F5F5"/>
<g opacity="0.11">
<path d="M34.6309 21.4436L37.2373 21.3236L36.764 23.8695L34.6309 21.4436Z" fill="#A6A7AD"/>
<path d="M36.4379 23.0056L35.4668 21.9011L30.999 25.8293L31.9701 26.9338L36.4379 23.0056Z" fill="#A6A7AD"/>
</g>
<path d="M11.7251 37.8413C11.7241 37.8375 11.7654 37.8452 11.8259 37.8087C11.8547 37.7905 11.8864 37.7578 11.9037 37.7098C11.9209 37.6628 11.9113 37.6013 11.9133 37.5341C11.9123 37.3988 11.9113 37.2337 11.9094 37.0426C11.9085 36.9466 11.9085 36.8449 11.9075 36.7364C11.9075 36.6817 11.9123 36.6269 11.8816 36.5809C11.8547 36.5348 11.8057 36.5002 11.7501 36.4935C10.7843 36.4945 9.45471 36.4964 7.98687 36.4973C7.90335 36.4964 7.82655 36.5617 7.81503 36.6423C7.80927 36.7258 7.81311 36.8209 7.81215 36.9092C7.81215 37.0887 7.81215 37.2644 7.81215 37.4381C7.81215 37.4813 7.81215 37.5245 7.81215 37.5677C7.81407 37.6109 7.80831 37.6551 7.81791 37.6906C7.83615 37.7655 7.90815 37.8212 7.98399 37.8212C8.15103 37.8212 8.31423 37.8221 8.47263 37.8221C9.10911 37.8241 9.68319 37.825 10.1661 37.8269C10.6461 37.8298 11.0349 37.8317 11.3075 37.8337C11.44 37.8356 11.5446 37.8365 11.6176 37.8375C11.6512 37.8385 11.6781 37.8394 11.6982 37.8394C11.7165 37.8404 11.7251 37.8404 11.7251 37.8413C11.7251 37.8423 11.7155 37.8433 11.6973 37.8433C11.6771 37.8442 11.6502 37.8442 11.6166 37.8452C11.5427 37.8461 11.439 37.8471 11.3065 37.849C11.0349 37.8509 10.6451 37.8529 10.1651 37.8557C9.68223 37.8567 9.10911 37.8586 8.47167 37.8605C8.31231 37.8605 8.14911 37.8605 7.98207 37.8615C7.88991 37.8615 7.80063 37.7933 7.77759 37.7012C7.76511 37.6532 7.77183 37.6109 7.76991 37.5687C7.76991 37.5255 7.76991 37.4823 7.76991 37.4391C7.76991 37.2653 7.76991 37.0897 7.76991 36.9101C7.77087 36.8189 7.76703 36.7335 7.77279 36.6365C7.78719 36.5357 7.88319 36.4551 7.98591 36.4561C9.45759 36.457 10.7862 36.4561 11.7539 36.4647C11.8182 36.4733 11.8749 36.5137 11.9056 36.5674C11.9209 36.5943 11.9305 36.6231 11.9325 36.6538C11.9344 36.6845 11.9325 36.7095 11.9334 36.7373C11.9325 36.8458 11.9325 36.9485 11.9315 37.0436C11.9305 37.2346 11.9286 37.3988 11.9277 37.5351C11.9248 37.6013 11.9334 37.6637 11.9133 37.7146C11.8941 37.7645 11.8595 37.7981 11.8288 37.8164C11.7971 37.8346 11.7693 37.8404 11.752 37.8423C11.7347 37.8433 11.7251 37.8413 11.7251 37.8413Z" fill="#E0E0E0"/>
<path d="M4.75879 46.9786C4.75879 46.9776 4.76647 46.9776 4.77991 46.9766C4.79527 46.9766 4.81639 46.9757 4.84327 46.9747C4.90087 46.9738 4.98439 46.9728 5.09479 46.9709C5.31655 46.969 5.64391 46.967 6.06727 46.9642C6.91591 46.9613 8.14951 46.9574 9.69511 46.9517L9.66919 46.9776C9.66727 45.9667 9.66535 44.8186 9.66247 43.559V43.5264H9.69511C11.3962 43.5245 13.3018 43.5226 15.362 43.5206L15.3236 43.559C15.3226 42.5491 15.3226 41.4864 15.3217 40.393V40.3526H15.362C17.0372 40.3526 18.8132 40.3517 20.6401 40.3517C20.9962 40.3517 21.3514 40.3517 21.7028 40.3517L21.6605 40.3939C21.6605 39.1526 21.6615 37.9392 21.6615 36.7632V36.7219H21.7028C23.9876 36.7238 26.137 36.7248 28.0887 36.7267L28.0522 36.7632C28.0561 34.489 28.0589 32.4835 28.0618 30.8266V30.7997H28.0887C29.8023 30.8054 31.1645 30.8093 32.0996 30.8122C32.5661 30.815 32.9261 30.8179 33.17 30.8189C33.2909 30.8208 33.3831 30.8218 33.4465 30.8227C33.4772 30.8237 33.5002 30.8246 33.5165 30.8246C33.5319 30.8256 33.5405 30.8256 33.5405 30.8266C33.5405 30.8275 33.5329 30.8275 33.5165 30.8285C33.5002 30.8285 33.4772 30.8294 33.4465 30.8304C33.3841 30.8314 33.2919 30.8323 33.17 30.8342C32.9261 30.8362 32.5661 30.8381 32.0996 30.841C31.1645 30.8438 29.8023 30.8477 28.0887 30.8534L28.1156 30.8266C28.1185 32.4835 28.1213 34.488 28.1252 36.7632V36.7997H28.0887C26.1361 36.8006 23.9876 36.8026 21.7028 36.8045L21.7441 36.7632C21.7441 37.9402 21.745 39.1536 21.745 40.3939V40.4362H21.7028C21.3505 40.4362 20.9962 40.4362 20.6401 40.4362C18.8132 40.4362 17.0372 40.4352 15.362 40.4352L15.4023 40.3949C15.4013 41.4883 15.4013 42.5501 15.4004 43.561V43.5994H15.362C13.3028 43.5974 11.3962 43.5946 9.69511 43.5936L9.72775 43.561C9.72583 44.8214 9.72295 45.9686 9.72103 46.9795V47.0054H9.69511C8.14951 47.0006 6.91591 46.9958 6.06727 46.993C5.64391 46.9901 5.31655 46.9872 5.09479 46.9862C4.98439 46.9843 4.90087 46.9834 4.84327 46.9824C4.81543 46.9814 4.79431 46.9814 4.77991 46.9805C4.76551 46.9795 4.75879 46.9795 4.75879 46.9786Z" fill="#888889"/>
<path d="M15.5049 21.1815L16.2076 20.8446C16.3468 20.4183 16.6012 20.0247 16.9689 19.7137C18.0239 18.8199 19.6041 18.9505 20.4978 20.0055C21.3916 21.0606 21.261 22.6407 20.206 23.5345C19.151 24.4282 17.5708 24.2977 16.677 23.2426C16.3036 22.802 16.1097 22.2702 16.0866 21.7345V21.7354L15.5049 21.1815Z" fill="white"/>
<path d="M15.5049 21.1815C15.5049 21.1815 15.5164 21.193 15.5404 21.217C15.5663 21.242 15.6018 21.2775 15.6489 21.3236C15.7478 21.4196 15.8918 21.5598 16.0799 21.7422C16.0838 21.745 16.0886 21.745 16.0924 21.7422C16.0934 21.7412 16.0943 21.7393 16.0943 21.7383V21.7374L16.077 21.7354C16.0895 22.057 16.1692 22.4852 16.4265 22.9182C16.4898 23.0257 16.5657 23.1332 16.6511 23.2369C16.7423 23.3358 16.8335 23.4433 16.9458 23.5335C17.1638 23.7217 17.4278 23.8849 17.7311 23.9943C18.0335 24.1038 18.3734 24.1594 18.7238 24.1412C19.0742 24.123 19.4351 24.0289 19.7682 23.8542C20.1023 23.6814 20.4018 23.4183 20.6342 23.0977C20.8655 22.7761 21.0297 22.3911 21.0834 21.9812L21.1026 21.8266L21.1084 21.6721L21.1113 21.5953L21.1074 21.5185L21.0978 21.3658C21.093 21.315 21.0825 21.265 21.0758 21.2151C21.0671 21.1652 21.0623 21.1143 21.0479 21.0663C21.022 20.9694 21.0009 20.8705 20.9625 20.7783C20.8281 20.402 20.6073 20.0689 20.3356 19.8068C20.062 19.5457 19.7375 19.3556 19.4044 19.2433C19.0703 19.13 18.7266 19.0916 18.405 19.1156C18.0825 19.1396 17.783 19.225 17.5218 19.3479C17.3894 19.4065 17.2722 19.4833 17.158 19.5553C17.0514 19.6378 16.9449 19.7137 16.8556 19.802C16.4908 20.1495 16.2988 20.5402 16.2009 20.8446L16.2057 20.8398C15.9782 20.9511 15.8025 21.0375 15.6825 21.0961C15.6249 21.1249 15.5807 21.146 15.55 21.1614C15.5183 21.1738 15.5049 21.1815 15.5049 21.1815C15.5049 21.1815 15.5222 21.1748 15.5529 21.1604C15.5846 21.146 15.6306 21.1249 15.6892 21.097C15.8092 21.0414 15.9849 20.9588 16.2114 20.8522C16.2134 20.8513 16.2153 20.8494 16.2162 20.8474C16.3161 20.546 16.51 20.161 16.8729 19.8193C16.9612 19.7319 17.0678 19.658 17.1734 19.5764C17.2866 19.5054 17.4028 19.4295 17.5343 19.3729C17.7926 19.2529 18.0892 19.1694 18.407 19.1473C18.7247 19.1242 19.0626 19.1636 19.3919 19.2759C19.7202 19.3882 20.039 19.5754 20.3078 19.8327C20.5746 20.0919 20.7916 20.4202 20.9241 20.7898C20.9625 20.881 20.9817 20.978 21.0076 21.074C21.022 21.122 21.0258 21.1719 21.0354 21.2209C21.0422 21.2698 21.0527 21.3198 21.0575 21.3697L21.0671 21.5204L21.071 21.5962L21.0681 21.6721L21.0623 21.8247L21.0431 21.9764C20.9903 22.3806 20.829 22.7588 20.6015 23.0746C20.373 23.3905 20.0783 23.6497 19.75 23.8206C19.4226 23.9934 19.0674 24.0865 18.7218 24.1057C18.3762 24.1249 18.0412 24.0711 17.7426 23.9636C17.4431 23.857 17.182 23.6967 16.966 23.5114C16.8546 23.4222 16.7644 23.3166 16.6742 23.2196C16.5887 23.1178 16.5138 23.0122 16.4495 22.9057C16.1922 22.4794 16.1106 22.0561 16.0943 21.7364C16.0943 21.7316 16.0905 21.7278 16.0857 21.7278C16.0818 21.7278 16.078 21.7306 16.077 21.7345V21.7354L16.0914 21.7306C15.9023 21.553 15.7574 21.4167 15.6575 21.3236C15.6086 21.2775 15.5711 21.243 15.5442 21.218C15.5193 21.194 15.5049 21.1815 15.5049 21.1815Z" fill="#8E8E8E"/>
<path d="M18.5985 23.2263C19.416 23.2263 20.0788 22.5635 20.0788 21.7459C20.0788 20.9284 19.416 20.2656 18.5985 20.2656C17.7809 20.2656 17.1182 20.9284 17.1182 21.7459C17.1182 22.5635 17.7809 23.2263 18.5985 23.2263Z" fill="#FF725E"/>
<path d="M18.5985 23.2263C19.416 23.2263 20.0788 22.5635 20.0788 21.7459C20.0788 20.9284 19.416 20.2656 18.5985 20.2656C17.7809 20.2656 17.1182 20.9284 17.1182 21.7459C17.1182 22.5635 17.7809 23.2263 18.5985 23.2263Z" fill="#919191"/>
<path d="M19.1575 22.9526C19.9142 22.6432 20.2769 21.779 19.9675 21.0222C19.6581 20.2655 18.7939 19.9028 18.0372 20.2122C17.2804 20.5215 16.9178 21.3858 17.2271 22.1425C17.5365 22.8993 18.4008 23.2619 19.1575 22.9526Z" fill="#A6A7AD"/>
<path d="M19.299 22.2836C19.6862 21.8963 19.6862 21.2685 19.299 20.8812C18.9117 20.4939 18.2838 20.4939 17.8965 20.8812C17.5093 21.2685 17.5093 21.8963 17.8965 22.2836C18.2838 22.6709 18.9117 22.6709 19.299 22.2836Z" fill="white"/>
<path d="M18.5981 22.0684C18.8663 22.0684 19.0838 21.851 19.0838 21.5827C19.0838 21.3144 18.8663 21.0969 18.5981 21.0969C18.3298 21.0969 18.1123 21.3144 18.1123 21.5827C18.1123 21.851 18.3298 22.0684 18.5981 22.0684Z" fill="#A6A7AD"/>
<path d="M19.6302 20.4989L19.5898 20.183L19.9114 19.8384L19.9345 20.1792L19.6302 20.4989Z" fill="#7C7C7C"/>
<path d="M20.3198 20.2473L19.9944 20.2205L19.667 20.5353L19.9944 20.5699L20.3198 20.2473Z" fill="#7C7C7C"/>
<path opacity="0.3" d="M18.6631 21.575L19.7949 20.711C19.7565 20.6534 19.7076 20.5958 19.6528 20.5382L18.6621 21.4982V21.575H18.6631Z" fill="black"/>
<path d="M19.9486 20.1321C19.795 20.2857 19.6414 20.4393 19.4878 20.5929C19.2439 20.8367 19.0001 21.0806 18.7562 21.3244C18.7006 21.3801 18.6439 21.4367 18.5882 21.4924C18.5354 21.5452 18.618 21.6278 18.6718 21.575C18.8254 21.4214 18.979 21.2678 19.1326 21.1142C19.3764 20.8703 19.6202 20.6265 19.8641 20.3827C19.9198 20.327 19.9764 20.2703 20.0321 20.2147C20.0849 20.1609 20.0014 20.0783 19.9486 20.1321Z" fill="#5B5B5B"/>
<path d="M9.78906 24.4109L10.0627 21.3687C10.1059 20.6093 10.5839 20.0026 11.3414 20.0669L11.4115 20.0765C12.1123 20.1773 12.6182 20.8004 12.574 21.5069C12.5327 22.1645 12.479 22.8913 12.4243 23.2388C12.311 23.9597 11.5727 23.9674 11.5727 23.9674C11.5708 23.9674 11.5228 24.4081 11.5017 24.6212L11.4105 25.1175L11.0399 24.9293L9.78906 24.4109Z" fill="#EFCDBB"/>
<path d="M11.5753 23.9424C11.5753 23.9424 11.1164 23.9031 10.6748 23.5287C10.6748 23.5287 10.8226 24.1037 11.5522 24.1431L11.5753 23.9424Z" fill="#DBB3A2"/>
<path d="M11.3128 21.3898C11.307 21.4215 11.1938 21.4253 11.0661 21.4608C10.9384 21.4944 10.8395 21.5492 10.8174 21.5252C10.8078 21.5136 10.8213 21.482 10.8587 21.4464C10.8962 21.4109 10.9586 21.3725 11.0354 21.3514C11.1122 21.3303 11.1851 21.3312 11.236 21.3437C11.2878 21.3552 11.3157 21.3754 11.3128 21.3898Z" fill="#38302D"/>
<path d="M12.2909 21.4627C12.265 21.4848 12.1777 21.4474 12.0692 21.432C11.9607 21.4138 11.8657 21.4234 11.8484 21.3936C11.8407 21.3792 11.8589 21.3562 11.9021 21.3379C11.9453 21.3197 12.0135 21.3082 12.0884 21.3197C12.1633 21.3312 12.2247 21.3629 12.2593 21.3936C12.2929 21.4234 12.3025 21.4512 12.2909 21.4627Z" fill="#38302D"/>
<path d="M10.0468 21.8861C10.0353 21.8794 9.57165 21.6682 9.51597 22.1635C9.46029 22.6599 9.97005 22.6128 9.97197 22.5984C9.97581 22.585 10.0468 21.8861 10.0468 21.8861Z" fill="#EFCDBB"/>
<path d="M9.84218 22.395C9.84026 22.3931 9.83258 22.3998 9.81722 22.4055C9.80186 22.4103 9.7769 22.4123 9.7529 22.3998C9.70298 22.3748 9.66746 22.2865 9.67514 22.1972C9.67898 22.1521 9.69338 22.1099 9.71354 22.0763C9.73274 22.0417 9.75866 22.0187 9.78554 22.0167C9.81242 22.0139 9.8297 22.0311 9.83354 22.0465C9.83834 22.0609 9.8345 22.0705 9.83738 22.0715C9.83834 22.0724 9.8489 22.0647 9.84698 22.0436C9.84602 22.0331 9.84122 22.0215 9.83066 22.01C9.8201 21.9995 9.80282 21.9918 9.78458 21.9918C9.74618 21.9899 9.70778 22.0215 9.6857 22.059C9.6617 22.0964 9.64442 22.1435 9.64058 22.1943C9.6329 22.2942 9.67322 22.394 9.74234 22.4228C9.77594 22.4363 9.80666 22.4286 9.82298 22.419C9.84026 22.4065 9.8441 22.3959 9.84218 22.395Z" fill="#DBB3A2"/>
<path d="M13.6461 20.9309C13.6413 20.9011 13.6231 20.8742 13.5991 20.856C13.5463 20.8157 13.4801 20.8128 13.4167 20.8051C13.2593 20.785 13.1085 20.7264 12.9761 20.64C13.0279 20.6208 13.0769 20.5958 13.1201 20.5613C13.2093 20.4902 13.2689 20.3731 13.2449 20.2618C13.2401 20.2406 13.2314 20.2186 13.2113 20.2099C13.1805 20.1965 13.1489 20.2243 13.1229 20.2474C13.0394 20.3213 12.9674 20.3491 12.8589 20.3251C12.7917 20.3107 12.7265 20.2877 12.6765 20.2483C12.6746 20.2454 12.6727 20.2435 12.6708 20.2406C12.6477 20.2109 12.6257 20.183 12.6036 20.1552C12.4385 19.9488 12.2925 19.8029 12.1351 19.7174C11.9037 19.5926 11.5034 19.5072 11.2442 19.5446C10.9841 19.5821 10.7345 19.7606 10.6701 20.016C10.5425 19.8806 10.3293 19.8566 10.1489 19.9066L10.145 19.9046C9.94533 19.9517 9.81285 20.1418 9.73413 20.3309C9.73029 20.3414 9.72549 20.352 9.72165 20.3626C9.64485 20.4586 9.54693 20.5363 9.43461 20.5853C9.41445 20.5939 9.39237 20.6045 9.38757 20.6256C9.38277 20.6467 9.39909 20.6659 9.41445 20.6803C9.45669 20.7187 9.50757 20.7466 9.56229 20.7629C9.53925 20.807 9.51333 20.8502 9.48357 20.8906C9.45765 20.9251 9.42693 20.9654 9.44133 21.0058C9.45285 21.0374 9.48837 21.0538 9.52197 21.0528C9.55557 21.0518 9.58629 21.0374 9.61605 21.0221C9.58917 21.071 9.56133 21.12 9.53445 21.169C9.60261 21.1891 9.67461 21.192 9.74469 21.1786C9.76485 21.3667 9.75717 21.7085 9.78981 21.8381C9.92133 21.8554 9.95493 21.8448 10.0183 21.8746C10.1009 21.913 10.0509 22.0608 10.1671 22.031C10.2266 22.0157 10.338 21.8102 10.3639 21.7546C10.5338 21.384 10.6231 20.977 10.6231 20.5699C10.7124 20.4941 10.8161 20.4355 10.9274 20.399L10.9178 20.4058C11.129 20.3587 11.3661 20.3155 11.5476 20.4326C11.6887 20.5238 11.7588 20.688 11.8557 20.8243C12.0401 21.0826 12.2657 21.2352 12.5796 21.2842C12.5834 21.5059 12.5508 21.865 12.5383 22.0704L12.7591 21.6816V21.6835C12.7764 21.6614 12.7908 21.6384 12.8042 21.6154L12.809 21.6086V21.6077C12.8311 21.5712 12.8532 21.5338 12.8801 21.4982C12.881 21.4992 12.881 21.4992 12.882 21.5002C12.9818 21.6106 13.1613 21.48 13.0874 21.3504C13.073 21.3245 13.0548 21.3014 13.0327 21.2813C13.0778 21.3341 13.1508 21.3658 13.2189 21.3533C13.2881 21.3408 13.3466 21.2794 13.3485 21.2093C13.3495 21.1613 13.3207 21.1152 13.2804 21.0922C13.3687 21.1094 13.4628 21.0998 13.5453 21.0643C13.6001 21.0394 13.6557 20.9971 13.6461 20.9309Z" fill="#38302D"/>
<path d="M10.8885 20.1245C10.8894 20.1264 10.8558 20.1399 10.8078 20.1831C10.7608 20.2253 10.7041 20.3021 10.6686 20.4116C10.6513 20.4653 10.6369 20.5268 10.6293 20.594C10.6216 20.6612 10.6187 20.7332 10.6149 20.809C10.611 20.8848 10.6072 20.9655 10.5928 21.048C10.5861 21.0893 10.5755 21.1306 10.5621 21.1719C10.5486 21.2122 10.5323 21.2554 10.4968 21.288C10.4689 21.314 10.4257 21.3226 10.3902 21.3111C10.3547 21.3005 10.3249 21.2775 10.3038 21.2487C10.2635 21.1892 10.2597 21.1181 10.2549 21.0567L10.2702 21.0605C10.2395 21.1124 10.2078 21.1632 10.1646 21.2026C10.1224 21.242 10.0677 21.265 10.0149 21.2631C9.98894 21.2621 9.96302 21.2554 9.9419 21.241C9.92078 21.2276 9.90542 21.2064 9.89678 21.1853C9.88814 21.1632 9.88526 21.1412 9.8891 21.1191C9.89294 21.098 9.9035 21.0778 9.91886 21.0653L9.92558 21.073C9.86222 21.1306 9.79982 21.1575 9.75662 21.1719C9.73454 21.1786 9.71822 21.1824 9.70574 21.1853C9.69422 21.1872 9.68846 21.1882 9.6875 21.1872C9.6875 21.1863 9.69326 21.1853 9.70478 21.1824C9.7163 21.1796 9.73262 21.1748 9.75374 21.1671C9.79598 21.1517 9.85646 21.1229 9.9179 21.0653L9.92462 21.073C9.89678 21.096 9.89102 21.1412 9.90734 21.1805C9.91598 21.1997 9.92942 21.218 9.94862 21.2304C9.96782 21.2429 9.99086 21.2487 10.0149 21.2496C10.0638 21.2506 10.1147 21.2285 10.1541 21.1911C10.1944 21.1536 10.2251 21.1037 10.2558 21.0519L10.2693 21.0298L10.2712 21.0557C10.276 21.1181 10.2808 21.1853 10.3173 21.24C10.3355 21.266 10.3633 21.2871 10.3941 21.2957C10.4248 21.3053 10.4603 21.2986 10.4843 21.2765C10.515 21.2487 10.5313 21.2074 10.5448 21.168C10.5582 21.1277 10.5678 21.0874 10.5755 21.0471C10.5899 20.9664 10.5937 20.8868 10.5976 20.8109C10.6014 20.7351 10.6053 20.6621 10.6129 20.5949C10.6216 20.5277 10.636 20.4653 10.6552 20.4106C10.6926 20.3002 10.7512 20.2224 10.8011 20.1812C10.8539 20.136 10.8885 20.1245 10.8885 20.1245Z" fill="#2D2320"/>
<path d="M13.0531 21.0864C13.0531 21.0864 13.0512 21.0884 13.0464 21.0903C13.0406 21.0932 13.0348 21.097 13.0272 21.1018C13.0185 21.1066 13.008 21.1124 12.9945 21.1181C12.9811 21.1239 12.9657 21.1306 12.9475 21.1364C12.8764 21.1604 12.7651 21.1805 12.6307 21.1565C12.4972 21.1335 12.3427 21.0682 12.2112 20.9453C12.0777 20.8244 11.9683 20.6564 11.8838 20.4692C11.8406 20.3751 11.808 20.28 11.7705 20.1917C11.7331 20.1034 11.6899 20.0199 11.6332 19.9527C11.5776 19.8845 11.5104 19.8308 11.4384 19.802C11.4028 19.7866 11.3654 19.7799 11.3299 19.777C11.2934 19.7751 11.2588 19.778 11.2272 19.7847C11.1619 19.7981 11.1081 19.8269 11.0659 19.8586C11.0236 19.8903 10.9929 19.9248 10.9718 19.9556C10.9315 20.0189 10.9248 20.0612 10.9219 20.0602C10.9219 20.0602 10.9219 20.0573 10.9228 20.0525C10.9248 20.0468 10.9267 20.0391 10.9286 20.0304C10.9344 20.0112 10.9459 19.9844 10.9651 19.9517C10.9862 19.92 11.016 19.8836 11.0592 19.8509C11.1024 19.8183 11.1571 19.7876 11.2243 19.7732C11.2579 19.7655 11.2934 19.7616 11.3308 19.7636C11.3683 19.7664 11.4067 19.7732 11.4441 19.7885C11.519 19.8183 11.5891 19.873 11.6457 19.9421C11.7033 20.0112 11.7475 20.0957 11.7859 20.185C11.8243 20.2743 11.8569 20.3693 11.8992 20.4624C11.9827 20.6487 12.0902 20.8148 12.2208 20.9348C12.3494 21.0567 12.5011 21.122 12.6316 21.146C12.7632 21.1709 12.8736 21.1527 12.9446 21.1306C13.0166 21.1076 13.0521 21.0836 13.0531 21.0864Z" fill="#2D2320"/>
<path d="M13.1547 20.7744C13.1557 20.7754 13.1451 20.7811 13.1269 20.7898C13.1086 20.7984 13.0808 20.8099 13.0453 20.8205C13.0098 20.8311 12.9675 20.8407 12.9186 20.8464C12.8706 20.8522 12.8168 20.8541 12.7602 20.8493C12.7045 20.8445 12.6517 20.8339 12.6046 20.8205C12.5576 20.8061 12.5173 20.7907 12.4837 20.7744C12.451 20.7581 12.4251 20.7427 12.4078 20.7312C12.3906 20.7197 12.3819 20.713 12.3829 20.712C12.3848 20.7091 12.4222 20.7341 12.4885 20.7639C12.5211 20.7783 12.5624 20.7936 12.6085 20.8061C12.6546 20.8176 12.7064 20.8282 12.7611 20.833C12.8158 20.8368 12.8686 20.8359 12.9166 20.8311C12.9637 20.8263 13.0069 20.8186 13.0414 20.809C13.1125 20.7907 13.1538 20.7715 13.1547 20.7744Z" fill="#2D2320"/>
<path d="M11.7897 22.967C11.7791 22.9516 11.6793 23.0284 11.542 22.9977C11.4047 22.967 11.3337 22.8518 11.3193 22.8614C11.3116 22.8652 11.3183 22.8998 11.3519 22.9459C11.3846 22.991 11.4479 23.0448 11.5324 23.064C11.6159 23.0822 11.6918 23.0601 11.735 23.0323C11.7791 23.0044 11.7954 22.9737 11.7897 22.967Z" fill="#38302D"/>
<path d="M8.15142 23.9693C8.15142 23.9693 7.6695 23.7581 7.28742 24.1671C6.90534 24.576 5.50086 27.3092 5.31558 27.8247C5.01126 28.6733 5.66694 29.3972 6.21318 29.4269C6.75942 29.4567 8.89638 28.7693 8.89638 28.7693L8.43078 27.5434L7.06662 27.6519L8.12358 25.5274L8.15142 23.9693Z" fill="#C4C4C4"/>
<path d="M10.4883 26.375C10.4883 26.375 11.0144 29.0409 11.2649 29.2569C11.5155 29.472 13.494 30.3581 13.494 30.3581L14.0864 29.3952L12.5139 28.4371L12.5062 26.4134C12.4899 25.8422 12.2614 25.4851 11.9993 25.2931L10.4883 26.375Z" fill="#C4C4C4"/>
<path d="M11.6008 24.5578L11.2447 25.0186L11.0239 24.4474L9.76724 23.6323L9.40148 23.9837C9.40148 23.9837 7.9922 24.0115 7.901 24.0797C7.69844 24.2323 7.32788 26.5152 7.32788 26.5152L6.6146 30.8198C6.55412 30.9926 7.15316 31.1126 7.50068 31.1981L10.6984 31.656C10.6984 31.656 11.0786 31.7462 11.1871 31.512C11.2744 31.3229 11.4559 29.3347 11.6402 28.2499C11.6892 27.9629 11.7333 26.9366 11.7333 26.9366L12.0885 25.3498L11.7036 25.0598L11.6008 24.5578Z" fill="#C4C4C4"/>
<path d="M7.56431 26.6717C7.56911 26.6737 7.54511 26.7303 7.50383 26.8215C7.46159 26.9117 7.40207 27.0356 7.33295 27.1709C7.26479 27.3063 7.20047 27.4282 7.15247 27.5156C7.10447 27.6029 7.07279 27.6557 7.06799 27.6529C7.06319 27.65 7.08719 27.5933 7.12847 27.5031C7.17071 27.4129 7.23023 27.289 7.29935 27.1537C7.36751 27.0183 7.43183 26.8964 7.47983 26.81C7.52687 26.7217 7.55951 26.6689 7.56431 26.6717Z" fill="#9B9B9B"/>
<path d="M10.9505 24.4646C10.9534 24.4675 10.9063 24.5193 10.8247 24.6067C10.7431 24.6931 10.6251 24.815 10.4868 24.9561L10.4763 24.9667L10.4638 24.9571C10.3745 24.8889 10.2785 24.8131 10.1796 24.7305C9.95882 24.5462 9.7697 24.3686 9.63722 24.2351C9.57098 24.1689 9.51818 24.1132 9.48362 24.0739C9.4481 24.0345 9.42986 24.0124 9.43178 24.0105C9.4337 24.0086 9.45578 24.0278 9.49418 24.0633C9.53834 24.1046 9.5921 24.1555 9.65642 24.215C9.7937 24.3436 9.98474 24.5174 10.2046 24.7007C10.3025 24.7823 10.3975 24.8591 10.4859 24.9283L10.4628 24.9302C10.603 24.791 10.7239 24.6729 10.8103 24.5903C10.8958 24.5087 10.9476 24.4617 10.9505 24.4646Z" fill="#9B9B9B"/>
<path d="M11.9245 25.9805C11.9351 25.9814 11.9149 26.2435 11.8813 26.5661C11.8467 26.8886 11.8112 27.1488 11.8007 27.1478C11.7901 27.1469 11.8103 26.8848 11.8439 26.5622C11.8775 26.2406 11.9139 25.9795 11.9245 25.9805Z" fill="#9B9B9B"/>
<path d="M13.3613 29.0717C13.3613 29.0717 13.754 28.4112 13.8365 28.4371C13.9191 28.4631 13.9613 28.6349 13.9114 28.7607C13.8615 28.8874 13.7232 29.3943 13.7232 29.3943L13.3613 29.0717Z" fill="#EFCDBB"/>
<path d="M13.4922 40.5638L13.1024 42.3206C13.1024 42.3206 14.7795 43.1779 14.7392 43.5091L11.2832 43.0051L11.7776 40.2422L13.4922 40.5638Z" fill="#494949"/>
<g opacity="0.6">
<path d="M12.0682 41.9769C11.9981 41.9827 11.9386 42.0489 11.9415 42.119C11.9444 42.1891 12.0116 42.2505 12.0817 42.2457C12.1517 42.2409 12.2257 42.1641 12.2151 42.094C12.2045 42.0249 12.122 41.9568 12.0548 41.9788" fill="white"/>
</g>
<g opacity="0.6">
<path d="M11.2832 43.0061L11.3331 42.7277L14.6528 43.3305C14.6528 43.3305 14.7565 43.3958 14.7526 43.5379L11.2832 43.0061Z" fill="white"/>
</g>
<path d="M13.1608 42.3138C13.157 42.3301 13.0715 42.3225 12.9794 42.3618C12.8862 42.3983 12.8296 42.4626 12.8162 42.453C12.8018 42.4473 12.845 42.3513 12.9573 42.3061C13.0696 42.2601 13.1675 42.2994 13.1608 42.3138Z" fill="#E2E2E2"/>
<path d="M13.4937 42.529C13.4946 42.5462 13.4169 42.5606 13.3468 42.6211C13.2748 42.6797 13.247 42.7536 13.2297 42.7498C13.2134 42.7498 13.2201 42.649 13.3084 42.576C13.3958 42.5021 13.4966 42.5136 13.4937 42.529Z" fill="#E2E2E2"/>
<path d="M13.619 42.9983C13.6027 42.9992 13.5951 42.9109 13.6555 42.8274C13.7151 42.7429 13.8005 42.7218 13.8053 42.7372C13.812 42.7525 13.7525 42.7929 13.7045 42.862C13.6536 42.9292 13.6363 42.9992 13.619 42.9983Z" fill="#E2E2E2"/>
<path d="M13.2062 41.904C13.1966 41.9184 13.1236 41.8809 13.0276 41.8694C12.9316 41.856 12.852 41.8742 12.8462 41.8589C12.8385 41.8454 12.922 41.7965 13.0353 41.8109C13.1476 41.8243 13.2168 41.8925 13.2062 41.904Z" fill="#E2E2E2"/>
<g opacity="0.3">
<path d="M13.4141 40.9122L13.345 41.2252L11.6602 40.8988L11.7101 40.6146L13.4141 40.9122Z" fill="black"/>
</g>
<path d="M7.99725 43.7424L7.77357 45.528C7.77357 45.528 9.52365 46.224 9.51405 46.5581L6.02637 46.3795L6.26061 43.584L7.99725 43.7424Z" fill="#494949"/>
<g opacity="0.6">
<path d="M6.71208 45.2822C6.64296 45.2947 6.59016 45.3657 6.59976 45.4358C6.60936 45.5049 6.68136 45.5597 6.75048 45.5491C6.8196 45.5376 6.88584 45.4541 6.86856 45.3859C6.85128 45.3177 6.76296 45.2582 6.69864 45.2861" fill="white"/>
</g>
<g opacity="0.6">
<path d="M6.02734 46.3805L6.05134 46.0983L9.41326 46.3872C9.41326 46.3872 9.5227 46.4419 9.5323 46.584L6.02734 46.3805Z" fill="white"/>
</g>
<path d="M7.83175 45.5155C7.82983 45.5328 7.74439 45.5328 7.65607 45.5798C7.56679 45.625 7.51687 45.6941 7.50151 45.6864C7.48615 45.6816 7.52071 45.5827 7.62823 45.527C7.73575 45.4714 7.83655 45.5002 7.83175 45.5155Z" fill="#E2E2E2"/>
<path d="M8.18375 45.6989C8.18663 45.7162 8.10983 45.7382 8.04647 45.8045C7.98023 45.8698 7.95911 45.9456 7.94183 45.9437C7.92551 45.9446 7.92263 45.8448 8.00423 45.7632C8.08391 45.6806 8.18471 45.6826 8.18375 45.6989Z" fill="#E2E2E2"/>
<path d="M8.35108 46.1539C8.33572 46.1558 8.3194 46.0694 8.37124 45.9802C8.42212 45.8909 8.50564 45.8611 8.5114 45.8755C8.52004 45.8899 8.4634 45.936 8.42212 46.0099C8.37988 46.0829 8.36836 46.1539 8.35108 46.1539Z" fill="#E2E2E2"/>
<path d="M7.83815 45.1028C7.82951 45.1172 7.75367 45.0874 7.65767 45.0855C7.56071 45.0816 7.48391 45.1076 7.47623 45.0922C7.46759 45.0788 7.54631 45.0231 7.65959 45.0269C7.77287 45.0298 7.84775 45.0903 7.83815 45.1028Z" fill="#E2E2E2"/>
<g opacity="0.3">
<path d="M7.95324 44.0966L7.91388 44.4144L6.20508 44.2474L6.22908 43.9594L7.95324 44.0966Z" fill="black"/>
</g>
<path d="M6.30624 22.7033C6.38723 21.9734 5.86124 21.3161 5.1314 21.2351C4.40156 21.1541 3.74425 21.6801 3.66326 22.41C3.58226 23.1398 4.10825 23.7971 4.83809 23.8781C5.56793 23.9591 6.22524 23.4331 6.30624 22.7033Z" fill="#8C8C8C"/>
<path d="M21.1725 37.9257L19.8439 34.8441L6.24932 21.9321L4.45508 23.9145L17.9786 36.7296L21.1725 37.9257Z" fill="#B2B2B2"/>
<path d="M17.9785 36.7296C17.9996 36.5981 18.1139 36.5059 18.2387 36.553C18.1043 36.3447 18.1177 36.0519 18.2723 35.857C18.4259 35.6631 18.7091 35.5824 18.9424 35.6659C18.8924 35.4259 18.9808 35.1619 19.1651 35.0007C19.3494 34.8394 19.623 34.7866 19.8544 34.8672L21.1724 37.9258L17.9785 36.7296Z" fill="#C7C9C9"/>
<path d="M20.638 36.6863C20.638 36.6863 20.0121 36.5414 19.8633 37.4351L21.1718 37.9247L20.638 36.6863Z" fill="#595959"/>
<path d="M18.9422 35.6658L5.46191 22.9775L6.30959 21.9926L19.8437 34.8431L19.8533 34.8662C19.8533 34.8662 19.7198 34.8114 19.549 34.8316C19.4347 34.845 19.2965 34.8911 19.1794 34.9871C19.0286 35.111 18.9586 35.2703 18.9365 35.4047C18.9125 35.5506 18.9422 35.6658 18.9422 35.6658Z" fill="#8C8C8C"/>
<path d="M18.2388 36.5529L4.68167 23.6736L4.45703 23.9337L17.9786 36.7296C17.9786 36.7296 18.0007 36.5366 18.1908 36.5405C18.2062 36.5405 18.2215 36.5481 18.2388 36.5529Z" fill="#8C8C8C"/>
<path d="M6.38494 22.0531L4.49374 23.9549C4.46686 23.9818 4.42366 23.9818 4.39678 23.9549L3.81118 23.3722C3.7843 23.3453 3.7843 23.3021 3.81118 23.2752L5.70238 21.3734C5.72926 21.3466 5.77246 21.3466 5.79934 21.3734L6.38494 21.9562C6.41182 21.983 6.41182 22.0262 6.38494 22.0531Z" fill="#E0E0E0"/>
<path d="M6.38535 22.0531C6.38439 22.0521 6.38919 22.0483 6.39495 22.0368C6.39975 22.0262 6.40551 22.007 6.39783 21.984C6.39111 21.9619 6.36327 21.9437 6.33831 21.9177C6.31143 21.8918 6.28167 21.863 6.24807 21.8304C6.17991 21.7641 6.09735 21.6835 6.00231 21.5904C5.95431 21.5433 5.90343 21.4934 5.84967 21.4406C5.83623 21.4272 5.82279 21.4137 5.80839 21.4003C5.79399 21.3859 5.78247 21.3725 5.76615 21.3686C5.75079 21.3638 5.73255 21.3667 5.71911 21.3763C5.70663 21.3859 5.69031 21.4041 5.67591 21.4185C5.19975 21.8995 4.54599 22.56 3.82311 23.2896C3.80583 23.3059 3.80391 23.3347 3.81735 23.3539C3.83463 23.3731 3.86055 23.3981 3.88263 23.4192C3.92775 23.4643 3.97191 23.5085 4.01703 23.5526C4.10535 23.6409 4.19271 23.7283 4.27911 23.8137C4.32231 23.8569 4.36455 23.8992 4.40679 23.9405C4.42311 23.9587 4.44711 23.9625 4.46727 23.952C4.47207 23.9491 4.47687 23.9462 4.48071 23.9424L4.49607 23.927L4.52679 23.8963C4.60935 23.8137 4.68999 23.7331 4.76871 23.6544C5.08359 23.3395 5.36679 23.0563 5.60583 22.8182C5.84391 22.583 6.03687 22.391 6.17223 22.2566C6.23847 22.1923 6.29031 22.1414 6.32775 22.1049C6.34407 22.0896 6.35847 22.0761 6.36903 22.0665C6.38055 22.0569 6.38535 22.0521 6.38535 22.0531C6.38535 22.0531 6.38151 22.0589 6.37287 22.0685C6.36231 22.079 6.34983 22.0934 6.33447 22.1097C6.29799 22.1472 6.24807 22.2 6.18375 22.2662C6.04935 22.4025 5.85927 22.5974 5.62503 22.8365C5.38791 23.0765 5.10567 23.3625 4.79367 23.6784C4.71495 23.7571 4.63527 23.8387 4.55271 23.9213L4.52199 23.952L4.50663 23.9673C4.49991 23.9741 4.49223 23.9789 4.48455 23.9837C4.45191 24.0009 4.40679 23.9923 4.38279 23.9654C4.34055 23.9232 4.29831 23.8809 4.25511 23.8387C4.16871 23.7533 4.08135 23.6669 3.99303 23.5785C3.94887 23.5344 3.90375 23.4902 3.85863 23.4451C3.83559 23.4211 3.81447 23.4038 3.78951 23.375C3.76455 23.3424 3.76935 23.2915 3.79911 23.2627C4.52487 22.536 5.18151 21.8784 5.65959 21.3993C5.67591 21.384 5.68647 21.3705 5.70663 21.3542C5.72679 21.3408 5.75271 21.3369 5.77575 21.3446C5.79975 21.3513 5.81415 21.3705 5.82759 21.383C5.84103 21.3965 5.85447 21.4109 5.86791 21.4243C5.92167 21.4781 5.97159 21.5289 6.01863 21.576C6.11175 21.671 6.19335 21.7526 6.25959 21.8198C6.29223 21.8534 6.32103 21.8832 6.34695 21.9091C6.37095 21.936 6.39783 21.9542 6.40551 21.9811C6.41319 22.007 6.40551 22.0272 6.39879 22.0377C6.39207 22.0493 6.38535 22.0531 6.38535 22.0531Z" fill="#515151"/>
<path d="M4.03935 23.0737C4.04607 23.066 4.20447 23.2052 4.39167 23.3847C4.57887 23.5642 4.72575 23.7149 4.71807 23.7226C4.71135 23.7303 4.55295 23.5911 4.36575 23.4116C4.17855 23.2321 4.03167 23.0813 4.03935 23.0737Z" fill="#515151"/>
<path d="M4.73752 22.3257C4.7452 22.3181 4.9084 22.4611 5.11096 22.6368C5.31352 22.8125 5.47864 22.9545 5.47192 22.9622C5.4652 22.9699 5.28952 22.8413 5.08696 22.6646C4.88344 22.4889 4.7308 22.3334 4.73752 22.3257Z" fill="#515151"/>
<path d="M6.27921 22.152C6.27153 22.1596 6.11025 22.0204 5.91825 21.8419C5.72625 21.6633 5.57553 21.5116 5.58225 21.504C5.58897 21.4963 5.75121 21.6355 5.94321 21.815C6.13617 21.9936 6.28593 22.1452 6.27921 22.152Z" fill="#515151"/>
<path d="M10.6215 26.2896C10.6215 26.2896 9.98118 26.3587 9.78918 26.3856C9.59718 26.4124 9.33894 26.4652 9.24966 26.6179C9.21318 26.6803 8.65158 27.5011 8.65158 27.5011L8.4375 27.5616L8.78022 28.5043L9.36006 28.2163C9.36006 28.2163 9.55686 27.9955 9.7143 27.7862C9.87174 27.5769 9.91974 27.5011 9.91974 27.5011C9.91974 27.5011 10.4938 27.528 10.61 27.4281C10.6743 27.3734 10.6349 27.2764 10.6349 27.2764L10.009 27.2217C10.009 27.2217 10.6887 27.2198 10.802 27.1449C10.8125 27.1382 10.8212 27.1305 10.8279 27.1238C10.8932 27.0585 10.8423 26.9452 10.7501 26.9443L10.0177 26.9395C10.0177 26.9395 10.8586 26.8627 10.8769 26.7696C10.8797 26.7532 10.8817 26.7379 10.8826 26.7235C10.8865 26.663 10.8375 26.6131 10.777 26.615L10.0906 26.6371C10.0906 26.6371 10.754 26.5305 10.7607 26.4384C10.7741 26.2617 10.6215 26.2896 10.6215 26.2896Z" fill="#EFCDBB"/>
<path d="M6.2832 28.1116C6.45504 27.8495 6.75456 27.6834 7.06752 27.6527C7.09728 27.6498 8.46432 27.5039 8.46432 27.5039L8.88288 28.8114L6.87648 29.3337" fill="#C4C4C4"/>
<path d="M6.87559 29.3337C6.87559 29.3327 6.88807 29.3279 6.91303 29.3203C6.94087 29.3126 6.97831 29.302 7.02343 29.2886C7.12423 29.2607 7.26439 29.2223 7.43911 29.1753C7.79815 29.0803 8.29831 28.9478 8.87623 28.7942L8.86375 28.8172C8.78503 28.5734 8.70055 28.3084 8.61319 28.0358C8.55559 27.8553 8.49991 27.6796 8.44519 27.5107L8.46439 27.5231C8.13223 27.5577 7.82119 27.5903 7.53991 27.6191C7.39975 27.6335 7.26727 27.647 7.14343 27.6595C7.01959 27.67 6.90727 27.6873 6.80935 27.7228C6.61255 27.79 6.47911 27.8975 6.39847 27.9772C6.31783 28.0588 6.28519 28.1135 6.28231 28.1116C6.28135 28.1107 6.28903 28.0972 6.30631 28.0723C6.32263 28.0473 6.35047 28.0118 6.38887 27.9686C6.46759 27.8851 6.60103 27.7718 6.80167 27.7007C6.90055 27.6633 7.01767 27.6431 7.14055 27.6316C7.26439 27.6182 7.39687 27.6028 7.53703 27.5875C7.81831 27.5567 8.12935 27.5231 8.46055 27.4867L8.47495 27.4847L8.47975 27.4991C8.53447 27.6691 8.59015 27.8447 8.64775 28.0243C8.73511 28.2979 8.81959 28.5619 8.89735 28.8067L8.90311 28.8249L8.88487 28.8297C8.30503 28.9775 7.80391 29.1062 7.44391 29.1974C7.26823 29.2406 7.12615 29.2761 7.02535 29.3011C6.97927 29.3116 6.94183 29.3203 6.91303 29.327C6.88903 29.3318 6.87559 29.3347 6.87559 29.3337Z" fill="#9B9B9B"/>
<path d="M13.7731 29.0487C13.7731 29.0487 14.1753 28.9114 14.2819 28.9844C14.3884 29.0573 14.424 29.1745 14.424 29.1745C14.424 29.1745 14.6697 29.1764 14.5958 29.4327C14.5958 29.4327 14.8108 29.4759 14.7465 29.7274C14.7465 29.7274 14.9049 29.7236 14.8291 29.9309C14.7532 30.1393 14.4307 30.554 14.3577 30.6087C14.2041 30.7249 14.1619 30.5405 14.1993 30.4676C14.2368 30.3946 14.448 29.9914 14.448 29.9914C14.448 29.9914 14.0822 30.5674 13.9584 30.4714C13.8883 30.4167 13.9036 30.3322 13.9968 30.1633C14.062 30.0461 14.1801 29.8148 14.1801 29.8148L13.8921 30.17C13.8384 30.2362 13.7299 30.2103 13.7155 30.1258C13.7107 30.0961 13.7136 30.0605 13.7299 30.0183C13.798 29.8426 13.943 29.6305 13.943 29.6305L13.7097 29.8599C13.6569 29.9117 13.5705 29.9069 13.5254 29.8484C13.4976 29.8119 13.4812 29.7658 13.5072 29.714C13.5715 29.5853 13.9276 29.2109 13.9276 29.2109L13.7731 29.0487Z" fill="#EFCDBB"/>
<path d="M6.85339 30.936C6.85339 30.936 6.52027 32.6103 6.85915 33.3399C7.19803 34.0695 8.08795 34.4199 9.01339 34.704C10.2499 35.0832 12.3868 36.2592 12.3868 36.2592C12.3868 36.2592 12.1104 37.4784 11.928 38.208C11.7523 38.9088 11.2627 41.4596 11.2627 41.4596L13.511 41.7696L15.1142 36C15.1142 36 15.5616 34.8154 14.5891 34.2279C13.7558 33.7248 10.8076 31.7348 10.8076 31.7348L10.5792 31.2058L6.85339 30.936Z" fill="#7B7C7C"/>
<path d="M6.89329 32.93L7.31185 33.889L6.74257 38.4442C6.74257 38.4442 6.25489 39.9418 6.14737 40.7319C6.03985 41.522 5.80273 44.7053 5.80273 44.7053H8.00593C8.00593 44.7053 8.34769 40.8317 9.00913 39.6692C9.53041 38.7533 9.88369 37.1588 9.90577 37.0541C9.92689 36.9504 10.6959 34.3978 10.6959 34.3978L9.61969 32.1821L6.89329 32.93Z" fill="#7B7C7C"/>
<path d="M13.1637 35.7254C13.1675 35.736 12.964 35.807 12.7499 35.9578C12.5339 36.1066 12.3967 36.2726 12.388 36.265C12.3842 36.2621 12.4139 36.217 12.4725 36.1517C12.5311 36.0864 12.6194 36.0038 12.7288 35.927C12.8383 35.8512 12.9477 35.7965 13.0283 35.7648C13.109 35.7331 13.1618 35.7216 13.1637 35.7254Z" fill="#606060"/>
<path d="M13.5093 41.7687C13.5093 41.7687 13.4959 41.7677 13.4699 41.7648C13.4421 41.762 13.4037 41.7572 13.3538 41.7504C13.2501 41.737 13.1003 41.7178 12.9074 41.6928C12.5186 41.641 11.956 41.5652 11.2591 41.472L11.2456 41.4701L11.2485 41.4567C11.3752 40.7904 11.5288 39.9975 11.7093 39.1172C11.7544 38.8973 11.8024 38.6708 11.8533 38.4413C11.9071 38.2119 11.9618 37.9767 12.0184 37.7376C12.1307 37.2596 12.2469 36.7642 12.3669 36.2554L12.3765 36.2756C12.2114 36.1853 12.0338 36.0912 11.8543 35.9972C11.3531 35.736 10.8597 35.4912 10.3759 35.2685C9.89201 35.0477 9.41777 34.8471 8.95121 34.7031C8.48369 34.5572 8.04209 34.3978 7.66385 34.177C7.47569 34.0666 7.30385 33.9399 7.16081 33.794C7.01873 33.649 6.90545 33.4848 6.83249 33.313C6.75761 33.1402 6.73361 32.9616 6.71441 32.7965C6.70673 32.713 6.70001 32.6324 6.69809 32.5536C6.69425 32.4749 6.69521 32.3991 6.69617 32.3252C6.70001 32.0304 6.72497 31.778 6.74993 31.5716C6.77489 31.3661 6.80081 31.2068 6.81905 31.0992C6.82865 31.0464 6.83729 31.0061 6.84209 30.9773C6.84785 30.9495 6.85169 30.936 6.85169 30.936C6.85169 30.936 6.84977 30.9504 6.84593 30.9783C6.84113 31.0071 6.83441 31.0474 6.82673 31.1002C6.81041 31.2077 6.78641 31.3671 6.76433 31.5725C6.74225 31.778 6.71921 32.0304 6.71729 32.3242C6.71729 32.3972 6.71633 32.474 6.72113 32.5517C6.72305 32.6304 6.72977 32.7101 6.73841 32.7927C6.75857 32.9568 6.78353 33.1335 6.85745 33.3015C6.92945 33.4695 7.04081 33.6308 7.18193 33.7728C7.32305 33.9159 7.49297 34.0407 7.67921 34.1492C8.05457 34.3671 8.49425 34.5245 8.96081 34.6695C9.43025 34.8135 9.90545 35.0141 10.3903 35.2349C10.8751 35.4576 11.3695 35.7024 11.8706 35.9636C12.0501 36.0576 12.2287 36.1517 12.3938 36.2429L12.4063 36.2496L12.4034 36.2631C12.2834 36.7719 12.1663 37.2682 12.0539 37.7463C11.9973 37.9853 11.9426 38.2196 11.8879 38.449C11.836 38.6784 11.788 38.904 11.7419 39.1239C11.5595 40.0042 11.404 40.7962 11.2735 41.4615L11.2629 41.4461C11.9589 41.545 12.5205 41.6237 12.9093 41.6784C13.1023 41.7063 13.2511 41.7284 13.3547 41.7437C13.4047 41.7514 13.4431 41.7572 13.4699 41.761C13.4968 41.7658 13.5093 41.7687 13.5093 41.7687Z" fill="#606060"/>
<path d="M28.6055 30.8564C28.6055 30.8554 28.6131 30.8554 28.6266 30.8544C28.6419 30.8544 28.6631 30.8535 28.6899 30.8525C28.7475 30.8516 28.8311 30.8506 28.9415 30.8487C29.1632 30.8468 29.4906 30.8448 29.9139 30.842C30.7626 30.8391 31.9962 30.8353 33.5418 30.8295L33.5159 30.8554C33.5139 29.8445 33.512 28.6964 33.5091 27.4368V27.4042H33.5418C35.2429 27.4023 37.1485 27.4004 39.2087 27.3984L39.1703 27.4368C39.1693 26.4269 39.1693 25.3642 39.1683 24.2708V24.2304H39.2087C40.8839 24.2304 42.6599 24.2295 44.4867 24.2295C44.8429 24.2295 45.1981 24.2295 45.5495 24.2295L45.5072 24.2717C45.5072 23.0305 45.5082 21.817 45.5082 20.641V20.5997H45.5495C47.8343 20.6017 49.9837 20.6026 51.9354 20.6045L51.8989 20.641C51.9027 18.3668 51.9056 16.3613 51.9085 14.7044V14.6775H51.9354C53.649 14.6833 55.0112 14.6871 55.9463 14.69C56.4128 14.6929 56.7728 14.6957 57.0167 14.6967C57.1376 14.6986 57.2298 14.6996 57.2931 14.7005C57.3239 14.7015 57.3469 14.7024 57.3632 14.7024C57.3786 14.7034 57.3872 14.7034 57.3872 14.7044C57.3872 14.7053 57.3795 14.7053 57.3632 14.7063C57.3469 14.7063 57.3239 14.7073 57.2931 14.7082C57.2307 14.7092 57.1386 14.7101 57.0167 14.7121C56.7728 14.714 56.4128 14.7159 55.9463 14.7188C55.0112 14.7217 53.649 14.7255 51.9354 14.7313L51.9623 14.7044C51.9652 16.3613 51.968 18.3658 51.9719 20.641V20.6775H51.9354C49.9827 20.6785 47.8343 20.6804 45.5495 20.6823L45.5907 20.641C45.5907 21.818 45.5917 23.0314 45.5917 24.2717V24.314H45.5495C45.1971 24.314 44.8429 24.314 44.4867 24.314C42.6599 24.314 40.8839 24.313 39.2087 24.313L39.249 24.2727C39.248 25.3661 39.248 26.4279 39.2471 27.4388V27.4772H39.2087C37.1495 27.4753 35.2429 27.4724 33.5418 27.4714L33.5744 27.4388C33.5725 28.6993 33.5696 29.8464 33.5677 30.8573V30.8833H33.5418C31.9962 30.8785 30.7626 30.8737 29.9139 30.8708C29.4906 30.8679 29.1632 30.865 28.9415 30.8641C28.8311 30.8621 28.7475 30.8612 28.6899 30.8602C28.6621 30.8592 28.641 30.8593 28.6266 30.8583C28.6122 30.8573 28.6055 30.8564 28.6055 30.8564Z" fill="#888889"/>
<g opacity="0.66">
<path d="M34.1839 11.7025C34.1839 11.7025 32.8475 14.5633 33.8536 17.2321C34.8597 19.9009 38.5538 23.7227 38.9637 23.9252C38.9637 23.9252 38.0162 22.4363 39.7461 22.4488C41.476 22.4612 42.3458 22.0398 42.532 21.4331C42.7183 20.8264 41.692 18.867 42.6357 18.3966C43.5794 17.9262 44.7304 18.0673 45.5023 17.4136C45.5023 17.4136 43.7023 17.2638 42.3736 17.1284C40.9787 16.9864 36.7864 14.066 36.4485 11.9185" fill="#CA515B"/>
<path d="M34.1839 11.7025C34.1839 11.7025 32.8475 14.5633 33.8536 17.2321C34.8597 19.9009 38.5538 23.7227 38.9637 23.9252C38.9637 23.9252 38.0162 22.4363 39.7461 22.4488C41.476 22.4612 42.3458 22.0398 42.532 21.4331C42.7183 20.8264 41.692 18.867 42.6357 18.3966C43.5794 17.9262 44.7304 18.0673 45.5023 17.4136C45.5023 17.4136 43.7023 17.2638 42.3736 17.1284C40.9787 16.9864 36.7864 14.066 36.4485 11.9185" fill="#888889"/>
<path d="M39.0459 16.6331C39.0459 16.634 39.0536 16.6398 39.0699 16.6513C39.0881 16.6638 39.1112 16.6791 39.14 16.6983C39.2005 16.7396 39.2907 16.7972 39.403 16.8654C39.6267 17.0027 39.9435 17.1812 40.3054 17.355C40.6673 17.5278 41.0053 17.6631 41.2529 17.7515C41.3768 17.7956 41.4776 17.8302 41.5477 17.8513C41.5813 17.8619 41.6081 17.8695 41.6283 17.8763C41.6465 17.882 41.6571 17.8839 41.6571 17.8839C41.6571 17.883 41.6475 17.8791 41.6302 17.8724C41.6101 17.8647 41.5832 17.8551 41.5505 17.8436C41.4814 17.8196 41.3816 17.7831 41.2587 17.7371C41.0129 17.6449 40.6769 17.5086 40.315 17.3358C39.9541 17.163 39.6373 16.9863 39.4107 16.8529C39.2974 16.7857 39.2072 16.731 39.1448 16.6916C39.115 16.6734 39.091 16.659 39.0728 16.6475C39.0555 16.6369 39.0459 16.6321 39.0459 16.6331Z" fill="#666668"/>
<path d="M37.9082 18.2199C37.9082 18.2209 37.9178 18.2286 37.937 18.243C37.9581 18.2583 37.986 18.2785 38.0205 18.3044C38.0935 18.3572 38.1991 18.435 38.3287 18.5319C38.5869 18.7259 38.9383 19.0023 39.3088 19.3259C39.6804 19.6503 40.001 19.9604 40.2276 20.1908C40.3408 20.306 40.432 20.4001 40.4944 20.4654C40.5252 20.4971 40.5492 20.522 40.5664 20.5403C40.5828 20.5575 40.5924 20.5662 40.5924 20.5652C40.5933 20.5643 40.5847 20.5547 40.5693 20.5374C40.552 20.5182 40.529 20.4923 40.5002 20.4596C40.4397 20.3924 40.3504 20.2964 40.2381 20.1803C40.0135 19.947 39.6948 19.635 39.3223 19.3095C38.9508 18.9851 38.5975 18.7105 38.3364 18.5195C38.2058 18.4244 38.0992 18.3486 38.0244 18.2977C37.9879 18.2737 37.9591 18.2535 37.938 18.2391C37.9197 18.2257 37.9092 18.219 37.9082 18.2199Z" fill="#666668"/>
<path d="M38.0626 18.6895C38.0617 18.6904 38.0665 18.6952 38.0751 18.7048C38.0857 18.7163 38.0991 18.7307 38.1145 18.7471C38.149 18.7835 38.1999 18.8354 38.2633 18.8978C38.3909 19.0235 38.5705 19.1935 38.7778 19.3711C38.9852 19.5487 39.1801 19.7013 39.3241 19.8079C39.3961 19.8616 39.4546 19.9039 39.4959 19.9317C39.5151 19.9442 39.5305 19.9547 39.5439 19.9643C39.5554 19.9711 39.5612 19.9749 39.5612 19.9739C39.5612 19.973 39.5564 19.9682 39.5458 19.9605C39.5333 19.9509 39.5189 19.9394 39.5007 19.925C39.4585 19.8923 39.4018 19.8482 39.3327 19.7954C39.1916 19.6859 38.9986 19.5314 38.7913 19.3538C38.5839 19.1762 38.4025 19.0091 38.2729 18.8863C38.2105 18.8267 38.1586 18.7768 38.1193 18.7403C38.1029 18.725 38.0885 18.7115 38.077 18.701C38.0693 18.6933 38.0636 18.6885 38.0626 18.6895Z" fill="#666668"/>
<path d="M38.2879 25.4496L38.5039 26.424L38.8965 27.1459C38.9243 27.1977 38.9032 27.263 38.8495 27.288C38.8197 27.3014 38.7842 27.3005 38.7563 27.2841C38.5739 27.1785 37.9029 26.7869 37.8914 26.7149C37.8779 26.6313 37.5957 25.7021 37.5957 25.7021L38.2879 25.4496Z" fill="#888889"/>
<path d="M37.8584 26.6169C37.8575 26.6179 37.8709 26.6284 37.8959 26.6457C37.9247 26.6649 37.9602 26.6889 38.0015 26.7177C38.0956 26.7801 38.2165 26.8617 38.3519 26.9519C38.4863 27.0422 38.6072 27.1238 38.7013 27.1871C38.7436 27.215 38.7791 27.238 38.8079 27.2572C38.8328 27.2735 38.8482 27.2822 38.8482 27.2803C38.8492 27.2793 38.8367 27.2678 38.8127 27.2495C38.7887 27.2313 38.7541 27.2054 38.71 27.1737C38.6226 27.1103 38.5007 27.0249 38.3634 26.9337C38.2271 26.8425 38.1013 26.7619 38.0101 26.7052C37.964 26.6764 37.9266 26.6543 37.9007 26.639C37.8738 26.6236 37.8594 26.6159 37.8584 26.6169Z" fill="#4D5A64"/>
<path d="M33.9652 25.681L34.0237 26.4595C34.0237 26.4595 33.2519 26.7802 33.248 26.9251H34.7648L34.7216 25.6493L33.9652 25.681Z" fill="#888889"/>
<path d="M33.2949 26.8742C33.2949 26.8762 33.316 26.8762 33.3535 26.8752C33.3948 26.8743 33.4485 26.8723 33.5119 26.8704C33.6453 26.8656 33.8296 26.8608 34.0341 26.8579C34.2376 26.855 34.4229 26.856 34.5564 26.856C34.6197 26.856 34.6735 26.856 34.7148 26.856C34.7522 26.856 34.7733 26.855 34.7733 26.8531C34.7733 26.8512 34.7532 26.8493 34.7157 26.8474C34.6783 26.8445 34.6245 26.8426 34.5573 26.8397C34.4239 26.8349 34.2386 26.832 34.0351 26.8349C33.8306 26.8378 33.6463 26.8455 33.5128 26.8541C33.4456 26.8579 33.3919 26.8627 33.3544 26.8656C33.316 26.8704 33.2949 26.8723 33.2949 26.8742Z" fill="#4D5A64"/>
<path d="M37.3588 17.8407L38.697 26.1053L37.4682 26.1802L35.5703 17.8407H37.3588Z" fill="#C4C4C4"/>
<path d="M35.5485 17.4807L34.9312 26.1802H33.7744V16.968L35.5485 17.4807Z" fill="#C4C4C4"/>
<path d="M34.1927 25.6359C34.1984 25.6359 34.2925 23.9136 34.401 21.7882C34.5104 19.6618 34.5939 17.9396 34.5872 17.9386C34.5815 17.9386 34.4874 19.6608 34.3789 21.7872C34.2704 23.9117 34.1869 25.6359 34.1927 25.6359Z" fill="#888889"/>
<path d="M33.7738 25.6359C33.7738 25.6359 33.7738 25.6359 33.7729 25.6359C33.7729 25.6359 33.7719 25.6359 33.7729 25.6378C33.7738 25.6387 33.7738 25.6387 33.7748 25.6387C33.7767 25.6397 33.7796 25.6407 33.7834 25.6416C33.7911 25.6435 33.8026 25.6455 33.818 25.6483C33.8478 25.6531 33.891 25.6589 33.9447 25.6656C34.0522 25.6791 34.201 25.6944 34.3652 25.7088C34.6935 25.7386 34.9623 25.7511 34.9623 25.7357C34.9623 25.7347 34.9585 25.7357 34.9498 25.7357C34.9393 25.7347 34.9278 25.7347 34.9153 25.7338C34.8807 25.7309 34.8375 25.728 34.7876 25.7242C34.6743 25.7146 34.5284 25.7011 34.3671 25.6877C34.2058 25.6733 34.059 25.6608 33.9466 25.6503C33.8391 25.6397 33.769 25.6349 33.7738 25.6359Z" fill="#888889"/>
<path d="M36.6299 18.0355C36.6299 18.0355 36.6299 18.0422 36.6318 18.0547C36.6337 18.0682 36.6366 18.0874 36.6395 18.1114C36.6472 18.1622 36.6587 18.2352 36.6731 18.3293C36.7019 18.5184 36.746 18.793 36.8017 19.1309C36.9131 19.8067 37.0763 20.7398 37.2731 21.767C37.4708 22.7942 37.6657 23.7216 37.8116 24.3907C37.8846 24.7258 37.946 24.9965 37.9892 25.1827C38.0104 25.2749 38.0276 25.3478 38.0392 25.3978C38.0449 25.4218 38.0497 25.44 38.0526 25.4534C38.0555 25.4659 38.0584 25.4726 38.0584 25.4726C38.0584 25.4726 38.0574 25.4659 38.0555 25.4534C38.0526 25.44 38.0488 25.4208 38.044 25.3968C38.0334 25.3469 38.018 25.2739 37.9979 25.1808C37.9576 24.9926 37.899 24.7219 37.827 24.3869C37.684 23.7168 37.492 22.7894 37.2942 21.7622C37.0974 20.735 36.9323 19.8029 36.8171 19.127C36.7595 18.7901 36.7134 18.5165 36.6817 18.3264C36.6654 18.2323 36.6529 18.1594 36.6443 18.1085C36.6395 18.0845 36.6366 18.0653 36.6337 18.0518C36.6318 18.0413 36.6299 18.0355 36.6299 18.0355Z" fill="#888889"/>
<path d="M37.3447 25.6359C37.3447 25.6378 37.363 25.6378 37.3946 25.6378C37.4311 25.6369 37.4772 25.6359 37.531 25.6349C37.651 25.6301 37.8065 25.6244 37.9793 25.6167C38.1521 25.609 38.3076 25.6013 38.4276 25.5956C38.4814 25.5927 38.5265 25.5908 38.563 25.5889C38.5946 25.5869 38.6119 25.5879 38.6129 25.586C38.6138 25.5821 38.5418 25.5773 38.4266 25.5802C38.3114 25.5821 38.153 25.5869 37.9774 25.5946C37.8026 25.6023 37.6433 25.6109 37.529 25.6186C37.4714 25.6225 37.4254 25.6263 37.3937 25.6292C37.362 25.6321 37.3447 25.634 37.3447 25.6359Z" fill="#888889"/>
<g opacity="0.3">
<path d="M37.4246 18.2428L37.3978 18.0787L35.6035 17.9769L35.6707 18.2764L37.4246 18.2428Z" fill="black"/>
</g>
<g opacity="0.3">
<path d="M35.4976 18.2765L35.5485 17.976L33.7744 17.8877L33.7754 18.313L35.4976 18.2765Z" fill="black"/>
</g>
<path d="M37.2432 11.7303L35.9904 11.4519L34.9383 11.4951L34.0205 11.7869L34.5427 14.4049L36.5405 14.5815L37.2432 11.7303Z" fill="#888889"/>
<path d="M36.1818 11.4951L37.4998 11.787L36.8413 15.3169C36.8413 15.3169 37.4298 16.7492 37.4998 18.0798L35.5491 17.977C35.5491 17.977 35.4147 16.2231 35.4608 15.5473C35.5069 14.8724 35.5376 13.6906 35.5376 13.6906L36.1818 11.4951Z" fill="#C4C4C4"/>
<path d="M39.9494 13.5198C39.9494 13.5198 39.5021 13.0657 39.0355 12.8228C38.6918 12.6433 38.0179 12.4177 37.7501 12.1278C37.5782 11.9415 37.4986 11.787 37.4986 11.787L37.1885 13.4497L38.5114 13.659C38.5114 13.659 38.3146 13.7665 38.4374 13.8433L37.609 14.8139L38.1763 15.8843C38.1763 15.8843 40.0262 14.2878 39.9494 13.5198Z" fill="#C4C4C4"/>
<path d="M34.9382 11.4951C34.9382 11.4951 34.6607 11.5287 34.4649 11.593C34.1846 11.6862 33.7103 11.786 33.7103 11.786L34.3852 15.362C34.3852 15.362 33.4694 16.4938 33.7103 17.8791C33.7103 17.8791 34.9756 17.979 35.5478 17.9761L35.5554 13.6254C35.5554 13.6254 35.0764 13.0148 35.015 12.4167C34.9535 11.8177 34.9382 11.4951 34.9382 11.4951Z" fill="#C4C4C4"/>
<path d="M33.7107 11.787C33.7107 11.787 32.9561 12.5694 32.5404 12.8641C32.1248 13.1588 31.6016 13.6014 31.6016 13.8356C31.6016 13.9739 31.6505 14.1467 31.6908 14.2657C31.7206 14.3531 31.7638 14.4337 31.8185 14.5076C32.0086 14.7611 32.5145 15.4196 32.8486 15.7326L33.6886 14.8455L32.8889 13.9623C32.8889 13.9623 33.9622 13.5198 34.016 13.3988C34.0678 13.2788 33.7107 11.787 33.7107 11.787Z" fill="#C4C4C4"/>
<path d="M35.5646 14.0967C35.5646 14.0967 35.5713 14.0909 35.5838 14.0794C35.5972 14.0659 35.6145 14.0487 35.6366 14.0266C35.6836 13.9786 35.7489 13.9114 35.8305 13.8269C35.9956 13.6541 36.2241 13.416 36.4852 13.1424L36.489 13.1386L36.4881 13.1328C36.4602 13.0167 36.4314 12.8947 36.4017 12.769C36.3882 12.7143 36.3758 12.6615 36.3633 12.6087L36.3527 12.6221C36.4986 12.6221 36.6388 12.6221 36.7703 12.6211H36.7847L36.7799 12.6077C36.6782 12.2995 36.5908 12.0346 36.5284 11.8455C36.4977 11.7533 36.4727 11.6794 36.4545 11.6266C36.4458 11.6026 36.4391 11.5834 36.4343 11.569C36.4295 11.5555 36.4266 11.5488 36.4257 11.5498C36.4247 11.5498 36.4266 11.5575 36.4305 11.5709C36.4353 11.5863 36.441 11.6055 36.4478 11.6295C36.4641 11.6832 36.4871 11.7571 36.5159 11.8503C36.5764 12.0403 36.6609 12.3053 36.7598 12.6154L36.7694 12.6019C36.6378 12.6019 36.4977 12.6019 36.3518 12.601H36.3383L36.3412 12.6144C36.3537 12.6672 36.3662 12.721 36.3796 12.7747C36.4094 12.9005 36.4391 13.0224 36.467 13.1386L36.4698 13.129C36.2106 13.4045 35.9841 13.6455 35.8209 13.8192C35.7412 13.9047 35.6778 13.9738 35.6318 14.0227C35.6106 14.0458 35.5943 14.064 35.5818 14.0784C35.5694 14.089 35.5636 14.0957 35.5646 14.0967Z" fill="#888889"/>
<path d="M35.5478 17.9761C35.5536 17.9761 35.5622 16.995 35.5661 15.7844C35.5699 14.5739 35.568 13.5918 35.5622 13.5918C35.5565 13.5918 35.5478 14.5729 35.544 15.7844C35.5402 16.994 35.5421 17.9761 35.5478 17.9761Z" fill="#888889"/>
<path d="M34.7357 11.5267C34.7348 11.5267 34.7328 11.5344 34.73 11.5507C34.7271 11.568 34.7223 11.5911 34.7175 11.6199C34.7069 11.6823 34.6925 11.7696 34.6743 11.8781C34.6388 12.0999 34.5888 12.4071 34.5322 12.7594L34.5303 12.7738L34.5447 12.7719C34.6196 12.7623 34.6973 12.7517 34.777 12.7402L34.7655 12.7248C34.7501 12.7555 34.7338 12.7882 34.7175 12.8218C34.6858 12.8871 34.6541 12.9514 34.6234 13.0128L34.6205 13.0186L34.6244 13.0243C34.8672 13.3277 35.0823 13.5965 35.2378 13.7914C35.3146 13.8864 35.377 13.9623 35.4212 14.017C35.4423 14.0419 35.4586 14.0621 35.4711 14.0775C35.4826 14.0909 35.4893 14.0976 35.4893 14.0976C35.4903 14.0976 35.4845 14.089 35.474 14.0746C35.4615 14.0583 35.4461 14.0381 35.4269 14.0122C35.3837 13.9565 35.3232 13.8787 35.2484 13.7818C35.0938 13.5859 34.8816 13.3162 34.6407 13.0109L34.6416 13.0224C34.6714 12.961 34.7031 12.8967 34.7357 12.8314C34.752 12.7978 34.7684 12.7651 34.7837 12.7344L34.7924 12.7162L34.7722 12.7191C34.6925 12.7296 34.6138 12.7402 34.5399 12.7507L34.5524 12.7632C34.6061 12.4109 34.6532 12.1027 34.6868 11.881C34.7021 11.7725 34.7146 11.6851 34.7242 11.6218C34.728 11.593 34.7309 11.5699 34.7328 11.5527C34.7357 11.5354 34.7367 11.5267 34.7357 11.5267Z" fill="#888889"/>
<path d="M35.7311 16.5533C35.7753 16.4986 35.8626 16.4669 35.9049 16.5236L35.9029 16.5226C35.9442 16.5581 35.9634 16.6196 35.9433 16.6704C35.9173 16.7357 35.829 16.7684 35.7676 16.7348C35.7061 16.7012 35.6869 16.608 35.7311 16.5533Z" fill="#888889"/>
<path d="M35.7077 15.4167C35.7518 15.362 35.8392 15.3303 35.8814 15.387L35.8795 15.386C35.9208 15.4215 35.94 15.483 35.9198 15.5338C35.8939 15.5991 35.8056 15.6318 35.7441 15.5982C35.6827 15.5646 35.6635 15.4714 35.7077 15.4167Z" fill="#888889"/>
<path d="M32.7008 15.3236C32.745 15.2689 32.8323 15.2372 32.8746 15.2938L32.8727 15.2929C32.9139 15.3284 32.9331 15.3898 32.913 15.4407C32.8871 15.506 32.7987 15.5386 32.7373 15.505C32.6759 15.4714 32.6567 15.3783 32.7008 15.3236Z" fill="#888889"/>
<path d="M38.1839 15.4282C38.2281 15.3735 38.3154 15.3418 38.3577 15.3984L38.3558 15.3975C38.397 15.433 38.4162 15.4944 38.3961 15.5453C38.3702 15.6106 38.2818 15.6432 38.2204 15.6096C38.158 15.577 38.1388 15.4829 38.1839 15.4282Z" fill="#888889"/>
<path d="M38.4238 13.8586C38.4267 13.8653 38.564 13.7799 38.757 13.7645C38.9499 13.7463 39.0997 13.8077 39.1016 13.8001C39.1026 13.7981 39.067 13.7799 39.0046 13.7636C38.9432 13.7473 38.853 13.7348 38.755 13.7434C38.6571 13.7521 38.5707 13.7799 38.5131 13.8068C38.4546 13.8327 38.4229 13.8567 38.4238 13.8586Z" fill="#888889"/>
<path d="M39.1008 13.659C39.1018 13.6571 39.0701 13.6398 39.0154 13.6225C38.9607 13.6052 38.881 13.5908 38.7936 13.5908C38.7053 13.5918 38.6266 13.6081 38.5719 13.6263C38.5171 13.6446 38.4855 13.6619 38.4874 13.6638C38.4893 13.6705 38.6208 13.6129 38.7946 13.6129C38.9664 13.611 39.0989 13.6657 39.1008 13.659Z" fill="#888889"/>
<path d="M37.1486 13.6637C37.1505 13.6637 37.1563 13.6387 37.1669 13.5936C37.1784 13.5446 37.1928 13.4794 37.2101 13.4006C37.2494 13.2346 37.3022 13.0118 37.3608 12.7661C37.4193 12.5184 37.4664 12.2918 37.4923 12.1267C37.5057 12.0442 37.5153 11.977 37.5192 11.9309C37.524 11.8848 37.5259 11.8589 37.5249 11.8589C37.523 11.8589 37.5182 11.8838 37.5105 11.9299C37.5029 11.976 37.4913 12.0422 37.476 12.1248C37.4462 12.289 37.3973 12.5136 37.3377 12.7622C37.2792 13.0099 37.2264 13.2346 37.1928 13.3987C37.1765 13.4803 37.163 13.5466 37.1563 13.5936C37.1505 13.6378 37.1477 13.6637 37.1486 13.6637Z" fill="#888889"/>
<path d="M33.7563 11.8676C33.7544 11.8676 33.7583 11.8944 33.7659 11.9415C33.7746 11.9924 33.7851 12.0596 33.7986 12.1421C33.8264 12.3149 33.8648 12.5463 33.9071 12.8026C33.9493 13.0608 33.9896 13.2941 34.0213 13.4631C34.0376 13.5476 34.0501 13.6157 34.0607 13.6628C34.0703 13.7098 34.077 13.7357 34.0779 13.7348C34.0799 13.7348 34.076 13.7079 34.0683 13.6608C34.0597 13.61 34.0491 13.5428 34.0357 13.4602C34.0079 13.2874 33.9695 13.056 33.9272 12.7988C33.885 12.5405 33.8447 12.3072 33.813 12.1383C33.7967 12.0538 33.7842 11.9856 33.7736 11.9386C33.764 11.8935 33.7583 11.8676 33.7563 11.8676Z" fill="#888889"/>
<path d="M32.3203 13.5274C32.3203 13.5312 32.3674 13.5264 32.4413 13.5312C32.5142 13.536 32.6218 13.5504 32.7062 13.6253C32.7907 13.6992 32.8282 13.8 32.855 13.8682C32.88 13.9383 32.8944 13.9834 32.8973 13.9824C32.9002 13.9815 32.8915 13.9364 32.8694 13.8634C32.8464 13.7933 32.8109 13.6887 32.7206 13.609C32.6765 13.5696 32.6237 13.5456 32.5747 13.5331C32.5258 13.5197 32.4797 13.5168 32.4422 13.5159C32.4038 13.5159 32.3741 13.5187 32.353 13.5207C32.3318 13.5226 32.3203 13.5255 32.3203 13.5274Z" fill="#888889"/>
<path d="M32.1201 13.7232C32.1201 13.727 32.1662 13.7242 32.2411 13.728C32.315 13.7318 32.4168 13.7472 32.5243 13.7827C32.6318 13.8182 32.722 13.8682 32.7835 13.9085C32.8459 13.9488 32.8804 13.9795 32.8833 13.9766C32.8843 13.9757 32.8766 13.967 32.8612 13.9526C32.8459 13.9382 32.8228 13.9181 32.7921 13.896C32.7316 13.8509 32.6404 13.799 32.531 13.7616C32.4216 13.7251 32.3169 13.7126 32.242 13.7126C32.2046 13.7126 32.1739 13.7136 32.1528 13.7165C32.1316 13.7203 32.1201 13.7222 32.1201 13.7232Z" fill="#888889"/>
<path d="M36.5245 15.4167C36.5273 15.4225 36.5888 15.3956 36.6665 15.3668C36.7443 15.338 36.8077 15.3169 36.8067 15.3111C36.8057 15.3054 36.7376 15.3169 36.6589 15.3466C36.5801 15.3764 36.5225 15.4119 36.5245 15.4167Z" fill="#888889"/>
<path d="M36.4708 14.9933C36.467 14.9991 36.5658 15.0663 36.6762 15.1623C36.7876 15.2573 36.8683 15.3447 36.8731 15.3408C36.8779 15.337 36.803 15.2429 36.6897 15.1459C36.5793 15.049 36.4737 14.9885 36.4708 14.9933Z" fill="#888889"/>
<path d="M33.7109 17.8791C33.7109 17.8849 34.5586 17.9348 35.6041 17.9895C36.6505 18.0442 37.4981 18.0845 37.4991 18.0788C37.4991 18.073 36.6514 18.0231 35.605 17.9684C34.5596 17.9127 33.7109 17.8733 33.7109 17.8791Z" fill="#888889"/>
<g opacity="0.3">
<path d="M32.9296 13.9383C32.9853 13.7771 32.922 13.5831 32.7818 13.4862C32.752 13.466 32.7156 13.4487 32.68 13.4555C32.6445 13.4622 32.6138 13.5015 32.6272 13.5351C32.6368 13.5563 32.6589 13.5678 32.6791 13.5803C32.7444 13.6215 32.7895 13.6887 32.8173 13.7598C32.8452 13.8318 32.8576 13.9076 32.8701 13.9835" fill="black"/>
</g>
<g opacity="0.3">
<path d="M36.7683 12.6107C36.7606 12.6328 36.6099 12.65 36.5811 12.7124C36.5523 12.7748 36.5628 12.8478 36.5792 12.914C36.5955 12.9803 36.6166 13.0475 36.6099 13.1156C36.5974 13.2376 36.4966 13.3297 36.4035 13.4094C36.1424 13.6321 35.8246 13.8731 35.5635 14.0958C35.7977 13.8184 36.1001 13.5342 36.3574 13.2779C36.3958 13.2404 36.4352 13.2001 36.4524 13.1502C36.4745 13.0868 36.4572 13.0168 36.4409 12.9515C36.4188 12.8651 36.3968 12.7787 36.3747 12.6923C36.3689 12.6702 36.3564 12.6328 36.3536 12.6203C36.3536 12.6203 36.4236 12.6088 36.4476 12.6126C36.4476 12.6136 36.6713 12.5972 36.7683 12.6107Z" fill="black"/>
</g>
<path d="M38.2179 15.529C38.2189 15.5281 38.2141 15.5165 38.2045 15.4945C38.1949 15.4724 38.1795 15.4417 38.1584 15.4052C38.1181 15.3303 38.0557 15.2305 37.9779 15.1258C37.8992 15.0221 37.8205 14.9348 37.76 14.8743C37.7302 14.8445 37.7043 14.8205 37.6861 14.8052C37.6678 14.7898 37.6573 14.7812 37.6563 14.7831C37.6544 14.786 37.6909 14.8234 37.7485 14.8849C37.8061 14.9473 37.8829 15.0356 37.9597 15.1383C38.0374 15.241 38.1008 15.3399 38.145 15.4119C38.1901 15.4849 38.215 15.5309 38.2179 15.529Z" fill="#888889"/>
<path d="M37.9064 14.4865C37.9035 14.4894 37.9525 14.5355 38.0245 14.6171C38.0965 14.6977 38.1915 14.8148 38.2808 14.954C38.3701 15.0942 38.4353 15.2286 38.4785 15.3284C38.5217 15.4283 38.5429 15.4916 38.5467 15.4907C38.5477 15.4907 38.5438 15.4734 38.5352 15.4446C38.5265 15.4148 38.5121 15.3736 38.4929 15.3227C38.4536 15.2209 38.3893 15.0836 38.3 14.9425C38.2097 14.8014 38.1128 14.6852 38.0369 14.6065C37.9995 14.5672 37.9669 14.5364 37.9438 14.5163C37.9198 14.4961 37.9073 14.4856 37.9064 14.4865Z" fill="#888889"/>
<path d="M32.4796 15.337C32.4805 15.338 32.493 15.3255 32.5132 15.3025C32.5372 15.2766 32.566 15.2439 32.6005 15.2055C32.6744 15.1239 32.7791 15.0135 32.8981 14.8945C33.0172 14.7754 33.1276 14.6718 33.2092 14.5978C33.2476 14.5633 33.2802 14.5345 33.3061 14.5105C33.3292 14.4903 33.3416 14.4778 33.3407 14.4769C33.3397 14.4759 33.3253 14.4855 33.3013 14.5038C33.2764 14.522 33.2418 14.5498 33.1996 14.5863C33.1151 14.6574 33.0018 14.7601 32.8828 14.8791C32.7637 14.9982 32.66 15.1105 32.589 15.195C32.5535 15.2372 32.5256 15.2718 32.5064 15.2967C32.4882 15.3226 32.4786 15.3361 32.4796 15.337Z" fill="#888889"/>
<path d="M37.7259 15.0355L37.4504 15.1843L36.8389 15.3581C36.8389 15.3581 36.9665 16.1952 37.0453 16.2662C37.124 16.3373 38.0187 15.5856 38.0187 15.5856L37.7259 15.0355Z" fill="#DBDCDD"/>
<path d="M33.5561 14.9847L33.7548 15.1393L34.3289 15.4129C34.3289 15.4129 34.063 16.2164 33.9737 16.274C33.8844 16.3316 33.1279 15.4407 33.1279 15.4407L33.5561 14.9847Z" fill="#DBDCDD"/>
<path d="M36.3816 8.94531C36.3893 9.16035 36.6763 9.29091 36.6725 9.50691C36.6705 9.59907 36.6139 9.68259 36.6024 9.77379C36.587 9.89763 36.6561 10.0138 36.6821 10.1357C36.7349 10.3863 36.5889 10.6512 36.372 10.7885C36.156 10.9258 35.8843 10.9517 35.6309 10.9172" fill="#888889"/>
<path d="M34.6478 8.89258C34.6565 9.00778 34.5797 9.11146 34.5029 9.19786C34.4261 9.28426 34.3406 9.37546 34.3234 9.4897C34.2936 9.69322 34.4933 9.88138 34.452 10.083C34.4299 10.1905 34.3416 10.2779 34.3262 10.3863C34.3109 10.4919 34.3675 10.5947 34.4376 10.6753C34.5077 10.7559 34.5883 10.7435 34.6507 10.8308C34.716 10.922 34.8206 11.0161 34.9195 11.0699C35.1422 11.1918 35.4101 11.0151 35.5176 10.9835" fill="#888889"/>
<path d="M36.4249 9.06918C36.4278 8.96454 36.3309 8.88294 36.2329 8.84454C36.135 8.80614 36.0265 8.79174 35.9401 8.73318C35.8633 8.68134 35.8115 8.6007 35.7462 8.53446C35.5859 8.37222 35.3363 8.30502 35.1165 8.36454C34.8966 8.42406 34.7152 8.60934 34.6605 8.83014C34.623 8.9799 34.6489 9.15558 34.7661 9.25542C34.9024 9.37062 35.1049 9.3447 35.2806 9.30918C35.4553 9.27366 35.6541 9.23814 35.8 9.34086C35.8883 9.40326 35.9382 9.50406 35.9929 9.59718C36.0467 9.6903 36.1149 9.78534 36.2166 9.82086C36.3184 9.85638 36.4566 9.79494 36.4605 9.68742" fill="#888889"/>
<path d="M36.0105 9.09131C36.1008 9.10091 36.1689 9.17867 36.167 9.26987L36.0624 11.6391C36.0576 11.9195 35.6486 12.076 35.3491 12.0692C35.0467 12.0625 35.0371 11.9137 35.0333 11.6478C35.0265 11.2033 35.0275 11.0363 35.0275 11.0382C35.0275 11.0382 34.6454 10.9739 34.5667 10.4747C34.5283 10.226 34.5408 9.81995 34.5629 9.48683C34.5821 9.18731 34.7817 8.82059 35.0793 8.85323L36.0105 9.09131Z" fill="#DBDCDD"/>
<path d="M34.7217 9.77193C34.7207 9.80553 34.7476 9.83433 34.7831 9.83625C34.8187 9.83817 34.8484 9.81225 34.8494 9.77865C34.8503 9.74505 34.8235 9.71625 34.7879 9.71433C34.7534 9.71241 34.7236 9.73833 34.7217 9.77193Z" fill="#888889"/>
<path d="M34.6514 9.69893C34.6591 9.70757 34.7081 9.67109 34.7772 9.67205C34.8463 9.67109 34.8962 9.70661 34.9039 9.69893C34.9077 9.69509 34.8991 9.67973 34.878 9.66437C34.8559 9.64805 34.8194 9.63269 34.7762 9.63269C34.733 9.63269 34.6975 9.64901 34.6764 9.66437C34.6543 9.67973 34.6476 9.69509 34.6514 9.69893Z" fill="#888889"/>
<path d="M35.3897 9.77193C35.3887 9.80553 35.4156 9.83433 35.4511 9.83625C35.4866 9.83817 35.5164 9.81225 35.5174 9.77865C35.5183 9.74505 35.4914 9.71625 35.4559 9.71433C35.4204 9.71241 35.3906 9.73833 35.3897 9.77193Z" fill="#888889"/>
<path d="M35.3282 9.71333C35.3358 9.72197 35.3848 9.6855 35.4539 9.68646C35.523 9.6855 35.573 9.72101 35.5806 9.71333C35.5845 9.70949 35.5768 9.69413 35.5547 9.67877C35.5326 9.66245 35.4962 9.64709 35.453 9.64709C35.4098 9.64709 35.3742 9.66341 35.3531 9.67877C35.331 9.69413 35.3243 9.70949 35.3282 9.71333Z" fill="#888889"/>
<path d="M35.0763 10.2232C35.0763 10.2194 35.034 10.2117 34.9649 10.203C34.9476 10.2011 34.9304 10.1973 34.9275 10.1858C34.9236 10.1733 34.9304 10.1541 34.939 10.1339C34.9553 10.0917 34.9726 10.0466 34.9908 10.0005C35.0638 9.8104 35.1156 9.65392 35.108 9.65104C35.1003 9.64816 35.035 9.79984 34.963 9.99088C34.9457 10.0379 34.9284 10.083 34.9131 10.1253C34.9064 10.1454 34.8948 10.1675 34.9035 10.1944C34.9083 10.2078 34.9208 10.2174 34.9323 10.2203C34.9438 10.2242 34.9534 10.2242 34.962 10.2242C35.0331 10.227 35.0763 10.227 35.0763 10.2232Z" fill="#888889"/>
<path d="M35.0273 11.0382C35.0273 11.0382 35.3633 11.0603 35.6955 10.8616C35.6897 10.8625 35.5112 11.2081 35.0331 11.1563L35.0273 11.0382Z" fill="#BBBBBC"/>
<path d="M35.1055 10.3892C35.1304 10.3566 35.1736 10.3384 35.2168 10.3432C35.2466 10.346 35.2773 10.3604 35.2946 10.3854C35.3128 10.4094 35.3167 10.444 35.2994 10.467C35.2811 10.4929 35.2418 10.4987 35.2091 10.49C35.1765 10.4804 35.1477 10.4593 35.1208 10.4372C35.1131 10.4315 35.1055 10.4248 35.1016 10.4171C35.0968 10.4084 35.0959 10.3979 35.1016 10.3912" fill="#BABABA"/>
<path d="M35.2794 10.2711C35.2679 10.2702 35.2679 10.345 35.2036 10.3978C35.1393 10.4506 35.0596 10.442 35.0596 10.4526C35.0586 10.4574 35.0769 10.467 35.1105 10.4679C35.1431 10.4689 35.1921 10.4583 35.2305 10.4266C35.2698 10.394 35.2862 10.3508 35.289 10.3201C35.2929 10.2894 35.2852 10.2711 35.2794 10.2711Z" fill="#888889"/>
<path d="M35.2972 9.59239C35.304 9.61159 35.3731 9.60199 35.4537 9.61255C35.5344 9.62119 35.5996 9.64423 35.6102 9.62791C35.615 9.62023 35.6035 9.60199 35.5776 9.58375C35.5516 9.56551 35.5104 9.54823 35.4614 9.54247C35.4134 9.53671 35.3683 9.54439 35.3395 9.55687C35.3088 9.56935 35.2944 9.58375 35.2972 9.59239Z" fill="#888889"/>
<path d="M34.6768 9.50029C34.6893 9.51565 34.7363 9.50029 34.793 9.49933C34.8496 9.49645 34.8986 9.50989 34.9091 9.49357C34.9139 9.48589 34.9062 9.46957 34.8851 9.45517C34.864 9.44077 34.8294 9.42829 34.7901 9.42925C34.7507 9.43021 34.7171 9.44461 34.697 9.46093C34.6778 9.47629 34.671 9.49261 34.6768 9.50029Z" fill="#888889"/>
<path d="M36.2225 10.7597C36.0852 10.7875 36.0727 10.7174 35.971 10.6224C35.8683 10.5274 35.8155 10.3814 35.8327 10.2422C35.8481 10.1194 35.9143 9.99553 35.8721 9.87937C35.8155 9.72577 35.6014 9.67873 35.5438 9.52609C35.5102 9.43681 35.5399 9.33313 35.5025 9.24577C35.467 9.16417 35.3806 9.11617 35.2971 9.08641C35.2135 9.05569 35.1233 9.03553 35.0523 8.98081C34.9822 8.92609 34.938 8.82241 34.9831 8.74561C35.3556 8.78977 35.7223 8.87905 36.0737 9.01057C36.1553 9.04129 36.2407 9.07777 36.2887 9.14977C36.3396 9.22657 36.3377 9.32545 36.3329 9.41761C36.3118 9.86593 36.2907 10.3133 36.2705 10.7616" fill="#888889"/>
<path d="M36.5361 9.74215C36.5514 9.57799 36.6858 9.43207 36.8481 9.40231C37.0103 9.37255 37.1879 9.46183 37.2609 9.60967C37.33 9.75079 37.306 9.92167 37.2417 10.0647C37.1649 10.2346 37.0074 10.3902 36.8212 10.3815C36.6455 10.3738 36.5044 10.2193 36.4545 10.0513C36.4036 9.88327 36.4247 9.70279 36.4449 9.52903" fill="#888889"/>
<path d="M36.6342 10.4257C36.6351 10.4267 36.6467 10.418 36.6601 10.3969C36.6745 10.3758 36.6908 10.3422 36.6975 10.2971C36.7052 10.2519 36.7033 10.1982 36.6927 10.1396C36.6822 10.0811 36.663 10.0196 36.6486 9.95434C36.6342 9.88906 36.6274 9.82569 36.638 9.77001C36.6486 9.71433 36.6745 9.6673 36.686 9.62314C36.6985 9.57898 36.6966 9.54058 36.6889 9.51658C36.6812 9.49162 36.6707 9.48202 36.6697 9.48298C36.6678 9.48394 36.6764 9.49546 36.6812 9.51946C36.686 9.5425 36.6851 9.57897 36.6716 9.61929C36.6591 9.66057 36.6313 9.70666 36.6188 9.76618C36.6063 9.8257 36.613 9.8929 36.6284 9.95914C36.6428 10.0254 36.6639 10.0868 36.6745 10.1435C36.686 10.2001 36.6889 10.2519 36.6831 10.2951C36.6726 10.3815 36.6294 10.4228 36.6342 10.4257Z" fill="#666668"/>
<path d="M36.6407 9.82661C36.6388 9.82757 36.6628 9.86213 36.7175 9.90149C36.7713 9.93989 36.8596 9.98021 36.9623 9.98213C37.066 9.98405 37.1553 9.94757 37.21 9.91013C37.2657 9.87269 37.2907 9.83909 37.2887 9.83813C37.2859 9.83525 37.258 9.86501 37.2014 9.89669C37.1457 9.92933 37.0603 9.96101 36.9623 9.96005C36.8644 9.95813 36.779 9.92261 36.7252 9.88901C36.6715 9.85349 36.6436 9.82373 36.6407 9.82661Z" fill="#666668"/>
<path d="M36.6662 9.90438C36.6643 9.90534 36.6768 9.93798 36.7084 9.9831C36.7401 10.0282 36.7948 10.0839 36.8668 10.1281C36.9398 10.1713 37.0147 10.1933 37.0694 10.2001C37.1241 10.2077 37.1587 10.2029 37.1587 10.201C37.1587 10.1972 37.1251 10.1962 37.0723 10.1847C37.0195 10.1741 36.9484 10.1511 36.8784 10.1089C36.8083 10.0666 36.7545 10.0148 36.72 9.9735C36.6864 9.93222 36.6691 9.90246 36.6662 9.90438Z" fill="#666668"/>
<path d="M36.5403 10.5927C36.5403 10.5927 36.5423 10.5908 36.5461 10.587C36.549 10.5822 36.5547 10.5764 36.5595 10.5668C36.5711 10.5486 36.5845 10.5198 36.5922 10.4795C36.5999 10.4401 36.6008 10.3883 36.5845 10.3326C36.5691 10.2769 36.5298 10.2174 36.4683 10.1761C36.4088 10.1348 36.332 10.1051 36.2831 10.0388C36.2591 10.0062 36.2485 9.96393 36.2562 9.92169C36.2629 9.87849 36.2821 9.83721 36.2994 9.79209C36.3378 9.70281 36.3378 9.59145 36.2927 9.49449C36.2696 9.44649 36.236 9.40137 36.1919 9.36873C36.1467 9.33513 36.093 9.31785 36.0392 9.30537C35.9855 9.29289 35.9317 9.28617 35.8808 9.27081C35.8309 9.25545 35.7829 9.23337 35.7483 9.19881C35.7128 9.16425 35.6975 9.11625 35.6907 9.06825C35.684 9.02025 35.6802 8.97033 35.6677 8.92329C35.6437 8.83017 35.5957 8.74665 35.5333 8.68713C35.4709 8.62761 35.3941 8.59305 35.3211 8.58153C35.2482 8.57001 35.18 8.58345 35.1282 8.61033C35.0763 8.63721 35.0399 8.67369 35.0168 8.70729C34.9938 8.74089 34.9832 8.77161 34.9775 8.79177C34.9727 8.81289 34.9727 8.82345 34.9727 8.82345C34.9755 8.82441 34.9765 8.77641 35.0235 8.71209C35.0475 8.68041 35.0831 8.64585 35.1339 8.62185C35.1839 8.59689 35.2491 8.58537 35.3192 8.59689C35.3883 8.60841 35.4613 8.64201 35.5208 8.69961C35.5803 8.75721 35.6255 8.83689 35.6485 8.92713C35.661 8.97225 35.6639 9.02025 35.6706 9.07017C35.6773 9.11913 35.6936 9.17385 35.733 9.21321C35.7714 9.25257 35.8223 9.27561 35.8741 9.29097C35.9269 9.30633 35.9807 9.31401 36.0335 9.32649C36.0863 9.33801 36.1371 9.35529 36.1784 9.38601C36.2197 9.41577 36.2514 9.45801 36.2735 9.50313C36.3157 9.59433 36.3167 9.69897 36.2802 9.78441C36.2639 9.82857 36.2437 9.87177 36.237 9.91785C36.2283 9.96393 36.2408 10.0139 36.2687 10.0484C36.3234 10.1204 36.4021 10.1483 36.4597 10.1876C36.5192 10.226 36.5567 10.2807 36.573 10.3345C36.5903 10.3883 36.5912 10.4382 36.5845 10.4766C36.5701 10.5563 36.5375 10.5908 36.5403 10.5927Z" fill="#666668"/>
<path d="M36.5068 9.19977C36.5068 9.19977 36.5116 9.19209 36.5126 9.17673C36.5145 9.16137 36.5116 9.13641 36.4962 9.11049C36.4809 9.08457 36.453 9.05769 36.4127 9.04137C36.3714 9.02601 36.3215 9.02601 36.2697 9.03657C36.2178 9.04617 36.1631 9.06729 36.1036 9.07881C36.045 9.09033 35.9759 9.09129 35.9231 9.05001C35.8703 9.00969 35.8434 8.93961 35.8166 8.87049C35.7897 8.79945 35.7522 8.72841 35.7014 8.66505C35.5996 8.53833 35.4623 8.45193 35.3241 8.42121C35.255 8.40585 35.1858 8.40777 35.1244 8.42601C35.0639 8.44521 35.013 8.47881 34.9785 8.52009C34.943 8.56137 34.9257 8.60937 34.9228 8.65257C34.919 8.69481 34.9276 8.73225 34.9391 8.75913C34.9506 8.78697 34.966 8.80521 34.9766 8.81577C34.9881 8.82633 34.9948 8.83113 34.9948 8.83113C34.9977 8.82921 34.9679 8.81001 34.9468 8.75625C34.9372 8.72937 34.9305 8.69385 34.9343 8.65353C34.9382 8.61321 34.9554 8.56809 34.989 8.53065C35.0226 8.49225 35.0706 8.46057 35.1282 8.44329C35.1858 8.42601 35.2521 8.42505 35.3183 8.44041C35.4508 8.47113 35.5842 8.55561 35.6831 8.67849C35.733 8.73993 35.7686 8.80809 35.7954 8.87817C35.8233 8.94729 35.8502 9.02121 35.9097 9.06633C35.9385 9.08841 35.974 9.09993 36.0086 9.10377C36.0431 9.10665 36.0758 9.10281 36.1065 9.09705C36.1679 9.08457 36.2217 9.06249 36.2716 9.05193C36.3215 9.04041 36.3695 9.03945 36.407 9.05289C36.4454 9.06633 36.4722 9.09129 36.4876 9.11529C36.5039 9.13929 36.5068 9.16233 36.5068 9.17673C36.5087 9.19113 36.5058 9.19881 36.5068 9.19977Z" fill="#666668"/>
</g>
<path d="M12.296 21.8084C12.2998 21.8564 12.2624 21.9005 12.2124 21.9053C12.1625 21.9111 12.1174 21.8756 12.1136 21.8276C12.1097 21.7796 12.1462 21.7354 12.1971 21.7306C12.248 21.7248 12.2921 21.7594 12.296 21.8084Z" fill="#38302D"/>
<path d="M12.2834 21.6653C12.2728 21.6778 12.2008 21.6298 12.1019 21.6355C12.003 21.6394 11.9339 21.6941 11.9224 21.6826C11.9166 21.6778 11.9272 21.6557 11.9579 21.6307C11.9877 21.6058 12.0395 21.5808 12.101 21.5779C12.1624 21.575 12.2152 21.5952 12.2459 21.6163C12.2776 21.6384 12.2891 21.6595 12.2834 21.6653Z" fill="#38302D"/>
<path d="M11.3213 21.8957C11.3252 21.9437 11.2877 21.9879 11.2378 21.9927C11.1879 21.9984 11.1428 21.9629 11.1389 21.9149C11.1351 21.8669 11.1716 21.8227 11.2225 21.8179C11.2733 21.8131 11.3175 21.8477 11.3213 21.8957Z" fill="#38302D"/>
<path d="M11.3195 21.7181C11.3089 21.7306 11.236 21.6826 11.1381 21.6884C11.0392 21.6922 10.9701 21.7469 10.9585 21.7354C10.9528 21.7306 10.9633 21.7085 10.9941 21.6836C11.0238 21.6586 11.0757 21.6336 11.1371 21.6308C11.1985 21.6279 11.2513 21.648 11.2821 21.6692C11.3137 21.6912 11.3253 21.7124 11.3195 21.7181Z" fill="#38302D"/>
<path d="M11.7103 22.4842C11.7093 22.4784 11.7708 22.465 11.8687 22.4468C11.8936 22.4429 11.9176 22.4362 11.9205 22.4189C11.9253 22.4007 11.9138 22.3738 11.8994 22.345C11.8725 22.2855 11.8447 22.2231 11.8149 22.1568C11.6968 21.889 11.6104 21.6682 11.621 21.6634C11.6316 21.6586 11.7362 21.8717 11.8543 22.1396C11.8831 22.2058 11.91 22.2682 11.9359 22.3287C11.9474 22.3565 11.9647 22.3882 11.9541 22.4266C11.9484 22.4458 11.9301 22.4602 11.9148 22.466C11.8984 22.4717 11.885 22.4727 11.8725 22.4746C11.7736 22.4861 11.7112 22.49 11.7103 22.4842Z" fill="#38302D"/>
<path d="M11.3486 22.3018C11.3486 22.3171 11.3362 22.3296 11.3208 22.3296C11.3054 22.3296 11.293 22.3171 11.293 22.3018C11.293 22.2864 11.3054 22.2739 11.3208 22.2739C11.3362 22.2739 11.3486 22.2864 11.3486 22.3018Z" fill="#DBB3A2"/>
<path d="M12.125 22.1664C12.125 22.1817 12.1125 22.1942 12.0972 22.1942C12.0818 22.1942 12.0693 22.1817 12.0693 22.1664C12.0693 22.151 12.0818 22.1385 12.0972 22.1385C12.1125 22.1395 12.125 22.152 12.125 22.1664Z" fill="#DBB3A2"/>
<path d="M12.2774 22.2384C12.2774 22.2538 12.2649 22.2663 12.2495 22.2663C12.2342 22.2663 12.2217 22.2538 12.2217 22.2384C12.2217 22.2231 12.2342 22.2106 12.2495 22.2106C12.2649 22.2106 12.2774 22.2231 12.2774 22.2384Z" fill="#DBB3A2"/>
<path d="M12.3233 22.1233C12.3233 22.1387 12.3108 22.1511 12.2954 22.1511C12.2801 22.1511 12.2676 22.1387 12.2676 22.1233C12.2676 22.1079 12.2801 22.0955 12.2954 22.0955C12.3117 22.0964 12.3233 22.1089 12.3233 22.1233Z" fill="#DBB3A2"/>
<path d="M11.2227 22.4227C11.2227 22.4381 11.2102 22.4506 11.1948 22.4506C11.1795 22.4506 11.167 22.4381 11.167 22.4227C11.167 22.4074 11.1795 22.3949 11.1948 22.3949C11.2102 22.3949 11.2227 22.4074 11.2227 22.4227Z" fill="#DBB3A2"/>
<path d="M11.1192 22.3124C11.1192 22.3277 11.1067 22.3402 11.0913 22.3402C11.076 22.3402 11.0635 22.3277 11.0635 22.3124C11.0635 22.297 11.076 22.2845 11.0913 22.2845C11.1076 22.2845 11.1192 22.297 11.1192 22.3124Z" fill="#DBB3A2"/>
</g>
</g>
<defs>
<clipPath id="clip0_1146_49381">
<rect width="48" height="48" rx="24" fill="white"/>
</clipPath>
<clipPath id="clip1_1146_49381">
<rect width="48" height="48" fill="white"/>
</clipPath>
</defs>
</svg>
