<svg width="48" height="48" viewBox="0 0 48 48" fill="none" xmlns="http://www.w3.org/2000/svg">
<g clip-path="url(#clip0_1146_49389)">
<rect width="48" height="48" rx="24" fill="white"/>
<g clip-path="url(#clip1_1146_49389)">
<path opacity="0.7" d="M36.1034 39.6451C35.8173 40.27 35.5149 40.8854 35.1655 41.472C31.1383 48.2409 19.6961 51.9254 13.6241 44.9289C12.1773 43.2614 11.6071 41.2464 10.5972 39.334C8.29989 34.9843 4.26021 32.3836 1.61733 28.3564C-0.431309 25.2345 -0.359309 21.2332 0.550771 17.8579C1.53957 14.1907 3.45669 11.6284 6.62085 9.68156C10.1681 7.49852 14.0954 8.10524 18.0717 8.8646C19.8602 9.20636 21.7034 9.55484 23.5101 9.42428C25.7719 9.26108 27.9828 8.60348 30.2196 8.2838C32.5457 7.95164 34.9716 7.87292 37.2602 8.59676C44.5889 10.9171 46.7949 21.7881 44.1079 28.0156C43.1565 30.2198 41.4525 31.9209 39.8762 33.646C38.1751 35.5104 37.1633 37.3334 36.1034 39.6451Z" fill="#EFEFEF"/>
<g opacity="0.37">
<path d="M11.4857 13.6291C11.9714 13.6262 12.4169 13.7443 12.822 13.9833C13.2271 14.2214 13.5506 14.5622 13.7906 15.0038C14.0335 15.4502 14.1468 15.911 14.1286 16.3843C14.1113 16.8585 13.9702 17.2992 13.7052 17.7081C13.4402 18.1161 13.0764 18.4464 12.6127 18.6988C12.1452 18.9532 11.669 19.0809 11.1842 19.08C10.6994 19.079 10.254 18.958 9.846 18.7152C9.438 18.4723 9.11352 18.1276 8.87064 17.6812C8.62968 17.2396 8.51928 16.7836 8.53944 16.3132C8.5596 15.8428 8.70072 15.406 8.96472 15.0009C9.22872 14.5958 9.59352 14.2665 10.062 14.0112C10.5257 13.7587 11.0009 13.632 11.4857 13.6291ZM10.2252 15.575C10.1138 15.7747 10.0591 15.9955 10.0601 16.2364C10.061 16.4784 10.1234 16.7126 10.2473 16.9401C10.3711 17.1676 10.5353 17.3481 10.7388 17.4825C10.9423 17.6169 11.1593 17.6918 11.3878 17.7091C11.6172 17.7264 11.8303 17.6812 12.0281 17.5737C12.221 17.4681 12.3708 17.3164 12.4764 17.1168C12.582 16.9171 12.631 16.6982 12.6242 16.4601C12.6166 16.222 12.5503 15.9868 12.4246 15.7555C12.3007 15.528 12.1404 15.3465 11.9446 15.2112C11.7487 15.0758 11.5394 14.999 11.3186 14.9808C11.0969 14.9625 10.8876 15.0067 10.6898 15.1142C10.4902 15.2217 10.3366 15.3753 10.2252 15.575Z" fill="#898989"/>
<path d="M13.0693 12.4828L14.5055 11.7014L17.0793 13.5475L16.9199 10.3872L18.3561 9.60571L20.8127 14.1196L19.6348 14.7609L18.1765 12.0825L18.3628 14.8771L17.494 15.3504L15.2476 13.6771L16.7049 16.3555L15.5269 16.9968L13.0693 12.4828Z" fill="#898989"/>
<path d="M23.2485 9.76413L24.4014 9.13725L25.3998 10.9718C25.2481 11.2771 25.0235 11.5833 24.723 11.8905C24.4235 12.1987 24.1125 12.4397 23.7909 12.6153C23.331 12.8649 22.8616 12.9888 22.3816 12.9859C21.9016 12.983 21.459 12.8601 21.0549 12.6192C20.6507 12.3773 20.3272 12.0336 20.0843 11.5872C19.8434 11.1456 19.7349 10.6867 19.7579 10.2125C19.7809 9.73821 19.9297 9.29565 20.2033 8.88477C20.4779 8.47389 20.8533 8.13885 21.3294 7.87965C21.6731 7.69245 22.0504 7.56861 22.4613 7.50621C22.8721 7.44381 23.2561 7.45437 23.6133 7.53789L23.3512 8.86557C23.115 8.79933 22.8683 8.77821 22.611 8.80125C22.3537 8.82429 22.1262 8.88957 21.9294 8.99709C21.7144 9.11421 21.5502 9.27357 21.4341 9.47517C21.3189 9.67677 21.2622 9.89853 21.2651 10.1385C21.268 10.3795 21.3314 10.6128 21.4552 10.8403C21.581 11.0717 21.7461 11.255 21.9496 11.3885C22.1531 11.5229 22.372 11.5949 22.6062 11.6064C22.8405 11.6179 23.0651 11.5651 23.2801 11.448C23.4731 11.3433 23.667 11.1571 23.8609 10.8902L23.2485 9.76413Z" fill="#898989"/>
</g>
<path d="M28.7376 16.3431C28.4208 15.9745 28.1625 15.5866 28.1155 15.194C27.9888 14.137 27.0163 13.1645 25.5792 12.9956C24.142 12.8266 24.3955 13.4602 23.3808 13.0378C22.366 12.6154 21.0979 11.6852 19.6608 12.6577C18.2236 13.6302 18.4771 14.6449 19.0272 14.9828C19.5763 15.3207 19.1539 15.913 18.647 15.8708C18.1401 15.8286 16.5753 16.4199 16.2374 17.2657C15.8995 18.1114 16.6598 20.1399 15.815 20.5633C14.9692 20.9857 12.6451 19.8865 10.6579 21.9159C8.67068 23.9453 10.2355 25.2135 10.32 26.1006C10.4044 26.9886 9.263 26.4807 9.38972 27.8333C9.51644 29.186 10.9958 30.6654 13.0252 30.243C15.0547 29.8206 15.3504 29.2282 15.815 30.2007C16.2796 31.1732 18.7315 33.1172 20.8032 32.2302C22.8748 31.3422 23.5084 30.9198 24.0576 31.0887C24.6067 31.2577 26.974 30.4974 27.4819 29.7783C27.9888 29.0593 27.3974 28.0033 27.8198 27.7066C28.2422 27.4109 29.2147 27.4954 29.088 26.1428C28.9612 24.7902 29.6371 23.3953 30.3984 22.9306C31.1596 22.466 31.8777 21.0711 31.3286 19.4641C30.7795 17.858 30.6518 18.6183 29.9337 17.6458C29.6467 17.258 29.1436 16.8154 28.7376 16.3431Z" fill="#353535"/>
<path d="M22.6129 28.4603C22.6129 28.4603 21.0116 28.3854 20.1553 28.4603C19.2989 28.5352 13.0061 30.6942 13.0061 30.6942C13.0061 30.6942 6.67207 34.9259 7.08583 35.4597C7.49959 35.9944 7.94215 36.1672 8.68711 36.1672C9.43207 36.1672 16.2826 35.0133 16.2826 35.0133C16.2826 35.0133 16.8788 40.635 16.9153 41.2686C16.9527 41.9013 14.9415 47.9704 14.9415 47.9704H28.9412L29.6487 41.5662C29.6487 41.5662 30.505 40.5237 30.9514 39.1086C31.3978 37.6936 32.0689 33.0021 32.0689 33.0021C32.0689 33.0021 40.4833 31.8107 41.2282 31.1032C41.9732 30.3957 38.6218 27.8641 37.7281 27.4917C36.8343 27.1192 33.409 27.4168 32.9991 27.4168C32.5892 27.4168 32.0679 27.1931 29.9463 27.4917C27.8237 27.7893 25.1434 28.3105 25.1434 28.3105L22.6129 28.4603Z" fill="#898989"/>
<path d="M22.3152 26.45C22.3152 26.45 22.2403 28.2001 22.0915 28.684C21.9427 29.1678 25.4793 33.3755 25.9641 33.3006C26.448 33.2257 27.4531 29.3915 27.528 28.9816C27.6028 28.5716 27.3792 26.4126 27.3792 26.4126C27.3792 26.4126 26.7465 27.8651 25.294 27.5665C23.8416 27.2689 22.3152 26.45 22.3152 26.45Z" fill="#F4CDB8"/>
<path d="M22.278 27.0021L22.0918 28.684L24.9075 28.9653L22.278 27.0021Z" fill="#D3B0A1"/>
<path d="M32.5705 30.8842L32.0703 33.003L33.4105 30.6202" stroke="#606060" stroke-width="0.096" stroke-miterlimit="10" stroke-linecap="round" stroke-linejoin="round"/>
<path d="M32.8521 29.6891L32.7148 30.2699" stroke="#606060" stroke-width="0.096" stroke-miterlimit="10" stroke-linecap="round" stroke-linejoin="round"/>
<path d="M15.1658 33.0031L16.2823 35.0143L14.7559 33.5243" stroke="#606060" stroke-width="0.096" stroke-miterlimit="10" stroke-linecap="round" stroke-linejoin="round"/>
<path d="M20.832 43.2616L25.4794 41.6036" stroke="#606060" stroke-width="0.096" stroke-miterlimit="10" stroke-linecap="round" stroke-linejoin="round"/>
<path d="M20.1553 43.5025L20.4663 43.3921" stroke="#606060" stroke-width="0.096" stroke-miterlimit="10" stroke-linecap="round" stroke-linejoin="round"/>
<path d="M26.7215 41.6978L25.0703 42.4235" stroke="#606060" stroke-width="0.096" stroke-miterlimit="10" stroke-linecap="round" stroke-linejoin="round"/>
<path d="M27.5271 41.3435L27.1152 41.524" stroke="#606060" stroke-width="0.096" stroke-miterlimit="10" stroke-linecap="round" stroke-linejoin="round"/>
<path d="M26.9992 17.7092C26.9992 17.7092 26.453 17.8609 25.9077 17.2244C25.3624 16.588 25.18 16.9518 24.7855 17.8312C24.3909 18.7105 23.6632 19.7416 22.6629 19.1656C21.6626 18.5896 21.3592 19.7723 21.2988 20.1966C21.2383 20.6209 20.1554 22.7636 20.2725 23.1928C20.3896 23.6228 20.5106 24.866 20.814 25.5025C21.1173 26.139 24.5436 28.9892 25.6351 28.9288C26.7266 28.8683 26.9954 28.516 28.0869 26.6363C29.1784 24.7566 29.4616 23.0699 28.9096 20.6814C28.3576 18.292 26.9992 17.7092 26.9992 17.7092Z" fill="#F4CDB8" stroke="#D3B0A1" stroke-width="0.096" stroke-miterlimit="10"/>
<path d="M25.2097 19.2865C25.2097 19.2865 25.3009 20.4692 25.4218 20.6209C25.5428 20.7726 26.0583 21.1969 25.8769 21.5003C25.6945 21.8036 24.9668 22.0465 24.9668 22.0465" stroke="#3A3A3A" stroke-width="0.096" stroke-miterlimit="10" stroke-linecap="round" stroke-linejoin="round"/>
<path d="M26.2944 23.5307C26.1735 23.3186 25.9623 23.1765 25.7213 23.1391C25.4112 23.0911 24.9418 23.0786 24.4512 23.2888C23.6026 23.6527 23.6631 24.5925 23.6928 25.4719C23.7235 26.3512 24.8151 27.4427 25.6944 27.1999C26.5738 26.957 26.8771 25.8962 26.7255 24.8344C26.64 24.2325 26.4461 23.7957 26.2944 23.5307Z" fill="#383838"/>
<path d="M26.1799 26.0786C25.9985 26.5337 25.3006 26.6854 24.9675 26.5634C24.6343 26.4425 24.5124 25.927 24.2091 25.7753C23.9057 25.6236 23.9364 26.1698 23.9364 26.1698L23.9403 26.2217C24.3175 26.8553 25.0606 27.3756 25.6951 27.1999C26.4151 27.0012 26.7483 26.2543 26.7627 25.4076C26.6897 25.3759 26.6043 25.351 26.514 25.351C26.2711 25.351 26.3623 25.6236 26.1799 26.0786Z" fill="white" stroke="#3A3A3A" stroke-width="0.096" stroke-miterlimit="10" stroke-linecap="round" stroke-linejoin="round"/>
<path d="M24.4524 23.8043C24.9372 23.5922 25.2108 23.5317 25.6956 23.6219C25.9289 23.6661 26.1766 23.6738 26.3705 23.6719C26.3446 23.621 26.3196 23.573 26.2956 23.5307C26.1746 23.3186 25.9634 23.1765 25.7225 23.1391C25.4124 23.0911 24.943 23.0786 24.4524 23.2888C24.0886 23.4453 23.8918 23.7074 23.7881 24.0251C23.9196 23.9973 24.151 23.9359 24.4524 23.8043Z" fill="white" stroke="#3A3A3A" stroke-width="0.096" stroke-miterlimit="10" stroke-linecap="round" stroke-linejoin="round"/>
<path d="M23.1183 21.0749C23.2689 21.0749 23.391 20.8579 23.391 20.5901C23.391 20.3224 23.2689 20.1053 23.1183 20.1053C22.9678 20.1053 22.8457 20.3224 22.8457 20.5901C22.8457 20.8579 22.9678 21.0749 23.1183 21.0749Z" fill="#383838"/>
<path d="M26.5139 20.4385C26.6644 20.4385 26.7865 20.2214 26.7865 19.9537C26.7865 19.6859 26.6644 19.4689 26.5139 19.4689C26.3633 19.4689 26.2412 19.6859 26.2412 19.9537C26.2412 20.2214 26.3633 20.4385 26.5139 20.4385Z" fill="#383838"/>
<path d="M22.3906 19.5899C22.3906 19.5899 23.0578 18.8929 23.725 19.347" stroke="#3A3A3A" stroke-width="0.096" stroke-miterlimit="10" stroke-linecap="round" stroke-linejoin="round"/>
<path d="M25.7256 18.8017C25.7256 18.8017 26.3323 18.0433 26.9688 18.7105" stroke="#3A3A3A" stroke-width="0.096" stroke-miterlimit="10" stroke-linecap="round" stroke-linejoin="round"/>
<path d="M18.036 24.7547C18.036 24.7547 17.3928 22.0897 17.3007 21.6001C17.2085 21.1105 17.3621 20.5278 17.484 20.1611C17.6069 19.7934 17.8824 19.1195 18.2799 18.5684C18.6783 18.0174 18.9231 18.2929 18.8616 18.507C18.8002 18.7211 18.2799 19.395 18.2184 19.6398C18.157 19.8846 18.1877 21.171 18.1877 21.171L18.8616 19.3335C18.8616 19.3335 19.7189 17.7716 19.9944 17.8638C20.27 17.9559 20.1778 18.2315 20.0866 18.3534C19.9944 18.4763 19.3512 20.1294 19.3512 20.1294L19.2284 21.3543C19.2284 21.3543 20.1471 19.5476 20.27 19.3326C20.3928 19.1185 21.0658 17.954 21.2194 18.2295C21.373 18.5051 21.0658 19.0254 21.0658 19.0254L20.0856 21.1383L19.9935 21.8123C19.9935 21.8123 20.6674 21.2612 20.9429 20.8935C21.2184 20.5259 21.6476 19.9134 21.8309 19.9134C22.0143 19.9134 22.0143 20.1275 21.8924 20.3425C21.7695 20.5566 20.7288 22.058 20.6981 22.1492C20.6674 22.2414 20.269 23.1908 20.269 23.1908C20.269 23.1908 20.269 25.059 20.0856 25.7022C19.9023 26.3454 19.1362 27.2334 19.1362 27.2334C19.1362 27.2334 11.3871 34.6455 10.9896 35.0737C10.5912 35.5028 9.70323 35.9924 7.49811 35.9924C5.29299 35.9924 6.45652 33.1134 7.7122 32.0411C8.96788 30.9687 11.1423 29.6219 11.4485 29.499C11.7548 29.3761 17.268 25.8846 17.5743 25.5783C17.8834 25.275 18.036 24.7547 18.036 24.7547Z" fill="#F4CDB8"/>
<path d="M28.4199 17.1591C28.4199 17.1591 29.1553 17.833 29.4308 18.3226C29.7063 18.8122 30.1969 20.6199 30.1969 20.6199L28.4199 17.1591Z" stroke="#3A3A3A" stroke-width="0.096" stroke-miterlimit="10" stroke-linecap="round" stroke-linejoin="round"/>
<path d="M30.3186 25.9795C30.3186 25.9795 28.9708 25.1223 29.063 24.0499C29.1177 23.4087 28.5734 21.1402 28.5734 21.1402C28.5734 21.1402 27.1036 18.5674 27.2562 18.2919C27.4098 18.0163 27.5625 18.2304 27.7161 18.3226C27.8697 18.4147 29.1551 20.5277 29.1551 20.5277C29.1551 20.5277 28.6655 18.7824 28.3593 18.2919C28.053 17.8023 27.4098 16.8826 27.839 16.7914C28.2681 16.6992 29.2482 18.721 29.4316 19.0887C29.615 19.4563 30.381 21.0183 30.4425 21.8448C30.5039 22.6714 30.8102 24.3869 30.8102 24.3869C30.8102 24.3869 39.7842 26.4999 40.5494 27.2352C41.3154 27.9706 43.03 29.5018 42.5711 30.3283C42.1113 31.1549 40.8556 31.8288 38.59 30.6346C36.3234 29.4403 33.1382 27.6327 32.4642 27.2659C31.7884 26.8983 30.3186 25.9795 30.3186 25.9795Z" fill="#F4CDB8"/>
<path d="M30.1241 41.9605C30.0876 41.9327 30.077 41.8818 30.1001 41.8405C30.126 41.7964 30.1826 41.781 30.2268 41.8069C30.3276 41.8645 30.4322 41.8511 30.5033 41.83C30.6473 41.7868 30.7845 41.6687 30.8527 41.5305C30.9669 41.3001 30.9631 41.0217 30.9602 40.7519L30.9593 40.6713C30.9573 40.3554 30.9833 39.9983 31.1983 39.7391C31.3097 39.6057 31.4594 39.5106 31.6034 39.4194C31.7993 39.2956 31.9836 39.1794 32.0345 38.9865C32.0748 38.8329 32.0172 38.6697 31.9567 38.4969C31.8991 38.3337 31.8396 38.1647 31.8549 37.9842C31.8751 37.75 32.022 37.5513 32.1401 37.3909C32.2658 37.2201 32.3714 37.0646 32.381 36.8918C32.3868 36.7996 32.3474 36.6978 32.2812 36.6335C32.2505 36.6028 32.1986 36.5673 32.1314 36.5721C32.0805 36.5759 32.0354 36.5375 32.0316 36.4866C32.0277 36.4358 32.0661 36.3906 32.117 36.3868C32.2236 36.3791 32.3282 36.4194 32.4108 36.501C32.5145 36.6028 32.574 36.7564 32.5653 36.9023C32.5529 37.126 32.4271 37.3132 32.2889 37.5014C32.1794 37.6502 32.0556 37.8181 32.0393 37.9996C32.0268 38.1397 32.0777 38.2828 32.1314 38.4345C32.1986 38.6255 32.2687 38.8233 32.214 39.0325C32.1449 39.2965 31.9202 39.4386 31.7023 39.5759C31.5698 39.6594 31.4325 39.7458 31.3404 39.8572C31.1647 40.0693 31.1417 40.3727 31.1445 40.6694L31.1455 40.75C31.1484 41.0418 31.1522 41.3423 31.0188 41.613C30.9266 41.7983 30.75 41.949 30.557 42.0076C30.4053 42.0537 30.2594 42.0393 30.1346 41.9673C30.1308 41.9653 30.1269 41.9625 30.1241 41.9605Z" fill="#545354"/>
<path d="M31.3322 41.4796C31.3245 41.4739 31.3168 41.4662 31.3111 41.4576C31.2832 41.4153 31.2948 41.3577 31.337 41.3289C31.4762 41.2368 31.4887 41.0198 31.4839 40.8988C31.482 40.8566 31.4791 40.8144 31.4762 40.7721C31.4647 40.6166 31.4532 40.4553 31.5088 40.2988C31.602 40.0368 31.8372 39.8966 32.0647 39.7612C32.2538 39.6489 32.4314 39.5424 32.5255 39.3753C32.632 39.1852 32.6071 38.9366 32.5783 38.7657C32.5706 38.7168 32.561 38.6678 32.5514 38.6188C32.5178 38.4384 32.4823 38.2531 32.5005 38.0611C32.5245 37.8144 32.6695 37.5302 32.9383 37.4524C32.9872 37.438 33.0391 37.4668 33.0535 37.5158C33.0679 37.5648 33.0391 37.6166 32.9901 37.631C32.8039 37.6848 32.7031 37.895 32.6848 38.0793C32.6685 38.2444 32.7002 38.4096 32.7328 38.5843C32.7424 38.6342 32.752 38.6851 32.7597 38.735C32.7924 38.9337 32.8202 39.2246 32.6858 39.4656C32.5677 39.6768 32.3594 39.8006 32.1578 39.9206C31.9495 40.0444 31.7527 40.1616 31.6816 40.3612C31.6394 40.4812 31.649 40.6156 31.6596 40.7587C31.6624 40.8038 31.6663 40.848 31.6682 40.8921C31.6788 41.1686 31.5972 41.3788 31.4378 41.4835C31.4061 41.5056 31.3629 41.5027 31.3322 41.4796Z" fill="#545354"/>
<path d="M16.0949 40.7443C16.1314 40.7722 16.1429 40.823 16.1189 40.8643C16.0939 40.9085 16.0373 40.9248 15.9922 40.8989C15.8914 40.8422 15.7858 40.8557 15.7157 40.8778C15.5726 40.9219 15.4363 41.041 15.3682 41.1802C15.2558 41.4115 15.2606 41.6899 15.2664 41.9597L15.2674 42.0403C15.2722 42.3562 15.2482 42.7142 15.035 42.9744C14.9246 43.1088 14.7758 43.2048 14.6318 43.297C14.437 43.4218 14.2536 43.5398 14.2037 43.7338C14.1643 43.8883 14.2229 44.0506 14.2853 44.2224C14.3438 44.3856 14.4053 44.5536 14.3909 44.7341C14.3726 44.9683 14.2267 45.168 14.1106 45.3293C13.9858 45.5011 13.8821 45.6566 13.8734 45.8304C13.8686 45.9226 13.909 46.0234 13.9752 46.0877C14.0069 46.1184 14.0587 46.1539 14.125 46.1482C14.1758 46.1443 14.221 46.1818 14.2248 46.2326C14.2286 46.2835 14.1912 46.3286 14.1403 46.3325C14.0338 46.3411 13.9291 46.3008 13.8456 46.2202C13.741 46.1194 13.6805 45.9658 13.6882 45.8198C13.6997 45.5962 13.8235 45.408 13.9608 45.2189C14.0693 45.0701 14.1922 44.9002 14.2066 44.7187C14.2181 44.5786 14.1662 44.4355 14.1115 44.2848C14.0424 44.0938 13.9714 43.897 14.0242 43.6867C14.0914 43.4218 14.315 43.2787 14.532 43.1395C14.6635 43.055 14.7998 42.9677 14.892 42.8554C15.0667 42.6422 15.0869 42.3379 15.0821 42.0422L15.0811 41.9616C15.0754 41.6698 15.0696 41.3693 15.2021 41.0976C15.2923 40.9123 15.468 40.7597 15.661 40.6992C15.8126 40.6522 15.9586 40.6646 16.0843 40.7357C16.0882 40.7395 16.092 40.7414 16.0949 40.7443Z" fill="#545354"/>
<path d="M14.8886 41.2339C14.8963 41.2396 14.904 41.2473 14.9098 41.2559C14.9386 41.2982 14.927 41.3558 14.8848 41.3846C14.7466 41.4777 14.735 41.6947 14.7408 41.8156C14.7427 41.8579 14.7466 41.9001 14.7494 41.9423C14.7619 42.0979 14.7754 42.2591 14.7206 42.4156C14.6294 42.6787 14.3952 42.8207 14.1686 42.9571C13.9805 43.0703 13.8029 43.1779 13.7107 43.3468C13.6061 43.5379 13.633 43.7865 13.6618 43.9574C13.6704 44.0063 13.68 44.0553 13.6896 44.1043C13.7251 44.2838 13.7616 44.47 13.7443 44.6611C13.7222 44.9078 13.5792 45.1929 13.3104 45.2735C13.2614 45.2879 13.2096 45.2601 13.1952 45.2111C13.1808 45.1622 13.2086 45.1103 13.2576 45.0959C13.4429 45.0403 13.5427 44.83 13.559 44.6457C13.5734 44.4806 13.5408 44.3155 13.5072 44.1407C13.4976 44.0908 13.488 44.0399 13.4794 43.99C13.4448 43.7923 13.415 43.5004 13.5485 43.2585C13.6646 43.0473 13.872 42.9215 14.0726 42.7996C14.28 42.6739 14.4768 42.5548 14.5459 42.3561C14.5882 42.2361 14.5766 42.1017 14.5651 41.9587C14.5613 41.9135 14.5584 41.8694 14.5555 41.8252C14.543 41.5487 14.6227 41.3385 14.7811 41.2319C14.8147 41.2079 14.8579 41.2108 14.8886 41.2339Z" fill="#545354"/>
<path d="M32.2626 22.8394C32.2185 22.8394 32.1791 22.8077 32.1714 22.7626C32.1628 22.7117 32.1964 22.6637 32.2463 22.655C32.4757 22.6147 32.6082 22.345 32.6025 22.1069C32.5977 21.8957 32.5199 21.695 32.4364 21.4819C32.4162 21.431 32.397 21.3811 32.3778 21.3302C32.2914 21.097 32.1916 20.7514 32.3212 20.4413C32.3749 20.3126 32.4633 20.2003 32.5477 20.0918C32.6793 19.9248 32.7925 19.7798 32.7657 19.6109C32.7369 19.4304 32.5573 19.3229 32.3673 19.2086C32.1685 19.0896 31.9641 18.9667 31.8825 18.743C31.8105 18.5453 31.8661 18.3504 31.9199 18.1622C31.9535 18.0461 31.9842 17.9366 31.9861 17.8291C31.99 17.6189 31.8613 17.4058 31.6741 17.3107C31.486 17.2157 31.2393 17.2387 31.0713 17.3664C31.0309 17.3971 30.9724 17.3904 30.9407 17.3491C30.91 17.3088 30.9177 17.2502 30.958 17.2195C31.1826 17.0477 31.5042 17.0179 31.7567 17.1456C32.0092 17.2733 32.1762 17.5498 32.1705 17.833C32.1676 17.9645 32.1321 18.0912 32.0975 18.2131C32.0495 18.3802 32.0044 18.5386 32.0562 18.6797C32.1148 18.841 32.2837 18.9418 32.4623 19.0493C32.6812 19.1798 32.9068 19.3152 32.949 19.5811C32.9884 19.8298 32.8386 20.0208 32.6946 20.2051C32.6169 20.304 32.5372 20.4067 32.493 20.5123C32.3884 20.7619 32.4767 21.0614 32.5525 21.265C32.5708 21.3139 32.59 21.3638 32.6092 21.4128C32.6946 21.6317 32.7829 21.8573 32.7887 22.1011C32.7954 22.4122 32.6188 22.776 32.2789 22.8355C32.2732 22.8384 32.2684 22.8394 32.2626 22.8394Z" fill="#545354"/>
<path d="M33.1082 22.0051C33.0976 22.0051 33.0871 22.0032 33.0765 21.9993C33.0285 21.982 33.0036 21.9283 33.0208 21.8803C33.0804 21.7171 32.994 21.5404 32.9018 21.3532C32.8077 21.1603 32.7098 20.9616 32.7472 20.7427C32.778 20.5651 32.8874 20.4326 32.994 20.304C33.0448 20.2425 33.0928 20.1849 33.1312 20.1235C33.3079 19.8432 33.2781 19.4419 33.0621 19.1904C32.9949 19.1126 32.9133 19.0473 32.8269 18.9782C32.7319 18.9024 32.634 18.8246 32.5524 18.7257C32.3056 18.4243 32.2788 17.9683 32.489 17.64C32.5168 17.5968 32.5744 17.5843 32.6167 17.6121C32.6599 17.64 32.6724 17.6976 32.6445 17.7408C32.4794 17.999 32.5005 18.3715 32.6954 18.6086C32.7636 18.6921 32.85 18.7603 32.9412 18.8332C33.0304 18.9043 33.1236 18.9782 33.2023 19.0694C33.473 19.3852 33.5095 19.87 33.2877 20.2224C33.2426 20.2934 33.1888 20.3587 33.137 20.422C33.042 20.5372 32.9527 20.6457 32.9306 20.7744C32.9028 20.9337 32.9834 21.0979 33.0688 21.2726C33.1735 21.4867 33.282 21.7075 33.1956 21.9446C33.1812 21.982 33.1456 22.0051 33.1082 22.0051Z" fill="#545354"/>
<path d="M8.5184 30.1737C8.5424 30.2054 8.54432 30.2486 8.52128 30.2755C8.49536 30.3053 8.44736 30.3033 8.41376 30.2707C8.26304 30.1229 8.02592 30.1517 7.88288 30.2659C7.7552 30.3667 7.67552 30.5165 7.59104 30.6758C7.57088 30.7133 7.55072 30.7517 7.5296 30.7881C7.4336 30.959 7.27616 31.1913 7.01504 31.2403C6.90656 31.2605 6.78944 31.2489 6.67616 31.2374C6.50144 31.2201 6.35072 31.2048 6.2624 31.3017C6.16736 31.4054 6.2 31.5859 6.23456 31.7769C6.27008 31.9757 6.30752 32.1821 6.2144 32.3443C6.1328 32.4883 5.98208 32.5382 5.83808 32.5862C5.7488 32.616 5.66432 32.6438 5.59808 32.6918C5.46656 32.7869 5.40608 32.9779 5.4512 33.1584C5.49536 33.3389 5.64512 33.5078 5.81504 33.5693C5.85632 33.5846 5.88416 33.6297 5.87552 33.672C5.86784 33.7133 5.82752 33.7344 5.78624 33.72C5.55776 33.6365 5.36384 33.4176 5.30336 33.1747C5.24288 32.9318 5.3216 32.6832 5.49824 32.5565C5.57984 32.4979 5.67776 32.4653 5.77184 32.4336C5.90048 32.3913 6.0224 32.3501 6.08096 32.2473C6.14816 32.1302 6.11744 31.9613 6.08576 31.7817C6.0464 31.5629 6.00608 31.3363 6.14528 31.1827C6.27584 31.0387 6.47552 31.0589 6.66752 31.079C6.77024 31.0896 6.8768 31.1001 6.96608 31.0838C7.17632 31.0445 7.31168 30.8409 7.3952 30.6921C7.41536 30.6557 7.43552 30.6192 7.45472 30.5827C7.54208 30.4195 7.63232 30.2505 7.7792 30.1344C7.9664 29.9856 8.28608 29.9453 8.5088 30.1641C8.51264 30.1661 8.51552 30.1699 8.5184 30.1737Z" fill="#545354"/>
<path d="M7.5451 29.9463C7.55086 29.954 7.55566 29.9626 7.5595 29.9722C7.57486 30.0154 7.55566 30.0577 7.51726 30.0673C7.38478 30.0999 7.32334 30.2449 7.25902 30.3975C7.19278 30.5549 7.12366 30.7181 6.9691 30.7921C6.8443 30.8525 6.70222 30.8343 6.56494 30.8161C6.49966 30.8074 6.43822 30.7997 6.3787 30.7997C6.1099 30.8017 5.88046 31.009 5.84398 31.2817C5.83246 31.3661 5.83822 31.4554 5.84302 31.5505C5.84878 31.6541 5.85454 31.7617 5.83822 31.8663C5.78926 32.185 5.52334 32.4154 5.2075 32.4145C5.16622 32.4145 5.12686 32.378 5.12014 32.3348C5.11342 32.2906 5.14126 32.2551 5.1835 32.2551C5.43214 32.2561 5.6491 32.0669 5.68846 31.8164C5.7019 31.7281 5.6971 31.634 5.69134 31.5341C5.68558 31.4362 5.68078 31.3345 5.69326 31.2356C5.73838 30.8929 6.01582 30.6423 6.35374 30.6404C6.4219 30.6404 6.49198 30.649 6.55918 30.6577C6.68206 30.673 6.79726 30.6884 6.88846 30.6442C7.00174 30.5905 7.05838 30.4561 7.1179 30.313C7.19182 30.1383 7.26766 29.9569 7.46062 29.9098C7.49038 29.9041 7.52398 29.9185 7.5451 29.9463Z" fill="#545354"/>
<path d="M30.6181 35.2703C30.6046 34.9862 30.4971 34.5926 30.0565 34.3314C29.5669 34.0406 29.1589 34.1615 28.9016 34.3142C28.7288 34.4169 28.6021 34.5455 28.5301 34.629C28.4725 34.5359 28.3678 34.3881 28.2133 34.2594C27.9838 34.0684 27.5998 33.8841 27.0709 34.0943C26.5947 34.2825 26.4257 34.654 26.3681 34.9324C26.2597 35.4508 26.4497 36.0796 26.8289 36.4617C27.3185 36.9542 28.2152 37.8796 28.2248 37.8892C28.2373 37.9017 28.2526 37.9084 28.2689 37.9103C28.2853 37.9113 28.3016 37.9074 28.316 37.8969C28.3265 37.8892 29.3585 37.1174 29.9201 36.7084C30.355 36.3906 30.6421 35.7993 30.6181 35.2703Z" fill="#606060"/>
<path d="M27.1414 35.8425C27.1606 35.8444 27.1789 35.8329 27.1866 35.8156L27.2758 35.6083L27.3939 36.5356C27.3968 36.5577 27.415 36.575 27.4371 36.5759C27.4592 36.5769 27.4794 36.5625 27.4842 36.5414L27.7942 35.3126L27.8941 36.0547C27.897 36.0748 27.9123 36.0911 27.9325 36.094C27.9526 36.0969 27.9718 36.0873 27.9814 36.0681L28.1283 35.7628L28.1725 35.8991C28.1782 35.9164 28.1936 35.9289 28.2128 35.9308L28.5536 35.9577C28.5728 35.9596 28.592 35.9481 28.5997 35.9299L28.689 35.7254L28.807 36.6499C28.8099 36.6719 28.8272 36.6883 28.8493 36.6902H28.8502C28.8723 36.6911 28.8925 36.6767 28.8973 36.6556L29.2074 35.4268L29.3082 36.1689C29.311 36.1891 29.3264 36.2054 29.3466 36.2083C29.3667 36.2111 29.3859 36.2015 29.3955 36.1823L29.5424 35.8771L29.5866 36.0134C29.5923 36.0307 29.6077 36.0431 29.6269 36.0451L30.4237 36.1084C30.439 36.0796 30.4525 36.0499 30.4659 36.0201L29.6634 35.9519L29.5923 35.7369C29.5866 35.7196 29.5712 35.7071 29.552 35.7052C29.552 35.7052 29.552 35.7052 29.551 35.7052C29.5328 35.7043 29.5146 35.7139 29.5069 35.7311L29.3773 36.0019L29.2659 35.1763C29.263 35.1542 29.2448 35.1379 29.2227 35.1369C29.2006 35.1359 29.1814 35.1503 29.1757 35.1715L28.8666 36.3955L28.7581 35.5468C28.7552 35.5267 28.7398 35.5103 28.7187 35.5075C28.6986 35.5046 28.6784 35.5161 28.6698 35.5343L28.5267 35.8617L28.2493 35.8396L28.1782 35.6246C28.1725 35.6073 28.1571 35.5948 28.1379 35.5929C28.1379 35.5929 28.1379 35.5929 28.137 35.5929C28.1187 35.5919 28.1005 35.6015 28.0928 35.6188L27.9632 35.8895L27.8518 35.0639C27.849 35.0419 27.8317 35.0255 27.8086 35.0246C27.7866 35.0236 27.7674 35.038 27.7616 35.0591L27.4525 36.2831L27.344 35.4345C27.3411 35.4143 27.3258 35.398 27.3056 35.3951C27.2854 35.3923 27.2653 35.4028 27.2566 35.422L27.1146 35.7398C27.1146 35.7398 26.6221 35.7062 26.3965 35.6908C26.4051 35.7225 26.4147 35.7551 26.4253 35.7868C26.6528 35.8031 27.1414 35.8425 27.1414 35.8425Z" fill="white"/>
<g opacity="0.7">
<path d="M46.8442 21.5155L36.2727 24.3562C35.641 24.5386 35.0045 24.1718 34.8385 23.5526L34.0273 20.5334C33.8612 19.9142 34.2279 19.2778 34.8471 19.1117L45.4186 16.271C46.0378 16.105 46.6743 16.4717 46.8404 17.0909L47.6516 20.1101C47.8177 20.7283 47.4509 21.3648 46.8442 21.5155Z" fill="white" stroke="#777477" stroke-width="0.096" stroke-miterlimit="10"/>
</g>
<path d="M36.6936 20.7034L37.0594 20.7975L37.0296 20.9213L36.6591 20.8205L36.757 21.1843L36.6389 21.216L36.5439 20.8522L36.2741 21.1248L36.1839 21.0336L36.4556 20.7687L36.0869 20.6755L36.1186 20.5488L36.4892 20.6525L36.3884 20.2896L36.5064 20.2579L36.6044 20.6218L36.8732 20.3463L36.9615 20.4403L36.6936 20.7034Z" fill="#2E353A"/>
<path d="M39.7857 20.6851C39.9028 21.12 39.8097 21.4195 39.5467 21.4906C39.3806 21.5357 39.2404 21.4627 39.1819 21.289C39.1271 21.4934 38.9707 21.6451 38.7451 21.7056C38.3812 21.8035 38.0356 21.6 37.9319 21.2131C37.8292 20.8291 38.026 20.4826 38.3899 20.3846C38.6097 20.3251 38.818 20.3741 38.9687 20.5171L38.8996 20.2589L39.0657 20.2138L39.3268 21.1843C39.3652 21.3274 39.4507 21.36 39.538 21.336C39.6964 21.2938 39.7463 21.0682 39.6532 20.7235C39.4919 20.1216 38.9515 19.8384 38.3323 20.0054C37.7054 20.1744 37.3905 20.7091 37.5537 21.3158C37.7169 21.9226 38.2535 22.2346 38.8756 22.0666C39.0292 22.0253 39.2087 21.9389 39.3374 21.8218L39.4142 21.935C39.2817 22.056 39.082 22.151 38.9111 22.1971C38.2075 22.3862 37.5959 22.032 37.4135 21.3533C37.2302 20.6726 37.5911 20.065 38.2977 19.8749C38.9908 19.6877 39.6052 20.0141 39.7857 20.6851ZM39.0763 20.905C38.9927 20.5949 38.7297 20.4518 38.4532 20.5258C38.1691 20.6026 38.0183 20.8598 38.1009 21.167C38.1835 21.4742 38.4436 21.6269 38.7278 21.5501C39.0052 21.4762 39.1607 21.2179 39.0763 20.905Z" fill="#2E353A"/>
<path d="M41.1139 19.8067L41.1917 20.3625L41.5555 20.2646L41.593 20.4057L41.2118 20.5085L41.2838 21.0105L41.1456 21.048L41.0736 20.5459L40.5485 20.687L40.6176 21.1901L40.4794 21.2275L40.4074 20.7254L40.0435 20.8233L40.0061 20.6822L40.3872 20.5795L40.3094 20.0237L39.9437 20.1216L39.9053 19.9805L40.2893 19.8777L40.2173 19.3757L40.3584 19.3373L40.4275 19.8403L40.9555 19.6982L40.8835 19.1961L41.0218 19.1587L41.0938 19.6608L41.4547 19.5638L41.4922 19.7049L41.1139 19.8067ZM40.9757 19.8432L40.4506 19.9843L40.5254 20.5401L41.0525 20.3981L40.9757 19.8432Z" fill="#2E353A"/>
<path d="M43.4653 20.4537L43.1485 20.2646C43.041 20.4662 42.8576 20.6034 42.6147 20.6687C42.2643 20.7628 41.9638 20.6457 41.8909 20.375C41.8333 20.1628 41.9149 19.9737 42.1914 19.6953C41.9696 19.5628 41.889 19.4687 41.8515 19.3305C41.7901 19.103 41.9254 18.9014 42.2019 18.8274C42.4554 18.7593 42.655 18.8486 42.7146 19.0713C42.7626 19.2508 42.6886 19.4044 42.4429 19.6521L43.0707 20.0265C43.0986 19.917 43.1091 19.7913 43.0986 19.6482L43.2589 19.655C43.2694 19.8249 43.2522 19.9775 43.2109 20.11L43.5373 20.3049L43.4653 20.4537ZM42.0205 19.2825C42.0493 19.3881 42.1069 19.4514 42.3162 19.5734C42.535 19.3554 42.5955 19.2431 42.561 19.1154C42.5254 18.982 42.4064 18.9177 42.2403 18.9628C42.0598 19.0108 41.9811 19.1394 42.0205 19.2825ZM43.0112 20.183L42.3219 19.7721C42.079 20.013 42.0224 20.1494 42.0656 20.3078C42.1184 20.5026 42.3267 20.5833 42.585 20.5142C42.7789 20.4623 42.9248 20.3519 43.0112 20.183Z" fill="#2E353A"/>
<path d="M43.2485 19.0684C43.1698 18.7766 43.2821 18.5376 43.5221 18.4732C43.7602 18.4089 43.9781 18.5568 44.0578 18.8505C44.1365 19.1452 44.0223 19.3814 43.7842 19.4457C43.5433 19.51 43.3263 19.3603 43.2485 19.0684ZM43.9292 18.8851C43.8668 18.6518 43.7189 18.5433 43.5529 18.5884C43.3839 18.6336 43.3138 18.8035 43.3762 19.0339C43.4386 19.2643 43.5836 19.3766 43.7525 19.3305C43.9186 19.2854 43.9916 19.1184 43.9292 18.8851ZM44.6117 18.1939L44.7625 18.1536L44.0204 20.2742L43.8697 20.3145L44.6117 18.1939ZM44.5733 19.6176C44.4946 19.3257 44.6089 19.0867 44.8469 19.0224C45.0879 18.958 45.3039 19.1078 45.3817 19.3996C45.4604 19.6915 45.349 19.9305 45.1081 19.9948C44.8709 20.0592 44.6521 19.9094 44.5733 19.6176ZM45.2549 19.4352C45.1935 19.2048 45.0476 19.0924 44.8786 19.1385C44.7125 19.1836 44.6396 19.3507 44.702 19.584C44.7644 19.8172 44.9122 19.9257 45.0783 19.8806C45.2473 19.8345 45.3164 19.6656 45.2549 19.4352Z" fill="#2E353A"/>
<g opacity="0.7">
<path d="M37.3624 24.1143L36.0078 26.5978L36.3937 24.4119L37.3624 24.1143Z" fill="white" stroke="#777477" stroke-width="0.096" stroke-miterlimit="10"/>
</g>
<path d="M2.63281 15.8553C2.63281 15.8553 2.91217 22.3027 9.45745 25.6694" stroke="#898989" stroke-width="0.192" stroke-miterlimit="10" stroke-linecap="round" stroke-linejoin="round"/>
<path d="M25.4502 38.1273C25.4502 38.1273 29.1193 43.4361 36.4518 42.8025" stroke="#898989" stroke-width="0.192" stroke-miterlimit="10" stroke-linecap="round" stroke-linejoin="round"/>
<path d="M32.8223 40.2826C32.8223 40.2826 37.1317 41.8339 41.1032 38.4423" stroke="#898989" stroke-width="0.192" stroke-miterlimit="10" stroke-linecap="round" stroke-linejoin="round"/>
<path d="M6.12793 19.2844C6.12793 19.2844 7.65145 23.6035 12.7903 24.5356" stroke="#898989" stroke-width="0.192" stroke-miterlimit="10" stroke-linecap="round" stroke-linejoin="round"/>
<path d="M40.8935 32.0659C40.8935 32.0659 40.2561 27.5309 35.4023 25.5994" stroke="#898989" stroke-width="0.192" stroke-miterlimit="10" stroke-linecap="round" stroke-linejoin="round"/>
</g>
</g>
<defs>
<clipPath id="clip0_1146_49389">
<rect width="48" height="48" rx="24" fill="white"/>
</clipPath>
<clipPath id="clip1_1146_49389">
<rect width="48" height="48" fill="white"/>
</clipPath>
</defs>
</svg>
