<svg width="48" height="48" fill="none" xmlns="http://www.w3.org/2000/svg"><g clip-path="url(#a)"><rect width="48" height="48" rx="24" fill="#fff"/><path opacity=".54" d="M24.981-1.795H-2.313a.832.832 0 0 0-.833.832v48.576c0 .46.374.832.833.832H24.98c.46 0 .832-.374.832-.832V-.962a.832.832 0 0 0-.832-.833Zm0 1.849v47.559H-2.313V.053" fill="#9B9A9A"/><g opacity=".54"><path opacity=".7" d="M24.448-1.379H-1.781a.95.95 0 0 0-.95.95V47.08c0 .525.426.95.95.95h26.228a.95.95 0 0 0 .95-.95V-.429a.948.948 0 0 0-.95-.95Z" fill="#EFEFEF"/><mask id="b" style="mask-type:luminance" maskUnits="userSpaceOnUse" x="-3" y="-2" width="29" height="51"><path d="M24.448-1.379H-1.781a.95.95 0 0 0-.95.95V47.08c0 .525.426.95.95.95h26.228a.95.95 0 0 0 .95-.95V-.429a.948.948 0 0 0-.95-.95Z" fill="#fff"/></mask><g mask="url(#b)"><path d="m16.671 26.687 2.928 9.524h2.921l-2.55-11.64s-.229-10.723-2.671-11.789c-1.074-.469-3.237-.347-4.694-.192V11.093a3.153 3.153 0 0 0 1.141-2.423v-.168c.289-.663.687-1.977.412-3.82a3.944 3.944 0 0 0-.04-.222 3.102 3.102 0 0 0-.955-1.692S11.08.575 8.056 2.47l.358.11s-1.075.286-1.65 1.791a1.49 1.49 0 0 1 .503-.286s-1.006 1.641.17 3.73v.858c0 .97.445 1.844 1.14 2.423v1.417c-.17.021-.349.048-.534.084-1.457-.157-3.66-.287-4.748.188C.851 13.85 1.354 24.572 1.354 24.572l-1.21 11.64h17.108l-1.527-9.028a19.118 19.118 0 0 1-.114-2.61c.393.875.755 1.611 1.06 2.112Z" fill="#A8A8A8"/><path d="M8.357 6.62c.18.567.826.881 1.436.692-.38-.814-1.436-.693-1.436-.693ZM10.998 7.314c.61.188 1.256-.125 1.436-.693.001-.002-1.054-.123-1.436.693Z" fill="#4F4E4E"/><path d="M26 23.892c-.25-.177-1.096-.065-2.07.147-1.197-.935 1.542-1.646 1.863-4.29.337-2.778-1.264-2.815-1.98-4.18-.566-1.08.214-2.894.424-3.985.332-1.732.273-3.6-.763-5.102-.768-1.116-2.056-1.787-3.405-1.445-.879.222-1.705.826-2.04 1.66a5.313 5.313 0 0 0-4.576 1.353c-.81.754-1.604 1.777-2.214 3.16-.82 1.86-.464 3.54.24 4.874v1.41c0 1.778.928 3.35 2.323 4.257l-.04.005v3.885s-5.827-.874-6.51 0c-.684.874-6.02 21.973-6.02 21.973h29.624C29.69 30.109 26.68 24.377 26 23.893Z" fill="#8E8E8E"/><path d="M12.215 15.209c.278.88 1.277 1.363 2.22 1.073-.59-1.261-2.22-1.073-2.22-1.073ZM16.297 16.282c.944.29 1.943-.194 2.22-1.073 0 0-1.63-.188-2.22 1.073Z" fill="#4F4E4E"/><path d="M13.385 33.985c-.286-.537-1.492-1.229-2.667-1.804.764-1.942.51-5.015-.238-6.23-.819-1.327 1.01-2.237.507-3.986 1.29.043 2.123-8.847-6.071-8.847 0 0-3.14.12-4.287 2.103-1.147 1.984-4.086 2.808-3.691 5.138.394 2.33 1.47 2.07 1.361 3.4-.108 1.33-1.398 1.26-1.398 1.26s.452.81 1.685.322c-2.94 2.652.788 5.113.286 6.248-.502 1.136-1.971.598-1.971.598s.277.486 1.054.687c-.727.262-1.392.511-1.807.69-1.395.597-3.886 14.049-3.886 14.049H17.77c-.002 0-3.787-12.508-4.385-13.628Z" fill="#6D6C6C"/><path d="M3.632 20.505c.278.88 1.277 1.363 2.22 1.073-.588-1.263-2.22-1.073-2.22-1.073ZM7.714 21.578c.944.29 1.943-.194 2.22-1.073 0 0-1.631-.19-2.22 1.073Z" fill="#4F4E4E"/></g></g><path d="M36.022 20.242c-.682-2.357-1.617-3.032-1.617-3.032a5.055 5.055 0 0 0-1.228-.99c.245-.22.313-.562-.004-1.097-.997-1.676-3.922-1.035-4.43-.245-.389.605-.28 1.008-.096 1.252-1.535.755-2.135 1.988-2.886 2.883a3.101 3.101 0 0 1-.561.518 2.97 2.97 0 0 1-.7.381c-.512.191-1.22.315-2.1.13a.768.768 0 0 0 .254.752c-.905.554-1.52 1.353-1.541 2.878-.034 2.45-2.43 2.99-1.822 5.182.608 2.192 3.343 2.718 8.138 1.638s7.88-2.597 8.867-5.139c.272-.698.267-1.659.117-2.686.863.366 1.146-.229 1.146-.229s-.855.161-1.537-2.196Z" fill="#49372A"/><path d="M31.356 21.612s4.696.465 8.554 5.68c3.859 5.217 5.073 10.577 3.859 12.72-1.215 2.143-2.96 1.892-4.86-.541-1.898-2.433-7.553-17.859-7.553-17.859Z" fill="#605A5A"/><path d="M39.594 47.04s3.866.24 3.866 1.406h-6.1V47.04h2.234Z" fill="#515151"/><path d="M35.894 27.338c-.75-1.929-3.536-4.287-7.54-3.572 0 0-3.501.215-5.787 5.931-1 2.499-3.232 4.9-3.842 6.485-.702 1.824-.675 3.476.665 4.866.802.833 1.905 1.31 3.057 1.428l2.898.298c1.388-4.236 2.015-6.556 3.894-8.532 1.245-1.31 3.183-1.772 4.83-1.026.317.144.6.328.792.56 1.63-1.428 3.517-.836 3.517-.836s-1.734-3.673-2.484-5.601Z" fill="#605A5A"/><path d="M34.967 24.002s-.778 1.282-.5 3.105c.277 1.823.473 2.46.473 2.46" stroke="#222221" stroke-width=".105" stroke-miterlimit="10" stroke-linecap="round" stroke-linejoin="round"/><path d="M21.153 33.381s-.088 2.907 1.478 5.366c.925-.777 1.129-.804 1.129-.804l-2.607-4.562Z" fill="#28201E"/><path d="M40.453 32.885c-.764-2.15-2.797-4.984-5.27-3.353-2.151 1.42-3.691 5.451-4.655 7.98h-3.815s-3.43 8.146 2.906 10.934h6.265c1.023 0-.282-.53.002-1.224l4.884-.051c-.002 0 1.295-9.746-.317-14.286Z" fill="#878787"/><path d="M35.137 31.406s.652-1.79 1.58 1.063c.93 2.853 1.485 5.846 1.075 14.682" stroke="#fff" stroke-width=".116" stroke-miterlimit="10"/><path d="M34.3 30.554s1.563 1.29 2.377 5.261c.693 3.388.441 11.226.441 11.226l-.007.112" stroke="#222221" stroke-width=".105" stroke-miterlimit="10" stroke-linecap="round" stroke-linejoin="round"/><path d="M34.917 47.04s3.866.24 3.866 1.406h-6.1V47.04h2.234Z" fill="#515151"/><path d="M35.666 32.885c-.764-2.15-2.602-4.316-5.27-3.353-2.424.877-3.692 5.451-4.655 7.98-1.444.035-3.26.086-4.085 1.078 0 0-.67 2.965-.503 4.42.24 2.08.962 4.242 3.679 5.437h6.264c.499-.583.877-.575 1.161-1.27l3.746-.054c-.001-.002 1.275-9.698-.337-14.238Z" fill="#878787"/><path d="M24.875 43.125s.134-4.432 1.65-7.886" stroke="#222221" stroke-width=".105" stroke-miterlimit="10" stroke-linecap="round" stroke-linejoin="round"/><path d="M22.542 37.953s-.823 4.469 1.218 7.39c.752 1.077 1.96 2.084 3.286 1.312 1.695-.986 2.269-3.154 2.608-4.949.343-1.817.503-3.666.69-5.505.12-1.174.22-2.364.464-3.52.077-.366.238-1.471.784-1.471 1.474 0 2.998 9.656 2.302 15.944" stroke="#fff" stroke-width=".116" stroke-miterlimit="10"/><path d="M20.54 40.093s.768-2.533 4.087-2.59M30.89 27.758l2.145-2.224" stroke="#222221" stroke-width=".105" stroke-miterlimit="10" stroke-linecap="round" stroke-linejoin="round"/><path d="M32.683 42.516s0 4.842-2.12 5.929h2.12v-5.929Z" fill="#28201E"/><path d="M32.878 40.365s-.021.514 1.292 1.344c1.313.83 1.9 1.244 2.192.847.691.358.76.107.918-.026.568.084.407-.288.072-.492-.335-.205-1.374-.876-1.374-.876l.951.41s.555.3.644.097c.088-.203-2.246-1.655-2.246-1.655s1.12.343 1.52-.068c.195-.218-.72-.292-1.68-.726-.96-.435-1.79-.007-1.79-.007l-.499 1.152Z" fill="#FCDAC8"/><path d="M42.175 39.768a1.232 1.232 0 0 1-.317 1.415 5.755 5.755 0 0 1-.718.526c-1.314.83-1.9 1.244-2.193.847-.69.358-.76.106-.917-.026-.568.084-.407-.288-.072-.493.334-.204 1.374-.875 1.374-.875l-.952.41s-.555.3-.643.097c-.088-.203 2.246-1.655 2.246-1.655s-1.121.343-1.52-.068c-.195-.219.72-.292 1.68-.726a2.17 2.17 0 0 1 .92-.194c.486 0 .92.297 1.112.742Z" fill="#FCDAC8"/><path d="M28.608 21.729s-4.197.562-6.27 3.849c-2.072 3.287-1.469 10.18.277 11.872 2.806 2.72 5.263 1.42 6.385 2.776 1.122 1.358 4.288 2.288 5.553-.287 1.266-2.574.786-4.573-4.645-7.788-4.18-2.474-2.11-7.683-.742-10.241.41-.765-.558-.181-.558-.181Z" fill="#605A5A"/><path d="m30.34 21.48-2.57 2.54 2.517 3.738 2.599-3.266-2.546-3.012Z" fill="#FCDAC8"/><path d="M28.388 21.654s-.36 1.807.606 1.891c.966.085.929-2.588.005-2.668-.58-.05-.611.777-.611.777Z" fill="#FCDAC8"/><path d="M28.959 23.764s-.108 2.129 2.252 2.833l.957-1.203-3.21-1.63Z" fill="#28201E"/><path d="M35.854 22.388s.042 1.842-.922 1.759c-.967-.085-.47-2.71.454-2.63.58.05.468.871.468.871Z" fill="#FCDAC8"/><path d="M31.736 26.317a3.098 3.098 0 0 0 3.345-2.81l.155-1.78a3.099 3.099 0 0 0-2.81-3.346 3.099 3.099 0 0 0-3.345 2.81l-.155 1.78a3.098 3.098 0 0 0 2.81 3.346Z" fill="#FCDAC8"/><path opacity=".69" d="M34.434 22.45s.33.095.254.963c-.066.75-.356 1.229-.356 1.229s.382.079.461-.57c.083-.68.162-1.437-.36-1.623Z" fill="#fff"/><path d="m32.442 21.26.09 1.652s.535.067.424.34c-.112.272-.522.2-.522.2M32.48 24.504s-.427-.315-1.27-.191" stroke="#49372A" stroke-width=".087" stroke-miterlimit="10" stroke-linecap="round" stroke-linejoin="round"/><path opacity=".6" d="M29.168 22.46c-.015.174.157.33.387.35.228.02.426-.104.441-.278.015-.173-.157-.33-.387-.35-.23-.02-.426.105-.441.278ZM34.103 22.89c-.014.173.158.33.387.35.228.019.427-.105.442-.279.015-.173-.158-.33-.387-.35-.228-.02-.427.105-.442.279Z" fill="#F2B0AD"/><path d="M30.288 27.758s-2.093-1.765-2.617-4.123a6.869 6.869 0 0 1 .535-1.832s-2.23-.695-4.657 1.01c-1.785 1.253-.649 3.007-.649 3.007s3.213 4.67 7.388 1.938Z" fill="#605A5A"/><path opacity=".69" d="M30.55 22.325s-.243-.026-.256.392c-.01.373-.074.651-.23.543-.132-.093.06-1.066.486-.935Z" fill="#fff"/><path d="M26.87 19.266c-.67.904-.402 2.161.524 2.8.036.025.072.052.108.08.86.679 2.103.307 2.604-1.525.502-1.831 2.002.238 3.266-1.617.49 1.605 1.239 2.266 1.79 2.536a.47.47 0 0 0 .67-.48c-.151-1.343-.817-4.244-3.75-4.244-2.534.001-4.14 1.007-5.211 2.45Z" fill="#49372A"/><path d="M29.597 21.884a1.294 1.294 0 1 0 2.586.127 1.294 1.294 0 0 0-2.586-.127ZM32.775 22.041a1.294 1.294 0 1 0 2.586.128 1.294 1.294 0 0 0-2.586-.128ZM32.18 22.012l.596.03" stroke="#7C7C7C" stroke-width=".105" stroke-miterlimit="10"/><path d="M26.745 22.813s2.047 2.16 3.625 5.224M22.771 24.985s1.317-1.38 2.937-1.221c1.62.158 2.543 1.512 2.96 2.652.419 1.14-.073 4.62-.073 4.62M25.259 30.864s1.093-.406 2.916.171M26.718 30.365s.816-.028 1.363.361M28.839 39.633s-.206-1.861 1.532-3.127M39.805 29.962s.287-.326 1.189-.21M28.804 27.09l1.256 1.524M41.263 36.25s1.648.3 2.431 1.55M41.455 39.092s1.448.742.484 2.014M32.683 47.17l4.426-.017M40.769 47.171l-3.66-.018M36.062 47.743l.468-.529M36.531 47.874l.47-.527M37 48.007l.469-.528M40.75 47.743l.47-.529M41.22 47.874l.47-.527M41.69 48.007l.47-.529" stroke="#222221" stroke-width=".105" stroke-miterlimit="10" stroke-linecap="round" stroke-linejoin="round"/><path opacity=".69" d="M30.048 24.692s-.016.488 0 .716c.016.227.132.643.489.472-.334-.352-.407-.457-.489-1.188Z" fill="#fff"/><path d="M22.771 20.874s.613.381 1.46.1M26.845 20.976s.626.54 1.638.102M27.58 20.874s.88.128 1.434-.964M28.839 16.076s.436-.442 1.614-.442M32.974 16.076s-.44-.332-1.121-.369" stroke="#33251C" stroke-width=".087" stroke-miterlimit="10" stroke-linecap="round" stroke-linejoin="round"/><path d="M35.975 21.765s.095.48.386.731M25.024 41.308s-.575.463-.744 1.327" stroke="#222221" stroke-width=".105" stroke-miterlimit="10" stroke-linecap="round" stroke-linejoin="round"/><g opacity=".82"><path d="M28.336 7.206h-6.153a2.172 2.172 0 0 0-2.166 2.166c0 1.192.974 2.167 2.166 2.167h.105v1.25l1.251-1.25h4.795a2.172 2.172 0 0 0 2.167-2.167 2.17 2.17 0 0 0-2.165-2.166Z" fill="#fff" stroke="#606060" stroke-width=".116" stroke-miterlimit="10"/><path d="M24.476 9.511s-.183.237-.42.464c-.237.228.043.656-.14.692-.184.034-.35-.149-.29-.578.035-.298-.2-.42-.2-.42V8.38s.7-.166 1.05.184h.306v.941l-.306.005Z" fill="#A3A3A3"/><path d="M23.094 9.382h.418c.097 0 .176.08.176.176 0 .097-.08.176-.176.176h-.418a.177.177 0 0 1-.176-.176c0-.096.08-.176.176-.176ZM23.094 9.03h.418c.097 0 .176.08.176.176 0 .097-.08.176-.176.176h-.418a.177.177 0 0 1-.176-.176c0-.097.08-.176.176-.176ZM23.094 8.677h.418c.097 0 .176.079.176.176 0 .096-.08.176-.176.176h-.418a.177.177 0 0 1-.176-.176c0-.097.08-.176.176-.176ZM23.155 8.362h.375a.158.158 0 0 1 0 .315h-.375a.158.158 0 0 1 0-.315Z" fill="#A3A3A3"/><path d="M26.857 10.858a1.352 1.352 0 1 0 0-2.703 1.352 1.352 0 0 0 0 2.703Z" fill="#636262"/><path d="m27.4 10.075-.008-.007a.765.765 0 0 0-1.08.007" stroke="#fff" stroke-width=".105" stroke-miterlimit="10" stroke-linecap="round" stroke-linejoin="round"/><path d="M26.231 9.344a.163.163 0 0 0 .325 0 .163.163 0 0 0-.162-.163.163.163 0 0 0-.163.163ZM27.155 9.344a.163.163 0 0 0 .325 0 .163.163 0 0 0-.162-.163.163.163 0 0 0-.163.163Z" fill="#fff"/><path d="M27.09 9.225s.114-.232.455-.212M26.62 9.225s-.112-.232-.453-.212" stroke="#fff" stroke-width=".105" stroke-miterlimit="10" stroke-linecap="round" stroke-linejoin="round"/></g><g opacity=".84"><path d="M-5.814 11.697H.339c1.191 0 2.166.975 2.166 2.167A2.172 2.172 0 0 1 .339 16.03H.233v1.251l-1.25-1.251h-4.797a2.172 2.172 0 0 1-2.166-2.167c0-1.191.974-2.166 2.166-2.166Z" fill="#fff" stroke="#606060" stroke-width=".116" stroke-miterlimit="10"/><path d="M-.41 15.025a1.365 1.365 0 1 0-1.641-2.182 1.365 1.365 0 0 0 1.64 2.182Z" fill="#898989"/></g><g opacity=".54"><path d="M1.158 1.315h3.987c.773 0 1.404.632 1.404 1.403 0 .773-.632 1.404-1.404 1.404h-.068v.811l-.81-.81h-3.11A1.408 1.408 0 0 1-.245 2.717a1.407 1.407 0 0 1 1.404-1.403Z" fill="#fff"/><path d="M4.533 3.125a.329.329 0 1 0 0-.657.329.329 0 0 0 0 .657ZM1.768 2.468a.33.33 0 1 1-.001.658.33.33 0 0 1 .001-.658ZM3.15 2.468a.33.33 0 1 1 0 .658.33.33 0 0 1 0-.658Z" fill="#28201E"/></g><path opacity=".72" d="M15.744 36.895v-1.372H-1.962v8.517h17.706v-7.145Z" fill="#7B7C7B"/><path d="M15.062 34.84H-2.644v8.517h17.706V34.84Z" fill="#fff"/><path d="m13.376 43.348 1 2-.405-2h-.595Z" fill="#F5F5FA"/><path d="M15.062 34.84H-2.644v1.372h17.706V34.84Z" fill="#606060"/><path d="M3.095 35.269H-.883v.514h3.978v-.514Z" fill="#fff"/><path d="m.254 41.068.527-2.941a1.408 1.408 0 0 0-2.573.792c.057 1.693 2.118 2.99 2.62 3.282l.489-2.216-1.063 1.083Z" fill="#898989"/><path d="M3.783 38.918a1.408 1.408 0 0 0-2.467-.928l-.342 1.914 1.128-1.15-.73 3.31c.742-.494 2.528-1.82 2.411-3.146Z" fill="#898989"/><path d="M5.24 37.353v1.733h-.21v-1.733h.21Zm1.09 1.733v-1.733h.21v.772h.924v-.772h.21v1.733h-.21v-.775h-.923v.775h-.21Zm1.835 0h-.22l.637-1.733h.216l.637 1.733h-.22l-.518-1.459h-.014l-.518 1.459Zm.082-.677h.886v.186h-.886v-.186Zm1.16-.87v-.186h1.3v.186h-.545v1.547h-.21v-1.547h-.545Zm1.624 1.547v-1.733h1.045v.186h-.835v.586h.781v.186h-.781v.589h.849v.186h-1.06ZM4.881 39.622h.24l.481.81h.02l.481-.81h.24l-.626 1.019v.714h-.21v-.714l-.626-1.019Zm3.114.867c0 .182-.033.34-.099.473a.743.743 0 0 1-.271.308.726.726 0 0 1-.395.109.726.726 0 0 1-.394-.109.743.743 0 0 1-.272-.308 1.055 1.055 0 0 1-.099-.473c0-.183.033-.341.1-.474a.743.743 0 0 1 .271-.308.726.726 0 0 1 .394-.108c.148 0 .28.036.395.108a.743.743 0 0 1 .271.308c.066.133.1.29.1.474Zm-.203 0a.864.864 0 0 0-.075-.38.524.524 0 0 0-.486-.314c-.106 0-.2.026-.286.08a.553.553 0 0 0-.202.234.872.872 0 0 0-.074.38c0 .15.024.276.074.38.05.103.118.18.202.234.085.053.18.08.285.08a.524.524 0 0 0 .487-.315.864.864 0 0 0 .075-.38Zm1.693-.867h.21v1.148a.587.587 0 0 1-.318.536.754.754 0 0 1-.356.08.754.754 0 0 1-.355-.08.593.593 0 0 1-.235-.22.61.61 0 0 1-.083-.316v-1.148h.21v1.13c0 .085.018.16.056.226a.4.4 0 0 0 .159.155.52.52 0 0 0 .248.056.52.52 0 0 0 .25-.056.394.394 0 0 0 .158-.155.452.452 0 0 0 .056-.225v-1.13Z" fill="#595959"/><g opacity=".65"><path opacity=".7" d="M45.219 2.362V12.38H32.77V1.262H45.22v1.1Z" fill="#9B9A9A"/><path d="M45.594.885H33.27v10.993h12.324V.885Z" fill="#fff"/><path d="M45.533.947v10.869H33.334V.947h12.2Zm.124-.124H33.21V11.94h12.448V.823Z" fill="#898989"/><path d="M34.138 11.96h.306l-.514 1.03.208-1.03Z" fill="#F5F5FA"/><path d="m34.395 11.99-.389.778.157-.777h.232Zm.1-.061h-.382l-.26 1.284.643-1.284Z" fill="#7C7B7B"/><path d="M33.21 1.924h12.447v-1.1H33.21v1.1Z" fill="#A8A8A8"/><path d="M44.834 1.58a.206.206 0 1 0 0-.412.206.206 0 0 0 0 .412Z" fill="#7C7C7C"/><path d="M40.823 1.58h3.416v-.412h-3.416v.413Z" fill="#fff"/><path d="m39.016 6.617.656 3.02L37.71 5.2l1.963.852-.85-2.46a3.26 3.26 0 0 1 1.314-.02l.775 4.284-1.896-1.239Z" fill="#919191"/><path d="m40.312 9.58-.632 1.279.568-2.164.462.872.4-1.132a1.497 1.497 0 0 1 .48.37l-.953 1.769-.325-.993Z" fill="#AAA9A9"/><path d="m42.17 3.68.18-.5.405.145.108-.479.534.192-.108.479.331.12.108-.48.535.193-.108.478.467.169-.18.5-.405-.144-.102.439.468.168-.18.501-.404-.145-.108.479-.535-.192.108-.479-.33-.119-.109.479-.534-.193.108-.478-.468-.169.18-.5.404.144.102-.439-.468-.168Zm.9.8.33.12.102-.44-.33-.118-.102.439Z" fill="#7C7C7C"/><path d="m33.847 9.051.181-.5.404.144.108-.478.535.192-.108.478.33.12.109-.48.534.193-.108.479.468.168-.181.501-.404-.145-.102.44.467.168-.18.5-.404-.144-.108.478-.534-.192.108-.479-.331-.119-.108.479-.535-.192.108-.479-.467-.168.18-.501.404.145.102-.44-.468-.168Zm.9.8.331.119.102-.439-.33-.12-.103.44ZM33.814 3.567l-.097-.035a.107.107 0 0 1-.064-.137l.038-.105a.107.107 0 0 1 .137-.064l.033.012A.106.106 0 0 0 34 3.161l.012-.057a.106.106 0 0 1 .14-.077l.123.045c.051.018.08.07.067.123l-.025.107a.106.106 0 1 0 .206.046l.013-.057a.106.106 0 0 1 .139-.077l.123.045c.051.019.08.07.067.123l-.024.108a.105.105 0 0 0 .067.122l.096.035c.055.02.085.08.065.137l-.039.105a.107.107 0 0 1-.136.064l-.033-.012a.106.106 0 0 0-.14.076l-.013.058a.107.107 0 0 0 .067.124l.096.035c.054.02.084.08.064.136l-.038.105a.107.107 0 0 1-.137.065l-.033-.012a.106.106 0 0 0-.14.076l-.012.057a.106.106 0 0 1-.139.077l-.123-.044a.104.104 0 0 1-.068-.123l.025-.108a.105.105 0 1 0-.206-.046l-.012.057a.106.106 0 0 1-.139.077l-.124-.045a.104.104 0 0 1-.067-.122l.025-.108a.105.105 0 0 0-.067-.123l-.097-.035a.107.107 0 0 1-.064-.136l.038-.105a.107.107 0 0 1 .137-.065l.033.012a.106.106 0 0 0 .14-.075l.013-.058a.104.104 0 0 0-.066-.124Zm.387.265-.014.058a.106.106 0 1 0 .206.048l.014-.058a.107.107 0 0 0-.067-.124.107.107 0 0 0-.14.076Z" fill="#AAA9A9"/><path d="m41.623 7.202-.12-.325.262-.096-.147-.283.346-.128.147.283.214-.08-.146-.282.346-.128.146.283.303-.113.12.325-.262.097.134.26.303-.113.12.325-.262.097.147.283-.346.127-.147-.282-.214.079.146.283-.346.127-.146-.282-.303.112-.12-.324.262-.097-.134-.26-.303.112Zm.783.02.214-.08-.134-.26-.214.08.134.26ZM36.59 3.954l-.12-.325.261-.097-.146-.283.346-.127.146.282.215-.08-.147-.282.346-.128.147.283.302-.113.12.325-.261.097.134.26.303-.113.12.325-.262.097.146.283-.346.128-.146-.283-.214.08.146.282-.346.128-.146-.283-.303.113-.12-.325.261-.097-.133-.26-.303.113Zm.782.02.215-.08-.134-.26-.215.079.134.26ZM37.95 9.893l-.62.283-2.384-4.093 1.808-1.119 1.196 4.93Zm.112 1.066c-.267.123-.535.028-.636-.192-.101-.223.006-.477.274-.6s.531-.037.633.185c.101.22-.002.485-.27.607Z" fill="#7C7C7C"/><path d="m42.43 10.854-.41-.295 1.762-3.043 1.386.754-2.739 2.584Zm-.647.464c-.177-.128-.214-.335-.11-.48.106-.148.31-.171.487-.043.178.127.22.328.113.476-.104.145-.313.176-.49.047Z" fill="#919191"/></g><path d="M31.32 22.056a.528.528 0 0 1-.116.262c-.13.15-.355.2-.526.108-.171-.092-.257-.318-.216-.518.073-.364.473-.516.705-.323.047.038.086.09.115.158a.554.554 0 0 1 .038.313Z" fill="#49372A"/><path d="M31.32 22.056a.266.266 0 0 1-.133.034c-.106 0-.189-.098-.19-.216a.346.346 0 0 1 .17-.29c.047.038.087.09.115.157.042.098.055.21.038.315Z" fill="#F8FAFB"/><path d="M34.52 22.132a.5.5 0 0 1-.091.255.412.412 0 0 1-.486.142c-.168-.073-.266-.28-.244-.471.043-.348.406-.521.639-.357a.374.374 0 0 1 .12.14c.049.086.069.19.061.291Z" fill="#49372A"/><path d="M34.519 22.132a.237.237 0 0 1-.122.042c-.099.007-.185-.078-.196-.189a.329.329 0 0 1 .138-.286.375.375 0 0 1 .12.14.54.54 0 0 1 .06.293ZM30.586 21.869a.18.18 0 0 0 .13.198.176.176 0 0 0 .204-.12c.06-.226-.293-.321-.334-.078ZM33.806 22.012a.17.17 0 0 0 .138.176.165.165 0 0 0 .182-.13c.04-.215-.3-.28-.32-.046Z" fill="#F8FAFB"/><path d="M30.438 21.749a.067.067 0 0 1-.066-.054.067.067 0 0 1 .053-.079.668.668 0 0 0 .439-.324.067.067 0 0 1 .09-.026.066.066 0 0 1 .026.09.804.804 0 0 1-.528.391l-.014.002ZM34.535 21.794h-.01a1.104 1.104 0 0 1-.543-.213.062.062 0 0 1-.012-.088.062.062 0 0 1 .088-.012c.14.104.306.17.48.187.035.004.06.035.056.07a.062.062 0 0 1-.059.056ZM34.589 20.462c-.053.094-.35.076-.685.15-.337.063-.605.194-.688.127-.037-.032-.011-.12.096-.223.105-.102.295-.208.525-.255.231-.047.447-.023.58.03.137.054.194.125.172.17ZM30.64 20.237c.037.1.318.12.623.233.309.104.54.267.63.211.041-.027.029-.118-.056-.232a.997.997 0 0 0-.457-.316.998.998 0 0 0-.552-.042c-.138.036-.202.099-.187.146ZM33.066 20.869c0 .004-.039.01-.093-.013a.253.253 0 0 1-.144-.166.235.235 0 0 1 .06-.207c.04-.042.078-.051.079-.047.004.006-.025.023-.055.065a.231.231 0 0 0-.04.18c.017.07.071.123.115.149.044.026.08.032.078.039ZM32.319 20.419c.003-.004.037.013.064.064a.23.23 0 0 1 .001.215.254.254 0 0 1-.183.126c-.06.009-.096-.005-.095-.01.002-.006.036-.004.086-.02a.257.257 0 0 0 .15-.116.229.229 0 0 0 .01-.184c-.015-.046-.038-.07-.033-.075Z" fill="#49372A"/><path d="M34.09 19.135a.047.047 0 0 1-.046-.039.046.046 0 0 1 .037-.053.315.315 0 0 0 .257-.366.316.316 0 0 0-.366-.256.046.046 0 0 1-.053-.037.046.046 0 0 1 .037-.054.409.409 0 0 1 .14.805h-.006ZM34.982 18.527a.407.407 0 0 1-.375-.248.407.407 0 0 1-.004-.312.047.047 0 0 1 .06-.026c.024.01.035.036.026.06a.317.317 0 0 0 .586.237.047.047 0 0 1 .06-.027c.024.01.035.036.026.06a.41.41 0 0 1-.38.256ZM35.417 19.452h-.005a.409.409 0 0 1 .09-.81.047.047 0 0 1 .04.05.047.047 0 0 1-.05.041.316.316 0 0 0-.069.629.047.047 0 0 1 .041.05.048.048 0 0 1-.047.04ZM34.874 19.64a.047.047 0 0 1-.043-.063.26.26 0 0 0-.003-.2.26.26 0 0 0-.343-.138.26.26 0 0 0-.14.143.047.047 0 0 1-.06.026.047.047 0 0 1-.025-.06.348.348 0 0 1 .188-.193.354.354 0 0 1 .466.456.044.044 0 0 1-.04.029Z" fill="#D3ACAB"/></g><defs><clipPath id="a"><rect width="48" height="48" rx="24" fill="#fff"/></clipPath></defs></svg>