<svg width="48" height="48" fill="none" xmlns="http://www.w3.org/2000/svg"><g clip-path="url(#a)"><rect width="48" height="48" rx="24" fill="#fff"/><path opacity=".7" d="M37.126 11.295c-1.886-1.954-4.046-3.579-6.343-4.717-3.497-1.733-7.348-2.567-11.201-2.617C8.323 3.816 7.467 17.83 4.004 19.78c-3.46 1.948-9.735 2.178-9.952 9.972-.135 4.902.944 9.944 3.981 13.764 2.781 3.498 6.869 5.272 10.894 6.581 4.521 1.471 9.316 2.915 14.071 1.922 4.88-1.02 8.31-5.114 12.318-7.881 2.524-1.742 4.788-3.578 6.346-6.373.185-.334.36-.676.527-1.022 2.087-4.344 2.495-9.355 1.344-14.057-1.032-4.217-3.361-8.235-6.407-11.392Z" fill="#EFEFEF"/><g opacity=".54"><path d="M30.606 36.91h.525v-2.29h-.525v2.29Z" fill="#A6A7AD" stroke="#686868" stroke-width=".096" stroke-miterlimit="10"/><path d="M30.094 37.4h1.55l-.183-.888h-1.185l-.182.887Z" fill="#A6A7AD" stroke="#686868" stroke-width=".096" stroke-miterlimit="10"/><path d="M29.16 37.773h3.418l-.365-.818h-2.689l-.365.818ZM32.6 32.199c.668 0 1.21.564 1.21 1.26 0 .697-.542 1.261-1.21 1.261-.666 0-1.207-.564-1.207-1.26 0-.697.54-1.261 1.208-1.261Zm0 2.201c.499 0 .902-.42.902-.94s-.403-.941-.901-.941-.901.42-.901.94.403.941.9.941ZM28.954 32.199c.667 0 1.209.564 1.209 1.26 0 .697-.542 1.261-1.209 1.261-.666 0-1.208-.564-1.208-1.26 0-.697.54-1.261 1.208-1.261Zm0 2.201c.498 0 .901-.42.901-.94s-.403-.941-.9-.941c-.498 0-.902.42-.902.94s.403.941.901.941Z" fill="#A6A7AD" stroke="#686868" stroke-width=".096" stroke-miterlimit="10"/><path d="M30.868 35.251c.843 0 1.527-.7 1.527-1.564v-1.611H29.34v1.611c0 .864.683 1.564 1.527 1.564Z" fill="#A6A7AD" stroke="#686868" stroke-width=".096" stroke-miterlimit="10"/><path d="m30.91 32.59-.196.62h-.636l.515.383-.197.62.514-.384.515.383-.196-.62.514-.382h-.636l-.197-.62Z" fill="#686868"/></g><g opacity=".42" fill="#A6A7AD"><path d="M12.381 12.511h-1.23v2.042h1.23V12.51ZM13.875 11.637h-1.23v2.916h1.23v-2.916ZM15.368 11.04h-1.23v3.511h1.23v-3.51ZM16.863 10.247h-1.23v4.306h1.23v-4.306Z"/><path d="m16.137 8.965-.992.311.263.242-.706.767-1.654.315-1.74 1.335a.165.165 0 0 0-.03.23.162.162 0 0 0 .228.03l1.678-1.288 1.685-.32.778-.846.264.242.226-1.018Z"/></g><path d="M30.6 10.525ZM30.595 10.534l.003.002h-.006l.003-.002ZM30.59 10.536h-.003l.002-.001ZM30.602 10.535l.002-.004.018-.005-.017.01-.003-.001ZM30.602 10.531v.003l-.002-.002.002-.001ZM30.588 10.532v.001l-.001.001v-.002ZM30.59 10.535h.002-.001Z" fill="#F5F5F5"/><path d="m30.6 10.532.002-.001-.001.001ZM30.589 10.531v.001-.001ZM31.337 5.274l-.742 5.202-.736-5.203-.012.001-.983-7.01a12.437 12.437 0 0 1 3.501.017L31.36 5.277a.115.115 0 0 1-.023-.003ZM28.393 5.704l2.191 4.817-8.074-9.376a12.314 12.314 0 0 1 2.964-1.901l2.93 6.455a.046.046 0 0 0-.011.005Z" fill="#F5F5F5"/><path d="m35.68 9.045 6.701-1.962a12.254 12.254 0 0 0-1.433-3.207L30.63 10.521h-.018l.005-.007-.01.007v-.001h-.002l.002-.003.003-.023-.008.018v.008H30.6l-.003.005-.006-.005.001-.008-.01-.022.005.028-.001-.001v.001l-.014-.009.007.01h-.017l-10.356-6.72a12.226 12.226 0 0 0-1.463 3.22l11.816 3.5h-.023l.047.013-.019-.012.023.006v.005l-.002.001h-.002l-5.286-.005v-.009H18.26c.007 1.212.19 2.384.526 3.49l6.727-1.978a.037.037 0 0 1-.002-.012l5.074-1.484-.017.01.02-.01-.002-.002h.001l.003.002v-.002l.003.002h.002l.003.002.004-.002h-.007l.004-.003.003.003v-.002h.002l.001-.002v.001l.004.001h.004l.049-.014h-.02l5.037-1.473Zm-5.094 1.491.003-.001.001.001h-.004Zm.004-.004-.001.002-.002-.002h.003Zm.013.003-.003-.001.002-.002v.003Zm.019-.009-.017.01-.002-.001v-.004l.019-.005Z" fill="#F5F5F5"/><path d="m34.069 6.524-3.462 3.993 2.196-4.81-.002-.001 2.935-6.412c1.072.5 2.06 1.148 2.937 1.92l-4.605 5.31ZM20.274 17.19l5.861-3.783c.002.002.003.003.003.005l4.435-2.855-3.457 3.988.009.008-4.541 5.25a12.347 12.347 0 0 1-2.31-2.612ZM30.6 10.537v.001h.002l-.002.002h-.002.002l-.001-.002h-.001v-.002h.004l-.002.001ZM30.625 10.549l-.021-.006v-.006l.021.012ZM30.616 10.56l4.423 2.869.01-.017 5.797 3.752a12.337 12.337 0 0 1-2.286 2.606l-5.169-5.986-2.775-3.225ZM35.674 12.038l-5.069-1.502 12.238.013c-.01 1.2-.192 2.357-.522 3.45l-6.647-1.961c0 .001 0 .001 0 0ZM35.64 21.636c-1.04.474-2.16.807-3.33.974l-1.702-12.034 5.032 11.06ZM30.587 10.54v-.001.002ZM28.863 22.62a12.226 12.226 0 0 1-3.343-.957l5.06-11.087-1.717 12.045ZM30.6 10.557l-.006.04-.005-.04.006-.012.005.012ZM30.589 10.54v.001h-.001v-.001Z" fill="#F5F5F5"/><g opacity=".7" fill="#A6A7AD"><path d="M25.277 7.053c0 .017-.122.03-.271.03-.15 0-.272-.015-.272-.03 0-.017.122-.03.272-.03.15 0 .271.013.271.03ZM25.567 6.314c.016 0 .029.123.029.276 0 .152-.014.275-.03.275s-.029-.123-.029-.275c0-.153.013-.276.03-.276ZM25.873 7.035c0-.016.122-.03.271-.03.15 0 .272.015.272.03 0 .016-.122.03-.272.03-.15.001-.271-.013-.271-.03ZM25.587 7.775c-.017 0-.03-.123-.03-.275 0-.153.015-.276.03-.276.017 0 .03.123.03.276 0 .152-.013.275-.03.275ZM26.024 7.458c-.013.01-.066-.032-.12-.096-.054-.064-.086-.125-.073-.135.013-.01.067.032.12.096.053.064.086.124.073.135ZM26 6.62c.01.01-.024.066-.08.122-.055.056-.11.092-.122.08-.011-.01.023-.066.08-.122.055-.057.11-.092.121-.08ZM25.375 6.833c-.01.013-.061-.013-.115-.056-.052-.044-.087-.09-.077-.103.01-.013.062.013.116.057.053.043.088.09.076.102ZM25.349 7.203c.013.011-.018.065-.07.12-.049.055-.1.091-.113.08-.013-.012.018-.066.07-.12.05-.056.101-.092.113-.08ZM38.71 13.536c0 .01-.069.017-.155.017s-.155-.008-.155-.017c0-.009.07-.016.155-.016.086 0 .155.007.155.016ZM38.874 13.117c.009 0 .017.07.017.156 0 .087-.008.156-.017.156-.009 0-.017-.07-.017-.156s.008-.156.017-.156ZM39.049 13.526c0-.009.069-.017.155-.017.085 0 .155.008.155.017 0 .009-.07.017-.155.017-.086.001-.155-.007-.155-.017ZM38.885 13.946c-.01 0-.017-.07-.017-.156 0-.087.008-.157.017-.157.009 0 .016.07.016.157.002.087-.006.156-.016.156ZM39.138 13.767c-.008.006-.037-.018-.068-.055-.03-.036-.049-.07-.042-.077.007-.006.037.018.068.055.03.036.05.07.042.077ZM39.124 13.29c.006.007-.013.037-.045.07-.032.031-.063.052-.069.046-.006-.007.013-.038.045-.07.03-.033.063-.052.069-.046ZM38.77 13.412c-.007.008-.037-.008-.066-.032-.03-.024-.05-.051-.044-.059.007-.007.035.008.066.032.03.025.05.052.043.06ZM38.754 13.62c.006.007-.01.038-.04.069-.028.03-.058.05-.064.044-.007-.006.01-.037.04-.068.028-.03.056-.05.064-.044ZM25.002 16.864c0 .01-.069.017-.155.017-.085 0-.155-.008-.155-.017 0-.009.07-.016.155-.016.086 0 .155.007.155.016ZM25.163 16.444c.01 0 .017.07.017.156 0 .087-.008.156-.017.156-.009 0-.016-.07-.016-.156-.002-.085.006-.156.016-.156ZM25.336 16.854c0-.01.07-.017.155-.017.086 0 .155.008.155.017 0 .009-.07.016-.155.016-.086 0-.155-.007-.155-.016ZM25.173 17.274c-.01 0-.017-.07-.017-.156 0-.087.008-.156.017-.156.009 0 .017.07.017.156 0 .085-.008.156-.017.156ZM25.42 17.093c-.007.007-.036-.017-.067-.055-.03-.035-.049-.07-.042-.076.008-.007.037.018.068.055.03.037.05.071.042.076ZM25.41 16.617c.006.007-.013.037-.045.07-.032.031-.063.052-.069.046-.006-.007.013-.038.045-.07.03-.032.061-.052.07-.046ZM25.054 16.739c-.006.007-.035-.008-.065-.032-.03-.025-.05-.052-.044-.06.007-.007.035.009.066.033.03.026.05.052.043.059ZM25.038 16.949c.006.006-.01.037-.04.067-.028.031-.058.052-.064.045-.006-.006.01-.037.04-.068.028-.03.057-.05.064-.044ZM36.349 25.557c0 .009-.07.017-.155.017-.086 0-.155-.008-.155-.017 0-.009.07-.017.155-.017.086 0 .155.008.155.017ZM36.516 25.137c.009 0 .016.07.016.156 0 .087-.007.156-.016.156-.01 0-.017-.07-.017-.156-.001-.086.007-.156.017-.156ZM36.69 25.547c0-.01.07-.017.155-.017.086 0 .155.008.155.017 0 .009-.069.016-.155.016-.085.002-.155-.006-.155-.016ZM36.525 25.967c-.01 0-.017-.07-.017-.156 0-.088.008-.157.017-.157.008 0 .016.07.016.157s-.008.156-.016.156ZM36.775 25.787c-.008.006-.038-.018-.068-.055-.031-.036-.049-.07-.043-.077.008-.006.038.018.068.055.03.036.049.07.043.077ZM36.76 25.31c.007.007-.012.038-.044.07-.032.032-.063.053-.07.046-.006-.006.014-.037.045-.069.032-.033.063-.052.07-.046ZM36.407 25.431c-.006.008-.036-.007-.065-.032-.03-.024-.05-.05-.044-.058.006-.008.035.007.065.032.031.025.05.052.044.058ZM36.394 25.641c.007.007-.01.037-.04.068-.028.03-.057.051-.064.045-.006-.007.01-.037.04-.068.028-.03.058-.051.064-.045ZM36.578 11.262l.018.042c.03.074.09.133.165.164l.046.019-.045.018a.303.303 0 0 0-.166.166l-.013.031-.02-.038a.306.306 0 0 0-.167-.153l-.04-.014.053-.025a.3.3 0 0 0 .147-.155l.022-.055ZM38.558 10.52l.009.021a.151.151 0 0 0 .081.082l.024.009-.022.009a.148.148 0 0 0-.083.083l-.007.016-.009-.02a.15.15 0 0 0-.084-.076l-.02-.008.026-.013a.15.15 0 0 0 .073-.078l.012-.026ZM23.197 7.47l.01.02a.151.151 0 0 0 .081.083l.023.009-.021.009a.148.148 0 0 0-.084.083l-.006.015-.01-.019a.151.151 0 0 0-.084-.077l-.02-.007.027-.013a.15.15 0 0 0 .073-.078l.011-.026ZM24.043 18.897l.009.022a.151.151 0 0 0 .082.082l.023.009-.022.009a.147.147 0 0 0-.083.083l-.006.015-.01-.02a.151.151 0 0 0-.084-.076l-.02-.008.027-.012a.15.15 0 0 0 .073-.078l.011-.026ZM35.88 23.904l.009.022a.151.151 0 0 0 .082.082l.023.01-.022.008a.148.148 0 0 0-.083.083l-.007.016-.008-.02a.15.15 0 0 0-.085-.076l-.02-.008.026-.013a.15.15 0 0 0 .073-.078l.012-.026ZM26.983 5.255l.01.022a.151.151 0 0 0 .081.081l.023.01-.021.008a.148.148 0 0 0-.084.084l-.006.015-.009-.02a.15.15 0 0 0-.084-.076l-.02-.008.026-.013a.15.15 0 0 0 .073-.078l.011-.025ZM25.641 20.19l.018.042c.031.074.091.133.165.164l.046.019-.044.018a.303.303 0 0 0-.167.166l-.012.031-.02-.038a.306.306 0 0 0-.167-.153l-.04-.014.052-.025a.3.3 0 0 0 .148-.155l.021-.055Z"/></g><g opacity=".11" fill="#A6A7AD"><path d="m22.225 32.922 5.415-.248-.984 5.289-4.431-5.041Z"/><path d="m25.981 36.17-2.018-2.296-9.285 8.164 2.018 2.296 9.285-8.164Z"/></g><g opacity=".13" fill="#A6A7AD"><path d="m33.71 25.484 3.476-.16-.632 3.394-2.843-3.234Z"/><path d="m36.119 27.567-1.295-1.473-5.957 5.238 1.295 1.473 5.957-5.238Z"/></g><path d="M3.738 52.239c0-.002.01-.002.028-.003l.085-.003c.077 0 .188-.002.335-.005l1.297-.009 4.837-.016-.034.034-.01-4.558v-.043h.044l7.556-.008-.051.051c-.002-1.346-.002-2.763-.003-4.221v-.054h.054l7.037-.001h1.417l-.056.056.001-4.842v-.055h.055l8.515.006-.049.049.013-7.916v-.036h.036l5.348.017c.622.004 1.102.008 1.427.009l.369.005.093.003.032.002c0 .002-.01.002-.032.003l-.093.002-.37.006-1.426.008-5.348.017.036-.036c.004 2.21.007 4.882.013 7.916v.048h-.05l-8.514.007.055-.055.002 4.842v.056h-1.474l-7.037-.001.054-.054-.003 4.222v.05h-.051l-7.556-.007.044-.043-.01 4.558v.034h-.034l-4.837-.016-1.297-.01-.335-.004-.085-.003a.584.584 0 0 1-.028-.002Z" fill="#888889"/><path d="m16.837 19.988.877-.636a3.478 3.478 0 1 1 6.136 2.677 3.478 3.478 0 0 1-6.08-1.43v.002l-.933-.613Z" fill="#fff"/><path d="m16.837 19.988.058.04.175.12c.159.105.392.262.694.464.005.004.012.002.016-.004a.01.01 0 0 0 .003-.006v-.003l-.024.003a3.484 3.484 0 0 0 1.162 1.907c.15.112.3.237.476.331a3.479 3.479 0 0 0 2.58.386 3.47 3.47 0 0 0 2.349-1.905 3.438 3.438 0 0 0 .334-1.638l-.011-.217-.031-.212-.015-.107-.026-.103-.051-.208c-.02-.067-.046-.134-.068-.2-.024-.067-.043-.135-.075-.198-.06-.126-.113-.256-.189-.372a3.564 3.564 0 0 0-1.1-1.171 3.506 3.506 0 0 0-3.962.075c-.165.113-.306.247-.444.375-.126.14-.252.27-.352.414a3.48 3.48 0 0 0-.634 1.588l.005-.008-.651.482c-.072.052-.126.093-.165.123l-.054.044.06-.04.17-.12.653-.465a.023.023 0 0 0 .005-.008c.062-.438.23-1.011.64-1.57.1-.14.226-.268.35-.407.137-.125.276-.257.441-.368a3.454 3.454 0 0 1 2.516-.598c.477.07.958.247 1.39.531.43.288.81.681 1.082 1.155.075.115.126.242.186.367.032.062.05.128.074.194.022.065.049.13.067.197l.05.203.024.103.015.105.031.21.012.212a3.393 3.393 0 0 1-.328 1.611c-.233.49-.57.917-.977 1.233a3.481 3.481 0 0 1-2.707.698 3.446 3.446 0 0 1-1.175-.424c-.174-.093-.324-.215-.472-.326a3.485 3.485 0 0 1-1.163-1.882.012.012 0 0 0-.015-.009.012.012 0 0 0-.009.012v.002l.02-.01-.696-.448-.181-.115-.063-.043Z" fill="#8E8E8E"/><path d="M21.16 22.065a2.057 2.057 0 1 0 0-4.114 2.057 2.057 0 0 0 0 4.114Z" fill="#FF725E"/><path d="M21.16 22.065a2.057 2.057 0 1 0 0-4.114 2.057 2.057 0 0 0 0 4.114Z" fill="#919191"/><path d="M21.935 21.684a2.057 2.057 0 1 0-1.557-3.808 2.057 2.057 0 0 0 1.557 3.808Z" fill="#A6A7AD"/><path d="M22.132 20.754a1.377 1.377 0 1 0-1.948-1.948 1.377 1.377 0 0 0 1.948 1.948Z" fill="#fff"/><path d="M21.159 20.455a.675.675 0 1 0 0-1.35.675.675 0 0 0 0 1.35Z" fill="#A6A7AD"/><path d="m22.593 18.275-.057-.439.447-.477.032.473-.422.443ZM23.552 17.926l-.453-.037-.454.437.454.049.453-.45Z" fill="#7C7C7C"/><path opacity=".3" d="m21.248 19.771 1.573-1.2a2.012 2.012 0 0 0-.197-.24l-1.376 1.333v.107Z" fill="#000"/><path d="m23.032 17.766-.64.64-1.016 1.016-.233.233c-.074.074.041.188.115.114l.64-.64 1.017-1.017.233-.232c.074-.075-.041-.189-.116-.114Z" fill="#5B5B5B"/><path d="m10.45 22.147.364-4.057c.058-1.012.695-1.821 1.705-1.735l.093.012a1.813 1.813 0 0 1 1.55 1.908c-.055.876-.126 1.845-.2 2.309-.15.961-1.134.971-1.134.971-.003 0-.067.588-.095.872l-.122.662-.494-.251-1.668-.691Z" fill="#EFCDBB"/><path d="M12.832 21.523s-.611-.052-1.2-.551c0 0 .197.766 1.17.819l.03-.268Z" fill="#DBB3A2"/><path d="M12.476 18.12c-.008.043-.159.048-.329.095-.17.045-.302.118-.332.086-.012-.015.006-.058.056-.105a.573.573 0 0 1 .235-.127.554.554 0 0 1 .268-.01c.067.015.105.041.102.061ZM13.779 18.216c-.035.03-.151-.02-.296-.04-.144-.025-.271-.012-.294-.052-.01-.02.014-.05.072-.074.057-.024.148-.04.248-.024a.46.46 0 0 1 .228.098c.046.041.057.078.042.092Z" fill="#38302D"/><path d="M10.802 18.782c-.015-.009-.633-.29-.707.37-.075.662.605.599.607.58.004-.018.1-.95.1-.95Z" fill="#EFCDBB"/><path d="M10.513 19.459c-.002-.003-.013.006-.033.014a.115.115 0 0 1-.086-.008c-.066-.033-.114-.15-.104-.27a.38.38 0 0 1 .052-.161c.025-.046.06-.077.096-.08.035-.003.059.02.064.04.006.02.001.032.005.033.001.002.015-.009.013-.037a.077.077 0 0 0-.022-.044.089.089 0 0 0-.062-.025c-.05-.002-.102.04-.131.09a.393.393 0 0 0-.06.18c-.01.133.043.267.135.305a.125.125 0 0 0 .108-.005c.023-.017.028-.031.025-.032Z" fill="#DBB3A2"/><path d="M15.586 17.508a.16.16 0 0 0-.062-.1c-.07-.053-.159-.057-.243-.067a1.408 1.408 0 0 1-.588-.22.684.684 0 0 0 .192-.105c.119-.095.198-.251.166-.4-.006-.028-.018-.057-.044-.069-.041-.018-.084.02-.118.05-.111.098-.207.136-.352.104a.594.594 0 0 1-.243-.103l-.008-.01a13.8 13.8 0 0 0-.09-.114c-.22-.275-.414-.47-.624-.584-.309-.166-.842-.28-1.188-.23-.347.05-.68.288-.766.628-.17-.18-.454-.212-.695-.145l-.005-.003c-.266.063-.443.316-.548.568l-.016.043a1.01 1.01 0 0 1-.383.296c-.027.012-.056.026-.063.054-.006.029.016.054.036.073a.508.508 0 0 0 .197.11c-.03.06-.065.117-.105.17-.034.047-.075.1-.056.154.015.042.063.064.108.063a.296.296 0 0 0 .125-.041l-.109.196c.091.027.187.03.28.013.027.25.017.706.06.879.176.023.22.009.305.049.11.05.044.248.199.208.08-.02.228-.294.262-.368a3.804 3.804 0 0 0 .346-1.58c.119-.101.257-.18.405-.228l-.012.01c.281-.064.597-.121.84.035.188.122.281.34.41.522.246.345.547.548.965.613.005.296-.038.775-.055 1.049l.295-.519v.003a.794.794 0 0 0 .06-.091l.006-.009v-.001c.03-.049.06-.099.095-.146l.003.002c.133.148.372-.026.274-.2a.361.361 0 0 0-.074-.091c.06.07.158.112.249.096a.21.21 0 0 0 .173-.192.181.181 0 0 0-.091-.157c.117.023.243.01.353-.037.074-.033.149-.09.134-.178Z" fill="#38302D"/><path d="M11.91 16.433c.001.003-.044.02-.108.078a.706.706 0 0 0-.185.305 1.26 1.26 0 0 0-.053.243c-.01.09-.014.186-.019.287-.005.101-.01.209-.03.319-.008.055-.022.11-.04.165a.348.348 0 0 1-.087.155.148.148 0 0 1-.142.03.223.223 0 0 1-.116-.083c-.053-.08-.059-.174-.065-.256l.02.005a.804.804 0 0 1-.14.19.285.285 0 0 1-.2.08.185.185 0 0 1-.097-.03.161.161 0 0 1-.06-.073.163.163 0 0 1-.01-.089.121.121 0 0 1 .04-.071l.008.01a.62.62 0 0 1-.293.15c-.015.002-.023.004-.024.002l.023-.006a.636.636 0 0 0 .284-.156l.009.01c-.037.03-.045.09-.023.143.011.026.03.05.055.067a.174.174 0 0 0 .088.025.269.269 0 0 0 .186-.078.82.82 0 0 0 .135-.185l.018-.03.003.035c.006.083.013.173.061.246a.193.193 0 0 0 .103.074c.04.013.088.004.12-.026a.335.335 0 0 0 .08-.144c.019-.054.031-.108.042-.162.019-.107.024-.213.029-.315.005-.1.01-.198.02-.288.012-.09.031-.172.057-.245a.69.69 0 0 1 .194-.306c.07-.06.117-.076.117-.076ZM14.795 17.714s-.003.003-.01.005l-.025.016a.464.464 0 0 1-.043.021.858.858 0 0 1-.485.051 1.105 1.105 0 0 1-.56-.281 1.921 1.921 0 0 1-.436-.635c-.058-.125-.101-.252-.151-.37a1.25 1.25 0 0 0-.183-.319.665.665 0 0 0-.26-.2.457.457 0 0 0-.282-.024.559.559 0 0 0-.34.228c-.054.085-.063.141-.067.14l.001-.01a.501.501 0 0 1 .056-.134.559.559 0 0 1 .488-.25c.05.002.102.011.151.031.1.04.194.113.27.205.076.093.135.205.186.324.051.12.095.246.151.37.111.248.255.47.429.63.171.162.374.25.548.281a.87.87 0 0 0 .417-.02c.096-.03.143-.061.145-.059Z" fill="#2D2320"/><path d="M14.932 17.3a.775.775 0 0 1-.146.061 1.002 1.002 0 0 1-.38.038 1.106 1.106 0 0 1-.368-.1.985.985 0 0 1-.135-.082c.003-.004.053.029.141.069a1.138 1.138 0 0 0 .737.06c.094-.026.149-.05.151-.046Z" fill="#2D2320"/><path d="M13.118 20.222c-.014-.02-.147.082-.33.041-.183-.04-.278-.194-.297-.181-.01.005-.001.05.044.112a.42.42 0 0 0 .24.158.369.369 0 0 0 .27-.043c.06-.038.081-.078.073-.087Z" fill="#38302D"/><path d="M8.263 21.558s-.642-.281-1.152.264c-.51.545-2.382 4.19-2.629 4.877-.406 1.131.468 2.096 1.197 2.136.728.04 3.577-.877 3.577-.877l-.62-1.634-1.82.144 1.41-2.832.037-2.078ZM11.378 24.766s.701 3.555 1.035 3.843c.335.286 2.973 1.468 2.973 1.468l.79-1.284-2.097-1.277-.01-2.699c-.022-.761-.327-1.238-.676-1.494l-2.015 1.443Z" fill="#C4C4C4"/><path d="m12.861 22.344-.475.614-.294-.761-1.676-1.087-.487.469s-1.88.037-2.001.128c-.27.203-.764 3.247-.764 3.247l-.951 5.74c-.08.23.718.39 1.181.504l4.264.61s.507.12.651-.192c.117-.252.359-2.903.605-4.349.065-.383.124-1.751.124-1.751l.473-2.116-.513-.386-.137-.67Z" fill="#C4C4C4"/><path d="M7.478 25.162a.984.984 0 0 1-.08.2c-.057.12-.136.285-.228.465-.091.18-.177.343-.241.46-.064.116-.106.187-.113.183-.006-.004.026-.08.08-.2a15.436 15.436 0 0 1 .47-.924.953.953 0 0 1 .112-.184ZM11.996 22.219c.004.004-.059.073-.168.19-.109.114-.266.277-.45.465l-.014.014-.017-.013a11.013 11.013 0 0 1-1.102-.962 4.908 4.908 0 0 1-.205-.215.437.437 0 0 1-.07-.085.454.454 0 0 1 .084.07c.059.056.13.124.216.203a17.12 17.12 0 0 0 1.106.951l-.03.003c.187-.186.348-.343.463-.453.114-.11.183-.172.187-.168ZM13.29 24.241c.015.002-.012.351-.057.781-.046.43-.093.777-.107.776-.014-.001.013-.35.057-.781.046-.43.094-.777.108-.776Z" fill="#9B9B9B"/><path d="M15.209 28.361s.524-.88.634-.846c.11.035.166.264.1.432-.067.169-.252.844-.252.844l-.482-.43Z" fill="#EFCDBB"/><path d="m15.374 43.685-.52 2.343s2.236 1.143 2.183 1.585l-4.608-.672.659-3.684 2.286.428Z" fill="#494949"/><path d="M13.483 45.569a.19.19 0 0 0-.168.189.183.183 0 0 0 .187.169c.093-.007.191-.109.177-.202-.014-.093-.124-.183-.213-.154M12.429 46.94l.066-.371 4.427.804s.138.087.133.276l-4.626-.709Z" fill="#fff" opacity=".6"/><path d="M14.94 46.02c-.005.021-.12.01-.242.063-.124.049-.2.135-.218.122-.02-.008.038-.136.188-.196.15-.061.28-.01.272.01ZM15.388 46.305c.001.023-.103.043-.196.123-.096.078-.133.177-.156.172-.022 0-.013-.135.105-.232.117-.098.25-.084.247-.063ZM15.555 46.93c-.022.002-.032-.116.048-.227.08-.113.194-.14.2-.12.009.02-.07.074-.135.166-.067.091-.092.184-.113.182ZM15.007 45.47c-.013.02-.11-.03-.238-.046-.128-.018-.234.007-.242-.014-.01-.018.101-.083.252-.064.15.018.242.11.228.124Z" fill="#E2E2E2"/><path d="m15.283 44.149-.092.417-2.247-.435.067-.379 2.272.397Z" fill="#000" opacity=".3"/><path d="m8.057 47.922-.299 2.381s2.334.928 2.321 1.374l-4.65-.239.312-3.728 2.316.212Z" fill="#494949"/><path d="M5.802 19.87a1.773 1.773 0 1 0-3.524-.391 1.773 1.773 0 0 0 3.524.39Z" fill="#8C8C8C"/><path d="m25.625 40.167-1.77-4.109L5.727 18.842l-2.392 2.643 18.03 17.087 4.259 1.595Z" fill="#B2B2B2"/><path d="M21.367 38.572c.028-.175.18-.298.347-.235a.818.818 0 0 1 .045-.928.82.82 0 0 1 .893-.255.947.947 0 0 1 .297-.887.95.95 0 0 1 .92-.178l1.757 4.078-4.259-1.595Z" fill="#C7C9C9"/><path d="M24.914 38.515s-.835-.194-1.033.998l1.744.653-.711-1.651Z" fill="#595959"/><path d="M22.65 37.155 4.678 20.237l1.13-1.313 18.045 17.134.013.03s-.178-.072-.405-.045a.968.968 0 0 0-.493.207.914.914 0 0 0-.316.905ZM21.712 38.336 3.635 21.166l-.3.346 18.03 17.06s.03-.257.283-.252c.02.001.042.01.064.016Z" fill="#8C8C8C"/><path d="M5.908 19.003 3.386 21.54a.091.091 0 0 1-.13 0l-.78-.777a.091.091 0 0 1 0-.13l2.522-2.535a.091.091 0 0 1 .129 0l.78.777a.092.092 0 0 1 0 .13Z" fill="#E0E0E0"/><path d="M5.906 19.003s.006-.006.013-.021a.095.095 0 0 0 .004-.07c-.009-.03-.046-.054-.08-.089a57.793 57.793 0 0 1-.65-.636l-.056-.054c-.02-.02-.034-.037-.056-.042a.073.073 0 0 0-.063.01c-.017.013-.038.037-.056.056l-2.47 2.495a.068.068 0 0 0-.008.086c.023.025.057.059.087.087l.179.178a91.674 91.674 0 0 0 .52.517c.021.024.053.03.08.015.007-.004.013-.007.018-.012l.02-.021.042-.041.322-.322 1.116-1.115c.318-.314.575-.57.755-.75l.208-.201a4.574 4.574 0 0 1 .075-.07s-.005.008-.016.02l-.051.056c-.05.05-.116.12-.201.209-.18.181-.433.441-.745.76L3.784 21.17c-.105.104-.211.213-.321.323l-.041.041-.02.02a.161.161 0 0 1-.03.023.117.117 0 0 1-.136-.025 90.383 90.383 0 0 1-.52-.516l-.179-.178c-.03-.032-.058-.055-.092-.093a.117.117 0 0 1 .013-.15l2.48-2.484c.022-.02.037-.039.063-.06a.107.107 0 0 1 .093-.013c.032.009.05.034.069.051l.053.055.201.202.322.325.116.12c.032.035.068.06.078.095.01.035 0 .062-.009.076-.01.017-.018.02-.018.02Z" fill="#515151"/><path d="M2.779 20.365c.009-.01.22.176.47.415.249.24.445.44.435.45-.01.01-.22-.175-.47-.414-.25-.24-.444-.442-.435-.45ZM3.711 19.368c.01-.01.228.18.498.415.27.234.49.424.481.434-.009.01-.243-.161-.513-.397-.271-.234-.475-.443-.466-.452ZM5.766 19.136c-.01.01-.226-.175-.482-.413s-.457-.44-.448-.45c.01-.01.226.175.482.414.257.238.458.44.448.45Z" fill="#515151"/><path d="M11.556 24.653s-.854.092-1.11.128c-.256.036-.6.106-.72.31-.048.083-.797 1.177-.797 1.177l-.285.081.457 1.257.773-.384s.262-.294.472-.573c.21-.28.274-.38.274-.38s.765.035.92-.098c.086-.073.034-.202.034-.202l-.835-.073s.906-.003 1.057-.102a.206.206 0 0 0 .035-.029c.087-.087.019-.238-.104-.239l-.977-.006s1.122-.103 1.146-.227a.567.567 0 0 0 .008-.061.136.136 0 0 0-.141-.145l-.915.03s.884-.143.893-.265c.017-.237-.185-.199-.185-.199Z" fill="#EFCDBB"/><path d="M5.77 27.081c.23-.35.629-.57 1.046-.611l1.863-.199.558 1.744-2.675.696" fill="#C4C4C4"/><path d="M6.56 28.71s.016-.007.05-.017l.147-.042c.134-.038.321-.089.554-.151l1.916-.509-.016.031-.335-1.042c-.076-.24-.15-.475-.223-.7l.025.017-1.233.128-.528.053a1.758 1.758 0 0 0-.446.085c-.262.09-.44.233-.547.34-.108.108-.152.18-.155.178a1.298 1.298 0 0 1 .142-.19 1.39 1.39 0 0 1 .55-.357c.132-.05.288-.077.452-.093l.529-.059 1.231-.134.02-.003.006.02.224.7.332 1.043.008.024-.024.007-1.922.49-.558.138-.15.035c-.03.007-.048.011-.05.009Z" fill="#9B9B9B"/><path d="M15.759 28.332s.536-.183.678-.086c.142.097.19.254.19.254s.327.002.229.344c0 0 .286.057.2.393 0 0 .212-.005.11.271-.1.278-.53.83-.628.904-.205.155-.261-.091-.211-.188l.331-.635s-.487.768-.652.64c-.094-.073-.073-.186.05-.411.088-.156.245-.465.245-.465l-.384.474c-.071.088-.216.054-.235-.059a.274.274 0 0 1 .019-.143c.09-.235.284-.517.284-.517l-.31.305a.165.165 0 0 1-.247-.015c-.037-.049-.059-.11-.024-.18.086-.17.56-.67.56-.67l-.205-.216Z" fill="#EFCDBB"/><path d="M6.531 30.847s-.444 2.233.008 3.206c.452.972 1.638 1.44 2.872 1.818 1.649.506 4.498 2.074 4.498 2.074s-.369 1.626-.612 2.598c-.234.935-.887 4.336-.887 4.336l2.998.413 2.138-7.693s.596-1.58-.7-2.362c-1.112-.671-5.043-3.325-5.043-3.325l-.304-.705-4.968-.36Z" fill="#7B7C7C"/><path d="m6.587 33.506.558 1.279-.76 6.073s-.65 1.997-.793 3.05c-.143 1.054-.46 5.298-.46 5.298h2.94s.455-5.165 1.337-6.715c.695-1.22 1.166-3.347 1.196-3.486.028-.139 1.053-3.542 1.053-3.542l-1.435-2.954-3.636.997Z" fill="#7B7C7C"/><path d="M14.948 37.235c.005.014-.267.108-.552.31-.288.198-.471.42-.482.409-.006-.004.034-.064.112-.151a2.06 2.06 0 0 1 .741-.516c.11-.042.18-.059.18-.052Z" fill="#606060"/><path d="m15.41 45.292-.053-.005a5.153 5.153 0 0 1-.155-.02l-.595-.076-2.198-.294-.018-.003.004-.018c.17-.888.374-1.945.614-3.12.06-.292.125-.594.192-.9l.22-.939.465-1.976.013.027a45.311 45.311 0 0 0-2.667-1.343c-.646-.294-1.278-.562-1.9-.754-.623-.194-1.212-.407-1.716-.701a3.207 3.207 0 0 1-.671-.51 2.104 2.104 0 0 1-.438-.642c-.1-.23-.132-.469-.157-.689a4.856 4.856 0 0 1-.025-.628c.005-.393.039-.73.072-1.005.033-.274.068-.486.092-.63.013-.07.025-.124.03-.162a.873.873 0 0 1 .014-.055l-.008.056-.026.162a13.86 13.86 0 0 0-.083.63c-.03.274-.06.61-.062 1.003 0 .097-.002.2.005.303.002.105.011.211.023.321.027.219.06.455.158.679.096.224.245.439.433.628.188.19.415.357.663.502.5.29 1.087.5 1.709.694.626.192 1.26.46 1.906.754a44.317 44.317 0 0 1 2.671 1.343l.017.01-.004.017-.466 1.978-.221.937c-.07.306-.133.607-.195.9-.243 1.174-.45 2.23-.625 3.117l-.014-.02 2.196.309a154.701 154.701 0 0 1 .8.12Z" fill="#606060"/><g opacity=".66"><path d="M28.414 6.526s-1.782 3.814-.44 7.373c1.341 3.558 6.267 8.654 6.813 8.924 0 0-1.263-1.985 1.043-1.969 2.307.017 3.467-.545 3.714-1.354.247-.809-1.12-3.422.138-4.049 1.258-.627 2.793-.439 3.822-1.31 0 0-2.4-.2-4.171-.38-1.86-.19-7.45-4.084-7.9-6.947" fill="#CA515B"/><path d="M28.414 6.526s-1.782 3.814-.44 7.373c1.341 3.558 6.267 8.654 6.813 8.924 0 0-1.263-1.985 1.043-1.969 2.307.017 3.467-.545 3.714-1.354.247-.809-1.12-3.422.138-4.049 1.258-.627 2.793-.439 3.822-1.31 0 0-2.4-.2-4.171-.38-1.86-.19-7.45-4.084-7.9-6.947" fill="#888889"/><path d="M34.9 13.099a10.78 10.78 0 0 0 .476.31 13.68 13.68 0 0 0 2.467 1.18c.165.06.3.106.393.134l.108.033c.024.008.038.01.038.01a5.066 5.066 0 0 0-.142-.054 16.093 16.093 0 0 1-1.647-.677 16.194 16.194 0 0 1-1.56-.858l-.097-.06c-.023-.013-.034-.02-.036-.018ZM33.385 15.214c0 .002.013.012.038.031l.111.082a23.34 23.34 0 0 1 1.718 1.362 22.71 22.71 0 0 1 1.581 1.52 14.966 14.966 0 0 1 .13.132 16.95 16.95 0 0 1-.123-.14 20.05 20.05 0 0 0-2.885-2.587 17.05 17.05 0 0 0-.415-.296l-.116-.078a.239.239 0 0 0-.04-.026ZM33.59 15.84c-.001.002.005.008.017.021a5.103 5.103 0 0 0 .25.257 13.637 13.637 0 0 0 1.644 1.379c.026.017.046.03.064.044.015.008.023.014.023.012a.078.078 0 0 0-.02-.018c-.017-.012-.036-.028-.06-.047l-.225-.173a19.656 19.656 0 0 1-1.413-1.212l-.204-.195a5.103 5.103 0 0 0-.076-.067Z" fill="#666668"/><path d="m33.888 24.855.288 1.299.523.962a.136.136 0 0 1-.187.184c-.243-.14-1.138-.662-1.153-.758-.018-.112-.394-1.35-.394-1.35l.923-.337Z" fill="#888889"/><path d="M33.316 26.41a.265.265 0 0 0 .05.04l.14.095c.126.083.287.192.467.313l.466.313.142.094a.214.214 0 0 0 .054.03.23.23 0 0 0-.047-.04 14.167 14.167 0 0 0-.599-.421c-.182-.122-.35-.23-.471-.305-.062-.039-.112-.068-.146-.089a.267.267 0 0 0-.056-.03Z" fill="#4D5A64"/><path d="M28.122 25.163 28.2 26.2s-1.029.427-1.034.62h2.022l-.057-1.7-1.009.042Z" fill="#888889"/><path d="M27.23 26.754c0 .002.029.002.079.001l.21-.006c.179-.007.424-.013.697-.017.271-.004.518-.002.696-.002h.212c.05 0 .078-.002.078-.004a.308.308 0 0 0-.077-.008c-.05-.004-.122-.006-.211-.01-.178-.007-.425-.01-.697-.007-.272.004-.518.014-.696.026-.09.005-.161.011-.211.015-.053.007-.08.01-.08.012Z" fill="#4D5A64"/><path d="m32.65 14.709 1.784 11.02-1.638.1-2.53-11.12h2.384ZM30.236 14.229l-.823 11.6h-1.542V13.546l2.366.682Z" fill="#C4C4C4"/><path d="M28.43 25.102c.007 0 .132-2.296.277-5.13.146-2.835.257-5.132.248-5.133a440.4 440.4 0 0 0-.278 5.132 480.823 480.823 0 0 0-.248 5.131ZM27.87 25.103h-.001s-.002 0 0 .002l.002.002a.06.06 0 0 0 .012.003l.046.01.169.022c.143.018.342.039.56.058.438.04.797.056.797.036 0-.002-.005 0-.017 0-.014-.002-.03-.002-.046-.003l-.17-.013-.56-.048-.562-.05a8.386 8.386 0 0 0-.23-.02ZM31.679 14.969l.002.025c.003.018.007.044.01.076l.045.29a141.841 141.841 0 0 0 1.518 8.082c.098.447.18.808.237 1.056l.067.287.018.074a.161.161 0 0 0 .007.026s0-.01-.003-.026a45.046 45.046 0 0 0-.077-.364l-.228-1.058c-.19-.893-.447-2.13-.71-3.5a178.362 178.362 0 0 1-.817-4.58 92.963 92.963 0 0 1-.05-.291l-.014-.075-.005-.022ZM32.632 25.102c0 .003.024.003.066.003l.182-.004.598-.024.598-.028.18-.01c.042-.002.065 0 .067-.003a1.162 1.162 0 0 0-.249-.008 26.792 26.792 0 0 0-1.377.065.347.347 0 0 0-.065.01Z" fill="#888889"/><path d="m32.736 15.245-.036-.219-2.392-.135.09.399 2.338-.045ZM30.168 15.29l.068-.4-2.366-.117.001.567 2.297-.05Z" fill="#000" opacity=".3"/><path d="m32.498 6.562-1.67-.372-1.403.058-1.224.39.697 3.49 2.663.235.937-3.801Z" fill="#888889"/><path d="m31.081 6.248 1.758.39-.878 4.706s.785 1.91.878 3.684l-2.601-.137s-.18-2.339-.118-3.24c.062-.9.103-2.476.103-2.476l.858-2.927Z" fill="#C4C4C4"/><path d="M36.105 8.949s-.596-.605-1.218-.93c-.459-.239-1.357-.54-1.714-.926-.23-.248-.336-.454-.336-.454l-.413 2.217 1.764.279s-.263.143-.099.245l-1.105 1.294.757 1.428c0-.002 2.467-2.13 2.364-3.153ZM29.423 6.248s-.37.045-.63.13c-.374.125-1.007.258-1.007.258l.9 4.768s-1.221 1.509-.9 3.356c0 0 1.687.133 2.45.13l.01-5.802s-.638-.814-.72-1.611a25.254 25.254 0 0 1-.103-1.23Z" fill="#C4C4C4"/><path d="M27.785 6.637s-1.006 1.043-1.56 1.436c-.555.393-1.252.983-1.252 1.296 0 .184.065.414.119.573.04.117.097.224.17.323.253.337.928 1.216 1.373 1.633l1.12-1.183-1.066-1.177s1.431-.59 1.503-.752c.07-.159-.407-2.149-.407-2.149Z" fill="#C4C4C4"/><path d="m30.258 9.717.026-.023.07-.07.259-.267.872-.912.006-.005-.002-.008-.115-.485-.051-.214-.014.018.557-.001h.019l-.007-.018-.335-1.017a31.81 31.81 0 0 0-.125-.368c-.007-.018-.01-.027-.012-.026a2.818 2.818 0 0 1 .03.106l.09.295.326 1.02.012-.018-.556-.001h-.018l.004.018.05.213.117.486.004-.013-.865.92-.252.271a3.467 3.467 0 0 0-.09.099Z" fill="#888889"/><path d="M30.237 14.89c.008 0 .02-1.309.025-2.923.005-1.614.002-2.923-.006-2.923-.007 0-.019 1.308-.024 2.923-.005 1.613-.002 2.922.005 2.922ZM29.155 6.29c-.002 0-.004.01-.008.032l-.016.092-.058.345-.19 1.175-.002.019.02-.003c.099-.012.203-.026.309-.042l-.015-.02a24.503 24.503 0 0 1-.19.384l-.004.007.005.008.818 1.023.245.3.066.081.025.027a6.922 6.922 0 0 1-.083-.114l-.239-.307-.81-1.028.001.016.126-.255c.021-.045.043-.089.064-.13l.011-.024-.027.004-.31.042.017.017.18-1.176a40.929 40.929 0 0 1 .06-.438c.005-.023.006-.035.005-.035ZM30.481 12.992c.06-.073.176-.115.232-.04h-.003a.18.18 0 0 1 .054.196c-.034.088-.152.131-.234.086-.082-.045-.108-.169-.049-.242ZM30.45 11.477c.059-.073.175-.116.232-.04l-.003-.001a.18.18 0 0 1 .054.197c-.035.087-.152.13-.234.086a.166.166 0 0 1-.049-.242ZM26.442 11.353c.059-.073.175-.116.232-.04l-.003-.001a.18.18 0 0 1 .054.197c-.035.087-.152.13-.234.085-.083-.044-.109-.168-.049-.241ZM33.75 11.493c.06-.073.176-.115.232-.04h-.002a.18.18 0 0 1 .053.197c-.034.087-.152.13-.234.085-.082-.044-.109-.169-.049-.242ZM34.07 9.4c.004.008.187-.106.444-.126.258-.024.457.057.46.047a.426.426 0 0 0-.13-.048.998.998 0 0 0-.655.057.414.414 0 0 0-.119.07ZM34.976 9.133a.392.392 0 0 0-.114-.048 1.022 1.022 0 0 0-.591.005.37.37 0 0 0-.113.05c.003.009.178-.068.41-.068.228-.003.406.07.408.061ZM32.37 9.14c.003 0 .01-.034.025-.094l.057-.257.201-.846c.078-.33.141-.632.176-.853a3.736 3.736 0 0 0 .043-.357.527.527 0 0 0-.02.095l-.045.26c-.04.219-.105.518-.184.85-.079.33-.149.63-.194.848-.022.11-.04.198-.048.26a.893.893 0 0 0-.01.094ZM27.85 6.745a.538.538 0 0 0 .013.098l.044.268.144.88c.057.345.11.656.152.881.022.113.039.204.053.266a.65.65 0 0 0 .023.096.561.561 0 0 0-.013-.098l-.043-.268-.145-.882c-.056-.344-.11-.655-.152-.88a29.07 29.07 0 0 0-.053-.267.844.844 0 0 0-.023-.094ZM25.934 8.958c0 .005.062 0 .16.005.098.006.242.025.354.125.113.099.163.233.199.324.033.093.052.154.056.152a.653.653 0 0 0-.037-.158.731.731 0 0 0-.199-.34.467.467 0 0 0-.194-.1.728.728 0 0 0-.177-.024c-.051 0-.09.004-.119.007-.03.004-.045.006-.043.009Z" fill="#888889"/><path d="M25.668 9.22c0 .005.062.001.161.007a1.485 1.485 0 0 1 .723.24c.084.054.13.095.134.091a.917.917 0 0 0-.122-.108 1.259 1.259 0 0 0-.852-.24c-.03.005-.045.008-.044.01ZM31.54 11.478c.003.008.085-.028.189-.066.103-.039.188-.067.187-.075a.526.526 0 0 0-.198.048c-.105.038-.183.086-.179.093ZM31.467 10.913c-.005.008.127.098.274.226.148.126.256.243.262.238.007-.005-.093-.13-.244-.26a1.16 1.16 0 0 0-.292-.204ZM27.788 14.76c0 .008 1.13.074 2.524.147 1.395.073 2.526.127 2.527.12 0-.008-1.13-.075-2.525-.148a109.335 109.335 0 0 0-2.526-.119Z" fill="#888889"/><path d="M26.743 9.506a.54.54 0 0 0-.197-.603c-.04-.027-.088-.05-.135-.041-.048.009-.089.061-.07.106.012.028.041.044.068.06a.49.49 0 0 1 .185.24c.037.096.053.197.07.298M31.863 7.735c-.01.03-.211.053-.25.136-.038.083-.024.18-.002.269.022.088.05.178.041.269-.017.162-.151.285-.275.391-.348.297-.772.619-1.12.915.312-.37.715-.748 1.058-1.09a.467.467 0 0 0 .127-.17c.03-.085.006-.178-.015-.265l-.089-.346c-.007-.03-.024-.08-.028-.096 0 0 .094-.015.126-.01-.002.001.297-.02.427-.003Z" fill="#000" opacity=".3"/><path d="M33.796 11.627a1.208 1.208 0 0 0-.08-.165 3.166 3.166 0 0 0-.63-.8c-.024-.021-.038-.033-.039-.03-.003.004.046.054.123.136a4.344 4.344 0 0 1 .529.702c.058.098.093.16.097.156ZM33.382 10.237c-.004.004.061.065.157.174.096.107.223.263.342.449.12.187.206.366.264.5.057.132.086.217.09.216a2.365 2.365 0 0 0-.072-.224 2.954 2.954 0 0 0-.732-1.075c-.031-.028-.048-.042-.049-.04ZM26.147 11.372a.268.268 0 0 0 .044-.046l.117-.13a11.983 11.983 0 0 1 .811-.81l.13-.116a.272.272 0 0 0 .046-.045 2.238 2.238 0 0 0-.188.146 6.922 6.922 0 0 0-.423.39 7.06 7.06 0 0 0-.392.421 4.1 4.1 0 0 0-.11.136.309.309 0 0 0-.035.054Z" fill="#888889"/><path d="m33.14 10.969-.367.198-.815.232s.17 1.116.275 1.21c.105.095 1.298-.907 1.298-.907l-.39-.733ZM27.582 10.9l.265.207.765.365s-.354 1.071-.474 1.148c-.119.077-1.127-1.111-1.127-1.111l.57-.608Z" fill="#DBDCDD"/><path d="M31.349 2.848c.01.287.393.461.387.75-.002.122-.078.233-.093.355-.02.165.072.32.106.482.07.335-.124.688-.413.87-.288.184-.65.218-.988.172M29.037 2.778c.012.153-.09.292-.193.407-.102.115-.216.237-.24.389-.039.271.227.522.172.79-.03.144-.147.26-.168.405-.02.141.055.278.149.386.093.107.2.09.284.207.087.122.227.247.358.319.297.162.655-.073.798-.115" fill="#888889"/><path d="M31.405 3.013c.004-.14-.125-.248-.256-.3-.13-.05-.275-.07-.39-.148-.103-.069-.172-.176-.259-.265a.881.881 0 0 0-.84-.226.876.876 0 0 0-.608.62c-.05.2-.015.435.141.568.182.153.452.119.686.071.233-.047.498-.094.693.043.118.083.184.217.257.341.072.124.163.251.298.299.136.047.32-.035.326-.178" fill="#888889"/><path d="M30.857 3.042c.12.013.21.117.208.238l-.14 3.16c-.006.373-.551.582-.95.573-.404-.01-.416-.208-.422-.562-.009-.593-.007-.816-.007-.813 0 0-.51-.086-.615-.751-.05-.332-.034-.873-.005-1.318.026-.399.292-.888.689-.844l1.242.317Z" fill="#DBDCDD"/><path d="M29.14 3.952a.085.085 0 0 0 .082.086.082.082 0 0 0 .088-.077.085.085 0 0 0-.082-.086c-.047-.002-.087.03-.088.077ZM29.035 3.852c.01.012.075-.037.167-.035.092-.002.159.046.17.035.004-.005-.007-.025-.035-.046a.233.233 0 0 0-.27 0c-.029.022-.038.041-.032.046ZM30.026 3.952a.085.085 0 0 0 .082.085.081.081 0 0 0 .089-.076.085.085 0 0 0-.082-.086.082.082 0 0 0-.089.077Z" fill="#888889"/><path d="M29.943 3.872c.01.012.075-.037.167-.036.093 0 .16.046.17.036.005-.005-.006-.025-.035-.046a.233.233 0 0 0-.269 0c-.03.022-.038.041-.033.046ZM29.61 4.552a.596.596 0 0 0-.149-.027c-.023-.003-.046-.008-.05-.023-.005-.017.004-.042.015-.07l.07-.177c.097-.254.166-.462.156-.466-.01-.004-.098.198-.194.453l-.066.18c-.009.026-.024.056-.013.091.006.018.023.031.038.035a.552.552 0 0 0 .192.004Z" fill="#888889"/><path d="M29.548 5.638s.448.03.89-.236c-.007.002-.245.463-.883.393l-.007-.157Z" fill="#BBBBBC"/><path d="M29.64 4.773a.166.166 0 0 1 .149-.062c.04.004.08.023.103.057.025.032.03.078.007.109-.024.034-.077.042-.12.03a.347.347 0 0 1-.144-.097c-.006-.011-.008-.026 0-.035" fill="#BABABA"/><path d="M29.886 4.618c-.015-.002-.015.098-.101.169-.086.07-.192.059-.192.073-.002.006.023.019.068.02a.252.252 0 0 0 .16-.055.217.217 0 0 0 .078-.142c.005-.042-.005-.067-.013-.065ZM29.9 3.712c.009.025.101.013.209.027.107.011.194.042.208.02.007-.01-.009-.034-.043-.059a.348.348 0 0 0-.155-.055.33.33 0 0 0-.163.02c-.04.015-.06.034-.056.047ZM29.078 3.588c.017.02.08 0 .155-.001.075-.004.14.014.155-.008.006-.01-.004-.032-.032-.051a.222.222 0 0 0-.127-.035.21.21 0 0 0-.124.043c-.026.02-.035.042-.027.052Z" fill="#888889"/><path d="M31.136 5.267c-.183.038-.2-.056-.335-.183a.6.6 0 0 1-.185-.506c.02-.164.109-.33.053-.484-.076-.205-.361-.268-.438-.471-.045-.12-.005-.258-.055-.374-.047-.109-.163-.173-.274-.213-.111-.04-.232-.067-.326-.14-.094-.073-.153-.212-.093-.314.497.059.986.178 1.454.353.11.041.223.09.287.186.068.102.066.234.06.357-.03.598-.057 1.194-.084 1.792M31.555 3.91c.02-.218.2-.413.416-.452.217-.04.453.079.55.276.093.188.06.416-.025.607-.102.226-.312.434-.56.422-.235-.01-.423-.216-.49-.44s-.04-.465-.012-.696" fill="#888889"/><path d="M31.686 4.822c.002.001.017-.01.035-.039a.322.322 0 0 0 .05-.133.624.624 0 0 0-.006-.21c-.015-.078-.04-.16-.06-.247a.626.626 0 0 1-.013-.245c.014-.075.048-.137.064-.196a.257.257 0 0 0 .003-.142c-.01-.034-.024-.046-.025-.045-.003.001.009.017.015.049a.27.27 0 0 1-.013.133c-.016.055-.053.116-.07.196a.61.61 0 0 0 .013.257c.019.088.047.17.061.246.016.075.02.144.012.202-.014.116-.072.17-.066.174Z" fill="#666668"/><path d="M31.695 4.023a.334.334 0 0 0 .102.1.581.581 0 0 0 .657.012.334.334 0 0 0 .105-.096c-.004-.004-.041.035-.117.078a.633.633 0 0 1-.319.084.638.638 0 0 1-.316-.095c-.072-.046-.109-.087-.112-.083ZM31.727 4.127a.326.326 0 0 0 .056.105.734.734 0 0 0 .481.29c.073.01.12.003.12 0 0-.005-.045-.006-.116-.021a.828.828 0 0 1-.47-.282c-.044-.055-.066-.095-.071-.092ZM31.56 5.045l.008-.008c.003-.006.011-.014.018-.027a.339.339 0 0 0 .043-.116.419.419 0 0 0-.01-.196.38.38 0 0 0-.155-.209c-.08-.055-.182-.094-.247-.183a.202.202 0 0 1-.036-.156c.009-.058.035-.113.058-.173a.493.493 0 0 0-.01-.397.449.449 0 0 0-.134-.167.537.537 0 0 0-.203-.085c-.072-.016-.144-.025-.211-.046a.422.422 0 0 1-.177-.096.292.292 0 0 1-.077-.174c-.009-.064-.014-.13-.03-.193a.668.668 0 0 0-.18-.315.535.535 0 0 0-.283-.14.407.407 0 0 0-.406.168.38.38 0 0 0-.052.112c-.006.028-.006.042-.006.042.004.001.005-.063.068-.149a.408.408 0 0 1 .394-.154c.092.016.19.06.269.138.079.076.14.183.17.303.017.06.02.124.03.19.008.066.03.139.082.191a.426.426 0 0 0 .189.104c.07.02.142.03.212.047.07.016.138.039.193.08.055.04.098.096.127.156a.468.468 0 0 1 .01.375c-.023.059-.05.117-.058.178a.22.22 0 0 0 .042.174c.073.096.178.133.254.186a.36.36 0 0 1 .151.195.4.4 0 0 1 .016.19c-.018.106-.063.152-.059.155Z" fill="#666668"/><path d="M31.517 3.188s.006-.01.007-.031a.145.145 0 0 0-.021-.088.228.228 0 0 0-.112-.093.352.352 0 0 0-.19-.006c-.07.013-.143.04-.222.056-.078.016-.17.017-.24-.038-.071-.054-.107-.147-.143-.24a1.002 1.002 0 0 0-.153-.273.917.917 0 0 0-.503-.325.533.533 0 0 0-.267.006.418.418 0 0 0-.194.125.304.304 0 0 0-.053.32.233.233 0 0 0 .075.095c.003-.002-.036-.028-.064-.1a.32.32 0 0 1-.017-.137.29.29 0 0 1 .073-.164.399.399 0 0 1 .186-.116.498.498 0 0 1 .253-.004.905.905 0 0 1 .486.318.966.966 0 0 1 .15.266c.037.092.073.19.152.25.039.03.086.045.132.05a.484.484 0 0 0 .13-.008c.083-.017.154-.046.221-.06a.33.33 0 0 1 .18 0 .21.21 0 0 1 .108.084.145.145 0 0 1 .026.082c0 .02-.003.03 0 .03Z" fill="#666668"/></g><path d="M13.77 18.446c-.011.02-.116-.028-.245 0-.13.027-.209.114-.227.101-.009-.005 0-.037.035-.075a.34.34 0 0 1 .376-.08c.047.02.067.045.062.054ZM12.485 18.557c-.014.016-.111-.048-.242-.04-.132.005-.224.078-.239.063-.008-.007.006-.036.047-.07a.33.33 0 0 1 .191-.07.324.324 0 0 1 .193.051c.041.031.057.06.05.066ZM13.008 19.58c-.001-.008.08-.026.211-.05.033-.006.065-.015.07-.038.006-.024-.01-.06-.029-.098l-.113-.251c-.157-.357-.272-.652-.258-.658.014-.006.154.278.31.635.04.088.075.171.11.252.015.037.038.08.024.13a.089.089 0 0 1-.053.053c-.021.008-.04.01-.056.012-.133.015-.216.02-.216.012Z" fill="#38302D"/><path d="M12.532 19.449a.037.037 0 1 1-.037-.037c.02.001.037.018.037.037ZM13.635 19.408a.037.037 0 1 1-.075 0 .037.037 0 0 1 .075 0ZM13.838 19.502a.037.037 0 1 1-.074 0 .037.037 0 0 1 .074 0ZM13.9 19.349a.037.037 0 1 1-.037-.038c.02.002.037.018.037.038ZM12.358 19.611a.037.037 0 1 1-.074 0 .037.037 0 0 1 .074 0ZM12.228 19.464a.037.037 0 1 1-.075 0 .037.037 0 0 1 .075 0Z" fill="#DBB3A2"/><path d="M13.92 18.818a.36.36 0 0 1-.02.192.293.293 0 0 1-.315.178c-.129-.023-.23-.151-.247-.29-.028-.248.198-.428.387-.353.037.015.074.04.107.078a.387.387 0 0 1 .089.195Z" fill="#32292B"/><path d="M13.92 18.818a.167.167 0 0 1-.078.048c-.068.022-.142-.023-.166-.1a.235.235 0 0 1 .049-.221c.037.015.074.04.107.078a.388.388 0 0 1 .088.195ZM13.622 19.015a.084.084 0 0 1 .034-.072c.055-.043.184-.011.142.077-.035.073-.167.082-.176-.005Z" fill="#F8FAFB"/><path d="m13.474 18.76-.007-.058.034.05c.022.034.06.05.098.047l.049-.007-.044.03a.106.106 0 0 0-.046.096l.007.066-.036-.056a.106.106 0 0 0-.097-.049l-.041.004.037-.024a.102.102 0 0 0 .046-.099Z" fill="#FFBD00"/><path d="M12.577 18.955a.362.362 0 0 1-.02.192.293.293 0 0 1-.315.178c-.128-.025-.23-.151-.247-.29-.029-.248.197-.428.386-.353.037.015.074.04.108.078a.4.4 0 0 1 .088.195Z" fill="#32292B"/><path d="M12.578 18.954a.167.167 0 0 1-.078.05c-.068.02-.143-.024-.167-.1a.235.235 0 0 1 .049-.222c.037.015.074.04.107.078a.399.399 0 0 1 .089.194ZM12.277 19.152a.084.084 0 0 1 .033-.072c.055-.043.184-.011.142.077-.036.074-.168.083-.175-.005Z" fill="#F8FAFB"/><path d="m12.132 18.898-.006-.057.033.05c.022.033.06.05.098.046l.05-.007-.044.03a.106.106 0 0 0-.046.096l.006.066-.036-.056a.106.106 0 0 0-.097-.048l-.041.003.037-.024a.107.107 0 0 0 .046-.099Z" fill="#FFBD00"/></g><defs><clipPath id="a"><rect width="48" height="48" rx="24" fill="#fff"/></clipPath></defs></svg>