<?xml version="1.0" encoding="utf-8"?>
<!-- Generator: Adobe Illustrator 24.0.1, SVG Export Plug-In . SVG Version: 6.00 Build 0)  -->
<svg version="1.1" id="圖層_1" xmlns="http://www.w3.org/2000/svg" xmlns:xlink="http://www.w3.org/1999/xlink" x="0px" y="0px"
	 viewBox="0 0 1080 1080" style="enable-background:new 0 0 1080 1080;" xml:space="preserve">
<style type="text/css">
	.st0{fill:#848484;}
	.st1{fill:#B7B6B6;}
	.st2{fill:#999899;}
	.st3{fill:#585655;}
	.st4{fill:#545453;}
	.st5{fill:#FEF6F8;}
	.st6{fill:#686868;}
	.st7{fill:#FAF9F7;}
	.st8{clip-path:url(#SVGID_2_);}
	.st9{fill:#332418;}
	.st10{fill:#F9DACE;}
	.st11{fill:#E1C0B5;}
	.st12{fill:#F6C6DC;}
	.st13{fill:#5F5D5B;}
	.st14{fill:#FFFFFF;}
	.st15{fill:#706F6E;}
	.st16{fill:#F097B0;}
	.st17{clip-path:url(#XMLID_2_);}
	.st18{fill:#25284D;}
	.st19{clip-path:url(#XMLID_3_);}
	.st20{fill:#B0AEB1;}
	.st21{fill:#FEF6F8;stroke:#FEF6F8;stroke-miterlimit:10;}
	.st22{clip-path:url(#XMLID_4_);}
	.st23{fill:#7C7B7C;}
	.st24{fill:#D7D3D0;}
	.st25{fill:none;stroke:#25284D;stroke-linecap:round;stroke-linejoin:round;stroke-miterlimit:10;}
	.st26{fill:#989593;}
	.st27{fill:#727272;}
	.st28{fill:#83817F;}
	.st29{fill:#6D6B6A;}
</style>
<g>
	<g>
		<g>
			<path class="st0" d="M167.98,688.95c6.7,22.44-84.04,115.07,83.24,338.77h404.32c32.81-27.04,56.68-135.24,83.4-163.16
				c29.98-31.32,49.38-79.16,45.18-126.65c-5.08-57.49-42.72-111.19-30.41-167.08c-15.2,8.98-27.65,24.54-34.52,43.16
				c-16.15-10.75-18.41-38.66-11.59-59.29c6.82-20.63,20.08-37.12,29.28-56.37c22.01-46.07,17.59-108.35-10.59-149.27
				c3.88,50.59-19.82,102.66-57.33,126c10.17-32.28,2.9-71.46-17.72-95.46c-13.02-15.15-30.31-24.17-43.25-39.42
				c-42.68-50.29-25.26-149.47-73.36-192.09c-8.91,36.85-17.82,73.7-26.72,110.55c-22.21-10.7-31.83-42.81-32.12-71.59
				c-0.29-28.78,6.07-57.39,4.23-86.08c-1.84-28.7-15.46-59.78-38.97-65.12c1.77,3.94,3.68,43.74-2.68,52.77
				c-39.3,55.88-84.14,97.07-96.33,168.8c-17.4-43.69-44.31-81.83-77.31-109.59c22.12,41.54,26.66,95.9,11.86,141.91
				c-9.15,28.44-24.94,53.08-35.78,80.65c-10.83,27.58-16.26,61.23-4.02,87.94c-25.04-40.35-57.66-73.85-94.71-97.27
				c13.06,14.11,18.11,36.23,18.92,57.33c0.81,21.1-1.95,42.19-1.54,63.3c0.34,17.58-0.4,39.29-1.01,62.54
				c-15.91-20.33-35.45-36.05-54.79-51.55c8.46,14.64,17.34,31.52,14.39,48.99c-3.23,19.1-19.3,31.01-26.19,48.65
				c-7.03,18.02-3.36,40,5.37,56.91c8.73,16.91,21.86,29.76,34.88,42.05L167.98,688.95z"/>
			<g>
				<path class="st1" d="M267.78,977.85c-36.82-49.12-76.28-113.47-81.84-169.31c-3.27-32.93,6.41-52.46,14.96-69.69
					c7.78-15.69,19.54-39.4,10.77-68.78l-9.26-30.99l2.44-93.07c0.09-3.44,0.18-6.85,0.28-10.21c0.48-17.45,0.93-34.05,0.82-48.99
					l71.49-55.42c-2.47-5.4-1.44-19.89,5.34-37.13c3.72-9.48,8.59-19.36,13.74-29.82c6.38-12.95,13.45-27.31,19.43-43.27
					l43.91,110.22l27.66-162.79c5.48-32.24,21.11-57.24,41.83-84.95c-0.01,1.35,0,2.71,0.01,4.07c0.24,23.65,4.55,46.55,12.48,66.24
					c10.78,26.79,27.66,46.34,48.8,56.52l47.53,22.9l4.17-17.26c7.01,22.6,17.08,45.01,33.16,63.95
					c9.65,11.37,19.7,19.41,28.56,26.5c5.91,4.72,11.48,9.19,14.9,13.16c7.3,8.49,10.2,24.09,6.6,35.51l-43,136.43l79.49-49.45
					c-12.59,47.86,1.6,98.59,34.67,120.61l23.91,15.92c1.27,4.03,2.55,7.98,3.79,11.82c6.26,19.35,12.17,37.62,13.55,53.22
					c2.35,26.58-9.21,57.43-29.46,78.58c-19.58,20.46-32.53,53.38-47.52,91.51c-6.45,16.41-13.13,33.38-19.63,47.01
					c-4.1,8.59-7.18,13.84-9.24,16.93H267.78z M148.5,633.29c-5.07-5.35-9.21-10.47-11.81-15.5c-1.03-1.99-1.6-3.85-1.87-5.15
					c1.2-1.86,3-4.4,4.43-6.42c0.6-0.85,1.23-1.74,1.88-2.66l23.15,29.58L148.5,633.29z"/>
			</g>
			<g>
				<path class="st2" d="M298.83,896.5c-38.89-57.62-44.86-88.68-45.75-97.62c-0.52-5.19-0.54-5.39,5.89-18.34
					c35.92-72.41,21.69-120.05,16.34-137.98l-4.9-16.41l2.04-77.58c0.07-2.89,0.4-14.64,0.46-16.89l39.68-30.76l73.24,183.86
					l53.51-314.95c8.2,6.32,16.94,11.72,26.17,16.17l39.34,18.96c6.96,12.04,14.72,23.08,23.34,33.24
					c7.96,9.38,15.86,17.02,23.06,23.37L456.7,761.55l152.02-94.57c12.95,28.3,31.99,51.55,55.24,67.04l2.36,1.57
					c1.81,5.9,3.4,11.5,4.11,15.08c-0.72,2.31-2.71,6.58-6.26,10.3c-30.29,31.65-46.81,73.67-64.31,118.14
					c-2.29,5.83-4.61,11.72-6.89,17.39H298.83z"/>
			</g>
		</g>
		<path class="st0" d="M521.03,134.32c-0.83-4.37-1.66-8.75-2.5-13.12c-0.68-3.58-1.38-7.38-1.22-11.3
			c0.35-8.6,4.63-14.67,4.27-23.27c1.14,4.38,2.62,8.22,3.74,12.63c1.12,4.41,1.89,9.72,1.38,14.74c-0.32,3.18-1.12,5.94-1.9,8.61
			c-1.15,3.92-2.29,7.84-3.44,11.76"/>
	</g>
	<g>
		<g>
			<g>
				<g>
					<rect x="609.28" y="618.32" class="st3" width="367.97" height="120.36"/>
					<path class="st4" d="M977.25,739.96H609.28c-0.71,0-1.28-0.57-1.28-1.28V618.32c0-0.71,0.57-1.28,1.28-1.28h367.97
						c0.71,0,1.28,0.57,1.28,1.28v120.36C978.53,739.38,977.95,739.96,977.25,739.96z M610.56,737.4h365.42V619.59H610.56V737.4z"/>
				</g>
				<g>
					<rect x="609.66" y="181.69" class="st5" width="367.52" height="536.28"/>
					<path class="st4" d="M977.17,719.24H609.65c-0.71,0-1.28-0.57-1.28-1.28V181.68c0-0.71,0.57-1.28,1.28-1.28h367.51
						c0.71,0,1.28,0.57,1.28,1.28v536.28C978.45,718.67,977.88,719.24,977.17,719.24z M610.93,716.69h364.96V182.96H610.93V716.69z"
						/>
				</g>
				<g>
					<g>
						<rect x="609.66" y="181.69" class="st6" width="367.52" height="43.71"/>
						<path class="st4" d="M977.17,226.67H609.65c-0.71,0-1.28-0.57-1.28-1.28v-43.71c0-0.71,0.57-1.28,1.28-1.28h367.51
							c0.71,0,1.28,0.57,1.28,1.28v43.71C978.45,226.1,977.88,226.67,977.17,226.67z M610.93,224.12h364.96v-41.15H610.93V224.12z"
							/>
					</g>
					<g>
						<path class="st7" d="M963.74,213.01c-0.33,0-0.65-0.12-0.9-0.37l-16.91-16.91c-0.5-0.5-0.5-1.31,0-1.8c0.5-0.5,1.31-0.5,1.8,0
							l16.91,16.91c0.5,0.5,0.5,1.31,0,1.8C964.39,212.89,964.06,213.01,963.74,213.01z"/>
						<path class="st7" d="M946.82,213.01c-0.33,0-0.65-0.12-0.9-0.37c-0.5-0.5-0.5-1.31,0-1.8l16.91-16.91c0.5-0.5,1.31-0.5,1.8,0
							c0.5,0.5,0.5,1.31,0,1.8l-16.91,16.91C947.48,212.89,947.15,213.01,946.82,213.01z"/>
						<path class="st7" d="M936.58,213.48H919.2c-0.71,0-1.28-0.57-1.28-1.28v-17.38c0-0.71,0.57-1.28,1.28-1.28h17.38
							c0.71,0,1.28,0.57,1.28,1.28v17.38C937.86,212.91,937.29,213.48,936.58,213.48z M920.48,210.93h14.83V196.1h-14.83V210.93z"/>
						<path class="st7" d="M910.05,213.01h-19.78c-0.71,0-1.28-0.57-1.28-1.28c0-0.71,0.57-1.28,1.28-1.28h19.78
							c0.71,0,1.28,0.57,1.28,1.28C911.32,212.44,910.75,213.01,910.05,213.01z"/>
					</g>
				</g>
			</g>
			<g>
				<defs>
					<rect id="SVGID_1_" x="609.66" y="225.39" width="366.11" height="491.4"/>
				</defs>
				<clipPath id="SVGID_2_">
					<use xlink:href="#SVGID_1_"  style="overflow:visible;"/>
				</clipPath>
				<g class="st8">
					<g>
						<g>
							<path class="st9" d="M809.9,266.86c-1.11-0.3-2.22-0.5-3.32-0.64c-9.98-12.23-16.26-24.67-37.36-25.64
								c-8.13-0.37-16.25,2.43-21.93,8.25c-0.79,0.81-1.52,1.7-2.2,2.63c-0.55,0.75-11.28,0.08-12.75,0.22
								c-10.31,0.99-23.6,2.83-30.22,11.71c-2.93,3.93-4.47,8.66-5.5,13.48c-8.45,4.58-13.3,14.47-11.97,24.43l3.45,8.54
								c-0.39,2.85-0.17,5.82,0.74,8.67l5.69,17.93c0.96-0.45,1.95-0.83,3-1.1c0.26-0.07,0.53-0.1,0.8-0.15l5.39,13.35l1.45-13.72
								h5.25c4.83-0.48,8.62-2.42,11.6-5.22c0.13-0.17,0.29-0.33,0.42-0.51c0.02,0.02,0.05,0.04,0.07,0.06
								c3.82-3.81,6.25-9.06,7.78-14.44c17.05-1.68,23,15.86,37.55,5.87c0.25,8.21,12.58,0.18,21.01,8.57
								c0.02-0.02,0.05-0.04,0.07-0.06c0.13,0.18,0.29,0.33,0.42,0.51c2.99,2.79,6.77,4.73,11.6,5.22h8.82
								c1.4,0,2.76,0.19,4.06,0.52c1.05,0.26,2.04,0.65,3,1.1l5.69-17.93c1.29-4.08,1.19-8.38-0.11-12.24
								c2.16-2.6,3.82-5.68,4.77-9.16C830.77,284,823.03,270.45,809.9,266.86z"/>
							<g>
								<g>
									<g>
										
											<rect x="722.41" y="374.55" transform="matrix(-1 -1.224647e-16 1.224647e-16 -1 1511.641 820.6591)" class="st10" width="66.81" height="71.55"/>
										<path class="st9" d="M789.23,447.38h-66.81c-0.71,0-1.28-0.57-1.28-1.28v-71.55c0-0.71,0.57-1.28,1.28-1.28h66.81
											c0.71,0,1.28,0.57,1.28,1.28v71.55C790.5,446.81,789.93,447.38,789.23,447.38z M723.69,444.83h64.26v-69h-64.26V444.83z"
											/>
									</g>
									<path class="st11" d="M789.19,413.05c-8.11-0.87-18.37-5.33-27.2-9.97c10.5-1.34,19.94-6.05,27.2-13.02V413.05z"/>
									<g>
										<g>
											<path class="st10" d="M804.75,316.95c9.69,0,17.55,7.86,17.55,17.55s-7.86,17.55-17.55,17.55h-0.67v-35.09H804.75z"/>
											<path class="st9" d="M804.75,353.32h-0.68c-0.71,0-1.28-0.57-1.28-1.28v-35.09c0-0.71,0.57-1.28,1.28-1.28h0.68
												c10.38,0,18.82,8.44,18.82,18.82S815.13,353.32,804.75,353.32z M805.35,318.24v32.52c8.69-0.32,15.67-7.49,15.67-16.26
												S814.04,318.56,805.35,318.24z"/>
										</g>
										<g>
											<path class="st10" d="M706.89,316.95h0.67v35.09h-0.67c-9.69,0-17.55-7.86-17.55-17.55S697.2,316.95,706.89,316.95z"/>
											<path class="st9" d="M707.57,353.32h-0.68c-10.38,0-18.82-8.44-18.82-18.82s8.44-18.82,18.82-18.82h0.68
												c0.71,0,1.28,0.57,1.28,1.28v35.09C708.84,352.75,708.27,353.32,707.57,353.32z M706.29,318.24
												c-8.69,0.32-15.67,7.49-15.67,16.26s6.98,15.94,15.67,16.26V318.24z"/>
										</g>
									</g>
									<g>
										<g>
											<path class="st10" d="M803.91,305.49c-27.65,3.81-46.01-3.22-68.16-21.97c-4.55,8.65-18.04,24.73-28.04,22.26
												c0.07-1.26,0.19-2.5,0.36-3.72c-0.31,2.08-0.5,4.26-0.5,6.52v8.37v35.09v3.23c0,13.69,5.72,26.02,14.88,34.8
												c7.27,6.97,16.7,11.67,27.2,13.02c2.03,0.26,4.08,0.44,6.17,0.44c26.65,0,48.25-21.6,48.25-48.25v-3.23v-35.09v-8.37
												C804.07,307.55,804.01,306.52,803.91,305.49z"/>
											<path class="st9" d="M755.82,404.8c-1.93,0-3.95-0.14-6.33-0.45c-10.56-1.35-20.22-5.97-27.92-13.36
												c-9.85-9.45-15.27-22.13-15.27-35.72v-46.69c0-2.18,0.17-4.44,0.52-6.71c0.1-0.7,0.76-1.16,1.44-1.07
												c0.69,0.1,1.18,0.74,1.08,1.44c-0.11,0.82-0.2,1.66-0.27,2.49c8.89,0.89,21.02-13.19,25.55-21.8
												c0.18-0.34,0.51-0.58,0.89-0.66c0.39-0.08,0.78,0.03,1.07,0.28c22.91,19.39,41.11,25.26,67.16,21.68
												c0.35-0.05,0.7,0.05,0.96,0.26c0.27,0.21,0.45,0.53,0.48,0.88c0.1,1.07,0.17,2.15,0.17,3.21v46.69
												C805.35,382.58,783.13,404.8,755.82,404.8z M708.87,307.26c-0.02,0.44-0.02,0.88-0.02,1.31v46.69
												c0,12.88,5.15,24.92,14.48,33.88c7.31,7.01,16.47,11.39,26.48,12.67c2.28,0.29,4.19,0.43,6.01,0.43
												c25.9,0,46.98-21.07,46.98-46.98v-46.69c0-0.55-0.02-1.1-0.05-1.65c-25.72,3.26-44.03-2.63-66.63-21.44
												C731.01,294.28,718.87,308.13,708.87,307.26z"/>
										</g>
									</g>
								</g>
								<g>
									<g>
										<path class="st9" d="M743.97,334.8c0,2.05-1.66,3.72-3.72,3.72c-2.05,0-3.72-1.67-3.72-3.72c0-2.05,1.67-3.72,3.72-3.72
											C742.31,331.08,743.97,332.75,743.97,334.8z"/>
										<path class="st9" d="M787.37,334.8c0,2.05-1.67,3.72-3.72,3.72c-2.05,0-3.72-1.67-3.72-3.72c0-2.05,1.67-3.72,3.72-3.72
											C785.71,331.08,787.37,332.75,787.37,334.8z"/>
										<path class="st9" d="M698.34,339.7c-0.37,0-0.73-0.16-0.98-0.46c-0.45-0.54-0.38-1.35,0.17-1.8l2.72-2.26l-3.13-2.25
											c-0.57-0.41-0.7-1.21-0.29-1.78c0.41-0.58,1.21-0.71,1.78-0.29l3.85,2.76c0.47,0.34,0.76,0.87,0.78,1.46
											c0.02,0.58-0.23,1.13-0.68,1.51l-3.39,2.82C698.92,339.61,698.63,339.7,698.34,339.7z M700.96,335.7
											C700.96,335.7,700.96,335.7,700.96,335.7L700.96,335.7z M700.92,334.63C700.92,334.63,700.92,334.63,700.92,334.63
											L700.92,334.63z"/>
										<path class="st9" d="M812.74,339.7c-0.29,0-0.58-0.1-0.82-0.29l-3.4-2.82c-0.45-0.38-0.7-0.93-0.68-1.51
											c0.02-0.58,0.31-1.11,0.78-1.45l3.84-2.76c0.57-0.41,1.37-0.28,1.78,0.29c0.41,0.57,0.28,1.37-0.29,1.78l-3.13,2.25
											l2.72,2.26c0.54,0.45,0.62,1.26,0.17,1.8C813.47,339.54,813.11,339.7,812.74,339.7z M810.13,335.7L810.13,335.7
											L810.13,335.7z"/>
										<g>
											<path class="st9" d="M727.45,317.6c1.4-1.11,3.51-1.46,5.53-1.92c2.04-0.42,4.08-0.89,5.84-1.36
												c1.76-0.47,3.77-1.08,5.74-1.73c1.98-0.61,3.99-1.36,5.73-1.09c1.68,0.24,2.78,1.9,1.6,4.63
												c-1.1,2.64-4.85,6.19-10.68,7.76c-5.82,1.54-10.78,0.31-12.98-1.45C725.91,320.66,726.09,318.65,727.45,317.6z"/>
										</g>
										<g>
											<path class="st9" d="M796.64,312.88c-1.48-0.96-3.59-1.12-5.61-1.38c-2.04-0.22-4.09-0.5-5.86-0.8
												c-1.77-0.3-3.8-0.72-5.8-1.18c-2-0.42-4.05-0.97-5.74-0.55c-1.63,0.39-2.56,2.12-1.15,4.7c1.32,2.5,5.34,5.65,11.21,6.66
												c5.87,0.98,10.63-0.68,12.63-2.61C798.44,315.74,798.08,313.79,796.64,312.88z"/>
										</g>
										<path class="st9" d="M766.71,350.67c-0.19,0-0.38-0.01-0.57-0.03l-9.43-0.81c-0.7-0.06-1.22-0.68-1.16-1.38
											c0.06-0.7,0.69-1.23,1.38-1.16l9.43,0.81c1.35,0.11,2.65-0.43,3.51-1.49c0.86-1.07,1.13-2.43,0.73-3.74l-5.65-18.56
											c-0.2-0.67,0.17-1.39,0.85-1.59c0.68-0.2,1.39,0.18,1.59,0.85l5.65,18.56c0.64,2.11,0.19,4.38-1.19,6.09
											C770.59,349.77,768.7,350.67,766.71,350.67z"/>
										<path class="st9" d="M754.68,364.94c-0.05,0-0.1,0-0.14-0.01c-6.05-0.68-10.2-2.76-12.35-6.19
											c-2.75-4.38-1.1-9.23-1.02-9.43c0.23-0.66,0.97-1.01,1.62-0.78c0.67,0.23,1.02,0.96,0.79,1.62
											c-0.02,0.04-1.31,3.94,0.79,7.26c1.72,2.72,5.24,4.4,10.46,4.99c0.7,0.08,1.2,0.71,1.13,1.41
											C755.88,364.46,755.32,364.94,754.68,364.94z"/>
									</g>
									<g>
										<path class="st12" d="M762.5,386.14c0,0-2.91-2.89-8.38,0.31"/>
										<path class="st9" d="M754.12,387.73c-0.44,0-0.87-0.23-1.1-0.63c-0.36-0.61-0.15-1.39,0.46-1.75
											c6.24-3.65,9.77-0.26,9.92-0.11c0.5,0.5,0.5,1.3,0,1.8c-0.49,0.5-1.29,0.5-1.79,0.02c-0.12-0.11-2.39-2.11-6.85,0.49
											C754.56,387.67,754.34,387.73,754.12,387.73z"/>
									</g>
								</g>
							</g>
						</g>
						<g>
							<path class="st13" d="M607.34,464.84c24.85-25.68,67.82-30.71,102.65-33.92c39.23-3.62,79.02-1.85,117.72,5.29
								c22.38,4.13,42.48,12.23,58.17,28.45c1.42,1.46,4.52,168.97,4.52,168.97l-5.82,120.06l-262.91,1.87l-23.25-23.95
								C598.42,731.61,605.93,466.31,607.34,464.84z"/>
							<path class="st3" d="M621.67,756.84c-0.35,0-0.68-0.14-0.92-0.39l-23.25-23.95c-0.24-0.25-0.37-0.58-0.36-0.92
								c7.52-265.71,8.84-267.17,9.28-267.62l0,0c24.27-25.09,64.41-30.7,103.45-34.3c39.53-3.64,79.25-1.86,118.07,5.31
								c25.72,4.75,44.42,13.91,58.85,28.82c0.44,0.45,1.77,1.82,4.88,169.83l-5.82,120.15c-0.03,0.68-0.59,1.21-1.26,1.21
								L621.67,756.84C621.68,756.84,621.67,756.84,621.67,756.84z M599.71,731.11l22.49,23.18l261.16-1.86l5.76-118.86
								c-0.83-44.76-3.22-161.25-4.39-168.25c-14.01-14.38-32.22-23.23-57.26-27.86c-38.58-7.12-78.07-8.9-117.37-5.27
								c-38.43,3.54-77.91,9.04-101.61,33.29C607.25,474.08,602.23,642.03,599.71,731.11z M607.34,464.84h0.02H607.34z"/>
						</g>
						<g>
							<g>
								<g>
									<path class="st1" d="M712.61,460.57l37.93,111.58c0.67,1.96,3.42,2,4.15,0.06l41.34-110.62c0.09-0.25,0.14-0.51,0.14-0.77
										v-44.13c0-1.5-1.48-2.57-2.9-2.09l-38.4,12.91c-0.48,0.16-1,0.15-1.48-0.03l-34.98-13.16c-1.38-0.52-2.87,0.44-2.97,1.91
										l-2.94,43.47C712.48,460.01,712.52,460.3,712.61,460.57z"/>
									<path class="st3" d="M752.63,574.92c-0.02,0-0.04,0-0.05,0c-1.49-0.02-2.76-0.95-3.24-2.36L711.4,460.99
										c-0.15-0.44-0.21-0.89-0.18-1.35l2.94-43.47c0.07-1.11,0.66-2.09,1.59-2.69c0.93-0.6,2.06-0.72,3.1-0.33l34.98,13.16
										c0.2,0.07,0.41,0.08,0.62,0.01l38.4-12.92c1.05-0.35,2.23-0.18,3.14,0.47c0.91,0.65,1.45,1.71,1.45,2.82v44.13
										c0,0.41-0.07,0.82-0.21,1.21l-41.35,110.63C755.36,574.04,754.09,574.92,752.63,574.92z M717.63,415.47
										c-0.17,0-0.34,0.05-0.5,0.15c-0.25,0.16-0.4,0.42-0.42,0.72l-2.94,43.47c-0.01,0.12,0.01,0.24,0.04,0.36c0,0,0,0,0,0
										l37.93,111.58c0.2,0.59,0.71,0.64,0.87,0.63c0.17,0,0.66-0.05,0.87-0.6l41.34-110.62c0.04-0.1,0.06-0.21,0.06-0.33v-44.13
										c0-0.3-0.14-0.57-0.38-0.75c-0.25-0.18-0.55-0.22-0.84-0.12l-38.4,12.91c-0.76,0.25-1.59,0.24-2.33-0.04l-34.98-13.16
										C717.86,415.49,717.74,415.47,717.63,415.47z"/>
								</g>
								<path class="st3" d="M718.34,461.43c-0.45,0-0.89-0.24-1.12-0.66c-0.34-0.62-0.11-1.39,0.5-1.73l35.79-19.7
									c0.37-0.21,0.82-0.21,1.19-0.02l36.32,18.48c0.63,0.32,0.88,1.09,0.56,1.72c-0.32,0.63-1.1,0.87-1.71,0.56l-35.72-18.17
									l-35.19,19.38C718.76,461.38,718.55,461.43,718.34,461.43z"/>
							</g>
							<g>
								<path class="st3" d="M764.14,466.98l9.21,55.29l-18.67,49.94c-0.72,1.94-3.48,1.9-4.15-0.06l-14.84-43.66l7.66-65.23
									L764.14,466.98z"/>
								<path class="st3" d="M752.63,574.92c-0.02,0-0.04,0-0.06,0c-1.49-0.02-2.76-0.95-3.24-2.36l-14.84-43.66
									c-0.06-0.18-0.08-0.37-0.06-0.56l7.66-65.23c0.04-0.35,0.23-0.67,0.51-0.88c0.28-0.21,0.64-0.29,0.98-0.23l20.78,3.72
									c0.53,0.09,0.94,0.51,1.03,1.05l9.21,55.29c0.04,0.22,0.01,0.45-0.06,0.66l-18.67,49.95
									C755.37,574.04,754.09,574.92,752.63,574.92z M737,528.35l14.75,43.39c0.19,0.57,0.71,0.62,0.86,0.63
									c0.07-0.01,0.67-0.03,0.88-0.6l18.55-49.63l-9-54.07l-18.56-3.32L737,528.35z"/>
							</g>
							<g>
								<path class="st3" d="M774.02,451.87l-9.61,12.21c-5.17,6.56-15.09,6.64-20.37,0.16l-9.89-12.17l20.17-11.61L774.02,451.87z"
									/>
								<path class="st3" d="M754.16,470.32c-4.33,0-8.37-1.92-11.11-5.29l-9.89-12.17c-0.24-0.29-0.33-0.67-0.26-1.04
									c0.07-0.37,0.29-0.69,0.62-0.88l20.17-11.61c0.4-0.23,0.88-0.22,1.28,0l19.7,11.41c0.32,0.19,0.54,0.5,0.61,0.86
									c0.07,0.36-0.02,0.74-0.25,1.03l-9.61,12.21c-2.7,3.43-6.77,5.42-11.14,5.46C754.23,470.32,754.2,470.32,754.16,470.32z
									 M736.08,452.42l8.94,11.01c2.27,2.79,5.63,4.25,9.22,4.34c3.59-0.03,6.93-1.66,9.15-4.49l8.7-11.05l-17.79-10.31
									L736.08,452.42z"/>
							</g>
						</g>
					</g>
				</g>
				<g class="st8">
					<g>
						<g>
							<path class="st9" d="M962.6,476.67c-4.24-2.57-9.08-4.69-11.98-8.41c-4.3-5.51-2.97-12.5-1.77-18.6
								c1.25-6.41,1.69-12.5,0.44-19.01c-2.27-11.8-8.89-22.93-18.38-31.39l0.1-0.92c3.51-33.24-21.67-63.15-56.25-66.8l-1.07-0.11
								c-32.36-3.42-61.25,19.03-64.54,50.14l-1.12,10.61c-2.8,1.69-5.46,3.56-7.95,5.62c-10.38,8.6-17.6,20.38-20,32.85
								c-1.25,6.51-0.82,12.61,0.44,19.01c1.19,6.1,2.53,13.09-1.77,18.6c-2.9,3.72-7.74,5.85-11.98,8.41
								c-19.04,11.52-26.82,35.24-17.51,53.39c0.9,1.76,2.05,3.57,4.01,4.47c1.82,0.84,4.02,0.76,6.09,0.65
								c30.82-1.71,61.35-6.54,91.81-11.28c4.51-0.7,9.01-1.4,13.52-2.09c4.51,0.69,9.02,1.38,13.52,2.09
								c30.46,4.75,60.99,9.57,91.81,11.28c2.08,0.11,4.27,0.19,6.09-0.65c1.96-0.91,3.11-2.71,4.01-4.47
								C989.42,511.91,981.64,488.19,962.6,476.67z"/>
							<path class="st9" d="M972.02,536.54c-0.74,0-1.45-0.04-2.08-0.07c-30.2-1.67-60.56-6.4-89.92-10.98l-2.02-0.31
								c-4.44-0.69-8.88-1.38-13.32-2.06c-4.44,0.68-8.88,1.36-13.32,2.06l-2.04,0.32c-29.35,4.57-59.7,9.3-89.9,10.98
								c-1.9,0.11-4.51,0.25-6.7-0.77c-2.33-1.08-3.64-3.16-4.61-5.05c-9.53-18.59-1.47-43.29,17.99-55.06
								c0.96-0.58,1.96-1.14,2.95-1.7c3.39-1.91,6.59-3.72,8.69-6.4c3.97-5.09,2.67-11.72,1.53-17.57
								c-1.46-7.47-1.6-13.48-0.44-19.5c2.46-12.78,9.72-24.71,20.44-33.6c2.33-1.93,4.87-3.74,7.56-5.4l1.06-9.98
								c1.63-15.39,9.39-29.21,21.85-38.89c12.45-9.67,28.09-14.07,44.09-12.38l1.07,0.11c17.05,1.8,32.41,9.88,43.25,22.75
								c10.85,12.89,15.87,29.03,14.13,45.45l-0.03,0.27c9.54,8.68,16.03,19.9,18.29,31.66c1.16,6.03,1.02,12.04-0.44,19.5
								c-1.14,5.85-2.44,12.48,1.53,17.57c2.09,2.68,5.29,4.49,8.68,6.4c1,0.56,1.99,1.12,2.96,1.71
								c19.45,11.77,27.52,36.47,17.99,55.06c-0.97,1.89-2.27,3.97-4.61,5.05C975.18,536.37,973.52,536.54,972.02,536.54z
								 M864.68,520.54c0.06,0,0.13,0,0.19,0.01c4.51,0.69,9.02,1.38,13.53,2.09l2.02,0.31c29.3,4.57,59.6,9.29,89.67,10.96
								c2.12,0.12,4,0.16,5.48-0.53c1.63-0.76,2.6-2.32,3.41-3.9c8.94-17.43,1.29-40.62-17.04-51.71l0,0
								c-0.94-0.57-1.91-1.12-2.89-1.67c-3.46-1.95-7.04-3.97-9.44-7.05c-4.68-6-3.2-13.56-2.01-19.63
								c1.39-7.12,1.53-12.84,0.43-18.53c-2.2-11.41-8.58-22.31-17.97-30.68c-0.31-0.27-0.46-0.68-0.42-1.09l0.1-0.92
								c1.66-15.73-3.15-31.19-13.55-43.54c-10.41-12.36-25.17-20.13-41.56-21.86l-1.07-0.11c-15.3-1.61-30.33,2.6-42.26,11.86
								c-11.91,9.26-19.33,22.45-20.88,37.15l-1.12,10.61c-0.04,0.4-0.27,0.75-0.61,0.96c-2.79,1.68-5.41,3.54-7.8,5.51
								c-10.27,8.51-17.22,19.91-19.56,32.11c-1.09,5.68-0.96,11.4,0.43,18.53c1.19,6.07,2.67,13.62-2.01,19.63
								c-2.41,3.09-5.99,5.1-9.45,7.05c-0.97,0.55-1.94,1.1-2.88,1.66c-18.33,11.09-25.97,34.29-17.03,51.71
								c0.81,1.58,1.78,3.14,3.41,3.9c1.49,0.69,3.36,0.65,5.49,0.53c30.07-1.67,60.36-6.39,89.65-10.95l2.04-0.32
								c4.51-0.7,9.01-1.4,13.53-2.09C864.55,520.55,864.61,520.54,864.68,520.54z"/>
						</g>
						<g>
							<g>
								<rect x="832.52" y="454.07" class="st10" width="60.2" height="71.58"/>
								<path class="st9" d="M892.72,526.93h-60.2c-0.71,0-1.28-0.57-1.28-1.28v-71.58c0-0.71,0.57-1.28,1.28-1.28h60.2
									c0.71,0,1.28,0.57,1.28,1.28v71.58C894,526.36,893.43,526.93,892.72,526.93z M833.79,524.38h57.65v-69.03h-57.65V524.38z"/>
							</g>
							<path class="st11" d="M855.36,472.36c8.14,5.11,25.36,15.12,37.36,16.4V460c-7.54,8.01-18.23,13.02-30.1,13.02
								C860.14,473.01,857.72,472.77,855.36,472.36z"/>
							<g>
								<g>
									<path class="st10" d="M912.29,412.1l-0.61-0.06l-2.85,26.99c-0.16,1.56-0.42,3.09-0.74,4.58l0.86,0.09
										c8.73,0.92,16.55-5.41,17.47-14.13C927.34,420.85,921.02,413.03,912.29,412.1z"/>
									<path class="st9" d="M910.65,445.07c-0.61,0-1.22-0.03-1.84-0.1l-0.86-0.09c-0.36-0.04-0.69-0.23-0.9-0.52
										c-0.21-0.29-0.29-0.66-0.22-1.02c0.32-1.5,0.56-3,0.72-4.45l2.85-26.99c0.03-0.34,0.2-0.65,0.47-0.86
										c0.26-0.21,0.6-0.32,0.94-0.28l0.61,0.06c4.56,0.48,8.66,2.71,11.54,6.27c2.88,3.56,4.21,8.04,3.72,12.6
										c-0.48,4.56-2.71,8.66-6.27,11.54C918.33,443.75,914.57,445.07,910.65,445.07z M909.62,442.48
										c3.69,0.25,7.3-0.88,10.19-3.22c3.04-2.46,4.93-5.94,5.34-9.83c0.41-3.88-0.72-7.69-3.17-10.73
										c-2.31-2.86-5.55-4.71-9.16-5.26l-2.72,25.71C909.99,440.25,909.82,441.36,909.62,442.48z"/>
								</g>
								<g>
									<path class="st10" d="M824.77,402.86l-0.61-0.06c-8.73-0.92-16.55,5.41-17.47,14.13c-0.92,8.73,5.41,16.55,14.13,17.47
										l0.86,0.09c0-1.53,0.07-3.08,0.24-4.64L824.77,402.86z"/>
									<path class="st9" d="M821.69,435.77c-0.04,0-0.09,0-0.13-0.01l-0.86-0.09c-4.56-0.48-8.66-2.71-11.54-6.27
										c-2.88-3.56-4.21-8.04-3.72-12.6c0.99-9.41,9.46-16.27,18.87-15.27l0.61,0.06c0.7,0.07,1.21,0.7,1.13,1.4l-2.85,26.99
										c-0.15,1.44-0.23,2.96-0.23,4.5c0,0.36-0.15,0.71-0.42,0.95C822.3,435.65,822,435.77,821.69,435.77z M822.49,403.98
										c-7.37,0-13.73,5.59-14.52,13.08c-0.41,3.88,0.72,7.69,3.17,10.72c2.34,2.9,5.63,4.76,9.29,5.28
										c0.03-1.14,0.11-2.26,0.22-3.35l2.71-25.71C823.07,403.99,822.78,403.98,822.49,403.98z"/>
								</g>
								<g>
									<g>
										<path class="st10" d="M875.81,356.8c-0.28-0.04-0.56-0.09-0.85-0.13c-5.77,19.11-24.94,33.24-48.91,35.44
											c-0.15,0.9-0.33,1.8-0.43,2.72l-0.79,7.46l-2.82,26.69c-0.16,1.54-0.23,3.07-0.23,4.59c0.02,19.29,13.07,36.18,31.6,41.48
											c2.43,0.7,4.95,1.21,7.55,1.49c12.46,1.32,24.24-2.7,33.04-10.18c7.04-5.98,12.18-14.18,14.22-23.67
											c0.32-1.48,0.57-2.99,0.73-4.53l2.82-26.69l0.79-7.46c0.13-1.2,0.17-2.38,0.19-3.56
											C891.66,392.63,877.39,375.64,875.81,356.8z"/>
										<path class="st9" d="M865.68,478.05c-1.62,0-3.25-0.09-4.88-0.26c-2.55-0.27-5.17-0.79-7.77-1.53
											c-19.13-5.47-32.5-23.03-32.52-42.7c0-1.63,0.08-3.21,0.24-4.72l3.61-34.15c0.08-0.75,0.21-1.48,0.34-2.21l0.1-0.59
											c0.1-0.57,0.57-1,1.14-1.06c23.36-2.14,42.13-15.7,47.81-34.54c0.18-0.6,0.75-0.99,1.39-0.9l0.88,0.14
											c0.58,0.09,1.03,0.57,1.08,1.16c1.53,18.29,15.7,34.99,36.08,42.56c0.51,0.19,0.84,0.68,0.83,1.22
											c-0.02,1.22-0.07,2.43-0.2,3.66l-3.61,34.15c-0.16,1.52-0.41,3.05-0.75,4.66c-2.05,9.55-7.12,17.98-14.65,24.37
											C886.55,474.33,876.36,478.05,865.68,478.05z M827.14,393.28c-0.1,0.55-0.19,1.11-0.25,1.68l-3.61,34.15
											c-0.15,1.42-0.22,2.92-0.22,4.45c0.02,18.54,12.63,35.09,30.67,40.25c2.46,0.71,4.93,1.19,7.33,1.45
											c11.71,1.23,23.12-2.27,32.08-9.88c7.1-6.03,11.87-13.97,13.8-22.96c0.33-1.53,0.56-2.97,0.71-4.4l3.61-34.15
											c0.09-0.86,0.13-1.71,0.16-2.55c-19.54-7.55-33.45-23.26-36.43-40.85C867.98,378.25,849.66,390.91,827.14,393.28z"/>
									</g>
								</g>
							</g>
							<g>
								<g>
									<path class="st9" d="M878.66,412.05c-0.22,2.04,1.26,3.87,3.31,4.09c2.04,0.22,3.87-1.26,4.09-3.31
										c0.22-2.04-1.26-3.87-3.31-4.09C880.7,408.53,878.87,410.01,878.66,412.05z"/>
									<g>
										<path class="st7" d="M879.47,416.38c0,0,2.75-1.62,5.73,0.61"/>
										<path class="st9" d="M885.2,418.26c-0.27,0-0.54-0.08-0.77-0.25c-2.22-1.67-4.24-0.57-4.33-0.52
											c-0.61,0.35-1.39,0.13-1.74-0.47c-0.35-0.61-0.15-1.38,0.45-1.73c0.14-0.08,3.53-2.02,7.14,0.68
											c0.56,0.42,0.68,1.22,0.26,1.79C885.97,418.09,885.58,418.26,885.2,418.26z"/>
									</g>
									<path class="st9" d="M839.46,408.15c-0.22,2.04,1.26,3.87,3.31,4.09c2.04,0.22,3.87-1.26,4.09-3.31
										c0.22-2.04-1.26-3.87-3.31-4.09C841.5,404.63,839.67,406.11,839.46,408.15z"/>
									<g>
										<path class="st7" d="M839.43,412.15c0,0,2.75-1.62,5.73,0.6"/>
										<path class="st9" d="M845.16,414.03c-0.27,0-0.54-0.08-0.77-0.25c-2.22-1.67-4.24-0.57-4.33-0.52
											c-0.61,0.35-1.39,0.13-1.74-0.47c-0.35-0.61-0.15-1.38,0.45-1.73c0.14-0.08,3.53-2.02,7.14,0.68
											c0.56,0.42,0.68,1.22,0.26,1.79C845.93,413.86,845.54,414.03,845.16,414.03z"/>
									</g>
									<path class="st9" d="M814.92,422.65c-0.41,0-0.82-0.2-1.06-0.57c-0.39-0.59-0.23-1.38,0.35-1.77l2.53-1.69l-2.49-2.22
										c-0.53-0.47-0.57-1.28-0.1-1.8c0.47-0.53,1.28-0.57,1.8-0.1l3.2,2.85c0.42,0.38,0.64,0.92,0.61,1.48
										c-0.04,0.57-0.33,1.07-0.8,1.39l-3.33,2.22C815.41,422.58,815.17,422.65,814.92,422.65z M817.46,419.26h0.03H817.46z"/>
									<path class="st9" d="M917.95,433.53c-0.33,0-0.66-0.13-0.91-0.39l-2.79-2.86c-0.39-0.41-0.58-0.96-0.5-1.52
										c0.08-0.56,0.4-1.04,0.89-1.32l3.73-2.12c0.61-0.35,1.39-0.14,1.74,0.48c0.35,0.61,0.13,1.39-0.48,1.74l-2.9,1.65
										l2.13,2.18c0.49,0.5,0.48,1.31-0.02,1.8C918.59,433.41,918.27,433.53,917.95,433.53z"/>
									<g>
										<path class="st9" d="M876.94,395.1c0.79,0.73,2.04,1.04,3.22,1.41c1.2,0.35,2.4,0.72,3.43,1.09
											c1.03,0.36,2.21,0.82,3.36,1.31c1.16,0.46,2.33,1,3.39,0.92c1.02-0.06,1.76-1.01,1.17-2.7c-0.53-1.63-2.62-3.94-6.04-5.15
											c-3.42-1.2-6.45-0.69-7.85,0.26C876.16,393.2,876.18,394.41,876.94,395.1z"/>
									</g>
									<g>
										<path class="st9" d="M854.62,393.59c-0.83,0.69-2.09,0.93-3.29,1.24c-1.22,0.28-2.44,0.6-3.49,0.9
											c-1.05,0.31-2.25,0.71-3.42,1.13c-1.18,0.4-2.38,0.88-3.43,0.74c-1.01-0.12-1.7-1.1-1.03-2.76c0.62-1.6,2.82-3.8,6.3-4.83
											c3.48-1.01,6.47-0.35,7.82,0.67C855.5,391.73,855.42,392.94,854.62,393.59z"/>
									</g>
								</g>
								<path class="st9" d="M863.35,428.43c-0.06,0-0.12,0-0.19-0.01l-3.21-0.47c-5.57-0.82-9.44-6.02-8.62-11.6
									c0.16-1.07,0.72-2.01,1.59-2.65c0.87-0.64,1.92-0.92,3-0.76c1.11,0.16,2.24-0.12,3.16-0.8c0.91-0.68,1.5-1.67,1.67-2.79
									l1.16-7.92c0.1-0.7,0.77-1.18,1.45-1.08c0.7,0.1,1.18,0.75,1.08,1.45l-1.16,7.92c-0.26,1.8-1.21,3.39-2.67,4.47
									c-1.46,1.09-3.26,1.54-5.05,1.27c-0.39-0.06-0.79,0.04-1.1,0.28c-0.32,0.24-0.53,0.58-0.58,0.98
									c-0.62,4.18,2.29,8.08,6.47,8.7l3.21,0.47c0.7,0.1,1.18,0.75,1.08,1.45C864.52,427.98,863.97,428.43,863.35,428.43z"/>
								<g>
									<path class="st7" d="M885.08,430.54c-1.13-0.99-2.8-1.01-4.03-0.15c-2.25,1.56-7.03,4.22-13.35,4.02
										c-1.55-0.05-2.58,1.62-2.11,3.1c1.03,3.25,4.26,8.49,12.82,5.8C888.84,440.03,888.02,433.13,885.08,430.54z"/>
									<path class="st9" d="M873.99,445.33c-6.66,0-9-5.47-9.62-7.44c-0.37-1.16-0.15-2.43,0.59-3.41
										c0.67-0.9,1.67-1.39,2.78-1.35c5.95,0.16,10.43-2.29,12.58-3.79c1.75-1.22,4.05-1.12,5.6,0.24v0
										c1.87,1.65,2.74,4.34,2.21,6.86c-0.43,2.06-2.23,5.85-9.34,8.08C876.99,445.09,875.39,445.33,873.99,445.33z
										 M867.63,435.68c-0.31,0-0.52,0.19-0.64,0.34c-0.23,0.31-0.31,0.73-0.19,1.09c0.91,2.89,3.6,7.37,11.22,4.97
										c4.35-1.37,7.06-3.56,7.61-6.17c0.42-1.98-0.49-3.62-1.39-4.41l0,0c-0.67-0.58-1.68-0.61-2.46-0.06
										c-2.41,1.68-7.37,4.49-14.12,4.24C867.65,435.68,867.64,435.68,867.63,435.68z"/>
								</g>
							</g>
						</g>
						<g>
							<g>
								<g>
									<path class="st14" d="M819.1,431.95c-0.22,2.12-2.12,3.65-4.24,3.43c-2.12-0.22-3.65-2.12-3.43-4.24
										c0.22-2.12,2.12-3.65,4.24-3.43C817.79,427.94,819.33,429.83,819.1,431.95z"/>
									<path class="st9" d="M815.27,436.68c-0.18,0-0.36-0.01-0.54-0.03c-2.81-0.3-4.86-2.83-4.56-5.64
										c0.3-2.81,2.84-4.85,5.64-4.56c1.36,0.14,2.59,0.81,3.45,1.87c0.86,1.07,1.26,2.4,1.11,3.77
										C820.09,434.72,817.86,436.68,815.27,436.68z M815.27,428.97c-1.3,0-2.42,0.98-2.56,2.31c-0.15,1.41,0.88,2.68,2.29,2.84
										c1.42,0.14,2.68-0.88,2.83-2.29l0,0c0.07-0.68-0.13-1.36-0.56-1.89c-0.43-0.53-1.05-0.87-1.73-0.94
										C815.45,428.97,815.36,428.97,815.27,428.97z"/>
								</g>
							</g>
							<g>
								<g>
									<path class="st14" d="M919.47,442.55c-0.22,2.12-2.12,3.65-4.24,3.43c-2.12-0.22-3.65-2.12-3.43-4.24
										c0.22-2.12,2.12-3.65,4.24-3.43C918.16,438.54,919.7,440.43,919.47,442.55z"/>
									<path class="st9" d="M915.65,447.28c-0.18,0-0.36-0.01-0.54-0.03c-2.81-0.3-4.86-2.83-4.56-5.64
										c0.3-2.81,2.84-4.87,5.64-4.56c2.81,0.3,4.86,2.83,4.56,5.64v0C920.46,445.32,918.23,447.28,915.65,447.28z M915.64,439.57
										c-1.3,0-2.42,0.99-2.56,2.31c-0.15,1.41,0.88,2.68,2.3,2.83c1.4,0.13,2.68-0.88,2.83-2.29l0,0
										c0.15-1.41-0.88-2.69-2.3-2.84C915.82,439.57,915.73,439.57,915.64,439.57z M919.47,442.55h0.03H919.47z"/>
								</g>
							</g>
						</g>
					</g>
					<g>
						<g>
							<g>
								<g>
									<g>
										<path class="st15" d="M977.91,592.13l34.2-13.79l-27.72-54.97c-9.97-19.77-28.89-32.63-49.94-34.28
											c-1.53-0.12-3.07-0.19-4.62-0.19h-31.27l-35.99,8.07l-32.51-8.07h-24.29c-1.55,0-3.09,0.07-4.62,0.19
											c-16.79,1.32-35.01,10.67-46.98,22.76c-7.23,7.29-44.06,50.69-44.06,50.69l67.26,71.93l17.35,92.96
											c0,0,176.24,0.7,178.44-0.87C977.54,723.44,975.51,596.51,977.91,592.13z"/>
										<path class="st3" d="M875.99,728.88c-28.16,0-57.61-0.09-81.28-0.18c-0.61,0-1.14-0.44-1.25-1.04l-17.28-92.59l-67-71.66
											c-0.44-0.47-0.46-1.2-0.04-1.7c1.5-1.77,36.94-43.52,44.12-50.77c12.65-12.76,31.41-21.84,47.79-23.13
											c1.7-0.13,3.24-0.2,4.72-0.2h24.29c0.1,0,0.21,0.01,0.31,0.04l32.22,8l35.69-8c0.09-0.02,0.18-0.03,0.28-0.03h31.27
											c1.48,0,3.02,0.06,4.72,0.2c21.74,1.71,40.8,14.79,50.98,34.98l27.72,54.97c0.16,0.32,0.18,0.69,0.05,1.02
											c-0.12,0.33-0.39,0.6-0.72,0.73l-33.64,13.56c-0.8,3.95-1.03,28.3-1.25,51.87c-0.55,59.38-1.21,80.79-3.81,82.64
											C972.47,728.6,926.31,728.88,875.99,728.88z M973.02,726.61h0.02H973.02z M795.77,726.15
											c48.06,0.19,169.15,0.4,176.69-0.73c1.97-3.94,2.38-48.13,2.68-80.48c0.34-36.44,0.58-51.48,1.65-53.42
											c0.14-0.26,0.37-0.46,0.64-0.57l32.91-13.27l-27.1-53.73c-9.78-19.39-28.06-31.95-48.9-33.58
											c-1.63-0.13-3.11-0.19-4.52-0.19H898.7l-35.85,8.04c-0.19,0.04-0.39,0.04-0.59-0.01l-32.36-8.03h-24.13
											c-1.41,0-2.89,0.06-4.52,0.19c-15.81,1.24-33.93,10.03-46.17,22.38c-6.54,6.61-38.02,43.59-43.25,49.76l66.48,71.1
											c0.17,0.18,0.28,0.4,0.32,0.64L795.77,726.15z"/>
									</g>
								</g>
							</g>
						</g>
						<g>
							<path class="st14" d="M903.29,487.37l-0.77,39.21c-0.07,3.38-4.12,5.06-6.56,2.72l-31.27-30.03
								c-1.38-1.32-3.51-1.45-5.03-0.29l-33.01,25.12c-2.59,1.97-6.31,0.07-6.22-3.19l0.97-37.46c0.07-2.77,2.95-4.58,5.48-3.43
								l34.03,15.42c0.91,0.41,1.93,0.46,2.87,0.13l34.36-11.95C900.69,482.75,903.34,484.67,903.29,487.37z"/>
							<path class="st9" d="M898.61,531.67c-1.29,0-2.55-0.5-3.54-1.45l-31.27-30.03c-0.92-0.89-2.35-0.98-3.38-0.19l-33.01,25.12
								c-1.6,1.21-3.69,1.39-5.47,0.49c-1.78-0.91-2.86-2.72-2.8-4.72l0.97-37.46c0.04-1.73,0.95-3.31,2.42-4.23
								c1.46-0.92,3.28-1.04,4.86-0.33l34.02,15.42c0.62,0.28,1.3,0.31,1.93,0.09l34.36-11.95c1.59-0.55,3.35-0.29,4.72,0.69
								c1.36,0.99,2.16,2.59,2.13,4.27l0,0l-0.78,39.21c-0.04,2.08-1.26,3.86-3.18,4.66C899.95,531.54,899.28,531.67,898.61,531.67z
								 M863.14,497.04c0.89,0.2,1.73,0.64,2.43,1.32l31.27,30.03c0.77,0.74,1.81,0.93,2.79,0.53c0.98-0.41,1.59-1.29,1.61-2.35
								l0.78-39.21c0.02-0.86-0.37-1.65-1.07-2.16c-0.7-0.51-1.57-0.63-2.38-0.35l-34.36,11.95
								C863.85,496.91,863.5,496.99,863.14,497.04z M825.27,480.95c-0.48,0-0.95,0.13-1.37,0.4c-0.75,0.47-1.2,1.25-1.22,2.14
								l-0.97,37.46c-0.03,1.02,0.5,1.91,1.41,2.38c0.91,0.47,1.94,0.38,2.76-0.25l33.01-25.12c0.75-0.57,1.61-0.91,2.48-1.02
								c-0.34-0.08-0.67-0.19-0.99-0.33l-34.03-15.42C826,481.03,825.63,480.95,825.27,480.95z M903.29,487.37h0.02H903.29z"/>
						</g>
					</g>
					<g>
						<g>
							<g>
								<path class="st10" d="M901.26,515.43l23.24-27.05l-12.84-7.53c-3.12-1.49-5.12-3.93-4.96-7.39
									c0.29-6.31,6.24-10.81,12.4-9.39l52.91,14.1c16.5,4.4,42.09,18.67,37.74,36.67l-4.69,18.8c-1,4-4.85,6.56-8.93,6.01
									c-6.75-0.91-16.16-1.54-18.37,1.55c-1.97,2.75-5.76,5.13-8.31,7.27c-2.94,2.47-6.03,4.74-9.39,6.6
									c-1.9,1.05-3.92,2.13-6.11,2.39c-5.87,0.69-9.94-6.27-5.66-10.73l6.38-6.63c-4.91,4.35-9.53,8.14-12.83,10.77
									c-2.09,1.66-4.95,2.22-7.39,1.14c-4.35-1.92-5.25-7.16-2.42-10.37l13.26-15.12c-8.79,9.02-15.43,14.31-19.61,17.23
									c-2.87,2-6.74,1.72-9.32-0.65l-0.59-0.54c-2.96-2.73-4.33-8.25-1.6-11.22l1.56-1.99c-3.8,3.84-9.96,3.99-13.93,0.33
									C897.71,525.91,897.47,519.51,901.26,515.43z"/>
								<path class="st11" d="M953.16,558.8c-3,0-5.72-1.67-7.1-4.44c-0.76-1.52-0.97-3.14-0.68-4.68c-1.01,0.82-1.92,1.56-2.73,2.2
									c-2.56,2.04-5.9,2.55-8.71,1.3c-2.39-1.06-4.08-3.08-4.62-5.55c-0.43-1.94-0.09-3.98,0.91-5.67
									c-1.45,1.13-2.73,2.07-3.81,2.83c-3.32,2.32-7.91,2.01-10.91-0.76l-0.59-0.54c-2.71-2.5-4.2-6.83-3.19-10.31
									c-3.67,1.06-7.77,0.21-10.78-2.57c-2.23-2.06-3.53-4.87-3.65-7.9c-0.12-3.03,0.95-5.92,3.01-8.14l22.23-25.87l-11.52-6.75
									c-3.74-1.78-5.76-4.83-5.58-8.55c0.16-3.39,1.8-6.51,4.5-8.55c2.7-2.05,6.15-2.78,9.46-2.01l52.95,14.11
									c18.68,4.97,43.02,20.12,38.66,38.2l-4.69,18.81c-1.15,4.61-5.62,7.6-10.34,6.97c-13.91-1.86-16.65,0.32-17.16,1.03
									c-1.52,2.12-3.98,3.99-6.15,5.64c-0.85,0.64-1.67,1.26-2.38,1.86c-3.39,2.84-6.52,5.05-9.59,6.74
									c-1.81,1-4.06,2.25-6.58,2.55C953.8,558.78,953.48,558.8,953.16,558.8z M954.69,538.84c0.34,0,0.67,0.13,0.92,0.39
									c0.48,0.49,0.48,1.27,0,1.77l-6.37,6.63c-1.51,1.57-1.84,3.67-0.89,5.6c1.03,2.08,3.19,3.26,5.47,2.98
									c2.01-0.24,4.02-1.35,5.64-2.24c2.92-1.62,5.93-3.73,9.19-6.46c0.75-0.62,1.6-1.27,2.48-1.94c2.03-1.54,4.33-3.29,5.62-5.09
									c0.76-1.06,3.08-4.29,19.57-2.07c3.45,0.47,6.69-1.71,7.52-5.05l4.69-18.8c3.96-16.4-19.16-30.42-36.83-35.13l-52.91-14.1
									c-2.52-0.58-5.2-0.02-7.3,1.57c-2.1,1.59-3.37,4.01-3.49,6.64c-0.12,2.7,1.3,4.77,4.23,6.17l12.94,7.58
									c0.33,0.19,0.55,0.52,0.61,0.89c0.06,0.37-0.04,0.76-0.29,1.04l-23.24,27.05c-0.01,0.01-0.02,0.03-0.03,0.04
									c-1.6,1.73-2.44,3.97-2.35,6.32c0.09,2.35,1.09,4.53,2.83,6.13c3.48,3.21,8.82,3.09,12.16-0.29
									c0.48-0.48,1.25-0.51,1.75-0.06c0.51,0.45,0.58,1.21,0.16,1.75l-1.57,1.99c-2.27,2.47-1.03,7.18,1.47,9.49l0.59,0.54
									c2.13,1.96,5.37,2.19,7.72,0.55c3.99-2.79,10.59-8.01,19.42-17.07c0.48-0.5,1.27-0.52,1.78-0.05
									c0.51,0.47,0.55,1.26,0.09,1.78L933,542.49c-1.1,1.25-1.54,2.97-1.18,4.6c0.37,1.66,1.52,3.03,3.16,3.76
									c1.91,0.85,4.29,0.46,6.08-0.97c3.04-2.43,7.72-6.26,12.78-10.73C954.09,538.94,954.39,538.84,954.69,538.84z
									 M901.26,515.43h0.03H901.26z"/>
							</g>
							<g>
								<g>
									<line class="st16" x1="936.85" y1="507.62" x2="914.17" y2="530.86"/>
									<path class="st11" d="M914.17,532.13c-0.32,0-0.64-0.12-0.89-0.36c-0.5-0.49-0.51-1.3-0.02-1.8l22.69-23.24
										c0.49-0.5,1.3-0.51,1.8-0.02c0.5,0.49,0.51,1.3,0.02,1.81l-22.69,23.23C914.83,532,914.5,532.13,914.17,532.13z"/>
								</g>
							</g>
							<g>
								<g>
									<line class="st16" x1="950.54" y1="521.22" x2="933.09" y2="538.7"/>
									<path class="st11" d="M933.09,539.97c-0.33,0-0.65-0.12-0.9-0.37c-0.5-0.5-0.5-1.31,0-1.81l17.45-17.48
										c0.5-0.5,1.31-0.5,1.8,0c0.5,0.5,0.5,1.31,0,1.81L934,539.6C933.75,539.85,933.42,539.97,933.09,539.97z"/>
								</g>
							</g>
							<g>
								<g>
									<line class="st16" x1="961.56" y1="533.69" x2="947.61" y2="546.79"/>
									<path class="st11" d="M947.61,548.07c-0.34,0-0.68-0.13-0.93-0.4c-0.48-0.51-0.46-1.32,0.05-1.8l13.95-13.1
										c0.51-0.48,1.32-0.46,1.8,0.06c0.48,0.51,0.46,1.32-0.05,1.8l-13.95,13.1C948.24,547.95,947.92,548.07,947.61,548.07z"/>
								</g>
							</g>
							<g>
								<line class="st16" x1="930.47" y1="482.49" x2="920.66" y2="492.79"/>
								<path class="st11" d="M920.66,494.07c-0.32,0-0.63-0.12-0.88-0.35c-0.51-0.49-0.53-1.29-0.04-1.8l9.81-10.3
									c0.49-0.51,1.3-0.53,1.8-0.04c0.51,0.49,0.53,1.29,0.04,1.8l-9.81,10.3C921.33,493.94,920.99,494.07,920.66,494.07z"/>
							</g>
						</g>
					</g>
					<g>
						<g>
							<g>
								<g>
									<g>
										<g>
											<g>
												<g>
													<defs>
														<path id="XMLID_10_" d="M746.29,520.74l3.81-42.28l22.55-4.08l1.23-0.22l22.55-4.08l18.38,38.26
															c1.7,3.23,2.95,6.77,3.64,10.55c3.59,19.85-9.59,38.85-29.43,42.44c-19.85,3.59-38.85-9.59-42.44-29.43
															C745.89,528.11,745.82,524.36,746.29,520.74z"/>
													</defs>
													<defs>
														<path id="SVGID_3_" d="M782.43,563.2c-7.63,0-15.06-2.31-21.46-6.75c-8.3-5.75-13.85-14.39-15.65-24.33
															c-0.69-3.82-0.8-7.7-0.3-11.52l3.81-42.25c0.05-0.57,0.48-1.04,1.04-1.14l46.33-8.38c0.57-0.1,1.13,0.19,1.38,0.7
															l18.39,38.26c1.79,3.38,3.05,7.06,3.74,10.88c1.8,9.93-0.38,19.97-6.14,28.27c-5.75,8.3-14.39,13.85-24.33,15.65
															C786.97,562.99,784.69,563.2,782.43,563.2z M751.28,479.54l-3.72,41.31c0,0.02,0,0.03-0.01,0.05
															c-0.46,3.57-0.37,7.2,0.28,10.77c1.68,9.26,6.86,17.32,14.59,22.68c7.74,5.36,17.09,7.4,26.36,5.72
															c9.26-1.68,17.32-6.86,22.69-14.59c5.36-7.74,7.4-17.1,5.72-26.36c-0.64-3.56-1.82-6.99-3.51-10.18l-17.99-37.43
															L751.28,479.54z M746.29,520.74h0.03H746.29z"/>
													</defs>
													<clipPath id="XMLID_2_">
														<use xlink:href="#XMLID_10_"  style="overflow:visible;"/>
													</clipPath>
													<clipPath id="SVGID_4_" class="st17">
														<use xlink:href="#SVGID_3_"  style="overflow:visible;"/>
													</clipPath>
												</g>
											</g>
										</g>
									</g>
								</g>
							</g>
						</g>
						<g>
							<g>
								<path class="st12" d="M791.74,550.59c0,0-11.18-9.13-19.66,5.07c-1.84,3.08,13.3-23.29,5.22-28.58
									c-8.08-5.29-17.25,8.49-23.07,24.04"/>
								<path class="st18" d="M771.93,557.2c-0.27,0-0.49-0.09-0.62-0.17c-1.09-0.6-0.54-1.68-0.27-2.2
									c7.14-14.02,9.27-24.24,5.56-26.67c-1.51-0.99-3.05-1.2-4.74-0.64c-5.22,1.71-11.52,10.93-16.43,24.06
									c-0.25,0.66-0.99,0.99-1.64,0.75c-0.66-0.25-1-0.98-0.75-1.64c2.53-6.74,9.34-22.74,18.03-25.59
									c2.43-0.8,4.76-0.48,6.93,0.93c5.17,3.38,2.86,13.04-1.18,22.51c1.48-0.99,3.05-1.63,4.71-1.92
									c5.98-1.05,10.82,2.83,11.02,3c0.54,0.44,0.63,1.25,0.18,1.79c-0.44,0.55-1.24,0.63-1.79,0.19
									c-0.04-0.03-4.16-3.32-8.99-2.46c-3.32,0.59-6.27,3.01-8.77,7.19C772.77,557.01,772.31,557.2,771.93,557.2z"/>
							</g>
							<g>
								<g>
									<g>
										<g>
											<g>
												<g>
													<defs>
														<path id="XMLID_9_" d="M746.29,520.74l3.81-42.28l22.55-4.08l1.23-0.22l22.55-4.08l18.38,38.26
															c1.7,3.23,2.95,6.77,3.64,10.55c3.59,19.85-9.59,38.85-29.43,42.44c-19.85,3.59-38.85-9.59-42.44-29.43
															C745.89,528.11,745.82,524.36,746.29,520.74z"/>
													</defs>
													<defs>
														<path id="SVGID_5_" d="M782.43,563.2c-7.63,0-15.06-2.31-21.46-6.75c-8.3-5.75-13.85-14.39-15.65-24.33
															c-0.69-3.82-0.8-7.7-0.3-11.52l3.81-42.25c0.05-0.57,0.48-1.04,1.04-1.14l46.33-8.38c0.57-0.1,1.13,0.19,1.38,0.7
															l18.39,38.26c1.79,3.38,3.05,7.06,3.74,10.88c1.8,9.93-0.38,19.97-6.14,28.27c-5.75,8.3-14.39,13.85-24.33,15.65
															C786.97,562.99,784.69,563.2,782.43,563.2z M751.28,479.54l-3.72,41.31c0,0.02,0,0.03-0.01,0.05
															c-0.46,3.57-0.37,7.2,0.28,10.77c1.68,9.26,6.86,17.32,14.59,22.68c7.74,5.36,17.09,7.4,26.36,5.72
															c9.26-1.68,17.32-6.86,22.69-14.59c5.36-7.74,7.4-17.1,5.72-26.36c-0.64-3.56-1.82-6.99-3.51-10.18l-17.99-37.43
															L751.28,479.54z M746.29,520.74h0.03H746.29z"/>
													</defs>
													<use xlink:href="#XMLID_9_"  style="overflow:visible;fill:#FFFFFF;"/>
													<use xlink:href="#SVGID_5_"  style="overflow:visible;fill:#585655;"/>
													<clipPath id="XMLID_3_">
														<use xlink:href="#XMLID_9_"  style="overflow:visible;"/>
													</clipPath>
													<clipPath id="SVGID_6_" class="st19">
														<use xlink:href="#SVGID_5_"  style="overflow:visible;"/>
													</clipPath>
												</g>
											</g>
											<g>
												<path class="st20" d="M751.66,521.79l1.21-9.68c0.03-0.01,0.05-0.01,0.08-0.02c-0.15,2.57,12.7,7.94,29.1,12.14
													c11.48,2.94,21.71,4.54,27.19,4.44c0,0,0,0,0,0c1.94-0.03,3.29-0.29,3.88-0.76c0.11-0.03,0.23-0.06,0.34-0.09
													c-0.81,12.24-8.83,23-20.53,27.17c-1.58,0.56-3.21,1.04-4.92,1.35c-16.89,3.06-33.06-8.16-36.12-25.05
													C751.33,528.06,751.27,524.87,751.66,521.79z"/>
												<path class="st3" d="M782.48,558.11c-15.34,0-29-10.98-31.83-26.6c-0.59-3.27-0.68-6.59-0.26-9.88l1.21-9.68
													c0.06-0.47,0.38-0.88,0.83-1.04c0.39-0.11,0.91-0.05,1.23,0.21c0.32,0.26,0.59,0.63,0.56,1.04
													c0.64,1.56,11.04,6.45,28.14,10.83c10.99,2.81,21.27,4.51,26.86,4.4c2.54-0.04,3.09-0.47,3.11-0.48
													c0.13-0.11,0.28-0.18,0.45-0.23c0.4-0.11,1-0.07,1.32,0.19c0.32,0.26,0.67,0.62,0.64,1.03
													c-0.85,12.86-9.24,23.97-21.38,28.29c-1.82,0.65-3.5,1.11-5.12,1.4C786.32,557.94,784.38,558.11,782.48,558.11z
													 M753.79,515.03l-0.86,6.92c0,0,0,0,0,0c-0.39,3.03-0.31,6.09,0.24,9.1c2.92,16.17,18.46,26.95,34.63,24.02
													c1.48-0.27,3.02-0.69,4.71-1.29c10.55-3.76,18.03-13.08,19.49-24.08c-0.73,0.14-1.64,0.22-2.73,0.24
													c-5.75,0.09-16.34-1.61-27.54-4.48C779.17,524.81,760.21,519.84,753.79,515.03z M751.66,521.79h0.03H751.66z"/>
											</g>
											<g>
												<path class="st20" d="M752.96,511.94c-0.64,2.51,12.38,8.01,29.09,12.29c16.71,4.28,30.77,5.72,31.41,3.21
													c0.64-2.51-12.38-8.01-29.09-12.29C767.67,510.87,753.6,509.43,752.96,511.94z"/>
												<path class="st3" d="M808.75,529.95c-1.36,0-3.04-0.09-5.1-0.3c-6-0.61-13.78-2.1-21.92-4.18
													c-3.22-0.83-31.45-8.23-30.01-13.84c0,0,0,0,0,0c1.44-5.61,29.75,1.47,32.97,2.29c8.14,2.09,15.68,4.53,21.23,6.87
													c8.4,3.55,9.15,5.52,8.78,6.97C814.42,528.88,813.39,529.95,808.75,529.95z M754.38,512.3
													c1.57,1.92,11.77,6.53,27.99,10.69c16.21,4.15,27.38,5.01,29.68,4.08c-1.57-1.92-11.77-6.53-27.99-10.69
													C767.84,512.23,756.69,511.37,754.38,512.3z"/>
											</g>
											<g>
												<g>
													<g>
														<path class="st14" d="M770.11,526.94c0.09,0.49,0.56,0.82,1.06,0.73c0.49-0.09,0.82-0.56,0.73-1.06
															c-0.09-0.49-0.56-0.82-1.06-0.73C770.35,525.97,770.02,526.44,770.11,526.94z"/>
													</g>
													<g>
														<path class="st14" d="M777.6,532.92c0.14,0.8,0.91,1.33,1.71,1.19c0.8-0.15,1.33-0.91,1.19-1.71
															c-0.15-0.8-0.91-1.33-1.71-1.19C777.99,531.35,777.45,532.12,777.6,532.92z"/>
													</g>
													<g>
														<path class="st14" d="M759.47,535.96c0.22,1.19,1.35,1.98,2.55,1.77c1.19-0.22,1.98-1.35,1.77-2.55
															c-0.22-1.19-1.35-1.98-2.55-1.77C760.05,533.63,759.26,534.77,759.47,535.96z"/>
													</g>
												</g>
											</g>
										</g>
										<g>
											<path class="st7" d="M750.12,478.46c0.24,1.34,10.8,0.55,23.59-1.76c12.79-2.31,22.96-5.28,22.71-6.62
												c-0.24-1.34-10.8-0.55-23.59,1.76C760.05,474.15,749.88,477.12,750.12,478.46z"/>
											<path class="st3" d="M753.47,480.39c-3.52,0-4.41-0.63-4.6-1.71c-0.07-0.42,0.03-0.86,0.29-1.23
												c2.02-2.91,21.27-6.47,23.46-6.87c6.22-1.13,12.13-1.93,16.63-2.27c6.76-0.51,8.19,0.15,8.44,1.53
												c0.07,0.42-0.03,0.85-0.29,1.23c-2.02,2.91-21.27,6.47-23.46,6.87c-6.22,1.13-12.13,1.93-16.63,2.27
												C755.77,480.33,754.51,480.39,753.47,480.39z M793.02,470.69c-3.61,0.03-10.65,0.72-19.96,2.4
												c-9.31,1.69-16.15,3.51-19.54,4.74c3.61-0.03,10.65-0.72,19.96-2.4C782.8,473.75,789.63,471.93,793.02,470.69z"/>
										</g>
									</g>
								</g>
								<g>
									<path class="st5" d="M770.92,619.11c0.33,1.84,12.89,1.11,28.04-1.63c15.15-2.74,27.16-6.46,26.83-8.3
										c-0.33-1.84-12.89-1.11-28.04,1.63C782.6,613.55,770.59,617.27,770.92,619.11z"/>
									<path class="st3" d="M776.69,621.38c-3.91,0-6.75-0.54-7.02-2.04l0,0c-0.28-1.54,1.04-2.96,8.49-5.26
										c5.11-1.58,11.99-3.19,19.37-4.52c8.63-1.56,28.77-4.74,29.52-0.6c0.28,1.54-1.04,2.96-8.49,5.26
										c-5.12,1.58-12,3.19-19.37,4.52C793.7,619.73,783.54,621.38,776.69,621.38z M773.03,618.73c3.25,0.44,12.52-0.12,25.7-2.5
										c13.18-2.38,22.06-5.12,24.94-6.66c-3.24-0.43-12.52,0.12-25.7,2.5C784.8,614.45,775.92,617.18,773.03,618.73z"/>
								</g>
							</g>
							<g>
								<g>
									<g>
										<g>
											<g>
												<path class="st10" d="M774.75,622.27l8-4.29l18.83-10.1c6.54-3.67,9.04-11.82,5.68-18.53l-1.03-2.07l6.13-2.42
													c4.69-1.85,6.84-7.28,4.7-11.84l-2.26-4.82l3.34-1.17c3.38-1.18,5.4-4.64,4.77-8.17l-0.16-0.92
													c-0.6-3.37-3.46-5.88-6.88-6.05l-13.02-0.64l-0.11-1.24c-0.52-5.78-5.39-10.2-11.2-10.15l-20.19,3.84
													c-10.08,2.02-20.32,8.95-28.38,15.91c-14.33,12.37-18.67,20.84-20.37,39.69l-7.73,83.6
													c-1.24,16.2,3.75,32.26,13.94,44.92v0c17.22,21.38,51.19,15.76,60.6-10.03l0,0c3.63-9.94,4.74-20.63,3.23-31.11
													l-9.89-68.74"/>
												<path class="st11" d="M756.09,742.28c-10.95,0-21.21-4.87-28.28-13.64c-10.43-12.96-15.48-29.23-14.22-45.82l7.73-83.62
													c1.74-19.23,6.21-27.94,20.81-40.54c7.15-6.18,17.98-14,28.96-16.19l20.2-3.85c6.71,0.02,12.14,4.89,12.71,11.29
													l0.01,0.13l11.91,0.58c4.04,0.2,7.36,3.12,8.07,7.1l0.16,0.92c0.75,4.16-1.61,8.19-5.6,9.59l-2.01,0.7l1.66,3.54
													c1.19,2.53,1.28,5.35,0.24,7.95c-1.03,2.6-3.03,4.59-5.63,5.62l-4.83,1.91l0.41,0.82c3.67,7.33,0.94,16.2-6.2,20.21
													l-18.06,9.69l9.76,67.85c1.53,10.65,0.39,21.62-3.3,31.72c-4.58,12.55-15.18,21.34-28.36,23.52
													C760.18,742.12,758.12,742.28,756.09,742.28z M791.63,541.15c-0.03,0-0.06,0-0.08,0l-19.96,3.82
													c-10.43,2.09-20.87,9.65-27.79,15.62c-14.16,12.22-18.26,20.2-19.94,38.84l-7.73,83.6c-1.21,15.92,3.63,31.55,13.66,44
													c7.8,9.68,19.77,14.24,32.03,12.22c12.26-2.03,22.12-10.21,26.38-21.88c3.55-9.71,4.64-20.25,3.17-30.49l-9.63-66.93
													l-6.39,3.43c-0.62,0.33-1.39,0.1-1.73-0.52c-0.33-0.62-0.1-1.39,0.52-1.73l7.97-4.28c0.02-0.01,0.03-0.02,0.05-0.03
													l18.8-10.09c5.93-3.33,8.2-10.73,5.15-16.83l-1.03-2.06c-0.16-0.32-0.18-0.69-0.05-1.03c0.13-0.33,0.39-0.6,0.72-0.73
													l6.13-2.42c1.94-0.77,3.43-2.25,4.2-4.19c0.77-1.94,0.7-4.04-0.18-5.92l-2.26-4.81c-0.15-0.33-0.16-0.7-0.02-1.04
													s0.41-0.59,0.76-0.71l3.34-1.17c2.8-0.98,4.46-3.82,3.93-6.74l-0.16-0.92c-0.5-2.8-2.84-4.86-5.69-5l-13.02-0.64
													c-0.64-0.03-1.15-0.53-1.21-1.16l-0.11-1.24C801,545.08,796.7,541.15,791.63,541.15z"/>
											</g>
											<g>
												<path class="st15" d="M764.95,570.47l3.47-4.59c3.52-4.66,8.53-7.98,14.18-9.42l20.37-5.2"/>
												<path class="st11" d="M764.95,571.74c-0.27,0-0.54-0.08-0.77-0.26c-0.56-0.43-0.67-1.23-0.25-1.79l3.47-4.59
													c3.68-4.87,8.97-8.38,14.88-9.89l20.37-5.2c0.69-0.18,1.38,0.24,1.55,0.92c0.17,0.68-0.24,1.38-0.92,1.55l-20.37,5.2
													c-5.36,1.37-10.15,4.55-13.48,8.96l-3.47,4.59C765.71,571.57,765.33,571.74,764.95,571.74z"/>
											</g>
											<g>
												<path class="st15" d="M814.8,568.2l-19.64,4.55c-6.37,1.48-12.34,4.33-17.49,8.36"/>
												<path class="st11" d="M777.66,582.4c-0.38,0-0.75-0.17-1-0.49c-0.43-0.55-0.34-1.36,0.22-1.79
													c5.26-4.12,11.48-7.09,17.99-8.6l19.64-4.55c0.7-0.16,1.37,0.27,1.53,0.96c0.16,0.69-0.27,1.37-0.95,1.53L795.44,574
													c-6.15,1.42-12.03,4.23-16.99,8.12C778.21,582.31,777.94,582.4,777.66,582.4z"/>
											</g>
											<g>
												<g>
													<path class="st21" d="M784.15,577.11c0,0,5.2,9.52,3.87,15.76l4.39-1.41c0,0,0-13.31-5.65-15.84L784.15,577.11z"/>
													<path class="st14" d="M786.73,594.29l0.35-1.62c1.25-5.82-3.72-15.01-3.77-15.1l-0.45-0.82l3.84-2.19l0.44,0.2
														c6.15,2.75,6.22,16.14,6.22,16.71v0.7L786.73,594.29z M785.42,577.49c1.14,2.28,4.08,8.74,3.74,14.01l2.27-0.73
														c-0.11-3.81-1.08-11.9-4.66-14.05L785.42,577.49z"/>
												</g>
											</g>
											<g>
												<path class="st12" d="M806.23,587.28l-14.11,4.5c-5.15,1.64-8.95,3.7-12.66,7.63"/>
												<path class="st11" d="M779.47,600.68c-0.31,0-0.63-0.12-0.88-0.35c-0.51-0.48-0.53-1.29-0.05-1.8
													c3.61-3.82,7.43-6.13,13.2-7.97l14.11-4.5c0.67-0.22,1.39,0.16,1.6,0.83c0.21,0.67-0.16,1.39-0.83,1.6l-14.1,4.5
													c-5.32,1.7-8.83,3.81-12.12,7.29C780.14,600.54,779.8,600.68,779.47,600.68z"/>
											</g>
										</g>
									</g>
								</g>
							</g>
						</g>
						<g>
							<g>
								<g>
									<g>
										<g>
											<g>
												<g>
													<defs>
														<path id="XMLID_8_" d="M746.29,520.74l3.81-42.28l22.55-4.08l1.23-0.22l22.55-4.08l18.38,38.26
															c1.7,3.23,2.95,6.77,3.64,10.55c3.59,19.85-9.59,38.85-29.43,42.44c-19.85,3.59-38.85-9.59-42.44-29.43
															C745.89,528.11,745.82,524.36,746.29,520.74z"/>
													</defs>
													<defs>
														<path id="SVGID_7_" d="M782.43,563.2c-7.63,0-15.06-2.31-21.46-6.75c-8.3-5.75-13.85-14.39-15.65-24.33
															c-0.69-3.82-0.8-7.7-0.3-11.52l3.81-42.25c0.05-0.57,0.48-1.04,1.04-1.14l46.33-8.38c0.57-0.1,1.13,0.19,1.38,0.7
															l18.39,38.26c1.79,3.38,3.05,7.06,3.74,10.88c1.8,9.93-0.38,19.97-6.14,28.27c-5.75,8.3-14.39,13.85-24.33,15.65
															C786.97,562.99,784.69,563.2,782.43,563.2z M751.28,479.54l-3.72,41.31c0,0.02,0,0.03-0.01,0.05
															c-0.46,3.57-0.37,7.2,0.28,10.77c1.68,9.26,6.86,17.32,14.59,22.68c7.74,5.36,17.09,7.4,26.36,5.72
															c9.26-1.68,17.32-6.86,22.69-14.59c5.36-7.74,7.4-17.1,5.72-26.36c-0.64-3.56-1.82-6.99-3.51-10.18l-17.99-37.43
															L751.28,479.54z M746.29,520.74h0.03H746.29z"/>
													</defs>
													<clipPath id="XMLID_4_">
														<use xlink:href="#XMLID_8_"  style="overflow:visible;"/>
													</clipPath>
													<clipPath id="SVGID_8_" class="st22">
														<use xlink:href="#SVGID_7_"  style="overflow:visible;"/>
													</clipPath>
												</g>
											</g>
										</g>
									</g>
								</g>
							</g>
						</g>
					</g>
				</g>
			</g>
		</g>
		<g>
			<g>
				<g>
					<circle class="st23" cx="603.54" cy="325.64" r="74.37"/>
					<path class="st23" d="M603.49,401.32c-10.96,0-21.88-2.41-32.1-7.21c-18.29-8.59-32.14-23.78-39-42.79
						c-6.86-19-5.91-39.54,2.68-57.83c8.59-18.29,23.78-32.14,42.79-39c19-6.86,39.54-5.91,57.83,2.68
						c18.29,8.59,32.14,23.78,39,42.79c6.86,19,5.91,39.54-2.68,57.83l0,0c-8.59,18.29-23.78,32.14-42.79,39
						C620.84,399.82,612.15,401.32,603.49,401.32z M603.59,252.51c-8.37,0-16.76,1.46-24.86,4.38
						c-18.36,6.63-33.05,20.01-41.34,37.68c-8.3,17.67-9.22,37.52-2.59,55.88c6.63,18.36,20.01,33.05,37.68,41.34
						c17.67,8.3,37.52,9.22,55.88,2.59c18.36-6.63,33.05-20.01,41.34-37.68l0,0c8.3-17.67,9.22-37.52,2.59-55.88
						c-6.63-18.36-20.01-33.05-37.68-41.34C624.73,254.85,614.18,252.51,603.59,252.51z"/>
				</g>
				<g>
					<circle class="st24" cx="606.1" cy="316.81" r="74.37"/>
					<path class="st23" d="M605.98,392.45c-10.76,0-21.67-2.3-32.03-7.17c-18.29-8.59-32.14-23.78-39-42.79
						c-6.86-19.01-5.91-39.54,2.68-57.83c17.73-37.75,62.87-54.05,100.62-36.32c37.76,17.73,54.05,62.87,36.32,100.62l-1.16-0.54
						l1.16,0.54C661.71,376.35,634.41,392.45,605.98,392.45z M606.21,243.72c-27.47,0-53.84,15.55-66.27,42.02
						c-8.3,17.67-9.22,37.52-2.59,55.88c6.63,18.36,20.01,33.05,37.68,41.35c36.48,17.13,80.1,1.38,97.23-35.1
						c17.13-36.48,1.39-80.1-35.09-97.23C627.16,245.95,616.6,243.72,606.21,243.72z"/>
				</g>
				<g>
					<g>
						<g>
							<g>
								<g>
									<g>
										<g>
											<g>
												<path class="st7" d="M614.03,323.61c0.24-0.87-0.56-1.67-1.43-1.43l-10,2.7l-1.8,0.49c-1.57,0.43-3.06-0.92-2.79-2.53
													l2.56-15.29c0.54-3.21-0.23-6.54-2.26-9.09c-4.34-5.45-11.07-8.87-18.57-8.63c-12,0.38-21.15,9.63-21.58,21.61
													c-0.4,11.34,7.71,20.09,15.78,26.96c9.8,8.33,19.63,16.75,29.83,24.59c0.06,0.04,0.24-0.04,0.51-0.22l0.02-0.09
													L614.03,323.61z"/>
												<path class="st23" d="M603.79,364.28c-0.26,0-0.53-0.07-0.79-0.28c-9.61-7.38-19.01-15.38-28.09-23.11l-1.79-1.52
													c-7.79-6.62-16.67-15.78-16.23-27.98c0.45-12.62,10.26-22.44,22.82-22.84c7.64-0.26,14.8,3.08,19.61,9.11
													c2.21,2.77,3.13,6.45,2.52,10.09l-2.56,15.29c-0.08,0.47,0.19,0.76,0.3,0.87c0.12,0.11,0.43,0.34,0.9,0.22l11.8-3.19
													c0.85-0.23,1.74,0.01,2.36,0.63c0.62,0.62,0.86,1.5,0.63,2.35l-9.72,39.06c-0.08,0.31-0.29,0.66-0.55,0.84
													C604.78,363.97,604.32,364.28,603.79,364.28z M604.28,362.76h0.03H604.28z M580.48,291.1c-0.23,0-0.46,0-0.7,0.01
													c-11.2,0.35-19.94,9.11-20.35,20.38c-0.4,11.1,7.99,19.69,15.34,25.94l1.79,1.52c8.7,7.4,17.67,15.04,26.83,22.13
													l9.38-37.68l-11.63,3.2c-1.16,0.31-2.38,0.02-3.28-0.79c-0.89-0.81-1.3-2-1.11-3.18l2.56-15.29
													c0.49-2.93-0.24-5.87-2-8.08C593.16,294.05,587.06,291.1,580.48,291.1z"/>
											</g>
										</g>
										<g>
											<g>
												<path class="st7" d="M657.07,296.57c-2.52-8.76-10.15-15.29-19.19-16.41c-11.08-1.37-21.75,4.53-24.84,15.5
													c-1.77,6.28-3.2,12.66-4.82,18.98c-0.12,0.46,0.28,0.89,0.75,0.8l4.26-0.78l10.19-1.88c0.89-0.16,1.61,0.7,1.31,1.54
													l-11.44,37.86c-0.05,0.18,0.14,0.33,0.29,0.23c4.74-3.1,24.24-20.63,26.42-22.44c8.05-6.67,16.97-14.75,17.84-25.89
													C658.04,301.64,657.8,299.12,657.07,296.57z"/>
												<path class="st23" d="M613.49,353.69c-0.33,0-0.67-0.09-0.9-0.26c-0.5-0.37-0.71-1.02-0.52-1.62l11.43-37.86l-14.3,2.74
													c-0.65,0.12-1.31-0.1-1.76-0.58c-0.45-0.48-0.62-1.15-0.46-1.79c0.6-2.33,1.17-4.65,1.74-6.98
													c0.97-3.95,1.97-8.04,3.09-12.03c3.15-11.19,13.94-17.93,26.23-16.42c9.47,1.17,17.62,8.13,20.26,17.32l0,0
													c0.75,2.61,1.03,5.29,0.82,7.97c-0.89,11.45-9.53,19.51-18.3,26.77c-0.53,0.44-2.09,1.81-4.2,3.68
													c-6.98,6.15-18.67,16.45-22.33,18.85C614.06,353.62,613.78,353.69,613.49,353.69z M623.64,311.49
													c0.71,0,1.38,0.31,1.85,0.87c0.57,0.68,0.73,1.58,0.43,2.41l-10.47,34.67c5.01-3.97,14.13-12.01,19.47-16.71
													c2.15-1.89,3.73-3.28,4.26-3.73c8.35-6.92,16.57-14.55,17.39-25.01c0.18-2.37-0.06-4.74-0.73-7.06l0,0
													c-2.37-8.22-9.65-14.44-18.12-15.49c-11.02-1.36-20.65,4.63-23.45,14.58c-1.11,3.95-2.11,8.01-3.07,11.95
													c-0.49,2.02-0.99,4.04-1.5,6.06l13.49-2.48C623.33,311.5,623.49,311.49,623.64,311.49z"/>
											</g>
										</g>
									</g>
								</g>
							</g>
						</g>
					</g>
				</g>
			</g>
			<g>
				
					<ellipse transform="matrix(0.3929 -0.9196 0.9196 0.3929 307.3005 1085.1229)" class="st23" cx="975.52" cy="309.81" rx="60.25" ry="60.25"/>
				<g>
					
						<ellipse transform="matrix(0.9854 -0.1705 0.1705 0.9854 -37.8486 171.8865)" class="st0" cx="982.12" cy="306.37" rx="60.25" ry="60.25"/>
					<path class="st23" d="M982.06,367.93c-9.38,0-18.7-2.17-27.34-6.47c-14.72-7.32-25.7-19.93-30.93-35.51
						c-5.23-15.58-4.08-32.27,3.24-46.98c7.32-14.72,19.93-25.7,35.51-30.93c15.58-5.23,32.26-4.08,46.98,3.24
						c14.72,7.32,25.7,19.93,30.93,35.51c5.23,15.58,4.08,32.27-3.24,46.98c-7.32,14.72-19.93,25.7-35.51,30.93
						C995.27,366.86,988.65,367.93,982.06,367.93z M982.07,247.38c-6.21,0-12.52,0.99-18.72,3.07
						c-30.83,10.35-47.49,43.85-37.15,74.68c10.35,30.83,43.85,47.49,74.68,37.14l0,0c14.93-5.01,27.02-15.54,34.04-29.65
						c7.02-14.11,8.12-30.1,3.11-45.03C1029.77,262.97,1006.72,247.38,982.07,247.38z"/>
				</g>
				<g>
					<g>
						<g>
							<g>
								<g>
									<path class="st7" d="M1014.84,319.49l-25.53,0.26c1.6,4.05,1.89,8.51,0.84,12.74l-0.91,3.64
										c-1.22,4.87-5.98,7.99-10.93,7.15c-1.27-0.21-2.16-1.38-2.02-2.66l0.55-5.26c0.73-7.04-2.27-13.88-7.79-18.13
										c0.17-0.37,0.27-0.77,0.27-1.2l-0.31-30.82c0.59-1.79,2.25-3.06,4.19-3.07l35.43-0.36c1.8-0.02,3.27,1.42,3.29,3.22
										l0.01,1.38c0.01,0.94-0.72,1.73-1.66,1.79l0.44,0c2.1-0.04,3.82,1.64,3.84,3.74l0.03,2.87c0.02,1.63-1.5,2.97-1.5,2.97
										c2.14-0.02,3.9,1.7,3.92,3.84l0.04,3.9c0.02,1.68-2.21,3.06-2.21,3.06c2.54-0.03,4.62,2.01,4.64,4.55l0.02,1.65
										C1019.51,317.34,1017.43,319.46,1014.84,319.49z"/>
									<path class="st13" d="M979.89,344.69c-0.6,0-1.2-0.05-1.8-0.15c-1.93-0.33-3.28-2.11-3.08-4.05l0.55-5.26
										c0.69-6.59-2.04-12.94-7.3-16.99c-0.48-0.37-0.63-1.01-0.38-1.55c0.1-0.22,0.15-0.43,0.15-0.65l-0.31-30.82
										c0-0.14,0.02-0.28,0.06-0.41c0.77-2.34,2.93-3.93,5.39-3.95l35.42-0.36c1.25-0.04,2.35,0.45,3.22,1.29
										c0.87,0.85,1.35,1.98,1.36,3.19l0.02,1.38c0,0.37-0.06,0.72-0.17,1.05c0.46,0.23,0.89,0.53,1.27,0.9
										c0.97,0.95,1.52,2.21,1.53,3.57l0.03,2.87c0.01,0.82-0.24,1.57-0.57,2.18c1.75,0.81,2.97,2.58,2.99,4.63l0.04,3.9
										c0.01,0.91-0.38,1.73-0.87,2.38c0.56,0.27,1.08,0.64,1.54,1.09c1.12,1.1,1.75,2.57,1.76,4.13l0.02,1.65
										c0.02,1.59-0.59,3.1-1.7,4.23c-1.11,1.14-2.6,1.77-4.2,1.79L991.1,321c1.16,3.83,1.26,7.87,0.28,11.79l-0.91,3.64
										C989.26,341.33,984.8,344.69,979.89,344.69z M970.52,316.78c5.51,4.61,8.33,11.53,7.58,18.71l-0.55,5.26
										c-0.06,0.61,0.36,1.17,0.96,1.27c4.25,0.72,8.43-2,9.48-6.2l0.91-3.64c1-4,0.73-8.13-0.78-11.96
										c-0.15-0.39-0.11-0.83,0.13-1.18c0.23-0.35,0.63-0.56,1.05-0.56l25.53-0.26l0,0c0.91-0.01,1.76-0.37,2.4-1.02
										c0.64-0.65,0.98-1.51,0.97-2.42l-0.02-1.65c-0.01-0.89-0.36-1.72-0.99-2.34c-0.63-0.61-1.45-0.95-2.32-0.95
										c-0.01,0-0.01,0-0.05,0c-0.57,0-1.06-0.37-1.22-0.92c-0.16-0.55,0.06-1.14,0.54-1.44c0.65-0.41,1.62-1.32,1.61-1.96
										l-0.04-3.9c-0.02-1.43-1.18-2.58-2.61-2.58c-0.02,0-0.03,0-0.04,0c-0.53,0-1-0.33-1.19-0.82c-0.19-0.5-0.05-1.06,0.35-1.41
										c0.3-0.27,1.07-1.16,1.07-2l-0.03-2.87c-0.01-0.67-0.28-1.3-0.76-1.77c-0.48-0.47-1.22-0.71-1.79-0.71l-0.48,0
										c-0.69-0.01-1.25-0.55-1.27-1.24c-0.02-0.69,0.51-1.27,1.19-1.31c0.26-0.02,0.47-0.24,0.47-0.5l-0.02-1.38
										c0-0.53-0.21-1.02-0.59-1.39c-0.38-0.37-0.92-0.54-1.4-0.56l-35.42,0.36c-1.3,0.01-2.45,0.82-2.92,2.01l0.31,30.59
										C970.59,316.27,970.56,316.53,970.52,316.78z"/>
								</g>
								<g>
									<path class="st7" d="M969.04,317.23c-0.44,0.95-1.39,1.61-2.5,1.62l-15.84,0.16c-1.54,0.02-2.81-1.22-2.82-2.77
										l-0.32-31.05c-0.02-1.54,1.22-2.81,2.77-2.82l15.84-0.16c1.54-0.02,2.81,1.22,2.82,2.77l0,0.24l0.31,30.82
										C969.31,316.46,969.21,316.86,969.04,317.23z"/>
									<path class="st13" d="M950.67,320.29c-1.07,0-2.08-0.41-2.85-1.16c-0.78-0.76-1.21-1.78-1.22-2.87l-0.31-31.05
										c-0.01-1.09,0.4-2.11,1.16-2.89c0.76-0.78,1.78-1.21,2.87-1.22l15.83-0.16c2.35-0.03,4.09,1.79,4.12,4.03l0.31,31.05
										c0.01,0.6-0.12,1.19-0.39,1.76l0,0c-0.67,1.44-2.07,2.34-3.64,2.36l-15.83,0.16C950.7,320.29,950.69,320.29,950.67,320.29z
										 M966.19,283.48c-0.01,0-0.01,0-0.02,0l-15.83,0.16c-0.41,0-0.79,0.17-1.07,0.46c-0.28,0.29-0.44,0.67-0.43,1.08
										l0.31,31.05c0.01,0.41,0.16,0.79,0.46,1.07c0.28,0.28,0.66,0.43,1.06,0.43c0,0,0.01,0,0.02,0l15.83-0.16
										c0.59-0.01,1.1-0.34,1.36-0.88c0,0,0,0,0,0c0.1-0.22,0.15-0.43,0.15-0.65l-0.31-30.82
										C967.71,284.16,967.03,283.48,966.19,283.48z"/>
								</g>
							</g>
							<g>
								<path class="st7" d="M962.94,311.94c-0.02-1.62-1.34-2.91-2.96-2.9s-2.91,1.34-2.9,2.96c0.02,1.62,1.34,2.91,2.95,2.9
									C961.66,314.88,962.96,313.56,962.94,311.94z"/>
								<path class="st13" d="M960.01,316.18c-1.1,0-2.14-0.43-2.93-1.2c-0.8-0.79-1.25-1.83-1.26-2.96
									c-0.01-1.12,0.41-2.18,1.2-2.98c0.79-0.8,1.84-1.25,2.96-1.26c2.3-0.11,4.22,1.84,4.24,4.16c0,0,0,0,0,0
									c0.02,2.32-1.84,4.22-4.16,4.24C960.04,316.18,960.03,316.18,960.01,316.18z M960.02,310.33c0,0-0.01,0-0.02,0
									c-0.44,0-0.86,0.18-1.16,0.49c-0.31,0.31-0.48,0.73-0.47,1.17c0.01,0.44,0.18,0.86,0.5,1.16c0.31,0.3,0.72,0.47,1.15,0.47
									c0.01,0,0.01,0,0.02,0c0.91-0.01,1.64-0.76,1.64-1.66l0,0C961.66,311.05,960.92,310.33,960.02,310.33z"/>
							</g>
						</g>
					</g>
					<g>
						<path class="st7" d="M1002.4,288.18c0.26,0,8.01,0,8.01,0"/>
						<path class="st13" d="M1010.41,289.46h-8.01c-0.71,0-1.28-0.57-1.28-1.28s0.57-1.28,1.28-1.28h8.01
							c0.71,0,1.28,0.57,1.28,1.28S1011.12,289.46,1010.41,289.46z"/>
					</g>
					<g>
						<path class="st7" d="M1004.96,297.83c0.26,0,8.01,0,8.01,0"/>
						<path class="st13" d="M1012.97,299.1h-8.01c-0.71,0-1.28-0.57-1.28-1.28s0.57-1.28,1.28-1.28h8.01c0.71,0,1.28,0.57,1.28,1.28
							S1013.67,299.1,1012.97,299.1z"/>
					</g>
					<g>
						<path class="st7" d="M1006.75,308.62c0.26,0,8.01,0,8.01,0"/>
						<path class="st13" d="M1014.75,309.9h-8.01c-0.71,0-1.28-0.57-1.28-1.28c0-0.71,0.57-1.28,1.28-1.28h8.01
							c0.71,0,1.28,0.57,1.28,1.28C1016.03,309.33,1015.46,309.9,1014.75,309.9z"/>
					</g>
				</g>
			</g>
			<g>
				<g>
					
						<ellipse transform="matrix(0.7071 -0.7071 0.7071 0.7071 44.4576 486.6914)" class="st23" cx="609.72" cy="189.68" rx="40.42" ry="40.42"/>
					<g>
						
							<ellipse transform="matrix(0.161 -0.987 0.987 0.161 334.5341 763.0296)" class="st1" cx="616.05" cy="184.76" rx="40.42" ry="40.42"/>
						<path class="st23" d="M616.05,226.45c-22.99,0-41.7-18.71-41.7-41.7c0-22.99,18.71-41.7,41.7-41.7
							c22.99,0,41.7,18.71,41.7,41.7C657.75,207.75,639.04,226.45,616.05,226.45z M616.05,145.61c-21.58,0-39.14,17.56-39.14,39.15
							c0,21.58,17.56,39.14,39.14,39.14c21.58,0,39.14-17.56,39.14-39.14C655.19,163.17,637.63,145.61,616.05,145.61z"/>
					</g>
					<g>
						<path class="st14" d="M615.99,188.18c-6.37,0-11.55-5.18-11.55-11.55c0-6.37,5.18-11.55,11.55-11.55
							c6.37,0,11.55,5.18,11.55,11.55C627.54,183,622.35,188.18,615.99,188.18z M615.99,167.63c-4.96,0-9,4.04-9,9
							c0,4.96,4.04,9,9,9c4.96,0,9-4.04,9-9C624.98,171.67,620.95,167.63,615.99,167.63z"/>
						<path class="st14" d="M629.9,207.36h-27.83c-2.85,0-5.17-2.32-5.17-5.17c0-8.67,7.05-15.73,15.73-15.73h8.54
							c7.67,0,13.91,6.24,13.91,13.91v1.82C635.07,205.04,632.75,207.36,629.9,207.36z M612.63,189.02
							c-7.26,0-13.17,5.91-13.17,13.17c0,1.44,1.17,2.62,2.62,2.62h27.83c1.44,0,2.62-1.17,2.62-2.62v-1.82
							c0-6.26-5.09-11.36-11.36-11.36H612.63z"/>
					</g>
				</g>
				<g>
					<g>
						<path class="st0" d="M664.43,189.62c-6.94,6.94-18.2,6.94-25.14,0c-6.94-6.94-6.94-18.2,0-25.14c6.94-6.94,18.2-6.94,25.14,0
							C671.37,171.42,671.37,182.68,664.43,189.62z"/>
						<path class="st15" d="M651.86,196.1c-4.88,0-9.76-1.86-13.47-5.57c-7.43-7.43-7.43-19.52,0-26.95
							c3.6-3.6,8.38-5.58,13.47-5.58c5.09,0,9.88,1.98,13.47,5.58c3.6,3.6,5.58,8.38,5.58,13.47c0,5.09-1.98,9.88-5.58,13.47l0,0
							l0,0C661.62,194.24,656.74,196.1,651.86,196.1z M651.86,160.55c-4.41,0-8.55,1.72-11.67,4.83c-6.43,6.43-6.43,16.9,0,23.34
							c6.43,6.43,16.9,6.43,23.34,0l0,0c3.12-3.12,4.83-7.26,4.83-11.67c0-4.41-1.72-8.55-4.83-11.67
							C660.41,162.27,656.27,160.55,651.86,160.55z"/>
					</g>
					<g>
						<path class="st14" d="M657.77,183.44L645,170.66c-0.39-0.39-0.39-1.02,0-1.4c0.39-0.39,1.02-0.39,1.4,0l12.77,12.77
							c0.39,0.39,0.39,1.02,0,1.4C658.79,183.82,658.16,183.82,657.77,183.44z"/>
						<path class="st14" d="M645,183.44c-0.39-0.39-0.39-1.02,0-1.4l12.77-12.77c0.39-0.39,1.02-0.39,1.4,0
							c0.39,0.39,0.39,1.02,0,1.4l-12.77,12.77C646.02,183.82,645.39,183.82,645,183.44z"/>
					</g>
				</g>
			</g>
		</g>
	</g>
	<g>
		<g>
			<path class="st9" d="M557.01,449.62c-6.22-2.65-13.16-4.58-17.79-9.04c-2.37-2.28-3.85-4.93-4.78-7.77l-1.56-42.67
				c-1.59-43.45-35.19-78.46-78.25-84.91c12.1-6.88,20-20.12,19.29-34.97c-1.01-21.03-18.88-37.27-39.92-36.26
				c-21.04,1.01-37.27,18.88-36.26,39.92c0.68,14.25,9.12,26.28,21.03,32.25c-46.81,9.19-81.29,49.81-79.55,97.19l1.41,38.52
				c-0.54,0.81-1.15,1.59-1.86,2.34c-4.42,4.67-11.26,6.93-17.35,9.86c-27.32,13.16-40.96,44.34-30.69,70.17
				c1,2.51,2.32,5.11,4.86,6.59c2.36,1.38,5.35,1.56,8.18,1.67c40.78,1.63,81.58-0.76,122.27-3.18c8.72,0.07,17.45,0.17,26.17,0.28
				c42.02,0.54,84.15,1.17,126.07-2.47c2.82-0.25,5.8-0.56,8.09-2.05c2.47-1.6,3.67-4.26,4.55-6.81
				C599.99,492,584.92,461.49,557.01,449.62z"/>
			<path class="st9" d="M331.78,534.32c-9.35,0-18.7-0.16-28.05-0.54c-2.55-0.1-6.04-0.24-8.77-1.85c-2.91-1.7-4.36-4.61-5.4-7.22
				c-10.44-26.25,3.61-58.45,31.32-71.8c1.38-0.66,2.8-1.29,4.21-1.92c4.68-2.08,9.51-4.23,12.76-7.66
				c0.52-0.55,1.01-1.15,1.49-1.84l-1.39-38.1c-1.7-46.45,30.6-87.05,77.24-97.77c-11.01-6.79-18.09-18.63-18.72-31.65
				c-0.5-10.51,3.11-20.6,10.19-28.39c7.08-7.79,16.77-12.36,27.28-12.87c10.51-0.51,20.6,3.11,28.39,10.19
				c7.79,7.08,12.36,16.77,12.87,27.28c0.66,13.76-5.8,26.62-17.03,34.33c42.71,7.92,74.45,43.4,75.99,85.57l1.56,42.49
				c0.95,2.83,2.39,5.15,4.4,7.08c3.41,3.28,8.34,5.2,13.11,7.06c1.45,0.56,2.89,1.13,4.3,1.73l0,0
				c28.3,12.04,43.83,43.56,34.62,70.26c-0.92,2.66-2.23,5.63-5.06,7.46c-2.66,1.73-6.14,2.03-8.68,2.25
				c-41.07,3.56-82.96,3.03-123.46,2.51l-2.73-0.03c-8.72-0.11-17.44-0.22-26.16-0.28C395.25,532.44,363.58,534.32,331.78,534.32z
				 M435.88,235.23c-0.6,0-1.2,0.02-1.81,0.04c-9.83,0.47-18.89,4.75-25.51,12.03c-6.62,7.29-10,16.71-9.53,26.55
				c0.64,13.26,8.42,25.2,20.32,31.17c0.49,0.24,0.77,0.77,0.69,1.31c-0.07,0.54-0.48,0.97-1.02,1.08
				c-47.19,9.27-80.22,49.6-78.52,95.89l1.41,38.52c0.01,0.27-0.07,0.54-0.22,0.76c-0.64,0.94-1.29,1.76-1.99,2.5
				c-3.6,3.81-8.68,6.06-13.58,8.24c-1.39,0.62-2.79,1.24-4.14,1.89c-26.52,12.77-40.01,43.52-30.05,68.55
				c0.88,2.21,2.08,4.65,4.32,5.96c2.02,1.18,4.63,1.38,7.59,1.5c41.06,1.64,82.28-0.81,122.15-3.18
				c8.81,0.06,17.54,0.17,26.26,0.28l2.73,0.03c40.44,0.52,82.26,1.05,123.21-2.5c2.94-0.26,5.54-0.57,7.51-1.85
				c2.17-1.41,3.26-3.91,4.04-6.15c8.78-25.46-6.12-55.56-33.21-67.08c-1.38-0.59-2.8-1.14-4.23-1.7c-5-1.95-10.18-3.97-13.95-7.6
				c-2.35-2.27-4.02-4.98-5.11-8.29c-0.04-0.11-0.06-0.23-0.06-0.35l-1.56-42.67c-1.54-42.03-33.99-77.23-77.16-83.69
				c-0.54-0.08-0.97-0.49-1.07-1.03c-0.1-0.53,0.15-1.07,0.62-1.34c12.17-6.92,19.31-19.87,18.64-33.8
				c-0.47-9.83-4.74-18.89-12.03-25.51C453.78,238.59,445.05,235.23,435.88,235.23z"/>
		</g>
		<g>
			<g>
				<g>
					
						<rect x="392.84" y="500.31" transform="matrix(-1 -1.224647e-16 1.224647e-16 -1 880.6851 1113.5712)" class="st11" width="95.01" height="112.96"/>
					<path class="st18" d="M487.85,614.54h-95.01c-0.71,0-1.28-0.57-1.28-1.28V500.31c0-0.71,0.57-1.28,1.28-1.28h95.01
						c0.71,0,1.28,0.57,1.28,1.28v112.96C489.12,613.97,488.55,614.54,487.85,614.54z M394.12,611.99h92.45V501.58h-92.45V611.99z"
						/>
				</g>
				<path class="st10" d="M451.8,529.16c-12.84,8.06-40.02,23.86-58.96,25.89v-45.39c11.9,12.63,28.77,20.54,47.5,20.54
					C444.26,530.2,448.08,529.82,451.8,529.16z"/>
				<g>
					<g>
						<path class="st10" d="M367.61,424.2l0.96-0.01l0.65,42.83c0.04,2.47,0.22,4.91,0.51,7.31l-1.36,0.02
							c-13.85,0.21-25.24-10.84-25.45-24.69C342.71,435.8,353.76,424.41,367.61,424.2z"/>
						<path class="st9" d="M367.98,475.62c-14.35,0-26.12-11.56-26.34-25.95c-0.22-14.53,11.42-26.53,25.95-26.75l0.96-0.02
							c0.38-0.01,0.67,0.12,0.91,0.36c0.24,0.24,0.38,0.56,0.39,0.9l0.65,42.83c0.04,2.32,0.2,4.74,0.5,7.18
							c0.04,0.36-0.07,0.72-0.31,0.99c-0.24,0.27-0.58,0.43-0.94,0.44l-1.36,0.02C368.25,475.62,368.12,475.62,367.98,475.62z
							 M367.31,425.48c-12.98,0.37-23.32,11.14-23.12,24.15c0.2,13,10.84,23.44,23.79,23.44c0.11,0,0.21,0,0.32,0
							c-0.21-2.05-0.33-4.07-0.36-6.04L367.31,425.48z"/>
					</g>
					<g>
						<path class="st10" d="M506.46,422.08l0.96-0.01c13.85-0.21,25.24,10.84,25.45,24.69c0.21,13.85-10.84,25.24-24.69,25.45
							l-1.36,0.02c0.22-2.41,0.32-4.85,0.28-7.32L506.46,422.08z"/>
						<path class="st9" d="M506.83,473.51c-0.36,0-0.69-0.15-0.93-0.41c-0.25-0.27-0.37-0.62-0.34-0.98
							c0.22-2.46,0.32-4.88,0.28-7.19l-0.65-42.83c0-0.34,0.12-0.67,0.36-0.91c0.24-0.24,0.56-0.38,0.9-0.39l0.96-0.01
							c7.01-0.16,13.69,2.53,18.75,7.43c5.05,4.9,7.89,11.48,8,18.51c0.11,7.04-2.53,13.7-7.43,18.75c-4.9,5.05-11.47,7.89-18.51,8
							l-1.36,0.02C506.85,473.51,506.84,473.51,506.83,473.51z M507.76,423.34l0.63,41.55c0.03,1.95-0.03,3.98-0.18,6.04
							c6.34-0.11,12.26-2.67,16.67-7.23c4.43-4.56,6.81-10.58,6.71-16.93c-0.1-6.36-2.66-12.29-7.23-16.72
							c-4.47-4.34-10.34-6.71-16.56-6.71C507.8,423.34,507.78,423.34,507.76,423.34z"/>
					</g>
					<g>
						<g>
							<path class="st10" d="M506.37,415.66c-38.09-7.95-66.71-37.3-72.55-73.34c-0.26,0.01-0.52,0.02-0.78,0.03
								c-4.51,34.36-29.68,63.31-64.59,73.95l0.11,6.97l0.65,42.34c0.04,2.45,0.22,4.85,0.51,7.23c1.86,15.2,8.78,28.81,19,39.21
								c12.77,13,30.71,20.98,50.48,20.68c4.13-0.06,8.16-0.52,12.08-1.27c29.87-5.7,52.77-30.39,55.54-60.71
								c0.22-2.38,0.32-4.79,0.29-7.24l-0.65-42.34L506.37,415.66z"/>
							<path class="st9" d="M438.09,534.02c-19.1,0-36.92-7.46-50.29-21.07c-10.81-11-17.51-24.82-19.35-39.95
								c-0.31-2.5-0.48-4.98-0.52-7.36l-0.75-49.32c-0.01-0.57,0.36-1.07,0.9-1.24c34.25-10.44,59.25-39.05,63.7-72.89
								c0.08-0.61,0.58-1.07,1.19-1.11l0.8-0.03c0.6-0.01,1.22,0.43,1.32,1.07c5.76,35.51,34.51,64.56,71.55,72.3
								c0.58,0.12,1.01,0.63,1.02,1.23l0.73,47.85c0.04,2.38-0.06,4.86-0.29,7.38c-2.8,30.59-26.06,56.02-56.57,61.85
								c-4.16,0.8-8.3,1.23-12.3,1.29C438.83,534.01,438.46,534.02,438.09,534.02z M369.74,417.23l0.74,48.36
								c0.03,2.29,0.2,4.68,0.5,7.09c1.78,14.57,8.23,27.87,18.64,38.47c13.14,13.38,30.75,20.59,49.55,20.3
								c3.85-0.06,7.84-0.48,11.86-1.25c29.4-5.61,51.82-30.11,54.51-59.57c0.22-2.43,0.32-4.82,0.28-7.1l-0.71-46.84
								c-35.86-7.88-64-35.28-71.6-69.24C427.32,379.8,402.8,406.8,369.74,417.23z"/>
						</g>
					</g>
				</g>
				<g>
					<g>
						<path class="st9" d="M519.32,453.85c-0.28,0-0.56-0.09-0.8-0.28l-4.91-3.95c-0.52-0.42-0.81-1.04-0.79-1.71
							c0.01-0.66,0.33-1.27,0.86-1.67l5.44-4.03c0.57-0.42,1.36-0.3,1.79,0.27c0.42,0.57,0.3,1.36-0.27,1.79l-5,3.7l4.48,3.61
							c0.55,0.44,0.64,1.25,0.19,1.8C520.06,453.69,519.69,453.85,519.32,453.85z"/>
						<path class="st9" d="M355.86,456.34c-0.36,0-0.72-0.15-0.97-0.45c-0.46-0.54-0.4-1.34,0.14-1.8l4.37-3.74l-5.11-3.55
							c-0.58-0.4-0.72-1.2-0.32-1.78c0.4-0.58,1.2-0.72,1.78-0.32l5.56,3.86c0.55,0.38,0.88,0.98,0.91,1.64
							c0.03,0.66-0.24,1.29-0.74,1.73l-4.79,4.1C356.45,456.24,356.15,456.34,355.86,456.34z M359.85,450.66h0.03H359.85z"/>
					</g>
					<g>
						<path class="st9" d="M417.09,440.56c0.05,3.24-2.54,5.91-5.78,5.96c-3.24,0.05-5.91-2.54-5.96-5.78
							c-0.05-3.24,2.54-5.91,5.78-5.96C414.37,434.73,417.04,437.32,417.09,440.56z"/>
						<g>
							<path class="st7" d="M415.19,447.26c0,0-4.09-2.94-9.08,0.14"/>
							<path class="st9" d="M406.11,448.67c-0.43,0-0.85-0.22-1.09-0.61c-0.37-0.6-0.18-1.39,0.42-1.76
								c5.65-3.48,10.3-0.23,10.5-0.09c0.57,0.41,0.7,1.21,0.29,1.78c-0.41,0.57-1.21,0.7-1.78,0.3c-0.17-0.12-3.53-2.37-7.67,0.19
								C406.57,448.61,406.34,448.67,406.11,448.67z"/>
						</g>
						<path class="st9" d="M479.25,439.99c0.05,3.24-2.54,5.91-5.78,5.96c-3.24,0.05-5.91-2.54-5.96-5.78
							c-0.05-3.24,2.54-5.91,5.78-5.96C476.54,434.16,479.2,436.75,479.25,439.99z"/>
						<g>
							<path class="st7" d="M478.72,446.29c0,0-4.09-2.94-9.09,0.14"/>
							<path class="st9" d="M469.64,447.7c-0.43,0-0.85-0.22-1.09-0.61c-0.37-0.6-0.18-1.39,0.42-1.76
								c5.65-3.48,10.3-0.23,10.5-0.09c0.57,0.41,0.7,1.21,0.29,1.78c-0.41,0.57-1.21,0.7-1.77,0.3c-0.15-0.11-3.51-2.38-7.68,0.18
								C470.1,447.64,469.87,447.7,469.64,447.7z"/>
						</g>
						<g>
							<path class="st9" d="M405.45,414.66c1.69,0.14,3.38,1.27,5.07,2.26c1.68,1.04,3.4,2.03,4.92,2.85
								c1.52,0.82,3.31,1.7,5.1,2.52c1.76,0.86,3.64,1.65,4.68,2.97c1.01,1.25,0.69,3.12-1.9,4.24c-2.47,1.12-7.38,1.14-12.43-1.55
								c-5.03-2.71-7.67-6.78-8.05-9.42C402.4,415.78,403.82,414.51,405.45,414.66z"/>
						</g>
						<g>
							<path class="st9" d="M475.91,413.38c-1.67,0.28-3.27,1.53-4.88,2.65c-1.6,1.16-3.23,2.29-4.68,3.22
								c-1.46,0.93-3.16,1.95-4.89,2.91c-1.69,1-3.5,1.93-4.43,3.32c-0.91,1.33-0.45,3.17,2.22,4.08c2.55,0.92,7.45,0.56,12.27-2.52
								c4.8-3.1,7.11-7.36,7.29-10.02C479.04,414.26,477.52,413.1,475.91,413.38z"/>
						</g>
						<path class="st9" d="M433.68,478.14c-0.49,0-0.95-0.28-1.17-0.75c-2.22-4.94-5.14-7.99-8.7-9.06
							c-4.96-1.49-9.61,1.37-9.66,1.4c-0.59,0.38-1.38,0.2-1.76-0.4c-0.38-0.59-0.2-1.38,0.39-1.76c0.23-0.15,5.64-3.52,11.74-1.7
							c4.31,1.29,7.78,4.81,10.32,10.47c0.29,0.64,0,1.4-0.64,1.69C434.04,478.1,433.86,478.14,433.68,478.14z"/>
						<path class="st9" d="M437.71,458.27c-0.67,0-1.24-0.52-1.27-1.21c-0.04-0.7,0.5-1.31,1.2-1.35l5.11-0.29
							c3.42-0.19,6.57-1.71,8.85-4.26c2.28-2.56,3.44-5.85,3.25-9.27c-0.09-1.7-1.55-3-3.26-2.91c-2.66,0.15-5.23-0.75-7.22-2.53
							c-1.99-1.78-3.17-4.23-3.32-6.9l-0.71-12.61c-0.04-0.7,0.5-1.31,1.2-1.34c0.68-0.06,1.31,0.5,1.35,1.2l0.71,12.61
							c0.11,1.99,0.99,3.81,2.47,5.14c1.48,1.32,3.36,1.98,5.38,1.88c3.09-0.17,5.77,2.21,5.95,5.31
							c0.47,8.47-6.03,15.75-14.5,16.22l-5.11,0.29C437.76,458.27,437.73,458.27,437.71,458.27z"/>
					</g>
				</g>
			</g>
			<g>
				<g>
					<path class="st25" d="M342.11,419"/>
				</g>
			</g>
			<g>
				<g>
					<g>
						<path class="st14" d="M511.25,468.6c0.05,3.36,2.82,6.04,6.17,5.99c3.36-0.05,6.04-2.82,5.99-6.18
							c-0.05-3.36-2.82-6.04-6.18-5.99C513.88,462.48,511.2,465.24,511.25,468.6z"/>
						<path class="st9" d="M517.33,475.87c-4.01,0-7.3-3.23-7.36-7.25c-0.06-4.06,3.19-7.41,7.25-7.47
							c4.04-0.02,7.41,3.19,7.47,7.25c0.03,1.97-0.71,3.83-2.08,5.24c-1.37,1.41-3.2,2.2-5.17,2.23
							C517.41,475.87,517.37,475.87,517.33,475.87z M517.33,463.7c-0.02,0-0.05,0-0.07,0c-2.65,0.04-4.77,2.23-4.73,4.88
							c0.04,2.65,2.14,4.7,4.88,4.73c1.28-0.02,2.48-0.54,3.38-1.46c0.89-0.92,1.37-2.14,1.35-3.42
							C522.1,465.81,519.95,463.7,517.33,463.7z"/>
					</g>
				</g>
				<g>
					<g>
						<path class="st14" d="M352,471.03c0.05,3.36,2.82,6.04,6.18,5.99c3.36-0.05,6.04-2.82,5.99-6.17
							c-0.05-3.36-2.82-6.04-6.17-5.99C354.63,464.91,351.95,467.67,352,471.03z"/>
						<path class="st9" d="M358.08,478.3c-1.92,0-3.74-0.74-5.12-2.08c-1.41-1.37-2.2-3.21-2.23-5.17
							c-0.06-4.06,3.19-7.41,7.25-7.47c4.03,0.01,7.41,3.19,7.47,7.25c0.03,1.97-0.71,3.83-2.08,5.24c-1.37,1.41-3.2,2.21-5.17,2.23
							C358.15,478.3,358.12,478.3,358.08,478.3z M358.08,466.13c-0.02,0-0.05,0-0.07,0c-2.65,0.04-4.77,2.23-4.73,4.88
							c0.02,1.28,0.54,2.48,1.46,3.38c0.92,0.89,2.16,1.36,3.42,1.36c1.29-0.02,2.48-0.54,3.38-1.46c0.89-0.92,1.37-2.14,1.35-3.42
							c-0.02-1.28-0.54-2.48-1.46-3.38C360.52,466.61,359.34,466.13,358.08,466.13z"/>
					</g>
				</g>
			</g>
		</g>
		<g>
			<path class="st13" d="M333.29,376.62c-0.91,0-1.72-0.65-1.88-1.58c-0.18-1.04,0.51-2.03,1.56-2.22c3.46-0.61,6.48-2.52,8.5-5.4
				c2.02-2.88,2.8-6.37,2.19-9.83c-1.25-7.14-8.07-11.93-15.23-10.69c-1.05,0.19-2.03-0.51-2.22-1.56
				c-0.18-1.04,0.51-2.03,1.56-2.22c9.22-1.6,18.04,4.58,19.66,13.8c0.78,4.47-0.22,8.97-2.83,12.69c-2.61,3.71-6.5,6.19-10.97,6.97
				C333.51,376.61,333.4,376.62,333.29,376.62z"/>
			<path class="st13" d="M370.4,351.38c-2.11,0-4.24-0.39-6.31-1.23c-4.21-1.69-7.51-4.92-9.29-9.09c-1.78-4.17-1.83-8.79-0.14-13
				c0.39-0.98,1.51-1.46,2.49-1.06c0.98,0.39,1.46,1.51,1.06,2.49c-1.31,3.26-1.27,6.84,0.11,10.07c1.38,3.23,3.93,5.73,7.19,7.04
				c6.73,2.7,14.41-0.57,17.11-7.3c0.39-0.98,1.51-1.46,2.49-1.06c0.98,0.39,1.46,1.51,1.06,2.49
				C383.52,347.35,377.13,351.38,370.4,351.38z"/>
			<path class="st13" d="M388.5,389.87c-0.07,0-0.14,0-0.21-0.01c-9.31-1.02-16.05-9.42-15.03-18.73
				c1.02-9.31,9.4-16.07,18.73-15.03c1.05,0.11,1.81,1.06,1.7,2.11c-0.12,1.05-1.07,1.81-2.11,1.7
				c-7.22-0.79-13.72,4.43-14.51,11.64c-0.79,7.21,4.43,13.72,11.64,14.51c1.05,0.11,1.81,1.06,1.7,2.11
				C390.3,389.14,389.47,389.87,388.5,389.87z"/>
			<path class="st13" d="M365.84,397.64c-0.24,0-0.48-0.04-0.71-0.14c-0.98-0.39-1.46-1.51-1.06-2.49c1.08-2.69,1.05-5.64-0.09-8.31
				c-1.14-2.67-3.24-4.73-5.93-5.81c-2.69-1.08-5.64-1.05-8.31,0.09c-2.67,1.14-4.73,3.25-5.81,5.94c-0.4,0.98-1.51,1.46-2.49,1.06
				c-0.98-0.39-1.46-1.51-1.06-2.49c1.46-3.64,4.26-6.49,7.86-8.03c3.61-1.54,7.6-1.58,11.24-0.12c7.51,3.02,11.17,11.59,8.15,19.1
				C367.31,397.19,366.59,397.64,365.84,397.64z"/>
		</g>
	</g>
	<g>
		<g>
			<g>
				<path class="st13" d="M590.14,951.45l-17.33-24.26l-16.56-23.17l-11.88-16.63l-116.67-0.49l-118.63,0.49l-11.88,16.63
					l-16.55,23.17l-17.34,24.26c-19.88,27.83-33.44,58.95-40.16,91.44h407.17C623.58,1010.4,610.03,979.28,590.14,951.45z"/>
				<path class="st13" d="M630.31,1044.16H223.13c-0.38,0-0.75-0.17-0.99-0.47c-0.24-0.3-0.34-0.69-0.26-1.06
					c6.85-33.08,20.43-64,40.37-91.92l45.77-64.07c0.24-0.33,0.62-0.53,1.03-0.53l118.64-0.49l116.68,0.49c0.41,0,0.8,0.2,1.03,0.53
					l45.77,64.07l0,0c19.94,27.92,33.53,58.84,40.37,91.92c0.08,0.38-0.02,0.77-0.26,1.06
					C631.06,1043.99,630.69,1044.16,630.31,1044.16z M224.71,1041.61h404.03c-6.87-32.15-20.2-62.22-39.63-89.42l-45.39-63.54
					l-116.02-0.49l-117.97,0.49l-45.39,63.54C244.91,979.39,231.58,1009.46,224.71,1041.61z"/>
			</g>
		</g>
		<g>
			<g>
				<g>
					<path class="st5" d="M569.25,936.88H286.75c-0.71,0-1.28-0.57-1.28-1.28c0-0.71,0.57-1.28,1.28-1.28h282.49
						c0.71,0,1.28,0.57,1.28,1.28C570.52,936.31,569.95,936.88,569.25,936.88z"/>
					<path class="st5" d="M417.87,990.61c-0.71,0-1.28-0.57-1.28-1.28v-53.72c0-0.71,0.57-1.28,1.28-1.28s1.28,0.57,1.28,1.28v53.72
						C419.14,990.04,418.57,990.61,417.87,990.61z"/>
					<path class="st5" d="M445.78,990.61c-0.71,0-1.28-0.57-1.28-1.28v-53.72c0-0.71,0.57-1.28,1.28-1.28
						c0.71,0,1.28,0.57,1.28,1.28v53.72C447.06,990.04,446.49,990.61,445.78,990.61z"/>
					<path class="st5" d="M277.1,991.29c-0.54,0-1.04-0.35-1.22-0.89c-0.21-0.67,0.16-1.39,0.83-1.6
						c43.65-13.89,35.88-52.53,35.8-52.92c-0.15-0.69,0.29-1.37,0.98-1.52c0.69-0.13,1.37,0.29,1.52,0.98
						c0.09,0.41,8.31,41.3-37.52,55.89C277.36,991.27,277.23,991.29,277.1,991.29z"/>
					<path class="st5" d="M568.25,991.29c-0.13,0-0.26-0.02-0.39-0.06c-45.83-14.58-37.61-55.48-37.52-55.89
						c0.15-0.69,0.83-1.13,1.51-0.98c0.69,0.15,1.13,0.83,0.98,1.51c-0.34,1.59-7.78,39.05,35.8,52.92c0.67,0.21,1.04,0.93,0.83,1.6
						C569.29,990.94,568.79,991.29,568.25,991.29z"/>
				</g>
			</g>
		</g>
	</g>
	<g>
		<path class="st26" d="M285.7,787.31c-3.92-7.15-9.5-17.36-13.42-24.52l-77.78-69.94l45.3-89.83
			c16.29-32.31,47.22-53.31,81.61-56.02c2.5-0.2,5.02-0.31,7.55-0.31h51.1l54.47,42.2l57.47-42.2h39.69c2.53,0,5.05,0.12,7.55,0.31
			c27.44,2.16,57.21,17.44,76.77,37.18c11.81,11.92,71.99,82.84,71.99,82.84l-109.9,117.54l-26.31,122.48
			c0,0-255.37,3.2-258.97,0.64C285.64,902.6,285.7,787.31,285.7,787.31z"/>
		<path class="st26" d="M351.42,909.95c-33.77,0-58.09-0.32-59.35-1.21c-7.3-5.18-7.66-100.99-7.65-121.09l-13.16-24.04l-77.61-69.8
			c-0.43-0.39-0.54-1.01-0.29-1.52l45.3-89.83c16.51-32.74,47.41-53.94,82.65-56.71c2.73-0.21,5.24-0.32,7.65-0.32h51.1
			c0.28,0,0.56,0.09,0.78,0.27l53.71,41.6l56.69-41.63c0.22-0.16,0.48-0.25,0.76-0.25h39.69c2.41,0,4.91,0.1,7.65,0.32
			c26.59,2.09,57.04,16.83,77.58,37.56c11.71,11.82,71.46,82.2,72.06,82.91c0.42,0.49,0.4,1.23-0.04,1.7L579.26,785.18
			l-26.24,122.13c-0.12,0.58-0.64,1-1.23,1.01C512.57,908.81,415.18,909.95,351.42,909.95z M196.08,692.56l77.05,69.29
			c0.11,0.1,0.2,0.21,0.27,0.34l13.42,24.52c0.1,0.19,0.16,0.4,0.16,0.61c-0.03,55.48,2.27,116.16,6.58,119.33
			c5.98,1.83,186.69,0.02,257.2-0.87l26.1-121.48c0.05-0.23,0.16-0.43,0.32-0.6l109.12-116.71c-6.92-8.15-60.25-70.87-71.19-81.9
			c-20.13-20.32-49.95-34.77-75.96-36.81c-2.67-0.21-5.1-0.31-7.45-0.31h-39.27l-57.13,41.95c-0.46,0.34-1.09,0.33-1.54-0.02
			l-54.12-41.93h-50.67c-2.35,0-4.78,0.1-7.45,0.31c-34.34,2.7-64.46,23.38-80.57,55.32L196.08,692.56z"/>
	</g>
	<g>
		<path class="st5" d="M413.4,608.49l-67.83-61.82l36.3-0.35l52.66,40.79l57.02-41.86l33.34-0.33l-68.05,63.34
			C444.62,619.63,425.73,619.73,413.4,608.49z"/>
		<path class="st27" d="M434.99,618.06c-8.07,0-16.13-2.87-22.45-8.63l0,0l-67.83-61.82c-0.39-0.35-0.52-0.91-0.33-1.4
			c0.19-0.49,0.66-0.82,1.18-0.82l36.3-0.36c0.23-0.05,0.57,0.09,0.79,0.27l51.89,40.2l56.24-41.29c0.22-0.16,0.48-0.25,0.74-0.25
			l33.34-0.33c0.5-0.09,1,0.31,1.2,0.8c0.2,0.49,0.07,1.05-0.32,1.41L457.7,609.2C451.36,615.1,443.17,618.06,434.99,618.06z
			 M414.26,607.55c11.75,10.71,30.07,10.61,41.7-0.22l65.64-61.1l-29.64,0.29l-56.68,41.62c-0.46,0.34-1.09,0.33-1.54-0.02
			l-52.3-40.52l-32.61,0.32L414.26,607.55z"/>
	</g>
	<g>
		<line class="st12" x1="284.7" y1="782.73" x2="303.41" y2="706.36"/>
		<path class="st28" d="M284.7,784.01c-0.1,0-0.2-0.01-0.31-0.04c-0.68-0.17-1.1-0.86-0.94-1.54l18.71-76.37
			c0.17-0.68,0.87-1.1,1.54-0.94c0.68,0.17,1.1,0.86,0.94,1.54l-18.71,76.37C285.79,783.62,285.27,784.01,284.7,784.01z"/>
	</g>
	<g>
		<g>
			<g>
				<g>
					<g>
						<g>
							<g>
								<g>
									<g>
										<g>
											<path class="st10" d="M140.36,600.81c3.65,31.49,11.37,194.75,29.73,237.03c3.17,7.31,6.92,14.33,11.35,20.84
												c13.76,20.25,34.97,35.53,57.8,36.63c59.74,2.88,73.18-71.12,54.59-120.03l-56.39-189.66"/>
											<path class="st11" d="M242.53,896.67c-1.11,0-2.23-0.03-3.36-0.08c-21.7-1.04-43.68-14.94-58.79-37.18
												c-4.27-6.28-8.13-13.37-11.46-21.05c-14.29-32.9-22.03-136.71-26.65-198.73c-1.31-17.63-2.35-31.56-3.18-38.66
												c-0.08-0.7,0.42-1.33,1.12-1.41c0.7-0.08,1.33,0.42,1.41,1.12c0.83,7.15,1.87,21.1,3.19,38.76
												c4.61,61.86,12.33,165.39,26.44,197.9c3.27,7.54,7.05,14.48,11.23,20.63c14.66,21.58,35.9,35.06,56.8,36.07
												c19.28,0.92,35.15-6.44,45.94-21.29c16.83-23.19,19.95-63.99,7.4-97.01l-56.42-189.75c-0.2-0.68,0.18-1.39,0.86-1.59
												c0.68-0.19,1.39,0.18,1.59,0.86l56.39,189.66c12.8,33.68,9.55,75.49-7.75,99.33
												C276.62,888.96,261.19,896.67,242.53,896.67z"/>
										</g>
									</g>
								</g>
							</g>
						</g>
					</g>
				</g>
			</g>
		</g>
		<g>
			<g>
				<path class="st10" d="M149.16,612.53l-26.06-42.03l-38.79-10.2c-7.5-1.97-14.31-5.58-19.92-10.56l-25.33-22.45
					c-2.43-2.15-1.72-6.09,1.37-7.68l0,0c7.9-4.06,17.27-3.42,23.86,1.64l20.39,15.64l19.69-4.99l-21-19.9
					c-1.89-1.79-3.36-3.96-4.32-6.36l-7.6-24.49c-1.93-6.21,2.08-13.03,8.81-15l0,0c5.74-1.68,8.83,2.04,11.17,7.06l12.34,23.03
					l35.99,28.76l-16.25-22.93c-5-7.05-7.78-15.4-8.04-24.15l-0.62-20.86c-0.18-5.93,5.39-10.88,11.54-10.28l0,0
					c6.82,0.67,12.02,5.67,12.69,12.18l2.51,24.54l33.94,37.48l4.26-47.19c0.45-4.99,5.7-8.53,10.62-7.16l0,0
					c7.39,2.05,12.33,8.39,12.35,15.86l0.1,41.88l10.81,7.34c20.11,13.64,29.57,37.54,24.38,61.61l-4.52,21"/>
				<path class="st11" d="M233.52,615.59c-0.09,0-0.18-0.01-0.27-0.03c-0.69-0.15-1.13-0.83-0.98-1.52l4.52-21
					c5.11-23.74-4.03-46.85-23.85-60.29l-10.81-7.34c-0.35-0.24-0.56-0.63-0.56-1.05l-0.1-41.88c-0.02-6.87-4.6-12.75-11.41-14.64
					c-2.02-0.56-4.21-0.17-6.01,1.08c-1.73,1.2-2.82,3.01-3,4.97l-4.26,47.19c-0.05,0.5-0.38,0.93-0.87,1.1
					c-0.48,0.16-1.01,0.02-1.35-0.35l-33.94-37.48c-0.18-0.2-0.3-0.46-0.32-0.73l-2.51-24.54c-0.6-5.89-5.35-10.43-11.54-11.04
					c-2.67-0.26-5.34,0.66-7.33,2.52c-1.85,1.73-2.87,4.08-2.8,6.44l0.62,20.86c0.25,8.5,2.95,16.6,7.8,23.45l16.25,22.93
					c0.37,0.52,0.3,1.23-0.17,1.67c-0.46,0.44-1.18,0.47-1.67,0.07l-35.99-28.76c-0.14-0.11-0.25-0.24-0.33-0.39L90.29,473.8
					c-2.71-5.82-5.52-7.67-9.69-6.44c-3.06,0.89-5.65,2.97-7.12,5.7c-1.32,2.45-1.61,5.18-0.83,7.69l7.6,24.49
					c0.86,2.15,2.21,4.14,3.98,5.81l21,19.9c0.34,0.32,0.47,0.8,0.36,1.25c-0.12,0.45-0.47,0.8-0.92,0.92l-19.69,4.99
					c-0.38,0.1-0.78,0.01-1.09-0.23l-20.39-15.64c-6.2-4.76-15.03-5.35-22.5-1.52c-1.17,0.6-1.96,1.68-2.11,2.89
					c-0.13,1.05,0.22,2.01,1,2.7l25.33,22.45c5.43,4.81,12.14,8.37,19.4,10.28l38.79,10.2c0.32,0.08,0.59,0.28,0.76,0.56
					l26.06,42.03c0.37,0.6,0.19,1.39-0.41,1.76c-0.6,0.37-1.39,0.19-1.76-0.41l-25.79-41.59l-38.29-10.07
					c-7.65-2.01-14.72-5.76-20.45-10.84l-25.33-22.45c-1.41-1.25-2.08-3.04-1.84-4.92c0.26-2.05,1.56-3.86,3.48-4.85
					c8.34-4.29,18.24-3.59,25.22,1.76l19.89,15.26l16.84-4.27l-19.32-18.31c-2.04-1.93-3.6-4.23-4.63-6.82l-7.63-24.59
					c-0.98-3.17-0.62-6.6,1.02-9.66c1.79-3.33,4.94-5.86,8.65-6.95c7.16-2.09,10.67,3.42,12.69,7.75l12.18,22.74l28.72,22.95
					l-11.02-15.55c-5.14-7.26-8-15.85-8.27-24.85l-0.62-20.86c-0.09-3.1,1.23-6.16,3.61-8.39c2.53-2.37,5.92-3.53,9.33-3.2
					c7.42,0.73,13.11,6.21,13.83,13.32l2.46,24.12l31.7,35.01l4-44.29c0.25-2.72,1.74-5.21,4.09-6.84c2.43-1.68,5.39-2.2,8.14-1.44
					c7.93,2.2,13.27,9.06,13.29,17.09l0.1,41.21l10.26,6.96c20.39,13.83,30.17,38.54,24.92,62.94l-4.52,21
					C234.64,615.18,234.11,615.59,233.52,615.59z"/>
			</g>
			<g>
				<line class="st16" x1="104.31" y1="531.47" x2="118.4" y2="544.94"/>
				<path class="st11" d="M118.4,546.22c-0.32,0-0.63-0.12-0.88-0.35l-14.09-13.47c-0.51-0.49-0.53-1.29-0.04-1.8
					c0.49-0.5,1.29-0.53,1.8-0.04l14.09,13.47c0.51,0.49,0.53,1.3,0.04,1.8C119.08,546.09,118.74,546.22,118.4,546.22z"/>
			</g>
		</g>
	</g>
	<g>
		<g>
			<g>
				<g>
					<g>
						<g>
							<path class="st29" d="M435.31,558.44l7.26-27.4l11.79,16.15l21.82-78.57l21.39,72.46l20.95-33.61l6.55,35.36l15.71-20.95
								l4.41,45.67c1.87,19.35-6.46,38.29-21.98,49.99l0,0c-19.01,14.33-45.01,15.04-64.77,1.78l-0.25-0.17
								C438.39,605.86,429.21,581.49,435.31,558.44z"/>
							<path class="st3" d="M489.57,630.06c-11.09,0-22.2-3.21-31.84-9.69l-0.25-0.17c-20.24-13.58-29.64-38.54-23.4-62.09l0,0
								l7.26-27.4c0.13-0.48,0.51-0.84,1-0.93c0.48-0.09,0.98,0.1,1.27,0.5l10.23,14.02l21.12-76.03c0.15-0.55,0.65-0.93,1.22-0.93
								c0.59,0,1.07,0.37,1.23,0.91l20.59,69.73l19.45-31.2c0.28-0.44,0.8-0.68,1.32-0.58c0.52,0.1,0.92,0.5,1.02,1.02l6.02,32.49
								l13.97-18.62c0.32-0.42,0.85-0.61,1.37-0.46c0.51,0.14,0.88,0.58,0.92,1.11l4.41,45.67c1.9,19.65-6.72,39.25-22.48,51.13
								C513.82,626.21,501.71,630.06,489.57,630.06z M436.54,558.77c-5.96,22.51,3.02,46.35,22.36,59.32l0.25,0.17
								c19.3,12.95,44.73,12.26,63.29-1.74c15.06-11.35,23.29-30.07,21.48-48.85l-4.09-42.39l-13.74,18.32
								c-0.3,0.41-0.82,0.59-1.31,0.48c-0.49-0.12-0.87-0.51-0.96-1.01l-5.95-32.12l-19.21,30.82c-0.27,0.42-0.77,0.65-1.26,0.59
								c-0.5-0.07-0.91-0.42-1.05-0.9l-20.13-68.19l-20.63,74.28c-0.13,0.47-0.52,0.83-1,0.91c-0.48,0.09-0.97-0.11-1.26-0.5
								l-10.21-13.99L436.54,558.77z"/>
						</g>
						<g>
							<path class="st1" d="M443.89,578.54l5.63-19.57l9.14,11.54l16.93-56.12l16.59,51.76l16.26-24.01l5.08,25.25l12.19-14.97
								l3.42,32.62c1.45,13.82-5.01,27.35-17.06,35.71l0,0c-14.75,10.24-34.92,10.75-50.25,1.27l-0.19-0.12
								C446.28,612.42,439.15,595,443.89,578.54z"/>
							<path class="st3" d="M485.98,630.06c-8.65,0-17.31-2.31-24.82-6.95c-16.04-9.91-23.39-27.91-18.5-44.92l5.63-19.57
								c0.13-0.46,0.51-0.81,0.98-0.9c0.47-0.09,0.95,0.08,1.25,0.46l7.63,9.62l16.23-53.78c0.16-0.53,0.65-0.9,1.21-0.91
								c0.51-0.09,1.06,0.35,1.23,0.89l15.79,49.26l14.79-21.83c0.29-0.43,0.8-0.63,1.31-0.54c0.5,0.1,0.9,0.5,1,1l4.55,22.6
								l10.48-12.87c0.33-0.4,0.86-0.56,1.35-0.42c0.49,0.15,0.85,0.58,0.9,1.09l3.42,32.62c1.49,14.19-5.25,28.32-17.6,36.89
								C504.9,627.29,495.45,630.06,485.98,630.06z M450.06,561.71l-4.95,17.19l0,0c-4.57,15.9,2.34,32.74,17.19,41.92
								c15.09,9.32,34.72,8.83,49.05-1.11c11.58-8.04,17.91-21.27,16.51-34.53l-3.1-29.57l-10.25,12.59
								c-0.31,0.38-0.82,0.55-1.3,0.43c-0.48-0.12-0.85-0.5-0.94-0.99l-4.48-22.27l-14.55,21.48c-0.27,0.4-0.76,0.62-1.24,0.55
								c-0.48-0.07-0.89-0.41-1.03-0.87l-15.34-47.85l-15.75,52.19c-0.14,0.45-0.52,0.8-0.98,0.88c-0.47,0.08-0.95-0.09-1.24-0.46
								L450.06,561.71z M443.89,578.54h0.03H443.89z"/>
						</g>
					</g>
					<g>
						<path class="st23" d="M540.29,731.92h-93.42c-2.4,0-4.35-1.95-4.35-4.35V576.03c0-2.4,1.95-4.35,4.35-4.35h93.42
							c2.4,0,4.35,1.95,4.35,4.35v151.54C544.65,729.97,542.7,731.92,540.29,731.92z"/>
						<path class="st3" d="M533.54,733.2h-79.91c-6.83,0-12.38-5.56-12.38-12.38V582.79c0-6.83,5.56-12.38,12.38-12.38h79.91
							c6.83,0,12.38,5.56,12.38,12.38v138.03C545.92,727.64,540.37,733.2,533.54,733.2z M453.63,572.95c-5.42,0-9.83,4.41-9.83,9.83
							v138.03c0,5.42,4.41,9.83,9.83,9.83h79.91c5.42,0,9.83-4.41,9.83-9.83V582.79c0-5.42-4.41-9.83-9.83-9.83H453.63z"/>
					</g>
					<path class="st14" d="M480.29,596.34h-20.13c-3.52,0-6.38-2.86-6.38-6.38v-1.31c0-3.52,2.86-6.38,6.38-6.38h20.13
						c3.52,0,6.38,2.86,6.38,6.38v1.31C486.67,593.47,483.81,596.34,480.29,596.34z M460.16,584.82c-2.11,0-3.83,1.72-3.83,3.83
						v1.31c0,2.11,1.72,3.83,3.83,3.83h20.13c2.11,0,3.83-1.72,3.83-3.83v-1.31c0-2.11-1.72-3.83-3.83-3.83H460.16z"/>
				</g>
				<g>
					<path class="st10" d="M488.29,606.06l58.51,6.27l-1.79-24.49c-0.9-5.64,0.55-10.63,5.4-13.65c8.86-5.51,20.54-1.64,24.35,8.06
						l30.36,85.09c9.47,26.53,12.16,76.15-15.58,81.08l-40.33,20.04c0,0-14.35-34.13-24.36-34.32c-5.46-0.1-12.06-2.9-17.29-4.39
						c-6.84-1.95-13.6-4.3-19.92-7.59c-2.63-1.37-5.21-2.92-7.17-5.15c-6.43-7.33-0.78-19.38,9.28-17.73l14.98,2.46
						c-10.78-2.68-20.47-5.48-27.17-7.51c-5.47-1.66-8.88-7.08-8.02-12.73c0.87-5.75,6.14-9.77,11.91-9.09l32.95,3.87
						c-20.48-3.5-33.88-7.57-41.75-10.52c-5.41-2.02-8.65-7.55-7.83-13.27l0.19-1.31c0.94-6.58,7.16-13.61,13.74-12.67l4.16,0.27
						c-8.78-1.56-14.74-9.8-13.48-18.63C470.73,611.04,479.19,604.73,488.29,606.06z"/>
					<path class="st11" d="M549.21,769.76c-0.15,0-0.3-0.03-0.44-0.08c-0.33-0.12-0.59-0.38-0.73-0.7
						c-3.9-9.28-15.68-33.4-23.2-33.54c-4.18-0.08-8.97-1.65-13.19-3.04c-1.54-0.51-3.04-1-4.43-1.4
						c-8.12-2.32-14.52-4.76-20.16-7.69c-2.51-1.31-5.37-2.97-7.54-5.44c-3.46-3.95-4.05-9.48-1.49-14.1
						c1.74-3.13,4.6-5.15,7.92-5.73c-3.36-0.96-6.32-1.84-8.75-2.58c-6.12-1.86-9.87-7.81-8.91-14.14
						c0.98-6.47,6.84-10.94,13.32-10.17l6.25,0.73c-6.74-1.8-11.9-3.52-15.65-4.92c-6-2.24-9.56-8.27-8.65-14.64l0.19-1.31
						c0.88-6.19,6.06-12.65,12.12-13.7c-5.52-3.69-8.7-10.31-7.7-17.33c0.68-4.74,3.16-8.94,7-11.8c3.83-2.86,8.54-4.06,13.28-3.37
						l56.96,6.11l-1.68-22.96c-1.05-6.57,1.02-11.73,6-14.83c4.54-2.82,10.06-3.48,15.14-1.8c5.08,1.68,9.12,5.5,11.08,10.48
						l30.37,85.13c7.58,21.25,10.2,53.22,0.11,70.59c-3.92,6.76-9.47,10.84-16.48,12.14l-40.16,19.96
						C549.6,769.71,549.41,769.76,549.21,769.76z M487.92,700.43c-3.23,0-6.02,1.64-7.66,4.59c-2.03,3.66-1.57,8.05,1.17,11.18
						c1.88,2.15,4.49,3.66,6.8,4.85c5.48,2.85,11.73,5.23,19.68,7.5c1.43,0.41,2.95,0.91,4.53,1.43c4.05,1.33,8.64,2.84,12.44,2.92
						c9.75,0.18,22,27,24.98,33.85l39.12-19.44c0.11-0.05,0.23-0.09,0.35-0.11c6.33-1.13,11.34-4.81,14.91-10.94
						c9.35-16.1,7.19-47.45-0.31-68.45l-30.36-85.09c-1.67-4.23-5.13-7.51-9.49-8.95c-4.35-1.44-9.09-0.88-12.99,1.54
						c-5.1,3.17-5.43,8.47-4.81,12.36l1.8,24.59c0.03,0.38-0.11,0.75-0.39,1.01c-0.27,0.26-0.65,0.4-1.02,0.35l-58.51-6.28
						c-0.02,0-0.03,0-0.05-0.01c-4.07-0.59-8.12,0.43-11.4,2.89c-3.29,2.46-5.42,6.05-6,10.12c-1.17,8.19,4.3,15.74,12.44,17.19
						c0.67,0.12,1.12,0.74,1.04,1.41c-0.08,0.67-0.67,1.14-1.35,1.12l-4.16-0.27c-2.76-0.38-5.56,0.73-8.01,3.15
						c-2.32,2.29-3.96,5.44-4.39,8.43l-0.19,1.31c-0.74,5.18,2.15,10.07,7.01,11.89c7.55,2.83,20.88,6.93,41.52,10.46
						c0.68,0.12,1.15,0.75,1.05,1.44c-0.1,0.69-0.74,1.16-1.41,1.09l-32.95-3.87c-5.13-0.6-9.73,2.92-10.5,8.02
						c-0.77,5.07,2.23,9.83,7.13,11.32c6.26,1.9,16.04,4.75,27.11,7.5c0.66,0.17,1.08,0.83,0.94,1.5c-0.14,0.67-0.78,1.12-1.46,1
						l-14.98-2.46C489,700.47,488.46,700.43,487.92,700.43z"/>
				</g>
				<g>
					<g>
						<line class="st12" x1="532.2" y1="647.12" x2="479.4" y2="638.04"/>
						<path class="st11" d="M532.2,648.4c-0.07,0-0.14-0.01-0.22-0.02l-52.8-9.08c-0.69-0.12-1.16-0.78-1.04-1.47
							c0.12-0.69,0.78-1.16,1.47-1.04l52.8,9.08c0.69,0.12,1.16,0.78,1.04,1.47C533.35,647.96,532.81,648.4,532.2,648.4z"/>
					</g>
				</g>
				<g>
					<g>
						<line class="st12" x1="526.53" y1="678.45" x2="486.45" y2="671.09"/>
						<path class="st11" d="M526.53,679.73c-0.08,0-0.15-0.01-0.23-0.02l-40.07-7.36c-0.69-0.13-1.15-0.79-1.02-1.49
							c0.13-0.69,0.79-1.15,1.49-1.02l40.07,7.36c0.69,0.13,1.15,0.79,1.02,1.49C527.67,679.3,527.13,679.73,526.53,679.73z"/>
					</g>
				</g>
				<g>
					<g>
						<line class="st12" x1="519.89" y1="705.08" x2="489.04" y2="698.39"/>
						<path class="st11" d="M519.89,706.36c-0.09,0-0.18-0.01-0.27-0.03l-30.85-6.69c-0.69-0.15-1.13-0.83-0.98-1.52
							c0.15-0.69,0.83-1.13,1.52-0.98l30.85,6.69c0.69,0.15,1.13,0.83,0.98,1.52C521.01,705.95,520.48,706.36,519.89,706.36z"/>
					</g>
				</g>
				<g>
					<line class="st12" x1="560.38" y1="614.93" x2="537.19" y2="611.23"/>
					<path class="st11" d="M560.38,616.21c-0.07,0-0.13,0-0.2-0.02l-23.18-3.7c-0.7-0.11-1.17-0.77-1.06-1.46
						c0.11-0.7,0.77-1.17,1.46-1.06l23.18,3.7c0.7,0.11,1.17,0.77,1.06,1.46C561.54,615.76,560.99,616.21,560.38,616.21z"/>
				</g>
			</g>
		</g>
		<g>
			<g>
				<path class="st10" d="M528.31,733.71l39.72,86.29c29.43,63.94,118.02,69.84,155.67,10.37h0c13.53-21.37,14.5-48.36,2.55-70.65
					l-45.23-84.37l-45.94,45.94l-34.29-66.12"/>
				<path class="st11" d="M649,872.96c-2.09,0-4.19-0.07-6.3-0.21c-33.46-2.23-61.81-21.75-75.83-52.21l-39.72-86.29
					c-0.3-0.64-0.02-1.4,0.63-1.69c0.64-0.3,1.4-0.01,1.69,0.63l39.72,86.29c13.62,29.6,41.17,48.56,73.68,50.73
					c32.53,2.18,62.33-12.98,79.76-40.51c13.26-20.94,14.22-47.52,2.51-69.36l-44.42-82.86L636,722.2c-0.29,0.29-0.69,0.42-1.1,0.36
					c-0.4-0.06-0.75-0.31-0.94-0.67l-34.29-66.12c-0.32-0.63-0.08-1.4,0.55-1.72c0.62-0.32,1.4-0.08,1.72,0.55l33.49,64.57
					l44.71-44.71c0.29-0.29,0.69-0.42,1.09-0.36c0.4,0.06,0.75,0.3,0.94,0.66l45.23,84.37c12.15,22.65,11.15,50.22-2.6,71.94
					C707.98,857.6,679.99,872.96,649,872.96z"/>
			</g>
			<g>
				<line class="st16" x1="630.84" y1="713.47" x2="658.5" y2="761.35"/>
				<path class="st11" d="M658.5,762.63c-0.44,0-0.87-0.23-1.11-0.64l-27.66-47.88c-0.35-0.61-0.14-1.39,0.47-1.74
					c0.61-0.35,1.39-0.15,1.74,0.47l27.66,47.88c0.35,0.61,0.14,1.39-0.47,1.74C658.93,762.57,658.72,762.63,658.5,762.63z"/>
			</g>
		</g>
	</g>
	<g>
		<path class="st11" d="M397,405.37c7.02,4.28,13.02,5.64,20.78,2.93c6.77-2.36,14.03-8.64,21.19-8.91
			c2.84-0.11,6.09,1.49,7.86-1.12c0.49-0.71,0.74-1.57,0.79-2.43c0.15-2.34-0.96-7.18-2.16-10.76c-1.85-5.51-2.58-6.59-5.91-11.2
			c-1.03-1.43-3.12-1.59-4.37-0.35c-5.4,5.37-10.9,12.74-16.09,17.66C411.68,398.22,405.11,404.48,397,405.37"/>
	</g>
</g>
<g>
</g>
<g>
</g>
<g>
</g>
<g>
</g>
<g>
</g>
<g>
</g>
</svg>
