<?xml version="1.0" encoding="utf-8"?>
<!-- Generator: Adobe Illustrator 24.0.1, SVG Export Plug-In . SVG Version: 6.00 Build 0)  -->
<svg version="1.1" id="圖層_1" xmlns="http://www.w3.org/2000/svg" xmlns:xlink="http://www.w3.org/1999/xlink" x="0px" y="0px"
	 viewBox="0 0 1080 1080" style="enable-background:new 0 0 1080 1080;" xml:space="preserve">
<style type="text/css">
	.st0{fill:#E0E0E0;}
	.st1{fill:#FBFBFB;}
	.st2{fill:#EBEBEB;}
	.st3{fill:#F5F5F5;}
	.st4{fill:#C9C7C5;}
	.st5{fill:#5F5D5B;}
	.st6{fill:#A0A0A0;}
	.st7{fill:#DB4F58;}
	.st8{fill:#6D6B6A;}
	.st9{fill:#585655;}
	.st10{fill:#999899;}
	.st11{fill:#263138;}
	.st12{fill:#F9DACE;}
	.st13{fill:#989593;}
	.st14{fill:#686867;}
	.st15{fill:#B7B4B2;}
	.st16{fill:#8E8C8B;}
	.st17{fill:#332418;}
	.st18{fill:#E1C0B5;}
	.st19{fill:#474747;}
	.st20{fill:#727272;}
	.st21{fill:#4F4E4F;}
	.st22{fill:#62605E;}
	.st23{opacity:0.3;}
	.st24{fill:#040000;}
	.st25{fill:#445962;}
	.st26{fill:none;stroke:#263138;stroke-width:0.05;stroke-miterlimit:10;}
	.st27{fill:#5D5E5D;}
	.st28{fill:#515051;}
</style>
<g>
	<g>
		<g>
			<g>
				<g>
					<g>
						
							<rect x="194.66" y="118.92" transform="matrix(-1 -1.224647e-16 1.224647e-16 -1 589.3962 446.4086)" class="st0" width="200.08" height="208.57"/>
					</g>
				</g>
			</g>
		</g>
	</g>
	<g>
		<g>
			<g>
				<g>
					<g>
						
							<rect x="208.21" y="118.92" transform="matrix(-1 -1.224647e-16 1.224647e-16 -1 616.4955 446.4086)" class="st1" width="200.08" height="208.57"/>
					</g>
				</g>
			</g>
		</g>
		<g>
			<g>
				<g>
					<g>
						<path class="st0" d="M208.14,118.86h200.21v208.7H208.14V118.86z M408.23,118.98H208.27v208.45h199.96V118.98z"/>
					</g>
				</g>
			</g>
		</g>
	</g>
	<g>
		<g>
			<g>
				<g>
					<g>
						
							<rect x="235.1" y="146.96" transform="matrix(-1 -1.224647e-16 1.224647e-16 -1 616.4954 446.4084)" class="st1" width="146.29" height="152.5"/>
					</g>
				</g>
			</g>
		</g>
	</g>
	<g>
		<g>
			<g>
				<g>
					<g>
						<g>
							<path class="st0" d="M381.39,300.47c-0.12,0.14,1.27,1.73,3.61,4.2c2.34,2.47,5.62,5.8,9.3,9.43
								c3.68,3.63,7.06,6.86,9.56,9.15c2.49,2.29,4.1,3.65,4.23,3.52c0.13-0.13-1.25-1.71-3.59-4.18c-2.34-2.47-5.63-5.81-9.32-9.45
								c-3.69-3.63-7.08-6.87-9.57-9.16C383.11,301.68,381.51,300.33,381.39,300.47z"/>
						</g>
					</g>
				</g>
			</g>
		</g>
	</g>
	<g>
		<g>
			<g>
				<g>
					<g>
						<g>
							<path class="st0" d="M235.1,300.09c-0.14-0.12-1.73,1.27-4.2,3.61c-2.47,2.34-5.8,5.62-9.43,9.3
								c-3.63,3.68-6.86,7.06-9.15,9.56c-2.29,2.49-3.65,4.1-3.52,4.23c0.13,0.13,1.71-1.25,4.18-3.59
								c2.47-2.34,5.81-5.63,9.45-9.32c3.63-3.69,6.87-7.08,9.16-9.57C233.89,301.81,235.24,300.21,235.1,300.09z"/>
						</g>
					</g>
				</g>
			</g>
		</g>
	</g>
	<g>
		<g>
			<g>
				<g>
					<g>
						<g>
							<path class="st0" d="M235.5,147.36c0.12-0.14-1.27-1.73-3.61-4.2c-2.34-2.47-5.62-5.8-9.3-9.43
								c-3.68-3.63-7.06-6.86-9.56-9.15c-2.49-2.29-4.1-3.65-4.23-3.52c-0.13,0.13,1.25,1.71,3.59,4.18
								c2.34,2.47,5.63,5.81,9.32,9.45c3.69,3.64,7.08,6.87,9.57,9.16C233.79,146.15,235.39,147.5,235.5,147.36z"/>
						</g>
					</g>
				</g>
			</g>
		</g>
	</g>
	<g>
		<g>
			<g>
				<g>
					<g>
						<g>
							<path class="st0" d="M381.79,147.74c0.14,0.12,1.73-1.27,4.2-3.61c2.47-2.34,5.8-5.62,9.43-9.3
								c3.63-3.68,6.86-7.06,9.15-9.56c2.29-2.49,3.65-4.1,3.52-4.23c-0.13-0.13-1.71,1.25-4.18,3.59
								c-2.47,2.34-5.81,5.63-9.45,9.32c-3.63,3.69-6.87,7.08-9.16,9.57C383,146.02,381.66,147.62,381.79,147.74z"/>
						</g>
					</g>
				</g>
			</g>
		</g>
	</g>
	<g>
		<g>
			<g>
				<g>
					<g>
						<g>
							<path class="st0" d="M235.5,299.45c0.01-0.01,0.02-0.26,0.03-0.74c0.01-0.52,0.02-1.22,0.03-2.13
								c0.02-1.91,0.04-4.66,0.07-8.23c0.03-7.22,0.08-17.73,0.15-31.08c0.07-26.71,0.17-64.76,0.29-110.31l-0.56,0.56
								c42.59,0.02,92.6,0.05,145.88,0.08h0.01l-0.65-0.65c0.03,55.97,0.07,108.33,0.09,152.49l0.56-0.56
								c-43.72,0.12-80.11,0.22-105.63,0.28c-12.75,0.06-22.78,0.11-29.67,0.14c-3.4,0.03-6.03,0.05-7.85,0.06
								c-0.86,0.01-1.53,0.02-2.03,0.03C235.75,299.43,235.51,299.44,235.5,299.45c-0.01,0.01,0.21,0.02,0.64,0.03
								c0.48,0.01,1.13,0.02,1.97,0.03c1.8,0.01,4.39,0.04,7.74,0.06c6.86,0.03,16.85,0.08,29.55,0.15
								c25.6,0.07,62.12,0.17,105.99,0.28l0.56,0l0-0.56c0.03-44.16,0.06-96.52,0.09-152.49l0-0.65h-0.65h-0.01
								c-53.28,0.03-103.29,0.06-145.88,0.08l-0.57,0l0,0.56c0.12,45.71,0.22,83.88,0.29,110.68c0.06,13.29,0.11,23.76,0.15,30.95
								c0.03,3.52,0.05,6.24,0.07,8.12c0.01,0.88,0.02,1.56,0.03,2.07C235.48,299.23,235.49,299.46,235.5,299.45z"/>
						</g>
					</g>
				</g>
			</g>
		</g>
	</g>
	<g>
		<g>
			<g>
				<g>
					<g>
						
							<rect x="283.84" y="198.8" transform="matrix(-1 -1.224647e-16 1.224647e-16 -1 616.4958 446.4082)" class="st2" width="48.81" height="48.81"/>
					</g>
				</g>
			</g>
		</g>
	</g>
</g>
<g>
	<g>
		<g>
			
				<rect x="53.15" y="692.43" transform="matrix(-1 -1.224647e-16 1.224647e-16 -1 119.2435 1663.0829)" class="st0" width="12.94" height="278.21"/>
		</g>
	</g>
	<g>
		<g>
			<path class="st3" d="M253.8,694.77v276.08c0,0.1-0.08,0.19-0.19,0.19H68.24c-0.1,0-0.19-0.08-0.19-0.19V694.77
				c0-0.1,0.08-0.19,0.19-0.19h185.37C253.71,694.59,253.8,694.67,253.8,694.77z"/>
		</g>
	</g>
	<g>
		<g>
			<g>
				<path class="st2" d="M65.9,973V692.62c0-0.1,0.08-0.19,0.19-0.19h189.67c0.1,0,0.19,0.08,0.19,0.19V973
					c0,0.1-0.08,0.19-0.19,0.19H66.09C65.99,973.19,65.9,973.1,65.9,973z M251.64,968.7V696.92c0-0.1-0.08-0.19-0.19-0.19H70.4
					c-0.1,0-0.19,0.08-0.19,0.19V968.7c0,0.1,0.08,0.19,0.19,0.19h181.06C251.56,968.88,251.64,968.8,251.64,968.7z"/>
			</g>
		</g>
	</g>
	<g>
		<g>
			<path class="st1" d="M235.09,711.83v241.78c0,0.1-0.08,0.19-0.19,0.19H86.62c-0.1,0-0.19-0.08-0.19-0.19V711.83
				c0-0.1,0.08-0.19,0.19-0.19h148.29C235.01,711.64,235.09,711.72,235.09,711.83z"/>
		</g>
	</g>
	<g>
		<g>
			<path class="st2" d="M119.25,878.13h83.34c0.04,0,0.06-0.03,0.06-0.06v-97.71c0-0.04-0.03-0.06-0.06-0.06h-83.34
				c-0.04,0-0.06,0.03-0.06,0.06v97.71C119.19,878.1,119.22,878.13,119.25,878.13z"/>
		</g>
	</g>
	<g>
		<g>
			<g>
				<path class="st0" d="M125.8,866.15c-0.11,0.31,4.01,2.12,11.85,1.2c3.86-0.52,8.66-1.91,13.32-5.32
					c4.56-3.41,8.89-8.92,10.35-16.28c1.52-7.3-0.92-16.41-7.92-22.26c-1.74-1.45-3.76-2.68-6-3.52c-2.38-0.88-4.96-1.18-7.51-0.87
					c-2.54,0.31-5.23,1.19-7.51,3.28c-2.3,2.09-3.56,5.61-2.96,8.75c0.54,3.17,2.27,5.59,4.12,7.51c1.91,1.95,4.08,3.4,6.29,4.63
					c4.49,2.48,9.62,4.03,15,4.28c5.36,0.26,11.02-0.84,15.99-3.64c4.92-2.77,9.13-6.96,11.77-12.2c2.67-5.18,3.52-11.46,2.11-17.08
					c-1.35-5.6-4.54-10.6-9-14.07c-2.24-1.74-4.78-3.02-7.55-3.81c-2.79-0.71-5.66-0.85-8.5-0.26c-2.81,0.59-5.67,1.97-7.71,4.35
					c-2.07,2.36-3,5.44-3.02,8.24c-0.04,2.81,0.72,5.55,2.01,7.85c1.26,2.3,2.97,4.17,4.76,5.72c3.61,3.06,7.66,5.07,11.83,6.28
					c4.16,1.2,8.42,1.51,12.44,0.96c4.01-0.57,7.78-2.04,10.83-4.15c6.15-4.18,9.71-10.52,10.34-16.38
					c0.7-5.97-1.49-10.86-3.83-14.04c-2.41-3.24-5.18-4.9-7.09-5.66c-1.95-0.74-3.06-0.71-3.11-0.53c-0.08,0.27,0.88,0.7,2.46,1.75
					c1.55,1.08,3.74,2.89,5.51,5.92c1.73,2.98,3.16,7.29,2.26,12c-0.82,4.68-4.03,9.72-9.19,12.88c-5.06,3.21-12.15,4.04-18.97,1.81
					c-3.38-1.09-6.74-2.91-9.49-5.37c-2.73-2.45-4.59-5.6-4.43-8.89c0.09-3.3,2.17-5.63,5.71-6.31c1.73-0.34,3.66-0.23,5.46,0.26
					c1.78,0.54,3.59,1.45,5.15,2.7c3.15,2.48,5.53,6.24,6.49,10.35c0.99,4.1,0.4,8.46-1.59,12.4c-1.96,3.94-5.23,7.21-8.98,9.34
					c-3.73,2.13-8.08,3.03-12.36,2.87c-4.28-0.15-8.48-1.36-12.15-3.32c-1.85-1-3.56-2.13-4.85-3.42c-1.32-1.29-2.24-2.77-2.46-4.01
					c-0.24-1.26,0.14-2.36,0.99-3.23c0.89-0.89,2.42-1.56,4.02-1.77c1.61-0.25,3.28-0.09,4.73,0.4c1.6,0.55,3.09,1.38,4.41,2.42
					c2.65,2.08,4.64,4.92,5.75,7.92c1.13,3.01,1.4,6.13,0.97,9.1c-0.88,5.97-4.24,10.91-7.95,14.09c-3.78,3.2-7.96,4.84-11.43,5.71
					C130.09,866.37,125.85,865.56,125.8,866.15z"/>
			</g>
		</g>
	</g>
</g>
<g>
	<g>
		<g>
			
				<rect x="172.77" y="560.69" transform="matrix(-1 -1.224647e-16 1.224647e-16 -1 605.9645 1552.4769)" class="st0" width="260.43" height="431.09"/>
		</g>
	</g>
	<g>
		<g>
			
				<rect x="181.43" y="560.69" transform="matrix(-1 -1.224647e-16 1.224647e-16 -1 623.288 1552.4769)" class="st2" width="260.43" height="431.09"/>
		</g>
	</g>
	<g>
		<g>
			
				<rect x="192.52" y="569.44" transform="matrix(-1 -1.224647e-16 1.224647e-16 -1 623.2878 1552.4769)" class="st1" width="238.25" height="413.6"/>
		</g>
	</g>
	<g>
		<g>
			<g>
				
					<rect x="238.91" y="623.18" transform="matrix(-1 -1.224647e-16 1.224647e-16 -1 624.3188 1552.4769)" class="st2" width="146.51" height="306.12"/>
			</g>
		</g>
		<g>
			<g>
				<path class="st4" d="M385.41,820.97c0.34-28.6-25.37-56.51-53.69-60.5c-13.5-1.9-27.85,0.78-40.47-4.4
					c-22.52-9.23-29.69-39.16-52.35-48.03l-1.03,221.26h147.54V820.97z"/>
			</g>
		</g>
	</g>
</g>
<g>
	<g>
		<g>
			<g>
				<g>
					<g>
						<g>
							<g>
								<g>
									<g>
										<path class="st5" d="M215.28,932.32c-0.02-0.01,0.12-0.35,0.42-1.01c0.34-0.72,0.79-1.67,1.36-2.9
											c1.15-2.56,2.65-6.43,3.99-11.59c2.64-10.31,3.56-26.06-0.34-44.76c-1.81-9.37-4.73-19.41-8.3-30.07
											c-3.52-10.67-7.6-21.99-10.93-34.23c-3.3-12.21-5.9-25.47-5.4-39.36c0.51-13.92,4.63-27.82,9.16-41.65
											c4.52-13.85,9.2-27.4,10.6-41.02c1.59-13.6-1.33-26.95-7.52-37.88c-6-11.05-13.55-20.51-19.2-30.3
											c-5.74-9.76-9.33-19.8-11.54-29.13c-4.29-18.82-2.79-34.68-0.73-45.13c2.23-10.51,4.71-15.94,4.71-15.94
											c0.02,0.01-0.07,0.37-0.28,1.06c-0.24,0.75-0.55,1.77-0.95,3.06c-0.83,2.68-1.91,6.69-2.93,11.93
											c-1.88,10.43-3.2,26.18,1.17,44.79c2.26,9.23,5.86,19.13,11.58,28.76c5.64,9.68,13.22,19.09,19.34,30.27
											c6.32,11.06,9.37,24.84,7.76,38.65c-1.41,13.85-6.12,27.49-10.64,41.32c-4.53,13.82-8.61,27.57-9.12,41.26
											c-0.51,13.68,2.02,26.81,5.27,38.96c3.28,12.18,7.31,23.5,10.78,34.2c3.52,10.69,6.41,20.81,8.17,30.25
											c3.8,18.85,2.72,34.75-0.11,45.1c-1.43,5.18-3.03,9.04-4.27,11.57c-0.63,1.2-1.12,2.14-1.49,2.84
											C215.48,932.01,215.3,932.33,215.28,932.32z"/>
									</g>
								</g>
							</g>
						</g>
					</g>
				</g>
			</g>
			<g>
				<g>
					<g>
						<g>
							<g>
								<g>
									<g>
										<path class="st6" d="M196.79,627.21c0,0-11.47-36.68,9.11-58.16c0.72-0.75,1.99-0.4,2.18,0.63
											C209.18,575.74,210.55,594.19,196.79,627.21z"/>
									</g>
								</g>
							</g>
						</g>
					</g>
				</g>
				<g>
					<g>
						<g>
							<g>
								<g>
									<g>
										<g>
											<path class="st5" d="M203.67,581.27c0.19,0.04-0.13,2.62-0.77,6.77c-0.75,4.66-1.64,10.13-2.62,16.18
												c-0.96,6.05-1.83,11.52-2.57,16.18c-0.63,4.14-1,6.71-1.22,6.7c-0.19-0.01-0.17-2.62,0.21-6.82
												c0.38-4.19,1.12-9.96,2.16-16.29c1.03-6.33,2.14-12.03,3.04-16.13C202.79,583.75,203.47,581.24,203.67,581.27z"/>
										</g>
									</g>
								</g>
							</g>
						</g>
					</g>
				</g>
			</g>
			<g>
				<g>
					<g>
						<g>
							<g>
								<g>
									<g>
										<path class="st6" d="M210.27,713.72c0,0,7.02-37.79,35.25-47.15c0.99-0.33,1.95,0.58,1.63,1.58
											C245.29,674.02,237.87,690.97,210.27,713.72z"/>
									</g>
								</g>
							</g>
						</g>
					</g>
				</g>
				<g>
					<g>
						<g>
							<g>
								<g>
									<g>
										<g>
											<path class="st5" d="M237.83,676.34c0.15,0.13-1.34,2.25-3.85,5.62c-2.85,3.77-6.19,8.19-9.88,13.08
												c-3.68,4.9-7,9.33-9.84,13.1c-2.49,3.37-4.03,5.46-4.2,5.35c-0.16-0.1,1.08-2.4,3.37-5.93c2.3-3.53,5.65-8.28,9.52-13.39
												c3.87-5.11,7.52-9.63,10.23-12.84C235.89,678.11,237.67,676.21,237.83,676.34z"/>
										</g>
									</g>
								</g>
							</g>
						</g>
					</g>
				</g>
			</g>
			<g>
				<g>
					<g>
						<g>
							<g>
								<g>
									<g>
										<path class="st6" d="M202.64,808.52c0,0-4.26-38.2,20.03-55.35c0.85-0.6,2.03-0.01,2.02,1.03
											C224.62,760.36,222.45,778.73,202.64,808.52z"/>
									</g>
								</g>
							</g>
						</g>
					</g>
				</g>
				<g>
					<g>
						<g>
							<g>
								<g>
									<g>
										<g>
											<path class="st5" d="M218.15,764.74c0.18,0.07-0.63,2.55-2.05,6.5c-1.63,4.43-3.54,9.64-5.66,15.38
												c-2.1,5.75-3.99,10.96-5.61,15.39c-1.41,3.95-2.27,6.4-2.47,6.34c-0.18-0.05,0.34-2.61,1.5-6.65
												c1.17-4.04,3-9.56,5.23-15.58c2.22-6.01,4.39-11.4,6.06-15.26C216.82,767,217.97,764.67,218.15,764.74z"/>
										</g>
									</g>
								</g>
							</g>
						</g>
					</g>
				</g>
			</g>
			<g>
				<g>
					<g>
						<g>
							<g>
								<g>
									<g>
										<path class="st6" d="M223.91,903.87c0,0-2.89-38.32,22-54.6c0.87-0.57,2.03,0.06,1.98,1.11
											C247.59,856.53,244.77,874.81,223.91,903.87z"/>
									</g>
								</g>
							</g>
						</g>
					</g>
				</g>
				<g>
					<g>
						<g>
							<g>
								<g>
									<g>
										<g>
											<path class="st5" d="M240.97,860.68c0.18,0.08-0.72,2.52-2.28,6.42c-1.79,4.37-3.88,9.5-6.2,15.17
												c-2.3,5.67-4.38,10.81-6.15,15.18c-1.55,3.89-2.49,6.31-2.7,6.25c-0.18-0.06,0.43-2.59,1.74-6.6
												c1.32-4,3.34-9.45,5.78-15.38c2.44-5.93,4.8-11.23,6.6-15.03C239.56,862.89,240.79,860.59,240.97,860.68z"/>
										</g>
									</g>
								</g>
							</g>
						</g>
					</g>
				</g>
			</g>
			<g>
				<g>
					<g>
						<g>
							<g>
								<g>
									<g>
										<path class="st6" d="M180.31,594.98c0,0-34.07-17.79-34.74-47.53c-0.02-1.04,1.13-1.69,1.99-1.1
											C152.62,549.86,166.65,561.92,180.31,594.98z"/>
									</g>
								</g>
							</g>
						</g>
					</g>
				</g>
				<g>
					<g>
						<g>
							<g>
								<g>
									<g>
										<g>
											<path class="st5" d="M152.65,557.67c0.17-0.11,1.76,1.94,4.24,5.33c2.77,3.83,6.02,8.32,9.6,13.28
												c3.6,4.95,6.86,9.43,9.64,13.25c2.49,3.37,4.04,5.45,3.88,5.59c-0.14,0.12-1.98-1.74-4.68-4.96
												c-2.7-3.23-6.26-7.83-10-13.03c-3.75-5.2-7-10.01-9.27-13.54C153.78,560.04,152.48,557.78,152.65,557.67z"/>
										</g>
									</g>
								</g>
							</g>
						</g>
					</g>
				</g>
			</g>
			<g>
				<g>
					<g>
						<g>
							<g>
								<g>
									<g>
										<path class="st6" d="M216.89,673.76c0,0-35.08-15.69-37.56-45.33c-0.09-1.04,1.02-1.76,1.92-1.22
											C186.52,630.4,201.25,641.59,216.89,673.76z"/>
									</g>
								</g>
							</g>
						</g>
					</g>
				</g>
				<g>
					<g>
						<g>
							<g>
								<g>
									<g>
										<g>
											<path class="st5" d="M187.01,638.2c0.16-0.12,1.87,1.83,4.56,5.06c2.99,3.65,6.51,7.94,10.39,12.67
												c3.9,4.72,7.42,9,10.42,12.64c2.69,3.21,4.36,5.2,4.21,5.34c-0.13,0.13-2.08-1.61-4.97-4.67
												c-2.89-3.06-6.72-7.43-10.78-12.4c-4.06-4.97-7.6-9.57-10.08-12.96C188.29,640.49,186.86,638.32,187.01,638.2z"/>
										</g>
									</g>
								</g>
							</g>
						</g>
					</g>
				</g>
			</g>
			<g>
				<g>
					<g>
						<g>
							<g>
								<g>
									<g>
										<path class="st6" d="M196.7,761.63c0,0-24.09-29.95-12.79-57.46c0.4-0.97,1.71-1.1,2.26-0.21
											C189.41,709.19,197.43,725.87,196.7,761.63z"/>
									</g>
								</g>
							</g>
						</g>
					</g>
				</g>
				<g>
					<g>
						<g>
							<g>
								<g>
									<g>
										<g>
											<path class="st5" d="M186.3,716.36c0.2-0.04,0.83,2.49,1.76,6.58c1,4.61,2.18,10.03,3.48,16.02
												c1.32,5.98,2.51,11.39,3.53,16c0.93,4.09,1.52,6.61,1.32,6.68c-0.18,0.06-1.11-2.38-2.3-6.42
												c-1.18-4.04-2.6-9.68-3.95-15.95c-1.35-6.27-2.41-11.98-3.07-16.13C186.39,718.99,186.11,716.4,186.3,716.36z"/>
										</g>
									</g>
								</g>
							</g>
						</g>
					</g>
				</g>
			</g>
			<g>
				<g>
					<g>
						<g>
							<g>
								<g>
									<g>
										<path class="st6" d="M220.57,865.03c0,0-34.82-16.28-36.79-45.95c-0.07-1.04,1.05-1.74,1.94-1.18
											C190.92,821.17,205.47,832.6,220.57,865.03z"/>
									</g>
								</g>
							</g>
						</g>
					</g>
				</g>
				<g>
					<g>
						<g>
							<g>
								<g>
									<g>
										<g>
											<path class="st5" d="M191.29,828.97c0.16-0.12,1.84,1.87,4.47,5.14c2.93,3.7,6.38,8.05,10.18,12.85
												c3.82,4.79,7.27,9.12,10.21,12.81c2.63,3.26,4.28,5.27,4.12,5.41c-0.14,0.13-2.05-1.65-4.89-4.75
												c-2.84-3.11-6.6-7.54-10.57-12.58c-3.97-5.03-7.44-9.69-9.86-13.12C192.53,831.29,191.13,829.09,191.29,828.97z"/>
										</g>
									</g>
								</g>
							</g>
						</g>
					</g>
				</g>
			</g>
			<g>
				<g>
					<g>
						<g>
							<g>
								<g>
									<g>
										<g>
											<path class="st5" d="M289.91,713.93c0.03,0,0.05,0.29,0.04,0.85c-0.02,0.67-0.04,1.48-0.06,2.46
												c-0.1,2.31-0.24,5.43-0.41,9.32c-0.45,8.19-1.07,19.62-1.82,33.28l0,0.03l-0.01,0.05c-2.49,13.91-9.57,29.32-19.08,44.29
												c-6.98,11.02-14.29,21.05-20.6,30.37c-6.35,9.3-11.71,17.9-15.45,25.53c-3.76,7.62-5.95,14.16-7.23,18.74
												c-0.61,2.3-1.07,4.09-1.34,5.31c-0.29,1.22-0.46,1.86-0.51,1.85c-0.05-0.01,0.03-0.66,0.23-1.91
												c0.17-1.25,0.55-3.06,1.08-5.4c1.12-4.64,3.18-11.3,6.85-19.04c3.65-7.75,8.96-16.48,15.26-25.83
												c6.27-9.39,13.54-19.43,20.48-30.4c9.46-14.89,16.51-30.07,19.09-43.76l-0.01,0.08c0.96-13.65,1.76-25.06,2.34-33.25
												c0.31-3.88,0.57-6.99,0.75-9.3c0.1-0.98,0.18-1.78,0.25-2.44C289.83,714.21,289.88,713.93,289.91,713.93z"/>
										</g>
									</g>
								</g>
							</g>
						</g>
					</g>
				</g>
				<g>
					<g>
						<g>
							<g>
								<g>
									<g>
										<g>
											<path class="st7" d="M287.96,757.96c0,0,31.48-22.04,28.31-51.61c-0.11-1.04-1.34-1.53-2.11-0.83
												C309.59,709.64,297.23,723.41,287.96,757.96z"/>
										</g>
									</g>
								</g>
							</g>
						</g>
					</g>
					<g>
						<g>
							<g>
								<g>
									<g>
										<g>
											<path class="st6" d="M287.96,757.96c0,0,31.48-22.04,28.31-51.61c-0.11-1.04-1.34-1.53-2.11-0.83
												C309.59,709.64,297.23,723.41,287.96,757.96z"/>
										</g>
									</g>
								</g>
							</g>
						</g>
					</g>
					<g>
						<g>
							<g>
								<g>
									<g>
										<g>
											<g>
												<path class="st5" d="M310.57,717.39c0.18,0.09-0.82,2.5-2.62,6.29c-1.8,3.8-4.4,8.99-7.45,14.63
													c-3.04,5.65-5.98,10.66-8.24,14.21c-2.27,3.55-3.85,5.63-4,5.52c-0.18-0.12,1.09-2.38,3.13-6.04
													c2.26-4.14,4.91-9.01,7.85-14.38c2.92-5.38,5.56-10.26,7.81-14.41C309.08,719.55,310.39,717.3,310.57,717.39z"/>
											</g>
										</g>
									</g>
								</g>
							</g>
						</g>
					</g>
				</g>
				<g>
					<g>
						<g>
							<g>
								<g>
									<g>
										<g>
											<path class="st7" d="M236.21,850.61c0,0,37.97-5.92,48.15-33.87c0.36-0.98-0.52-1.96-1.53-1.68
												C276.91,816.75,259.75,823.68,236.21,850.61z"/>
										</g>
									</g>
								</g>
							</g>
						</g>
					</g>
					<g>
						<g>
							<g>
								<g>
									<g>
										<g>
											<path class="st6" d="M236.21,850.61c0,0,37.97-5.92,48.15-33.87c0.36-0.98-0.52-1.96-1.53-1.68
												C276.91,816.75,259.75,823.68,236.21,850.61z"/>
										</g>
									</g>
								</g>
							</g>
						</g>
					</g>
					<g>
						<g>
							<g>
								<g>
									<g>
										<g>
											<g>
												<path class="st5" d="M274.38,824.15c0.12,0.16-1.83,1.88-5.12,4.5c-3.29,2.62-7.91,6.13-13.13,9.85
													c-5.22,3.73-10.06,6.94-13.66,9.13c-3.6,2.19-5.93,3.36-6.03,3.2c-0.11-0.18,2.03-1.65,5.47-4.05
													c3.85-2.72,8.38-5.92,13.38-9.45c4.99-3.55,9.51-6.76,13.36-9.5C272.09,825.42,274.26,823.99,274.38,824.15z"/>
											</g>
										</g>
									</g>
								</g>
							</g>
						</g>
					</g>
				</g>
			</g>
		</g>
		<g>
			<g>
				<g>
					<g>
						<g>
							<g>
								<polygon class="st5" points="191.28,920.5 202.17,991.94 245.67,991.87 260.32,920.5 								"/>
							</g>
						</g>
					</g>
				</g>
			</g>
		</g>
	</g>
	<g>
		<g>
			<g>
				<g>
					<path class="st1" d="M253.95,948.06c0.01,0.02-0.11,0.11-0.36,0.26c-0.26,0.15-0.62,0.4-1.15,0.65
						c-1.04,0.51-2.66,1.15-4.86,1.45c-2.19,0.3-4.98,0.24-8-0.75c-2.99-0.97-6.26-2.91-8.6-6.25c-1.11-1.69-1.89-3.74-2.02-5.98
						c-0.16-2.19,0.69-4.85,2.95-6.14c2.25-1.3,5.15-0.83,7.29,0.6c2.24,1.45,3.54,3.99,4.17,6.56c0.62,2.61,0.7,5.33,0.54,8.07
						c-0.18,2.75-0.68,5.56-1.76,8.25c-1.05,2.69-2.75,5.23-5.04,7.19c-2.28,1.95-5.21,3.35-8.37,3.5
						c-3.16,0.14-6.18-0.95-8.71-2.53c-2.54-1.6-4.7-3.61-6.5-5.87c-1.78-2.26-3.12-4.96-3.29-7.85c-0.14-2.83,0.86-5.79,3.09-7.57
						c2.26-1.83,5.46-1.7,7.71-0.47c2.32,1.17,4.04,3.39,4.45,5.82c0.84,4.9-2.02,9.32-5.5,11.31c-3.56,2.03-7.43,2.09-10.5,1.52
						c-3.12-0.61-5.58-1.83-7.48-2.93c-1.9-1.11-3.27-2.14-4.19-2.84c-0.91-0.71-1.37-1.11-1.34-1.14c0.03-0.03,0.53,0.3,1.48,0.95
						c0.96,0.64,2.36,1.59,4.28,2.63c1.91,1.02,4.36,2.16,7.37,2.68c2.98,0.5,6.67,0.35,9.95-1.59c3.19-1.86,5.77-6.05,4.96-10.39
						c-0.37-2.13-1.89-4.05-3.95-5.08c-2.02-1.07-4.7-1.13-6.55,0.4c-1.86,1.49-2.77,4.11-2.63,6.65c0.16,2.56,1.38,5.06,3.07,7.19
						c1.71,2.14,3.81,4.09,6.2,5.58c2.39,1.49,5.18,2.47,8.03,2.34c2.84-0.13,5.53-1.4,7.66-3.21c2.14-1.82,3.72-4.18,4.73-6.73
						c1.03-2.54,1.53-5.24,1.71-7.89c0.16-2.65,0.1-5.3-0.47-7.74c-0.57-2.41-1.76-4.69-3.68-5.95c-1.88-1.28-4.39-1.66-6.21-0.61
						c-1.86,1.05-2.64,3.24-2.52,5.25c0.09,2.03,0.79,3.97,1.8,5.55c2.14,3.15,5.25,5.09,8.11,6.08c2.89,1.02,5.59,1.14,7.73,0.92
						C251.85,949.47,253.89,947.88,253.95,948.06z"/>
				</g>
			</g>
		</g>
	</g>
</g>
<g>
	<g>
		<rect x="518.17" y="88.61" class="st8" width="21.81" height="208.06"/>
	</g>
	<g>
		<path class="st8" d="M595.95,221.83H454.16l0,0c0-6.3,5.11-11.41,11.41-11.41h118.98C590.85,210.42,595.95,215.53,595.95,221.83
			L595.95,221.83z"/>
	</g>
	<g>
		<path class="st8" d="M486.85,216.13c0-0.02,0-0.06,0-0.11c-0.34-12.83,10.09-23.37,22.92-23.37h39.76
			c12.66,0,22.93,10.26,22.93,22.93v1.9L486.85,216.13z"/>
	</g>
	<g>
		<g>
			<path class="st9" d="M564.96,209.96c0,0.31-17.52,0.55-39.12,0.55c-21.61,0-39.13-0.25-39.13-0.55c0-0.31,17.51-0.55,39.13-0.55
				C547.44,209.4,564.96,209.65,564.96,209.96z"/>
		</g>
	</g>
	<g>
		<g>
			<path class="st9" d="M550.95,193.22c0,0.31-8.11,0.55-18.1,0.55c-10,0-18.1-0.25-18.1-0.55c0-0.31,8.1-0.55,18.1-0.55
				C542.84,192.66,550.95,192.91,550.95,193.22z"/>
		</g>
	</g>
</g>
<g>
	<polygon class="st10" points="361.36,220.12 371.08,602.81 693.66,597.14 679.01,222.43 	"/>
</g>
<g>
	<g>
		<path class="st9" d="M361.36,220.12c0,0,1.94-0.02,5.74-0.01c3.83,0.02,9.48,0.04,16.86,0.07c14.82,0.08,36.54,0.2,64.24,0.35
			c55.52,0.35,134.98,0.84,230.81,1.44l0.44,0l0.02,0.44c4.22,107.39,9.29,236.23,14.74,374.7l0.02,0.57l-0.57,0.01
			c-2.01,0.04-4.18,0.07-6.36,0.11c-114.46,1.99-222.48,3.87-316.22,5.5l-0.49,0.01l-0.01-0.49
			c-2.79-113.98-5.14-209.71-6.78-276.96c-0.8-33.56-1.42-60.02-1.85-78.1c-0.2-9.01-0.36-15.92-0.47-20.61
			c-0.05-2.32-0.08-4.08-0.11-5.28C361.36,220.71,361.36,220.12,361.36,220.12s0.03,0.62,0.07,1.82c0.04,1.21,0.09,2.99,0.16,5.33
			c0.13,4.71,0.33,11.66,0.58,20.7c0.49,18.1,1.21,44.59,2.12,78.2c1.77,67.17,4.28,162.77,7.27,276.62l-0.5-0.48
			c93.74-1.67,201.76-3.58,316.22-5.62c2.18-0.04,4.36-0.08,6.36-0.11l-0.54,0.57c-5.38-138.48-10.39-267.32-14.56-374.71l0.46,0.44
			c-95.7-0.8-175.06-1.46-230.5-1.92c-27.75-0.25-49.51-0.45-64.35-0.59c-7.42-0.08-13.1-0.14-16.95-0.18
			C363.37,220.17,361.36,220.12,361.36,220.12z"/>
	</g>
</g>
<g>
	<polygon class="st0" points="385.44,602.81 371.08,602.81 361.36,220.12 373.4,220.12 	"/>
</g>
<g>
	<g>
		<path class="st9" d="M385.44,602.81c-0.31,0.01-3.24-85.55-6.56-191.08c-3.32-105.56-5.76-191.12-5.46-191.13
			c0.31-0.01,3.24,85.53,6.56,191.1C383.3,517.23,385.74,602.8,385.44,602.81z"/>
	</g>
</g>
<g>
	<rect x="368.45" y="417.69" class="st0" width="1.66" height="1.66"/>
</g>
<g>
	<g>
		<path class="st11" d="M596.5,221.25c0,0.31-31.46,0.55-70.27,0.55c-38.82,0-70.27-0.25-70.27-0.55s31.46-0.55,70.27-0.55
			C565.03,220.69,596.5,220.94,596.5,221.25z"/>
	</g>
</g>
<g>
	<g>
		<polygon class="st8" points="474.7,850.7 664.02,850.7 668.24,870.4 480.21,870.4 		"/>
	</g>
	<g>
		<polygon class="st8" points="566.15,990.79 543.17,990.79 526.77,601.89 549.74,601.89 		"/>
	</g>
	<g>
		<polygon class="st8" points="432.73,602.74 455.2,591.5 650.56,586.8 650.56,603.75 432.73,610.58 		"/>
	</g>
	<g>
		<polyline class="st8" points="455.34,608.81 455.34,990.79 481.3,990.79 477.8,607.46 455.34,608.81 		"/>
	</g>
	<g>
		<polyline class="st8" points="601.87,603.79 686.36,990.79 712.38,990.79 624.2,603.11 601.87,603.79 		"/>
	</g>
	<g>
		<g>
			<path class="st9" d="M650.56,603.75c0,0.02-0.19,0.04-0.56,0.06c-0.44,0.02-0.98,0.04-1.65,0.06c-1.54,0.03-3.66,0.08-6.34,0.14
				c-5.51,0.08-13.48,0.26-23.32,0.52c-19.69,0.51-46.88,1.64-76.92,2.97c-30.04,1.34-57.25,2.34-76.96,2.65
				c-9.85,0.16-17.83,0.23-23.34,0.17c-2.69-0.03-4.81-0.05-6.34-0.07c-0.67-0.02-1.21-0.03-1.65-0.05
				c-0.37-0.02-0.56-0.03-0.56-0.05c0-0.02,0.19-0.04,0.56-0.06c0.44-0.02,0.98-0.04,1.65-0.06c1.54-0.03,3.66-0.08,6.34-0.14
				c5.51-0.08,13.48-0.26,23.32-0.52c19.69-0.51,46.89-1.64,76.93-2.98c30.03-1.34,57.24-2.34,76.95-2.65
				c9.85-0.16,17.83-0.23,23.34-0.17c2.69,0.03,4.81,0.05,6.35,0.07c0.67,0.02,1.21,0.03,1.65,0.05
				C650.37,603.71,650.56,603.73,650.56,603.75z"/>
		</g>
	</g>
	<g>
		<g>
			<path class="st9" d="M455.64,599.32c0.13,0.28-4.9,2.99-11.24,6.08c-3.17,1.55-6.06,2.89-8.18,3.83
				c-2.11,0.94-3.45,1.45-3.5,1.35c-0.18-0.33,4.85-3.09,11.19-6.18C450.25,601.31,455.51,599.05,455.64,599.32z"/>
		</g>
	</g>
	<g>
		<g>
			<path class="st9" d="M455.64,599.63c-0.29-0.03-0.56-1.74-0.85-4.01c-0.18-2.29,0.12-4.12,0.41-4.12c0.32,0,0.51,1.83,0.69,4.02
				C456.18,597.72,455.97,599.66,455.64,599.63z"/>
		</g>
	</g>
	<g>
		<g>
			<path class="st9" d="M651.34,595.22c0,0.02-0.17,0.04-0.51,0.05c-0.4,0.01-0.89,0.03-1.48,0.05c-1.4,0.02-3.3,0.05-5.7,0.08
				c-5.05,0.04-12.19,0.1-20.97,0.16c-17.71,0.14-42.17,0.43-69.19,1.02c-27.02,0.59-51.48,1.36-69.18,1.94
				c-8.78,0.28-15.92,0.51-20.96,0.68c-2.4,0.06-4.31,0.11-5.7,0.14c-0.6,0-1.08,0.01-1.48,0.01c-0.33,0-0.51-0.02-0.51-0.03
				c0-0.02,0.17-0.05,0.5-0.08c0.4-0.03,0.88-0.07,1.48-0.12c1.39-0.09,3.29-0.2,5.69-0.35c5.05-0.25,12.18-0.6,20.95-1.03
				c17.7-0.78,42.16-1.67,69.19-2.26c27.02-0.59,51.5-0.76,69.21-0.69c8.86,0.03,16.03,0.1,20.98,0.19c2.4,0.05,4.31,0.1,5.7,0.13
				c0.6,0.02,1.08,0.04,1.48,0.06C651.17,595.18,651.34,595.2,651.34,595.22z"/>
		</g>
	</g>
	<g>
		<g>
			<path class="st9" d="M630.83,851.74c0,0.31-33.76,0.46-75.4,0.35c-41.65-0.11-75.4-0.45-75.4-0.76c0-0.31,33.75-0.46,75.4-0.35
				C597.07,851.09,630.83,851.43,630.83,851.74z"/>
		</g>
	</g>
	<g>
		<g>
			<path class="st9" d="M631.93,870.52c0,0.04-0.53,0.07-1.54,0.1c-1.12,0.02-2.59,0.04-4.42,0.06c-3.96,0.02-9.49,0.05-16.26,0.08
				c-13.84,0.06-32.74,0.15-53.63,0.25c-20.95,0.08-39.92,0.07-53.65-0.07c-6.86-0.07-12.42-0.17-16.26-0.27
				c-1.83-0.06-3.3-0.11-4.42-0.15c-1.01-0.05-1.54-0.09-1.54-0.13c0-0.04,0.53-0.07,1.54-0.1c1.12-0.02,2.59-0.04,4.42-0.06
				c3.96-0.02,9.49-0.05,16.26-0.08c13.84-0.06,32.75-0.15,53.64-0.25c20.95-0.08,39.91-0.07,53.64,0.07
				c6.86,0.07,12.42,0.17,16.26,0.27c1.83,0.06,3.3,0.11,4.42,0.15C631.4,870.44,631.93,870.49,631.93,870.52z"/>
		</g>
	</g>
	<g>
		<g>
			<path class="st9" d="M686.36,990.79c0,0-0.12-0.32-0.31-0.96c-0.19-0.69-0.46-1.64-0.79-2.87c-0.71-2.52-1.66-6.26-2.8-11.09
				c-2.35-9.65-5.56-23.65-9.46-40.97c-7.8-34.64-18.29-82.54-29.73-135.49c-11.31-52.97-21.55-100.91-28.98-135.67
				c-3.63-17.34-6.57-31.38-8.61-41.15c-0.98-4.82-1.75-8.59-2.28-11.2c-0.24-1.25-0.43-2.21-0.57-2.92c-0.12-0.66-0.16-1-0.16-1
				s0.11,0.33,0.27,0.98c0.16,0.7,0.39,1.66,0.67,2.9c0.58,2.6,1.41,6.35,2.49,11.16c2.13,9.75,5.18,23.77,8.96,41.08
				c7.51,34.74,17.86,82.66,29.3,135.6c11.48,52.91,21.87,100.82,29.41,135.55c3.8,17.34,6.89,31.37,9.12,41.04
				c1.08,4.85,1.95,8.6,2.6,11.13c0.29,1.23,0.52,2.19,0.69,2.89C686.31,990.44,686.36,990.79,686.36,990.79z"/>
		</g>
	</g>
	<g>
		<g>
			<path class="st9" d="M481.3,990.79c0,0-0.04-0.33-0.06-0.98c-0.02-0.7-0.04-1.66-0.08-2.89c-0.05-2.59-0.11-6.33-0.19-11.11
				c-0.12-9.7-0.29-23.65-0.5-40.86c-0.32-34.55-0.76-82.19-1.24-134.82c-0.36-52.64-0.69-100.29-0.92-134.84
				c-0.06-17.21-0.12-31.16-0.15-40.86c0.01-4.78,0.01-8.52,0.01-11.11c0.01-1.23,0.02-2.19,0.03-2.89
				c0.01-0.65,0.05-0.98,0.05-0.98s0.04,0.33,0.06,0.98c0.02,0.7,0.04,1.66,0.08,2.89c0.05,2.59,0.11,6.33,0.19,11.11
				c0.12,9.7,0.29,23.65,0.5,40.86c0.32,34.55,0.76,82.2,1.24,134.84c0.36,52.62,0.68,100.27,0.92,134.82
				c0.06,17.22,0.12,31.16,0.15,40.87c-0.01,4.78-0.01,8.52-0.01,11.11c-0.01,1.23-0.02,2.19-0.03,2.89
				C481.33,990.45,481.3,990.79,481.3,990.79z"/>
		</g>
	</g>
</g>
<g>
	<g>
		<rect x="697.2" y="860.85" class="st12" width="44.53" height="73.01"/>
	</g>
	<g>
		<g>
			<g>
				<g>
					<g>
						<g>
							<path class="st13" d="M697.04,919.07l-0.06,46.46c0,0-46.88,15.07-47.16,23.85l92.23,0.89l0.21-70.63L697.04,919.07z"/>
						</g>
					</g>
				</g>
			</g>
			<g>
				<g>
					<g>
						<g>
							<g>
								<path class="st2" d="M725.25,960.7c1.79,0.43,3.08,2.39,2.72,4.2c-0.36,1.81-2.34,3.13-4.14,2.73
									c-1.8-0.4-3.42-2.71-2.86-4.46c0.56-1.76,2.97-3.19,4.62-2.37"/>
							</g>
						</g>
					</g>
				</g>
			</g>
			<g>
				<g>
					<g>
						<g>
							<path class="st2" d="M742.27,990.27v-7.05l-87.77,0.54c0,0-4.98,2.97-4.85,5.83L742.27,990.27z"/>
						</g>
					</g>
				</g>
			</g>
			<g>
				<g>
					<g>
						<g>
							<g>
								<path class="st14" d="M695.48,965.11c0.03,0.45,2.28,0.58,4.52,1.96c2.29,1.32,3.48,3.22,3.89,3.03
									c0.41-0.1-0.34-2.76-3.09-4.38C698.07,964.09,695.37,964.7,695.48,965.11z"/>
							</g>
						</g>
					</g>
				</g>
			</g>
			<g>
				<g>
					<g>
						<g>
							<g>
								<path class="st14" d="M685.98,969.38c-0.09,0.44,1.87,1.14,3.45,2.99c1.63,1.8,2.08,3.84,2.52,3.81
									c0.42,0.06,0.65-2.58-1.35-4.84C688.62,969.06,685.97,968.95,685.98,969.38z"/>
							</g>
						</g>
					</g>
				</g>
			</g>
			<g>
				<g>
					<g>
						<g>
							<g>
								<path class="st14" d="M680.86,981.07c0.41,0.08,0.97-2.17-0.26-4.59c-1.21-2.43-3.35-3.33-3.53-2.95
									c-0.24,0.38,1.16,1.65,2.13,3.65C680.22,979.15,680.41,981.04,680.86,981.07z"/>
							</g>
						</g>
					</g>
				</g>
			</g>
			<g>
				<g>
					<g>
						<g>
							<g>
								<path class="st14" d="M695.97,954.27c0.2,0.4,2.24-0.28,4.78-0.18c2.54,0.04,4.54,0.84,4.76,0.44
									c0.25-0.33-1.72-1.93-4.72-2C697.8,952.43,695.74,953.92,695.97,954.27z"/>
							</g>
						</g>
					</g>
				</g>
			</g>
		</g>
		<g>
			<g>
				<g>
					<g>
						<g>
							<path class="st14" d="M695.51,944.73c0,0.19,1.78,0.41,4.6-0.16c1.4-0.29,3.05-0.8,4.76-1.62c0.86-0.41,1.73-0.9,2.6-1.48
								c0.42-0.28,0.91-0.57,1.36-1.12c0.48-0.48,0.73-1.68,0.13-2.39c-0.49-0.69-1.33-0.97-1.99-0.97c-0.68,0-1.22,0.15-1.72,0.29
								c-1.01,0.28-1.96,0.65-2.83,1.07c-1.73,0.85-3.12,1.9-4.15,2.91c-2.07,2.04-2.75,3.73-2.59,3.81
								c0.21,0.14,1.2-1.29,3.32-2.99c1.06-0.84,2.41-1.72,4.03-2.43c0.81-0.35,1.69-0.66,2.61-0.89c0.96-0.28,1.79-0.32,2.05,0.11
								c0.09,0.16,0.11,0.23-0.09,0.52c-0.2,0.27-0.59,0.54-1,0.82c-0.8,0.55-1.6,1.04-2.39,1.46c-1.58,0.84-3.09,1.43-4.39,1.84
								C697.23,944.31,695.5,944.49,695.51,944.73z"/>
						</g>
					</g>
				</g>
			</g>
		</g>
		<g>
			<g>
				<g>
					<g>
						<g>
							<path class="st14" d="M696.12,945.35c0.16,0.06,1-1.57,1.08-4.48c0.03-1.44-0.17-3.18-0.78-5.01
								c-0.31-0.91-0.72-1.84-1.25-2.76c-0.57-0.89-1.26-2.08-3-2.23c-0.91-0.01-1.64,0.73-1.88,1.34c-0.28,0.63-0.33,1.16-0.42,1.7
								c-0.14,1.08-0.08,2.13,0.09,3.1c0.35,1.94,1.2,3.55,2.11,4.69c1.86,2.32,3.75,2.8,3.78,2.65c0.14-0.23-1.45-1.05-2.89-3.29
								c-0.71-1.11-1.36-2.57-1.58-4.28c-0.12-0.85-0.13-1.75,0-2.66c0.11-0.98,0.46-1.78,0.82-1.69c0.46-0.02,1.25,0.69,1.65,1.46
								c0.5,0.81,0.9,1.64,1.21,2.46c0.63,1.64,0.92,3.22,1.03,4.56C696.3,943.6,695.87,945.29,696.12,945.35z"/>
						</g>
					</g>
				</g>
			</g>
		</g>
	</g>
</g>
<g>
	<g>
		
			<rect x="768.58" y="749.04" transform="matrix(0.9341 -0.357 0.357 0.9341 -228.3284 334.1004)" class="st12" width="44.53" height="73.01"/>
	</g>
	<g>
		<g>
			<g>
				<g>
					<g>
						<g>
							<path class="st13" d="M777.66,813.83l16.53,43.42c0,0-38.42,30.81-35.53,39.11l86.47-32.1l-25.02-66.06L777.66,813.83z"/>
						</g>
					</g>
				</g>
			</g>
			<g>
				<g>
					<g>
						<g>
							<g>
								<path class="st2" d="M818.87,842.65c1.83-0.23,3.73,1.14,4.04,2.95c0.31,1.82-1.07,3.76-2.89,4.03
									c-1.82,0.27-4.16-1.31-4.26-3.15c-0.11-1.84,1.64-4.04,3.47-3.86"/>
							</g>
						</g>
					</g>
				</g>
			</g>
			<g>
				<g>
					<g>
						<g>
							<path class="st2" d="M845.32,864.19l-2.52-6.58l-81.79,31.84c0,0-3.59,4.55-2.45,7.17L845.32,864.19z"/>
						</g>
					</g>
				</g>
			</g>
			<g>
				<g>
					<g>
						<g>
							<g>
								<path class="st14" d="M792.64,857.4c0.19,0.41,2.33-0.27,4.92,0.21c2.6,0.41,4.4,1.77,4.71,1.45
									c0.35-0.24-1.3-2.46-4.45-2.98C794.69,855.52,792.39,857.06,792.64,857.4z"/>
							</g>
						</g>
					</g>
				</g>
			</g>
			<g>
				<g>
					<g>
						<g>
							<g>
								<path class="st14" d="M785.28,864.78c0.07,0.44,2.16,0.4,4.29,1.56c2.17,1.1,3.31,2.85,3.72,2.66
									c0.42-0.1-0.31-2.64-2.99-4.04C787.63,863.54,785.13,864.38,785.28,864.78z"/>
							</g>
						</g>
					</g>
				</g>
			</g>
			<g>
				<g>
					<g>
						<g>
							<g>
								<path class="st14" d="M784.67,877.53c0.41-0.07,0.13-2.38-1.88-4.2c-2-1.84-4.32-1.92-4.35-1.5
									c-0.09,0.44,1.67,1.13,3.3,2.65C783.4,875.96,784.24,877.66,784.67,877.53z"/>
							</g>
						</g>
					</g>
				</g>
			</g>
			<g>
				<g>
					<g>
						<g>
							<g>
								<path class="st14" d="M789.22,847.1c0.33,0.3,1.99-1.06,4.4-1.87c2.39-0.87,4.54-0.84,4.6-1.28c0.11-0.4-2.3-1.19-5.12-0.19
									C790.27,844.73,788.88,846.86,789.22,847.1z"/>
							</g>
						</g>
					</g>
				</g>
			</g>
		</g>
		<g>
			<g>
				<g>
					<g>
						<g>
							<path class="st14" d="M785.39,838.35c0.07,0.17,1.81-0.25,4.24-1.79c1.21-0.77,2.56-1.83,3.87-3.22
								c0.65-0.69,1.3-1.46,1.9-2.31c0.29-0.41,0.64-0.86,0.87-1.53c0.28-0.62,0.08-1.83-0.73-2.28c-0.71-0.47-1.59-0.43-2.21-0.19
								c-0.63,0.24-1.09,0.58-1.5,0.88c-0.85,0.62-1.6,1.3-2.26,2.01c-1.31,1.41-2.24,2.89-2.84,4.2c-1.21,2.64-1.23,4.47-1.06,4.49
								c0.24,0.06,0.66-1.64,2.03-3.97c0.69-1.16,1.64-2.47,2.9-3.71c0.63-0.62,1.34-1.22,2.12-1.77c0.8-0.61,1.56-0.93,1.96-0.63
								c0.15,0.12,0.18,0.17,0.1,0.51c-0.09,0.32-0.36,0.71-0.64,1.12c-0.55,0.8-1.12,1.54-1.71,2.22
								c-1.17,1.35-2.38,2.44-3.45,3.28C786.84,837.35,785.29,838.13,785.39,838.35z"/>
						</g>
					</g>
				</g>
			</g>
		</g>
		<g>
			<g>
				<g>
					<g>
						<g>
							<path class="st14" d="M786.18,838.72c0.17,0,0.38-1.82-0.59-4.57c-0.48-1.36-1.29-2.91-2.52-4.41
								c-0.62-0.74-1.33-1.47-2.16-2.13c-0.85-0.63-1.92-1.5-3.6-1.01c-0.85,0.32-1.28,1.26-1.28,1.92
								c-0.04,0.69,0.11,1.21,0.21,1.74c0.26,1.05,0.68,2.02,1.19,2.86c1.02,1.69,2.38,2.89,3.64,3.63
								c2.57,1.51,4.51,1.28,4.48,1.13c0.05-0.27-1.72-0.46-3.87-2.04c-1.06-0.78-2.19-1.92-3.01-3.43
								c-0.41-0.75-0.75-1.59-0.95-2.49c-0.24-0.96-0.21-1.82,0.17-1.87c0.42-0.18,1.42,0.2,2.06,0.77
								c0.75,0.58,1.42,1.21,2.01,1.86c1.17,1.31,2.01,2.68,2.59,3.89C785.72,837.01,785.92,838.75,786.18,838.72z"/>
						</g>
					</g>
				</g>
			</g>
		</g>
	</g>
</g>
<g>
	<g>
		<path class="st15" d="M818.6,694.72c0,0-107.74,0.73-119.98,4.81c-12.24,4.08-21.76,12.69-23.57,24.03
			c-1.81,11.33,2.54,175.51,2.54,175.51h75.69l0.29-132.81c0,0,41.25,6.35,64.83,8.61c23.57,2.27,54.86-2.12,54.86-2.12
			L818.6,694.72z"/>
	</g>
	<g>
		<path class="st15" d="M729.66,788.94c0,0-30.06-105.99-35.83-133.04c-6.72-31.52-0.76-52.24,10.98-65.09
			c17.82-19.51,32.54-21.52,61.64-10.83c22.87,8.4,69.2,78.53,69.2,78.53s-31.15,66.73-29.15,65.73c2-1-18.26-37.78-18.26-37.78
			l30.16,89.24L729.66,788.94z"/>
	</g>
	<g>
		<g>
			<path class="st16" d="M801.04,694.72c0,0.02-0.17,0.03-0.49,0.04c-0.39,0-0.86,0.01-1.44,0.02c-1.36-0.01-3.21-0.01-5.54-0.02
				c-4.92-0.02-11.85-0.04-20.39-0.06c-8.61,0.02-18.85,0.11-30.22,0.48c-11.35,0.42-23.89,0.9-36.82,2.88
				c-6.43,1.02-12.48,3.31-17.45,6.89c-2.47,1.79-4.66,3.87-6.64,6.05c-0.94,1.14-1.92,2.22-2.73,3.41
				c-0.42,0.58-0.87,1.16-1.25,1.74c-0.34,0.55-0.59,1.19-0.82,1.84c-1.55,5.35-1.79,10.84-2.14,15.85
				c-0.28,5.04-0.39,9.75-0.44,14.05c-0.1,8.6,0.02,15.57,0.09,20.38c0.04,2.33,0.06,4.18,0.09,5.54c0,0.58,0,1.05,0,1.44
				c0,0.33-0.02,0.49-0.03,0.49c-0.02,0-0.05-0.16-0.08-0.49c-0.03-0.39-0.07-0.86-0.11-1.44c-0.07-1.36-0.17-3.21-0.29-5.54
				c-0.2-4.81-0.44-11.78-0.44-20.4c0-4.31,0.06-9.03,0.31-14.1c0.33-5.06,0.5-10.5,2.09-16.12c0.24-0.7,0.51-1.4,0.92-2.08
				c0.41-0.63,0.85-1.19,1.28-1.8c0.83-1.22,1.82-2.33,2.78-3.5c2.02-2.24,4.25-4.38,6.8-6.23c5.1-3.7,11.36-6.06,17.89-7.1
				c13.05-2,25.6-2.44,36.98-2.81c11.39-0.31,21.64-0.32,30.26-0.24c8.61,0.08,15.58,0.25,20.39,0.42c2.33,0.1,4.18,0.17,5.54,0.23
				c0.58,0.04,1.05,0.07,1.44,0.09C800.87,694.68,801.04,694.7,801.04,694.72z"/>
		</g>
	</g>
	<g>
		<g>
			<path class="st16" d="M853.92,774.45c0,0.02-0.17,0.05-0.5,0.09c-0.39,0.05-0.88,0.1-1.48,0.18c-1.3,0.14-3.23,0.36-5.73,0.57
				c-5,0.26-12.29,0.59-21.35,0.2c-18.12-0.64-43.31-3.33-71.4-8.7l0.66-0.54c-0.01,5.09-0.02,10.45-0.03,15.9
				c-0.13,32.25-0.25,61.44-0.34,82.67c-0.1,10.52-0.17,19.05-0.23,25.05c-0.05,2.89-0.09,5.17-0.12,6.81
				c-0.02,0.73-0.04,1.31-0.06,1.77c-0.02,0.4-0.04,0.6-0.06,0.6c-0.02,0-0.04-0.2-0.06-0.6c-0.01-0.46-0.03-1.05-0.05-1.77
				c-0.02-1.64-0.05-3.92-0.09-6.81c-0.03-6-0.07-14.54-0.12-25.05c0-21.23,0.01-50.42,0.02-82.67c0.01-5.45,0.03-10.81,0.04-15.9
				l0-0.66l0.66,0.13c28.01,5.39,53.15,8.21,71.21,9.04c9.04,0.49,16.3,0.27,21.3,0.14c2.43-0.16,4.35-0.29,5.73-0.38
				c0.61-0.03,1.1-0.06,1.49-0.08C853.74,774.43,853.92,774.44,853.92,774.45z"/>
		</g>
	</g>
	<g>
		<g>
			<path class="st16" d="M735.38,748.56c0.29-0.18,3.3,4.67,8.27,9.55c4.93,4.93,9.81,7.9,9.63,8.19c-0.11,0.25-5.35-2.36-10.41-7.4
				C737.78,753.89,735.13,748.67,735.38,748.56z"/>
		</g>
	</g>
	<g>
		<g>
			<path class="st16" d="M773.14,654.77c0.13-0.07,1.28,1.8,2.96,4.92c1.68,3.12,3.88,7.5,6.1,12.43c2.22,4.93,4.05,9.48,5.27,12.81
				c1.23,3.33,1.86,5.43,1.73,5.48c-0.15,0.06-1.04-1.94-2.45-5.19c-1.57-3.58-3.47-7.89-5.56-12.65
				c-2.18-4.72-4.15-8.99-5.79-12.54C773.91,656.84,773,654.84,773.14,654.77z"/>
		</g>
	</g>
	<g>
		<g>
			<path class="st16" d="M752.01,866.81c0,0.08-1.04,0.13-2.93,0.16c-2.1,0.02-4.77,0.05-7.97,0.08
				c-6.72,0.05-16.01,0.16-26.26,0.47c-10.25,0.32-19.53,0.78-26.25,1.14c-3.19,0.17-5.86,0.3-7.95,0.41
				c-1.88,0.08-2.92,0.1-2.93,0.02c-0.01-0.08,1.02-0.23,2.89-0.45c1.87-0.22,4.58-0.48,7.94-0.76c6.71-0.56,15.99-1.15,26.27-1.46
				c10.27-0.31,19.57-0.3,26.3-0.15c3.36,0.07,6.09,0.17,7.97,0.27C750.97,866.64,752.01,866.74,752.01,866.81z"/>
		</g>
	</g>
	<g>
		<g>
			<path class="st16" d="M699.12,832c0.14-0.05,0.98,1.87,2.1,5.08c1.12,3.2,2.47,7.69,3.65,12.73c1.17,5.04,1.93,9.67,2.34,13.04
				c0.41,3.37,0.5,5.46,0.36,5.48c-0.16,0.02-0.52-2.04-1.13-5.36c-0.6-3.32-1.48-7.89-2.64-12.9c-1.17-5.01-2.39-9.5-3.32-12.74
				C699.55,834.07,698.97,832.06,699.12,832z"/>
		</g>
	</g>
	<g>
		<g>
			<path class="st16" d="M714.32,842.52c0.31-0.02,0.83,5.39,1.17,12.07c0.34,6.68,0.37,12.11,0.07,12.12
				c-0.31,0.02-0.83-5.39-1.17-12.07C714.04,847.96,714.01,842.53,714.32,842.52z"/>
		</g>
	</g>
</g>
<g>
	<g>
		<path class="st17" d="M929.25,319.51c2.2,6.35,5.22,13.51,11.63,15.51c2.86,0.89,5.97,0.56,8.89,1.21
			c6.35,1.42,10.9,7.4,12.49,13.71c1.59,6.31,0.77,12.96-0.21,19.4c9.66-0.65,18.18,8.58,18.6,18.25
			c0.42,9.67-5.85,18.78-14.14,23.79c1.59,12.05-6.12,24.7-17.56,28.8c-4.92,1.77-10.61,2.23-14.38,5.86
			c-1.82,1.75-2.97,4.05-4.39,6.13c-1.42,2.08-3.3,4.07-5.76,4.61c-2.46,0.54-5.47-1.01-5.65-3.53"/>
	</g>
	<g>
		<g>
			<g>
				<g>
					<g>
						<path class="st11" d="M834.11,377.69c0.34,0.04,0.04-3.79,1.93-9.3c0.52-1.32,1.19-2.84,2.36-3.82
							c1.16-1.1,2.67-0.41,3.63,1.18c1.91,3.14,2.55,7.54,2.6,11.94c-0.05,4.4-0.69,8.8-2.6,11.94c-0.96,1.59-2.47,2.29-3.63,1.18
							c-1.17-0.98-1.84-2.5-2.36-3.82C834.15,381.47,834.45,377.64,834.11,377.69c-0.09,0-0.23,0.92-0.2,2.6
							c0.04,1.67,0.19,4.13,1.11,7.06c0.51,1.43,1.08,3.08,2.57,4.44c0.71,0.67,1.98,1.16,3.13,0.73c1.13-0.39,1.89-1.24,2.49-2.11
							c2.26-3.61,2.88-8.12,2.96-12.72c-0.07-4.61-0.7-9.12-2.96-12.72c-0.6-0.87-1.36-1.72-2.49-2.11
							c-1.15-0.43-2.42,0.06-3.13,0.73c-1.49,1.36-2.06,3.01-2.57,4.44c-0.92,2.93-1.07,5.38-1.11,7.06
							C833.88,376.76,834.03,377.69,834.11,377.69z"/>
					</g>
				</g>
			</g>
		</g>
		<g>
			<g>
				<g>
					<g>
						<path class="st17" d="M930.21,431.93c10.66-18.01,13.71-41.99,16.4-62.74c1.27-9.76,3.5-23.67-3.37-29.77
							c-7.36-6.54-8.06-16.63-16.52-21.68c-8.45-5.05-19.92-5.47-27.89,0.31"/>
					</g>
				</g>
			</g>
			<g>
				<g>
					<g>
						<g>
							<g>
								<g>
									<g>
										<g>
											<g>
												<g>
													<path class="st12" d="M900.68,495.71L900.68,495.71c-16.34,1.3-30.48-11.23-31.16-27.61
														c-0.65-15.73-1.22-31.62-1.22-31.62s-23.84-2.16-25.64-25.74c-1.8-23.58-1.17-78.03-1.17-78.03l0,0
														c26.57-13.48,58.35-11.53,83.07,5.1l-1.23,83.01l0.13,44.66C923.36,480.44,915.62,494.51,900.68,495.71z"/>
												</g>
											</g>
										</g>
									</g>
								</g>
							</g>
						</g>
					</g>
					<g>
						<g>
							<g>
								<path class="st17" d="M866.09,381.87c4.05-5.05,10.66-7.08,16.11-3.57c5.44,3.51,7.56,11.35,4.62,17.13
									c-2.07,4.07-6.81,7.78-11.54,8.78c-4.45,0.95-7.6,5.26-7.06,9.77c0.7,5.92,10.55,8.11,15.01,13
									c6.94,7.6,22.12,10.78,32.34,11.96c10.05,1.16,8.84,1.26,14.66-7.01c4.24-6.02,5.55-11.81,5.68-19.17
									c0.31-17.39,0.62-34.78,0.93-52.17c0.11-6.27,0.21-12.62-1.24-18.72c-1.46-6.1-4.67-12.02-9.92-15.45
									c-5.75-3.76-13.02-4.06-19.56-6.15c-8.18-2.62-15.13-8.02-22.78-11.9c-7.65-3.89-17.03-6.2-24.69-2.32
									c-5.5,2.78-9.18,8.29-14.52,11.35c-7.61,4.36-18,3.41-21.67,14.63c-1.27,3.88-1.16,8.13,0.16,11.99
									c5.21,15.24,24.13,21.34,37.72,14.7c0.28,2.58-2.25,8.34,0.49,16.5C861.69,377.83,862.01,381.8,866.09,381.87"/>
							</g>
						</g>
					</g>
				</g>
				<g>
					<g>
						<g>
							<g>
								<path class="st18" d="M870.35,396.58c-0.1,0.04-0.09,0.45,0.33,1.02c0.41,0.55,1.31,1.23,2.63,1.31
									c2.64,0.24,6-2.61,6.09-6.53c0.11-1.91-0.6-3.78-1.75-4.99c-1.13-1.23-2.52-1.87-3.7-2.12c-2.43-0.5-3.83,0.4-3.73,0.55
									c0.06,0.27,1.45-0.11,3.4,0.6c1.92,0.61,4.31,2.76,4.09,5.88c-0.07,3.08-2.53,5.32-4.42,5.41
									C871.32,397.83,870.52,396.43,870.35,396.58z"/>
							</g>
						</g>
					</g>
				</g>
			</g>
		</g>
		<g>
			<g>
				<g>
					<g>
						<path class="st11" d="M834.06,376.55c-0.07,0.42,7.04,1.93,15.87,3.37c8.83,1.45,16.05,2.28,16.12,1.86
							c0.07-0.42-7.04-1.93-15.87-3.37C841.34,376.97,834.12,376.14,834.06,376.55z"/>
					</g>
				</g>
			</g>
		</g>
		<g>
			<g>
				<g>
					<path class="st17" d="M928.31,454.94c-1.18,3-5.09,4.14-8.2,3.29c-3.11-0.85-5.59-3.14-7.92-5.37
						c-2.33-2.23-4.77-4.55-7.86-5.49c-6.29-1.91-13.99,2.29-19.28-1.62c-4.82-3.55-4.19-11.6-8.92-15.27
						c-2.51-1.95-6.01-2.2-8.57-4.09c-4.78-3.53-3.99-11.42,0.02-15.81c4.02-4.38,10.06-6.16,15.79-7.74l50.68,21.6L928.31,454.94z"
						/>
				</g>
			</g>
		</g>
	</g>
</g>
<g>
	<g>
		<g>
			<path class="st19" d="M641.3,494.25c0,0-10.13-0.42-11.29-7.48c-1.35-8.16,5.4-14.37,5.4-14.37h8.97c0,0-3.89,5.09-3.59,7.41
				l4.49-5.84l2.47,0.6c0,0-10.33,9.21-6.36,16.39L641.3,494.25z"/>
		</g>
		<g>
			<g>
				<path class="st20" d="M635.67,476.68c0.15,0.09-0.37,1.03-0.78,2.65c-0.41,1.6-0.64,3.95,0.08,6.36
					c0.71,2.45,1.98,4.39,3.24,5.45c1.25,1.08,2.25,1.5,2.18,1.66c-0.03,0.11-1.16-0.03-2.66-1.05c-1.52-0.99-3.07-3.14-3.82-5.75
					c-0.8-2.67-0.41-5.26,0.23-6.91C634.78,477.42,635.56,476.61,635.67,476.68z"/>
			</g>
		</g>
		<g>
			<g>
				<path class="st20" d="M638.09,481.87c0.31,0.09-0.25,2.4,0.44,5.13c0.63,2.74,2.19,4.54,1.96,4.76c-0.16,0.25-2.3-1.41-3.03-4.5
					C636.69,484.18,637.83,481.73,638.09,481.87z"/>
			</g>
		</g>
	</g>
	<g>
		<path class="st21" d="M640.4,494.24c0.47,0.07,76.42,0.01,92.4,0c1.62,0,2.93-1.32,2.93-2.94l0,0c0-1.62-1.32-2.94-2.94-2.94
			H640.4L640.4,494.24z"/>
	</g>
	<g>
		<path class="st12" d="M748.96,502.95l-30.18-3.63l-16.74-16.56l-3.8-1.36c-1.14-0.41-2.35-0.54-3.55-0.39l-1.71,0.21l-2.77-1.42
			c-1.22-0.62-2.68-0.56-3.83,0.17l-0.23,0.14l-5.19-2.5l-5.06-1.25l-10.46,12.15l7.42,0.27l4.94-3.02l5.54,5.91
			c1.02,1.09,0.24,2.86-1.25,2.86l-14.82-0.08c0,0-8.22,0.85-7.36,7.23c0,0,20.63-0.26,21.73,0.84c1.1,1.1,11.26,12.09,14.83,11.81
			c3.57-0.27,44.5,14.28,44.5,14.28L748.96,502.95z"/>
	</g>
</g>
<g>
	<g>
		<path class="st13" d="M871.55,449.59c-6.07,0-10.99,4.93-10.97,11c0.01,5.22-1.39,12.64,7.92,12.83
			c2.73,0.05-18.15,25.01-30.21,44.07c-10.24,16.19-13.97,35.66-10.37,54.49c5.12,26.76,11.2,63.12,7.73,69.35
			c-5.59,10.06-29.45,30.69-27.5,54.9v1.52c0,0,4.31,18.34,20.38,34.41c16.07,16.07,40.12,42.3,40.12,42.3h51
			c18.71,0,33.31-17.5,32.12-36.18c-2.2-34.52-5.64-84.01-7.87-94.7c-3.49-16.77,3.33-115.16,3.33-115.16l-10.27-78.84H871.55z"/>
	</g>
	<g>
		<path class="st13" d="M728.22,496.23c0,0-13.51,15.34-9.4,32.38l22.92,9.99c0,0,44.07,27.03,60.52,29.38
			c16.45,2.35,35.69,5.86,35.69,5.86l19.54-77.61l-45.25,10.64c0,0-3.53-7.05-10.58-5.88c-7.05,1.18-17.63,2.35-17.63,2.35
			L728.22,496.23z"/>
	</g>
	<g>
		<g>
			<path class="st22" d="M833.06,595.27c-0.04,0.01-0.19-0.44-0.45-1.3c-0.28-0.98-0.63-2.23-1.07-3.78
				c-0.9-3.29-2.14-8.07-3.37-14.05c-1.22-5.98-2.37-13.2-2.51-21.31c-0.02-4.05,0.23-8.32,0.95-12.68
				c0.76-4.36,2.07-8.78,3.93-13.09c3.81-8.59,8.88-15.95,13.49-22.56c4.67-6.58,9.08-12.35,12.72-17.23
				c3.66-4.87,6.59-8.83,8.58-11.6c0.94-1.3,1.7-2.36,2.3-3.18c0.53-0.72,0.83-1.09,0.86-1.07c0.03,0.02-0.2,0.43-0.67,1.2
				c-0.48,0.76-1.17,1.89-2.13,3.3c-1.88,2.84-4.72,6.88-8.3,11.82c-3.57,4.94-7.91,10.76-12.52,17.35
				c-4.55,6.61-9.56,13.97-13.31,22.42c-1.83,4.23-3.12,8.55-3.88,12.83c-0.72,4.29-0.99,8.49-1,12.49
				c0.08,8.01,1.14,15.2,2.26,21.17c1.12,5.98,2.25,10.78,3.02,14.1c0.36,1.57,0.64,2.84,0.87,3.83
				C833.02,594.79,833.1,595.26,833.06,595.27z"/>
		</g>
	</g>
	<g>
		<g>
			<path class="st22" d="M910.38,770.04c-0.01,0.04-0.48-0.04-1.38-0.22c-0.9-0.17-2.21-0.48-3.89-0.93
				c-3.36-0.91-8.14-2.5-13.82-5.05c-5.68-2.54-12.22-6.03-19.26-10.25c-7.03-4.23-14.72-8.95-22.45-14.46
				c-7.73-5.5-14.68-11.35-20.35-17.34c-5.67-5.98-10.04-12.04-13.12-17.45c-3.07-5.42-4.92-10.14-5.95-13.46
				c-0.5-1.67-0.86-2.97-1.04-3.87c-0.2-0.89-0.29-1.36-0.25-1.37c0.11-0.03,0.56,1.84,1.7,5.1c1.14,3.26,3.09,7.89,6.22,13.21
				c3.13,5.31,7.52,11.26,13.18,17.14c5.65,5.89,12.57,11.67,20.25,17.14c7.68,5.48,15.35,10.22,22.33,14.49
				c6.99,4.26,13.46,7.8,19.06,10.41c5.6,2.62,10.32,4.32,13.62,5.34C908.53,769.51,910.41,769.94,910.38,770.04z"/>
		</g>
	</g>
	<g>
		<g>
			<path class="st13" d="M847.93,527.8C843.18,536.86,841,608,841,608l-72.93-14.16l-10.79,39.71c0,0,46.48,31.14,91.8,42.79
				c0,0,33.27,10.94,43.13-7.61c9.86-18.55,11.12-82.33,11.12-82.33c0-11.22,2.3-23.25,2.3-23.25"/>
		</g>
		<g>
			<g>
				<path class="st22" d="M905.64,563.15c0,0-0.04,0.4-0.15,1.16c-0.12,0.81-0.28,1.93-0.49,3.39c-0.4,2.98-0.97,7.39-1.28,13.09
					c-0.25,11.41-0.63,27.99-2.67,48.36c-0.54,5.09-1.13,10.42-2.04,15.94c-0.86,5.52-1.95,11.25-3.73,17.04
					c-0.47,1.44-0.86,2.92-1.55,4.31l-0.94,2.14c-0.31,0.72-0.78,1.37-1.17,2.06c-1.79,2.63-4.3,4.86-7.23,6.32
					c-5.89,2.99-12.82,3.4-19.56,2.93c-3.4-0.27-6.81-0.79-10.21-1.54c-3.42-0.72-6.76-1.83-10.17-2.75
					c-6.83-1.86-13.66-4.31-20.56-6.9c-13.72-5.38-27.54-11.9-41.24-19.4c-8.9-4.86-17.51-9.92-25.7-15.28l-0.33-0.21l0.1-0.38
					c3.74-13.72,7.35-27,10.81-39.7l0.13-0.47l0.48,0.09c27.2,5.32,51.88,10.15,72.91,14.27l-0.5,0.4
					c0.89-24.8,2.15-44.93,3.53-58.84c0.66-6.96,1.47-12.34,2.18-15.97c0.42-1.8,0.69-3.19,1.1-4.06c0.34-0.89,0.54-1.33,0.54-1.33
					s-0.13,0.48-0.43,1.37c-0.37,0.87-0.59,2.26-0.97,4.06c-0.63,3.62-1.36,9.01-1.95,15.96c-1.23,13.9-2.36,34.04-3.15,58.82
					l-0.02,0.5l-0.49-0.09c-21.04-4.06-45.74-8.82-72.95-14.06l0.61-0.38c-3.45,12.71-7.05,26-10.77,39.72l-0.22-0.6
					c8.14,5.32,16.74,10.37,25.61,15.22c13.66,7.48,27.44,13.99,41.1,19.36c6.87,2.58,13.65,5.03,20.47,6.9
					c3.42,0.93,6.73,2.04,10.09,2.75c3.36,0.75,6.72,1.26,10.06,1.54c6.63,0.49,13.4,0.07,19.04-2.78c2.81-1.39,5.17-3.49,6.88-5.98
					c0.37-0.66,0.82-1.27,1.12-1.97l0.91-2.08c0.67-1.35,1.07-2.81,1.53-4.23c1.77-5.7,2.88-11.4,3.76-16.9
					c0.92-5.49,1.54-10.81,2.1-15.88c2.14-20.32,2.64-36.86,3.02-48.3c0.37-5.72,1.02-10.12,1.48-13.09
					c0.24-1.49,0.45-2.62,0.6-3.37C905.53,563.53,905.64,563.15,905.64,563.15z"/>
			</g>
		</g>
	</g>
	<g>
		<g>
			<path class="st22" d="M926,472.45c0.01,0.31-13.31,0.93-29.75,1.4c-16.44,0.47-29.77,0.6-29.78,0.3
				c-0.01-0.31,13.31-0.93,29.75-1.4C912.65,472.28,925.99,472.15,926,472.45z"/>
		</g>
	</g>
	<g>
		<g>
			<path class="st22" d="M909.76,534.43c-0.24,0.04-0.29-3.58-2.44-8.82c-2.06-5.17-6.72-11.97-14.33-16.04
				c-7.63-4.03-15.88-4.08-21.32-2.89c-5.54,1.16-8.57,3.14-8.67,2.92c-0.03-0.05,0.69-0.57,2.11-1.33
				c1.42-0.76,3.58-1.67,6.39-2.36c5.53-1.42,14.07-1.52,22.01,2.67c7.91,4.23,12.62,11.36,14.54,16.73c1,2.71,1.46,5.01,1.63,6.61
				C909.85,533.53,909.82,534.42,909.76,534.43z"/>
		</g>
	</g>
	<g>
		<g>
			<path class="st22" d="M792.05,528c-0.11,0-0.15-1.85,0.89-4.59c1.01-2.74,3.29-6.2,6.65-9.11c3.36-2.91,6.9-4.81,9.45-6.1
				c2.57-1.28,4.21-1.94,4.28-1.81c0.07,0.14-1.45,1.06-3.9,2.5c-2.44,1.46-5.85,3.44-9.1,6.25c-3.24,2.81-5.51,6.03-6.66,8.58
				C792.48,526.27,792.24,528.04,792.05,528z"/>
		</g>
	</g>
	<g>
		<g>
			<path class="st22" d="M781.52,524.16c-0.07,0.07-1.21-1.48-1.33-4.44c-0.15-2.91,1.05-7.04,4.02-10.4
				c2.97-3.33,6.53-5.27,9.04-6.55c2.55-1.26,4.19-1.89,4.25-1.76c0.07,0.14-1.45,1.02-3.88,2.44c-2.4,1.44-5.78,3.44-8.59,6.59
				c-2.78,3.15-4.02,6.95-4.07,9.67C780.89,522.47,781.72,524.09,781.52,524.16z"/>
		</g>
	</g>
	<g>
		<g>
			<path class="st22" d="M744.33,498.99c0.14,0.08-0.77,1.9-2.18,4.86c-1.41,2.96-3.27,7.09-5.05,11.76
				c-1.78,4.67-3.13,8.99-4.04,12.14c-0.92,3.15-1.45,5.12-1.61,5.08c-0.14-0.03,0.12-2.06,0.85-5.28
				c0.73-3.22,1.97-7.62,3.77-12.34c1.8-4.71,3.79-8.83,5.39-11.72C743.05,500.61,744.21,498.92,744.33,498.99z"/>
		</g>
	</g>
	<g>
		<g>
			<path class="st22" d="M732.78,525.04c-0.07,0.28-3.6-0.44-7.62-2.23c-4.04-1.78-6.93-3.91-6.77-4.15
				c0.17-0.27,3.27,1.4,7.22,3.14C729.55,523.56,732.87,524.74,732.78,525.04z"/>
		</g>
	</g>
	<g>
		<g>
			<path class="st22" d="M738.42,512.06c-0.12,0.28-3.75-0.99-8.11-2.84c-4.36-1.85-7.8-3.58-7.68-3.86
				c0.12-0.28,3.75,0.99,8.12,2.84C735.1,510.06,738.54,511.78,738.42,512.06z"/>
		</g>
	</g>
	<g class="st23">
		<g>
			<path class="st24" d="M903.91,575.6c0,0-1.09,23.77-1.27,28.07c-0.75,18.3-2.6,35.73-6.28,53.67c-1.13,5.5-3.58,11.41-7.32,15.6
				c-5.95,6.68-16.67,6.92-25.6,6.3c-14.05-0.98-27.2-5.48-40.01-11.32l-4.84-1.94c9.82,14.72,23.58,29.07,41.23,30.28
				c9.3,0.64,18.45-2.25,27.27-5.26c4.71-1.6,9.54-3.33,13.27-6.63c5.92-5.24,8.04-13.48,9.3-21.28
				C913.57,639.12,910.41,599.02,903.91,575.6z"/>
		</g>
	</g>
	<g class="st23">
		<g>
			<path class="st24" d="M814.83,569.9c-1.12-16.99,5.6-34.34,17.88-46.14c-5.4,15.5-6.78,32.38-3.98,48.55"/>
		</g>
	</g>
	<g class="st23">
		<g>
			<path class="st24" d="M810.79,507.56c-7.45,2.58-14.54,6.52-19.98,12.21c-5.44,5.7-9.14,13.26-9.33,21.14
				c-0.04,1.51,0.07,3.09,0.81,4.4c0.74,1.31,2.28,2.28,3.75,1.94c1.25-0.3,2.15-1.45,2.54-2.68c0.39-1.23,0.36-2.54,0.4-3.83
				c0.34-12.24,7.05-24.13,17.35-30.74"/>
		</g>
	</g>
	<g class="st23">
		<g>
			<path class="st24" d="M839.78,607.57c4.89,10.58,10.86,20.66,17.77,30.04c1.26,1.72,3.32,3.61,5.22,2.65
				c1.66-0.84,1.7-3.21,1.11-4.97c-1.18-3.54-3.83-6.37-6.41-9.07c-6.04-6.33-12.08-12.66-18.12-18.99"/>
		</g>
	</g>
	<g>
		<g>
			<path class="st22" d="M858.34,646.94c-0.17,0.04-0.82-2.39-2.1-6.22c-1.27-3.84-3.26-9.06-6.02-14.57
				c-2.77-5.51-5.76-10.23-8.07-13.54c-2.31-3.32-3.86-5.29-3.73-5.41c0.06-0.05,0.51,0.39,1.28,1.23c0.78,0.83,1.83,2.1,3.08,3.71
				c2.49,3.22,5.63,7.94,8.43,13.51c2.79,5.58,4.68,10.91,5.78,14.84c0.55,1.96,0.93,3.57,1.13,4.69
				C858.33,646.3,858.41,646.93,858.34,646.94z"/>
		</g>
	</g>
	<g>
		<g>
			<path class="st22" d="M776.38,645.13c-0.29-0.08,2.41-10.57,6.05-23.43c3.64-12.86,6.82-23.21,7.11-23.13
				c0.29,0.08-2.41,10.57-6.05,23.43C779.86,634.85,776.68,645.21,776.38,645.13z"/>
		</g>
	</g>
	<g>
		<g>
			<path class="st22" d="M782.61,627.74c0.08,0.26-5.43,1.12-11.86-0.84c-6.45-1.91-10.56-5.67-10.36-5.84
				c0.2-0.29,4.47,2.95,10.68,4.78C777.26,627.74,782.61,627.4,782.61,627.74z"/>
		</g>
	</g>
	<g>
		<g>
			<path class="st22" d="M788.78,610.2c-0.07,0.3-5.12-0.68-11.34-1.82c-6.22-1.15-11.29-2.02-11.25-2.33
				c0.04-0.3,5.19,0.09,11.45,1.25C783.9,608.44,788.85,609.91,788.78,610.2z"/>
		</g>
	</g>
	<g>
		<g>
			<path class="st1" d="M936.17,461.63c0,0.08-1.01,0.2-2.85,0.35c-1.84,0.15-4.51,0.33-7.81,0.5c-6.6,0.36-15.71,0.71-25.79,0.89
				c-10.08,0.18-19.21,0.15-25.81,0.02c-3.3-0.06-5.97-0.14-7.82-0.23c-1.85-0.08-2.87-0.17-2.86-0.24c0-0.08,1.02-0.14,2.87-0.19
				c2.06-0.03,4.68-0.07,7.82-0.12c6.82-0.09,15.83-0.21,25.79-0.35c9.96-0.22,18.96-0.42,25.78-0.57c3.13-0.06,5.75-0.11,7.82-0.15
				C935.14,461.53,936.17,461.55,936.17,461.63z"/>
		</g>
	</g>
</g>
<g>
	<g>
		<path class="st19" d="M647.78,584.54c2.07-2.33,5.37-3.49,8.44-2.96c3.07,0.53,5.8,2.72,6.97,5.6
			c-5.14,0.04-10.28-0.72-15.18-2.23"/>
	</g>
	<g>
		<path class="st11" d="M671.85,588.81c2.07-2.33,5.37-3.49,8.44-2.96c3.07,0.53,5.8,2.72,6.97,5.6
			c-5.14,0.04-10.28-0.72-15.18-2.23"/>
	</g>
	<g>
		<path class="st1" d="M696.37,592.94c2.07-2.33,5.37-3.49,8.44-2.96c3.07,0.53,5.8,2.72,6.97,5.6c-5.14,0.04-10.28-0.72-15.18-2.23
			"/>
	</g>
	<g>
		<polygon class="st25" points="688.36,596.46 638.61,588.54 641.67,583.33 734.83,598.57 731.45,603.87 		"/>
	</g>
	<g>
		<path class="st12" d="M750.59,586.62c0,0-7.01-5.36-9.89-5.05c-2.88,0.32-22.69,8.61-22.69,8.61s-12.12,3.74-11.89,5.88
			c0.27,2.46,3.35,4.1,7.61,3.05s13.85-1.41,13.85-1.41l-2.42,4.54l-7.21,0.79l-21.51-6.32c0,0-7.25-2.2-8.09-0.25
			c-0.49,1.14-1.27,3.73,6.04,6.88c7.87,3.39,30.13,14.44,30.13,14.44l20.9-3.58l13.86,11.98l7.5-27.61L750.59,586.62z"/>
	</g>
</g>
<g>
	<path class="st26" d="M820.93,794.75"/>
</g>
<g>
	<g>
		<rect x="819.87" y="795.58" class="st27" width="2.12" height="195.01"/>
	</g>
	<g>
		<rect x="902.05" y="795.58" class="st27" width="2.12" height="195.01"/>
	</g>
	<g>
		<rect x="939.91" y="795.58" class="st27" width="2.12" height="195.01"/>
	</g>
	<g>
		<rect x="1015.54" y="795.58" class="st27" width="2.12" height="195.01"/>
	</g>
	<g>
		<g>
			<path class="st27" d="M1016.61,876.6c0,0.31-43.81,0.55-97.83,0.55c-54.04,0-97.84-0.25-97.84-0.55c0-0.31,43.8-0.55,97.84-0.55
				C972.8,876.04,1016.61,876.29,1016.61,876.6z"/>
		</g>
	</g>
	<g>
		<g>
			<path class="st20" d="M912,780.74V565.39c0-9.09,7.36-16.45,16.45-16.45h90.5c9.21,0,16.67,7.46,16.67,16.67v210.38
				c0,2.62-2.13,4.75-4.75,4.75H914.66"/>
		</g>
		<g>
			<path class="st20" d="M1035.62,794.75H814.28l0,0c0-11.21,9.09-20.3,20.3-20.3h201.04V794.75z"/>
		</g>
		<g>
			<g>
				<path class="st28" d="M922.15,550.14c0.31,0,0.55,54.72,0.55,122.21c0,67.51-0.25,122.23-0.55,122.23s-0.55-54.71-0.55-122.23
					C921.6,604.86,921.84,550.14,922.15,550.14z"/>
			</g>
		</g>
	</g>
</g>
<g>
	<path class="st13" d="M856.36,289.82c1.14-6.18,3.39-12.35,7.67-17.06c2.7-2.97,6.18-5.19,10.03-6.31c1.33-0.39,2.7-0.64,4.08-0.74
		c1.96-0.15,3.94,0.12,5.9,0.13c4.03,0.02,8.23-0.44,11.77-2.53c2.8-1.65,4.88-4.6,5.46-7.8c0.27-1.52,0.16-3.16-0.48-4.58
		c-0.78-1.71-2.23-2.88-3.64-4.05c-1.35-1.13-2.68-2.32-3.31-4c-0.51-1.37-0.6-3.03,0.13-4.34c0.33-0.6,0.86-1.08,1.48-1.37
		c0.26-0.12,0.52-0.08,0.73,0.11c4.55,4.14,9.84,7.48,15.54,9.79c4.96,2.01,10.86,3.85,16.18,2.2c2.44-0.76,4.49-2.37,5.73-4.61
		c1.23-2.22,1.62-4.86,1.38-7.37c-0.54-5.64-4.51-10.24-8.69-13.73c-4.7-3.92-10.12-7.05-15.82-9.27
		c-5.17-2.02-10.69-3.46-16.27-3.46c-4.87,0-10.02,1.15-13.68,4.55c-2.05,1.91-3.81,4.55-2.92,7.45c0.81,2.65,3.19,4.62,5.29,6.27
		c4.84,3.81,10.21,6.95,15.91,9.28c2.78,1.14,5.65,2.09,8.56,2.85c2.41,0.62,4.95,1.2,7.44,0.75c1.01-0.18,2.02-0.53,2.8-1.22
		c1.03-0.91,1.42-2.2,1.45-3.54c0.03-1.39-0.21-2.8-0.46-4.16c-0.23-1.25-0.51-2.5-0.85-3.73c-1.36-4.87-3.61-9.46-6.53-13.58
		c-5.83-8.23-14.46-14.57-24.22-17.25c-4.89-1.34-10.74-2.06-15.38,0.51c-4.84,2.69-6.3,8.59-5.24,13.73
		c1.24,5.99,5.36,11,9.16,15.6c3.81,4.62,7.89,9.01,12.22,13.14c8.62,8.23,18.2,15.45,28.5,21.44c2.49,1.45,5.02,2.83,7.59,4.13
		c-0.3,0.17-0.61,0.33-0.91,0.5c0.43-5.16-1-10.37-3.93-14.64c-2.93-4.27-7.36-7.3-12.34-8.65c-4.9-1.33-10.57-1.12-15.08,1.37
		c-2.21,1.22-4.06,3.07-4.97,5.46c-0.86,2.26-0.87,4.73-0.38,7.07c1.09,5.27,4.26,9.81,7.68,13.85c3.58,4.22,7.67,8.01,12.18,11.22
		c4.58,3.28,9.7,6.35,15.29,7.44c2.75,0.53,5.61,0.47,8.28-0.4c2.31-0.75,4.41-2.08,6.2-3.7c1.84-1.66,3.39-3.62,4.67-5.73
		c1.36-2.23,2.59-4.74,2.84-7.37c0.2-2.16-0.32-4.62-2.36-5.72c-1.35-0.73-3.22-0.89-4.57-0.08c-0.64,0.39-1.02,0.98-1.17,1.7
		c-0.33-0.2-0.66-0.4-0.99-0.6c6.74-7.19,13.45-15.36,16.08-25.05c1.23-4.54,1.38-9.36,0.06-13.89c-1.11-3.82-3.24-7.27-5.98-10.13
		c-5.64-5.89-13.71-9.4-21.77-10.2c-4.85-0.48-9.85-0.06-14.52,1.36c-2.43,0.74-4.79,1.76-6.94,3.1c-1.89,1.18-3.68,2.77-4.2,5.02
		c-0.94,4.06,2.89,7.45,5.88,9.48c1.73,1.17,3.58,2.16,5.49,2.99c1.92,0.83,3.94,1.54,6.02,1.82c1.85,0.25,3.84,0.19,5.51-0.73
		c2.03-1.12,3-3.21,3.47-5.39c1.01-4.67,0.52-9.66-0.91-14.2c-2.9-9.21-9.84-16.44-18.29-20.85c-7.45-3.89-16.58-6.28-24.9-4.08
		c-3.73,0.98-7.18,3.05-9.33,6.32c-2.37,3.62-2.74,8.13-1.78,12.28c1.02,4.41,3.41,8.3,6.63,11.45c3.48,3.4,7.7,5.92,12.01,8.1
		c2.11,1.07,4.25,2.06,6.39,3.05c-0.3,0.22-0.6,0.44-0.9,0.66c-2.65-6.69-8.96-12.14-16.14-13.26c-3.41-0.53-7.13-0.09-10.03,1.89
		c-3.1,2.11-4.53,5.82-4.55,9.48c-0.03,4.04,1.64,7.82,3.83,11.14c2.28,3.45,5.08,6.59,7.95,9.55c5.77,5.93,12.34,11.06,19.5,15.21
		c1.48,0.86,2.97,1.82,4.66,2.21c1.05,0.24,2.7,0.44,3.54-0.44c1.16-1.23-0.37-3.12-1.32-3.98c-1.09-0.98-2.51-1.57-3.95-1.81
		c-3.04-0.5-6.27,0.51-8.35,2.79c-2.38,2.6-3.2,6.37-2.78,9.81c0.94,7.76,7.87,13.39,14.47,16.59c6.97,3.38,15.75,4.67,22.74,0.61
		c3.08-1.79,5.69-4.58,6.93-7.95c1.19-3.25,0.95-6.81-0.76-9.83c-1.59-2.83-4.48-5.05-7.83-5.07c-3.11-0.02-6.27,1.75-7.8,4.48
		c-1.69,3.03-0.64,6.55,1.52,9.03c2.4,2.74,5.74,4.48,9.1,5.75c7.13,2.69,15.05,3.39,22.51,1.75c7.17-1.58,13.77-5.36,18.32-11.18
		c4.25-5.43,6.77-12.27,6.67-19.2c-0.05-3.38-0.73-6.79-2.14-9.87c-1.34-2.93-3.3-5.54-5.67-7.71c-4.68-4.3-11.03-6.95-17.43-6.82
		c-1.58,0.03-3.14,0.24-4.67,0.63c-1.54,0.4-3.43,0.91-4.6,2.04c-1.42,1.37-0.59,3.23,0.69,4.35c1.31,1.14,3.09,1.54,4.78,1.46
		c3.36-0.14,6.44-2.28,8.36-4.95c2.17-3.01,2.81-6.65,2.13-10.27c-1.46-7.82-7.8-14.06-14.39-17.99c-3.45-2.06-7.2-3.58-11.11-4.52
		c-1.95-0.47-3.94-0.79-5.94-0.95c-1.81-0.14-3.74-0.29-5.52,0.17c-1.36,0.35-2.87,1.23-2.84,2.8c0.02,1.07,0.8,2.55,2.06,2.16
		c-0.14,0.24-0.29,0.49-0.43,0.73c-1.01-4.97-4.83-9.16-9.61-10.82c-4.83-1.68-10.14-0.37-13.92,3c-2.11,1.88-3.67,4.31-4.38,7.06
		c-0.19,0.75-1.34,0.41-1.15-0.34c1.37-5.27,5.71-9.5,10.89-11.06c5.34-1.6,11.06,0.13,14.99,3.99c2.17,2.13,3.74,4.88,4.35,7.88
		c0.07,0.33-0.11,0.63-0.43,0.73c-1.53,0.47-2.81-0.66-3.31-2.03c-0.58-1.6-0.07-3.21,1.28-4.23c1.48-1.13,3.45-1.35,5.25-1.36
		c2.13,0,4.26,0.21,6.36,0.57c8.5,1.43,16.72,5.66,22.59,12.01c5.37,5.8,9.29,14.82,4.74,22.24c-1.88,3.07-5.02,5.62-8.63,6.24
		c-1.78,0.31-3.69,0.17-5.34-0.6c-1.64-0.77-3.2-2.32-3.41-4.2c-0.22-2.04,1.37-3.42,3.07-4.17c1.58-0.7,3.26-1.2,4.97-1.47
		c3.43-0.56,6.96-0.3,10.3,0.63c6.7,1.88,12.73,6.42,16.15,12.5c3.65,6.47,3.97,14.39,1.83,21.41c-2.21,7.23-6.95,13.66-13.34,17.73
		c-6.97,4.44-15.5,6.09-23.68,5.29c-4.12-0.4-8.18-1.4-11.99-3c-3.53-1.48-7-3.54-9.23-6.73c-2.06-2.95-2.46-6.85-0.38-9.91
		c1.92-2.83,5.41-4.6,8.84-4.44c3.62,0.17,6.75,2.59,8.49,5.68c1.85,3.29,2.16,7.22,0.86,10.76c-1.33,3.62-4.06,6.62-7.36,8.57
		c-3.63,2.15-7.94,2.96-12.12,2.72c-4.32-0.25-8.54-1.55-12.39-3.48c-3.73-1.87-7.29-4.38-10.04-7.55
		c-2.63-3.04-4.45-6.74-4.67-10.79c-0.2-3.76,0.99-7.72,3.8-10.33c2.47-2.3,6.11-3.13,9.37-2.42c1.57,0.34,3.05,1.08,4.21,2.19
		c1.24,1.19,2.44,3.1,1.63,4.83c-0.62,1.31-2.14,1.7-3.48,1.67c-1.69-0.04-3.22-0.64-4.68-1.44c-3.93-2.15-7.7-4.59-11.27-7.29
		c-3.56-2.7-6.93-5.65-10.06-8.83c-3.12-3.17-6.14-6.56-8.59-10.28c-2.34-3.57-4.05-7.68-3.93-12.02c0.12-3.97,1.77-7.81,5.1-10.11
		c3.13-2.16,7.18-2.63,10.86-2.06c3.9,0.61,7.54,2.44,10.55,4.97c2.92,2.46,5.18,5.62,6.58,9.17c0.22,0.55-0.49,0.85-0.9,0.66
		c-8.86-4.08-18.77-8.7-23.5-17.78c-2.09-4.01-3.12-8.66-2.35-13.16c0.74-4.26,3.31-7.95,6.96-10.22c3.53-2.2,7.79-3.03,11.9-3.07
		c4.48-0.04,8.9,0.9,13.1,2.4c9.33,3.33,17.8,9.59,22.5,18.45c2.36,4.44,3.76,9.42,3.87,14.46c0.1,4.41-0.47,10.38-5.03,12.48
		c-3.86,1.78-8.51,0.33-12.17-1.27c-3.97-1.74-8.13-4.13-10.65-7.76c-1.12-1.62-1.78-3.57-1.49-5.55c0.35-2.35,1.87-4.17,3.73-5.55
		c4.19-3.08,9.54-4.69,14.65-5.29c9-1.06,18.32,0.96,25.87,6.03c3.51,2.35,6.6,5.36,8.84,8.95c2.39,3.84,3.66,8.27,3.72,12.79
		c0.14,10.47-5.91,19.92-12.34,27.69c-1.64,1.98-3.35,3.89-5.1,5.76c-0.44,0.47-1.11-0.06-0.99-0.6c0.86-4.06,6.77-3.76,8.99-1.13
		c1.75,2.06,1.75,5.06,1.13,7.55c-0.67,2.67-2.04,5.2-3.6,7.46c-2.97,4.31-7.26,8-12.52,9.01c-6.2,1.19-12.4-1.32-17.66-4.41
		c-5.1-3-9.81-6.68-13.97-10.9c-4.02-4.08-7.91-8.71-10.13-14.05c-2.04-4.93-2.62-10.79,1.06-15.12c3.53-4.15,9.68-5.48,14.9-5.11
		c5.53,0.38,10.93,2.7,14.89,6.6c3.93,3.87,6.37,9.15,6.9,14.63c0.13,1.34,0.14,2.68,0.02,4.02c-0.04,0.47-0.5,0.71-0.91,0.5
		c-11.17-5.67-21.61-12.73-31.06-20.95c-4.73-4.11-9.2-8.52-13.39-13.18c-2.09-2.33-4.11-4.73-6.05-7.19
		c-1.98-2.51-3.91-5.1-5.38-7.95c-2.61-5.07-3.66-11.39-0.68-16.56c2.91-5.06,8.9-6.48,14.35-6.05c5.34,0.42,10.61,2.24,15.31,4.77
		c4.68,2.52,8.91,5.89,12.46,9.83c3.55,3.95,6.46,8.5,8.47,13.42c1,2.46,1.8,5,2.33,7.6c0.28,1.34,0.5,2.71,0.62,4.07
		c0.14,1.52,0.05,3.11-0.73,4.47c-1.19,2.07-3.57,2.83-5.83,2.96c-2.75,0.15-5.48-0.59-8.1-1.33c-6.14-1.74-12.05-4.37-17.46-7.76
		c-2.66-1.67-5.27-3.51-7.63-5.58c-2.09-1.84-4.13-4.22-4.29-7.13c-0.16-2.94,1.87-5.58,4-7.39c1.94-1.66,4.26-2.81,6.71-3.51
		c5.12-1.48,10.69-1.14,15.83,0.03c6.28,1.44,12.34,3.95,17.83,7.33c5.12,3.15,10.3,7.11,13.37,12.38
		c2.7,4.65,3.41,10.76,0.43,15.47c-1.45,2.29-3.71,3.9-6.3,4.66c-2.7,0.8-5.59,0.7-8.34,0.24c-2.98-0.5-5.89-1.49-8.68-2.64
		c-2.94-1.22-5.77-2.69-8.45-4.4c-2.57-1.64-5-3.51-7.26-5.56c0.24,0.04,0.48,0.07,0.72,0.11c-1.33,0.63-1.57,2.17-1.29,3.5
		c0.37,1.75,1.61,2.93,2.93,4.05c1.4,1.19,2.89,2.33,3.83,3.95c0.78,1.35,1.14,2.92,1.1,4.48c-0.08,3.22-1.7,6.35-4.02,8.53
		c-2.8,2.63-6.68,3.74-10.42,4.14c-2.01,0.21-4.03,0.22-6.05,0.15c-0.99-0.04-1.98-0.14-2.97-0.13c-1.21,0.01-2.13,0.13-3.32,0.38
		c-3.57,0.75-6.88,2.49-9.57,4.96c-4.31,3.98-6.79,9.5-8.16,15.12c-0.23,0.94-0.43,1.88-0.6,2.83
		C857.37,290.92,856.22,290.57,856.36,289.82L856.36,289.82z"/>
</g>
<g>
</g>
<g>
</g>
<g>
</g>
<g>
</g>
<g>
</g>
<g>
</g>
</svg>
