<?xml version="1.0" encoding="utf-8"?>
<!-- Generator: Adobe Illustrator 24.0.1, SVG Export Plug-In . SVG Version: 6.00 Build 0)  -->
<svg version="1.1" id="圖層_1" xmlns="http://www.w3.org/2000/svg" xmlns:xlink="http://www.w3.org/1999/xlink" x="0px" y="0px"
	 viewBox="0 0 1080 1080" style="enable-background:new 0 0 1080 1080;" xml:space="preserve">
<style type="text/css">
	.st0{opacity:0.86;}
	.st1{opacity:0.48;fill:#E0E0E0;}
	.st2{opacity:0.59;fill:#E0E0E0;}
	.st3{opacity:0.58;fill:#E0E0E0;}
	.st4{fill:#E0E0E0;}
	.st5{opacity:0.71;fill:#E0E0E0;}
	.st6{fill:#989593;}
	.st7{fill:#B5B5B5;}
	.st8{opacity:0.1;fill:#040000;}
	.st9{opacity:0.57;fill:#989593;}
	.st10{fill:#FFFFFF;}
	.st11{fill:#53514F;}
	.st12{fill:#F9DACE;}
	.st13{fill:#DEC5BE;}
	.st14{fill:#6D6B6A;}
	.st15{fill:#545453;}
	.st16{fill:#878686;}
	.st17{opacity:0.3;}
	.st18{fill:#040000;}
	.st19{opacity:0.81;}
	.st20{fill:#332418;}
	.st21{fill:#EDBCAD;}
	.st22{fill:#263138;}
	.st23{fill:#22170F;}
	.st24{fill:#EBEBEB;}
	.st25{fill:none;}
</style>
<g class="st0">
	<g>
		<g>
			<g>
				<path class="st1" d="M99.37,871.94c-25.52-52.15,15.33-105.55,41.36-171.53c19.41-49.2-15.01-98.4-25.16-149.05
					c-9.03-45.08-8.26-97.3-0.35-143.36c10.81-62.89,38.53-122.98,80.06-162.18c64.7-61.09,153.6-63.98,228.3-34.43
					c31.29,12.38,61.78,30.02,94.91,31.82c48.32,2.63,94.22-28.45,140.51-49.06c63.02-28.05,132.92-36.95,194.18-9.48
					c69.45,31.15,120.81,112.49,118.32,208.25c-1.13,43.39-40.82,113.34-34.75,155.69c6.16,42.96,69.55,182.18,57.17,277.67
					c-13.8,106.47-108.74,142.58-188.37,189.75C628.97,1120.65,148.29,971.92,99.37,871.94z"/>
				<path class="st2" d="M297.01,876.96c-46.68-9.54-79.13-52.77-75.62-100.76c2.62-35.85,7.8-73.32,17.93-92.76
					c17.16-32.94-4.8-68.97-9.04-104.62c-3.77-31.73,0.03-67.82,8.65-99.25c11.76-42.91,35.64-82.9,68.26-107.65
					c50.82-38.55,115.62-35.44,168.09-10.67c21.98,10.37,43.05,24.34,67.01,27.5c34.96,4.61,70.25-14.26,105.18-25.86
					c47.55-15.78,98.91-17.92,141.73,4.63c48.55,25.56,80.83,84.83,73.08,150.97c-3.51,29.97-36.71,76.1-34.92,105.77
					c1.81,30.09,38.59,129.96,24.32,195.49c-6.8,31.26-53.65,67.43-105.78,98.9c-88.51,53.44-198.11,57.36-290.62,10.38
					C403.18,902.57,343.42,886.44,297.01,876.96z"/>
				<path class="st3" d="M369.78,779.6c-0.57-0.51-1.12-1.05-1.64-1.62c-11.14-12.07-8.54-35.06-7.76-50.22
					c1.18-23.06,8.41-45.8,12.77-68.34c4.97-25.69,0.3-48.47-0.71-73.71c-0.9-22.46,3.45-47.18,10.76-68.15
					c9.98-28.64,27.86-54,50.76-67.85c35.69-21.59,78.55-12.75,112.13,9.88c14.06,9.48,27.35,21.36,43.1,26.03
					c22.97,6.8,47.36-2.69,71.14-7.16c32.36-6.08,66.57-2.28,93.86,17.81c30.94,22.78,49.37,67.33,40.88,112.54
					c-3.85,20.49-12.81,40.01-13.13,60.83c-0.32,21.12,7.45,39.86,10.25,60.16c2.18,15.78-14.6,36.14-23.49,47.7
					c-12.24,15.93-26.74,30.07-42.88,41.94c-32.11,23.61-70.96,38.25-110.88,39.31c-44.38,1.18-87.69-13.32-129.34-29.1
					c-34.35-13.01-68.34-27.02-101.91-42C378.77,785.47,373.76,783.18,369.78,779.6z"/>
			</g>
		</g>
		
			<ellipse transform="matrix(0.1672 -0.9859 0.9859 0.1672 239.2925 588.2675)" class="st1" cx="467.88" cy="152.48" rx="39.19" ry="39.8"/>
		<path class="st4" d="M135.83,222.7c4.23,5.87,12.47,7.26,18.4,3.12c5.93-4.14,7.31-12.25,3.07-18.12
			c-4.23-5.87-12.47-7.26-18.4-3.12C132.97,208.72,131.6,216.84,135.83,222.7z"/>
		<path class="st1" d="M1014.89,251.43c4.23,5.87,12.47,7.26,18.4,3.12c5.93-4.14,7.31-12.25,3.07-18.12
			c-4.23-5.87-12.47-7.26-18.4-3.12C1012.03,237.45,1010.66,245.56,1014.89,251.43z"/>
		<path class="st1" d="M987.72,522.36c6.09,8.43,17.93,10.44,26.46,4.49c8.53-5.95,10.51-17.62,4.42-26.05
			c-6.09-8.43-17.93-10.44-26.46-4.49C983.61,502.27,981.63,513.93,987.72,522.36z"/>
		<path class="st4" d="M13.09,749.16c8.94,12.39,26.34,15.34,38.87,6.59c12.53-8.75,15.43-25.88,6.49-38.27
			c-8.94-12.39-26.34-15.34-38.87-6.59C7.05,719.63,4.14,736.77,13.09,749.16z"/>
		<path class="st4" d="M924.33,1038.54c6.2,8.59,18.26,10.63,26.94,4.57c8.68-6.06,10.7-17.94,4.5-26.53
			c-6.2-8.59-18.26-10.63-26.94-4.57S918.13,1029.95,924.33,1038.54z"/>
		<path class="st1" d="M1003.94,470.04c1.89,2.62,5.56,3.24,8.2,1.39c2.64-1.85,3.26-5.46,1.37-8.08c-1.89-2.61-5.56-3.24-8.2-1.39
			C1002.66,463.8,1002.05,467.42,1003.94,470.04z"/>
		<path class="st4" d="M807.65,1021.22c2.77,3.84,8.17,4.76,12.05,2.04c3.88-2.71,4.79-8.03,2.01-11.87
			c-2.77-3.84-8.17-4.76-12.05-2.04C805.78,1012.06,804.88,1017.37,807.65,1021.22z"/>
		<path class="st4" d="M83.89,928.76c2.77,3.84,8.17,4.76,12.05,2.04c3.88-2.71,4.79-8.03,2.01-11.87
			c-2.77-3.84-8.17-4.76-12.05-2.04C82.02,919.6,81.11,924.92,83.89,928.76z"/>
		<path class="st5" d="M452.09,756.81c-0.45-0.22-0.89-0.46-1.32-0.73c-9.09-5.61-11.23-20.34-13.23-29.89
			c-3.05-14.53-2.18-29.88-3.12-44.62c-1.06-16.8-7.8-30.17-12.6-45.67c-4.27-13.8-5.57-29.89-4.37-44.16
			c1.64-19.48,8.87-38.26,21.19-50.75c19.21-19.45,48-21.22,73.15-12.84c10.53,3.51,20.96,8.64,31.78,8.88
			c15.78,0.34,29.77-9.69,44.19-16.49c19.64-9.26,42.09-12.68,62.8-4.82c23.49,8.92,42.59,33.47,44.62,63
			c0.92,13.38-1.58,27.03,1.65,40.01c3.28,13.17,11.32,23.5,16.45,35.64c3.99,9.44-3.36,24.92-7.12,33.61
			c-5.18,11.97-12.1,23.21-20.44,33.31c-16.59,20.11-38.96,35.77-64.25,43.19c-28.12,8.25-58.13,6.57-87.3,3.81
			c-24.06-2.27-48.04-5.22-71.92-8.84C458.79,758.93,455.21,758.36,452.09,756.81z"/>
	</g>
</g>
<g>
	<g>
		<g>
			<g>
				<g>
					<path class="st6" d="M792.77,547.79l198.34-2.87c55.61-0.81,101.44,38.18,102.36,87.07l10.42,472.2l-451.84,6.55l-16.03-420.52
						C634.57,612.83,704.75,549.06,792.77,547.79z"/>
				</g>
			</g>
		</g>
	</g>
	<g>
		<path class="st6" d="M700.62,300.73c1.78,14.49,11.47,26.52,24.86,33.22l-0.99,33.4c-0.51,17.13,14.87,31.37,34.35,31.81
			l175.85,4.02l0.27-9.19c16.34,0.93,31.06-9.25,33.57-23.75c1.66-9.59-2.42-18.79-9.98-24.89c8.93-3.94,15.64-11.49,17.26-20.83
			c2.52-14.56-8.19-28.19-24.23-31.5c-5.45-15.19-15.32-29-32.1-38.16c0.67-2.95,0.86-6.04,0.47-9.2
			c-2.04-16.59-18.99-28.58-37.86-26.79c-8.01,0.76-15.06,3.9-20.39,8.52c-9.83-15.73-30.34-24.87-51.49-21.35
			c-15.04,2.5-27.11,10.88-33.77,21.91c-5.97-3.91-13.55-5.95-21.54-5.19c-16.79,1.6-28.93,14.86-27.11,29.62
			c0.18,1.46,0.52,2.87,0.96,4.25C710.19,264.35,698.29,281.75,700.62,300.73z"/>
		<g>
			<g>
				<g>
					<path class="st7" d="M972.43,393.5c-0.28-14.93-14.28-26.84-31.27-26.6l-3.11,0.05c-6.61,4.02-14.59,6.44-23.23,6.56
						c-23.24,0.34-42.39-15.95-42.77-36.38c-0.08-4.02,0.61-7.9,1.89-11.55c-2.55-1.46-4.89-3.17-7.02-5.07
						c-1.62,0.19-3.25,0.32-4.92,0.35c-10.55,0.15-20.24-3.15-27.73-8.69c-10.38,10.45-25.52,17.17-42.53,17.42
						c-12.39,0.18-23.91-3.12-33.43-8.82c-4.5,4.55-10.65,7.8-17.64,9.05l2.36,125.75c0.63,33.85,32.36,60.84,70.87,60.28l1.38-0.02
						l0.92,49.2c0.54,28.61,27.35,51.42,59.89,50.94h0c32.54-0.47,58.48-24.04,57.95-52.65L932.1,460.6
						c-0.02-1.15-0.15-2.27-0.26-3.4c0.09-1.44,0.14-2.9,0.11-4.36l-0.5-26.73l10.82-0.16c16.99-0.25,30.53-12.55,30.25-27.49
						L972.43,393.5z"/>
				</g>
				<path class="st8" d="M920.28,448.45c0.61,32.33-28.72,58.97-65.49,59.51l-44.16,0.64c-36.78,0.53-67.08-25.25-67.69-57.58
					l0.09,4.55c0.63,33.85,32.36,60.84,70.87,60.28l2.68-0.04l9.25,10.09c14.9,16.24,43.04,16.27,57.98,0.06l23.04-25.01
					c15.64-11.46,25.47-28.82,25.11-48.11l-0.5-26.73l-11.59,0.17L920.28,448.45z"/>
			</g>
			<g>
				<path class="st6" d="M821.69,385.95c0.05,2.67,2.55,4.79,5.58,4.75c3.03-0.04,5.45-2.24,5.4-4.91
					c-0.05-2.66-2.55-4.79-5.58-4.75S821.64,383.28,821.69,385.95z"/>
				<path class="st6" d="M755.7,386.9c0.05,2.67,2.55,4.79,5.58,4.75c3.03-0.04,5.45-2.24,5.4-4.91c-0.05-2.67-2.55-4.79-5.58-4.75
					C758.07,382.04,755.65,384.24,755.7,386.9z"/>
				<g>
					<path class="st9" d="M820.7,393.64c-0.44,0-0.87-0.18-1.15-0.51c-0.47-0.56-0.34-1.35,0.3-1.76c8.4-5.47,15.81-0.39,15.88-0.34
						c0.62,0.43,0.72,1.23,0.22,1.77c-0.49,0.54-1.39,0.63-2.01,0.2l0,0c-0.24-0.16-5.8-3.9-12.4,0.39
						C821.3,393.56,821,393.64,820.7,393.64z"/>
				</g>
				<g>
					<path class="st9" d="M753.75,394.61c-0.44,0-0.87-0.18-1.15-0.51c-0.47-0.56-0.34-1.35,0.3-1.76c8.4-5.47,15.8-0.39,15.88-0.34
						c0.62,0.43,0.72,1.23,0.22,1.77c-0.49,0.55-1.39,0.63-2.01,0.2c-0.26-0.18-5.81-3.88-12.4,0.39
						C754.34,394.53,754.04,394.61,753.75,394.61z"/>
				</g>
				<path class="st6" d="M807.21,486.53c-0.28,0-0.57-0.07-0.82-0.23c-0.65-0.4-0.8-1.18-0.35-1.75c6.37-7.97,17.33-5.26,17.44-5.23
					c0.76,0.2,1.19,0.89,0.97,1.56c-0.22,0.67-1.01,1.05-1.77,0.86c-0.37-0.09-9.13-2.22-14.3,4.26
					C808.1,486.35,807.66,486.53,807.21,486.53z"/>
				<path class="st10" d="M837.79,417.61c-1.82,0-3.66-0.13-5.52-0.39c-9.05-1.29-16.99-5.6-22.35-12.14s-7.51-14.52-6.04-22.48
					c1.47-7.96,6.37-14.93,13.81-19.65c7.44-4.71,16.52-6.6,25.57-5.31c18.68,2.67,31.42,18.2,28.39,34.62l0,0
					C868.92,407.06,854.32,417.61,837.79,417.61z M837.71,362.28c-5.95,0-11.74,1.63-16.67,4.75c-6.2,3.93-10.28,9.74-11.51,16.37
					c-1.23,6.63,0.56,13.28,5.03,18.73c4.47,5.45,11.08,9.04,18.62,10.12c15.55,2.22,30.29-7.11,32.82-20.8
					c2.52-13.69-8.09-26.63-23.65-28.85C840.8,362.39,839.25,362.28,837.71,362.28z M868.83,391.86h0.03H868.83z"/>
				<path class="st10" d="M758.11,419.89c-1.82,0-3.66-0.13-5.52-0.39c-18.68-2.67-31.42-18.2-28.38-34.62
					c3.03-16.43,20.69-27.62,39.38-24.96c18.68,2.67,31.42,18.2,28.38,34.62C789.25,409.33,774.64,419.89,758.11,419.89z
					 M758.08,364.55c-13.77,0-25.95,8.79-28.22,21.12c-2.53,13.69,8.08,26.63,23.65,28.85c15.58,2.23,30.29-7.11,32.82-20.8
					c2.53-13.69-8.08-26.63-23.65-28.85C761.14,364.66,759.6,364.55,758.08,364.55z"/>
				<g>
					<g>
						<g>
							<path class="st6" d="M856.53,352.21c-2.94,0.51-6.34-0.45-9.69-1.21c-3.35-0.83-6.75-1.58-9.72-2.15
								c-2.98-0.57-6.43-1.12-9.87-1.59c-3.41-0.53-6.97-0.91-9.37-2.43c-2.32-1.44-2.69-4.36,1.16-7.13
								c3.65-2.72,11.96-4.84,21.82-2.98c9.84,1.9,16.28,6.84,18.21,10.62C861.15,349.24,859.35,351.75,856.53,352.21z"/>
						</g>
						<g>
							<path class="st6" d="M739.64,354.06c2.96,0.38,6.31-0.72,9.61-1.61c3.31-0.97,6.65-1.86,9.59-2.55
								c2.95-0.69,6.36-1.39,9.77-2c3.37-0.67,6.92-1.2,9.23-2.82c2.24-1.53,2.45-4.47-1.55-7.07c-3.79-2.56-12.21-4.33-21.96-2.06
								c-9.73,2.31-15.89,7.52-17.61,11.37C734.86,351.3,736.8,353.73,739.64,354.06z"/>
						</g>
					</g>
				</g>
				<path class="st6" d="M949.87,406.38c-0.19,0-0.39-0.03-0.57-0.1l-12.63-4.85l8.72-16.97c0.33-0.63,1.17-0.91,1.89-0.63
					c0.72,0.29,1.04,1.03,0.72,1.66l-7.53,14.65l9.98,3.83c0.72,0.28,1.05,1.02,0.74,1.66
					C950.94,406.09,950.42,406.38,949.87,406.38z"/>
				<g>
					<path class="st7" d="M796.76,361.47l0.49,26.17c0.13,6.7-5.95,12.23-13.58,12.34h0c-4.44,0.06-7.98,3.28-7.9,7.18l0.02,1.09
						c0.16,8.5,8.12,15.27,17.79,15.13l13.39-0.19"/>
					<path class="st6" d="M793.29,424.65c-10.3,0-18.76-7.29-18.93-16.37l-0.02-1.08c-0.09-4.59,4.09-8.39,9.31-8.46
						c3.31-0.05,6.39-1.22,8.69-3.31c2.3-2.09,3.54-4.84,3.48-7.75l-0.49-26.17c-0.01-0.7,0.62-1.27,1.41-1.28c0.01,0,0.01,0,0.02,0
						c0.78,0,1.42,0.55,1.43,1.24l0.49,26.17c0.14,7.39-6.58,13.49-14.98,13.62c-3.64,0.05-6.56,2.7-6.5,5.9l0.02,1.08
						c0.15,7.71,7.33,13.9,16.07,13.9c0.09,0,0.18,0,0.27,0l13.39-0.19c0.01,0,0.01,0,0.02,0c0.78,0,1.42,0.55,1.43,1.24
						c0.01,0.7-0.62,1.27-1.41,1.28l-13.39,0.19C793.5,424.64,793.39,424.65,793.29,424.65z"/>
				</g>
				<path class="st10" d="M803.42,391.55c-0.06,0-0.12,0-0.18-0.01l-12.29-0.68c-1.58-0.09-2.77-1.28-2.68-2.67
					c0.1-1.39,1.46-2.46,3.03-2.35l12.29,0.68c1.58,0.09,2.78,1.28,2.68,2.67C806.18,390.52,804.92,391.55,803.42,391.55z"/>
				<path class="st10" d="M862.5,418.72c0,0-17.37,8.95-35.46,12.86c-18.08,3.9-2.13,27.3,25.53,22.58
					C880.23,449.43,877.22,414.71,862.5,418.72z"/>
			</g>
			<path class="st10" d="M867.75,381.57c-1.37,0-2.57-0.86-2.82-2.08c-0.27-1.37,0.77-2.67,2.33-2.91l59.17-9.05
				c1.58-0.23,3.04,0.68,3.31,2.05c0.27,1.37-0.77,2.67-2.33,2.91l-59.17,9.05C868.08,381.56,867.92,381.57,867.75,381.57z"/>
		</g>
	</g>
</g>
<g>
	<g>
		<path class="st6" d="M313.48,943.4l-8.39-426.74l-151.05,2.33l20.61,434.62l-12.8,158.38l172.26-2.66
			c-0.99-1.44-1.68-3.08-1.89-4.89L313.48,943.4z"/>
		<path class="st6" d="M416.57,912.44l161.96-60.99L472.76,617.57c-15.68-34.66-46.32-61.49-84.35-73.84l-83.32-27.06l8.39,426.74
			l18.74,161.04c0.21,1.81,0.9,3.45,1.89,4.89c2.33,3.41,6.49,5.57,11.09,5.28l85.45-5.39c9.6-0.61,16.57-8.8,15.03-17.69
			L416.57,912.44z"/>
		<path class="st6" d="M154.04,518.99L46.95,556.08c-29.59,10.25-50.51,35.16-54.13,64.46L-52.31,985.8v148.73l100.05-28.8
			c-1.23,8.93,6.02,16.9,15.64,17.21l85.6,2.76c6.56,0.21,12.12-4.45,12.62-10.57l0.25-3.15l12.8-158.38L154.04,518.99z"/>
	</g>
	<g>
		<path class="st6" d="M350.56,315.2c2.84-4.92,4.65-10.45,5.05-16.4c1.29-19.42-12.57-36.41-32.04-40.99
			c-0.62-11.32-10.24-20.65-22.63-21.37c-6.34-0.37-12.24,1.6-16.79,5.09c-5.72-9.03-15.59-15.66-27.57-17.25
			c-17.82-2.37-34.48,7.15-40.91,22.1c-4.26-0.01-8.55,0.06-12.83,0.19c-84.02,2.71-90.16,66.87-84.9,109.43
			c-8.04,6.71-12.21,17.1-9.95,27.7c3.22,15.08,18.25,25.13,34.3,23.47l0.74,9.61l184.63-12.42c10.33-0.7,18.11-9.09,17.36-18.75
			l-4.52-58.81C344.73,323.74,348.21,319.79,350.56,315.2z"/>
		<g>
			<path class="st7" d="M317.31,333.49c-11.52-0.67-21.34-6.57-27.04-15.06c-6.74,6.23-16.15,9.88-26.36,9.29
				c-14.65-0.85-26.56-10.15-30.72-22.5c-15.38,0.59-27.47,1.46-31.38,2.61c-12.55,3.71-23.19,13.46-26.9,25.56
				c-3.37,10.99-1.79,23.01-2.02,34.3c-0.11,5.21-0.03,10.42-0.17,15.62c-0.05,1.83,0.54,5.74-0.57,7.39
				c-8.68,12.86-2.05-3.46-14.29-17.26l0.19,2.4l-6.91,0.46c-15.39,1.04-26.97,13.54-25.86,27.92v0
				c1.11,14.39,14.48,25.21,29.87,24.18l6.91-0.46l0.93,12.09l0.14,1.78c0,0,0,0,0,0l1.19,15.45c0.42,5.51,1.6,10.79,3.43,15.78
				l1.04,58.72c0.57,32.06,29.09,57.86,63.38,57.33s61.89-27.19,61.32-59.25l-0.36-20.35c28.53-8.73,48.16-34.72,45.91-63.98
				l-1.19-15.45c0,0,0,0,0,0l-7.55-98.16C326.22,333.17,321.85,333.76,317.31,333.49z"/>
			<path class="st8" d="M339.03,445.51l-1.19-15.45c2.65,34.48-25.1,64.45-61.98,66.93l-41.14,2.77
				c-36.88,2.48-68.93-23.46-71.59-57.94l1.19,15.45c1.75,22.78,16.34,41.83,36.68,51.42c0,0.21-0.03,0.42-0.02,0.63
				c0.36,20.51,18.44,36.86,40.38,36.52c20.47-0.32,37.06-15.06,38.89-33.69C315.51,508.21,341.6,478.99,339.03,445.51z"/>
			<g>
				<path class="st6" d="M147.07,409.09c-0.29,0-0.59-0.1-0.81-0.31c-0.46-0.42-0.46-1.1-0.01-1.53l5.46-5.19l-9.36-8.66
					c-0.45-0.42-0.46-1.11-0.01-1.53c0.45-0.42,1.18-0.43,1.64-0.01l11,10.18l-7.08,6.73C147.67,408.99,147.37,409.09,147.07,409.09
					z"/>
				<g>
					<g>
						<g>
							<path class="st9" d="M279.94,473.72c-0.28,0-0.56-0.09-0.78-0.28c-6.51-5.55-14.52-1.52-14.6-1.48
								c-0.55,0.29-1.26,0.1-1.57-0.43c-0.31-0.52-0.11-1.18,0.45-1.47c0.09-0.05,9.56-4.81,17.28,1.78
								c0.47,0.4,0.51,1.09,0.07,1.53C280.57,473.6,280.26,473.72,279.94,473.72z"/>
						</g>
						<g>
							<path class="st10" d="M228.84,405.52c0,0,15,7.68,30.48,10.33c15.49,2.65,2.43,26.81-21.23,23.99
								C214.44,437.02,216.22,402.55,228.84,405.52z"/>
						</g>
					</g>
					<g>
						<g>
							<g>
								<path class="st6" d="M211.28,360.48c2.86-0.21,5.71-1.99,8.57-3.56c2.85-1.64,5.75-3.22,8.32-4.5
									c2.58-1.29,5.59-2.67,8.62-3.98c2.98-1.36,6.16-2.6,7.91-4.69c1.71-2,1.17-5-3.22-6.82c-4.18-1.82-12.49-1.92-21.03,2.33
									c-8.51,4.28-12.96,10.77-13.59,15.01C206.12,358.65,208.54,360.71,211.28,360.48z"/>
							</g>
							<g>
								<path class="st6" d="M316.86,349.4c-2.26,0.49-4.92-0.23-7.53-0.78c-2.62-0.61-5.26-1.16-7.58-1.57
									c-2.32-0.41-5.01-0.78-7.68-1.09c-2.65-0.36-5.42-0.59-7.32-1.81c-1.83-1.15-2.19-3.58,0.73-5.99
									c2.76-2.36,9.14-4.33,16.83-3.01c7.67,1.36,12.78,5.34,14.36,8.45C320.37,346.81,319.04,348.95,316.86,349.4z"/>
							</g>
						</g>
					</g>
					<g>
						<path class="st6" d="M267.46,405.12c-1.43,0-2.91-0.05-4.44-0.17c-0.64-0.04-1.12-0.56-1.07-1.16c0.05-0.6,0.66-1.08,1.24-1
							c3.31,0.24,6.36,0.21,9.07-0.09c4.89-0.53,8.97-2.81,10.91-6.09c1.36-2.3,1.47-4.84,0.29-7.15l-14.63-28.72
							c-0.28-0.54-0.03-1.19,0.55-1.44c0.57-0.26,1.27-0.03,1.54,0.51l14.63,28.72c1.51,2.96,1.38,6.2-0.35,9.13
							c-2.3,3.9-7.04,6.59-12.67,7.2C270.94,405.03,269.25,405.12,267.46,405.12z"/>
					</g>
				</g>
				<path class="st6" d="M245.69,379.24c1.62,2.68,0.6,6.08-2.27,7.6c-2.87,1.51-6.51,0.57-8.13-2.12c-1.62-2.68-0.6-6.08,2.27-7.6
					C240.43,375.61,244.07,376.56,245.69,379.24z"/>
				<path class="st6" d="M312.58,376.94c1.62,2.68,0.6,6.08-2.26,7.6c-2.87,1.51-6.51,0.57-8.13-2.12s-0.6-6.08,2.26-7.6
					C307.32,373.31,310.96,374.26,312.58,376.94z"/>
			</g>
		</g>
	</g>
</g>
<g>
	<g>
		<polygon class="st11" points="698.61,1081.75 378.01,1081.75 393.57,1002.59 682.84,1002.59 		"/>
	</g>
	<g>
		<g>
			<g>
				<path class="st12" d="M869.24,751.51c0,0-4.06-3.82-4.54-19.82c-0.48-16,1.19-26.98,0-35.34c-1.19-8.36-5.19-22.21-0.09-23.16
					c5.1-0.96,12.03,0.96,15.61,17.43c3.58,16.48,2.15,21.97,14.57,23.64c12.42,1.67,25.55-7.88,29.85-12.18
					c4.3-4.3,23.16-27.63,29.61-29.1c6.45-1.47,5.77,6.17,5.05,6.89c-0.72,0.72-24.7,32.06-27.74,36.06
					c-0.8,1.06,0.48,3.34,3.82,2.87c3.34-0.48,29.61-14.81,34.15-17.67c4.54-2.87,11.94-5.25,12.9,0
					c0.96,5.25-6.93,10.96-6.93,10.96s4.54,2.17,0.48,6.71c-4.06,4.54-44.66,27.7-44.66,27.7s-2.15,8.6-3.82,10.75
					c-1.67,2.15-27.94,22.21-33.43,22.69c-5.49,0.48-11.7,1.67-11.7,1.67l-8.6,5.01c0,0-13.13-20.27-9.21-31.57
					C864.87,754.18,869.24,751.51,869.24,751.51z"/>
			</g>
			<g>
				<g>
					<path class="st13" d="M931.11,747.89c-0.07-0.02,0.02-0.55,0.2-1.5c0.16-0.95,0.47-2.33,0.44-4.01
						c-0.01-1.65-0.59-3.71-2.24-5.08c-0.79-0.65-1.93-1.05-2.95-0.82c-1.02,0.23-1.83,1.22-2.65,2.24
						c-1.63,1.76-2.53,3.79-3.31,5.75c-0.76,1.95-1.31,3.79-1.71,5.37l-0.73-0.16c-0.05,0.17,0.1,0.34,0.2,0.36
						c0.01,0.01,0.06,0.01,0.03,0.01c-0.02,0-0.07,0.01-0.12,0.01l-0.33,0.08c-0.22,0.06-0.44,0.14-0.65,0.21
						c-0.43,0.15-0.83,0.31-1.2,0.47c-0.74,0.31-1.38,0.61-1.88,0.87c-0.51,0.26-0.88,0.48-1.12,0.65c-0.24,0.17-0.29,0.29-0.32,0.3
						c-0.17-0.05,0.24-0.71,1.24-1.31c0.49-0.32,1.11-0.68,1.84-1.05c0.37-0.18,0.77-0.37,1.2-0.55c0.22-0.09,0.44-0.18,0.69-0.26
						c0.12-0.04,0.25-0.08,0.39-0.11c0.08-0.01,0.15-0.03,0.25-0.04c0.03-0.01,0.14,0,0.22,0.02c0.17,0.04,0.35,0.27,0.29,0.51
						l-0.73-0.16c0.33-1.64,0.84-3.53,1.58-5.54c0.73-1.97,1.73-4.25,3.4-6.05c0.82-0.99,1.72-2.22,3.21-2.57
						c1.45-0.3,2.8,0.27,3.75,1.06c1.92,1.65,2.44,4.03,2.37,5.78c-0.06,1.8-0.48,3.17-0.76,4.1
						C931.38,747.41,931.17,747.91,931.11,747.89z"/>
				</g>
			</g>
			<g>
				<g>
					<path class="st13" d="M975.81,712.53c-0.06,0.09-0.52-0.35-1.55-0.53c-1.02-0.2-2.56,0.03-4.32,0.77
						c-3.77,1.76-8.5,3.97-13.72,6.41c-5.38,2.47-10.28,4.66-13.85,6.19c-3.57,1.54-5.8,2.43-5.86,2.3
						c-0.06-0.12,2.07-1.24,5.56-2.94c3.49-1.7,8.34-3.99,13.72-6.46c5.4-2.46,10.24-4.69,13.88-6.16c1.85-0.69,3.56-0.84,4.66-0.49
						C975.46,711.95,975.85,712.52,975.81,712.53z"/>
				</g>
			</g>
		</g>
		<g>
			<g>
				<path class="st13" d="M908.53,753.57c0.07,0.1-1.17,1.11-3.49,2.22c-2.31,1.13-5.76,2.13-9.6,2.71
					c-3.84,0.58-7.27,1.06-9.63,1.87c-2.37,0.77-3.67,1.67-3.76,1.53c-0.07-0.08,1.12-1.21,3.52-2.19c2.39-1.02,5.92-1.62,9.71-2.19
					c3.81-0.58,7.16-1.44,9.48-2.38C907.09,754.24,908.45,753.44,908.53,753.57z"/>
			</g>
		</g>
		<g>
			<g>
				<path class="st13" d="M925.77,736.81c-0.3,0.03-0.87-4.38-2.51-9.57c-1.61-5.2-3.65-9.15-3.39-9.29c0.21-0.14,2.69,3.68,4.34,9
					C925.88,732.26,926.02,736.81,925.77,736.81z"/>
			</g>
		</g>
		<g>
			<g>
				<path class="st13" d="M887.3,746.31c-0.13-0.1,0.91-1.39,2.04-3.76c1.13-2.35,2.24-5.88,2.14-9.86
					c-0.1-3.98-1.37-7.46-2.62-9.75c-1.24-2.31-2.35-3.55-2.22-3.66c0.07-0.08,1.38,1.01,2.83,3.31c1.44,2.27,2.9,5.89,3,10.08
					c0.1,4.19-1.18,7.87-2.51,10.21C888.63,745.23,887.38,746.38,887.3,746.31z"/>
			</g>
		</g>
	</g>
	<g>
		<g>
			<path class="st12" d="M120.21,758.96c0,0,17.03,3.89,27.74,5.35c6.06,0.83,25.26,5.19,35.92,11.05
				c7.8,4.29,5.43,13.09,5.43,13.09l23.39-36.14l-4.39-12.34c0,0,2.5-19.03-1.95-30.66c-4.14-10.83,6.57-40.94-0.49-41.85
				c-7.78-1-11.19,5.84-15.09,19.47c-3.89,13.63-6.33,21.41-15.57,22.87c-9.25,1.46-37.32-14.8-48.48-23.04
				c-8.89-6.57-20.09-13.72-22.66-8.53c-2.68,5.39,9.08,18.17,31.89,34.61c1.11,0.54,3.57,6.42-10.38,0.38
				c-4.99-2.16-31.67-21.68-37.51-18.76c-5.84,2.92-2.02,9.71,0.86,12.97c3.81,4.3,27.98,19.37,27.98,19.37s-27.97-8.91-29.92-7.45
				c-1.95,1.46-4.24,4.3-1.32,8.58c2.92,4.28,26.33,14.41,33.63,17.33c7.3,2.92,19.43,3.76,19.43,3.76l0,0
				c-1.67,0-17.13-0.63-19.53,0.63c-2.4,1.25-3.24,5.01-2.4,6.48C117.61,757.57,120.21,758.96,120.21,758.96z"/>
		</g>
		<g>
			<g>
				<path class="st13" d="M179.33,749.75c-0.04,0.04-0.5-0.28-1.25-0.97c-0.75-0.69-1.74-1.79-2.77-3.3
					c-2.06-2.98-4.11-7.9-3.92-13.56c0.21-5.67,2.6-10.43,4.87-13.25c1.14-1.43,2.21-2.46,3-3.1c0.79-0.64,1.28-0.93,1.31-0.88
					c0.12,0.14-1.69,1.5-3.75,4.4c-2.06,2.85-4.24,7.46-4.44,12.87c-0.19,5.41,1.66,10.16,3.52,13.15
					C177.76,748.13,179.46,749.62,179.33,749.75z"/>
			</g>
		</g>
		<g>
			<g>
				<path class="st13" d="M147.27,714.89c0.14,0.07-0.61,1.78-1.65,4.59c-1.04,2.81-2.3,6.77-3.22,11.25
					c-0.91,4.48-1.29,8.62-1.43,11.61c-0.14,3-0.12,4.87-0.27,4.87c-0.12,0.01-0.39-1.85-0.43-4.89c-0.04-3.03,0.24-7.24,1.16-11.8
					c0.93-4.55,2.32-8.53,3.54-11.31C146.19,716.44,147.17,714.83,147.27,714.89z"/>
			</g>
		</g>
		<g>
			<g>
				<path class="st13" d="M137.03,732.85c-0.04,0.26-4.85-0.35-10.58-1.97c-5.74-1.61-10.15-3.61-10.05-3.85
					c0.1-0.27,4.64,1.3,10.32,2.9C132.4,731.53,137.08,732.57,137.03,732.85z"/>
			</g>
		</g>
	</g>
	<g>
		<g>
			<path class="st4" d="M877.56,796.75l10.99-9.5l-30.43-53.9c-0.08,0.51-8.8,5-8.8,5L877.56,796.75z"/>
		</g>
		<g>
			<path class="st14" d="M855,732.42c1.29,0.97,29.95,70.7,29.95,70.7s-113.69,63.65-139.85,70.95c-26.16,7.3-41.59-6.33-48.88-14.6
				c-7.29-8.27-26.88-41.83-26.88-41.83l21.3-158.52l7.33-32.91c0,0,12.29,6.02,15.73,23.05c3.43,17.03,18.12,128.46,18.12,128.46
				s11.85-8.55,12.03,5.25L855,732.42z"/>
		</g>
		<g>
			<g>
				<path class="st15" d="M733.45,821.85c-0.13-0.02,0.16-2.27,0.85-5.85c0.68-3.59,1.78-8.51,3.23-13.89
					c1.45-5.38,2.97-10.19,4.16-13.64c1.19-3.45,2.03-5.55,2.16-5.5c0.13,0.04-0.47,2.22-1.49,5.72c-1.02,3.5-2.42,8.33-3.87,13.69
					c-1.45,5.36-2.65,10.24-3.5,13.78C734.12,819.68,733.59,821.87,733.45,821.85z"/>
			</g>
		</g>
		<g>
			<g>
				<path class="st15" d="M717.77,808.93c-0.07,0-0.09-0.49-0.07-1.38c0.05-0.88,0.17-2.16,0.52-3.71
					c0.63-3.11,2.22-7.24,4.53-11.46c2.31-4.22,4.63-7.87,6.28-10.54c1.67-2.66,2.76-4.26,2.88-4.19c0.12,0.07-0.76,1.8-2.28,4.55
					c-1.49,2.76-3.73,6.48-6.01,10.66c-2.28,4.18-3.94,8.15-4.72,11.16C718.06,807,717.95,808.94,717.77,808.93z"/>
			</g>
		</g>
		<g>
			<path class="st4" d="M193.25,801.25l-10.99-9.5l30.43-53.9c0.08,0.51,8.8,5,8.8,5L193.25,801.25z"/>
		</g>
		<g>
			<path class="st14" d="M220.18,736.92c-1.3,0.97-30.35,70.7-30.35,70.7s115.21,63.65,141.72,70.95
				c26.51,7.3,42.15-6.33,49.54-14.6c7.39-8.27,25.67-36.11,25.67-36.11l-25.58-197.8c0,0-10.38,4.82-13.86,21.85
				c-3.48,17.03-22.3,130.3-22.3,130.3s-12-8.55-12.19,5.25L220.18,736.92z"/>
		</g>
		<g>
			<path class="st10" d="M648.88,997.66H412.93v-1.9c-0.35,0-0.59,0.22-0.65,0.33c1.62-2.91,6.23-54.83,8.94-89.08l-36.93-276.47
				l77.09-19.57l17.12-20.23h100.28l8.62,12.74l91.26,32.02l-0.11,0.77L638.83,913.7L648.88,997.66z M414.29,995.76h232.44
				l-9.82-82.07l0.02-0.12l39.62-276.78l-90.38-31.71l-8.41-12.42h-98.39l-16.94,20.02l-76.03,19.3l36.73,274.99l-0.01,0.1
				c-0.02,0.23-1.8,22.69-3.81,44.87C416.58,981.81,415.25,992.16,414.29,995.76z"/>
		</g>
		<g>
			<path class="st10" d="M535.76,957.98l-0.93-1.95c-3.04-6.41-74.62-157.26-80.25-187.23c-5.64-30.01,22.18-153.4,23.42-158.86
				l3.69-19.2h97.22l0.24,0.59c1.43,3.53,8.58,21.27,8.58,23.84c0.03,0.34,0.61,2.92,1.34,6.19c13.59,60.94,26.96,140.46,13.5,173.2
				c-18.24,44.35-65.51,160.25-65.99,161.42L535.76,957.98z M483.26,592.64l-3.41,17.71c-0.29,1.28-28.98,128.45-23.41,158.1
				c5.25,27.9,70.58,166.63,79.18,184.81c6.38-15.64,48.26-118.29,65.17-159.42c13.28-32.28-0.06-111.39-13.59-172.06
				c-1.14-5.1-1.38-6.23-1.38-6.61c0-1.66-4.93-14.44-8.2-22.53H483.26z"/>
		</g>
		<g>
			<g>
				<g>
					<g>
						<g>
							<polygon class="st14" points="491.42,564.6 455.26,596.18 380.99,630.12 387.19,727.58 414.44,869.92 378.01,1052.6 
								519.69,1081.75 535.89,1015.8 551.96,1081.75 705.7,1053.31 662.97,861.52 697.96,626.2 610.14,591.38 577.32,559.5 							
								"/>
						</g>
					</g>
				</g>
				<g>
					<g>
						<g>
							<path class="st10" d="M491.42,564.6c0.27,2.02-15.94,44.91-10.42,63.79c5.53,18.88,55.16,190.17,55.9,189.25
								c0.74-0.92,33.43-142.28,38.95-167.6c5.53-25.32,13.82-39,13.82-54.85c0-6.39-14.02-33.35-14.02-33.35L491.42,564.6z"/>
						</g>
					</g>
				</g>
				<g>
					<g>
						<g>
							<g>
								<path class="st15" d="M554.68,742.58c0.13,0.03-0.24,2.12-1.01,5.87c-0.88,4.07-2.04,9.4-3.44,15.84
									c-2.99,13.36-7.24,31.79-12.05,52.11c-0.12,0.5-0.24,0.99-0.34,1.45l-0.82,3.45l-1.02-3.4
									c-5.93-19.68-11.18-37.47-14.88-50.34c-1.74-6.21-3.19-11.35-4.29-15.27c-0.97-3.61-1.45-5.63-1.32-5.66
									c0.12-0.04,0.84,1.9,2.03,5.45c1.25,3.88,2.89,8.96,4.86,15.09c4.03,12.78,9.49,30.5,15.43,50.18l-1.84,0.06
									c0.11-0.46,0.23-0.95,0.34-1.45c4.81-20.32,9.27-38.7,12.6-51.98c1.64-6.38,3-11.67,4.03-15.7
									C553.94,744.58,554.55,742.55,554.68,742.58z"/>
							</g>
						</g>
					</g>
				</g>
			</g>
		</g>
		<g>
			<g>
				<path class="st15" d="M343.36,826.35c-0.14,0.03-0.69-2.19-1.55-5.77c-0.86-3.58-2.07-8.52-3.51-13.94
					c-1.44-5.43-2.85-10.31-3.88-13.85c-1.03-3.54-1.65-5.73-1.52-5.77c0.12-0.04,0.99,2.07,2.19,5.56c1.2,3.49,2.72,8.36,4.17,13.8
					c1.45,5.44,2.55,10.43,3.24,14.05C343.19,824.06,343.49,826.32,343.36,826.35z"/>
			</g>
		</g>
		<g>
			<g>
				<path class="st15" d="M359.06,812.71c-0.18,0.01-0.29-1.94-1.15-4.93c-0.8-3.01-2.48-6.99-4.79-11.16
					c-2.31-4.17-4.58-7.89-6.09-10.65c-1.54-2.74-2.43-4.48-2.31-4.55c0.12-0.07,1.22,1.53,2.91,4.19
					c1.67,2.67,4.02,6.31,6.36,10.53c2.34,4.22,3.96,8.34,4.6,11.46c0.35,1.55,0.48,2.84,0.53,3.72
					C359.15,812.22,359.13,812.7,359.06,812.71z"/>
			</g>
		</g>
		<g>
			<g>
				<path class="st15" d="M378.01,667.37c0.02,0,0.06,0.17,0.12,0.52c0.06,0.4,0.15,0.91,0.25,1.54c0.21,1.43,0.49,3.42,0.85,5.94
					c0.73,5.15,1.81,12.61,3.3,21.8c2.91,18.39,7.44,43.71,12.75,71.62c5.38,27.88,10.26,53.11,13.8,71.46
					c1.69,9.1,3.07,16.49,4.04,21.68c0.44,2.51,0.78,4.49,1.03,5.91c0.1,0.63,0.18,1.14,0.24,1.54c0.05,0.35,0.07,0.53,0.05,0.53
					c-0.02,0-0.07-0.17-0.15-0.51c-0.09-0.4-0.2-0.9-0.34-1.52c-0.29-1.42-0.7-3.38-1.21-5.87c-1.04-5.18-2.52-12.55-4.35-21.62
					c-3.66-18.26-8.75-43.48-14.09-71.41c-5.32-27.92-9.74-53.27-12.47-71.7c-1.4-9.21-2.38-16.69-2.99-21.86
					c-0.28-2.53-0.51-4.53-0.67-5.96c-0.06-0.64-0.11-1.15-0.15-1.55C378,667.56,377.99,667.38,378.01,667.37z"/>
			</g>
		</g>
		<g>
			<g>
				<path class="st15" d="M535.89,1015.8c-0.27,0-0.5-42.41-0.5-94.72c0-52.33,0.22-94.73,0.5-94.73s0.5,42.4,0.5,94.73
					C536.39,973.39,536.16,1015.8,535.89,1015.8z"/>
			</g>
		</g>
		<g>
			<g>
				<path class="st16" d="M530.3,614.44c0.05,0.04-0.51,0.78-1.57,2.08c-1.19,1.43-2.73,3.26-4.58,5.47
					c-3.91,4.61-9.38,10.96-15.54,18.03l-0.33,0.38l-0.36-0.31c-0.58-0.5-1.15-1.05-1.72-1.59c-7.06-6.96-13.24-13.45-17.71-18.15
					c-2.12-2.27-3.88-4.16-5.24-5.62c-1.22-1.34-1.87-2.11-1.82-2.16c0.05-0.05,0.79,0.63,2.1,1.89c1.42,1.4,3.26,3.22,5.46,5.4
					c4.6,4.57,10.86,10.99,17.9,17.92c0.56,0.54,1.12,1.08,1.64,1.53l-0.69,0.07c6.17-7.05,11.73-13.33,15.78-17.83
					c1.94-2.13,3.56-3.9,4.81-5.28C529.6,615.06,530.25,614.4,530.3,614.44z"/>
			</g>
		</g>
		<g>
			<g>
				<path class="st16" d="M585.92,607.05c0.05,0.05-0.61,0.89-1.86,2.37c-1.25,1.48-3.08,3.6-5.4,6.17
					c-4.63,5.14-11.2,12.14-19.13,19.15c-1.36,1.2-2.72,2.36-4.01,3.46l-0.34,0.29l-0.32-0.31c-6.7-6.47-12.6-12.25-16.66-16.54
					c-2.04-2.14-3.64-3.9-4.7-5.14c-1.07-1.24-1.62-1.94-1.58-1.98c0.05-0.04,0.69,0.58,1.84,1.74c1.27,1.28,2.92,2.93,4.91,4.92
					c4.18,4.17,10.15,9.84,16.88,16.29l-0.66-0.02c1.28-1.11,2.62-2.27,3.99-3.45c7.89-6.98,14.51-13.87,19.27-18.89
					c2.28-2.42,4.18-4.42,5.63-5.95C585.11,607.76,585.87,607,585.92,607.05z"/>
			</g>
		</g>
		<g>
			<g>
				<path class="st15" d="M694.9,659.63c0.02,0,0,0.18-0.05,0.52c-0.06,0.4-0.14,0.9-0.24,1.52c-0.25,1.4-0.59,3.35-1.02,5.82
					c-0.93,5.04-2.17,12.36-3.71,21.41c-3.06,18.09-7.06,43.11-11.32,70.78c-4.19,27.65-7.99,52.68-10.75,70.89
					c-1.37,9.01-2.48,16.33-3.26,21.48c-0.39,2.48-0.7,4.43-0.93,5.83c-0.11,0.62-0.2,1.12-0.26,1.51
					c-0.07,0.34-0.11,0.51-0.12,0.51c-0.02,0-0.01-0.18,0.02-0.53c0.04-0.4,0.1-0.9,0.17-1.53c0.18-1.41,0.43-3.37,0.74-5.86
					c0.71-5.16,1.71-12.49,2.95-21.53c2.56-18.17,6.19-43.26,10.47-70.94c4.27-27.67,8.37-52.68,11.61-70.75
					c1.63-9.03,2.98-16.33,4.02-21.36c0.51-2.46,0.91-4.39,1.21-5.79c0.14-0.61,0.25-1.11,0.34-1.5
					C694.83,659.8,694.88,659.63,694.9,659.63z"/>
			</g>
		</g>
	</g>
	<g class="st17">
		<path class="st18" d="M399.88,838.13c0,0-10.52-97.13-10.45-96.75c0.07,0.39,17.32,86.47,17.32,86.47L399.88,838.13z"/>
	</g>
	<g>
		<g>
			<path class="st14" d="M675.86,930.84c-7.35,5.78-18.24,9.57-29.63,11.82c-11.39,2.25-23.37,3.08-35.26,3.9
				c0,0,6.72,27.53,6.72,29.27c0,1.74,50.53-5.92,66.21-13.24l4.53-2.79L675.86,930.84z"/>
		</g>
		<g>
			<g>
				<path class="st15" d="M675.86,930.84c0-0.02,0.08,0.14,0.23,0.46c0.17,0.38,0.39,0.85,0.66,1.44c0.61,1.36,1.47,3.26,2.56,5.67
					c2.26,5.07,5.47,12.31,9.45,21.25l0.13,0.28l-0.27,0.17c-1.4,0.87-2.94,1.83-4.52,2.81l-0.02,0.01l-0.02,0.01
					c-3.96,1.82-8.43,3.18-13.18,4.48c-4.76,1.29-9.84,2.47-15.16,3.58c-5.32,1.11-10.89,2.15-16.66,3.11
					c-5.77,0.93-11.72,1.87-17.88,2.38c-0.75,0.05-1.49,0.09-2.25,0.09c-0.4-0.02-0.74,0.01-1.26-0.14c-0.08-0.03-0.2-0.1-0.29-0.17
					c-0.08-0.08-0.16-0.22-0.18-0.35l-0.02-0.13l-0.03-0.24c-0.02-0.15-0.04-0.32-0.08-0.5c-0.25-1.42-0.58-2.84-0.88-4.25
					c-0.65-2.82-1.28-5.6-1.91-8.33c-1.3-5.46-2.56-10.75-3.76-15.8l-0.13-0.54l0.55-0.04c9.85-0.65,18.99-1.32,27.09-2.46
					c8.1-1.11,15.15-2.7,20.83-4.55c5.69-1.83,9.98-3.9,12.78-5.55c1.41-0.82,2.43-1.5,3.16-2c0.32-0.22,0.58-0.39,0.8-0.54
					C675.78,930.88,675.86,930.83,675.86,930.84c0,0.01-0.09,0.09-0.27,0.24c-0.2,0.17-0.44,0.37-0.74,0.61
					c-0.63,0.51-1.68,1.26-3.06,2.12c-2.77,1.74-7.06,3.91-12.75,5.83c-5.69,1.94-12.77,3.61-20.9,4.79
					c-8.13,1.2-17.29,1.92-27.14,2.61l0.42-0.58c1.22,5.05,2.49,10.33,3.81,15.8c0.63,2.74,1.27,5.52,1.93,8.34
					c0.31,1.42,0.63,2.83,0.9,4.29c0.04,0.17,0.07,0.37,0.09,0.58l0.04,0.31l0,0.04l0,0.02c-0.81,0-0.22,0-0.4,0l0.01,0
					c0.03-0.01,0.04-0.03,0.04-0.05c0.15-0.11,0.21-0.35,0.17-0.28c0.19,0.05,0.59,0.08,0.93,0.08c0.71,0,1.44-0.04,2.17-0.09
					c6.09-0.5,12.04-1.43,17.79-2.35c5.75-0.94,11.32-1.97,16.63-3.06c5.31-1.09,10.38-2.24,15.12-3.5
					c4.73-1.27,9.19-2.59,13.08-4.35l-0.04,0.02c1.59-0.97,3.13-1.91,4.54-2.77l-0.14,0.45c-3.78-8.92-6.83-16.13-8.97-21.18
					c-1.04-2.48-1.85-4.42-2.43-5.82c-0.26-0.63-0.47-1.14-0.63-1.54C675.92,931.05,675.85,930.86,675.86,930.84z"/>
			</g>
		</g>
	</g>
	<g>
		<g>
			<path class="st14" d="M402.01,930.84c7.35,5.78,18.24,9.57,29.63,11.82c11.39,2.25,23.37,3.08,35.26,3.9
				c0,0-6.72,27.53-6.72,29.27c0,1.74-50.53-5.92-66.21-13.24l-4.53-2.79L402.01,930.84z"/>
		</g>
		<g>
			<g>
				<path class="st15" d="M402.01,930.84c0,0.02-0.07,0.21-0.21,0.56c-0.16,0.4-0.37,0.91-0.63,1.54c-0.58,1.4-1.4,3.35-2.43,5.82
					c-2.14,5.06-5.2,12.27-8.97,21.18l-0.14-0.45c1.41,0.86,2.95,1.8,4.54,2.77l-0.04-0.02c3.89,1.75,8.35,3.07,13.08,4.35
					c4.75,1.26,9.81,2.41,15.12,3.5c5.31,1.09,10.87,2.11,16.63,3.06c5.75,0.92,11.71,1.85,17.79,2.35
					c0.73,0.05,1.46,0.09,2.17,0.09c0.34,0,0.74-0.03,0.93-0.08c0,0-0.04,0.01-0.05,0.04c-0.06,0.04-0.12,0.14-0.12,0.23
					c0,0.12,0.01,0,0.01,0l0.04-0.31c0.02-0.21,0.05-0.41,0.09-0.58c0.26-1.46,0.59-2.88,0.9-4.29c0.65-2.82,1.29-5.6,1.93-8.34
					c1.32-5.46,2.59-10.75,3.81-15.8l0.42,0.58c-9.85-0.69-19.01-1.41-27.14-2.61c-8.13-1.17-15.21-2.85-20.9-4.79
					c-5.7-1.92-9.99-4.09-12.75-5.83c-1.38-0.86-2.43-1.61-3.06-2.12c-0.29-0.24-0.53-0.44-0.74-0.61
					C402.1,930.94,402.01,930.86,402.01,930.84c0-0.01,0.08,0.04,0.26,0.16c0.22,0.15,0.48,0.33,0.8,0.54c0.73,0.5,1.75,1.18,3.16,2
					c2.8,1.64,7.09,3.71,12.78,5.55c5.68,1.85,12.73,3.44,20.83,4.55c8.1,1.14,17.24,1.81,27.09,2.46l0.55,0.04l-0.13,0.54
					c-1.2,5.05-2.46,10.34-3.76,15.8c-0.63,2.74-1.27,5.52-1.91,8.33c-0.31,1.41-0.63,2.83-0.88,4.25c-0.04,0.18-0.06,0.35-0.08,0.5
					l-0.03,0.24l-0.02,0.13c-0.02,0.13-0.1,0.27-0.18,0.35c-0.09,0.07-0.21,0.14-0.29,0.17c-0.52,0.15-0.86,0.12-1.26,0.14
					c-0.76,0-1.51-0.04-2.25-0.09c-6.16-0.51-12.11-1.45-17.88-2.38c-5.77-0.95-11.34-2-16.66-3.11c-5.32-1.11-10.4-2.29-15.16-3.58
					c-4.75-1.31-9.22-2.66-13.18-4.48l-0.02-0.01l-0.02-0.01c-1.58-0.98-3.11-1.93-4.52-2.81l-0.27-0.17l0.13-0.28
					c3.98-8.94,7.19-16.18,9.45-21.25c1.09-2.41,1.94-4.31,2.56-5.67c0.27-0.59,0.49-1.07,0.66-1.44
					C401.92,930.98,402,930.83,402.01,930.84z"/>
			</g>
		</g>
	</g>
	<g>
		<g>
			<path class="st15" d="M605.36,879.86c0.01,0.03-0.39,0.14-1.15,0.3c-0.86,0.18-1.96,0.4-3.32,0.68
				c-2.89,0.58-7.08,1.33-12.28,2.16c-10.4,1.68-24.84,3.55-40.87,4.74c-16.04,1.17-30.6,1.42-41.13,1.28
				c-5.26-0.07-9.52-0.19-12.46-0.35c-1.38-0.08-2.51-0.14-3.39-0.19c-0.77-0.05-1.18-0.1-1.18-0.13c0-0.03,0.41-0.06,1.18-0.07
				c0.88,0,2,0,3.39,0c2.94,0.04,7.2,0.05,12.46,0.03c10.52-0.04,25.05-0.4,41.05-1.57c16-1.18,30.43-2.94,40.83-4.44
				c5.21-0.75,9.41-1.38,12.32-1.85c1.37-0.2,2.48-0.37,3.35-0.5C604.95,879.87,605.36,879.83,605.36,879.86z"/>
		</g>
	</g>
	<g>
		<g>
			<path class="st15" d="M585.12,895.06c0,0.03-0.31,0.08-0.92,0.15c-0.72,0.06-1.59,0.14-2.64,0.23c-2.45,0.18-5.73,0.42-9.71,0.71
				c-8.2,0.6-19.52,1.52-32,2.81c-12.48,1.3-23.75,2.72-31.9,3.81c-3.96,0.53-7.22,0.97-9.65,1.29c-1.05,0.13-1.91,0.23-2.63,0.32
				c-0.6,0.06-0.92,0.08-0.93,0.05c-0.01-0.03,0.3-0.12,0.9-0.24c0.71-0.14,1.57-0.3,2.6-0.5c2.26-0.42,5.55-0.97,9.61-1.61
				c8.13-1.27,19.4-2.81,31.9-4.11c12.49-1.29,23.84-2.1,32.06-2.52c4.11-0.21,7.44-0.35,9.74-0.4c1.05-0.02,1.93-0.03,2.65-0.04
				C584.8,895.01,585.12,895.02,585.12,895.06z"/>
		</g>
	</g>
	<g class="st17">
		<g>
			<path class="st18" d="M733.15,823.19c-0.23,1.08-0.4,2.67,0.3,3.52c1.01,1.22,2.54,0.85,3.59-0.34c1.05-1.19,1.32-2.85,1.56-4.42
				c1.89-12.81,3.36-26.17,5.25-38.98c-3.37,7.55-5.04,15.97-7.14,24.21C735.3,812.72,734.32,817.68,733.15,823.19z"/>
		</g>
	</g>
	<g>
		<path class="st11" d="M553.38,869.92c0,3.26-2.64,5.9-5.9,5.9c-3.26,0-5.9-2.64-5.9-5.9c0-3.26,2.64-5.9,5.9-5.9
			C550.74,864.02,553.38,866.66,553.38,869.92z"/>
	</g>
	<g>
		<path class="st11" d="M555.2,918.97c0,3.26-2.64,5.9-5.9,5.9c-3.26,0-5.9-2.64-5.9-5.9c0-3.26,2.64-5.9,5.9-5.9
			C552.56,913.07,555.2,915.71,555.2,918.97z"/>
	</g>
	<g>
		<g>
			<g>
				<g class="st19">
					<path class="st10" d="M620.29,474.83c-0.29-0.05,22.41-2.28,22.41-2.28c-1.64-5.68,2-13.79,7.85-14.59
						c5.86-0.8,11.79,4.41,11.74,10.32c3.74-2.33,9.44-0.11,10.63,4.13c1.19,4.24-2.51,9.1-6.92,9.07
						c2.34,4.82,0.79,11.21-3.5,14.42c-4.29,3.22-10.85,2.91-14.82-0.69c-0.43,2.08-3.21,3.06-5.09,2.08
						c-1.88-0.99-2.73-3.35-2.43-5.45c0.31-2.1,1.56-3.95,3.03-5.48l-22.49-2.7"/>
				</g>
				<g>
					<g>
						<path class="st14" d="M620.71,483.64c0-0.03,0.54,0,1.56,0.09c1.11,0.11,2.59,0.26,4.47,0.44c3.98,0.44,9.58,1.06,16.51,1.82
							l0.68,0.08l-0.47,0.51c-0.91,0.98-1.78,2.09-2.35,3.4c-0.57,1.3-0.81,2.8-0.38,4.23c0.38,1.4,1.49,2.76,2.97,2.99
							c1.45,0.26,3.26-0.59,3.57-2.08l0.15-0.75l0.57,0.51c3.38,3.06,9.26,3.83,13.64,1.05c4.35-2.73,6.36-9.19,3.95-14.24
							l-0.34-0.71l0.79,0c1.58-0.01,3.27-0.72,4.49-1.98c1.19-1.18,1.97-2.76,2.13-4.38c0.16-1.62-0.4-3.25-1.5-4.41
							c-2.15-2.37-5.99-3.14-8.58-1.52l-0.73,0.46l0-0.87c-0.01-3.31-1.93-6.37-4.51-8.12c-2.55-1.78-5.89-2.39-8.51-1.24
							c-2.64,1.18-4.33,3.71-5.25,6.16c-0.95,2.49-1.09,5.13-0.51,7.38l0.11,0.4l-0.4,0.04c-6.88,0.62-12.47,1.12-16.44,1.48
							c-1.87,0.15-3.35,0.28-4.46,0.37c-1.02,0.08-1.55,0.09-1.55,0.09c-0.01-0.05,0.52-0.14,1.53-0.28
							c1.1-0.14,2.58-0.32,4.44-0.55c3.96-0.43,9.54-1.04,16.41-1.79l-0.3,0.44c-0.67-2.43-0.53-5.2,0.44-7.84
							c0.96-2.59,2.7-5.31,5.64-6.67c6.03-2.62,14.21,2.62,14.33,10.15l-0.73-0.41c3.08-1.89,7.34-1.03,9.81,1.67
							c1.27,1.33,1.95,3.29,1.76,5.16c-0.18,1.88-1.07,3.66-2.41,4.99c-1.37,1.43-3.32,2.27-5.19,2.27l0.45-0.71
							c2.62,5.56,0.45,12.45-4.33,15.47c-4.81,3.01-11.07,2.14-14.74-1.2l0.72-0.23c-0.22,1.02-0.96,1.84-1.81,2.28
							c-0.85,0.45-1.82,0.61-2.75,0.45c-1.93-0.33-3.17-1.99-3.6-3.59c-0.47-1.64-0.18-3.36,0.46-4.75
							c0.64-1.41,1.57-2.57,2.53-3.58l0.21,0.58c-6.91-0.9-12.5-1.62-16.47-2.13c-1.86-0.26-3.34-0.47-4.44-0.63
							C621.23,483.77,620.7,483.67,620.71,483.64z"/>
					</g>
				</g>
			</g>
			<g>
				<g>
					<path class="st14" d="M629.37,491.77c-0.06,0.27-2.39-0.06-5.2-0.73c-2.81-0.67-5.03-1.43-4.97-1.69
						c0.06-0.27,2.39,0.06,5.2,0.73C627.21,490.75,629.43,491.51,629.37,491.77z"/>
				</g>
			</g>
			<g>
				<g>
					<path class="st14" d="M639.1,481.19c0,0.27-3.41,0.5-7.61,0.5c-4.21,0-7.61-0.22-7.61-0.5c0-0.27,3.41-0.5,7.61-0.5
						C635.69,480.69,639.1,480.91,639.1,481.19z"/>
				</g>
			</g>
			<g>
				<g>
					<path class="st14" d="M630.48,468.18c0.07,0.27-2.71,1.19-6.2,2.06c-3.49,0.87-6.37,1.36-6.44,1.1
						c-0.07-0.27,2.71-1.19,6.2-2.06C627.53,468.4,630.42,467.91,630.48,468.18z"/>
				</g>
			</g>
		</g>
		<g>
			<g>
				<path class="st12" d="M526.88,352.96l-3.81,0.12c-38.3,1.17-69.3,31.55-71.21,69.82c-1.78,35.61-3.29,74.98-2.47,94.03
					c1.69,39.44,41.34,44.37,41.34,44.37c0.09,0-0.45,17.16-0.45,17.16l40.73,35.08l45.61-41.36l11.1-141.43
					C590,389.67,568,354.11,526.88,352.96z"/>
			</g>
			<g>
				<g>
					<g>
						<g>
							<g>
								<g>
									<g>
										<g>
											<g>
												<g>
													<path class="st13" d="M490.73,561.29c0,0,24.91,0.7,50.9-16.76c0,0-11.45,30.04-50.93,27.69L490.73,561.29z"/>
												</g>
											</g>
										</g>
									</g>
								</g>
							</g>
						</g>
					</g>
				</g>
			</g>
			<g>
				<g>
					<g>
						<g>
							<g>
								<g>
									<g>
										<g>
											<g>
												<g>
													<g>
														<g>
															<g>
																<g>
																	<g>
																		<g>
																			<path class="st20" d="M499.93,486.91c0.02-0.35-3.77-0.88-9.9-1.48c-1.55-0.11-3.03-0.37-3.32-1.42
																				c-0.4-1.11,0.2-2.8,0.89-4.62c1.34-3.79,2.74-7.77,4.22-11.93c5.85-16.98,10.03-30.92,9.34-31.15
																				c-0.69-0.23-5.98,13.35-11.82,30.32c-1.4,4.19-2.75,8.18-4.02,11.99c-0.53,1.78-1.48,3.8-0.62,6.1
																				c0.45,1.14,1.62,1.95,2.61,2.19c1,0.27,1.87,0.26,2.64,0.29C496.11,487.34,499.92,487.25,499.93,486.91z"/>
																		</g>
																	</g>
																</g>
															</g>
														</g>
													</g>
												</g>
											</g>
										</g>
									</g>
								</g>
							</g>
						</g>
					</g>
				</g>
			</g>
			<g>
				<g>
					<g>
						<g>
							<g>
								<g>
									<g>
										<g>
											<path class="st12" d="M585.39,460.05c0.66-0.31,26.86-8.85,26.83,18.15c-0.04,27-30.33,21.25-30.37,20.47
												C581.8,497.9,585.39,460.05,585.39,460.05z"/>
										</g>
									</g>
								</g>
							</g>
						</g>
					</g>
				</g>
			</g>
			<g>
				<g>
					<g>
						<g>
							<g>
								<g>
									<g>
										<g>
											<g>
												<path class="st13" d="M593.3,488.6c0.12-0.09,0.47,0.33,1.26,0.7c0.77,0.36,2.11,0.6,3.51,0.08
													c2.85-1.04,5.26-5.57,5.4-10.43c0.07-2.46-0.44-4.8-1.31-6.73c-0.82-1.98-2.1-3.36-3.53-3.62
													c-1.43-0.33-2.45,0.53-2.78,1.29c-0.36,0.75-0.19,1.29-0.34,1.34c-0.08,0.07-0.58-0.45-0.36-1.57
													c0.11-0.54,0.43-1.17,1.06-1.69c0.65-0.53,1.6-0.79,2.6-0.68c2.08,0.15,3.95,2.06,4.91,4.19
													c1.07,2.14,1.7,4.77,1.62,7.53c-0.18,5.44-2.97,10.53-6.88,11.65c-1.9,0.49-3.48-0.08-4.3-0.72
													C593.35,489.25,593.2,488.65,593.3,488.6z"/>
											</g>
										</g>
									</g>
								</g>
							</g>
						</g>
					</g>
				</g>
			</g>
			<g>
				<g>
					<g>
						<g>
							<g>
								<g>
									<g>
										<g>
											<g>
												<g>
													<g>
														<g>
															<g>
																<path class="st20" d="M472.81,458.37c-0.02,3.05,2.52,5.57,5.66,5.64c3.13,0.07,5.69-2.33,5.71-5.38
																	c0.02-3.05-2.52-5.57-5.65-5.65C475.38,452.91,472.82,455.32,472.81,458.37z"/>
															</g>
														</g>
													</g>
												</g>
											</g>
										</g>
									</g>
								</g>
							</g>
						</g>
					</g>
				</g>
			</g>
			<g>
				<g>
					<g>
						<g>
							<g>
								<g>
									<g>
										<g>
											<g>
												<g>
													<g>
														<g>
															<g>
																<g>
																	<path class="st20" d="M463.41,440.05c0.73,0.73,4.94-2.64,11.06-2.81c6.11-0.26,10.7,2.79,11.34,2.01
																		c0.32-0.35-0.44-1.68-2.44-3.06c-1.97-1.38-5.29-2.67-9.11-2.54c-3.81,0.14-6.98,1.66-8.78,3.18
																		C463.65,438.35,463.05,439.72,463.41,440.05z"/>
																</g>
															</g>
														</g>
													</g>
												</g>
											</g>
										</g>
									</g>
								</g>
							</g>
						</g>
					</g>
				</g>
			</g>
			<g>
				<g>
					<g>
						<g>
							<g>
								<g>
									<g>
										<g>
											<g>
												<g>
													<g>
														<g>
															<g>
																<path class="st20" d="M527.48,457.97c-0.01,3.05,2.52,5.57,5.66,5.64c3.13,0.07,5.69-2.33,5.71-5.38
																	c0.01-3.05-2.52-5.57-5.65-5.65C530.05,452.52,527.5,454.93,527.48,457.97z"/>
															</g>
														</g>
													</g>
												</g>
											</g>
										</g>
									</g>
								</g>
							</g>
						</g>
					</g>
				</g>
			</g>
			<g>
				<g>
					<g>
						<g>
							<g>
								<g>
									<g>
										<g>
											<g>
												<g>
													<g>
														<g>
															<g>
																<g>
																	<path class="st20" d="M523.46,439.62c0.73,0.73,4.95-2.63,11.06-2.81c6.11-0.26,10.7,2.79,11.34,2.01
																		c0.31-0.35-0.44-1.68-2.44-3.06c-1.97-1.38-5.29-2.67-9.11-2.54c-3.81,0.14-6.98,1.66-8.78,3.17
																		C523.7,437.92,523.1,439.3,523.46,439.62z"/>
																</g>
															</g>
														</g>
													</g>
												</g>
											</g>
										</g>
									</g>
								</g>
							</g>
						</g>
					</g>
				</g>
			</g>
			<g>
				<g>
					<g>
						<g>
							<g>
								<g>
									<g>
										<g>
											<g>
												<path class="st20" d="M521.29,434.59c1.2,1.33,6.54-1.78,13.5-3.74c6.93-2.11,13.09-2.38,13.39-4.14
													c0.12-0.83-1.42-1.91-4.21-2.51c-2.76-0.61-6.77-0.61-10.94,0.61c-4.16,1.22-7.54,3.39-9.55,5.4
													C521.46,432.21,520.74,433.95,521.29,434.59z"/>
											</g>
										</g>
									</g>
								</g>
							</g>
						</g>
					</g>
				</g>
			</g>
			<g>
				<g>
					<g>
						<g>
							<g>
								<g>
									<g>
										<g>
											<g>
												<path class="st20" d="M467.42,425.66c0.56,1.81,5.7,2.58,11.17,5.04c5.54,2.29,9.65,5.51,11.33,4.67
													c0.76-0.43,0.63-2.05-0.82-4.19c-1.42-2.12-4.29-4.65-8.07-6.28c-3.79-1.63-7.56-1.97-10.06-1.54
													C468.44,423.78,467.2,424.81,467.42,425.66z"/>
											</g>
										</g>
									</g>
								</g>
							</g>
						</g>
					</g>
				</g>
			</g>
			<g>
				<g>
					<g class="st19">
						<path class="st10" d="M440.87,470.79c-0.56,0-23.89-3.39-23.18-3.39c3.1-2.06,3.76-4.15,2.51-7.47
							c-1.29-3.44-4.37-4.64-8.02-5.1c-3.45-0.44-7.12-0.47-10.19,1.15c-3.07,1.62-5.26,5.34-4.15,8.63
							c-5.2-3.08-12.93-0.01-14.61,5.8s3.22,12.53,9.26,12.7c-4.38,2.2-6.4,7.97-4.75,12.59c1.65,4.62,6.49,7.75,11.4,7.82
							c4.9,0.07,9.64-2.68,12.43-6.71c-0.17,3.45,4.02,5.99,7.31,4.93c3.29-1.06,5.25-4.68,5.28-8.13c0.03-3.45-1.5-6.73-3.34-9.65
							l20.05-1.97"/>
					</g>
					<g>
						<g>
							<path class="st14" d="M440.87,481.98c0,0.03-0.46,0.1-1.35,0.22c-0.96,0.11-2.27,0.27-3.92,0.46
								c-3.51,0.38-8.5,0.92-14.75,1.59l0.23-0.46c1.1,1.74,2.19,3.71,2.87,6c0.68,2.26,0.88,4.96-0.14,7.48
								c-0.93,2.44-3.15,4.94-6.29,5.12c-1.51,0.05-3.05-0.45-4.29-1.4c-1.23-0.94-2.18-2.49-2.1-4.2l0.79,0.27
								c-1.9,2.73-4.71,5.02-8.12,6.18c-3.38,1.19-7.44,1-10.79-0.88c-3.33-1.78-6.12-5.27-6.31-9.39
								c-0.23-3.99,1.74-8.33,5.57-10.3l0.21,0.94c-0.63-0.05-1.32-0.11-1.98-0.3c-3.07-0.8-5.54-3.07-6.9-5.76
								c-1.39-2.69-1.61-6.04-0.25-8.74c2.75-5.4,9.89-7.42,14.73-4.6l-0.68,0.55c-0.68-2.04-0.16-4.23,0.88-5.89
								c1.05-1.68,2.63-2.98,4.39-3.68c3.55-1.43,7.24-1.11,10.53-0.61c1.66,0.29,3.31,0.79,4.68,1.74
								c1.38,0.94,2.34,2.38,2.79,3.85c0.5,1.42,0.72,3.07,0.08,4.48c-0.63,1.4-1.8,2.29-2.88,3.03l-0.17,0.05
								c0.71-0.38-0.04-0.7,0.09-0.62l0.03,0.01l0.08,0.02l0.16,0.03l0.33,0.06l0.67,0.11c0.44,0.07,0.88,0.14,1.31,0.21
								c0.86,0.14,1.7,0.27,2.52,0.4c1.63,0.25,3.16,0.49,4.59,0.71c2.83,0.44,5.27,0.82,7.28,1.13c1.93,0.31,3.44,0.55,4.55,0.72
								c0.47,0.08,0.86,0.15,1.17,0.2c0.26,0.05,0.39,0.07,0.39,0.09c0,0.04-0.55,0-1.59-0.11c-1.11-0.14-2.64-0.32-4.57-0.56
								c-2.02-0.27-4.46-0.6-7.31-0.98c-1.44-0.2-2.97-0.42-4.6-0.64c-0.82-0.12-1.66-0.24-2.52-0.36c-0.43-0.06-0.87-0.13-1.32-0.2
								l-0.67-0.1l-0.34-0.06l-0.17-0.03l-0.09-0.02l-0.06-0.01c0.11,0.08-0.7-0.26,0.07-0.64l-0.17,0.05
								c1.03-0.72,2.09-1.57,2.6-2.77c0.52-1.19,0.34-2.62-0.14-3.97c-0.44-1.37-1.29-2.61-2.54-3.45
								c-1.24-0.85-2.78-1.31-4.38-1.58c-3.21-0.47-6.8-0.73-10.05,0.62c-1.61,0.66-3.01,1.83-3.96,3.35
								c-0.93,1.51-1.35,3.41-0.77,5.12l0.4,1.19l-1.08-0.64c-4.3-2.54-10.97-0.64-13.39,4.23c-2.5,4.88,1.01,11.69,6.52,13.11
								c0.59,0.17,1.2,0.22,1.76,0.27l1.74,0.16l-1.53,0.78c-3.4,1.73-5.25,5.71-5.03,9.36c0.17,3.72,2.69,6.94,5.79,8.61
								c3.12,1.75,6.85,1.95,10.04,0.85c3.21-1.08,5.89-3.23,7.7-5.8l0.87-1.24l-0.08,1.51c-0.07,1.37,0.68,2.65,1.75,3.49
								c1.07,0.84,2.43,1.29,3.73,1.25c2.67-0.11,4.74-2.31,5.62-4.58c0.96-2.32,0.81-4.83,0.18-7.01c-0.63-2.2-1.67-4.13-2.73-5.86
								l-0.26-0.42l0.48-0.04c6.26-0.56,11.26-1,14.78-1.31c1.66-0.13,2.97-0.23,3.94-0.31
								C440.41,481.97,440.87,481.95,440.87,481.98z"/>
						</g>
					</g>
				</g>
				<g>
					<g>
						<path class="st14" d="M437.64,473.81c0,0.27-3.59,0.5-8.01,0.5c-4.43,0-8.01-0.22-8.01-0.5c0-0.27,3.59-0.5,8.01-0.5
							C434.05,473.31,437.64,473.53,437.64,473.81z"/>
					</g>
				</g>
				<g>
					<g>
						<path class="st14" d="M439.09,466.3c-0.06,0.27-2.63-0.05-5.74-0.72c-3.11-0.66-5.59-1.42-5.53-1.69
							c0.06-0.27,2.63,0.05,5.74,0.72C436.67,465.28,439.14,466.04,439.09,466.3z"/>
					</g>
				</g>
				<g>
					<g>
						<path class="st14" d="M441.87,487.32c0.13,0.24-2.09,1.7-4.96,3.26c-2.87,1.56-5.3,2.63-5.43,2.39
							c-0.13-0.24,2.09-1.7,4.96-3.26C439.31,488.15,441.74,487.08,441.87,487.32z"/>
					</g>
				</g>
			</g>
			<g>
				<g>
					<path class="st21" d="M509.5,512.86c4.44,1.96,8.33-1.9,11.71-2.66c2.37-0.53,7.86-0.55,9.29-2.37
						c2.62-3.33,3.84-5.71,2.71-9.63c-0.65-2.28-2.95-4.39-4.72-6.08c-2.93-2.79-10.82-2.68-14.68-0.99
						c-1.71,0.75-3.23,1.27-4.65,2.42c-2.68,2.19-4.66,5.18-5.33,8.57C503.08,505.79,503.67,510.29,509.5,512.86z"/>
				</g>
				<g>
					<g>
						<path class="st22" d="M505.65,497.5c-0.03-0.01,0.04-0.22,0.21-0.6c0.18-0.37,0.48-0.9,0.97-1.52
							c0.96-1.24,2.74-2.76,5.29-3.94c2.52-1.17,5.82-2.21,9.59-2.01c3.72,0.15,7.94,1.95,10.49,5.59c1.27,1.79,1.96,3.97,1.89,6.06
							c-0.05,2.08-0.73,4.06-1.86,5.62c-1.11,1.58-2.76,2.63-4.37,3.1c-1.62,0.5-3.16,0.59-4.53,0.71
							c-2.75,0.15-4.91,0.58-6.26,1.29c-1.35,0.68-1.87,1.4-1.94,1.33c-0.02-0.02,0.08-0.21,0.35-0.52c0.27-0.31,0.72-0.74,1.4-1.14
							c1.35-0.86,3.63-1.42,6.38-1.65c1.36-0.16,2.86-0.3,4.35-0.79c1.48-0.48,2.89-1.41,3.88-2.85c2.02-2.81,2.34-7.28-0.1-10.57
							c-2.34-3.33-6.22-5.05-9.73-5.24c-3.55-0.25-6.76,0.67-9.24,1.73c-2.5,1.07-4.27,2.44-5.28,3.56
							C506.09,496.76,505.73,497.55,505.65,497.5z"/>
					</g>
				</g>
			</g>
			<g>
				<g>
					<path class="st21" d="M461.65,418.19c24.94-0.07,32.78,8.42,44.38,8.34c8.45-0.05,15.8-5.64,24-7.71
						c5.82-1.47,12.22-1.22,17.39-4.27c3.54-2.09,6.11-5.56,7.78-9.32c1.67-3.76,2.53-7.82,3.3-11.86c0.41-2.16,0.78-4.49-0.17-6.48
						c-0.96-2.01-3.05-3.19-5.01-4.24c-5.42-2.91-10.89-5.83-16.79-7.54c-5.91-1.7-12.37-2.11-18.13,0.03
						c-7.04,2.61-12.2,8.62-16.8,14.56c-4.6,5.94-9.17,12.24-15.72,15.91c-3.91,2.19-8.32,3.32-12.47,5.02
						c-0.82,0.34-9.5,2.83-14.15,3.45C459.25,414.08,458.17,418.19,461.65,418.19z"/>
				</g>
			</g>
			<g>
				<g>
					<path class="st20" d="M435.82,410.64c16.9,2.79,34.28,1.72,47.91-8.64c3.92-2.98,7.58-6.4,10.94-10.12
						c6.07-6.73,10.84-15.16,18.96-19.19c10.47-5.19,22.96-1.42,34,2.4l-0.47-0.42c5.75,2.65,10.98,6.42,15.31,11.03
						c-2.93,25.99,0.85,52.73,11.07,76.83c0.84,1.98,2.39,3.63,4.38,4.44c6.29,2.57,4.43-5.84,9.14-7.41
						c3.62-1.2,5.36-0.42,12.52-0.55c2.56-6.76,4.22-25.22,6.44-35.19c5.98-6.19,11.58-17.74,11.89-26.81
						c0.31-9.07-4.6-20.67-4.6-20.67c-6.71-13.06-10.6-19.74-21.06-23.46l-0.24,0.1c-9.39-3.77-20.96-3.82-28.66,2.71
						c-1.92-14.08-14.27-25.22-28.02-28.82c-13.75-3.6-35.79-1.43-48.97,3.88c-8.99,3.62-17.72,10.61-27.87,20.69l0-0.01
						c0,0-0.01,0.01-0.01,0.01c-1.35,1.34-2.72,2.72-4.12,4.17c-0.12,0.12-0.22,0.26-0.34,0.38c-2.93,1.83-6.54,2.66-10.26,3.04
						c-6,0.61-9.71-1.32-13.74-5.81c-1.22-1.37-2.76-3.09-4.51-2.55c-1.11,0.34-1.74,1.49-2.12,2.58
						c-1.99,5.83,0.52,12.5,4.89,16.85c2.11,2.11,4.6,3.75,7.27,5.09c0,0-4.05,4.9-10.94,5.94c-3.7,0.56-7.06,2.66-9.18,5.74
						c-1.04,1.5-1.78,3.27-1.81,5.25C413.51,403.51,424.81,408.82,435.82,410.64z"/>
				</g>
				<g>
					<g>
						<g>
							<g>
								<g>
									<g>
										<path class="st23" d="M428.71,398.74c-0.01,0.01,0.1,0.1,0.32,0.27c0.27,0.19,0.59,0.43,0.99,0.72
											c0.43,0.32,0.98,0.7,1.67,1.07c0.68,0.39,1.46,0.87,2.4,1.26c3.67,1.74,9.56,3.47,16.91,3.03
											c7.29-0.42,16.03-3,23.84-8.82c7.89-5.68,14.81-14.05,20.47-23.63c2.87-4.79,5.21-9.69,7.79-14.22
											c2.56-4.53,5.39-8.73,8.82-12.03c3.39-3.33,7.32-5.79,11.38-6.92c2.02-0.6,4.06-0.74,6-0.7c1.95,0.1,3.8,0.5,5.5,1.05
											c3.41,1.14,6.16,3.02,8.24,4.96c2.09,1.95,3.5,4.01,4.46,5.78c1.8,3.63,1.9,5.96,2.04,5.92c0.02,0,0.01-0.14-0.03-0.41
											c-0.05-0.33-0.11-0.72-0.19-1.21c-0.19-1.06-0.65-2.59-1.5-4.46c-0.93-1.83-2.32-3.96-4.43-5.99
											c-2.1-2.01-4.89-3.98-8.38-5.2c-1.75-0.59-3.65-1.02-5.67-1.15c-2.01-0.07-4.15,0.06-6.24,0.67
											c-4.21,1.14-8.29,3.66-11.77,7.05c-3.53,3.37-6.42,7.64-9.02,12.2c-2.61,4.56-4.95,9.46-7.8,14.2
											c-5.62,9.51-12.44,17.78-20.18,23.41c-7.66,5.77-16.2,8.36-23.38,8.86c-7.24,0.51-13.05-1.09-16.72-2.71
											C430.54,400.09,428.78,398.63,428.71,398.74z"/>
									</g>
								</g>
							</g>
						</g>
					</g>
				</g>
				<g>
					<g>
						<g>
							<g>
								<g>
									<g>
										<path class="st23" d="M430.81,391.38c-0.03,0.06,0.5,0.37,1.49,0.88c0.98,0.53,2.46,1.17,4.34,1.82
											c1.88,0.67,4.18,1.25,6.79,1.69c2.61,0.39,5.51,0.61,8.56,0.5c3.04-0.14,5.92-0.6,8.49-1.21
											c2.56-0.65,4.81-1.42,6.62-2.24c1.82-0.81,3.25-1.56,4.17-2.17c0.94-0.59,1.44-0.94,1.41-1
											c-0.09-0.15-2.18,1.13-5.83,2.56c-1.82,0.73-4.05,1.43-6.57,2.02c-2.53,0.55-5.35,0.97-8.33,1.11
											c-2.98,0.11-5.83-0.08-8.39-0.42c-2.56-0.38-4.84-0.89-6.71-1.47C433.08,392.32,430.89,391.22,430.81,391.38z"/>
									</g>
								</g>
							</g>
						</g>
					</g>
				</g>
				<g>
					<path class="st23" d="M575.92,403.55c-0.1-0.01-0.28,0.89-0.4,2.54c-0.12,1.65-0.17,4.06,0.06,7.06
						c0.18,1.53,0.17,3.07,0.77,4.99c0.28,0.93,1.33,2.09,2.68,2.01c1.29-0.07,2.21-0.79,3.02-1.45c3.02-2.73,6.29-5.7,9.74-8.83
						l-1.41-0.84c-0.47,1.86-0.96,3.8-1.46,5.78c-1.33,5.43-2.6,10.59-3.76,15.32l-0.63,2.57l1.93-1.79
						c5.13-4.75,8.67-9.55,10.85-13.07c2.18-3.54,3.1-5.79,2.96-5.86c-0.4-0.29-4.66,8.61-14.88,17.76l1.3,0.78
						c1.2-4.72,2.52-9.87,3.9-15.28c0.49-1.98,0.97-3.93,1.44-5.79l0.7-2.81l-2.11,1.97c-3.4,3.18-6.61,6.18-9.58,8.95
						c-0.68,0.62-1.45,1.13-2.07,1.16c-0.61,0.04-1.1-0.37-1.39-1.07c-0.51-1.43-0.66-3.2-0.89-4.61
						C575.97,407.17,576.17,403.56,575.92,403.55z"/>
				</g>
				<g>
					<g>
						<path class="st10" d="M577.01,381.37c0.09,0.03-0.11,0.54,0.11,1.44c0.22,0.9,0.9,2.07,1.87,3.48
							c0.47,0.72,1.02,1.5,1.47,2.46c0.42,1,0.67,2.08,0.74,3.28c0.06,1.18-0.07,2.52-0.86,3.7c-0.77,1.19-2.34,1.87-3.8,1.63
							c-1.45-0.18-2.73-1.06-3.5-2.14c-0.79-1.08-1.2-2.31-1.41-3.46c-0.42-2.33-0.11-4.48,0.44-6.15c0.56-1.68,1.34-2.89,1.94-3.65
							c0.62-0.76,1.05-1.09,1.09-1.05c0.16,0.11-1.44,1.66-2.36,4.91c-0.44,1.6-0.66,3.63-0.22,5.77c0.38,2.08,1.71,4.49,4.15,4.79
							c1.15,0.18,2.27-0.31,2.87-1.2c0.62-0.88,0.79-2.04,0.75-3.1c-0.04-1.07-0.26-2.12-0.59-3c-0.37-0.88-0.87-1.68-1.3-2.41
							c-0.89-1.46-1.54-2.78-1.66-3.79C576.63,381.85,576.98,381.34,577.01,381.37z"/>
					</g>
				</g>
				<g>
					<g>
						<path class="st10" d="M583.4,374.79c0.08,0.03-0.02,0.36,0.14,0.91c0.16,0.56,0.6,1.29,1.24,2.19
							c0.31,0.46,0.67,0.96,0.97,1.6c0.28,0.67,0.45,1.37,0.51,2.16c0.05,0.78-0.04,1.68-0.58,2.49c-0.53,0.82-1.62,1.29-2.61,1.12
							c-0.99-0.12-1.86-0.72-2.37-1.45c-0.53-0.73-0.79-1.54-0.93-2.31c-0.27-1.54-0.05-2.95,0.33-4.03c0.79-2.2,2.02-3.08,2.07-3
							c0.14,0.1-0.85,1.13-1.4,3.2c-0.26,1.02-0.39,2.31-0.1,3.66c0.26,1.32,1.08,2.77,2.54,2.95c0.69,0.11,1.33-0.18,1.69-0.7
							c0.37-0.52,0.48-1.23,0.46-1.9c-0.02-0.66-0.15-1.34-0.35-1.88c-0.23-0.55-0.54-1.07-0.81-1.55c-0.56-0.95-0.97-1.82-1.03-2.5
							C583.1,375.09,583.35,374.76,583.4,374.79z"/>
					</g>
				</g>
			</g>
			<g>
				<g>
					<path class="st21" d="M478.02,468.17c-3.04-1.78-6.3-2.86-9.81-3.04c-3.52-0.17-7.41,1.9-8.04,5.36
						c-0.43,2.35,0.77,4.8,2.59,6.34c1.83,1.54,4.2,2.3,6.56,2.69c2.39,0.39,4.9,0.43,7.17-0.43c2.26-0.86,4.23-2.75,4.72-5.12
						C481.67,471.6,480.34,468.85,478.02,468.17z"/>
				</g>
			</g>
			<g>
				<g>
					<path class="st21" d="M524.43,471.08c5.12-1.78,10.6-2.86,16.52-3.04c5.92-0.17,12.48,1.9,13.54,5.36
						c0.72,2.35-1.29,4.8-4.37,6.34c-3.08,1.54-7.07,2.3-11.04,2.69c-4.02,0.39-8.26,0.43-12.06-0.43
						c-3.81-0.86-7.13-2.75-7.94-5.12C518.27,474.51,520.52,471.76,524.43,471.08z"/>
				</g>
			</g>
			<g>
				<g>
					<path class="st22" d="M516.31,432.53c0,0.11-0.83,0.24-2.03-0.29c-1.17-0.5-2.67-1.83-3.11-3.86
						c-0.42-2.04,0.42-3.86,1.29-4.79c0.88-0.97,1.69-1.19,1.73-1.09c0.08,0.13-0.55,0.56-1.18,1.52c-0.63,0.93-1.21,2.5-0.87,4.16
						c0.36,1.65,1.53,2.85,2.48,3.45C515.58,432.24,516.33,432.38,516.31,432.53z"/>
				</g>
			</g>
			<g>
				<g>
					<path class="st22" d="M501.87,425.91c0.12-0.01,0.33,0.53,0.33,1.45c0,0.92-0.27,2.2-0.99,3.43c-0.72,1.22-1.71,2.09-2.51,2.53
						c-0.8,0.45-1.38,0.53-1.42,0.42c-0.13-0.26,1.82-1.24,3.08-3.45C501.67,428.1,501.58,425.92,501.87,425.91z"/>
				</g>
			</g>
		</g>
	</g>
</g>
<g>
	<polygon class="st24" points="354.02,252.59 373.63,234.15 414.56,269.62 395.42,284.48 426.9,296.75 373.18,289.29 393.15,270.74 
			"/>
</g>
<g>
	<polygon class="st24" points="343.68,365.56 350.65,350.05 381.76,362.2 374.15,375.3 395.99,377.6 362.15,382.43 369.31,366.78 	
		"/>
</g>
<g>
	<polygon class="st24" points="461.27,224.29 471.74,222.26 476.74,242.61 467.28,243.44 473.98,255.47 459.28,239.85 
		469.89,237.88 	"/>
</g>
<g>
	<polygon class="st24" points="630.72,239.47 638.9,246.32 626.28,263.04 619.66,256.23 614.57,269.03 617.39,247.77 625.63,254.75 
			"/>
</g>
<g>
	<polygon class="st4" points="559.77,199.21 572.15,203.45 565.04,228.16 554.46,223.26 554.25,240.17 548.14,214.57 560.65,218.95 
			"/>
</g>
<g>
	<polygon class="st24" points="703.04,407.35 702.64,417.65 682.39,417.88 683.69,408.79 670.89,412.46 688.82,402.06 
		688.35,412.48 	"/>
</g>
<path class="st14" d="M406.86,329.88l0.07,0.15l-0.05,0.18c0,0,0,0,0,0c-0.06,0.18-0.13,0.29-0.42,0.29c-0.35,0-1.03-0.17-2.42-0.6
	c-1.49-0.46-3.44-1.13-5.5-1.89c-8.06-2.96-7.92-3.34-7.79-3.71c0.14-0.39,0.31-0.47,2.84,0.31c1.49,0.46,3.44,1.13,5.5,1.89
	C401.88,327.52,406.6,329.32,406.86,329.88z M450.1,272.33c-1.25-1.05-2.97-2.49-4.78-4.15c-1.82-1.65-3.41-3.23-4.57-4.38
	c-2.12-2.1-2.25-2.23-2.61-1.92l-0.15,0.13l-0.01,0.18c-0.02,0.63,3.01,4.23,6.25,7.18c3.19,2.92,6.98,5.57,7.7,5.57
	c0.01,0,0.02,0,0.03,0l0.2-0.03l0.1-0.15C452.52,274.36,452.38,274.24,450.1,272.33z M515.98,244.11c-0.16-2.04-0.29-3.95-0.4-5.58
	c-0.39-5.67-0.37-5.66-0.92-5.67h0c-0.4,0.01-0.58,0.01-0.6,3.61c-0.01,1.33,0.03,4.11,0.31,7.77c0.29,3.67,0.68,6.42,0.9,7.73
	c0.5,3.13,0.71,3.48,1.02,3.48c0.04,0,0.09-0.01,0.14-0.01c0.51-0.07,0.52-0.08,0.03-5.73C516.3,248.06,516.13,246.15,515.98,244.11
	z M585.03,246.44l-0.15-0.07c-0.35-0.19-0.72-0.37-4.78,7.52c-4.07,7.89-3.7,8.07-3.35,8.26c0.05,0.03,0.11,0.05,0.17,0.05
	c0.37,0,1.16-0.87,4.61-7.57c1.41-2.74,3.75-7.42,3.56-8.01L585.03,246.44z M636.97,285.9l0.04-0.18l-0.19-0.29l-0.16-0.04
	c-0.64-0.15-4.69,2.2-7.07,3.62c-2.3,1.37-4.42,2.71-5.54,3.53l-0.36,0.17l0.04,0.06l0,0l0.61,1.04l0.32-0.23
	c1.24-0.59,3.44-1.81,5.75-3.19C632.79,288.97,636.81,286.5,636.97,285.9z M650.87,353.81l-0.11-0.12
	c-0.43-0.45-5.17-0.61-7.95-0.67c-2.06-0.04-4-0.04-5.47,0.01c-2.37,0.08-2.63,0.2-2.64,0.63c-0.01,0.4-0.02,0.81,8.08,0.97
	c0.97,0.02,1.91,0.03,2.79,0.03c0.99,0,1.9-0.01,2.67-0.04c2.37-0.08,2.63-0.2,2.64-0.63L650.87,353.81z"/>
<circle class="st25" cx="540" cy="540" r="540"/>
<g>
</g>
<g>
</g>
<g>
</g>
<g>
</g>
<g>
</g>
<g>
</g>
</svg>
