<?xml version="1.0" encoding="utf-8"?>
<!-- Generator: Adobe Illustrator 24.0.1, SVG Export Plug-In . SVG Version: 6.00 Build 0)  -->
<svg version="1.1" id="圖層_1" xmlns="http://www.w3.org/2000/svg" xmlns:xlink="http://www.w3.org/1999/xlink" x="0px" y="0px"
	 viewBox="0 0 1080 1080" style="enable-background:new 0 0 1080 1080;" xml:space="preserve">
<style type="text/css">
	.st0{fill:#ACADAD;}
	.st1{fill:#8E8E8E;}
	.st2{fill:#CFCFD1;}
	.st3{fill:#A9AAAA;}
	.st4{fill:#929393;}
	.st5{fill:#FFFFFF;}
	.st6{fill:#F19065;}
	.st7{fill:#989593;}
	.st8{fill:#C4C5D1;}
	.st9{fill:#E7D5CD;}
	.st10{fill:#C8E6F0;}
	.st11{fill:#D6D1D6;}
	.st12{clip-path:url(#SVGID_2_);}
	.st13{fill:#343230;}
	.st14{fill:#444342;}
	.st15{fill:#585655;}
	.st16{fill:#332418;}
	.st17{fill:#B7B4B2;}
	.st18{fill:#6D6B6A;}
	.st19{fill:#F9DACE;}
	.st20{fill:#E1C0B5;}
	.st21{fill:#F19999;}
	.st22{fill:#A197A2;}
	.st23{fill:#C4BDC4;}
	.st24{opacity:0.46;}
</style>
<g>
	<g>
		<path class="st0" d="M695.95,236.14c-6.66-5.35-14.48-9.36-20.68-15.19c-12.67-11.91-16.5-28.91-20.13-45.89
			c20.65-8.01,34.8-25.03,34.48-44.52c-0.44-26.72-40.39-56.33-72.26-46.15c-5.12,1.64-12.24,1.25-19.47,2
			c-21.51-6.68-46.22,0.01-60.52,20.37c-4.28,6.1-7.32,12.37-7.96,18.39c-0.41,3.79-0.52,7.86-2.83,10.96
			c-1.72,2.3-4.41,3.73-7,5.09c-15.96,8.41-32.15,17.83-42.22,32.31c-10.07,14.48-12.23,35.38-0.29,48.62
			c1.76,1.95,3.9,3.98,3.89,6.54c-0.01,2.48-2.06,4.45-3.76,6.31c-9.2,10.05-11.57,24.74-8.2,37.72
			c3.37,12.98,11.89,24.36,22.13,33.54c15.68,14.06,35.78,23.59,56.98,27.02c12.5,2.02,26.49,1.6,36.24-6.05
			c9-7.06,12.4-18.73,13.48-29.8c1.83-18.78,32.43-18.37,35.83,14.21c0.62,5.92,1.99,12.67,7.41,15.65
			c5.8,3.19,13.19,0.33,18.51-3.49c5.32-3.82,10.19-8.75,16.71-10.15c10.1-2.17,21.9,4.68,30.48-0.82c3.19-2.04,5.12-5.42,6.6-8.8
			C723.39,281.07,715.99,252.23,695.95,236.14z"/>
		<g>
			<g>
				<path class="st1" d="M635.19,294.63c0,0-102.31,2.51-102.32,2.51c-17.23,0.42-32.97,9.54-44.82,21.53
					c-14.71,14.9-18.26,36.26-21.11,56.13c-5.58,38.85-12.5,77.48-20.38,115.92c-1.65,8.45-5.17,18.63-5.03,27.17
					c-1.07,5.76-1.41,12.43-3.33,17.99c-5.26,28.44,16.03,54.72,43.78,54.06l229.78-5.47l-2.46-61.79l10.28-12.51
					c13.88-16.89,19.32-39.61,13.08-60.56c-0.34-1.14-0.71-2.27-1.11-3.39l-12.19-42.65c-5.14-17.97-9.47-36.19-12.06-54.7
					C701.42,306.77,676.96,293.61,635.19,294.63z"/>
			</g>
		</g>
		<g>
			<g>
				<g>
					<path class="st2" d="M676.9,206.05l-0.06-1.22l-0.02-0.49l-0.98-20.59l-1.48-31c0,0,0,0,0,0l-0.16-3.45
						c-0.65-13.56-6.38-25.64-15.22-34.59c-0.11-0.11-0.22-0.22-0.33-0.33c-0.14,0.07-0.28,0.13-0.42,0.19
						c-1.87,0.81-3.99,1.13-6.22,0.76c-23.07-3.83-39.72,19.5-50.66,44.12c-1.28,2.88-2.79,5.6-4.49,8.13
						c-12.39,18.48-34.86,25.28-54.97,19.86c-2.35,3.78-3.48,8.37-2.85,13.21c1.37,10.44,10.95,17.83,21.46,17.33l4.5-0.21
						c0.55,3.43,1.4,6.75,2.54,9.93c-0.44,2.44-0.63,4.97-0.51,7.55l2.76,61l-44.25,1.61l28.11,39.82
						c10.26,13.54,25.16,23.09,41.92,25.8c2.49,0.4,5.02,0.7,7.56,0.9c28.98,2.26,54.43-19.28,58.33-48.08l2.31-19.43l-12.33-1.81
						c-3.55-0.57-10.41-0.55-14-0.6l-1.26-31.61C660.73,255.8,678.17,232.67,676.9,206.05z"/>
				</g>
				<path class="st3" d="M676.9,206.05l-0.06-1.22c1.39,29.18-21.14,53.97-50.33,55.36c-26.6,1.27-49.49-17.37-54.39-42.77
					l-7.12,0.34c1.98,12.23,7.86,23.06,16.28,31.27l0,0c5.19,21.05,29.69,30.56,47.72,18.53l6.95-4.64
					C660.63,255.94,678.17,232.75,676.9,206.05z"/>
			</g>
			<g>
				<path class="st4" d="M638.29,244.66c-0.22,0-0.44-0.09-0.6-0.25c-3.75-3.86-8.69-1.6-8.9-1.5c-0.42,0.2-0.92,0.02-1.12-0.4
					c-0.2-0.42-0.02-0.92,0.4-1.12c0.06-0.03,6.22-2.88,10.82,1.85c0.32,0.33,0.32,0.86-0.02,1.19
					C638.71,244.58,638.5,244.66,638.29,244.66z"/>
				<g>
					<g>
						<g>
							<path class="st4" d="M611.08,168.84c1.53,0.34,3.33-0.18,5.1-0.59c1.77-0.45,3.56-0.85,5.13-1.15
								c1.57-0.3,3.39-0.58,5.2-0.81c1.79-0.27,3.67-0.44,4.95-1.32c1.24-0.83,1.48-2.56-0.5-4.27c-1.87-1.67-6.19-3.05-11.39-2.08
								c-5.19,1-8.64,3.86-9.71,6.08C608.7,167.01,609.61,168.53,611.08,168.84z"/>
						</g>
					</g>
				</g>
				<g>
					<g>
						<g>
							<path class="st4" d="M672.85,164.22c-1.52,0.39-3.33-0.07-5.11-0.42c-1.79-0.39-3.59-0.73-5.16-0.98
								c-1.58-0.25-3.4-0.47-5.22-0.64c-1.8-0.21-3.68-0.32-4.99-1.16c-1.27-0.78-1.56-2.51,0.36-4.28
								c1.81-1.73,6.09-3.25,11.32-2.45c5.22,0.83,8.76,3.57,9.9,5.76C675.17,162.31,674.31,163.86,672.85,164.22z"/>
						</g>
					</g>
				</g>
				<path class="st4" d="M552.73,205.1c-0.3,0-0.6-0.17-0.75-0.45c-0.21-0.41-0.05-0.92,0.36-1.13l5.79-2.98l-5.12-9.64
					c-0.22-0.41-0.06-0.92,0.35-1.13c0.41-0.22,0.92-0.06,1.13,0.35l5.92,11.15l-7.3,3.76C552.99,205.07,552.86,205.1,552.73,205.1z
					"/>
				<path class="st5" d="M610.67,200.67c0,0,10.17,3.71,20.16,4.31c9.99,0.6,4.12,16.21-11.02,16.04
					C604.67,220.85,602.46,199.68,610.67,200.67z"/>
				<path class="st4" d="M641.18,202.93c-0.46,0-0.83-0.37-0.84-0.82c-0.01-0.46,0.36-0.84,0.82-0.85l0.29,0
					c2.94-0.05,5.68-1.24,7.73-3.35c2.04-2.11,3.14-4.89,3.09-7.83c-0.02-1.24-0.52-2.39-1.41-3.26c-0.87-0.84-2.01-1.3-3.22-1.3
					c-0.03,0-0.05,0-0.08,0l-3.65,0.06l-0.28-17.13c-0.01-0.46,0.36-0.85,0.83-0.85c0,0,0.01,0,0.01,0c0.46,0,0.83,0.37,0.84,0.82
					l0.25,15.46l1.97-0.03c1.63-0.05,3.28,0.6,4.49,1.78c1.21,1.17,1.9,2.75,1.92,4.43c0.06,3.39-1.21,6.59-3.57,9.03
					c-2.36,2.43-5.52,3.81-8.9,3.86l-0.29,0C641.19,202.93,641.18,202.93,641.18,202.93z"/>
				<path class="st4" d="M626.29,180.02c1.1,1.8,0.53,4.15-1.27,5.24c-1.8,1.1-4.15,0.53-5.24-1.27c-1.1-1.8-0.53-4.15,1.27-5.24
					C622.84,177.65,625.19,178.22,626.29,180.02z"/>
				<path class="st4" d="M665.64,176.96c1.1,1.8,0.53,4.15-1.27,5.24c-1.8,1.1-4.15,0.53-5.24-1.27c-1.1-1.8-0.53-4.15,1.27-5.24
					C662.19,174.59,664.54,175.16,665.64,176.96z"/>
				<path class="st4" d="M619.22,188.45c-0.24,0-0.49-0.11-0.65-0.31c-0.29-0.36-0.24-0.89,0.12-1.18c6.18-5,10.66-0.69,10.71-0.65
					c0.33,0.33,0.33,0.86,0.01,1.19c-0.32,0.33-0.85,0.33-1.18,0.01c-0.15-0.14-3.5-3.27-8.48,0.76
					C619.59,188.39,619.4,188.45,619.22,188.45z"/>
				<path class="st4" d="M658.57,184.99c-0.24,0-0.49-0.11-0.65-0.31c-0.29-0.36-0.24-0.89,0.12-1.18c6.18-5,10.66-0.7,10.7-0.65
					c0.33,0.33,0.33,0.86,0.01,1.19c-0.32,0.33-0.85,0.33-1.18,0.01l0,0c-0.14-0.14-3.49-3.27-8.47,0.76
					C658.94,184.92,658.75,184.99,658.57,184.99z"/>
			</g>
		</g>
	</g>
	<g>
		<g>
			<g>
				<path class="st1" d="M621.8,679.75c0,0-101.25-3.7-101.27-3.7c-20.56-0.75-40.95,11.07-53.22,27.09
					c-12.6,16.46-14.29,40.31-18.93,59.96c-5.3,22.42-10.8,44.79-16.81,67.02c-3.37,12.47-23.6,101.96-25.37,114.76
					c-6.36,45.87,39.58,15.75,87.9,20.46c1.56,0.15,3.13,0.26,4.69,0.32l187.37,7.02l6.39-61.32l13.49-20.93
					c9.95-15.45,12.78-35.73,7.5-53.96l-23.52-81.32C692.07,699.66,668.31,681.44,621.8,679.75z"/>
			</g>
		</g>
		<g>
			<path class="st0" d="M480.41,605.27c3.85-3.85,8.35-7.23,10.83-12.23c4.42-8.9,1.06-19.51,0.32-29.44
				c-1.03-13.79,3.87-27.96,12.45-38.39c1.35-1.64,2.8-3.14,4.31-4.54l10.8-26.92c7.57-18.88,23.54-31.98,41.91-36.82
				c-5.23-5.25-8.47-12.48-8.47-20.48c0-16.02,12.98-29,29-29c16.02,0,29,12.98,29,29c0,0.63-0.05,1.25-0.09,1.87
				c9.36-2.49,19.26-1.88,28.44,0.88c9.58,2.88,18.41,7.98,26.62,13.98c19.63,10.36,30.27,24.8,35.76,39.34
				c0.74,1.33,1.47,2.67,2.16,4.03c8.61,17.06,12.64,37.27,9.55,56.8c-3.3,20.79-12.98,40.13-6.01,61.03
				c5.35,16.03,17.04,29.91,17.42,47.78c0.12,5.88-1.88,12.85-7.04,14.79c-2.3,0.86-4.78,0.54-7.16,0.19
				c-64.6-9.27-128.39-22.47-192.16-36.27c-10.03-2.17-20.08-4.35-29.84-7.59c-6.48-2.15-13.79-6.04-14.57-13.4
				C473.02,614.32,476.55,609.12,480.41,605.27z"/>
			<g>
				<g>
					<g>
						<path class="st2" d="M549.95,676.59c0-0.01,0-0.03,0.01-0.04l18.07-79.59c0.51-2.27,1.24-4.44,2.14-6.5
							c-0.26-4.07-0.07-8.21,0.56-12.38l-6.19-1.39c-11.16-2.51-18.18-13.58-15.67-24.74l0.43-1.9
							c2.51-11.16,13.58-18.18,24.74-15.67l3.35,0.75c44.12,7.85,57.29-37.98,57.29-37.98c-0.96,21.62,8.59,24.14,24.52,27
							c1.63,0.29,3.14-14.08,3.14-14.08s0.84,15.24,1.76,15.34c1.52,0.16,9.77,3.51,11.27,3.62c0.96,0.07,4.57,1.96,6.09,2.53
							c9.08,3.4,17.57,5.8,20.61,7.3l-8.2,46.72l-3.07,13.67c0,0,0,0,0,0l-0.33,1.45c-6.2,27.62-31.06,46.19-58.33,45.47l-7.34,32.7
							l26.89,3.97c-4.69,42.98-60.63,66.38-89.53,34.23l-37.06-41.23L549.95,676.59z"/>
					</g>
					<path class="st3" d="M577.74,584.99c-0.01,0.67,0.03,1.33,0.04,2c0.02,1.08,0.02,2.17,0.1,3.24c0.06,0.75,0.17,1.49,0.26,2.23
						c0.11,0.98,0.22,1.96,0.38,2.92c0.13,0.77,0.32,1.52,0.48,2.28c0.2,0.92,0.39,1.84,0.64,2.75c0.21,0.76,0.45,1.5,0.69,2.25
						c0.28,0.88,0.56,1.76,0.88,2.63c0.28,0.74,0.59,1.46,0.89,2.18c0.36,0.84,0.72,1.68,1.12,2.51c0.34,0.71,0.71,1.4,1.09,2.09
						c0.43,0.8,0.88,1.6,1.35,2.38c0.41,0.67,0.83,1.33,1.27,1.98c0.51,0.76,1.03,1.51,1.58,2.25c0.47,0.63,0.94,1.25,1.43,1.86
						c0.58,0.72,1.18,1.41,1.8,2.1c0.52,0.58,1.04,1.15,1.59,1.71c0.65,0.67,1.33,1.31,2.02,1.95c0.57,0.52,1.13,1.05,1.72,1.55
						c0.73,0.62,1.49,1.2,2.25,1.78c0.61,0.46,1.2,0.93,1.83,1.37c0.81,0.56,1.65,1.08,2.49,1.6c0.63,0.39,1.25,0.8,1.9,1.16
						c0.91,0.51,1.86,0.97,2.8,1.43c0.63,0.31,1.24,0.64,1.89,0.93c1.07,0.48,2.19,0.88,3.3,1.29c0.56,0.21,1.1,0.45,1.67,0.63
						c1.7,0.56,3.45,1.05,5.23,1.46l5.01,1.13c29.47,6.62,58.72-11.91,65.34-41.38l-0.33,1.45c-6.2,27.63-31.09,46.21-58.37,45.47
						l0.04,0.02l0,0c-14.33,16.03-40.65,10.37-47.13-10.13l-5.56-17.6c-7.53-11.6-10.91-25.85-8.71-40.38l7.38,1.66
						C577.89,581.5,577.78,583.25,577.74,584.99z"/>
				</g>
				<g>
					<g>
						<path class="st4" d="M649.59,624.15c0.11,0,0.22-0.02,0.33-0.07c0.43-0.18,0.62-0.68,0.44-1.1
							c-2.81-6.51-10.09-6.01-10.16-5.99c-0.46,0.04-0.8,0.44-0.77,0.9s0.44,0.79,0.9,0.77c0.26-0.01,6.16-0.4,8.49,4.99
							C648.96,623.96,649.27,624.15,649.59,624.15z"/>
						<g>
							<g>
								<g>
									<path class="st4" d="M640.04,541.49c1.19,0.5,2.72,0.34,4.22,0.27c1.5-0.1,3.01-0.17,4.32-0.18
										c1.32-0.01,2.83,0.03,4.33,0.1c1.49,0.04,3.04,0.18,4.2-0.35c1.12-0.49,1.57-1.86,0.22-3.53
										c-1.27-1.63-4.57-3.38-8.93-3.35c-4.35,0.05-7.56,1.86-8.75,3.51C638.38,539.66,638.89,541.03,640.04,541.49z"/>
								</g>
								<g>
									<path class="st4" d="M697.62,555.23c-1.29-0.08-2.6-0.9-3.9-1.62c-1.3-0.75-2.63-1.48-3.8-2.07
										c-1.18-0.59-2.55-1.22-3.93-1.82c-1.36-0.62-2.8-1.18-3.62-2.16c-0.79-0.93-0.59-2.36,1.36-3.26
										c1.86-0.9,5.59-1.01,9.49,0.93c3.88,1.96,5.97,5.01,6.31,7.01C699.91,554.32,698.85,555.32,697.62,555.23z"/>
								</g>
							</g>
						</g>
						<path class="st4" d="M652.31,560.06c0.14,0,0.28-0.03,0.41-0.11c0.4-0.23,0.55-0.73,0.32-1.14
							c-0.03-0.05-3.12-5.45-10.46-2.37c-0.43,0.18-0.63,0.67-0.45,1.1s0.67,0.63,1.1,0.45c5.91-2.47,8.25,1.47,8.35,1.64
							C651.73,559.9,652.01,560.06,652.31,560.06z"/>
						<path class="st4" d="M689.47,568.16c0.11,0,0.22-0.02,0.33-0.07c0.43-0.18,0.63-0.67,0.45-1.1c-0.02-0.05-2.33-5.32-9.37-3.24
							c-0.44,0.13-0.7,0.6-0.57,1.04c0.13,0.44,0.6,0.7,1.04,0.57c5.62-1.66,7.28,2.12,7.35,2.29
							C688.83,567.97,689.14,568.16,689.47,568.16z"/>
						<path class="st6" d="M562,561.37c0.06,0,0.12,0,0.17-0.02l8.63-1.81l-2.96-13.26c-0.1-0.45-0.54-0.73-1-0.64
							c-0.45,0.1-0.74,0.55-0.64,1l2.59,11.6l-6.96,1.46c-0.45,0.1-0.74,0.54-0.65,0.99C561.26,561.1,561.61,561.37,562,561.37z"/>
						<path class="st5" d="M624.69,565.66c0,0,10.22,9.93,21.9,16.04c11.68,6.11-3.78,21.7-21.89,13.34
							C606.61,586.68,615.35,560.04,624.69,565.66z"/>
						<path class="st4" d="M667.72,585.33c1.56,0,3.07-0.55,4.3-1.6c1.64-1.4,2.49-3.43,2.33-5.59l-2.05-26.93
							c-0.04-0.46-0.47-0.8-0.9-0.77c-0.46,0.04-0.81,0.44-0.77,0.9l2.05,26.93c0.12,1.61-0.51,3.14-1.74,4.18
							c-1.23,1.04-2.83,1.43-4.41,1.05l-8.16-1.97c-0.46-0.1-0.9,0.17-1.01,0.62c-0.11,0.45,0.17,0.9,0.62,1.01l8.16,1.97
							C666.66,585.26,667.19,585.33,667.72,585.33z"/>
					</g>
				</g>
			</g>
		</g>
	</g>
	<g>
		<polygon class="st7" points="87.78,931.65 245.96,932.62 249.84,957.85 75.16,955.91 		"/>
		<path class="st8" d="M214.72,936.19c1.43,7.14,3.01,14.24,4.69,21.32l30.44,0.34l-3.88-25.23l-31.95-0.2
			C214.26,933.68,214.46,934.94,214.72,936.19z"/>
		<path class="st9" d="M80.95,944.78l-5.79,11.13l174.68,1.94l-1.59-10.3C204.44,946.6,118.59,944.83,80.95,944.78z"/>
		<path class="st7" d="M195.5,548.32c0,0-131.98,388.18-133.92,402.73c-1.94,14.56-0.97,23.29,10.67,21.35s18.44-28.14,32.02-65.99
			c13.59-37.85,108.69-306.66,108.69-306.66L195.5,548.32z"/>
		<path class="st8" d="M181.33,635.1c2.82,11.49,4.94,23.19,6.79,34.87c14.43-40.76,24.85-70.21,24.85-70.21l-17.47-51.43
			c0,0-8.38,24.64-20.94,61.72C176.84,618.39,179.27,626.69,181.33,635.1z"/>
		<path class="st7" d="M361.44,113.56c0,0-123.97,1.17-178.56,1.05c-32.03-0.07-35.25,17.6-34.93,37.77
			c0.26,15.94,2.16,34.73,3.87,51.43c3.88,37.85,79.39,714.75,84.43,746.27c3.88,24.26,17.47,38.82,33.97,40.76
			c38.03,4.47,310.54,0.97,322.19,1.94c11.65,0.97,32.02-12.62,29.11-37.85c-2.91-25.23-95.1-798.68-95.1-798.68
			s0.97-38.82-36.88-40.76C451.7,113.56,361.44,113.56,361.44,113.56z"/>
		<path class="st0" d="M410.08,965.04c-91.99,0-121.22-1.17-129.53-2.15c-3.31-0.39-7.75-6.57-9.46-17.25
			c-4.61-28.83-79.65-700.15-84.22-744.7c-1.55-15.14-3.49-33.99-3.73-49.01c-0.07-4.44,0.12-7.13,0.33-8.72
			c1.3-0.23,3.31-0.45,6.25-0.45l9.14,0.01c56.62,0,165.25-1.01,169.75-1.05c3.91,0,90.49,0.06,126.53,1.9
			c3.22,0.16,9.9,0.51,10.17,12.14l-0.15,2.35l0.35,1.49c0.92,7.73,92.22,773.68,95.09,798.57c0.45,3.89-0.83,5.66-1.8,6.42
			c-2.55-0.07-7.14-0.12-16.71-0.12c-13.52,0-33.83,0.1-57.71,0.21C490.88,964.84,449.2,965.04,410.08,965.04z"/>
	</g>
	<g>
		<polygon class="st7" points="87.77,931.68 245.95,932.66 249.83,957.89 75.15,955.95 		"/>
		<path class="st8" d="M214.7,936.23c1.43,7.14,3.01,14.24,4.69,21.32l30.44,0.34l-3.88-25.23l-31.95-0.2
			C214.24,933.71,214.45,934.97,214.7,936.23z"/>
		<path class="st9" d="M80.94,944.81l-5.79,11.13l174.68,1.94l-1.59-10.3C204.42,946.63,118.58,944.87,80.94,944.81z"/>
		<path class="st7" d="M195.49,548.36c0,0-131.98,388.18-133.92,402.73c-1.94,14.56-0.97,23.29,10.67,21.35s18.44-28.14,32.02-65.99
			c13.59-37.85,108.69-306.66,108.69-306.66L195.49,548.36z"/>
		<path class="st8" d="M181.32,635.13c2.82,11.49,4.94,23.19,6.79,34.87c14.43-40.76,24.85-70.21,24.85-70.21l-17.47-51.43
			c0,0-8.38,24.64-20.94,61.72C176.83,618.42,179.26,626.73,181.32,635.13z"/>
		<path class="st7" d="M361.43,113.6c0,0-123.97,1.17-178.56,1.05c-32.03-0.07-35.25,17.6-34.93,37.77
			c0.26,15.94,2.16,34.73,3.87,51.43c3.88,37.85,79.39,714.75,84.43,746.27c3.88,24.26,17.47,38.82,33.97,40.76
			c38.03,4.47,310.54,0.97,322.19,1.94s32.02-12.62,29.11-37.85c-2.91-25.23-95.1-798.68-95.1-798.68s0.97-38.82-36.88-40.76
			C451.68,113.6,361.43,113.6,361.43,113.6z"/>
		<path class="st0" d="M410.07,965.08c-91.99,0-121.22-1.17-129.53-2.15c-3.31-0.39-7.75-6.57-9.46-17.25
			c-4.61-28.83-79.65-700.15-84.22-744.7c-1.55-15.14-3.49-33.99-3.73-49.01c-0.07-4.44,0.12-7.13,0.33-8.72
			c1.3-0.23,3.31-0.45,6.25-0.45l9.14,0.01c56.62,0,165.25-1.01,169.75-1.05c3.91,0,90.49,0.06,126.53,1.9
			c3.22,0.16,9.9,0.51,10.17,12.14l-0.15,2.35l0.35,1.49c0.92,7.73,92.22,773.68,95.09,798.57c0.45,3.89-0.83,5.66-1.8,6.42
			c-2.55-0.07-7.14-0.12-16.71-0.12c-13.52,0-33.83,0.1-57.71,0.21C490.87,964.88,449.19,965.08,410.07,965.08z"/>
	</g>
	<g>
		<path class="st10" d="M183.29,144.88c0.02-0.29,0.05-0.55,0.07-0.79C183.34,144.33,183.31,144.59,183.29,144.88z"/>
		<path class="st10" d="M183.22,145.98c0.02-0.36,0.04-0.69,0.07-1.01C183.26,145.29,183.24,145.62,183.22,145.98z"/>
		<path class="st11" d="M594.13,962.7c-2.87-24.89-94.17-790.84-95.09-798.57l-0.35-1.49l0.15-2.35
			c-0.27-11.63-6.95-11.98-10.17-12.14c-36.04-1.85-122.61-1.9-126.53-1.9c-4.5,0.04-113.13,1.05-169.75,1.05l-9.14-0.01
			c-0.03,0-0.05,0-0.08,0c0.02-0.44,0.03-0.86,0.05-1.24c-0.08,1.5-0.12,3.42-0.08,5.89c0.24,15.03,2.17,33.87,3.73,49.01
			c4.57,44.55,79.61,715.87,84.22,744.7c1.71,10.69,6.15,16.87,9.46,17.25c8.32,0.98,37.54,2.15,129.53,2.15
			c39.12,0,80.8-0.2,114.3-0.36c23.88-0.12,44.19-0.21,57.71-0.21c5.52,0,9.35,0.02,12.12,0.04
			C594.22,963.96,594.21,963.37,594.13,962.7z"/>
		<path class="st10" d="M183.38,143.95c0.03-0.27,0.06-0.52,0.09-0.74C183.43,143.43,183.4,143.68,183.38,143.95z"/>
		<path class="st10" d="M597.16,964.55c-0.13,0-0.24,0-0.38-0.01C596.91,964.55,597.04,964.55,597.16,964.55z"/>
		<path class="st10" d="M595.69,964.53c-0.04,0-0.07,0-0.11,0C595.62,964.53,595.66,964.53,595.69,964.53z"/>
		<path class="st10" d="M598.8,964.59c-0.29-0.01-0.61-0.02-0.96-0.02C598.19,964.57,598.51,964.58,598.8,964.59z"/>
	</g>
	<g>
		<defs>
			<path id="SVGID_1_" d="M594.13,962.7c-2.87-24.89-94.17-790.84-95.09-798.57l-0.35-1.49l0.15-2.35
				c-0.27-11.63-6.95-11.98-10.17-12.14c-36.04-1.85-122.61-1.9-126.53-1.9c-4.5,0.04-113.13,1.05-169.75,1.05l-9.14-0.01
				c-0.03,0-0.05,0-0.08,0c0.01-0.44,0.03-0.86,0.05-1.24c-0.08,1.5-0.12,3.42-0.08,5.89c0.24,15.03,2.17,33.87,3.73,49.01
				c4.57,44.55,79.61,715.87,84.22,744.7c1.71,10.69,6.15,16.87,9.46,17.25c8.32,0.98,37.54,2.15,129.53,2.15
				c39.12,0,80.8-0.2,114.3-0.36c23.88-0.12,44.19-0.21,57.71-0.21c5.52,0,9.35,0.02,12.12,0.04
				C594.22,963.96,594.21,963.37,594.13,962.7z"/>
		</defs>
		<clipPath id="SVGID_2_">
			<use xlink:href="#SVGID_1_"  style="overflow:visible;"/>
		</clipPath>
		<g class="st12">
			<g>
				<g>
					<path class="st13" d="M392.69,927.24h1.08c0,0,2.03,9.1,14.17,12.95c12.13,3.85,31.93,7.06,37.11,12.7
						c5.18,5.64,1.03,9.33-12.48,8.61c-13.51-0.72-20.48-4.63-35.61-2.51c-15.13,2.12-19.94,5.29-28.05,0.43s-8.38-28.12-8.38-28.12
						L392.69,927.24z"/>
					<path class="st14" d="M323,943.87c0,0-1.51,4.41,8.04,10.85c10.72,7.23,25.86,11.38,31.56,17.62
						c5.69,6.24,2.14,11.58-15.5,9.05c-7.59-1.09-17.15-4.02-26.24-5.32c-12.06-1.73-23.31-2.07-28.22-6.02
						c-8.62-6.92-6.51-25.23-5.2-30.4C288.73,934.48,322.62,937.38,323,943.87z"/>
					<path class="st14" d="M368.89,959.42c0.06,0.04,0.12,0.06,0.18,0.1c6.87-11.72,18.58-20.28,31.97-22.68
						c-6.05-4.24-7.27-9.6-7.27-9.6h-1.08l-32.18,4.06C360.51,931.3,360.78,954.55,368.89,959.42z"/>
					<path class="st13" d="M325.33,949.81c-3.09-3.66-2.33-5.94-2.33-5.94c-0.37-6.49-34.27-9.4-35.58-4.23
						c-1.15,4.54-2.91,19.2,2.5,27.39C297.9,955.58,311.53,949.38,325.33,949.81z"/>
					<path class="st15" d="M440.77,631.21c0,0,21.35,133.44,11.65,175.65c-9.7,42.21-53.37,127.45-53.37,127.45
						s-9.7,7.12-26.69,6.95c-9.81-0.09-16.01-3.72-16.01-3.72s46.58-126.8,48.04-136.02c1.46-9.22-25.72-129.55-28.14-136.35
						c-2.43-6.79-5.34-44.64,1.46-44.64C384.49,620.53,440.77,631.21,440.77,631.21z"/>
					<path class="st14" d="M386.22,707.23c1.04-13.4,2.25-32.75,1.66-44c-0.97-18.44,1.94-37.36,1.94-37.36l-1.15-3.94
						c-5.37-0.84-9.45-1.39-10.99-1.39c-6.79,0-3.88,37.85-1.46,44.64C377.12,667.66,381.33,685.35,386.22,707.23z"/>
					<path class="st15" d="M381.09,655.47c0,0-15.53,93.65-25.72,140.71c-10.19,47.07-32.02,148.48-32.02,148.48
						s-8.73,3.4-20.38,2.43c-11.65-0.97-19.09-1.46-19.09-1.46s19.57-121.31,21.03-147.51c1.46-26.2-3.4-165.46,1.46-169.34
						c4.85-3.88,95.59-5.34,106.26-2.43C423.3,629.27,381.09,655.47,381.09,655.47z"/>
					<path class="st14" d="M319.82,660.89c21.27-9.69,43.87-17.52,67.39-18.73c11.68-0.6,23.42,0.54,34.74,3.48
						c7.72,2.01,15.12,4.91,22.2,8.47c-1.95-13.96-3.38-22.9-3.38-22.9s-56.29-10.67-63.08-10.67c-1.41,0-2.4,1.65-3.06,4.29
						c-29.44,0.09-65.27,1.56-68.27,3.96c-1.61,1.29-2.15,17.54-2.21,39.61C309.34,665.8,314.56,663.28,319.82,660.89z"/>
					<g>
						<path class="st16" d="M417.48,266.81c0-13.76,11.18-26.84,23.4-32.51c2.36-1.1,19.37-8.91,18.14-2.05
							c-0.36,1.99-7.81,6.79-9.53,8.75c-1.9,2.16-4.75,4.8-4.79,7.81c14.64-3.03,49.7,5.19,51.8,23.74
							c-8.57,3.29-25.6-1.7-31.91,4.86c8.98,3.92,19.21,5.62,26.45,12.88c4.1,4.11,10.9,16.59,10.3,22.55
							c-9.19,0.39-16.98-6.11-26.48-5.8c8.16,6.31,15.21,16.35,19.41,25.75c2.47,5.53,5.34,18.22,1.34,23.4
							c-4.38-2.18-16.08-9.78-20.36-8.87c3.03,6.58,7.74,12.42,10.29,19.37c2.28,6.22,4.03,12.48,5.93,18.8
							c2.25,7.48,7.23,26.95,1.71,33.44c-3.16-4.76-9.73-18.21-15.95-18.62c-0.77,5.1,0,8.86-0.07,14.01
							c-0.03,2.43-0.26,4.64-0.96,6.9c-0.8,2.61-3.01,4.1-3.82,6.2c-1.99,5.14-1.1,11.65-2.85,17.11c-1.43,4.47-4.04,9.58-7.3,12.98
							c-5.14,5.36-7.23-1.45-8.84-6.81c-1.5-4.97-2.64-10-3.79-15.08c-2.19-9.76-5.64-19.73-10.26-28.66
							c-6.63-12.81-45.36-1.34-42.89-16.75L417.48,266.81z"/>
					</g>
					<path class="st17" d="M403.89,489.52c0,0,11.65,17.95,31.05,30.08c19.41,12.13,28.14,14.56,37.85,7.28
						c9.7-7.28-28.63-123.73-35.91-130.52c-7.28-6.79-31.54-2.91-38.33-6.79c-6.79-3.88,3.88,54.83-0.97,64.53
						C392.73,463.81,403.89,489.52,403.89,489.52z"/>
					<g>
						<path class="st16" d="M421.36,267.29c1.33-11.29-11.67-19.6-19.68-25.89c-8.29-6.51-16.05-12.15-27.05-11.86
							c-0.56,2.66,8.12,12.23,10.49,14.51c3.78,3.63,9.12,6.56,11.97,11.11c-7.86-4.93-21.36-6.87-30.57-7.28
							c-8.85-0.39-27.17,3.4-32.7,10.65c11.86,1.28,20.46,4.52,31.12,9.17c-6.83,4.27-15.2,6-21.8,11.53
							c-4.61,3.86-12.46,10.24-12.8,16.67c8.29,0.74,31.15-14.54,35.66-2.86c-12.25,8.05-27.07,12.1-40.23,18.38
							c-3.89,1.85-17.25,8.4-18.37,13.23c-1.73,7.47,12.74,2.35,10.17,6.83c-0.67,1.16-5.86,1.53-7.22,2.27
							c-2.89,1.57-4.65,3.92-6.44,6.7c-1.39,2.16-5.45,8.57-4.29,11.2c0.6,1.35,5.35,3.05,6.71,3.93c2.67,1.73,5.28,3.75,7.68,5.85
							c5.49,4.81,10.71,10.27,16.14,15.3c9.47,8.77,19.13,17.59,29.57,25.35c8.06,5.99,17.18,9.76,26.21,14.06
							c5.02,2.39,9.7,6.72,12.63,0.61c2.64-5.51,2.29-13.34,3.4-19.26c2.87-15.28,5.57-30.61,7.87-46.02
							c2.26-15.12,5.32-29.93,8.25-44.98c1.36-6.99,3.86-15,3.77-22.1c-0.06-5.35-1.67-11.53,0.47-16.59"/>
					</g>
					<path class="st7" d="M389.82,384.72c0,0,15.29,6.12,21.2,7.07c5.16,0.83-6.16,48.73-0.82,69.11
						c5.34,20.38,13.1,42.7,2.91,40.27s-16.5-8.73-15.53-1.46c0.97,7.28,17.47,28.63,33.48,62.59
						c16.01,33.97,15.04,69.87,14.56,72.78s-41.73-13.1-71.33-13.59s-70.36,7.28-71.81,5.82s-15.04-37.85-22.81-69.87
						c-7.76-32.02-19.89-102.38-19.89-135.86s24.5-67.82,41.57-82.81c16.01-14.07,55.15-16.66,60.81,18.76
						C363.72,367.25,374.78,379.86,389.82,384.72z"/>
					<path class="st17" d="M397.59,499.71c-0.72-5.4,2.58-3.32,8.48-0.89c-4.19-2.98-19.51-13.01-44.88-19.97
						c-30.08-8.25-38.82-4.85-38.82-4.85l-5.34,25.72c0,0,21.83,12.13,46.58,15.53c15.37,2.11,28.48-4.39,36.22-9.62
						C398.58,503.13,397.78,501.14,397.59,499.71z"/>
					<path class="st18" d="M305.88,458.47c-6.19,7.43-24.76,28.03-37.4,41.97c2.19,13.22,4.56,26.04,6.83,37.18
						c6.47-1.16,17.27-2.62,27.98-6.05c28.3-9.06,36.88-45.29,40.76-60.81c3.88-15.53,14.23-64.05,14.23-64.05
						S315.58,446.83,305.88,458.47z"/>
					<path class="st19" d="M395.93,371.82c0,0-3.88,9.7-1.94,17.47c1.94,7.76,11.65,26.69-4.37,34.45
						c-16.01,7.76-34.94-10.67-37.36-26.69c-2.43-16.01,8.73-41.24,14.07-48.04C371.67,342.22,395.93,371.82,395.93,371.82z"/>
					<path class="st20" d="M393.79,388.32c-2.66,0.36-5.35,0.51-8.04,0.35c-8.19-0.48-15.71-4.11-21.26-10.14
						c-2.95-3.21-5.3-6.93-7.18-10.86c-0.05-0.1-0.08-0.2-0.13-0.3c3.03-8.22,6.7-15.24,9.15-18.36c5.34-6.79,29.6,22.81,29.6,22.81
						S392.37,380.74,393.79,388.32z"/>
					<path class="st19" d="M449.07,328.74c-1.15,7.88-3.42,15.03-6.54,19.79c-5.77,8.82-13.2,19.77-25.28,26.74
						c-5.18,3-11.23,5.25-18.39,6.26c-15.43,2.2-24.93-1.71-30.86-8.72c-0.4-0.47-0.8-0.96-1.17-1.45
						c-0.05-0.07-0.09-0.14-0.16-0.21c-0.3-0.45-0.61-0.89-0.91-1.34c-1.01-1.5-1.85-3.12-2.63-4.83c-0.82-1.85-1.52-3.78-2.11-5.77
						c-0.12-0.42-0.23-0.89-0.33-1.38c-1.95-9.97,3.14-31.22,9.31-48.95c3.68-10.6,7.74-19.93,10.91-24.88
						c8.72-13.58,28.14-21.34,32.51-20.85c0,0,21.37,12.62,30.58,28.14C449.71,300.92,450.93,315.81,449.07,328.74z"/>
					<path class="st16" d="M419.18,266.81c0,0-3.15,17.95-0.24,22.08c2.91,4.12,12.86,29.6,14.8,44.16
						c1.94,14.56-0.24,23.53-0.24,23.53s17.95-14.56,21.35-27.66c3.4-13.1,0.97-39.79-5.58-47.79
						C442.71,273.12,424.03,260.98,419.18,266.81z"/>
					<g>
						<path class="st16" d="M420.88,262.93c0.82,13.22,4.7,23.18-9.22,31.78c-11.33,7-24.92,9.49-36.01,16.63
							c-3.48,2.24-13.17,13.17-14.47,4.71c-0.74-4.82,5.78-11.58,7.76-15.89c2.96-6.46,4.14-12.33,6.44-18.94
							c2.38-6.84,7.44-11.35,13.24-15.13c8.41-5.48,27.7-11.57,34.21-0.26"/>
					</g>
					<path class="st16" d="M384,357.75c0,0,9.58-8.13,16.74-3.52c7.16,4.61,4.85,12.62,4.85,12.62s-4.12-5.22-9.95-7.16
						C391.58,358.33,384,357.75,384,357.75z"/>
					<g>
						<g>
							<path class="st20" d="M417.3,318.08c-1.37,2.62-2.85,5.17-4.19,7.8c-1.04,2.04-1.96,4.1-3.13,6.06
								c-1.03,1.72-2.12,3.47-2.74,5.38c-0.34,1.04-0.74,2.79,0.24,3.63c0.79,0.68,2.06,0.31,2.97,0.16c1.79-0.3,3.58-0.38,4.96,1
								c1.7,1.69,2.26,4.36,0.89,6.41c-1.06,1.57-3.15,2.5-4.99,2.66c-2.41,0.21-4.8-0.76-6.6-2.32c-1.44-1.25-2.43-2.87-3.77-4.21
								c-0.31-0.31-0.92,0.11-0.63,0.49c2.18,2.87,4.7,5.86,8.42,6.6c3.23,0.64,7.26-0.66,8.65-3.92c1.42-3.34-1.3-7.48-4.87-7.62
								c-0.76-0.03-1.51,0.09-2.25,0.2c-0.57,0.09-1.46,0.36-2.03,0.11c-1.71-0.74,0.41-4.69,0.9-5.65
								c1.21-2.34,2.56-4.59,3.74-6.96c1.6-3.2,3.34-6.33,4.87-9.57C417.88,318.04,417.46,317.79,417.3,318.08L417.3,318.08z"/>
						</g>
					</g>
					<path class="st20" d="M404.72,321.93c-3.85,3.19-8.21,7.5-9.4,9.89c-0.23,0.47-0.75,1.76-1.38,3.4
						c-2.72,6.97-7.22,21.21-12.64,25.54c-5.09,4.08-8.89,4.93-10.6,5.07l-2.7,6.97c-0.4-0.47-0.8-0.96-1.17-1.45
						c-0.05-0.07-0.09-0.14-0.16-0.21c-0.3-0.45-0.61-0.89-0.91-1.34c-0.98-1.52-1.85-3.14-2.63-4.83
						c-0.82-1.85-1.52-3.78-2.11-5.77c-0.12-0.42-0.23-0.89-0.33-1.38c-1.95-9.97,3.14-31.22,9.31-48.95c2.42-2.3,5-4.71,6.97-7.62
						c3.14-4.57,6.43-8.35,8.98-10.55c3.14-2.65,5.84-4.08,7.81-4.08c1.01,0,1.81,0.4,2.3,1.08c0.52,0.73,0.56,1.71,0.16,2.79
						c-0.49,1.34-2.3,3.68-5.21,7.43c-0.54,0.7-1.08,1.41-1.64,2.13c0.7-0.8,1.38-1.52,2.02-2.16c3.75-3.75,8.68-7.79,11.23-7.79
						c0.8,0,1.27,0.38,1.5,0.66c1.83,2.25-1.2,5.96-5.02,10.67c-1.57,1.95-3.21,3.96-4.27,5.65c-0.56,0.89-1.17,1.88-1.81,2.91
						c2.42-2.49,5.11-5.07,7.74-7.25c5.3-4.43,7.39-4.95,8.51-4.95c0.91,0,1.45,0.42,1.76,0.75c0.52,0.59,0.68,1.43,0.54,2.51
						c-0.26,1.76-3.33,5.14-8.35,10.51c-1.74,1.83-3.35,3.56-4.29,4.71c-0.21,0.26-0.42,0.54-0.63,0.82
						c3.56-3.12,7.67-6.36,10.01-7.2c0.52-0.19,0.96-0.28,1.36-0.28c0.87,0,1.52,0.45,1.81,1.2
						C412.42,313.44,407.26,319.82,404.72,321.93z"/>
					<path class="st19" d="M349.99,361.47c0,0,5.14-12.49,8.61-25.44c1.78-6.63,3.87-16.79,4.85-18.76c1.95-3.9,5.78-4.8,9.06-8.9
						c7.12-8.9,9.73-13.76,14.03-17.42c6.47-5.5,9.38-4.12,8.41-1.54c-0.97,2.59-9.06,11.56-12.62,17.71
						c-3.56,6.15-5.14,7.72-5.14,7.72s9.34-11.28,14.84-16.78c5.5-5.5,10.13-8.26,11-7.2c1.86,2.26-6.15,9.79-9.38,14.96
						c-3.23,5.18-8.41,13.59-8.41,13.59s8.33-9.95,16.09-16.42c7.76-6.47,9.22-5.01,8.9-2.75c-0.32,2.26-9.46,11.08-12.37,14.64
						c-2.91,3.56-5.82,8.73-5.82,8.73s11.97-11.65,16.5-13.26c4.53-1.62-0.85,6.79-4.73,10.03c-3.88,3.24-9.06,7.88-10.35,10.47
						c-1.29,2.59-6.59,23.17-13.06,28.35c-6.47,5.18-10.67,4.85-10.67,4.85l-4.53,11.65l-16.17-9.06L349.99,361.47z"/>
					<path class="st21" d="M402.46,333.99c-0.35-0.94-1.23-1.67-2.24-1.77c-1.65-0.17-2.48,1.76-2.17,3.14
						c0.26,1.15,1.28,1.73,2.4,1.56C401.89,336.7,403,335.48,402.46,333.99z"/>
					<path class="st21" d="M414.72,357.52c-0.22-0.59-0.77-1.04-1.39-1.1c-1.02-0.11-1.55,1.1-1.35,1.96
						c0.16,0.71,0.8,1.08,1.49,0.97C414.37,359.21,415.06,358.45,414.72,357.52z"/>
					<path class="st21" d="M385.78,370.69c-0.32-0.87-1.14-1.55-2.07-1.65c-1.53-0.16-2.3,1.63-2.01,2.92
						c0.24,1.06,1.19,1.61,2.22,1.45C385.26,373.2,386.29,372.07,385.78,370.69z"/>
					<path class="st21" d="M410.74,368.52c-0.28-0.75-0.98-1.34-1.79-1.42c-1.32-0.14-1.99,1.41-1.74,2.52
						c0.21,0.92,1.03,1.38,1.92,1.25C410.29,370.69,411.18,369.71,410.74,368.52z"/>
					<path class="st20" d="M433.49,356.57c0,0,2.18-8.98,0.24-23.53c-0.68-5.06-2.33-11.45-4.31-17.8c0.09,1.83,0.2,3.74,0.32,5.64
						c-2.25-7.29-5.84-16.65-7.81-17.96c-0.45-0.31-0.89-0.45-1.31-0.45c-0.56,0-1.08,0.26-1.45,0.7c-1.5,1.83-0.61,7.27-0.16,9.52
						c0.35,1.69,0.99,5.02,1.69,8.65c-0.33-0.89-0.59-1.55-0.75-1.92c-0.38-0.84-2.35-5.02-4.6-5.02c-0.82,0-1.85,0.45-2.25,2.63
						c-0.49,2.84,1.29,9.71,3.17,16.98c1.06,4.08,2.04,7.93,2.58,10.86c0.89,4.88,0.12,12.17-0.66,19.25
						c-0.4,3.96-0.82,7.74-0.94,11.14c12.08-6.97,19.51-17.92,25.28-26.74c0.24-0.36,0.41-0.75,0.6-1.13
						C438.12,352.81,433.49,356.57,433.49,356.57z"/>
					<path class="st19" d="M422.37,389.77c0,0-3.88-4.85-3.64-14.56c0.24-9.7,3.07-23.53,1.62-31.54
						c-1.46-8.01-6.47-23.29-5.74-27.42c0.73-4.12,3.64,0.49,4.61,2.67c0.97,2.18,7.32,16.13,7.32,16.13s-5.05-18.72-6.02-23.57
						c-0.97-4.85-1.05-10.03,1.13-8.57c2.18,1.46,8.49,19.17,9.22,24.75c0.73,5.58,2.95,6.91,2.95,6.91s-3.68-26.97-2.95-30.85
						c0.73-3.88,3.4-1.54,4.12,1.86c0.73,3.4,3.25,11.96,4.49,17.67c1.09,5.05,2.83,9.87,2.83,9.87s0.89-7.6-1.5-16.13
						c-2.04-7.3-3.4-14.56-0.97-14.8c2.43-0.24,4.07,7.99,7.52,18.2c1.28,3.8,3.19,7.23,4.82,10.87c1.72,3.86,2.04,8.23,0.46,12.12
						c-1.75,4.3-3.2,8.73-4.39,13.22c-1.7,6.44-3.06,13.16-3.31,19.84c-0.24,6.55,0.73,8.98,0.73,8.98L422.37,389.77z"/>
					<path class="st7" d="M266.09,390.22c0,0-21.35,59.52-14.23,99.31c5.58,31.21,16.17,43.83,51.11,32.51
						c34.94-11.32,21.03-74.56,17.47-85.56c-3.56-11-13.59-47.88-20.38-50.46C293.26,383.42,267.38,386.01,266.09,390.22z"/>
					<path class="st18" d="M343,367.01c0,0-41.49,53.37-60.17,80.55c-5.66,8.23-2.67,33.72-2.67,33.72s36.39-25.23,49.49-47.07
						c13.1-21.83,24.26-47.55,24.75-49.98c0.49-2.43,0.97-16.98,0.97-16.98L343,367.01z"/>
					<path class="st7" d="M345.18,368.22c0,0-65.99,87.83-66.48,92.68c-0.49,4.85-5.34,42.7,11.16,53.86
						c16.5,11.16,23.29-0.49,25.23-0.49c1.94,0,18.44-27.66,28.63-61.14c10.19-33.48,25.72-75.21,25.72-75.21
						S351.98,365.79,345.18,368.22z"/>
					<path class="st17" d="M369.44,377.92c0,0-4.02-2.78-8.94-5.42c-4.81,16.24-33.63,112.62-47.83,138.37
						c-1.54,2.78-3.48,6.67-4.89,9.05c3.78-1.55,7.4-4.89,8.64-6.13c1.38-1.37,17.11-27.18,27.3-60.66
						C353.92,419.65,369.44,377.92,369.44,377.92z"/>
					<path class="st18" d="M373.85,371.21c0,0,1.25,0.88,0.37,4.17c-0.47,1.77-1.33,7.52-4.64,7.99c-2.2,0.31-7.04-6.14-14.72-8.94
						c-8.22-2.99-14.05-1.63-15.56-2.82c-1.51-1.18,3.22-8.09,5.63-10.88c2.41-2.8,11.98-1.41,18.21,2.06
						C369.37,366.26,373.85,371.21,373.85,371.21z"/>
					<path class="st7" d="M416.18,387.86c0,0,0.32,73.77,8.93,99.48c8.61,25.71,22.5,45.04,42.92,43.14
						c20.42-1.91,20.96-32.96,11.64-54.8c-9.32-21.84-31.4-86.52-31.69-90.45c-0.3-3.93-0.58-6.2-0.58-6.2s-11.65,0.12-20.43,2.88
						C418.18,384.66,416.18,387.86,416.18,387.86z"/>
					<path class="st18" d="M445.84,372.27c0,0,1.71-0.06,3.02,3.1c0.71,1.7,3.61,6.81,0.86,9.21c-1.83,1.59-11.07-1.71-19.94,0.76
						c-9.49,2.64-13.34,8.41-15.49,8.39c-2.15-0.02-2.23-8.42-1.81-12.12c0.42-3.71,10.12-8.45,18.09-9.49
						C438.54,371.07,445.84,372.27,445.84,372.27z"/>
					<path class="st18" d="M298.12,622.48c0,0,1.94,9.22,2.91,12.62c0.97,3.4,48.52-6.31,77.15-5.34s63.08,12.13,67.93,12.62
						c4.85,0.49,3.88-17.95,2.43-18.92s-38.82-12.62-73.27-11.16C340.82,613.74,299.57,619.56,298.12,622.48z"/>
				</g>
			</g>
			<g>
				<path class="st22" d="M381.22,221.65c0.25-4.01,0.74-7.98,1.5-11.93c0.67-3.48,2.27-7.47,2-11.03c-0.06-0.76-0.5-1.33-1.29-1.4
					c-6.11-0.56-11.07,3.78-16.81,4.95c0.54,0.45,1.08,0.9,1.62,1.36c0.11-4.6-1.46-8.82-3-13.08c-0.75-2.09-1.5-4.2-1.99-6.38
					c-0.46-2.02-0.13-4.63-1.27-6.41c-0.24-0.37-0.78-0.54-1.12-0.18c-2.69,2.78-0.14,8.88,0.92,11.93
					c1.59,4.54,3.7,9.12,3.79,14.01c0.01,0.81,0.75,1.6,1.62,1.36c2.48-0.69,4.75-2,7.05-3.12c1.57-0.77,6.48-3.73,8.15-2.16
					c-0.06-0.54-0.11-1.09-0.17-1.63c-1.85,3.35-2.24,7.89-2.89,11.63c-0.7,4.09-1.02,8.17-0.37,12.29
					C379.18,223.15,381.14,222.9,381.22,221.65L381.22,221.65z"/>
			</g>
			<g>
				<path class="st22" d="M324.71,237.53c2.46,0.67,1.83-4.94,1.72-5.92c-0.41-3.55-1.37-7.16-2.56-10.52
					c-0.41-1.15-2.03-1.34-2.87-0.64c-0.91,0.76-1.3,1.8-2.15,2.57c-1.15,1.05-2.62,1.9-3.96,2.68c-2.62,1.53-5.39,2.63-8.43,2.84
					c0.41,0.38,0.81,0.76,1.21,1.14c0.29-4.82-1.04-9.29-3.31-13.52c-1.13-2.1-2.44-4.1-3.79-6.05c-1.19-1.71-2.41-3.95-4.35-4.87
					c-0.5-0.24-1,0.28-0.93,0.77c0.25,1.86,1.77,3.48,2.83,4.94c1.33,1.84,2.63,3.72,3.76,5.7c2.25,3.93,3.77,8.25,3.72,12.82
					c-0.01,0.73,0.5,1.18,1.21,1.14c3.11-0.18,6.04-1.26,8.75-2.77c1.31-0.73,2.55-1.56,3.79-2.41c1.31-0.89,2.77-1.19,4.04-2.13
					c-0.96-0.21-1.92-0.43-2.87-0.64c0.75,2.31,1.46,5.27,2.06,7.83c0.33,1.41,0.68,2.81,1.09,4.2c0.12,0.4,0.53,2.38,0.92,2.02
					C324.34,236.94,324.34,237.43,324.71,237.53L324.71,237.53z"/>
			</g>
			<g>
				<path class="st22" d="M299.28,290.67c-2.92-1.47-6.07-2.4-9.06-3.71c-3.12-1.37-5.99-3.02-8.78-4.95
					c-0.84-0.58-2.09,0.01-2.33,0.95c-0.94,3.66-2.79,7.18-4.67,10.45c-1.85,3.22-4.45,7.75-8.25,8.95
					c-3.83,1.2-7.79-2.28-10.96-3.92c-2.95-1.53-8.18-3.57-10.78-0.37c-0.39,0.48-0.32,1.32,0.39,1.47c2.3,0.5,4.57-0.11,6.88,0.66
					c2.11,0.7,4,1.94,5.95,2.98c3.35,1.8,7.1,3.16,10.71,1.23c7.47-3.99,9.39-13.66,13.63-20.22c-0.83,0.11-1.66,0.21-2.49,0.32
					c4.57,4.39,12.77,8.59,19.25,8.09C299.69,292.51,300.26,291.16,299.28,290.67L299.28,290.67z"/>
			</g>
			<path class="st5" d="M356.61,120.07c-21.37,23.39-49.66,41.78-73.15,63.09c-11.42,10.37-37.08,27.74-46.77,44.94
				c-3.01,5.34,1.74,11.87,7.68,10.36c17.4-4.41,37.02-22.57,50.31-30.13c12.3-7,24.59-15.71,37.33-22.35
				c2.39-1.25,4.68,1.86,2.76,3.75c-47.76,46.85-107.02,78.49-149.59,130.41c-16.25,19.82-14.36,29.57-14.36,55.39
				c0,24.69-5.9,111.65,13.2,130.53c20.88,20.64,56.42-5.73,76.48-17.07c26.31-14.86,51.08-31.53,75.57-49.24
				c12.01-8.69,45.83-38.27,66.84-45.84c4.06-1.46,7.81,2.94,5.68,6.69c-13.23,23.3-55.08,44.96-62.5,69.72
				c-1.02,3.39,1.82,6.67,5.31,6.06c11.38-1.97,22.19-14.28,30.63-20.38c15.04-10.87,30.69-20.45,44.93-32.43
				c26.43-22.23,53.64-43.34,80.7-64.83c11.9-9.45,17.77-18.21,26.21-4.21c9.01,14.96,6.79,42.81,8.04,59.56
				c1.13,15.19,7.37,33.66-3.29,43.48c-6.24,5.75-21.36,10.7-29.14,15.78c-11.85,7.74-23.4,16.33-34.49,25.2
				c-46.07,36.87-135.04,122.98-144.83,112.43c-6.14-6.61,54.97-51.33,60.45-77.76c0.74-3.58-2.6-6.63-6.07-5.5
				c-19.59,6.38-44.48,31.1-59.2,41.82c-20.44,14.88-40.98,29.55-60.81,45.12c-20.18,15.83-61.56,37.98-65.14,64.46
				c-2.96,21.91,6.68,8.83,9.76,30.75c3.05,21.72,5.13,43.54,7.82,65.14c3.35,27,7.8,53.64,12.92,80.23
				c9.04,1.4,20.02-3.49,27.87-8.13c30.36-17.97,85.1-68.58,98.2-56.93c4.37,3.88-31.24,20.59-22.81,29.6
				c11.39,12.16,40.71-18.38,53.86-26.69c19.08-12.05,35.29-27.44,53.06-41.35c22.76-17.81,45.77-35.15,68.57-52.64
				c9-6.9,56.36-40.49,68.1-36.06c9.07,3.43-2.39,62.89-3.69,71.56c-9.82-21.33-41.59,6.53-54.12,14.95
				c-27.34,18.37-100.38,59.06-88.15,71.76c11.23,11.67,73.66-48.6,83.38-33.86c9.8,14.86-58.81,38.96-72.06,46.6
				c-28.82,16.62-59.32,34.13-85.51,54.71c-20.69,16.26-43.01,30.21-63.49,46.43c-10.92,8.65-30.34,21.78-32.93,36.47
				c-3.28,18.63,14.16,24.49,30.8,23.09c41.36-3.48,94.3-26.04,127.99-47.43c17.92-11.38,36.27-22.26,54.14-33.53
				c13.5-8.51,42.92-35,46.49-26.98c7.01,15.77-67.38,53.71-62.39,64.34c7.05,15.02,61.54-34.76,85.18-50.84
				c18.52-12.6,35.44-24.75,56-33.39c1.25,10.03-6.85,13.38-13.9,18.7c-20.56,15.51-39.7,31.97-59.56,48.53
				c-17.63,14.71-36.89,27.18-53.93,42.71c-14.84,13.53-29,31.12-46.83,40.58c-19.11,10.13-45.2,7.52-66.28,10.74
				c-28.72,4.38-63.88,0.94-92.61,5.24c-42.77,6.41-44.63-21.16-54.64-58.13c-16.27-60.1-28.2-127.11-35.22-188.92
				c-3.01-26.55-7.74-52.38-12.22-78.66c-5.7-33.46-2.21-64.96-3.74-98.46c-2.1-46.02-8.74-91.89-10.32-137.81
				c-1.19-34.31-1.72-66.62-5.88-100.65c-1.75-14.31-5.14-29.38-6.18-43.66c-2.72-37.05,28.36-47.97,53.41-67.36
				c15.03-11.63,22.48-23.83,17.06-33.84c-3.05-5.64-2.26-12.58,2.53-16.85c28.72-25.66,54.83-40.8,87.74-60.04
				C312.17,140.62,338.73,120.05,356.61,120.07z"/>
			<g>
				<path class="st22" d="M449.95,217.88c6.43-1.32,12.5-4.03,18.45-6.73c0.48-0.22,0.67-0.87,0.55-1.34
					c-0.95-3.74-3.66-6.71-4.63-10.43c-0.19-0.74-0.26-1.59-0.55-2.3c-0.06-0.16-0.03-0.87-0.31-0.44c0.32-0.51,2.02-0.93,2.55-1.24
					c3.28-1.91,6.68-3.07,10.36-4.01c1.84-0.47,3.7-0.89,5.55-1.35c1.47-0.37,3.35-0.8,4.19-2.18c0.33-0.54-0.02-1.11-0.54-1.32
					c-1.65-0.67-3.91,0.29-5.52,0.71c-2.13,0.55-4.26,1.06-6.37,1.68c-3.85,1.13-6.99,2.94-10.38,5.02
					c-2.03,1.24-1.96,2.39-1.54,4.62c0.37,1.97,0.86,3.72,1.82,5.5c1.12,2.09,2.45,4.06,3.07,6.38c0.18-0.45,0.36-0.89,0.55-1.34
					c-5.76,2.7-11.48,5.67-17.65,7.33C448.61,216.68,449.01,218.07,449.95,217.88L449.95,217.88z"/>
			</g>
		</g>
	</g>
	<g>
		<path class="st14" d="M875.76,941.97h-1.1c0,0-2.07,9.25-14.4,13.17c-12.33,3.91-32.46,7.17-37.72,12.91
			c-5.26,5.74-1.05,9.48,12.69,8.75c13.73-0.73,20.82-4.71,36.2-2.56c15.38,2.15,20.27,5.38,28.51,0.43
			c8.25-4.95,8.52-28.59,8.52-28.59L875.76,941.97z"/>
		<path class="st14" d="M946.6,958.87c0,0,1.54,4.49-8.17,11.03c-10.9,7.35-26.29,11.57-32.08,17.91
			c-5.79,6.34-2.17,11.77,15.76,9.2c7.71-1.1,17.43-4.09,26.68-5.41c12.25-1.76,23.69-2.11,28.69-6.12
			c8.77-7.03,6.61-25.65,5.29-30.9C981.44,949.32,946.98,952.27,946.6,958.87z"/>
		<path class="st13" d="M875.76,941.97h-1.1c0,0-0.84,3.72-4.6,7.44c3.04,1.46,6.24,2.56,9.43,3.63c5.43,1.82,11.03,3.59,14.81,8.19
			c3.14,3.82,3.82,8.68,2.67,13.4c-0.14,0.58-0.31,1.14-0.49,1.71c1.11-0.4,2.25-0.94,3.47-1.67c8.25-4.95,8.52-28.59,8.52-28.59
			L875.76,941.97z"/>
		<path class="st13" d="M982.76,954.57c-1.33-5.25-35.78-2.3-36.16,4.3c0,0,0.86,2.52-2.79,6.54c6.29,0.58,12.62,1.07,18.73,2.68
			c4.76,1.25,9.95,3.28,12.66,7.67c1.94,3.16,2.02,6.94,1.19,10.46c0.39-0.24,0.75-0.48,1.08-0.75
			C986.24,978.45,984.09,959.83,982.76,954.57z"/>
		<path class="st15" d="M844.38,613.32c0,0,12.06,113.66,14.3,148.95c5.43,85.33,12.33,183.48,12.33,183.48s8.38,3.45,20.72,7.4
			s17.76,2.47,17.76,2.47s8.38-71.02,12.82-112.45c4.44-41.43,7.89-66.09,9.86-110.48c1.97-44.39,6.91-121.33,6.91-121.33
			L844.38,613.32z"/>
		<path class="st14" d="M901.87,647.7c2.68,16.21,4.18,32.62,5.59,48.98c0.78,9.06,1.5,18.13,2.3,27.18
			c0.78,8.87,1.8,17.69,2.81,26.53c2.04,17.98,3.53,36.02,5,54.05c1.24,15.29,2.62,30.57,3.97,45.86c0.27-2.45,0.53-4.86,0.77-7.15
			c4.44-41.43,7.89-66.09,9.86-110.48c0.81-18.12,2.1-41.66,3.36-63.18L901.87,647.7z"/>
		<path class="st15" d="M863.23,614.3c0,0,35.6,19.7,42.74,44.66c7.13,24.96,21.36,124.71,24.67,153.73
			c3.3,29.02,7.32,62.16,10.44,88.15c3.11,26,2.29,60.15,2.29,60.15s12.55,3.17,24.95,3.87c12.4,0.7,17.23-1.08,17.23-1.08
			s1.92-131.02,1.96-180.86c0.04-49.84-6.53-140.93-9.95-156.62c-3.41-15.69-4.53-20.1-4.53-20.1L863.23,614.3z"/>
		<path class="st14" d="M847.68,645c9.37-1.69,21.32-3.31,36.38-4.49c34.11-2.68,70.29-10.7,93.02-16.46
			c-3.03-13.85-4.04-17.85-4.04-17.85l-78.35,5.78l-41.74,4.56c0,0,0.78,0.4,2.13,1.14l-10.14,0.86
			C845.5,624.02,846.49,633.43,847.68,645z"/>
		<path class="st16" d="M850.79,245.37c0,0-20.72-12.33-41.43,7.89c-20.72,20.22-24.17,50.31-18.25,67.57
			c5.92,17.26,4.93,27.62,0.49,53.27c-4.44,25.65-2.96,39.46,12.82,57.71c15.78,18.25,63.13,29.59,105.06,21.7
			c41.92-7.89,64.12-56.23,63.63-79.41c-0.49-23.18-11.84-34.03-29.59-55.24c-17.76-21.21-18.74-53.76-29.59-68.06
			c-10.85-14.3-34.03-17.76-48.34-12.82C854.07,241.95,850.79,245.37,850.79,245.37z"/>
		<path class="st7" d="M908.49,372.3c0,0,25.98,1.97,50.31,20.39c24.33,18.41,34.53,51.62,36.83,67.08
			c2.3,15.45,0.99,38.8-12.82,50.31c-13.81,11.51-32.88-4.6-37.48-14.14c-4.6-9.54-25.98-81.88-29.59-94.04
			C912.11,389.72,908.49,372.3,908.49,372.3z"/>
		<path class="st7" d="M975.07,614.3c-1.98-0.5-36.97-4.93-56.21-4.93c-19.24,0-76.95,1.98-76.95-0.5c0-2.46-0.81-46.56-4.43-74.19
			c-0.43-3.19-0.91-7.6-1.38-12.92c-3.1-33.09-6.77-100.43-0.57-116.07c0.1-0.19,0.17-0.41,0.26-0.57c0.1-0.19,0.17-0.38,0.26-0.55
			c0.1-0.19,0.19-0.33,0.29-0.5c0.07-0.12,0.14-0.24,0.21-0.36c0.14-0.19,0.29-0.36,0.43-0.5c0.72-0.76,1.55-1.53,2.46-2.31
			c0.48-0.38,0.95-0.79,1.45-1.19c2.15-1.69,4.65-3.41,7.29-5.08c0.69-0.43,1.38-0.86,2.1-1.29l2.29-1.36
			c10.47-6.08,21.41-10.97,21.41-10.97s16.28-1.48,27.61-4.43c11.35-2.98,43.41,10.85,43.41,10.85s9.87,50.3,14.3,70.52
			c4.43,20.24,12.83,45.87,16.78,87.8C980.01,587.68,977.05,614.81,975.07,614.3z"/>
		<path class="st19" d="M868.05,367.69c0,0,3.95,9.86,1.97,17.76c-1.97,7.89-11.84,27.13,4.44,35.02
			c16.28,7.89,35.51-10.85,37.98-27.13c2.47-16.28-8.88-41.92-14.3-48.83C892.71,337.61,868.05,367.69,868.05,367.69z"/>
		<path class="st20" d="M870.22,384.46c2.7,0.37,5.44,0.52,8.17,0.36c8.33-0.48,15.97-4.18,21.61-10.3c3-3.26,5.39-7.05,7.3-11.03
			c0.05-0.1,0.09-0.21,0.13-0.31c-3.08-8.35-6.81-15.49-9.3-18.66c-5.43-6.91-30.09,23.18-30.09,23.18S871.66,376.76,870.22,384.46z
			"/>
		<path class="st19" d="M903.56,354.86c-4.43,14.8-14.3,26.15-38.48,22.69c-7.27-1.03-13.42-3.31-18.69-6.36
			c-12.28-7.08-19.83-18.21-25.7-27.18c-3.17-4.84-5.48-12.11-6.65-20.12c-1.88-13.14-0.64-28.27,5.17-38.07
			c9.37-15.78,31.09-28.61,31.09-28.61c4.43-0.5,24.17,7.39,33.04,21.19C892.21,292.23,907.99,340.08,903.56,354.86z"/>
		<path class="st16" d="M849.8,252.03c0,0,1.23,6.91-9.62,18.99c-10.85,12.08-14.55,12.08-18.99,24.17
			c-4.01,10.92-0.25,36.01,3.7,48.83c3.95,12.82,15.29,49.82,13.07,52.28c-2.22,2.47-34.77,10.6-34.28-15.78
			c0.49-26.39-3.21-78.18,0.74-91.25c3.95-13.07,7.4-21.95,13.81-27.62C824.65,255.98,848.07,250.06,849.8,252.03z"/>
		<path class="st18" d="M838.32,610.01c0.27,5.1,3.11,11.34,3.11,11.34c0.29,1.08,1.29,1.66,2.4,1.77
			c8.12,0.8,38.49,0.17,69.56-1.98c31.16-2.16,50.01-4.03,59.11-5.6c4.56-0.79,6.23-2.82,6.41-5.2c0.37-5.09,0.6-13-1.61-12.57
			c-13.67,2.69-62.5,7.3-84.94,8.73c-20.73,1.33-44.03,1.29-52.16,1.53C839.13,608.06,838.27,608.94,838.32,610.01z"/>
		<path class="st18" d="M832.05,493.46c0,0,24.17-11.34,69.54-10.36c45.38,0.99,61.65,7.89,61.65,7.89s-16.28,13.32-59.68,22.2
			C860.16,522.07,832.05,493.46,832.05,493.46z"/>
		<path class="st18" d="M852.57,391.98c-0.14,14.4-1.12,62.82-7.2,100.98c-2,12.47-5.39,21.81-9.27,28.8
			c-3.1-33.09-6.77-100.43-0.57-116.07c0.1-0.19,0.17-0.41,0.26-0.57c0.1-0.19,0.17-0.38,0.26-0.55c0.1-0.19,0.19-0.33,0.29-0.5
			c0.07-0.12,0.14-0.24,0.21-0.36c0.14-0.19,0.29-0.36,0.43-0.5c0.72-0.76,1.55-1.53,2.46-2.31c0.48-0.38,0.95-0.79,1.45-1.19
			c2.15-1.69,4.65-3.41,7.29-5.08c0.69-0.43,1.38-0.86,2.1-1.29L852.57,391.98z"/>
		<g>
			<g>
				<path class="st20" d="M845.88,313.32c2.08,4.43,4.47,8.7,6.58,13.12c0.98,2.06,2.1,4.29,2.17,6.62c0.05,1.99-1.1,3.24-2.71,4.23
					c-1.32,0.81-2.78,1.4-4.02,2.35c-0.97,0.75-2.24,2.02-2.2,3.35c0.1,2.77,4.46,2.35,6.17,1.94c1.9-0.46,3.77-1.06,5.57-1.82
					c1.66-0.7,3.57-1.55,4.72-2.99c0.32-0.4-0.18-0.93-0.57-0.57c-2.5,2.31-5.8,3.53-9.04,4.44c-1.54,0.43-3.3,0.95-4.88,0.44
					c-2.49-0.81-0.78-3.18,0.59-4.23c2.05-1.57,5.06-2.18,6.48-4.5c1.74-2.84-0.23-6.63-1.52-9.25c-2.22-4.51-4.58-8.93-6.91-13.38
					C846.17,312.77,845.75,313.03,845.88,313.32L845.88,313.32z"/>
			</g>
		</g>
		<g>
			<path class="st20" d="M844.77,340.29c-0.91,4.96-0.12,12.37,0.67,19.57c0.41,4.03,0.83,7.87,0.95,11.32
				c-12.28-7.08-19.83-18.21-25.7-27.18c-3.17-4.84-1.92-11.16-3.09-19.17c0.24-2.46,0.51-4.25,0.87-6.87
				c0.88-6.36,1.66-14.03,1.54-18.41c1.13-1.79,2.37-2.88,3.66-2.88c0.86,0.1,1.38,0.38,1.76,0.88c1.05,1.41,0.6,4.03-0.33,8.94
				c-0.38,2.03-0.83,4.29-1.12,6.58c-0.12,0.93-0.21,1.86-0.29,2.79c0.69-3.43,1.76-7.2,2.62-10.2c0.55-1.91,1-3.55,1.24-4.58
				c0.5-2.43,2.03-4.89,3.93-4.89c0.76,0,2.1,0.41,2.6,3.03c0.38,2.03,0.05,9.49-0.41,16.66c2.29-7.41,5.94-16.93,7.94-18.26
				c0.45-0.31,0.91-0.45,1.33-0.45c0.57,0,1.1,0.26,1.48,0.72c1.53,1.86,0.62,7.39,0.17,9.68c-0.36,1.72-1,5.1-1.72,8.8
				c0.33-0.91,0.6-1.57,0.76-1.95c0.38-0.86,2.38-5.1,4.67-5.1c0.83,0,1.88,0.45,2.29,2.67c0.5,2.88-1.31,9.87-3.22,17.26
				C846.32,333.4,845.32,337.31,844.77,340.29z"/>
			<path class="st19" d="M841.17,385.94c0,0,3.95-4.93,3.7-14.8c-0.25-9.86-3.12-23.92-1.64-32.06c1.48-8.14,6.58-23.67,5.84-27.87
				c-0.74-4.19-3.7,0.49-4.69,2.71c-0.99,2.22-5.92,16.28-5.92,16.28s3.62-18.91,4.6-23.84c0.99-4.93,1.07-10.19-1.15-8.71
				c-2.22,1.48-8.63,19.48-9.37,25.15c-0.74,5.67-1.48,6.91-1.48,6.91s2.22-27.29,1.48-31.24c-0.74-3.95-3.45-1.56-4.19,1.89
				c-0.74,3.45-3.95,12.82-4.44,18.74c-0.49,5.92-1.48,9.12-1.48,9.12s-0.99-8.63,0-16.28c0.99-7.65,3.45-14.8,0.99-15.04
				c-2.47-0.25-6.17,7.65-7.65,18.5c-1.48,10.85-2.22,21.95-1.23,31.57c0.99,9.62,3.45,18.74,3.7,25.4
				c0.25,6.66-0.74,9.12-0.74,9.12L841.17,385.94z"/>
			<path class="st7" d="M815.11,377.56c0,0,11.84-2.63,20.72,0c8.88,2.63,15.13,11.18,15.13,11.18s-1.32,106.21-17.76,127.58
				c-16.44,21.37-38.47,7.89-41.76-15.78c-3.29-23.67,11.84-84.18,16.77-100.62C813.14,383.48,815.11,377.56,815.11,377.56z"/>
			<path class="st17" d="M801.47,481.63c2.51-34.27,15.99-89.06,20.05-105c-3.74,0.34-6.4,0.93-6.4,0.93s-1.97,5.92-6.91,22.36
				c-4.93,16.44-20.06,76.94-16.77,100.62c1.45,10.45,6.55,18.9,13.21,23.26C801.5,516.02,799.83,503.92,801.47,481.63z"/>
			<path class="st18" d="M817.5,368.19c0,0-1.83-0.08-3.21,3.12c-0.74,1.73-3.79,6.9-0.82,9.37c1.97,1.64,11.85-1.63,21.37,0.99
				c10.19,2.79,14.39,8.71,16.69,8.71s2.3-8.55,1.81-12.33c-0.49-3.78-10.93-8.71-19.48-9.86
				C825.3,367.03,817.5,368.19,817.5,368.19z"/>
		</g>
		<g>
			<path class="st20" d="M858.5,361.34c0.78-3.67,0.99-7.84,5.03-9.45c2.15-0.86,4.6-0.83,6.77-0.08c1.05,0.36,2.01,0.9,2.93,1.51
				c0.98,0.65,1.86,1.76,3,2.05c0.94,0.24,1.76-0.61,1.54-1.53c-0.33-1.35-1.94-2.37-3.06-3.05c-1.21-0.74-2.6-1.31-3.98-1.66
				c-2.7-0.68-5.54-0.67-8.14,0.41c-2.18,0.9-3.92,2.54-4.89,4.71c-0.47,1.06-0.76,2.14-0.93,3.29c-0.2,1.36-0.16,2.48,0.11,3.82
				C857.05,362.14,858.33,362.13,858.5,361.34L858.5,361.34z"/>
		</g>
		<path class="st16" d="M849.8,248.33c0,0-6.41,10.11-6.17,13.07c0.25,2.96,30.09,39.46,39.7,51.3
			c9.62,11.84,29.35,40.94,33.54,40.44c4.19-0.49-12.33-70.78-19.98-81.14c-7.65-10.36-27.13-21.95-29.35-22.44
			C865.34,249.07,849.8,248.33,849.8,248.33z"/>
		<g>
			<path class="st20" d="M903.56,354.86c2.36-7.87-1.01-25.1-6.01-41.58c-5.79-10.54-13.73-23.26-19.35-28.04
				c-3.19-2.71-5.93-4.15-7.93-4.15c-1.02,0-1.85,0.39-2.33,1.09c-0.52,0.75-0.58,1.75-0.18,2.83c0.51,1.36,2.35,3.76,5.3,7.57
				c0.55,0.71,1.11,1.43,1.68,2.17c-0.71-0.8-1.41-1.55-2.06-2.2c-3.82-3.82-8.82-7.89-11.42-7.89c-0.81,0-1.27,0.36-1.52,0.66
				c-1.87,2.27,1.21,6.06,5.1,10.85c1.61,1.98,3.27,4.03,4.35,5.75c0.57,0.9,1.19,1.91,1.83,2.94c-2.46-2.52-5.2-5.15-7.87-7.37
				c-5.4-4.5-7.52-5.02-8.65-5.02c-0.93,0-1.49,0.41-1.79,0.76c-0.52,0.6-0.7,1.46-0.54,2.55c0.26,1.79,3.38,5.23,8.49,10.68
				c1.75,1.87,3.41,3.63,4.35,4.78c0.22,0.27,0.44,0.55,0.66,0.84c-3.63-3.16-7.8-6.46-10.19-7.32c-0.52-0.19-0.97-0.28-1.37-0.28
				c-0.88,0-1.57,0.45-1.84,1.22c-0.96,2.66,4.29,9.15,6.86,11.29c3.9,3.25,7.16,7.39,8.37,9.81c0.24,0.48,0.76,1.8,1.41,3.47
				c2.77,7.07,8.53,21.79,14.04,26.19c5.18,4.14,9.05,5,10.77,5.16l2.75,7.07C899.74,364.83,902,360.07,903.56,354.86z"/>
			<path class="st19" d="M914.74,357.17c0,0-8.22-24.66-14.14-36.5s-16.44-29.59-23.02-35.18c-6.58-5.59-9.54-4.19-8.55-1.56
				c0.99,2.63,9.21,11.76,12.82,18c3.62,6.25,4.6,9.21,4.6,9.21s-8.88-12.82-14.47-18.41c-5.59-5.59-10.29-8.39-11.18-7.32
				c-1.89,2.3,6.25,9.95,9.54,15.21c3.29,5.26,8.55,13.81,8.55,13.81s-8.47-10.11-16.36-16.69s-9.37-5.1-9.04-2.79
				c0.33,2.3,9.62,11.26,12.58,14.88c2.96,3.62,5.92,8.88,5.92,8.88s-12.17-11.84-16.77-13.48c-4.6-1.64,0.86,6.91,4.81,10.19
				c3.95,3.29,7.36,7.56,8.67,10.19c1.32,2.63,8.55,24,15.13,29.26c6.58,5.26,10.85,4.93,10.85,4.93l4.6,11.84l16.44-9.21
				L914.74,357.17z"/>
			<path class="st18" d="M959.3,457.95c-1.43-6.52-3.43-16.18-5.48-26.26c-18.7-19.54-42.63-44.12-53.13-54.9
				c-1.49,0.37-3.04,0.72-4.63,1.04c2.56,22.41,11.7,96.22,23.61,120.4c11.18,22.69,29.59,32.55,48.99,31.57
				c2.04-0.1,3.85-0.24,5.54-0.39C969.89,496.91,963.13,475.4,959.3,457.95z"/>
			<path class="st18" d="M923.54,394.08c8.88,14.3,58.2,88.29,58.2,88.29s-1.48-17.26-17.51-47.6
				c-8.19-15.5-25.77-46.77-31.24-56.32c-9.58-3.67-17.54-5.2-21.59-5.8C912.25,375.22,916.04,382,923.54,394.08z"/>
			<path class="st7" d="M895.34,371.31c0,0,9.86,63.13,18.08,90.75c8.22,27.62,19.4,49.65,37.16,56.23
				c17.76,6.58,31.9-4.6,37.16-13.48c5.26-8.88-8.55-35.18-19.07-54.91s-41.1-72.01-45.71-80.23c-4.6-8.22-8.22-12.49-8.22-12.49
				S898.3,368.35,895.34,371.31z"/>
			<path class="st17" d="M927.24,471.27c-14.82-42.47-21.84-89.82-23.95-106.1c-3.52,2.53-6.78,4.97-7.95,6.14
				c0,0,9.86,63.13,18.08,90.75c8.22,27.62,19.4,49.65,37.16,56.23c1.09,0.4,2.16,0.74,3.22,1.01
				C945.45,510.01,935.53,495.03,927.24,471.27z"/>
			<path class="st18" d="M890.99,366.4c0,0-1.29,0.74-0.71,4.15c0.31,1.84,0.67,7.71,3.85,8.56c2.12,0.57,7.37-5.37,15.09-7.3
				c8.26-2.06,13.83-0.03,15.39-1.05c1.57-1.02-2.46-8.5-4.57-11.59c-2.12-3.09-11.55-2.79-17.91-0.01
				C895.77,361.94,890.99,366.4,890.99,366.4z"/>
		</g>
	</g>
	<path class="st23" d="M600.58,958.1c-2.87-24.89-94.17-790.84-95.09-798.57l-0.35-1.49l0.15-2.35
		c-0.27-11.63-6.95-11.98-10.17-12.14c-36.04-1.85-122.61-1.9-126.53-1.9c-4.5,0.04-113.13,1.05-169.75,1.05l-9.14-0.01
		c-2.94,0-4.96,0.22-6.25,0.45c-0.13,0.93-0.24,2.26-0.3,4.08c0.03,0,0.05,0,0.08,0l9.14,0.01c56.62,0,165.25-1.01,169.75-1.05
		c3.91,0,90.49,0.06,126.53,1.9c3.22,0.16,9.9,0.51,10.17,12.14l-0.15,2.35l0.35,1.49c0.92,7.73,92.22,773.68,95.09,798.57
		c0.08,0.67,0.09,1.26,0.07,1.82c2.03,0.02,3.51,0.05,4.6,0.08C599.75,963.76,601.03,962,600.58,958.1z"/>
	<g>
		<g>
			<g>
				<g>
					<g>
						<g>
							<path class="st0" d="M993.07,263.03l10.92-33.59l14.43,4.74c0.38,0.12,0.65,0.42,0.76,0.77c0.07,0.22,0.07,0.46-0.01,0.7
								l-10.2,31.36c-0.06,0.19-0.17,0.36-0.31,0.49c-0.03,0.03-0.06,0.05-0.08,0.07c-0.06,0.05-0.12,0.09-0.19,0.12
								c-0.27,0.14-0.58,0.17-0.89,0.07L993.07,263.03z"/>
						</g>
					</g>
				</g>
				<g>
					<g>
						<path class="st0" d="M956.57,245.79c0.09-0.14,0.18-0.27,0.29-0.4c0.38-0.48,0.86-0.91,1.45-1.26
							c0.11-0.06,0.22-0.12,0.33-0.18c0.46-0.24,0.97-0.42,1.53-0.55c-0.58-0.97-0.9-2.26-0.25-3.8c0.04-0.09,0.08-0.18,0.13-0.28
							c0.05-0.09,0.1-0.19,0.15-0.28c0.05-0.1,0.11-0.19,0.17-0.29c0,0,0,0,0,0c0.06-0.1,0.13-0.19,0.2-0.29
							c0.17-0.25,0.37-0.5,0.6-0.75c0.34-0.38,0.73-0.68,1.17-0.9c0.73-0.38,1.57-0.56,2.46-0.6c-0.65-1.06-1.48-3.08-0.37-5.62
							c0.16-0.36,0.35-0.72,0.59-1.1c0.26-0.42,0.59-0.76,0.97-1.02c0.03-0.02,0.07-0.05,0.1-0.07c0.14-0.09,0.29-0.18,0.44-0.25
							c0.62-0.3,1.32-0.47,2.07-0.54c-0.07-0.08-0.14-0.16-0.21-0.25c-0.04-0.06-0.09-0.12-0.13-0.17
							c-0.13-0.18-0.26-0.38-0.37-0.59c-0.04-0.07-0.07-0.14-0.1-0.21c0,0,0,0,0,0c-0.05-0.11-0.09-0.22-0.13-0.34
							c-0.03-0.08-0.05-0.16-0.07-0.24c-0.02-0.08-0.04-0.16-0.05-0.25c-0.1-0.6-0.04-1.27,0.27-2.02c0.07-0.17,0.16-0.35,0.26-0.53
							c0.1-0.18,0.22-0.37,0.35-0.56c0.06-0.09,0.13-0.18,0.2-0.27c0.04-0.04,0.07-0.09,0.11-0.12c0.07-0.08,0.15-0.16,0.23-0.23
							c0.16-0.15,0.33-0.28,0.51-0.4c0.13-0.09,0.27-0.17,0.42-0.25c0.15-0.08,0.29-0.14,0.45-0.21c0.05-0.02,0.1-0.04,0.15-0.06
							c0.1-0.04,0.21-0.07,0.32-0.11c0.21-0.07,0.43-0.12,0.66-0.17c0.17-0.03,0.34-0.06,0.51-0.09c0.41-0.06,0.82-0.08,1.24-0.09
							l0.73,0.01c0.36,0.02,0.73,0.05,1.09,0.09c0.12,0.01,0.24,0.03,0.36,0.04c0.36,0.05,0.71,0.11,1.05,0.17
							c0.11,0.02,0.22,0.04,0.34,0.07l0.49,0.11c0.11,0.02,0.21,0.05,0.31,0.07c0.05,0.01,0.1,0.02,0.15,0.04
							c0.1,0.03,0.2,0.05,0.3,0.08c0.19,0.05,0.38,0.1,0.56,0.15c1.13,0.32,1.88,0.61,1.88,0.61l16.31,5.3l0.01-0.02l4.13,1.34
							l-10.93,33.61c-1.51-0.49-3.22-0.39-4.53-0.18c-1.23,0.2-2.1,0.5-2.11,0.5c-1.77,0.71-4.01,1.75-6.36,3.18
							c-5.3,3.24-6.82,7.37-8.11,9.39c0,0-0.01,0.01-0.02,0.03c-0.65,1-1.24,1.47-2.24,1.03c-2.8-1.27-5.77-7.35,4.91-19.57
							c-1.12-0.27-2.63-0.66-4.28-1.13c-0.09-0.02-0.17-0.05-0.26-0.07c-0.01,0-0.02-0.01-0.03-0.01c-0.06-0.02-0.11-0.03-0.16-0.05
							c-0.94-0.27-1.9-0.56-2.86-0.87c-0.59-0.19-1.17-0.39-1.74-0.59c-2.3-0.83-4.32-1.73-5.28-2.62
							c-0.31-0.28-0.55-0.62-0.74-0.99c-0.02-0.04-0.04-0.08-0.06-0.13c-0.04-0.08-0.07-0.17-0.11-0.26
							c-0.08-0.22-0.14-0.44-0.18-0.67c-0.02-0.09-0.03-0.19-0.04-0.28C955.71,247.82,955.96,246.74,956.57,245.79z"/>
					</g>
				</g>
			</g>
		</g>
	</g>
	<g>
		<g>
			<polygon class="st0" points="830.4,173.03 836.68,160.72 799.33,141.66 787.26,165.31 735.65,138.98 740.34,129.82 
				782.78,151.48 794.85,127.83 841.36,151.56 848.53,137.5 863.05,167.3 			"/>
		</g>
	</g>
	<g class="st24">
		<path class="st10" d="M183.32,145.25c0.02-0.29,0.05-0.55,0.07-0.79C183.36,144.7,183.34,144.96,183.32,145.25z"/>
		<path class="st10" d="M183.24,146.35c0.02-0.36,0.04-0.69,0.07-1C183.28,145.66,183.26,145.99,183.24,146.35z"/>
		<path class="st11" d="M594.3,962.18c-2.87-24.86-94.2-789.98-95.12-797.71l-0.35-1.49l0.15-2.35
			c-0.27-11.62-6.95-11.96-10.18-12.13c-36.05-1.85-122.66-1.9-126.57-1.9c-4.5,0.04-113.17,1.05-169.81,1.05l-9.15-0.01
			c-0.03,0-0.05,0-0.08,0c0.02-0.44,0.03-0.86,0.05-1.24c-0.08,1.5-0.12,3.41-0.08,5.89c0.24,15.01,2.18,33.83,3.73,48.96
			c4.57,44.5,79.64,715.1,84.25,743.89c1.71,10.67,6.15,16.85,9.47,17.24c8.32,0.98,37.56,2.14,129.58,2.14
			c39.13,0,80.83-0.2,114.34-0.36c23.89-0.12,44.2-0.21,57.73-0.21c5.52,0,9.35,0.02,12.12,0.04
			C594.39,963.44,594.38,962.85,594.3,962.18z"/>
		<path class="st10" d="M183.4,144.32c0.03-0.27,0.06-0.52,0.09-0.74C183.46,143.8,183.43,144.05,183.4,144.32z"/>
		<path class="st10" d="M597.33,964.03c-0.13,0-0.24,0-0.38-0.01C597.08,964.03,597.2,964.03,597.33,964.03z"/>
		<path class="st10" d="M595.86,964.01c-0.04,0-0.07,0-0.11,0C595.79,964.01,595.82,964.01,595.86,964.01z"/>
		<path class="st10" d="M598.97,964.07c-0.29-0.01-0.61-0.02-0.96-0.02C598.36,964.06,598.68,964.06,598.97,964.07z"/>
	</g>
</g>
<g>
</g>
<g>
</g>
<g>
</g>
<g>
</g>
<g>
</g>
<g>
</g>
</svg>
