<?xml version="1.0" encoding="utf-8"?>
<!-- Generator: Adobe Illustrator 24.0.1, SVG Export Plug-In . SVG Version: 6.00 Build 0)  -->
<svg version="1.1" id="圖層_1" xmlns="http://www.w3.org/2000/svg" xmlns:xlink="http://www.w3.org/1999/xlink" x="0px" y="0px"
	 viewBox="0 0 1080 1080" style="enable-background:new 0 0 1080 1080;" xml:space="preserve">
<style type="text/css">
	.st0{fill:#A8A6A5;}
	.st1{fill:#6D6B6A;}
	.st2{fill:#989593;}
	.st3{fill:#B7B4B2;}
	.st4{fill:#F9DACE;}
	.st5{fill:#999898;}
	.st6{fill:#6D341B;}
	.st7{fill:#332418;}
	.st8{fill:#72706F;}
	.st9{fill:#4C4B4A;}
	.st10{fill:#A49E99;}
	.st11{fill:#B5B4B4;}
	.st12{fill:#79746F;}
	.st13{fill:#FFFFFF;}
	.st14{fill:#5D5B58;}
	.st15{fill:#887F7A;}
	.st16{fill:#625D58;}
	.st17{fill:#C0B8B1;}
</style>
<g>
	<g>
		<g>
			<g>
				<path class="st0" d="M176.36,158.31c-6.96-2.08-12.11,7.16-8.18,12.63c4.3,5.97,12.69,4.51,17.69,0.38
					c4.13-3.41,6.47-9.07,6.3-14.39c-0.18-5.89-3.33-11.22-8.47-14.15c-5.5-3.13-12.52-3.38-18.03-0.16
					c-1.9,1.11-2.74,3.84-1.51,5.75c1.23,1.91,3.72,2.69,5.75,1.51c0.39-0.23,0.8-0.41,1.2-0.63c0.53-0.29-0.96,0.29-0.03,0.03
					c0.19-0.05,0.38-0.13,0.57-0.18c0.38-0.11,0.77-0.21,1.16-0.29c0.09-0.02,0.47-0.13,0.59-0.1c-0.62,0.08-0.7,0.09-0.23,0.04
					c0.1-0.01,0.2-0.01,0.3-0.02c0.45-0.03,0.9-0.03,1.35-0.02c0.2,0.01,0.4,0.02,0.6,0.03c0.37,0.02,0.85-0.15-0.07-0.03
					c0.78-0.09,1.91,0.39,2.64,0.64c0.08,0.03,0.48,0.12,0.57,0.21c-0.37-0.37-0.56-0.27-0.17-0.07c0.4,0.2,0.81,0.4,1.2,0.63
					c0.24,0.14,0.99,0.46,1.13,0.73c-0.03-0.05-0.75-0.64-0.14-0.11c0.23,0.2,0.45,0.39,0.67,0.6c0.29,0.28,0.55,0.58,0.82,0.87
					c0.53,0.56-0.02-0.09-0.1-0.15c0.17,0.14,0.3,0.43,0.43,0.62c0.25,0.38,0.45,0.79,0.67,1.18c0.14,0.25,0.43,0.5-0.06-0.18
					c0.14,0.19,0.23,0.62,0.3,0.85c0.12,0.38,0.22,0.77,0.31,1.16c0,0.01,0.14,0.53,0.11,0.59c0.19-0.34-0.06-0.79-0.02-0.08
					c0.05,0.75,0.3,2.15-0.05,2.85c0.03-0.06,0.19-1.02,0.02-0.22c-0.04,0.2-0.08,0.39-0.12,0.59c-0.09,0.39-0.19,0.78-0.31,1.17
					c-0.07,0.24-0.16,0.48-0.24,0.71c-0.05,0.14-0.32,0.74-0.07,0.2c0.29-0.63-0.14,0.27-0.17,0.32c-0.11,0.22-0.23,0.45-0.36,0.66
					c-0.22,0.39-0.48,0.76-0.72,1.14c-0.18,0.28-0.16,0.53,0.12-0.13c-0.06,0.13-0.28,0.34-0.39,0.46c-0.3,0.34-0.61,0.66-0.94,0.96
					c-0.16,0.14-0.37,0.41-0.57,0.49c0.41-0.16,0.5-0.34,0.01-0.03c-0.38,0.24-0.78,0.46-1.16,0.69c-0.18,0.11-0.72,0.3,0.13-0.02
					c-0.2,0.08-0.41,0.15-0.61,0.22c-0.47,0.15-0.95,0.25-1.43,0.35c-0.59,0.13,0.75-0.01,0.15-0.04c-0.3-0.02-0.66-0.02-0.96,0.01
					c-0.57,0.04,0.7,0.24,0.18,0.04c-0.23-0.08-0.66-0.23-0.9-0.23c-0.53,0,0.64,0.3,0.16,0.07c-0.14-0.07-0.27-0.14-0.4-0.23
					c0.39,0.33,0.47,0.4,0.24,0.2c-0.2-0.23-0.61-0.28-0.19-0.12c0.19,0.28,0.19,0.27,0.01-0.01c-0.16-0.31-0.16-0.3,0,0.05
					c0.31,0.49,0.08,0.13,0.02-0.1c-0.09-0.35,0,1.04,0.06,0.11c0.04-0.54-0.28,0.85-0.06,0.35c0.09-0.2,0.18-0.53,0.21-0.74
					c0.08-0.53-0.34,0.78-0.11,0.31c0.39-0.79-0.32,0.23-0.09,0.04c0.11-0.1,0.24-0.22,0.34-0.34c0.24-0.21,0.11-0.11-0.38,0.31
					c0.3-0.16,0.26-0.15-0.09,0.01c-0.83,0.39,0.53-0.04-0.41,0.11c-0.41,0.04-0.44,0.06-0.1,0.05c-0.72-0.12-0.85-0.12-0.4,0
					c2.11,0.63,4.67-0.75,5.17-2.94C179.81,161.22,178.61,158.98,176.36,158.31L176.36,158.31z"/>
			</g>
		</g>
		<g>
			<g>
				<path class="st0" d="M912.32,779.63c-0.32-0.06-0.62-0.15-0.93-0.23c-0.72-0.19,0.82,0.48,0.15,0.06
					c-0.15-0.09-0.41-0.32-0.58-0.36c0.54,0.44,0.65,0.52,0.32,0.24c-0.11-0.1-0.22-0.2-0.33-0.31c-0.29-0.3-0.4-0.78,0.06,0.16
					c-0.12-0.23-0.31-0.45-0.45-0.68c-0.13-0.22-0.22-0.55-0.38-0.73c0.47,0.54,0.26,0.68,0.07,0.11c-0.18-0.54-0.22-1.14-0.4-1.67
					c0.32,0.93,0.07,0.6,0.05,0.12c-0.02-0.29-0.02-0.59-0.01-0.88c0.01-0.27,0.1-0.62,0.06-0.88c0.13,0.75-0.12,0.71,0.01,0.12
					c0.06-0.29,0.13-0.57,0.22-0.85c0.04-0.12,0.07-0.24,0.11-0.36c0.16-0.42,0.11-0.32-0.15,0.31c0.34-0.45,0.58-1.08,0.89-1.57
					c0.47-0.72-0.51,0.51,0.13-0.16c0.22-0.23,0.42-0.47,0.65-0.7c0.3-0.3,0.62-0.57,0.93-0.86c0.63-0.59-0.63,0.41,0.15-0.13
					c0.62-0.43,1.23-0.84,1.89-1.21c0.56-0.32,1.14-0.62,1.73-0.9c0.39-0.19,0.79-0.37,1.2-0.54c-0.97,0.42,0.07-0.02,0.22-0.07
					c1.43-0.56,2.88-1.04,4.34-1.52c2.09-0.68,3.66-2.94,2.94-5.17c-0.67-2.08-2.93-3.67-5.17-2.94
					c-7.11,2.33-15.17,5.51-17.83,13.21c-2.16,6.26,0.72,15.15,7.9,16.47c2.16,0.4,4.64-0.59,5.17-2.94
					C915.72,782.74,914.63,780.06,912.32,779.63L912.32,779.63z"/>
			</g>
		</g>
		<g>
			<g>
				<path class="st0" d="M928.88,452.18c0.2,1.38,0.04,0.19,0.02-0.12c-0.01-0.25-0.02-0.49-0.02-0.74c0-0.25,0.01-0.49,0.02-0.74
					c0.01-0.16,0.02-0.33,0.04-0.49c0.05-0.45,0.03-0.33-0.06,0.39c0.33-1,0.45-2.06,0.83-3.07c0.29-0.77-0.43,0.92,0.02-0.01
					c0.12-0.26,0.25-0.52,0.39-0.77c0.26-0.47,0.54-0.93,0.84-1.37c0.15-0.23,0.39-0.46,0.5-0.71c-0.38,0.82-0.33,0.42-0.04,0.07
					c0.38-0.44,0.77-0.87,1.19-1.27c0.4-0.38,0.97-0.72,1.31-1.15c-0.15,0.12-0.3,0.24-0.46,0.35c0.13-0.1,0.27-0.2,0.4-0.29
					c0.2-0.14,0.41-0.28,0.62-0.41c0.49-0.31,0.99-0.6,1.51-0.85c0.2-0.1,0.49-0.18,0.67-0.31c-0.63,0.26-0.74,0.31-0.32,0.14
					c0.15-0.06,0.31-0.12,0.46-0.17c0.46-0.16,0.93-0.3,1.41-0.42c0.32-0.08,0.64-0.13,0.96-0.2c0.87-0.18-1.04,0.08-0.15,0.02
					c0.57-0.04,1.14-0.08,1.71-0.06c0.25,0.01,0.49,0.03,0.74,0.05c0.76,0.05-1.07-0.19,0.12,0.02c2.16,0.39,4.63-0.59,5.17-2.94
					c0.47-2.06-0.62-4.75-2.94-5.17c-6.32-1.15-12.56,0.99-17.16,5.43c-2.27,2.19-3.92,4.84-5.06,7.77
					c-1.16,2.97-1.28,6.11-0.83,9.23c0.14,0.97,1.13,2.04,1.93,2.51c0.9,0.53,2.23,0.75,3.24,0.42c1.02-0.33,2-0.96,2.51-1.93
					C929.02,454.35,929.05,453.36,928.88,452.18L928.88,452.18z"/>
			</g>
		</g>
		<g>
			<g>
				<path class="st0" d="M390.15,604.75c0.36,0.18,0.72,0.37,1.06,0.58c0.29,0.18,0.8,0.4,1,0.67c-0.18-0.14-0.35-0.28-0.53-0.41
					c0.11,0.08,0.21,0.17,0.31,0.25c0.13,0.11,0.25,0.22,0.38,0.33c0.3,0.27,0.59,0.55,0.86,0.85c0.25,0.27,0.47,0.57,0.72,0.84
					c-0.95-1.06-0.07-0.06,0.16,0.3c0.44,0.68,0.81,1.4,1.14,2.14c-0.14-0.33-0.28-0.67-0.42-1c0.5,1.18,0.84,2.41,1.02,3.68
					c-0.05-0.37-0.1-0.74-0.15-1.12c0.13,1.07,0.15,2.14,0.03,3.21c-0.11,1,0.55,2.29,1.23,2.97c0.73,0.73,1.92,1.28,2.97,1.23
					c1.09-0.05,2.21-0.41,2.97-1.23c0.8-0.87,1.1-1.8,1.23-2.97c0.78-7.01-3.43-14.48-9.74-17.58c-1.97-0.97-4.64-0.6-5.75,1.51
					C387.64,600.89,388.04,603.72,390.15,604.75L390.15,604.75z"/>
			</g>
		</g>
		<g>
			<g>
				<path class="st0" d="M443.31,810.69c0.12-0.16,0.24-0.33,0.35-0.49c0.3-0.43-0.56,0.67-0.21,0.28c0.24-0.27,0.46-0.56,0.71-0.83
					c0.49-0.54,1.01-1.04,1.55-1.52c0.12-0.11,0.24-0.21,0.37-0.31c0.12-0.1,0.7-0.56,0.14-0.12c-0.52,0.41-0.06,0.05,0.06-0.03
					c0.16-0.12,0.33-0.23,0.5-0.35c0.6-0.4,1.23-0.78,1.87-1.11c0.29-0.15,0.58-0.29,0.87-0.43c0.09-0.04,0.85-0.38,0.16-0.08
					c-0.62,0.27-0.08,0.04,0.06-0.01c0.68-0.26,1.37-0.48,2.07-0.66c0.35-0.09,0.7-0.17,1.06-0.24c0.2-0.04,0.4-0.07,0.59-0.11
					c0.15-0.02,0.75-0.11,0.04-0.01c-0.77,0.11,0.05,0,0.16-0.01c0.16-0.01,0.32-0.03,0.48-0.04c0.4-0.03,0.81-0.04,1.21-0.04
					c2.2-0.01,4.3-1.93,4.2-4.2c-0.1-2.27-1.85-4.21-4.2-4.2c-7.74,0.02-14.89,3.97-19.3,10.26c-1.27,1.81-0.39,4.75,1.51,5.75
					C439.71,813.34,441.95,812.62,443.31,810.69L443.31,810.69z"/>
			</g>
		</g>
		<g>
			<g>
				<path class="st0" d="M579.3,103.15c0.68,3.28,1.36,6.57,2.05,9.85c0.21,0.99,1.08,2.01,1.93,2.51c0.9,0.53,2.23,0.75,3.24,0.42
					c1.02-0.33,2-0.96,2.51-1.93c0.55-1.04,0.66-2.09,0.42-3.24c-0.68-3.28-1.36-6.57-2.05-9.85c-0.21-0.99-1.08-2.01-1.93-2.51
					c-0.9-0.53-2.23-0.75-3.24-0.42c-1.02,0.33-2,0.96-2.51,1.93C579.18,100.95,579.06,101.99,579.3,103.15L579.3,103.15z"/>
			</g>
		</g>
		<g>
			<g>
				<path class="st0" d="M748.42,49.68c1.37-1.45,2.8-2.85,4.3-4.16c0.75-0.66,1.52-1.29,2.3-1.91c0.36-0.29,0.2-0.18-0.06,0.05
					c0.21-0.18,0.44-0.34,0.67-0.5c0.4-0.3,0.81-0.59,1.21-0.88c3.27-2.29,6.77-4.25,10.43-5.85c2.02-0.89,2.64-4,1.51-5.75
					c-1.35-2.09-3.59-2.45-5.75-1.51c-7.73,3.39-14.77,8.41-20.55,14.56c-1.51,1.6-1.71,4.38,0,5.94
					C744.12,51.18,746.82,51.39,748.42,49.68L748.42,49.68z"/>
			</g>
		</g>
		<g>
			<g>
				<path class="st0" d="M613.29,395.16c0.29-0.95,0.62-1.89,0.98-2.81c0.04-0.1,0.08-0.19,0.12-0.29c0.12-0.29,0.08-0.19-0.12,0.28
					c-0.02-0.12,0.2-0.46,0.25-0.57c0.19-0.43,0.39-0.86,0.6-1.28c0.88-1.78,1.9-3.5,3.04-5.12c0.27-0.38,0.52-0.8,0.83-1.14
					c-0.2,0.22-0.39,0.49-0.08,0.11c0.16-0.2,0.33-0.41,0.5-0.61c0.64-0.76,1.3-1.5,1.99-2.22c0.66-0.68,1.34-1.33,2.04-1.95
					c0.39-0.35,0.79-0.69,1.2-1.02c0.11-0.09,0.35-0.37,0.49-0.39c-0.4,0.3-0.47,0.36-0.23,0.18c0.12-0.09,0.25-0.19,0.38-0.28
					c1.76-1.31,2.83-3.7,1.51-5.75c-1.12-1.74-3.86-2.91-5.75-1.51c-7.51,5.57-13.08,13.2-15.85,22.15
					c-0.65,2.1,0.77,4.68,2.94,5.17C610.4,398.61,612.59,397.41,613.29,395.16L613.29,395.16z"/>
			</g>
		</g>
		<g>
			<g>
				<path class="st0" d="M74.31,521.48c0.15,0.31,0.3,0.63,0.44,0.95c-0.14-0.33-0.28-0.67-0.42-1c0.73,1.75,1.23,3.57,1.5,5.44
					c-0.05-0.37-0.1-0.74-0.15-1.12c0.24,1.81,0.25,3.63,0.04,5.44c-0.12,1,0.55,2.3,1.23,2.97c0.73,0.73,1.92,1.28,2.97,1.23
					c1.09-0.05,2.21-0.41,2.97-1.23c0.22-0.28,0.44-0.57,0.66-0.85c0.38-0.66,0.57-1.36,0.57-2.12c0.57-4.79-0.47-9.63-2.55-13.95
					c-0.44-0.91-1.57-1.67-2.51-1.93c-1.01-0.28-2.35-0.15-3.24,0.42c-0.9,0.58-1.69,1.44-1.93,2.51
					C73.62,519.39,73.79,520.42,74.31,521.48L74.31,521.48z"/>
			</g>
		</g>
		<g>
			<g>
				<path class="st0" d="M187,318.18c0.09-0.23,0.18-0.46,0.28-0.69c0.14-0.35,0.17-0.39,0.01-0.02c0.22-0.51,0.44-1.02,0.68-1.52
					c0.44-0.95,0.9-1.89,1.38-2.83c0.96-1.86,2.01-3.68,3.15-5.44c0.53-0.83,1.08-1.65,1.65-2.46c0.32-0.45,0.65-0.9,0.98-1.35
					c0.15-0.2,0.3-0.39,0.44-0.59c0.38-0.52-0.39,0.48,0.02-0.03c1.36-1.68,2.75-3.32,4.24-4.89c1.52-1.59,1.7-4.38,0-5.94
					c-1.64-1.51-4.33-1.7-5.94,0c-6.49,6.83-11.48,14.78-14.98,23.52c-0.82,2.05,0.89,4.7,2.94,5.17
					C184.26,321.67,186.12,320.37,187,318.18L187,318.18z"/>
			</g>
		</g>
		<g>
			<g>
				<path class="st0" d="M516.64,604.28c1.28,3.3,2.55,6.61,3.83,9.91c0.41,1.05,0.93,1.92,1.93,2.51c0.9,0.53,2.23,0.75,3.24,0.42
					c1.02-0.33,2-0.96,2.51-1.93c0.5-0.94,0.82-2.2,0.42-3.24c-1.28-3.3-2.55-6.61-3.83-9.91c-0.41-1.05-0.93-1.92-1.93-2.51
					c-0.9-0.53-2.23-0.75-3.24-0.42c-1.02,0.33-2,0.96-2.51,1.93C516.57,601.98,516.24,603.24,516.64,604.28L516.64,604.28z"/>
			</g>
		</g>
		<g>
			<g>
				<path class="st0" d="M824.36,361.92c2.6-2.01,5.21-4.02,7.81-6.03c0.49-0.26,0.88-0.62,1.18-1.08c0.37-0.41,0.62-0.88,0.75-1.43
					c0.28-1.01,0.15-2.35-0.42-3.24c-0.58-0.9-1.44-1.69-2.51-1.93c-1.02-0.23-2.37-0.25-3.24,0.42c-2.6,2.01-5.21,4.02-7.81,6.03
					c-0.49,0.26-0.88,0.62-1.18,1.08c-0.37,0.41-0.62,0.88-0.75,1.43c-0.28,1.01-0.15,2.35,0.42,3.24c0.58,0.9,1.44,1.69,2.51,1.93
					C822.14,362.57,823.49,362.59,824.36,361.92L824.36,361.92z"/>
			</g>
		</g>
		<g>
			<g>
				<path class="st0" d="M924.11,191.81c5.2-5.98,10.39-11.96,15.59-17.93c1.44-1.66,1.75-4.34,0-5.94c-1.58-1.45-4.4-1.77-5.94,0
					c-5.2,5.98-10.39,11.96-15.59,17.93c-1.44,1.66-1.75,4.34,0,5.94C919.75,193.26,922.57,193.58,924.11,191.81L924.11,191.81z"/>
			</g>
		</g>
	</g>
	<g>
		<path class="st1" d="M-34.44,876.54c-23.18-0.21-46.88-0.35-68.86,6.25c-30.05,9.02-53.84,29.7-74.58,51.2
			c-31.36,32.5-58.35,68.39-80.21,106.65c-8.46,14.8-15.79,33.82-4.43,46.96c10.08,11.67,989.67,7.47,1464.41,8.83
			c18.32,0.05,37.25,0.01,54.04-6.57c16.78-6.58,30.93-21.58,29.26-37.95c-1.07-10.51-8.22-19.64-15.48-27.94
			c-39.51-45.17-84.42-111.58-133.78-148.12c-17.25-12.77-35.22-25.88-56.83-31.02c-15.04-3.57-30.86-3.03-46.4-2.46
			C961.19,844.99,62.54,877.42-34.44,876.54z"/>
		<path class="st2" d="M550.33,573.54c28.96,0.84,57.52,6.63,85.91,12.4c16.34,3.32,33.54,7.06,45.89,18.27
			c1.8,1.63,3.54,3.54,4.04,5.92c0.43,2.05-0.13,4.15-0.69,6.17c-28.97,104.78-66.86,207.09-113.13,305.46
			c-13.3-10.82-30.65-14.99-47.4-18.67c-45.66-10.03-91.64-18.66-137.83-25.86c-2.81-0.44-5.85-0.99-7.77-3.08
			c-3.08-3.35-1.74-8.66-0.23-12.95c4.38-12.43,8.76-24.87,13.14-37.3c8.53-24.2,17.08-48.46,28.13-71.62
			c28.12-58.94,71.51-109,114.37-158.27L550.33,573.54z"/>
		<path class="st3" d="M702.62,677.08c29.91-19.3,61.7-35.69,94.77-48.88c4.88,19.54,9.51,39.15,13.87,58.81
			c4.56,20.53,8.85,41.42,7.49,62.41c-1.06,16.26-5.49,32.11-7.34,48.3c-3.12,27.22,1.09,54.98-3.2,82.04
			c-4.29,27.06-20.54,55.32-47.33,61.05c-24.55,5.26-49.83-10.93-62.42-32.65s-15.03-47.76-15.62-72.86
			c-1.28-54.43,4.8-109.03,18.04-161.84L702.62,677.08z"/>
		<path class="st3" d="M646.4,642.13c-20.05,96.82-50.68,191.44-91.17,281.64c31.42,11.6,65.73,15.28,98.9,10.62
			c1.56-23.96,3.13-47.91,4.69-71.87c5.76,15.01,11.69,30.18,21.13,43.19c9.45,13.01,22.95,23.83,38.78,26.65
			c5.99,1.07,12.29,0.95,18.01-1.15c7.87-2.89,13.98-9.27,18.77-16.15c21.17-30.38,20.55-70.34,19.11-107.35
			c-1.64-42.36-3.29-84.71-4.93-127.07c-0.3-7.79-0.66-15.82-3.94-22.89c-3.9-8.42-11.46-14.49-18.92-20.01
			c-17.65-13.07-36.2-24.91-55.49-35.41c-4.74-2.58-9.77-5.14-15.16-5.09c-13.19,0.13-20.77,14.68-25.39,27.04L646.4,642.13z"/>
		<path class="st4" d="M461.78,839.22c-4.51,25.73-4.98,52.17-1.38,78.05c29.41,0.48,58.89-3.07,87.34-10.52
			c1.96-0.51,4.06-1.04,5.98-0.38c1.98,0.69,3.31,2.5,4.57,4.18c11.75,15.6,28.27,27.55,46.76,33.83
			c17.33,5.89,36.84,7.19,51.41,18.28c7.09,5.4,50.05,31.64,56.93,25.97c5.41-4.45-40.44-32.31-39.74-32.87
			c10,10.89,50.33,30.98,65.01,29.21c-3.52-7.81-39.02-30.87-46.26-35.45l46.46,30.9c2.65,1.4,6.07,0.78,7.73-1.71
			c1.77-2.65,0.11-5.17-1.53-7.21c-4.99-6.21-29.52-28.61-35.96-33.31c6.95,6.23,33.02,28.84,40.73,34.09
			c2.26,1.54,6.2,2.52,6.98-0.1c0.3-0.99-0.13-2.04-0.56-2.99c-11.74-25.91-50.34-64.9-74.83-79.37
			c-22.41-13.24-48.17-20.02-70.5-33.39c-5.61-3.36-11.06-7.16-17.26-9.2c-6.47-2.13-13.41-2.24-20.22-2.33
			c-24.13-0.31-48.26-0.62-72.38-0.93L461.78,839.22z"/>
		<path class="st3" d="M545.9,605.68c-29.17,68.72-61.31,136.18-96.32,202.11c25.53,4.28,51.06,8.57,76.59,12.85
			c-2.34,32.73-6.4,65.34-12.17,97.65c-86.89,4.29-175.09,7.91-259.83-11.76c-15.92-3.69-32.75-8.91-42.85-21.76
			c-4.79-6.09-7.67-13.5-9.35-21.07c-6.23-28.12,3.75-57.32,16.92-82.93c35.2-68.44,92.73-122.27,149.14-174.64
			c20.93-19.43,43.55-39.73,71.69-44.59c11.22-1.94,22.71-1.27,34.06-0.39c29.88,2.32,59.65,6.08,89.17,11.27L545.9,605.68z"/>
		<path class="st4" d="M618.32,440.09l-12.45,7.72c-10.89,16.03-21.77,32.05-32.66,48.08c1.49-8-8.94-14.02-16.68-11.53
			c-7.75,2.49-12.67,9.95-16.54,17.11c-4.79,8.84-9.06,18.62-7.88,28.61c1.18,9.98,9.82,19.7,19.81,18.58
			c-7.26,18.51-14.64,37.6-14.48,57.48c0.16,19.89,13.78,45.18,31.96,53.24c17.06,7.57,37,2.1,54.01-5.57
			c15.13-6.82,25.35-19.47,38.6-29.45c-0.17,8.74,8.74,15.62,17.48,15.96c8.74,0.35,16.93-4.19,23.88-9.49
			c6.86-5.23,13.46-12.28,13.73-20.9c0.27-8.62-9.57-17.15-16.94-12.68c20.18-24.82,38.69-50.99,55.38-78.29
			c-29.7-43.97-79.85-73.47-132.71-78.08L618.32,440.09z"/>
		<g>
			<path class="st5" d="M486.62,817.11c-6.87,31.06-9.33,63.02-7.24,94.77c0.2,3.1,5.05,3.12,4.85,0
				c-2.07-31.32,0.29-62.83,7.07-93.48C491.96,815.36,487.29,814.07,486.62,817.11L486.62,817.11z"/>
		</g>
		<g>
			<path class="st5" d="M491.25,894.96c-0.56,3.59,0.78,7.2,3.68,9.44c2.75,2.13,6.6,2.56,9.55,0.52c2.85-1.98,4.58-5.4,3.85-8.88
				c-0.67-3.21-3.58-5.08-6.66-5.4c-3.33-0.35-6.65,1.51-7.73,4.73c-0.41,1.2,0.47,2.7,1.69,2.98c1.34,0.31,2.55-0.41,2.98-1.69
				c0.1-0.29,0.26-0.31-0.06,0.11c0.06-0.08,0.09-0.19,0.14-0.27c0.05-0.09,0.11-0.17,0.16-0.26c0.23-0.38-0.42,0.41-0.08,0.11
				c0.15-0.13,0.29-0.28,0.43-0.42c0.25-0.25-0.17,0.14-0.21,0.16c0.14-0.05,0.28-0.19,0.41-0.26c0.44-0.23,0.69-0.21,0.08-0.07
				c0.2-0.05,0.39-0.14,0.59-0.19c0.2-0.05,0.41-0.07,0.61-0.13c-0.66,0.19-0.38,0.05-0.14,0.03c0.13-0.01,0.25-0.01,0.38-0.02
				c0.21,0,0.42,0.01,0.63,0.02c0.48,0.02-0.62-0.12-0.14-0.02c0.1,0.02,0.21,0.04,0.31,0.06c0.2,0.05,0.4,0.11,0.6,0.17
				c0.2,0.06,0.4,0.23-0.17-0.09c0.13,0.07,0.26,0.12,0.39,0.19c0.2,0.11,0.37,0.27,0.57,0.36c-0.03-0.01-0.46-0.4-0.2-0.15
				c0.09,0.09,0.18,0.17,0.27,0.25c0.49,0.52-0.15-0.32,0.09,0.09c0.05,0.09,0.11,0.18,0.16,0.27c0.2,0.4,0.18,0.35,0.03,0
				c-0.03,0.07,0.18,0.62,0.21,0.71c0.14,0.5-0.02-0.59,0-0.07c0,0.1,0.01,0.19,0.02,0.29c0.01,0.23-0.07,0.51-0.03,0.73
				c-0.08-0.49,0.06-0.38-0.01-0.06c-0.03,0.14-0.07,0.29-0.11,0.43c-0.02,0.07-0.17,0.36-0.15,0.42c-0.07-0.2,0.23-0.47,0.04-0.1
				c-0.13,0.25-0.25,0.49-0.41,0.72c-0.05,0.09-0.11,0.17-0.17,0.25c-0.29,0.45,0.37-0.4,0.01-0.01c-0.21,0.22-0.41,0.45-0.63,0.65
				c0.01-0.01-0.23,0.19-0.23,0.2c-0.02-0.1,0.46-0.32,0.01-0.02c-0.21,0.14-0.42,0.27-0.65,0.38c-0.37,0.17-0.32,0.15,0.03,0
				c-0.02-0.01-0.28,0.1-0.28,0.1c-0.14,0.05-0.29,0.09-0.43,0.12c-0.41,0.08-0.32,0.07,0.05,0.02c-0.2-0.06-0.55,0.04-0.77,0.03
				c-0.43-0.03-0.38-0.02,0,0.02c-0.01-0.02-0.35-0.07-0.39-0.08c-0.26-0.06-0.51-0.18-0.76-0.23c-0.32-0.06,0.52,0.27,0.07,0.03
				c-0.16-0.09-0.33-0.17-0.49-0.26c-0.11-0.07-0.23-0.14-0.34-0.21c-0.09-0.06-0.18-0.12-0.26-0.19c0.26,0.2,0.31,0.24,0.18,0.13
				c-0.24-0.22-0.48-0.43-0.7-0.67c-0.09-0.1-0.18-0.2-0.27-0.31c-0.32-0.36,0.29,0.41-0.06-0.1c-0.18-0.27-0.35-0.55-0.5-0.84
				c-0.04-0.08-0.19-0.29-0.18-0.37c0.14,0.33,0.16,0.37,0.06,0.13c-0.18-0.54-0.27-0.85-0.33-1.17c-0.1-0.51,0.03,0.08,0,0.08
				c0,0-0.04-0.52-0.04-0.57c0-0.14,0-0.27,0-0.41c0.01-0.16,0.11-0.9,0-0.16c0.2-1.25-0.32-2.67-1.69-2.98
				C493.07,893.01,491.46,893.62,491.25,894.96L491.25,894.96z"/>
		</g>
		<g>
			<path class="st5" d="M720.98,664.44c-6.15,26.08-12.29,52.16-18.44,78.25c-3.03,12.86-5.92,25.75-9.11,38.57
				c-1.48,5.94-3.16,11.89-5.83,17.42c-2.28,4.71-5.2,9.07-8.07,13.43c-6.13,9.28-12.67,19.37-11.67,31c0.27,3.08,5.12,3.11,4.85,0
				c-0.89-10.34,4.87-19.23,10.32-27.5c2.86-4.34,5.79-8.65,8.17-13.28c2.64-5.15,4.5-10.65,6-16.22
				c3.41-12.63,6.11-25.48,9.11-38.21c3.01-12.78,6.02-25.56,9.04-38.34c3.44-14.61,6.88-29.21,10.33-43.82
				C726.37,662.7,721.7,661.4,720.98,664.44L720.98,664.44z"/>
		</g>
		<g>
			<path class="st5" d="M670.29,818.19c4.4-3.63,9.43-6.96,14.64-9.72c1.12-0.6,1.56-2.25,0.87-3.32c-0.74-1.14-2.12-1.51-3.32-0.87
				c-5.56,2.95-10.77,6.48-15.62,10.48c-0.98,0.81-0.9,2.6,0,3.43C667.91,819.15,669.24,819.05,670.29,818.19L670.29,818.19z"/>
		</g>
		<g>
			<path class="st5" d="M713.36,719.14c25.21,10.11,53.53,11.94,79.91,5.53c7.43-1.8,14.65-4.31,21.65-7.38
				c2.85-1.25,0.39-5.43-2.45-4.19c-23.86,10.47-51.05,13.14-76.53,7.82c-7.28-1.52-14.4-3.69-21.29-6.46
				C711.75,713.3,710.5,717.99,713.36,719.14L713.36,719.14z"/>
		</g>
		<g>
			<path class="st5" d="M787.21,695.08c-0.45,3.69,1.76,7.5,4.94,9.31c3.47,1.98,7.83,1.27,10.44-1.79c2.55-3,3.09-7.25,0.76-10.56
				c-2.25-3.2-6.16-4.91-10.03-4.04c-3.94,0.89-7.26,4.54-7.79,8.53c-0.17,1.25,0.3,2.66,1.69,2.98c1.14,0.26,2.8-0.35,2.98-1.69
				c0.08-0.61,0.24-1.19,0.44-1.77c0.21-0.6-0.16,0.25,0.04-0.07c0.07-0.12,0.12-0.24,0.19-0.36c0.18-0.33,0.38-0.64,0.6-0.95
				c-0.28,0.4,0.15-0.17,0.27-0.29c0.23-0.25,0.48-0.47,0.74-0.7c0.09-0.08,0.36-0.24-0.01,0.01c0.11-0.07,0.22-0.15,0.33-0.23
				c0.31-0.2,0.64-0.36,0.97-0.53c0.33-0.17-0.53,0.15,0.07-0.02c0.13-0.04,0.25-0.09,0.38-0.12c0.26-0.07,0.52-0.13,0.79-0.18
				c-0.53,0.09-0.08,0.02,0.06,0.01c0.17-0.01,0.34-0.01,0.51-0.01c0.13,0,0.27,0.02,0.4,0.02c-0.54,0,0.01,0,0.16,0.03
				c0.3,0.06,0.59,0.15,0.88,0.25c0.13,0.05,0.52,0.24,0.08,0.02c0.12,0.06,0.24,0.12,0.36,0.18c0.24,0.13,0.46,0.28,0.7,0.42
				c0.54,0.32-0.2-0.2,0.08,0.05c0.15,0.14,0.31,0.26,0.45,0.41c0.22,0.21,0.42,0.44,0.61,0.67c-0.33-0.4,0.17,0.29,0.24,0.42
				c0.08,0.15,0.16,0.3,0.23,0.44c-0.04-0.08-0.16-0.45-0.01-0.02c0.11,0.32,0.19,0.64,0.26,0.97c-0.11-0.52-0.01-0.1,0,0.06
				c0.01,0.14,0.01,0.27,0.01,0.41c0,0.17-0.01,0.34-0.03,0.5c0.01-0.1,0.1-0.48-0.01-0.05c-0.08,0.29-0.17,0.58-0.26,0.87
				c-0.11,0.35,0.28-0.46-0.04,0.07c-0.1,0.17-0.19,0.36-0.3,0.53c-0.07,0.11-0.15,0.22-0.23,0.34c0.23-0.37,0.09-0.1,0-0.01
				c-0.23,0.25-0.47,0.48-0.71,0.72c-0.08,0.08-0.36,0.25,0.02,0c-0.11,0.08-0.22,0.15-0.33,0.23c-0.11,0.07-0.23,0.14-0.34,0.2
				c-0.18,0.1-0.54,0.25-0.14,0.1c-0.31,0.12-0.63,0.2-0.95,0.28c-0.15,0.04-0.41,0,0.05,0c-0.13,0-0.27,0.02-0.4,0.02
				c-0.01,0-0.67-0.01-0.28,0.01c0.37,0.02-0.25-0.05-0.28-0.06c-0.13-0.03-0.26-0.07-0.39-0.11c-0.07-0.02-0.69-0.26-0.18-0.04
				c-0.31-0.13-0.61-0.29-0.89-0.47c-0.11-0.07-0.22-0.15-0.34-0.22c-0.45-0.3,0.2,0.23-0.14-0.12c-0.26-0.26-0.52-0.54-0.78-0.8
				c-0.27-0.27,0.28,0.46-0.06-0.07c-0.11-0.17-0.23-0.34-0.33-0.51c-0.07-0.12-0.13-0.24-0.2-0.35c-0.04-0.08-0.28-0.67-0.09-0.16
				c-0.11-0.32-0.22-0.63-0.3-0.96c-0.03-0.13-0.05-0.26-0.08-0.39c0.12,0.56,0-0.01-0.01-0.16c-0.02-0.41,0-0.81,0.05-1.21
				c0.15-1.26-1.22-2.48-2.42-2.42C788.19,692.73,787.37,693.73,787.21,695.08L787.21,695.08z"/>
		</g>
		<g>
			<path class="st5" d="M455.19,806.66c-25.44-5.18-50.88-10.36-76.32-15.55c-23.39-4.77-47.16-9.53-71.15-9.01
				c-13.32,0.28-26.63,2.31-39.21,6.79c-2.92,1.04-1.66,5.73,1.29,4.67c22.33-7.97,46.32-7.71,69.55-4.62
				c24.21,3.22,48.14,8.87,72.05,13.74c14.16,2.88,28.32,5.77,42.49,8.65C456.95,811.95,458.25,807.28,455.19,806.66L455.19,806.66z
				"/>
		</g>
		<g>
			<path class="st5" d="M276.81,778.43c6.7,1.4,13.4,2.8,20.1,4.2c1.28,0.27,2.62-0.38,2.98-1.69c0.33-1.2-0.41-2.71-1.69-2.98
				c-6.7-1.4-13.4-2.8-20.1-4.2c-1.28-0.27-2.62,0.38-2.98,1.69C274.79,776.65,275.52,778.16,276.81,778.43L276.81,778.43z"/>
		</g>
		<g>
			<path class="st5" d="M435.04,569.65c5.24,13.36,3.69,27.74,1.29,41.55c-1.23,7.09-2.69,14.14-3.7,21.27
				c-1.05,7.37-1.48,14.78-1.71,22.22c-0.45,15.07-0.71,29.97-4.8,44.6c-3.85,13.76-9.96,26.73-16.33,39.48
				c-7.75,15.53-15.63,31-23.45,46.49c-1.4,2.78,2.78,5.24,4.19,2.45c7.16-14.18,14.32-28.35,21.47-42.54
				c6.49-12.89,12.9-25.92,17.32-39.69c4.67-14.54,5.89-29.35,6.28-44.54c0.2-7.69,0.36-15.39,1.19-23.04
				c0.79-7.31,2.24-14.53,3.56-21.76c2.87-15.76,5.38-32.43-0.64-47.8C438.59,565.49,433.9,566.74,435.04,569.65L435.04,569.65z"/>
		</g>
		<g>
			<path class="st5" d="M531.69,577.01c-11.3,11.98-22.28,24.25-32.92,36.81c-5.32,6.28-10.56,12.63-15.7,19.06
				c-2.51,3.13-5.02,6.25-7.46,9.44c-2.11,2.76-4.09,5.79-4.7,9.27c-1.07,6.07,1.73,11.43,5.67,15.86c2.08,2.35,4.44,4.43,6.82,6.47
				c2.32,1.99,5.22,3.92,6.93,6.49c4.07,6.11-5.43,13.14-9.06,16.95c-5.15,5.42-10.03,11.11-14.62,17.02
				c-10.31,13.3-19.13,27.68-26.26,42.92c-1.31,2.81,2.86,5.27,4.19,2.45c6.29-13.46,13.89-26.28,22.71-38.23
				c4.39-5.95,9.09-11.66,14.07-17.13c2.51-2.76,5.11-5.42,7.72-8.08c2.46-2.51,4.86-5.24,6.19-8.53c1.23-3.05,1.19-6.39-0.43-9.29
				c-1.57-2.8-4.27-4.8-6.67-6.84c-4.35-3.7-9.56-7.69-11.82-13.12c-2.92-7.03,2.71-12.85,6.78-17.99
				c5.03-6.35,10.15-12.64,15.34-18.85c11.8-14.11,24.02-27.86,36.64-41.24C537.26,578.16,533.83,574.73,531.69,577.01
				L531.69,577.01z"/>
		</g>
		<g>
			<path class="st6" d="M695.09,428.42c-6.16,7.48-3.42,17.53-1.72,26.13c2.23,11.31,4.46,22.61,6.69,33.92s4.46,22.61,6.69,33.92
				c2.09,10.6,3.96,21.16,8.41,31.07c4.72,10.5,11.32,20.13,14.73,31.2c0.91,2.97,5.59,1.71,4.67-1.29
				c-2.9-9.44-7.99-17.91-12.46-26.66c-2.23-4.36-4.26-8.81-5.72-13.5c-1.54-4.93-2.57-10.01-3.57-15.07
				c-4.32-21.81-8.61-43.62-12.91-65.42c-1.13-5.73-2.42-11.45-3.35-17.21c-0.72-4.48-1.13-9.93,1.96-13.67
				C700.48,429.45,697.07,426.01,695.09,428.42L695.09,428.42z"/>
		</g>
		<g>
			<path class="st7" d="M551.97,501.48c0.76,9.71,0.31,19.47-1.46,29.05c-0.56,3.05,4.11,4.36,4.67,1.29
				c1.85-10.01,2.43-20.19,1.63-30.34C556.58,498.39,551.73,498.36,551.97,501.48L551.97,501.48z"/>
		</g>
		<g>
			<path class="st7" d="M545.94,515.13c-0.07-0.05-0.23-0.18-0.4-0.31c0.97,0.75,1.84,1.62,2.6,2.59c-0.13-0.16-0.25-0.33-0.38-0.49
				c0.77,1.01,1.41,2.1,1.91,3.27c-0.08-0.19-0.16-0.39-0.24-0.58c0.21,0.51,0.4,1.03,0.55,1.57c0.35,1.22,1.72,2.1,2.98,1.69
				c1.23-0.4,2.07-1.68,1.69-2.98c-0.49-1.69-1.24-3.34-2.25-4.79c-1.13-1.63-2.45-2.96-4.02-4.15c-0.47-0.35-1.33-0.39-1.87-0.24
				c-0.56,0.15-1.17,0.59-1.45,1.11c-0.3,0.56-0.45,1.24-0.24,1.87C545.03,514.32,545.41,514.73,545.94,515.13L545.94,515.13z"/>
		</g>
		<g>
			<path class="st7" d="M685.11,621.76c6.05-1.94,12.1-3.89,18.15-5.83c1.25-0.4,2.05-1.68,1.69-2.98c-0.34-1.22-1.73-2.1-2.98-1.69
				c-6.05,1.94-12.1,3.89-18.15,5.83c-1.25,0.4-2.05,1.68-1.69,2.98C682.46,621.29,683.85,622.16,685.11,621.76L685.11,621.76z"/>
		</g>
		<g>
			<path class="st7" d="M690.12,620.01c1.41,2.47,2.82,4.93,4.24,7.4c0.63,1.1,2.22,1.57,3.32,0.87c1.11-0.72,1.54-2.14,0.87-3.32
				c-1.41-2.47-2.82-4.93-4.24-7.4c-0.63-1.1-2.22-1.57-3.32-0.87C689.88,617.41,689.44,618.83,690.12,620.01L690.12,620.01z"/>
		</g>
		<g>
			<path class="st7" d="M654.96,942.31c18.94,9.55,36.52,21.61,52.21,35.9c2.3,2.1,5.74-1.32,3.43-3.43
				c-15.98-14.56-33.89-26.93-53.19-36.66C654.63,936.73,652.18,940.91,654.96,942.31L654.96,942.31z"/>
		</g>
		<g>
			<path class="st7" d="M685.45,940.55c9,5.11,16.93,11.73,24.69,18.52c8.34,7.31,16.65,14.65,24.98,21.98
				c2.33,2.05,5.78-1.36,3.43-3.43c-8.51-7.49-17-15-25.53-22.46c-7.88-6.89-15.99-13.61-25.12-18.79
				C685.18,934.83,682.74,939.01,685.45,940.55L685.45,940.55z"/>
		</g>
		<g>
			<path class="st7" d="M701.83,930.68c14.81,13.04,29.63,26.08,44.44,39.12c2.33,2.05,5.78-1.36,3.43-3.43
				c-14.81-13.04-29.63-26.08-44.44-39.12C702.92,925.2,699.48,928.62,701.83,930.68L701.83,930.68z"/>
		</g>
		<g>
			<path class="st7" d="M652.95,942.51c21.48-1.94,42.39-7.84,61.7-17.44c2.79-1.39,0.34-5.57-2.45-4.19
				c-18.5,9.2-38.68,14.92-59.26,16.78C649.87,937.94,649.84,942.79,652.95,942.51L652.95,942.51z"/>
		</g>
		<g>
			<path class="st7" d="M554.59,880.13c0.56,6.34,0.77,12.71,0.61,19.07c-0.08,3.12,4.77,3.12,4.85,0
				c0.16-6.36-0.04-12.73-0.61-19.07c-0.12-1.3-1.03-2.42-2.42-2.42C555.79,877.71,554.47,878.82,554.59,880.13L554.59,880.13z"/>
		</g>
		<g>
			<path class="st7" d="M637.24,551.18c-10.95,16.86-21.79,33.79-32.53,50.79c1.48,0.19,2.95,0.39,4.43,0.58
				c-2.72-6.85-4.45-14.02-5.03-21.38c-0.24-3.09-5.09-3.12-4.85,0c0.62,7.79,2.32,15.39,5.2,22.66c0.76,1.91,3.24,2.46,4.43,0.58
				c10.74-17,21.58-33.93,32.52-50.79C643.13,551,638.94,548.57,637.24,551.18L637.24,551.18z"/>
		</g>
		<g>
			<path class="st7" d="M577.53,534.83c1.49,12.91,15.58,22.55,28.17,18.51c2.96-0.95,1.69-5.63-1.29-4.67
				c-9.3,2.98-20.88-3.9-22.03-13.84c-0.15-1.3-1.01-2.42-2.42-2.42C578.76,532.41,577.38,533.52,577.53,534.83L577.53,534.83z"/>
		</g>
		<g>
			<path class="st7" d="M647.71,576.39c1.49,12.91,15.58,22.55,28.17,18.51c2.96-0.95,1.69-5.63-1.29-4.67
				c-9.3,2.98-20.88-3.9-22.03-13.84c-0.15-1.3-1.01-2.42-2.42-2.42C648.94,573.97,647.56,575.08,647.71,576.39L647.71,576.39z"/>
		</g>
		<g>
			<path class="st7" d="M584.94,597.59c5.05,5.09,8.52,11.49,10.1,18.48c0.29,1.28,1.76,2.03,2.98,1.69
				c1.31-0.36,1.98-1.7,1.69-2.98c-1.75-7.77-5.74-14.97-11.35-20.62C586.17,591.94,582.74,595.37,584.94,597.59L584.94,597.59z"/>
		</g>
		<path class="st7" d="M631.01,513.91c1.01,3.65-1.99,7.51-5.63,8.56c-3.64,1.05-7.57-0.07-10.98-1.72
			c-3.41-1.66-6.55-3.87-10.1-5.2c-4.96-1.87-10.5-1.96-15.27-4.26c4.83-6.69,13.2-10.66,21.43-10.18
			c8.24,0.48,16.08,5.4,20.1,12.61L631.01,513.91z"/>
		<path class="st7" d="M671.5,541.84c-3.76,0.46-6.18,4.71-5.75,8.48c0.42,3.77,2.96,6.97,5.79,9.48c2.84,2.51,6.08,4.58,8.67,7.34
			c3.62,3.86,5.83,8.95,9.77,12.48c4.33-7.02,4.8-16.27,1.21-23.7c-3.6-7.43-11.14-12.79-19.34-13.75L671.5,541.84z"/>
		<path class="st7" d="M577.41,488.49c-7.77,10.88-13.59,23.14-17.1,36.04c10.19,1.34,16.65-10.22,20.81-19.62
			c9.51-21.47,22.51-41.4,38.32-58.76c-3.51,10.89-3.59,22.86-0.23,33.8c0.7,2.28,1.69,4.69,3.76,5.88c3.02,1.74,6.82,0.1,9.76-1.77
			c9.99-6.35,18.14-15.55,23.24-26.22c-3.37,10.78-2.98,22.69,1.08,33.23c1.22,3.17,2.94,6.4,5.92,8.01
			c4.06,2.19,9.34,0.6,12.73-2.53c3.39-3.13,5.33-7.49,7.18-11.73c-0.83,7.27-3.94,14.08-5.31,21.27
			c-1.37,7.19-0.57,15.56,4.96,20.35c5.53,4.79,16.39,2.54,17.25-4.73c-4.62,4.08-5.77,11.56-2.6,16.84
			c3.17,5.28,10.31,7.78,16.08,5.62c-0.02,22.42-10.72,44.59-28.25,58.56c2.61,2.71,7.12,2.07,10.56,0.55
			c3.44-1.52,6.81-3.75,10.57-3.61c3.76,0.14,7.5,4.39,5.41,7.52c19.17-16.7,28.73-41.59,37.58-65.42
			c4.06-10.92,8.15-22.05,8.83-33.68c0.67-11.63-2.58-24.06-11.22-31.88c-5.49-4.97-12.77-7.79-17.74-13.29
			c-6.33-7.01-7.86-17.17-13.24-24.93c-11.05-15.94-33.57-16.99-52.33-21.93c-18.79-4.95-38.83-15.19-56.45-7
			c-11.23,5.22-18,16.65-24.08,27.44c-9.52,16.88-19.04,33.77-28.57,50.65c6.95-1.83,14.92,1.33,18.73,7.43L577.41,488.49z"/>
		<path class="st4" d="M726.91,663c1.06-21.62,2.12-43.24,3.18-64.86c0.21-4.21,0.41-8.48-0.49-12.6c-1.03-4.71-3.44-8.98-5.58-13.3
			c-10.98-22.18-15.13-47.03-19.14-71.45c-3.7-22.49-7.39-44.97-11.09-67.46c-0.4-2.42,1.08-4.87,3.48-5.37
			c2.66-0.55,4.09,1.74,5.14,3.76c8.75,16.89,17.53,35.48,24.28,53.26c-4.14-16.57-0.74-81.1,3.55-95.18
			c0.94-3.07,4.75-4.25,7.15-2.11c2.72,2.46,6.83,1.24,7.54-2.15c0.84-4,2.3-7.87,4.34-11.41c1.71-2.97,6.02-3.04,7.71-0.05
			c5.04,8.93,8.29,18.88,9.46,29.07c-0.12-2.33-0.04-4.68,0.24-7c0.48-4,5.8-5.28,8.03-1.93c3.93,5.9,5.83,13.39,7.09,20.52
			c5.79,32.84,3.86,67.25,15.05,98.66c7.4-4.01,6.73-14.6,5.79-22.96c-0.93-8.37,1.11-19.57,9.47-20.58
			c4.17,11.97,8.36,24.09,9.56,36.71c1.2,12.62-0.89,26-8.32,36.27c-5.83,8.06-14.82,14.18-17.77,23.68
			c-1.54,4.95-1.22,10.25-0.88,15.42c1.3,20.07,12.69,82.72,10.71,83.95c-19.26,11.91-55.58,3.58-77.77-0.94L726.91,663z"/>
		<g>
			<path class="st7" d="M739.52,390.37c3.85,31.7,7.65,63.4,11.42,95.1c0.36,3.06,5.22,3.1,4.85,0
				c-3.77-31.71-7.57-63.41-11.42-95.1C744,387.32,739.14,387.28,739.52,390.37L739.52,390.37z"/>
		</g>
		<g>
			<path class="st7" d="M761.06,391.39c3.47,31.39,6.93,62.78,10.4,94.17c0.34,3.07,5.19,3.1,4.85,0
				c-3.47-31.39-6.93-62.78-10.4-94.17C765.57,388.33,760.72,388.29,761.06,391.39L761.06,391.39z"/>
		</g>
		<g>
			<path class="st7" d="M735.36,490.52c15.89-1.1,31.78-2.19,47.67-3.29c3.1-0.21,3.12-5.06,0-4.85
				c-15.89,1.1-31.78,2.19-47.67,3.29C732.26,485.89,732.24,490.74,735.36,490.52L735.36,490.52z"/>
		</g>
		<g>
			<path class="st7" d="M759.73,581.57c7.76,0.07,15.52,0.14,23.28,0.21c3.12,0.03,3.12-4.82,0-4.85
				c-7.76-0.07-15.52-0.14-23.28-0.21C756.61,576.7,756.61,581.54,759.73,581.57L759.73,581.57z"/>
		</g>
		<g>
			<path class="st5" d="M660.89,640.71c0.6-0.04,1.39-0.25,2.17-0.46c0.4,0.78,0.79,1.57,1.19,2.35c-0.48,0.37-0.97,0.74-1.45,1.11
				c-1.44,0.43-1.47-0.89-1.16,0.57c0.14,0.65,0.26,1.31,0.39,1.97c0.23,1.18,0.47,2.36,0.7,3.54c0.52,2.62,1.03,5.24,1.55,7.86
				c0.98,4.98,1.97,9.96,2.95,14.94c1.01,5.11,2.02,10.22,3.03,15.33c0.44,2.25,1.06,4.52,1.29,6.8c0.25,2.49-0.6,3.99-2.4,5.63
				c-3.45,3.15-7.23,5.96-11.13,8.52c-3.38,2.22-7.69,3.92-10.38,7.01c-2.93,3.37-3.19,8.39-3.98,12.58
				c-0.94,5-1.88,10.01-2.81,15.01c-2.15,11.46-4.3,22.91-6.44,34.37c-0.57,3.05,4.1,4.36,4.67,1.29
				c2.27-12.12,4.54-24.23,6.81-36.34c1.09-5.79,2.17-11.59,3.26-17.38c0.42-2.25,0.69-4.79,2.32-6.54c1.71-1.84,4.39-2.92,6.5-4.22
				c4.78-2.95,9.33-6.3,13.58-9.97c1.74-1.5,3.46-3.1,4.29-5.31c0.9-2.39,0.59-4.9,0.15-7.35c-2.18-12.05-4.74-24.04-7.12-36.05
				c-0.62-3.14-1.24-6.29-1.86-9.43c-0.46-2.31-0.52-5.98-2.96-7.25c-2.19-1.14-4.67,0.38-4.48,2.85c0.19,2.48,2.82,3.74,4.74,2
				C666.64,642.04,663.2,638.62,660.89,640.71L660.89,640.71z"/>
		</g>
		<g>
			<path class="st5" d="M700.78,657.02c-4.9,50.29-15.11,100.04-30.39,148.2c-4.29,13.54-8.99,26.95-14.07,40.22
				c-1.12,2.92,3.57,4.18,4.67,1.29c9.07-23.69,16.91-47.85,23.45-72.37c6.57-24.63,11.85-49.61,15.79-74.8
				c2.21-14.13,4-28.31,5.39-42.54C705.93,653.92,701.08,653.94,700.78,657.02L700.78,657.02z"/>
		</g>
		<g>
			<path class="st8" d="M534.94,652.73c7.86,10.74,16.01,21.84,27.57,28.87c5.42,3.3,11.45,5.59,17.77,6.34
				c6.91,0.81,13.53-0.94,20.13-2.77c8.19-2.28,16.39-4.55,24.58-6.83c3-0.83,1.73-5.51-1.29-4.67c-6.68,1.86-13.36,3.71-20.04,5.57
				c-6.28,1.75-12.74,4.07-19.33,4.1c-12.5,0.05-23.5-7.48-31.77-16.23c-4.94-5.22-9.19-11.02-13.43-16.8
				C537.3,647.79,533.09,650.21,534.94,652.73L534.94,652.73z"/>
		</g>
		<g>
			<path class="st8" d="M590.92,752.01c-24.81,9.31-49.82,18.06-75.03,26.22c-7.15,2.31-14.31,4.58-21.49,6.8
				c-2.97,0.92-1.7,5.6,1.29,4.67c25.31-7.83,50.45-16.24,75.37-25.23c7.07-2.55,14.12-5.15,21.15-7.79
				C595.1,755.59,593.85,750.91,590.92,752.01L590.92,752.01z"/>
		</g>
		<g>
			<path class="st8" d="M567.42,786.69c-16.68,9.57-35.17,15.88-54.25,18.35c-3.05,0.39-3.09,5.25,0,4.85
				c19.97-2.58,39.23-8.98,56.7-19.01C572.57,789.32,570.13,785.13,567.42,786.69L567.42,786.69z"/>
		</g>
		<path class="st7" d="M625.59,414.79c3.1-12.21-3.02-26.14-14.1-32.12c9.57,5.65,17.71,13.7,23.47,23.2
			c2.42-11.28,13.57-20.02,25.1-19.68c-10.3,5.93-15.7,19.23-12.46,30.66L625.59,414.79z"/>
		<g>
			<path class="st9" d="M-215.36,1059.28c162.59,0,325.18,0,487.77,0c161.76,0,323.52,0,485.28,0c91.25,0,182.5,0,273.75,0
				c3.12,0,3.12-4.85,0-4.85c-162.59,0-325.18,0-487.77,0c-161.76,0-323.52,0-485.28,0c-91.25,0-182.5,0-273.75,0
				C-218.48,1054.43-218.49,1059.28-215.36,1059.28L-215.36,1059.28z"/>
		</g>
		<g>
			<path class="st9" d="M786.03,1014.14c28.51,0,57.01,0,85.52,0c8.16,0,16.33,0,24.49,0c3.12,0,3.12-4.85,0-4.85
				c-28.51,0-57.01,0-85.52,0c-8.16,0-16.33,0-24.49,0C782.92,1009.3,782.91,1014.14,786.03,1014.14L786.03,1014.14z"/>
		</g>
		<g>
			<path class="st9" d="M814.24,985.94c12.22,0,24.45,0,36.67,0c3.12,0,3.12-4.85,0-4.85c-12.22,0-24.45,0-36.67,0
				C811.12,981.09,811.12,985.94,814.24,985.94L814.24,985.94z"/>
		</g>
		<g>
			<path class="st9" d="M109.03,977.47c46.18,0,92.36,0,138.54,0c13.06,0,26.12,0,39.18,0c3.12,0,3.12-4.85,0-4.85
				c-46.18,0-92.36,0-138.54,0c-13.06,0-26.12,0-39.18,0C105.92,972.63,105.91,977.47,109.03,977.47L109.03,977.47z"/>
		</g>
		<g>
			<path class="st9" d="M168.27,946.44c22.57,0,45.13,0,67.7,0c3.12,0,3.12-4.85,0-4.85c-22.57,0-45.13,0-67.7,0
				C165.15,941.6,165.15,946.44,168.27,946.44L168.27,946.44z"/>
		</g>
		<g>
			<path class="st9" d="M264.18,1036.71c13.16,0,26.33,0,39.49,0c3.12,0,3.12-4.85,0-4.85c-13.16,0-26.33,0-39.49,0
				C261.06,1031.86,261.06,1036.71,264.18,1036.71L264.18,1036.71z"/>
		</g>
	</g>
	<g>
		<g>
			<g>
				<path class="st10" d="M913.86,411.14l-123.09-65.83c-1.81-0.97-2.49-3.21-1.52-5.02l43.29-80.94c0.97-1.81,3.21-2.49,5.02-1.52
					l123.09,65.83c1.81,0.97,2.49,3.21,1.52,5.02l-43.29,80.94C917.91,411.43,915.67,412.11,913.86,411.14z"/>
			</g>
			<g>
				<g>
					<path class="st10" d="M940.92,325.38l-43.66-23.35l16.24-30.37c1.12-2.09,3.71-2.87,5.8-1.76l36.11,19.31
						c2.09,1.12,2.87,3.71,1.76,5.8L940.92,325.38z"/>
				</g>
				<g>
					
						<rect x="913.3" y="285.2" transform="matrix(0.8818 0.4716 -0.4716 0.8818 248.1193 -404.0269)" class="st11" width="33.7" height="15.64"/>
				</g>
			</g>
			<g>
				
					<ellipse transform="matrix(0.9873 -0.1591 0.1591 0.9873 -43.3256 148.0196)" class="st11" cx="902.6" cy="344.54" rx="34.97" ry="34.97"/>
				<path class="st12" d="M902.55,382.76c-6.2,0-12.34-1.53-17.96-4.53c-9-4.81-15.58-12.84-18.54-22.6
					c-2.96-9.76-1.94-20.1,2.87-29.09c4.81-9,12.84-15.58,22.6-18.54c9.76-2.96,20.09-1.94,29.09,2.87
					c9,4.81,15.58,12.84,18.54,22.6c2.96,9.76,1.94,20.1-2.87,29.09c-4.81,9-12.84,15.58-22.6,18.54
					C910.01,382.21,906.27,382.76,902.55,382.76z M902.64,312.78c-3.09,0-6.21,0.46-9.25,1.38c-8.11,2.46-14.79,7.93-18.78,15.41
					c-4,7.48-4.85,16.06-2.39,24.18c2.46,8.12,7.93,14.79,15.41,18.79c7.48,4,16.06,4.85,24.18,2.39
					c8.11-2.46,14.79-7.93,18.78-15.41c8.26-15.44,2.41-34.71-13.02-42.96C912.89,314.05,907.79,312.78,902.64,312.78z"/>
			</g>
			<g>
				<path class="st12" d="M829.66,366.11l-39.02-20.87c-1.74-0.93-2.39-3.09-1.46-4.83l43.42-81.19c0.93-1.74,3.09-2.39,4.83-1.46
					l39.02,20.87L829.66,366.11z"/>
			</g>
			<g>
				<path class="st13" d="M904.02,367.54c-3.58,0-7.2-0.85-10.57-2.65c-10.94-5.85-15.08-19.51-9.23-30.45
					c5.85-10.94,19.51-15.08,30.45-9.23c10.94,5.85,15.08,19.51,9.23,30.45C919.85,363.22,912.06,367.54,904.02,367.54z
					 M904.09,323.35c-7.75,0-15.26,4.16-19.17,11.46c-5.64,10.55-1.65,23.72,8.9,29.36c10.55,5.64,23.72,1.65,29.36-8.9l0,0
					c5.64-10.55,1.65-23.72-8.9-29.36C911.04,324.18,907.54,323.35,904.09,323.35z"/>
			</g>
			<g>
				<path class="st11" d="M854.25,360.78c-1.7,3.18-5.66,4.38-8.84,2.68c-3.18-1.7-4.38-5.66-2.68-8.84
					c1.7-3.18,5.66-4.38,8.84-2.68C854.76,353.64,855.95,357.6,854.25,360.78z"/>
				<path class="st12" d="M848.48,365.85c-1.32,0-2.63-0.32-3.83-0.97c-3.96-2.12-5.46-7.06-3.34-11.03
					c2.12-3.96,7.07-5.46,11.03-3.34c1.92,1.03,3.32,2.74,3.95,4.82c0.63,2.08,0.41,4.29-0.61,6.21l0,0
					c-1.03,1.92-2.74,3.32-4.82,3.95C850.07,365.73,849.28,365.85,848.48,365.85z M848.5,352.78c-1.76,0-3.46,0.94-4.35,2.6
					c-1.28,2.39-0.37,5.38,2.02,6.66c1.16,0.62,2.49,0.75,3.75,0.37c1.26-0.38,2.29-1.23,2.91-2.39l0,0
					c0.62-1.16,0.75-2.49,0.37-3.75c-0.38-1.26-1.23-2.29-2.39-2.91C850.08,352.97,849.28,352.78,848.5,352.78z"/>
			</g>
			<g>
				<path class="st11" d="M832.54,349.17c-1.7,3.18-5.66,4.38-8.84,2.68c-3.18-1.7-4.38-5.66-2.68-8.84
					c1.7-3.18,5.66-4.38,8.84-2.68C833.04,342.03,834.24,345.99,832.54,349.17z"/>
				<path class="st12" d="M826.77,354.23c-1.3,0-2.61-0.31-3.83-0.96c-1.92-1.03-3.32-2.74-3.95-4.82c-0.63-2.08-0.41-4.29,0.61-6.2
					c1.03-1.92,2.74-3.32,4.82-3.95c2.08-0.63,4.29-0.41,6.21,0.61c3.96,2.12,5.46,7.06,3.34,11.03l0,0
					C832.5,352.67,829.68,354.23,826.77,354.23z M826.79,341.17c-0.48,0-0.96,0.07-1.43,0.21c-1.26,0.38-2.29,1.23-2.91,2.39
					s-0.75,2.49-0.37,3.75c0.38,1.26,1.23,2.29,2.39,2.91c2.39,1.28,5.38,0.37,6.66-2.02c1.28-2.39,0.37-5.38-2.02-6.66
					C828.38,341.36,827.58,341.17,826.79,341.17z"/>
			</g>
			<g>
				
					<rect x="822.33" y="274.64" transform="matrix(0.8818 0.4716 -0.4716 0.8818 231.4732 -360.4739)" class="st11" width="25.2" height="13.89"/>
			</g>
			<g>
				<g>
					<path class="st14" d="M881.43,320.37c-9.17,8.61-13.37,21.67-11.09,34.01c0.29,1.55,2.65,0.89,2.36-0.65
						c-2.13-11.49,1.95-23.65,10.46-31.63C884.32,321.02,882.58,319.29,881.43,320.37L881.43,320.37z"/>
				</g>
			</g>
			<g>
				<g>
					<path class="st14" d="M881.77,369.91c1.42,2.26,3.59,3.95,6.13,4.79c0.61,0.2,1.36-0.23,1.51-0.86
						c0.15-0.67-0.2-1.29-0.86-1.51c-0.13-0.04-0.27-0.09-0.4-0.14c-0.07-0.02-0.13-0.05-0.2-0.08c-0.17-0.07-0.1,0,0.02,0.01
						c-0.12-0.01-0.27-0.12-0.38-0.18c-0.13-0.06-0.25-0.13-0.37-0.19c-0.25-0.13-0.49-0.28-0.72-0.43
						c-0.12-0.08-0.23-0.16-0.35-0.24c-0.06-0.04-0.11-0.08-0.17-0.12c-0.08-0.06-0.14-0.18,0.01,0.01
						c-0.17-0.2-0.44-0.37-0.64-0.55c-0.19-0.18-0.38-0.37-0.56-0.57c-0.09-0.1-0.19-0.21-0.28-0.32c-0.04-0.05-0.09-0.11-0.13-0.16
						c-0.18-0.22,0.11,0.15,0.01,0.02c-0.17-0.24-0.34-0.48-0.5-0.73c-0.34-0.54-1.11-0.81-1.68-0.44
						C881.66,368.59,881.4,369.33,881.77,369.91L881.77,369.91z"/>
				</g>
			</g>
			<g>
				<g>
					<path class="st14" d="M929.33,331.85c1.2,2.6,1.95,5.44,2.2,8.29c0.06,0.66,0.52,1.22,1.22,1.22c0.62,0,1.28-0.56,1.22-1.22
						c-0.29-3.32-1.14-6.5-2.53-9.52c-0.28-0.6-1.14-0.75-1.68-0.44C929.15,330.54,929.05,331.25,929.33,331.85L929.33,331.85z"/>
				</g>
			</g>
			<g>
				<g>
					<path class="st12" d="M917.32,285.09c1.3,3.63,3.09,7.07,5.37,10.19c0.39,0.53,1.06,0.8,1.68,0.44
						c0.53-0.31,0.83-1.14,0.44-1.68c-2.15-2.94-3.89-6.17-5.12-9.6c-0.22-0.62-0.83-1.04-1.51-0.86
						C917.57,283.75,917.1,284.46,917.32,285.09L917.32,285.09z"/>
				</g>
			</g>
			<g>
				<g>
					<path class="st12" d="M923.16,287.09c0.71,1.34,1.42,2.68,2.13,4.02c0.3,0.57,1.14,0.79,1.68,0.44
						c0.58-0.37,0.76-1.07,0.44-1.68c-0.71-1.34-1.42-2.68-2.13-4.02c-0.3-0.57-1.14-0.79-1.68-0.44
						C923.03,285.78,922.84,286.48,923.16,287.09L923.16,287.09z"/>
				</g>
			</g>
			<g>
				<g>
					<path class="st12" d="M872.42,284.4c-2.55,5.32-5.09,10.64-7.64,15.96c-0.68,1.42,1.43,2.66,2.11,1.24
						c2.55-5.32,5.09-10.64,7.64-15.96C875.21,284.22,873.1,282.97,872.42,284.4L872.42,284.4z"/>
				</g>
			</g>
			<g>
				<g>
					<path class="st12" d="M857.56,311.64c-0.41,1.05-0.83,2.11-1.24,3.16c-0.11,0.28-0.02,0.7,0.12,0.94
						c0.15,0.25,0.44,0.5,0.73,0.56c0.31,0.07,0.67,0.06,0.94-0.12c0.08-0.06,0.17-0.13,0.25-0.19c0.15-0.15,0.26-0.33,0.31-0.54
						c0.41-1.05,0.83-2.11,1.24-3.16c0.11-0.28,0.02-0.7-0.12-0.94c-0.15-0.25-0.44-0.5-0.73-0.56c-0.31-0.07-0.67-0.06-0.94,0.12
						c-0.08,0.06-0.17,0.13-0.25,0.19C857.72,311.25,857.62,311.43,857.56,311.64L857.56,311.64z"/>
				</g>
			</g>
			<g>
				<g>
					<path class="st12" d="M902.01,393.84c7.07-0.28,13.83-2.95,19.21-7.54c1.2-1.02-0.54-2.75-1.73-1.73
						c-4.87,4.15-11.09,6.56-17.48,6.82C900.44,391.46,900.43,393.91,902.01,393.84L902.01,393.84z"/>
				</g>
			</g>
			<g>
				<g>
					<path class="st12" d="M912.44,396.18c1.77-0.36,3.48-1.04,5.03-1.96c0.55-0.33,0.8-1.12,0.44-1.68
						c-0.36-0.55-1.09-0.79-1.68-0.44c-0.37,0.22-0.74,0.42-1.12,0.61c-0.18,0.09-0.36,0.17-0.54,0.25
						c-0.05,0.02-0.1,0.05-0.16,0.07c0.16-0.07,0.18-0.08,0.06-0.03c-0.09,0.04-0.18,0.07-0.28,0.11c-0.78,0.3-1.59,0.53-2.4,0.7
						c-0.63,0.13-1.05,0.91-0.86,1.51C911.15,395.99,911.77,396.32,912.44,396.18L912.44,396.18z"/>
				</g>
			</g>
			<g>
				<g>
					<path class="st12" d="M808.51,323.66c-4.86,7.95-1.56,17.28,2.23,24.89c0.7,1.41,2.82,0.17,2.11-1.24
						c-3.39-6.81-6.59-15.28-2.23-22.42C811.45,323.55,809.33,322.32,808.51,323.66L808.51,323.66z"/>
				</g>
			</g>
			<g>
				<g>
					<path class="st12" d="M799.83,333.13c-0.13,2.64,0.12,5.3,0.69,7.88c0.14,0.63,0.9,1.05,1.51,0.86c0.66-0.21,1-0.84,0.86-1.51
						c-0.53-2.38-0.73-4.74-0.61-7.23c0.03-0.64-0.59-1.25-1.22-1.22C800.37,331.94,799.87,332.44,799.83,333.13L799.83,333.13z"/>
				</g>
			</g>
			<g>
				<path class="st13" d="M902.83,354.53c0.09-0.04,0.19-0.08,0.28-0.13c3.68-1.69,6.62-4.74,10.36-6.29
					c1.22-0.51,2.62-0.84,3.69,0.11c0.98,0.87,1.48,2.23,1.46,3.53c-0.03,1.66-0.8,3.23-1.79,4.56c-2.26,3.05-5.71,5.14-9.4,5.99
					c-1.34,0.31-2.74,0.47-4.1,0.2c-1.35-0.26-2.65-0.99-3.4-2.14c-0.75-1.15-0.85-2.76-0.06-3.89
					C900.56,355.49,901.73,355.02,902.83,354.53z"/>
			</g>
			<g>
				<path class="st13" d="M900.13,345.43c-0.19,0.21-0.36,0.43-0.52,0.67c-0.77,1.2-0.88,2.92,0.06,3.99
					c0.55,0.63,1.38,0.96,2.21,1.03c1.26,0.11,2.5-0.33,3.64-0.88c1.01-0.49,2-1.1,2.71-1.96c0.72-0.87,1.13-2.04,0.88-3.14
					c-0.62-2.72-4.19-2.4-6.12-1.57C901.93,344.01,900.9,344.6,900.13,345.43z"/>
			</g>
		</g>
		<g>
			<g>
				<path class="st12" d="M885.75,282.25c8.69-16.31,3.8-38.13-11.34-48.87c-17.73-12.57-45.11-9.8-55.44-32.16
					c-4.74-10.25-3.13-22.52,4.98-30.6c9.33-9.29,22.91-7.58,33.82-2.19c19,9.39,33.23,27.53,39.45,47.62
					c6.83,22.08,4.86,51.85-15.17,66.72c-1.25,0.93-0.03,3.06,1.24,2.11c17.83-13.24,22.3-37.96,18.84-58.75
					c-3.54-21.32-15.67-41.16-33.22-53.81c-9.09-6.55-20.61-12.18-32.13-10.65c-10.52,1.4-18.85,9.44-21.84,19.46
					c-3.12,10.45,0.45,21.82,7.53,29.83c7.63,8.62,18.84,12.05,29.48,15.35c12.35,3.83,24.56,8.45,31.11,20.41
					c5.74,10.48,6.24,23.68,0.58,34.28C882.89,282.41,885.01,283.65,885.75,282.25L885.75,282.25z"/>
			</g>
		</g>
	</g>
	<g>
		<g>
			<path class="st10" d="M187.73,618.54c-0.07,0.05-0.15,0.11-0.22,0.16c4.21,6.77,8.43,14.2,7.85,22.16
				c-0.51,6.96-4.73,13.21-10.02,17.76c-5.09,4.38-11.64,7.57-18.33,6.99c-5.42-0.48-10.34-3.35-14.73-6.57
				c-12.95-9.49-22.2-19.16-35.57-28.06c-6.24-4.15-14.19-10.83-18.82-16.71c-9.25-11.73-6.4-33.07,6.72-40.7
				c6.26-3.64,13.66-5.19,20.86-4.68c3.6,0.26,7.18,1.02,10.55,2.33c0.94,0.37,9.35,5.44,9.28,5.49
				c16.62-10.5,32.73-21.81,48.25-33.87c-7.53-10.05-8.72-24.72-2.1-35.4c6.61-10.68,20.97-16.14,32.74-11.76
				c10.69,3.99,17.49,14.46,22.14,24.88c7.3,16.34,11.17,33.97,14.96,51.46c1.23,5.65,2.46,11.37,2.33,17.16
				c-0.12,5.78-1.73,11.73-5.56,16.06c-5.32,6.02-14.33,7.96-22.12,5.97c-7.78-1.99-14.36-7.43-19.07-13.94
				C207.15,604.36,197.44,611.45,187.73,618.54z"/>
		</g>
		<g>
			<g>
				<path class="st12" d="M131.47,579.96c-8.04-3.72-16.51-0.61-22.59,5.2c-5.73,5.48-7.55,14.26-4.23,21.52
					c3.32,7.28,11.7,11.64,19.55,10.82c8.08-0.84,15.03-7.15,17.15-14.93C143.71,593.91,139.53,584.04,131.47,579.96
					c-1.39-0.7-2.64,1.38-1.24,2.09c6.26,3.16,9.97,10.21,9.29,17.17c-0.7,7.13-6.19,13.58-13.11,15.43
					c-6.62,1.76-14.2-1-18.17-6.58c-3.98-5.6-3.66-13.6,0.4-19.06c4.78-6.43,13.92-10.5,21.58-6.95
					C131.63,582.71,132.89,580.62,131.47,579.96z"/>
			</g>
		</g>
		<g>
			<g>
				<path class="st12" d="M200.17,530.33c-0.57-6.96,3.83-13.11,9.84-16.27c3.16-1.66,6.34-2.66,9.95-2.4
					c3.42,0.25,6.83,1.55,9.46,3.77c5.38,4.54,6.94,12.48,4.47,18.94c-2.63,6.86-9.98,11.12-17.19,10.89
					C208.57,545.01,201.1,538.48,200.17,530.33c-0.18-1.53-2.61-1.6-2.43-0.05c0.94,8.25,7.37,15.33,15.54,17.01
					c7.93,1.63,16.62-1.83,21.1-8.61c4.47-6.76,4.01-16.32-1.01-22.65c-4.86-6.13-13.85-8.48-21.13-5.69
					c-8.21,3.15-15.25,10.64-14.5,19.94C197.86,531.83,200.29,531.88,200.17,530.33z"/>
			</g>
		</g>
		<g>
			<path class="st13" d="M217.66,517.25c1.61,2.32,1.04,5.5-1.27,7.12c-2.32,1.61-5.5,1.04-7.12-1.27c-1.61-2.32-1.04-5.5,1.27-7.12
				C212.86,514.36,216.05,514.93,217.66,517.25z"/>
		</g>
		<g>
			<path class="st13" d="M227.33,533.13c1.61,2.32,1.04,5.5-1.27,7.12c-2.32,1.61-5.5,1.04-7.12-1.27c-1.61-2.32-1.04-5.5,1.27-7.12
				C222.53,530.24,225.72,530.81,227.33,533.13z"/>
		</g>
		<g>
			<path class="st13" d="M213.1,530.58c1.61,2.32,1.04,5.5-1.27,7.12c-2.32,1.61-5.5,1.04-7.12-1.27c-1.61-2.32-1.04-5.5,1.27-7.12
				C208.3,527.7,211.49,528.27,213.1,530.58z"/>
		</g>
		<g>
			<path class="st13" d="M230.93,519.53c1.61,2.32,1.04,5.5-1.27,7.12c-2.32,1.61-5.5,1.04-7.12-1.27c-1.61-2.32-1.04-5.5,1.27-7.12
				C226.13,516.65,229.31,517.22,230.93,519.53z"/>
		</g>
		<g>
			<path class="st13" d="M122.26,587.21c1.61,2.32,1.04,5.5-1.27,7.12c-2.32,1.61-5.5,1.04-7.12-1.27c-1.61-2.32-1.04-5.5,1.27-7.12
				C117.46,584.32,120.65,584.89,122.26,587.21z"/>
		</g>
		<g>
			<path class="st13" d="M131.94,603.09c1.61,2.32,1.04,5.5-1.27,7.12c-2.32,1.61-5.5,1.04-7.12-1.27c-1.61-2.32-1.04-5.5,1.27-7.12
				C127.14,600.2,130.32,600.77,131.94,603.09z"/>
		</g>
		<g>
			<path class="st13" d="M117.7,600.54c1.61,2.32,1.04,5.5-1.27,7.12c-2.32,1.61-5.5,1.04-7.12-1.27c-1.61-2.32-1.04-5.5,1.27-7.12
				C112.9,597.66,116.09,598.23,117.7,600.54z"/>
		</g>
		<g>
			<path class="st13" d="M135.53,589.49c1.61,2.32,1.04,5.5-1.27,7.12c-2.32,1.61-5.5,1.04-7.12-1.27c-1.61-2.32-1.04-5.5,1.27-7.12
				C130.73,586.61,133.91,587.18,135.53,589.49z"/>
		</g>
		<g>
			<g>
				<path class="st12" d="M131.89,570.15c22.19,11.98,41.2,29.23,55.24,50.18c0.86,1.29,2.98,0.1,2.11-1.21
					c-14.27-21.3-33.55-38.88-56.11-51.06C131.76,567.32,130.51,569.41,131.89,570.15L131.89,570.15z"/>
			</g>
		</g>
		<g>
			<g>
				<path class="st12" d="M185.61,524c6.68,26.25,13.94,53.48,32.11,74.39c1.03,1.18,2.75-0.53,1.73-1.71
					c-17.86-20.55-24.92-47.48-31.48-73.28C187.58,521.88,185.22,522.48,185.61,524L185.61,524z"/>
			</g>
		</g>
		<g>
			<g>
				<path class="st12" d="M152.02,641.53c3.9,2.98,8.51,5.02,13.33,5.93c0.64,0.12,1.31-0.16,1.5-0.83c0.17-0.59-0.19-1.38-0.83-1.5
					c-4.65-0.87-9-2.81-12.76-5.68c-0.52-0.4-1.36-0.09-1.67,0.43C151.23,640.48,151.5,641.13,152.02,641.53L152.02,641.53z"/>
			</g>
		</g>
		<g>
			<g>
				<path class="st12" d="M175.25,647.25c1.15-0.44,2.29-0.88,3.44-1.32c0.31-0.12,0.57-0.26,0.74-0.56
					c0.15-0.26,0.22-0.63,0.13-0.92c-0.09-0.3-0.27-0.59-0.56-0.74c-0.26-0.14-0.63-0.25-0.92-0.13c-1.15,0.44-2.29,0.88-3.44,1.32
					c-0.31,0.12-0.57,0.26-0.74,0.56c-0.15,0.26-0.22,0.63-0.13,0.92c0.09,0.3,0.27,0.59,0.56,0.74
					C174.59,647.26,174.95,647.37,175.25,647.25L175.25,647.25z"/>
			</g>
		</g>
		<g>
			<g>
				<path class="st12" d="M248.48,594.74c2.77-1.92,3.66-5.17,4.3-8.31c0.78-3.84,1.25-7.75,1.41-11.66
					c0.06-1.57-2.37-1.61-2.43-0.05c-0.14,3.5-0.53,6.98-1.19,10.42c-0.49,2.55-0.98,5.89-3.29,7.49
					C246,593.52,247.19,595.64,248.48,594.74L248.48,594.74z"/>
			</g>
		</g>
		<g>
			<g>
				<path class="st12" d="M252.64,558.68c-0.34-1.61-0.67-3.21-1.01-4.82c-0.13-0.62-0.87-1.06-1.48-0.88
					c-0.65,0.2-1.02,0.81-0.88,1.48c0.34,1.61,0.67,3.21,1.01,4.82c0.13,0.62,0.87,1.06,1.48,0.88
					C252.42,559.96,252.78,559.35,252.64,558.68L252.64,558.68z"/>
			</g>
		</g>
		<g>
			<g>
				<path class="st12" d="M168.02,584.17c1.64-1.29,3.29-2.57,4.93-3.86c0.5-0.39,0.45-1.31,0.01-1.72
					c-0.53-0.49-1.18-0.43-1.72-0.01c-1.64,1.29-3.29,2.57-4.93,3.86c-0.5,0.39-0.45,1.31-0.01,1.72
					C166.82,584.65,167.48,584.59,168.02,584.17L168.02,584.17z"/>
			</g>
		</g>
		<g>
			<g>
				<path class="st12" d="M184.56,574.13c3.26-1.53,6.3-3.49,9.07-5.79c0.51-0.42,0.44-1.28,0.01-1.72
					c-0.49-0.5-1.21-0.43-1.72-0.01c-2.61,2.16-5.5,3.97-8.57,5.4c-0.59,0.28-0.76,1.12-0.45,1.66
					C183.25,574.29,183.97,574.41,184.56,574.13L184.56,574.13z"/>
			</g>
		</g>
		<g>
			<g>
				<path class="st12" d="M182.62,589.51c-0.2,0.15,0.16-0.12,0.2-0.15c0.09-0.07,0.18-0.13,0.27-0.2c0.21-0.15,0.43-0.3,0.64-0.45
					c0.42-0.29,0.84-0.56,1.26-0.83c0.87-0.54,1.77-1.04,2.68-1.5c0.57-0.29,0.79-1.12,0.45-1.66c-0.37-0.58-1.05-0.76-1.66-0.45
					c-1.97,0.99-3.81,2.18-5.56,3.51c-0.51,0.39-0.45,1.31-0.01,1.72C181.43,590,182.07,589.93,182.62,589.51L182.62,589.51z"/>
			</g>
		</g>
		<g>
			<g>
				<path class="st12" d="M168.96,559.18c-17.83-2.69-36.86-9.95-44.66-27.56c-3.82-8.63-3.92-18.67,1.11-26.83
					c2.59-4.21,6.18-7.17,10.3-9.79c3.33-2.12,6.83-4.19,9.36-7.29c6.53-8.02,3.49-18.69,0.49-27.47c-0.5-1.47-2.86-0.88-2.35,0.6
					c1.79,5.23,3.71,10.7,3.32,16.31c-0.4,5.7-3.33,9.86-7.91,13.07c-3.44,2.41-7.21,4.36-10.31,7.23
					c-3.11,2.89-5.58,6.49-7.17,10.43c-6.8,16.81,3.71,34.95,18.01,43.85c8.8,5.48,18.98,8.26,29.15,9.79
					C169.82,561.75,170.5,559.42,168.96,559.18L168.96,559.18z"/>
			</g>
		</g>
		<path class="st15" d="M247.18,577.54l-21.86,5.59c-1.38,0.35-2.78-0.48-3.13-1.86l-2.24-8.77c-0.35-1.38,0.48-2.78,1.86-3.13
			l21.86-5.59c1.38-0.35,2.78,0.48,3.13,1.86l2.24,8.77C249.38,575.79,248.55,577.19,247.18,577.54z"/>
		<path class="st15" d="M175.81,621.27l-12.11,16.66c-0.75,1.04-2.21,1.27-3.24,0.51l-7.73-5.62c-1.04-0.75-1.27-2.21-0.51-3.24
			l12.1-16.66c0.75-1.04,2.21-1.27,3.24-0.51l7.73,5.62C176.34,618.78,176.57,620.23,175.81,621.27z"/>
	</g>
	<g>
		<g>
			<g>
				<path class="st10" d="M329.06,425.53c9.37-12.35,20.33-23.3,31.62-33.89c10.09-9.47,20.32-18.79,30.68-27.97
					c20.63-18.29,41.82-35.97,63.77-52.65c43.26-32.89,89.66-62.07,139.86-83.16c28.2-11.85,57.48-21.01,87.52-26.8
					c3.74-0.72,2.89-6.6-0.88-5.87c-54.02,10.42-105.31,31.61-152.76,59.17c-48.1,27.94-92.39,61.96-134.21,98.51
					c-11.8,10.31-23.41,20.83-34.88,31.51c-12.61,11.75-25.02,23.8-35.46,37.56C322.02,424.98,326.75,428.57,329.06,425.53
					L329.06,425.53z"/>
			</g>
		</g>
		<g>
			<path class="st12" d="M316.8,462.91c-1.89,3.09-4.58,6.68-8.17,6.16c-1.16-0.17-2.2-0.77-3.19-1.38
				c-3.65-2.25-7.11-4.81-10.33-7.66c-2.12-1.87-4.26-4.14-4.42-6.97c-0.13-2.29,1.08-4.41,2.24-6.38
				c7.55-12.74,15.14-25.51,24.01-37.4c6.45-8.64,15.57-24.04,28.03-16.65c3.04,1.8,5.69,4.23,8.23,6.65
				c3.22,3.08,6.89,6.12,9.72,9.55c-2.95,3.37-6.93,6.19-10.19,9.32c-3.33,3.21-6.56,6.52-9.69,9.93
				c-6.3,6.87-12.18,14.12-17.59,21.72C322.42,454.06,319.53,458.44,316.8,462.91z"/>
		</g>
		<g>
			<g>
				
					<ellipse transform="matrix(0.3385 -0.941 0.941 0.3385 -148.8829 616.1172)" class="st10" cx="363.74" cy="413.94" rx="23.54" ry="23.54"/>
				<path class="st12" d="M360.83,437.9c-13.21-1.61-22.65-13.66-21.04-26.87c1.61-13.21,13.66-22.65,26.87-21.04
					c13.21,1.61,22.65,13.66,21.04,26.87C386.09,430.07,374.03,439.51,360.83,437.9z M366.51,391.17
					c-12.56-1.53-24.02,7.45-25.55,20.01c-1.53,12.56,7.45,24.02,20.01,25.55c12.56,1.53,24.02-7.45,25.55-20.01
					C388.04,404.16,379.07,392.7,366.51,391.17z"/>
			</g>
			<g>
				<path class="st12" d="M374.04,415.2c-0.69,5.69-5.86,9.74-11.55,9.05c-5.69-0.69-9.74-5.86-9.05-11.55
					c0.69-5.69,5.86-9.74,11.55-9.05C370.68,404.34,374.73,409.51,374.04,415.2z"/>
			</g>
		</g>
		<g>
			<g>
				<path class="st12" d="M362.67,419.98c2.97,8.83,5.76,17.74,8.93,26.5c0.54,1.5,1.32,3,2.74,3.85c1.61,0.97,3.48,0.79,5.17,0.13
					c1.85-0.73,3.52-2,5.13-3.15c1.79-1.28,3.53-2.63,5.22-4.04c1.47-1.22-0.36-3.56-1.83-2.34c-2.77,2.32-5.77,4.92-9.04,6.51
					c-1.52,0.74-3.09,0.96-4.03-0.69c-0.85-1.49-1.26-3.31-1.8-4.92c-2.58-7.68-5.17-15.35-7.75-23.03
					C364.78,416.99,362.06,418.17,362.67,419.98L362.67,419.98z"/>
			</g>
		</g>
		<g>
			<g>
				<path class="st16" d="M301.17,446.34c6.37,3.91,12.15,8.72,17.11,14.3c0.81,0.91,2.31-0.26,1.49-1.17
					c-5.07-5.71-10.95-10.65-17.46-14.64C301.29,444.19,300.13,445.7,301.17,446.34L301.17,446.34z"/>
			</g>
		</g>
		<g>
			<g>
				<path class="st16" d="M311.3,434.06c5.87,3.52,11.14,7.95,15.6,13.14c0.79,0.92,2.29-0.24,1.49-1.17
					c-4.56-5.32-9.94-9.88-15.94-13.48C311.41,431.93,310.25,433.44,311.3,434.06L311.3,434.06z"/>
			</g>
		</g>
		<g>
			<g>
				<path class="st16" d="M320.89,416.59c6.12,5.38,11.55,11.48,16.22,18.16c0.7,1,2.19-0.17,1.49-1.17
					c-4.76-6.81-10.33-13.01-16.57-18.5C321.12,414.27,319.98,415.79,320.89,416.59L320.89,416.59z"/>
			</g>
		</g>
		<g>
			<g>
				<path class="st12" d="M390.41,352c0.11,4.41,2.12,8.62,5.27,11.67c1.56,1.51,3.52,2.87,5.6,3.53c1.1,0.35,2.33,0.42,3.29-0.32
					c0.87-0.67,1.25-1.75,1.51-2.78c0.84-3.31,1.29-6.71,1.45-10.12c0.06-1.21-1.82-1.45-1.88-0.23c-0.12,2.58-0.42,5.15-0.92,7.69
					c-0.21,1.06-0.37,2.19-0.8,3.19c-0.46,1.05-1.3,1.07-2.28,0.69c-3.47-1.31-6.32-4.18-7.9-7.5c-0.92-1.92-1.41-3.98-1.46-6.11
					C392.25,350.5,390.38,350.79,390.41,352L390.41,352z"/>
			</g>
		</g>
		<g>
			<g>
				<path class="st12" d="M433.92,312.3c0.05,4.66,1.93,9.15,5.25,12.44c1.61,1.6,3.65,3.12,5.87,3.73
					c1.15,0.32,2.39,0.34,3.45-0.26c1.08-0.61,1.72-1.68,2.21-2.78c1.29-2.96,1.67-6.28,1.21-9.46c-0.18-1.21-2.05-0.93-1.88,0.28
					c0.43,2.99,0.07,6.2-1.3,8.92c-0.63,1.25-1.57,1.86-2.97,1.54c-1.21-0.27-2.36-0.99-3.36-1.7c-3.96-2.84-6.54-7.59-6.6-12.48
					c-0.01-0.52-0.27-0.98-0.83-1.06C434.52,311.41,433.91,311.79,433.92,312.3L433.92,312.3z"/>
			</g>
		</g>
		<g>
			<g>
				<path class="st12" d="M479.07,280.64c0.71,4.17,2.21,8.65,5.99,11.01c3.32,2.06,7.8,2.04,10.24-1.36
					c1.18-1.64,1.58-3.7,0.85-5.61c-0.44-1.14-2.18-0.39-1.74,0.75c0.61,1.58-0.07,3.32-1.25,4.44c-1.43,1.37-3.49,1.62-5.33,1
					c-4.48-1.51-6.16-6.27-6.88-10.52C480.74,279.17,478.87,279.44,479.07,280.64L479.07,280.64z"/>
			</g>
		</g>
		<g>
			<g>
				<path class="st12" d="M517.06,254.57c0.92,2.33,1.16,4.84,1.83,7.24c0.59,2.13,1.57,4.15,3.23,5.66
					c1.4,1.28,3.43,2.05,5.32,1.57c1.7-0.43,3.08-1.63,3.92-3.14c0.92-1.66,1.12-3.75,0.19-5.45c-0.58-1.06-2.33-0.32-1.74,0.75
					c1.23,2.23-0.29,5.34-2.71,5.99c-1.5,0.4-3.05-0.39-4.07-1.47c-1.28-1.35-1.99-3.09-2.43-4.87c-0.58-2.35-0.89-4.76-1.78-7.03
					C518.35,252.68,516.61,253.43,517.06,254.57L517.06,254.57z"/>
			</g>
		</g>
		<g>
			<g>
				<path class="st12" d="M560.42,230.05c-1.38,4.62-1.95,10.09,1.38,14.05c1.41,1.67,3.4,2.94,5.62,3.12
					c2.02,0.16,3.91-0.66,5.29-2.11c1.54-1.61,2.2-3.91,1.39-6.02c-0.44-1.14-2.18-0.39-1.74,0.75c0.68,1.79-0.4,3.66-1.86,4.69
					c-1.71,1.21-3.91,0.97-5.6-0.16c-4.53-3.03-4.11-9-2.74-13.6C562.52,229.62,560.77,228.89,560.42,230.05L560.42,230.05z"/>
			</g>
		</g>
		<g>
			<g>
				<path class="st12" d="M604.65,209.81c0.23,4.38-1.12,8.95,1.34,12.93c0.98,1.59,2.51,2.91,4.39,3.27
					c1.74,0.33,3.52-0.3,4.85-1.43c1.59-1.34,2.65-3.18,3.61-4.99c0.57-1.08-1.19-1.79-1.75-0.72c-0.88,1.68-1.9,3.46-3.48,4.58
					c-1.59,1.13-3.53,0.9-4.94-0.39c-3.69-3.39-1.9-9.17-2.13-13.53C606.46,208.31,604.58,208.6,604.65,209.81L604.65,209.81z"/>
			</g>
		</g>
		<g>
			<g>
				<path class="st12" d="M372.24,391.1c41.18-44.4,88.39-83.11,139.87-114.96c51.59-31.92,107.16-56.33,165.22-73.77
					c5.64-1.69,11.96-3.87,15.1-9.25c3.01-5.15,1.85-11.57-1.26-16.39c-3.71-5.77-10.17-8.87-16.56-10.73
					c-6.88-2-14.04-3.18-21.12-4.18c-29.65-4.21-60.13-2.42-89.15,4.93c-28.73,7.28-55.96,19.96-79.83,37.54
					c-14.13,10.4-27.19,22.16-41.21,32.7c-13.6,10.22-27.95,19.64-42.99,27.62c-14.21,7.55-30.74,14.09-47.08,10.56
					c-14.39-3.11-25.97-14.33-31.36-27.79c-11.44-28.56,6.2-67.03,36.46-75.05c6.81-1.81,13.87-1.64,20.48,0.84
					c1.14,0.43,1.87-1.33,0.72-1.75c-12.62-4.73-26.2-1.16-36.97,6.34c-11.92,8.3-20.18,21.09-23.93,35.04
					c-3.73,13.9-2.69,29.01,4.54,41.61c6.42,11.19,17.09,19.9,29.82,22.64c15.26,3.28,30.85-2.05,44.39-8.81
					c14.94-7.46,29.16-16.68,42.65-26.49c14.47-10.53,27.82-22.46,42.05-33.29c12.56-9.55,25.97-17.85,40.23-24.62
					c27.5-13.06,57.57-20.57,87.97-22.09c15.3-0.77,30.69,0.01,45.83,2.36c7.77,1.21,16.02,2.41,23.27,5.58
					c7.18,3.14,13.99,9.9,12.79,18.41c-1.14,8.06-9.71,10.76-16.42,12.76c-7.42,2.2-14.81,4.49-22.15,6.93
					c-14.38,4.78-28.6,10.05-42.62,15.8c-28.05,11.49-55.31,24.88-81.57,40.01c-52.59,30.31-101.14,67.61-143.81,110.8
					c-5.04,5.1-10,10.29-14.88,15.55C369.9,390.85,371.41,391.99,372.24,391.1L372.24,391.1z"/>
			</g>
		</g>
		<g>
			<g>
				<path class="st12" d="M379.26,173.76c4.33-0.22,8.65-0.44,12.98-0.67c3.8-0.2,8.48-1.11,12.18,0.13c3.62,1.22,3.7,5.58,6.14,8.1
					c2.03,2.09,4.86,3.39,7.78,3.43c5.39,0.07,10.86-4.35,10.9-9.96c0.02-2.39-1.1-4.76-3.43-5.63c-2.1-0.78-4.5-0.22-5.7,1.72
					c-0.64,1.03,0.87,2.19,1.51,1.15c0.79-1.28,2.38-1.64,3.74-1.02c1.77,0.8,2.17,2.97,1.91,4.69c-0.44,2.92-2.72,5.35-5.39,6.46
					c-2.75,1.14-5.86,0.82-8.35-0.82c-2.67-1.76-3.12-4.27-4.59-6.83c-2.12-3.69-6.72-3.8-10.5-3.63c-6.49,0.28-12.98,0.67-19.47,1
					C377.76,171.95,378.05,173.82,379.26,173.76L379.26,173.76z"/>
			</g>
		</g>
		<g>
			<g>
				<path class="st12" d="M384.96,179.58c-5.73,0.48-10.76-3.77-11.24-9.5c-0.48-5.73,3.77-10.76,9.5-11.24
					c5.73-0.48,10.76,3.77,11.24,9.5C394.95,174.07,390.69,179.1,384.96,179.58z"/>
			</g>
			<g>
				<path class="st10" d="M373.72,170.08c0.48,5.73,5.51,9.98,11.24,9.5l-1.74-20.74C377.5,159.32,373.24,164.35,373.72,170.08z"/>
			</g>
		</g>
	</g>
	<g>
		<g>
			<g>
				<path class="st10" d="M1018.85,670.14c4.02,19.92,7.38,39.98,10.08,60.12c0.38,2.81,0.71,5.82-0.6,8.34
					c-1.64,3.16-5.34,4.56-8.72,5.68c-17.22,5.69-34.63,10.83-52.19,15.4c-5.4,1.41-11.55,2.65-16.25-0.38
					c-6.87-4.44-5.81-15.44-0.43-21.59s13.45-9.05,20.66-12.91c2.76-1.48,5.57-3.29,6.91-6.12c0.98-2.09,1.04-4.47,1.03-6.78
					c-0.05-11.23-1.29-22.45-3.69-33.42C989.3,675.8,1005.2,672.81,1018.85,670.14z"/>
			</g>
			<g>
				<g>
					<path class="st12" d="M948.34,756.86c3.26,5.82,10.62,4.91,16.09,3.61c7.52-1.79,15.03-3.63,22.49-5.63
						c7.36-1.97,14.68-4.11,21.88-6.61c3.6-1.25,7.16-2.58,10.69-4.02c2.67-1.09,5.66-2.12,7.73-4.22c2.46-2.48,2.43-5.93,2.25-9.2
						c-0.24-4.23-0.96-8.41-2.08-12.49c-0.07-0.27-0.4-0.41-0.64-0.26c-9.29,5.73-14.67,16.78-13.38,27.63
						c0.07,0.55,0.94,0.56,0.88,0c-1.25-10.54,3.9-21.29,12.95-26.87c-0.21-0.09-0.43-0.17-0.64-0.26
						c0.95,3.44,1.62,6.95,1.93,10.51c0.29,3.27,0.8,7.35-1.56,10.01c-2.01,2.26-5.2,3.31-7.92,4.42c-3.16,1.29-6.36,2.49-9.59,3.62
						c-12.82,4.5-26.01,7.86-39.2,11.07c-6.24,1.52-16.95,5.63-21.09-1.75C948.82,755.92,948.06,756.36,948.34,756.86L948.34,756.86
						z"/>
				</g>
			</g>
			<g>
				<g>
					<path class="st12" d="M953.89,735.41c2.71,0.32,5.02,2.13,6.93,3.96c1.75,1.67,3.26,3.59,4.56,5.63
						c2.62,4.09,4.48,8.6,6.29,13.09c0.21,0.52,1.06,0.29,0.84-0.23c-1.97-4.89-3.99-9.83-6.98-14.21
						c-2.66-3.9-6.68-8.52-11.65-9.11C953.33,734.47,953.34,735.35,953.89,735.41L953.89,735.41z"/>
				</g>
			</g>
			<g>
				<g>
					<path class="st12" d="M964.7,742.4c7.29-2.95,14.59-6.46,20.11-12.2c2.42-2.52,4.46-5.42,5.83-8.64
						c1.64-3.86,2.05-7.99,2.07-12.15c0.04-9.14-0.84-18.31-2.44-27.3c-0.62-3.49-1.18-7.5-3.76-10.16
						c-1.97-2.04-5.19-3.12-7.77-1.59c-3.41,2.03-3.56,6.47-3.05,9.94c0.76,5.16,1.79,10.29,2.7,15.43c0.1,0.55,0.94,0.32,0.84-0.23
						c-0.7-3.96-1.39-7.92-2.09-11.87c-0.64-3.67-1.89-8.3,0.82-11.46c2.91-3.41,7.48-0.98,9.26,2.25
						c1.69,3.07,2.06,6.91,2.61,10.32c1.29,7.95,1.98,16.02,2,24.08c0.01,3.85-0.24,7.73-1.59,11.38c-1.18,3.21-3.09,6.14-5.38,8.67
						c-5.48,6.05-12.95,9.68-20.4,12.7C963.95,741.77,964.18,742.61,964.7,742.4L964.7,742.4z"/>
				</g>
			</g>
			<g>
				<g>
					<path class="st12" d="M1020.6,679.49c-0.57-2.99-1.15-5.98-1.71-8.97c-0.25-1.33-0.51-2.79,0.27-4
						c0.68-1.07,1.88-1.7,2.97-2.29c0.5-0.27,0.05-1.02-0.44-0.76c-1.09,0.59-2.23,1.24-3.01,2.23c-0.88,1.13-1,2.48-0.82,3.86
						c0.45,3.4,1.27,6.79,1.91,10.16C1019.86,680.27,1020.7,680.04,1020.6,679.49L1020.6,679.49z"/>
				</g>
			</g>
			<g>
				<g>
					<path class="st12" d="M960.98,731.17c5.46,2.15,10.32,5.64,14.18,10.06c1.16,1.33,3.09-0.61,1.94-1.94
						c-4.18-4.78-9.49-8.44-15.39-10.76c-0.69-0.27-1.5,0.3-1.69,0.96C959.81,730.26,960.29,730.9,960.98,731.17L960.98,731.17z"/>
				</g>
			</g>
			<g>
				<g>
					<path class="st12" d="M971.78,724.77c5.12,2.16,10,4.91,14.54,8.11c0.6,0.43,1.52,0.11,1.87-0.49c0.4-0.69,0.11-1.45-0.49-1.87
						c-4.75-3.35-9.84-6.13-15.19-8.39c-0.68-0.29-1.51,0.31-1.69,0.96C970.6,723.88,971.09,724.48,971.78,724.77L971.78,724.77z"/>
				</g>
			</g>
			<g>
				<g>
					<path class="st12" d="M978.76,717.01c4.77,0.52,9.52,1.21,14.25,2.05c0.73,0.13,1.48-0.2,1.69-0.96
						c0.18-0.66-0.22-1.56-0.96-1.69c-4.97-0.88-9.96-1.6-14.98-2.15c-0.74-0.08-1.37,0.69-1.37,1.37
						C977.39,716.45,978.02,716.93,978.76,717.01L978.76,717.01z"/>
				</g>
			</g>
			<g>
				<g>
					<path class="st12" d="M979.19,706.03c5.89-1.78,12-2.52,18.15-2.2c1.76,0.09,1.76-2.65,0-2.74c-6.37-0.33-12.77,0.45-18.88,2.3
						C976.78,703.89,977.5,706.54,979.19,706.03L979.19,706.03z"/>
				</g>
			</g>
			<g>
				<g>
					<path class="st12" d="M977.28,690.05c2.88-0.24,5.64-1.07,8.48-1.58c2.41-0.44,5.08-0.57,7.34,0.52
						c1.58,0.76,2.97-1.6,1.38-2.37c-2.63-1.27-5.47-1.38-8.32-0.98c-2.98,0.42-5.87,1.41-8.88,1.66
						C975.53,687.46,975.52,690.2,977.28,690.05L977.28,690.05z"/>
				</g>
			</g>
			<g>
				<g>
					<circle class="st17" cx="969.38" cy="770.39" r="11.98"/>
					<path class="st12" d="M969.39,782.65c-6.76,0-12.25-5.5-12.25-12.25c0-6.76,5.5-12.26,12.25-12.26
						c6.76,0,12.25,5.5,12.25,12.26C981.64,777.15,976.14,782.65,969.39,782.65z M969.39,758.69c-6.46,0-11.71,5.25-11.71,11.71
						c0,6.46,5.25,11.71,11.71,11.71c6.46,0,11.71-5.25,11.71-11.71C981.09,763.94,975.84,758.69,969.39,758.69z"/>
				</g>
				<g>
					<circle class="st12" cx="969.38" cy="770.39" r="5.03"/>
				</g>
				<g>
					<g>
						<path class="st12" d="M975.99,762.91c1.7,2.7,2.57,5.84,2.48,9.04c-0.01,0.56,0.86,0.56,0.88,0c0.09-3.34-0.82-6.65-2.6-9.48
							C976.44,761.99,975.69,762.43,975.99,762.91L975.99,762.91z"/>
					</g>
				</g>
				<g>
					<g>
						<path class="st12" d="M977.14,775.89c0.29-0.48,0.57-0.95,0.86-1.43c0.12-0.2,0.05-0.49-0.16-0.6
							c-0.21-0.11-0.47-0.05-0.6,0.16c-0.29,0.48-0.57,0.95-0.86,1.43c-0.12,0.2-0.05,0.49,0.16,0.6
							C976.75,776.16,977.01,776.1,977.14,775.89L977.14,775.89z"/>
					</g>
				</g>
				<g>
					<g>
						<path class="st12" d="M961.82,765.16c-2.07,3.44-1.65,8.02,0.95,11.06c0.37,0.43,0.98-0.19,0.62-0.62
							c-2.35-2.74-2.68-6.91-0.82-10C962.86,765.12,962.11,764.68,961.82,765.16L961.82,765.16z"/>
					</g>
				</g>
				<g>
					<g>
						<path class="st12" d="M965.2,778.09c0.18,0.04,0.36,0.09,0.54,0.16c0.03,0.01,0.05,0.02,0.08,0.03c0.01,0,0.08,0.03,0.02,0.01
							c-0.06-0.02,0.01,0.01,0.02,0.01c0.02,0.01,0.04,0.02,0.06,0.03c0.09,0.04,0.18,0.09,0.26,0.14c0.08,0.05,0.16,0.09,0.24,0.15
							c0.04,0.02,0.07,0.05,0.11,0.07c0.02,0.01,0.04,0.03,0.05,0.04c0,0,0.09,0.07,0.03,0.03c-0.05-0.04,0.01,0.01,0.02,0.02
							c0.02,0.01,0.03,0.03,0.05,0.04c0.04,0.03,0.08,0.06,0.11,0.1c0.07,0.07,0.14,0.14,0.21,0.21c0.16,0.17,0.46,0.17,0.62,0
							c0.16-0.18,0.17-0.44,0-0.62c-0.59-0.62-1.37-1.06-2.2-1.25c-0.22-0.05-0.48,0.07-0.54,0.31
							C964.85,777.78,964.97,778.04,965.2,778.09L965.2,778.09z"/>
					</g>
				</g>
			</g>
			<g>
				<g>
					
						<ellipse transform="matrix(0.1597 -0.9872 0.9872 0.1597 113.7674 1642.993)" class="st17" cx="1021.99" cy="754.67" rx="11.98" ry="11.98"/>
					<path class="st12" d="M1021.99,766.92c-6.76,0-12.25-5.5-12.25-12.25c0-6.76,5.5-12.25,12.25-12.25
						c6.76,0,12.25,5.5,12.25,12.25C1034.24,761.43,1028.74,766.92,1021.99,766.92z M1021.99,742.96c-6.46,0-11.71,5.25-11.71,11.71
						c0,6.46,5.25,11.71,11.71,11.71s11.71-5.25,11.71-11.71C1033.69,748.21,1028.44,742.96,1021.99,742.96z"/>
				</g>
				<g>
					<path class="st12" d="M1027.02,754.67c0,2.78-2.25,5.03-5.03,5.03c-2.78,0-5.03-2.25-5.03-5.03c0-2.78,2.25-5.03,5.03-5.03
						C1024.77,749.63,1027.02,751.89,1027.02,754.67z"/>
				</g>
				<g>
					<g>
						<path class="st12" d="M1028.59,747.18c1.7,2.7,2.57,5.84,2.48,9.04c-0.01,0.56,0.86,0.56,0.88,0c0.09-3.34-0.82-6.65-2.6-9.48
							C1029.05,746.27,1028.29,746.71,1028.59,747.18L1028.59,747.18z"/>
					</g>
				</g>
				<g>
					<g>
						<path class="st12" d="M1029.74,760.16c0.29-0.48,0.57-0.95,0.86-1.43c0.12-0.2,0.05-0.49-0.16-0.6
							c-0.21-0.11-0.47-0.05-0.6,0.16c-0.29,0.48-0.57,0.95-0.86,1.43c-0.12,0.2-0.05,0.49,0.16,0.6
							C1029.35,760.43,1029.61,760.37,1029.74,760.16L1029.74,760.16z"/>
					</g>
				</g>
				<g>
					<g>
						<path class="st12" d="M1014.42,749.44c-2.07,3.44-1.65,8.02,0.95,11.06c0.37,0.43,0.98-0.19,0.62-0.62
							c-2.35-2.74-2.68-6.91-0.82-10C1015.47,749.4,1014.71,748.96,1014.42,749.44L1014.42,749.44z"/>
					</g>
				</g>
				<g>
					<g>
						<path class="st12" d="M1017.81,762.37c0.18,0.04,0.36,0.09,0.54,0.16c0.03,0.01,0.05,0.02,0.08,0.03
							c0.01,0,0.08,0.03,0.02,0.01c-0.06-0.02,0.01,0.01,0.02,0.01c0.02,0.01,0.04,0.02,0.06,0.03c0.09,0.04,0.18,0.09,0.26,0.14
							c0.08,0.05,0.16,0.09,0.24,0.15c0.04,0.02,0.07,0.05,0.11,0.07c0.02,0.01,0.04,0.03,0.05,0.04c0,0,0.09,0.07,0.03,0.03
							c-0.05-0.04,0.01,0.01,0.02,0.02c0.02,0.01,0.03,0.03,0.05,0.04c0.04,0.03,0.08,0.06,0.11,0.1c0.07,0.07,0.14,0.14,0.21,0.21
							c0.16,0.17,0.46,0.17,0.62,0c0.16-0.18,0.17-0.44,0-0.62c-0.59-0.62-1.37-1.06-2.2-1.25c-0.22-0.05-0.48,0.07-0.54,0.31
							C1017.45,762.05,1017.57,762.32,1017.81,762.37L1017.81,762.37z"/>
					</g>
				</g>
			</g>
		</g>
		<g>
			<g>
				<path class="st10" d="M969.07,628.99c-1.53,20.27-3.72,40.48-6.58,60.6c-0.4,2.81-0.9,5.8-2.84,7.86
					c-2.44,2.59-6.37,2.94-9.93,3.1c-18.12,0.82-36.27,1.05-54.41,0.69c-5.58-0.11-11.84-0.58-15.54-4.76
					c-5.41-6.13-1.41-16.44,5.44-20.9c6.85-4.46,15.4-5.06,23.38-6.84c3.06-0.68,6.26-1.66,8.31-4.02c1.51-1.74,2.21-4.02,2.83-6.25
					c2.99-10.82,4.84-21.96,5.5-33.17C939.1,626.43,955.21,627.86,969.07,628.99z"/>
			</g>
			<g>
				<g>
					<path class="st12" d="M877.72,693.37c1.51,6.26,8.5,7.56,13.99,7.8c7.69,0.34,15.4,0.58,23.1,0.69
						c7.93,0.11,15.87,0.03,23.79-0.45c3.85-0.23,7.7-0.57,11.54-1.01c2.81-0.33,5.91-0.54,8.38-2.08c2.92-1.82,3.74-5.21,4.42-8.36
						c0.87-4.05,1.29-8.17,1.31-12.3c0-0.28-0.28-0.5-0.55-0.42c-10.49,3-18.66,12.19-20.36,22.97c-0.09,0.55,0.76,0.79,0.84,0.23
						c1.65-10.49,9.53-19.44,19.75-22.36c-0.18-0.14-0.37-0.28-0.55-0.42c-0.02,3.47-0.31,6.93-0.94,10.35
						c-0.56,3.06-1.1,6.96-3.66,9.04c-2.43,1.99-5.95,2.16-8.94,2.51c-3.53,0.41-7.08,0.72-10.63,0.94
						c-13.82,0.88-27.68,0.51-41.5,0.02c-6.3-0.22-17.2,0.65-19.14-7.38C878.43,692.59,877.58,692.83,877.72,693.37L877.72,693.37z"
						/>
				</g>
			</g>
			<g>
				<g>
					<path class="st12" d="M888.87,674.23c4.53,1.88,7.04,7.74,8.4,12.11c1.47,4.72,2.04,9.65,2.58,14.54
						c0.06,0.55,0.94,0.56,0.88,0c-0.59-5.4-1.22-10.87-3.02-16.02c-1.52-4.34-4.1-9.6-8.6-11.47
						C888.58,673.17,888.36,674.02,888.87,674.23L888.87,674.23z"/>
				</g>
			</g>
			<g>
				<g>
					<path class="st12" d="M897.38,683.88c8.06-0.89,16.3-2.36,23.3-6.69c3.04-1.88,5.78-4.25,7.91-7.13
						c2.42-3.27,3.78-7.11,4.86-10.99c2.39-8.61,3.99-17.46,4.87-26.35c0.36-3.65,0.93-7.86-1.1-11.16c-1.5-2.43-4.38-4.12-7.23-3.1
						c-3.62,1.3-4.8,5.33-5.23,8.76c-0.63,5.13-1.05,10.29-1.57,15.44c-0.06,0.56,0.82,0.56,0.88,0c0.4-4,0.8-8,1.21-12
						c0.35-3.52,0.4-7.83,3.3-10.35c3.52-3.06,7.75-0.01,8.79,3.8c0.98,3.57,0.22,7.65-0.2,11.26c-0.91,7.82-2.4,15.59-4.48,23.18
						c-0.98,3.59-2.18,7.16-4.29,10.26c-1.96,2.9-4.61,5.31-7.54,7.22c-6.98,4.54-15.34,6.06-23.48,6.96
						C896.83,683.07,896.82,683.95,897.38,683.88L897.38,683.88z"/>
				</g>
			</g>
			<g>
				<g>
					<path class="st12" d="M968.23,638.46c0.26-3.07,0.52-6.14,0.79-9.21c0.12-1.32,0.3-2.77,1.37-3.69
						c0.95-0.82,2.25-1.1,3.45-1.37c0.55-0.12,0.32-0.97-0.23-0.84c-1.23,0.28-2.52,0.59-3.54,1.37c-1.13,0.85-1.6,2.12-1.79,3.48
						c-0.47,3.39-0.62,6.86-0.91,10.28C967.3,639.02,968.18,639.02,968.23,638.46L968.23,638.46z"/>
				</g>
			</g>
			<g>
				<g>
					<path class="st12" d="M896.86,672.08c4.68,3.55,8.41,8.24,10.93,13.53c0.32,0.67,1.27,0.84,1.87,0.49
						c0.68-0.4,0.81-1.2,0.49-1.87c-2.73-5.74-6.85-10.68-11.91-14.52c-0.59-0.45-1.53-0.09-1.87,0.49
						C895.95,670.91,896.27,671.63,896.86,672.08L896.86,672.08z"/>
				</g>
			</g>
			<g>
				<g>
					<path class="st12" d="M908.7,668.63c4.44,3.54,8.49,7.56,12.07,11.97c0.47,0.57,1.45,0.48,1.94,0c0.57-0.57,0.47-1.36,0-1.94
						c-3.58-4.41-7.63-8.43-12.07-11.97c-0.58-0.46-1.37-0.56-1.94,0C908.22,667.17,908.12,668.16,908.7,668.63L908.7,668.63z"/>
				</g>
			</g>
			<g>
				<g>
					<path class="st12" d="M917.79,663.25c4.46,1.8,8.85,3.75,13.17,5.84c0.67,0.32,1.48,0.18,1.87-0.49
						c0.35-0.6,0.18-1.55-0.49-1.87c-4.54-2.19-9.15-4.23-13.83-6.11c-0.69-0.28-1.51,0.3-1.69,0.96
						C916.62,662.35,917.1,662.97,917.79,663.25L917.79,663.25z"/>
				</g>
			</g>
			<g>
				<g>
					<path class="st12" d="M921.19,652.79c6.15-0.12,12.24,0.83,18.07,2.8c1.67,0.57,2.39-2.08,0.73-2.64
						c-6.04-2.05-12.42-3.02-18.8-2.9C919.42,650.09,919.42,652.83,921.19,652.79L921.19,652.79z"/>
				</g>
			</g>
			<g>
				<g>
					<path class="st12" d="M923.67,636.9c2.97,0.57,6,0.48,9,0.81c2.31,0.25,4.75,0.89,6.53,2.47c1.32,1.16,3.26-0.77,1.94-1.94
						c-4.72-4.17-11.03-2.89-16.73-3.98C922.67,633.93,921.93,636.57,923.67,636.9L923.67,636.9z"/>
				</g>
			</g>
			<g>
				<g>
					<path class="st17" d="M905.84,715.34c-1.79,6.37-8.41,10.08-14.78,8.29c-6.37-1.79-10.08-8.41-8.29-14.78
						c1.79-6.37,8.41-10.08,14.78-8.29C903.92,702.36,907.63,708.97,905.84,715.34z"/>
					<path class="st12" d="M894.3,724.35c-1.1,0-2.21-0.15-3.31-0.46c-6.5-1.83-10.31-8.61-8.48-15.12
						c1.83-6.5,8.61-10.31,15.12-8.48c6.5,1.83,10.31,8.61,8.48,15.12C904.58,720.82,899.65,724.35,894.3,724.35z M894.31,700.39
						c-5.11,0-9.82,3.38-11.27,8.54c-1.75,6.21,1.88,12.69,8.1,14.44c6.21,1.75,12.69-1.88,14.44-8.1l0.26,0.07l-0.26-0.07
						c1.75-6.21-1.88-12.69-8.1-14.44C896.42,700.53,895.36,700.39,894.31,700.39z"/>
				</g>
				<g>
					<path class="st12" d="M899.15,713.46c-0.75,2.68-3.53,4.24-6.21,3.48c-2.68-0.75-4.24-3.53-3.48-6.21
						c0.75-2.68,3.53-4.24,6.21-3.48C898.35,708.01,899.91,710.79,899.15,713.46z"/>
				</g>
				<g>
					<g>
						<path class="st12" d="M902.69,706.69c0.91,3.06,0.89,6.32-0.06,9.37c-0.17,0.54,0.68,0.77,0.84,0.23
							c0.99-3.19,1.01-6.63,0.06-9.83C903.37,705.92,902.53,706.15,902.69,706.69L902.69,706.69z"/>
					</g>
				</g>
				<g>
					<g>
						<path class="st12" d="M900.28,719.48c0.4-0.38,0.81-0.76,1.21-1.14c0.17-0.16,0.17-0.46,0-0.62c-0.18-0.16-0.44-0.17-0.62,0
							c-0.4,0.38-0.81,0.76-1.21,1.14c-0.17,0.16-0.17,0.46,0,0.62C899.84,719.65,900.11,719.65,900.28,719.48L900.28,719.48z"/>
					</g>
				</g>
				<g>
					<g>
						<path class="st12" d="M888.43,705.02c-2.93,2.75-3.76,7.28-2.07,10.9c0.24,0.51,0.99,0.07,0.76-0.44
							c-1.53-3.27-0.69-7.38,1.93-9.84C889.46,705.25,888.84,704.64,888.43,705.02L888.43,705.02z"/>
					</g>
				</g>
				<g>
					<g>
						<path class="st12" d="M888.2,718.38c0.17,0.09,0.33,0.19,0.48,0.3c0.03,0.02,0.08,0.08-0.01-0.01
							c0.02,0.01,0.03,0.03,0.05,0.04c0.04,0.03,0.07,0.06,0.11,0.09c0.07,0.06,0.14,0.13,0.21,0.2c0.07,0.07,0.13,0.14,0.19,0.21
							c0.03,0.03,0.06,0.07,0.08,0.1c0.02,0.03,0.05,0.09,0-0.01c0.01,0.02,0.03,0.04,0.05,0.06c0.11,0.15,0.21,0.32,0.3,0.48
							c0.11,0.2,0.41,0.28,0.6,0.16c0.21-0.13,0.27-0.38,0.16-0.6c-0.4-0.75-1.03-1.39-1.78-1.79c-0.2-0.11-0.49-0.06-0.6,0.16
							C887.94,717.99,887.99,718.27,888.2,718.38L888.2,718.38z"/>
					</g>
				</g>
			</g>
			<g>
				<g>
					<circle class="st17" cx="949.2" cy="711.21" r="11.98"/>
					<path class="st12" d="M949.2,723.46c-1.1,0-2.21-0.15-3.31-0.46c-6.5-1.83-10.31-8.61-8.48-15.12c0.89-3.15,2.95-5.77,5.8-7.37
						c2.86-1.6,6.16-1.99,9.31-1.11c6.5,1.83,10.31,8.61,8.48,15.12l0,0C959.48,719.93,954.55,723.46,949.2,723.46z M949.18,699.5
						c-1.98,0-3.94,0.51-5.71,1.5c-2.73,1.53-4.7,4.03-5.54,7.04c-1.75,6.21,1.89,12.69,8.1,14.44c3.01,0.85,6.17,0.47,8.9-1.06
						c2.73-1.53,4.7-4.03,5.54-7.04c1.75-6.21-1.89-12.69-8.1-14.44C951.32,699.64,950.25,699.5,949.18,699.5z"/>
				</g>
				<g>
					<path class="st12" d="M954.05,712.57c-0.75,2.68-3.53,4.24-6.21,3.48c-2.68-0.75-4.24-3.53-3.48-6.21
						c0.75-2.68,3.53-4.24,6.21-3.48C953.24,707.12,954.8,709.9,954.05,712.57z"/>
				</g>
				<g>
					<g>
						<path class="st12" d="M957.59,705.8c0.91,3.06,0.89,6.32-0.06,9.37c-0.17,0.54,0.68,0.77,0.84,0.23
							c0.99-3.19,1.01-6.63,0.06-9.83C958.27,705.03,957.43,705.26,957.59,705.8L957.59,705.8z"/>
					</g>
				</g>
				<g>
					<g>
						<path class="st12" d="M955.18,718.59c0.4-0.38,0.81-0.76,1.21-1.14c0.17-0.16,0.17-0.46,0-0.62c-0.18-0.16-0.44-0.17-0.62,0
							c-0.4,0.38-0.81,0.76-1.21,1.14c-0.17,0.16-0.17,0.46,0,0.62C954.74,718.76,955,718.76,955.18,718.59L955.18,718.59z"/>
					</g>
				</g>
				<g>
					<g>
						<path class="st12" d="M943.33,704.13c-2.93,2.75-3.76,7.28-2.07,10.9c0.24,0.51,0.99,0.07,0.76-0.44
							c-1.53-3.27-0.69-7.38,1.93-9.84C944.36,704.36,943.74,703.75,943.33,704.13L943.33,704.13z"/>
					</g>
				</g>
				<g>
					<g>
						<path class="st12" d="M943.1,717.49c0.17,0.09,0.33,0.19,0.48,0.3c0.03,0.02,0.08,0.08-0.01-0.01
							c0.02,0.01,0.03,0.03,0.05,0.04c0.04,0.03,0.07,0.06,0.11,0.09c0.07,0.06,0.14,0.13,0.21,0.2c0.07,0.07,0.13,0.14,0.19,0.21
							c0.03,0.03,0.06,0.07,0.08,0.1c0.02,0.03,0.05,0.09,0-0.01c0.01,0.02,0.03,0.04,0.05,0.06c0.11,0.15,0.21,0.32,0.3,0.48
							c0.11,0.2,0.41,0.28,0.6,0.16c0.21-0.13,0.27-0.38,0.16-0.6c-0.4-0.75-1.03-1.39-1.78-1.79c-0.2-0.11-0.49-0.06-0.6,0.16
							C942.83,717.1,942.88,717.38,943.1,717.49L943.1,717.49z"/>
					</g>
				</g>
			</g>
		</g>
	</g>
</g>
<g>
</g>
<g>
</g>
<g>
</g>
<g>
</g>
<g>
</g>
<g>
</g>
</svg>
