<?xml version="1.0" encoding="utf-8"?>
<!-- Generator: Adobe Illustrator 24.0.1, SVG Export Plug-In . SVG Version: 6.00 Build 0)  -->
<svg version="1.1" id="圖層_1" xmlns="http://www.w3.org/2000/svg" xmlns:xlink="http://www.w3.org/1999/xlink" x="0px" y="0px"
	 viewBox="0 0 1080 1080" style="enable-background:new 0 0 1080 1080;" xml:space="preserve">
<style type="text/css">
	.st0{fill:#8E8E8E;}
	.st1{fill:#989593;}
	.st2{fill:#585655;}
	.st3{fill:#332418;}
	.st4{fill:#271A12;}
	.st5{fill:#F9DACE;}
	.st6{fill:#E6CAC3;}
	.st7{fill:#6D6B6A;}
	.st8{fill:#E1C0B5;}
	.st9{fill:#C3A097;}
	.st10{fill:#343230;}
	.st11{fill:#E4F1F6;}
	.st12{fill:#FFFFFF;stroke:#848484;stroke-width:3;stroke-miterlimit:10;}
	.st13{fill:#D7D3D0;}
	.st14{fill:#FFFFFF;}
	.st15{fill:none;stroke:#FFFFFF;stroke-width:1.0497;stroke-miterlimit:10;}
	.st16{fill:#676767;}
	.st17{fill:#DEC5BE;}
</style>
<g>
	<ellipse class="st0" cx="522.68" cy="548.25" rx="431.11" ry="427.21"/>
	<g>
		<g>
			<path class="st1" d="M600.46,599.89c0,0,61.77,12.11,74.64,19.77c12.87,7.65,50.83,128.16,59.84,185.55
				c9.01,57.39-9.01,113.5-9.01,113.5l-176.95-13.39l1.29-218.07L600.46,599.89z"/>
			<path class="st1" d="M424.15,589.69c0,0-39.09,10.04-65.63,12.91c-26.54,2.87-61.29,52.13-75.77,77.95
				s-86.87,156.38-89.28,161.16c-2.41,4.78,12.55,22.95,42.47,32.04c29.92,9.09,159.74-27.26,159.74-27.26l37.16-163.55
				L424.15,589.69z"/>
			<path class="st2" d="M295.47,824.94c-0.42,0-0.82-0.21-1.06-0.59c-11.24-17.95-34.62-28.75-34.85-28.86
				c-0.62-0.29-0.9-1.02-0.61-1.64c0.29-0.62,1.02-0.9,1.65-0.61c0.99,0.45,24.28,11.21,35.93,29.8c0.36,0.58,0.18,1.34-0.4,1.7
				C295.92,824.88,295.69,824.94,295.47,824.94z"/>
			<path class="st1" d="M193.48,841.72c0,0-2.9,13.39,4.34,29.17s31.85,39.69,44.4,45.43c12.55,5.74,66.11,4.78,68.04,3.83
				c1.93-0.96,61.77-30.61,58.39-48.78c-3.38-18.17-40.05-44-63.7-45.91C281.31,823.54,220.5,824.02,193.48,841.72z"/>
			<path class="st2" d="M206.51,836.74c-0.52,0-1-0.32-1.18-0.84c-0.22-0.65,0.13-1.35,0.78-1.57c0.06-0.02,5.93-1.99,15.63-4.23
				c0.67-0.16,1.34,0.26,1.5,0.92c0.16,0.66-0.26,1.33-0.93,1.48c-9.57,2.22-15.34,4.15-15.4,4.17
				C206.77,836.71,206.64,836.74,206.51,836.74z"/>
			<path class="st2" d="M241.42,828.8c-0.6,0-1.13-0.44-1.23-1.05c-0.11-0.67,0.36-1.31,1.04-1.41c24.51-3.81,47.96-4.2,69.7-1.15
				c0.68,0.09,1.16,0.72,1.06,1.4c-0.1,0.68-0.73,1.15-1.41,1.05c-21.49-3.01-44.69-2.63-68.96,1.15
				C241.55,828.79,241.48,828.8,241.42,828.8z"/>
			<path class="st2" d="M363.83,683.7c-0.64,0-1.19-0.49-1.24-1.13c-2.38-27.78-10.02-57.36-10.1-57.66
				c-0.17-0.66,0.23-1.33,0.9-1.5c0.67-0.18,1.35,0.23,1.52,0.89c0.08,0.3,7.78,30.07,10.17,58.07c0.06,0.68-0.45,1.28-1.14,1.34
				C363.9,683.7,363.86,683.7,363.83,683.7z"/>
			<path class="st2" d="M430.43,666.69l-12.3-75.5c-0.14,0.03-0.27,0.07-0.41,0.1c-0.75,7.46-3.53,40.13,1.13,75.4H430.43z"/>
		</g>
		<g>
			<path class="st3" d="M579.55,331.93c-13.03-28.69-64.18-49.74-101.83-32.52c-37.64,17.22-37.16,46.87-53.57,69.82
				c-16.41,22.95-48.74,59.78-64.67,88.47c-15.93,28.69-11.1,90.38,15.44,111.9c0,0,1.93,0,2.41-1.43
				c0.48-1.43-9.65-27.26-5.31-43.52c0,0,4.34,30.13,25.09,52.6c0,0,34.75,0,57.43,1.43c22.68,1.43,116.3,8.13,131.75,13.87
				c0,0,17.37-15.3,24.61-29.65c0,0-1.93,18.65-4.83,23.43c0,0,23.16,0.48,25.58-0.96c2.41-1.43,15.44-31.08,20.27-49.74
				c0,0,11.58-63.13,6.76-117.16c0,0-0.48-58.82-33.78-76.99C591.61,323.32,579.55,331.93,579.55,331.93z"/>
			<path class="st3" d="M494.98,294.23c44.38-2.32,83.28,54.12,83.28,54.12l1.29-16.42C568.42,307.44,529.54,288.55,494.98,294.23z"
				/>
			<path class="st4" d="M620.4,374.17c-36.03-24.87-151.85-17.85-151.85-17.85s-27.67,17.22-36.03,35.71
				c-8.36,18.49-32.17,47.18-43.75,69.5c-11.21,21.6-13.37,80.21,13.9,115.75c10.71,0.06,34.74,0.33,51.89,1.41
				c22.68,1.43,116.3,8.13,131.75,13.87c0,0,17.37-15.3,24.61-29.65c0,0-1.93,18.65-4.83,23.43c0,0,23.16,0.48,25.58-0.96
				c2.41-1.43,15.44-31.08,20.27-49.74c0,0,9.51-51.85,7.7-101.8C652.57,412.2,640.17,387.82,620.4,374.17z"/>
			<path class="st5" d="M610.55,495.36c0,0,15.26-5.32,16.54,1.91c1.28,7.23-8.83,34.36-27.17,34.15L610.55,495.36z"/>
			<path class="st6" d="M450.21,576.78l21.56-16.26l95.71,12.19c0,0,6.76,30.37,1.45,40.89c-5.31,10.52-16.73,40.65-26.94,45.91
				c-10.21,5.26-44.24,7.65-44.24,7.65l-37.4-4.3L450.21,576.78z"/>
			<path class="st7" d="M458.42,563.39c0,0,0,55.95,20.27,92.3l-52.6,15.78c0,0-13.03-66.47-8.69-89.43
				C417.4,582.04,451.18,564.35,458.42,563.39z"/>
			<path class="st7" d="M524.53,659.99c0,0,35.23-50.69,41.98-83.21c0,0,39.09,17.22,40.05,20.09c0.97,2.87-20.75,59.3-29.44,70.3
				L524.53,659.99z"/>
			<path class="st5" d="M431.23,465.99c0,0-0.64,56.11,3.86,71.41c4.5,15.3,52.12,65.04,61.77,66.95
				c9.65,1.91,75.28-24.87,87.51-35.71c12.23-10.84,25.09-59.94,30.89-88.63c5.79-28.69,10.3-63.76-1.29-93.09
				c-11.58-29.33-48.26-49.74-92.01-42.08c-43.75,7.65-72.07,32.52-78.5,45.91C437.02,404.14,431.23,465.99,431.23,465.99z"/>
			<path class="st3" d="M568.93,430.44c0,0-20.91-8.77-39.89,1.75c-18.98,10.52,2.9-31.88,11.58-34.43
				c8.69-2.55,19.95-2.87,24.45,1.59c4.5,4.46,6.43,10.52,6.43,10.52S571.18,423.27,568.93,430.44z"/>
			<path class="st5" d="M434.45,462.17c0,0-12.23-14.67-19.3-4.46c-7.08,10.2-5.79,48.46,17.37,54.84L434.45,462.17z"/>
			<g>
				<path class="st3" d="M569.32,506c-0.91,4.19-3.4,7.22-5.55,6.76c-2.15-0.46-3.15-4.23-2.23-8.43c0.91-4.19,3.4-7.22,5.55-6.76
					C569.24,498.03,570.24,501.8,569.32,506z"/>
				<path class="st3" d="M575.25,500.51c-6.58-2.02-16.6-2.98-16.7-2.99l0.18-1.85c0.42,0.04,10.31,0.99,17.08,3.07L575.25,500.51z"
					/>
				<path class="st3" d="M489.72,495.72c-0.44,4.27,0.98,7.91,3.17,8.13c2.19,0.22,4.32-3.06,4.75-7.33
					c0.44-4.27-0.98-7.91-3.17-8.13C492.28,488.16,490.16,491.45,489.72,495.72z"/>
				<path class="st3" d="M502.61,490.95c-0.1-0.02-9.93-2.17-16.82-2.27l0.03-1.85c7.09,0.1,16.79,2.22,17.2,2.31L502.61,490.95z"/>
				<path class="st3" d="M588.03,481.75c-0.15,0-0.29-0.03-0.44-0.08c-6.33-2.35-28.5-4.72-28.73-4.75
					c-0.68-0.07-1.18-0.68-1.11-1.36c0.07-0.68,0.71-1.16,1.37-1.1c0.92,0.1,22.72,2.43,29.34,4.89c0.64,0.24,0.97,0.95,0.73,1.59
					C589.01,481.45,588.53,481.75,588.03,481.75z"/>
				<path class="st3" d="M514.22,471.09c-0.09,0-0.18-0.01-0.27-0.03c-0.22-0.05-21.99-4.72-28.77-4.5
					c-0.64,0.08-1.27-0.51-1.29-1.19c-0.03-0.68,0.51-1.25,1.2-1.28c7.05-0.3,28.48,4.36,29.39,4.56c0.67,0.14,1.1,0.8,0.95,1.47
					C515.31,470.69,514.79,471.09,514.22,471.09z"/>
				<path class="st8" d="M511.26,545.7c0,0,9.41,2.63,16.41,3.35c0,0-6.76,3.59-10.62,1.91C513.19,549.28,511.26,545.7,511.26,545.7
					z"/>
				<path class="st8" d="M526.8,569.28c0,0-15.8,0.35-29.16,1.58c0,0-0.23-0.93,4.23-2c4.46-1.07,22.54-1.22,23.65-0.75
					L526.8,569.28z"/>
			</g>
			<path class="st3" d="M568.93,430.44c0,0,4.83-23.43-13.99-23.91c-18.82-0.48-18.62,24.56-25.58,35.39
				c-6.76,10.52-25.09,25.82-47.78,31.08c-22.68,5.26-34.59,21.68-40.54,43.04c-5.95,21.36-1.45,73.17,11.1,87.99
				c0,0,2.41,3.35-1.93,3.83c-4.34,0.48-27.51-34.43-31.37-65.04c-3.86-30.61-2.9-160.2,54.05-195.59
				c56.94-35.39,83.49-17.69,93.62-6.22C576.65,352.49,578.58,394.1,568.93,430.44z"/>
			<path class="st3" d="M568.93,430.44c0,0,19.3-5.58,33.78,4.62c14.48,10.2,19.3,20.09,19.3,20.09s1.61-22.95-3.22-31.88
				c-4.83-8.93-7.72-19.77-18.66-21.36c-10.94-1.59-17.05-3.83-23.16,1.28c-6.11,5.1-3.86,12.12-3.86,12.12L568.93,430.44z"/>
			<path class="st3" d="M568.93,430.44c0,0,9.17-20.09,24.61-22c15.44-1.91,21.72,20.09,24.61,28.69
				c2.9,8.61-2.41,71.73-18.34,112.38c0,0,28.31-49.58,32.82-99.95c3.78-42.31-3.86-119.08-65.15-101.86
				C567.48,347.71,577.13,396.49,568.93,430.44z"/>
			<path class="st8" d="M491.02,639.23c-0.31,0-0.63-0.11-0.87-0.35c-6.63-6.36-12.41-23.91-12.65-24.66
				c-0.21-0.65,0.15-1.34,0.8-1.55c0.66-0.21,1.36,0.14,1.57,0.8c0.06,0.17,5.83,17.71,12.01,23.64c0.5,0.47,0.51,1.26,0.03,1.75
				C491.67,639.1,491.35,639.23,491.02,639.23z"/>
			<path class="st7" d="M458.42,563.39c-7.24,0.96-41.02,18.65-41.02,18.65c-1.17,6.17-1.07,15.51-0.32,25.84
				c12.31,16.32,28.71,35.67,47.63,52l13.97-4.19C458.42,619.34,458.42,563.39,458.42,563.39z"/>
			<path class="st2" d="M577.13,668.4c-0.21,0-0.43-0.06-0.63-0.17c-0.59-0.34-0.79-1.1-0.44-1.69c14.24-24,26.79-61.55,26.91-61.93
				c0.22-0.65,0.93-1,1.58-0.79c0.65,0.21,1.01,0.91,0.8,1.56c-0.13,0.38-12.76,38.19-27.14,62.41
				C577.98,668.18,577.56,668.4,577.13,668.4z"/>
		</g>
		<g>
			<path class="st8" d="M678.15,579.81c0,0-16.73-6.06-24.45-12.43c-7.72-6.38-13.83-17.53-16.09-19.45
				c-2.25-1.91-29.6-6.7-32.17-8.61c-2.57-1.91-4.5-7.01-2.9-8.61c1.61-1.59,9.65-5.1,20.59-2.55c10.94,2.55,17.37,3.51,17.37,3.51
				l17.05-5.1c0,0,13.83,8.61,18.34,16.9C680.41,551.75,678.15,579.81,678.15,579.81z"/>
			<path class="st5" d="M696.33,689.64c0,0-13.51-94.21-13.99-96.6c-0.48-2.39-10.62-28.22-13.51-40.17c0,0-8.69-22-11.1-26.3
				c-2.41-4.3-48.74-47.34-50.19-50.69c-1.45-3.35-1.93-7.65,2.9-8.61c0,0-6.27-5.74-3.86-10.04c2.41-4.3,4.83-4.3,4.83-4.3
				s-4.83-8.13,0-10.52c4.83-2.39,43.43,30.13,43.43,30.13s41.02,28.22,46.81,32.52c5.79,4.3,17.37,23.91,19.79,33.95
				c2.41,10.04,2.41,54.04,2.41,54.04l38.12,98.51L696.33,689.64z"/>
			<path class="st8" d="M658.21,507.41c-0.22,0-0.44-0.07-0.61-0.23l-43.19-37.3c-0.39-0.34-0.43-0.92-0.09-1.31
				c0.34-0.39,0.93-0.42,1.32-0.09l43.19,37.3c0.39,0.34,0.43,0.92,0.09,1.31C658.73,507.3,658.47,507.41,658.21,507.41z"/>
			<path class="st8" d="M659.41,491.87c-0.22,0-0.43-0.07-0.61-0.22l-40.78-34.67c-0.39-0.33-0.44-0.92-0.1-1.31
				c0.34-0.39,0.93-0.43,1.32-0.1l40.78,34.67c0.39,0.33,0.44,0.92,0.1,1.31C659.94,491.76,659.68,491.87,659.41,491.87z"/>
			<path class="st8" d="M681.13,495.69c-0.2,0-0.4-0.06-0.57-0.19l-17.13-12.91c-0.41-0.31-0.49-0.89-0.18-1.3
				c0.32-0.41,0.9-0.49,1.31-0.18l17.13,12.91c0.41,0.31,0.49,0.89,0.18,1.3C681.69,495.57,681.41,495.69,681.13,495.69z"/>
			<path class="st8" d="M620.24,490.19c-0.22,0-0.45-0.08-0.63-0.24c-1.21-1.08-11.81-10.65-12.98-14.61
				c-0.86-2.93-0.82-5.12,0.13-6.7c0.47-0.78,1.15-1.38,2.02-1.8c-1.6-1.92-4.44-6.07-3.11-9.92c1.1-3.18,2.93-4.32,4.24-4.72
				c-1.14-2.25-3.03-6.92-0.37-9.3c0.38-0.34,0.97-0.32,1.32,0.06c0.35,0.38,0.32,0.97-0.06,1.31c-1.9,1.7,0.42,6.59,1.38,8.17
				c0.18,0.3,0.18,0.68-0.01,0.97c-0.19,0.3-0.54,0.47-0.88,0.43c-0.09,0-2.52-0.13-3.85,3.68c-1.4,4.03,3.59,9.03,3.64,9.09
				c0.24,0.24,0.33,0.59,0.24,0.92c-0.1,0.33-0.36,0.57-0.7,0.64c-1.09,0.23-1.82,0.7-2.25,1.41c-0.66,1.1-0.64,2.86,0.06,5.24
				c0.86,2.93,9.27,10.93,12.44,13.76c0.38,0.34,0.41,0.93,0.07,1.31C620.75,490.09,620.5,490.19,620.24,490.19z"/>
			<path class="st8" d="M642.76,512.03c-0.24,0-0.48-0.09-0.66-0.27l-17.86-17.69c-0.36-0.36-0.36-0.95,0-1.31
				c0.37-0.36,0.96-0.36,1.32,0l17.86,17.69c0.36,0.36,0.36,0.95,0,1.31C643.24,511.94,643,512.03,642.76,512.03z"/>
			<path class="st9" d="M700.51,609.75c-0.1,0-0.21-0.02-0.31-0.05c-4.65-1.65-10.4-7.31-10.64-7.55c-0.36-0.36-0.36-0.95,0-1.31
				c0.37-0.36,0.96-0.36,1.32,0c0.06,0.06,5.69,5.61,9.95,7.11c0.49,0.17,0.74,0.7,0.57,1.18
				C701.26,609.51,700.9,609.75,700.51,609.75z"/>
			<path class="st1" d="M771.13,710.68c0,0,16.41,11.48,21.72,17.69c5.31,6.22,11.1,131.51,10.13,143.47
				c-0.97,11.96-30.4,43.04-35.23,46.87c-4.83,3.83-34.26,4.78-39.09,2.87c-4.83-1.91-22.68-25.35-22.68-25.35
				s-6.76-169.77-6.76-175.99C699.23,714.03,771.13,710.68,771.13,710.68z"/>
			<path class="st1" d="M690.54,688.68c0,0,76.73-16.74,79.63-15.3c2.9,1.43,3.86,35.39,3.86,37.78c0,2.39-72.39,14.82-76.25,11
				C693.92,718.33,690.54,688.68,690.54,688.68z"/>
			<path class="st2" d="M703.09,723.87c-0.64,0-1.19-0.49-1.24-1.13c-0.06-0.68,0.45-1.28,1.14-1.33
				c0.35-0.03,35.46-2.94,63.03-9.53c0.68-0.18,1.34,0.25,1.5,0.91c0.16,0.66-0.25,1.33-0.92,1.49c-27.76,6.64-63.06,9.57-63.41,9.6
				C703.16,723.87,703.12,723.87,703.09,723.87z"/>
			<path class="st2" d="M755.69,754.48c-0.67,0-1.22-0.52-1.25-1.19l-1.45-37.3c-0.03-0.68,0.51-1.26,1.2-1.28
				c0.69-0.01,1.27,0.51,1.29,1.19l1.45,37.3c0.03,0.68-0.51,1.26-1.2,1.28C755.72,754.48,755.71,754.48,755.69,754.48z"/>
			<path class="st2" d="M748.45,736.31c-0.51,0-0.99-0.31-1.17-0.81l-5.79-15.78c-0.24-0.64,0.1-1.35,0.74-1.58
				c0.65-0.23,1.36,0.1,1.6,0.74l5.79,15.78c0.24,0.64-0.1,1.35-0.74,1.58C748.74,736.28,748.59,736.31,748.45,736.31z"/>
		</g>
		<g>
			<path class="st7" d="M507.8,654.09H287.42c-9.8,0-17.45,8.41-16.43,18.07l25.75,244.73c0.38,3.57,3.41,6.28,7.03,6.28H507.8
				h204.04c3.62,0,6.66-2.71,7.03-6.28l25.75-244.73c1.02-9.66-6.63-18.07-16.43-18.07H507.8z"/>
			<path class="st10" d="M711.84,923.17c3.62,0,6.66-2.71,7.03-6.28l21.59-205.19c-82.14,38.52-260.73,114.57-449.94,146.09
				l6.22,59.1c0.38,3.57,3.41,6.28,7.03,6.28H711.84z"/>
			<path class="st11" d="M471.77,757.15v62.97h72.07v-62.97H471.77z M533.86,810.23h-52.12v-43.2h52.12V810.23z"/>
		</g>
	</g>
	<g>
		<path class="st0" d="M40.49,306.38v239.81c0,8.52,6.97,15.43,15.57,15.43h189.47c4.73,0,9.21,2.13,12.16,5.79l20.34,25.2
			c3.48,4.31,10.5,1.87,10.5-3.65v-27.34V306.38c0-8.52-6.97-15.43-15.57-15.43H56.06C47.46,290.94,40.49,297.85,40.49,306.38z"/>
		<path class="st12" d="M36.15,299.06v239.81c0,8.52,6.97,15.43,15.57,15.43H241.2c4.73,0,9.21,2.13,12.16,5.79l20.34,25.2
			c3.48,4.31,10.5,1.87,10.5-3.65V554.3V299.06c0-8.52-6.97-15.43-15.57-15.43H51.73C43.13,283.63,36.15,290.54,36.15,299.06z"/>
		<g>
			<path class="st7" d="M71.47,343.54l7.58,3.95c1.08,0.56,2.35-0.35,2.14-1.54l-1.45-8.37c-0.08-0.47,0.08-0.96,0.42-1.29
				l6.13-5.93c0.88-0.85,0.39-2.32-0.82-2.5l-8.48-1.22c-0.48-0.07-0.9-0.37-1.11-0.8l-3.79-7.61c-0.54-1.09-2.11-1.09-2.65,0
				l-3.79,7.61c-0.22,0.43-0.63,0.73-1.11,0.8l-8.48,1.22c-1.21,0.17-1.69,1.65-0.82,2.5l6.13,5.93c0.35,0.34,0.51,0.82,0.42,1.29
				l-1.45,8.37c-0.21,1.2,1.06,2.11,2.14,1.54l7.58-3.95C70.53,343.32,71.04,343.32,71.47,343.54z"/>
			<path class="st13" d="M113.94,343.54l7.58,3.95c1.08,0.56,2.35-0.35,2.14-1.54l-1.45-8.37c-0.08-0.47,0.08-0.96,0.42-1.29
				l6.13-5.93c0.88-0.85,0.39-2.32-0.82-2.5l-8.48-1.22c-0.48-0.07-0.9-0.37-1.11-0.8l-3.79-7.61c-0.54-1.09-2.11-1.09-2.65,0
				l-3.79,7.61c-0.21,0.43-0.63,0.73-1.11,0.8l-8.48,1.22c-1.21,0.17-1.69,1.65-0.82,2.5l6.13,5.93c0.35,0.34,0.51,0.82,0.42,1.29
				l-1.45,8.37c-0.21,1.2,1.06,2.11,2.14,1.54l7.58-3.95C112.99,343.32,113.51,343.32,113.94,343.54z"/>
			<path class="st13" d="M156.4,343.54l7.58,3.95c1.08,0.56,2.35-0.35,2.14-1.54l-1.45-8.37c-0.08-0.47,0.08-0.96,0.42-1.29
				l6.13-5.93c0.88-0.85,0.39-2.32-0.82-2.5l-8.48-1.22c-0.48-0.07-0.9-0.37-1.11-0.8l-3.79-7.61c-0.54-1.09-2.11-1.09-2.65,0
				l-3.79,7.61c-0.21,0.43-0.63,0.73-1.11,0.8l-8.48,1.22c-1.21,0.17-1.69,1.65-0.82,2.5l6.13,5.93c0.35,0.34,0.51,0.82,0.42,1.29
				l-1.45,8.37c-0.21,1.2,1.06,2.11,2.14,1.54l7.58-3.95C155.46,343.32,155.97,343.32,156.4,343.54z"/>
			<path class="st13" d="M198.87,343.54l7.58,3.95c1.08,0.56,2.35-0.35,2.14-1.54l-1.45-8.37c-0.08-0.47,0.08-0.96,0.42-1.29
				l6.13-5.93c0.88-0.85,0.39-2.32-0.82-2.5l-8.48-1.22c-0.48-0.07-0.9-0.37-1.11-0.8l-3.79-7.61c-0.54-1.09-2.11-1.09-2.65,0
				l-3.79,7.61c-0.22,0.43-0.63,0.73-1.11,0.8l-8.48,1.22c-1.21,0.17-1.69,1.65-0.82,2.5l6.13,5.93c0.35,0.34,0.51,0.82,0.42,1.29
				l-1.45,8.37c-0.21,1.2,1.06,2.11,2.14,1.54l7.58-3.95C197.93,343.32,198.44,343.32,198.87,343.54z"/>
			<path class="st13" d="M241.34,343.54l7.58,3.95c1.08,0.56,2.35-0.35,2.14-1.54l-1.45-8.37c-0.08-0.47,0.08-0.96,0.42-1.29
				l6.13-5.93c0.88-0.85,0.39-2.32-0.82-2.5l-8.48-1.22c-0.48-0.07-0.9-0.37-1.11-0.8l-3.79-7.61c-0.54-1.09-2.11-1.09-2.65,0
				l-3.79,7.61c-0.21,0.43-0.63,0.73-1.11,0.8l-8.48,1.22c-1.21,0.17-1.69,1.65-0.82,2.5l6.13,5.93c0.35,0.34,0.51,0.82,0.42,1.29
				l-1.45,8.37c-0.21,1.2,1.06,2.11,2.14,1.54l7.58-3.95C240.4,343.32,240.91,343.32,241.34,343.54z"/>
		</g>
		<g>
			<path class="st0" d="M261.71,396.97H60.1c-1.23,0-2.23-1-2.23-2.23v-6.55c0-1.23,1-2.23,2.23-2.23h201.61
				c1.23,0,2.23,1,2.23,2.23v6.55C263.93,395.97,262.94,396.97,261.71,396.97z"/>
			<path class="st0" d="M232.43,420.88H60.1c-1.23,0-2.23-1-2.23-2.23v-6.55c0-1.23,1-2.23,2.23-2.23h172.34
				c1.23,0,2.23,1,2.23,2.23v6.55C234.66,419.88,233.66,420.88,232.43,420.88z"/>
			<path class="st0" d="M261.71,444.79H60.1c-1.23,0-2.23-1-2.23-2.23v-6.55c0-1.23,1-2.23,2.23-2.23h201.61
				c1.23,0,2.23,1,2.23,2.23v6.55C263.93,443.79,262.94,444.79,261.71,444.79z"/>
			<path class="st0" d="M235.65,468.7H60.1c-1.23,0-2.23-1-2.23-2.23v-6.55c0-1.23,1-2.23,2.23-2.23h175.55c1.23,0,2.23,1,2.23,2.23
				v6.55C237.88,467.7,236.88,468.7,235.65,468.7z"/>
			<path class="st0" d="M192.22,492.61H60.1c-1.23,0-2.23-1-2.23-2.23v-6.55c0-1.23,1-2.23,2.23-2.23h132.12
				c1.23,0,2.23,1,2.23,2.23v6.55C194.44,491.62,193.45,492.61,192.22,492.61z"/>
			<path class="st0" d="M246.59,516.52H60.1c-1.23,0-2.23-1-2.23-2.23v-6.55c0-1.23,1-2.23,2.23-2.23h186.49
				c1.23,0,2.23,1,2.23,2.23v6.55C248.81,515.53,247.82,516.52,246.59,516.52z"/>
		</g>
	</g>
	<g>
		<path class="st7" d="M874.4,826.89c0,0-34.75-7.17-45.85,21.04s25.58,55,47.78,51.65l-0.48-20.56c0,0-38.61-6.69-32.33-25.82
			c6.27-19.13,31.85-9.09,31.85-9.09L874.4,826.89z"/>
		<path class="st7" d="M970.95,795.66h-100.1c-2.21,0-4,1.79-4,4v119.06h108.1V799.65C974.94,797.45,973.15,795.66,970.95,795.66z"
			/>
		<path class="st11" d="M959.82,908.27c-1.38,0-2.49-1.11-2.49-2.47v-87.04c0-1.37,1.12-2.47,2.49-2.47c1.38,0,2.49,1.11,2.49,2.47
			v87.04C962.32,907.16,961.2,908.27,959.82,908.27z"/>
		<path class="st11" d="M945.83,875.75c-1.38,0-2.49-1.11-2.49-2.47V817.8c0-1.37,1.12-2.47,2.49-2.47c1.38,0,2.49,1.11,2.49,2.47
			v55.48C948.32,874.64,947.21,875.75,945.83,875.75z"/>
	</g>
	<g>
		<path class="st0" d="M1073.05,975.14H2.53c-3.84,0-6.95-3.11-6.95-6.95v-42.53c0-3.84,3.11-6.95,6.95-6.95h1070.51
			c3.84,0,6.95,3.11,6.95,6.95v42.53C1080,972.03,1076.89,975.14,1073.05,975.14z"/>
		<path class="st11" d="M171.14,961.31h-66.52c-2.18,0-3.95-1.66-3.95-3.71c0-2.05,1.77-3.71,3.95-3.71h66.52
			c2.18,0,3.95,1.66,3.95,3.71C175.09,959.65,173.32,961.31,171.14,961.31z"/>
		<path class="st11" d="M1038.68,961.31H249.89c-2.18,0-3.95-1.66-3.95-3.71c0-2.05,1.77-3.71,3.95-3.71h788.79
			c2.18,0,3.94,1.66,3.94,3.71C1042.62,959.65,1040.85,961.31,1038.68,961.31z"/>
	</g>
	<g>
		<path class="st5" d="M916.14,609.23c0,0,4.15-3.43,8.65-3.77c4.5-0.34,57.1,0,57.1,0s5.19,3.09,4.5,7.2
			c-0.69,4.11-4.15,8.57-4.15,8.57s7.27,2.74,7.96,5.83c0.69,3.09-4.15,8.57-4.15,8.57s6.92,0.34,7.96,4.8
			c1.04,4.46-5.19,11.32-5.19,11.32s4.84,2.4,5.19,6.52c0.35,4.11-4.5,9.26-7.27,9.6c-2.77,0.34-39.1,0-39.1,0
			s7.27,13.72,7.96,17.83c0.69,4.11-5.19,18.52-10.73,19.89c-5.54,1.37-9.69-1.03-9.69-1.03s-0.35-18.17-0.35-19.2
			c0-1.03-9.34-27.09-16.96-29.66C910.26,653.12,916.14,609.23,916.14,609.23z"/>
		<path class="st7" d="M914.68,661.35h-30.29c-1.76,0-3.19-1.43-3.19-3.19V604.2c0-1.76,1.43-3.19,3.19-3.19h30.29
			c1.76,0,3.19,1.43,3.19,3.19v53.96C917.87,659.92,916.44,661.35,914.68,661.35z"/>
		<path class="st11" d="M909.67,631.1c-0.69,0-1.25-0.55-1.25-1.23V609.3c0-0.68,0.56-1.23,1.25-1.23c0.69,0,1.25,0.55,1.25,1.23
			v20.56C910.91,630.54,910.36,631.1,909.67,631.1z"/>
		<path class="st11" d="M909.67,646.4c-0.69,0-1.25-0.55-1.25-1.23v-6.93c0-0.68,0.56-1.23,1.25-1.23c0.69,0,1.25,0.55,1.25,1.23
			v6.93C910.91,645.85,910.36,646.4,909.67,646.4z"/>
	</g>
	<path class="st14" d="M410.71,190.97c-1.8-2.06-4.95-2.29-7.03-0.5l-15.72,13.49v-41.47c0-2.73-2.23-4.94-4.99-4.94
		s-4.99,2.21-4.99,4.94v41.47l-15.72-13.49c-2.08-1.79-5.23-1.56-7.03,0.5c-1.8,2.06-1.58,5.18,0.51,6.97l23.97,20.56
		c0.08,0.07,0.17,0.12,0.25,0.18c0.12,0.09,0.23,0.18,0.36,0.25c0.15,0.09,0.3,0.17,0.45,0.24c0.12,0.06,0.24,0.12,0.37,0.17
		c0.18,0.07,0.36,0.12,0.55,0.17c0.11,0.03,0.23,0.07,0.34,0.09c0.31,0.06,0.62,0.09,0.94,0.09s0.63-0.03,0.94-0.09
		c0.12-0.02,0.23-0.06,0.34-0.09c0.18-0.05,0.37-0.1,0.55-0.17c0.13-0.05,0.25-0.11,0.37-0.17c0.15-0.08,0.31-0.15,0.45-0.24
		c0.12-0.08,0.24-0.17,0.36-0.25c0.08-0.06,0.17-0.11,0.25-0.18l23.97-20.56C412.29,196.15,412.51,193.03,410.71,190.97z"/>
	<path class="st14" d="M39.43,624.01c-1.56-1.79-4.3-1.99-6.11-0.44l-13.65,11.71v-36.02c0-2.37-1.94-4.29-4.33-4.29
		s-4.33,1.92-4.33,4.29v36.02l-13.65-11.71c-1.81-1.55-4.54-1.36-6.11,0.44c-1.57,1.79-1.37,4.5,0.44,6.05l20.82,17.86
		c0.03,0.03,0.07,0.04,0.11,0.06c0.35,0.29,0.75,0.52,1.18,0.69c0.06,0.02,0.12,0.03,0.18,0.05c0.43,0.14,0.89,0.24,1.37,0.24
		s0.94-0.1,1.37-0.24c0.06-0.02,0.12-0.03,0.18-0.05c0.43-0.17,0.83-0.4,1.18-0.69c0.03-0.03,0.07-0.03,0.11-0.06l20.82-17.86
		C40.8,628.51,40.99,625.8,39.43,624.01z"/>
	<path class="st0" d="M1063.06,820.8c-1.57-1.8-4.31-1.99-6.11-0.44l-13.65,11.71v-36.02c0-2.37-1.94-4.29-4.33-4.29
		c-2.39,0-4.33,1.92-4.33,4.29v36.02l-13.65-11.71c-1.81-1.55-4.54-1.36-6.11,0.44c-1.56,1.79-1.37,4.5,0.44,6.05l20.82,17.86
		c0.03,0.03,0.07,0.04,0.11,0.06c0.35,0.29,0.75,0.52,1.18,0.69c0.06,0.02,0.12,0.03,0.18,0.05c0.43,0.14,0.89,0.24,1.37,0.24
		c0.48,0,0.94-0.1,1.37-0.24c0.06-0.02,0.12-0.03,0.18-0.05c0.43-0.17,0.83-0.4,1.18-0.69c0.03-0.03,0.07-0.03,0.11-0.06
		l20.82-17.86C1064.43,825.3,1064.62,822.59,1063.06,820.8z"/>
	<path class="st0" d="M91.57,843.03c-2.07,0-3.74-1.66-3.74-3.71v-50.69c0-2.05,1.67-3.71,3.74-3.71c2.07,0,3.74,1.66,3.74,3.71
		v50.69C95.31,841.37,93.64,843.03,91.57,843.03z"/>
	<path class="st14" d="M116.59,821.14c-2.07,0-3.74-1.66-3.74-3.71v-28.8c0-2.05,1.67-3.71,3.74-3.71c2.07,0,3.74,1.66,3.74,3.71
		v28.8C120.33,819.48,118.65,821.14,116.59,821.14z"/>
	<path class="st0" d="M1018.94,709.72c-2.06,0-3.74-1.66-3.74-3.71V599.89c0-2.05,1.67-3.71,3.74-3.71c2.06,0,3.74,1.66,3.74,3.71
		v106.12C1022.68,708.06,1021.01,709.72,1018.94,709.72z"/>
	<path class="st0" d="M1046.37,748.9c-2.06,0-3.74-1.66-3.74-3.71v-62.73c0-2.05,1.67-3.71,3.74-3.71c2.06,0,3.74,1.66,3.74,3.71
		v62.73C1050.11,747.24,1048.43,748.9,1046.37,748.9z"/>
	<path class="st0" d="M803.09,151.52c-2.06,0-3.74-1.66-3.74-3.71v-39.53c0-2.05,1.67-3.71,3.74-3.71c2.06,0,3.74,1.66,3.74,3.71
		v39.53C806.83,149.86,805.15,151.52,803.09,151.52z"/>
	<path class="st0" d="M164.84,145.14c-2.07,0-3.74-1.66-3.74-3.71v-13.39c0-2.05,1.67-3.71,3.74-3.71c2.07,0,3.74,1.66,3.74,3.71
		v13.39C168.58,143.48,166.91,145.14,164.84,145.14z"/>
	<path class="st0" d="M164.84,206.04c-2.07,0-3.74-1.66-3.74-3.71v-36.66c0-2.05,1.67-3.71,3.74-3.71c2.07,0,3.74,1.66,3.74,3.71
		v36.66C168.58,204.38,166.91,206.04,164.84,206.04z"/>
	<path class="st14" d="M214.26,180.47c-2.07,0-3.74-1.66-3.74-3.71v-48.71c0-2.05,1.67-3.71,3.74-3.71c2.07,0,3.74,1.66,3.74,3.71
		v48.71C218.01,178.81,216.33,180.47,214.26,180.47z"/>
	<path class="st14" d="M723.36,376.61c-2.06,0-3.74-1.66-3.74-3.71v-46.6c0-2.05,1.67-3.71,3.74-3.71c2.06,0,3.74,1.66,3.74,3.71
		v46.6C727.1,374.95,725.42,376.61,723.36,376.61z"/>
	<path class="st14" d="M723.36,403.73c-2.06,0-3.74-1.66-3.74-3.71v-9.27c0-2.05,1.67-3.71,3.74-3.71c2.06,0,3.74,1.66,3.74,3.71
		v9.27C727.1,402.07,725.42,403.73,723.36,403.73z"/>
	<path class="st14" d="M319.27,398.72c-2.07,0-3.74-1.66-3.74-3.71v-45.95c0-2.05,1.67-3.71,3.74-3.71c2.07,0,3.74,1.66,3.74,3.71
		v45.95C323.01,397.06,321.34,398.72,319.27,398.72z"/>
	<path class="st15" d="M1031.25,210.37H768.72c-7.2,0-13.03,5.78-13.03,12.91V512.6v43.77c0,4.64,5.68,6.94,8.96,3.64l43.26-43.55
		c2.45-2.47,5.79-3.85,9.29-3.85h214.04c7.2,0,13.03-5.78,13.03-12.91V223.28C1044.27,216.15,1038.44,210.37,1031.25,210.37z"/>
	<path class="st12" d="M1025.94,202.33H763.41c-7.2,0-13.03,5.78-13.03,12.91v289.33v43.77c0,4.64,5.68,6.94,8.96,3.64l43.26-43.55
		c2.45-2.47,5.79-3.85,9.29-3.85h214.04c7.2,0,13.03-5.78,13.03-12.91V215.24C1038.97,208.11,1033.13,202.33,1025.94,202.33z"/>
	<g>
		<g>
			<path class="st16" d="M670.94,332.9c-1.86,0-3.49-1.34-3.78-3.22c-0.99-6.42-3.48-10.86-7.38-13.18
				c-6.82-4.06-16.21-0.87-16.31-0.84c-1.99,0.68-4.18-0.34-4.89-2.32c-0.71-1.97,0.33-4.14,2.32-4.84
				c0.52-0.18,12.81-4.43,22.77,1.45c5.98,3.53,9.71,9.78,11.07,18.57c0.32,2.07-1.11,4.01-3.21,4.33
				C671.33,332.88,671.14,332.9,670.94,332.9z"/>
		</g>
		<g>
			<path class="st16" d="M687.13,332.3c-1.57,0-3.04-0.96-3.6-2.52c-0.19-0.51-4.47-12.69,1.46-22.56
				c3.57-5.93,9.87-9.62,18.74-10.97c2.09-0.31,4.05,1.1,4.37,3.18c0.32,2.07-1.11,4.01-3.21,4.33c-6.48,0.98-10.96,3.45-13.3,7.32
				c-4.09,6.76-0.88,16.06-0.84,16.16c0.7,1.97-0.35,4.14-2.34,4.84C687.99,332.23,687.56,332.3,687.13,332.3z"/>
		</g>
		<g>
			<path class="st16" d="M694.56,289.19c-3.86,0-8.28-0.72-12.32-3.1c-5.98-3.54-9.71-9.78-11.07-18.57
				c-0.32-2.07,1.11-4.01,3.21-4.33c2.09-0.3,4.05,1.1,4.37,3.18c0.99,6.42,3.48,10.86,7.39,13.18c6.82,4.06,16.21,0.87,16.3,0.84
				c2-0.69,4.18,0.34,4.89,2.31c0.71,1.97-0.33,4.14-2.32,4.84C704.7,287.65,700.23,289.19,694.56,289.19z"/>
		</g>
		<g>
			<path class="st16" d="M641.59,299.83c-1.86,0-3.49-1.34-3.78-3.22c-0.32-2.07,1.11-4.01,3.21-4.33
				c6.48-0.98,10.96-3.45,13.3-7.32c4.09-6.76,0.88-16.06,0.84-16.16c-0.7-1.97,0.35-4.14,2.34-4.84c2-0.7,4.18,0.32,4.89,2.3
				c0.19,0.51,4.47,12.69-1.46,22.56c-3.57,5.93-9.87,9.62-18.74,10.97C641.98,299.82,641.78,299.83,641.59,299.83z"/>
		</g>
	</g>
	<g>
		<g>
			<g>
				<path class="st0" d="M897.91,259.16c-45.57,0-82.65,36.74-82.65,81.9s37.07,81.9,82.65,81.9s82.65-36.74,82.65-81.9
					S943.48,259.16,897.91,259.16z"/>
			</g>
		</g>
		<g>
			<g>
				<path class="st7" d="M873.12,367.18l-48.42,11.81c13.83,26.11,41.45,43.96,73.21,43.96c29.87,0,56.09-15.79,70.61-39.38
					l-47.78-14.05L873.12,367.18z"/>
				<path class="st5" d="M934.34,373.52l-13.6-4l-47.62-2.35l-7.71,1.88c0.09,8.28,3.13,28.36,30.72,28.36
					C921.32,397.42,930.94,382,934.34,373.52z"/>
			</g>
			<g>
				<g>
					<polygon class="st5" points="922.05,374.1 904.22,379.91 872.2,372.9 874.84,356.42 875.31,353.49 876.12,348.43 
						919.38,348.43 920.48,359.19 920.68,361.03 					"/>
				</g>
				<path class="st17" d="M920.68,361.03c-4.93,4.41-12.05,8.81-21.23,9.45c-12.96,0.92-20.86-8.13-24.62-14.06l0.47-2.93l0.81-5.06
					h43.26l1.11,10.76L920.68,361.03z"/>
				<g>
					<path class="st17" d="M866.74,306.7c0,0-6.03-4.52-8.64,1.45c-2.61,5.97,1.14,18.89,10.26,21.8
						C868.37,329.95,871.3,317.84,866.74,306.7z"/>
					<path class="st17" d="M934.52,306.38c0,0,5.38-5.49,8.47-0.97c3.1,4.52,0.65,19.54-10.92,22.6L934.52,306.38z"/>
					<path class="st5" d="M936.32,289.94c0.05,13.09-0.81,30.63-2.05,35.74c-1.94,7.98-11.72,26.15-21.26,32.68
						c-7.63,5.23-11.72,5.81-12.96,5.81c-1.21,0-20.61-4.83-26.64-17.42c-3.33-7.01-5.05-11.31-5.53-15.67
						c0,0-1.54-28.43-2.05-32.06c-0.48-3.63-3.89-22.27,9.77-29.55c13.69-7.26,39.12-3.38,45.23-1.45
						c6.11,1.95,12.45,2.9,14.42,7.03c0.05,0.13,0.1,0.25,0.15,0.43C935.99,277.48,936.29,283.09,936.32,289.94z"/>
					<path class="st3" d="M934.68,309.44c0,0-1.14-20.67-3.75-25.99l12.55-5.33c0,0-2.77,16.47-2.93,20.67
						c-0.16,4.2-2.93,12.75-2.93,12.75s-0.81,10.82-2.77,10.17C932.89,321.07,934.68,309.44,934.68,309.44z"/>
					<path class="st3" d="M866.42,322.68c0,0-3.26-19.05-4.07-21.96c-0.81-2.91-5.38-26.8-3.1-34.39c2.28-7.59,8.8-9.04,13.36-7.59
						c0,0,3.26-16.15,25.42-15.34c22.16,0.81,56.54,4.04,64.68,0.32c0,0,0.65,3.23,0.33,5.97c-0.33,2.74-4.07,30.84-27.53,35.36
						c-23.46,4.52-60.61-10.17-60.61-10.17s-3.75,21.63-5.38,28.74c0,0,1.47,17.6-0.16,19.21
						C867.72,324.46,867.39,325.1,866.42,322.68z"/>
				</g>
			</g>
		</g>
	</g>
</g>
<g>
</g>
<g>
</g>
<g>
</g>
<g>
</g>
<g>
</g>
<g>
</g>
</svg>
