<svg width="48" height="48" viewBox="0 0 48 48" fill="none" xmlns="http://www.w3.org/2000/svg">
<g clip-path="url(#clip0_1141_49259)">
<rect width="48" height="48" rx="24" fill="white"/>
<g clip-path="url(#clip1_1141_49259)">
<path d="M47.3994 31.4253C47.0648 32.0124 46.5634 32.8218 46.0919 33.6969C45.3861 35.0062 44.7497 36.4631 44.8461 37.5396L44.8408 37.6489C44.8408 37.6489 44.8408 37.6489 44.8408 37.6498L44.7581 39.3027L44.7474 39.5271L44.3563 39.3013L43.3954 38.7462C43.1252 37.2102 42.9643 35.6907 43.3723 33.3484C43.7497 31.1871 45.2625 28.8129 46.5381 28.6836C47.7265 28.5618 48.235 29.9604 47.3994 31.4253Z" fill="#A467A7"/>
<path d="M47.3994 31.4253C47.0648 32.0124 46.5634 32.8218 46.0919 33.6969C45.3861 35.0062 44.7497 36.4631 44.8461 37.5396L44.8408 37.6489C44.8408 37.6489 44.8408 37.6489 44.8408 37.6498L44.7581 39.3027L44.7474 39.5271L44.3563 39.3013L43.3954 38.7462C43.1252 37.2102 42.9643 35.6907 43.3723 33.3484C43.7497 31.1871 45.2625 28.8129 46.5381 28.6836C47.7265 28.5618 48.235 29.9604 47.3994 31.4253Z" fill="#966E6E"/>
<path d="M43.9257 38.6845C43.9564 38.6716 43.9764 38.6391 43.972 38.6045C43.4729 34.6022 45.1204 30.9125 46.7955 29.5773C46.8284 29.5511 46.8337 29.5027 46.8075 29.4698C46.7813 29.4369 46.7337 29.4302 46.7 29.4578C44.9973 30.8147 43.3137 34.5667 43.82 38.6236C43.8253 38.6653 43.8635 38.6951 43.9053 38.6898C43.9124 38.6889 43.9195 38.6871 43.9257 38.6845Z" fill="white"/>
<path d="M48.8658 33.9587C48.7334 34.7342 47.3254 35.6462 46.3942 36.9018C45.5542 38.0364 45.1876 39.1871 45.2182 39.7982L45.216 39.7973L44.7476 39.5271L44.3565 39.3013C44.1423 36.4631 44.992 34.6164 46.092 33.6969C46.3614 33.4724 46.644 33.3027 46.9311 33.1871C48.1676 32.6924 49.0236 33.0284 48.8658 33.9587Z" fill="#A467A7"/>
<path d="M48.8658 33.9587C48.7334 34.7342 47.3254 35.6462 46.3942 36.9018C45.5542 38.0364 45.1876 39.1871 45.2182 39.7982L45.216 39.7973L44.7476 39.5271L44.3565 39.3013C44.1423 36.4631 44.992 34.6164 46.092 33.6969C46.3614 33.4724 46.644 33.3027 46.9311 33.1871C48.1676 32.6924 49.0236 33.0284 48.8658 33.9587Z" fill="#D7ACAC"/>
<path d="M44.7766 39.2969C44.8033 39.2853 44.8219 39.2591 44.8228 39.2276C44.8708 35.976 46.7344 34.204 47.713 33.7218C47.7508 33.7031 47.7664 33.6573 47.7477 33.6191C47.729 33.5809 47.6846 33.5649 47.6455 33.5844C46.5633 34.1178 44.7193 35.9062 44.6699 39.2253C44.6695 39.2676 44.7033 39.3022 44.7455 39.3031C44.7561 39.3036 44.7668 39.3013 44.7766 39.2969Z" fill="white"/>
<path d="M5.36974 37.4915L4.13641 38.2035C4.06663 34.5875 1.71997 31.9391 0.58841 30.5382C-0.562256 29.112 1.0293 28.2582 2.3693 28.8844C3.71063 29.5115 4.79774 31.1147 5.24663 33.1995C5.63019 34.9818 5.43419 36.9564 5.36974 37.4915Z" fill="#A467A7"/>
<path d="M5.36974 37.4915L4.13641 38.2035C4.06663 34.5875 1.71997 31.9391 0.58841 30.5382C-0.562256 29.112 1.0293 28.2582 2.3693 28.8844C3.71063 29.5115 4.79774 31.1147 5.24663 33.1995C5.63019 34.9818 5.43419 36.9564 5.36974 37.4915Z" fill="#D7ACAC"/>
<path d="M4.84665 37.3813C4.85198 37.3822 4.85731 37.3827 4.86265 37.3827C4.9062 37.3813 4.94042 37.3453 4.93909 37.3018C4.81376 32.7489 3.29731 30.4693 1.54531 29.3102C1.50931 29.2858 1.46042 29.2964 1.43598 29.3324C1.41198 29.3689 1.42176 29.4178 1.4582 29.4418C3.18665 30.5853 4.65776 32.8182 4.78131 37.3062C4.78309 37.344 4.81065 37.3751 4.84665 37.3813Z" fill="white"/>
<path d="M-1.25028 33.3671C-1.22406 33.6191 -1.02139 33.812 -0.826726 33.9746C-0.633392 34.1364 -0.421392 34.3129 -0.368059 34.5604C-0.261392 35.06 -0.853392 35.5213 -0.725392 36.0155C-0.671614 36.2226 -0.496948 36.3795 -0.308059 36.4809C-0.151614 36.5662 0.0181633 36.6213 0.182608 36.6902C0.264386 36.7151 0.347052 36.7351 0.42883 36.7498C0.671497 36.7915 0.926608 36.8626 1.10039 37.0502C1.37327 37.3466 1.33861 37.8022 1.43594 38.1933C1.55239 38.6622 1.83061 38.9369 2.46883 39.1595L4.65239 37.9218C5.19727 37.3671 5.38883 36.4186 4.8875 35.7738C4.58661 35.3866 4.0235 35.3378 3.7395 34.9506C3.48483 34.6035 3.63239 34.1022 3.47594 33.7009C3.31727 33.2946 2.90439 33.1613 2.51239 33.0933C2.10883 33.0231 1.70439 33.1866 1.32172 33.0471C0.939052 32.9075 0.583941 32.6818 0.187497 32.5822C-0.198281 32.4858 -0.63517 32.5204 -0.955614 32.7742C-1.13739 32.9178 -1.27384 33.1386 -1.25028 33.3671Z" fill="#A467A7"/>
<path d="M-1.25028 33.3671C-1.22406 33.6191 -1.02139 33.812 -0.826726 33.9746C-0.633392 34.1364 -0.421392 34.3129 -0.368059 34.5604C-0.261392 35.06 -0.853392 35.5213 -0.725392 36.0155C-0.671614 36.2226 -0.496948 36.3795 -0.308059 36.4809C-0.151614 36.5662 0.0181633 36.6213 0.182608 36.6902C0.264386 36.7151 0.347052 36.7351 0.42883 36.7498C0.671497 36.7915 0.926608 36.8626 1.10039 37.0502C1.37327 37.3466 1.33861 37.8022 1.43594 38.1933C1.55239 38.6622 1.83061 38.9369 2.46883 39.1595L4.65239 37.9218C5.19727 37.3671 5.38883 36.4186 4.8875 35.7738C4.58661 35.3866 4.0235 35.3378 3.7395 34.9506C3.48483 34.6035 3.63239 34.1022 3.47594 33.7009C3.31727 33.2946 2.90439 33.1613 2.51239 33.0933C2.10883 33.0231 1.70439 33.1866 1.32172 33.0471C0.939052 32.9075 0.583941 32.6818 0.187497 32.5822C-0.198281 32.4858 -0.63517 32.5204 -0.955614 32.7742C-1.13739 32.9178 -1.27384 33.1386 -1.25028 33.3671Z" fill="#966E6E"/>
<path d="M2.82001 35.3382C2.81646 35.3289 2.81068 35.3213 2.80268 35.3147C1.77646 33.8595 0.167569 33.1684 -0.375987 33.0471C-0.406209 33.0404 -0.436876 33.0595 -0.443987 33.0902C-0.450654 33.1209 -0.431542 33.1515 -0.400876 33.1582C0.11468 33.2733 1.60846 33.912 2.61424 35.2471C1.18668 34.7884 0.120902 35.4569 0.109791 35.464C0.0831242 35.4809 0.0760131 35.5164 0.092902 35.5427C0.103569 35.5587 0.120902 35.568 0.13868 35.5689C0.149791 35.5693 0.161346 35.5662 0.171569 35.56C0.18268 35.5529 1.28001 34.8635 2.72979 35.4058C3.2569 36.1649 3.62135 37.1338 3.58357 38.3418C3.58268 38.3715 3.6049 38.3969 3.63424 38.4C3.63601 38.4 3.63735 38.4004 3.63868 38.4004C3.67024 38.4013 3.69646 38.3769 3.69735 38.3453C3.73646 37.1075 3.36179 36.1151 2.82001 35.3382Z" fill="white"/>
<path d="M41.0755 36.0142C31.4923 30.504 15.955 30.504 6.3719 36.0142C-3.21121 41.5245 -3.21121 50.4582 6.3719 55.968C15.9555 61.4782 31.4923 61.4782 41.0755 55.968C50.6586 50.4582 50.6586 41.5245 41.0755 36.0142Z" fill="#F5F5F5"/>
<path d="M14.1591 56.2187C18.608 56.2187 22.2146 54.1365 22.2146 51.568C22.2146 48.9995 18.608 46.9174 14.1591 46.9174C9.71011 46.9174 6.10352 48.9995 6.10352 51.568C6.10352 54.1365 9.71011 56.2187 14.1591 56.2187Z" fill="#E0E0E0"/>
<path d="M33.6542 56.2187C38.1031 56.2187 41.7097 54.1365 41.7097 51.568C41.7097 48.9995 38.1031 46.9174 33.6542 46.9174C29.2052 46.9174 25.5986 48.9995 25.5986 51.568C25.5986 54.1365 29.2052 56.2187 33.6542 56.2187Z" fill="#E0E0E0"/>
<g opacity="0.36">
<path opacity="0.54" d="M6.22348 15.1298L6.9337 14.7889C6.93236 14.7622 6.93192 14.7347 6.93414 14.7049L6.94925 14.508C6.97592 14.1573 7.25459 13.7493 7.57192 13.5973C7.70036 13.5356 7.81503 13.5262 7.90436 13.5591C7.99192 13.0645 8.38081 12.5271 8.81948 12.3165C9.2937 12.0889 9.64614 12.3293 9.60614 12.8542L9.58392 13.1489C9.5737 13.2849 9.5377 13.4262 9.48214 13.5658L10.0719 13.2827C10.2479 13.1982 10.3786 13.2876 10.3635 13.4822C10.3488 13.6769 10.1941 13.9031 10.0181 13.9876L6.1697 15.8356C5.9937 15.92 5.86303 15.8307 5.87814 15.636C5.89281 15.4405 6.04748 15.2142 6.22348 15.1298Z" fill="#BF9892"/>
<path opacity="0.54" d="M11.1366 7.68445L11.5775 7.39556L11.6472 6.47823C11.7028 5.75112 12.3468 4.95112 13.0041 4.63556C13.6615 4.32 14.1495 4.65334 14.0944 5.38045L14.0841 5.51378C14.2441 5.30267 14.4428 5.12578 14.6535 5.02445C15.1264 4.79734 15.4779 5.03734 15.4379 5.56045L15.4335 5.62089L16.0397 5.32978C16.3512 5.18 16.5824 5.33823 16.5561 5.68267C16.5299 6.02712 16.2561 6.428 15.9446 6.57734L11.0419 8.93156C10.7304 9.08134 10.4992 8.92312 10.5255 8.57867C10.5512 8.23467 10.825 7.83423 11.1366 7.68445Z" fill="#BF9892"/>
</g>
<path d="M45.2843 16.9262C45.2843 15.0933 44.2021 13.0071 42.8275 12.2133C42.1968 11.8493 41.7017 11.8125 41.1799 12.0858L40.0781 12.6751L40.5577 13.6853C40.5537 13.7609 40.5506 13.8373 40.5506 13.9165C40.5506 15.6765 41.5781 17.7085 42.8768 18.5702L43.3492 19.5653L44.4101 18.9471C44.9452 18.6471 45.2843 17.9373 45.2843 16.9262Z" fill="#BF9892"/>
<path d="M42.7055 19.68C42.4037 19.68 42.081 19.5822 41.7468 19.3893C41.3184 19.1418 40.8935 18.7436 40.5184 18.2373L40.4855 18.1925L40.437 18.22C40.1526 18.3809 39.8477 18.4627 39.5304 18.4627C39.3344 18.4627 39.1375 18.4316 38.945 18.3707C38.9024 18.3573 38.897 18.3187 38.8966 18.3076C38.8953 18.2827 38.9068 18.2507 38.9419 18.236C39.6206 17.9529 39.8544 17.4227 39.9099 17.2667L39.9188 17.2418L39.9073 17.2182C39.505 16.3818 39.2837 15.4796 39.2837 14.6782C39.2837 13.3893 39.8495 12.5565 40.7246 12.5565C41.0264 12.5565 41.349 12.6542 41.6833 12.8471C43.0641 13.6445 44.1459 15.7138 44.1459 17.5582C44.1459 18.2067 44.0046 18.7493 43.7375 19.1271C43.4824 19.4889 43.125 19.68 42.7055 19.68Z" fill="#FBFBFB"/>
<path d="M40.7255 12.6191C41.0162 12.6191 41.3282 12.7142 41.6526 12.9018C43.0157 13.6889 44.0837 15.7342 44.0837 17.5582C44.0837 18.8089 43.5428 19.6173 42.7055 19.6173C42.4148 19.6173 42.1028 19.5222 41.7784 19.3351C41.357 19.092 40.9388 18.6996 40.569 18.2L40.5028 18.1107L40.4059 18.1653C40.1308 18.3209 39.8362 18.4 39.5304 18.4C39.341 18.4 39.1504 18.3702 38.9606 18.3098C38.9602 18.3093 38.9588 18.3058 38.9597 18.3013C38.9606 18.2978 38.9619 18.296 38.9664 18.2942C39.6686 18.0013 39.9117 17.4502 39.9695 17.288L39.9873 17.2387L39.9646 17.1911C39.5664 16.3631 39.3473 15.4707 39.3473 14.6782C39.3477 13.4271 39.8886 12.6191 40.7255 12.6191ZM40.7255 12.4929C39.8406 12.4929 39.2215 13.3102 39.2215 14.6778C39.2215 15.5244 39.4606 16.4324 39.8513 17.2453C39.7962 17.3996 39.5722 17.9044 38.9184 18.1773C38.8024 18.2258 38.8068 18.3924 38.9264 18.4307C39.0864 18.4813 39.2939 18.5253 39.5308 18.5253C39.8126 18.5253 40.1357 18.4627 40.4686 18.2742C40.8357 18.7702 41.261 19.1804 41.7162 19.4431C42.0682 19.6462 42.4028 19.7422 42.7064 19.7422C43.5913 19.7422 44.2104 18.9249 44.2104 17.5573C44.2104 15.6413 43.0935 13.5871 41.7162 12.7916C41.3642 12.5893 41.029 12.4929 40.7255 12.4929Z" fill="#EBEBEB"/>
<path d="M40.8117 15.3698C40.8117 15.7094 40.5606 15.84 40.2508 15.6609C39.941 15.4818 39.6895 15.0618 39.6895 14.7222C39.6895 14.3827 39.9406 14.252 40.2503 14.4311C40.5601 14.6102 40.8117 15.0302 40.8117 15.3698Z" fill="#F3A4A3"/>
<path d="M43.8122 17.1191C43.8122 17.4587 43.5611 17.5894 43.2513 17.4103C42.9415 17.2311 42.6904 16.8111 42.6904 16.4711C42.6904 16.1316 42.9415 16.0009 43.2513 16.18C43.5611 16.3591 43.8122 16.7796 43.8122 17.1191Z" fill="#F3A4A3"/>
<path d="M42.5879 17.3169C42.5879 17.6072 42.5123 17.8418 42.3848 17.9934C42.2074 18.2058 41.9319 18.2578 41.6234 18.0783C41.3132 17.8992 41.0377 17.5276 40.8603 17.112C40.7328 16.8125 40.6572 16.4911 40.6572 16.2009L42.5879 17.3169Z" fill="#445962"/>
<path d="M42.3848 17.9934C42.2075 18.2058 41.9319 18.2578 41.6235 18.0783C41.3132 17.8991 41.0377 17.5276 40.8604 17.112C41.0581 16.9698 41.3279 16.968 41.6235 17.1378C41.9172 17.3076 42.187 17.62 42.3848 17.9934Z" fill="#F3A4A3"/>
<path d="M42.4951 15.6383C42.4951 15.8511 42.6071 16.088 42.7453 16.168C42.8836 16.248 42.9956 16.14 42.9956 15.9271C42.9956 15.7143 42.8836 15.4774 42.7453 15.3974C42.6071 15.3174 42.4951 15.4254 42.4951 15.6383Z" fill="#445962"/>
<path d="M40.5166 14.5209C40.5166 14.7338 40.6286 14.9707 40.7668 15.0507C40.905 15.1302 41.017 15.0227 41.017 14.8098C41.017 14.5969 40.905 14.36 40.7668 14.28C40.629 14.2 40.5166 14.308 40.5166 14.5209Z" fill="#445962"/>
<path d="M5.20508 23.8702C5.20508 22.7142 5.88774 21.3982 6.75486 20.8973C7.15263 20.6675 7.46508 20.6444 7.79397 20.8169L8.48908 21.1884L8.18641 21.8258C8.18908 21.8733 8.19086 21.9218 8.19086 21.9715C8.19086 23.0818 7.54286 24.3635 6.72374 24.9071L6.42597 25.5347L5.75663 25.1449C5.4193 24.956 5.20508 24.5084 5.20508 23.8702Z" fill="#BF9892"/>
<path d="M6.83174 25.6076C6.27974 25.6076 5.92285 25.0822 5.92285 24.2693C5.92285 23.1058 6.60507 21.8004 7.47619 21.2978C7.68685 21.176 7.89041 21.1142 8.08107 21.1142C8.63307 21.1142 8.98996 21.6396 8.98996 22.4529C8.98996 22.9582 8.85041 23.5271 8.59663 24.0551L8.58952 24.0702L8.59485 24.0858C8.62996 24.184 8.77752 24.5187 9.20552 24.6969C9.22774 24.7062 9.23485 24.7267 9.23441 24.7422C9.23396 24.7493 9.23085 24.7738 9.20374 24.7822C9.08241 24.8204 8.95796 24.84 8.83441 24.84C8.63441 24.84 8.44196 24.7884 8.26241 24.6867L8.23174 24.6693L8.21085 24.6973C7.97441 25.0164 7.70641 25.268 7.43619 25.424C7.22552 25.5458 7.02196 25.6076 6.83174 25.6076Z" fill="#FBFBFB"/>
<path d="M8.08103 21.0742V21.1538C8.60903 21.1538 8.95037 21.6636 8.95037 22.4524C8.95037 22.952 8.81215 23.5151 8.56103 24.0373L8.54681 24.0671L8.55792 24.0982C8.59437 24.2004 8.7477 24.548 9.19081 24.7329C9.19348 24.7342 9.19437 24.7351 9.19481 24.7373L9.19215 24.7436C9.07481 24.7809 8.95437 24.7996 8.83481 24.7996C8.64192 24.7996 8.45615 24.7498 8.28237 24.6516L8.22103 24.6169L8.17926 24.6733C7.94592 24.9884 7.68237 25.236 7.41659 25.3893C7.2117 25.5076 7.01526 25.5676 6.8317 25.5676C6.3037 25.5676 5.96237 25.0578 5.96237 24.2689C5.96237 23.1182 6.63615 21.828 7.49615 21.3316C7.70103 21.2133 7.89748 21.1533 8.08103 21.1533V21.0742ZM8.08059 21.0742C7.88903 21.0742 7.67792 21.1351 7.45615 21.2631C6.58726 21.7649 5.88281 23.0609 5.88281 24.2693C5.88281 25.132 6.27348 25.6476 6.8317 25.6476C7.02326 25.6476 7.23437 25.5867 7.45615 25.4587C7.74326 25.2929 8.01126 25.0338 8.24281 24.7213C8.45303 24.84 8.65659 24.8796 8.83437 24.8796C8.9837 24.8796 9.11481 24.8516 9.2157 24.8196C9.29126 24.7956 9.29392 24.6902 9.22059 24.66C8.80815 24.488 8.66681 24.1693 8.63215 24.072C8.87837 23.5596 9.02948 22.9867 9.02948 22.4524C9.02948 21.5893 8.63881 21.0738 8.08059 21.0742Z" fill="#EBEBEB"/>
<path d="M8.02637 22.8884C8.02637 23.1026 8.18459 23.1849 8.38014 23.072C8.5757 22.9591 8.73392 22.6937 8.73392 22.4795C8.73392 22.2653 8.5757 22.1831 8.38014 22.296C8.18459 22.4093 8.02637 22.6742 8.02637 22.8884Z" fill="#F3A4A3"/>
<path d="M6.13379 23.992C6.13379 24.2062 6.29201 24.2884 6.48757 24.1755C6.68312 24.0627 6.84134 23.7973 6.84134 23.5831C6.84134 23.3689 6.68312 23.2867 6.48757 23.3995C6.29246 23.5124 6.13379 23.7778 6.13379 23.992Z" fill="#F3A4A3"/>
<path d="M6.90625 24.1169C6.90625 24.3 6.95381 24.448 7.03425 24.5435C7.14625 24.6778 7.32003 24.7102 7.51469 24.5973C7.71069 24.4844 7.88403 24.2498 7.99603 23.9875C8.07647 23.7986 8.12447 23.596 8.12447 23.4129L6.90625 24.1169Z" fill="#36464E"/>
<path d="M7.03418 24.5435C7.14618 24.6778 7.31996 24.7102 7.51462 24.5973C7.71062 24.4844 7.88396 24.2498 7.99596 23.9875C7.87107 23.8978 7.70085 23.8964 7.51462 24.004C7.32929 24.1111 7.15907 24.308 7.03418 24.5435Z" fill="#F3A4A3"/>
<path d="M6.96399 23.0578C6.96399 23.192 6.89333 23.3418 6.80621 23.392C6.7191 23.4422 6.64844 23.3742 6.64844 23.24C6.64844 23.1058 6.7191 22.956 6.80621 22.9058C6.89333 22.8555 6.96399 22.9235 6.96399 23.0578Z" fill="#36464E"/>
<path d="M8.21204 22.3529C8.21204 22.4871 8.14137 22.6369 8.05426 22.6871C7.96715 22.7373 7.89648 22.6693 7.89648 22.5351C7.89648 22.4009 7.96715 22.2511 8.05426 22.2009C8.14137 22.1506 8.21204 22.2186 8.21204 22.3529Z" fill="#36464E"/>
<path d="M44.7791 24.2004C44.7791 23.0444 44.076 21.7013 43.2089 21.2004C42.8111 20.9707 42.4462 20.9547 42.1698 21.12L41.4951 21.5187L41.7978 22.156C41.7951 22.2035 41.7933 22.252 41.7933 22.3018C41.7933 23.412 42.4413 24.6938 43.2604 25.2373L43.5582 25.8649L44.2276 25.4751C44.5653 25.2862 44.7791 24.8387 44.7791 24.2004Z" fill="#D0AFAC"/>
<path d="M43.1525 25.9142C42.9663 25.9142 42.7668 25.8533 42.5592 25.7338C42.2917 25.5791 42.0263 25.3302 41.7917 25.0133L41.7588 24.9684L41.7103 24.996C41.5343 25.0955 41.3459 25.1462 41.1499 25.1462C41.0286 25.1462 40.9068 25.1271 40.7877 25.0893C40.7783 25.0862 40.7739 25.08 40.7734 25.0706C40.7734 25.0658 40.7743 25.0533 40.7881 25.048C41.225 24.8658 41.3757 24.5235 41.4117 24.4231L41.4205 24.3982L41.409 24.3746C41.157 23.8502 41.0179 23.2849 41.0179 22.7826C41.0179 21.9835 41.3654 21.4675 41.9037 21.4675C42.0899 21.4675 42.2894 21.528 42.497 21.648C43.3472 22.1386 44.0388 23.4626 44.0388 24.5995C44.0388 25.0035 43.9512 25.3413 43.7854 25.5755C43.6281 25.7969 43.4094 25.9142 43.1525 25.9142Z" fill="#FBFBFB"/>
<path d="M41.9032 21.5302C42.0783 21.5302 42.2672 21.588 42.465 21.7022C43.2979 22.1831 43.9752 23.4826 43.9752 24.5991C43.9752 25.36 43.6521 25.8515 43.1525 25.8515C42.9774 25.8515 42.7885 25.7938 42.5908 25.6795C42.3303 25.5293 42.0717 25.2862 41.8423 24.9764L41.7761 24.8871L41.6792 24.9422C41.513 25.0364 41.3348 25.084 41.1499 25.084C41.0717 25.084 40.9926 25.0755 40.9148 25.0586C41.297 24.8591 41.4357 24.5431 41.4708 24.4449L41.4885 24.3955L41.4659 24.348C41.2179 23.8315 41.081 23.276 41.081 22.7831C41.0805 22.0218 41.4037 21.5302 41.9032 21.5302ZM41.9032 21.4044C41.345 21.4044 40.9543 21.92 40.9543 22.7826C40.9543 23.3164 41.105 23.8898 41.3517 24.4022C41.317 24.4995 41.1757 24.8182 40.7632 24.9902C40.6903 25.0209 40.6925 25.1262 40.7681 25.1498C40.869 25.1818 41.0001 25.2098 41.1494 25.2098C41.3272 25.2098 41.5308 25.1702 41.741 25.0515C41.9725 25.3644 42.241 25.6231 42.5277 25.7889C42.7494 25.9169 42.961 25.9778 43.1521 25.9778C43.7103 25.9778 44.101 25.4622 44.101 24.5995C44.101 23.4409 43.3965 22.0951 42.5277 21.5933C42.3059 21.4649 42.0948 21.4044 41.9032 21.4044Z" fill="#EBEBEB"/>
<path d="M43.4299 24.32C43.4299 24.5911 43.3592 24.8107 43.2401 24.952C43.0743 25.1507 42.817 25.1991 42.5286 25.0315C42.2383 24.864 41.981 24.5169 41.8152 24.128C41.6961 23.848 41.625 23.5475 41.625 23.2764L43.4299 24.32Z" fill="#445962"/>
<path d="M43.2403 24.952C43.0745 25.1506 42.8172 25.1991 42.5288 25.0315C42.2385 24.864 41.9812 24.5169 41.8154 24.128C42.0003 23.9951 42.2523 23.9933 42.5288 24.152C42.803 24.3115 43.0554 24.6031 43.2403 24.952Z" fill="#F3A4A3"/>
<path d="M43.0312 23.3289C43.0312 23.4631 43.1019 23.6129 43.189 23.6631C43.2761 23.7133 43.3468 23.6453 43.3468 23.5111C43.3468 23.3769 43.2761 23.2271 43.189 23.1769C43.1019 23.1267 43.0312 23.1947 43.0312 23.3289Z" fill="#445962"/>
<path d="M41.7148 22.5947C41.7148 22.7289 41.7855 22.8787 41.8726 22.9289C41.9597 22.9791 42.0304 22.9111 42.0304 22.7769C42.0304 22.6427 41.9597 22.4929 41.8726 22.4427C41.7855 22.3924 41.7148 22.4604 41.7148 22.5947Z" fill="#445962"/>
<path d="M20.5546 50.9533C19.939 50.536 19.1004 50.0356 18.7608 49.6685C18.4212 49.3013 18.3044 49.0645 18.3368 48.7022C18.4155 47.8173 19.0235 41.4267 19.1626 39.9405C19.3959 37.444 19.1341 30.3382 18.927 28.6062L12.4004 29.3027C11.9168 30.5116 11.5612 32 11.6364 34.3356C11.6937 36.1169 11.7444 40.8005 11.7444 40.8005C11.7444 40.8005 10.9319 41.5102 10.3515 42.9125C9.83858 44.1511 9.2608 47.8427 9.13725 48.3307C9.06569 48.612 9.04436 48.7107 8.89725 48.9053C8.75503 49.0938 8.71147 49.3413 8.73591 49.6631C8.80214 50.5262 8.82836 51.1671 8.98436 51.8902C9.0648 52.2645 9.09014 52.4485 9.4288 52.6649C9.60836 52.7796 10.159 52.856 10.3368 52.6325C10.307 52.5942 10.2377 52.5049 10.1692 52.3129C10.1346 52.2156 10.1017 52.036 10.0981 51.9138C10.091 51.6733 10.0701 51.3351 10.075 51.0951C10.0906 50.3471 10.119 50.116 10.5332 49.2956C10.9866 48.3973 14.1981 41.9827 14.1981 41.9827C14.8506 40.868 15.1915 36.6898 15.6541 34.3249L16.603 39.9778C16.603 39.9778 16.2604 40.9991 16.1701 41.78C16.0492 42.8289 16.4124 46.392 16.5795 48.2333C16.6221 48.7022 16.6052 49.0258 16.5706 49.2982C16.6488 49.9316 17.2866 50.0476 17.7781 50.4067C18.0226 50.5849 19.0972 51.2378 19.7461 51.3693C20.2737 51.4756 20.879 51.1569 20.5546 50.9533Z" fill="#FAE1DA"/>
<path d="M15.3112 37.5147C15.4748 36.488 15.6068 35.7782 15.6068 35.7782L15.8615 37.6542L16.2384 39.8396C16.2384 39.8396 16.0379 40.2982 15.9375 41.0218C15.8326 41.7782 15.9548 42.6444 16.0668 43.6596C16.2015 44.8804 16.3517 46.0164 16.3517 46.0164C17.5588 46.6467 18.5912 46.0596 18.5912 46.0596C18.5912 46.0596 18.8624 44.3196 19.0877 41.9378C19.3126 39.556 19.4935 38.728 19.4832 35.7422C19.4766 33.8391 19.613 30.5089 18.6264 27.1018C17.6468 27.7911 14.8175 27.8769 13.6428 26.9502C13.6428 26.9502 12.8877 27.752 12.0006 29.564C11.337 30.9196 11.3539 32.5644 11.3788 34.9844C11.4077 37.8089 11.6468 40.7156 11.6468 40.7156C11.6468 40.7156 11.165 41.2236 10.6504 42.0529C10.1357 42.8827 9.81836 44.6996 9.81836 44.6996C9.81836 44.6996 10.5095 45.836 12.2846 45.8831C12.2846 45.8831 13.8904 42.7382 14.3241 42.0258C14.757 41.3138 15.2108 38.1458 15.3112 37.5147Z" fill="#533A3A"/>
<path d="M15.6064 35.7782L16.2456 32.0213C16.2456 32.0213 17.7104 31.9631 18.4878 31.0227C18.4878 31.0227 18.3958 32.2298 16.6873 32.4982L15.818 36.0707L15.8611 37.6547L15.6064 35.7782Z" fill="#433030"/>
<path d="M17.125 21.1444C17.7961 21.2613 18.0766 21.2413 18.6979 21.6822C19.3188 22.1231 22.2152 27.2271 22.2152 27.2271C22.2152 27.2271 21.7028 27.516 20.9614 27.3089C20.2201 27.1018 18.7979 26.04 18.7979 26.04L17.125 21.1444Z" fill="#E8CEC8"/>
<path d="M12.6325 21.2227C12.6325 21.2227 13.632 21.0236 14.3107 21.0169C14.8374 21.0116 15.3845 21.0169 15.9267 21.0169C16.4951 21.0169 16.8111 21.0729 17.1249 21.1445C17.1249 21.1445 17.9534 22.028 18.6556 22.9769C19.3538 23.92 19.664 24.5222 19.5698 25.2885C19.496 25.8889 19.0618 26.1902 19.0618 26.1902C19.0898 26.7645 19.1987 27.6422 19.1587 28.0311C17.9085 28.9516 13.664 28.8458 12.4814 27.7298C12.6951 26.7289 12.9218 26.1467 12.5765 24.9938C12.2218 23.812 12.0285 21.5218 12.6325 21.2227Z" fill="#BF9892"/>
<path d="M12.6328 21.2227C11.9119 21.3902 11.4443 21.6129 11.2181 22.4409C11.003 23.2284 10.8359 25.4435 10.9341 26.5867C11.0323 27.7298 11.1346 28.3435 11.3239 28.4898C11.5128 28.636 13.0643 26.9275 13.0341 26.8907C13.0034 26.8538 13.335 24.1373 13.335 24.1373C13.335 24.1373 13.5252 21.6693 12.6328 21.2227Z" fill="#FAE1DA"/>
<path d="M13.3507 23.5382C13.1552 23.7298 12.8423 24.0604 12.469 24.5458C11.8325 25.3729 11.569 25.8729 11.5107 26.4622L13.2361 24.948C13.2899 24.4929 13.3334 24.1369 13.3334 24.1369C13.3334 24.1369 13.353 23.8898 13.3507 23.5382Z" fill="#E8CEC8"/>
<path d="M18.8812 20.2462C18.8812 20.2462 18.8226 20.2084 18.8194 20.0729C18.8163 19.9373 18.8386 19.8458 18.8372 19.6951C18.8363 19.544 18.8008 19.2889 18.6661 19.2475C18.5314 19.2062 18.4283 19.5129 18.395 19.7671C18.3617 20.0213 18.3421 20.1711 18.1403 20.4395C17.9386 20.708 17.7546 21.0613 17.8928 21.4027L18.8812 20.2462Z" fill="#FAE1DA"/>
<path d="M19.8534 19.8449C19.8058 19.588 19.8494 19.2756 19.8454 19.0747C19.8414 18.8738 19.7987 18.6987 19.7387 18.4929C19.6787 18.2871 19.6441 18.0222 19.5765 17.9889C19.509 17.9556 19.3805 18.0213 19.369 18.1782C19.369 18.1782 19.289 18.0533 19.2232 17.9253C19.1574 17.7973 19.1196 17.6422 19.0112 17.604C18.9023 17.5658 18.8298 17.7373 18.8561 17.8653C18.8823 17.9933 18.905 18.0671 18.905 18.0671C18.905 18.0671 18.7903 18.1053 18.8623 18.3378C18.9014 18.4636 18.9472 18.5302 18.989 18.6036C19.0072 18.7782 19.005 18.8631 19.0734 19.012C19.1041 19.1787 19.1161 19.3178 19.1747 19.4578C19.1232 19.5711 19.0134 19.7004 18.9934 19.904C18.9734 20.1076 19.0005 20.1587 18.741 20.3778C18.5658 20.5253 18.277 20.6853 18.1045 20.896C17.9321 21.1067 17.8058 21.3356 17.9667 21.6493C18.1276 21.9631 18.2543 22.1907 18.4023 22.5187C18.5138 22.7662 18.6165 23.0893 19.0654 24.2547C19.4143 25.16 19.4387 25.2716 19.6196 25.6049C19.8725 26.0711 20.1565 26.6716 20.8872 27.0542C21.6174 27.4369 22.5005 27.4209 22.4507 26.7738C22.3912 25.9982 22.2267 25.3791 21.9258 24.9356C21.625 24.4924 21.5138 24.3813 21.1041 23.9164C20.7667 23.5338 20.5138 23.1453 20.1063 22.6071C19.705 22.0764 19.437 21.5684 19.4547 21.4022C19.4854 21.1213 19.6538 20.7271 19.7374 20.5244C19.8641 20.2169 19.913 20.2329 19.8534 19.8449Z" fill="#FAE1DA"/>
<path d="M17.8926 21.4027C17.9126 21.56 18.0086 21.6876 18.0748 21.8302C18.1442 21.9707 18.2135 22.1111 18.2788 22.2533C18.3437 22.396 18.4108 22.5373 18.4722 22.6809C18.5353 22.824 18.5966 23.0302 18.6553 23.1756C18.5833 23.0365 18.5139 22.8338 18.4455 22.6933C18.3757 22.5533 18.3108 22.4107 18.2428 22.2702L18.0428 21.8458L17.9424 21.6333C17.9113 21.5605 17.8917 21.4813 17.8926 21.4027Z" fill="#C8A399"/>
<path d="M19.3689 18.1787C19.3742 18.2507 19.3889 18.3196 19.4062 18.388C19.4235 18.456 19.4444 18.524 19.4671 18.5889L19.4706 18.5987L19.4671 18.6125C19.4582 18.6462 19.4515 18.6858 19.4475 18.7231C19.4431 18.7609 19.4431 18.7991 19.444 18.8373C19.4462 18.9133 19.4617 18.9885 19.4875 19.0596L19.4942 19.0773L19.4857 19.0907C19.4715 19.1133 19.4577 19.1413 19.4462 19.168C19.4346 19.1956 19.4235 19.2236 19.4151 19.2525C19.4066 19.2813 19.3977 19.3107 19.3929 19.3409C19.3871 19.3711 19.3844 19.4018 19.3813 19.4329C19.3662 19.372 19.3644 19.3071 19.3715 19.2436C19.3755 19.2116 19.3813 19.18 19.3906 19.1489C19.4 19.1173 19.4097 19.088 19.4253 19.0565L19.4235 19.0876C19.3875 19.0107 19.3657 18.9262 19.3626 18.8413C19.36 18.7991 19.3626 18.7565 19.368 18.7147C19.3733 18.672 19.3822 18.6325 19.3973 18.5893V18.6129C19.3769 18.5413 19.3644 18.4702 19.3577 18.3973C19.352 18.3236 19.3529 18.2493 19.3689 18.1787Z" fill="#E8CEC8"/>
<path d="M18.9043 18.0676C18.9234 18.104 18.9447 18.1382 18.9701 18.1698C18.9954 18.2005 19.023 18.2307 19.051 18.256L19.0567 18.2609L19.0585 18.2729C19.0714 18.3551 19.0959 18.4391 19.1301 18.5147C19.1634 18.5916 19.2105 18.6605 19.2679 18.7182L19.2861 18.7365L19.2781 18.7609C19.2647 18.8009 19.2545 18.8502 19.2483 18.8969C19.2425 18.9445 19.2394 18.9925 19.2394 19.0409C19.2403 19.0893 19.2425 19.1382 19.2483 19.1871C19.2523 19.2365 19.263 19.2849 19.2714 19.3347C19.2479 19.2902 19.2296 19.2431 19.2141 19.1947C19.1976 19.1462 19.1883 19.096 19.1812 19.0449C19.175 18.9938 19.1727 18.9422 19.1763 18.8902C19.1794 18.8378 19.1861 18.788 19.2039 18.7333L19.2136 18.776C19.1803 18.7427 19.1474 18.708 19.1234 18.668C19.0985 18.6285 19.0759 18.5876 19.0599 18.544C19.0434 18.5009 19.0301 18.4569 19.0216 18.412C19.0136 18.3667 19.0074 18.3227 19.0079 18.2751L19.0154 18.292C18.987 18.2582 18.9647 18.2236 18.9461 18.1853C18.9265 18.148 18.911 18.1085 18.9043 18.0676Z" fill="#E8CEC8"/>
<path d="M19.2044 19.7373C19.195 19.8284 19.1572 19.9151 19.1084 19.992C19.0581 20.0684 18.9959 20.1356 18.9248 20.1924C18.9479 20.1529 18.9746 20.1169 18.9999 20.08C19.0248 20.0431 19.0506 20.0071 19.0746 19.9698C19.123 19.896 19.1644 19.8191 19.2044 19.7373Z" fill="#E8CEC8"/>
<path d="M18.3208 20.6765C18.2541 20.832 18.2097 20.9876 18.2132 21.1467C18.2137 21.2258 18.2261 21.3045 18.2479 21.3818C18.2701 21.4591 18.3017 21.5347 18.3354 21.6129C18.2741 21.5542 18.2234 21.4827 18.1883 21.4031C18.1519 21.324 18.1337 21.236 18.1319 21.1476C18.1297 20.9711 18.1999 20.7965 18.3208 20.6765Z" fill="#E8CEC8"/>
<path d="M18.6777 15.3209C18.3741 14.8885 17.839 14.7418 17.5399 14.8867C17.2652 14.5205 16.7132 14.3147 16.259 14.2898C14.5252 14.1951 13.9714 15.0529 13.879 15.3711C13.0594 15.492 12.5341 16.8756 13.1528 18.276C13.4625 18.9773 14.1434 19.7436 14.2128 20.1356L15.1901 20.132C15.1901 20.132 15.2461 18.984 16.4341 18.5089C17.6221 18.0338 18.2941 17.7378 18.4732 17.4951C19.2034 16.7516 18.9812 15.7533 18.6777 15.3209Z" fill="#22120E"/>
<path d="M13.6947 14.1311C13.2338 14.1902 12.9449 14.4253 12.8609 14.8707C12.4493 14.8142 11.9987 14.8938 11.6951 15.2071C11.4809 15.4289 11.4107 15.7089 11.4351 16.0129C11.4569 16.2867 11.6009 16.4324 11.772 16.6227C11.4693 16.7391 11.3107 17.0978 11.4089 17.4244C11.4667 17.6155 12.1938 18.32 11.6142 18.3813C11.88 18.5622 12.3258 18.4035 12.2929 18.0418C12.2929 18.4947 12.6204 18.8511 13.0804 18.868C13.7284 18.8915 14.2502 18.5311 14.4 17.9027L14.6853 14.6947C14.556 14.2853 14.1436 14.0733 13.6947 14.1311Z" fill="#22120E"/>
<path d="M18.4607 16.6573C18.5029 16.8404 18.5278 17.0395 18.546 17.2271C18.582 17.5991 18.5994 18.004 18.5865 18.3773C18.5398 19.7435 17.9189 20.2018 17.5558 20.3755C17.3291 20.484 16.9527 20.5244 16.506 20.4355L16.4851 21.5551C16.4851 21.5551 17.9091 22.6147 16.77 22.8195C16.2011 22.9218 15.4931 22.7307 14.9874 22.3711C14.47 22.0035 14.2549 21.6635 14.2549 21.6635L14.194 19.4693C14.194 19.4693 13.9149 19.7698 13.3949 19.36C12.9651 19.0218 12.7958 18.4231 13.0994 18.0813C13.4029 17.7395 13.9874 17.7844 14.2758 18.2444C14.4816 18.572 14.646 18.3235 14.6371 17.9338C14.6287 17.5395 14.93 17.4213 15.0571 17.22C15.4883 16.5382 15.1803 16.3355 15.5838 15.9413C15.8158 15.7147 16.4483 15.6267 16.9291 15.9862C17.4816 15.492 18.2407 15.6991 18.4607 16.6573Z" fill="#FAE1DA"/>
<path d="M16.2383 18.2604C16.265 18.4195 16.077 18.5835 15.8183 18.6266C15.5601 18.6698 15.329 18.5751 15.3023 18.416C15.2757 18.2569 15.4637 18.0929 15.7223 18.0498C15.981 18.0071 16.2117 18.1013 16.2383 18.2604Z" fill="#ECA0A0"/>
<path d="M18.55 18.2373C18.55 18.3987 18.3376 18.5298 18.0758 18.5298C17.814 18.5298 17.6016 18.3987 17.6016 18.2373C17.6016 18.076 17.814 17.9449 18.0758 17.9449C18.3376 17.9453 18.55 18.076 18.55 18.2373Z" fill="#ECA0A0"/>
<path d="M16.1425 18.9502L16.9625 19.1924C16.8998 19.4266 16.6656 19.5626 16.4394 19.496C16.2123 19.4289 16.0798 19.1849 16.1425 18.9502Z" fill="#B6767B"/>
<path d="M16.1504 19.2111C16.1984 19.188 16.2513 19.1738 16.3082 19.1738C16.4948 19.1738 16.6468 19.3151 16.6677 19.496C16.5953 19.5169 16.5171 19.5191 16.4393 19.496C16.2988 19.4542 16.1944 19.3444 16.1504 19.2111Z" fill="#E8A7A7"/>
<path d="M17.8056 16.7724L18.1998 17.0911C18.1153 17.204 17.9585 17.2244 17.8496 17.1364C17.7407 17.0484 17.7207 16.8853 17.8056 16.7724Z" fill="#22120E"/>
<path d="M15.542 17.2773L15.9207 16.9404C16.0184 17.0422 16.0127 17.2004 15.9082 17.2933C15.8038 17.3862 15.6398 17.3791 15.542 17.2773Z" fill="#22120E"/>
<path d="M16.5057 20.4355C15.4594 20.2244 14.8528 19.8342 14.6621 19.4151C14.6621 19.4151 14.6643 19.96 15.1474 20.2618C15.6541 20.5782 16.499 20.7458 16.499 20.7458L16.5057 20.4355Z" fill="#E8CEC8"/>
<path d="M15.8364 17.7698C15.8484 17.8946 15.9341 17.7049 16.0777 17.6822C16.2213 17.6591 16.3728 17.8111 16.3564 17.6862C16.3399 17.5613 16.2044 17.4826 16.0608 17.5058C15.9168 17.5289 15.8221 17.6222 15.8364 17.7698Z" fill="#22120E"/>
<path d="M18.0723 17.6791C18.0532 17.8031 17.9785 17.6089 17.8363 17.5778C17.6941 17.5467 17.5341 17.6893 17.5581 17.5658C17.5816 17.4418 17.7216 17.3711 17.8638 17.4027C18.0056 17.4338 18.095 17.5324 18.0723 17.6791Z" fill="#22120E"/>
<path d="M15.7406 22.0844L15.7392 22.0849C15.6761 21.8453 15.5414 21.676 15.381 21.4844C15.1788 21.2436 14.7646 20.4671 14.6992 20.3556C14.6334 20.244 14.5748 19.8467 14.5214 19.5836C14.469 19.3245 14.4157 19.1476 14.1517 19.1951C14.1512 19.1796 14.1499 19.1409 14.145 19.0529C14.1343 18.8476 14.0721 18.7751 13.9823 18.7405C13.9219 18.7173 13.8472 18.7285 13.8472 18.7285C13.8472 18.7285 13.8428 18.6147 13.7686 18.524C13.6841 18.4213 13.5943 18.4138 13.5463 18.4551C13.4877 18.5058 13.4957 18.6293 13.4637 18.936C13.429 19.2702 13.4059 19.5382 13.4192 19.6289C13.4192 19.6289 13.3374 19.7436 13.3437 19.9129C13.3503 20.0822 13.5334 20.7791 13.6459 21.0725C13.7121 21.2453 14.157 22.0578 14.2614 22.3533C14.3917 22.6813 14.1179 23.0987 13.7139 23.5956C13.2966 24.1093 12.8752 24.6489 12.4814 25.1C12.1526 25.4769 11.8819 25.8471 11.6041 26.2929C11.3263 26.7387 11.1841 27.4569 11.2246 28.1947C11.2592 28.8298 12.0663 28.8116 12.7672 28.4085C13.4677 28.0053 13.8308 27.5902 14.0828 27.1351C14.3348 26.68 14.5663 26.2142 14.8974 25.3227C15.3659 24.0609 15.5032 23.6742 15.5797 23.4191C15.7259 22.9316 15.8481 22.4876 15.7406 22.0844Z" fill="#FAE1DA"/>
<path d="M13.6459 21.0729C13.7286 21.2542 13.8268 21.4276 13.9188 21.6045C14.0108 21.7814 14.1023 21.9582 14.1877 22.1387C14.2294 22.2302 14.273 22.3182 14.2992 22.4191C14.3214 22.5205 14.3099 22.6258 14.2819 22.7231C14.2246 22.9191 14.1143 23.0907 14.0014 23.2547C13.8854 23.4178 13.7583 23.572 13.6326 23.7262L13.2557 24.1898C13.0037 24.4982 12.749 24.8049 12.4814 25.1005C12.7374 24.7951 12.9837 24.4822 13.2312 24.1702L13.6037 23.7027C13.729 23.5476 13.8539 23.3934 13.9681 23.2311C14.081 23.0694 14.1903 22.9005 14.2463 22.7125C14.2739 22.6191 14.285 22.5205 14.265 22.4262C14.2414 22.3342 14.1988 22.2414 14.1592 22.1511C13.9961 21.7889 13.805 21.4382 13.6459 21.0729Z" fill="#E8CEC8"/>
<path d="M14.1504 19.1951C14.1233 19.2249 14.1201 19.2649 14.1219 19.3027C14.1237 19.3409 14.1304 19.3796 14.1357 19.4182L14.1641 19.652C14.1824 19.8076 14.1957 19.9631 14.2081 20.1187C14.2148 20.1951 14.2157 20.2778 14.2264 20.3494C14.2401 20.4222 14.265 20.4969 14.2873 20.5711L14.4344 21.0174C14.3566 20.88 14.2864 20.7391 14.2277 20.5925C14.1975 20.5191 14.1708 20.4449 14.1508 20.3649C14.1406 20.3218 14.141 20.2845 14.1366 20.2449L14.1268 20.1276C14.1157 19.9707 14.1059 19.8138 14.1006 19.6565C14.097 19.5778 14.0961 19.4996 14.0957 19.4214C14.0961 19.3822 14.0957 19.3422 14.0997 19.3022C14.1033 19.2627 14.1166 19.2182 14.1504 19.1951Z" fill="#E8CEC8"/>
<path d="M13.8477 18.7285C13.797 18.7418 13.7895 18.7938 13.7908 18.8382C13.7913 18.884 13.7962 18.9307 13.7993 18.9773C13.805 19.0711 13.8082 19.1653 13.8099 19.2591C13.8122 19.4467 13.805 19.6342 13.8064 19.8191C13.8077 20.0005 13.8633 20.1769 13.9135 20.3578C13.9637 20.5365 14.0259 20.7133 14.0806 20.8929C13.9975 20.7245 13.9202 20.5538 13.8575 20.3751C13.793 20.2013 13.7304 20.016 13.7264 19.8205C13.7224 19.6307 13.7344 19.444 13.7442 19.2573C13.7504 19.164 13.7548 19.0711 13.7575 18.9773C13.7597 18.9307 13.7619 18.8836 13.7682 18.836C13.7717 18.8125 13.7762 18.788 13.7882 18.7658C13.8002 18.7431 13.8246 18.7311 13.8477 18.7285Z" fill="#E8CEC8"/>
<path d="M13.4196 19.6293C13.4387 19.7289 13.4547 19.8267 13.4764 19.9222C13.4987 20.0178 13.5253 20.1116 13.5569 20.2049C13.6182 20.392 13.6902 20.5791 13.7329 20.7769C13.6804 20.6902 13.6351 20.6009 13.5929 20.5102C13.5502 20.4196 13.5124 20.3262 13.48 20.2302C13.4489 20.1338 13.4244 20.0338 13.4142 19.9324C13.4036 19.8311 13.4049 19.7293 13.4196 19.6293Z" fill="#E8CEC8"/>
<path d="M14.8975 25.3231C15.09 24.7929 15.282 24.2622 15.4669 23.7298C15.558 23.4636 15.6384 23.1924 15.7029 22.9191C15.7646 22.6467 15.798 22.3596 15.726 22.0884L15.7433 22.0996L15.742 22.1L15.7282 22.1027L15.7246 22.0889C15.6886 21.952 15.622 21.8253 15.5384 21.7102C15.4571 21.5938 15.3553 21.4911 15.2744 21.3702C15.1131 21.1316 14.9718 20.8813 14.8304 20.6316L14.7255 20.444C14.7082 20.412 14.6909 20.3836 14.6731 20.3489C14.6571 20.3142 14.6455 20.2796 14.6362 20.2444C14.598 20.1044 14.574 19.9627 14.5478 19.8218C14.5206 19.6813 14.5002 19.5382 14.4593 19.4036C14.4375 19.3378 14.4069 19.272 14.3509 19.2364C14.2958 19.1991 14.2224 19.2005 14.1549 19.2116L14.1366 19.2147L14.1353 19.196C14.1282 19.088 14.1349 18.976 14.098 18.8778C14.0798 18.8289 14.0469 18.7876 14.0002 18.7658C13.9553 18.7413 13.9006 18.7382 13.8495 18.744L13.834 18.7458L13.8326 18.7298C13.8273 18.6645 13.8051 18.5969 13.7655 18.544C13.726 18.492 13.6686 18.4431 13.6055 18.4462C13.5749 18.448 13.5473 18.4658 13.5344 18.4942C13.5202 18.5227 13.5149 18.5569 13.51 18.5907C13.5011 18.6587 13.4962 18.7285 13.49 18.7978L13.4486 19.2138C13.438 19.3516 13.4202 19.4924 13.43 19.628L13.4304 19.6325L13.4282 19.636C13.3633 19.7382 13.3389 19.8671 13.3611 19.9884C13.3802 20.1111 13.4086 20.2329 13.4375 20.3542C13.4975 20.5964 13.562 20.8382 13.6464 21.0733C13.5584 20.8396 13.4904 20.5987 13.4269 20.3569C13.3962 20.236 13.366 20.1147 13.3446 19.9907C13.3202 19.8667 13.342 19.7324 13.4109 19.6236L13.4091 19.6311C13.398 19.4889 13.4153 19.3511 13.4251 19.2116L13.4642 18.7956C13.4704 18.7262 13.4744 18.6569 13.4833 18.5871C13.4886 18.5524 13.4931 18.5164 13.51 18.4822C13.5255 18.4467 13.5642 18.4205 13.6033 18.4187C13.6842 18.4156 13.7451 18.4716 13.7882 18.5267C13.8322 18.5853 13.8562 18.6551 13.8624 18.7285L13.8455 18.7142C13.902 18.7076 13.962 18.7107 14.014 18.7382C14.0673 18.7631 14.1073 18.8129 14.1269 18.8662C14.1473 18.9196 14.1558 18.9756 14.1598 19.0307L14.1682 19.1951L14.1486 19.1791C14.2198 19.1671 14.302 19.1636 14.3691 19.2076C14.4362 19.2507 14.4695 19.324 14.4926 19.3924C14.5362 19.5324 14.5566 19.6742 14.5846 19.8147C14.6118 19.9551 14.6366 20.0969 14.6744 20.2333C14.6838 20.2671 14.6953 20.3009 14.7095 20.3311C14.7246 20.3605 14.7446 20.3933 14.7615 20.424L14.8655 20.6124C15.0055 20.8622 15.1451 21.1133 15.3038 21.3502C15.382 21.4684 15.4833 21.5716 15.5655 21.6907C15.6495 21.808 15.718 21.9396 15.7544 22.0809L15.7371 22.0698L15.7384 22.0693L15.7522 22.0667L15.7558 22.0804C15.8282 22.3596 15.7922 22.6507 15.7286 22.9244C15.6629 23.1996 15.5806 23.4698 15.4878 23.7364C15.3006 24.2693 15.0962 24.7951 14.8975 25.3231Z" fill="#E8CEC8"/>
<path d="M38.1384 50.1151C37.6869 50.3711 36.8891 50.3773 36.3269 50.0938L35.6162 45.0058L38.0598 44.8138L38.1384 50.1151Z" fill="#FAD6C8"/>
<path d="M33.1098 49.3969C32.7432 50.2404 31.7747 50.0631 30.977 49.5467L30.585 44L33.2841 44.5431L33.1098 49.3969Z" fill="#F8C8B4"/>
<path d="M37.2718 27.9693C37.4429 31.2849 37.5629 33.476 37.6878 39.4284C37.6878 39.4284 37.9904 40.9951 38.0753 42.6778C38.1504 44.1662 38.1678 48.0631 38.1678 48.0631C38.1678 48.0631 37.0109 48.5058 35.9509 48.1195C35.9509 48.1195 34.8118 42.4222 34.4424 40.352C34.118 38.5333 33.6749 35.4355 33.6749 35.4355L33.4407 39.6947C33.4407 39.6947 33.7633 41.1338 33.6873 42.744C33.6411 43.7218 33.258 47.984 33.258 47.984C33.258 47.984 32.0064 48.4271 30.8149 47.828C30.8149 47.828 30.1807 40.5329 30.1433 39.6484C30.1007 38.6395 30.1549 27.2795 30.1549 27.2795L37.2718 27.9693Z" fill="#533A3A"/>
<path d="M33.6748 35.4355L33.3677 32.8947C33.3677 32.8947 32.089 32.7658 31.3379 32.0413C31.3379 32.0413 31.353 32.7929 32.9112 33.3302L33.3579 35.196L33.4406 39.6947L33.6748 35.4355Z" fill="#392626"/>
<path d="M28.2559 26.1C28.2559 26.1 29.5301 23.0311 29.9914 21.9355C30.4527 20.84 31.0439 20.436 31.7305 20.4382L31.879 24.1262C31.879 24.1262 30.5679 26.6915 30.1376 27.4884C29.7074 28.2858 29.5567 28.4964 29.2474 28.9133L28.2559 26.1Z" fill="#FAD6C8"/>
<path d="M31.9085 20.3324C30.8885 20.4027 30.6103 20.7378 30.2854 21.2146C29.9605 21.6915 28.6191 25.0418 28.6191 25.0418C28.6191 25.0418 28.6707 25.4684 29.5596 26.0867C30.4485 26.7049 31.0156 26.7338 31.0156 26.7338L32.4569 22.8102L31.9085 20.3324Z" fill="#947777"/>
<path d="M28.3861 25.7827C29.2594 26.4973 29.4843 27.2964 29.4127 27.892L28.7247 27.4315L28.2559 26.1004C28.2559 26.1 28.3043 25.9818 28.3861 25.7827Z" fill="#C8A399"/>
<path d="M29.3835 27.6426C29.3213 27.4235 29.2773 27.112 28.7729 26.5777C28.2684 26.0435 27.3742 25.4369 27.1315 25.1706C26.8533 24.8653 26.7706 24.584 26.7706 24.584C26.8386 24.5449 26.8982 24.528 26.9991 24.3595C27.0813 24.2222 27.1333 24.0631 27.1333 24.0631C27.2009 24.1844 27.3991 24.316 27.4613 24.2053C27.5235 24.0946 27.5702 23.7951 27.6586 23.612C27.756 23.4102 27.7813 23.2502 27.7529 23.1577C27.7244 23.0653 27.5764 22.98 27.5764 22.98C27.5764 22.98 27.6395 22.8057 27.512 22.7057C27.3511 22.5795 27.0022 22.4044 27.0022 22.4044C27.0022 22.4044 28.1009 22.0982 28.416 21.8542C28.7311 21.6097 28.7938 21.3026 28.5871 21.2902C28.2146 21.4151 27.8933 21.5111 27.424 21.6573C26.9698 21.7991 26.6324 21.8489 26.228 21.9026C25.8235 21.9564 25.9835 22.1591 25.8773 22.3609C25.8093 22.4893 25.588 22.5533 25.5729 22.7529C25.5582 22.9524 25.5298 23.012 25.4404 23.1071C25.3511 23.2022 25.3738 23.3986 25.2889 23.5222C25.204 23.6457 24.9378 24.0329 25.0511 24.4004C25.1644 24.768 25.3875 25.1902 25.8075 26.1413C26.2275 27.092 26.2738 27.3106 26.844 27.9751C27.3866 28.6075 27.8235 28.8071 28.176 29.0035C28.5289 29.2 28.8306 29.3693 29.2458 28.9151C29.4106 28.5666 29.464 28.1484 29.3835 27.6426Z" fill="#FAD6C8"/>
<path d="M27.002 22.404L26.582 22.1822L27.2545 22.3289L27.002 22.404Z" fill="#C8A399"/>
<path d="M27.5765 22.98C27.5627 23.1058 27.5445 23.232 27.4947 23.3529C27.4676 23.4093 27.4312 23.4746 27.3667 23.5035C27.3054 23.5333 27.2409 23.5364 27.1787 23.5466C27.2365 23.5186 27.3 23.5058 27.3503 23.4738C27.4009 23.4444 27.4303 23.3915 27.4543 23.3351C27.5058 23.2235 27.5272 23.0978 27.5765 22.98Z" fill="#C8A399"/>
<path d="M26.3857 22.7817C26.5244 22.8577 26.6653 22.9293 26.8053 23.0022C26.876 23.0377 26.9453 23.076 27.0137 23.1168C27.048 23.1382 27.0817 23.1591 27.1137 23.1875C27.148 23.2177 27.1644 23.2617 27.1751 23.3004C27.1951 23.3808 27.1991 23.4613 27.1991 23.5413C27.1991 23.5813 27.1973 23.6213 27.1937 23.6613C27.1902 23.6991 27.1875 23.7448 27.1649 23.7822C27.124 23.8546 27.068 23.9124 27.0089 23.9662C26.948 24.016 26.8831 24.0697 26.804 24.084C26.8804 24.0626 26.9391 24.0044 26.9942 23.9502C27.0489 23.8951 27.1009 23.8342 27.1346 23.7666C27.152 23.7342 27.1515 23.6977 27.1555 23.6577C27.1582 23.6191 27.1591 23.58 27.1586 23.5408C27.1573 23.4631 27.1515 23.3844 27.132 23.3115C27.1222 23.2746 27.1097 23.2408 27.0844 23.2182C27.0577 23.1933 27.0249 23.172 26.992 23.1511C26.9257 23.1093 26.856 23.0724 26.7884 23.032C26.6515 22.9537 26.516 22.8715 26.3857 22.7817Z" fill="#C8A399"/>
<path d="M26.1654 23.3169C26.3458 23.4084 26.5316 23.4853 26.7085 23.588C26.7196 23.5951 26.7303 23.6022 26.7414 23.6106C26.7529 23.62 26.7627 23.6342 26.7689 23.6466C26.7809 23.6729 26.7849 23.6995 26.7889 23.7253C26.7947 23.7773 26.7938 23.8289 26.7916 23.88C26.784 23.9826 26.7756 24.0813 26.7503 24.1844C26.7209 24.2866 26.6494 24.3755 26.5592 24.4298C26.5356 24.4435 26.516 24.456 26.4876 24.4662C26.4578 24.4751 26.4285 24.4724 26.4023 24.4658C26.3494 24.4529 26.3036 24.4275 26.26 24.4C26.1738 24.3435 26.0956 24.2778 26.0285 24.1995C25.9969 24.1591 25.9707 24.1115 25.9658 24.0591C25.9592 24.0071 25.9872 23.952 26.0352 23.9324C25.9885 23.9555 25.9672 24.0098 25.9765 24.0578C25.9849 24.1062 26.0125 24.1493 26.0449 24.1853C26.1125 24.2573 26.1929 24.32 26.2778 24.3706C26.3205 24.3951 26.3654 24.4178 26.4107 24.4284C26.4334 24.4342 26.4565 24.4351 26.4747 24.4289C26.4938 24.4222 26.5174 24.408 26.5374 24.396C26.6196 24.3444 26.6814 24.2649 26.7076 24.172C26.7316 24.0795 26.7427 23.976 26.7512 23.8778C26.7543 23.828 26.7556 23.7782 26.7507 23.7298C26.7476 23.7058 26.7436 23.6822 26.7352 23.6618C26.7285 23.6418 26.7112 23.6311 26.6898 23.616C26.6067 23.5618 26.5165 23.5151 26.428 23.4666C26.3405 23.4182 26.252 23.3689 26.1654 23.3169Z" fill="#C8A399"/>
<path d="M26.346 24.2062C26.2984 24.1875 26.2526 24.1617 26.2148 24.124C26.1775 24.0866 26.1473 24.0369 26.1455 23.9773L26.1895 23.9795C26.1842 24.0226 26.202 24.0711 26.2313 24.1097C26.2611 24.1493 26.3015 24.1813 26.346 24.2062Z" fill="#C8A399"/>
<path d="M26.4374 23.9466C26.3849 23.9808 26.3196 23.992 26.2574 23.9942C26.1943 23.9964 26.132 23.9866 26.0707 23.9733C25.9512 23.9408 25.8298 23.8884 25.748 23.7928C25.852 23.8586 25.9645 23.9031 26.0814 23.9302C26.1392 23.9462 26.1987 23.9551 26.2583 23.96C26.3174 23.9648 26.3778 23.9635 26.4374 23.9466Z" fill="#C8A399"/>
<path d="M26.2698 24.3764C26.2382 24.5093 26.1827 24.6418 26.0853 24.7404C25.9889 24.8409 25.8555 24.8933 25.7227 24.9124C25.8542 24.8858 25.9818 24.8267 26.0689 24.7253C26.1569 24.6253 26.2027 24.4969 26.2262 24.3671L26.2698 24.3764Z" fill="#C8A399"/>
<path d="M26.2837 24.3942C26.2837 24.3942 26.3735 24.4378 26.425 24.4515C26.4761 24.4653 26.565 24.4026 26.641 24.3373C26.717 24.2715 26.7472 24.0951 26.7472 24.0951C26.8557 24.0826 26.9255 24.0235 26.9832 23.976C27.041 23.9289 27.1375 23.7978 27.1375 23.7978C27.1375 23.7978 27.0744 23.9333 27.1335 24.0626C27.1335 24.0631 27.0815 24.2222 26.9992 24.3591C26.8984 24.528 26.8388 24.5444 26.7708 24.5835C26.6157 24.6538 26.5272 24.6129 26.373 24.6044C26.2148 24.596 26.0361 24.7724 26.0361 24.7724C26.1357 24.6498 26.2157 24.5271 26.2432 24.4L26.2837 24.3942Z" fill="#C8A399"/>
<path d="M34.3983 20.0724C34.9876 20.1204 36.357 20.3951 36.9641 20.5009C37.561 20.6049 37.6281 21.512 37.6054 22.0102C37.521 23.8591 37.4117 27.0453 37.4117 27.0453C37.4117 28.6351 37.3961 30.1426 37.4397 30.7689C36.5583 31.6706 32.2365 31.9933 30.0672 30.5955C30.0672 30.5955 30.0632 29.0226 30.0672 28.2195C30.0748 26.7209 30.0788 24.8742 30.2765 23.0529C30.4823 21.156 31.6943 20.3529 31.9085 20.3324C31.9085 20.3324 33.9361 20.0351 34.3983 20.0724Z" fill="#947777"/>
<path d="M38.669 21.4356C38.3156 20.8969 38.0694 20.768 37.0352 20.564C36.1254 21.2893 36.389 24.0787 36.389 24.0787L36.1561 26.3062C36.1561 26.3062 35.8858 26.0347 35.5912 25.6791C34.733 24.6427 34.3943 24.1093 33.9605 23.7084C33.5165 23.2978 32.4192 22.888 32.0272 22.5969C31.7014 22.3551 31.4138 22.3347 31.1361 22.2222C30.3427 21.9013 29.5503 21.4138 29.4867 21.4867C29.3627 21.6347 29.3996 21.8987 29.6334 22.1404C29.9512 22.4689 30.9863 22.9667 30.9863 22.9667C30.973 23.0258 30.9201 23.0964 30.8756 23.1311C30.7752 23.2098 30.7298 23.2711 30.7392 23.396C30.7485 23.5213 30.7236 23.5862 30.6267 23.6676C30.5298 23.7489 30.4881 23.76 30.4881 24.0515C30.4881 24.3431 30.5156 24.7364 30.5374 24.8382C30.5592 24.94 30.6476 24.9831 30.9565 25.0133C31.2654 25.0436 31.3485 25.0511 31.4147 25.0169C31.481 24.9827 31.5507 24.7636 31.5507 24.7636C31.5507 24.7636 31.8561 24.9604 32.1267 25.1324C32.397 25.3044 32.6107 25.3387 32.9027 25.3267C33.1947 25.3147 33.2676 25.4436 33.5654 25.8671C34.1223 26.6591 34.5516 27.9156 35.049 28.5276C35.5458 29.1396 36.0734 29.6196 36.7854 29.9231C37.497 30.2271 37.8463 29.916 38.0556 29.4724C38.321 28.9107 38.4227 28.3511 38.5632 27.4996C38.7547 26.3364 38.8076 25.7098 38.9485 24.172C39.097 22.5533 39.0356 21.9947 38.669 21.4356Z" fill="#FAD6C8"/>
<path d="M30.3652 22.6409C30.375 22.6462 30.5772 22.7325 30.7932 22.7662C31.0306 22.8036 31.2706 22.7231 31.2706 22.7231C31.1252 22.768 31.0239 22.8582 30.9866 22.9667C30.9866 22.9667 30.6715 22.8191 30.3652 22.6409Z" fill="#C8A399"/>
<path d="M31.5519 24.7636C31.4297 24.6911 31.2994 24.632 31.167 24.5876L31.1821 24.5462C31.3141 24.6062 31.4372 24.6787 31.5519 24.7636Z" fill="#C8A399"/>
<path d="M31.1981 24.4893C31.203 24.5205 31.1977 24.5533 31.1839 24.5831C31.1697 24.6129 31.1474 24.6369 31.1239 24.6591C31.0723 24.6973 31.0128 24.724 30.9492 24.7231C31.0017 24.6893 31.0528 24.6627 31.0959 24.6253C31.1186 24.6085 31.1372 24.5876 31.155 24.5662C31.1719 24.5436 31.1843 24.5182 31.1981 24.4893Z" fill="#C8A399"/>
<path d="M32.9031 25.3271C33.1951 25.3151 33.268 25.444 33.5657 25.8676C33.7142 26.0787 33.8533 26.3227 33.9871 26.5787C33.9875 26.5796 33.988 26.58 33.9884 26.5805C33.6515 25.8111 33.4013 25.004 33.1884 25.0827C32.9751 25.1614 32.7382 25.3276 32.3164 25.2351C32.5057 25.3182 32.6817 25.336 32.9031 25.3271Z" fill="#C8A399"/>
<path d="M30.7404 23.396C30.7888 23.4493 30.8599 23.468 30.7986 23.5387C30.7368 23.6089 30.6279 23.6676 30.6279 23.6676C30.7244 23.5862 30.7497 23.5213 30.7404 23.396Z" fill="#C8A399"/>
<path d="M30.9861 22.9667C30.9915 23.0151 31.0937 22.9765 31.0728 23.012C31.0519 23.0471 30.9439 23.1031 30.8555 23.148C30.8621 23.1427 30.8684 23.1369 30.8759 23.1316C30.9199 23.0965 30.9728 23.0258 30.9861 22.9667C30.9861 22.9667 30.9808 22.9631 30.9728 22.9578C30.9799 22.9578 30.9852 22.9596 30.9861 22.9667Z" fill="#C8A399"/>
<path d="M36.1562 26.3058C36.9358 26.884 37.2851 27.1698 37.606 28.1156C37.566 26.796 36.21 25.7933 36.21 25.7933L36.1562 26.3058Z" fill="#C8A399"/>
<path d="M36.9638 20.5009C37.3082 20.5533 38.106 20.6373 38.4842 21.0782C38.8625 21.5191 39.0407 21.8 39.0829 22.7622C39.1247 23.7244 38.7825 26.472 38.7825 26.472C38.7825 26.472 38.1589 26.696 37.3816 26.5489C36.6047 26.4018 36.1562 25.9684 36.1562 25.9684L36.2687 23.7324C36.2687 23.7324 36.0634 21.3307 36.9638 20.5009Z" fill="#947777"/>
<path d="M36.4486 15.2618C36.1997 14.6951 35.7566 14.6973 35.7566 14.6973C35.7566 14.6973 35.7161 14.2427 35.1099 13.8195C34.4144 13.3338 33.6757 13.1929 32.7286 13.344C31.8881 13.4782 30.677 13.9698 30.6797 15.7071C30.6815 16.8764 31.6575 17.5831 32.7348 17.6164C33.4704 17.6391 34.1224 17.2515 34.4735 16.6609C34.7641 16.892 35.2335 17.4027 35.2335 17.4027L35.1757 18.1298L35.3641 19.1324C35.3641 19.1324 35.6086 18.5302 35.7428 18.2898C35.877 18.0498 36.0228 17.8489 36.3308 17.2609C36.8081 16.3484 36.5984 15.6027 36.4486 15.2618Z" fill="#33201C"/>
<path d="M35.2091 17.2853C35.3807 17.4427 35.5344 17.0524 35.6864 16.9026C35.8384 16.7533 36.3255 16.5573 36.55 17.0702C36.7784 17.5929 36.3055 18.3053 35.9313 18.4373C35.5255 18.5804 35.3731 18.2258 35.3731 18.2258L35.3851 20.3995C34.9273 21.2738 33.682 21.4698 33.1607 21.3991C32.6389 21.3284 32.5389 20.7809 32.9335 20.3524L32.9198 19.6644C32.9198 19.6644 32.6047 19.6862 32.2455 19.6289C31.766 19.5524 31.3024 19.1315 31.1558 18.4058C30.9842 17.5564 30.8584 16.2084 31.1487 15.0071C31.6971 14.6066 33.7407 14.4404 34.8482 15.1858C34.8962 16.8018 35.0375 17.128 35.2091 17.2853Z" fill="#FAD6C8"/>
<path d="M31.1232 14.8746C30.8188 15.3422 30.6793 16.1769 31.2499 16.4689C31.2499 15.9582 31.4913 15.564 31.7637 15.5298C31.6717 15.9169 31.8561 16.1658 31.9584 16.2498C32.0695 16.3409 32.2584 16.412 32.4108 16.3951C32.3544 16.3058 32.3259 16.1911 32.3224 16.1186C32.3153 15.9724 32.3384 15.916 32.3788 15.832C32.4197 15.9382 32.5064 16.0858 32.5681 16.1524C32.7161 16.3124 33.0068 16.4289 33.2286 16.408C33.1624 16.18 33.2001 15.7964 33.4899 15.6071C33.5361 15.7831 33.6557 16.0271 33.7957 16.1533C33.9512 16.2933 34.1784 16.4138 34.3775 16.4733C34.513 16.5138 34.6779 16.5529 34.8646 16.6671C34.9721 16.7333 35.0081 16.88 35.0081 16.8955C35.6957 16.1302 35.3864 15.2844 35.0144 14.8751C34.3779 13.5911 31.8664 13.5782 31.1232 14.8746Z" fill="#33201C"/>
<path d="M32.9199 19.6649C32.9199 19.6649 33.9657 19.5987 34.4697 19.2778C34.7093 19.1253 34.8835 18.9169 34.9484 18.7707C34.9484 18.7707 34.9608 19.0658 34.6359 19.3653C34.1435 19.82 32.9199 19.9102 32.9199 19.9102V19.6649Z" fill="#C8A399"/>
<path d="M33.567 17.5164C33.5403 17.6755 33.7283 17.8395 33.987 17.8827C34.2452 17.9258 34.4763 17.8311 34.503 17.672C34.5296 17.5129 34.3416 17.3489 34.083 17.3058C33.8243 17.2627 33.5932 17.3569 33.567 17.5164Z" fill="#ECA0A0"/>
<path d="M31.526 17.8529C31.7879 17.8529 32.0002 17.7219 32.0002 17.5604C32.0002 17.3989 31.7879 17.268 31.526 17.268C31.2641 17.268 31.0518 17.3989 31.0518 17.5604C31.0518 17.7219 31.2641 17.8529 31.526 17.8529Z" fill="#ECA0A0"/>
<path d="M33.3971 18.1249L32.5771 18.3675C32.6398 18.6018 32.874 18.7378 33.1003 18.6711C33.3269 18.604 33.4598 18.3595 33.3971 18.1249Z" fill="#B6767B"/>
<path d="M33.3894 18.3858C33.3414 18.3626 33.2885 18.3484 33.2316 18.3484C33.045 18.3484 32.893 18.4898 32.8721 18.6706C32.9445 18.6915 33.0227 18.6938 33.1005 18.6706C33.2414 18.6293 33.3454 18.5195 33.3894 18.3858Z" fill="#E8A7A7"/>
<path d="M31.6949 16.0044L31.2744 16.2871C31.3486 16.4071 31.5029 16.4413 31.6193 16.3631C31.7353 16.2849 31.7695 16.1244 31.6949 16.0044Z" fill="#33201C"/>
<path d="M33.8719 16.3111L33.4701 16.0027C33.3799 16.1111 33.3968 16.2684 33.5079 16.3538C33.619 16.4387 33.7821 16.4195 33.8719 16.3111Z" fill="#33201C"/>
<path d="M33.7605 16.8826C33.7485 17.0075 33.6627 16.8178 33.5192 16.7951C33.3756 16.772 33.224 16.924 33.2405 16.7991C33.2569 16.6742 33.3925 16.5955 33.536 16.6186C33.68 16.6418 33.7747 16.7351 33.7605 16.8826Z" fill="#33201C"/>
<path d="M31.4117 16.8955C31.4308 17.0195 31.5055 16.8253 31.6477 16.7942C31.7899 16.7631 31.9499 16.9058 31.9259 16.7822C31.9024 16.6582 31.7624 16.5875 31.6202 16.6191C31.4784 16.6502 31.389 16.7489 31.4117 16.8955Z" fill="#33201C"/>
<path d="M32.6513 18.0644C32.6522 18.0542 32.5415 18.0364 32.3624 18.016C32.3171 18.012 32.274 18.0036 32.266 17.9724C32.2549 17.94 32.2731 17.8907 32.2944 17.8378C32.3358 17.7276 32.3789 17.612 32.4242 17.4911C32.6046 16.9973 32.7344 16.5916 32.7144 16.5844C32.6944 16.5773 32.5322 16.9716 32.3518 17.4653C32.3086 17.5871 32.2669 17.7031 32.2278 17.8142C32.2113 17.8658 32.1824 17.9249 32.2064 17.9924C32.2189 18.0262 32.2526 18.0502 32.282 18.0578C32.3113 18.0662 32.3366 18.0667 32.3589 18.0676C32.5393 18.0751 32.6509 18.0747 32.6513 18.0644Z" fill="#33201C"/>
<path d="M16.9304 18.6889C16.9295 18.6787 17.0402 18.6609 17.2193 18.6405C17.2646 18.6365 17.3077 18.628 17.3157 18.5969C17.3268 18.5645 17.3086 18.5151 17.2873 18.4622C17.2459 18.352 17.2028 18.2365 17.1575 18.1156C16.977 17.6218 16.8473 17.216 16.8673 17.2089C16.8873 17.2018 17.0495 17.596 17.2299 18.0898C17.273 18.2116 17.3148 18.3276 17.3539 18.4387C17.3704 18.4902 17.3993 18.5493 17.3753 18.6169C17.3628 18.6507 17.329 18.6747 17.2997 18.6822C17.2704 18.6907 17.245 18.6911 17.2228 18.692C17.0428 18.6996 16.9308 18.6991 16.9304 18.6889Z" fill="#22120E"/>
<path opacity="0.19" d="M38.6887 11.5107L38.1576 11.204C38.1603 11.1831 38.162 11.1618 38.162 11.1387V10.9849C38.162 10.7111 37.9696 10.3782 37.7327 10.2413C37.6367 10.1858 37.5483 10.1716 37.4767 10.192C37.438 9.80268 37.1678 9.36268 36.8398 9.17335C36.4852 8.96846 36.1976 9.13468 36.1976 9.54401V9.77423C36.1976 9.88046 36.2172 9.99246 36.2518 10.1036L35.8105 9.8489C35.6789 9.7729 35.5723 9.83468 35.5723 9.98624C35.5723 10.1382 35.6789 10.3227 35.8105 10.3987L38.6887 12.0605C38.8203 12.1365 38.9269 12.0747 38.9269 11.9231C38.9269 11.7716 38.8203 11.5867 38.6887 11.5107Z" fill="#BF9892"/>
<path opacity="0.19" d="M31.6656 6.25779L31.3407 6.00756V5.29156C31.3407 4.72401 30.8878 4.0649 30.3963 3.7809C29.9047 3.4969 29.506 3.72712 29.506 4.29467V4.39868C29.3945 4.22534 29.2505 4.07645 29.0927 3.98534C28.7389 3.7809 28.4523 3.94667 28.4523 4.35512V4.40223L27.9989 4.14045C27.766 4.00579 27.5771 4.11512 27.5771 4.38401C27.5771 4.6529 27.766 4.98001 27.9989 5.11467L31.6656 7.23156C31.8985 7.36623 32.0874 7.2569 32.0874 6.98801C32.0874 6.71956 31.8985 6.39245 31.6656 6.25779Z" fill="#BF9892"/>
</g>
</g>
<defs>
<clipPath id="clip0_1141_49259">
<rect width="48" height="48" rx="24" fill="white"/>
</clipPath>
<clipPath id="clip1_1141_49259">
<rect width="48" height="48" fill="white"/>
</clipPath>
</defs>
</svg>
