<svg width="48" height="48" viewBox="0 0 48 48" fill="none" xmlns="http://www.w3.org/2000/svg">
<g clip-path="url(#clip0_1141_49264)">
<rect width="48" height="48" rx="24" fill="white"/>
<g clip-path="url(#clip1_1141_49264)">
<g opacity="0.31">
<path d="M14.5803 8.98799C13.6647 9.94132 13.1083 11.232 13.0443 12.552C12.9803 13.8724 13.4087 15.2107 14.2274 16.2484C15.2945 17.6004 16.9852 18.4515 17.7367 20.0013C17.8825 20.3013 17.9892 20.6342 17.9474 20.9653C17.9056 21.2964 17.6839 21.6209 17.3599 21.7009C16.931 21.8067 16.5283 21.4778 16.2087 21.1733C15.0034 20.0249 13.791 18.8684 12.8136 17.5209C11.8363 16.1733 11.0967 14.6093 10.9603 12.9502C10.8243 11.2911 11.3527 9.53288 12.5785 8.40666C12.9603 8.05599 13.4576 7.75777 13.9687 7.84221C14.4799 7.92666 14.8847 8.56977 14.5785 8.98755" fill="#BF9892"/>
</g>
<g opacity="0.31">
<path d="M31.2965 20.884C32.5916 20.2636 33.9449 19.5951 34.7658 18.4173C35.5867 17.2391 35.632 15.3893 34.4743 14.54C33.9898 14.1849 33.38 14.0551 32.8396 13.7929C31.6147 13.1982 30.84 11.9804 29.8667 11.0284C27.9329 9.13689 25.0383 8.284 22.3876 8.82489C20.7543 9.15822 19.0823 10.1827 18.728 11.8116C18.5009 12.856 18.8671 13.9587 19.4774 14.836C20.0876 15.7133 20.9231 16.4049 21.748 17.0844C22.1743 17.4356 22.8031 17.7924 23.2249 17.4364C23.6103 17.1111 23.424 16.4471 23.0378 16.1231C22.6516 15.7987 22.1374 15.6742 21.708 15.4098C20.5707 14.7089 20.26 13.0529 20.8623 11.8604C21.4645 10.668 22.788 9.952 24.1178 9.82356C25.8769 9.65333 27.6996 10.4471 28.7729 11.8511C29.5409 12.8551 30.0223 14.2049 31.1836 14.7049C31.9654 15.0413 32.9765 14.9427 33.5423 15.5787C34.1143 16.2209 33.8516 17.2996 33.2196 17.8822C32.5876 18.4649 31.7089 18.6791 30.8711 18.8724" fill="#BF9892"/>
</g>
<g opacity="0.31">
<path d="M36.722 28.724C40.7998 27.0035 43.9531 23.8373 45.2211 20.1915C46.4891 16.5458 45.8527 12.4729 43.5065 9.21554C41.6589 6.65065 38.6771 4.55999 35.1571 3.92443C34.5891 3.82177 33.8878 3.79599 33.5411 4.1831C33.094 4.68265 33.6229 5.36932 34.1474 5.81421C36.9882 8.22488 40.4731 10.2524 42.2954 13.2658C43.6007 15.4249 43.9189 17.9822 43.1714 20.3169C42.4242 22.6511 40.6189 24.7413 38.194 26.0791C37.642 26.3835 37.0469 26.6595 36.6309 27.088C36.2149 27.5164 36.0225 28.1547 36.3798 28.6182" fill="#BF9892"/>
</g>
<g opacity="0.31">
<path d="M39.055 27.7253C39.9337 26.2036 41.1519 24.7036 42.8613 24.2969C42.9422 24.2778 43.0355 24.2636 43.1008 24.3151C43.1937 24.3884 43.163 24.5347 43.1217 24.6458C41.8724 28.0338 39.4528 30.5916 36.2022 32.1636L36.1973 32.1276C37.4719 30.9182 38.1764 29.2467 39.055 27.7253Z" fill="#BF9892"/>
</g>
<g opacity="0.31">
<path d="M26.1099 10.1817C26.1112 10.1791 26.073 10.1462 25.9988 10.0862C25.9246 10.0262 25.8144 9.93953 25.6717 9.82931C25.385 9.61108 24.9704 9.29242 24.4295 8.95864C24.1588 8.79331 23.8561 8.62353 23.5193 8.47864C23.1824 8.33553 22.813 8.20442 22.4126 8.14397C22.213 8.10886 22.0064 8.09775 21.7952 8.09375C21.5841 8.09775 21.3686 8.11419 21.1513 8.15597C20.9348 8.20086 20.7157 8.26219 20.5019 8.35597C20.2886 8.45108 20.0788 8.57153 19.8801 8.72175C19.7841 8.80264 19.6864 8.87997 19.5992 8.97242C19.5081 9.05864 19.425 9.15597 19.3473 9.25731C19.1926 9.46086 19.0628 9.68975 18.9726 9.93686C18.8815 10.1831 18.8357 10.4506 18.8401 10.7115C18.8446 10.9724 18.8957 11.2231 18.969 11.4524C19.0428 11.6822 19.1384 11.8937 19.2433 12.0871C19.2975 12.1826 19.3481 12.2791 19.4068 12.3666C19.4353 12.4111 19.4628 12.456 19.4917 12.4986C19.5215 12.5404 19.5513 12.5817 19.5806 12.6231C19.8175 12.9502 20.0753 13.2133 20.3277 13.4195C20.8335 13.836 21.3108 14.0249 21.6397 14.1177C21.7219 14.144 21.7966 14.1569 21.861 14.1706C21.925 14.1857 21.9801 14.1929 22.0246 14.1978C22.1135 14.2089 22.1601 14.2129 22.1601 14.2098C22.1606 14.2066 22.1144 14.196 22.0264 14.1786C21.9824 14.1706 21.9281 14.1604 21.865 14.1426C21.8015 14.1257 21.7277 14.1102 21.6468 14.0813C21.3228 13.9782 20.8539 13.7813 20.3588 13.3635C20.1117 13.1564 19.8601 12.8946 19.6295 12.5706C19.4015 12.2466 19.1792 11.8671 19.0366 11.4209C18.9664 11.1982 18.9188 10.9577 18.9153 10.7102C18.9117 10.4631 18.9553 10.2106 19.0428 9.97508C19.1295 9.73908 19.2544 9.51908 19.4041 9.32264C19.4793 9.22442 19.5597 9.13064 19.6486 9.04664C19.733 8.95686 19.8286 8.88175 19.9219 8.80308C20.1153 8.65686 20.3193 8.53908 20.5277 8.44619C20.7366 8.35419 20.9508 8.29419 21.1628 8.24931C21.3757 8.20753 21.5873 8.19064 21.7948 8.18575C22.0024 8.18842 22.2059 8.19819 22.4024 8.23197C22.7966 8.28931 23.1624 8.41553 23.4966 8.55419C23.8312 8.69464 24.133 8.85908 24.4037 9.01997C24.945 9.34397 25.3637 9.65331 25.6548 9.86131C25.7988 9.96531 25.9117 10.0462 25.9899 10.1026C26.0673 10.1573 26.1086 10.1849 26.1099 10.1817Z" fill="#BF9892"/>
<path d="M21.9677 16.8649C21.9681 16.8644 21.9664 16.8555 21.9615 16.8387C21.9561 16.8204 21.9486 16.7951 21.9393 16.7618C21.9286 16.728 21.9175 16.6849 21.8997 16.6364C21.881 16.5875 21.8597 16.5315 21.8353 16.4675C21.7313 16.2164 21.541 15.8622 21.2219 15.4915C20.9059 15.1164 20.4659 14.7338 19.9477 14.3115C19.6899 14.0982 19.4121 13.8729 19.1335 13.6102C18.9935 13.4795 18.8539 13.3387 18.7188 13.184C18.5833 13.0298 18.4513 12.8622 18.333 12.6742C18.2144 12.4871 18.1068 12.2822 18.0201 12.0591C18.0001 12.0022 17.9801 11.9453 17.9601 11.888C17.9415 11.8302 17.9281 11.7693 17.9117 11.7098C17.8979 11.6493 17.8761 11.5911 17.8686 11.5275C17.8584 11.4653 17.8481 11.4027 17.8379 11.3395C17.825 11.2769 17.8233 11.212 17.8184 11.1475C17.8148 11.0827 17.8077 11.0182 17.8064 10.9524C17.8073 10.8871 17.8086 10.8209 17.8095 10.7551C17.8104 10.7222 17.8095 10.6889 17.8121 10.6555L17.8219 10.5564C17.829 10.4902 17.8344 10.4231 17.8424 10.3564C17.8539 10.2907 17.8659 10.224 17.8779 10.1578C17.8841 10.1244 17.889 10.0911 17.8966 10.0578L17.9219 9.95955C17.9393 9.89421 17.9548 9.82755 17.973 9.76221C18.2868 8.7191 18.9939 7.7711 19.9424 7.26977C20.4117 7.00932 20.9259 6.83466 21.4597 6.72621C21.9935 6.61466 22.5477 6.56932 23.1117 6.54932C24.2393 6.51644 25.4153 6.53955 26.5926 6.79821C27.1801 6.92977 27.753 7.11644 28.2921 7.38088C28.5624 7.5111 28.8241 7.65955 29.0748 7.8271C29.325 7.99466 29.5677 8.17421 29.7944 8.37688C30.021 8.57866 30.2357 8.79466 30.4339 9.02755C30.6304 9.26221 30.8113 9.5111 30.9748 9.77199C31.2984 10.2973 31.5335 10.8795 31.7948 11.4262C32.0539 11.9715 32.345 12.4991 32.7464 12.8684C32.7979 12.9115 32.8459 12.96 32.8997 12.9978C32.9535 13.0355 33.0059 13.0755 33.0601 13.1107C33.1695 13.1795 33.2833 13.2351 33.3966 13.2831C33.6241 13.38 33.8526 13.4498 34.0708 13.5364C34.2881 13.6244 34.4997 13.724 34.6775 13.8804C34.7255 13.9133 34.7655 13.9587 34.8073 14.0004C34.8486 14.0431 34.8926 14.0818 34.9273 14.132C34.9641 14.1795 35.0006 14.2271 35.037 14.2742C35.069 14.3262 35.1006 14.3778 35.1321 14.4289C35.2504 14.6404 35.3481 14.8658 35.4073 15.1018L35.4321 15.1889L35.4504 15.2778C35.4624 15.3369 35.4744 15.396 35.4859 15.4547C35.4935 15.5142 35.5015 15.5738 35.509 15.6324L35.5201 15.7204L35.5255 15.8089C35.557 16.2791 35.509 16.7351 35.393 17.1364C35.2793 17.5391 35.1015 17.8858 34.9095 18.1804C34.5197 18.7702 34.0673 19.1435 33.6917 19.412C33.3104 19.6747 32.9935 19.8324 32.7784 19.9342C32.6708 19.9858 32.5877 20.0209 32.5317 20.0453C32.5046 20.0578 32.4837 20.0671 32.469 20.0738C32.4548 20.0804 32.4481 20.084 32.4481 20.0849C32.4481 20.0858 32.4557 20.0835 32.4704 20.0782C32.4855 20.0724 32.5068 20.0649 32.5344 20.0542C32.5913 20.0329 32.6753 20.0004 32.7841 19.9515C33.0015 19.8551 33.321 19.7027 33.7068 19.4435C34.0868 19.1787 34.5459 18.8075 34.9441 18.2133C35.1401 17.9164 35.3224 17.5662 35.4406 17.1555C35.5606 16.7467 35.6113 16.2827 35.581 15.8027L35.5761 15.7124L35.565 15.6222C35.5575 15.5618 35.5499 15.5013 35.5424 15.4404C35.5304 15.3804 35.5184 15.32 35.5064 15.2595L35.4881 15.1684L35.4628 15.0791C35.4028 14.8369 35.3033 14.6049 35.1819 14.3862C35.1495 14.3329 35.117 14.2795 35.0841 14.2258C35.0468 14.1769 35.009 14.1275 34.9708 14.0782C34.9348 14.0262 34.8895 13.9858 34.8468 13.9413C34.8037 13.8978 34.7619 13.8511 34.7126 13.8164C34.5281 13.6533 34.3104 13.5498 34.0908 13.46C33.8699 13.3715 33.6419 13.3009 33.4188 13.2049C33.1944 13.1124 32.9801 12.98 32.7877 12.8C32.3997 12.4418 32.1139 11.9235 31.8575 11.3809C31.5988 10.8369 31.3633 10.2511 31.0348 9.71599C30.869 9.4511 30.6859 9.19821 30.4868 8.95999C30.2859 8.72399 30.0686 8.50444 29.8393 8.29999C29.6104 8.09466 29.365 7.91244 29.1117 7.7431C28.8584 7.57332 28.5939 7.42355 28.321 7.29155C27.7761 7.02399 27.1984 6.83555 26.6064 6.7031C25.4201 6.44266 24.2397 6.42044 23.109 6.45466C22.5428 6.47555 21.9855 6.52177 21.4468 6.6351C20.9081 6.74532 20.3877 6.9231 19.9117 7.18844C19.4366 7.45155 19.0041 7.80799 18.6686 8.25377C18.3255 8.69066 18.0739 9.20399 17.9113 9.73466C17.8926 9.80177 17.8766 9.86977 17.8593 9.93688L17.8339 10.0373C17.8264 10.0711 17.8215 10.1058 17.8153 10.1395C17.8033 10.2075 17.7913 10.2755 17.7797 10.3431C17.7713 10.4115 17.7659 10.48 17.7593 10.548L17.7495 10.6498C17.7468 10.6835 17.7477 10.7178 17.7468 10.7515C17.7459 10.8195 17.745 10.8871 17.7441 10.9542C17.7455 11.0213 17.753 11.088 17.757 11.1542C17.7624 11.2204 17.7646 11.2871 17.7775 11.3511C17.7881 11.4155 17.7988 11.48 17.8095 11.544C17.8175 11.6089 17.8401 11.6689 17.8544 11.7307C17.8713 11.792 17.8855 11.8542 17.9046 11.9133C17.9255 11.972 17.9459 12.0302 17.9668 12.0884C18.0566 12.3164 18.1668 12.5253 18.2886 12.7151C18.4099 12.9058 18.5441 13.0751 18.6819 13.2302C18.8193 13.3862 18.9606 13.5271 19.1019 13.6578C19.3837 13.9204 19.6633 14.144 19.9224 14.3551C20.4428 14.7729 20.8833 15.1493 21.2001 15.5178C21.5201 15.8818 21.7126 16.2293 21.8206 16.476C21.8459 16.5387 21.8686 16.5938 21.8881 16.6418C21.9073 16.6898 21.9193 16.732 21.9313 16.7649C21.9428 16.7973 21.9513 16.8222 21.9575 16.84C21.9637 16.8569 21.9673 16.8653 21.9677 16.8649Z" fill="#BF9892"/>
<path d="M31.4153 18.4196C31.4161 18.4258 31.509 18.4116 31.6757 18.3769C31.8419 18.3409 32.0837 18.2876 32.3753 18.1836C32.6646 18.0769 33.0113 17.9138 33.3277 17.5996C33.485 17.4422 33.6237 17.2387 33.7348 17.0053C33.7877 16.8871 33.837 16.7627 33.8699 16.6284C33.8899 16.5627 33.8993 16.4929 33.9135 16.424C33.921 16.3533 33.933 16.2831 33.9335 16.2107C33.9495 15.9222 33.8837 15.6347 33.7633 15.4049C33.6419 15.1742 33.4739 15 33.301 14.8711C32.9521 14.6111 32.5908 14.512 32.2993 14.4258C32.0046 14.3431 31.769 14.2707 31.6095 14.2053C31.4499 14.1404 31.365 14.0933 31.3624 14.1004C31.361 14.1036 31.381 14.1182 31.4206 14.1436C31.4601 14.1689 31.5201 14.2022 31.5988 14.2404C31.7566 14.3173 31.993 14.4004 32.2855 14.4916C32.5757 14.5858 32.9286 14.6911 33.2624 14.9458C33.4277 15.072 33.5855 15.2391 33.6975 15.4551C33.8086 15.6702 33.869 15.9347 33.8544 16.2053C33.8544 16.2729 33.8424 16.3396 33.8357 16.4058C33.8224 16.4707 33.8135 16.5369 33.7944 16.5991C33.7637 16.7267 33.7166 16.8453 33.6668 16.9587C33.5615 17.1822 33.4299 17.3787 33.2806 17.5311C32.9788 17.8373 32.6419 18.0049 32.3584 18.1178C32.0726 18.2293 31.8335 18.2924 31.669 18.3396C31.5055 18.3862 31.4144 18.4129 31.4153 18.4196Z" fill="#BF9892"/>
<path d="M25.5124 2.85599C25.5107 2.85421 25.4924 2.8751 25.4613 2.91999C25.4315 2.96576 25.3898 3.03599 25.3484 3.13599C25.2662 3.33376 25.1915 3.65865 25.2284 4.05865C25.248 4.25599 25.292 4.4791 25.4115 4.67554C25.4711 4.77243 25.5515 4.85776 25.6458 4.91732C25.7395 4.97865 25.8458 5.0151 25.9547 5.03465C26.1742 5.07199 26.4053 5.0431 26.636 4.97465C26.8653 4.90354 27.0987 4.77821 27.2898 4.57065C27.4827 4.36576 27.6075 4.08043 27.6431 3.78976C27.684 3.49954 27.6191 3.19688 27.4769 2.98621C27.3355 2.77332 27.148 2.64443 26.9724 2.54976C26.884 2.50265 26.7964 2.46354 26.7124 2.42888C26.6707 2.41154 26.6302 2.3951 26.5862 2.38043C26.5431 2.36754 26.5 2.3591 26.4582 2.35732C26.2902 2.34665 26.1427 2.39288 26.0191 2.44354C25.896 2.49688 25.796 2.56176 25.7195 2.62265C25.6422 2.68354 25.5907 2.74399 25.5569 2.78532C25.5253 2.82932 25.5107 2.85421 25.5124 2.85599C25.5182 2.86265 25.5809 2.76488 25.736 2.65376C25.8133 2.5991 25.9124 2.54088 26.0333 2.49376C26.1538 2.44932 26.2978 2.41021 26.4542 2.42443C26.5333 2.42932 26.6071 2.45999 26.692 2.49821C26.7747 2.53421 26.86 2.57421 26.9453 2.62176C27.1151 2.71643 27.2915 2.84354 27.4191 3.03999C27.5475 3.23465 27.6044 3.50532 27.5662 3.77465C27.532 4.0431 27.4164 4.3071 27.2369 4.49821C27.0582 4.69288 26.8373 4.81332 26.6169 4.88265C26.3955 4.95021 26.1711 4.9791 25.9649 4.94621C25.7591 4.9151 25.5733 4.80443 25.4635 4.62665C25.3524 4.45021 25.3058 4.23954 25.284 4.04976C25.2413 3.66488 25.3049 3.34843 25.3764 3.1511C25.4493 2.95288 25.5191 2.86176 25.5124 2.85599Z" fill="#BF9892"/>
<path d="M17.9081 15.684C17.9059 15.6818 17.8908 15.6982 17.8628 15.7315C17.8361 15.7662 17.797 15.8178 17.7552 15.8933C17.713 15.968 17.669 16.0684 17.6414 16.1951C17.6143 16.3222 17.609 16.4729 17.6259 16.6351C17.6463 16.8013 17.7072 16.9702 17.8028 17.1267C17.8503 17.2044 17.9121 17.2791 17.9881 17.3333C18.0636 17.3871 18.1499 17.4222 18.2392 17.4404C18.4188 17.4769 18.6081 17.4555 18.7965 17.4022C18.9845 17.3467 19.1761 17.2471 19.3343 17.0795C19.4934 16.9133 19.5983 16.6809 19.629 16.4427C19.6445 16.3235 19.6428 16.2022 19.6188 16.088C19.5956 15.9724 19.5494 15.8715 19.5005 15.7818C19.4512 15.6902 19.3925 15.6075 19.325 15.5418C19.2579 15.4755 19.1836 15.4267 19.1112 15.388C19.0379 15.3502 18.9672 15.32 18.8934 15.2987C18.8201 15.2813 18.749 15.2707 18.681 15.2742C18.4085 15.2831 18.205 15.4018 18.0796 15.4964C18.0161 15.5444 17.9734 15.5933 17.945 15.6262C17.9183 15.6618 17.9063 15.6822 17.9081 15.684C17.913 15.6902 17.9676 15.6147 18.0952 15.5289C18.2214 15.4467 18.4228 15.3418 18.681 15.3422C18.745 15.3409 18.8116 15.3533 18.8792 15.3707C18.945 15.392 19.0156 15.4235 19.0841 15.4609C19.2223 15.5347 19.3503 15.6547 19.4388 15.8298C19.4845 15.9169 19.5254 16.0089 19.5445 16.1098C19.5654 16.2107 19.5663 16.32 19.5516 16.4275C19.5228 16.644 19.4276 16.8547 19.2814 17.0071C19.1356 17.1618 18.9565 17.2569 18.7774 17.3107C18.5979 17.3627 18.4156 17.3844 18.2503 17.3529C18.1676 17.3373 18.0899 17.3067 18.0223 17.26C17.9548 17.2138 17.9001 17.1498 17.8539 17.0778C17.7628 16.9351 17.7019 16.7747 17.6801 16.6249C17.6605 16.4707 17.6614 16.3275 17.6832 16.2071C17.7054 16.0867 17.7432 15.9884 17.7801 15.9129C17.8561 15.7622 17.9139 15.6902 17.9081 15.684Z" fill="#BF9892"/>
<path d="M37.9472 20.9551C37.9441 20.9516 37.8961 21.0013 37.8343 21.1173C37.7757 21.2311 37.6979 21.4262 37.7254 21.6818C37.7423 21.8084 37.789 21.9364 37.8614 22.0564C37.8974 22.116 37.945 22.1738 38.0032 22.2156C38.0614 22.2573 38.1272 22.284 38.1957 22.2982C38.333 22.3267 38.477 22.3107 38.6206 22.2707C38.7641 22.2293 38.9099 22.1538 39.0321 22.0267C39.1548 21.9004 39.2361 21.7231 39.261 21.5409C39.273 21.4498 39.2734 21.3564 39.2557 21.2684C39.2392 21.18 39.2041 21.1 39.1659 21.032C39.0877 20.8929 38.9797 20.7898 38.8663 20.7324C38.7534 20.6747 38.6383 20.6542 38.5357 20.6587C38.3308 20.6671 38.1712 20.7378 38.0743 20.8093C37.9766 20.8827 37.9441 20.9533 37.9472 20.9551C37.9526 20.9609 37.9921 20.9013 38.0894 20.8418C38.1863 20.7836 38.3419 20.7258 38.5366 20.7262C38.633 20.7262 38.7379 20.7493 38.8401 20.8049C38.9419 20.8604 39.0366 20.9547 39.1054 21.0813C39.1401 21.1458 39.1686 21.2133 39.1819 21.2889C39.1961 21.364 39.1957 21.4449 39.1846 21.5249C39.1615 21.6858 39.0899 21.8409 38.9801 21.9538C38.8708 22.068 38.7366 22.1391 38.6023 22.1791C38.4677 22.2182 38.3308 22.2342 38.2077 22.2107C37.9512 22.1764 37.821 21.884 37.7806 21.6698C37.7481 21.44 37.8117 21.2507 37.861 21.1356C37.913 21.0187 37.9526 20.9604 37.9472 20.9551Z" fill="#BF9892"/>
<path d="M28.0835 5.13287C28.0826 5.13242 28.08 5.14531 28.0755 5.17109C28.0715 5.19642 28.0644 5.23464 28.0613 5.28576C28.0529 5.38753 28.0524 5.54176 28.0902 5.73509C28.1297 5.92664 28.208 6.15687 28.3493 6.3862C28.4889 6.61731 28.6955 6.83731 28.9511 7.02887C29.2062 7.22264 29.5106 7.38398 29.8386 7.55464C30.1649 7.72753 30.5217 7.91242 30.8435 8.21287C31.1653 8.5142 31.4271 8.93864 31.6893 9.38976C31.9533 9.83731 32.2329 10.3289 32.6475 10.6875L32.6329 10.6404C32.6062 10.7715 32.5791 10.9089 32.5529 11.0502C32.5404 11.1213 32.5275 11.1929 32.5146 11.2653L32.4977 11.376C32.4933 11.4151 32.4866 11.4471 32.4875 11.4982L32.4889 11.5778L32.5457 11.5324C32.7529 11.3675 32.9764 11.1893 33.2035 11.0089L33.1693 11.0138C33.5297 11.168 33.94 11.2138 34.3306 11.0858C34.7213 10.9595 35.0746 10.6426 35.2969 10.2151C35.4986 9.83331 35.5893 9.35998 35.5133 8.92131C35.4417 8.48176 35.2475 8.10264 35.0395 7.76664C34.6164 7.09776 34.1475 6.51242 33.6609 6.01198C33.1755 5.5102 32.6729 5.09376 32.1795 4.75464C31.9333 4.58442 31.6893 4.43376 31.4475 4.30442C31.2026 4.1822 30.9591 4.09687 30.7244 4.02842C30.2546 3.89553 29.8164 3.83642 29.4315 3.86798C29.0444 3.90531 28.7315 4.08664 28.5195 4.28931C28.3049 4.49376 28.1933 4.72176 28.1391 4.87998C28.1142 4.96131 28.0977 5.02353 28.0915 5.06753C28.0857 5.1102 28.0822 5.13242 28.0835 5.13287C28.0849 5.13331 28.0906 5.11153 28.1009 5.06976C28.1093 5.02709 28.1284 4.9662 28.1551 4.88753C28.2133 4.7342 28.3266 4.51464 28.54 4.31864C28.7506 4.12442 29.0586 3.95242 29.4364 3.92131C29.8142 3.89509 30.2484 3.9582 30.7129 4.0942C30.9444 4.16398 31.1857 4.25064 31.4253 4.37242C31.6622 4.50131 31.9049 4.65331 32.1484 4.82353C32.6369 5.16309 33.1342 5.57909 33.6146 6.07864C34.096 6.57642 34.5609 7.15953 34.9786 7.8222C35.1831 8.15331 35.3697 8.5222 35.4369 8.93864C35.5084 9.35242 35.4231 9.79776 35.2311 10.1626C35.0195 10.5706 34.6822 10.8724 34.3111 10.9929C33.9382 11.1155 33.544 11.0729 33.196 10.9249L33.1777 10.9173L33.1617 10.9302C32.9351 11.1115 32.7115 11.2902 32.5049 11.4555L32.5631 11.4898C32.5626 11.4662 32.5675 11.4244 32.5724 11.3906L32.5889 11.2831C32.6013 11.2115 32.6137 11.1404 32.6262 11.0698C32.652 10.9293 32.6786 10.7924 32.7049 10.6613L32.7106 10.6315L32.6897 10.6138C32.2889 10.2698 32.0102 9.78798 31.7449 9.34087C31.4809 8.89109 31.2133 8.46042 30.8809 8.15287C30.5489 7.84709 30.1871 7.66442 29.8591 7.4942C29.5297 7.32664 29.2271 7.16976 28.9737 6.9822C28.7204 6.79642 28.5155 6.58442 28.3764 6.36042C28.2351 6.1382 28.1551 5.91464 28.1124 5.72753C28.072 5.53909 28.068 5.38753 28.0724 5.28664C28.0777 5.18576 28.0871 5.13376 28.0835 5.13287Z" fill="#BF9892"/>
<path d="M32.9232 8.53375C32.9072 8.74664 33.0365 8.93464 33.2121 8.9542C33.3877 8.97331 33.5423 8.81642 33.5583 8.60398C33.5743 8.39109 33.445 8.20309 33.2694 8.18353C33.0939 8.16398 32.9392 8.32086 32.9232 8.53375Z" fill="#BF9892"/>
<path d="M31.889 7.33065C32.065 7.33065 32.2076 7.15753 32.2076 6.94398C32.2076 6.73043 32.065 6.55731 31.889 6.55731C31.713 6.55731 31.5703 6.73043 31.5703 6.94398C31.5703 7.15753 31.713 7.33065 31.889 7.33065Z" fill="#BF9892"/>
<path d="M29.7289 5.70931C29.7129 5.9222 29.8422 6.1102 30.0178 6.12976C30.1933 6.14887 30.3484 5.99242 30.364 5.77953C30.38 5.56664 30.2507 5.37865 30.0751 5.35909C29.9 5.33998 29.7449 5.49687 29.7289 5.70931Z" fill="#BF9892"/>
<path d="M34.3098 20.4182C34.3098 20.4173 34.3036 20.4124 34.2912 20.4036C34.2787 20.3951 34.2605 20.3822 34.236 20.3671C34.1854 20.3378 34.1094 20.2951 34.0036 20.2582C33.8983 20.2218 33.764 20.1893 33.6036 20.1858C33.4436 20.1836 33.2565 20.2093 33.06 20.2969L32.9609 20.3413L33.0672 20.3387C33.204 20.3351 33.3547 20.3591 33.4978 20.4373C33.6405 20.5138 33.7734 20.6542 33.8454 20.848L33.8472 20.8213C33.7676 20.9636 33.7378 21.1569 33.7805 21.3373C33.8214 21.5178 33.9298 21.6787 34.0743 21.772C34.2156 21.8698 34.3858 21.9116 34.556 21.9071C34.7272 21.9031 34.8992 21.8573 35.0698 21.7987C35.7503 21.5609 36.4818 21.1724 37.1556 20.5493C37.3232 20.3929 37.4867 20.2236 37.6449 20.0396C37.8014 19.8542 37.9512 19.6542 38.0916 19.4404C38.3707 19.0107 38.6112 18.5222 38.788 17.9862C38.9632 17.4507 39.0809 16.868 39.1014 16.2649C39.1116 15.9636 39.1023 15.6596 39.0743 15.3556C39.0467 15.0516 39.0036 14.7467 38.9392 14.4453C38.8343 13.9516 38.6814 13.476 38.4609 13.052C38.2352 12.6307 37.9072 12.3 37.5374 12.112C37.1685 11.924 36.7587 11.8627 36.3796 11.9711C36.1916 12.0253 36.0098 12.1293 35.8685 12.2889C35.7974 12.3676 35.7369 12.46 35.6903 12.5613C35.6667 12.612 35.6476 12.6649 35.6325 12.7196C35.6147 12.7729 35.6045 12.8293 35.5952 12.8853C35.5605 13.1116 35.5952 13.3431 35.66 13.5453C35.7249 13.7498 35.8134 13.9351 35.9032 14.1124C35.9925 14.2907 36.0858 14.4609 36.1614 14.6378C36.2374 14.8142 36.3045 14.9938 36.3556 15.1769C36.5685 15.9067 36.5929 16.6516 36.4943 17.2969C36.3983 17.9462 36.1707 18.492 35.9192 18.9151C35.7929 19.128 35.6574 19.3093 35.5249 19.4658C35.3925 19.6227 35.2609 19.7529 35.1369 19.8596C34.8898 20.076 34.6738 20.1996 34.5303 20.2836C34.4587 20.3258 34.404 20.3582 34.3663 20.3809C34.3289 20.4044 34.3098 20.4169 34.3098 20.4182C34.3098 20.42 34.3289 20.4107 34.3667 20.3916C34.4058 20.3711 34.4618 20.3413 34.5352 20.3027C34.6836 20.2231 34.9018 20.1049 35.1543 19.8907C35.2809 19.7853 35.4152 19.656 35.5507 19.4996C35.6863 19.3436 35.8249 19.1618 35.9547 18.9476C36.2129 18.5218 36.4476 17.9702 36.5489 17.3102C36.6529 16.6547 36.632 15.8969 36.4174 15.1511C36.3658 14.9644 36.2978 14.7809 36.2209 14.6C36.144 14.4182 36.0507 14.2462 35.9627 14.0689C35.8738 13.8924 35.788 13.7107 35.7267 13.5151C35.6649 13.3213 35.6347 13.108 35.6667 12.9018C35.6756 12.8507 35.6845 12.7991 35.7014 12.7502C35.7152 12.7 35.7325 12.6516 35.7543 12.6053C35.7974 12.5129 35.8525 12.4284 35.9183 12.3556C36.0494 12.2084 36.2174 12.112 36.3969 12.0604C36.7565 11.9582 37.1529 12.0173 37.5067 12.1987C37.8623 12.38 38.1778 12.6987 38.3947 13.104C38.608 13.5151 38.7592 13.9836 38.8623 14.4689C38.9258 14.7653 38.9681 15.0658 38.9956 15.3653C39.0236 15.6649 39.0325 15.9653 39.0227 16.26C39.0032 16.8516 38.888 17.4236 38.7165 17.9511C38.5436 18.4787 38.3076 18.9604 38.0334 19.3844C37.8952 19.5956 37.748 19.7929 37.5943 19.9764C37.4392 20.1582 37.2778 20.3262 37.1129 20.4813C36.4494 21.0996 35.7263 21.4884 35.0534 21.7284C34.8849 21.7876 34.7183 21.8329 34.5547 21.8378C34.392 21.8431 34.2325 21.8049 34.0992 21.7147C33.9654 21.6302 33.8658 21.4831 33.8276 21.32C33.7885 21.1564 33.8134 20.9822 33.8854 20.8507L33.8925 20.8382L33.8872 20.8244C33.8085 20.6169 33.6649 20.4698 33.5147 20.3916C33.3636 20.3111 33.2072 20.2893 33.0663 20.2951L33.0729 20.3369C33.2636 20.2484 33.4467 20.2196 33.6041 20.2187C33.7618 20.2187 33.8947 20.2471 33.9996 20.2796C34.1045 20.3129 34.1814 20.3516 34.2329 20.3773C34.2578 20.3911 34.2774 20.4018 34.2912 20.4093C34.3032 20.4164 34.3098 20.4196 34.3098 20.4182Z" fill="#BF9892"/>
<path d="M15.556 6.23067C15.556 6.23067 15.3823 6.46267 15.1583 6.95644C15.0503 7.20489 14.9294 7.51778 14.8267 7.89822C14.7245 8.27778 14.6387 8.72533 14.6085 9.22889C14.6031 9.29155 14.6014 9.35555 14.6009 9.42C14.6 9.48444 14.5983 9.54978 14.5987 9.616C14.6045 9.748 14.6058 9.88355 14.6227 10.0204C14.6489 10.2942 14.7045 10.5791 14.8005 10.8529C14.8934 11.1284 15.0174 11.4009 15.1805 11.6511C15.2636 11.7747 15.356 11.892 15.46 11.9987C15.5649 12.1036 15.6818 12.1942 15.8089 12.2662C15.9356 12.3404 16.0743 12.3836 16.2169 12.4089C16.36 12.4302 16.5151 12.4102 16.6511 12.3316C16.7889 12.256 16.904 12.1196 16.9796 11.9596C17.0569 11.7996 17.0978 11.6191 17.1223 11.4382C17.1734 11.0742 17.1494 10.7027 17.1569 10.3338C17.1636 9.964 17.1867 9.58755 17.2649 9.22266C17.3423 8.85911 17.4769 8.51511 17.6827 8.24933C17.8871 7.98089 18.144 7.78622 18.4005 7.60889C18.6578 7.43066 18.9183 7.26933 19.16 7.07511C19.4 6.88089 19.6138 6.62844 19.7303 6.312C19.8338 5.98178 19.7787 5.61689 19.6409 5.344C19.5094 5.06355 19.3143 4.84311 19.0983 4.696C18.8805 4.55067 18.644 4.47244 18.4143 4.45911C18.1863 4.44933 17.9676 4.46666 17.7618 4.50889C17.3511 4.59822 16.9965 4.77066 16.7107 4.97111C16.4236 5.16933 16.2005 5.38666 16.0307 5.57778C15.944 5.67111 15.8756 5.76489 15.8129 5.84178C15.7547 5.924 15.7045 5.992 15.6663 6.04978C15.6298 6.10755 15.6023 6.152 15.5823 6.18355C15.564 6.21378 15.5547 6.22978 15.556 6.23067C15.5569 6.23155 15.568 6.21778 15.5889 6.18933C15.6103 6.15911 15.64 6.11689 15.6787 6.06178C15.7187 6.00622 15.7707 5.94044 15.8303 5.86089C15.8943 5.78666 15.964 5.69555 16.0516 5.60489C16.2231 5.41955 16.4467 5.20889 16.7325 5.01733C17.0165 4.824 17.3671 4.65911 17.7711 4.57511C17.9734 4.536 18.1885 4.52133 18.4107 4.53244C18.6311 4.54711 18.8583 4.62444 19.0658 4.76444C19.272 4.90711 19.4565 5.11778 19.5805 5.38489C19.6116 5.45111 19.6378 5.52178 19.6618 5.59333C19.6836 5.66444 19.6978 5.73955 19.7054 5.81689C19.7191 5.97022 19.7111 6.13422 19.6631 6.27733C19.6094 6.42133 19.5303 6.55822 19.4378 6.67778C19.3449 6.79911 19.2347 6.90267 19.1183 6.99867C18.8827 7.18755 18.6218 7.34844 18.3627 7.52667C18.1045 7.70489 17.8396 7.90311 17.6254 8.184C17.4089 8.46311 17.268 8.82355 17.1889 9.19822C17.1085 9.57467 17.0854 9.95778 17.0787 10.3316C17.0716 10.7062 17.0951 11.0729 17.0463 11.4227C17.0231 11.5964 16.984 11.7667 16.9138 11.9129C16.8449 12.0591 16.7436 12.1791 16.62 12.248C16.3711 12.3929 16.0787 12.3133 15.84 12.1853C15.7196 12.1178 15.6071 12.032 15.5063 11.9316C15.4063 11.8298 15.3165 11.7173 15.2356 11.5978C15.0769 11.356 14.9543 11.0911 14.8618 10.8218C14.7663 10.5538 14.7116 10.2791 14.684 10.0107C14.6663 9.87689 14.6645 9.74355 14.6578 9.61422C14.6569 9.54933 14.6587 9.48489 14.6587 9.42133C14.6587 9.35778 14.66 9.29467 14.6649 9.23289C14.6911 8.736 14.772 8.292 14.8694 7.91422C14.9671 7.53555 15.0827 7.22311 15.1858 6.97333C15.2925 6.72578 15.3867 6.54089 15.4543 6.41866C15.4876 6.35866 15.5134 6.31244 15.5316 6.27955C15.5489 6.24844 15.5569 6.23155 15.556 6.23067Z" fill="#BF9892"/>
</g>
<path d="M39.1897 35.0396C39.1844 34.8569 39.0755 34.6956 38.9252 34.5947C36.5741 33.0187 34.8021 29.5253 34.6235 26.5685C34.6186 26.4 34.6137 26.2293 34.6079 26.0569C34.6079 26.056 34.6079 26.0556 34.6079 26.0547C34.4612 21.6085 33.847 16.4902 33.3052 15.3316C32.1532 12.8658 28.8337 12.5698 28.8337 12.5698C24.2506 12.2378 23.4319 15.8045 22.9692 19.0533C22.6817 21.0738 21.5732 28.2907 21.5732 28.2907L22.4155 28.6209C23.4079 31.5996 25.6426 34.0085 28.5475 35.116C29.3924 35.4382 30.1079 35.5676 30.4435 35.2902C31.7777 36.66 33.4479 37.6956 35.2666 38.2556C36.007 38.4836 36.7826 38.636 37.5528 38.5631C38.0528 38.5156 38.5804 38.3485 38.8786 37.9387C39.1355 37.5858 39.171 37.0813 38.9657 36.6956C38.7604 36.3098 38.3252 36.0618 37.8928 36.0849C38.0666 35.5142 39.2092 35.6822 39.1897 35.0396Z" fill="#423A33"/>
<path d="M29.4434 13.8822L29.1568 13.6053L26.0581 14.8702C25.6097 14.8956 25.255 15.2636 25.2412 15.7182L25.2683 25.9436C25.2643 26.6369 25.4017 27.2373 25.815 27.7902L26.2501 28.372C27.2425 29.6987 29.2834 29.5898 30.0692 28.1276C30.1243 28.0253 30.1621 27.936 30.1785 27.8631C30.195 27.772 30.2199 27.712 30.2248 27.6347C30.3172 26.812 30.3221 26.0987 30.3221 26.0987C30.3772 25.1956 30.3954 24.8249 30.3959 24.8333C30.3959 24.8333 32.2937 24.6125 32.807 22.1449C33.0621 20.9178 33.0141 19.2298 32.9421 17.568C32.843 15.2689 31.2683 13.88 29.4434 13.8822Z" fill="#FAD6C8"/>
<g opacity="0.47">
<path d="M24.9521 17.824C27.0375 17.468 29.2321 17.7773 31.3819 17.7302C31.7424 17.7222 32.1393 17.6929 32.3846 17.5147C32.629 17.3369 32.6446 17.0671 32.6099 16.8253C32.4344 15.6013 31.2388 14.1569 29.2095 13.8729" fill="#D6AA9C"/>
</g>
<path d="M20.8088 40.036L9.62261 40.0293C8.27728 40.0285 7.18706 38.9431 7.1875 37.6049L7.19283 9.70713C7.19328 8.36801 8.28483 7.28268 9.63106 7.28357L20.8173 7.29024C22.1626 7.29113 23.2528 8.37646 23.1599 9.71468L23.1546 37.6125C23.2466 38.9516 22.1551 40.0369 20.8088 40.036Z" fill="#DEBAB7"/>
<path d="M20.8232 8.08845L18.6543 8.08712C18.3636 8.08712 18.1276 8.33645 18.1276 8.64445V9.04312C18.1276 9.35112 17.8916 9.60045 17.601 9.60045L13.3734 9.59779C13.0827 9.59779 12.8467 9.34801 12.8467 9.04001V8.64134C12.8467 8.33334 12.6112 8.08357 12.3201 8.08357L11.5574 8.08312L9.65918 8.08179C8.71651 8.08134 7.95207 8.85512 7.95162 9.80979L7.94629 37.5338C7.94629 38.488 8.7094 39.2622 9.65162 39.2627L20.8156 39.2693C21.7583 39.2698 22.5227 38.496 22.5232 37.5413L22.5285 9.81734C22.529 8.86312 21.7654 8.0889 20.8232 8.08845Z" fill="#ECCECC"/>
<path d="M21.4616 11.2796C21.4616 11.2876 21.1607 11.2965 20.7896 11.2996C20.4181 11.3027 20.1172 11.2987 20.1172 11.2907C20.1172 11.2827 20.4181 11.2738 20.7892 11.2707C21.1607 11.268 21.4616 11.2716 21.4616 11.2796Z" fill="white"/>
<path d="M21.4646 11.628C21.4646 11.636 21.1637 11.6449 20.7926 11.648C20.421 11.6511 20.1201 11.6471 20.1201 11.6391C20.1201 11.6311 20.421 11.6222 20.7921 11.6191C21.1632 11.6164 21.4646 11.62 21.4646 11.628Z" fill="white"/>
<path d="M21.4675 11.9764C21.4675 11.9844 21.1666 11.9933 20.7955 11.9964C20.4239 11.9996 20.123 11.9956 20.123 11.9876C20.123 11.9796 20.4239 11.9707 20.795 11.9676C21.1666 11.9649 21.4675 11.9684 21.4675 11.9764Z" fill="white"/>
<path d="M9.2359 12.3858C9.23635 12.3853 9.24612 12.3844 9.2639 12.384C9.28612 12.3831 9.31146 12.3822 9.34168 12.3813C9.41501 12.3796 9.51101 12.3773 9.62879 12.3742L9.62079 12.3822C9.6199 12.3178 9.61857 12.2476 9.61723 12.1716C9.61768 12.1324 9.61412 12.0956 9.61768 12.0502C9.62524 12.0049 9.66524 11.9653 9.71412 11.9604C9.76035 11.9596 9.80124 11.9573 9.85146 11.9596C9.90301 11.9658 9.94701 12.0164 9.94568 12.072C9.94657 12.1702 9.9479 12.2729 9.94923 12.3796L9.9359 12.3662C10.0523 12.3649 10.1732 12.364 10.2981 12.3627L10.2843 12.3769C10.283 12.2293 10.2817 12.0764 10.2803 11.92C10.2799 11.8809 10.2799 11.8422 10.2795 11.8036C10.2795 11.7676 10.2577 11.7436 10.2283 11.7169C10.1746 11.6636 10.1221 11.6107 10.0701 11.5587C10.0181 11.5067 9.96746 11.456 9.91723 11.4062C9.89235 11.3813 9.86746 11.3564 9.84301 11.332C9.81768 11.3071 9.79768 11.2813 9.7679 11.2756C9.73946 11.2676 9.7079 11.2738 9.68479 11.2916C9.66301 11.3102 9.63946 11.3369 9.61723 11.3587C9.57279 11.4044 9.52924 11.4484 9.48746 11.4916C9.40568 11.5773 9.32035 11.656 9.25857 11.7302C9.23235 11.7711 9.24212 11.8213 9.24035 11.8671C9.24035 11.9124 9.24035 11.9556 9.2399 11.9964C9.23946 12.0756 9.23901 12.1453 9.23857 12.2044C9.23812 12.2578 9.23768 12.3018 9.23724 12.3378C9.23679 12.3684 9.23635 12.3849 9.2359 12.3858C9.23501 12.3867 9.23457 12.3711 9.23323 12.3418C9.23235 12.3062 9.23101 12.2631 9.22968 12.2107C9.22835 12.1507 9.22657 12.0809 9.22479 12.0009C9.2239 11.9596 9.22301 11.9156 9.22257 11.8693C9.22212 11.8458 9.22168 11.8218 9.22168 11.7973C9.22168 11.7711 9.2279 11.7444 9.24168 11.7204C9.30879 11.6373 9.38879 11.5636 9.47101 11.4751C9.51279 11.432 9.5559 11.3871 9.5999 11.3413C9.62301 11.3182 9.64212 11.2951 9.66968 11.2711C9.69857 11.2484 9.73857 11.2404 9.77457 11.2502C9.81324 11.2587 9.83812 11.2907 9.86168 11.3133C9.88612 11.3378 9.91101 11.3622 9.9359 11.3871C9.98612 11.4369 10.0372 11.4876 10.0892 11.5391C10.1412 11.5907 10.1941 11.6436 10.2479 11.6969C10.2608 11.7107 10.2759 11.7222 10.2883 11.7413C10.2999 11.7596 10.3066 11.7813 10.3075 11.8031C10.3079 11.8418 10.3083 11.8809 10.3083 11.92C10.3097 12.0764 10.3106 12.2293 10.3119 12.3769V12.3911H10.2981C10.1732 12.392 10.0523 12.3929 9.9359 12.3933H9.92257V12.38C9.92212 12.2733 9.92168 12.1707 9.92079 12.0724C9.92212 12.028 9.88835 11.9889 9.84746 11.9836C9.80568 11.9813 9.75679 11.9827 9.7159 11.9831C9.67679 11.9862 9.64435 12.0182 9.63768 12.0542C9.63412 12.0911 9.63679 12.1342 9.6359 12.1716C9.6359 12.2476 9.6359 12.3178 9.6359 12.3822V12.3907H9.6279C9.50835 12.3898 9.41057 12.3893 9.3359 12.3884C9.30657 12.388 9.28124 12.3876 9.2599 12.3871C9.2439 12.3867 9.23501 12.3862 9.2359 12.3858Z" fill="white"/>
<path d="M15.915 35.3369C17.0633 35.3369 17.9942 34.3941 17.9942 33.2311C17.9942 32.0681 17.0633 31.1253 15.915 31.1253C14.7668 31.1253 13.8359 32.0681 13.8359 33.2311C13.8359 34.3941 14.7668 35.3369 15.915 35.3369Z" fill="white"/>
<path d="M14.6394 33.716L15.1585 33.5924C15.2225 33.5773 15.2679 33.5191 15.2679 33.4524V33.344C15.2679 33.344 15.2456 33.16 15.4172 33.1484C15.5403 33.14 16.3212 33.1484 16.3212 33.1484C16.3212 33.1484 16.5265 33.1444 16.523 33.3084V33.4658C16.523 33.52 16.5581 33.568 16.6092 33.5836L17.1723 33.756C17.2323 33.7742 17.2959 33.7436 17.3199 33.6853L17.3919 33.5093C17.4052 33.4769 17.4114 33.4427 17.4096 33.4076C17.4061 33.3387 17.3799 33.2311 17.3127 33.144C17.2012 32.9991 16.675 32.6564 15.671 32.7058C14.715 32.7529 14.5065 33.1609 14.4519 33.2582C14.4176 33.3187 14.4074 33.4671 14.4341 33.5302C14.4439 33.5533 14.4599 33.5924 14.4759 33.6307C14.5025 33.696 14.5719 33.732 14.6394 33.716Z" fill="#ECCECC"/>
<g opacity="0.2">
<path d="M15.9146 27.9427C16.7099 27.9427 17.3546 27.2896 17.3546 26.484C17.3546 25.6784 16.7099 25.0254 15.9146 25.0254C15.1193 25.0254 14.4746 25.6784 14.4746 26.484C14.4746 27.2896 15.1193 27.9427 15.9146 27.9427Z" fill="#A88886"/>
</g>
<path d="M15.5211 26.6556C15.6136 26.6556 15.6886 26.5796 15.6886 26.4858C15.6886 26.392 15.6136 26.316 15.5211 26.316C15.4285 26.316 15.3535 26.392 15.3535 26.4858C15.3535 26.5796 15.4285 26.6556 15.5211 26.6556Z" fill="white"/>
<path d="M16.0822 26.4858C16.0822 26.5796 16.0071 26.6556 15.9146 26.6556C15.8222 26.6556 15.7471 26.5796 15.7471 26.4858C15.7471 26.392 15.8222 26.316 15.9146 26.316C16.0071 26.316 16.0822 26.392 16.0822 26.4858Z" fill="white"/>
<path d="M16.4757 26.4858C16.4757 26.5796 16.4006 26.6556 16.3082 26.6556C16.2157 26.6556 16.1406 26.5796 16.1406 26.4858C16.1406 26.392 16.2157 26.316 16.3082 26.316C16.4006 26.316 16.4757 26.392 16.4757 26.4858Z" fill="white"/>
<path d="M15.6886 26.0809C15.6886 26.1747 15.6135 26.2507 15.5211 26.2507C15.4286 26.2507 15.3535 26.1747 15.3535 26.0809C15.3535 25.9871 15.4286 25.9111 15.5211 25.9111C15.6135 25.9111 15.6886 25.9871 15.6886 26.0809Z" fill="white"/>
<path d="M16.0822 26.0809C16.0822 26.1747 16.0071 26.2507 15.9146 26.2507C15.8222 26.2507 15.7471 26.1747 15.7471 26.0809C15.7471 25.9871 15.8222 25.9111 15.9146 25.9111C16.0071 25.9111 16.0822 25.9871 16.0822 26.0809Z" fill="white"/>
<path d="M16.4757 26.0809C16.4757 26.1747 16.4006 26.2507 16.3082 26.2507C16.2157 26.2507 16.1406 26.1747 16.1406 26.0809C16.1406 25.9871 16.2157 25.9111 16.3082 25.9111C16.4006 25.9111 16.4757 25.9871 16.4757 26.0809Z" fill="white"/>
<path d="M15.6886 26.8867C15.6886 26.9805 15.6135 27.0565 15.5211 27.0565C15.4286 27.0565 15.3535 26.9805 15.3535 26.8867C15.3535 26.7929 15.4286 26.7169 15.5211 26.7169C15.6135 26.7169 15.6886 26.7929 15.6886 26.8867Z" fill="white"/>
<path d="M16.0822 26.8867C16.0822 26.9805 16.0071 27.0565 15.9146 27.0565C15.8222 27.0565 15.7471 26.9805 15.7471 26.8867C15.7471 26.7929 15.8222 26.7169 15.9146 26.7169C16.0071 26.7169 16.0822 26.7929 16.0822 26.8867Z" fill="white"/>
<path d="M16.4757 26.8867C16.4757 26.9805 16.4006 27.0565 16.3082 27.0565C16.2157 27.0565 16.1406 26.9805 16.1406 26.8867C16.1406 26.7929 16.2157 26.7169 16.3082 26.7169C16.4006 26.7169 16.4757 26.7929 16.4757 26.8867Z" fill="white"/>
<g opacity="0.2">
<path d="M11.7798 27.9427C12.5751 27.9427 13.2198 27.2896 13.2198 26.484C13.2198 25.6784 12.5751 25.0254 11.7798 25.0254C10.9846 25.0254 10.3398 25.6784 10.3398 26.484C10.3398 27.2896 10.9846 27.9427 11.7798 27.9427Z" fill="#A88886"/>
</g>
<path d="M11.1035 26.2934V26.6387C11.1035 26.6534 11.1151 26.6654 11.1297 26.6654H11.3177C11.3235 26.6654 11.3293 26.6672 11.3337 26.6712L11.6271 26.9036C11.6444 26.9174 11.6693 26.9049 11.6693 26.8827V26.0756C11.6693 26.0538 11.6453 26.0414 11.628 26.0538L11.344 26.2605C11.3395 26.2636 11.3342 26.2654 11.3288 26.2654L11.1297 26.2667C11.1155 26.2667 11.1035 26.2787 11.1035 26.2934Z" fill="white"/>
<path d="M12.2149 27.0672C12.2069 27.0672 12.1994 27.0645 12.1927 27.0587C12.1789 27.0463 12.178 27.0254 12.19 27.0116C12.354 26.8263 12.4318 26.6347 12.4211 26.4423C12.4051 26.1543 12.1949 25.9609 12.1927 25.9592C12.1789 25.9467 12.178 25.9258 12.19 25.912C12.202 25.8983 12.2229 25.8969 12.2367 25.9094C12.246 25.9178 12.4696 26.1232 12.4874 26.4387C12.4989 26.6494 12.4158 26.8574 12.2394 27.0565C12.2331 27.0632 12.2242 27.0672 12.2149 27.0672Z" fill="white"/>
<path d="M12.033 26.904C12.0241 26.904 12.0152 26.9005 12.009 26.8934C11.9966 26.88 11.9975 26.8587 12.0103 26.8463C12.1268 26.7356 12.1859 26.6156 12.1859 26.4885C12.1863 26.2707 12.0121 26.1023 12.0103 26.1005C11.997 26.088 11.9966 26.0667 12.009 26.0534C12.0215 26.04 12.0423 26.0391 12.0557 26.052C12.0637 26.0596 12.2521 26.2414 12.2521 26.4885C12.2521 26.6347 12.1859 26.7716 12.0557 26.8956C12.0495 26.9009 12.0415 26.904 12.033 26.904Z" fill="white"/>
<path d="M11.872 26.7356C11.8636 26.7356 11.8551 26.7325 11.8485 26.7258C11.8356 26.7125 11.8356 26.6916 11.8489 26.6787C12.0516 26.4751 11.8556 26.2449 11.8476 26.2351C11.8356 26.2214 11.8369 26.2 11.8507 26.188C11.8645 26.1756 11.8854 26.1769 11.8974 26.1907C11.9 26.1934 12.1431 26.4778 11.896 26.7258C11.8889 26.7325 11.8805 26.7356 11.872 26.7356Z" fill="white"/>
<g opacity="0.2">
<path d="M19.6949 27.9427C20.4902 27.9427 21.1349 27.2896 21.1349 26.484C21.1349 25.6784 20.4902 25.0254 19.6949 25.0254C18.8996 25.0254 18.2549 25.6784 18.2549 26.484C18.2549 27.2896 18.8996 27.9427 19.6949 27.9427Z" fill="#A88886"/>
</g>
<path d="M19.7032 26.9885C19.6787 26.9885 19.6592 26.9685 19.6592 26.944V26.024C19.6592 25.9996 19.6787 25.9796 19.7032 25.9796C19.7276 25.9796 19.7472 25.9996 19.7472 26.024V26.944C19.7472 26.9685 19.7276 26.9885 19.7032 26.9885Z" fill="white"/>
<path d="M20.1348 26.5285H19.254C19.2295 26.5285 19.21 26.5085 19.21 26.484C19.21 26.4596 19.2295 26.4396 19.254 26.4396H20.1348C20.1593 26.4396 20.1788 26.4596 20.1788 26.484C20.1788 26.5085 20.1593 26.5285 20.1348 26.5285Z" fill="white"/>
<path d="M14.1217 16.6489C14.5154 17.0791 14.7123 17.6978 14.7123 18.5053C14.7123 19.0773 14.6065 19.5676 14.3954 19.976C14.1843 20.3845 13.8865 20.6947 13.5021 20.9058C13.1177 21.1173 12.6741 21.2231 12.171 21.2231C11.9052 21.2231 11.6514 21.1929 11.4092 21.1329C11.167 21.0729 10.9608 20.9876 10.7901 20.8769L11.2172 20.0191C11.4594 20.1876 11.7701 20.2716 12.1497 20.2716C12.5719 20.2716 12.9065 20.1453 13.1532 19.8929C13.3999 19.6405 13.5328 19.2765 13.5519 18.8005C13.2528 19.1031 12.8399 19.2547 12.3132 19.2547C11.9954 19.2547 11.7057 19.1898 11.4448 19.06C11.1839 18.9302 10.9772 18.7462 10.8257 18.5085C10.6737 18.2707 10.5977 17.9956 10.5977 17.6831C10.5977 17.3467 10.6808 17.0511 10.847 16.7965C11.0132 16.5418 11.2394 16.3458 11.527 16.2089C11.8141 16.072 12.1332 16.0036 12.4843 16.0036C13.1821 16.0036 13.7279 16.2187 14.1217 16.6489ZM13.1857 18.1702C13.3448 18.0285 13.4243 17.8471 13.4243 17.6258C13.4243 17.4049 13.347 17.2245 13.1928 17.0849C13.0385 16.9453 12.8261 16.876 12.5559 16.876C12.3092 16.876 12.1088 16.9436 11.9545 17.0778C11.8003 17.2125 11.723 17.3951 11.723 17.6258C11.723 17.8565 11.7999 18.0405 11.9545 18.1773C12.1088 18.3142 12.3141 18.3827 12.5701 18.3827C12.8217 18.3827 13.027 18.312 13.1857 18.1702Z" fill="white"/>
<path d="M17.1468 16.0902V21.1369H15.9935V17.0276H14.9971V16.0902H17.1468Z" fill="white"/>
<path d="M19.9369 16.0902V21.1369H18.7836V17.0276H17.7871V16.0902H19.9369Z" fill="white"/>
<path d="M10.9703 23.1716V23.3418H10.3525V22.5623H10.9561V22.7325H10.5681V22.864H10.9099V23.0289H10.5681V23.1716H10.9703Z" fill="white"/>
<path d="M11.7859 23.3418L11.7837 22.9285L11.5859 23.2649H11.489L11.2922 22.9396V23.3414H11.0908V22.5618H11.2699L11.5406 23.0116L11.8046 22.5618H11.9837L11.9859 23.3414H11.7859V23.3418Z" fill="white"/>
<path d="M12.7584 23.1716V23.3418H12.1406V22.5623H12.7442V22.7325H12.3562V22.864H12.698V23.0289H12.3562V23.1716H12.7584Z" fill="white"/>
<path d="M13.2154 23.1347H13.0967V23.3418H12.8789V22.5623H13.2309C13.3007 22.5623 13.3611 22.5738 13.4122 22.5974C13.4634 22.6209 13.5029 22.6543 13.5309 22.6974C13.5589 22.7409 13.5727 22.792 13.5727 22.8503C13.5727 22.9067 13.5598 22.956 13.5336 22.9978C13.5074 23.0396 13.4705 23.0725 13.422 23.0965L13.5882 23.3414H13.3554L13.2154 23.1347ZM13.3185 22.7663C13.2958 22.7463 13.262 22.736 13.2171 22.736H13.0962V22.9645H13.2171C13.262 22.9645 13.2958 22.9547 13.3185 22.9351C13.3411 22.9156 13.3527 22.8876 13.3527 22.8511C13.3527 22.8143 13.3411 22.7863 13.3185 22.7663Z" fill="white"/>
<path d="M14.2084 22.9351H14.4009V23.2582C14.3569 23.2902 14.3062 23.3147 14.2493 23.3316C14.192 23.3485 14.1351 23.3574 14.0778 23.3574C13.9973 23.3574 13.9244 23.34 13.86 23.3054C13.7955 23.2707 13.7449 23.2227 13.7084 23.1614C13.6715 23.0996 13.6533 23.0298 13.6533 22.952C13.6533 22.8742 13.6715 22.8045 13.7084 22.7427C13.7449 22.6809 13.796 22.6329 13.8613 22.5987C13.9267 22.564 14.0004 22.5467 14.0822 22.5467C14.1542 22.5467 14.2187 22.5591 14.2755 22.5836C14.3329 22.608 14.3804 22.6431 14.4187 22.6894L14.28 22.8165C14.228 22.7587 14.1658 22.7298 14.0933 22.7298C14.0271 22.7298 13.9742 22.7502 13.9338 22.7907C13.8933 22.8311 13.8733 22.8854 13.8733 22.9525C13.8733 22.9956 13.8827 23.0338 13.9009 23.0676C13.9191 23.1014 13.9449 23.1276 13.9778 23.1467C14.0107 23.1658 14.0484 23.1751 14.0911 23.1751C14.1329 23.1751 14.172 23.1667 14.2089 23.1494V22.9351H14.2084Z" fill="white"/>
<path d="M15.1568 23.1716V23.3418H14.5391V22.5623H15.1426V22.7325H14.7546V22.864H15.0964V23.0289H14.7546V23.1716H15.1568Z" fill="white"/>
<path d="M16.0103 22.5623V23.3418H15.8312L15.4917 22.9263V23.3418H15.2783V22.5623H15.4574L15.797 22.9778V22.5623H16.0103Z" fill="white"/>
<path d="M16.3312 23.3054C16.2672 23.2707 16.2166 23.2227 16.1801 23.1614C16.1432 23.0996 16.125 23.0298 16.125 22.952C16.125 22.8742 16.1432 22.8045 16.1801 22.7427C16.2166 22.6809 16.2672 22.6329 16.3312 22.5987C16.3952 22.564 16.4677 22.5467 16.5486 22.5467C16.6188 22.5467 16.6823 22.5596 16.7388 22.5845C16.7952 22.6098 16.8419 22.6462 16.8797 22.6938L16.741 22.8209C16.6912 22.76 16.6308 22.7298 16.5597 22.7298C16.5179 22.7298 16.4806 22.7391 16.4481 22.7578C16.4157 22.7765 16.3903 22.8027 16.3721 22.8365C16.3543 22.8702 16.345 22.9089 16.345 22.9529C16.345 22.9969 16.3539 23.0356 16.3721 23.0694C16.3899 23.1031 16.4152 23.1294 16.4481 23.148C16.4806 23.1667 16.5179 23.176 16.5597 23.176C16.6308 23.176 16.6912 23.1458 16.741 23.0849L16.8797 23.212C16.8423 23.2596 16.7952 23.296 16.7388 23.3214C16.6823 23.3467 16.6188 23.3591 16.5486 23.3591C16.4677 23.3574 16.3952 23.34 16.3312 23.3054Z" fill="white"/>
<path d="M17.3846 23.0623V23.3418H17.1668V23.0591L16.873 22.5623H17.1028L17.2855 22.872L17.4682 22.5623H17.6793L17.3846 23.0623Z" fill="white"/>
<path d="M18.2209 23.3054C18.1569 23.2707 18.1062 23.2227 18.0698 23.1614C18.0329 23.0996 18.0146 23.0298 18.0146 22.952C18.0146 22.8742 18.0329 22.8045 18.0698 22.7427C18.1062 22.6809 18.1569 22.6329 18.2209 22.5987C18.2849 22.564 18.3573 22.5467 18.4382 22.5467C18.5084 22.5467 18.572 22.5596 18.6284 22.5845C18.6849 22.6098 18.7315 22.6462 18.7693 22.6938L18.6306 22.8209C18.5809 22.76 18.5204 22.7298 18.4493 22.7298C18.4075 22.7298 18.3702 22.7391 18.3378 22.7578C18.3053 22.7765 18.28 22.8027 18.2618 22.8365C18.244 22.8702 18.2346 22.9089 18.2346 22.9529C18.2346 22.9969 18.2435 23.0356 18.2618 23.0694C18.2795 23.1031 18.3049 23.1294 18.3378 23.148C18.3702 23.1667 18.4075 23.176 18.4493 23.176C18.5204 23.176 18.5809 23.1458 18.6306 23.0849L18.7693 23.212C18.732 23.2596 18.6849 23.296 18.6284 23.3214C18.572 23.3467 18.5084 23.3591 18.4382 23.3591C18.3573 23.3574 18.2849 23.34 18.2209 23.3054Z" fill="white"/>
<path d="M19.3678 23.1903H19.0424L18.982 23.3418H18.7598L19.0993 22.5623H19.3135L19.6544 23.3418H19.4278L19.3678 23.1903ZM19.3038 23.0276L19.2047 22.7783L19.1055 23.0276H19.3038Z" fill="white"/>
<path d="M19.7168 22.5623H19.9346V23.1671H20.3017V23.3418H19.7168V22.5623Z" fill="white"/>
<path d="M20.3867 22.5623H20.6045V23.1671H20.9716V23.3418H20.3867V22.5623Z" fill="white"/>
<path d="M40.4421 10.6013L38.5035 9.16268L38.2555 11.5342L35.791 11.7951L37.6839 13.712L36.235 15.1107L38.2875 15.2636L38.5257 17.1293L40.1497 15.74L42.3497 17.1293L42.9644 14.8298L45.3937 14.4845L43.2648 12.9498L44.4128 10.9071L42.5639 11.3356L42.0443 8.82312L40.4421 10.6013Z" fill="white"/>
<path d="M40.4423 10.6013C40.4423 10.6013 40.4778 10.5591 40.5476 10.4804C40.6178 10.4013 40.7214 10.2853 40.856 10.1338C41.1272 9.83067 41.5249 9.38533 42.0352 8.81511L42.0512 8.79733L42.056 8.82089C42.2 9.50978 42.3774 10.3591 42.5805 11.332L42.5605 11.3191C43.1227 11.188 43.7458 11.0431 44.4089 10.8884L44.4516 10.8787L44.4298 10.9173C44.0756 11.5493 43.6898 12.2369 43.2836 12.9609L43.2774 12.9324C43.9512 13.4173 44.6645 13.9307 45.4072 14.4653L45.4547 14.4996L45.3974 14.5076C44.624 14.6178 43.8076 14.7347 42.968 14.8542L42.988 14.8364C42.792 15.5693 42.5849 16.3449 42.3738 17.136L42.3649 17.1684L42.3365 17.1507C41.7947 16.8084 41.2209 16.4462 40.6396 16.0791C40.4712 15.9729 40.3036 15.8667 40.1365 15.7613L40.1658 15.7591C39.6156 16.2298 39.0734 16.6933 38.5418 17.1484L38.5072 17.1778L38.5014 17.1324C38.4205 16.4987 38.3414 15.876 38.2636 15.2667L38.2858 15.288C37.5832 15.2356 36.8987 15.184 36.2338 15.1342L36.1814 15.1302L36.2192 15.0938C36.7183 14.6124 37.2023 14.1458 37.6689 13.696L37.6685 13.728C36.9978 13.0476 36.3663 12.4067 35.7774 11.8093L35.748 11.7796L35.7889 11.7751C36.6898 11.6809 37.512 11.5947 38.2534 11.5173L38.2387 11.5324C38.3374 10.6049 38.4214 9.81689 38.4907 9.16133L38.4929 9.14L38.5098 9.15244C39.1347 9.61955 39.6169 9.98044 39.944 10.2249C40.1067 10.3476 40.2307 10.4404 40.3152 10.504C40.3996 10.5676 40.4423 10.6013 40.4423 10.6013C40.4423 10.6013 40.4 10.572 40.316 10.5111C40.2312 10.4489 40.1067 10.3578 39.9436 10.2382C39.6134 9.99511 39.1267 9.63689 38.4965 9.17244L38.5156 9.164C38.4485 9.82 38.3676 10.608 38.272 11.536L38.2707 11.5493L38.2574 11.5507C37.5156 11.6302 36.6943 11.7182 35.7934 11.8151L35.8054 11.7813C36.3952 12.3778 37.028 13.0173 37.6996 13.6969L37.7156 13.7129L37.6992 13.7289C37.2329 14.1791 36.7498 14.6467 36.2512 15.1284L36.2369 15.088C36.9018 15.1373 37.5863 15.188 38.2894 15.24L38.3089 15.2413L38.3116 15.2613C38.3898 15.8707 38.4694 16.4933 38.5503 17.1271L38.5098 17.1111C39.0414 16.656 39.5836 16.1924 40.1338 15.7213L40.1476 15.7093L40.1632 15.7191C40.3303 15.8244 40.4978 15.9307 40.6663 16.0369C41.2476 16.404 41.8214 16.7667 42.3632 17.1089L42.3263 17.1236C42.5378 16.3329 42.7454 15.5573 42.9418 14.8244L42.9458 14.8089L42.9618 14.8067C43.8009 14.6876 44.6178 14.572 45.3912 14.4622L45.3809 14.5044C44.6392 13.9689 43.9263 13.4547 43.2529 12.9689L43.2369 12.9573L43.2467 12.9404C43.6543 12.2173 44.0409 11.5302 44.3965 10.8991L44.4174 10.9276C43.7538 11.0804 43.1303 11.224 42.568 11.3533L42.5512 11.3573L42.5476 11.3404C42.348 10.3667 42.1738 9.51689 42.0325 8.82711L42.0534 8.83289C41.5369 9.40178 41.1343 9.84533 40.8596 10.1476C40.7236 10.2964 40.6196 10.4107 40.5485 10.4884C40.4783 10.5636 40.4423 10.6013 40.4423 10.6013Z" fill="#BF9892"/>
<path d="M40.1333 11.4764L40.0049 13.3564C39.9942 13.5102 39.8724 13.632 39.7204 13.64C39.56 13.6489 39.4213 13.5289 39.4044 13.3671L39.2093 11.476C39.1946 11.3329 39.3071 11.2089 39.4493 11.2116L39.9022 11.2204C40.0373 11.2231 40.1426 11.3396 40.1333 11.4764Z" fill="#BF9892"/>
<path d="M39.2403 14.5182C39.3176 14.7591 39.5736 14.8911 39.8114 14.8124C40.0496 14.7338 40.1794 14.4751 40.1021 14.2338C40.0247 13.9929 39.7687 13.8609 39.531 13.9396C39.2927 14.0182 39.1625 14.2773 39.2403 14.5182Z" fill="#BF9892"/>
<path d="M41.6685 11.4764L41.54 13.3564C41.5293 13.5102 41.4076 13.632 41.2556 13.64C41.0951 13.6489 40.9565 13.5289 40.9396 13.3671L40.7445 11.476C40.7298 11.3329 40.8422 11.2089 40.9845 11.2116L41.4373 11.2204C41.5725 11.2231 41.6778 11.3396 41.6685 11.4764Z" fill="#BF9892"/>
<path d="M40.7754 14.5182C40.8528 14.7591 41.1088 14.8911 41.3466 14.8124C41.5848 14.7338 41.7146 14.4751 41.6372 14.2338C41.5599 13.9929 41.3039 13.8609 41.0661 13.9396C40.8279 14.0182 40.6977 14.2773 40.7754 14.5182Z" fill="#BF9892"/>
<path d="M30.4717 26.26C30.4717 26.26 32.1468 25.5311 33.0117 25.3658C33.877 25.2004 39.9215 23.6222 39.9215 23.6222L33.6823 18.2071L35.0588 16.5111C35.0588 16.5111 39.693 19.312 42.9881 21.5444C42.9881 21.5444 43.0117 21.5569 43.0499 21.5871C44.9237 23.0809 44.2677 25.6836 42.3441 26.9058C41.3863 27.5147 37.1868 29.3493 36.3721 29.7511C34.7459 30.5533 34.7717 30.5262 34.7717 30.5262L30.4717 26.26Z" fill="#FAD6C8"/>
<path d="M29.2519 19.2089C29.2492 19.3778 29.1061 19.5147 28.9323 19.5151C28.7586 19.516 28.6194 19.38 28.6221 19.2111C28.6248 19.0422 28.7679 18.9053 28.9412 18.9045C29.115 18.904 29.2546 19.04 29.2519 19.2089Z" fill="#423A33"/>
<path d="M32.3261 19.2978C32.3234 19.4667 32.1803 19.6035 32.0066 19.604C31.8328 19.6044 31.6937 19.4689 31.6963 19.3C31.699 19.1311 31.8421 18.9942 32.0154 18.9933C32.1892 18.9924 32.3283 19.1289 32.3261 19.2978Z" fill="#423A33"/>
<path d="M32.6181 18.2258C32.5773 18.2653 32.3475 18.0747 32.0084 18.0582C31.6701 18.0369 31.4124 18.2009 31.3777 18.1569C31.3604 18.1373 31.4039 18.0644 31.5164 17.9898C31.627 17.9156 31.8128 17.8476 32.0235 17.8591C32.2346 17.8711 32.4084 17.9587 32.5061 18.0444C32.607 18.1311 32.6386 18.208 32.6181 18.2258Z" fill="#423A33"/>
<path d="M29.1789 18.2613C29.1341 18.2964 28.9243 18.0827 28.5892 18.0311C28.2549 17.9747 27.9821 18.1111 27.9518 18.064C27.9367 18.0427 27.9869 17.9747 28.1065 17.9124C28.2238 17.8502 28.4154 17.8018 28.6243 17.8351C28.8332 17.8689 28.9967 17.9742 29.0856 18.0698C29.1767 18.1658 29.2007 18.2458 29.1789 18.2613Z" fill="#423A33"/>
<path d="M30.3629 20.76C30.3625 20.7405 30.5749 20.7142 30.9185 20.6876C31.0056 20.6827 31.0883 20.6698 31.1056 20.6107C31.1292 20.5485 31.0976 20.452 31.0607 20.348C30.9896 20.1316 30.9158 19.9049 30.8376 19.6676C30.5292 18.6991 30.3105 17.9049 30.3492 17.8925C30.3878 17.88 30.6692 18.6551 30.9776 19.6236C31.0514 19.8622 31.1225 20.0898 31.1896 20.3076C31.2176 20.4089 31.2683 20.5249 31.2176 20.6538C31.1909 20.7182 31.1252 20.7622 31.0692 20.7747C31.0127 20.7889 30.9643 20.7876 30.9212 20.788C30.5767 20.7885 30.3634 20.7796 30.3629 20.76Z" fill="#423A33"/>
<path d="M30.3963 24.8333C30.3963 24.8333 28.7389 24.8573 27.1514 23.7778C27.1514 23.7778 27.8931 25.5413 30.3625 25.4333L30.3963 24.8333Z" fill="#D6AA9C"/>
<path d="M27.9836 16.9244C27.9956 16.8258 28.3356 16.7924 28.7129 16.6551C29.0929 16.5253 29.38 16.3378 29.4498 16.4076C29.4818 16.4413 29.4462 16.5395 29.34 16.6573C29.2347 16.7747 29.0533 16.9044 28.8262 16.9849C28.5991 17.0649 28.3773 17.0769 28.2227 17.0511C28.0671 17.0258 27.9791 16.9711 27.9836 16.9244Z" fill="#423A33"/>
<path d="M32.39 16.9213C32.3264 16.9964 32.0971 16.9036 31.8166 16.8853C31.5366 16.8573 31.2957 16.9116 31.2451 16.8271C31.2228 16.7862 31.2642 16.7102 31.3717 16.6418C31.478 16.5733 31.6522 16.5222 31.8446 16.5378C32.0371 16.5538 32.2011 16.6329 32.2944 16.7178C32.3895 16.8027 32.4184 16.8844 32.39 16.9213Z" fill="#423A33"/>
<path d="M25.3034 20.0822C25.3034 20.0822 27.039 20.6293 28.0212 16.2907C28.3572 14.8071 29.715 13.6058 29.715 13.6058L29.1643 13.4378C29.1643 13.4378 25.7416 14.4142 25.6839 14.4582C25.6261 14.5018 24.8203 16.2511 24.8203 16.2511L25.3034 20.0822Z" fill="#423A33"/>
<path d="M25.7307 19.9204C25.7396 19.7351 25.5498 19.288 25.3702 19.2502C24.8916 19.1498 24.0204 19.1449 23.9511 20.3849C23.856 22.08 25.556 21.8271 25.5618 21.7787C25.5662 21.7409 25.7004 20.5604 25.7307 19.9204Z" fill="#F7BA9B"/>
<path d="M25.0868 21.1071C25.0797 21.1013 25.0566 21.1262 25.0059 21.1462C24.9566 21.1658 24.873 21.1764 24.7877 21.1382C24.6144 21.0622 24.4815 20.7693 24.4908 20.4636C24.4952 20.3089 24.5352 20.164 24.5961 20.0453C24.6544 19.9244 24.7384 19.8422 24.8281 19.8316C24.9179 19.816 24.9779 19.8733 24.9957 19.9222C25.0157 19.9711 25.0028 20.0044 25.0117 20.0076C25.0161 20.012 25.049 19.9813 25.0397 19.9107C25.0348 19.8764 25.0175 19.8356 24.9797 19.8004C24.9415 19.7649 24.8832 19.7449 24.821 19.748C24.6912 19.7498 24.5686 19.8631 24.5019 19.9933C24.4281 20.1236 24.3792 20.2867 24.3744 20.46C24.3659 20.8022 24.5206 21.132 24.7588 21.2164C24.8748 21.2542 24.9752 21.224 25.0281 21.1867C25.0815 21.1476 25.0926 21.1102 25.0868 21.1071Z" fill="#E3956B"/>
<path d="M26.4805 19.2524C26.48 19.2467 26.5729 19.2467 26.7311 19.2013C26.8885 19.1564 27.1102 19.0524 27.3271 18.8511C27.4351 18.7507 27.5414 18.6271 27.6378 18.4822C27.7325 18.3364 27.8178 18.1693 27.8907 17.9867C28.0387 17.6213 28.1338 17.196 28.2511 16.7538C28.3689 16.3116 28.496 15.8942 28.636 15.5227C28.7742 15.1507 28.9271 14.8271 29.072 14.5649C29.2174 14.3027 29.3547 14.1027 29.4556 13.9693C29.5049 13.9018 29.548 13.8533 29.5756 13.8191C29.6036 13.7853 29.6191 13.768 29.62 13.7689C29.6214 13.7698 29.608 13.7889 29.5822 13.8244C29.5569 13.8604 29.5165 13.9107 29.4694 13.9796C29.3729 14.1156 29.2409 14.3178 29.0996 14.58C28.9591 14.8427 28.8098 15.1658 28.6742 15.5369C28.5369 15.9071 28.4111 16.3236 28.2938 16.7649C28.1769 17.2053 28.08 17.6329 27.928 18.0018C27.8534 18.1862 27.7658 18.3547 27.6676 18.5022C27.568 18.6484 27.4582 18.7729 27.3471 18.8738C27.1236 19.0756 26.8956 19.1773 26.7347 19.2173C26.5734 19.2587 26.4805 19.2524 26.4805 19.2524Z" fill="#423A33"/>
<path d="M24.192 26.4858C24.1903 26.4862 24.184 26.4582 24.1738 26.404C24.1631 26.3444 24.1494 26.2644 24.1316 26.1631C24.096 25.9453 24.0454 25.6355 23.9809 25.2427L24.0214 25.2369C24.0298 25.2982 24.0391 25.3667 24.0489 25.4369L24.0471 25.4307C24.0578 25.4538 24.0698 25.48 24.0823 25.5067L24.0405 25.5222C23.8423 24.8284 23.6249 23.896 23.5036 22.7933C23.4409 22.2427 23.4058 21.6498 23.4014 21.028C23.4071 20.4084 23.4027 19.7502 23.5667 19.0929C23.6343 18.8213 23.7369 18.5609 23.8711 18.3235C24.0049 18.0862 24.1649 17.8702 24.3338 17.6707C24.6743 17.2724 25.0409 16.9298 25.3756 16.5898C26.0511 15.9164 26.6596 15.3102 27.1725 14.7991C27.6827 14.2947 28.0974 13.8849 28.3885 13.5969C28.5303 13.4591 28.6414 13.3507 28.7218 13.2729C28.7578 13.2391 28.7867 13.2115 28.8098 13.1898C28.8298 13.1715 28.8409 13.1627 28.8418 13.1635C28.8427 13.1644 28.8338 13.1751 28.8156 13.1955C28.7938 13.2187 28.7667 13.2475 28.7329 13.284C28.6551 13.3644 28.5471 13.4764 28.4098 13.6187C28.1227 13.9111 27.7138 14.3267 27.2107 14.8387C26.7014 15.3529 26.0965 15.9635 25.4254 16.6409C25.092 16.9822 24.7258 17.3267 24.3907 17.7204C24.0556 18.1124 23.7671 18.5764 23.6405 19.1129C23.4796 19.756 23.4823 20.4115 23.4751 21.0284C23.4778 21.6475 23.5111 22.2378 23.5707 22.7867C23.6858 23.8853 23.8947 24.8164 24.0831 25.5107L24.0409 25.5262C24.0289 25.4991 24.0174 25.4729 24.0071 25.4498L24.0058 25.4467L24.0054 25.4435C23.9969 25.3729 23.9885 25.3044 23.9809 25.2431L24.0214 25.2373C24.0774 25.6315 24.1218 25.9422 24.1529 26.1609C24.1663 26.2631 24.1769 26.3435 24.1849 26.4035C24.1916 26.4569 24.1943 26.4853 24.192 26.4858Z" fill="#382D25"/>
<path d="M22.8743 18.6484C22.8721 18.6471 22.8823 18.6227 22.9037 18.5769C22.9299 18.5235 22.9619 18.4578 23.0014 18.3778C23.0863 18.2049 23.2201 17.9604 23.3957 17.6649C23.5699 17.3684 23.7939 17.0249 24.0579 16.6547C24.325 16.2867 24.6339 15.8933 24.9805 15.5004C25.3299 15.1093 25.6832 14.7564 26.0161 14.4484C26.3517 14.1435 26.665 13.8813 26.9379 13.6742C27.2099 13.4662 27.4352 13.3053 27.5961 13.2013C27.6703 13.1533 27.7312 13.1138 27.781 13.0818C27.8237 13.0551 27.8468 13.0422 27.8481 13.0444C27.8494 13.0467 27.8294 13.064 27.7894 13.0947C27.7419 13.1298 27.6837 13.1733 27.613 13.2258C27.4579 13.3369 27.2379 13.504 26.9712 13.7169C26.7037 13.9289 26.3957 14.1942 26.0641 14.5004C25.7357 14.8098 25.3854 15.1627 25.0379 15.5515C24.693 15.9427 24.3841 16.3324 24.1152 16.6964C23.8494 17.0627 23.6219 17.4013 23.4423 17.6933C23.2614 17.9844 23.121 18.224 23.0281 18.392C22.9841 18.4689 22.9477 18.5324 22.9179 18.584C22.8917 18.6275 22.877 18.6498 22.8743 18.6484Z" fill="#382D25"/>
<path d="M25.1918 25.9902C25.1918 25.9902 25.1891 25.9893 25.1855 25.988C25.1878 25.9889 25.1891 25.9893 25.1918 25.9902Z" fill="#445962"/>
<path d="M25.1849 25.988C25.1782 25.9858 25.1729 25.984 25.168 25.9822C25.1742 25.9844 25.1804 25.9862 25.1849 25.988Z" fill="#445962"/>
<path d="M37.7742 48L35.3746 40.392L35.1857 33.1613C35.1266 31.9147 35.0386 30.0911 35.0386 30.0911C34.2559 27.5435 31.7666 25.3929 31.7666 25.3929L30.3537 25.6124C30.2995 27.2022 27.967 28.6462 26.2897 27.5924C25.6693 27.1293 25.1915 25.9902 25.1915 25.9902L22.3408 27.4244L24.2982 41.9782C24.2982 41.9782 22.3675 45.7253 22.3675 48.0004H37.7742V48Z" fill="#AB7E79"/>
<path d="M25.1688 25.9822C25.163 25.98 25.1572 25.9782 25.1523 25.9764C25.1559 25.9778 25.1617 25.9796 25.1688 25.9822Z" fill="#445962"/>
<path d="M25.1521 25.9764C25.1423 25.9729 25.1392 25.972 25.1521 25.9764Z" fill="#445962"/>
<g opacity="0.3">
<path d="M24.1074 40.2409C24.4581 41.1715 25.1465 41.9911 26.0483 42.3369C26.9496 42.6831 28.0576 42.4875 28.7061 41.7498C29.1039 41.2969 29.3039 40.6929 29.4305 40.0933C29.5416 39.5662 29.6048 39.0298 29.6643 38.4938C29.9661 35.772 30.1861 33.0226 29.9443 30.2938L29.5865 27.144L28.5528 27.7502L28.0728 38.968L24.1074 40.2409Z" fill="#040000"/>
</g>
<path d="M30.3818 25.5555C30.3818 25.5555 32.4592 25.0129 34.1481 24.9662L36.9494 24.2307L37.4281 29.4369L34.7574 31.22L30.3818 25.5555Z" fill="#AB7E79"/>
<path d="M25.441 33.5613L20.5228 36.1284C20.5228 36.1284 19.1606 28.536 22.3272 27.4244L22.5103 28.5027L25.441 33.5613Z" fill="#AB7E79"/>
<path d="M34.8827 27.0293C34.8836 27.0293 34.8849 27.0409 34.8872 27.0636C34.8889 27.0889 34.8916 27.1222 34.8947 27.1644C34.9005 27.2564 34.9085 27.3871 34.9192 27.5533C34.9401 27.8911 34.9649 28.38 34.9947 28.9844C35.0529 30.1929 35.1214 31.8631 35.1863 33.708C35.2512 35.5533 35.3018 37.2244 35.3343 38.4338C35.3489 39.036 35.3609 39.5249 35.3694 39.8662C35.3721 40.0329 35.3743 40.1636 35.3761 40.2556C35.3761 40.2978 35.3765 40.3316 35.3765 40.3569C35.3765 40.3796 35.3756 40.3916 35.3747 40.3916C35.3738 40.3916 35.3725 40.38 35.3712 40.3573C35.3698 40.332 35.3681 40.2982 35.3658 40.256C35.3618 40.164 35.3565 40.0333 35.3498 39.8667C35.3378 39.5253 35.3205 39.0369 35.2987 38.4347C35.2569 37.2227 35.1996 35.5538 35.1361 33.7093C35.0672 31.8662 35.0045 30.1973 34.9592 28.9858C34.9343 28.3836 34.9138 27.8955 34.8996 27.5542C34.8934 27.3875 34.8881 27.2573 34.8845 27.1649C34.8836 27.1227 34.8827 27.0889 34.8818 27.0636C34.8818 27.0413 34.8818 27.0298 34.8827 27.0293Z" fill="#875A57"/>
<path d="M20.5225 36.128C20.522 36.1271 20.5287 36.1227 20.542 36.1147C20.558 36.1053 20.578 36.0942 20.602 36.0804C20.6589 36.0493 20.7367 36.0071 20.8354 35.9533C21.0429 35.8431 21.3363 35.6867 21.6971 35.4942C22.4305 35.1093 23.4367 34.5809 24.5487 33.9973C24.7536 33.8907 24.9549 33.7858 25.1465 33.6858L25.1345 33.7178C25.0376 33.4511 24.9545 33.192 24.8363 32.9578C24.726 32.7173 24.6403 32.4791 24.5576 32.2542C24.3949 31.804 24.2265 31.412 24.0887 31.0831C23.95 30.7547 23.842 30.4893 23.7723 30.3049C23.7376 30.2124 23.7114 30.1409 23.6949 30.092C23.678 30.0431 23.67 30.0173 23.6714 30.0169C23.6727 30.0164 23.6838 30.0409 23.7034 30.0889C23.7243 30.1404 23.7527 30.2102 23.7887 30.2982C23.8634 30.4804 23.9758 30.7431 24.1185 31.0698C24.2603 31.3964 24.4327 31.788 24.5985 32.2382C24.6825 32.4622 24.7691 32.7 24.8789 32.9369C24.9985 33.172 25.0843 33.4364 25.1807 33.7L25.1887 33.7218L25.1687 33.732C24.9771 33.832 24.7758 33.9373 24.5709 34.0444C23.4567 34.6227 22.4478 35.1462 21.7127 35.5275C21.3487 35.7138 21.0527 35.8649 20.8438 35.972C20.7438 36.0218 20.6643 36.0613 20.6065 36.0907C20.5816 36.1027 20.5607 36.1124 20.5443 36.1204C20.5305 36.1262 20.5229 36.1289 20.5225 36.128Z" fill="#875A57"/>
<path d="M30.761 21.5924C30.5725 21.4596 30.349 21.3787 30.1201 21.36C30.0481 21.3542 29.9734 21.3547 29.9067 21.3827C29.8059 21.4244 29.737 21.524 29.7041 21.6293C29.6712 21.7347 29.6699 21.8471 29.6681 21.9573C29.6676 21.9991 29.6676 22.0436 29.6867 22.0804C29.7223 22.1484 29.8085 22.1684 29.8845 22.1747C30.1427 22.1964 30.4067 22.1476 30.6405 22.0338" fill="#D6AA9C"/>
<path d="M21.1484 35.4969C22.1533 37.8631 24.064 40.2645 25.2413 40.704C26.996 41.3587 28.448 41.0333 29.1204 38.8667C29.7929 36.7 29.3618 27.0756 29.3618 27.0756L26.4369 26.9058L25.8951 35.1982C25.8951 35.1982 25.572 34.5542 25.0031 33.5382" fill="#FAD6C8"/>
<path d="M33.6831 18.2071L32.9471 17.6636L32.8342 16.728C32.8342 16.728 31.5035 16.7627 31.4222 16.0404C31.4222 16.0404 30.6551 16.2467 30.6924 15.4836C30.6924 15.4836 30.3018 15.2151 30.4444 14.9676C30.5871 14.72 31.6893 14.3516 31.7502 14.3311C31.8115 14.3107 32.532 14.156 32.532 14.156L32.3187 13.9151L31.7484 13.9769C31.7484 13.9769 31.4022 14.3071 31.1169 14.3484C30.8315 14.3898 30.8111 14.2658 30.8111 14.2658C30.8111 14.2658 30.4853 13.9151 30.9129 13.5644C31.3409 13.2138 31.8907 13.0898 32.176 13.0693C32.4613 13.0489 32.8435 13.6053 32.8435 13.6053L33.1538 14.1627C33.1538 14.1627 33.7649 14.08 33.9684 14.5547V14.8849C33.9684 14.8849 34.4164 14.8231 34.6 15.3596L34.7222 15.8342C34.7222 15.8342 35.252 16.5356 35.2724 16.8244" fill="#FAD6C8"/>
<path d="M35.2716 16.8245C35.2693 16.8249 35.2671 16.7987 35.2542 16.7511C35.2409 16.7031 35.2129 16.6347 35.1698 16.548C35.0818 16.376 34.9298 16.1338 34.7116 15.8413L34.7102 15.8391L34.7098 15.8365C34.6725 15.6947 34.6307 15.5347 34.5853 15.3627L34.5858 15.3636C34.5453 15.2453 34.4782 15.1245 34.3725 15.0333C34.2676 14.9436 34.1196 14.8893 33.9707 14.9018L33.9507 14.9036V14.8845C33.9502 14.7827 33.9502 14.6698 33.9498 14.5542L33.9511 14.5618C33.892 14.4285 33.7818 14.3107 33.6356 14.2502C33.4916 14.1876 33.3218 14.1671 33.156 14.1831L33.1418 14.1845L33.1351 14.1725C33.0378 13.9978 32.932 13.8093 32.824 13.6156L32.8249 13.6173C32.7587 13.5245 32.6845 13.4338 32.6031 13.3485C32.5213 13.2645 32.4316 13.1831 32.3276 13.1293C32.2747 13.1031 32.22 13.0893 32.1627 13.0933C32.1022 13.0978 32.0413 13.1071 31.9809 13.1178C31.8596 13.14 31.7378 13.1711 31.6182 13.2111C31.3791 13.2916 31.144 13.4089 30.9391 13.5747C30.8373 13.6547 30.7507 13.7605 30.7236 13.8871C30.6987 14.0133 30.7453 14.1502 30.8289 14.2485L30.8329 14.2533L30.8351 14.2613C30.8409 14.2836 30.8747 14.3098 30.9102 14.3187C30.9467 14.3293 30.9871 14.332 31.0276 14.3311C31.1102 14.3285 31.1902 14.3111 31.2676 14.2769C31.4222 14.2085 31.5653 14.1036 31.6978 13.9885C31.7089 13.9782 31.72 13.9685 31.7307 13.9587L31.7369 13.9529L31.7449 13.952C31.9369 13.9311 32.1271 13.9107 32.3151 13.8902L32.3276 13.8889L32.336 13.8987C32.4076 13.9796 32.4787 14.06 32.5493 14.1396L32.5778 14.1716L32.536 14.1809C32.2853 14.2369 32.0382 14.292 31.7947 14.3462C31.556 14.4173 31.3267 14.5085 31.1045 14.6C30.9933 14.6462 30.8853 14.6965 30.7809 14.7498C30.6778 14.804 30.5733 14.8613 30.4951 14.9387C30.4591 14.9773 30.4365 15.0271 30.4356 15.0791C30.4342 15.1311 30.4529 15.1831 30.4796 15.2302C30.5351 15.3236 30.6173 15.4018 30.7031 15.4649L30.7125 15.4716L30.7129 15.4845C30.7147 15.5325 30.712 15.5805 30.7169 15.6276C30.7258 15.6738 30.7285 15.7213 30.7476 15.7631C30.776 15.8498 30.8316 15.9262 30.908 15.9707C31.0613 16.0613 31.2525 16.056 31.4151 16.0205L31.4382 16.0156L31.4405 16.0382C31.4565 16.1978 31.5493 16.3338 31.6685 16.4227C31.7876 16.5138 31.9245 16.5698 32.0591 16.6098C32.3298 16.688 32.5942 16.7116 32.8325 16.712H32.8467L32.8485 16.7258C32.8916 17.0965 32.9271 17.4053 32.9569 17.6618L32.9525 17.6542C33.1893 17.832 33.372 17.9693 33.4973 18.0631C33.5573 18.1089 33.6031 18.144 33.6365 18.1693C33.6676 18.1933 33.6822 18.2067 33.6822 18.2067C33.6822 18.2067 33.6649 18.1965 33.6329 18.1738C33.5991 18.1498 33.552 18.116 33.4907 18.0725C33.364 17.9805 33.1791 17.8462 32.9396 17.672L32.9356 17.6693L32.9351 17.6645C32.9031 17.4085 32.8645 17.1 32.8178 16.7298L32.8333 16.7436C32.5911 16.7449 32.3258 16.7231 32.0493 16.6449C31.912 16.6045 31.7711 16.5485 31.6458 16.4538C31.5205 16.3618 31.4182 16.2147 31.4009 16.0431L31.4262 16.0605C31.3382 16.0818 31.2485 16.0898 31.1565 16.0849C31.0649 16.0796 30.9702 16.0587 30.8867 16.0076C30.8018 15.9587 30.7387 15.8725 30.7076 15.7782C30.6867 15.732 30.6836 15.6818 30.6742 15.6325C30.6689 15.5827 30.6711 15.5325 30.6693 15.4822L30.6791 15.5018C30.5876 15.4347 30.5031 15.3556 30.4413 15.2533C30.412 15.2018 30.3893 15.1422 30.3907 15.0782C30.3916 15.0142 30.4187 14.9525 30.4627 14.9062C30.5502 14.82 30.6551 14.7631 30.7605 14.7071C30.8667 14.6525 30.9756 14.6018 31.0871 14.5551C31.3107 14.4627 31.5405 14.3707 31.7805 14.2987C32.0253 14.2436 32.2742 14.188 32.5267 14.1311L32.5133 14.1725C32.4427 14.0929 32.3716 14.0125 32.3 13.9316L32.3209 13.9396C32.1329 13.96 31.9427 13.9805 31.7507 14.0013L31.7649 13.9947C31.7538 14.0049 31.7422 14.0156 31.7307 14.0258C31.5947 14.1436 31.4498 14.2507 31.2871 14.3227C31.2058 14.3587 31.116 14.3782 31.0289 14.3809C30.9849 14.3818 30.94 14.3796 30.896 14.3662C30.8533 14.3525 30.8045 14.3298 30.7867 14.2693L30.7929 14.2822C30.6982 14.1711 30.648 14.0218 30.6756 13.8769C30.6907 13.8053 30.7236 13.7409 30.764 13.6831C30.7862 13.6565 30.808 13.6289 30.8325 13.604C30.8582 13.5813 30.8827 13.5565 30.9093 13.5356C31.12 13.3658 31.36 13.2467 31.604 13.1653C31.7262 13.1245 31.8498 13.0933 31.9738 13.0711C32.036 13.0605 32.0978 13.0511 32.16 13.0467C32.2258 13.0413 32.2929 13.0587 32.3489 13.0876C32.4613 13.1467 32.5529 13.2307 32.6365 13.3169C32.7191 13.4045 32.7938 13.496 32.8618 13.592L32.8622 13.5929L32.8627 13.5938C32.9702 13.788 33.0751 13.9769 33.172 14.152L33.1511 14.1413C33.3262 14.1253 33.4991 14.1471 33.6516 14.2138C33.8058 14.2778 33.9245 14.4049 33.9853 14.5467L33.9867 14.5502V14.5542C33.9862 14.6698 33.9862 14.7827 33.9858 14.8845L33.9658 14.8671C34.1289 14.8542 34.2818 14.9133 34.3933 15.0089C34.5045 15.1058 34.5729 15.2325 34.6138 15.3542V15.3547V15.3551C34.6573 15.528 34.6978 15.688 34.7338 15.8302L34.7316 15.8258C34.948 16.1213 35.0965 16.3662 35.1818 16.5418C35.2236 16.6298 35.2493 16.7 35.2609 16.7489C35.272 16.7987 35.2716 16.8245 35.2716 16.8245Z" fill="#D6AA9C"/>
<path d="M33.9615 17.204C33.9557 17.2093 33.9064 17.1582 33.8157 17.0916C33.725 17.0245 33.5899 16.9462 33.4295 16.8867C33.2672 16.8289 33.1183 16.7769 33.009 16.7564C32.8992 16.7351 32.8286 16.7373 32.8281 16.7293C32.8277 16.7236 32.8988 16.7085 33.0143 16.7213C33.1308 16.7338 33.2819 16.7809 33.4472 16.8396C33.6126 16.9009 33.7504 16.9876 33.8379 17.064C33.9259 17.14 33.9663 17.2005 33.9615 17.204Z" fill="#D6AA9C"/>
<path d="M34.1767 15.8462C34.1767 15.8498 34.1372 15.8542 34.0661 15.8596C33.9843 15.8645 33.8834 15.8702 33.7638 15.8769C33.5087 15.8893 33.1563 15.9031 32.767 15.9151C32.5727 15.9205 32.3878 15.9253 32.2181 15.9302C32.0496 15.932 31.899 15.94 31.7727 15.956C31.647 15.9711 31.5465 15.9933 31.479 16.0147C31.4114 16.0356 31.3763 16.0542 31.3741 16.0502C31.3727 16.048 31.4052 16.0231 31.4723 15.996C31.5394 15.9685 31.6407 15.9405 31.7674 15.9205C31.8941 15.8996 32.0474 15.888 32.2167 15.8836C32.387 15.8778 32.5718 15.8711 32.7656 15.8645C33.155 15.8525 33.5078 15.8445 33.763 15.8409C33.8825 15.8405 33.9834 15.84 34.0652 15.8396C34.1372 15.8409 34.1767 15.8427 34.1767 15.8462Z" fill="#D6AA9C"/>
<path d="M33.5643 14.9782C33.5647 14.9818 33.5247 14.9898 33.4523 15.0009C33.3696 15.0133 33.2665 15.0289 33.1452 15.0476C32.8861 15.0862 32.5283 15.1431 32.1349 15.2165C31.7416 15.2902 31.3874 15.3667 31.1318 15.424C31.0118 15.4507 30.9105 15.4733 30.8287 15.4916C30.7572 15.5071 30.7167 15.5142 30.7158 15.5107C30.7149 15.5071 30.7536 15.4938 30.8238 15.4725C30.8941 15.4507 30.9967 15.4222 31.1238 15.3889C31.3781 15.3222 31.7318 15.24 32.1265 15.1662C32.5207 15.0925 32.8803 15.0413 33.1412 15.0116C33.2718 14.9965 33.3776 14.9862 33.4505 14.9809C33.5229 14.976 33.5638 14.9747 33.5643 14.9782Z" fill="#D6AA9C"/>
<path d="M32.3534 13.5533C32.3659 13.5489 32.401 13.6302 32.3956 13.7373C32.3908 13.8444 32.3476 13.9218 32.3356 13.9164C32.3223 13.9111 32.3419 13.8324 32.3459 13.7351C32.3512 13.6373 32.3396 13.5573 32.3534 13.5533Z" fill="#E3956B"/>
<path d="M23.2663 20.0853C24.0748 21.1698 26.1801 24.3093 27.0379 25.4325C27.2188 25.6693 27.745 25.5818 27.9774 25.3965C28.5299 24.956 29.4974 24.1916 30.0743 23.772C30.3188 23.5942 30.3694 23.2471 30.1859 23.0058L26.0841 17.6093C25.8943 17.3596 25.5339 17.3276 25.3041 17.54L23.333 19.3631C23.1299 19.5507 23.101 19.8636 23.2663 20.0853Z" fill="#A67C77"/>
<path d="M26.3617 36.4711L25.8946 35.1978L26.4363 26.9053C26.4363 26.9053 25.3572 24.9142 25.2377 24.4769C25.1181 24.0395 25.0879 22.7733 25.0879 22.7733L25.8417 23.6591C25.8417 23.6591 25.8626 22.1364 25.8626 21.6267C25.8626 21.6267 25.9701 19.712 25.9888 19.4467C26.007 19.1813 26.2728 19.0382 26.4443 19.0382C26.6159 19.0382 26.7817 19.3547 26.7817 19.3547L27.0123 22.4858C27.0123 22.4858 27.3923 20.8391 27.5363 20.6209C27.6803 20.4022 28.1772 20.2982 28.5128 20.3222C28.5163 20.3227 28.5194 20.3227 28.5226 20.3231C28.783 20.3471 28.8679 20.6929 28.6532 20.8444L28.2106 21.1582L28.043 22.7289C28.043 22.7289 28.4506 21.3689 28.6666 21.1991C28.8821 21.0293 29.2661 21.1991 29.3377 21.3933C29.4097 21.5875 29.1457 21.976 29.1457 21.976L29.0737 22.9471C29.0737 22.9471 29.3612 22.5342 29.5026 22.3155C29.6439 22.0969 30.0083 22.3155 30.0528 22.4129C30.0968 22.5102 29.7928 23.5582 29.7928 23.5582L29.3612 27.0755L29.4972 32.1395" fill="#FAD6C8"/>
<path d="M29.4976 32.1396C29.4976 32.1396 29.4954 32.1102 29.4932 32.052C29.4909 31.9933 29.4883 31.9071 29.4843 31.7947C29.4772 31.5667 29.4669 31.232 29.4536 30.7978C29.4287 29.9276 29.3923 28.6622 29.3465 27.076V27.0747V27.0733C29.4732 26.0333 29.6163 24.8533 29.7741 23.5556V23.5542L29.7745 23.5524C29.8301 23.3573 29.8847 23.1582 29.9358 22.9547C29.9612 22.8529 29.9861 22.7502 30.0074 22.6462C30.0181 22.5942 30.0274 22.5422 30.0341 22.4898C30.0363 22.4644 30.0376 22.4369 30.0341 22.4209C30.0247 22.4027 30.0056 22.384 29.9869 22.3671C29.9087 22.3018 29.8083 22.2538 29.7069 22.2444C29.6567 22.2404 29.6052 22.2498 29.5661 22.2791C29.5278 22.3067 29.5016 22.3569 29.4692 22.4027C29.3447 22.5862 29.2185 22.7716 29.0914 22.9596L29.0465 23.0258L29.0523 22.9453C29.0745 22.6449 29.0989 22.312 29.1234 21.9738L29.1238 21.968L29.1274 21.9627C29.1927 21.8618 29.2518 21.7529 29.2927 21.6387C29.3123 21.5818 29.3278 21.5218 29.3269 21.464C29.3269 21.4067 29.2989 21.3551 29.2581 21.312C29.1758 21.2267 29.0589 21.172 28.9403 21.156C28.8234 21.1391 28.6901 21.1733 28.6274 21.2791C28.5585 21.3822 28.5052 21.5009 28.4549 21.6191C28.4052 21.7382 28.3581 21.8596 28.3141 21.9831C28.2247 22.2289 28.1429 22.4809 28.0647 22.7356L28.0189 22.7262C28.0714 22.2329 28.1283 21.6982 28.1861 21.1556L28.1874 21.1444L28.1963 21.1382C28.3354 21.0396 28.4749 20.9409 28.6149 20.8413C28.6861 20.7964 28.7345 20.7307 28.7465 20.6502C28.7581 20.5716 28.7349 20.4862 28.6812 20.428C28.6278 20.3658 28.5492 20.3444 28.4638 20.3444C28.3785 20.3413 28.2927 20.3462 28.2074 20.3564C28.0376 20.3778 27.8656 20.4178 27.7149 20.4996C27.6407 20.5413 27.5723 20.5947 27.5376 20.6702C27.5012 20.7471 27.4732 20.8329 27.4461 20.9173C27.3923 21.0871 27.3443 21.2604 27.2981 21.4342C27.2056 21.7827 27.1189 22.1356 27.0358 22.4911L26.9989 22.6498L26.9869 22.4876C26.9558 22.0653 26.9225 21.6124 26.8887 21.1569C26.8443 20.5507 26.7998 19.9502 26.7563 19.3564L26.7589 19.3662C26.7043 19.2689 26.6367 19.1711 26.5505 19.1058C26.4665 19.0338 26.3496 19.068 26.2518 19.1138C26.1545 19.1627 26.0714 19.244 26.0349 19.3453C26.0158 19.396 26.0114 19.4489 26.0092 19.5076L25.9994 19.6791C25.9727 20.136 25.9465 20.5884 25.9207 21.0356C25.9092 21.2591 25.8914 21.4813 25.8856 21.7027C25.8834 21.924 25.8812 22.1444 25.8785 22.3631C25.8741 22.8009 25.8692 23.2329 25.8647 23.6591L25.8638 23.7222L25.8229 23.6742C25.5678 23.3742 25.3167 23.0791 25.0696 22.788L25.1101 22.772C25.1212 23.1653 25.1403 23.5533 25.1763 23.9329C25.1963 24.1218 25.2149 24.312 25.2647 24.4893C25.3225 24.664 25.4029 24.8333 25.4803 25C25.7981 25.6644 26.1318 26.2933 26.4536 26.8947L26.4563 26.9L26.4558 26.9058C26.2003 30.7302 26.0047 33.6622 25.9021 35.1973L25.9016 35.1938C26.0563 35.62 26.1718 35.9387 26.2487 36.1515C26.2865 36.2569 26.3149 36.3364 26.3341 36.3902C26.3527 36.4431 26.3612 36.4698 26.3612 36.4698C26.3612 36.4698 26.3501 36.444 26.3301 36.3916C26.3101 36.3382 26.2803 36.2596 26.2407 36.1547C26.1621 35.9422 26.0438 35.6249 25.8861 35.1996L25.8856 35.1978V35.196C25.9838 33.6609 26.1709 30.7284 26.4154 26.9027L26.4181 26.9138C26.0949 26.3124 25.7607 25.6844 25.4412 25.0187C25.3629 24.8511 25.2829 24.6836 25.2225 24.5018C25.1705 24.3173 25.1523 24.1276 25.1318 23.9369C25.0954 23.5556 25.0758 23.1671 25.0643 22.7724L25.0625 22.7067L25.1052 22.7564C25.3527 23.0471 25.6038 23.3422 25.8594 23.6422L25.8181 23.6573C25.8221 23.2311 25.8265 22.7987 25.8309 22.3609C25.8332 22.1418 25.8354 21.9218 25.8376 21.7C25.8429 21.4787 25.8612 21.256 25.8723 21.032C25.8981 20.5844 25.9243 20.1316 25.9505 19.6742L25.9603 19.5027C25.9625 19.4471 25.9674 19.3836 25.9892 19.3267C26.0314 19.2107 26.1243 19.1209 26.2305 19.0676C26.2838 19.0409 26.3416 19.0218 26.4016 19.0142C26.4305 19.0111 26.4647 19.0098 26.4963 19.0204C26.5278 19.0289 26.5545 19.0462 26.5798 19.0636C26.6772 19.1387 26.7438 19.2373 26.8029 19.3413L26.8052 19.3458L26.8056 19.3516C26.8492 19.9453 26.8936 20.5458 26.9385 21.152C26.9723 21.608 27.0056 22.0604 27.0363 22.4827L26.9874 22.4787C27.0705 22.1222 27.1572 21.7689 27.2501 21.42C27.2967 21.2453 27.3447 21.072 27.3989 20.9009C27.4265 20.8151 27.4541 20.7302 27.4936 20.6462C27.5341 20.5587 27.6132 20.4978 27.6914 20.4547C27.8518 20.3684 28.0274 20.3284 28.2016 20.3062C28.2892 20.296 28.3772 20.2911 28.4656 20.2942C28.5514 20.2924 28.6563 20.3191 28.7172 20.3938C28.7816 20.464 28.8083 20.5636 28.7945 20.6564C28.7865 20.7027 28.7701 20.7484 28.7425 20.7867C28.7158 20.8244 28.6776 20.8573 28.6425 20.88C28.5021 20.9791 28.3625 21.0782 28.2234 21.1764L28.2336 21.1591C28.1754 21.7018 28.1181 22.2364 28.0656 22.7293L28.0198 22.72C28.0981 22.464 28.1807 22.2124 28.2705 21.9653C28.3149 21.8418 28.3625 21.7196 28.4127 21.5996C28.4643 21.4796 28.5167 21.3609 28.5905 21.2507C28.6069 21.2227 28.6341 21.1969 28.6589 21.1747C28.6865 21.1542 28.7172 21.1387 28.7487 21.1267C28.8127 21.104 28.8812 21.1009 28.9461 21.1093C29.0758 21.1276 29.1989 21.1844 29.2909 21.28C29.3358 21.3267 29.3723 21.3929 29.3718 21.4622C29.3732 21.5298 29.3558 21.5933 29.3349 21.6533C29.2918 21.7733 29.2318 21.8831 29.1638 21.9876L29.1678 21.9764C29.1425 22.3142 29.1176 22.6471 29.0954 22.9476L29.0563 22.9333C29.1838 22.7462 29.3096 22.5609 29.4341 22.3778L29.4807 22.3093C29.4981 22.2867 29.5163 22.2604 29.5416 22.2436C29.5909 22.2067 29.6532 22.1964 29.7101 22.2009C29.8247 22.2124 29.9278 22.2627 30.0136 22.3338C30.0345 22.3533 30.0558 22.3716 30.0709 22.4018C30.0812 22.4382 30.0758 22.4653 30.0741 22.4929C30.0669 22.5476 30.0576 22.6004 30.0465 22.6529C30.0252 22.7578 29.9998 22.8609 29.9741 22.9631C29.9225 23.1671 29.8674 23.3662 29.8114 23.5618L29.8118 23.5587C29.6514 24.8556 29.5052 26.0356 29.3763 27.0751V27.0729C29.4158 28.6591 29.4474 29.9249 29.4692 30.7951C29.4789 31.2293 29.4865 31.5644 29.4918 31.792C29.4941 31.9049 29.4954 31.9907 29.4967 32.0498C29.4981 32.1098 29.4976 32.1396 29.4976 32.1396Z" fill="#D6AA9C"/>
<path d="M25.8955 25.4325C25.8888 25.4329 25.8786 25.3014 25.8684 25.0885C25.8582 24.8756 25.847 24.5818 25.8382 24.2569C25.8293 23.932 25.8239 23.6378 25.8226 23.4249C25.8213 23.212 25.8239 23.08 25.8306 23.08C25.8373 23.08 25.8475 23.2116 25.8577 23.424C25.8679 23.6369 25.879 23.9307 25.8879 24.2556C25.8968 24.58 25.9022 24.8742 25.9035 25.0871C25.9048 25.3 25.9022 25.4325 25.8955 25.4325Z" fill="#E3956B"/>
<path d="M30.6405 22.0342C30.6419 22.0369 30.6099 22.0573 30.5472 22.0858C30.4845 22.1138 30.3908 22.1489 30.2699 22.1738C30.149 22.1978 30.0023 22.212 29.8379 22.1929C29.7965 22.1862 29.7521 22.1751 29.7125 22.1462C29.6717 22.1187 29.6472 22.0649 29.645 22.0173C29.6419 21.924 29.6432 21.8351 29.6552 21.7378C29.6677 21.6422 29.6988 21.5476 29.7565 21.4729C29.8117 21.3973 29.8992 21.3471 29.9845 21.3391C30.1534 21.3258 30.2961 21.364 30.4139 21.4013C30.5308 21.4413 30.6188 21.4902 30.6765 21.5276C30.7343 21.5653 30.7628 21.5907 30.761 21.5933C30.7561 21.6022 30.6343 21.5067 30.4037 21.4356C30.2899 21.4036 30.1441 21.3707 29.9912 21.3853C29.9157 21.3942 29.8454 21.436 29.7961 21.5031C29.7459 21.5693 29.7174 21.6547 29.7054 21.7449C29.6939 21.8342 29.6925 21.9293 29.6948 22.0129C29.6952 22.0969 29.7708 22.1364 29.8463 22.1471C30.0014 22.1676 30.1472 22.1582 30.265 22.1391C30.5019 22.0978 30.637 22.0249 30.6405 22.0342Z" fill="#423A33"/>
<path d="M41.6054 24.1462C41.6054 24.152 41.5067 24.16 41.3467 24.1502C41.1872 24.1409 40.9667 24.1093 40.7312 24.0413C40.4961 23.9724 40.2925 23.8804 40.1525 23.8027C40.0121 23.7249 39.9325 23.6649 39.9356 23.66C39.9396 23.6533 40.0254 23.7022 40.1685 23.7707C40.3112 23.8396 40.5134 23.9249 40.745 23.9924C40.9765 24.0596 41.1925 24.096 41.3499 24.1142C41.5072 24.1338 41.6054 24.1382 41.6054 24.1462Z" fill="#D6AA9C"/>
<path d="M33.9876 13.6444C33.7618 13.6444 33.5383 13.5653 33.4392 13.3653C33.3587 13.2031 33.3899 13.0124 33.4263 12.8644C33.4792 12.6475 33.6454 12.076 33.9907 11.7293C33.6516 11.8675 33.2947 12.2449 33.1556 12.4893C33.1458 12.5062 33.1245 12.5124 33.1076 12.5027C33.0907 12.4929 33.085 12.4715 33.0943 12.4547C33.233 12.2107 33.6707 11.7155 34.101 11.6209C34.1076 11.6195 34.1147 11.6178 34.1214 11.6169C34.2298 11.5373 34.3534 11.4804 34.4925 11.4591C34.7147 11.4253 34.9378 11.508 35.061 11.6698C35.1694 11.8124 35.1872 11.9898 35.1614 12.148C35.2187 12.168 35.2627 12.1987 35.2952 12.2395C35.365 12.3289 35.3712 12.4578 35.3138 12.6235C35.1485 13.1 34.7258 13.4889 34.237 13.6133C34.1578 13.6333 34.0725 13.6444 33.9876 13.6444ZM34.149 11.6831C33.7427 11.9911 33.5516 12.648 33.4947 12.8809C33.4614 13.0173 33.4325 13.192 33.5027 13.3338C33.6218 13.5738 33.9574 13.6111 34.2192 13.5444C34.6854 13.4253 35.089 13.0547 35.2467 12.5995C35.2956 12.4578 35.2934 12.3511 35.2392 12.2822C35.217 12.2542 35.1863 12.2324 35.1467 12.2169C35.1365 12.2569 35.1241 12.2947 35.1098 12.3298C34.9561 12.704 34.4943 13.2542 34.0263 13.3133C34.0072 13.3155 33.9894 13.3022 33.9867 13.2827C33.9845 13.2635 33.9978 13.2458 34.0174 13.2431C34.4525 13.188 34.901 12.652 35.0445 12.3027C35.0578 12.2702 35.0694 12.2351 35.0787 12.1982C35.0454 12.192 35.0076 12.1889 34.9658 12.1884C34.8947 12.1875 34.8236 12.192 34.7525 12.2009C34.7596 12.5551 34.517 12.8951 34.1778 13.0009C34.065 13.036 33.9361 13.028 33.849 12.9804C33.7916 12.9493 33.7525 12.9018 33.7361 12.8431C33.705 12.7307 33.765 12.6058 33.9054 12.4902C34.125 12.3102 34.3961 12.1889 34.6778 12.1409C34.6596 11.9764 34.5823 11.8315 34.4667 11.7489C34.3778 11.6853 34.2707 11.6631 34.149 11.6831ZM34.6823 12.212C34.4152 12.2587 34.1587 12.3742 33.9503 12.5453C33.8823 12.6013 33.7725 12.7115 33.8041 12.8244C33.8152 12.8649 33.8418 12.8964 33.8827 12.9187C33.953 12.9569 34.0632 12.9627 34.157 12.9338C34.4587 12.8395 34.6832 12.5275 34.6823 12.212ZM34.269 11.6062C34.357 11.612 34.437 11.6404 34.5081 11.6915C34.6387 11.7853 34.7267 11.9471 34.7476 12.1302C34.8205 12.1209 34.8934 12.1164 34.9663 12.1178C35.0125 12.1182 35.0547 12.1222 35.0925 12.1293C35.1143 11.9898 35.0978 11.8351 35.0041 11.712C34.8965 11.5707 34.6996 11.4982 34.5027 11.5284C34.4192 11.5413 34.341 11.5684 34.269 11.6062Z" fill="#A67C77"/>
<path d="M25.5807 11.6258C25.5718 11.6258 25.5629 11.6222 25.5558 11.6156C25.542 11.6018 25.542 11.5796 25.5558 11.5658C25.6896 11.4311 25.6811 11.2702 25.6505 11.1591C25.6394 11.1191 25.6238 11.0795 25.6047 11.0413C25.3722 11.136 25.1007 11.1716 24.9082 11.1596C24.7114 11.1471 24.5829 11.0893 24.5474 10.9969C24.518 10.9209 24.5518 10.832 24.6474 10.7333C24.7869 10.5893 24.9691 10.5373 25.1602 10.5862C25.3482 10.6342 25.5265 10.776 25.6345 10.9511C25.774 10.8858 25.8905 10.7973 25.9514 10.6844C26.078 10.4493 26.0829 10.1569 25.9687 9.90222C25.8896 9.91244 25.8176 9.91688 25.7589 9.91511C25.3634 9.90488 24.9634 9.70222 24.87 9.52799C24.8371 9.46666 24.85 9.42266 24.8665 9.39644C24.9082 9.33022 25.0238 9.30133 25.2096 9.31022C25.5429 9.32622 25.8274 9.50088 25.9905 9.78933C25.9971 9.80133 26.0038 9.81377 26.01 9.82577C26.3611 9.77288 26.8349 9.60933 26.9976 9.33244C27.0762 9.19866 27.0696 9.05111 26.9771 8.89422C26.8487 8.67688 26.6087 8.67022 26.4776 8.68577C26.4274 8.69155 26.3776 8.70222 26.3291 8.71644C26.3518 8.77511 26.3687 8.83822 26.3789 8.90444C26.4056 9.07955 26.3451 9.38844 26.1896 9.47333C26.1309 9.50533 26.034 9.51999 25.9042 9.40666C25.7638 9.28355 25.766 9.15466 25.7931 9.06799C25.8429 8.90711 26.0189 8.75644 26.2331 8.67422C26.1362 8.48177 25.9638 8.34933 25.754 8.31733C25.7349 8.31422 25.7216 8.29644 25.7242 8.27688C25.7274 8.25777 25.7447 8.24488 25.7647 8.24711C26.0011 8.28311 26.194 8.43333 26.3002 8.65022C26.3549 8.63333 26.4118 8.62133 26.4691 8.61466C26.7251 8.58444 26.9274 8.67066 27.038 8.85733C27.1447 9.03822 27.1514 9.20977 27.0585 9.36755C26.8878 9.65733 26.406 9.83111 26.0407 9.89111C26.1554 10.1609 26.1469 10.4689 26.0131 10.7173C25.9447 10.8449 25.818 10.9422 25.6687 11.0129C25.6891 11.0542 25.706 11.0969 25.718 11.14C25.7682 11.3227 25.7287 11.4916 25.6056 11.6156C25.5989 11.6222 25.5896 11.6258 25.5807 11.6258ZM25.0207 10.6382C24.9207 10.6382 24.8056 10.6716 24.698 10.7822C24.6465 10.8356 24.59 10.9116 24.6131 10.9711C24.6376 11.0347 24.7496 11.0787 24.9127 11.0889C25.0998 11.1004 25.354 11.0649 25.5691 10.9787C25.4705 10.8227 25.3109 10.6973 25.1429 10.6542C25.1065 10.6449 25.0651 10.6382 25.0207 10.6382ZM25.1465 9.37866C24.9754 9.37866 24.9349 9.41999 24.926 9.43333C24.9167 9.44799 24.9189 9.46844 24.9322 9.49377C25.0047 9.62977 25.3634 9.83333 25.7607 9.84355C25.8105 9.84488 25.87 9.84177 25.9358 9.83466C25.9336 9.83066 25.9314 9.82711 25.9296 9.82311C25.7785 9.55599 25.5154 9.39466 25.2069 9.37999C25.1847 9.37911 25.1647 9.37866 25.1465 9.37866ZM26.262 8.73822C26.0665 8.81244 25.9038 8.94799 25.8602 9.08799C25.83 9.18488 25.8607 9.27422 25.9505 9.35288C26.03 9.42222 26.0989 9.44177 26.1554 9.41066C26.2776 9.34355 26.3318 9.06755 26.3087 8.91422C26.2994 8.85199 26.2838 8.79333 26.262 8.73822Z" fill="#A67C77"/>
<path d="M35.3293 24.2489C35.2461 24.2489 35.1608 24.2324 35.0746 24.1995C35.0564 24.1924 35.047 24.1724 35.0541 24.1538C35.0613 24.1355 35.0817 24.1262 35.0999 24.1333C35.2924 24.2067 35.4786 24.1889 35.6381 24.0818C35.8577 23.9347 36.0101 23.6262 36.0177 23.3151C36.0181 23.2893 36.0186 23.2618 36.0168 23.2329C35.9146 23.3138 35.779 23.3533 35.6177 23.3462C35.4848 23.3404 35.3746 23.2893 35.315 23.2062C35.2621 23.132 35.2506 23.064 35.2817 23.0035C35.3559 22.8582 35.6564 22.8244 35.7657 22.8235C35.7661 22.8235 35.767 22.8235 35.7679 22.8235C35.8746 22.8235 35.979 22.8947 36.0346 23.0058C36.0466 23.0298 36.0559 23.0542 36.0635 23.0791C36.079 23.056 36.0928 23.0307 36.1044 23.0035C36.1884 22.808 36.1568 22.5422 36.0381 22.3547C35.9493 22.5529 35.6106 22.648 35.4021 22.612C35.2457 22.5849 35.1661 22.4884 35.1893 22.3538C35.2061 22.256 35.283 22.1684 35.4013 22.1138C35.6173 22.0138 35.8221 22.0373 35.9821 22.1787C35.9608 22.0955 35.8981 22.0071 35.795 21.9151C35.5724 21.716 35.355 21.6204 35.1501 21.628C35.1306 21.6284 35.1141 21.6138 35.1133 21.5942C35.1124 21.5747 35.1275 21.5582 35.147 21.5573C35.3719 21.5467 35.6053 21.6507 35.8421 21.8622C35.9959 21.9995 36.0693 22.1338 36.0608 22.2622C36.2235 22.4711 36.2728 22.792 36.1697 23.0307C36.147 23.0835 36.1177 23.1302 36.083 23.1702C36.0897 23.2222 36.0901 23.2729 36.0893 23.3169C36.0813 23.6502 35.9159 23.9809 35.6781 24.1404C35.5697 24.2129 35.4524 24.2489 35.3293 24.2489ZM35.7675 22.8938C35.767 22.8938 35.7666 22.8938 35.7661 22.8938C35.6244 22.8947 35.3928 22.9404 35.3444 23.0355C35.3261 23.0711 35.3355 23.1138 35.3724 23.1653C35.4195 23.2311 35.5097 23.2715 35.6208 23.276C35.7813 23.2827 35.9146 23.2378 36.007 23.1471C35.9999 23.1093 35.9888 23.072 35.971 23.0373C35.935 22.9658 35.8581 22.8938 35.7675 22.8938ZM35.6559 22.124C35.5839 22.124 35.5079 22.1418 35.4301 22.1778C35.3844 22.1991 35.2764 22.2595 35.2581 22.3658C35.2377 22.4858 35.3315 22.528 35.4137 22.5422C35.6315 22.5795 35.9541 22.4595 35.9861 22.284C35.9755 22.2715 35.9644 22.26 35.9528 22.2484C35.8679 22.1662 35.7661 22.124 35.6559 22.124Z" fill="#A67C77"/>
<path d="M29.2251 19.8342C29.2278 19.8387 29.194 19.8676 29.1282 19.8938C29.0629 19.9205 28.9638 19.9391 28.8553 19.9258C28.7469 19.912 28.6553 19.8698 28.5984 19.828C28.5407 19.7862 28.5153 19.7502 28.5189 19.7467C28.5269 19.7356 28.6549 19.8582 28.8607 19.8813C29.066 19.9093 29.2202 19.8213 29.2251 19.8342Z" fill="#D6AA9C"/>
<path d="M29.2134 19.9929C29.2161 19.9973 29.1823 20.0262 29.1165 20.0525C29.0512 20.0791 28.9521 20.0978 28.8436 20.0845C28.7352 20.0707 28.6436 20.0285 28.5867 19.9867C28.5289 19.9449 28.5036 19.9089 28.5072 19.9053C28.5152 19.8942 28.6432 20.0169 28.8489 20.04C29.0543 20.068 29.2085 19.9805 29.2134 19.9929Z" fill="#D6AA9C"/>
<path d="M32.4475 19.5782C32.452 19.5809 32.4347 19.6218 32.3871 19.6747C32.3404 19.7275 32.26 19.7884 32.1569 19.8249C32.0538 19.8609 31.9529 19.8635 31.8835 19.852C31.8133 19.8404 31.7746 19.8195 31.7764 19.8147C31.7786 19.8013 31.948 19.8538 32.1427 19.7831C32.3382 19.7164 32.4373 19.5689 32.4475 19.5782Z" fill="#D6AA9C"/>
<path d="M32.5075 19.7258C32.512 19.7284 32.4946 19.7693 32.4471 19.8222C32.4004 19.8751 32.32 19.936 32.2169 19.9724C32.1137 20.0084 32.0129 20.0111 31.9435 19.9995C31.8733 19.988 31.8346 19.9671 31.836 19.9622C31.8382 19.9489 32.0075 20.0013 32.2022 19.9307C32.3982 19.864 32.4973 19.7164 32.5075 19.7258Z" fill="#D6AA9C"/>
<g opacity="0.4">
<path d="M32.195 19.4982C32.2293 19.4498 32.2955 19.4267 32.3524 19.444C32.4093 19.4613 32.4515 19.5173 32.4528 19.5764C32.5297 19.5555 32.6133 19.6067 32.6484 19.6787C32.6835 19.7502 32.6786 19.8355 32.6577 19.9129C32.6475 19.9502 32.6333 19.988 32.6057 20.0155C32.5781 20.0431 32.535 20.0578 32.4995 20.0422C32.4581 20.0244 32.4408 19.9733 32.4426 19.9284C32.4444 19.8831 32.4608 19.84 32.4661 19.7951C32.4715 19.7502 32.4621 19.6987 32.4253 19.6729C32.3941 19.6507 32.3528 19.6524 32.315 19.6484C32.2773 19.6444 32.2341 19.6275 32.2253 19.5902C32.0835 19.6511 31.9164 19.6484 31.7764 19.584C31.9777 19.504 32.1635 19.4244 32.195 19.4982Z" fill="white"/>
</g>
<g opacity="0.2">
<path d="M32.0966 22.6067C32.2712 22.0129 32.3406 21.3996 32.3908 20.7876C32.3939 20.7511 32.3975 20.7129 32.4192 20.6818C32.441 20.6502 32.4877 20.628 32.529 20.6404C32.5681 20.652 32.5837 20.7027 32.553 20.7231C32.6152 21.84 32.2601 23.024 31.5935 23.98C31.5015 24.112 31.3735 24.2556 31.1895 24.2573C31.637 23.7773 31.9219 23.2004 32.0966 22.6067Z" fill="white"/>
</g>
<g opacity="0.4">
<path d="M28.2148 19.268C28.2522 19.2431 28.3028 19.2467 28.3433 19.2658C28.3837 19.2849 28.4162 19.3173 28.4477 19.3489C28.4237 19.3133 28.4539 19.2604 28.4957 19.2507C28.5375 19.2409 28.5806 19.2635 28.6113 19.2933C28.6419 19.3231 28.6642 19.3609 28.693 19.3924C28.7508 19.4564 28.8362 19.4942 28.9224 19.4947L29.0308 19.5307C28.8793 19.6222 28.6722 19.6107 28.5322 19.5022C28.4837 19.5462 28.4157 19.5671 28.3508 19.5578C28.2864 19.5484 28.2268 19.5089 28.193 19.4529C28.1579 19.3942 28.1579 19.3062 28.2148 19.268Z" fill="white"/>
</g>
<g opacity="0.4">
<path d="M32.5605 20.1827L32.5894 20.1956C32.6311 20.2169 32.6507 20.2733 32.6316 20.316C32.6129 20.3591 32.5583 20.3822 32.5143 20.3667C32.4698 20.3511 32.4423 20.2991 32.4538 20.2538C32.4649 20.2084 32.5138 20.1756 32.5605 20.1827Z" fill="white"/>
</g>
<path d="M30.1301 16.696C30.1332 16.6933 30.1594 16.7205 30.1772 16.7769C30.195 16.832 30.199 16.92 30.1563 17.0018C30.1132 17.0836 30.0385 17.1302 29.983 17.1471C29.9265 17.1649 29.8897 17.1587 29.8897 17.1547C29.8892 17.1489 29.9243 17.1458 29.9737 17.1236C30.0225 17.1022 30.0861 17.0569 30.1239 16.9853C30.1612 16.9133 30.1621 16.8356 30.1519 16.7831C30.1425 16.7298 30.1252 16.6991 30.1301 16.696Z" fill="#D6AA9C"/>
<path d="M30.873 17.2022C30.8726 17.2062 30.8357 17.204 30.789 17.1711C30.7432 17.1396 30.6903 17.0698 30.6895 16.9791C30.6899 16.8884 30.7423 16.8182 30.7877 16.7862C30.8339 16.7524 30.8708 16.7507 30.8712 16.7542C30.873 16.76 30.841 16.7707 30.8037 16.8058C30.7668 16.8396 30.7255 16.9027 30.725 16.9787C30.7259 17.0547 30.7677 17.1178 30.8046 17.1511C30.8428 17.1862 30.8752 17.1969 30.873 17.2022Z" fill="#D6AA9C"/>
<path d="M37.6551 33.5187C37.6543 33.5173 37.6649 33.5067 37.6871 33.4867C37.7111 33.4658 37.7445 33.4373 37.7876 33.4009C37.8756 33.3253 38.0098 33.2196 38.1769 33.0765C38.5134 32.7929 38.9934 32.3742 39.5551 31.824C40.116 31.2733 40.7516 30.584 41.3903 29.764C41.5498 29.5591 41.7098 29.3462 41.8694 29.1258C42.0303 28.9049 42.1925 28.6827 42.3258 28.436C42.5943 27.944 42.7934 27.3889 42.9027 26.8045C42.9538 26.5116 42.9783 26.2173 42.9636 25.9298C42.9494 25.6422 42.8943 25.3618 42.7805 25.1089C42.5569 24.5982 42.1774 24.1845 41.7307 23.932C41.288 23.6702 40.8063 23.5405 40.3556 23.4569C39.9018 23.3778 39.4725 23.3413 39.0805 23.3151C38.688 23.2902 38.3316 23.276 38.0191 23.2409C37.7067 23.208 37.4405 23.1565 37.2267 23.0991C37.0134 23.0418 36.8507 22.9862 36.7423 22.9449C36.6898 22.924 36.6494 22.9076 36.6196 22.8956C36.592 22.884 36.5783 22.8773 36.5791 22.8756C36.5796 22.8738 36.5947 22.8773 36.6231 22.8862C36.6534 22.896 36.6951 22.9089 36.7489 22.9262C36.8591 22.9613 37.0227 23.0111 37.236 23.0622C37.4494 23.1133 37.7143 23.1591 38.0245 23.1867C38.3347 23.216 38.6903 23.2253 39.084 23.2462C39.4778 23.268 39.9094 23.3005 40.3689 23.3769C40.8258 23.4582 41.3178 23.5867 41.7756 23.8542C42.2374 24.1116 42.6356 24.5422 42.8676 25.0698C42.9871 25.3342 43.0449 25.6285 43.06 25.9245C43.0751 26.2213 43.0503 26.5222 42.9983 26.8213C42.8867 27.4178 42.684 27.9805 42.4089 28.4818C42.272 28.7338 42.1045 28.9618 41.944 29.1805C41.7831 29.4009 41.6214 29.6138 41.4605 29.8191C40.8156 30.6396 40.1716 31.3267 39.6027 31.8729C39.0334 32.4187 38.5449 32.8302 38.2005 33.1053C38.0294 33.244 37.8911 33.3453 37.7991 33.416C37.7538 33.4493 37.7187 33.4756 37.6929 33.4942C37.6689 33.5116 37.656 33.52 37.6551 33.5187Z" fill="white"/>
<path d="M34.2205 36.0449C34.2213 36.0462 34.2049 36.0551 34.1725 36.0698C34.1378 36.0849 34.0898 36.1067 34.0271 36.1342C33.9622 36.1618 33.8827 36.196 33.7889 36.2356C33.692 36.2698 33.5809 36.3089 33.4556 36.3525C33.2031 36.436 32.8885 36.5209 32.5182 36.5969C32.1467 36.6631 31.72 36.7298 31.2449 36.7538C30.7702 36.7813 30.2485 36.7827 29.6902 36.7547C29.132 36.7271 28.5373 36.6716 27.9142 36.6C27.2911 36.528 26.6378 36.4462 25.9613 36.3565C25.2849 36.2676 24.5849 36.1733 23.8667 36.0965C22.4311 35.9382 21.0471 35.8907 19.8076 36.0578C19.4973 36.0916 19.2018 36.1587 18.9338 36.2756C18.8005 36.3338 18.6738 36.4027 18.5622 36.4871C18.452 36.5725 18.3569 36.6738 18.2925 36.7898C18.2276 36.9053 18.1969 37.0347 18.1973 37.1631C18.2 37.2911 18.2369 37.4147 18.2929 37.5262C18.4085 37.7493 18.5858 37.9262 18.7622 38.0796C19.1169 38.3902 19.4813 38.6178 19.812 38.7938C20.144 38.968 20.4458 39.0871 20.6965 39.1702C20.9476 39.2529 21.148 39.2996 21.284 39.3293C21.3511 39.3427 21.4027 39.3529 21.4396 39.3605C21.4747 39.3676 21.4925 39.3725 21.492 39.3742C21.4916 39.376 21.4733 39.3747 21.4378 39.3707C21.4022 39.3662 21.3489 39.3605 21.28 39.3493C21.1422 39.3258 20.9391 39.2849 20.6845 39.2071C20.4302 39.1289 20.124 39.0142 19.7862 38.8431C19.4502 38.6702 19.0791 38.444 18.7165 38.1325C18.5356 37.9782 18.3507 37.7987 18.2249 37.5609C18.1636 37.4422 18.1222 37.3071 18.1182 37.1653C18.1165 37.0245 18.1498 36.8791 18.2209 36.7511C18.2911 36.6227 18.3938 36.5125 18.5107 36.4213C18.6289 36.3311 18.7605 36.2582 18.8987 36.1973C19.1751 36.0747 19.4827 36.0045 19.7951 35.9689C21.0445 35.7956 22.4373 35.8405 23.8765 35.9996C24.5969 36.0765 25.2973 36.1716 25.9733 36.2618C26.6493 36.3529 27.3018 36.4369 27.924 36.5111C28.5462 36.5849 29.1382 36.6436 29.6938 36.6742C30.2493 36.7053 30.768 36.7085 31.24 36.6853C31.7129 36.6662 32.1369 36.6045 32.5071 36.544C32.876 36.4733 33.1902 36.3947 33.4431 36.3169C33.5689 36.2765 33.6805 36.2405 33.7778 36.2089C33.8725 36.1725 33.9529 36.1418 34.0187 36.1165C34.0827 36.0925 34.132 36.0742 34.1676 36.0609C34.2022 36.0485 34.22 36.0431 34.2205 36.0449Z" fill="white"/>
<path d="M39.5055 27.1084C39.505 27.108 39.5099 27.1027 39.5201 27.0929C39.5317 27.0827 39.5468 27.0689 39.5673 27.0507C39.6086 27.0129 39.6704 26.9578 39.7481 26.8818C39.9028 26.7298 40.133 26.5031 40.3793 26.1724C40.5019 26.0076 40.6179 25.808 40.6784 25.5658C40.7388 25.3267 40.7526 25.0453 40.6504 24.7751C40.5384 24.5133 40.3433 24.2516 40.065 24.0818C39.9259 23.9969 39.7677 23.9351 39.5988 23.9C39.4295 23.8653 39.2508 23.8547 39.0681 23.8622C38.3335 23.9084 37.5326 24.0475 36.7006 24.2933C35.8677 24.536 35.005 24.8862 34.1308 25.32C33.2566 25.7542 32.3673 26.2684 31.4748 26.8458C30.5801 27.4209 29.6846 28.0631 28.7579 28.7089C27.8317 29.356 26.9135 29.9707 25.9939 30.512C25.0713 31.0471 24.149 31.5147 23.2268 31.8533C22.9953 31.9351 22.769 32.0218 22.5384 32.0875C22.4241 32.1227 22.3104 32.1573 22.1975 32.1916C22.0833 32.2204 21.9695 32.2493 21.8566 32.2778C21.4073 32.3987 20.9557 32.4676 20.5175 32.4809C20.2984 32.4858 20.0819 32.4804 19.8713 32.4511C19.7655 32.4409 19.6628 32.4173 19.5601 32.3982C19.509 32.3871 19.4593 32.3716 19.4095 32.3587C19.3593 32.3458 19.3099 32.332 19.2619 32.3129C19.0659 32.2515 18.8881 32.1529 18.7219 32.0484C18.645 31.9871 18.561 31.9351 18.4948 31.8649C18.4601 31.8316 18.4255 31.7982 18.3913 31.7653C18.361 31.7284 18.3308 31.692 18.3006 31.6556C18.061 31.3622 17.9393 31.0098 17.8957 30.6764C17.8557 30.3404 17.8855 30.0182 17.9624 29.7316C18.0366 29.444 18.1584 29.1907 18.2979 28.9795C18.4361 28.7667 18.5837 28.588 18.7237 28.4347C19.005 28.1289 19.2535 27.9222 19.4237 27.7862C19.5095 27.7187 19.5761 27.6689 19.6219 27.6369C19.6441 27.6213 19.6615 27.6093 19.6739 27.6009C19.6859 27.5929 19.6917 27.5893 19.6926 27.5902C19.693 27.5911 19.6877 27.596 19.677 27.6049C19.665 27.6147 19.649 27.6276 19.6281 27.6449C19.5846 27.6796 19.5201 27.732 19.4366 27.8018C19.2708 27.9422 19.0273 28.1529 18.7521 28.4604C18.6153 28.6147 18.4713 28.7938 18.3375 29.0049C18.2024 29.2151 18.0864 29.4631 18.0157 29.7458C17.9428 30.0271 17.9166 30.3422 17.9579 30.6689C18.0028 30.9933 18.1233 31.3324 18.3553 31.6129C18.3841 31.6475 18.4135 31.6827 18.4428 31.7182C18.4761 31.7498 18.5095 31.7818 18.5433 31.8138C18.6073 31.8813 18.689 31.9307 18.7633 31.9898C18.9246 32.0898 19.0966 32.184 19.2873 32.2427C19.3335 32.2609 19.3819 32.2742 19.4308 32.2862C19.4797 32.2987 19.5281 32.3138 19.5775 32.324C19.6775 32.3422 19.7779 32.3649 19.8815 32.3742C20.0873 32.4018 20.2997 32.4062 20.5153 32.4004C20.9468 32.3858 21.3904 32.3164 21.8361 32.1951C21.9481 32.1662 22.0606 32.1373 22.1739 32.1084C22.2859 32.0738 22.3988 32.0391 22.5121 32.004C22.7406 31.9382 22.9655 31.8516 23.1953 31.7698C24.1104 31.4311 25.0273 30.9644 25.9455 30.4302C26.861 29.8898 27.7766 29.276 28.7019 28.6298C29.6277 27.9844 30.525 27.3418 31.4228 26.7662C32.3184 26.188 33.2117 25.6738 34.0908 25.24C34.9699 24.8062 35.8384 24.4569 36.6779 24.216C37.5166 23.9724 38.3228 23.836 39.0655 23.7938C39.2526 23.7871 39.437 23.7991 39.6121 23.8364C39.7873 23.8742 39.9526 23.9395 40.0975 24.0298C40.3886 24.2115 40.5859 24.4804 40.7015 24.7569C40.8064 25.0418 40.7881 25.3333 40.7233 25.5787C40.6584 25.8267 40.5357 26.0315 40.4095 26.196C40.1561 26.5267 39.921 26.7489 39.7615 26.8969C39.681 26.9707 39.6166 27.0236 39.5735 27.0591C39.5521 27.0756 39.5353 27.0884 39.5233 27.0978C39.5121 27.1053 39.5059 27.1093 39.5055 27.1084Z" fill="white"/>
</g>
</g>
<defs>
<clipPath id="clip0_1141_49264">
<rect width="48" height="48" rx="24" fill="white"/>
</clipPath>
<clipPath id="clip1_1141_49264">
<rect width="48" height="48" fill="white"/>
</clipPath>
</defs>
</svg>
