<svg width="48" height="48" viewBox="0 0 48 48" fill="none" xmlns="http://www.w3.org/2000/svg">
<g clip-path="url(#clip0_1141_49267)">
<rect width="48" height="48" rx="24" fill="white"/>
<g clip-path="url(#clip1_1141_49267)">
<path d="M32.5103 13.0969C32.5997 12.4471 31.6828 11.9129 30.9939 11.8573C30.6655 11.8307 30.3241 11.8809 30.0126 11.7725C29.3379 11.5373 29.0686 10.6662 28.4108 10.3885C27.9188 10.1809 27.3526 10.3658 26.8752 10.6058C26.3983 10.8458 25.9268 11.148 25.3939 11.1822C24.9303 11.212 24.4272 11.04 24.0215 11.2662C23.7192 11.4351 23.561 11.7831 23.2823 11.9885C23.0099 12.1893 22.6543 12.232 22.3161 12.2502C21.9779 12.2685 21.6281 12.272 21.3201 12.4129C21.0121 12.5538 20.7575 12.8796 20.8215 13.212L32.5103 13.0969Z" fill="#FBFBFB"/>
<g opacity="0.42">
<path d="M13.1321 9.80668C13.1681 9.54623 12.8005 9.33201 12.5241 9.30979C12.3925 9.29912 12.2556 9.31912 12.1307 9.27601C11.8605 9.18179 11.7525 8.83245 11.4885 8.72134C11.2912 8.63823 11.0641 8.71201 10.8729 8.80845C10.6818 8.9049 10.4929 9.02579 10.2792 9.03957C10.0934 9.05157 9.89161 8.98268 9.72895 9.07334C9.60761 9.1409 9.5445 9.28045 9.4325 9.36312C9.32317 9.44357 9.18095 9.4609 9.04539 9.46801C8.90984 9.47557 8.76939 9.4769 8.64628 9.53334C8.52273 9.58979 8.42095 9.72046 8.44628 9.85379L13.1321 9.80668Z" fill="#BF9892"/>
</g>
<g opacity="0.42">
<path d="M51.2531 14.1413C51.2891 13.8809 50.9212 13.6667 50.6452 13.6444C50.5136 13.6338 50.3767 13.6538 50.2518 13.6107C49.9816 13.5164 49.8736 13.1671 49.6096 13.056C49.4123 12.9729 49.1852 13.0467 48.994 13.1431C48.8029 13.2396 48.614 13.3604 48.4003 13.3742C48.2145 13.3862 48.0127 13.3173 47.85 13.408C47.7287 13.4756 47.6656 13.6151 47.5536 13.6978C47.4443 13.7782 47.302 13.7956 47.1665 13.8027C47.0309 13.8102 46.8905 13.8116 46.7674 13.868C46.6438 13.9244 46.542 14.0551 46.5674 14.1884L51.2531 14.1413Z" fill="#BF9892"/>
</g>
<g opacity="0.42">
<path d="M49.0239 7.484C49.1524 6.55111 47.8359 5.78355 46.8466 5.704C46.375 5.66577 45.8848 5.73822 45.4377 5.58222C44.4693 5.24489 44.0826 3.99378 43.1377 3.59511C42.4315 3.29733 41.6182 3.56222 40.9333 3.90711C40.2484 4.252 39.5715 4.68533 38.8066 4.73466C38.1413 4.77733 37.4186 4.53066 36.8359 4.85555C36.4022 5.09778 36.1746 5.59777 35.775 5.89289C35.3839 6.18133 34.8733 6.24266 34.3879 6.26889C33.9026 6.29511 33.3999 6.3 32.9577 6.50266C32.5155 6.70489 32.1502 7.17244 32.2417 7.64977L49.0239 7.484Z" fill="#BF9892"/>
</g>
<g opacity="0.42">
<path d="M15.9795 18.0178C16.0991 17.1493 14.8733 16.4351 13.9524 16.3609C13.5133 16.3253 13.0569 16.3924 12.6409 16.2476C11.7395 15.9333 11.3791 14.7689 10.4995 14.3978C9.84176 14.1204 9.08487 14.3671 8.44709 14.688C7.80976 15.0089 7.17954 15.4129 6.46709 15.4582C5.84754 15.4978 5.17465 15.268 4.63287 15.5707C4.22887 15.796 4.01731 16.2618 3.64487 16.5364C3.28043 16.8049 2.80531 16.8618 2.35376 16.8867C1.90176 16.9111 1.43376 16.916 1.02265 17.1044C0.611093 17.2929 0.270648 17.728 0.355981 18.1724L15.9795 18.0178Z" fill="#BF9892"/>
</g>
<path d="M31.0976 49.4804C31.0976 49.4804 32.2389 42.6258 31.3829 38.5222L18.0981 38.64C18.0981 38.64 16.1621 46.2582 17.0745 49.528L31.0976 49.4804Z" fill="#533A3A"/>
<path d="M26.0221 19.2258C25.9665 16.3702 25.9105 13.5102 25.6074 10.6702L28.167 12.6C28.811 14.2969 28.1505 15.9542 28.7892 17.6533C29.1216 18.5382 29.7728 19.324 29.8456 20.2662C29.9039 21.0191 29.5781 21.7618 29.6341 22.5147C29.691 23.2796 30.1385 24.004 30.0448 24.7649C29.9754 25.3276 29.6203 25.808 29.2772 26.2596C29.1412 26.4387 28.9896 26.6289 28.7732 26.6902C28.6052 26.7378 28.4261 26.6991 28.2572 26.6564C27.8505 26.5533 27.4496 26.4262 27.0576 26.2764C26.7514 26.1596 26.4408 26.0218 26.219 25.7796C25.7328 25.2484 25.8296 24.4284 25.911 23.7129C26.0803 22.2253 26.0514 20.7227 26.0221 19.2258Z" fill="#3C2621"/>
<path d="M15.0844 32.6227C15.1067 31.9107 15.6436 25.0227 15.7391 24.3996C15.9582 22.9658 17.0276 22.3138 17.1582 22.2631L19.16 21.4773C21.4031 20.8529 28.8489 21.3342 28.8489 21.3342L30.0787 32.5542C30.0787 32.5542 31.5227 37.1609 31.5236 38.0729C31.5244 38.9849 31.7693 41.5209 31.7693 41.5209C31.7693 41.5209 27.7013 43.056 24.7636 42.8778C21.8253 42.7 17.376 41.6764 17.376 41.6764L18.0164 37.6053C18.0164 37.6053 17.5982 36.9378 17.8209 36.4262C17.8867 36.2751 17.9582 36.1191 18.0293 36.008C17.4982 35.96 16.8231 35.6924 16.3387 35.2929C15.028 34.212 15.0622 33.3342 15.0844 32.6227Z" fill="#AA827E"/>
<g opacity="0.3">
<path d="M30.9546 35.3569C30.1506 35.9938 29.1386 36.4169 28.1155 36.3462C27.6448 36.3138 27.1844 36.1791 26.7128 36.1662C25.9702 36.1453 25.2577 36.4245 24.5422 36.624C22.3817 37.2258 19.9808 37.0871 17.8955 36.2622L18.0346 36.0036C19.2262 36.2276 20.0711 35.8542 20.0711 35.8542C23.2742 35.3387 25.1964 34.6449 28.4404 34.7133C29.2915 34.7311 30.176 34.7969 30.9173 35.2156" fill="#040000"/>
</g>
<path d="M16.8732 34.1427C16.8687 34.1418 16.8776 34.0933 16.8976 34.0067C16.907 33.9631 16.9203 33.9102 16.9407 33.8507C16.9607 33.7907 16.9803 33.7213 17.0123 33.6484C17.0692 33.4996 17.1536 33.3289 17.2621 33.1484C17.3741 32.9698 17.5119 32.7822 17.6772 32.6036C17.8447 32.4267 18.0225 32.2764 18.1932 32.1524C18.3661 32.032 18.531 31.936 18.6754 31.8693C18.7461 31.8324 18.8141 31.8084 18.8723 31.7844C18.9305 31.76 18.9821 31.7431 19.0252 31.7307C19.1101 31.7049 19.1576 31.6929 19.159 31.6969C19.163 31.7089 18.975 31.7667 18.6959 31.9107C18.5559 31.9818 18.3963 32.08 18.2283 32.2013C18.0625 32.3253 17.8892 32.4742 17.7247 32.648C17.5625 32.8236 17.4256 33.0067 17.3127 33.1804C17.2034 33.3564 17.1159 33.5218 17.0541 33.6662C16.9301 33.9547 16.8856 34.1462 16.8732 34.1427Z" fill="#623F3F"/>
<path d="M16.2805 32.5542C16.2774 32.5507 16.3076 32.5209 16.3649 32.4698C16.4214 32.4178 16.5094 32.3493 16.6223 32.2711C16.8476 32.1142 17.1863 31.9316 17.5894 31.8093C17.9929 31.6884 18.376 31.6533 18.6507 31.6596C18.788 31.6622 18.8992 31.6711 18.9747 31.6831C19.0507 31.6942 19.092 31.7022 19.0916 31.7067C19.0903 31.7182 18.9218 31.6996 18.6507 31.7058C18.3796 31.7116 18.0049 31.7533 17.6085 31.872C17.2125 31.992 16.8769 32.1644 16.648 32.3098C16.4183 32.4547 16.288 32.5631 16.2805 32.5542Z" fill="#623F3F"/>
<path d="M19.0445 29.0387C19.049 29.0387 19.053 29.1067 19.0561 29.2289C19.0579 29.3636 19.0601 29.5382 19.0627 29.748C19.0632 29.9711 19.0636 30.2311 19.0641 30.5178C19.0636 30.6631 19.0632 30.8151 19.0627 30.9724C19.0645 31.1298 19.0538 31.2951 19.0707 31.456C19.0885 31.6169 19.1525 31.7676 19.2956 31.8293C19.4307 31.9013 19.5756 31.9484 19.7125 31.9933C19.985 32.0827 20.2316 32.164 20.4441 32.2338C20.6427 32.3013 20.8081 32.3578 20.9352 32.4013C21.0507 32.4422 21.1138 32.4671 21.1125 32.4716C21.1112 32.476 21.0454 32.4596 20.9272 32.4258C20.7979 32.3876 20.6307 32.3378 20.4294 32.2782C20.2161 32.2124 19.9676 32.1356 19.6939 32.0511C19.5552 32.0076 19.4085 31.9613 19.2645 31.8862C19.2285 31.8667 19.193 31.8458 19.1592 31.8164C19.1245 31.7849 19.1005 31.7507 19.0787 31.712C19.0361 31.6356 19.0152 31.5493 19.005 31.464C18.9872 31.292 18.9992 31.1298 18.9979 30.972C18.9996 30.8147 19.0014 30.6627 19.0032 30.5173C19.0081 30.2307 19.0125 29.9707 19.0161 29.7476C19.0219 29.5378 19.0267 29.3631 19.0303 29.2284C19.0352 29.1062 19.0401 29.0387 19.0445 29.0387Z" fill="#623F3F"/>
<path d="M15.4774 26.7818C15.4787 26.7818 15.4787 26.7933 15.4783 26.8151C15.4774 26.8409 15.4761 26.8729 15.4743 26.9124C15.469 27.0031 15.4619 27.1275 15.4525 27.2858C15.4303 27.6151 15.3987 28.0822 15.3596 28.6578C15.3179 29.2387 15.2685 29.9275 15.2139 30.692C15.1859 31.0751 15.1561 31.4769 15.1254 31.8929C15.1103 32.1004 15.0952 32.312 15.0796 32.5267C15.073 32.7404 15.0747 32.9582 15.1045 33.1755C15.1605 33.5862 15.2867 33.9947 15.525 34.2991L15.5281 34.3031L15.5285 34.304C15.909 34.9324 16.4383 35.4098 16.9947 35.6818C17.5507 35.9595 18.1099 36.048 18.5685 36.0609C19.0299 36.0738 19.3983 36.0182 19.6476 35.9698C19.7725 35.9449 19.8681 35.9213 19.9325 35.9049C19.9619 35.8973 19.9859 35.8911 20.0059 35.8858C20.0223 35.8813 20.0307 35.8795 20.0312 35.8804C20.0316 35.8813 20.0236 35.8853 20.0076 35.8915C19.9916 35.8978 19.9676 35.9062 19.9361 35.9164C19.8725 35.9369 19.7774 35.964 19.6525 35.9924C19.4036 36.048 19.0339 36.1107 18.5681 36.1035C18.105 36.096 17.5374 36.012 16.9703 35.7329C16.4027 35.4595 15.861 34.9747 15.4743 34.3382L15.4779 34.3431C15.2223 34.0173 15.0992 33.6058 15.0401 33.1844C15.0099 32.9627 15.0081 32.7413 15.0152 32.524C15.0312 32.3084 15.0467 32.096 15.0619 31.8871C15.0939 31.4711 15.1245 31.0693 15.1543 30.6867C15.2143 29.9227 15.2685 29.2342 15.3143 28.6542C15.3619 28.0795 15.4005 27.6129 15.4281 27.284C15.4427 27.1262 15.4539 27.0018 15.4623 26.9115C15.4667 26.8724 15.4699 26.8404 15.473 26.8147C15.4743 26.7929 15.4761 26.7818 15.4774 26.7818Z" fill="#623F3F"/>
<path d="M17.8516 37.4925C17.8525 37.4902 17.8778 37.5005 17.9249 37.5209C17.9783 37.5453 18.0458 37.576 18.1294 37.6142C18.3058 37.6973 18.5631 37.8142 18.8827 37.9533C19.5218 38.2325 20.4183 38.5876 21.4334 38.9062C22.4494 39.2236 23.3885 39.4427 24.0725 39.5778C24.4147 39.6458 24.692 39.6965 24.8845 39.7289C24.9747 39.7453 25.048 39.7587 25.1058 39.7689C25.1565 39.7787 25.1827 39.7849 25.1823 39.7871C25.1818 39.7893 25.1551 39.7876 25.104 39.7818C25.0458 39.7747 24.972 39.7653 24.8809 39.7542C24.6871 39.7298 24.4076 39.6858 24.064 39.6236C23.3765 39.5 22.4329 39.2871 21.4138 38.9689C20.396 38.6493 19.4991 38.2862 18.864 37.9956C18.5463 37.8507 18.2916 37.7276 18.1183 37.6369C18.0369 37.5942 17.9707 37.5596 17.9191 37.5325C17.8738 37.508 17.8507 37.4942 17.8516 37.4925Z" fill="#623F3F"/>
<path d="M19.0264 27.0467C19.0259 27.0444 19.0566 27.0347 19.1153 27.0182C19.1744 27.0022 19.2619 26.9809 19.3762 26.9596C19.6046 26.9165 19.9401 26.8782 20.3557 26.8707C20.7713 26.8622 21.2646 26.8756 21.8126 26.8818C22.3615 26.8907 22.9633 26.9009 23.5953 26.9111C24.857 26.9373 25.9988 26.9613 26.8344 26.9787C27.2433 26.9902 27.5766 27 27.8157 27.0067C27.9264 27.0111 28.0148 27.0147 28.0824 27.0178C28.1433 27.0209 28.1753 27.024 28.1753 27.0262C28.1753 27.0285 28.1433 27.0302 28.0819 27.0311C28.0144 27.0316 27.9259 27.032 27.8148 27.0324C27.5757 27.0307 27.2419 27.0284 26.833 27.0253C25.9975 27.0129 24.8557 26.996 23.5939 26.9769C22.9619 26.9644 22.3601 26.9529 21.8113 26.9422C21.2633 26.9324 20.7699 26.9142 20.3562 26.9169C19.9424 26.9182 19.6086 26.9493 19.3802 26.9845C19.2659 27.0018 19.1775 27.0187 19.1179 27.0307C19.0588 27.0431 19.0268 27.0489 19.0264 27.0467Z" fill="white"/>
<path d="M19.542 28.1818C19.542 28.1635 21.4242 28.1631 23.7451 28.1809C26.0669 28.1987 27.9487 28.2275 27.9482 28.2458C27.9482 28.264 26.0664 28.2644 23.7447 28.2467C21.4233 28.2289 19.5415 28.2 19.542 28.1818Z" fill="white"/>
<path d="M15.5938 26.1862C15.5924 26.1818 15.6387 26.1653 15.724 26.1391C15.8089 26.112 15.9338 26.08 16.0898 26.0475C16.4013 25.9822 16.8418 25.9275 17.3289 25.9413C17.8164 25.956 18.2529 26.036 18.56 26.1195C18.7138 26.1609 18.8369 26.2 18.92 26.232C19.0036 26.2631 19.0489 26.2822 19.0471 26.2867C19.0436 26.2973 18.8569 26.2355 18.5489 26.1649C18.2409 26.0938 17.8089 26.0222 17.3267 26.0075C16.8449 25.9942 16.4093 26.0404 16.0978 26.0938C15.7862 26.1462 15.5964 26.1973 15.5938 26.1862Z" fill="white"/>
<path d="M15.4375 27.1267C15.4362 27.1222 15.4829 27.1067 15.5686 27.0822C15.654 27.0569 15.7793 27.0275 15.9358 26.9982C16.2482 26.9387 16.6891 26.8929 17.1758 26.9151C17.6624 26.9387 18.0971 27.0253 18.4029 27.1138C18.5558 27.1578 18.678 27.1987 18.7606 27.232C18.8433 27.2644 18.8886 27.2844 18.8869 27.2884C18.8833 27.2991 18.6975 27.2347 18.3909 27.1587C18.0846 27.0827 17.654 27.004 17.1726 26.9809C16.6918 26.9591 16.2558 26.9969 15.9433 27.0444C15.6313 27.0907 15.4402 27.1373 15.4375 27.1267Z" fill="white"/>
<g opacity="0.3">
<path d="M17.9817 22.2222L21.403 25.0689C21.4866 25.528 21.6417 27.4831 21.7257 27.9422C21.7386 28.0138 21.7515 28.0898 21.7235 28.1569C21.6666 28.2942 21.4648 28.3142 21.3408 28.2329C21.2164 28.1516 21.1515 28.0071 21.0932 27.8702C20.9821 28.2058 21.1284 28.5649 21.2328 28.9027C21.3373 29.2405 21.3821 29.6569 21.1284 29.9036C20.9204 30.1058 20.591 30.1093 20.3048 30.0613C19.9537 30.0022 19.5999 29.8773 19.3488 29.6249C19.1284 29.4031 19.0066 29.1036 18.8995 28.8098C18.1328 26.7116 17.8177 24.4498 17.9817 22.2222Z" fill="#040000"/>
</g>
<g opacity="0.3">
<path d="M24.8746 22.5827C25.6751 23.9378 25.9222 25.5387 26.1533 27.0956C26.4271 28.9356 26.2289 30.8978 26.3284 32.7556C25.8426 32.6693 25.4986 32.2071 25.3786 31.7289C25.2582 31.2507 25.312 30.7485 25.3271 30.2556C25.4066 27.6853 24.424 25.1138 24.8746 22.5827Z" fill="#040000"/>
</g>
<path d="M28.8494 21.3342C30.1894 21.5845 32.2303 21.6351 32.1503 24.0796C32.069 26.5658 31.6272 30.8449 30.7774 32.2831C29.9277 33.7213 28.8819 34.4076 27.2801 33.5907C25.6788 32.7738 25.8748 30.2569 25.8748 30.2569L29.017 27.9036L28.5548 27.3151L28.8494 21.3342Z" fill="#AA827E"/>
<path d="M29.3321 33.7724C29.3325 33.7733 29.3232 33.7773 29.3045 33.7835C29.2823 33.7907 29.2548 33.7995 29.221 33.8102C29.1468 33.8307 29.0365 33.8613 28.8912 33.8849C28.6041 33.932 28.1583 33.9635 27.649 33.7831C27.1379 33.6133 26.6134 33.1862 26.2245 32.5827C26.1294 32.4302 26.0445 32.2635 25.989 32.08C25.9361 31.8987 25.8957 31.7098 25.8641 31.5151C25.8023 31.1262 25.781 30.7169 25.7739 30.2973L25.7734 30.28L25.7881 30.2702C26.0441 30.0951 26.313 29.9111 26.5868 29.724C27.5277 29.0827 28.4148 28.4782 29.1845 27.9538L29.2041 27.9404L29.221 27.9569C29.6254 28.3431 29.9801 28.7218 30.2383 29.1022C30.3694 29.2907 30.4708 29.4818 30.5543 29.6627C30.6334 29.8453 30.6943 30.0191 30.7321 30.1804C30.8125 30.5022 30.8263 30.764 30.8343 30.9409C30.8357 31.0298 30.8334 31.0978 30.833 31.1435C30.8321 31.1893 30.8308 31.2129 30.829 31.2129C30.8272 31.2129 30.8254 31.1893 30.8237 31.1435C30.8219 31.0933 30.8192 31.0262 30.8161 30.9418C30.8023 30.7658 30.7832 30.5062 30.6988 30.1893C30.6588 30.0307 30.5965 29.86 30.5161 29.6804C30.4312 29.5031 30.3299 29.3155 30.1983 29.1302C29.9397 28.7564 29.5854 28.3831 29.1805 28L29.2174 28.0031C28.449 28.5293 27.5632 29.136 26.6241 29.7795C26.3503 29.9662 26.081 30.1502 25.825 30.3249L25.8392 30.2973C25.8454 30.7155 25.8659 31.1218 25.9259 31.5067C25.9561 31.6987 25.9957 31.8858 26.0468 32.0644C26.0992 32.2404 26.181 32.4035 26.2734 32.5533C26.6534 33.1484 27.1645 33.572 27.6637 33.7435C28.1614 33.9262 28.6014 33.9027 28.8877 33.8627C29.0325 33.8427 29.1428 33.816 29.2179 33.7995C29.2525 33.7911 29.2801 33.7844 29.3028 33.7787C29.3219 33.7733 29.3321 33.7715 29.3321 33.7724Z" fill="#623F3F"/>
<path d="M28.4627 26.756C28.4444 26.7547 28.472 26.2498 28.524 25.6293C28.576 25.0084 28.6329 24.5067 28.6511 24.508C28.6693 24.5093 28.6418 25.0138 28.5898 25.6347C28.5373 26.2556 28.4804 26.7573 28.4627 26.756Z" fill="#623F3F"/>
<path d="M28.4688 26.3529C28.4683 26.3484 28.5181 26.3413 28.6074 26.3329C28.6972 26.324 28.8274 26.316 28.9883 26.3098C29.3101 26.2978 29.7563 26.3018 30.2465 26.3453C30.7368 26.3893 31.1768 26.4644 31.4914 26.5329C31.6488 26.5671 31.7754 26.5982 31.8621 26.6227C31.9488 26.6471 31.9963 26.6622 31.995 26.6667C31.9941 26.6711 31.9443 26.664 31.8563 26.6476C31.7541 26.6284 31.6292 26.6053 31.4825 26.5782C31.1665 26.5213 30.7283 26.4542 30.2408 26.4107C29.7532 26.3675 29.3101 26.356 28.9892 26.356C28.8399 26.3569 28.7132 26.3573 28.6088 26.3578C28.519 26.3595 28.4692 26.3578 28.4688 26.3529Z" fill="white"/>
<path d="M28.6973 27.3524C28.6973 27.348 28.7413 27.3449 28.8213 27.3427C28.9008 27.3404 29.0164 27.3409 29.1586 27.344C29.4435 27.3498 29.8364 27.3693 30.2693 27.4102C30.7022 27.4516 31.0919 27.5062 31.3728 27.5538C31.5133 27.5778 31.6266 27.5991 31.7044 27.616C31.7822 27.6329 31.8248 27.6444 31.8239 27.6489C31.8222 27.6582 31.6479 27.636 31.3657 27.6C31.0839 27.564 30.6942 27.5169 30.2626 27.476C29.831 27.4351 29.4399 27.4084 29.1564 27.3907C28.8728 27.3729 28.6973 27.3622 28.6973 27.3524Z" fill="white"/>
<path d="M31.2442 21.6147C31.2433 21.6111 31.2788 21.5978 31.3455 21.6004C31.4108 21.6031 31.5113 21.6236 31.6068 21.7009C31.7073 21.7751 31.7553 21.9231 31.8646 22.0058C31.8922 22.0249 31.9228 22.0364 31.9579 22.0378C31.9935 22.0404 32.0357 22.0338 32.0833 22.0422C32.1784 22.056 32.2579 22.1271 32.3042 22.2071C32.3522 22.288 32.3775 22.3747 32.3944 22.4582C32.4028 22.5009 32.4064 22.5404 32.4184 22.5724C32.4295 22.6044 32.4508 22.6276 32.4788 22.6493C32.5362 22.6884 32.6073 22.7316 32.6517 22.7871C32.6988 22.8409 32.7308 22.9004 32.7513 22.9564C32.793 23.0698 32.789 23.1702 32.7762 23.2347C32.7628 23.2996 32.7433 23.3316 32.7402 23.3302C32.7348 23.3284 32.7455 23.2942 32.7504 23.2311C32.7548 23.1689 32.7513 23.0756 32.7077 22.9733C32.6859 22.9227 32.6548 22.8698 32.6108 22.8231C32.5673 22.7738 32.5113 22.7427 32.4424 22.6973C32.4095 22.6742 32.3744 22.6382 32.3588 22.5938C32.3424 22.5507 32.3388 22.508 32.3304 22.4698C32.3139 22.3911 32.289 22.3107 32.2473 22.24C32.2055 22.1693 32.1442 22.1156 32.0722 22.1049C32.0375 22.0973 31.9975 22.1027 31.9535 22.0996C31.9086 22.0973 31.8637 22.08 31.8295 22.0542C31.7602 22.0022 31.7237 21.9347 31.6868 21.8787C31.6508 21.8209 31.6175 21.7711 31.5766 21.7351C31.4948 21.6613 31.4042 21.6347 31.3428 21.6249C31.2806 21.6156 31.2446 21.62 31.2442 21.6147Z" fill="#623F3F"/>
<path d="M31.5108 21.4213C31.5099 21.4178 31.545 21.4045 31.6121 21.4071C31.6774 21.4098 31.7779 21.4302 31.8734 21.5076C31.9739 21.5818 32.0219 21.7298 32.1312 21.8125C32.1588 21.8316 32.1894 21.8431 32.2245 21.8445C32.2601 21.8471 32.3023 21.8405 32.3494 21.8489C32.4445 21.8627 32.5241 21.9338 32.5703 22.0138C32.6183 22.0947 32.6436 22.1813 32.6605 22.2649C32.669 22.3076 32.6725 22.3471 32.6845 22.3791C32.6956 22.4111 32.717 22.4342 32.745 22.456C32.8023 22.4951 32.8734 22.5387 32.9179 22.5938C32.965 22.6476 32.997 22.7071 33.0174 22.7631C33.0592 22.8765 33.0552 22.9769 33.0423 23.0413C33.029 23.1062 33.0094 23.1382 33.0063 23.1369C33.001 23.1351 33.0116 23.1009 33.0165 23.0378C33.021 22.9756 33.0174 22.8822 32.9739 22.78C32.9521 22.7293 32.921 22.6765 32.877 22.6298C32.8334 22.5805 32.7774 22.5493 32.7085 22.504C32.6756 22.4809 32.6405 22.4449 32.625 22.4005C32.6085 22.3573 32.605 22.3147 32.5965 22.2765C32.5801 22.1982 32.5552 22.1173 32.5134 22.0467C32.4716 21.976 32.4103 21.9222 32.3383 21.9116C32.3036 21.904 32.2636 21.9093 32.2196 21.9062C32.1748 21.904 32.1299 21.8867 32.0956 21.8609C32.0263 21.8089 31.9899 21.7413 31.953 21.6853C31.917 21.6276 31.8836 21.5778 31.8428 21.5418C31.761 21.468 31.6703 21.4413 31.609 21.4316C31.5472 21.4227 31.5112 21.4271 31.5108 21.4213Z" fill="#623F3F"/>
<path d="M20.4895 10.2684C21.9126 9.05287 23.4108 9.59332 23.4108 9.59332C25.2748 8.98709 26.8815 10.2124 27.5388 11.2449L28.1664 12.6C27.0028 14.5111 24.7019 15.6791 22.5108 16.1307C21.8362 16.2698 21.1139 16.3187 20.4753 16.0595C19.7455 15.7635 19.4157 15.1827 19.1842 14.4298C19.1837 14.4298 19.0664 11.484 20.4895 10.2684Z" fill="#3C2621"/>
<path d="M24.4507 10.6258C25.7311 10.4653 27.3831 12.0258 27.4894 13.3116C27.6071 14.7404 27.6947 16.4893 27.5463 17.56C27.2471 19.7129 25.6071 20.0182 25.6071 20.0182L25.6458 22.2627L20.8347 22.0836L20.572 12.492L20.5449 11.7996L24.4507 10.6258Z" fill="#FAD6C8"/>
<path d="M26.5264 14.8618C26.5344 15.0071 26.4179 15.1333 26.2664 15.1444C26.1153 15.1556 25.9859 15.0471 25.9779 14.9018C25.9699 14.7564 26.0864 14.6298 26.2375 14.6187C26.389 14.6076 26.5184 14.7164 26.5264 14.8618Z" fill="#3C2621"/>
<path d="M27.0531 14.2324C27.0198 14.2689 26.8082 14.1187 26.5118 14.1253C26.2158 14.1275 26.0016 14.284 25.9687 14.2484C25.9527 14.2329 25.986 14.1671 26.0794 14.0964C26.1714 14.0262 26.3287 13.956 26.5136 13.9533C26.698 13.9507 26.8545 14.0155 26.9451 14.0835C27.0371 14.1515 27.0696 14.216 27.0531 14.2324Z" fill="#3C2621"/>
<path d="M23.5859 14.9684C23.5939 15.1138 23.4775 15.24 23.3259 15.2511C23.1748 15.2622 23.0455 15.1538 23.0375 15.0084C23.0295 14.8631 23.1459 14.7364 23.2971 14.7253C23.4486 14.7142 23.5779 14.8231 23.5859 14.9684Z" fill="#3C2621"/>
<path d="M24.143 14.344C24.1096 14.3805 23.8976 14.2302 23.6016 14.2369C23.3056 14.2391 23.0914 14.3956 23.0585 14.36C23.0425 14.3445 23.0759 14.2787 23.1692 14.208C23.2612 14.1373 23.4185 14.0676 23.603 14.0649C23.7874 14.0622 23.9439 14.1271 24.0345 14.1951C24.127 14.2636 24.1594 14.3276 24.143 14.344Z" fill="#3C2621"/>
<path d="M25.2599 16.52C25.2581 16.5031 25.4417 16.468 25.7395 16.424C25.815 16.4147 25.8861 16.3982 25.8981 16.3467C25.915 16.2916 25.8817 16.2107 25.8435 16.1236C25.7688 15.9418 25.6906 15.7516 25.6088 15.552C25.2821 14.7378 25.0444 14.068 25.0773 14.0551C25.1101 14.0422 25.4017 14.6916 25.7279 15.5058C25.8066 15.7067 25.8817 15.8978 25.9533 16.0809C25.9835 16.1662 26.0346 16.2627 25.9981 16.3769C25.979 16.4338 25.9239 16.476 25.8759 16.4898C25.8279 16.5053 25.7853 16.5071 25.7479 16.5102C25.4479 16.5316 25.2617 16.5369 25.2599 16.52Z" fill="#3C2621"/>
<path d="M25.6062 20.024C25.6062 20.024 24.0907 20.1422 22.6436 19.3102C22.6436 19.3102 23.428 20.7924 25.6458 20.5529L25.6062 20.024Z" fill="#C8A399"/>
<path d="M25.1383 17.8329C25.0934 17.8507 24.9912 17.5458 24.6579 17.4164C24.325 17.2862 24.0112 17.4284 23.9943 17.3867C23.9836 17.3689 24.0472 17.3031 24.1832 17.2538C24.3165 17.2044 24.5272 17.1822 24.7312 17.2613C24.9348 17.3409 25.0623 17.4956 25.1143 17.6173C25.169 17.7409 25.1601 17.8276 25.1383 17.8329Z" fill="#22120E"/>
<path d="M22.8509 13.2596C22.8665 13.1751 23.1642 13.1636 23.5002 13.0644C23.838 12.972 24.0976 12.8249 24.1549 12.8884C24.1811 12.9191 24.1456 13.0018 24.0465 13.0978C23.9487 13.1933 23.7842 13.296 23.5825 13.3538C23.3807 13.4111 23.1865 13.4102 23.0531 13.3804C22.9189 13.3511 22.8451 13.2996 22.8509 13.2596Z" fill="#3C2621"/>
<path d="M26.0115 12.9165C26.0902 12.8747 26.279 13.0213 26.5355 13.1231C26.7884 13.2325 27.027 13.2627 27.0519 13.3476C27.0617 13.388 27.0035 13.4378 26.8853 13.4609C26.7688 13.4845 26.5933 13.4729 26.4182 13.4005C26.2435 13.328 26.1119 13.2125 26.047 13.1138C25.9804 13.0142 25.9755 12.9378 26.0115 12.9165Z" fill="#3C2621"/>
<path d="M18.7192 18.6218C18.909 17.4795 18.8912 16.3151 18.9481 15.1587C19.005 14.0022 19.1437 12.8276 19.6215 11.7729C20.0992 10.7182 20.9624 9.78933 22.0757 9.47111C23.1312 9.16977 24.3975 9.53688 24.9908 10.4467C23.1619 11.6129 21.9735 13.5164 21.6535 15.6609C21.7717 16.4453 22.0108 17.5102 22.069 18.2582C22.1597 19.4178 21.8864 20.5836 21.9828 21.7427C22.0601 22.6769 22.3766 23.5942 22.3121 24.5293C22.2695 25.1493 22.061 25.7444 21.9539 26.3564C21.8468 26.9684 21.8544 27.6418 22.2019 28.1569C21.5015 27.8973 21.0864 27.1529 20.9548 26.4178C20.8779 25.9889 20.877 25.5533 20.8872 25.1164C20.6481 26.4542 20.509 27.7831 20.8264 29.0951C20.1006 29.072 19.2748 29.0004 18.8317 28.4249C18.6161 28.1449 18.5312 27.7889 18.4517 27.4444C18.3059 26.8133 18.1601 26.1822 18.0144 25.5511C17.8975 25.0458 17.7806 24.5378 17.7401 24.0209C17.5975 22.1893 18.4184 20.4338 18.7192 18.6218Z" fill="#3C2621"/>
<path d="M25.0832 10.5991C25.0552 10.5462 25.0237 10.4965 24.9912 10.4467C24.9974 10.4427 25.0032 10.4387 25.009 10.4351L25.0832 10.5991Z" fill="#623F3F"/>
<path d="M23.1685 15.4431C23.1792 15.4267 23.3436 15.5444 23.581 15.556C23.8183 15.5729 23.9956 15.4755 24.0041 15.4933C24.0081 15.5 23.9698 15.5347 23.8938 15.5684C23.8187 15.6022 23.7041 15.6293 23.577 15.6218C23.4498 15.6138 23.3396 15.5729 23.269 15.5307C23.1974 15.4884 23.1632 15.4493 23.1685 15.4431Z" fill="#C8A399"/>
<path d="M26.2525 15.3547C26.2605 15.3369 26.4116 15.4018 26.6071 15.3938C26.8027 15.3893 26.9494 15.3151 26.9587 15.3325C26.9703 15.3453 26.8245 15.4542 26.6094 15.4596C26.3938 15.4676 26.2418 15.368 26.2525 15.3547Z" fill="#C8A399"/>
<path d="M26.4581 15.5555C26.4608 15.5369 26.5528 15.5373 26.6625 15.5235C26.7728 15.5111 26.8617 15.4893 26.8688 15.5067C26.8763 15.5227 26.7905 15.5751 26.6701 15.5889C26.5501 15.6035 26.4545 15.5729 26.4581 15.5555Z" fill="#C8A399"/>
<path d="M23.1751 15.7493C23.1813 15.7311 23.3146 15.7662 23.4813 15.7693C23.648 15.7738 23.7826 15.7449 23.7884 15.7631C23.7946 15.7791 23.6595 15.84 23.48 15.8351C23.3004 15.8316 23.168 15.7649 23.1751 15.7493Z" fill="#C8A399"/>
<path d="M23.7633 17.5466C23.7482 17.5564 23.7002 17.4951 23.7131 17.4066C23.7251 17.3182 23.7882 17.272 23.8002 17.2858C23.814 17.2986 23.7869 17.3498 23.7784 17.416C23.7678 17.4813 23.7798 17.5382 23.7633 17.5466Z" fill="#C8A399"/>
<path d="M24.6018 12.6369C24.6085 12.6182 24.7858 12.6751 25.0107 12.6782C25.2356 12.684 25.4151 12.6338 25.4209 12.6524C25.428 12.6675 25.248 12.7493 25.0094 12.744C24.7707 12.7404 24.5942 12.6515 24.6018 12.6369Z" fill="#C8A399"/>
<path d="M15.1812 23.5142C15.1781 23.5151 15.1625 23.4809 15.1612 23.4138C15.1599 23.3484 15.1754 23.2467 15.247 23.1471C15.3159 23.0427 15.4608 22.9867 15.5372 22.8733C15.555 22.8449 15.5643 22.8133 15.5639 22.7782C15.5648 22.7427 15.5554 22.7004 15.5617 22.6529C15.5701 22.5569 15.6372 22.4742 15.7141 22.4231C15.7923 22.3707 15.8772 22.3409 15.9599 22.3196C16.0021 22.3089 16.0412 22.3031 16.0728 22.2893C16.1039 22.2764 16.1261 22.2542 16.1461 22.2244C16.1821 22.1649 16.2212 22.0916 16.2745 22.044C16.3257 21.9938 16.383 21.9591 16.4385 21.9351C16.5497 21.8871 16.6501 21.8858 16.715 21.8951C16.7808 21.9049 16.8137 21.9222 16.8123 21.9258C16.811 21.9311 16.7759 21.9222 16.7128 21.9209C16.6505 21.92 16.5577 21.9284 16.4577 21.9778C16.4083 22.0022 16.3572 22.036 16.3132 22.0827C16.2661 22.1289 16.2385 22.1862 16.1968 22.2578C16.1759 22.292 16.1417 22.3289 16.0981 22.3467C16.0563 22.3653 16.0137 22.3711 15.9759 22.3818C15.8985 22.4027 15.8194 22.4316 15.751 22.4773C15.683 22.5227 15.6328 22.5871 15.6257 22.6596C15.6203 22.6947 15.6274 22.7342 15.6265 22.7782C15.6265 22.8231 15.6119 22.8693 15.5883 22.9049C15.5403 22.9769 15.475 23.0173 15.4208 23.0569C15.3652 23.096 15.3172 23.132 15.2834 23.1751C15.2145 23.2609 15.1928 23.3529 15.1861 23.4147C15.1803 23.4773 15.1865 23.5133 15.1812 23.5142Z" fill="#623F3F"/>
<path d="M14.9742 23.2582C14.9711 23.2591 14.9555 23.2249 14.9542 23.1578C14.9528 23.0924 14.9684 22.9907 15.04 22.8911C15.1088 22.7867 15.2537 22.7307 15.3302 22.6173C15.348 22.5889 15.3573 22.5573 15.3568 22.5222C15.3577 22.4867 15.3484 22.4444 15.3546 22.3969C15.3631 22.3009 15.4302 22.2182 15.5071 22.1671C15.5853 22.1147 15.6702 22.0849 15.7528 22.0635C15.7951 22.0529 15.8342 22.0471 15.8657 22.0333C15.8968 22.0204 15.9191 21.9982 15.9391 21.9684C15.9751 21.9089 16.0142 21.8355 16.0675 21.788C16.1186 21.7378 16.1764 21.7031 16.2315 21.6791C16.3426 21.6311 16.4431 21.6298 16.508 21.6391C16.5737 21.6489 16.6066 21.6662 16.6053 21.6698C16.604 21.6751 16.5688 21.6662 16.5057 21.6649C16.4435 21.664 16.3506 21.6724 16.2506 21.7218C16.2013 21.7462 16.1502 21.78 16.1062 21.8267C16.0591 21.8729 16.0315 21.9302 15.9897 22.0018C15.9688 22.036 15.9346 22.0729 15.8911 22.0907C15.8493 22.1093 15.8066 22.1151 15.7688 22.1258C15.6915 22.1467 15.6124 22.1755 15.544 22.2213C15.476 22.2667 15.4257 22.3311 15.4186 22.4035C15.4133 22.4387 15.4204 22.4782 15.4195 22.5222C15.4195 22.5671 15.4048 22.6133 15.3813 22.6489C15.3333 22.7209 15.268 22.7613 15.2137 22.8009C15.1582 22.84 15.1102 22.876 15.0764 22.9191C15.0075 23.0049 14.9857 23.0969 14.9791 23.1587C14.9733 23.2218 14.9795 23.2573 14.9742 23.2582Z" fill="#623F3F"/>
<path d="M27.7295 10.7924C27.7344 10.792 27.7397 10.8306 27.7504 10.8986C27.7624 10.9658 27.7753 11.0675 27.8286 11.1742C27.8557 11.2266 27.8953 11.2786 27.9526 11.3142C28.0077 11.352 28.0877 11.3635 28.1637 11.4164C28.2406 11.4698 28.2824 11.5684 28.2908 11.66C28.3028 11.7533 28.2966 11.8462 28.302 11.9386C28.306 12.0306 28.3242 12.1173 28.3731 12.1818C28.422 12.2471 28.494 12.2938 28.5602 12.3435C28.7015 12.4382 28.786 12.5871 28.8077 12.7129C28.8335 12.8404 28.8126 12.9462 28.7882 13.0124C28.7633 13.0795 28.7375 13.1102 28.7348 13.1084C28.73 13.1058 28.7473 13.0711 28.7637 13.0053C28.7793 12.94 28.7917 12.84 28.7624 12.7231C28.7348 12.6062 28.6597 12.4804 28.5246 12.3929C28.4597 12.3453 28.382 12.2986 28.3215 12.2209C28.2606 12.1418 28.2402 12.0386 28.2362 11.9422C28.2308 11.8453 28.2371 11.7524 28.2268 11.668C28.2188 11.5831 28.1868 11.5093 28.1282 11.4653C28.07 11.4213 27.9891 11.4058 27.9228 11.36C27.8562 11.316 27.8135 11.2533 27.7864 11.1946C27.734 11.0751 27.7291 10.9706 27.7246 10.9013C27.722 10.8315 27.7251 10.7929 27.7295 10.7924Z" fill="#623F3F"/>
<path d="M27.2684 10.4649C27.2813 10.452 27.3039 10.4538 27.319 10.4689C27.3342 10.484 27.3359 10.5067 27.323 10.5195C27.3102 10.5324 27.2875 10.5307 27.2724 10.5155C27.2573 10.5004 27.2555 10.4778 27.2684 10.4649Z" fill="#623F3F"/>
<path d="M28.77 13.8507C28.754 13.8587 28.7064 13.792 28.6909 13.6956C28.6749 13.5987 28.6984 13.5204 28.7162 13.5231C28.7349 13.5249 28.7411 13.5982 28.7558 13.6849C28.7695 13.7716 28.7869 13.8431 28.77 13.8507Z" fill="#623F3F"/>
<path d="M15.0111 34.2009C15.0245 34.1987 15.0214 34.3716 15.1307 34.6142C15.1863 34.7338 15.2707 34.8693 15.3965 34.9898C15.5191 35.1156 15.6925 35.1973 15.8747 35.3C15.9645 35.3529 16.0503 35.4151 16.116 35.4938C16.1809 35.5724 16.2231 35.6556 16.2814 35.7178C16.3951 35.8467 16.54 35.9196 16.6623 35.9689C16.9111 36.0636 17.0774 36.0956 17.0738 36.108C17.0729 36.1124 17.0311 36.1076 16.9569 36.0942C16.8827 36.08 16.7751 36.0578 16.6458 36.0129C16.5183 35.9676 16.3631 35.8969 16.2365 35.7587C16.1716 35.6907 16.1263 35.6053 16.0667 35.5356C16.0071 35.4653 15.928 35.408 15.8409 35.3569C15.7538 35.3053 15.6636 35.2609 15.5791 35.2093C15.4943 35.1582 15.4183 35.0978 15.3538 35.0333C15.224 34.904 15.14 34.7591 15.0876 34.6329C15.0356 34.5053 15.0165 34.3951 15.0094 34.3196C15.0023 34.2431 15.0076 34.2009 15.0111 34.2009Z" fill="#623F3F"/>
<path d="M14.6963 33.7675C14.7065 33.7529 14.7549 33.7724 14.7745 33.8284C14.794 33.884 14.7683 33.9302 14.7509 33.9249C14.7327 33.9204 14.7256 33.8862 14.7123 33.8502C14.7003 33.8133 14.6851 33.7818 14.6963 33.7675Z" fill="#623F3F"/>
<path d="M17.2337 36.2231C17.2288 36.2058 17.2861 36.1764 17.3617 36.184C17.4372 36.1911 17.4879 36.2302 17.4804 36.2462C17.4728 36.2631 17.419 36.2551 17.3555 36.2493C17.2924 36.2431 17.2381 36.2409 17.2337 36.2231Z" fill="#623F3F"/>
<path d="M30.7774 32.2831C30.7774 32.2831 31.6494 32.2267 31.9121 32.4013C32.1747 32.576 32.1525 33.0427 32.1525 33.0427V33.2467C32.1525 33.2467 32.241 33.5196 32.1272 33.7907C32.0041 34.0849 31.5121 33.94 31.5121 33.94C31.5121 33.94 31.8743 34.0222 31.845 34.3431C31.8156 34.6636 31.5121 34.704 31.5121 34.704C31.5121 34.704 31.5872 34.8756 31.5427 35.0147C31.4592 35.2769 31.1538 35.2871 31.1538 35.2871L30.6289 35.352C30.6289 35.352 28.6174 35.6956 28.1801 35.608C27.7427 35.5204 26.8898 35.2289 26.8898 35.2289L26.6641 32.8387L30.7774 32.2831Z" fill="#FAD6C8"/>
<path d="M26.6643 32.8387C26.6643 32.8387 22.8038 33.1565 21.1132 32.4445L19.9785 35.8036C19.9785 35.8036 26.5487 35.4551 26.8901 35.2289C27.231 35.0031 26.6643 32.8387 26.6643 32.8387Z" fill="#FAD6C8"/>
<path d="M30.7013 34.4458C30.7048 34.4307 30.8955 34.4458 31.1279 34.5053C31.3635 34.5649 31.523 34.6907 31.5115 34.7044C31.5008 34.7195 31.3368 34.6258 31.1106 34.5689C30.8853 34.5111 30.6964 34.4658 30.7013 34.4458Z" fill="#C8A399"/>
<path d="M30.6816 33.7511C30.6816 33.7422 30.7301 33.7333 30.8096 33.7258C30.8888 33.7187 31.0003 33.7124 31.1243 33.7302C31.2483 33.7462 31.3568 33.7929 31.4234 33.8413C31.4905 33.8911 31.5172 33.9356 31.5119 33.9404C31.5043 33.948 31.4665 33.9164 31.399 33.8809C31.3314 33.8458 31.2319 33.8102 31.115 33.7951C30.9985 33.7782 30.8901 33.7769 30.811 33.772C30.731 33.768 30.6812 33.7604 30.6816 33.7511Z" fill="#C8A399"/>
<path d="M30.5465 32.9582C30.5434 32.9564 30.5518 32.9316 30.5852 32.9C30.6185 32.8684 30.6816 32.8373 30.7625 32.8302C30.8429 32.8209 30.9389 32.8324 31.0389 32.852C31.1394 32.8702 31.2501 32.8911 31.3656 32.9164C31.5967 32.9667 31.8043 33.0316 31.9452 33.1013C32.0874 33.1698 32.1576 33.2413 32.1523 33.2467C32.1461 33.2547 32.0687 33.1991 31.9265 33.1436C31.7852 33.0867 31.5812 33.0302 31.3518 32.9804C31.2385 32.9564 31.1309 32.9333 31.0274 32.9111C30.9278 32.8884 30.8403 32.8738 30.7656 32.8764C30.6127 32.8769 30.5532 32.9662 30.5465 32.9582Z" fill="#C8A399"/>
<path d="M29.0738 28.0391C29.0738 28.0391 26.8414 23.6693 26.52 21.8885L24.8174 22.176L25.8747 30.2565L29.0738 28.0391Z" fill="#FAD6C8"/>
<path d="M26.512 21.9333L26.5964 21.4525L27.3711 19.4102C27.4147 19.2951 27.4222 19.1698 27.3929 19.0507L27.0849 17.804C27.016 17.5245 26.7938 17.3093 26.5124 17.2493C26.0809 17.1578 25.4844 17.0636 25.3533 17.2062C25.1431 17.4356 25.2195 17.5889 25.2195 17.5889C25.2195 17.5889 24.6649 17.7227 24.6649 18.0098C24.6649 18.0098 24.2249 18.2391 24.2631 18.4116C24.3013 18.5836 24.4542 19.1382 24.6267 19.1C24.7987 19.0618 24.848 18.9662 24.848 18.9662L24.9515 19.3298L24.848 19.9227C24.848 19.9227 24.4733 21.1849 24.5498 21.5293C24.6262 21.8738 24.848 22.3716 24.848 22.3716" fill="#FAD6C8"/>
<path d="M24.8483 22.3711C24.847 22.3716 24.8394 22.3582 24.8265 22.3311C24.8123 22.3 24.7941 22.26 24.7714 22.2098C24.7256 22.1022 24.6585 21.9436 24.5901 21.7333C24.559 21.6293 24.5145 21.5085 24.523 21.3702C24.5274 21.2351 24.5492 21.0907 24.5763 20.9373C24.6323 20.6307 24.7167 20.288 24.823 19.9147L24.8221 19.9178C24.8541 19.7302 24.8883 19.5311 24.9234 19.3245L24.9239 19.3369C24.8914 19.224 24.8554 19.1 24.8194 18.9738L24.8741 18.9791C24.8314 19.0467 24.7696 19.0813 24.7043 19.1076C24.6687 19.1182 24.6447 19.1329 24.5927 19.1298C24.5496 19.1205 24.515 19.0947 24.4923 19.0667C24.3994 18.9533 24.3532 18.8205 24.307 18.6867C24.2847 18.6191 24.2647 18.5507 24.247 18.4809L24.2341 18.428C24.231 18.4116 24.2265 18.3818 24.2323 18.3622C24.2399 18.3169 24.2647 18.2845 24.2874 18.2525C24.3887 18.1347 24.5163 18.0556 24.6492 17.9809L24.6319 18.0098C24.6359 17.8676 24.7479 17.7662 24.8545 17.7031C24.9647 17.6369 25.0847 17.5911 25.2114 17.5569L25.1896 17.6036C25.1585 17.5231 25.1745 17.4471 25.2016 17.3765C25.2305 17.3067 25.2745 17.2445 25.3243 17.1893C25.399 17.116 25.4936 17.1111 25.5754 17.1031C25.6599 17.0978 25.7425 17.1018 25.8243 17.1076C25.9879 17.1213 26.1474 17.1458 26.3039 17.1751C26.3825 17.1898 26.459 17.2049 26.5367 17.2227C26.6163 17.2418 26.6919 17.2729 26.7607 17.3147C26.899 17.3973 27.007 17.524 27.0696 17.6667C27.1021 17.7382 27.119 17.8147 27.1363 17.8849C27.1536 17.9565 27.1714 18.0276 27.1883 18.0978C27.2225 18.2382 27.2563 18.3765 27.2896 18.512C27.3225 18.6476 27.355 18.78 27.3865 18.9098C27.4012 18.9756 27.4203 19.0365 27.431 19.1053C27.4407 19.1729 27.4394 19.2409 27.4274 19.3062C27.4167 19.3725 27.3905 19.4333 27.3687 19.4898C27.3465 19.5476 27.3247 19.6045 27.303 19.6605C27.2599 19.7725 27.2181 19.8813 27.1776 19.9871C27.0963 20.1973 27.0207 20.3942 26.951 20.5756C26.8114 20.9342 26.6954 21.2325 26.6074 21.4578L26.6079 21.4556C26.5785 21.6067 26.5559 21.7253 26.539 21.8116C26.531 21.8489 26.5247 21.8791 26.5194 21.9036C26.5145 21.924 26.5119 21.9347 26.5105 21.9342C26.5096 21.9342 26.5101 21.9231 26.5127 21.9022C26.5163 21.8773 26.5203 21.8471 26.5256 21.8093C26.5394 21.7227 26.5585 21.6031 26.5825 21.4511V21.4502L26.583 21.4489C26.667 21.2218 26.7776 20.9222 26.911 20.5609C26.979 20.3787 27.0527 20.1813 27.1314 19.9702C27.171 19.8645 27.2119 19.7551 27.2541 19.6427C27.275 19.5862 27.2967 19.5293 27.3181 19.4716C27.3399 19.4129 27.3634 19.3573 27.3723 19.2973C27.3825 19.2373 27.3834 19.1756 27.3741 19.1138C27.3643 19.0538 27.3447 18.9885 27.3296 18.924C27.2972 18.7947 27.2643 18.6622 27.2305 18.5271C27.1967 18.392 27.1625 18.2538 27.1274 18.1133C27.1101 18.0431 27.0923 17.972 27.0745 17.9005C27.0563 17.828 27.0412 17.7582 27.011 17.6929C26.9527 17.5618 26.8532 17.4462 26.7261 17.3702C26.6012 17.2898 26.4465 17.2707 26.2905 17.24C26.1354 17.2116 25.9776 17.1876 25.8176 17.1738C25.7381 17.168 25.6576 17.1649 25.5781 17.1698C25.5012 17.1756 25.4159 17.188 25.3714 17.2347C25.3252 17.2858 25.2856 17.3422 25.2607 17.4022C25.2359 17.46 25.2287 17.5302 25.2465 17.5751L25.2612 17.612L25.2247 17.6218C25.1061 17.6533 24.9883 17.6982 24.8865 17.7596C24.7852 17.8187 24.6967 17.908 24.695 18.0102L24.6945 18.0293L24.6776 18.0387C24.5514 18.1085 24.4239 18.1893 24.3354 18.2925C24.3159 18.3187 24.2963 18.3467 24.2927 18.3738C24.2874 18.396 24.2976 18.4307 24.3061 18.4658C24.3234 18.5342 24.3425 18.6018 24.3643 18.6676C24.4079 18.7973 24.4563 18.9307 24.5354 19.0262C24.5545 19.0511 24.579 19.0645 24.5999 19.0707C24.6159 19.0738 24.655 19.0618 24.6812 19.052C24.7376 19.032 24.7932 18.9947 24.8199 18.9525L24.8567 18.8947L24.8745 18.9578C24.9101 19.0845 24.9452 19.2085 24.9772 19.3213L24.979 19.3276L24.9776 19.3338C24.9407 19.5405 24.9052 19.7391 24.8719 19.9262L24.8714 19.9276L24.871 19.9289C24.7625 20.2996 24.675 20.6409 24.6154 20.9445C24.5865 21.096 24.563 21.2391 24.5567 21.3707C24.5465 21.5018 24.587 21.6178 24.6163 21.7236C24.6799 21.9338 24.7425 22.0938 24.7834 22.2031C24.803 22.2542 24.819 22.2951 24.8314 22.3271C24.8447 22.356 24.8496 22.3707 24.8483 22.3711Z" fill="#C8A399"/>
<path d="M24.6416 18.0107C24.6399 18.0036 24.719 17.9671 24.8603 17.9422C24.9305 17.9316 25.0203 17.9249 25.1159 17.9569C25.2127 17.9871 25.2981 18.0711 25.351 18.1671C25.5456 18.5529 25.6741 18.8702 25.6599 18.8787C25.6425 18.8884 25.4834 18.5769 25.2941 18.2004C25.2434 18.1107 25.1754 18.0431 25.095 18.0142C25.0154 17.984 24.9332 17.984 24.8656 17.9889C24.7296 18.0009 24.6443 18.0213 24.6416 18.0107Z" fill="#C8A399"/>
<path d="M24.7162 18.5414C24.7344 18.5382 24.7678 18.6542 24.814 18.7942C24.8593 18.9342 24.9006 19.0476 24.8838 19.056C24.8682 19.0645 24.7984 18.96 24.7513 18.8147C24.7038 18.6694 24.6989 18.544 24.7162 18.5414Z" fill="#C8A399"/>
<path d="M24.5049 18.5947C24.5223 18.5875 24.5609 18.6418 24.6285 18.6782C24.6952 18.7173 24.7614 18.7222 24.7641 18.7404C24.7694 18.7578 24.6845 18.7858 24.5961 18.7355C24.5072 18.6858 24.4872 18.5987 24.5049 18.5947Z" fill="#C8A399"/>
<path d="M26.4054 18.8947C26.3845 18.8987 26.3561 18.4231 26.1147 17.9013C26.0583 17.7716 25.9832 17.6578 25.8716 17.6227C25.7614 17.5853 25.6481 17.5987 25.5561 17.6098C25.369 17.6409 25.2459 17.6249 25.2481 17.6133C25.2499 17.6062 25.3632 17.6062 25.5485 17.5636C25.641 17.5471 25.7601 17.5249 25.8907 17.5649C25.9556 17.5849 26.0183 17.628 26.0641 17.6849C26.1107 17.7413 26.1445 17.8071 26.1747 17.8733C26.2965 18.1391 26.3614 18.3978 26.389 18.5862C26.417 18.7756 26.4134 18.8942 26.4054 18.8947Z" fill="#C8A399"/>
<path d="M26.5392 17.2587C26.5379 17.2507 26.6397 17.264 26.7272 17.3831C26.8152 17.4996 26.8703 17.6849 26.9339 17.8831C27.057 18.2849 27.1046 18.6231 27.0877 18.6262C27.069 18.6298 26.993 18.3005 26.8708 17.9022C26.8077 17.704 26.7592 17.5196 26.689 17.4093C26.6201 17.2956 26.5348 17.2689 26.5392 17.2587Z" fill="#C8A399"/>
<path d="M26.4329 19.9307C26.4249 19.9133 26.5689 19.8462 26.6667 19.688C26.7685 19.532 26.7676 19.3733 26.7867 19.3729C26.7947 19.3725 26.8072 19.412 26.8036 19.4787C26.8005 19.5449 26.7769 19.6365 26.7223 19.7231C26.6672 19.8093 26.5943 19.8702 26.536 19.9009C26.4774 19.9325 26.436 19.9382 26.4329 19.9307Z" fill="#C8A399"/>
<path d="M25.5245 19.8956C25.5218 19.8769 25.6516 19.8538 25.7547 19.74C25.8609 19.6298 25.8756 19.4987 25.8942 19.5C25.9022 19.5 25.9116 19.5347 25.9022 19.5907C25.8933 19.6462 25.8622 19.7213 25.8027 19.7853C25.7431 19.8489 25.6702 19.8853 25.6151 19.8978C25.5605 19.9107 25.5253 19.904 25.5245 19.8956Z" fill="#C8A399"/>
<path d="M31.5022 31.4871C31.4986 31.4818 31.5395 31.464 31.5804 31.4035C31.6213 31.3435 31.6488 31.2378 31.6466 31.1053C31.6457 31.0395 31.6386 30.9644 31.6408 30.8831C31.6435 30.8026 31.6528 30.7098 31.7048 30.6249C31.7577 30.5378 31.8537 30.4898 31.9382 30.4475C32.0239 30.4053 32.1075 30.3538 32.1271 30.2635C32.1475 30.1751 32.1253 30.0675 32.1426 29.9666C32.1559 29.8662 32.1866 29.7742 32.2182 29.6898C32.2831 29.5209 32.3497 29.3764 32.3773 29.2462C32.4075 29.1169 32.4039 29.0084 32.3893 28.9364C32.3737 28.864 32.3542 28.8266 32.3591 28.824C32.3617 28.8222 32.3897 28.856 32.4142 28.9302C32.4377 29.004 32.4488 29.1195 32.4231 29.256C32.3999 29.3929 32.3355 29.5453 32.2755 29.7111C32.2462 29.7946 32.2186 29.8826 32.2071 29.9755C32.1906 30.0675 32.2155 30.1649 32.1915 30.2795C32.1791 30.3364 32.1431 30.3889 32.1008 30.4235C32.0586 30.4595 32.0119 30.4831 31.9679 30.5053C31.8799 30.548 31.7995 30.5889 31.7564 30.6578C31.7119 30.7258 31.7004 30.8089 31.6955 30.8858C31.6911 30.9635 31.6955 31.0364 31.6933 31.1062C31.6897 31.2444 31.6524 31.3578 31.6008 31.4191C31.5488 31.4804 31.5022 31.4902 31.5022 31.4871Z" fill="#623F3F"/>
<g opacity="0.36">
<path d="M0.825502 27.8533C0.825502 27.8533 1.50639 26.472 1.50906 26.1836L1.32061 24.4653C1.32061 24.4653 1.20195 24.3791 1.07261 24.6707C0.94328 24.9627 1.03572 25.272 1.03572 25.272L0.894391 25.6533L0.697947 25.3516L0.494836 24.2276C0.494836 24.2276 0.36728 23.4156 0.239725 23.4969C0.112169 23.5782 0.0703913 23.8125 0.125502 24.1631C0.180614 24.5133 0.250391 24.9578 0.250391 24.9578C0.250391 24.9578 0.26328 25.096 0.138836 24.8613C0.0143913 24.6271 -0.10472 23.6471 -0.151831 23.5147C-0.198942 23.3818 -0.210053 23.0333 -0.409164 23.0471C-0.608275 23.0609 -0.502942 23.5085 -0.502942 23.5085L-0.345609 24.9551C-0.345609 24.9551 -0.518498 24.3707 -0.551831 24.2707C-0.585164 24.1707 -0.63272 23.8529 -0.694942 23.6787C-0.757164 23.5045 -0.85672 23.4125 -0.945609 23.4209C-1.10516 23.4365 -1.10561 23.5822 -1.10561 23.5822L-0.839386 24.8222C-0.839386 24.8222 -0.689164 25.3885 -0.701164 25.424C-0.713164 25.4596 -0.914053 25.1845 -0.914053 25.1845L-1.06294 24.7809C-1.06294 24.7809 -1.18116 24.2102 -1.33316 24.1907C-1.48516 24.1707 -1.49316 24.2858 -1.49316 24.2858L-1.26783 25.3276L-0.836275 26.512L-0.423386 27.4107C-0.423386 27.4107 -0.403386 27.8716 -0.381164 27.9031C-0.358053 27.9347 0.825502 27.8533 0.825502 27.8533Z" fill="#BF9892"/>
<path d="M0.721255 25.4467C0.706144 25.4582 0.80481 25.6125 0.941255 25.7907C1.07814 25.9693 1.20081 26.1045 1.21592 26.0929C1.23103 26.0813 1.13237 25.9276 0.995921 25.7489C0.859477 25.5702 0.736366 25.4351 0.721255 25.4467Z" fill="#A07B77"/>
<path d="M-0.664021 25.8453C-0.668021 25.8662 -0.381799 25.9044 -0.0857988 26.0849C0.212868 26.2609 0.381312 26.4951 0.398201 26.4818C0.414201 26.4756 0.26309 26.2116 -0.0502433 26.0258C-0.362243 25.8369 -0.666243 25.8284 -0.664021 25.8453Z" fill="#A07B77"/>
<path d="M9.43815 29.1862C9.44926 29.1862 9.44882 29.0444 9.48704 28.8218C9.52482 28.6 9.61104 28.296 9.78304 27.9982C9.94926 27.6973 10.1782 27.4733 10.3835 27.3867C10.5897 27.2978 10.7359 27.3449 10.7359 27.3307C10.7368 27.328 10.7039 27.3111 10.6386 27.304C10.5742 27.296 10.4759 27.3009 10.3648 27.3418C10.1408 27.4213 9.89282 27.6556 9.72304 27.964C9.54571 28.2707 9.46482 28.5867 9.4386 28.8147C9.41238 29.0444 9.43015 29.1867 9.43815 29.1862Z" fill="#263138"/>
<path d="M9.16309 19.8387C9.21909 19.4769 9.54531 19.1991 9.90042 19.1116C10.256 19.0245 10.6324 19.0974 10.9773 19.22C11.364 19.3578 11.7342 19.5631 12.0133 19.8645C12.2924 20.1658 12.4729 20.5711 12.4511 20.9809C12.4306 21.3654 12.2386 21.7511 12.3458 22.1209C12.4271 22.4018 12.6649 22.6067 12.9031 22.776C13.1413 22.9454 13.3995 23.104 13.56 23.3489C13.7204 23.5934 13.7466 23.9574 13.5302 24.1534C13.3373 24.328 12.9915 24.348 12.9102 24.5951C12.86 24.7485 12.9453 24.9085 12.9924 25.0631C13.092 25.3898 13.0146 25.7538 12.8346 26.0436C12.6546 26.3334 12.3804 26.5556 12.0831 26.7231C11.5622 27.0174 10.9124 27.1547 10.3622 26.92C10.0898 26.8036 9.85775 26.6027 9.68397 26.3631C9.39464 25.964 9.26531 25.4671 9.23509 24.9751C9.20486 24.4831 9.26753 23.9907 9.33064 23.5018L9.16309 19.8387Z" fill="#A07B77"/>
<path d="M8.97168 25.6924C9.42501 25.8178 9.93524 25.716 10.3063 25.4267C10.6775 25.1373 10.9006 24.6676 10.8899 24.1969C10.8801 23.7578 10.6815 23.3102 10.8179 22.8924C10.9117 22.6058 11.1521 22.3822 11.2326 22.0916C11.353 21.6578 11.0903 21.2191 10.8401 20.8449C10.6792 20.6049 10.5152 20.3609 10.2912 20.1787C10.0672 19.9964 9.77035 19.8813 9.48768 19.9413" fill="#A07B77"/>
<path d="M4.36138 23.3951C4.47916 22.8178 3.9085 22.2765 3.99294 21.6933C4.0405 21.3645 4.28627 21.1049 4.50672 20.8565C4.72716 20.6076 4.94627 20.3116 4.92183 19.98L6.45027 25.9827C5.31205 26.3711 4.94227 25.7645 4.94227 25.7645C4.7645 25.516 4.52005 25.324 4.31916 25.0942C4.11827 24.864 3.9565 24.5685 4.00005 24.2658C4.04494 23.9529 4.29827 23.7045 4.36138 23.3951Z" fill="#A07B77"/>
<path d="M10.0171 20.4871C10.0255 20.1862 9.74777 19.9542 9.46777 19.844C9.18777 19.7338 8.87666 19.6925 8.62732 19.5245C8.40643 19.3756 8.25799 19.144 8.07088 18.9542C7.61221 18.4893 6.89577 18.2965 6.26555 18.4685C5.63532 18.6405 5.11621 19.1702 4.9571 19.804C4.84955 20.232 4.92288 20.7387 5.26066 21.0231C5.65221 21.3533 6.2331 21.28 6.73532 21.1773C7.2371 21.0747 7.80555 20.9733 8.22466 21.268C8.47755 21.4458 8.62243 21.7351 8.77666 22.0027C8.93132 22.2702 9.1251 22.5436 9.4171 22.644C9.7091 22.7445 10.106 22.5707 10.1175 22.2622" fill="#A07B77"/>
<path d="M8.83161 20.5489C9.09116 20.5769 9.28627 20.7991 9.2805 21.06L8.9805 27.8551C8.96805 28.6578 7.79472 29.1085 6.93561 29.0885C6.06805 29.0685 6.04005 28.6427 6.02894 27.8791C6.01072 26.6036 6.0125 26.1249 6.01205 26.132C6.01205 26.132 4.91605 25.9476 4.69205 24.5165C4.5805 23.8049 4.61916 22.6382 4.68094 21.6849C4.73694 20.8267 5.30805 19.7751 6.16272 19.8676L8.83161 20.5489Z" fill="#BF9892"/>
<path d="M5.28429 22.612C5.28074 22.7089 5.35985 22.792 5.46074 22.7974C5.56163 22.8031 5.64652 22.7294 5.65007 22.6325C5.65363 22.5356 5.57452 22.4525 5.47363 22.4467C5.37274 22.4413 5.28785 22.5151 5.28429 22.612Z" fill="#A07B77"/>
<path d="M4.93257 22.2C4.95524 22.224 5.09435 22.1214 5.29169 22.1223C5.48902 22.1205 5.63346 22.2223 5.65524 22.1983C5.66591 22.1876 5.6428 22.1445 5.57969 22.0983C5.51791 22.0525 5.41169 22.0076 5.28902 22.008C5.16591 22.0085 5.06235 22.0534 5.0028 22.0996C4.94191 22.1463 4.92146 22.1894 4.93257 22.2Z" fill="#A07B77"/>
<path d="M7.2091 22.6618C7.20554 22.7587 7.28466 22.8418 7.38554 22.8471C7.48643 22.8529 7.57132 22.7791 7.57488 22.6822C7.57843 22.5853 7.49932 22.5022 7.39843 22.4965C7.29754 22.4911 7.21266 22.5649 7.2091 22.6618Z" fill="#A07B77"/>
<path d="M6.87297 22.3338C6.89564 22.3578 7.03519 22.2551 7.23253 22.256C7.42986 22.2542 7.5743 22.356 7.59608 22.332C7.60675 22.3213 7.58364 22.2782 7.52053 22.232C7.45875 22.1862 7.35253 22.1413 7.22986 22.1418C7.10675 22.1422 7.00319 22.1871 6.94364 22.2333C6.88275 22.28 6.86186 22.3231 6.87297 22.3338Z" fill="#A07B77"/>
<path d="M6.15339 23.7965C6.15428 23.7853 6.03161 23.7636 5.83294 23.7378C5.78272 23.7325 5.73472 23.7222 5.72628 23.688C5.71428 23.6516 5.73561 23.5973 5.76005 23.5387C5.80761 23.4169 5.85783 23.2889 5.90983 23.1551C6.11828 22.6089 6.26894 22.16 6.24672 22.1516C6.2245 22.1436 6.03783 22.5791 5.82983 23.1253C5.77961 23.26 5.73161 23.3885 5.68628 23.5111C5.66716 23.5685 5.63428 23.6333 5.65961 23.7089C5.67294 23.7467 5.70983 23.7742 5.74228 23.7827C5.77472 23.7925 5.80272 23.7933 5.82805 23.7947C6.0285 23.8062 6.1525 23.8076 6.15339 23.7965Z" fill="#A07B77"/>
<path d="M6.01172 26.132C6.01172 26.132 6.97394 26.196 7.92861 25.6253C7.92861 25.6253 7.44327 26.608 6.01172 26.4707V26.132Z" fill="#A07B77"/>
<path d="M6.78522 21.988C6.80478 22.0418 7.00167 22.0169 7.23322 22.0453C7.46522 22.0693 7.65189 22.1374 7.683 22.0894C7.69678 22.0662 7.66433 22.0156 7.58878 21.9636C7.51411 21.9116 7.39456 21.8618 7.25589 21.8462C7.11678 21.8307 6.98967 21.8525 6.90522 21.8867C6.81989 21.9205 6.77678 21.9627 6.78522 21.988Z" fill="#A07B77"/>
<path d="M5.00691 21.7214C5.04158 21.7662 5.17758 21.72 5.34113 21.7182C5.50469 21.7107 5.64291 21.7489 5.67491 21.7022C5.68913 21.6796 5.66736 21.6347 5.60691 21.592C5.54736 21.5498 5.4478 21.5147 5.33536 21.5178C5.22291 21.5209 5.12558 21.5614 5.06869 21.6071C5.01091 21.6534 4.9918 21.6996 5.00691 21.7214Z" fill="#A07B77"/>
<path d="M5.88537 19.5573C6.95248 19.6853 8.00448 19.9409 9.01114 20.3169C9.24448 20.404 9.48981 20.5089 9.62803 20.7165C9.77425 20.936 9.76714 21.2196 9.7547 21.4831C9.6947 22.7676 9.6347 24.052 9.5747 25.3365L8.71425 24.9405C8.42048 24.6671 8.26848 24.2489 8.3187 23.8507C8.36314 23.4996 8.55248 23.1418 8.4307 22.8093C8.26981 22.3698 7.65337 22.2347 7.48981 21.7956C7.3947 21.5405 7.48003 21.2422 7.37248 20.9925C7.27114 20.7573 7.02403 20.6222 6.78314 20.5351C6.5427 20.448 6.28448 20.388 6.08225 20.2311C5.88092 20.0738 5.7547 19.7773 5.88537 19.5573Z" fill="#A07B77"/>
<path d="M10.7476 20.7436C10.7289 20.7591 10.5103 20.3947 10.0703 20.1467C9.63381 19.8916 9.20892 19.8867 9.21292 19.8627C9.21292 19.8542 9.31736 19.8431 9.48536 19.8658C9.65247 19.888 9.88181 19.9533 10.1071 20.0822C10.332 20.212 10.504 20.3769 10.6076 20.5102C10.7116 20.6431 10.7547 20.7391 10.7476 20.7436Z" fill="#F5F5F5"/>
<path d="M6.06156 24.4098C6.09489 24.4938 6.12867 24.5796 6.18423 24.6507C6.23978 24.7218 6.32156 24.7787 6.41178 24.7827C6.50823 24.7871 6.60112 24.7302 6.65489 24.6502C6.70867 24.5702 6.72689 24.4702 6.72245 24.3742C6.71845 24.2871 6.67889 24.1831 6.59223 24.1729C6.55623 24.1684 6.52067 24.1827 6.48734 24.196C6.33578 24.2573 6.18378 24.3191 6.03223 24.3804" fill="#BF9892"/>
<path d="M6.24334 24.7845C6.24556 24.7702 6.34556 24.8107 6.48601 24.7547C6.55401 24.7271 6.62823 24.6729 6.66956 24.588C6.71045 24.504 6.7189 24.3898 6.67534 24.2902C6.66556 24.2653 6.65045 24.2427 6.63579 24.2222C6.61756 24.2031 6.62112 24.204 6.60156 24.2071C6.5829 24.212 6.55312 24.2262 6.52868 24.2356C6.50334 24.2458 6.47845 24.256 6.45401 24.2662C6.35668 24.3058 6.26823 24.34 6.19401 24.368C6.04512 24.4236 5.95045 24.4529 5.94645 24.4427C5.94201 24.4325 6.02823 24.3845 6.17179 24.3151C6.24334 24.2805 6.32912 24.2405 6.42512 24.1973C6.44912 24.1867 6.47356 24.1756 6.4989 24.1645C6.52556 24.1533 6.54556 24.1418 6.58201 24.1302C6.59979 24.1253 6.62512 24.1222 6.64956 24.132C6.67356 24.1418 6.68868 24.1582 6.69979 24.1716C6.72023 24.1987 6.73801 24.2267 6.7509 24.2578C6.80423 24.3822 6.79134 24.52 6.73712 24.6218C6.68156 24.7258 6.5869 24.7845 6.50601 24.8085C6.42423 24.8338 6.35356 24.8276 6.30868 24.816C6.2629 24.8045 6.24156 24.7889 6.24334 24.7845Z" fill="#966F6C"/>
<path d="M2.25977 48.4725L3.91665 42.9916V38.4013L9.56599 37.6071L10.0073 39.4609C10.0073 39.4609 10.8015 40.52 11.1549 41.9325C11.1887 42.0671 11.2082 42.2031 11.2167 42.3405C11.4051 43.176 11.3455 45.0551 11.0335 45.6747C10.5833 46.5685 10.9562 48.4809 10.9562 48.4809H8.10288" fill="#A07B77"/>
<path d="M8.97155 27.0058L6.012 27.4645L5.48488 27.9209C5.48488 27.9209 3.62222 31.548 3.588 32.28C3.55022 33.0893 3.98444 34.4782 3.98444 34.4782L3.55822 37.6827C3.49511 38.0507 3.73422 38.404 3.89511 38.404L9.00755 37.7182C9.67422 37.5871 9.948 37.2387 9.90666 36.8533L9.83066 36.1391L12.0142 28.8262C12.1436 29.2587 11.9413 27.6609 10.9667 27.3027C10.5538 27.1511 9.59911 26.8747 8.97155 27.0058Z" fill="#BF9892"/>
<path d="M5.75799 27.7058C5.75799 27.7058 4.84688 28.4076 3.98465 29.2062C3.12243 30.0049 0.822431 31.6018 0.822431 31.6018L1.05443 27.6893L-0.70068 27.4516C-0.70068 27.4516 -1.81846 31.8573 -1.28024 33.0071C-0.742013 34.1569 -0.198903 34.54 1.58954 33.9653C3.37754 33.3902 3.88865 33.1351 3.88865 33.1351L5.75799 27.7058Z" fill="#BF9892"/>
<path d="M5.3011 28.2018C5.29932 28.2005 5.2851 28.2182 5.26021 28.2533C5.23132 28.2956 5.19621 28.3471 5.15399 28.4089C5.06332 28.5449 4.93355 28.7431 4.77977 28.9925C4.47532 29.4902 4.05843 30.1947 3.78688 31.0525C3.51532 31.9111 3.50466 32.7498 3.63399 33.324C3.69577 33.612 3.77799 33.8369 3.84821 33.9853C3.87977 34.0613 3.91399 34.1156 3.93355 34.1538C3.95443 34.1916 3.96643 34.2107 3.96866 34.2098C3.97443 34.2071 3.93443 34.1258 3.8731 33.9747C3.81088 33.8245 3.73666 33.5996 3.68199 33.3142C3.56688 32.7453 3.58466 31.9209 3.8531 31.0729C4.12199 30.2249 4.5291 29.5205 4.82243 29.0173C4.96821 28.7733 5.08866 28.5725 5.17799 28.4231C5.21621 28.3582 5.24732 28.3045 5.2731 28.2605C5.29266 28.2236 5.30288 28.2031 5.3011 28.2018Z" fill="#A07B77"/>
<path d="M10.4106 27.3031C10.4106 27.3031 9.48926 28.5098 9.43859 29.6174C9.38837 30.7245 11.0919 37.3627 11.0919 37.3627L12.5857 43.4222L14.4453 42.736C14.4453 42.736 14.0124 38.4218 13.9301 37.8858C13.7586 36.7698 13.023 34.5942 12.9221 33.336C12.8217 32.0778 12.3555 29.6551 12.1248 29.0885C11.895 28.5222 11.8866 27.2716 10.4106 27.3031Z" fill="#BF9892"/>
<path d="M9.51484 30.2289C9.51262 30.2294 9.51351 30.2516 9.51795 30.2938C9.52373 30.344 9.53084 30.4049 9.53973 30.4787C9.56151 30.6387 9.59795 30.8698 9.64907 31.1538C9.75084 31.7223 9.91307 32.5031 10.1068 33.3623C10.302 34.2214 10.4908 34.996 10.6353 35.5551C10.7077 35.8347 10.7686 36.06 10.8126 36.2151C10.834 36.2863 10.8513 36.3449 10.8655 36.3934C10.8784 36.4338 10.8864 36.4547 10.8886 36.4543C10.8908 36.4538 10.8877 36.4316 10.8788 36.3898C10.8677 36.3405 10.8544 36.2809 10.8384 36.2085C10.7993 36.0409 10.7464 35.8165 10.6824 35.5431C10.55 34.9716 10.3713 34.2 10.1735 33.3467C9.97973 32.488 9.80995 31.7094 9.69662 31.144C9.64284 30.8689 9.59884 30.6427 9.56595 30.4738C9.55218 30.4009 9.54107 30.3409 9.53173 30.2911C9.52284 30.2503 9.51706 30.2285 9.51484 30.2289Z" fill="#A07B77"/>
<path d="M12.8154 43.3378L13.0177 45.1222L14.6501 46.6138C14.6501 46.6138 14.7883 46.3898 14.7137 46.2036C14.639 46.0173 15.0865 46.4458 15.0865 46.4458V47.4711C15.0865 47.4711 15.3661 47.5831 15.4594 47.3404C15.5528 47.0982 15.6083 46.2222 15.6083 46.2222L15.4777 46.1289C15.4777 46.1289 15.6452 45.9796 15.6083 45.7187C15.6083 45.7187 15.7577 45.4018 15.7017 44.9729C15.6457 44.544 15.5341 44.3204 15.5341 44.3204L14.1968 42.828L12.8154 43.3378Z" fill="#BF9892"/>
<path d="M13.6355 45.0551C13.6213 45.0658 13.8195 45.3498 14.1173 45.6547C14.4142 45.9609 14.6924 46.1671 14.7035 46.1529C14.7164 46.1373 14.4604 45.9098 14.1666 45.6067C13.8719 45.3053 13.651 45.0431 13.6355 45.0551Z" fill="#A07B77"/>
<path d="M14.782 45.3813C14.7686 45.3951 14.9429 45.5956 15.1704 45.8293C15.3984 46.0631 15.5944 46.2422 15.6082 46.2293C15.622 46.2165 15.4482 46.016 15.2197 45.7813C14.9913 45.5471 14.7953 45.368 14.782 45.3813Z" fill="#A07B77"/>
<path d="M15.0027 44.9724C14.9898 44.9876 15.1458 45.1356 15.3116 45.3396C15.4787 45.5427 15.5925 45.7249 15.6098 45.7156C15.6258 45.7076 15.5365 45.5053 15.3649 45.2964C15.1938 45.0862 15.0134 44.9587 15.0027 44.9724Z" fill="#A07B77"/>
<path d="M15.1904 44.5507C15.1775 44.5654 15.2962 44.688 15.4326 44.8462C15.5695 45.004 15.674 45.1391 15.6904 45.1285C15.706 45.1187 15.6255 44.9631 15.4846 44.8014C15.3446 44.6387 15.2024 44.5365 15.1904 44.5507Z" fill="#A07B77"/>
<path d="M8.18099 48.5222C8.17032 48.5151 8.42188 48.1027 8.74321 47.6C9.06455 47.0973 9.33388 46.696 9.34455 46.7027C9.35521 46.7098 9.10366 47.1222 8.78188 47.6249C8.46144 48.1271 8.1921 48.5289 8.18099 48.5222Z" fill="#A07B77"/>
</g>
<g opacity="0.31">
<path d="M45.9676 24.5978C46.4245 24.3858 46.7103 23.9187 46.8783 23.444C47.0463 22.9698 47.124 22.4658 47.3107 21.9987C47.4498 21.6502 47.2969 21.0951 47.6098 20.888C48.0014 20.6289 47.9969 19.9413 47.8458 19.5982C47.6814 19.2244 47.2347 18.9467 47.2045 18.8284C47.1249 18.5178 47.3956 18.1809 47.2951 17.8764C47.0591 17.16 46.4751 17.2547 46.4751 17.2547C46.2089 16.9329 45.8489 16.5071 45.2649 16.356C44.632 16.1924 43.6987 16.0711 43.1351 16.4022C42.5716 16.7338 42.1578 16.9551 41.9756 17.5827" fill="#A07B77"/>
<path d="M41.0954 18.4702C40.7634 18.5062 40.5145 18.7898 40.5216 19.1231L40.9052 27.7978C40.9212 28.8222 42.4199 29.3978 43.5176 29.3724C44.6261 29.3467 44.6621 28.8035 44.6759 27.8284C44.699 26.2 44.6972 25.5889 44.6976 25.5982C44.6976 25.5982 46.0981 25.3627 46.3843 23.536C46.5265 22.6275 46.4776 21.1382 46.3981 19.9213C46.3265 18.8258 45.5972 17.4831 44.5047 17.6013L41.0954 18.4702Z" fill="#BF9892"/>
<path d="M46.081 21.2529C46.0854 21.3764 45.9845 21.4826 45.8556 21.4898C45.7268 21.4969 45.6183 21.4026 45.6134 21.2791C45.609 21.1555 45.7099 21.0493 45.8388 21.0422C45.9676 21.0346 46.0761 21.1289 46.081 21.2529Z" fill="#A07B77"/>
<path d="M46.077 20.6969C46.0481 20.7275 45.8704 20.5964 45.6179 20.5978C45.3659 20.5955 45.181 20.7253 45.1535 20.6946C45.1402 20.6809 45.1695 20.6258 45.2499 20.5671C45.329 20.5084 45.4641 20.4515 45.6215 20.4515C45.7784 20.452 45.9108 20.5098 45.9868 20.5684C46.0646 20.628 46.0913 20.6831 46.077 20.6969Z" fill="#A07B77"/>
<path d="M43.6025 21.2529C43.6074 21.3765 43.506 21.4827 43.3771 21.4898C43.2482 21.4969 43.1398 21.4027 43.1349 21.2791C43.1305 21.1556 43.2314 21.0493 43.3602 21.0422C43.4891 21.0347 43.5976 21.1289 43.6025 21.2529Z" fill="#A07B77"/>
<path d="M43.5976 20.7493C43.5687 20.78 43.3905 20.6489 43.1385 20.6502C42.8865 20.648 42.7016 20.7778 42.674 20.7471C42.6607 20.7333 42.6896 20.6782 42.7705 20.6196C42.8496 20.5609 42.9847 20.504 43.142 20.504C43.2989 20.5044 43.4314 20.5622 43.5074 20.6209C43.5851 20.6804 43.6118 20.7356 43.5976 20.7493Z" fill="#A07B77"/>
<path d="M44.5167 22.6164C44.5154 22.6022 44.6723 22.5747 44.926 22.5418C44.9905 22.5351 45.0514 22.5222 45.062 22.4782C45.0771 22.4315 45.05 22.3622 45.0185 22.2875C44.9576 22.132 44.894 21.9689 44.8269 21.7978C44.5607 21.1004 44.3683 20.5271 44.3963 20.5169C44.4243 20.5062 44.6629 21.0631 44.9291 21.76C44.9931 21.932 45.0545 22.096 45.1127 22.2524C45.1371 22.3253 45.1794 22.4084 45.1465 22.5049C45.1291 22.5529 45.082 22.588 45.0407 22.5991C44.9994 22.6115 44.9634 22.6124 44.9314 22.6147C44.6767 22.6293 44.518 22.6307 44.5167 22.6164Z" fill="#A07B77"/>
<path d="M44.6979 25.5982C44.6979 25.5982 43.4686 25.68 42.249 24.9511C42.249 24.9511 42.8695 26.2387 44.6979 26.064V25.5982Z" fill="#A07B77"/>
<path d="M44.411 23.224C44.3199 23.1044 44.1607 23.0391 44.0034 23.056C43.8941 23.068 43.7834 23.1209 43.7172 23.2102C43.651 23.2995 43.6372 23.4258 43.6981 23.5106C43.7665 23.6062 43.9087 23.628 44.0287 23.5933C44.1492 23.5586 44.2523 23.4795 44.3505 23.4004C44.3776 23.3786 44.4056 23.3555 44.4225 23.3258C44.4394 23.296 44.443 23.2569 44.4221 23.232" fill="#AA8988"/>
<path d="M43.7748 22.7924C43.8157 22.7898 43.817 23.0635 44.0517 23.2573C44.2859 23.4515 44.5779 23.4204 44.5802 23.4586C44.5842 23.476 44.5153 23.512 44.3922 23.5155C44.2713 23.52 44.0948 23.4818 43.9513 23.3631C43.8081 23.2444 43.7464 23.0858 43.7366 22.9733C43.7259 22.8586 43.7562 22.7906 43.7748 22.7924Z" fill="#A07B77"/>
<path d="M43.7102 20.0178C43.6853 20.0862 43.4338 20.0542 43.1378 20.0907C42.8413 20.1209 42.6027 20.208 42.5636 20.1467C42.5458 20.1173 42.5876 20.0529 42.6836 19.9862C42.7791 19.9196 42.9316 19.8564 43.1089 19.8364C43.2867 19.8164 43.4493 19.8444 43.5573 19.888C43.6658 19.9316 43.7209 19.9853 43.7102 20.0178Z" fill="#A07B77"/>
<path d="M45.982 20.2373C45.9376 20.2947 45.7638 20.2356 45.5549 20.2333C45.346 20.2236 45.1691 20.2724 45.1282 20.2129C45.1105 20.184 45.138 20.1267 45.2154 20.072C45.2914 20.0178 45.4189 19.9733 45.5625 19.9773C45.706 19.9818 45.8305 20.0333 45.9034 20.0916C45.9771 20.1507 46.0016 20.2093 45.982 20.2373Z" fill="#A07B77"/>
<path d="M42.0983 17.4644C42.0969 17.8302 42.2654 18.1929 42.5463 18.4271C42.8267 18.6618 43.2138 18.764 43.5738 18.6982C43.8529 18.6471 44.1591 18.5062 44.4009 18.6547C44.6551 18.8111 44.6658 19.1938 44.8911 19.3893C45.2134 19.6689 45.7258 19.4067 46.1347 19.528C46.4507 19.6218 46.648 19.9231 46.8578 20.1769C47.0676 20.4307 47.3818 20.672 47.6978 20.5782C47.6778 20.2947 47.6569 20.0075 47.5725 19.736C47.488 19.4644 47.3325 19.2053 47.0938 19.0498C46.9631 18.9649 46.8111 18.9129 46.6898 18.8151C46.4276 18.6035 46.3667 18.2355 46.2049 17.94C45.996 17.5595 45.5929 17.292 45.1609 17.248C44.8014 17.2111 44.4307 17.3191 44.0805 17.2307C43.8214 17.1653 43.5951 16.9973 43.3325 16.9475C42.8214 16.8507 42.3463 17.2169 41.9756 17.5818" fill="#A07B77"/>
<path d="M41.1371 21.4218C41.0829 21.4071 40.8642 21.7293 41.2144 21.8084C41.8286 21.9471 41.9095 20.7489 41.7726 20.4062C41.9949 20.2093 42.2193 20.0093 42.3886 19.7586C42.558 19.5084 42.7073 18.8258 42.6713 18.5182C42.8926 18.5311 43.8353 18.22 43.7348 18.1915C43.506 18.1262 43.0371 17.9778 42.914 17.7791C42.6469 17.3475 42.1766 17.0533 41.6957 17.0795C41.2148 17.1058 40.7535 17.4853 40.6548 17.9924C40.0731 17.9969 39.5055 18.3618 39.2264 18.9115C38.9473 19.4609 38.9677 20.1724 39.278 20.7022C39.3593 20.8409 39.4624 20.9795 39.4646 21.1435C39.4673 21.3466 39.3171 21.508 39.2109 21.676C38.9211 22.1342 38.9429 22.764 39.1669 23.2631C39.3909 23.7622 39.5482 23.9378 39.8669 24.0378C40.4904 24.2333 39.7673 25.5164 40.8046 25.5164" fill="#A07B77"/>
<path d="M41.1624 21.9235C41.1429 21.5351 40.7193 21.2755 40.3824 21.4702C40.1975 21.5769 40.0558 21.792 40.0727 22.2044C40.118 23.3044 41.214 23.032 41.2144 23.0004C41.2149 22.9813 41.1851 22.3786 41.1624 21.9235Z" fill="#BF9892"/>
<path d="M40.8613 22.5978C40.8564 22.5946 40.8426 22.612 40.8106 22.628C40.7795 22.6435 40.7257 22.656 40.6675 22.6369C40.5493 22.5991 40.444 22.4186 40.4306 22.2204C40.4235 22.1204 40.4408 22.0244 40.4728 21.944C40.5031 21.8622 40.5528 21.8035 40.6111 21.7911C40.6688 21.7751 40.7115 21.8084 40.7266 21.8391C40.7426 21.8693 40.7364 21.8915 40.7426 21.8933C40.7457 21.896 40.7653 21.8738 40.7546 21.8289C40.7493 21.8071 40.7351 21.7818 40.7084 21.7618C40.6813 21.7413 40.6417 21.732 40.6013 21.7382C40.5168 21.7475 40.4435 21.8289 40.408 21.9169C40.368 22.0058 40.3462 22.1138 40.3542 22.2262C40.3702 22.4475 40.4924 22.6502 40.6537 22.6898C40.732 22.7066 40.7955 22.6809 40.828 22.6533C40.8604 22.6244 40.8653 22.6 40.8613 22.5978Z" fill="#A07B77"/>
<path d="M43.506 22.8427C43.5277 22.8516 43.5726 22.7933 43.6495 22.7573C43.7251 22.7187 43.7989 22.7187 43.8051 22.696C43.8149 22.6751 43.7193 22.6302 43.6131 22.6827C43.5064 22.7347 43.4833 22.8373 43.506 22.8427Z" fill="#A07B77"/>
<path d="M43.2918 22.7565C43.3153 22.7587 43.342 22.6796 43.4176 22.62C43.4909 22.5573 43.5736 22.5462 43.5758 22.5227C43.5829 22.5 43.4669 22.4711 43.3647 22.556C43.262 22.6396 43.2682 22.7591 43.2918 22.7565Z" fill="#A07B77"/>
<path d="M39.5258 21.0689C39.5316 21.0649 39.4907 21.0071 39.4391 20.8929C39.3902 20.7787 39.3333 20.6027 39.3396 20.3804C39.3444 20.1604 39.4267 19.896 39.6249 19.6804C39.7227 19.5733 39.8462 19.4796 39.9893 19.4142C40.132 19.3484 40.2956 19.3182 40.4649 19.3093C40.804 19.2933 41.1364 19.3458 41.4422 19.3102C41.7493 19.2764 42.0076 19.1507 42.1902 19.0107C42.3747 18.8702 42.4893 18.7187 42.556 18.6098C42.6218 18.4996 42.644 18.4316 42.64 18.4298C42.6244 18.4169 42.5204 18.6987 42.1551 18.9631C41.9747 19.092 41.7262 19.2058 41.4342 19.2338C41.1409 19.2644 40.8133 19.2102 40.4604 19.2258C40.2849 19.2351 40.1098 19.2676 39.9556 19.34C39.8018 19.4116 39.6707 19.5133 39.568 19.6293C39.36 19.8618 39.2782 20.1484 39.2813 20.3796C39.2827 20.6133 39.3511 20.7938 39.4102 20.9071C39.4724 21.0204 39.5227 21.0716 39.5258 21.0689Z" fill="#BF9892"/>
<path d="M39.5276 18.6293C39.5342 18.644 39.6809 18.5036 39.9787 18.4973C40.1249 18.4929 40.2996 18.5205 40.484 18.5827C40.6702 18.6436 40.8684 18.7356 41.0907 18.8053C41.312 18.8778 41.5449 18.8978 41.7462 18.8622C41.948 18.8276 42.1191 18.7516 42.2471 18.668C42.376 18.5845 42.4645 18.4956 42.5178 18.4298C42.572 18.364 42.5933 18.3213 42.5898 18.3191C42.5773 18.308 42.4716 18.4685 42.2164 18.6182C42.0898 18.692 41.9249 18.7582 41.7342 18.7871C41.5431 18.8165 41.3298 18.7965 41.1151 18.7267C40.9 18.6596 40.7 18.5689 40.5071 18.5102C40.3142 18.4493 40.1293 18.4267 39.9751 18.4391C39.8204 18.4507 39.7004 18.4978 39.6276 18.5431C39.5547 18.5885 39.5244 18.6262 39.5276 18.6293Z" fill="#BF9892"/>
<path d="M46.922 17.7702C46.9126 17.7653 46.8966 17.8489 46.7966 17.9458C46.7006 18.0422 46.5073 18.1391 46.2597 18.1267C46.0126 18.1173 45.7442 17.9596 45.5011 17.7373C45.2535 17.5196 45.0113 17.2213 44.646 17.0462C44.4642 16.9605 44.2597 16.9302 44.0717 16.9578C43.8837 16.9858 43.7122 17.0573 43.5677 17.1507C43.2744 17.3369 43.0913 17.5987 42.9668 17.82C42.842 18.0445 42.7686 18.2378 42.7175 18.3702C42.6677 18.5036 42.6442 18.5787 42.6491 18.5805C42.6544 18.5827 42.6886 18.5116 42.7473 18.3827C42.8073 18.2542 42.8886 18.0653 43.0175 17.8493C43.1464 17.6356 43.3277 17.388 43.6082 17.2151C43.7464 17.128 43.9086 17.0631 44.0824 17.0378C44.2566 17.0138 44.4411 17.0418 44.6108 17.1209C44.9531 17.2836 45.1948 17.5733 45.4504 17.7938C45.702 18.0178 45.9877 18.1818 46.2575 18.1845C46.5228 18.1898 46.7251 18.0769 46.8197 17.9671C46.87 17.9133 46.894 17.8609 46.9082 17.8258C46.9202 17.7902 46.9246 17.7711 46.922 17.7702Z" fill="#BF9892"/>
<path d="M43.1193 16.6711C43.114 16.6645 43.0166 16.728 42.898 16.872C42.7793 17.0147 42.6504 17.2453 42.5895 17.5249C42.53 17.8049 42.5522 18.068 42.6015 18.2467C42.65 18.4267 42.7126 18.5249 42.7202 18.5209C42.7331 18.5156 42.6913 18.4102 42.6589 18.2342C42.626 18.0587 42.614 17.8089 42.6709 17.5422C42.7291 17.276 42.8429 17.0534 42.9451 16.9071C43.0473 16.76 43.1291 16.6814 43.1193 16.6711Z" fill="#BF9892"/>
<path d="M34.6775 36.1765C34.6775 36.1765 33.8219 35.3991 33.8962 34.56C33.9704 33.7209 33.8917 32.7623 34.6775 31.7494C35.1708 31.1134 38.7695 26.7476 38.7695 26.7476L38.4717 31.4618L34.6775 36.1765Z" fill="#A07B77"/>
<path d="M36.8179 34.1458C36.8179 34.1458 35.757 33.6098 34.8642 34.3538C33.9713 35.0978 31.665 39.7107 31.665 39.7107C31.665 39.7107 33.4135 41.7569 34.0459 41.8311C34.6784 41.9053 37.2082 42.1289 37.3566 42.1289C37.5055 42.1289 38.8073 36.9209 38.8073 36.9209L36.8179 34.1458Z" fill="#BD9595"/>
<path d="M40.1963 26.1987C40.1963 26.1987 39.1839 25.8609 38.3981 27.1738C37.947 27.9271 35.3848 34.56 35.3848 34.56L36.9101 35.0231L40.1963 26.1987Z" fill="#BD9595"/>
<path d="M34.6186 34.6009C34.627 34.6116 34.7332 34.5298 34.9079 34.4098C35.0808 34.2956 35.3412 34.1271 35.6563 34.144C35.9706 34.1631 36.2172 34.3489 36.3839 34.4733C36.5514 34.604 36.6528 34.6911 36.6617 34.6813C36.6692 34.6733 36.5843 34.5707 36.4239 34.4249C36.3426 34.3533 36.2421 34.2702 36.1154 34.1978C35.9897 34.1258 35.8341 34.0636 35.6612 34.0551C35.4883 34.0436 35.3266 34.092 35.1946 34.1533C35.0626 34.2169 34.9554 34.2916 34.871 34.3591C34.7021 34.4951 34.6114 34.5929 34.6186 34.6009Z" fill="#946F6F"/>
<path d="M34.1519 41.8725C34.1577 41.8751 34.2075 41.7796 34.2928 41.6045C34.379 41.4298 34.4968 41.1738 34.6364 40.8547C34.9159 40.2169 35.2724 39.3222 35.6062 38.3129C35.939 37.3031 36.1848 36.3716 36.3399 35.6929C36.4177 35.3534 36.4755 35.0778 36.5101 34.8863C36.5457 34.6947 36.5626 34.5885 36.5564 34.5871C36.5502 34.5858 36.5221 34.6898 36.4764 34.8787C36.4261 35.0818 36.3595 35.3511 36.279 35.6778C36.1088 36.3516 35.8537 37.2778 35.5221 38.2849C35.1893 39.2916 34.8435 40.1871 34.579 40.8303C34.4493 41.1409 34.3426 41.3974 34.2622 41.5903C34.1853 41.7694 34.1461 41.8698 34.1519 41.8725Z" fill="#946F6F"/>
<path d="M35.396 43.8067C35.5111 42.4662 37.5591 38.6818 37.5591 38.6818L43.7956 39.0085L44.2751 50.8107L37.4973 50.8409L36.9778 48.1796C36.9782 48.1796 35.2138 45.9253 35.396 43.8067Z" fill="#BF9892"/>
<path d="M35.8138 46.136C35.8182 46.1409 35.8827 46.088 35.9938 45.9885C36.1049 45.8889 36.2636 45.7431 36.4573 45.5618L36.4667 45.5533L36.4676 45.54C36.5013 45.1156 36.5409 44.5529 36.58 43.9374C36.6227 43.2645 36.6564 42.6547 36.6764 42.2107L36.6778 42.1845L36.6538 42.1782C36.4471 42.1254 36.272 42.0805 36.1298 42.044C36.0053 42.0142 35.936 42.0005 35.9342 42.0067C35.9324 42.0125 35.9987 42.0378 36.12 42.0778C36.2604 42.1218 36.4329 42.1756 36.6364 42.2396L36.6133 42.2071C36.5773 42.6498 36.5338 43.2591 36.4911 43.932C36.452 44.5476 36.4204 45.1107 36.4004 45.536L36.4107 45.5138C36.2227 45.7009 36.0711 45.8542 35.9676 45.9618C35.864 46.0694 35.8089 46.1311 35.8138 46.136Z" fill="#714E4E"/>
<path d="M35.5859 42.8854C35.5855 42.9098 35.8077 42.9329 36.0815 42.9365C36.3557 42.94 36.5779 42.9231 36.5784 42.8987C36.5788 42.8742 36.3566 42.8511 36.0828 42.8476C35.8086 42.844 35.5864 42.8609 35.5859 42.8854Z" fill="#714E4E"/>
<path d="M38.2389 38.9925H45.4816L46.5669 40.9573C46.5669 40.9573 48.2496 46.2391 49.3869 50.8111H40.5069L40.1576 48.2213C40.1576 48.2213 38.4225 46.7107 37.7518 44.5956C37.0816 42.48 38.2389 38.9925 38.2389 38.9925Z" fill="#BF9892"/>
<path d="M43.7796 42.6222C43.7814 42.6209 43.7525 42.6178 43.6956 42.6129C43.632 42.608 43.548 42.6018 43.4418 42.5938C43.2103 42.5782 42.8836 42.5565 42.472 42.5289C41.624 42.4765 40.4285 42.4027 39.0076 42.3147L38.9658 42.312V42.3542C38.9645 43.3738 38.9627 44.5196 38.9609 45.7347V45.7551L38.9765 45.7685C39.1423 45.9102 39.3192 46.0618 39.4974 46.2142C40.1129 46.74 40.7089 47.2489 41.2738 47.7316L41.2956 47.7502L41.3209 47.7373C42.1543 47.3209 42.9312 46.9329 43.6298 46.584L43.6494 46.5742L43.6503 46.5525C43.6925 45.3676 43.7276 44.3831 43.7525 43.6876C43.7627 43.3516 43.7707 43.0858 43.7765 42.8965C43.7783 42.8111 43.7796 42.7431 43.7809 42.6907C43.7814 42.644 43.7814 42.6209 43.7796 42.6222C43.7783 42.6236 43.7756 42.6493 43.7725 42.6978C43.7689 42.7516 43.7649 42.8218 43.7592 42.9102C43.7489 43.1013 43.7343 43.3698 43.7156 43.7089C43.6818 44.3987 43.6338 45.3747 43.5765 46.5493L43.5969 46.5178C42.8965 46.8636 42.1183 47.248 41.2827 47.6605L41.3298 47.6662C40.7658 47.1831 40.1703 46.6733 39.5556 46.1467C39.3769 45.9942 39.2 45.8427 39.0343 45.7009L39.0498 45.7347C39.048 44.5196 39.0463 43.3738 39.0449 42.3542L39.0032 42.3938C40.4147 42.4649 41.6023 42.5249 42.4445 42.5671C42.8605 42.5862 43.1907 42.6009 43.4245 42.6116C43.5338 42.6156 43.6209 42.6191 43.6863 42.6213C43.7463 42.6236 43.7783 42.6236 43.7796 42.6222Z" fill="#714E4E"/>
<path d="M39.0195 42.9876C39.0187 42.9938 39.0844 43.0071 39.204 43.0262C39.3235 43.0458 39.4969 43.0693 39.712 43.0956C40.1418 43.148 40.7369 43.2062 41.396 43.2471C42.0555 43.288 42.6533 43.3036 43.0862 43.3049C43.3027 43.3053 43.4778 43.3036 43.5986 43.2987C43.7195 43.2942 43.7866 43.2893 43.7866 43.2831C43.7866 43.2769 43.72 43.2707 43.5991 43.264C43.4591 43.2578 43.2884 43.2507 43.0875 43.2418C42.656 43.2245 42.0595 43.1987 41.4018 43.1582C40.744 43.1173 40.1493 43.0693 39.7187 43.0329C39.5187 43.0169 39.348 43.0031 39.2084 42.992C39.0871 42.9831 39.02 42.9813 39.0195 42.9876Z" fill="#714E4E"/>
<path d="M35.942 37.3667C36.0611 36.7125 37.7482 30.5929 38.4211 28.1618C38.6535 27.3214 39.1735 26.5387 40.0211 26.248C40.4224 26.1102 40.4602 26.0311 40.8504 26.0413C40.902 26.0427 41.2482 26.2658 41.7717 26.5129C42.5424 26.876 43.4037 27.0045 44.2477 26.888L44.8051 26.8111C45.4762 26.748 46.2615 26.8027 47.0464 27.824C47.6886 28.6591 50.1722 33.0427 50.1722 33.0427C50.1722 33.0427 51.0277 33.5671 51.0651 34.2538C51.1024 34.94 51.9206 37.4325 50.2468 37.916C48.5726 38.3996 47.494 37.3578 47.494 37.3578L46.7895 36.1973C46.8086 36.6573 46.8606 37.0156 46.9966 37.2249C47.1264 37.4249 47.9122 38.9925 47.8091 40.1178C47.7411 40.8631 46.5882 41.0222 46.5882 41.0222C46.5882 41.0222 46.4206 40.6707 45.7633 40.5662C44.9184 40.432 44.4242 40.4174 44.4242 40.4174L42.8246 39.4871L37.1668 38.9925C37.1664 38.9925 35.7931 38.1849 35.942 37.3667Z" fill="#A07B77"/>
<path d="M44.2808 32.4547C44.2612 32.44 44.827 33.3458 45.5457 34.4142C46.2648 35.4831 46.8643 36.3382 46.8848 36.3245C46.9052 36.3107 46.3372 35.4342 45.6194 34.3645C45.0163 33.4653 44.3412 32.4996 44.2808 32.4547Z" fill="#714E4E"/>
<path d="M43.533 31.3538C43.5486 31.3489 43.4637 31.124 43.4113 30.7444C43.3575 30.368 43.3544 29.8289 43.5224 29.2711C43.6904 28.7129 43.9908 28.2658 44.2441 27.9813C44.4975 27.6942 44.6926 27.5538 44.6824 27.5409C44.6793 27.5364 44.6273 27.5667 44.5401 27.6316C44.453 27.696 44.3326 27.7982 44.1979 27.9387C43.9282 28.2169 43.6104 28.6711 43.4375 29.2449C43.2646 29.8187 43.2784 30.3729 43.3495 30.7538C43.3841 30.9453 43.4281 31.0969 43.465 31.1991C43.5015 31.3018 43.5277 31.3556 43.533 31.3538Z" fill="#714E4E"/>
<path d="M44.1446 40.3285C44.1455 40.3373 44.3086 40.3262 44.549 40.2245C44.7873 40.1249 45.0997 39.9169 45.3277 39.5849C45.5557 39.2529 45.6379 38.8867 45.6455 38.6285C45.6548 38.3676 45.6064 38.2111 45.5975 38.2133C45.5824 38.2151 45.6073 38.3729 45.5824 38.624C45.5593 38.8729 45.4708 39.2187 45.2539 39.5342C45.037 39.8493 44.7459 40.056 44.5219 40.1671C44.2971 40.2805 44.1406 40.3138 44.1446 40.3285Z" fill="#714E4E"/>
<path d="M42.5765 39.4467C42.58 39.4569 42.6565 39.4449 42.7614 39.38C42.8654 39.3165 42.9938 39.1907 43.0627 39.0111C43.1316 38.8316 43.1196 38.6516 43.0849 38.5351C43.0503 38.4165 43.0009 38.3565 42.992 38.3618C42.9796 38.368 43.0071 38.436 43.0236 38.5485C43.0409 38.66 43.0405 38.82 42.98 38.9796C42.9191 39.1387 42.812 39.2578 42.7249 39.3294C42.6374 39.4014 42.5711 39.4338 42.5765 39.4467Z" fill="#714E4E"/>
<path d="M38.048 36.5653C38.0418 36.5653 38.0378 36.6093 38.036 36.6898C38.0325 36.7698 38.0396 36.8862 38.0583 37.0289C38.0952 37.3138 38.2045 37.704 38.4236 38.0871C38.6445 38.4698 38.9263 38.7609 39.1534 38.936C39.2667 39.024 39.364 39.0889 39.4347 39.1262C39.5049 39.1649 39.5449 39.1836 39.548 39.1782C39.556 39.1649 39.4054 39.0729 39.1934 38.8876C38.9809 38.7036 38.7152 38.4147 38.5005 38.0427C38.2876 37.6702 38.172 37.2947 38.12 37.0187C38.0672 36.7418 38.0636 36.5649 38.048 36.5653Z" fill="#714E4E"/>
<path d="M45.7456 34.4214C45.7536 34.4214 45.7487 34.3347 45.7749 34.1831C45.8029 34.0338 45.8687 33.8151 46.0358 33.5991C46.1989 33.3845 46.4789 33.1849 46.8353 33.1369C47.0113 33.1111 47.2024 33.1214 47.3869 33.1774C47.5731 33.2307 47.7438 33.3414 47.9055 33.4738C48.0682 33.6058 48.2167 33.7516 48.3789 33.8747C48.5389 33.9987 48.7176 34.0991 48.906 34.14C49.2864 34.2205 49.6411 34.0702 49.838 33.8645C50.0389 33.6547 50.1007 33.4174 50.1149 33.2627C50.122 33.1836 50.1162 33.1222 50.1118 33.0814C50.1051 33.0405 50.0998 33.0196 50.0967 33.02C50.0887 33.0209 50.1024 33.1071 50.0802 33.2587C50.0567 33.4071 49.9869 33.6298 49.7935 33.8205C49.6047 34.0067 49.2713 34.1387 48.9238 34.0605C48.7522 34.0209 48.586 33.9271 48.4318 33.8058C48.2758 33.6862 48.1282 33.5409 47.9616 33.4049C47.7962 33.2694 47.6122 33.1502 47.4118 33.0942C47.2131 33.0351 47.0096 33.0262 46.8229 33.056C46.4442 33.1111 46.1487 33.3316 45.9851 33.5614C45.8167 33.7929 45.7584 34.0231 45.7402 34.1782C45.7322 34.2569 45.7322 34.3178 45.7353 34.3591C45.7389 34.4 45.7424 34.4214 45.7456 34.4214Z" fill="#714E4E"/>
<path d="M44.1222 32.3796C44.1235 32.3822 44.1551 32.3685 44.2142 32.34C44.2724 32.3102 44.3577 32.2644 44.4617 32.196C44.6688 32.06 44.9586 31.8338 45.2293 31.476C45.3635 31.2978 45.4951 31.088 45.5964 30.8436C45.6968 30.6 45.7684 30.3178 45.7515 30.016C45.7373 29.7156 45.6119 29.4004 45.3768 29.1662C45.2591 29.0502 45.1124 28.9564 44.9457 28.9076C44.7808 28.8591 44.5919 28.8573 44.4253 28.9373C44.3431 28.9782 44.2693 29.0418 44.2244 29.124C44.1791 29.2053 44.1608 29.2991 44.1675 29.388C44.1791 29.5667 44.2693 29.7307 44.4039 29.8378C44.5391 29.9422 44.7026 29.9924 44.8599 30.0076C45.0182 30.024 45.1733 30.0089 45.3195 29.98C45.9111 29.8622 46.3604 29.4969 46.6031 29.1213C46.8497 28.7413 46.9146 28.3689 46.9248 28.1222C46.9302 27.9973 46.9204 27.9004 46.9137 27.8356C46.9039 27.7707 46.8968 27.7369 46.8937 27.7373C46.8848 27.7382 46.9088 27.8747 46.8902 28.12C46.8697 28.3622 46.7959 28.7231 46.5506 29.0867C46.3097 29.4453 45.8719 29.7916 45.3039 29.9C45.0284 29.9524 44.6995 29.9547 44.4573 29.7693C44.3431 29.6787 44.2639 29.5338 44.2555 29.3831C44.2422 29.2316 44.3231 29.0831 44.4644 29.0173C44.6039 28.9502 44.7724 28.9489 44.9208 28.9929C45.0711 29.0369 45.2057 29.1218 45.3155 29.2285C45.5346 29.4449 45.6537 29.7378 45.6697 30.0209C45.6879 30.3062 45.6226 30.5782 45.5279 30.8156C45.4324 31.0538 45.3071 31.2609 45.1786 31.4382C44.9195 31.7933 44.6408 32.0236 44.4417 32.1671C44.2417 32.3111 44.1182 32.372 44.1222 32.3796Z" fill="#714E4E"/>
<path d="M45.5557 38.8058C45.5553 38.7969 45.4944 38.8085 45.394 38.7805C45.2944 38.7547 45.1571 38.6765 45.0473 38.5267C44.9371 38.38 44.8673 38.1569 44.886 37.9133C44.9037 37.6711 45.0131 37.4053 45.2255 37.22C45.4371 37.0333 45.7082 36.9445 45.9522 36.94C46.198 36.9351 46.4144 37.0138 46.5744 37.1089C46.8988 37.3049 47.0086 37.5333 47.0233 37.5196C47.0277 37.5173 47.0051 37.4609 46.942 37.372C46.8788 37.284 46.7731 37.1622 46.6073 37.0551C46.4437 36.9485 46.2157 36.8573 45.9508 36.8578C45.6891 36.8578 45.3962 36.9502 45.1664 37.1533C44.9344 37.3556 44.818 37.6467 44.8037 37.9076C44.7877 38.1707 44.8704 38.4102 44.9966 38.5649C45.1215 38.7213 45.2762 38.7973 45.3855 38.8138C45.4402 38.8236 45.4837 38.8213 45.5122 38.8178C45.5415 38.8129 45.5562 38.8085 45.5557 38.8058Z" fill="#714E4E"/>
<path d="M36.6328 34.9796C36.6324 34.9809 36.6453 34.9871 36.6715 34.9973C36.703 35.0089 36.7413 35.0236 36.7888 35.0409C36.895 35.0667 37.0555 35.1067 37.2657 35.1009C37.4755 35.0996 37.7297 35.0609 38.0182 34.9987C38.307 34.9396 38.6337 34.8547 39.0008 34.8316C39.3653 34.8067 39.7759 34.8885 40.1319 35.132C40.4826 35.3671 40.7946 35.7618 40.8444 36.2396C40.8688 36.4747 40.807 36.724 40.6564 36.9196C40.5093 37.1156 40.2622 37.2418 40.0093 37.2045C39.8848 37.188 39.7626 37.1391 39.667 37.056C39.5715 36.9738 39.5093 36.8565 39.4919 36.7298C39.4599 36.4738 39.6022 36.2022 39.8204 36.052C40.0435 35.9013 40.3364 35.8858 40.5928 35.9511C40.8542 36.0138 41.0857 36.156 41.2839 36.3276C41.683 36.672 41.9715 37.1116 42.3502 37.4373C42.5382 37.6 42.7457 37.7382 42.9746 37.8129C43.2013 37.8871 43.4422 37.9058 43.6626 37.8493C43.7724 37.8213 43.8759 37.7751 43.9657 37.7116C44.0564 37.6489 44.1288 37.5698 44.1977 37.496C44.331 37.3436 44.4724 37.2165 44.6466 37.1609C44.9884 37.0405 45.3484 37.1302 45.5644 37.3151C45.787 37.5018 45.8635 37.7631 45.8773 37.9627C45.8906 38.1676 45.8408 38.3249 45.7982 38.4231C45.7528 38.5213 45.7164 38.5667 45.7204 38.5698C45.7204 38.5698 45.7622 38.5289 45.8142 38.4307C45.863 38.3329 45.9204 38.1729 45.9119 37.9609C45.903 37.7547 45.8302 37.48 45.5968 37.2773C45.3702 37.0778 44.9924 36.9773 44.6262 37.1018C44.2288 37.2053 44.0768 37.6991 43.6453 37.7782C43.4408 37.8293 43.2137 37.8107 42.9999 37.7391C42.7853 37.668 42.5862 37.5347 42.4048 37.376C42.0377 37.0582 41.7524 36.6191 41.3413 36.2618C41.1373 36.0845 40.8924 35.9329 40.6146 35.8658C40.3413 35.7969 40.0239 35.8093 39.771 35.9791C39.5266 36.1489 39.3697 36.444 39.4048 36.7418C39.4244 36.8889 39.4986 37.028 39.6097 37.1231C39.7204 37.2187 39.859 37.2733 39.9986 37.2916C40.1386 37.308 40.2835 37.2893 40.4097 37.2285C40.5364 37.1702 40.6417 37.0773 40.7244 36.9716C40.8884 36.7578 40.9542 36.484 40.9266 36.232C40.8697 35.7205 40.5399 35.3138 40.1733 35.0707C39.8017 34.82 39.3706 34.7391 38.9973 34.7689C38.6217 34.7973 38.295 34.8867 38.0079 34.9502C37.7213 35.0169 37.4715 35.0596 37.2653 35.0662C36.8493 35.0813 36.6355 34.9653 36.6328 34.9796Z" fill="#714E4E"/>
<path d="M37.668 30.8902C37.6738 30.9036 37.7974 30.7707 38.0912 30.7254C38.3778 30.6787 38.832 30.7676 39.2387 31.104C39.4427 31.2716 39.6343 31.4902 39.836 31.7302C40.0392 31.968 40.2525 32.2334 40.5405 32.4516C40.8272 32.66 41.1925 32.8347 41.5965 32.8031C41.7943 32.7858 41.9987 32.7129 42.1507 32.5645C42.2254 32.4907 42.2872 32.3982 42.3156 32.2911C42.3454 32.1845 42.3307 32.0627 42.2725 31.9645C42.1516 31.7707 41.9125 31.6818 41.7 31.7302C41.4863 31.7831 41.3325 31.9574 41.2605 32.1445C41.1845 32.3347 41.1952 32.5449 41.2507 32.7267C41.3067 32.9102 41.4018 33.0729 41.5125 33.2147C41.9627 33.7894 42.6494 34.0134 43.1854 33.9729C43.732 33.9316 44.1232 33.6831 44.3454 33.4876C44.4583 33.3876 44.532 33.2969 44.5814 33.2351C44.6272 33.1707 44.6494 33.136 44.6472 33.1342C44.6396 33.1276 44.5503 33.2702 44.3232 33.4614C44.0983 33.6458 43.7107 33.8787 43.1818 33.9102C42.9205 33.9236 42.6298 33.8787 42.3467 33.7569C42.0649 33.6356 41.7876 33.4391 41.5778 33.1645C41.4725 33.028 41.3836 32.8725 41.3325 32.7022C41.2818 32.5325 41.2738 32.3445 41.3418 32.176C41.4063 32.0089 41.5436 31.8587 41.7205 31.816C41.8929 31.7747 42.1014 31.8538 42.196 32.0094C42.2943 32.1676 42.2223 32.3756 42.0885 32.5009C41.956 32.6311 41.7703 32.6996 41.5889 32.716C41.2183 32.7471 40.8663 32.5849 40.5894 32.3854C40.312 32.1787 40.0978 31.9178 39.8925 31.6822C39.6885 31.4445 39.4907 31.224 39.2787 31.0556C38.8525 30.7138 38.3814 30.6329 38.0858 30.6916C37.936 30.7187 37.8289 30.7725 37.7623 30.8151C37.7285 30.836 37.7063 30.8574 37.6903 30.8694C37.6747 30.8822 37.6672 30.8894 37.668 30.8902Z" fill="#714E4E"/>
<path d="M38.4513 28.0014C38.4482 28.0058 38.5055 28.0525 38.618 28.1245C38.73 28.1969 38.9006 28.2894 39.1237 28.3765C39.5646 28.5525 40.2437 28.6809 40.9668 28.5298C41.69 28.3774 42.2597 27.9867 42.5926 27.648C42.7615 27.4787 42.8806 27.3249 42.954 27.2138C43.0277 27.1027 43.0611 27.0369 43.0566 27.0343C43.042 27.0236 42.8922 27.2805 42.5486 27.6027C42.2104 27.9236 41.6504 28.2947 40.9482 28.4427C40.246 28.5898 39.5842 28.4756 39.1451 28.3174C38.7011 28.1609 38.4606 27.9858 38.4513 28.0014Z" fill="#714E4E"/>
<path d="M37.84 40.5156C37.84 40.5156 37.7822 40.6622 37.7333 40.9422C37.6835 41.2213 37.6355 41.6298 37.6066 42.1369C37.5795 42.6431 37.5609 43.2498 37.5751 43.9191C37.6026 44.5871 37.8195 45.3089 38.1973 45.9813C38.4666 46.4631 38.7933 46.8889 39.1329 47.2591C39.4737 47.6284 39.8262 47.948 40.1715 48.2018L40.18 48.208L40.1813 48.2178C40.2822 48.9951 40.3657 49.6418 40.4253 50.0991C40.4529 50.3222 40.4742 50.4991 40.4898 50.6244C40.496 50.6822 40.5009 50.728 40.5049 50.7631C40.508 50.7947 40.5089 50.8107 40.5075 50.8111C40.5062 50.8111 40.5031 50.7955 40.4977 50.7644C40.492 50.7298 40.4849 50.684 40.4755 50.6271C40.4573 50.5022 40.4311 50.3258 40.3982 50.1031C40.3342 49.6467 40.2435 49.0009 40.1346 48.2244L40.1444 48.2404C39.7924 47.9853 39.4382 47.6662 39.0933 47.2951C38.7502 46.9236 38.42 46.4942 38.1484 46.008C37.7666 45.3289 37.5484 44.5978 37.5235 43.9209C37.512 43.2467 37.5351 42.6422 37.5671 42.1338C37.6009 41.6262 37.6551 41.2169 37.7115 40.9378C37.74 40.7982 37.7697 40.6916 37.7937 40.62C37.8057 40.5844 37.8169 40.5578 37.8249 40.5404C37.8337 40.5236 37.8391 40.5151 37.84 40.5156Z" fill="#714E4E"/>
<path d="M35.3868 43.9484C35.3851 43.9484 35.3855 43.9298 35.3877 43.8947C35.3913 43.8529 35.3962 43.8022 35.4015 43.7409C35.4228 43.6089 35.4606 43.4182 35.5255 43.1875C35.6522 42.7258 35.8673 42.1009 36.1308 41.4209C36.394 40.7404 36.6504 40.1324 36.8415 39.6942C36.9371 39.4751 37.0162 39.2991 37.0726 39.1778C37.0993 39.1222 37.1211 39.0764 37.1388 39.0391C37.1548 39.0075 37.1637 38.9915 37.1655 38.9924C37.1673 38.9933 37.1615 39.0107 37.1491 39.0435C37.134 39.0822 37.1148 39.1293 37.0922 39.1867C37.0384 39.3182 36.9655 39.4947 36.8775 39.7098C36.6962 40.1515 36.4455 40.7618 36.1824 41.4409C35.9193 42.12 35.6984 42.7413 35.5628 43.1982C35.4935 43.4262 35.4504 43.6142 35.4224 43.744C35.4126 43.8044 35.4046 43.8542 35.3984 43.8951C35.3926 43.9302 35.3886 43.9484 35.3868 43.9484Z" fill="#946F6F"/>
</g>
<path d="M36.0548 10.3116C36.7291 8.72409 35.9887 6.89055 34.4011 6.21631C32.8136 5.54207 30.98 6.28245 30.3058 7.86999C29.6315 9.45754 30.3719 11.2911 31.9595 11.9653C33.547 12.6396 35.3806 11.8992 36.0548 10.3116Z" fill="#FBFBFB"/>
<path d="M31.2742 12.6018C31.2711 12.6026 31.2657 12.5689 31.2373 12.516C31.2097 12.464 31.1529 12.3929 31.0573 12.3449C31.0097 12.3218 30.9529 12.3044 30.8911 12.3035C30.8293 12.3031 30.7631 12.3191 30.7049 12.3569C30.588 12.4289 30.4964 12.5818 30.5209 12.7418C30.5484 12.9009 30.684 13.0173 30.8177 13.048C30.8853 13.0653 30.9533 13.0591 31.0115 13.0391C31.0697 13.0186 31.1182 12.984 31.156 12.9471C31.2315 12.8715 31.2626 12.7862 31.2724 12.728C31.2822 12.6689 31.2769 12.6351 31.28 12.6346C31.2809 12.6346 31.2826 12.6426 31.2844 12.6591C31.2857 12.6671 31.2862 12.6773 31.2857 12.6889C31.2857 12.7009 31.2857 12.7146 31.2831 12.7298C31.2764 12.7902 31.2475 12.8804 31.1702 12.9618C31.1315 13.0018 31.0813 13.0391 31.0191 13.0622C30.9573 13.0844 30.8835 13.092 30.8111 13.0742C30.7386 13.0582 30.6671 13.02 30.6093 12.9635C30.5506 12.908 30.5066 12.8315 30.4915 12.7462C30.4786 12.6604 30.496 12.5742 30.5342 12.5026C30.5711 12.4306 30.6266 12.372 30.6902 12.3338C30.7533 12.2938 30.8253 12.2773 30.8911 12.2791C30.9573 12.2809 31.0169 12.3009 31.0662 12.3262C31.1653 12.3786 31.2217 12.4551 31.2471 12.5102C31.2542 12.524 31.2586 12.5369 31.2626 12.548C31.2666 12.5591 31.2693 12.5689 31.2706 12.5769C31.2737 12.5933 31.2751 12.6018 31.2742 12.6018Z" fill="#263138"/>
<path d="M30.3983 13.6853C30.3957 13.6862 30.3917 13.6649 30.373 13.632C30.3552 13.5995 30.3192 13.556 30.2597 13.5267C30.2019 13.4973 30.1152 13.4871 30.0419 13.5351C29.9699 13.5795 29.9134 13.6742 29.9285 13.7724C29.9454 13.8702 30.029 13.9422 30.1112 13.9613C30.1957 13.9835 30.2748 13.9462 30.3201 13.9C30.3672 13.8533 30.3872 13.8004 30.3939 13.7644C30.401 13.7275 30.3979 13.7062 30.401 13.7062C30.4023 13.7058 30.409 13.7271 30.4054 13.7662C30.4019 13.8049 30.3841 13.8627 30.3348 13.9147C30.3103 13.9404 30.2783 13.9644 30.2383 13.9795C30.1988 13.9942 30.1512 13.9991 30.1045 13.988C30.0125 13.9675 29.9188 13.8898 29.8992 13.7778C29.8823 13.6653 29.9463 13.5618 30.0272 13.5133C30.0677 13.488 30.1143 13.4773 30.1565 13.4787C30.1992 13.48 30.237 13.4929 30.2685 13.5093C30.3317 13.5431 30.3668 13.592 30.3828 13.6275C30.3992 13.6631 30.3997 13.6853 30.3983 13.6853Z" fill="#263138"/>
<path d="M33.2598 12.2324C33.2598 12.2324 33.2771 12.2302 33.3104 12.2271C33.3447 12.224 33.3944 12.22 33.4593 12.2147C33.4922 12.212 33.5287 12.2089 33.5691 12.2058C33.6091 12.2004 33.6527 12.1911 33.6998 12.1831C33.7469 12.1747 33.7976 12.1653 33.8518 12.1551C33.8793 12.1511 33.9069 12.144 33.9349 12.1351C33.9633 12.1271 33.9922 12.1187 34.022 12.1102C34.2633 12.0493 34.5473 11.9289 34.8469 11.7427C35.1451 11.5551 35.4549 11.2871 35.7149 10.9258C35.7469 10.8804 35.7793 10.8347 35.8122 10.788C35.842 10.7395 35.8696 10.6889 35.8989 10.6387C35.9131 10.6133 35.9278 10.588 35.9424 10.5627C35.9571 10.5373 35.9722 10.5115 35.9833 10.484C36.0078 10.4298 36.0322 10.3751 36.0571 10.32C36.0696 10.2924 36.0825 10.2649 36.0945 10.2364C36.1042 10.2075 36.114 10.1782 36.1238 10.1489C36.1433 10.0902 36.1633 10.0311 36.1838 9.97154C36.202 9.9111 36.2131 9.84843 36.2287 9.78621C36.2358 9.7551 36.2429 9.72354 36.2505 9.69199C36.254 9.67599 36.258 9.66043 36.2607 9.64443L36.2669 9.59599C36.282 9.46621 36.3056 9.3351 36.3029 9.19954C36.3033 9.13199 36.3087 9.06398 36.3056 8.99554C36.3002 8.9271 36.2949 8.85821 36.29 8.78887C36.2869 8.75421 36.286 8.7191 36.2807 8.68487C36.2745 8.65021 36.2682 8.61599 36.262 8.58087C36.2487 8.51154 36.2389 8.44087 36.2229 8.37154C36.182 8.23465 36.1504 8.09243 36.0904 7.95776C36.0771 7.92354 36.0633 7.88932 36.05 7.8551C36.0429 7.83821 36.0367 7.82043 36.0291 7.80354L36.0038 7.75421C35.97 7.68799 35.9358 7.62176 35.9016 7.55465C35.8642 7.48976 35.8211 7.42754 35.7807 7.3631C35.7593 7.33154 35.7411 7.29776 35.7171 7.26799L35.646 7.17776C35.5558 7.05287 35.4438 6.94443 35.3362 6.83065C35.2771 6.77954 35.2171 6.72799 35.1576 6.67599L35.1127 6.63732C35.0971 6.62532 35.0802 6.61421 35.0642 6.60265L34.9669 6.53332L34.8691 6.46399L34.7647 6.40354L34.6598 6.3431L34.6073 6.31287C34.5891 6.30399 34.5704 6.29599 34.5522 6.28754C34.4784 6.25421 34.4038 6.22043 34.3296 6.1871C34.2522 6.16087 34.1744 6.13465 34.0962 6.10799C33.7802 6.01376 33.446 5.9671 33.1069 5.9711C32.7682 5.98399 32.4362 6.0471 32.1251 6.15643C32.0482 6.18665 31.9718 6.21687 31.8958 6.2471C31.8229 6.28443 31.7505 6.32176 31.678 6.35865L31.6242 6.38665L31.5731 6.41954L31.4713 6.48487L31.37 6.55021L31.2758 6.62443L31.182 6.69821L31.1353 6.7351L31.0922 6.77599C31.0349 6.83065 30.978 6.88487 30.9211 6.9391C30.8189 7.05821 30.7127 7.17199 30.6287 7.30087L30.562 7.39465C30.5398 7.42576 30.5229 7.46043 30.5033 7.49287C30.466 7.5591 30.426 7.62354 30.3918 7.69021C30.3607 7.75865 30.33 7.82665 30.2993 7.89465L30.2762 7.94532C30.2696 7.96265 30.2642 7.98043 30.258 7.99776C30.246 8.03287 30.2345 8.06754 30.2225 8.10221C30.1691 8.23954 30.1447 8.3831 30.1104 8.52176C30.0976 8.59199 30.0913 8.6631 30.0816 8.73287C30.0771 8.76799 30.0727 8.80265 30.0682 8.83732C30.0647 8.87199 30.0656 8.9071 30.0642 8.94176C30.0625 9.0111 30.0607 9.08043 30.0589 9.14887C30.0598 9.21732 30.0678 9.28487 30.0718 9.35243C30.0758 9.48798 30.106 9.61776 30.1273 9.74665L30.1358 9.79465C30.1393 9.81065 30.1442 9.82576 30.1487 9.84176C30.1576 9.87287 30.1664 9.90399 30.1749 9.93465C30.1931 9.99599 30.2073 10.0582 30.2287 10.1178C30.2518 10.1764 30.2744 10.2347 30.2971 10.292C30.3082 10.3209 30.3198 10.3493 30.3309 10.3778C30.3447 10.4049 30.3584 10.4324 30.3722 10.4591C30.3998 10.5133 30.4273 10.5667 30.454 10.6195C30.4664 10.6467 30.4829 10.6711 30.4989 10.696C30.5149 10.7209 30.5304 10.7453 30.546 10.7698C30.5776 10.8187 30.6073 10.868 30.6398 10.9147C30.6749 10.9595 30.7096 11.0035 30.7438 11.0475C31.0211 11.3955 31.3438 11.648 31.6513 11.8204C31.6896 11.8422 31.7269 11.8649 31.7642 11.8849C31.8029 11.9027 31.8411 11.92 31.8785 11.9369C31.9158 11.9538 31.9527 11.9707 31.9882 11.9871C32.0064 11.9951 32.0238 12.004 32.042 12.0107C32.0602 12.0169 32.0784 12.0231 32.0962 12.0293C32.1678 12.0538 32.2362 12.0773 32.302 12.0995C32.3678 12.12 32.4327 12.1315 32.4931 12.1467C32.5233 12.1538 32.5527 12.1609 32.5816 12.1675C32.61 12.1751 32.638 12.1809 32.6656 12.1831C32.7202 12.1902 32.7713 12.1969 32.8189 12.2035C32.8664 12.2093 32.91 12.2169 32.9505 12.22C32.9909 12.2213 33.0273 12.2227 33.0602 12.2235C33.1251 12.2258 33.1749 12.2275 33.2096 12.2289C33.2424 12.2311 33.2598 12.2324 33.2598 12.2324C33.2598 12.2324 33.2424 12.2329 33.2091 12.2324C33.1749 12.232 33.1247 12.2311 33.0598 12.2302C33.0269 12.2298 32.99 12.2289 32.9496 12.228C32.9091 12.2253 32.8651 12.2182 32.8176 12.2129C32.77 12.2071 32.7184 12.2009 32.6633 12.1938C32.6358 12.1915 32.6078 12.1858 32.5789 12.1787C32.55 12.172 32.5207 12.1653 32.49 12.1587C32.4296 12.1435 32.3642 12.1324 32.298 12.1124C32.2322 12.0902 32.1633 12.0671 32.0913 12.0431C32.0731 12.0369 32.0549 12.0311 32.0367 12.0249C32.0185 12.0182 32.0011 12.0093 31.9829 12.0013C31.9469 11.9849 31.91 11.9684 31.8722 11.9515C31.8344 11.9347 31.7962 11.9173 31.7571 11.9C31.7193 11.8795 31.682 11.8573 31.6433 11.8355C31.334 11.6631 31.0082 11.4107 30.7278 11.0613C30.6931 11.0173 30.658 10.9729 30.6225 10.928C30.5896 10.8809 30.5598 10.8315 30.5273 10.7827C30.5113 10.7582 30.4958 10.7333 30.4793 10.7084C30.4633 10.6835 30.4469 10.6587 30.434 10.6315C30.4065 10.5782 30.3789 10.5244 30.3509 10.4702C30.3371 10.4431 30.3224 10.416 30.3091 10.388C30.2976 10.3591 30.2864 10.3307 30.2749 10.3013C30.2518 10.2435 30.2287 10.1849 30.2056 10.1258C30.1838 10.0662 30.1696 10.0035 30.1509 9.94176C30.142 9.91065 30.1331 9.87954 30.1242 9.84799C30.1198 9.83243 30.1149 9.81687 30.1113 9.80087L30.1024 9.75243C30.0802 9.62265 30.05 9.49199 30.0456 9.35554C30.0416 9.28754 30.0331 9.21954 30.0322 9.15021C30.034 9.08132 30.0358 9.01154 30.0376 8.94132C30.0389 8.90621 30.038 8.8711 30.0416 8.83599C30.046 8.80087 30.0504 8.76576 30.0549 8.73065C30.0647 8.66043 30.0709 8.58887 30.0838 8.51776C30.118 8.37776 30.1424 8.23287 30.1958 8.09421C30.2078 8.0591 30.2193 8.02399 30.2313 7.98887C30.2376 7.9711 30.2429 7.95332 30.2496 7.93599L30.2727 7.88487C30.3033 7.81643 30.3344 7.74799 30.3656 7.67865C30.3998 7.6111 30.4402 7.54621 30.4776 7.47954C30.4976 7.44665 30.514 7.41199 30.5367 7.38043L30.6038 7.28576C30.6887 7.15554 30.7953 7.04043 30.8984 6.92043C30.9558 6.86576 31.0131 6.81065 31.0709 6.75554L31.1145 6.71421L31.1616 6.67687L31.2562 6.60221L31.3513 6.5271L31.4536 6.46087L31.5562 6.39465L31.6078 6.36132L31.6624 6.33287C31.7353 6.29554 31.8087 6.25776 31.882 6.22043C31.9589 6.19021 32.0358 6.15954 32.1136 6.12887C32.4273 6.01821 32.7624 5.95465 33.1042 5.94176C33.4464 5.93776 33.7838 5.98487 34.1029 6.07999C34.1816 6.10665 34.2602 6.13332 34.3384 6.15999C34.4136 6.19421 34.4887 6.22799 34.5633 6.26176C34.582 6.27021 34.6007 6.27821 34.6189 6.28754L34.6722 6.31821L34.778 6.3791L34.8833 6.43999L34.982 6.51021L35.0802 6.57999C35.0967 6.59154 35.1131 6.6031 35.1291 6.6151L35.1744 6.65421C35.2349 6.70665 35.2949 6.75865 35.3549 6.81021C35.4638 6.92487 35.5762 7.03465 35.6673 7.16043L35.7389 7.25154C35.7629 7.28176 35.7816 7.31554 35.8029 7.34754C35.8433 7.41243 35.8869 7.47554 35.9247 7.54087C35.9593 7.60843 35.9936 7.67554 36.0278 7.74221L36.0531 7.79199C36.0607 7.80887 36.0669 7.82665 36.074 7.84399C36.0878 7.87865 36.1011 7.91332 36.1149 7.94754C36.1753 8.0831 36.2069 8.22665 36.2478 8.36487C36.2642 8.4351 36.274 8.50621 36.2873 8.57599C36.2936 8.6111 36.2998 8.64576 36.306 8.68087C36.3113 8.71554 36.3122 8.7511 36.3153 8.78576C36.3207 8.85554 36.3256 8.92487 36.3309 8.99376C36.3336 9.06265 36.3287 9.1311 36.3278 9.1991C36.33 9.33554 36.3064 9.46799 36.2909 9.59821L36.2847 9.6471C36.282 9.6631 36.2776 9.6791 36.274 9.6951C36.2664 9.72665 36.2593 9.75865 36.2522 9.79021C36.2367 9.85287 36.2251 9.91598 36.2064 9.97687C36.186 10.0369 36.166 10.0964 36.146 10.1555C36.1358 10.1849 36.126 10.2142 36.1162 10.2435C36.1042 10.272 36.0909 10.2995 36.0785 10.3275C36.0531 10.3831 36.0282 10.4382 36.0038 10.4929C35.9922 10.5209 35.9776 10.5462 35.9624 10.572C35.9478 10.5978 35.9331 10.6231 35.9184 10.6484C35.8887 10.6991 35.8611 10.7498 35.8309 10.7982C35.7976 10.8449 35.7647 10.8911 35.7322 10.9364C35.4696 11.2991 35.1567 11.5675 34.8562 11.7551C34.5545 11.9409 34.2682 12.0604 34.026 12.1195C33.9958 12.128 33.9669 12.136 33.9384 12.144C33.91 12.1524 33.8824 12.1595 33.8549 12.1631C33.8002 12.1724 33.7496 12.1813 33.702 12.1898C33.6544 12.1973 33.6109 12.2067 33.5709 12.2111C33.5304 12.2138 33.494 12.2164 33.4611 12.2187C33.3962 12.2231 33.3465 12.2262 33.3118 12.2284C33.2767 12.232 33.2598 12.2324 33.2598 12.2324Z" fill="#263138"/>
<path d="M33.4282 9.06886C33.6705 8.96709 33.8429 8.71731 33.8442 8.42264C33.846 8.03686 33.554 7.72264 33.1922 7.72086C32.8305 7.71909 32.5358 8.03064 32.5345 8.41642C32.5331 8.71375 32.7069 8.96664 32.9518 9.06842C31.9438 9.22042 31.9896 10.316 31.9896 10.316L34.3731 10.3271C34.3731 10.3275 34.4274 9.21997 33.4282 9.06886Z" fill="#BF9892"/>
<path d="M34.664 8.38399C34.7854 8.33332 34.8716 8.20799 34.872 8.06088C34.8729 7.86799 34.7267 7.7111 34.5458 7.71021C34.3649 7.70932 34.2178 7.86488 34.2169 8.05776C34.2165 8.20621 34.3032 8.33288 34.4258 8.38399C33.9218 8.45999 33.9445 9.00754 33.9445 9.00754L35.136 9.01288C35.1365 9.01332 35.1636 8.45954 34.664 8.38399Z" fill="#BF9892"/>
<path d="M31.8818 8.44798C32.0032 8.39732 32.0894 8.27198 32.0898 8.12487C32.0907 7.93198 31.9445 7.77509 31.7636 7.7742C31.5827 7.77332 31.4356 7.92887 31.4347 8.12176C31.4343 8.2702 31.5209 8.39687 31.6436 8.44798C31.1396 8.52398 31.1623 9.07154 31.1623 9.07154L32.3538 9.07687C32.3543 9.07687 32.3814 8.52354 31.8818 8.44798Z" fill="#BF9892"/>
<path d="M30.6036 7.32879L30.5156 7.46506L35.7849 10.8681L35.8729 10.7318L30.6036 7.32879Z" fill="#533A3A"/>
</g>
</g>
<defs>
<clipPath id="clip0_1141_49267">
<rect width="48" height="48" rx="24" fill="white"/>
</clipPath>
<clipPath id="clip1_1141_49267">
<rect width="48" height="48" fill="white"/>
</clipPath>
</defs>
</svg>
