<svg width="48" height="48" viewBox="0 0 48 48" fill="none" xmlns="http://www.w3.org/2000/svg">
<g clip-path="url(#clip0_1141_49267)">
<rect width="48" height="48" rx="24" fill="white"/>
<g clip-path="url(#clip1_1141_49267)">
<path d="M32.5103 13.0969C32.5997 12.4471 31.6828 11.9129 30.9939 11.8573C30.6655 11.8307 30.3241 11.8809 30.0126 11.7725C29.3379 11.5373 29.0686 10.6662 28.4108 10.3885C27.9188 10.1809 27.3526 10.3658 26.8752 10.6058C26.3983 10.8458 25.9268 11.148 25.3939 11.1822C24.9303 11.212 24.4272 11.04 24.0215 11.2662C23.7192 11.4351 23.561 11.7831 23.2823 11.9885C23.0099 12.1893 22.6543 12.232 22.3161 12.2502C21.9779 12.2685 21.6281 12.272 21.3201 12.4129C21.0121 12.5538 20.7575 12.8796 20.8215 13.212L32.5103 13.0969Z" fill="#FBFBFB"/>
<g opacity="0.42">
<path d="M13.1321 9.80665C13.1681 9.5462 12.8005 9.33198 12.5241 9.30976C12.3925 9.29909 12.2556 9.31909 12.1307 9.27598C11.8605 9.18176 11.7525 8.83242 11.4885 8.72131C11.2912 8.6382 11.0641 8.71198 10.8729 8.80842C10.6818 8.90487 10.4929 9.02576 10.2792 9.03954C10.0934 9.05154 9.89161 8.98265 9.72895 9.07331C9.60761 9.14087 9.5445 9.28042 9.4325 9.36309C9.32317 9.44354 9.18095 9.46087 9.04539 9.46798C8.90984 9.47554 8.76939 9.47687 8.64628 9.53331C8.52273 9.58976 8.42095 9.72042 8.44628 9.85376L13.1321 9.80665Z" fill="#BF9892"/>
</g>
<g opacity="0.42">
<path d="M51.2522 14.1413C51.2882 13.8809 50.9202 13.6666 50.6442 13.6444C50.5126 13.6337 50.3757 13.6537 50.2508 13.6106C49.9806 13.5164 49.8726 13.1671 49.6086 13.056C49.4113 12.9729 49.1842 13.0466 48.9931 13.1431C48.802 13.2395 48.6131 13.3604 48.3993 13.3742C48.2135 13.3862 48.0117 13.3173 47.8491 13.408C47.7277 13.4755 47.6646 13.6151 47.5526 13.6977C47.4433 13.7782 47.3011 13.7955 47.1655 13.8026C47.03 13.8102 46.8895 13.8115 46.7664 13.868C46.6428 13.9244 46.5411 14.0551 46.5664 14.1884L51.2522 14.1413Z" fill="#BF9892"/>
</g>
<g opacity="0.42">
<path d="M49.0249 7.484C49.1534 6.55111 47.8369 5.78355 46.8476 5.704C46.376 5.66577 45.8858 5.73822 45.4387 5.58222C44.4702 5.24489 44.0836 3.99378 43.1387 3.59511C42.4325 3.29733 41.6191 3.56222 40.9342 3.90711C40.2494 4.252 39.5725 4.68533 38.8076 4.73466C38.1422 4.77733 37.4196 4.53066 36.8369 4.85555C36.4031 5.09777 36.1756 5.59777 35.776 5.89289C35.3849 6.18133 34.8742 6.24266 34.3889 6.26889C33.9036 6.29511 33.4009 6.3 32.9587 6.50266C32.5165 6.70489 32.1511 7.17244 32.2427 7.64977L49.0249 7.484Z" fill="#BF9892"/>
</g>
<g opacity="0.42">
<path d="M15.9795 18.0178C16.0991 17.1493 14.8733 16.4351 13.9524 16.3609C13.5133 16.3253 13.0569 16.3924 12.6409 16.2475C11.7395 15.9333 11.3791 14.7689 10.4995 14.3978C9.84176 14.1204 9.08487 14.3671 8.44709 14.688C7.80976 15.0089 7.17954 15.4129 6.46709 15.4582C5.84754 15.4978 5.17465 15.268 4.63287 15.5706C4.22887 15.796 4.01731 16.2618 3.64487 16.5364C3.28043 16.8049 2.80531 16.8618 2.35376 16.8866C1.90176 16.9111 1.43376 16.916 1.02265 17.1044C0.611093 17.2929 0.270648 17.728 0.355981 18.1724L15.9795 18.0178Z" fill="#BF9892"/>
</g>
<path d="M31.0966 49.4804C31.0966 49.4804 32.238 42.6258 31.382 38.5222L18.0971 38.64C18.0971 38.64 16.1611 46.2582 17.0735 49.528L31.0966 49.4804Z" fill="#533A3A"/>
<path d="M26.0221 19.2258C25.9665 16.3702 25.9105 13.5102 25.6074 10.6702L28.167 12.6C28.811 14.2969 28.1505 15.9542 28.7892 17.6533C29.1216 18.5382 29.7728 19.324 29.8456 20.2662C29.9039 21.0191 29.5781 21.7618 29.6341 22.5147C29.691 23.2796 30.1385 24.004 30.0448 24.7649C29.9754 25.3276 29.6203 25.808 29.2772 26.2596C29.1412 26.4387 28.9896 26.6289 28.7732 26.6902C28.6052 26.7378 28.4261 26.6991 28.2572 26.6564C27.8505 26.5533 27.4496 26.4262 27.0576 26.2764C26.7514 26.1596 26.4408 26.0218 26.219 25.7796C25.7328 25.2484 25.8296 24.4284 25.911 23.7129C26.0803 22.2253 26.0514 20.7227 26.0221 19.2258Z" fill="#3C2621"/>
<path d="M15.0835 32.6227C15.1057 31.9107 15.6426 25.0227 15.7381 24.3996C15.9572 22.9658 17.0266 22.3138 17.1572 22.2631L19.159 21.4773C21.4021 20.8529 28.8479 21.3342 28.8479 21.3342L30.0777 32.5542C30.0777 32.5542 31.5217 37.1609 31.5226 38.0729C31.5235 38.9849 31.7684 41.5209 31.7684 41.5209C31.7684 41.5209 27.7004 43.056 24.7626 42.8778C21.8244 42.7 17.375 41.6764 17.375 41.6764L18.0155 37.6053C18.0155 37.6053 17.5972 36.9378 17.8199 36.4262C17.8857 36.2751 17.9572 36.1191 18.0284 36.008C17.4972 35.96 16.8221 35.6924 16.3377 35.2929C15.027 34.212 15.0612 33.3342 15.0835 32.6227Z" fill="#AA827E"/>
<g opacity="0.3">
<path d="M30.9536 35.3569C30.1496 35.9938 29.1376 36.4169 28.1145 36.3462C27.6439 36.3138 27.1834 36.1791 26.7119 36.1662C25.9692 36.1453 25.2568 36.4245 24.5412 36.624C22.3808 37.2258 19.9799 37.0871 17.8945 36.2622L18.0336 36.0036C19.2252 36.2276 20.0701 35.8542 20.0701 35.8542C23.2732 35.3387 25.1954 34.6449 28.4394 34.7133C29.2905 34.7311 30.175 34.7969 30.9163 35.2156" fill="#040000"/>
</g>
<path d="M16.8732 34.1427C16.8687 34.1418 16.8776 34.0933 16.8976 34.0067C16.907 33.9631 16.9203 33.9102 16.9407 33.8507C16.9607 33.7907 16.9803 33.7213 17.0123 33.6484C17.0692 33.4996 17.1536 33.3289 17.2621 33.1484C17.3741 32.9698 17.5119 32.7822 17.6772 32.6036C17.8447 32.4267 18.0225 32.2764 18.1932 32.1524C18.3661 32.032 18.531 31.936 18.6754 31.8693C18.7461 31.8324 18.8141 31.8084 18.8723 31.7844C18.9305 31.76 18.9821 31.7431 19.0252 31.7307C19.1101 31.7049 19.1576 31.6929 19.159 31.6969C19.163 31.7089 18.975 31.7667 18.6959 31.9107C18.5559 31.9818 18.3963 32.08 18.2283 32.2013C18.0625 32.3253 17.8892 32.4742 17.7247 32.648C17.5625 32.8236 17.4256 33.0067 17.3127 33.1804C17.2034 33.3564 17.1159 33.5218 17.0541 33.6662C16.9301 33.9547 16.8856 34.1462 16.8732 34.1427Z" fill="#623F3F"/>
<path d="M16.2805 32.5542C16.2774 32.5506 16.3076 32.5209 16.3649 32.4697C16.4214 32.4177 16.5094 32.3493 16.6223 32.2711C16.8476 32.1142 17.1863 31.9315 17.5894 31.8093C17.9929 31.6884 18.376 31.6533 18.6507 31.6595C18.788 31.6622 18.8992 31.6711 18.9747 31.6831C19.0507 31.6942 19.092 31.7022 19.0916 31.7066C19.0903 31.7182 18.9218 31.6995 18.6507 31.7057C18.3796 31.7115 18.0049 31.7533 17.6085 31.872C17.2125 31.992 16.8769 32.1644 16.648 32.3097C16.4183 32.4546 16.288 32.5631 16.2805 32.5542Z" fill="#623F3F"/>
<path d="M19.0435 29.0387C19.048 29.0387 19.052 29.1067 19.0551 29.2289C19.0569 29.3636 19.0591 29.5382 19.0618 29.748C19.0622 29.9711 19.0627 30.2311 19.0631 30.5178C19.0627 30.6631 19.0622 30.8151 19.0618 30.9724C19.0635 31.1298 19.0529 31.2951 19.0698 31.456C19.0875 31.6169 19.1515 31.7676 19.2947 31.8293C19.4298 31.9013 19.5747 31.9484 19.7115 31.9933C19.984 32.0827 20.2307 32.164 20.4431 32.2338C20.6418 32.3013 20.8071 32.3578 20.9342 32.4013C21.0498 32.4422 21.1129 32.4671 21.1115 32.4716C21.1102 32.476 21.0444 32.4596 20.9262 32.4258C20.7969 32.3876 20.6298 32.3378 20.4284 32.2782C20.2151 32.2124 19.9667 32.1356 19.6929 32.0511C19.5542 32.0076 19.4075 31.9613 19.2635 31.8862C19.2275 31.8667 19.192 31.8458 19.1582 31.8164C19.1235 31.7849 19.0995 31.7507 19.0778 31.712C19.0351 31.6356 19.0142 31.5493 19.004 31.464C18.9862 31.292 18.9982 31.1298 18.9969 30.972C18.9987 30.8147 19.0004 30.6627 19.0022 30.5173C19.0071 30.2307 19.0115 29.9707 19.0151 29.7476C19.0209 29.5378 19.0258 29.3631 19.0293 29.2284C19.0342 29.1062 19.0391 29.0387 19.0435 29.0387Z" fill="#623F3F"/>
<path d="M15.4755 26.7819C15.4768 26.7819 15.4768 26.7934 15.4763 26.8152C15.4755 26.841 15.4741 26.873 15.4723 26.9125C15.467 27.0032 15.4599 27.1276 15.4506 27.2859C15.4283 27.6152 15.3968 28.0823 15.3577 28.6579C15.3159 29.2387 15.2666 29.9276 15.2119 30.6921C15.1839 31.0752 15.1541 31.477 15.1235 31.893C15.1083 32.1005 15.0932 32.3121 15.0777 32.5267C15.071 32.7405 15.0728 32.9583 15.1026 33.1756C15.1586 33.5863 15.2848 33.9947 15.523 34.2992L15.5261 34.3032L15.5266 34.3041C15.907 34.9325 16.4363 35.4099 16.9928 35.6819C17.5488 35.9596 18.1079 36.0481 18.5666 36.061C19.0279 36.0739 19.3963 36.0183 19.6457 35.9699C19.7706 35.945 19.8661 35.9214 19.9306 35.905C19.9599 35.8974 19.9839 35.8912 20.0039 35.8859C20.0203 35.8814 20.0288 35.8796 20.0292 35.8805C20.0297 35.8814 20.0217 35.8854 20.0057 35.8916C19.9897 35.8979 19.9657 35.9063 19.9341 35.9165C19.8706 35.937 19.7755 35.9641 19.6506 35.9925C19.4017 36.0481 19.0319 36.1107 18.5661 36.1036C18.103 36.0961 17.5355 36.0121 16.9683 35.733C16.4008 35.4596 15.859 34.9747 15.4723 34.3383L15.4759 34.3432C15.2203 34.0174 15.0972 33.6059 15.0381 33.1845C15.0079 32.9627 15.0061 32.7414 15.0132 32.5241C15.0292 32.3085 15.0448 32.0961 15.0599 31.8872C15.0919 31.4712 15.1226 31.0694 15.1523 30.6867C15.2123 29.9227 15.2666 29.2343 15.3123 28.6543C15.3599 28.0796 15.3986 27.613 15.4261 27.2841C15.4408 27.1263 15.4519 27.0019 15.4603 26.9116C15.4648 26.8725 15.4679 26.8405 15.471 26.8147C15.4723 26.793 15.4741 26.7819 15.4755 26.7819Z" fill="#623F3F"/>
<path d="M17.8516 37.4925C17.8525 37.4902 17.8778 37.5005 17.9249 37.5209C17.9783 37.5453 18.0458 37.576 18.1294 37.6142C18.3058 37.6973 18.5631 37.8142 18.8827 37.9533C19.5218 38.2325 20.4183 38.5876 21.4334 38.9062C22.4494 39.2236 23.3885 39.4427 24.0725 39.5778C24.4147 39.6458 24.692 39.6965 24.8845 39.7289C24.9747 39.7453 25.048 39.7587 25.1058 39.7689C25.1565 39.7787 25.1827 39.7849 25.1823 39.7871C25.1818 39.7893 25.1551 39.7876 25.104 39.7818C25.0458 39.7747 24.972 39.7653 24.8809 39.7542C24.6871 39.7298 24.4076 39.6858 24.064 39.6236C23.3765 39.5 22.4329 39.2871 21.4138 38.9689C20.396 38.6493 19.4991 38.2862 18.864 37.9956C18.5463 37.8507 18.2916 37.7276 18.1183 37.6369C18.0369 37.5942 17.9707 37.5596 17.9191 37.5325C17.8738 37.508 17.8507 37.4942 17.8516 37.4925Z" fill="#623F3F"/>
<path d="M19.0264 27.0467C19.0259 27.0445 19.0566 27.0347 19.1153 27.0183C19.1744 27.0023 19.2619 26.981 19.3762 26.9596C19.6046 26.9165 19.9401 26.8783 20.3557 26.8707C20.7713 26.8623 21.2646 26.8756 21.8126 26.8818C22.3615 26.8907 22.9633 26.901 23.5953 26.9112C24.857 26.9374 25.9988 26.9614 26.8344 26.9787C27.2433 26.9903 27.5766 27.0001 27.8157 27.0067C27.9264 27.0112 28.0148 27.0147 28.0824 27.0178C28.1433 27.021 28.1753 27.0241 28.1753 27.0263C28.1753 27.0285 28.1433 27.0303 28.0819 27.0312C28.0144 27.0316 27.9259 27.0321 27.8148 27.0325C27.5757 27.0307 27.2419 27.0285 26.833 27.0254C25.9975 27.013 24.8557 26.9961 23.5939 26.977C22.9619 26.9645 22.3601 26.953 21.8113 26.9423C21.2633 26.9325 20.7699 26.9143 20.3562 26.917C19.9424 26.9183 19.6086 26.9494 19.3802 26.9845C19.2659 27.0018 19.1775 27.0187 19.1179 27.0307C19.0588 27.0432 19.0268 27.049 19.0264 27.0467Z" fill="white"/>
<path d="M19.541 28.1818C19.541 28.1635 21.4232 28.1631 23.7441 28.1809C26.0659 28.1987 27.9477 28.2275 27.9472 28.2458C27.9472 28.264 26.0655 28.2644 23.7437 28.2467C21.4223 28.2289 19.5406 28.2 19.541 28.1818Z" fill="white"/>
<path d="M15.5928 26.1862C15.5915 26.1818 15.6377 26.1654 15.723 26.1391C15.8079 26.112 15.9328 26.08 16.0888 26.0476C16.4004 25.9822 16.8408 25.9276 17.3279 25.9414C17.8155 25.956 18.2519 26.036 18.559 26.1196C18.7128 26.1609 18.8359 26.2 18.919 26.232C19.0026 26.2631 19.0479 26.2822 19.0461 26.2867C19.0426 26.2974 18.8559 26.2356 18.5479 26.1649C18.2399 26.0938 17.8079 26.0222 17.3257 26.0076C16.8439 25.9942 16.4084 26.0405 16.0968 26.0938C15.7852 26.1462 15.5955 26.1974 15.5928 26.1862Z" fill="white"/>
<path d="M15.4366 27.1267C15.4352 27.1222 15.4819 27.1067 15.5677 27.0822C15.653 27.0569 15.7783 27.0275 15.9348 26.9982C16.2472 26.9387 16.6881 26.8929 17.1748 26.9151C17.6614 26.9387 18.0961 27.0253 18.4019 27.1138C18.5548 27.1578 18.677 27.1987 18.7597 27.232C18.8423 27.2644 18.8877 27.2844 18.8859 27.2884C18.8823 27.2991 18.6966 27.2347 18.3899 27.1587C18.0837 27.0827 17.653 27.004 17.1717 26.9809C16.6908 26.9591 16.2548 26.9969 15.9423 27.0444C15.6303 27.0907 15.4392 27.1373 15.4366 27.1267Z" fill="white"/>
<g opacity="0.3">
<path d="M17.9807 22.2223L21.4021 25.0689C21.4856 25.528 21.6407 27.4831 21.7247 27.9423C21.7376 28.0138 21.7505 28.0898 21.7225 28.1569C21.6656 28.2943 21.4638 28.3143 21.3398 28.2329C21.2154 28.1516 21.1505 28.0071 21.0923 27.8703C20.9812 28.2058 21.1274 28.5649 21.2318 28.9027C21.3363 29.2405 21.3812 29.6569 21.1274 29.9036C20.9194 30.1058 20.5901 30.1094 20.3038 30.0614C19.9527 30.0023 19.5989 29.8774 19.3478 29.6249C19.1274 29.4031 19.0056 29.1036 18.8985 28.8098C18.1318 26.7116 17.8167 24.4498 17.9807 22.2223Z" fill="#040000"/>
</g>
<g opacity="0.3">
<path d="M24.8746 22.5826C25.6751 23.9377 25.9222 25.5386 26.1533 27.0955C26.4271 28.9355 26.2289 30.8977 26.3284 32.7555C25.8426 32.6693 25.4986 32.2071 25.3786 31.7288C25.2582 31.2506 25.312 30.7484 25.3271 30.2555C25.4066 27.6853 24.424 25.1137 24.8746 22.5826Z" fill="#040000"/>
</g>
<path d="M28.8485 21.3342C30.1885 21.5845 32.2293 21.6351 32.1493 24.0796C32.068 26.5658 31.6262 30.8449 30.7765 32.2831C29.9267 33.7213 28.8809 34.4076 27.2791 33.5907C25.6778 32.7738 25.8738 30.2569 25.8738 30.2569L29.016 27.9036L28.5538 27.3151L28.8485 21.3342Z" fill="#AA827E"/>
<path d="M29.3301 33.7724C29.3306 33.7733 29.3213 33.7773 29.3026 33.7835C29.2804 33.7906 29.2528 33.7995 29.219 33.8102C29.1448 33.8306 29.0346 33.8613 28.8893 33.8848C28.6021 33.932 28.1564 33.9635 27.647 33.7831C27.1359 33.6133 26.6115 33.1862 26.2226 32.5826C26.1275 32.4302 26.0426 32.2635 25.987 32.08C25.9341 31.8986 25.8937 31.7097 25.8622 31.5151C25.8004 31.1262 25.779 30.7168 25.7719 30.2973L25.7715 30.28L25.7861 30.2702C26.0421 30.0951 26.311 29.9111 26.5848 29.724C27.5257 29.0826 28.4128 28.4782 29.1826 27.9537L29.2022 27.9404L29.219 27.9568C29.6235 28.3431 29.9781 28.7217 30.2364 29.1022C30.3675 29.2906 30.4688 29.4817 30.5524 29.6626C30.6315 29.8453 30.6924 30.0191 30.7301 30.1804C30.8106 30.5022 30.8244 30.764 30.8324 30.9408C30.8337 31.0297 30.8315 31.0977 30.831 31.1435C30.8301 31.1893 30.8288 31.2128 30.827 31.2128C30.8253 31.2128 30.8235 31.1893 30.8217 31.1435C30.8199 31.0933 30.8173 31.0262 30.8141 30.9417C30.8004 30.7657 30.7813 30.5062 30.6968 30.1893C30.6568 30.0306 30.5946 29.86 30.5141 29.6804C30.4293 29.5031 30.3279 29.3155 30.1964 29.1302C29.9377 28.7564 29.5835 28.3831 29.1786 28L29.2155 28.0031C28.447 28.5293 27.5613 29.136 26.6221 29.7795C26.3484 29.9662 26.079 30.1502 25.823 30.3248L25.8373 30.2973C25.8435 30.7155 25.8639 31.1217 25.9239 31.5066C25.9542 31.6986 25.9937 31.8857 26.0448 32.0644C26.0973 32.2404 26.179 32.4035 26.2715 32.5533C26.6515 33.1484 27.1626 33.572 27.6617 33.7435C28.1595 33.9262 28.5995 33.9026 28.8857 33.8626C29.0306 33.8426 29.1408 33.816 29.2159 33.7995C29.2506 33.7911 29.2781 33.7844 29.3008 33.7786C29.3199 33.7733 29.3301 33.7715 29.3301 33.7724Z" fill="#623F3F"/>
<path d="M28.4617 26.756C28.4435 26.7547 28.471 26.2498 28.523 25.6293C28.575 25.0084 28.6319 24.5067 28.6501 24.508C28.6683 24.5093 28.6408 25.0138 28.5888 25.6347C28.5363 26.2556 28.4795 26.7573 28.4617 26.756Z" fill="#623F3F"/>
<path d="M28.4678 26.3529C28.4673 26.3484 28.5171 26.3413 28.6064 26.3329C28.6962 26.324 28.8264 26.316 28.9873 26.3098C29.3091 26.2978 29.7553 26.3018 30.2456 26.3453C30.7358 26.3893 31.1758 26.4644 31.4904 26.5329C31.6478 26.5671 31.7744 26.5982 31.8611 26.6227C31.9478 26.6471 31.9953 26.6622 31.994 26.6667C31.9931 26.6711 31.9433 26.664 31.8553 26.6476C31.7531 26.6284 31.6282 26.6053 31.4816 26.5782C31.1656 26.5213 30.7273 26.4542 30.2398 26.4107C29.7522 26.3675 29.3091 26.356 28.9882 26.356C28.8389 26.3569 28.7122 26.3573 28.6078 26.3578C28.518 26.3595 28.4682 26.3578 28.4678 26.3529Z" fill="white"/>
<path d="M28.6963 27.3524C28.6963 27.348 28.7403 27.3449 28.8203 27.3427C28.8998 27.3404 29.0154 27.3409 29.1576 27.344C29.4425 27.3498 29.8354 27.3693 30.2683 27.4102C30.7012 27.4516 31.091 27.5062 31.3718 27.5538C31.5123 27.5778 31.6256 27.5991 31.7034 27.616C31.7812 27.6329 31.8238 27.6444 31.823 27.6489C31.8212 27.6582 31.647 27.636 31.3647 27.6C31.083 27.564 30.6932 27.5169 30.2616 27.476C29.8301 27.4351 29.439 27.4084 29.1554 27.3907C28.8718 27.3729 28.6963 27.3622 28.6963 27.3524Z" fill="white"/>
<path d="M31.2442 21.6147C31.2433 21.6111 31.2788 21.5978 31.3455 21.6005C31.4108 21.6031 31.5113 21.6236 31.6068 21.7009C31.7073 21.7751 31.7553 21.9231 31.8646 22.0058C31.8922 22.0249 31.9228 22.0365 31.9579 22.0378C31.9935 22.0405 32.0357 22.0338 32.0833 22.0423C32.1784 22.056 32.2579 22.1271 32.3042 22.2071C32.3522 22.288 32.3775 22.3747 32.3944 22.4583C32.4028 22.5009 32.4064 22.5405 32.4184 22.5725C32.4295 22.6045 32.4508 22.6276 32.4788 22.6494C32.5362 22.6885 32.6073 22.7316 32.6517 22.7871C32.6988 22.8409 32.7308 22.9005 32.7513 22.9565C32.793 23.0698 32.789 23.1703 32.7762 23.2347C32.7628 23.2996 32.7433 23.3316 32.7402 23.3303C32.7348 23.3285 32.7455 23.2943 32.7504 23.2311C32.7548 23.1689 32.7513 23.0756 32.7077 22.9734C32.6859 22.9227 32.6548 22.8698 32.6108 22.8231C32.5673 22.7738 32.5113 22.7427 32.4424 22.6974C32.4095 22.6743 32.3744 22.6383 32.3588 22.5938C32.3424 22.5507 32.3388 22.508 32.3304 22.4698C32.3139 22.3911 32.289 22.3107 32.2473 22.24C32.2055 22.1694 32.1442 22.1156 32.0722 22.1049C32.0375 22.0974 31.9975 22.1027 31.9535 22.0996C31.9086 22.0974 31.8637 22.08 31.8295 22.0543C31.7602 22.0023 31.7237 21.9347 31.6868 21.8787C31.6508 21.8209 31.6175 21.7711 31.5766 21.7351C31.4948 21.6614 31.4042 21.6347 31.3428 21.6249C31.2806 21.6156 31.2446 21.62 31.2442 21.6147Z" fill="#623F3F"/>
<path d="M31.5108 21.4214C31.5099 21.4178 31.545 21.4045 31.6121 21.4071C31.6774 21.4098 31.7779 21.4303 31.8734 21.5076C31.9739 21.5818 32.0219 21.7298 32.1312 21.8125C32.1588 21.8316 32.1894 21.8431 32.2245 21.8445C32.2601 21.8471 32.3023 21.8405 32.3494 21.8489C32.4445 21.8627 32.5241 21.9338 32.5703 22.0138C32.6183 22.0947 32.6436 22.1814 32.6605 22.2649C32.669 22.3076 32.6725 22.3471 32.6845 22.3791C32.6956 22.4111 32.717 22.4343 32.745 22.456C32.8023 22.4951 32.8734 22.5387 32.9179 22.5938C32.965 22.6476 32.997 22.7071 33.0174 22.7631C33.0592 22.8765 33.0552 22.9769 33.0423 23.0414C33.029 23.1063 33.0094 23.1383 33.0063 23.1369C33.001 23.1351 33.0116 23.1009 33.0165 23.0378C33.021 22.9756 33.0174 22.8823 32.9739 22.78C32.9521 22.7294 32.921 22.6765 32.877 22.6298C32.8334 22.5805 32.7774 22.5494 32.7085 22.504C32.6756 22.4809 32.6405 22.4449 32.625 22.4005C32.6085 22.3574 32.605 22.3147 32.5965 22.2765C32.5801 22.1983 32.5552 22.1174 32.5134 22.0467C32.4716 21.976 32.4103 21.9223 32.3383 21.9116C32.3036 21.904 32.2636 21.9094 32.2196 21.9063C32.1748 21.904 32.1299 21.8867 32.0956 21.8609C32.0263 21.8089 31.9899 21.7414 31.953 21.6854C31.917 21.6276 31.8836 21.5778 31.8428 21.5418C31.761 21.468 31.6703 21.4414 31.609 21.4316C31.5472 21.4227 31.5112 21.4271 31.5108 21.4214Z" fill="#623F3F"/>
<path d="M20.4905 10.2685C21.9136 9.0529 23.4118 9.59335 23.4118 9.59335C25.2758 8.98713 26.8825 10.2125 27.5398 11.2449L28.1674 12.6C27.0038 14.5111 24.7029 15.6791 22.5118 16.1307C21.8371 16.2698 21.1149 16.3187 20.4762 16.0596C19.7465 15.7636 19.4167 15.1827 19.1851 14.4298C19.1847 14.4298 19.0674 11.484 20.4905 10.2685Z" fill="#3C2621"/>
<path d="M24.4517 10.6258C25.7321 10.4654 27.3841 12.0258 27.4903 13.3116C27.6081 14.7405 27.6957 16.4894 27.5472 17.56C27.2481 19.7129 25.6081 20.0183 25.6081 20.0183L25.6468 22.2627L20.8357 22.0836L20.573 12.492L20.5459 11.7996L24.4517 10.6258Z" fill="#FAD6C8"/>
<path d="M27.0658 14.2322C27.0325 14.2687 26.8209 14.1184 26.5245 14.1251C26.2285 14.1273 26.0143 14.2838 25.9814 14.2482C25.9654 14.2327 25.9987 14.1669 26.0921 14.0962C26.1841 14.026 26.3414 13.9558 26.5263 13.9531C26.7107 13.9504 26.8672 14.0153 26.9578 14.0833C27.0498 14.1513 27.0823 14.2158 27.0658 14.2322Z" fill="#3C2621"/>
<path d="M24.1537 14.344C24.1204 14.3805 23.9084 14.2302 23.6124 14.2369C23.3164 14.2391 23.1022 14.3956 23.0693 14.36C23.0533 14.3445 23.0866 14.2787 23.1799 14.208C23.2719 14.1373 23.4293 14.0676 23.6137 14.0649C23.7982 14.0622 23.9546 14.1271 24.0453 14.1951C24.1377 14.2636 24.1702 14.3276 24.1537 14.344Z" fill="#3C2621"/>
<path d="M25.2629 16.5201C25.2611 16.5032 25.4446 16.4681 25.7424 16.4241C25.818 16.4147 25.8891 16.3983 25.9011 16.3467C25.918 16.2916 25.8846 16.2107 25.8464 16.1236C25.7717 15.9418 25.6935 15.7516 25.6117 15.5521C25.2851 14.7378 25.0473 14.0681 25.0802 14.0552C25.1131 14.0423 25.4046 14.6916 25.7309 15.5058C25.8095 15.7067 25.8846 15.8978 25.9562 16.081C25.9864 16.1663 26.0375 16.2627 26.0011 16.377C25.982 16.4338 25.9269 16.4761 25.8789 16.4898C25.8309 16.5054 25.7882 16.5072 25.7509 16.5103C25.4509 16.5316 25.2646 16.537 25.2629 16.5201Z" fill="#3C2621"/>
<path d="M25.5965 20.024C25.5965 20.024 24.0809 20.1423 22.6338 19.3103C22.6338 19.3103 23.4182 20.7925 25.636 20.5529L25.5965 20.024Z" fill="#C8A399"/>
<path d="M22.8509 13.2596C22.8665 13.1751 23.1642 13.1636 23.5002 13.0645C23.838 12.972 24.0976 12.8249 24.1549 12.8885C24.1811 12.9191 24.1456 13.0018 24.0465 13.0978C23.9487 13.1934 23.7842 13.296 23.5825 13.3538C23.3807 13.4111 23.1865 13.4102 23.0531 13.3805C22.9189 13.3511 22.8451 13.2996 22.8509 13.2596Z" fill="#3C2621"/>
<path d="M26.0086 12.9164C26.0872 12.8746 26.2761 13.0213 26.5326 13.1231C26.7855 13.2324 27.0241 13.2626 27.049 13.3475C27.0588 13.388 27.0006 13.4378 26.8823 13.4609C26.7659 13.4844 26.5903 13.4729 26.4152 13.4004C26.2406 13.328 26.109 13.2124 26.0441 13.1138C25.9775 13.0142 25.9726 12.9378 26.0086 12.9164Z" fill="#3C2621"/>
<path d="M18.7192 18.6218C18.909 17.4796 18.8912 16.3152 18.9481 15.1587C19.005 14.0023 19.1437 12.8276 19.6215 11.7729C20.0992 10.7183 20.9624 9.78939 22.0757 9.47117C23.1312 9.16983 24.3975 9.53694 24.9908 10.4467C23.1619 11.6129 21.9735 13.5165 21.6535 15.6609C21.7717 16.4454 22.0108 17.5103 22.069 18.2583C22.1597 19.4178 21.8864 20.5836 21.9828 21.7427C22.0601 22.6769 22.3766 23.5943 22.3121 24.5294C22.2695 25.1494 22.061 25.7445 21.9539 26.3565C21.8468 26.9685 21.8544 27.6418 22.2019 28.1569C21.5015 27.8974 21.0864 27.1529 20.9548 26.4178C20.8779 25.9889 20.877 25.5534 20.8872 25.1165C20.6481 26.4543 20.509 27.7832 20.8264 29.0952C20.1006 29.0721 19.2748 29.0005 18.8317 28.4249C18.6161 28.1449 18.5312 27.7889 18.4517 27.4445C18.3059 26.8134 18.1601 26.1823 18.0144 25.5512C17.8975 25.0458 17.7806 24.5378 17.7401 24.0209C17.5975 22.1894 18.4184 20.4338 18.7192 18.6218Z" fill="#3C2621"/>
<path d="M25.0822 10.5992C25.0542 10.5463 25.0227 10.4965 24.9902 10.4467C24.9965 10.4427 25.0022 10.4387 25.008 10.4352L25.0822 10.5992Z" fill="#623F3F"/>
<path d="M23.1675 15.4432C23.1782 15.4267 23.3426 15.5445 23.58 15.5561C23.8173 15.5729 23.9946 15.4756 24.0031 15.4934C24.0071 15.5 23.9689 15.5347 23.8929 15.5685C23.8178 15.6023 23.7031 15.6294 23.576 15.6218C23.4489 15.6138 23.3386 15.5729 23.268 15.5307C23.1964 15.4885 23.1622 15.4494 23.1675 15.4432Z" fill="#C8A399"/>
<path d="M26.2525 15.3547C26.2605 15.337 26.4116 15.4018 26.6071 15.3938C26.8027 15.3894 26.9494 15.3152 26.9587 15.3325C26.9703 15.3454 26.8245 15.4543 26.6094 15.4596C26.3938 15.4676 26.2418 15.3681 26.2525 15.3547Z" fill="#C8A399"/>
<path d="M26.4581 15.5556C26.4608 15.5369 26.5528 15.5374 26.6625 15.5236C26.7728 15.5112 26.8617 15.4894 26.8688 15.5067C26.8763 15.5227 26.7905 15.5752 26.6701 15.5889C26.5501 15.6036 26.4545 15.5729 26.4581 15.5556Z" fill="#C8A399"/>
<path d="M23.1751 15.7494C23.1813 15.7312 23.3146 15.7663 23.4813 15.7694C23.648 15.7738 23.7826 15.7449 23.7884 15.7632C23.7946 15.7792 23.6595 15.8401 23.48 15.8352C23.3004 15.8316 23.168 15.7649 23.1751 15.7494Z" fill="#C8A399"/>
<path d="M23.4518 18.0307C23.4189 18.0316 23.4047 17.8894 23.5105 17.7649C23.6153 17.64 23.758 17.6303 23.7625 17.6627C23.7296 17.6698 23.6429 17.7049 23.5656 17.7992C23.4851 17.8916 23.4856 18.0338 23.4518 18.0307Z" fill="#C8A399"/>
<path d="M24.6028 12.6369C24.6094 12.6182 24.7868 12.6751 25.0117 12.6782C25.2366 12.684 25.4161 12.6338 25.4219 12.6525C25.429 12.6676 25.249 12.7493 25.0103 12.744C24.7717 12.7405 24.5952 12.6516 24.6028 12.6369Z" fill="#C8A399"/>
<path d="M15.1812 23.5143C15.1781 23.5151 15.1625 23.4809 15.1612 23.4138C15.1599 23.3485 15.1754 23.2467 15.247 23.1471C15.3159 23.0427 15.4608 22.9867 15.5372 22.8734C15.555 22.8449 15.5643 22.8134 15.5639 22.7783C15.5648 22.7427 15.5554 22.7005 15.5617 22.6529C15.5701 22.5569 15.6372 22.4743 15.7141 22.4231C15.7923 22.3707 15.8772 22.3409 15.9599 22.3196C16.0021 22.3089 16.0412 22.3031 16.0728 22.2894C16.1039 22.2765 16.1261 22.2543 16.1461 22.2245C16.1821 22.1649 16.2212 22.0916 16.2745 22.044C16.3257 21.9938 16.383 21.9591 16.4385 21.9351C16.5497 21.8871 16.6501 21.8858 16.715 21.8951C16.7808 21.9049 16.8137 21.9223 16.8123 21.9258C16.811 21.9311 16.7759 21.9223 16.7128 21.9209C16.6505 21.92 16.5577 21.9285 16.4577 21.9778C16.4083 22.0023 16.3572 22.036 16.3132 22.0827C16.2661 22.1289 16.2385 22.1863 16.1968 22.2578C16.1759 22.292 16.1417 22.3289 16.0981 22.3467C16.0563 22.3654 16.0137 22.3711 15.9759 22.3818C15.8985 22.4027 15.8194 22.4316 15.751 22.4774C15.683 22.5227 15.6328 22.5871 15.6257 22.6596C15.6203 22.6947 15.6274 22.7343 15.6265 22.7783C15.6265 22.8231 15.6119 22.8694 15.5883 22.9049C15.5403 22.9769 15.475 23.0174 15.4208 23.0569C15.3652 23.096 15.3172 23.132 15.2834 23.1751C15.2145 23.2609 15.1928 23.3529 15.1861 23.4147C15.1803 23.4774 15.1865 23.5134 15.1812 23.5143Z" fill="#623F3F"/>
<path d="M14.9742 23.2582C14.9711 23.2591 14.9555 23.2249 14.9542 23.1578C14.9528 23.0924 14.9684 22.9907 15.04 22.8911C15.1088 22.7867 15.2537 22.7307 15.3302 22.6173C15.348 22.5889 15.3573 22.5573 15.3568 22.5222C15.3577 22.4867 15.3484 22.4444 15.3546 22.3969C15.3631 22.3009 15.4302 22.2182 15.5071 22.1671C15.5853 22.1147 15.6702 22.0849 15.7528 22.0635C15.7951 22.0529 15.8342 22.0471 15.8657 22.0333C15.8968 22.0204 15.9191 21.9982 15.9391 21.9684C15.9751 21.9089 16.0142 21.8355 16.0675 21.788C16.1186 21.7378 16.1764 21.7031 16.2315 21.6791C16.3426 21.6311 16.4431 21.6298 16.508 21.6391C16.5737 21.6489 16.6066 21.6662 16.6053 21.6698C16.604 21.6751 16.5688 21.6662 16.5057 21.6649C16.4435 21.664 16.3506 21.6724 16.2506 21.7218C16.2013 21.7462 16.1502 21.78 16.1062 21.8267C16.0591 21.8729 16.0315 21.9302 15.9897 22.0018C15.9688 22.036 15.9346 22.0729 15.8911 22.0907C15.8493 22.1093 15.8066 22.1151 15.7688 22.1258C15.6915 22.1467 15.6124 22.1755 15.544 22.2213C15.476 22.2667 15.4257 22.3311 15.4186 22.4035C15.4133 22.4387 15.4204 22.4782 15.4195 22.5222C15.4195 22.5671 15.4048 22.6133 15.3813 22.6489C15.3333 22.7209 15.268 22.7613 15.2137 22.8009C15.1582 22.84 15.1102 22.876 15.0764 22.9191C15.0075 23.0049 14.9857 23.0969 14.9791 23.1587C14.9733 23.2218 14.9795 23.2573 14.9742 23.2582Z" fill="#623F3F"/>
<path d="M27.7315 10.7925C27.7363 10.792 27.7417 10.8307 27.7524 10.8987C27.7644 10.9658 27.7772 11.0676 27.8306 11.1742C27.8577 11.2267 27.8972 11.2787 27.9546 11.3142C28.0097 11.352 28.0897 11.3636 28.1657 11.4165C28.2426 11.4698 28.2844 11.5685 28.2928 11.66C28.3048 11.7533 28.2986 11.8462 28.3039 11.9387C28.3079 12.0307 28.3261 12.1173 28.375 12.1818C28.4239 12.2471 28.4959 12.2938 28.5621 12.3436C28.7035 12.4382 28.7879 12.5871 28.8097 12.7129C28.8355 12.8405 28.8146 12.9462 28.7901 13.0125C28.7652 13.0796 28.7395 13.1102 28.7368 13.1085C28.7319 13.1058 28.7492 13.0711 28.7657 13.0053C28.7812 12.94 28.7937 12.84 28.7643 12.7231C28.7368 12.6062 28.6617 12.4805 28.5266 12.3929C28.4617 12.3453 28.3839 12.2987 28.3235 12.2209C28.2626 12.1418 28.2421 12.0387 28.2381 11.9422C28.2328 11.8453 28.239 11.7525 28.2288 11.668C28.2208 11.5831 28.1888 11.5093 28.1301 11.4653C28.0719 11.4213 27.991 11.4058 27.9248 11.36C27.8581 11.316 27.8155 11.2533 27.7884 11.1947C27.7359 11.0751 27.731 10.9707 27.7266 10.9013C27.7239 10.8316 27.727 10.7929 27.7315 10.7925Z" fill="#623F3F"/>
<path d="M27.2703 10.4649C27.2832 10.452 27.3059 10.4538 27.321 10.4689C27.3361 10.484 27.3379 10.5067 27.325 10.5195C27.3121 10.5324 27.2894 10.5307 27.2743 10.5155C27.2592 10.5004 27.2574 10.4778 27.2703 10.4649Z" fill="#623F3F"/>
<path d="M28.7719 13.8506C28.7559 13.8586 28.7084 13.792 28.6928 13.6955C28.6768 13.5986 28.7004 13.5204 28.7181 13.5231C28.7368 13.5249 28.743 13.5982 28.7577 13.6849C28.7715 13.7715 28.7888 13.8431 28.7719 13.8506Z" fill="#623F3F"/>
<path d="M15.0102 34.2009C15.0235 34.1987 15.0204 34.3716 15.1297 34.6142C15.1853 34.7338 15.2697 34.8693 15.3955 34.9898C15.5182 35.1156 15.6915 35.1973 15.8737 35.3C15.9635 35.3529 16.0493 35.4151 16.1151 35.4938C16.1799 35.5724 16.2222 35.6556 16.2804 35.7178C16.3942 35.8467 16.5391 35.9196 16.6613 35.9689C16.9102 36.0636 17.0764 36.0956 17.0728 36.108C17.0719 36.1124 17.0302 36.1076 16.9559 36.0942C16.8817 36.08 16.7742 36.0578 16.6448 36.0129C16.5173 35.9676 16.3622 35.8969 16.2355 35.7587C16.1706 35.6907 16.1253 35.6053 16.0657 35.5356C16.0062 35.4653 15.9271 35.408 15.8399 35.3569C15.7528 35.3053 15.6626 35.2609 15.5782 35.2093C15.4933 35.1582 15.4173 35.0978 15.3528 35.0333C15.2231 34.904 15.1391 34.7591 15.0866 34.6329C15.0346 34.5053 15.0155 34.3951 15.0084 34.3196C15.0013 34.2431 15.0066 34.2009 15.0102 34.2009Z" fill="#623F3F"/>
<path d="M14.6963 33.7676C14.7065 33.7529 14.7549 33.7725 14.7745 33.8285C14.794 33.884 14.7683 33.9302 14.7509 33.9249C14.7327 33.9205 14.7256 33.8862 14.7123 33.8502C14.7003 33.8133 14.6851 33.7818 14.6963 33.7676Z" fill="#623F3F"/>
<path d="M17.2337 36.2231C17.2288 36.2058 17.2861 36.1765 17.3617 36.184C17.4372 36.1911 17.4879 36.2302 17.4804 36.2462C17.4728 36.2631 17.419 36.2551 17.3555 36.2494C17.2924 36.2431 17.2381 36.2409 17.2337 36.2231Z" fill="#623F3F"/>
<path d="M30.7784 32.2831C30.7784 32.2831 31.6504 32.2266 31.913 32.4013C32.1757 32.576 32.1535 33.0426 32.1535 33.0426V33.2466C32.1535 33.2466 32.2419 33.5195 32.1281 33.7906C32.005 34.0849 31.513 33.94 31.513 33.94C31.513 33.94 31.8753 34.0222 31.8459 34.3431C31.8166 34.6635 31.513 34.704 31.513 34.704C31.513 34.704 31.5881 34.8755 31.5437 35.0146C31.4601 35.2769 31.1548 35.2871 31.1548 35.2871L30.6299 35.352C30.6299 35.352 28.6184 35.6955 28.181 35.608C27.7437 35.5204 26.8908 35.2289 26.8908 35.2289L26.665 32.8386L30.7784 32.2831Z" fill="#FAD6C8"/>
<path d="M26.6653 32.8387C26.6653 32.8387 22.8048 33.1565 21.1142 32.4445L19.9795 35.8036C19.9795 35.8036 26.5497 35.4551 26.891 35.2289C27.2319 35.0031 26.6653 32.8387 26.6653 32.8387Z" fill="#FAD6C8"/>
<path d="M30.7022 34.4458C30.7058 34.4307 30.8965 34.4458 31.1289 34.5053C31.3645 34.5649 31.524 34.6907 31.5125 34.7044C31.5018 34.7195 31.3378 34.6258 31.1116 34.5689C30.8862 34.5111 30.6974 34.4658 30.7022 34.4458Z" fill="#C8A399"/>
<path d="M30.6826 33.7511C30.6826 33.7422 30.7311 33.7333 30.8106 33.7258C30.8897 33.7187 31.0013 33.7124 31.1253 33.7302C31.2493 33.7462 31.3577 33.7929 31.4244 33.8413C31.4915 33.8911 31.5182 33.9356 31.5128 33.9404C31.5053 33.948 31.4675 33.9164 31.4 33.8809C31.3324 33.8458 31.2328 33.8102 31.116 33.7951C30.9995 33.7782 30.8911 33.7769 30.812 33.772C30.732 33.768 30.6822 33.7604 30.6826 33.7511Z" fill="#C8A399"/>
<path d="M30.5465 32.9582C30.5434 32.9564 30.5518 32.9315 30.5852 32.9C30.6185 32.8684 30.6816 32.8373 30.7625 32.8302C30.8429 32.8209 30.9389 32.8324 31.0389 32.852C31.1394 32.8702 31.2501 32.8911 31.3656 32.9164C31.5967 32.9666 31.8043 33.0315 31.9452 33.1013C32.0874 33.1698 32.1576 33.2413 32.1523 33.2466C32.1461 33.2546 32.0687 33.1991 31.9265 33.1435C31.7852 33.0866 31.5812 33.0302 31.3518 32.9804C31.2385 32.9564 31.1309 32.9333 31.0274 32.9111C30.9278 32.8884 30.8403 32.8737 30.7656 32.8764C30.6127 32.8769 30.5532 32.9662 30.5465 32.9582Z" fill="#C8A399"/>
<path d="M29.0748 28.0392C29.0748 28.0392 26.8424 23.6694 26.521 21.8885L24.8184 22.176L25.8757 30.2565L29.0748 28.0392Z" fill="#FAD6C8"/>
<path d="M25.296 18.2005C25.2454 18.1107 25.1774 18.0431 25.0969 18.0142C25.0174 17.984 24.9351 17.984 24.8676 17.9889C24.7316 18.0009 24.6458 18.0218 24.6436 18.0111C24.6418 18.004 24.7209 17.9676 24.8622 17.9427C24.9325 17.932 25.0222 17.9253 25.1178 17.9573C25.2147 17.9876 25.3 18.0716 25.3529 18.1676C25.5476 18.5533 25.676 18.8707 25.6618 18.8791" fill="#C8A399"/>
<path d="M24.5069 18.5947C24.5242 18.5876 24.5629 18.6418 24.6305 18.6782C24.6971 18.7174 24.7633 18.7222 24.766 18.7405C24.7713 18.7578 24.6865 18.7858 24.598 18.7356C24.5091 18.6858 24.4891 18.5987 24.5069 18.5947Z" fill="#C8A399"/>
<path d="M31.5031 31.4872C31.4996 31.4818 31.5405 31.464 31.5814 31.4036C31.6223 31.3436 31.6498 31.2378 31.6476 31.1054C31.6467 31.0396 31.6396 30.9645 31.6418 30.8832C31.6445 30.8027 31.6538 30.7098 31.7058 30.6249C31.7587 30.5378 31.8547 30.4898 31.9391 30.4476C32.0249 30.4054 32.1085 30.3538 32.128 30.2636C32.1485 30.1752 32.1263 30.0676 32.1436 29.9667C32.1569 29.8663 32.1876 29.7743 32.2191 29.6898C32.284 29.5209 32.3507 29.3765 32.3783 29.2463C32.4085 29.1169 32.4049 29.0085 32.3903 28.9365C32.3747 28.864 32.3551 28.8267 32.36 28.824C32.3627 28.8223 32.3907 28.856 32.4151 28.9303C32.4387 29.004 32.4498 29.1196 32.424 29.256C32.4009 29.3929 32.3365 29.5454 32.2765 29.7112C32.2471 29.7947 32.2196 29.8827 32.208 29.9756C32.1916 30.0676 32.2165 30.1649 32.1925 30.2796C32.18 30.3365 32.144 30.3889 32.1018 30.4236C32.0596 30.4596 32.0129 30.4832 31.9689 30.5054C31.8809 30.548 31.8005 30.5889 31.7574 30.6578C31.7129 30.7258 31.7014 30.8089 31.6965 30.8858C31.692 30.9636 31.6965 31.0365 31.6943 31.1063C31.6907 31.2445 31.6534 31.3578 31.6018 31.4192C31.5498 31.4805 31.5031 31.4903 31.5031 31.4872Z" fill="#623F3F"/>
<g opacity="0.36">
<path d="M0.828432 27.8534C0.828432 27.8534 1.50932 26.472 1.51199 26.1836L1.32354 24.4654C1.32354 24.4654 1.20488 24.3792 1.07554 24.6707C0.94621 24.9627 1.03865 25.272 1.03865 25.272L0.897321 25.6534L0.700877 25.3516L0.497765 24.2276C0.497765 24.2276 0.37021 23.4156 0.242654 23.4969C0.115099 23.5783 0.073321 23.8125 0.128432 24.1631C0.183543 24.5134 0.253321 24.9578 0.253321 24.9578C0.253321 24.9578 0.26621 25.096 0.141765 24.8614C0.017321 24.6272 -0.10179 23.6472 -0.148901 23.5147C-0.196012 23.3818 -0.207123 23.0334 -0.406234 23.0472C-0.605346 23.0609 -0.500012 23.5085 -0.500012 23.5085L-0.342679 24.9551C-0.342679 24.9551 -0.515568 24.3707 -0.548901 24.2707C-0.582235 24.1707 -0.62979 23.8529 -0.692012 23.6787C-0.754234 23.5045 -0.85379 23.4125 -0.942679 23.4209C-1.10223 23.4365 -1.10268 23.5823 -1.10268 23.5823L-0.836457 24.8223C-0.836457 24.8223 -0.686234 25.3885 -0.698234 25.424C-0.710234 25.4596 -0.911123 25.1845 -0.911123 25.1845L-1.06001 24.7809C-1.06001 24.7809 -1.17823 24.2103 -1.33023 24.1907C-1.48223 24.1707 -1.49023 24.2858 -1.49023 24.2858L-1.2649 25.3276L-0.833346 26.512L-0.420457 27.4107C-0.420457 27.4107 -0.400457 27.8716 -0.378235 27.9032C-0.355123 27.9347 0.828432 27.8534 0.828432 27.8534Z" fill="#BF9892"/>
<path d="M0.723208 25.4467C0.708097 25.4583 0.806764 25.6125 0.943208 25.7907C1.0801 25.9694 1.20276 26.1045 1.21787 26.0929C1.23299 26.0814 1.13432 25.9276 0.997875 25.7489C0.86143 25.5703 0.738319 25.4351 0.723208 25.4467Z" fill="#A07B77"/>
<path d="M-0.661091 25.8453C-0.665091 25.8662 -0.378869 25.9044 -0.0828691 26.0849C0.215798 26.2609 0.384242 26.4951 0.401131 26.4818C0.417131 26.4756 0.26602 26.2116 -0.0473135 26.0258C-0.359314 25.8369 -0.663314 25.8284 -0.661091 25.8453Z" fill="#A07B77"/>
<path d="M9.44011 29.1862C9.45122 29.1862 9.45077 29.0444 9.489 28.8217C9.52677 28.5999 9.613 28.2959 9.785 27.9982C9.95122 27.6973 10.1801 27.4733 10.3854 27.3866C10.5917 27.2977 10.7379 27.3448 10.7379 27.3306C10.7388 27.3279 10.7059 27.3111 10.6406 27.3039C10.5761 27.2959 10.4779 27.3008 10.3668 27.3417C10.1428 27.4213 9.89477 27.6555 9.725 27.9639C9.54766 28.2706 9.46677 28.5866 9.44055 28.8146C9.41433 29.0444 9.43211 29.1866 9.44011 29.1862Z" fill="#263138"/>
<path d="M9.16602 19.8387C9.22202 19.4769 9.54824 19.1991 9.90335 19.1115C10.2589 19.0244 10.6353 19.0973 10.9802 19.22C11.3669 19.3578 11.7371 19.5631 12.0162 19.8644C12.2953 20.1658 12.4758 20.5711 12.454 20.9809C12.4336 21.3653 12.2416 21.7511 12.3487 22.1209C12.43 22.4018 12.6678 22.6067 12.906 22.776C13.1442 22.9453 13.4025 23.104 13.5629 23.3489C13.7233 23.5933 13.7496 23.9573 13.5331 24.1533C13.3402 24.328 12.9945 24.348 12.9131 24.5951C12.8629 24.7484 12.9482 24.9084 12.9953 25.0631C13.0949 25.3898 13.0176 25.7538 12.8376 26.0435C12.6576 26.3333 12.3833 26.5555 12.086 26.7231C11.5651 27.0173 10.9153 27.1547 10.3651 26.92C10.0927 26.8035 9.86068 26.6027 9.6869 26.3631C9.39757 25.964 9.26824 25.4671 9.23802 24.9751C9.20779 24.4831 9.27046 23.9907 9.33357 23.5018L9.16602 19.8387Z" fill="#A07B77"/>
<path d="M8.97559 25.6924C9.42892 25.8178 9.93914 25.716 10.3103 25.4267C10.6814 25.1373 10.9045 24.6676 10.8938 24.1969C10.884 23.7578 10.6854 23.3102 10.8218 22.8924C10.9156 22.6058 11.156 22.3822 11.2365 22.0916C11.3569 21.6578 11.0943 21.2191 10.844 20.8449C10.6831 20.6049 10.5191 20.3609 10.2951 20.1787C10.0711 19.9964 9.77425 19.8813 9.49159 19.9413" fill="#A07B77"/>
<path d="M4.36334 23.3952C4.48112 22.8178 3.91045 22.2765 3.99489 21.6934C4.04245 21.3645 4.28823 21.1049 4.50867 20.8565C4.72912 20.6076 4.94823 20.3116 4.92378 19.98L6.45223 25.9827C5.314 26.3712 4.94423 25.7645 4.94423 25.7645C4.76645 25.516 4.522 25.324 4.32112 25.0943C4.12023 24.864 3.95845 24.5685 4.002 24.2658C4.04689 23.9529 4.30023 23.7045 4.36334 23.3952Z" fill="#A07B77"/>
<path d="M10.0171 20.4871C10.0255 20.1862 9.74777 19.9542 9.46777 19.844C9.18777 19.7338 8.87666 19.6925 8.62732 19.5245C8.40643 19.3756 8.25799 19.144 8.07088 18.9542C7.61221 18.4893 6.89577 18.2965 6.26555 18.4685C5.63532 18.6405 5.11621 19.1702 4.9571 19.804C4.84955 20.232 4.92288 20.7387 5.26066 21.0231C5.65221 21.3533 6.2331 21.28 6.73532 21.1773C7.2371 21.0747 7.80554 20.9733 8.22466 21.268C8.47754 21.4458 8.62243 21.7351 8.77666 22.0027C8.93132 22.2702 9.1251 22.5436 9.4171 22.644C9.7091 22.7445 10.106 22.5707 10.1175 22.2622" fill="#A07B77"/>
<path d="M8.83356 20.5488C9.09312 20.5768 9.28823 20.799 9.28245 21.0599L8.98245 27.855C8.97 28.6577 7.79667 29.1083 6.93756 29.0883C6.07001 29.0683 6.04201 28.6426 6.03089 27.879C6.01267 26.6035 6.01445 26.1248 6.01401 26.1319C6.01401 26.1319 4.91801 25.9474 4.69401 24.5163C4.58245 23.8048 4.62112 22.6381 4.68289 21.6848C4.73889 20.8266 5.31001 19.775 6.16467 19.8674L8.83356 20.5488Z" fill="#BF9892"/>
<path d="M5.28625 22.612C5.28269 22.7088 5.3618 22.792 5.46269 22.7973C5.56358 22.8031 5.64847 22.7293 5.65203 22.6324C5.65558 22.5355 5.57647 22.4524 5.47558 22.4466C5.37469 22.4413 5.2898 22.5151 5.28625 22.612Z" fill="#A07B77"/>
<path d="M4.92769 22.1998C4.95036 22.2238 5.08947 22.1211 5.2868 22.122C5.48414 22.1202 5.62858 22.222 5.65036 22.198C5.66103 22.1873 5.63791 22.1442 5.5748 22.098C5.51303 22.0522 5.4068 22.0073 5.28414 22.0078C5.16103 22.0082 5.05747 22.0531 4.99791 22.0993C4.93703 22.146 4.91658 22.1891 4.92769 22.1998Z" fill="#A07B77"/>
<path d="M7.2091 22.6618C7.20554 22.7587 7.28466 22.8418 7.38554 22.8471C7.48643 22.8529 7.57132 22.7791 7.57488 22.6822C7.57843 22.5853 7.49932 22.5022 7.39843 22.4965C7.29754 22.4911 7.21266 22.5649 7.2091 22.6618Z" fill="#A07B77"/>
<path d="M6.87004 22.3337C6.89271 22.3577 7.03226 22.2551 7.2296 22.2559C7.42693 22.2542 7.57137 22.3559 7.59315 22.3319C7.60382 22.3213 7.58071 22.2782 7.5176 22.2319C7.45582 22.1862 7.3496 22.1413 7.22693 22.1417C7.10382 22.1422 7.00026 22.1871 6.94071 22.2333C6.87982 22.2799 6.85893 22.3231 6.87004 22.3337Z" fill="#A07B77"/>
<path d="M6.15925 23.7963C6.16013 23.7852 6.03747 23.7634 5.8388 23.7377C5.78858 23.7323 5.74058 23.7221 5.73213 23.6879C5.72013 23.6514 5.74147 23.5972 5.76591 23.5386C5.81347 23.4168 5.86369 23.2888 5.91569 23.155C6.12413 22.6088 6.2748 22.1599 6.25258 22.1514C6.23036 22.1434 6.04369 22.579 5.83569 23.1252C5.78547 23.2599 5.73747 23.3883 5.69213 23.511C5.67302 23.5683 5.64013 23.6332 5.66547 23.7088C5.6788 23.7466 5.71569 23.7741 5.74813 23.7826C5.78058 23.7923 5.80858 23.7932 5.83391 23.7946C6.03436 23.8061 6.15836 23.8074 6.15925 23.7963Z" fill="#A07B77"/>
<path d="M6.0166 26.1319C6.0166 26.1319 6.97882 26.1959 7.93349 25.6252C7.93349 25.6252 7.44816 26.6079 6.0166 26.4705V26.1319Z" fill="#A07B77"/>
<path d="M6.79011 21.9878C6.80966 22.0416 7.00655 22.0167 7.23811 22.0451C7.47011 22.0691 7.65677 22.1371 7.68788 22.0891C7.70166 22.066 7.66922 22.0154 7.59366 21.9634C7.51899 21.9114 7.39944 21.8616 7.26077 21.846C7.12166 21.8305 6.99455 21.8522 6.91011 21.8865C6.82477 21.9202 6.78166 21.9625 6.79011 21.9878Z" fill="#A07B77"/>
<path d="M5.01082 21.7213C5.04548 21.7662 5.18148 21.72 5.34504 21.7182C5.50859 21.7106 5.64682 21.7489 5.67882 21.7022C5.69304 21.6795 5.67126 21.6346 5.61082 21.592C5.55126 21.5497 5.45171 21.5146 5.33926 21.5177C5.22682 21.5209 5.12948 21.5613 5.07259 21.6071C5.01482 21.6533 4.99571 21.6995 5.01082 21.7213Z" fill="#A07B77"/>
<path d="M5.88732 19.5574C6.95443 19.6854 8.00643 19.9409 9.0131 20.3169C9.24643 20.404 9.49176 20.5089 9.62998 20.7165C9.77621 20.936 9.7691 21.2196 9.75665 21.4832C9.69665 22.7676 9.63665 24.052 9.57665 25.3365L8.71621 24.9405C8.42243 24.6671 8.27043 24.2489 8.32065 23.8507C8.3651 23.4996 8.55443 23.1418 8.43265 22.8094C8.27176 22.3698 7.65532 22.2347 7.49176 21.7956C7.39665 21.5405 7.48198 21.2423 7.37443 20.9925C7.2731 20.7574 7.02599 20.6223 6.7851 20.5352C6.54465 20.448 6.28643 20.388 6.08421 20.2312C5.88287 20.0738 5.75665 19.7774 5.88732 19.5574Z" fill="#A07B77"/>
<path d="M10.7486 20.7435C10.7299 20.7591 10.5112 20.3946 10.0712 20.1466C9.63478 19.8915 9.2099 19.8866 9.2139 19.8626C9.2139 19.8542 9.31834 19.8431 9.48634 19.8657C9.65345 19.888 9.88278 19.9533 10.1081 20.0822C10.333 20.212 10.505 20.3768 10.6086 20.5102C10.7126 20.6431 10.7557 20.7391 10.7486 20.7435Z" fill="#F5F5F5"/>
<path d="M6.06547 24.4098C6.0988 24.4938 6.13258 24.5796 6.18813 24.6507C6.24369 24.7218 6.32547 24.7787 6.41569 24.7827C6.51213 24.7871 6.60502 24.7302 6.6588 24.6502C6.71258 24.5702 6.7308 24.4702 6.72635 24.3742C6.72235 24.2871 6.6828 24.1831 6.59613 24.1729C6.56013 24.1684 6.52458 24.1827 6.49124 24.196C6.33969 24.2573 6.18769 24.3191 6.03613 24.3804" fill="#BF9892"/>
<path d="M6.24627 24.7846C6.24849 24.7704 6.34849 24.8108 6.48894 24.7548C6.55694 24.7273 6.63116 24.6731 6.67249 24.5882C6.71338 24.5042 6.72183 24.3899 6.67827 24.2904C6.66849 24.2655 6.65338 24.2428 6.63872 24.2224C6.62049 24.2033 6.62405 24.2042 6.60449 24.2073C6.58583 24.2122 6.55605 24.2264 6.53161 24.2357C6.50627 24.2459 6.48138 24.2562 6.45694 24.2664C6.3596 24.3059 6.27116 24.3402 6.19694 24.3682C6.04805 24.4237 5.95338 24.4531 5.94938 24.4428C5.94494 24.4326 6.03116 24.3846 6.17472 24.3153C6.24627 24.2806 6.33205 24.2406 6.42805 24.1975C6.45205 24.1868 6.47649 24.1757 6.50183 24.1646C6.52849 24.1535 6.54849 24.1419 6.58494 24.1304C6.60272 24.1255 6.62805 24.1224 6.65249 24.1322C6.67649 24.1419 6.6916 24.1584 6.70272 24.1717C6.72316 24.1988 6.74094 24.2268 6.75383 24.2579C6.80716 24.3824 6.79427 24.5202 6.74005 24.6219C6.68449 24.7259 6.58983 24.7846 6.50894 24.8086C6.42716 24.8339 6.35649 24.8277 6.31161 24.8162C6.26583 24.8046 6.24449 24.7891 6.24627 24.7846Z" fill="#966F6C"/>
<path d="M2.26172 48.4724L3.91861 42.9915V38.4013L9.56794 37.6071L10.0093 39.4609C10.0093 39.4609 10.8035 40.52 11.1568 41.9324C11.1906 42.0671 11.2102 42.2031 11.2186 42.3404C11.4071 43.176 11.3475 45.0551 11.0355 45.6746C10.5853 46.5684 10.9582 48.4809 10.9582 48.4809H8.10483" fill="#A07B77"/>
<path d="M8.97546 27.0058L6.0159 27.4645L5.48879 27.9209C5.48879 27.9209 3.62612 31.548 3.5919 32.28C3.55412 33.0893 3.98835 34.4782 3.98835 34.4782L3.56212 37.6827C3.49901 38.0507 3.73812 38.404 3.89901 38.404L9.01146 37.7182C9.67812 37.5871 9.9519 37.2387 9.91057 36.8533L9.83457 36.1391L12.0181 28.8262C12.1475 29.2587 11.9452 27.6609 10.9706 27.3027C10.5577 27.1511 9.60301 26.8747 8.97546 27.0058Z" fill="#BF9892"/>
<path d="M5.76092 27.7058C5.76092 27.7058 4.84981 28.4076 3.98758 29.2062C3.12536 30.0049 0.825361 31.6018 0.825361 31.6018L1.05736 27.6893L-0.69775 27.4516C-0.69775 27.4516 -1.81553 31.8573 -1.27731 33.0071C-0.739084 34.1569 -0.195973 34.54 1.59247 33.9653C3.38047 33.3902 3.89158 33.1351 3.89158 33.1351L5.76092 27.7058Z" fill="#BF9892"/>
<path d="M5.30403 28.2019C5.30225 28.2005 5.28803 28.2183 5.26314 28.2534C5.23425 28.2956 5.19914 28.3472 5.15692 28.409C5.06625 28.545 4.93648 28.7432 4.7827 28.9925C4.47825 29.4903 4.06136 30.1947 3.78981 31.0525C3.51825 31.9112 3.50759 32.7499 3.63692 33.3241C3.6987 33.6121 3.78092 33.837 3.85114 33.9854C3.8827 34.0614 3.91692 34.1156 3.93648 34.1539C3.95736 34.1916 3.96936 34.2107 3.97159 34.2099C3.97736 34.2072 3.93736 34.1259 3.87603 33.9747C3.81381 33.8245 3.73959 33.5996 3.68492 33.3143C3.56981 32.7454 3.58759 31.921 3.85603 31.073C4.12492 30.225 4.53203 29.5205 4.82536 29.0174C4.97114 28.7734 5.09159 28.5725 5.18092 28.4232C5.21914 28.3583 5.25025 28.3045 5.27603 28.2605C5.29559 28.2236 5.30581 28.2032 5.30403 28.2019Z" fill="#A07B77"/>
<path d="M10.4125 27.3031C10.4125 27.3031 9.49121 28.5097 9.44054 29.6173C9.39032 30.7244 11.0939 37.3626 11.0939 37.3626L12.5877 43.4222L14.4472 42.736C14.4472 42.736 14.0143 38.4217 13.9321 37.8857C13.7605 36.7697 13.025 34.5942 12.9241 33.336C12.8237 32.0777 12.3574 29.6551 12.1268 29.0884C11.897 28.5222 11.8885 27.2715 10.4125 27.3031Z" fill="#BF9892"/>
<path d="M9.51777 30.2289C9.51555 30.2293 9.51644 30.2516 9.52088 30.2938C9.52666 30.344 9.53377 30.4049 9.54266 30.4787C9.56444 30.6387 9.60088 30.8698 9.65199 31.1538C9.75377 31.7222 9.91599 32.5031 10.1098 33.3622C10.3049 34.2213 10.4938 34.996 10.6382 35.5551C10.7107 35.8347 10.7715 36.06 10.8155 36.2151C10.8369 36.2862 10.8542 36.3449 10.8684 36.3933C10.8813 36.4338 10.8893 36.4547 10.8916 36.4542C10.8938 36.4538 10.8907 36.4316 10.8818 36.3898C10.8707 36.3404 10.8573 36.2809 10.8413 36.2084C10.8022 36.0409 10.7493 35.8164 10.6853 35.5431C10.5529 34.9716 10.3742 34.2 10.1764 33.3467C9.98266 32.488 9.81288 31.7093 9.69955 31.144C9.64577 30.8689 9.60177 30.6427 9.56888 30.4738C9.55511 30.4009 9.54399 30.3409 9.53466 30.2911C9.52577 30.2502 9.51999 30.2284 9.51777 30.2289Z" fill="#A07B77"/>
<path d="M12.8184 43.3378L13.0206 45.1222L14.653 46.6138C14.653 46.6138 14.7912 46.3898 14.7166 46.2036C14.6419 46.0173 15.0895 46.4458 15.0895 46.4458V47.4711C15.0895 47.4711 15.369 47.5831 15.4624 47.3404C15.5557 47.0982 15.6112 46.2222 15.6112 46.2222L15.4806 46.1289C15.4806 46.1289 15.6481 45.9796 15.6112 45.7187C15.6112 45.7187 15.7606 45.4018 15.7046 44.9729C15.6486 44.544 15.537 44.3204 15.537 44.3204L14.1997 42.828L12.8184 43.3378Z" fill="#BF9892"/>
<path d="M13.6374 45.0551C13.6232 45.0658 13.8214 45.3498 14.1192 45.6546C14.4161 45.9609 14.6943 46.1671 14.7054 46.1529C14.7183 46.1373 14.4623 45.9098 14.1685 45.6066C13.8739 45.3053 13.653 45.0431 13.6374 45.0551Z" fill="#A07B77"/>
<path d="M14.7839 45.3814C14.7706 45.3952 14.9448 45.5956 15.1724 45.8294C15.4004 46.0632 15.5964 46.2423 15.6101 46.2294C15.6239 46.2165 15.4501 46.0161 15.2217 45.7814C14.9933 45.5472 14.7973 45.3681 14.7839 45.3814Z" fill="#A07B77"/>
<path d="M15.0037 44.9724C14.9908 44.9875 15.1468 45.1355 15.3126 45.3395C15.4797 45.5426 15.5935 45.7249 15.6108 45.7155C15.6268 45.7075 15.5375 45.5053 15.3659 45.2964C15.1948 45.0862 15.0143 44.9586 15.0037 44.9724Z" fill="#A07B77"/>
<path d="M15.1924 44.5507C15.1795 44.5654 15.2981 44.688 15.4346 44.8462C15.5715 45.004 15.6759 45.1391 15.6924 45.1285C15.7079 45.1187 15.6275 44.9631 15.4866 44.8014C15.3466 44.6387 15.2044 44.5365 15.1924 44.5507Z" fill="#A07B77"/>
<path d="M8.18099 48.5222C8.17032 48.5151 8.42188 48.1027 8.74321 47.6C9.06455 47.0973 9.33388 46.696 9.34455 46.7027C9.35521 46.7098 9.10366 47.1222 8.78188 47.6249C8.46144 48.1271 8.1921 48.5289 8.18099 48.5222Z" fill="#A07B77"/>
</g>
<g opacity="0.31">
<path d="M45.9695 24.5977C46.4264 24.3857 46.7122 23.9186 46.8802 23.4439C47.0482 22.9697 47.126 22.4657 47.3126 21.9986C47.4518 21.6502 47.2989 21.0951 47.6118 20.8879C48.0033 20.6288 47.9989 19.9413 47.8478 19.5982C47.6833 19.2244 47.2366 18.9466 47.2064 18.8284C47.1269 18.5177 47.3975 18.1808 47.2971 17.8764C47.0611 17.1599 46.4771 17.2546 46.4771 17.2546C46.2109 16.9328 45.8509 16.5071 45.2669 16.3559C44.634 16.1924 43.7006 16.0711 43.1371 16.4022C42.5735 16.7337 42.1598 16.9551 41.9775 17.5826" fill="#A07B77"/>
<path d="M41.0886 18.4702C40.7566 18.5062 40.5077 18.7897 40.5148 19.1231L40.8984 27.7977C40.9144 28.8222 42.413 29.3977 43.5108 29.3724C44.6192 29.3466 44.6552 28.8035 44.669 27.8284C44.6921 26.2 44.6904 25.5888 44.6908 25.5982C44.6908 25.5982 46.0912 25.3626 46.3775 23.536C46.5197 22.6275 46.4708 21.1382 46.3912 19.9213C46.3197 18.8257 45.5904 17.4831 44.4979 17.6013L41.0886 18.4702Z" fill="#BF9892"/>
<path d="M46.0741 21.253C46.0786 21.3766 45.9777 21.4828 45.8488 21.4899C45.7199 21.497 45.6115 21.4028 45.6066 21.2792C45.6021 21.1557 45.703 21.0495 45.8319 21.0424C45.9608 21.0348 46.0692 21.129 46.0741 21.253Z" fill="#A07B77"/>
<path d="M46.0731 20.6969C46.0442 20.7275 45.8665 20.5964 45.614 20.5978C45.362 20.5955 45.1771 20.7253 45.1496 20.6946C45.1362 20.6809 45.1656 20.6258 45.246 20.5671C45.3251 20.5084 45.4602 20.4515 45.6176 20.4515C45.7745 20.452 45.9069 20.5098 45.9829 20.5684C46.0607 20.628 46.0874 20.6831 46.0731 20.6969Z" fill="#A07B77"/>
<path d="M43.5966 21.253C43.6015 21.3765 43.5002 21.4827 43.3713 21.4898C43.2424 21.497 43.1339 21.4027 43.129 21.2792C43.1246 21.1556 43.2255 21.0494 43.3544 21.0423C43.4833 21.0347 43.5917 21.129 43.5966 21.253Z" fill="#A07B77"/>
<path d="M43.6005 20.7493C43.5716 20.7799 43.3934 20.6488 43.1414 20.6502C42.8894 20.6479 42.7045 20.7777 42.6769 20.747C42.6636 20.7333 42.6925 20.6782 42.7734 20.6195C42.8525 20.5608 42.9876 20.5039 43.1449 20.5039C43.3018 20.5044 43.4343 20.5622 43.5103 20.6208C43.5881 20.6804 43.6147 20.7355 43.6005 20.7493Z" fill="#A07B77"/>
<path d="M44.5157 22.6164C44.5144 22.6022 44.6713 22.5746 44.9251 22.5417C44.9895 22.5351 45.0504 22.5222 45.0611 22.4782C45.0762 22.4315 45.0491 22.3622 45.0175 22.2875C44.9566 22.132 44.8931 21.9688 44.826 21.7977C44.5597 21.1004 44.3673 20.5271 44.3953 20.5168C44.4233 20.5062 44.662 21.0631 44.9282 21.76C44.9922 21.932 45.0535 22.096 45.1117 22.2524C45.1362 22.3253 45.1784 22.4084 45.1455 22.5048C45.1282 22.5528 45.0811 22.588 45.0397 22.5991C44.9984 22.6115 44.9624 22.6124 44.9304 22.6146C44.6757 22.6293 44.5171 22.6306 44.5157 22.6164Z" fill="#A07B77"/>
<path d="M44.693 25.5983C44.693 25.5983 43.4637 25.68 42.2441 24.9511C42.2441 24.9511 42.8646 26.2387 44.693 26.064V25.5983Z" fill="#A07B77"/>
<path d="M44.4071 23.2241C44.316 23.1045 44.1568 23.0392 43.9995 23.0561C43.8902 23.0681 43.7795 23.121 43.7133 23.2103C43.6471 23.2996 43.6333 23.4258 43.6942 23.5107C43.7626 23.6063 43.9048 23.6281 44.0248 23.5934C44.1453 23.5587 44.2484 23.4796 44.3466 23.4005C44.3737 23.3787 44.4017 23.3556 44.4186 23.3258C44.4355 23.2961 44.4391 23.257 44.4182 23.2321" fill="#AA8988"/>
<path d="M43.7758 22.7923C43.8167 22.7896 43.818 23.0634 44.0527 23.2572C44.2869 23.4514 44.5789 23.4203 44.5811 23.4585C44.5851 23.4758 44.5162 23.5118 44.3931 23.5154C44.2722 23.5198 44.0958 23.4816 43.9522 23.3629C43.8091 23.2443 43.7474 23.0856 43.7376 22.9732C43.7269 22.8585 43.7571 22.7905 43.7758 22.7923Z" fill="#A07B77"/>
<path d="M43.7083 20.018C43.6834 20.0864 43.4318 20.0544 43.1358 20.0908C42.8394 20.1211 42.6007 20.2082 42.5616 20.1468C42.5438 20.1175 42.5856 20.0531 42.6816 19.9864C42.7772 19.9197 42.9296 19.8566 43.1069 19.8366C43.2847 19.8166 43.4474 19.8446 43.5554 19.8882C43.6638 19.9317 43.7189 19.9855 43.7083 20.018Z" fill="#A07B77"/>
<path d="M45.984 20.2372C45.9395 20.2945 45.7658 20.2354 45.5569 20.2332C45.348 20.2234 45.1711 20.2723 45.1302 20.2127C45.1124 20.1838 45.14 20.1265 45.2173 20.0718C45.2933 20.0176 45.4209 19.9732 45.5644 19.9772C45.708 19.9816 45.8324 20.0332 45.9053 20.0914C45.9791 20.1505 46.0035 20.2092 45.984 20.2372Z" fill="#A07B77"/>
<path d="M42.0973 17.4645C42.0959 17.8302 42.2644 18.1929 42.5453 18.4271C42.8257 18.6618 43.2128 18.764 43.5728 18.6982C43.8519 18.6471 44.1582 18.5062 44.3999 18.6547C44.6542 18.8111 44.6648 19.1938 44.8902 19.3894C45.2124 19.6689 45.7248 19.4067 46.1337 19.528C46.4497 19.6218 46.6471 19.9231 46.8568 20.1769C47.0666 20.4307 47.3808 20.672 47.6968 20.5782C47.6768 20.2947 47.6559 20.0076 47.5715 19.736C47.4871 19.4645 47.3315 19.2054 47.0928 19.0498C46.9622 18.9649 46.8102 18.9129 46.6888 18.8151C46.4266 18.6036 46.3657 18.2356 46.2039 17.94C45.9951 17.5596 45.5919 17.292 45.1599 17.248C44.8004 17.2111 44.4297 17.3191 44.0795 17.2307C43.8204 17.1654 43.5942 16.9974 43.3315 16.9476C42.8204 16.8507 42.3453 17.2169 41.9746 17.5818" fill="#A07B77"/>
<path d="M41.1361 21.4218C41.0819 21.4072 40.8632 21.7294 41.2134 21.8085C41.8277 21.9472 41.9085 20.749 41.7717 20.4063C41.9939 20.2094 42.2183 20.0094 42.3877 19.7587C42.557 19.5085 42.7063 18.8258 42.6703 18.5183C42.8917 18.5312 43.8343 18.2201 43.7339 18.1916C43.505 18.1263 43.0361 17.9778 42.913 17.7792C42.6459 17.3476 42.1757 17.0534 41.6948 17.0796C41.2139 17.1058 40.7525 17.4854 40.6539 17.9925C40.0721 17.997 39.5045 18.3618 39.2254 18.9116C38.9463 19.461 38.9668 20.1725 39.277 20.7023C39.3583 20.841 39.4614 20.9796 39.4637 21.1436C39.4663 21.3467 39.3161 21.5081 39.2099 21.6761C38.9201 22.1343 38.9419 22.7641 39.1659 23.2632C39.3899 23.7623 39.5472 23.9378 39.8659 24.0378C40.4894 24.2334 39.7663 25.5165 40.8037 25.5165" fill="#A07B77"/>
<path d="M41.1624 21.9235C41.1429 21.5351 40.7193 21.2755 40.3824 21.4702C40.1975 21.5768 40.0558 21.792 40.0727 22.2044C40.118 23.3044 41.214 23.032 41.2144 23.0004C41.2149 22.9813 41.1851 22.3786 41.1624 21.9235Z" fill="#BF9892"/>
<path d="M40.8652 22.5978C40.8603 22.5947 40.8465 22.612 40.8145 22.628C40.7834 22.6436 40.7296 22.656 40.6714 22.6369C40.5532 22.5991 40.4479 22.4187 40.4345 22.2205C40.4274 22.1205 40.4448 22.0245 40.4768 21.944C40.507 21.8622 40.5568 21.8036 40.615 21.7911C40.6728 21.7751 40.7154 21.8085 40.7305 21.8391C40.7465 21.8693 40.7403 21.8916 40.7465 21.8933C40.7496 21.896 40.7692 21.8738 40.7585 21.8289C40.7532 21.8071 40.739 21.7818 40.7123 21.7618C40.6852 21.7413 40.6456 21.732 40.6052 21.7382C40.5208 21.7476 40.4474 21.8289 40.4119 21.9169C40.3719 22.0058 40.3501 22.1138 40.3581 22.2262C40.3741 22.4476 40.4963 22.6502 40.6576 22.6898C40.7359 22.7067 40.7994 22.6809 40.8319 22.6533C40.8643 22.6245 40.8692 22.6 40.8652 22.5978Z" fill="#A07B77"/>
<path d="M43.5079 22.8427C43.5297 22.8515 43.5746 22.7933 43.6515 22.7573C43.727 22.7186 43.8008 22.7187 43.807 22.696C43.8168 22.6751 43.7212 22.6302 43.615 22.6826C43.5084 22.7346 43.4853 22.8373 43.5079 22.8427Z" fill="#A07B77"/>
<path d="M43.2918 22.7564C43.3153 22.7586 43.342 22.6795 43.4176 22.6199C43.4909 22.5573 43.5736 22.5461 43.5758 22.5226C43.5829 22.4999 43.4669 22.471 43.3647 22.5559C43.262 22.6395 43.2682 22.759 43.2918 22.7564Z" fill="#A07B77"/>
<path d="M39.5268 21.0689C39.5325 21.0649 39.4916 21.0071 39.4401 20.8929C39.3912 20.7787 39.3343 20.6027 39.3405 20.3804C39.3454 20.1604 39.4276 19.896 39.6259 19.6804C39.7236 19.5733 39.8472 19.4796 39.9903 19.4142C40.133 19.3484 40.2965 19.3182 40.4659 19.3093C40.805 19.2933 41.1374 19.3458 41.4432 19.3102C41.7503 19.2764 42.0085 19.1507 42.1912 19.0107C42.3756 18.8702 42.4903 18.7187 42.557 18.6098C42.6228 18.4996 42.645 18.4316 42.641 18.4298C42.6254 18.4169 42.5214 18.6987 42.1561 18.9631C41.9756 19.092 41.7272 19.2058 41.4352 19.2338C41.1419 19.2644 40.8143 19.2102 40.4614 19.2258C40.2859 19.2351 40.1108 19.2676 39.9565 19.34C39.8028 19.4116 39.6716 19.5133 39.569 19.6293C39.361 19.8618 39.2792 20.1484 39.2823 20.3796C39.2836 20.6133 39.3521 20.7938 39.4112 20.9071C39.4734 21.0204 39.5236 21.0716 39.5268 21.0689Z" fill="#BF9892"/>
<path d="M39.5256 18.6293C39.5323 18.6439 39.6789 18.5035 39.9767 18.4973C40.1229 18.4928 40.2976 18.5204 40.4821 18.5826C40.6683 18.6435 40.8665 18.7355 41.0887 18.8052C41.3101 18.8777 41.5429 18.8977 41.7443 18.8621C41.9461 18.8275 42.1172 18.7515 42.2452 18.6679C42.3741 18.5844 42.4625 18.4955 42.5158 18.4297C42.5701 18.3639 42.5914 18.3212 42.5878 18.319C42.5754 18.3079 42.4696 18.4684 42.2145 18.6181C42.0878 18.6919 41.9229 18.7581 41.7323 18.787C41.5412 18.8164 41.3278 18.7964 41.1132 18.7266C40.8981 18.6595 40.6981 18.5688 40.5052 18.5101C40.3123 18.4493 40.1274 18.4266 39.9732 18.439C39.8185 18.4506 39.6985 18.4977 39.6256 18.543C39.5527 18.5884 39.5225 18.6261 39.5256 18.6293Z" fill="#BF9892"/>
<path d="M46.9249 17.7702C46.9156 17.7653 46.8996 17.8489 46.7996 17.9458C46.7036 18.0422 46.5102 18.1391 46.2627 18.1267C46.0156 18.1173 45.7471 17.9596 45.504 17.7373C45.2564 17.5196 45.0142 17.2213 44.6489 17.0462C44.4671 16.9605 44.2627 16.9302 44.0747 16.9578C43.8867 16.9858 43.7151 17.0573 43.5707 17.1507C43.2773 17.3369 43.0942 17.5987 42.9698 17.82C42.8449 18.0445 42.7716 18.2378 42.7204 18.3702C42.6707 18.5036 42.6471 18.5787 42.652 18.5805C42.6573 18.5827 42.6916 18.5116 42.7502 18.3827C42.8102 18.2542 42.8916 18.0653 43.0204 17.8493C43.1493 17.6356 43.3307 17.388 43.6111 17.2151C43.7493 17.128 43.9116 17.0631 44.0853 17.0378C44.2596 17.0138 44.444 17.0418 44.6138 17.1209C44.956 17.2836 45.1978 17.5733 45.4533 17.7938C45.7049 18.0178 45.9907 18.1818 46.2604 18.1845C46.5258 18.1898 46.728 18.0769 46.8227 17.9671C46.8729 17.9133 46.8969 17.8609 46.9111 17.8258C46.9231 17.7902 46.9276 17.7711 46.9249 17.7702Z" fill="#BF9892"/>
<path d="M43.1183 16.671C43.113 16.6644 43.0157 16.7279 42.897 16.8719C42.7783 17.0146 42.6494 17.2453 42.5886 17.5248C42.529 17.8048 42.5512 18.0679 42.6006 18.2466C42.649 18.4266 42.7117 18.5248 42.7192 18.5208C42.7321 18.5155 42.6903 18.4101 42.6579 18.2341C42.625 18.0586 42.613 17.8088 42.6699 17.5421C42.7281 17.2759 42.8419 17.0533 42.9441 16.907C43.0463 16.7599 43.1281 16.6813 43.1183 16.671Z" fill="#BF9892"/>
<path d="M34.6785 36.1764C34.6785 36.1764 33.8229 35.3991 33.8971 34.56C33.9714 33.7209 33.8927 32.7622 34.6785 31.7493C35.1718 31.1133 38.7705 26.7475 38.7705 26.7475L38.4727 31.4618L34.6785 36.1764Z" fill="#A07B77"/>
<path d="M36.8199 34.1457C36.8199 34.1457 35.759 33.6097 34.8661 34.3537C33.9732 35.0977 31.667 39.7106 31.667 39.7106C31.667 39.7106 33.4154 41.7568 34.0479 41.8311C34.6803 41.9053 37.2101 42.1288 37.3586 42.1288C37.5074 42.1288 38.8092 36.9208 38.8092 36.9208L36.8199 34.1457Z" fill="#BD9595"/>
<path d="M40.1983 26.1987C40.1983 26.1987 39.1858 25.8609 38.4001 27.1738C37.9489 27.9271 35.3867 34.56 35.3867 34.56L36.9121 35.0231L40.1983 26.1987Z" fill="#BD9595"/>
<path d="M34.6205 34.6009C34.629 34.6115 34.7352 34.5298 34.9098 34.4098C35.0827 34.2955 35.3432 34.1271 35.6583 34.144C35.9725 34.1631 36.2192 34.3489 36.3858 34.4733C36.5534 34.604 36.6547 34.6911 36.6636 34.6813C36.6712 34.6733 36.5863 34.5706 36.4258 34.4249C36.3445 34.3533 36.2441 34.2702 36.1174 34.1978C35.9916 34.1258 35.8361 34.0635 35.6632 34.0551C35.4903 34.0435 35.3285 34.092 35.1965 34.1533C35.0645 34.2169 34.9574 34.2915 34.873 34.3591C34.7041 34.4951 34.6134 34.5929 34.6205 34.6009Z" fill="#946F6F"/>
<path d="M34.1529 41.8724C34.1587 41.875 34.2085 41.7795 34.2938 41.6044C34.38 41.4297 34.4978 41.1737 34.6373 40.8546C34.9169 40.2168 35.2733 39.3222 35.6071 38.3128C35.94 37.303 36.1858 36.3715 36.3409 35.6928C36.4187 35.3533 36.4765 35.0777 36.5111 34.8862C36.5467 34.6946 36.5636 34.5884 36.5573 34.587C36.5511 34.5857 36.5231 34.6897 36.4773 34.8786C36.4271 35.0817 36.3605 35.351 36.28 35.6777C36.1098 36.3515 35.8547 37.2777 35.5231 38.2848C35.1902 39.2915 34.8445 40.187 34.58 40.8302C34.4502 41.1408 34.3436 41.3973 34.2631 41.5902C34.1862 41.7693 34.1471 41.8697 34.1529 41.8724Z" fill="#946F6F"/>
<path d="M35.398 43.8066C35.5131 42.4661 37.5611 38.6817 37.5611 38.6817L43.7975 39.0084L44.2771 50.8106L37.4993 50.8408L36.9797 48.1795C36.9802 48.1795 35.2157 45.9253 35.398 43.8066Z" fill="#BF9892"/>
<path d="M35.8148 46.1359C35.8192 46.1408 35.8836 46.0879 35.9948 45.9884C36.1059 45.8888 36.2645 45.743 36.4583 45.5617L36.4676 45.5533L36.4685 45.5399C36.5023 45.1155 36.5419 44.5528 36.581 43.9373C36.6236 43.2644 36.6574 42.6546 36.6774 42.2106L36.6788 42.1844L36.6548 42.1781C36.4481 42.1253 36.273 42.0804 36.1308 42.0439C36.0063 42.0141 35.937 42.0004 35.9352 42.0066C35.9334 42.0124 35.9996 42.0377 36.121 42.0777C36.2614 42.1217 36.4339 42.1755 36.6374 42.2395L36.6143 42.207C36.5783 42.6497 36.5348 43.259 36.4921 43.9319C36.453 44.5475 36.4214 45.1106 36.4014 45.5359L36.4116 45.5137C36.2236 45.7008 36.0721 45.8541 35.9685 45.9617C35.865 46.0693 35.8099 46.131 35.8148 46.1359Z" fill="#714E4E"/>
<path d="M35.5879 42.8852C35.5874 42.9097 35.8097 42.9328 36.0834 42.9363C36.3577 42.9399 36.5799 42.923 36.5803 42.8986C36.5808 42.8741 36.3586 42.851 36.0848 42.8475C35.8106 42.8439 35.5883 42.8608 35.5879 42.8852Z" fill="#714E4E"/>
<path d="M38.2399 38.9923H45.4826L46.5679 40.9572C46.5679 40.9572 48.2506 46.239 49.3879 50.811H40.5079L40.1586 48.2212C40.1586 48.2212 38.4235 46.7106 37.7528 44.5955C37.0826 42.4799 38.2399 38.9923 38.2399 38.9923Z" fill="#BF9892"/>
<path d="M43.7806 42.6221C43.7824 42.6208 43.7535 42.6177 43.6966 42.6128C43.633 42.6079 43.549 42.6017 43.4428 42.5937C43.2112 42.5781 42.8846 42.5563 42.473 42.5288C41.625 42.4763 40.4295 42.4026 39.0086 42.3146L38.9668 42.3119V42.3541C38.9655 43.3737 38.9637 44.5194 38.9619 45.7346V45.755L38.9775 45.7683C39.1432 45.9101 39.3201 46.0617 39.4984 46.2141C40.1139 46.7399 40.7099 47.2488 41.2748 47.7314L41.2966 47.7501L41.3219 47.7372C42.1552 47.3208 42.9321 46.9328 43.6308 46.5839L43.6504 46.5741L43.6512 46.5523C43.6935 45.3674 43.7286 44.383 43.7535 43.6874C43.7637 43.3514 43.7717 43.0857 43.7775 42.8963C43.7792 42.811 43.7806 42.743 43.7819 42.6906C43.7824 42.6439 43.7824 42.6208 43.7806 42.6221C43.7792 42.6234 43.7766 42.6492 43.7735 42.6977C43.7699 42.7514 43.7659 42.8217 43.7601 42.9101C43.7499 43.1012 43.7352 43.3697 43.7166 43.7088C43.6828 44.3986 43.6348 45.3746 43.5775 46.5492L43.5979 46.5177C42.8975 46.8634 42.1192 47.2479 41.2837 47.6603L41.3308 47.6661C40.7668 47.183 40.1712 46.6732 39.5566 46.1466C39.3779 45.9941 39.201 45.8426 39.0352 45.7008L39.0508 45.7346C39.049 44.5194 39.0472 43.3737 39.0459 42.3541L39.0041 42.3937C40.4157 42.4648 41.6032 42.5248 42.4455 42.567C42.8615 42.5861 43.1917 42.6008 43.4255 42.6114C43.5348 42.6154 43.6219 42.619 43.6872 42.6212C43.7472 42.6234 43.7792 42.6234 43.7806 42.6221Z" fill="#714E4E"/>
<path d="M39.0215 42.9875C39.0206 42.9937 39.0864 43.007 39.2059 43.0261C39.3255 43.0457 39.4988 43.0693 39.7139 43.0955C40.1437 43.1479 40.7388 43.2061 41.3979 43.247C42.0575 43.2879 42.6553 43.3035 43.0882 43.3048C43.3046 43.3053 43.4797 43.3035 43.6006 43.2986C43.7215 43.2941 43.7886 43.2893 43.7886 43.283C43.7886 43.2768 43.7219 43.2706 43.601 43.2639C43.461 43.2577 43.2904 43.2506 43.0895 43.2417C42.6579 43.2244 42.0615 43.1986 41.4037 43.1581C40.7459 43.1173 40.1513 43.0693 39.7206 43.0328C39.5206 43.0168 39.3499 43.003 39.2104 42.9919C39.089 42.983 39.0219 42.9813 39.0215 42.9875Z" fill="#714E4E"/>
<path d="M35.9439 37.3667C36.063 36.7124 37.7501 30.5929 38.423 28.1618C38.6555 27.3213 39.1755 26.5387 40.023 26.248C40.4243 26.1102 40.4621 26.0311 40.8523 26.0413C40.9039 26.0427 41.2501 26.2658 41.7737 26.5129C42.5443 26.876 43.4057 27.0044 44.2497 26.888L44.807 26.8111C45.4781 26.748 46.2635 26.8027 47.0484 27.824C47.6906 28.6591 50.1741 33.0427 50.1741 33.0427C50.1741 33.0427 51.0297 33.5671 51.067 34.2538C51.1043 34.94 51.9226 37.4324 50.2488 37.916C48.5746 38.3995 47.4959 37.3578 47.4959 37.3578L46.7915 36.1973C46.8106 36.6573 46.8626 37.0155 46.9986 37.2249C47.1284 37.4249 47.9141 38.9924 47.811 40.1178C47.743 40.8631 46.5901 41.0222 46.5901 41.0222C46.5901 41.0222 46.4226 40.6707 45.7652 40.5662C44.9204 40.432 44.4261 40.4173 44.4261 40.4173L42.8266 39.4871L37.1688 38.9924C37.1683 38.9924 35.795 38.1849 35.9439 37.3667Z" fill="#A07B77"/>
<path d="M44.2827 32.4546C44.2632 32.4399 44.8289 33.3457 45.5476 34.4141C46.2667 35.483 46.8663 36.3381 46.8867 36.3244C46.9072 36.3106 46.3392 35.4341 45.6214 34.3644C45.0183 33.4653 44.3432 32.4995 44.2827 32.4546Z" fill="#714E4E"/>
<path d="M43.535 31.3538C43.5505 31.3489 43.4657 31.124 43.4132 30.7444C43.3594 30.368 43.3563 29.8289 43.5243 29.2711C43.6923 28.7129 43.9928 28.2658 44.2461 27.9813C44.4994 27.6942 44.6945 27.5538 44.6843 27.5409C44.6812 27.5364 44.6292 27.5666 44.5421 27.6315C44.455 27.696 44.3345 27.7982 44.1999 27.9386C43.9301 28.2169 43.6123 28.6711 43.4394 29.2449C43.2665 29.8186 43.2803 30.3729 43.3514 30.7538C43.3861 30.9453 43.4301 31.0969 43.467 31.1991C43.5034 31.3018 43.5297 31.3555 43.535 31.3538Z" fill="#714E4E"/>
<path d="M44.1466 40.3284C44.1474 40.3373 44.3106 40.3261 44.551 40.2244C44.7892 40.1248 45.1017 39.9168 45.3297 39.5848C45.5577 39.2528 45.6399 38.8866 45.6474 38.6284C45.6568 38.3675 45.6083 38.211 45.5994 38.2132C45.5843 38.215 45.6092 38.3728 45.5843 38.6239C45.5612 38.8728 45.4728 39.2186 45.2559 39.5341C45.039 39.8493 44.7479 40.0559 44.5239 40.167C44.299 40.2804 44.1426 40.3137 44.1466 40.3284Z" fill="#714E4E"/>
<path d="M42.5784 39.4466C42.582 39.4568 42.6584 39.4448 42.7633 39.3799C42.8673 39.3164 42.9958 39.1906 43.0646 39.011C43.1335 38.8315 43.1215 38.6515 43.0869 38.535C43.0522 38.4164 43.0029 38.3564 42.994 38.3617C42.9815 38.3679 43.0091 38.4359 43.0255 38.5484C43.0429 38.6599 43.0424 38.8199 42.982 38.9795C42.9211 39.1386 42.814 39.2577 42.7269 39.3293C42.6393 39.4013 42.5731 39.4337 42.5784 39.4466Z" fill="#714E4E"/>
<path d="M38.049 36.5653C38.0428 36.5653 38.0388 36.6093 38.037 36.6898C38.0335 36.7698 38.0406 36.8862 38.0592 37.0289C38.0961 37.3138 38.2055 37.704 38.4246 38.0871C38.6455 38.4698 38.9272 38.7609 39.1544 38.936C39.2677 39.024 39.365 39.0889 39.4357 39.1262C39.5059 39.1649 39.5459 39.1835 39.549 39.1782C39.557 39.1649 39.4064 39.0729 39.1944 38.8875C38.9819 38.7035 38.7161 38.4146 38.5015 38.0426C38.2886 37.6702 38.173 37.2946 38.121 37.0186C38.0681 36.7418 38.0646 36.5649 38.049 36.5653Z" fill="#714E4E"/>
<path d="M45.7485 34.4213C45.7565 34.4213 45.7516 34.3346 45.7778 34.183C45.8058 34.0337 45.8716 33.815 46.0387 33.599C46.2018 33.3844 46.4818 33.1848 46.8383 33.1368C47.0143 33.111 47.2054 33.1213 47.3898 33.1773C47.576 33.2306 47.7467 33.3413 47.9085 33.4737C48.0711 33.6057 48.2196 33.7515 48.3818 33.8746C48.5418 33.9986 48.7205 34.099 48.9089 34.1399C49.2894 34.2204 49.644 34.0702 49.8409 33.8644C50.0418 33.6546 50.1036 33.4173 50.1178 33.2626C50.1249 33.1835 50.1191 33.1222 50.1147 33.0813C50.108 33.0404 50.1027 33.0195 50.0996 33.0199C50.0916 33.0208 50.1054 33.107 50.0831 33.2586C50.0596 33.407 49.9898 33.6297 49.7965 33.8204C49.6076 34.0066 49.2743 34.1386 48.9267 34.0604C48.7551 34.0208 48.5889 33.927 48.4347 33.8057C48.2787 33.6862 48.1311 33.5408 47.9645 33.4048C47.7991 33.2693 47.6151 33.1502 47.4147 33.0942C47.216 33.035 47.0125 33.0262 46.8258 33.0559C46.4471 33.111 46.1516 33.3315 45.988 33.5613C45.8196 33.7928 45.7614 34.023 45.7431 34.1782C45.7351 34.2568 45.7351 34.3177 45.7383 34.359C45.7418 34.3999 45.7454 34.4213 45.7485 34.4213Z" fill="#714E4E"/>
<path d="M44.1231 32.3796C44.1245 32.3822 44.156 32.3685 44.2151 32.34C44.2734 32.3102 44.3587 32.2644 44.4627 32.196C44.6698 32.06 44.9596 31.8338 45.2303 31.476C45.3645 31.2978 45.496 31.088 45.5974 30.8436C45.6978 30.6 45.7694 30.3178 45.7525 30.016C45.7383 29.7156 45.6129 29.4004 45.3778 29.1662C45.26 29.0502 45.1134 28.9564 44.9467 28.9076C44.7818 28.8591 44.5929 28.8573 44.4263 28.9373C44.344 28.9782 44.2703 29.0418 44.2254 29.124C44.18 29.2053 44.1618 29.2991 44.1685 29.388C44.18 29.5667 44.2703 29.7307 44.4049 29.8378C44.54 29.9422 44.7036 29.9924 44.8609 30.0076C45.0191 30.024 45.1743 30.0089 45.3205 29.98C45.912 29.8622 46.3614 29.4969 46.604 29.1213C46.8507 28.7413 46.9156 28.3689 46.9258 28.1222C46.9311 27.9973 46.9214 27.9004 46.9147 27.8356C46.9049 27.7707 46.8978 27.7369 46.8947 27.7373C46.8858 27.7382 46.9098 27.8747 46.8911 28.12C46.8707 28.3622 46.7969 28.7231 46.5516 29.0867C46.3107 29.4453 45.8729 29.7916 45.3049 29.9C45.0294 29.9524 44.7005 29.9547 44.4583 29.7693C44.344 29.6787 44.2649 29.5338 44.2565 29.3831C44.2431 29.2316 44.324 29.0831 44.4654 29.0173C44.6049 28.9502 44.7734 28.9489 44.9218 28.9929C45.072 29.0369 45.2067 29.1218 45.3165 29.2285C45.5356 29.4449 45.6547 29.7378 45.6707 30.0209C45.6889 30.3062 45.6236 30.5782 45.5289 30.8156C45.4334 31.0538 45.308 31.2609 45.1796 31.4382C44.9205 31.7933 44.6418 32.0236 44.4427 32.1671C44.2427 32.3111 44.1191 32.372 44.1231 32.3796Z" fill="#714E4E"/>
<path d="M45.5567 38.8057C45.5563 38.7968 45.4954 38.8084 45.3949 38.7804C45.2954 38.7546 45.158 38.6764 45.0483 38.5266C44.938 38.38 44.8683 38.1568 44.8869 37.9133C44.9047 37.6711 45.014 37.4053 45.2265 37.22C45.438 37.0333 45.7092 36.9444 45.9532 36.94C46.1989 36.9351 46.4154 37.0137 46.5754 37.1088C46.8998 37.3048 47.0096 37.5333 47.0243 37.5195C47.0287 37.5173 47.006 37.4608 46.9429 37.372C46.8798 37.284 46.774 37.1622 46.6083 37.0551C46.4447 36.9484 46.2167 36.8573 45.9518 36.8577C45.69 36.8577 45.3972 36.9502 45.1674 37.1533C44.9354 37.3555 44.8189 37.6466 44.8047 37.9075C44.7887 38.1706 44.8714 38.4102 44.9976 38.5648C45.1225 38.7213 45.2772 38.7973 45.3865 38.8137C45.4412 38.8235 45.4847 38.8213 45.5132 38.8177C45.5425 38.8128 45.5572 38.8084 45.5567 38.8057Z" fill="#714E4E"/>
<path d="M36.6348 34.9794C36.6343 34.9808 36.6472 34.987 36.6734 34.9972C36.705 35.0088 36.7432 35.0234 36.7908 35.0408C36.897 35.0666 37.0574 35.1066 37.2677 35.1008C37.4774 35.0994 37.7317 35.0608 38.0201 34.9986C38.309 34.9394 38.6357 34.8546 39.0028 34.8314C39.3672 34.8066 39.7779 34.8883 40.1339 35.1319C40.4846 35.367 40.7966 35.7617 40.8463 36.2394C40.8708 36.4746 40.809 36.7239 40.6583 36.9194C40.5112 37.1154 40.2641 37.2417 40.0112 37.2043C39.8868 37.1879 39.7646 37.139 39.669 37.0559C39.5734 36.9737 39.5112 36.8563 39.4939 36.7297C39.4619 36.4737 39.6041 36.2021 39.8223 36.0519C40.0454 35.9012 40.3383 35.8857 40.5948 35.951C40.8561 36.0137 41.0877 36.1559 41.2859 36.3274C41.685 36.6719 41.9734 37.1114 42.3521 37.4372C42.5401 37.5999 42.7477 37.7381 42.9766 37.8128C43.2032 37.887 43.4441 37.9057 43.6646 37.8492C43.7743 37.8212 43.8779 37.775 43.9677 37.7114C44.0583 37.6488 44.1308 37.5697 44.1997 37.4959C44.333 37.3434 44.4743 37.2163 44.6486 37.1608C44.9903 37.0403 45.3503 37.1301 45.5663 37.315C45.789 37.5017 45.8654 37.763 45.8792 37.9626C45.8926 38.1674 45.8428 38.3248 45.8001 38.423C45.7548 38.5212 45.7183 38.5666 45.7223 38.5697C45.7223 38.5697 45.7641 38.5288 45.8161 38.4306C45.865 38.3328 45.9223 38.1728 45.9139 37.9608C45.905 37.7546 45.8321 37.4799 45.5988 37.2772C45.3721 37.0777 44.9943 36.9772 44.6281 37.1017C44.2308 37.2052 44.0788 37.699 43.6472 37.7781C43.4428 37.8292 43.2157 37.8106 43.0019 37.739C42.7872 37.6679 42.5881 37.5346 42.4068 37.3759C42.0397 37.0581 41.7543 36.619 41.3432 36.2617C41.1392 36.0843 40.8943 35.9328 40.6166 35.8657C40.3432 35.7968 40.0259 35.8092 39.773 35.979C39.5286 36.1488 39.3717 36.4439 39.4068 36.7417C39.4263 36.8888 39.5006 37.0279 39.6117 37.123C39.7223 37.2186 39.861 37.2732 40.0006 37.2914C40.1406 37.3079 40.2854 37.2892 40.4117 37.2283C40.5383 37.1701 40.6437 37.0772 40.7263 36.9714C40.8903 36.7577 40.9561 36.4839 40.9286 36.2319C40.8717 35.7203 40.5419 35.3137 40.1752 35.0706C39.8037 34.8199 39.3726 34.739 38.9992 34.7688C38.6237 34.7972 38.297 34.8866 38.0099 34.9501C37.7232 35.0168 37.4734 35.0594 37.2672 35.0661C36.8512 35.0812 36.6374 34.9652 36.6348 34.9794Z" fill="#714E4E"/>
<path d="M37.669 30.8902C37.6748 30.9035 37.7983 30.7706 38.0921 30.7253C38.3788 30.6786 38.833 30.7675 39.2397 31.104C39.4437 31.2715 39.6352 31.4902 39.837 31.7302C40.0401 31.968 40.2535 32.2333 40.5415 32.4515C40.8281 32.66 41.1935 32.8346 41.5975 32.8031C41.7952 32.7857 41.9997 32.7128 42.1517 32.5644C42.2264 32.4906 42.2881 32.3982 42.3166 32.2911C42.3463 32.1844 42.3317 32.0626 42.2735 31.9644C42.1526 31.7706 41.9135 31.6817 41.701 31.7302C41.4872 31.7831 41.3335 31.9573 41.2615 32.1444C41.1855 32.3346 41.1961 32.5448 41.2517 32.7266C41.3077 32.9102 41.4028 33.0728 41.5135 33.2146C41.9637 33.7893 42.6503 34.0133 43.1863 33.9728C43.733 33.9315 44.1241 33.6831 44.3464 33.4875C44.4592 33.3875 44.533 33.2968 44.5824 33.2351C44.6281 33.1706 44.6504 33.136 44.6481 33.1342C44.6406 33.1275 44.5512 33.2702 44.3241 33.4613C44.0992 33.6457 43.7117 33.8786 43.1828 33.9102C42.9215 33.9235 42.6308 33.8786 42.3477 33.7568C42.0659 33.6355 41.7886 33.4391 41.5788 33.1644C41.4735 33.028 41.3846 32.8724 41.3335 32.7022C41.2828 32.5324 41.2748 32.3444 41.3428 32.176C41.4072 32.0088 41.5446 31.8586 41.7215 31.816C41.8939 31.7746 42.1023 31.8537 42.197 32.0093C42.2952 32.1675 42.2232 32.3755 42.0895 32.5008C41.957 32.6311 41.7712 32.6995 41.5899 32.716C41.2192 32.7471 40.8672 32.5848 40.5904 32.3853C40.313 32.1786 40.0988 31.9177 39.8935 31.6822C39.6895 31.4444 39.4917 31.224 39.2797 31.0555C38.8535 30.7137 38.3823 30.6328 38.0868 30.6915C37.937 30.7186 37.8299 30.7724 37.7632 30.8151C37.7295 30.836 37.7072 30.8573 37.6912 30.8693C37.6757 30.8822 37.6681 30.8893 37.669 30.8902Z" fill="#714E4E"/>
<path d="M38.4532 28.0013C38.4501 28.0057 38.5075 28.0524 38.6199 28.1244C38.7319 28.1968 38.9026 28.2893 39.1257 28.3764C39.5666 28.5524 40.2457 28.6808 40.9688 28.5297C41.6919 28.3773 42.2617 27.9866 42.5946 27.6479C42.7635 27.4786 42.8826 27.3248 42.9559 27.2137C43.0297 27.1026 43.063 27.0368 43.0586 27.0342C43.0439 27.0235 42.8941 27.2804 42.5506 27.6026C42.2124 27.9235 41.6524 28.2946 40.9501 28.4426C40.2479 28.5897 39.5861 28.4755 39.147 28.3173C38.703 28.1608 38.4626 27.9857 38.4532 28.0013Z" fill="#714E4E"/>
<path d="M37.84 40.5156C37.84 40.5156 37.7822 40.6622 37.7333 40.9422C37.6835 41.2213 37.6355 41.6298 37.6066 42.1369C37.5795 42.6431 37.5609 43.2498 37.5751 43.9191C37.6026 44.5871 37.8195 45.3089 38.1973 45.9813C38.4666 46.4631 38.7933 46.8889 39.1329 47.2591C39.4737 47.6284 39.8262 47.948 40.1715 48.2018L40.18 48.208L40.1813 48.2178C40.2822 48.9951 40.3658 49.6418 40.4253 50.0991C40.4529 50.3222 40.4742 50.4991 40.4898 50.6244C40.496 50.6822 40.5009 50.728 40.5049 50.7631C40.508 50.7947 40.5089 50.8107 40.5075 50.8111C40.5062 50.8111 40.5031 50.7955 40.4978 50.7644C40.492 50.7298 40.4849 50.684 40.4755 50.6271C40.4573 50.5022 40.4311 50.3258 40.3982 50.1031C40.3342 49.6467 40.2435 49.0009 40.1346 48.2244L40.1444 48.2404C39.7924 47.9853 39.4382 47.6662 39.0933 47.2951C38.7502 46.9236 38.42 46.4942 38.1484 46.008C37.7666 45.3289 37.5484 44.5978 37.5235 43.9209C37.512 43.2467 37.5351 42.6422 37.5671 42.1338C37.6009 41.6262 37.6551 41.2169 37.7115 40.9378C37.74 40.7982 37.7697 40.6916 37.7937 40.62C37.8057 40.5844 37.8169 40.5578 37.8249 40.5404C37.8337 40.5236 37.8391 40.5151 37.84 40.5156Z" fill="#714E4E"/>
<path d="M35.3878 43.9484C35.386 43.9484 35.3865 43.9298 35.3887 43.8947C35.3923 43.8529 35.3971 43.8022 35.4025 43.7409C35.4238 43.6089 35.4616 43.4182 35.5265 43.1875C35.6532 42.7258 35.8683 42.1009 36.1318 41.4209C36.3949 40.7404 36.6514 40.1324 36.8425 39.6942C36.938 39.4751 37.0172 39.2991 37.0736 39.1778C37.1003 39.1222 37.122 39.0764 37.1398 39.0391C37.1558 39.0075 37.1647 38.9915 37.1665 38.9924C37.1683 38.9933 37.1625 39.0107 37.15 39.0435C37.1349 39.0822 37.1158 39.1293 37.0932 39.1867C37.0394 39.3182 36.9665 39.4947 36.8785 39.7098C36.6972 40.1515 36.4465 40.7618 36.1834 41.4409C35.9203 42.12 35.6994 42.7413 35.5638 43.1982C35.4945 43.4262 35.4514 43.6142 35.4234 43.744C35.4136 43.8044 35.4056 43.8542 35.3994 43.8951C35.3936 43.9302 35.3896 43.9484 35.3878 43.9484Z" fill="#946F6F"/>
</g>
<path d="M36.0538 10.3116C36.7281 8.72409 35.9877 6.89055 34.4001 6.21631C32.8126 5.54207 30.9791 6.28245 30.3048 7.86999C29.6306 9.45754 30.3709 11.2911 31.9585 11.9653C33.546 12.6396 35.3796 11.8992 36.0538 10.3116Z" fill="#FBFBFB"/>
<path d="M31.2742 12.6017C31.2711 12.6026 31.2657 12.5688 31.2373 12.5159C31.2097 12.4639 31.1529 12.3928 31.0573 12.3448C31.0097 12.3217 30.9529 12.3044 30.8911 12.3035C30.8293 12.3031 30.7631 12.3191 30.7049 12.3568C30.588 12.4288 30.4964 12.5817 30.5209 12.7417C30.5484 12.9008 30.684 13.0173 30.8177 13.0479C30.8853 13.0653 30.9533 13.0591 31.0115 13.0391C31.0697 13.0186 31.1182 12.9839 31.156 12.9471C31.2315 12.8715 31.2626 12.7862 31.2724 12.7279C31.2822 12.6688 31.2769 12.6351 31.28 12.6346C31.2809 12.6346 31.2826 12.6426 31.2844 12.6591C31.2857 12.6671 31.2862 12.6773 31.2857 12.6888C31.2857 12.7008 31.2857 12.7146 31.2831 12.7297C31.2764 12.7902 31.2475 12.8804 31.1702 12.9617C31.1315 13.0017 31.0813 13.0391 31.0191 13.0622C30.9573 13.0844 30.8835 13.0919 30.8111 13.0742C30.7386 13.0582 30.6671 13.0199 30.6093 12.9635C30.5506 12.9079 30.5066 12.8315 30.4915 12.7462C30.4786 12.6604 30.496 12.5742 30.5342 12.5026C30.5711 12.4306 30.6266 12.3719 30.6902 12.3337C30.7533 12.2937 30.8253 12.2773 30.8911 12.2791C30.9573 12.2808 31.0169 12.3008 31.0662 12.3262C31.1653 12.3786 31.2217 12.4551 31.2471 12.5102C31.2542 12.5239 31.2586 12.5368 31.2626 12.5479C31.2666 12.5591 31.2693 12.5688 31.2706 12.5768C31.2737 12.5933 31.2751 12.6017 31.2742 12.6017Z" fill="#263138"/>
<path d="M30.3973 13.6854C30.3947 13.6862 30.3907 13.6649 30.372 13.632C30.3542 13.5996 30.3182 13.556 30.2587 13.5267C30.2009 13.4974 30.1142 13.4871 30.0409 13.5351C29.9689 13.5796 29.9125 13.6742 29.9276 13.7725C29.9445 13.8702 30.028 13.9422 30.1102 13.9614C30.1947 13.9836 30.2738 13.9462 30.3191 13.9C30.3662 13.8534 30.3862 13.8005 30.3929 13.7645C30.4 13.7276 30.3969 13.7062 30.4 13.7062C30.4013 13.7058 30.408 13.7271 30.4045 13.7662C30.4009 13.8049 30.3831 13.8627 30.3338 13.9147C30.3093 13.9405 30.2773 13.9645 30.2373 13.9796C30.1978 13.9942 30.1502 13.9991 30.1036 13.988C30.0116 13.9676 29.9178 13.8898 29.8982 13.7778C29.8813 13.6654 29.9453 13.5618 30.0262 13.5134C30.0667 13.488 30.1133 13.4774 30.1556 13.4787C30.1982 13.48 30.236 13.4929 30.2676 13.5094C30.3307 13.5431 30.3658 13.592 30.3818 13.6276C30.3982 13.6631 30.3987 13.6854 30.3973 13.6854Z" fill="#263138"/>
<path d="M33.2617 12.2323C33.2617 12.2323 33.2791 12.2301 33.3124 12.2269C33.3466 12.2238 33.3964 12.2198 33.4613 12.2145C33.4942 12.2118 33.5306 12.2087 33.5711 12.2056C33.6111 12.2003 33.6546 12.1909 33.7017 12.1829C33.7488 12.1745 33.7995 12.1652 33.8537 12.1549C33.8813 12.1509 33.9088 12.1438 33.9368 12.1349C33.9653 12.1269 33.9942 12.1185 34.024 12.1101C34.2653 12.0492 34.5493 11.9287 34.8488 11.7425C35.1471 11.5549 35.4568 11.2869 35.7168 10.9256C35.7488 10.8803 35.7813 10.8345 35.8142 10.7878C35.844 10.7394 35.8715 10.6887 35.9008 10.6385C35.9151 10.6132 35.9297 10.5878 35.9444 10.5625C35.9591 10.5372 35.9742 10.5114 35.9853 10.4838C36.0097 10.4296 36.0342 10.3749 36.0591 10.3198C36.0715 10.2923 36.0844 10.2647 36.0964 10.2363C36.1062 10.2074 36.116 10.1781 36.1257 10.1487C36.1453 10.0901 36.1653 10.0309 36.1857 9.97139C36.204 9.91094 36.2151 9.84828 36.2306 9.78606C36.2377 9.75494 36.2448 9.72339 36.2524 9.69183C36.256 9.67583 36.26 9.66028 36.2626 9.64428L36.2688 9.59583C36.284 9.46606 36.3075 9.33494 36.3048 9.19939C36.3053 9.13183 36.3106 9.06383 36.3075 8.99539C36.3022 8.92694 36.2968 8.85806 36.292 8.78872C36.2888 8.75406 36.288 8.71894 36.2826 8.68472C36.2764 8.65006 36.2702 8.61583 36.264 8.58072C36.2506 8.51139 36.2408 8.44072 36.2248 8.37139C36.184 8.2345 36.1524 8.09228 36.0924 7.95761C36.0791 7.92339 36.0653 7.88917 36.052 7.85494C36.0448 7.83806 36.0386 7.82028 36.0311 7.80339L36.0057 7.75406C35.972 7.68783 35.9377 7.62161 35.9035 7.5545C35.8662 7.48961 35.8231 7.42739 35.7826 7.36294C35.7613 7.33139 35.7431 7.29761 35.7191 7.26783L35.648 7.17761C35.5577 7.05272 35.4457 6.94428 35.3382 6.8305C35.2791 6.77939 35.2191 6.72783 35.1595 6.67583L35.1146 6.63717C35.0991 6.62517 35.0822 6.61405 35.0662 6.6025L34.9688 6.53317L34.8711 6.46383L34.7666 6.40339L34.6617 6.34294L34.6093 6.31272C34.5911 6.30383 34.5724 6.29583 34.5542 6.28739C34.4804 6.25406 34.4057 6.22028 34.3315 6.18694C34.2542 6.16072 34.1764 6.1345 34.0982 6.10783C33.7822 6.01361 33.448 5.96694 33.1088 5.97094C32.7702 5.98383 32.4382 6.04694 32.1271 6.15628C32.0502 6.1865 31.9737 6.21672 31.8977 6.24694C31.8248 6.28428 31.7524 6.32161 31.68 6.3585L31.6262 6.3865L31.5751 6.41939L31.4733 6.48472L31.372 6.55006L31.2777 6.62428L31.184 6.69806L31.1373 6.73494L31.0942 6.77583C31.0368 6.8305 30.98 6.88472 30.9231 6.93894C30.8208 7.05806 30.7146 7.17183 30.6306 7.30072L30.564 7.3945C30.5417 7.42561 30.5248 7.46028 30.5053 7.49272C30.468 7.55894 30.428 7.62339 30.3937 7.69006C30.3626 7.7585 30.332 7.8265 30.3013 7.8945L30.2782 7.94517C30.2715 7.9625 30.2662 7.98028 30.26 7.99761C30.248 8.03272 30.2364 8.06739 30.2244 8.10206C30.1711 8.23939 30.1466 8.38294 30.1124 8.52161C30.0995 8.59183 30.0933 8.66294 30.0835 8.73272C30.0791 8.76783 30.0746 8.8025 30.0702 8.83717C30.0666 8.87183 30.0675 8.90694 30.0662 8.94161C30.0644 9.01094 30.0626 9.08028 30.0608 9.14872C30.0617 9.21717 30.0697 9.28472 30.0737 9.35228C30.0777 9.48783 30.108 9.61761 30.1293 9.7465L30.1377 9.7945C30.1413 9.8105 30.1462 9.82561 30.1506 9.84161C30.1595 9.87272 30.1684 9.90383 30.1768 9.9345C30.1951 9.99583 30.2093 10.0581 30.2306 10.1176C30.2537 10.1763 30.2764 10.2345 30.2991 10.2918C30.3102 10.3207 30.3217 10.3492 30.3328 10.3776C30.3466 10.4047 30.3604 10.4323 30.3742 10.4589C30.4017 10.5132 30.4293 10.5665 30.456 10.6194C30.4684 10.6465 30.4848 10.6709 30.5008 10.6958C30.5168 10.7207 30.5324 10.7452 30.548 10.7696C30.5795 10.8185 30.6093 10.8678 30.6417 10.9145C30.6768 10.9594 30.7115 11.0034 30.7457 11.0474C31.0231 11.3954 31.3457 11.6478 31.6533 11.8203C31.6915 11.8421 31.7288 11.8647 31.7662 11.8847C31.8048 11.9025 31.8431 11.9198 31.8804 11.9367C31.9177 11.9536 31.9546 11.9705 31.9902 11.9869C32.0084 11.9949 32.0257 12.0038 32.044 12.0105C32.0622 12.0167 32.0804 12.0229 32.0982 12.0292C32.1697 12.0536 32.2382 12.0772 32.304 12.0994C32.3697 12.1198 32.4346 12.1314 32.4951 12.1465C32.5253 12.1536 32.5546 12.1607 32.5835 12.1674C32.612 12.1749 32.64 12.1807 32.6675 12.1829C32.7222 12.1901 32.7733 12.1967 32.8208 12.2034C32.8684 12.2092 32.912 12.2167 32.9524 12.2198C32.9928 12.2212 33.0293 12.2225 33.0622 12.2234C33.1271 12.2256 33.1768 12.2274 33.2115 12.2287C33.2444 12.2309 33.2617 12.2323 33.2617 12.2323C33.2617 12.2323 33.2444 12.2327 33.2111 12.2323C33.1768 12.2318 33.1266 12.2309 33.0617 12.2301C33.0288 12.2296 32.992 12.2287 32.9515 12.2278C32.9111 12.2252 32.8671 12.2181 32.8195 12.2127C32.772 12.2069 32.7204 12.2007 32.6653 12.1936C32.6377 12.1914 32.6097 12.1856 32.5808 12.1785C32.552 12.1718 32.5226 12.1652 32.492 12.1585C32.4315 12.1434 32.3662 12.1323 32.3 12.1123C32.2342 12.0901 32.1653 12.0669 32.0933 12.0429C32.0751 12.0367 32.0568 12.0309 32.0386 12.0247C32.0204 12.0181 32.0031 12.0092 31.9848 12.0012C31.9488 11.9847 31.912 11.9683 31.8742 11.9514C31.8364 11.9345 31.7982 11.9172 31.7591 11.8998C31.7213 11.8794 31.684 11.8572 31.6453 11.8354C31.336 11.6629 31.0102 11.4105 30.7297 11.0612C30.6951 11.0172 30.66 10.9727 30.6244 10.9278C30.5915 10.8807 30.5617 10.8314 30.5293 10.7825C30.5133 10.7581 30.4977 10.7332 30.4813 10.7083C30.4653 10.6834 30.4488 10.6585 30.436 10.6314C30.4084 10.5781 30.3808 10.5243 30.3528 10.4701C30.3391 10.4429 30.3244 10.4158 30.3111 10.3878C30.2995 10.3589 30.2884 10.3305 30.2768 10.3012C30.2537 10.2434 30.2306 10.1847 30.2075 10.1256C30.1857 10.0661 30.1715 10.0034 30.1528 9.94161C30.144 9.9105 30.1351 9.87939 30.1262 9.84783C30.1217 9.83228 30.1168 9.81672 30.1133 9.80072L30.1044 9.75228C30.0822 9.6225 30.052 9.49183 30.0475 9.35539C30.0435 9.28739 30.0351 9.21939 30.0342 9.15006C30.036 9.08117 30.0377 9.01139 30.0395 8.94117C30.0408 8.90605 30.04 8.87094 30.0435 8.83583C30.048 8.80072 30.0524 8.76561 30.0568 8.7305C30.0666 8.66028 30.0728 8.58872 30.0857 8.51761C30.12 8.37761 30.1444 8.23272 30.1977 8.09405C30.2097 8.05894 30.2213 8.02383 30.2333 7.98872C30.2395 7.97094 30.2448 7.95317 30.2515 7.93583L30.2746 7.88472C30.3053 7.81628 30.3364 7.74783 30.3675 7.6785C30.4017 7.61094 30.4422 7.54605 30.4795 7.47939C30.4995 7.4465 30.516 7.41183 30.5386 7.38028L30.6057 7.28561C30.6906 7.15539 30.7973 7.04028 30.9004 6.92028C30.9577 6.86561 31.0151 6.8105 31.0728 6.75539L31.1164 6.71406L31.1635 6.67672L31.2582 6.60206L31.3533 6.52694L31.4555 6.46072L31.5582 6.3945L31.6097 6.36117L31.6644 6.33272C31.7373 6.29539 31.8106 6.25761 31.884 6.22028C31.9608 6.19006 32.0377 6.15939 32.1155 6.12872C32.4293 6.01805 32.7644 5.9545 33.1062 5.94161C33.4484 5.93761 33.7857 5.98472 34.1048 6.07983C34.1835 6.1065 34.2622 6.13317 34.3404 6.15983C34.4155 6.19406 34.4906 6.22783 34.5653 6.26161C34.584 6.27006 34.6026 6.27806 34.6208 6.28739L34.6742 6.31806L34.78 6.37894L34.8853 6.43983L34.984 6.51005L35.0822 6.57983C35.0986 6.59139 35.1151 6.60294 35.1311 6.61494L35.1764 6.65406C35.2368 6.7065 35.2968 6.7585 35.3568 6.81005C35.4657 6.92472 35.5782 7.0345 35.6693 7.16028L35.7408 7.25139C35.7648 7.28161 35.7835 7.31539 35.8048 7.34739C35.8453 7.41228 35.8888 7.47539 35.9266 7.54072C35.9613 7.60828 35.9955 7.67539 36.0297 7.74205L36.0551 7.79183C36.0626 7.80872 36.0688 7.8265 36.076 7.84383C36.0897 7.8785 36.1031 7.91317 36.1168 7.94739C36.1773 8.08294 36.2088 8.2265 36.2497 8.36472C36.2662 8.43494 36.276 8.50606 36.2893 8.57583C36.2955 8.61094 36.3017 8.64561 36.308 8.68072C36.3133 8.71539 36.3142 8.75094 36.3173 8.78561C36.3226 8.85539 36.3275 8.92472 36.3328 8.99361C36.3355 9.0625 36.3306 9.13094 36.3297 9.19894C36.332 9.33539 36.3084 9.46783 36.2928 9.59806L36.2866 9.64694C36.284 9.66294 36.2795 9.67894 36.276 9.69494C36.2684 9.7265 36.2613 9.7585 36.2542 9.79006C36.2386 9.85272 36.2271 9.91583 36.2084 9.97672C36.188 10.0367 36.168 10.0963 36.148 10.1554C36.1377 10.1847 36.128 10.2141 36.1182 10.2434C36.1062 10.2718 36.0928 10.2994 36.0804 10.3274C36.0551 10.3829 36.0302 10.4381 36.0057 10.4927C35.9942 10.5207 35.9795 10.5461 35.9644 10.5718C35.9497 10.5976 35.9351 10.6229 35.9204 10.6483C35.8906 10.6989 35.8631 10.7496 35.8328 10.7981C35.7995 10.8447 35.7666 10.8909 35.7342 10.9363C35.4715 11.2989 35.1586 11.5674 34.8582 11.7549C34.5564 11.9407 34.2702 12.0603 34.028 12.1194C33.9977 12.1278 33.9688 12.1358 33.9404 12.1438C33.912 12.1523 33.8844 12.1594 33.8568 12.1629C33.8022 12.1723 33.7515 12.1812 33.704 12.1896C33.6564 12.1972 33.6128 12.2065 33.5728 12.2109C33.5324 12.2136 33.496 12.2163 33.4631 12.2185C33.3982 12.2229 33.3484 12.2261 33.3137 12.2283C33.2786 12.2318 33.2617 12.2323 33.2617 12.2323Z" fill="#263138"/>
<path d="M33.4273 9.06889C33.6695 8.96712 33.8419 8.71734 33.8433 8.42267C33.845 8.03689 33.553 7.72267 33.1913 7.72089C32.8295 7.71912 32.5348 8.03067 32.5335 8.41645C32.5322 8.71378 32.7059 8.96667 32.9508 9.06845C31.9428 9.22045 31.9886 10.316 31.9886 10.316L34.3722 10.3271C34.3722 10.3276 34.4264 9.22001 33.4273 9.06889Z" fill="#BF9892"/>
<path d="M34.6621 8.38399C34.7834 8.33332 34.8696 8.20799 34.8701 8.06088C34.871 7.86799 34.7248 7.7111 34.5439 7.71021C34.363 7.70932 34.2159 7.86488 34.215 8.05776C34.2145 8.20621 34.3012 8.33288 34.4239 8.38399C33.9199 8.45999 33.9425 9.00754 33.9425 9.00754L35.1341 9.01288C35.1345 9.01332 35.1616 8.45954 34.6621 8.38399Z" fill="#BF9892"/>
<path d="M31.8818 8.44798C32.0032 8.39732 32.0894 8.27198 32.0898 8.12487C32.0907 7.93198 31.9445 7.77509 31.7636 7.7742C31.5827 7.77332 31.4356 7.92887 31.4347 8.12176C31.4343 8.2702 31.5209 8.39687 31.6436 8.44798C31.1396 8.52398 31.1623 9.07154 31.1623 9.07154L32.3538 9.07687C32.3543 9.07687 32.3814 8.52354 31.8818 8.44798Z" fill="#BF9892"/>
<path d="M30.6036 7.32879L30.5156 7.46506L35.7849 10.8681L35.8729 10.7318L30.6036 7.32879Z" fill="#533A3A"/>
<path d="M24.9418 17.1542C24.6894 17.1987 24.1241 17.4151 23.9121 17.7542C23.7236 18.056 23.6254 18.4715 23.7716 18.7124C23.8965 18.9182 24.805 18.6635 25.1876 18.6031C25.365 18.5751 25.7996 18.7755 25.8578 18.5635L25.9645 17.808C25.9792 17.4547 25.7383 17.2995 25.4881 17.2009C25.3187 17.1342 25.129 17.1213 24.9418 17.1542Z" fill="#C8A399"/>
<path d="M25.6273 18.4978C25.6251 18.5249 25.3322 18.4867 24.8851 18.5876C24.7745 18.6124 24.6531 18.6453 24.5309 18.6902C24.4069 18.736 24.2691 18.8018 24.0882 18.8156C23.9985 18.8213 23.89 18.8018 23.8082 18.7431C23.7256 18.6876 23.6745 18.604 23.6469 18.5231C23.5909 18.3591 23.6127 18.1773 23.6847 18.0182C23.7567 17.8573 23.8642 17.7258 23.9789 17.6062C24.0949 17.488 24.2251 17.3862 24.3647 17.3111C24.6411 17.1556 24.9402 17.0947 25.1856 17.1018C25.4327 17.1058 25.6233 17.1693 25.7407 17.2267C25.8598 17.2836 25.9131 17.3311 25.9078 17.3378C25.9002 17.3493 25.8345 17.3196 25.7131 17.2827C25.5931 17.2449 25.4109 17.1538 25.1865 17.164C24.9633 17.1711 24.6371 17.2369 24.3922 17.3836C24.2687 17.4547 24.1291 17.5582 24.0251 17.6671C23.9229 17.776 23.8171 17.9249 23.7571 18.0604C23.6958 18.1951 23.7011 18.4147 23.7411 18.5396C23.7802 18.6658 23.9558 18.7564 24.0842 18.7489C24.2158 18.7431 24.3451 18.6133 24.4767 18.5693C24.6118 18.5262 24.7398 18.4987 24.8585 18.4791C25.3358 18.4022 25.6336 18.4827 25.6273 18.4978Z" fill="#44393A"/>
<path d="M25.6607 18.8782C25.6434 18.888 25.4843 18.5764 25.2949 18.2Z" fill="#C8A399"/>
<path d="M26.511 21.9333L26.5955 21.4524L27.3701 19.4102C27.4137 19.2951 27.4212 19.1698 27.3919 19.0506L27.0839 17.804C27.015 17.5244 26.7928 17.3093 26.5115 17.2493C26.0799 17.1578 25.4835 17.0635 25.3523 17.2062C25.1421 17.4355 25.2186 17.5889 25.2186 17.5889C25.2186 17.5889 24.6639 17.7226 24.6639 18.0098C24.6639 18.0098 24.2239 18.2391 24.2621 18.4115C24.3003 18.5835 24.4532 19.1382 24.6257 19.1C24.7977 19.0618 24.847 18.9662 24.847 18.9662L24.9506 19.3298L24.847 19.9226C24.847 19.9226 24.4723 21.1849 24.5488 21.5293C24.6252 21.8738 24.847 22.3715 24.847 22.3715" fill="#FAD6C8"/>
<path d="M24.8473 22.3711C24.846 22.3715 24.8384 22.3582 24.8255 22.3311C24.8113 22.3 24.7931 22.26 24.7704 22.2098C24.7247 22.1022 24.6575 21.9435 24.5891 21.7333C24.558 21.6293 24.5135 21.5084 24.522 21.3702C24.5264 21.2351 24.5482 21.0906 24.5753 20.9373C24.6313 20.6306 24.7158 20.288 24.822 19.9146L24.8211 19.9178C24.8531 19.7302 24.8873 19.5311 24.9224 19.3244L24.9229 19.3369C24.8904 19.224 24.8544 19.1 24.8184 18.9738L24.8731 18.9791C24.8304 19.0466 24.7687 19.0813 24.7033 19.1075C24.6678 19.1182 24.6438 19.1329 24.5918 19.1298C24.5487 19.1204 24.514 19.0946 24.4913 19.0666C24.3984 18.9533 24.3522 18.8204 24.306 18.6866C24.2838 18.6191 24.2638 18.5506 24.246 18.4809L24.2331 18.428C24.23 18.4115 24.2255 18.3818 24.2313 18.3622C24.2389 18.3169 24.2638 18.2844 24.2864 18.2524C24.3878 18.1346 24.5153 18.0555 24.6482 17.9809L24.6309 18.0098C24.6349 17.8675 24.7469 17.7662 24.8535 17.7031C24.9638 17.6369 25.0838 17.5911 25.2104 17.5569L25.1887 17.6035C25.1575 17.5231 25.1735 17.4471 25.2007 17.3764C25.2295 17.3066 25.2735 17.2444 25.3233 17.1893C25.398 17.116 25.4927 17.1111 25.5744 17.1031C25.6589 17.0978 25.7415 17.1018 25.8233 17.1075C25.9869 17.1213 26.1464 17.1458 26.3029 17.1751C26.3815 17.1898 26.458 17.2049 26.5358 17.2226C26.6153 17.2418 26.6909 17.2729 26.7598 17.3146C26.898 17.3973 27.006 17.524 27.0687 17.6666C27.1011 17.7382 27.118 17.8146 27.1353 17.8849C27.1527 17.9564 27.1704 18.0275 27.1873 18.0978C27.2215 18.2382 27.2553 18.3764 27.2887 18.512C27.3215 18.6475 27.354 18.78 27.3855 18.9098C27.4002 18.9755 27.4193 19.0364 27.43 19.1053C27.4398 19.1729 27.4384 19.2409 27.4264 19.3062C27.4158 19.3724 27.3895 19.4333 27.3678 19.4898C27.3455 19.5475 27.3238 19.6044 27.302 19.6604C27.2589 19.7724 27.2171 19.8813 27.1767 19.9871C27.0953 20.1973 27.0198 20.3942 26.95 20.5755C26.8104 20.9342 26.6944 21.2324 26.6064 21.4578L26.6069 21.4555C26.5775 21.6066 26.5549 21.7253 26.538 21.8115C26.53 21.8489 26.5238 21.8791 26.5184 21.9035C26.5135 21.924 26.5109 21.9346 26.5095 21.9342C26.5087 21.9342 26.5091 21.9231 26.5118 21.9022C26.5153 21.8773 26.5193 21.8471 26.5247 21.8093C26.5384 21.7226 26.5575 21.6031 26.5815 21.4511V21.4502L26.582 21.4489C26.666 21.2218 26.7767 20.9222 26.91 20.5609C26.978 20.3786 27.0518 20.1813 27.1304 19.9702C27.17 19.8644 27.2109 19.7551 27.2531 19.6426C27.274 19.5862 27.2958 19.5293 27.3171 19.4715C27.3389 19.4129 27.3624 19.3573 27.3713 19.2973C27.3815 19.2373 27.3824 19.1755 27.3731 19.1138C27.3633 19.0538 27.3438 18.9884 27.3287 18.924C27.2962 18.7946 27.2633 18.6622 27.2295 18.5271C27.1958 18.392 27.1615 18.2538 27.1264 18.1133C27.1091 18.0431 27.0913 17.972 27.0735 17.9004C27.0553 17.828 27.0402 17.7582 27.01 17.6929C26.9518 17.5618 26.8522 17.4462 26.7251 17.3702C26.6002 17.2898 26.4455 17.2706 26.2895 17.24C26.1344 17.2115 25.9767 17.1875 25.8167 17.1738C25.7371 17.168 25.6567 17.1649 25.5771 17.1698C25.5002 17.1755 25.4149 17.188 25.3704 17.2346C25.3242 17.2858 25.2847 17.3422 25.2598 17.4022C25.2349 17.46 25.2278 17.5302 25.2455 17.5751L25.2602 17.612L25.2238 17.6218C25.1051 17.6533 24.9873 17.6982 24.8855 17.7595C24.7842 17.8186 24.6958 17.908 24.694 18.0102L24.6935 18.0293L24.6767 18.0386C24.5504 18.1084 24.4229 18.1893 24.3344 18.2924C24.3149 18.3186 24.2953 18.3466 24.2918 18.3738C24.2864 18.396 24.2967 18.4306 24.3051 18.4658C24.3224 18.5342 24.3415 18.6018 24.3633 18.6675C24.4069 18.7973 24.4553 18.9306 24.5344 19.0262C24.5535 19.0511 24.578 19.0644 24.5989 19.0706C24.6149 19.0738 24.654 19.0618 24.6802 19.052C24.7367 19.032 24.7922 18.9946 24.8189 18.9524L24.8558 18.8946L24.8735 18.9578C24.9091 19.0844 24.9442 19.2084 24.9762 19.3213L24.978 19.3275L24.9767 19.3338C24.9398 19.5404 24.9042 19.7391 24.8709 19.9262L24.8704 19.9275L24.87 19.9289C24.7615 20.2995 24.674 20.6409 24.6144 20.9444C24.5855 21.096 24.562 21.2391 24.5558 21.3706C24.5455 21.5018 24.586 21.6178 24.6153 21.7235C24.6789 21.9338 24.7415 22.0938 24.7824 22.2031C24.802 22.2542 24.818 22.2951 24.8304 22.3271C24.8438 22.356 24.8487 22.3706 24.8473 22.3711Z" fill="#C8A399"/>
<path d="M24.7162 18.5413C24.7344 18.5382 24.7678 18.6542 24.814 18.7942C24.8593 18.9342 24.9006 19.0475 24.8838 19.056C24.8682 19.0644 24.7984 18.96 24.7513 18.8146C24.7038 18.6693 24.6989 18.544 24.7162 18.5413Z" fill="#C8A399"/>
<path d="M26.4064 18.8947C26.3855 18.8987 26.3571 18.4232 26.1157 17.9014C26.0593 17.7716 25.9842 17.6578 25.8726 17.6227C25.7624 17.5854 25.6491 17.5987 25.5571 17.6098C25.3699 17.6409 25.2468 17.6249 25.2491 17.6134C25.2508 17.6063 25.3642 17.6063 25.5495 17.5636C25.6419 17.5472 25.7611 17.5249 25.8917 17.5649C25.9566 17.5849 26.0193 17.628 26.0651 17.6849C26.1117 17.7414 26.1455 17.8072 26.1757 17.8734C26.2975 18.1392 26.3624 18.3978 26.3899 18.5863C26.4179 18.7756 26.4144 18.8943 26.4064 18.8947Z" fill="#C8A399"/>
<path d="M26.5402 17.2586C26.5389 17.2506 26.6406 17.264 26.7282 17.3831C26.8162 17.4995 26.8713 17.6848 26.9349 17.8831C27.058 18.2848 27.1055 18.6231 27.0886 18.6262C27.07 18.6297 26.994 18.3004 26.8718 17.9022C26.8086 17.704 26.7602 17.5195 26.69 17.4093C26.6211 17.2955 26.5358 17.2688 26.5402 17.2586Z" fill="#C8A399"/>
<path d="M26.4329 19.9307C26.4249 19.9133 26.5689 19.8462 26.6667 19.688C26.7685 19.532 26.7676 19.3733 26.7867 19.3729C26.7947 19.3725 26.8072 19.412 26.8036 19.4787C26.8005 19.5449 26.7769 19.6365 26.7223 19.7231C26.6672 19.8093 26.5943 19.8702 26.536 19.9009C26.4774 19.9325 26.436 19.9382 26.4329 19.9307Z" fill="#C8A399"/>
<path d="M25.5254 19.8956C25.5228 19.8769 25.6525 19.8538 25.7557 19.74C25.8619 19.6298 25.8765 19.4987 25.8952 19.5C25.9032 19.5 25.9125 19.5347 25.9032 19.5907C25.8943 19.6462 25.8632 19.7213 25.8037 19.7853C25.7441 19.8489 25.6712 19.8853 25.6161 19.8978C25.5614 19.9107 25.5263 19.904 25.5254 19.8956Z" fill="#C8A399"/>
<path d="M25.6031 19.0324C25.5871 19.0356 25.5649 18.6596 25.3796 18.2476C25.3365 18.1449 25.2787 18.0551 25.1925 18.0276C25.1076 17.9978 25.0205 18.0084 24.9498 18.0173C24.8058 18.0418 24.7111 18.0293 24.7129 18.02C24.7142 18.0147 24.8014 18.0142 24.944 17.9809C25.0151 17.968 25.1067 17.9507 25.2071 17.9822C25.2569 17.9982 25.3054 18.0324 25.3405 18.0769C25.3765 18.1213 25.4022 18.1733 25.4254 18.2258C25.5191 18.436 25.5689 18.6404 25.5898 18.7893C25.612 18.9387 25.6094 19.0324 25.6031 19.0324Z" fill="#C8A399"/>
<g opacity="0.62">
<path d="M23.936 14.9587C23.9489 15.1898 23.7631 15.3911 23.5222 15.4089C23.2814 15.4267 23.0756 15.2538 23.0631 15.0227C23.0502 14.7916 23.236 14.5898 23.4765 14.572C23.7178 14.5542 23.9236 14.7271 23.936 14.9587Z" fill="#C8A399"/>
</g>
<path d="M23.8202 14.9866C23.8308 15.1839 23.673 15.3555 23.4673 15.3706C23.2619 15.3857 23.0864 15.2386 23.0757 15.0412C23.065 14.8439 23.2228 14.6719 23.4282 14.6568C23.6339 14.6417 23.8095 14.7892 23.8202 14.9866Z" fill="#3C2621"/>
<path d="M23.4288 15.1711C23.5157 15.1711 23.5862 15.1007 23.5862 15.0138C23.5862 14.9269 23.5157 14.8564 23.4288 14.8564C23.3419 14.8564 23.2715 14.9269 23.2715 15.0138C23.2715 15.1007 23.3419 15.1711 23.4288 15.1711Z" fill="white"/>
<g opacity="0.62">
<path d="M26.9761 14.8009C26.9889 15.032 26.8032 15.2333 26.5623 15.2511C26.3214 15.2689 26.1156 15.096 26.1032 14.8649C26.0903 14.6338 26.2761 14.432 26.5165 14.4142C26.7574 14.3969 26.9632 14.5698 26.9761 14.8009Z" fill="#C8A399"/>
</g>
<path d="M26.8617 14.8056C26.8728 15.0056 26.7123 15.1798 26.5039 15.1949C26.2959 15.21 26.1177 15.0607 26.107 14.8611C26.0959 14.6611 26.2563 14.4869 26.4643 14.4718C26.6728 14.4563 26.8505 14.6056 26.8617 14.8056Z" fill="#3C2621"/>
<path d="M26.3819 15.0138C26.4688 15.0138 26.5393 14.9434 26.5393 14.8565C26.5393 14.7696 26.4688 14.6991 26.3819 14.6991C26.2951 14.6991 26.2246 14.7696 26.2246 14.8565C26.2246 14.9434 26.2951 15.0138 26.3819 15.0138Z" fill="white"/>
</g>
</g>
<defs>
<clipPath id="clip0_1141_49267">
<rect width="48" height="48" rx="24" fill="white"/>
</clipPath>
<clipPath id="clip1_1141_49267">
<rect width="48" height="48" fill="white"/>
</clipPath>
</defs>
</svg>
