<svg width="48" height="48" viewBox="0 0 48 48" fill="none" xmlns="http://www.w3.org/2000/svg">
<g clip-path="url(#clip0_1146_49378)">
<rect width="48" height="48" rx="24" fill="white"/>
<path d="M14.0224 5.24492L15.5001 12.0334L9.82503 8.94758L13.6086 15.2071L9.47036 16.6174L13.845 18.9098L9.1748 24.9045L12.8401 27.1085L9.47036 31.7809L15.6775 31.3405L12.1308 39.0983L16.3872 38.2169L14.7908 44.7405L20.1704 40.5969L21.5304 47.7382L23.2446 41.4787L26.7917 47.6498L26.5548 41.2143L32.585 47.0329L30.7521 39.6276L36.9001 41.3907L32.9988 35.572L37.9055 33.8969L34.2992 30.7231L38.3192 26.756L33.649 24.9045L37.9646 21.2898L33.5899 19.3507L38.0237 13.7965L32.585 14.0609L36.5455 6.39069L30.4566 8.5947L31.2841 2.42358L26.6139 8.06581L24.9588 2.51203L24.4268 8.4187L22.0624 2.51203L21.2966 9.07025L19.1655 3.12892L18.6926 9.38847L14.0224 5.24492Z" fill="#F8E3E3"/>
<path d="M8.71387 25.9751C9.88098 24.1555 11.0379 22.3604 12.1872 20.5835C14.513 21.8666 16.4205 24.1311 18.8788 25.1031C17.7116 26.9226 16.5548 28.7177 15.4054 30.4946C13.0796 29.2115 11.1721 26.9466 8.71387 25.9751Z" fill="#D2AEAD"/>
<path d="M17.5005 25.0866C16.8632 26.0711 16.2281 27.0502 15.5948 28.0248C15.537 27.9875 15.4792 27.9497 15.4219 27.9111C16.0539 26.9391 16.6877 25.9631 17.3237 24.9822C17.3823 25.0177 17.4414 25.0524 17.5005 25.0866Z" fill="#E4BEBE"/>
<path d="M17.0574 24.8168C16.4237 25.7928 15.7917 26.7644 15.1614 27.7324C15.1045 27.6928 15.0481 27.6528 14.9912 27.6124C15.6205 26.6466 16.2517 25.6777 16.8841 24.7048C16.9419 24.7426 16.9997 24.7799 17.0574 24.8168Z" fill="#E4BEBE"/>
<path d="M16.6219 24.5279C15.9912 25.4968 15.3619 26.4626 14.7334 27.4253C14.6774 27.3839 14.6214 27.3421 14.5654 27.2999C15.193 26.339 15.8214 25.3755 16.4512 24.4088C16.5081 24.4488 16.565 24.4888 16.6219 24.5279Z" fill="#E4BEBE"/>
<path d="M16.1927 24.223C15.2718 25.635 14.3536 27.0403 13.4363 28.4434C13.3807 28.4003 13.3256 28.3567 13.2705 28.3132C14.187 26.9114 15.1047 25.5074 16.0243 24.0985C16.0803 24.1403 16.1363 24.1816 16.1927 24.223Z" fill="#E4BEBE"/>
<path d="M15.77 23.9057C14.8517 25.3114 13.9348 26.7132 13.0188 28.1137C12.9637 28.0701 12.9086 28.0261 12.8535 27.9821C13.7695 26.5817 14.6855 25.1812 15.6033 23.7772C15.6588 23.8203 15.7144 23.863 15.77 23.9057Z" fill="#E4BEBE"/>
<path d="M15.3503 23.5799C14.4334 24.9821 13.5179 26.3817 12.6019 27.7821C12.5467 27.7386 12.4916 27.6946 12.4365 27.651C13.353 26.2501 14.2685 24.8506 15.185 23.4492C15.2396 23.4928 15.2947 23.5363 15.3503 23.5799Z" fill="#E4BEBE"/>
<path d="M14.9317 23.2493C14.0157 24.6497 13.0997 26.0493 12.1828 27.4519C12.1277 27.4088 12.0722 27.3653 12.0166 27.3226C12.9339 25.9186 13.8499 24.5182 14.7659 23.1182C14.8215 23.1617 14.8766 23.2057 14.9317 23.2493Z" fill="#E4BEBE"/>
<path d="M14.5158 22.9177C13.5998 24.3185 12.6829 25.7208 11.7642 27.127C11.7087 27.0848 11.6527 27.0425 11.5967 27.0008C12.5162 25.5919 13.4336 24.1883 14.35 22.787C14.4056 22.8305 14.4607 22.8741 14.5158 22.9177Z" fill="#E4BEBE"/>
<path d="M14.0966 22.5888C13.1793 23.9924 12.2606 25.3986 11.3393 26.8115C11.2828 26.7706 11.2264 26.7297 11.1699 26.6897C12.0926 25.2737 13.0121 23.8648 13.9299 22.46C13.9859 22.5026 14.041 22.5457 14.0966 22.5888Z" fill="#E4BEBE"/>
<path d="M13.6761 22.2662C12.7569 23.6742 11.8352 25.0875 10.9103 26.5084C10.8529 26.4693 10.7956 26.4306 10.7383 26.3929C11.6649 24.968 12.5876 23.5515 13.5081 22.1409C13.5641 22.1826 13.6201 22.2244 13.6761 22.2662Z" fill="#E4BEBE"/>
<path d="M13.2504 21.9537C12.3282 23.3689 11.4033 24.7902 10.4739 26.2222C10.4157 26.1857 10.3575 26.1493 10.2988 26.1142C11.2304 24.6777 12.157 23.252 13.0806 21.8337C13.137 21.8733 13.1935 21.9133 13.2504 21.9537Z" fill="#E4BEBE"/>
<path d="M12.8189 21.655C11.8927 23.079 10.9634 24.5115 10.0287 25.9555C9.96916 25.9217 9.90961 25.8888 9.84961 25.8564C10.7865 24.4066 11.7185 22.9693 12.6461 21.5413C12.7043 21.5786 12.7616 21.6164 12.8189 21.655Z" fill="#E4BEBE"/>
<path d="M27.8203 19.1023C29.2545 20.6694 30.6883 22.2365 32.1216 23.8027C36.8621 23.8845 35.5452 17.5214 40.211 17.524C39.1461 16.3605 38.0816 15.1974 37.0176 14.0343C35.7452 13.6151 34.6879 13.4249 33.7652 13.3778C31.4296 14.9098 31.5763 19.0827 27.8203 19.1023Z" fill="#EBC4C4"/>
<path d="M37.0181 14.0346C35.7456 13.6155 34.6883 13.4253 33.7656 13.3782C34.1385 13.7857 34.5118 14.1933 34.8847 14.6008C35.4314 14.2373 36.1145 14.0191 37.0181 14.0346Z" fill="#D2AEAD"/>
<path d="M37.8884 17.5373C37.0835 16.6577 36.2786 15.7786 35.4737 14.899C35.3955 14.9435 35.3204 14.9906 35.2471 15.0404C36.0528 15.9208 36.8586 16.8008 37.6644 17.6813C37.7368 17.6306 37.8111 17.5826 37.8884 17.5373Z" fill="#FCE8E7"/>
<path d="M37.3512 17.9307C36.5441 17.0489 35.7369 16.1671 34.9298 15.2858C34.8641 15.3431 34.8001 15.4027 34.7383 15.464C35.5458 16.3462 36.3538 17.2289 37.1614 18.1115C37.2232 18.0489 37.2863 17.9884 37.3512 17.9307Z" fill="#FCE8E7"/>
<path d="M36.8929 18.4093C36.084 17.5258 35.2755 16.6422 34.4666 15.7587C34.4102 15.8262 34.3555 15.8951 34.3018 15.9658C35.1111 16.8498 35.9204 17.7338 36.7298 18.6178C36.7831 18.5467 36.8373 18.4773 36.8929 18.4093Z" fill="#FCE8E7"/>
<path d="M36.4982 18.9524C35.3115 17.6559 34.1249 16.3595 32.9382 15.0635C32.8884 15.1381 32.84 15.2137 32.792 15.2906C33.9791 16.5875 35.1662 17.8844 36.3538 19.1813C36.4013 19.1039 36.4493 19.0279 36.4982 18.9524Z" fill="#FCE8E7"/>
<path d="M36.1431 19.5399C34.9551 18.2421 33.7675 16.9448 32.5795 15.6475C32.5342 15.7266 32.4893 15.8066 32.4453 15.8866C33.6333 17.1843 34.8213 18.4821 36.0098 19.7799C36.0538 19.6995 36.0982 19.6195 36.1431 19.5399Z" fill="#FCE8E7"/>
<path d="M35.8098 20.1497C34.6214 18.8515 33.4334 17.5537 32.2449 16.2555C32.2014 16.3368 32.1578 16.4177 32.1143 16.499C33.3027 17.7973 34.4907 19.095 35.6791 20.3928C35.7227 20.3119 35.7663 20.231 35.8098 20.1497Z" fill="#FCE8E7"/>
<path d="M35.4775 20.7617C34.2895 19.464 33.1015 18.1662 31.9135 16.8684C31.8691 16.9489 31.8246 17.0284 31.7793 17.1075C32.9673 18.4049 34.1549 19.7026 35.3424 21C35.3882 20.9213 35.4331 20.8417 35.4775 20.7617Z" fill="#FCE8E7"/>
<path d="M35.1285 21.3546C33.9413 20.0577 32.7542 18.7612 31.5671 17.4644C31.5196 17.5408 31.4707 17.6168 31.4209 17.691C32.6076 18.9875 33.7942 20.2835 34.9805 21.5795C35.0311 21.5057 35.0805 21.4306 35.1285 21.3546Z" fill="#FCE8E7"/>
<path d="M34.7418 21.9074C33.5564 20.6123 32.3706 19.3177 31.1853 18.0221C31.1315 18.0923 31.0764 18.1612 31.0195 18.2283C32.2044 19.5225 33.3889 20.8168 34.5733 22.111C34.6315 22.0448 34.6871 21.9768 34.7418 21.9074Z" fill="#FCE8E7"/>
<path d="M34.2964 22.3995C33.1133 21.1071 31.9302 19.8146 30.7466 18.5217C30.6844 18.5831 30.6199 18.6422 30.5537 18.6986C31.7359 19.9902 32.9182 21.2817 34.0999 22.5728C34.1679 22.5173 34.2333 22.4595 34.2964 22.3995Z" fill="#FCE8E7"/>
<path d="M33.7763 22.8097C32.5963 21.5204 31.4158 20.2311 30.2358 18.9413C30.1625 18.9906 30.0865 19.0373 30.0078 19.0808C31.1869 20.3688 32.3656 21.6568 33.5443 22.9448C33.6238 22.9026 33.7011 22.8577 33.7763 22.8097Z" fill="#FCE8E7"/>
<path d="M33.1583 23.1173C31.9819 21.832 30.8054 20.5466 29.6285 19.2609C29.5414 19.2955 29.4512 19.3271 29.3574 19.3551C30.5325 20.6391 31.7076 21.9226 32.8823 23.2062C32.9774 23.18 33.0694 23.1502 33.1583 23.1173Z" fill="#FCE8E7"/>
<path d="M34.5739 26.3667C33.8962 28.2525 33.2104 30.1649 32.5166 32.1054C35.969 29.9303 37.1686 35.4329 40.4233 33.9316C40.8686 32.7285 41.3144 31.5254 41.7602 30.3209C41.9299 29.8952 42.1002 29.4689 42.2704 29.0414C38.8744 30.9787 37.765 25.1263 34.5739 26.3667Z" fill="#D2AEAD"/>
<path d="M39.1097 33.7018C39.5884 32.4151 40.0666 31.1307 40.5439 29.848C40.4742 29.84 40.4053 29.8284 40.3373 29.8142C39.8608 31.0938 39.3835 32.3751 38.9053 33.66C38.9724 33.6769 39.0408 33.6907 39.1097 33.7018Z" fill="#E4BEBE"/>
<path d="M38.6035 33.5653C39.0813 32.2822 39.5577 31.0031 40.0333 29.7271C39.9679 29.7035 39.9035 29.6773 39.8395 29.6484C39.3644 30.9231 38.8879 32.2013 38.4102 33.484C38.4742 33.5133 38.5386 33.5404 38.6035 33.5653Z" fill="#E4BEBE"/>
<path d="M38.1229 33.3365C38.6007 32.0529 39.0771 30.7747 39.5523 29.5005C39.4905 29.4645 39.4291 29.4267 39.3687 29.3867C38.8936 30.6614 38.4167 31.9405 37.9385 33.2254C37.9994 33.2645 38.0611 33.3014 38.1229 33.3365Z" fill="#E4BEBE"/>
<path d="M37.6636 33.04C38.1436 31.7493 38.6218 30.4649 39.0987 29.1862C39.0396 29.1413 38.9809 29.0947 38.9227 29.0471C38.4454 30.328 37.9662 31.6151 37.4854 32.9093C37.5445 32.9533 37.6036 32.9973 37.6636 33.04Z" fill="#E4BEBE"/>
<path d="M37.2161 32.6991C37.6988 31.3991 38.1797 30.1067 38.6583 28.8209C38.601 28.7698 38.5441 28.7182 38.4872 28.6658C38.0072 29.9555 37.5255 31.2524 37.041 32.5578C37.0992 32.6049 37.1575 32.652 37.2161 32.6991Z" fill="#E4BEBE"/>
<path d="M36.7753 32.3382C37.2624 31.0244 37.7464 29.719 38.2286 28.4222C38.1721 28.3684 38.1157 28.3142 38.0593 28.2604C37.5757 29.563 37.0895 30.8746 36.6006 32.195C36.6588 32.2422 36.717 32.2902 36.7753 32.3382Z" fill="#E4BEBE"/>
<path d="M36.3316 31.9812C36.8241 30.6492 37.3134 29.327 37.8001 28.0141C37.7436 27.9608 37.6867 27.9074 37.6299 27.855C37.141 29.1754 36.6494 30.5056 36.1543 31.8461C36.2139 31.8901 36.273 31.935 36.3316 31.9812Z" fill="#E4BEBE"/>
<path d="M35.8809 31.6521C36.38 30.2974 36.8756 28.9534 37.368 27.6205C37.3102 27.5708 37.2525 27.5214 37.1942 27.4739C36.6991 28.8165 36.2005 30.1699 35.6982 31.5348C35.76 31.5725 35.8205 31.6117 35.8809 31.6521Z" fill="#E4BEBE"/>
<path d="M35.4154 31.3746C35.9225 29.9924 36.4256 28.623 36.9256 27.2653C36.866 27.2222 36.806 27.1804 36.7456 27.1404C36.2425 28.5093 35.7358 29.8906 35.2256 31.2844C35.2891 31.3124 35.3527 31.3426 35.4154 31.3746Z" fill="#E4BEBE"/>
<path d="M34.9284 31.1734C35.4444 29.7596 35.9569 28.3596 36.4653 26.973C36.4027 26.9396 36.3395 26.9085 36.276 26.8796C35.764 28.2792 35.2475 29.6925 34.7275 31.1201C34.7951 31.1348 34.8622 31.153 34.9284 31.1734Z" fill="#E4BEBE"/>
<path d="M34.4095 31.0716C34.9362 29.6218 35.4589 28.1871 35.9771 26.7667C35.9109 26.7462 35.8438 26.7285 35.7758 26.7142C35.2531 28.1493 34.7264 29.5991 34.1953 31.0645C34.2673 31.0631 34.3389 31.0658 34.4095 31.0716Z" fill="#E4BEBE"/>
<path d="M33.8561 31.0938C34.3948 29.6036 34.9286 28.1298 35.4579 26.6711C35.3868 26.6667 35.3148 26.6662 35.2419 26.6689C34.7077 28.1436 34.169 29.6347 33.625 31.1418C33.7032 31.1218 33.7806 31.1058 33.8561 31.0938Z" fill="#E4BEBE"/>
<path d="M38.1858 5.19289C38.1858 7.25111 36.5165 8.92044 34.4582 8.92044C33.6267 8.92044 32.8587 8.64755 32.2374 8.18533L30.4111 8.65155L31.1711 6.95111C30.8889 6.42711 30.7302 5.82711 30.7302 5.19289C30.7302 3.13467 32.3996 1.46533 34.4578 1.46533C36.5165 1.46533 38.1858 3.13467 38.1858 5.19289Z" fill="white" stroke="#B24B4B" stroke-width="0.0444444" stroke-miterlimit="10"/>
<path d="M33.7426 3.1875L32.875 3.27772L33.2657 6.46839L34.0159 6.39017L33.7426 3.1875Z" fill="#B24B4B"/>
<path d="M33.3866 7.61868L34.1367 7.54077L34.0588 6.79062L33.3087 6.86853L33.3866 7.61868Z" fill="#B24B4B"/>
<path d="M35.9216 2.86576L35.0553 2.76709L34.75 5.96665L35.4998 6.05198L35.9216 2.86576Z" fill="#B24B4B"/>
<path d="M34.6188 7.11575L35.3682 7.20105L35.4535 6.45165L34.7041 6.36635L34.6188 7.11575Z" fill="#B24B4B"/>
<path d="M40.2393 24.2394C40.4287 23.0121 39.5873 21.8637 38.3601 21.6744C37.1328 21.485 35.9844 22.3264 35.795 23.5536C35.6057 24.7809 36.447 25.9293 37.6743 26.1186C38.9015 26.308 40.0499 25.4666 40.2393 24.2394Z" stroke="#B24B4B" stroke-width="0.0444444" stroke-miterlimit="10" stroke-linecap="round" stroke-linejoin="round"/>
<path d="M37.5111 23.6226C37.5111 23.8066 37.4364 23.956 37.3444 23.956C37.2524 23.956 37.1777 23.8066 37.1777 23.6226C37.1777 23.4386 37.2524 23.2893 37.3444 23.2893C37.4364 23.2893 37.5111 23.4386 37.5111 23.6226Z" stroke="#B24B4B" stroke-width="0.0444444" stroke-miterlimit="10" stroke-linecap="round" stroke-linejoin="round"/>
<path d="M38.6781 23.6226C38.6781 23.8066 38.6034 23.956 38.5114 23.956C38.4194 23.956 38.3447 23.8066 38.3447 23.6226C38.3447 23.4386 38.4194 23.2893 38.5114 23.2893C38.6034 23.2893 38.6781 23.4386 38.6781 23.6226Z" stroke="#B24B4B" stroke-width="0.0444444" stroke-miterlimit="10" stroke-linecap="round" stroke-linejoin="round"/>
<path d="M36.877 22.7555L37.7774 23.2559" stroke="#B24B4B" stroke-width="0.0444444" stroke-miterlimit="10" stroke-linecap="round" stroke-linejoin="round"/>
<path d="M38.8447 22.6222L38.1113 23.056" stroke="#B24B4B" stroke-width="0.0444444" stroke-miterlimit="10" stroke-linecap="round" stroke-linejoin="round"/>
<path d="M36.7773 24.9569C36.7773 24.9569 37.0107 24.4564 37.9111 24.4564C38.8116 24.4564 39.1449 24.9569 39.1449 24.9569" stroke="#B24B4B" stroke-width="0.0444444" stroke-miterlimit="10" stroke-linecap="round" stroke-linejoin="round"/>
<path d="M33.2744 38.045C34.0727 38.045 34.7198 37.3979 34.7198 36.5996C34.7198 35.8014 34.0727 35.1543 33.2744 35.1543C32.4762 35.1543 31.8291 35.8014 31.8291 36.5996C31.8291 37.3979 32.4762 38.045 33.2744 38.045Z" stroke="#B24B4B" stroke-width="0.0444444" stroke-miterlimit="10" stroke-linecap="round" stroke-linejoin="round"/>
<path d="M32.9496 36.4236C32.9496 36.5418 32.9016 36.6378 32.8425 36.6378C32.7834 36.6378 32.7354 36.5418 32.7354 36.4236C32.7354 36.3054 32.7834 36.2094 32.8425 36.2094C32.9016 36.2094 32.9496 36.3054 32.9496 36.4236Z" stroke="#B24B4B" stroke-width="0.0444444" stroke-miterlimit="10" stroke-linecap="round" stroke-linejoin="round"/>
<path d="M33.5925 36.6378C33.6516 36.6378 33.6996 36.5419 33.6996 36.4236C33.6996 36.3053 33.6516 36.2094 33.5925 36.2094C33.5333 36.2094 33.4854 36.3053 33.4854 36.4236C33.4854 36.5419 33.5333 36.6378 33.5925 36.6378Z" stroke="#B24B4B" stroke-width="0.0444444" stroke-miterlimit="10" stroke-linecap="round" stroke-linejoin="round"/>
<path d="M32.542 35.8663L33.1207 36.1881" stroke="#B24B4B" stroke-width="0.0444444" stroke-miterlimit="10" stroke-linecap="round" stroke-linejoin="round"/>
<path d="M33.8065 35.7805L33.335 36.0592" stroke="#B24B4B" stroke-width="0.0444444" stroke-miterlimit="10" stroke-linecap="round" stroke-linejoin="round"/>
<path d="M32.4775 37.2809C32.4775 37.2809 32.6278 36.9596 33.2064 36.9596C33.7851 36.9596 33.9998 37.2809 33.9998 37.2809" stroke="#B24B4B" stroke-width="0.0444444" stroke-miterlimit="10" stroke-linecap="round" stroke-linejoin="round"/>
<path d="M14.0973 19.5951C14.966 19.5951 15.6702 18.8909 15.6702 18.0222C15.6702 17.1535 14.966 16.4493 14.0973 16.4493C13.2286 16.4493 12.5244 17.1535 12.5244 18.0222C12.5244 18.8909 13.2286 19.5951 14.0973 19.5951Z" stroke="#B24B4B" stroke-width="0.0444444" stroke-miterlimit="10" stroke-linecap="round" stroke-linejoin="round"/>
<path d="M13.7436 17.8311C13.7436 17.96 13.6912 18.0644 13.6272 18.0644C13.5632 18.0644 13.5107 17.96 13.5107 17.8311C13.5107 17.7022 13.5627 17.5978 13.6272 17.5978C13.6916 17.5978 13.7436 17.7022 13.7436 17.8311Z" stroke="#B24B4B" stroke-width="0.0444444" stroke-miterlimit="10" stroke-linecap="round" stroke-linejoin="round"/>
<path d="M14.56 17.8311C14.56 17.96 14.5076 18.0644 14.4436 18.0644C14.3796 18.0644 14.3271 17.96 14.3271 17.8311C14.3271 17.7022 14.3791 17.5978 14.4436 17.5978C14.508 17.5978 14.56 17.7022 14.56 17.8311Z" stroke="#B24B4B" stroke-width="0.0444444" stroke-miterlimit="10" stroke-linecap="round" stroke-linejoin="round"/>
<path d="M13.2998 17.2245L13.93 17.5747" stroke="#B24B4B" stroke-width="0.0444444" stroke-miterlimit="10" stroke-linecap="round" stroke-linejoin="round"/>
<path d="M14.6774 17.1311L14.1641 17.4347" stroke="#B24B4B" stroke-width="0.0444444" stroke-miterlimit="10" stroke-linecap="round" stroke-linejoin="round"/>
<path d="M13.2305 18.7645C13.2305 18.7645 13.3936 18.4147 14.0238 18.4147C14.6536 18.4147 14.8869 18.7645 14.8869 18.7645" stroke="#B24B4B" stroke-width="0.0444444" stroke-miterlimit="10" stroke-linecap="round" stroke-linejoin="round"/>
<path d="M15.35 35.2226C16.5918 35.2226 17.5985 34.2159 17.5985 32.9742C17.5985 31.7324 16.5918 30.7257 15.35 30.7257C14.1082 30.7257 13.1016 31.7324 13.1016 32.9742C13.1016 34.2159 14.1082 35.2226 15.35 35.2226Z" stroke="#B24B4B" stroke-width="0.0444444" stroke-miterlimit="10" stroke-linecap="round" stroke-linejoin="round"/>
<path d="M15.3336 34.2204C15.8388 34.2204 16.2483 34.1509 16.2483 34.0653C16.2483 33.9796 15.8388 33.9102 15.3336 33.9102C14.8285 33.9102 14.4189 33.9796 14.4189 34.0653C14.4189 34.1509 14.8285 34.2204 15.3336 34.2204Z" stroke="#B24B4B" stroke-width="0.0444444" stroke-miterlimit="10" stroke-linecap="round" stroke-linejoin="round"/>
<path d="M13.7051 32.6079C13.7051 32.6079 14.0771 33.0421 15.0384 33.135" stroke="#B24B4B" stroke-width="0.0444444" stroke-miterlimit="10" stroke-linecap="round" stroke-linejoin="round"/>
<path d="M16.9915 32.6079C16.9915 32.6079 16.6195 33.0421 15.6582 33.135" stroke="#B24B4B" stroke-width="0.0444444" stroke-miterlimit="10" stroke-linecap="round" stroke-linejoin="round"/>
<path d="M14.4083 33.0861C14.4083 33.1803 14.351 33.2567 14.2803 33.2567C14.2097 33.2567 14.1523 33.1803 14.1523 33.0861C14.1523 32.9919 14.2097 32.9154 14.2803 32.9154C14.351 32.9154 14.4083 32.9923 14.4083 33.0861Z" stroke="#B24B4B" stroke-width="0.0444444" stroke-miterlimit="10" stroke-linecap="round" stroke-linejoin="round"/>
<path d="M16.5558 33.0861C16.5558 33.1803 16.4985 33.2567 16.4278 33.2567C16.3571 33.2567 16.2998 33.1803 16.2998 33.0861C16.2998 32.9919 16.3571 32.9154 16.4278 32.9154C16.4985 32.9158 16.5558 32.9923 16.5558 33.0861Z" stroke="#B24B4B" stroke-width="0.0444444" stroke-miterlimit="10" stroke-linecap="round" stroke-linejoin="round"/>
<path d="M17.9822 41.0702C18.7328 41.0702 19.3413 40.4617 19.3413 39.711C19.3413 38.9604 18.7328 38.3519 17.9822 38.3519C17.2315 38.3519 16.623 38.9604 16.623 39.711C16.623 40.4617 17.2315 41.0702 17.9822 41.0702Z" stroke="#B24B4B" stroke-width="0.0444444" stroke-miterlimit="10" stroke-linecap="round" stroke-linejoin="round"/>
<path d="M17.9718 40.4638C18.2772 40.4638 18.5247 40.4218 18.5247 40.37C18.5247 40.3182 18.2772 40.2762 17.9718 40.2762C17.6665 40.2762 17.4189 40.3182 17.4189 40.37C17.4189 40.4218 17.6665 40.4638 17.9718 40.4638Z" stroke="#B24B4B" stroke-width="0.0444444" stroke-miterlimit="10" stroke-linecap="round" stroke-linejoin="round"/>
<path d="M16.9873 39.4896C16.9873 39.4896 17.2122 39.7518 17.7931 39.8083" stroke="#B24B4B" stroke-width="0.0444444" stroke-miterlimit="10" stroke-linecap="round" stroke-linejoin="round"/>
<path d="M18.9737 39.4896C18.9737 39.4896 18.7489 39.7518 18.168 39.8083" stroke="#B24B4B" stroke-width="0.0444444" stroke-miterlimit="10" stroke-linecap="round" stroke-linejoin="round"/>
<path d="M17.3351 39.8816C17.3779 39.8816 17.4125 39.8355 17.4125 39.7785C17.4125 39.7216 17.3779 39.6754 17.3351 39.6754C17.2924 39.6754 17.2578 39.7216 17.2578 39.7785C17.2578 39.8355 17.2924 39.8816 17.3351 39.8816Z" stroke="#B24B4B" stroke-width="0.0444444" stroke-miterlimit="10" stroke-linecap="round" stroke-linejoin="round"/>
<path d="M18.633 39.8816C18.6757 39.8816 18.7103 39.8355 18.7103 39.7785C18.7103 39.7216 18.6757 39.6754 18.633 39.6754C18.5903 39.6754 18.5557 39.7216 18.5557 39.7785C18.5557 39.8355 18.5903 39.8816 18.633 39.8816Z" stroke="#B24B4B" stroke-width="0.0444444" stroke-miterlimit="10" stroke-linecap="round" stroke-linejoin="round"/>
<path d="M31.9724 30.7462C32.723 30.7462 33.3315 30.1377 33.3315 29.3871C33.3315 28.6364 32.723 28.028 31.9724 28.028C31.2218 28.028 30.6133 28.6364 30.6133 29.3871C30.6133 30.1377 31.2218 30.7462 31.9724 30.7462Z" stroke="#B24B4B" stroke-width="0.0444444" stroke-miterlimit="10" stroke-linecap="round" stroke-linejoin="round"/>
<path d="M31.9621 30.1399C32.2674 30.1399 32.515 30.098 32.515 30.0462C32.515 29.9944 32.2674 29.9524 31.9621 29.9524C31.6567 29.9524 31.4092 29.9944 31.4092 30.0462C31.4092 30.098 31.6567 30.1399 31.9621 30.1399Z" stroke="#B24B4B" stroke-width="0.0444444" stroke-miterlimit="10" stroke-linecap="round" stroke-linejoin="round"/>
<path d="M30.9785 29.1654C30.9785 29.1654 31.2034 29.4276 31.7843 29.4841" stroke="#B24B4B" stroke-width="0.0444444" stroke-miterlimit="10" stroke-linecap="round" stroke-linejoin="round"/>
<path d="M32.965 29.1654C32.965 29.1654 32.7401 29.4276 32.1592 29.4841" stroke="#B24B4B" stroke-width="0.0444444" stroke-miterlimit="10" stroke-linecap="round" stroke-linejoin="round"/>
<path d="M31.4027 29.4547C31.4027 29.5116 31.368 29.5578 31.3254 29.5578C31.2827 29.5578 31.248 29.5116 31.248 29.4547C31.248 29.3978 31.2827 29.3516 31.3254 29.3516C31.368 29.3516 31.4027 29.3978 31.4027 29.4547Z" stroke="#B24B4B" stroke-width="0.0444444" stroke-miterlimit="10" stroke-linecap="round" stroke-linejoin="round"/>
<path d="M32.7015 29.4547C32.7015 29.5116 32.6669 29.5578 32.6242 29.5578C32.5815 29.5578 32.5469 29.5116 32.5469 29.4547C32.5469 29.3978 32.5815 29.3516 32.6242 29.3516C32.6669 29.3516 32.7015 29.3978 32.7015 29.4547Z" stroke="#B24B4B" stroke-width="0.0444444" stroke-miterlimit="10" stroke-linecap="round" stroke-linejoin="round"/>
<path d="M34.5622 12.3061C35.3129 12.3061 35.9213 11.6976 35.9213 10.947C35.9213 10.1964 35.3129 9.58789 34.5622 9.58789C33.8116 9.58789 33.2031 10.1964 33.2031 10.947C33.2031 11.6976 33.8116 12.3061 34.5622 12.3061Z" stroke="#B24B4B" stroke-width="0.0444444" stroke-miterlimit="10" stroke-linecap="round" stroke-linejoin="round"/>
<path d="M34.5529 11.7C34.8582 11.7 35.1058 11.658 35.1058 11.6062C35.1058 11.5544 34.8582 11.5125 34.5529 11.5125C34.2475 11.5125 34 11.5544 34 11.6062C34 11.658 34.2475 11.7 34.5529 11.7Z" stroke="#B24B4B" stroke-width="0.0444444" stroke-miterlimit="10" stroke-linecap="round" stroke-linejoin="round"/>
<path d="M33.5684 10.7257C33.5684 10.7257 33.7932 10.9879 34.3741 11.0444" stroke="#B24B4B" stroke-width="0.0444444" stroke-miterlimit="10" stroke-linecap="round" stroke-linejoin="round"/>
<path d="M35.5548 10.7257C35.5548 10.7257 35.3299 10.9879 34.749 11.0444" stroke="#B24B4B" stroke-width="0.0444444" stroke-miterlimit="10" stroke-linecap="round" stroke-linejoin="round"/>
<path d="M33.9935 11.0146C33.9935 11.0715 33.9589 11.1177 33.9162 11.1177C33.8735 11.1177 33.8389 11.0715 33.8389 11.0146C33.8389 10.9577 33.8735 10.9115 33.9162 10.9115C33.9589 10.9115 33.9935 10.9577 33.9935 11.0146Z" stroke="#B24B4B" stroke-width="0.0444444" stroke-miterlimit="10" stroke-linecap="round" stroke-linejoin="round"/>
<path d="M35.2914 11.0146C35.2914 11.0715 35.2567 11.1177 35.2141 11.1177C35.1714 11.1177 35.1367 11.0715 35.1367 11.0146C35.1367 10.9577 35.1714 10.9115 35.2141 10.9115C35.2567 10.9115 35.2914 10.9577 35.2914 11.0146Z" stroke="#B24B4B" stroke-width="0.0444444" stroke-miterlimit="10" stroke-linecap="round" stroke-linejoin="round"/>
<path d="M12.8542 12.8715C13.6048 12.8715 14.2133 12.263 14.2133 11.5124C14.2133 10.7618 13.6048 10.1533 12.8542 10.1533C12.1036 10.1533 11.4951 10.7618 11.4951 11.5124C11.4951 12.263 12.1036 12.8715 12.8542 12.8715Z" stroke="#B24B4B" stroke-width="0.0444444" stroke-miterlimit="10" stroke-linecap="round" stroke-linejoin="round"/>
<path d="M12.8439 12.2658C13.1493 12.2658 13.3968 12.2238 13.3968 12.172C13.3968 12.1202 13.1493 12.0782 12.8439 12.0782C12.5386 12.0782 12.291 12.1202 12.291 12.172C12.291 12.2238 12.5386 12.2658 12.8439 12.2658Z" stroke="#B24B4B" stroke-width="0.0444444" stroke-miterlimit="10" stroke-linecap="round" stroke-linejoin="round"/>
<path d="M11.8604 11.2911C11.8604 11.2911 12.0852 11.5534 12.6661 11.6098" stroke="#B24B4B" stroke-width="0.0444444" stroke-miterlimit="10" stroke-linecap="round" stroke-linejoin="round"/>
<path d="M13.8468 11.2911C13.8468 11.2911 13.6219 11.5534 13.041 11.6098" stroke="#B24B4B" stroke-width="0.0444444" stroke-miterlimit="10" stroke-linecap="round" stroke-linejoin="round"/>
<path d="M12.2082 11.6836C12.2509 11.6836 12.2855 11.6375 12.2855 11.5805C12.2855 11.5236 12.2509 11.4774 12.2082 11.4774C12.1655 11.4774 12.1309 11.5236 12.1309 11.5805C12.1309 11.6375 12.1655 11.6836 12.2082 11.6836Z" stroke="#B24B4B" stroke-width="0.0444444" stroke-miterlimit="10" stroke-linecap="round" stroke-linejoin="round"/>
<path d="M13.5051 11.6836C13.5478 11.6836 13.5824 11.6375 13.5824 11.5805C13.5824 11.5236 13.5478 11.4774 13.5051 11.4774C13.4624 11.4774 13.4277 11.5236 13.4277 11.5805C13.4277 11.6375 13.4624 11.6836 13.5051 11.6836Z" stroke="#B24B4B" stroke-width="0.0444444" stroke-miterlimit="10" stroke-linecap="round" stroke-linejoin="round"/>
<path d="M29.7373 43.0924C30.5468 43.0924 31.203 42.4362 31.203 41.6267C31.203 40.8171 30.5468 40.1609 29.7373 40.1609C28.9277 40.1609 28.2715 40.8171 28.2715 41.6267C28.2715 42.4362 28.9277 43.0924 29.7373 43.0924Z" stroke="#B24B4B" stroke-width="0.0444444" stroke-miterlimit="10" stroke-linecap="round" stroke-linejoin="round"/>
<path d="M30.3219 42.3377C30.3219 42.3937 30.0548 42.4386 29.7259 42.4386C29.3965 42.4386 29.1299 42.3933 29.1299 42.3377C29.1299 42.2817 29.397 42.2368 29.7259 42.2368C30.0552 42.2364 30.3219 42.2817 30.3219 42.3377Z" stroke="#B24B4B" stroke-width="0.0444444" stroke-miterlimit="10" stroke-linecap="round" stroke-linejoin="round"/>
<path d="M28.666 41.3876C28.666 41.3876 28.9087 41.6707 29.5349 41.7311" stroke="#B24B4B" stroke-width="0.0444444" stroke-miterlimit="10" stroke-linecap="round" stroke-linejoin="round"/>
<path d="M30.8074 41.3876C30.8074 41.3876 30.5647 41.6707 29.9385 41.7311" stroke="#B24B4B" stroke-width="0.0444444" stroke-miterlimit="10" stroke-linecap="round" stroke-linejoin="round"/>
<path d="M29.1233 41.6996C29.1233 41.7609 29.0859 41.8107 29.0401 41.8107C28.9944 41.8107 28.957 41.7609 28.957 41.6996C28.957 41.6383 28.9944 41.5885 29.0401 41.5885C29.0859 41.5885 29.1233 41.6383 29.1233 41.6996Z" stroke="#B24B4B" stroke-width="0.0444444" stroke-miterlimit="10" stroke-linecap="round" stroke-linejoin="round"/>
<path d="M30.5227 41.6996C30.5227 41.7609 30.4853 41.8107 30.4396 41.8107C30.3933 41.8107 30.3564 41.7609 30.3564 41.6996C30.3564 41.6383 30.3938 41.5885 30.4396 41.5885C30.4853 41.5885 30.5227 41.6383 30.5227 41.6996Z" stroke="#B24B4B" stroke-width="0.0444444" stroke-miterlimit="10" stroke-linecap="round" stroke-linejoin="round"/>
<path opacity="0.89" d="M23.6016 47.6516C27.2896 47.6516 30.2794 46.7633 30.2794 45.6676C30.2794 44.5719 27.2896 43.6836 23.6016 43.6836C19.9136 43.6836 16.9238 44.5719 16.9238 45.6676C16.9238 46.7633 19.9136 47.6516 23.6016 47.6516Z" fill="#D3A0A0"/>
<path d="M23.7789 27.5819L25.0047 34.5174C25.0047 34.5174 24.8758 34.8721 24.8758 35.0334C24.8758 35.1948 24.8758 35.3236 24.8758 35.3236L23.9082 38.8721L25.4242 40.2268C25.4242 40.2268 28.2954 35.3556 28.4887 34.6459C28.682 33.9361 28.8114 30.9036 28.8114 30.9036L28.65 24.7423L28.5856 23.3228C28.5856 23.3228 25.166 23.7423 23.2305 23.8068C21.2949 23.8712 20.166 23.7743 20.166 23.7743L19.9402 23.6774C19.9402 23.6774 19.682 23.9676 19.8758 24.3872" fill="#C55C5C"/>
<path d="M24.4893 30.831L24.6701 31.6586C25.1026 30.7488 26.1666 28.3733 26.2439 28.1021C26.3217 27.8301 24.9119 30.1359 24.4893 30.831Z" fill="#E46F6F"/>
<path d="M28.8113 30.9045L28.6758 25.7218C27.3522 28.1738 25.4713 31.1 24.7789 32.1609L25.0046 34.5174C25.0046 34.5174 24.8758 34.872 24.8758 35.0334C24.8758 35.1947 24.8758 35.3236 24.8758 35.3236L23.9082 38.872L25.4242 40.2267C25.4242 40.2267 28.2953 35.3556 28.4886 34.6458C28.6824 33.9369 28.8113 30.9045 28.8113 30.9045Z" fill="#E46F6F"/>
<path d="M24.9729 40.8081C24.9729 40.8081 24.844 41.6148 24.844 41.8406C24.844 42.0663 25.4244 42.9374 25.6506 43.1308C25.8764 43.3241 26.4249 43.5503 26.5538 43.8081C26.6826 44.0663 26.4569 44.7112 26.3924 44.8081C26.328 44.905 25.7151 45.0983 25.1022 44.8406C24.4893 44.5823 23.8764 43.7117 23.3604 43.1632C22.8444 42.6148 22.0702 41.905 22.1346 41.389C22.1991 40.873 23.6186 39.7117 23.6186 39.7117C23.6186 39.7117 24.6822 40.7757 24.9729 40.8081Z" fill="#FADCDC" stroke="#BC4644" stroke-width="0.0444444" stroke-miterlimit="10"/>
<path d="M24.7006 40.9334C24.7006 40.9334 24.5304 41.5014 24.4166 41.8423C24.3028 42.1832 24.7859 42.4956 24.9277 42.5805C25.0695 42.6658 25.1833 42.5805 25.0695 42.325C24.9557 42.0694 24.8428 41.8401 24.8428 41.8401L24.9717 40.8076L24.7006 40.9334Z" fill="#B24B4B"/>
<path d="M26.3919 44.8081C26.4563 44.7112 26.6821 44.0663 26.5532 43.8081C26.4714 43.6445 26.2212 43.4939 25.9914 43.3561C25.7172 43.3939 25.351 43.4752 25.1985 43.6468C24.9403 43.937 24.747 44.1628 24.747 44.1628C24.747 44.1628 23.0359 42.7543 22.1919 41.2152C22.1608 41.2783 22.1403 41.3365 22.1337 41.3885C22.0692 41.9045 22.8434 42.6143 23.3594 43.1628C23.8754 43.7112 24.4883 44.5823 25.1012 44.8401C25.7146 45.0983 26.3274 44.905 26.3919 44.8081Z" fill="#B24B4B"/>
<path d="M23.8957 38.4236C24.0597 38.5693 24.1899 38.8884 24.3108 39.0116C24.7153 39.4244 25.3015 39.6093 25.8619 39.6782C26.0433 39.7004 26.0877 39.8396 25.9908 40.0978C25.8939 40.356 25.4895 41.0018 25.2313 41.0987C24.973 41.1956 24.2313 40.744 23.941 40.4213C23.6508 40.0987 23.0379 39.4213 23.1024 39.1956C23.1641 38.9796 23.413 38.52 23.6077 38.3907C23.7153 38.3187 23.8104 38.3471 23.8957 38.4236Z" fill="#B24B4B"/>
<path d="M21.231 42.6467C21.231 42.6467 20.7794 44.3241 20.5212 44.8725C20.263 45.421 19.7794 46.0983 19.747 46.4854C19.7145 46.8725 19.9727 47.2272 19.9727 47.2272C19.9727 47.2272 20.2954 47.5174 21.2954 47.6467C22.2954 47.7756 23.3278 47.4534 23.5212 47.2596C23.7145 47.0659 23.7794 46.7436 23.7794 46.5179C23.7794 46.2921 23.5861 44.389 23.5536 43.9694C23.5212 43.5499 23.5212 42.6147 23.5212 42.6147L21.231 42.6467Z" fill="#FADCDC" stroke="#BC4644" stroke-width="0.0444444" stroke-miterlimit="10"/>
<path d="M23.7792 46.5276C23.365 46.876 22.705 47.2778 21.8761 47.2596C20.9517 47.2391 20.1846 46.8916 19.749 46.6418C19.781 46.9631 19.9726 47.2276 19.9726 47.2276C19.9726 47.2276 20.2952 47.5178 21.2952 47.6471C22.2952 47.776 23.3277 47.4538 23.521 47.26C23.7126 47.0689 23.7775 46.7529 23.7792 46.5276Z" fill="white" stroke="#263138" stroke-width="0.0444444" stroke-miterlimit="10" stroke-linecap="round" stroke-linejoin="round"/>
<path d="M23.779 46.5277C23.779 46.5277 23.4243 45.9695 21.8114 45.7113C21.0678 45.5922 20.4274 45.7339 19.9527 45.9211C19.8421 46.1371 19.7594 46.3335 19.747 46.4855C19.7145 46.8726 19.9727 47.2273 19.9727 47.2273C19.9727 47.2273 20.2954 47.5175 21.2954 47.6468C22.2954 47.7757 23.3278 47.4535 23.5212 47.2597C23.7123 47.0691 23.7772 46.7531 23.779 46.5277Z" fill="#B24B4B"/>
<path d="M21.876 42.937C21.876 42.937 21.7791 43.9045 21.5533 44.3885C21.3275 44.8725 21.6177 44.9045 21.908 44.9045C22.1982 44.9045 22.4884 44.7757 22.4884 44.5174C22.4884 44.2592 22.4884 42.9045 22.4884 42.9045L21.876 42.937Z" fill="#B24B4B"/>
<path d="M20.7473 41.0659C20.7473 41.0659 20.5215 41.2917 20.554 41.5175C20.5864 41.7432 20.5864 42.485 20.7473 42.7757C20.9086 43.0659 21.8833 43.3117 22.4962 43.3117C23.1091 43.3117 23.6184 42.8401 23.7797 42.5495C23.9411 42.2588 23.8442 41.8397 23.7797 41.4526C23.7153 41.0655 23.4571 41.001 23.07 40.9041C22.6829 40.8072 21.4895 40.7757 20.7473 41.0659Z" fill="#B24B4B"/>
<path d="M25.1986 26.7432L24.3275 27.8721L24.0049 28.1947C24.0049 28.1947 23.8115 28.9045 23.7791 29.2592C23.7467 29.6139 23.0693 35.4854 23.0693 35.4854C23.0693 35.4854 23.3275 37.2921 23.424 38.4854C23.5209 39.6792 23.5209 41.1307 23.424 41.4854C23.3271 41.8401 22.4884 42.0014 21.908 41.937C21.3275 41.8725 20.7791 41.6143 20.7467 41.2916C20.7142 40.969 19.1587 36.837 19.0693 36.1947C18.3675 31.1659 18.8035 28.7303 18.876 27.1943C18.9715 25.1641 19.2307 23.6779 19.2307 23.6779C19.2307 23.6779 20.3275 23.8392 21.6822 23.8712C23.0369 23.9036 25.7791 23.7423 25.7791 23.7423" fill="#C55C5C"/>
<path d="M21.3379 25.4894C22.0143 25.9583 23.1837 26.8489 23.5214 27.6138" stroke="#E46F6F" stroke-width="0.0444444" stroke-miterlimit="10" stroke-linecap="round" stroke-linejoin="round"/>
<path d="M20.8438 25.1624C20.8438 25.1624 20.9264 25.2135 21.0633 25.3037" stroke="#E46F6F" stroke-width="0.0444444" stroke-miterlimit="10" stroke-linecap="round" stroke-linejoin="round"/>
<path d="M23.6016 27.1116C23.6593 27.2165 23.7091 27.3205 23.7473 27.4205" stroke="#E46F6F" stroke-width="0.0444444" stroke-miterlimit="10" stroke-linecap="round" stroke-linejoin="round"/>
<path d="M22.6826 25.8721C22.6826 25.8721 23.0124 26.2281 23.3177 26.6623" stroke="#E46F6F" stroke-width="0.0444444" stroke-miterlimit="10" stroke-linecap="round" stroke-linejoin="round"/>
<path d="M23.0665 35.7783C23.0665 35.7783 22.9403 36.7112 22.4238 37.4205" stroke="#E46F6F" stroke-width="0.0444444" stroke-miterlimit="10" stroke-linecap="round" stroke-linejoin="round"/>
<path d="M22.9402 36.8726C22.9402 36.8726 22.65 37.5823 22.2305 38.2272" stroke="#E46F6F" stroke-width="0.0444444" stroke-miterlimit="10" stroke-linecap="round" stroke-linejoin="round"/>
<path d="M21.2636 9.54892C21.2636 9.54892 17.7378 12.5009 16.8023 13.5654C15.8667 14.6298 15.8667 14.7591 16.0281 15.2107C16.1894 15.6623 18.6183 19.8396 18.7796 20.3556C18.9409 20.8716 19.1023 23.0654 19.1023 23.5494C19.1023 24.0334 19.4894 24.3236 19.8765 24.388C20.2636 24.4525 23.5218 24.8396 25.4894 24.4849C27.4574 24.1303 28.5538 23.9045 28.6832 23.4849C28.8121 23.0654 28.8445 22.0654 28.8445 21.872C28.8445 21.6787 29.2641 15.5169 29.2641 15.5169L32.5543 14.5169C32.5543 14.5169 31.6187 9.87159 31.4574 9.48448C31.2961 9.09736 28.0054 8.8187 26.7476 8.7747C25.4898 8.7307 22.4249 9.38759 22.0054 9.42003C21.5858 9.45203 21.2636 9.54892 21.2636 9.54892Z" fill="#B24B4B"/>
<path d="M23.3682 23.8964C24.2731 23.5386 25.5993 22.952 26.7673 22.1915" stroke="#E46F6F" stroke-width="0.0444444" stroke-miterlimit="10" stroke-linecap="round" stroke-linejoin="round"/>
<path d="M22.2852 24.2924C22.2852 24.2924 22.5012 24.2231 22.8576 24.0916" stroke="#E46F6F" stroke-width="0.0444444" stroke-miterlimit="10" stroke-linecap="round" stroke-linejoin="round"/>
<path d="M28.0537 21.7556C28.1382 21.685 28.223 21.6125 28.3079 21.5378" stroke="#E46F6F" stroke-width="0.0444444" stroke-miterlimit="10" stroke-linecap="round" stroke-linejoin="round"/>
<path d="M25.2734 23.592C25.2734 23.592 26.349 23.088 27.6161 22.108" stroke="#E46F6F" stroke-width="0.0444444" stroke-miterlimit="10" stroke-linecap="round" stroke-linejoin="round"/>
<path d="M29.2316 15.3231L28.0703 12.7102" stroke="#E46F6F" stroke-width="0.0444444" stroke-miterlimit="10" stroke-linecap="round" stroke-linejoin="round"/>
<path d="M20.4893 15.517C20.4893 15.517 20.5537 14.6783 20.4893 14.033" stroke="#E46F6F" stroke-width="0.0444444" stroke-miterlimit="10" stroke-linecap="round" stroke-linejoin="round"/>
<path d="M28.683 14.0329C28.683 14.0329 27.5861 13.6783 27.2959 13.0005" stroke="#E46F6F" stroke-width="0.0444444" stroke-miterlimit="10" stroke-linecap="round" stroke-linejoin="round"/>
<path d="M30.2635 18.6138C30.2635 18.6138 30.2528 18.6605 30.2342 18.7436C30.1151 19.2729 29.6697 21.276 29.5862 22.0009C29.4893 22.8396 28.7475 25.1622 28.7475 25.1622C28.7475 25.1622 27.3928 25.1947 27.1666 25.2267C26.9408 25.2591 26.8439 25.7751 26.8439 26.0009C26.8439 26.2267 26.6182 26.7427 26.6182 26.9365C26.6182 27.1302 27.0053 27.2911 27.0053 27.2911C27.0053 27.2911 26.9728 27.6782 27.0697 27.7427C27.1666 27.8071 27.4568 28.0329 27.6826 27.904C27.9084 27.7751 28.1022 27.6138 28.1022 27.6138C28.1022 27.6138 28.7475 27.7107 28.8764 27.7107C29.0053 27.7107 29.2311 27.5818 29.3924 27.5818C29.5537 27.5818 29.7151 27.6787 29.8439 27.4849C29.9728 27.2916 30.1022 26.6782 30.1342 26.4849C30.1666 26.2916 32.8764 20.872 33.2311 20.0329C33.5857 19.1942 33.6182 18.8716 33.6182 18.5814C33.6182 18.2911 33.4893 17.8716 33.4893 17.8716L30.1991 18.3876L30.2635 18.6138Z" fill="#F8C8B4"/>
<path d="M29.4886 17.6138C29.4886 17.6138 28.682 15.6458 28.9082 15.42C29.134 15.1942 31.3597 14.1942 32.3277 14.1942C33.2957 14.1942 33.3277 14.3555 33.3277 14.5813C33.3277 14.8071 33.0051 16.9364 33.0051 16.9364C33.0051 16.9364 31.0695 16.8071 29.4886 17.6138Z" fill="#E46F6F"/>
<path d="M21.1988 11.7746C21.1988 11.7746 20.973 13.2586 20.9086 14.0329C20.8441 14.8071 21.3926 15.9684 21.3926 15.9684C21.3926 15.9684 22.1993 15.1618 22.4895 14.936C22.7797 14.7102 23.5539 14.6133 23.5539 14.6133C23.5539 14.6133 24.1668 14.7102 24.425 14.8715C24.6833 15.0329 25.425 15.8071 25.425 15.8071C25.425 15.8071 25.8321 14.8084 25.7477 13.4844C25.6633 12.1604 25.2637 11.2906 25.2637 11.2906L21.1988 11.7746Z" fill="#E46F6F"/>
<path d="M22.8438 14.549L23.618 16.0974L24.0375 14.5814L22.8438 14.549Z" fill="#FAFAFA" stroke="#E46F6F" stroke-width="0.0444444" stroke-miterlimit="10" stroke-linecap="round" stroke-linejoin="round"/>
<path d="M20.8128 9.25026C20.8128 9.25026 20.4368 9.18537 20.3692 9.59204C20.3012 9.9987 20.7537 10.8578 20.8439 11.0387C20.9341 11.2196 21.0475 11.1743 21.0701 10.9934C21.0928 10.8125 21.0928 9.70492 21.0928 9.70492C21.0928 9.70492 20.9399 9.24759 20.8128 9.25026Z" fill="#F8C8B4"/>
<path d="M26.1254 9.24682C26.1254 9.24682 26.5054 9.21437 26.5378 9.62593C26.5702 10.0375 26.0462 10.8539 25.9405 11.0264C25.8347 11.1988 25.7262 11.1442 25.7191 10.9619C25.712 10.7797 25.8076 9.6766 25.8076 9.6766C25.8076 9.6766 25.9991 9.2326 26.1254 9.24682Z" fill="#F8C8B4"/>
<path d="M21.0169 10.0818C21.0169 10.0818 20.9129 12.0565 21.0516 12.2992C21.1903 12.5418 21.7445 14.2392 21.8485 14.3778C21.9463 14.5081 22.8396 15.1281 24.3854 14.6841C24.5729 14.6303 24.7285 14.4983 24.8072 14.3192C25.0654 13.7294 25.66 12.3503 25.66 12.1605C25.66 11.9178 25.9027 9.59651 25.9027 9.59651C25.9027 9.59651 25.972 8.31474 25.5218 8.00274C25.0716 7.69074 21.8147 7.76007 21.3645 8.0374C20.9129 8.31518 21.0169 10.0818 21.0169 10.0818Z" fill="#F8C8B4"/>
<path d="M25.2113 11.2881C25.2028 11.4361 24.3762 11.5081 23.3655 11.4494C22.3548 11.3907 21.5424 11.2232 21.5508 11.0752C21.5593 10.9272 22.386 10.8552 23.3966 10.9139C24.4073 10.9725 25.2197 11.1401 25.2113 11.2881Z" fill="#E0B5A6"/>
<path d="M24.7618 12.4031C24.6578 11.9875 24.0689 11.6755 24.0689 11.6755C24.0689 11.6755 24.1729 11.9529 24.0689 12.0911C23.9649 12.2293 23.688 12.4378 23.376 12.4378C23.064 12.4378 22.6831 12.0911 22.6138 11.9529C22.5445 11.8146 22.7871 11.6755 22.7871 11.6755C22.7871 11.6755 22.0942 11.9182 22.0596 12.3338" stroke="#441B13" stroke-width="0.0444444" stroke-miterlimit="10" stroke-linecap="round" stroke-linejoin="round"/>
<path d="M23.7744 10.5672C23.9366 10.8276 24.6309 10.0329 25.2642 9.9436" stroke="#441B13" stroke-width="0.0444444" stroke-miterlimit="10" stroke-linecap="round" stroke-linejoin="round"/>
<path d="M22.752 10.5325C22.7346 10.8014 22.1857 10.0592 21.7471 9.87427" stroke="#441B13" stroke-width="0.0444444" stroke-miterlimit="10" stroke-linecap="round" stroke-linejoin="round"/>
<path d="M24.5017 11.0173C24.5879 11.0173 24.6577 10.9087 24.6577 10.7746C24.6577 10.6406 24.5879 10.532 24.5017 10.532C24.4155 10.532 24.3457 10.6406 24.3457 10.7746C24.3457 10.9087 24.4155 11.0173 24.5017 11.0173Z" fill="#441B13"/>
<path d="M22.3533 11.0173C22.4394 11.0173 22.5093 10.9087 22.5093 10.7746C22.5093 10.6406 22.4394 10.532 22.3533 10.532C22.2671 10.532 22.1973 10.6406 22.1973 10.7746C22.1973 10.9087 22.2671 11.0173 22.3533 11.0173Z" fill="#441B13"/>
<path d="M23.4106 10.0126L23.376 10.6019L23.5146 10.7055" stroke="#441B13" stroke-width="0.0444444" stroke-miterlimit="10" stroke-linecap="round" stroke-linejoin="round"/>
<path d="M23.0635 10.0126V10.6019" stroke="#441B13" stroke-width="0.0444444" stroke-miterlimit="10" stroke-linecap="round" stroke-linejoin="round"/>
<path d="M24.6128 13.2618C24.4537 13.0538 24.2115 12.9267 23.9524 12.8903C23.6133 12.8423 23.0168 12.701 22.5728 12.849C21.8453 13.0916 21.7475 13.6507 22.0244 13.997C22.3013 14.3432 22.8088 13.6552 23.4671 13.8285C24.1253 14.0018 24.2417 14.309 24.5537 13.893C24.7617 13.6161 24.7537 13.4463 24.6128 13.2618Z" fill="white" stroke="#441B13" stroke-width="0.0444444" stroke-miterlimit="10" stroke-linecap="round" stroke-linejoin="round"/>
<path d="M21.9336 13.4027C21.9336 13.4027 22.3029 13.4738 22.8278 13.4454Z" fill="white"/>
<path d="M21.9336 13.4027C21.9336 13.4027 22.3029 13.4738 22.8278 13.4454" stroke="#441B13" stroke-width="0.0444444" stroke-miterlimit="10" stroke-linecap="round" stroke-linejoin="round"/>
<path d="M24.6747 13.4027C24.6747 13.4027 24.1494 13.4596 23.8369 13.4454Z" fill="white"/>
<path d="M24.6747 13.4027C24.6747 13.4027 24.1494 13.4596 23.8369 13.4454" stroke="#441B13" stroke-width="0.0444444" stroke-miterlimit="10" stroke-linecap="round" stroke-linejoin="round"/>
<path d="M21.8147 10.9711C21.8072 10.9725 21.9476 10.9471 22.1765 11.0613" stroke="#441B13" stroke-width="0.0444444" stroke-miterlimit="10" stroke-linecap="round" stroke-linejoin="round"/>
<path d="M24.5723 11.1067C24.5723 11.1067 24.7532 10.9938 24.866 11.0164" stroke="#441B13" stroke-width="0.0444444" stroke-miterlimit="10" stroke-linecap="round" stroke-linejoin="round"/>
<path d="M21.6095 8.66137L22.0944 8.59204C22.0944 8.59204 21.5402 9.35426 22.1984 9.56226C22.8567 9.77026 24.8318 8.7307 25.0047 8.48804C25.178 8.24537 24.97 8.80004 25.1433 8.86892C25.3167 8.93781 25.49 8.73026 25.49 8.73026C25.49 8.73026 25.2473 9.18048 25.49 9.38848C25.7327 9.59648 25.9055 9.59648 25.9055 9.59648L25.8362 10.4974L26.1829 9.21559C26.1829 9.21559 26.4255 9.04226 26.4602 8.55737C26.4949 8.07248 26.3215 7.89915 26.3562 7.72581C26.3909 7.55248 26.6335 7.55248 26.6682 7.17159C26.7029 6.7907 26.2873 6.0627 25.9407 5.92448C25.594 5.78626 25.0051 5.82048 25.0051 5.82048C25.0051 5.82048 24.1735 5.26626 22.9264 5.19692C21.6793 5.12759 20.6398 5.99381 20.7438 6.34004C20.8478 6.6867 21.0211 6.72092 21.0211 6.72092C21.0211 6.72092 19.6007 7.55248 19.8433 7.96804C20.086 8.38359 20.9522 8.52226 20.9522 8.52226C20.9522 8.52226 20.6749 8.97248 20.8135 9.24981C20.9522 9.52715 21.0215 10.4623 21.0215 10.4623C21.0215 10.4623 20.9869 10.2196 21.2642 9.76937C21.5402 9.31959 21.6789 9.00804 21.6095 8.66137Z" fill="#441B13"/>
<path d="M22.1021 18.8715L29.3603 17.2586C29.3603 17.2586 30.0056 15.5813 30.1345 15.3875C30.2634 15.1942 30.715 15.0004 30.9412 14.8715C31.167 14.7426 31.4572 14.42 31.5865 14.2586C31.7154 14.0973 31.8448 14.0004 31.9736 14.2586C32.1025 14.5168 32.0705 14.7746 31.9736 14.936C31.8768 15.0973 31.5719 15.3195 31.5719 15.3195C31.5719 15.3195 32.6514 14.8071 32.7803 14.8071C32.9092 14.8071 33.103 14.8395 33.1674 15.0328C33.2319 15.2262 33.2319 15.2586 33.135 15.42C33.0381 15.5813 32.9416 15.6457 32.9416 15.6457C32.9416 15.6457 33.2319 15.6457 33.3612 15.7426C33.4905 15.8395 33.5545 16.0328 33.5545 16.1622C33.5545 16.2911 33.4825 16.504 33.3856 16.5684C33.2888 16.6328 33.2643 16.7751 33.2643 16.7751L33.7159 16.8395C33.7159 16.8395 33.9092 17.2266 33.8448 17.42C33.7803 17.6133 33.4901 17.7102 33.4901 17.7102C33.4901 17.7102 33.8128 17.8715 33.6514 18.0973C33.4901 18.3231 33.2643 18.2906 33.1674 18.2906C33.0705 18.2906 29.9416 18.8711 29.9416 18.8711L21.8448 22.8711C21.8439 22.872 21.747 19.904 22.1021 18.8715Z" fill="#F8C8B4" stroke="#E0B5A6" stroke-width="0.0444444" stroke-miterlimit="10"/>
<path d="M32.5233 15.7653C32.5233 15.7653 32.4637 15.9435 32.3153 15.9733C32.1664 16.003 31.9584 15.9733 31.9584 15.9733L31.4229 16.3599" stroke="#E0B5A6" stroke-width="0.0444444" stroke-miterlimit="10" stroke-linecap="round" stroke-linejoin="round"/>
<path d="M32.8798 16.8657C32.8798 16.8657 32.85 17.0146 32.6718 17.0439C32.4936 17.0737 32.2851 16.9546 32.2851 16.9546L31.75 17.2222" stroke="#E0B5A6" stroke-width="0.0444444" stroke-miterlimit="10" stroke-linecap="round" stroke-linejoin="round"/>
<path d="M31.5717 15.3195C31.5717 15.3195 30.5308 15.5572 30.5014 15.6466C30.4717 15.7359 30.4121 15.8248 30.4121 15.8248" stroke="#E0B5A6" stroke-width="0.0444444" stroke-miterlimit="10" stroke-linecap="round" stroke-linejoin="round"/>
<path d="M19.9083 14.0649L21.9407 18.936L19.7149 22.4845C19.7149 22.4845 16.77 18.7267 16.0603 16.8556C15.3505 14.9845 15.8345 14.7267 15.8669 14.6298C15.8994 14.5329 16.9638 13.7267 16.9638 13.7267" fill="#B24B4B"/>
<path d="M21.7469 18.3881C21.7469 18.3881 21.3598 18.4849 20.4887 19.5494C19.6176 20.6138 19.0371 21.6138 19.0371 21.9689C19.0371 22.3241 19.4567 22.7432 20.2629 23.0658C21.0696 23.3885 22.166 23.0983 22.166 22.7432C22.166 22.3885 22.1336 20.0009 22.1336 19.5494C22.1336 19.0978 22.2304 18.8076 22.2304 18.8076C22.2304 18.8076 22.0376 18.4525 21.7469 18.3881Z" fill="#E46F6F"/>
<path d="M16.3623 7.79154C16.3761 7.76221 16.3903 7.73332 16.4006 7.70221C16.477 7.73332 16.5601 7.75109 16.6477 7.75109C16.8641 7.75109 17.0557 7.64487 17.1743 7.48265L18.8312 7.92132L17.2997 7.0991C17.2997 7.02443 17.2863 6.95287 17.2632 6.88576C17.589 6.70754 17.8099 6.36176 17.8099 5.96443C17.8099 5.38487 17.3401 4.9151 16.7606 4.9151C16.437 4.9151 16.1477 5.06176 15.9552 5.29198C15.8512 4.97421 15.553 4.74487 15.2006 4.74487C14.7761 4.74487 14.4308 5.07776 14.4086 5.49643C14.4032 5.50087 14.3974 5.50443 14.3921 5.50887C14.3339 5.49154 14.2721 5.48221 14.2081 5.48221C13.8477 5.48221 13.5557 5.77421 13.5557 6.13465C13.5557 6.38532 13.6974 6.60265 13.905 6.71198C13.9223 6.86976 13.9681 7.0191 14.0348 7.15554C13.9161 7.25954 13.8392 7.41065 13.8392 7.58087C13.8392 7.89421 14.093 8.14798 14.4063 8.14798C14.5712 8.14798 14.7188 8.07643 14.8223 7.96354C14.9881 8.17865 15.2481 8.31776 15.5406 8.31776C15.8032 8.31776 16.0379 8.20487 16.2032 8.02665L17.5259 7.97776L16.3623 7.79154Z" fill="#D2AEAD"/>
<path d="M28.908 4.77558C28.8836 4.75425 28.8591 4.73336 28.8369 4.70936C28.78 4.76891 28.7107 4.81869 28.6307 4.85425C28.4325 4.9418 28.2147 4.92269 28.0405 4.82225L26.7031 5.89469L27.7698 4.52225C27.7396 4.4538 27.7227 4.38314 27.7165 4.31247C27.3467 4.2818 27.0045 4.05514 26.8431 3.69202C26.6085 3.16225 26.8476 2.54225 27.3773 2.30758C27.6733 2.17647 27.9969 2.19336 28.2662 2.3258C28.2325 1.99336 28.412 1.66269 28.7342 1.52002C29.1222 1.34802 29.5729 1.51247 29.7627 1.88625C29.7693 1.88802 29.7765 1.88891 29.7831 1.89069C29.8293 1.85114 29.8822 1.81736 29.9405 1.79158C30.2698 1.6458 30.6551 1.79425 30.8009 2.12358C30.9027 2.35291 30.8609 2.60891 30.7156 2.79291C30.7636 2.94447 30.7822 3.09914 30.7769 3.25114C30.9276 3.29825 31.0587 3.40491 31.128 3.56091C31.2551 3.84714 31.1258 4.18225 30.8391 4.30936C30.688 4.37647 30.5245 4.37025 30.384 4.30936C30.3196 4.57336 30.1387 4.8058 29.8711 4.92447C29.6311 5.03069 29.3707 5.02269 29.1471 4.92669L27.9182 5.4178L28.908 4.77558Z" fill="#D2AEAD"/>
<path d="M25.0722 9.65824C25.0486 9.74802 24.7984 9.79957 24.5357 9.93379C24.2691 10.0605 24.0749 10.228 23.9909 10.1916C23.9522 10.1725 23.9553 10.0933 24.0215 9.98535C24.0864 9.87824 24.2211 9.74757 24.4029 9.65779C24.5846 9.56846 24.7691 9.54135 24.8926 9.55557C25.0175 9.56935 25.0806 9.61557 25.0722 9.65824Z" fill="#441B13"/>
<path d="M21.9002 9.77151C21.9224 9.85951 22.1624 9.9004 22.414 10.0231C22.6691 10.1377 22.8549 10.2964 22.9357 10.2568C22.9726 10.2364 22.9704 10.1586 22.9069 10.0542C22.8446 9.95062 22.7162 9.82706 22.542 9.74529C22.3677 9.66395 22.1909 9.6444 22.0726 9.66351C21.9522 9.68129 21.8917 9.72973 21.9002 9.77151Z" fill="#441B13"/>
<path d="M19.9321 7.03471C19.905 7.03471 19.881 7.01515 19.8761 6.9876C19.8708 6.95648 19.8917 6.92671 19.9223 6.92137C20.0254 6.90315 20.1157 6.84626 20.1757 6.76048C20.2361 6.67471 20.2592 6.57071 20.241 6.46715C20.2037 6.25426 20.0001 6.11115 19.7868 6.14848C19.7557 6.15426 19.7263 6.13337 19.7206 6.10226C19.7152 6.07115 19.7361 6.04137 19.7668 6.03604C20.0419 5.98804 20.305 6.17249 20.353 6.4476C20.3761 6.58093 20.3463 6.71515 20.2686 6.82626C20.1908 6.93693 20.0748 7.01071 19.9414 7.03426C19.9388 7.03471 19.9352 7.03471 19.9321 7.03471Z" fill="#B24B4B"/>
<path d="M21.0384 6.28183C20.9758 6.28183 20.9118 6.27028 20.85 6.24539C20.7242 6.19472 20.626 6.09872 20.5731 5.97428C20.5202 5.84983 20.5184 5.71205 20.5691 5.58672C20.5806 5.55739 20.614 5.54317 20.6433 5.55517C20.6726 5.56672 20.6869 5.60005 20.6749 5.62939C20.6358 5.72672 20.6371 5.83339 20.678 5.92983C20.7193 6.02628 20.7953 6.10094 20.8926 6.14005C21.0931 6.2205 21.3224 6.12317 21.4033 5.92228C21.4149 5.89294 21.4482 5.87872 21.4775 5.89072C21.5069 5.90228 21.5211 5.93561 21.5091 5.96494C21.43 6.16183 21.2393 6.28183 21.0384 6.28183Z" fill="#B24B4B"/>
<path d="M21.5788 7.42983C21.5766 7.42983 21.5748 7.42983 21.5726 7.42939C21.2948 7.39917 21.0935 7.1485 21.1242 6.87072C21.1544 6.59294 21.4046 6.39161 21.6828 6.42228C21.7144 6.42583 21.7366 6.45383 21.7335 6.48539C21.73 6.51694 21.7015 6.53916 21.6704 6.53605C21.4553 6.5125 21.2611 6.6685 21.2375 6.88361C21.214 7.09872 21.37 7.29294 21.5851 7.3165C21.6166 7.32005 21.6388 7.34805 21.6357 7.37961C21.6322 7.40805 21.6073 7.42983 21.5788 7.42983Z" fill="#B24B4B"/>
<path d="M20.9025 7.66182C20.8954 7.66182 20.8883 7.66048 20.8812 7.65782C20.8518 7.64626 20.8376 7.61293 20.8496 7.5836C20.882 7.50315 20.8812 7.4156 20.8469 7.3356C20.8132 7.25604 20.75 7.19471 20.67 7.16226C20.59 7.13026 20.5016 7.13115 20.422 7.16493C20.3425 7.19871 20.2807 7.26182 20.2487 7.34182C20.2367 7.37115 20.2034 7.38537 20.1745 7.37337C20.1452 7.36182 20.1309 7.32848 20.1429 7.29915C20.1865 7.19071 20.27 7.10537 20.3776 7.05959C20.4852 7.01382 20.6043 7.01248 20.7127 7.05604C20.9367 7.14626 21.0456 7.40182 20.9558 7.62582C20.9465 7.64848 20.9252 7.66182 20.9025 7.66182Z" fill="#B24B4B"/>
<path d="M24.8232 8.87686C24.8059 8.87686 24.7903 8.86442 24.7872 8.84664C24.7836 8.82664 24.797 8.80797 24.817 8.80442C24.8832 8.79286 24.9405 8.75642 24.9792 8.70131C25.0179 8.6462 25.0325 8.57953 25.021 8.51375C24.997 8.37731 24.8667 8.28575 24.7303 8.30975C24.7103 8.31331 24.6916 8.29997 24.6881 8.27997C24.6845 8.25997 24.6979 8.24131 24.7179 8.23775C24.8943 8.20709 25.0627 8.32531 25.0934 8.50131C25.1085 8.58664 25.089 8.67286 25.0392 8.74353C24.9894 8.81464 24.9147 8.86175 24.8294 8.87686C24.8276 8.87686 24.8254 8.87686 24.8232 8.87686Z" fill="#B24B4B"/>
<path d="M25.5321 8.39463C25.4921 8.39463 25.4512 8.38707 25.4117 8.37107C25.3312 8.33863 25.2681 8.27685 25.2344 8.1973C25.2001 8.11774 25.1992 8.0293 25.2317 7.94885C25.2392 7.93019 25.2606 7.92085 25.2792 7.92841C25.2979 7.93596 25.3072 7.9573 25.2997 7.97596C25.2748 8.03819 25.2752 8.10663 25.3019 8.16841C25.3281 8.23019 25.377 8.27774 25.4392 8.30307C25.5677 8.35463 25.7144 8.29196 25.7664 8.16352C25.7739 8.14485 25.7952 8.13552 25.8139 8.14307C25.8326 8.15063 25.8419 8.17196 25.8344 8.19063C25.7828 8.31774 25.661 8.39463 25.5321 8.39463Z" fill="#B24B4B"/>
<path d="M25.878 9.12984C25.8767 9.12984 25.8754 9.12984 25.874 9.12984C25.6963 9.11028 25.5674 8.94984 25.5869 8.77206C25.6065 8.59428 25.7665 8.46495 25.9447 8.48495C25.9647 8.48717 25.9794 8.5054 25.9771 8.5254C25.9749 8.5454 25.9567 8.56006 25.9367 8.55784C25.7989 8.54273 25.6745 8.64273 25.6594 8.78051C25.6443 8.91828 25.7443 9.04273 25.882 9.05784C25.902 9.06006 25.9167 9.07828 25.9145 9.09828C25.9123 9.11606 25.8963 9.12984 25.878 9.12984Z" fill="#B24B4B"/>
<path d="M25.4448 9.27869C25.4404 9.27869 25.4355 9.2778 25.431 9.27602C25.4124 9.26847 25.403 9.24713 25.4106 9.22847C25.431 9.17691 25.4306 9.12091 25.4088 9.0698C25.387 9.01869 25.347 8.97958 25.2955 8.95869C25.2439 8.93824 25.1879 8.93869 25.1368 8.96047C25.0857 8.98224 25.0466 9.02269 25.0257 9.0738C25.0182 9.09247 24.9968 9.1018 24.9782 9.09424C24.9595 9.08669 24.9501 9.06535 24.9577 9.04669C24.9857 8.97735 25.039 8.92269 25.1079 8.89335C25.1768 8.86402 25.2533 8.86313 25.3226 8.89113C25.4662 8.94891 25.5359 9.11247 25.4782 9.25602C25.4733 9.2698 25.4595 9.27869 25.4448 9.27869Z" fill="#B24B4B"/>
<path d="M20.2579 10.3988C20.2415 10.4037 19.517 10.4983 19.5384 10.4921C19.6135 10.405 19.6157 10.337 19.5504 10.2481C19.4828 10.1566 19.381 10.1463 19.2686 10.1632C19.1619 10.1792 19.0521 10.209 18.9744 10.2832C18.8961 10.3575 18.8624 10.4868 18.9233 10.5752C18.7424 10.5272 18.5375 10.6837 18.5361 10.8708C18.5348 11.0579 18.7375 11.2175 18.9193 11.1717C18.8073 11.2743 18.7953 11.4632 18.8833 11.5872C18.9713 11.7112 19.1419 11.7637 19.289 11.725C19.4357 11.6859 19.5539 11.5641 19.6033 11.4206C19.6273 11.525 19.7735 11.5655 19.8628 11.5063C19.9521 11.4472 19.9801 11.3228 19.9517 11.2197C19.9237 11.1166 19.8504 11.0317 19.7708 10.9597L20.3526 10.7326" fill="white"/>
<path d="M20.3518 10.7326C20.3523 10.7335 20.3389 10.7393 20.3136 10.7504C20.2856 10.762 20.2483 10.7775 20.2003 10.7971C20.0985 10.838 19.9545 10.8958 19.7736 10.9682L19.7763 10.9526C19.8238 10.9953 19.8727 11.0446 19.9123 11.1073C19.9514 11.1691 19.9798 11.2478 19.9709 11.3313C19.9634 11.4122 19.9185 11.5051 19.8265 11.5366C19.7816 11.5509 19.7318 11.5491 19.6869 11.5309C19.6425 11.5131 19.6011 11.4749 19.5891 11.4233L19.6149 11.4246C19.5811 11.522 19.5167 11.614 19.4247 11.6771C19.334 11.7411 19.2114 11.7691 19.0954 11.7415C18.9811 11.7162 18.8687 11.6358 18.8283 11.5144C18.7878 11.3971 18.81 11.2513 18.9078 11.1606L18.922 11.1869C18.9029 11.1904 18.8816 11.1949 18.8603 11.1949C18.762 11.1966 18.6696 11.15 18.606 11.0811C18.542 11.0126 18.5074 10.9144 18.5251 10.8224C18.5616 10.6384 18.7576 10.518 18.926 10.5615L18.9105 10.5838C18.8731 10.5286 18.87 10.4589 18.8874 10.4006C18.9043 10.3415 18.9407 10.2895 18.9874 10.254C19.0811 10.1815 19.194 10.1602 19.2963 10.1473C19.3483 10.142 19.4016 10.1429 19.4505 10.1598C19.4994 10.1762 19.5403 10.2113 19.566 10.2509C19.5927 10.2891 19.6131 10.3366 19.606 10.3838C19.5989 10.4309 19.5718 10.4673 19.5456 10.4984L19.5407 10.5015C19.5589 10.4842 19.5336 10.4811 19.538 10.4824H19.5389H19.5411L19.5465 10.482L19.5571 10.4811L19.578 10.4789C19.5918 10.4771 19.6056 10.4758 19.6189 10.474C19.6456 10.4709 19.6718 10.4678 19.6971 10.4646C19.7478 10.4584 19.7954 10.4526 19.8398 10.4473C19.9283 10.4366 20.0038 10.4273 20.0665 10.4198C20.1265 10.4126 20.1736 10.4073 20.2083 10.4033C20.2229 10.4015 20.2349 10.4006 20.2447 10.3993C20.2531 10.3984 20.2571 10.3984 20.2571 10.3984C20.2576 10.3998 20.2407 10.4033 20.2087 10.4086C20.1745 10.414 20.1274 10.4211 20.0678 10.4304C20.0051 10.4393 19.9296 10.45 19.8416 10.4624C19.7971 10.4686 19.7496 10.4749 19.6989 10.482C19.6736 10.4855 19.6474 10.4886 19.6207 10.4922C19.6074 10.494 19.5936 10.4958 19.5798 10.4975L19.5589 10.5002L19.5483 10.5015L19.5429 10.502L19.5398 10.5024H19.538C19.542 10.5038 19.5149 10.5002 19.5345 10.4829L19.5296 10.486C19.5545 10.4558 19.5789 10.4215 19.5838 10.3815C19.5896 10.3415 19.5718 10.3006 19.546 10.2642C19.5211 10.2273 19.4856 10.1971 19.4411 10.1829C19.3971 10.1678 19.3474 10.1673 19.2976 10.1726C19.198 10.1855 19.0887 10.2082 19.0029 10.2753C18.9607 10.3082 18.9283 10.3553 18.9131 10.4086C18.898 10.4615 18.9016 10.5215 18.9331 10.5678L18.9549 10.5998L18.9176 10.59C18.7678 10.5504 18.5851 10.6633 18.554 10.8286C18.5203 10.9953 18.6825 11.1686 18.8585 11.1646C18.8776 11.1646 18.8963 11.1611 18.9131 11.158L18.9665 11.1482L18.9274 11.1842C18.8407 11.2646 18.8185 11.3984 18.8558 11.5055C18.8918 11.6149 18.9945 11.69 19.1011 11.7135C19.2091 11.7398 19.3216 11.7144 19.4078 11.6544C19.4945 11.5953 19.5563 11.5086 19.5887 11.4166L19.6043 11.3722L19.6145 11.418C19.6238 11.4593 19.6571 11.4913 19.6958 11.5073C19.7349 11.5233 19.7789 11.5255 19.8176 11.5131C19.8963 11.4873 19.9394 11.4042 19.9465 11.3295C19.9554 11.2522 19.93 11.1789 19.8931 11.1189C19.8558 11.0584 19.8087 11.0095 19.7625 10.9669L19.7514 10.9566L19.7656 10.9513C19.9478 10.882 20.0931 10.8269 20.1954 10.7882C20.2438 10.7704 20.282 10.7562 20.3105 10.746C20.338 10.7362 20.3518 10.7318 20.3518 10.7326Z" fill="#C68B8C"/>
<path d="M20.1868 10.5155C20.189 10.5235 20.0841 10.5604 19.9521 10.5977C19.8201 10.635 19.7112 10.6586 19.709 10.6501C19.7068 10.6421 19.8117 10.6053 19.9437 10.5679C20.0757 10.531 20.1846 10.5075 20.1868 10.5155Z" fill="#C68B8C"/>
<path d="M20.166 10.2801C20.1665 10.2885 20.0873 10.3005 19.9887 10.3067C19.8905 10.3129 19.81 10.3112 19.8096 10.3027C19.8091 10.2943 19.8882 10.2823 19.9869 10.2761C20.0851 10.2698 20.1656 10.2712 20.166 10.2801Z" fill="#C68B8C"/>
<path d="M20.4257 10.8832C20.4315 10.8895 20.3777 10.9517 20.3053 11.0219C20.2328 11.0926 20.1693 11.145 20.1635 11.1388C20.1577 11.1326 20.2115 11.0704 20.284 11.0001C20.3564 10.9299 20.42 10.8775 20.4257 10.8832Z" fill="#C68B8C"/>
<path d="M26.7686 10.1973C26.7837 10.2066 27.3521 10.6942 27.333 10.6822C27.2148 10.6848 27.1619 10.7297 27.1388 10.8404C27.1148 10.9546 27.1774 11.0391 27.2672 11.1133C27.3521 11.1835 27.4503 11.2466 27.5606 11.2555C27.6708 11.2644 27.7926 11.2017 27.8183 11.0946C27.9059 11.2657 28.1654 11.3146 28.309 11.1875C28.4526 11.0604 28.4352 10.7964 28.2761 10.6893C28.4312 10.7044 28.5832 10.5839 28.6174 10.4319C28.6517 10.2799 28.5748 10.1137 28.4446 10.0284C28.3143 9.94305 28.1401 9.93639 27.997 9.99728C28.0601 9.9075 27.9908 9.76794 27.8846 9.74083C27.7783 9.71328 27.6641 9.77728 27.605 9.86928C27.5454 9.96128 27.5312 10.0755 27.5308 10.1853L26.9588 9.89728" fill="white"/>
<path d="M26.9588 9.89694C26.9593 9.89605 26.973 9.90182 26.9988 9.91382C27.0268 9.92716 27.0642 9.94538 27.1122 9.96805C27.213 10.0174 27.3557 10.088 27.5353 10.176L27.5215 10.1845C27.5215 10.1192 27.5255 10.0476 27.5464 9.97471C27.5664 9.90271 27.6073 9.82671 27.677 9.77649C27.7437 9.72671 27.8455 9.69738 27.9326 9.74582C27.9744 9.77027 28.0068 9.80938 28.0237 9.85605C28.0406 9.90227 28.0402 9.96005 28.0086 10.0045L27.9917 9.9836C28.089 9.94271 28.2033 9.92894 28.3148 9.9556C28.4259 9.98094 28.5313 10.0552 28.5895 10.1627C28.6486 10.2672 28.6641 10.408 28.5993 10.5223C28.5375 10.6334 28.4108 10.716 28.2748 10.704L28.285 10.6752C28.301 10.6872 28.3188 10.7005 28.333 10.7169C28.4019 10.7907 28.4295 10.8934 28.4206 10.9889C28.4126 11.0849 28.3615 11.1783 28.2788 11.2276C28.1135 11.3258 27.8873 11.2587 27.805 11.1005L27.8326 11.0974C27.8161 11.1636 27.765 11.2138 27.709 11.2405C27.6522 11.268 27.5877 11.2756 27.5286 11.2649C27.409 11.2432 27.3157 11.1716 27.2357 11.1027C27.1961 11.0667 27.1602 11.0254 27.1397 10.9765C27.1184 10.928 27.1175 10.8729 27.1299 10.8258C27.141 10.7792 27.1628 10.7312 27.2037 10.704C27.2442 10.6769 27.2908 10.6729 27.3326 10.6716L27.3384 10.6729C27.3126 10.6712 27.3277 10.6925 27.3255 10.688L27.325 10.6876L27.3233 10.6858L27.3193 10.6823L27.3113 10.6752L27.2953 10.6609C27.2846 10.6516 27.2739 10.6423 27.2637 10.6329C27.2428 10.6147 27.2228 10.5969 27.2028 10.5796C27.1633 10.5454 27.1264 10.5129 27.0917 10.4823C27.0233 10.4223 26.9642 10.3707 26.9153 10.328C26.8686 10.2872 26.8322 10.2547 26.8055 10.2312C26.7944 10.2209 26.785 10.2125 26.7775 10.2058C26.7713 10.2 26.7682 10.1969 26.7686 10.1969C26.7695 10.196 26.7833 10.2063 26.8095 10.2267C26.837 10.2494 26.8748 10.28 26.9228 10.3196C26.9726 10.3614 27.0326 10.4116 27.1024 10.4703C27.1375 10.5 27.1748 10.532 27.2148 10.5658C27.2348 10.5827 27.2553 10.6005 27.2766 10.6183C27.2873 10.6272 27.2979 10.6365 27.3086 10.6458L27.325 10.66L27.333 10.6672L27.337 10.6707L27.3393 10.6729L27.3406 10.6743C27.3393 10.6703 27.3548 10.6934 27.3277 10.6903L27.3335 10.6916C27.2935 10.6934 27.2504 10.6983 27.2166 10.7218C27.1824 10.7449 27.1633 10.7863 27.153 10.8307C27.1419 10.8747 27.1433 10.9227 27.1628 10.9663C27.1815 11.0103 27.2153 11.0485 27.2535 11.0827C27.3317 11.1498 27.4237 11.2178 27.5339 11.2369C27.5882 11.2467 27.6459 11.2392 27.697 11.2143C27.7477 11.1898 27.7913 11.1454 27.8046 11.0898L27.8139 11.0512L27.8322 11.0867C27.9046 11.228 28.1157 11.2903 28.2633 11.2005C28.4135 11.112 28.4348 10.8694 28.3108 10.7378C28.2979 10.7232 28.2824 10.7116 28.2682 10.7005L28.2242 10.6667L28.2784 10.6716C28.3993 10.6827 28.5162 10.6076 28.5726 10.5058C28.6313 10.4032 28.6179 10.2738 28.5633 10.1765C28.5095 10.0765 28.4126 10.0076 28.3082 9.98316C28.2037 9.95738 28.0953 9.96982 28.0028 10.008L27.9584 10.0267L27.9864 9.9876C28.0117 9.95205 28.013 9.90494 27.9988 9.86449C27.9842 9.8236 27.9557 9.78849 27.9197 9.7676C27.8464 9.72538 27.753 9.74938 27.6913 9.79516C27.6264 9.84138 27.5877 9.91116 27.5673 9.98005C27.5468 10.0498 27.5419 10.1192 27.541 10.1836V10.1992L27.5273 10.192C27.3499 10.1005 27.2081 10.0276 27.1081 9.97605C27.0615 9.95116 27.0246 9.9316 26.997 9.91738C26.9713 9.90538 26.9584 9.89782 26.9588 9.89694Z" fill="#C68B8C"/>
<path d="M26.9054 10.1711C26.9099 10.1635 27.0103 10.2187 27.129 10.2938C27.2476 10.3689 27.3401 10.436 27.3356 10.4431C27.3312 10.4507 27.2308 10.3955 27.1121 10.3204C26.9934 10.2453 26.901 10.1787 26.9054 10.1711Z" fill="#C68B8C"/>
<path d="M26.7397 10.348C26.746 10.3418 26.8095 10.3943 26.8815 10.4649C26.954 10.5356 27.0073 10.5978 27.0015 10.604C26.9953 10.6103 26.9317 10.5578 26.8597 10.4871C26.7873 10.4165 26.7335 10.3543 26.7397 10.348Z" fill="#C68B8C"/>
<path d="M27.0225 9.73643C27.0229 9.72754 27.1074 9.72621 27.2109 9.73332C27.3145 9.73999 27.398 9.75288 27.3971 9.76132C27.3967 9.77021 27.3122 9.77154 27.2087 9.76443C27.1056 9.75776 27.022 9.74532 27.0225 9.73643Z" fill="#C68B8C"/>
</g>
<defs>
<clipPath id="clip0_1146_49378">
<rect width="48" height="48" rx="24" fill="white"/>
</clipPath>
</defs>
</svg>
